<svg width="30" height="30" viewBox="0 0 30 30" fill="none" xmlns="http://www.w3.org/2000/svg">
<g clip-path="url(#clip0_1_443)">
<path d="M26.0625 9.12495C25.8875 8.88745 25.6125 8.74995 25.3125 8.74995L9.9 8.76245L9.7125 7.79995C9.4125 6.18745 7.9875 5.01245 6.3375 5.01245H3.4375C2.925 5.01245 2.5 5.42495 2.5 5.94995C2.5 6.46245 2.925 6.88745 3.4375 6.88745H6.3375C7.0875 6.88745 7.7375 7.41245 7.875 8.14995L8.2 9.84995L8.2125 9.89995L9.6625 18.6C9.7375 19.05 10.1375 19.3875 10.5875 19.3875H20.925C22.45 19.3875 23.8125 18.3625 24.2375 16.8875L26.2125 9.94995C26.3 9.66245 26.2375 9.36245 26.0625 9.12495ZM22.425 16.375C22.2375 17.05 21.625 17.5125 20.925 17.5125H11.3875L10.2375 10.6375L24.075 10.625L22.425 16.375Z" fill="#222222"/>
<path d="M12.5 26.25C13.8807 26.25 15 25.1307 15 23.75C15 22.3693 13.8807 21.25 12.5 21.25C11.1193 21.25 10 22.3693 10 23.75C10 25.1307 11.1193 26.25 12.5 26.25Z" fill="#222222"/>
<path d="M20.625 26.2625C22.0057 26.2625 23.125 25.1432 23.125 23.7625C23.125 22.3817 22.0057 21.2625 20.625 21.2625C19.2443 21.2625 18.125 22.3817 18.125 23.7625C18.125 25.1432 19.2443 26.2625 20.625 26.2625Z" fill="#222222"/>
</g>
<defs>
<clipPath id="clip0_1_443">
<rect width="30" height="30" fill="white"/>
</clipPath>
</defs>
</svg>
