<svg width="27" height="31" viewBox="0 0 27 31" fill="none" xmlns="http://www.w3.org/2000/svg">
<g id="Frame" clip-path="url(#clip0_1_475)">
<path id="Vector" d="M20.9747 30.9323C20.8175 30.9323 20.6693 30.8697 20.5583 30.7556C20.4469 30.642 20.3857 30.4899 20.3857 30.3294V24.7636C20.3857 24.6027 20.4469 24.451 20.5583 24.3374C20.6693 24.2233 20.8175 24.1606 20.9747 24.1606H26.4109C26.7357 24.1606 26.9998 24.431 26.9998 24.7636C26.9998 25.0962 26.7357 25.3666 26.4109 25.3666H21.5636V30.3294C21.5636 30.4903 21.5024 30.642 21.391 30.7556C21.28 30.8697 21.1314 30.9323 20.9747 30.9323Z" fill="#A55E3F"/>
<path id="Vector_2" d="M3.30719 30.9324C3.14999 30.9324 3.00185 30.8698 2.89086 30.7557C2.77942 30.6421 2.71826 30.4899 2.71826 30.3295V15.0236C2.71826 14.691 2.98237 14.4206 3.30719 14.4206C3.632 14.4206 3.89611 14.691 3.89611 15.0236V29.7265H20.975C21.2998 29.7265 21.5639 29.9969 21.5639 30.3295C21.5639 30.662 21.2998 30.9324 20.975 30.9324H3.30719ZM26.4112 25.3666C26.254 25.3666 26.1059 25.304 25.9949 25.1899C25.8834 25.0763 25.8223 24.9242 25.8223 24.7637V2.17589H3.89611V3.42819C3.89611 3.76075 3.632 4.03115 3.30719 4.03115C2.98237 4.03115 2.71826 3.76075 2.71826 3.42819V1.57293C2.71826 1.41152 2.77942 1.25986 2.89086 1.14622C3.00185 1.03259 3.14954 0.969971 3.30719 0.969971H26.4112C26.5689 0.969971 26.7166 1.03259 26.828 1.14668C26.939 1.25986 27.0001 1.41152 27.0001 1.57293V24.7637C27.0001 24.9246 26.939 25.0763 26.8275 25.1899C26.7166 25.304 26.568 25.3666 26.4112 25.3666Z" fill="#A55E3F"/>
<path id="Vector_3" d="M20.9749 30.9324C20.7348 30.9324 20.5214 30.7863 20.4313 30.5595C20.3398 30.3345 20.3896 30.0762 20.5586 29.9032L25.9948 24.3374C26.1067 24.2252 26.253 24.164 26.4084 24.164C26.5661 24.164 26.7138 24.227 26.8243 24.3416C27.0522 24.5721 27.0544 24.9529 26.8284 25.189L21.3912 30.7557C21.2802 30.8698 21.1317 30.9324 20.9749 30.9324ZM6.40034 28.9899C6.24179 28.9899 6.09365 28.9259 5.98311 28.8105L4.70288 27.4997C4.59234 27.3879 4.53073 27.2372 4.53028 27.0758C4.52982 26.9135 4.59098 26.7613 4.70288 26.6472L13.9934 17.1372C14.1035 17.0235 14.2512 16.9604 14.4088 16.9604C14.5669 16.9604 14.7146 17.0235 14.8247 17.1376C14.9357 17.2508 14.9969 17.4025 14.9969 17.5634C14.9969 17.7244 14.9357 17.876 14.8243 17.9897L5.95185 27.0735L6.40034 27.5326L15.2746 18.4488C15.3855 18.3347 15.5337 18.2721 15.6909 18.2721C15.8481 18.2721 15.9962 18.3347 16.1072 18.4488C16.3369 18.684 16.3369 19.0662 16.1072 19.3013L6.81667 28.8132C6.70568 28.9273 6.55754 28.9899 6.40034 28.9899Z" fill="#A55E3F"/>
<path id="Vector_4" d="M10.8841 24.3973C10.7269 24.3973 10.5788 24.3347 10.4678 24.2206L9.18663 22.9089C8.96012 22.6747 8.96058 22.2934 9.18799 22.0587C9.30079 21.9446 9.44848 21.882 9.60568 21.882C9.76152 21.882 9.90829 21.9437 10.0188 22.0559L11.3004 23.3681C11.4694 23.5406 11.5197 23.799 11.4291 24.0248C11.3371 24.2512 11.1233 24.3973 10.8841 24.3973ZM15.6906 19.4781C15.4954 19.4781 15.3142 19.3802 15.205 19.2165C15.0954 19.0523 15.0714 18.844 15.1407 18.659L15.4465 17.8491L14.5934 18.1362C14.5332 18.1562 14.4711 18.1659 14.4095 18.1659C14.1535 18.1659 13.9284 17.9999 13.8487 17.7517C13.7997 17.5987 13.812 17.435 13.8831 17.2916C13.9542 17.1474 14.0761 17.0407 14.226 16.9911L16.261 16.306C16.3199 16.2861 16.382 16.2759 16.4445 16.2759C16.6048 16.2759 16.7602 16.3445 16.8703 16.4642C17.0266 16.6284 17.0755 16.8765 16.994 17.0945L16.2402 19.0922C16.1496 19.3269 15.9344 19.4781 15.6906 19.4781Z" fill="#A55E3F"/>
<path id="Vector_5" d="M0.588926 15.6265C0.431275 15.6265 0.283591 15.5639 0.172148 15.4498C0.0611577 15.3361 0 15.1845 0 15.0235V3.42815C0 3.26675 0.0611577 3.11508 0.172601 3.00145C0.283591 2.88781 0.431275 2.8252 0.588926 2.8252H20.8811C21.0387 2.8252 21.1864 2.88781 21.2978 3.00191C21.4084 3.11462 21.47 3.26628 21.47 3.42815V15.0235C21.47 15.1854 21.4084 15.3371 21.2969 15.4502C21.1864 15.5639 21.0387 15.6265 20.8811 15.6265H0.588926ZM20.2921 14.4206V4.03111H1.17785V14.4206H20.2921Z" fill="#A55E3F"/>
<path id="Vector_6" d="M2.40094 12.8437C2.07612 12.8437 1.81201 12.5733 1.81201 12.2408C1.81201 11.9082 2.07612 11.6378 2.40094 11.6378H6.93114C7.25596 11.6378 7.52007 11.9082 7.52007 12.2408C7.52007 12.5733 7.25596 12.8437 6.93114 12.8437H2.40094ZM14.7847 10.7621C14.5872 10.7621 14.3924 10.7524 14.1985 10.7343C13.6472 10.6735 13.099 10.5539 12.5681 10.3786C12.1445 10.2144 11.706 10.1323 11.2579 10.1323C11.1605 10.1323 11.0631 10.1365 10.9653 10.1439C10.6002 10.1889 10.2454 10.2988 9.91609 10.4713C9.83319 10.5145 9.74077 10.5372 9.64881 10.5372C9.42592 10.5372 9.22478 10.411 9.12421 10.2074C9.05309 10.0636 9.0404 9.90083 9.08933 9.74777C9.1378 9.59472 9.24199 9.47041 9.38198 9.39759C9.83636 9.15827 10.3261 9.0066 10.8366 8.9463C10.9807 8.93332 11.122 8.92682 11.2625 8.92682C11.8278 8.92682 12.3837 9.02747 12.9142 9.22598C13.3613 9.37626 13.832 9.48015 14.3086 9.53349C14.4685 9.54741 14.6316 9.55436 14.7947 9.55436C15.3002 9.55436 15.8049 9.48618 16.2951 9.35121C16.3449 9.33823 16.3947 9.33173 16.4437 9.33173C16.7114 9.33173 16.9456 9.51726 17.014 9.78302C17.0942 10.1044 16.9048 10.4338 16.5913 10.5182C15.9988 10.6782 15.3908 10.7598 14.7847 10.7621ZM4.66559 10.539C3.10629 10.5279 1.84372 9.21995 1.85097 7.6235C1.85867 6.03076 3.12985 4.73486 4.68552 4.73486C6.25161 4.73857 7.52007 6.0405 7.52007 7.63695C7.51236 9.23758 6.2353 10.539 4.67283 10.539H4.66559ZM4.66649 5.94078C3.75728 5.95099 3.02203 6.71721 3.02882 7.64901C3.03562 8.57757 3.77857 9.33266 4.68552 9.33312C5.60198 9.32941 6.34221 8.56876 6.34221 7.63695C6.33542 6.7019 5.58703 5.94078 4.67283 5.94078V5.80164L4.66649 5.94078ZM14.7847 7.98435C14.5872 7.98435 14.3924 7.97554 14.1985 7.95699C13.644 7.89623 13.0958 7.77563 12.5676 7.59938C12.1431 7.43659 11.7037 7.35495 11.2557 7.35495C11.1592 7.35495 11.0622 7.35866 10.9657 7.36655C10.6006 7.40968 10.2459 7.52054 9.917 7.69447C9.83409 7.7376 9.74258 7.75986 9.65107 7.75986C9.42819 7.75986 9.22614 7.63417 9.12512 7.43102C8.97788 7.13511 9.0934 6.77101 9.38198 6.61934C9.83726 6.38094 10.3265 6.22974 10.8371 6.16991C10.9839 6.15599 11.1279 6.1495 11.2715 6.1495C11.8337 6.1495 12.3869 6.25015 12.9151 6.44912C13.3604 6.59894 13.8311 6.70283 14.3095 6.7571C14.4689 6.77101 14.6316 6.77797 14.7942 6.77797C15.2998 6.77797 15.8054 6.70932 16.2955 6.57389C16.3454 6.5609 16.3947 6.55441 16.4437 6.55441C16.7114 6.55441 16.9456 6.73901 17.0145 7.00431C17.0951 7.32713 16.9057 7.65736 16.5918 7.74131C16.0038 7.89947 15.3958 7.98157 14.7852 7.98481H14.7847V7.98435Z" fill="#A55E3F"/>
<path id="Vector_7" d="M14.1797 12.3797C14.0221 12.3797 13.8744 12.3171 13.763 12.203C13.652 12.0894 13.5908 11.9377 13.5908 11.7768V5.28338C13.5908 5.12197 13.652 4.97077 13.7634 4.85713C13.8744 4.74303 14.0221 4.68042 14.1797 4.68042H19.163C19.3206 4.68042 19.4683 4.74303 19.5797 4.85713C19.6907 4.9703 19.7519 5.12197 19.7519 5.28338V11.7768C19.7519 11.9382 19.6907 12.0894 19.5793 12.203C19.4683 12.3167 19.3206 12.3793 19.163 12.3793H14.1797V12.3797ZM18.574 11.1738V5.88634H14.7687V11.1738H18.574Z" fill="#A55E3F"/>
</g>
<defs>
<clipPath id="clip0_1_475">
<rect width="27" height="29.9624" fill="white" transform="translate(0 0.969971)"/>
</clipPath>
</defs>
</svg>
