<svg width="40" height="40" viewBox="0 0 40 40" fill="none" xmlns="http://www.w3.org/2000/svg">
<path d="M35.625 31.25H8.125C7.75 31.25 7.5 31 7.5 30.625C7.5 30.25 7.75 30 8.125 30H35.625C36 30 36.25 30.25 36.25 30.625C36.25 31 36 31.25 35.625 31.25ZM28.125 21.875H25.5C25.125 21.875 24.875 21.625 24.875 21.25C24.875 20.875 25.125 20.625 25.5 20.625H28.125C28.5 20.625 28.75 20.875 28.75 21.25C28.75 21.625 28.5 21.875 28.125 21.875ZM30.625 15C30.25 15 30 14.75 30 14.375C30 14 30.25 13.75 30.625 13.75H35.625C36 13.75 36.25 14 36.25 14.375C36.25 14.75 36 15 35.625 15H30.625ZM13.125 15H8.125C7.75 15 7.5 14.75 7.5 14.375C7.5 14 7.75 13.75 8.125 13.75H13.125C13.5 13.75 13.75 14 13.75 14.375C13.75 14.75 13.5 15 13.125 15Z" fill="#A55E3F"/>
<path d="M33.2501 33.75H10.5001C9.5001 33.75 8.6251 33.375 8.1251 32.625C7.5001 31.875 7.2501 30.875 7.5001 30L9.1251 21.875C9.3751 20.75 10.1251 19.875 11.2501 19.5L11.8751 19.25C12.6251 19 13.1251 18.25 13.1251 17.5V13C13.1251 12.125 14.0001 11.25 15.0001 11.25H28.7501C29.7501 11.25 30.6251 12.125 30.6251 13.125V17.625C30.6251 18.375 31.1251 19.125 31.8751 19.375L32.5001 19.625C33.5001 20 34.3751 20.875 34.6251 22L36.2501 30C36.3751 30.875 36.2501 31.875 35.6251 32.625C35.0001 33.375 34.1251 33.75 33.2501 33.75ZM15.0001 12.5C14.6251 12.5 14.3751 12.75 14.3751 13.125V17.625C14.3751 19 13.5001 20.125 12.2501 20.625L11.6251 20.875C11.0001 21.125 10.5001 21.625 10.3751 22.25L8.7501 30.25C8.6251 30.75 8.7501 31.375 9.1251 31.75C9.5001 32.125 10.0001 32.5 10.5001 32.5H33.1251C33.7501 32.5 34.2501 32.25 34.6251 31.875C35.0001 31.5 35.1251 30.875 35.0001 30.375L33.3751 22.25C33.2501 21.625 32.7501 21 32.1251 20.875L31.5001 20.625C30.2501 20.25 29.3751 19 29.3751 17.625V13.125C29.3751 12.75 29.1251 12.5 28.7501 12.5H15.0001Z" fill="#A55E3F"/>
<path d="M21.875 27.5C18.375 27.5 15.625 24.75 15.625 21.25C15.625 17.75 18.375 15 21.875 15C25.375 15 28.125 17.75 28.125 21.25C28.125 24.75 25.375 27.5 21.875 27.5ZM21.875 16.25C19.125 16.25 16.875 18.5 16.875 21.25C16.875 24 19.125 26.25 21.875 26.25C24.625 26.25 26.875 24 26.875 21.25C26.875 18.5 24.625 16.25 21.875 16.25Z" fill="#A55E3F"/>
<path d="M21.875 25C19.75 25 18.125 23.375 18.125 21.25C18.125 19.125 19.75 17.5 21.875 17.5C24 17.5 25.625 19.125 25.625 21.25C25.625 23.375 24 25 21.875 25ZM21.875 18.75C20.5 18.75 19.375 19.875 19.375 21.25C19.375 22.625 20.5 23.75 21.875 23.75C23.25 23.75 24.375 22.625 24.375 21.25C24.375 19.875 23.25 18.75 21.875 18.75Z" fill="#A55E3F"/>
<path d="M35 18.75H31C30.375 18.75 29.75 18.5 29.5 17.875C29.375 17.75 29.375 17.625 29.375 17.5V13C29.375 12.625 29.125 12.375 28.75 12.375H15C14.625 12.375 14.375 12.625 14.375 13V17.5C14.375 17.625 14.375 17.75 14.25 17.875C13.875 18.375 13.375 18.75 12.75 18.75H8.75C7.75 18.75 6.875 17.875 6.875 16.875V13.5C6.875 11.5 7.875 9.625 9.625 8.625C12.25 7.125 15.125 6.25 18.25 6.25H25.625C28.625 6.25 31.625 7.125 34.25 8.625C35.875 9.625 37 11.5 37 13.5V16.875C36.875 17.875 36 18.75 35 18.75ZM30.625 17.375C30.75 17.5 30.875 17.5 31 17.5H35C35.375 17.5 35.625 17.25 35.625 16.875V13.5C35.625 12 34.75 10.5 33.5 9.75C31.125 8.25 28.375 7.5 25.5 7.5H18.125C15.375 7.5 12.625 8.25 10.125 9.75C8.875 10.5 8 12 8 13.5V16.875C8.125 17.25 8.375 17.5 8.75 17.5H12.75C12.875 17.5 13 17.5 13.125 17.375V13.125C13.125 12.125 14 11.25 15 11.25H28.75C29.75 11.25 30.625 12.125 30.625 13.125V17.375ZM5 27.5C4 27.5 3.125 26.625 3.125 25.625C3.125 24.625 4 23.75 5 23.75C5.375 23.75 5.625 24 5.625 24.375C5.625 24.75 5.375 25 5 25C4.625 25 4.375 25.25 4.375 25.625C4.375 26 4.625 26.25 5 26.25C5.375 26.25 5.625 26.5 5.625 26.875C5.625 27.25 5.375 27.5 5 27.5Z" fill="#A55E3F"/>
<path d="M5 30C4 30 3.125 29.125 3.125 28.125C3.125 27.125 4 26.25 5 26.25C5.375 26.25 5.625 26.5 5.625 26.875C5.625 27.25 5.375 27.5 5 27.5C4.625 27.5 4.375 27.75 4.375 28.125C4.375 28.5 4.625 28.75 5 28.75C5.375 28.75 5.625 29 5.625 29.375C5.625 29.75 5.375 30 5 30ZM5 25C4 25 3.125 24.125 3.125 23.125C3.125 22.125 4 21.25 5 21.25C5.375 21.25 5.625 21.5 5.625 21.875C5.625 22.25 5.375 22.5 5 22.5C4.625 22.5 4.375 22.75 4.375 23.125C4.375 23.5 4.625 23.75 5 23.75C5.375 23.75 5.625 24 5.625 24.375C5.625 24.75 5.375 25 5 25Z" fill="#A55E3F"/>
<path d="M5 22.5C4 22.5 3.125 21.625 3.125 20.625C3.125 19.625 4 18.75 5 18.75C5.375 18.75 5.625 19 5.625 19.375C5.625 19.75 5.375 20 5 20C4.625 20 4.375 20.25 4.375 20.625C4.375 21 4.625 21.25 5 21.25C5.375 21.25 5.625 21.5 5.625 21.875C5.625 22.25 5.375 22.5 5 22.5Z" fill="#A55E3F"/>
<path d="M5 20C4.625 20 4.375 19.75 4.375 19.375V18.125C4.375 17.125 5.25 16.25 6.25 16.25H7.5C7.875 16.25 8.125 16.5 8.125 16.875C8.125 17.25 7.875 17.5 7.5 17.5H6.25C5.875 17.5 5.625 17.75 5.625 18.125V19.375C5.625 19.75 5.375 20 5 20Z" fill="#A55E3F"/>
</svg>
