<svg width="19" height="19" viewBox="0 0 19 19" fill="none" xmlns="http://www.w3.org/2000/svg">
<path d="M13.6828 12.2837C14.7329 10.7147 15.2033 8.76932 14.9997 6.83686C14.7962 4.90439 13.9337 3.12733 12.585 1.86121C11.2362 0.595085 9.50055 -0.0667294 7.72528 0.00817C5.95 0.0830694 4.26601 0.889159 3.01022 2.26517C1.75442 3.64118 1.01944 5.48563 0.952305 7.42952C0.885171 9.37341 1.49084 11.2734 2.64814 12.7493C3.80543 14.2252 5.42901 15.1683 7.19406 15.3897C8.9591 15.6112 10.7354 15.0948 12.1677 13.9439H12.1666C12.1991 13.9914 12.2338 14.0365 12.2729 14.0804L16.4483 18.6523C16.6517 18.8751 16.9275 19.0004 17.2152 19.0005C17.5029 19.0006 17.7789 18.8756 17.9824 18.6529C18.1859 18.4302 18.3003 18.1282 18.3004 17.8132C18.3005 17.4982 18.1863 17.196 17.9829 16.9732L13.8075 12.4013C13.7687 12.3583 13.727 12.3186 13.6828 12.2826V12.2837ZM13.9626 7.71899C13.9626 8.57669 13.8083 9.42598 13.5085 10.2184C13.2088 11.0108 12.7694 11.7308 12.2155 12.3373C11.6616 12.9438 11.004 13.4249 10.2803 13.7531C9.55664 14.0813 8.78099 14.2502 7.99767 14.2502C7.21435 14.2502 6.4387 14.0813 5.715 13.7531C4.99131 13.4249 4.33374 12.9438 3.77985 12.3373C3.22595 11.7308 2.78658 11.0108 2.48682 10.2184C2.18705 9.42598 2.03277 8.57669 2.03277 7.71899C2.03277 5.9868 2.66121 4.32555 3.77985 3.1007C4.89848 1.87585 6.41568 1.18774 7.99767 1.18774C9.57966 1.18774 11.0969 1.87585 12.2155 3.1007C13.3341 4.32555 13.9626 5.9868 13.9626 7.71899Z" fill="#2F2F2F"/>
</svg>
