<svg width="16" height="16" viewBox="0 0 16 16" fill="none" xmlns="http://www.w3.org/2000/svg">
<path d="M11.7425 10.3439C12.7107 9.02262 13.1444 7.38445 12.9567 5.75714C12.769 4.12983 11.9739 2.63339 10.7303 1.5672C9.48666 0.501012 7.88635 -0.0562948 6.2495 0.00677712C4.61265 0.0698491 3.05997 0.748648 1.90209 1.90737C0.744221 3.0661 0.0665459 4.61929 0.00464636 6.25622C-0.0572531 7.89314 0.501188 9.49308 1.56825 10.7359C2.63531 11.9788 4.13229 12.7729 5.7597 12.9594C7.38711 13.146 9.02494 12.7111 10.3455 11.7419H10.3445C10.3745 11.7819 10.4065 11.8199 10.4425 11.8569L14.2924 15.7068C14.4799 15.8944 14.7342 15.9999 14.9995 16C15.2647 16.0001 15.5192 15.8948 15.7068 15.7073C15.8944 15.5198 15.9999 15.2654 16 15.0002C16.0001 14.7349 15.8948 14.4805 15.7073 14.2928L11.8575 10.4429C11.8217 10.4067 11.7833 10.3733 11.7425 10.3429V10.3439ZM12.0004 6.49998C12.0004 7.22223 11.8582 7.93742 11.5818 8.6047C11.3054 9.27197 10.9003 9.87828 10.3896 10.389C9.87889 10.8997 9.2726 11.3048 8.60533 11.5812C7.93807 11.8576 7.2229 11.9999 6.50065 11.9999C5.77841 11.9999 5.06324 11.8576 4.39597 11.5812C3.72871 11.3048 3.12242 10.8997 2.61171 10.389C2.10101 9.87828 1.6959 9.27197 1.41951 8.6047C1.14312 7.93742 1.00086 7.22223 1.00086 6.49998C1.00086 5.04131 1.5803 3.64239 2.61171 2.61096C3.64312 1.57953 5.04202 1.00008 6.50065 1.00008C7.95929 1.00008 9.35818 1.57953 10.3896 2.61096C11.421 3.64239 12.0004 5.04131 12.0004 6.49998Z" fill="white"/>
</svg>
