<svg width="243" height="68" viewBox="0 0 243 68" fill="none" xmlns="http://www.w3.org/2000/svg">
<path d="M2.178 31C2.01667 31 1.88467 30.9487 1.782 30.846C1.67933 30.7433 1.628 30.6113 1.628 30.45V16.15C1.628 15.9887 1.67933 15.8567 1.782 15.754C1.88467 15.6513 2.01667 15.6 2.178 15.6H4.576C4.73733 15.6 4.86933 15.6513 4.972 15.754C5.07467 15.8567 5.126 15.9887 5.126 16.15V21.65H11.088V16.15C11.088 15.9887 11.1393 15.8567 11.242 15.754C11.3447 15.6513 11.4767 15.6 11.638 15.6H14.036C14.1973 15.6 14.3293 15.6513 14.432 15.754C14.5347 15.8567 14.586 15.9887 14.586 16.15V30.45C14.586 30.6113 14.5347 30.7433 14.432 30.846C14.3293 30.9487 14.1973 31 14.036 31H11.638C11.4767 31 11.3447 30.9487 11.242 30.846C11.1393 30.7433 11.088 30.6113 11.088 30.45V24.774H5.126V30.45C5.126 30.6113 5.07467 30.7433 4.972 30.846C4.86933 30.9487 4.73733 31 4.576 31H2.178ZM18.3987 31C18.2374 31 18.1054 30.9487 18.0027 30.846C17.9 30.7433 17.8487 30.6113 17.8487 30.45V16.15C17.8487 15.9887 17.9 15.8567 18.0027 15.754C18.1054 15.6513 18.2374 15.6 18.3987 15.6H30.2567C30.418 15.6 30.55 15.6513 30.6527 15.754C30.7554 15.8567 30.8067 15.9887 30.8067 16.15V30.45C30.8067 30.6113 30.7554 30.7433 30.6527 30.846C30.55 30.9487 30.418 31 30.2567 31H27.8587C27.6974 31 27.5654 30.9487 27.4627 30.846C27.36 30.7433 27.3087 30.6113 27.3087 30.45V18.724H21.3467V30.45C21.3467 30.6113 21.2954 30.7433 21.1927 30.846C21.09 30.9487 20.958 31 20.7967 31H18.3987ZM40.1854 31.22C38.8507 31.22 37.6994 31 36.7314 30.56C35.7634 30.12 35.0081 29.46 34.4654 28.58C33.9227 27.6853 33.6294 26.5633 33.5854 25.214C33.5707 24.5833 33.5634 23.96 33.5634 23.344C33.5634 22.7133 33.5707 22.0753 33.5854 21.43C33.6294 20.11 33.9227 19.0027 34.4654 18.108C35.0227 17.1987 35.7854 16.5167 36.7534 16.062C37.7361 15.6073 38.8801 15.38 40.1854 15.38C41.4761 15.38 42.6054 15.6073 43.5734 16.062C44.5561 16.5167 45.3261 17.1987 45.8834 18.108C46.4407 19.0027 46.7341 20.11 46.7634 21.43C46.7927 22.0753 46.8074 22.7133 46.8074 23.344C46.8074 23.96 46.7927 24.5833 46.7634 25.214C46.7194 26.5633 46.4261 27.6853 45.8834 28.58C45.3407 29.46 44.5854 30.12 43.6174 30.56C42.6494 31 41.5054 31.22 40.1854 31.22ZM40.1854 28.382C41.0361 28.382 41.7327 28.1253 42.2754 27.612C42.8327 27.084 43.1261 26.248 43.1554 25.104C43.1847 24.4587 43.1994 23.8573 43.1994 23.3C43.1994 22.728 43.1847 22.1267 43.1554 21.496C43.1407 20.7333 43.0014 20.11 42.7374 19.626C42.4734 19.142 42.1214 18.79 41.6814 18.57C41.2561 18.3353 40.7574 18.218 40.1854 18.218C39.6134 18.218 39.1074 18.3353 38.6674 18.57C38.2274 18.79 37.8754 19.142 37.6114 19.626C37.3621 20.11 37.2227 20.7333 37.1934 21.496C37.1787 22.1267 37.1714 22.728 37.1714 23.3C37.1714 23.8573 37.1787 24.4587 37.1934 25.104C37.2374 26.248 37.5307 27.084 38.0734 27.612C38.6161 28.1253 39.3201 28.382 40.1854 28.382ZM54.9436 31C54.7823 31 54.6503 30.9487 54.5476 30.846C54.445 30.7433 54.3936 30.6113 54.3936 30.45V16.15C54.3936 15.9887 54.445 15.8567 54.5476 15.754C54.6503 15.6513 54.7823 15.6 54.9436 15.6H57.3416C57.503 15.6 57.635 15.6513 57.7376 15.754C57.8403 15.8567 57.8916 15.9887 57.8916 16.15V21.65H59.5196L62.9296 16.018C63.003 15.9007 63.1056 15.8053 63.2376 15.732C63.3696 15.644 63.5383 15.6 63.7436 15.6H66.4056C66.5523 15.6 66.6623 15.6513 66.7356 15.754C66.8236 15.842 66.8676 15.9447 66.8676 16.062C66.8676 16.15 66.8383 16.238 66.7796 16.326L62.6656 23.014L67.1976 30.252C67.227 30.3107 67.2416 30.3913 67.2416 30.494C67.2416 30.6407 67.1903 30.7653 67.0876 30.868C66.9996 30.956 66.8896 31 66.7576 31H64.0076C63.7876 31 63.6263 30.956 63.5236 30.868C63.421 30.7653 63.3403 30.6773 63.2816 30.604L59.6516 24.774H57.8916V30.45C57.8916 30.6113 57.8403 30.7433 57.7376 30.846C57.635 30.9487 57.503 31 57.3416 31H54.9436ZM70.0042 31C69.8428 31 69.7108 30.9487 69.6082 30.846C69.5055 30.7433 69.4542 30.6113 69.4542 30.45V16.15C69.4542 15.9887 69.5055 15.8567 69.6082 15.754C69.7108 15.6513 69.8428 15.6 70.0042 15.6H76.0102C77.1982 15.6 78.2248 15.7833 79.0902 16.15C79.9702 16.5167 80.6522 17.074 81.1362 17.822C81.6348 18.5553 81.8842 19.472 81.8842 20.572C81.8842 21.6867 81.6348 22.6107 81.1362 23.344C80.6522 24.0627 79.9702 24.598 79.0902 24.95C78.2248 25.302 77.1982 25.478 76.0102 25.478H73.0622V30.45C73.0622 30.6113 73.0108 30.7433 72.9082 30.846C72.8055 30.9487 72.6735 31 72.5122 31H70.0042ZM72.9962 22.75H75.9002C76.6482 22.75 77.2275 22.5667 77.6382 22.2C78.0635 21.8333 78.2762 21.2833 78.2762 20.55C78.2762 19.9047 78.0855 19.3767 77.7042 18.966C77.3375 18.5553 76.7362 18.35 75.9002 18.35H72.9962V22.75ZM84.678 31C84.5167 31 84.3847 30.9487 84.282 30.846C84.1793 30.7287 84.128 30.5967 84.128 30.45V16.15C84.128 15.9887 84.1793 15.8567 84.282 15.754C84.3993 15.6513 84.5313 15.6 84.678 15.6H87.076C87.2373 15.6 87.3693 15.6513 87.472 15.754C87.5747 15.8567 87.626 15.9887 87.626 16.15V25.654L94.38 15.996C94.4533 15.8933 94.5413 15.8053 94.644 15.732C94.7613 15.644 94.908 15.6 95.084 15.6H97.24C97.4013 15.6 97.5333 15.6513 97.636 15.754C97.7387 15.8567 97.79 15.9887 97.79 16.15V30.45C97.79 30.6113 97.7387 30.7433 97.636 30.846C97.5333 30.9487 97.4013 31 97.24 31H94.842C94.6953 31 94.5633 30.9487 94.446 30.846C94.3433 30.7433 94.292 30.6113 94.292 30.45V21.232L87.538 30.604C87.494 30.692 87.4207 30.78 87.318 30.868C87.2153 30.956 87.0613 31 86.856 31H84.678ZM107.152 31.22C105.774 31.22 104.6 30.9927 103.632 30.538C102.679 30.0687 101.938 29.394 101.41 28.514C100.882 27.6193 100.589 26.534 100.53 25.258C100.516 24.6567 100.508 24.0113 100.508 23.322C100.508 22.6327 100.516 21.9727 100.53 21.342C100.589 20.0807 100.882 19.01 101.41 18.13C101.953 17.2353 102.708 16.5533 103.676 16.084C104.644 15.6147 105.803 15.38 107.152 15.38C108.135 15.38 109.03 15.5047 109.836 15.754C110.643 16.0033 111.34 16.3627 111.926 16.832C112.513 17.3013 112.968 17.8513 113.29 18.482C113.613 19.1127 113.789 19.8167 113.818 20.594C113.818 20.726 113.767 20.836 113.664 20.924C113.576 21.012 113.466 21.056 113.334 21.056H110.826C110.65 21.056 110.511 21.012 110.408 20.924C110.306 20.836 110.225 20.6893 110.166 20.484C109.946 19.6187 109.58 19.0247 109.066 18.702C108.553 18.3793 107.915 18.218 107.152 18.218C106.243 18.218 105.524 18.4673 104.996 18.966C104.468 19.4647 104.182 20.2933 104.138 21.452C104.094 22.6547 104.094 23.8867 104.138 25.148C104.182 26.3067 104.468 27.1353 104.996 27.634C105.524 28.1327 106.243 28.382 107.152 28.382C107.915 28.382 108.553 28.2207 109.066 27.898C109.594 27.5607 109.961 26.9667 110.166 26.116C110.225 25.896 110.306 25.7493 110.408 25.676C110.511 25.588 110.65 25.544 110.826 25.544H113.334C113.466 25.544 113.576 25.588 113.664 25.676C113.767 25.764 113.818 25.874 113.818 26.006C113.789 26.7833 113.613 27.4873 113.29 28.118C112.968 28.7487 112.513 29.2987 111.926 29.768C111.34 30.2373 110.643 30.5967 109.836 30.846C109.03 31.0953 108.135 31.22 107.152 31.22ZM120.228 31C120.067 31 119.935 30.9487 119.832 30.846C119.729 30.7433 119.678 30.6113 119.678 30.45V18.658H115.674C115.527 18.658 115.403 18.6067 115.3 18.504C115.197 18.4013 115.146 18.2767 115.146 18.13V16.15C115.146 15.9887 115.197 15.8567 115.3 15.754C115.403 15.6513 115.527 15.6 115.674 15.6H127.202C127.363 15.6 127.495 15.6513 127.598 15.754C127.701 15.8567 127.752 15.9887 127.752 16.15V18.13C127.752 18.2767 127.701 18.4013 127.598 18.504C127.495 18.6067 127.363 18.658 127.202 18.658H123.22V30.45C123.22 30.6113 123.169 30.7433 123.066 30.846C122.963 30.9487 122.831 31 122.67 31H120.228ZM128.966 31C128.834 31 128.724 30.956 128.636 30.868C128.548 30.7653 128.504 30.6553 128.504 30.538C128.504 30.4647 128.512 30.3987 128.526 30.34L133.762 16.194C133.806 16.0327 133.894 15.8933 134.026 15.776C134.158 15.6587 134.342 15.6 134.576 15.6H137.392C137.627 15.6 137.81 15.6587 137.942 15.776C138.074 15.8933 138.162 16.0327 138.206 16.194L143.442 30.34C143.457 30.3987 143.464 30.4647 143.464 30.538C143.464 30.6553 143.42 30.7653 143.332 30.868C143.244 30.956 143.134 31 143.002 31H140.714C140.494 31 140.333 30.9487 140.23 30.846C140.128 30.7433 140.062 30.648 140.032 30.56L139.086 28.096H132.882L131.936 30.56C131.907 30.648 131.841 30.7433 131.738 30.846C131.636 30.9487 131.474 31 131.254 31H128.966ZM133.696 25.258H138.25L135.984 18.922L133.696 25.258ZM155.61 31C155.449 31 155.317 30.9487 155.214 30.846C155.112 30.7433 155.06 30.6113 155.06 30.45V18.724H150.638V21.122C150.638 22.8967 150.55 24.4073 150.374 25.654C150.198 26.886 149.898 27.8907 149.472 28.668C149.047 29.4453 148.46 30.0247 147.712 30.406C146.979 30.7727 146.04 30.9707 144.896 31C144.75 31 144.618 30.9487 144.5 30.846C144.398 30.7287 144.346 30.5893 144.346 30.428V28.47C144.346 28.162 144.515 27.9787 144.852 27.92C145.278 27.8467 145.637 27.6413 145.93 27.304C146.238 26.9667 146.488 26.4973 146.678 25.896C146.884 25.28 147.03 24.5393 147.118 23.674C147.206 22.794 147.25 21.7967 147.25 20.682V16.15C147.25 15.9887 147.302 15.8567 147.404 15.754C147.507 15.6513 147.632 15.6 147.778 15.6H158.008C158.17 15.6 158.302 15.6513 158.404 15.754C158.507 15.8567 158.558 15.9887 158.558 16.15V30.45C158.558 30.6113 158.507 30.7433 158.404 30.846C158.302 30.9487 158.17 31 158.008 31H155.61ZM172.068 31C171.906 31 171.774 30.9487 171.672 30.846C171.569 30.7433 171.518 30.6113 171.518 30.45V18.724H167.096V21.122C167.096 22.8967 167.008 24.4073 166.832 25.654C166.656 26.886 166.355 27.8907 165.93 28.668C165.504 29.4453 164.918 30.0247 164.17 30.406C163.436 30.7727 162.498 30.9707 161.354 31C161.207 31 161.075 30.9487 160.958 30.846C160.855 30.7287 160.804 30.5893 160.804 30.428V28.47C160.804 28.162 160.972 27.9787 161.31 27.92C161.735 27.8467 162.094 27.6413 162.388 27.304C162.696 26.9667 162.945 26.4973 163.136 25.896C163.341 25.28 163.488 24.5393 163.576 23.674C163.664 22.794 163.708 21.7967 163.708 20.682V16.15C163.708 15.9887 163.759 15.8567 163.862 15.754C163.964 15.6513 164.089 15.6 164.236 15.6H174.466C174.627 15.6 174.759 15.6513 174.862 15.754C174.964 15.8567 175.016 15.9887 175.016 16.15V30.45C175.016 30.6113 174.964 30.7433 174.862 30.846C174.759 30.9487 174.627 31 174.466 31H172.068Z" fill="#0640A7"/>
<path d="M2.70703 52.2041L7.12305 45.0469H8.83887V55H7.12305V47.8359L2.70703 55H0.998047V45.0469H2.70703V52.2041ZM13.7949 51.4658H12.373V50.6318H13.5215C13.8132 50.6318 14.0456 50.5931 14.2188 50.5156C14.3965 50.4382 14.5218 50.3311 14.5947 50.1943C14.6722 50.0531 14.7109 49.889 14.7109 49.7021C14.7109 49.5381 14.6722 49.3831 14.5947 49.2373C14.5218 49.0869 14.3965 48.9639 14.2188 48.8682C14.041 48.7725 13.7995 48.7246 13.4941 48.7246C13.2435 48.7246 13.0179 48.7656 12.8174 48.8477C12.6214 48.9297 12.4665 49.0436 12.3525 49.1895C12.2386 49.3353 12.1816 49.5039 12.1816 49.6953H10.5342C10.5342 49.235 10.6641 48.8385 10.9238 48.5059C11.1882 48.1732 11.5413 47.918 11.9834 47.7402C12.4255 47.5625 12.9108 47.4736 13.4395 47.4736C13.8906 47.4736 14.2962 47.5215 14.6562 47.6172C15.0163 47.7083 15.3216 47.8451 15.5723 48.0273C15.8275 48.2051 16.0212 48.4284 16.1533 48.6973C16.29 48.9616 16.3584 49.2692 16.3584 49.6201C16.3584 49.8708 16.2992 50.1077 16.1807 50.3311C16.0622 50.5544 15.8913 50.7526 15.668 50.9258C15.4447 51.0944 15.1735 51.2266 14.8545 51.3223C14.54 51.418 14.1868 51.4658 13.7949 51.4658ZM12.373 50.9873H13.7949C14.2324 50.9873 14.6198 51.0306 14.957 51.1172C15.2943 51.1992 15.5768 51.3223 15.8047 51.4863C16.0326 51.6504 16.2035 51.8532 16.3174 52.0947C16.4359 52.3317 16.4951 52.6051 16.4951 52.915C16.4951 53.2614 16.4199 53.5736 16.2695 53.8516C16.1237 54.125 15.9141 54.3574 15.6406 54.5488C15.3717 54.7402 15.0505 54.8861 14.6768 54.9863C14.3031 55.0866 13.8906 55.1367 13.4395 55.1367C12.9473 55.1367 12.4688 55.0547 12.0039 54.8906C11.5436 54.7266 11.1631 54.4736 10.8623 54.1318C10.5661 53.7855 10.418 53.3457 10.418 52.8125H12.0654C12.0654 52.9993 12.1224 53.1748 12.2363 53.3389C12.3503 53.5029 12.5143 53.6374 12.7285 53.7422C12.9427 53.8424 13.2002 53.8926 13.501 53.8926C13.8109 53.8926 14.0638 53.8447 14.2598 53.749C14.4557 53.6488 14.6016 53.5189 14.6973 53.3594C14.793 53.1953 14.8408 53.0221 14.8408 52.8398C14.8408 52.5938 14.793 52.3955 14.6973 52.2451C14.6016 52.0947 14.4557 51.9854 14.2598 51.917C14.0638 51.8441 13.8177 51.8076 13.5215 51.8076H12.373V50.9873ZM19.2363 47.6035H20.8838L20.8018 50.208C20.779 50.9645 20.6924 51.6139 20.542 52.1562C20.3916 52.6986 20.1956 53.1566 19.9541 53.5303C19.7126 53.8994 19.4391 54.2025 19.1338 54.4395C18.833 54.6764 18.5163 54.8633 18.1836 55H17.6982V53.7012L17.9307 53.6875C18.1266 53.4779 18.2952 53.2682 18.4365 53.0586C18.5824 52.8444 18.7054 52.6097 18.8057 52.3545C18.9059 52.0947 18.9834 51.7917 19.0381 51.4453C19.0973 51.099 19.1361 50.6865 19.1543 50.208L19.2363 47.6035ZM19.6738 47.6035H24.3633V55H22.7227V48.998H19.6738V47.6035ZM17.3223 53.6875H25.375V57.2012H23.7275V55H18.9902V57.2012H17.3154L17.3223 53.6875ZM29.8115 55.1367C29.2646 55.1367 28.7702 55.0479 28.3281 54.8701C27.8906 54.6878 27.5169 54.4349 27.207 54.1113C26.9017 53.7878 26.667 53.4072 26.5029 52.9697C26.3389 52.5322 26.2568 52.0605 26.2568 51.5547V51.2812C26.2568 50.7025 26.3411 50.1784 26.5098 49.709C26.6784 49.2396 26.9131 48.8385 27.2139 48.5059C27.5146 48.1686 27.8701 47.9111 28.2803 47.7334C28.6904 47.5557 29.1348 47.4668 29.6133 47.4668C30.1419 47.4668 30.6045 47.5557 31.001 47.7334C31.3975 47.9111 31.7256 48.1618 31.9854 48.4854C32.2497 48.8044 32.4456 49.1849 32.5732 49.627C32.7054 50.069 32.7715 50.5566 32.7715 51.0898V51.7939H27.0566V50.6113H31.1445V50.4814C31.1354 50.1852 31.0762 49.9072 30.9668 49.6475C30.862 49.3877 30.7002 49.1781 30.4814 49.0186C30.2627 48.859 29.971 48.7793 29.6064 48.7793C29.333 48.7793 29.0892 48.8385 28.875 48.957C28.6654 49.071 28.4899 49.2373 28.3486 49.4561C28.2074 49.6748 28.098 49.9391 28.0205 50.249C27.9476 50.5544 27.9111 50.8984 27.9111 51.2812V51.5547C27.9111 51.8783 27.9544 52.179 28.041 52.457C28.1322 52.7305 28.2643 52.9697 28.4375 53.1748C28.6107 53.3799 28.8203 53.5417 29.0664 53.6602C29.3125 53.7741 29.5928 53.8311 29.9072 53.8311C30.3037 53.8311 30.6569 53.7513 30.9668 53.5918C31.2767 53.4323 31.5456 53.2067 31.7734 52.915L32.6416 53.7559C32.4821 53.9883 32.2747 54.2116 32.0195 54.4258C31.7643 54.6354 31.4521 54.8063 31.083 54.9385C30.7184 55.0706 30.2946 55.1367 29.8115 55.1367ZM39.0264 47.6035V48.916H35.417V47.6035H39.0264ZM40.3184 47.6035V55H38.6709V47.6035H40.3184ZM35.0137 47.6035H36.6406L36.4424 51.2607C36.415 51.8031 36.3604 52.2816 36.2783 52.6963C36.2008 53.1064 36.096 53.4596 35.9639 53.7559C35.8317 54.0475 35.6699 54.2845 35.4785 54.4668C35.2871 54.6491 35.0638 54.7835 34.8086 54.8701C34.5534 54.9567 34.2663 55 33.9473 55H33.4346L33.4277 53.6465L33.6875 53.626C33.8561 53.6123 34.002 53.569 34.125 53.4961C34.248 53.4186 34.3529 53.3092 34.4395 53.168C34.5306 53.0267 34.6035 52.8444 34.6582 52.6211C34.7174 52.3978 34.763 52.1335 34.7949 51.8281C34.8314 51.5228 34.8587 51.1673 34.877 50.7617L35.0137 47.6035ZM43.7705 52.5938L46.6758 47.6035H48.3232V55H46.6758V50.0029L43.7705 55H42.123V47.6035H43.7705V52.5938ZM51.625 51.3838H53.334L51.2354 55H49.5332L51.625 51.3838ZM52.8281 47.6035H56V55H54.3594V48.9023H52.8281C52.5182 48.9023 52.263 48.957 52.0625 49.0664C51.862 49.1712 51.7139 49.3102 51.6182 49.4834C51.5225 49.652 51.4746 49.8252 51.4746 50.0029C51.4746 50.1807 51.5179 50.3516 51.6045 50.5156C51.6956 50.6797 51.8346 50.8141 52.0215 50.9189C52.2129 51.0238 52.4521 51.0762 52.7393 51.0762H54.9131V52.2793H52.7393C52.2835 52.2793 51.8757 52.2223 51.5156 52.1084C51.1556 51.9899 50.8503 51.8281 50.5996 51.623C50.349 51.4134 50.1576 51.1696 50.0254 50.8916C49.8932 50.609 49.8271 50.3014 49.8271 49.9688C49.8271 49.627 49.8955 49.3125 50.0322 49.0254C50.1689 48.7383 50.3649 48.4876 50.6201 48.2734C50.8799 48.0592 51.1943 47.8952 51.5635 47.7812C51.9372 47.6628 52.3587 47.6035 52.8281 47.6035ZM63.0205 52.5938L65.9258 47.6035H67.5732V55H65.9258V50.0029L63.0205 55H61.373V47.6035H63.0205V52.5938ZM72.3789 51.4658H70.957V50.6318H72.1055C72.3971 50.6318 72.6296 50.5931 72.8027 50.5156C72.9805 50.4382 73.1058 50.3311 73.1787 50.1943C73.2562 50.0531 73.2949 49.889 73.2949 49.7021C73.2949 49.5381 73.2562 49.3831 73.1787 49.2373C73.1058 49.0869 72.9805 48.9639 72.8027 48.8682C72.625 48.7725 72.3835 48.7246 72.0781 48.7246C71.8275 48.7246 71.6019 48.7656 71.4014 48.8477C71.2054 48.9297 71.0505 49.0436 70.9365 49.1895C70.8226 49.3353 70.7656 49.5039 70.7656 49.6953H69.1182C69.1182 49.235 69.248 48.8385 69.5078 48.5059C69.7721 48.1732 70.1253 47.918 70.5674 47.7402C71.0094 47.5625 71.4948 47.4736 72.0234 47.4736C72.4746 47.4736 72.8802 47.5215 73.2402 47.6172C73.6003 47.7083 73.9056 47.8451 74.1562 48.0273C74.4115 48.2051 74.6051 48.4284 74.7373 48.6973C74.874 48.9616 74.9424 49.2692 74.9424 49.6201C74.9424 49.8708 74.8831 50.1077 74.7646 50.3311C74.6462 50.5544 74.4753 50.7526 74.252 50.9258C74.0286 51.0944 73.7575 51.2266 73.4385 51.3223C73.124 51.418 72.7708 51.4658 72.3789 51.4658ZM70.957 50.9873H72.3789C72.8164 50.9873 73.2038 51.0306 73.541 51.1172C73.8783 51.1992 74.1608 51.3223 74.3887 51.4863C74.6165 51.6504 74.7874 51.8532 74.9014 52.0947C75.0199 52.3317 75.0791 52.6051 75.0791 52.915C75.0791 53.2614 75.0039 53.5736 74.8535 53.8516C74.7077 54.125 74.498 54.3574 74.2246 54.5488C73.9557 54.7402 73.6344 54.8861 73.2607 54.9863C72.887 55.0866 72.4746 55.1367 72.0234 55.1367C71.5312 55.1367 71.0527 55.0547 70.5879 54.8906C70.1276 54.7266 69.7471 54.4736 69.4463 54.1318C69.1501 53.7855 69.002 53.3457 69.002 52.8125H70.6494C70.6494 52.9993 70.7064 53.1748 70.8203 53.3389C70.9342 53.5029 71.0983 53.6374 71.3125 53.7422C71.5267 53.8424 71.7842 53.8926 72.085 53.8926C72.3949 53.8926 72.6478 53.8447 72.8438 53.749C73.0397 53.6488 73.1855 53.5189 73.2812 53.3594C73.377 53.1953 73.4248 53.0221 73.4248 52.8398C73.4248 52.5938 73.377 52.3955 73.2812 52.2451C73.1855 52.0947 73.0397 51.9854 72.8438 51.917C72.6478 51.8441 72.4017 51.8076 72.1055 51.8076H70.957V50.9873ZM85.0186 50.6934V51.9922H81.1904V50.6934H85.0186ZM81.6689 47.6035V55H80.0215V47.6035H81.6689ZM86.208 47.6035V55H84.5605V47.6035H86.208ZM91.2256 55.1367C90.6787 55.1367 90.1842 55.0479 89.7422 54.8701C89.3047 54.6878 88.931 54.4349 88.6211 54.1113C88.3158 53.7878 88.0811 53.4072 87.917 52.9697C87.7529 52.5322 87.6709 52.0605 87.6709 51.5547V51.2812C87.6709 50.7025 87.7552 50.1784 87.9238 49.709C88.0924 49.2396 88.3271 48.8385 88.6279 48.5059C88.9287 48.1686 89.2842 47.9111 89.6943 47.7334C90.1045 47.5557 90.5488 47.4668 91.0273 47.4668C91.556 47.4668 92.0186 47.5557 92.415 47.7334C92.8115 47.9111 93.1396 48.1618 93.3994 48.4854C93.6637 48.8044 93.8597 49.1849 93.9873 49.627C94.1195 50.069 94.1855 50.5566 94.1855 51.0898V51.7939H88.4707V50.6113H92.5586V50.4814C92.5495 50.1852 92.4902 49.9072 92.3809 49.6475C92.276 49.3877 92.1143 49.1781 91.8955 49.0186C91.6768 48.859 91.3851 48.7793 91.0205 48.7793C90.7471 48.7793 90.5033 48.8385 90.2891 48.957C90.0794 49.071 89.904 49.2373 89.7627 49.4561C89.6214 49.6748 89.512 49.9391 89.4346 50.249C89.3617 50.5544 89.3252 50.8984 89.3252 51.2812V51.5547C89.3252 51.8783 89.3685 52.179 89.4551 52.457C89.5462 52.7305 89.6784 52.9697 89.8516 53.1748C90.0247 53.3799 90.2344 53.5417 90.4805 53.6602C90.7266 53.7741 91.0068 53.8311 91.3213 53.8311C91.7178 53.8311 92.071 53.7513 92.3809 53.5918C92.6908 53.4323 92.9596 53.2067 93.1875 52.915L94.0557 53.7559C93.8962 53.9883 93.6888 54.2116 93.4336 54.4258C93.1784 54.6354 92.8662 54.8063 92.4971 54.9385C92.1325 55.0706 91.7087 55.1367 91.2256 55.1367ZM97.125 49.0254V57.8438H95.4775V47.6035H96.9951L97.125 49.0254ZM101.944 51.2334V51.377C101.944 51.9147 101.881 52.4137 101.753 52.874C101.63 53.3298 101.445 53.7285 101.199 54.0703C100.958 54.4076 100.659 54.6696 100.304 54.8564C99.9482 55.0433 99.5381 55.1367 99.0732 55.1367C98.613 55.1367 98.2096 55.0524 97.8633 54.8838C97.5215 54.7106 97.2321 54.4668 96.9951 54.1523C96.7581 53.8379 96.5667 53.4688 96.4209 53.0449C96.2796 52.6165 96.1794 52.1471 96.1201 51.6367V51.083C96.1794 50.5407 96.2796 50.0485 96.4209 49.6064C96.5667 49.1644 96.7581 48.7839 96.9951 48.4648C97.2321 48.1458 97.5215 47.8997 97.8633 47.7266C98.2051 47.5534 98.6038 47.4668 99.0596 47.4668C99.5244 47.4668 99.9368 47.5579 100.297 47.7402C100.657 47.918 100.96 48.1732 101.206 48.5059C101.452 48.834 101.637 49.2305 101.76 49.6953C101.883 50.1556 101.944 50.6683 101.944 51.2334ZM100.297 51.377V51.2334C100.297 50.8916 100.265 50.5749 100.201 50.2832C100.137 49.987 100.037 49.7272 99.9004 49.5039C99.7637 49.2806 99.5882 49.1074 99.374 48.9844C99.1644 48.8568 98.9115 48.793 98.6152 48.793C98.3236 48.793 98.0729 48.8431 97.8633 48.9434C97.6536 49.0391 97.4782 49.1735 97.3369 49.3467C97.1956 49.5199 97.0863 49.7227 97.0088 49.9551C96.9313 50.1829 96.8766 50.4313 96.8447 50.7002V52.0264C96.8994 52.3545 96.9928 52.6553 97.125 52.9287C97.2572 53.2021 97.444 53.4209 97.6855 53.585C97.9316 53.7445 98.2461 53.8242 98.6289 53.8242C98.9251 53.8242 99.1781 53.7604 99.3877 53.6328C99.5973 53.5052 99.7682 53.3298 99.9004 53.1064C100.037 52.8786 100.137 52.6165 100.201 52.3203C100.265 52.0241 100.297 51.7096 100.297 51.377ZM105.69 52.0127L102.737 47.6035H104.761L106.483 50.5156H107.926L107.714 52.0127H105.69ZM106.524 51.7734L104.631 55H102.607L105.287 50.8369L106.524 51.7734ZM108.917 47.6035V55H107.276V47.6035H108.917ZM113.477 47.6035L110.523 52.0127H108.493L108.274 50.5156H109.724L111.446 47.6035H113.477ZM111.576 55L109.676 51.7734L110.954 50.8369L113.62 55H111.576ZM118.836 53.5166V49.9893C118.836 49.7249 118.788 49.4971 118.692 49.3057C118.597 49.1143 118.451 48.9661 118.255 48.8613C118.063 48.7565 117.822 48.7041 117.53 48.7041C117.261 48.7041 117.029 48.7497 116.833 48.8408C116.637 48.932 116.484 49.055 116.375 49.21C116.266 49.3649 116.211 49.5404 116.211 49.7363H114.57C114.57 49.4447 114.641 49.1621 114.782 48.8887C114.924 48.6152 115.129 48.3714 115.397 48.1572C115.666 47.943 115.988 47.7744 116.361 47.6514C116.735 47.5283 117.154 47.4668 117.619 47.4668C118.175 47.4668 118.667 47.5602 119.096 47.7471C119.529 47.9339 119.868 48.2165 120.114 48.5947C120.365 48.9684 120.49 49.4378 120.49 50.0029V53.291C120.49 53.6283 120.513 53.9313 120.559 54.2002C120.609 54.4645 120.679 54.6947 120.771 54.8906V55H119.082C119.005 54.8223 118.943 54.5967 118.897 54.3232C118.856 54.0452 118.836 53.7764 118.836 53.5166ZM119.075 50.502L119.089 51.5205H117.906C117.601 51.5205 117.332 51.5501 117.1 51.6094C116.867 51.6641 116.674 51.7461 116.519 51.8555C116.364 51.9648 116.247 52.097 116.17 52.252C116.092 52.4069 116.054 52.5824 116.054 52.7783C116.054 52.9743 116.099 53.1543 116.19 53.3184C116.282 53.4779 116.414 53.6032 116.587 53.6943C116.765 53.7855 116.979 53.8311 117.229 53.8311C117.567 53.8311 117.861 53.7627 118.111 53.626C118.367 53.4847 118.567 53.3138 118.713 53.1133C118.859 52.9082 118.936 52.7145 118.945 52.5322L119.479 53.2637C119.424 53.4505 119.33 53.651 119.198 53.8652C119.066 54.0794 118.893 54.2845 118.679 54.4805C118.469 54.6719 118.216 54.8291 117.92 54.9521C117.628 55.0752 117.291 55.1367 116.908 55.1367C116.425 55.1367 115.994 55.041 115.616 54.8496C115.238 54.6536 114.942 54.3916 114.728 54.0635C114.513 53.7308 114.406 53.3548 114.406 52.9355C114.406 52.5436 114.479 52.1973 114.625 51.8965C114.775 51.5911 114.994 51.3359 115.281 51.1309C115.573 50.9258 115.928 50.7708 116.348 50.666C116.767 50.5566 117.245 50.502 117.783 50.502H119.075ZM125.809 51.835H123.443L123.43 50.6729H125.371C125.69 50.6729 125.952 50.641 126.157 50.5771C126.367 50.5133 126.522 50.4176 126.622 50.29C126.722 50.1579 126.772 49.9984 126.772 49.8115C126.772 49.6566 126.743 49.5221 126.684 49.4082C126.624 49.2897 126.533 49.194 126.41 49.1211C126.292 49.0436 126.141 48.9889 125.959 48.957C125.781 48.9206 125.574 48.9023 125.337 48.9023H123.99V55H122.343V47.6035H125.337C125.811 47.6035 126.237 47.6445 126.615 47.7266C126.998 47.8086 127.324 47.9339 127.593 48.1025C127.862 48.2712 128.067 48.4854 128.208 48.7451C128.354 49.0003 128.427 49.3011 128.427 49.6475C128.427 49.8753 128.377 50.0895 128.276 50.29C128.181 50.4906 128.037 50.6683 127.846 50.8232C127.654 50.9782 127.42 51.1058 127.142 51.2061C126.864 51.3018 126.545 51.361 126.185 51.3838L125.809 51.835ZM125.809 55H122.965L123.621 53.7012H125.809C126.1 53.7012 126.342 53.6647 126.533 53.5918C126.725 53.5189 126.866 53.4141 126.957 53.2773C127.053 53.1361 127.101 52.9697 127.101 52.7783C127.101 52.5824 127.055 52.4137 126.964 52.2725C126.873 52.1312 126.731 52.0241 126.54 51.9512C126.353 51.8737 126.109 51.835 125.809 51.835H123.929L123.942 50.6729H126.178L126.649 51.124C127.119 51.1559 127.508 51.2562 127.818 51.4248C128.128 51.5934 128.361 51.8053 128.516 52.0605C128.671 52.3158 128.748 52.5938 128.748 52.8945C128.748 53.2409 128.682 53.5462 128.55 53.8105C128.422 54.0749 128.231 54.2959 127.976 54.4736C127.725 54.6468 127.417 54.779 127.053 54.8701C126.688 54.9567 126.273 55 125.809 55ZM133.431 55.1367C132.884 55.1367 132.389 55.0479 131.947 54.8701C131.51 54.6878 131.136 54.4349 130.826 54.1113C130.521 53.7878 130.286 53.4072 130.122 52.9697C129.958 52.5322 129.876 52.0605 129.876 51.5547V51.2812C129.876 50.7025 129.96 50.1784 130.129 49.709C130.298 49.2396 130.532 48.8385 130.833 48.5059C131.134 48.1686 131.489 47.9111 131.899 47.7334C132.31 47.5557 132.754 47.4668 133.232 47.4668C133.761 47.4668 134.224 47.5557 134.62 47.7334C135.017 47.9111 135.345 48.1618 135.604 48.4854C135.869 48.8044 136.065 49.1849 136.192 49.627C136.325 50.069 136.391 50.5566 136.391 51.0898V51.7939H130.676V50.6113H134.764V50.4814C134.755 50.1852 134.695 49.9072 134.586 49.6475C134.481 49.3877 134.319 49.1781 134.101 49.0186C133.882 48.859 133.59 48.7793 133.226 48.7793C132.952 48.7793 132.708 48.8385 132.494 48.957C132.285 49.071 132.109 49.2373 131.968 49.4561C131.826 49.6748 131.717 49.9391 131.64 50.249C131.567 50.5544 131.53 50.8984 131.53 51.2812V51.5547C131.53 51.8783 131.574 52.179 131.66 52.457C131.751 52.7305 131.883 52.9697 132.057 53.1748C132.23 53.3799 132.439 53.5417 132.686 53.6602C132.932 53.7741 133.212 53.8311 133.526 53.8311C133.923 53.8311 134.276 53.7513 134.586 53.5918C134.896 53.4323 135.165 53.2067 135.393 52.915L136.261 53.7559C136.101 53.9883 135.894 54.2116 135.639 54.4258C135.383 54.6354 135.071 54.8063 134.702 54.9385C134.338 55.0706 133.914 55.1367 133.431 55.1367ZM142.03 50.5908V51.9033H138.065V50.5908H142.03ZM139.474 47.6035V55H137.826V47.6035H139.474ZM140.813 51.3838V51.2266C140.813 50.6934 140.891 50.1989 141.046 49.7432C141.201 49.2829 141.426 48.8841 141.723 48.5469C142.019 48.2051 142.379 47.9408 142.803 47.7539C143.227 47.5625 143.707 47.4668 144.245 47.4668C144.792 47.4668 145.277 47.5625 145.701 47.7539C146.13 47.9408 146.492 48.2051 146.788 48.5469C147.084 48.8841 147.31 49.2829 147.465 49.7432C147.62 50.1989 147.697 50.6934 147.697 51.2266V51.3838C147.697 51.917 147.62 52.4115 147.465 52.8672C147.31 53.3229 147.084 53.7217 146.788 54.0635C146.496 54.4007 146.136 54.665 145.708 54.8564C145.284 55.0433 144.801 55.1367 144.259 55.1367C143.716 55.1367 143.233 55.0433 142.81 54.8564C142.386 54.665 142.023 54.4007 141.723 54.0635C141.426 53.7217 141.201 53.3229 141.046 52.8672C140.891 52.4115 140.813 51.917 140.813 51.3838ZM142.468 51.2266V51.3838C142.468 51.7165 142.502 52.0309 142.57 52.3271C142.639 52.6234 142.746 52.8831 142.892 53.1064C143.037 53.3298 143.224 53.5052 143.452 53.6328C143.68 53.7604 143.949 53.8242 144.259 53.8242C144.569 53.8242 144.835 53.7604 145.059 53.6328C145.286 53.5052 145.473 53.3298 145.619 53.1064C145.765 52.8831 145.872 52.6234 145.94 52.3271C146.013 52.0309 146.05 51.7165 146.05 51.3838V51.2266C146.05 50.8984 146.013 50.5885 145.94 50.2969C145.872 50.0007 145.765 49.7386 145.619 49.5107C145.473 49.2829 145.286 49.1051 145.059 48.9775C144.831 48.8454 144.56 48.7793 144.245 48.7793C143.94 48.7793 143.673 48.8454 143.445 48.9775C143.222 49.1051 143.037 49.2829 142.892 49.5107C142.746 49.7386 142.639 50.0007 142.57 50.2969C142.502 50.5885 142.468 50.8984 142.468 51.2266ZM159.995 53.6943L159.865 57.1943H158.354V55H157.466V53.6943H159.995ZM149.071 47.6035H150.719V53.6875H153.07V47.6035H154.725V53.6875H157.069V47.6035H158.717V55H149.071V47.6035ZM164.479 55.1367C163.933 55.1367 163.438 55.0479 162.996 54.8701C162.559 54.6878 162.185 54.4349 161.875 54.1113C161.57 53.7878 161.335 53.4072 161.171 52.9697C161.007 52.5322 160.925 52.0605 160.925 51.5547V51.2812C160.925 50.7025 161.009 50.1784 161.178 49.709C161.346 49.2396 161.581 48.8385 161.882 48.5059C162.183 48.1686 162.538 47.9111 162.948 47.7334C163.358 47.5557 163.803 47.4668 164.281 47.4668C164.81 47.4668 165.272 47.5557 165.669 47.7334C166.065 47.9111 166.394 48.1618 166.653 48.4854C166.918 48.8044 167.114 49.1849 167.241 49.627C167.373 50.069 167.439 50.5566 167.439 51.0898V51.7939H161.725V50.6113H165.812V50.4814C165.803 50.1852 165.744 49.9072 165.635 49.6475C165.53 49.3877 165.368 49.1781 165.149 49.0186C164.931 48.859 164.639 48.7793 164.274 48.7793C164.001 48.7793 163.757 48.8385 163.543 48.957C163.333 49.071 163.158 49.2373 163.017 49.4561C162.875 49.6748 162.766 49.9391 162.688 50.249C162.616 50.5544 162.579 50.8984 162.579 51.2812V51.5547C162.579 51.8783 162.622 52.179 162.709 52.457C162.8 52.7305 162.932 52.9697 163.105 53.1748C163.279 53.3799 163.488 53.5417 163.734 53.6602C163.98 53.7741 164.261 53.8311 164.575 53.8311C164.972 53.8311 165.325 53.7513 165.635 53.5918C165.945 53.4323 166.214 53.2067 166.441 52.915L167.31 53.7559C167.15 53.9883 166.943 54.2116 166.688 54.4258C166.432 54.6354 166.12 54.8063 165.751 54.9385C165.386 55.0706 164.963 55.1367 164.479 55.1367ZM170.427 52.5938L173.332 47.6035H174.979V55H173.332V50.0029L170.427 55H168.779V47.6035H170.427V52.5938ZM172.895 44.7598H174.118C174.118 45.138 174.027 45.473 173.845 45.7646C173.667 46.0518 173.412 46.2773 173.079 46.4414C172.751 46.6055 172.359 46.6875 171.903 46.6875C171.215 46.6875 170.671 46.5098 170.27 46.1543C169.873 45.7943 169.675 45.3294 169.675 44.7598H170.898C170.898 45.015 170.974 45.2406 171.124 45.4365C171.279 45.6279 171.539 45.7236 171.903 45.7236C172.263 45.7236 172.519 45.6279 172.669 45.4365C172.819 45.2406 172.895 45.015 172.895 44.7598ZM183.23 53.8242C183.499 53.8242 183.741 53.7718 183.955 53.667C184.174 53.5576 184.349 53.4072 184.481 53.2158C184.618 53.0244 184.693 52.8034 184.707 52.5527H186.259C186.25 53.0312 186.108 53.4665 185.835 53.8584C185.562 54.2503 185.199 54.5625 184.748 54.7949C184.297 55.0228 183.798 55.1367 183.251 55.1367C182.686 55.1367 182.194 55.041 181.774 54.8496C181.355 54.6536 181.007 54.3848 180.729 54.043C180.451 53.7012 180.241 53.307 180.1 52.8604C179.963 52.4137 179.895 51.9352 179.895 51.4248V51.1855C179.895 50.6751 179.963 50.1966 180.1 49.75C180.241 49.2988 180.451 48.9023 180.729 48.5605C181.007 48.2188 181.355 47.9521 181.774 47.7607C182.194 47.5648 182.684 47.4668 183.244 47.4668C183.837 47.4668 184.356 47.5853 184.803 47.8223C185.249 48.0547 185.6 48.3805 185.855 48.7998C186.115 49.2145 186.25 49.6976 186.259 50.249H184.707C184.693 49.9756 184.625 49.7295 184.502 49.5107C184.383 49.2874 184.215 49.1097 183.996 48.9775C183.782 48.8454 183.524 48.7793 183.224 48.7793C182.891 48.7793 182.615 48.8477 182.396 48.9844C182.178 49.1165 182.007 49.2988 181.884 49.5312C181.761 49.7591 181.672 50.0166 181.617 50.3037C181.567 50.5863 181.542 50.8802 181.542 51.1855V51.4248C181.542 51.7301 181.567 52.0264 181.617 52.3135C181.667 52.6006 181.754 52.8581 181.877 53.0859C182.005 53.3092 182.178 53.4893 182.396 53.626C182.615 53.7581 182.893 53.8242 183.23 53.8242ZM190.955 47.6035V55H189.301V47.6035H190.955ZM193.382 47.6035V48.9023H186.915V47.6035H193.382ZM198.543 53.5166V49.9893C198.543 49.7249 198.495 49.4971 198.399 49.3057C198.304 49.1143 198.158 48.9661 197.962 48.8613C197.771 48.7565 197.529 48.7041 197.237 48.7041C196.968 48.7041 196.736 48.7497 196.54 48.8408C196.344 48.932 196.191 49.055 196.082 49.21C195.973 49.3649 195.918 49.5404 195.918 49.7363H194.277C194.277 49.4447 194.348 49.1621 194.489 48.8887C194.631 48.6152 194.836 48.3714 195.104 48.1572C195.373 47.943 195.695 47.7744 196.068 47.6514C196.442 47.5283 196.861 47.4668 197.326 47.4668C197.882 47.4668 198.374 47.5602 198.803 47.7471C199.236 47.9339 199.575 48.2165 199.821 48.5947C200.072 48.9684 200.197 49.4378 200.197 50.0029V53.291C200.197 53.6283 200.22 53.9313 200.266 54.2002C200.316 54.4645 200.386 54.6947 200.478 54.8906V55H198.789C198.712 54.8223 198.65 54.5967 198.604 54.3232C198.563 54.0452 198.543 53.7764 198.543 53.5166ZM198.782 50.502L198.796 51.5205H197.613C197.308 51.5205 197.039 51.5501 196.807 51.6094C196.574 51.6641 196.381 51.7461 196.226 51.8555C196.071 51.9648 195.954 52.097 195.877 52.252C195.799 52.4069 195.761 52.5824 195.761 52.7783C195.761 52.9743 195.806 53.1543 195.897 53.3184C195.989 53.4779 196.121 53.6032 196.294 53.6943C196.472 53.7855 196.686 53.8311 196.937 53.8311C197.274 53.8311 197.568 53.7627 197.818 53.626C198.074 53.4847 198.274 53.3138 198.42 53.1133C198.566 52.9082 198.643 52.7145 198.652 52.5322L199.186 53.2637C199.131 53.4505 199.037 53.651 198.905 53.8652C198.773 54.0794 198.6 54.2845 198.386 54.4805C198.176 54.6719 197.923 54.8291 197.627 54.9521C197.335 55.0752 196.998 55.1367 196.615 55.1367C196.132 55.1367 195.701 55.041 195.323 54.8496C194.945 54.6536 194.649 54.3916 194.435 54.0635C194.22 53.7308 194.113 53.3548 194.113 52.9355C194.113 52.5436 194.186 52.1973 194.332 51.8965C194.482 51.5911 194.701 51.3359 194.988 51.1309C195.28 50.9258 195.635 50.7708 196.055 50.666C196.474 50.5566 196.952 50.502 197.49 50.502H198.782ZM206.89 47.6035V48.916H203.28V47.6035H206.89ZM208.182 47.6035V55H206.534V47.6035H208.182ZM202.877 47.6035H204.504L204.306 51.2607C204.278 51.8031 204.224 52.2816 204.142 52.6963C204.064 53.1064 203.959 53.4596 203.827 53.7559C203.695 54.0475 203.533 54.2845 203.342 54.4668C203.15 54.6491 202.927 54.7835 202.672 54.8701C202.417 54.9567 202.13 55 201.811 55H201.298L201.291 53.6465L201.551 53.626C201.719 53.6123 201.865 53.569 201.988 53.4961C202.111 53.4186 202.216 53.3092 202.303 53.168C202.394 53.0267 202.467 52.8444 202.521 52.6211C202.581 52.3978 202.626 52.1335 202.658 51.8281C202.695 51.5228 202.722 51.1673 202.74 50.7617L202.877 47.6035ZM211.634 52.5938L214.539 47.6035H216.187V55H214.539V50.0029L211.634 55H209.986V47.6035H211.634V52.5938Z" fill="#212121"/>
</svg>
