<svg width="1918" height="724" viewBox="0 0 1918 724" fill="none" xmlns="http://www.w3.org/2000/svg">
<g clip-path="url(#clip0_58_4180)">
<path d="M416.889 205.162C406.663 197.492 398.994 182.154 398.994 166.815C398.994 151.477 404.106 138.695 416.889 128.469C429.671 118.243 434.783 102.905 434.783 87.5661C434.783 56.889 409.219 31.3247 378.542 31.3247C347.865 31.3247 322.301 56.889 322.301 87.5661C322.301 102.905 329.97 118.243 342.752 131.025C352.978 141.251 358.091 154.033 358.091 169.372C358.091 184.71 352.978 197.492 342.752 207.718C329.97 217.944 322.301 233.282 322.301 251.177C322.301 266.516 329.97 281.854 342.752 294.637C352.978 304.862 358.091 317.644 358.091 332.983C358.091 348.321 352.978 361.104 342.752 371.329C329.97 381.555 322.301 396.894 322.301 414.789C322.301 445.466 347.865 471.03 378.542 471.03C409.219 471.03 434.783 445.466 434.783 414.789C434.783 399.45 427.114 384.111 414.332 371.329C404.106 361.104 396.437 348.321 396.437 332.983C396.437 317.644 401.55 304.862 414.332 294.637C427.114 284.411 432.227 269.072 432.227 253.734C434.783 233.282 429.671 217.944 416.889 205.162Z" fill="white" fill-opacity="0.7"/>
<path d="M554.94 125.914C544.715 115.688 537.045 102.906 537.045 87.5677C537.045 72.2291 542.158 59.447 554.94 49.2213C567.722 38.9956 572.835 23.6571 572.835 8.3185C572.835 -22.3586 547.271 -47.9229 516.594 -47.9229C485.917 -47.9229 460.353 -22.3586 460.353 8.3185C460.353 23.6571 468.022 38.9956 480.804 51.7777C491.03 62.0034 498.699 74.7856 498.699 90.1241C498.699 105.463 493.586 118.245 483.36 128.47C470.578 138.696 462.909 154.035 462.909 171.93C462.909 187.268 470.578 202.607 483.36 215.389C493.586 225.615 501.255 238.397 501.255 253.735C501.255 269.074 496.142 281.856 485.917 292.082C473.135 302.307 465.465 317.646 465.465 335.541C465.465 366.218 491.03 391.782 521.707 391.782C552.384 391.782 577.948 366.218 577.948 335.541C577.948 320.202 570.279 304.864 557.497 292.082C547.271 281.856 539.602 269.074 539.602 253.735C539.602 238.397 544.715 225.615 557.497 215.389C570.279 205.163 575.392 189.825 575.392 174.486C575.392 151.478 567.722 136.14 554.94 125.914Z" fill="white" fill-opacity="0.7"/>
<path d="M695.536 128.47C708.318 118.245 713.431 102.906 713.431 87.5676C713.431 72.2291 705.761 56.8905 692.979 44.1084C682.754 33.8827 675.084 21.1006 675.084 5.76202C675.084 -9.57654 680.197 -22.3587 692.979 -32.5844C705.761 -42.8101 710.874 -58.1486 710.874 -73.4872C710.874 -104.164 685.31 -129.729 654.633 -129.729C623.956 -129.729 598.392 -104.164 598.392 -73.4872C598.392 -58.1486 606.061 -42.8101 618.843 -30.0279C629.069 -19.8022 636.738 -7.0201 636.738 8.31845C636.738 23.657 631.625 36.4391 621.399 46.6648C608.617 56.8905 600.948 72.2291 600.948 90.1241C600.948 105.463 608.617 120.801 621.399 133.583C631.625 143.809 639.294 156.591 639.294 171.93C639.294 187.268 634.182 200.05 623.956 210.276C611.174 220.502 603.504 235.84 603.504 253.735C603.504 284.412 629.069 309.977 659.746 309.977C690.423 309.977 715.987 284.412 715.987 253.735C715.987 238.397 708.318 223.058 695.536 210.276C685.31 200.05 677.641 187.268 677.641 171.93C677.641 154.035 685.31 138.696 695.536 128.47Z" fill="white" fill-opacity="0.7"/>
<path d="M266.057 -42.8108C250.719 -50.4801 235.38 -53.0365 220.042 -47.9236C204.703 -42.8108 191.921 -45.3672 179.139 -53.0365C166.357 -60.7058 158.687 -73.4879 153.575 -86.27C151.018 -101.609 140.792 -114.391 125.454 -124.616C99.8896 -139.955 64.0997 -129.729 48.7611 -101.609C41.0919 -88.8265 38.5354 -73.4879 43.6483 -58.1494C48.7611 -42.8108 56.4304 -30.0287 69.2125 -22.3594C81.9947 -14.6901 99.8896 -12.1337 115.228 -17.2465C128.01 -22.3594 143.349 -19.803 156.131 -12.1337C168.913 -4.46442 176.582 5.76129 179.139 21.0998V23.6563C181.695 38.9948 191.921 51.7769 204.703 59.4462C217.485 62.0026 227.711 64.5591 237.937 64.5591C243.049 64.5591 248.162 64.5591 253.275 62.0026C268.614 56.8898 281.396 49.2205 289.065 36.4384C301.847 8.3177 294.178 -27.4722 266.057 -42.8108Z" fill="white" fill-opacity="0.7"/>
<path d="M266.059 279.3C250.721 271.631 235.382 269.074 220.044 274.187C207.262 279.3 191.923 276.744 179.141 269.074C166.359 261.405 158.689 248.623 153.577 235.841C151.02 220.502 140.794 205.164 125.456 197.495C112.674 189.825 97.3353 187.269 81.9967 192.382C66.6582 197.495 53.876 205.164 46.2068 217.946C30.8682 246.067 41.0939 279.3 66.6582 294.639C81.9967 302.308 97.3353 304.864 112.674 299.752C125.456 294.639 140.795 297.195 153.577 304.864C166.359 312.534 174.028 322.759 176.584 338.098V340.654C179.141 355.993 189.367 368.775 202.149 376.444C209.818 381.557 220.044 384.114 230.269 384.114C235.382 384.114 240.495 384.114 245.608 381.557C260.946 376.444 273.729 368.775 281.398 355.993C301.849 330.429 294.18 294.639 266.059 279.3Z" fill="white" fill-opacity="0.7"/>
<path d="M266.058 118.246C250.719 110.577 235.38 110.577 220.042 115.69C207.26 120.802 191.921 118.246 179.139 110.577C166.357 102.907 158.688 90.1253 153.575 77.3432C151.018 62.0046 140.793 46.6661 125.454 38.9968C97.3335 23.6583 64.1 33.884 48.7615 59.4482C33.4229 87.5689 43.6486 120.802 69.2129 136.141C81.995 143.81 99.89 146.367 115.229 141.254C128.011 136.141 143.349 138.697 156.131 146.367C168.913 154.036 179.139 166.818 181.696 179.6V182.157C184.252 197.495 194.478 210.277 207.26 217.947C217.486 223.059 225.155 225.616 235.38 225.616C255.832 225.616 273.727 215.39 283.953 197.495C301.848 169.375 294.178 133.585 266.058 118.246Z" fill="white" fill-opacity="0.7"/>
</g>
<defs>
<clipPath id="clip0_58_4180">
<rect width="1918" height="724" fill="white"/>
</clipPath>
</defs>
</svg>
