<svg width="257" height="589" viewBox="0 0 257 589" fill="none" xmlns="http://www.w3.org/2000/svg">
<g clip-path="url(#clip0_58_4170)">
<path d="M127.466 68.8162C117.646 62.9245 103.899 60.9606 92.1156 64.8884C82.296 68.8162 70.5126 66.8523 60.6931 60.9606C50.8736 55.0689 44.9819 45.2494 41.0541 35.4298C39.0901 23.6464 31.2345 11.863 19.4511 5.97128C9.6316 0.0795741 -2.15182 -1.88433 -13.9352 2.04348C-25.7187 5.97128 -35.5382 11.863 -41.4299 21.6825C-53.2133 43.2854 -45.3577 68.8162 -25.7187 80.5996C-15.8992 86.4913 -2.15182 88.4552 9.6316 84.5274C19.4511 80.5996 31.2345 82.5635 41.0541 88.4552C50.8736 94.3469 56.7653 102.203 58.7292 113.986V115.95C60.6931 127.733 68.5487 137.553 78.3682 143.445C84.2599 147.372 92.1155 149.336 99.9712 149.336C103.899 149.336 107.827 149.336 111.755 147.372C123.538 143.445 133.358 137.553 139.249 127.733C149.069 119.878 151.033 108.094 147.105 96.3109C145.141 84.5274 137.285 74.7079 127.466 68.8162Z" fill="#F0F0F0"/>
<path d="M-45.3613 180.759C-43.3974 192.543 -35.5418 202.362 -25.7222 208.254C-19.8305 212.182 -11.9749 214.146 -4.1193 214.146C-0.191491 214.146 3.73632 214.146 7.66412 212.182C19.4475 208.254 29.2671 202.362 35.1588 192.543C46.9422 170.94 39.0866 145.409 19.4476 133.626C9.62803 127.734 -4.11931 125.77 -15.9027 129.698C-25.7222 133.626 -37.5057 131.662 -47.3252 125.77C-57.1447 119.878 -63.0364 110.059 -66.9642 100.239C-68.9281 86.4921 -76.7837 76.6726 -86.6033 70.7809C-96.4228 64.8891 -108.206 62.9252 -119.99 66.853C-131.773 70.7809 -141.593 76.6726 -147.484 86.4921C-153.376 96.3116 -155.34 108.095 -151.412 119.878C-147.484 131.662 -141.593 141.481 -131.773 147.373C-121.954 153.265 -108.206 155.229 -96.4228 151.301C-84.6394 147.373 -72.8559 147.373 -63.0364 153.265C-53.2169 159.157 -47.3252 168.976 -45.3613 180.759Z" fill="#F0F0F0"/>
<path d="M27.3031 385.003C19.4475 379.112 13.5558 367.328 13.5558 355.545C13.5558 343.761 17.4836 333.942 27.3031 326.086C37.1226 318.231 41.0504 306.447 41.0504 294.664C41.0504 271.097 21.4114 251.458 -2.15546 251.458C-25.7223 251.458 -45.3613 271.097 -45.3613 294.664C-45.3613 306.447 -39.4696 318.231 -29.6501 328.05C-21.7945 335.906 -17.8667 345.725 -17.8667 357.509C-17.8667 369.292 -21.7945 379.112 -29.6501 386.967C-39.4696 394.823 -45.3613 406.606 -45.3613 420.354C-45.3613 432.137 -39.4696 443.921 -29.6501 453.74C-21.7945 461.596 -17.8667 471.415 -17.8667 483.199C-17.8667 494.982 -21.7945 504.802 -29.6501 512.657C-39.4696 520.513 -45.3613 532.296 -45.3613 546.044C-45.3613 569.61 -25.7223 589.249 -2.15546 589.249C21.4114 589.249 41.0504 569.61 41.0504 546.044C41.0504 534.26 35.1587 522.477 25.3392 512.657C17.4836 504.802 11.5919 494.982 11.5919 483.199C11.5919 471.415 15.5197 461.596 25.3392 453.74C35.1587 445.884 39.0865 434.101 39.0865 422.318C41.0504 406.606 37.1226 394.823 27.3031 385.003Z" fill="#F0F0F0"/>
<path d="M133.357 324.124C125.502 316.268 119.61 306.449 119.61 294.665C119.61 282.882 123.538 273.063 133.357 265.207C143.177 257.351 147.105 245.568 147.105 233.784C147.105 210.218 127.466 190.579 103.899 190.579C80.3319 190.579 60.6929 210.218 60.6929 233.784C60.6929 245.568 66.5846 257.351 76.4041 267.171C84.2597 275.026 90.1514 284.846 90.1514 296.629C90.1514 308.413 86.2236 318.232 78.368 326.088C68.5485 333.944 62.6568 345.727 62.6568 359.474C62.6568 371.258 68.5485 383.041 78.368 392.861C86.2236 400.716 92.1153 410.536 92.1153 422.319C92.1153 434.103 88.1875 443.922 80.3319 451.778C70.5124 459.633 64.6207 471.417 64.6207 485.164C64.6207 508.731 84.2597 528.37 107.827 528.37C131.393 528.37 151.032 508.731 151.032 485.164C151.032 473.381 145.141 461.597 135.321 451.778C127.466 443.922 121.574 434.103 121.574 422.319C121.574 410.536 125.502 400.716 135.321 392.861C145.141 385.005 149.069 373.222 149.069 361.438C149.069 343.763 143.177 331.98 133.357 324.124Z" fill="#F0F0F0"/>
<path d="M241.365 326.088C251.185 318.233 255.112 306.449 255.112 294.666C255.112 282.882 249.221 271.099 239.401 261.279C231.546 253.424 225.654 243.604 225.654 231.821C225.654 220.037 229.582 210.218 239.401 202.362C249.221 194.507 253.149 182.723 253.149 170.94C253.149 147.373 233.51 127.734 209.943 127.734C186.376 127.734 166.737 147.373 166.737 170.94C166.737 182.723 172.629 194.507 182.448 204.326C190.304 212.182 196.195 222.001 196.195 233.785C196.195 245.568 192.268 255.388 184.412 263.243C174.592 271.099 168.701 282.882 168.701 296.63C168.701 308.413 174.592 320.196 184.412 330.016C192.268 337.872 198.159 347.691 198.159 359.475C198.159 371.258 194.231 381.077 186.376 388.933C176.556 396.789 170.665 408.572 170.665 422.319C170.665 445.886 190.304 465.525 213.871 465.525C237.437 465.525 257.076 445.886 257.076 422.319C257.076 410.536 251.185 398.753 241.365 388.933C233.51 381.077 227.618 371.258 227.618 359.475C227.618 345.727 233.51 333.944 241.365 326.088Z" fill="#F0F0F0"/>
</g>
<defs>
<clipPath id="clip0_58_4170">
<rect width="257" height="589" fill="white"/>
</clipPath>
</defs>
</svg>
