<svg width="681" height="829" viewBox="0 0 681 829" fill="none" xmlns="http://www.w3.org/2000/svg">
<g clip-path="url(#clip0_58_4159)">
<path d="M593.562 514.251C584.394 508.75 571.558 506.916 560.557 510.584C551.389 514.251 540.387 512.417 531.219 506.916C522.051 501.416 516.55 492.247 512.883 483.079C511.049 472.078 503.715 461.076 492.713 455.575C483.545 450.074 472.543 448.241 461.541 451.908C450.54 455.575 441.372 461.076 435.871 470.244C424.869 490.414 432.204 514.251 450.54 525.253C459.708 530.753 472.543 532.587 483.545 528.92C492.713 525.253 503.715 527.086 512.883 532.587C522.051 538.088 527.552 545.422 529.385 556.424V558.258C531.219 569.259 538.553 578.427 547.721 583.928C553.222 587.595 560.557 589.429 567.891 589.429C571.558 589.429 575.226 589.429 578.893 587.595C589.894 583.928 599.063 578.427 604.563 569.259C613.731 561.925 615.565 550.923 611.898 539.921C610.064 528.92 602.73 519.752 593.562 514.251Z" fill="white" fill-opacity="0.7"/>
<path d="M432.2 618.768C434.034 629.77 441.368 638.938 450.536 644.438C456.037 648.106 463.371 649.939 470.706 649.939C474.373 649.939 478.04 649.939 481.708 648.106C492.709 644.438 501.877 638.938 507.378 629.77C518.38 609.6 511.045 585.763 492.709 574.761C483.541 569.26 470.706 567.427 459.704 571.094C450.536 574.761 439.534 572.927 430.366 567.427C421.198 561.926 415.697 552.758 412.03 543.59C410.197 530.754 402.862 521.586 393.694 516.085C384.526 510.585 373.524 508.751 362.523 512.418C351.521 516.085 342.353 521.586 336.852 530.754C331.351 539.922 329.518 550.924 333.185 561.926C336.852 572.927 342.353 582.096 351.521 587.596C360.689 593.097 373.524 594.931 384.526 591.264C395.528 587.596 406.529 587.596 415.697 593.097C424.866 598.598 430.366 607.766 432.2 618.768Z" fill="white" fill-opacity="0.7"/>
<path d="M500.043 809.462C492.709 803.961 487.208 792.959 487.208 781.958C487.208 770.956 490.875 761.788 500.043 754.453C509.212 747.119 512.879 736.117 512.879 725.115C512.879 703.112 494.543 684.776 472.539 684.776C450.536 684.776 432.2 703.112 432.2 725.115C432.2 736.117 437.701 747.119 446.869 756.287C454.203 763.621 457.87 772.789 457.87 783.791C457.87 794.793 454.203 803.961 446.869 811.295C437.701 818.63 432.2 829.631 432.2 842.467C432.2 853.468 437.701 864.47 446.869 873.638C454.203 880.973 457.87 890.141 457.87 901.143C457.87 912.144 454.203 921.312 446.869 928.647C437.701 935.981 432.2 946.983 432.2 959.818C432.2 981.822 450.536 1000.16 472.539 1000.16C494.543 1000.16 512.879 981.822 512.879 959.818C512.879 948.817 507.378 937.815 498.21 928.647C490.875 921.312 485.375 912.144 485.375 901.143C485.375 890.141 489.042 880.973 498.21 873.638C507.378 866.304 511.045 855.302 511.045 844.3C512.879 829.631 509.212 818.63 500.043 809.462Z" fill="white" fill-opacity="0.7"/>
<path d="M599.062 752.621C591.728 745.286 586.227 736.118 586.227 725.117C586.227 714.115 589.894 704.947 599.062 697.612C608.23 690.278 611.897 679.276 611.897 668.275C611.897 646.271 593.561 627.935 571.558 627.935C549.554 627.935 531.218 646.271 531.218 668.275C531.218 679.276 536.719 690.278 545.887 699.446C553.222 706.781 558.722 715.949 558.722 726.95C558.722 737.952 555.055 747.12 547.721 754.455C538.553 761.789 533.052 772.791 533.052 785.626C533.052 796.628 538.553 807.629 547.721 816.797C555.055 824.132 560.556 833.3 560.556 844.302C560.556 855.303 556.889 864.471 549.554 871.806C540.386 879.14 534.886 890.142 534.886 902.977C534.886 924.981 553.222 943.317 575.225 943.317C597.228 943.317 615.565 924.981 615.565 902.977C615.565 891.976 610.064 880.974 600.896 871.806C593.561 864.471 588.06 855.303 588.06 844.302C588.06 833.3 591.728 824.132 600.896 816.797C610.064 809.463 613.731 798.461 613.731 787.46C613.731 770.957 608.23 759.955 599.062 752.621Z" fill="white" fill-opacity="0.7"/>
<path d="M699.905 754.455C709.073 747.12 712.74 736.119 712.74 725.117C712.74 714.115 707.239 703.114 698.071 693.946C690.737 686.611 685.236 677.443 685.236 666.441C685.236 655.44 688.903 646.272 698.071 638.937C707.239 631.603 710.907 620.601 710.907 609.599C710.907 587.596 692.57 569.26 670.567 569.26C648.564 569.26 630.228 587.596 630.228 609.599C630.228 620.601 635.728 631.603 644.896 640.771C652.231 648.105 657.732 657.273 657.732 668.275C657.732 679.277 654.065 688.445 646.73 695.779C637.562 703.114 632.061 714.115 632.061 726.951C632.061 737.952 637.562 748.954 646.73 758.122C654.065 765.457 659.565 774.625 659.565 785.626C659.565 796.628 655.898 805.796 648.564 813.131C639.396 820.465 633.895 831.467 633.895 844.302C633.895 866.305 652.231 884.642 674.234 884.642C696.238 884.642 714.574 866.305 714.574 844.302C714.574 833.3 709.073 822.299 699.905 813.131C692.57 805.796 687.07 796.628 687.07 785.626C687.07 772.791 692.57 761.789 699.905 754.455Z" fill="white" fill-opacity="0.7"/>
<path d="M391.859 631.601C380.857 626.101 369.855 624.267 358.854 627.934C347.852 631.601 338.684 629.768 329.516 624.267C320.348 618.766 314.847 609.598 311.18 600.43C309.346 589.428 302.012 580.26 291.01 572.926C272.674 561.924 247.003 569.259 236.001 589.428C230.501 598.596 228.667 609.598 232.334 620.6C236.001 631.601 241.502 640.77 250.67 646.27C259.838 651.771 272.674 653.605 283.675 649.938C292.843 646.27 303.845 648.104 313.013 653.605C322.181 659.106 327.682 666.44 329.516 677.442V679.275C331.349 690.277 338.684 699.445 347.852 704.946C357.02 706.78 364.354 708.613 371.689 708.613C375.356 708.613 379.023 708.613 382.691 706.78C393.692 703.112 402.86 697.612 408.361 688.444C417.529 668.274 412.029 642.603 391.859 631.601Z" fill="white" fill-opacity="0.7"/>
<path d="M391.86 862.639C380.858 857.138 369.857 855.304 358.855 858.971C349.687 862.639 338.685 860.805 329.517 855.304C320.349 849.803 314.848 840.635 311.181 831.467C309.347 820.465 302.013 809.464 291.011 803.963C281.843 798.462 270.841 796.628 259.84 800.296C248.838 803.963 239.67 809.464 234.169 818.632C223.167 838.802 230.502 862.639 248.838 873.64C259.84 879.141 270.841 880.975 281.843 877.307C291.011 873.64 302.013 875.474 311.181 880.975C320.349 886.476 325.85 893.81 327.684 904.812V906.645C329.517 917.647 336.852 926.815 346.02 932.316C351.521 935.983 358.855 937.817 366.189 937.817C369.857 937.817 373.524 937.817 377.191 935.983C388.193 932.316 397.361 926.815 402.862 917.647C417.531 899.311 412.03 873.64 391.86 862.639Z" fill="white" fill-opacity="0.7"/>
<path d="M391.859 747.121C380.857 741.62 369.856 741.62 358.854 745.287C349.686 748.955 338.684 747.121 329.516 741.62C320.348 736.119 314.847 726.951 311.18 717.783C309.346 706.782 302.012 695.78 291.01 690.279C270.84 679.277 247.003 686.612 236.002 704.948C225 725.118 232.334 748.955 250.671 759.956C259.839 765.457 272.674 767.291 283.676 763.624C292.844 759.956 303.845 761.79 313.013 767.291C322.182 772.792 329.516 781.96 331.35 791.128V792.961C333.183 803.963 340.518 813.131 349.686 818.632C357.02 822.299 362.521 824.133 369.856 824.133C384.524 824.133 397.36 816.798 404.694 803.963C417.53 783.793 412.029 758.123 391.859 747.121Z" fill="white" fill-opacity="0.7"/>
</g>
<defs>
<clipPath id="clip0_58_4159">
<rect width="681" height="829" fill="white"/>
</clipPath>
</defs>
</svg>
