<svg width="318" height="682" viewBox="0 0 318 682" fill="none" xmlns="http://www.w3.org/2000/svg">
<g clip-path="url(#clip0_58_4212)">
<path d="M452.092 79.6773C440.722 72.8557 424.805 70.5819 411.162 75.1296C399.793 79.6773 386.15 77.4035 374.78 70.5819C363.411 63.7603 356.59 52.391 352.042 41.0217C349.768 27.3785 340.673 13.7353 327.029 6.91372C315.66 0.0921331 302.017 -2.18173 288.374 2.366C274.731 6.91372 263.361 13.7353 256.54 25.1046C242.896 50.1171 251.992 79.6773 274.73 93.3205C286.1 100.142 302.017 102.416 315.66 97.8682C327.029 93.3205 340.673 95.5944 352.042 102.416C363.411 109.238 370.233 118.333 372.507 131.976V134.25C374.78 147.893 383.876 159.262 395.245 166.084C402.067 170.632 411.162 172.906 420.258 172.906C424.805 172.906 429.353 172.906 433.901 170.632C447.544 166.084 458.913 159.262 465.735 147.893C477.104 138.798 479.378 125.155 474.83 111.511C472.557 97.8682 463.461 86.4989 452.092 79.6773Z" fill="#F0F0F0"/>
<path d="M251.988 209.288C254.262 222.931 263.357 234.301 274.727 241.122C281.548 245.67 290.644 247.944 299.739 247.944C304.287 247.944 308.835 247.944 313.382 245.67C327.026 241.122 338.395 234.301 345.216 222.931C358.86 197.919 349.764 168.359 327.026 154.715C315.656 147.894 299.739 145.62 286.096 150.168C274.727 154.715 261.084 152.442 249.714 145.62C238.345 138.798 231.523 127.429 226.976 116.06C224.702 100.143 215.606 88.7734 204.237 81.9518C192.868 75.1302 179.224 72.8564 165.581 77.4041C151.938 81.9518 140.569 88.7734 133.747 100.143C126.926 111.512 124.652 125.155 129.199 138.798C133.747 152.442 140.569 163.811 151.938 170.632C163.307 177.454 179.224 179.728 192.868 175.18C206.511 170.632 220.154 170.632 231.523 177.454C242.893 184.276 249.714 195.645 251.988 209.288Z" fill="#F0F0F0"/>
<path d="M336.121 445.768C327.025 438.947 320.204 425.303 320.204 411.66C320.204 398.017 324.751 386.648 336.121 377.552C347.49 368.457 352.038 354.814 352.038 341.17C352.038 313.884 329.299 291.146 302.013 291.146C274.726 291.146 251.988 313.884 251.988 341.17C251.988 354.814 258.809 368.457 270.179 379.826C279.274 388.922 283.822 400.291 283.822 413.934C283.822 427.577 279.274 438.947 270.179 448.042C258.809 457.137 251.988 470.781 251.988 486.698C251.988 500.341 258.809 513.984 270.179 525.353C279.274 534.449 283.822 545.818 283.822 559.461C283.822 573.104 279.274 584.474 270.179 593.569C258.809 602.665 251.988 616.308 251.988 632.225C251.988 659.511 274.726 682.25 302.013 682.25C329.299 682.25 352.038 659.511 352.038 632.225C352.038 618.582 345.216 604.939 333.847 593.569C324.751 584.474 317.93 573.104 317.93 559.461C317.93 545.818 322.478 534.449 333.847 525.353C345.216 516.258 349.764 502.615 349.764 488.972C352.038 470.781 347.49 457.137 336.121 445.768Z" fill="#F0F0F0"/>
<path d="M201.961 225.203C188.317 218.382 174.674 216.108 161.031 220.656C147.388 225.203 136.019 222.93 124.649 216.108C113.28 209.286 106.458 197.917 101.911 186.548C99.6368 172.905 90.5413 161.535 76.8981 152.44C54.1595 138.797 22.3254 147.892 8.68227 172.905C1.86069 184.274 -0.413174 197.917 4.13455 211.56C8.68227 225.203 15.5039 236.573 26.8732 243.394C38.2425 250.216 54.1595 252.49 67.8027 247.942C79.172 243.394 92.8152 245.668 104.184 252.49C115.554 259.311 122.375 268.407 124.649 282.05V284.324C126.923 297.967 136.019 309.336 147.388 316.158C158.757 318.432 167.853 320.706 176.948 320.706C181.496 320.706 186.044 320.706 190.591 318.432C204.234 313.884 215.604 307.062 222.425 295.693C233.795 270.681 226.973 238.847 201.961 225.203Z" fill="#F0F0F0"/>
<path d="M201.962 511.712C188.319 504.891 174.676 502.617 161.033 507.165C149.664 511.712 136.02 509.439 124.651 502.617C113.282 495.795 106.46 484.426 101.912 473.057C99.6386 459.414 90.5431 445.77 76.8999 438.949C65.5306 432.127 51.8875 429.853 38.2443 434.401C24.6011 438.949 13.2318 445.77 6.4102 457.14C-7.23297 482.152 1.86247 511.712 24.6011 525.356C38.2443 532.177 51.8874 534.451 65.5306 529.903C76.8999 525.356 90.5431 527.629 101.912 534.451C113.282 541.273 120.103 550.368 122.377 564.011V566.285C124.651 579.928 133.747 591.298 145.116 598.119C151.937 602.667 161.033 604.941 170.128 604.941C174.676 604.941 179.224 604.941 183.771 602.667C197.415 598.119 208.784 591.298 215.606 579.928C233.796 557.19 226.975 525.356 201.962 511.712Z" fill="#F0F0F0"/>
<path d="M201.961 368.46C188.318 361.638 174.675 361.638 161.031 366.186C149.662 370.733 136.019 368.46 124.65 361.638C113.28 354.816 106.459 343.447 101.911 332.078C99.6371 318.435 90.5417 304.791 76.8985 297.97C51.886 284.327 22.3258 293.422 8.68266 316.161C-4.96051 341.173 4.13494 370.733 26.8736 384.377C38.2429 391.198 54.1599 393.472 67.8031 388.924C79.1724 384.377 92.8156 386.65 104.185 393.472C115.554 400.294 124.65 411.663 126.923 423.032V425.306C129.197 438.949 138.293 450.319 149.662 457.14C158.758 461.688 165.579 463.962 174.675 463.962C192.865 463.962 208.783 454.866 217.878 438.949C233.795 413.937 226.973 382.103 201.961 368.46Z" fill="#F0F0F0"/>
</g>
<defs>
<clipPath id="clip0_58_4212">
<rect width="318" height="682" fill="white"/>
</clipPath>
</defs>
</svg>
