<svg width="737" height="693" viewBox="0 0 737 693" fill="none" xmlns="http://www.w3.org/2000/svg">
<g clip-path="url(#clip0_58_4202)">
<path d="M156.715 210.36C148.531 205.45 137.072 203.813 127.25 207.087C119.065 210.36 109.243 208.723 101.058 203.813C92.8734 198.902 87.9625 190.717 84.6885 182.532C83.0515 172.71 76.5037 162.888 66.6818 157.977C58.4969 153.066 48.6751 151.429 38.8532 154.703C29.0314 157.977 20.8465 162.888 15.9356 171.073C6.11371 189.08 12.6616 210.36 29.0314 220.182C37.2162 225.093 48.6751 226.73 58.4969 223.456C66.6818 220.182 76.5036 221.819 84.6885 226.73C92.8734 231.641 97.7843 238.189 99.4213 248.011V249.648C101.058 259.47 107.606 267.655 115.791 272.565C120.702 275.839 127.25 277.476 133.798 277.476C137.072 277.476 140.346 277.476 143.62 275.839C153.441 272.566 161.626 267.655 166.537 259.47C174.722 252.922 176.359 243.1 173.085 233.278C171.448 223.456 164.9 215.271 156.715 210.36Z" fill="white" fill-opacity="0.7"/>
<path d="M12.6581 303.668C14.295 313.49 20.8429 321.675 29.0278 326.586C33.9387 329.86 40.4866 331.497 47.0345 331.497C50.3085 331.497 53.5824 331.497 56.8564 329.86C66.6782 326.586 74.8631 321.675 79.7741 313.49C89.5959 295.483 83.048 274.203 66.6783 264.381C58.4934 259.47 47.0345 257.833 37.2127 261.107C29.0278 264.381 19.206 262.744 11.0211 257.833C2.8362 252.922 -2.07472 244.737 -5.34867 236.552C-6.98565 225.094 -13.5335 216.909 -21.7184 211.998C-29.9033 207.087 -39.7251 205.45 -49.547 208.724C-59.3688 211.998 -67.5537 216.909 -72.4646 225.094C-77.3756 233.278 -79.0125 243.1 -75.7386 252.922C-72.4646 262.744 -67.5537 270.929 -59.3688 275.84C-51.184 280.751 -39.7251 282.388 -29.9033 279.114C-20.0814 275.84 -10.2596 275.84 -2.07471 280.751C6.11017 285.662 11.0211 293.847 12.6581 303.668Z" fill="white" fill-opacity="0.7"/>
<path d="M73.2263 473.912C66.6784 469.001 61.7675 459.179 61.7675 449.357C61.7675 439.535 65.0414 431.351 73.2263 424.803C81.4111 418.255 84.6851 408.433 84.6851 398.611C84.6851 378.967 68.3153 362.598 48.6716 362.598C29.0279 362.598 12.6582 378.967 12.6582 398.611C12.6582 408.433 17.5691 418.255 25.754 426.44C32.3019 432.988 35.5758 441.172 35.5758 450.994C35.5758 460.816 32.3019 469.001 25.754 475.549C17.5691 482.097 12.6582 491.919 12.6582 503.377C12.6582 513.199 17.5691 523.021 25.754 531.206C32.3019 537.754 35.5758 545.939 35.5758 555.761C35.5758 565.583 32.3019 573.767 25.754 580.315C17.5691 586.863 12.6582 596.685 12.6582 608.144C12.6582 627.788 29.0279 644.157 48.6716 644.157C68.3153 644.157 84.6851 627.788 84.6851 608.144C84.6851 598.322 79.7742 588.5 71.5893 580.315C65.0414 573.767 60.1305 565.583 60.1305 555.761C60.1305 545.939 63.4044 537.754 71.5893 531.206C79.7742 524.658 83.0481 514.836 83.0481 505.014C84.6851 491.919 81.4111 482.097 73.2263 473.912Z" fill="white" fill-opacity="0.7"/>
<path d="M161.626 423.167C155.078 416.619 150.167 408.434 150.167 398.612C150.167 388.79 153.441 380.605 161.626 374.058C169.811 367.51 173.085 357.688 173.085 347.866C173.085 328.222 156.715 311.853 137.071 311.853C117.427 311.853 101.058 328.222 101.058 347.866C101.058 357.688 105.969 367.51 114.153 375.695C120.701 382.242 125.612 390.427 125.612 400.249C125.612 410.071 122.338 418.256 115.79 424.804C107.606 431.352 102.695 441.174 102.695 452.632C102.695 462.454 107.606 472.276 115.79 480.461C122.338 487.009 127.249 495.194 127.249 505.016C127.249 514.837 123.975 523.022 117.427 529.57C109.242 536.118 104.332 545.94 104.332 557.399C104.332 577.043 120.701 593.412 140.345 593.412C159.989 593.412 176.358 577.043 176.358 557.399C176.358 547.577 171.448 537.755 163.263 529.57C156.715 523.022 151.804 514.837 151.804 505.016C151.804 495.194 155.078 487.009 163.263 480.461C171.448 473.913 174.721 464.091 174.721 454.269C174.721 439.537 169.811 429.715 161.626 423.167Z" fill="white" fill-opacity="0.7"/>
<path d="M251.654 424.804C259.839 418.256 263.113 408.434 263.113 398.613C263.113 388.791 258.202 378.969 250.017 370.784C243.469 364.236 238.558 356.051 238.558 346.229C238.558 336.408 241.832 328.223 250.017 321.675C258.202 315.127 261.476 305.305 261.476 295.483C261.476 275.839 245.106 259.47 225.463 259.47C205.819 259.47 189.449 275.839 189.449 295.483C189.449 305.305 194.36 315.127 202.545 323.312C209.093 329.86 214.004 338.045 214.004 347.866C214.004 357.688 210.73 365.873 204.182 372.421C195.997 378.969 191.086 388.791 191.086 400.25C191.086 410.071 195.997 419.893 204.182 428.078C210.73 434.626 215.641 442.811 215.641 452.633C215.641 462.455 212.367 470.64 205.819 477.187C197.634 483.735 192.723 493.557 192.723 505.016C192.723 524.66 209.093 541.029 228.737 541.029C248.38 541.029 264.75 524.66 264.75 505.016C264.75 495.194 259.839 485.372 251.654 477.187C245.106 470.64 240.195 462.455 240.195 452.633C240.195 441.174 245.106 431.352 251.654 424.804Z" fill="white" fill-opacity="0.7"/>
</g>
<defs>
<clipPath id="clip0_58_4202">
<rect width="737" height="693" fill="white"/>
</clipPath>
</defs>
</svg>
