<svg width="40" height="40" viewBox="0 0 40 40" fill="none" xmlns="http://www.w3.org/2000/svg">
<path d="M1.87488 38.75H18.1249C18.4697 38.75 18.7499 38.4699 18.7499 38.125V35C18.7499 32.5876 16.7872 30.625 14.3749 30.625H13.1249V29.0489C14.631 28.0383 15.6249 26.3206 15.6249 24.375C15.6249 21.2737 13.1012 18.75 9.99988 18.75C6.89859 18.75 4.37488 21.2737 4.37488 24.375C4.37488 26.3206 5.36874 28.0382 6.87488 29.0489V30.625H5.62488C3.21252 30.625 1.24988 32.5876 1.24988 35V38.125C1.24988 38.4699 1.53001 38.75 1.87488 38.75ZM9.99988 20C11.9242 20 13.5593 21.2506 14.143 22.9813C12.8693 23.3287 11.3869 22.9645 10.4485 21.9969C10.213 21.7539 9.78614 21.7539 9.55038 21.9969C8.85562 22.7137 7.88045 23.125 6.87488 23.125C6.52359 23.125 6.18375 23.0737 5.85616 22.9813C6.43987 21.2511 8.07488 20 9.99988 20V20ZM5.62488 24.375C5.62488 24.3186 5.63102 24.2637 5.63353 24.2076C7.12096 24.5756 8.79281 24.2444 9.99989 23.2746C10.8774 23.9797 11.9873 24.3744 13.1249 24.3744C13.5512 24.3744 13.965 24.3164 14.3668 24.2132C14.3688 24.2681 14.3749 24.3206 14.3749 24.375C14.3749 26.7874 12.4123 28.75 9.99991 28.75C7.58755 28.75 5.6249 26.7874 5.6249 24.375H5.62488ZM9.99988 30C10.6581 30 11.2872 29.8806 11.8749 29.6719V30.9914L9.99988 32.8664L8.12488 30.9914V29.6719C8.71249 29.8806 9.34167 30 9.99988 30ZM2.49988 35C2.49988 33.2768 3.90166 31.875 5.62488 31.875H7.24124L9.55824 34.192C9.80266 34.4364 10.1977 34.4364 10.4419 34.192L12.7586 31.875H14.375C16.0982 31.875 17.5 33.2768 17.5 35V37.5H2.49995L2.49988 35Z" fill="#E4E4E4"/>
<path d="M31.9878 13.9172C31.7478 13.694 31.3759 13.694 31.1365 13.9172L24.574 20.024C24.4467 20.1429 24.3748 20.3086 24.3748 20.4816V38.1245C24.3748 38.4693 24.6549 38.7495 24.9998 38.7495H38.1248C38.4696 38.7495 38.7498 38.4693 38.7498 38.1245V20.4816C38.7498 20.3078 38.6778 20.1423 38.5503 20.024L31.9878 13.9172ZM37.4998 37.5H25.6248V20.7543L31.5623 15.2287L37.4998 20.7543V37.5Z" fill="#E4E4E4"/>
<path d="M29.423 20.937C29.423 22.1164 30.383 23.0765 31.5625 23.0765C32.7419 23.0765 33.702 22.1164 33.702 20.937C33.702 19.7576 32.7419 18.7975 31.5625 18.7975C30.383 18.7975 29.423 19.7576 29.423 20.937ZM32.452 20.937C32.452 21.4275 32.0533 21.8265 31.5625 21.8265C31.072 21.8265 30.673 21.4278 30.673 20.937C30.673 20.4465 31.0717 20.0475 31.5625 20.0475C32.053 20.0475 32.452 20.4465 32.452 20.937Z" fill="#E4E4E4"/>
<path d="M32.1275 25.215C32.0243 24.9957 31.8039 24.8557 31.562 24.8557C31.3201 24.8557 31.0988 24.9957 30.9964 25.215L29.9797 27.3819L27.7185 27.7276C27.4867 27.7633 27.2947 27.9246 27.2205 28.1469C27.146 28.3693 27.2024 28.6146 27.3656 28.782L29.0199 30.4776L28.6287 32.8793C28.5899 33.1157 28.6901 33.3531 28.8857 33.4912C29.0813 33.6288 29.3377 33.643 29.548 33.5275L31.5631 32.4136L33.5782 33.5275C33.6725 33.5794 33.7768 33.6056 33.8806 33.6056C34.0068 33.6056 34.1332 33.5668 34.2406 33.4912C34.4362 33.3537 34.5363 33.1157 34.4976 32.8793L34.1064 30.4776L35.7607 28.782C35.9244 28.6146 35.9805 28.3696 35.9057 28.1469C35.8307 27.9246 35.639 27.7633 35.4077 27.7276L33.1466 27.3819L32.1275 25.215ZM32.9894 29.8305C32.8507 29.9723 32.7882 30.1718 32.82 30.3674L33.055 31.8104L31.8638 31.1522C31.7701 31.1003 31.6657 31.0741 31.5614 31.0741C31.457 31.0741 31.3532 31.1003 31.2589 31.1522L30.0678 31.8104L30.3027 30.3674C30.3345 30.1718 30.272 29.9723 30.1333 29.8305L29.1077 28.7792L30.4963 28.5666C30.7025 28.5353 30.8794 28.4028 30.9676 28.2147L31.5608 26.9516L32.154 28.2147C32.2427 28.4033 32.4191 28.5353 32.6253 28.5666L34.0139 28.7792L32.9894 29.8305Z" fill="#E4E4E4"/>
<path d="M31.2499 8.75H32.4999V11.25H31.2499V8.75Z" fill="#E4E4E4"/>
<path d="M35.1821 13.2015L36.95 11.4336L37.8339 12.3175L36.0661 14.0854L35.1821 13.2015Z" fill="#E4E4E4"/>
<path d="M25.9149 12.3172L26.7988 11.4332L28.5667 13.2011L27.6828 14.085L25.9149 12.3172Z" fill="#E4E4E4"/>
<path d="M7.08571 9.40932C7.10998 9.44364 7.1376 9.47545 7.16746 9.50418L10.1605 12.3298C10.2813 12.4431 10.4356 12.5 10.5901 12.5C10.7363 12.5 10.8834 12.4487 11.0014 12.3457L14.0882 9.64766C14.1058 9.63259 14.122 9.61641 14.1376 9.59966L15.0327 8.62338C16.0382 7.52602 16.0539 5.85716 15.0684 4.74138C14.0846 3.62838 12.4227 3.42831 11.2029 4.27821L10.7654 4.58261L10.6836 4.50811C9.58234 3.50926 7.90991 3.49447 6.79048 4.4724C5.66912 5.45233 5.46848 7.1094 6.3248 8.32619L7.08571 9.40932ZM7.61305 5.41375C8.25423 4.8532 9.21376 4.86185 9.84376 5.43384L10.2938 5.84204C10.5101 6.03763 10.8312 6.05772 11.0706 5.89198L11.9163 5.30381C12.6158 4.81832 13.5681 4.93188 14.1306 5.56887C14.6912 6.20392 14.6825 7.15395 14.11 7.77816L13.2386 8.7288L10.605 11.0307L8.07067 8.63816L7.34582 7.60687C6.86004 6.91491 6.97445 5.9718 7.61312 5.4138L7.61305 5.41375Z" fill="#E4E4E4"/>
<path d="M3.12494 15H13.1249V18.125C13.1249 18.4001 13.3055 18.6437 13.5686 18.7232C13.6286 18.7414 13.6894 18.75 13.7499 18.75C13.955 18.75 14.1517 18.6487 14.27 18.4718L16.5842 15.0001H18.1249C19.1587 15.0001 19.9999 14.1588 19.9999 13.1251V3.12506C19.9999 2.09128 19.1587 1.25006 18.1249 1.25006H3.12488C2.09109 1.25006 1.24988 2.09128 1.24988 3.12506V13.1251C1.24988 14.1588 2.09109 15.0001 3.12488 15.0001L3.12494 15ZM2.49994 3.12503C2.49994 2.78072 2.78063 2.50003 3.12494 2.50003H18.1249C18.4692 2.50003 18.7499 2.78072 18.7499 3.12503V13.125C18.7499 13.4693 18.4692 13.75 18.1249 13.75H16.2499C16.0412 13.75 15.8462 13.8544 15.7299 14.0282L14.3749 16.0606V14.375C14.3749 14.0301 14.0948 13.75 13.7499 13.75H3.12492C2.78061 13.75 2.49992 13.4693 2.49992 13.125L2.49994 3.12503Z" fill="#E4E4E4"/>
</svg>
