<svg width="832" height="391" viewBox="0 0 832 391" fill="none" xmlns="http://www.w3.org/2000/svg">
<path d="M1 343.4H293.121C295.005 343.4 296.226 345.366 295.378 347.063L282.958 376.406C282.565 377.192 281.758 377.689 280.888 377.689H275.196C273.582 377.689 272.402 376.178 272.795 374.606L307.176 275.008C307.445 273.953 308.376 273.187 309.473 273.125L336.258 272.546C337.872 272.463 339.114 273.932 338.803 275.505L316.283 387.436C316.056 388.594 315.041 389.443 313.841 389.443H307.88C306.348 389.443 305.189 388.056 305.437 386.546L324.19 273.643C326.239 261.33 328.185 255.557 332.201 258.412C335.968 261.082 314.959 264.558 303.657 257.067C292.045 249.39 291.879 226.627 289.251 211.438C288.63 207.837 305.81 215.329 318.312 198.836C332.635 179.963 329.303 154.573 309.059 118.959C295.233 94.6238 301.318 39.4138 304.547 35.7718C307.776 32.1297 322.348 47.505 321.955 34.5509C321.541 21.5968 312.102 28.7153 287.139 11.4777C237.773 -22.5836 235.061 41.5866 219.951 34.3232C203.889 26.6046 262.446 14.7059 286.332 33.33C303.512 46.7186 319.926 132.472 330.441 91.9958C340.956 51.5402 364.429 47.8981 373.35 41.0072C382.25 34.137 396.429 -3.5043 433.645 33.7231C457.035 57.1067 468.046 76.6206 459.953 72.5647C451.86 68.5088 428.74 80.842 401.272 72.1508C370.514 62.4456 389.122 48.2706 372.128 49.0777C338.141 50.6917 337.831 99.9421 334.291 111.986C326.86 137.232 329.22 172.493 332.863 164.402C337.189 154.8 325.991 114.221 357.143 104.122C385.252 94.9963 421.495 144.454 436.232 135.1C449.107 126.926 402.08 126.926 389.453 150.682C379.601 169.244 350.726 174.397 340.128 168.872C330.814 164.009 330.876 182.447 330.007 191.945C327.585 218.246 321.913 210.155 320.299 180.626C317.505 129.596 332.428 129.306 322.327 110.227C307.755 82.7045 295.212 83.9254 279.833 89.5953C242.658 103.294 227.693 73.2269 240.567 94.8515C272.133 147.847 295.605 126.823 306.948 137.335C314.731 144.557 316.18 162.726 315.021 176.239C312.909 200.719 303.14 203.368 289.478 203.388L349.422 203.285C351.947 203.285 354.017 205.292 354.1 207.817C354.348 215.494 354.41 231.325 351.471 242.52C347.021 259.509 333.67 268.304 320.713 268.014C302.912 267.6 270.125 268.428 270.125 259.923C270.125 253.508 279.833 252.039 335.74 252.039C389.226 252.039 398.126 255.287 398.023 261.475C397.919 267.103 369.583 268.428 350.478 268.593C349.815 268.593 349.381 269.256 349.629 269.876L393.428 375.744C394.235 377.399 393.034 379.324 391.192 379.324H384.962C383.968 379.324 383.078 378.744 382.685 377.834L367.306 346.318C366.685 345.056 367.616 343.586 369.024 343.586L415.14 343.669L569.491 343.545C570.919 343.545 571.851 345.056 571.209 346.318L551.173 385.925C550.841 386.566 550.179 386.98 549.455 386.98H536.663C535.442 386.98 534.531 385.842 534.8 384.642L543.204 346.442C544.052 342.572 543.659 338.537 542.065 334.916C529.584 306.4 474.484 177.273 494.934 167.734C517.93 156.994 553.719 174.376 560.88 190.227C568.042 206.079 571.623 223.44 572.12 227.02C572.637 230.6 542.976 241.319 540.43 239.788C538.07 238.381 529.687 170.796 512.321 169.265C494.934 167.734 493.92 171.314 509.258 174.376C524.595 177.439 538.401 270.456 545.543 282.727C552.704 294.998 553.719 303.689 648.809 303.689C743.899 303.689 745.43 302.158 750.522 286.307C755.614 270.456 758.698 252.059 756.649 244.92C754.6 237.76 571.602 244.92 558.314 245.437C545.025 245.955 579.282 229.09 589.486 228.572C599.711 228.055 714.196 227.682 716.763 224.992C726.47 214.77 730.651 173.383 720.343 157.532C699.376 125.333 651.768 139.239 644.172 134.024C635.996 128.396 628.834 107.971 615.028 107.454C610.412 107.288 634.444 129.43 644.172 129.43C652.348 129.43 666.672 107.971 663.588 106.44C660.524 104.908 630.366 151.407 621.155 151.407C611.944 151.407 633.181 136.487 641.088 137.604C648.25 138.618 661.083 151.841 658.972 153.952C654.377 158.546 646.697 142.198 651.81 131.975C656.922 121.753 749.467 109.668 719.288 35.896C710.077 13.4022 575.597 11.7467 566.448 39.4759C533.227 140.149 576.156 186.151 574.107 197.905C572.058 209.659 558.252 167.754 541.382 162.643C524.513 157.532 533.951 38.524 566.428 20.0655C592.487 5.24902 702.915 4.21434 721.316 18.5342C744.996 36.9513 767.454 148.303 751.474 174.914C737.668 197.905 726.429 219.881 726.946 228.572C727.464 237.264 747.935 186.647 758.119 180.026C768.344 173.383 792.417 159.125 807.713 169.286C824.334 180.336 812.825 159.58 788.794 174.397C764.763 189.213 756.587 238.795 759.154 238.795C761.72 238.795 784.592 163.616 811.087 176.88C829.902 186.296 764.66 336.737 757.622 338.951C745.348 342.821 584.332 339.965 584.332 343.048C584.332 346.069 703.867 347.456 723.779 347.622C725.415 347.642 726.946 348.532 727.754 349.96L747.542 384.559C748.411 386.07 750.005 387.001 751.743 387.001H759.609C761.244 387.001 762.465 385.511 762.176 383.918L756.028 351.45C755.8 350.27 756.711 349.174 757.912 349.174L830.482 349.422" stroke="white" stroke-opacity="0.2" stroke-width="2" stroke-miterlimit="10" stroke-linecap="round" stroke-linejoin="round"/>
</svg>
