<svg width="40" height="40" viewBox="0 0 40 40" fill="none" xmlns="http://www.w3.org/2000/svg">
<path d="M33.7847 38H6.21472C5.90389 38 5.65222 37.7481 5.65222 37.4375L5.6525 2.5625C5.6525 2.25195 5.90389 2 6.21472 2H33.784C34.0948 2 34.3465 2.25195 34.3465 2.5625V37.4375C34.3465 37.7478 34.0951 37.9997 33.7843 37.9997L33.7847 38ZM6.77758 36.8753H33.2226V3.12529H6.77758V36.8753Z" fill="#E4E4E4"/>
<path d="M26.7165 7.48358H13.2837C12.9729 7.48358 12.7212 7.23163 12.7212 6.92108C12.7212 6.61081 12.9731 6.35858 13.2837 6.35858H26.7165C27.0274 6.35858 27.279 6.61053 27.279 6.92108C27.279 7.23163 27.0271 7.48358 26.7168 7.48358H26.7165Z" fill="#E4E4E4"/>
<path d="M22.3083 9.82715H17.6906C17.3797 9.82715 17.1281 9.5752 17.1281 9.26465C17.1281 8.95438 17.38 8.70215 17.6906 8.70215H22.3081C22.6189 8.70215 22.8706 8.9541 22.8706 9.26465C22.8706 9.5752 22.6192 9.82715 22.3083 9.82715H22.3083Z" fill="#E4E4E4"/>
<path d="M15.0683 19.0857H9.87744C9.56661 19.0857 9.31494 18.8338 9.31494 18.5232V13.3321C9.31494 13.0213 9.56689 12.7696 9.87744 12.7696H15.0683C15.3791 12.7696 15.6308 13.0215 15.6308 13.3321V18.523C15.6311 18.8338 15.3788 19.0857 15.0683 19.0857V19.0857ZM10.4397 17.9604H14.5058V13.8946H10.4397V17.9604Z" fill="#E4E4E4"/>
<path d="M22.5955 19.0857H17.4041C17.0932 19.0857 16.8416 18.8338 16.8416 18.5232L16.8418 13.3321C16.8418 13.0213 17.0938 12.7696 17.4043 12.7696H22.5952C22.906 12.7696 23.1577 13.0215 23.1577 13.3321V18.523C23.1577 18.8338 22.9057 19.0857 22.5955 19.0857L22.5955 19.0857ZM17.9666 17.9604H22.0327V13.8946H17.9666V17.9604Z" fill="#E4E4E4"/>
<path d="M30.1221 19.0857H24.9313C24.6204 19.0857 24.3688 18.8338 24.3688 18.5232L24.3691 13.3321C24.3691 13.0213 24.621 12.7696 24.9316 12.7696H30.1224C30.4332 12.7696 30.6849 13.0215 30.6849 13.3321V18.523C30.6846 18.8338 30.433 19.0857 30.1221 19.0857V19.0857ZM25.4938 17.9604H29.5599V13.8946H25.4938V17.9604Z" fill="#E4E4E4"/>
<path d="M15.0683 26.6443H9.87744C9.56661 26.6443 9.31494 26.3923 9.31494 26.0818V20.8906C9.31494 20.5798 9.56689 20.3281 9.87744 20.3281H15.0683C15.3791 20.3281 15.6308 20.5801 15.6308 20.8906V26.0815C15.6311 26.392 15.3788 26.6443 15.0683 26.6443V26.6443ZM10.4397 25.519H14.5058V21.4528H10.4397V25.519Z" fill="#E4E4E4"/>
<path d="M22.5955 26.6443H17.4041C17.0932 26.6443 16.8416 26.3923 16.8416 26.0818L16.8418 20.8906C16.8418 20.5798 17.0938 20.3281 17.4043 20.3281H22.5952C22.906 20.3281 23.1577 20.5801 23.1577 20.8906V26.0815C23.1577 26.392 22.9057 26.6443 22.5955 26.6443L22.5955 26.6443ZM17.9666 25.519H22.0327V21.4528H17.9666V25.519Z" fill="#E4E4E4"/>
<path d="M30.1221 26.6443H24.9313C24.6204 26.6443 24.3688 26.3923 24.3688 26.0818L24.3691 20.8906C24.3691 20.5798 24.621 20.3281 24.9316 20.3281H30.1224C30.4332 20.3281 30.6849 20.5801 30.6849 20.8906V26.0815C30.6846 26.392 30.433 26.6443 30.1221 26.6443V26.6443ZM25.4938 25.519H29.5599V21.4528H25.4938V25.519Z" fill="#E4E4E4"/>
<path d="M15.0683 34.2029H9.87744C9.56661 34.2029 9.31494 33.9509 9.31494 33.6404V28.4492C9.31494 28.1384 9.56689 27.8867 9.87744 27.8867H15.0683C15.3791 27.8867 15.6308 28.1387 15.6308 28.4492V33.6401C15.6311 33.9509 15.3788 34.2029 15.0683 34.2029V34.2029ZM10.4397 33.0779H14.5058V29.0117H10.4397V33.0779Z" fill="#E4E4E4"/>
<path d="M22.5955 34.2029H17.4041C17.0932 34.2029 16.8416 33.9509 16.8416 33.6404L16.8418 28.4492C16.8418 28.1384 17.0938 27.8867 17.4043 27.8867H22.5952C22.906 27.8867 23.1577 28.1387 23.1577 28.4492V33.6401C23.1577 33.9509 22.9057 34.2029 22.5955 34.2029L22.5955 34.2029ZM17.9666 33.0779H22.0327V29.0117H17.9666V33.0779Z" fill="#E4E4E4"/>
<path d="M30.1221 34.2029H24.9313C24.6204 34.2029 24.3688 33.9509 24.3688 33.6404L24.3691 28.4492C24.3691 28.1384 24.621 27.8867 24.9316 27.8867H30.1224C30.4332 27.8867 30.6849 28.1387 30.6849 28.4492V33.6401C30.6846 33.9509 30.433 34.2029 30.1221 34.2029V34.2029ZM25.4938 33.0779H29.5599V29.0117H25.4938V33.0779Z" fill="#E4E4E4"/>
</svg>
