<svg width="40" height="40" viewBox="0 0 40 40" fill="none" xmlns="http://www.w3.org/2000/svg">
<path d="M20.1757 14.375L16.7382 0.625H5.76251L2.32501 14.375H9.37551V34.375H6.87551C5.1523 34.375 3.75051 35.7768 3.75051 37.5V39.375H18.7505V37.5C18.7505 35.7768 17.3487 34.375 15.6255 34.375H13.1255V14.375H20.1757ZM4.23858 11.875H15.6257V10.625H4.55144L6.73894 1.875H15.7625L17.95 10.625H16.8758V11.875H18.2628L18.5753 13.125H3.92601L4.23858 11.875ZM17.5007 37.5V38.125H5.00073V37.5C5.00073 36.4662 5.84194 35.625 6.87573 35.625H15.6257C16.6595 35.625 17.5007 36.4662 17.5007 37.5ZM11.8757 34.375H10.6257V14.375H11.8757V34.375Z" fill="#E4E4E4"/>
<path d="M36.8748 34.49V31.2501H38.3496L34.834 20.0001H23.9154L20.3998 31.2501H25.0691C24.6152 32.2238 24.3747 33.2833 24.3747 34.3751C24.3747 37.1321 26.6177 39.3751 29.3747 39.3751C32.1317 39.3751 34.3747 37.1321 34.3747 34.3751C34.3747 33.2833 34.1341 32.2238 33.6802 31.2501H35.6247V34.49C34.899 34.7486 34.3747 35.4361 34.3747 36.2501C34.3747 37.2838 35.2159 38.1251 36.2497 38.1251C37.2835 38.1251 38.1247 37.2838 38.1247 36.2501C38.1247 35.4364 37.6004 34.7489 36.8747 34.49H36.8748ZM22.4905 28.7501H33.1248V27.5001H22.8812L24.8344 21.2501H33.9151L35.8682 27.5001H34.3752V28.7501H36.2502V28.7208L36.6503 30.0001H22.1003L22.4905 28.7501ZM33.1248 34.3751C33.1248 36.4431 31.4429 38.1251 29.3748 38.1251C27.3067 38.1251 25.6248 36.4431 25.6248 34.3751C25.6248 33.2663 25.9186 32.1962 26.4761 31.2501H32.2729C32.831 32.1962 33.1248 33.2663 33.1248 34.3751ZM36.2498 36.8751C35.9049 36.8751 35.6248 36.5944 35.6248 36.2501C35.6248 35.9058 35.9049 35.6251 36.2498 35.6251C36.5946 35.6251 36.8748 35.9058 36.8748 36.2501C36.8748 36.5944 36.5946 36.8751 36.2498 36.8751Z" fill="#E4E4E4"/>
</svg>
