<svg width="40" height="40" viewBox="0 0 40 40" fill="none" xmlns="http://www.w3.org/2000/svg">
<g clip-path="url(#clip0_104_11941)">
<path d="M40.0003 23.9224V23.0819C39.9997 22.52 39.7762 21.9813 39.3789 21.5841C38.9816 21.1868 38.4429 20.9633 37.8811 20.9623C37.6135 20.9633 37.3519 20.8837 37.1299 20.734C36.9083 20.5847 36.7365 20.3719 36.6369 20.1237L35.1537 16.4641C34.9961 16.0722 34.7244 15.7361 34.3737 15.4999C34.0234 15.2637 33.6099 15.1381 33.1873 15.1394H28.4056C28.0289 15.1394 27.7236 15.4444 27.7236 15.8211V23.2493H26.4436V7.70952C26.4436 7.33317 26.1385 7.02783 25.7619 7.02783H8.54592C8.16957 7.02783 7.86423 7.33317 7.86423 7.70952V12.4258C7.86423 12.8025 8.16957 13.1079 8.54592 13.1079C8.9226 13.1079 9.22793 12.8025 9.22793 12.4258V8.3915H14.5515V12.0587C14.5515 12.4354 14.8568 12.7404 15.2332 12.7404H19.0684C19.4448 12.7404 19.7501 12.4354 19.7501 12.0587V8.3915H25.08V23.2495H9.22767V19.4507H11.8187H11.8184C12.1951 19.4507 12.5004 19.1454 12.5004 18.769C12.5004 18.3923 12.1951 18.087 11.8184 18.087H5.10583C4.72916 18.087 4.42383 18.3923 4.42383 18.769C4.42383 19.1454 4.72916 19.4507 5.10583 19.4507H7.86396V23.2495H6.94699C6.57063 23.2495 6.2653 23.5548 6.2653 23.9312V29.3128C6.2653 29.6891 6.57063 29.9945 6.94699 29.9945H9.41315C9.51873 31.0877 10.1608 32.057 11.1262 32.5804C12.0917 33.1042 13.2544 33.1137 14.2284 32.6061C15.2021 32.0985 15.8603 31.14 15.984 30.0486C16.1077 28.9573 15.6809 27.8757 14.8451 27.163C14.0097 26.4502 12.8743 26.1994 11.8162 26.4937C10.7579 26.7879 9.91542 27.5888 9.56761 28.6307H7.62905V24.6131H27.7232V26.6214L27.7236 26.6211C27.7236 26.9978 28.0289 27.3031 28.4056 27.3031C28.7819 27.3031 29.0873 26.9978 29.0873 26.6211V16.5026H33.1863C33.4954 16.5016 33.7735 16.6893 33.8886 16.976L35.3716 20.6359C35.5726 21.1362 35.9191 21.5648 36.3662 21.8661C36.8136 22.1673 37.3409 22.3274 37.8802 22.3258C38.2977 22.3258 38.6364 22.6641 38.637 23.0817V28.6303H36.3237C35.9765 27.5913 35.1353 26.7926 34.0798 26.4996C33.0242 26.2064 31.892 26.4568 31.0584 27.168C30.2248 27.8789 29.7993 28.9579 29.9227 30.0464C30.046 31.1352 30.7024 32.0911 31.6738 32.5978C32.6453 33.1042 33.8048 33.095 34.7681 32.5731C35.7313 32.0509 36.3721 31.0844 36.478 29.9941H39.3186C39.6953 29.9941 40.0003 29.6888 40.0003 29.3124L40.0003 23.9224ZM18.3858 11.3769H15.9146V8.39144H18.3858V11.3769ZM12.6957 27.7365C13.2094 27.7365 13.7018 27.9407 14.0648 28.3038C14.4278 28.6668 14.6317 29.1592 14.6317 29.6725C14.6317 30.1862 14.4278 30.6786 14.0645 31.0416C13.7014 31.4046 13.209 31.6085 12.6957 31.6085C12.1821 31.6082 11.6896 31.4043 11.3267 31.0413C10.9636 30.6779 10.7597 30.1855 10.7601 29.6722C10.7607 29.1589 10.9649 28.6668 11.3276 28.3041C11.6906 27.9411 12.1827 27.7372 12.6957 27.7365L12.6957 27.7365ZM33.1958 31.6079H33.1961C32.6828 31.6079 32.19 31.404 31.827 31.041C31.464 30.6779 31.2601 30.1855 31.2601 29.6722C31.2601 29.1586 31.464 28.6661 31.827 28.3031C32.19 27.9401 32.6828 27.7362 33.1961 27.7362C33.7094 27.7362 34.2018 27.9401 34.5648 28.3031C34.9278 28.6662 35.1321 29.1586 35.1321 29.6722C35.1314 30.1855 34.9272 30.678 34.5639 31.041C34.2005 31.404 33.7081 31.6079 33.1948 31.6079H33.1958Z" fill="#E4E4E4"/>
<path d="M28.4053 28.6304H17.152C16.7757 28.6304 16.4703 28.9357 16.4703 29.3124C16.4703 29.6887 16.7757 29.9941 17.152 29.9941H28.4053C28.7817 29.9941 29.087 29.6887 29.087 29.3124C29.087 28.9357 28.7817 28.6304 28.4053 28.6304Z" fill="#E4E4E4"/>
<path d="M32.5179 21.0359H31.1327C30.756 21.0359 30.4507 21.3412 30.4507 21.7176C30.4507 22.0943 30.756 22.3996 31.1327 22.3996H32.5179C32.86 22.3996 33.1914 22.2785 33.4527 22.0575C33.714 21.8365 33.8886 21.5305 33.9454 21.1932C34.0025 20.8555 33.9381 20.509 33.764 20.2147L32.3093 17.7575V17.7572C32.1172 17.4334 31.6986 17.3266 31.3746 17.519C31.0505 17.7112 30.944 18.1297 31.1361 18.4538L32.5908 20.9082C32.6061 20.9342 32.6064 20.9665 32.5915 20.9925C32.5766 21.0188 32.5487 21.035 32.5186 21.035L32.5179 21.0359Z" fill="#E4E4E4"/>
<path d="M6.28592 11.7089C6.6626 11.7089 6.96793 11.4035 6.96793 11.0272C6.96793 10.6505 6.6626 10.3452 6.28592 10.3452H0.682422C0.305749 10.3452 0.000732422 10.6505 0.000732422 11.0272C0.000732422 11.4035 0.305749 11.7089 0.682422 11.7089H6.28592Z" fill="#E4E4E4"/>
<path d="M8.5455 17.2383C8.92217 17.2383 9.2275 16.9332 9.2275 16.5566V15.0083C9.2275 14.6317 8.92217 14.3267 8.5455 14.3267H3.77844C3.40177 14.3267 3.09644 14.6317 3.09644 15.0083C3.09644 15.385 3.40177 15.69 3.77844 15.69H7.86384V16.5566C7.86384 16.9333 8.16917 17.2383 8.54553 17.2383L8.5455 17.2383Z" fill="#E4E4E4"/>
<path d="M5.76992 20.5392H1.27356C0.896887 20.5392 0.591553 20.8442 0.591553 21.2209C0.591553 21.5975 0.896887 21.9026 1.27356 21.9026H5.77081C6.14716 21.9026 6.4525 21.5975 6.4525 21.2209C6.4525 20.8442 6.14716 20.5392 5.77081 20.5392H5.76992Z" fill="#E4E4E4"/>
</g>
<defs>
<clipPath id="clip0_104_11941">
<rect width="40" height="40" fill="white"/>
</clipPath>
</defs>
</svg>
