<svg width="40" height="40" viewBox="0 0 40 40" fill="none" xmlns="http://www.w3.org/2000/svg">
<path d="M28.5197 37H22.4796C22.1994 37 21.9595 37.24 21.9595 37.5201C21.9595 37.8002 22.1994 38.0402 22.4796 38.0402H28.5195C28.7996 38.0402 29.0396 37.8002 29.0396 37.5201C29.0396 37.24 28.7996 37 28.5198 37H28.5197Z" fill="#E4E4E4"/>
<path d="M26.84 38.64H24.1202C23.84 38.64 23.6001 38.88 23.6001 39.1601C23.6001 39.4403 23.8401 39.6802 24.1202 39.6802H26.84C26.9999 39.6802 27.1202 39.6403 27.2 39.5203C27.32 39.4003 27.3599 39.2804 27.3599 39.1604C27.3599 38.88 27.1199 38.64 26.84 38.64L26.84 38.64Z" fill="#E4E4E4"/>
<path d="M19.24 29.88C20.28 31.2 20.8399 32.8401 20.8399 34.5201C20.8399 34.9601 20.9998 35.3603 21.3198 35.6401C21.6398 35.9602 22.0397 36.12 22.4398 36.12H28.5199C28.9599 36.12 29.36 35.9602 29.6399 35.6401C29.9599 35.3201 30.1198 34.9203 30.1198 34.5201C30.1198 32.8401 30.6798 31.2001 31.7196 29.88C33.9998 26.7202 33.5598 22.32 30.6797 19.72C29.2397 18.4 27.3996 17.6801 25.4796 17.6801C23.5597 17.6801 21.6797 18.4 20.2796 19.72C17.4001 22.3598 16.9601 26.7198 19.2399 29.88H19.24ZM23.8801 27.36H23.48C23.2799 27.36 23.0799 27.2001 23.0799 26.9599C23.0799 26.7598 23.2398 26.5597 23.48 26.5597C23.68 26.5597 23.8801 26.7196 23.8801 26.9599V27.36ZM26.12 34.96H24.8399L24.8402 28.3199H26.1203L26.12 34.96ZM21.0801 20.6C22.2802 19.48 23.8402 18.8801 25.4802 18.8801C27.1203 18.8801 28.6803 19.48 29.8804 20.6C32.4005 22.92 32.7205 26.68 30.6405 29.36C29.5205 30.88 28.9206 32.68 28.9206 34.5198C28.9206 34.6398 28.8807 34.7199 28.8006 34.8C28.7205 34.88 28.6006 34.9199 28.5205 34.9199H27.0805L27.0802 28.3201H27.4803C28.2404 28.3201 28.8403 27.7202 28.8403 26.9602C28.8403 26.2001 28.2404 25.6002 27.4803 25.6002C26.7203 25.6002 26.1204 26.2001 26.1204 26.9602V27.3603H24.8403V26.9602C24.8403 26.2001 24.2404 25.6002 23.4803 25.6002C22.7203 25.6002 22.1204 26.2001 22.1204 26.9602C22.1204 27.7202 22.7203 28.3201 23.4803 28.3201H23.8804V34.9602H22.4404C22.3205 34.9602 22.2404 34.9203 22.1603 34.8402C22.0802 34.7601 22.0403 34.6401 22.0403 34.56C22.0403 32.68 21.4404 30.92 20.3205 29.4002C18.2401 26.68 18.5601 22.8801 21.0803 20.6002L21.0801 20.6ZM27.04 27.36V26.9599C27.04 26.7599 27.1998 26.5598 27.4401 26.5598C27.68 26.5598 27.8402 26.7197 27.8402 26.9599C27.8402 27.16 27.6803 27.36 27.4401 27.36H27.04Z" fill="#E4E4E4"/>
<path d="M29.2004 13.72C29.2403 13.5601 29.3602 13.4399 29.5204 13.3601C29.6803 13.28 29.8404 13.2401 30.0003 13.3202C30.1602 13.3601 30.2805 13.4801 30.3603 13.6003C30.4403 13.7602 30.4802 13.9204 30.4002 14.0802L29.7202 16.4804C29.6401 16.8004 29.2802 17.0005 28.9601 16.9204C28.6401 16.8403 28.44 16.4804 28.5201 16.1603L29.2004 13.72Z" fill="#E4E4E4"/>
<path d="M36.0402 18.08C36.2001 18 36.3603 18 36.5201 18.0401C36.68 18.08 36.8003 18.2 36.8801 18.3602C36.9602 18.5201 36.9602 18.6802 36.92 18.8401C36.8801 19 36.7601 19.1202 36.5999 19.2L34.36 20.2801C34.04 20.44 33.68 20.2801 33.5199 20C33.36 19.6799 33.5199 19.32 33.8 19.1598L36.0402 18.08Z" fill="#E4E4E4"/>
<path d="M37.7203 23.6801C37.8802 23.6801 38.0404 23.7601 38.1603 23.8801C38.2803 24.0001 38.3604 24.1602 38.3604 24.3201C38.3604 24.48 38.2803 24.6402 38.1603 24.7601C38.0404 24.8801 37.8802 24.9602 37.7203 24.9602H35.2404C34.9204 24.9602 34.6003 24.6801 34.6003 24.3201C34.6003 23.9602 34.8805 23.6801 35.2404 23.6801L37.7203 23.6801Z" fill="#E4E4E4"/>
<path d="M16.84 39.72H2.52002C2.11991 39.72 1.75995 39.4 1.75995 38.96V1.07996C1.75995 0.679842 2.07998 0.319885 2.52002 0.319885H26.52C26.7201 0.319885 26.9201 0.399964 27.0401 0.519942L33.96 7.31987C34.1199 7.47975 34.2 7.63991 34.2 7.87986V14.7998C34.2 15.1999 33.88 15.5599 33.4399 15.5599C32.9999 15.5599 32.6798 15.2398 32.6798 14.7998V8.19993L26.1999 1.84H3.27992V38.16H16.7999C17.2 38.16 17.56 38.48 17.56 38.9201C17.5996 39.3598 17.2397 39.7197 16.8398 39.7197L16.84 39.72Z" fill="#E4E4E4"/>
<path d="M7.76 13.3201H23.8C24.2799 13.3201 24.68 12.9199 24.68 12.4401C24.68 11.9602 24.2799 11.5601 23.8 11.5601H7.76C7.28009 11.5601 6.88 11.9602 6.88 12.4401C6.9199 12.9601 7.28012 13.3201 7.76 13.3201Z" fill="#E4E4E4"/>
<path d="M7.84002 8.48003H23.88C24.3599 8.48003 24.76 8.07992 24.76 7.60003C24.76 7.12015 24.3599 6.72003 23.88 6.72003H7.84002C7.36011 6.72003 6.96002 7.12015 6.96002 7.60003C6.96002 8.08022 7.35986 8.48003 7.84002 8.48003Z" fill="#E4E4E4"/>
<path d="M7.84002 18.28H17.2C17.6799 18.28 18.08 17.8799 18.08 17.4C18.08 16.9201 17.6799 16.52 17.2 16.52H7.84002C7.36011 16.52 6.96002 16.9201 6.96002 17.4C6.96002 17.8799 7.35986 18.28 7.84002 18.28Z" fill="#E4E4E4"/>
<path d="M13.6797 23.4H7.79968C7.31976 23.4 6.91968 22.9999 6.91968 22.52C6.91968 22.0401 7.31979 21.64 7.79968 21.64H13.6398C14.1197 21.64 14.5198 22.0401 14.5198 22.52C14.5198 22.9999 14.1596 23.4 13.6797 23.4Z" fill="#E4E4E4"/>
</svg>
