<svg width="801" height="384" viewBox="0 0 801 384" fill="none" xmlns="http://www.w3.org/2000/svg">
<path d="M80.491 337.102C81.9192 337.102 82.8506 338.613 82.2089 339.875L62.1725 379.482C61.8414 380.124 61.179 380.538 60.4545 380.538H47.6628C46.4416 380.538 45.5308 379.399 45.7999 378.199L54.2036 339.999C55.0522 336.129 54.6589 332.094 53.0651 328.473C40.5838 299.957 -14.5163 170.83 5.93408 161.291C28.9304 150.551 64.7185 167.933 71.8803 183.785C79.0421 199.636 82.6229 216.997 83.1197 220.577C83.6372 224.157 53.9759 234.877 51.4299 233.345C49.0703 231.938 40.6873 164.353 23.321 162.822C5.93407 161.291 4.91983 164.871 20.2576 167.933C35.5954 170.996 49.4014 264.013 56.5425 276.284C63.7042 288.555 64.7185 297.247 159.809 297.247C254.899 297.247 256.43 295.715 261.522 279.864C266.614 264.013 269.698 245.616 267.649 238.477C265.6 231.317 82.6022 238.477 69.3136 238.995C56.025 239.512 90.2815 222.647 100.486 222.129C110.711 221.612 225.196 221.24 227.763 218.549C237.47 208.327 241.651 166.94 231.343 151.089C210.376 118.89 162.768 132.796 155.172 127.581C146.996 121.953 139.834 101.528 126.028 101.011C121.412 100.845 145.444 122.987 155.172 122.987C163.348 122.987 177.672 101.528 174.587 99.9969C171.524 98.4656 141.366 144.964 132.155 144.964C122.944 144.964 144.181 130.044 152.088 131.161C159.25 132.175 172.083 145.398 169.972 147.509C165.376 152.103 157.697 135.755 162.81 125.533C167.922 115.31 260.466 103.225 230.288 29.4531C221.077 6.95934 86.5971 5.30386 77.4482 33.033C44.2268 133.706 87.1559 179.708 85.1068 191.462C83.0576 203.216 69.2515 161.311 52.382 156.2C35.5125 151.089 44.9512 32.0811 77.4275 13.6226C103.487 -1.19386 213.915 -2.22854 232.316 12.0913C255.996 30.5084 278.454 141.86 262.474 168.471C248.668 191.462 237.429 213.438 237.946 222.129C238.464 230.821 258.935 180.205 269.119 173.583C279.344 166.94 303.416 152.682 318.713 162.843C335.334 173.893 323.825 153.138 299.794 167.954C275.763 182.771 267.587 232.352 270.154 232.352C272.72 232.352 295.592 157.173 322.087 170.437C340.902 179.853 275.659 330.294 268.622 332.508C256.348 336.378 95.3319 333.522 95.3319 336.605C95.3319 339.627 214.867 341.013 234.779 341.179C236.415 341.199 237.946 342.089 238.754 343.517L258.542 378.116C259.411 379.627 261.005 380.558 262.743 380.558H270.609C272.244 380.558 273.465 379.068 273.176 377.475L267.028 345.007C266.8 343.827 267.711 342.731 268.912 342.731L341.481 342.979L525.535 343.165C528.267 343.165 530.15 340.434 529.178 337.868C520.318 314.753 485.027 221.343 470.786 164.064C454.434 98.3207 547.558 133.872 508.541 134.803C469.524 135.755 461.058 147.468 459.775 161.539C458.202 178.839 450.688 382.979 434.295 382.979C423.593 382.979 461.658 144.86 451.288 145.812C440.918 146.764 388.24 371.95 395.277 372.591C405.668 373.543 438.062 179.149 443.091 150.53C448.121 121.911 372.302 120.028 387.412 110.261C402.522 100.514 418.874 77.2962 425.787 61.5072C430.196 51.4502 484.386 50.4362 488.091 61.5072C493.762 78.4964 534.021 138.88 533.09 127.561C532.137 116.241 383.645 114.979 381.761 123.153C380.83 127.209 402.688 131.099 424.98 133.996C453.255 137.68 474.036 156.821 483.082 183.847C483.082 183.847 531.455 318.995 546.316 364.707C550.27 376.875 536.96 376.295 534.166 357.464C532.862 348.69 540.955 347.883 545.364 348.069H800" stroke="white" stroke-opacity="0.2" stroke-width="2" stroke-miterlimit="10" stroke-linecap="round" stroke-linejoin="round"/>
</svg>
