<svg width="40" height="40" viewBox="0 0 40 40" fill="none" xmlns="http://www.w3.org/2000/svg">
<path d="M38.1243 17.3764L35.9566 12.7213C35.8182 12.4244 35.5677 12.1948 35.2599 12.0826C34.9524 11.9707 34.6129 11.9855 34.316 12.1239L29.6603 14.2955C29.3634 14.4336 29.1338 14.6839 29.0216 14.9914C28.9094 15.2988 28.9242 15.6384 29.0626 15.935C29.2007 16.2316 29.4513 16.4612 29.7588 16.5731L31.4097 17.1744L29.826 21.5257C29.7001 21.5564 29.5765 21.5949 29.4554 21.6409C29.1061 20.8953 28.4574 20.3326 27.6697 20.0926L22.2227 18.4674V18.4671C21.8541 18.3588 21.6016 18.0198 21.6033 17.6359V17.0639C23.441 16.3588 24.819 14.8016 25.295 12.8914C26.023 12.9729 26.7415 12.6741 27.1971 12.1007C27.6525 11.5273 27.7814 10.76 27.5378 10.0692C27.2942 9.37866 26.7124 8.86194 25.9981 8.70123L26.002 8.67667C26.3148 6.7456 25.7649 4.77489 24.497 3.28525C23.2295 1.7956 21.372 0.937317 19.4158 0.937317C17.4599 0.937317 15.6022 1.7956 14.3346 3.28525C13.067 4.77489 12.5168 6.7456 12.8296 8.67667L12.8355 8.71211C12.1541 8.87868 11.5983 9.36975 11.3491 10.0255C11.0999 10.6812 11.1892 11.4175 11.588 11.9945C11.9869 12.5715 12.644 12.9155 13.3455 12.9141C13.4105 12.9141 13.473 12.9002 13.5371 12.8946C14.0137 14.8031 15.3915 16.3594 17.2283 17.0639V17.6359C17.2297 18.0198 16.9775 18.3586 16.6091 18.4671L11.1605 20.0924L11.1608 20.0927C10.5645 20.269 10.0413 20.6343 9.67056 21.1334C9.29947 21.6326 9.10053 22.2386 9.10332 22.8606V29.2576C9.10332 29.2618 9.10555 29.2654 9.10583 29.2696H9.10555C9.00399 29.5721 8.95014 29.8888 8.94567 30.208C8.94567 30.2529 8.95711 30.2948 8.95907 30.3394L6.00485 33.0291C5.64771 32.8879 5.26742 32.8143 4.88321 32.8123C4.07628 32.8084 3.29921 33.117 2.71442 33.6731C2.12988 34.2292 1.78307 34.9901 1.7465 35.7962C1.70994 36.6022 1.98673 37.3913 2.51878 37.9979C3.05087 38.6045 3.797 38.982 4.60107 39.0509C5.40492 39.1198 6.20457 38.8754 6.83207 38.3681C7.45986 37.8609 7.86692 37.1307 7.9685 36.3302L11.4177 33.2618H11.4174C12.0009 33.3894 12.6083 33.3447 13.1669 33.1338C13.7252 32.9226 14.2101 32.554 14.5634 32.0727H19.7336H19.7333C20.223 32.7354 20.9554 33.1762 21.7702 33.2987C22.5849 33.4209 23.4147 33.2144 24.0771 32.725C24.7397 32.2354 25.1803 31.5024 25.3025 30.6879L30.1412 27.6061C30.3045 27.636 30.4696 27.6527 30.6354 27.6561C31.4641 27.6552 32.2582 27.3254 32.8441 26.7398C33.43 26.1538 33.7595 25.3595 33.7604 24.5311C33.7579 23.966 33.6002 23.4125 33.305 22.9306L34.9334 18.4568L36.5829 19.0576C36.8907 19.1692 37.23 19.1544 37.5266 19.016C37.8232 18.8779 38.0525 18.6276 38.1647 18.3201C38.2769 18.0126 38.2621 17.6731 38.1242 17.3765L38.1243 17.3764ZM26.4086 10.7791C26.4081 11.2679 26.0116 11.6639 25.5231 11.6641L25.5178 11.663L25.7965 9.9426V9.94288C26.157 10.0643 26.402 10.3991 26.4087 10.7791L26.4086 10.7791ZM15.2865 4.09522C16.2723 2.93672 17.6994 2.24558 19.2198 2.19065C20.7398 2.13568 22.2133 2.7219 23.2803 3.80615C24.3473 4.89043 24.9096 6.37315 24.83 7.89208C24.6835 7.76428 24.5367 7.63733 24.395 7.49559C23.9427 7.04609 23.5456 6.54445 23.2125 6.00088C23.0498 5.73135 22.7117 5.62532 22.4243 5.75367C21.4731 6.15657 20.4486 6.35746 19.4154 6.34379C18.3827 6.35746 17.3581 6.15657 16.407 5.75367C16.1196 5.62532 15.7817 5.73135 15.6188 6.0006C15.2856 6.54441 14.8886 7.0461 14.4363 7.4956C14.2945 7.63734 14.1478 7.76513 14.0013 7.89292C13.9279 6.50928 14.3877 5.14992 15.2864 4.09521L15.2865 4.09522ZM12.4601 10.7791C12.4665 10.4138 12.6955 10.0893 13.0376 9.96101L13.313 11.6611C12.8378 11.6441 12.4612 11.2545 12.4601 10.7791H12.4601ZM14.6629 12.1744L14.2017 9.32765C15.0549 8.71353 15.7974 7.95851 16.3973 7.09522C18.3566 7.74952 20.4751 7.74952 22.4341 7.09522C23.034 7.95851 23.7765 8.71293 24.63 9.32679L24.1685 12.1744C23.9227 13.692 22.9671 15.0009 21.5965 15.697C20.2259 16.3934 18.6051 16.3934 17.2346 15.697C15.8643 15.0009 14.9085 13.692 14.6626 12.1744H14.6629ZM18.4782 17.6359V17.3929C19.099 17.4948 19.7321 17.4948 20.3532 17.3929V17.6359C20.3512 18.084 20.493 18.5213 20.7572 18.8832C21.0214 19.2453 21.3948 19.5134 21.8219 19.6482C20.2742 20.2526 18.5555 20.2528 17.0075 19.6491C17.4352 19.5143 17.8089 19.2462 18.0734 18.884C18.3379 18.5218 18.4799 18.0843 18.4782 17.6359L18.4782 17.6359ZM11.5195 21.2899L15.3989 20.1326C16.1578 20.8271 17.8035 21.3516 19.4153 21.3516C21.0278 21.3516 22.6728 20.827 23.4318 20.1323L27.3104 21.2896L27.3107 21.2899C27.8255 21.4515 28.2275 21.8558 28.3863 22.3711C27.8252 22.9504 27.5113 23.7246 27.5102 24.531C27.5102 24.6309 27.5306 24.7252 27.5398 24.8226L23.4089 27.3189C22.7744 27.0555 22.0702 27.0112 21.4075 27.1928C20.7448 27.3747 20.1617 27.7721 19.7504 28.3225H14.5459C14.0716 27.6892 13.3726 27.2617 12.5931 27.1275C11.8132 26.9936 11.0116 27.1632 10.3531 27.6019V22.8605C10.3545 22.5087 10.4686 22.1663 10.6785 21.8836C10.8883 21.6013 11.1829 21.3931 11.5194 21.2899L11.5195 21.2899ZM4.88305 37.8121C4.38585 37.8121 3.90898 37.6145 3.5572 37.263C3.20563 36.9114 3.00809 36.4343 3.00809 35.9371C3.00809 35.44 3.20563 34.9628 3.5572 34.6113C3.90904 34.2597 4.38591 34.0621 4.88305 34.0621C5.38026 34.0621 5.85741 34.2597 6.20891 34.6113C6.56047 34.9628 6.75802 35.44 6.75802 35.9371C6.75746 36.4343 6.55992 36.9109 6.20835 37.2625C5.85679 37.6138 5.38021 37.8116 4.883 37.8121L4.88305 37.8121ZM7.79098 34.8149C7.63612 34.4083 7.39812 34.0384 7.09232 33.7289L9.33532 31.6868L9.33505 31.6871C9.54515 32.0757 9.83532 32.4156 10.1863 32.684L7.79098 34.8149ZM12.0706 32.0827C11.5733 32.0827 11.0965 31.8852 10.7447 31.5336C10.3931 31.1818 10.1956 30.7049 10.1956 30.2078C10.1956 29.7105 10.3931 29.2334 10.7447 28.8819C11.0965 28.5303 11.5734 28.3328 12.0706 28.3328C12.5678 28.3328 13.0449 28.5303 13.3964 28.8819C13.748 29.2335 13.9455 29.7106 13.9455 30.2078C13.945 30.705 13.7474 31.1815 13.3959 31.5331C13.0443 31.8844 12.5677 32.0822 12.0705 32.0828L12.0706 32.0827ZM15.1333 30.8224C15.2176 30.4097 15.2162 29.9845 15.13 29.5724H19.1666C19.0803 29.9845 19.0792 30.4097 19.1632 30.8224H15.1333ZM22.226 32.0827C21.7288 32.0827 21.2516 31.8852 20.9001 31.5336C20.5486 31.1818 20.351 30.7049 20.351 30.2078C20.351 29.7105 20.5486 29.2334 20.9001 28.8819C21.2517 28.5303 21.7288 28.3328 22.226 28.3328C22.7232 28.3328 23.2001 28.5303 23.5518 28.8819C23.9034 29.2335 24.1009 29.7106 24.1009 30.2078C24.1004 30.705 23.9026 31.1815 23.551 31.5331C23.1997 31.8844 22.7231 32.0822 22.2259 32.0828L22.226 32.0827ZM25.1928 29.2749C25.0577 28.8411 24.8289 28.4418 24.5226 28.1056L27.9221 26.0511C28.1308 26.4234 28.4132 26.749 28.7522 27.0082L25.1928 29.2749ZM30.6353 26.4058C30.1381 26.4058 29.6612 26.2082 29.3094 25.8567C28.9578 25.5048 28.7603 25.028 28.7603 24.5308C28.7603 24.0337 28.9578 23.5565 29.3094 23.205C29.6613 22.8534 30.1381 22.6559 30.6353 22.6559C31.1325 22.6559 31.6096 22.8534 31.9611 23.205C32.3127 23.5565 32.5102 24.0337 32.5102 24.5308C32.5097 25.028 32.3121 25.5046 31.9606 25.8562C31.609 26.2075 31.1324 26.4053 30.6352 26.4058L30.6353 26.4058ZM34.7734 17.0686C34.6177 17.0126 34.4464 17.0201 34.296 17.0893C34.1456 17.1593 34.0293 17.2863 33.9726 17.442L32.3429 21.9194H32.3432C31.9905 21.6889 31.5943 21.533 31.1794 21.4607L32.798 17.0143C32.8546 16.8586 32.8471 16.6867 32.7771 16.5366C32.707 16.3865 32.5804 16.2701 32.4247 16.2135L30.1881 15.4281L34.8232 13.2483L37.0107 17.8828L34.7734 17.0686ZM19.4156 14.9682C18.7529 14.9702 18.1031 14.7855 17.5406 14.4356C17.2479 14.2525 17.1591 13.8669 17.3422 13.5742C17.5252 13.2818 17.9108 13.1928 18.2032 13.3758C18.5696 13.5957 18.9884 13.7118 19.4156 13.7118C19.8428 13.7118 20.2619 13.5957 20.628 13.3758C20.7686 13.2879 20.9382 13.2592 21.0998 13.2963C21.2616 13.3334 21.4017 13.4333 21.4898 13.5739C21.5777 13.7146 21.6062 13.8842 21.5688 14.046C21.5314 14.2076 21.4315 14.3477 21.2909 14.4355C20.7281 14.7854 20.0783 14.9701 19.4156 14.9682L19.4156 14.9682Z" fill="#E4E4E4"/>
</svg>
