<svg width="40" height="40" viewBox="0 0 40 40" fill="none" xmlns="http://www.w3.org/2000/svg">
<path d="M7.12483 2.36554C6.73169 2.40265 6.39797 2.77095 6.39997 3.16633V33.1956C6.39997 33.615 6.78111 33.9964 7.1999 33.9964H17.437C17.8598 34.0025 18.2484 33.6186 18.2484 33.1956C18.2484 32.7726 17.8597 32.389 17.437 32.3948H7.9999V3.96697H31.9999V32.3948H31.6123C31.1896 32.3887 30.801 32.7726 30.801 33.1956C30.801 33.6186 31.1897 34.0023 31.6123 33.9964H32.7998C33.2187 33.9964 33.5998 33.615 33.5998 33.1956V3.16633C33.5998 2.74696 33.2186 2.36554 32.7998 2.36554H7.12484H7.12483ZM11.1248 5.96904C10.706 5.98857 10.3425 6.38813 10.3623 6.80747C10.3818 7.22683 10.7811 7.5904 11.1999 7.57061H28.7999C29.2226 7.57647 29.6113 7.19282 29.6113 6.76983C29.6113 6.34683 29.2226 5.96318 28.7999 5.96904H11.1249H11.1248ZM11.1248 9.97297C10.706 9.9925 10.3425 10.3921 10.3623 10.8114C10.3818 11.2308 10.7811 11.5943 11.1999 11.5745H25.1999C25.6226 11.5807 26.0113 11.1967 26.0113 10.7738C26.0113 10.3508 25.6226 9.96711 25.1999 9.97297H11.1249H11.1248ZM11.1248 13.9769C10.706 13.9964 10.3425 14.396 10.3623 14.8153C10.3818 15.2347 10.7811 15.5983 11.1999 15.5785H28.4128C28.8355 15.5846 29.2241 15.2007 29.2241 14.7777C29.2241 14.3547 28.8354 13.971 28.4128 13.9769H11.1256H11.1248ZM11.1248 17.9808C10.706 18.0004 10.3425 18.3999 10.3623 18.8193C10.3818 19.2386 10.7811 19.6022 11.1999 19.5824H18.7999C19.2226 19.5885 19.6113 19.2046 19.6113 18.7816C19.6113 18.3586 19.2226 17.975 18.7999 17.9808H11.1249H11.1248ZM24.3998 18.7816C21.0957 18.7816 18.3998 21.48 18.3998 24.7875C18.3998 28.095 21.0957 30.7933 24.3998 30.7933C27.704 30.7933 30.3998 28.095 30.3998 24.7875C30.3998 21.48 27.704 18.7816 24.3998 18.7816ZM24.3998 20.3832C26.8393 20.3832 28.8 22.3455 28.8 24.7875C28.8 27.2294 26.8396 29.1918 24.3998 29.1918C21.9604 29.1918 19.9997 27.2294 19.9997 24.7875C19.9997 22.3455 21.96 20.3832 24.3998 20.3832ZM26.3248 22.773C26.1236 22.7939 25.9316 22.8943 25.7996 23.0484L23.5622 25.6008L22.5622 24.6122C22.2665 24.3078 21.7179 24.3056 21.4196 24.6075C21.1214 24.9094 21.1297 25.4585 21.4372 25.7509L23.0371 27.3525C23.3459 27.6664 23.9241 27.648 24.212 27.3148L26.9997 24.1119C27.2187 23.874 27.2711 23.4973 27.1255 23.2085C26.9798 22.9197 26.6459 22.7381 26.3247 22.7733L26.3248 22.773ZM20.3122 30.7808C19.9191 30.8241 19.5912 31.1982 19.5996 31.5942V36.7993C19.6079 37.374 20.3747 37.7733 20.8496 37.4499L24.3995 34.9976L27.9494 37.4499C28.4243 37.7733 29.1911 37.374 29.1994 36.7993V31.5942C29.2053 31.1712 28.8222 30.782 28.3995 30.782C27.9768 30.782 27.5934 31.1712 27.5996 31.5942V35.2728L24.8496 33.3584C24.5862 33.179 24.2131 33.179 23.9494 33.3584L21.1994 35.2728V31.5942C21.2092 31.1399 20.763 30.7312 20.3119 30.7808H20.3122Z" fill="#E4E4E4"/>
</svg>
