<svg width="47" height="47" viewBox="0 0 47 47" fill="none" xmlns="http://www.w3.org/2000/svg">
<path d="M23.4937 0.386948C21.7986 0.281981 13.818 1.53531 15.0243 4.06705C15.0993 4.20175 15.2 4.32033 15.3209 4.41602C15.4417 4.5117 15.5803 4.58261 15.7286 4.62466C15.8769 4.66672 16.032 4.67911 16.1851 4.66112C16.3382 4.64313 16.4862 4.59511 16.6207 4.51981C25.7058 -0.836619 37.8569 6.36065 37.6266 16.862V30.1254C37.6399 33.4939 36.4436 36.7553 34.2552 39.3162C32.0669 41.8771 29.0321 43.5675 25.7027 44.0797C17.3085 45.5242 9.20414 38.6763 9.37334 30.1254V16.862C9.37034 14.9397 9.76338 13.0374 10.528 11.2737C10.5898 11.1321 10.6232 10.9796 10.6261 10.8251C10.6291 10.6705 10.6015 10.5169 10.5451 10.3731C10.4886 10.2292 10.4044 10.0978 10.2971 9.98649C10.1899 9.87517 10.0618 9.78607 9.9201 9.72428C7.54504 8.81091 7.05624 15.3204 7.02334 16.8604V30.1238C7.00697 34.0527 8.40176 37.8569 10.9539 40.8441C13.506 43.8312 17.0458 45.8028 20.9291 46.3999C30.8132 48.0528 40.0549 40.1348 39.9766 30.1254V16.862C39.975 7.76125 32.5945 0.383814 23.4937 0.386948Z" fill="white"/>
<path d="M23.5047 10.2084C20.6675 10.2507 20.6597 14.4744 23.5 14.523C26.331 14.4744 26.3388 10.2632 23.5047 10.2084Z" fill="white"/>
</svg>
