<svg width="24" height="25" viewBox="0 0 24 25" fill="none" xmlns="http://www.w3.org/2000/svg">
<path d="M13.4508 13.8681L13.8406 13.5312C14.1252 13.2636 14.4637 13.0604 14.8336 12.935C15.2034 12.8095 15.5958 12.765 15.9843 12.8045C16.2889 12.8395 16.587 12.917 16.87 13.0349C17.4487 13.2224 18.0411 13.3647 18.6417 13.4604C19.0692 13.5111 19.4781 13.6652 19.833 13.9091C20.1879 14.153 20.4783 14.4795 20.6791 14.8606C20.9068 15.2911 21.0167 15.7743 20.9979 16.2609C20.9979 17.0408 20.9979 17.803 20.9979 18.5829C20.9991 19.0591 20.8734 19.5269 20.6336 19.9382C20.3938 20.3495 20.0486 20.6893 19.6338 20.9226C19.125 21.1983 18.5415 21.304 17.9684 21.224C16.7624 21.0949 15.5742 20.8333 14.4252 20.4441C13.0648 19.9806 11.7675 19.3494 10.5631 18.5652C9.51793 17.8939 8.55471 17.1027 7.69308 16.2078C6.56195 15.0369 5.6017 13.7122 4.84077 12.2727C4.1147 10.8874 3.58408 9.40802 3.26402 7.87688C3.15773 7.34512 3.06915 6.79565 3.016 6.26389C2.97239 5.86933 3.01822 5.47001 3.15011 5.09563C3.282 4.72124 3.49655 4.38141 3.7778 4.10141C4.01839 3.84159 4.30846 3.6325 4.63094 3.48639C4.95343 3.34029 5.30183 3.26012 5.65571 3.2506C6.0809 3.2506 6.5238 3.2506 6.96671 3.2506C7.40962 3.2506 7.74623 3.2506 8.13598 3.2506C8.49972 3.24277 8.86106 3.31129 9.19671 3.45173C9.53233 3.59217 9.83486 3.8014 10.0848 4.06596C10.5295 4.49268 10.8062 5.06516 10.8643 5.67895C10.9595 6.28345 11.1138 6.87712 11.3249 7.45148C11.5554 7.95496 11.6264 8.517 11.5281 9.06202C11.43 9.60705 11.1674 10.1089 10.7757 10.5003L10.51 10.7484C10.51 10.7484 10.51 10.7484 10.51 10.8547C10.8468 11.3484 11.22 11.8164 11.6261 12.255C12.1633 12.8273 12.7569 13.344 13.3977 13.7971L13.4508 13.8681ZM18.6594 17.3067V16.1191C18.6642 16.0688 18.6588 16.018 18.6434 15.9698C18.628 15.9217 18.6029 15.8772 18.5699 15.8391C18.5367 15.8009 18.4961 15.7699 18.4506 15.748C18.405 15.726 18.3555 15.7136 18.305 15.7114C17.4783 15.5904 16.6653 15.3885 15.878 15.1088C15.8013 15.0743 15.7161 15.0643 15.6336 15.0801C15.5511 15.096 15.4757 15.1369 15.4173 15.1974L14.4606 16.1546C14.2788 16.3508 14.0344 16.4775 13.7693 16.5132C13.5042 16.5488 13.2351 16.4909 13.008 16.3495C11.8705 15.7046 10.8323 14.8987 9.92537 13.9566C9.13084 13.1281 8.4407 12.2055 7.87024 11.2092C7.74677 10.9947 7.69561 10.7462 7.72433 10.5004C7.75304 10.2546 7.86011 10.0245 8.02968 9.84442L9.00407 8.83404C9.07127 8.77661 9.11798 8.69886 9.13715 8.61253C9.15632 8.5262 9.14692 8.43599 9.11037 8.35546C8.83082 7.57371 8.62907 6.76624 8.50803 5.94484C8.50575 5.89593 8.49386 5.84796 8.47303 5.80367C8.4522 5.75938 8.42285 5.71962 8.38664 5.68669C8.35044 5.65377 8.3081 5.6283 8.26204 5.61176C8.216 5.59523 8.16713 5.58795 8.11826 5.59033H5.762C5.70427 5.58937 5.64706 5.60125 5.59447 5.62512C5.54189 5.64898 5.49527 5.68424 5.45797 5.72834C5.42067 5.77244 5.39364 5.82428 5.37882 5.88012C5.36399 5.93596 5.36174 5.99438 5.37225 6.05118C5.36363 6.14553 5.36363 6.24045 5.37225 6.3348C5.49412 7.29413 5.71377 8.23849 6.02776 9.1531C6.79213 11.3763 8.0804 13.3827 9.78356 15.0024C10.8953 16.0434 12.1625 16.9045 13.5394 17.5548C14.5962 18.0747 15.7157 18.456 16.87 18.6892L18.2164 18.8488C18.2735 18.8568 18.3315 18.852 18.3864 18.8348C18.4413 18.8177 18.4918 18.7885 18.5341 18.7495C18.5764 18.7106 18.6096 18.6627 18.6313 18.6094C18.6529 18.556 18.6626 18.4986 18.6594 18.4411V17.3067Z" fill="#00A7DA"/>
</svg>
