<svg width="15" height="15" viewBox="0 0 15 15" fill="none" xmlns="http://www.w3.org/2000/svg">
<g id="Frame">
<path id="Vector" d="M9.1284 8.75849L9.4316 8.49649C9.6529 8.28839 9.9162 8.13029 10.2039 8.03279C10.4915 7.93519 10.7967 7.90059 11.0989 7.93129C11.3358 7.95849 11.5677 8.01879 11.7878 8.11049C12.2379 8.25629 12.6986 8.36699 13.1658 8.44139C13.4983 8.48089 13.8163 8.60069 14.0923 8.79039C14.3684 8.98009 14.5942 9.23409 14.7504 9.53049C14.9275 9.86529 15.013 10.2411 14.9984 10.6196C14.9984 11.2262 14.9984 11.819 14.9984 12.4256C14.9993 12.796 14.9015 13.1598 14.715 13.4797C14.5285 13.7996 14.26 14.0639 13.9374 14.2454C13.5417 14.4598 13.0878 14.542 12.6421 14.4798C11.7041 14.3794 10.7799 14.1759 9.8863 13.8732C8.8282 13.5127 7.8192 13.0218 6.8824 12.4118C6.0695 11.8897 5.32033 11.2743 4.65017 10.5783C3.7704 9.66759 3.02354 8.63729 2.43171 7.51769C1.86699 6.44019 1.45428 5.28957 1.20535 4.09868C1.12268 3.6851 1.05378 3.25773 1.01244 2.84414C0.978522 2.53726 1.01417 2.22668 1.11675 1.93549C1.21933 1.6443 1.3862 1.37999 1.60495 1.16221C1.79208 0.960128 2.01769 0.797498 2.26851 0.683858C2.51933 0.570229 2.79031 0.507869 3.06555 0.500469C3.39625 0.500469 3.74073 0.500469 4.08522 0.500469C4.4297 0.500469 4.69151 0.500469 4.99465 0.500469C5.27756 0.494379 5.5586 0.547669 5.81966 0.656899C6.0807 0.766128 6.316 0.928869 6.5104 1.13464C6.8563 1.46653 7.0715 1.91179 7.1167 2.38919C7.1907 2.85935 7.3107 3.3211 7.4749 3.76782C7.6542 4.15942 7.7094 4.59655 7.633 5.02046C7.5567 5.44437 7.3524 5.83469 7.0478 6.13909L6.8411 6.33209C6.8411 6.33209 6.8411 6.33209 6.8411 6.41479C7.1031 6.79879 7.3933 7.16279 7.7092 7.50389C8.127 7.94899 8.5887 8.35089 9.0871 8.70329L9.1284 8.75849ZM13.1795 11.433V10.5093C13.1833 10.4702 13.1791 10.4307 13.1671 10.3932C13.1551 10.3558 13.1356 10.3212 13.1099 10.2915C13.0841 10.2618 13.0525 10.2377 13.0171 10.2207C12.9817 10.2036 12.9432 10.1939 12.9039 10.1922C12.2609 10.0981 11.6286 9.94109 11.0162 9.72349C10.9566 9.69669 10.8903 9.68889 10.8261 9.70119C10.762 9.71359 10.7033 9.74539 10.6579 9.79239L9.9138 10.5369C9.7724 10.6895 9.5823 10.7881 9.3761 10.8158C9.1699 10.8435 8.9606 10.7985 8.784 10.6885C7.8993 10.1869 7.0918 9.56009 6.3864 8.82739C5.76843 8.18299 5.23165 7.46539 4.78796 6.69049C4.69193 6.52369 4.65214 6.33039 4.67448 6.13919C4.69681 5.94799 4.78008 5.76909 4.91197 5.62899L5.66983 4.84314C5.7221 4.79847 5.75843 4.738 5.77334 4.67085C5.78825 4.60371 5.78094 4.53354 5.75251 4.47091C5.53508 3.86288 5.37816 3.23486 5.28402 2.59599C5.28225 2.55795 5.273 2.52064 5.2568 2.48619C5.2406 2.45174 5.21777 2.42082 5.18961 2.39521C5.16145 2.3696 5.12852 2.34979 5.0927 2.33693C5.05689 2.32407 5.01888 2.31841 4.98087 2.32026H3.14822C3.10332 2.31951 3.05882 2.32875 3.01792 2.34732C2.97702 2.36588 2.94076 2.3933 2.91175 2.4276C2.88274 2.4619 2.86172 2.50222 2.85019 2.54565C2.83866 2.58908 2.83691 2.63452 2.84508 2.6787C2.83838 2.75208 2.83838 2.82591 2.84508 2.89929C2.93987 3.64544 3.11071 4.37993 3.35492 5.0913C3.94943 6.82049 4.95142 8.38099 6.2761 9.64079C7.1408 10.4504 8.1264 11.1202 9.1973 11.626C10.0193 12.0303 10.89 12.3269 11.7878 12.5083L12.835 12.6324C12.8794 12.6386 12.9245 12.6349 12.9672 12.6215C13.0099 12.6082 13.0492 12.5855 13.0821 12.5552C13.115 12.5249 13.1408 12.4877 13.1577 12.4462C13.1745 12.4047 13.182 12.36 13.1795 12.3153V11.433Z" fill="#00A7DA"/>
</g>
</svg>
