<svg width="904" height="813" viewBox="0 0 904 813" fill="none" xmlns="http://www.w3.org/2000/svg">
<path d="M751.648 743.202L677.287 674.48L602.926 743.202L677.287 811.924L751.648 743.202Z" stroke="#B38339" stroke-miterlimit="10"/>
<path d="M677.207 658.437L602.974 727.244L751.66 727.244L677.207 658.437Z" stroke="#B38339" stroke-miterlimit="10"/>
<path d="M751.649 630.905L677.288 562.183L602.928 630.905L677.288 699.627L751.649 630.905Z" stroke="#B38339" stroke-miterlimit="10"/>
<path d="M677.207 715.402L602.974 646.799L751.66 646.799L677.207 715.402Z" stroke="#B38339" stroke-miterlimit="10"/>
<path d="M677.207 546.14L602.974 614.947L751.66 614.947L677.207 546.14Z" stroke="#B38339" stroke-miterlimit="10"/>
<path d="M730.561 630.761L677.29 581.53L624.019 630.761L677.29 679.992L730.561 630.761Z" stroke="#B38339" stroke-miterlimit="10"/>
<path d="M751.65 518.609L677.289 449.888L602.928 518.609L677.289 587.331L751.65 518.609Z" stroke="#B38339" stroke-miterlimit="10"/>
<path d="M677.207 603.105L602.974 534.502L751.66 534.502L677.207 603.105Z" stroke="#B38339" stroke-miterlimit="10"/>
<path d="M901.88 743.202L827.519 674.481L753.159 743.202L827.519 811.924L901.88 743.202Z" stroke="#B38339" stroke-miterlimit="10"/>
<path d="M827.439 658.437L753.206 727.244L901.893 727.244L827.439 658.437Z" stroke="#B38339" stroke-miterlimit="10"/>
<path d="M901.881 630.905L827.52 562.184L753.16 630.905L827.52 699.627L901.881 630.905Z" stroke="#B38339" stroke-miterlimit="10"/>
<path d="M827.439 715.402L753.206 646.799L901.893 646.799L827.439 715.402Z" stroke="#B38339" stroke-miterlimit="10"/>
<path d="M827.439 546.14L753.206 614.947L901.893 614.947L827.439 546.14Z" stroke="#B38339" stroke-miterlimit="10"/>
<path d="M880.792 630.762L827.521 581.531L774.25 630.762L827.521 679.993L880.792 630.762Z" stroke="#B38339" stroke-miterlimit="10"/>
<path d="M901.882 518.61L827.522 449.888L753.161 518.61L827.522 587.332L901.882 518.61Z" stroke="#B38339" stroke-miterlimit="10"/>
<path d="M827.439 603.105L753.206 534.502L901.893 534.502L827.439 603.105Z" stroke="#B38339" stroke-miterlimit="10"/>
<path d="M601.415 743.201L527.055 674.479L452.694 743.201L527.055 811.922L601.415 743.201Z" stroke="#B38339" stroke-miterlimit="10"/>
<path d="M526.973 658.437L452.74 727.244L601.426 727.244L526.973 658.437Z" stroke="#B38339" stroke-miterlimit="10"/>
<path d="M601.417 630.905L527.056 562.183L452.695 630.905L527.056 699.626L601.417 630.905Z" stroke="#B38339" stroke-miterlimit="10"/>
<path d="M526.973 715.402L452.74 646.799L601.426 646.799L526.973 715.402Z" stroke="#B38339" stroke-miterlimit="10"/>
<path d="M526.973 546.14L452.74 614.947L601.426 614.947L526.973 546.14Z" stroke="#B38339" stroke-miterlimit="10"/>
<path d="M580.328 630.76L527.057 581.529L473.786 630.76L527.057 679.991L580.328 630.76Z" stroke="#B38339" stroke-miterlimit="10"/>
<path d="M601.418 518.608L527.057 449.887L452.696 518.608L527.057 587.33L601.418 518.608Z" stroke="#B38339" stroke-miterlimit="10"/>
<path d="M526.973 603.105L452.74 534.502L601.426 534.502L526.973 603.105Z" stroke="#B38339" stroke-miterlimit="10"/>
<path d="M751.649 743.202L677.288 674.48L602.927 743.202L677.288 811.923L751.649 743.202Z" stroke="#B38339" stroke-miterlimit="10"/>
<path d="M677.207 658.437L602.974 727.244L751.66 727.244L677.207 658.437Z" stroke="#B38339" stroke-miterlimit="10"/>
<path d="M751.65 630.905L677.29 562.184L602.929 630.905L677.29 699.627L751.65 630.905Z" stroke="#B38339" stroke-miterlimit="10"/>
<path d="M677.207 715.402L602.974 646.799L751.66 646.799L677.207 715.402Z" stroke="#B38339" stroke-miterlimit="10"/>
<path d="M677.207 546.14L602.974 614.947L751.66 614.947L677.207 546.14Z" stroke="#B38339" stroke-miterlimit="10"/>
<path d="M730.561 630.761L677.29 581.53L624.019 630.761L677.29 679.993L730.561 630.761Z" stroke="#B38339" stroke-miterlimit="10"/>
<path d="M751.651 518.609L677.29 449.887L602.929 518.609L677.29 587.331L751.651 518.609Z" stroke="#B38339" stroke-miterlimit="10"/>
<path d="M677.207 603.105L602.974 534.502L751.66 534.502L677.207 603.105Z" stroke="#B38339" stroke-miterlimit="10"/>
<path d="M451.183 743.199L376.822 674.478L302.462 743.199L376.822 811.921L451.183 743.199Z" stroke="#B38339" stroke-miterlimit="10"/>
<path d="M376.74 658.436L302.507 727.244L451.193 727.244L376.74 658.436Z" stroke="#B38339" stroke-miterlimit="10"/>
<path d="M451.184 630.903L376.823 562.182L302.463 630.903L376.823 699.625L451.184 630.903Z" stroke="#B38339" stroke-miterlimit="10"/>
<path d="M376.74 715.402L302.507 646.799L451.193 646.799L376.74 715.402Z" stroke="#B38339" stroke-miterlimit="10"/>
<path d="M376.74 546.14L302.507 614.947L451.193 614.947L376.74 546.14Z" stroke="#B38339" stroke-miterlimit="10"/>
<path d="M430.096 630.759L376.825 581.527L323.554 630.759L376.825 679.99L430.096 630.759Z" stroke="#B38339" stroke-miterlimit="10"/>
<path d="M451.186 518.607L376.825 449.885L302.464 518.607L376.825 587.328L451.186 518.607Z" stroke="#B38339" stroke-miterlimit="10"/>
<path d="M376.74 603.105L302.507 534.501L451.194 534.501L376.74 603.105Z" stroke="#B38339" stroke-miterlimit="10"/>
<path d="M601.416 743.2L527.056 674.479L452.695 743.2L527.056 811.922L601.416 743.2Z" stroke="#B38339" stroke-miterlimit="10"/>
<path d="M526.972 658.436L452.74 727.244L601.426 727.244L526.972 658.436Z" stroke="#B38339" stroke-miterlimit="10"/>
<path d="M601.417 630.904L527.057 562.183L452.696 630.904L527.057 699.626L601.417 630.904Z" stroke="#B38339" stroke-miterlimit="10"/>
<path d="M526.972 715.402L452.74 646.799L601.426 646.799L526.972 715.402Z" stroke="#B38339" stroke-miterlimit="10"/>
<path d="M526.972 546.14L452.74 614.947L601.426 614.947L526.972 546.14Z" stroke="#B38339" stroke-miterlimit="10"/>
<path d="M580.328 630.76L527.057 581.528L473.786 630.76L527.057 679.991L580.328 630.76Z" stroke="#B38339" stroke-miterlimit="10"/>
<path d="M601.418 518.608L527.057 449.886L452.696 518.608L527.057 587.33L601.418 518.608Z" stroke="#B38339" stroke-miterlimit="10"/>
<path d="M526.972 603.105L452.74 534.501L601.426 534.501L526.972 603.105Z" stroke="#B38339" stroke-miterlimit="10"/>
<path d="M300.952 743.198L226.591 674.476L152.231 743.198L226.591 811.92L300.952 743.198Z" stroke="#B38339" stroke-miterlimit="10"/>
<path d="M226.508 658.436L152.275 727.243L300.961 727.243L226.508 658.436Z" stroke="#B38339" stroke-miterlimit="10"/>
<path d="M300.953 630.902L226.593 562.181L152.232 630.902L226.593 699.624L300.953 630.902Z" stroke="#B38339" stroke-miterlimit="10"/>
<path d="M226.508 715.402L152.275 646.798L300.961 646.798L226.508 715.402Z" stroke="#B38339" stroke-miterlimit="10"/>
<path d="M226.508 546.139L152.275 614.947L300.961 614.947L226.508 546.139Z" stroke="#B38339" stroke-miterlimit="10"/>
<path d="M279.865 630.758L226.594 581.526L173.323 630.758L226.594 679.989L279.865 630.758Z" stroke="#B38339" stroke-miterlimit="10"/>
<path d="M300.954 518.605L226.594 449.884L152.233 518.605L226.594 587.327L300.954 518.605Z" stroke="#B38339" stroke-miterlimit="10"/>
<path d="M226.508 603.104L152.275 534.501L300.962 534.501L226.508 603.104Z" stroke="#B38339" stroke-miterlimit="10"/>
<path d="M451.184 743.199L376.823 674.478L302.463 743.199L376.823 811.921L451.184 743.199Z" stroke="#B38339" stroke-miterlimit="10"/>
<path d="M376.74 658.436L302.507 727.243L451.193 727.243L376.74 658.436Z" stroke="#B38339" stroke-miterlimit="10"/>
<path d="M451.185 630.903L376.825 562.181L302.464 630.903L376.825 699.625L451.185 630.903Z" stroke="#B38339" stroke-miterlimit="10"/>
<path d="M376.74 715.402L302.507 646.798L451.193 646.798L376.74 715.402Z" stroke="#B38339" stroke-miterlimit="10"/>
<path d="M376.74 546.139L302.507 614.947L451.193 614.947L376.74 546.139Z" stroke="#B38339" stroke-miterlimit="10"/>
<path d="M430.096 630.758L376.825 581.527L323.554 630.758L376.825 679.99L430.096 630.758Z" stroke="#B38339" stroke-miterlimit="10"/>
<path d="M451.186 518.606L376.825 449.885L302.464 518.606L376.825 587.328L451.186 518.606Z" stroke="#B38339" stroke-miterlimit="10"/>
<path d="M376.74 603.104L302.507 534.501L451.193 534.501L376.74 603.104Z" stroke="#B38339" stroke-miterlimit="10"/>
<path d="M150.722 743.198L76.3608 674.476L2.00019 743.198L76.3609 811.919L150.722 743.198Z" stroke="#B38339" stroke-miterlimit="10"/>
<path d="M76.2759 658.437L2.04316 727.244L150.729 727.244L76.2759 658.437Z" stroke="#B38339" stroke-miterlimit="10"/>
<path d="M150.722 630.902L76.3618 562.18L2.00117 630.902L76.3618 699.623L150.722 630.902Z" stroke="#B38339" stroke-miterlimit="10"/>
<path d="M76.2759 715.402L2.04317 646.799L150.729 646.799L76.2759 715.402Z" stroke="#B38339" stroke-miterlimit="10"/>
<path d="M76.2759 546.14L2.04319 614.947L150.729 614.947L76.2759 546.14Z" stroke="#B38339" stroke-miterlimit="10"/>
<path d="M129.634 630.757L76.3633 581.526L23.0923 630.757L76.3633 679.989L129.634 630.757Z" stroke="#B38339" stroke-miterlimit="10"/>
<path d="M150.724 518.605L76.3633 449.884L2.00261 518.605L76.3633 587.327L150.724 518.605Z" stroke="#B38339" stroke-miterlimit="10"/>
<path d="M76.2759 603.106L2.04317 534.502L150.729 534.502L76.2759 603.106Z" stroke="#B38339" stroke-miterlimit="10"/>
<path d="M300.955 743.199L226.594 674.477L152.234 743.199L226.594 811.92L300.955 743.199Z" stroke="#B38339" stroke-miterlimit="10"/>
<path d="M226.51 658.437L152.277 727.244L300.964 727.244L226.51 658.437Z" stroke="#B38339" stroke-miterlimit="10"/>
<path d="M300.956 630.903L226.596 562.181L152.235 630.902L226.596 699.624L300.956 630.903Z" stroke="#B38339" stroke-miterlimit="10"/>
<path d="M226.51 715.402L152.277 646.799L300.963 646.799L226.51 715.402Z" stroke="#B38339" stroke-miterlimit="10"/>
<path d="M226.51 546.14L152.277 614.947L300.964 614.947L226.51 546.14Z" stroke="#B38339" stroke-miterlimit="10"/>
<path d="M279.867 630.758L226.596 581.527L173.325 630.758L226.596 679.989L279.867 630.758Z" stroke="#B38339" stroke-miterlimit="10"/>
<path d="M300.957 518.606L226.596 449.884L152.236 518.606L226.596 587.327L300.957 518.606Z" stroke="#B38339" stroke-miterlimit="10"/>
<path d="M226.51 603.105L152.277 534.502L300.964 534.502L226.51 603.105Z" stroke="#B38339" stroke-miterlimit="10"/>
<path d="M751.649 630.905L677.288 562.184L602.928 630.905L677.288 699.627L751.649 630.905Z" stroke="#B38339" stroke-miterlimit="10"/>
<path d="M677.207 546.14L602.974 614.947L751.66 614.947L677.207 546.14Z" stroke="#B38339" stroke-miterlimit="10"/>
<path d="M751.65 518.609L677.289 449.887L602.928 518.609L677.289 587.331L751.65 518.609Z" stroke="#B38339" stroke-miterlimit="10"/>
<path d="M677.207 603.105L602.974 534.502L751.66 534.502L677.207 603.105Z" stroke="#B38339" stroke-miterlimit="10"/>
<path d="M677.207 433.843L602.974 502.65L751.66 502.65L677.207 433.843Z" stroke="#B38339" stroke-miterlimit="10"/>
<path d="M730.561 518.464L677.29 469.233L624.019 518.464L677.29 567.695L730.561 518.464Z" stroke="#B38339" stroke-miterlimit="10"/>
<path d="M751.651 406.313L677.29 337.591L602.929 406.313L677.29 475.034L751.651 406.313Z" stroke="#B38339" stroke-miterlimit="10"/>
<path d="M677.207 490.808L602.974 422.205L751.66 422.205L677.207 490.808Z" stroke="#B38339" stroke-miterlimit="10"/>
<path d="M901.881 630.906L827.52 562.184L753.16 630.905L827.52 699.627L901.881 630.906Z" stroke="#B38339" stroke-miterlimit="10"/>
<path d="M827.439 546.14L753.206 614.947L901.893 614.947L827.439 546.14Z" stroke="#B38339" stroke-miterlimit="10"/>
<path d="M901.882 518.61L827.522 449.889L753.161 518.61L827.522 587.332L901.882 518.61Z" stroke="#B38339" stroke-miterlimit="10"/>
<path d="M827.439 603.105L753.206 534.502L901.893 534.502L827.439 603.105Z" stroke="#B38339" stroke-miterlimit="10"/>
<path d="M827.439 433.843L753.206 502.65L901.893 502.65L827.439 433.843Z" stroke="#B38339" stroke-miterlimit="10"/>
<path d="M880.793 518.465L827.522 469.234L774.251 518.465L827.522 567.697L880.793 518.465Z" stroke="#B38339" stroke-miterlimit="10"/>
<path d="M901.883 406.314L827.523 337.592L753.162 406.314L827.523 475.035L901.883 406.314Z" stroke="#B38339" stroke-miterlimit="10"/>
<path d="M827.439 490.808L753.206 422.205L901.893 422.205L827.439 490.808Z" stroke="#B38339" stroke-miterlimit="10"/>
<path d="M601.417 630.904L527.056 562.183L452.695 630.904L527.056 699.626L601.417 630.904Z" stroke="#B38339" stroke-miterlimit="10"/>
<path d="M526.973 546.14L452.74 614.947L601.426 614.947L526.973 546.14Z" stroke="#B38339" stroke-miterlimit="10"/>
<path d="M601.418 518.608L527.057 449.887L452.696 518.608L527.057 587.33L601.418 518.608Z" stroke="#B38339" stroke-miterlimit="10"/>
<path d="M526.973 603.105L452.74 534.502L601.426 534.502L526.973 603.105Z" stroke="#B38339" stroke-miterlimit="10"/>
<path d="M526.973 433.843L452.74 502.65L601.426 502.65L526.973 433.843Z" stroke="#B38339" stroke-miterlimit="10"/>
<path d="M580.329 518.464L527.058 469.233L473.787 518.464L527.058 567.695L580.329 518.464Z" stroke="#B38339" stroke-miterlimit="10"/>
<path d="M601.418 406.312L527.058 337.59L452.697 406.312L527.058 475.034L601.418 406.312Z" stroke="#B38339" stroke-miterlimit="10"/>
<path d="M526.973 490.808L452.74 422.205L601.426 422.205L526.973 490.808Z" stroke="#B38339" stroke-miterlimit="10"/>
<path d="M751.65 630.905L677.29 562.184L602.929 630.905L677.29 699.627L751.65 630.905Z" stroke="#B38339" stroke-miterlimit="10"/>
<path d="M677.207 546.14L602.974 614.947L751.66 614.947L677.207 546.14Z" stroke="#B38339" stroke-miterlimit="10"/>
<path d="M751.651 518.609L677.29 449.888L602.93 518.609L677.29 587.331L751.651 518.609Z" stroke="#B38339" stroke-miterlimit="10"/>
<path d="M677.207 603.105L602.974 534.502L751.66 534.502L677.207 603.105Z" stroke="#B38339" stroke-miterlimit="10"/>
<path d="M677.207 433.843L602.974 502.65L751.66 502.65L677.207 433.843Z" stroke="#B38339" stroke-miterlimit="10"/>
<path d="M730.561 518.464L677.29 469.233L624.019 518.464L677.29 567.696L730.561 518.464Z" stroke="#B38339" stroke-miterlimit="10"/>
<path d="M751.652 406.313L677.292 337.591L602.931 406.313L677.291 475.034L751.652 406.313Z" stroke="#B38339" stroke-miterlimit="10"/>
<path d="M677.207 490.808L602.974 422.205L751.66 422.205L677.207 490.808Z" stroke="#B38339" stroke-miterlimit="10"/>
<path d="M451.184 630.903L376.823 562.182L302.463 630.903L376.823 699.625L451.184 630.903Z" stroke="#B38339" stroke-miterlimit="10"/>
<path d="M376.74 546.14L302.507 614.947L451.193 614.947L376.74 546.14Z" stroke="#B38339" stroke-miterlimit="10"/>
<path d="M451.186 518.607L376.825 449.885L302.464 518.607L376.825 587.328L451.186 518.607Z" stroke="#B38339" stroke-miterlimit="10"/>
<path d="M376.74 603.105L302.507 534.502L451.194 534.502L376.74 603.105Z" stroke="#B38339" stroke-miterlimit="10"/>
<path d="M376.74 433.843L302.507 502.65L451.194 502.65L376.74 433.843Z" stroke="#B38339" stroke-miterlimit="10"/>
<path d="M430.097 518.463L376.826 469.231L323.555 518.462L376.826 567.694L430.097 518.463Z" stroke="#B38339" stroke-miterlimit="10"/>
<path d="M451.187 406.311L376.826 337.589L302.465 406.311L376.826 475.032L451.187 406.311Z" stroke="#B38339" stroke-miterlimit="10"/>
<path d="M376.74 490.808L302.507 422.205L451.194 422.205L376.74 490.808Z" stroke="#B38339" stroke-miterlimit="10"/>
<path d="M601.417 630.904L527.057 562.183L452.696 630.904L527.057 699.626L601.417 630.904Z" stroke="#B38339" stroke-miterlimit="10"/>
<path d="M526.972 546.14L452.74 614.947L601.426 614.947L526.972 546.14Z" stroke="#B38339" stroke-miterlimit="10"/>
<path d="M601.418 518.608L527.057 449.886L452.696 518.608L527.057 587.33L601.418 518.608Z" stroke="#B38339" stroke-miterlimit="10"/>
<path d="M526.972 603.105L452.74 534.502L601.426 534.502L526.972 603.105Z" stroke="#B38339" stroke-miterlimit="10"/>
<path d="M526.972 433.843L452.74 502.65L601.426 502.65L526.972 433.843Z" stroke="#B38339" stroke-miterlimit="10"/>
<path d="M580.328 518.464L527.057 469.233L473.786 518.464L527.057 567.695L580.328 518.464Z" stroke="#B38339" stroke-miterlimit="10"/>
<path d="M601.418 406.312L527.057 337.59L452.696 406.312L527.057 475.033L601.418 406.312Z" stroke="#B38339" stroke-miterlimit="10"/>
<path d="M526.972 490.808L452.74 422.205L601.426 422.205L526.972 490.808Z" stroke="#B38339" stroke-miterlimit="10"/>
<path d="M300.953 630.902L226.593 562.181L152.232 630.902L226.593 699.624L300.953 630.902Z" stroke="#B38339" stroke-miterlimit="10"/>
<path d="M226.508 546.14L152.275 614.947L300.962 614.947L226.508 546.14Z" stroke="#B38339" stroke-miterlimit="10"/>
<path d="M300.954 518.606L226.594 449.884L152.233 518.606L226.594 587.327L300.954 518.606Z" stroke="#B38339" stroke-miterlimit="10"/>
<path d="M226.508 603.105L152.275 534.502L300.962 534.502L226.508 603.105Z" stroke="#B38339" stroke-miterlimit="10"/>
<path d="M226.508 433.843L152.275 502.65L300.962 502.65L226.508 433.843Z" stroke="#B38339" stroke-miterlimit="10"/>
<path d="M279.865 518.461L226.594 469.23L173.323 518.461L226.594 567.692L279.865 518.461Z" stroke="#B38339" stroke-miterlimit="10"/>
<path d="M300.955 406.31L226.594 337.588L152.234 406.309L226.594 475.031L300.955 406.31Z" stroke="#B38339" stroke-miterlimit="10"/>
<path d="M226.508 490.808L152.275 422.204L300.962 422.204L226.508 490.808Z" stroke="#B38339" stroke-miterlimit="10"/>
<path d="M451.186 630.903L376.825 562.182L302.464 630.903L376.825 699.625L451.186 630.903Z" stroke="#B38339" stroke-miterlimit="10"/>
<path d="M376.74 546.14L302.507 614.947L451.193 614.947L376.74 546.14Z" stroke="#B38339" stroke-miterlimit="10"/>
<path d="M451.186 518.607L376.825 449.885L302.465 518.607L376.825 587.328L451.186 518.607Z" stroke="#B38339" stroke-miterlimit="10"/>
<path d="M376.74 603.105L302.507 534.502L451.193 534.502L376.74 603.105Z" stroke="#B38339" stroke-miterlimit="10"/>
<path d="M376.74 433.843L302.507 502.65L451.193 502.65L376.74 433.843Z" stroke="#B38339" stroke-miterlimit="10"/>
<path d="M430.096 518.462L376.825 469.231L323.554 518.462L376.825 567.694L430.096 518.462Z" stroke="#B38339" stroke-miterlimit="10"/>
<path d="M451.186 406.311L376.825 337.589L302.465 406.311L376.825 475.032L451.186 406.311Z" stroke="#B38339" stroke-miterlimit="10"/>
<path d="M376.74 490.808L302.507 422.204L451.193 422.204L376.74 490.808Z" stroke="#B38339" stroke-miterlimit="10"/>
<path d="M150.723 630.901L76.3618 562.18L2.00115 630.901L76.3618 699.623L150.723 630.901Z" stroke="#B38339" stroke-miterlimit="10"/>
<path d="M76.2759 546.14L2.04319 614.947L150.729 614.947L76.2759 546.14Z" stroke="#B38339" stroke-miterlimit="10"/>
<path d="M150.723 518.605L76.3621 449.883L2.0014 518.605L76.3621 587.326L150.723 518.605Z" stroke="#B38339" stroke-miterlimit="10"/>
<path d="M76.2759 603.105L2.04317 534.502L150.729 534.502L76.2759 603.105Z" stroke="#B38339" stroke-miterlimit="10"/>
<path d="M76.2759 433.843L2.04319 502.65L150.729 502.65L76.2759 433.843Z" stroke="#B38339" stroke-miterlimit="10"/>
<path d="M129.634 518.461L76.3633 469.229L23.0923 518.461L76.3633 567.692L129.634 518.461Z" stroke="#B38339" stroke-miterlimit="10"/>
<path d="M150.724 406.309L76.3633 337.587L2.00261 406.309L76.3633 475.03L150.724 406.309Z" stroke="#B38339" stroke-miterlimit="10"/>
<path d="M76.2759 490.808L2.04317 422.205L150.729 422.205L76.2759 490.808Z" stroke="#B38339" stroke-miterlimit="10"/>
<path d="M300.956 630.902L226.596 562.18L152.235 630.902L226.596 699.623L300.956 630.902Z" stroke="#B38339" stroke-miterlimit="10"/>
<path d="M226.51 546.139L152.277 614.947L300.964 614.947L226.51 546.139Z" stroke="#B38339" stroke-miterlimit="10"/>
<path d="M300.957 518.606L226.596 449.884L152.236 518.606L226.596 587.327L300.957 518.606Z" stroke="#B38339" stroke-miterlimit="10"/>
<path d="M226.51 603.105L152.277 534.502L300.963 534.502L226.51 603.105Z" stroke="#B38339" stroke-miterlimit="10"/>
<path d="M226.51 433.843L152.277 502.65L300.964 502.65L226.51 433.843Z" stroke="#B38339" stroke-miterlimit="10"/>
<path d="M279.867 518.461L226.596 469.23L173.325 518.461L226.596 567.692L279.867 518.461Z" stroke="#B38339" stroke-miterlimit="10"/>
<path d="M300.957 406.31L226.596 337.588L152.235 406.31L226.596 475.031L300.957 406.31Z" stroke="#B38339" stroke-miterlimit="10"/>
<path d="M226.51 490.808L152.277 422.205L300.963 422.205L226.51 490.808Z" stroke="#B38339" stroke-miterlimit="10"/>
<path d="M751.65 518.609L677.289 449.887L602.928 518.609L677.289 587.33L751.65 518.609Z" stroke="#B38339" stroke-miterlimit="10"/>
<path d="M677.207 433.843L602.974 502.65L751.66 502.65L677.207 433.843Z" stroke="#B38339" stroke-miterlimit="10"/>
<path d="M751.651 406.313L677.29 337.591L602.929 406.313L677.29 475.034L751.651 406.313Z" stroke="#B38339" stroke-miterlimit="10"/>
<path d="M677.207 490.808L602.974 422.205L751.66 422.205L677.207 490.808Z" stroke="#B38339" stroke-miterlimit="10"/>
<path d="M677.207 321.546L602.974 390.353L751.66 390.353L677.207 321.546Z" stroke="#B38339" stroke-miterlimit="10"/>
<path d="M730.561 406.168L677.29 356.937L624.019 406.168L677.29 455.4L730.561 406.168Z" stroke="#B38339" stroke-miterlimit="10"/>
<path d="M751.652 294.016L677.291 225.294L602.931 294.016L677.291 362.738L751.652 294.016Z" stroke="#B38339" stroke-miterlimit="10"/>
<path d="M677.207 378.511L602.974 309.907L751.66 309.907L677.207 378.511Z" stroke="#B38339" stroke-miterlimit="10"/>
<path d="M901.882 518.61L827.522 449.888L753.161 518.61L827.522 587.332L901.882 518.61Z" stroke="#B38339" stroke-miterlimit="10"/>
<path d="M827.439 433.843L753.206 502.65L901.893 502.65L827.439 433.843Z" stroke="#B38339" stroke-miterlimit="10"/>
<path d="M901.883 406.314L827.523 337.592L753.162 406.314L827.523 475.035L901.883 406.314Z" stroke="#B38339" stroke-miterlimit="10"/>
<path d="M827.439 490.808L753.206 422.205L901.893 422.205L827.439 490.808Z" stroke="#B38339" stroke-miterlimit="10"/>
<path d="M827.439 321.546L753.206 390.353L901.893 390.353L827.439 321.546Z" stroke="#B38339" stroke-miterlimit="10"/>
<path d="M880.793 406.169L827.522 356.938L774.251 406.169L827.522 455.401L880.793 406.169Z" stroke="#B38339" stroke-miterlimit="10"/>
<path d="M901.883 294.017L827.523 225.295L753.162 294.017L827.523 362.739L901.883 294.017Z" stroke="#B38339" stroke-miterlimit="10"/>
<path d="M827.439 378.511L753.206 309.908L901.892 309.908L827.439 378.511Z" stroke="#B38339" stroke-miterlimit="10"/>
<path d="M601.418 518.608L527.057 449.886L452.696 518.608L527.057 587.329L601.418 518.608Z" stroke="#B38339" stroke-miterlimit="10"/>
<path d="M526.973 433.843L452.74 502.65L601.426 502.65L526.973 433.843Z" stroke="#B38339" stroke-miterlimit="10"/>
<path d="M601.418 406.312L527.058 337.59L452.697 406.312L527.058 475.034L601.418 406.312Z" stroke="#B38339" stroke-miterlimit="10"/>
<path d="M526.973 490.808L452.74 422.205L601.426 422.205L526.973 490.808Z" stroke="#B38339" stroke-miterlimit="10"/>
<path d="M526.973 321.546L452.74 390.353L601.426 390.353L526.973 321.546Z" stroke="#B38339" stroke-miterlimit="10"/>
<path d="M580.329 406.167L527.058 356.936L473.787 406.167L527.058 455.398L580.329 406.167Z" stroke="#B38339" stroke-miterlimit="10"/>
<path d="M601.419 294.015L527.059 225.293L452.698 294.015L527.059 362.737L601.419 294.015Z" stroke="#B38339" stroke-miterlimit="10"/>
<path d="M526.973 378.511L452.74 309.908L601.426 309.908L526.973 378.511Z" stroke="#B38339" stroke-miterlimit="10"/>
<path d="M751.651 518.609L677.29 449.887L602.929 518.609L677.29 587.331L751.651 518.609Z" stroke="#B38339" stroke-miterlimit="10"/>
<path d="M677.207 433.843L602.974 502.65L751.66 502.65L677.207 433.843Z" stroke="#B38339" stroke-miterlimit="10"/>
<path d="M751.651 406.313L677.29 337.591L602.929 406.313L677.29 475.035L751.651 406.313Z" stroke="#B38339" stroke-miterlimit="10"/>
<path d="M677.207 490.808L602.974 422.205L751.66 422.205L677.207 490.808Z" stroke="#B38339" stroke-miterlimit="10"/>
<path d="M677.207 321.546L602.974 390.353L751.66 390.353L677.207 321.546Z" stroke="#B38339" stroke-miterlimit="10"/>
<path d="M730.561 406.168L677.29 356.937L624.019 406.168L677.29 455.4L730.561 406.168Z" stroke="#B38339" stroke-miterlimit="10"/>
<path d="M751.652 294.016L677.292 225.294L602.931 294.016L677.291 362.738L751.652 294.016Z" stroke="#B38339" stroke-miterlimit="10"/>
<path d="M677.207 378.51L602.974 309.907L751.66 309.907L677.207 378.51Z" stroke="#B38339" stroke-miterlimit="10"/>
<path d="M451.186 518.607L376.825 449.885L302.464 518.607L376.825 587.328L451.186 518.607Z" stroke="#B38339" stroke-miterlimit="10"/>
<path d="M376.74 433.843L302.507 502.65L451.194 502.65L376.74 433.843Z" stroke="#B38339" stroke-miterlimit="10"/>
<path d="M451.186 406.311L376.825 337.59L302.464 406.311L376.825 475.033L451.186 406.311Z" stroke="#B38339" stroke-miterlimit="10"/>
<path d="M376.74 490.808L302.507 422.205L451.193 422.205L376.74 490.808Z" stroke="#B38339" stroke-miterlimit="10"/>
<path d="M376.74 321.546L302.507 390.353L451.193 390.353L376.74 321.546Z" stroke="#B38339" stroke-miterlimit="10"/>
<path d="M430.096 406.166L376.825 356.935L323.554 406.166L376.825 455.398L430.096 406.166Z" stroke="#B38339" stroke-miterlimit="10"/>
<path d="M451.187 294.014L376.826 225.293L302.465 294.014L376.826 362.736L451.187 294.014Z" stroke="#B38339" stroke-miterlimit="10"/>
<path d="M376.74 378.511L302.507 309.908L451.194 309.908L376.74 378.511Z" stroke="#B38339" stroke-miterlimit="10"/>
<path d="M601.418 518.608L527.057 449.886L452.696 518.608L527.057 587.33L601.418 518.608Z" stroke="#B38339" stroke-miterlimit="10"/>
<path d="M526.972 433.843L452.74 502.65L601.426 502.65L526.972 433.843Z" stroke="#B38339" stroke-miterlimit="10"/>
<path d="M601.418 406.312L527.057 337.59L452.696 406.312L527.057 475.034L601.418 406.312Z" stroke="#B38339" stroke-miterlimit="10"/>
<path d="M526.972 490.808L452.74 422.205L601.426 422.205L526.972 490.808Z" stroke="#B38339" stroke-miterlimit="10"/>
<path d="M526.972 321.546L452.74 390.353L601.426 390.353L526.972 321.546Z" stroke="#B38339" stroke-miterlimit="10"/>
<path d="M580.329 406.167L527.058 356.936L473.787 406.167L527.058 455.399L580.329 406.167Z" stroke="#B38339" stroke-miterlimit="10"/>
<path d="M601.419 294.015L527.058 225.294L452.698 294.015L527.058 362.737L601.419 294.015Z" stroke="#B38339" stroke-miterlimit="10"/>
<path d="M526.972 378.511L452.74 309.908L601.426 309.908L526.972 378.511Z" stroke="#B38339" stroke-miterlimit="10"/>
<path d="M300.954 518.606L226.594 449.884L152.233 518.606L226.593 587.327L300.954 518.606Z" stroke="#B38339" stroke-miterlimit="10"/>
<path d="M226.508 433.843L152.275 502.65L300.961 502.65L226.508 433.843Z" stroke="#B38339" stroke-miterlimit="10"/>
<path d="M300.954 406.309L226.594 337.588L152.233 406.309L226.594 475.031L300.954 406.309Z" stroke="#B38339" stroke-miterlimit="10"/>
<path d="M226.508 490.808L152.275 422.205L300.961 422.205L226.508 490.808Z" stroke="#B38339" stroke-miterlimit="10"/>
<path d="M226.508 321.545L152.275 390.353L300.961 390.353L226.508 321.545Z" stroke="#B38339" stroke-miterlimit="10"/>
<path d="M279.865 406.165L226.594 356.934L173.323 406.165L226.594 455.396L279.865 406.165Z" stroke="#B38339" stroke-miterlimit="10"/>
<path d="M300.955 294.013L226.594 225.291L152.233 294.013L226.594 362.735L300.955 294.013Z" stroke="#B38339" stroke-miterlimit="10"/>
<path d="M226.508 378.511L152.275 309.908L300.961 309.908L226.508 378.511Z" stroke="#B38339" stroke-miterlimit="10"/>
<path d="M451.186 518.607L376.825 449.885L302.465 518.607L376.825 587.328L451.186 518.607Z" stroke="#B38339" stroke-miterlimit="10"/>
<path d="M376.74 433.843L302.507 502.65L451.193 502.65L376.74 433.843Z" stroke="#B38339" stroke-miterlimit="10"/>
<path d="M451.186 406.311L376.825 337.589L302.465 406.311L376.825 475.032L451.186 406.311Z" stroke="#B38339" stroke-miterlimit="10"/>
<path d="M376.74 490.808L302.507 422.205L451.193 422.205L376.74 490.808Z" stroke="#B38339" stroke-miterlimit="10"/>
<path d="M376.74 321.545L302.507 390.353L451.193 390.353L376.74 321.545Z" stroke="#B38339" stroke-miterlimit="10"/>
<path d="M430.096 406.166L376.825 356.935L323.554 406.166L376.825 455.397L430.096 406.166Z" stroke="#B38339" stroke-miterlimit="10"/>
<path d="M451.187 294.014L376.827 225.293L302.466 294.014L376.827 362.736L451.187 294.014Z" stroke="#B38339" stroke-miterlimit="10"/>
<path d="M376.74 378.511L302.507 309.908L451.193 309.908L376.74 378.511Z" stroke="#B38339" stroke-miterlimit="10"/>
<path d="M150.723 518.605L76.3621 449.884L2.00139 518.605L76.362 587.327L150.723 518.605Z" stroke="#B38339" stroke-miterlimit="10"/>
<path d="M76.2759 433.843L2.04319 502.65L150.729 502.65L76.2759 433.843Z" stroke="#B38339" stroke-miterlimit="10"/>
<path d="M150.724 406.309L76.3633 337.587L2.00261 406.309L76.3633 475.031L150.724 406.309Z" stroke="#B38339" stroke-miterlimit="10"/>
<path d="M76.2759 490.808L2.04317 422.205L150.729 422.205L76.2759 490.808Z" stroke="#B38339" stroke-miterlimit="10"/>
<path d="M76.2759 321.546L2.04319 390.353L150.729 390.353L76.2759 321.546Z" stroke="#B38339" stroke-miterlimit="10"/>
<path d="M129.635 406.165L76.3643 356.933L23.0933 406.164L76.3643 455.396L129.635 406.165Z" stroke="#B38339" stroke-miterlimit="10"/>
<path d="M150.725 294.012L76.3643 225.291L2.00359 294.012L76.3643 362.734L150.725 294.012Z" stroke="#B38339" stroke-miterlimit="10"/>
<path d="M76.2759 378.511L2.04317 309.908L150.729 309.908L76.2759 378.511Z" stroke="#B38339" stroke-miterlimit="10"/>
<path d="M300.958 518.606L226.597 449.885L152.236 518.606L226.597 587.328L300.958 518.606Z" stroke="#B38339" stroke-miterlimit="10"/>
<path d="M226.51 433.843L152.277 502.65L300.964 502.65L226.51 433.843Z" stroke="#B38339" stroke-miterlimit="10"/>
<path d="M300.957 406.31L226.596 337.588L152.236 406.31L226.596 475.032L300.957 406.31Z" stroke="#B38339" stroke-miterlimit="10"/>
<path d="M226.51 490.808L152.277 422.205L300.964 422.205L226.51 490.808Z" stroke="#B38339" stroke-miterlimit="10"/>
<path d="M226.51 321.546L152.277 390.353L300.964 390.353L226.51 321.546Z" stroke="#B38339" stroke-miterlimit="10"/>
<path d="M279.867 406.166L226.596 356.934L173.325 406.165L226.596 455.397L279.867 406.166Z" stroke="#B38339" stroke-miterlimit="10"/>
<path d="M300.958 294.013L226.597 225.292L152.236 294.013L226.597 362.735L300.958 294.013Z" stroke="#B38339" stroke-miterlimit="10"/>
<path d="M226.51 378.511L152.277 309.908L300.963 309.908L226.51 378.511Z" stroke="#B38339" stroke-miterlimit="10"/>
<path d="M751.651 406.313L677.29 337.591L602.929 406.313L677.29 475.035L751.651 406.313Z" stroke="#B38339" stroke-miterlimit="10"/>
<path d="M677.207 321.546L602.974 390.353L751.66 390.353L677.207 321.546Z" stroke="#B38339" stroke-miterlimit="10"/>
<path d="M751.652 294.016L677.291 225.295L602.931 294.016L677.291 362.738L751.652 294.016Z" stroke="#B38339" stroke-miterlimit="10"/>
<path d="M677.207 378.511L602.974 309.908L751.66 309.908L677.207 378.511Z" stroke="#B38339" stroke-miterlimit="10"/>
<path d="M677.207 209.249L602.974 278.057L751.66 278.057L677.207 209.249Z" stroke="#B38339" stroke-miterlimit="10"/>
<path d="M730.562 293.872L677.291 244.641L624.02 293.872L677.291 343.103L730.562 293.872Z" stroke="#B38339" stroke-miterlimit="10"/>
<path d="M751.652 181.72L677.291 112.999L602.931 181.72L677.291 250.442L751.652 181.72Z" stroke="#B38339" stroke-miterlimit="10"/>
<path d="M677.207 266.214L602.974 197.61L751.66 197.61L677.207 266.214Z" stroke="#B38339" stroke-miterlimit="10"/>
<path d="M901.883 406.314L827.523 337.592L753.162 406.314L827.523 475.035L901.883 406.314Z" stroke="#B38339" stroke-miterlimit="10"/>
<path d="M827.439 321.546L753.206 390.353L901.893 390.353L827.439 321.546Z" stroke="#B38339" stroke-miterlimit="10"/>
<path d="M901.883 294.018L827.523 225.296L753.162 294.018L827.523 362.739L901.883 294.018Z" stroke="#B38339" stroke-miterlimit="10"/>
<path d="M827.439 378.511L753.206 309.908L901.893 309.908L827.439 378.511Z" stroke="#B38339" stroke-miterlimit="10"/>
<path d="M827.439 209.249L753.206 278.057L901.893 278.057L827.439 209.249Z" stroke="#B38339" stroke-miterlimit="10"/>
<path d="M880.794 293.873L827.523 244.642L774.252 293.873L827.523 343.104L880.794 293.873Z" stroke="#B38339" stroke-miterlimit="10"/>
<path d="M901.884 181.721L827.523 113L753.163 181.721L827.523 250.443L901.884 181.721Z" stroke="#B38339" stroke-miterlimit="10"/>
<path d="M827.439 266.214L753.206 197.61L901.893 197.61L827.439 266.214Z" stroke="#B38339" stroke-miterlimit="10"/>
<path d="M601.418 406.312L527.058 337.59L452.697 406.312L527.058 475.033L601.418 406.312Z" stroke="#B38339" stroke-miterlimit="10"/>
<path d="M526.973 321.545L452.74 390.353L601.426 390.353L526.973 321.545Z" stroke="#B38339" stroke-miterlimit="10"/>
<path d="M601.419 294.015L527.059 225.293L452.698 294.015L527.059 362.737L601.419 294.015Z" stroke="#B38339" stroke-miterlimit="10"/>
<path d="M526.973 378.511L452.74 309.908L601.426 309.908L526.973 378.511Z" stroke="#B38339" stroke-miterlimit="10"/>
<path d="M526.973 209.249L452.74 278.056L601.426 278.056L526.973 209.249Z" stroke="#B38339" stroke-miterlimit="10"/>
<path d="M580.33 293.871L527.059 244.639L473.788 293.87L527.059 343.102L580.33 293.871Z" stroke="#B38339" stroke-miterlimit="10"/>
<path d="M601.419 181.719L527.059 112.997L452.698 181.719L527.059 250.44L601.419 181.719Z" stroke="#B38339" stroke-miterlimit="10"/>
<path d="M526.973 266.213L452.74 197.61L601.426 197.61L526.973 266.213Z" stroke="#B38339" stroke-miterlimit="10"/>
<path d="M751.652 406.313L677.292 337.591L602.931 406.313L677.291 475.035L751.652 406.313Z" stroke="#B38339" stroke-miterlimit="10"/>
<path d="M677.207 321.546L602.974 390.353L751.66 390.353L677.207 321.546Z" stroke="#B38339" stroke-miterlimit="10"/>
<path d="M751.652 294.016L677.292 225.295L602.931 294.016L677.291 362.738L751.652 294.016Z" stroke="#B38339" stroke-miterlimit="10"/>
<path d="M677.207 378.511L602.974 309.908L751.66 309.908L677.207 378.511Z" stroke="#B38339" stroke-miterlimit="10"/>
<path d="M677.207 209.249L602.974 278.057L751.66 278.057L677.207 209.249Z" stroke="#B38339" stroke-miterlimit="10"/>
<path d="M730.563 293.872L677.292 244.641L624.021 293.872L677.292 343.104L730.563 293.872Z" stroke="#B38339" stroke-miterlimit="10"/>
<path d="M751.653 181.72L677.292 112.999L602.932 181.72L677.292 250.442L751.653 181.72Z" stroke="#B38339" stroke-miterlimit="10"/>
<path d="M677.207 266.214L602.974 197.61L751.66 197.61L677.207 266.214Z" stroke="#B38339" stroke-miterlimit="10"/>
<path d="M451.187 406.31L376.826 337.589L302.465 406.31L376.826 475.032L451.187 406.31Z" stroke="#B38339" stroke-miterlimit="10"/>
<path d="M376.74 321.545L302.507 390.353L451.194 390.353L376.74 321.545Z" stroke="#B38339" stroke-miterlimit="10"/>
<path d="M451.187 294.014L376.826 225.292L302.465 294.014L376.826 362.735L451.187 294.014Z" stroke="#B38339" stroke-miterlimit="10"/>
<path d="M376.74 378.511L302.507 309.908L451.194 309.908L376.74 378.511Z" stroke="#B38339" stroke-miterlimit="10"/>
<path d="M376.74 209.249L302.507 278.056L451.194 278.056L376.74 209.249Z" stroke="#B38339" stroke-miterlimit="10"/>
<path d="M430.098 293.87L376.827 244.639L323.556 293.87L376.827 343.101L430.098 293.87Z" stroke="#B38339" stroke-miterlimit="10"/>
<path d="M451.188 181.718L376.827 112.996L302.466 181.718L376.827 250.44L451.188 181.718Z" stroke="#B38339" stroke-miterlimit="10"/>
<path d="M376.74 266.213L302.507 197.61L451.194 197.61L376.74 266.213Z" stroke="#B38339" stroke-miterlimit="10"/>
<path d="M601.418 406.312L527.057 337.59L452.696 406.312L527.057 475.034L601.418 406.312Z" stroke="#B38339" stroke-miterlimit="10"/>
<path d="M526.972 321.546L452.74 390.353L601.426 390.353L526.972 321.546Z" stroke="#B38339" stroke-miterlimit="10"/>
<path d="M601.419 294.015L527.058 225.294L452.698 294.015L527.058 362.737L601.419 294.015Z" stroke="#B38339" stroke-miterlimit="10"/>
<path d="M526.972 378.511L452.74 309.908L601.426 309.908L526.972 378.511Z" stroke="#B38339" stroke-miterlimit="10"/>
<path d="M526.972 209.249L452.74 278.056L601.426 278.056L526.972 209.249Z" stroke="#B38339" stroke-miterlimit="10"/>
<path d="M580.329 293.871L527.058 244.64L473.787 293.871L527.058 343.102L580.329 293.871Z" stroke="#B38339" stroke-miterlimit="10"/>
<path d="M601.42 181.719L527.06 112.997L452.699 181.719L527.06 250.441L601.42 181.719Z" stroke="#B38339" stroke-miterlimit="10"/>
<path d="M526.972 266.213L452.74 197.61L601.426 197.61L526.972 266.213Z" stroke="#B38339" stroke-miterlimit="10"/>
<path d="M300.954 406.309L226.594 337.588L152.233 406.309L226.594 475.031L300.954 406.309Z" stroke="#B38339" stroke-miterlimit="10"/>
<path d="M226.508 321.546L152.275 390.353L300.962 390.353L226.508 321.546Z" stroke="#B38339" stroke-miterlimit="10"/>
<path d="M300.955 294.013L226.594 225.292L152.234 294.013L226.594 362.735L300.955 294.013Z" stroke="#B38339" stroke-miterlimit="10"/>
<path d="M226.508 378.511L152.275 309.908L300.962 309.908L226.508 378.511Z" stroke="#B38339" stroke-miterlimit="10"/>
<path d="M226.508 209.249L152.275 278.056L300.962 278.056L226.508 209.249Z" stroke="#B38339" stroke-miterlimit="10"/>
<path d="M279.867 293.87L226.596 244.638L173.325 293.87L226.596 343.101L279.867 293.87Z" stroke="#B38339" stroke-miterlimit="10"/>
<path d="M300.956 181.717L226.596 112.995L152.235 181.716L226.596 250.438L300.956 181.717Z" stroke="#B38339" stroke-miterlimit="10"/>
<path d="M226.508 266.213L152.275 197.61L300.962 197.61L226.508 266.213Z" stroke="#B38339" stroke-miterlimit="10"/>
<path d="M451.186 406.311L376.826 337.589L302.465 406.311L376.826 475.033L451.186 406.311Z" stroke="#B38339" stroke-miterlimit="10"/>
<path d="M376.74 321.545L302.507 390.353L451.194 390.353L376.74 321.545Z" stroke="#B38339" stroke-miterlimit="10"/>
<path d="M451.188 294.015L376.827 225.293L302.466 294.015L376.827 362.736L451.188 294.015Z" stroke="#B38339" stroke-miterlimit="10"/>
<path d="M376.74 378.511L302.507 309.908L451.194 309.908L376.74 378.511Z" stroke="#B38339" stroke-miterlimit="10"/>
<path d="M376.74 209.249L302.507 278.056L451.194 278.056L376.74 209.249Z" stroke="#B38339" stroke-miterlimit="10"/>
<path d="M430.098 293.871L376.827 244.639L323.556 293.87L376.827 343.102L430.098 293.871Z" stroke="#B38339" stroke-miterlimit="10"/>
<path d="M451.189 181.718L376.828 112.997L302.467 181.718L376.828 250.44L451.189 181.718Z" stroke="#B38339" stroke-miterlimit="10"/>
<path d="M376.74 266.213L302.507 197.61L451.193 197.61L376.74 266.213Z" stroke="#B38339" stroke-miterlimit="10"/>
<path d="M150.724 406.309L76.363 337.588L2.00239 406.309L76.363 475.031L150.724 406.309Z" stroke="#B38339" stroke-miterlimit="10"/>
<path d="M76.2757 321.546L2.04295 390.353L150.729 390.353L76.2757 321.546Z" stroke="#B38339" stroke-miterlimit="10"/>
<path d="M150.725 294.013L76.3643 225.291L2.00358 294.012L76.3642 362.734L150.725 294.013Z" stroke="#B38339" stroke-miterlimit="10"/>
<path d="M76.2759 378.511L2.0432 309.908L150.729 309.908L76.2759 378.511Z" stroke="#B38339" stroke-miterlimit="10"/>
<path d="M76.2759 209.249L2.04319 278.056L150.729 278.056L76.2759 209.249Z" stroke="#B38339" stroke-miterlimit="10"/>
<path d="M129.636 293.869L76.3647 244.637L23.0938 293.869L76.3648 343.1L129.636 293.869Z" stroke="#B38339" stroke-miterlimit="10"/>
<path d="M150.725 181.716L76.3645 112.995L2.00384 181.716L76.3645 250.438L150.725 181.716Z" stroke="#B38339" stroke-miterlimit="10"/>
<path d="M76.2757 266.214L2.04296 197.61L150.729 197.61L76.2757 266.214Z" stroke="#B38339" stroke-miterlimit="10"/>
<path d="M300.957 406.31L226.597 337.589L152.236 406.31L226.597 475.032L300.957 406.31Z" stroke="#B38339" stroke-miterlimit="10"/>
<path d="M226.51 321.546L152.277 390.353L300.963 390.353L226.51 321.546Z" stroke="#B38339" stroke-miterlimit="10"/>
<path d="M300.958 294.014L226.597 225.292L152.236 294.014L226.597 362.735L300.958 294.014Z" stroke="#B38339" stroke-miterlimit="10"/>
<path d="M226.51 378.511L152.277 309.908L300.963 309.908L226.51 378.511Z" stroke="#B38339" stroke-miterlimit="10"/>
<path d="M226.51 209.249L152.277 278.056L300.963 278.056L226.51 209.249Z" stroke="#B38339" stroke-miterlimit="10"/>
<path d="M279.868 293.87L226.597 244.638L173.326 293.869L226.597 343.101L279.868 293.87Z" stroke="#B38339" stroke-miterlimit="10"/>
<path d="M300.959 181.717L226.598 112.996L152.238 181.717L226.598 250.439L300.959 181.717Z" stroke="#B38339" stroke-miterlimit="10"/>
<path d="M226.51 266.213L152.277 197.61L300.964 197.61L226.51 266.213Z" stroke="#B38339" stroke-miterlimit="10"/>
<path d="M751.652 294.016L677.291 225.295L602.931 294.016L677.291 362.738L751.652 294.016Z" stroke="#B38339" stroke-miterlimit="10"/>
<path d="M677.207 209.249L602.974 278.057L751.66 278.057L677.207 209.249Z" stroke="#B38339" stroke-miterlimit="10"/>
<path d="M751.652 181.72L677.291 112.998L602.931 181.72L677.291 250.442L751.652 181.72Z" stroke="#B38339" stroke-miterlimit="10"/>
<path d="M677.207 266.213L602.974 197.61L751.66 197.61L677.207 266.213Z" stroke="#B38339" stroke-miterlimit="10"/>
<path d="M677.207 96.9512L602.974 165.759L751.66 165.759L677.207 96.9512Z" stroke="#B38339" stroke-miterlimit="10"/>
<path d="M730.563 181.576L677.292 132.344L624.021 181.576L677.292 230.807L730.563 181.576Z" stroke="#B38339" stroke-miterlimit="10"/>
<path d="M751.653 69.4238L677.292 0.702118L602.932 69.4237L677.292 138.145L751.653 69.4238Z" stroke="#B38339" stroke-miterlimit="10"/>
<path d="M677.207 153.917L602.974 85.3138L751.66 85.3138L677.207 153.917Z" stroke="#B38339" stroke-miterlimit="10"/>
<path d="M901.883 294.018L827.523 225.296L753.162 294.018L827.523 362.739L901.883 294.018Z" stroke="#B38339" stroke-miterlimit="10"/>
<path d="M827.439 209.249L753.206 278.057L901.893 278.057L827.439 209.249Z" stroke="#B38339" stroke-miterlimit="10"/>
<path d="M901.884 181.721L827.523 113L753.163 181.721L827.523 250.443L901.884 181.721Z" stroke="#B38339" stroke-miterlimit="10"/>
<path d="M827.439 266.213L753.206 197.61L901.893 197.61L827.439 266.213Z" stroke="#B38339" stroke-miterlimit="10"/>
<path d="M827.439 96.9512L753.206 165.759L901.893 165.759L827.439 96.9512Z" stroke="#B38339" stroke-miterlimit="10"/>
<path d="M880.794 181.577L827.523 132.345L774.252 181.577L827.523 230.808L880.794 181.577Z" stroke="#B38339" stroke-miterlimit="10"/>
<path d="M901.885 69.4247L827.525 0.703033L753.164 69.4246L827.525 138.146L901.885 69.4247Z" stroke="#B38339" stroke-miterlimit="10"/>
<path d="M827.439 153.917L753.206 85.3137L901.892 85.3137L827.439 153.917Z" stroke="#B38339" stroke-miterlimit="10"/>
<path d="M601.419 294.015L527.059 225.294L452.698 294.015L527.059 362.737L601.419 294.015Z" stroke="#B38339" stroke-miterlimit="10"/>
<path d="M526.973 209.249L452.74 278.056L601.426 278.056L526.973 209.249Z" stroke="#B38339" stroke-miterlimit="10"/>
<path d="M601.419 181.718L527.059 112.997L452.698 181.718L527.059 250.44L601.419 181.718Z" stroke="#B38339" stroke-miterlimit="10"/>
<path d="M526.973 266.213L452.74 197.61L601.426 197.61L526.973 266.213Z" stroke="#B38339" stroke-miterlimit="10"/>
<path d="M526.973 96.9509L452.74 165.758L601.426 165.758L526.973 96.9509Z" stroke="#B38339" stroke-miterlimit="10"/>
<path d="M580.331 181.575L527.06 132.343L473.789 181.575L527.06 230.806L580.331 181.575Z" stroke="#B38339" stroke-miterlimit="10"/>
<path d="M601.421 69.4228L527.06 0.701141L452.699 69.4227L527.06 138.144L601.421 69.4228Z" stroke="#B38339" stroke-miterlimit="10"/>
<path d="M526.973 153.917L452.74 85.3136L601.426 85.3136L526.973 153.917Z" stroke="#B38339" stroke-miterlimit="10"/>
<path d="M751.652 294.017L677.292 225.295L602.931 294.017L677.291 362.738L751.652 294.017Z" stroke="#B38339" stroke-miterlimit="10"/>
<path d="M677.207 209.249L602.974 278.057L751.66 278.057L677.207 209.249Z" stroke="#B38339" stroke-miterlimit="10"/>
<path d="M751.653 181.72L677.292 112.998L602.932 181.72L677.292 250.442L751.653 181.72Z" stroke="#B38339" stroke-miterlimit="10"/>
<path d="M677.207 266.213L602.974 197.61L751.66 197.61L677.207 266.213Z" stroke="#B38339" stroke-miterlimit="10"/>
<path d="M677.207 96.9511L602.974 165.758L751.66 165.758L677.207 96.9511Z" stroke="#B38339" stroke-miterlimit="10"/>
<path d="M730.563 181.576L677.292 132.344L624.021 181.576L677.292 230.807L730.563 181.576Z" stroke="#B38339" stroke-miterlimit="10"/>
<path d="M751.654 69.4237L677.294 0.702087L602.933 69.4237L677.294 138.145L751.654 69.4237Z" stroke="#B38339" stroke-miterlimit="10"/>
<path d="M677.207 153.917L602.974 85.3138L751.66 85.3138L677.207 153.917Z" stroke="#B38339" stroke-miterlimit="10"/>
<path d="M451.186 294.015L376.825 225.293L302.464 294.014L376.825 362.736L451.186 294.015Z" stroke="#B38339" stroke-miterlimit="10"/>
<path d="M376.74 209.249L302.507 278.057L451.193 278.057L376.74 209.249Z" stroke="#B38339" stroke-miterlimit="10"/>
<path d="M451.187 181.717L376.826 112.996L302.466 181.717L376.826 250.439L451.187 181.717Z" stroke="#B38339" stroke-miterlimit="10"/>
<path d="M376.74 266.213L302.507 197.61L451.193 197.61L376.74 266.213Z" stroke="#B38339" stroke-miterlimit="10"/>
<path d="M376.739 96.9512L302.507 165.759L451.193 165.759L376.739 96.9512Z" stroke="#B38339" stroke-miterlimit="10"/>
<path d="M430.099 181.574L376.828 132.343L323.557 181.574L376.828 230.805L430.099 181.574Z" stroke="#B38339" stroke-miterlimit="10"/>
<path d="M451.189 69.4219L376.828 0.700317L302.467 69.4219L376.828 138.143L451.189 69.4219Z" stroke="#B38339" stroke-miterlimit="10"/>
<path d="M376.74 153.917L302.507 85.314L451.194 85.314L376.74 153.917Z" stroke="#B38339" stroke-miterlimit="10"/>
<path d="M601.419 294.015L527.058 225.294L452.698 294.015L527.058 362.737L601.419 294.015Z" stroke="#B38339" stroke-miterlimit="10"/>
<path d="M526.972 209.249L452.74 278.057L601.426 278.057L526.972 209.249Z" stroke="#B38339" stroke-miterlimit="10"/>
<path d="M601.42 181.719L527.06 112.998L452.699 181.719L527.06 250.441L601.42 181.719Z" stroke="#B38339" stroke-miterlimit="10"/>
<path d="M526.972 266.213L452.74 197.61L601.426 197.61L526.972 266.213Z" stroke="#B38339" stroke-miterlimit="10"/>
<path d="M526.972 96.9512L452.74 165.759L601.426 165.759L526.972 96.9512Z" stroke="#B38339" stroke-miterlimit="10"/>
<path d="M580.331 181.575L527.06 132.344L473.789 181.575L527.06 230.806L580.331 181.575Z" stroke="#B38339" stroke-miterlimit="10"/>
<path d="M601.421 69.4232L527.061 0.70163L452.7 69.4232L527.06 138.145L601.421 69.4232Z" stroke="#B38339" stroke-miterlimit="10"/>
<path d="M526.972 153.917L452.74 85.3138L601.426 85.3138L526.972 153.917Z" stroke="#B38339" stroke-miterlimit="10"/>
<path d="M300.955 294.013L226.595 225.292L152.234 294.013L226.595 362.735L300.955 294.013Z" stroke="#B38339" stroke-miterlimit="10"/>
<path d="M226.508 209.249L152.275 278.056L300.962 278.056L226.508 209.249Z" stroke="#B38339" stroke-miterlimit="10"/>
<path d="M300.956 181.716L226.596 112.995L152.235 181.716L226.596 250.438L300.956 181.716Z" stroke="#B38339" stroke-miterlimit="10"/>
<path d="M226.508 266.213L152.276 197.61L300.962 197.61L226.508 266.213Z" stroke="#B38339" stroke-miterlimit="10"/>
<path d="M226.508 96.9509L152.276 165.758L300.962 165.758L226.508 96.9509Z" stroke="#B38339" stroke-miterlimit="10"/>
<path d="M279.868 181.572L226.597 132.341L173.326 181.572L226.597 230.803L279.868 181.572Z" stroke="#B38339" stroke-miterlimit="10"/>
<path d="M300.957 69.4205L226.597 0.698883L152.236 69.4204L226.597 138.142L300.957 69.4205Z" stroke="#B38339" stroke-miterlimit="10"/>
<path d="M226.508 153.917L152.275 85.3135L300.962 85.3135L226.508 153.917Z" stroke="#B38339" stroke-miterlimit="10"/>
<path d="M451.188 294.015L376.827 225.293L302.466 294.015L376.827 362.736L451.188 294.015Z" stroke="#B38339" stroke-miterlimit="10"/>
<path d="M376.74 209.249L302.507 278.056L451.194 278.056L376.74 209.249Z" stroke="#B38339" stroke-miterlimit="10"/>
<path d="M451.189 181.718L376.828 112.996L302.467 181.718L376.828 250.44L451.189 181.718Z" stroke="#B38339" stroke-miterlimit="10"/>
<path d="M376.74 266.213L302.507 197.61L451.194 197.61L376.74 266.213Z" stroke="#B38339" stroke-miterlimit="10"/>
<path d="M376.74 96.951L302.507 165.758L451.194 165.758L376.74 96.951Z" stroke="#B38339" stroke-miterlimit="10"/>
<path d="M430.099 181.574L376.828 132.342L323.557 181.573L376.828 230.805L430.099 181.574Z" stroke="#B38339" stroke-miterlimit="10"/>
<path d="M451.19 69.4219L376.829 0.700317L302.469 69.4219L376.829 138.143L451.19 69.4219Z" stroke="#B38339" stroke-miterlimit="10"/>
<path d="M376.74 153.917L302.507 85.3134L451.194 85.3134L376.74 153.917Z" stroke="#B38339" stroke-miterlimit="10"/>
<path d="M150.725 294.013L76.364 225.291L2.00335 294.013L76.364 362.734L150.725 294.013Z" stroke="#B38339" stroke-miterlimit="10"/>
<path d="M76.2756 209.249L2.04291 278.057L150.729 278.057L76.2756 209.249Z" stroke="#B38339" stroke-miterlimit="10"/>
<path d="M150.725 181.716L76.3645 112.994L2.00385 181.716L76.3645 250.438L150.725 181.716Z" stroke="#B38339" stroke-miterlimit="10"/>
<path d="M76.2756 266.213L2.04293 197.61L150.729 197.61L76.2756 266.213Z" stroke="#B38339" stroke-miterlimit="10"/>
<path d="M76.2756 96.9511L2.04291 165.759L150.729 165.759L76.2756 96.9511Z" stroke="#B38339" stroke-miterlimit="10"/>
<path d="M129.637 181.572L76.366 132.34L23.095 181.572L76.366 230.803L129.637 181.572Z" stroke="#B38339" stroke-miterlimit="10"/>
<path d="M150.727 69.42L76.366 0.698425L2.00532 69.4199L76.366 138.142L150.727 69.42Z" stroke="#B38339" stroke-miterlimit="10"/>
<path d="M76.2756 153.917L2.04291 85.314L150.729 85.314L76.2756 153.917Z" stroke="#B38339" stroke-miterlimit="10"/>
<path d="M300.958 294.014L226.597 225.293L152.237 294.014L226.597 362.736L300.958 294.014Z" stroke="#B38339" stroke-miterlimit="10"/>
<path d="M226.51 209.249L152.277 278.057L300.964 278.057L226.51 209.249Z" stroke="#B38339" stroke-miterlimit="10"/>
<path d="M300.959 181.717L226.599 112.995L152.238 181.717L226.599 250.438L300.959 181.717Z" stroke="#B38339" stroke-miterlimit="10"/>
<path d="M226.51 266.213L152.277 197.61L300.963 197.61L226.51 266.213Z" stroke="#B38339" stroke-miterlimit="10"/>
<path d="M226.51 96.9511L152.277 165.759L300.964 165.759L226.51 96.9511Z" stroke="#B38339" stroke-miterlimit="10"/>
<path d="M279.87 181.573L226.599 132.342L173.328 181.573L226.599 230.804L279.87 181.573Z" stroke="#B38339" stroke-miterlimit="10"/>
<path d="M300.96 69.4214L226.6 0.699829L152.239 69.4213L226.6 138.143L300.96 69.4214Z" stroke="#B38339" stroke-miterlimit="10"/>
<path d="M226.51 153.917L152.277 85.3138L300.964 85.3138L226.51 153.917Z" stroke="#B38339" stroke-miterlimit="10"/>
</svg>
