<svg width="159" height="19" viewBox="0 0 159 19" fill="none" xmlns="http://www.w3.org/2000/svg">
<path d="M9.50293 10H149.503" stroke="#B38339" stroke-miterlimit="10" stroke-linecap="round"/>
<path d="M10.4951 9.61133C10.5184 10.8188 10.2803 12.017 9.79732 13.1239C9.3143 14.2309 8.59771 15.2203 7.69666 16.0245C6.79562 16.8286 5.73139 17.4285 4.57689 17.783C3.42239 18.1376 2.2049 18.2384 1.00781 18.0785" stroke="#B38339" stroke-miterlimit="10" stroke-linecap="round"/>
<path d="M1.00727 18.079C0.957954 16.9104 1.15996 15.7448 1.59967 14.6609C2.03939 13.577 2.70655 12.6001 3.55612 11.7961C4.40569 10.9921 5.4179 10.3798 6.52437 10.0005C7.63084 9.62114 8.80581 9.48363 9.96996 9.59726" stroke="#B38339" stroke-miterlimit="10" stroke-linecap="round"/>
<path d="M10.4952 9.49517C10.5118 8.29273 10.2694 7.10085 9.78441 6.00043C9.29945 4.9 8.58332 3.91681 7.68467 3.11771C6.78603 2.3186 5.72593 1.72231 4.57637 1.36927C3.42681 1.01623 2.21472 0.91472 1.02246 1.07169" stroke="#B38339" stroke-miterlimit="10" stroke-linecap="round"/>
<path d="M1.00727 1.07227C0.957954 2.24091 1.15996 3.40653 1.59967 4.49042C2.03939 5.57431 2.70655 6.55123 3.55612 7.35522C4.40569 8.1592 5.4179 8.77156 6.52437 9.15089C7.63084 9.53021 8.80581 9.66768 9.96996 9.55405" stroke="#B38339" stroke-miterlimit="10" stroke-linecap="round"/>
<path d="M148.511 9.61133C148.488 10.8188 148.726 12.017 149.209 13.1239C149.692 14.2309 150.409 15.2203 151.31 16.0245C152.211 16.8286 153.275 17.4285 154.43 17.783C155.584 18.1376 156.802 18.2384 157.999 18.0785" stroke="#B38339" stroke-miterlimit="10" stroke-linecap="round"/>
<path d="M157.998 18.079C158.047 16.9104 157.845 15.7448 157.405 14.6609C156.966 13.577 156.299 12.6001 155.449 11.7961C154.599 10.9921 153.587 10.3798 152.481 10.0005C151.374 9.62114 150.199 9.48363 149.035 9.59726" stroke="#B38339" stroke-miterlimit="10" stroke-linecap="round"/>
<path d="M148.512 9.49517C148.495 8.29273 148.737 7.10085 149.222 6.00043C149.707 4.9 150.423 3.91681 151.322 3.11771C152.221 2.3186 153.281 1.72231 154.43 1.36927C155.58 1.01623 156.792 0.91472 157.984 1.07169" stroke="#B38339" stroke-miterlimit="10" stroke-linecap="round"/>
<path d="M157.998 1.07227C158.047 2.24091 157.845 3.40653 157.405 4.49042C156.966 5.57431 156.299 6.55123 155.449 7.35522C154.599 8.1592 153.587 8.77156 152.481 9.15089C151.374 9.53021 150.199 9.66768 149.035 9.55405" stroke="#B38339" stroke-miterlimit="10" stroke-linecap="round"/>
</svg>
