<svg width="56" height="56" viewBox="0 0 56 56" fill="none" xmlns="http://www.w3.org/2000/svg">
<path d="M35.5666 42.5029H19.4485C18.2114 42.5029 17.2051 41.4966 17.2051 40.2595V37.4128C17.2051 36.9597 17.5725 36.5923 18.0256 36.5923C18.4788 36.5923 18.8461 36.9597 18.8461 37.4128V40.2595C18.8461 40.5917 19.1163 40.8618 19.4485 40.8618H35.5666C35.8988 40.8618 36.169 40.5917 36.169 40.2595V37.4128C36.169 36.9597 36.5362 36.5923 36.9895 36.5923C37.4427 36.5923 37.81 36.9597 37.81 37.4128V40.2595C37.81 41.4966 36.8035 42.5029 35.5666 42.5029Z" fill="#B38339"/>
<path d="M27.5071 37.2687C27.1489 37.2687 26.7909 37.1324 26.5182 36.8598L17.6154 27.957C17.214 27.5556 17.095 26.9573 17.3122 26.4329C17.5294 25.9084 18.0367 25.5695 18.6044 25.5695H22.8346V23.9732C22.8346 23.52 23.202 23.1526 23.6551 23.1526C24.1082 23.1526 24.4756 23.52 24.4756 23.9732V25.812C24.4756 26.5832 23.8483 27.2106 23.077 27.2106H19.1898L27.5072 35.528L35.8245 27.2106H31.9373C31.1661 27.2106 30.5387 26.5832 30.5387 25.812V18.872H24.4757V20.1373C24.4757 20.5904 24.1083 20.9578 23.6552 20.9578C23.2021 20.9578 22.8347 20.5904 22.8347 20.1373V18.6295C22.8347 17.8583 23.462 17.231 24.2333 17.231H30.7813C31.5525 17.231 32.1798 17.8583 32.1798 18.6295V25.5695H36.41C36.9776 25.5695 37.4849 25.9083 37.702 26.4329C37.9192 26.9575 37.8002 27.5557 37.3987 27.9571L28.4961 36.8598C28.2233 37.1323 27.8652 37.2687 27.5071 37.2687Z" fill="#B38339"/>
<path d="M47.6097 9.54756L39.1129 1.05087C38.4354 0.373187 37.5343 0 36.576 0H11.8122C9.34557 0 7.33887 2.0067 7.33887 4.47344V51.5267C7.33887 53.9933 9.34557 56 11.8122 56H44.1872C46.6538 56 48.6606 53.9933 48.6606 51.5267V12.0845C48.6605 11.1262 48.2873 10.2253 47.6097 9.54756ZM45.8592 10.1178H41.3752C39.8134 10.1178 38.5428 8.84723 38.5428 7.28547V2.80142L45.8592 10.1178ZM47.0196 51.5267C47.0196 53.0884 45.749 54.359 44.1872 54.359H11.8122C10.2504 54.359 8.97982 53.0884 8.97982 51.5267V4.47344C8.97982 2.91167 10.2504 1.64106 11.8122 1.64106H36.576C36.6865 1.64106 36.795 1.65211 36.9017 1.67005V7.28547C36.9017 9.75209 38.9084 11.7589 41.375 11.7589H46.9906C47.0085 11.8657 47.0196 11.9742 47.0196 12.0846V51.5267Z" fill="#B38339"/>
</svg>
