<svg width="467" height="521" viewBox="0 0 467 521" fill="none" xmlns="http://www.w3.org/2000/svg">
<path d="M118.966 210.187V209.687H118.466H43.9345C31.986 209.687 22.4473 215.616 15.4215 223.231C8.52191 230.708 4.01208 239.845 1.97853 246.715H0.560609L9.86048 165.61H10.1087H10.8028H11.4969H12.1911H12.8852H13.5794H14.2735H14.9676H15.6618H16.3559H17.05H17.7442H18.4383H19.1325H19.8266H20.5207H21.2149H21.909H22.6031H23.2973H23.9914H24.6856H25.3797H26.0738H26.768H27.4621H28.1563H28.8504H29.5445H30.2387H30.9328H31.6269H32.3211H33.0152H33.7094H34.4035H35.0976H35.7918H36.4859H37.18H37.8742H38.5683H39.2625H39.9566H40.6507H41.3449H42.039H42.7331H43.4273H44.1214H44.8156H45.5097H46.2038H46.898H47.5921H48.2863H48.9804H49.6745H50.3687H51.0628H51.7569H52.4511H53.1452H53.8394H54.5335H55.2276H55.9218H56.6159H57.31H58.0042H58.6983H59.3925H60.0866H60.7807H61.4749H62.169H62.8631H63.5573H64.2514H64.9456H65.6397H66.3338H67.028H67.7221H68.4162H69.1104H69.8045H70.4987H71.1928H71.8869H72.5811H73.2752H73.9693H74.6635H75.3576H76.0518H76.7459H77.44H78.1342H78.8283H79.5225H80.2166H80.9107H81.6049H82.299H82.9931H83.6873H84.3814H85.0756H85.7697H86.4638H87.158H87.8521H88.5462H89.2404H89.9345H90.6287H91.3228H92.0169H92.7111H93.4052H94.0993H94.7935H95.4876H96.1818H96.8759H97.57H98.2642H98.9583H99.6525H100.347H101.041H101.735H102.429H103.123H103.817H104.511H105.206H105.9H106.594H107.288H107.982H108.676H109.37H110.065H110.759H111.453H112.147H112.841H113.535H114.229H114.923H115.618H116.312H117.006H117.7H118.394H119.088H119.782H120.477H121.171H121.865H122.559H123.253H123.947H124.641H125.336H126.03H126.724H127.418H128.112H128.806H129.5H130.195H130.889H131.583H132.277H132.971H133.665H134.359H135.053H135.748H136.442H137.136H137.83H138.524H139.218H139.912H140.607H141.301H141.995H142.689H143.383H144.077H144.771H145.466H146.16H146.854H147.548H148.242H148.936H149.63H150.325H151.019H151.713H152.407H153.101H153.795H154.489H155.183H155.878H156.572H157.266H157.96H158.654H159.348H160.042H160.737H161.431H162.125H162.819H163.513H164.207H164.901H165.596H166.29H166.984H167.678H168.372H169.066H169.76H170.454H171.149H171.843H172.537H173.231H173.925H174.619H175.313H176.008H176.702H177.396H178.09H178.784H179.478H180.172H180.867H181.561H182.255H182.949H183.643H184.337H185.031H185.726H186.42H187.114H187.808H188.502H189.196H189.89H190.585H191.279H191.973H192.667H193.361H194.055H194.749H195.443H196.138H196.832H197.526H198.22H198.914H199.608H200.302H200.997H201.691H202.385H203.079H203.773H204.467H205.161H205.856H206.55H207.244H207.938H208.632H209.326H210.02H210.714H211.409H212.103H212.797H213.491H214.185H214.879H215.573H216.268H216.962H217.656H218.35H219.044H219.738H220.432H221.127H221.821H222.515H223.209H223.903H224.597H225.291H225.986H226.68H227.374H228.068H228.762H229.456H230.15H230.844H231.539H232.233H232.927H233.621H234.315H235.009H235.703H236.398H237.092H237.786H238.48H239.174H239.868H240.562H241.257H241.951H242.645H243.339H244.033H244.727H245.421H246.116H246.81H247.504H248.198H248.892H249.586H250.28H250.974H251.669H252.363H253.057H253.751H254.445H255.139H255.833H256.528H257.222H257.916H258.61H259.304H259.998H260.692H261.387H262.081H262.775H263.469H264.163H264.857H265.551H266.246H266.94H267.634H268.328H269.022H269.716H270.41H271.104H271.799H272.493H273.187H273.881H274.575H275.269H275.963H276.658H277.352H278.046H278.74H279.434H280.128H280.822H281.517H282.211H282.905H283.599H284.293H284.987H285.681H286.376H287.07H287.764H288.458H289.152H289.846H290.54H291.234H291.929H292.623H293.317H294.011H294.705H295.399H296.093H296.788H297.482H298.176H298.87H299.564H300.258H300.952H301.647H302.341H303.035H303.729H304.423H305.117H305.811H306.506H307.2H307.894H308.588H309.282H309.976H310.67H311.364H312.059H312.753H313.447H314.141H314.835H315.529H316.223H316.918H317.612H318.306H319H319.694H320.388H321.082H321.777H322.471H323.165H323.859H324.553H325.247H325.941H326.635H327.33H328.024H328.718H329.412H330.106H330.8H331.494H332.189H332.883H333.577H334.271H334.965H335.659H336.353H337.048H337.742H338.436H339.13H339.824H340.518H341.212H341.907H342.601H343.295H343.989H344.683H345.377H346.071H346.766H347.46H348.154H348.848H349.542H350.236H350.93H351.624H352.319H353.013H353.707H354.401H355.095H355.789H356.483H357.178H357.872H358.566H359.26H359.954H360.648H361.342H362.037H362.731H363.425H364.119H364.813C414.677 165.61 443.938 102.295 405.967 63.3368C395.686 52.7876 380.654 45.4768 364.813 45.4768H285.574H285.102L285.075 45.9482C284.026 64.2417 284.378 82.9102 284.728 101.436C284.898 110.474 285.068 119.477 285.074 128.387H228.803C228.826 123.041 229.211 116.194 229.645 108.442C229.829 105.173 230.021 101.744 230.199 98.1981C230.812 85.9939 231.255 72.4398 230.567 59.4334C229.879 46.4326 228.061 33.9445 224.134 23.8852C220.254 13.9436 214.288 6.31555 205.266 2.96424V1.39941H205.391H205.704H206.016H206.329H206.642H206.954H207.267H207.579H207.892H208.205H208.517H208.83H209.142H209.455H209.768H210.08H210.393H210.705H211.018H211.33H211.643H211.956H212.268H212.581H212.893H213.206H213.519H213.831H214.144H214.456H214.769H215.082H215.394H215.707H216.019H216.332H216.645H216.957H217.27H217.582H217.895H218.208H218.52H218.833H219.145H219.458H219.77H220.083H220.396H220.708H221.021H221.333H221.646H221.959H222.271H222.584H222.896H223.209H223.522H223.834H224.147H224.459H224.772H225.085H225.397H225.71H226.022H226.335H226.647H226.96H227.273H227.585H227.898H228.21H228.523H228.836H229.148H229.461H229.773H230.086H230.399H230.711H231.024H231.336H231.649H231.962H232.274H232.587H232.899H233.212H233.525H233.837H234.15H234.462H234.775H235.087H235.4H235.713H236.025H236.338H236.65H236.963H237.276H237.588H237.901H238.213H238.526H238.839H239.151H239.464H239.776H240.089H240.402H240.714H241.027H241.339H241.652H241.964H242.277H242.59H242.902H243.215H243.527H243.84H244.153H244.465H244.778H245.09H245.403H245.716H246.028H246.341H246.653H246.966H247.279H247.591H247.904H248.216H248.529H248.842H249.154H249.467H249.779H250.092H250.404H250.717H251.03H251.342H251.655H251.967H252.28H252.593H252.905H253.218H253.53H253.843H254.156H254.468H254.781H255.093H255.406H255.719H256.031H256.344H256.656H256.969H257.281H257.594H257.907H258.219H258.532H258.844H259.157H259.47H259.782H260.095H260.407H260.72H261.033H261.345H261.658H261.97H262.283H262.596H262.908H263.221H263.533H263.846H264.159H264.471H264.784H265.096H265.409H265.721H266.034H266.347H266.659H266.972H267.284H267.597H267.91H268.222H268.535H268.847H269.16H269.473H269.785H270.098H270.41H270.723H271.036H271.348H271.661H271.973H272.286H272.598H272.911H273.224H273.536H273.849H274.161H274.474H274.787H275.099H275.412H275.724H276.037H276.35H276.662H276.975H277.287H277.6H277.913H278.225H278.538H278.85H279.163H279.476H279.788H280.101H280.413H280.726H281.038H281.351H281.664H281.976H282.289H282.601H282.914H283.227H283.539H283.852H284.164H284.477H284.79H285.102H285.415H285.727H286.04H286.353H286.665H286.978H287.29H287.603H287.915H288.228H288.541H288.853H289.166H289.478H289.791H290.104H290.416H290.729H291.041H291.354H291.667H291.979H292.292H292.604H292.917H293.23H293.542H293.855H294.167H294.48H294.793H295.105H295.418H295.73H296.043H296.355H296.668H296.981H297.293H297.606H297.918H298.231H298.544H298.856H299.169H299.481H299.794H300.107H300.419H300.732H301.044H301.357H301.67H301.982H302.295H302.607H302.92H303.232H303.545H303.858H304.17H304.483H304.795H305.108H305.421H305.733H306.046H306.358H306.671H306.984H307.296H307.609H307.921H308.234H308.547H308.859H309.172H309.484H309.797H310.11H310.422H310.735H311.047H311.36H311.672H311.985H312.298H312.61H312.923H313.235H313.548H313.861H314.173H314.486H314.798H315.111H315.424H315.736H316.049H316.361H316.674H316.987H317.299H317.612H317.924H318.237H318.549H318.862H319.175H319.487H319.8H320.112H320.425H320.738H321.05H321.363H321.675H321.988H322.301H322.613H322.926H323.238H323.551H323.864H324.176H324.489H324.801H325.114H325.427H325.739H326.052H326.364H326.677H326.989H327.302H327.615H327.927H328.24H328.552H328.865H329.178H329.49H329.803H330.115H330.428H330.741H331.053H331.366H331.678H331.991H332.304H332.616H332.929H333.241H333.554H333.866H334.179H334.492H334.804H335.117H335.429H335.742H336.055H336.367H336.68H336.992H337.305H337.618H337.93H338.243H338.555H338.868H339.181H339.493H339.806H340.118H340.431H340.744H341.056H341.369H341.681H341.994H342.306H342.619H342.932H343.244H343.557H343.869H344.182H344.495H344.807H345.12H345.432H345.745H346.058H346.37H346.683H346.995H347.308H347.621H347.933H348.246H348.558H348.871H349.184H349.496H349.809H350.121H350.434H350.746H351.059H351.372H351.684H351.997H352.309H352.622H352.935H353.247H353.56H353.872H354.185H354.498H354.81H355.123H355.435H355.748H356.061H356.373H356.686H356.998H357.311H357.623H357.936H358.249H358.561H358.874H359.186H359.499H359.812H360.124H360.437H360.749H361.062H361.375H361.687H362H362.312H362.625H362.938H363.25H363.563H363.875H364.188H364.5H364.813C387.449 1.39941 407.74 8.60408 424.915 21.4172C428.836 24.6361 432.735 27.8376 436.633 31.8366C476.456 72.6951 476.456 138.392 436.633 179.25C417.896 198.475 392.134 209.687 364.813 209.687H364.445H364.078H363.71H363.342H362.974H362.607H362.239H361.871H361.503H361.136H360.768H360.4H360.032H359.665H359.297H358.929H358.561H358.193H357.826H357.458H357.09H356.722H356.355H355.987H355.619H355.251H354.884H354.516H354.148H353.78H353.413H353.045H352.677H352.309H351.942H351.574H351.206H350.838H350.471H350.103H349.735H349.367H349H348.632H348.264H347.896H347.529H347.161H346.793H346.425H346.058H345.69H345.322H344.954H344.587H344.219H343.851H343.483H343.116H342.748H342.38H342.012H341.645H341.277H340.909H340.541H340.173H339.806H339.438H339.07H338.702H338.335H337.967H337.599H337.231H336.864H336.496H336.128H335.76H335.393H335.025H334.657H334.289H333.922H333.554H333.186H332.818H332.451H332.083H331.715H331.347H330.98H330.612H330.244H329.876H329.509H329.141H328.773H328.405H328.038H327.67H327.302H326.934H326.567H326.199H325.831H325.463H325.096H324.728H324.36H323.992H323.625H323.257H322.889H322.521H322.154H321.786H321.418H321.05H320.682H320.315H319.947H319.579H319.211H318.844H318.476H318.108H317.74H317.373H317.005H316.637H316.269H315.902H315.534H315.166H314.798H314.431H314.063H313.695H313.327H312.96H312.592H312.224H311.856H311.489H311.121H310.753H310.385H310.018H309.65H309.282H308.914H308.547H308.179H307.811H307.443H307.076H306.708H306.34H305.972H305.605H305.237H304.869H304.501H304.133H303.766H303.398H303.03H302.662H302.295H301.927H301.559H301.191H300.824H300.456H300.088H299.72H299.353H298.985H298.617H298.249H297.882H297.514H297.146H296.778H296.411H296.043H295.675H295.307H294.94H294.572H294.204H293.836H293.469H293.101H292.733H292.365H291.998H291.63H291.262H290.894H290.527H290.159H289.791H289.423H289.056H288.688H288.32H287.952H287.585H287.217H286.849H286.481H286.113H285.746H285.378H285.01H284.642H284.275H283.907H283.539H283.171H282.804H282.436H282.068H281.7H281.333H280.965H280.597H280.229H279.862H279.494H279.126H278.758H278.391H278.023H277.655H277.287H276.92H276.552H276.184H275.816H275.449H275.081H274.713H274.345H273.978H273.61H273.242H272.874H272.507H272.139H271.771H271.403H271.036H270.668H270.3H269.932H269.565H269.197H268.829H268.461H268.093H267.726H267.358H266.99H266.622H266.255H265.887H265.519H265.151H264.784H264.416H264.048H263.68H263.313H262.945H262.577H262.209H261.842H261.474H261.106H260.738H260.371H260.003H259.635H259.267H258.9H258.532H258.164H257.796H257.429H257.061H256.693H256.325H255.958H255.59H255.222H254.854H254.487H254.119H253.751H253.383H253.016H252.648H252.28H251.912H251.545H251.177H250.809H250.441H250.073H249.706H249.338H248.97H248.602H248.235H247.867H247.499H247.131H246.764H246.396H246.028H245.66H245.293H244.925H244.557H244.189H243.822H243.454H243.086H242.718H242.351H241.983H241.615H241.247H240.88H240.512H240.144H239.776H239.409H239.041H238.673H238.305H237.938H237.57H237.202H236.834H236.467H236.099H235.731H235.363H234.996H234.628H234.26H233.892H233.525H233.157H232.789H232.421H232.053H231.686H231.318H230.95H230.582H230.215H229.847H229.479H229.111H228.744H228.376H228.008H227.64H227.273H226.905H226.537H226.169H225.802H225.434H225.066H224.698H224.331H223.963H223.595H223.227H222.86H222.492H222.124H221.756H221.389H221.021H220.653H220.285H219.918H219.55H219.182H218.814H218.447H218.079H217.711H217.343H216.976H216.608H216.24H215.872H215.505H215.137H214.769H214.401H214.033H213.666H213.298H212.93H212.562H212.195H211.827H211.459H211.091H210.724H210.356H209.988H209.62H209.253H208.885H208.517H208.149H207.782H207.414H207.046H206.678H206.311H205.943H205.575H205.207H204.84H204.472H204.104H203.736H203.369H203.001H202.633H202.265H201.898H201.53H201.162H200.794H200.427H200.059H199.691H199.323H198.956H198.588H198.22H197.852H197.485H197.117H196.749H196.381H196.013H195.646H195.278H194.91H194.542H194.175H193.807H193.439H193.071H192.704H192.336H191.968H191.6H191.233H190.865H190.497H190.129H189.762H189.394H189.026H188.658H188.291H187.923H187.555H187.187H186.82H186.452H186.084H185.716H185.349H184.981H184.613H184.245H183.878H183.51H183.142H182.774H182.407H182.039H181.671H181.303H180.936H180.568H180.2H179.832H179.465H179.097H178.729H178.361H177.993H177.626H177.258H176.89H176.522H176.022V210.187V467.772C176.022 495.798 183.773 512.968 199.559 518.834V520.399H95.4299V518.851C111.23 513.771 118.966 496.568 118.966 467.772V210.187ZM284.29 246.105V304.367C284.29 332.393 292.04 349.562 307.826 355.429V356.994H204.482V355.429C220.267 349.562 228.018 332.393 228.018 304.367V246.105H284.29Z" stroke="#B38339"/>
</svg>
