<svg width="270" height="62" viewBox="0 0 270 62" fill="none" xmlns="http://www.w3.org/2000/svg">
<path fill-rule="evenodd" clip-rule="evenodd" d="M25.4891 29.4588V34.6118C25.4891 37.0824 26.1913 38.5647 27.5956 39.0588V39.2706H18.2567V39.0588C19.661 38.5647 20.3632 37.0824 20.3632 34.6118V29.4588H25.4891ZM10.6029 48.9412V26.3529H3.9322C1.82567 26.3529 0.561743 28.4 0.210654 29.6H0L0.842615 22.4C11.4455 22.4 22.0484 22.4 32.6513 22.4C37.0751 22.4 39.6731 16.8941 36.3027 13.5059C35.3898 12.5882 34.0557 11.9529 32.6513 11.9529H25.5593C25.4189 14.3529 25.5593 16.8235 25.5593 19.2235H20.4334C20.4334 16.5412 21.5569 9.34118 18.3269 8.21176V8C23.1017 8 27.8765 8 32.6513 8C34.6876 8 36.5133 8.63529 38.0581 9.76471C38.4092 10.0471 38.7603 10.3294 39.1114 10.6824C42.6925 14.2824 42.6925 20.0706 39.1114 23.6706C37.4261 25.3647 35.109 26.3529 32.6513 26.3529C27.0339 26.3529 21.4165 26.3529 15.799 26.3529V48.9412C15.799 51.4118 16.5012 52.8941 17.9056 53.3882V53.6H8.49637V53.3882C9.90073 52.9647 10.6029 51.4824 10.6029 48.9412Z" fill="white"/>
<path fill-rule="evenodd" clip-rule="evenodd" d="M48.5908 0.635294C48.5908 0.494118 48.5908 0.352941 48.661 0.282353C48.7312 0.211765 48.8015 0.0705882 48.9419 0H47.678C47.8886 0.0705882 47.9589 0.282353 47.9589 0.564706V59.4353C47.9589 59.7176 47.8184 59.9294 47.678 60H48.9419C48.8015 59.9294 48.7312 59.8588 48.661 59.7176C48.5908 59.6471 48.5908 59.5059 48.5908 59.3647C48.5908 39.8118 48.5908 20.1882 48.5908 0.635294Z" fill="white"/>
<path fill-rule="evenodd" clip-rule="evenodd" d="M202.826 28.0613V17.0563H199.534C198.533 17.0563 197.889 18.0633 197.674 18.6387H197.603L198.032 15.1143H210.052L210.482 18.6387H210.41C210.196 18.0633 209.623 17.0563 208.55 17.0563H205.258V28.0613C205.258 29.2841 205.616 30.0034 206.332 30.2192V30.2911H201.752V30.2192C202.468 30.0034 202.826 29.2841 202.826 28.0613Z" fill="white"/>
<path fill-rule="evenodd" clip-rule="evenodd" d="M222.932 26.8385V17.344C222.932 16.1212 222.574 15.4019 221.93 15.1862V15.1142H226.509V15.1862C225.794 15.4019 225.507 16.1212 225.507 17.344V30.2911H223.003L222.001 28.9244L221.858 28.7086L219.569 25.4719L218.567 24.1052L218.424 23.8895L218.281 23.6737L217.995 23.2421L217.708 22.8105L217.494 22.4509L217.207 22.0193L216.921 21.5878L216.778 21.372L214.489 18.1352L213.988 17.4159L212.414 15.2581L212.27 15.0423L212.199 14.8984H214.703L215.705 16.2651L215.848 16.4809L218.138 19.7176L219.139 21.0843L219.282 21.3L219.426 21.5158L219.712 21.9474L219.998 22.379L220.213 22.7386L220.785 23.6017L220.928 23.8175L222.932 26.8385ZM212.127 28.0613V18.5668L213.344 20.2211L213.487 20.4369L214.059 21.3L214.274 21.6597L214.56 22.0913V28.1332C214.56 29.356 214.918 30.0753 215.562 30.2911V30.363H210.983V30.2911C211.77 30.0033 212.127 29.2841 212.127 28.0613Z" fill="white"/>
<path fill-rule="evenodd" clip-rule="evenodd" d="M160.539 28.0613V17.344C160.539 16.1213 160.181 15.402 159.466 15.1862V15.1143H166.478C167.48 15.1143 168.338 15.402 169.125 15.9774C169.34 16.1213 169.483 16.2651 169.626 16.409C171.343 18.1352 171.343 21.0124 169.626 22.7386C168.768 23.6018 167.623 24.0334 166.478 24.0334H164.546V22.0913H166.478C167.193 22.0913 167.837 21.8036 168.267 21.372C169.268 20.365 169.268 18.7826 168.267 17.7756C167.837 17.344 167.193 17.0563 166.478 17.0563H163.043C163.043 17.1282 163.043 17.2721 163.043 17.344V28.0613C163.043 29.2841 163.401 30.0034 164.117 30.2192V30.2911H159.537V30.2192C160.181 30.0034 160.539 29.2841 160.539 28.0613Z" fill="white"/>
<path fill-rule="evenodd" clip-rule="evenodd" d="M186.298 28.1331V17.4158C186.298 16.193 185.94 15.4737 185.296 15.258V15.186H192.308C193.309 15.186 194.168 15.4737 194.955 16.0492C195.17 16.193 195.313 16.3369 195.456 16.4807C197.173 18.207 197.173 21.0841 195.456 22.8104C194.74 23.5297 193.81 23.9613 192.809 24.1051L193.596 25.184L195.742 28.1331C196.601 29.3559 197.459 30.0752 198.318 30.2909L198.39 30.3629H193.739L193.667 30.2909C194.168 30.0752 194.025 29.3559 193.166 28.1331L190.304 24.1051V22.1631H192.236C192.952 22.1631 193.596 21.8754 194.025 21.4438C195.027 20.4368 195.027 18.8544 194.025 17.8474C193.596 17.4158 192.952 17.1281 192.236 17.1281H188.802C188.802 17.2 188.802 17.3439 188.802 17.4158V28.1331C188.802 29.3559 189.16 30.0752 189.803 30.2909V30.3629H185.224V30.2909C185.94 30.0032 186.298 29.284 186.298 28.1331Z" fill="white"/>
<path fill-rule="evenodd" clip-rule="evenodd" d="M240.247 28.0613V17.344C240.247 16.1213 239.889 15.402 239.245 15.1862V15.1143H246.257C247.259 15.1143 248.117 15.402 248.904 15.9774C249.119 16.1213 249.262 16.2651 249.405 16.409C251.123 18.1352 251.123 21.0124 249.405 22.7386C248.69 23.4579 247.76 23.8895 246.758 24.0334L247.545 25.1123L249.692 28.0613C250.55 29.2841 251.409 30.0034 252.267 30.2192L252.339 30.2911H247.76L247.688 30.2192C248.189 30.0034 248.046 29.2841 247.187 28.0613L244.325 24.0334V22.0913H246.257C246.973 22.0913 247.617 21.8036 248.046 21.372C249.048 20.365 249.048 18.7826 248.046 17.7756C247.617 17.344 246.973 17.0563 246.257 17.0563H242.823C242.823 17.1282 242.823 17.2721 242.823 17.344V28.0613C242.823 29.2841 243.18 30.0034 243.824 30.2192V30.2911H239.245V30.2192C239.889 30.0034 240.247 29.2841 240.247 28.0613Z" fill="white"/>
<path fill-rule="evenodd" clip-rule="evenodd" d="M234.451 23.5299H232.09V21.8755H234.451C235.238 21.8755 235.739 21.6597 235.882 21.1562H235.954V24.1772H235.882C235.668 23.7456 235.238 23.5299 234.451 23.5299ZM228.584 28.0613V17.344C228.584 16.1213 228.226 15.402 227.511 15.1862V15.1143H237.743L238.172 18.1352H238.1C237.886 17.5598 237.313 16.5528 236.24 16.5528H231.088C231.017 16.7686 231.017 17.0563 231.017 17.416V28.1333C231.017 28.421 231.017 28.7087 231.088 28.9964H236.24C237.242 28.9964 237.886 27.9894 238.1 27.414H238.172L237.743 30.435H227.511V30.363C228.226 30.0034 228.584 29.2841 228.584 28.0613Z" fill="white"/>
<path fill-rule="evenodd" clip-rule="evenodd" d="M170.199 28.1331L173.633 17.4158C173.991 16.193 173.919 15.4737 173.275 15.258V15.186H179.429V15.258C178.785 15.4737 178.713 16.193 179.071 17.4158L182.505 28.1331C182.863 29.3559 183.507 30.0752 184.223 30.2909V30.3629H179.643V30.2909C180.287 30.0752 180.359 29.3559 180.001 28.1331L178.999 25.0402H174.778L175.422 23.0981H178.427L176.567 17.4158C176.495 17.1281 176.352 16.9123 176.28 16.6965C176.209 16.9123 176.066 17.1281 175.994 17.4158L172.56 28.1331C172.202 29.3559 172.274 30.0752 172.918 30.2909V30.3629H168.338V30.2909C169.268 30.0032 169.841 29.284 170.199 28.1331Z" fill="white"/>
<path fill-rule="evenodd" clip-rule="evenodd" d="M252.84 18.7106C252.84 17.8475 253.126 17.0562 253.627 16.4808C254.128 15.9054 254.843 15.4019 255.702 15.1142C256.489 14.8265 257.347 14.6826 258.206 14.6826H258.492C259.494 14.6826 260.567 14.8265 261.712 15.1861L262.141 18.5667H262.07C261.426 16.9843 259.709 16.337 258.135 16.337C257.419 16.337 256.847 16.4808 256.346 16.7685C255.845 17.0562 255.559 17.4159 255.416 17.9194C255.344 18.1352 255.344 18.351 255.344 18.5667C255.344 19.1422 255.559 19.5737 255.916 19.8614C256.489 20.3649 257.276 20.7965 258.349 21.3719C260.066 22.2351 263 23.314 263 25.7596V25.9753C263 26.4069 262.928 26.8385 262.785 27.27C262.642 27.7016 262.428 28.0613 262.141 28.4209C261.569 29.1402 260.853 29.7156 259.923 30.0752C258.993 30.5068 257.92 30.6507 256.775 30.6507C255.63 30.6507 254.414 30.4349 253.054 30.0033L252.625 26.6227H252.697C253.484 28.6367 256.417 29.356 258.278 28.7805C258.635 28.7086 258.993 28.4928 259.422 28.277C260.138 27.9174 260.496 27.27 260.496 26.4788C260.496 25.3999 259.78 24.5368 258.278 23.8175C256.632 23.0263 254.915 22.3789 253.627 20.9404C253.054 20.293 252.768 19.5737 252.768 18.7106V18.7106H252.84Z" fill="white"/>
<path fill-rule="evenodd" clip-rule="evenodd" d="M150.164 26.8384L145.943 22.6666C140.362 26.1911 147.302 32.0892 150.164 26.8384ZM152.239 24.249L152.883 23.3859C153.527 22.5227 153.67 21.9473 153.241 21.8034L153.313 21.7315H156.89L156.819 21.8034C156.175 21.9473 155.531 22.5227 154.887 23.3859L153.456 25.3999C153.098 24.9683 152.669 24.6086 152.239 24.249ZM144.583 21.228C143.009 19.7895 141.864 17.5597 143.582 15.7615C143.868 15.4738 144.226 15.186 144.583 15.0422C145.37 14.6826 147.016 14.6826 147.803 15.0422C148.161 15.186 148.519 15.4738 148.805 15.7615C149.377 16.3369 149.664 17.0562 149.664 17.9193C149.664 18.9263 149.306 19.7895 148.59 20.5807L147.302 19.286C147.66 18.7825 147.875 18.3509 147.875 17.7755C147.875 17.3439 147.732 16.9123 147.445 16.6965C146.873 16.193 145.657 16.193 145.084 16.6965C144.87 16.9123 144.727 17.2 144.655 17.5597C144.655 18.279 145.514 19.214 145.943 19.6456C148.232 21.8754 150.451 24.249 152.883 26.3349C153.813 27.1261 154.815 27.9173 155.817 28.5647C156.819 29.212 157.82 29.8594 158.965 30.3629H155.674C155.173 30.3629 154.672 30.219 154.243 30.0033C154.028 29.8594 153.742 29.7875 153.527 29.5717C153.313 29.4278 153.026 29.212 152.74 28.9963L151.452 27.9893C150.594 29.6436 148.662 30.6506 146.873 30.6506C143.009 30.7225 138.43 25.6876 144.583 21.228Z" fill="white"/>
<path fill-rule="evenodd" clip-rule="evenodd" d="M62.2232 28.0493V16.9723H58.9319C57.9302 16.9723 57.2862 17.9793 57.0715 18.5548H57L57.4293 15.0303H69.4498L69.8791 18.5548H69.8076C69.5929 17.9793 69.0205 16.9723 67.9473 16.9723H64.6559V27.9773C64.6559 29.2001 65.0137 29.9194 65.7292 30.1352V30.2071H61.1499V30.1352C61.8655 29.9913 62.2232 29.2721 62.2232 28.0493Z" fill="white"/>
<path fill-rule="evenodd" clip-rule="evenodd" d="M97.927 26.8263V17.3318C97.927 16.109 97.5693 15.3897 96.8538 15.1739V15.102H101.433V15.1739C100.718 15.3897 100.36 16.109 100.36 17.3318V30.2789H97.8555L96.8538 28.9122L96.7107 28.6964L94.421 25.4597L93.4193 24.093L93.2762 23.8773L93.1331 23.6615L92.8469 23.2299L92.5607 22.7983L92.3461 22.4387L91.7737 21.5756L91.6306 21.3598L89.3409 18.123L88.8401 17.4037L87.266 15.2459L87.1229 15.0301L87.0513 14.8862H89.5556L90.5573 16.2529L90.7004 16.4687L92.99 19.7054L93.9917 21.0721L94.1348 21.2878L94.2779 21.5036L94.8503 22.3668L95.065 22.7264L95.3512 23.158L95.6374 23.5895L95.7805 23.8053L97.927 26.8263ZM87.0513 28.0491V18.5546L88.2677 20.2089L88.4108 20.4247L88.9832 21.2878L89.1978 21.6475L89.484 22.0791V28.121C89.484 29.3438 89.8418 30.0631 90.4857 30.2789V30.3508H85.9065V30.2789C86.6936 29.9912 87.0513 29.2719 87.0513 28.0491Z" fill="white"/>
<path fill-rule="evenodd" clip-rule="evenodd" d="M118.176 28.0496V17.3323C118.176 16.1095 117.818 15.3903 117.174 15.1745V15.1025H121.754V15.1745C121.038 15.3903 120.752 16.1095 120.752 17.3323V28.0496C120.752 29.2724 121.11 29.9917 121.754 30.2075V30.2794H117.103V30.2075C117.818 29.9917 118.176 29.2724 118.176 28.0496Z" fill="white"/>
<path fill-rule="evenodd" clip-rule="evenodd" d="M103.508 28.0493V17.332C103.508 16.1092 103.15 15.3899 102.506 15.1741V15.1022H107.086V15.1741C106.37 15.3899 106.084 16.1092 106.084 17.332V28.0493C106.084 29.2721 106.442 29.9913 107.086 30.2071V30.279H102.506V30.2071C103.15 29.9913 103.508 29.2721 103.508 28.0493ZM106.799 22.6547L110.592 17.26C111.45 16.0373 111.593 15.318 111.092 15.1022L111.164 15.0303H116.029L115.958 15.1022C115.099 15.318 114.241 16.0373 113.382 17.26L109.59 22.6547L113.382 28.0493C114.241 29.2721 115.099 29.9913 115.958 30.2071L116.029 30.279H111.164L111.092 30.2071C111.593 29.9913 111.45 29.2721 110.592 28.0493L106.799 22.6547Z" fill="white"/>
<path fill-rule="evenodd" clip-rule="evenodd" d="M132.915 20.9287L135.491 17.3323C136.35 16.1095 137.209 15.3903 138.067 15.1745L138.139 15.1025H133.559L133.488 15.1745C133.989 15.3903 133.846 16.1095 132.987 17.3323L131.628 19.2024L132.915 20.9287ZM130.411 20.9287L129.123 19.1305L127.835 17.3323C126.977 16.1095 126.834 15.3903 127.335 15.1745L127.263 15.1025H122.684L122.755 15.1745C123.614 15.3903 124.472 16.1095 125.331 17.3323L129.123 22.7269V28.1215C129.123 29.3443 128.766 30.0636 128.122 30.2794V30.3513H132.701V30.2794C131.985 30.0636 131.699 29.3443 131.699 28.1215V22.655L130.411 20.9287Z" fill="white"/>
<path fill-rule="evenodd" clip-rule="evenodd" d="M77.9644 16.9007C80.7549 16.9007 83.0445 19.4902 83.0445 22.655C83.0445 25.8198 80.7549 28.4092 77.9644 28.4092C75.1739 28.4092 72.8843 25.8198 72.8843 22.655C72.8843 19.4902 75.1739 16.9007 77.9644 16.9007ZM77.9644 15.1025C82.1144 15.1025 85.5488 18.4832 85.5488 22.7269C85.5488 26.8988 82.1859 30.3513 77.9644 30.3513C73.8145 30.3513 70.38 26.9707 70.38 22.7269C70.4516 18.4832 73.8145 15.1025 77.9644 15.1025Z" fill="white"/>
<path fill-rule="evenodd" clip-rule="evenodd" d="M62.989 44.353C62.989 45.6935 63.3527 46.7902 63.9588 47.5213C64.5649 48.2525 65.4134 48.6181 66.3831 48.6181C67.4741 48.6181 68.2014 48.2525 68.8075 47.5213C69.4136 46.7902 69.7773 45.6935 69.7773 44.2312C69.7773 42.8907 69.4136 41.794 68.8075 41.0629C68.2014 40.3317 67.3529 39.8443 66.3831 39.8443C65.2922 39.8443 64.4436 40.2099 63.8375 41.0629C63.3527 41.9159 62.989 42.8907 62.989 44.353ZM58.1403 38.8694H59.5949V43.7437H61.6556C61.7768 42.1596 62.2617 40.941 63.1102 40.088C63.9588 39.235 65.1709 38.7476 66.3831 38.7476C67.8378 38.7476 68.9287 39.235 69.8985 40.2099C70.8682 41.1847 71.2319 42.5252 71.2319 44.2312C71.2319 45.9372 70.747 47.3995 69.8985 48.3743C68.9287 49.3492 67.8378 49.8367 66.3831 49.8367C65.0497 49.8367 63.9588 49.3492 63.1102 48.4962C62.2617 47.6432 61.7768 46.4246 61.5344 44.9623H59.4737V49.5929H58.019V38.8694H58.1403Z" fill="#C9881C"/>
<path fill-rule="evenodd" clip-rule="evenodd" d="M74.6259 43.9877H77.4139C78.3837 43.9877 78.9898 43.8658 79.3534 43.5002C79.7171 43.1347 79.9595 42.6472 79.9595 42.0379C79.9595 41.5505 79.8383 41.1849 79.5959 40.9412C79.3534 40.5756 79.111 40.4538 78.7473 40.3319C78.5049 40.2101 78.02 40.2101 77.4139 40.2101H74.6259V43.9877ZM73.1713 49.715V38.8696H77.1715C77.8988 38.8696 78.3837 38.8696 78.7473 38.9915C79.2322 39.1133 79.7171 39.2352 80.0808 39.4789C80.4444 39.7226 80.6868 40.0882 80.9293 40.5756C81.1717 41.0631 81.2929 41.5505 81.2929 42.0379C81.2929 43.0128 81.0505 43.744 80.4444 44.3533C79.8383 44.9625 78.8686 45.3281 77.2927 45.3281H74.6259V49.715H73.1713V49.715Z" fill="#C9881C"/>
<path fill-rule="evenodd" clip-rule="evenodd" d="M83.2325 38.8696H84.5659V47.3997L90.2632 38.8696H91.7179V49.715H90.3845V41.1849L84.6872 49.715H83.2325V38.8696Z" fill="#C9881C"/>
<path fill-rule="evenodd" clip-rule="evenodd" d="M100.082 40.2101H96.3242V40.8194C96.3242 41.7942 96.203 43.0128 96.0817 44.597C95.9605 46.1811 95.5969 47.5216 95.112 48.4964H100.082V40.2101ZM94.9908 38.8696H101.537V48.3746H102.506V52.1522H101.294V49.5932H94.1422V52.1522H92.9301V48.3746H93.7786C94.6271 47.0341 95.112 44.3532 95.112 40.4538V38.8696H94.9908Z" fill="#C9881C"/>
<path fill-rule="evenodd" clip-rule="evenodd" d="M104.203 38.8696H105.416V47.3997L111.234 38.8696H112.567V49.715H111.355V41.1849L105.658 49.715H104.203V38.8696Z" fill="#C9881C"/>
<path fill-rule="evenodd" clip-rule="evenodd" d="M122.629 49.7152H121.174V45.3283C119.841 45.8158 118.75 46.0595 117.78 46.0595C117.053 46.0595 116.325 45.9376 115.84 45.572C115.234 45.2065 114.871 44.719 114.749 44.2316C114.507 43.7442 114.507 43.013 114.507 42.16V38.9917H115.962V42.0382C115.962 43.2567 116.204 43.9879 116.568 44.3535C117.053 44.719 117.537 44.9628 118.144 44.9628C119.113 44.9628 120.204 44.719 121.295 44.3535V39.1136H122.75V49.7152H122.629Z" fill="#C9881C"/>
<path fill-rule="evenodd" clip-rule="evenodd" d="M124.932 49.715V38.8696H132.69V40.2101H126.387V43.5002H132.326V44.7188H126.387V48.3746H132.932V49.715H124.932Z" fill="#C9881C"/>
<path fill-rule="evenodd" clip-rule="evenodd" d="M142.509 45.9372L143.963 46.3028C143.721 47.5213 143.115 48.3743 142.387 48.9836C141.66 49.5929 140.69 49.9585 139.599 49.9585C138.387 49.9585 137.539 49.7148 136.811 49.2274C136.084 48.7399 135.599 48.0088 135.114 47.1558C134.751 46.3028 134.508 45.3279 134.508 44.2312C134.508 43.1344 134.751 42.1596 135.114 41.3066C135.599 40.4536 136.205 39.8443 136.933 39.3568C137.66 38.8694 138.63 38.7476 139.478 38.7476C140.569 38.7476 141.418 38.9913 142.145 39.6006C142.872 40.2099 143.357 40.941 143.721 41.9159L142.387 42.2814C142.145 41.5503 141.781 40.941 141.296 40.5754C140.812 40.2099 140.205 40.088 139.478 40.088C138.63 40.088 138.024 40.3317 137.417 40.6973C136.811 41.0629 136.448 41.6722 136.205 42.2814C135.963 43.0126 135.842 43.6219 135.842 44.353C135.842 45.3279 135.963 46.059 136.205 46.7902C136.448 47.5213 136.933 48.0088 137.417 48.3743C138.024 48.7399 138.63 48.8618 139.236 48.8618C140.084 48.8618 140.69 48.6181 141.296 48.1306C142.024 47.5213 142.387 46.7902 142.509 45.9372Z" fill="#C9881C"/>
<path fill-rule="evenodd" clip-rule="evenodd" d="M145.781 38.8696H147.236V43.6221C147.842 43.6221 148.327 43.5002 148.57 43.2565C148.812 43.0128 149.176 42.4035 149.539 41.4287C149.782 40.6975 150.024 40.2101 150.267 39.9663C150.509 39.7226 150.751 39.4789 151.115 39.2352C151.479 38.9915 151.842 38.9915 152.327 38.9915C152.933 38.9915 153.176 38.9915 153.176 38.9915V40.2101C153.176 40.2101 153.055 40.2101 152.933 40.2101C152.812 40.2101 152.691 40.2101 152.691 40.2101C152.206 40.2101 151.842 40.3319 151.721 40.5756C151.479 40.8194 151.236 41.3068 150.994 42.0379C150.63 43.0128 150.388 43.5002 150.024 43.744C149.782 43.9877 149.418 44.1095 149.176 44.3533C149.903 44.597 150.509 45.2063 151.236 46.303L153.418 49.9587H151.6L149.782 47.0341C149.297 46.1811 148.933 45.6937 148.57 45.3281C148.206 44.9625 147.842 44.8407 147.236 44.8407V49.8369H145.781V38.8696Z" fill="#C9881C"/>
<path fill-rule="evenodd" clip-rule="evenodd" d="M156.327 45.2063H159.964L158.873 42.1598C158.509 41.3068 158.267 40.4538 158.146 39.8445C158.025 40.5756 157.782 41.1849 157.54 41.9161L156.327 45.2063ZM153.297 49.715L157.418 38.8696H158.994L163.358 49.715H161.782L160.57 46.4248H156.085L154.873 49.715H153.297Z" fill="#C9881C"/>
<path fill-rule="evenodd" clip-rule="evenodd" d="M171.48 43.6221H168.449C167.843 43.6221 167.237 43.5002 166.874 43.3784C166.51 43.2565 166.267 43.0128 166.025 42.7691C165.783 42.5254 165.783 42.1598 165.783 41.7942C165.783 41.3068 165.904 40.8194 166.389 40.5756C166.752 40.2101 167.358 40.0882 168.086 40.0882H171.48V43.6221V43.6221ZM172.934 49.715V38.8696H168.207C167.237 38.8696 166.51 38.9915 166.025 39.1133C165.54 39.3571 165.176 39.6008 164.813 40.0882C164.57 40.5756 164.328 41.0631 164.328 41.6724C164.328 42.4035 164.57 43.1347 165.055 43.6221C165.54 44.1095 166.267 44.4751 167.358 44.597C166.995 44.7188 166.752 44.9625 166.51 45.0844C166.146 45.45 165.661 45.9374 165.298 46.5467L163.479 49.4713H165.298L166.752 47.2778C167.116 46.6685 167.48 46.1811 167.722 45.8155C167.964 45.45 168.207 45.2063 168.449 45.0844C168.692 44.9625 168.934 44.8407 169.055 44.8407C169.177 44.8407 169.419 44.8407 169.783 44.8407H171.48V49.5931H172.934V49.715Z" fill="#C9881C"/>
<path fill-rule="evenodd" clip-rule="evenodd" d="M179.48 38.8696H180.935V43.6221C181.541 43.6221 182.026 43.5002 182.268 43.2565C182.511 43.0128 182.874 42.4035 183.238 41.4287C183.481 40.6975 183.723 40.2101 183.965 39.9663C184.208 39.7226 184.45 39.4789 184.814 39.2352C185.178 38.9915 185.541 38.9915 186.026 38.9915C186.632 38.9915 186.875 38.9915 186.875 38.9915V40.2101C186.875 40.2101 186.753 40.2101 186.632 40.2101C186.511 40.2101 186.39 40.2101 186.39 40.2101C185.905 40.2101 185.541 40.3319 185.42 40.5756C185.178 40.8194 184.935 41.3068 184.693 42.0379C184.329 43.0128 184.087 43.5002 183.723 43.744C183.481 43.9877 183.238 44.1095 182.874 44.3533C183.602 44.597 184.208 45.2063 184.935 46.303L187.117 49.9587H185.299L183.481 47.0341C182.996 46.1811 182.632 45.6937 182.268 45.3281C181.905 44.9625 181.541 44.8407 180.935 44.8407V49.8369H179.48V38.8696Z" fill="#C9881C"/>
<path fill-rule="evenodd" clip-rule="evenodd" d="M189.057 44.4751C189.057 45.8155 189.42 46.7904 190.148 47.5216C190.875 48.2527 191.723 48.6183 192.814 48.6183C193.905 48.6183 194.754 48.2527 195.481 47.5216C196.208 46.7904 196.572 45.6937 196.572 44.3533C196.572 43.5002 196.451 42.6472 196.087 42.0379C195.845 41.4287 195.36 40.8194 194.754 40.5756C194.148 40.2101 193.542 40.0882 192.814 40.0882C191.845 40.0882 190.996 40.4538 190.269 41.1849C189.42 41.6724 189.057 42.7691 189.057 44.4751ZM187.602 44.4751C187.602 42.6472 188.087 41.3068 189.057 40.3319C190.026 39.3571 191.238 38.8696 192.814 38.8696C193.784 38.8696 194.754 39.1133 195.481 39.6008C196.33 40.0882 196.936 40.6975 197.299 41.5505C197.663 42.4035 197.906 43.3784 197.906 44.4751C197.906 45.5718 197.663 46.5467 197.299 47.3997C196.815 48.2527 196.208 48.862 195.481 49.3494C194.633 49.8369 193.784 49.9587 192.814 49.9587C191.845 49.9587 190.875 49.715 190.148 49.2276C189.299 48.7401 188.693 48.1308 188.329 47.2778C187.844 46.303 187.602 45.3281 187.602 44.4751Z" fill="#C9881C"/>
<path fill-rule="evenodd" clip-rule="evenodd" d="M199.724 49.715V38.8696H201.906L204.451 46.5467C204.694 47.2778 204.815 47.7653 204.936 48.1309C205.058 47.7653 205.3 47.156 205.542 46.4248L208.088 38.8696H210.027V49.715H208.694V40.6975L205.542 49.715H204.209L201.057 40.5756V49.715H199.724Z" fill="#C9881C"/>
<path fill-rule="evenodd" clip-rule="evenodd" d="M212.209 38.8696H220.574V49.715H219.24V40.2101H213.664V49.715H212.209V38.8696Z" fill="#C9881C"/>
<path fill-rule="evenodd" clip-rule="evenodd" d="M224.816 45.2063H228.453L227.362 42.1598C226.998 41.3068 226.756 40.4538 226.634 39.8445C226.513 40.5756 226.271 41.1849 226.028 41.9161L224.816 45.2063ZM221.786 49.715L225.907 38.8696H227.483L231.847 49.715H230.271L229.059 46.4248H224.574L223.361 49.715H221.786Z" fill="#C9881C"/>
<path fill-rule="evenodd" clip-rule="evenodd" d="M233.059 49.715V38.8696H234.392V43.3784H239.969V38.8696H241.423V49.715H239.969V44.597H234.392V49.715H233.059Z" fill="#C9881C"/>
<path fill-rule="evenodd" clip-rule="evenodd" d="M243.848 38.8696H245.06V47.3997L250.878 38.8696H252.212V49.715H250.878V41.1849L245.181 49.715H243.848V38.8696Z" fill="#C9881C"/>
<path fill-rule="evenodd" clip-rule="evenodd" d="M261.667 43.6221H258.636C258.03 43.6221 257.545 43.5002 257.06 43.3784C256.697 43.2565 256.454 43.0128 256.212 42.7691C255.969 42.5254 255.969 42.1598 255.969 41.7942C255.969 41.3068 256.212 40.8194 256.576 40.5756C256.939 40.2101 257.545 40.0882 258.273 40.0882H261.667V43.6221V43.6221ZM263 49.715V38.8696H258.273C257.303 38.8696 256.576 38.9915 256.091 39.1133C255.606 39.3571 255.242 39.6008 254.878 40.0882C254.636 40.5756 254.394 41.0631 254.394 41.6724C254.394 42.4035 254.636 43.1347 255.121 43.6221C255.606 44.1095 256.333 44.4751 257.424 44.597C257.06 44.7188 256.818 44.9625 256.576 45.0844C256.212 45.45 255.727 45.9374 255.363 46.5467L253.545 49.4713H255.363L256.818 47.2778C257.182 46.6685 257.545 46.1811 257.788 45.8155C258.03 45.45 258.273 45.2063 258.515 45.0844C258.757 44.9625 259 44.8407 259.121 44.8407C259.242 44.8407 259.485 44.8407 259.97 44.8407H261.667V49.5931H263V49.715Z" fill="#C9881C"/>
</svg>
