<svg width="140" height="130" viewBox="0 0 140 130" fill="none" xmlns="http://www.w3.org/2000/svg">
<path d="M8.6317 64.5423L4.81635 60.6854L1.00099 64.5423L4.81634 68.3992L8.6317 64.5423Z" stroke="#B38339" stroke-width="0.719101" stroke-miterlimit="10" stroke-linecap="round" stroke-linejoin="round"/>
<path d="M65.2863 125.404C38.3481 125.404 15.5734 107.384 8.11462 82.6179M122.872 48.8202C115.875 23.3164 92.7432 4.59546 65.2863 4.59546C38.3481 4.59546 15.5734 22.6157 8.11462 47.382" stroke="#B38339" stroke-width="0.719101" stroke-linecap="round"/>
<path d="M65.1583 129C36.6043 129 12.4636 109.907 4.5574 83.6667M126.198 47.8571C118.781 20.8352 94.2621 1 65.1583 1C36.6043 1 12.4636 20.0928 4.5574 46.3333" stroke="#B38339" stroke-width="1.79775" stroke-linecap="round"/>
<path d="M138.822 78.5529C138.702 78.5529 138.702 78.614 138.642 78.6752L138.582 78.7363C137.8 79.4702 137.319 80.5098 136.658 81.3048C135.877 82.161 134.855 82.7725 134.013 83.5675C131.369 85.8914 128.904 88.5211 127.221 91.7011C127.221 91.7011 127.221 91.7622 127.161 91.7622C126.019 94.3919 125.418 97.2662 124.396 99.957C124.095 100.63 123.735 101.364 123.254 101.853C122.593 102.525 121.751 102.892 121.09 103.443C120.369 104.177 119.888 105.155 119.046 105.828C117.604 106.99 115.861 107.662 114.298 108.58C121.511 100.935 127.462 91.7622 130.046 81.4271V81.366C130.347 80.3264 130.767 79.3479 131.248 78.3694C131.369 78.0636 131.549 77.819 131.669 77.5133C134.013 72.8655 135.155 65.7104 131.849 61.2462C131.609 60.8792 131.429 60.5735 131.248 60.2065C131.248 60.2065 131.248 60.2065 131.248 60.2677C131.008 59.8396 130.647 59.4115 130.407 58.9834C130.347 59.0446 130.287 58.9834 130.227 58.8611C130.227 58.8611 130.227 58.8611 130.227 58.9223C130.106 58.8 130.046 58.6165 129.986 58.433C129.986 58.3719 129.926 58.3107 129.926 58.2496C129.746 57.8215 129.686 56.2315 129.445 57.6992V57.7603C129.445 57.8215 129.445 57.8827 129.445 57.9438C129.445 59.2281 129.986 60.4511 130.527 61.6131C130.948 63.5089 131.248 65.527 131.068 67.4839C130.707 70.4805 129.084 73.2324 129.565 76.3513C129.565 76.4125 129.565 76.4736 129.565 76.4736C129.625 81.5494 127.942 86.2583 125.718 90.7838C125.538 87.1145 125.057 83.3841 125.839 79.7148C126.921 75.6786 126.319 71.8259 125.358 67.8508C125.237 67.6062 124.757 65.7104 124.576 66.5054C124.276 72.9878 119.046 76.3513 121.631 83.751V83.8122C121.631 83.8122 121.631 83.8122 121.631 83.751C122.292 85.341 122.833 87.0534 123.795 88.4599C124.156 89.1938 124.456 89.9888 124.757 90.7226V90.6615C124.817 90.7838 124.817 90.9061 124.877 91.0896C124.877 91.0896 124.877 91.0896 124.877 91.0284V91.0896C124.877 91.0896 124.877 91.0896 124.877 91.0284C125.598 92.863 122.352 96.8381 121.33 98.5504C117.123 104.482 112.314 110.109 106.484 114.512C111.232 109.925 111.232 104.299 114.057 98.9173V98.8562C114.057 98.8562 114.057 98.795 114.117 98.795C114.117 98.795 114.117 98.795 114.117 98.8562C114.839 97.6331 115.079 96.1654 115.5 94.82C116.041 93.4134 116.702 92.068 116.822 90.5392C117.063 88.3376 116.341 85.8914 116.822 83.5675C117.303 80.5098 116.882 82.0387 115.981 83.6287C114.718 85.5245 113.276 87.298 112.194 89.3161C112.194 89.3161 112.194 89.3161 112.194 89.3772C112.194 89.3772 112.194 89.3772 112.194 89.4384C110.451 92.9242 107.926 96.41 109.309 100.507C110.09 102.77 111.112 105.094 110.27 107.54C110.27 107.601 110.27 107.662 110.21 107.662C110.21 107.662 110.21 107.662 110.21 107.601V107.662C109.97 108.152 109.79 108.702 109.549 109.191C109.549 109.191 109.549 109.13 109.609 109.13C109.609 109.191 109.549 109.191 109.549 109.252C109.549 109.252 109.549 109.314 109.489 109.314C108.227 111.882 106.243 113.961 104.32 116.041C102.637 117.936 100.232 119.098 98.0683 120.321C98.0683 120.321 98.0082 120.321 98.0082 120.383H98.0683C92.8388 122.951 87.4892 125.397 81.7788 126.804C80.9974 127.171 79.9154 127.11 79.3144 127.721C79.0739 128.088 79.5548 128.333 79.8553 128.271H79.7952C79.8553 128.271 79.8553 128.271 79.9154 128.271C80.0357 128.271 80.1559 128.271 80.2761 128.21C81.2979 127.966 82.2597 127.66 83.2815 127.415H83.2214C85.5657 126.804 87.7897 125.397 90.3143 125.52H90.2542C94.3416 125.52 98.0082 127.66 101.975 128.21C104.74 128.516 107.325 127.354 109.729 126.07C113.817 124.663 116.882 121.667 120.008 118.731C123.134 115.551 126.86 113.227 130.948 111.576C131.609 111.332 132.33 111.026 132.992 110.965H133.052C133.112 110.965 133.172 110.904 133.112 110.842C129.265 110.537 125.177 110.598 121.511 112.066C121.511 112.066 121.511 112.066 121.571 112.066C118.926 113.044 116.522 114.512 114.057 115.796H114.117C109.008 118.364 104.44 121.973 99.3907 124.725C96.5656 125.397 93.4399 124.969 90.4946 125.03C90.4345 125.03 90.3744 125.03 90.3143 125.03C94.9426 123.012 99.7514 121.116 103.839 117.936C106.544 116.102 109.249 114.206 111.533 111.943C112.314 111.148 113.096 110.414 113.997 109.742C116.221 108.519 118.565 107.357 121.09 106.867C123.735 106.256 126.019 104.727 128.183 103.198C132.631 100.14 134.073 94.6977 135.516 89.7442C136.778 86.1972 137.981 82.6502 139.002 79.0421C138.822 78.7363 138.882 78.614 138.822 78.5529ZM130.287 59.9008C130.647 60.4511 130.948 61.0627 131.308 61.6131C131.429 61.7965 131.549 61.98 131.669 62.1635C133.953 65.4047 133.352 69.4409 132.751 73.1713C132.39 74.9448 131.549 76.5959 130.767 78.2471C130.948 77.4521 131.248 76.7182 131.489 75.9844C132.09 73.844 132.871 71.6424 132.691 69.3185C132.691 69.0739 132.631 68.8905 132.631 68.6458V68.5847C132.451 67.0558 132.511 65.527 132.03 64.0593C132.03 64.0593 132.03 64.0593 132.03 63.9981C132.03 63.937 131.97 63.8758 131.97 63.7535V63.8146C131.91 63.5089 131.789 63.2643 131.669 63.0196V62.9585C131.489 62.6527 131.308 62.3469 131.188 61.98C131.188 61.98 131.188 61.98 131.188 61.9189C131.008 61.2462 130.587 60.5735 130.287 59.9008ZM130.046 73.4771C130.888 70.2359 132.15 66.9947 131.369 63.6312C132.03 65.3435 131.91 67.2393 132.03 69.0128C132.09 69.8689 132.03 70.7863 131.91 71.6424V71.5813C131.489 74.0274 130.527 76.3513 129.926 78.7975C129.926 78.7363 129.926 78.6752 129.926 78.614C130.166 76.9017 129.806 75.1894 130.046 73.4771ZM124.336 88.1541C124.336 88.1541 124.336 88.093 124.276 88.093C124.276 88.093 124.336 88.093 124.336 88.1541ZM124.516 88.4599C121.751 84.2402 120.429 78.4306 123.194 73.9051C123.795 72.682 124.095 71.3366 124.576 70.1136C124.576 70.4805 124.636 70.8474 124.636 71.2755V71.2143C124.636 71.3978 124.636 71.5813 124.636 71.7647C124.636 73.4771 124.937 75.2505 124.336 76.9017C122.953 80.7544 123.675 84.7295 124.576 88.5822C124.516 88.4599 124.516 88.4599 124.516 88.4599ZM124.817 76.9629C125.778 74.2721 124.636 71.3978 124.997 68.707C125.298 71.092 126.199 73.3547 126.019 75.8009C125.358 80.1429 124.516 84.546 125.237 88.888C124.336 84.9741 123.615 80.9379 124.817 76.9629ZM116.221 87.5426C116.582 90.0499 116.101 92.435 115.019 94.6977C114.538 96.1654 114.298 97.6942 113.516 99.0396V99.1008C113.336 99.4677 113.156 99.7735 112.975 100.14C112.975 100.14 112.975 100.14 112.975 100.079C113.035 99.5289 113.156 98.9785 113.276 98.4281C113.697 95.8596 114.057 93.2911 114.598 90.7226V90.7838C114.959 88.888 115.44 87.0534 116.101 85.2799C116.041 86.0749 116.161 86.8087 116.221 87.5426ZM109.489 97.5719C109.489 96.1042 110.15 94.82 110.751 93.5357C111.833 90.7838 113.396 88.2764 114.959 85.8303C115.259 85.341 115.56 84.7906 115.921 84.3014C113.276 90.7838 113.156 97.9389 111.112 104.605C111.112 104.544 111.112 104.421 111.112 104.299C110.811 102.036 109.369 100.018 109.489 97.5719ZM103.117 123.318C103.117 123.379 103.117 123.379 103.117 123.318C103.598 123.012 104.139 122.645 104.68 122.278C105.522 121.667 106.243 120.933 107.085 120.383C107.085 120.383 107.085 120.383 107.025 120.444C107.265 120.321 107.445 120.138 107.626 120.016C107.806 119.893 107.926 119.771 108.106 119.649C108.106 119.649 108.106 119.649 108.046 119.71C108.167 119.588 108.347 119.465 108.527 119.404C108.527 119.404 108.527 119.404 108.467 119.465C108.527 119.404 108.647 119.343 108.708 119.282C108.708 119.282 108.708 119.282 108.647 119.282C113.817 116.102 119.166 112.922 125.117 111.454C125.117 111.454 125.117 111.454 125.177 111.454C126.44 111.271 127.762 111.148 129.084 110.965C128.964 110.965 128.844 111.026 128.724 111.026C126.86 111.515 125.057 112.188 123.374 113.105C123.314 113.166 123.194 113.166 123.134 113.227C122.893 113.35 122.713 113.472 122.533 113.594H122.593C120.789 114.512 119.166 115.796 117.423 116.897C117.423 116.897 117.423 116.897 117.483 116.897C117.483 116.897 117.423 116.897 117.423 116.958C117.423 116.958 117.363 116.958 117.363 117.019H117.303C117.303 117.019 117.303 117.019 117.243 117.019H117.183C117.183 117.019 117.243 117.019 117.243 116.958C112.615 119.404 107.686 121.239 102.997 123.44C103.057 123.379 103.117 123.379 103.117 123.318ZM107.626 121.911C111.112 120.627 114.418 118.976 117.724 117.264C119.707 115.979 121.571 114.512 123.735 113.411H123.795C125.899 112.31 128.183 111.515 130.467 110.965C130.407 110.965 130.347 111.026 130.287 111.026C126.199 112.738 122.533 115.184 119.407 118.303C119.407 118.303 119.407 118.303 119.467 118.242C118.385 119.282 117.183 120.199 116.101 121.239L116.161 121.178C113.035 124.174 108.828 125.825 104.8 127.232C101.495 128.027 98.2486 126.498 95.1831 125.336C99.6311 125.886 103.598 123.746 107.626 121.911ZM127.221 93.1688C128.964 88.4599 132.871 85.1576 136.598 82.0387C132.871 88.1541 129.145 94.3919 124.997 100.263C125.778 97.9389 126.38 95.5538 127.221 93.1688ZM120.91 104.238C121.511 103.382 122.352 102.831 123.194 102.281C122.352 103.076 121.511 103.81 120.729 104.605C120.789 104.482 120.85 104.36 120.91 104.238ZM135.997 85.4022C135.997 85.4633 135.997 85.5245 135.937 85.5856C134.013 90.7226 133.292 96.5323 129.565 100.691C127.462 102.831 124.817 104.421 122.112 105.522C121.992 105.522 121.871 105.583 121.751 105.583C121.15 105.705 120.549 105.828 119.948 105.95C120.008 105.889 120.068 105.889 120.128 105.828C124.636 102.525 127.582 97.6942 130.407 92.9242C132.511 89.2549 134.975 85.8914 136.959 82.161C136.718 83.2006 136.298 84.3014 135.997 85.4022Z" fill="#B38339"/>
</svg>
