<?xml version="1.0" encoding="utf-8"?>
<!-- Generator: Adobe Illustrator 24.3.0, SVG Export Plug-In . SVG Version: 6.00 Build 0)  -->
<svg version="1.1" id="Layer_1" xmlns="http://www.w3.org/2000/svg" xmlns:xlink="http://www.w3.org/1999/xlink" x="0px" y="0px"
	 width="165.743px" height="1088.71px" viewBox="0 0 165.743 1088.71" enable-background="new 0 0 165.743 1088.71"
	 xml:space="preserve">
<path fill="none" stroke="#83CDF1" stroke-width="5.5" stroke-linecap="round" stroke-linejoin="round" stroke-dasharray="0.2,10" d="
	M10.959,1085.96c1.403-29.846,5.016-59.546,10.809-88.856C63.48,783.612,184.555,590.141,159.65,366.339
	C144.367,232.334,89.776,105.83,2.75,2.75"/>
<path fill="#FFFFFF" stroke="#141C25" d="M126.578,665.801c-0.82,17.292-12.152,60.91-25.588,63.674
	c-8.932-10.169,6.985-49.069,16.064-66.741L126.578,665.801z"/>
<path fill="#141C25" stroke="#141C25" d="M124.475,667.787c-1.739,15.696-12.792,55.903-22.643,59.295
	c-5.751-8.604,8.288-44.849,15.995-61.436L124.475,667.787z"/>
<path fill="#FFFFFF" stroke="#141C25" stroke-width="3" d="M98.404,705.67c7.389,5.176,15.547,6.172,18.703,6.022l1.408-4.374
	l-9.351-3.011l-9.351-3.011L98.404,705.67z"/>
<rect x="108.887" y="689.15" transform="matrix(0.3065 -0.9519 0.9519 0.3065 -575.3979 590.1101)" fill="#FFFFFF" width="16.796" height="1.585"/>
<rect x="102.552" y="687.11" transform="matrix(0.3065 -0.9519 0.9519 0.3065 -577.8494 582.6656)" fill="#FFFFFF" width="16.796" height="1.585"/>
<rect x="102.126" y="699.133" transform="matrix(0.3065 -0.9519 0.9519 0.3065 -589.7401 590.7072)" fill="#FFFFFF" width="16.796" height="1.901"/>
<path fill="#FFFFFF" d="M120.767,677.58c-0.268,0.833-1.161,1.291-1.994,1.023l-2.413-0.777c-0.833-0.268-1.291-1.161-1.023-1.994
	l2.428-7.541l5.43,1.748L120.767,677.58z"/>
</svg>
