<svg width="158" height="72" viewBox="0 0 158 72" fill="none" xmlns="http://www.w3.org/2000/svg">
<path d="M156.698 42.8205C145.087 35.9238 133.477 29.0272 121.677 22.0299C119.321 20.5362 117.134 24.4282 119.491 25.9219C129.02 31.7115 138.842 37.4163 148.371 43.2059C137.403 44.3535 126.71 45.8877 115.931 47.1359C107.188 48.2627 100.848 42.4842 99.9302 34.0533C99.2113 27.8943 100.716 21.7145 100.291 15.4708C99.7611 9.41244 96.7333 2.98835 90.1377 1.16569C82.9743 -0.958902 74.7793 0.941088 67.9941 3.83157C53.7331 9.96724 43.0204 21.6003 28.8635 27.5507C23.1666 29.8164 16.5614 30.6363 11.3002 26.8756C6.03897 23.1149 4.39273 15.9814 5.12169 9.87028C5.42465 7.14304 1.11904 6.05681 0.711986 8.96938C-1.1813 22.4043 7.83625 36.1055 23.1002 33.8729C29.9987 32.9683 36.235 29.3046 41.7994 25.5243C48.2439 21.4899 54.3289 16.7829 60.7734 12.7485C67.9088 8.35937 75.7821 4.84414 84.1947 4.74472C93.2792 4.7619 95.8906 11.9274 96.07 19.4843C96.117 25.5267 94.9055 31.6219 96.2111 37.6115C97.668 44.6444 102.872 49.819 110.055 51.4723C113.603 52.1559 117.105 51.611 120.502 51.2514C124.003 50.7064 127.4 50.3468 130.902 49.8018C136.438 49.1353 141.974 48.4689 147.509 47.8024C137.97 54.283 128.242 60.6629 118.703 67.1435C116.318 68.7636 118.684 72.4285 121.069 70.8084C132.992 62.7077 145.105 54.7076 156.925 46.7923C158.032 45.6962 158.108 43.811 156.698 42.8205Z" fill="#241E46"/>
</svg>
