<svg width="147" height="79" viewBox="0 0 147 79" fill="none" xmlns="http://www.w3.org/2000/svg">
<path d="M3.57655 8.10798C8.44657 11.8285 12.9507 15.866 17.2233 20.2496L17.2398 20.2563C17.3069 20.3239 17.3739 20.3916 17.4412 20.4597C18.3779 21.4359 16.8069 22.6679 15.8211 22.0194C12.258 19.6682 8.89412 15.7485 5.3308 13.3967C13.2294 30.2707 21.9427 49.47 38.0175 59.896C54.2205 70.4061 73.6026 70.3148 87.8487 57.9346C81.1358 43.6177 81.8353 25.5284 88.6844 11.5174C91.4773 5.81959 98.7852 -3.87297 105.343 3.41607C111.533 10.2846 108.223 24.9114 105.944 32.6633C103.113 42.3097 97.7461 51.5116 90.5249 58.3913C91.05 59.4613 91.6131 60.4895 92.2143 61.476C97.5772 70.2661 106.978 77.8122 117.962 76.2402C131.918 74.2441 139.527 60.2314 145.233 49.004C145.541 48.4002 146.487 48.8086 146.196 49.4195C141.13 60.128 135.146 71.6522 123.492 76.4934C113.906 80.4719 104.016 77.3196 96.7958 70.4912C93.547 67.4123 90.9029 63.8284 88.8326 59.9394C80.4572 67.2035 69.8042 71.3712 57.7923 69.8142C29.5714 66.1405 14.7083 40.3378 3.58541 16.9926L3.23062 23.7904C3.15278 25.2308 0.925017 24.8802 0.995635 23.4566C1.1745 19.8693 1.3655 16.2768 1.5485 12.7009C1.48246 12.5662 1.68615 11.3183 1.63146 11.1782C1.90502 9.9972 1.5485 12.7009 1.63556 11.1097C1.66906 10.3582 1.71439 9.60227 1.74737 8.85101C1.80144 7.94323 2.9712 7.63344 3.57655 8.10798ZM92.4921 53.2583C98.7487 45.9236 102.965 36.8362 104.923 27.4914C105.916 22.7528 106.454 17.7495 106.148 12.9152C106.028 11.0022 105.802 8.88825 104.986 7.14001C102.519 1.84881 97.1566 3.14156 93.9208 7.03886C83.292 19.8164 83.0146 41.2582 89.588 56.368C90.5787 55.3897 91.5512 54.3648 92.4921 53.2583Z" fill="#EBE716"/>
</svg>
