<?xml version="1.0" encoding="utf-8"?>
<!-- Generator: Adobe Illustrator 24.3.0, SVG Export Plug-In . SVG Version: 6.00 Build 0)  -->
<svg version="1.1" id="Layer_1" xmlns="http://www.w3.org/2000/svg" xmlns:xlink="http://www.w3.org/1999/xlink" x="0px" y="0px"
	 width="196.398px" height="521.11px" viewBox="0 0 196.398 521.11" enable-background="new 0 0 196.398 521.11"
	 xml:space="preserve">
<g>
	<g>
		
			<path fill="none" stroke="#83CDF1" stroke-width="3.7" stroke-linecap="round" stroke-linejoin="round" stroke-dasharray="0.2,10" d="
			M194.548,1.85c-5.911,38.332-19.752,73.921-38.132,101.67c-20.176,30.462-35.633,42.293-62.505,65.67
			c-26.11,22.945-70.418,55.385-85.705,100.426c-23.086,92.233,20.826,135.354,65.75,175.469
			c43.187,42.15,93.932,54.393,120.592,74.174"/>
	</g>
</g>
<g>
	<path fill="#FFFFFF" stroke="#141C25" d="M164.525,97.297c-5.4,12.725-24.619,40.921-35.321,40.224
		c-0.261-0.017-0.483-0.195-0.562-0.444c-3.193-10.073,18.011-33.88,29.405-44.671c0.223-0.211,0.566-0.228,0.81-0.041l5.472,4.19
		C164.557,96.728,164.637,97.033,164.525,97.297z"/>
	<path fill="#141C25" stroke="#141C25" d="M162.391,98.234c-5.597,11.21-23.333,36.502-31.735,37.645
		c-0.354,0.048-0.676-0.202-0.715-0.558c-0.926-8.334,17.91-30.272,27.91-40.514c0.221-0.226,0.576-0.251,0.828-0.058l3.535,2.706
		C162.451,97.639,162.525,97.965,162.391,98.234z"/>
	<path fill="#FFFFFF" stroke="#141C25" stroke-width="3" d="M133.443,119.446c3.876,5.244,9.087,8.026,11.627,8.92
		c0.254,0.089,0.536,0.001,0.699-0.212l1.557-2.033c0.21-0.275,0.158-0.668-0.117-0.878l-5.668-4.34l-5.668-4.34
		c-0.275-0.21-0.668-0.158-0.878,0.117l-1.543,2.015C133.284,118.916,133.279,119.223,133.443,119.446z"/>
	<path fill="#FFFFFF" d="M147.36,117.63L147.36,117.63c-0.275-0.21-0.327-0.603-0.117-0.878l7.309-9.546
		c0.21-0.275,0.603-0.327,0.878-0.117h0c0.275,0.21,0.327,0.603,0.117,0.878l-7.309,9.546
		C148.028,117.788,147.635,117.84,147.36,117.63z"/>
	<path fill="#FFFFFF" d="M143.184,114.432L143.184,114.432c-0.275-0.21-0.327-0.603-0.117-0.878l7.309-9.546
		c0.21-0.275,0.603-0.327,0.878-0.117l0,0c0.275,0.21,0.327,0.603,0.117,0.878l-7.309,9.546
		C143.852,114.591,143.458,114.643,143.184,114.432z"/>
	<path fill="#FFFFFF" d="M139.738,123.466l-0.199-0.152c-0.275-0.21-0.327-0.603-0.117-0.878l7.309-9.546
		c0.21-0.275,0.603-0.327,0.878-0.117l0.199,0.152c0.275,0.21,0.327,0.603,0.117,0.878l-7.309,9.546
		C140.405,123.624,140.012,123.676,139.738,123.466z"/>
	<path fill="#FFFFFF" d="M157.644,103.58c-0.631,0.824-1.81,0.98-2.634,0.35l-0.597-0.457c-0.824-0.631-0.98-1.81-0.35-2.634
		l3.045-3.977c0.21-0.275,0.603-0.327,0.878-0.117l2.585,1.979c0.275,0.21,0.327,0.603,0.117,0.878L157.644,103.58z"/>
</g>
</svg>
