<svg width="91" height="19" viewBox="0 0 91 19" fill="none" xmlns="http://www.w3.org/2000/svg">
<path d="M0.872 18H-0.628L0.872 19.5V18ZM0.872 15.72L-0.210613 14.6818L-0.628 15.72H0.872ZM6.488 9.864L7.57061 10.9022L7.57196 10.9008L6.488 9.864ZM8.048 7.824L6.72729 7.11285L6.72729 7.11285L8.048 7.824ZM3.296 3.864L3.8261 5.26721L3.85309 5.25671L3.296 3.864ZM1.184 5.16L-0.190236 5.76123L2.16236 6.29702L1.184 5.16ZM0.176 2.856L-0.817296 1.73201L-1.19824 3.45723L0.176 2.856ZM2.72 1.392L2.2127 -0.0196309L2.20559 -0.0170369L2.72 1.392ZM10.136 2.064L9.17387 3.21478H9.17387L10.136 2.064ZM10.856 8.592L12.1839 9.28971L12.1886 9.28053L10.856 8.592ZM8.552 11.568L9.61266 12.6287H9.61266L8.552 11.568ZM3.872 16.248H2.372L4.93266 17.3087L3.872 16.248ZM3.872 15.432V13.932L2.372 15.432H3.872ZM12.272 15.432H13.772L12.272 13.932V15.432ZM12.272 18V19.5L13.772 18H12.272ZM2.372 18V15.72H-0.628V18H2.372ZM1.95461 16.7582L7.57061 10.9022L5.40539 8.82576L-0.210613 14.6818L1.95461 16.7582ZM7.57196 10.9008C8.33224 10.106 8.94763 9.31714 9.36871 8.53515L6.72729 7.11285C6.47637 7.57886 6.05176 8.15 5.40404 8.82717L7.57196 10.9008ZM9.36871 8.53515C9.81269 7.71061 10.052 6.82793 10.052 5.904H7.052C7.052 6.29207 6.95531 6.68939 6.72729 7.11285L9.36871 8.53515ZM10.052 5.904C10.052 4.75373 9.67443 3.65927 8.72989 2.89183L6.83811 5.22017C6.91757 5.28473 7.052 5.42227 7.052 5.904H10.052ZM8.72989 2.89183C7.84859 2.17577 6.7131 1.932 5.552 1.932V4.932C6.3429 4.932 6.69541 5.10423 6.83811 5.22017L8.72989 2.89183ZM5.552 1.932C4.57932 1.932 3.63808 2.11162 2.73891 2.47128L3.85309 5.25671C4.39392 5.04038 4.95668 4.932 5.552 4.932V1.932ZM2.7659 2.46079C1.85564 2.80466 1.00311 3.33678 0.205637 4.02298L2.16236 6.29702C2.74089 5.79921 3.29636 5.46733 3.8261 5.26721L2.7659 2.46079ZM2.55824 4.55877L1.55024 2.25477L-1.19824 3.45723L-0.190236 5.76123L2.55824 4.55877ZM1.1693 3.97999C1.69532 3.51514 2.37323 3.11543 3.23441 2.80103L2.20559 -0.0170369C1.05077 0.404564 0.0326847 0.980859 -0.817296 1.73201L1.1693 3.97999ZM3.2273 2.80361C4.08379 2.49581 4.98379 2.34 5.936 2.34V-0.660001C4.64821 -0.660001 3.40421 -0.447813 2.2127 -0.0196128L3.2273 2.80361ZM5.936 2.34C7.55784 2.34 8.56371 2.70465 9.17387 3.21478L11.0981 0.913215C9.75629 -0.208652 7.96216 -0.660001 5.936 -0.660001V2.34ZM9.17387 3.21478C9.7419 3.68969 10.1 4.39676 10.1 5.568H13.1C13.1 3.69924 12.4821 2.0703 11.0981 0.913215L9.17387 3.21478ZM10.1 5.568C10.1 6.3787 9.91204 7.15118 9.52336 7.90347L12.1886 9.28053C12.792 8.11282 13.1 6.8693 13.1 5.568H10.1ZM9.52814 7.89431C9.12338 8.66464 8.4619 9.53678 7.49134 10.5073L9.61266 12.6287C10.7221 11.5192 11.5966 10.4074 12.1839 9.28969L9.52814 7.89431ZM7.49134 10.5073L2.81134 15.1873L4.93266 17.3087L9.61266 12.6287L7.49134 10.5073ZM5.372 16.248V15.432H2.372V16.248H5.372ZM3.872 16.932H12.272V13.932H3.872V16.932ZM10.772 15.432V18H13.772V15.432H10.772ZM12.272 16.5H0.872V19.5H12.272V16.5ZM19.3666 15.984L18.1408 16.8485L18.1451 16.8546L19.3666 15.984ZM19.3666 3.048L18.1541 2.16496L19.3666 3.048ZM28.5346 3.048L27.3158 3.92238L27.3221 3.93104L28.5346 3.048ZM28.5346 15.984L27.3088 15.1195L27.307 15.1221L28.5346 15.984ZM26.3746 14.208L27.6988 14.9128L27.7034 14.904L26.3746 14.208ZM26.3746 4.824L25.0553 5.53774L25.0603 5.54688L26.3746 4.824ZM21.5266 4.824L20.2164 4.0937L20.2123 4.10112L21.5266 4.824ZM21.5266 14.208L20.1979 14.904L20.2114 14.9292L21.5266 14.208ZM23.9506 16.74C22.4094 16.74 21.355 16.1893 20.5881 15.1134L18.1451 16.8546C19.5223 18.7867 21.5239 19.74 23.9506 19.74V16.74ZM20.5924 15.1195C19.7683 13.9509 19.2586 12.1419 19.2586 9.504H16.2586C16.2586 12.4661 16.821 14.9771 18.1408 16.8485L20.5924 15.1195ZM19.2586 9.504C19.2586 6.82483 19.7719 5.03956 20.5792 3.93104L18.1541 2.16496C16.8174 4.00043 16.2586 6.51917 16.2586 9.504H19.2586ZM20.5792 3.93104C21.3407 2.88539 22.3962 2.34 23.9506 2.34V-0.660001C21.537 -0.660001 19.5366 0.266613 18.1541 2.16496L20.5792 3.93104ZM23.9506 2.34C25.5257 2.34 26.574 2.88828 27.3158 3.92236L29.7534 2.17364C28.3833 0.26372 26.3755 -0.660001 23.9506 -0.660001V2.34ZM27.3221 3.93104C28.1302 5.04073 28.6426 6.81907 28.6426 9.48H31.6426C31.6426 6.50893 31.083 3.99927 29.7472 2.16496L27.3221 3.93104ZM28.6426 9.48C28.6426 12.1361 28.1321 13.9521 27.3088 15.1195L29.7604 16.8485C31.0811 14.9759 31.6426 12.4559 31.6426 9.48H28.6426ZM27.307 15.1221C26.5597 16.1864 25.5125 16.74 23.9506 16.74V19.74C26.3888 19.74 28.3976 18.7896 29.7622 16.8459L27.307 15.1221ZM23.9506 17.196C24.7299 17.196 25.4841 17.0157 26.1574 16.6024C26.828 16.1907 27.3326 15.6006 27.6987 14.9128L25.0505 13.5032C24.8886 13.8074 24.7252 13.9613 24.5879 14.0456C24.4532 14.1283 24.2593 14.196 23.9506 14.196V17.196ZM27.7034 14.904C28.4047 13.565 28.6666 11.6878 28.6666 9.48H25.6666C25.6666 11.5602 25.4005 12.835 25.0459 13.512L27.7034 14.904ZM28.6666 9.48C28.6666 7.28192 28.4079 5.40826 27.6889 4.10112L25.0603 5.54688C25.3974 6.15974 25.6666 7.39007 25.6666 9.48H28.6666ZM27.6939 4.11027C27.3253 3.42877 26.8184 2.84682 26.1481 2.44201C25.4763 2.03625 24.7255 1.86 23.9506 1.86V4.86C24.2637 4.86 24.461 4.92775 24.5971 5.00999C24.7349 5.09318 24.896 5.24323 25.0553 5.53773L27.6939 4.11027ZM23.9506 1.86C23.1792 1.86 22.4336 2.03831 21.7651 2.44201C21.0999 2.8438 20.592 3.41983 20.2164 4.09371L22.8368 5.55429C23.0052 5.25217 23.1734 5.09619 23.3161 5.00999C23.4557 4.92569 23.6501 4.86 23.9506 4.86V1.86ZM20.2123 4.10112C19.4934 5.40826 19.2346 7.28192 19.2346 9.48H22.2346C22.2346 7.39007 22.5039 6.15974 22.841 5.54688L20.2123 4.10112ZM19.2346 9.48C19.2346 11.6878 19.4965 13.565 20.1979 14.904L22.8554 13.512C22.5007 12.835 22.2346 11.5602 22.2346 9.48H19.2346ZM20.2114 14.9292C20.5845 15.6096 21.0902 16.1937 21.7559 16.6024C22.4257 17.0135 23.1747 17.196 23.9506 17.196V14.196C23.6545 14.196 23.4635 14.1305 23.3254 14.0456C23.183 13.9583 23.0127 13.7984 22.8418 13.4868L20.2114 14.9292ZM45.8392 18.336L44.4455 18.8906L46.223 19.7861L45.8392 18.336ZM44.9032 15.984L44.3906 14.5743L43.5095 16.5386L44.9032 15.984ZM46.2232 15.24L47.2036 16.3752L47.2075 16.3719L46.2232 15.24ZM47.0872 14.04L45.7201 13.4226L45.7109 13.4436L47.0872 14.04ZM47.5672 12.216L49.054 12.4142L49.0546 12.41L47.5672 12.216ZM47.7112 5.88V4.38L46.2112 5.88H47.7112ZM57.3592 5.88H58.8592L57.3592 4.38V5.88ZM57.3592 18V19.5L58.8592 18H57.3592ZM54.3832 18H52.8832L54.3832 19.5V18ZM54.3832 8.184H55.8832L54.3832 6.684V8.184ZM50.4472 8.184V6.684L48.9472 8.184H50.4472ZM49.9672 14.088L51.4139 14.4844L51.4152 14.4794L49.9672 14.088ZM48.4792 16.872L49.5522 17.9201L48.4792 16.872ZM47.2329 17.7814L46.2969 15.4294L43.5095 16.5386L44.4455 18.8906L47.2329 17.7814ZM45.4158 17.3937C46.0805 17.152 46.6883 16.8203 47.2036 16.3752L45.2428 14.1048C45.0541 14.2677 44.7819 14.432 44.3906 14.5743L45.4158 17.3937ZM47.2075 16.3719C47.7566 15.8944 48.1731 15.3067 48.4635 14.6364L45.7109 13.4436C45.5853 13.7333 45.4258 13.9456 45.2389 14.1081L47.2075 16.3719ZM48.4542 14.6574C48.7546 13.9922 48.9447 13.2338 49.054 12.4142L46.0803 12.0178C45.9976 12.6382 45.8677 13.0958 45.7201 13.4226L48.4542 14.6574ZM49.0546 12.41C49.1613 11.5916 49.2112 10.6516 49.2112 9.6H46.2112C46.2112 10.5644 46.165 11.3684 46.0798 12.022L49.0546 12.41ZM49.2112 9.6V5.88H46.2112V9.6H49.2112ZM47.7112 7.38H57.3592V4.38H47.7112V7.38ZM55.8592 5.88V18H58.8592V5.88H55.8592ZM57.3592 16.5H54.3832V19.5H57.3592V16.5ZM55.8832 18V8.184H52.8832V18H55.8832ZM54.3832 6.684H50.4472V9.684H54.3832V6.684ZM48.9472 8.184V9.696H51.9472V8.184H48.9472ZM48.9472 9.696C48.9472 11.3585 48.7935 12.6813 48.5191 13.6966L51.4152 14.4794C51.7808 13.1267 51.9472 11.5215 51.9472 9.696H48.9472ZM48.5205 13.6916C48.2506 14.6767 47.8599 15.3593 47.4061 15.8239L49.5522 17.9201C50.4424 17.0087 51.0438 15.8353 51.4139 14.4844L48.5205 13.6916ZM47.4061 15.8239C46.9535 16.2873 46.3266 16.6553 45.4553 16.8859L46.223 19.7861C47.5277 19.4407 48.6609 18.8327 49.5522 17.9201L47.4061 15.8239ZM65.3122 16.56L66.3578 15.4845L65.3122 16.56ZM64.3282 8.64L65.6561 9.33769L64.3282 8.64ZM66.3922 6.432L65.6306 5.13965L65.6204 5.14576L66.3922 6.432ZM74.2162 8.472L72.8465 9.08348L72.8557 9.10367L74.2162 8.472ZM74.8402 12.408V13.908L76.3402 12.408H74.8402ZM66.0082 12.408H64.5082L66.0082 13.908V12.408ZM66.0082 10.824V9.324L64.5082 10.824H66.0082ZM72.7042 10.824L73.6577 11.9819L72.7042 9.324V10.824ZM72.2962 11.16H70.7962L73.2497 12.3179L72.2962 11.16ZM71.5762 8.592L70.3956 9.51732L70.4111 9.5367L71.5762 8.592ZM67.2322 8.76L66.0453 7.84283L66.0322 7.86L67.2322 8.76ZM67.4002 14.976L66.3265 16.0235L66.3527 16.0497L67.4002 14.976ZM72.0802 15.672L72.5076 17.1098L72.5319 17.1024L72.0802 15.672ZM73.8082 14.76L75.1809 14.1553L72.897 13.5685L73.8082 14.76ZM74.6962 16.776L75.6372 17.9441L76.0689 16.1713L74.6962 16.776ZM72.6322 17.856L72.175 16.4274L72.6322 17.856ZM70.0882 16.74C68.3384 16.74 67.1607 16.2651 66.3578 15.4845L64.2666 17.6355C65.7676 19.0949 67.774 19.74 70.0882 19.74V16.74ZM66.3578 15.4845C65.557 14.7059 65.0842 13.5921 65.0842 11.952H62.0842C62.0842 14.2159 62.7634 16.1741 64.2666 17.6355L66.3578 15.4845ZM65.0842 11.952C65.0842 10.8862 65.2923 10.03 65.6561 9.33769L63.0003 7.94231C62.3721 9.13802 62.0842 10.4898 62.0842 11.952H65.0842ZM65.6561 9.33769C66.0294 8.62717 66.5292 8.09906 67.1639 7.71824L65.6204 5.14576C64.4951 5.82094 63.619 6.76483 63.0003 7.94231L65.6561 9.33769ZM67.1537 7.72431C67.7885 7.35027 68.5582 7.14 69.5122 7.14V4.14C68.0981 4.14 66.7879 4.45773 65.6306 5.13969L67.1537 7.72431ZM69.5122 7.14C70.4694 7.14 71.1492 7.34226 71.6382 7.65162L73.2421 5.11638C72.1631 4.43374 70.891 4.14 69.5122 4.14V7.14ZM71.6382 7.65162C72.1577 7.98028 72.5596 8.44096 72.8465 9.08348L75.5859 7.86052C75.0727 6.71104 74.2906 5.77972 73.2421 5.11638L71.6382 7.65162ZM72.8557 9.10367C73.1622 9.76392 73.3402 10.5882 73.3402 11.616H76.3402C76.3402 10.2438 76.1021 8.97208 75.5767 7.84033L72.8557 9.10367ZM73.3402 11.616V12.408H76.3402V11.616H73.3402ZM74.8402 10.908H66.0082V13.908H74.8402V10.908ZM67.5082 12.408V10.824H64.5082V12.408H67.5082ZM66.0082 12.324H72.7042V9.324H66.0082V12.324ZM71.7506 9.6661L71.3426 10.0021L73.2497 12.3179L73.6577 11.9819L71.7506 9.6661ZM73.7962 11.16C73.7962 9.85225 73.5193 8.60679 72.7413 7.6473L70.4111 9.5367C70.5931 9.76121 70.7962 10.2277 70.7962 11.16H73.7962ZM72.7568 7.66668C71.9527 6.64085 70.7946 6.204 69.5362 6.204V9.204C70.0698 9.204 70.2716 9.35915 70.3956 9.51732L72.7568 7.66668ZM69.5362 6.204C68.1407 6.204 66.9087 6.72546 66.0453 7.84283L68.4191 9.67717C68.6437 9.38653 68.9477 9.204 69.5362 9.204V6.204ZM66.0322 7.86C65.2408 8.91516 64.9402 10.2603 64.9402 11.712H67.9402C67.9402 10.6357 68.1676 10.0128 68.4322 9.66L66.0322 7.86ZM64.9402 11.712V12.024H67.9402V11.712H64.9402ZM64.9402 12.024C64.9402 13.5581 65.3142 14.9858 66.3265 16.0235L68.4739 13.9285C68.2062 13.6542 67.9402 13.114 67.9402 12.024H64.9402ZM66.3527 16.0497C67.3638 17.0361 68.7037 17.436 70.1602 17.436V14.436C69.2487 14.436 68.7486 14.1959 68.4477 13.9023L66.3527 16.0497ZM70.1602 17.436C70.9766 17.436 71.7621 17.3314 72.5076 17.1098L71.6527 14.2342C71.2143 14.3646 70.7197 14.436 70.1602 14.436V17.436ZM72.5319 17.1024C73.3176 16.8542 74.0475 16.4653 74.7194 15.9515L72.897 13.5685C72.4809 13.8867 72.0587 14.1058 71.6285 14.2416L72.5319 17.1024ZM72.4355 15.3647L73.3235 17.3807L76.0689 16.1713L75.1809 14.1553L72.4355 15.3647ZM73.7552 15.6079C73.3412 15.9414 72.8227 16.2201 72.175 16.4274L73.0893 19.2846C74.0416 18.9799 74.8992 18.5386 75.6372 17.9441L73.7552 15.6079ZM72.175 16.4274C71.5324 16.633 70.8394 16.74 70.0882 16.74V19.74C71.129 19.74 72.132 19.591 73.0893 19.2846L72.175 16.4274ZM83.5888 18H82.0888L83.5888 19.5V18ZM83.5888 8.232H85.0888L83.5888 6.732V8.232ZM79.4368 8.232H77.9368L79.4368 9.732V8.232ZM79.4368 5.88V4.38L77.9368 5.88H79.4368ZM90.7408 5.88H92.2408L90.7408 4.38V5.88ZM90.7408 8.232V9.732L92.2408 8.232H90.7408ZM86.5648 8.232V6.732L85.0648 8.232H86.5648ZM86.5648 18V19.5L88.0648 18H86.5648ZM85.0888 18V8.232H82.0888V18H85.0888ZM83.5888 6.732H79.4368V9.732H83.5888V6.732ZM80.9368 8.232V5.88H77.9368V8.232H80.9368ZM79.4368 7.38H90.7408V4.38H79.4368V7.38ZM89.2408 5.88V8.232H92.2408V5.88H89.2408ZM90.7408 6.732H86.5648V9.732H90.7408V6.732ZM85.0648 8.232V18H88.0648V8.232H85.0648ZM86.5648 16.5H83.5888V19.5H86.5648V16.5Z" fill="white"/>
</svg>
