<svg width="28" height="28" viewBox="0 0 28 28" fill="none" xmlns="http://www.w3.org/2000/svg">
<path d="M26.25 24.5C26.25 24.5 28 24.5 28 22.75C28 21 26.25 15.75 19.25 15.75C12.25 15.75 10.5 21 10.5 22.75C10.5 24.5 12.25 24.5 12.25 24.5H26.25ZM12.2885 22.75C12.2756 22.7482 12.2627 22.7459 12.25 22.743C12.2518 22.281 12.5423 20.9405 13.58 19.733C14.546 18.6008 16.2435 17.5 19.25 17.5C22.2548 17.5 23.9522 18.6025 24.92 19.733C25.9577 20.9405 26.2465 22.2828 26.25 22.743L26.236 22.7465C26.2279 22.7479 26.2197 22.749 26.2115 22.75H12.2885V22.75ZM19.25 12.25C20.1783 12.25 21.0685 11.8813 21.7249 11.2249C22.3813 10.5685 22.75 9.67826 22.75 8.75C22.75 7.82174 22.3813 6.9315 21.7249 6.27513C21.0685 5.61875 20.1783 5.25 19.25 5.25C18.3217 5.25 17.4315 5.61875 16.7751 6.27513C16.1187 6.9315 15.75 7.82174 15.75 8.75C15.75 9.67826 16.1187 10.5685 16.7751 11.2249C17.4315 11.8813 18.3217 12.25 19.25 12.25ZM24.5 8.75C24.5 9.43944 24.3642 10.1221 24.1004 10.7591C23.8365 11.396 23.4498 11.9748 22.9623 12.4623C22.4748 12.9498 21.896 13.3365 21.2591 13.6004C20.6221 13.8642 19.9394 14 19.25 14C18.5606 14 17.8779 13.8642 17.2409 13.6004C16.604 13.3365 16.0252 12.9498 15.5377 12.4623C15.0502 11.9748 14.6635 11.396 14.3996 10.7591C14.1358 10.1221 14 9.43944 14 8.75C14 7.35761 14.5531 6.02226 15.5377 5.03769C16.5223 4.05312 17.8576 3.5 19.25 3.5C20.6424 3.5 21.9777 4.05312 22.9623 5.03769C23.9469 6.02226 24.5 7.35761 24.5 8.75V8.75ZM12.138 16.24C11.438 16.0196 10.7164 15.8747 9.9855 15.8077C9.57483 15.7687 9.16252 15.7494 8.75 15.75C1.75 15.75 0 21 0 22.75C0 23.9172 0.58275 24.5 1.75 24.5H9.128C8.86857 23.9537 8.73919 23.3547 8.75 22.75C8.75 20.9825 9.40975 19.1765 10.6575 17.668C11.0828 17.1535 11.578 16.6722 12.138 16.24ZM8.61 17.5C7.57427 19.0562 7.01477 20.8807 7 22.75H1.75C1.75 22.295 2.037 20.9475 3.08 19.733C4.03375 18.62 5.691 17.535 8.61 17.5018V17.5ZM2.625 9.625C2.625 8.23261 3.17812 6.89726 4.16269 5.91269C5.14726 4.92812 6.48261 4.375 7.875 4.375C9.26739 4.375 10.6027 4.92812 11.5873 5.91269C12.5719 6.89726 13.125 8.23261 13.125 9.625C13.125 11.0174 12.5719 12.3527 11.5873 13.3373C10.6027 14.3219 9.26739 14.875 7.875 14.875C6.48261 14.875 5.14726 14.3219 4.16269 13.3373C3.17812 12.3527 2.625 11.0174 2.625 9.625V9.625ZM7.875 6.125C6.94674 6.125 6.0565 6.49375 5.40013 7.15013C4.74375 7.8065 4.375 8.69674 4.375 9.625C4.375 10.5533 4.74375 11.4435 5.40013 12.0999C6.0565 12.7563 6.94674 13.125 7.875 13.125C8.80326 13.125 9.6935 12.7563 10.3499 12.0999C11.0063 11.4435 11.375 10.5533 11.375 9.625C11.375 8.69674 11.0063 7.8065 10.3499 7.15013C9.6935 6.49375 8.80326 6.125 7.875 6.125Z" fill="white"/>
</svg>
