<svg width="24" height="22" viewBox="0 0 24 22" fill="none" xmlns="http://www.w3.org/2000/svg">
<g clip-path="url(#clip0_117_3572)">
<path d="M4.84283 20.4016L5.97435 13.9533L1.169 9.37576L1.16893 9.3757C0.660914 8.89084 0.917501 7.99589 1.61318 7.89808L8.29609 6.94845L11.275 1.04511C11.3404 0.907909 11.4432 0.791985 11.5717 0.710744C11.7005 0.62928 11.8498 0.586035 12.0022 0.586035C12.1546 0.586035 12.3038 0.62928 12.4327 0.710744C12.5611 0.791988 12.664 0.907918 12.7293 1.04513L15.7082 6.94707L22.3911 7.8967L4.84283 20.4016ZM4.84283 20.4016L4.84236 20.4016C4.72268 21.0828 5.39858 21.638 6.01224 21.3232L6.01231 21.3232L12.0028 18.2447L17.992 21.3232L17.9921 21.3232C18.6056 21.6379 19.2817 21.083 19.162 20.4029L18.03 13.9519L22.8339 9.37443L4.84283 20.4016ZM6.75023 19.0376L11.6382 16.526L11.638 16.5254C11.7502 16.4675 11.8746 16.4373 12.0008 16.4373C12.127 16.4373 12.2513 16.4675 12.3634 16.5253L6.75023 19.0376ZM6.75023 19.0376L7.66967 13.7952C7.66968 13.7951 7.66969 13.7951 7.6697 13.795C7.6949 13.6537 7.68502 13.5084 7.64092 13.3718C7.59681 13.2351 7.51982 13.1114 7.4167 13.0114L7.4161 13.0108L3.56969 9.34445L8.93693 8.58149L8.93778 8.58136C9.06913 8.56153 9.19372 8.51015 9.30087 8.43163C9.40785 8.35323 9.49427 8.2501 9.55274 8.13106C9.55284 8.13087 9.55293 8.13069 9.55302 8.13051L12.0001 3.27869L14.4499 8.13051C14.45 8.13069 14.4501 8.13087 14.4502 8.13105C14.5087 8.2501 14.5951 8.35323 14.7021 8.43163C14.8092 8.51015 14.9338 8.56153 15.0652 8.58137L15.0661 8.58149L20.4332 9.34312L6.75023 19.0376ZM17.2527 19.0376L12.3636 16.5254L16.6559 13.0819C16.5643 13.1705 16.4959 13.2804 16.4568 13.4017C16.4178 13.5231 16.4091 13.6522 16.4317 13.7776L16.3332 13.7949L16.3332 13.795C16.3333 13.7951 16.3333 13.7952 16.3333 13.7953L17.2527 19.0376ZM22.834 9.37438C23.3432 8.88971 23.0885 7.99467 22.3913 7.89673L22.834 9.37438Z" fill="white" stroke="white" stroke-width="0.2"/>
</g>
<defs>
<clipPath id="clip0_117_3572">
<rect width="24" height="22" fill="white"/>
</clipPath>
</defs>
</svg>
