<svg width="48" height="48" viewBox="0 0 48 48" fill="none" xmlns="http://www.w3.org/2000/svg">
<path d="M24 3C19.8466 3 15.7865 4.23163 12.333 6.53914C8.8796 8.84665 6.18798 12.1264 4.59854 15.9636C3.0091 19.8009 2.59323 24.0233 3.40352 28.0969C4.21381 32.1705 6.21386 35.9123 9.15077 38.8492C12.0877 41.7861 15.8295 43.7862 19.9031 44.5965C23.9767 45.4068 28.1991 44.9909 32.0364 43.4015C35.8736 41.812 39.1534 39.1204 41.4609 35.667C43.7684 32.2135 45 28.1534 45 24C45 18.4305 42.7875 13.089 38.8493 9.15076C34.911 5.21249 29.5696 3 24 3V3ZM37.725 35.61L35.67 33.54C35.3876 33.2575 35.0045 33.0989 34.605 33.0989C34.2056 33.0989 33.8225 33.2575 33.54 33.54C33.2576 33.8225 33.0989 34.2055 33.0989 34.605C33.0989 35.0045 33.2576 35.3875 33.54 35.67L35.61 37.725C32.7727 40.1765 29.2354 41.6723 25.5 42V39C25.5 38.6022 25.342 38.2206 25.0607 37.9393C24.7794 37.658 24.3978 37.5 24 37.5C23.6022 37.5 23.2207 37.658 22.9394 37.9393C22.658 38.2206 22.5 38.6022 22.5 39V42C18.7733 41.6935 15.2369 40.2244 12.39 37.8L14.46 35.745C14.7425 35.4625 14.9011 35.0795 14.9011 34.68C14.9011 34.2806 14.7425 33.8975 14.46 33.615C14.1776 33.3325 13.7945 33.1739 13.395 33.1739C12.9956 33.1739 12.6125 33.3325 12.33 33.615L10.275 35.61C7.85062 32.7631 6.3815 29.2267 6.07501 25.5H9.00001C9.39783 25.5 9.77937 25.342 10.0607 25.0607C10.342 24.7794 10.5 24.3978 10.5 24C10.5 23.6022 10.342 23.2206 10.0607 22.9393C9.77937 22.658 9.39783 22.5 9.00001 22.5H6.07501C6.3815 18.7733 7.85062 15.2369 10.275 12.39L12.33 14.46C12.4702 14.599 12.6364 14.709 12.8191 14.7837C13.0019 14.8583 13.1976 14.8961 13.395 14.895C13.5924 14.8961 13.7881 14.8583 13.9709 14.7837C14.1536 14.709 14.3199 14.599 14.46 14.46C14.6006 14.3206 14.7122 14.1547 14.7883 13.9719C14.8645 13.7891 14.9037 13.593 14.9037 13.395C14.9037 13.197 14.8645 13.0009 14.7883 12.8181C14.7122 12.6353 14.6006 12.4694 14.46 12.33L12.39 10.275C15.2369 7.85061 18.7733 6.38149 22.5 6.075V9C22.5 9.39783 22.658 9.77936 22.9394 10.0607C23.2207 10.342 23.6022 10.5 24 10.5C24.3978 10.5 24.7794 10.342 25.0607 10.0607C25.342 9.77936 25.5 9.39783 25.5 9V6.075C29.2267 6.38149 32.7631 7.85061 35.61 10.275L33.54 12.33C33.3994 12.4694 33.2878 12.6353 33.2117 12.8181C33.1355 13.0009 33.0963 13.197 33.0963 13.395C33.0963 13.593 33.1355 13.7891 33.2117 13.9719C33.2878 14.1547 33.3994 14.3206 33.54 14.46C33.6802 14.599 33.8464 14.709 34.0292 14.7837C34.2119 14.8583 34.4076 14.8961 34.605 14.895C34.8024 14.8961 34.9981 14.8583 35.1809 14.7837C35.3636 14.709 35.5299 14.599 35.67 14.46L37.725 12.39C40.1765 15.2273 41.6723 18.7646 42 22.5H39C38.6022 22.5 38.2207 22.658 37.9394 22.9393C37.658 23.2206 37.5 23.6022 37.5 24C37.5 24.3978 37.658 24.7794 37.9394 25.0607C38.2207 25.342 38.6022 25.5 39 25.5H42C41.6723 29.2354 40.1765 32.7727 37.725 35.61V35.61ZM29.565 27.435C29.7056 27.5744 29.8172 27.7403 29.8933 27.9231C29.9695 28.1059 30.0087 28.302 30.0087 28.5C30.0087 28.698 29.9695 28.8941 29.8933 29.0769C29.8172 29.2597 29.7056 29.4256 29.565 29.565C29.4256 29.7056 29.2597 29.8172 29.0769 29.8933C28.8941 29.9695 28.698 30.0087 28.5 30.0087C28.302 30.0087 28.1059 29.9695 27.9231 29.8933C27.7404 29.8172 27.5745 29.7056 27.435 29.565L22.935 25.065C22.796 24.9248 22.686 24.7586 22.6114 24.5759C22.5367 24.3931 22.4989 24.1974 22.5 24V15C22.5 14.6022 22.658 14.2206 22.9394 13.9393C23.2207 13.658 23.6022 13.5 24 13.5C24.3978 13.5 24.7794 13.658 25.0607 13.9393C25.342 14.2206 25.5 14.6022 25.5 15V23.385L29.565 27.435Z" fill="#0FAFEB"/>
</svg>
