<svg width="36" height="36" viewBox="0 0 36 36" fill="none" xmlns="http://www.w3.org/2000/svg">
<path d="M33.75 14.625V25.875C33.75 26.7701 33.3944 27.6286 32.7615 28.2615C32.1286 28.8944 31.2701 29.25 30.375 29.25V32.625C30.3739 32.8471 30.3071 33.0639 30.1829 33.2481C30.0588 33.4323 29.8829 33.5756 29.6775 33.66C29.544 33.723 29.3976 33.7538 29.25 33.75C29.1019 33.7509 28.9552 33.7225 28.8181 33.6665C28.681 33.6105 28.5564 33.528 28.4513 33.4237L24.2888 29.25H12.375C11.4799 29.25 10.6214 28.8944 9.98851 28.2615C9.35558 27.6286 9 26.7701 9 25.875C9 25.5766 9.11853 25.2905 9.32951 25.0795C9.54048 24.8685 9.82663 24.75 10.125 24.75C10.4234 24.75 10.7095 24.8685 10.9205 25.0795C11.1315 25.2905 11.25 25.5766 11.25 25.875C11.25 26.1734 11.3685 26.4595 11.5795 26.6705C11.7905 26.8815 12.0766 27 12.375 27H24.75C24.8981 26.9991 25.0448 27.0275 25.1819 27.0835C25.319 27.1395 25.4436 27.222 25.5487 27.3263L28.125 29.9138V28.125C28.125 27.8266 28.2435 27.5405 28.4545 27.3295C28.6655 27.1185 28.9516 27 29.25 27H30.375C30.6734 27 30.9595 26.8815 31.1705 26.6705C31.3815 26.4595 31.5 26.1734 31.5 25.875V14.625C31.5 14.3266 31.3815 14.0405 31.1705 13.8295C30.9595 13.6185 30.6734 13.5 30.375 13.5C30.0766 13.5 29.7905 13.3815 29.5795 13.1705C29.3685 12.9595 29.25 12.6734 29.25 12.375C29.25 12.0766 29.3685 11.7905 29.5795 11.5795C29.7905 11.3685 30.0766 11.25 30.375 11.25C31.2701 11.25 32.1286 11.6056 32.7615 12.2385C33.3944 12.8714 33.75 13.7299 33.75 14.625ZM11.7112 20.25L7.54875 24.4237C7.44363 24.528 7.31896 24.6105 7.18189 24.6665C7.04483 24.7225 6.89806 24.7509 6.75 24.75C6.60243 24.7538 6.45601 24.723 6.3225 24.66C6.11705 24.5756 5.94119 24.4323 5.81706 24.2481C5.69294 24.0639 5.62611 23.8471 5.625 23.625V20.25C4.72989 20.25 3.87145 19.8944 3.23851 19.2615C2.60558 18.6286 2.25 17.7701 2.25 16.875V5.625C2.25 4.72989 2.60558 3.87145 3.23851 3.23851C3.87145 2.60558 4.72989 2.25 5.625 2.25H23.625C24.5201 2.25 25.3786 2.60558 26.0115 3.23851C26.6444 3.87145 27 4.72989 27 5.625V16.875C27 17.7701 26.6444 18.6286 26.0115 19.2615C25.3786 19.8944 24.5201 20.25 23.625 20.25H11.7112ZM11.25 18H23.625C23.9234 18 24.2095 17.8815 24.4205 17.6705C24.6315 17.4595 24.75 17.1734 24.75 16.875V5.625C24.75 5.32663 24.6315 5.04048 24.4205 4.82951C24.2095 4.61853 23.9234 4.5 23.625 4.5H5.625C5.32663 4.5 5.04048 4.61853 4.82951 4.82951C4.61853 5.04048 4.5 5.32663 4.5 5.625V16.875C4.5 17.1734 4.61853 17.4595 4.82951 17.6705C5.04048 17.8815 5.32663 18 5.625 18H6.75C7.04837 18 7.33452 18.1185 7.54549 18.3295C7.75647 18.5405 7.875 18.8266 7.875 19.125V20.9138L10.4512 18.3263C10.5564 18.222 10.681 18.1395 10.8181 18.0835C10.9552 18.0275 11.1019 17.9991 11.25 18ZM14.625 10.125C14.4025 10.125 14.185 10.191 14 10.3146C13.815 10.4382 13.6708 10.6139 13.5856 10.8195C13.5005 11.025 13.4782 11.2512 13.5216 11.4695C13.565 11.6877 13.6722 11.8882 13.8295 12.0455C13.9868 12.2028 14.1873 12.31 14.4055 12.3534C14.6238 12.3968 14.85 12.3745 15.0555 12.2894C15.2611 12.2042 15.4368 12.06 15.5604 11.875C15.684 11.69 15.75 11.4725 15.75 11.25C15.75 10.9516 15.6315 10.6655 15.4205 10.4545C15.2095 10.2435 14.9234 10.125 14.625 10.125ZM20.25 10.125C20.0275 10.125 19.81 10.191 19.625 10.3146C19.44 10.4382 19.2958 10.6139 19.2106 10.8195C19.1255 11.025 19.1032 11.2512 19.1466 11.4695C19.19 11.6877 19.2972 11.8882 19.4545 12.0455C19.6118 12.2028 19.8123 12.31 20.0305 12.3534C20.2488 12.3968 20.475 12.3745 20.6805 12.2894C20.8861 12.2042 21.0618 12.06 21.1854 11.875C21.309 11.69 21.375 11.4725 21.375 11.25C21.375 10.9516 21.2565 10.6655 21.0455 10.4545C20.8345 10.2435 20.5484 10.125 20.25 10.125ZM9 10.125C8.7775 10.125 8.55999 10.191 8.37498 10.3146C8.18998 10.4382 8.04578 10.6139 7.96064 10.8195C7.87549 11.025 7.85321 11.2512 7.89662 11.4695C7.94002 11.6877 8.04717 11.8882 8.20451 12.0455C8.36184 12.2028 8.56229 12.31 8.78052 12.3534C8.99875 12.3968 9.22495 12.3745 9.43052 12.2894C9.63609 12.2042 9.81179 12.06 9.9354 11.875C10.059 11.69 10.125 11.4725 10.125 11.25C10.125 10.9516 10.0065 10.6655 9.79549 10.4545C9.58452 10.2435 9.29837 10.125 9 10.125V10.125Z" fill="white"/>
</svg>
