<svg width="48" height="48" viewBox="0 0 48 48" fill="none" xmlns="http://www.w3.org/2000/svg">
<path d="M24 27C24.3978 27 24.7794 26.842 25.0607 26.5607C25.342 26.2794 25.5 25.8978 25.5 25.5C25.5 25.1022 25.342 24.7207 25.0607 24.4393C24.7794 24.158 24.3978 24 24 24C22.22 24 20.4799 23.4722 18.9999 22.4832C17.5198 21.4943 16.3663 20.0887 15.6851 18.4442C15.0039 16.7996 14.8257 14.99 15.1729 13.2442C15.5202 11.4984 16.3774 9.89472 17.636 8.63605C18.8947 7.37737 20.4984 6.52021 22.2442 6.17294C23.99 5.82567 25.7996 6.0039 27.4442 6.68509C29.0887 7.36628 30.4943 8.51983 31.4832 9.99987C32.4722 11.4799 33 13.22 33 15V18C33 18.3978 32.842 18.7794 32.5607 19.0607C32.2794 19.342 31.8978 19.5 31.5 19.5C31.1022 19.5 30.7206 19.342 30.4393 19.0607C30.158 18.7794 30 18.3978 30 18V15C30 13.8133 29.6481 12.6533 28.9888 11.6666C28.3295 10.6799 27.3925 9.91086 26.2961 9.45673C25.1997 9.0026 23.9933 8.88378 22.8295 9.11529C21.6656 9.34681 20.5965 9.91825 19.7574 10.7574C18.9182 11.5965 18.3468 12.6656 18.1153 13.8295C17.8838 14.9934 18.0026 16.1998 18.4567 17.2961C18.9108 18.3925 19.6799 19.3295 20.6666 19.9888C21.6533 20.6481 22.8133 21 24 21C25.2302 20.9958 26.4293 20.6135 27.435 19.905C27.8722 20.8259 28.6092 21.571 29.5252 22.0184C30.4412 22.4658 31.482 22.5889 32.4771 22.3676C33.4722 22.1463 34.3626 21.5936 35.0027 20.8001C35.6427 20.0067 35.9943 19.0194 36 18V15C36 12.6266 35.2962 10.3066 33.9776 8.33316C32.6591 6.35977 30.7849 4.8217 28.5922 3.91345C26.3995 3.0052 23.9867 2.76756 21.6589 3.23058C19.3311 3.6936 17.1929 4.83649 15.5147 6.51472C13.8365 8.19295 12.6936 10.3312 12.2306 12.6589C11.7676 14.9867 12.0052 17.3995 12.9134 19.5922C13.8217 21.7849 15.3598 23.6591 17.3332 24.9776C19.3065 26.2962 21.6266 27 24 27ZM24 18C23.4067 18 22.8266 17.8241 22.3333 17.4944C21.8399 17.1648 21.4554 16.6962 21.2284 16.1481C21.0013 15.5999 20.9419 14.9967 21.0576 14.4147C21.1734 13.8328 21.4591 13.2982 21.8787 12.8787C22.2982 12.4591 22.8328 12.1734 23.4147 12.0577C23.9967 11.9419 24.5999 12.0013 25.1481 12.2284C25.6962 12.4554 26.1648 12.8399 26.4944 13.3333C26.8241 13.8266 27 14.4067 27 15C27 15.7957 26.6839 16.5587 26.1213 17.1213C25.5587 17.6839 24.7956 18 24 18V18ZM44.415 19.815L39.915 16.35C39.599 16.1357 39.2131 16.05 38.8361 16.1104C38.4591 16.1707 38.1193 16.3726 37.8859 16.6748C37.6526 16.977 37.5433 17.3568 37.5802 17.7368C37.6172 18.1169 37.7977 18.4685 38.085 18.72L41.085 21L24 34.11L6.96 21L9.96 18.72C10.2743 18.4714 10.4769 18.1081 10.5233 17.71C10.5697 17.312 10.4561 16.9118 10.2075 16.5975C9.95886 16.2832 9.59555 16.0806 9.19751 16.0342C8.79946 15.9878 8.39928 16.1014 8.085 16.35L3.585 19.815C3.40348 19.9547 3.25637 20.1342 3.15497 20.3396C3.05356 20.545 3.00055 20.7709 3 21V40.5C3 41.6935 3.47411 42.8381 4.31802 43.682C5.16193 44.5259 6.30653 45 7.5 45H40.5C41.6935 45 42.8381 44.5259 43.682 43.682C44.5259 42.8381 45 41.6935 45 40.5V21C44.9994 20.7709 44.9464 20.545 44.845 20.3396C44.7436 20.1342 44.5965 19.9547 44.415 19.815ZM40.5 42H7.5C7.10218 42 6.72064 41.842 6.43934 41.5607C6.15804 41.2794 6 40.8978 6 40.5V24L23.085 37.14C23.3473 37.3419 23.669 37.4514 24 37.4514C24.331 37.4514 24.6527 37.3419 24.915 37.14L42 24V40.5C42 40.8978 41.842 41.2794 41.5607 41.5607C41.2794 41.842 40.8978 42 40.5 42Z" fill="#0FAFEB"/>
</svg>
