<?xml version="1.0" encoding="utf-8"?>
<!-- Generator: Adobe Illustrator 17.1.0, SVG Export Plug-In . SVG Version: 6.00 Build 0)  -->
<!DOCTYPE svg PUBLIC "-//W3C//DTD SVG 1.1//EN" "http://www.w3.org/Graphics/SVG/1.1/DTD/svg11.dtd">
<svg version="1.1" id="Layer_1" xmlns="http://www.w3.org/2000/svg" xmlns:xlink="http://www.w3.org/1999/xlink" x="0px" y="0px"
	 viewBox="64.228 374.346 235.597 54.215" enable-background="new 64.228 374.346 235.597 54.215" xml:space="preserve">
<g id="Слой_2">
	<g>
		<g id="Логотип_1_Image_8_">
			<path fill="#0FAFEB" d="M76.049,418.539L76.049,418.539c2.209-0.925,4.376-1.98,6.628-2.79c3.988-1.435,8.019-2.783,12.051-4.089
				c5.638-1.815,11.276-3.586,16.95-5.301c3.486-1.047,7.008-1.968,10.566-2.762c2.551-0.57,5.136-0.972,7.74-1.205
				c2.001-0.186,2.869,0.832,2.324,2.783c-0.717,2.869-1.714,5.631-2.654,8.421c-0.086,0.237-0.667,0.215-1.019,0.222
				c-1.327,0-3.156,0.129-3.974,0.215c-6.757,1.219-13.507,2.467-20.228,3.881c-5.53,1.169-11.011,2.582-16.498,3.916
				c-1.047,0.251-10.953,2.231-11.986,2.546c0.531,0.258,9.942-1.27,10.444-1.363c3.07-0.559,6.126-1.191,9.196-1.75
				c3.838-0.717,7.675-1.384,11.534-1.98c5.882-0.911,11.749-2.051,17.689-2.618c5.107-0.459-1.327,5.265-0.38,7.367
				c0.595-0.839,5.021-7.015,5.487-7.826c1.313-2.446,2.69-4.87,3.751-7.417c0.76-1.822,1.707-3.644,1.506-5.789
				c-0.115-1.184-0.595-1.887-1.7-2.073c-1.461-0.336-2.956-0.497-4.454-0.481c-2.57,0.183-5.122,0.569-7.632,1.155
				c-4.368,1.054-8.751,2.152-13.005,3.586c-5.559,1.908-10.989,4.196-16.498,6.284c-1.27,0.488-2.597,1.169-3.895,1.162
				c-3.902,0-7.804-0.395-11.713-0.481c-1.313,0.06-2.612,0.301-3.859,0.717c-0.237,0.065-0.495,0.803-0.402,1.126
				s0.717,0.818,0.947,0.717c1.327-0.38,1.707,0.308,1.851,1.435c0.115,0.846,0.237,1.607,0.366,2.46
				c-0.889,0.287-1.779,0.646-2.654,0.961c-1.736,0.617-2.152,2.977-0.717,4.426c-0.351-2.668,0.359-3.407,2.044-4.49
				C73.997,419.479,75.647,418.725,76.049,418.539z M123.197,382.674v-0.337c-0.638,0-1.277,0-1.908,0
				c-3.852,0.201-7.747,0.287-11.592,0.481c-0.844,0.001-1.687,0.049-2.525,0.143c-0.409,0.065-1.047,0.61-1.054,0.94
				c-0.057,2.79,0,5.573,0.065,8.364c0,0.215-12.467,0.531-12.33,0.717c-0.065,0.258,1.571,0.136,3.73,0.05
				c3.924-0.158,9.504-0.538,9.504-0.538s-0.05-0.717-0.05-1.019c0-1.671,0-3.35,0-5.021c0-1.951,0.316-2.073,2.195-1.384
				c6.849,2.521,13.392,5.808,19.503,9.798c5.144,3.287,9.89,7.157,14.145,11.534c2.943,3.149,5.718,6.451,8.313,9.892
				c1.176,1.513,2.152,3.156,3.199,4.777l0.567,0.717h2.869c0,0,0-1.169,0-1.793c0.043-10.924,0-21.842,0-32.766
				c-0.074-1.194-0.074-2.392,0-3.586c0.129-0.636,0.523-1.186,1.083-1.513c1.129-0.495,2.286-0.924,3.465-1.284
				c0.488-0.165,1.011-0.308,1.492-0.524v-0.56c0,0-4.957-0.395-6.305-0.395l-0.086-5.021H154.7c0,0,0,2.783,0,3.271
				c-0.036,2.202,0,2.152-2.224,2.216c-2.869,0.108-28.333,2.303-31.21,2.482c-5.738,1.277,27.759-1.112,30.327-0.717
				c2.109,0.201,3.113,1.772,3.12,3.759c0,1.033,0,2.066,0,3.099c0,9.114,0.024,18.231,0.072,27.351c0,0.617,0,2.769,0,2.769
				c-10.365-17.036-27.121-27.3-44.774-34.904L123.197,382.674z M64.228,427.347c0,0.158,8.945-0.674,8.959-0.516
				c1.04,0,2.08,0,3.127,0c10.265,0.115,20.529,0.28,30.801,0.308c1.879,0,9.827-1.133,11.713-1.435v-0.373
				c-0.473-0.05-6.362,0.194-6.843,0.186c-1.851,0-4.347,0.28-6.197,0.23c-9.92-0.287-19.848-0.38-29.761,0.194
				C75.052,425.992,65.182,427.211,64.228,427.347z M142.729,425.482v-0.359c-1.392-0.072-2.783-0.158-4.182-0.208
				c-1.793-0.065-3.637,0.115-5.387-0.208c-2.924-0.497-5.917-0.429-8.816,0.201c-0.404,0.135-0.791,0.316-1.155,0.538
				C125.105,426.494,140.154,426.422,142.729,425.482z M94.562,393.046c-0.129,0-0.61-0.036-0.717-0.057
				c0,0.387,0.05,7.073,0.05,7.073c0.147,0.41,0.489,0.719,0.911,0.825c4.462,0.065,8.93,0.072,13.392,0.057
				c0.387,0,8.608-1.937,9.009-2.03c-8.959,1.513-8.672,1.047-8.952,0.194c-0.093-0.28-0.588-5.738-0.717-6.147
				c0,0.402-0.136,5.875-0.215,6.147c-0.344,1.169-2.016,1.191-3.744,1.227c-2.532,0.05-5.064,0-7.596,0.057
				c-0.976,0-1.377-0.344-1.435-1.284C94.598,399.136,94.541,393.434,94.562,393.046z M133.619,427.426
				c-3.056,0-6.126,0.186-9.16-0.05c-3.034-0.237-6.162-0.43-9.224,0.201C121.36,429.442,127.479,428.23,133.619,427.426z
				 M104.655,416.975c-3.149,0.653-2.869-1.435-2.948-1.901c0.921-0.196,1.853-0.335,2.79-0.416
				c0.237,0.057,0.194,1.435,0.215,1.707C104.755,416.939,104.475,417.083,104.655,416.975c0.337-0.201,0.58-0.529,0.674-0.911
				c0.091-0.55,0.118-1.108,0.079-1.664c0-1.184-0.438-1.528-1.607-1.32c-3.135,0.567-3.127,0.588-2.754,3.637
				C101.183,417.829,103.937,417.241,104.655,416.975z M117.207,398.67c0-2.252-0.344-6.154-0.344-6.154s-2.647-0.172-2.991-0.179
				c-0.99,0-6.456-0.215-7.467-0.215c0,0.122-0.072,0.301-0.108,0.43c1.549,0.036,6.327-0.337,8.988,1.169
				C117.014,394.696,117.128,397.106,117.207,398.67z M111.598,398.67h0.459v-3.744h-0.488L111.598,398.67z M114.532,398.361h0.459
				v-3.744h-0.459V398.361z M112.057,398.67v-3.744 M103.041,398.734h0.466v-3.773h-0.466V398.734z M96.843,398.885h0.466v-3.737
				h-0.466V398.885z M84.8,414.07h-8.916v-1.112H84.8V414.07z"/>
		</g>
	</g>
</g>
<text transform="matrix(1 0 0 1 172.5 409)" fill="#0FAFEB" font-family="'NotoSans-Bold'" font-size="20">Новогрейн</text>
</svg>
