<svg width="36" height="36" viewBox="0 0 36 36" fill="none" xmlns="http://www.w3.org/2000/svg">
<path d="M30.375 22.2188C30.0766 22.2188 29.7905 22.3373 29.5795 22.5483C29.3685 22.7592 29.25 23.0454 29.25 23.3438V27.4275L22.5 30.8025V23.625C22.5 23.3266 22.3815 23.0405 22.1705 22.8295C21.9595 22.6185 21.6734 22.5 21.375 22.5C21.0766 22.5 20.7905 22.6185 20.5795 22.8295C20.3685 23.0405 20.25 23.3266 20.25 23.625V30.8025L13.5 27.4275V11.9475L14.1975 12.2963C14.3303 12.3675 14.476 12.4113 14.626 12.4251C14.776 12.4389 14.9273 12.4224 15.0708 12.3767C15.2144 12.3309 15.3473 12.2568 15.4616 12.1587C15.576 12.0606 15.6695 11.9406 15.7365 11.8057C15.8036 11.6708 15.8429 11.5238 15.8521 11.3734C15.8613 11.223 15.8402 11.0723 15.79 10.9303C15.7398 10.7882 15.6617 10.6577 15.5601 10.5464C15.4585 10.4351 15.3357 10.3454 15.1988 10.2825L12.8813 9.1575C12.7242 9.07837 12.5508 9.03716 12.375 9.03716C12.1992 9.03716 12.0258 9.07837 11.8688 9.1575L2.86875 13.6575C2.68823 13.7483 2.5355 13.8861 2.42662 14.0563C2.31774 14.2266 2.25673 14.423 2.25 14.625V32.625C2.24962 32.8162 2.29797 33.0043 2.39048 33.1716C2.483 33.3389 2.61663 33.4799 2.77875 33.5813C2.95779 33.6922 3.16437 33.7507 3.375 33.75C3.55111 33.7489 3.72451 33.7066 3.88125 33.6262L12.375 29.385L20.8688 33.6262C21.0258 33.7054 21.1992 33.7466 21.375 33.7466C21.5508 33.7466 21.7242 33.7054 21.8813 33.6262L30.8813 29.1262C31.0668 29.0328 31.2228 28.8897 31.332 28.713C31.4412 28.5363 31.4994 28.3328 31.5 28.125V23.3438C31.5 23.0454 31.3815 22.7592 31.1705 22.5483C30.9595 22.3373 30.6734 22.2188 30.375 22.2188ZM4.5 15.3225L11.25 11.9475V27.4275L4.5 30.8025V15.3225ZM25.155 22.2413C25.3572 22.4096 25.6119 22.5018 25.875 22.5018C26.1381 22.5018 26.3929 22.4096 26.595 22.2413C26.8875 21.9938 33.75 16.2112 33.75 10.125C33.75 8.03642 32.9203 6.03338 31.4435 4.55653C29.9666 3.07969 27.9636 2.25 25.875 2.25C23.7864 2.25 21.7834 3.07969 20.3065 4.55653C18.8297 6.03338 18 8.03642 18 10.125C18 16.2112 24.8625 21.9938 25.155 22.2413ZM25.875 4.5C27.3668 4.5 28.7976 5.09263 29.8525 6.14752C30.9074 7.20242 31.5 8.63316 31.5 10.125C31.5 14.1187 27.54 18.2812 25.875 19.8562C24.21 18.2812 20.25 14.1187 20.25 10.125C20.25 8.63316 20.8426 7.20242 21.8975 6.14752C22.9524 5.09263 24.3832 4.5 25.875 4.5V4.5ZM29.25 10.125C29.25 9.45749 29.0521 8.80497 28.6812 8.24995C28.3104 7.69493 27.7833 7.26235 27.1666 7.00691C26.5499 6.75146 25.8713 6.68462 25.2166 6.81485C24.5619 6.94508 23.9605 7.26651 23.4885 7.73851C23.0165 8.21052 22.6951 8.81188 22.5649 9.46657C22.4346 10.1213 22.5015 10.7999 22.7569 11.4166C23.0124 12.0333 23.4449 12.5604 24 12.9312C24.555 13.3021 25.2075 13.5 25.875 13.5C26.7701 13.5 27.6286 13.1444 28.2615 12.5115C28.8944 11.8786 29.25 11.0201 29.25 10.125ZM24.75 10.125C24.75 9.9025 24.816 9.68499 24.9396 9.49998C25.0632 9.31498 25.2389 9.17078 25.4445 9.08564C25.6501 9.00049 25.8763 8.97821 26.0945 9.02162C26.3127 9.06502 26.5132 9.17217 26.6705 9.32951C26.8278 9.48684 26.935 9.68729 26.9784 9.90552C27.0218 10.1238 26.9995 10.35 26.9144 10.5555C26.8292 10.7611 26.685 10.9368 26.5 11.0604C26.315 11.184 26.0975 11.25 25.875 11.25C25.5766 11.25 25.2905 11.1315 25.0795 10.9205C24.8685 10.7095 24.75 10.4234 24.75 10.125Z" fill="white"/>
</svg>
