<svg width="56" height="56" viewBox="0 0 56 56" fill="none" xmlns="http://www.w3.org/2000/svg">
<path d="M52.6158 8.49428L44.8751 0.753813C44.389 0.26775 43.7427 0 43.0551 0H10.4647C9.04551 0 7.89084 1.15467 7.89084 2.57381V28.0564H6.0809C4.17822 28.0564 2.63034 29.6044 2.63034 31.507V47.2887C2.63034 49.1914 4.17822 50.7394 6.0809 50.7394H33.2606C34.6798 50.7394 35.8344 49.5847 35.8344 48.1656V35.891C35.8344 34.4717 34.6797 33.317 33.2606 33.317H6.0809C5.08286 33.317 4.27097 32.5052 4.27097 31.5071C4.27097 30.5091 5.08286 29.6972 6.0809 29.6972H7.89084V30.6307C7.89084 31.0837 8.25812 31.451 8.71115 31.451C9.16418 31.451 9.53147 31.0837 9.53147 30.6307V2.57381C9.53147 2.0592 9.95015 1.64062 10.4647 1.64062H42.0846V9.58792C42.0846 10.5237 42.8459 11.2851 43.7817 11.2851H51.729V53.4262C51.729 53.9408 51.3103 54.3594 50.7958 54.3594H10.4647C9.95004 54.3594 9.53147 53.9408 9.53147 53.4262C9.53147 52.9732 9.16418 52.6059 8.71115 52.6059C8.25812 52.6059 7.89084 52.9732 7.89084 53.4262C7.89084 54.8454 9.04551 56 10.4647 56H50.7958C52.2151 56 53.3696 54.8453 53.3696 53.4262V10.3143C53.3697 9.62686 53.102 8.98045 52.6158 8.49428ZM6.0809 34.9577H33.2606C33.7752 34.9577 34.1938 35.3764 34.1938 35.891V48.1657C34.1938 48.6803 33.7751 49.0989 33.2606 49.0989H6.0809C5.08286 49.0989 4.27097 48.2869 4.27097 47.2888V34.4438C4.79739 34.7697 5.41754 34.9577 6.0809 34.9577ZM43.7253 9.58792V1.92423L51.4457 9.64447H43.7817C43.7506 9.64447 43.7253 9.61909 43.7253 9.58792Z" fill="#0FAFEB"/>
<path d="M25.8749 46.33C26.3279 46.33 26.6952 45.9627 26.6952 45.5097V42.7826H28.4727C28.9257 42.7826 29.293 42.4154 29.293 41.9623C29.293 41.5093 28.9257 41.142 28.4727 41.142H26.6952V39.3672H28.6969C29.1499 39.3672 29.5172 38.9999 29.5172 38.5469C29.5172 38.0937 29.1499 37.7266 28.6969 37.7266H25.8749C25.4219 37.7266 25.0546 38.0937 25.0546 38.5469V45.5096C25.0546 45.9626 25.4219 46.33 25.8749 46.33Z" fill="#0FAFEB"/>
<path d="M17.2528 46.0137C17.4065 46.1663 17.6143 46.2518 17.8307 46.2518H17.8338C17.8921 46.2516 19.2664 46.2463 19.8153 46.2367C21.8424 46.2013 23.3137 44.4314 23.3137 42.0282C23.3137 39.502 21.8795 37.8046 19.7447 37.8046H17.817C17.5991 37.8046 17.3903 37.8912 17.2364 38.0454C17.0825 38.1996 16.9962 38.4086 16.9966 38.6264V38.6318V38.6319V45.3209C16.9966 45.3773 17.0023 45.4323 17.0132 45.4854C17.0263 45.6844 17.1105 45.8725 17.2528 46.0137ZM19.7447 39.4452C21.1666 39.4452 21.6731 40.7795 21.6731 42.0282C21.6731 43.7795 20.7257 44.58 19.7867 44.5963C19.5257 44.6009 19.0601 44.6045 18.6482 44.607C18.6456 43.8023 18.6401 40.2823 18.6387 39.4452H19.7447Z" fill="#0FAFEB"/>
<path d="M10.4393 46.3555C10.8923 46.3555 11.2596 45.9884 11.2596 45.5352V43.3044C11.6669 43.3022 12.13 43.3001 12.3923 43.3001C13.9574 43.3001 15.2308 42.0443 15.2308 40.5005C15.2308 38.9566 13.9574 37.7007 12.3923 37.7007H10.4393C10.2213 37.7007 10.0123 37.7875 9.85827 37.9419C9.70493 38.0956 9.61907 38.304 9.61907 38.521H9.61896V45.5351C9.61896 45.9884 9.98624 46.3555 10.4393 46.3555ZM12.3923 39.3414C13.0416 39.3414 13.5901 39.8723 13.5901 40.5006C13.5901 41.1288 13.0416 41.6596 12.3923 41.6596C12.1317 41.6596 11.6744 41.6617 11.2687 41.6638C11.2665 41.2448 11.2632 39.7799 11.262 39.3415H12.3923V39.3414Z" fill="#0FAFEB"/>
<path d="M25.8068 23.7849C23.7907 24.4213 21.7214 25.3021 20.6176 26.4414C19.7068 27.3815 19.5418 28.4722 20.1647 29.4339C20.5874 30.0866 21.1685 30.4277 21.8219 30.4277C22.0727 30.4277 22.3342 30.3774 22.6014 30.2752C23.5654 29.9067 24.6064 28.8581 25.784 27.0695C26.1642 26.4921 26.5491 25.8504 26.9323 25.1562C27.0717 25.1152 27.2139 25.0744 27.3594 25.0337C29.6744 24.386 32.2935 23.9159 34.5921 23.7194C35.9933 25.0744 37.4417 26.13 38.6764 26.418C40.0347 26.7349 41.1116 26.1137 41.5565 24.7564C41.8258 23.9342 41.5157 23.159 40.7265 22.6827C39.9152 22.1928 38.5052 21.9562 36.5368 21.9787C36.1176 21.9835 35.675 22.0006 35.2146 22.0291C34.3303 21.1172 33.4102 20.0272 32.5242 18.8236C31.8377 17.8912 31.2241 16.9581 30.7053 16.0712C30.7617 15.8768 30.8153 15.6851 30.8661 15.4967C31.4269 13.4172 31.627 11.825 31.4606 10.7643C31.2203 9.23248 30.2317 9.01494 29.8178 8.99262C28.4085 8.91639 27.4592 9.62744 27.2787 10.8945C27.1352 11.9011 27.4737 13.286 28.2847 15.0107C28.4775 15.4206 28.6937 15.8431 28.9312 16.2746C28.8427 16.5585 28.7468 16.854 28.6429 17.1614C27.8867 19.3986 26.8625 21.7824 25.8068 23.7849ZM21.8674 28.7827C21.8089 28.79 21.7103 28.8024 21.5416 28.542C21.4043 28.33 21.3969 28.1701 21.514 27.9518C21.7879 27.4412 22.723 26.7248 24.5324 25.9848C23.2695 27.9435 22.3257 28.7255 21.8674 28.7827ZM40.011 24.1897C40.0098 24.1999 40.0065 24.2181 39.9974 24.2456C39.7926 24.8708 39.5173 24.9298 39.049 24.8205C38.4774 24.6872 37.7514 24.2649 36.9416 23.6186C39.1344 23.6361 39.8993 24.0311 40.011 24.1897ZM28.9028 11.1262C28.9362 10.8917 28.9737 10.628 29.5978 10.628C29.6371 10.628 29.6788 10.6291 29.7227 10.6312C29.9096 10.8588 30.0057 11.8715 29.5734 13.8757C29.0643 12.7081 28.8156 11.7382 28.9028 11.1262ZM30.0451 18.1266C30.4051 18.68 30.7924 19.2388 31.2029 19.7964C31.7918 20.5963 32.457 21.4268 33.1606 22.2196C32.3467 22.3178 31.5071 22.4445 30.6672 22.597C30.0989 22.7002 29.1081 22.8947 27.9482 23.184C28.2055 22.6506 28.4591 22.0977 28.7073 21.5292C29.2006 20.3995 29.6543 19.2435 30.0451 18.1266Z" fill="#0FAFEB"/>
</svg>
