<svg width="48" height="48" viewBox="0 0 48 48" fill="none" xmlns="http://www.w3.org/2000/svg">
<path d="M41.73 30.93L35.115 29.04C34.3428 28.8176 33.5252 28.8061 32.7471 29.0066C31.9689 29.207 31.2586 29.6122 30.69 30.18L27.105 33.765C21.3884 31.189 16.811 26.6116 14.235 20.895L17.82 17.31C18.3878 16.7414 18.793 16.0311 18.9935 15.253C19.1939 14.4748 19.1824 13.6572 18.96 12.885L17.07 6.27C16.8021 5.32723 16.2338 4.49769 15.4513 3.90747C14.6689 3.31725 13.7151 2.99862 12.735 3H7.50003C6.30655 3 5.16196 3.47411 4.31805 4.31802C3.47413 5.16194 3.00003 6.30653 3.00003 7.5V10.5C2.98657 15.0323 3.87333 19.5221 5.60884 23.709C7.34436 27.8958 9.89407 31.6964 13.11 34.89C16.3037 38.106 20.1042 40.6557 24.291 42.3912C28.4779 44.1267 32.9677 45.0135 37.5 45H40.5C41.6935 45 42.8381 44.5259 43.682 43.682C44.5259 42.8381 45 41.6935 45 40.5V35.265C45.0014 34.2849 44.6828 33.3312 44.0926 32.5487C43.5023 31.7663 42.6728 31.1979 41.73 30.93ZM42 40.5C42 40.8978 41.842 41.2794 41.5607 41.5607C41.2794 41.842 40.8979 42 40.5 42H37.5C33.3615 42.0126 29.2615 41.2038 25.4379 39.6202C21.6142 38.0367 18.1429 35.71 15.225 32.775C12.29 29.8572 9.96335 26.3858 8.37981 22.5622C6.79628 18.7385 5.98739 14.6386 6.00003 10.5V7.5C6.00003 7.10218 6.15806 6.72065 6.43937 6.43934C6.72067 6.15804 7.1022 6 7.50003 6H12.735C13.0717 5.98756 13.4028 6.08881 13.6749 6.28745C13.947 6.48609 14.1443 6.77055 14.235 7.095L16.14 13.71C16.2177 13.9718 16.2225 14.2499 16.1538 14.5143C16.085 14.7786 15.9454 15.0192 15.75 15.21L11.385 19.5C11.1774 19.708 11.0354 19.9724 10.9767 20.2604C10.918 20.5484 10.9453 20.8473 11.055 21.12C12.5036 24.6826 14.6517 27.9186 17.3724 30.6367C20.0931 33.3548 23.3311 35.4998 26.895 36.945C27.1657 37.0516 27.4616 37.0771 27.7466 37.0185C28.0315 36.9599 28.2933 36.8197 28.5 36.615L32.805 32.31C32.9959 32.1146 33.2364 31.975 33.5008 31.9063C33.7651 31.8375 34.0432 31.8423 34.305 31.92L40.92 33.825C41.2445 33.9157 41.5289 34.1131 41.7276 34.3852C41.9262 34.6573 42.0275 34.9883 42.015 35.325L42 40.5ZM25.5 4.5C25.5 4.10218 25.6581 3.72065 25.9394 3.43934C26.2207 3.15804 26.6022 3 27 3C31.7739 3 36.3523 4.89643 39.7279 8.27208C43.1036 11.6477 45 16.2261 45 21C45 21.3978 44.842 21.7794 44.5607 22.0607C44.2794 22.342 43.8979 22.5 43.5 22.5C43.1022 22.5 42.7207 22.342 42.4394 22.0607C42.1581 21.7794 42 21.3978 42 21C42 19.0302 41.612 17.0796 40.8582 15.2598C40.1044 13.4399 38.9995 11.7863 37.6066 10.3934C36.2137 9.00052 34.5602 7.89563 32.7403 7.14181C30.9204 6.38799 28.9699 6 27 6C26.6022 6 26.2207 5.84197 25.9394 5.56066C25.6581 5.27936 25.5 4.89783 25.5 4.5ZM25.5 12C25.5 11.6022 25.6581 11.2206 25.9394 10.9393C26.2207 10.658 26.6022 10.5 27 10.5C29.7848 10.5 32.4555 11.6063 34.4246 13.5754C36.3938 15.5445 37.5 18.2152 37.5 21C37.5 21.3978 37.342 21.7794 37.0607 22.0607C36.7794 22.342 36.3979 22.5 36 22.5C35.6022 22.5 35.2207 22.342 34.9394 22.0607C34.6581 21.7794 34.5 21.3978 34.5 21C34.5 20.0151 34.306 19.0398 33.9291 18.1299C33.5522 17.2199 32.9998 16.3931 32.3033 15.6967C31.6069 15.0003 30.7801 14.4478 29.8702 14.0709C28.9602 13.694 27.9849 13.5 27 13.5C26.6022 13.5 26.2207 13.342 25.9394 13.0607C25.6581 12.7794 25.5 12.3978 25.5 12V12Z" fill="#0FAFEB"/>
</svg>
