<svg width="24" height="24" viewBox="0 0 24 24" fill="none" xmlns="http://www.w3.org/2000/svg">
<path fill-rule="evenodd" clip-rule="evenodd" d="M10.6667 17.8333C14.6247 17.8333 17.8333 14.6247 17.8333 10.6667C17.8333 6.7086 14.6247 3.5 10.6667 3.5C6.7086 3.5 3.5 6.7086 3.5 10.6667C3.5 14.6247 6.7086 17.8333 10.6667 17.8333ZM10.6667 19.3333C15.4531 19.3333 19.3333 15.4531 19.3333 10.6667C19.3333 5.8802 15.4531 2 10.6667 2C5.8802 2 2 5.8802 2 10.6667C2 15.4531 5.8802 19.3333 10.6667 19.3333Z" fill="white"/>
<path fill-rule="evenodd" clip-rule="evenodd" d="M16.1364 16.1364C16.4293 15.8435 16.9042 15.8435 17.1971 16.1364L22.5304 21.4697C22.8233 21.7626 22.8233 22.2375 22.5304 22.5304C22.2375 22.8233 21.7626 22.8233 21.4697 22.5304L16.1364 17.1971C15.8435 16.9042 15.8435 16.4293 16.1364 16.1364Z" fill="white"/>
</svg>
