<svg width="0" height="0" class="hidden">
  <symbol xmlns="http://www.w3.org/2000/svg" viewBox="0 0 24 24" id="search_icon">
    <path d="M10.6667 17.8333C14.6247 17.8333 17.8333 14.6247 17.8333 10.6667C17.8333 6.7086 14.6247 3.5 10.6667 3.5C6.7086 3.5 3.5 6.7086 3.5 10.6667C3.5 14.6247 6.7086 17.8333 10.6667 17.8333ZM10.6667 19.3333C15.4531 19.3333 19.3333 15.4531 19.3333 10.6667C19.3333 5.8802 15.4531 2 10.6667 2C5.8802 2 2 5.8802 2 10.6667C2 15.4531 5.8802 19.3333 10.6667 19.3333Z"></path>
    <path fill-rule="evenodd" clip-rule="evenodd" d="M16.1364 16.1364C16.4293 15.8435 16.9042 15.8435 17.1971 16.1364L22.5304 21.4697C22.8233 21.7626 22.8233 22.2375 22.5304 22.5304C22.2375 22.8233 21.7626 22.8233 21.4697 22.5304L16.1364 17.1971C15.8435 16.9042 15.8435 16.4293 16.1364 16.1364Z" fill="white"></path>
  </symbol>
  <symbol xmlns="http://www.w3.org/2000/svg" viewBox="0 0 1920.001 336.228" id="rossait">
    <path d="M1919.977 106.188c-.115 6.914-6.32 12.54-13.931 12.54h-43.096c-4.437.984-8.947 1.946-13.499 2.913-3.15 2.329-5.211 5.844-5.211 9.833v186.129c0 7.011 2.742 12.746-4.932 12.746h-56.58c-7.677 0-13.952-5.735-13.952-12.746V131.475c0-1.334-.286-2.581-.701-3.795-1.796-5.157-5.445-8.952-11.671-8.952h-49.671c-7.674 0-13.952-5.729-13.952-12.735V70.479c0-6.988 6.279-12.74 13.952-12.74h199.314c1.978 0 3.865.406 5.574 1.093 4.922 1.969 8.382 6.456 8.382 11.647v35.514l-.026.195zm-278.518 224.099h-47.56c-7.677 0-13.949-5.729-13.949-12.723v-47.288c0-7-3.561-8.769-7.911-3.921l-5.375 5.134c-5.365 5.146-11.27 10.279-17.716 15.448a555.354 555.354 0 01-7.59 6.004h.01l-.017.023a469.535 469.535 0 01-6.69 5.174c-1.786 1.374-3.589 2.673-5.386 3.995-17.067 11.459-46.57 29.402-92.326 28.154h-21.068c-7.674 0-13.949-5.729-13.949-12.723V70.422c0-7 6.275-12.718 13.949-12.718h49.144c7.667 0 13.949 5.718 13.949 12.718V240.05c0 6.977 4.406 10.131 9.791 6.948 0 0 3.16 0 8.253-3.428 5.106-3.417 10.335-7.2 15.71-11.384 8.581-6.37 17.046-13.399 25.352-21.12a431.568 431.568 0 0023.36-23.318c1.486-1.7 2.927-3.354 4.35-5.008a357.055 357.055 0 005.504-6.565 265.29 265.29 0 008.657-11.218V70.422c0-7 6.272-12.718 13.949-12.718h47.56c7.674 0 13.952 5.718 13.952 12.718v247.141c-.001 6.995-6.279 12.724-13.953 12.724zM1577.278 31.17c-13.53 7.652-28.847 11.47-45.959 11.47-16.774 0-31.923-3.818-45.447-11.47-6.059-3.446-10.984-7.446-14.884-12.008C1458.564 3.446 1475.174 0 1475.174 0h108.177c9.791 0 14.814 6.771 11.158 15.059 0 0-3.715 8.442-17.231 16.111zm-226.971 299.18h-49.22c-14.598 0-18.79-8.574-20.011-12.483a202.99 202.99 0 00-.359-1.82 272.95 272.95 0 01-.896-4.573h-79.808V250.02h63.874a2836.545 2836.545 0 00-7.437-23.976h.007c-.889-2.896-1.761-5.775-2.522-8.316-.045-.824-.15-1.654-.415-2.535 0 0-.314-1.082-2.086-5.975-.216-.601-.45-1.219-.708-1.935-2.421-6.611-4.828-12.987-7.248-19.099l-.185-.458c-4.235-10.337-8.26-19.197-12.086-26.563-3.896-7.458-6.387-12.306-7.454-14.509-7.001 13.633-13.401 27.931-19.387 42.686-.896 2.192-1.873 4.321-2.748 6.536-4.66 11.91-8.867 33.666-12.875 45.565-1.563.114-3.125.223-4.685.332h-79.867c4.238-13.462 8.804-36.591 13.569-49.703 7.004-19.265 14.514-38.176 22.662-56.594 11.849-26.815 23.984-49.817 36.43-69.009 1.569-2.272 7.137-8.728 19.858-8.728h52.942c7.681 0 17.155 4.951 21.061 10.949 0 0 13.893 21.475 22.882 38.491 8.985 16.999 17.109 34.101 24.354 51.243 3.544 8.385 6.84 16.695 9.994 24.983 4.332 11.396 8.35 22.705 12.02 33.94 3.554 10.852 6.899 21.675 9.784 32.384l.087.292h.474v1.803c6.296 23.409 11.41 45.021 15.355 64.836.532 4.344-.078 13.69-15.356 13.69zm-268.179-216.784l-6.753-.853c-6.763-.813-13.966-1.087-21.609-.795-29.481 1.116-51.854 9.346-67.118 24.737-14.933 15.036-21.972 34.295-21.243 57.625.025.504-.01 1.002.01 1.494 1.04 23.054 6.963 40.11 17.755 51.134 10.785 11.024 22.467 18.584 35.048 22.682 6.68 1.9 13.203 4.613 19.561 5.203 5.124.509 9.7.715 13.767.698h111.18v57.773h-77.799l-295.554.395h.004-4.22l-5.78.012c-4.517-.12-9.798-.498-13.077-.727-37.49-2.856-65.883-12.803-85.12-32.819-24.225-25.172-38.373-53.481-42.429-84.851a123.08 123.08 0 01-.924-7.36 135.408 135.408 0 01-.541-7.378c-.199-4.298-.195-8.482-.066-12.626 1.071-35.251 13.764-65.008 38.156-89.19 27.256-27.038 66.557-41.518 117.898-43.47 10.527-.401 20.357-.223 29.492.521 9.135.71 17.828 1.912 26.073 3.52l2.072 45.531c.321 6.88-4.556 11.458-10.81 10.188l-6.76-.818c-6.764-.801-13.967-1.076-21.598-.796-29.489 1.116-51.861 9.375-67.118 24.76-13.925 14.017-20.953 31.714-21.263 52.943-.024 2.055-.077 4.064.021 6.17 1.05 23.054 6.969 40.116 17.754 51.151 10.785 11.001 22.47 18.556 35.052 22.648 6.68 1.917 13.206 3.177 19.558 3.795 5.135.475 9.704.687 13.778.664l94.877-.189c-12.822-19.013-20.775-39.492-23.622-61.562-.38-2.37-.691-4.837-.931-7.372a139.114 139.114 0 01-.537-7.372c-.08-1.666-.087-3.303-.119-4.911-.642-38.662 12.072-70.966 38.209-96.899 27.256-27.015 66.563-41.536 117.898-43.459 10.527-.389 20.36-.223 29.495.504 9.135.755 17.814 1.929 26.073 3.531l2.068 45.542c.315 6.855-4.547 11.457-10.808 10.226zM561.706 300.021c-29.939 24.153-66.623 36.207-110.102 36.207-44.017 0-80.854-12.054-110.5-36.207-29.663-24.119-44.484-59.433-44.484-105.977 0-8.351.495-16.329 1.437-23.976.3-2.358.757-4.648 1.141-6.966 5.323-31.726 19.199-56.937 41.906-75.413 29.645-24.13 66.483-36.173 110.5-36.173 43.479 0 80.163 12.042 110.102 36.173 28.281 22.814 43.183 55.764 44.728 98.817.087 2.478.154 4.974.154 7.538 0 9.507-.656 18.504-1.905 27.055-4.852 33.397-19.156 59.737-42.977 78.922zm-43.147-118.397c-1.653-16.455-6.624-31.182-15.023-44.157-10.464-16.157-27.776-24.245-51.931-24.245-24.696 0-42.14 8.087-52.332 24.245-6.488 10.308-10.834 21.692-13.185 34.147a118.649 118.649 0 00-1.95 16.902c-.077 1.837-.16 3.657-.16 5.529 0 21.566 5.166 40.414 15.498 56.571 10.321 16.186 27.706 24.256 52.13 24.256 24.155 0 41.467-8.07 51.931-24.256 7.702-11.899 12.554-25.269 14.58-40.099a120.739 120.739 0 001.116-16.472c-.001-4.265-.263-8.385-.674-12.421zm-378.316 87.004c-1.329 0-2.648-.029-3.969-.075-9.516-.194-9.721-10.028-9.721-10.028v-44.277c0-5.477 4.001-6.839 6.066-7.195l.394-.057c.464-.052.802-.069.802-.069l-.045-.023c10.105-1.328 18.731-4.67 25.801-10.096 9.387-7.217 14.085-18.304 14.085-33.259 0-1.705-.202-4.573-.603-8.631-.216-2.221-.816-4.51-1.716-6.92a41.296 41.296 0 00-2.913-6.118 32.965 32.965 0 00-2.822-4.224c-.258-.326-.593-.653-.876-.984-.82-.945-1.653-1.895-2.56-2.759l-.46-.498-.199-.069c-12.606-11.424-32.474-13.908-40.612-14.44l-.154-.074c-.453-.023-.942-.017-1.402-.023-1.298-.074-2.093-.074-2.093-.074l.028.017c-.666-.006-1.301-.023-1.985-.023H90.998c-7.677 0-13.952 5.712-13.952 12.746v186.129c0 7.011-6.275 12.746-13.949 12.746H13.945C6.271 330.35 0 324.615 0 317.604V70.479c0-4.367 2.442-8.225 6.146-10.543a14.925 14.925 0 017.799-2.198h103.087c7.67 0 20.168.796 27.772 1.734 0 0 14.085 1.78 30.978 5.649h-.021l.052.011c5.093 1.179 10.444 2.541 15.738 4.109 17.953 6.273 46.776 21.429 62.416 56.583 3.157 7.893 5.26 16.072 6.237 24.508.262 2.209.467 4.464.6 6.788.049.841.049 1.608.073 2.41.028.973.073 1.98.084 2.936.01.464.045.973.045 1.454 0 29.396-10.332 54.196-30.992 74.4-20.669 20.189-50.59 30.308-89.771 30.308z"></path>
  </symbol>
  <symbol xmlns="http://www.w3.org/2000/svg" viewBox="0 0 12 12" id="right_icon">
    <path d="M7.10418 6L3.45632 2.68377C3.18388 2.4361 3.1638 2.01447 3.41148 1.74203C3.65915 1.46959 4.08078 1.44951 4.35322 1.69718L8.54369 5.50671C8.83465 5.77121 8.83465 6.22879 8.54369 6.49329L4.35322 10.3028C4.08078 10.5505 3.65915 10.5304 3.41148 10.258C3.1638 9.98554 3.18388 9.5639 3.45632 9.31623L7.10418 6Z"></path>
  </symbol>
  <symbol xmlns="http://www.w3.org/2000/svg" viewBox="0 0 48 48" id="phone_icon">
    <path d="M41.73 30.93L35.115 29.04C34.3428 28.8176 33.5252 28.8061 32.7471 29.0066C31.9689 29.207 31.2586 29.6122 30.69 30.18L27.105 33.765C21.3884 31.189 16.811 26.6116 14.235 20.895L17.82 17.31C18.3878 16.7414 18.793 16.0311 18.9935 15.253C19.1939 14.4748 19.1824 13.6572 18.96 12.885L17.07 6.27C16.8021 5.32723 16.2338 4.49769 15.4513 3.90747C14.6689 3.31725 13.7151 2.99862 12.735 3H7.50003C6.30655 3 5.16196 3.47411 4.31805 4.31802C3.47413 5.16194 3.00003 6.30653 3.00003 7.5V10.5C2.98657 15.0323 3.87333 19.5221 5.60884 23.709C7.34436 27.8958 9.89407 31.6964 13.11 34.89C16.3037 38.106 20.1042 40.6557 24.291 42.3912C28.4779 44.1267 32.9677 45.0135 37.5 45H40.5C41.6935 45 42.8381 44.5259 43.682 43.682C44.5259 42.8381 45 41.6935 45 40.5V35.265C45.0014 34.2849 44.6828 33.3312 44.0926 32.5487C43.5023 31.7663 42.6728 31.1979 41.73 30.93ZM42 40.5C42 40.8978 41.842 41.2794 41.5607 41.5607C41.2794 41.842 40.8979 42 40.5 42H37.5C33.3615 42.0126 29.2615 41.2038 25.4379 39.6202C21.6142 38.0367 18.1429 35.71 15.225 32.775C12.29 29.8572 9.96335 26.3858 8.37981 22.5622C6.79628 18.7385 5.98739 14.6386 6.00003 10.5V7.5C6.00003 7.10218 6.15806 6.72065 6.43937 6.43934C6.72067 6.15804 7.1022 6 7.50003 6H12.735C13.0717 5.98756 13.4028 6.08881 13.6749 6.28745C13.947 6.48609 14.1443 6.77055 14.235 7.095L16.14 13.71C16.2177 13.9718 16.2225 14.2499 16.1538 14.5143C16.085 14.7786 15.9454 15.0192 15.75 15.21L11.385 19.5C11.1774 19.708 11.0354 19.9724 10.9767 20.2604C10.918 20.5484 10.9453 20.8473 11.055 21.12C12.5036 24.6826 14.6517 27.9186 17.3724 30.6367C20.0931 33.3548 23.3311 35.4998 26.895 36.945C27.1657 37.0516 27.4616 37.0771 27.7466 37.0185C28.0315 36.9599 28.2933 36.8197 28.5 36.615L32.805 32.31C32.9959 32.1146 33.2364 31.975 33.5008 31.9063C33.7651 31.8375 34.0432 31.8423 34.305 31.92L40.92 33.825C41.2445 33.9157 41.5289 34.1131 41.7276 34.3852C41.9262 34.6573 42.0275 34.9883 42.015 35.325L42 40.5ZM25.5 4.5C25.5 4.10218 25.6581 3.72065 25.9394 3.43934C26.2207 3.15804 26.6022 3 27 3C31.7739 3 36.3523 4.89643 39.7279 8.27208C43.1036 11.6477 45 16.2261 45 21C45 21.3978 44.842 21.7794 44.5607 22.0607C44.2794 22.342 43.8979 22.5 43.5 22.5C43.1022 22.5 42.7207 22.342 42.4394 22.0607C42.1581 21.7794 42 21.3978 42 21C42 19.0302 41.612 17.0796 40.8582 15.2598C40.1044 13.4399 38.9995 11.7863 37.6066 10.3934C36.2137 9.00052 34.5602 7.89563 32.7403 7.14181C30.9204 6.38799 28.9699 6 27 6C26.6022 6 26.2207 5.84197 25.9394 5.56066C25.6581 5.27936 25.5 4.89783 25.5 4.5ZM25.5 12C25.5 11.6022 25.6581 11.2206 25.9394 10.9393C26.2207 10.658 26.6022 10.5 27 10.5C29.7848 10.5 32.4555 11.6063 34.4246 13.5754C36.3938 15.5445 37.5 18.2152 37.5 21C37.5 21.3978 37.342 21.7794 37.0607 22.0607C36.7794 22.342 36.3979 22.5 36 22.5C35.6022 22.5 35.2207 22.342 34.9394 22.0607C34.6581 21.7794 34.5 21.3978 34.5 21C34.5 20.0151 34.306 19.0398 33.9291 18.1299C33.5522 17.2199 32.9998 16.3931 32.3033 15.6967C31.6069 15.0003 30.7801 14.4478 29.8702 14.0709C28.9602 13.694 27.9849 13.5 27 13.5C26.6022 13.5 26.2207 13.342 25.9394 13.0607C25.6581 12.7794 25.5 12.3978 25.5 12V12Z"></path>
  </symbol>  
  <symbol xmlns="http://www.w3.org/2000/svg" viewBox="0 0 36 36" id="map_icon">
    <path d="M30.375 22.2188C30.0766 22.2188 29.7905 22.3373 29.5795 22.5483C29.3685 22.7592 29.25 23.0454 29.25 23.3438V27.4275L22.5 30.8025V23.625C22.5 23.3266 22.3815 23.0405 22.1705 22.8295C21.9595 22.6185 21.6734 22.5 21.375 22.5C21.0766 22.5 20.7905 22.6185 20.5795 22.8295C20.3685 23.0405 20.25 23.3266 20.25 23.625V30.8025L13.5 27.4275V11.9475L14.1975 12.2963C14.3303 12.3675 14.476 12.4113 14.626 12.4251C14.776 12.4389 14.9273 12.4224 15.0708 12.3767C15.2144 12.3309 15.3473 12.2568 15.4616 12.1587C15.576 12.0606 15.6695 11.9406 15.7365 11.8057C15.8036 11.6708 15.8429 11.5238 15.8521 11.3734C15.8613 11.223 15.8402 11.0723 15.79 10.9303C15.7398 10.7882 15.6617 10.6577 15.5601 10.5464C15.4585 10.4351 15.3357 10.3454 15.1988 10.2825L12.8813 9.1575C12.7242 9.07837 12.5508 9.03716 12.375 9.03716C12.1992 9.03716 12.0258 9.07837 11.8688 9.1575L2.86875 13.6575C2.68823 13.7483 2.5355 13.8861 2.42662 14.0563C2.31774 14.2266 2.25673 14.423 2.25 14.625V32.625C2.24962 32.8162 2.29797 33.0043 2.39048 33.1716C2.483 33.3389 2.61663 33.4799 2.77875 33.5813C2.95779 33.6922 3.16437 33.7507 3.375 33.75C3.55111 33.7489 3.72451 33.7066 3.88125 33.6262L12.375 29.385L20.8688 33.6262C21.0258 33.7054 21.1992 33.7466 21.375 33.7466C21.5508 33.7466 21.7242 33.7054 21.8813 33.6262L30.8813 29.1262C31.0668 29.0328 31.2228 28.8897 31.332 28.713C31.4412 28.5363 31.4994 28.3328 31.5 28.125V23.3438C31.5 23.0454 31.3815 22.7592 31.1705 22.5483C30.9595 22.3373 30.6734 22.2188 30.375 22.2188ZM4.5 15.3225L11.25 11.9475V27.4275L4.5 30.8025V15.3225ZM25.155 22.2413C25.3572 22.4096 25.6119 22.5018 25.875 22.5018C26.1381 22.5018 26.3929 22.4096 26.595 22.2413C26.8875 21.9938 33.75 16.2112 33.75 10.125C33.75 8.03642 32.9203 6.03338 31.4435 4.55653C29.9666 3.07969 27.9636 2.25 25.875 2.25C23.7864 2.25 21.7834 3.07969 20.3065 4.55653C18.8297 6.03338 18 8.03642 18 10.125C18 16.2112 24.8625 21.9938 25.155 22.2413ZM25.875 4.5C27.3668 4.5 28.7976 5.09263 29.8525 6.14752C30.9074 7.20242 31.5 8.63316 31.5 10.125C31.5 14.1187 27.54 18.2812 25.875 19.8562C24.21 18.2812 20.25 14.1187 20.25 10.125C20.25 8.63316 20.8426 7.20242 21.8975 6.14752C22.9524 5.09263 24.3832 4.5 25.875 4.5V4.5ZM29.25 10.125C29.25 9.45749 29.0521 8.80497 28.6812 8.24995C28.3104 7.69493 27.7833 7.26235 27.1666 7.00691C26.5499 6.75146 25.8713 6.68462 25.2166 6.81485C24.5619 6.94508 23.9605 7.26651 23.4885 7.73851C23.0165 8.21052 22.6951 8.81188 22.5649 9.46657C22.4346 10.1213 22.5015 10.7999 22.7569 11.4166C23.0124 12.0333 23.4449 12.5604 24 12.9312C24.555 13.3021 25.2075 13.5 25.875 13.5C26.7701 13.5 27.6286 13.1444 28.2615 12.5115C28.8944 11.8786 29.25 11.0201 29.25 10.125ZM24.75 10.125C24.75 9.9025 24.816 9.68499 24.9396 9.49998C25.0632 9.31498 25.2389 9.17078 25.4445 9.08564C25.6501 9.00049 25.8763 8.97821 26.0945 9.02162C26.3127 9.06502 26.5132 9.17217 26.6705 9.32951C26.8278 9.48684 26.935 9.68729 26.9784 9.90552C27.0218 10.1238 26.9995 10.35 26.9144 10.5555C26.8292 10.7611 26.685 10.9368 26.5 11.0604C26.315 11.184 26.0975 11.25 25.875 11.25C25.5766 11.25 25.2905 11.1315 25.0795 10.9205C24.8685 10.7095 24.75 10.4234 24.75 10.125Z"></path>
  </symbol>
  <symbol xmlns="http://www.w3.org/2000/svg" viewBox="0 0 48 48" id="email_icon">
    <path d="M24 27C24.3978 27 24.7794 26.842 25.0607 26.5607C25.342 26.2794 25.5 25.8978 25.5 25.5C25.5 25.1022 25.342 24.7207 25.0607 24.4393C24.7794 24.158 24.3978 24 24 24C22.22 24 20.4799 23.4722 18.9999 22.4832C17.5198 21.4943 16.3663 20.0887 15.6851 18.4442C15.0039 16.7996 14.8257 14.99 15.1729 13.2442C15.5202 11.4984 16.3774 9.89472 17.636 8.63605C18.8947 7.37737 20.4984 6.52021 22.2442 6.17294C23.99 5.82567 25.7996 6.0039 27.4442 6.68509C29.0887 7.36628 30.4943 8.51983 31.4832 9.99987C32.4722 11.4799 33 13.22 33 15V18C33 18.3978 32.842 18.7794 32.5607 19.0607C32.2794 19.342 31.8978 19.5 31.5 19.5C31.1022 19.5 30.7206 19.342 30.4393 19.0607C30.158 18.7794 30 18.3978 30 18V15C30 13.8133 29.6481 12.6533 28.9888 11.6666C28.3295 10.6799 27.3925 9.91086 26.2961 9.45673C25.1997 9.0026 23.9933 8.88378 22.8295 9.11529C21.6656 9.34681 20.5965 9.91825 19.7574 10.7574C18.9182 11.5965 18.3468 12.6656 18.1153 13.8295C17.8838 14.9934 18.0026 16.1998 18.4567 17.2961C18.9108 18.3925 19.6799 19.3295 20.6666 19.9888C21.6533 20.6481 22.8133 21 24 21C25.2302 20.9958 26.4293 20.6135 27.435 19.905C27.8722 20.8259 28.6092 21.571 29.5252 22.0184C30.4412 22.4658 31.482 22.5889 32.4771 22.3676C33.4722 22.1463 34.3626 21.5936 35.0027 20.8001C35.6427 20.0067 35.9943 19.0194 36 18V15C36 12.6266 35.2962 10.3066 33.9776 8.33316C32.6591 6.35977 30.7849 4.8217 28.5922 3.91345C26.3995 3.0052 23.9867 2.76756 21.6589 3.23058C19.3311 3.6936 17.1929 4.83649 15.5147 6.51472C13.8365 8.19295 12.6936 10.3312 12.2306 12.6589C11.7676 14.9867 12.0052 17.3995 12.9134 19.5922C13.8217 21.7849 15.3598 23.6591 17.3332 24.9776C19.3065 26.2962 21.6266 27 24 27ZM24 18C23.4067 18 22.8266 17.8241 22.3333 17.4944C21.8399 17.1648 21.4554 16.6962 21.2284 16.1481C21.0013 15.5999 20.9419 14.9967 21.0576 14.4147C21.1734 13.8328 21.4591 13.2982 21.8787 12.8787C22.2982 12.4591 22.8328 12.1734 23.4147 12.0577C23.9967 11.9419 24.5999 12.0013 25.1481 12.2284C25.6962 12.4554 26.1648 12.8399 26.4944 13.3333C26.8241 13.8266 27 14.4067 27 15C27 15.7957 26.6839 16.5587 26.1213 17.1213C25.5587 17.6839 24.7956 18 24 18V18ZM44.415 19.815L39.915 16.35C39.599 16.1357 39.2131 16.05 38.8361 16.1104C38.4591 16.1707 38.1193 16.3726 37.8859 16.6748C37.6526 16.977 37.5433 17.3568 37.5802 17.7368C37.6172 18.1169 37.7977 18.4685 38.085 18.72L41.085 21L24 34.11L6.96 21L9.96 18.72C10.2743 18.4714 10.4769 18.1081 10.5233 17.71C10.5697 17.312 10.4561 16.9118 10.2075 16.5975C9.95886 16.2832 9.59555 16.0806 9.19751 16.0342C8.79946 15.9878 8.39928 16.1014 8.085 16.35L3.585 19.815C3.40348 19.9547 3.25637 20.1342 3.15497 20.3396C3.05356 20.545 3.00055 20.7709 3 21V40.5C3 41.6935 3.47411 42.8381 4.31802 43.682C5.16193 44.5259 6.30653 45 7.5 45H40.5C41.6935 45 42.8381 44.5259 43.682 43.682C44.5259 42.8381 45 41.6935 45 40.5V21C44.9994 20.7709 44.9464 20.545 44.845 20.3396C44.7436 20.1342 44.5965 19.9547 44.415 19.815ZM40.5 42H7.5C7.10218 42 6.72064 41.842 6.43934 41.5607C6.15804 41.2794 6 40.8978 6 40.5V24L23.085 37.14C23.3473 37.3419 23.669 37.4514 24 37.4514C24.331 37.4514 24.6527 37.3419 24.915 37.14L42 24V40.5C42 40.8978 41.842 41.2794 41.5607 41.5607C41.2794 41.842 40.8978 42 40.5 42Z"></path>
  </symbol>
  <symbol xmlns="http://www.w3.org/2000/svg" viewBox="0 0 12 12" id="down_icon">
    <path d="M6 7.10411L9.31623 3.45626C9.5639 3.18382 9.98553 3.16374 10.258 3.41142C10.5304 3.65909 10.5505 4.08072 10.3028 4.35316L6.49329 8.54363C6.22879 8.83459 5.77121 8.83459 5.50671 8.54363L1.69718 4.35316C1.44951 4.08072 1.46959 3.65909 1.74203 3.41142C2.01446 3.16374 2.4361 3.18382 2.68377 3.45626L6 7.10411Z"></path>
  </symbol>
  <symbol xmlns="http://www.w3.org/2000/svg" viewBox="0 0 36 36" id="contacts_icon">
    <path d="M33.75 14.625V25.875C33.75 26.7701 33.3944 27.6286 32.7615 28.2615C32.1286 28.8944 31.2701 29.25 30.375 29.25V32.625C30.3739 32.8471 30.3071 33.0639 30.1829 33.2481C30.0588 33.4323 29.8829 33.5756 29.6775 33.66C29.544 33.723 29.3976 33.7538 29.25 33.75C29.1019 33.7509 28.9552 33.7225 28.8181 33.6665C28.681 33.6105 28.5564 33.528 28.4513 33.4237L24.2888 29.25H12.375C11.4799 29.25 10.6214 28.8944 9.98851 28.2615C9.35558 27.6286 9 26.7701 9 25.875C9 25.5766 9.11853 25.2905 9.32951 25.0795C9.54048 24.8685 9.82663 24.75 10.125 24.75C10.4234 24.75 10.7095 24.8685 10.9205 25.0795C11.1315 25.2905 11.25 25.5766 11.25 25.875C11.25 26.1734 11.3685 26.4595 11.5795 26.6705C11.7905 26.8815 12.0766 27 12.375 27H24.75C24.8981 26.9991 25.0448 27.0275 25.1819 27.0835C25.319 27.1395 25.4436 27.222 25.5487 27.3263L28.125 29.9138V28.125C28.125 27.8266 28.2435 27.5405 28.4545 27.3295C28.6655 27.1185 28.9516 27 29.25 27H30.375C30.6734 27 30.9595 26.8815 31.1705 26.6705C31.3815 26.4595 31.5 26.1734 31.5 25.875V14.625C31.5 14.3266 31.3815 14.0405 31.1705 13.8295C30.9595 13.6185 30.6734 13.5 30.375 13.5C30.0766 13.5 29.7905 13.3815 29.5795 13.1705C29.3685 12.9595 29.25 12.6734 29.25 12.375C29.25 12.0766 29.3685 11.7905 29.5795 11.5795C29.7905 11.3685 30.0766 11.25 30.375 11.25C31.2701 11.25 32.1286 11.6056 32.7615 12.2385C33.3944 12.8714 33.75 13.7299 33.75 14.625ZM11.7112 20.25L7.54875 24.4237C7.44363 24.528 7.31896 24.6105 7.18189 24.6665C7.04483 24.7225 6.89806 24.7509 6.75 24.75C6.60243 24.7538 6.45601 24.723 6.3225 24.66C6.11705 24.5756 5.94119 24.4323 5.81706 24.2481C5.69294 24.0639 5.62611 23.8471 5.625 23.625V20.25C4.72989 20.25 3.87145 19.8944 3.23851 19.2615C2.60558 18.6286 2.25 17.7701 2.25 16.875V5.625C2.25 4.72989 2.60558 3.87145 3.23851 3.23851C3.87145 2.60558 4.72989 2.25 5.625 2.25H23.625C24.5201 2.25 25.3786 2.60558 26.0115 3.23851C26.6444 3.87145 27 4.72989 27 5.625V16.875C27 17.7701 26.6444 18.6286 26.0115 19.2615C25.3786 19.8944 24.5201 20.25 23.625 20.25H11.7112ZM11.25 18H23.625C23.9234 18 24.2095 17.8815 24.4205 17.6705C24.6315 17.4595 24.75 17.1734 24.75 16.875V5.625C24.75 5.32663 24.6315 5.04048 24.4205 4.82951C24.2095 4.61853 23.9234 4.5 23.625 4.5H5.625C5.32663 4.5 5.04048 4.61853 4.82951 4.82951C4.61853 5.04048 4.5 5.32663 4.5 5.625V16.875C4.5 17.1734 4.61853 17.4595 4.82951 17.6705C5.04048 17.8815 5.32663 18 5.625 18H6.75C7.04837 18 7.33452 18.1185 7.54549 18.3295C7.75647 18.5405 7.875 18.8266 7.875 19.125V20.9138L10.4512 18.3263C10.5564 18.222 10.681 18.1395 10.8181 18.0835C10.9552 18.0275 11.1019 17.9991 11.25 18ZM14.625 10.125C14.4025 10.125 14.185 10.191 14 10.3146C13.815 10.4382 13.6708 10.6139 13.5856 10.8195C13.5005 11.025 13.4782 11.2512 13.5216 11.4695C13.565 11.6877 13.6722 11.8882 13.8295 12.0455C13.9868 12.2028 14.1873 12.31 14.4055 12.3534C14.6238 12.3968 14.85 12.3745 15.0555 12.2894C15.2611 12.2042 15.4368 12.06 15.5604 11.875C15.684 11.69 15.75 11.4725 15.75 11.25C15.75 10.9516 15.6315 10.6655 15.4205 10.4545C15.2095 10.2435 14.9234 10.125 14.625 10.125ZM20.25 10.125C20.0275 10.125 19.81 10.191 19.625 10.3146C19.44 10.4382 19.2958 10.6139 19.2106 10.8195C19.1255 11.025 19.1032 11.2512 19.1466 11.4695C19.19 11.6877 19.2972 11.8882 19.4545 12.0455C19.6118 12.2028 19.8123 12.31 20.0305 12.3534C20.2488 12.3968 20.475 12.3745 20.6805 12.2894C20.8861 12.2042 21.0618 12.06 21.1854 11.875C21.309 11.69 21.375 11.4725 21.375 11.25C21.375 10.9516 21.2565 10.6655 21.0455 10.4545C20.8345 10.2435 20.5484 10.125 20.25 10.125ZM9 10.125C8.7775 10.125 8.55999 10.191 8.37498 10.3146C8.18998 10.4382 8.04578 10.6139 7.96064 10.8195C7.87549 11.025 7.85321 11.2512 7.89662 11.4695C7.94002 11.6877 8.04717 11.8882 8.20451 12.0455C8.36184 12.2028 8.56229 12.31 8.78052 12.3534C8.99875 12.3968 9.22495 12.3745 9.43052 12.2894C9.63609 12.2042 9.81179 12.06 9.9354 11.875C10.059 11.69 10.125 11.4725 10.125 11.25C10.125 10.9516 10.0065 10.6655 9.79549 10.4545C9.58452 10.2435 9.29837 10.125 9 10.125V10.125Z"></path>
  </symbol>
  <symbol xmlns="http://www.w3.org/2000/svg" viewBox="0 0 48 48" id="clock_icon">
    <path d="M24 3C19.8466 3 15.7865 4.23163 12.333 6.53914C8.8796 8.84665 6.18798 12.1264 4.59854 15.9636C3.0091 19.8009 2.59323 24.0233 3.40352 28.0969C4.21381 32.1705 6.21386 35.9123 9.15077 38.8492C12.0877 41.7861 15.8295 43.7862 19.9031 44.5965C23.9767 45.4068 28.1991 44.9909 32.0364 43.4015C35.8736 41.812 39.1534 39.1204 41.4609 35.667C43.7684 32.2135 45 28.1534 45 24C45 18.4305 42.7875 13.089 38.8493 9.15076C34.911 5.21249 29.5696 3 24 3V3ZM37.725 35.61L35.67 33.54C35.3876 33.2575 35.0045 33.0989 34.605 33.0989C34.2056 33.0989 33.8225 33.2575 33.54 33.54C33.2576 33.8225 33.0989 34.2055 33.0989 34.605C33.0989 35.0045 33.2576 35.3875 33.54 35.67L35.61 37.725C32.7727 40.1765 29.2354 41.6723 25.5 42V39C25.5 38.6022 25.342 38.2206 25.0607 37.9393C24.7794 37.658 24.3978 37.5 24 37.5C23.6022 37.5 23.2207 37.658 22.9394 37.9393C22.658 38.2206 22.5 38.6022 22.5 39V42C18.7733 41.6935 15.2369 40.2244 12.39 37.8L14.46 35.745C14.7425 35.4625 14.9011 35.0795 14.9011 34.68C14.9011 34.2806 14.7425 33.8975 14.46 33.615C14.1776 33.3325 13.7945 33.1739 13.395 33.1739C12.9956 33.1739 12.6125 33.3325 12.33 33.615L10.275 35.61C7.85062 32.7631 6.3815 29.2267 6.07501 25.5H9.00001C9.39783 25.5 9.77937 25.342 10.0607 25.0607C10.342 24.7794 10.5 24.3978 10.5 24C10.5 23.6022 10.342 23.2206 10.0607 22.9393C9.77937 22.658 9.39783 22.5 9.00001 22.5H6.07501C6.3815 18.7733 7.85062 15.2369 10.275 12.39L12.33 14.46C12.4702 14.599 12.6364 14.709 12.8191 14.7837C13.0019 14.8583 13.1976 14.8961 13.395 14.895C13.5924 14.8961 13.7881 14.8583 13.9709 14.7837C14.1536 14.709 14.3199 14.599 14.46 14.46C14.6006 14.3206 14.7122 14.1547 14.7883 13.9719C14.8645 13.7891 14.9037 13.593 14.9037 13.395C14.9037 13.197 14.8645 13.0009 14.7883 12.8181C14.7122 12.6353 14.6006 12.4694 14.46 12.33L12.39 10.275C15.2369 7.85061 18.7733 6.38149 22.5 6.075V9C22.5 9.39783 22.658 9.77936 22.9394 10.0607C23.2207 10.342 23.6022 10.5 24 10.5C24.3978 10.5 24.7794 10.342 25.0607 10.0607C25.342 9.77936 25.5 9.39783 25.5 9V6.075C29.2267 6.38149 32.7631 7.85061 35.61 10.275L33.54 12.33C33.3994 12.4694 33.2878 12.6353 33.2117 12.8181C33.1355 13.0009 33.0963 13.197 33.0963 13.395C33.0963 13.593 33.1355 13.7891 33.2117 13.9719C33.2878 14.1547 33.3994 14.3206 33.54 14.46C33.6802 14.599 33.8464 14.709 34.0292 14.7837C34.2119 14.8583 34.4076 14.8961 34.605 14.895C34.8024 14.8961 34.9981 14.8583 35.1809 14.7837C35.3636 14.709 35.5299 14.599 35.67 14.46L37.725 12.39C40.1765 15.2273 41.6723 18.7646 42 22.5H39C38.6022 22.5 38.2207 22.658 37.9394 22.9393C37.658 23.2206 37.5 23.6022 37.5 24C37.5 24.3978 37.658 24.7794 37.9394 25.0607C38.2207 25.342 38.6022 25.5 39 25.5H42C41.6723 29.2354 40.1765 32.7727 37.725 35.61V35.61ZM29.565 27.435C29.7056 27.5744 29.8172 27.7403 29.8933 27.9231C29.9695 28.1059 30.0087 28.302 30.0087 28.5C30.0087 28.698 29.9695 28.8941 29.8933 29.0769C29.8172 29.2597 29.7056 29.4256 29.565 29.565C29.4256 29.7056 29.2597 29.8172 29.0769 29.8933C28.8941 29.9695 28.698 30.0087 28.5 30.0087C28.302 30.0087 28.1059 29.9695 27.9231 29.8933C27.7404 29.8172 27.5745 29.7056 27.435 29.565L22.935 25.065C22.796 24.9248 22.686 24.7586 22.6114 24.5759C22.5367 24.3931 22.4989 24.1974 22.5 24V15C22.5 14.6022 22.658 14.2206 22.9394 13.9393C23.2207 13.658 23.6022 13.5 24 13.5C24.3978 13.5 24.7794 13.658 25.0607 13.9393C25.342 14.2206 25.5 14.6022 25.5 15V23.385L29.565 27.435Z"></path>
  </symbol>
  <symbol xmlns="http://www.w3.org/2000/svg" viewBox="0 0 32 12" id="arrow_light">
    <path d="M22 0.226442L32 5.99995L22 11.7734L22 6.99995L-5.92159e-07 6.99994L-4.17313e-07 4.99994L22 4.99995L22 0.226442Z"></path>
  </symbol>
</svg>