<svg width="466" height="159" viewBox="0 0 466 159" fill="none" xmlns="http://www.w3.org/2000/svg">
<mask id="mask0_1_2907" style="mask-type:alpha" maskUnits="userSpaceOnUse" x="0" y="0" width="466" height="159">
<rect width="466" height="159" fill="#C4C4C4"/>
</mask>
<g mask="url(#mask0_1_2907)">
<mask id="mask1_1_2907" style="mask-type:alpha" maskUnits="userSpaceOnUse" x="-48" y="-251" width="594" height="595">
<rect x="-47.9849" y="343.953" width="593.97" height="593.97" transform="rotate(-90 -47.9849 343.953)" fill="#FF8424"/>
</mask>
<g mask="url(#mask1_1_2907)">
<path d="M1359.51 -321.081L-50.4602 1088.89" stroke="#FF5016"/>
<path d="M1348.2 -332.395L-61.7737 1077.58" stroke="#FF5016"/>
<path d="M1336.88 -343.708L-73.0876 1066.26" stroke="#FF5016"/>
<path d="M1325.57 -355.022L-84.4011 1054.95" stroke="#FF5016"/>
<path d="M1314.26 -366.336L-95.7151 1043.64" stroke="#FF5016"/>
<path d="M1302.94 -377.65L-107.029 1032.32" stroke="#FF5016"/>
<path d="M1291.63 -388.963L-118.343 1021.01" stroke="#FF5016"/>
<path d="M1280.31 -400.277L-129.656 1009.69" stroke="#FF5016"/>
<path d="M1269 -411.591L-140.97 998.38" stroke="#FF5016"/>
<path d="M1257.69 -422.905L-152.283 987.066" stroke="#FF5016"/>
<path d="M1246.37 -434.218L-163.597 975.753" stroke="#FF5016"/>
<path d="M1235.06 -445.532L-174.911 964.439" stroke="#FF5016"/>
<path d="M1223.75 -456.845L-186.225 953.125" stroke="#FF5016"/>
<path d="M1212.43 -468.159L-197.538 941.812" stroke="#FF5016"/>
<path d="M1201.12 -479.473L-208.852 930.498" stroke="#FF5016"/>
<path d="M1189.81 -490.787L-220.166 919.184" stroke="#FF5016"/>
<path d="M1178.49 -502.1L-231.48 907.871" stroke="#FF5016"/>
<path d="M1167.18 -513.414L-242.793 896.557" stroke="#FF5016"/>
<path d="M1155.86 -524.728L-254.107 885.243" stroke="#FF5016"/>
<path d="M1144.55 -536.042L-265.421 873.929" stroke="#FF5016"/>
<path d="M1133.24 -547.355L-276.734 862.616" stroke="#FF5016"/>
<path d="M1121.92 -558.669L-288.048 851.302" stroke="#FF5016"/>
<path d="M1110.61 -569.983L-299.362 839.988" stroke="#FF5016"/>
<path d="M1099.3 -581.296L-310.676 828.675" stroke="#FF5016"/>
<path d="M1087.98 -592.61L-321.989 817.361" stroke="#FF5016"/>
<path d="M1076.67 -603.924L-333.303 806.047" stroke="#FF5016"/>
<path d="M1065.35 -615.237L-344.616 794.734" stroke="#FF5016"/>
<path d="M1054.04 -626.551L-355.93 783.42" stroke="#FF5016"/>
<path d="M1042.73 -637.865L-367.244 772.106" stroke="#FF5016"/>
<path d="M1031.41 -649.179L-378.558 760.792" stroke="#FF5016"/>
<path d="M1020.1 -660.492L-389.871 749.479" stroke="#FF5016"/>
<path d="M1008.79 -671.806L-401.185 738.165" stroke="#FF5016"/>
<path d="M997.472 -683.12L-412.499 726.851" stroke="#FF5016"/>
<path d="M986.158 -694.433L-423.813 715.537" stroke="#FF5016"/>
<path d="M974.845 -705.747L-435.126 704.224" stroke="#FF5016"/>
<path d="M963.531 -717.061L-446.44 692.91" stroke="#FF5016"/>
<path d="M952.217 -728.375L-457.754 681.596" stroke="#FF5016"/>
<path d="M940.903 -739.688L-469.068 670.283" stroke="#FF5016"/>
<path d="M929.59 -751.002L-480.381 658.969" stroke="#FF5016"/>
<path d="M918.276 -762.316L-491.695 647.655" stroke="#FF5016"/>
<path d="M906.962 -773.629L-503.009 636.342" stroke="#FF5016"/>
<path d="M895.649 -784.943L-514.322 625.028" stroke="#FF5016"/>
<path d="M884.335 -796.257L-525.636 613.714" stroke="#FF5016"/>
<path d="M873.021 -807.571L-536.949 602.4" stroke="#FF5016"/>
<path d="M861.708 -818.884L-548.263 591.087" stroke="#FF5016"/>
<path d="M850.394 -830.198L-559.577 579.773" stroke="#FF5016"/>
<path d="M839.08 -841.512L-570.891 568.459" stroke="#FF5016"/>
<path d="M827.767 -852.825L-582.204 557.146" stroke="#FF5016"/>
<path d="M816.453 -864.139L-593.518 545.832" stroke="#FF5016"/>
<path d="M805.139 -875.453L-604.832 534.518" stroke="#FF5016"/>
<path d="M793.825 -886.766L-616.146 523.204" stroke="#FF5016"/>
<path d="M782.512 -898.08L-627.459 511.891" stroke="#FF5016"/>
<path d="M771.198 -909.394L-638.773 500.577" stroke="#FF5016"/>
<path d="M759.884 -920.708L-650.087 489.263" stroke="#FF5016"/>
<path d="M748.57 -932.021L-661.401 477.95" stroke="#FF5016"/>
<path d="M737.257 -943.335L-672.714 466.636" stroke="#FF5016"/>
<path d="M725.943 -954.649L-684.028 455.322" stroke="#FF5016"/>
<path d="M714.629 -965.962L-695.342 444.009" stroke="#FF5016"/>
<path d="M703.315 -977.276L-706.656 432.695" stroke="#FF5016"/>
<path d="M692.002 -988.59L-717.969 421.381" stroke="#FF5016"/>
<path d="M680.688 -999.904L-729.282 410.067" stroke="#FF5016"/>
<path d="M669.375 -1011.22L-740.596 398.754" stroke="#FF5016"/>
<path d="M658.061 -1022.53L-751.91 387.44" stroke="#FF5016"/>
<path d="M646.747 -1033.84L-763.224 376.126" stroke="#FF5016"/>
<path d="M635.434 -1045.16L-774.537 364.812" stroke="#FF5016"/>
<path d="M624.12 -1056.47L-785.851 353.499" stroke="#FF5016"/>
<path d="M612.806 -1067.79L-797.165 342.185" stroke="#FF5016"/>
<path d="M601.492 -1079.1L-808.479 330.871" stroke="#FF5016"/>
<path d="M590.179 -1090.41L-819.792 319.558" stroke="#FF5016"/>
<path d="M578.865 -1101.73L-831.106 308.244" stroke="#FF5016"/>
<path d="M567.551 -1113.04L-842.42 296.93" stroke="#FF5016"/>
<path d="M556.237 -1124.35L-853.734 285.617" stroke="#FF5016"/>
<path d="M544.924 -1135.67L-865.047 274.303" stroke="#FF5016"/>
<path d="M533.61 -1146.98L-876.361 262.989" stroke="#FF5016"/>
<path d="M522.296 -1158.3L-887.675 251.676" stroke="#FF5016"/>
<path d="M510.982 -1169.61L-898.989 240.362" stroke="#FF5016"/>
<path d="M499.669 -1180.92L-910.302 229.048" stroke="#FF5016"/>
<path d="M488.355 -1192.24L-921.616 217.734" stroke="#FF5016"/>
<path d="M477.042 -1203.55L-932.929 206.421" stroke="#FF5016"/>
<path d="M465.728 -1214.86L-944.243 195.107" stroke="#FF5016"/>
<path d="M454.414 -1226.18L-955.557 183.793" stroke="#FF5016"/>
<path d="M443.101 -1237.49L-966.87 172.479" stroke="#FF5016"/>
<path d="M431.787 -1248.81L-978.184 161.166" stroke="#FF5016"/>
<path d="M420.473 -1260.12L-989.498 149.852" stroke="#FF5016"/>
<path d="M409.159 -1271.43L-1000.81 138.538" stroke="#FF5016"/>
<path d="M397.846 -1282.75L-1012.13 127.225" stroke="#FF5016"/>
<path d="M386.532 -1294.06L-1023.44 115.911" stroke="#FF5016"/>
<path d="M375.218 -1305.37L-1034.75 104.597" stroke="#FF5016"/>
<path d="M363.904 -1316.69L-1046.07 93.2836" stroke="#FF5016"/>
<path d="M352.591 -1328L-1057.38 81.9698" stroke="#FF5016"/>
<path d="M341.277 -1339.31L-1068.69 70.6561" stroke="#FF5016"/>
</g>
</g>
</svg>
