<?xml version="1.0" encoding="utf-8"?>
<!-- Generator: Adobe Illustrator 24.3.0, SVG Export Plug-In . SVG Version: 6.00 Build 0)  -->
<svg version="1.1" id="Icons" xmlns="http://www.w3.org/2000/svg" xmlns:xlink="http://www.w3.org/1999/xlink" x="0px" y="0px"
	 width="512px" height="512px" viewBox="0 0 512 512" enable-background="new 0 0 512 512" xml:space="preserve">
<path fill="#D9879E" d="M392.206,128.194c-3.821-0.002-6.917-3.101-6.916-6.922c0.001-1.446,0.454-2.856,1.297-4.03
	c4.211-5.882,6.458-12.942,6.421-20.176c-0.03-19.45-15.821-35.193-35.271-35.164c-15.205,0.023-28.679,9.803-33.413,24.252
	c-1.269,3.604-5.219,5.498-8.824,4.229c-3.495-1.23-5.4-4.995-4.322-8.54c8.43-25.747,36.137-39.785,61.884-31.355
	c20.143,6.595,33.772,25.382,33.79,46.577c0.049,10.126-3.099,20.01-8.995,28.243C396.553,127.129,394.446,128.204,392.206,128.194z
	"/>
<path fill="#D9879E" d="M446.146,208.183c-3.821-0.001-6.918-3.099-6.918-6.92c0-0.907,0.178-1.804,0.525-2.642
	c2.419-5.946,3.641-12.311,3.598-18.73c0.33-28.535-22.535-51.935-51.07-52.264c-28.535-0.33-51.935,22.535-52.264,51.07
	c-0.005,0.398-0.005,0.797,0,1.195c0,3.821-3.098,6.919-6.919,6.919s-6.919-3.098-6.919-6.919
	c-0.372-36.177,28.655-65.806,64.832-66.178c36.177-0.372,65.806,28.655,66.178,64.832c0.005,0.449,0.005,0.897,0,1.346
	c0.048,8.242-1.529,16.412-4.643,24.043C451.467,206.514,448.941,208.19,446.146,208.183z"/>
<path fill="#D9879E" d="M410.714,313.344c-2.249,0-4.477-0.118-6.67-0.332c-3.802-0.382-6.575-3.774-6.192-7.576
	c0.382-3.802,3.774-6.575,7.576-6.192l0,0c1.73,0.171,3.485,0.258,5.265,0.263c28.506,0.03,51.64-23.054,51.67-51.56
	c0.017-16.152-7.528-31.381-20.389-41.153c-3.057-2.293-3.677-6.63-1.384-9.686c2.293-3.057,6.63-3.677,9.686-1.384
	c28.789,21.899,34.374,62.99,12.475,91.779c-12.373,16.265-31.629,25.823-52.065,25.842L410.714,313.344z"/>
<path fill="#D9879E" d="M385.273,458.413c-3.821,0.001-6.92-3.096-6.921-6.917c-0.001-3.393,2.458-6.286,5.807-6.831
	c24.941-4.035,43.239-25.617,43.139-50.882c0.001-5.067-0.731-10.108-2.173-14.966c-1.083-3.665,1.009-7.513,4.674-8.597
	c3.665-1.083,7.513,1.009,8.597,4.674c1.826,6.13,2.758,12.492,2.768,18.889c0.121,32.051-23.095,59.426-54.736,64.54
	C386.046,458.382,385.66,458.412,385.273,458.413z"/>
<path fill="#D9879E" d="M431.741,383.779c-3.821,0.003-6.921-3.092-6.924-6.913c-0.002-2.725,1.595-5.198,4.081-6.316
	c18.439-8.341,30.292-26.7,30.305-46.938c0.045-11.526-3.824-22.725-10.973-31.765c-2.3-3.052-1.69-7.39,1.361-9.69
	c2.961-2.231,7.154-1.732,9.508,1.131c22.276,28.372,17.335,69.431-11.037,91.707c-4.148,3.257-8.676,5.999-13.483,8.168
	C433.686,383.566,432.719,383.776,431.741,383.779z"/>
<path fill="#D9879E" d="M323.674,498.162c-41.178-0.046-74.547-33.415-74.593-74.593V57.683
	c-0.624-12.52,4.126-24.711,13.056-33.508c9.876-8.832,23.415-12.341,36.338-9.417c30.636,7.257,59.375,20.953,84.307,40.178
	c2.981,2.398,3.453,6.758,1.055,9.738c-2.398,2.981-6.758,3.453-9.738,1.055c-23.253-17.768-49.946-30.508-78.384-37.411
	c-8.52-2.028-17.495,0.183-24.099,5.936c-6.086,6.225-9.246,14.739-8.697,23.427v365.886c0.013,33.562,27.231,60.758,60.793,60.745
	c23.835-0.009,45.464-13.952,55.313-35.657c1.58-3.481,5.683-5.022,9.164-3.442c3.481,1.58,5.022,5.683,3.442,9.164
	C379.495,481.012,352.941,498.12,323.674,498.162z"/>
<path fill="#D9879E" d="M119.794,128.194c-2.23,0.001-4.325-1.073-5.625-2.885c-5.896-8.233-9.043-18.117-8.995-28.243
	c0.024-27.092,22.006-49.036,49.098-49.012c21.195,0.019,39.981,13.648,46.577,33.79c1.269,3.604-0.624,7.555-4.229,8.824
	c-3.604,1.269-7.555-0.624-8.824-4.229c-0.033-0.094-0.064-0.189-0.093-0.284c-6.032-18.491-25.912-28.59-44.403-22.558
	c-14.486,4.726-24.29,18.232-24.295,33.469c-0.037,7.233,2.21,14.294,6.421,20.176c2.228,3.105,1.517,7.427-1.588,9.655
	c-1.175,0.843-2.584,1.297-4.03,1.297H119.794z"/>
<path fill="#D9879E" d="M65.854,208.183c-2.802,0.002-5.329-1.686-6.4-4.276c-3.11-7.623-4.687-15.783-4.643-24.016
	c-0.372-36.177,28.654-65.807,64.831-66.179s65.807,28.654,66.179,64.831c0.005,0.449,0.005,0.899,0,1.348
	c0,3.821-3.098,6.919-6.919,6.919s-6.919-3.098-6.919-6.919c0.33-28.535-22.534-51.935-51.069-52.265
	c-28.535-0.33-51.935,22.534-52.265,51.069c-0.005,0.399-0.005,0.798,0,1.197c-0.047,6.428,1.175,12.803,3.598,18.757
	c1.441,3.523-0.235,7.548-3.75,9.008C67.659,208.002,66.761,208.181,65.854,208.183z"/>
<path fill="#D9879E" d="M101.286,313.344c-36.145,0.045-65.483-29.219-65.528-65.364c-0.026-20.522,9.577-39.869,25.938-52.258
	c3.057-2.293,7.394-1.673,9.686,1.384c2.293,3.057,1.673,7.394-1.384,9.686c-22.675,17.313-27.022,49.73-9.708,72.406
	c9.758,12.78,24.91,20.287,40.989,20.308c1.78,0,3.536-0.088,5.265-0.263c3.802-0.382,7.194,2.39,7.576,6.192
	c0.382,3.802-2.39,7.194-6.192,7.576C105.763,313.226,103.535,313.344,101.286,313.344z"/>
<path fill="#D9879E" d="M126.727,458.413c-0.378-0.003-0.755-0.033-1.128-0.09c-31.64-5.114-54.857-32.489-54.736-64.54
	c0.01-6.397,0.942-12.758,2.768-18.889c1.083-3.665,4.932-5.757,8.597-4.674s5.757,4.932,4.674,8.597
	c-1.441,4.858-2.173,9.898-2.173,14.966c-0.1,25.265,18.198,46.847,43.139,50.882c3.772,0.614,6.331,4.169,5.717,7.941
	c-0.545,3.349-3.438,5.808-6.831,5.807L126.727,458.413z"/>
<path fill="#D9879E" d="M80.259,383.779c-0.978-0.002-1.945-0.212-2.837-0.616c-32.888-14.818-47.536-53.492-32.718-86.38
	c2.168-4.812,4.911-9.343,8.17-13.494c2.3-3.052,6.638-3.661,9.69-1.361c3.052,2.3,3.661,6.638,1.361,9.69
	c-0.059,0.078-0.119,0.155-0.181,0.23c-7.15,9.04-11.019,20.239-10.973,31.765c0.013,20.238,11.866,38.597,30.305,46.938
	c3.485,1.567,5.039,5.663,3.472,9.148c-1.118,2.485-3.59,4.083-6.316,4.081H80.259z"/>
<path fill="#D9879E" d="M188.326,498.162c-29.26-0.051-55.804-17.157-67.937-43.783c-1.58-3.481-0.039-7.584,3.442-9.164
	c3.481-1.58,7.584-0.039,9.164,3.442c13.894,30.551,49.924,44.053,80.474,30.159c21.665-9.853,35.584-31.447,35.611-55.247V57.683
	c0.549-8.688-2.612-17.202-8.697-23.427c-6.6-5.755-15.574-7.966-24.092-5.936c-28.443,6.872-55.141,19.596-78.391,37.362
	c-3.105,2.227-7.428,1.516-9.655-1.589c-2.049-2.856-1.631-6.794,0.972-9.156c24.934-19.226,53.676-32.923,84.314-40.178
	c12.921-2.923,26.457,0.586,36.331,9.417c8.93,8.797,13.68,20.988,13.056,33.508v365.886
	C262.873,464.747,229.504,498.116,188.326,498.162z"/>
<path fill="#D9879E" d="M256,158.893c-0.634,0.001-1.265-0.088-1.875-0.263c-3.678-1.037-5.818-4.859-4.781-8.537
	c0,0,0-0.001,0-0.001c3.639-12.925,17.519-36.67,43.721-34.055c3.802,0.382,6.575,3.774,6.192,7.576
	c-0.382,3.802-3.774,6.575-7.576,6.192c-21.338-2.076-28.956,23.78-29.059,24.043C261.785,156.818,259.085,158.876,256,158.893z"/>
<path fill="#D9879E" d="M256,193.238c-3.089-0.002-5.803-2.052-6.649-5.023l0,0c-0.311-1.072-7.922-26.243-29.059-24.064
	c-3.804,0.382-7.198-2.392-7.58-6.196c-0.382-3.804,2.392-7.198,6.196-7.58c26.292-2.608,40.081,21.137,43.721,34.062
	c1.038,3.678-1.103,7.5-4.78,8.538c0,0-0.001,0-0.001,0C257.247,193.148,256.625,193.237,256,193.238z"/>
<path fill="#D9879E" d="M350.789,240.017c-19.395,0.018-37.79-8.605-50.183-23.524c-2.516-2.876-2.224-7.247,0.652-9.763
	c2.876-2.516,7.247-2.224,9.763,0.652c0.073,0.083,0.144,0.168,0.213,0.255c18.182,21.846,50.631,24.816,72.477,6.634
	c11.75-9.779,18.544-24.275,18.542-39.561c0-1.322-0.048-2.636-0.145-3.937c-0.354-3.805,2.444-7.176,6.249-7.529
	c3.805-0.354,7.176,2.444,7.529,6.249c0.007,0.078,0.013,0.157,0.018,0.236c0.125,1.647,0.187,3.307,0.187,4.982
	C416.056,210.761,386.841,239.979,350.789,240.017z"/>
<path fill="#D9879E" d="M391.687,280.216h-0.138c-33.667-0.657-49.484-30.256-53.144-45.817c-0.836-3.729,1.508-7.429,5.237-8.266
	c3.666-0.822,7.318,1.431,8.228,5.076l0,0c0.346,1.384,8.697,34.56,39.95,35.169c3.821,0.036,6.889,3.163,6.853,6.985
	C398.635,277.184,395.508,280.253,391.687,280.216L391.687,280.216z"/>
<path fill="#D9879E" d="M349.502,373.068h-0.574c-3.808-0.316-6.639-3.658-6.324-7.466c2.02-14.564-2.022-29.319-11.181-40.822
	c-10.937-11.323-25.527-18.411-41.188-20.01c-3.812-0.275-6.679-3.588-6.403-7.4c0.275-3.812,3.588-6.679,7.4-6.403
	c19.346,1.869,37.361,10.683,50.709,24.811c11.604,14.271,16.83,32.684,14.454,50.923
	C356.105,370.296,353.107,373.065,349.502,373.068z"/>
<path fill="#D9879E" d="M305.353,432.979h-0.325c-3.817-0.176-6.769-3.412-6.594-7.229c0,0,0-0.001,0-0.001
	c1.128-24.368,17.021-69.826,68.933-67.992c3.821,0.141,6.804,3.354,6.663,7.175c-0.141,3.821-3.354,6.804-7.175,6.663l0,0
	c-51.242-1.847-54.486,52.48-54.597,54.798C312.081,430.078,309.043,432.976,305.353,432.979z"/>
<path fill="#D9879E" d="M178.086,248.285c-36.047-0.038-65.262-29.247-65.308-65.294c0-1.681,0.062-3.349,0.187-4.989
	c0.223-3.815,3.497-6.726,7.312-6.502c3.815,0.223,6.726,3.497,6.502,7.312c-0.005,0.079-0.011,0.157-0.018,0.236
	c-0.097,1.301-0.145,2.615-0.145,3.944c0.005,28.422,23.05,51.459,51.472,51.454c15.277-0.003,29.764-6.793,39.539-18.534
	c2.446-2.937,6.809-3.335,9.745-0.889c2.937,2.446,3.335,6.809,0.889,9.745C215.869,239.682,197.477,248.303,178.086,248.285z"/>
<path fill="#D9879E" d="M137.154,288.519c-3.821,0.036-6.948-3.032-6.985-6.853c-0.036-3.821,3.032-6.948,6.853-6.985
	c31.246-0.609,39.604-33.757,39.95-35.169c0.925-3.708,4.681-5.963,8.388-5.038c3.645,0.91,5.899,4.562,5.076,8.228
	c-3.626,15.526-19.484,45.125-53.144,45.817H137.154z"/>
<path fill="#D9879E" d="M138.586,390.615c-3.608,0.012-6.619-2.749-6.919-6.345c-2.401-18.262,2.827-36.707,14.454-50.992
	c13.344-14.129,31.357-22.944,50.702-24.811c3.796-0.224,7.08,2.618,7.403,6.407c0.277,3.811-2.587,7.126-6.398,7.403
	c-0.001,0-0.001,0-0.002,0c-15.684,1.637-30.291,8.74-41.264,20.065c-9.11,11.507-13.122,26.236-11.105,40.773
	c0.315,3.808-2.516,7.15-6.324,7.466L138.586,390.615z"/>
<path fill="#D9879E" d="M182.736,450.518c-3.695,0.004-6.742-2.896-6.919-6.587l0,0c-0.118-2.318-3.459-56.797-54.597-54.812
	c-3.821,0.141-7.034-2.842-7.175-6.663c-0.141-3.821,2.842-7.034,6.663-7.175c51.843-1.889,67.805,43.624,68.933,67.992
	c0.176,3.817-2.776,7.054-6.593,7.23c0,0-0.001,0-0.001,0L182.736,450.518z"/>
<path fill="#D9879E" d="M256,430.488h-0.042c-3.821-0.023-6.9-3.139-6.877-6.96c0-0.002,0-0.005,0-0.007
	c0.939-28.016-18.45-52.63-45.907-58.278c-3.752-0.724-6.207-4.353-5.483-8.106c0.724-3.752,4.353-6.207,8.106-5.483
	c0.574,0.111,57.503,11.762,57.123,71.957C262.896,427.416,259.805,430.488,256,430.488z"/>
</svg>
