<?xml version="1.0" encoding="utf-8"?>
<!-- Generator: Adobe Illustrator 24.3.0, SVG Export Plug-In . SVG Version: 6.00 Build 0)  -->
<svg version="1.1" id="Layer_1" xmlns="http://www.w3.org/2000/svg" xmlns:xlink="http://www.w3.org/1999/xlink" x="0px" y="0px"
	 width="512px" height="512px" viewBox="0 0 512 512" enable-background="new 0 0 512 512" xml:space="preserve">
<g>
	<path fill="#D9879E" d="M508.694,327.05c-3.423-2.323-8.092-1.426-10.428,1.99c-0.629,0.921-15.738,22.55-43.484,22.55
		c-27.747,0-42.855-21.629-43.469-22.525c-2.764-4.379-9.716-4.374-12.477,0.006c-0.151,0.225-15.432,22.52-43.427,22.52
		c-23.465,0-37.889-15.466-42.154-20.783V214.361h191.23c4.151,0,7.515-3.364,7.515-7.515s-3.364-7.515-7.515-7.515h-60.432v-54.77
		c0-49.688-39.944-90.498-89.042-90.973c-24.155-0.243-46.934,9.019-64.133,26.052c-8.327,8.247-14.825,17.825-19.332,28.244
		c-13.891-31.633-45.13-53.945-81.357-54.296c-0.298-0.003-0.596-0.004-0.894-0.004c-23.825,0-46.253,9.233-63.24,26.056
		c-17.202,17.037-26.677,39.72-26.677,63.87v55.822H8.084c-4.151,0-7.515,3.364-7.515,7.515s3.364,7.515,7.515,7.515h91.294v29.676
		c0,4.151,3.364,7.515,7.515,7.515s7.515-3.364,7.515-7.515V143.51c0-20.109,7.892-38.999,22.224-53.192
		c14.327-14.188,33.28-21.94,53.413-21.701c40.889,0.395,74.156,34.464,74.156,75.944v54.77h-18.995V143.51
		c0-30.3-24.642-55.374-54.93-55.893c-0.32-0.005-0.636-0.008-0.955-0.008c-14.504,0-28.247,5.673-38.789,16.036
		c-10.886,10.701-17.129,25.544-17.129,40.723V346.06c-10.018-5.031-16.439-12.134-18.996-15.338v-56.626
		c0-4.151-3.364-7.515-7.515-7.515s-7.515,3.364-7.515,7.515v56.702c-4.28,5.337-18.702,20.792-42.158,20.792
		c-27.747,0-42.855-21.629-43.469-22.525c-2.316-3.444-6.985-4.358-10.429-2.043s-4.359,6.984-2.043,10.429
		c0.8,1.191,20.024,29.169,55.94,29.169c24.555,0,41.307-13.076,49.704-21.73c8.397,8.654,25.15,21.73,49.704,21.73
		c24.549,0,41.282-13.069,49.672-21.726c8.399,8.655,25.15,21.726,49.699,21.726c24.555,0,41.307-13.076,49.704-21.73
		c8.397,8.654,25.15,21.73,49.704,21.73c24.549,0,41.282-13.069,49.672-21.726c8.399,8.655,25.15,21.726,49.699,21.726
		c35.917,0,55.14-27.978,55.94-29.169C513.03,334.016,512.119,329.373,508.694,327.05L508.694,327.05z M148.433,266.582h115.768
		v21.04H148.433V266.582z M264.201,251.552H148.433v-37.191h115.768V251.552z M161.069,114.364
		c7.876-7.742,18.154-11.903,28.949-11.719c22.144,0.38,40.159,18.712,40.159,40.866v55.822h-81.743v-54.964
		C148.433,133.193,153.039,122.257,161.069,114.364z M212.532,329.065c-2.761-4.355-9.679-4.358-12.46-0.018
		c-0.628,0.92-15.702,22.543-43.443,22.543c-2.871,0-5.598-0.242-8.196-0.658v-48.281h115.768v48.28
		c-2.599,0.416-5.328,0.659-8.201,0.659C228.254,351.59,213.145,329.961,212.532,329.065L212.532,329.065z M279.23,346.057V143.51
		c0-20.109,7.892-38.999,22.224-53.192c14.327-14.188,33.282-21.94,53.412-21.701c40.89,0.395,74.157,34.464,74.157,75.944v54.77
		h-18.995v-16.705c0-4.151-3.364-7.515-7.515-7.515s-7.515,3.364-7.515,7.515v16.705h-81.744v-54.964
		c0-11.175,4.606-22.111,12.636-30.005c7.876-7.742,18.135-11.903,28.949-11.719c22.144,0.38,40.159,18.712,40.159,40.866v9.058
		c0,4.151,3.364,7.515,7.515,7.515s7.515-3.364,7.515-7.515v-9.058c0-30.3-24.642-55.374-54.93-55.893
		c-0.32-0.005-0.636-0.008-0.955-0.008c-14.504,0-28.246,5.673-38.789,16.036c-10.885,10.701-17.129,25.544-17.129,40.723v186.345
		C295.661,333.929,289.24,341.029,279.23,346.057z"/>
	<path fill="#D9879E" d="M206.333,443.387c-27.747,0-42.855-21.629-43.469-22.525c-2.759-4.353-9.672-4.357-12.456-0.024
		c-0.629,0.921-15.738,22.55-43.484,22.55s-42.855-21.629-43.469-22.525c-2.316-3.445-6.985-4.359-10.429-2.043
		c-3.444,2.315-4.359,6.984-2.043,10.428c0.8,1.191,20.023,29.169,55.94,29.169c24.555,0,41.307-13.076,49.704-21.73
		c8.397,8.654,25.15,21.73,49.705,21.73c4.151,0,7.515-3.364,7.515-7.515S210.484,443.387,206.333,443.387L206.333,443.387z"/>
	<path fill="#D9879E" d="M458.983,418.843c-3.427-2.319-8.093-1.417-10.427,2.001c-0.628,0.92-15.701,22.543-43.443,22.543
		c-27.747,0-42.855-21.629-43.469-22.525c-2.762-4.376-9.71-4.375-12.472,0c-0.152,0.225-15.469,22.525-43.469,22.525
		c-27.747,0-42.855-21.629-43.469-22.525c-2.761-4.355-9.679-4.358-12.46-0.018c-0.06,0.087-6.124,8.86-17.311,15.389
		c-3.584,2.093-4.794,6.695-2.701,10.279c2.093,3.583,6.693,4.792,10.279,2.702c6.903-4.03,12.241-8.714,15.952-12.534
		c8.395,8.654,25.149,21.737,49.71,21.737c24.555,0,41.307-13.076,49.704-21.73c8.397,8.654,25.15,21.73,49.704,21.73
		c35.922,0,55.109-27.984,55.908-29.175C463.327,425.803,462.411,421.162,458.983,418.843L458.983,418.843z"/>
</g>
</svg>
