<?xml version="1.0" encoding="utf-8"?>
<!-- Generator: Adobe Illustrator 24.3.0, SVG Export Plug-In . SVG Version: 6.00 Build 0)  -->
<svg version="1.1" id="Layer_1" xmlns="http://www.w3.org/2000/svg" xmlns:xlink="http://www.w3.org/1999/xlink" x="0px" y="0px"
	 width="512px" height="512px" viewBox="0 0 512 512" enable-background="new 0 0 512 512" xml:space="preserve">
<path fill="#D9879E" d="M215.829,202.108c-5.597,3.96-10.392,8.944-14.133,14.689c-1.859,2.85-1.056,6.667,1.794,8.526
	c2.85,1.859,6.667,1.056,8.526-1.794l0,0c2.895-4.448,6.606-8.307,10.938-11.373c2.763-1.986,3.392-5.835,1.406-8.598
	c-1.967-2.737-5.769-3.385-8.531-1.454V202.108z"/>
<path fill="#D9879E" d="M104.254,466.284H59.097V184.068c0-0.103,0.014-0.197,0.014-0.298c0-48.723,37.588-88.362,83.789-88.362
	c44.415,0,80.85,36.641,83.601,82.762c-27.319,3.248-47.905,26.393-47.943,53.905v9.626c0,3.402,2.758,6.161,6.161,6.161h27.414
	c2.723,9.857,11.528,17.138,21.841,17.138c10.313,0,19.117-7.277,21.839-17.138h25.165c3.402,0,6.161-2.758,6.161-6.161v-9.626
	c-0.036-27.644-20.813-50.859-48.283-53.95c-2.804-52.902-44.767-95.04-95.954-95.04c-52.819,0-95.817,44.869-96.105,100.131
	c-0.01,0.143-0.022,0.285-0.022,0.43v282.636H7.995c-3.402,0-6.161,2.758-6.161,6.161c0,3.402,2.758,6.161,6.161,6.161h96.259
	c3.402,0,6.161-2.758,6.161-6.161c0-3.402-2.758-6.161-6.161-6.161L104.254,466.284z M233.973,252.68
	c-3.469-0.056-6.673-1.87-8.505-4.817h17.008C240.644,250.81,237.441,252.624,233.973,252.68z M274.816,232.075v3.465h-83.938
	v-3.465c0-23.179,18.79-41.969,41.969-41.969S274.816,208.896,274.816,232.075z"/>
<path fill="#D9879E" d="M477.905,371.098v-40.762c-0.128-14.314-11.817-25.825-26.132-25.731H339.041
	c-6.933-0.035-13.591,2.712-18.482,7.627c-0.507,0.513-0.985,1.041-1.444,1.585c-4.998-5.858-12.315-9.226-20.016-9.212H185.727
	c-14.315-0.094-26.005,11.416-26.133,25.731v40.879c-15.279,1.352-27.034,14.086-27.162,29.424v71.808
	c0,3.402,2.758,6.161,6.161,6.161h47.764c3.402,0,6.161-2.758,6.161-6.161v-8.207l254.399,0.078v8.129
	c0,3.402,2.758,6.161,6.161,6.161h47.763c3.402,0,6.161-2.758,6.161-6.161v-71.811C506.855,384.555,493.982,371.486,477.905,371.098
	z M329.287,320.925c2.584-2.587,6.098-4.029,9.754-4.004h112.732c7.513-0.101,13.69,5.897,13.811,13.409v42.948
	c-11.217,4.461-18.603,15.284-18.667,27.355v2.413l-121.652-0.031l0.015-72.065C325.219,327.206,326.662,323.595,329.287,320.925
	L329.287,320.925z M185.727,316.92h113.371c7.515-0.101,13.693,5.901,13.811,13.416l0.028,72.676l-120.419-0.033v-2.342
	c-0.079-12.823-8.391-24.143-20.602-28.058v-42.243c0.12-7.514,6.298-13.513,13.812-13.413L185.727,316.92z M180.196,466.281
	h-35.443v-65.645c0.269-9.787,8.421-17.504,18.208-17.235c9.409,0.258,16.977,7.825,17.235,17.235V466.281z M192.517,451.913
	v-36.614l126.577,0.035h0.009l127.812,0.036v36.625L192.517,451.913z M494.679,466.284h-35.442v-65.648
	c0.258-9.787,8.401-17.512,18.188-17.254c9.424,0.248,17.005,7.83,17.254,17.254V466.284z"/>
</svg>
