<?xml version="1.0" encoding="utf-8"?>
<!-- Generator: Adobe Illustrator 24.3.0, SVG Export Plug-In . SVG Version: 6.00 Build 0)  -->
<svg version="1.1" id="Capa_1" xmlns="http://www.w3.org/2000/svg" xmlns:xlink="http://www.w3.org/1999/xlink" x="0px" y="0px"
	 width="512px" height="512px" viewBox="0 0 512 512" enable-background="new 0 0 512 512" xml:space="preserve">
<g>
	<path fill="#D9879E" d="M395.022,283.092c2.928-2.93,2.926-7.679-0.004-10.607c-2.93-2.927-7.679-2.926-10.607,0.004
		c-2.322,2.324-5.412,3.604-8.702,3.604c-3.289,0-6.38-1.28-8.702-3.604c-2.928-2.93-7.677-2.932-10.607-0.004
		s-2.932,7.677-0.004,10.607c5.156,5.16,12.014,8.001,19.313,8.001S389.867,288.252,395.022,283.092z"/>
	<path fill="#D9879E" d="M355.68,233.174c-7.546-7.279-19.823-7.278-27.369,0c-2.981,2.875-3.067,7.623-0.191,10.604
		c2.875,2.982,7.623,3.066,10.604,0.191c1.773-1.709,4.769-1.71,6.543,0c1.455,1.404,3.331,2.102,5.205,2.102
		c1.965,0,3.927-0.768,5.399-2.293C358.747,240.798,358.661,236.05,355.68,233.174L355.68,233.174z"/>
	<path fill="#D9879E" d="M406.152,243.97c1.781-1.718,4.79-1.718,6.571,0c1.455,1.404,3.331,2.102,5.205,2.102
		c1.965,0,3.927-0.768,5.399-2.293c2.876-2.981,2.79-7.729-0.191-10.604c-7.553-7.286-19.844-7.286-27.397,0
		c-2.981,2.875-3.067,7.623-0.191,10.604C398.423,246.76,403.171,246.845,406.152,243.97L406.152,243.97z"/>
	<path fill="#D9879E" d="M234.943,388.153c4.142,0,7.5-3.358,7.5-7.5v-4.772c0-4.142-3.358-7.5-7.5-7.5s-7.5,3.358-7.5,7.5v4.772
		C227.443,384.795,230.801,388.153,234.943,388.153z"/>
	<path fill="#D9879E" d="M277.431,388.153c4.142,0,7.5-3.358,7.5-7.5v-4.772c0-4.142-3.358-7.5-7.5-7.5s-7.5,3.358-7.5,7.5v4.772
		C269.932,384.795,273.289,388.153,277.431,388.153z"/>
	<path fill="#D9879E" d="M511.786,458.5l-8.97-69.398c-1.4-10.89-4.73-20.48-9.92-28.499c-2.25-3.48-6.89-4.48-10.37-2.23
		s-4.48,6.89-2.23,10.37c4.02,6.21,6.51,13.49,7.64,22.28l8.77,67.858h-51.021v-31.864c0-4.142-3.358-7.5-7.5-7.5
		s-7.5,3.358-7.5,7.5v31.864H335.31c-7.88-12.33-21.88-17.51-34.469-21.07c-0.1-0.03-0.2-0.06-0.29-0.08
		c-1.97-0.56-3.91-1.07-5.77-1.57c-1.21-0.32-2.4-0.64-3.56-0.96c-1.36-0.37-2.49-2.21-3.38-4.15
		c18.28-12.57,31.849-33.939,31.849-52.599v-16.91c0-6.9-0.72-13.45-2.15-19.6c2.45-0.68,8.98-2.42,9.79-2.63l34.209,23.179
		c3.59,2.66,8.39,5.63,14.17,5.61c5.74,0.07,10.58-2.95,14.17-5.61l34.219-23.189c0.67,0.19,1.36,0.37,2.04,0.55
		c10.4,2.76,21.159,5.61,30.739,9.99c3.77,1.71,8.22,0.05,9.94-3.71c1.72-3.77,0.06-8.22-3.71-9.94
		c-10.74-4.9-22.119-7.92-33.119-10.84c-1.755-0.47-3.507-0.954-5.259-1.432c-4.05-1.105-6.504-6.204-8.191-10.521
		c26.89-17.424,47.148-48.397,47.148-75.308v-58.758c0-30.178-22.829-57.448-58.158-69.473c-14.805-5.04-30.487-6.711-44.15-4.707
		c-14.26,2.091-25.967,7.979-34.072,17.097c-16.54,2.596-40.575,15.406-39.756,68.052c0.008,0.504,0.015,47.789,0.015,47.789
		c0,26.9,20.337,57.89,47.323,75.327c-1.689,4.323-4.145,9.396-8.197,10.503c-0.193,0.053-0.379,0.119-0.564,0.185
		c-1.68,0.449-10.605,2.827-13.435,3.617c-3.14-6.72-7.31-12.73-12.47-17.9c-11.39-11.44-26.729-17.89-43.179-18.16h-0.24
		c-16.46,0.27-31.799,6.72-43.199,18.16c-5.99,6.01-10.63,13.17-13.89,21.25c-5.99-2.03-20.41-5.97-20.41-5.97
		c-4.11-1.12-6.56-6.43-8.24-10.78c20.01-15.23,34.479-39.119,34.479-60.109v-20.58c0-3.94-3.05-7.21-6.98-7.49
		c-11.04-0.77-15.19-5.02-19.59-9.51c-4.8-4.9-11.37-11.61-24.779-8.14c-3.5,0.9-6.48,1.69-9.05,2.38c-7.49,2-11.25,3-14.36,3
		c-3.12,0-6.88-1-14.37-3c-2.57-0.69-5.54-1.48-9.04-2.38c-13.44-3.46-20.01,3.25-24.809,8.15c-4.4,4.49-8.55,8.73-19.57,9.5
		c-3.93,0.28-6.97,3.55-6.97,7.49v20.58c0,20.98,14.46,44.879,34.469,60.109c-1.67,4.36-4.12,9.66-8.24,10.78l-2.1,0.58
		c-17.18,4.67-35.719,9.72-49.239,22.869c-3.24-1.05-14.18-3.42-15.25-3.68c0.5-1.08,1.39-2.7,2.94-4.99
		c16.71-24.669,23.529-60.499,23.529-123.677c0-33.319,14.33-55.519,28.229-57.739c0.21-0.03,0.42-0.06,0.62-0.09
		c2.03-0.28,6.8-0.94,9.43-5.99c9.15-17.61,35.359-27.449,63.749-23.939c28.449,3.52,62.279,21.71,71.878,62.199
		c1.69,7.21,2.74,15.1,3.39,25.569c0,16.87,0.3,36.709,2.44,56.129c0.46,4.12,4.16,7.09,8.28,6.63c4.12-0.45,7.09-4.16,6.63-8.27
		c-2.07-18.79-2.35-38.209-2.35-54.719c0-0.15-0.01-0.31-0.02-0.46c-0.7-11.46-1.86-20.19-3.77-28.319
		c-11.38-47.989-51.179-69.508-84.638-73.648c-34.099-4.22-65.069,7.83-77.898,30.079c-0.05,0.01-0.1,0.02-0.15,0.03
		c-23.66,3.78-40.819,34.289-40.819,72.538c0,59.909-6.07,93.298-20.94,115.257c-4.14,6.11-8.01,13.24-5.29,19.85
		c2.68,6.52,9.62,7.89,15.2,8.98l1.07,0.22c1.37,0.27,2.66,0.55,3.89,0.85c-4.27,7.52-7.39,16.8-8.88,28.389l-8.86,68.798
		c-0.4,3.12-0.58,7.68,2.6,11.29c3.54,4.04,8.99,4.04,11.05,4.04h155.967c-0.46,2.79-0.71,5.81-0.71,9.07v14.6
		c0,6.59,5.36,11.96,11.96,11.96H329.62c6.6,0,11.96-5.37,11.96-11.96v-14.6c0-3.26-0.24-6.28-0.71-9.07h157.186
		c3.52,0,7.96-0.46,11.11-4.05C512.356,466.21,512.186,461.63,511.786,458.5L511.786,458.5z M381.339,350.162
		c-0.09,0.06-0.18,0.12-0.27,0.19c-3.06,2.27-4.55,2.75-5.26,2.75h-0.1c-0.04,0-0.07,0.01-0.1,0c-0.71,0-2.2-0.48-5.26-2.75
		c-0.09-0.07-0.17-0.13-0.27-0.19l-28.138-19.071c2.857-3.311,4.808-7.127,6.216-10.481c1.584,0.699,3.177,1.366,4.786,1.963
		c8.339,3.093,15.578,4.534,22.78,4.534c7.215,0,14.448-1.442,22.752-4.534c1.612-0.598,3.208-1.267,4.795-1.969
		c1.406,3.349,3.356,7.168,6.212,10.483L381.339,350.162z M331.837,136.799c2.088-0.185,4.003-1.234,5.282-2.895
		c8.027-10.425,21.524-14.59,35.827-14.59c9.339,0,19.024,1.776,27.748,4.746c22.139,7.535,47.992,26.533,47.992,55.273v30.844
		h-7.142c-11.964,0-19.435-7.008-28.894-15.88c-11.409-10.701-24.341-22.831-47.449-22.831h-25.504
		c-20.303,0-23.645,16.326-25.857,27.129c-2.352,11.486-3.987,16.214-11.275,17.254c0,0-0.007-25.181-0.017-25.781
		C302.188,166.981,306.978,138.998,331.837,136.799L331.837,136.799z M302.564,238.092v-7.178
		c20.319-1.767,23.699-18.215,25.97-29.31c2.512-12.269,3.843-15.137,11.162-15.137H365.2c17.174,0,26.895,9.118,37.187,18.772
		c9.964,9.346,21.258,19.939,39.156,19.939h7.142v12.914c0,26.557-25.901,59.463-55.436,70.422
		c-6.585,2.452-12.155,3.594-17.526,3.594c-5.366,0-10.947-1.143-17.563-3.598C328.543,297.521,302.564,264.615,302.564,238.092z
		 M212.213,340.673c7.31-22.789,26.539-33.659,44.709-34.009c15.77,0.3,32.349,8.53,41.219,25.589c2.17,4.18,3.89,8.88,5.01,14.13
		c0.39,1.79,0.71,3.65,0.95,5.57c-2.13-1.06-3.72-2.43-5.25-3.95c-0.45-0.44-0.9-0.89-1.36-1.36c-3.22-3.28-7.34-7.49-14.45-7.86
		c-3.121-0.189-6.217,0.457-9.216,1.256c-3.004,0.8-5.988,1.675-8.997,2.459c-3.198,0.834-6.478,1.783-9.811,1.338
		c-4.765-0.636-9.455-2.257-14.091-3.479c-4.979-1.313-9.974-2.394-14.994-0.633c-3.845,1.349-6.803,4.071-9.601,6.929
		c-2,2.04-3.85,3.93-6.59,5.3C210.043,349.532,210.628,345.388,212.213,340.673L212.213,340.673z M209.153,367.972
		c9.49-2.26,14.43-7.28,17.9-10.83c1.122-1.148,2.434-2.891,4.072-3.326c1.667-0.443,3.735,0.451,5.312,0.867
		c4.513,1.19,9.005,2.528,13.574,3.486c3.697,0.776,7.398,1.021,11.149,0.478c4.372-0.633,8.647-1.952,12.908-3.085
		c1.338-0.356,2.677-0.71,4.016-1.061c1.17-0.306,2.397-0.739,3.615-0.78c2.156-0.071,3.711,2.026,5.071,3.42
		c3.48,3.54,8.42,8.57,17.92,10.83v10.48c0,17.07-17.42,39.079-36.559,46.169c-3.39,1.26-6.37,2-9.28,2.22
		c-4.21,0.34-8.27-0.4-13.18-2.23c-0.53-0.2-1.05-0.4-1.58-0.62c-18.48-7.67-34.939-28.929-34.939-45.539L209.153,367.972
		L209.153,367.972z M281.172,446.61l-20.57,12.08c-0.09,0.06-0.19,0.11-0.28,0.17c-0.01,0.01-0.02,0.01-0.03,0.02
		c-3.31,2.14-3.45,2.14-6.82-0.03c-0.09-0.05-0.17-0.1-0.26-0.16l-12.64-7.42l-7.93-4.65c3.06-2.39,5.11-5.55,6.54-8.45
		c0.42,0.17,0.84,0.35,1.27,0.51c0.56,0.21,1.12,0.41,1.67,0.6c5.19,1.77,9.98,2.66,14.78,2.66h0.01c5.3,0,10.6-1.09,16.44-3.26
		c0.43-0.16,0.85-0.34,1.28-0.51C276.062,441.07,278.112,444.23,281.172,446.61L281.172,446.61z M71.026,254.215v-14.05
		c11.95-2.5,18.02-8.7,22.25-13.03c4.29-4.38,5.32-5.42,10.36-4.11c3.45,0.88,6.38,1.66,8.92,2.34c8.48,2.26,13.15,3.51,18.23,3.51
		c5.08,0,9.75-1.25,18.23-3.51c2.53-0.68,5.46-1.46,8.92-2.35c5.02-1.29,6.04-0.26,10.32,4.12c4.24,4.32,10.32,10.53,22.289,13.03
		v14.05c0,21.73-21.279,48.699-45.529,57.709c-5.37,2-9.9,2.92-14.23,2.92c-4.36,0-8.89-0.92-14.26-2.91
		C92.286,302.913,71.026,275.944,71.026,254.215L71.026,254.215z M164.074,332.263l-27.849,18.86c-0.09,0.06-0.18,0.13-0.27,0.19
		c-4.83,3.6-5.51,3.6-10.34,0c-0.09-0.06-0.18-0.13-0.28-0.19l-27.839-18.86c2.65-3.09,4.5-6.61,5.87-9.79
		c2.6,1.34,5.25,2.52,7.94,3.52c7.1,2.63,13.29,3.85,19.48,3.85c6.17,0,12.35-1.22,19.45-3.85c2.7-1.01,5.35-2.19,7.96-3.52
		C159.564,325.643,161.414,329.173,164.074,332.263L164.074,332.263z M178.524,458.88H77.316v-31.869c0-4.14-3.36-7.5-7.5-7.5
		s-7.5,3.36-7.5,7.5v31.869H18.408l8.66-67.219c1.66-12.87,5.49-22.039,10.99-28.869c0.42-0.38,0.78-0.81,1.11-1.29
		c10.25-11.7,25.779-16.13,43.709-21.02l33.919,22.97c5.03,3.72,9.51,5.57,13.99,5.57s8.96-1.85,13.99-5.57l33.909-22.97
		c5.88,1.61,11.52,3.17,16.89,5.02c-0.93,5.1-1.42,10.45-1.42,16.04v16.91c0,18.67,13.56,40.029,31.819,52.599
		c-0.89,1.94-2.01,3.77-3.36,4.15c-1.19,0.32-2.39,0.64-3.6,0.97c-1.86,0.49-3.77,1-5.73,1.55c-0.12,0.04-0.25,0.07-0.37,0.11
		C200.343,441.39,186.394,446.59,178.524,458.88z M326.581,494.509H187.234v-11.56c0-18.27,9.98-24.619,26.889-29.809l27.859,16.36
		c1.39,1.73,3.54,3.21,6.8,3.92c2.83,1.38,5.49,2.07,8.14,2.07c2.33,0,4.67-0.54,7.12-1.61c1.39-0.6,2.81-1.38,4.28-2.33
		l21.58-12.67l9.81-5.76c5.53,1.67,10.33,3.46,14.27,5.76c5.87,3.41,9.86,7.96,11.61,15c0.65,2.65,0.99,5.65,0.99,9.07
		L326.581,494.509L326.581,494.509z"/>
	<path fill="#D9879E" d="M117.013,294.583c3.996,4,9.304,6.202,14.95,6.202h0.028c5.642-0.007,10.94-2.215,14.916-6.215
		c2.919-2.938,2.905-7.687-0.033-10.607c-2.939-2.919-7.687-2.905-10.606,0.033c-1.145,1.152-2.671,1.788-4.297,1.79
		c-0.003,0-0.005,0-0.008,0c-1.636,0-3.177-0.641-4.339-1.804c-2.928-2.931-7.676-2.932-10.606-0.005
		C114.088,286.905,114.085,291.653,117.013,294.583z"/>
	<path fill="#D9879E" d="M97.068,256.663c1.545-1.497,4.154-1.497,5.699,0c1.457,1.412,3.338,2.114,5.218,2.114
		c1.959,0,3.916-0.763,5.387-2.281c2.883-2.974,2.808-7.722-0.166-10.605c-7.327-7.1-19.249-7.1-26.576,0
		c-2.975,2.882-3.049,7.631-0.166,10.605C89.346,259.471,94.093,259.547,97.068,256.663z"/>
	<path fill="#D9879E" d="M161.167,256.664c1.541-1.495,4.131-1.502,5.654-0.017c1.458,1.422,3.348,2.13,5.236,2.13
		c1.951,0,3.9-0.757,5.37-2.264c2.892-2.965,2.832-7.714-0.133-10.606c-7.305-7.124-19.222-7.131-26.565-0.017
		c-2.975,2.883-3.049,7.631-0.167,10.605C153.444,259.471,158.192,259.546,161.167,256.664L161.167,256.664z"/>
	<path fill="#D9879E" d="M186.384,81.628l51.233,50.823c0.208,0.207,0.428,0.4,0.658,0.581l0.577,0.453
		c2.145,1.692,4.364,3.442,7.726,3.538c0.072,0.002,0.143,0.003,0.215,0.003c0.074,0,0.147-0.001,0.221-0.003
		c3.331-0.098,5.541-1.842,7.679-3.528l0.589-0.463c0.23-0.181,0.45-0.375,0.658-0.581l51.233-50.823
		c0.039-0.039,0.077-0.078,0.115-0.118c17.954-18.603,17.956-48.897-0.001-67.538c-15.396-15.944-41.282-15.182-60.495,1.657
		c-19.244-16.833-45.138-17.592-60.528-1.651c-17.951,18.634-17.949,48.928,0.005,67.531
		C186.307,81.55,186.346,81.589,186.384,81.628z M197.061,24.392c11.183-11.583,29.118-7.133,40.292,2.915
		c0.754,0.685,1.363,1.266,1.864,1.744c1.902,1.815,4.058,3.872,7.576,3.872c3.502,0,5.604-2.004,7.459-3.773
		c0.514-0.49,1.148-1.095,1.962-1.826c11.177-10.069,29.094-14.519,40.276-2.938c12.401,12.873,12.421,33.784,0.058,46.654
		l-49.77,49.372l-49.77-49.372C184.645,58.17,184.666,37.258,197.061,24.392L197.061,24.392z"/>
</g>
</svg>
