<?xml version="1.0" encoding="utf-8"?>
<!-- Generator: Adobe Illustrator 24.3.0, SVG Export Plug-In . SVG Version: 6.00 Build 0)  -->
<svg version="1.1" id="Capa_1" xmlns="http://www.w3.org/2000/svg" xmlns:xlink="http://www.w3.org/1999/xlink" x="0px" y="0px"
	 width="512px" height="512px" viewBox="0 0 512 512" enable-background="new 0 0 512 512" xml:space="preserve">
<g>
	<g>
		<path fill="#D9879E" d="M419.488,301.932c-9.014-9.015-20.998-13.979-33.746-13.979c-12.747,0-24.732,4.964-33.746,13.978
			c-9.014,9.015-13.978,20.999-13.978,33.746c0,12.748,4.964,24.733,13.978,33.746c9.015,9.013,20.999,13.978,33.746,13.978
			c12.748,0,24.733-4.964,33.745-13.978c9.015-9.014,13.979-20.998,13.979-33.746C433.466,322.93,428.502,310.945,419.488,301.932z
			 M408.736,358.669c-0.001,0-0.001,0-0.001,0c-6.141,6.143-14.306,9.525-22.992,9.525c-8.685,0-16.85-3.382-22.993-9.525
			c-6.142-6.141-9.524-14.306-9.524-22.992s3.382-16.85,9.525-22.992c6.142-6.143,14.307-9.525,22.992-9.525
			c8.686,0,16.851,3.382,22.992,9.525c6.143,6.142,9.525,14.307,9.525,22.992S414.878,352.528,408.736,358.669z"/>
	</g>
</g>
<g>
	<g>
		<path fill="#D9879E" d="M257.15,141.195c-4.199,0-7.604,3.404-7.604,7.604v24.229c0,4.199,3.405,7.604,7.604,7.604
			c4.2,0,7.604-3.404,7.604-7.604v-24.229C264.754,144.599,261.351,141.195,257.15,141.195z"/>
	</g>
</g>
<g>
	<g>
		<path fill="#D9879E" d="M305.61,141.195c-4.2,0-7.604,3.404-7.604,7.604v24.229c0,4.199,3.405,7.604,7.604,7.604
			c4.2,0,7.604-3.404,7.604-7.604v-24.229C313.214,144.599,309.81,141.195,305.61,141.195z"/>
	</g>
</g>
<g>
	<g>
		<path fill="#D9879E" d="M386.159,323.148c-1.088-2.955-3.975-4.991-7.135-4.985c-3.169,0.005-6.041,2.019-7.134,4.985
			c-1.189,3.23,0.015,7.036,2.907,8.937c2.933,1.934,6.914,1.612,9.467-0.815C386.438,329.205,387.194,325.958,386.159,323.148z"/>
	</g>
</g>
<g>
	<g>
		<path fill="#D9879E" d="M390.702,335.079c-3.101,1.959-4.354,5.946-2.957,9.335c1.126,2.806,4.003,4.701,7.016,4.694
			c3.389-0.008,6.42-2.322,7.329-5.58C403.918,336.968,396.444,331.448,390.702,335.079z"/>
	</g>
</g>
<g>
	<g>
		<path fill="#D9879E" d="M467.558,333.593c-0.354-20.323-8.246-40.538-23.719-56.012c-13.195-13.195-30.133-21.274-48.416-23.283
			c-13.633-13.256-30.521-22.077-48.883-25.696c22.427-23.37,36.23-55.073,36.23-89.943c0-32.985-12.738-64.961-35.193-88.937
			c-2.986-3.189-8.06-3.164-11.055,0.015c-2.769,2.939-2.73,7.508,0.034,10.45c5.277,5.616,9.923,11.667,13.907,18.073
			c-55.881,1.706-82.613,14.693-108.511,27.287c-25.744,12.519-50.15,24.366-103.691,25.422c0.88-13.237,4.011-25.867,9.017-37.509
			c1.695-3.146,3.279-6.393,4.746-9.742c19.505-35.627,57.354-59.841,100.755-59.841c19.683,0,38.856,4.991,55.878,14.494
			c3.509,1.959,7.932,0.874,10.106-2.506l0.007-0.01c2.366-3.679,1.154-8.609-2.664-10.742
			C296.812,14.334,275.083,8.67,252.779,8.67c-22.327,0-43.356,5.66-61.731,15.617C175.685,10.97,149.903-2.088,121.485,0.28
			C96.019,2.406,73.116,16.79,55.252,41.876c-18.046,25.34-18.858,46.018-19.511,62.632c-0.695,17.719-1.117,28.445-21.394,39.295
			c-2.646,1.415-4.432,4.169-4.301,7.166c0.164,3.783,3.027,6.795,6.677,7.24c0.428,0.053,5.016,0.589,12.357,0.589
			c9.884,0,24.756-0.972,41.184-5.411c20.89-5.643,38.821-15.458,53.313-29c-0.514,4.689-0.787,9.449-0.787,14.273
			c0,34.725,13.687,66.313,35.948,89.655c-46.856,8.4-82.527,49.46-82.527,98.696v17.608c0,4.199,3.405,7.604,7.604,7.604
			s7.604-3.405,7.604-7.604V327.01c0-46.019,36.741-83.593,82.426-84.993c9.009,35.807,41.719,61.494,78.93,61.494
			c37.192,0,69.891-25.657,78.918-61.433c14.553,0.735,28.385,5.224,40.384,12.986c-16.243,2.876-31.203,10.609-43.112,22.518
			l-92.253,92.253c-8.509,8.509-15.014,18.803-19.036,30.032h-29.344v-61.031c0-4.164-3.208-7.794-7.37-7.919
			c-4.306-0.13-7.838,3.322-7.838,7.601v68.954c0,4.199,3.405,7.604,7.604,7.604h135.296v81.718H151.005
			c-32.908,0-59.586-26.677-59.586-59.586V377.89c0-4.164-3.208-7.795-7.37-7.919c-4.306-0.13-7.838,3.322-7.838,7.601v59.624
			c0,41.314,33.492,74.806,74.806,74.806h197.466c14.956,0,29.032-5.83,39.637-16.417c10.587-10.588,16.417-24.669,16.417-39.649
			c0-7.069-1.296-13.886-3.821-20.352l10.738-10.738c9.894,8.799,22.668,13.733,36.117,13.733c29.99,0,54.389-24.398,54.389-54.389
			C501.96,361.724,488.076,341.702,467.558,333.593z M66.797,138.571c-9.833,2.698-19.133,4.004-26.895,4.586
			c9.999-11.691,10.508-24.61,11.035-38.051C51.54,89.75,52.224,72.345,67.64,50.698c15.404-21.632,33.946-33.495,55.11-35.262
			c21.663-1.809,41.566,7.224,54.694,17.349c-16.122,11.506-29.518,26.596-39.011,44.099l-0.007-0.003
			c-0.014,0.033-0.03,0.066-0.045,0.101c-1.748,3.229-3.358,6.543-4.833,9.93C119.386,112.929,96.984,130.289,66.797,138.571z
			 M252.776,288.303c-23.936,0-45.575-13.072-57.203-32.939c17.273,8.502,36.691,13.287,57.208,13.287
			c20.514,0,39.929-4.784,57.2-13.284C298.353,275.233,276.715,288.303,252.776,288.303z M252.781,253.443
			c-60.765,0-110.642-47.463-114.53-107.263c57.151-1.104,84.19-14.234,110.352-26.956c26.711-12.99,51.993-25.272,109.721-25.918
			c6.061,14.103,9.238,29.445,9.238,45.354C367.563,201.952,316.073,253.443,252.781,253.443z M377.37,484.824
			c-7.729,7.717-17.987,11.969-28.886,11.969h-17.251v-81.718h17.251c15.418,0,29.365,8.537,36.396,22.271
			c2.953,5.786,4.451,12.04,4.451,18.587C389.33,466.852,385.082,477.113,377.37,484.824z M392.982,421.808
			c-10.497-13.731-26.788-21.941-44.497-21.941H234.076c3.258-7.128,7.789-13.676,13.391-19.278l92.254-92.253
			c25.743-25.743,67.626-25.742,93.365,0c25.742,25.741,25.742,67.625,0,93.366L392.982,421.808z M447.571,423.368
			c-9.381,0-18.31-3.333-25.341-9.3l21.61-21.61c12.084-12.085,19.542-27.064,22.405-42.726c12.4,6.738,20.507,19.883,20.507,34.455
			C486.752,405.791,469.175,423.368,447.571,423.368z"/>
	</g>
</g>
</svg>
