<?xml version="1.0" encoding="utf-8"?>
<!-- Generator: Adobe Illustrator 24.3.0, SVG Export Plug-In . SVG Version: 6.00 Build 0)  -->
<svg version="1.1" id="Layer_1" xmlns="http://www.w3.org/2000/svg" xmlns:xlink="http://www.w3.org/1999/xlink" x="0px" y="0px"
	 width="512px" height="512px" viewBox="0 0 512 512" enable-background="new 0 0 512 512" xml:space="preserve">
<g>
	<path fill="#D9879E" d="M478.702,0H33.297C14.937,0,0,14.937,0,33.297v445.405C0,497.063,14.937,512,33.297,512h445.405
		c18.36,0,33.298-14.937,33.298-33.297V33.297C512,14.937,497.063,0,478.702,0z M497,478.703c0,10.089-8.208,18.297-18.298,18.297
		H33.297C23.208,497,15,488.792,15,478.703V33.297C15,23.208,23.208,15,33.297,15h445.405C488.792,15,497,23.208,497,33.297V478.703
		z"/>
	<path fill="#D9879E" d="M463.595,40.905H48.405c-4.142,0-7.5,3.358-7.5,7.5v29.311c0,9.697,15,9.697,15,0V55.905h308.189v93.525
		h-42.338c-2.881,0-5.507,1.65-6.757,4.246l-7.147,14.839l-21.021-67.843c-2.044-6.594-11.518-6.997-14.113-0.601l-20.101,49.525
		h-32.411l-11.473-22.506c-2.83-5.551-11.102-5.285-13.569,0.437l-10.505,24.364L168.18,90.695
		c-1.908-7.085-12.414-7.259-14.455-0.107l-22.445,78.67l-17.636-54.078c-2.035-6.241-10.877-6.91-13.829-1.048l-16.374,32.511
		H55.905v-29.04c0-9.697-15-9.697-15,0V377.09c0,4.142,3.358,7.5,7.5,7.5h415.189c4.143,0,7.5-3.358,7.5-7.5V48.405
		C471.095,44.263,467.737,40.905,463.595,40.905z M55.905,237.266h400.189v33.853H55.905V237.266z M456.095,55.905v166.36h-77
		V55.905H456.095z M88.062,161.642c2.833,0,5.424-1.596,6.698-4.126l10.266-20.383l19.603,60.108
		c2.215,6.794,12.356,6.694,14.343-0.268l21.758-76.26l15.047,55.876c1.81,6.719,11.374,7.409,14.129,1.02l12.713-29.486
		l6.31,12.379c1.281,2.512,3.862,4.094,6.682,4.094h42.056c3.053,0,5.802-1.851,6.949-4.68l14.103-34.745l20.45,66.001
		c1.975,6.377,11.025,7.05,13.921,1.035l13.379-27.777h37.626v57.835H55.905v-60.624h32.157L88.062,161.642z M55.905,369.59v-34.415
		c49.216,0.157,251.425,0.152,302.626-0.021c9.472-0.032,9.214-15-0.051-15c-99.99,0.338-201.743,0.344-302.575,0.021v-34.057
		h400.189v34.143c-17.613,0.232-34.443,0.198-52.395-0.107c-9.441-0.107-9.679,14.838-0.254,14.998
		c10.261,0.174,52.648,0.11,52.648,0.11v34.327H55.905L55.905,369.59z"/>
	<path fill="#D9879E" d="M432.404,401.607c-21.334,0-38.69,17.356-38.69,38.69s17.356,38.69,38.69,38.69s38.69-17.356,38.69-38.69
		S453.738,401.607,432.404,401.607z M432.404,463.988c-13.063,0-23.69-10.627-23.69-23.69s10.628-23.69,23.69-23.69
		s23.69,10.627,23.69,23.69S445.467,463.988,432.404,463.988z"/>
	<path fill="#D9879E" d="M356.528,418.481h-21.132c-12.027,0-21.812,9.785-21.812,21.822c0,12.027,9.784,21.812,21.812,21.812
		h21.132c12.027,0,21.812-9.785,21.812-21.822C378.34,428.266,368.556,418.481,356.528,418.481z M356.528,447.115h-21.132
		c-3.756,0-6.812-3.056-6.812-6.822c0-3.756,3.056-6.812,6.812-6.812h21.132c3.756,0,6.812,3.056,6.812,6.822
		C363.34,444.059,360.284,447.115,356.528,447.115z"/>
	<path fill="#D9879E" d="M282.673,418.481h-21.132c-12.027,0-21.813,9.785-21.813,21.822c0,12.027,9.785,21.812,21.813,21.812
		h21.132c12.027,0,21.812-9.785,21.812-21.822C304.484,428.266,294.7,418.481,282.673,418.481z M282.673,447.115h-21.132
		c-3.757,0-6.813-3.056-6.813-6.822c0-3.756,3.056-6.812,6.813-6.812h21.132c3.756,0,6.812,3.056,6.812,6.822
		C289.484,444.059,286.429,447.115,282.673,447.115z"/>
	<path fill="#D9879E" d="M208.816,418.481h-21.132c-12.027,0-21.812,9.785-21.812,21.822c0,12.027,9.785,21.812,21.812,21.812
		h21.132c12.027,0,21.812-9.785,21.812-21.822C230.628,428.266,220.844,418.481,208.816,418.481z M208.816,447.115h-21.132
		c-3.756,0-6.812-3.056-6.812-6.822c0-3.756,3.056-6.812,6.812-6.812h21.132c3.756,0,6.812,3.056,6.812,6.822
		C215.628,444.059,212.573,447.115,208.816,447.115z"/>
</g>
</svg>
