<svg width="13" height="13" viewBox="0 0 13 13" fill="none" xmlns="http://www.w3.org/2000/svg">
<path d="M6.51538 0.863223C6.42228 0.947859 6.37573 1.05577 6.37573 1.18695C6.37573 1.31814 6.41805 1.43028 6.50269 1.52338L11.0222 6.30951H0.58667C0.459717 6.30951 0.351807 6.35395 0.262939 6.44281C0.174072 6.53168 0.129639 6.63959 0.129639 6.76654C0.129639 6.8935 0.174072 7.00352 0.262939 7.09662C0.351807 7.18972 0.459717 7.23627 0.58667 7.23627H11.0222L6.50269 12.0224C6.41805 12.1155 6.37573 12.2255 6.37573 12.3525C6.37573 12.4794 6.42228 12.5895 6.51538 12.6826C6.60848 12.7672 6.72062 12.8074 6.85181 12.8032C6.98299 12.7989 7.0909 12.7503 7.17554 12.6572L12.4441 7.08393C12.4526 7.07546 12.4589 7.06912 12.4631 7.06488C12.4674 7.06065 12.4695 7.05854 12.4695 7.05854L12.4187 7.10932L12.4441 7.08393L12.4695 7.05854L12.5203 6.96967L12.5457 6.8935L12.571 6.81732V6.76654L12.5583 6.66498L12.533 6.58881L12.4822 6.49994L12.4441 6.44916L7.17554 0.875918C7.0909 0.78282 6.98299 0.734154 6.85181 0.729922C6.72062 0.725691 6.60848 0.770124 6.51538 0.863223Z" fill="white"/>
</svg>
