<svg width="13" height="13" viewBox="0 0 13 13" fill="none" xmlns="http://www.w3.org/2000/svg">
  <path d="M6.48535 0.863223C6.57845 0.947859 6.625 1.05577 6.625 1.18695C6.625 1.31814 6.58268 1.43028 6.49805 1.52338L1.97852 6.30951H12.4141C12.541 6.30951 12.6489 6.35395 12.7378 6.44281C12.8267 6.53168 12.8711 6.63959 12.8711 6.76654C12.8711 6.8935 12.8267 7.00352 12.7378 7.09662C12.6489 7.18972 12.541 7.23627 12.4141 7.23627H1.97852L6.49805 12.0224C6.58268 12.1155 6.625 12.2255 6.625 12.3525C6.625 12.4794 6.57845 12.5895 6.48535 12.6826C6.39225 12.7672 6.28011 12.8074 6.14893 12.8032C6.01774 12.7989 5.90983 12.7503 5.8252 12.6572L0.556641 7.08393C0.548177 7.07546 0.541829 7.06912 0.537598 7.06488C0.533366 7.06065 0.53125 7.05854 0.53125 7.05854L0.582031 7.10932L0.556641 7.08393L0.53125 7.05854L0.480469 6.96967L0.455078 6.8935L0.429688 6.81732V6.76654L0.442383 6.66498L0.467773 6.58881L0.518555 6.49994L0.556641 6.44916L5.8252 0.875918C5.90983 0.78282 6.01774 0.734154 6.14893 0.729922C6.28011 0.725691 6.39225 0.770124 6.48535 0.863223Z" fill="white" />
</svg>
