<svg width="15" height="15" viewBox="0 0 15 15" fill="none" xmlns="http://www.w3.org/2000/svg">
<path d="M1.86322 7.48462C1.94786 7.57772 2.05577 7.62427 2.18695 7.62427C2.31814 7.62427 2.43028 7.58195 2.52338 7.49731L7.30951 2.97778L7.30951 13.4133C7.30951 13.5403 7.35395 13.6482 7.44281 13.7371C7.53168 13.8259 7.63959 13.8704 7.76654 13.8704C7.8935 13.8704 8.00352 13.8259 8.09662 13.7371C8.18972 13.6482 8.23627 13.5403 8.23627 13.4133L8.23627 2.97778L13.0224 7.49731C13.1155 7.58195 13.2255 7.62427 13.3525 7.62427C13.4794 7.62427 13.5895 7.57772 13.6826 7.48462C13.7672 7.39152 13.8074 7.27938 13.8032 7.14819C13.7989 7.01701 13.7503 6.9091 13.6572 6.82446L8.08393 1.55591C8.07546 1.54744 8.06911 1.5411 8.06488 1.53687C8.06065 1.53263 8.05854 1.53052 8.05854 1.53052L8.10932 1.5813L8.08393 1.55591L8.05854 1.53052L7.96967 1.47974L7.8935 1.45435L7.81732 1.42896L7.76654 1.42896L7.66498 1.44165L7.58881 1.46704L7.49994 1.51782L7.44916 1.55591L1.87592 6.82446C1.78282 6.9091 1.73415 7.01701 1.72992 7.14819C1.72569 7.27938 1.77012 7.39152 1.86322 7.48462Z" fill="white"/>
</svg>
