<svg width="24" height="24" viewBox="0 0 24 24" fill="none" xmlns="http://www.w3.org/2000/svg">
<g clip-path="url(#clip0_2059_808)">
<path d="M6.85698 2.44497C7.99998 3.27797 8.88998 4.41497 9.64998 5.50297L10.092 6.14697L10.509 6.76197C10.7176 7.0667 10.8068 7.43752 10.7595 7.80377C10.7123 8.17002 10.532 8.5061 10.253 8.74797L8.30198 10.197C8.20773 10.265 8.14138 10.365 8.11526 10.4783C8.08914 10.5916 8.10504 10.7105 8.15998 10.813C8.60198 11.616 9.38798 12.812 10.288 13.712C11.189 14.612 12.441 15.45 13.3 15.942C13.4077 16.0024 13.5345 16.0193 13.6542 15.9892C13.774 15.9591 13.8777 15.8842 13.944 15.78L15.214 13.847C15.4475 13.5368 15.7919 13.329 16.1752 13.2672C16.5584 13.2053 16.9507 13.2941 17.27 13.515L17.933 13.974C19.172 14.834 20.503 15.811 21.521 17.114C21.6824 17.3218 21.7851 17.5691 21.8184 17.8301C21.8516 18.0912 21.8142 18.3563 21.71 18.598C20.873 20.551 18.755 22.214 16.552 22.133L16.252 22.116L16.019 22.096L15.761 22.066L15.48 22.028L15.175 21.978C15.1216 21.9683 15.0682 21.9583 15.015 21.948L14.679 21.876C14.6202 21.8631 14.5616 21.8497 14.503 21.836L14.137 21.742L13.752 21.632L13.35 21.502C11.504 20.876 9.16098 19.646 6.75698 17.242C4.35398 14.839 3.12398 12.496 2.49798 10.65L2.36798 10.248L2.25798 9.86297L2.16398 9.49697L2.08598 9.15097C2.06346 9.04261 2.04245 8.93393 2.02298 8.82497L1.97298 8.51997L1.93298 8.23897L1.90398 7.98097L1.88398 7.74797L1.86798 7.44797C1.78698 5.25197 3.46798 3.11897 5.41198 2.28597C5.64596 2.18494 5.90219 2.14647 6.15551 2.17435C6.40884 2.20222 6.65057 2.29548 6.85698 2.44497ZM14.992 6.03997L15.108 6.05297C15.8359 6.18137 16.5045 6.53691 17.0179 7.06865C17.5313 7.60039 17.8632 8.28101 17.966 9.01297C18.0026 9.26615 17.9409 9.52375 17.7934 9.73277C17.6459 9.9418 17.4239 10.0864 17.1731 10.1367C16.9223 10.187 16.6617 10.1393 16.445 10.0034C16.2283 9.8675 16.0719 9.65369 16.008 9.40597L15.985 9.29097C15.9448 9.00407 15.8223 8.73496 15.6324 8.51616C15.4425 8.29735 15.1934 8.13821 14.915 8.05797L14.76 8.02297C14.5089 7.97847 14.2843 7.83971 14.1321 7.63508C13.9799 7.43045 13.9116 7.17541 13.9413 6.92212C13.9709 6.66883 14.0962 6.43643 14.2915 6.27245C14.4868 6.10848 14.7374 6.02531 14.992 6.03997ZM15 2.99997C16.5913 2.99997 18.1174 3.63211 19.2426 4.75733C20.3678 5.88255 21 7.40867 21 8.99997C20.9997 9.25485 20.9021 9.5 20.7271 9.68534C20.5522 9.87068 20.313 9.98221 20.0586 9.99714C19.8041 10.0121 19.5536 9.9293 19.3582 9.76571C19.1627 9.60212 19.0371 9.37007 19.007 9.11697L19 8.99997C19.0004 7.98439 18.6142 7.00673 17.92 6.2655C17.2257 5.52426 16.2754 5.07502 15.262 5.00897L15 4.99997C14.7348 4.99997 14.4804 4.89461 14.2929 4.70708C14.1053 4.51954 14 4.26519 14 3.99997C14 3.73475 14.1053 3.4804 14.2929 3.29286C14.4804 3.10533 14.7348 2.99997 15 2.99997Z" fill="white"/>
</g>
<defs>
<clipPath id="clip0_2059_808">
<rect width="24" height="24" fill="white"/>
</clipPath>
</defs>
</svg>
