<svg width="285" height="60" viewBox="0 0 285 60" fill="none" xmlns="http://www.w3.org/2000/svg">
<path d="M13.6817 41.8512C13.3256 41.8512 12.959 41.8377 12.578 41.81C11.1356 41.7084 9.58198 41.2141 7.9556 40.3453C6.82917 39.6859 5.82698 38.853 4.94523 37.8459C4.18848 36.9681 3.50823 35.8847 2.91055 34.6196C2.28484 33.3007 1.96971 31.6962 1.96971 29.8532L1.87427 10.2162C1.87427 10.0091 1.9076 9.80647 1.97274 9.61058C2.15152 8.99299 2.73177 8.58252 3.47717 8.58252C3.63852 8.58252 3.79684 8.61916 3.94304 8.69019L4.13166 8.78215C4.23317 8.83374 4.32634 8.89953 4.40664 8.98103L4.52481 9.09468C4.81191 9.38104 4.9422 9.71301 4.9422 10.119V29.6214C4.9422 30.7175 5.09749 31.7882 5.4111 32.796C5.66639 33.6663 6.09817 34.5658 6.69812 35.4802C7.25641 36.3355 8.09498 37.0698 9.18656 37.6627C10.091 38.2077 11.019 38.5696 11.9886 38.761C12.8204 38.9248 13.8165 38.9494 14.9422 38.8388C16.0148 38.7304 17.1836 38.2982 18.4237 37.5475C19.1108 37.1004 19.7577 36.5225 20.3114 35.8361C20.7909 35.2522 21.2515 34.491 21.6818 33.5684C22.0908 32.6921 22.3287 31.6162 22.3855 30.3646L22.384 30.2711C22.3552 29.2266 22.2052 28.2718 21.9393 27.4569C21.6787 26.6539 21.3326 25.9526 20.9129 25.3806C20.4879 24.7989 20.0107 24.2979 19.4956 23.8935C18.9593 23.4792 18.404 23.1271 17.8419 22.8497C16.5178 22.2112 14.9823 21.8246 13.2915 21.7065C12.4787 21.6945 12.0871 21.2459 11.9242 20.973C11.7901 20.7831 11.7 20.5207 11.6841 20.25C11.6174 19.5801 11.9878 18.9932 12.6279 18.7801C12.8363 18.7128 13.0188 18.6806 13.1931 18.6806C14.7634 18.7494 16.1262 18.964 17.2867 19.3304C18.4532 19.6982 19.4827 20.167 20.3531 20.7218C21.2379 21.2885 21.9908 21.9443 22.59 22.6762C23.1612 23.3708 23.643 24.0834 24.0164 24.7907C24.905 26.4729 25.3686 28.3728 25.4027 30.4386C25.405 30.464 25.4027 30.4887 25.3996 30.5134C25.333 31.7104 25.1126 32.8865 24.7421 34.014C24.3959 35.0054 23.852 36.0522 23.1165 37.14C22.3431 38.2825 21.2553 39.2754 19.8766 40.0926C18.8025 40.7543 17.6101 41.2508 16.3489 41.5521C15.5482 41.7487 14.6505 41.8512 13.6817 41.8512Z" fill="#20282D"/>
<path d="M54.8781 21.753C53.6835 21.753 52.5427 21.9825 51.4905 22.4319C50.427 22.8902 49.4945 23.51 48.7165 24.2794C47.9362 25.0502 47.3083 25.9676 46.8454 27.0189C46.3879 28.0574 46.1561 29.1834 46.1561 30.3632C46.1561 31.543 46.3879 32.6691 46.8454 33.7068C47.3067 34.7558 47.9362 35.6785 48.7142 36.4448C49.4937 37.2164 50.427 37.8355 51.4905 38.2938C53.5949 39.1933 56.1613 39.1948 58.2687 38.2938C59.3331 37.8355 60.2777 37.2119 61.0723 36.4396C61.8639 35.6725 62.4972 34.7543 62.9593 33.7068C63.4161 32.6691 63.6463 31.543 63.6463 30.3632C63.6463 29.1834 63.4161 28.0574 62.9593 27.0189C62.4972 25.9721 61.8639 25.0517 61.0723 24.2868C60.2746 23.5137 59.3323 22.8902 58.2687 22.4319C57.2143 21.9825 56.0742 21.753 54.8781 21.753ZM54.8781 41.9986C53.2722 41.9986 51.7352 41.6875 50.3118 41.0804C48.8953 40.4726 47.6484 39.6359 46.6038 38.5892C45.5637 37.5461 44.7274 36.311 44.1146 34.9173C43.4972 33.5132 43.1836 31.9954 43.1836 30.4111C43.1836 28.8237 43.4972 27.3067 44.1153 25.9018C44.7289 24.5074 45.5667 23.2775 46.6083 22.2479C47.6529 21.2184 48.8983 20.3907 50.3118 19.7843C51.7344 19.1757 53.2722 18.8677 54.8781 18.8677C56.484 18.8677 58.0226 19.1757 59.4467 19.7843C60.8579 20.3907 62.1078 21.2154 63.1638 22.2419C64.2266 23.273 65.0743 24.5044 65.6901 25.9018C66.3082 27.3067 66.6203 28.8237 66.6203 30.4111C66.6203 31.9924 66.3082 33.5132 65.6901 34.9173C65.0773 36.3125 64.2296 37.5491 63.1706 38.5929C62.1124 39.6389 60.8602 40.4726 59.4467 41.0804C58.0195 41.6875 56.484 41.9986 54.8781 41.9986Z" fill="#20282D"/>
<path d="M71.4476 41.9524C70.7507 41.9524 70.1954 41.5755 69.9917 40.9714C69.9235 40.78 69.8894 40.5594 69.8894 40.3239L69.9371 29.8026C69.9371 27.9962 70.253 26.4029 70.878 25.0683C71.4794 23.7816 72.1665 22.6982 72.9172 21.857C73.7997 20.8858 74.7883 20.0596 75.8707 19.3934C77.5532 18.4925 79.1053 17.999 80.5469 17.8966C81.9559 17.7942 83.2186 17.8839 84.3254 18.1568C85.5783 18.4574 86.7706 18.9523 87.863 19.6245C89.2507 20.4275 90.3529 21.4159 91.1112 22.5464C91.8316 23.6186 92.3679 24.6548 92.7042 25.6261C93.0822 26.7753 93.305 27.9521 93.3724 29.1484C93.3724 29.7308 93.0527 30.1921 92.5353 30.4157L92.374 30.495C92.2308 30.566 92.0717 30.6011 91.9096 30.6011C91.0544 30.6011 90.7165 30.1473 90.59 29.8669L90.5105 29.7106C90.4461 29.582 90.4075 29.4422 90.4014 29.2987C90.3431 28.0515 90.1029 26.9756 89.681 26.1024C89.2318 25.1752 88.7614 24.4096 88.2857 23.8287C87.7031 23.1483 87.0539 22.5584 86.3495 22.0866C85.1602 21.3681 83.9928 20.9411 82.9225 20.8454C81.7953 20.7475 80.7938 20.7841 79.9591 20.9471C78.9773 21.14 78.0448 21.4907 77.1775 21.9856C76.0669 22.589 75.2299 23.3307 74.6716 24.198C74.0671 25.1311 73.6391 26.0395 73.3869 26.8964C73.0679 27.9185 72.9081 28.9876 72.9081 30.0845V40.4159C72.9081 40.9766 72.6528 41.4395 72.2135 41.6937C71.9317 41.9045 71.6506 41.9524 71.4476 41.9524Z" fill="#20282D"/>
<path d="M107.927 41.9564C107.812 41.9564 107.695 41.9564 107.577 41.9519C106.54 41.9183 105.588 41.7815 104.744 41.5414C103.903 41.3067 103.131 40.9912 102.451 40.6143C101.795 40.2495 101.204 39.8622 100.694 39.4562C99.4812 38.4648 98.507 37.2468 97.7851 35.8247C97.3162 34.9716 96.9814 34.0968 96.8064 33.2602C96.642 32.4923 96.5261 31.7895 96.4602 31.1644C96.3912 30.4153 96.4072 29.7102 96.5049 29.056C96.5799 27.6107 96.9473 26.229 97.5987 24.9453C97.8745 24.4017 98.229 23.8372 98.6509 23.269C99.0925 22.676 99.647 22.1138 100.289 21.5994C100.919 21.0947 101.667 20.6184 102.505 20.1863C103.363 19.7481 104.354 19.393 105.464 19.1276C106.034 19.0207 106.594 18.9392 107.19 18.8749C107.687 18.8061 108.256 18.7799 108.859 18.8001C109.474 18.8165 110.089 18.8935 110.689 19.0326C110.767 19.0498 110.839 19.079 110.909 19.1111C113.03 19.6502 114.735 20.531 115.987 21.7295C117.213 22.9063 118.135 24.1393 118.717 25.3954C119.391 26.8234 119.801 28.3726 119.935 30.004C119.937 30.0302 119.937 30.0579 119.937 30.084C119.937 30.7151 119.558 31.2287 118.942 31.4321C118.748 31.4949 118.542 31.5271 118.335 31.5271H103.316C102.775 31.5271 102.309 31.299 102.019 30.8975C101.818 30.6597 101.714 30.3584 101.714 30.0392C101.714 29.9921 101.717 29.9442 101.723 29.8971C101.802 29.3304 102.126 28.8892 102.611 28.6806C102.81 28.5917 103.031 28.5476 103.269 28.5476L116.671 28.5042C116.667 28.4877 116.665 28.4705 116.662 28.4526C116.356 27.2219 115.914 26.1969 115.353 25.426C114.776 24.6327 114.165 23.983 113.544 23.5082C112.922 23.0297 112.348 22.6903 111.836 22.4936C111.231 22.2656 110.92 22.1587 110.765 22.1108C110.656 22.0936 110.546 22.0682 110.442 22.0278L109.962 21.9097C109.748 21.8566 109.318 21.7811 108.485 21.7295C107.839 21.6876 107.087 21.7676 106.222 21.959C105.032 22.2611 103.945 22.7403 103.018 23.3751C102.204 23.9307 101.422 24.6895 100.693 25.6331C100.023 26.5064 99.6281 27.669 99.5175 29.0986C99.4334 30.5498 99.6084 31.9502 100.033 33.24C100.21 33.8135 100.44 34.363 100.735 34.9013C101.02 35.4232 101.389 35.9271 101.842 36.3982C102.295 36.8715 102.854 37.3141 103.51 37.7126C104.15 38.1014 104.928 38.4109 105.82 38.633C106.396 38.7713 106.976 38.8752 107.549 38.9335C108.047 38.9889 108.53 38.9934 109.054 38.9507C109.503 38.9164 109.905 38.8064 110.24 38.63C110.999 38.2591 111.879 38.5276 112.273 39.3104C112.445 39.6506 112.487 40.0199 112.399 40.3811C112.391 40.4117 112.384 40.4379 112.373 40.4685C112.289 40.7123 112.151 40.9313 111.957 41.1198C111.737 41.3388 111.436 41.4861 110.983 41.596C109.886 41.8383 108.869 41.9564 107.927 41.9564Z" fill="#20282D"/>
<path d="M134.967 58.8052C134.659 58.8052 134.358 58.7895 134.07 58.7626C133.066 58.6654 132.174 58.4927 131.419 58.2564C130.537 57.9887 129.748 57.6284 129.079 57.1843C128.564 56.8979 128.418 56.4732 128.381 56.2407C128.354 56.0874 128.344 55.9506 128.344 55.8422C128.344 55.5296 128.449 55.2351 128.642 54.9965C128.82 54.7438 129.191 54.3977 129.903 54.3977C130.013 54.3977 130.124 54.4171 130.23 54.4522L130.512 54.5442C130.57 54.5629 130.629 54.5861 130.681 54.6152C131.558 55.0885 132.369 55.407 133.093 55.5543C134.715 55.8848 135.819 55.8347 136.772 55.591C137.709 55.3853 138.497 55.1035 139.153 54.7386C139.831 54.3618 140.431 53.9423 140.932 53.4855C141.421 53.0444 141.828 52.5696 142.137 52.0791C142.47 51.5505 142.755 51.0219 142.986 50.512C143.484 49.3643 143.741 48.082 143.741 46.7153V31.0111C143.741 29.9142 143.583 28.8458 143.27 27.8364C143.013 26.9631 142.581 26.0667 141.983 25.1523C141.421 24.2924 140.576 23.5403 139.474 22.9137C138.604 22.4128 137.67 22.0651 136.689 21.8737C135.864 21.7077 134.864 21.6831 133.737 21.7952C132.665 21.9006 131.515 22.3328 130.314 23.079C129.605 23.5373 128.938 24.1257 128.353 24.8151C127.845 25.399 127.376 26.1497 126.95 27.0461C126.541 27.9007 126.323 28.9639 126.295 30.1991V30.3157C126.295 31.3744 126.436 32.3135 126.711 33.1143C126.99 33.9315 127.342 34.65 127.759 35.2519C128.163 35.8373 128.632 36.3338 129.151 36.7301C129.709 37.1532 130.275 37.5084 130.834 37.7828C132.175 38.4602 133.708 38.8415 135.399 38.9275H135.402C136.228 38.9275 136.635 39.3813 136.801 39.6535C136.958 39.8852 137.043 40.1439 137.043 40.4154C137.043 41.1017 136.663 41.6498 136.051 41.8524C135.854 41.9182 135.665 41.9518 135.487 41.9518C133.917 41.8845 132.554 41.6685 131.393 41.3006C130.23 40.9357 129.2 40.4699 128.327 39.9107C127.439 39.3424 126.688 38.6882 126.09 37.9562C125.517 37.2602 125.036 36.5499 124.662 35.8403C123.775 34.1595 123.309 32.2455 123.277 30.1468C123.309 28.8907 123.534 27.6936 123.946 26.5467C124.283 25.5747 124.831 24.5422 125.57 23.4805C126.339 22.3761 127.439 21.3907 128.844 20.5451C129.927 19.8782 131.119 19.3824 132.377 19.0804C133.476 18.8105 134.739 18.7215 136.148 18.8217C137.588 18.9256 139.144 19.4161 140.769 20.2864C141.905 20.9847 142.895 21.8109 143.773 22.7739C144.537 23.6704 145.216 24.7553 145.798 26.0241C146.406 27.343 146.713 28.9422 146.713 30.7793L146.807 46.1067C146.807 46.7399 146.772 47.3284 146.703 47.86C146.638 48.3669 146.575 48.8252 146.511 49.2327C146.409 49.7531 146.315 50.1965 146.216 50.6054C145.759 52.2787 145.046 53.6283 144.093 54.6593C143.18 55.6425 142.217 56.4291 141.223 57.0048C140.119 57.6665 138.889 58.1727 137.575 58.5032C136.626 58.7088 135.762 58.8052 134.967 58.8052Z" fill="#20282D"/>
<path d="M161.386 41.9564C161.266 41.9564 161.15 41.9564 161.031 41.9519C159.998 41.9183 159.043 41.7815 158.2 41.5414C157.358 41.3067 156.587 40.9941 155.909 40.6143C155.254 40.2495 154.662 39.8622 154.15 39.4562C152.934 38.4648 151.961 37.2453 151.24 35.8247C150.773 34.9716 150.439 34.0968 150.26 33.2602C150.098 32.4848 149.981 31.7813 149.917 31.1644C149.846 30.4138 149.865 29.7087 149.963 29.0545C150.038 27.6107 150.406 26.229 151.053 24.9453C151.331 24.4032 151.685 23.8387 152.109 23.269C152.551 22.676 153.1 22.1138 153.747 21.5994C154.377 21.0947 155.121 20.6184 155.964 20.1863C156.815 19.7481 157.81 19.393 158.919 19.1276C159.488 19.0207 160.052 18.9392 160.645 18.8749C161.144 18.8061 161.712 18.7799 162.316 18.8001C162.931 18.8165 163.545 18.8935 164.142 19.0326C164.221 19.0498 164.297 19.079 164.366 19.1111C166.484 19.6502 168.194 20.531 169.44 21.7295C170.669 22.9063 171.589 24.1393 172.172 25.3954C172.846 26.8234 173.257 28.3726 173.392 30.004C173.393 30.0302 173.393 30.0579 173.393 30.084C173.393 30.7151 173.014 31.2287 172.4 31.4321C172.205 31.4949 172 31.5271 171.792 31.5271H156.773C156.231 31.5271 155.766 31.3005 155.477 30.8975C155.276 30.6597 155.168 30.3584 155.168 30.0392C155.168 29.9921 155.171 29.9442 155.179 29.8971C155.258 29.3304 155.583 28.8892 156.067 28.6806C156.264 28.5917 156.486 28.5476 156.726 28.5476L170.129 28.5042C170.128 28.4877 170.121 28.4705 170.12 28.4526C169.813 27.2219 169.37 26.1969 168.811 25.426C168.228 24.6327 167.62 23.983 166.999 23.5082C166.379 23.0297 165.804 22.6903 165.294 22.4936C164.684 22.2656 164.375 22.1587 164.22 22.1108C164.111 22.0936 164.004 22.0682 163.903 22.0278L163.418 21.9097C163.202 21.8566 162.773 21.7811 161.938 21.7295C161.294 21.6876 160.547 21.7676 159.676 21.959C158.487 22.2611 157.399 22.7403 156.476 23.3751C155.657 23.9336 154.877 24.691 154.15 25.6331C153.479 26.5064 153.084 27.669 152.975 29.0986C152.894 30.5498 153.063 31.9502 153.49 33.24C153.667 33.8135 153.895 34.363 154.19 34.9013C154.476 35.4232 154.849 35.9271 155.3 36.3982C155.752 36.8715 156.311 37.3141 156.963 37.7111C157.605 38.1014 158.386 38.4109 159.278 38.633C159.851 38.7713 160.433 38.8752 161.006 38.9335C161.5 38.9889 161.986 38.9934 162.509 38.9507C162.959 38.9164 163.359 38.8064 163.699 38.63C164.456 38.2591 165.334 38.5276 165.732 39.3104C165.902 39.6506 165.942 40.0199 165.855 40.3811C165.848 40.4117 165.841 40.4379 165.83 40.4685C165.747 40.7123 165.606 40.9313 165.417 41.1198C165.195 41.3388 164.892 41.4861 164.439 41.596C163.343 41.8383 162.326 41.9564 161.386 41.9564Z" fill="#20282D"/>
<path d="M199.197 41.9525C198.826 41.9525 198.478 41.8112 198.223 41.5525C197.904 41.243 197.732 40.8459 197.732 40.416V29.8536C197.732 29.8394 197.73 29.8177 197.725 29.7908C197.702 29.6697 197.693 29.5269 197.688 29.3504C197.656 29.1717 197.638 29.0087 197.638 28.8562V28.7283C197.579 28.3597 197.501 27.941 197.401 27.4663C197.305 27.0005 197.148 26.4965 196.938 25.9679C196.73 25.4483 196.454 24.9242 196.117 24.4127C195.797 23.9238 195.404 23.4624 194.947 23.031C194.429 22.625 194.146 22.4314 193.995 22.3379C193.964 22.317 193.93 22.2953 193.904 22.2721C193.781 22.2482 193.637 22.1742 193.533 22.1099C192.718 21.6104 191.911 21.2538 191.136 21.0497C189.565 20.6332 188.268 20.6332 186.7 21.0497C185.922 21.2538 185.093 21.6134 184.242 22.1189C183.873 22.3536 183.467 22.652 183.07 22.9907C182.757 23.274 182.399 23.6576 182.03 24.1062C181.671 24.5443 181.333 25.0714 181.026 25.6786C180.734 26.3328 180.512 27.0109 180.39 27.6412C180.26 28.3014 180.162 28.8495 180.102 29.2741V40.416C180.102 40.8235 179.975 41.1555 179.725 41.4007L179.561 41.5585C179.306 41.8127 178.978 41.9525 178.641 41.9525C177.904 41.9525 177.34 41.5876 177.136 40.9715C177.066 40.7727 177.037 40.5551 177.037 40.3241L177.083 29.8027C177.083 27.9979 177.398 26.4031 178.025 25.0685C178.622 23.7877 179.305 22.6968 180.051 21.825C180.94 20.8104 181.943 19.9745 183.036 19.3368C184.117 18.7513 185.144 18.3498 186.13 18.1278C187.091 17.9132 188.024 17.8182 188.918 17.8489C189.804 17.8182 190.739 17.9132 191.689 18.1293C192.652 18.3498 193.674 18.7528 194.723 19.3181C195.844 19.9745 196.846 20.8104 197.73 21.8146C198.486 22.6968 199.168 23.7862 199.765 25.0685C200.388 26.4031 200.708 27.9979 200.708 29.8057L200.8 40.3143C200.8 40.5551 200.764 40.7727 200.7 40.9701C200.492 41.5876 199.929 41.9525 199.197 41.9525Z" fill="#20282D"/>
<path d="M39.0628 41.9069C38.803 41.9069 38.5492 41.8515 38.3068 41.7446C37.1629 41.3857 36.1426 40.9356 35.2797 40.41C34.4018 39.8769 33.6253 39.2795 32.9777 38.6403C32.327 38.0003 31.7808 37.3318 31.3498 36.6499C30.921 35.9763 30.5824 35.3034 30.3407 34.6551C29.7385 33.1695 29.4461 31.5545 29.4802 29.8752V18.9666C29.4802 18.536 29.6499 18.142 29.9703 17.8249C30.0521 17.7449 30.1453 17.6791 30.2445 17.629C30.3423 17.5827 30.4657 17.5311 30.6089 17.4847C30.7581 17.4354 30.9149 17.4204 31.0733 17.4361C31.9247 17.5446 32.2542 18.056 32.3769 18.3506C32.4671 18.6137 32.5012 18.7932 32.5012 18.9666V29.8999C32.4709 30.9168 32.5481 31.8013 32.7292 32.5579C32.911 33.319 33.1625 33.9994 33.4791 34.5789C33.795 35.1673 34.1564 35.6832 34.5518 36.1109C34.9654 36.564 35.3896 36.9625 35.8161 37.2967C36.8084 38.0324 37.9901 38.6006 39.2991 38.964C40.0763 39.1569 40.3695 39.693 40.4718 39.9966C40.5861 40.3382 40.5581 40.6246 40.4892 40.8332C40.3347 41.4807 39.7771 41.9069 39.0628 41.9069Z" fill="#20282D"/>
<path d="M55.0195 33.1176C54.3059 33.1176 53.662 32.8522 53.156 32.3543C52.6522 31.8571 52.3826 31.2208 52.3826 30.518C52.3826 29.8144 52.6522 29.1774 53.156 28.6794C53.665 28.18 54.3074 27.9146 55.0195 27.9146C55.73 27.9146 56.3739 28.1792 56.8815 28.6772C57.3882 29.1804 57.6549 29.8174 57.6549 30.518C57.6549 31.2193 57.3882 31.8548 56.8815 32.3543C56.3754 32.856 55.73 33.1176 55.0195 33.1176Z" fill="#79B242"/>
<path d="M30.9892 13.1869C30.2757 13.1869 29.6318 12.9223 29.1273 12.4221C28.6212 11.9264 28.3516 11.2886 28.3516 10.5858C28.3516 9.8837 28.6212 9.24594 29.1273 8.74649C29.634 8.24704 30.2772 7.98535 30.9892 7.98535C31.6968 7.98535 32.3399 8.24704 32.8497 8.74499C33.3587 9.24818 33.6246 9.8837 33.6246 10.5858C33.6246 11.2871 33.3587 11.9256 32.8527 12.4221C32.3452 12.9223 31.6998 13.1869 30.9892 13.1869Z" fill="#79B242"/>
<g opacity="0.8">
<path d="M221.459 44.6775C229.119 44.6775 235.329 38.5503 235.329 30.9883C235.329 23.427 229.119 17.2983 221.459 17.2983C213.798 17.2983 207.588 23.427 207.588 30.9883C207.588 38.5503 213.798 44.6775 221.459 44.6775Z" fill="#ADD365"/>
</g>
<g opacity="0.8">
<path d="M245.348 44.6775C253.008 44.6775 259.22 38.5503 259.22 30.9883C259.22 23.427 253.008 17.2983 245.348 17.2983C237.687 17.2983 231.477 23.427 231.477 30.9883C231.477 38.5503 237.687 44.6775 245.348 44.6775Z" fill="#79B242"/>
</g>
<g opacity="0.8">
<path d="M269.231 44.6775C276.893 44.6775 283.102 38.5503 283.102 30.9883C283.102 23.427 276.893 17.2983 269.231 17.2983C261.572 17.2983 255.36 23.427 255.36 30.9883C255.36 38.5503 261.572 44.6775 269.231 44.6775Z" fill="#48A948"/>
</g>
</svg>
