<svg width="285" height="60" viewBox="0 0 285 60" fill="none" xmlns="http://www.w3.org/2000/svg">
<path d="M13.6818 41.8512C13.3258 41.8512 12.9592 41.8377 12.5781 41.81C11.1358 41.7084 9.58216 41.2141 7.95578 40.3453C6.82936 39.6859 5.82716 38.853 4.94542 37.8459C4.18866 36.9681 3.50841 35.8847 2.91073 34.6196C2.28502 33.3007 1.9699 31.6962 1.9699 29.8532L1.87445 10.2162C1.87445 10.0091 1.90778 9.80647 1.97293 9.61058C2.1517 8.99299 2.73196 8.58252 3.47735 8.58252C3.6387 8.58252 3.79702 8.61916 3.94322 8.69019L4.13184 8.78215C4.23335 8.83374 4.32653 8.89953 4.40682 8.98103L4.525 9.09468C4.81209 9.38104 4.94239 9.71301 4.94239 10.119V29.6214C4.94239 30.7175 5.09768 31.7882 5.41129 32.796C5.66657 33.6663 6.09835 34.5658 6.69831 35.4802C7.25659 36.3355 8.09516 37.0698 9.18674 37.6627C10.0912 38.2077 11.0192 38.5696 11.9888 38.761C12.8205 38.9248 13.8167 38.9494 14.9423 38.8388C16.015 38.7304 17.1838 38.2982 18.4239 37.5475C19.1109 37.1004 19.7579 36.5225 20.3116 35.8361C20.7911 35.2522 21.2517 34.491 21.6819 33.5684C22.091 32.6921 22.3289 31.6162 22.3857 30.3646L22.3842 30.2711C22.3554 29.2266 22.2054 28.2718 21.9395 27.4569C21.6789 26.6539 21.3327 25.9526 20.9131 25.3806C20.4881 24.7989 20.0109 24.2979 19.4958 23.8935C18.9594 23.4792 18.4042 23.1271 17.8421 22.8497C16.518 22.2112 14.9825 21.8246 13.2917 21.7065C12.4789 21.6945 12.0873 21.2459 11.9244 20.973C11.7903 20.7831 11.7002 20.5207 11.6843 20.25C11.6176 19.5801 11.988 18.9932 12.6281 18.7801C12.8364 18.7128 13.019 18.6806 13.1932 18.6806C14.7636 18.7494 16.1263 18.964 17.2868 19.3304C18.4534 19.6982 19.4829 20.167 20.3533 20.7218C21.238 21.2885 21.991 21.9443 22.5902 22.6762C23.1614 23.3708 23.6432 24.0834 24.0166 24.7907C24.9052 26.4729 25.3688 28.3728 25.4029 30.4386C25.4051 30.464 25.4029 30.4887 25.3998 30.5134C25.3332 31.7104 25.1127 32.8865 24.7423 34.014C24.3961 35.0054 23.8522 36.0522 23.1167 37.14C22.3433 38.2825 21.2555 39.2754 19.8768 40.0926C18.8026 40.7543 17.6103 41.2508 16.349 41.5521C15.5484 41.7487 14.6507 41.8512 13.6818 41.8512Z" fill="white"/>
<path d="M54.8784 21.753C53.6838 21.753 52.5429 21.9825 51.4907 22.4319C50.4272 22.8902 49.4947 23.51 48.7167 24.2794C47.9365 25.0502 47.3085 25.9676 46.8457 27.0189C46.3881 28.0574 46.1563 29.1834 46.1563 30.3632C46.1563 31.543 46.3881 32.6691 46.8457 33.7068C47.307 34.7558 47.9365 35.6785 48.7145 36.4448C49.4939 37.2164 50.4272 37.8355 51.4907 38.2938C53.5951 39.1933 56.1616 39.1948 58.269 38.2938C59.3333 37.8355 60.2779 37.2119 61.0726 36.4396C61.8642 35.6725 62.4974 34.7543 62.9595 33.7068C63.4163 32.6691 63.6466 31.543 63.6466 30.3632C63.6466 29.1834 63.4163 28.0574 62.9595 27.0189C62.4974 25.9721 61.8642 25.0517 61.0726 24.2868C60.2749 23.5137 59.3325 22.8902 58.269 22.4319C57.2145 21.9825 56.0745 21.753 54.8784 21.753ZM54.8784 41.9986C53.2724 41.9986 51.7354 41.6875 50.3121 41.0804C48.8955 40.4726 47.6486 39.6359 46.604 38.5892C45.5639 37.5461 44.7277 36.311 44.1148 34.9173C43.4974 33.5132 43.1838 31.9954 43.1838 30.4111C43.1838 28.8237 43.4974 27.3067 44.1156 25.9018C44.7292 24.5074 45.567 23.2775 46.6086 22.2479C47.6532 21.2184 48.8985 20.3907 50.3121 19.7843C51.7347 19.1757 53.2724 18.8677 54.8784 18.8677C56.4843 18.8677 58.0228 19.1757 59.4469 19.7843C60.8582 20.3907 62.1081 21.2154 63.1641 22.2419C64.2268 23.273 65.0745 24.5044 65.6904 25.9018C66.3085 27.3067 66.6206 28.8237 66.6206 30.4111C66.6206 31.9924 66.3085 33.5132 65.6904 34.9173C65.0775 36.3125 64.2299 37.5491 63.1709 38.5929C62.1126 39.6389 60.8604 40.4726 59.4469 41.0804C58.0198 41.6875 56.4843 41.9986 54.8784 41.9986Z" fill="white"/>
<path d="M71.4479 41.9524C70.751 41.9524 70.1957 41.5755 69.992 40.9714C69.9238 40.78 69.8897 40.5594 69.8897 40.3239L69.9374 29.8026C69.9374 27.9962 70.2533 26.4029 70.8783 25.0683C71.4797 23.7816 72.1668 22.6982 72.9175 21.857C73.8 20.8858 74.7886 20.0596 75.871 19.3934C77.5535 18.4925 79.1056 17.999 80.5472 17.8966C81.9562 17.7942 83.2189 17.8839 84.3257 18.1568C85.5786 18.4574 86.7709 18.9523 87.8633 19.6245C89.251 20.4275 90.3532 21.4159 91.1115 22.5464C91.8319 23.6186 92.3682 24.6548 92.7046 25.6261C93.0826 26.7753 93.3053 27.9521 93.3727 29.1484C93.3727 29.7308 93.053 30.1921 92.5356 30.4157L92.3743 30.495C92.2311 30.566 92.072 30.6011 91.9099 30.6011C91.0547 30.6011 90.7168 30.1473 90.5903 29.8669L90.5108 29.7106C90.4464 29.582 90.4078 29.4422 90.4017 29.2987C90.3434 28.0515 90.1032 26.9756 89.6813 26.1024C89.2321 25.1752 88.7617 24.4096 88.286 23.8287C87.7034 23.1483 87.0542 22.5584 86.3498 22.0866C85.1605 21.3681 83.9931 20.9411 82.9228 20.8454C81.7956 20.7475 80.7941 20.7841 79.9594 20.9471C78.9776 21.14 78.0451 21.4907 77.1778 21.9856C76.0672 22.589 75.2302 23.3307 74.6719 24.198C74.0674 25.1311 73.6394 26.0395 73.3872 26.8964C73.0682 27.9185 72.9084 28.9876 72.9084 30.0845V40.4159C72.9084 40.9766 72.6531 41.4395 72.2138 41.6937C71.932 41.9045 71.6509 41.9524 71.4479 41.9524Z" fill="white"/>
<path d="M107.928 41.9564C107.812 41.9564 107.695 41.9564 107.577 41.9519C106.541 41.9183 105.588 41.7815 104.744 41.5414C103.903 41.3067 103.131 40.9912 102.451 40.6143C101.795 40.2495 101.205 39.8622 100.694 39.4562C99.4813 38.4648 98.5071 37.2468 97.7852 35.8247C97.3163 34.9716 96.9815 34.0968 96.8065 33.2602C96.6421 32.4923 96.5262 31.7895 96.4603 31.1644C96.3914 30.4153 96.4073 29.7102 96.505 29.056C96.58 27.6107 96.9474 26.229 97.5988 24.9453C97.8746 24.4017 98.2291 23.8372 98.651 23.269C99.0927 22.676 99.6472 22.1138 100.29 21.5994C100.919 21.0947 101.667 20.6184 102.505 20.1863C103.364 19.7481 104.354 19.393 105.464 19.1276C106.034 19.0207 106.594 18.9392 107.191 18.8749C107.687 18.8061 108.256 18.7799 108.859 18.8001C109.474 18.8165 110.09 18.8935 110.689 19.0326C110.767 19.0498 110.839 19.079 110.909 19.1111C113.03 19.6502 114.735 20.531 115.987 21.7295C117.213 22.9063 118.135 24.1393 118.718 25.3954C119.391 26.8234 119.801 28.3726 119.935 30.004C119.937 30.0302 119.937 30.0579 119.937 30.084C119.937 30.7151 119.558 31.2287 118.943 31.4321C118.748 31.4949 118.542 31.5271 118.335 31.5271H103.316C102.775 31.5271 102.309 31.299 102.019 30.8975C101.818 30.6597 101.714 30.3584 101.714 30.0392C101.714 29.9921 101.717 29.9442 101.723 29.8971C101.802 29.3304 102.127 28.8892 102.611 28.6806C102.81 28.5917 103.031 28.5476 103.27 28.5476L116.672 28.5042C116.667 28.4877 116.666 28.4705 116.662 28.4526C116.356 27.2219 115.914 26.1969 115.353 25.426C114.776 24.6327 114.165 23.983 113.544 23.5082C112.922 23.0297 112.348 22.6903 111.836 22.4936C111.231 22.2656 110.921 22.1587 110.765 22.1108C110.656 22.0936 110.546 22.0682 110.443 22.0278L109.962 21.9097C109.748 21.8566 109.318 21.7811 108.485 21.7295C107.839 21.6876 107.087 21.7676 106.222 21.959C105.032 22.2611 103.945 22.7403 103.018 23.3751C102.205 23.9307 101.422 24.6895 100.693 25.6331C100.023 26.5064 99.6282 27.669 99.5176 29.0986C99.4336 30.5498 99.6085 31.9502 100.033 33.24C100.21 33.8135 100.44 34.363 100.735 34.9013C101.02 35.4232 101.389 35.9271 101.842 36.3982C102.295 36.8715 102.854 37.3141 103.51 37.7126C104.151 38.1014 104.929 38.4109 105.82 38.633C106.396 38.7713 106.976 38.8752 107.549 38.9335C108.047 38.9889 108.53 38.9934 109.054 38.9507C109.503 38.9164 109.905 38.8064 110.24 38.63C110.999 38.2591 111.88 38.5276 112.273 39.3104C112.445 39.6506 112.487 40.0199 112.399 40.3811C112.392 40.4117 112.384 40.4379 112.373 40.4685C112.289 40.7123 112.151 40.9313 111.958 41.1198C111.737 41.3388 111.436 41.4861 110.983 41.596C109.887 41.8383 108.869 41.9564 107.928 41.9564Z" fill="white"/>
<path d="M134.967 58.8052C134.659 58.8052 134.358 58.7895 134.071 58.7626C133.066 58.6654 132.174 58.4927 131.419 58.2564C130.538 57.9888 129.748 57.6284 129.079 57.1842C128.564 56.8979 128.418 56.4732 128.382 56.2407C128.354 56.0874 128.344 55.9506 128.344 55.8422C128.344 55.5296 128.449 55.2351 128.642 54.9965C128.82 54.7438 129.191 54.3977 129.903 54.3977C130.013 54.3977 130.124 54.4171 130.23 54.4522L130.513 54.5442C130.57 54.5629 130.629 54.5861 130.681 54.6152C131.559 55.0885 132.369 55.407 133.093 55.5543C134.715 55.8848 135.819 55.8347 136.773 55.591C137.709 55.3853 138.498 55.1035 139.154 54.7386C139.832 54.3618 140.431 53.9423 140.932 53.4855C141.422 53.0444 141.828 52.5696 142.137 52.0791C142.47 51.5505 142.756 51.0219 142.987 50.512C143.484 49.3643 143.741 48.082 143.741 46.7153V31.0111C143.741 29.9142 143.583 28.8458 143.27 27.8364C143.013 26.9631 142.581 26.0667 141.984 25.1523C141.422 24.2924 140.576 23.5403 139.474 22.9137C138.604 22.4128 137.67 22.0651 136.689 21.8737C135.864 21.7077 134.864 21.6831 133.737 21.7952C132.665 21.9006 131.515 22.3328 130.314 23.079C129.605 23.5373 128.938 24.1257 128.353 24.8151C127.845 25.399 127.376 26.1497 126.95 27.0461C126.541 27.9007 126.323 28.9639 126.295 30.1991V30.3157C126.295 31.3744 126.436 32.3135 126.711 33.1143C126.99 33.9315 127.342 34.65 127.759 35.2519C128.163 35.8373 128.632 36.3338 129.151 36.7301C129.71 37.1532 130.275 37.5084 130.834 37.7828C132.175 38.4602 133.709 38.8415 135.399 38.9275H135.402C136.228 38.9275 136.636 39.3813 136.801 39.6535C136.958 39.8852 137.043 40.1439 137.043 40.4153C137.043 41.1017 136.663 41.6498 136.051 41.8524C135.854 41.9182 135.665 41.9518 135.487 41.9518C133.917 41.8845 132.554 41.6685 131.393 41.3006C130.23 40.9357 129.201 40.4699 128.327 39.9107C127.439 39.3424 126.688 38.6882 126.09 37.9562C125.517 37.2602 125.036 36.5499 124.662 35.8403C123.775 34.1595 123.309 32.2455 123.278 30.1468C123.309 28.8907 123.534 27.6936 123.946 26.5467C124.284 25.5747 124.831 24.5422 125.57 23.4805C126.339 22.3761 127.439 21.3907 128.844 20.5451C129.927 19.8782 131.119 19.3824 132.377 19.0804C133.476 18.8105 134.739 18.7215 136.148 18.8217C137.589 18.9256 139.144 19.4161 140.769 20.2864C141.906 20.9847 142.895 21.8109 143.773 22.7739C144.537 23.6704 145.216 24.7553 145.798 26.0241C146.406 27.343 146.713 28.9422 146.713 30.7793L146.807 46.1067C146.807 46.7399 146.772 47.3284 146.703 47.86C146.639 48.3669 146.575 48.8252 146.511 49.2327C146.409 49.7531 146.315 50.1965 146.217 50.6054C145.759 52.2787 145.046 53.6283 144.093 54.6593C143.18 55.6425 142.218 56.4291 141.223 57.0048C140.119 57.6665 138.889 58.1727 137.575 58.5032C136.626 58.7088 135.762 58.8052 134.967 58.8052Z" fill="white"/>
<path d="M161.386 41.9564C161.266 41.9564 161.15 41.9564 161.032 41.9519C159.998 41.9183 159.043 41.7815 158.2 41.5414C157.358 41.3067 156.587 40.9941 155.909 40.6143C155.254 40.2495 154.662 39.8622 154.15 39.4562C152.934 38.4648 151.961 37.2453 151.24 35.8247C150.773 34.9716 150.439 34.0968 150.26 33.2602C150.098 32.4848 149.981 31.7813 149.917 31.1644C149.846 30.4138 149.865 29.7087 149.963 29.0545C150.038 27.6107 150.406 26.229 151.054 24.9453C151.331 24.4032 151.685 23.8387 152.109 23.269C152.551 22.676 153.1 22.1138 153.747 21.5994C154.378 21.0947 155.121 20.6184 155.965 20.1863C156.815 19.7481 157.81 19.393 158.919 19.1276C159.489 19.0207 160.052 18.9392 160.645 18.8749C161.144 18.8061 161.712 18.7799 162.316 18.8001C162.931 18.8165 163.545 18.8935 164.142 19.0326C164.221 19.0498 164.297 19.079 164.366 19.1111C166.484 19.6502 168.194 20.531 169.44 21.7295C170.669 22.9063 171.589 24.1393 172.172 25.3954C172.847 26.8234 173.257 28.3726 173.392 30.004C173.393 30.0302 173.393 30.0579 173.393 30.084C173.393 30.7151 173.014 31.2287 172.4 31.4321C172.205 31.4949 172 31.5271 171.792 31.5271H156.774C156.231 31.5271 155.766 31.3005 155.477 30.8975C155.276 30.6597 155.168 30.3584 155.168 30.0392C155.168 29.9921 155.171 29.9442 155.179 29.8971C155.259 29.3304 155.583 28.8892 156.068 28.6806C156.265 28.5917 156.486 28.5476 156.727 28.5476L170.129 28.5042C170.128 28.4877 170.121 28.4705 170.12 28.4526C169.813 27.2219 169.37 26.1969 168.811 25.426C168.228 24.6327 167.62 23.983 166.999 23.5082C166.379 23.0297 165.804 22.6903 165.294 22.4936C164.684 22.2656 164.375 22.1587 164.22 22.1108C164.112 22.0936 164.004 22.0682 163.903 22.0278L163.418 21.9097C163.203 21.8566 162.773 21.7811 161.938 21.7295C161.294 21.6876 160.547 21.7676 159.676 21.959C158.487 22.2611 157.399 22.7403 156.476 23.3751C155.657 23.9336 154.877 24.691 154.15 25.6331C153.479 26.5064 153.084 27.669 152.975 29.0986C152.894 30.5498 153.063 31.9502 153.491 33.24C153.667 33.8135 153.895 34.363 154.19 34.9013C154.476 35.4232 154.849 35.9271 155.3 36.3982C155.752 36.8715 156.311 37.3141 156.963 37.7111C157.605 38.1014 158.386 38.4109 159.278 38.633C159.851 38.7713 160.433 38.8752 161.006 38.9335C161.5 38.9889 161.986 38.9934 162.509 38.9507C162.959 38.9164 163.359 38.8064 163.7 38.63C164.456 38.2591 165.334 38.5276 165.732 39.3104C165.902 39.6506 165.943 40.0199 165.855 40.3811C165.848 40.4117 165.841 40.4379 165.83 40.4685C165.747 40.7123 165.606 40.9313 165.417 41.1198C165.195 41.3388 164.892 41.4861 164.439 41.596C163.344 41.8383 162.326 41.9564 161.386 41.9564Z" fill="white"/>
<path d="M199.197 41.9525C198.826 41.9525 198.479 41.8112 198.223 41.5525C197.904 41.243 197.732 40.8459 197.732 40.416V29.8536C197.732 29.8394 197.73 29.8177 197.726 29.7908C197.702 29.6697 197.693 29.5269 197.688 29.3504C197.657 29.1717 197.639 29.0087 197.639 28.8562V28.7283C197.579 28.3597 197.501 27.941 197.401 27.4663C197.305 27.0005 197.148 26.4965 196.939 25.9679C196.73 25.4483 196.455 24.9242 196.117 24.4127C195.798 23.9238 195.404 23.4624 194.947 23.031C194.429 22.625 194.146 22.4314 193.996 22.3379C193.965 22.317 193.93 22.2953 193.904 22.2721C193.781 22.2482 193.637 22.1742 193.534 22.1099C192.718 21.6104 191.911 21.2538 191.136 21.0497C189.566 20.6332 188.268 20.6332 186.7 21.0497C185.922 21.2538 185.093 21.6134 184.243 22.1189C183.874 22.3536 183.468 22.652 183.071 22.9907C182.757 23.274 182.399 23.6576 182.031 24.1062C181.671 24.5443 181.333 25.0714 181.026 25.6786C180.735 26.3328 180.513 27.0109 180.39 27.6412C180.26 28.3014 180.162 28.8495 180.102 29.2741V40.416C180.102 40.8235 179.976 41.1555 179.726 41.4007L179.561 41.5585C179.307 41.8127 178.979 41.9525 178.641 41.9525C177.904 41.9525 177.34 41.5876 177.136 40.9715C177.067 40.7727 177.037 40.5551 177.037 40.3241L177.083 29.8027C177.083 27.9979 177.398 26.4031 178.025 25.0685C178.622 23.7877 179.305 22.6968 180.051 21.825C180.941 20.8104 181.944 19.9745 183.037 19.3368C184.117 18.7513 185.144 18.3498 186.13 18.1278C187.091 17.9132 188.024 17.8182 188.918 17.8489C189.804 17.8182 190.739 17.9132 191.689 18.1293C192.652 18.3498 193.674 18.7528 194.723 19.3181C195.845 19.9745 196.846 20.8104 197.73 21.8146C198.486 22.6968 199.168 23.7862 199.766 25.0685C200.388 26.4031 200.708 27.9979 200.708 29.8057L200.8 40.3143C200.8 40.5551 200.764 40.7727 200.7 40.9701C200.492 41.5876 199.929 41.9525 199.197 41.9525Z" fill="white"/>
<path d="M39.0631 41.9069C38.8033 41.9069 38.5495 41.8515 38.3071 41.7446C37.1632 41.3857 36.1429 40.9356 35.2801 40.41C34.4021 39.8769 33.6256 39.2795 32.978 38.6403C32.3273 38.0003 31.7811 37.3318 31.3501 36.65C30.9213 35.9763 30.5827 35.3034 30.3411 34.6551C29.7388 33.1695 29.4464 31.5545 29.4805 29.8752V18.9666C29.4805 18.536 29.6502 18.142 29.9706 17.8249C30.0524 17.7449 30.1456 17.6791 30.2448 17.629C30.3426 17.5827 30.466 17.5311 30.6092 17.4847C30.7584 17.4354 30.9153 17.4204 31.0736 17.4361C31.925 17.5446 32.2545 18.056 32.3773 18.3506C32.4674 18.6137 32.5015 18.7932 32.5015 18.9666V29.8999C32.4712 30.9168 32.5485 31.8013 32.7295 32.5579C32.9113 33.319 33.1628 33.9994 33.4794 34.5789C33.7953 35.1673 34.1567 35.6832 34.5521 36.1109C34.9657 36.564 35.3899 36.9625 35.8164 37.2967C36.8087 38.0324 37.9904 38.6006 39.2994 38.964C40.0766 39.1569 40.3698 39.693 40.4721 39.9966C40.5865 40.3382 40.5584 40.6246 40.4895 40.8332C40.335 41.4807 39.7774 41.9069 39.0631 41.9069Z" fill="white"/>
<path d="M55.0194 33.1176C54.3058 33.1176 53.662 32.8522 53.1559 32.3543C52.6522 31.8571 52.3825 31.2208 52.3825 30.518C52.3825 29.8144 52.6522 29.1774 53.1559 28.6794C53.665 28.18 54.3074 27.9146 55.0194 27.9146C55.73 27.9146 56.3739 28.1792 56.8814 28.6772C57.3882 29.1804 57.6548 29.8174 57.6548 30.518C57.6548 31.2193 57.3882 31.8548 56.8814 32.3543C56.3754 32.856 55.73 33.1176 55.0194 33.1176Z" fill="#79B242"/>
<path d="M30.9895 13.1869C30.2759 13.1869 29.632 12.9223 29.1275 12.4221C28.6215 11.9264 28.3518 11.2886 28.3518 10.5858C28.3518 9.8837 28.6215 9.24594 29.1275 8.74649C29.6343 8.24704 30.2774 7.98535 30.9895 7.98535C31.697 7.98535 32.3401 8.24704 32.8499 8.74499C33.359 9.24818 33.6249 9.8837 33.6249 10.5858C33.6249 11.2871 33.359 11.9256 32.853 12.4221C32.3454 12.9223 31.7 13.1869 30.9895 13.1869Z" fill="#79B242"/>
<g opacity="0.8">
<path d="M221.46 44.6775C229.12 44.6775 235.329 38.5503 235.329 30.9883C235.329 23.427 229.12 17.2983 221.46 17.2983C213.799 17.2983 207.589 23.427 207.589 30.9883C207.589 38.5503 213.799 44.6775 221.46 44.6775Z" fill="#ADD365"/>
</g>
<g opacity="0.8">
<path d="M245.348 44.6775C253.008 44.6775 259.22 38.5503 259.22 30.9883C259.22 23.427 253.008 17.2983 245.348 17.2983C237.688 17.2983 231.477 23.427 231.477 30.9883C231.477 38.5503 237.688 44.6775 245.348 44.6775Z" fill="#79B242"/>
</g>
<g opacity="0.8">
<path d="M269.231 44.6775C276.893 44.6775 283.102 38.5503 283.102 30.9883C283.102 23.427 276.893 17.2983 269.231 17.2983C261.572 17.2983 255.36 23.427 255.36 30.9883C255.36 38.5503 261.572 44.6775 269.231 44.6775Z" fill="#48A948"/>
</g>
</svg>
