<?xml version="1.0" encoding="utf-8"?>
<svg version="1.1" viewBox="-190 -190 874 874" >


	<g class='bm_icon_hoverable' fill="#45C4D1">
		<g class='bm_shadow_hoverable' fill-opacity="0.08" fill="rgb(1,1,1)" stroke="rgb(1,1,1)" stroke-opacity="0.08" style="display: block;">
			<!-- start shadow -->
						<path  d="M328,440v-16c4.7,0,9.4-0.7,13.9-2l4.6,15.3C340.5,439.1,334.3,440,328,440L328,440z"/>
<path  d="M363.3,429.4l-8.8-13.3c13.5-9,21.5-23.9,21.5-40.1c0-26.5-21.5-48-48-48v-16c35.3,0,64,28.7,64,64
	C392,397.5,381.3,417.5,363.3,429.4z"/>
<path  d="M224,120c-22.1,0-40-17.9-40-40s17.9-40,40-40s40,17.9,40,40S246.1,120,224,120z M224,56
	c-13.2,0-24,10.8-24,24s10.8,24,24,24s24-10.8,24-24S237.2,56,224,56z"/>
<path opacity="0.1"  enable-background="new    " d="M304,48h48v128h-48V48z"/>
<path  d="M304,72h48v16h-48V72z"/>
<path  d="M304,104h48v16h-48V104z"/>
<path  d="M304,136h48v16h-48V136z"/>
<path  d="M224,104c-35.3,0-64,28.7-64,64v16h128v-16C288,132.7,259.3,104,224,104z M176,168c0-26.5,21.5-48,48-48
	s48,21.5,48,48H176z"/>
<path  d="M160,320h66.5v-16H176v-88h160v41.1h16V200H160V320z"/>
<path  d="M384,57.9V8H128v49.9L6.5,83.7L60.1,336H48c-22.1,0-40,17.9-40,40s17.9,40,40,40h120v-16h41.2v-16H168v-16
	h41.2v-16H168v-16h-24V24h224v242h16V74.3l102.5,21.8l-50.3,236.6l-1.5,6.8l15.6,3.5l55.2-259.3L384,57.9z M93.4,194.1
	c7-10.8,17.7-18.1,30.3-20.8c1.4-0.3,2.8-0.5,4.3-0.6v48.8l-41.3,8.8C84.1,217.7,86.4,204.9,93.4,194.1L93.4,194.1z M102.3,154.3
	c-5.4-3.5-9.1-8.9-10.4-15.1c-1.3-6.3-0.2-12.7,3.3-18.1s8.9-9.1,15.1-10.4c6.1-1.3,12.3,0,17.6,3.4v40.2c-2.4,1.6-4.9,2.8-7.6,3.4
	C114.1,159,107.7,157.8,102.3,154.3z M25.5,96.1L128,74.3v22.1c-6.7-2.3-13.9-2.8-20.9-1.3c-10.4,2.2-19.4,8.4-25.2,17.3
	s-7.8,19.7-5.6,30.1c2.2,10.5,8.4,19.4,17.3,25.2c0.7,0.4,1.4,0.7,2,1.1c-6.1,4.5-11.4,10-15.6,16.6c-9.3,14.3-12.5,31.4-8.9,48.2
	l3.3,15.7l53.6-11.4v16.4L77.7,265l15.1,71H76.5L25.5,96.1z M152,400H48c-13.2,0-24-10.8-24-24s10.8-24,24-24h104V400z M109.2,336
	l-12.5-58.8l31.3-6.6V336H109.2z"/>
<path  d="M304,168h48v16h-48V168z"/>
<path opacity="0.1"  enable-background="new    " d="M392.3,231.5l26.6-125.2l46.9,10l-26.6,125.2L392.3,231.5z"/>
<path  d="M417.3,114.1l3.3-15.6l46.9,10l-3.3,15.6L417.3,114.1z"/>
<path  d="M410.6,145.4l3.3-15.6l46.9,10l-3.3,15.6L410.6,145.4z"/>
<path  d="M404,176.7l3.3-15.6l46.9,10l-3.3,15.6L404,176.7z"/>
<path  d="M397.3,208l3.3-15.6l46.9,10l-3.3,15.6L397.3,208z"/>
<path  d="M390.6,239.3l3.3-15.6l46.9,10l-3.3,15.6L390.6,239.3z"/>
<path opacity="0.1"  enable-background="new    " d="M328,504c-70.6,0-128-57.4-128-128s57.4-128,128-128
	s128,57.4,128,128S398.6,504,328,504z M328,288c-48.5,0-88,39.5-88,88s39.5,88,88,88s88-39.5,88-88S376.5,288,328,288z"/>
<path  d="M328,472c-52.9,0-96-43.1-96-96s43.1-96,96-96s96,43.1,96,96S380.9,472,328,472z M328,296
	c-44.1,0-80,35.9-80,80s35.9,80,80,80s80-35.9,80-80S372.1,296,328,296z"/>
			<!-- end shadow -->
		</g>
    <!-- start icon -->
						<path  d="M328,440v-16c4.7,0,9.4-0.7,13.9-2l4.6,15.3C340.5,439.1,334.3,440,328,440L328,440z"/>
<path  d="M363.3,429.4l-8.8-13.3c13.5-9,21.5-23.9,21.5-40.1c0-26.5-21.5-48-48-48v-16c35.3,0,64,28.7,64,64
	C392,397.5,381.3,417.5,363.3,429.4z"/>
<path  d="M224,120c-22.1,0-40-17.9-40-40s17.9-40,40-40s40,17.9,40,40S246.1,120,224,120z M224,56
	c-13.2,0-24,10.8-24,24s10.8,24,24,24s24-10.8,24-24S237.2,56,224,56z"/>
<path opacity="0.1"  enable-background="new    " d="M304,48h48v128h-48V48z"/>
<path  d="M304,72h48v16h-48V72z"/>
<path  d="M304,104h48v16h-48V104z"/>
<path  d="M304,136h48v16h-48V136z"/>
<path  d="M224,104c-35.3,0-64,28.7-64,64v16h128v-16C288,132.7,259.3,104,224,104z M176,168c0-26.5,21.5-48,48-48
	s48,21.5,48,48H176z"/>
<path  d="M160,320h66.5v-16H176v-88h160v41.1h16V200H160V320z"/>
<path  d="M384,57.9V8H128v49.9L6.5,83.7L60.1,336H48c-22.1,0-40,17.9-40,40s17.9,40,40,40h120v-16h41.2v-16H168v-16
	h41.2v-16H168v-16h-24V24h224v242h16V74.3l102.5,21.8l-50.3,236.6l-1.5,6.8l15.6,3.5l55.2-259.3L384,57.9z M93.4,194.1
	c7-10.8,17.7-18.1,30.3-20.8c1.4-0.3,2.8-0.5,4.3-0.6v48.8l-41.3,8.8C84.1,217.7,86.4,204.9,93.4,194.1L93.4,194.1z M102.3,154.3
	c-5.4-3.5-9.1-8.9-10.4-15.1c-1.3-6.3-0.2-12.7,3.3-18.1s8.9-9.1,15.1-10.4c6.1-1.3,12.3,0,17.6,3.4v40.2c-2.4,1.6-4.9,2.8-7.6,3.4
	C114.1,159,107.7,157.8,102.3,154.3z M25.5,96.1L128,74.3v22.1c-6.7-2.3-13.9-2.8-20.9-1.3c-10.4,2.2-19.4,8.4-25.2,17.3
	s-7.8,19.7-5.6,30.1c2.2,10.5,8.4,19.4,17.3,25.2c0.7,0.4,1.4,0.7,2,1.1c-6.1,4.5-11.4,10-15.6,16.6c-9.3,14.3-12.5,31.4-8.9,48.2
	l3.3,15.7l53.6-11.4v16.4L77.7,265l15.1,71H76.5L25.5,96.1z M152,400H48c-13.2,0-24-10.8-24-24s10.8-24,24-24h104V400z M109.2,336
	l-12.5-58.8l31.3-6.6V336H109.2z"/>
<path  d="M304,168h48v16h-48V168z"/>
<path opacity="0.1"  enable-background="new    " d="M392.3,231.5l26.6-125.2l46.9,10l-26.6,125.2L392.3,231.5z"/>
<path  d="M417.3,114.1l3.3-15.6l46.9,10l-3.3,15.6L417.3,114.1z"/>
<path  d="M410.6,145.4l3.3-15.6l46.9,10l-3.3,15.6L410.6,145.4z"/>
<path  d="M404,176.7l3.3-15.6l46.9,10l-3.3,15.6L404,176.7z"/>
<path  d="M397.3,208l3.3-15.6l46.9,10l-3.3,15.6L397.3,208z"/>
<path  d="M390.6,239.3l3.3-15.6l46.9,10l-3.3,15.6L390.6,239.3z"/>
<path opacity="0.1"  enable-background="new    " d="M328,504c-70.6,0-128-57.4-128-128s57.4-128,128-128
	s128,57.4,128,128S398.6,504,328,504z M328,288c-48.5,0-88,39.5-88,88s39.5,88,88,88s88-39.5,88-88S376.5,288,328,288z"/>
<path  d="M328,472c-52.9,0-96-43.1-96-96s43.1-96,96-96s96,43.1,96,96S380.9,472,328,472z M328,296
	c-44.1,0-80,35.9-80,80s35.9,80,80,80s80-35.9,80-80S372.1,296,328,296z"/>
		<!-- end icon -->
	</g>
</svg>