<?xml version="1.0" encoding="utf-8"?>
<svg version="1.1" viewBox="-190 -190 874 874" >


	<g class='bm_icon_hoverable' fill="#45C4D1">
		<g class='bm_shadow_hoverable' fill-opacity="0.08" fill="rgb(1,1,1)" stroke="rgb(1,1,1)" stroke-opacity="0.08" style="display: block;">
			<!-- start shadow -->
						<g opacity="0.1">
	<path  d="M456,192l-40,56h16v184h48V248h16L456,192z"/>
	<path  d="M48,64h32v128h48V64h32L104,0L48,64z"/>
	<path  d="M40,192L0,248h16v184h48V248h16L40,192z"/>
	<path  d="M416,192V64h32L392,0l-56,64h32v128H416z"/>
</g>
<path opacity="0.1" fill="#45C3D0" enable-background="new    " d="M104,448h16v16h-16V448z"/>
<path opacity="0.1" fill="#45C3D0" enable-background="new    " d="M136,448h16v16h-16V448z"/>
<path opacity="0.1" fill="#45C3D0" enable-background="new    " d="M168,448h16v16h-16V448z"/>
<path  d="M408,368h-16v-48h-32v-56.2c0-17.8-11.5-33.2-28.5-38.3L280,210v-12.2c14.5-10.1,24-26.9,24-45.9v-24
	c0-30.9-25.1-56-56-56s-56,25.1-56,56v24c0,19,9.5,35.8,24,45.9V210l-51.5,15.4c-17,5.1-28.5,20.5-28.5,38.3V320h-32v48H88v48H72v80
	h352v-80h-16V368z M208,152v-24c0-22.1,17.9-40,40-40s40,17.9,40,40v24c0,22.1-17.9,40-40,40S208,174.1,208,152z M248,208
	c5.6,0,10.9-0.8,16-2.4v8.2c-2,3.1-7.5,10.2-16,10.2s-14-7.1-16-10.2v-8.2C237.1,207.2,242.4,208,248,208z M152,263.8
	c0-10.7,6.9-19.9,17.1-23l51.5-15.5c4.7,6,13.7,14.6,27.4,14.6c13.7,0,22.7-8.6,27.4-14.6l51.5,15.5c10.2,3.1,17.1,12.3,17.1,23V320
	h-32v-56h-16v56h-96v-56h-16v56h-32V263.8z M120,336h256v32H120V336z M104,384h288v32H104V384z M408,480H88v-48h320V480z"/>
<path  d="M96,128h16v16H96V128z"/>
<path  d="M96,160h16v16H96V160z"/>
<path  d="M448,400h16v16h-16V400z"/>
<path  d="M448,368h16v16h-16V368z"/>
<path  d="M32,400h16v16H32V400z"/>
<path  d="M32,368h16v16H32V368z"/>
<path  d="M384,128h16v16h-16V128z"/>
<path  d="M384,160h16v16h-16V160z"/>
			<!-- end shadow -->
		</g>
    <!-- start icon -->
						<g opacity="0.1">
	<path  d="M456,192l-40,56h16v184h48V248h16L456,192z"/>
	<path  d="M48,64h32v128h48V64h32L104,0L48,64z"/>
	<path  d="M40,192L0,248h16v184h48V248h16L40,192z"/>
	<path  d="M416,192V64h32L392,0l-56,64h32v128H416z"/>
</g>
<path opacity="0.1" fill="#45C3D0" enable-background="new    " d="M104,448h16v16h-16V448z"/>
<path opacity="0.1" fill="#45C3D0" enable-background="new    " d="M136,448h16v16h-16V448z"/>
<path opacity="0.1" fill="#45C3D0" enable-background="new    " d="M168,448h16v16h-16V448z"/>
<path  d="M408,368h-16v-48h-32v-56.2c0-17.8-11.5-33.2-28.5-38.3L280,210v-12.2c14.5-10.1,24-26.9,24-45.9v-24
	c0-30.9-25.1-56-56-56s-56,25.1-56,56v24c0,19,9.5,35.8,24,45.9V210l-51.5,15.4c-17,5.1-28.5,20.5-28.5,38.3V320h-32v48H88v48H72v80
	h352v-80h-16V368z M208,152v-24c0-22.1,17.9-40,40-40s40,17.9,40,40v24c0,22.1-17.9,40-40,40S208,174.1,208,152z M248,208
	c5.6,0,10.9-0.8,16-2.4v8.2c-2,3.1-7.5,10.2-16,10.2s-14-7.1-16-10.2v-8.2C237.1,207.2,242.4,208,248,208z M152,263.8
	c0-10.7,6.9-19.9,17.1-23l51.5-15.5c4.7,6,13.7,14.6,27.4,14.6c13.7,0,22.7-8.6,27.4-14.6l51.5,15.5c10.2,3.1,17.1,12.3,17.1,23V320
	h-32v-56h-16v56h-96v-56h-16v56h-32V263.8z M120,336h256v32H120V336z M104,384h288v32H104V384z M408,480H88v-48h320V480z"/>
<path  d="M96,128h16v16H96V128z"/>
<path  d="M96,160h16v16H96V160z"/>
<path  d="M448,400h16v16h-16V400z"/>
<path  d="M448,368h16v16h-16V368z"/>
<path  d="M32,400h16v16H32V400z"/>
<path  d="M32,368h16v16H32V368z"/>
<path  d="M384,128h16v16h-16V128z"/>
<path  d="M384,160h16v16h-16V160z"/>
		<!-- end icon -->
	</g>
</svg>