<?xml version="1.0" encoding="utf-8"?>
<svg version="1.1" viewBox="-190 -190 874 874" >


	<g class='bm_icon_hoverable' fill="#45C4D1">
		<g class='bm_shadow_hoverable' fill-opacity="0.08" fill="rgb(1,1,1)" stroke="rgb(1,1,1)" stroke-opacity="0.08" style="display: block;">
			<!-- start shadow -->
													<path  d="M449.6,170.4l-14.9,5.8c8.9,23,13.4,47.2,13.4,71.8s-4.5,48.8-13.4,71.8l14.9,5.8
								c9.6-24.8,14.4-50.9,14.4-77.6S459.2,195.2,449.6,170.4z"/>
							<g opacity="0.1">
								<path  d="M213.4,200.7c-2.9,4.4-7.8,7.3-13.4,7.3c-8.8,0-16-7.2-16-16c0-8.1,6.1-14.8,13.9-15.8
									C177.4,151.6,146.5,136,112,136C50.1,136,0,186.1,0,248s50.1,112,112,112s112-50.1,112-112C224,231.1,220.1,215.1,213.4,200.7z"/>
								<path  d="M400,0c-53,0-96,43-96,96c0,45,31.1,82.7,72.9,93.1c-0.5-1.6-0.9-3.3-0.9-5.1c0-8.8,7.2-16,16-16
									s16,7.2,16,16c0,2.8-0.8,5.4-2.1,7.7C456.2,188.6,496,147,496,96C496,43,453,0,400,0z"/>
								<path  d="M400,304c-32.2,0-60.6,15.9-78,40.2c7.9,1,14,7.6,14,15.8c0,8.8-7.2,16-16,16c-4.5,0-8.6-1.9-11.5-5
									c-2.9,9.1-4.5,18.9-4.5,29c0,53,43,96,96,96s96-43,96-96S453,304,400,304z"/>
							</g>
							<path  d="M376,240h16v16h-16V240z"/>
							<path  d="M408,240h16v16h-16V240z"/>
							<path  d="M344,240h16v16h-16V240z"/>
							<path  d="M176,296c0-26.7-16.5-49.7-39.9-59.2c4.8-5.6,7.9-12.8,7.9-20.8v-16c0-17.6-14.4-32-32-32s-32,14.4-32,32v16
								c0,8,3,15.2,7.9,20.8C64.5,246.3,48,269.3,48,296v16h128V296z M96,200c0-8.8,7.2-16,16-16s16,7.2,16,16v16c0,8.8-7.2,16-16,16
								s-16-7.2-16-16V200z M64,296c0-26.5,21.5-48,48-48s48,21.5,48,48H64z"/>
							<path  d="M448,128c0-18.1-10.1-33.8-24.9-42c5.5-5.7,8.9-13.5,8.9-22c0-17.6-14.4-32-32-32s-32,14.4-32,32
								c0,8.5,3.4,16.2,8.9,22c-14.8,8.2-24.9,23.9-24.9,42v16h96V128z M400,48c8.8,0,16,7.2,16,16s-7.2,16-16,16s-16-7.2-16-16
								S391.2,48,400,48z M368,128c0-17.6,14.4-32,32-32s32,14.4,32,32H368z"/>
							<path  d="M423.1,390c5.5-5.7,8.9-13.5,8.9-22c0-17.6-14.4-32-32-32s-32,14.4-32,32c0,8.5,3.4,16.2,8.9,22
								c-14.8,8.2-24.9,23.9-24.9,42v16h96v-16C448,413.9,437.9,398.2,423.1,390z M400,352c8.8,0,16,7.2,16,16s-7.2,16-16,16s-16-7.2-16-16
								S391.2,352,400,352z M368,432c0-17.6,14.4-32,32-32s32,14.4,32,32H368z"/>
							<path  d="M324.2,336.4l-16.6-99.5c7.2-4,12.2-11.6,12.4-20.4l53.2-17.7c4.4,5.6,11.2,9.3,18.8,9.3
								c13.2,0,24-10.8,24-24s-10.8-24-24-24c-13.1,0-23.7,10.5-24,23.6l-53.2,17.7c-4.4-5.6-11.2-9.3-18.8-9.3c-1.8,0-3.4,0.2-5.1,0.6
								L210.6,62.9c2.7-3.4,4.6-7.6,5.1-12.2c31.9-5.2,65.1-2.5,95.9,7.8c2.1-5,4.8-9.8,7.7-14.3C296.4,36.1,272.4,32,248,32
								c-12,0-24.1,1.1-35.9,3c-4.3-6.6-11.7-11-20.1-11c-13,0-23.6,10.4-23.9,23.3c-49,19.6-90,57.4-113.5,104.7c7.7-4.6,16-8.4,24.7-11.1
								c22.4-34.9,55.4-62.6,93.8-78.2c4.4,5.6,11.2,9.3,18.8,9.3c1.8,0,3.4-0.2,5.1-0.6l80.3,129.7c-0.4,0.6-0.9,1.1-1.3,1.7l-52.2-13.1
								c-1.2-12.1-11.3-21.7-23.8-21.7c-13.2,0-24,10.8-24,24s10.8,24,24,24c8.3,0,15.7-4.3,20-10.8l52.2,13.1c0.5,5.1,2.5,9.6,5.7,13.3
								L172.3,416.4c-1.4-0.2-2.8-0.4-4.3-0.4c-6.5,0-12.4,2.6-16.8,6.9c-29.2-16.2-54-39.7-71.9-67.8c-8.8-2.7-17-6.5-24.7-11.1
								c19.6,39.3,51.2,72.1,89.7,93.3c-0.1,0.9-0.3,1.8-0.3,2.7c0,13.2,10.8,24,24,24c7.5,0,14.2-3.6,18.6-9c19.9,5.9,40.5,9,61.4,9
								c24.4,0,48.4-4.1,71.3-12.2c-2.9-4.6-5.6-9.4-7.7-14.4c-38.6,12.9-80.8,13.7-119.6,2.4c0-5.9-2.3-11.3-5.9-15.4l105.6-184.9
								c0,0,0,0,0.1,0l16.6,99.5c-7.4,4.2-12.4,12-12.4,21c0,13.2,10.8,24,24,24s24-10.8,24-24C344,348.2,335.4,338.4,324.2,336.4z
								M168,448c-4.4,0-8-3.6-8-8s3.6-8,8-8s8,3.6,8,8S172.4,448,168,448z M392,176c4.4,0,8,3.6,8,8s-3.6,8-8,8s-8-3.6-8-8
								S387.6,176,392,176z M304,216c0,4.4-3.6,8-8,8s-8-3.6-8-8s3.6-8,8-8S304,211.6,304,216z M184,48c0-4.4,3.6-8,8-8s8,3.6,8,8
								s-3.6,8-8,8S184,52.4,184,48z M200,200c-4.4,0-8-3.6-8-8s3.6-8,8-8s8,3.6,8,8S204.4,200,200,200z M320,368c-4.4,0-8-3.6-8-8
								s3.6-8,8-8s8,3.6,8,8S324.4,368,320,368z"/>
			<!-- end shadow -->
		</g>
    <!-- start icon -->
																<path  d="M449.6,170.4l-14.9,5.8c8.9,23,13.4,47.2,13.4,71.8s-4.5,48.8-13.4,71.8l14.9,5.8
									c9.6-24.8,14.4-50.9,14.4-77.6S459.2,195.2,449.6,170.4z"/>
								<g opacity="0.1">
									<path  d="M213.4,200.7c-2.9,4.4-7.8,7.3-13.4,7.3c-8.8,0-16-7.2-16-16c0-8.1,6.1-14.8,13.9-15.8
										C177.4,151.6,146.5,136,112,136C50.1,136,0,186.1,0,248s50.1,112,112,112s112-50.1,112-112C224,231.1,220.1,215.1,213.4,200.7z"/>
									<path  d="M400,0c-53,0-96,43-96,96c0,45,31.1,82.7,72.9,93.1c-0.5-1.6-0.9-3.3-0.9-5.1c0-8.8,7.2-16,16-16
										s16,7.2,16,16c0,2.8-0.8,5.4-2.1,7.7C456.2,188.6,496,147,496,96C496,43,453,0,400,0z"/>
									<path  d="M400,304c-32.2,0-60.6,15.9-78,40.2c7.9,1,14,7.6,14,15.8c0,8.8-7.2,16-16,16c-4.5,0-8.6-1.9-11.5-5
										c-2.9,9.1-4.5,18.9-4.5,29c0,53,43,96,96,96s96-43,96-96S453,304,400,304z"/>
								</g>
								<path  d="M376,240h16v16h-16V240z"/>
								<path  d="M408,240h16v16h-16V240z"/>
								<path  d="M344,240h16v16h-16V240z"/>
								<path  d="M176,296c0-26.7-16.5-49.7-39.9-59.2c4.8-5.6,7.9-12.8,7.9-20.8v-16c0-17.6-14.4-32-32-32s-32,14.4-32,32v16
									c0,8,3,15.2,7.9,20.8C64.5,246.3,48,269.3,48,296v16h128V296z M96,200c0-8.8,7.2-16,16-16s16,7.2,16,16v16c0,8.8-7.2,16-16,16
									s-16-7.2-16-16V200z M64,296c0-26.5,21.5-48,48-48s48,21.5,48,48H64z"/>
								<path  d="M448,128c0-18.1-10.1-33.8-24.9-42c5.5-5.7,8.9-13.5,8.9-22c0-17.6-14.4-32-32-32s-32,14.4-32,32
									c0,8.5,3.4,16.2,8.9,22c-14.8,8.2-24.9,23.9-24.9,42v16h96V128z M400,48c8.8,0,16,7.2,16,16s-7.2,16-16,16s-16-7.2-16-16
									S391.2,48,400,48z M368,128c0-17.6,14.4-32,32-32s32,14.4,32,32H368z"/>
								<path  d="M423.1,390c5.5-5.7,8.9-13.5,8.9-22c0-17.6-14.4-32-32-32s-32,14.4-32,32c0,8.5,3.4,16.2,8.9,22
									c-14.8,8.2-24.9,23.9-24.9,42v16h96v-16C448,413.9,437.9,398.2,423.1,390z M400,352c8.8,0,16,7.2,16,16s-7.2,16-16,16s-16-7.2-16-16
									S391.2,352,400,352z M368,432c0-17.6,14.4-32,32-32s32,14.4,32,32H368z"/>
								<path  d="M324.2,336.4l-16.6-99.5c7.2-4,12.2-11.6,12.4-20.4l53.2-17.7c4.4,5.6,11.2,9.3,18.8,9.3
									c13.2,0,24-10.8,24-24s-10.8-24-24-24c-13.1,0-23.7,10.5-24,23.6l-53.2,17.7c-4.4-5.6-11.2-9.3-18.8-9.3c-1.8,0-3.4,0.2-5.1,0.6
									L210.6,62.9c2.7-3.4,4.6-7.6,5.1-12.2c31.9-5.2,65.1-2.5,95.9,7.8c2.1-5,4.8-9.8,7.7-14.3C296.4,36.1,272.4,32,248,32
									c-12,0-24.1,1.1-35.9,3c-4.3-6.6-11.7-11-20.1-11c-13,0-23.6,10.4-23.9,23.3c-49,19.6-90,57.4-113.5,104.7c7.7-4.6,16-8.4,24.7-11.1
									c22.4-34.9,55.4-62.6,93.8-78.2c4.4,5.6,11.2,9.3,18.8,9.3c1.8,0,3.4-0.2,5.1-0.6l80.3,129.7c-0.4,0.6-0.9,1.1-1.3,1.7l-52.2-13.1
									c-1.2-12.1-11.3-21.7-23.8-21.7c-13.2,0-24,10.8-24,24s10.8,24,24,24c8.3,0,15.7-4.3,20-10.8l52.2,13.1c0.5,5.1,2.5,9.6,5.7,13.3
									L172.3,416.4c-1.4-0.2-2.8-0.4-4.3-0.4c-6.5,0-12.4,2.6-16.8,6.9c-29.2-16.2-54-39.7-71.9-67.8c-8.8-2.7-17-6.5-24.7-11.1
									c19.6,39.3,51.2,72.1,89.7,93.3c-0.1,0.9-0.3,1.8-0.3,2.7c0,13.2,10.8,24,24,24c7.5,0,14.2-3.6,18.6-9c19.9,5.9,40.5,9,61.4,9
									c24.4,0,48.4-4.1,71.3-12.2c-2.9-4.6-5.6-9.4-7.7-14.4c-38.6,12.9-80.8,13.7-119.6,2.4c0-5.9-2.3-11.3-5.9-15.4l105.6-184.9
									c0,0,0,0,0.1,0l16.6,99.5c-7.4,4.2-12.4,12-12.4,21c0,13.2,10.8,24,24,24s24-10.8,24-24C344,348.2,335.4,338.4,324.2,336.4z
									M168,448c-4.4,0-8-3.6-8-8s3.6-8,8-8s8,3.6,8,8S172.4,448,168,448z M392,176c4.4,0,8,3.6,8,8s-3.6,8-8,8s-8-3.6-8-8
									S387.6,176,392,176z M304,216c0,4.4-3.6,8-8,8s-8-3.6-8-8s3.6-8,8-8S304,211.6,304,216z M184,48c0-4.4,3.6-8,8-8s8,3.6,8,8
									s-3.6,8-8,8S184,52.4,184,48z M200,200c-4.4,0-8-3.6-8-8s3.6-8,8-8s8,3.6,8,8S204.4,200,200,200z M320,368c-4.4,0-8-3.6-8-8
									s3.6-8,8-8s8,3.6,8,8S324.4,368,320,368z"/>
		<!-- end icon -->
	</g>
</svg>