<?xml version="1.0" encoding="utf-8"?>
<svg version="1.1" viewBox="-190 -190 874 874" >


	<g class='bm_icon_hoverable' fill="#45C4D1">
		<g class='bm_shadow_hoverable' fill-opacity="0.08" fill="rgb(1,1,1)" stroke="rgb(1,1,1)" stroke-opacity="0.08" style="display: block;">
			<!-- start shadow -->
						<path opacity="0.1"  enable-background="new    " d="M104,150.9L45.6,112H24c-13.2,0-24-10.8-24-24V24
	C0,10.8,10.8,0,24,0h128c13.2,0,24,10.8,24,24v64c0,13.2-10.8,24-24,24h-48V150.9z"/>
<path opacity="0.1"  enable-background="new    " d="M392,150.9V112h-48c-13.2,0-24-10.8-24-24V24
	c0-13.2,10.8-24,24-24h128c13.2,0,24,10.8,24,24v64c0,13.2-10.8,24-24,24h-21.6L392,150.9z"/>
<path  d="M496,304v-8c0-17.7-11.9-33.4-28.9-38.3L440,250v-2.1c10-7.5,16-19.3,16-31.8v-14.3
	c0-21.5-16-39.7-36.4-41.5c-11.2-1-22.3,2.8-30.6,10.4c-8.2,7.6-13,18.3-13,29.5v16c0,12.5,6,24.3,16,31.8v2.1l-27.1,7.7
	c-4.8,1.4-9.1,3.7-12.9,6.5V192h-80v16h64v272H160V208h64v-16h-80v72.2c-3.8-2.9-8.1-5.2-12.9-6.5L104,250v-2.1
	c10-7.5,16-19.3,16-31.8v-14.3c0-21.5-16-39.7-36.4-41.5c-11.2-1-22.3,2.8-30.6,10.4c-8.2,7.6-13,18.3-13,29.5v16
	c0,12.5,6,24.3,16,31.8v2.1l-27.1,7.7C11.9,262.6,0,278.3,0,296v8h144v120.2c-3.8-2.9-8.1-5.2-12.9-6.5L104,410v-2.1
	c10-7.5,16-19.3,16-31.8v-14.3c0-21.5-16-39.7-36.4-41.5c-11.2-1-22.3,2.8-30.6,10.4c-8.2,7.6-13,18.3-13,29.5v16
	c0,12.5,6,24.3,16,31.8v2.1l-27.1,7.7C11.9,422.6,0,438.3,0,456v8h144v32h208v-32h144v-8c0-17.7-11.9-33.4-28.9-38.3L440,410v-2.1
	c10-7.5,16-19.3,16-31.8v-14.3c0-21.5-16-39.7-36.4-41.5c-11.2-1-22.3,2.8-30.6,10.4c-8.2,7.6-13,18.3-13,29.5v16
	c0,12.5,6,24.3,16,31.8v2.1l-27.1,7.7c-4.8,1.4-9.1,3.7-12.9,6.5V304H496z M369.3,273.1L408,262v-23l-4-2.3
	c-7.5-4.4-12-12.1-12-20.6v-16c0-6.7,2.8-13.2,7.8-17.7c5-4.6,11.5-6.8,18.4-6.2c12.2,1.1,21.8,12.3,21.8,25.6V216
	c0,8.5-4.5,16.3-12,20.6l-4,2.3V262l38.7,11.1c7.5,2.1,13.3,7.8,15.9,14.9H353.4C355.9,280.9,361.8,275.2,369.3,273.1z M17.4,288
	c2.5-7.1,8.4-12.8,15.9-14.9L72,262v-23l-4-2.3c-7.5-4.4-12-12.1-12-20.6v-16c0-6.7,2.8-13.2,7.8-17.7c5-4.6,11.5-6.8,18.4-6.2
	c12.2,1.1,21.8,12.3,21.8,25.6V216c0,8.5-4.5,16.3-12,20.6l-4,2.3V262l38.7,11.1c7.5,2.1,13.3,7.8,15.9,14.9H17.4z M17.4,448
	c2.5-7.1,8.4-12.8,15.9-14.9L72,422v-23l-4-2.3c-7.5-4.4-12-12.1-12-20.6v-16c0-6.7,2.8-13.2,7.8-17.7c5-4.6,11.5-6.8,18.4-6.2
	c12.2,1.1,21.8,12.3,21.8,25.6V376c0,8.5-4.5,16.3-12,20.6l-4,2.3V422l38.7,11.1c7.5,2.1,13.3,7.8,15.9,14.9H17.4z M369.3,433.1
	L408,422v-23l-4-2.3c-7.5-4.4-12-12.1-12-20.6v-16c0-6.7,2.8-13.2,7.8-17.7c5-4.6,11.5-6.8,18.4-6.2c12.2,1.1,21.8,12.3,21.8,25.6
	V376c0,8.5-4.5,16.3-12,20.6l-4,2.3V422l38.7,11.1c7.5,2.1,13.3,7.8,15.9,14.9H353.4C355.9,440.9,361.8,435.2,369.3,433.1z"/>
<path  d="M32,32h112v16H32V32z"/>
<path  d="M128,64h16v16h-16V64z"/>
<path  d="M32,64h80v16H32V64z"/>
<path  d="M352,32h112v16H352V32z"/>
<path  d="M352,64h80v16h-80V64z"/>
<path  d="M448,64h16v16h-16V64z"/>
<path  d="M240,174.9V224h-16c-13.2,0-24,10.8-24,24v24h96v-24c0-13.2-10.8-24-24-24h-16v-49.1
	c8.3-2.2,15.3-7.6,19.6-14.9H328v-24c0-17.7-11.9-33.4-28.9-38.3L272,90v-2.1c10-7.5,16-19.3,16-31.8V41.7c0-21.5-16-39.7-36.4-41.5
	c-11.2-1-22.3,2.8-30.6,10.4c-8.2,7.6-13,18.3-13,29.5v16c0,12.5,6,24.3,16,31.8V90l-27.1,7.7c-17,4.9-28.9,20.6-28.9,38.3v24h52.4
	C224.7,167.3,231.7,172.7,240,174.9z M280,248v8h-64v-8c0-4.4,3.6-8,8-8h48C276.4,240,280,243.6,280,248z M248,160
	c-8.8,0-16-7.2-16-16s7.2-16,16-16c8.8,0,16,7.2,16,16S256.8,160,248,160z M184,144v-8c0-10.6,7.1-20,17.3-22.9L240,102V79l-4-2.3
	c-7.5-4.4-12-12.1-12-20.6V40c0-6.7,2.8-13.2,7.8-17.7c5-4.6,11.5-6.8,18.4-6.2c12.2,1.1,21.8,12.3,21.8,25.6V56
	c0,8.5-4.5,16.3-12,20.6l-4,2.3V102l38.7,11.1C304.9,116,312,125.4,312,136v8h-32c0-17.6-14.4-32-32-32s-32,14.4-32,32H184z"/>
<g opacity="0.1">
	<path  d="M320,336h-64v-48h64V336z"/>
	<path  d="M240,336h-64v-48h64V336z"/>
	<path  d="M320,464h-64v-48h64V464z"/>
	<path  d="M240,464h-64v-48h64V464z"/>
</g>
			<!-- end shadow -->
		</g>
    <!-- start icon -->
						<path opacity="0.1"  enable-background="new    " d="M104,150.9L45.6,112H24c-13.2,0-24-10.8-24-24V24
	C0,10.8,10.8,0,24,0h128c13.2,0,24,10.8,24,24v64c0,13.2-10.8,24-24,24h-48V150.9z"/>
<path opacity="0.1"  enable-background="new    " d="M392,150.9V112h-48c-13.2,0-24-10.8-24-24V24
	c0-13.2,10.8-24,24-24h128c13.2,0,24,10.8,24,24v64c0,13.2-10.8,24-24,24h-21.6L392,150.9z"/>
<path  d="M496,304v-8c0-17.7-11.9-33.4-28.9-38.3L440,250v-2.1c10-7.5,16-19.3,16-31.8v-14.3
	c0-21.5-16-39.7-36.4-41.5c-11.2-1-22.3,2.8-30.6,10.4c-8.2,7.6-13,18.3-13,29.5v16c0,12.5,6,24.3,16,31.8v2.1l-27.1,7.7
	c-4.8,1.4-9.1,3.7-12.9,6.5V192h-80v16h64v272H160V208h64v-16h-80v72.2c-3.8-2.9-8.1-5.2-12.9-6.5L104,250v-2.1
	c10-7.5,16-19.3,16-31.8v-14.3c0-21.5-16-39.7-36.4-41.5c-11.2-1-22.3,2.8-30.6,10.4c-8.2,7.6-13,18.3-13,29.5v16
	c0,12.5,6,24.3,16,31.8v2.1l-27.1,7.7C11.9,262.6,0,278.3,0,296v8h144v120.2c-3.8-2.9-8.1-5.2-12.9-6.5L104,410v-2.1
	c10-7.5,16-19.3,16-31.8v-14.3c0-21.5-16-39.7-36.4-41.5c-11.2-1-22.3,2.8-30.6,10.4c-8.2,7.6-13,18.3-13,29.5v16
	c0,12.5,6,24.3,16,31.8v2.1l-27.1,7.7C11.9,422.6,0,438.3,0,456v8h144v32h208v-32h144v-8c0-17.7-11.9-33.4-28.9-38.3L440,410v-2.1
	c10-7.5,16-19.3,16-31.8v-14.3c0-21.5-16-39.7-36.4-41.5c-11.2-1-22.3,2.8-30.6,10.4c-8.2,7.6-13,18.3-13,29.5v16
	c0,12.5,6,24.3,16,31.8v2.1l-27.1,7.7c-4.8,1.4-9.1,3.7-12.9,6.5V304H496z M369.3,273.1L408,262v-23l-4-2.3
	c-7.5-4.4-12-12.1-12-20.6v-16c0-6.7,2.8-13.2,7.8-17.7c5-4.6,11.5-6.8,18.4-6.2c12.2,1.1,21.8,12.3,21.8,25.6V216
	c0,8.5-4.5,16.3-12,20.6l-4,2.3V262l38.7,11.1c7.5,2.1,13.3,7.8,15.9,14.9H353.4C355.9,280.9,361.8,275.2,369.3,273.1z M17.4,288
	c2.5-7.1,8.4-12.8,15.9-14.9L72,262v-23l-4-2.3c-7.5-4.4-12-12.1-12-20.6v-16c0-6.7,2.8-13.2,7.8-17.7c5-4.6,11.5-6.8,18.4-6.2
	c12.2,1.1,21.8,12.3,21.8,25.6V216c0,8.5-4.5,16.3-12,20.6l-4,2.3V262l38.7,11.1c7.5,2.1,13.3,7.8,15.9,14.9H17.4z M17.4,448
	c2.5-7.1,8.4-12.8,15.9-14.9L72,422v-23l-4-2.3c-7.5-4.4-12-12.1-12-20.6v-16c0-6.7,2.8-13.2,7.8-17.7c5-4.6,11.5-6.8,18.4-6.2
	c12.2,1.1,21.8,12.3,21.8,25.6V376c0,8.5-4.5,16.3-12,20.6l-4,2.3V422l38.7,11.1c7.5,2.1,13.3,7.8,15.9,14.9H17.4z M369.3,433.1
	L408,422v-23l-4-2.3c-7.5-4.4-12-12.1-12-20.6v-16c0-6.7,2.8-13.2,7.8-17.7c5-4.6,11.5-6.8,18.4-6.2c12.2,1.1,21.8,12.3,21.8,25.6
	V376c0,8.5-4.5,16.3-12,20.6l-4,2.3V422l38.7,11.1c7.5,2.1,13.3,7.8,15.9,14.9H353.4C355.9,440.9,361.8,435.2,369.3,433.1z"/>
<path  d="M32,32h112v16H32V32z"/>
<path  d="M128,64h16v16h-16V64z"/>
<path  d="M32,64h80v16H32V64z"/>
<path  d="M352,32h112v16H352V32z"/>
<path  d="M352,64h80v16h-80V64z"/>
<path  d="M448,64h16v16h-16V64z"/>
<path  d="M240,174.9V224h-16c-13.2,0-24,10.8-24,24v24h96v-24c0-13.2-10.8-24-24-24h-16v-49.1
	c8.3-2.2,15.3-7.6,19.6-14.9H328v-24c0-17.7-11.9-33.4-28.9-38.3L272,90v-2.1c10-7.5,16-19.3,16-31.8V41.7c0-21.5-16-39.7-36.4-41.5
	c-11.2-1-22.3,2.8-30.6,10.4c-8.2,7.6-13,18.3-13,29.5v16c0,12.5,6,24.3,16,31.8V90l-27.1,7.7c-17,4.9-28.9,20.6-28.9,38.3v24h52.4
	C224.7,167.3,231.7,172.7,240,174.9z M280,248v8h-64v-8c0-4.4,3.6-8,8-8h48C276.4,240,280,243.6,280,248z M248,160
	c-8.8,0-16-7.2-16-16s7.2-16,16-16c8.8,0,16,7.2,16,16S256.8,160,248,160z M184,144v-8c0-10.6,7.1-20,17.3-22.9L240,102V79l-4-2.3
	c-7.5-4.4-12-12.1-12-20.6V40c0-6.7,2.8-13.2,7.8-17.7c5-4.6,11.5-6.8,18.4-6.2c12.2,1.1,21.8,12.3,21.8,25.6V56
	c0,8.5-4.5,16.3-12,20.6l-4,2.3V102l38.7,11.1C304.9,116,312,125.4,312,136v8h-32c0-17.6-14.4-32-32-32s-32,14.4-32,32H184z"/>
<g opacity="0.1">
	<path  d="M320,336h-64v-48h64V336z"/>
	<path  d="M240,336h-64v-48h64V336z"/>
	<path  d="M320,464h-64v-48h64V464z"/>
	<path  d="M240,464h-64v-48h64V464z"/>
</g>
		<!-- end icon -->
	</g>
</svg>