<?xml version="1.0" encoding="utf-8"?>
<svg version="1.1" viewBox="-190 -190 874 874" >

	<g class='bm_icon_hoverable' >
		<g class='bm_shadow_hoverable' fill-opacity="0.08" stroke="rgb(1,1,1)" stroke-opacity="0.08" style="display: block;">
			<path d="M192,208h90.3c32.9,0,63-18.6,77.7-48
				c-20.3,0-39.6-8.9-52.8-24.3l-2.6-3C289,114.5,266.2,104,242.2,104c-45.4,0-82.2,36.8-82.2,82.2V240C160,222.3,174.3,208,192,208z"
				/>
			<path d="M297.9,296H496V191.8c0-17.8-11.5-33.2-28.5-38.3L416,138v-12.2c14.5-10.1,24-26.9,24-45.9V56
				c0-30.9-25.1-56-56-56s-56,25.1-56,56v24c0,19,9.5,35.8,24,45.9V138l-21.4,6.4c-6.5-3.5-12.4-8.2-17.4-14l-2.6-3
				c-17.2-20-42.1-31.5-68.5-31.5c-34.4,0-64.3,19.3-79.5,47.7L144,138v-12.2c14.5-10.1,24-26.9,24-45.9V56c0-30.9-25.1-56-56-56
				S56,25.1,56,56v24c0,19,9.5,35.8,24,45.9V138l-51.5,15.4C11.5,158.6,0,174,0,191.8V296h198.1c2.9,3.6,6.2,7,9.9,9.9v15.8l-60.6,14
				c-25.6,5.9-43.4,28.3-43.4,54.6V496h288V390.2c0-26.2-17.8-48.7-43.4-54.6l-60.6-14v-15.8C291.6,303,295,299.6,297.9,296z M312,256
				v-38.3c8.6,3.3,15,10.8,15.9,19.9c0.7,6.9-1.5,13.5-6.1,18.5c-2.8,3-6.3,5.2-10.1,6.5C311.9,260.4,312,258.2,312,256z M462.9,168.8
				c10.2,3.1,17.1,12.3,17.1,23V280h-32v-88h-16v88H307.3c0-0.1,0.1-0.2,0.1-0.4c10-0.9,19.4-5.3,26.2-12.7
				c7.6-8.3,11.3-19.5,10.2-30.8c-1.2-12.6-8.7-23.5-19.3-30c14.5-7.2,27-18,36.3-31.7l15.6,51.9l7.7-2.3l7.7,2.3l21.7-72.3
				L462.9,168.8z M344,80V56c0-22.1,17.9-40,40-40s40,17.9,40,40v24c0,22.1-17.9,40-40,40S344,102.1,344,80z M384,136
				c5.6,0,10.9-0.8,16-2.4v9.2l-16,53.3l-16-53.3v-9.2C373.1,135.2,378.4,136,384,136z M242.2,112c21.7,0,42.2,9.4,56.3,25.9l2.6,3
				c11.8,13.8,27.9,22.7,45.5,25.8C332,187.5,308.3,200,282.3,200h-89c-9.5,0-18.3,3.3-25.4,8.7v-22.5C168,145.3,201.3,112,242.2,112z
				M184.3,262.6c-3.8-1.3-7.3-3.4-10.1-6.5c-4.6-5.1-6.8-11.6-6.1-18.5c0.9-9.1,7.3-16.6,15.9-19.9V256
				C184,258.2,184.1,260.4,184.3,262.6z M72,80V56c0-22.1,17.9-40,40-40s40,17.9,40,40v24c0,22.1-17.9,40-40,40S72,102.1,72,80z
				M112,136c5.6,0,10.9-0.8,16-2.4v9.2l-16,53.3l-16-53.3v-9.2C101.1,135.2,106.4,136,112,136z M64,280v-88H48v88H16v-88.2
				c0-10.7,6.9-19.9,17.1-23L82.6,154l21.7,72.3l7.7-2.3l7.7,2.3l21.7-72.3l15,4.5c-2.8,8.7-4.4,18-4.4,27.7V240h0.2
				c0,9.9,3.5,19.6,10.2,26.9c6.8,7.5,16.2,11.9,26.2,12.7c0,0.1,0.1,0.2,0.1,0.4H64z M200,256v-40h82.3c4.6,0,9.2-0.3,13.7-1v41
				c0,26.5-21.5,48-48,48S200,282.5,200,256z M281.8,336.6l2.4,0.6l-9,25.2L261.3,352L281.8,336.6z M211.8,337.2l2.4-0.6l20.5,15.4
				l-13.9,10.4L211.8,337.2z M376,390.2V480h-40v-88h-16v88H176v-88h-16v88h-40v-89.8c0-18.7,12.8-34.8,31-39l45.1-10.4l36.4,101.9
				l15.1-5.4l-21.1-59.1L248,362l21.6,16.2l-21.1,59.1l15.1,5.4L300,340.8l45.1,10.4C363.2,355.4,376,371.4,376,390.2z M272,324l-24,18
				l-24-18v-8.7c7.4,3,15.5,4.7,24,4.7s16.6-1.7,24-4.7V324z"/>
			<g>
				<path d="M192,432h112v48H192V432z"/>
				<path d="M80,216h64v64H80V216z"/>
				<path d="M352,216h64v64h-64V216z"/>
			</g>
		</g>
		
		<path opacity="0.1" fill="#45C4D1" d="M192,208h90.3c32.9,0,63-18.6,77.7-48
			c-20.3,0-39.6-8.9-52.8-24.3l-2.6-3C289,114.5,266.2,104,242.2,104c-45.4,0-82.2,36.8-82.2,82.2V240C160,222.3,174.3,208,192,208z"
			/>
		<path fill="#45C4D1" d="M297.9,296H496V191.8c0-17.8-11.5-33.2-28.5-38.3L416,138v-12.2c14.5-10.1,24-26.9,24-45.9V56
			c0-30.9-25.1-56-56-56s-56,25.1-56,56v24c0,19,9.5,35.8,24,45.9V138l-21.4,6.4c-6.5-3.5-12.4-8.2-17.4-14l-2.6-3
			c-17.2-20-42.1-31.5-68.5-31.5c-34.4,0-64.3,19.3-79.5,47.7L144,138v-12.2c14.5-10.1,24-26.9,24-45.9V56c0-30.9-25.1-56-56-56
			S56,25.1,56,56v24c0,19,9.5,35.8,24,45.9V138l-51.5,15.4C11.5,158.6,0,174,0,191.8V296h198.1c2.9,3.6,6.2,7,9.9,9.9v15.8l-60.6,14
			c-25.6,5.9-43.4,28.3-43.4,54.6V496h288V390.2c0-26.2-17.8-48.7-43.4-54.6l-60.6-14v-15.8C291.6,303,295,299.6,297.9,296z M312,256
			v-38.3c8.6,3.3,15,10.8,15.9,19.9c0.7,6.9-1.5,13.5-6.1,18.5c-2.8,3-6.3,5.2-10.1,6.5C311.9,260.4,312,258.2,312,256z M462.9,168.8
			c10.2,3.1,17.1,12.3,17.1,23V280h-32v-88h-16v88H307.3c0-0.1,0.1-0.2,0.1-0.4c10-0.9,19.4-5.3,26.2-12.7
			c7.6-8.3,11.3-19.5,10.2-30.8c-1.2-12.6-8.7-23.5-19.3-30c14.5-7.2,27-18,36.3-31.7l15.6,51.9l7.7-2.3l7.7,2.3l21.7-72.3
			L462.9,168.8z M344,80V56c0-22.1,17.9-40,40-40s40,17.9,40,40v24c0,22.1-17.9,40-40,40S344,102.1,344,80z M384,136
			c5.6,0,10.9-0.8,16-2.4v9.2l-16,53.3l-16-53.3v-9.2C373.1,135.2,378.4,136,384,136z M242.2,112c21.7,0,42.2,9.4,56.3,25.9l2.6,3
			c11.8,13.8,27.9,22.7,45.5,25.8C332,187.5,308.3,200,282.3,200h-89c-9.5,0-18.3,3.3-25.4,8.7v-22.5C168,145.3,201.3,112,242.2,112z
			M184.3,262.6c-3.8-1.3-7.3-3.4-10.1-6.5c-4.6-5.1-6.8-11.6-6.1-18.5c0.9-9.1,7.3-16.6,15.9-19.9V256
			C184,258.2,184.1,260.4,184.3,262.6z M72,80V56c0-22.1,17.9-40,40-40s40,17.9,40,40v24c0,22.1-17.9,40-40,40S72,102.1,72,80z
			M112,136c5.6,0,10.9-0.8,16-2.4v9.2l-16,53.3l-16-53.3v-9.2C101.1,135.2,106.4,136,112,136z M64,280v-88H48v88H16v-88.2
			c0-10.7,6.9-19.9,17.1-23L82.6,154l21.7,72.3l7.7-2.3l7.7,2.3l21.7-72.3l15,4.5c-2.8,8.7-4.4,18-4.4,27.7V240h0.2
			c0,9.9,3.5,19.6,10.2,26.9c6.8,7.5,16.2,11.9,26.2,12.7c0,0.1,0.1,0.2,0.1,0.4H64z M200,256v-40h82.3c4.6,0,9.2-0.3,13.7-1v41
			c0,26.5-21.5,48-48,48S200,282.5,200,256z M281.8,336.6l2.4,0.6l-9,25.2L261.3,352L281.8,336.6z M211.8,337.2l2.4-0.6l20.5,15.4
			l-13.9,10.4L211.8,337.2z M376,390.2V480h-40v-88h-16v88H176v-88h-16v88h-40v-89.8c0-18.7,12.8-34.8,31-39l45.1-10.4l36.4,101.9
			l15.1-5.4l-21.1-59.1L248,362l21.6,16.2l-21.1,59.1l15.1,5.4L300,340.8l45.1,10.4C363.2,355.4,376,371.4,376,390.2z M272,324l-24,18
			l-24-18v-8.7c7.4,3,15.5,4.7,24,4.7s16.6-1.7,24-4.7V324z"/>
		<g opacity="0.1">
			<path fill="#45C3D0" d="M192,432h112v48H192V432z"/>
			<path fill="#45C3D0" d="M80,216h64v64H80V216z"/>
			<path fill="#45C3D0" d="M352,216h64v64h-64V216z"/>
		</g>
	</g>
</svg>
