<svg width="56" height="56" viewBox="0 0 56 56" fill="none" xmlns="http://www.w3.org/2000/svg">
<g clip-path="url(#clip0_55_4884)">
<path d="M55.7171 21.9603C55.4387 21.578 54.9902 21.3497 54.5175 21.3497H54.2872V19.5161C54.2872 19.063 53.92 18.6958 53.4669 18.6958H52.4473L48.4739 5.43738C49.1684 5.08464 49.6464 4.36496 49.6464 3.53414C49.6464 2.35683 48.6886 1.39893 47.5112 1.39893C46.4145 1.39893 45.509 2.23039 45.3902 3.29604C42.6005 4.10639 37.0653 5.71443 31.1014 7.44758C30.4724 6.38927 29.318 5.67811 28 5.67811C26.0117 5.67811 24.3942 7.29566 24.3942 9.28388C24.3942 9.3215 24.396 9.35869 24.3971 9.39599C17.1052 11.5157 12.5295 12.8467 10.1483 13.5406C9.75655 13.0565 9.1586 12.7459 8.48868 12.7459C7.31126 12.7459 6.35346 13.7037 6.35346 14.8811C6.35346 15.7106 6.8299 16.4295 7.52268 16.7828L3.5528 30.0303H2.53332C2.08018 30.0303 1.713 30.3975 1.713 30.8507V32.6841H1.48255C1.00994 32.6841 0.561505 32.9124 0.282926 33.2946C0.00620746 33.6746 -0.0733082 34.1676 0.0704106 34.6138C1.25144 38.28 4.63452 40.7431 8.48901 40.7431C12.3433 40.7431 15.7264 38.2798 16.9075 34.6139C17.0511 34.1679 16.9718 33.6748 16.6952 33.2949C16.4166 32.9125 15.9681 32.6841 15.4954 32.6841H15.265V30.8507C15.265 30.3975 14.8978 30.0303 14.4447 30.0303H13.4251L9.45512 16.7828C10.0817 16.4633 10.5308 15.8446 10.6108 15.1151C12.9884 14.4221 17.5518 13.0945 24.8204 10.9817C25.0992 11.5018 25.5015 11.9462 25.9884 12.2747V36.7331C25.9884 37.1862 26.3555 37.5534 26.8087 37.5534C27.2618 37.5534 27.629 37.1862 27.629 36.7331V12.8707C27.751 12.8833 27.875 12.8898 28.0003 12.8898C28.1257 12.8898 28.2495 12.8832 28.3716 12.8707V46.6907H27.6291V40.0488C27.6291 39.5956 27.2619 39.2285 26.8088 39.2285C26.3556 39.2285 25.9885 39.5956 25.9885 40.0488V46.6907H12.2752C11.8221 46.6907 11.4549 47.0578 11.4549 47.511V49.4405H10.5926C10.1395 49.4405 9.7723 49.8076 9.7723 50.2608V53.7807C9.7723 54.2338 10.1395 54.601 10.5926 54.601H36.5144C36.9675 54.601 37.3347 54.2338 37.3347 53.7807C37.3347 53.3275 36.9675 52.9604 36.5144 52.9604H11.4129V51.0811H44.587V52.9604H39.83C39.3768 52.9604 39.0097 53.3275 39.0097 53.7807C39.0097 54.2338 39.3768 54.601 39.83 54.601H45.4073C45.8605 54.601 46.2277 54.2338 46.2277 53.7807V50.2608C46.2277 49.8076 45.8605 49.4405 45.4073 49.4405H44.545V47.511C44.545 47.0578 44.1779 46.6907 43.7247 46.6907H30.0119V12.2747C30.9727 11.6264 31.6057 10.5277 31.6057 9.28388C31.6057 9.19266 31.6012 9.10242 31.5945 9.01285C37.5459 7.2833 43.0653 5.67975 45.849 4.87114C46.0384 5.10619 46.2769 5.29935 46.5483 5.43727L42.5752 18.6957H41.5556C41.1025 18.6957 40.7353 19.0629 40.7353 19.516V21.3496H40.5049C40.0322 21.3496 39.5837 21.578 39.3051 21.9604C39.0285 22.3403 38.9491 22.8333 39.0928 23.2792C39.4906 24.514 40.1745 25.6703 41.0706 26.6228C41.381 26.9529 41.9002 26.9686 42.2302 26.6582C42.5603 26.3478 42.5761 25.8286 42.2657 25.4986C41.5874 24.7776 41.0586 23.9144 40.7274 22.9901H54.2956C53.2734 25.8571 50.5752 27.7678 47.5115 27.7678C46.5578 27.7678 45.63 27.5835 44.7544 27.2202C44.3357 27.046 43.8559 27.245 43.6823 27.6634C43.5086 28.0818 43.7071 28.5619 44.1255 28.7355C45.2016 29.182 46.3409 29.4084 47.5115 29.4084C51.3658 29.4084 54.7488 26.9452 55.93 23.2791C56.0734 22.8333 55.994 22.3402 55.7171 21.9603ZM8.48868 14.3868C8.76124 14.3868 8.98316 14.6086 8.98316 14.8813C8.98316 15.1539 8.76135 15.3757 8.48868 15.3757C8.21601 15.3757 7.99419 15.1539 7.99419 14.8813C7.99419 14.6086 8.21601 14.3868 8.48868 14.3868ZM15.273 34.3248C14.2508 37.1919 11.5526 39.1026 8.48879 39.1026C5.42476 39.1026 2.72647 37.1921 1.70458 34.3248H15.273ZM13.6238 31.6711V32.6841H3.35363V31.6711H13.6238ZM11.7117 30.0303H5.26551L8.48868 19.275L11.7117 30.0303ZM28 11.2491C26.9165 11.249 26.0348 10.3676 26.0348 9.28399C26.0348 8.20052 26.9164 7.31885 28 7.31885C29.0836 7.31885 29.9651 8.20041 29.9651 9.28399C29.9651 10.3676 29.0835 11.2491 28 11.2491ZM42.9042 48.3313V49.4404H13.0956V48.3313H42.9042ZM47.5112 3.03977C47.7838 3.03977 48.0057 3.26158 48.0057 3.53425C48.0057 3.80693 47.7838 4.02874 47.5112 4.02874C47.2386 4.02874 47.0167 3.80693 47.0167 3.53425C47.0167 3.26158 47.2386 3.03977 47.5112 3.03977ZM47.5112 7.94032L50.7343 18.6957H44.2881L47.5112 7.94032ZM52.6464 21.3497H42.3761V20.3365H52.6464V21.3497V21.3497Z" fill="#B38339"/>
</g>
<defs>
<clipPath id="clip0_55_4884">
<rect width="56" height="56" fill="white"/>
</clipPath>
</defs>
</svg>
