<svg width="56" height="56" viewBox="0 0 56 56" fill="none" xmlns="http://www.w3.org/2000/svg">
<g clip-path="url(#clip0_55_4882)">
<path d="M24.288 46.8781H43.1178V36.0043C43.1178 35.5516 43.4838 35.1857 43.9397 35.1857C44.3923 35.1857 44.7581 35.5516 44.7581 36.0043V47.6997C44.7581 48.1525 44.3921 48.5183 43.9397 48.5183H24.288V50.4655C24.7407 50.6019 25.1436 50.85 25.4661 51.1756C25.9808 51.6871 26.297 52.394 26.297 53.1723C26.297 53.9506 25.9808 54.6575 25.4661 55.1723C24.9545 55.6839 24.2476 56.0001 23.4693 56.0001H5.80837C5.03006 56.0001 4.32317 55.6839 3.8114 55.1723C3.29997 54.6575 2.98059 53.9506 2.98059 53.1723C2.98059 52.394 3.29997 51.6871 3.8114 51.1756C4.13712 50.85 4.54017 50.6019 4.98959 50.4655V48.6981C4.98959 48.2454 5.35556 47.8796 5.80826 47.8796C6.26392 47.8796 6.62989 48.2454 6.62989 48.6981V50.3447H22.6476V47.6997V44.5867C22.6476 43.1108 22.2477 41.731 21.5499 40.5436C20.8338 39.3281 19.8014 38.3111 18.5672 37.6105C18.2944 37.477 18.1084 37.198 18.1084 36.8756V35.1548H11.1694V36.8756C11.1694 37.164 11.0172 37.4399 10.7507 37.5918C9.49814 38.2926 8.45317 39.3157 7.72768 40.5436C7.02998 41.731 6.63 43.1108 6.63 44.5867V44.9835C6.63 45.4362 6.26403 45.8021 5.80837 45.8021C5.35556 45.8021 4.9897 45.4362 4.9897 44.9835V44.5867C4.9897 42.8164 5.47347 41.1513 6.32003 39.7188C7.1107 38.373 8.21429 37.2382 9.52909 36.4104V35.1547H8.48095C8.02825 35.1547 7.66261 34.7857 7.66261 34.333V30.9131C7.66261 30.4604 8.02836 30.0945 8.48095 30.0945H11.6841V11.556H3.80233C3.34962 11.556 2.9807 11.1902 2.9807 10.7375V5.11908C2.9807 3.71448 3.56662 2.44322 4.49992 1.51616C5.42698 0.595328 6.70131 0.0185938 8.09048 0H39.5864C41.0156 0 42.3086 0.576734 43.2452 1.51309C44.1783 2.44945 44.7582 3.74237 44.7582 5.16873V7.74528C45.0776 7.58395 45.4031 7.43214 45.7379 7.28634C47.5859 6.48014 49.7004 5.90975 52.1192 5.65852C52.5686 5.61192 52.9717 5.9407 53.0151 6.39023C53.046 6.69419 52.9066 6.97933 52.6709 7.14372C51.3965 8.09244 50.5718 8.9483 50.0508 9.59941C50.1531 9.59634 50.2525 9.59317 50.3486 9.59317C50.9532 9.58694 51.4647 9.618 51.9887 9.66131C52.4972 9.70473 52.8414 10.1978 52.7143 10.6877C52.1501 13.6395 50.1005 18.8361 45.9241 23.236C45.5519 23.6265 45.1643 24.0079 44.7582 24.3861V32.2897C44.7582 32.7424 44.3923 33.1113 43.9398 33.1113C43.4839 33.1113 43.1179 32.7423 43.1179 32.2897V25.7846C40.7677 27.6201 37.9307 29.1581 34.5416 30.0976C32.7806 34.3485 32.6317 37.5638 32.6317 37.5793C32.6069 38.032 32.2194 38.3762 31.7696 38.3514C31.3171 38.3265 30.973 37.9422 30.9978 37.4895C30.9978 37.4708 31.162 33.93 33.1123 29.3039C33.1247 28.231 33.3757 19.7136 38.3121 13.1776C38.5849 12.8179 39.0965 12.7435 39.4592 13.0163C39.8188 13.2892 39.8902 13.8039 39.6173 14.1635C36.833 17.8533 35.6392 22.2283 35.1275 25.3444C36.8857 22.4329 39.3878 19.3787 42.9473 16.6533C43.307 16.3774 43.8216 16.4456 44.0944 16.8052C44.3705 17.1649 44.3022 17.6797 43.9425 17.9525C39.763 21.1524 37.1243 24.8141 35.4593 28.1039C39.0218 26.8791 42.1598 24.8204 44.7362 22.1073C48.2835 18.3742 50.1901 14.0613 50.9159 11.2365C50.7299 11.2303 50.5469 11.2242 50.3608 11.2272C49.8586 11.2303 49.2974 11.2705 48.6152 11.3606C48.4725 11.3854 48.3236 11.3699 48.1811 11.3141C47.7595 11.1465 47.558 10.6691 47.7252 10.2504C47.7252 10.2442 48.1345 9.20248 49.505 7.75447C48.3825 8.02113 47.347 8.36839 46.3921 8.78697C44.7951 9.4815 43.3318 10.4086 42.0232 11.559C41.6852 11.8596 41.1676 11.8256 40.8668 11.4877C40.5689 11.1465 40.6001 10.6288 40.9411 10.3311C41.6078 9.74203 42.3334 9.19012 43.1177 8.6847V5.16873C43.1177 4.19508 42.7209 3.31144 42.0821 2.67269C41.4187 2.00922 40.5256 1.63395 39.5862 1.63395H11.9289C12.8312 2.59514 13.3242 3.85394 13.3242 5.16873C13.3242 13.4783 13.3274 21.7848 13.3274 30.0945H20.7967C21.2495 30.0945 21.6184 30.4604 21.6184 30.9131V34.333C21.6184 34.7857 21.2495 35.1547 20.7967 35.1547H19.7487V36.4104C21.0634 37.2382 22.1702 38.373 22.9609 39.7188C23.8043 41.1513 24.288 42.8163 24.288 44.5867V46.8781ZM21.5781 10.2537C21.1254 10.2537 20.7594 9.88783 20.7594 9.43512C20.7594 8.98242 21.1255 8.6135 21.5781 8.6135H26.1328C26.5886 8.6135 26.9544 8.98242 26.9544 9.43512C26.9544 9.88783 26.5886 10.2537 26.1328 10.2537H21.5781ZM16.127 24.5878C15.6743 24.5878 15.3054 24.222 15.3054 23.7693C15.3054 23.3166 15.6743 22.9476 16.127 22.9476H31.5867C32.0396 22.9476 32.4054 23.3166 32.4054 23.7693C32.4054 24.222 32.0394 24.5878 31.5867 24.5878H16.127ZM16.127 21.4035C15.6743 21.4035 15.3054 21.0376 15.3054 20.5817C15.3054 20.129 15.6743 19.7632 16.127 19.7632H31.5867C32.0396 19.7632 32.4054 20.129 32.4054 20.5817C32.4054 21.0375 32.0394 21.4035 31.5867 21.4035H16.127ZM16.127 18.2191C15.6743 18.2191 15.3054 17.8502 15.3054 17.3975C15.3054 16.9448 15.6743 16.5759 16.127 16.5759H31.5867C32.0396 16.5759 32.4054 16.9449 32.4054 17.3975C32.4054 17.8502 32.0394 18.2191 31.5867 18.2191H16.127ZM16.127 15.0317C15.6743 15.0317 15.3054 14.6659 15.3054 14.2132C15.3054 13.7605 15.6743 13.3915 16.127 13.3915H31.5867C32.0396 13.3915 32.4054 13.7606 32.4054 14.2132C32.4054 14.6659 32.0394 15.0317 31.5867 15.0317H16.127ZM31.8131 41.5419C31.3604 41.5419 30.9946 41.1729 30.9946 40.7202C30.9946 40.2676 31.3606 39.9016 31.8131 39.9016H40.8761C41.3289 39.9016 41.6978 40.2676 41.6978 40.7202C41.6978 41.1729 41.3289 41.5419 40.8761 41.5419H31.8131ZM19.9781 33.5113V31.7347H12.5057H9.30268V33.5113H19.9781ZM14.6389 40.156C15.7923 40.156 16.834 40.6211 17.5875 41.3777C18.3443 42.1311 18.8093 43.1729 18.8093 44.3264C18.8093 45.4767 18.3443 46.5185 17.5875 47.275C16.834 48.0285 15.7923 48.4967 14.6389 48.4967C13.4887 48.4967 12.4468 48.0285 11.6903 47.275C10.9367 46.5185 10.4687 45.4767 10.4687 44.3264C10.4687 43.173 10.9367 42.1311 11.6903 41.3777C12.4468 40.6211 13.4887 40.156 14.6389 40.156ZM16.4279 42.5372C15.969 42.0783 15.3367 41.7962 14.6389 41.7962C13.9414 41.7962 13.3089 42.0783 12.8499 42.5372C12.3941 42.993 12.1089 43.6256 12.1089 44.3263C12.1089 45.0239 12.3941 45.6564 12.8499 46.1152C13.3089 46.5711 13.9415 46.8562 14.6389 46.8562C15.3367 46.8562 15.969 46.5711 16.4279 46.1152C16.8867 45.6564 17.1689 45.0239 17.1689 44.3263C17.169 43.6255 16.8869 42.993 16.4279 42.5372ZM23.4694 51.9848H5.80837C5.48276 51.9848 5.18811 52.1182 4.97111 52.3352C4.75728 52.5491 4.62078 52.8467 4.62078 53.1723C4.62078 53.4979 4.75728 53.7955 4.97111 54.0095C5.18811 54.2266 5.48287 54.3599 5.80837 54.3599H23.4694C23.795 54.3599 24.0925 54.2266 24.3066 54.0095C24.5236 53.7955 24.657 53.4979 24.657 53.1723C24.657 52.8467 24.5236 52.5492 24.3066 52.3352C24.0925 52.1181 23.795 51.9848 23.4694 51.9848ZM10.6516 2.67269C10.0127 2.03394 9.12922 1.63713 8.15239 1.63713C7.3464 1.63713 6.41617 1.9192 5.65328 2.67586C4.97723 3.34873 4.61454 4.21991 4.62078 5.17191V9.91583H11.6871L11.6902 5.16884C11.6903 4.19508 11.2904 3.31144 10.6516 2.67269V2.67269Z" fill="#B38339"/>
</g>
<defs>
<clipPath id="clip0_55_4882">
<rect width="56" height="56" fill="white"/>
</clipPath>
</defs>
</svg>
