<svg width="56" height="56" viewBox="0 0 56 56" fill="none" xmlns="http://www.w3.org/2000/svg">
<g clip-path="url(#clip0_55_4886)">
<path d="M12.2727 25.0989C12.2727 33.7686 19.326 40.8219 27.9956 40.8219C36.6653 40.8219 43.7186 33.7686 43.7186 25.0989C43.7186 19.9645 41.2021 15.142 36.987 12.1988C36.6154 11.9395 36.1041 12.0303 35.8448 12.4018C35.5854 12.7733 35.6762 13.2846 36.0478 13.5441C36.4876 13.8512 36.9058 14.182 37.3032 14.5326L35.8851 15.5356C35.0433 16.1311 34.4406 17.0097 34.1884 18.0094L34.0405 18.5955C33.8518 19.3429 34.0117 20.1234 34.4791 20.7365C34.9465 21.3496 35.6566 21.7106 36.4273 21.7269C36.4456 21.7272 36.4635 21.7274 36.4816 21.7274C37.6 21.7274 38.5748 20.9984 38.8922 19.929H41.0909C41.5248 21.0266 41.8232 22.1812 41.9705 23.3679L36.348 22.8821C34.5561 22.7271 32.9285 23.8782 32.4768 25.6186C32.0096 27.4185 32.9635 29.286 34.6958 29.9624L35.7884 30.389L37.2565 35.6985C34.7789 37.8659 31.5381 39.1812 27.9954 39.1812C20.2304 39.1812 13.9131 32.8639 13.9131 25.0989C13.9131 23.2417 14.2753 21.4678 14.9314 19.8428L16.3352 22.5776C16.8491 23.5784 17.8899 24.2013 18.9981 24.2013C19.1134 24.2013 19.2295 24.1945 19.3458 24.1807C20.4339 24.0519 21.3625 23.3399 21.7694 22.3226L22.1096 21.4722L23.6611 21.4559C24.8446 21.4436 25.8629 20.6307 26.1375 19.4794L26.8468 16.5043C27.0996 15.4435 26.6535 14.3341 25.7367 13.7437L22.9528 11.9509C24.5193 11.348 26.2193 11.0166 27.9955 11.0166C29.7903 11.0166 31.5381 11.3493 33.1904 12.0055C33.6114 12.1728 34.0884 11.967 34.2555 11.5459C34.4228 11.1248 34.2169 10.648 33.7959 10.4807C31.9501 9.74763 29.9985 9.37598 27.9955 9.37598C19.326 9.37587 12.2727 16.4293 12.2727 25.0989V25.0989ZM38.2595 18.2882C37.886 18.2882 37.5596 18.5405 37.4656 18.902L37.328 19.4313C37.2255 19.8256 36.8701 20.0968 36.4621 20.0865C36.1938 20.0809 35.9467 19.9552 35.784 19.7418C35.6214 19.5284 35.5657 19.2568 35.6314 18.9967L35.7792 18.4107C35.9359 17.79 36.31 17.2446 36.8326 16.8749L38.4849 15.7063C39.1933 16.4984 39.8078 17.3649 40.3181 18.2882H38.2595ZM36.7681 29.0101L35.2927 28.434C34.3343 28.0597 33.8064 27.0264 34.0649 26.0306C34.3148 25.0676 35.2154 24.4307 36.2068 24.5165L42.0767 25.0238C42.0769 25.0488 42.0778 25.0738 42.0778 25.0989C42.0778 28.6442 40.7604 31.8872 38.5901 34.3654L37.2602 29.5556C37.1915 29.3063 37.0091 29.1041 36.7681 29.0101ZM21.1958 12.7707L24.8486 15.1229C25.181 15.3369 25.3427 15.7391 25.2511 16.1237L24.5418 19.0988C24.4423 19.5162 24.0731 19.8108 23.644 19.8153L21.5435 19.8374C21.2112 19.8409 20.9139 20.0446 20.7905 20.353L20.2464 21.7133C20.0629 22.1721 19.644 22.4933 19.1531 22.5515C18.5969 22.6176 18.051 22.3267 17.7951 21.8284L15.8336 18.0072C17.1159 15.8167 18.9726 14.0019 21.1958 12.7707V12.7707Z" fill="#B38339"/>
<path d="M21.4658 35.6975C21.8327 35.8935 22.2356 35.9923 22.6399 35.9923C22.9597 35.9923 23.2804 35.9305 23.585 35.8059C24.2747 35.5237 24.7978 34.9539 25.0203 34.2429L26.0222 31.0412L27.3359 29.9932C27.9141 29.5321 28.2661 28.8439 28.3017 28.1052C28.3374 27.3666 28.0532 26.6478 27.5222 26.1332L26.1697 24.8224C25.4822 24.1562 24.4897 23.9269 23.5799 24.2241L22.2648 24.6536C21.8341 24.7942 21.599 25.2573 21.7397 25.688C21.8803 26.1187 22.3434 26.3538 22.7741 26.2131L24.0893 25.7837C24.4189 25.676 24.7789 25.7591 25.028 26.0006L26.3806 27.3114C26.5759 27.5006 26.6762 27.7544 26.6631 28.0262C26.6499 28.2979 26.5256 28.5411 26.313 28.7107L24.8028 29.9151C24.6749 30.0172 24.5804 30.1552 24.5315 30.3115L23.4546 33.753C23.3784 33.9961 23.1995 34.1909 22.9637 34.2875C22.728 34.3842 22.4637 34.3705 22.239 34.2504C21.9608 34.1019 21.788 33.8136 21.788 33.4984V29.4973C21.788 29.2401 21.6674 28.9979 21.4622 28.8428L19.514 27.3709C19.5025 27.3622 19.4868 27.3503 19.4924 27.3166C19.498 27.2829 19.5168 27.2768 19.5305 27.2723C19.9612 27.1317 20.1963 26.6686 20.0556 26.2378C19.915 25.8072 19.452 25.5722 19.0211 25.7127C18.4183 25.9095 17.9788 26.4204 17.8742 27.0458C17.7696 27.6713 18.0189 28.2974 18.5249 28.6796L20.1473 29.9055V33.4983C20.1474 34.4202 20.6525 35.2629 21.4658 35.6975Z" fill="#B38339"/>
<path d="M29.7676 17.9262C29.9386 17.9814 30.1144 18.0083 30.289 18.0083C30.7149 18.0083 31.1324 17.8479 31.4518 17.5473L32.9043 16.181C33.3472 15.7643 33.5311 15.1616 33.3962 14.5687C33.2613 13.9758 32.8349 13.5118 32.2553 13.3277L30.4263 12.7467C29.8501 12.5636 29.2365 12.6943 28.7846 13.0963C28.3329 13.4981 28.1318 14.0926 28.2465 14.6863L28.6231 16.6335C28.7406 17.2408 29.179 17.7361 29.7676 17.9262V17.9262ZM29.8752 14.3221C29.8992 14.3008 29.9183 14.3068 29.9297 14.3105L31.7586 14.8915C31.7701 14.8951 31.7894 14.9012 31.7965 14.9326C31.8036 14.9641 31.7889 14.9779 31.7802 14.9861L30.3277 16.3524C30.3181 16.3615 30.3034 16.3753 30.2719 16.365C30.2402 16.3548 30.2365 16.3351 30.234 16.3221L29.8574 14.3749C29.8551 14.3631 29.8513 14.3434 29.8752 14.3221V14.3221Z" fill="#B38339"/>
<path d="M54.6286 31.9289C52.9263 31.1129 50.9552 31.0568 49.2207 31.7752C49.0572 31.8429 48.8983 31.919 48.7419 31.9991C49.0694 31.0147 49.3268 30.0068 49.5123 28.9838C51.2182 28.9473 52.854 28.2586 54.0627 27.05C55.3903 25.7225 56.0928 23.8799 55.9903 21.9949C55.9676 21.5768 55.6338 21.243 55.2157 21.2203C53.3298 21.1178 51.4881 21.8204 50.1607 23.1479C50.0371 23.2715 49.9209 23.4009 49.8083 23.533C49.7344 22.4887 49.5865 21.4603 49.3692 20.4539C50.9278 19.7665 52.1727 18.5061 52.8259 16.9293C53.5442 15.1949 53.4882 13.2238 52.6722 11.5214C52.4913 11.1439 52.055 10.9632 51.6601 11.1022C49.8793 11.7289 48.4459 13.0832 47.7276 14.8175C47.6625 14.9747 47.6059 15.1344 47.5535 15.2951C47.0895 14.3692 46.5595 13.4781 45.9685 12.6281C47.1434 11.3969 47.81 9.75749 47.81 8.05244C47.81 6.17501 47.0039 4.37546 45.5986 3.11491C45.2869 2.83534 44.8148 2.83545 44.5032 3.11491C43.0977 4.37546 42.2917 6.17512 42.2917 8.05233C42.2917 8.22635 42.3009 8.39938 42.3147 8.57176C41.0201 7.45438 39.5814 6.47667 38.015 5.66817C37.6123 5.46035 37.1176 5.61829 36.9098 6.02079C36.702 6.4234 36.8598 6.91822 37.2624 7.12603C44.0232 10.6161 48.2232 17.5028 48.2232 25.0988C48.2232 29.742 46.6928 34.1081 43.7973 37.7249C40.9857 41.2368 37.0414 43.7396 32.6911 44.7719C32.2503 44.8765 31.9777 45.3186 32.0823 45.7594C32.1717 46.1365 32.5083 46.3906 32.8797 46.3906C32.9424 46.3906 33.0062 46.3834 33.0698 46.3682C35.7221 45.7388 38.2344 44.6043 40.4662 43.0541C41.6983 44.2345 43.3418 44.9044 45.0509 44.9044C46.9283 44.9044 48.7279 44.0983 49.9885 42.693C50.2679 42.3813 50.2679 41.9092 49.9885 41.5976C48.7279 40.1921 46.9282 39.3861 45.051 39.3861C44.8758 39.3861 44.7016 39.3954 44.5281 39.4093C44.7155 39.1934 44.8991 38.9739 45.0782 38.7502C45.5489 38.1622 45.9871 37.5507 46.3922 36.9196C47.1678 37.221 47.9866 37.3747 48.8058 37.3747C49.6654 37.3747 50.5248 37.2081 51.3328 36.8734C53.0673 36.1549 54.4214 34.7216 55.0481 32.9407C55.1867 32.546 55.0061 32.1098 54.6286 31.9289V31.9289ZM49.2433 15.4453C49.6821 14.3858 50.4765 13.5148 51.4785 12.9718C51.8031 14.0642 51.749 15.2419 51.31 16.3014C50.8711 17.3609 50.0767 18.2321 49.0747 18.7748C48.7502 17.6827 48.8044 16.505 49.2433 15.4453V15.4453ZM48.1914 42.1453C47.3066 42.8632 46.1976 43.2639 45.0508 43.2639C43.904 43.2639 42.7952 42.8632 41.9103 42.1453C42.7952 41.4274 43.9041 41.0267 45.0509 41.0267C46.1976 41.0267 47.3065 41.4274 48.1914 42.1453ZM51.3208 24.3079C52.1317 23.497 53.1991 22.9962 54.3324 22.8781C54.2143 24.0114 53.7136 25.0788 52.9025 25.8898C52.0915 26.7007 51.0242 27.2016 49.8909 27.3196C50.009 26.1862 50.5098 25.1189 51.3208 24.3079ZM45.0508 4.91194C45.7687 5.79679 46.1694 6.90575 46.1694 8.05255C46.1694 9.19935 45.7687 10.3082 45.0508 11.193C44.3329 10.3082 43.9322 9.19935 43.9322 8.05244C43.9322 6.90564 44.3329 5.7969 45.0508 4.91194V4.91194ZM50.7046 35.3577C49.645 35.7966 48.4674 35.8508 47.3751 35.5261C47.918 34.5242 48.789 33.7297 49.8486 33.2909C50.9081 32.852 52.0857 32.7978 53.1781 33.1225C52.6353 34.1244 51.7643 34.9188 50.7046 35.3577Z" fill="#B38339"/>
<path d="M28.58 45.5533C28.4262 45.3994 28.2176 45.313 28 45.313C27.9767 45.313 27.9535 45.3145 27.9304 45.3164C16.8157 45.2763 7.78557 36.2225 7.78557 25.0987C7.78557 17.5108 11.9791 10.6272 18.7297 7.13445C19.1321 6.92631 19.2895 6.43128 19.0813 6.02899C18.8732 5.6266 18.3781 5.46899 17.9759 5.67735C16.4128 6.48607 14.9769 7.46356 13.6848 8.58018C13.6989 8.40507 13.7085 8.22919 13.7085 8.05233C13.7085 6.17512 12.9025 4.37546 11.497 3.11491C11.1853 2.83534 10.7131 2.83545 10.4016 3.11491C8.99613 4.37535 8.19015 6.17501 8.19015 8.05244C8.19015 9.76012 8.85887 11.402 10.0372 12.6337C9.44534 13.4857 8.91476 14.3785 8.45035 15.3063C8.39709 15.1418 8.33934 14.9784 8.27273 14.8175C7.55435 13.0832 6.12098 11.729 4.34013 11.1022C3.9454 10.9631 3.5091 11.1438 3.32808 11.5214C2.51203 13.2237 2.45603 15.1949 3.17441 16.9293C3.82869 18.5087 5.07678 19.7708 6.6392 20.4575C6.42166 21.4658 6.27367 22.4961 6.19995 23.5424C6.085 23.407 5.966 23.2744 5.83945 23.1479C4.51207 21.8203 2.6691 21.1171 0.784448 21.2201C0.366415 21.2429 0.0326009 21.5767 0.00985083 21.9947C-0.0927433 23.8798 0.609885 25.7224 1.93748 27.0499C3.14696 28.2593 4.78398 28.9481 6.49111 28.9838C6.67716 30.0166 6.9366 31.024 7.26264 32.0013C7.10482 31.9203 6.94447 31.8435 6.77942 31.7751C5.04506 31.0567 3.074 31.1127 1.37157 31.9288C0.99412 32.1098 0.813432 32.5459 0.952339 32.9407C1.57895 34.7216 2.93313 36.1549 4.6676 36.8734C5.47567 37.2081 6.33492 37.3747 7.19461 37.3747C8.01843 37.3747 8.84203 37.2194 9.62154 36.9145C10.1872 37.7915 10.8136 38.6258 11.4953 39.411C11.3142 39.3959 11.1323 39.386 10.9494 39.386C10.9493 39.386 10.9494 39.386 10.9493 39.386C9.07215 39.386 7.27249 40.1921 6.01194 41.5974C5.73248 41.9092 5.73248 42.3812 6.01194 42.6928C7.27238 44.0983 9.07204 44.9043 10.9495 44.9043C12.6622 44.9043 14.3088 44.2316 15.5418 43.0468C18.5889 45.1691 22.199 46.5357 26.0994 46.8741L21.2794 51.6942C20.9591 52.0146 20.9591 52.534 21.2794 52.8542C21.4396 53.0144 21.6496 53.0945 21.8594 53.0945C22.0693 53.0945 22.2793 53.0145 22.4395 52.8542L28.0001 47.2935L33.5565 52.8499C33.8769 53.1702 34.3963 53.1702 34.7165 52.8499C35.0369 52.5295 35.0369 52.0101 34.7165 51.6898L28.58 45.5533ZM4.69013 16.3014C4.25121 15.2419 4.19707 14.0641 4.5217 12.9718C5.52368 13.5146 6.31808 14.3858 6.75689 15.4453C7.19582 16.505 7.24996 17.6826 6.92544 18.7748C5.92345 18.232 5.12895 17.3609 4.69013 16.3014ZM5.29542 35.3576C4.23579 34.9186 3.36472 34.1243 2.82189 33.1224C3.91433 32.7978 5.09198 32.8519 6.1515 33.2908C7.21102 33.7296 8.08208 34.5241 8.62491 35.526C7.5328 35.8506 6.35483 35.7964 5.29542 35.3576V35.3576ZM10.9493 4.91183C11.6672 5.79679 12.0678 6.90564 12.0678 8.05233C12.0678 9.19924 11.6672 10.3081 10.9493 11.1929C10.2314 10.3081 9.83067 9.19924 9.83067 8.05244C9.83067 6.90564 10.2313 5.79668 10.9493 4.91183ZM3.09752 25.8897C2.2865 25.0787 1.78578 24.0114 1.66765 22.8781C2.801 22.9962 3.86851 23.497 4.67931 24.3078C5.49022 25.1188 5.99105 26.1861 6.10906 27.3195C4.97593 27.2013 3.90843 26.7006 3.09752 25.8897V25.8897ZM10.9494 43.2637C9.80256 43.2637 8.6936 42.863 7.80875 42.1451C8.69371 41.4271 9.80256 41.0265 10.9493 41.0265C12.0961 41.0265 13.205 41.4271 14.0899 42.1451C13.2049 42.8631 12.0961 43.2637 10.9494 43.2637V43.2637Z" fill="#B38339"/>
</g>
<defs>
<clipPath id="clip0_55_4886">
<rect width="56" height="56" fill="white"/>
</clipPath>
</defs>
</svg>
