<svg width="929" height="841" viewBox="0 0 929 841" fill="none" xmlns="http://www.w3.org/2000/svg">
<path d="M161.405 433.84C162.326 432.919 163.576 432.401 164.878 432.401H359.953C361.256 432.401 362.505 432.919 363.427 433.84C364.348 434.761 364.865 436.01 364.865 437.313C364.865 438.616 364.348 439.865 363.427 440.786C362.505 441.707 361.256 442.225 359.953 442.225H164.878C163.576 442.225 162.326 441.707 161.405 440.786C160.484 439.865 159.966 438.616 159.966 437.313C159.966 436.01 160.484 434.761 161.405 433.84ZM161.405 507.119C162.326 506.198 163.576 505.681 164.878 505.681H421.357C422.66 505.681 423.909 506.198 424.83 507.119C425.751 508.041 426.269 509.29 426.269 510.593C426.269 511.895 425.751 513.145 424.83 514.066C423.909 514.987 422.66 515.504 421.357 515.504H164.878C163.576 515.504 162.326 514.987 161.405 514.066C160.484 513.145 159.966 511.895 159.966 510.593C159.966 509.29 160.484 508.041 161.405 507.119ZM161.405 580.399C162.326 579.478 163.576 578.96 164.878 578.96H295.206C296.509 578.96 297.758 579.478 298.679 580.399C299.601 581.32 300.118 582.57 300.118 583.872C300.118 585.175 299.601 586.424 298.679 587.346C297.758 588.267 296.509 588.784 295.206 588.784H164.878C163.576 588.784 162.326 588.267 161.405 587.346C160.484 586.424 159.966 585.175 159.966 583.872C159.966 582.57 160.484 581.32 161.405 580.399Z" fill="#6150E9" fill-opacity="0.3" stroke="#F9F9F9" stroke-width="8.4962"/>
<path d="M68.367 400.673C68.367 377.724 86.9696 359.121 109.919 359.121H476.317C499.266 359.121 517.869 377.724 517.869 400.673V719.641C517.869 745.008 490.032 760.532 468.451 747.199C468.451 747.199 468.451 747.199 468.451 747.199L375.4 689.702C370.388 686.605 364.613 684.964 358.722 684.964H109.919C86.9696 684.964 68.367 666.361 68.367 643.412V400.673ZM87.4836 378.238C81.5335 384.188 78.1907 392.258 78.1907 400.673V643.412C78.1907 651.827 81.5335 659.897 87.4836 665.847C93.4338 671.797 101.504 675.14 109.919 675.14H358.721C366.436 675.14 373.998 677.288 380.561 681.344L473.612 738.841C488.648 748.133 508.045 737.317 508.045 719.641V400.673C508.045 392.258 504.702 384.188 498.752 378.238C492.802 372.288 484.732 368.945 476.317 368.945H109.919C101.504 368.945 93.4338 372.288 87.4836 378.238Z" fill="#6150E9" fill-opacity="0.3" stroke="#F9F9F9" stroke-width="8.4962"/>
<path d="M776.267 179.726C775.346 178.805 774.096 178.287 772.794 178.287H577.719C576.416 178.287 575.167 178.805 574.245 179.726C573.324 180.647 572.807 181.896 572.807 183.199C572.807 184.502 573.324 185.751 574.245 186.672C575.167 187.594 576.416 188.111 577.719 188.111H772.794C774.096 188.111 775.346 187.594 776.267 186.672C777.188 185.751 777.706 184.502 777.706 183.199C777.706 181.896 777.188 180.647 776.267 179.726ZM776.267 253.006C775.346 252.084 774.096 251.567 772.794 251.567H516.315C515.012 251.567 513.763 252.084 512.842 253.006C511.92 253.927 511.403 255.176 511.403 256.479C511.403 257.782 511.92 259.031 512.842 259.952C513.763 260.873 515.012 261.391 516.315 261.391H772.794C774.096 261.391 775.346 260.873 776.267 259.952C777.188 259.031 777.706 257.782 777.706 256.479C777.706 255.176 777.188 253.927 776.267 253.006ZM776.267 326.285C775.346 325.364 774.096 324.847 772.794 324.847H642.466C641.163 324.847 639.914 325.364 638.993 326.285C638.071 327.206 637.554 328.456 637.554 329.759C637.554 331.061 638.071 332.311 638.993 333.232C639.914 334.153 641.163 334.67 642.466 334.67H772.794C774.096 334.67 775.346 334.153 776.267 333.232C777.188 332.311 777.706 331.061 777.706 329.759C777.706 328.456 777.188 327.206 776.267 326.285Z" fill="#6150E9" fill-opacity="0.3" stroke="#F9F9F9" stroke-width="8.4962"/>
<path d="M869.305 146.559C869.305 123.61 850.702 105.008 827.753 105.008H461.354C438.405 105.008 419.803 123.61 419.803 146.559V465.527C419.803 490.894 447.639 506.418 469.22 493.085C469.22 493.085 469.22 493.085 469.221 493.085L562.272 435.588C567.283 432.491 573.058 430.85 578.95 430.85H827.753C850.702 430.85 869.305 412.247 869.305 389.298V146.559ZM850.188 124.124C856.138 130.074 859.481 138.145 859.481 146.559V389.298C859.481 397.713 856.138 405.783 850.188 411.733C844.238 417.684 836.168 421.026 827.753 421.026H578.95C571.236 421.027 563.674 423.175 557.111 427.23L464.06 484.727C449.023 494.019 429.627 483.203 429.627 465.527V146.559C429.627 138.145 432.969 130.074 438.919 124.124C444.87 118.174 452.94 114.831 461.354 114.831H827.753C836.168 114.831 844.238 118.174 850.188 124.124Z" fill="#6150E9" fill-opacity="0.3" stroke="#F9F9F9" stroke-width="8.4962"/>
</svg>
