<svg width="149" height="149" viewBox="0 0 149 149" fill="none" xmlns="http://www.w3.org/2000/svg">
<path d="M132.864 70.4364V70.6287L133.056 70.6362C137.064 70.7934 140.315 72.4801 142.568 75.3603C144.824 78.2445 146.091 82.3406 146.091 87.3284L146.091 100.074C146.091 100.074 146.091 100.075 146.091 100.075C146.012 105.383 144.665 109.637 142.291 112.56C139.922 115.478 136.515 117.088 132.267 117.088H132.151L132.094 117.188C130.852 119.362 128.685 120.753 126.053 120.753H120.316C116.598 120.753 113.504 117.812 113.504 113.941V73.4642C113.504 69.7471 116.445 66.6524 120.316 66.6524H126.053C127.147 66.6524 128.07 66.8085 128.991 67.2688L129.28 67.4135V67.0899V57.8471V57.6471H129.08H98.1648H98.082L98.0234 57.7057L84.6373 71.0918C84.4359 71.2932 84.1207 71.4384 83.7531 71.4936C83.3873 71.5484 82.9851 71.5115 82.622 71.3662C82.2539 71.219 81.9695 71.0025 81.7763 70.7215C81.5833 70.4408 81.4728 70.0833 81.4728 69.6396V57.6877V57.4877H81.2728H68.6835C67.8269 57.4877 66.9712 56.7699 66.9712 55.7754V21.0353V20.8353H66.7712H56.0942C35.9046 20.8353 19.5605 37.1794 19.5605 57.369V67.4086V67.7532L19.8598 67.5822C20.9474 66.9607 22.029 66.6524 23.2664 66.6524H29.0033C32.8828 66.6524 35.9744 69.5965 35.9744 73.4642V114.888C35.6612 118.281 32.7277 120.911 29.1654 120.912L29.1633 120.912L29.15 120.912L29.0979 120.911L28.9001 120.906L28.1917 120.887C27.604 120.873 26.8172 120.853 26.0203 120.833C24.4295 120.793 22.7917 120.753 22.629 120.753H22.3197L22.4466 121.035C26.7834 130.672 36.7357 138.042 51.4641 138.682L51.4641 138.682H51.4728H61.5124H61.7124V138.482V137.213C61.869 134.132 64.3332 131.668 67.4138 131.511H78.0766C81.4767 131.825 83.9358 134.604 83.7822 137.835C83.628 140.918 81.1628 143.385 78.0805 143.541H67.568C66.1814 143.541 65.1185 143.081 64.3629 142.325L64.3043 142.266H64.2215H51.4764C32.5981 141.631 21.0483 131.17 17.7242 117.082L17.6878 116.928H17.5295C13.363 116.928 9.9957 115.319 7.66573 112.421C5.3318 109.519 4.02471 105.305 4.02471 100.077V87.3284C4.02471 82.3384 5.21294 78.2805 7.3518 75.396C9.48745 72.5158 12.5813 70.7906 16.4303 70.4764L16.614 70.4614V70.277V57.5284C16.614 35.3287 34.5319 17.4107 56.7317 17.4107H67.4087H67.6087V17.2107V5.09949C67.6087 4.24288 68.3265 3.38719 69.321 3.38719H143.582C144.439 3.38719 145.294 4.10506 145.294 5.09949V55.9348C145.294 56.3702 145.149 56.7992 144.867 57.1166C144.588 57.4304 144.165 57.6471 143.582 57.6471H133.064H132.864V57.8471V70.4364ZM67.4087 135.095H67.3944L67.3804 135.097C66.7824 135.183 66.257 135.441 65.8818 135.883C65.5066 136.324 65.2964 136.931 65.2964 137.686C65.2964 138.741 66.1721 139.798 67.4087 139.798H78.0857C78.7054 139.798 79.24 139.53 79.6156 139.066C79.9888 138.605 80.198 137.96 80.198 137.208C80.198 136.687 80.0246 136.16 79.6694 135.76C79.3108 135.357 78.7774 135.095 78.0857 135.095H67.4087ZM16.4547 74.1016V73.8797L16.2339 73.9027C12.32 74.3104 10.1167 76.6827 8.90077 79.4187C7.68896 82.1452 7.44931 85.2455 7.44931 87.169V99.9177C7.44931 101.762 7.68915 104.822 8.90077 107.549C10.1162 110.283 12.3177 112.694 16.2298 113.184L16.4547 113.212V112.985V74.1016ZM20.3581 73.4461L20.3573 73.4551V73.4642V112.826C20.3573 113.993 20.8151 115.072 21.4581 115.86C22.0961 116.642 22.9442 117.169 23.7445 117.169H29.4814C31.1785 117.169 32.7092 115.811 32.7092 113.941V73.4642C32.7092 71.7671 31.3516 70.2364 29.4814 70.2364H23.7445C22.044 70.2364 20.5266 71.5936 20.3581 73.4461ZM85.0568 65.0182V65.501L85.3982 65.1596L95.9159 54.642C96.3721 54.1857 96.8023 53.9038 97.5274 53.9038H141.67H141.87V53.7038V7.01179V6.81179H141.67H71.3926H71.1926V7.01179V53.8631V54.0631H71.3926H83.1851C84.2117 54.0631 85.0568 54.7907 85.0568 55.7754V65.0182ZM129.28 72.8268V72.8048L129.276 72.7834C128.935 71.2527 127.575 70.2364 126.053 70.2364H120.316C118.618 70.2364 117.088 71.594 117.088 73.4642V113.941C117.088 115.638 118.445 117.169 120.316 117.169H126.053C127.57 117.169 128.931 116.159 129.274 114.787L129.28 114.763V114.738V72.8268ZM133.024 113.304V113.52L133.239 113.503C137.39 113.178 139.716 110.809 140.995 108.049C142.268 105.301 142.507 102.16 142.507 100.236V87.4877C142.507 85.5644 142.268 82.4228 140.995 79.6748C139.716 76.9154 137.39 74.5465 133.239 74.221L133.024 74.204V74.4203V113.304Z" fill="#6150E9" stroke="white" stroke-width="0.4"/>
</svg>
