<svg width="138" height="139" viewBox="0 0 138 139" fill="none" xmlns="http://www.w3.org/2000/svg">
<path d="M102.094 95.1094C103.723 93.4797 106.052 92.7812 108.147 93.4797L117.692 96.0406C119.788 96.7391 121.65 98.3687 122.116 100.464L124.677 110.009C125.375 112.105 124.677 114.433 123.047 116.062L116.063 123.047C114.898 124.211 113.269 124.909 111.639 124.909C111.173 124.909 110.475 124.909 110.009 124.677L100.464 122.116C98.3688 121.417 96.5063 119.787 96.0407 117.692L93.4797 108.147C92.7813 106.052 93.4797 103.723 95.1094 102.094L102.094 95.1094ZM95.8079 107.681L98.3688 117.227C98.8344 118.623 99.7657 119.787 101.163 120.02L110.708 122.581C112.105 123.047 113.502 122.581 114.666 121.65L121.65 114.666C122.581 113.734 123.047 112.105 122.581 110.708L120.02 101.162C119.555 99.7656 118.623 98.6016 117.227 98.3688L107.681 95.8078C107.448 95.8078 106.983 95.575 106.75 95.575C105.586 95.575 104.655 96.0406 103.956 96.7391L96.9719 103.723C95.8079 104.887 95.3422 106.284 95.8079 107.681Z" fill="#6150E9"/>
<path d="M1.51877 23.6359C1.75157 22.0063 2.91563 20.8422 4.54532 20.6094C5.9422 20.1437 7.57188 20.6094 8.73595 21.7734L21.5406 34.5781C23.1703 36.2078 25.7313 36.2078 27.361 34.5781L34.5781 27.3609C36.2078 25.7312 36.2078 23.1703 34.5781 21.5406L21.7735 8.73594C20.6094 7.57188 20.1438 5.94219 20.6094 4.54531C21.075 3.14844 22.2391 1.98437 23.6359 1.51875C33.4141 -0.343751 43.1922 2.45 50.1766 9.43437C57.1609 16.4187 59.9547 26.4297 57.8594 35.975C57.6266 37.3719 58.0922 38.7687 59.0235 39.7L99.3 79.9766C100.231 80.9078 101.628 81.3734 103.025 81.1406C112.803 79.0453 122.581 82.0719 129.566 89.0563C140.508 99.7656 140.741 117.692 130.264 128.867C124.909 134.687 117.459 137.947 109.544 138.18H109.078C101.395 138.18 94.1781 135.153 88.8234 129.798C81.8391 122.814 79.0453 112.803 81.1406 103.258C81.3735 101.861 80.9078 100.464 79.9766 99.5328L39.7 59.2562C38.7688 58.325 37.3719 57.8594 35.975 58.0922C26.1969 60.1875 16.4188 57.3937 9.43439 50.4094C2.45001 43.1922 -0.343735 33.4141 1.51877 23.6359ZM11.0641 48.5469C17.5828 55.0656 26.6625 57.6266 35.5094 55.7641C37.6047 55.2984 39.9328 55.9969 41.3297 57.6266L81.6063 97.6703C83.236 99.3 83.9344 101.395 83.4688 103.491C81.6063 112.337 84.1672 121.417 90.686 127.936C95.8078 133.058 102.559 135.852 110.009 135.619C117.227 135.386 123.978 132.359 128.867 127.005C138.413 116.761 138.18 100.231 128.169 90.4531C123.047 85.3312 116.528 82.5375 109.544 82.5375C107.681 82.5375 105.819 82.7703 103.723 83.2359C101.628 83.7016 99.3 83.0031 97.9031 81.6062L57.6266 41.3297C55.9969 39.7 55.2984 37.6047 55.7641 35.5094C57.6266 26.6625 55.0656 17.5828 48.5469 11.0641C42.2609 4.77812 33.1813 1.98437 24.1016 3.84687C23.4031 4.07969 22.9375 4.54531 22.7047 5.24375C22.4719 5.94219 22.7047 6.64062 23.1703 7.10625L35.975 19.9109C38.5359 22.4719 38.5359 26.4297 35.975 28.9906L28.7578 36.2078C26.4297 38.5359 22.0063 38.5359 19.6781 36.2078L6.87344 23.4031C6.40782 22.9375 5.70938 22.7047 5.01096 22.9375C4.31252 23.1703 3.84689 23.6359 3.61407 24.3344C1.98439 32.9484 4.77814 42.0281 11.0641 48.5469Z" fill="#6150E9"/>
<path d="M59.2562 53.2031C59.7219 52.7375 60.4203 52.7375 60.8859 53.2031L87.1937 79.5109C87.6594 79.9766 87.6594 80.675 87.1937 81.1406C86.9609 81.3734 86.7281 81.3734 86.2625 81.3734C85.7969 81.3734 85.5641 81.3734 85.3312 81.1406L59.0234 54.8328C58.7906 54.3672 58.7906 53.6688 59.2562 53.2031ZM54.8328 59.2563L81.1406 85.5641C81.6062 86.0297 81.6062 86.7281 81.1406 87.1937C80.9078 87.4266 80.675 87.4266 80.2094 87.4266C79.7437 87.4266 79.5109 87.4266 79.2781 87.1937L53.2031 60.8859C52.7375 60.4203 52.7375 59.7219 53.2031 59.2563C53.6688 58.7906 54.3672 58.7906 54.8328 59.2563Z" fill="#6150E9"/>
</svg>
