<svg width="147" height="148" viewBox="0 0 147 148" fill="none" xmlns="http://www.w3.org/2000/svg">
<g clip-path="url(#clip0_109_2729)">
<path d="M56.1567 3.71567L56.1567 3.71579L56.1623 3.713C56.7897 3.40012 57.57 3.63426 57.8836 4.33812L57.8835 4.33819L57.8866 4.34429C58.1944 4.95846 57.8898 5.74471 57.2554 6.06228C53.3017 7.90285 49.7006 10.4438 46.5396 13.5092L46.5396 13.5092L46.5381 13.5106C39.4215 20.6089 35.4674 30.0742 35.4674 40.1523C35.4674 50.1433 39.4216 59.6085 46.5381 66.7066L46.5389 66.7074C52.5127 72.5783 59.981 76.259 68.3269 77.3982L68.3306 77.3986C69.0309 77.4762 69.5021 78.0958 69.4232 78.8041C69.3439 79.5161 68.7935 79.98 68.1721 79.98H67.9199C59.1164 78.7607 51.0118 74.8477 44.6496 68.5019C37.0642 60.936 32.8795 50.8488 32.8795 40.1523C32.8795 29.3683 37.0643 19.2812 44.6496 11.7154C48.0506 8.32317 51.8863 5.62805 56.1567 3.71567Z" fill="#6150E9" stroke="white" stroke-width="0.3"/>
<path d="M78.1693 2.73184L78.1693 2.73189C86.4268 3.87095 93.9831 7.55134 99.8701 13.4231M78.1693 2.73184L99.7644 13.5296M78.1693 2.73184L78.1653 2.73139C77.4519 2.65233 76.9077 2.02116 76.9852 1.32591L76.9854 1.32427C77.0634 0.545402 77.7659 0.0702942 78.4811 0.148946M78.1693 2.73184L88.5255 75.7929M99.8701 13.4231C99.8702 13.4232 99.8703 13.4233 99.8704 13.4234L99.7644 13.5296M99.8701 13.4231C99.8701 13.4231 99.87 13.4231 99.87 13.4231L99.7644 13.5296M99.8701 13.4231C114.632 28.059 114.631 51.8966 99.8704 66.6194C96.7959 69.686 93.194 72.2274 89.1525 74.068M99.7644 13.5296C114.467 28.1066 114.467 51.8488 99.7644 66.5132C96.7015 69.5682 93.1135 72.0996 89.0879 73.9326M89.1525 74.068C89.1533 74.0676 89.1541 74.0672 89.1548 74.0668L89.0879 73.9326M89.1525 74.068C88.5352 74.3775 88.2907 75.1578 88.5255 75.7929M89.1525 74.068C89.1517 74.0684 89.1509 74.0688 89.15 74.0691L89.0879 73.9326M89.0879 73.9326L88.5255 75.7929M88.5255 75.7929C88.5243 75.7905 88.5231 75.7881 88.5219 75.7857L88.3878 75.8529L88.5282 75.8002C88.5273 75.7978 88.5264 75.7953 88.5255 75.7929ZM88.5255 75.7929C88.7651 76.2645 89.2379 76.5758 89.788 76.5758C89.8511 76.5758 89.9203 76.5601 90.0141 76.5289C90.0608 76.5134 90.1104 76.4952 90.1673 76.4744C90.2213 76.4547 90.2806 76.4332 90.3455 76.4115M90.3455 76.4115C90.343 76.4126 90.3406 76.4137 90.3382 76.4148L90.4006 76.5512L90.3532 76.4089C90.3507 76.4098 90.348 76.4106 90.3455 76.4115ZM90.3455 76.4115C94.5273 74.4987 98.4474 71.8044 101.757 68.416L101.759 68.4146C117.452 52.7614 117.452 27.2813 101.759 11.6282C95.3936 5.27928 87.3732 1.2796 78.4811 0.148946M78.4811 0.148946C78.4815 0.148989 78.4819 0.149033 78.4823 0.149077L78.4988 -1.05109e-05L78.4799 0.148792C78.4803 0.148843 78.4807 0.148895 78.4811 0.148946ZM54.6138 6.04753L41.3173 5.52402C40.6122 5.44313 40.0601 4.81612 40.0558 4.11081C40.1384 3.40284 40.6872 2.85744 41.4776 2.85591L56.7889 3.55405L56.7889 3.55421H56.7957C57.1733 3.55421 57.5654 3.78185 57.8048 4.17983L57.8088 4.18647L57.8135 4.19266C58.0338 4.48564 58.0449 4.94904 57.8817 5.35599L57.8816 5.35614L52.194 19.5822C51.9535 20.1403 51.4809 20.4499 50.9324 20.4499C50.8665 20.4499 50.7971 20.4334 50.7061 20.4107L50.6991 20.4089C50.6252 20.3905 50.5355 20.3681 50.4417 20.3634C49.74 20.0366 49.4512 19.263 49.7538 18.6595L49.7542 18.6597L49.7588 18.6483L54.747 6.25341L54.8265 6.0559L54.6138 6.04753Z" fill="#6150E9" stroke="white" stroke-width="0.3"/>
<path d="M89.7073 76.576L89.7073 76.5758H89.7005C89.2321 76.5758 88.8436 76.3453 88.6068 75.9551C88.4473 75.6334 88.373 75.1586 88.5269 74.7744C88.5269 74.7743 88.527 74.7742 88.527 74.774L94.3026 60.5467L94.3029 60.5468L94.3059 60.5378C94.539 59.8403 95.3189 59.525 95.9447 59.7564C96.6603 60.0761 96.9682 60.8651 96.7367 61.4835C96.7365 61.484 96.7363 61.4845 96.7361 61.485L91.7491 73.8766L91.6697 74.0741L91.8824 74.0825L105.091 74.606C105.799 74.6872 106.353 75.3188 106.353 76.0275C106.353 76.7173 105.734 77.2724 105.019 77.2741L89.7073 76.576ZM64.2093 36.3989V36.2489H64.0593H58.721C58.2475 36.2489 57.7823 36.0152 57.5472 35.5556C57.4707 35.3204 57.4511 35.0434 57.4909 34.7851C57.5316 34.5217 57.6313 34.2934 57.7768 34.1484L57.7769 34.1485L57.7819 34.143L72.2214 18.2567L72.2219 18.2571L72.2303 18.246C72.4587 17.9423 72.847 17.7821 73.2481 17.7821C73.5565 17.7821 73.9473 17.9387 74.1784 18.246L74.1778 18.2463L74.1873 18.2567L88.6268 34.143L88.6349 34.1519L88.6443 34.1594C89.0142 34.4546 89.1047 35.0706 88.8663 35.5461C88.6328 36.0119 88.1645 36.2489 87.6877 36.2489H82.3494H82.1994V36.3989V47.3099C82.1994 48.0123 81.5668 48.6438 80.8617 48.6438H65.547C64.8419 48.6438 64.2093 48.0123 64.2093 47.3099V36.3989ZM66.8847 45.9133V46.0633H67.0347H79.4615H79.6115V45.9133V35.0023C79.6115 34.2879 80.1681 33.6684 80.8617 33.6684H84.3622H84.7014L84.4732 33.4175L73.3591 21.1972L73.2485 21.0757L73.1375 21.1968L61.9359 33.4171L61.7055 33.6684H62.0465H65.547C66.2521 33.6684 66.8847 34.2999 66.8847 35.0023V45.9133ZM81.9119 55.7141H64.4968C63.7917 55.7141 63.2466 55.1698 63.2466 54.4675C63.2466 53.7531 63.8032 53.1336 64.4968 53.1336H81.9119C82.617 53.1336 83.2496 53.7651 83.2496 54.4675C83.2496 55.1583 82.629 55.7141 81.9119 55.7141ZM79.1115 62.2606H67.2972C66.5921 62.2606 66.047 61.7164 66.047 61.014C66.047 60.2996 66.6037 59.6801 67.2972 59.6801H79.1115C79.8166 59.6801 80.4492 60.3117 80.4492 61.014C80.4492 61.7049 79.8286 62.2606 79.1115 62.2606Z" fill="#6150E9" stroke="white" stroke-width="0.3"/>
<path d="M138.707 122.402H7.70088C4.02283 122.402 1.1124 119.416 1.1124 115.743V34.2167C1.1124 30.544 4.02283 27.5583 7.70088 27.5583H35.88C36.5735 27.5583 37.1302 28.1778 37.1302 28.8922C37.1302 29.5946 36.5851 30.1388 35.88 30.1388H7.70088C5.51591 30.1388 3.70032 31.9535 3.70032 34.2167V115.743C3.70032 118.007 5.51591 119.821 7.70088 119.821H138.707C140.982 119.821 142.708 118.004 142.708 115.743V34.2167C142.708 31.9558 140.982 30.1388 138.707 30.1388H110.616C109.899 30.1388 109.278 29.5831 109.278 28.8922C109.278 28.1898 109.911 27.5583 110.616 27.5583H138.707C142.388 27.5583 145.383 30.5466 145.383 34.2167V115.743C145.383 119.414 142.388 122.402 138.707 122.402Z" fill="#6150E9" stroke="white" stroke-width="0.3"/>
<path d="M59.5268 134.055L59.5192 134.047L59.5107 134.041C59.2062 133.813 59.0458 133.426 59.0458 133.026V121.068C59.0458 120.377 59.6663 119.821 60.3835 119.821H86.1122C86.8174 119.821 87.3624 120.366 87.3624 121.068V133.026C87.3624 133.428 87.2 133.824 86.9689 134.055C86.7445 134.279 86.4392 134.36 86.1122 134.36H85.9372C85.7721 134.36 85.5839 134.34 85.3849 134.318L85.3799 134.317C85.1866 134.296 84.9829 134.273 84.7995 134.273H61.6962C61.4691 134.273 61.2652 134.296 61.07 134.317L61.0671 134.318C60.8694 134.339 60.6803 134.36 60.471 134.36C60.1347 134.36 59.747 134.275 59.5268 134.055ZM61.6337 131.542V131.692H61.7837H84.6245H84.7745V131.542V122.552V122.402H84.6245H61.7837H61.6337V122.552V131.542ZM144.046 108.174H2.3626C1.65747 108.174 1.1124 107.63 1.1124 106.927C1.1124 106.132 1.66343 105.593 2.3626 105.593H144.046C144.757 105.593 145.383 106.143 145.383 106.927C145.383 107.618 144.763 108.174 144.046 108.174Z" fill="#6150E9" stroke="white" stroke-width="0.3"/>
<path d="M50.3444 146.032V146.182H50.4944H95.9134H96.0634V146.032V145.596C96.0634 139.404 91.0092 134.273 84.7993 134.273H61.696C55.3993 134.273 50.3444 139.403 50.3444 145.596V146.032ZM97.4011 148.85H49.0066C48.3131 148.85 47.7564 148.231 47.7564 147.516V145.596C47.7564 137.91 53.9898 131.692 61.696 131.692H84.7993C92.4186 131.692 98.7389 137.911 98.7389 145.596V147.516C98.7389 148.219 98.1063 148.85 97.4011 148.85Z" fill="#6150E9" stroke="white" stroke-width="0.3"/>
</g>
<defs>
<clipPath id="clip0_109_2729">
<rect width="146.409" height="149" fill="white"/>
</clipPath>
</defs>
</svg>
