<svg width="138" height="1137" viewBox="0 0 138 1137" fill="none" xmlns="http://www.w3.org/2000/svg">
<path d="M135.471 974.911C135.471 974.489 135.892 974.278 136.735 974.278C137.578 974.278 138 974.489 138 974.911C138 979.266 137.93 982.709 137.789 985.238L137.578 999.36L137.789 1012.43C137.93 1014.53 138 1017.49 138 1021.28C138 1021.56 137.578 1021.7 136.735 1021.7C135.892 1021.7 135.471 1021.56 135.471 1021.28C135.471 1016.36 135.12 1012.78 134.417 1010.53C133.574 1008.14 132.169 1006.6 130.202 1005.89C128.234 1005.05 125.143 1004.77 120.928 1005.05L22.9209 1008.63L136.525 1057.95C137.087 1058.23 137.368 1058.8 137.368 1059.64C137.368 1060.34 137.087 1060.97 136.525 1061.54L23.7639 1112.96L23.3424 1113.17L116.08 1114.86C123.387 1115 128.445 1113.81 131.255 1111.28C134.066 1108.75 135.471 1104.04 135.471 1097.16C135.471 1096.87 135.892 1096.73 136.735 1096.73C137.578 1096.73 138 1096.87 138 1097.16C138 1101.09 137.93 1104.11 137.789 1106.22L137.578 1117.6L137.789 1127.93C137.93 1129.75 138 1132.49 138 1136.15C138 1136.43 137.578 1136.57 136.735 1136.57C135.892 1136.57 135.471 1136.43 135.471 1136.15C135.471 1130.25 134.066 1126.1 131.255 1123.71C128.305 1121.18 123.246 1119.85 116.08 1119.71L16.1763 1117.6C11.2584 1121.96 8.79945 1127.65 8.79945 1134.67C8.79945 1134.95 8.37791 1135.09 7.53485 1135.09C6.69178 1135.09 6.27024 1134.95 6.27024 1134.67L6.48101 1127.51C6.62152 1126.1 6.69177 1124.27 6.69177 1122.03C6.69177 1119.78 6.62152 1117.88 6.48101 1116.34C6.3405 1114.79 6.27024 1113.6 6.27024 1112.75C6.27025 1110.79 6.9728 1109.24 8.37792 1108.12C9.64253 1106.99 12.5933 1105.31 17.2302 1103.06L119.663 1055.63L11.5394 1008.42C9.99381 1007.72 8.7292 1006.81 7.74561 1005.68C6.76204 1004.42 6.27025 1003.22 6.27025 1002.1C6.27025 1001.54 6.3405 1000.62 6.48101 999.36C6.62152 998.095 6.69178 996.339 6.69178 994.09L6.48101 984.606C6.3405 983.201 6.27025 981.023 6.27025 978.072C6.27025 977.791 6.69178 977.651 7.53485 977.651C8.37792 977.651 8.79945 977.791 8.79945 978.072C8.79945 985.379 9.78303 990.578 11.7502 993.669C13.5769 996.62 17.3004 998.025 22.9209 997.884L120.928 993.88C125.284 993.739 128.445 993.247 130.412 992.404C132.38 991.421 133.714 989.664 134.417 987.135C135.12 984.465 135.471 980.39 135.471 974.911ZM135.471 802.697C135.471 802.135 135.892 801.854 136.735 801.854C137.578 801.854 138 802.135 138 802.697C138 805.226 137.859 809.301 137.578 814.921C137.297 820.261 137.157 824.195 137.157 826.724C137.157 829.675 137.297 833.539 137.578 838.317C137.859 842.813 138 846.185 138 848.433C138 848.996 137.578 849.277 136.735 849.277C135.892 849.277 135.471 848.996 135.471 848.433C135.471 842.673 134.979 838.527 133.995 835.998C132.871 833.469 131.045 832.204 128.515 832.204C126.548 832.204 123.808 832.977 120.296 834.523L77.5097 854.335L77.5097 904.498L112.076 918.83C116.853 920.797 120.787 921.781 123.879 921.781C127.953 921.781 130.904 920.094 132.731 916.722C134.557 913.35 135.471 908.081 135.471 900.915C135.471 900.212 135.892 899.861 136.735 899.861C137.578 899.861 138 900.212 138 900.915C138 903.444 137.859 907.097 137.578 911.875C137.297 917.214 137.157 921.851 137.157 925.785C137.157 929.298 137.297 933.443 137.578 938.221C137.859 942.436 138 945.878 138 948.548C138 949.251 137.578 949.602 136.735 949.602C135.892 949.602 135.471 949.251 135.471 948.548C135.471 944.614 134.768 941.312 133.363 938.642C131.958 935.832 129.429 933.232 125.775 930.844C122.122 928.314 116.923 925.645 110.179 922.834L4.16256 878.784C3.74103 878.503 3.53027 878.081 3.53027 877.519C3.53027 876.817 3.74103 876.395 4.16256 876.255L109.125 827.357C116.291 824.125 121.771 821.244 125.565 818.715C129.218 816.186 131.817 813.727 133.363 811.338C134.768 808.809 135.471 805.929 135.471 802.697ZM73.7159 902.812L73.7159 856.232L20.8132 880.892L73.7159 902.812ZM120.085 741.523C124.581 741.523 127.883 740.891 129.991 739.626C131.958 738.362 133.363 735.973 134.206 732.46C135.049 728.807 135.471 723.046 135.471 715.177C135.471 714.756 135.892 714.545 136.735 714.545C137.578 714.545 138 714.756 138 715.177C138 720.938 137.93 725.435 137.789 728.666L137.578 747.003L137.789 760.914C137.93 763.443 138 766.956 138 771.452C138 771.733 137.578 771.874 136.735 771.874C135.892 771.874 135.471 771.733 135.471 771.452C135.471 765.972 135.12 761.968 134.417 759.439C133.714 756.769 132.38 755.012 130.412 754.169C128.305 753.186 125.143 752.694 120.928 752.694L23.3424 752.694C19.1271 752.694 16.0358 753.186 14.0687 754.169C12.1015 755.012 10.7666 756.769 10.0641 759.439C9.22099 761.968 8.79945 765.972 8.79945 771.452C8.79945 771.733 8.37792 771.874 7.53485 771.874C6.69178 771.874 6.27025 771.733 6.27025 771.452L6.48101 761.125C6.76203 755.223 6.90254 750.586 6.90254 747.214C6.90254 743.842 6.69178 739.978 6.27025 735.622C5.84871 724.662 5.63794 718.69 5.63794 717.707C5.63794 705.341 8.51843 695.295 14.2794 687.567C19.8999 679.839 28.5414 675.975 40.2038 675.975C49.6181 675.975 57.557 678.293 64.0206 682.93C70.3436 687.567 75.0507 693.468 78.142 700.634C81.2333 707.66 82.7789 714.967 82.7789 722.554C82.7789 726.77 82.4276 730.212 81.725 732.882C81.725 733.303 81.3738 733.514 80.6712 733.514C80.2497 733.514 79.8281 733.444 79.4066 733.303C78.9851 733.022 78.8446 732.741 78.9851 732.46C79.5471 730.212 79.8281 727.683 79.8281 724.873C79.8281 714.896 76.8071 706.466 70.7651 699.581C64.7231 692.555 55.9411 689.042 44.4192 689.042C36.9721 689.042 30.5788 690.518 25.2393 693.468C19.7594 696.419 15.6143 700.494 12.804 705.693C9.85329 710.751 8.37792 716.372 8.37792 722.554C8.37792 728.315 8.65895 732.39 9.221 734.779C9.78304 737.167 11.1179 738.924 13.2256 740.048C15.1927 741.031 18.7055 741.523 23.7639 741.523L120.085 741.523ZM138 638.239C138 638.52 137.578 638.66 136.735 638.66C135.892 638.66 135.471 638.52 135.471 638.239C135.471 632.759 135.12 628.754 134.417 626.225C133.714 623.555 132.38 621.729 130.412 620.745C128.305 619.762 125.143 619.27 120.928 619.27L23.3424 619.27C19.1271 619.27 16.0358 619.762 14.0687 620.745C12.1015 621.729 10.7666 623.555 10.0641 626.225C9.22099 628.754 8.79945 632.759 8.79945 638.239C8.79945 638.52 8.37792 638.66 7.53485 638.66C6.69178 638.66 6.27025 638.52 6.27025 638.239L6.48102 627.701C6.76204 622.08 6.90255 617.443 6.90255 613.79C6.90255 610.418 6.76204 606.062 6.48102 600.722L6.27025 591.87C6.27025 591.449 6.69179 591.238 7.53485 591.238C8.37792 591.238 8.79946 591.449 8.79946 591.87C8.79946 596.647 9.22099 600.16 10.0641 602.408C10.7666 604.657 12.1015 606.202 14.0687 607.045C16.0358 607.748 19.1271 608.099 23.3424 608.099L120.506 608.099C125.284 608.099 128.445 607.818 129.991 607.256C131.536 606.694 132.52 605.359 132.942 603.252C133.363 601.144 133.574 596.788 133.574 590.184L133.574 562.995C133.574 556.11 133.363 551.543 132.942 549.295C132.52 546.906 131.536 545.431 129.991 544.869C128.445 544.307 125.284 544.026 120.506 544.026L23.3424 544.026C19.1271 544.026 16.0358 544.447 14.0687 545.29C12.1015 545.993 10.7666 547.468 10.0641 549.717C9.22099 551.965 8.79946 555.478 8.79946 560.255C8.79946 560.676 8.37792 560.887 7.53485 560.887C6.69179 560.887 6.27025 560.676 6.27025 560.255L6.48102 551.403C6.76204 546.063 6.90255 541.707 6.90255 538.335C6.90255 534.963 6.76204 530.747 6.48102 525.689L6.27025 516.415C6.27025 515.994 6.69179 515.783 7.53485 515.783C8.37792 515.783 8.79946 515.994 8.79946 516.415C8.79946 521.193 9.22099 524.776 10.0641 527.164C10.7666 529.413 12.1015 530.958 14.0687 531.801C16.0358 532.504 19.1271 532.855 23.3424 532.855L120.928 532.855C125.003 532.855 127.953 532.223 129.78 530.958C131.466 529.694 132.52 527.726 132.942 525.057C133.363 522.246 133.574 517.75 133.574 511.568L133.574 487.751C133.574 480.866 133.363 476.299 132.942 474.051C132.52 471.662 131.536 470.187 129.991 469.625C128.445 469.063 125.284 468.782 120.506 468.782L23.3424 468.782C19.1271 468.782 16.0358 469.203 14.0687 470.046C12.1015 470.749 10.7666 472.224 10.0641 474.472C9.22099 476.721 8.79946 480.233 8.79946 485.011C8.79946 485.432 8.37792 485.643 7.53485 485.643C6.69179 485.643 6.27025 485.432 6.27025 485.011L6.48102 476.159C6.76204 470.819 6.90255 466.463 6.90255 463.091C6.90255 459.578 6.76204 454.871 6.48102 448.97L6.27025 438.853C6.27025 438.431 6.69179 438.22 7.53485 438.22C8.37792 438.22 8.79946 438.431 8.79946 438.853C8.79946 444.333 9.22099 448.408 10.0641 451.077C10.7666 453.607 12.1015 455.363 14.0687 456.346C16.0358 457.33 19.1271 457.822 23.3424 457.822L120.928 457.822C125.143 457.822 128.305 457.33 130.412 456.346C132.38 455.363 133.714 453.607 134.417 451.077C135.12 448.408 135.471 444.333 135.471 438.853C135.471 438.431 135.892 438.22 136.735 438.22C137.578 438.22 138 438.431 138 438.853L138 638.239ZM120.085 370.663C124.581 370.663 127.883 370.031 129.991 368.766C131.958 367.501 133.363 365.113 134.206 361.6C135.049 357.947 135.471 352.186 135.471 344.317C135.471 343.895 135.892 343.685 136.735 343.685C137.578 343.685 138 343.895 138 344.317C138 350.078 137.93 354.574 137.789 357.806L137.578 376.143L137.789 390.053C137.93 392.583 138 396.095 138 400.592C138 400.873 137.578 401.013 136.735 401.013C135.892 401.013 135.471 400.873 135.471 400.592C135.471 395.112 135.12 391.107 134.417 388.578C133.714 385.908 132.38 384.152 130.412 383.309C128.305 382.325 125.143 381.834 120.928 381.834L23.3424 381.834C19.1271 381.834 16.0358 382.325 14.0687 383.309C12.1015 384.152 10.7666 385.908 10.0641 388.578C9.22099 391.107 8.79946 395.112 8.79946 400.592C8.79946 400.873 8.37792 401.013 7.53486 401.013C6.69179 401.013 6.27025 400.873 6.27025 400.592L6.48102 390.264C6.76204 384.363 6.90255 379.726 6.90255 376.354C6.90255 372.981 6.69178 369.117 6.27025 364.761C5.84872 353.801 5.63795 347.83 5.63795 346.846C5.63795 334.481 8.51844 324.434 14.2794 316.706C19.8999 308.978 28.5414 305.114 40.2038 305.114C49.6181 305.114 57.557 307.433 64.0206 312.069C70.3436 316.706 75.0507 322.608 78.142 329.774C81.2333 336.799 82.7789 344.106 82.7789 351.694C82.7789 355.909 82.4276 359.352 81.7251 362.021C81.7251 362.443 81.3738 362.654 80.6712 362.654C80.2497 362.654 79.8281 362.583 79.4066 362.443C78.9851 362.162 78.8446 361.881 78.9851 361.6C79.5471 359.352 79.8281 356.822 79.8281 354.012C79.8281 344.036 76.8071 335.605 70.7651 328.72C64.7231 321.694 55.9411 318.182 44.4192 318.182C36.9721 318.182 30.5788 319.657 25.2393 322.608C19.7594 325.559 15.6143 329.633 12.804 334.832C9.8533 339.891 8.37793 345.511 8.37793 351.694C8.37793 357.455 8.65895 361.53 9.221 363.918C9.78304 366.307 11.1179 368.063 13.2256 369.187C15.1927 370.171 18.7055 370.663 23.764 370.663L120.085 370.663ZM6.27026 145.976C6.27026 145.695 6.69179 145.555 7.53486 145.555C8.37793 145.555 8.79946 145.695 8.79946 145.976C8.79946 153.002 13.6471 158.974 23.3424 163.892L108.071 203.937C116.361 207.731 121.42 210.05 123.246 210.893C128.445 213.141 131.958 214.757 133.785 215.74C135.471 216.724 136.595 217.778 137.157 218.902C137.719 219.886 138 221.431 138 223.539L138 253.468C138 253.889 137.578 254.1 136.735 254.1C135.892 254.1 135.471 253.889 135.471 253.468C135.471 242.929 133.504 234.218 129.569 227.333C125.494 220.307 118.469 214.335 108.493 209.417L23.764 254.522C18.1435 257.472 14.2794 260.283 12.1717 262.952C9.92356 265.482 8.79946 268.854 8.79946 273.069C8.79946 273.35 8.37792 273.491 7.53486 273.491C6.69179 273.491 6.27025 273.35 6.27025 273.069L6.48102 264.006C6.76204 259.791 6.90255 256.77 6.90255 254.943C6.90255 250.868 6.76204 246.021 6.48102 240.4L6.27026 231.337C6.27026 230.916 6.69179 230.705 7.53486 230.705C8.37793 230.705 8.79946 230.916 8.79946 231.337C8.79946 240.049 11.0476 244.405 15.544 244.405C17.2302 244.405 19.2676 243.773 21.6563 242.508L94.7926 202.884L22.0778 168.318C19.5486 167.053 17.4409 166.421 15.7548 166.421C13.3661 166.421 11.6097 167.826 10.4856 170.636C9.36151 173.306 8.79946 177.591 8.79946 183.493C8.79946 183.915 8.37793 184.125 7.53486 184.125C6.69179 184.125 6.27026 183.915 6.27026 183.493L6.48102 175.062C6.76204 170.285 6.90255 165.999 6.90255 162.205C6.90255 159.957 6.76204 157.147 6.48102 153.775L6.27026 145.976ZM9.8533 87.7205C9.8533 96.5728 11.961 103.036 16.1763 107.111C20.3917 111.186 27.9091 113.926 38.7285 115.331C39.0095 115.331 39.15 115.753 39.15 116.596C39.15 117.439 39.0095 117.86 38.7285 117.86C34.9346 117.298 28.8926 116.666 20.6024 115.963C12.1717 115.261 5.84871 114.91 1.63337 114.91C0.930808 114.91 0.579529 114.488 0.579529 113.645C0.579529 112.802 0.930808 112.38 1.63337 112.38C4.72463 112.38 6.27026 108.657 6.27026 101.21C6.69179 89.1256 6.90255 75.0042 6.90255 58.8454C6.90255 50.5552 6.76204 41.7732 6.48102 32.4994L6.27026 18.1672C6.27026 13.1088 5.91897 9.38523 5.21641 6.99652C4.51385 4.60782 3.10873 3.06219 1.00106 2.35963C0.439012 2.21912 0.157988 1.79759 0.157988 1.09503C0.157988 0.392473 0.439012 0.041194 1.00106 0.041194C4.93539 0.462724 10.9774 0.884258 19.1271 1.3058C27.1362 1.72733 33.67 1.9381 38.7285 1.9381C39.0095 1.9381 39.15 2.35964 39.15 3.20271C39.15 4.04577 39.0095 4.46731 38.7285 4.46731C31.2813 4.46731 25.5204 5.24012 21.4455 6.78576C17.3707 8.33138 14.4199 10.9309 12.5933 14.5842C10.7666 18.2375 9.8533 23.3661 9.8533 29.9702C9.8533 37.2768 10.1343 42.4055 10.6964 45.3562C11.1179 48.307 12.242 50.3444 14.0687 51.4685C15.8953 52.4521 19.1271 52.9439 23.764 52.9439L120.928 52.9439C125.284 52.9439 128.445 52.4521 130.412 51.4685C132.38 50.4849 133.714 48.5177 134.417 45.567C135.12 42.6163 135.471 37.9794 135.471 31.6563C135.471 31.3753 135.892 31.2348 136.735 31.2348C137.578 31.2348 138 31.3753 138 31.6563C138 36.2932 137.93 39.9465 137.789 42.6163L137.578 58.8454L137.789 74.2314C137.93 77.0416 138 80.9057 138 85.8236C138 86.1046 137.578 86.2451 136.735 86.2451C135.892 86.2451 135.471 86.1046 135.471 85.8236C135.471 79.5006 135.12 74.8637 134.417 71.9129C133.714 68.9622 132.38 66.995 130.412 66.0115C128.305 64.8874 125.143 64.3253 120.928 64.3253L23.3424 64.3253C18.7055 64.3253 15.544 64.8874 13.8579 66.0115C12.0312 67.1356 10.9071 69.173 10.4856 72.1237C10.0641 74.934 9.8533 80.1329 9.8533 87.7205Z" fill="#EDE0D6"/>
</svg>
