<svg width="214" height="1361" viewBox="0 0 214 1361" fill="none" xmlns="http://www.w3.org/2000/svg">
<path d="M206.162 1114.93C206.162 1114.29 206.802 1113.97 208.081 1113.97C209.36 1113.97 210 1114.29 210 1114.93C210 1121.54 209.893 1126.76 209.68 1130.6L209.36 1152.02L209.68 1171.85C209.893 1175.05 210 1179.52 210 1185.28C210 1185.71 209.36 1185.92 208.081 1185.92C206.802 1185.92 206.162 1185.71 206.162 1185.28C206.162 1177.82 205.629 1172.38 204.564 1168.97C203.284 1165.35 201.152 1163 198.168 1161.94C195.183 1160.66 190.493 1160.23 184.097 1160.66L35.3925 1166.09L207.761 1240.93C208.614 1241.35 209.041 1242.2 209.041 1243.48C209.041 1244.55 208.614 1245.51 207.761 1246.36L36.6717 1324.39L36.0321 1324.71L176.741 1327.27C187.828 1327.48 195.503 1325.67 199.767 1321.83C204.031 1318 206.162 1310.85 206.162 1300.41C206.162 1299.98 206.802 1299.77 208.081 1299.77C209.36 1299.77 210 1299.98 210 1300.41C210 1306.38 209.893 1310.96 209.68 1314.16L209.36 1331.43L209.68 1347.1C209.893 1349.87 210 1354.03 210 1359.57C210 1360 209.36 1360.21 208.081 1360.21C206.802 1360.21 206.162 1360 206.162 1359.57C206.162 1350.61 204.031 1344.33 199.767 1340.7C195.289 1336.86 187.614 1334.84 176.741 1334.62L25.1591 1331.43C17.6973 1338.04 13.9663 1346.67 13.9663 1357.33C13.9663 1357.76 13.3268 1357.97 12.0476 1357.97C10.7684 1357.97 10.1288 1357.76 10.1288 1357.33L10.4486 1346.46C10.6618 1344.33 10.7684 1341.55 10.7684 1338.14C10.7684 1334.73 10.6618 1331.85 10.4486 1329.51C10.2354 1327.16 10.1288 1325.35 10.1288 1324.07C10.1288 1321.09 11.1948 1318.74 13.3268 1317.04C15.2455 1315.33 19.7226 1312.77 26.7581 1309.36L182.178 1237.41L18.1237 1165.77C15.7785 1164.71 13.8597 1163.32 12.3674 1161.62C10.875 1159.7 10.1288 1157.89 10.1288 1156.18C10.1288 1155.33 10.2354 1153.94 10.4486 1152.02C10.6618 1150.1 10.7684 1147.44 10.7684 1144.03L10.4486 1129.64C10.2354 1127.5 10.1288 1124.2 10.1288 1119.72C10.1288 1119.3 10.7684 1119.08 12.0476 1119.08C13.3268 1119.08 13.9663 1119.3 13.9663 1119.72C13.9663 1130.81 15.4587 1138.7 18.4435 1143.39C21.215 1147.87 26.8647 1150 35.3925 1149.78L184.097 1143.71C190.706 1143.49 195.503 1142.75 198.487 1141.47C201.472 1139.98 203.498 1137.31 204.564 1133.47C205.629 1129.42 206.162 1123.24 206.162 1114.93ZM163.31 925.264C162.671 925.264 162.457 924.624 162.671 923.345C162.671 922.066 162.99 921.426 163.63 921.426C177.061 923.345 190.919 924.304 205.203 924.304C206.909 924.304 208.188 924.731 209.041 925.583C209.68 926.223 210 927.502 210 929.421L210 1061.5C210 1061.92 209.36 1062.14 208.081 1062.14C206.802 1062.14 206.162 1061.92 206.162 1061.5C206.162 1053.18 205.629 1047.11 204.564 1043.27C203.498 1039.22 201.472 1036.55 198.487 1035.27C195.289 1033.78 190.493 1033.03 184.097 1033.03L36.0321 1033.03C29.6362 1033.03 24.9459 1033.78 21.9612 1035.27C18.9764 1036.55 16.9511 1039.22 15.8851 1043.27C14.6059 1047.11 13.9663 1053.18 13.9663 1061.5C13.9663 1061.92 13.3268 1062.14 12.0476 1062.14C10.7684 1062.14 10.1288 1061.92 10.1288 1061.5L10.1288 934.857C10.1288 932.939 11.0882 931.979 13.007 931.979L51.702 931.34C52.3416 931.34 52.6614 931.979 52.6614 933.258C52.6614 934.324 52.3416 934.857 51.702 934.857C40.829 934.857 32.1946 937.736 25.7987 943.492C19.4028 949.248 16.2049 956.817 16.2049 966.197L16.2049 988.263C16.2049 996.364 16.7379 1002.33 17.8039 1006.17C18.8699 1010.01 20.8952 1012.67 23.88 1014.17C26.8647 1015.45 31.555 1016.09 37.9509 1016.09L102.869 1016.09L102.869 973.872C102.869 964.065 101.27 957.243 98.0721 953.405C94.661 949.568 88.9047 947.649 80.8033 947.649C80.3769 947.649 80.1637 947.01 80.1637 945.73C80.1637 944.451 80.3769 943.812 80.8033 943.812L106.067 944.131C112.25 944.131 116.833 944.025 119.818 943.812L134.848 943.492C135.275 943.492 135.488 944.131 135.488 945.411C135.488 946.69 135.275 947.329 134.848 947.329C125.255 947.329 118.539 949.355 114.701 953.405C110.864 957.456 108.945 964.598 108.945 974.832L108.945 1016.09L182.818 1016.09C189 1016.09 193.584 1015.45 196.569 1014.17C199.34 1012.67 201.259 1010.12 202.325 1006.49C203.391 1002.65 203.924 996.578 203.924 988.263L203.924 958.842C203.924 950.314 200.193 943.065 192.731 937.096C185.269 930.913 175.462 926.969 163.31 925.264ZM15.5653 815.509C15.5653 828.941 18.7633 838.748 25.1591 844.93C31.555 851.113 42.961 855.27 59.3771 857.402C59.8035 857.402 60.0167 858.042 60.0167 859.321C60.0167 860.6 59.8035 861.24 59.3771 861.24C53.6208 860.387 44.4534 859.428 31.8748 858.362C19.083 857.296 9.48923 856.763 3.09336 856.763C2.02738 856.763 1.49439 856.123 1.49439 854.844C1.49439 853.565 2.02738 852.925 3.09336 852.925C7.78367 852.925 10.1288 847.275 10.1288 835.976C10.7684 817.641 11.0882 796.215 11.0882 771.698C11.0882 759.119 10.875 745.794 10.4486 731.723L10.1288 709.977C10.1288 702.302 9.59583 696.653 8.52984 693.028C7.46386 689.404 5.33191 687.059 2.13397 685.993C1.28119 685.78 0.854794 685.14 0.854794 684.074C0.854794 683.008 1.28119 682.475 2.13397 682.475C8.10346 683.115 17.2709 683.754 29.6363 684.394C41.7884 685.033 51.702 685.353 59.3771 685.353C59.8035 685.353 60.0167 685.993 60.0167 687.272C60.0167 688.551 59.8035 689.191 59.3771 689.191C48.0777 689.191 39.3367 690.363 33.154 692.708C26.9713 695.054 22.4942 698.998 19.7226 704.541C16.9511 710.084 15.5653 717.866 15.5653 727.886C15.5653 738.972 15.9917 746.754 16.8445 751.231C17.4841 755.708 19.1897 758.799 21.9612 760.505C24.7327 761.997 29.6362 762.743 36.6717 762.743L184.097 762.743C190.706 762.743 195.503 761.997 198.487 760.505C201.472 759.012 203.498 756.028 204.564 751.551C205.629 747.073 206.162 740.038 206.162 730.444C206.162 730.018 206.802 729.805 208.081 729.805C209.36 729.805 210 730.018 210 730.444C210 737.48 209.893 743.023 209.68 747.073L209.36 771.698L209.68 795.042C209.893 799.306 210 805.169 210 812.631C210 813.058 209.36 813.271 208.081 813.271C206.802 813.271 206.162 813.058 206.162 812.631C206.162 803.037 205.629 796.002 204.564 791.525C203.498 787.048 201.472 784.063 198.487 782.571C195.289 780.865 190.493 780.012 184.097 780.012L36.0321 780.012C28.9967 780.012 24.1998 780.865 21.6414 782.571C18.8698 784.276 17.1643 787.367 16.5247 791.845C15.8851 796.108 15.5653 803.997 15.5653 815.509ZM163.31 488.732C162.671 488.732 162.457 488.093 162.671 486.814C162.671 485.535 162.99 484.895 163.63 484.895C177.061 486.814 190.919 487.773 205.203 487.773C206.909 487.773 208.188 488.199 209.041 489.052C209.68 489.692 210 490.971 210 492.89L210 624.965C210 625.391 209.36 625.604 208.081 625.604C206.802 625.604 206.162 625.391 206.162 624.965C206.162 616.65 205.629 610.574 204.564 606.736C203.498 602.686 201.472 600.021 198.487 598.742C195.289 597.249 190.493 596.503 184.097 596.503L36.0321 596.503C29.6363 596.503 24.9459 597.249 21.9612 598.742C18.9765 600.021 16.9511 602.686 15.8851 606.736C14.6059 610.574 13.9663 616.65 13.9663 624.965C13.9663 625.391 13.3268 625.604 12.0476 625.604C10.7684 625.604 10.1288 625.391 10.1288 624.965L10.1288 498.326C10.1288 496.408 11.0882 495.448 13.007 495.448L51.702 494.809C52.3416 494.809 52.6614 495.448 52.6614 496.727C52.6614 497.793 52.3416 498.326 51.702 498.326C40.829 498.326 32.1946 501.204 25.7987 506.961C19.4029 512.717 16.2049 520.285 16.2049 529.666L16.2049 551.732C16.2049 559.833 16.7379 565.803 17.8039 569.64C18.8699 573.478 20.8952 576.143 23.88 577.635C26.8647 578.914 31.555 579.554 37.9509 579.554L102.869 579.554L102.869 537.341C102.869 527.534 101.27 520.712 98.0721 516.874C94.661 513.037 88.9047 511.118 80.8033 511.118C80.3769 511.118 80.1637 510.478 80.1637 509.199C80.1637 507.92 80.3769 507.28 80.8033 507.28L106.067 507.6C112.25 507.6 116.833 507.494 119.818 507.28L134.848 506.961C135.275 506.961 135.488 507.6 135.488 508.879C135.488 510.159 135.275 510.798 134.848 510.798C125.255 510.798 118.539 512.824 114.701 516.874C110.864 520.925 108.945 528.067 108.945 538.301L108.945 579.554L182.818 579.554C189 579.554 193.584 578.914 196.569 577.635C199.34 576.143 201.259 573.584 202.325 569.96C203.391 566.123 203.924 560.046 203.924 551.732L203.924 522.311C203.924 513.783 200.193 506.534 192.731 500.565C185.269 494.382 175.462 490.438 163.31 488.732ZM213.838 319.497C213.838 339.324 209.254 357.019 200.086 372.582C190.706 387.932 178.127 399.871 162.351 408.399C146.361 416.714 128.986 420.871 110.224 420.871C88.2651 420.871 69.5039 415.328 53.9406 404.242C38.1641 393.156 26.3317 378.978 18.4435 361.709C10.5552 344.227 6.61109 326.425 6.61109 308.304C6.61109 288.05 11.408 270.248 21.0018 254.898C30.3824 239.548 42.8544 227.822 58.4177 219.721C73.981 211.406 90.5037 207.249 107.986 207.249C127.387 207.249 145.188 212.366 161.391 222.599C177.594 232.832 190.386 246.583 199.767 263.852C209.147 280.908 213.838 299.456 213.838 319.497ZM207.442 307.984C207.442 292.847 203.924 279.202 196.888 267.05C189.853 254.898 179.513 245.304 165.868 238.269C152.224 231.233 135.914 227.716 116.94 227.716C96.8996 227.716 79.0977 231.66 63.5344 239.548C47.7579 247.223 35.4991 258.203 26.7581 272.487C18.0171 286.558 13.6466 302.974 13.6466 321.735C13.6466 346.466 21.3216 365.76 36.6717 379.618C52.0218 393.476 72.915 400.404 99.3513 400.404C119.179 400.404 137.407 396.567 154.036 388.892C170.452 381.004 183.457 370.024 193.051 355.953C202.645 341.882 207.442 325.892 207.442 307.984ZM182.818 100.238C189.64 100.238 194.65 99.2784 197.848 97.3597C200.833 95.4409 202.965 91.8166 204.244 86.4867C205.523 80.9436 206.162 72.2026 206.162 60.2636C206.162 59.624 206.802 59.3042 208.081 59.3042C209.36 59.3042 210 59.624 210 60.2636C210 69.0046 209.893 75.8269 209.68 80.7304L209.36 108.552L209.68 129.659C209.893 133.496 210 138.826 210 145.649C210 146.075 209.36 146.288 208.081 146.288C206.802 146.288 206.162 146.075 206.162 145.649C206.162 137.334 205.629 131.258 204.564 127.42C203.498 123.37 201.472 120.705 198.487 119.425C195.289 117.933 190.493 117.187 184.097 117.187L36.0321 117.187C29.6363 117.187 24.946 117.933 21.9612 119.425C18.9765 120.705 16.9511 123.37 15.8851 127.42C14.6059 131.258 13.9664 137.334 13.9664 145.649C13.9664 146.075 13.3268 146.288 12.0476 146.288C10.7684 146.288 10.1288 146.075 10.1288 145.649L10.4486 129.979C10.875 121.024 11.0882 113.989 11.0882 108.872C11.0882 103.756 10.7684 97.8927 10.1288 91.2836C9.48925 74.6543 9.16945 65.5935 9.16945 64.1011C9.16945 45.3399 13.54 30.0964 22.281 18.3706C30.8088 6.64481 43.9204 0.781921 61.6156 0.781921C75.8998 0.781921 87.9453 4.29965 97.7524 11.3351C107.346 18.3706 114.488 27.3248 119.179 38.1978C123.869 48.8576 126.214 59.9438 126.214 71.4564C126.214 77.8522 125.681 83.0755 124.615 87.1263C124.615 87.7659 124.082 88.0857 123.016 88.0857C122.376 88.0857 121.737 87.9791 121.097 87.7659C120.458 87.3395 120.245 86.9131 120.458 86.4867C121.311 83.0755 121.737 79.238 121.737 74.9741C121.737 59.8372 117.153 47.0454 107.986 36.5988C98.8183 25.939 85.4936 20.6091 68.0115 20.6091C56.7121 20.6091 47.0117 22.8477 38.9103 27.3248C30.5956 31.8019 24.3064 37.9846 20.0424 45.8729C15.5653 53.5479 13.3268 62.0757 13.3268 71.4564C13.3268 80.1974 13.7532 86.3801 14.606 90.0044C15.4587 93.6287 17.4841 96.2937 20.682 97.9993C23.6668 99.4916 28.9967 100.238 36.6717 100.238L182.818 100.238Z" fill="#EDE0D6"/>
</svg>
