<svg width="26" height="26" viewBox="0 0 26 26" fill="none" xmlns="http://www.w3.org/2000/svg">
<g id="Frame" clip-path="url(#clip0_204_640)">
<path id="Icon" opacity="0.2" d="M13 0.928467L15.5619 3.43861L19.0357 2.54573L19.9993 6.00055L23.4541 6.96418L22.5613 10.438L25.0714 12.9999L22.5613 15.5618L23.4541 19.0356L19.9993 19.9992L19.0357 23.4541L15.5619 22.5612L13 25.0713L10.438 22.5612L6.96427 23.4541L6.00064 19.9992L2.54582 19.0356L3.4387 15.5618L0.928558 12.9999L3.4387 10.438L2.54582 6.96418L6.00064 6.00055L6.96427 2.54573L10.438 3.43861L13 0.928467Z" fill="#0D99FF"/>
<path id="Icon_2" d="M8.97618 12.9999L11.6587 15.6824L17.0238 10.3174M13 0.928467L15.5619 3.43861L19.0357 2.54573L19.9993 6.00055L23.4541 6.96418L22.5613 10.438L25.0714 12.9999L22.5613 15.5618L23.4541 19.0356L19.9993 19.9992L19.0357 23.4541L15.5619 22.5612L13 25.0713L10.438 22.5612L6.96427 23.4541L6.00064 19.9992L2.54582 19.0356L3.4387 15.5618L0.928558 12.9999L3.4387 10.438L2.54582 6.96418L6.00064 6.00055L6.96427 2.54573L10.438 3.43861L13 0.928467Z" stroke="#0D99FF" stroke-width="2" stroke-linecap="round" stroke-linejoin="round"/>
</g>
<defs>
<clipPath id="clip0_204_640">
<rect width="26" height="26" fill="white" transform="matrix(-1 0 0 1 26 0)"/>
</clipPath>
</defs>
</svg>
