<svg width="28" height="28" viewBox="0 0 28 28" fill="none" xmlns="http://www.w3.org/2000/svg">
<g id="&#208;&#184;&#208;&#186;&#208;&#190;&#208;&#189;&#208;&#186;&#208;&#176;">
<rect id="Rectangle 13" x="1" y="4" width="26" height="23" rx="2" fill="#0D99FF" fill-opacity="0.2"/>
<rect id="Rectangle 14" x="5" y="15" width="6" height="5" fill="white"/>
<path id="Icon" d="M1 9.66667H27M6.77778 1V3.88889M21.2222 1V3.88889M5.33333 14H11.1111V19.7778H5.33333V14ZM5.62222 27H22.3778C23.9957 27 24.8047 27 25.4226 26.6851C25.9662 26.4082 26.4082 25.9662 26.6851 25.4226C27 24.8047 27 23.9957 27 22.3778V8.51111C27 6.89318 27 6.08422 26.6851 5.46625C26.4082 4.92267 25.9662 4.48073 25.4226 4.20376C24.8047 3.88889 23.9957 3.88889 22.3778 3.88889H5.62222C4.00429 3.88889 3.19533 3.88889 2.57736 4.20376C2.03378 4.48073 1.59184 4.92267 1.31487 5.46625C1 6.08422 1 6.89318 1 8.51111V22.3778C1 23.9957 1 24.8047 1.31487 25.4226C1.59184 25.9662 2.03378 26.4082 2.57736 26.6851C3.19533 27 4.00429 27 5.62222 27Z" stroke="#0D99FF" stroke-width="2" stroke-linecap="round" stroke-linejoin="round"/>
</g>
</svg>
