<svg width="26" height="26" viewBox="0 0 26 26" fill="none" xmlns="http://www.w3.org/2000/svg">
<g id="Group 10">
<circle id="Ellipse 11" cx="13.5" cy="13.5" r="12.5" fill="#0D99FF" fill-opacity="0.2"/>
<path id="Icon" d="M8.3206 18.3032C8.3206 18.3032 9.4415 18.7909 10.184 18.9201C12.3749 19.3013 13.5834 17.3052 15.7743 17.6864C16.5168 17.8155 17.6377 18.3032 17.6377 18.3032M6.98958 12.9792C6.98958 12.9792 8.43073 13.4669 9.38542 13.596C12.2023 13.9772 13.756 11.9811 16.5729 12.3623C17.5276 12.4915 18.9688 12.9792 18.9688 12.9792M8.3206 7.6551C8.3206 7.6551 9.4415 8.14279 10.184 8.27196C12.3749 8.65312 13.5834 6.65707 15.7743 7.03822C16.5168 7.1674 17.6377 7.6551 17.6377 7.6551M24.9583 12.9792C24.9583 19.5951 19.5951 24.9583 12.9792 24.9583C6.36326 24.9583 1 19.5951 1 12.9792C1 6.36326 6.36326 1 12.9792 1C19.5951 1 24.9583 6.36326 24.9583 12.9792Z" stroke="#0D99FF" stroke-width="2" stroke-linecap="round" stroke-linejoin="round"/>
</g>
</svg>
