<svg width="54" height="54" viewBox="0 0 54 54" fill="none" xmlns="http://www.w3.org/2000/svg">
<mask id="mask0_305_4511" style="mask-type:luminance" maskUnits="userSpaceOnUse" x="0" y="0" width="54" height="54">
<path d="M0 3.8147e-06H54V54H0V3.8147e-06Z" fill="white"/>
</mask>
<g mask="url(#mask0_305_4511)">
<path d="M15.4935 51.2844L20.2438 53.2019L21.9459 51.134C25.3529 51.9563 28.8178 51.9176 32.0761 51.129L33.8522 53.209L38.5672 51.206L38.3094 48.5446C41.1757 46.7927 43.6527 44.3636 45.4749 41.3753L48.1972 41.5895L50.1152 36.8395L48.0527 35.142C48.8759 31.7331 48.8368 28.2668 48.0465 25.0072L50.1249 23.2321L48.1226 18.5182L45.4595 18.7766C43.707 15.9139 41.279 13.4399 38.2915 11.6201L38.5069 8.89113L33.7572 6.97423L32.0547 9.04195C28.6478 8.21992 25.1829 8.25842 21.9247 9.04648L20.1484 6.96685L15.4332 8.97002L15.6912 11.6312C12.8249 13.3831 10.3481 15.8119 8.5261 18.8004L5.80332 18.5859L3.88558 23.3356L5.94792 25.0334C5.12452 28.442 5.16365 31.9089 5.95382 35.1685L3.87524 36.9428L5.87788 41.6573L8.54087 41.3986C10.2933 44.2615 12.7213 46.7358 15.7089 48.5563L15.4935 51.2844Z" stroke="white" stroke-width="1.5" stroke-miterlimit="10" stroke-linecap="round" stroke-linejoin="round"/>
<path d="M27 4.00781V8.4375" stroke="white" stroke-width="1.5" stroke-miterlimit="10" stroke-linecap="round" stroke-linejoin="round"/>
<path d="M32.0828 2.3791C32.0828 3.25587 31.3718 3.96704 30.4945 3.96704H23.5055C22.6282 3.96704 21.9172 3.25587 21.9172 2.3791C21.9172 1.50203 22.6282 0.791061 23.5055 0.791061H30.4945C31.3718 0.791061 32.0828 1.50203 32.0828 2.3791Z" stroke="white" stroke-width="1.5" stroke-miterlimit="10" stroke-linecap="round" stroke-linejoin="round"/>
<path d="M14.1561 19.8281C11.9057 22.6399 10.5601 26.2068 10.5601 30.0877C10.5601 39.1646 17.9204 46.5225 27 46.5225C36.0796 46.5225 43.4399 39.1646 43.4399 30.0877C43.4399 28.1226 43.0949 26.2377 42.4622 24.4908" stroke="white" stroke-width="1.5" stroke-miterlimit="10" stroke-linecap="round" stroke-linejoin="round"/>
<path d="M27.0001 26.0508V13.6528C23.0897 13.6528 19.4982 15.0177 16.6763 17.2969" stroke="white" stroke-width="1.5" stroke-miterlimit="10" stroke-linecap="round" stroke-linejoin="round"/>
<path d="M42.368 24.4905L31.4238 28.4766" stroke="white" stroke-width="1.5" stroke-miterlimit="10" stroke-linecap="round" stroke-linejoin="round"/>
<path d="M30.0974 13.9446C34.9033 14.8613 38.9668 17.8714 41.3016 21.9893" stroke="white" stroke-width="1.5" stroke-miterlimit="10" stroke-linecap="round" stroke-linejoin="round" stroke-dasharray="1.33 56"/>
<path d="M35.4117 21.3326C35.4117 21.3326 29.625 31.7468 28.3409 33.0282C27.0568 34.3094 24.9768 34.3074 23.695 33.0238C22.4135 31.7402 22.4153 29.6609 23.6995 28.3793C24.9836 27.0981 35.4117 21.3326 35.4117 21.3326Z" stroke="white" stroke-width="1.5" stroke-miterlimit="10" stroke-linecap="round" stroke-linejoin="round"/>
</g>
</svg>
