<svg width="514" height="374" viewBox="0 0 514 374" fill="none" xmlns="http://www.w3.org/2000/svg">
<mask id="mask0_28_2057" style="mask-type:alpha" maskUnits="userSpaceOnUse" x="0" y="0" width="514" height="374">
<rect width="514" height="374" fill="#C4C4C4"/>
</mask>
<g mask="url(#mask0_28_2057)">
<mask id="mask1_28_2057" style="mask-type:alpha" maskUnits="userSpaceOnUse" x="-14" y="-221" width="594" height="595">
<rect x="-13.9849" y="373.955" width="593.97" height="593.97" transform="rotate(-90 -13.9849 373.955)" fill="#FF8424"/>
</mask>
<g mask="url(#mask1_28_2057)">
<path d="M1393.51 -291.08L-16.46 1118.89" stroke="#FF8424" stroke-opacity="0.2"/>
<path d="M1382.2 -302.393L-27.7738 1107.58" stroke="#FF8424" stroke-opacity="0.2"/>
<path d="M1370.88 -313.707L-39.0875 1096.26" stroke="#FF8424" stroke-opacity="0.2"/>
<path d="M1359.57 -325.021L-50.4012 1084.95" stroke="#FF8424" stroke-opacity="0.2"/>
<path d="M1348.26 -336.334L-61.7149 1073.64" stroke="#FF8424" stroke-opacity="0.2"/>
<path d="M1336.94 -347.648L-73.0286 1062.32" stroke="#FF8424" stroke-opacity="0.2"/>
<path d="M1325.63 -358.962L-84.3423 1051.01" stroke="#FF8424" stroke-opacity="0.2"/>
<path d="M1314.31 -370.276L-95.656 1039.7" stroke="#FF8424" stroke-opacity="0.2"/>
<path d="M1303 -381.589L-106.97 1028.38" stroke="#FF8424" stroke-opacity="0.2"/>
<path d="M1291.69 -392.903L-118.283 1017.07" stroke="#FF8424" stroke-opacity="0.2"/>
<path d="M1280.37 -404.217L-129.597 1005.75" stroke="#FF8424" stroke-opacity="0.2"/>
<path d="M1269.06 -415.53L-140.911 994.441" stroke="#FF8424" stroke-opacity="0.2"/>
<path d="M1257.75 -426.844L-152.225 983.127" stroke="#FF8424" stroke-opacity="0.2"/>
<path d="M1246.43 -438.158L-163.538 971.813" stroke="#FF8424" stroke-opacity="0.2"/>
<path d="M1235.12 -449.471L-174.852 960.499" stroke="#FF8424" stroke-opacity="0.2"/>
<path d="M1223.81 -460.785L-186.166 949.186" stroke="#FF8424" stroke-opacity="0.2"/>
<path d="M1212.49 -472.099L-197.479 937.872" stroke="#FF8424" stroke-opacity="0.2"/>
<path d="M1201.18 -483.413L-208.793 926.558" stroke="#FF8424" stroke-opacity="0.2"/>
<path d="M1189.86 -494.726L-220.107 915.245" stroke="#FF8424" stroke-opacity="0.2"/>
<path d="M1178.55 -506.04L-231.421 903.931" stroke="#FF8424" stroke-opacity="0.2"/>
<path d="M1167.24 -517.354L-242.734 892.617" stroke="#FF8424" stroke-opacity="0.2"/>
<path d="M1155.92 -528.667L-254.048 881.303" stroke="#FF8424" stroke-opacity="0.2"/>
<path d="M1144.61 -539.981L-265.362 869.99" stroke="#FF8424" stroke-opacity="0.2"/>
<path d="M1133.3 -551.295L-276.675 858.676" stroke="#FF8424" stroke-opacity="0.2"/>
<path d="M1121.98 -562.609L-287.989 847.362" stroke="#FF8424" stroke-opacity="0.2"/>
<path d="M1110.67 -573.922L-299.303 836.049" stroke="#FF8424" stroke-opacity="0.2"/>
<path d="M1099.35 -585.236L-310.616 824.735" stroke="#FF8424" stroke-opacity="0.2"/>
<path d="M1088.04 -596.55L-321.93 813.421" stroke="#FF8424" stroke-opacity="0.2"/>
<path d="M1076.73 -607.863L-333.244 802.108" stroke="#FF8424" stroke-opacity="0.2"/>
<path d="M1065.41 -619.177L-344.558 790.794" stroke="#FF8424" stroke-opacity="0.2"/>
<path d="M1054.1 -630.491L-355.871 779.48" stroke="#FF8424" stroke-opacity="0.2"/>
<path d="M1042.79 -641.805L-367.185 768.166" stroke="#FF8424" stroke-opacity="0.2"/>
<path d="M1031.47 -653.118L-378.499 756.853" stroke="#FF8424" stroke-opacity="0.2"/>
<path d="M1020.16 -664.432L-389.812 745.539" stroke="#FF8424" stroke-opacity="0.2"/>
<path d="M1008.84 -675.746L-401.126 734.225" stroke="#FF8424" stroke-opacity="0.2"/>
<path d="M997.531 -687.059L-412.44 722.912" stroke="#FF8424" stroke-opacity="0.2"/>
<path d="M986.217 -698.373L-423.754 711.598" stroke="#FF8424" stroke-opacity="0.2"/>
<path d="M974.904 -709.687L-435.067 700.284" stroke="#FF8424" stroke-opacity="0.2"/>
<path d="M963.59 -721.001L-446.381 688.97" stroke="#FF8424" stroke-opacity="0.2"/>
<path d="M952.276 -732.314L-457.695 677.657" stroke="#FF8424" stroke-opacity="0.2"/>
<path d="M940.963 -743.628L-469.008 666.343" stroke="#FF8424" stroke-opacity="0.2"/>
<path d="M929.649 -754.942L-480.322 655.029" stroke="#FF8424" stroke-opacity="0.2"/>
<path d="M918.335 -766.255L-491.636 643.716" stroke="#FF8424" stroke-opacity="0.2"/>
<path d="M907.021 -777.569L-502.95 632.402" stroke="#FF8424" stroke-opacity="0.2"/>
<path d="M895.708 -788.883L-514.263 621.088" stroke="#FF8424" stroke-opacity="0.2"/>
<path d="M884.394 -800.196L-525.577 609.774" stroke="#FF8424" stroke-opacity="0.2"/>
<path d="M873.08 -811.51L-536.891 598.461" stroke="#FF8424" stroke-opacity="0.2"/>
<path d="M861.767 -822.824L-548.204 587.147" stroke="#FF8424" stroke-opacity="0.2"/>
<path d="M850.453 -834.138L-559.518 575.833" stroke="#FF8424" stroke-opacity="0.2"/>
<path d="M839.139 -845.451L-570.832 564.52" stroke="#FF8424" stroke-opacity="0.2"/>
<path d="M827.825 -856.765L-582.145 553.206" stroke="#FF8424" stroke-opacity="0.2"/>
<path d="M816.512 -868.079L-593.459 541.892" stroke="#FF8424" stroke-opacity="0.2"/>
<path d="M805.198 -879.392L-604.773 530.579" stroke="#FF8424" stroke-opacity="0.2"/>
<path d="M793.884 -890.706L-616.087 519.265" stroke="#FF8424" stroke-opacity="0.2"/>
<path d="M782.571 -902.02L-627.4 507.951" stroke="#FF8424" stroke-opacity="0.2"/>
<path d="M771.257 -913.334L-638.714 496.637" stroke="#FF8424" stroke-opacity="0.2"/>
<path d="M759.943 -924.647L-650.028 485.324" stroke="#FF8424" stroke-opacity="0.2"/>
<path d="M748.63 -935.961L-661.341 474.01" stroke="#FF8424" stroke-opacity="0.2"/>
<path d="M737.316 -947.275L-672.655 462.696" stroke="#FF8424" stroke-opacity="0.2"/>
<path d="M726.002 -958.588L-683.969 451.383" stroke="#FF8424" stroke-opacity="0.2"/>
<path d="M714.688 -969.902L-695.283 440.069" stroke="#FF8424" stroke-opacity="0.2"/>
<path d="M703.375 -981.216L-706.596 428.755" stroke="#FF8424" stroke-opacity="0.2"/>
<path d="M692.061 -992.53L-717.91 417.441" stroke="#FF8424" stroke-opacity="0.2"/>
<path d="M680.747 -1003.84L-729.224 406.128" stroke="#FF8424" stroke-opacity="0.2"/>
<path d="M669.434 -1015.16L-740.537 394.814" stroke="#FF8424" stroke-opacity="0.2"/>
<path d="M658.12 -1026.47L-751.851 383.5" stroke="#FF8424" stroke-opacity="0.2"/>
<path d="M646.806 -1037.78L-763.165 372.187" stroke="#FF8424" stroke-opacity="0.2"/>
<path d="M635.492 -1049.1L-774.479 360.873" stroke="#FF8424" stroke-opacity="0.2"/>
<path d="M624.179 -1060.41L-785.792 349.559" stroke="#FF8424" stroke-opacity="0.2"/>
<path d="M612.865 -1071.73L-797.106 338.245" stroke="#FF8424" stroke-opacity="0.2"/>
<path d="M601.551 -1083.04L-808.42 326.932" stroke="#FF8424" stroke-opacity="0.2"/>
<path d="M590.238 -1094.35L-819.733 315.618" stroke="#FF8424" stroke-opacity="0.2"/>
<path d="M578.924 -1105.67L-831.047 304.304" stroke="#FF8424" stroke-opacity="0.2"/>
<path d="M567.61 -1116.98L-842.361 292.991" stroke="#FF8424" stroke-opacity="0.2"/>
<path d="M556.296 -1128.29L-853.674 281.677" stroke="#FF8424" stroke-opacity="0.2"/>
<path d="M544.983 -1139.61L-864.988 270.363" stroke="#FF8424" stroke-opacity="0.2"/>
<path d="M533.669 -1150.92L-876.302 259.05" stroke="#FF8424" stroke-opacity="0.2"/>
<path d="M522.355 -1162.24L-887.616 247.736" stroke="#FF8424" stroke-opacity="0.2"/>
<path d="M511.042 -1173.55L-898.929 236.422" stroke="#FF8424" stroke-opacity="0.2"/>
<path d="M499.728 -1184.86L-910.243 225.108" stroke="#FF8424" stroke-opacity="0.2"/>
<path d="M488.414 -1196.18L-921.557 213.795" stroke="#FF8424" stroke-opacity="0.2"/>
<path d="M477.101 -1207.49L-932.87 202.481" stroke="#FF8424" stroke-opacity="0.2"/>
<path d="M465.787 -1218.8L-944.184 191.167" stroke="#FF8424" stroke-opacity="0.2"/>
<path d="M454.473 -1230.12L-955.498 179.854" stroke="#FF8424" stroke-opacity="0.2"/>
<path d="M443.159 -1241.43L-966.812 168.54" stroke="#FF8424" stroke-opacity="0.2"/>
<path d="M431.846 -1252.74L-978.125 157.226" stroke="#FF8424" stroke-opacity="0.2"/>
<path d="M420.532 -1264.06L-989.439 145.912" stroke="#FF8424" stroke-opacity="0.2"/>
<path d="M409.218 -1275.37L-1000.75 134.599" stroke="#FF8424" stroke-opacity="0.2"/>
<path d="M397.905 -1286.69L-1012.07 123.285" stroke="#FF8424" stroke-opacity="0.2"/>
<path d="M386.591 -1298L-1023.38 111.971" stroke="#FF8424" stroke-opacity="0.2"/>
<path d="M375.277 -1309.31L-1034.69 100.658" stroke="#FF8424" stroke-opacity="0.2"/>
</g>
</g>
</svg>
