<svg width="40" height="40" viewBox="0 0 40 40" fill="none" xmlns="http://www.w3.org/2000/svg">
<path d="M20.24 2.16003C16.24 2.16003 12.96 5.44003 12.96 9.44004C12.96 13.52 16.32 18.56 20.24 18.56C24.16 18.56 27.52 13.52 27.52 9.44004C27.52 5.44003 24.24 2.16003 20.24 2.16003ZM20.24 16.96C17.2 16.96 14.56 12.72 14.56 9.44004C14.56 6.32003 17.12 3.76003 20.24 3.76003C23.36 3.76003 25.92 6.32003 25.92 9.44004C25.92 12.72 23.2 16.96 20.24 16.96Z" fill="#0FAFEB"/>
<path d="M31.44 22.4801C34.08 22.4801 36.24 19.2001 36.24 16.4801C36.24 13.8401 34.08 11.6801 31.44 11.6801C28.8 11.6801 26.64 13.8401 26.64 16.4801C26.56 19.2801 28.72 22.4801 31.44 22.4801ZM31.44 13.3601C33.2 13.3601 34.64 14.8001 34.64 16.5601C34.64 18.4801 33.04 20.9601 31.44 20.9601C29.84 20.9601 28.24 18.4801 28.24 16.5601C28.16 14.8001 29.6 13.3601 31.44 13.3601Z" fill="#0FAFEB"/>
<path d="M39.2 30.2401C39.12 26.6401 36.16 23.6801 32.48 23.6801H30.08C29.76 23.6801 29.36 23.7601 29.04 23.7601C27.2 21.8401 24.72 20.7201 22 20.7201H18.16C15.52 20.7201 12.96 21.8401 11.04 23.7601C10 23.6001 9.76 23.6801 7.52 23.6801C4 23.6801 0.960003 26.4801 0.800003 30.1601V33.2001C0.800003 33.6801 1.12 34.0001 1.6 34.0001H7.76V37.0401C7.76 37.5201 8.08 37.8401 8.56 37.8401H31.52C32 37.8401 32.32 37.5201 32.32 37.0401V34.0001H38.4C38.88 34.0001 39.2 33.6801 39.2 33.2001V30.2401ZM2.4 32.4001V30.2401C2.48 27.5201 4.72 25.2801 7.52 25.2801H9.84C8.56 27.1201 7.84 29.2801 7.76 31.6801V32.4001H2.4V32.4001ZM30.72 36.2401H9.36V33.2001V31.6801C9.52 26.6401 13.2 22.3201 18.08 22.3201H21.92C26.64 22.3201 30.56 26.6401 30.64 31.8401V36.2401H30.72ZM37.6 32.4001H32.32V31.8401C32.32 29.3601 31.52 27.1201 30.24 25.2801H32.48C35.28 25.2801 37.52 27.5201 37.6 30.3201V32.4001V32.4001Z" fill="#0FAFEB"/>
<path d="M8.8 22.4801C11.44 22.4801 13.6 19.2001 13.6 16.4801C13.6 13.8401 11.44 11.6801 8.8 11.6801C6.16 11.6801 4 13.8401 4 16.4801C4 19.2801 6.16 22.4801 8.8 22.4801ZM8.8 13.3601C10.56 13.3601 12 14.8001 12 16.5601C12 18.4801 10.4 20.9601 8.8 20.9601C7.2 20.9601 5.6 18.4801 5.6 16.5601C5.6 14.8001 7.04 13.3601 8.8 13.3601Z" fill="#0FAFEB"/>
</svg>
