<svg width="40" height="40" viewBox="0 0 40 40" fill="none" xmlns="http://www.w3.org/2000/svg">
<path d="M9.99999 16.08H10.72C12.16 18.88 14.08 20.72 16.48 21.68V21.76C16.24 25.28 14.8 28.56 12.56 31.2H11.84C10.56 31.2 9.43999 32.24 9.43999 33.6V35.04V36.8C9.43999 38.08 10.48 39.2 11.84 39.2H28.24C29.52 39.2 30.64 38.16 30.64 36.8C30.64 36.64 30.64 33.4401 30.64 33.5201C30.64 32.2401 29.6 31.1201 28.24 31.1201H27.52C25.2 28.4801 23.84 25.12 23.6 21.68V21.6C26 20.72 27.92 18.8 29.36 16H30.08C33.68 16 36.64 13.04 36.64 9.52005V7.20005C36.64 5.84005 35.52 4.80005 34.24 4.80005H32.08C32 3.76005 32 2.72005 32 1.60005C32 1.12005 31.68 0.800049 31.2 0.800049H8.79999C8.31999 0.800049 7.99999 1.12005 7.99999 1.60005C7.99999 2.72005 7.99999 3.76005 8.07999 4.80005H5.91999C4.55999 4.80005 3.51999 5.92005 3.51999 7.28005V9.68005C3.51999 13.2 6.39999 16.08 9.99999 16.08ZM28.96 33.6C28.96 33.76 28.96 36.96 28.96 36.88C28.96 37.28 28.64 37.68 28.16 37.68H11.84C11.44 37.68 11.04 37.36 11.04 36.88C11.04 36.72 11.04 33.52 11.04 33.6C11.04 33.2 11.36 32.8 11.84 32.8C11.76 32.8 14.8 32.8 28.24 32.8C28.64 32.8 28.96 33.12 28.96 33.6ZM25.44 31.2H14.56C16.56 28.56 17.76 25.36 18 22.08C18.64 22.24 19.28 22.32 20 22.32C20.72 22.32 21.36 22.24 22 22.08C22.24 25.44 23.44 28.56 25.44 31.2ZM34.08 6.40005C34.56 6.40005 34.88 6.80005 34.88 7.20005V9.60005C34.88 12.32 32.72 14.48 30 14.48C30.88 12.24 31.52 9.52005 31.84 6.32005H34.08V6.40005ZM30.4 2.40005C30.4 3.36005 30.32 4.48005 30.24 5.52005C29.68 12.88 27.28 20.64 20 20.64C11.04 20.72 9.67999 8.48005 9.59999 2.40005H30.4ZM5.11999 7.20005C5.11999 6.72005 5.51999 6.32005 5.91999 6.32005H8.15999C8.47999 9.52005 9.03999 12.24 9.99999 14.48C7.27999 14.48 5.11999 12.24 5.11999 9.60005V7.20005Z" fill="#0FAFEB"/>
<path d="M15.76 15.52C15.68 15.84 15.84 16.16 16.08 16.32C16.32 16.48 16.64 16.56 16.96 16.4L20.08 14.8L23.2 16.4C23.44 16.56 23.84 16.48 24.08 16.32C24.32 16.16 24.48 15.84 24.4 15.52L23.84 12.08L26.32 9.68005C26.56 9.44005 26.64 9.12005 26.56 8.88005C26.48 8.56005 26.24 8.40005 25.92 8.32005L22.48 7.84005L20.96 4.72005C20.72 4.16005 19.76 4.16005 19.52 4.72005L18 7.84005L14.56 8.32005C14.24 8.40005 14 8.56005 13.92 8.88005C13.84 9.20005 13.92 9.52005 14.16 9.68005L16.64 12.08L15.76 15.52ZM16.16 9.68005L18.4 9.36005C18.64 9.36005 18.88 9.12005 19.04 8.96005L20 6.88005L21.04 8.96005C21.12 9.20005 21.36 9.36005 21.68 9.36005L23.92 9.68005L22.32 11.28C22.16 11.44 22.08 11.76 22.08 12L22.48 14.24L20.48 13.2C20.4 13.12 20.24 13.12 20.08 13.12C19.92 13.12 19.84 13.12 19.68 13.2L17.6 14.24L18 12C18.08 11.76 17.92 11.44 17.76 11.28L16.16 9.68005Z" fill="#0FAFEB"/>
</svg>
