<svg width="40" height="40" viewBox="0 0 40 40" fill="none" xmlns="http://www.w3.org/2000/svg">
<path d="M35.6 7.92003L30.08 13.84C30 14 29.84 14.24 29.84 14.4V35.52C29.84 36 30.16 36.32 30.64 36.32H36.16C36.64 36.32 36.96 36 36.96 35.52V8.48003C36.96 7.84003 36.16 7.44003 35.6 7.92003ZM31.44 34.72V14.72L35.36 10.48V34.64H31.44V34.72Z" fill="#0FAFEB"/>
<path d="M38.4 0.800049H34C33.52 0.800049 33.2 1.12005 33.2 1.60005C33.2 2.08005 33.52 2.40005 34 2.40005H36.48C34.88 4.16005 23.6 16.16 23.52 16.24C19.04 14 20.48 14.72 16.64 12.8C16.48 12.72 16.24 12.72 16.08 12.72L1.44001 16.48C1.04001 16.56 0.720006 17.04 0.880006 17.44C0.960006 17.84 1.28001 18.08 1.68001 18.08C1.76001 18.08 1.84001 18.08 1.84001 18.08L16.24 14.48C29.44 21.04 5.44001 9.12005 23.36 18.08C23.68 18.24 24.08 18.16 24.32 17.92C35.04 6.40005 25.92 16.24 36.8 4.56005L37.6 3.68005V5.92005C37.6 6.40005 37.92 6.72005 38.4 6.72005C38.88 6.72005 39.2 6.40005 39.2 5.92005V1.60005C39.2 1.12005 38.88 0.800049 38.4 0.800049Z" fill="#0FAFEB"/>
<path d="M38.4 37.6001H1.6C1.12 37.6001 0.800003 37.9201 0.800003 38.4001C0.800003 38.8801 1.12 39.2001 1.6 39.2001H38.4C38.88 39.2001 39.2 38.8801 39.2 38.4001C39.2 37.9201 38.88 37.6001 38.4 37.6001Z" fill="#0FAFEB"/>
<path d="M2.48 35.5201C2.48 36.0001 2.8 36.3201 3.28 36.3201H8.8C9.28 36.3201 9.6 36.0001 9.6 35.5201V18.6401C9.6 18.1601 9.12 17.7601 8.64 17.8401L3.12 19.2801C2.8 19.3601 2.48 19.7601 2.48 20.0801V35.5201V35.5201ZM4.08 34.7201V20.6401L8 19.6801V34.7201H4.08V34.7201Z" fill="#0FAFEB"/>
<path d="M11.6 35.5201C11.6 36.0001 11.92 36.3201 12.4 36.3201H17.92C18.4 36.3201 18.72 36.0001 18.72 35.5201V17.9201C18.72 17.6001 18.48 17.2801 18.24 17.2001L16.16 16.1601C16 16.0801 15.76 16.0801 15.6 16.0801L12.16 16.9601C11.84 17.0401 11.52 17.4401 11.52 17.7601V35.5201H11.6ZM15.84 17.6801L17.2 18.4001V34.7201H13.28V18.4001L15.84 17.6801Z" fill="#0FAFEB"/>
<path d="M20.72 35.52C20.72 36 21.04 36.32 21.52 36.32H27.04C27.52 36.32 27.84 36 27.84 35.52V18.24C27.84 17.6 26.96 17.2 26.48 17.68L24.16 20.08L21.84 18.88C21.28 18.64 20.72 19.04 20.72 19.6V35.52ZM24.4 21.92C24.64 21.92 24.8 21.84 24.96 21.68L26.24 20.32V34.8H22.32V20.96L24 21.84C24.16 21.92 24.24 21.92 24.4 21.92Z" fill="#0FAFEB"/>
</svg>
