<svg width="40" height="40" viewBox="0 0 40 40" fill="none" xmlns="http://www.w3.org/2000/svg">
<path d="M19.84 4.64005C19.28 4.08005 18.56 3.76005 17.76 3.76005H6.72C6.24 3.76005 5.76 3.92005 5.28 4.16005L2.16 1.04005C1.84 0.720049 1.36 0.720049 1.04 1.04005C0.719999 1.36005 0.719999 1.84005 1.04 2.16005L4.16 5.28005C3.92 5.68005 3.76 6.24005 3.76 6.72005V17.76C3.76 18.56 4.08 19.28 4.64 19.84L6.96 22.16C5.2 24 4.08 26.4001 4.08 29.1201C4.08 34.6401 8.56 39.2 14.16 39.2C16.88 39.2 19.36 38.0801 21.12 36.3201L23.12 38.3201C23.68 38.8801 24.48 39.2 25.2 39.2C25.92 39.2 26.72 38.8801 27.28 38.3201L38.32 27.28C38.88 26.72 39.2 26 39.2 25.2C39.2 24.4 38.88 23.68 38.32 23.12L19.84 4.64005ZM14.16 37.6C9.52 37.6 5.68 33.8401 5.68 29.1201C5.68 24.4001 9.44 20.64 14.16 20.64C18.8 20.64 22.64 24.4001 22.64 29.1201C22.64 33.8401 18.8 37.6 14.16 37.6ZM37.2 26.16L26.16 37.2C25.68 37.68 24.8 37.68 24.24 37.2L22.16 35.1201C23.44 33.4401 24.16 31.3601 24.16 29.1201C24.16 23.6001 19.68 19.04 14.08 19.04C11.84 19.04 9.76 19.76 8.08 21.04L5.68 18.64C5.44 18.4 5.28 18.08 5.28 17.68V6.72005C5.28 6.64005 5.28 6.64005 5.28 6.56005L7.68 8.96005C6.56 10.64 6.72 12.96 8.16 14.48C9.84 16.16 12.56 16.16 14.32 14.48C16 12.8 16 10 14.32 8.32005C12.8 6.80005 10.48 6.64005 8.8 7.84005L6.4 5.44005C6.48 5.44005 6.48 5.44005 6.56 5.44005H17.6C17.92 5.44005 18.32 5.60005 18.56 5.84005L37.04 24.32C37.28 24.56 37.44 24.88 37.44 25.28C37.44 25.68 37.44 25.92 37.2 26.16ZM10.8 11.92C11.12 12.24 11.6 12.24 11.92 11.92C12.24 11.6 12.24 11.12 11.92 10.8L10.08 8.96005C11.2 8.32005 12.48 8.64005 13.28 9.44005C14.32 10.48 14.32 12.24 13.28 13.28C12.24 14.32 10.48 14.32 9.44 13.28C8.64 12.48 8.4 11.2 8.96 10.08L10.8 11.92Z" fill="#0FAFEB"/>
<path d="M13.2 28.2401C14.32 27.1201 14.32 25.3601 13.2 24.2401C12.16 23.2001 10.32 23.2001 9.2 24.2401C8.08 25.3601 8.08 27.1201 9.2 28.2401C10.4 29.3601 12.16 29.3601 13.2 28.2401ZM10.4 25.4401C10.88 24.9601 11.6 24.9601 12.08 25.4401C12.56 25.9201 12.56 26.6401 12.08 27.1201C11.6 27.6001 10.8 27.6001 10.4 27.1201C9.92 26.6401 9.92 25.9201 10.4 25.4401Z" fill="#0FAFEB"/>
<path d="M15.04 30.08C13.92 31.2 13.92 32.96 15.04 34.08C16.16 35.2 17.92 35.2 19.04 34.08C20.16 32.96 20.16 31.2 19.04 30.08C17.92 28.96 16.08 28.96 15.04 30.08ZM17.84 32.88C17.36 33.36 16.56 33.36 16.16 32.88C15.68 32.4 15.68 31.68 16.16 31.2C16.64 30.72 17.36 30.72 17.84 31.2C18.32 31.68 18.32 32.4 17.84 32.88Z" fill="#0FAFEB"/>
<path d="M18.8 24.48C18.48 24.16 18 24.16 17.68 24.48L9.44 32.72C9.12 33.04 9.12 33.52 9.44 33.84C9.76 34.16 10.24 34.16 10.56 33.84L18.8 25.6C19.12 25.28 19.12 24.8 18.8 24.48Z" fill="#0FAFEB"/>
</svg>
