<svg width="40" height="40" viewBox="0 0 40 40" fill="none" xmlns="http://www.w3.org/2000/svg">
<path d="M34.8 35.28V8.96005C34.8 6.80005 33.04 5.04005 30.88 5.04005H27.52V4.88005C27.52 3.92005 26.72 3.20005 25.84 3.20005H23.04C22.64 1.84005 21.44 0.800049 19.92 0.800049C18.48 0.800049 17.2 1.84005 16.8 3.20005H14C13.04 3.20005 12.32 4.00005 12.32 4.88005V5.04005H9.28C7.12 5.04005 5.36 6.80005 5.36 8.96005V35.28C5.36 37.44 7.12 39.2 9.28 39.2H30.96C33.04 39.2 34.8 37.44 34.8 35.28ZM13.92 4.80005H17.44C17.84 4.80005 18.24 4.48005 18.24 4.00005C18.24 3.12005 18.96 2.40005 19.84 2.40005C20.72 2.40005 21.44 3.12005 21.44 4.00005C21.44 4.40005 21.84 4.80005 22.24 4.80005H25.76C25.84 4.80005 25.84 4.88005 25.84 4.88005C25.84 5.04005 25.84 8.08005 25.84 8.00005C25.84 8.08005 25.76 8.08005 25.76 8.08005H13.92C13.84 8.08005 13.84 8.00005 13.84 8.00005C13.84 7.68005 13.84 4.72005 13.84 4.88005C13.84 4.80005 13.84 4.80005 13.92 4.80005ZM6.8 35.28V8.96005C6.8 7.68005 7.84 6.64005 9.12 6.64005H12.16V8.00005C12.16 8.96005 12.96 9.68005 13.84 9.68005H25.68C26.64 9.68005 27.36 8.88005 27.36 8.00005V6.64005H30.72C32 6.64005 33.04 7.68005 33.04 8.96005V35.28C33.04 36.56 32 37.6 30.72 37.6H9.2C7.84 37.6 6.8 36.56 6.8 35.28Z" fill="#0FAFEB"/>
<path d="M13.68 27.2001H26.32C26.8 27.2001 27.12 26.8801 27.12 26.4001C27.12 25.9201 26.8 25.6001 26.32 25.6001H13.68C13.2 25.6001 12.88 25.9201 12.88 26.4001C12.88 26.8801 13.2 27.2001 13.68 27.2001Z" fill="#0FAFEB"/>
<path d="M29.2 28.9601H10.8C10.32 28.9601 10 29.2801 10 29.7601C10 30.2401 10.32 30.5601 10.8 30.5601H29.2C29.68 30.5601 30 30.2401 30 29.7601C30 29.2801 29.6 28.9601 29.2 28.9601Z" fill="#0FAFEB"/>
<path d="M29.2 32.3201H10.8C10.32 32.3201 10 32.6401 10 33.1201C10 33.6001 10.32 33.9201 10.8 33.9201H29.2C29.68 33.9201 30 33.6001 30 33.1201C30 32.6401 29.6 32.3201 29.2 32.3201Z" fill="#0FAFEB"/>
<path d="M15.04 22.7201H24.08C24.56 22.7201 24.88 22.4001 24.88 21.9201V18.6401C24.88 18.1601 24.56 17.8401 24.08 17.8401C23.6 17.8401 23.28 18.1601 23.28 18.6401V21.1201H15.84V13.6801H21.92C22.4 13.6801 22.72 13.3601 22.72 12.8801C22.72 12.4001 22.4 12.0801 21.92 12.0801H15.04C14.56 12.0801 14.24 12.4001 14.24 12.8801V21.9201C14.24 22.4001 14.56 22.7201 15.04 22.7201Z" fill="#0FAFEB"/>
<path d="M18.64 15.84C18.32 15.52 17.84 15.52 17.52 15.84C17.2 16.16 17.2 16.64 17.52 16.96L19.84 19.28C20 19.44 20.24 19.52 20.4 19.52C20.64 19.52 20.8 19.44 20.96 19.28L25.6 14.64C25.92 14.32 25.92 13.84 25.6 13.52C25.28 13.2 24.8 13.2 24.48 13.52L20.4 17.6L18.64 15.84Z" fill="#0FAFEB"/>
</svg>
