<svg width="40" height="40" viewBox="0 0 40 40" fill="none" xmlns="http://www.w3.org/2000/svg">
<path d="M30.16 30.08C29.84 29.76 29.36 29.76 29.04 30.08C28.72 30.4 28.72 30.88 29.04 31.2L30.16 32.32C30.32 32.48 30.48 32.56 30.72 32.56C30.96 32.56 31.12 32.48 31.28 32.32L33.6 30C33.92 29.68 33.92 29.2 33.6 28.88C33.28 28.56 32.8 28.56 32.48 28.88L30.72 30.64L30.16 30.08Z" fill="#0FAFEB"/>
<path d="M35.68 18.32C35.68 8.64005 27.92 0.800049 18.24 0.800049C8.64 0.800049 0.800003 8.64005 0.800003 18.32C0.800003 28 8.64 35.84 18.24 35.84C20.96 35.84 23.52 35.2 25.92 34.08C27.2 36.4 28.96 38.32 31.04 39.2C31.12 39.2 31.28 39.28 31.36 39.28C31.44 39.28 31.6 39.28 31.68 39.2C36.72 37.12 39.84 29.04 39.12 23.44C39.04 23.04 38.64 22.72 38.24 22.72C38 22.72 37.76 22.8 37.6 22.96C36.88 23.68 35.84 24.16 34.8 24.16C34.8 24.16 34.8 24.16 34.72 24.16C34.72 24.16 34.72 24.16 34.72 24.08C35.36 22.24 35.68 20.32 35.68 18.32ZM37.6 24.96C37.6 29.6001 35.12 35.6801 31.36 37.5201C27.6 35.6801 25.04 29.68 25.04 25.04C25.92 25.52 26.8 25.76 27.84 25.76C29.12 25.76 30.32 25.36 31.36 24.56C32.32 25.28 33.52 25.68 34.8 25.68C35.76 25.68 36.72 25.44 37.6 24.96ZM31.92 22.96C31.6 22.64 31.04 22.64 30.8 22.96C30 23.76 28.96 24.16 27.92 24.16C26.8 24.16 25.76 23.76 25.04 22.96C24.88 22.8 24.64 22.72 24.48 22.72C24.08 22.72 23.76 23.04 23.68 23.44C23.36 26.24 23.92 29.68 25.28 32.64C23.36 33.6 21.28 34.08 19.12 34.24V29.76C19.12 29.28 18.8 28.96 18.32 28.96C17.84 28.96 17.52 29.28 17.52 29.76V34.24C9.36 33.76 2.88 27.28 2.4 19.12H6.88C7.36 19.12 7.68 18.8 7.68 18.32C7.68 17.84 7.36 17.52 6.88 17.52H2.4C2.88 9.36005 9.36 2.88005 17.44 2.48005V6.96005C17.44 7.44005 17.76 7.76005 18.24 7.76005C18.72 7.76005 19.04 7.44005 19.04 6.96005V2.48005C27.12 2.88005 33.68 9.44005 34.08 17.52H29.6C29.12 17.52 28.8 17.84 28.8 18.32C28.8 18.8 29.12 19.12 29.6 19.12H34.08C34 20.64 33.76 22.08 33.2 23.52C33.2 23.6 33.2 23.68 33.2 23.76C32.72 23.6 32.32 23.28 31.92 22.96Z" fill="#0FAFEB"/>
<path d="M19.04 18V13.44C19.04 12.96 18.72 12.64 18.24 12.64C17.76 12.64 17.44 12.96 17.44 13.44V18.32C17.44 18.56 17.52 18.72 17.68 18.88L21.6 22.8C21.92 23.12 22.4 23.12 22.72 22.8C23.04 22.48 23.04 22 22.72 21.68L19.04 18Z" fill="#0FAFEB"/>
</svg>
