<svg width="36" height="36" viewBox="0 0 36 36" fill="none" xmlns="http://www.w3.org/2000/svg">
<circle cx="18" cy="18" r="17.5" stroke="white"/>
<path d="M17.3536 12.6464C17.1583 12.4512 16.8417 12.4512 16.6464 12.6464C16.4512 12.8417 16.4512 13.1583 16.6464 13.3536L17.3536 12.6464ZM22 18L22.3536 18.3536C22.5488 18.1583 22.5488 17.8417 22.3536 17.6464L22 18ZM16.6464 22.6464C16.4512 22.8417 16.4512 23.1583 16.6464 23.3536C16.8417 23.5488 17.1583 23.5488 17.3536 23.3536L16.6464 22.6464ZM16.6464 13.3536L21.6464 18.3536L22.3536 17.6464L17.3536 12.6464L16.6464 13.3536ZM21.6464 17.6464L16.6464 22.6464L17.3536 23.3536L22.3536 18.3536L21.6464 17.6464Z" fill="white"/>
</svg>
