<svg width="48" height="48" viewBox="0 0 48 48" fill="none" xmlns="http://www.w3.org/2000/svg">
<path d="M37.0701 36.9661H17.3824C16.9887 36.9661 16.6699 37.2848 16.6699 37.6786C16.6699 38.0723 16.9887 38.3911 17.3824 38.3911H37.0701C37.4639 38.3911 37.7826 38.0723 37.7826 37.6786C37.7826 37.2848 37.4639 36.9661 37.0701 36.9661Z" fill="#304AA7"/>
<path d="M37.0701 31.9878H17.3824C16.9887 31.9878 16.6699 32.3065 16.6699 32.7003C16.6699 33.094 16.9887 33.4128 17.3824 33.4128H37.0701C37.4639 33.4128 37.7826 33.094 37.7826 32.7003C37.7826 32.3065 37.4639 31.9878 37.0701 31.9878Z" fill="#304AA7"/>
<path d="M17.3824 28.4248H29.907C30.3007 28.4248 30.6195 28.106 30.6195 27.7123C30.6195 27.3185 30.3007 26.9998 29.907 26.9998H17.3824C16.9887 26.9998 16.6699 27.3185 16.6699 27.7123C16.6699 28.106 16.9887 28.4248 17.3824 28.4248Z" fill="#304AA7"/>
<path d="M44.5521 9.29066L43.2771 7.90311V2.94377C43.2677 1.32189 41.9459 0 40.3147 0H8.62694C6.99571 0 5.66449 1.32189 5.66449 2.94377V8.54066H4.37071C2.81449 8.54066 1.54883 9.80631 1.54883 11.3625V19.9408C1.54883 21.4971 2.81449 22.7627 4.37071 22.7627H5.66449V42.525C5.66449 44.1469 6.98637 45.4688 8.6176 45.4688H10.2395C10.4176 46.8844 11.627 47.9906 13.0895 47.9906H43.5772C45.1615 47.9906 46.4553 46.7063 46.4553 45.1219V14.5313C46.4553 12.0189 46.3803 11.2875 44.5522 9.29066H44.5521ZM42.0583 8.69066L43.5021 10.2563C44.6271 11.4751 44.9271 11.9907 45.0021 13.0688H39.6959C38.8896 13.0688 38.2334 12.4125 38.2334 11.6157L38.2428 5.45631C39.1709 5.52194 39.424 5.80319 40.2397 6.71254C40.3709 6.86254 40.5209 7.0313 40.6897 7.20942L42.0397 8.6813C42.0491 8.67193 42.0584 8.6813 42.0584 8.69068L42.0583 8.69066ZM7.08949 2.94377C7.08949 2.10002 7.78324 1.41566 8.62703 1.41566H40.3147C41.1679 1.41566 41.8523 2.10003 41.8523 2.94377V6.36566L41.7304 6.23441C41.571 6.05629 41.4304 5.89691 41.2898 5.75629C40.1273 4.46252 39.6117 4.01252 37.5304 4.01252H13.0993C11.515 4.01252 10.2305 5.29686 10.2305 6.88129V8.53129H7.08987L7.08949 2.94377ZM10.2207 34.8655V44.0626H8.62694C7.77382 44.0626 7.0894 43.3782 7.0894 42.5345V22.7722H10.2206L10.2207 34.8655ZM4.37071 21.3561C3.59259 21.3561 2.96448 20.7279 2.96448 19.9498V11.3715C2.96448 10.5934 3.59261 9.96531 4.37071 9.96531H23.0273C23.8054 9.96531 24.4335 10.5934 24.4335 11.3715V19.9498C24.4335 20.7279 23.796 21.3561 23.0273 21.3561H4.37071ZM45.0396 14.5311V45.131C45.0396 45.9373 44.3833 46.5842 43.5771 46.5842H13.0988C12.2926 46.5842 11.6457 45.9279 11.6457 45.131V22.7716H23.0363C24.5925 22.7716 25.8675 21.506 25.8675 19.9497V11.3715C25.8675 9.81523 24.6019 8.54957 23.0363 8.54957H11.6363V6.89023C11.6363 6.08398 12.2925 5.43711 13.0894 5.43711H36.8271L36.8177 11.6152C36.8177 13.1996 38.1115 14.484 39.6958 14.484H45.0302V14.5309L45.0396 14.5311Z" fill="#304AA7"/>
<path d="M6.49888 19.054C6.28288 19.054 6.11188 18.991 5.98588 18.865C5.85988 18.739 5.79688 18.568 5.79688 18.352V13.312C5.79688 13.102 5.85387 12.94 5.96788 12.826C6.08188 12.712 6.24388 12.655 6.45388 12.655H8.71288C9.40288 12.655 9.93987 12.829 10.3239 13.177C10.7079 13.525 10.8999 14.011 10.8999 14.635C10.8999 15.259 10.7079 15.745 10.3239 16.093C9.93987 16.441 9.40288 16.615 8.71288 16.615H7.20088V18.352C7.20088 18.568 7.13788 18.739 7.01188 18.865C6.88588 18.991 6.71488 19.054 6.49888 19.054ZM8.53288 15.553C9.23488 15.553 9.58588 15.25 9.58588 14.644C9.58588 14.032 9.23488 13.726 8.53288 13.726H7.20088V15.553H8.53288Z" fill="#304AA7"/>
<path d="M12.2856 19C12.0756 19 11.9136 18.943 11.7996 18.829C11.6856 18.715 11.6286 18.553 11.6286 18.343V13.312C11.6286 13.102 11.6856 12.94 11.7996 12.826C11.9136 12.712 12.0756 12.655 12.2856 12.655H14.0946C14.7846 12.655 15.3786 12.781 15.8766 13.033C16.3746 13.285 16.7556 13.648 17.0196 14.122C17.2836 14.596 17.4156 15.163 17.4156 15.823C17.4156 16.483 17.2836 17.053 17.0196 17.533C16.7616 18.007 16.3836 18.37 15.8856 18.622C15.3876 18.874 14.7906 19 14.0946 19H12.2856ZM13.9956 17.866C15.3456 17.866 16.0206 17.185 16.0206 15.823C16.0206 14.467 15.3456 13.789 13.9956 13.789H13.0326V17.866H13.9956Z" fill="#304AA7"/>
<path d="M19.0149 19.054C18.8049 19.054 18.6339 18.991 18.5019 18.865C18.3759 18.733 18.3129 18.562 18.3129 18.352V13.312C18.3129 13.102 18.3699 12.94 18.4839 12.826C18.5979 12.712 18.7599 12.655 18.9699 12.655H22.0659C22.2939 12.655 22.4619 12.7 22.5699 12.79C22.6779 12.88 22.7319 13.021 22.7319 13.213C22.7319 13.399 22.6779 13.537 22.5699 13.627C22.4619 13.717 22.2939 13.762 22.0659 13.762H19.6989V15.22H21.8859C22.1139 15.22 22.2819 15.265 22.3899 15.355C22.4979 15.445 22.5519 15.586 22.5519 15.778C22.5519 15.964 22.4979 16.102 22.3899 16.192C22.2819 16.282 22.1139 16.327 21.8859 16.327H19.6989V18.352C19.6989 18.568 19.6359 18.739 19.5099 18.865C19.3899 18.991 19.2249 19.054 19.0149 19.054Z" fill="#304AA7"/>
</svg>
