<svg width="36" height="36" viewBox="0 0 36 36" fill="none" xmlns="http://www.w3.org/2000/svg">
<circle r="17.5" transform="matrix(-1 0 0 1 18 18)" stroke="white"/>
<path d="M18.6464 12.6464C18.8417 12.4512 19.1583 12.4512 19.3536 12.6464C19.5488 12.8417 19.5488 13.1583 19.3536 13.3536L18.6464 12.6464ZM14 18L13.6464 18.3536C13.4512 18.1583 13.4512 17.8417 13.6464 17.6464L14 18ZM19.3536 22.6464C19.5488 22.8417 19.5488 23.1583 19.3536 23.3536C19.1583 23.5488 18.8417 23.5488 18.6464 23.3536L19.3536 22.6464ZM19.3536 13.3536L14.3536 18.3536L13.6464 17.6464L18.6464 12.6464L19.3536 13.3536ZM14.3536 17.6464L19.3536 22.6464L18.6464 23.3536L13.6464 18.3536L14.3536 17.6464Z" fill="white"/>
</svg>
