<svg width="15" height="12" viewBox="0 0 15 12" fill="none" xmlns="http://www.w3.org/2000/svg">
<path d="M8.41421 11.7279C8.18293 11.4966 7.94483 11.2585 7.70711 11.0208C9.17782 9.55011 10.453 8.2749 11.9497 6.77818C11.8867 6.77603 11.9853 6.77832 11.9497 6.77818C10.929 6.77919 10.1421 6.7768 9.12132 6.77818C6.32216 6.78169 3.43501 6.77411 0.636039 6.77818C0.598067 6.77821 0.674013 6.77445 0.636039 6.77818C0.631435 6.77357 0.640642 6.78278 0.636039 6.77818C0.630652 6.44732 0.641775 5.71362 0.636039 5.36396C4.55884 5.35897 8.04832 5.36893 11.9497 5.36396C10.477 3.89119 9.18282 2.59704 7.70711 1.12132C7.9442 0.884228 8.17398 0.654443 8.41421 0.414214C10.2949 2.29486 12.1921 4.19208 14.0711 6.07107C12.1885 7.9536 10.2973 9.84484 8.41421 11.7279Z" fill="#202020"/>
</svg>
