<svg width="10" height="18" viewBox="0 0 10 18" fill="none" xmlns="http://www.w3.org/2000/svg">
<path d="M2.60143 9.01269C4.55104 10.9592 6.46621 12.8722 8.38138 14.7853C8.72162 15.1256 9.06499 15.4637 9.40315 15.8071C9.75487 16.1661 9.78722 16.6076 9.49395 16.9165C9.18815 17.238 8.72371 17.2192 8.35633 16.8529C6.99119 15.494 5.63022 14.1299 4.2682 12.7679C3.23704 11.7367 2.20483 10.7076 1.17576 9.67543C0.688355 9.18698 0.684181 8.8196 1.16428 8.33846C3.53762 5.96303 5.91097 3.58656 8.29475 1.22052C8.45861 1.0577 8.71118 0.882366 8.91575 0.890714C9.14744 0.900108 9.46577 1.05562 9.57327 1.24661C9.68181 1.43865 9.60771 1.75697 9.55657 2.00746C9.53257 2.12644 9.37706 2.22142 9.27582 2.32265C7.15922 4.4403 5.04262 6.55689 2.92602 8.67453C2.82479 8.77473 2.72876 8.87805 2.60143 9.01269Z" fill="#202020"/>
</svg>
