<svg width="154" height="60" viewBox="0 0 154 60" fill="none" xmlns="http://www.w3.org/2000/svg">
<g clip-path="url(#clip0_158_670)">
<path d="M69.6675 29.2757H66.7595C66.6383 29.2757 66.5286 29.3205 66.4302 29.4112C66.3319 29.5019 66.2677 29.6075 66.2371 29.7275L65.3286 34.9279C64.7835 34.9732 64.1927 34.9953 63.5565 34.9953C63.2842 34.9953 63.0263 34.9613 62.7846 34.8939C62.5418 34.8258 62.3259 34.7017 62.137 34.5208C61.9474 34.34 61.7999 34.0994 61.6938 33.7974C61.5876 33.496 61.5348 33.1117 61.5348 32.6443C61.5348 32.4336 61.5498 32.2032 61.5804 31.9544C61.6104 31.7061 61.6482 31.4387 61.6938 31.1522L62.1933 28.3261C62.3301 27.5424 62.5118 26.902 62.7391 26.4043C62.9663 25.9071 63.2308 25.5155 63.5343 25.2285C63.8365 24.9426 64.1849 24.7462 64.579 24.6412C64.9724 24.5355 65.3969 24.483 65.8509 24.483C66.82 24.483 67.71 24.5051 68.5202 24.5504C69.3298 24.5958 70.0081 24.6334 70.5532 24.6632H70.6216C70.7271 24.6632 70.8105 24.6447 70.8711 24.6071C70.9316 24.5695 70.9772 24.4902 71.0078 24.3696L71.439 21.9732V21.9052C71.439 21.83 71.4054 21.7739 71.337 21.7357C71.2687 21.6981 71.1967 21.6641 71.1211 21.6342C70.7121 21.5435 70.1178 21.4343 69.3382 21.306C68.558 21.1782 67.6003 21.1138 66.4644 21.1138C65.5403 21.1138 64.6473 21.1967 63.7837 21.3627C62.9208 21.5286 62.1256 21.8682 61.3987 22.3797C60.6719 22.893 60.0356 23.6235 59.4905 24.5731C58.9453 25.5227 58.5363 26.7743 58.2635 28.3261L57.7639 31.1295C57.6578 31.7025 57.605 32.2677 57.605 32.8252C57.605 33.8506 57.7753 34.7094 58.1159 35.4024C58.4566 36.0959 58.8883 36.6611 59.4107 37.098C59.9336 37.5355 60.5124 37.8483 61.1486 38.0363C61.7849 38.2249 62.3906 38.3192 62.9663 38.3192C64.1016 38.3192 65.0899 38.2696 65.9307 38.1724C66.7709 38.0745 67.5091 37.9652 68.1454 37.8441C68.3271 37.8142 68.4554 37.7617 68.5316 37.6859C68.6072 37.6107 68.6599 37.4902 68.6905 37.3242L70.0309 29.7275V29.6374C70.0309 29.3963 69.9097 29.2757 69.6675 29.2757Z" fill="#283C45"/>
<path d="M86.5685 21.6796C86.5685 21.4384 86.4395 21.3179 86.1823 21.3179H83.5016C83.3804 21.3179 83.2707 21.3597 83.1723 21.4426C83.0734 21.5256 83.0092 21.627 82.9792 21.7476L81.2755 31.311C81.2605 31.3862 81.2377 31.4387 81.2071 31.4691C81.1765 31.4996 81.1465 31.5139 81.1165 31.5139C81.0859 31.5139 81.0404 31.4542 80.9804 31.3336L77.0727 22.0186C76.9516 21.7327 76.7735 21.5441 76.539 21.4534C76.3039 21.3632 76.0736 21.3179 75.8463 21.3179H74.1198C73.8775 21.3179 73.6574 21.4008 73.4613 21.5668C73.264 21.7327 73.1428 21.9362 73.0973 22.1773L70.3716 37.6638V37.7319C70.3716 37.9879 70.4927 38.1162 70.735 38.1162H73.4157C73.5368 38.1162 73.6502 38.0709 73.7563 37.9802C73.8619 37.89 73.9302 37.7844 73.9608 37.6638L75.5734 28.5075C75.5884 28.387 75.634 28.3267 75.7102 28.3267C75.7701 28.3267 75.8307 28.387 75.8913 28.5075L79.6628 37.4155C79.7834 37.717 79.9615 37.9091 80.1966 37.9915C80.4311 38.0745 80.6697 38.1162 80.912 38.1162H82.8203C83.062 38.1162 83.2779 38.0333 83.4674 37.8674C83.6569 37.7014 83.7744 37.4985 83.82 37.2568L86.5685 21.7476V21.6796Z" fill="#283C45"/>
<path d="M114.554 21.6569C114.554 21.5662 114.528 21.4868 114.475 21.4193C114.422 21.3513 114.335 21.3179 114.214 21.3179H113.01C112.843 21.3179 112.73 21.3597 112.669 21.442C112.608 21.525 112.563 21.6264 112.533 21.747L110.216 34.8598C110.201 34.9804 110.178 35.0407 110.148 35.0407C110.132 35.0407 110.102 34.9804 110.057 34.8598L105.332 21.7697C105.271 21.6038 105.195 21.4868 105.104 21.4193C105.014 21.3513 104.809 21.3179 104.491 21.3179H103.378C103.12 21.3179 102.935 21.3782 102.822 21.4987C102.708 21.6193 102.636 21.7697 102.606 21.9505L99.7885 37.8441C99.7435 38.0249 99.819 38.1156 100.016 38.1156H101.333C101.454 38.1156 101.557 38.0745 101.64 37.9915C101.723 37.9085 101.78 37.8071 101.811 37.6859L104.15 24.483C104.15 24.4376 104.165 24.4149 104.196 24.4149L104.241 24.483L109.011 37.7539C109.057 37.8745 109.117 37.9652 109.194 38.0249C109.269 38.0858 109.428 38.1156 109.67 38.1156H110.988C111.291 38.1156 111.488 38.0518 111.579 37.9235C111.669 37.7957 111.73 37.6411 111.76 37.4597L114.554 21.747V21.6569Z" fill="#283C45"/>
<path d="M125.515 27.2637C125.492 27.58 125.443 27.9118 125.368 28.2586L124.845 31.1754C124.512 32.9988 123.91 34.3286 123.039 35.1654C122.168 36.0021 121.112 36.4199 119.87 36.4199C118.84 36.4199 118.034 36.1567 117.451 35.6285C116.868 35.1015 116.576 34.1895 116.576 32.8932C116.576 32.6371 116.588 32.3661 116.61 32.0791C116.633 31.7932 116.674 31.4917 116.736 31.1754L117.258 28.2586C117.591 26.4352 118.193 25.1049 119.064 24.2681C119.934 23.4319 120.998 23.0135 122.255 23.0135C123.301 23.0135 124.11 23.266 124.686 23.7709C125.262 24.2758 125.549 25.1466 125.549 26.3821C125.549 26.6531 125.538 26.9473 125.515 27.2637ZM127.662 26.3594C127.662 25.5006 127.54 24.7467 127.298 24.0986C127.055 23.451 126.71 22.9084 126.262 22.4709C125.815 22.0341 125.28 21.7058 124.658 21.4873C124.036 21.2689 123.346 21.1597 122.587 21.1597C121.692 21.1597 120.847 21.2767 120.05 21.51C119.254 21.744 118.533 22.1391 117.888 22.6966C117.244 23.2546 116.69 23.9858 116.227 24.89C115.764 25.7942 115.412 26.9175 115.169 28.2586L114.646 31.1754C114.584 31.5216 114.539 31.8499 114.509 32.1584C114.479 32.4676 114.464 32.7726 114.464 33.0746C114.464 33.9633 114.593 34.7326 114.851 35.3802C115.108 36.0284 115.465 36.5674 115.92 36.9965C116.375 37.4262 116.914 37.7467 117.536 37.9574C118.157 38.1687 118.833 38.2744 119.561 38.2744C120.517 38.2744 121.401 38.1383 122.211 37.8673C123.023 37.5957 123.744 37.1744 124.373 36.6014C125.004 36.0284 125.534 35.2937 125.967 34.3966C126.399 33.5002 126.729 32.4264 126.957 31.1754L127.48 28.2586C127.54 27.9118 127.586 27.5842 127.617 27.275C127.647 26.9664 127.662 26.6614 127.662 26.3594Z" fill="#283C45"/>
<path d="M133.591 29.3437C133.076 29.3437 132.602 29.3401 132.171 29.3324C131.739 29.3252 131.38 29.3133 131.092 29.2989L132.183 23.0809C132.319 23.0666 132.493 23.0547 132.705 23.0469C132.917 23.0397 133.14 23.032 133.375 23.0248C133.609 23.0171 133.844 23.0135 134.079 23.0135H134.704C136.006 23.0135 136.972 23.1687 137.6 23.4784C138.228 23.7888 138.543 24.3898 138.543 25.2821C138.543 25.5089 138.52 25.759 138.475 26.0312L138.452 26.1899C138.361 26.7796 138.18 27.2756 137.907 27.6761C137.634 28.0766 137.285 28.4025 136.862 28.6513C136.437 28.9014 135.946 29.0793 135.386 29.1849C134.825 29.2912 134.227 29.3437 133.591 29.3437ZM136.112 30.7451C137.278 30.5344 138.251 30.0522 139.031 29.2989C139.811 28.5451 140.3 27.5048 140.497 26.1786L140.519 26.0204C140.565 25.7345 140.587 25.4546 140.587 25.1836C140.587 24.4907 140.451 23.8879 140.178 23.3752C139.906 22.8631 139.523 22.4447 139.031 22.12C138.539 21.7965 137.952 21.5548 137.27 21.3966C136.589 21.2385 135.84 21.1597 135.022 21.1597C134.749 21.1597 134.435 21.1632 134.079 21.1704C133.723 21.1788 133.356 21.1895 132.977 21.2044C132.599 21.2199 132.235 21.2385 131.887 21.2611C131.538 21.2838 131.243 21.3101 131.001 21.3405C130.789 21.371 130.638 21.4193 130.547 21.4873C130.456 21.5548 130.395 21.6718 130.365 21.8377L127.571 37.6632C127.525 37.9652 127.631 38.1156 127.889 38.1156H129.116C129.282 38.1156 129.399 38.0703 129.468 37.9801C129.535 37.89 129.585 37.7844 129.615 37.6632L130.774 31.0167C131.061 31.0322 131.455 31.0471 131.955 31.062C132.455 31.0769 132.894 31.0847 133.273 31.0847H133.977L136.839 37.8214C136.9 37.973 136.956 38.0595 137.01 38.0822C137.062 38.1043 137.157 38.1156 137.293 38.1156H138.861C139.028 38.1156 139.111 38.0404 139.111 37.89C139.111 37.8148 139.095 37.7462 139.065 37.6859L136.112 30.7451Z" fill="#283C45"/>
<path d="M151.492 28.1768L150.969 31.2345C150.803 32.2151 150.533 33.0418 150.163 33.7138C149.791 34.3859 149.352 34.9296 148.845 35.3444C148.338 35.7598 147.773 36.0577 147.153 36.2391C146.531 36.4199 145.888 36.5107 145.222 36.5107H143.836C143.442 36.5107 143.064 36.4957 142.701 36.4653L145.086 22.9681C145.464 22.9383 145.847 22.9198 146.233 22.9114C146.619 22.9043 147.077 22.9007 147.607 22.9007C148.182 22.9007 148.716 22.9574 149.209 23.0702C149.7 23.1836 150.128 23.3835 150.492 23.67C150.855 23.9577 151.14 24.3349 151.344 24.8022C151.549 25.2708 151.651 25.8515 151.651 26.5462C151.651 27.0601 151.598 27.6033 151.492 28.1768ZM153.297 24.1212C153.017 23.4581 152.624 22.9084 152.116 22.4709C151.609 22.0341 150.999 21.7058 150.287 21.4873C149.576 21.2689 148.788 21.1597 147.925 21.1597C147.486 21.1597 147.054 21.1674 146.63 21.1823C146.206 21.1973 145.809 21.2164 145.438 21.2385C145.066 21.2611 144.734 21.2838 144.438 21.3065C144.143 21.3292 143.912 21.3554 143.745 21.3859C143.442 21.4306 143.253 21.6192 143.177 21.9511L140.429 37.4829C140.398 37.6489 140.41 37.7766 140.463 37.8673C140.516 37.9574 140.633 38.0177 140.815 38.0482C140.981 38.0786 141.205 38.1043 141.485 38.1269C141.765 38.1496 142.087 38.1723 142.45 38.195C142.814 38.2177 143.204 38.2362 143.62 38.2517C144.037 38.2666 144.464 38.2744 144.904 38.2744C145.994 38.2744 146.99 38.1419 147.891 37.8781C148.792 37.6148 149.587 37.1964 150.277 36.6241C150.965 36.0511 151.544 35.3235 152.014 34.442C152.484 33.5604 152.824 32.4939 153.036 31.2429L153.559 28.1912C153.619 27.8742 153.661 27.5728 153.684 27.2863C153.706 27.0004 153.718 26.7211 153.718 26.4502C153.718 25.5608 153.577 24.7849 153.297 24.1212Z" fill="#283C45"/>
<path d="M95.9499 27.3879C95.7832 27.7722 95.5445 28.0701 95.2344 28.2813C94.9238 28.4926 94.5454 28.6389 94.0986 28.7218C93.6518 28.8048 93.148 28.8454 92.5879 28.846C92.0356 28.8472 88.661 28.8603 88.661 28.8603L91.1852 27.7669L91.7699 24.4603C91.8305 24.4603 91.9438 24.4567 92.1106 24.449C92.2773 24.4418 92.4518 24.434 92.6335 24.4263C92.8152 24.4191 92.9927 24.4114 93.1672 24.4036C93.3411 24.3964 93.4659 24.3923 93.5421 24.3923C94.4356 24.3923 95.1019 24.5021 95.5409 24.7199C95.9805 24.939 96.1999 25.3419 96.1999 25.9298C96.1999 26.5177 96.1166 27.0035 95.9499 27.3879ZM99.1643 29.0041C99.7778 27.9793 100.084 26.7886 100.084 25.4326C100.084 24.6632 99.9325 24.0079 99.6303 23.4654C99.3268 22.9228 98.9106 22.4782 98.3805 22.132C97.8503 21.7852 97.2218 21.5292 96.495 21.3627C95.7682 21.1973 94.9807 21.1138 94.1328 21.1138C93.7238 21.1138 93.2998 21.1221 92.8602 21.1364C92.4212 21.152 91.9972 21.1705 91.5882 21.1932C91.1798 21.2158 90.7894 21.2463 90.4182 21.2839C90.0476 21.3215 89.7255 21.3627 89.4533 21.408C89.0898 21.4683 88.817 21.5662 88.6353 21.7023C88.4535 21.8377 88.3246 22.1016 88.249 22.4931L85.5684 37.6632V37.754C85.5684 37.9951 85.6895 38.1156 85.9318 38.1156H88.8853C89.0065 38.1156 89.1198 38.0703 89.226 37.9796C89.3315 37.89 89.3999 37.7844 89.4305 37.6632L90.4302 31.9209C90.6419 31.9209 90.9027 31.9287 91.2134 31.9436C91.5234 31.9591 91.8005 31.9663 92.0428 31.9663C92.1333 31.9663 92.2131 31.9627 92.2815 31.955C92.3492 31.9472 92.4062 31.9436 92.4518 31.9436H92.4746L94.519 37.6632C94.5639 37.7844 94.6059 37.89 94.6437 37.9796C94.6815 38.0703 94.7613 38.1156 94.8824 38.1156H98.176C98.3127 38.1156 98.4147 38.0816 98.483 38.0142C98.5508 37.9461 98.585 37.8668 98.585 37.7766C98.585 37.7462 98.57 37.6859 98.5394 37.5958L96.2455 31.2202C97.5781 30.7678 98.5508 30.0295 99.1643 29.0041Z" fill="#283C45"/>
<path d="M0.726884 29.5421L48.7507 29.5421L41.8611 12.617L0.726884 29.5421Z" fill="url(#paint0_linear_158_670)"/>
<path d="M0.730647 29.5309L41.8574 12.6301L24.7359 5.62331L0.730647 29.5309Z" fill="url(#paint1_linear_158_670)"/>
<path d="M7.63995 12.6107L0.72179 29.5369L24.7432 5.62988L7.63995 12.6107Z" fill="url(#paint2_linear_158_670)"/>
<path d="M0.722443 29.5366L7.64059 46.4628L48.7651 29.5366H0.722443Z" fill="url(#paint3_linear_158_670)"/>
<path d="M7.63166 46.4784L24.7303 53.4645L48.7655 29.5222L7.63166 46.4784Z" fill="url(#paint4_linear_158_670)"/>
<path d="M24.7438 53.4436L41.847 46.4628L48.7651 29.5366L24.7438 53.4436Z" fill="url(#paint5_linear_158_670)"/>
</g>
<defs>
<linearGradient id="paint0_linear_158_670" x1="24.7388" y1="53.4397" x2="19.8183" y2="1.55669" gradientUnits="userSpaceOnUse">
<stop stop-color="#138436"/>
<stop offset="1" stop-color="#84C98B"/>
</linearGradient>
<linearGradient id="paint1_linear_158_670" x1="22.7563" y1="23.6003" x2="15.4836" y2="10.9371" gradientUnits="userSpaceOnUse">
<stop stop-color="#4B156B"/>
<stop offset="0.18" stop-color="#4B156B"/>
<stop offset="0.45" stop-color="#662C91"/>
<stop offset="0.83" stop-color="#7060A3"/>
<stop offset="1" stop-color="#7060A3"/>
</linearGradient>
<linearGradient id="paint2_linear_158_670" x1="24.7432" y1="17.5834" x2="0.72179" y2="17.5834" gradientUnits="userSpaceOnUse">
<stop stop-color="#39B54A"/>
<stop offset="0.37" stop-color="#39B54A"/>
<stop offset="0.74" stop-color="#84C98B"/>
<stop offset="1" stop-color="#84C98B"/>
</linearGradient>
<linearGradient id="paint3_linear_158_670" x1="48.7651" y1="37.9998" x2="0.722443" y2="37.9998" gradientUnits="userSpaceOnUse">
<stop stop-color="#4B156B"/>
<stop offset="0.32" stop-color="#4B156B"/>
<stop offset="0.63" stop-color="#662C91"/>
<stop offset="0.95" stop-color="#6C5EA2"/>
<stop offset="1" stop-color="#6C5EA2"/>
</linearGradient>
<linearGradient id="paint4_linear_158_670" x1="38.9681" y1="22.6966" x2="17.5739" y2="53.4051" gradientUnits="userSpaceOnUse">
<stop stop-color="#066524"/>
<stop offset="0.09" stop-color="#066524"/>
<stop offset="0.38" stop-color="#39B54A"/>
<stop offset="0.75" stop-color="#84C98B"/>
<stop offset="1" stop-color="#84C98B"/>
</linearGradient>
<linearGradient id="paint5_linear_158_670" x1="48.7651" y1="41.4905" x2="24.7438" y2="41.4905" gradientUnits="userSpaceOnUse">
<stop stop-color="#4B156B"/>
<stop offset="0.4" stop-color="#4B156B"/>
<stop offset="0.59" stop-color="#662C91"/>
<stop offset="0.85" stop-color="#6C5EA2"/>
<stop offset="1" stop-color="#6C5EA2"/>
</linearGradient>
<clipPath id="clip0_158_670">
<rect width="154" height="60" fill="white"/>
</clipPath>
</defs>
</svg>
