<?xml version="1.0" encoding="utf-8"?><svg xmlns="http://www.w3.org/2000/svg" xmlns:xlink="http://www.w3.org/1999/xlink">

<symbol    viewBox="0 0 12 19" id="social_ok" xmlns="http://www.w3.org/2000/svg"><path d="M5.934 10.282a5.141 5.141 0 10-5.14-5.141 5.147 5.147 0 005.14 5.141zm0-7.91a2.768 2.768 0 110 5.537 2.768 2.768 0 010-5.536z"   /><path d="M10.968 12.718c.559-.368.895-.992.896-1.66a1.435 1.435 0 00-.804-1.31 1.503 1.503 0 00-1.582.149 6.018 6.018 0 01-7.09 0 1.51 1.51 0 00-1.583-.149A1.436 1.436 0 000 11.056c.001.67.338 1.293.896 1.661.717.477 1.497.85 2.318 1.108.139.043.283.083.43.12l-2.39 2.337a1.582 1.582 0 102.242 2.232l2.436-2.521 2.441 2.526a1.582 1.582 0 102.234-2.24L8.22 13.944c.148-.038.293-.078.433-.12.82-.258 1.6-.63 2.315-1.106z"   /></symbol>

<symbol    viewBox="0 0 24 24" id="social_rutube" xmlns="http://www.w3.org/2000/svg"><path d="M14.502 9.712c1.682 1.681 4.194 2 8.64 2.06-.12-5.906-4.823-10.675-10.7-10.905.053 4.575.355 7.138 2.06 8.845zm-4.79 0c1.708-1.707 2.009-4.274 2.063-8.855A11.141 11.141 0 00.857 11.773c4.582-.053 7.148-.354 8.855-2.062v.001zm4.79 4.79c-1.679 1.68-1.998 4.19-2.059 8.63a11.138 11.138 0 0010.69-10.689c-4.44.06-6.95.38-8.63 2.06v-.001zm-4.79 0c-1.707-1.706-4.27-2.008-8.844-2.061.23 5.877 4.998 10.582 10.903 10.702-.06-4.448-.377-6.96-2.059-8.64v-.001z"   /></symbol>

<symbol    viewBox="0 0 20 17" id="social_telegram" xmlns="http://www.w3.org/2000/svg"><path d="M7.873 10.935l-.327 4.533c.468 0 .67-.198.914-.435l2.193-2.066 4.544 3.28c.833.458 1.42.217 1.646-.756l2.982-13.777h.001C20.09.498 19.381.023 18.57.321L1.035 6.938C-.16 7.396-.143 8.054.832 8.352l4.482 1.374 10.412-6.422c.49-.32.936-.143.57.177l-8.423 7.454z"   /></symbol>

<symbol    viewBox="0 0 21 13" id="social_vk" xmlns="http://www.w3.org/2000/svg"><path d="M11.438 13C4.263 13 .17 8.12 0 0h3.594c.118 5.96 2.768 8.484 4.866 9.005V0h3.384v5.14c2.073-.221 4.25-2.563 4.985-5.14h3.384a9.876 9.876 0 01-1.62 3.717 9.964 9.964 0 01-2.984 2.763 10.35 10.35 0 013.4 2.687A10.25 10.25 0 0121 13h-3.725a6.423 6.423 0 00-2.009-3.136 6.505 6.505 0 00-3.421-1.51V13h-.407z"   /></symbol>

<symbol    viewBox="0 0 24 16" id="social_youtube" xmlns="http://www.w3.org/2000/svg"><path fill-rule="evenodd" clip-rule="evenodd" d="M21.39.49c1.028.263 1.839 1.035 2.116 2.014.514 1.788.494 5.515.494 5.515s0 3.708-.494 5.496c-.277.979-1.088 1.75-2.116 2.014C19.512 16 12 16 12 16s-7.493 0-9.39-.49C1.58 15.248.77 14.476.494 13.497 0 11.727 0 8 0 8s0-3.708.494-5.496C.771 1.524 1.601.734 2.61.47 4.488 0 12 0 12 0s7.513 0 9.391.49zM16 8l-6 4V4l6 4z"   /></symbol>

</svg>