<svg width="1090" height="196" viewBox="0 0 1090 196" fill="none" xmlns="http://www.w3.org/2000/svg">
<mask id="path-1-inside-1_115_659" fill="white">
<path fill-rule="evenodd" clip-rule="evenodd" d="M343.115 21.4388L342.937 42.8776L330.947 43.059L318.957 43.2405V60.4939V77.7473L330.947 77.9288L342.937 78.1103L343.274 122.982L343.612 167.854L345.376 172.314C348.428 180.033 354.385 186.278 361.758 189.487C368.201 192.292 372.848 192.759 394.443 192.771L414.876 192.783V176.828V160.874L401.197 160.873C385.687 160.872 383.735 160.408 381.61 156.221C380.526 154.087 380.428 150.737 380.428 115.836L380.426 77.7779H397.651H414.876V60.4939V43.21H397.651H380.426V21.605V0H361.86H343.293L343.115 21.4388ZM54.8414 40.3535C22.4761 42.8596 0.177642 62.1206 0.132385 87.6111C0.122928 92.5643 2.18046 100.548 4.67098 105.222C9.66485 114.597 21.1765 122.561 35.5901 126.615C38.9337 127.555 50.0232 129.69 60.2338 131.36C70.4445 133.028 80.7788 135.034 83.1997 135.816C92.9686 138.972 97.2188 147.868 93.1085 156.555C91.3934 160.179 88.1592 162.818 83.4145 164.462C75.3485 167.257 61.0546 167.472 52.7731 164.922C44.7307 162.445 37.324 155.69 36.2027 149.809L35.7772 147.579H17.8889H0L0.463367 151.069C2.11493 163.505 11.8035 178.25 22.9963 185.36C35.7123 193.438 55.3075 197.219 75.9058 195.571C95.5233 194.002 108.738 189.131 118.639 179.82C129.583 169.528 133.678 156.697 130.941 141.271C128.42 127.055 119.296 116.21 104.988 110.423C97.6004 107.434 90.67 105.897 71.7286 103.044C51.8443 100.05 48.6384 99.2964 43.6013 96.4293C39.9881 94.3732 37.2788 90.3832 37.2788 87.1179C37.2788 84.056 38.9202 80.2993 41.5364 77.3744C50.9851 66.8105 75.154 66.3652 86.9277 76.5381C89.7168 78.9479 92.3344 83.1406 92.9936 86.2537L93.4516 88.4142H111.058H128.665L128.261 84.1556C127.426 75.3548 122.818 67.4786 112.631 57.4406C106.579 51.4776 105.033 50.3482 98.7387 47.2936C86.2617 41.2395 72.1711 39.012 54.8414 40.3535ZM220.674 40.3162C208.422 41.7142 200.58 43.8887 191.829 48.3154C176.911 55.8612 163.612 69.7847 157.484 84.272C148.877 104.617 148.877 131.375 157.484 151.721C163.583 166.141 177.23 180.52 191.661 187.736C216.354 200.081 249.994 198.433 272.39 183.781C277.557 180.401 284.923 172.931 290.062 165.86C293.434 161.222 298.692 151.42 298.692 149.774C298.692 149.083 294.812 148.908 279.458 148.908H260.224L259.227 150.805C257.637 153.832 251.326 159.074 246.4 161.461C241.866 163.658 233.875 165.481 228.779 165.481C215.323 165.481 202.019 158.411 194.683 147.362C192.146 143.541 188.924 135.399 188.456 131.624L188.25 129.962L245.072 129.792L301.894 129.623L302.321 127.133C304.143 116.495 303.342 102.858 300.285 92.4733C291.005 60.9599 260.924 39.2832 227.446 39.9859C224.836 40.0404 221.788 40.1892 220.674 40.3162ZM515.435 40.8626C504.61 42.6083 494.827 47.3322 487.271 54.4618C485.305 56.3172 483.435 57.8349 483.117 57.8349C482.552 57.8349 482.058 55.9529 480.366 47.3648L479.547 43.21H462.41H445.273V117.996V192.783H463.849H482.425V147.669C482.425 119.763 482.688 101.191 483.114 98.978C484.174 93.477 487.381 87.4476 491.516 83.1825C497.703 76.7981 505.366 73.8053 515.524 73.8053C531.747 73.8053 543.672 82.6181 547.617 97.5235C548.46 100.711 548.622 108.699 548.622 147.053V192.783H567.229H585.836L585.618 141.762L585.4 90.7409L583.573 84.0932C577.674 62.6225 561.833 46.5976 541.868 41.9037C534.23 40.1075 522.886 39.6607 515.435 40.8626ZM679.667 40.6339C662.431 42.5904 647.232 49.8125 635.085 61.8162C620.382 76.346 612.798 95.464 612.798 117.996C612.798 140.523 620.387 159.669 635.079 174.204C651.461 190.412 673.819 197.923 698.697 195.58C717.445 193.814 731.84 187.606 744.396 175.871C760.411 160.902 768.146 142.104 768.153 118.124C768.162 90.8599 757.944 69.5607 737.631 54.4971C722.365 43.1754 701.414 38.165 679.667 40.6339ZM1001.54 40.6094C968.876 44.5029 943.652 67.2041 936.6 99.0505C935.615 103.498 935.348 107.531 935.348 117.996C935.348 132.608 936.149 137.991 939.786 147.824C944.889 161.623 955.61 175.129 968.072 183.457C992.681 199.904 1031.03 200.17 1055.86 184.067C1073.25 172.792 1084.6 155.911 1088.79 135.088C1090.41 127.07 1090.4 108.901 1088.78 100.862C1085.64 85.2292 1078.68 72.1872 1067.77 61.4691C1057.09 50.9818 1044.28 44.3454 1029.31 41.5321C1022.37 40.2298 1008.57 39.7711 1001.54 40.6094ZM774.492 44.7057C774.713 45.528 786.38 79.1074 800.418 119.326L825.942 192.45H851.557H877.173L903.031 118.329C917.253 77.5618 928.896 43.9824 928.905 43.7085C928.914 43.4346 920.294 43.21 909.75 43.21H890.578L885.428 58.001C882.595 66.1358 874.538 89.5443 867.525 110.019L854.773 147.246H851.58H848.387L839.013 119.991C833.857 105 825.8 81.5916 821.107 67.9725L812.575 43.21H793.332H774.089L774.492 44.7057ZM234.859 71.1429C249.858 73.209 262.283 85.904 265.914 102.873L266.376 105.033H227.482C183.181 105.033 187.482 105.746 189.908 98.8052C195.243 83.5441 207.146 73.2654 221.958 71.1282C226.949 70.4082 229.545 70.411 234.859 71.1429ZM704.239 76.0223C715.697 80.3625 724.676 89.8614 728.785 101.99C730.458 106.926 730.605 108.219 730.605 117.996C730.605 127.814 730.462 129.053 728.756 134.094C724.198 147.557 713.3 157.935 700.296 161.194C695.126 162.491 685.786 162.487 680.715 161.188C659.238 155.682 646.387 132.902 650.912 108.357C653.99 91.6642 665.656 78.5563 680.778 74.803C687.114 73.2302 698.419 73.8179 704.239 76.0223ZM1021.98 74.7904C1029.86 76.6185 1037.4 81.3989 1043.08 88.1669C1055.27 102.683 1056.52 127.829 1045.85 144.071C1038.22 155.688 1026.26 162.203 1012.56 162.203C1001.41 162.203 992.96 158.738 984.894 150.856C978.979 145.076 975.067 138.024 973.227 129.831C971.842 123.664 971.84 112.346 973.222 106.161C976.615 90.9755 988.163 78.666 1002.6 74.8469C1007.38 73.5812 1016.65 73.5539 1021.98 74.7904Z"/>
</mask>
<path fill-rule="evenodd" clip-rule="evenodd" d="M343.115 21.4388L342.937 42.8776L330.947 43.059L318.957 43.2405V60.4939V77.7473L330.947 77.9288L342.937 78.1103L343.274 122.982L343.612 167.854L345.376 172.314C348.428 180.033 354.385 186.278 361.758 189.487C368.201 192.292 372.848 192.759 394.443 192.771L414.876 192.783V176.828V160.874L401.197 160.873C385.687 160.872 383.735 160.408 381.61 156.221C380.526 154.087 380.428 150.737 380.428 115.836L380.426 77.7779H397.651H414.876V60.4939V43.21H397.651H380.426V21.605V0H361.86H343.293L343.115 21.4388ZM54.8414 40.3535C22.4761 42.8596 0.177642 62.1206 0.132385 87.6111C0.122928 92.5643 2.18046 100.548 4.67098 105.222C9.66485 114.597 21.1765 122.561 35.5901 126.615C38.9337 127.555 50.0232 129.69 60.2338 131.36C70.4445 133.028 80.7788 135.034 83.1997 135.816C92.9686 138.972 97.2188 147.868 93.1085 156.555C91.3934 160.179 88.1592 162.818 83.4145 164.462C75.3485 167.257 61.0546 167.472 52.7731 164.922C44.7307 162.445 37.324 155.69 36.2027 149.809L35.7772 147.579H17.8889H0L0.463367 151.069C2.11493 163.505 11.8035 178.25 22.9963 185.36C35.7123 193.438 55.3075 197.219 75.9058 195.571C95.5233 194.002 108.738 189.131 118.639 179.82C129.583 169.528 133.678 156.697 130.941 141.271C128.42 127.055 119.296 116.21 104.988 110.423C97.6004 107.434 90.67 105.897 71.7286 103.044C51.8443 100.05 48.6384 99.2964 43.6013 96.4293C39.9881 94.3732 37.2788 90.3832 37.2788 87.1179C37.2788 84.056 38.9202 80.2993 41.5364 77.3744C50.9851 66.8105 75.154 66.3652 86.9277 76.5381C89.7168 78.9479 92.3344 83.1406 92.9936 86.2537L93.4516 88.4142H111.058H128.665L128.261 84.1556C127.426 75.3548 122.818 67.4786 112.631 57.4406C106.579 51.4776 105.033 50.3482 98.7387 47.2936C86.2617 41.2395 72.1711 39.012 54.8414 40.3535ZM220.674 40.3162C208.422 41.7142 200.58 43.8887 191.829 48.3154C176.911 55.8612 163.612 69.7847 157.484 84.272C148.877 104.617 148.877 131.375 157.484 151.721C163.583 166.141 177.23 180.52 191.661 187.736C216.354 200.081 249.994 198.433 272.39 183.781C277.557 180.401 284.923 172.931 290.062 165.86C293.434 161.222 298.692 151.42 298.692 149.774C298.692 149.083 294.812 148.908 279.458 148.908H260.224L259.227 150.805C257.637 153.832 251.326 159.074 246.4 161.461C241.866 163.658 233.875 165.481 228.779 165.481C215.323 165.481 202.019 158.411 194.683 147.362C192.146 143.541 188.924 135.399 188.456 131.624L188.25 129.962L245.072 129.792L301.894 129.623L302.321 127.133C304.143 116.495 303.342 102.858 300.285 92.4733C291.005 60.9599 260.924 39.2832 227.446 39.9859C224.836 40.0404 221.788 40.1892 220.674 40.3162ZM515.435 40.8626C504.61 42.6083 494.827 47.3322 487.271 54.4618C485.305 56.3172 483.435 57.8349 483.117 57.8349C482.552 57.8349 482.058 55.9529 480.366 47.3648L479.547 43.21H462.41H445.273V117.996V192.783H463.849H482.425V147.669C482.425 119.763 482.688 101.191 483.114 98.978C484.174 93.477 487.381 87.4476 491.516 83.1825C497.703 76.7981 505.366 73.8053 515.524 73.8053C531.747 73.8053 543.672 82.6181 547.617 97.5235C548.46 100.711 548.622 108.699 548.622 147.053V192.783H567.229H585.836L585.618 141.762L585.4 90.7409L583.573 84.0932C577.674 62.6225 561.833 46.5976 541.868 41.9037C534.23 40.1075 522.886 39.6607 515.435 40.8626ZM679.667 40.6339C662.431 42.5904 647.232 49.8125 635.085 61.8162C620.382 76.346 612.798 95.464 612.798 117.996C612.798 140.523 620.387 159.669 635.079 174.204C651.461 190.412 673.819 197.923 698.697 195.58C717.445 193.814 731.84 187.606 744.396 175.871C760.411 160.902 768.146 142.104 768.153 118.124C768.162 90.8599 757.944 69.5607 737.631 54.4971C722.365 43.1754 701.414 38.165 679.667 40.6339ZM1001.54 40.6094C968.876 44.5029 943.652 67.2041 936.6 99.0505C935.615 103.498 935.348 107.531 935.348 117.996C935.348 132.608 936.149 137.991 939.786 147.824C944.889 161.623 955.61 175.129 968.072 183.457C992.681 199.904 1031.03 200.17 1055.86 184.067C1073.25 172.792 1084.6 155.911 1088.79 135.088C1090.41 127.07 1090.4 108.901 1088.78 100.862C1085.64 85.2292 1078.68 72.1872 1067.77 61.4691C1057.09 50.9818 1044.28 44.3454 1029.31 41.5321C1022.37 40.2298 1008.57 39.7711 1001.54 40.6094ZM774.492 44.7057C774.713 45.528 786.38 79.1074 800.418 119.326L825.942 192.45H851.557H877.173L903.031 118.329C917.253 77.5618 928.896 43.9824 928.905 43.7085C928.914 43.4346 920.294 43.21 909.75 43.21H890.578L885.428 58.001C882.595 66.1358 874.538 89.5443 867.525 110.019L854.773 147.246H851.58H848.387L839.013 119.991C833.857 105 825.8 81.5916 821.107 67.9725L812.575 43.21H793.332H774.089L774.492 44.7057ZM234.859 71.1429C249.858 73.209 262.283 85.904 265.914 102.873L266.376 105.033H227.482C183.181 105.033 187.482 105.746 189.908 98.8052C195.243 83.5441 207.146 73.2654 221.958 71.1282C226.949 70.4082 229.545 70.411 234.859 71.1429ZM704.239 76.0223C715.697 80.3625 724.676 89.8614 728.785 101.99C730.458 106.926 730.605 108.219 730.605 117.996C730.605 127.814 730.462 129.053 728.756 134.094C724.198 147.557 713.3 157.935 700.296 161.194C695.126 162.491 685.786 162.487 680.715 161.188C659.238 155.682 646.387 132.902 650.912 108.357C653.99 91.6642 665.656 78.5563 680.778 74.803C687.114 73.2302 698.419 73.8179 704.239 76.0223ZM1021.98 74.7904C1029.86 76.6185 1037.4 81.3989 1043.08 88.1669C1055.27 102.683 1056.52 127.829 1045.85 144.071C1038.22 155.688 1026.26 162.203 1012.56 162.203C1001.41 162.203 992.96 158.738 984.894 150.856C978.979 145.076 975.067 138.024 973.227 129.831C971.842 123.664 971.84 112.346 973.222 106.161C976.615 90.9755 988.163 78.666 1002.6 74.8469C1007.38 73.5812 1016.65 73.5539 1021.98 74.7904Z" stroke="#D3D3D3" stroke-width="2" mask="url(#path-1-inside-1_115_659)"/>
</svg>
