<svg width="180" height="179" viewBox="0 0 180 179" fill="none" xmlns="http://www.w3.org/2000/svg">
<path d="M112.108 139.743L112.301 120.442C112.316 119.124 111.274 118.068 109.955 118.066L77.3604 117.992L148.785 47.6777C149.754 46.7239 149.788 45.1869 148.864 44.2484L135.461 30.634C134.536 29.6942 133 29.7056 132.031 30.6594L60.6066 100.974L61.0433 68.3826C61.0602 67.0648 60.0222 66.0079 58.7057 66.0002L39.4057 65.8895C38.7514 65.8857 38.1146 66.1446 37.6407 66.6111C37.1668 67.0776 36.8981 67.7102 36.8916 68.3646L36.1901 139.43C36.1837 140.087 36.439 140.681 36.8601 141.109C37.2813 141.536 37.8696 141.8 38.5278 141.805L109.596 142.216C110.249 142.221 110.884 141.959 111.358 141.492C111.832 141.026 112.103 140.396 112.11 139.741L112.108 139.743Z" stroke="white" stroke-width="1.4"/>
</svg>
