<svg width="165" height="165" viewBox="0 0 165 165" fill="none" xmlns="http://www.w3.org/2000/svg">
<path opacity="0.4" fill-rule="evenodd" clip-rule="evenodd" d="M82.5 164C127.511 164 164 127.511 164 82.5C164 37.4888 127.511 1 82.5 1C37.4888 1 1 37.4888 1 82.5C1 127.511 37.4888 164 82.5 164ZM82.5 165C128.063 165 165 128.063 165 82.5C165 36.9365 128.063 0 82.5 0C36.9365 0 0 36.9365 0 82.5C0 128.063 36.9365 165 82.5 165Z" fill="white"/>
<path fill-rule="evenodd" clip-rule="evenodd" d="M71 60.4552L99.297 83.25L71 106.045V60.4552ZM72 62.5448V103.955L97.703 83.25L72 62.5448Z" fill="white"/>
</svg>
