<svg width="92" height="98" fill="none" xmlns="http://www.w3.org/2000/svg"><g clip-path="url(#clip0)" fill-rule="evenodd" clip-rule="evenodd" fill="#94BC3C"><path d="M13.415.217C36.783 16.764 39.119 37 43.652 56.845c1.201 5.165 2.91 3.32 3.862.52 5.983-17.534 9.294-31.867 22.806-46.048a.304.304 0 000-.39.303.303 0 00-.368-.13c-3.96 1.355-9.585 8.148-13.848 13.345a.282.282 0 01-.335.098.292.292 0 01-.216-.282C53.93 10.307 62.877 4.828 71.13 2.061 75.026.77 81.68 1.79 85.195.032a.28.28 0 01.314 0 .336.336 0 01.151.272c-.973 23.046-8.514 26.822-16.65 27.744-4.814.553-5.116.065-7.29 4.492-5.8 11.751-10.873 32.42-13.037 46.353a.326.326 0 01-.216.25 9.043 9.043 0 01-6.957 0 .25.25 0 01-.162-.185c-2.023-6.673-3.062-52.32-28.301-78.253A.291.291 0 0112.98.38a.291.291 0 01.067-.097.335.335 0 01.433-.065h-.065z"/><path d="M83.367 24.956a46.201 46.201 0 012.607 49.705c-.368.64-.768 1.324-1.168 1.931A45.996 45.996 0 0157.085 96.65a45.87 45.87 0 01-33.863-4.668A46.1 46.1 0 011.923 65.168 46.248 46.248 0 014.955 31.02c.335-.673.703-1.324 1.082-1.996a45.996 45.996 0 0118.588-18.016A45.82 45.82 0 0149.97 5.913C43.1 6.803 22.805 4.34 8.514 29.59a43.845 43.845 0 00-3.73 34.683 43.702 43.702 0 0020.05 24.962 43.487 43.487 0 0031.637 4.54 43.599 43.599 0 0026.225-18.32 47.991 47.991 0 001.59-2.616c14.324-25.26.585-43.032-.92-47.882z"/></g><defs><clipPath id="clip0"><path fill="#fff" d="M0 0h92v98H0z"/></clipPath></defs></svg>