<svg width="91" height="100" fill="none" xmlns="http://www.w3.org/2000/svg"><g clip-path="url(#clip0)" fill-rule="evenodd" clip-rule="evenodd" fill="#94BC3C"><path d="M40.856 0s2.14 9.139.31 15.331c-2.857 9.514-14.596 22.327-5.618 32.987-1.156-5.464 1.67-9.267 5.854-15.578C51.653 17.142 54.906 11.024 40.856 0zm12.563 16.006s5.521 12.267 2.086 22.81c-3.82 11.688-9.556 12.93-12.37 11.902-2.61-.975-3.52-4.532-2.857-6.653 2.247-7.103 7.138-12.514 11.557-18.985 2.14-3.096 1.98-5.614 1.584-9.042v-.032zM39.133 51.714c1.82 2.068 4.366 2.346 7.127 1.982a18.985 18.985 0 00-3.606 8.839c-.23 3.34-.14 6.694.267 10.017-4.644-7.382-1.455-13.724-3.756-20.838h-.032zm33.033.429c-17.774 1.242-31.396 8.924-25.51 26.483.182-3.856-2.397-18.47 25.51-26.483z"/><path d="M18.834 40.09s11.128 4.457 14.713 11.335c6.1 11.485-.396 16.188 12.841 31.862-6.86-3.932-11.503-10.585-12.413-15.685-1.873-10.145-.674-19.745-15.142-27.544v.032z"/><path d="M64.515 13.06A45.517 45.517 0 0183.79 29.883a45.593 45.593 0 017.168 24.574c0 .75 0 1.478-.064 2.239a45.567 45.567 0 01-14.06 30.767 45.46 45.46 0 01-31.376 12.568 45.46 45.46 0 01-31.376-12.568A45.566 45.566 0 01.02 56.696C0 55.967 0 55.206 0 54.456a45.593 45.593 0 017.186-24.582A45.516 45.516 0 0126.485 13.06c-5.468 4.082-24.12 11.967-24.12 40.636 0 .997 0 2.004.096 3a43.185 43.185 0 0013.591 28.59 43.086 43.086 0 0029.421 11.612 43.086 43.086 0 0029.421-11.612 43.186 43.186 0 0013.591-28.59c0-.996.086-2.003.086-3.032 0-28.702-20.47-37.24-24.11-40.636l.054.032z"/></g><defs><clipPath id="clip0"><path fill="#fff" d="M0 0h91v100H0z"/></clipPath></defs></svg>