<svg width="114" height="90" fill="none" xmlns="http://www.w3.org/2000/svg"><g clip-path="url(#clip0)" fill="#94BC3C"><path d="M58.28 44.869a8.155 8.155 0 001.535-.063 5.31 5.31 0 002.941-1.354 6.09 6.09 0 001.852-3.705h-.064c-.398.483-.903.87-1.475 1.13a4.155 4.155 0 01-1.826.37 4.094 4.094 0 01-2.986-1.245 4 4 0 01-1.119-3.016 4.74 4.74 0 011.337-3.484 4.803 4.803 0 011.577-1.083 4.848 4.848 0 011.879-.386c2.867 0 4.645 2.32 4.645 5.867a8.719 8.719 0 01-.53 3.518 8.774 8.774 0 01-1.893 3.02 7.093 7.093 0 01-4.085 1.869 9.044 9.044 0 01-1.745.105l-.043-1.543zm.688-8.019a2.655 2.655 0 00.682 2.079 2.695 2.695 0 002.016.881c.55.016 1.095-.11 1.58-.366a3.165 3.165 0 001.193-1.093 1.22 1.22 0 00.169-.682c0-2.383-.889-4.198-2.868-4.198-1.63 0-2.772 1.417-2.772 3.38zm9.121 5.815c.013-.835.29-1.644.794-2.313a4 4 0 012.01-1.413v-.105a3.457 3.457 0 01-1.597-1.237 3.413 3.413 0 01-.625-1.912c0-2.204 1.883-3.705 4.338-3.705 2.73 0 4.084 1.69 4.084 3.432a3.518 3.518 0 01-.648 1.98 3.561 3.561 0 01-1.658 1.274v.168a3.906 3.906 0 012.003 1.343c.508.647.796 1.437.822 2.257 0 2.424-2.116 4.051-4.772 4.051-3.005-.052-4.751-1.784-4.751-3.82zm7.565-.084c0-1.7-1.195-2.509-3.09-3.044a3.053 3.053 0 00-1.776.988 3.01 3.01 0 00-.752 1.877 2.555 2.555 0 00.8 1.953 2.596 2.596 0 002.004.703 2.56 2.56 0 001.96-.62 2.52 2.52 0 00.854-1.857zm-5.227-6.97c0 1.397 1.058 2.1 2.677 2.572.58-.14 1.1-.46 1.481-.916a2.737 2.737 0 00.636-1.613 2.156 2.156 0 00-.671-1.67 2.194 2.194 0 00-1.71-.597 2.24 2.24 0 00-1.704.581 2.203 2.203 0 00-.709 1.644zm15.279.578c0 2.939-1.555 4.398-3.364 4.398-1.81 0-3.27-1.396-3.291-4.199-.021-2.802 1.534-4.355 3.396-4.355 1.863 0 3.26 1.553 3.26 4.156zm-5.142.126c0 1.784.624 3.149 1.82 3.149 1.196 0 1.81-1.333 1.81-3.15 0-1.815-.498-3.148-1.81-3.148s-1.852 1.396-1.852 3.149h.032zm1.64 10.118l8.253-14.4h1.175l-8.243 14.4h-1.185zm12.697-4.482c0 2.939-1.555 4.398-3.354 4.398-1.799 0-3.259-1.396-3.28-4.198-.021-2.803 1.45-4.367 3.301-4.367 1.852 0 3.249 1.512 3.249 4.199l.084-.032zm-5.142.136c0 1.774.666 3.15 1.83 3.15 1.164 0 1.82-1.334 1.82-3.15 0-1.815-.497-3.148-1.82-3.148-1.322 0-1.915 1.385-1.915 3.148h.085zM50.503 60.056V50.17h1.164l2.667 4.996a33.222 33.222 0 011.491 3.212 53.88 53.88 0 01-.127-4.062V50.17h1.059v9.887h-1.058L53.01 55.04a34.048 34.048 0 01-1.545-3.306c.064 1.239.085 2.435.085 4.072v4.199l-1.048.052zm9.438-3.117l-.857 3.149h-1.11l2.825-9.887h1.29l2.836 9.887h-1.153l-.878-3.15H59.94zm2.73-1.05l-.814-2.844c-.19-.64-.307-1.228-.434-1.805A39.855 39.855 0 0161 53.034l-.815 2.855h2.486zm4.095-4.639h-2.518V50.2h6.137v1.05h-2.529v8.806h-1.058l-.032-8.806zm5.619-1.08v5.845c0 2.215.825 3.149 1.936 3.149s2.021-.966 2.021-3.149V50.17H77.4v5.762c0 3.034-1.344 4.283-3.174 4.283-1.83 0-2.984-1.155-2.984-4.199V50.17h1.143zm6.899.125a9.764 9.764 0 012.052-.2 3.015 3.015 0 012.402.809c.451.517.686 1.185.656 1.868.033.53-.1 1.058-.38 1.51-.28.453-.694.809-1.186 1.02a2.412 2.412 0 011.217 1.994c.127.934.328 1.857.603 2.76H83.59c-.25-.76-.437-1.54-.56-2.33-.255-1.364-.699-1.879-1.672-1.92h-1.059v4.282h-1.058l.043-9.793zm1.058 4.503H81.4a1.767 1.767 0 001.37-.513 1.74 1.74 0 00.503-1.366 1.686 1.686 0 00-.509-1.374 1.716 1.716 0 00-1.396-.473 3.468 3.468 0 00-1.058.126l.032 3.6zm6.973 2.141l-.868 3.149h-1.058l2.825-9.887h1.29l2.837 9.887h-1.196l-.889-3.15h-2.941zm2.719-1.05l-.815-2.844c-.18-.64-.307-1.228-.434-1.805a39.855 39.855 0 01-.423 1.794l-.815 2.855h2.487zm3.47-5.719h1.059v8.816h3.555v1.05h-4.614v-9.867z"/><path fill-rule="evenodd" clip-rule="evenodd" d="M89.23 4.702a45.353 45.353 0 0118.084 16.625A44.86 44.86 0 01114 44.87v2.225a44.928 44.928 0 01-10.908 27.273 45.575 45.575 0 01-25.507 14.857 45.83 45.83 0 01-29.325-3.838 45.313 45.313 0 01-20.75-20.911s0-.063-.052-.095A72.201 72.201 0 019.745 49.95a.18.18 0 00-.264 0 .178.178 0 000 .262 93.217 93.217 0 0010.58 11.335.208.208 0 010 .21.2.2 0 01-.211.116C4.232 59.447 1.26 46.884 0 36.798a.273.273 0 01.095-.179.213.213 0 01.18 0c12.591 5.647 21.68 10.8 24.337 23.888 0 .063 0 .084.095.116l1.11.745c.054.063.149 0 .212 0a.21.21 0 00.053-.21 44.822 44.822 0 01-3.015-14.064c0-.745-.064-1.48-.064-2.225a44.835 44.835 0 015.077-20.716A45.24 45.24 0 0142.176 8.061S23.31 17.433 21.014 42.81a.19.19 0 01-.18.178.214.214 0 01-.212-.146C13.586 17.727 31.13 1.427 58.196 0c.056 0 .109.023.148.063 0 .052.063.084 0 .147-.752 3.988-9.396 21.925-15.755 28.055-6.36 6.13-15.269 12.406-17.194 17.318v.084c0 .482 0 .955.095 1.458a42.206 42.206 0 009.173 23.532.18.18 0 00.212.063.169.169 0 00.117-.179c0-6.812.18-13.214 1.83-19.637a.188.188 0 00-.194-.268.192.192 0 00-.134.08.188.188 0 00-.032.072 96.752 96.752 0 00-3.121 15.198.177.177 0 01-.148.178.192.192 0 01-.212-.084c-7.195-13.959 1.746-23.562 9.237-30.437a.138.138 0 01.18 0c.064 0 .127.063.127.147 2.751 13.456 3.111 24.14-5.735 33.586a.209.209 0 000 .147l.244 3.873a.23.23 0 00.053.115 43.187 43.187 0 0021.291 12.24 43.44 43.44 0 0024.573-1.31 43.088 43.088 0 0019.847-14.432 42.553 42.553 0 008.652-22.852c0-.987.085-1.994.085-3.002 0-25.651-16.676-35.055-22.612-39.096a.189.189 0 01-.042-.273.17.17 0 01.243 0l.106-.084z"/></g><defs><clipPath id="clip0"><path fill="#fff" d="M0 0h114v90H0z"/></clipPath></defs></svg>