<svg width="92" height="110" fill="none" xmlns="http://www.w3.org/2000/svg"><g clip-path="url(#clip0)"><path fill-rule="evenodd" clip-rule="evenodd" d="M34.737 52.272c-.184-1.546-1.417-4.54.67-12.85-4.845-7.22-7.138-14.157-8.652-22.313-5.72 4.192-24.3 12.218-24.3 41.175 0 1.023 0 2.036.086 3.06a44.048 44.048 0 006.157 19.648A43.687 43.687 0 0023.09 95.636c-4.704-10.988-1.87-27.965 11.67-43.364h-.022zm-8.068-35.261a197.48 197.48 0 01-.768-4.563c-.973-6.36 1.568-13.068 7.051-4.422 3.775 5.968 7.181 13.526 9.571 18.513 0 .098.12.12.238.12a.204.204 0 00.184-.185c.313-2.44.984-8.919 1.687-14.538C45.422 5.446 47.584.164 50.31 0c8.305-.424 3.677 29.915 3.028 35.132 6.63 6.392 14.059 19.754 4.964 27.54a.23.23 0 000 .305c6.889 8.397 7.018 13.983 8.154 20.691 6.867-2.93 9.409 2.32 7.473 8.31a43.757 43.757 0 0010.904-13.712 44.044 44.044 0 004.68-16.922 48.44 48.44 0 00.097-3.093c0-29.163-20.7-37.843-24.376-41.295A46.05 46.05 0 0184.74 34.04 46.508 46.508 0 0192 59.024c0 .773 0 1.514-.065 2.287a46.572 46.572 0 01-6.445 21.455 46.18 46.18 0 01-15.692 15.898 29.722 29.722 0 01-12.567 7.623c-1.709.49-3.374.773-5.083 1.296-.519.152-1.352.555-1.503.991-.649 1.699-5.7 2.254-7.57-.468-.617 1.176-5.148 2.286-7.57.283-.65-.556-.714-1.667-.952-1.982a18.015 18.015 0 01-8.22-5.522 46.094 46.094 0 01-18.567-16.13A46.544 46.544 0 01.065 61.311C0 60.571 0 59.797 0 59.024A46.54 46.54 0 017.225 34.1a46.083 46.083 0 0119.411-17.09h.033zm5.948 76.47l.833 8.08c-12.21-5.053-9.734-24.753-4.726-34.195 5.331-10.16 7.418-12.567 9.04-14.516-.15-1.481-2.757-5.641.433-13.428a63.681 63.681 0 01-10.663-26.354c-.93-6.044 0-12.686 5.3-3.18 3.308 5.925 8.262 17.588 10.695 22.782a.217.217 0 00.216.12.194.194 0 00.184-.185c.584-3.267 2.022-15.801 3.31-21.573 1.232-5.445 4.325-13.46 4.844-1.797.4 8.277-1.081 22.074-1.72 26.92 9.734 8.614 11.464 18.088 9.107 22.63-2.358 4.54-8.652 5.924-14.524.337a.206.206 0 00-.244-.054.207.207 0 00-.07.054.208.208 0 000 .273c4.358 6.36 10.944 4.388 12.686 3.92a.204.204 0 01.248.098c6.738 9.572 5.883 10.552 6.586 21.268.098 1.383.8 2.897 2.607 1.786 1.59-.98 2.509-2.004 3.623-1.383 2.876 1.6 1.622 6.97-1.969 10.89-4.034 4.421-10.933 7.253-15.421 7.906-.054 0-.152 0-.184-.065a.244.244 0 01-.054-.185c.335-1.568.703-5.304.887-7.373a.262.262 0 00-.152-.25.204.204 0 00-.249.13c-1.373 3.54-2.725 7.994-4.326 11.141a2.578 2.578 0 01-1.06.883 2.557 2.557 0 01-1.362.206c-2.39 0-2.941-.457-2.66-2.069a12.33 12.33 0 00-.8-6.915.25.25 0 00-.25-.153.226.226 0 00-.183.218c-.087 2.178-.303 6.784-.606 7.133a4.093 4.093 0 01-4.78.152c-.53-.468-2.855-8.919-4.055-13.307a.196.196 0 00-.238-.153.227.227 0 00-.184.25l-.12-.043z" fill="#94BC3C"/></g><defs><clipPath id="clip0"><path fill="#fff" d="M0 0h92v110H0z"/></clipPath></defs></svg>