<svg width="92" height="114" fill="none" xmlns="http://www.w3.org/2000/svg"><g clip-path="url(#clip0)" fill-rule="evenodd" clip-rule="evenodd" fill="#94BC3C"><path d="M43.144 64.558h4.663c.465 1.783 1.655 6.623 2.088 8.579h-8.59c.065-.746 1.839-8.05 1.839-8.58zm.4-57.762h-.638V8.33h.638v.551h-.552v4.009h.552a329.74 329.74 0 01-2.64 37.816c-.238 2.161-.605 4.895-.757 5.694-.065.303 0 .303-.313.422-1.223.55-.953.367-.953 1.718 0 .313.65.616.65.8 0 .183-3.31 11.97-4.176 13.83h-3.062c-.552 0-.465.064-.465.583.616.15 1.082.4 1.082 1.08v1.502h-1.082v.95h.497c0 1.287.152 1.254-.519 2.389-.216.367-.433.67-.617.983l-7.886 12.965c-.552 1.08-.606.919-1.893.919v1.62h11.467V94.52h-1.6c.161-1.75 2.022-4.408 3.656-6.375a13.316 13.316 0 0110.818-5.056 13.169 13.169 0 0110.71 5.208 21.224 21.224 0 012.575 3.857c.184.367.336.735.487 1.08.179.402.334.813.465 1.232h-1.72v1.588H69.8v-1.566h-1.08c-.574 0-1.342-1.783-1.655-2.27-1.926-3.24-5.41-8.848-5.82-9.496-.412-.649-.769-1.254-1.202-1.924-1.287-2.16-1.19-1.383-1.19-3.554h.487v-.951h-1.082v-1.924c0-.432.952-.367.952-.8v-.399h-3.483c-.768-2.053-2.705-9.065-3.624-12.101-.087-.303-.184-.519-.27-.854a4.32 4.32 0 00-.315-.918c.887-.616.736-.983.736-1.934 0-.303-.67-.421-.952-.584-.281-.162-.952-4.527-1.471-8.902a304.631 304.631 0 01-2.326-34.986h.638v-4.01h-.638v-.55h.735V6.795c-.703 0-.887.13-1.384-.454-.952-1.08-.823-.8-.952-2.355 0-.713-.152-1.318-.152-1.999 0-.68-.151-1.286-.151-1.988h-.087c0 .335-.065.551-.097.95-.033.4-.065.67-.087 1.081l-.313 3.004c0 .616.064.465-.303.8-.368.334-.833 1.004-1.223 1.004l.054-.043z"/><path d="M65.224 26.31a45.982 45.982 0 0119.49 16.97 45.899 45.899 0 017.243 24.79c0 .756 0 1.49-.065 2.258a45.903 45.903 0 01-14.214 31.028 46.018 46.018 0 01-31.721 12.675 46.018 46.018 0 01-31.721-12.675A45.904 45.904 0 01.022 70.328C0 69.582 0 68.815 0 68.069a45.899 45.899 0 017.262-24.797 45.982 45.982 0 0119.514-16.963C21.247 30.47 2.39 38.38 2.39 67.292c0 1.004 0 2.02.097 3.025a43.51 43.51 0 0013.74 28.833 43.62 43.62 0 0029.745 11.711A43.62 43.62 0 0075.718 99.15a43.51 43.51 0 0013.74-28.833c0-1.005.086-2.02.086-3.058 0-28.946-20.695-37.557-24.374-40.982l.054.032z"/></g><defs><clipPath id="clip0"><path fill="#fff" d="M0 0h92v114H0z"/></clipPath></defs></svg>