<svg width="84" height="122" fill="none" xmlns="http://www.w3.org/2000/svg"><g clip-path="url(#clip0)" fill="#94BC3C"><path d="M1.408 83.19c0 10.113 6.963 19.494 9.207 22.31l2.614-8.375L1.408 83.159v.03zm52.408-11.338l-5.873-1.707-6.488-.44-6.117-2.345-6.446 5.235 3.27-1.047 4.943-.293 7.8 5.109 10.584.974-1.64-5.518-.033.032zM82.55 80.51c0 .869-.571 6.773-.571 6.773l-4.17 4.063-1.059-4.272-.93-3.56-1.44-3.475-5.165-4.188-3.535 1.246 3.662 5.35-7.503 1.12-6.065-4.565-1.058.503 5.937 11.757 3.726 1.12-6.69 7.957v6.533l-7.714 9.045-6.51 1.518-4.645-7.956 1.502-5.832-4.497-7.988h-11.05l-6.053-6.67.508-7.244 7.408-8.72-2.667-1.362.297-5.235 3.45-1.895 8.646-7.841 1.059-11.894 9.419-.334 4.794-2.848c.244.24 5.292 1.047 10.234 4.01a61.757 61.757 0 0110.827 8.784c6.346 7.247 9.844 16.511 9.853 26.1zm-16.372 22.53l-6.625 4.983-.54 5.047 2.963-1.539 4.17-4.272.032-4.219zM27.39 50.18l-4.53 7.245 1.323 5.391 8.467-9.024-5.26-3.539v-.073z"/><path d="M41.974 119.267c-10.38-.019-20.329-4.106-27.668-11.367-7.34-7.26-11.471-17.102-11.49-27.37a37.85 37.85 0 011.47-10.469A38.672 38.672 0 0115.52 51.983a39.32 39.32 0 0119.175-9.511 39.558 39.558 0 0121.363 1.909A39.12 39.12 0 0173.2 57.138a38.497 38.497 0 017.776 19.776 38.376 38.376 0 01-3.924 20.862 38.893 38.893 0 01-14.445 15.687 39.47 39.47 0 01-20.632 5.804zm1.418-80.237V20.803a20.316 20.316 0 0012.414-5.759 19.88 19.88 0 004.409-6.592A19.703 19.703 0 0061.68.68V0h-.963c-2.646-.01-5.267.5-7.712 1.5a20.028 20.028 0 00-6.535 4.32 19.449 19.449 0 00-5.64 11.15c.453-.538.956-1.032 1.502-1.476l7.684-6.502a.7.7 0 01.984.084.702.702 0 01.206.538.696.696 0 01-.27.509l-7.704 6.501c-2.254 1.864-2.614 3.235-2.614 4.921v8.7a19.818 19.818 0 00-6.524-12.815 20.233 20.233 0 00-13.542-5.14h-.963v.68a19.703 19.703 0 001.45 7.705 19.874 19.874 0 004.345 6.552 20.12 20.12 0 006.566 4.383 20.296 20.296 0 007.768 1.535h.868v5.852A42.35 42.35 0 0016.1 47.813a41.597 41.597 0 00-14.543 21.39A42.108 42.108 0 000 80.458a41.233 41.233 0 006.964 22.954 41.9 41.9 0 0018.619 15.332 42.429 42.429 0 0024.081 2.611 42.166 42.166 0 0021.536-10.98 41.436 41.436 0 0011.823-20.917 41.132 41.132 0 00-1.82-23.897 41.619 41.619 0 00-14.857-18.93 42.308 42.308 0 00-22.953-7.664v.063z"/></g><defs><clipPath id="clip0"><path fill="#fff" d="M0 0h84v122H0z"/></clipPath></defs></svg>