<svg width="16" height="16" viewBox="0 0 16 16" fill="none" xmlns="http://www.w3.org/2000/svg">
<path d="M9.11731 1.40661C9.01553 1.41018 8.92602 1.47525 8.89109 1.5709C8.85626 1.66666 8.88294 1.77402 8.95861 1.84222L12.0798 4.75079H12.8127L9.29809 1.47622C9.24966 1.42968 9.18459 1.40445 9.1174 1.40635L9.11731 1.40661ZM6.75303 1.4969V1.49702C6.6883 1.49713 6.62624 1.52235 6.5797 1.56733L3.18313 4.75104H3.91562L6.92105 1.93273V1.93262C6.99783 1.86331 7.02395 1.75371 6.98667 1.65717C6.94951 1.56063 6.85654 1.4969 6.75308 1.49712L6.75303 1.4969ZM1.2256 5.2509V5.25102C1.0977 5.26385 1.00038 5.37155 1.00049 5.50001V7.00047C1.00105 7.13785 1.11221 7.24901 1.24948 7.24957H14.7495C14.8877 7.25002 14.9999 7.13864 15.0005 7.00047V5.50001C14.9999 5.36195 14.8877 5.25046 14.7495 5.25102H1.24948C1.24156 5.25057 1.23352 5.25057 1.2256 5.25102L1.2256 5.2509ZM1.8506 7.74945L2.75194 14.284C2.7688 14.4077 2.87426 14.5 2.99904 14.5003H13.0002C13.125 14.5 13.2304 14.4077 13.2473 14.284L14.1492 7.74945H1.8506ZM4.99231 8.24599V8.2461C5.12379 8.24186 5.23606 8.3403 5.24912 8.47121L5.74912 12.7212C5.75872 12.7881 5.74086 12.8559 5.69957 12.9094C5.65839 12.9628 5.59734 12.9973 5.53026 13.005C5.46318 13.0127 5.39577 12.9931 5.34354 12.9503C5.2912 12.9077 5.25838 12.8457 5.25258 12.7784L4.75258 8.52835C4.74343 8.45849 4.7643 8.38795 4.80995 8.33416C4.85559 8.28047 4.92178 8.24844 4.99231 8.2461L4.99231 8.24599ZM7.9966 8.24599V8.2461C8.06423 8.24532 8.12919 8.27188 8.17685 8.31987C8.2245 8.36775 8.25073 8.43293 8.2495 8.50045V12.751C8.25107 12.8183 8.2254 12.8833 8.1783 12.9314C8.13131 12.9795 8.0668 13.0066 7.9995 13.0066C7.93231 13.0066 7.86781 12.9795 7.82082 12.9314C7.77372 12.8833 7.74805 12.8183 7.7495 12.751V8.50045C7.74839 8.43393 7.77383 8.36965 7.82015 8.32188C7.86658 8.27422 7.93009 8.24688 7.9966 8.2461L7.9966 8.24599ZM11.0015 8.24599V8.2461C11.0732 8.24632 11.1414 8.27746 11.1887 8.33148C11.2359 8.3855 11.2577 8.45715 11.2486 8.52835L10.7486 12.7784C10.7426 12.8455 10.7098 12.9076 10.6575 12.9502C10.6053 12.993 10.538 13.0126 10.4709 13.0049C10.4038 12.9972 10.3428 12.9627 10.3015 12.9093C10.2603 12.8558 10.2424 12.788 10.2519 12.7212L10.7519 8.47121C10.7647 8.34309 10.8728 8.24565 11.0015 8.2461L11.0015 8.24599Z" fill="#4B4E53"/>
</svg>
