<svg width="16" height="16" viewBox="0 0 16 16" fill="none" xmlns="http://www.w3.org/2000/svg">
<path d="M4.49977 8.17482L3.49977 7.40988V1.49988C3.49977 1.36729 3.55245 1.24006 3.6462 1.14631C3.73995 1.05256 3.86718 0.999878 3.99977 0.999878H11.9998C12.1324 0.999878 12.2596 1.05256 12.3533 1.14631C12.4471 1.24006 12.4998 1.36729 12.4998 1.49988V7.40988L11.4998 8.17482V1.99996H4.49977V8.17482ZM8.30491 11.8948C8.21741 11.9621 8.11027 11.9986 7.99989 11.9986C7.8895 11.9986 7.78236 11.9621 7.69486 11.8948L1 6.74482V13.5C1 13.8978 1.15803 14.2793 1.43929 14.5607C1.72065 14.8419 2.10211 15 2.5 15H13.5C13.8979 15 14.2793 14.8419 14.5607 14.5607C14.842 14.2793 15 13.8978 15 13.5V6.74482L8.30491 11.8948ZM13.4998 5.09996V6.63991L14.4998 5.86993L13.4998 5.09996ZM2.49977 5.09996L1.49977 5.86993L2.49977 6.63991V5.09996ZM9.99977 3.49996H5.99977C5.82109 3.49996 5.65603 3.59528 5.56674 3.74996C5.47746 3.90465 5.47746 4.09528 5.56674 4.24996C5.65603 4.40465 5.82109 4.49996 5.99977 4.49996H9.99977C10.1785 4.49996 10.3435 4.40465 10.4328 4.24996C10.5221 4.09528 10.5221 3.90465 10.4328 3.74996C10.3435 3.59528 10.1784 3.49996 9.99977 3.49996ZM9.99977 5.99996H5.99977C5.82109 5.99996 5.65603 6.09527 5.56674 6.24996C5.47746 6.40465 5.47746 6.59528 5.56674 6.74996C5.65603 6.90465 5.82109 6.99996 5.99977 6.99996H9.99977C10.1785 6.99996 10.3435 6.90465 10.4328 6.74996C10.5221 6.59527 10.5221 6.40465 10.4328 6.24996C10.3435 6.09528 10.1784 5.99996 9.99977 5.99996Z" fill="white"/>
</svg>
