<svg width="16" height="16" viewBox="0 0 16 16" fill="none" xmlns="http://www.w3.org/2000/svg">
<path d="M14.9998 11.7553V13.5003C14.9998 13.8982 14.8418 14.2796 14.5605 14.561C14.2792 14.8423 13.8977 15.0003 13.4998 15.0003H12.4998C10.9891 15.0048 9.49241 14.7092 8.0967 14.1306C6.70104 13.5522 5.4343 12.7023 4.36956 11.6303C3.29756 10.5657 2.44767 9.29892 1.86922 7.90315C1.29065 6.50749 0.995104 5.01086 0.999561 3.5V2.5C0.999561 2.10212 1.1576 1.72066 1.43885 1.43929C1.72021 1.15804 2.10167 1 2.49956 1H4.24453C4.57121 0.999555 4.88916 1.1058 5.14999 1.30246C5.41081 1.49922 5.60021 1.77577 5.6895 2.08995L6.31953 4.29498C6.39364 4.55234 6.39754 4.82489 6.33069 5.08438C6.26384 5.34375 6.12879 5.58046 5.93952 5.76998L4.74455 6.96495C5.60326 8.87052 7.12903 10.3964 9.03454 11.255L10.2295 10.06C10.419 9.8707 10.6557 9.73564 10.9151 9.66881C11.1746 9.60196 11.4471 9.60587 11.7045 9.67997L13.9095 10.31C14.2237 10.3993 14.5003 10.5887 14.697 10.8495C14.8937 11.1103 14.9999 11.4283 14.9995 11.755L14.9998 11.7553Z" fill="white"/>
</svg>
