<svg width="16" height="16" viewBox="0 0 16 16" fill="none" xmlns="http://www.w3.org/2000/svg">
<path d="M4.49997 4.5C4.49997 3.57177 4.86871 2.68149 5.52509 2.02511C6.18146 1.36874 7.07174 1 7.99997 1C8.9282 1 9.81849 1.36874 10.4749 2.02511C11.1312 2.68149 11.5 3.57177 11.5 4.5C11.5 5.42823 11.1312 6.31851 10.4749 6.97489C9.81849 7.63126 8.9282 8 7.99997 8C7.07174 8 6.18146 7.63126 5.52509 6.97489C4.86871 6.31851 4.49997 5.42823 4.49997 4.5V4.5ZM9.49997 9H6.49997C5.30646 9 4.16191 9.47411 3.31797 10.318C2.47411 11.1619 2 12.3065 2 13.5V14.5C2 14.6326 2.05268 14.7598 2.14643 14.8535C2.24018 14.9473 2.36741 15 2.5 15H13.5C13.6326 15 13.7598 14.9473 13.8536 14.8535C13.9473 14.7598 14 14.6326 14 14.5V13.5C14 12.3065 13.5259 11.1619 12.682 10.318C11.8381 9.47411 10.6935 9 9.50003 9H9.49997Z" fill="#4B4E53"/>
</svg>
