<svg width="12" height="12" viewBox="0 0 12 12" fill="none" xmlns="http://www.w3.org/2000/svg">
<path d="M10.8429 10.0549L8.73055 7.98899C9.43238 7.15049 9.78147 6.0821 9.70684 5.00095C9.6322 3.91979 9.13938 2.90696 8.32868 2.16835C7.51797 1.42973 6.45017 1.02072 5.34221 1.02444C4.23424 1.02816 3.16933 1.44433 2.36383 2.18837C1.55832 2.9324 1.07261 3.94849 1.00555 5.03012C0.9385 6.11175 1.29513 7.17779 2.00283 8.01156C2.71052 8.84532 3.71627 9.38425 4.81566 9.51886C5.91505 9.65346 7.02558 9.37364 7.92159 8.73623L10.034 10.8241C10.1452 10.9214 10.2892 10.9752 10.4384 10.9752C10.5877 10.9752 10.7317 10.9214 10.8429 10.8241C10.9408 10.7189 10.995 10.5818 10.995 10.4395C10.995 10.2973 10.9408 10.1601 10.8429 10.0549V10.0549ZM2.1238 5.2637C2.1238 4.63341 2.31494 4.01728 2.67298 3.49321C3.03102 2.96914 3.53996 2.56066 4.13536 2.31946C4.73076 2.07826 5.38591 2.01517 6.01798 2.13813C6.65005 2.26109 7.23053 2.56461 7.68623 3.0103C8.14193 3.45598 8.4523 4.0238 8.57803 4.64198C8.70376 5.26016 8.63921 5.90091 8.39259 6.48323C8.14597 7.06554 7.72831 7.56326 7.19246 7.91343C6.65662 8.2636 6.02671 8.45051 5.38226 8.45051C4.95352 8.45343 4.52847 8.37299 4.13179 8.21388C3.73511 8.05476 3.37473 7.82015 3.07156 7.52364C2.76839 7.22714 2.52844 6.87464 2.36575 6.48668C2.20305 6.09872 2.12081 5.68301 2.1238 5.2637V5.2637Z" fill="white"/>
</svg>
