<svg width="56" height="56" viewBox="0 0 56 56" fill="none" xmlns="http://www.w3.org/2000/svg">
<path d="M28.002 51.3664C27.1994 51.3665 26.3971 51.0989 25.7277 50.5634C20.0188 45.9985 6.39814 34.8625 3.23112 30.0633C0.807612 26.3908 -0.180689 23.0311 0.0269024 19.1692C0.234166 15.2948 1.87652 11.6566 4.65155 8.92484C7.46268 6.15757 11.1313 4.63367 14.9816 4.63367C21.354 4.63367 26.1882 8.44983 28.0184 10.1418C29.9058 8.46667 34.8937 4.63367 41.0178 4.63367C44.8686 4.63367 48.5378 6.15768 51.3491 8.92484C54.1242 11.6563 55.7669 15.2945 55.9743 19.1693C56.2394 24.1098 54.4018 27.586 52.7714 30.0623C49.5832 34.9032 35.9762 46.0134 30.2741 50.5654C29.6051 51.0995 28.8034 51.3664 28.002 51.3664V51.3664ZM14.9816 6.82114C8.30748 6.82114 2.57881 12.413 2.2111 19.2864C2.03041 22.6504 2.90813 25.6025 5.057 28.8585C8.13642 33.5252 22.7028 45.344 27.0938 48.8551C27.6285 49.2827 28.3748 49.2824 28.9092 48.856C33.2947 45.355 47.8439 33.567 50.9444 28.8594C53.0925 25.5969 53.9701 22.6446 53.7901 19.2867C53.422 12.4131 47.6924 6.82125 41.0179 6.82125C34.2672 6.82125 28.842 12.3645 28.7879 12.4204C28.578 12.6381 28.2859 12.7625 27.9847 12.7548C27.6822 12.7503 27.3951 12.6208 27.1916 12.397C27.1415 12.3423 22.0091 6.82114 14.9816 6.82114V6.82114Z" fill="white"/>
<path d="M32.2568 29.4064C32.3129 29.1279 32.3423 28.8397 32.3423 28.5446C32.3423 26.1467 30.3984 24.2028 28.0005 24.2028C25.6026 24.2028 23.6587 26.1467 23.6587 28.5446C23.6587 28.8397 23.6881 29.1279 23.7443 29.4064C21.7311 29.784 20.2078 31.5509 20.2078 33.6737C20.2078 36.0716 22.1517 38.0155 24.5496 38.0155C25.9566 38.0155 27.2071 37.3463 28.0005 36.3088C28.7939 37.3462 30.0445 38.0155 31.4515 38.0155C33.8494 38.0155 35.7933 36.0716 35.7933 33.6737C35.7933 31.5509 34.2699 29.784 32.2568 29.4064Z" fill="#7CCCBF"/>
<path d="M39.4314 29.8971C40.6805 29.8971 41.6931 28.8845 41.6931 27.6354C41.6931 26.3864 40.6805 25.3738 39.4314 25.3738C38.1823 25.3738 37.1698 26.3864 37.1698 27.6354C37.1698 28.8845 38.1823 29.8971 39.4314 29.8971Z" fill="#7CCCBF"/>
<path d="M16.5697 29.8971C17.8188 29.8971 18.8314 28.8845 18.8314 27.6354C18.8314 26.3864 17.8188 25.3738 16.5697 25.3738C15.3206 25.3738 14.308 26.3864 14.308 27.6354C14.308 28.8845 15.3206 29.8971 16.5697 29.8971Z" fill="#7CCCBF"/>
<path d="M33.364 22.1898C35.1222 22.1898 36.5475 20.7645 36.5475 19.0063C36.5475 17.2482 35.1222 15.8229 33.364 15.8229C31.6059 15.8229 30.1806 17.2482 30.1806 19.0063C30.1806 20.7645 31.6059 22.1898 33.364 22.1898Z" fill="#7CCCBF"/>
<path d="M22.6372 22.1898C24.3954 22.1898 25.8207 20.7645 25.8207 19.0063C25.8207 17.2482 24.3954 15.8229 22.6372 15.8229C20.879 15.8229 19.4537 17.2482 19.4537 19.0063C19.4537 20.7645 20.879 22.1898 22.6372 22.1898Z" fill="#7CCCBF"/>
</svg>
