<svg width="88" height="106" viewBox="0 0 88 106" fill="none" xmlns="http://www.w3.org/2000/svg">
<path d="M28.4624 71.6328C28.4624 75.0575 31.2486 77.8438 34.6733 77.8438H53.3062C56.7309 77.8438 59.5171 75.0575 59.5171 71.6328V49.8945H28.4624V71.6328ZM32.4776 61.5696C33.6901 60.3571 35.6565 60.3571 36.8693 61.5696L40.8845 65.5848L51.1106 55.3587C52.3232 54.1461 54.2896 54.1461 55.5023 55.3587C56.7151 56.5713 56.7151 58.5377 55.5023 59.7505L43.0805 72.1723C41.8677 73.3851 39.9017 73.3851 38.6887 72.1723L32.4778 65.9614C31.2646 64.7488 31.2646 62.7824 32.4776 61.5696ZM53.3062 37.4727C53.3062 32.3356 49.1268 28.1562 43.9897 28.1562C38.8527 28.1562 34.6733 32.3356 34.6733 37.4727V43.6836H53.3062V37.4727Z" fill="url(#paint0_linear_76_49696)"/>
<path d="M84.2027 11.5192C84.0253 11.5285 66.1372 12.3767 45.4875 0.417983C45.0133 0.143444 44.4749 -0.000760551 43.9269 3.01663e-06C43.379 0.000766584 42.841 0.146471 42.3675 0.422331C21.8555 12.3767 3.97522 11.53 3.80318 11.5194C2.00884 11.414 0.512207 12.8403 0.512207 14.6195V50.1015C0.512207 68.6812 6.87097 85.3215 21.9727 96.3933C32.5528 104.15 43.0698 105.891 43.5124 105.962C43.8345 106.013 44.165 106.013 44.4873 105.962C44.9299 105.891 55.4496 104.149 66.0314 96.3643C80.9362 85.3987 87.4877 68.8474 87.4877 49.8945V14.6195C87.4877 12.8448 85.989 11.4182 84.2027 11.5192ZM65.7279 71.6328C65.7279 78.4822 60.1554 84.0547 53.306 84.0547H34.6732C27.8238 84.0547 22.2513 78.4822 22.2513 71.6328V46.789C22.2513 45.074 23.6417 43.6836 25.3568 43.6836H28.4623V37.4726C28.4623 28.9109 35.4278 21.9453 43.9896 21.9453C52.5514 21.9453 59.5169 28.9109 59.5169 37.4726V43.6836H62.6224C64.3375 43.6836 65.7279 45.074 65.7279 46.789V71.6328Z" fill="url(#paint1_linear_76_49696)"/>
<defs>
<linearGradient id="paint0_linear_76_49696" x1="33.2864" y1="32.6587" x2="67.2353" y2="60.5418" gradientUnits="userSpaceOnUse">
<stop offset="0.0833333" stop-color="#00D1FF"/>
<stop offset="0.421875" stop-color="#5C76FF"/>
<stop offset="1" stop-color="#AD00FF"/>
</linearGradient>
<linearGradient id="paint1_linear_76_49696" x1="14.023" y1="9.60519" x2="87.6456" y2="88.9901" gradientUnits="userSpaceOnUse">
<stop offset="0.0833333" stop-color="#00D1FF"/>
<stop offset="0.421875" stop-color="#5C76FF"/>
<stop offset="1" stop-color="#AD00FF"/>
</linearGradient>
</defs>
</svg>
