<svg width="98" height="98" viewBox="0 0 98 98" fill="none" xmlns="http://www.w3.org/2000/svg">
<g clip-path="url(#clip0_76_49704)">
<path d="M67.0504 45.4147H71.423C69.8849 35.7596 62.2397 28.1146 52.5843 26.5767V30.949C52.5843 32.9291 50.9789 34.5344 48.9988 34.5344C47.0187 34.5344 45.4134 32.9291 45.4134 30.949V26.577C35.7587 28.1154 28.1143 35.7601 26.5762 45.4149H30.9475C32.9276 45.4149 34.5329 47.0202 34.5329 49.0003C34.5329 50.9804 32.9276 52.5857 30.9475 52.5857H26.5762C28.1143 62.2404 35.7587 69.885 45.4134 71.4235V67.0516C45.4134 65.0715 47.0187 63.4662 48.9988 63.4662C50.9789 63.4662 52.5843 65.0715 52.5843 67.0516V71.4239C62.2394 69.886 69.8849 62.241 71.423 52.5859H67.0504C65.0703 52.5859 63.4649 50.9806 63.4649 49.0005C63.4651 47.02 65.0701 45.4147 67.0504 45.4147Z" fill="url(#paint0_linear_76_49704)"/>
<path d="M49 0C21.9815 0 0 21.9811 0 49C0 76.0189 21.9815 98 49 98C76.0185 98 98 76.0189 98 49C98 21.9811 76.0185 0 49 0ZM83.5335 52.5854H78.6622C77.0263 66.2003 66.1996 77.0269 52.5847 78.6622V83.5341C52.5847 85.5142 50.9793 87.1195 48.9992 87.1195C47.0191 87.1195 45.4138 85.5142 45.4138 83.5341V78.662C31.7997 77.0261 20.9733 66.1998 19.3378 52.5854H14.4653C12.4852 52.5854 10.8799 50.9801 10.8799 49C10.8799 47.0199 12.4852 45.4146 14.4653 45.4146H19.3378C20.9733 31.8002 31.7999 20.9739 45.4138 19.338V14.4659C45.4138 12.4858 47.0191 10.8805 48.9992 10.8805C50.9793 10.8805 52.5847 12.4858 52.5847 14.4659V19.3378C66.1996 20.9731 77.0263 31.7999 78.6622 45.4146H83.5335C85.5136 45.4146 87.1189 47.0199 87.1189 49C87.1189 50.9801 85.5136 52.5854 83.5335 52.5854Z" fill="url(#paint1_linear_76_49704)"/>
</g>
<defs>
<linearGradient id="paint0_linear_76_49704" x1="33.5427" y1="30.6405" x2="63.6497" y2="70.2044" gradientUnits="userSpaceOnUse">
<stop offset="0.0833333" stop-color="#00D1FF"/>
<stop offset="0.421875" stop-color="#5C76FF"/>
<stop offset="1" stop-color="#AD00FF"/>
</linearGradient>
<linearGradient id="paint1_linear_76_49704" x1="15.2233" y1="8.88026" x2="81.0128" y2="95.3358" gradientUnits="userSpaceOnUse">
<stop offset="0.0833333" stop-color="#00D1FF"/>
<stop offset="0.421875" stop-color="#5C76FF"/>
<stop offset="1" stop-color="#AD00FF"/>
</linearGradient>
<clipPath id="clip0_76_49704">
<rect width="98" height="98" fill="white"/>
</clipPath>
</defs>
</svg>
