<svg width="100" height="100" viewBox="0 0 100 100" fill="none" xmlns="http://www.w3.org/2000/svg">
<path fill-rule="evenodd" clip-rule="evenodd" d="M70.3 43.7C69.6 43.7 69 44.3 69 45V56.1V58.6001H71.6V45C71.6 44.3 71 43.7 70.3 43.7ZM71.6 58.7V71.3001C71.6 72.7001 72.8 73.9001 74.2 73.9001H78.4C79 71.2001 81.4 69.2001 84.2 69.2001C87.4 69.2001 90.1 71.8001 90.1 75.1001C90.1 78.3001 87.5 81.0001 84.2 81.0001C81.4 81.0001 79 79.0001 78.4 76.4001H74.2C71.3 76.4001 69 74.0001 69 71.2001V58.7H58.6V39.8C58.6 39.1 58 38.5 57.3 38.5C56.6 38.5 56 39.1 56 39.8V58.6001H58.5V78.3001C61.1 78.9001 63.1 81.3001 63.1 84.1001C63.1 87.3001 60.5 90.0001 57.2 90.0001C54 90.0001 51.3 87.4001 51.3 84.1001C51.3 81.3001 53.2 78.9001 55.9 78.3001V58.7H44.2V39.8C44.2 39.1 43.6 38.5 42.9 38.5C42.2 38.5 41.6 39.1 41.6 39.8V58.6001H44.1V78.3001C46.7 78.9001 48.7 81.3001 48.7 84.1001C48.7 87.3001 46.1 90.0001 42.8 90.0001C39.6 90.0001 36.9 87.4001 36.9 84.1001C36.9 81.3001 38.8 78.9001 41.5 78.3001V58.7H31.1V71.1001C31.1 74.0001 28.8 76.3001 25.9 76.3001H21.7C21.1 78.9001 18.7 80.9001 15.9 80.9001C12.7 80.9001 10 78.3001 10 75.0001C10 71.8001 12.6 69.1001 15.9 69.1001C18.7 69.1001 21.1 71.1001 21.7 73.8001H25.9C27.3 73.8001 28.5 72.6001 28.5 71.2001V58.6001H31.1V45C31.1 44.3 30.5 43.7 29.8 43.7C29.1 43.7 28.5 44.3 28.5 45V58.6H21.9C15.3 58.6 10 53.3 10 46.7C10 43.5 11.2 40.5 13.5 38.3C14.8 37 16.4 36 18.2 35.4C17.4 33.4 17 31.2 17 28.9C17 18.5 25.5 10 35.9 10C41.3 10 46.4 12.3 50 16.3C53.6 12.3 58.7 10 64.1 10C74.5 10 83 18.5 83 29C83 31.2 82.7 33.4 81.9 35.5C86.7 37.1 90.1 41.6 90.1 46.8C90.1 50 88.9 53 86.6 55.2C84.4 57.4 81.4 58.7 78.2 58.7H71.6Z" fill="url(#paint0_linear_76_49699)"/>
<defs>
<linearGradient id="paint0_linear_76_49699" x1="22.4427" y1="17.2492" x2="76.1306" y2="87.8898" gradientUnits="userSpaceOnUse">
<stop offset="0.0833333" stop-color="#00D1FF"/>
<stop offset="0.421875" stop-color="#5C76FF"/>
<stop offset="1" stop-color="#AD00FF"/>
</linearGradient>
</defs>
</svg>
