<svg width="88" height="88" viewBox="0 0 88 88" fill="none" xmlns="http://www.w3.org/2000/svg">
<path fill-rule="evenodd" clip-rule="evenodd" d="M0 22C0 12.8874 7.38736 5.5 16.5 5.5H26.1654C28.3322 5.49997 30.4778 5.92675 32.4797 6.75596C34.4815 7.58518 36.3005 8.80058 37.8326 10.3328L47.4172 19.9174C50.5117 23.0117 54.7085 24.75 59.0846 24.75H71.5C80.6126 24.75 88 32.1374 88 41.25V66C88 75.1126 80.6126 82.5 71.5 82.5H16.5C7.38736 82.5 0 75.1126 0 66V22ZM52.25 11C52.25 7.96245 54.7125 5.5 57.75 5.5H79.75C84.3064 5.5 88 9.19359 88 13.75V16.5H57.75C54.7125 16.5 52.25 14.0375 52.25 11ZM52.25 46.75C52.25 49.8035 50.5909 52.4698 48.125 53.8962V60.5C48.125 62.7782 46.2782 64.625 44 64.625C41.7218 64.625 39.875 62.7782 39.875 60.5V53.8962C37.4091 52.4698 35.75 49.8035 35.75 46.75C35.75 42.1936 39.4436 38.5 44 38.5C48.5564 38.5 52.25 42.1936 52.25 46.75Z" fill="url(#paint0_linear_76_49693)"/>
<defs>
<linearGradient id="paint0_linear_76_49693" x1="13.6699" y1="12.4773" x2="63.1532" y2="86.7941" gradientUnits="userSpaceOnUse">
<stop offset="0.0833333" stop-color="#00D1FF"/>
<stop offset="0.421875" stop-color="#5C76FF"/>
<stop offset="1" stop-color="#AD00FF"/>
</linearGradient>
</defs>
</svg>
