<svg width="67" height="68" viewBox="0 0 67 68" fill="none" xmlns="http://www.w3.org/2000/svg">
<g filter="url(#filter0_d_76_49708)">
<g clip-path="url(#clip0_76_49708)">
<path d="M39.9015 25.1305C40.1961 25.1305 40.435 24.8482 40.435 24.5001C40.435 24.1519 40.1961 23.8696 39.9015 23.8696V25.1305ZM27.0989 23.8696C26.8043 23.8696 26.5654 24.1519 26.5654 24.5001C26.5654 24.8482 26.8043 25.1305 27.0989 25.1305V23.8696ZM39.9015 23.8696H27.0989V25.1305H39.9015V23.8696Z" fill="white"/>
<path d="M32.87 30.9015C32.87 31.1961 33.1522 31.435 33.5004 31.435C33.8486 31.435 34.1309 31.1961 34.1309 30.9015L32.87 30.9015ZM34.1309 18.0989C34.1309 17.8043 33.8486 17.5654 33.5004 17.5654C33.1522 17.5654 32.87 17.8043 32.87 18.0989L34.1309 18.0989ZM34.1309 30.9015L34.1309 18.0989L32.87 18.0989L32.87 30.9015L34.1309 30.9015Z" fill="white"/>
</g>
<rect x="19.3152" y="10.3152" width="28.3696" height="28.3696" rx="14.1848" stroke="white" stroke-width="0.630435"/>
</g>
<defs>
<filter id="filter0_d_76_49708" x="0.0869579" y="0.543479" width="66.8261" height="66.8261" filterUnits="userSpaceOnUse" color-interpolation-filters="sRGB">
<feFlood flood-opacity="0" result="BackgroundImageFix"/>
<feColorMatrix in="SourceAlpha" type="matrix" values="0 0 0 0 0 0 0 0 0 0 0 0 0 0 0 0 0 0 127 0" result="hardAlpha"/>
<feOffset dy="9.45652"/>
<feGaussianBlur stdDeviation="9.45652"/>
<feColorMatrix type="matrix" values="0 0 0 0 0.0862745 0 0 0 0 0.196078 0 0 0 0 0.568627 0 0 0 0.12 0"/>
<feBlend mode="normal" in2="BackgroundImageFix" result="effect1_dropShadow_76_49708"/>
<feBlend mode="normal" in="SourceGraphic" in2="effect1_dropShadow_76_49708" result="shape"/>
</filter>
<clipPath id="clip0_76_49708">
<rect width="13.8696" height="13.8696" fill="white" transform="translate(26.5654 17.5654)"/>
</clipPath>
</defs>
</svg>
