<svg width="17" height="17" viewBox="0 0 17 17" fill="none" xmlns="http://www.w3.org/2000/svg">
<g clip-path="url(#clip0_115_38)">
<path d="M12.75 1.41667C14.3126 1.41667 15.5833 2.68742 15.5833 4.25V12.75C15.5833 14.3126 14.3126 15.5833 12.75 15.5833H4.25C2.68742 15.5833 1.41667 14.3126 1.41667 12.75V4.25C1.41667 2.68742 2.68742 1.41667 4.25 1.41667H12.75ZM12.75 0H4.25C3.12283 0 2.04183 0.447767 1.2448 1.2448C0.447767 2.04183 0 3.12283 0 4.25L0 12.75C0 13.8772 0.447767 14.9582 1.2448 15.7552C2.04183 16.5522 3.12283 17 4.25 17H12.75C13.8772 17 14.9582 16.5522 15.7552 15.7552C16.5522 14.9582 17 13.8772 17 12.75V4.25C17 3.12283 16.5522 2.04183 15.7552 1.2448C14.9582 0.447767 13.8772 0 12.75 0Z" fill="#F42408"/>
<path d="M7.05253 12.0417C6.86711 12.0417 6.68909 11.9689 6.5567 11.8391L4.53299 9.85576C4.39877 9.72426 4.32228 9.54482 4.32035 9.35692C4.3194 9.26388 4.33678 9.17157 4.3715 9.08525C4.40622 8.99893 4.45761 8.92029 4.52272 8.85383C4.58784 8.78736 4.6654 8.73438 4.75099 8.69789C4.83659 8.66141 4.92853 8.64214 5.02156 8.64118C5.20946 8.63926 5.39043 8.71205 5.52466 8.84355L7.05253 10.3417L11.6156 5.86926C11.682 5.8041 11.7606 5.75266 11.8469 5.71788C11.9332 5.68309 12.0255 5.66565 12.1186 5.66654C12.2116 5.66742 12.3036 5.68663 12.3892 5.72305C12.4748 5.75948 12.5524 5.81241 12.6176 5.87883C12.6827 5.94524 12.7342 6.02384 12.7689 6.11014C12.8037 6.19643 12.8212 6.28874 12.8203 6.38177C12.8194 6.47481 12.8002 6.56677 12.7638 6.65238C12.7273 6.738 12.6744 6.8156 12.608 6.88076L7.54837 11.8391C7.41598 11.9689 7.23796 12.0417 7.05253 12.0417Z" fill="#F42408"/>
</g>
<defs>
<clipPath id="clip0_115_38">
<rect width="17" height="17" fill="white"/>
</clipPath>
</defs>
</svg>
