<?xml version="1.0" encoding="utf-8"?>
<!-- Generator: Adobe Illustrator 24.3.0, SVG Export Plug-In . SVG Version: 6.00 Build 0)  -->
<svg version="1.1" id="Layer" xmlns="http://www.w3.org/2000/svg" xmlns:xlink="http://www.w3.org/1999/xlink" x="0px" y="0px"
	 width="512px" height="512px" viewBox="0 0 512 512" enable-background="new 0 0 512 512" xml:space="preserve">
<path fill="#FFFFFF" d="M299.032,100.416c-6.392-6.088-16.528-5.848-22.616,0.552c-6.096,6.4-5.84,16.528,0.552,22.624L399.704,240
	H80c-8.832,0-16,7.168-16,16s7.168,16,16,16h319.192L276.968,388.416c-6.4,6.096-6.648,16.224-0.552,22.624
	c3.144,3.296,7.36,4.96,11.584,4.96c3.968,0,7.936-1.464,11.032-4.416l139.592-132.96C444.672,272.584,448,264.552,448,256
	s-3.328-16.584-9.656-22.896L299.032,100.416z"/>
</svg>
