<svg width="36" height="36" viewBox="0 0 36 36" fill="none" xmlns="http://www.w3.org/2000/svg">
<mask id="path-1-outside-1_103_2085" maskUnits="userSpaceOnUse" x="0.210449" y="4" width="36" height="28" fill="black">
<rect fill="white" x="0.210449" y="4" width="36" height="28"/>
<path fill-rule="evenodd" clip-rule="evenodd" d="M29.5264 5.09409C30.6908 5.41133 31.5304 6.37646 31.6843 7.57442C31.7403 8.01021 31.6728 8.77258 31.1177 13.975L30.4876 19.8808L30.6958 20.3064C30.8866 20.6965 30.9059 20.7983 30.9277 21.5304C30.9513 22.325 30.9523 22.329 31.1143 22.329C31.4822 22.329 32.3375 22.5566 32.7759 22.7711C33.9964 23.3684 34.8368 24.4591 35.1103 25.801C35.2438 26.456 35.2438 26.873 35.1103 27.5279C34.8368 28.8698 33.9964 29.9606 32.7759 30.5578C31.9276 30.973 31.6439 31 28.1354 31C25.9427 31 24.9434 30.9769 24.8277 30.9235C24.5832 30.8106 24.497 30.5299 24.5334 29.9655C24.5861 29.1467 24.7504 28.9215 25.971 27.9947L26.6538 27.4761L26.673 24.1039L26.692 20.7317L26.9016 20.3033L27.1113 19.8749L26.564 14.7025C26.263 11.8577 25.9962 9.50935 25.9712 9.48394C25.9064 9.4183 20.9352 10.1854 20.5844 10.3151C20.0351 10.5184 19.8821 10.727 19.0564 12.3992L18.2849 13.9616L18.6619 17.7897C18.8692 19.895 19.0378 21.7396 19.0365 21.8886C19.0291 22.7199 18.2488 23.4128 17.32 23.4128H17.0313V23.9548V24.4967L17.7166 24.4977C18.9363 24.4995 19.6487 24.7652 20.3567 25.4826C21.3264 26.4652 21.5642 27.8791 20.9748 29.1591C20.7349 29.6802 20.0859 30.3635 19.588 30.6192C18.8314 31.0076 19.0418 30.9982 11.1146 30.9951C4.44703 30.9924 3.78984 30.9823 3.3873 30.8758C1.82528 30.4627 0.774701 28.8422 1.04126 27.2572C1.16173 26.5409 1.44259 25.986 1.93933 25.4826C2.64727 24.7652 3.35969 24.4995 4.57941 24.4977L5.26468 24.4967V23.9548V23.4128H4.47083C3.61026 23.4128 3.26148 23.3309 2.88608 23.0408C2.58068 22.8048 2.32309 22.2485 2.32282 21.8245C2.32262 21.3995 2.96865 18.1017 3.1065 17.8241C3.25211 17.5308 3.52041 17.2574 3.82728 17.0896C4.08347 16.9495 4.19619 16.942 6.51596 16.9095C8.65508 16.8796 8.95018 16.8625 9.04819 16.7632C9.12287 16.6874 9.2872 16.0018 9.55162 14.6631C9.76743 13.57 9.98037 12.5858 10.0247 12.4761C10.1429 12.1837 10.4617 11.8418 10.7739 11.6724C11.0272 11.5351 11.1562 11.5224 12.4968 11.5024L13.9457 11.4808L15.2649 9.33464C16.1546 7.88725 16.695 7.07766 16.9247 6.84808C17.2836 6.48945 17.7048 6.25263 18.1819 6.14112C18.3537 6.10095 20.0838 6.07338 22.4994 6.07236L26.53 6.07074L26.8005 5.80749C27.5089 5.11773 28.5822 4.83681 29.5264 5.09409ZM28.1586 6.18427C27.4712 6.42164 26.9199 7.21999 26.9304 7.96265C26.9328 8.13302 27.1966 10.7263 27.5165 13.7256L28.0983 19.1789L28.2643 19.1459C28.4783 19.1033 29.1176 19.1033 29.3317 19.1459L29.4977 19.1789L30.0794 13.7256C30.3994 10.7263 30.6631 8.13302 30.6655 7.96265C30.6726 7.46495 30.4876 7.02875 30.1048 6.64086C29.57 6.09899 28.8767 5.93634 28.1586 6.18427ZM18.0454 7.33095C17.8533 7.42796 17.6245 7.60328 17.5369 7.72047C17.3517 7.96827 15.2262 11.404 15.2262 11.4555C15.2262 11.4746 15.5819 11.4901 16.0166 11.4901C16.9571 11.4901 17.3373 11.5969 17.6977 11.9622L17.944 12.2117L18.3886 11.3204C18.6331 10.8302 18.9259 10.3108 19.0393 10.1662C19.3242 9.80301 19.843 9.42183 20.2229 9.29664C20.4539 9.22049 25.5773 8.37398 25.807 8.37398C25.8236 8.37398 25.854 8.15294 25.8746 7.88285C25.8954 7.61276 25.933 7.3384 25.9583 7.27317C26.0018 7.16112 25.7961 7.15462 22.1995 7.15462H18.3947L18.0454 7.33095ZM11.1486 12.6953C11.0225 12.7989 10.9428 13.1103 10.6067 14.8123C10.3899 15.9099 10.1763 16.8978 10.1319 17.0075C10.0137 17.2999 9.69496 17.6418 9.38267 17.8111C9.11919 17.954 9.01811 17.9608 6.68764 17.9934C4.54805 18.0234 4.25348 18.0404 4.15541 18.1399C4.00425 18.2932 3.3165 21.7533 3.39539 21.9634C3.54007 22.349 3.1396 22.329 10.6859 22.329C17.5947 22.329 17.6155 22.3285 17.7911 22.1885C17.9416 22.0686 17.967 21.997 17.9652 21.6974C17.964 21.5045 17.7736 19.4443 17.5419 17.1191L17.1208 12.8916L16.9386 12.7328L16.7564 12.574H14.0265C11.5021 12.574 11.2854 12.5832 11.1486 12.6953ZM28.2121 20.3422C27.8224 20.637 27.7634 20.7926 27.7391 21.5885L27.7164 22.329H28.7921H29.8677V21.6898C29.8677 20.8188 29.7183 20.4809 29.2325 20.253C28.9661 20.1281 28.4337 20.1746 28.2121 20.3422ZM27.7259 25.6314C27.7242 27.2472 27.7014 27.8903 27.642 27.9987C27.5971 28.0804 27.1544 28.4548 26.6582 28.8307C25.7444 29.5228 25.5889 29.6678 25.5889 29.8274C25.5889 29.9688 31.1628 29.9551 31.7034 29.8124C33.3878 29.3679 34.4305 27.677 34.0706 25.9734C33.9405 25.3575 33.6844 24.9022 33.1805 24.3912C32.3203 23.5191 31.9738 23.4262 29.5501 23.4186L27.7283 23.4128L27.7259 25.6314ZM6.33438 23.9548V24.4967H11.148H15.9616V23.9548V23.4128H11.148H6.33438V23.9548ZM3.31275 25.7615C2.91148 25.9493 2.46174 26.405 2.25269 26.8356C2.01769 27.3195 2.01769 28.1772 2.25269 28.6611C2.46174 29.0917 2.91148 29.5474 3.31275 29.7352L3.62671 29.8822H11.148H18.6693L19.0018 29.7164C20.4889 28.975 20.665 26.9122 19.3211 25.9754C18.7398 25.5702 19.1197 25.5873 11.0477 25.6015L3.62671 25.6145L3.31275 25.7615Z"/>
</mask>
<path fill-rule="evenodd" clip-rule="evenodd" d="M29.5264 5.09409C30.6908 5.41133 31.5304 6.37646 31.6843 7.57442C31.7403 8.01021 31.6728 8.77258 31.1177 13.975L30.4876 19.8808L30.6958 20.3064C30.8866 20.6965 30.9059 20.7983 30.9277 21.5304C30.9513 22.325 30.9523 22.329 31.1143 22.329C31.4822 22.329 32.3375 22.5566 32.7759 22.7711C33.9964 23.3684 34.8368 24.4591 35.1103 25.801C35.2438 26.456 35.2438 26.873 35.1103 27.5279C34.8368 28.8698 33.9964 29.9606 32.7759 30.5578C31.9276 30.973 31.6439 31 28.1354 31C25.9427 31 24.9434 30.9769 24.8277 30.9235C24.5832 30.8106 24.497 30.5299 24.5334 29.9655C24.5861 29.1467 24.7504 28.9215 25.971 27.9947L26.6538 27.4761L26.673 24.1039L26.692 20.7317L26.9016 20.3033L27.1113 19.8749L26.564 14.7025C26.263 11.8577 25.9962 9.50935 25.9712 9.48394C25.9064 9.4183 20.9352 10.1854 20.5844 10.3151C20.0351 10.5184 19.8821 10.727 19.0564 12.3992L18.2849 13.9616L18.6619 17.7897C18.8692 19.895 19.0378 21.7396 19.0365 21.8886C19.0291 22.7199 18.2488 23.4128 17.32 23.4128H17.0313V23.9548V24.4967L17.7166 24.4977C18.9363 24.4995 19.6487 24.7652 20.3567 25.4826C21.3264 26.4652 21.5642 27.8791 20.9748 29.1591C20.7349 29.6802 20.0859 30.3635 19.588 30.6192C18.8314 31.0076 19.0418 30.9982 11.1146 30.9951C4.44703 30.9924 3.78984 30.9823 3.3873 30.8758C1.82528 30.4627 0.774701 28.8422 1.04126 27.2572C1.16173 26.5409 1.44259 25.986 1.93933 25.4826C2.64727 24.7652 3.35969 24.4995 4.57941 24.4977L5.26468 24.4967V23.9548V23.4128H4.47083C3.61026 23.4128 3.26148 23.3309 2.88608 23.0408C2.58068 22.8048 2.32309 22.2485 2.32282 21.8245C2.32262 21.3995 2.96865 18.1017 3.1065 17.8241C3.25211 17.5308 3.52041 17.2574 3.82728 17.0896C4.08347 16.9495 4.19619 16.942 6.51596 16.9095C8.65508 16.8796 8.95018 16.8625 9.04819 16.7632C9.12287 16.6874 9.2872 16.0018 9.55162 14.6631C9.76743 13.57 9.98037 12.5858 10.0247 12.4761C10.1429 12.1837 10.4617 11.8418 10.7739 11.6724C11.0272 11.5351 11.1562 11.5224 12.4968 11.5024L13.9457 11.4808L15.2649 9.33464C16.1546 7.88725 16.695 7.07766 16.9247 6.84808C17.2836 6.48945 17.7048 6.25263 18.1819 6.14112C18.3537 6.10095 20.0838 6.07338 22.4994 6.07236L26.53 6.07074L26.8005 5.80749C27.5089 5.11773 28.5822 4.83681 29.5264 5.09409ZM28.1586 6.18427C27.4712 6.42164 26.9199 7.21999 26.9304 7.96265C26.9328 8.13302 27.1966 10.7263 27.5165 13.7256L28.0983 19.1789L28.2643 19.1459C28.4783 19.1033 29.1176 19.1033 29.3317 19.1459L29.4977 19.1789L30.0794 13.7256C30.3994 10.7263 30.6631 8.13302 30.6655 7.96265C30.6726 7.46495 30.4876 7.02875 30.1048 6.64086C29.57 6.09899 28.8767 5.93634 28.1586 6.18427ZM18.0454 7.33095C17.8533 7.42796 17.6245 7.60328 17.5369 7.72047C17.3517 7.96827 15.2262 11.404 15.2262 11.4555C15.2262 11.4746 15.5819 11.4901 16.0166 11.4901C16.9571 11.4901 17.3373 11.5969 17.6977 11.9622L17.944 12.2117L18.3886 11.3204C18.6331 10.8302 18.9259 10.3108 19.0393 10.1662C19.3242 9.80301 19.843 9.42183 20.2229 9.29664C20.4539 9.22049 25.5773 8.37398 25.807 8.37398C25.8236 8.37398 25.854 8.15294 25.8746 7.88285C25.8954 7.61276 25.933 7.3384 25.9583 7.27317C26.0018 7.16112 25.7961 7.15462 22.1995 7.15462H18.3947L18.0454 7.33095ZM11.1486 12.6953C11.0225 12.7989 10.9428 13.1103 10.6067 14.8123C10.3899 15.9099 10.1763 16.8978 10.1319 17.0075C10.0137 17.2999 9.69496 17.6418 9.38267 17.8111C9.11919 17.954 9.01811 17.9608 6.68764 17.9934C4.54805 18.0234 4.25348 18.0404 4.15541 18.1399C4.00425 18.2932 3.3165 21.7533 3.39539 21.9634C3.54007 22.349 3.1396 22.329 10.6859 22.329C17.5947 22.329 17.6155 22.3285 17.7911 22.1885C17.9416 22.0686 17.967 21.997 17.9652 21.6974C17.964 21.5045 17.7736 19.4443 17.5419 17.1191L17.1208 12.8916L16.9386 12.7328L16.7564 12.574H14.0265C11.5021 12.574 11.2854 12.5832 11.1486 12.6953ZM28.2121 20.3422C27.8224 20.637 27.7634 20.7926 27.7391 21.5885L27.7164 22.329H28.7921H29.8677V21.6898C29.8677 20.8188 29.7183 20.4809 29.2325 20.253C28.9661 20.1281 28.4337 20.1746 28.2121 20.3422ZM27.7259 25.6314C27.7242 27.2472 27.7014 27.8903 27.642 27.9987C27.5971 28.0804 27.1544 28.4548 26.6582 28.8307C25.7444 29.5228 25.5889 29.6678 25.5889 29.8274C25.5889 29.9688 31.1628 29.9551 31.7034 29.8124C33.3878 29.3679 34.4305 27.677 34.0706 25.9734C33.9405 25.3575 33.6844 24.9022 33.1805 24.3912C32.3203 23.5191 31.9738 23.4262 29.5501 23.4186L27.7283 23.4128L27.7259 25.6314ZM6.33438 23.9548V24.4967H11.148H15.9616V23.9548V23.4128H11.148H6.33438V23.9548ZM3.31275 25.7615C2.91148 25.9493 2.46174 26.405 2.25269 26.8356C2.01769 27.3195 2.01769 28.1772 2.25269 28.6611C2.46174 29.0917 2.91148 29.5474 3.31275 29.7352L3.62671 29.8822H11.148H18.6693L19.0018 29.7164C20.4889 28.975 20.665 26.9122 19.3211 25.9754C18.7398 25.5702 19.1197 25.5873 11.0477 25.6015L3.62671 25.6145L3.31275 25.7615Z" fill="#347CCA"/>
<path fill-rule="evenodd" clip-rule="evenodd" d="M29.5264 5.09409C30.6908 5.41133 31.5304 6.37646 31.6843 7.57442C31.7403 8.01021 31.6728 8.77258 31.1177 13.975L30.4876 19.8808L30.6958 20.3064C30.8866 20.6965 30.9059 20.7983 30.9277 21.5304C30.9513 22.325 30.9523 22.329 31.1143 22.329C31.4822 22.329 32.3375 22.5566 32.7759 22.7711C33.9964 23.3684 34.8368 24.4591 35.1103 25.801C35.2438 26.456 35.2438 26.873 35.1103 27.5279C34.8368 28.8698 33.9964 29.9606 32.7759 30.5578C31.9276 30.973 31.6439 31 28.1354 31C25.9427 31 24.9434 30.9769 24.8277 30.9235C24.5832 30.8106 24.497 30.5299 24.5334 29.9655C24.5861 29.1467 24.7504 28.9215 25.971 27.9947L26.6538 27.4761L26.673 24.1039L26.692 20.7317L26.9016 20.3033L27.1113 19.8749L26.564 14.7025C26.263 11.8577 25.9962 9.50935 25.9712 9.48394C25.9064 9.4183 20.9352 10.1854 20.5844 10.3151C20.0351 10.5184 19.8821 10.727 19.0564 12.3992L18.2849 13.9616L18.6619 17.7897C18.8692 19.895 19.0378 21.7396 19.0365 21.8886C19.0291 22.7199 18.2488 23.4128 17.32 23.4128H17.0313V23.9548V24.4967L17.7166 24.4977C18.9363 24.4995 19.6487 24.7652 20.3567 25.4826C21.3264 26.4652 21.5642 27.8791 20.9748 29.1591C20.7349 29.6802 20.0859 30.3635 19.588 30.6192C18.8314 31.0076 19.0418 30.9982 11.1146 30.9951C4.44703 30.9924 3.78984 30.9823 3.3873 30.8758C1.82528 30.4627 0.774701 28.8422 1.04126 27.2572C1.16173 26.5409 1.44259 25.986 1.93933 25.4826C2.64727 24.7652 3.35969 24.4995 4.57941 24.4977L5.26468 24.4967V23.9548V23.4128H4.47083C3.61026 23.4128 3.26148 23.3309 2.88608 23.0408C2.58068 22.8048 2.32309 22.2485 2.32282 21.8245C2.32262 21.3995 2.96865 18.1017 3.1065 17.8241C3.25211 17.5308 3.52041 17.2574 3.82728 17.0896C4.08347 16.9495 4.19619 16.942 6.51596 16.9095C8.65508 16.8796 8.95018 16.8625 9.04819 16.7632C9.12287 16.6874 9.2872 16.0018 9.55162 14.6631C9.76743 13.57 9.98037 12.5858 10.0247 12.4761C10.1429 12.1837 10.4617 11.8418 10.7739 11.6724C11.0272 11.5351 11.1562 11.5224 12.4968 11.5024L13.9457 11.4808L15.2649 9.33464C16.1546 7.88725 16.695 7.07766 16.9247 6.84808C17.2836 6.48945 17.7048 6.25263 18.1819 6.14112C18.3537 6.10095 20.0838 6.07338 22.4994 6.07236L26.53 6.07074L26.8005 5.80749C27.5089 5.11773 28.5822 4.83681 29.5264 5.09409ZM28.1586 6.18427C27.4712 6.42164 26.9199 7.21999 26.9304 7.96265C26.9328 8.13302 27.1966 10.7263 27.5165 13.7256L28.0983 19.1789L28.2643 19.1459C28.4783 19.1033 29.1176 19.1033 29.3317 19.1459L29.4977 19.1789L30.0794 13.7256C30.3994 10.7263 30.6631 8.13302 30.6655 7.96265C30.6726 7.46495 30.4876 7.02875 30.1048 6.64086C29.57 6.09899 28.8767 5.93634 28.1586 6.18427ZM18.0454 7.33095C17.8533 7.42796 17.6245 7.60328 17.5369 7.72047C17.3517 7.96827 15.2262 11.404 15.2262 11.4555C15.2262 11.4746 15.5819 11.4901 16.0166 11.4901C16.9571 11.4901 17.3373 11.5969 17.6977 11.9622L17.944 12.2117L18.3886 11.3204C18.6331 10.8302 18.9259 10.3108 19.0393 10.1662C19.3242 9.80301 19.843 9.42183 20.2229 9.29664C20.4539 9.22049 25.5773 8.37398 25.807 8.37398C25.8236 8.37398 25.854 8.15294 25.8746 7.88285C25.8954 7.61276 25.933 7.3384 25.9583 7.27317C26.0018 7.16112 25.7961 7.15462 22.1995 7.15462H18.3947L18.0454 7.33095ZM11.1486 12.6953C11.0225 12.7989 10.9428 13.1103 10.6067 14.8123C10.3899 15.9099 10.1763 16.8978 10.1319 17.0075C10.0137 17.2999 9.69496 17.6418 9.38267 17.8111C9.11919 17.954 9.01811 17.9608 6.68764 17.9934C4.54805 18.0234 4.25348 18.0404 4.15541 18.1399C4.00425 18.2932 3.3165 21.7533 3.39539 21.9634C3.54007 22.349 3.1396 22.329 10.6859 22.329C17.5947 22.329 17.6155 22.3285 17.7911 22.1885C17.9416 22.0686 17.967 21.997 17.9652 21.6974C17.964 21.5045 17.7736 19.4443 17.5419 17.1191L17.1208 12.8916L16.9386 12.7328L16.7564 12.574H14.0265C11.5021 12.574 11.2854 12.5832 11.1486 12.6953ZM28.2121 20.3422C27.8224 20.637 27.7634 20.7926 27.7391 21.5885L27.7164 22.329H28.7921H29.8677V21.6898C29.8677 20.8188 29.7183 20.4809 29.2325 20.253C28.9661 20.1281 28.4337 20.1746 28.2121 20.3422ZM27.7259 25.6314C27.7242 27.2472 27.7014 27.8903 27.642 27.9987C27.5971 28.0804 27.1544 28.4548 26.6582 28.8307C25.7444 29.5228 25.5889 29.6678 25.5889 29.8274C25.5889 29.9688 31.1628 29.9551 31.7034 29.8124C33.3878 29.3679 34.4305 27.677 34.0706 25.9734C33.9405 25.3575 33.6844 24.9022 33.1805 24.3912C32.3203 23.5191 31.9738 23.4262 29.5501 23.4186L27.7283 23.4128L27.7259 25.6314ZM6.33438 23.9548V24.4967H11.148H15.9616V23.9548V23.4128H11.148H6.33438V23.9548ZM3.31275 25.7615C2.91148 25.9493 2.46174 26.405 2.25269 26.8356C2.01769 27.3195 2.01769 28.1772 2.25269 28.6611C2.46174 29.0917 2.91148 29.5474 3.31275 29.7352L3.62671 29.8822H11.148H18.6693L19.0018 29.7164C20.4889 28.975 20.665 26.9122 19.3211 25.9754C18.7398 25.5702 19.1197 25.5873 11.0477 25.6015L3.62671 25.6145L3.31275 25.7615Z" stroke="#347CCA" stroke-width="0.6" mask="url(#path-1-outside-1_103_2085)"/>
</svg>
