<svg width="36" height="36" viewBox="0 0 36 36" fill="none" xmlns="http://www.w3.org/2000/svg">
<mask id="path-1-outside-1_103_2087" maskUnits="userSpaceOnUse" x="4" y="3" width="28" height="29" fill="black">
<rect fill="white" x="4" y="3" width="28" height="29"/>
<path fill-rule="evenodd" clip-rule="evenodd" d="M12.9672 4.71823C10.917 5.11055 9.17917 5.46291 9.10534 5.50121C8.81585 5.65149 8.81464 5.66355 8.81464 8.43817C8.81464 10.088 8.79489 11.0239 8.75961 11.045C8.72931 11.0632 8.13833 11.1852 7.44626 11.3162C6.75419 11.4472 6.10514 11.5955 6.00395 11.6457C5.63737 11.8275 5.66258 11.1286 5.66258 21.0999V30.1678L5.51051 30.1974C5.08438 30.2805 4.86589 30.7614 5.08836 31.1267C5.28423 31.4483 4.30488 31.4242 17.856 31.4409C24.6993 31.4493 30.3783 31.4424 30.4759 31.4254C30.5736 31.4085 30.7291 31.3213 30.8215 31.2316C31.1537 30.9095 31 30.344 30.5444 30.2117L30.326 30.1482V22.0858V14.0235L30.1739 13.8598C30.0284 13.7032 29.9484 13.6812 28.3162 13.3495C27.378 13.1588 26.6003 13.0028 26.5881 13.0028C26.5757 13.0028 26.5657 11.5177 26.5657 9.70267C26.5657 6.12313 26.5669 6.13927 26.2638 5.94663C26.1145 5.85175 17.0976 3.9906 16.833 4.00004C16.757 4.00272 15.0173 4.32596 12.9672 4.71823ZM16.2247 8.14904C16.2247 9.71511 16.2038 10.8575 16.175 10.8575C16.1477 10.8575 15.4755 10.7247 14.6813 10.5625C13.8871 10.4003 13.1676 10.2675 13.0824 10.2675C12.9972 10.2675 12.3816 10.3732 11.7144 10.5023C11.0472 10.6314 10.408 10.7532 10.2939 10.7728L10.0865 10.8087V8.68778C10.0865 7.52127 10.0927 6.56635 10.1003 6.56565C10.108 6.56501 11.4206 6.31336 13.0174 6.00648C14.6141 5.69959 15.989 5.44672 16.0726 5.44457L16.2247 5.4406V8.14904ZM21.4505 6.20867L25.2108 6.9731L25.2251 9.82704C25.2368 12.1532 25.226 12.681 25.1669 12.681C25.0912 12.681 17.7626 11.1964 17.5934 11.1468C17.5028 11.1202 17.4966 10.9366 17.4966 8.27953C17.4966 5.61083 17.5024 5.44071 17.5934 5.44243C17.6466 5.44345 19.3823 5.78825 21.4505 6.20867ZM18.68 8.25094C18.4209 8.50221 18.4439 8.82342 18.7342 9.00791C18.8647 9.09083 23.5194 10.053 23.79 10.053C23.8614 10.053 23.9925 9.98247 24.0815 9.89623C24.3268 9.65826 24.2956 9.22968 24.0226 9.08798C23.9054 9.02717 19.1645 8.06859 18.9809 8.06859C18.9188 8.06859 18.7834 8.15065 18.68 8.25094ZM12.4091 12.7614C12.4091 13.3661 12.3889 13.8609 12.3642 13.8609C12.2458 13.8609 7.99306 14.7301 7.85851 14.7818C7.65463 14.8601 7.54276 15.0239 7.54276 15.244C7.54276 15.4931 7.63029 15.6269 7.85237 15.7169C8.03165 15.7895 8.16476 15.7694 10.1809 15.3637C11.3571 15.1272 12.34 14.9335 12.3653 14.9335C12.3906 14.9335 12.4045 15.4444 12.3964 16.0688L12.3814 17.2042L10.1971 17.6423C8.99574 17.8833 7.95744 18.0979 7.88981 18.1192C7.69687 18.1799 7.54276 18.4096 7.54276 18.6366C7.54276 18.797 7.5782 18.8681 7.71291 18.978C7.80648 19.0544 7.95048 19.1169 8.03287 19.1169C8.16432 19.1169 12.0601 18.3553 12.3123 18.2803C12.4024 18.2535 12.4091 18.3314 12.4091 19.4083C12.4091 20.0444 12.3938 20.565 12.3751 20.565C12.2667 20.565 7.98603 21.4387 7.85851 21.4869C7.65192 21.5649 7.54276 21.7282 7.54276 21.9594C7.54276 22.1921 7.65109 22.3523 7.86708 22.4391C8.00992 22.4965 8.29422 22.4513 10.1855 22.0711C11.3711 21.8327 12.3569 21.6376 12.3762 21.6376C12.3955 21.6376 12.4045 22.1487 12.3964 22.7734L12.3814 23.9091L10.3077 24.3251C9.16717 24.5539 8.15387 24.7557 8.05588 24.7736C7.95794 24.7915 7.80244 24.8677 7.71026 24.9429C7.56991 25.0574 7.54276 25.1184 7.54276 25.3186C7.54276 25.6258 7.72281 25.8209 8.00622 25.8209C8.15044 25.8209 11.6995 25.1408 12.3123 24.9957C12.4034 24.9742 12.4091 25.1235 12.4091 27.569V30.1652H9.69942H6.98976V21.4345V12.7039L9.65795 12.1891C11.1254 11.9059 12.3448 11.6714 12.3676 11.6681C12.3904 11.6647 12.4091 12.1567 12.4091 12.7614ZM21.4481 13.2441C25.5765 14.0848 28.9644 14.7726 28.9766 14.7726C28.9888 14.7726 28.9988 15.2553 28.9988 15.8453C28.9988 16.703 28.9841 16.9179 28.9252 16.9179C28.8846 16.9179 25.4732 16.2301 21.3443 15.3894C17.2153 14.5487 13.8143 13.8609 13.7866 13.8609C13.758 13.8609 13.7363 13.3978 13.7363 12.7882C13.7363 11.7787 13.7423 11.7156 13.839 11.7156C13.8955 11.7156 17.3196 12.4034 21.4481 13.2441ZM21.5194 16.4969L28.9983 18.0174L28.9986 19.1629L28.9988 20.3084L28.8744 20.2789C28.8059 20.2626 25.4154 19.5711 21.3399 18.7421C17.2643 17.9132 13.8863 17.2224 13.833 17.2069C13.7448 17.1814 13.7363 17.0787 13.7363 16.05V14.921L13.8883 14.9487C13.9719 14.964 17.406 15.6606 21.5194 16.4969ZM21.3399 19.8154C25.4154 20.644 28.8059 21.3353 28.8744 21.3515C28.9985 21.381 28.9988 21.3841 28.9988 22.5015C28.9988 23.1178 28.9914 23.622 28.9823 23.622C28.9732 23.622 25.5588 22.9342 21.3947 22.0935C17.2306 21.2528 13.804 20.565 13.7799 20.565C13.7297 20.565 13.7193 18.3467 13.7693 18.2982C13.7875 18.2806 13.831 18.2757 13.8661 18.2874C13.9011 18.2991 17.2643 18.9867 21.3399 19.8154ZM21.3991 23.1693C25.5623 24.0118 28.9759 24.7082 28.9848 24.7169C28.9938 24.7255 28.9943 25.2384 28.9861 25.8568L28.9712 26.9809L21.3675 25.4438L13.7639 23.9067L13.749 22.7722C13.7408 22.1482 13.7556 21.6376 13.7818 21.6376C13.808 21.6376 17.2358 22.3269 21.3991 23.1693ZM27.0357 27.663L28.9712 28.0544L28.9862 29.1098L29.0011 30.1652H21.3687H13.7363V27.5998C13.7363 26.1887 13.7484 25.0226 13.7632 25.0082C13.778 24.9939 16.3349 25.4973 19.4452 26.1268C22.5555 26.7565 25.9712 27.4478 27.0357 27.663Z"/>
</mask>
<path fill-rule="evenodd" clip-rule="evenodd" d="M12.9672 4.71823C10.917 5.11055 9.17917 5.46291 9.10534 5.50121C8.81585 5.65149 8.81464 5.66355 8.81464 8.43817C8.81464 10.088 8.79489 11.0239 8.75961 11.045C8.72931 11.0632 8.13833 11.1852 7.44626 11.3162C6.75419 11.4472 6.10514 11.5955 6.00395 11.6457C5.63737 11.8275 5.66258 11.1286 5.66258 21.0999V30.1678L5.51051 30.1974C5.08438 30.2805 4.86589 30.7614 5.08836 31.1267C5.28423 31.4483 4.30488 31.4242 17.856 31.4409C24.6993 31.4493 30.3783 31.4424 30.4759 31.4254C30.5736 31.4085 30.7291 31.3213 30.8215 31.2316C31.1537 30.9095 31 30.344 30.5444 30.2117L30.326 30.1482V22.0858V14.0235L30.1739 13.8598C30.0284 13.7032 29.9484 13.6812 28.3162 13.3495C27.378 13.1588 26.6003 13.0028 26.5881 13.0028C26.5757 13.0028 26.5657 11.5177 26.5657 9.70267C26.5657 6.12313 26.5669 6.13927 26.2638 5.94663C26.1145 5.85175 17.0976 3.9906 16.833 4.00004C16.757 4.00272 15.0173 4.32596 12.9672 4.71823ZM16.2247 8.14904C16.2247 9.71511 16.2038 10.8575 16.175 10.8575C16.1477 10.8575 15.4755 10.7247 14.6813 10.5625C13.8871 10.4003 13.1676 10.2675 13.0824 10.2675C12.9972 10.2675 12.3816 10.3732 11.7144 10.5023C11.0472 10.6314 10.408 10.7532 10.2939 10.7728L10.0865 10.8087V8.68778C10.0865 7.52127 10.0927 6.56635 10.1003 6.56565C10.108 6.56501 11.4206 6.31336 13.0174 6.00648C14.6141 5.69959 15.989 5.44672 16.0726 5.44457L16.2247 5.4406V8.14904ZM21.4505 6.20867L25.2108 6.9731L25.2251 9.82704C25.2368 12.1532 25.226 12.681 25.1669 12.681C25.0912 12.681 17.7626 11.1964 17.5934 11.1468C17.5028 11.1202 17.4966 10.9366 17.4966 8.27953C17.4966 5.61083 17.5024 5.44071 17.5934 5.44243C17.6466 5.44345 19.3823 5.78825 21.4505 6.20867ZM18.68 8.25094C18.4209 8.50221 18.4439 8.82342 18.7342 9.00791C18.8647 9.09083 23.5194 10.053 23.79 10.053C23.8614 10.053 23.9925 9.98247 24.0815 9.89623C24.3268 9.65826 24.2956 9.22968 24.0226 9.08798C23.9054 9.02717 19.1645 8.06859 18.9809 8.06859C18.9188 8.06859 18.7834 8.15065 18.68 8.25094ZM12.4091 12.7614C12.4091 13.3661 12.3889 13.8609 12.3642 13.8609C12.2458 13.8609 7.99306 14.7301 7.85851 14.7818C7.65463 14.8601 7.54276 15.0239 7.54276 15.244C7.54276 15.4931 7.63029 15.6269 7.85237 15.7169C8.03165 15.7895 8.16476 15.7694 10.1809 15.3637C11.3571 15.1272 12.34 14.9335 12.3653 14.9335C12.3906 14.9335 12.4045 15.4444 12.3964 16.0688L12.3814 17.2042L10.1971 17.6423C8.99574 17.8833 7.95744 18.0979 7.88981 18.1192C7.69687 18.1799 7.54276 18.4096 7.54276 18.6366C7.54276 18.797 7.5782 18.8681 7.71291 18.978C7.80648 19.0544 7.95048 19.1169 8.03287 19.1169C8.16432 19.1169 12.0601 18.3553 12.3123 18.2803C12.4024 18.2535 12.4091 18.3314 12.4091 19.4083C12.4091 20.0444 12.3938 20.565 12.3751 20.565C12.2667 20.565 7.98603 21.4387 7.85851 21.4869C7.65192 21.5649 7.54276 21.7282 7.54276 21.9594C7.54276 22.1921 7.65109 22.3523 7.86708 22.4391C8.00992 22.4965 8.29422 22.4513 10.1855 22.0711C11.3711 21.8327 12.3569 21.6376 12.3762 21.6376C12.3955 21.6376 12.4045 22.1487 12.3964 22.7734L12.3814 23.9091L10.3077 24.3251C9.16717 24.5539 8.15387 24.7557 8.05588 24.7736C7.95794 24.7915 7.80244 24.8677 7.71026 24.9429C7.56991 25.0574 7.54276 25.1184 7.54276 25.3186C7.54276 25.6258 7.72281 25.8209 8.00622 25.8209C8.15044 25.8209 11.6995 25.1408 12.3123 24.9957C12.4034 24.9742 12.4091 25.1235 12.4091 27.569V30.1652H9.69942H6.98976V21.4345V12.7039L9.65795 12.1891C11.1254 11.9059 12.3448 11.6714 12.3676 11.6681C12.3904 11.6647 12.4091 12.1567 12.4091 12.7614ZM21.4481 13.2441C25.5765 14.0848 28.9644 14.7726 28.9766 14.7726C28.9888 14.7726 28.9988 15.2553 28.9988 15.8453C28.9988 16.703 28.9841 16.9179 28.9252 16.9179C28.8846 16.9179 25.4732 16.2301 21.3443 15.3894C17.2153 14.5487 13.8143 13.8609 13.7866 13.8609C13.758 13.8609 13.7363 13.3978 13.7363 12.7882C13.7363 11.7787 13.7423 11.7156 13.839 11.7156C13.8955 11.7156 17.3196 12.4034 21.4481 13.2441ZM21.5194 16.4969L28.9983 18.0174L28.9986 19.1629L28.9988 20.3084L28.8744 20.2789C28.8059 20.2626 25.4154 19.5711 21.3399 18.7421C17.2643 17.9132 13.8863 17.2224 13.833 17.2069C13.7448 17.1814 13.7363 17.0787 13.7363 16.05V14.921L13.8883 14.9487C13.9719 14.964 17.406 15.6606 21.5194 16.4969ZM21.3399 19.8154C25.4154 20.644 28.8059 21.3353 28.8744 21.3515C28.9985 21.381 28.9988 21.3841 28.9988 22.5015C28.9988 23.1178 28.9914 23.622 28.9823 23.622C28.9732 23.622 25.5588 22.9342 21.3947 22.0935C17.2306 21.2528 13.804 20.565 13.7799 20.565C13.7297 20.565 13.7193 18.3467 13.7693 18.2982C13.7875 18.2806 13.831 18.2757 13.8661 18.2874C13.9011 18.2991 17.2643 18.9867 21.3399 19.8154ZM21.3991 23.1693C25.5623 24.0118 28.9759 24.7082 28.9848 24.7169C28.9938 24.7255 28.9943 25.2384 28.9861 25.8568L28.9712 26.9809L21.3675 25.4438L13.7639 23.9067L13.749 22.7722C13.7408 22.1482 13.7556 21.6376 13.7818 21.6376C13.808 21.6376 17.2358 22.3269 21.3991 23.1693ZM27.0357 27.663L28.9712 28.0544L28.9862 29.1098L29.0011 30.1652H21.3687H13.7363V27.5998C13.7363 26.1887 13.7484 25.0226 13.7632 25.0082C13.778 24.9939 16.3349 25.4973 19.4452 26.1268C22.5555 26.7565 25.9712 27.4478 27.0357 27.663Z" fill="#347CCA"/>
<path fill-rule="evenodd" clip-rule="evenodd" d="M12.9672 4.71823C10.917 5.11055 9.17917 5.46291 9.10534 5.50121C8.81585 5.65149 8.81464 5.66355 8.81464 8.43817C8.81464 10.088 8.79489 11.0239 8.75961 11.045C8.72931 11.0632 8.13833 11.1852 7.44626 11.3162C6.75419 11.4472 6.10514 11.5955 6.00395 11.6457C5.63737 11.8275 5.66258 11.1286 5.66258 21.0999V30.1678L5.51051 30.1974C5.08438 30.2805 4.86589 30.7614 5.08836 31.1267C5.28423 31.4483 4.30488 31.4242 17.856 31.4409C24.6993 31.4493 30.3783 31.4424 30.4759 31.4254C30.5736 31.4085 30.7291 31.3213 30.8215 31.2316C31.1537 30.9095 31 30.344 30.5444 30.2117L30.326 30.1482V22.0858V14.0235L30.1739 13.8598C30.0284 13.7032 29.9484 13.6812 28.3162 13.3495C27.378 13.1588 26.6003 13.0028 26.5881 13.0028C26.5757 13.0028 26.5657 11.5177 26.5657 9.70267C26.5657 6.12313 26.5669 6.13927 26.2638 5.94663C26.1145 5.85175 17.0976 3.9906 16.833 4.00004C16.757 4.00272 15.0173 4.32596 12.9672 4.71823ZM16.2247 8.14904C16.2247 9.71511 16.2038 10.8575 16.175 10.8575C16.1477 10.8575 15.4755 10.7247 14.6813 10.5625C13.8871 10.4003 13.1676 10.2675 13.0824 10.2675C12.9972 10.2675 12.3816 10.3732 11.7144 10.5023C11.0472 10.6314 10.408 10.7532 10.2939 10.7728L10.0865 10.8087V8.68778C10.0865 7.52127 10.0927 6.56635 10.1003 6.56565C10.108 6.56501 11.4206 6.31336 13.0174 6.00648C14.6141 5.69959 15.989 5.44672 16.0726 5.44457L16.2247 5.4406V8.14904ZM21.4505 6.20867L25.2108 6.9731L25.2251 9.82704C25.2368 12.1532 25.226 12.681 25.1669 12.681C25.0912 12.681 17.7626 11.1964 17.5934 11.1468C17.5028 11.1202 17.4966 10.9366 17.4966 8.27953C17.4966 5.61083 17.5024 5.44071 17.5934 5.44243C17.6466 5.44345 19.3823 5.78825 21.4505 6.20867ZM18.68 8.25094C18.4209 8.50221 18.4439 8.82342 18.7342 9.00791C18.8647 9.09083 23.5194 10.053 23.79 10.053C23.8614 10.053 23.9925 9.98247 24.0815 9.89623C24.3268 9.65826 24.2956 9.22968 24.0226 9.08798C23.9054 9.02717 19.1645 8.06859 18.9809 8.06859C18.9188 8.06859 18.7834 8.15065 18.68 8.25094ZM12.4091 12.7614C12.4091 13.3661 12.3889 13.8609 12.3642 13.8609C12.2458 13.8609 7.99306 14.7301 7.85851 14.7818C7.65463 14.8601 7.54276 15.0239 7.54276 15.244C7.54276 15.4931 7.63029 15.6269 7.85237 15.7169C8.03165 15.7895 8.16476 15.7694 10.1809 15.3637C11.3571 15.1272 12.34 14.9335 12.3653 14.9335C12.3906 14.9335 12.4045 15.4444 12.3964 16.0688L12.3814 17.2042L10.1971 17.6423C8.99574 17.8833 7.95744 18.0979 7.88981 18.1192C7.69687 18.1799 7.54276 18.4096 7.54276 18.6366C7.54276 18.797 7.5782 18.8681 7.71291 18.978C7.80648 19.0544 7.95048 19.1169 8.03287 19.1169C8.16432 19.1169 12.0601 18.3553 12.3123 18.2803C12.4024 18.2535 12.4091 18.3314 12.4091 19.4083C12.4091 20.0444 12.3938 20.565 12.3751 20.565C12.2667 20.565 7.98603 21.4387 7.85851 21.4869C7.65192 21.5649 7.54276 21.7282 7.54276 21.9594C7.54276 22.1921 7.65109 22.3523 7.86708 22.4391C8.00992 22.4965 8.29422 22.4513 10.1855 22.0711C11.3711 21.8327 12.3569 21.6376 12.3762 21.6376C12.3955 21.6376 12.4045 22.1487 12.3964 22.7734L12.3814 23.9091L10.3077 24.3251C9.16717 24.5539 8.15387 24.7557 8.05588 24.7736C7.95794 24.7915 7.80244 24.8677 7.71026 24.9429C7.56991 25.0574 7.54276 25.1184 7.54276 25.3186C7.54276 25.6258 7.72281 25.8209 8.00622 25.8209C8.15044 25.8209 11.6995 25.1408 12.3123 24.9957C12.4034 24.9742 12.4091 25.1235 12.4091 27.569V30.1652H9.69942H6.98976V21.4345V12.7039L9.65795 12.1891C11.1254 11.9059 12.3448 11.6714 12.3676 11.6681C12.3904 11.6647 12.4091 12.1567 12.4091 12.7614ZM21.4481 13.2441C25.5765 14.0848 28.9644 14.7726 28.9766 14.7726C28.9888 14.7726 28.9988 15.2553 28.9988 15.8453C28.9988 16.703 28.9841 16.9179 28.9252 16.9179C28.8846 16.9179 25.4732 16.2301 21.3443 15.3894C17.2153 14.5487 13.8143 13.8609 13.7866 13.8609C13.758 13.8609 13.7363 13.3978 13.7363 12.7882C13.7363 11.7787 13.7423 11.7156 13.839 11.7156C13.8955 11.7156 17.3196 12.4034 21.4481 13.2441ZM21.5194 16.4969L28.9983 18.0174L28.9986 19.1629L28.9988 20.3084L28.8744 20.2789C28.8059 20.2626 25.4154 19.5711 21.3399 18.7421C17.2643 17.9132 13.8863 17.2224 13.833 17.2069C13.7448 17.1814 13.7363 17.0787 13.7363 16.05V14.921L13.8883 14.9487C13.9719 14.964 17.406 15.6606 21.5194 16.4969ZM21.3399 19.8154C25.4154 20.644 28.8059 21.3353 28.8744 21.3515C28.9985 21.381 28.9988 21.3841 28.9988 22.5015C28.9988 23.1178 28.9914 23.622 28.9823 23.622C28.9732 23.622 25.5588 22.9342 21.3947 22.0935C17.2306 21.2528 13.804 20.565 13.7799 20.565C13.7297 20.565 13.7193 18.3467 13.7693 18.2982C13.7875 18.2806 13.831 18.2757 13.8661 18.2874C13.9011 18.2991 17.2643 18.9867 21.3399 19.8154ZM21.3991 23.1693C25.5623 24.0118 28.9759 24.7082 28.9848 24.7169C28.9938 24.7255 28.9943 25.2384 28.9861 25.8568L28.9712 26.9809L21.3675 25.4438L13.7639 23.9067L13.749 22.7722C13.7408 22.1482 13.7556 21.6376 13.7818 21.6376C13.808 21.6376 17.2358 22.3269 21.3991 23.1693ZM27.0357 27.663L28.9712 28.0544L28.9862 29.1098L29.0011 30.1652H21.3687H13.7363V27.5998C13.7363 26.1887 13.7484 25.0226 13.7632 25.0082C13.778 24.9939 16.3349 25.4973 19.4452 26.1268C22.5555 26.7565 25.9712 27.4478 27.0357 27.663Z" stroke="#347CCA" stroke-width="0.4" mask="url(#path-1-outside-1_103_2087)"/>
</svg>
