<svg width="36" height="36" viewBox="0 0 36 36" fill="none" xmlns="http://www.w3.org/2000/svg">
<mask id="path-1-outside-1_103_2086" maskUnits="userSpaceOnUse" x="4" y="4" width="28" height="28" fill="black">
<rect fill="white" x="4" y="4" width="28" height="28"/>
<path fill-rule="evenodd" clip-rule="evenodd" d="M11.3652 5.04026C10.8483 5.15777 10.3184 5.64945 10.1437 6.1736C10.0406 6.48282 10.0411 7.02039 10.1447 7.30887C10.2666 7.64802 10.5155 7.97015 10.8021 8.15957C11.2575 8.46066 11.4757 8.48998 13.2603 8.48998H14.85L14.8503 9.44294C14.8507 10.8895 14.8806 10.9404 15.7481 10.9725L16.2725 10.9919V12.1551V13.3183L14.9643 13.3184C13.8203 13.3185 13.6338 13.3297 13.4789 13.4074C13.19 13.5523 13.175 13.6261 13.1742 14.9078L13.1734 16.0651L12.25 16.0513L11.3266 16.0374L11.2693 15.7833C11.1315 15.172 10.6535 14.6035 10.0887 14.3792C9.81047 14.2687 9.71592 14.2615 8.31288 14.2438C7.07083 14.2282 6.77906 14.2384 6.51055 14.3073C5.72448 14.5087 5.19479 15.0618 5.04674 15.8358C5.00457 16.0561 4.99288 17.9671 5.00391 22.8225L5.0191 29.5059L5.18036 29.8465C5.38556 30.2798 5.7189 30.6133 6.15201 30.8185L6.49246 30.9799L7.96582 30.9964C8.94424 31.0074 9.54161 30.9931 9.74402 30.9538C10.4921 30.8087 11.0926 30.2336 11.2584 29.5034L11.327 29.201H17.9999H24.6728L24.7415 29.5034C24.9083 30.2381 25.5031 30.8078 26.2558 30.9538C26.4582 30.9931 27.0556 31.0074 28.034 30.9964L29.5074 30.9799L29.8478 30.8185C30.2809 30.6133 30.6143 30.2798 30.8195 29.8465L30.9807 29.5059L30.996 22.8225C31.0072 17.9548 30.9955 16.0566 30.9531 15.8354C30.8058 15.0665 30.2793 14.5109 29.5094 14.3115C29.1505 14.2186 26.7315 14.1985 26.2772 14.2847C25.5117 14.43 24.9025 15.0202 24.7305 15.7833L24.6732 16.0374L23.7498 16.0513L22.8265 16.0651L22.8257 14.9078C22.8249 13.6261 22.8099 13.5523 22.5209 13.4074C22.3661 13.3297 22.1795 13.3185 21.0356 13.3184L19.7273 13.3183V12.1551V10.9919L20.2518 10.9725C21.1193 10.9404 21.1492 10.8895 21.1496 9.44294L21.1499 8.48998H22.7396C24.5293 8.48998 24.7509 8.45994 25.1934 8.15744C25.6717 7.83043 25.9314 7.33169 25.931 6.74116C25.9304 5.99831 25.5658 5.44091 24.8705 5.1196L24.63 5.0085L18.1015 5.00077C14.2322 4.9962 11.4884 5.01226 11.3652 5.04026ZM24.5395 6.08445C25.0562 6.32973 25.0679 7.0767 24.5596 7.36249L24.3622 7.47349H18.0037C11.7815 7.47349 11.641 7.47136 11.4494 7.37352C10.9384 7.11274 10.94 6.33888 11.4522 6.08649C11.6095 6.00898 12.156 6.00181 17.9923 6.00075C23.8374 5.99968 24.3754 6.00654 24.5395 6.08445ZM20.1338 9.22694V9.96389H17.9999H15.8661V9.22694V8.48998H17.9999H20.1338V9.22694ZM18.762 12.1494V13.3183H17.9999H17.2378V12.1494V10.9804H17.9999H18.762V12.1494ZM21.8103 15.1988V16.0628H17.9999H14.1895V15.1988V14.3348H17.9999H21.8103V15.1988ZM9.70683 15.3283C9.95791 15.4332 10.1188 15.5881 10.2323 15.8341C10.3219 16.0284 10.3261 16.329 10.3272 22.622L10.3283 29.2064L10.2021 29.4579C10.1289 29.6038 9.99728 29.7626 9.88831 29.8363L9.70068 29.9634H8.16905H6.63746L6.43139 29.827C6.30687 29.7445 6.1825 29.602 6.11701 29.4667L6.00869 29.2428L6.02195 22.5602L6.03521 15.8775L6.17076 15.6726C6.25012 15.5527 6.39761 15.4225 6.5264 15.3587C6.73516 15.2553 6.81777 15.2498 8.13257 15.2497C9.26878 15.2497 9.55258 15.2638 9.70683 15.3283ZM29.5686 15.4115C29.6925 15.4936 29.8174 15.6365 29.8823 15.7706L29.99 15.9933V22.6192V29.2452L29.8823 29.4678C29.8173 29.602 29.6926 29.7448 29.5685 29.827L29.3624 29.9634H27.8308H26.2992L26.1115 29.8363C26.0026 29.7626 25.8709 29.6038 25.7977 29.4579L25.6716 29.2064V22.633C25.6716 16.8148 25.6806 16.0379 25.7502 15.8713C25.8549 15.6208 26.0094 15.4597 26.2558 15.3445C26.4417 15.2577 26.5833 15.2506 27.9108 15.2623L29.3626 15.2751L29.5686 15.4115ZM24.6555 22.6446V28.2099H17.9999H11.3444V22.6446V17.0793H17.9999H24.6555V22.6446Z"/>
</mask>
<path fill-rule="evenodd" clip-rule="evenodd" d="M11.3652 5.04026C10.8483 5.15777 10.3184 5.64945 10.1437 6.1736C10.0406 6.48282 10.0411 7.02039 10.1447 7.30887C10.2666 7.64802 10.5155 7.97015 10.8021 8.15957C11.2575 8.46066 11.4757 8.48998 13.2603 8.48998H14.85L14.8503 9.44294C14.8507 10.8895 14.8806 10.9404 15.7481 10.9725L16.2725 10.9919V12.1551V13.3183L14.9643 13.3184C13.8203 13.3185 13.6338 13.3297 13.4789 13.4074C13.19 13.5523 13.175 13.6261 13.1742 14.9078L13.1734 16.0651L12.25 16.0513L11.3266 16.0374L11.2693 15.7833C11.1315 15.172 10.6535 14.6035 10.0887 14.3792C9.81047 14.2687 9.71592 14.2615 8.31288 14.2438C7.07083 14.2282 6.77906 14.2384 6.51055 14.3073C5.72448 14.5087 5.19479 15.0618 5.04674 15.8358C5.00457 16.0561 4.99288 17.9671 5.00391 22.8225L5.0191 29.5059L5.18036 29.8465C5.38556 30.2798 5.7189 30.6133 6.15201 30.8185L6.49246 30.9799L7.96582 30.9964C8.94424 31.0074 9.54161 30.9931 9.74402 30.9538C10.4921 30.8087 11.0926 30.2336 11.2584 29.5034L11.327 29.201H17.9999H24.6728L24.7415 29.5034C24.9083 30.2381 25.5031 30.8078 26.2558 30.9538C26.4582 30.9931 27.0556 31.0074 28.034 30.9964L29.5074 30.9799L29.8478 30.8185C30.2809 30.6133 30.6143 30.2798 30.8195 29.8465L30.9807 29.5059L30.996 22.8225C31.0072 17.9548 30.9955 16.0566 30.9531 15.8354C30.8058 15.0665 30.2793 14.5109 29.5094 14.3115C29.1505 14.2186 26.7315 14.1985 26.2772 14.2847C25.5117 14.43 24.9025 15.0202 24.7305 15.7833L24.6732 16.0374L23.7498 16.0513L22.8265 16.0651L22.8257 14.9078C22.8249 13.6261 22.8099 13.5523 22.5209 13.4074C22.3661 13.3297 22.1795 13.3185 21.0356 13.3184L19.7273 13.3183V12.1551V10.9919L20.2518 10.9725C21.1193 10.9404 21.1492 10.8895 21.1496 9.44294L21.1499 8.48998H22.7396C24.5293 8.48998 24.7509 8.45994 25.1934 8.15744C25.6717 7.83043 25.9314 7.33169 25.931 6.74116C25.9304 5.99831 25.5658 5.44091 24.8705 5.1196L24.63 5.0085L18.1015 5.00077C14.2322 4.9962 11.4884 5.01226 11.3652 5.04026ZM24.5395 6.08445C25.0562 6.32973 25.0679 7.0767 24.5596 7.36249L24.3622 7.47349H18.0037C11.7815 7.47349 11.641 7.47136 11.4494 7.37352C10.9384 7.11274 10.94 6.33888 11.4522 6.08649C11.6095 6.00898 12.156 6.00181 17.9923 6.00075C23.8374 5.99968 24.3754 6.00654 24.5395 6.08445ZM20.1338 9.22694V9.96389H17.9999H15.8661V9.22694V8.48998H17.9999H20.1338V9.22694ZM18.762 12.1494V13.3183H17.9999H17.2378V12.1494V10.9804H17.9999H18.762V12.1494ZM21.8103 15.1988V16.0628H17.9999H14.1895V15.1988V14.3348H17.9999H21.8103V15.1988ZM9.70683 15.3283C9.95791 15.4332 10.1188 15.5881 10.2323 15.8341C10.3219 16.0284 10.3261 16.329 10.3272 22.622L10.3283 29.2064L10.2021 29.4579C10.1289 29.6038 9.99728 29.7626 9.88831 29.8363L9.70068 29.9634H8.16905H6.63746L6.43139 29.827C6.30687 29.7445 6.1825 29.602 6.11701 29.4667L6.00869 29.2428L6.02195 22.5602L6.03521 15.8775L6.17076 15.6726C6.25012 15.5527 6.39761 15.4225 6.5264 15.3587C6.73516 15.2553 6.81777 15.2498 8.13257 15.2497C9.26878 15.2497 9.55258 15.2638 9.70683 15.3283ZM29.5686 15.4115C29.6925 15.4936 29.8174 15.6365 29.8823 15.7706L29.99 15.9933V22.6192V29.2452L29.8823 29.4678C29.8173 29.602 29.6926 29.7448 29.5685 29.827L29.3624 29.9634H27.8308H26.2992L26.1115 29.8363C26.0026 29.7626 25.8709 29.6038 25.7977 29.4579L25.6716 29.2064V22.633C25.6716 16.8148 25.6806 16.0379 25.7502 15.8713C25.8549 15.6208 26.0094 15.4597 26.2558 15.3445C26.4417 15.2577 26.5833 15.2506 27.9108 15.2623L29.3626 15.2751L29.5686 15.4115ZM24.6555 22.6446V28.2099H17.9999H11.3444V22.6446V17.0793H17.9999H24.6555V22.6446Z" fill="#347CCA"/>
<path fill-rule="evenodd" clip-rule="evenodd" d="M11.3652 5.04026C10.8483 5.15777 10.3184 5.64945 10.1437 6.1736C10.0406 6.48282 10.0411 7.02039 10.1447 7.30887C10.2666 7.64802 10.5155 7.97015 10.8021 8.15957C11.2575 8.46066 11.4757 8.48998 13.2603 8.48998H14.85L14.8503 9.44294C14.8507 10.8895 14.8806 10.9404 15.7481 10.9725L16.2725 10.9919V12.1551V13.3183L14.9643 13.3184C13.8203 13.3185 13.6338 13.3297 13.4789 13.4074C13.19 13.5523 13.175 13.6261 13.1742 14.9078L13.1734 16.0651L12.25 16.0513L11.3266 16.0374L11.2693 15.7833C11.1315 15.172 10.6535 14.6035 10.0887 14.3792C9.81047 14.2687 9.71592 14.2615 8.31288 14.2438C7.07083 14.2282 6.77906 14.2384 6.51055 14.3073C5.72448 14.5087 5.19479 15.0618 5.04674 15.8358C5.00457 16.0561 4.99288 17.9671 5.00391 22.8225L5.0191 29.5059L5.18036 29.8465C5.38556 30.2798 5.7189 30.6133 6.15201 30.8185L6.49246 30.9799L7.96582 30.9964C8.94424 31.0074 9.54161 30.9931 9.74402 30.9538C10.4921 30.8087 11.0926 30.2336 11.2584 29.5034L11.327 29.201H17.9999H24.6728L24.7415 29.5034C24.9083 30.2381 25.5031 30.8078 26.2558 30.9538C26.4582 30.9931 27.0556 31.0074 28.034 30.9964L29.5074 30.9799L29.8478 30.8185C30.2809 30.6133 30.6143 30.2798 30.8195 29.8465L30.9807 29.5059L30.996 22.8225C31.0072 17.9548 30.9955 16.0566 30.9531 15.8354C30.8058 15.0665 30.2793 14.5109 29.5094 14.3115C29.1505 14.2186 26.7315 14.1985 26.2772 14.2847C25.5117 14.43 24.9025 15.0202 24.7305 15.7833L24.6732 16.0374L23.7498 16.0513L22.8265 16.0651L22.8257 14.9078C22.8249 13.6261 22.8099 13.5523 22.5209 13.4074C22.3661 13.3297 22.1795 13.3185 21.0356 13.3184L19.7273 13.3183V12.1551V10.9919L20.2518 10.9725C21.1193 10.9404 21.1492 10.8895 21.1496 9.44294L21.1499 8.48998H22.7396C24.5293 8.48998 24.7509 8.45994 25.1934 8.15744C25.6717 7.83043 25.9314 7.33169 25.931 6.74116C25.9304 5.99831 25.5658 5.44091 24.8705 5.1196L24.63 5.0085L18.1015 5.00077C14.2322 4.9962 11.4884 5.01226 11.3652 5.04026ZM24.5395 6.08445C25.0562 6.32973 25.0679 7.0767 24.5596 7.36249L24.3622 7.47349H18.0037C11.7815 7.47349 11.641 7.47136 11.4494 7.37352C10.9384 7.11274 10.94 6.33888 11.4522 6.08649C11.6095 6.00898 12.156 6.00181 17.9923 6.00075C23.8374 5.99968 24.3754 6.00654 24.5395 6.08445ZM20.1338 9.22694V9.96389H17.9999H15.8661V9.22694V8.48998H17.9999H20.1338V9.22694ZM18.762 12.1494V13.3183H17.9999H17.2378V12.1494V10.9804H17.9999H18.762V12.1494ZM21.8103 15.1988V16.0628H17.9999H14.1895V15.1988V14.3348H17.9999H21.8103V15.1988ZM9.70683 15.3283C9.95791 15.4332 10.1188 15.5881 10.2323 15.8341C10.3219 16.0284 10.3261 16.329 10.3272 22.622L10.3283 29.2064L10.2021 29.4579C10.1289 29.6038 9.99728 29.7626 9.88831 29.8363L9.70068 29.9634H8.16905H6.63746L6.43139 29.827C6.30687 29.7445 6.1825 29.602 6.11701 29.4667L6.00869 29.2428L6.02195 22.5602L6.03521 15.8775L6.17076 15.6726C6.25012 15.5527 6.39761 15.4225 6.5264 15.3587C6.73516 15.2553 6.81777 15.2498 8.13257 15.2497C9.26878 15.2497 9.55258 15.2638 9.70683 15.3283ZM29.5686 15.4115C29.6925 15.4936 29.8174 15.6365 29.8823 15.7706L29.99 15.9933V22.6192V29.2452L29.8823 29.4678C29.8173 29.602 29.6926 29.7448 29.5685 29.827L29.3624 29.9634H27.8308H26.2992L26.1115 29.8363C26.0026 29.7626 25.8709 29.6038 25.7977 29.4579L25.6716 29.2064V22.633C25.6716 16.8148 25.6806 16.0379 25.7502 15.8713C25.8549 15.6208 26.0094 15.4597 26.2558 15.3445C26.4417 15.2577 26.5833 15.2506 27.9108 15.2623L29.3626 15.2751L29.5686 15.4115ZM24.6555 22.6446V28.2099H17.9999H11.3444V22.6446V17.0793H17.9999H24.6555V22.6446Z" stroke="#347CCA" stroke-width="0.6" mask="url(#path-1-outside-1_103_2086)"/>
</svg>
