<svg width="50" height="50" viewBox="0 0 50 50" fill="none" xmlns="http://www.w3.org/2000/svg">
<path d="M28.2893 14.7245C28.5539 13.7102 29.9093 13.5155 30.4486 14.4144C30.4828 14.4714 30.5121 14.5311 30.5363 14.593L35.8394 28.1823C37.1189 31.4608 34.7009 35 31.1815 35H29.4717C26.1977 35 23.8072 31.9058 24.6336 28.7379L28.2893 14.7245Z" fill="#A55E3F" fill-opacity="0.2"/>
<rect x="6" y="41" width="38" height="8" fill="#A55E3F" fill-opacity="0.2"/>
<path d="M42.9688 0H7.03125C6.40987 0.000723676 5.81415 0.247886 5.37477 0.687268C4.93539 1.12665 4.68822 1.72237 4.6875 2.34375V47.6562C4.68822 48.2776 4.93539 48.8733 5.37477 49.3127C5.81415 49.7521 6.40987 49.9993 7.03125 50H42.9688C43.5901 49.9993 44.1858 49.7521 44.6252 49.3127C45.0646 48.8733 45.3118 48.2776 45.3125 47.6562V2.34375C45.3118 1.72237 45.0646 1.12665 44.6252 0.687268C44.1858 0.247886 43.5901 0.000723676 42.9688 0V0ZM43.75 47.6562C43.75 47.8634 43.6677 48.0622 43.5212 48.2087C43.3747 48.3552 43.1759 48.4375 42.9688 48.4375H7.03125C6.82405 48.4375 6.62534 48.3552 6.47882 48.2087C6.33231 48.0622 6.25 47.8634 6.25 47.6562V41.4062H43.75V47.6562ZM43.75 39.8438H6.25V2.34375C6.25 2.13655 6.33231 1.93784 6.47882 1.79132C6.62534 1.64481 6.82405 1.5625 7.03125 1.5625H42.9688C43.1759 1.5625 43.3747 1.64481 43.5212 1.79132C43.6677 1.93784 43.75 2.13655 43.75 2.34375V39.8438Z" fill="#A55E3F"/>
<path d="M8.59375 18.75C8.80095 18.75 8.99967 18.6677 9.14618 18.5212C9.29269 18.3747 9.375 18.1759 9.375 17.9687V16.4062C9.375 16.199 9.29269 16.0003 9.14618 15.8538C8.99967 15.7073 8.80095 15.625 8.59375 15.625C8.38655 15.625 8.18784 15.7073 8.04133 15.8538C7.89481 16.0003 7.8125 16.199 7.8125 16.4062V17.9687C7.8125 18.1759 7.89481 18.3747 8.04133 18.5212C8.18784 18.6677 8.38655 18.75 8.59375 18.75ZM8.59375 14.0625C8.80095 14.0625 8.99967 13.9802 9.14618 13.8337C9.29269 13.6872 9.375 13.4885 9.375 13.2812V11.7188C9.375 11.5115 9.29269 11.3128 9.14618 11.1663C8.99967 11.0198 8.80095 10.9375 8.59375 10.9375C8.38655 10.9375 8.18784 11.0198 8.04133 11.1663C7.89481 11.3128 7.8125 11.5115 7.8125 11.7188V13.2812C7.8125 13.4885 7.89481 13.6872 8.04133 13.8337C8.18784 13.9802 8.38655 14.0625 8.59375 14.0625ZM9.375 35.1562C9.375 34.949 9.29269 34.7503 9.14618 34.6038C8.99967 34.4573 8.80095 34.375 8.59375 34.375C8.38655 34.375 8.18784 34.4573 8.04133 34.6038C7.89481 34.7503 7.8125 34.949 7.8125 35.1562V36.7187C7.8122 36.868 7.83338 37.0165 7.87539 37.1598C7.93388 37.3586 8.06896 37.5261 8.25093 37.6254C8.4329 37.7246 8.64685 37.7475 8.84571 37.6891C9.04457 37.6306 9.21205 37.4955 9.31131 37.3135C9.41058 37.1316 9.43349 36.9176 9.375 36.7187V35.1562ZM8.59375 32.8125C8.80095 32.8125 8.99967 32.7302 9.14618 32.5837C9.29269 32.4372 9.375 32.2384 9.375 32.0312V30.4687C9.375 30.2615 9.29269 30.0628 9.14618 29.9163C8.99967 29.7698 8.80095 29.6875 8.59375 29.6875C8.38655 29.6875 8.18784 29.7698 8.04133 29.9163C7.89481 30.0628 7.8125 30.2615 7.8125 30.4687V32.0312C7.8125 32.2384 7.89481 32.4372 8.04133 32.5837C8.18784 32.7302 8.38655 32.8125 8.59375 32.8125ZM8.59375 28.125C8.80095 28.125 8.99967 28.0427 9.14618 27.8962C9.29269 27.7497 9.375 27.5509 9.375 27.3437V25.7812C9.375 25.574 9.29269 25.3753 9.14618 25.2288C8.99967 25.0823 8.80095 25 8.59375 25C8.38655 25 8.18784 25.0823 8.04133 25.2288C7.89481 25.3753 7.8125 25.574 7.8125 25.7812V27.3437C7.8125 27.5509 7.89481 27.7497 8.04133 27.8962C8.18784 28.0427 8.38655 28.125 8.59375 28.125ZM11.2723 3.90625C11.2723 3.69905 11.19 3.50034 11.0434 3.35382C10.8969 3.20731 10.6982 3.125 10.491 3.125H9.375C9.07538 3.12479 8.78204 3.21091 8.53008 3.37305C8.35577 3.48509 8.23311 3.66179 8.18909 3.86427C8.14506 4.06675 8.18327 4.27843 8.29532 4.45273C8.40736 4.62704 8.58406 4.7497 8.78654 4.79373C8.98902 4.83776 9.2007 4.79954 9.375 4.6875H10.491C10.6982 4.6875 10.8969 4.60519 11.0434 4.45868C11.19 4.31216 11.2723 4.11345 11.2723 3.90625ZM8.59375 23.4375C8.80095 23.4375 8.99967 23.3552 9.14618 23.2087C9.29269 23.0622 9.375 22.8634 9.375 22.6562V21.0937C9.375 20.8865 9.29269 20.6878 9.14618 20.5413C8.99967 20.3948 8.80095 20.3125 8.59375 20.3125C8.38655 20.3125 8.18784 20.3948 8.04133 20.5413C7.89481 20.6878 7.8125 20.8865 7.8125 21.0937V22.6562C7.8125 22.8634 7.89481 23.0622 8.04133 23.2087C8.18784 23.3552 8.38655 23.4375 8.59375 23.4375ZM27.6785 4.6875H29.241C29.4482 4.6875 29.6469 4.60519 29.7934 4.45868C29.94 4.31216 30.0223 4.11345 30.0223 3.90625C30.0223 3.69905 29.94 3.50034 29.7934 3.35382C29.6469 3.20731 29.4482 3.125 29.241 3.125H27.6785C27.4713 3.125 27.2726 3.20731 27.1261 3.35382C26.9796 3.50034 26.8973 3.69905 26.8973 3.90625C26.8973 4.11345 26.9796 4.31216 27.1261 4.45868C27.2726 4.60519 27.4713 4.6875 27.6785 4.6875ZM32.366 4.6875H33.9285C34.1357 4.6875 34.3344 4.60519 34.4809 4.45868C34.6275 4.31216 34.7098 4.11345 34.7098 3.90625C34.7098 3.69905 34.6275 3.50034 34.4809 3.35382C34.3344 3.20731 34.1357 3.125 33.9285 3.125H32.366C32.1588 3.125 31.9601 3.20731 31.8136 3.35382C31.6671 3.50034 31.5848 3.69905 31.5848 3.90625C31.5848 4.11345 31.6671 4.31216 31.8136 4.45868C31.9601 4.60519 32.1588 4.6875 32.366 4.6875ZM8.59375 9.375C8.80095 9.375 8.99967 9.29269 9.14618 9.14618C9.29269 8.99966 9.375 8.80095 9.375 8.59375V7.03125C9.375 6.82405 9.29269 6.62534 9.14618 6.47882C8.99967 6.33231 8.80095 6.25 8.59375 6.25C8.38655 6.25 8.18784 6.33231 8.04133 6.47882C7.89481 6.62534 7.8125 6.82405 7.8125 7.03125V8.59375C7.8125 8.80095 7.89481 8.99966 8.04133 9.14618C8.18784 9.29269 8.38655 9.375 8.59375 9.375ZM37.0535 4.6875H38.616C38.8232 4.6875 39.0219 4.60519 39.1684 4.45868C39.315 4.31216 39.3973 4.11345 39.3973 3.90625C39.3973 3.69905 39.315 3.50034 39.1684 3.35382C39.0219 3.20731 38.8232 3.125 38.616 3.125H37.0535C36.8463 3.125 36.6476 3.20731 36.5011 3.35382C36.3546 3.50034 36.2723 3.69905 36.2723 3.90625C36.2723 4.11345 36.3546 4.31216 36.5011 4.45868C36.6476 4.60519 36.8463 4.6875 37.0535 4.6875ZM22.991 4.6875H24.5535C24.7607 4.6875 24.9594 4.60519 25.1059 4.45868C25.2525 4.31216 25.3348 4.11345 25.3348 3.90625C25.3348 3.69905 25.2525 3.50034 25.1059 3.35382C24.9594 3.20731 24.7607 3.125 24.5535 3.125H22.991C22.7838 3.125 22.5851 3.20731 22.4386 3.35382C22.2921 3.50034 22.2098 3.69905 22.2098 3.90625C22.2098 4.11345 22.2921 4.31216 22.4386 4.45868C22.5851 4.60519 22.7838 4.6875 22.991 4.6875ZM13.616 4.6875H15.1785C15.3857 4.6875 15.5844 4.60519 15.7309 4.45868C15.8775 4.31216 15.9598 4.11345 15.9598 3.90625C15.9598 3.69905 15.8775 3.50034 15.7309 3.35382C15.5844 3.20731 15.3857 3.125 15.1785 3.125H13.616C13.4088 3.125 13.2101 3.20731 13.0636 3.35382C12.9171 3.50034 12.8348 3.69905 12.8348 3.90625C12.8348 4.11345 12.9171 4.31216 13.0636 4.45868C13.2101 4.60519 13.4088 4.6875 13.616 4.6875ZM18.3035 4.6875H19.866C20.0732 4.6875 20.2719 4.60519 20.4184 4.45868C20.565 4.31216 20.6473 4.11345 20.6473 3.90625C20.6473 3.69905 20.565 3.50034 20.4184 3.35382C20.2719 3.20731 20.0732 3.125 19.866 3.125H18.3035C18.0963 3.125 17.8976 3.20731 17.7511 3.35382C17.6046 3.50034 17.5223 3.69905 17.5223 3.90625C17.5223 4.11345 17.6046 4.31216 17.7511 4.45868C17.8976 4.60519 18.0963 4.6875 18.3035 4.6875ZM41.2891 3.80352C41.1874 3.81789 41.0895 3.85216 41.0011 3.90438C40.9127 3.9566 40.8354 4.02574 40.7738 4.10784C40.7121 4.18994 40.6672 4.2834 40.6417 4.38286C40.6162 4.48232 40.6105 4.58584 40.625 4.6875V6.13828C40.625 6.34548 40.7073 6.5442 40.8538 6.69071C41.0003 6.83722 41.1991 6.91953 41.4063 6.91953C41.6135 6.91953 41.8122 6.83722 41.9587 6.69071C42.1052 6.5442 42.1875 6.34548 42.1875 6.13828V4.6875C42.1875 4.61353 42.1823 4.53964 42.1719 4.46641C42.1426 4.26151 42.0331 4.07661 41.8676 3.95233C41.7021 3.82804 41.494 3.77452 41.2891 3.80352ZM41.4063 27.232C41.1991 27.232 41.0003 27.3143 40.8538 27.4609C40.7073 27.6074 40.625 27.8061 40.625 28.0133V29.5758C40.625 29.783 40.7073 29.9817 40.8538 30.1282C41.0003 30.2747 41.1991 30.357 41.4063 30.357C41.6135 30.357 41.8122 30.2747 41.9587 30.1282C42.1052 29.9817 42.1875 29.783 42.1875 29.5758V28.0133C42.1875 27.8061 42.1052 27.6074 41.9587 27.4609C41.8122 27.3143 41.6135 27.232 41.4063 27.232ZM41.4063 22.5445C41.1991 22.5445 41.0003 22.6268 40.8538 22.7734C40.7073 22.9199 40.625 23.1186 40.625 23.3258V24.8883C40.625 25.0955 40.7073 25.2942 40.8538 25.4407C41.0003 25.5872 41.1991 25.6695 41.4063 25.6695C41.6135 25.6695 41.8122 25.5872 41.9587 25.4407C42.1052 25.2942 42.1875 25.0955 42.1875 24.8883V23.3258C42.1875 23.1186 42.1052 22.9199 41.9587 22.7734C41.8122 22.6268 41.6135 22.5445 41.4063 22.5445ZM41.4063 31.9195C41.1991 31.9195 41.0003 32.0018 40.8538 32.1484C40.7073 32.2949 40.625 32.4936 40.625 32.7008V34.2633C40.625 34.4705 40.7073 34.6692 40.8538 34.8157C41.0003 34.9622 41.1991 35.0445 41.4063 35.0445C41.6135 35.0445 41.8122 34.9622 41.9587 34.8157C42.1052 34.6692 42.1875 34.4705 42.1875 34.2633V32.7008C42.1875 32.4936 42.1052 32.2949 41.9587 32.1484C41.8122 32.0018 41.6135 31.9195 41.4063 31.9195ZM41.4063 8.48203C41.1991 8.48203 41.0003 8.56434 40.8538 8.71085C40.7073 8.85737 40.625 9.05608 40.625 9.26328V10.8258C40.625 11.033 40.7073 11.2317 40.8538 11.3782C41.0003 11.5247 41.1991 11.607 41.4063 11.607C41.6135 11.607 41.8122 11.5247 41.9587 11.3782C42.1052 11.2317 42.1875 11.033 42.1875 10.8258V9.26328C42.1875 9.05608 42.1052 8.85737 41.9587 8.71085C41.8122 8.56434 41.6135 8.48203 41.4063 8.48203ZM39.6207 36.7187C39.4135 36.7187 39.2148 36.8011 39.0683 36.9476C38.9218 37.0941 38.8395 37.2928 38.8395 37.5C38.8395 37.7072 38.9218 37.9059 39.0683 38.0524C39.2148 38.1989 39.4135 38.2812 39.6207 38.2812H40.625C41.0007 38.2809 41.3636 38.1455 41.6477 37.8996L40.625 36.7187H39.6207ZM41.4063 17.857C41.1991 17.857 41.0003 17.9393 40.8538 18.0859C40.7073 18.2324 40.625 18.4311 40.625 18.6383V20.2008C40.625 20.408 40.7073 20.6067 40.8538 20.7532C41.0003 20.8997 41.1991 20.982 41.4063 20.982C41.6135 20.982 41.8122 20.8997 41.9587 20.7532C42.1052 20.6067 42.1875 20.408 42.1875 20.2008V18.6383C42.1875 18.4311 42.1052 18.2324 41.9587 18.0859C41.8122 17.9393 41.6135 17.857 41.4063 17.857ZM41.4063 13.1695C41.1991 13.1695 41.0003 13.2518 40.8538 13.3984C40.7073 13.5449 40.625 13.7436 40.625 13.9508V15.5133C40.625 15.7205 40.7073 15.9192 40.8538 16.0657C41.0003 16.2122 41.1991 16.2945 41.4063 16.2945C41.6135 16.2945 41.8122 16.2122 41.9587 16.0657C42.1052 15.9192 42.1875 15.7205 42.1875 15.5133V13.9508C42.1875 13.7436 42.1052 13.5449 41.9587 13.3984C41.8122 13.2518 41.6135 13.1695 41.4063 13.1695ZM31.8082 36.7187H30.2457C30.0385 36.7187 29.8398 36.8011 29.6933 36.9476C29.5468 37.0941 29.4645 37.2928 29.4645 37.5C29.4645 37.7072 29.5468 37.9059 29.6933 38.0524C29.8398 38.1989 30.0385 38.2812 30.2457 38.2812H31.8082C32.0154 38.2812 32.2141 38.1989 32.3606 38.0524C32.5071 37.9059 32.5895 37.7072 32.5895 37.5C32.5895 37.2928 32.5071 37.0941 32.3606 36.9476C32.2141 36.8011 32.0154 36.7187 31.8082 36.7187ZM27.1207 36.7187H25.5582C25.351 36.7187 25.1523 36.8011 25.0058 36.9476C24.8593 37.0941 24.777 37.2928 24.777 37.5C24.777 37.7072 24.8593 37.9059 25.0058 38.0524C25.1523 38.1989 25.351 38.2812 25.5582 38.2812H27.1207C27.3279 38.2812 27.5266 38.1989 27.6731 38.0524C27.8196 37.9059 27.902 37.7072 27.902 37.5C27.902 37.2928 27.8196 37.0941 27.6731 36.9476C27.5266 36.8011 27.3279 36.7187 27.1207 36.7187ZM13.0582 36.7187H11.4957C11.2885 36.7187 11.0898 36.8011 10.9433 36.9476C10.7968 37.0941 10.7145 37.2928 10.7145 37.5C10.7145 37.7072 10.7968 37.9059 10.9433 38.0524C11.0898 38.1989 11.2885 38.2812 11.4957 38.2812H13.0582C13.2654 38.2812 13.4641 38.1989 13.6106 38.0524C13.7571 37.9059 13.8395 37.7072 13.8395 37.5C13.8395 37.2928 13.7571 37.0941 13.6106 36.9476C13.4641 36.8011 13.2654 36.7187 13.0582 36.7187ZM22.4332 36.7187H20.8707C20.6635 36.7187 20.4648 36.8011 20.3183 36.9476C20.1718 37.0941 20.0895 37.2928 20.0895 37.5C20.0895 37.7072 20.1718 37.9059 20.3183 38.0524C20.4648 38.1989 20.6635 38.2812 20.8707 38.2812H22.4332C22.6404 38.2812 22.8391 38.1989 22.9856 38.0524C23.1321 37.9059 23.2145 37.7072 23.2145 37.5C23.2145 37.2928 23.1321 37.0941 22.9856 36.9476C22.8391 36.8011 22.6404 36.7187 22.4332 36.7187ZM17.7457 36.7187H16.1832C15.976 36.7187 15.7773 36.8011 15.6308 36.9476C15.4843 37.0941 15.402 37.2928 15.402 37.5C15.402 37.7072 15.4843 37.9059 15.6308 38.0524C15.7773 38.1989 15.976 38.2812 16.1832 38.2812H17.7457C17.9529 38.2812 18.1516 38.1989 18.2981 38.0524C18.4446 37.9059 18.527 37.7072 18.527 37.5C18.527 37.2928 18.4446 37.0941 18.2981 36.9476C18.1516 36.8011 17.9529 36.7187 17.7457 36.7187ZM36.4957 36.7187H34.9332C34.726 36.7187 34.5273 36.8011 34.3808 36.9476C34.2343 37.0941 34.152 37.2928 34.152 37.5C34.152 37.7072 34.2343 37.9059 34.3808 38.0524C34.5273 38.1989 34.726 38.2812 34.9332 38.2812H36.4957C36.7029 38.2812 36.9016 38.1989 37.0481 38.0524C37.1946 37.9059 37.277 37.7072 37.277 37.5C37.277 37.2928 37.1946 37.0941 37.0481 36.9476C36.9016 36.8011 36.7029 36.7187 36.4957 36.7187ZM31.3785 12.5781C31.3552 12.512 31.323 12.4493 31.2828 12.3918C31.156 12.2097 30.9919 12.0567 30.8014 11.943C30.6109 11.8292 30.3984 11.7574 30.178 11.7322C29.9575 11.707 29.7343 11.729 29.523 11.7968C29.3117 11.8646 29.1173 11.9766 28.9527 12.1254C28.8728 12.1978 28.8087 12.286 28.7645 12.3844L24.132 22.6656L21.6731 18.3773C21.6169 18.2794 21.5401 18.1947 21.4481 18.1293C21.2798 18.0096 21.0896 17.9245 20.8882 17.8788C20.6869 17.8331 20.4785 17.8277 20.2751 17.863C20.0717 17.8983 19.8773 17.9736 19.7032 18.0845C19.5291 18.1953 19.3786 18.3396 19.2605 18.509C19.2439 18.5327 19.2286 18.5573 19.2148 18.5828L11.5152 32.7418C11.3618 32.9776 11.275 33.2505 11.2638 33.5316C11.2526 33.8128 11.3175 34.0917 11.4517 34.339C11.5859 34.5862 11.7843 34.7927 12.0261 34.9366C12.2679 35.0804 12.5441 35.1563 12.8254 35.1562H37.1758C37.4509 35.1563 37.7212 35.0838 37.9592 34.9459C38.1973 34.808 38.3948 34.6097 38.5316 34.3711C38.6685 34.1324 38.7399 33.8619 38.7387 33.5867C38.7375 33.3116 38.6636 33.0417 38.5246 32.8043L31.3785 12.5781ZM12.8254 33.5937C12.8418 33.5701 12.857 33.5456 12.8707 33.5203L20.5051 19.4816L23.0051 23.8422C23.0613 23.9402 23.138 24.0248 23.2301 24.0902C23.5193 24.2981 23.8713 24.4003 24.2269 24.3795C24.5825 24.3587 24.9201 24.2163 25.1832 23.9762C25.2631 23.9037 25.3272 23.8156 25.3715 23.7172L30.0156 13.4102L37.0805 33.4074C37.1037 33.4736 37.1357 33.5362 37.1758 33.5937H12.8254Z" fill="#A55E3F"/>
<path d="M32.8516 26.1266C32.8188 26.0281 32.7667 25.9371 32.6984 25.859C32.6301 25.7808 32.5468 25.7171 32.4536 25.6715C32.3604 25.6259 32.259 25.5993 32.1554 25.5933C32.0517 25.5873 31.948 25.6021 31.8501 25.6366C31.7522 25.6712 31.6622 25.7249 31.5853 25.7947C31.5085 25.8644 31.4463 25.9488 31.4024 26.0428C31.3585 26.1369 31.3337 26.2387 31.3296 26.3424C31.3256 26.4462 31.3422 26.5497 31.3785 26.6469L32.7277 30.4687H30.127C29.9198 30.4687 29.721 30.5511 29.5745 30.6976C29.428 30.8441 29.3457 31.0428 29.3457 31.25C29.3457 31.4572 29.428 31.6559 29.5745 31.8024C29.721 31.9489 29.9198 32.0312 30.127 32.0312H33.8324C33.9575 32.0314 34.0808 32.0016 34.1919 31.9443C34.3031 31.8869 34.3988 31.8037 34.4711 31.7017C34.5434 31.5996 34.5902 31.4817 34.6074 31.3578C34.6247 31.234 34.612 31.1078 34.5703 30.9898L32.8516 26.1266ZM13.2812 10.9375C13.2812 11.6328 13.4874 12.3125 13.8737 12.8907C14.26 13.4688 14.8091 13.9194 15.4515 14.1855C16.0939 14.4516 16.8008 14.5212 17.4827 14.3856C18.1647 14.2499 18.7911 13.9151 19.2828 13.4234C19.7745 12.9318 20.1093 12.3053 20.2449 11.6234C20.3806 10.9414 20.311 10.2345 20.0449 9.59213C19.7788 8.94973 19.3282 8.40067 18.7501 8.01436C18.1719 7.62806 17.4922 7.42187 16.7969 7.42188C15.8648 7.42291 14.9712 7.79364 14.3121 8.45272C13.653 9.1118 13.2823 10.0054 13.2812 10.9375ZM16.7969 8.98437C17.1832 8.98437 17.5608 9.09892 17.882 9.31354C18.2032 9.52815 18.4535 9.83318 18.6013 10.1901C18.7492 10.547 18.7878 10.9397 18.7125 11.3185C18.6371 11.6974 18.4511 12.0454 18.1779 12.3186C17.9048 12.5917 17.5568 12.7777 17.1779 12.8531C16.799 12.9285 16.4063 12.8898 16.0494 12.742C15.6926 12.5941 15.3875 12.3438 15.1729 12.0226C14.9583 11.7014 14.8438 11.3238 14.8438 10.9375C14.8444 10.4197 15.0503 9.92326 15.4165 9.55712C15.7826 9.19097 16.2791 8.985 16.7969 8.98437Z" fill="#A55E3F"/>
</svg>
