<svg width="50" height="50" viewBox="0 0 50 50" fill="none" xmlns="http://www.w3.org/2000/svg">
<path d="M19.9762 36.8046C20.5285 38.0388 19.0566 39.2982 18.248 38.2832L4.10633 20.5313C3.49429 19.7631 4.03777 18.4529 4.9685 18.4529L11.1667 18.4529C11.537 18.4529 11.8663 18.681 12.0327 19.0527L19.9762 36.8046Z" fill="#A55E3F" fill-opacity="0.2"/>
<path d="M35.8063 12.9304C35.429 13.9667 33.9368 13.8812 33.6436 12.8066L31.6625 5.5455C31.4591 4.79982 32.035 4.08377 32.8028 4.12773L37.3328 4.38706C38.1007 4.43101 38.6171 5.20959 38.3553 5.92864L35.8063 12.9304Z" fill="#A55E3F" fill-opacity="0.2"/>
<path d="M25.2754 49.8274C25.157 49.8274 25.0386 49.8274 24.9202 49.8274C24.8018 49.6854 24.8018 49.6854 24.6834 49.6854H24.565L1.00243 18.4523C1.00243 18.4523 1.00243 18.4523 1.00243 18.3104C1.00243 18.1684 0.88403 18.1684 0.88403 18.1684C0.88403 18.0264 0.765625 17.8845 0.765625 17.8845V17.7425C0.765625 17.7425 0.765625 17.6005 0.765625 17.4586L0.88403 17.3166L10.3564 2.97778C10.4748 2.83582 10.4748 2.83582 10.5932 2.83582L10.7116 2.69385H10.83C10.9484 2.69385 10.9484 2.69385 11.0668 2.69385H39.484C39.6024 2.69385 39.6024 2.69385 39.6024 2.69385H39.7208L39.8392 2.83582C39.9576 2.83582 39.9576 2.97778 39.9576 2.97778H40.076L49.5484 17.1746C49.5484 17.1746 49.5484 17.3166 49.6668 17.3166C49.7852 17.4586 49.7852 17.6005 49.7852 17.7425C49.7852 18.0264 49.7852 18.0264 49.7852 18.1684L49.6668 18.3104C49.6668 18.3104 49.6668 18.4523 49.5484 18.4523L25.8675 49.6854C25.7491 49.8274 25.749 49.8274 25.6306 49.8274L25.5122 49.9693C25.5122 49.8274 25.3938 49.8274 25.2754 49.8274ZM25.2754 45.8523L33.5638 18.5943H16.9871L25.2754 45.8523ZM28.1171 42.445L28.7092 42.8709L47.0619 18.5943H35.3398L28.1171 42.445ZM21.8417 42.8709L22.4337 42.445L15.211 18.5943H3.48894L21.8417 42.8709ZM36.0503 16.6068H47.2987L39.8392 5.39125L36.0503 16.6068ZM17.5791 16.6068H33.0902L25.2754 4.96534L17.5791 16.6068ZM3.37053 16.6068H14.619L10.83 5.39125L3.37053 16.6068ZM34.511 15.613L38.3 4.39747H27.0515L34.511 15.613ZM16.0399 15.613L23.4994 4.39747H12.2509L16.0399 15.613Z" fill="#A55E3F"/>
</svg>
