<svg width="50" height="50" viewBox="0 0 50 50" fill="none" xmlns="http://www.w3.org/2000/svg">
<rect x="33.8809" y="8.60425" width="11.6935" height="30.2083" rx="4.87231" fill="#A55E3F" fill-opacity="0.2"/>
<rect x="9.51953" y="3.73193" width="8.77015" height="18.5148" rx="2.92338" fill="#A55E3F" fill-opacity="0.2"/>
<path d="M22.126 48.8142C21.1681 48.8142 19.9582 48.4898 17.5354 47.1555C16.1597 46.396 14.8311 45.5542 13.5569 44.6347L7.93081 46.322C7.77744 46.3679 7.61543 46.377 7.45788 46.3486C7.30033 46.3203 7.15166 46.2552 7.0239 46.1588C3.99116 43.8756 1.62513 40.822 0.171632 37.3152C0.109527 37.1655 0.0839778 37.0032 0.0970999 36.8417C0.110222 36.6801 0.161638 36.5241 0.247089 36.3864C0.332541 36.2487 0.449569 36.1333 0.588481 36.0498C0.727393 35.9664 0.884192 35.9172 1.04589 35.9064C3.99957 35.7219 6.89322 34.9899 9.57935 33.7478C10.5121 33.3129 11.4152 32.8171 12.2827 32.2635C13.4837 31.4211 14.7539 30.6819 16.0797 30.0539C16.8973 29.6974 17.7345 29.3875 18.5872 29.1255C18.6637 29.1051 18.7922 29.0704 18.9585 29.0215L19.1289 28.9684C19.2931 28.9174 19.4451 28.8695 19.8073 28.7746C20.1511 28.6859 20.6132 28.5736 21.1845 28.4563C22.4784 28.1462 23.8124 28.0374 25.1395 28.134C25.7325 28.1775 26.3192 28.2832 26.8901 28.4492C27.647 28.6757 28.3254 28.9521 28.9814 29.2184C29.686 29.5203 30.4071 29.7825 31.141 30.0039C31.7738 30.185 32.4231 30.3022 33.0793 30.3538C33.7291 30.416 34.5381 30.4935 34.889 31.3525C34.9939 31.6429 35.0312 31.9535 34.9981 32.2605C34.9651 32.5675 34.8625 32.863 34.6982 33.1245C34.2509 33.9951 33.5225 34.689 32.6312 35.0936C31.74 35.4982 30.7382 35.5898 29.7883 35.3535C29.5067 35.3106 29.2507 35.2617 29.015 35.2066C29.3657 35.4585 29.7331 35.6861 30.1147 35.888C31.5595 36.6494 33.1747 37.0297 34.8074 36.9928L37.8882 36.9918C38.1406 36.992 38.384 37.0858 38.5713 37.255C38.7586 37.4242 38.8765 37.6568 38.9022 37.9079C39.0037 38.7322 38.86 39.5682 38.4891 40.3114C37.5199 42.1904 35.092 43.1453 32.356 42.7576C30.2685 44.3842 28.1249 45.9375 25.9291 47.4146C24.8957 48.2092 23.6571 48.6926 22.3586 48.8081C22.2812 48.812 22.2036 48.8141 22.126 48.8142ZM13.7497 42.4914C13.9683 42.4916 14.1811 42.5621 14.3567 42.6924C15.6827 43.6763 17.0732 44.5702 18.5188 45.3682C21.1712 46.828 21.9006 46.7882 22.2505 46.7709C23.1803 46.6709 24.0619 46.3062 24.7906 45.7201C27.0698 44.1871 29.2918 42.5707 31.4522 40.8745C31.5672 40.784 31.7004 40.7195 31.8426 40.6854C31.9849 40.6512 32.1329 40.6482 32.2764 40.6766C34.2392 41.0581 36.0897 40.5113 36.6753 39.3769C36.7319 39.2669 36.777 39.1514 36.8099 39.0321H34.8319C32.9268 39.0745 31.0406 38.6461 29.3408 37.7848C27.641 36.9235 26.18 35.6559 25.0875 34.0946C24.651 34.0651 24.2131 34.0655 23.7766 34.0956C23.593 34.1089 23.44 34.1242 23.338 34.1365C23.0692 34.1676 22.799 34.0906 22.5869 33.9226C22.3749 33.7545 22.2383 33.5091 22.2071 33.2403C22.176 32.9715 22.253 32.7013 22.421 32.4892C22.5891 32.2772 22.8345 32.1406 23.1033 32.1094C23.2257 32.0952 23.4094 32.0768 23.6358 32.0605C24.3479 32.0121 25.0629 32.0282 25.772 32.1084L25.7914 32.1105C26.5438 32.2063 27.2783 32.4115 27.9714 32.7195C28.6507 33.0166 29.3657 33.224 30.0984 33.3367C30.4627 33.4297 30.841 33.4549 31.2145 33.4111C31.8357 33.2517 32.3843 32.8859 32.7702 32.3737C32.0284 32.3081 31.2946 32.1714 30.5789 31.9656C29.7747 31.7242 28.9845 31.4381 28.2122 31.1087C27.5726 30.8475 26.9686 30.6027 26.3045 30.4038C25.8694 30.278 25.4221 30.1986 24.9702 30.1671C23.8362 30.0898 22.697 30.1871 21.5925 30.4558C21.0641 30.5639 20.6366 30.668 20.3194 30.7496C20.0082 30.8312 19.8787 30.872 19.7379 30.9149L19.543 30.9761C19.3492 31.0332 19.1993 31.074 19.1381 31.0893C18.384 31.3245 17.643 31.5996 16.9182 31.9136C15.6992 32.4959 14.5305 33.1784 13.4243 33.9538C12.4674 34.5673 11.4705 35.116 10.4403 35.5963C7.97289 36.741 5.33951 37.4871 2.63833 37.8069C3.88905 40.296 5.66645 42.4831 7.84716 44.2164L13.4569 42.5353C13.5519 42.5068 13.6505 42.4923 13.7497 42.4924V42.4914Z" fill="#A55E3F"/>
<path d="M44.9789 38.9649H33.3391C33.0686 38.9649 32.8091 38.8574 32.6178 38.6661C32.4265 38.4748 32.319 38.2153 32.319 37.9447C32.319 37.6742 32.4265 37.4147 32.6178 37.2234C32.8091 37.0321 33.0686 36.9246 33.3391 36.9246H43.9588V5.30029H10.2942V35.0067C10.2942 35.2773 10.1867 35.5368 9.99539 35.7281C9.80408 35.9194 9.5446 36.0269 9.27405 36.0269C9.00349 36.0269 8.74401 35.9194 8.5527 35.7281C8.36139 35.5368 8.25391 35.2773 8.25391 35.0067V4.28015C8.25391 4.00959 8.36139 3.75011 8.5527 3.5588C8.74401 3.36749 9.00349 3.26001 9.27405 3.26001H44.9789C45.2495 3.26001 45.5089 3.36749 45.7003 3.5588C45.8916 3.75011 45.9991 4.00959 45.9991 4.28015V37.9447C45.9991 38.2153 45.8916 38.4748 45.7003 38.6661C45.5089 38.8574 45.2495 38.9649 44.9789 38.9649Z" fill="#A55E3F"/>
<path d="M31.2086 13.4614H23.0475C22.7769 13.4614 22.5174 13.3539 22.3261 13.1626C22.1348 12.9713 22.0273 12.7118 22.0273 12.4413V4.28015C22.0273 4.00959 22.1348 3.75011 22.3261 3.5588C22.5174 3.36749 22.7769 3.26001 23.0475 3.26001H31.2086C31.4792 3.26001 31.7386 3.36749 31.9299 3.5588C32.1213 3.75011 32.2287 4.00959 32.2287 4.28015V12.4413C32.2287 12.7118 32.1213 12.9713 31.9299 13.1626C31.7386 13.3539 31.4792 13.4614 31.2086 13.4614ZM24.0676 11.4211H30.1885V5.30029H24.0676V11.4211Z" fill="#A55E3F"/>
</svg>
