<svg width="50" height="50" viewBox="0 0 50 50" fill="none" xmlns="http://www.w3.org/2000/svg">
<ellipse cx="38.5" cy="33" rx="9.5" ry="10" fill="#A55E3F" fill-opacity="0.2"/>
<path d="M34.375 45.3125C25.7594 45.3125 18.75 38.3031 18.75 29.6875C18.75 21.0719 25.7594 14.0625 34.375 14.0625C42.9906 14.0625 50 21.0719 50 29.6875C50 38.3031 42.9906 45.3125 34.375 45.3125ZM34.375 15.625C26.6211 15.625 20.3125 21.9336 20.3125 29.6875C20.3125 37.4414 26.6211 43.75 34.375 43.75C42.1289 43.75 48.4375 37.4414 48.4375 29.6875C48.4375 21.9336 42.1289 15.625 34.375 15.625Z" fill="#A55E3F"/>
<path d="M34.375 40.625C28.3438 40.625 23.4375 35.7188 23.4375 29.6875C23.4375 23.6562 28.3438 18.75 34.375 18.75C40.4062 18.75 45.3125 23.6562 45.3125 29.6875C45.3125 35.7188 40.4062 40.625 34.375 40.625ZM34.375 20.3125C29.2055 20.3125 25 24.518 25 29.6875C25 34.857 29.2055 39.0625 34.375 39.0625C39.5445 39.0625 43.75 34.857 43.75 29.6875C43.75 24.518 39.5445 20.3125 34.375 20.3125ZM30.4688 45.3125H0V39.0625H23.4375V40.625H1.5625V43.75H30.4688V45.3125Z" fill="#A55E3F"/>
<path d="M23.4375 40.625H1.5625V34.375H21.0938V35.9375H3.125V39.0625H23.4375V40.625Z" fill="#A55E3F"/>
<path d="M21.0938 35.9375H3.125V29.6875H20.3125V31.25H4.6875V34.375H21.0938V35.9375Z" fill="#A55E3F"/>
<path d="M20.3125 31.25H0V25H20.3125V26.5625H1.5625V29.6875H20.3125V31.25Z" fill="#A55E3F"/>
<path d="M20.3125 26.5625H1.5625V20.3125H22.6562V21.875H3.125V25H20.3125V26.5625Z" fill="#A55E3F"/>
<path d="M22.6562 21.875H0V15.625H27.3438V17.1875H1.5625V20.3125H22.6562V21.875Z" fill="#A55E3F"/>
<path d="M27.3438 17.1875H1.5625V10.9375H32.0312V15.625H30.4688V12.5H3.125V15.625H27.3438V17.1875Z" fill="#A55E3F"/>
<path d="M30.4688 12.5H0V6.25H30.4688V12.5ZM1.5625 10.9375H28.9062V7.8125H1.5625V10.9375Z" fill="#A55E3F"/>
</svg>
