<svg width="24" height="24" viewBox="0 0 24 24" fill="none" xmlns="http://www.w3.org/2000/svg">
<path opacity="0.5" d="M19.9998 4L11.9998 12M19.9998 4V8.5M19.9998 4H15.4998M18.9998 12.5V16.8C18.9998 17.9201 18.9998 18.4802 18.7818 18.908C18.59 19.2843 18.2841 19.5903 17.9077 19.782C17.4799 20 16.9199 20 15.7998 20H7.19976C6.07965 20 5.5196 20 5.09177 19.782C4.71545 19.5903 4.40949 19.2843 4.21774 18.908C3.99976 18.4802 3.99976 17.9201 3.99976 16.8V8.2C3.99976 7.0799 3.99976 6.51984 4.21774 6.09202C4.40949 5.71569 4.71545 5.40973 5.09177 5.21799C5.5196 5 6.07965 5 7.19976 5H11.4998" stroke="white" stroke-width="2" stroke-linecap="round" stroke-linejoin="round"/>
</svg>
