<svg width="16" height="16" viewBox="0 0 16 16" fill="none" xmlns="http://www.w3.org/2000/svg">
<g clip-path="url(#clip0_89_240)">
<path d="M7.78804 5.00711L2.66666 9.22516V13.7777C2.66666 13.8955 2.71348 14.0086 2.79683 14.0919C2.88018 14.1753 2.99323 14.2221 3.1111 14.2221L6.22388 14.2141C6.34137 14.2135 6.45384 14.1664 6.53671 14.0831C6.61958 13.9998 6.6661 13.8871 6.6661 13.7696V11.111C6.6661 10.9931 6.71292 10.8801 6.79627 10.7967C6.87962 10.7134 6.99267 10.6666 7.11054 10.6666H8.88832C9.0062 10.6666 9.11924 10.7134 9.20259 10.7967C9.28594 10.8801 9.33277 10.9931 9.33277 11.111V13.7677C9.33258 13.8261 9.34394 13.8841 9.3662 13.9382C9.38845 13.9923 9.42116 14.0414 9.46245 14.0828C9.50374 14.1242 9.55279 14.1571 9.60681 14.1795C9.66082 14.202 9.71873 14.2135 9.77721 14.2135L12.8889 14.2221C13.0068 14.2221 13.1198 14.1753 13.2031 14.0919C13.2865 14.0086 13.3333 13.8955 13.3333 13.7777V9.22211L8.21304 5.00711C8.15285 4.95859 8.07786 4.93213 8.00054 4.93213C7.92323 4.93213 7.84824 4.95859 7.78804 5.00711ZM15.8778 7.87405L13.5555 5.95989V2.11239C13.5555 2.02398 13.5204 1.9392 13.4579 1.87668C13.3954 1.81417 13.3106 1.77905 13.2222 1.77905H11.6667C11.5782 1.77905 11.4935 1.81417 11.431 1.87668C11.3684 1.9392 11.3333 2.02398 11.3333 2.11239V4.12933L8.84638 2.08322C8.60771 1.88682 8.30824 1.77945 7.99915 1.77945C7.69007 1.77945 7.39059 1.88682 7.15193 2.08322L0.120545 7.87405C0.0867911 7.90195 0.0588655 7.93622 0.0383633 7.97492C0.0178611 8.01361 0.00518408 8.05597 0.00105669 8.09957C-0.0030707 8.14316 0.00143238 8.18714 0.0143086 8.229C0.0271849 8.27085 0.048182 8.30976 0.0761002 8.3435L0.784433 9.20461C0.812276 9.23846 0.846521 9.26649 0.885211 9.2871C0.9239 9.3077 0.966273 9.32047 1.0099 9.32467C1.05353 9.32888 1.09757 9.32444 1.13948 9.3116C1.18139 9.29877 1.22036 9.2778 1.25416 9.24989L7.78804 3.86822C7.84824 3.8197 7.92323 3.79324 8.00054 3.79324C8.07786 3.79324 8.15285 3.8197 8.21304 3.86822L14.7472 9.24989C14.7809 9.2778 14.8199 9.2988 14.8617 9.31168C14.9036 9.32455 14.9475 9.32906 14.9911 9.32493C15.0347 9.3208 15.0771 9.30812 15.1158 9.28762C15.1545 9.26712 15.1888 9.23919 15.2167 9.20544L15.925 8.34433C15.9529 8.3104 15.9738 8.27129 15.9865 8.22925C15.9992 8.18721 16.0035 8.14308 15.9991 8.09937C15.9947 8.05567 15.9818 8.01327 15.9609 7.9746C15.9401 7.93593 15.9118 7.90176 15.8778 7.87405Z" fill="#FF3F40"/>
</g>
<defs>
<clipPath id="clip0_89_240">
<rect width="16" height="16" fill="white"/>
</clipPath>
</defs>
</svg>
