<svg width="17" height="17" viewBox="0 0 17 17" fill="none" xmlns="http://www.w3.org/2000/svg">
<path d="M2.125 5.80829C2.125 5.01488 2.125 4.61818 2.27941 4.31514C2.41523 4.04858 2.63195 3.83185 2.89851 3.69603C3.20156 3.54163 3.59826 3.54163 4.39167 3.54163H12.6083C13.4017 3.54163 13.7984 3.54163 14.1015 3.69603C14.368 3.83185 14.5848 4.04858 14.7206 4.31514C14.875 4.61818 14.875 5.01489 14.875 5.80829V11.1916C14.875 11.985 14.875 12.3817 14.7206 12.6848C14.5848 12.9513 14.368 13.1681 14.1015 13.3039C13.7984 13.4583 13.4017 13.4583 12.6083 13.4583H4.39167C3.59826 13.4583 3.20156 13.4583 2.89851 13.3039C2.63195 13.1681 2.41523 12.9513 2.27941 12.6848C2.125 12.3817 2.125 11.985 2.125 11.1916V5.80829Z" fill="#FF3F40"/>
<path d="M14.855 5.66675C14.855 5.66675 12.0066 9.20842 8.50036 9.20842C4.99411 9.20842 2.14575 5.66675 2.14575 5.66675M4.39167 13.4584H12.6083C13.4017 13.4584 13.7984 13.4584 14.1015 13.304C14.3681 13.1682 14.5848 12.9515 14.7206 12.6849C14.875 12.3819 14.875 11.9852 14.875 11.1917V5.80841C14.875 5.01501 14.875 4.6183 14.7206 4.31526C14.5848 4.0487 14.3681 3.83198 14.1015 3.69616C13.7984 3.54175 13.4017 3.54175 12.6083 3.54175H4.39167C3.59826 3.54175 3.20156 3.54175 2.89851 3.69616C2.63195 3.83198 2.41523 4.0487 2.27941 4.31526C2.125 4.6183 2.125 5.01501 2.125 5.80841V11.1917C2.125 11.9852 2.125 12.3819 2.27941 12.6849C2.41523 12.9515 2.63195 13.1682 2.89851 13.304C3.20156 13.4584 3.59826 13.4584 4.39167 13.4584Z" stroke="white" stroke-linecap="round" stroke-linejoin="round"/>
</svg>
