<svg width="40" height="40" viewBox="0 0 40 40" fill="none" xmlns="http://www.w3.org/2000/svg">
<g clip-path="url(#clip0_155_643)">
<path fill-rule="evenodd" clip-rule="evenodd" d="M19.0338 1.8642C19.3294 1.69996 19.662 1.61377 20.0001 1.61377C20.3383 1.61377 20.6709 1.69996 20.9665 1.8642L37.5481 11.077C37.8582 11.2492 38.1166 11.5012 38.2965 11.8069C38.4764 12.1125 38.5714 12.4607 38.5716 12.8154V36.5762C38.5716 37.1039 38.3619 37.61 37.9888 37.9832C37.6156 38.3563 37.1095 38.566 36.5818 38.566H3.41851C2.89078 38.566 2.38467 38.3563 2.01151 37.9832C1.63835 37.61 1.42871 37.1039 1.42871 36.5762V12.816C1.42864 12.4611 1.5235 12.1127 1.70345 11.8068C1.8834 11.5009 2.14189 11.2487 2.45213 11.0763L19.0338 1.8642ZM20.3225 3.02425C20.2239 2.96942 20.1129 2.94065 20.0001 2.94065C19.8873 2.94065 19.7764 2.96942 19.6778 3.02425L3.09616 12.2363C2.99282 12.2938 2.90672 12.3779 2.84678 12.4798C2.78684 12.5817 2.75524 12.6978 2.75524 12.816V36.5762C2.75524 36.7521 2.82512 36.9208 2.94951 37.0452C3.07389 37.1696 3.2426 37.2395 3.41851 37.2395H6.73483V17.3415C6.73483 17.1656 6.80471 16.9969 6.9291 16.8725C7.05349 16.7481 7.22219 16.6782 7.3981 16.6782H32.6022C32.7781 16.6782 32.9468 16.7481 33.0712 16.8725C33.1956 16.9969 33.2654 17.1656 33.2654 17.3415V37.2395H36.5818C36.7577 37.2395 36.9264 37.1696 37.0508 37.0452C37.1752 36.9208 37.245 36.7521 37.245 36.5762V12.816C37.245 12.6978 37.2134 12.5817 37.1535 12.4798C37.0936 12.3779 37.0075 12.2938 36.9041 12.2363L20.3225 3.02425ZM31.9389 33.2599V31.2701H8.06136V33.2599H31.9389ZM8.06136 34.5864H31.9389V37.2395H8.06136V34.5864ZM8.06136 29.9435H31.9389V27.9537H8.06136V29.9435ZM31.9389 26.6272V24.6374H8.06136V26.6272H31.9389ZM8.06136 23.3109H31.9389V21.3211H8.06136V23.3109ZM31.9389 19.9946V18.0048H8.06136V19.9946H31.9389Z" fill="white"/>
</g>
<defs>
<clipPath id="clip0_155_643">
<rect width="40" height="40" fill="white"/>
</clipPath>
</defs>
</svg>
