<svg width="56" height="56" viewBox="0 0 56 56" fill="none" xmlns="http://www.w3.org/2000/svg">
<g clip-path="url(#clip0_155_651)">
<path d="M55.6216 15.953L35.8908 4.56146C35.7757 4.49498 35.6453 4.45997 35.5124 4.45996H24.3383C23.9203 4.45996 23.5816 4.7987 23.5816 5.21673C23.5816 5.63476 23.9203 5.97349 24.3383 5.97349H32.6881L15.5786 15.8515H0.756984C0.338953 15.8515 0.00021875 16.1902 0.00021875 16.6082C0.00021875 17.0263 0.338953 17.365 0.756984 17.365H15.0245V27.2432H5.98806C5.57003 27.2432 5.2313 27.5819 5.2313 28C5.2313 28.418 5.57003 28.7567 5.98806 28.7567H15.0245V38.6349H0.756766C0.338734 38.6349 0 38.9737 0 39.3917C0 39.8097 0.338734 40.1485 0.756766 40.1485H15.5786L35.1341 51.4385C35.2491 51.505 35.3796 51.5401 35.5124 51.5401C35.6453 51.5401 35.7758 51.505 35.8908 51.4385L55.6216 40.047C55.7366 39.9806 55.8321 39.8851 55.8986 39.7701C55.965 39.655 55.9999 39.5245 55.9999 39.3917V16.6082C55.9999 16.4754 55.965 16.3449 55.8986 16.2299C55.8321 16.1149 55.7366 16.0194 55.6216 15.953ZM35.5122 6.09052L53.7298 16.6085L47.9595 19.9399L29.7421 9.42176L35.5122 6.09052ZM28.2288 10.2954L46.446 20.8136L42.7957 22.9212L24.578 12.4032L28.2288 10.2954ZM47.2032 22.1244V29.1167L43.5527 31.2244V24.2319L47.2032 22.1244ZM34.7557 49.4726L16.538 38.955V17.919L34.7557 28.4368V49.4726ZM35.5123 27.1262L17.2945 16.6082L23.0647 13.2769L41.2822 23.7949L35.5123 27.1262ZM54.4865 38.9548L36.2691 49.4726V28.4368L42.039 25.1055V32.5349C42.0391 32.6677 42.0741 32.7981 42.1405 32.9131C42.207 33.0281 42.3025 33.1236 42.4175 33.19C42.5325 33.2564 42.6629 33.2913 42.7957 33.2914C42.9285 33.2914 43.059 33.2565 43.174 33.1901L48.3381 30.2089C48.4531 30.1425 48.5486 30.047 48.6151 29.932C48.6815 29.817 48.7164 29.6865 48.7164 29.5536V21.2502L54.4861 17.919V38.9548H54.4865ZM5.2313 5.21673C5.23128 5.11734 5.25085 5.01893 5.28887 4.92711C5.3269 4.83529 5.38264 4.75186 5.45292 4.68158C5.52319 4.61131 5.60662 4.55556 5.69844 4.51754C5.79027 4.47951 5.88868 4.45995 5.98806 4.45996H17.7358C18.1538 4.45996 18.4926 4.7987 18.4926 5.21673C18.4926 5.63476 18.1538 5.97349 17.7358 5.97349H5.98806C5.88867 5.97352 5.79026 5.95397 5.69843 5.91595C5.6066 5.87792 5.52316 5.82218 5.45288 5.7519C5.38261 5.68163 5.32686 5.59819 5.28884 5.50636C5.25082 5.41453 5.23127 5.31611 5.2313 5.21673Z" fill="white"/>
</g>
<defs>
<clipPath id="clip0_155_651">
<rect width="56" height="56" fill="white"/>
</clipPath>
</defs>
</svg>
