<svg width="40" height="40" viewBox="0 0 40 40" fill="none" xmlns="http://www.w3.org/2000/svg">
<g clip-path="url(#clip0_155_638)">
<path d="M15.5097 24.9873C15.4155 24.9874 15.3224 25.0079 15.2368 25.0475C15.1513 25.087 15.0754 25.1447 15.0143 25.2165C14.9533 25.2883 14.9085 25.3724 14.8832 25.4632C14.8578 25.554 14.8525 25.6492 14.8675 25.7422L15.8522 31.8142C15.877 31.9667 15.9552 32.1054 16.0728 32.2055C16.1905 32.3056 16.3399 32.3605 16.4944 32.3605H26.8702C26.9644 32.3605 27.0576 32.3399 27.1431 32.3004C27.2287 32.2608 27.3046 32.2031 27.3657 32.1313C27.4267 32.0596 27.4715 31.9754 27.4968 31.8847C27.5221 31.7939 27.5274 31.6988 27.5122 31.6058L26.5275 25.5338C26.5028 25.3813 26.4247 25.2425 26.307 25.1424C26.1894 25.0423 26.0399 24.9873 25.8854 24.9873H15.5097ZM17.0479 31.0595L16.2741 26.2884H25.3317L26.1055 31.0595H17.0479ZM23.0721 7.63867H12.6963C12.6021 7.63873 12.509 7.65924 12.4235 7.69879C12.338 7.73835 12.2621 7.796 12.201 7.86777C12.14 7.93953 12.0952 8.0237 12.0699 8.11445C12.0445 8.2052 12.0392 8.30038 12.0542 8.39339L13.039 14.4654C13.0637 14.6179 13.1418 14.7566 13.2595 14.8567C13.3772 14.9568 13.5266 15.0118 13.6811 15.0117H24.0569C24.1511 15.0117 24.2443 14.9913 24.3298 14.9517C24.4154 14.9122 24.4913 14.8545 24.5524 14.7827C24.6135 14.7109 24.6582 14.6267 24.6835 14.5359C24.7088 14.4451 24.7141 14.3499 24.699 14.2569L23.7141 8.18491C23.6894 8.03244 23.6113 7.89373 23.4936 7.79364C23.376 7.69354 23.2265 7.63861 23.0721 7.63867ZM14.2346 13.7108L13.4609 8.93979H22.5185L23.2923 13.7108H14.2346ZM14.103 16.313C14.0088 16.3131 13.9157 16.3336 13.8301 16.3731C13.7445 16.4127 13.6686 16.4703 13.6074 16.542C13.5464 16.6138 13.5016 16.698 13.4763 16.7887C13.4511 16.8795 13.4458 16.9747 13.461 17.0677L14.4457 23.1397C14.4704 23.2922 14.5485 23.431 14.6662 23.5311C14.7838 23.6312 14.9333 23.6862 15.0878 23.6862H25.4635C25.6541 23.6862 25.8353 23.6023 25.959 23.457C26.0828 23.3117 26.1361 23.1199 26.1056 22.9314L25.1209 16.8592C25.0962 16.7067 25.018 16.568 24.9004 16.4679C24.7827 16.3678 24.6332 16.3128 24.4787 16.3129L14.103 16.313ZM15.6413 22.3851L14.8674 17.6143H23.9252L24.699 22.3851H15.6413Z" fill="#006DD2"/>
<path d="M35.831 2.00037C34.7548 2.00037 33.8792 2.87581 33.8792 3.95213V8.50621H26.4023L25.6131 3.64021C25.4416 2.57765 24.4352 1.85237 23.3743 2.02557C22.8596 2.10901 22.4086 2.38773 22.1035 2.81061C21.7986 3.23389 21.6771 3.75005 21.7606 4.26437L21.8855 5.03653H12.8283L12.6017 3.64029C12.4301 2.57773 11.4229 1.85245 10.3628 2.02565C9.84817 2.10909 9.39705 2.38781 9.09209 2.81069C8.78713 3.23397 8.66553 3.75013 8.74905 4.26461L12.4964 27.3729H6.12121V3.95213C6.12121 2.87581 5.24577 2.00037 4.16953 2.00037C3.09321 2.00037 2.21777 2.87581 2.21777 3.95213V36.0472C2.21777 37.1233 3.09321 37.9989 4.16953 37.9989C5.24569 37.9989 6.12121 37.1233 6.12121 36.0472V31.2762H13.1293L13.9536 36.3593C14.1239 37.4118 15.109 38.1513 16.192 37.9735C16.7067 37.8904 17.1581 37.6113 17.4631 37.1886C17.7681 36.7655 17.8896 36.2492 17.8062 35.7345L17.6813 34.9628H26.7385L26.9651 36.3593C27.1188 37.3093 27.9283 37.9989 28.8896 37.9989C28.9935 37.9989 29.098 37.9908 29.2036 37.9735C29.7183 37.8904 30.1697 37.6113 30.4747 37.1886C30.7796 36.7655 30.9012 36.2492 30.8178 35.7345L27.0352 12.4096H33.8791V36.0472C33.8791 37.1233 34.7547 37.9989 35.8309 37.9989C36.9071 37.9989 37.7826 37.1233 37.7826 36.0472V3.95213C37.7826 2.87581 36.9071 2.00037 35.831 2.00037ZM5.47073 29.9752C5.29821 29.9752 5.13276 30.0438 5.01076 30.1658C4.88877 30.2878 4.82022 30.4532 4.82017 30.6257V36.0472C4.82017 36.4059 4.52833 36.6977 4.16961 36.6977C3.81081 36.6977 3.51897 36.4059 3.51897 36.0472V3.95213C3.51897 3.59333 3.81081 3.30157 4.16961 3.30157C4.52833 3.30157 4.82017 3.59333 4.82017 3.95213V28.0234C4.82024 28.1959 4.8888 28.3614 5.01079 28.4834C5.13278 28.6053 5.29821 28.6739 5.47073 28.674H12.7074L12.9184 29.9752H5.47073ZM29.4192 36.4275C29.3695 36.4969 29.3065 36.5558 29.2338 36.6008C29.1612 36.6457 29.0804 36.6758 28.996 36.6893C28.6323 36.7448 28.3061 36.5029 28.2493 36.1515L27.9342 34.2082C27.9095 34.0557 27.8313 33.9169 27.7137 33.8168C27.596 33.7167 27.4466 33.6617 27.2921 33.6617H16.9168C16.8226 33.6618 16.7295 33.6823 16.644 33.7218C16.5584 33.7614 16.4825 33.819 16.4214 33.8908C16.3604 33.9626 16.3156 34.0467 16.2903 34.1375C16.2649 34.2282 16.2596 34.3234 16.2747 34.4164L16.5222 35.943C16.5361 36.0273 16.5332 36.1136 16.5135 36.1967C16.4939 36.2799 16.4579 36.3583 16.4077 36.4275C16.358 36.4969 16.295 36.5558 16.2224 36.6007C16.1498 36.6457 16.069 36.6758 15.9847 36.6893C15.6217 36.7448 15.2947 36.5029 15.2379 36.1515L10.0332 4.05589C10.0192 3.97161 10.0221 3.88539 10.0418 3.80224C10.0614 3.71909 10.0974 3.64068 10.1476 3.57157C10.1974 3.5022 10.2604 3.44338 10.333 3.3985C10.4056 3.35361 10.4864 3.32355 10.5707 3.31005C10.9231 3.25133 11.2598 3.49365 11.3175 3.84813L11.6326 5.79117C11.6572 5.94366 11.7354 6.08239 11.8531 6.1825C11.9707 6.28261 12.1202 6.33755 12.2747 6.33749H22.6499C22.7442 6.33747 22.8373 6.31699 22.9228 6.27745C23.0084 6.23791 23.0843 6.18025 23.1453 6.10848C23.2064 6.0367 23.2512 5.95252 23.2765 5.86175C23.3018 5.77098 23.3071 5.67579 23.292 5.58277L23.0447 4.05589C23.0307 3.97161 23.0337 3.8854 23.0533 3.80227C23.073 3.71913 23.1089 3.64072 23.1591 3.57157C23.2088 3.5022 23.2718 3.44338 23.3445 3.3985C23.4171 3.35361 23.4979 3.32355 23.5822 3.31005C23.9341 3.25133 24.2714 3.49365 24.3289 3.84813L29.5335 35.943C29.5474 36.0273 29.5445 36.1135 29.5249 36.1967C29.5053 36.2799 29.4694 36.3583 29.4192 36.4275ZM36.4815 36.0472C36.4815 36.4059 36.1897 36.6977 35.831 36.6977C35.4722 36.6977 35.1804 36.4059 35.1804 36.0472V11.759C35.1803 11.5865 35.1118 11.421 34.9897 11.2991C34.8677 11.1771 34.7023 11.1085 34.5298 11.1084H26.8243L26.6134 9.80725H34.5298C34.7023 9.80718 34.8677 9.73863 34.9897 9.61664C35.1118 9.49465 35.1803 9.32921 35.1804 9.15669V3.95213C35.1804 3.59333 35.4722 3.30157 35.831 3.30157C36.1897 3.30157 36.4815 3.59333 36.4815 3.95213V36.0472Z" fill="#006DD2"/>
</g>
<defs>
<clipPath id="clip0_155_638">
<rect width="40" height="40" fill="white"/>
</clipPath>
</defs>
</svg>
