<svg width="56" height="56" viewBox="0 0 56 56" fill="none" xmlns="http://www.w3.org/2000/svg">
<g clip-path="url(#clip0_155_655)">
<path d="M47.972 20.5188H31.7819V12.9929C31.7788 12.3749 31.5536 11.7787 31.1475 11.3129L24.9044 4.33388C24.6686 4.07152 24.3803 3.86169 24.0581 3.71803C23.736 3.57437 23.3872 3.50008 23.0345 3.5H7.19438C6.52865 3.50162 5.89076 3.76734 5.42076 4.23882C4.95075 4.7103 4.68704 5.34902 4.6875 6.01475V44.1131C4.68704 44.7789 4.95075 45.4176 5.42076 45.8891C5.89076 46.3605 6.52865 46.6263 7.19438 46.6279H28.372V49.161C28.3729 50.0461 28.7249 50.8947 29.3507 51.5207C29.9765 52.1467 30.825 52.4988 31.7101 52.5L48.0359 52.4492C48.909 52.4281 49.7394 52.0676 50.3511 51.4442C50.9627 50.8208 51.3074 49.9836 51.3119 49.1102V23.8577C51.3107 22.9722 50.9583 22.1234 50.332 21.4974C49.7057 20.8714 48.8575 20.5194 47.972 20.5188ZM23.9121 5.84938L29.5016 12.0969L24.6629 12.0374C24.4629 12.0342 24.2723 11.9526 24.1319 11.8102C23.9915 11.6679 23.9126 11.4761 23.9121 11.2761V5.84938ZM30.0319 20.9878C29.5285 21.2794 29.1104 21.6978 28.8192 22.2014C28.5279 22.7049 28.3738 23.276 28.372 23.8577V44.8787H7.19438C6.99263 44.8776 6.7996 44.7964 6.65768 44.653C6.51576 44.5096 6.43657 44.3157 6.4375 44.114V6.01475C6.43657 5.813 6.51576 5.61914 6.65768 5.47575C6.7996 5.33235 6.99263 5.25116 7.19438 5.25H22.1621V11.277C22.1646 11.9366 22.4255 12.569 22.889 13.0383C23.3525 13.5077 23.9815 13.7766 24.641 13.7874L30.0319 13.8539V20.9878ZM49.5619 49.1102C49.5597 49.5259 49.3957 49.9243 49.1046 50.221C48.8134 50.5177 48.4182 50.6892 48.0026 50.6992L31.711 50.75C31.2897 50.7495 30.8858 50.582 30.5879 50.2841C30.29 49.9862 30.1225 49.5823 30.122 49.161V23.8577C30.1225 23.4365 30.29 23.0326 30.5879 22.7347C30.8858 22.4368 31.2897 22.2692 31.711 22.2688H47.972C48.3935 22.2692 48.7975 22.4367 49.0957 22.7346C49.3939 23.0324 49.5618 23.4363 49.5628 23.8577L49.5619 49.1102Z" fill="#006DD2"/>
<path d="M46.998 23.8262H32.6848C32.2208 23.8267 31.776 24.0112 31.4479 24.3393C31.1198 24.6674 30.9353 25.1122 30.9348 25.5762V28.203C30.9353 28.667 31.1198 29.1118 31.4479 29.4399C31.776 29.768 32.2208 29.9525 32.6848 29.953H46.998C47.462 29.9525 47.9069 29.768 48.235 29.4399C48.5631 29.1118 48.7476 28.667 48.748 28.203V25.5762C48.7476 25.1122 48.5631 24.6674 48.235 24.3393C47.9069 24.0112 47.462 23.8267 46.998 23.8262ZM32.6848 28.203V25.5762H46.998V28.203H32.6848ZM41.6063 33.5527H39.235C39.003 33.5527 38.7804 33.6449 38.6163 33.809C38.4522 33.9731 38.36 34.1957 38.36 34.4277C38.36 34.6598 38.4522 34.8824 38.6163 35.0464C38.7804 35.2105 39.003 35.3027 39.235 35.3027H41.608C41.8401 35.3027 42.0627 35.2105 42.2268 35.0464C42.3909 34.8824 42.483 34.6598 42.483 34.4277C42.483 34.1957 42.3909 33.9731 42.2268 33.809C42.0627 33.6449 41.8401 33.5527 41.608 33.5527H41.6063ZM41.6063 38.9812H39.235C39.003 38.9812 38.7804 39.0734 38.6163 39.2375C38.4522 39.4016 38.36 39.6242 38.36 39.8562C38.36 40.0883 38.4522 40.3109 38.6163 40.4749C38.7804 40.639 39.003 40.7312 39.235 40.7312H41.608C41.8401 40.7312 42.0627 40.639 42.2268 40.4749C42.3909 40.3109 42.483 40.0883 42.483 39.8562C42.483 39.6242 42.3909 39.4016 42.2268 39.2375C42.0627 39.0734 41.8401 38.9812 41.608 38.9812H41.6063ZM41.6063 44.408H39.235C39.003 44.408 38.7804 44.5002 38.6163 44.6643C38.4522 44.8284 38.36 45.0509 38.36 45.283C38.36 45.515 38.4522 45.7376 38.6163 45.9017C38.7804 46.0658 39.003 46.158 39.235 46.158H41.608C41.8401 46.158 42.0627 46.0658 42.2268 45.9017C42.3909 45.7376 42.483 45.515 42.483 45.283C42.483 45.0509 42.3909 44.8284 42.2268 44.6643C42.0627 44.5002 41.8401 44.408 41.608 44.408H41.6063ZM47.7348 33.5072H45.3627C45.1306 33.5072 44.9081 33.5994 44.744 33.7635C44.5799 33.9276 44.4877 34.1502 44.4877 34.3822C44.4877 34.6143 44.5799 34.8369 44.744 35.0009C44.9081 35.165 45.1306 35.2572 45.3627 35.2572H47.7339C47.966 35.2572 48.1885 35.165 48.3526 35.0009C48.5167 34.8369 48.6089 34.6143 48.6089 34.3822C48.6089 34.1502 48.5167 33.9276 48.3526 33.7635C48.1885 33.5994 47.9669 33.5072 47.7348 33.5072ZM34.9668 33.5527H32.5938C32.3617 33.5527 32.1392 33.6449 31.9751 33.809C31.811 33.9731 31.7188 34.1957 31.7188 34.4277C31.7188 34.6598 31.811 34.8824 31.9751 35.0464C32.1392 35.2105 32.3617 35.3027 32.5938 35.3027H34.965C35.1971 35.3027 35.4197 35.2105 35.5838 35.0464C35.7479 34.8824 35.84 34.6598 35.84 34.4277C35.84 34.1957 35.7479 33.9731 35.5838 33.809C35.4197 33.6449 35.1971 33.5527 34.965 33.5527H34.9668ZM34.9668 38.9812H32.5938C32.3617 38.9812 32.1392 39.0734 31.9751 39.2375C31.811 39.4016 31.7188 39.6242 31.7188 39.8562C31.7188 40.0883 31.811 40.3109 31.9751 40.4749C32.1392 40.639 32.3617 40.7312 32.5938 40.7312H34.965C35.1971 40.7312 35.4197 40.639 35.5838 40.4749C35.7479 40.3109 35.84 40.0883 35.84 39.8562C35.84 39.6242 35.7479 39.4016 35.5838 39.2375C35.4197 39.0734 35.1971 38.9812 34.965 38.9812H34.9668ZM34.9668 44.408H32.5938C32.3617 44.408 32.1392 44.5002 31.9751 44.6643C31.811 44.8284 31.7188 45.0509 31.7188 45.283C31.7188 45.515 31.811 45.7376 31.9751 45.9017C32.1392 46.0658 32.3617 46.158 32.5938 46.158H34.965C35.1971 46.158 35.4197 46.0658 35.5838 45.9017C35.7479 45.7376 35.84 45.515 35.84 45.283C35.84 45.0509 35.7479 44.8284 35.5838 44.6643C35.4197 44.5002 35.1971 44.408 34.965 44.408H34.9668ZM46.5483 38.8124C46.3162 38.8124 46.0937 38.9045 45.9296 39.0686C45.7655 39.2327 45.6733 39.4553 45.6733 39.6874V45.4886C45.6733 45.7207 45.7655 45.9432 45.9296 46.1073C46.0937 46.2714 46.3162 46.3636 46.5483 46.3636C46.7804 46.3636 47.0029 46.2714 47.167 46.1073C47.3311 45.9432 47.4233 45.7207 47.4233 45.4886V39.6874C47.4233 39.4553 47.3311 39.2327 47.167 39.0686C47.0029 38.9045 46.7804 38.8124 46.5483 38.8124ZM13.5442 17.1885H22.9224C23.1545 17.1885 23.377 17.0963 23.5411 16.9322C23.7052 16.7681 23.7974 16.5455 23.7974 16.3135C23.7974 16.0814 23.7052 15.8589 23.5411 15.6948C23.377 15.5307 23.1545 15.4385 22.9224 15.4385H13.545C13.313 15.4385 13.0904 15.5307 12.9263 15.6948C12.7622 15.8589 12.67 16.0814 12.67 16.3135C12.67 16.5455 12.7622 16.7681 12.9263 16.9322C13.0904 17.0963 13.3121 17.1885 13.5442 17.1885ZM10.1387 21.945C10.1387 22.177 10.2309 22.3996 10.395 22.5637C10.559 22.7278 10.7816 22.82 11.0137 22.82H25.4529C25.685 22.82 25.9075 22.7278 26.0716 22.5637C26.2357 22.3996 26.3279 22.177 26.3279 21.945C26.3279 21.7129 26.2357 21.4904 26.0716 21.3263C25.9075 21.1622 25.685 21.07 25.4529 21.07H11.0137C10.7816 21.07 10.559 21.1622 10.395 21.3263C10.2309 21.4904 10.1387 21.7129 10.1387 21.945ZM11.0137 28.4506H25.4529C25.685 28.4506 25.9075 28.3584 26.0716 28.1943C26.2357 28.0302 26.3279 27.8077 26.3279 27.5756C26.3279 27.3435 26.2357 27.121 26.0716 26.9569C25.9075 26.7928 25.685 26.7006 25.4529 26.7006H11.0137C10.7816 26.7006 10.559 26.7928 10.395 26.9569C10.2309 27.121 10.1387 27.3435 10.1387 27.5756C10.1387 27.8077 10.2309 28.0302 10.395 28.1943C10.559 28.3584 10.7816 28.4506 11.0137 28.4506ZM25.4538 31.8307H11.0163C10.7842 31.8307 10.5617 31.9229 10.3976 32.087C10.2335 32.2511 10.1413 32.4737 10.1413 32.7057C10.1413 32.9378 10.2335 33.1604 10.3976 33.3244C10.5617 33.4885 10.7842 33.5807 11.0163 33.5807H25.4538C25.6859 33.5807 25.9084 33.4885 26.0725 33.3244C26.2366 33.1604 26.3288 32.9378 26.3288 32.7057C26.3288 32.4737 26.2366 32.2511 26.0725 32.087C25.9084 31.9229 25.6859 31.8307 25.4538 31.8307ZM25.4529 38.0625H11.0137C10.7816 38.0625 10.559 38.1547 10.395 38.3188C10.2309 38.4829 10.1387 38.7054 10.1387 38.9375C10.1387 39.1695 10.2309 39.3921 10.395 39.5562C10.559 39.7203 10.7816 39.8125 11.0137 39.8125H25.4529C25.685 39.8125 25.9075 39.7203 26.0716 39.5562C26.2357 39.3921 26.3279 39.1695 26.3279 38.9375C26.3279 38.7054 26.2357 38.4829 26.0716 38.3188C25.9075 38.1547 25.685 38.0625 25.4529 38.0625Z" fill="#006DD2"/>
</g>
<defs>
<clipPath id="clip0_155_655">
<rect width="56" height="56" fill="white"/>
</clipPath>
</defs>
</svg>
