<svg width="56" height="56" viewBox="0 0 56 56" fill="none" xmlns="http://www.w3.org/2000/svg">
<g clip-path="url(#clip0_155_647)">
<path d="M45.446 28.2494V14.3942C45.446 14.2178 45.3927 14.0456 45.2931 13.9001C45.1936 13.7546 45.0524 13.6426 44.888 13.5787L23.0673 5.09422C22.8633 5.01482 22.637 5.01482 22.433 5.09422L0.612609 13.5787C0.448276 13.6426 0.307079 13.7546 0.207522 13.9001C0.107965 14.0456 0.0546932 14.2178 0.0546875 14.3942V39.5904C0.0546932 39.7668 0.107965 39.939 0.207522 40.0845C0.307079 40.23 0.448276 40.3421 0.612609 40.4059L22.4331 48.8904C22.6371 48.9698 22.8634 48.9698 23.0673 48.8904L34.319 44.5155C36.158 48.328 40.0623 50.9648 44.5709 50.9648C50.8428 50.9648 55.9452 45.8623 55.9452 39.5904C55.9453 33.6129 51.3105 28.6976 45.446 28.2494ZM22.7502 21.9398L17.9411 20.07C24.4101 17.555 30.8786 15.0397 37.3473 12.5243L42.1565 14.3942L22.7502 21.9398ZM10.5675 17.2028L29.9731 9.65691L34.933 11.5854C28.4642 14.1008 21.9955 16.6162 15.5268 19.1311L10.5675 17.2028ZM9.02814 18.4818L14.6518 20.6685V24.8616L12.2473 22.8135C12.1349 22.7178 12.0001 22.6521 11.8554 22.6225C11.7108 22.5928 11.561 22.6003 11.4201 22.6441L9.02825 23.388L9.02814 18.4818ZM22.7502 6.84849L27.5587 8.71815L8.15314 16.264L3.34414 14.3942L22.7502 6.84849ZM1.80469 15.6732L7.27814 17.8014V24.183C7.27814 24.5523 7.45544 24.9032 7.75228 25.1217C7.89955 25.2295 8.07001 25.3013 8.25002 25.3315C8.43003 25.3616 8.6146 25.3491 8.78894 25.2951L11.4796 24.4584L14.4815 27.0152C14.6509 27.1592 14.858 27.2519 15.0783 27.2823C15.2986 27.3127 15.5231 27.2795 15.7252 27.1867C15.927 27.093 16.0978 26.9437 16.2177 26.7563C16.3376 26.5689 16.4015 26.3511 16.4019 26.1287V21.349L21.8753 23.4772V46.7959L1.80469 38.9919V15.6732ZM23.6252 46.796V23.4772L43.696 15.6732V28.2494C37.8314 28.6976 33.1966 33.613 33.1966 39.5904C33.1966 40.7357 33.3675 41.8416 33.6837 42.8849L23.6252 46.796ZM44.571 49.2148C39.264 49.2148 34.9466 44.8973 34.9466 39.5904C34.9466 34.2835 39.2641 29.966 44.571 29.966C49.8778 29.966 54.1953 34.2836 54.1953 39.5904C54.1953 44.8973 49.8778 49.2148 44.571 49.2148ZM51.3174 34.1837C50.8646 33.731 50.2627 33.4817 49.6226 33.4817C48.9824 33.4817 48.3805 33.731 47.9276 34.1837L42.4018 39.7097L40.8894 37.8064C40.4325 37.2318 39.7491 36.9021 39.0143 36.9021C38.4736 36.903 37.9491 37.0862 37.5255 37.4222C37.2787 37.6172 37.0731 37.8593 36.9206 38.1343C36.768 38.4094 36.6715 38.712 36.6367 39.0245C36.6001 39.3369 36.6259 39.6534 36.7125 39.9558C36.7991 40.2581 36.9448 40.5403 37.1411 40.7859L40.2496 44.6975C40.472 45.0074 40.7651 45.2599 41.1045 45.4341C41.4439 45.6083 41.8199 45.6991 42.2014 45.6991C42.8401 45.6991 43.441 45.4499 43.8937 44.9973L51.3175 37.5733C52.2519 36.6388 52.2519 35.1182 51.3174 34.1837ZM50.08 36.336L42.6561 43.7599C42.5969 43.8204 42.5261 43.8683 42.4479 43.9008C42.3698 43.9333 42.2859 43.9498 42.2012 43.9493C42.0963 43.9501 41.9928 43.9251 41.8997 43.8767C41.8066 43.8283 41.7267 43.7577 41.6672 43.6713C41.6568 43.6565 41.6459 43.642 41.6346 43.6278L38.511 39.6972C38.4582 39.6311 38.419 39.5552 38.3957 39.4738C38.3724 39.3925 38.3655 39.3073 38.3753 39.2233C38.3847 39.1392 38.4106 39.0577 38.4517 38.9837C38.4928 38.9097 38.5481 38.8446 38.6145 38.7921C38.7279 38.7012 38.8689 38.6518 39.0143 38.6521C39.2125 38.6521 39.3965 38.7408 39.5194 38.8953L41.6419 41.5663C41.7186 41.6628 41.8149 41.7421 41.9243 41.7988C42.0338 41.8555 42.1541 41.8885 42.2772 41.8955C42.4003 41.9027 42.5235 41.8837 42.6387 41.8398C42.754 41.7959 42.8586 41.728 42.9457 41.6407L49.1649 35.4212C49.2249 35.3609 49.2962 35.3132 49.3748 35.2806C49.4533 35.2481 49.5375 35.2315 49.6226 35.2317C49.7954 35.2317 49.9578 35.299 50.08 35.4212C50.2011 35.5426 50.2692 35.7071 50.2692 35.8786C50.2692 36.0501 50.2011 36.2146 50.08 36.336Z" fill="#006DD2"/>
</g>
<defs>
<clipPath id="clip0_155_647">
<rect width="56" height="56" fill="white"/>
</clipPath>
</defs>
</svg>
