<svg width="320" height="680" viewBox="0 0 320 680" fill="none" xmlns="http://www.w3.org/2000/svg">
<g opacity="0.4">
<path d="M401.516 308.151L401.516 308.024L401.425 307.935L322.109 231.041L393.736 231.041L394.447 231.041L393.951 230.532L342.972 178.249L342.972 6.04047L342.972 5.74048L342.672 5.74048L341.696 5.74048L341.396 5.74048L341.396 6.04047L341.396 178.698L341.396 178.82L341.481 178.907L390.587 229.459L318.929 229.459L318.189 229.459L318.72 229.974L399.778 308.605L399.778 350.865L399.778 351.165L400.078 351.165L401.216 351.165L401.516 351.165L401.516 350.865L401.516 308.151Z" fill="#DDD3CD" stroke="#DDD3CD" stroke-width="0.6"/>
<path d="M364.373 304.573L364.539 304.364L364.351 304.175L283.04 222.183L282.827 221.969L282.614 222.183L281.801 223.001L281.591 223.213L281.801 223.424L363.275 305.416L363.513 305.655L363.723 305.391L364.373 304.573Z" fill="#DDD3CD" stroke="#DDD3CD" stroke-width="0.6"/>
<path d="M320.067 226.677C318.111 226.677 316.515 228.286 316.515 230.25C316.515 232.214 318.111 233.823 320.067 233.823C322.024 233.823 323.62 232.214 323.62 230.25C323.62 228.286 322.024 226.677 320.067 226.677Z" fill="#DDD3CD" stroke="#DDD3CD" stroke-width="0.6"/>
<path d="M281.688 230.223C286.075 230.223 289.631 226.822 289.631 222.394C289.631 217.975 286.084 214.403 281.688 214.403C277.451 214.403 273.907 217.98 273.907 222.394C273.907 226.645 277.288 230.223 281.688 230.223ZM281.688 228.641C278.278 228.641 275.483 225.831 275.483 222.394C275.483 218.958 278.278 216.148 281.688 216.148C285.098 216.148 287.893 218.958 287.893 222.394C287.893 225.831 285.098 228.641 281.688 228.641Z" fill="#DDD3CD" stroke="#DDD3CD" stroke-width="0.6"/>
</g>
<g opacity="0.4">
<path d="M348.827 402.908L348.827 402.608L348.527 402.608L305.919 402.608L305.791 402.608L305.702 402.701L229.298 482.516L229.298 410.436L229.298 409.718L228.787 410.223L176.836 461.524L5.71612 461.524L5.41612 461.524L5.41612 461.824L5.41612 462.806L5.41612 463.106L5.71612 463.106L177.447 463.106L177.57 463.106L177.658 463.02L227.723 413.447L227.723 485.718L227.723 486.464L228.239 485.926L306.535 404.354L348.527 404.354L348.827 404.354L348.827 404.054L348.827 402.908Z" fill="#DDD3CD" stroke="#DDD3CD" stroke-width="0.6"/>
<path d="M348.827 358.394L348.827 358.094L348.527 358.094L236.479 358.094L236.356 358.094L236.268 358.18L176.836 416.846L5.71612 416.846L5.41612 416.846L5.41612 417.146L5.41612 418.128L5.41612 418.428L5.71612 418.428L177.447 418.428L177.57 418.428L177.658 418.341L236.928 359.675L348.527 359.675L348.827 359.675L348.827 359.375L348.827 358.394Z" fill="#DDD3CD" stroke="#DDD3CD" stroke-width="0.6"/>
<path d="M31.2479 330.763L30.9479 330.763L30.9479 331.063L30.9479 332.045L30.9479 332.345L31.2479 332.345L306.082 332.345L306.382 332.345L306.382 332.045L306.382 331.063L306.382 330.763L306.082 330.763L31.2479 330.763Z" fill="#DDD3CD" stroke="#DDD3CD" stroke-width="0.6"/>
<path d="M132.248 338.359L132.7 338.624L132.7 338.1L132.7 325.335L132.7 324.811L132.248 325.076L121.352 331.459L120.91 331.717L121.352 331.976L132.248 338.359Z" fill="#DDD3CD" stroke="#DDD3CD" stroke-width="0.6"/>
<path d="M117.124 338.359L117.576 338.624L117.576 338.1L117.576 325.335L117.576 324.811L117.124 325.076L106.228 331.459L105.787 331.717L106.228 331.976L117.124 338.359Z" fill="#DDD3CD" stroke="#DDD3CD" stroke-width="0.6"/>
<path d="M102 338.359L102.452 338.624L102.452 338.1L102.452 325.335L102.452 324.811L102 325.076L91.1044 331.459L90.6625 331.717L91.1044 331.976L102 338.359Z" fill="#DDD3CD" stroke="#DDD3CD" stroke-width="0.6"/>
<path d="M190.955 483.195L191.407 483.46L191.407 482.936L191.407 470.171L191.407 469.648L190.955 469.912L180.059 476.295L179.618 476.554L180.059 476.813L190.955 483.195Z" fill="#DDD3CD" stroke="#DDD3CD" stroke-width="0.6"/>
<path d="M175.831 483.195L176.283 483.46L176.283 482.936L176.283 470.171L176.283 469.648L175.831 469.912L164.936 476.295L164.494 476.554L164.936 476.813L175.831 483.195Z" fill="#DDD3CD" stroke="#DDD3CD" stroke-width="0.6"/>
<path d="M160.707 483.195L161.159 483.46L161.159 482.936L161.159 470.171L161.159 469.648L160.707 469.912L149.811 476.295L149.37 476.554L149.811 476.813L160.707 483.195Z" fill="#DDD3CD" stroke="#DDD3CD" stroke-width="0.6"/>
<path d="M152.257 300.067L152.703 300.315L152.703 299.804L152.703 292.767L152.703 292.245L152.252 292.508L146.072 296.108L145.617 296.374L146.077 296.63L152.257 300.067Z" fill="#DDD3CD" stroke="#DDD3CD" stroke-width="0.6"/>
<path d="M143.797 300.065L144.246 300.321L144.246 299.804L144.246 292.767L144.246 292.238L143.792 292.51L137.775 296.11L137.335 296.374L137.78 296.628L143.797 300.065Z" fill="#DDD3CD" stroke="#DDD3CD" stroke-width="0.6"/>
<path d="M135.506 300.067L135.952 300.315L135.952 299.804L135.952 292.767L135.952 292.245L135.501 292.508L129.322 296.108L128.866 296.374L129.327 296.63L135.506 300.067Z" fill="#DDD3CD" stroke="#DDD3CD" stroke-width="0.6"/>
<path d="M64.0726 399.962L64.0726 399.662L63.7726 399.662L54.0152 399.662L53.7152 399.662L53.7152 399.962L53.7152 409.782L53.7152 410.082L54.0152 410.082L63.7726 410.082L64.0726 410.082L64.0726 409.782L64.0726 399.962ZM62.4969 401.244L62.4969 408.5L55.291 408.5L55.291 401.244L62.4969 401.244Z" fill="#DDD3CD" stroke="#DDD3CD" stroke-width="0.6"/>
<path d="M52.689 399.962L52.689 399.662L52.389 399.662L42.6316 399.662L42.3316 399.662L42.3316 399.962L42.3316 409.782L42.3316 410.082L42.6316 410.082L52.389 410.082L52.689 410.082L52.689 409.782L52.689 399.962ZM51.1132 401.244L51.1132 408.5L43.9073 408.5L43.9073 401.244L51.1132 401.244Z" fill="#DDD3CD" stroke="#DDD3CD" stroke-width="0.6"/>
<path d="M41.3053 399.962L41.3053 399.662L41.0053 399.662L31.2479 399.662L30.9479 399.662L30.9479 399.962L30.9479 409.782L30.9479 410.082L31.2479 410.082L41.0053 410.082L41.3053 410.082L41.3053 409.782L41.3053 399.962ZM39.567 401.244L39.567 408.5L32.361 408.5L32.361 401.244L39.567 401.244Z" fill="#DDD3CD" stroke="#DDD3CD" stroke-width="0.6"/>
<path d="M29.7591 399.962L29.7591 399.662L29.4591 399.662L19.7017 399.662L19.4017 399.662L19.4017 399.962L19.4017 409.782L19.4017 410.082L19.7017 410.082L29.4591 410.082L29.7591 410.082L29.7591 409.782L29.7591 399.962ZM28.1834 401.244L28.1834 408.5L20.9774 408.5L20.9774 401.244L28.1834 401.244Z" fill="#DDD3CD" stroke="#DDD3CD" stroke-width="0.6"/>
<path d="M284.428 379.014L284.428 378.714L284.128 378.714L274.37 378.714L274.07 378.714L274.07 379.014L274.07 388.833L274.07 389.133L274.37 389.133L284.128 389.133L284.428 389.133L284.428 388.833L284.428 379.014ZM282.852 380.132L282.852 387.388L275.646 387.388L275.646 380.132L282.852 380.132Z" fill="#DDD3CD" stroke="#DDD3CD" stroke-width="0.6"/>
<path d="M273.044 379.014L273.044 378.714L272.744 378.714L262.987 378.714L262.687 378.714L262.687 379.014L262.687 388.833L262.687 389.133L262.987 389.133L272.744 389.133L273.044 389.133L273.044 388.833L273.044 379.014ZM271.468 380.132L271.468 387.388L264.262 387.388L264.262 380.132L271.468 380.132Z" fill="#DDD3CD" stroke="#DDD3CD" stroke-width="0.6"/>
<path d="M261.66 379.014L261.66 378.714L261.36 378.714L251.603 378.714L251.303 378.714L251.303 379.014L251.303 388.833L251.303 389.133L251.603 389.133L261.36 389.133L261.66 389.133L261.66 388.833L261.66 379.014ZM260.085 380.132L260.085 387.388L252.879 387.388L252.879 380.132L260.085 380.132Z" fill="#DDD3CD" stroke="#DDD3CD" stroke-width="0.6"/>
<path d="M250.277 379.014L250.277 378.714L249.977 378.714L240.219 378.714L239.919 378.714L239.919 379.014L239.919 388.833L239.919 389.133L240.219 389.133L249.977 389.133L250.277 389.133L250.277 388.833L250.277 379.014ZM248.538 380.132L248.538 387.388L241.332 387.388L241.332 380.132L248.538 380.132Z" fill="#DDD3CD" stroke="#DDD3CD" stroke-width="0.6"/>
<path d="M303.205 441.088L303.415 440.876L303.205 440.665L302.554 440.01L302.342 439.796L302.129 440.01L220.654 521.838L220.466 522.028L220.632 522.237L221.283 523.055L221.493 523.319L221.73 523.08L303.205 441.088Z" fill="#DDD3CD" stroke="#DDD3CD" stroke-width="0.6"/>
<path d="M231.9 383.76L231.9 383.46L231.6 383.46L188.164 383.46L127.614 305.209L127.464 304.908L127.382 304.741L127.196 304.741L4.41506 304.741L4.11506 304.741L4.11506 305.041L4.11506 306.187L4.11506 306.487L4.41506 306.487L126.561 306.487L187.129 384.762L187.141 384.777L187.154 384.79L187.316 384.954L187.404 385.042L187.529 385.042L231.6 385.042L231.9 385.042L231.9 384.742L231.9 383.76Z" fill="#DDD3CD" stroke="#DDD3CD" stroke-width="0.6"/>
<path d="M2.00106 462.479C2.00106 464.443 3.5972 466.052 5.55353 466.052C7.50987 466.052 9.106 464.443 9.106 462.479C9.106 460.515 7.50987 458.906 5.55353 458.906C3.5972 458.906 2.00106 460.515 2.00106 462.479Z" fill="#DDD3CD" stroke="#DDD3CD" stroke-width="0.6"/>
<path d="M224.958 484.573C224.958 486.537 226.554 488.146 228.51 488.146C230.467 488.146 232.063 486.537 232.063 484.573C232.063 482.613 230.474 481.007 228.524 481C226.538 480.826 224.958 482.467 224.958 484.573Z" fill="#DDD3CD" stroke="#DDD3CD" stroke-width="0.6"/>
<path d="M227.56 384.742C227.56 386.706 229.156 388.315 231.112 388.315C233.069 388.315 234.665 386.706 234.665 384.742C234.665 382.778 233.069 381.169 231.112 381.169C229.156 381.169 227.56 382.778 227.56 384.742Z" fill="#DDD3CD" stroke="#DDD3CD" stroke-width="0.6"/>
<path d="M302.529 331.39C302.529 333.354 304.125 334.963 306.082 334.963C308.038 334.963 309.634 333.354 309.634 331.39C309.634 329.426 308.038 327.817 306.082 327.817C304.125 327.817 302.529 329.426 302.529 331.39Z" fill="#DDD3CD" stroke="#DDD3CD" stroke-width="0.6"/>
<path d="M123.481 305.696C123.481 307.66 125.077 309.269 127.033 309.269C128.99 309.269 130.586 307.66 130.586 305.696C130.586 303.737 128.997 302.13 127.047 302.123C125.061 301.949 123.481 303.59 123.481 305.696Z" fill="#DDD3CD" stroke="#DDD3CD" stroke-width="0.6"/>
<path d="M0.700004 305.696C0.700004 307.66 2.29614 309.269 4.25247 309.269C6.20881 309.269 7.80495 307.66 7.80495 305.696C7.80495 303.732 6.20881 302.123 4.25247 302.123C2.30612 302.123 0.700004 303.558 0.700004 305.696Z" fill="#DDD3CD" stroke="#DDD3CD" stroke-width="0.6"/>
<path d="M28.0208 331.39C28.0208 333.354 29.617 334.963 31.5733 334.963C33.5296 334.963 35.1258 333.354 35.1258 331.39C35.1258 329.431 33.5371 327.825 31.587 327.817C29.6006 327.644 28.0208 329.284 28.0208 331.39Z" fill="#DDD3CD" stroke="#DDD3CD" stroke-width="0.6"/>
<path d="M1.18795 417.964C1.18795 419.929 2.78409 421.538 4.74042 421.538C6.69675 421.538 8.29289 419.929 8.29289 417.964C8.29289 416 6.69675 414.391 4.74042 414.391C2.78409 414.391 1.18795 416 1.18795 417.964Z" fill="#DDD3CD" stroke="#DDD3CD" stroke-width="0.6"/>
<path d="M298.301 441.531C298.301 443.495 299.897 445.104 301.854 445.104C303.81 445.104 305.406 443.495 305.406 441.531C305.406 439.567 303.81 437.958 301.854 437.958C299.897 437.958 298.301 439.567 298.301 441.531Z" fill="#DDD3CD" stroke="#DDD3CD" stroke-width="0.6"/>
<path d="M220.867 531.024C225.096 531.024 228.648 527.619 228.648 523.196C228.648 518.781 225.104 515.204 220.867 515.204C216.471 515.204 212.924 518.777 212.924 523.196C212.924 527.455 216.476 531.024 220.867 531.024ZM220.704 529.442C217.294 529.442 214.499 526.632 214.499 523.196C214.499 519.759 217.294 516.949 220.704 516.949C224.115 516.949 226.909 519.759 226.909 523.196C226.909 526.632 224.115 529.442 220.704 529.442Z" fill="#DDD3CD" stroke="#DDD3CD" stroke-width="0.6"/>
<path d="M178.596 408.664L178.597 408.663L178.585 408.663C174.189 408.663 170.642 412.236 170.642 416.655C170.642 420.915 174.193 424.483 178.585 424.483C182.972 424.483 186.528 421.083 186.528 416.655C186.528 412.226 182.973 408.833 178.596 408.664ZM178.585 422.901C175.175 422.901 172.38 420.092 172.38 416.655C172.38 413.219 175.175 410.409 178.585 410.409C181.995 410.409 184.79 413.219 184.79 416.655C184.79 420.092 181.995 422.901 178.585 422.901Z" fill="#DDD3CD" stroke="#DDD3CD" stroke-width="0.6"/>
<path d="M99.9004 405.854C99.9004 407.163 101.009 408.281 102.314 408.281C103.62 408.281 104.729 407.163 104.729 405.854C104.729 404.544 103.62 403.426 102.314 403.426C101.009 403.426 99.9004 404.544 99.9004 405.854Z" fill="#DDD3CD" stroke="#DDD3CD" stroke-width="0.6"/>
<path d="M93.558 405.854C93.558 407.163 94.6663 408.281 95.9721 408.281C97.278 408.281 98.3862 407.163 98.3862 405.854C98.3862 404.544 97.2779 403.426 95.9721 403.426C94.6663 403.426 93.558 404.544 93.558 405.854Z" fill="#DDD3CD" stroke="#DDD3CD" stroke-width="0.6"/>
<path d="M87.0531 405.854C87.0531 407.163 88.1613 408.281 89.4672 408.281C90.773 408.281 91.8813 407.163 91.8813 405.854C91.8813 404.544 90.773 403.426 89.4672 403.426C88.1614 403.426 87.0531 404.544 87.0531 405.854Z" fill="#DDD3CD" stroke="#DDD3CD" stroke-width="0.6"/>
<path d="M80.7107 405.854C80.7107 407.163 81.819 408.281 83.1248 408.281C84.4307 408.281 85.5389 407.163 85.5389 405.854C85.5389 404.544 84.4307 403.426 83.1248 403.426C81.819 403.426 80.7107 404.544 80.7107 405.854Z" fill="#DDD3CD" stroke="#DDD3CD" stroke-width="0.6"/>
<path d="M74.2058 405.854C74.2058 407.163 75.314 408.281 76.6199 408.281C77.9257 408.281 79.034 407.163 79.034 405.854C79.034 404.544 77.9257 403.426 76.6199 403.426C75.314 403.426 74.2058 404.544 74.2058 405.854Z" fill="#DDD3CD" stroke="#DDD3CD" stroke-width="0.6"/>
<path d="M245.448 352.993C245.448 354.302 246.557 355.42 247.863 355.42C249.168 355.42 250.277 354.302 250.277 352.993C250.277 351.683 249.168 350.565 247.863 350.565C246.557 350.565 245.448 351.683 245.448 352.993Z" fill="#DDD3CD" stroke="#DDD3CD" stroke-width="0.6"/>
<path d="M239.106 352.993C239.106 354.302 240.214 355.42 241.52 355.42C242.826 355.42 243.934 354.302 243.934 352.993C243.934 351.683 242.826 350.565 241.52 350.565C240.037 350.565 239.106 351.699 239.106 352.993Z" fill="#DDD3CD" stroke="#DDD3CD" stroke-width="0.6"/>
<path d="M232.601 352.993C232.601 354.302 233.709 355.42 235.015 355.42C236.321 355.42 237.429 354.302 237.429 352.993C237.429 351.683 236.321 350.565 235.015 350.565C233.709 350.565 232.601 351.683 232.601 352.993Z" fill="#DDD3CD" stroke="#DDD3CD" stroke-width="0.6"/>
<path d="M226.259 352.993C226.259 354.302 227.367 355.42 228.673 355.42C229.979 355.42 231.087 354.302 231.087 352.993C231.087 351.683 229.979 350.565 228.673 350.565C227.189 350.565 226.259 351.699 226.259 352.993Z" fill="#DDD3CD" stroke="#DDD3CD" stroke-width="0.6"/>
<path d="M219.754 352.993C219.754 354.302 220.862 355.42 222.168 355.42C223.474 355.42 224.582 354.302 224.582 352.993C224.582 351.683 223.474 350.565 222.168 350.565C220.862 350.565 219.754 351.683 219.754 352.993Z" fill="#DDD3CD" stroke="#DDD3CD" stroke-width="0.6"/>
<path d="M62.9849 298.986C62.9849 300.296 64.0931 301.414 65.399 301.414C66.7048 301.414 67.8131 300.296 67.8131 298.986C67.8131 297.677 66.7048 296.559 65.399 296.559C64.0931 296.559 62.9849 297.677 62.9849 298.986Z" fill="#DDD3CD" stroke="#DDD3CD" stroke-width="0.6"/>
<path d="M56.6425 298.986C56.6425 300.296 57.7508 301.414 59.0566 301.414C60.3625 301.414 61.4707 300.296 61.4707 298.986C61.4707 297.677 60.3625 296.559 59.0566 296.559C57.5731 296.559 56.6425 297.692 56.6425 298.986Z" fill="#DDD3CD" stroke="#DDD3CD" stroke-width="0.6"/>
<path d="M50.1376 298.986C50.1376 300.296 51.2458 301.414 52.5517 301.414C53.8575 301.414 54.9658 300.296 54.9658 298.986C54.9658 297.677 53.8575 296.559 52.5517 296.559C51.2458 296.559 50.1376 297.677 50.1376 298.986Z" fill="#DDD3CD" stroke="#DDD3CD" stroke-width="0.6"/>
<path d="M43.6326 298.986C43.6326 300.296 44.7409 301.414 46.0467 301.414C47.3526 301.414 48.4608 300.296 48.4608 298.986C48.4608 297.677 47.3526 296.559 46.0467 296.559C44.7409 296.559 43.6326 297.677 43.6326 298.986Z" fill="#DDD3CD" stroke="#DDD3CD" stroke-width="0.6"/>
<path d="M37.2903 298.986C37.2903 300.296 38.3986 301.414 39.7044 301.414C41.0102 301.414 42.1185 300.296 42.1185 298.986C42.1185 297.677 41.0102 296.559 39.7044 296.559C38.3986 296.559 37.2903 297.677 37.2903 298.986Z" fill="#DDD3CD" stroke="#DDD3CD" stroke-width="0.6"/>
</g>
</svg>
