<svg width="402" height="275" viewBox="0 0 402 275" fill="none" xmlns="http://www.w3.org/2000/svg">
<path d="M386.446 274.008H386.146V273.708V264.137V263.837H386.446H395.956H396.256V264.137V273.708V274.008H395.956H386.446ZM387.788 272.49H394.744V265.486H387.788V272.49Z" fill="#DDD3CD" stroke="#DDD3CD" stroke-width="0.6"/>
<path d="M375.372 274.008H375.072V273.708V264.137V263.837H375.372H384.882H385.182V264.137V273.708V274.008H384.882H375.372ZM376.584 272.49H383.54V265.486H376.584V272.49Z" fill="#DDD3CD" stroke="#DDD3CD" stroke-width="0.6"/>
<path d="M364.167 274.008H363.867V273.708V264.137V263.837H364.167H373.678H373.978V264.137V273.708V274.008H373.678H364.167ZM365.51 272.49H372.466V265.486H365.51V272.49Z" fill="#DDD3CD" stroke="#DDD3CD" stroke-width="0.6"/>
<path d="M352.963 274.008H352.663V273.708V264.137V263.837H352.963H362.474H362.774V264.137V273.708V274.008H362.474H352.963ZM354.305 272.49H361.262V265.486H354.305V272.49Z" fill="#DDD3CD" stroke="#DDD3CD" stroke-width="0.6"/>
<path d="M256.375 219.771L255.863 220.287V219.559V149.195L216.028 197.042L215.913 197.273L215.831 197.439H215.645H38.9806H38.6806V197.139V196.091V195.791H38.9806H214.983L256.974 145.421L257.505 144.785V145.613V216.321L331.901 138.588L331.901 138.588L331.905 138.584L332.035 138.453L332.123 138.364H332.248H373.808H374.108V138.664V139.582V139.882H373.808H332.897L257.291 218.849L257.287 218.853L256.375 219.771Z" fill="#DDD3CD" stroke="#DDD3CD" stroke-width="0.6"/>
<path d="M38.9807 153.779H38.6807V153.479V152.43V152.13H38.9807H206.141L264.16 94.7905L264.247 94.7039H264.37H398.041H398.341V95.0039V96.0528V96.3528H398.041H264.885L206.866 153.693L206.778 153.779H206.655H38.9807Z" fill="#DDD3CD" stroke="#DDD3CD" stroke-width="0.6"/>
<path d="M-2.35849 68.2573V67.9573H-2.0585H332.509H332.809V68.2573V69.3062V69.6062H332.509H-2.0585H-2.35849V69.3062V68.2573Z" fill="#DDD3CD" stroke="#DDD3CD" stroke-width="0.6"/>
<path d="M163.05 75.2063V75.7312L162.597 75.4647L151.914 69.1714L151.471 68.9102L151.917 68.653L162.6 62.4909L163.05 62.2314V62.7507V75.2063Z" fill="#DDD3CD" stroke="#DDD3CD" stroke-width="0.6"/>
<path d="M148.328 75.2063V75.728L147.877 75.4655L137.063 69.1722L136.613 68.9102L137.066 68.6523L147.879 62.4901L148.328 62.2345V62.7507V75.2063Z" fill="#DDD3CD" stroke="#DDD3CD" stroke-width="0.6"/>
<path d="M133.475 75.2063V75.7312L133.023 75.4647L122.34 69.1714L121.897 68.9102L122.342 68.653L133.026 62.4909L133.475 62.2314V62.7507V75.2063Z" fill="#DDD3CD" stroke="#DDD3CD" stroke-width="0.6"/>
<path d="M220.374 216.806V217.331L219.922 217.064L209.239 210.771L208.795 210.51L209.241 210.253L219.924 204.09L220.374 203.831V204.35V216.806Z" fill="#DDD3CD" stroke="#DDD3CD" stroke-width="0.6"/>
<path d="M205.652 216.806V217.328L205.201 217.065L194.388 210.772L193.937 210.51L194.39 210.252L205.204 204.09L205.652 203.834V204.35V216.806Z" fill="#DDD3CD" stroke="#DDD3CD" stroke-width="0.6"/>
<path d="M190.8 216.806V217.331L190.348 217.064L179.665 210.771L179.221 210.51L179.667 210.253L190.35 204.09L190.8 203.831V204.35V216.806Z" fill="#DDD3CD" stroke="#DDD3CD" stroke-width="0.6"/>
<path d="M182.462 37.8397V38.3555L182.014 38.1005L176.021 34.6916L175.571 34.4358L176.016 34.1726L182.009 30.6326L182.462 30.3652V30.8909V37.8397Z" fill="#DDD3CD" stroke="#DDD3CD" stroke-width="0.6"/>
<path d="M174.254 37.8397V38.3555L173.806 38.1005L167.813 34.6916L167.363 34.4358L167.808 34.1726L173.802 30.6326L174.254 30.3652V30.8909V37.8397Z" fill="#DDD3CD" stroke="#DDD3CD" stroke-width="0.6"/>
<path d="M166.046 37.8397V38.3612L165.595 38.0991L159.733 34.6902L159.295 34.4357L159.728 34.1741L165.591 30.6341L166.046 30.3593V30.8909V37.8397Z" fill="#DDD3CD" stroke="#DDD3CD" stroke-width="0.6"/>
<path d="M86.1432 145.52H85.8432V145.22V135.648V135.348H86.1432H95.6538H95.9538V135.648V145.22V145.52H95.6538H86.1432ZM87.3552 143.871H94.3116V136.866H87.3552V143.871Z" fill="#DDD3CD" stroke="#DDD3CD" stroke-width="0.6"/>
<path d="M74.9388 145.52H74.6388V145.22V135.648V135.348H74.9388H84.4495H84.7495V135.648V145.22V145.52H84.4495H74.9388ZM76.2811 143.871H83.2375V136.866H76.2811V143.871Z" fill="#DDD3CD" stroke="#DDD3CD" stroke-width="0.6"/>
<path d="M63.7345 145.52H63.4345V145.22V135.648V135.348H63.7345H73.2451H73.5451V135.648V145.22V145.52H73.2451H63.7345ZM65.0767 143.871H72.0332V136.866H65.0767V143.871Z" fill="#DDD3CD" stroke="#DDD3CD" stroke-width="0.6"/>
<path d="M52.6604 145.52H52.3604V145.22V135.648V135.348H52.6604H62.171H62.471V135.648V145.22V145.52H62.171H52.6604ZM53.8724 143.871H60.8288V136.866H53.8724V143.871Z" fill="#DDD3CD" stroke="#DDD3CD" stroke-width="0.6"/>
<path d="M301.501 125.066H301.201V124.766V115.195V114.895H301.501H311.012H311.312V115.195V124.766V125.066H311.012H301.501ZM302.713 123.417H309.67V116.413H302.713V123.417Z" fill="#DDD3CD" stroke="#DDD3CD" stroke-width="0.6"/>
<path d="M290.297 125.066H289.997V124.766V115.195V114.895H290.297H299.807H300.107V115.195V124.766V125.066H299.807H290.297ZM291.639 123.417H298.595V116.413H291.639V123.417Z" fill="#DDD3CD" stroke="#DDD3CD" stroke-width="0.6"/>
<path d="M279.093 125.066H278.793V124.766V115.195V114.895H279.093H288.603H288.903V115.195V124.766V125.066H288.603H279.093ZM280.435 123.417H287.391V116.413H280.435V123.417Z" fill="#DDD3CD" stroke="#DDD3CD" stroke-width="0.6"/>
<path d="M268.018 125.066H267.718V124.766V115.195V114.895H268.018H277.529H277.829V115.195V124.766V125.066H277.529H268.018ZM269.23 123.417H276.187V116.413H269.23V123.417Z" fill="#DDD3CD" stroke="#DDD3CD" stroke-width="0.6"/>
<path d="M328.462 174.722L328.673 174.51L328.885 174.722L329.622 175.464L329.833 175.677L329.622 175.89L250.027 255.99L249.816 256.202L249.604 255.99L248.867 255.248L248.656 255.035L248.867 254.822L328.462 174.722Z" fill="#DDD3CD" stroke="#DDD3CD" stroke-width="0.6"/>
<path d="M216.557 121.133H216.429L216.34 121.041L142.558 44.302H-28.3756H-28.6756V44.002V42.9531V42.6531H-28.3756H143.077H143.205L143.293 42.7452L217.075 119.484H259.68H259.98V119.784V120.833V121.133H259.68H216.557Z" fill="#DDD3CD" stroke="#DDD3CD" stroke-width="0.6"/>
<path d="M38.8506 200.455C36.8592 200.455 35.2935 198.877 35.2935 196.877C35.2935 194.878 36.8592 193.299 38.8506 193.299C40.842 193.299 42.4077 194.878 42.4077 196.877C42.4077 198.877 40.842 200.455 38.8506 200.455Z" fill="#DDD3CD" stroke="#DDD3CD" stroke-width="0.6"/>
<path d="M256.662 214.671L256.673 214.67H256.684C258.675 214.67 260.241 216.249 260.241 218.248C260.241 220.248 258.675 221.826 256.684 221.826C254.692 221.826 253.127 220.248 253.127 218.248C253.127 216.369 254.7 214.812 256.662 214.671Z" fill="#DDD3CD" stroke="#DDD3CD" stroke-width="0.6"/>
<path d="M259.29 124.411C257.298 124.411 255.732 122.832 255.732 120.833C255.732 118.834 257.298 117.255 259.29 117.255C261.281 117.255 262.847 118.834 262.847 120.833C262.847 122.832 261.281 124.411 259.29 124.411Z" fill="#DDD3CD" stroke="#DDD3CD" stroke-width="0.6"/>
<path d="M397.52 99.1063C395.528 99.1063 393.963 97.5279 393.963 95.5285C393.963 93.5291 395.528 91.9507 397.52 91.9507C399.511 91.9507 401.077 93.5291 401.077 95.5285C401.077 97.5279 399.511 99.1063 397.52 99.1063Z" fill="#DDD3CD" stroke="#DDD3CD" stroke-width="0.6"/>
<path d="M332.509 72.3597C330.517 72.3597 328.951 70.7814 328.951 68.7819C328.951 66.7825 330.517 65.2042 332.509 65.2042C334.5 65.2042 336.066 66.7825 336.066 68.7819C336.066 70.7814 334.5 72.3597 332.509 72.3597Z" fill="#DDD3CD" stroke="#DDD3CD" stroke-width="0.6"/>
<path d="M142.947 47.0552C140.955 47.0552 139.39 45.4769 139.39 43.4775C139.39 41.478 140.955 39.8997 142.947 39.8997C144.938 39.8997 146.504 41.478 146.504 43.4775C146.504 45.4769 144.938 47.0552 142.947 47.0552Z" fill="#DDD3CD" stroke="#DDD3CD" stroke-width="0.6"/>
<path d="M-1.68923 64.9427L-1.67849 64.9419H-1.66772C0.323715 64.9419 1.88936 66.5203 1.88936 68.5197C1.88936 70.5192 0.323715 72.0975 -1.66772 72.0975C-3.65916 72.0975 -5.2248 70.5192 -5.2248 68.5197C-5.2248 66.6404 -3.65199 65.0838 -1.68923 64.9427Z" fill="#DDD3CD" stroke="#DDD3CD" stroke-width="0.6"/>
<path d="M37.9385 156.926C35.947 156.926 34.3814 155.348 34.3814 153.348C34.3814 151.349 35.947 149.771 37.9385 149.771C39.9299 149.771 41.4956 151.349 41.4956 153.348C41.4956 155.348 39.9299 156.926 37.9385 156.926Z" fill="#DDD3CD" stroke="#DDD3CD" stroke-width="0.6"/>
<path d="M328.34 179.87C326.348 179.87 324.783 178.292 324.783 176.293C324.783 174.293 326.348 172.715 328.34 172.715C330.331 172.715 331.897 174.293 331.897 176.293C331.897 178.292 330.331 179.87 328.34 179.87Z" fill="#DDD3CD" stroke="#DDD3CD" stroke-width="0.6"/>
<path d="M241.271 256.017L241.271 256.017V256.008C241.271 251.645 244.794 248.235 248.997 248.235C253.337 248.235 256.723 251.783 256.723 256.008C256.723 260.371 253.2 263.781 248.997 263.781C244.786 263.781 241.406 260.364 241.271 256.017ZM255.081 256.008C255.081 252.632 252.347 249.884 248.997 249.884C245.647 249.884 242.913 252.632 242.913 256.008C242.913 259.384 245.647 262.132 248.997 262.132C252.347 262.132 255.081 259.384 255.081 256.008Z" fill="#DDD3CD" stroke="#DDD3CD" stroke-width="0.6"/>
<path d="M201.874 151.895L201.874 151.895V151.906C201.874 155.282 204.608 158.031 207.958 158.031C211.308 158.031 214.042 155.282 214.042 151.906C214.042 148.53 211.308 145.782 207.958 145.782C204.601 145.782 201.75 148.665 201.874 151.895ZM215.684 151.906C215.684 156.269 212.161 159.679 207.958 159.679C203.621 159.679 200.232 156.266 200.232 151.906C200.232 147.543 203.755 144.133 207.958 144.133C212.298 144.133 215.684 147.681 215.684 151.906Z" fill="#DDD3CD" stroke="#DDD3CD" stroke-width="0.6"/>
<path d="M372.505 143.422C370.514 143.422 368.948 141.843 368.948 139.844C368.948 137.844 370.514 136.266 372.505 136.266C374.497 136.266 376.062 137.844 376.062 139.844C376.062 141.843 374.497 143.422 372.505 143.422Z" fill="#DDD3CD" stroke="#DDD3CD" stroke-width="0.6"/>
<path d="M133.306 143.815C131.966 143.815 130.921 142.761 130.921 141.417C130.921 140.073 131.966 139.02 133.306 139.02C134.646 139.02 135.69 140.073 135.69 141.417C135.69 142.761 134.646 143.815 133.306 143.815Z" fill="#DDD3CD" stroke="#DDD3CD" stroke-width="0.6"/>
<path d="M127.052 143.815C125.712 143.815 124.667 142.761 124.667 141.417C124.667 140.073 125.712 139.02 127.052 139.02C128.392 139.02 129.436 140.073 129.436 141.417C129.436 142.761 128.392 143.815 127.052 143.815Z" fill="#DDD3CD" stroke="#DDD3CD" stroke-width="0.6"/>
<path d="M120.798 143.815C119.458 143.815 118.414 142.761 118.414 141.417C118.414 140.073 119.458 139.02 120.798 139.02C122.138 139.02 123.183 140.073 123.183 141.417C123.183 142.761 122.138 143.815 120.798 143.815Z" fill="#DDD3CD" stroke="#DDD3CD" stroke-width="0.6"/>
<path d="M114.545 143.815C113.205 143.815 112.16 142.761 112.16 141.417C112.16 140.073 113.205 139.02 114.545 139.02C115.885 139.02 116.93 140.073 116.93 141.417C116.93 142.761 115.885 143.815 114.545 143.815Z" fill="#DDD3CD" stroke="#DDD3CD" stroke-width="0.6"/>
<path d="M108.161 143.815C106.821 143.815 105.776 142.761 105.776 141.417C105.776 140.073 106.821 139.02 108.161 139.02C109.501 139.02 110.545 140.073 110.545 141.417C110.545 142.761 109.501 143.815 108.161 143.815Z" fill="#DDD3CD" stroke="#DDD3CD" stroke-width="0.6"/>
<path d="M275.542 87.3637L275.558 87.3619H275.575C276.915 87.3619 277.959 88.4157 277.959 89.7596C277.959 91.1035 276.915 92.1574 275.575 92.1574C274.235 92.1574 273.19 91.1035 273.19 89.7596C273.19 88.5306 274.246 87.5086 275.542 87.3637Z" fill="#DDD3CD" stroke="#DDD3CD" stroke-width="0.6"/>
<path d="M269.288 87.3637L269.305 87.3619H269.321C270.661 87.3619 271.706 88.4157 271.706 89.7596C271.706 91.1035 270.661 92.1574 269.321 92.1574C267.981 92.1574 266.937 91.1035 266.937 89.7596C266.937 88.5306 267.992 87.5086 269.288 87.3637Z" fill="#DDD3CD" stroke="#DDD3CD" stroke-width="0.6"/>
<path d="M262.904 87.3637L262.921 87.3619H262.937C264.277 87.3619 265.322 88.4157 265.322 89.7596C265.322 91.1035 264.277 92.1574 262.937 92.1574C261.597 92.1574 260.553 91.1035 260.553 89.7596C260.553 88.5306 261.608 87.5086 262.904 87.3637Z" fill="#DDD3CD" stroke="#DDD3CD" stroke-width="0.6"/>
<path d="M256.65 87.3637L256.667 87.3619H256.684C258.024 87.3619 259.068 88.4157 259.068 89.7596C259.068 91.1035 258.024 92.1574 256.684 92.1574C255.344 92.1574 254.299 91.1035 254.299 89.7596C254.299 88.5306 255.355 87.5086 256.65 87.3637Z" fill="#DDD3CD" stroke="#DDD3CD" stroke-width="0.6"/>
<path d="M250.397 87.3637L250.414 87.3619H250.43C251.77 87.3619 252.815 88.4157 252.815 89.7596C252.815 91.1035 251.77 92.1574 250.43 92.1574C249.09 92.1574 248.046 91.1035 248.046 89.7596C248.046 88.5306 249.101 87.5086 250.397 87.3637Z" fill="#DDD3CD" stroke="#DDD3CD" stroke-width="0.6"/>
<path d="M31.294 39.4509C29.954 39.4509 28.9095 38.397 28.9095 37.0531C28.9095 35.7092 29.954 34.6553 31.294 34.6553C32.6341 34.6553 33.6785 35.7092 33.6785 37.0531C33.6785 38.397 32.6341 39.4509 31.294 39.4509Z" fill="#DDD3CD" stroke="#DDD3CD" stroke-width="0.6"/>
<path d="M25.0404 39.4509C23.7004 39.4509 22.6559 38.397 22.6559 37.0531C22.6559 35.7092 23.7004 34.6553 25.0404 34.6553C26.3804 34.6553 27.425 35.7092 27.425 37.0531C27.425 38.397 26.3804 39.4509 25.0404 39.4509Z" fill="#DDD3CD" stroke="#DDD3CD" stroke-width="0.6"/>
<path d="M18.7868 39.4509C17.4467 39.4509 16.4023 38.397 16.4023 37.0531C16.4023 35.7092 17.4467 34.6553 18.7868 34.6553C20.1268 34.6553 21.1713 35.7092 21.1713 37.0531C21.1713 38.397 20.1268 39.4509 18.7868 39.4509Z" fill="#DDD3CD" stroke="#DDD3CD" stroke-width="0.6"/>
<path d="M12.4029 39.4509C11.0629 39.4509 10.0184 38.397 10.0184 37.0531C10.0184 35.7092 11.0629 34.6553 12.4029 34.6553C13.743 34.6553 14.7874 35.7092 14.7874 37.0531C14.7874 38.397 13.743 39.4509 12.4029 39.4509Z" fill="#DDD3CD" stroke="#DDD3CD" stroke-width="0.6"/>
<path d="M6.14943 39.4509C4.80941 39.4509 3.76493 38.397 3.76493 37.0531C3.76493 35.7092 4.8094 34.6553 6.14943 34.6553C7.48945 34.6553 8.53401 35.7092 8.53401 37.0531C8.53401 38.397 7.48944 39.4509 6.14943 39.4509Z" fill="#DDD3CD" stroke="#DDD3CD" stroke-width="0.6"/>
<g opacity="0.6">
<path d="M202.32 61.1321L202.321 61.1235L202.323 61.115C202.748 59.117 204.596 57.9733 206.44 58.2588C208.316 58.5492 209.578 60.4223 209.297 62.3996L209.296 62.4098L209.294 62.4199C208.868 64.418 207.02 65.5616 205.176 65.2761L205.167 65.2748L205.159 65.2729C203.17 64.8441 202.037 62.9834 202.32 61.1321Z" fill="#DDD3CD" stroke="#DDD3CD" stroke-width="0.6"/>
<path d="M112.685 84.2076L112.686 84.199L112.688 84.1904C113.113 82.193 114.96 81.0494 116.804 81.334C118.803 81.6223 120.085 83.495 119.659 85.4954C119.233 87.4934 117.385 88.6371 115.541 88.3516L115.532 88.3502L115.524 88.3484C113.535 87.9195 112.402 86.0588 112.685 84.2076Z" fill="#DDD3CD" stroke="#DDD3CD" stroke-width="0.6"/>
<path d="M164.886 1.35762L164.886 1.3576L164.889 1.35817C178.386 3.8638 190.181 11.5131 198.042 22.8532C205.904 34.1937 208.919 48.0408 206.429 61.6237C202.104 86.2839 180.744 104.22 155.845 104.22C152.701 104.22 149.687 103.956 146.673 103.428L146.67 103.428C118.756 98.2844 100.151 71.2504 105.13 43.1634C109.454 18.5026 130.814 0.566455 155.714 0.566455C158.728 0.566455 161.872 0.830106 164.886 1.35762ZM196.767 23.5878L196.767 23.5872C189.256 12.6405 177.731 5.21231 164.652 2.86631C161.672 2.34487 158.693 2.08423 155.714 2.08423C131.498 2.08423 110.906 19.5474 106.632 43.2684L106.632 43.2686C101.711 70.508 119.843 96.7044 146.907 101.657C149.887 102.179 152.866 102.44 155.845 102.44C180.061 102.44 200.652 85.1074 204.927 61.125C207.258 47.9601 204.409 34.6669 196.767 23.5878Z" fill="#DDD3CD" stroke="#DDD3CD" stroke-width="0.6"/>
</g>
</svg>
