<svg width="327" height="598" viewBox="0 0 327 598" fill="none" xmlns="http://www.w3.org/2000/svg">
<path d="M139.841 530.745L140.354 531.261V530.534V449.399L186.407 504.715L186.447 504.763L186.503 504.791L186.803 504.942L186.867 504.974H186.938H390.703H391.003V504.674V503.616V503.316H390.703H187.53L139.233 445.203L138.702 444.564V445.394V527.064L52.6635 437.172L52.6635 437.172L52.6595 437.168L52.5093 437.017L52.4213 436.928H52.2965H4.36049H4.06049V437.228V438.438V438.738H4.36049H51.7176L138.936 529.834L138.939 529.838L139.841 530.745Z" fill="#DDD3CD" stroke="#DDD3CD" stroke-width="0.6"/>
<path d="M390.703 454.768H391.003V454.468V453.258V452.958H390.703H197.73L130.798 386.809L130.71 386.722H130.587H4.36049H4.06049V387.022V388.081V388.381H4.36049H130.013L196.945 454.681L197.033 454.768H197.156H390.703Z" fill="#DDD3CD" stroke="#DDD3CD" stroke-width="0.6"/>
<path d="M438.188 356.172V355.872H437.888H51.9959H51.6959V356.172V357.382V357.682H51.9959H437.888H438.188V357.382V356.172Z" fill="#DDD3CD" stroke="#DDD3CD" stroke-width="0.6"/>
<path d="M247.497 364.036V364.552L247.946 364.297L260.418 357.189L260.871 356.931L260.42 356.669L247.948 349.41L247.497 349.148V349.67V364.036Z" fill="#DDD3CD" stroke="#DDD3CD" stroke-width="0.6"/>
<path d="M264.628 364.036V364.555L265.078 364.296L277.4 357.188L277.846 356.931L277.402 356.67L265.08 349.411L264.628 349.145V349.67V364.036Z" fill="#DDD3CD" stroke="#DDD3CD" stroke-width="0.6"/>
<path d="M281.608 364.036V364.555L282.058 364.296L294.38 357.188L294.826 356.931L294.383 356.67L282.061 349.411L281.608 349.145V349.67V364.036Z" fill="#DDD3CD" stroke="#DDD3CD" stroke-width="0.6"/>
<path d="M181.379 527.358V527.874L181.827 527.619L194.299 520.511L194.752 520.253L194.302 519.991L181.829 512.733L181.379 512.47V512.992V527.358Z" fill="#DDD3CD" stroke="#DDD3CD" stroke-width="0.6"/>
<path d="M198.359 527.358V527.874L198.808 527.619L211.28 520.511L211.732 520.253L211.282 519.991L198.81 512.733L198.359 512.47V512.992V527.358Z" fill="#DDD3CD" stroke="#DDD3CD" stroke-width="0.6"/>
<path d="M215.49 527.358V527.877L215.94 527.618L228.262 520.51L228.708 520.253L228.264 519.992L215.942 512.733L215.49 512.467V512.992V527.358Z" fill="#DDD3CD" stroke="#DDD3CD" stroke-width="0.6"/>
<path d="M225.107 321.088V321.614L225.56 321.347L232.472 317.264L232.918 317L232.468 316.744L225.555 312.813L225.107 312.558V313.073V321.088Z" fill="#DDD3CD" stroke="#DDD3CD" stroke-width="0.6"/>
<path d="M234.574 321.088V321.614L235.027 321.347L241.939 317.264L242.385 317L241.935 316.744L235.022 312.813L234.574 312.558V313.073V321.088Z" fill="#DDD3CD" stroke="#DDD3CD" stroke-width="0.6"/>
<path d="M244.041 321.088V321.614L244.494 321.347L251.406 317.264L251.851 317L251.402 316.744L244.489 312.813L244.041 312.558V313.073V321.088Z" fill="#DDD3CD" stroke="#DDD3CD" stroke-width="0.6"/>
<path d="M336.156 445.241H336.456V444.941V433.901V433.601H336.156H325.186H324.886V433.901V444.941V445.241H325.186H336.156ZM334.804 443.431H326.688V435.26H334.804V443.431Z" fill="#DDD3CD" stroke="#DDD3CD" stroke-width="0.6"/>
<path d="M87.7601 421.499H88.0601V421.199V410.159V409.859H87.7601H76.7904H76.4904V410.159V421.199V421.499H76.7904H87.7601ZM86.4082 419.84H78.2926V411.669H86.4082V419.84Z" fill="#DDD3CD" stroke="#DDD3CD" stroke-width="0.6"/>
<path d="M100.683 421.499H100.983V421.199V410.159V409.859H100.683H89.7136H89.4136V410.159V421.199V421.499H89.7136H100.683ZM99.3314 419.84H91.2157V411.669H99.3314V419.84Z" fill="#DDD3CD" stroke="#DDD3CD" stroke-width="0.6"/>
<path d="M113.606 421.499H113.906V421.199V410.159V409.859H113.606H102.637H102.337V410.159V421.199V421.499H102.637H113.606ZM112.104 419.84H103.989V411.669H112.104V419.84Z" fill="#DDD3CD" stroke="#DDD3CD" stroke-width="0.6"/>
<path d="M126.379 421.499H126.679V421.199V410.159V409.859H126.379H115.41H115.11V410.159V421.199V421.499H115.41H126.379ZM125.027 419.84H116.912V411.669H125.027V419.84Z" fill="#DDD3CD" stroke="#DDD3CD" stroke-width="0.6"/>
<path d="M56.5684 478.903L56.3569 478.69L56.1455 478.903L55.2954 479.758L55.084 479.971L55.2954 480.184L147.1 572.572L147.312 572.785L147.523 572.572L148.373 571.717L148.585 571.504L148.373 571.291L56.5684 478.903Z" fill="#DDD3CD" stroke="#DDD3CD" stroke-width="0.6"/>
<path d="M185.736 416.962H185.864L185.952 416.87L271.066 328.345H468.243H468.543V328.045V326.986V326.686H468.243H270.488H270.36L270.272 326.778L185.157 415.303H136.147H135.847V415.603V416.662V416.962H136.147H185.736Z" fill="#DDD3CD" stroke="#DDD3CD" stroke-width="0.6"/>
<path d="M139.453 533.253C141.724 533.253 143.51 531.454 143.51 529.173C143.51 526.892 141.724 525.092 139.453 525.092C137.182 525.092 135.396 526.892 135.396 529.173C135.396 531.454 137.182 533.253 139.453 533.253Z" fill="#DDD3CD" stroke="#DDD3CD" stroke-width="0.6"/>
<path d="M136.469 412.582L136.458 412.581H136.447C134.176 412.581 132.391 414.381 132.391 416.662C132.391 418.943 134.176 420.742 136.447 420.742C138.719 420.742 140.504 418.943 140.504 416.662C140.504 414.521 138.711 412.743 136.469 412.582Z" fill="#DDD3CD" stroke="#DDD3CD" stroke-width="0.6"/>
<path d="M4.8328 383.396L4.82206 383.395H4.81129C2.54004 383.395 0.75455 385.195 0.75455 387.476C0.75455 389.757 2.54004 391.556 4.81129 391.556C7.08254 391.556 8.86803 389.757 8.86803 387.476C8.86803 385.335 7.07537 383.557 4.8328 383.396Z" fill="#DDD3CD" stroke="#DDD3CD" stroke-width="0.6"/>
<path d="M52.0174 352.546L52.0067 352.545H51.9959C49.7247 352.545 47.9392 354.345 47.9392 356.626C47.9392 358.907 49.7247 360.706 51.9959 360.706C54.2672 360.706 56.0527 358.907 56.0527 356.626C56.0527 354.485 54.26 352.707 52.0174 352.546Z" fill="#DDD3CD" stroke="#DDD3CD" stroke-width="0.6"/>
<path d="M270.638 331.671C272.909 331.671 274.695 329.872 274.695 327.591C274.695 325.31 272.909 323.51 270.638 323.51C268.367 323.51 266.581 325.31 266.581 327.591C266.581 329.872 268.367 331.671 270.638 331.671Z" fill="#DDD3CD" stroke="#DDD3CD" stroke-width="0.6"/>
<path d="M56.8046 484.862C59.0758 484.862 60.8613 483.062 60.8613 480.781C60.8613 478.5 59.0758 476.7 56.8046 476.7C54.5333 476.7 52.7478 478.5 52.7478 480.781C52.7478 483.062 54.5333 484.862 56.8046 484.862Z" fill="#DDD3CD" stroke="#DDD3CD" stroke-width="0.6"/>
<path d="M139.453 572.725C139.453 577.732 143.496 581.645 148.319 581.645C153.145 581.645 157.184 577.577 157.184 572.725C157.184 567.719 153.141 563.805 148.319 563.805C143.339 563.805 139.453 567.877 139.453 572.725ZM141.255 572.725C141.255 568.806 144.429 565.615 148.319 565.615C152.208 565.615 155.382 568.806 155.382 572.725C155.382 576.644 152.208 579.835 148.319 579.835C144.429 579.835 141.255 576.644 141.255 572.725Z" fill="#DDD3CD" stroke="#DDD3CD" stroke-width="0.6"/>
<path d="M204.669 452.663L204.669 452.663V452.653C204.669 447.647 200.626 443.733 195.804 443.733C190.824 443.733 186.939 447.805 186.939 452.653C186.939 457.66 190.981 461.573 195.804 461.573C200.635 461.573 204.514 457.653 204.669 452.663ZM188.741 452.653C188.741 448.734 191.914 445.543 195.804 445.543C199.694 445.543 202.867 448.734 202.867 452.653C202.867 456.572 199.694 459.763 195.804 459.763C191.914 459.763 188.741 456.572 188.741 452.653Z" fill="#DDD3CD" stroke="#DDD3CD" stroke-width="0.6"/>
<path d="M5.88468 434.509L5.87394 434.509H5.86317C3.59193 434.509 1.80643 436.308 1.80643 438.589C1.80643 440.87 3.59193 442.67 5.86317 442.67C8.13442 442.67 9.91991 440.87 9.91991 438.589C9.91991 436.449 8.12725 434.671 5.88468 434.509Z" fill="#DDD3CD" stroke="#DDD3CD" stroke-width="0.6"/>
<path d="M281.758 443.275C283.278 443.275 284.462 442.08 284.462 440.555C284.462 439.031 283.278 437.836 281.758 437.836C280.238 437.836 279.054 439.031 279.054 440.555C279.054 442.08 280.238 443.275 281.758 443.275Z" fill="#DDD3CD" stroke="#DDD3CD" stroke-width="0.6"/>
<path d="M288.971 443.275C290.491 443.275 291.675 442.08 291.675 440.555C291.675 439.031 290.491 437.836 288.971 437.836C287.451 437.836 286.267 439.031 286.267 440.555C286.267 442.08 287.451 443.275 288.971 443.275Z" fill="#DDD3CD" stroke="#DDD3CD" stroke-width="0.6"/>
<path d="M296.184 443.275C297.704 443.275 298.888 442.08 298.888 440.555C298.888 439.031 297.704 437.836 296.184 437.836C294.664 437.836 293.48 439.031 293.48 440.555C293.48 442.08 294.664 443.275 296.184 443.275Z" fill="#DDD3CD" stroke="#DDD3CD" stroke-width="0.6"/>
<path d="M303.397 443.275C304.917 443.275 306.101 442.08 306.101 440.555C306.101 439.031 304.917 437.836 303.397 437.836C301.877 437.836 300.693 439.031 300.693 440.555C300.693 442.08 301.877 443.275 303.397 443.275Z" fill="#DDD3CD" stroke="#DDD3CD" stroke-width="0.6"/>
<path d="M310.76 443.275C312.28 443.275 313.464 442.08 313.464 440.555C313.464 439.031 312.28 437.836 310.76 437.836C309.24 437.836 308.056 439.031 308.056 440.555C308.056 442.08 309.24 443.275 310.76 443.275Z" fill="#DDD3CD" stroke="#DDD3CD" stroke-width="0.6"/>
<path d="M117.664 383.693C119.184 383.693 120.368 382.498 120.368 380.973C120.368 379.448 119.184 378.253 117.664 378.253C116.144 378.253 114.959 379.448 114.959 380.973C114.959 382.498 116.144 383.693 117.664 383.693Z" fill="#DDD3CD" stroke="#DDD3CD" stroke-width="0.6"/>
<path d="M125.027 383.693C126.547 383.693 127.731 382.498 127.731 380.973C127.731 379.448 126.547 378.253 125.027 378.253C123.507 378.253 122.323 379.448 122.323 380.973C122.323 382.498 123.507 383.693 125.027 383.693Z" fill="#DDD3CD" stroke="#DDD3CD" stroke-width="0.6"/>
<path d="M132.24 383.693C133.76 383.693 134.944 382.498 134.944 380.973C134.944 379.448 133.76 378.253 132.24 378.253C130.72 378.253 129.536 379.448 129.536 380.973C129.536 382.498 130.72 383.693 132.24 383.693Z" fill="#DDD3CD" stroke="#DDD3CD" stroke-width="0.6"/>
<path d="M139.453 383.693C140.973 383.693 142.157 382.498 142.157 380.973C142.157 379.448 140.973 378.253 139.453 378.253C137.933 378.253 136.748 379.448 136.748 380.973C136.748 382.498 137.933 383.693 139.453 383.693Z" fill="#DDD3CD" stroke="#DDD3CD" stroke-width="0.6"/>
<path d="M146.816 383.693C148.311 383.693 149.52 382.473 149.52 380.973C149.52 379.473 148.311 378.253 146.816 378.253C145.321 378.253 144.112 379.473 144.112 380.973C144.112 382.473 145.321 383.693 146.816 383.693Z" fill="#DDD3CD" stroke="#DDD3CD" stroke-width="0.6"/>
<g opacity="0.4">
<path d="M227.06 373.409H227.188L227.277 373.317L297.837 299.605V366.153V366.871L298.348 366.366L346.347 318.969H504.458H504.758V318.669V317.761V317.461H504.458H345.923H345.8L345.713 317.547L299.339 363.169V296.59V295.843L298.822 296.382L226.631 371.751H187.84H187.54V372.051V373.109V373.409H187.84H227.06Z" fill="#DDD3CD" stroke="#DDD3CD" stroke-width="0.6"/>
<path d="M291.375 414.542H291.499L291.586 414.456L346.347 360.253H504.458H504.758V359.953V359.046V358.746H504.458H345.923H345.8L345.712 358.832L290.801 413.035H187.84H187.54V413.335V414.242V414.542H187.84H291.375Z" fill="#DDD3CD" stroke="#DDD3CD" stroke-width="0.6"/>
<path d="M481.165 438.589V438.289H480.865H226.91H226.61V438.589V439.497V439.797H226.91H480.865H481.165V439.497V438.589Z" fill="#DDD3CD" stroke="#DDD3CD" stroke-width="0.6"/>
<path d="M256.212 395.488H256.512V395.188V386.115V385.815H256.212H247.196H246.896V386.115V395.188V395.488H247.196H256.212ZM255.011 393.981H248.398V387.322H255.011V393.981Z" fill="#DDD3CD" stroke="#DDD3CD" stroke-width="0.6"/>
<path d="M266.731 395.488H267.031V395.188V386.115V385.815H266.731H257.715H257.415V386.115V395.188V395.488H257.715H266.731ZM265.68 393.981H259.067V387.322H265.68V393.981Z" fill="#DDD3CD" stroke="#DDD3CD" stroke-width="0.6"/>
<path d="M277.4 395.488H277.7V395.188V386.115V385.815H277.4H268.384H268.084V386.115V395.188V395.488H268.384H277.4ZM276.199 393.981H269.586V387.322H276.199V393.981Z" fill="#DDD3CD" stroke="#DDD3CD" stroke-width="0.6"/>
<path d="M287.919 395.488H288.219V395.188V386.115V385.815H287.919H278.903H278.603V386.115V395.188V395.488H278.903H287.919ZM286.718 393.981H280.105V387.322H286.718V393.981Z" fill="#DDD3CD" stroke="#DDD3CD" stroke-width="0.6"/>
<path d="M230.328 338.864L230.538 339.033L230.729 338.842L306.014 263.23L306.224 263.018L306.014 262.807L305.263 262.051L305.05 261.836L304.837 262.051L229.552 337.814L229.317 338.05L229.577 338.259L230.328 338.864Z" fill="#DDD3CD" stroke="#DDD3CD" stroke-width="0.6"/>
<path d="M505.81 463.69H506.11V463.39V462.483V462.183H505.81H392.804L336.994 389.863L336.983 389.848L336.97 389.835L336.819 389.684L336.731 389.595H336.606H295.883H295.583V389.895V390.802V391.102H295.883H336.008L391.818 463.422L391.83 463.437L391.843 463.45L391.993 463.602L392.081 463.69H392.206H505.81Z" fill="#DDD3CD" stroke="#DDD3CD" stroke-width="0.6"/>
<path d="M301.894 297.648C301.894 295.821 300.409 294.324 298.588 294.324C296.768 294.324 295.283 295.821 295.283 297.648C295.283 299.476 296.768 300.973 298.588 300.973C300.409 300.973 301.894 299.476 301.894 297.648Z" fill="#DDD3CD" stroke="#DDD3CD" stroke-width="0.6"/>
<path d="M299.489 389.895C299.489 388.068 298.004 386.571 296.184 386.571C294.363 386.571 292.879 388.068 292.879 389.895C292.879 391.722 294.363 393.22 296.184 393.22C298.004 393.22 299.489 391.722 299.489 389.895Z" fill="#DDD3CD" stroke="#DDD3CD" stroke-width="0.6"/>
<path d="M191.596 413.789C191.596 411.961 190.111 410.464 188.29 410.464C186.47 410.464 184.985 411.961 184.985 413.789C184.985 415.616 186.47 417.113 188.29 417.113C190.111 417.113 191.596 415.616 191.596 413.789Z" fill="#DDD3CD" stroke="#DDD3CD" stroke-width="0.6"/>
<path d="M230.215 439.043C230.215 437.216 228.73 435.718 226.91 435.718C225.089 435.718 223.604 437.216 223.604 439.043C223.604 440.866 225.082 442.36 226.896 442.367C228.746 442.529 230.215 441 230.215 439.043Z" fill="#DDD3CD" stroke="#DDD3CD" stroke-width="0.6"/>
<path d="M234.122 337.42C234.122 335.593 232.637 334.096 230.817 334.096C228.996 334.096 227.511 335.593 227.511 337.42C227.511 339.248 228.996 340.745 230.817 340.745C232.637 340.745 234.122 339.248 234.122 337.42Z" fill="#DDD3CD" stroke="#DDD3CD" stroke-width="0.6"/>
<path d="M298.589 261.96C298.589 266.047 301.718 269.367 305.801 269.367C309.876 269.367 313.164 266.055 313.164 261.96C313.164 258.011 309.871 254.703 305.801 254.703C301.881 254.703 298.589 257.86 298.589 261.96ZM300.09 261.96C300.09 258.797 302.663 256.211 305.801 256.211C308.94 256.211 311.512 258.797 311.512 261.96C311.512 265.123 308.94 267.709 305.801 267.709C302.663 267.709 300.09 265.123 300.09 261.96Z" fill="#DDD3CD" stroke="#DDD3CD" stroke-width="0.6"/>
<path d="M192.497 371.9C192.497 370.072 191.012 368.575 189.192 368.575C187.372 368.575 185.887 370.072 185.887 371.9C185.887 373.727 187.372 375.224 189.192 375.224C191.012 375.224 192.497 373.727 192.497 371.9Z" fill="#DDD3CD" stroke="#DDD3CD" stroke-width="0.6"/>
<path d="M282.96 419.233C282.96 418.01 281.926 416.967 280.706 416.967C279.487 416.967 278.453 418.01 278.453 419.233C278.453 420.455 279.487 421.499 280.706 421.499C282.091 421.499 282.96 420.44 282.96 419.233Z" fill="#DDD3CD" stroke="#DDD3CD" stroke-width="0.6"/>
<path d="M288.97 419.233C288.97 418.01 287.936 416.967 286.717 416.967C285.498 416.967 284.463 418.01 284.463 419.233C284.463 420.455 285.498 421.499 286.717 421.499C287.936 421.499 288.97 420.455 288.97 419.233Z" fill="#DDD3CD" stroke="#DDD3CD" stroke-width="0.6"/>
<path d="M294.831 419.233C294.831 418.01 293.797 416.967 292.577 416.967C291.358 416.967 290.324 418.01 290.324 419.233C290.324 420.455 291.358 421.499 292.577 421.499C293.962 421.499 294.831 420.44 294.831 419.233Z" fill="#DDD3CD" stroke="#DDD3CD" stroke-width="0.6"/>
<path d="M300.842 419.233C300.842 418.01 299.808 416.967 298.588 416.967C297.369 416.967 296.335 418.01 296.335 419.233C296.335 420.455 297.369 421.499 298.588 421.499C299.808 421.499 300.842 420.455 300.842 419.233Z" fill="#DDD3CD" stroke="#DDD3CD" stroke-width="0.6"/>
<path d="M306.702 419.233C306.702 418.01 305.668 416.967 304.449 416.967C303.229 416.967 302.195 418.01 302.195 419.233C302.195 420.455 303.229 421.499 304.449 421.499C305.833 421.499 306.702 420.44 306.702 419.233Z" fill="#DDD3CD" stroke="#DDD3CD" stroke-width="0.6"/>
</g>
<g opacity="0.4">
<path d="M140.054 324.413H140.354V324.113V284.492V284.365L140.263 284.277L67.012 213.263H133.142H133.853L133.356 212.754L86.2569 164.449V5.33228V5.03228H85.9569H85.0553H84.7553V5.33228V165.025V165.147L84.8407 165.235L130.325 211.756H64.0175H63.2785L63.8084 212.271L138.702 285.073V324.113V324.413H139.002H140.054Z" fill="#DDD3CD" stroke="#DDD3CD" stroke-width="0.6"/>
<path d="M180.927 324.413H181.227V324.113V219.919V219.797L181.142 219.71L127.28 164.449V5.33228V5.03228H126.98H126.079H125.779V5.33228V165.025V165.147L125.864 165.235L179.726 220.344V324.113V324.413H180.026H180.927Z" fill="#DDD3CD" stroke="#DDD3CD" stroke-width="0.6"/>
<path d="M206.322 29.0745V28.7745H206.022H205.121H204.821V29.0745V284.643V284.943H205.121H206.022H206.322V284.643V29.0745Z" fill="#DDD3CD" stroke="#DDD3CD" stroke-width="0.6"/>
<path d="M199.301 122.986L199.041 123.436H199.561H211.282H211.802L211.541 122.986L205.681 112.854L205.421 112.405L205.161 112.854L199.301 122.986Z" fill="#DDD3CD" stroke="#DDD3CD" stroke-width="0.6"/>
<path d="M199.301 108.922L199.041 109.372H199.561H211.282H211.802L211.541 108.922L205.681 98.79L205.421 98.341L205.161 98.79L199.301 108.922Z" fill="#DDD3CD" stroke="#DDD3CD" stroke-width="0.6"/>
<path d="M199.301 94.858L199.041 95.3082H199.561H211.282H211.802L211.541 94.858L205.681 84.726L205.421 84.277L205.161 84.726L199.301 94.858Z" fill="#DDD3CD" stroke="#DDD3CD" stroke-width="0.6"/>
<path d="M66.3124 177.578L66.052 178.028H66.5721H78.2931H78.8132L78.5528 177.578L72.6923 167.445L72.4326 166.997L72.1729 167.445L66.3124 177.578Z" fill="#DDD3CD" stroke="#DDD3CD" stroke-width="0.6"/>
<path d="M66.3124 163.514L66.052 163.964H66.5721H78.2931H78.8132L78.5528 163.514L72.6923 153.382L72.4326 152.933L72.1729 153.382L66.3124 163.514Z" fill="#DDD3CD" stroke="#DDD3CD" stroke-width="0.6"/>
<path d="M66.3124 149.45L66.052 149.9H66.5721H78.2931H78.8132L78.5528 149.45L72.6923 139.318L72.4326 138.869L72.1729 139.318L66.3124 149.45Z" fill="#DDD3CD" stroke="#DDD3CD" stroke-width="0.6"/>
<path d="M234.461 141.592L234.217 142.037H234.724H241.185H241.704L241.445 141.587L238.139 135.84L237.873 135.378L237.616 135.846L234.461 141.592Z" fill="#DDD3CD" stroke="#DDD3CD" stroke-width="0.6"/>
<path d="M234.462 133.725L234.21 134.173H234.724H241.185H241.711L241.444 133.72L238.138 128.125L237.873 127.677L237.618 128.13L234.462 133.725Z" fill="#DDD3CD" stroke="#DDD3CD" stroke-width="0.6"/>
<path d="M234.461 126.016L234.217 126.46H234.724H241.185H241.704L241.445 126.011L238.139 120.264L237.873 119.802L237.616 120.269L234.461 126.016Z" fill="#DDD3CD" stroke="#DDD3CD" stroke-width="0.6"/>
<path d="M142.759 59.6191H143.059V59.3191V50.2456V49.9456H142.759H133.743H133.443V50.2456V59.3191V59.6191H133.743H142.759ZM141.557 58.1117H134.944V51.453H141.557V58.1117Z" fill="#DDD3CD" stroke="#DDD3CD" stroke-width="0.6"/>
<path d="M142.759 49.0334H143.059V48.7334V39.6599V39.3599H142.759H133.743H133.443V39.6599V48.7334V49.0334H133.743H142.759ZM141.557 47.526H134.944V40.8673H141.557V47.526Z" fill="#DDD3CD" stroke="#DDD3CD" stroke-width="0.6"/>
<path d="M142.759 38.4477H143.059V38.1477V29.0742V28.7742H142.759H133.743H133.443V29.0742V38.1477V38.4477H133.743H142.759ZM141.557 36.7891H134.944V30.1303H141.557V36.7891Z" fill="#DDD3CD" stroke="#DDD3CD" stroke-width="0.6"/>
<path d="M142.759 27.7109H143.059V27.4109V18.3374V18.0374H142.759H133.743H133.443V18.3374V27.4109V27.7109H133.743H142.759ZM141.557 26.2035H134.944V19.5447H141.557V26.2035Z" fill="#DDD3CD" stroke="#DDD3CD" stroke-width="0.6"/>
<path d="M161.993 264.528H162.293V264.228V255.154V254.854H161.993H152.977H152.677V255.154V264.228V264.528H152.977H161.993ZM160.942 263.021H154.329V256.362H160.942V263.021Z" fill="#DDD3CD" stroke="#DDD3CD" stroke-width="0.6"/>
<path d="M161.993 253.942H162.293V253.642V244.569V244.269H161.993H152.977H152.677V244.569V253.642V253.942H152.977H161.993ZM160.942 252.435H154.329V245.776H160.942V252.435Z" fill="#DDD3CD" stroke="#DDD3CD" stroke-width="0.6"/>
<path d="M161.993 243.356H162.293V243.056V233.983V233.683H161.993H152.977H152.677V233.983V243.056V243.356H152.977H161.993ZM160.942 241.849H154.329V235.19H160.942V241.849Z" fill="#DDD3CD" stroke="#DDD3CD" stroke-width="0.6"/>
<path d="M161.993 232.771H162.293V232.471V223.397V223.097H161.993H152.977H152.677V223.397V232.471V232.771H152.977H161.993ZM160.942 231.112H154.329V224.453H160.942V231.112Z" fill="#DDD3CD" stroke="#DDD3CD" stroke-width="0.6"/>
<path d="M104.979 281.981L105.191 282.195L105.404 281.981L106.005 281.376L106.215 281.165L106.005 280.954L30.8707 205.19L30.6802 204.998L30.4695 205.168L29.7182 205.773L29.4588 205.982L29.6935 206.218L104.979 281.981Z" fill="#DDD3CD" stroke="#DDD3CD" stroke-width="0.6"/>
<path d="M157.635 215.682H157.935V215.382V175L229.776 118.702L230.05 118.565L230.215 118.481V118.297V4.12231V3.82231H229.915H228.863H228.563V4.12231V117.697L156.699 174.013L156.684 174.025L156.671 174.038L156.521 174.189L156.434 174.277V174.401V215.382V215.682H156.734H157.635Z" fill="#DDD3CD" stroke="#DDD3CD" stroke-width="0.6"/>
<path d="M85.3558 1.85649C83.5353 1.85649 82.0504 3.35362 82.0504 5.18098C82.0504 7.00833 83.5353 8.50546 85.3558 8.50546C87.1762 8.50546 88.6612 7.00833 88.6612 5.18098C88.6612 3.35362 87.1762 1.85649 85.3558 1.85649Z" fill="#DDD3CD" stroke="#DDD3CD" stroke-width="0.6"/>
<path d="M65.0694 209.185C63.249 209.185 61.764 210.682 61.764 212.509C61.764 214.337 63.249 215.834 65.0694 215.834C66.8854 215.834 68.3675 214.344 68.3748 212.523C68.5346 210.666 67.019 209.185 65.0694 209.185Z" fill="#DDD3CD" stroke="#DDD3CD" stroke-width="0.6"/>
<path d="M156.734 211.604C154.913 211.604 153.428 213.102 153.428 214.929C153.428 216.756 154.913 218.253 156.734 218.253C158.554 218.253 160.039 216.756 160.039 214.929C160.039 213.102 158.554 211.604 156.734 211.604Z" fill="#DDD3CD" stroke="#DDD3CD" stroke-width="0.6"/>
<path d="M180.476 320.335C178.656 320.335 177.171 321.832 177.171 323.659C177.171 325.486 178.656 326.983 180.476 326.983C182.292 326.983 183.774 325.494 183.782 323.673C183.942 321.815 182.426 320.335 180.476 320.335Z" fill="#DDD3CD" stroke="#DDD3CD" stroke-width="0.6"/>
<path d="M205.722 281.319C203.901 281.319 202.416 282.816 202.416 284.643C202.416 286.47 203.901 287.968 205.722 287.968C207.542 287.968 209.027 286.47 209.027 284.643C209.027 282.816 207.542 281.319 205.722 281.319Z" fill="#DDD3CD" stroke="#DDD3CD" stroke-width="0.6"/>
<path d="M229.314 114.821C227.494 114.821 226.009 116.318 226.009 118.145C226.009 119.973 227.494 121.47 229.314 121.47C231.13 121.47 232.612 119.98 232.619 118.159C232.779 116.302 231.264 114.821 229.314 114.821Z" fill="#DDD3CD" stroke="#DDD3CD" stroke-width="0.6"/>
<path d="M229.314 0.646777C227.494 0.646777 226.009 2.1439 226.009 3.97126C226.009 5.79862 227.494 7.29574 229.314 7.29574C231.134 7.29574 232.619 5.79862 232.619 3.97126C232.619 2.15394 231.295 0.646777 229.314 0.646777Z" fill="#DDD3CD" stroke="#DDD3CD" stroke-width="0.6"/>
<path d="M205.722 26.0525C203.901 26.0525 202.416 27.5497 202.416 29.377C202.416 31.2044 203.901 32.7015 205.722 32.7015C207.538 32.7015 209.02 31.2117 209.027 29.3905C209.187 27.5335 207.671 26.0525 205.722 26.0525Z" fill="#DDD3CD" stroke="#DDD3CD" stroke-width="0.6"/>
<path d="M126.229 1.10039C124.409 1.10039 122.924 2.59752 122.924 4.42487C122.924 6.25223 124.409 7.74936 126.229 7.74936C128.05 7.74936 129.534 6.25223 129.534 4.42487C129.534 2.59752 128.05 1.10039 126.229 1.10039Z" fill="#DDD3CD" stroke="#DDD3CD" stroke-width="0.6"/>
<path d="M104.59 277.387C102.77 277.387 101.285 278.884 101.285 280.711C101.285 282.539 102.77 284.036 104.59 284.036C106.411 284.036 107.896 282.539 107.896 280.711C107.896 278.884 106.411 277.387 104.59 277.387Z" fill="#DDD3CD" stroke="#DDD3CD" stroke-width="0.6"/>
<path d="M22.3934 205.402C22.3934 209.342 25.5271 212.658 29.6058 212.658C33.6761 212.658 36.9685 209.35 36.9685 205.402C36.9685 201.306 33.6803 197.994 29.6058 197.994C25.6774 197.994 22.3934 201.31 22.3934 205.402ZM23.895 205.251C23.895 202.087 26.4673 199.502 29.6058 199.502C32.7442 199.502 35.3166 202.087 35.3166 205.251C35.3166 208.414 32.7442 210.999 29.6058 210.999C26.4673 210.999 23.895 208.414 23.895 205.251Z" fill="#DDD3CD" stroke="#DDD3CD" stroke-width="0.6"/>
<path d="M134.794 166.095L134.794 166.095V166.083C134.794 161.988 131.506 158.676 127.431 158.676C123.503 158.676 120.219 161.992 120.219 166.083C120.219 170.171 123.348 173.491 127.431 173.491C131.516 173.491 134.638 170.171 134.794 166.095ZM121.72 166.083C121.72 162.92 124.293 160.334 127.431 160.334C130.57 160.334 133.142 162.92 133.142 166.083C133.142 169.246 130.57 171.832 127.431 171.832C124.293 171.832 121.72 169.246 121.72 166.083Z" fill="#DDD3CD" stroke="#DDD3CD" stroke-width="0.6"/>
<path d="M138.852 319.427C137.031 319.427 135.546 320.924 135.546 322.752C135.546 324.579 137.031 326.076 138.852 326.076C140.672 326.076 142.157 324.579 142.157 322.752C142.157 320.924 140.672 319.427 138.852 319.427Z" fill="#DDD3CD" stroke="#DDD3CD" stroke-width="0.6"/>
<path d="M137.349 92.8936C136.13 92.8936 135.096 93.9371 135.096 95.1595C135.096 96.382 136.13 97.4254 137.349 97.4254C138.568 97.4254 139.603 96.382 139.603 95.1595C139.603 93.9371 138.568 92.8936 137.349 92.8936Z" fill="#DDD3CD" stroke="#DDD3CD" stroke-width="0.6"/>
<path d="M137.349 86.9957C136.13 86.9957 135.096 88.0391 135.096 89.2616C135.096 90.484 136.13 91.5275 137.349 91.5275C138.568 91.5275 139.603 90.484 139.603 89.2616C139.603 88.0391 138.568 86.9957 137.349 86.9957Z" fill="#DDD3CD" stroke="#DDD3CD" stroke-width="0.6"/>
<path d="M137.349 80.9468C136.13 80.9468 135.096 81.9903 135.096 83.2127C135.096 84.4352 136.13 85.4787 137.349 85.4787C138.568 85.4787 139.603 84.4352 139.603 83.2127C139.603 81.9903 138.568 80.9468 137.349 80.9468Z" fill="#DDD3CD" stroke="#DDD3CD" stroke-width="0.6"/>
<path d="M137.349 75.0491C136.13 75.0491 135.096 76.0926 135.096 77.315C135.096 78.5375 136.13 79.5809 137.349 79.5809C138.568 79.5809 139.603 78.5375 139.603 77.315C139.603 76.0926 138.568 75.0491 137.349 75.0491Z" fill="#DDD3CD" stroke="#DDD3CD" stroke-width="0.6"/>
<path d="M137.349 69C136.13 69 135.096 70.0435 135.096 71.266C135.096 72.4884 136.13 73.5319 137.349 73.5319C138.568 73.5319 139.603 72.4884 139.603 71.266C139.603 70.0435 138.568 69 137.349 69Z" fill="#DDD3CD" stroke="#DDD3CD" stroke-width="0.6"/>
<path d="M185.886 228.239C184.667 228.239 183.633 229.283 183.633 230.505C183.633 231.727 184.667 232.771 185.886 232.771C187.105 232.771 188.14 231.727 188.14 230.505C188.14 229.283 187.105 228.239 185.886 228.239Z" fill="#DDD3CD" stroke="#DDD3CD" stroke-width="0.6"/>
<path d="M185.886 222.341C184.667 222.341 183.633 223.385 183.633 224.607C183.633 225.83 184.667 226.873 185.886 226.873C187.105 226.873 188.14 225.83 188.14 224.607C188.14 223.218 187.09 222.341 185.886 222.341Z" fill="#DDD3CD" stroke="#DDD3CD" stroke-width="0.6"/>
<path d="M185.886 216.292C184.667 216.292 183.633 217.336 183.633 218.558C183.633 219.781 184.667 220.824 185.886 220.824C187.105 220.824 188.14 219.781 188.14 218.558C188.14 217.336 187.105 216.292 185.886 216.292Z" fill="#DDD3CD" stroke="#DDD3CD" stroke-width="0.6"/>
<path d="M185.886 210.394C184.667 210.394 183.633 211.438 183.633 212.66C183.633 213.883 184.667 214.926 185.886 214.926C187.105 214.926 188.14 213.883 188.14 212.66C188.14 211.272 187.09 210.394 185.886 210.394Z" fill="#DDD3CD" stroke="#DDD3CD" stroke-width="0.6"/>
<path d="M185.886 204.346C184.667 204.346 183.633 205.389 183.633 206.611C183.633 207.834 184.667 208.877 185.886 208.877C187.105 208.877 188.14 207.834 188.14 206.611C188.14 205.389 187.105 204.346 185.886 204.346Z" fill="#DDD3CD" stroke="#DDD3CD" stroke-width="0.6"/>
<path d="M235.475 58.5657C234.256 58.5657 233.222 59.6092 233.222 60.8316C233.222 62.0541 234.256 63.0976 235.475 63.0976C236.694 63.0976 237.729 62.0541 237.729 60.8316C237.729 59.6092 236.694 58.5657 235.475 58.5657Z" fill="#DDD3CD" stroke="#DDD3CD" stroke-width="0.6"/>
<path d="M235.475 52.6678C234.256 52.6678 233.222 53.7112 233.222 54.9337C233.222 56.1561 234.256 57.1996 235.475 57.1996C236.694 57.1996 237.729 56.1561 237.729 54.9337C237.729 53.5449 236.679 52.6678 235.475 52.6678Z" fill="#DDD3CD" stroke="#DDD3CD" stroke-width="0.6"/>
<path d="M235.475 46.6189C234.256 46.6189 233.222 47.6624 233.222 48.8849C233.222 50.1073 234.256 51.1508 235.475 51.1508C236.694 51.1508 237.729 50.1073 237.729 48.8849C237.729 47.6624 236.694 46.6189 235.475 46.6189Z" fill="#DDD3CD" stroke="#DDD3CD" stroke-width="0.6"/>
<path d="M235.475 40.5699C234.256 40.5699 233.222 41.6133 233.222 42.8358C233.222 44.0582 234.256 45.1017 235.475 45.1017C236.694 45.1017 237.729 44.0583 237.729 42.8358C237.729 41.6133 236.694 40.5699 235.475 40.5699Z" fill="#DDD3CD" stroke="#DDD3CD" stroke-width="0.6"/>
<path d="M235.475 34.6722C234.256 34.6722 233.222 35.7156 233.222 36.9381C233.222 38.1605 234.256 39.204 235.475 39.204C236.694 39.204 237.729 38.1605 237.729 36.9381C237.729 35.7156 236.694 34.6722 235.475 34.6722Z" fill="#DDD3CD" stroke="#DDD3CD" stroke-width="0.6"/>
</g>
<g opacity="0.6">
<path d="M330.617 571.367L330.606 571.367H330.596C328.324 571.367 326.539 573.166 326.539 575.447C326.539 577.728 328.324 579.528 330.596 579.528C332.867 579.528 334.652 577.728 334.652 575.447C334.652 573.306 332.86 571.529 330.617 571.367Z" fill="#DDD3CD" stroke="#DDD3CD" stroke-width="0.6"/>
<path d="M315.87 537.036C315.87 570.016 342.45 596.767 375.226 596.767C408.002 596.767 434.582 570.016 434.582 537.036C434.582 504.057 408.002 477.305 375.226 477.305C342.45 477.305 315.87 504.057 315.87 537.036ZM317.522 537.036C317.522 504.99 343.386 478.964 375.226 478.964C407.066 478.964 432.93 504.99 432.93 537.036C432.93 569.083 407.066 595.109 375.226 595.109C343.386 595.109 317.522 569.083 317.522 537.036Z" fill="#DDD3CD" stroke="#DDD3CD" stroke-width="0.6"/>
</g>
</svg>
