<svg width="300" height="687" viewBox="0 0 300 687" fill="none" xmlns="http://www.w3.org/2000/svg">
<g opacity="0.4">
<path d="M5.66159 173.194L5.66159 173.311L5.58243 173.398L-51.0537 234.997L-51.0537 460.957L-51.0537 461.257L-51.3537 461.257L-52.3015 461.257L-52.6015 461.257L-52.6015 460.957L-52.6015 234.563L-52.6015 234.446L-52.5224 234.359L4.11369 172.76L4.1137 100.538L4.1137 100.238L4.4137 100.238L5.36159 100.238L5.66159 100.238L5.66159 100.538L5.66159 173.194Z" fill="#DDD3CD" stroke="#DDD3CD" stroke-width="0.6"/>
<path d="M-16.71 295.494L-16.9214 295.281L-16.71 295.068L62.3796 215.476L62.5911 215.263L62.8025 215.476L63.4728 216.151L63.6842 216.363L63.4728 216.576L-15.6168 296.168L-15.8283 296.381L-16.0397 296.168L-16.71 295.494Z" fill="#DDD3CD" stroke="#DDD3CD" stroke-width="0.6"/>
<path d="M5.04536 97.0589C6.95063 97.0589 8.50499 98.6259 8.50499 100.539C8.50499 102.451 6.95063 104.018 5.04536 104.018C3.1401 104.018 1.58574 102.451 1.58574 100.539C1.58574 98.6259 3.1401 97.0589 5.04536 97.0589Z" fill="#DDD3CD" stroke="#DDD3CD" stroke-width="0.6"/>
<path d="M5.04536 170.351C6.95063 170.351 8.50499 171.918 8.50499 173.83C8.50499 175.743 6.95063 177.31 5.04536 177.31C3.1401 177.31 1.58574 175.743 1.58574 173.83C1.58574 171.918 3.1401 170.351 5.04536 170.351Z" fill="#DDD3CD" stroke="#DDD3CD" stroke-width="0.6"/>
<path d="M63.6682 223.415L63.6682 223.416L63.6566 223.416C59.3816 223.416 55.9314 219.941 55.9314 215.643C55.9314 211.501 59.3858 208.03 63.6566 208.03C67.7693 208.03 71.2237 211.342 71.2237 215.643C71.2237 219.78 67.936 223.25 63.6682 223.415ZM63.6566 209.584C60.3485 209.584 57.6373 212.31 57.6373 215.643C57.6373 218.977 60.3485 221.703 63.6566 221.703C66.9647 221.703 69.6758 218.977 69.6758 215.643C69.6758 212.31 66.9647 209.584 63.6566 209.584Z" fill="#DDD3CD" stroke="#DDD3CD" stroke-width="0.6"/>
</g>
<g opacity="0.6">
<path d="M213.407 435.519L213.407 435.819L213.107 435.819L-0.343187 435.819L-51.2811 496.92L-51.8115 497.557L-51.8115 496.728L-51.8115 410.83L-142.134 505.362L-142.17 505.399L-142.216 505.423L-142.532 505.581L-142.595 505.613L-142.667 505.613L-193.063 505.613L-193.363 505.613L-193.363 505.313L-193.363 504.042L-193.363 503.742L-193.063 503.742L-143.269 503.742L-51.5703 407.966L-51.5604 407.956L-51.5495 407.947L-50.4436 406.993L-49.9477 406.565L-49.9477 407.22L-49.9477 492.56L-1.50412 434.373L-1.49565 434.363L-1.48633 434.354L-1.32834 434.195L-1.24037 434.106L-1.11557 434.106L213.107 434.106L213.407 434.106L213.407 434.406L213.407 435.519Z" fill="#DDD3CD" stroke="#DDD3CD" stroke-width="0.6"/>
<path d="M213.407 488.461L213.407 488.761L213.107 488.761L10.3822 488.761L-59.9897 558.31L-60.0773 558.396L-60.2005 558.396L-222.289 558.396L-222.589 558.396L-222.589 558.096L-222.589 556.983L-222.589 556.683L-222.289 556.683L-60.7979 556.683L9.57396 486.976L9.66165 486.889L9.78508 486.889L213.107 486.889L213.407 486.889L213.407 487.189L213.407 488.461Z" fill="#DDD3CD" stroke="#DDD3CD" stroke-width="0.6"/>
<path d="M-142.825 590.988L-143.125 590.988L-143.125 590.688L-143.125 589.416L-143.125 589.116L-142.825 589.116L262.871 589.116L263.171 589.116L263.171 589.416L263.171 590.688L263.171 590.988L262.871 590.988L-142.825 590.988Z" fill="#DDD3CD" stroke="#DDD3CD" stroke-width="0.6"/>
<path d="M62.7247 582.262L62.7247 581.743L63.1746 582.002L76.129 589.474L76.5748 589.732L76.1313 589.993L63.1769 597.624L62.7247 597.89L62.7247 597.366L62.7247 582.262Z" fill="#DDD3CD" stroke="#DDD3CD" stroke-width="0.6"/>
<path d="M80.5765 582.262L80.5765 581.746L81.025 582.001L94.1374 589.474L94.59 589.732L94.1398 589.994L81.0274 597.625L80.5765 597.887L80.5765 597.366L80.5765 582.262Z" fill="#DDD3CD" stroke="#DDD3CD" stroke-width="0.6"/>
<path d="M98.5864 582.262L98.5864 581.743L99.0362 582.002L111.991 589.474L112.437 589.732L111.993 589.993L99.0386 597.624L98.5864 597.89L98.5864 597.366L98.5864 582.262Z" fill="#DDD3CD" stroke="#DDD3CD" stroke-width="0.6"/>
<path d="M-6.78694 410.558L-6.78694 410.039L-6.33704 410.299L6.61738 417.771L7.06317 418.028L6.61975 418.289L-6.33467 425.921L-6.78694 426.187L-6.78694 425.662L-6.78694 410.558Z" fill="#DDD3CD" stroke="#DDD3CD" stroke-width="0.6"/>
<path d="M11.0647 410.559L11.0647 410.042L11.5133 410.298L24.6257 417.77L25.0783 418.028L24.6281 418.29L11.5156 425.921L11.0647 426.184L11.0647 425.662L11.0647 410.559Z" fill="#DDD3CD" stroke="#DDD3CD" stroke-width="0.6"/>
<path d="M28.9167 410.559L28.9167 410.042L29.3652 410.298L42.4777 417.77L42.9303 418.028L42.48 418.29L29.3676 425.921L28.9167 426.184L28.9167 425.662L28.9167 410.559Z" fill="#DDD3CD" stroke="#DDD3CD" stroke-width="0.6"/>
<path d="M39.1855 627.414L39.1855 626.882L39.6405 627.157L46.7497 631.45L47.1831 631.711L46.7454 631.966L39.6363 636.099L39.1855 636.361L39.1855 635.84L39.1855 627.414Z" fill="#DDD3CD" stroke="#DDD3CD" stroke-width="0.6"/>
<path d="M49.1385 627.414L49.1385 626.882L49.5935 627.157L56.7027 631.45L57.1361 631.711L56.6984 631.966L49.5893 636.099L49.1385 636.361L49.1385 635.84L49.1385 627.414Z" fill="#DDD3CD" stroke="#DDD3CD" stroke-width="0.6"/>
<path d="M58.9332 627.414L58.9332 626.888L59.3857 627.156L66.6529 631.448L67.0985 631.711L66.6486 631.967L59.3815 636.101L58.9332 636.356L58.9332 635.84L58.9332 627.414Z" fill="#DDD3CD" stroke="#DDD3CD" stroke-width="0.6"/>
<path d="M156.217 508.811L156.217 509.111L155.917 509.111L144.385 509.111L144.085 509.111L144.085 508.811L144.085 497.205L144.085 496.905L144.385 496.905L155.917 496.905L156.217 496.905L156.217 497.205L156.217 508.811ZM154.512 507.398L154.512 498.777L145.949 498.777L145.949 507.398L154.512 507.398Z" fill="#DDD3CD" stroke="#DDD3CD" stroke-width="0.6"/>
<path d="M169.804 508.811L169.804 509.111L169.504 509.111L157.971 509.111L157.671 509.111L157.671 508.811L157.671 497.205L157.671 496.905L157.971 496.905L169.504 496.905L169.804 496.905L169.804 497.205L169.804 508.811ZM167.94 507.398L167.94 498.777L159.377 498.777L159.377 507.398L167.94 507.398Z" fill="#DDD3CD" stroke="#DDD3CD" stroke-width="0.6"/>
<path d="M183.232 508.811L183.232 509.111L182.932 509.111L171.4 509.111L171.1 509.111L171.1 508.811L171.1 497.205L171.1 496.905L171.4 496.905L182.932 496.905L183.232 496.905L183.232 497.205L183.232 508.811ZM181.527 507.398L181.527 498.777L172.964 498.777L172.964 507.398L181.527 507.398Z" fill="#DDD3CD" stroke="#DDD3CD" stroke-width="0.6"/>
<path d="M196.819 508.811L196.819 509.111L196.519 509.111L184.986 509.111L184.686 509.111L184.686 508.811L184.686 497.205L184.686 496.905L184.986 496.905L196.519 496.905L196.819 496.905L196.819 497.205L196.819 508.811ZM195.113 507.398L195.113 498.777L186.55 498.777L186.55 507.398L195.113 507.398Z" fill="#DDD3CD" stroke="#DDD3CD" stroke-width="0.6"/>
<path d="M295.083 621.213L295.083 621.513L294.783 621.513L86.8798 621.513L86.752 621.513L86.6635 621.421L-2.82321 528.348L-54.5133 528.348L-54.8133 528.348L-54.8133 528.048L-54.8133 526.935L-54.8133 526.635L-54.5133 526.635L-2.22155 526.635L-2.09382 526.635L-2.00529 526.727L87.4815 619.8L294.783 619.8L295.083 619.8L295.083 620.1L295.083 621.213Z" fill="#DDD3CD" stroke="#DDD3CD" stroke-width="0.6"/>
<path d="M213.286 438.998L213.275 438.999L213.265 438.999C210.886 438.999 209.015 437.114 209.015 434.724C209.015 432.335 210.886 430.45 213.265 430.45C215.644 430.45 217.514 432.335 217.514 434.724C217.514 436.966 215.637 438.829 213.286 438.998Z" fill="#DDD3CD" stroke="#DDD3CD" stroke-width="0.6"/>
<path d="M87.0378 616.303C89.417 616.303 91.2873 618.188 91.2873 620.577C91.2873 622.967 89.417 624.852 87.0378 624.852C84.6586 624.852 82.7883 622.967 82.7883 620.577C82.7883 618.188 84.6586 616.303 87.0378 616.303Z" fill="#DDD3CD" stroke="#DDD3CD" stroke-width="0.6"/>
<path d="M294.783 616.303C297.162 616.303 299.033 618.188 299.033 620.577C299.033 622.967 297.162 624.852 294.783 624.852C292.404 624.852 290.533 622.967 290.533 620.577C290.533 618.188 292.404 616.303 294.783 616.303Z" fill="#DDD3CD" stroke="#DDD3CD" stroke-width="0.6"/>
<path d="M262.418 594.485L262.408 594.486L262.397 594.486C260.018 594.486 258.147 592.601 258.147 590.211C258.147 587.822 260.018 585.937 262.397 585.937C264.776 585.937 266.646 587.822 266.646 590.211C266.646 592.453 264.769 594.316 262.418 594.485Z" fill="#DDD3CD" stroke="#DDD3CD" stroke-width="0.6"/>
<path d="M214.234 491.781L214.223 491.782L214.212 491.782C211.833 491.782 209.963 489.897 209.963 487.507C209.963 485.118 211.833 483.233 214.212 483.233C216.592 483.233 218.462 485.118 218.462 487.507C218.462 489.749 216.585 491.612 214.234 491.781Z" fill="#DDD3CD" stroke="#DDD3CD" stroke-width="0.6"/>
<path d="M8.21487 498.459L8.21488 498.459L8.20514 498.459C2.97887 498.459 -1.09981 494.186 -1.09981 489.097C-1.0998 483.842 3.14368 479.735 8.20514 479.735C13.4314 479.735 17.5101 484.008 17.5101 489.097C17.5101 494.198 13.2633 498.295 8.21487 498.459ZM8.20514 481.607C4.10712 481.607 0.764073 484.968 0.764073 489.097C0.764073 493.226 4.10712 496.587 8.20514 496.587C12.3032 496.587 15.6462 493.226 15.6462 489.097C15.6462 484.968 12.3032 481.607 8.20514 481.607Z" fill="#DDD3CD" stroke="#DDD3CD" stroke-width="0.6"/>
<path d="M98.5706 498.972C100.16 498.972 101.398 500.221 101.398 501.816C101.398 503.411 100.16 504.66 98.5706 504.66C96.9813 504.66 95.7428 503.411 95.7428 501.816C95.7428 500.221 96.9812 498.972 98.5706 498.972Z" fill="#DDD3CD" stroke="#DDD3CD" stroke-width="0.6"/>
<path d="M106.312 498.972C107.901 498.972 109.139 500.221 109.139 501.816C109.139 503.411 107.901 504.66 106.312 504.66C104.722 504.66 103.484 503.411 103.484 501.816C103.484 500.221 104.722 498.972 106.312 498.972Z" fill="#DDD3CD" stroke="#DDD3CD" stroke-width="0.6"/>
<path d="M113.895 498.972C115.484 498.972 116.722 500.221 116.722 501.816C116.722 503.411 115.484 504.66 113.895 504.66C112.305 504.66 111.067 503.411 111.067 501.816C111.067 500.221 112.305 498.972 113.895 498.972Z" fill="#DDD3CD" stroke="#DDD3CD" stroke-width="0.6"/>
<path d="M121.478 498.972C123.067 498.972 124.305 500.221 124.305 501.816C124.305 503.411 123.067 504.66 121.478 504.66C119.888 504.66 118.65 503.411 118.65 501.816C118.65 500.221 119.888 498.972 121.478 498.972Z" fill="#DDD3CD" stroke="#DDD3CD" stroke-width="0.6"/>
<path d="M129.061 498.972C130.65 498.972 131.889 500.221 131.889 501.816C131.889 503.411 130.65 504.66 129.061 504.66C127.472 504.66 126.233 503.411 126.233 501.816C126.233 500.221 127.472 498.972 129.061 498.972Z" fill="#DDD3CD" stroke="#DDD3CD" stroke-width="0.6"/>
<path d="M222.461 631.368L222.444 631.37L222.427 631.37C220.838 631.37 219.6 630.121 219.6 628.527C219.6 626.932 220.838 625.683 222.427 625.683C224.017 625.683 225.255 626.932 225.255 628.527C225.255 629.979 224.006 631.196 222.461 631.368Z" fill="#DDD3CD" stroke="#DDD3CD" stroke-width="0.6"/>
<path d="M230.044 631.368L230.028 631.37L230.011 631.37C228.421 631.37 227.183 630.121 227.183 628.527C227.183 626.932 228.421 625.683 230.011 625.683C231.6 625.683 232.838 626.932 232.838 628.527C232.838 629.978 231.589 631.196 230.044 631.368Z" fill="#DDD3CD" stroke="#DDD3CD" stroke-width="0.6"/>
<path d="M237.627 631.368L237.61 631.37L237.594 631.37C236.004 631.37 234.766 630.121 234.766 628.527C234.766 626.932 236.004 625.683 237.594 625.683C239.183 625.683 240.421 626.932 240.421 628.527C240.421 629.978 239.172 631.196 237.627 631.368Z" fill="#DDD3CD" stroke="#DDD3CD" stroke-width="0.6"/>
<path d="M245.21 631.368L245.193 631.37L245.177 631.37C243.587 631.37 242.349 630.121 242.349 628.527C242.349 626.932 243.587 625.683 245.177 625.683C246.766 625.683 248.004 626.932 248.004 628.527C248.004 629.978 246.755 631.196 245.21 631.368Z" fill="#DDD3CD" stroke="#DDD3CD" stroke-width="0.6"/>
<path d="M252.951 631.368L252.935 631.37L252.918 631.37C251.329 631.37 250.09 630.121 250.09 628.527C250.09 626.932 251.329 625.683 252.918 625.683C254.507 625.683 255.746 626.932 255.746 628.527C255.746 629.978 254.496 631.196 252.951 631.368Z" fill="#DDD3CD" stroke="#DDD3CD" stroke-width="0.6"/>
<g opacity="0.4">
<path d="M180.073 380.351L180.073 380.651L179.773 380.651L-45.0345 380.651L-45.1525 380.651L-45.239 380.571L-106.607 323.417L-178.213 323.417L-178.513 323.417L-178.513 323.117L-178.513 322.163L-178.513 321.863L-178.213 321.863L-106.015 321.863L-105.897 321.863L-105.81 321.944L-44.6002 379.097L179.773 379.097L180.073 379.097L180.073 379.397L180.073 380.351Z" fill="#DDD3CD" stroke="#DDD3CD" stroke-width="0.6"/>
<path d="M60.4807 423.754L60.4807 424.054L60.1808 424.054L-48.6682 424.054L-48.7916 424.054L-48.8793 423.968L-106.613 366.82L-272.685 366.82L-272.985 366.82L-272.985 366.52L-272.985 365.566L-272.985 365.266L-272.685 365.266L-106.015 365.266L-105.892 365.266L-105.804 365.353L-48.2289 422.341L60.1808 422.341L60.4807 422.341L60.4807 422.641L60.4807 423.754Z" fill="#DDD3CD" stroke="#DDD3CD" stroke-width="0.6"/>
<path d="M-207.597 450.605L-207.897 450.605L-207.897 450.305L-207.897 449.351L-207.897 449.051L-207.597 449.051L19.1059 449.051L19.4059 449.051L19.4059 449.351L19.4059 450.305L19.4059 450.605L19.1059 450.605L-207.597 450.605Z" fill="#DDD3CD" stroke="#DDD3CD" stroke-width="0.6"/>
<path d="M-63.9483 264.817L-64.1598 264.604L-63.9483 264.391L-63.2781 263.717L-63.0667 263.504L-62.8552 263.717L16.2344 343.309L16.4459 343.522L16.2344 343.735L15.5642 344.409L15.3527 344.622L15.1413 344.409L-63.9483 264.817Z" fill="#DDD3CD" stroke="#DDD3CD" stroke-width="0.6"/>
<path d="M56.2474 423.277C56.2474 421.365 57.8017 419.798 59.707 419.798C61.6123 419.798 63.1666 421.365 63.1666 423.277C63.1666 425.19 61.6123 426.757 59.707 426.757C57.8017 426.757 56.2474 425.19 56.2474 423.277Z" fill="#DDD3CD" stroke="#DDD3CD" stroke-width="0.6"/>
<path d="M15.6463 449.828C15.6463 447.915 17.2006 446.348 19.1059 446.348C21.0112 446.348 22.5655 447.915 22.5655 449.828C22.5655 451.741 21.0112 453.308 19.1059 453.308C17.2006 453.308 15.6463 451.741 15.6463 449.828Z" fill="#DDD3CD" stroke="#DDD3CD" stroke-width="0.6"/>
<path d="M11.3805 342.831C11.3805 340.918 12.9349 339.351 14.8402 339.351C16.7454 339.351 18.2998 340.918 18.2998 342.831C18.2998 344.744 16.7454 346.311 14.8402 346.311C12.9349 346.311 11.3805 344.744 11.3805 342.831Z" fill="#DDD3CD" stroke="#DDD3CD" stroke-width="0.6"/>
<path d="M181.81 379.08C181.81 381 180.263 382.559 178.351 382.559C176.438 382.559 174.891 381 174.891 379.08C174.891 377.16 176.438 375.6 178.351 375.6C180.263 375.6 181.81 377.16 181.81 379.08Z" fill="#DDD3CD" stroke="#DDD3CD" stroke-width="0.6"/>
</g>
</g>
</svg>
