<svg width="469" height="592" viewBox="0 0 469 592" fill="none" xmlns="http://www.w3.org/2000/svg">
<path d="M527.599 335.702L528.446 334.849L527.244 334.849L447.167 334.849L501.72 288.852L501.799 288.785L501.845 288.692L501.996 288.39L502.048 288.285L502.048 288.167L502.048 83.1072L502.048 82.6072L501.548 82.6072L500.496 82.6072L499.996 82.6072L499.996 83.1072L499.996 287.481L442.32 336.025L441.272 336.908L442.642 336.908L523.305 336.908L434.33 423.154L434.33 423.154L434.323 423.16L434.173 423.312L434.028 423.458L434.028 423.664L434.028 471.905L434.028 472.405L434.528 472.405L435.73 472.405L436.23 472.405L436.23 471.905L436.23 424.329L526.69 336.615L526.697 336.609L527.599 335.702Z" fill="#DDD3CD" stroke="#DDD3CD"/>
<path d="M452.158 83.1072L452.158 82.6072L451.658 82.6072L450.456 82.6072L449.956 82.6072L449.956 83.1072L449.956 277.227L384.28 344.527L384.138 344.673L384.138 344.876L384.138 471.905L384.138 472.405L384.638 472.405L385.69 472.405L386.19 472.405L386.19 471.905L386.19 345.534L452.016 278.234L452.158 278.088L452.158 277.884L452.158 83.1072Z" fill="#DDD3CD" stroke="#DDD3CD"/>
<path d="M353.983 35.1229L353.483 35.1229L353.483 35.6229L353.483 423.966L353.483 424.466L353.983 424.466L355.185 424.466L355.685 424.466L355.685 423.966L355.685 35.6229L355.685 35.1229L355.185 35.1229L353.983 35.1229Z" fill="#DDD3CD" stroke="#DDD3CD"/>
<path d="M361.797 227.421L362.652 227.421L362.233 226.676L355.17 214.125L354.739 213.358L354.301 214.121L347.088 226.672L346.658 227.421L347.522 227.421L361.797 227.421Z" fill="#DDD3CD" stroke="#DDD3CD"/>
<path d="M361.797 210.182L362.657 210.182L362.232 209.434L355.169 197.034L354.739 196.279L354.302 197.03L347.089 209.43L346.652 210.182L347.522 210.182L361.797 210.182Z" fill="#DDD3CD" stroke="#DDD3CD"/>
<path d="M361.797 193.094L362.657 193.094L362.232 192.346L355.169 179.946L354.739 179.191L354.302 179.942L347.089 192.342L346.652 193.094L347.522 193.094L361.797 193.094Z" fill="#DDD3CD" stroke="#DDD3CD"/>
<path d="M319.121 249.954L319.991 249.954L319.553 249.202L315.495 242.246L315.055 241.491L314.627 242.253L310.72 249.209L310.302 249.954L311.156 249.954L319.121 249.954Z" fill="#DDD3CD" stroke="#DDD3CD"/>
<path d="M319.121 240.427L319.991 240.427L319.553 239.675L315.495 232.718L315.055 231.964L314.627 232.726L310.72 239.682L310.302 240.427L311.156 240.427L319.121 240.427Z" fill="#DDD3CD" stroke="#DDD3CD"/>
<path d="M319.121 230.9L319.991 230.9L319.553 230.148L315.495 223.191L315.055 222.437L314.627 223.198L310.72 230.155L310.302 230.9L311.156 230.9L319.121 230.9Z" fill="#DDD3CD" stroke="#DDD3CD"/>
<path d="M442.691 138.002L442.691 137.502L442.191 137.502L431.222 137.502L430.722 137.502L430.722 138.002L430.722 149.041L430.722 149.541L431.222 149.541L442.191 149.541L442.691 149.541L442.691 149.041L442.691 138.002ZM440.489 139.56L440.489 147.331L432.774 147.331L432.774 139.56L440.489 139.56Z" fill="#DDD3CD" stroke="#DDD3CD"/>
<path d="M442.692 124.996L442.692 124.496L442.192 124.496L431.222 124.496L430.722 124.496L430.722 124.996L430.722 136.036L430.722 136.536L431.222 136.536L442.192 136.536L442.692 136.536L442.692 136.036L442.692 124.996ZM440.489 126.555L440.489 134.326L432.774 134.326L432.774 126.555L440.489 126.555Z" fill="#DDD3CD" stroke="#DDD3CD"/>
<path d="M442.692 111.991L442.692 111.491L442.192 111.491L431.222 111.491L430.722 111.491L430.722 111.991L430.722 123.03L430.722 123.53L431.222 123.53L442.192 123.53L442.692 123.53L442.692 123.03L442.692 111.991ZM440.489 113.701L440.489 121.472L432.774 121.472L432.774 113.701L440.489 113.701Z" fill="#DDD3CD" stroke="#DDD3CD"/>
<path d="M442.692 98.9858L442.692 98.4858L442.192 98.4858L431.222 98.4858L430.722 98.4858L430.722 98.9858L430.722 110.025L430.722 110.525L431.222 110.525L442.192 110.525L442.692 110.525L442.692 110.025L442.692 98.9858ZM440.489 100.696L440.489 108.467L432.774 108.467L432.774 100.696L440.489 100.696Z" fill="#DDD3CD" stroke="#DDD3CD"/>
<path d="M419.099 387.975L419.099 387.475L418.599 387.475L407.63 387.475L407.13 387.475L407.13 387.975L407.13 399.014L407.13 399.514L407.63 399.514L418.599 399.514L419.099 399.514L419.099 399.014L419.099 387.975ZM417.047 389.534L417.047 397.305L409.332 397.305L409.332 389.534L417.047 389.534Z" fill="#DDD3CD" stroke="#DDD3CD"/>
<path d="M419.099 374.97L419.099 374.47L418.599 374.47L407.63 374.47L407.13 374.47L407.13 374.97L407.13 386.009L407.13 386.509L407.63 386.509L418.599 386.509L419.099 386.509L419.099 386.009L419.099 374.97ZM417.047 376.528L417.047 384.299L409.332 384.299L409.332 376.528L417.047 376.528Z" fill="#DDD3CD" stroke="#DDD3CD"/>
<path d="M419.099 361.965L419.099 361.465L418.599 361.465L407.63 361.465L407.13 361.465L407.13 361.965L407.13 373.004L407.13 373.504L407.63 373.504L418.599 373.504L419.099 373.504L419.099 373.004L419.099 361.965ZM417.047 363.674L417.047 371.445L409.332 371.445L409.332 363.674L417.047 363.674Z" fill="#DDD3CD" stroke="#DDD3CD"/>
<path d="M419.099 349.11L419.099 348.61L418.599 348.61L407.63 348.61L407.13 348.61L407.13 349.11L407.13 360.15L407.13 360.65L407.63 360.65L418.599 360.65L419.099 360.65L419.099 360.15L419.099 349.11ZM417.047 350.669L417.047 358.44L409.332 358.44L409.332 350.669L417.047 350.669Z" fill="#DDD3CD" stroke="#DDD3CD"/>
<path d="M414.591 289.377L414.591 289.166L414.44 289.019L326.533 203.422L326.533 5.07562L326.533 4.57562L326.033 4.57562L324.981 4.57562L324.481 4.57562L324.481 5.07562L324.481 204.087L324.481 204.298L324.632 204.445L412.539 290.042L412.539 339.281L412.539 339.781L413.039 339.781L414.091 339.781L414.591 339.781L414.591 339.281L414.591 289.377Z" fill="#DDD3CD" stroke="#DDD3CD"/>
<path d="M409.836 338.943L409.834 338.961L409.834 338.978C409.834 341.369 411.708 343.259 414.091 343.259C416.474 343.259 418.348 341.369 418.348 338.978C418.348 336.588 416.474 334.698 414.091 334.698C411.841 334.698 410.002 336.6 409.836 338.943Z" fill="#DDD3CD" stroke="#DDD3CD"/>
<path d="M380.833 471.415L380.832 471.433L380.832 471.451C380.832 473.841 382.706 475.731 385.089 475.731C387.472 475.731 389.346 473.841 389.346 471.451C389.346 469.061 387.472 467.17 385.089 467.17C382.839 467.17 381 469.072 380.833 471.415Z" fill="#DDD3CD" stroke="#DDD3CD"/>
<path d="M350.178 423.931L350.177 423.949L350.177 423.966C350.177 426.357 352.051 428.247 354.434 428.247C356.817 428.247 358.691 426.357 358.691 423.966C358.691 421.576 356.817 419.686 354.434 419.686C352.184 419.686 350.345 421.588 350.178 423.931Z" fill="#DDD3CD" stroke="#DDD3CD"/>
<path d="M329.839 203.935C329.839 201.545 327.965 199.655 325.582 199.655C323.199 199.655 321.326 201.545 321.326 203.935C321.326 206.326 323.199 208.216 325.582 208.216C327.965 208.216 329.839 206.326 329.839 203.935Z" fill="#DDD3CD" stroke="#DDD3CD"/>
<path d="M329.839 4.92435C329.839 2.53406 327.965 0.643749 325.582 0.643749C323.199 0.643749 321.326 2.53406 321.326 4.92435C321.326 7.31464 323.199 9.20496 325.582 9.20496C327.965 9.20496 329.839 7.31464 329.839 4.92435Z" fill="#DDD3CD" stroke="#DDD3CD"/>
<path d="M350.028 36.0412L350.027 36.0589L350.027 36.0766C350.027 38.4669 351.901 40.3572 354.284 40.3572C356.667 40.3572 358.54 38.4669 358.54 36.0766C358.54 33.6863 356.667 31.796 354.284 31.796C352.033 31.796 350.195 33.6981 350.028 36.0412Z" fill="#DDD3CD" stroke="#DDD3CD"/>
<path d="M447.102 82.0133L447.101 82.031L447.101 82.0487C447.101 84.439 448.975 86.3293 451.358 86.3293C453.741 86.3293 455.614 84.439 455.614 82.0487C455.614 79.6584 453.741 77.7681 451.358 77.7681C449.107 77.7681 447.269 79.6702 447.102 82.0133Z" fill="#DDD3CD" stroke="#DDD3CD"/>
<path d="M449.871 270.125L449.863 270.125L449.855 270.125C444.762 270.125 440.79 274.29 440.79 279.245C440.79 284.363 444.923 288.365 449.855 288.365C454.949 288.365 458.921 284.2 458.921 279.245C458.921 274.275 454.938 270.285 449.871 270.125ZM449.855 286.155C446.077 286.155 442.992 283.055 442.992 279.245C442.992 275.435 446.077 272.335 449.855 272.335C453.633 272.335 456.718 275.435 456.718 279.245C456.718 283.055 453.633 286.155 449.855 286.155Z" fill="#DDD3CD" stroke="#DDD3CD"/>
<path d="M431.625 470.357L431.623 470.375L431.623 470.392C431.623 472.783 433.497 474.673 435.88 474.673C438.263 474.673 440.137 472.783 440.137 470.392C440.137 468.002 438.263 466.112 435.88 466.112C433.63 466.112 431.791 468.014 431.625 470.357Z" fill="#DDD3CD" stroke="#DDD3CD"/>
<path d="M440.738 192.745C440.738 191.111 439.465 189.825 437.834 189.825C436.202 189.825 434.929 191.111 434.929 192.745C434.929 194.379 436.202 195.664 437.834 195.664C439.465 195.664 440.738 194.379 440.738 192.745Z" fill="#DDD3CD" stroke="#DDD3CD"/>
<path d="M440.738 185.486C440.738 183.852 439.465 182.566 437.834 182.566C436.202 182.566 434.929 183.852 434.929 185.486C434.929 187.12 436.202 188.406 437.834 188.406C439.465 188.406 440.738 187.12 440.738 185.486Z" fill="#DDD3CD" stroke="#DDD3CD"/>
<path d="M440.738 178.227C440.738 176.593 439.465 175.308 437.834 175.308C436.202 175.308 434.929 176.593 434.929 178.227C434.929 179.861 436.202 181.147 437.834 181.147C439.465 181.147 440.738 179.861 440.738 178.227Z" fill="#DDD3CD" stroke="#DDD3CD"/>
<path d="M440.738 170.968C440.738 169.334 439.465 168.049 437.834 168.049C436.202 168.049 434.929 169.334 434.929 170.968C434.929 172.603 436.202 173.888 437.834 173.888C439.465 173.888 440.738 172.603 440.738 170.968Z" fill="#DDD3CD" stroke="#DDD3CD"/>
<path d="M440.738 163.558C440.738 161.924 439.465 160.639 437.834 160.639C436.202 160.639 434.929 161.924 434.929 163.558C434.929 165.193 436.202 166.478 437.834 166.478C439.465 166.478 440.738 165.193 440.738 163.558Z" fill="#DDD3CD" stroke="#DDD3CD"/>
<path d="M381.532 357.881C381.532 356.247 380.259 354.962 378.627 354.962C376.996 354.962 375.723 356.247 375.723 357.881C375.723 359.516 376.996 360.801 378.627 360.801C380.259 360.801 381.532 359.516 381.532 357.881Z" fill="#DDD3CD" stroke="#DDD3CD"/>
<path d="M381.532 350.472C381.532 348.837 380.259 347.552 378.627 347.552C376.996 347.552 375.723 348.837 375.723 350.472C375.723 352.106 376.996 353.391 378.627 353.391C380.259 353.391 381.532 352.106 381.532 350.472Z" fill="#DDD3CD" stroke="#DDD3CD"/>
<path d="M381.532 343.213C381.532 341.579 380.259 340.293 378.627 340.293C376.996 340.293 375.723 341.579 375.723 343.213C375.723 344.847 376.996 346.132 378.627 346.132C380.259 346.132 381.532 344.847 381.532 343.213Z" fill="#DDD3CD" stroke="#DDD3CD"/>
<path d="M381.532 335.954C381.532 334.32 380.259 333.034 378.627 333.034C376.996 333.034 375.723 334.32 375.723 335.954C375.723 337.588 376.996 338.874 378.627 338.874C380.259 338.874 381.532 337.588 381.532 335.954Z" fill="#DDD3CD" stroke="#DDD3CD"/>
<path d="M381.532 328.544C381.532 326.935 380.234 325.624 378.627 325.624C377.02 325.624 375.723 326.935 375.723 328.544C375.723 330.153 377.02 331.464 378.627 331.464C380.234 331.464 381.532 330.153 381.532 328.544Z" fill="#DDD3CD" stroke="#DDD3CD"/>
<path d="M315.167 74.2814L315.164 74.3087L315.164 74.3363C315.164 75.9704 316.437 77.2559 318.069 77.2559C319.7 77.2559 320.973 75.9704 320.973 74.3363C320.973 72.7021 319.7 71.4167 318.069 71.4167C316.561 71.4167 315.34 72.7204 315.167 74.2814Z" fill="#DDD3CD" stroke="#DDD3CD"/>
<path d="M315.167 67.0226L315.164 67.05L315.164 67.0775C315.164 68.7117 316.437 69.9971 318.069 69.9971C319.7 69.9971 320.973 68.7117 320.973 67.0775C320.973 65.4434 319.7 64.1579 318.069 64.1579C316.561 64.1579 315.34 65.4616 315.167 67.0226Z" fill="#DDD3CD" stroke="#DDD3CD"/>
<path d="M315.167 59.6126L315.164 59.64L315.164 59.6675C315.164 61.3017 316.437 62.5871 318.069 62.5871C319.7 62.5871 320.973 61.3017 320.973 59.6675C320.973 58.0333 319.7 56.748 318.069 56.748C316.561 56.748 315.34 58.0516 315.167 59.6126Z" fill="#DDD3CD" stroke="#DDD3CD"/>
<path d="M315.167 52.3539L315.164 52.3813L315.164 52.4088C315.164 54.0429 316.437 55.3284 318.069 55.3284C319.7 55.3284 320.973 54.0429 320.973 52.4088C320.973 50.7746 319.7 49.4892 318.069 49.4892C316.561 49.4892 315.34 50.7929 315.167 52.3539Z" fill="#DDD3CD" stroke="#DDD3CD"/>
<path d="M315.167 45.0952L315.164 45.1225L315.164 45.15C315.164 46.7842 316.437 48.0696 318.069 48.0696C319.7 48.0696 320.973 46.7842 320.973 45.15C320.973 43.5159 319.7 42.2304 318.069 42.2304C316.561 42.2304 315.34 43.5342 315.167 45.0952Z" fill="#DDD3CD" stroke="#DDD3CD"/>
<g opacity="0.4">
<path d="M322.626 335.349L322.626 334.849L322.126 334.849L282.755 334.849L282.542 334.849L282.394 335.003L212.178 408.355L212.178 342.305L212.178 341.109L211.327 341.95L163.386 389.29L5.35786 389.29L4.85786 389.29L4.85786 389.79L4.85786 390.697L4.85786 391.197L5.35786 391.197L164.042 391.197L164.248 391.197L164.394 391.052L210.276 345.621L210.276 411.869L210.276 413.112L211.137 412.215L283.419 336.908L322.126 336.908L322.626 336.908L322.626 336.408L322.626 335.349Z" fill="#DDD3CD" stroke="#DDD3CD"/>
<path d="M322.626 294.216L322.626 293.716L322.126 293.716L218.59 293.716L218.385 293.716L218.239 293.86L163.386 348.006L5.35786 348.006L4.85786 348.006L4.85786 348.506L4.85786 349.413L4.85786 349.913L5.35786 349.913L164.042 349.913L164.248 349.913L164.394 349.768L219.096 295.623L322.126 295.623L322.626 295.623L322.626 295.123L322.626 294.216Z" fill="#DDD3CD" stroke="#DDD3CD"/>
<path d="M28.9501 268.462L28.4501 268.462L28.4501 268.962L28.4501 269.869L28.4501 270.369L28.9501 270.369L282.906 270.369L283.406 270.369L283.406 269.869L283.406 268.962L283.406 268.462L282.906 268.462L28.9501 268.462Z" fill="#DDD3CD" stroke="#DDD3CD"/>
<path d="M122.165 275.896L122.918 276.337L122.918 275.464L122.918 263.669L122.918 262.797L122.165 263.237L112.097 269.135L111.36 269.567L112.097 269.998L122.165 275.896Z" fill="#DDD3CD" stroke="#DDD3CD"/>
<path d="M108.19 275.896L108.943 276.337L108.943 275.464L108.943 263.669L108.943 262.797L108.19 263.237L98.1219 269.135L97.3855 269.567L98.122 269.998L108.19 275.896Z" fill="#DDD3CD" stroke="#DDD3CD"/>
<path d="M94.2149 275.896L94.9677 276.337L94.9677 275.464L94.9677 263.669L94.9677 262.797L94.2149 263.237L84.1469 269.135L83.4104 269.567L84.1469 269.998L94.2149 275.896Z" fill="#DDD3CD" stroke="#DDD3CD"/>
<path d="M176.412 409.729L177.165 410.17L177.165 409.298L177.165 397.502L177.165 396.63L176.412 397.071L166.344 402.968L165.608 403.4L166.344 403.831L176.412 409.729Z" fill="#DDD3CD" stroke="#DDD3CD"/>
<path d="M162.437 409.729L163.19 410.17L163.19 409.298L163.19 397.502L163.19 396.63L162.437 397.071L152.369 402.968L151.633 403.4L152.369 403.831L162.437 409.729Z" fill="#DDD3CD" stroke="#DDD3CD"/>
<path d="M148.462 409.729L149.215 410.17L149.215 409.298L149.215 397.502L149.215 396.63L148.462 397.071L138.394 402.968L137.658 403.4L138.394 403.831L148.462 409.729Z" fill="#DDD3CD" stroke="#DDD3CD"/>
<path d="M140.658 240.515L141.401 240.928L141.401 240.078L141.401 233.575L141.401 232.705L140.649 233.143L134.939 236.47L134.18 236.912L134.948 237.339L140.658 240.515Z" fill="#DDD3CD" stroke="#DDD3CD"/>
<path d="M132.839 240.512L133.587 240.939L133.587 240.078L133.587 233.575L133.587 232.693L132.83 233.146L127.27 236.473L126.536 236.912L127.279 237.336L132.839 240.512Z" fill="#DDD3CD" stroke="#DDD3CD"/>
<path d="M125.18 240.515L125.923 240.928L125.923 240.078L125.923 233.575L125.923 232.705L125.171 233.143L119.461 236.47L118.702 236.912L119.47 237.339L125.18 240.515Z" fill="#DDD3CD" stroke="#DDD3CD"/>
<path d="M59.504 332.627L59.504 332.127L59.004 332.127L49.9878 332.127L49.4878 332.127L49.4878 332.627L49.4878 341.701L49.4878 342.201L49.9878 342.201L59.004 342.201L59.504 342.201L59.504 341.701L59.504 332.627ZM51.3894 334.034L57.6024 334.034L57.6024 340.293L51.3894 340.293L51.3894 334.034Z" fill="#DDD3CD" stroke="#DDD3CD"/>
<path d="M48.9851 332.627L48.9851 332.127L48.4851 332.127L39.469 332.127L38.969 332.127L38.969 332.627L38.969 341.701L38.969 342.201L39.469 342.201L48.4851 342.201L48.9851 342.201L48.9851 341.701L48.9851 332.627ZM40.8706 334.034L47.0835 334.034L47.0835 340.293L40.8706 340.293L40.8706 334.034Z" fill="#DDD3CD" stroke="#DDD3CD"/>
<path d="M38.4663 332.627L38.4663 332.127L37.9663 332.127L28.9501 332.127L28.4501 332.127L28.4501 332.627L28.4501 341.701L28.4501 342.201L28.9501 342.201L37.9663 342.201L38.4663 342.201L38.4663 341.701L38.4663 332.627ZM30.2014 334.034L36.4144 334.034L36.4144 340.293L30.2014 340.293L30.2014 334.034Z" fill="#DDD3CD" stroke="#DDD3CD"/>
<path d="M27.7972 332.627L27.7972 332.127L27.2972 332.127L18.281 332.127L17.781 332.127L17.781 332.627L17.781 341.701L17.781 342.201L18.281 342.201L27.2972 342.201L27.7972 342.201L27.7972 341.701L27.7972 332.627ZM19.6826 334.034L25.8956 334.034L25.8956 340.293L19.6826 340.293L19.6826 334.034Z" fill="#DDD3CD" stroke="#DDD3CD"/>
<path d="M263.119 313.27L263.119 312.77L262.619 312.77L253.603 312.77L253.103 312.77L253.103 313.27L253.103 322.344L253.103 322.844L253.603 322.844L262.619 322.844L263.119 322.844L263.119 322.344L263.119 313.27ZM255.005 314.526L261.218 314.526L261.218 320.785L255.005 320.785L255.005 314.526Z" fill="#DDD3CD" stroke="#DDD3CD"/>
<path d="M252.6 313.27L252.6 312.77L252.1 312.77L243.084 312.77L242.584 312.77L242.584 313.27L242.584 322.344L242.584 322.844L243.084 322.844L252.1 322.844L252.6 322.844L252.6 322.344L252.6 313.27ZM244.486 314.526L250.699 314.526L250.699 320.785L244.486 320.785L244.486 314.526Z" fill="#DDD3CD" stroke="#DDD3CD"/>
<path d="M242.082 313.27L242.082 312.77L241.582 312.77L232.565 312.77L232.065 312.77L232.065 313.27L232.065 322.344L232.065 322.844L232.565 322.844L241.582 322.844L242.082 322.844L242.082 322.344L242.082 313.27ZM233.967 314.526L240.18 314.526L240.18 320.785L233.967 320.785L233.967 314.526Z" fill="#DDD3CD" stroke="#DDD3CD"/>
<path d="M231.563 313.27L231.563 312.77L231.063 312.77L222.046 312.77L221.546 312.77L221.546 313.27L221.546 322.344L221.546 322.844L222.046 322.844L231.063 322.844L231.563 322.844L231.563 322.344L231.563 313.27ZM223.298 314.526L229.511 314.526L229.511 320.785L223.298 320.785L223.298 314.526Z" fill="#DDD3CD" stroke="#DDD3CD"/>
<path d="M280.405 370.785L280.755 370.433L280.405 370.081L279.804 369.476L279.45 369.119L279.095 369.475L203.81 445.087L203.496 445.403L203.773 445.751L204.374 446.507L204.724 446.948L205.12 446.549L280.405 370.785Z" fill="#DDD3CD" stroke="#DDD3CD"/>
<path d="M214.582 317.656L214.582 317.156L214.082 317.156L174.055 317.156L118.185 244.953L118.057 244.695L117.919 244.417L117.609 244.417L4.15563 244.417L3.65563 244.417L3.65563 244.917L3.65563 245.976L3.65563 246.476L4.15563 246.476L116.913 246.476L172.813 318.718L172.832 318.742L172.854 318.764L173.004 318.916L173.151 319.063L173.359 319.063L214.082 319.063L214.582 319.063L214.582 318.563L214.582 317.656Z" fill="#DDD3CD" stroke="#DDD3CD"/>
<path d="M1.70223 390.395C1.70223 392.331 3.27554 393.919 5.20762 393.919C7.13971 393.919 8.71301 392.331 8.71301 390.395C8.71301 388.458 7.13971 386.87 5.20762 386.87C3.27554 386.87 1.70223 388.458 1.70223 390.395Z" fill="#DDD3CD" stroke="#DDD3CD"/>
<path d="M207.722 410.81C207.722 412.747 209.295 414.334 211.227 414.334C213.159 414.334 214.733 412.747 214.733 410.81C214.733 408.881 213.172 407.298 211.25 407.286C209.268 407.118 207.722 408.758 207.722 410.81Z" fill="#DDD3CD" stroke="#DDD3CD"/>
<path d="M210.126 318.563C210.126 320.5 211.699 322.088 213.631 322.088C215.563 322.088 217.137 320.5 217.137 318.563C217.137 316.627 215.563 315.039 213.631 315.039C211.699 315.039 210.126 316.627 210.126 318.563Z" fill="#DDD3CD" stroke="#DDD3CD"/>
<path d="M318.17 294.67C318.17 296.606 319.743 298.194 321.675 298.194C323.607 298.194 325.181 296.606 325.181 294.67C325.181 292.741 323.62 291.158 321.698 291.145C319.716 290.978 318.17 292.618 318.17 294.67Z" fill="#DDD3CD" stroke="#DDD3CD"/>
<path d="M279.4 269.264C279.4 271.201 280.974 272.789 282.906 272.789C284.838 272.789 286.411 271.201 286.411 269.264C286.411 267.328 284.838 265.74 282.906 265.74C280.974 265.74 279.4 267.328 279.4 269.264Z" fill="#DDD3CD" stroke="#DDD3CD"/>
<path d="M113.954 245.522C113.954 247.459 115.527 249.046 117.459 249.046C119.391 249.046 120.964 247.459 120.964 245.522C120.964 243.593 119.403 242.01 117.482 241.998C115.5 241.83 113.954 243.47 113.954 245.522Z" fill="#DDD3CD" stroke="#DDD3CD"/>
<path d="M0.5 245.522C0.5 247.459 2.0733 249.046 4.00539 249.046C5.93748 249.046 7.51078 247.459 7.51078 245.522C7.51078 243.585 5.93748 241.997 4.00539 241.997C2.08994 241.997 0.5 243.418 0.5 245.522Z" fill="#DDD3CD" stroke="#DDD3CD"/>
<path d="M25.7454 269.264C25.7454 271.201 27.3187 272.789 29.2508 272.789C31.1828 272.789 32.7561 271.201 32.7561 269.264C32.7561 267.335 31.1952 265.752 29.2735 265.74C27.2916 265.572 25.7454 267.212 25.7454 269.264Z" fill="#DDD3CD" stroke="#DDD3CD"/>
<path d="M0.950882 349.262C0.950882 351.198 2.52418 352.786 4.45627 352.786C6.38836 352.786 7.96166 351.198 7.96166 349.262C7.96166 347.325 6.38836 345.737 4.45627 345.737C2.52418 345.737 0.950882 347.325 0.950882 349.262Z" fill="#DDD3CD" stroke="#DDD3CD"/>
<path d="M275.493 371.038C275.493 372.975 277.067 374.562 278.999 374.562C280.931 374.562 282.504 372.975 282.504 371.038C282.504 369.101 280.931 367.513 278.999 367.513C277.067 367.513 275.493 369.101 275.493 371.038Z" fill="#DDD3CD" stroke="#DDD3CD"/>
<path d="M204.164 453.955C208.193 453.955 211.577 450.711 211.577 446.499C211.577 442.301 208.207 438.891 204.164 438.891C199.978 438.891 196.602 442.294 196.602 446.499C196.602 450.56 199.985 453.955 204.164 453.955ZM204.014 452.048C200.987 452.048 198.503 449.553 198.503 446.499C198.503 443.445 200.987 440.95 204.014 440.95C207.041 440.95 209.525 443.445 209.525 446.499C209.525 449.553 207.041 452.048 204.014 452.048Z" fill="#DDD3CD" stroke="#DDD3CD"/>
<path d="M165.114 340.445L165.104 340.444L165.094 340.444C160.908 340.444 157.532 343.847 157.532 348.052C157.532 352.113 160.915 355.508 165.094 355.508C169.266 355.508 172.657 352.271 172.657 348.052C172.657 343.83 169.267 340.606 165.114 340.445ZM165.094 353.601C162.068 353.601 159.584 351.106 159.584 348.052C159.584 344.998 162.068 342.503 165.094 342.503C168.121 342.503 170.605 344.998 170.605 348.052C170.605 351.106 168.121 353.601 165.094 353.601Z" fill="#DDD3CD" stroke="#DDD3CD"/>
<path d="M317.268 336.559C317.268 338.496 318.842 340.083 320.774 340.083C322.706 340.083 324.279 338.496 324.279 336.559C324.279 334.622 322.706 333.034 320.774 333.034C318.842 333.034 317.268 334.622 317.268 336.559Z" fill="#DDD3CD" stroke="#DDD3CD"/>
<path d="M92.1644 338.071C92.1644 339.403 93.2869 340.537 94.6179 340.537C95.9489 340.537 97.0714 339.403 97.0714 338.071C97.0714 336.739 95.9489 335.605 94.6179 335.605C93.2869 335.605 92.1644 336.739 92.1644 338.071Z" fill="#DDD3CD" stroke="#DDD3CD"/>
<path d="M86.3039 338.071C86.3039 339.403 87.4264 340.537 88.7574 340.537C90.0884 340.537 91.2109 339.403 91.2109 338.071C91.2109 336.739 90.0884 335.605 88.7574 335.605C87.4264 335.605 86.3039 336.739 86.3039 338.071Z" fill="#DDD3CD" stroke="#DDD3CD"/>
<path d="M80.2931 338.071C80.2931 339.403 81.4156 340.537 82.7466 340.537C84.0776 340.537 85.2001 339.403 85.2001 338.071C85.2001 336.739 84.0776 335.605 82.7466 335.605C81.4156 335.605 80.2931 336.739 80.2931 338.071Z" fill="#DDD3CD" stroke="#DDD3CD"/>
<path d="M74.4325 338.071C74.4325 339.403 75.555 340.537 76.886 340.537C78.2171 340.537 79.3396 339.403 79.3396 338.071C79.3396 336.739 78.2171 335.605 76.886 335.605C75.555 335.605 74.4325 336.739 74.4325 338.071Z" fill="#DDD3CD" stroke="#DDD3CD"/>
<path d="M68.4218 338.071C68.4218 339.403 69.5443 340.537 70.8753 340.537C72.2063 340.537 73.3288 339.403 73.3288 338.071C73.3288 336.739 72.2063 335.605 70.8753 335.605C69.5443 335.605 68.4218 336.739 68.4218 338.071Z" fill="#DDD3CD" stroke="#DDD3CD"/>
<path d="M226.656 289.226C226.656 290.557 227.778 291.692 229.109 291.692C230.44 291.692 231.563 290.557 231.563 289.226C231.563 287.894 230.44 286.76 229.109 286.76C227.778 286.76 226.656 287.894 226.656 289.226Z" fill="#DDD3CD" stroke="#DDD3CD"/>
<path d="M220.795 289.226C220.795 290.557 221.918 291.692 223.249 291.692C224.58 291.692 225.702 290.557 225.702 289.226C225.702 287.894 224.58 286.76 223.249 286.76C221.742 286.76 220.795 287.92 220.795 289.226Z" fill="#DDD3CD" stroke="#DDD3CD"/>
<path d="M214.784 289.226C214.784 290.557 215.907 291.692 217.238 291.692C218.569 291.692 219.691 290.557 219.691 289.226C219.691 287.894 218.569 286.76 217.238 286.76C215.907 286.76 214.784 287.894 214.784 289.226Z" fill="#DDD3CD" stroke="#DDD3CD"/>
<path d="M208.924 289.226C208.924 290.557 210.046 291.692 211.377 291.692C212.708 291.692 213.831 290.557 213.831 289.226C213.831 287.894 212.708 286.76 211.377 286.76C209.871 286.76 208.924 287.92 208.924 289.226Z" fill="#DDD3CD" stroke="#DDD3CD"/>
<path d="M202.913 289.226C202.913 290.557 204.036 291.692 205.367 291.692C206.698 291.692 207.82 290.557 207.82 289.226C207.82 287.894 206.698 286.76 205.367 286.76C204.035 286.76 202.913 287.894 202.913 289.226Z" fill="#DDD3CD" stroke="#DDD3CD"/>
<path d="M58.0533 239.322C58.0533 240.653 59.1758 241.788 60.5068 241.788C61.8378 241.788 62.9603 240.653 62.9603 239.322C62.9603 237.99 61.8378 236.856 60.5068 236.856C59.1758 236.856 58.0533 237.99 58.0533 239.322Z" fill="#DDD3CD" stroke="#DDD3CD"/>
<path d="M52.1927 239.322C52.1927 240.653 53.3152 241.788 54.6462 241.788C55.9772 241.788 57.0997 240.653 57.0997 239.322C57.0997 237.99 55.9773 236.856 54.6462 236.856C53.1399 236.856 52.1927 238.016 52.1927 239.322Z" fill="#DDD3CD" stroke="#DDD3CD"/>
<path d="M46.182 239.322C46.182 240.653 47.3045 241.788 48.6355 241.788C49.9665 241.788 51.089 240.653 51.089 239.322C51.089 237.99 49.9665 236.856 48.6355 236.856C47.3044 236.856 46.182 237.99 46.182 239.322Z" fill="#DDD3CD" stroke="#DDD3CD"/>
<path d="M40.1712 239.322C40.1712 240.653 41.2937 241.788 42.6247 241.788C43.9557 241.788 45.0782 240.653 45.0782 239.322C45.0782 237.99 43.9557 236.856 42.6247 236.856C41.2937 236.856 40.1712 237.99 40.1712 239.322Z" fill="#DDD3CD" stroke="#DDD3CD"/>
<path d="M34.3106 239.322C34.3106 240.653 35.4331 241.788 36.7641 241.788C38.0952 241.788 39.2177 240.653 39.2177 239.322C39.2177 237.99 38.0952 236.856 36.7641 236.856C35.4331 236.856 34.3106 237.99 34.3106 239.322Z" fill="#DDD3CD" stroke="#DDD3CD"/>
</g>
<g opacity="0.4">
<path d="M458.403 433.743L458.834 432.994L457.97 432.994L451.508 432.994L450.663 432.994L451.07 433.734L454.226 439.481L454.654 440.26L455.097 439.49L458.403 433.743Z" fill="#DDD3CD" stroke="#DDD3CD"/>
<path d="M458.4 441.612L458.846 440.857L457.97 440.857L451.508 440.857L450.652 440.857L451.073 441.603L454.228 447.198L454.654 447.953L455.094 447.207L458.4 441.612Z" fill="#DDD3CD" stroke="#DDD3CD"/>
<path d="M458.4 449.475L458.846 448.721L457.97 448.721L451.508 448.721L450.652 448.721L451.073 449.467L454.228 455.062L454.654 455.816L455.094 455.071L458.4 449.475Z" fill="#DDD3CD" stroke="#DDD3CD"/>
<path d="M536.46 338.222L536.46 337.722L535.96 337.722L534.908 337.722L534.408 337.722L534.408 338.222L534.408 382.178L462.574 456.43L462.569 456.434L462.424 456.581L462.278 456.727L462.278 456.933L462.278 549.18L462.278 549.68L462.778 549.68L463.68 549.68L464.18 549.68L464.18 549.18L464.18 457.439L536.164 383.337L536.168 383.333L536.314 383.186L536.46 383.04L536.46 382.833L536.46 338.222Z" fill="#DDD3CD" stroke="#DDD3CD"/>
<path d="M463.229 460.609C465.161 460.609 466.735 459.021 466.735 457.085C466.735 455.148 465.161 453.56 463.229 453.56C461.297 453.56 459.724 455.148 459.724 457.085C459.724 459.021 461.297 460.609 463.229 460.609Z" fill="#DDD3CD" stroke="#DDD3CD"/>
<path d="M463.229 552.856C465.161 552.856 466.735 551.268 466.735 549.331C466.735 547.395 465.161 545.807 463.229 545.807C461.297 545.807 459.724 547.395 459.724 549.331C459.724 551.268 461.297 552.856 463.229 552.856Z" fill="#DDD3CD" stroke="#DDD3CD"/>
<path d="M457.218 494.937C458.549 494.937 459.672 493.803 459.672 492.471C459.672 491.139 458.549 490.005 457.218 490.005C455.887 490.005 454.765 491.139 454.765 492.471C454.765 493.803 455.887 494.937 457.218 494.937Z" fill="#DDD3CD" stroke="#DDD3CD"/>
<path d="M457.218 500.835C458.549 500.835 459.672 499.701 459.672 498.369C459.672 497.037 458.549 495.903 457.218 495.903C455.887 495.903 454.765 497.037 454.765 498.369C454.765 499.877 455.913 500.835 457.218 500.835Z" fill="#DDD3CD" stroke="#DDD3CD"/>
<path d="M457.218 506.884C458.549 506.884 459.672 505.749 459.672 504.418C459.672 503.086 458.549 501.952 457.218 501.952C455.887 501.952 454.765 503.086 454.765 504.418C454.765 505.749 455.887 506.884 457.218 506.884Z" fill="#DDD3CD" stroke="#DDD3CD"/>
<path d="M457.218 512.933C458.549 512.933 459.672 511.798 459.672 510.467C459.672 509.135 458.549 508.001 457.218 508.001C455.887 508.001 454.765 509.135 454.765 510.467C454.765 511.798 455.887 512.933 457.218 512.933Z" fill="#DDD3CD" stroke="#DDD3CD"/>
<path d="M457.218 518.83C458.549 518.83 459.672 517.696 459.672 516.364C459.672 515.033 458.549 513.898 457.218 513.898C455.887 513.898 454.765 515.033 454.765 516.364C454.765 517.696 455.887 518.83 457.218 518.83Z" fill="#DDD3CD" stroke="#DDD3CD"/>
</g>
</svg>
