<svg width="262" height="632" viewBox="0 0 262 632" fill="none" xmlns="http://www.w3.org/2000/svg">
<g opacity="0.4">
<path d="M-29.5283 272.381L-29.8807 272.027L-29.5283 271.672L43.0903 198.592L43.4427 198.237L43.7952 198.592L44.4106 199.211L44.763 199.566L44.4106 199.921L-28.208 273.001L-28.5604 273.355L-28.9129 273.001L-29.5283 272.381Z" fill="#DDD3CD" stroke="#DDD3CD"/>
<path d="M44.4404 206.265L44.4307 206.266L44.421 206.266C40.3705 206.266 37.1034 202.973 37.1034 198.905C37.1034 194.975 40.3774 191.69 44.421 191.69C48.3194 191.69 51.5936 194.829 51.5936 198.905C51.5936 202.824 48.479 206.109 44.4404 206.265ZM44.421 193.566C41.5089 193.566 39.1188 195.967 39.1188 198.905C39.1188 201.843 41.5089 204.244 44.421 204.244C47.3331 204.244 49.7232 201.843 49.7232 198.905C49.7232 195.967 47.3331 193.566 44.421 193.566Z" fill="#DDD3CD" stroke="#DDD3CD"/>
</g>
<g opacity="0.6">
<path d="M182.144 400.791L182.144 401.291L181.644 401.291L-14.2372 401.291L-60.9402 457.312L-61.8242 458.373L-61.8242 456.992L-61.8242 378.682L-144.37 465.074L-144.429 465.137L-144.506 465.175L-144.796 465.321L-144.903 465.375L-145.021 465.375L-191.294 465.375L-191.794 465.375L-191.794 464.875L-191.794 463.707L-191.794 463.207L-191.294 463.207L-145.67 463.207L-61.5403 375.337L-61.5238 375.32L-61.5057 375.304L-60.4903 374.428L-59.6638 373.715L-59.6638 374.807L-59.6638 452.544L-15.5809 399.595L-15.5668 399.578L-15.5512 399.562L-15.4062 399.417L-15.2595 399.269L-15.0515 399.269L181.644 399.269L182.144 399.269L182.144 399.769L182.144 400.791Z" fill="#DDD3CD" stroke="#DDD3CD"/>
<path d="M182.143 449.401L182.143 449.901L181.643 449.901L-4.40228 449.901L-68.9509 513.695L-69.0969 513.839L-69.3023 513.839L-218.129 513.839L-218.629 513.839L-218.629 513.339L-218.629 512.317L-218.629 511.817L-218.129 511.817L-69.9432 511.817L-5.39468 447.878L-5.24854 447.733L-5.04282 447.733L181.643 447.733L182.143 447.733L182.143 448.233L182.143 449.401Z" fill="#DDD3CD" stroke="#DDD3CD"/>
<path d="M-145.166 543.764L-145.666 543.764L-145.666 543.264L-145.666 542.096L-145.666 541.596L-145.166 541.596L227.336 541.596L227.836 541.596L227.836 542.096L227.836 543.264L227.836 543.764L227.336 543.764L-145.166 543.764Z" fill="#DDD3CD" stroke="#DDD3CD"/>
<path d="M43.3408 535.527L43.3408 534.662L44.0906 535.094L55.9852 541.955L56.7281 542.384L55.9891 542.819L44.0946 549.826L43.3408 550.27L43.3408 549.395L43.3408 535.527Z" fill="#DDD3CD" stroke="#DDD3CD"/>
<path d="M59.7321 535.527L59.7321 534.667L60.4796 535.093L72.5192 541.954L73.2735 542.384L72.5231 542.82L60.4836 549.827L59.7321 550.265L59.7321 549.395L59.7321 535.527Z" fill="#DDD3CD" stroke="#DDD3CD"/>
<path d="M76.2683 535.527L76.2683 534.662L77.0181 535.094L88.9127 541.955L89.6557 542.384L88.9167 542.819L77.0221 549.826L76.2683 550.27L76.2683 549.395L76.2683 535.527Z" fill="#DDD3CD" stroke="#DDD3CD"/>
<path d="M-4.09241 377.872L-4.09241 377.012L-3.34485 377.438L8.69473 384.299L9.44904 384.729L8.69867 385.165L-3.34091 392.172L-4.09241 392.61L-4.09241 391.74L-4.09241 377.872Z" fill="#DDD3CD" stroke="#DDD3CD"/>
<path d="M12.299 377.872L12.299 377.012L13.0465 377.438L25.0861 384.299L25.8404 384.729L25.0901 385.165L13.0505 392.172L12.2989 392.61L12.2989 391.74L12.299 377.872Z" fill="#DDD3CD" stroke="#DDD3CD"/>
<path d="M21.7275 576.985L21.7275 576.099L22.486 576.557L29.0135 580.498L29.7358 580.934L29.0064 581.359L22.4789 585.154L21.7275 585.591L21.7275 584.722L21.7275 576.985Z" fill="#DDD3CD" stroke="#DDD3CD"/>
<path d="M30.8662 576.985L30.8662 576.099L31.6247 576.557L38.1521 580.498L38.8745 580.934L38.145 581.359L31.6175 585.154L30.8662 585.591L30.8662 584.722L30.8662 576.985Z" fill="#DDD3CD" stroke="#DDD3CD"/>
<path d="M39.8595 576.985L39.8595 576.109L40.6138 576.554L47.2863 580.496L48.029 580.934L47.2793 581.361L40.6067 585.156L39.8595 585.581L39.8595 584.722L39.8595 576.985Z" fill="#DDD3CD" stroke="#DDD3CD"/>
<path d="M129.633 468.086L129.633 468.586L129.133 468.586L118.544 468.586L118.044 468.586L118.044 468.086L118.044 457.43L118.044 456.93L118.544 456.93L129.133 456.93L129.633 456.93L129.633 457.43L129.633 468.086ZM127.618 466.564L127.618 459.097L120.205 459.097L120.205 466.564L127.618 466.564Z" fill="#DDD3CD" stroke="#DDD3CD"/>
<path d="M142.108 468.086L142.108 468.586L141.608 468.586L131.019 468.586L130.519 468.586L130.519 468.086L130.519 457.43L130.519 456.93L131.019 456.93L141.608 456.93L142.108 456.93L142.108 457.43L142.108 468.086ZM139.948 466.564L139.948 459.097L132.535 459.097L132.535 466.564L139.948 466.564Z" fill="#DDD3CD" stroke="#DDD3CD"/>
<path d="M154.438 468.086L154.438 468.586L153.938 468.586L143.349 468.586L142.849 468.586L142.849 468.086L142.849 457.43L142.849 456.93L143.349 456.93L153.938 456.93L154.438 456.93L154.438 457.43L154.438 468.086ZM152.423 466.564L152.423 459.097L145.009 459.097L145.009 466.564L152.423 466.564Z" fill="#DDD3CD" stroke="#DDD3CD"/>
<path d="M166.913 468.086L166.913 468.586L166.413 468.586L155.824 468.586L155.324 468.586L155.324 468.086L155.324 457.43L155.324 456.93L155.824 456.93L166.413 456.93L166.913 456.93L166.913 457.43L166.913 468.086ZM164.897 466.564L164.897 459.097L157.484 459.097L157.484 466.564L164.897 466.564Z" fill="#DDD3CD" stroke="#DDD3CD"/>
<path d="M257.137 571.292L257.137 571.792L256.637 571.792L65.7441 571.792L65.5312 571.792L65.3837 571.638L-16.7151 486.249L-64.0804 486.249L-64.5804 486.249L-64.5804 485.749L-64.5804 484.727L-64.5804 484.227L-64.0804 484.227L-16.0671 484.227L-15.8542 484.227L-15.7067 484.381L66.3922 569.77L256.637 569.77L257.137 569.77L257.137 570.27L257.137 571.292Z" fill="#DDD3CD" stroke="#DDD3CD"/>
<path d="M181.824 404.209L181.806 404.21L181.788 404.21C179.479 404.21 177.662 402.378 177.662 400.061C177.662 397.744 179.479 395.911 181.788 395.911C184.098 395.911 185.915 397.744 185.915 400.061C185.915 402.25 184.086 404.046 181.824 404.209Z" fill="#DDD3CD" stroke="#DDD3CD"/>
<path d="M65.8892 566.558C68.1991 566.558 70.0156 568.391 70.0156 570.708C70.0156 573.025 68.1991 574.857 65.8892 574.857C63.5793 574.857 61.7628 573.025 61.7628 570.708C61.7628 568.391 63.5793 566.558 65.8892 566.558Z" fill="#DDD3CD" stroke="#DDD3CD"/>
<path d="M256.637 566.558C258.947 566.558 260.764 568.391 260.764 570.708C260.764 573.025 258.947 574.857 256.637 574.857C254.327 574.857 252.511 573.025 252.511 570.708C252.511 568.391 254.327 566.558 256.637 566.558Z" fill="#DDD3CD" stroke="#DDD3CD"/>
<path d="M226.937 546.974L226.919 546.976L226.901 546.976C224.591 546.976 222.774 545.143 222.774 542.826C222.774 540.509 224.591 538.677 226.901 538.677C229.211 538.677 231.027 540.509 231.027 542.826C231.027 545.015 229.199 546.812 226.937 546.974Z" fill="#DDD3CD" stroke="#DDD3CD"/>
<path d="M182.695 452.674L182.677 452.675L182.659 452.675C180.349 452.675 178.532 450.842 178.532 448.525C178.532 446.209 180.349 444.376 182.659 444.376C184.969 444.376 186.785 446.209 186.785 448.525C186.785 450.715 184.957 452.511 182.695 452.674Z" fill="#DDD3CD" stroke="#DDD3CD"/>
<path d="M-6.4772 458.805L-6.48531 458.806L-6.49342 458.806C-11.42 458.806 -15.2616 454.778 -15.2616 449.985C-15.2616 445.035 -11.2635 441.164 -6.49342 441.164C-1.56685 441.164 2.27475 445.192 2.27475 449.985C2.27475 454.798 -1.72871 458.651 -6.4772 458.805ZM-6.49342 443.332C-10.1308 443.332 -13.1011 446.317 -13.1011 449.985C-13.1011 453.653 -10.1308 456.638 -6.49342 456.638C-2.85605 456.638 0.114282 453.653 0.114282 449.985C0.114282 446.317 -2.85605 443.332 -6.49342 443.332Z" fill="#DDD3CD" stroke="#DDD3CD"/>
<path d="M76.4784 458.828C78.063 458.828 79.2992 460.076 79.2992 461.663C79.2992 463.25 78.063 464.499 76.4784 464.499C74.8938 464.499 73.6575 463.25 73.6575 461.663C73.6575 460.076 74.8937 458.828 76.4784 458.828Z" fill="#DDD3CD" stroke="#DDD3CD"/>
<path d="M83.5862 458.828C85.1708 458.828 86.407 460.076 86.407 461.663C86.407 463.25 85.1708 464.499 83.5862 464.499C82.0015 464.499 80.7653 463.25 80.7653 461.663C80.7653 460.076 82.0015 458.828 83.5862 458.828Z" fill="#DDD3CD" stroke="#DDD3CD"/>
<path d="M90.5487 458.828C92.1333 458.828 93.3696 460.076 93.3696 461.663C93.3696 463.25 92.1333 464.499 90.5487 464.499C88.9641 464.499 87.7278 463.25 87.7278 461.663C87.7278 460.076 88.964 458.828 90.5487 458.828Z" fill="#DDD3CD" stroke="#DDD3CD"/>
<path d="M97.5113 458.828C99.096 458.828 100.332 460.076 100.332 461.663C100.332 463.25 99.0959 464.499 97.5113 464.499C95.9267 464.499 94.6904 463.25 94.6904 461.663C94.6904 460.076 95.9267 458.828 97.5113 458.828Z" fill="#DDD3CD" stroke="#DDD3CD"/>
<path d="M104.474 458.828C106.059 458.828 107.295 460.076 107.295 461.663C107.295 463.25 106.059 464.499 104.474 464.499C102.889 464.499 101.653 463.25 101.653 461.663C101.653 460.076 102.889 458.828 104.474 458.828Z" fill="#DDD3CD" stroke="#DDD3CD"/>
<path d="M190.257 580.839L190.229 580.842L190.202 580.842C188.617 580.842 187.381 579.594 187.381 578.007C187.381 576.42 188.617 575.171 190.202 575.171C191.786 575.171 193.023 576.42 193.023 578.007C193.023 579.475 191.768 580.67 190.257 580.839Z" fill="#DDD3CD" stroke="#DDD3CD"/>
<path d="M197.22 580.839L197.192 580.842L197.164 580.842C195.58 580.842 194.344 579.594 194.344 578.007C194.344 576.42 195.58 575.171 197.164 575.171C198.749 575.171 199.985 576.42 199.985 578.007C199.985 579.475 198.731 580.67 197.22 580.839Z" fill="#DDD3CD" stroke="#DDD3CD"/>
<path d="M204.182 580.839L204.155 580.842L204.127 580.842C202.542 580.842 201.306 579.594 201.306 578.007C201.306 576.42 202.542 575.171 204.127 575.171C205.711 575.171 206.948 576.42 206.948 578.007C206.948 579.475 205.693 580.67 204.182 580.839Z" fill="#DDD3CD" stroke="#DDD3CD"/>
<path d="M211.145 580.839L211.117 580.842L211.09 580.842C209.505 580.842 208.269 579.594 208.269 578.007C208.269 576.42 209.505 575.171 211.09 575.171C212.674 575.171 213.91 576.42 213.91 578.007C213.91 579.475 212.656 580.67 211.145 580.839Z" fill="#DDD3CD" stroke="#DDD3CD"/>
<path d="M218.253 580.839L218.225 580.842L218.197 580.842C216.613 580.842 215.376 579.594 215.376 578.007C215.376 576.42 216.613 575.171 218.197 575.171C219.782 575.171 221.018 576.42 221.018 578.007C221.018 579.475 219.764 580.67 218.253 580.839Z" fill="#DDD3CD" stroke="#DDD3CD"/>
<g opacity="0.4">
<path d="M151.537 350.137L151.537 350.637L151.037 350.637L-55.3772 350.637L-55.5739 350.637L-55.7179 350.503L-112 298.085L-177.659 298.085L-178.159 298.085L-178.159 297.585L-178.159 296.709L-178.159 296.209L-177.659 296.209L-111.368 296.209L-111.171 296.209L-111.027 296.344L-54.8899 348.761L151.037 348.761L151.537 348.761L151.537 349.261L151.537 350.137Z" fill="#DDD3CD" stroke="#DDD3CD"/>
<path d="M41.7296 389.989L41.7296 390.489L41.2296 390.489L-58.7136 390.489L-58.9192 390.489L-59.0653 390.344L-112.009 337.937L-264.402 337.937L-264.902 337.937L-264.902 337.437L-264.902 336.561L-264.902 336.061L-264.402 336.061L-111.369 336.061L-111.163 336.061L-111.017 336.206L-58.2179 388.467L41.2296 388.467L41.7296 388.467L41.7296 388.967L41.7296 389.989Z" fill="#DDD3CD" stroke="#DDD3CD"/>
<path d="M-204.639 414.867L-205.139 414.867L-205.139 414.367L-205.139 413.491L-205.139 412.991L-204.639 412.991L3.5153 412.991L4.0153 412.991L4.0153 413.491L4.0153 414.367L4.0153 414.867L3.5153 414.867L-204.639 414.867Z" fill="#DDD3CD" stroke="#DDD3CD"/>
<path d="M-72.9018 244.215L-73.2542 243.86L-72.9018 243.505L-72.2864 242.886L-71.934 242.531L-71.5815 242.886L1.03709 315.966L1.38952 316.321L1.03709 316.675L0.421702 317.295L0.0692731 317.649L-0.283156 317.295L-72.9018 244.215Z" fill="#DDD3CD" stroke="#DDD3CD"/>
<path d="M37.3934 389.551C37.3934 387.672 38.9198 386.131 40.7945 386.131C42.6693 386.131 44.1956 387.672 44.1956 389.551C44.1956 391.429 42.6693 392.97 40.7945 392.97C38.9198 392.97 37.3934 391.429 37.3934 389.551Z" fill="#DDD3CD" stroke="#DDD3CD"/>
<path d="M0.114258 413.929C0.114258 412.05 1.64063 410.509 3.51537 410.509C5.3901 410.509 6.91647 412.05 6.91647 413.929C6.91647 415.808 5.3901 417.348 3.51537 417.348C1.64063 417.348 0.114258 415.808 0.114258 413.929Z" fill="#DDD3CD" stroke="#DDD3CD"/>
<path d="M-3.80237 315.686C-3.80237 313.807 -2.27599 312.267 -0.401261 312.267C1.47347 312.267 2.99985 313.807 2.99985 315.686C2.99985 317.565 1.47347 319.106 -0.401261 319.106C-2.27599 319.106 -3.80237 317.565 -3.80237 315.686Z" fill="#DDD3CD" stroke="#DDD3CD"/>
<path d="M153.132 348.969C153.132 350.855 151.612 352.389 149.731 352.389C147.85 352.389 146.33 350.855 146.33 348.969C146.33 347.084 147.85 345.55 149.731 345.55C151.612 345.55 153.132 347.084 153.132 348.969Z" fill="#DDD3CD" stroke="#DDD3CD"/>
</g>
</g>
</svg>
