<svg width="64" height="64" viewBox="0 0 64 64" fill="none" xmlns="http://www.w3.org/2000/svg">
<g clip-path="url(#clip0_13078_24901)">
<path d="M38.9532 32.2946C38.9538 33.6121 38.5635 34.9003 37.832 35.9961C37.1005 37.0921 36.0604 37.9464 34.8431 38.4512C33.6261 38.956 32.2866 39.0885 30.9944 38.8319C29.7017 38.5753 28.5143 37.9415 27.5824 37.0102C26.6502 36.0787 26.0152 34.892 25.7575 33.5998C25.5001 32.3076 25.6314 30.968 26.1351 29.7503C26.639 28.5329 27.4921 27.4921 28.5877 26.7594C29.6828 26.027 30.9706 25.6358 32.2884 25.6351H32.2982C34.0631 25.6378 35.7551 26.3404 37.0026 27.5888C38.2502 28.8372 38.9518 30.5294 38.9532 32.2946ZM32.3534 0.574006C27.7072 0.567481 23.1166 1.5825 18.9062 3.54719C24.3376 2.98847 29.98 5.33789 34.1455 9.53314C36.2289 11.5926 38.0551 14.2588 39.6081 17.4696C48.4511 19.0496 54.45 14.6705 56.8178 12.0622C53.8374 8.46355 50.0991 5.56778 45.8696 3.58182C41.6404 1.59587 37.0258 0.568794 32.3534 0.574006Z" fill="white" fill-opacity="0.5"/>
<path d="M13.2226 6.96881C8.83504 10.274 5.3789 14.6599 3.19141 19.6988C5.82935 20.3481 13.7248 22.9138 17.3599 32.6878C18.4491 32.3328 20.8013 30.9649 22.4336 25.6848C24.4336 19.2152 28.0772 12.9731 32.8043 10.2093C27.5978 5.16114 19.6853 2.95176 13.2226 6.96881ZM59.8613 48.1476C62.1903 44.1341 63.6046 39.6559 64.0028 35.033C61.7652 40.009 56.9234 43.719 51.1908 45.2184C48.3646 45.9906 45.1369 46.2339 41.5683 45.9724C35.7775 52.8224 36.5837 60.2059 37.656 63.5483C42.2634 62.776 46.643 60.9949 50.4819 58.3326C54.3206 55.6703 57.5236 52.1923 59.8613 48.1476Z" fill="white" fill-opacity="0.5"/>
<path d="M63.8804 28.4119C63.2044 22.963 61.1286 17.7818 57.8549 13.3735C55.9694 15.3311 49.7982 20.88 39.5052 19.129C39.2675 20.2463 39.2817 22.9664 43.0427 27.016C47.6537 31.9805 51.248 38.2523 51.2818 43.7206C58.2551 41.746 64.1336 36.0062 63.8804 28.4119ZM4.83699 48.1422C7.1562 52.1647 10.3328 55.6274 14.1412 58.2838C10.9389 53.8665 10.144 47.8183 11.7112 42.1123C12.451 39.2835 13.8541 36.3754 15.864 33.422C12.8159 24.9889 6.00675 21.9946 2.56963 21.2478C0.938496 25.6201 0.295863 30.2991 0.687891 34.9492C1.07992 39.5993 2.49688 44.1049 4.83699 48.1422Z" fill="white" fill-opacity="0.5"/>
<path d="M19.9513 61.4862C25.0156 63.6248 30.5467 64.419 36.0082 63.7916C35.2513 61.1863 33.5286 53.0701 40.1921 45.0487C39.3392 44.2835 36.977 42.9341 31.5824 44.1648C24.9698 45.6684 17.7307 45.6386 12.9696 42.9341C11.1959 49.9625 13.2356 57.9061 19.9513 61.4862Z" fill="white" fill-opacity="0.5"/>
</g>
<defs>
<clipPath id="clip0_13078_24901">
<rect width="64" height="64" fill="white"/>
</clipPath>
</defs>
</svg>
