<svg width="64" height="64" viewBox="0 0 64 64" fill="none" xmlns="http://www.w3.org/2000/svg">
<g clip-path="url(#clip0_14838_4166)">
<path d="M32 0C14.3269 0 0 14.3269 0 32C0 49.6731 14.3269 64 32 64C49.6731 64 64 49.6731 64 32C64 14.3269 49.6731 0 32 0ZM22.4772 9.222C26.1357 7.68913 30.1713 7.0625 34.1473 7.4095C38.735 7.81013 43.0728 9.473 46.7145 12.1794L46.6795 9.86575L50.429 9.80912L50.5547 18.1301L42.2407 18.8873L41.9006 15.1526L44.1456 14.9482C41.1275 12.7964 37.573 11.473 33.821 11.1454C27.1086 10.5592 20.4808 13.2684 16.0904 18.3924L13.2428 15.9524C15.7448 13.0323 18.938 10.705 22.4772 9.222ZM43.4484 23.3382L37.3797 40.6618H34.2718L40.3406 23.3382H43.4484ZM21.8027 36.3585V33.9861L27.5772 25.9496H31.3472L26.1061 33.4712H28.7175V31.2829H32.1565V33.4712H34.069V36.3585H32.1565V38.8228H28.6071V36.3585H21.8027ZM14.9056 28.6346C13.9678 28.6346 13.1218 29.0576 12.6069 29.8851L9.9035 28.3771C10.8782 26.7587 12.6987 25.6921 15.2366 25.6921C18.1975 25.6921 20.2388 27.2185 20.2388 29.6092C20.2388 30.8597 19.8894 32 18.0502 33.6919L15.6228 35.9355H20.5881V38.8228H10.5656V36.5424L15.3839 32.0368C16.4137 31.0805 16.5609 30.492 16.5609 29.9586C16.5609 29.1311 16.0091 28.6346 14.9056 28.6346ZM41.5228 54.778C38.5206 56.0359 35.2645 56.6836 31.9955 56.6836C31.281 56.6836 30.566 56.6527 29.8528 56.5904C25.265 56.1898 20.9272 54.5269 17.2856 51.8206L17.3205 54.1341L13.571 54.1908L13.4452 45.8699L21.7593 45.1128L22.0994 48.8473L19.8544 49.0518C22.8725 51.2036 26.427 52.527 30.179 52.8546C36.8915 53.441 43.5191 50.7316 47.9095 45.6076L50.7571 48.0476C48.2551 50.9676 45.062 53.295 41.5228 54.778ZM54.0964 28.23L49.5541 38.8228H45.5817L49.9219 28.8369H46.5381V30.823H43.4301V25.9496H54.0964V28.23Z" fill="white" fill-opacity="0.5"/>
</g>
<defs>
<clipPath id="clip0_14838_4166">
<rect width="64" height="64" fill="white"/>
</clipPath>
</defs>
</svg>
