<svg width="64" height="64" viewBox="0 0 64 64" fill="none" xmlns="http://www.w3.org/2000/svg">
<path d="M30.5807 40.0383C30.9864 40.3951 31.493 40.574 32.0001 40.574C32.5071 40.574 33.014 40.3951 33.4195 40.0383C33.9335 39.5855 46.0021 28.8283 46.0021 17.672C46.0021 9.94845 39.7211 3.66479 32.0003 3.66479C24.2793 3.66479 17.998 9.94845 17.998 17.672C17.9976 28.8283 30.0667 39.5855 30.5807 40.0383ZM32.0001 14.0121C34.0046 14.0121 35.63 15.6503 35.63 17.672C35.63 19.6935 34.0046 21.3319 32.0001 21.3319C29.995 21.3319 28.3697 19.6933 28.3697 17.672C28.3697 15.6503 29.995 14.0121 32.0001 14.0121Z" fill="white" fill-opacity="0.5"/>
<path d="M58.905 40.0319L57.283 34.348C57.0197 33.4255 56.1769 32.7896 55.218 32.7896H43.6421C43.2236 33.4117 42.7821 34.0362 42.3151 34.6641C39.0705 39.0234 35.772 41.9722 35.4063 42.2946C34.4646 43.1238 33.2551 43.5804 31.9999 43.5804C30.7455 43.5804 29.536 43.1242 28.593 42.2941C28.2278 41.9722 24.9288 39.023 21.6844 34.6641C21.2175 34.0362 20.7759 33.4115 20.3575 32.7896H8.78138C7.82246 32.7896 6.97968 33.4255 6.71635 34.348L4.7832 41.1221L47.995 49.037L58.905 40.0319Z" fill="white" fill-opacity="0.5"/>
<path d="M63.917 57.5983L59.7731 43.0752L39.2129 60.3354H61.8522C62.526 60.3354 63.1606 60.0193 63.5664 59.4814C63.9721 58.9434 64.1016 58.246 63.917 57.5983Z" fill="white" fill-opacity="0.5"/>
<path d="M10.5142 45.2284L3.95473 44.0269L0.0823959 57.5981C-0.102278 58.2459 0.0272307 58.9432 0.433212 59.4811C0.838978 60.0189 1.47359 60.3351 2.14743 60.3351H10.5142V45.2284Z" fill="white" fill-opacity="0.5"/>
<path d="M13.5215 45.7795V60.3352H34.5375L45.0068 51.5465L13.5215 45.7795Z" fill="white" fill-opacity="0.5"/>
</svg>
