<svg width="64" height="64" viewBox="0 0 64 64" fill="none" xmlns="http://www.w3.org/2000/svg">
<path d="M10 49C10 50.11 10.89 51 12 51H20C21.11 51 22 50.11 22 49V46H10V49Z" fill="white" fill-opacity="0.5"/>
<path d="M22.0155 25.3211L22.4965 22.6741L16.8535 27.6901L21.3835 29.5781C21.8175 29.7591 22.0665 30.2181 21.9825 30.6801L21.5015 33.3271L27.1445 28.3111L22.6145 26.4231C22.1805 26.2421 21.9315 25.7831 22.0155 25.3211Z" fill="white" fill-opacity="0.5"/>
<path d="M15 6H29V11H15V6Z" fill="white" fill-opacity="0.5"/>
<path d="M34 44C37.31 44 40 41.31 40 38V6C40 2.69 37.31 0 34 0H10C6.69 0 4 2.69 4 6V38C4 41.31 6.69 44 10 44H34ZM29.665 28.747L20.665 36.747C20.477 36.914 20.063 37.106 19.511 36.872C19.139 36.663 18.941 36.241 19.017 35.821L19.873 31.113L14.616 28.923C14.299 28.791 14.072 28.505 14.014 28.165C13.957 27.826 14.079 27.481 14.336 27.253L23.336 19.253C23.655 18.969 24.12 18.921 24.49 19.128C24.862 19.337 25.06 19.759 24.984 20.179L24.128 24.887L29.385 27.077C29.702 27.209 29.929 27.495 29.987 27.835C30.044 28.174 29.922 28.519 29.665 28.747ZM33 5C33 4.447 33.448 4 34 4C34.552 4 35 4.447 35 5V12C35 12.553 34.552 13 34 13C33.448 13 33 12.553 33 12V5ZM13 5C13 4.447 13.448 4 14 4H30C30.552 4 31 4.447 31 5V12C31 12.553 30.552 13 30 13H14C13.448 13 13 12.553 13 12V5ZM9 5C9 4.447 9.448 4 10 4C10.552 4 11 4.447 11 5V12C11 12.553 10.552 13 10 13C9.448 13 9 12.553 9 12V5ZM9 28C9 20.832 14.832 15 22 15C29.168 15 35 20.832 35 28C35 30.743 34.157 33.365 32.562 35.584C32.24 36.032 31.615 36.135 31.166 35.812C30.718 35.49 30.616 34.865 30.938 34.416C32.287 32.54 33.001 30.321 33.001 28C33.001 21.935 28.066 17 22.001 17C15.936 17 11.001 21.935 11.001 28C11.001 34.065 15.936 39 22.001 39C24.178 39 26.281 38.366 28.085 37.167C28.546 36.861 29.166 36.986 29.472 37.446C29.778 37.906 29.653 38.527 29.193 38.833C27.06 40.251 24.573 41 22.002 41C14.834 41 9.002 35.168 9.002 28H9Z" fill="white" fill-opacity="0.5"/>
<path d="M60.36 15.23C59.94 14.02 59.31 12.89 58.5 11.88L55.5 8.12C53.92 6.15 51.53 5 49 5H44C42.9 5 42 5.9 42 7V16C42 17.11 42.9 18.01 44 18H47L53 24V34C53 35.66 54.34 37 56 37H61V19C61 17.7 60.78 16.43 60.36 15.23ZM46 12C45.448 12 45 11.552 45 11C45 10.448 45.448 10 46 10C46.552 10 47 10.448 47 11C47 11.552 46.552 12 46 12ZM50 12C49.448 12 49 11.552 49 11C49 10.448 49.448 10 50 10C50.552 10 51 10.448 51 11C51 11.552 50.552 12 50 12Z" fill="white" fill-opacity="0.5"/>
<path d="M56 48C56 54.075 51.075 59 45 59C38.925 59 34 54.075 34 48V46H29V48C29 56.837 36.163 64 45 64C53.837 64 61 56.837 61 48V39H56V48Z" fill="white" fill-opacity="0.5"/>
</svg>
