<svg width="64" height="64" viewBox="0 0 64 64" fill="none" xmlns="http://www.w3.org/2000/svg">
<g opacity="0.5" clip-path="url(#clip0_13078_24902)">
<path d="M19.6543 22.4833C20.6297 21.6292 22.0245 21.6535 22.8278 21.8963C22.3004 21.2585 21.0777 20.7244 20.7158 20.6626C20.4488 20.7575 19.6543 21.5763 19.6543 22.4833Z" fill="white"/>
<path d="M43.5957 19.9476C44.6991 20.1197 45.0522 20.8701 45.1206 21.0952C45.4914 20.784 45.8445 19.6806 45.7077 18.9567C45.0699 15.5338 37.1206 17.8003 33.1129 16.3438C33.0357 17.3435 34.3444 18.9391 35.5957 19.5349C33.4572 21.3865 31.535 25.1382 31.1466 29.7065C30.7604 25.1382 28.8359 21.3865 26.6997 19.5349C27.9488 18.9391 29.2597 17.3435 29.1824 16.3438C25.1725 17.8003 17.2255 15.5338 16.5788 18.9567C16.4486 19.6806 16.7929 20.784 17.1725 21.0952C17.2409 20.8701 17.5962 20.1197 18.6997 19.9476C24.303 19.1024 28.9838 27.7402 24.7598 31.2315C24.6914 31.2844 24.7333 31.3793 24.8194 31.3793H37.4737C37.562 31.3793 37.5951 31.2844 37.5355 31.2315C33.3115 27.7402 37.9924 19.1024 43.5957 19.9476Z" fill="white"/>
<path d="M35.9061 40.7326C36.1201 39.1723 35.0696 38.7243 33.9662 38.9141C33.8272 38.3712 33.7146 37.9056 33.5954 37.4399C33.4917 37.0692 33.4476 36.363 33.8889 36.363C34.1207 36.363 34.0258 37.0162 34.0081 37.3009C33.9838 37.5525 34.0787 37.6981 34.2752 37.707C34.4054 37.707 34.5598 37.5525 34.6547 37.4399C35.2837 36.7337 35.4316 35.6303 34.6901 35.094C34.0699 34.646 32.5251 34.9836 32.0947 35.6214C32.0352 35.3787 31.724 34.9836 31.5783 34.8093C31.4393 34.6372 31.3974 34.5268 31.5938 34.379C31.6887 34.3017 31.9734 34.0259 31.9734 33.7323C31.9734 33.569 31.8365 33.249 31.4128 33.249C31.0862 33.249 30.7154 33.4741 30.7154 33.9905C30.7154 34.1031 30.7419 34.2333 30.8192 34.3613C30.6029 34.3282 30.0335 34.337 29.7422 34.4143L33.8007 45.5525C34.9659 44.9743 35.8112 44.0694 35.8112 43.094C35.8112 42.2576 34.5863 42.5334 33.9993 43.1889C33.8007 42.1296 33.6374 41.163 33.4476 40.1897C33.3968 39.9227 33.5336 39.8278 33.7499 39.7505C34.4649 39.4835 35.5949 39.6976 35.5596 40.7414C35.5507 40.9732 35.8796 40.9732 35.9061 40.7326Z" fill="white"/>
<path d="M47.0655 11.1034C46.9618 10.7768 50.2545 10.768 50.2545 12.827C50.2545 14.2085 48.2904 14.8529 48.2904 16.2852C48.2904 16.9495 49.0054 17.4394 49.2217 17.4394C48.7207 15.1465 50.8062 16.3448 51.3756 16.7774C50.2545 13.6899 52.7814 13.7076 52.532 12.2929C52.3599 11.302 50.1596 11.6044 49.3673 11.1034C47.9527 10.2162 46.2821 6.75804 45.1875 10.2162C47.2377 12.112 46.0393 14.9236 43.4374 14.9236C43.4374 14.9236 43.4198 15.3274 43.4462 15.3627C46.558 15.2082 47.6349 12.9307 47.0655 11.1034Z" fill="white"/>
<path d="M41.5436 20.6626C41.1817 20.7244 39.9569 21.2585 39.4316 21.8963C40.2327 21.6535 41.6297 21.6292 42.6052 22.4833C42.6052 21.5763 41.8195 20.7663 41.5436 20.6626Z" fill="white"/>
<path d="M29.5171 40.9737C29.3008 41.6115 29.4398 42.7083 29.8525 43.0857C29.1287 43.0857 28.2592 43.2248 27.8266 43.5359C27.7229 42.9665 28.5085 41.9492 29.5171 40.9737ZM26.5863 43.2755C26.4142 43.5359 26.3281 43.9839 26.3281 44.1737C26.3281 45.2772 27.6456 45.5001 28.1466 45.2683C29.5943 46.6719 32.4478 46.3012 33.4056 45.8289L28.3783 32.0512C28.2834 31.793 27.9127 31.9144 28.001 32.1814L28.8528 34.5516C28.1201 34.7238 26.9483 35.2601 26.9483 35.9663C26.9483 36.9064 28.6123 37.5089 29.5678 37.4405C29.5259 37.6545 29.5767 37.8443 29.7245 38.0187C29.3781 38.0187 28.7248 38.182 28.5085 38.4137C28.001 37.9392 27.1976 37.7671 26.8181 38.0518C26.4385 38.3453 26.4318 38.8374 26.8269 39.398C27.1027 39.7842 27.2065 40.1638 26.8975 40.6118C28.0517 40.6118 27.6302 39.1045 28.0782 39.1045C28.0252 39.398 28.0605 39.7334 28.1885 40.1042C28.2746 40.3536 28.2746 40.5345 28.129 40.7773C27.7582 41.371 27.1712 42.7414 27.2506 43.9839C26.871 43.9751 26.6812 43.889 26.8092 43.3616C26.8622 43.1718 26.7408 43.035 26.5863 43.2755Z" fill="white"/>
<mask id="mask0_13078_24902" style="mask-type:luminance" maskUnits="userSpaceOnUse" x="0" y="0" width="64" height="64">
<path d="M64 0H0V64H64V0Z" fill="white"/>
</mask>
<g mask="url(#mask0_13078_24902)">
<path d="M61.5603 27.818C60.7835 28.2064 56.2306 30.3449 50.4044 29.5526C50.464 29.2767 50.517 29.0009 50.5501 28.7162C54.4298 28.2505 57.5857 27.5951 59.5939 26.474C61.8869 25.1984 62.8866 22.1551 61.7324 19.8974C61.7059 19.8356 61.6199 19.8268 61.5757 19.871C60.9468 20.6036 56.9633 24.9402 50.6891 26.2842C50.6715 25.9576 50.6361 25.6287 50.5942 25.311C53.6464 23.5785 56.619 21.5857 58.0337 19.7672C60.181 17.0174 59.9823 13.4996 57.9476 11.7076C57.9211 11.69 57.8946 11.6812 57.8703 11.69C57.8439 11.69 57.8174 11.7076 57.7997 11.7319C57.1531 12.7934 51.1195 22.5523 44.4899 26.7675C44.4127 26.8183 44.3266 26.8712 44.2494 26.9132C44.0596 27.0345 44.0331 27.2751 44.1964 27.423C44.9556 28.1203 45.4389 29.087 45.4389 30.1551C45.4389 32.0177 44 33.5603 42.1021 33.8958C41.1465 34.0856 39.7495 34.026 38.4121 33.5868C38.3526 33.5692 38.293 33.6045 38.293 33.6641V39.5609C38.293 39.6558 38.4386 39.6801 38.4739 39.5874C39.2839 37.4401 41.7137 36.9832 42.7752 36.9832C43.1636 39.2762 43.8433 41.1807 44.7327 42.207C46.1804 43.871 48.533 43.8445 49.5592 42.6991C49.5768 42.6814 49.5857 42.655 49.5768 42.6285C49.5768 42.6042 49.5592 42.5777 49.5415 42.5689C48.939 42.2246 45.4985 40.1126 44.8099 36.6456C45.077 36.5595 45.344 36.4492 45.5934 36.3278C46.7057 38.1639 48.3255 39.8014 49.6276 40.4216C51.8102 41.4743 53.8185 40.9645 54.6968 39.4307C54.7321 39.3711 54.6968 39.3093 54.6284 39.3027C53.2756 39.1901 49.1288 38.0006 47.3611 35.103C47.5597 34.922 47.7583 34.7234 47.9481 34.5181C49.7909 35.9305 52.4039 37.173 54.2841 37.4224C56.4734 37.7247 58.9473 37.0252 59.0069 34.474C59.0069 34.4232 58.965 34.3879 58.912 34.3879C58.1374 34.4321 52.9821 34.6638 49.3098 32.5518C49.4378 32.3112 49.5503 32.0596 49.6629 31.8103C49.6629 31.8103 55.2155 33.1212 57.8439 32.6886C60.4568 32.2583 61.9906 30.3096 61.6883 27.8886C61.6795 27.8268 61.611 27.7937 61.5603 27.818Z" fill="white"/>
</g>
<mask id="mask1_13078_24902" style="mask-type:luminance" maskUnits="userSpaceOnUse" x="0" y="0" width="64" height="64">
<path d="M64 0H0V64H64V0Z" fill="white"/>
</mask>
<g mask="url(#mask1_13078_24902)">
<path d="M12.5528 31.8097C12.6631 32.0591 12.7845 32.3107 12.9147 32.5513C9.24244 34.6544 4.08713 34.4381 3.30147 34.3874C3.25071 34.3874 3.19775 34.4315 3.20657 34.4823C3.26616 37.0246 5.74892 37.7242 7.93154 37.4219C9.80961 37.1725 12.4226 35.93 14.2675 34.5176C14.4573 34.7228 14.656 34.9215 14.8524 35.1024C13.0869 38.0001 8.94009 39.1896 7.58726 39.3021C7.51664 39.3088 7.48354 39.3706 7.51664 39.4302C8.39719 40.9639 10.4055 41.4737 12.5859 40.421C13.888 39.8009 15.5078 38.1634 16.6201 36.3273C16.8717 36.4486 17.1387 36.559 17.4057 36.645C16.715 40.1121 13.2766 42.2241 12.6808 42.5684C12.6543 42.5772 12.6389 42.6037 12.6389 42.6279C12.63 42.6544 12.6389 42.6809 12.6543 42.6986C13.6805 43.8528 16.0441 43.8704 17.483 42.2064C18.3702 41.1802 19.0521 39.2757 19.4405 36.9827C20.4998 36.9827 22.9318 37.4395 23.7417 39.5868C23.7749 39.6795 23.9227 39.6553 23.9227 39.5604V33.6635C23.9227 33.6039 23.8609 33.5686 23.8013 33.5863C22.4662 34.0255 21.0692 34.085 20.1114 33.8953C18.2157 33.5598 16.7768 32.0172 16.7768 30.1546C16.7768 29.0864 17.2579 28.1198 18.0171 27.4224C18.1804 27.2746 18.1627 27.034 17.9751 26.9126C17.8869 26.8707 17.8008 26.8177 17.7235 26.767C11.1029 22.5518 5.06919 12.8017 4.41375 11.7314C4.38726 11.6806 4.31002 11.6718 4.26809 11.7159C2.23333 13.4991 2.03471 17.0169 4.18202 19.7667C5.59444 21.5852 8.56933 23.578 11.6215 25.3104C11.5773 25.6282 11.542 25.957 11.5354 26.2837C5.25899 24.9397 1.27554 20.6119 0.637747 19.8793C0.595816 19.8263 0.50754 19.8351 0.483264 19.8969C-0.67315 22.1546 0.326574 25.1979 2.62175 26.4735C4.63002 27.5946 7.78368 28.25 11.6634 28.7157C11.6987 29.0004 11.7495 29.2762 11.8113 29.5521C5.99168 30.3444 1.43885 28.2147 0.664229 27.8175C0.602436 27.7932 0.534023 27.8263 0.525195 27.8881C0.231678 30.309 1.75885 32.2577 4.36961 32.6881C7.00023 33.1206 12.5528 31.8097 12.5528 31.8097Z" fill="white"/>
</g>
<path d="M10.8438 16.7774C11.4132 16.3448 13.4987 15.1465 13 17.4394C13.214 17.4394 13.9313 16.9495 13.9313 16.2852C13.9313 14.8529 11.9649 14.2085 11.9649 12.827C11.9649 10.768 15.2488 10.7768 15.1539 11.1034C14.5845 12.9307 15.6725 15.2171 18.7754 15.3627C18.7931 15.3274 18.7842 14.9236 18.7842 14.9236C16.1801 14.9236 14.9906 12.112 17.0342 10.2162C15.9395 6.75804 14.2667 10.2162 12.8521 11.1034C12.0598 11.6044 9.86175 11.302 9.68961 12.2929C9.43802 13.7076 11.9649 13.6899 10.8438 16.7774Z" fill="white"/>
<path d="M39.4316 10.5516C39.4316 11.3373 39.9326 11.9066 40.1908 12.0788C40.4402 11.9066 40.95 11.3373 40.95 10.5516C40.95 10.353 40.683 9.91382 40.1908 9.91382C39.6987 9.91382 39.4316 10.353 39.4316 10.5516Z" fill="white"/>
<path d="M29.7578 1.97517L30.6119 1.88028L30.5258 2.88883H31.6888L31.5939 1.88028L32.448 1.97517V0.871724L31.5939 0.966621L31.6888 0H30.5258L30.6119 0.966621L29.7578 0.871724V1.97517Z" fill="white"/>
<path d="M30.0176 4.69019C30.0176 5.81129 30.7326 6.62122 31.1034 6.85295C31.4476 6.62122 32.1892 5.81129 32.1892 4.69019C32.1892 4.41433 31.8007 3.79419 31.1034 3.79419C30.4038 3.79419 30.0176 4.41433 30.0176 4.69019Z" fill="white"/>
<path d="M24.0187 15.3531C27.3975 15.3531 28.9136 13.2852 29.3792 11.4822C30.1384 11.4822 30.8115 11.4822 32.8198 11.4822C33.2766 13.2852 34.795 15.3531 38.1737 15.3531H42.1903C42.7597 14.7925 43.2937 13.8369 43.2937 12.8615C43.2937 11.4557 41.9497 11.4403 41.579 11.4403C41.3119 12.5172 40.5947 13.0248 40.1997 13.2146C39.7671 13.0336 39.0432 12.5591 38.785 11.4314C38.3966 11.4403 37.0703 11.4557 37.0703 12.8615C37.0703 13.1638 37.1387 13.5258 37.2932 13.9296C37.3792 14.1459 37.569 14.4659 37.75 14.7506C36.3288 14.552 34.5103 13.5765 34.113 11.4822C34.113 11.4822 35.1657 9.80936 35.4239 9.13846C36.3795 6.69763 34.8369 5.6626 33.0603 5.6626C32.811 6.81901 32.001 7.65543 31.0962 8.05929C30.1914 7.65543 29.3792 6.81901 29.1299 5.6626C27.3621 5.6626 25.8195 6.69763 26.7685 9.13846C27.0355 9.80936 28.086 11.4822 28.086 11.4822C27.6821 13.5765 25.8637 14.552 24.4402 14.7506C24.6212 14.4659 24.8198 14.1459 24.897 13.9296C25.0515 13.5258 25.1221 13.1638 25.1221 12.8615C25.1221 11.4557 23.7936 11.4403 23.4052 11.4314C23.147 12.5591 22.4231 13.0336 22.0016 13.2146C21.5955 13.0248 20.8805 12.5172 20.6223 11.4403C20.2427 11.4403 18.8965 11.4557 18.8965 12.8615C18.8965 13.8369 19.4328 14.7925 19.9999 15.3531H24.0187Z" fill="white"/>
<path d="M41.2155 7.63768L40.5513 7.70609L40.6197 6.91382H39.7413L39.8186 7.70609L39.1543 7.63768V8.47409L39.8186 8.39685L39.7413 9.19796H40.6197L40.5513 8.39685L41.2155 8.47409V7.63768Z" fill="white"/>
<path d="M22.4566 6.91382H21.5761L21.6467 7.70609L20.9824 7.63768V8.47409L21.6467 8.39685L21.5761 9.19796H22.4566L22.3882 8.39685L23.0503 8.47409V7.63768L22.3882 7.70609L22.4566 6.91382Z" fill="white"/>
<path d="M21.2578 10.5516C21.2578 11.3373 21.7742 11.9066 22.017 12.0788C22.2752 11.9066 22.7828 11.3373 22.7828 10.5516C22.7828 10.353 22.5069 9.91382 22.017 9.91382C21.5248 9.91382 21.2578 10.353 21.2578 10.5516Z" fill="white"/>
<path d="M47.5 46.3536L48.2327 46.2764L48.1554 47.1459H49.164L49.0868 46.2764L49.8194 46.3536V45.4047L49.0868 45.4819L49.164 44.6455H48.1554L48.2327 45.4819L47.5 45.4047V46.3536Z" fill="white"/>
<path d="M49.2255 47.9142V50.5426H48.0955V47.9054C46.5617 48.1128 45.3281 49.1721 44.975 50.5514C43.7501 50.7147 40.4486 49.982 40.7752 49.4921C44.4056 44.3787 41.6293 41.3354 38.2859 41.5098V44.9393C38.2859 46.0427 37.3281 46.9409 36.1386 46.9409H33.8368C32.1816 46.9409 31.0958 48.6027 31.0958 48.6027C31.0958 48.6027 30.0166 46.9409 28.3703 46.9409H26.0597C24.8701 46.9409 23.9146 46.0427 23.9146 44.9393V41.5098C20.5689 41.3354 17.7926 44.3787 21.423 49.4921C21.7408 49.9754 18.3355 50.75 16.7421 50.5514C16.3184 50.1211 15.7071 49.8452 15.0252 49.8452C14.7427 49.8452 14.4492 49.896 14.1821 49.9997C14.1821 49.9997 7.8969 44.0521 7.78435 43.9925L7.83732 43.8711C8.19042 43.198 7.64753 42.4742 7.30104 42.5271C7.69828 42.0438 7.72477 39.9318 5.49139 39.4397C5.55318 39.8612 5.58628 40.7329 5.58628 40.7329C5.58628 40.7329 3.8627 39.8016 2.9998 40.6027C2.24284 41.5009 3.29332 43.1296 3.29332 43.1296C3.29332 43.1296 2.41497 43.1561 1.98242 43.1208C2.62021 45.2769 4.7587 45.1291 5.22435 44.6987C5.18904 45.043 5.96587 45.5351 6.62132 45.1379L6.91484 45.0011C6.96559 45.0695 13.0875 50.8538 13.0875 50.8538C12.8028 51.2665 12.6638 51.7762 12.7587 52.328C12.9066 53.1732 13.6128 53.8882 14.5264 54.0692C15.1642 54.1994 15.7667 54.0692 16.25 53.7845L17.8721 55.294C18.0177 55.422 18.2075 55.4993 18.4238 55.4927C18.8188 55.4662 19.1212 55.1374 19.0859 54.7754C19.077 54.6033 18.991 54.4665 18.8718 54.3539C18.8453 54.3274 17.2255 52.8201 17.2255 52.8201C18.5606 51.88 21.061 51.2157 23.1289 51.2157C23.4997 51.2157 23.6652 50.9134 23.5438 50.6044C22.6037 48.3534 24.6208 46.7158 26.7063 48.0444C27.6221 48.6292 28.5446 49.768 29.242 51.6813C25.8191 52.5089 21.5179 54.7931 20.6461 57.2847C20.3107 58.2513 21.4141 59.56 22.7581 59.827C22.7846 59.827 22.8111 59.827 22.8288 59.8116C22.853 59.8027 22.8619 59.7762 22.8707 59.7586C23.5703 56.0356 27.578 53.2593 29.6547 52.7848C29.7584 53.0695 29.7253 52.9746 29.8357 53.2593C27.5604 54.3274 25.3623 56.5961 24.7333 59.2841C24.4486 60.5178 25.8191 61.63 26.9579 61.9302C27.0086 61.9478 27.0704 61.9059 27.0704 61.8529C27.2845 58.4477 28.794 55.5611 30.138 54.2414C30.1733 54.4996 30.1998 54.7578 30.2152 55.0182C30.2152 55.0182 28.8448 58.8538 28.8448 61.6565C28.8448 62.9652 30.7758 63.87 31.0693 64.0002C31.4224 63.87 33.3535 62.9652 33.3535 61.6565C33.3535 58.8538 31.983 55.0182 31.983 55.0182C32.0006 54.7578 32.0271 54.4996 32.0602 54.2414C33.4064 55.5611 34.9137 58.4477 35.13 61.8529C35.13 61.9059 35.1896 61.9478 35.2426 61.9302C36.3791 61.63 37.7496 60.5178 37.4649 59.2841C36.8359 56.5961 34.6379 54.3274 32.3626 53.2593C32.4751 52.9746 32.4398 53.0695 32.5435 52.7848C34.629 53.2593 38.6301 56.0356 39.3275 59.7586C39.3363 59.7762 39.354 59.8027 39.3717 59.8116C39.3893 59.827 39.4136 59.827 39.4401 59.827C40.7841 59.56 41.8875 58.2513 41.5521 57.2847C40.6892 54.7931 36.3791 52.5089 32.9584 51.6813C33.6558 49.768 34.5783 48.6292 35.4919 48.0444C37.5775 46.7158 39.5946 48.3534 38.6566 50.6132C38.5352 50.9134 38.6986 51.2157 39.0693 51.2157C41.3888 51.2157 44.2423 52.0521 45.4053 53.1732C46.0696 54.1906 47.2679 54.8703 48.6384 54.8703C50.7151 54.8703 52.4056 53.3012 52.4056 51.3702C52.4056 49.6201 51.0263 48.1724 49.2255 47.9142Z" fill="white"/>
</g>
<defs>
<clipPath id="clip0_13078_24902">
<rect width="64" height="64" fill="white"/>
</clipPath>
</defs>
</svg>
