<svg width="12" height="14" viewBox="0 0 12 14" fill="none" xmlns="http://www.w3.org/2000/svg">
<path fill-rule="evenodd" clip-rule="evenodd" d="M5.61851 0.00641242C5.17843 0.057053 4.99646 0.0864202 4.76053 0.144909C3.07797 0.562092 1.70262 1.80629 1.11135 3.44606C0.250324 5.83402 1.21036 8.786 3.89155 11.9946C4.56802 12.8042 5.58571 13.841 5.80318 13.9422C5.93201 14.0021 6.06765 14.0021 6.19648 13.9422C6.33087 13.8796 6.83702 13.3997 7.35633 12.8424C10.1671 9.82585 11.5162 6.81137 11.1332 4.40337C10.9522 3.26571 10.4353 2.2722 9.60502 1.46632C8.81696 0.701409 7.86518 0.222428 6.80333 0.0563694C6.55749 0.0179241 5.79716 -0.0141227 5.61851 0.00641242ZM6.38115 3.80985C6.82932 3.93306 7.20743 4.29364 7.36548 4.74853C7.41448 4.8896 7.42723 4.98549 7.42723 5.21337C7.42723 5.44126 7.41448 5.53715 7.36548 5.67822C7.15875 6.27327 6.61501 6.66691 5.99983 6.66691C5.38465 6.66691 4.84091 6.27327 4.63418 5.67822C4.54658 5.42608 4.54658 5.00067 4.63418 4.74853C4.8901 4.01192 5.64354 3.60709 6.38115 3.80985Z" fill="black"/>
</svg>
