<svg width="157" height="55" viewBox="0 0 157 55" fill="none" xmlns="http://www.w3.org/2000/svg">
<path d="M32.8395 28.3582C34.1685 27.8061 35.385 27.295 36.6015 26.7838C37.6852 26.334 38.7586 25.8638 39.8422 25.414C40.8645 24.9846 41.8459 25.3322 42.2446 26.2625C42.6535 27.2132 42.2037 28.1639 41.161 28.6035C38.4314 29.7485 35.7122 30.9037 32.9826 32.0486C32.86 32.0997 32.7373 32.1611 32.6248 32.3042C33.1564 32.3553 33.6778 32.4064 34.2094 32.4371C36.4482 32.6109 38.687 32.7745 40.9361 32.938C42.0504 33.0198 42.7251 33.7661 42.6535 34.7986C42.5819 35.8004 41.7641 36.4445 40.6498 36.3627C37.4398 36.1276 34.2298 35.8822 31.0198 35.6471C30.9278 35.6369 30.8256 35.6471 30.6109 35.6471C31.1732 36.0969 31.6639 36.4956 32.1444 36.8738C34.4343 38.6935 36.7344 40.5132 39.0142 42.3431C40.0671 43.1916 39.9751 44.6739 38.8301 45.2668C38.1452 45.6246 37.4807 45.5224 36.8776 45.0419C34.7921 43.3756 32.6964 41.7195 30.6007 40.0532C30.478 39.9509 30.3451 39.8589 30.1202 39.8283C30.4371 40.4927 30.754 41.1572 31.0812 41.8217C32.1648 44.0503 33.2587 46.2789 34.3321 48.5075C34.8943 49.6831 34.3014 50.8588 33.0746 51.0734C32.3182 51.2063 31.6128 50.8179 31.2243 50.0205C29.9055 47.3216 28.597 44.6126 27.2885 41.9035C27.1658 41.6582 27.0431 41.423 26.8182 41.1879C26.8182 41.3617 26.8182 41.5355 26.8182 41.699C26.8182 45.3895 26.8182 49.08 26.8182 52.7705C26.8182 53.5985 26.348 54.2221 25.5915 54.447C24.8861 54.6617 24.1398 54.3959 23.69 53.7927C23.4753 53.5065 23.3936 53.1896 23.3936 52.8318C23.3936 46.3709 23.3936 39.8998 23.3936 33.4389C23.3936 32.9074 23.6287 32.4984 23.9865 32.1304C28.4641 27.663 32.9417 23.1854 37.4194 18.7077C38.1657 17.9615 39.2391 17.9308 39.924 18.626C40.6089 19.3211 40.6089 20.4047 39.8729 21.1408C37.7056 23.3285 35.5179 25.4957 33.3404 27.6732C33.1769 27.8675 32.9724 28.0004 32.8395 28.3582ZM32.768 28.307C32.7577 28.3173 32.7475 28.3275 32.7475 28.3377C32.7577 28.3479 32.768 28.3582 32.7782 28.3684C32.7884 28.3479 32.7884 28.3275 32.7986 28.307C32.7884 28.307 32.7782 28.307 32.768 28.307Z" fill="#C00A26"/>
<path d="M9.86782 28.1333C9.44868 27.7449 9.0091 27.3768 8.60018 26.9781C6.67827 25.0767 4.76659 23.1548 2.85491 21.2431C2.05752 20.4457 2.00641 19.3723 2.72201 18.6567C3.42739 17.9513 4.5008 18.0126 5.29818 18.8203C9.73492 23.2468 14.1614 27.6733 18.5982 32.0896C19.0173 32.5087 19.2627 32.9585 19.2627 33.5719C19.2524 39.9714 19.2627 46.371 19.2524 52.7603C19.2524 53.6599 18.7004 54.3653 17.9132 54.5084C17.0239 54.672 16.206 54.2017 15.9096 53.3839C15.8176 53.1181 15.8278 52.8523 15.8278 52.5763C15.8278 48.9472 15.8278 45.3282 15.8278 41.6991C15.8278 41.5355 15.8278 41.372 15.8278 41.2186C15.7971 41.2084 15.7562 41.1982 15.7255 41.188C15.6335 41.372 15.5313 41.5662 15.4393 41.7502C14.0899 44.5309 12.7405 47.3115 11.3808 50.0921C11.0332 50.8077 10.3483 51.1962 9.65314 51.1042C8.88642 51.0122 8.30372 50.4908 8.1197 49.7343C7.99703 49.2334 8.17082 48.804 8.3855 48.3644C9.68381 45.6963 10.9821 43.0179 12.2804 40.3395C12.3622 40.1759 12.4849 40.0328 12.4849 39.7874C12.2906 39.8079 12.1884 39.9408 12.0657 40.043C9.95983 41.7093 7.85391 43.3961 5.74799 45.0522C4.83815 45.7678 3.67274 45.5532 3.1207 44.5922C2.6709 43.8153 2.88558 42.9259 3.68296 42.292C5.61509 40.7586 7.54722 39.2252 9.47935 37.6917C10.2972 37.0375 11.1252 36.3832 11.9124 35.6369C10.8083 35.7187 9.70425 35.7903 8.60018 35.8721C6.34092 36.0356 4.08166 36.2196 1.8224 36.373C0.840998 36.4343 0.0436099 35.7085 0.00271829 34.768C-0.0483962 33.7968 0.626317 33.0301 1.60772 32.9483C4.27589 32.7438 6.94407 32.5496 9.60202 32.3452C9.73492 32.3349 9.86782 32.3247 10.0518 32.3043C9.94961 32.0998 9.78604 32.0896 9.66336 32.0385C6.92362 30.8833 4.18389 29.7281 1.44415 28.5729C0.77966 28.2969 0.350299 27.8369 0.288961 27.1008C0.227624 26.4159 0.472974 25.8638 1.05568 25.4856C1.63838 25.1073 2.23131 25.1585 2.85491 25.414C4.98127 26.3239 7.11786 27.2133 9.24422 28.1129C9.40779 28.1947 9.54069 28.3071 9.86782 28.1333ZM9.88827 28.3582C9.89849 28.348 9.90871 28.3378 9.92916 28.3276C9.91894 28.3173 9.90871 28.3071 9.89849 28.2969C9.88827 28.3173 9.87804 28.3276 9.8576 28.348C9.8576 28.348 9.87804 28.3582 9.88827 28.3582Z" fill="#C00A26"/>
<path d="M19.7128 12.3698C19.7128 12.1347 19.7128 11.9507 19.7128 11.7667C19.7128 8.46468 19.7128 5.16268 19.7128 1.86068C19.7128 0.736162 20.367 0.0103358 21.3689 0.000112907C22.3605 -0.01011 23.0965 0.674825 23.1068 1.66645C23.117 3.50657 23.1068 5.33647 23.1068 7.17659C23.1068 8.72025 23.1068 10.2741 23.1068 11.8178C23.1068 11.9814 23.1068 12.1449 23.1068 12.3085C23.3419 12.3187 23.4134 12.1654 23.5054 12.0631C25.2229 10.2435 26.9301 8.41356 28.6476 6.60411C29.2303 5.99074 30.0072 5.86806 30.6921 6.22586C31.3669 6.58366 31.7042 7.27882 31.5815 8.06598C31.5202 8.45445 31.2953 8.75092 31.0397 9.02694C28.4942 11.7258 25.9589 14.4349 23.4134 17.1337C23.1783 17.3791 23.0965 17.6142 23.0965 17.9413C23.1068 19.2498 23.1068 20.5584 23.1068 21.8669C23.1068 22.01 23.1068 22.1531 23.1068 22.3065C23.1476 22.3269 23.1885 22.3474 23.2397 22.378C23.4237 22.1736 23.6077 21.9589 23.8019 21.7545C26.8688 18.4933 29.9357 15.2322 32.9923 11.9609C33.5137 11.4089 34.1168 11.1329 34.8631 11.3475C35.5071 11.5315 35.8854 12.0018 36.0387 12.6356C36.1819 13.2694 35.9467 13.801 35.5174 14.2611C32.839 17.1133 30.1503 19.9654 27.4719 22.8074C25.9283 24.4431 24.3948 26.0787 22.8512 27.7144C21.8902 28.7367 20.9191 28.7367 19.9581 27.7246C15.736 23.2368 11.514 18.7489 7.30215 14.2611C6.57632 13.4943 6.5661 12.4209 7.27148 11.7565C7.9973 11.0715 9.05026 11.1431 9.80676 11.9507C12.935 15.2731 16.053 18.5956 19.1812 21.918C19.3141 22.0611 19.4265 22.2452 19.631 22.3269C19.7843 22.2043 19.723 22.0407 19.723 21.8976C19.7332 20.5686 19.7128 19.2396 19.7332 17.9209C19.7332 17.604 19.631 17.379 19.4163 17.1541C16.8708 14.4553 14.3253 11.7565 11.79 9.04738C11.0642 8.28067 10.9824 7.42194 11.5549 6.70634C12.2398 5.84762 13.4052 5.7965 14.1822 6.62456C15.8792 8.41356 17.5659 10.2128 19.2629 12.012C19.3652 12.1551 19.447 12.3085 19.7128 12.3698Z" fill="#F39200"/>
<path fill-rule="evenodd" clip-rule="evenodd" d="M88.3447 19.9689L88.3283 21.9377L87.2283 21.9544L86.1283 21.9711V23.5556V25.1401L87.2283 25.1567L88.3283 25.1734L88.3593 29.2943L88.3903 33.4152L88.5521 33.8247C88.8321 34.5336 89.3786 35.1072 90.055 35.4019C90.6461 35.6595 91.0724 35.7023 93.0536 35.7035L94.9282 35.7045V34.2393V32.7741L93.6733 32.774C92.2503 32.774 92.0712 32.7313 91.8763 32.3468C91.7769 32.1508 91.7679 31.8432 91.7678 28.638L91.7677 25.1429H93.348H94.9282V23.5556V21.9683H93.348H91.7677V19.9841V18H90.0644H88.361L88.3447 19.9689ZM61.8975 21.7059C58.9282 21.9361 56.8825 23.705 56.8784 26.0459C56.8775 26.5008 57.0663 27.234 57.2947 27.6632C57.7529 28.5242 58.809 29.2556 60.1314 29.6279C60.4381 29.7142 61.4555 29.9103 62.3923 30.0636C63.329 30.2169 64.2771 30.4011 64.4992 30.4729C65.3954 30.7627 65.7854 31.5797 65.4083 32.3775C65.2509 32.7103 64.9542 32.9526 64.5189 33.1036C63.7789 33.3603 62.4675 33.3801 61.7078 33.1459C60.9699 32.9185 60.2904 32.2981 60.1876 31.758L60.1485 31.5531H58.5074H56.8662L56.9087 31.8736C57.0602 33.0158 57.9491 34.3699 58.976 35.0229C60.1426 35.7647 61.9403 36.112 63.83 35.9606C65.6298 35.8165 66.8422 35.3691 67.7505 34.5141C68.7545 33.5689 69.1302 32.3906 68.8792 30.9738C68.6479 29.6683 67.8108 28.6724 66.4981 28.1409C65.8204 27.8664 65.1846 27.7252 63.4468 27.4633C61.6226 27.1883 61.3285 27.1191 60.8663 26.8558C60.5348 26.6669 60.2863 26.3005 60.2863 26.0006C60.2863 25.7194 60.4369 25.3744 60.6769 25.1058C61.5437 24.1357 63.7611 24.0948 64.8412 25.029C65.0971 25.2503 65.3373 25.6354 65.3977 25.9213L65.4398 26.1197H67.055H68.6703L68.6333 25.7286C68.5567 24.9203 68.1339 24.197 67.1993 23.2752C66.6441 22.7275 66.5023 22.6238 65.9248 22.3433C64.7801 21.7873 63.4874 21.5827 61.8975 21.7059ZM77.1115 21.7025C75.9875 21.8309 75.268 22.0306 74.4652 22.4371C73.0966 23.1301 71.8765 24.4088 71.3143 25.7393C70.5247 27.6077 70.5247 30.0651 71.3143 31.9335C71.8739 33.2578 73.1258 34.5784 74.4498 35.241C76.7152 36.3748 79.8015 36.2235 81.8561 34.8779C82.3302 34.5674 83.006 33.8814 83.4774 33.232C83.7867 32.8061 84.2692 31.9059 84.2692 31.7548C84.2692 31.6913 83.9131 31.6752 82.5046 31.6752H80.74L80.6485 31.8495C80.5026 32.1274 79.9236 32.6089 79.4717 32.828C79.0557 33.0298 78.3226 33.1972 77.8551 33.1972C76.6206 33.1972 75.4 32.5479 74.727 31.5332C74.4943 31.1823 74.1987 30.4346 74.1558 30.0879L74.1369 29.9353L79.3499 29.9197L84.5629 29.9041L84.6021 29.6755C84.7693 28.6986 84.6958 27.4461 84.4153 26.4924C83.5639 23.5984 80.8042 21.6076 77.7328 21.6722C77.4934 21.6772 77.2137 21.6908 77.1115 21.7025ZM104.154 21.7527C103.161 21.913 102.263 22.3468 101.57 23.0016C101.39 23.172 101.218 23.3114 101.189 23.3114C101.137 23.3114 101.092 23.1385 100.936 22.3498L100.861 21.9683H99.2892H97.7169V28.8364V35.7045H99.4212H101.125V31.5614C101.125 28.9987 101.149 27.293 101.189 27.0898C101.286 26.5846 101.58 26.0309 101.959 25.6392C102.527 25.0529 103.23 24.778 104.162 24.778C105.65 24.778 106.744 25.5874 107.106 26.9562C107.184 27.249 107.199 27.9826 107.199 31.5049V35.7045H108.906H110.613L110.593 31.0189L110.573 26.3333L110.405 25.7228C109.864 23.751 108.411 22.2794 106.579 21.8483C105.878 21.6833 104.837 21.6423 104.154 21.7527ZM119.221 21.7317C117.64 21.9114 116.245 22.5746 115.131 23.677C113.782 25.0114 113.086 26.7671 113.086 28.8364C113.086 30.9052 113.782 32.6634 115.13 33.9984C116.633 35.4868 118.684 36.1766 120.967 35.9614C122.687 35.7992 124.007 35.2291 125.159 34.1514C126.629 32.7767 127.338 31.0503 127.339 28.8481C127.34 26.3443 126.402 24.3882 124.539 23.0048C123.138 21.9651 121.216 21.5049 119.221 21.7317ZM148.75 21.7294C145.754 22.087 143.44 24.1718 142.793 27.0965C142.702 27.505 142.678 27.8753 142.678 28.8364C142.678 30.1783 142.751 30.6727 143.085 31.5757C143.553 32.8429 144.537 34.0833 145.68 34.8481C147.938 36.3585 151.456 36.383 153.734 34.9041C155.33 33.8686 156.371 32.3184 156.755 30.406C156.903 29.6697 156.903 28.0011 156.755 27.2628C156.466 25.8272 155.828 24.6294 154.826 23.6451C153.847 22.682 152.672 22.0725 151.298 21.8142C150.662 21.6946 149.395 21.6525 148.75 21.7294ZM127.921 22.1056C127.941 22.1811 129.011 25.265 130.299 28.9585L132.641 35.674H134.991H137.341L139.713 28.8669C141.018 25.123 142.086 22.0392 142.087 22.014C142.088 21.9889 141.297 21.9683 140.33 21.9683H138.571L138.098 23.3266C137.838 24.0737 137.099 26.2235 136.456 28.1038L135.286 31.5226H134.993H134.7L133.84 29.0196C133.367 27.6429 132.628 25.4931 132.197 24.2424L131.414 21.9683H129.649H127.884L127.921 22.1056ZM78.4129 24.5335C79.789 24.7233 80.9289 25.8891 81.262 27.4475L81.3044 27.6459H77.7361C73.6718 27.6459 74.0664 27.7114 74.289 27.0739C74.7785 25.6724 75.8705 24.7285 77.2294 24.5322C77.6872 24.4661 77.9254 24.4663 78.4129 24.5335ZM121.475 24.9816C122.526 25.3802 123.35 26.2526 123.727 27.3664C123.881 27.8197 123.894 27.9385 123.894 28.8364C123.894 29.738 123.881 29.8518 123.725 30.3147C123.306 31.5512 122.307 32.5042 121.114 32.8036C120.639 32.9226 119.782 32.9223 119.317 32.8029C117.347 32.2973 116.168 30.2053 116.583 27.9512C116.865 26.4181 117.936 25.2144 119.323 24.8697C119.904 24.7252 120.941 24.7792 121.475 24.9816ZM150.626 24.8685C151.349 25.0364 152.04 25.4754 152.562 26.097C153.68 27.4301 153.794 29.7394 152.816 31.231C152.116 32.2979 151.018 32.8962 149.761 32.8962C148.739 32.8962 147.963 32.578 147.223 31.8541C146.681 31.3233 146.322 30.6757 146.153 29.9233C146.026 29.3569 146.026 28.3175 146.153 27.7495C146.464 26.3549 147.523 25.2244 148.848 24.8737C149.287 24.7575 150.137 24.755 150.626 24.8685Z" fill="black"/>
</svg>
