<svg width="14" height="10" viewBox="0 0 14 10" fill="none" xmlns="http://www.w3.org/2000/svg">
<path fill-rule="evenodd" clip-rule="evenodd" d="M0.221433 0.196213C0.458316 0.404674 3.75619 3.41096 4.45326 4.05388C5.62271 5.13249 6.44044 5.85926 6.58107 5.94501C6.79567 6.07593 7.22849 6.07583 7.44319 5.94491C7.57634 5.86367 9.58232 4.05985 11.3177 2.46089C11.7921 2.02373 13.8011 0.192042 13.9485 0.0622631C14.0087 0.00922353 12.8689 -0.00101469 7.01026 7.5489e-05L0 0.00130782L0.221433 0.196213ZM0.0246036 5.00727V9.36372L0.13532 9.57521C0.216217 9.72973 0.305183 9.81543 0.465599 9.89335L0.685162 10H7.01203H13.3389L13.5585 9.89335C13.721 9.81439 13.8069 9.73082 13.889 9.57147L14 9.35623L13.9874 5.00091L13.9749 0.645603L13.4336 1.14348C9.95585 4.34254 7.84363 6.23315 7.62737 6.3406C7.28946 6.50849 6.74927 6.51626 6.41475 6.358C6.25887 6.28424 5.23688 5.38395 3.18804 3.51548C1.53886 2.01146 0.152395 0.751588 0.107026 0.715849C0.0300164 0.655083 0.0246036 0.937724 0.0246036 5.00727Z" fill="white"/>
</svg>
