<svg width="14" height="14" viewBox="0 0 14 14" fill="none" xmlns="http://www.w3.org/2000/svg">
<path fill-rule="evenodd" clip-rule="evenodd" d="M1.73637 0.0764757C1.64949 0.119581 1.29182 0.450219 0.941539 0.811248C0.267477 1.50595 0.170732 1.66481 0.0356037 2.29897C-0.0444667 2.67495 0.0157217 3.51286 0.164022 4.08644C0.655792 5.98853 1.89257 7.92478 3.91288 9.95553C4.88896 10.9367 5.50703 11.4691 6.40231 12.1C8.75183 13.7557 10.9684 14.3852 12.2705 13.7665C12.541 13.638 13.6509 12.654 13.862 12.3556C14.0342 12.1122 14.0464 11.7683 13.8922 11.5069C13.7232 11.2203 10.7171 8.21122 10.5279 8.13916C10.3334 8.06507 9.99872 8.06681 9.85397 8.14269C9.79048 8.17596 9.38332 8.55303 8.94917 8.9806C8.51502 9.40818 8.07101 9.80089 7.96247 9.85328C7.69296 9.98339 7.1372 10.0102 6.79358 9.9096C5.44961 9.51634 4.04036 7.87085 4.04036 6.69489C4.04036 6.12901 4.08061 6.06217 4.98176 5.13164C5.8762 4.20811 5.95109 4.08853 5.8912 3.67938C5.8582 3.45407 5.80881 3.3982 4.22107 1.7905C3.30586 0.863789 2.51502 0.103441 2.42622 0.0648055C2.21773 -0.0257747 1.93272 -0.0209577 1.73637 0.0764757Z" fill="white"/>
</svg>
