<svg width="20" height="20" viewBox="0 0 20 20" fill="none" xmlns="http://www.w3.org/2000/svg">
<g clip-path="url(#clip0_12_2243)">
<path d="M0.0619817 4.87229C0.314662 3.80027 1.31028 3 2.5 3H17.5C18.6897 3 19.6853 3.80027 19.938 4.87229L10 10.7206L0.0619817 4.87229ZM0 6.24649V14.797L7.25399 10.5153L0 6.24649ZM8.45175 11.2202L0.239839 16.0673C0.640755 16.8814 1.5021 17.4444 2.5 17.4444H17.5C18.4979 17.4444 19.3592 16.8814 19.7602 16.0673L11.5483 11.2202L10 12.1313L8.45175 11.2202ZM12.746 10.5153L20 14.797V6.24649L12.746 10.5153Z" fill="white"/>
</g>
<defs>
<clipPath id="clip0_12_2243">
<rect width="20" height="20" fill="white"/>
</clipPath>
</defs>
</svg>
