<svg width="20" height="20" viewBox="0 0 20 20" fill="none" xmlns="http://www.w3.org/2000/svg">
<g clip-path="url(#clip0_12_2241)">
<g clip-path="url(#clip1_12_2241)">
<path d="M0 2.77778C0 12.2893 7.71065 20 17.2222 20C17.6514 20 18.0768 19.9843 18.4981 19.9535C18.9815 19.9181 19.2233 19.9004 19.4433 19.7737C19.6255 19.6687 19.7984 19.4828 19.8897 19.2934C20 19.0647 20 18.7979 20 18.2644V15.1341C20 14.6855 20 14.4612 19.9262 14.2689C19.8609 14.099 19.755 13.9478 19.6177 13.8284C19.4622 13.6933 19.2514 13.6167 18.8298 13.4633L15.2666 12.1677C14.7761 11.9893 14.5308 11.9001 14.2981 11.9152C14.0929 11.9286 13.8955 11.9986 13.7277 12.1175C13.5375 12.2524 13.4032 12.4762 13.1347 12.9237L13.1346 12.9237L12.2222 14.4444C9.27793 13.111 6.891 10.721 5.55556 7.77778L7.07626 6.86536C7.52383 6.59681 7.74762 6.46254 7.88248 6.27229C8.00139 6.10454 8.07141 5.90708 8.08477 5.70189C8.09991 5.46919 8.01072 5.22392 7.83234 4.73338L6.53665 1.17023C6.38334 0.748624 6.30668 0.537815 6.17158 0.38233C6.05224 0.244988 5.90099 0.139054 5.73114 0.0738348C5.53884 0 5.31453 0 4.86591 0H1.73557C1.20209 0 0.935345 0 0.706643 0.110281C0.517225 0.201619 0.331264 0.37446 0.226336 0.556702C0.0996468 0.77674 0.0819456 1.01847 0.0465434 1.50192C0.0156954 1.92318 0 2.34864 0 2.77778Z" fill="white"/>
</g>
</g>
<defs>
<clipPath id="clip0_12_2241">
<rect width="20" height="20" fill="white"/>
</clipPath>
<clipPath id="clip1_12_2241">
<rect width="20" height="20" fill="white"/>
</clipPath>
</defs>
</svg>
