<svg width="640" height="338" viewBox="0 0 640 338" fill="none" xmlns="http://www.w3.org/2000/svg">
<path d="M587.793 39.0451L615.072 25.6577C617.254 24.5861 616.743 21.3402 614.345 20.983L480.826 1.01067C479.929 0.870897 479.604 2.14441 480.439 2.47055L582.47 42.1823C583.414 42.555 584.048 43.4713 584.048 44.4963V80.2323C584.048 82.3444 581.588 83.4937 579.979 82.1115L557.419 62.7759C556.583 62.0615 555.361 61.9838 554.432 62.605L522.588 84.146C521.428 84.938 519.85 84.5963 519.107 83.4005L469.252 2.47055C468.834 1.80274 469.577 1.0262 470.258 1.39894L543.694 42.0891C556.831 49.373 567.213 60.7724 573.279 74.548C578.23 85.7922 590.454 98.7603 595.127 103.155C670.559 174.084 643.125 298.328 555.484 327.573C419.908 372.829 305.854 242.838 339.895 198.28C369.434 159.625 395.831 253.6 302.822 268.712C201.286 285.205 183.832 193.714 121.97 173.229C48.6422 148.94 1 197.519 1 197.519" stroke="white" stroke-opacity="0.2" stroke-width="2" stroke-miterlimit="10" stroke-linecap="round" stroke-linejoin="round"/>
</svg>
