<?xml version="1.0" encoding="utf-8"?>
<svg xmlns="http://www.w3.org/2000/svg" xmlns:xlink="http://www.w3.org/1999/xlink">

<symbol fill="none" viewBox="0 0 60 60" id="kt_1" xmlns="http://www.w3.org/2000/svg"><g clip-path="url(#aclip0_59_3880)" fill-rule="evenodd" clip-rule="evenodd" fill="#fff"><path d="M.923 55.425H8.15V24.772H.923v30.653zm7.687.923H.461A.462.462 0 010 55.887V24.31c0-.255.207-.462.461-.462h8.15c.254 0 .46.207.46.462v31.576a.462.462 0 01-.46.461zM51.852 55.425h7.225V24.772h-7.225v30.653zm7.687.923H51.39a.462.462 0 01-.462-.461V24.31c0-.255.207-.462.462-.462h8.148c.255 0 .462.207.462.462v31.576a.462.462 0 01-.462.461z"/><path d="M30 48.708H8.61a.46.46 0 110-.923H30a.462.462 0 110 .923zm0 7.64H8.61a.462.462 0 010-.923H30a.46.46 0 110 .923z"/><path d="M19.305 48.708a3.362 3.362 0 00-3.358 3.358 3.362 3.362 0 003.358 3.36 3.363 3.363 0 003.358-3.36 3.363 3.363 0 00-3.358-3.358zm0 7.64a4.286 4.286 0 01-4.28-4.282c0-2.36 1.92-4.28 4.28-4.28 2.36 0 4.281 1.92 4.281 4.28a4.286 4.286 0 01-4.28 4.282zM51.39 56.348H30a.462.462 0 01-.462-.461v-7.64c0-.255.206-.462.461-.462H51.39a.461.461 0 010 .923H30.46v6.717H51.39a.46.46 0 110 .923z"/><path d="M40.694 48.708a3.362 3.362 0 00-3.358 3.358 3.362 3.362 0 003.358 3.36 3.362 3.362 0 003.358-3.36 3.362 3.362 0 00-3.358-3.358zm0 7.64c-2.36 0-4.28-1.92-4.28-4.282 0-2.36 1.92-4.28 4.28-4.28 2.36 0 4.281 1.92 4.281 4.28a4.286 4.286 0 01-4.28 4.282zM7.337 24.773a.462.462 0 01-.435-.618l1.053-2.947H1.117l1.052 2.948a.461.461 0 11-.869.31L.028 20.902a.46.46 0 01.433-.617h8.15a.462.462 0 01.434.617l-1.274 3.566a.46.46 0 01-.434.306z"/><path d="M8.61 21.207a.46.46 0 01-.304-.114l-3.77-3.299-3.77 3.3a.461.461 0 11-.609-.695l4.075-3.565a.461.461 0 01.608 0l4.074 3.565a.461.461 0 01-.304.808zM58.264 24.773a.46.46 0 01-.434-.618l1.053-2.947h-6.838l1.053 2.948a.462.462 0 01-.87.31l-1.273-3.565a.46.46 0 01.435-.617h8.148a.463.463 0 01.434.617L58.7 24.467a.462.462 0 01-.436.306z"/><path d="M51.39 21.207a.46.46 0 01-.304-.809l4.074-3.564a.461.461 0 01.608 0l4.075 3.565a.463.463 0 01-.609.694l-3.77-3.299-3.77 3.3a.459.459 0 01-.304.113zM8.61 29.505a.461.461 0 01-.12-.907c2.125-.575 3.786-2.226 5.545-3.973 4.876-4.842 10.126-7.254 15.61-7.169 5.301.082 10.6 2.49 15.75 7.155 1.934 1.751 3.76 3.405 6.105 3.984a.461.461 0 11-.22.896c-2.573-.635-4.483-2.364-6.504-4.196-10.153-9.196-20.839-9.201-30.09-.015-1.849 1.836-3.594 3.57-5.956 4.208a.462.462 0 01-.12.017zm0 3.285a.463.463 0 01-.073-.917c3.298-.534 5.492-2.714 7.818-5.022 8.275-8.218 17.437-8.223 26.498-.015 2.553 2.312 4.964 4.497 8.604 5.033a.461.461 0 11-.135.913c-3.916-.578-6.428-2.853-9.088-5.261-8.76-7.935-17.249-7.94-25.23-.015-2.432 2.415-4.73 4.697-8.32 5.278a.534.534 0 01-.074.006z"/><path d="M23.252 48.708a.461.461 0 01-.461-.461V15.214a.462.462 0 01.923 0v33.033a.46.46 0 01-.462.461zM15.359 48.708a.46.46 0 01-.462-.461V15.214a.462.462 0 01.923 0v33.033a.46.46 0 01-.461.461z"/><path d="M15.358 11.617c-.27.194-.712.593-.79 1.155-.074.537.192 1.137.79 1.787.6-.652.866-1.254.789-1.792-.078-.558-.52-.956-.788-1.15zm0 4.058a.465.465 0 01-.317-.125c-1.053-.994-1.52-1.973-1.386-2.913.183-1.29 1.439-1.95 1.492-1.977a.461.461 0 01.423 0c.053.026 1.309.688 1.491 1.977.133.94-.334 1.92-1.386 2.913a.462.462 0 01-.317.125zM23.252 11.617c-.27.194-.712.593-.79 1.155-.074.537.192 1.137.79 1.787.6-.652.866-1.254.789-1.792-.079-.558-.52-.956-.789-1.15zm0 4.058a.465.465 0 01-.317-.125c-1.053-.994-1.52-1.973-1.386-2.913.183-1.29 1.439-1.95 1.492-1.977a.461.461 0 01.423 0c.053.026 1.308.688 1.491 1.977.132.94-.334 1.92-1.387 2.913a.461.461 0 01-.316.125zM30 4.694c-.272.241-.688.708-.782 1.365-.098.688.165 1.442.781 2.251.62-.812.884-1.57.782-2.26-.096-.652-.511-1.116-.782-1.356zm0 4.8a.464.464 0 01-.344-.154c-1.057-1.183-1.511-2.335-1.35-3.425.21-1.422 1.403-2.164 1.453-2.196a.463.463 0 01.482 0c.05.031 1.243.774 1.453 2.196.161 1.09-.293 2.242-1.35 3.425a.465.465 0 01-.345.154zM36.748 48.708a.46.46 0 01-.462-.461V15.214a.462.462 0 01.923 0v33.033a.461.461 0 01-.461.461zM44.642 48.708a.46.46 0 01-.462-.461V15.214a.462.462 0 01.923 0v33.033a.461.461 0 01-.461.461z"/><path d="M44.642 11.617c-.27.194-.713.593-.79 1.155-.074.537.19 1.137.79 1.787.6-.652.865-1.254.79-1.792-.08-.558-.521-.956-.79-1.15zm0 4.058a.462.462 0 01-.317-.125c-1.053-.994-1.519-1.973-1.387-2.913.183-1.29 1.44-1.95 1.492-1.977a.461.461 0 01.423 0c.053.026 1.309.688 1.491 1.977.134.94-.332 1.92-1.385 2.913a.465.465 0 01-.317.125zM36.748 11.617c-.27.194-.713.593-.79 1.155-.073.537.192 1.137.79 1.787.6-.652.865-1.254.79-1.792-.08-.558-.521-.956-.79-1.15zm0 4.058a.462.462 0 01-.316-.125c-1.053-.994-1.52-1.973-1.387-2.913.182-1.29 1.438-1.95 1.491-1.977a.461.461 0 01.423 0c.053.026 1.31.688 1.492 1.977.133.94-.333 1.92-1.386 2.913a.465.465 0 01-.317.125zM.461 36.232a.46.46 0 01-.335-.778l8.149-8.658a.46.46 0 11.672.632L.798 36.086a.464.464 0 01-.337.146z"/><path d="M8.61 36.232a.46.46 0 01-.335-.146L.126 27.428a.462.462 0 11.672-.632l8.148 8.658a.46.46 0 01-.336.778zM8.61 44.889a.458.458 0 01-.335-.145L.126 36.087a.461.461 0 11.672-.632l8.148 8.657a.461.461 0 01-.336.778z"/><path d="M.461 44.889a.462.462 0 01-.335-.778l8.149-8.657a.46.46 0 11.672.632L.798 44.745a.463.463 0 01-.337.144zM.461 53.547a.462.462 0 01-.335-.778l8.149-8.658a.461.461 0 01.672.634L.798 53.4a.464.464 0 01-.337.146z"/><path d="M8.61 53.547a.46.46 0 01-.335-.146L.126 44.744a.461.461 0 11.672-.633l8.148 8.658a.461.461 0 01-.336.778zM51.39 36.232a.46.46 0 01-.337-.778l8.149-8.658a.462.462 0 11.672.632l-8.149 8.658a.46.46 0 01-.335.146z"/><path d="M59.538 36.232a.462.462 0 01-.336-.146l-8.149-8.658a.462.462 0 01.672-.632l8.149 8.658a.46.46 0 01-.336.778zM59.538 44.889a.46.46 0 01-.336-.145l-8.149-8.658a.462.462 0 01.672-.632l8.149 8.657a.462.462 0 01-.336.778z"/><path d="M51.39 44.889a.462.462 0 01-.337-.778l8.149-8.657a.462.462 0 11.672.632l-8.149 8.659a.458.458 0 01-.335.144zM51.39 53.547a.462.462 0 01-.337-.778l8.149-8.658a.463.463 0 01.672.634L51.725 53.4a.46.46 0 01-.335.146z"/><path d="M59.538 53.547a.462.462 0 01-.336-.146l-8.149-8.657a.462.462 0 01.672-.633l8.149 8.658a.462.462 0 01-.336.778zM30 56.348a.462.462 0 01-.462-.461V9.033a.462.462 0 01.923 0v46.854a.462.462 0 01-.462.461z"/></g><defs><clipPath id="aclip0_59_3880"><path fill="#fff" d="M0 0h60v60H0z"/></clipPath></defs></symbol>

<symbol fill="none" viewBox="0 0 60 61" id="kt_2" xmlns="http://www.w3.org/2000/svg"><g clip-path="url(#bclip0_59_3881)" fill-rule="evenodd" clip-rule="evenodd" fill="#fff"><path d="M20.628 10.084a.462.462 0 01-.45-.36l-1.857-8.3h-4.228l-1.857 8.3a.462.462 0 01-.901-.202L13.273.861a.461.461 0 01.451-.36h4.966c.217 0 .404.149.451.36l1.937 8.66a.46.46 0 01-.45.563z"/><path d="M12.292 10.084l3.915 2.788 3.916-2.788h-7.831zm3.915 3.816a.463.463 0 01-.268-.085l-5.36-3.816a.461.461 0 01.268-.838h10.72a.462.462 0 01.267.838l-5.359 3.815a.462.462 0 01-.268.086zM23.164 59.577h13.673V58.13a1.45 1.45 0 00-1.448-1.448H24.611a1.45 1.45 0 00-1.447 1.448v1.447zm14.135.923H22.702a.46.46 0 01-.461-.462V58.13a2.372 2.372 0 012.37-2.37l10.778-.001a2.374 2.374 0 012.371 2.37v1.91a.461.461 0 01-.461.461z"/><path d="M25.408 56.682a.462.462 0 01-.446-.58l.57-2.13a.461.461 0 01.445-.342h8.046c.209 0 .391.14.445.342l.57 2.13a.462.462 0 11-.892.238l-.477-1.787h-7.337l-.479 1.787a.462.462 0 01-.445.342z"/><path d="M34.023 54.553a.461.461 0 01-.459-.409l-1.092-9.531h-4.944l-1.093 9.531a.462.462 0 01-.917-.105l1.14-9.94a.46.46 0 01.458-.409h5.768a.46.46 0 01.458.409l1.14 9.94a.462.462 0 01-.46.514z"/><path d="M32.884 44.613a.46.46 0 01-.461-.462v-1.573h-4.845v1.573a.462.462 0 01-.923 0v-2.035c0-.254.207-.46.461-.46l5.768-.001a.46.46 0 01.46.462v2.034a.46.46 0 01-.46.462z"/><path d="M31.866 42.578a.462.462 0 010-.923.557.557 0 000-1.111h-3.733a.556.556 0 000 1.111.461.461 0 110 .923 1.48 1.48 0 01-1.478-1.479 1.48 1.48 0 011.478-1.478h3.733a1.48 1.48 0 010 2.957z"/><path d="M28.95 40.543a.461.461 0 01-.462-.461V17.525c0-4.691 1.648-9.055 4.64-12.288A16.088 16.088 0 0141.201.513a.461.461 0 11.216.897 15.18 15.18 0 00-7.612 4.454c-2.833 3.062-4.394 7.203-4.394 11.66v22.558a.461.461 0 01-.462.461zm2.1 0a.461.461 0 01-.461-.461V17.525c0-4.17 1.447-8.03 4.073-10.869a13.822 13.822 0 015.988-3.815.462.462 0 01.282.879 12.903 12.903 0 00-5.592 3.563c-2.469 2.667-3.828 6.305-3.828 10.242v22.557a.461.461 0 01-.462.461z"/><path d="M30 11.789a.462.462 0 01-.435-.307c-.756-2.128-1.89-4.018-3.37-5.618a15.178 15.178 0 00-7.613-4.454.461.461 0 11.216-.897 16.09 16.09 0 018.074 4.724c1.566 1.692 2.765 3.69 3.563 5.935a.461.461 0 01-.435.617zm-1.05 6.197a.462.462 0 01-.462-.461c0-3.937-1.36-7.574-3.828-10.242a12.916 12.916 0 00-5.592-3.563.462.462 0 11.283-.879 14.027 14.027 0 015.987 3.815c2.627 2.839 4.073 6.699 4.073 10.869a.462.462 0 01-.461.461zM39.372 10.084a.461.461 0 01-.45-.562L40.858.861a.462.462 0 01.45-.36h4.967c.216 0 .403.149.45.36l1.939 8.66a.462.462 0 01-.901.203l-1.857-8.3H41.68l-1.858 8.3a.461.461 0 01-.45.36z"/><path d="M39.877 10.084l3.916 2.788 3.917-2.788h-7.833zm3.916 3.816a.463.463 0 01-.268-.085l-5.36-3.816a.462.462 0 01.267-.838h10.721a.462.462 0 01.268.838l-5.36 3.815a.463.463 0 01-.268.086z"/></g><defs><clipPath id="bclip0_59_3881"><path fill="#fff" d="M0 0h60v60H0z"/></clipPath></defs></symbol>

<symbol fill="none" viewBox="0 0 61 60" id="kt_3" xmlns="http://www.w3.org/2000/svg"><g clip-path="url(#cclip0_59_3882)" fill-rule="evenodd" clip-rule="evenodd" fill="#fff"><path d="M9.904 19.185a.526.526 0 01-.526-.526v-3.326l-2.37-2.369-2.368 2.37v3.325a.526.526 0 01-1.053 0v-3.544c0-.14.056-.273.154-.372l2.895-2.895a.542.542 0 01.745 0l2.895 2.895a.527.527 0 01.154.372v3.544c0 .29-.235.526-.526.526zM4.114 36.94a.526.526 0 01-.527-.526V23.58a.526.526 0 111.053 0v12.832c0 .29-.236.527-.527.527zm5.79 0a.526.526 0 01-.526-.526V23.58a.526.526 0 111.052 0v12.832c0 .29-.235.527-.526.527zm0 11.36h-5.79a.526.526 0 01-.527-.526v-6.439a.526.526 0 111.053 0v5.913h4.738v-5.913a.526.526 0 111.052 0v6.439c0 .29-.235.526-.526.526zM19.4 19.185a.526.526 0 01-.526-.526v-3.326l-2.369-2.369-2.369 2.37v3.325a.526.526 0 01-1.052 0v-3.544c0-.14.055-.273.154-.372l2.895-2.895a.542.542 0 01.744 0l2.896 2.895a.527.527 0 01.154.372v3.544c0 .29-.236.526-.527.526zM13.61 36.94a.526.526 0 01-.526-.526V23.58a.526.526 0 111.052 0v12.832c0 .29-.236.527-.526.527zm5.79 0a.526.526 0 01-.526-.526V23.58a.526.526 0 111.053 0v12.832c0 .29-.236.527-.527.527zm0 11.36h-5.79a.526.526 0 01-.526-.526v-6.439a.526.526 0 111.052 0v5.913h4.738v-5.913a.526.526 0 111.053 0v6.439c0 .29-.236.526-.527.526zM28.897 19.185a.526.526 0 01-.526-.526v-3.326L26 12.964l-2.368 2.37v3.325a.526.526 0 01-1.053 0v-3.544c0-.14.056-.273.154-.372l2.895-2.895a.542.542 0 01.745 0l2.895 2.895a.526.526 0 01.154.372v3.544c0 .29-.235.526-.526.526zm-5.79 17.755a.526.526 0 01-.527-.526V23.58a.526.526 0 111.053 0v12.832c0 .29-.236.527-.526.527zm5.79 0a.526.526 0 01-.526-.526V23.58a.526.526 0 111.052 0v12.832c0 .29-.235.527-.526.527zm0 11.36h-5.79a.526.526 0 01-.527-.526v-6.439a.526.526 0 111.053 0v5.913h4.738v-5.913a.526.526 0 111.052 0v6.439c0 .29-.235.526-.526.526zM38.394 19.185a.526.526 0 01-.527-.526v-3.326l-2.369-2.369-2.369 2.37v3.325a.526.526 0 01-1.052 0v-3.544c0-.14.055-.273.154-.372l2.895-2.895a.542.542 0 01.744 0l2.896 2.895a.526.526 0 01.154.372v3.544c0 .29-.236.526-.526.526zM32.603 36.94a.526.526 0 01-.526-.526V23.58a.526.526 0 111.052 0v12.832c0 .29-.236.527-.526.527zm5.79 0a.526.526 0 01-.526-.526V23.58a.526.526 0 111.053 0v12.832c0 .29-.236.527-.526.527zm0 11.36h-5.79a.526.526 0 01-.526-.526v-6.439a.526.526 0 111.052 0v5.913h4.738v-5.913a.526.526 0 111.053 0v6.439c0 .29-.236.526-.526.526zM47.89 19.185a.526.526 0 01-.527-.526v-3.326l-2.368-2.369-2.37 2.37v3.325a.526.526 0 01-1.052 0v-3.544c0-.14.056-.273.154-.372l2.895-2.895a.542.542 0 01.745 0l2.895 2.895a.527.527 0 01.154.372v3.544c0 .29-.235.526-.526.526zM42.1 36.94a.526.526 0 01-.527-.526V23.58a.526.526 0 111.053 0v12.832c0 .29-.236.527-.527.527zm5.79 0a.526.526 0 01-.527-.526V23.58a.526.526 0 111.053 0v12.832c0 .29-.235.527-.526.527zm0 11.36H42.1a.526.526 0 01-.527-.526v-6.439a.526.526 0 111.053 0v5.913h4.738v-5.913a.526.526 0 111.052 0v6.439c0 .29-.235.526-.526.526zM57.386 19.185a.526.526 0 01-.526-.526v-3.326l-2.369-2.369-2.369 2.37v3.325a.526.526 0 01-1.053 0v-3.544c0-.14.056-.273.154-.372l2.896-2.895a.542.542 0 01.744 0l2.895 2.895a.527.527 0 01.154.372v3.544c0 .29-.235.526-.526.526zm-5.79 17.755a.526.526 0 01-.527-.526V23.58a.526.526 0 011.053 0v12.832c0 .29-.236.527-.526.527zm5.79 0a.526.526 0 01-.526-.526V23.58a.526.526 0 111.053 0v12.832c0 .29-.236.527-.527.527zm0 11.36h-5.79a.526.526 0 01-.527-.526v-6.439a.526.526 0 011.053 0v5.913h4.738v-5.913a.526.526 0 111.053 0v6.439c0 .29-.236.526-.527.526z"/><path d="M1.802 23.054h57.895v-3.869H1.802v3.87zm58.422 1.053H1.276a.526.526 0 01-.526-.526v-4.922c0-.29.235-.526.526-.526h58.948c.29 0 .526.235.526.526v4.922c0 .29-.236.526-.526.526zM1.802 40.81h57.895v-3.87H1.802v3.87zm58.422 1.051H1.276a.526.526 0 01-.526-.525v-4.922c0-.291.235-.526.526-.526h58.948c.29 0 .526.235.526.526v4.921c0 .291-.236.527-.526.526z"/><path d="M54.491 20.627a.494.494 0 10.001.987.494.494 0 00-.001-.988zm0 2.039a1.548 1.548 0 01-1.546-1.546c0-.853.694-1.546 1.546-1.546.852 0 1.546.693 1.546 1.546 0 .852-.694 1.546-1.546 1.546zM44.995 20.627a.494.494 0 100 .987.494.494 0 000-.988zm0 2.039a1.548 1.548 0 01-1.546-1.546c0-.853.693-1.546 1.546-1.546.852 0 1.545.693 1.545 1.546 0 .852-.693 1.546-1.545 1.546zM35.498 20.627a.494.494 0 10.002.987.494.494 0 00-.002-.988zm0 2.039a1.547 1.547 0 01-1.546-1.546c0-.853.694-1.546 1.546-1.546.852 0 1.546.693 1.546 1.546 0 .852-.694 1.546-1.546 1.546zM26.002 20.627a.494.494 0 100 .987.494.494 0 000-.988zm0 2.039a1.547 1.547 0 01-1.546-1.546c0-.853.693-1.546 1.546-1.546.852 0 1.545.693 1.545 1.546 0 .852-.693 1.546-1.545 1.546zM16.505 20.627a.494.494 0 10.002.987.494.494 0 00-.002-.988zm0 2.039a1.548 1.548 0 01-1.545-1.546c0-.853.693-1.546 1.545-1.546.853 0 1.546.693 1.546 1.546 0 .852-.693 1.546-1.546 1.546zM7.009 20.627a.494.494 0 100 .987.494.494 0 000-.988zm0 2.039a1.548 1.548 0 01-1.546-1.546c0-.853.693-1.546 1.546-1.546.852 0 1.545.693 1.545 1.546 0 .852-.693 1.546-1.545 1.546zM54.491 38.381a.494.494 0 10.001.988.494.494 0 00-.001-.988zm0 2.04a1.547 1.547 0 01-1.546-1.546c0-.853.694-1.546 1.546-1.546.852 0 1.546.693 1.546 1.546 0 .852-.694 1.545-1.546 1.545zM44.995 38.381a.494.494 0 100 .988.494.494 0 000-.988zm0 2.04a1.547 1.547 0 01-1.546-1.546c0-.853.693-1.546 1.546-1.546.852 0 1.545.693 1.545 1.546 0 .852-.693 1.545-1.545 1.545zM35.498 38.381a.494.494 0 10.001.988.494.494 0 00-.001-.988zm0 2.04a1.547 1.547 0 01-1.546-1.546c0-.853.694-1.546 1.546-1.546.852 0 1.546.693 1.546 1.546 0 .852-.694 1.545-1.546 1.545zM26.002 38.381a.494.494 0 100 .988.494.494 0 000-.988zm0 2.04a1.547 1.547 0 01-1.546-1.546c0-.853.693-1.546 1.546-1.546a1.547 1.547 0 010 3.091zM16.505 38.381a.494.494 0 10.002.988.494.494 0 00-.002-.988zm0 2.04a1.547 1.547 0 01-1.545-1.546c0-.853.693-1.546 1.545-1.546a1.547 1.547 0 010 3.091zM7.009 38.381a.494.494 0 100 .988.494.494 0 000-.988zm0 2.04a1.547 1.547 0 01-1.546-1.546c0-.853.693-1.546 1.546-1.546.852 0 1.545.693 1.545 1.546 0 .852-.693 1.545-1.545 1.545z"/></g><defs><clipPath id="cclip0_59_3882"><path fill="#fff" d="M0 0h60v60H0z"/></clipPath></defs></symbol>

<symbol fill="none" viewBox="0 0 61 61" id="kt_4" xmlns="http://www.w3.org/2000/svg"><path d="M52.321 17.563c-2.274-3.835-5.394-7.019-9.228-9.229h-.065A25.275 25.275 0 0030.42 4.955c-4.419 0-8.773 1.17-12.607 3.38h-.065a25.46 25.46 0 00-9.164 9.228v.065C6.31 21.397 5.14 25.75 5.14 30.17c0 4.42 1.17 8.774 3.38 12.673l.064.065a25.46 25.46 0 009.229 9.163h.065c3.834 2.21 8.188 3.38 12.542 3.38h14.233c.325 0 .52-.26.52-.52 0-.325-.26-.52-.52-.52h-8.514V41.088h8.514c.325 0 .52-.26.52-.52 0-.325-.26-.52-.52-.52H30.42c-5.394 0-9.813-4.419-9.813-9.813 0-5.394 4.42-9.813 9.813-9.813 5.394-.065 9.814 4.354 9.814 9.748v4.225c0 .324.26.52.52.52H55.18c.325 0 .52-.26.52-.52V30.17a24.006 24.006 0 00-3.38-12.607zM31.005 41.088h4.03v13.323h-4.03V41.088zm-5.264-1.04c1.235.585 2.535.91 3.9 1.04h.26v13.323h-.325c-3.705-.13-7.214-1.105-10.463-2.795l-.325-.195 6.628-11.502.325.13zm-4.289-3.704a11.948 11.948 0 002.86 2.86l.26.195L17.878 50.9l-.26-.195a25.385 25.385 0 01-7.669-7.668l-.195-.26 11.503-6.629.195.195zm-.715-1.17L9.17 41.804l-.13-.26c-1.754-3.25-2.664-6.76-2.794-10.464v-.325h13.322v.26c.13 1.365.455 2.665 1.04 3.9l.13.26zm-.13-9.683c-.585 1.235-.91 2.535-1.04 3.9v.26H6.245v-.325c.13-3.705 1.105-7.214 2.794-10.463l.13-.26 11.568 6.628-.13.26zm3.64-4.289c-1.105.78-2.08 1.69-2.86 2.86l-.13.194-11.503-6.628.195-.26a25.385 25.385 0 017.669-7.669l.26-.195 6.628 11.503-.26.195zm5.654-1.885h-.26c-1.365.13-2.665.455-3.9 1.04l-.26.13-6.693-11.503.26-.13C22.296 7.1 25.805 6.19 29.51 6.06h.325v13.257h.065zm5.263 1.04c-1.234-.585-2.534-.91-3.899-1.04h-.26V5.995h.325c3.705.13 7.214 1.105 10.463 2.794l.26.13-6.628 11.568-.26-.13zm4.29 3.704a11.948 11.948 0 00-2.86-2.859l-.26-.195 6.629-11.503.26.195a25.386 25.386 0 017.669 7.669l.194.26-11.502 6.628-.13-.195zm15.207 9.814H41.338v-3.12h13.323v3.12zm0-4.225H41.338v-.26c-.13-1.364-.455-2.664-1.04-3.899l-.13-.26 11.503-6.629.13.26c1.755 3.25 2.665 6.76 2.795 10.464l.065.324z" fill="#fff"/></symbol>

<symbol fill="none" viewBox="0 0 61 60" id="kt_5" xmlns="http://www.w3.org/2000/svg"><path d="M51.035 18.835A22.853 22.853 0 0042.67 8.604h-.065C39.002 6.287 34.82 5 30.572 5c-4.311 0-8.43 1.223-12.098 3.604-3.796 2.51-6.628 5.984-8.365 10.167v.064C9.079 21.474 8.5 24.241 8.5 27.072v27.413c0 .322.257.515.515.515a.508.508 0 00.515-.515V52.04H23.3v2.445c0 .322.258.515.515.515H37.2a.508.508 0 00.515-.515V52.04h13.77v2.445c0 .322.258.515.516.515a.508.508 0 00.514-.515V27.136c.13-2.831-.45-5.598-1.48-8.3 0 0 0 .064 0 0zM31.023 6.094h.321c3.54.129 6.95 1.158 9.974 2.96l.258.129-7.529 12.805-.257-.128c-.773-.386-1.61-.644-2.446-.708h-.257V6.094h-.064zM19.697 9.118a20.942 20.942 0 019.974-2.96h.322v14.994h-.258c-.836.064-1.673.322-2.445.708l-.257.128-7.594-12.74.258-.13zm3.54 41.828H9.464v-6.178h13.771v6.178zm0-7.272H9.464v-6.177h13.771v6.177zm0-7.271H9.464v-6.178h13.771v6.178zm.514-10.618a6.9 6.9 0 00-.45 2.51v.836H9.464v-1.995c0-2.38.386-4.761 1.223-7.014l.129-.322 12.998 5.728-.064.257zm-12.548-7.014l.128-.258c1.545-3.346 3.926-6.306 6.886-8.43l.257-.192 7.594 12.677-.194.193c-.514.45-1.03.965-1.415 1.608l-.129.13-13.127-5.728zm25.482 35.2H24.33V28.294a6.18 6.18 0 016.178-6.178 6.18 6.18 0 016.177 6.178V53.97zm-.128-29.666a8.195 8.195 0 00-1.416-1.609l-.193-.193L42.54 9.826l.258.193c3.024 2.188 5.405 5.084 6.885 8.43l.129.258-13.128 5.727-.128-.129zm14.993 26.64H37.715v-6.177h13.77v6.178h.065zm0-7.27H37.715v-6.178h13.77v6.177h.065zm0-7.272H37.715v-6.178h13.77v6.178h.065zm0-7.272H37.715v-.836c0-.837-.129-1.673-.45-2.51l-.065-.257L50.263 19.8l.129.321c.772 2.253 1.222 4.634 1.222 7.014v1.995h-.064z" fill="#fff"/></symbol>

<symbol fill="none" viewBox="0 0 41 41" id="kt_6" xmlns="http://www.w3.org/2000/svg"><path d="M43.778 8.944a2.432 2.432 0 00-1.17-.325c-.195 0-.455 0-.65.065-.585.195-1.105.65-1.43 1.17-.52 1.105-.13 2.405.91 2.99.91.52 1.82 1.17 2.665 1.884l.26.26-8.059 6.629-.195-.26c-.455-.52-.91-.975-1.364-1.365-.13-.065-.195-.13-.325-.13a.59.59 0 00-.455.195c-.065.13-.13.26-.13.39s.065.26.195.39c2.014 1.625 3.12 3.964 3.12 6.564 0 4.614-3.77 8.383-8.384 8.383-4.614 0-8.384-3.769-8.384-8.383 0-4.614 3.77-8.384 8.384-8.384.39 0 .845 0 1.234.066h.065c.26 0 .52-.195.52-.455.065-.325-.195-.585-.455-.65-.454-.065-.91-.13-1.364-.13-.26 0-.585 0-.845.065h-.26l-2.47-7.149.325-.065c1.235-.325 2.535-.52 3.77-.65 1.17-.065 2.144-1.105 2.144-2.274 0-.65-.26-1.235-.715-1.69-.39-.39-.974-.585-1.56-.585h-.194C15.833 6.475 5.5 17.588 5.5 30.78c0 7.019 2.924 13.778 8.059 18.522 4.679 4.354 10.853 6.824 17.221 6.824.585 0 1.235 0 1.885-.066 12.413-.91 22.486-10.917 23.46-23.33.715-9.748-4.029-18.847-12.347-23.786zm-6.694 13.843l-.13-.26 8.254-6.694.195.195a20.555 20.555 0 014.354 6.369l.195.39-12.153 1.625-.065-.26c-.195-.455-.39-.91-.65-1.365zm1.04 2.99l-.065-.326 12.283-1.69.065.26a21.257 21.257 0 011.104 6.694v.845l-13.387-2.664.065-.26c.065-.455.065-.845.065-1.235 0-.52-.065-.975-.13-1.625zm-1.3 6.628c.455-.715.78-1.43.975-2.145l.065-.26 13.582 2.73v.26c-.325 2.86-1.234 5.719-2.73 8.253l-.194.325-11.828-8.903.13-.26zm-2.73 2.86c.585-.39 1.17-.91 1.755-1.495l.195-.195 11.893 8.903-.195.26a21.8 21.8 0 01-2.794 3.184 20.377 20.377 0 01-3.315 2.535l-.26.195-7.538-13.258.26-.13zm-3.899 1.494c.845-.13 1.625-.39 2.405-.715l.26-.13 7.538 13.193-.26.13c-2.664 1.364-5.523 2.08-8.513 2.21H31.3l-1.43-14.623.325-.065zm-4.224-.26c.845.26 1.69.39 2.535.39h.26l1.364 14.557h-.325-.52c-2.794-.195-5.458-.974-7.993-2.274l-.26-.13 4.55-12.673.39.13zm-3.64-2.144c.65.585 1.366 1.104 2.145 1.494l.26.13-4.549 12.543-.325-.195c-2.404-1.495-4.419-3.38-5.979-5.654l-.13-.195 8.384-8.253.195.13zm-1.169-1.235l.195.195-8.253 8.123-.195-.325c-1.43-2.534-2.34-5.264-2.665-8.188v-.26L19.667 30l.065.26c.325 1.04.78 1.95 1.43 2.86zm-1.82-4.484l.065.26-9.293 2.6v-.39a20.205 20.205 0 011.105-7.085l.065-.26 8.318 1.17-.065.325c-.195.715-.26 1.43-.26 2.145 0 .39 0 .78.065 1.235zm2.47-7.734a10.538 10.538 0 00-1.82 2.73l-.065.195-8.253-1.105.195-.39c1.17-2.6 2.794-4.94 4.939-6.889l.26-.195 5.004 5.394-.26.26zm4.744-2.73l-.325.066a9.698 9.698 0 00-3.184 1.56l-.195.194-5.004-5.394.26-.195a21.475 21.475 0 015.719-3.184l.324-.13 2.405 7.084zM55.021 32.6C54.11 44.493 44.493 54.11 32.6 54.956c-.585.065-1.17.065-1.82.065-6.109 0-12.023-2.34-16.507-6.5C9.4 43.974 6.54 37.475 6.54 30.782c0-12.608 9.878-23.266 22.42-24.176h.066c.325 0 .584.13.78.325.26.26.39.585.39.91 0 .65-.456 1.17-1.105 1.17-1.625.13-3.25.454-4.875.91h-.065c-2.729.844-5.264 2.274-7.473 4.158h-.065l-.065.065h-.065c-2.73 2.34-4.81 5.33-6.174 8.709-.065.065-.065.13-.065.195v.13C9.14 26.1 8.75 29.156 8.944 32.21c.715 10.788 9.424 19.496 20.212 20.211.52.065.974.065 1.56.065h.064c5.524 0 10.788-2.08 14.817-5.849a25.239 25.239 0 003.38-3.964v-.065c1.95-3.054 3.184-6.564 3.444-10.203.065-.65.065-1.17.065-1.625 0-2.534-.455-5.069-1.365-7.473v-.13c0-.065-.065-.13-.13-.26a21.54 21.54 0 00-5.523-8.124h-.066a21.286 21.286 0 00-3.639-2.73c-.585-.324-.78-.974-.455-1.559.13-.325.39-.52.715-.65.13-.065.195-.065.325-.065.195 0 .39.065.585.195 8.253 4.614 12.738 13.323 12.088 22.616z" fill="#fff"/></symbol>

<symbol fill="none" viewBox="0 0 61 60" id="kt_7" xmlns="http://www.w3.org/2000/svg"><g clip-path="url(#gclip0_59_3886)" fill-rule="evenodd" clip-rule="evenodd" fill="#fff"><path d="M34.965 28.268c3.123 0 5.602.018 7.453.033 2.007.014 3.51.025 4.422 0l-.041-.02c-2.02-1.021-6.155-3.114-6.938-7.424H28.419c-.783 4.31-4.92 6.403-6.939 7.423a1.02 1.02 0 01-.04.022c.912.024 2.414.013 4.422-.001 2.011-.016 4.766-.036 8.277-.033h.826zm10.395.971c-.777 0-1.745-.007-2.95-.017-2.008-.014-4.76-.035-8.27-.03-3.51-.005-6.262.016-8.272.03-2.086.017-3.466.027-4.367.003-1.037-.027-1.63-.066-1.748-.553-.119-.492.33-.719 1.311-1.215 1.94-.98 5.975-3.022 6.501-7.12a.462.462 0 01.458-.403h12.233a.46.46 0 01.458.403c.527 4.098 4.562 6.14 6.502 7.12.982.496 1.43.723 1.311 1.215-.119.487-.71.526-1.747.553-.382.01-.85.014-1.42.014z"/><path d="M41.615 52.727a.46.46 0 01-.458-.524l3.232-23.489a.462.462 0 01.915.126l-3.232 23.488a.462.462 0 01-.457.4zm-14.95 0a.461.461 0 01-.457-.399L22.977 28.84a.46.46 0 11.913-.126l3.233 23.49a.46.46 0 01-.458.523z"/><path d="M26.17 52.727a.44.44 0 000 .88h15.94a.44.44 0 000-.88H26.17zm15.94 1.803H26.17a1.365 1.365 0 01-1.363-1.363c0-.75.612-1.363 1.363-1.363h15.94a1.364 1.364 0 010 2.726z"/><path d="M34.14 60a5.938 5.938 0 01-5.931-5.931.462.462 0 01.922 0 5.015 5.015 0 005.009 5.008 5.015 5.015 0 005.01-5.008.462.462 0 01.922 0c0 3.27-2.66 5.931-5.932 5.931zM32.971 20.857a.462.462 0 01-.461-.461V7.536c0-1.888-.886-3.285-2.494-3.932a4.956 4.956 0 00-1.828-.343c-.634 0-1.267.119-1.827.343-2.747 1.105-2.633 4.458-2.531 7.416.018.535.035 1.04.035 1.521a.458.458 0 01-.462.462l-6.688-.002a.462.462 0 010-.923l6.222.002c-.006-.33-.018-.672-.03-1.029-.106-3.1-.238-6.958 3.11-8.302.669-.27 1.42-.411 2.171-.411.752 0 1.504.141 2.172.41 1.953.785 3.073 2.53 3.073 4.788v12.86a.462.462 0 01-.462.461zm2.338 0a.462.462 0 01-.461-.461V7.536c0-2.864-1.445-5.087-3.962-6.099a7.313 7.313 0 00-2.698-.514c-.925 0-1.858.178-2.697.514-3.989 1.604-3.977 4.447-3.961 8.047v.644a.46.46 0 01-.46.462l-4.354.006a.462.462 0 01-.001-.923l3.892-.005v-.18c-.016-3.636-.03-7.07 4.54-8.906A8.213 8.213 0 0128.188 0c1.043 0 2.095.2 3.042.582 2.844 1.141 4.54 3.741 4.54 6.954v12.86a.462.462 0 01-.46.461z"/><path d="M12.416 16.26a.462.462 0 010-.923 4.007 4.007 0 004.002-4.002 4.007 4.007 0 00-4.002-4.002.462.462 0 010-.923 4.93 4.93 0 014.925 4.925 4.93 4.93 0 01-4.925 4.925z"/><path d="M12.416 18.174a.462.462 0 01-.462-.462V5.065a.46.46 0 11.923 0v12.647a.462.462 0 01-.461.462zM34.14 52.727a.462.462 0 01-.462-.461V28.73a.462.462 0 11.923 0v23.536a.462.462 0 01-.461.462z"/></g><defs><clipPath id="gclip0_59_3886"><path fill="#fff"  d="M0 0h60v60H0z"/></clipPath></defs></symbol>

</svg>