<svg width="442" height="88" viewBox="0 0 442 88" fill="none" xmlns="http://www.w3.org/2000/svg">
<path d="M0 8.36792H9.87704V60.5643H37.9886V69.3438H0V8.36792Z" fill="#241E46"/>
<path d="M47.1748 24.0063H57.0518V69.7554H47.1748V24.0063Z" fill="#241E46"/>
<path d="M98.4251 61.0444V69.3437C95.386 70.0296 92.6232 70.3725 90.2748 70.3725C84.9564 70.3725 80.8122 69.0693 77.7731 66.3944C74.8031 63.788 73.2835 59.7412 73.2835 54.4598V32.0997H65.7549V23.5947H73.2835V11.5916H83.2296V23.5947H96.9056V32.0997H83.2296V53.6368C83.2296 56.5861 83.9894 58.5752 85.509 59.8098C87.0285 60.9758 89.3078 61.5931 92.2778 61.5931C93.6593 61.5245 95.7314 61.3873 98.4251 61.0444Z" fill="#241E46"/>
<path d="M132.615 61.0444V69.3437C129.575 70.0296 126.813 70.3725 124.464 70.3725C119.146 70.3725 115.002 69.0693 111.963 66.3944C108.993 63.788 107.473 59.7412 107.473 54.4598V32.0997H99.9443V23.5947H107.473V11.5916H117.419V23.5947H131.095V32.0997H117.419V53.6368C117.419 56.5861 118.179 58.5752 119.698 59.8098C121.218 60.9758 123.497 61.5931 126.467 61.5931C127.918 61.5245 129.99 61.3873 132.615 61.0444Z" fill="#241E46"/>
<path d="M142.216 11.5916H152.093V69.3437H142.216V11.5916Z" fill="#241E46"/>
<path d="M204.517 48.6985H170.189C170.811 52.4023 172.469 55.3516 175.231 57.4779C177.925 59.6042 181.31 60.7016 185.247 60.7016C190.082 60.7016 194.502 58.9183 198.646 55.283L203.343 62.0048C198.094 66.9432 191.946 69.3438 184.97 69.3438C180.274 69.3438 176.06 68.315 172.33 66.2573C168.601 64.1996 165.631 61.3189 163.489 57.6836C161.348 54.0484 160.243 50.0017 160.243 45.5434C160.243 41.1536 161.279 37.1069 163.351 33.4031C165.423 29.7678 168.324 26.8871 171.985 24.7608C175.646 22.6346 179.652 21.6057 184.003 21.6057C188.078 21.6057 191.739 22.4974 194.916 24.3493C198.163 26.2012 200.649 28.6704 202.514 31.8255C204.379 34.9806 205.277 38.5473 205.277 42.5254C205.277 44.4459 205.001 46.5036 204.517 48.6985ZM183.589 29.8364C180.343 29.8364 177.511 30.8653 175.093 32.8543C172.676 34.8434 171.087 37.587 170.327 41.0165H195.4C195.331 37.5184 194.157 34.7748 191.877 32.8543C189.598 30.8653 186.835 29.8364 183.589 29.8364Z" fill="#241E46"/>
<path d="M281.531 59.1239H253.695L249.275 69.3437H238.707L265.921 6.85889H269.305L296.588 69.3437H285.951L281.531 59.1239ZM267.647 25.2408L257.218 50.6874H277.939L267.647 25.2408Z" fill="#241E46"/>
<path d="M328.083 23.5947V32.0998H325.113C321.245 32.0998 317.999 33.403 315.443 35.5978C312.888 37.7927 311.575 40.9478 311.575 44.926V69.3437H301.698V23.5947H310.885V29.562C312.542 27.5043 313.855 26.4755 316.203 25.3095C318.551 24.1434 320.693 23.6633 324.077 23.5947C325.458 23.5947 326.84 23.5947 328.083 23.5947Z" fill="#241E46"/>
<path d="M364 61.0444V69.3437C360.961 70.0296 358.198 70.3725 355.85 70.3725C350.532 70.3725 346.387 69.0693 343.348 66.3944C340.378 63.788 338.859 59.7412 338.859 54.4598V32.0997H331.33V23.5947H338.859V11.5916H348.805V23.5947H362.481V32.0997H348.805V53.6368C348.805 56.5861 349.565 58.5752 351.084 59.8098C352.604 60.9758 354.883 61.5931 357.853 61.5931C359.303 61.5245 361.376 61.3873 364 61.0444Z" fill="#241E46"/>
<path d="M52.0794 13.4435C55.8178 13.4435 58.8483 10.4341 58.8483 6.72175C58.8483 3.00943 55.8178 0 52.0794 0C48.3411 0 45.3105 3.00943 45.3105 6.72175C45.3105 10.4341 48.3411 13.4435 52.0794 13.4435Z" fill="#FFD500"/>
<path d="M257.218 50.6187L267.647 25.2407L277.939 50.6187H257.218Z" fill="#E30613"/>
<path d="M437.969 39.0859V46.625H384.805V39.0859H437.969Z" fill="#241E46"/>
</svg>
