<?xml version="1.0" encoding="utf-8"?>
<!-- Generator: Adobe Illustrator 24.3.0, SVG Export Plug-In . SVG Version: 6.00 Build 0)  -->
<svg version="1.1" id="Layer_1" xmlns="http://www.w3.org/2000/svg" xmlns:xlink="http://www.w3.org/1999/xlink" x="0px" y="0px"
	 width="185.374px" height="18.352px" viewBox="0 0 185.374 18.352" enable-background="new 0 0 185.374 18.352"
	 xml:space="preserve">
<g>
	<path fill="#F4D178" d="M5.408,16.288c-0.907,0-1.686-0.158-2.336-0.472c-0.65-0.314-1.152-0.8-1.504-1.456
		c-0.352-0.656-0.549-1.48-0.592-2.472c-0.011-0.469-0.016-0.92-0.016-1.352c0-0.432,0.005-0.883,0.016-1.352
		c0.042-0.981,0.248-1.8,0.616-2.456c0.368-0.656,0.88-1.146,1.536-1.472c0.656-0.325,1.416-0.488,2.28-0.488
		c0.875,0,1.64,0.163,2.296,0.488c0.656,0.326,1.17,0.816,1.544,1.472c0.373,0.656,0.576,1.475,0.608,2.456
		c0.021,0.469,0.032,0.92,0.032,1.352c0,0.432-0.011,0.882-0.032,1.352c-0.032,0.992-0.227,1.816-0.584,2.472
		c-0.357,0.656-0.861,1.142-1.512,1.456C7.109,16.13,6.325,16.288,5.408,16.288z M5.408,14.928c0.821,0,1.49-0.245,2.008-0.736
		c0.517-0.49,0.797-1.285,0.84-2.384c0.021-0.48,0.032-0.91,0.032-1.288S8.277,9.717,8.256,9.248
		C8.234,8.512,8.099,7.915,7.848,7.456c-0.251-0.458-0.584-0.794-1-1.008c-0.416-0.213-0.896-0.32-1.44-0.32
		c-0.523,0-0.992,0.107-1.408,0.32c-0.416,0.214-0.75,0.55-1,1.008C2.749,7.915,2.608,8.512,2.576,9.248
		C2.565,9.717,2.56,10.142,2.56,10.52s0.005,0.808,0.016,1.288c0.042,1.099,0.325,1.894,0.848,2.384
		C3.946,14.683,4.608,14.928,5.408,14.928z"/>
	<path fill="#F4D178" d="M16.24,16.288c-0.907,0-1.686-0.158-2.336-0.472c-0.65-0.314-1.152-0.8-1.504-1.456
		c-0.352-0.656-0.549-1.48-0.592-2.472c-0.011-0.469-0.016-0.92-0.016-1.352c0-0.432,0.005-0.883,0.016-1.352
		c0.042-0.981,0.248-1.8,0.616-2.456c0.368-0.656,0.88-1.146,1.536-1.472c0.656-0.325,1.416-0.488,2.28-0.488
		c0.875,0,1.64,0.163,2.296,0.488c0.656,0.326,1.17,0.816,1.544,1.472c0.373,0.656,0.576,1.475,0.608,2.456
		c0.021,0.469,0.032,0.92,0.032,1.352c0,0.432-0.011,0.882-0.032,1.352c-0.032,0.992-0.227,1.816-0.584,2.472
		c-0.357,0.656-0.861,1.142-1.512,1.456C17.941,16.13,17.157,16.288,16.24,16.288z M16.24,14.928c0.821,0,1.49-0.245,2.008-0.736
		c0.517-0.49,0.797-1.285,0.84-2.384c0.021-0.48,0.032-0.91,0.032-1.288s-0.011-0.803-0.032-1.272
		c-0.021-0.736-0.157-1.333-0.408-1.792c-0.251-0.458-0.584-0.794-1-1.008c-0.416-0.213-0.896-0.32-1.44-0.32
		c-0.523,0-0.992,0.107-1.408,0.32c-0.416,0.214-0.75,0.55-1,1.008c-0.251,0.458-0.392,1.056-0.424,1.792
		c-0.011,0.469-0.016,0.894-0.016,1.272s0.005,0.808,0.016,1.288c0.042,1.099,0.325,1.894,0.848,2.384
		C14.778,14.683,15.439,14.928,16.24,14.928z"/>
	<path fill="#F4D178" d="M27.072,16.288c-0.907,0-1.686-0.158-2.336-0.472c-0.65-0.314-1.152-0.8-1.504-1.456
		c-0.352-0.656-0.549-1.48-0.592-2.472c-0.011-0.469-0.016-0.92-0.016-1.352c0-0.432,0.005-0.883,0.016-1.352
		c0.042-0.981,0.248-1.8,0.616-2.456c0.368-0.656,0.88-1.146,1.536-1.472c0.656-0.325,1.416-0.488,2.28-0.488
		c0.875,0,1.64,0.163,2.296,0.488c0.656,0.326,1.17,0.816,1.544,1.472c0.373,0.656,0.576,1.475,0.608,2.456
		c0.021,0.469,0.032,0.92,0.032,1.352c0,0.432-0.011,0.882-0.032,1.352c-0.032,0.992-0.227,1.816-0.584,2.472
		c-0.357,0.656-0.861,1.142-1.512,1.456C28.773,16.13,27.989,16.288,27.072,16.288z M27.072,14.928c0.821,0,1.49-0.245,2.008-0.736
		c0.517-0.49,0.797-1.285,0.84-2.384c0.021-0.48,0.032-0.91,0.032-1.288s-0.011-0.803-0.032-1.272
		c-0.021-0.736-0.157-1.333-0.408-1.792c-0.251-0.458-0.584-0.794-1-1.008c-0.416-0.213-0.896-0.32-1.44-0.32
		c-0.523,0-0.992,0.107-1.408,0.32c-0.416,0.214-0.75,0.55-1,1.008c-0.251,0.458-0.392,1.056-0.424,1.792
		c-0.011,0.469-0.016,0.894-0.016,1.272s0.005,0.808,0.016,1.288c0.042,1.099,0.325,1.894,0.848,2.384
		C25.61,14.683,26.271,14.928,27.072,14.928z"/>
	<path fill="#F4D178" d="M40.896,14.72c-0.054,0-0.112-0.016-0.176-0.048c-0.064-0.032-0.123-0.074-0.176-0.128l-3.104-3.008
		c-0.096-0.096-0.16-0.187-0.192-0.272c-0.032-0.085-0.054-0.171-0.064-0.256v-0.416c0.01-0.085,0.032-0.17,0.064-0.256
		c0.032-0.085,0.096-0.176,0.192-0.272l3.104-3.008c0.053-0.054,0.112-0.093,0.176-0.12c0.064-0.026,0.122-0.04,0.176-0.04
		c0.096,0,0.173,0.029,0.232,0.088s0.088,0.136,0.088,0.232v0.64c0,0.139-0.021,0.248-0.064,0.328s-0.117,0.173-0.224,0.28
		l-2.4,2.336l2.4,2.336c0.106,0.107,0.181,0.2,0.224,0.28s0.064,0.189,0.064,0.328v0.64c0,0.096-0.029,0.176-0.088,0.24
		S40.992,14.72,40.896,14.72z M44.992,14.72c-0.054,0-0.11-0.016-0.168-0.048c-0.059-0.032-0.12-0.074-0.184-0.128l-3.088-3.008
		c-0.096-0.096-0.163-0.187-0.2-0.272c-0.038-0.085-0.062-0.171-0.072-0.256v-0.416c0.011-0.085,0.035-0.17,0.072-0.256
		c0.037-0.085,0.104-0.176,0.2-0.272l3.088-3.008c0.064-0.054,0.125-0.093,0.184-0.12c0.058-0.026,0.114-0.04,0.168-0.04
		c0.096,0,0.176,0.029,0.24,0.088s0.096,0.136,0.096,0.232v0.64c0,0.139-0.021,0.248-0.064,0.328
		c-0.043,0.08-0.118,0.173-0.224,0.28l-2.4,2.336l2.4,2.336c0.106,0.107,0.181,0.2,0.224,0.28c0.042,0.08,0.064,0.189,0.064,0.328
		v0.64c0,0.096-0.032,0.176-0.096,0.24S45.087,14.72,44.992,14.72z"/>
	<path fill="#F4D178" d="M48.079,16.128c-0.117,0-0.208-0.035-0.272-0.104s-0.096-0.157-0.096-0.264V5.312
		c0-0.117,0.032-0.21,0.096-0.28c0.064-0.069,0.155-0.104,0.272-0.104h4.064c0.789,0,1.474,0.128,2.056,0.384
		s1.032,0.637,1.352,1.144s0.48,1.139,0.48,1.896s-0.16,1.387-0.48,1.888c-0.32,0.501-0.771,0.88-1.352,1.136
		s-1.267,0.384-2.056,0.384h-2.832v4c0,0.107-0.035,0.195-0.104,0.264c-0.07,0.069-0.163,0.104-0.28,0.104H48.079z M49.295,10.416
		h2.768c0.789,0,1.381-0.176,1.776-0.528c0.395-0.352,0.592-0.864,0.592-1.536c0-0.661-0.192-1.173-0.576-1.536
		c-0.384-0.362-0.981-0.544-1.792-0.544h-2.768V10.416z"/>
	<path fill="#F4D178" d="M61.215,13.408L56.847,5.44c-0.032-0.064-0.048-0.123-0.048-0.176c0-0.085,0.035-0.163,0.104-0.232
		c0.069-0.069,0.146-0.104,0.232-0.104h0.896c0.096,0,0.176,0.021,0.24,0.064c0.064,0.043,0.117,0.112,0.16,0.208l3.632,6.608
		L61.215,13.408z M58.495,16.128c-0.106,0-0.194-0.035-0.264-0.104c-0.07-0.069-0.104-0.157-0.104-0.264v-0.672
		c0-0.117,0.034-0.21,0.104-0.28c0.069-0.069,0.157-0.104,0.264-0.104h0.56c0.341,0,0.635-0.083,0.88-0.248
		c0.245-0.166,0.477-0.424,0.696-0.776c0.218-0.352,0.445-0.81,0.68-1.376l3.12-7.104c0.032-0.096,0.085-0.165,0.16-0.208
		c0.075-0.042,0.154-0.064,0.24-0.064h0.864c0.085,0,0.16,0.032,0.224,0.096s0.096,0.139,0.096,0.224
		c0,0.042-0.002,0.083-0.008,0.12c-0.005,0.037-0.019,0.072-0.04,0.104l-3.264,7.392c-0.256,0.565-0.496,1.054-0.72,1.464
		s-0.464,0.75-0.72,1.016c-0.256,0.267-0.555,0.464-0.896,0.592s-0.752,0.192-1.232,0.192H58.495z"/>
	<path fill="#F4D178" d="M71.263,16.288c-0.981,0-1.794-0.182-2.44-0.544c-0.646-0.363-1.133-0.87-1.464-1.52
		c-0.331-0.651-0.512-1.408-0.544-2.272c-0.011-0.438-0.016-0.907-0.016-1.408s0.005-0.981,0.016-1.44
		c0.032-0.864,0.213-1.621,0.544-2.272c0.331-0.65,0.818-1.157,1.464-1.52s1.458-0.544,2.44-0.544c0.736,0,1.381,0.102,1.936,0.304
		c0.555,0.203,1.016,0.475,1.384,0.816c0.368,0.342,0.648,0.723,0.84,1.144c0.192,0.422,0.298,0.856,0.32,1.304
		c0.011,0.096-0.019,0.176-0.088,0.24c-0.069,0.064-0.152,0.096-0.248,0.096h-0.88c-0.096,0-0.179-0.026-0.248-0.08
		c-0.069-0.053-0.12-0.149-0.152-0.288c-0.182-0.832-0.52-1.402-1.016-1.712c-0.496-0.309-1.118-0.464-1.864-0.464
		c-0.854,0-1.531,0.243-2.032,0.728s-0.773,1.261-0.816,2.328c-0.032,0.875-0.032,1.771,0,2.688
		c0.042,1.066,0.314,1.843,0.816,2.328c0.501,0.486,1.179,0.728,2.032,0.728c0.746,0,1.368-0.154,1.864-0.464
		c0.496-0.309,0.834-0.88,1.016-1.712c0.032-0.139,0.083-0.234,0.152-0.288c0.069-0.053,0.152-0.08,0.248-0.08h0.88
		c0.096,0,0.179,0.032,0.248,0.096s0.099,0.144,0.088,0.24c-0.021,0.448-0.128,0.883-0.32,1.304s-0.472,0.803-0.84,1.144
		c-0.368,0.341-0.83,0.613-1.384,0.816S72,16.288,71.263,16.288z"/>
	<path fill="#F4D178" d="M81.918,16.288c-0.981,0-1.794-0.182-2.44-0.544c-0.646-0.363-1.133-0.87-1.464-1.52
		c-0.331-0.651-0.512-1.408-0.544-2.272c-0.011-0.438-0.016-0.907-0.016-1.408s0.005-0.981,0.016-1.44
		c0.032-0.864,0.213-1.621,0.544-2.272c0.331-0.65,0.818-1.157,1.464-1.52s1.458-0.544,2.44-0.544c0.736,0,1.381,0.102,1.936,0.304
		c0.555,0.203,1.016,0.475,1.384,0.816c0.368,0.342,0.648,0.723,0.84,1.144c0.192,0.422,0.298,0.856,0.32,1.304
		c0.011,0.096-0.019,0.176-0.088,0.24c-0.069,0.064-0.152,0.096-0.248,0.096h-0.88c-0.096,0-0.179-0.026-0.248-0.08
		c-0.069-0.053-0.12-0.149-0.152-0.288c-0.182-0.832-0.52-1.402-1.016-1.712c-0.496-0.309-1.118-0.464-1.864-0.464
		c-0.854,0-1.531,0.243-2.032,0.728s-0.773,1.261-0.816,2.328c-0.032,0.875-0.032,1.771,0,2.688
		c0.042,1.066,0.314,1.843,0.816,2.328c0.501,0.486,1.179,0.728,2.032,0.728c0.746,0,1.368-0.154,1.864-0.464
		c0.496-0.309,0.834-0.88,1.016-1.712c0.032-0.139,0.083-0.234,0.152-0.288c0.069-0.053,0.152-0.08,0.248-0.08h0.88
		c0.096,0,0.179,0.032,0.248,0.096s0.099,0.144,0.088,0.24c-0.021,0.448-0.128,0.883-0.32,1.304s-0.472,0.803-0.84,1.144
		c-0.368,0.341-0.83,0.613-1.384,0.816S82.655,16.288,81.918,16.288z"/>
	<path fill="#F4D178" d="M88.911,16.128c-0.117,0-0.208-0.035-0.272-0.104s-0.096-0.157-0.096-0.264V5.312
		c0-0.117,0.032-0.21,0.096-0.28c0.064-0.069,0.155-0.104,0.272-0.104h0.816c0.117,0,0.21,0.035,0.28,0.104
		c0.069,0.07,0.104,0.163,0.104,0.28v4.416h1.808l2.848-4.544c0.053-0.085,0.122-0.149,0.208-0.192
		c0.085-0.042,0.197-0.064,0.336-0.064h0.864c0.117,0,0.203,0.032,0.256,0.096s0.08,0.139,0.08,0.224
		c0,0.064-0.027,0.133-0.08,0.208l-3.072,4.896l3.376,5.216c0.032,0.043,0.048,0.102,0.048,0.176c0,0.106-0.035,0.197-0.104,0.272
		s-0.157,0.112-0.264,0.112h-0.912c-0.118,0-0.206-0.024-0.264-0.072c-0.059-0.048-0.109-0.104-0.152-0.168l-3.104-4.72h-1.872
		v4.592c0,0.107-0.035,0.195-0.104,0.264s-0.163,0.104-0.28,0.104H88.911z"/>
	<path fill="#F4D178" d="M99.15,16.128c-0.117,0-0.208-0.037-0.272-0.112s-0.096-0.166-0.096-0.272V5.312
		c0-0.117,0.034-0.21,0.104-0.28c0.069-0.069,0.157-0.104,0.264-0.104h0.832c0.107,0,0.195,0.035,0.264,0.104
		c0.069,0.07,0.104,0.163,0.104,0.28v8.272l5.968-8.432c0.032-0.042,0.077-0.09,0.136-0.144c0.059-0.053,0.146-0.08,0.264-0.08
		h0.784c0.106,0,0.195,0.035,0.264,0.104c0.069,0.07,0.104,0.163,0.104,0.28V15.76c0,0.107-0.035,0.195-0.104,0.264
		s-0.158,0.104-0.264,0.104h-0.816c-0.106,0-0.197-0.035-0.272-0.104s-0.112-0.157-0.112-0.264V7.552l-5.952,8.352
		c-0.021,0.032-0.064,0.078-0.128,0.136s-0.155,0.088-0.272,0.088H99.15z"/>
	<path fill="#F4D178" d="M111.022,16.128c-0.117,0-0.208-0.037-0.272-0.112s-0.096-0.166-0.096-0.272V5.312
		c0-0.117,0.034-0.21,0.104-0.28c0.069-0.069,0.157-0.104,0.264-0.104h0.832c0.107,0,0.195,0.035,0.264,0.104
		c0.069,0.07,0.104,0.163,0.104,0.28v8.272l5.968-8.432c0.032-0.042,0.077-0.09,0.136-0.144c0.059-0.053,0.146-0.08,0.264-0.08
		h0.784c0.106,0,0.195,0.035,0.264,0.104c0.069,0.07,0.104,0.163,0.104,0.28V15.76c0,0.107-0.035,0.195-0.104,0.264
		s-0.158,0.104-0.264,0.104h-0.816c-0.106,0-0.197-0.035-0.272-0.104s-0.112-0.157-0.112-0.264V7.552l-5.952,8.352
		c-0.021,0.032-0.064,0.078-0.128,0.136s-0.155,0.088-0.272,0.088H111.022z M115.15,4.288c-0.64,0-1.139-0.096-1.496-0.288
		c-0.357-0.192-0.611-0.44-0.76-0.744c-0.149-0.304-0.224-0.621-0.224-0.952c0-0.085,0.026-0.157,0.08-0.216S112.878,2,112.974,2
		h0.56c0.096,0,0.17,0.029,0.224,0.088c0.053,0.059,0.08,0.131,0.08,0.216c0,0.16,0.034,0.315,0.104,0.464
		c0.069,0.149,0.2,0.274,0.392,0.376c0.192,0.102,0.464,0.152,0.816,0.152c0.362,0,0.637-0.05,0.824-0.152s0.314-0.227,0.384-0.376
		c0.069-0.149,0.104-0.304,0.104-0.464c0-0.085,0.026-0.157,0.08-0.216S116.67,2,116.766,2h0.56c0.096,0,0.17,0.029,0.224,0.088
		c0.053,0.059,0.08,0.131,0.08,0.216c0,0.331-0.075,0.648-0.224,0.952c-0.149,0.304-0.403,0.552-0.76,0.744
		S115.79,4.288,115.15,4.288z"/>
	<path fill="#F4D178" d="M126.814,16.128c-0.117,0-0.208-0.035-0.272-0.104s-0.096-0.157-0.096-0.264V5.312
		c0-0.117,0.032-0.21,0.096-0.28c0.064-0.069,0.155-0.104,0.272-0.104h6.96c0.117,0,0.208,0.035,0.272,0.104
		c0.064,0.07,0.096,0.163,0.096,0.28v0.64c0,0.106-0.032,0.194-0.096,0.264c-0.064,0.07-0.155,0.104-0.272,0.104h-5.76v3.232h3.168
		c1.13,0,2.011,0.293,2.64,0.88c0.629,0.586,0.944,1.376,0.944,2.368c0,0.395-0.075,0.79-0.224,1.184
		c-0.149,0.395-0.371,0.752-0.664,1.072c-0.294,0.32-0.664,0.579-1.112,0.776c-0.448,0.197-0.976,0.296-1.584,0.296H126.814z
		 M128.014,14.832h2.976c0.469,0,0.864-0.093,1.184-0.28c0.32-0.187,0.565-0.44,0.736-0.76c0.17-0.32,0.256-0.667,0.256-1.04
		c0-0.565-0.179-1.026-0.536-1.384c-0.358-0.357-0.904-0.536-1.64-0.536h-2.976V14.832z"/>
	<path fill="#F4D178" d="M139.902,13.408l-4.368-7.968c-0.032-0.064-0.048-0.123-0.048-0.176c0-0.085,0.035-0.163,0.104-0.232
		c0.069-0.069,0.146-0.104,0.232-0.104h0.896c0.096,0,0.176,0.021,0.24,0.064c0.064,0.043,0.117,0.112,0.16,0.208l3.632,6.608
		L139.902,13.408z M137.182,16.128c-0.106,0-0.194-0.035-0.264-0.104c-0.07-0.069-0.104-0.157-0.104-0.264v-0.672
		c0-0.117,0.034-0.21,0.104-0.28c0.069-0.069,0.157-0.104,0.264-0.104h0.56c0.341,0,0.635-0.083,0.88-0.248
		c0.245-0.166,0.477-0.424,0.696-0.776c0.218-0.352,0.445-0.81,0.68-1.376l3.12-7.104c0.032-0.096,0.085-0.165,0.16-0.208
		c0.075-0.042,0.154-0.064,0.24-0.064h0.864c0.085,0,0.16,0.032,0.224,0.096s0.096,0.139,0.096,0.224
		c0,0.042-0.002,0.083-0.008,0.12c-0.005,0.037-0.019,0.072-0.04,0.104l-3.264,7.392c-0.256,0.565-0.496,1.054-0.72,1.464
		s-0.464,0.75-0.72,1.016c-0.256,0.267-0.555,0.464-0.896,0.592s-0.752,0.192-1.232,0.192H137.182z"/>
	<path fill="#F4D178" d="M152.894,16.128c-0.107,0-0.195-0.035-0.264-0.104s-0.104-0.157-0.104-0.264V6.368h-3.968v2.576
		c0,1.28-0.069,2.371-0.208,3.272s-0.352,1.632-0.64,2.192c-0.288,0.56-0.659,0.976-1.112,1.248c-0.454,0.272-1,0.424-1.64,0.456
		c-0.107,0.011-0.197-0.021-0.272-0.096s-0.112-0.171-0.112-0.288v-0.704c0-0.213,0.112-0.336,0.336-0.368
		c0.331-0.053,0.626-0.197,0.888-0.432c0.261-0.235,0.483-0.584,0.664-1.048c0.181-0.464,0.32-1.061,0.416-1.792
		c0.096-0.73,0.144-1.608,0.144-2.632V5.296c0-0.106,0.035-0.194,0.104-0.264c0.069-0.069,0.157-0.104,0.264-0.104h6.32
		c0.117,0,0.21,0.035,0.28,0.104c0.069,0.07,0.104,0.163,0.104,0.28V15.76c0,0.107-0.035,0.195-0.104,0.264
		c-0.07,0.069-0.163,0.104-0.28,0.104H152.894z"/>
	<path fill="#F4D178" d="M156.126,16.128c-0.085,0-0.16-0.032-0.224-0.096s-0.096-0.138-0.096-0.224
		c0-0.053,0.005-0.112,0.016-0.176L159.79,5.28c0.042-0.106,0.101-0.192,0.176-0.256s0.187-0.096,0.336-0.096h1.088
		c0.139,0,0.248,0.032,0.328,0.096s0.141,0.149,0.184,0.256l3.952,10.352c0.021,0.064,0.032,0.123,0.032,0.176
		c0,0.085-0.032,0.16-0.096,0.224s-0.139,0.096-0.224,0.096h-0.816c-0.128,0-0.222-0.032-0.28-0.096s-0.099-0.122-0.12-0.176
		l-0.88-2.272h-5.248l-0.88,2.272c-0.011,0.054-0.048,0.112-0.112,0.176s-0.16,0.096-0.288,0.096H156.126z M158.686,12.208h4.32
		l-2.16-5.68L158.686,12.208z"/>
	<path fill="#F4D178" d="M170.414,16.128c-0.107,0-0.195-0.035-0.264-0.104s-0.104-0.157-0.104-0.264V6.352h-3.072
		c-0.107,0-0.195-0.035-0.264-0.104s-0.104-0.157-0.104-0.264V5.312c0-0.117,0.035-0.21,0.104-0.28
		c0.069-0.069,0.157-0.104,0.264-0.104h7.712c0.117,0,0.21,0.035,0.28,0.104c0.069,0.07,0.104,0.163,0.104,0.28v0.672
		c0,0.107-0.035,0.195-0.104,0.264s-0.163,0.104-0.28,0.104h-3.056v9.408c0,0.107-0.035,0.195-0.104,0.264s-0.163,0.104-0.28,0.104
		H170.414z"/>
	<path fill="#F4D178" d="M176.798,14.72c-0.096,0-0.176-0.032-0.24-0.096s-0.096-0.144-0.096-0.24v-0.64
		c0-0.139,0.021-0.248,0.064-0.328c0.042-0.08,0.117-0.173,0.224-0.28l2.416-2.336l-2.416-2.336c-0.106-0.106-0.181-0.2-0.224-0.28
		c-0.043-0.08-0.064-0.189-0.064-0.328v-0.64c0-0.096,0.032-0.173,0.096-0.232s0.144-0.088,0.24-0.088
		c0.053,0,0.109,0.014,0.168,0.04c0.059,0.027,0.12,0.066,0.184,0.12l3.088,3.008c0.096,0.096,0.163,0.187,0.2,0.272
		c0.038,0.085,0.062,0.171,0.072,0.256v0.416c-0.011,0.085-0.035,0.171-0.072,0.256c-0.037,0.085-0.104,0.176-0.2,0.272
		l-3.088,3.008c-0.064,0.054-0.125,0.096-0.184,0.128C176.907,14.704,176.851,14.72,176.798,14.72z M180.894,14.72
		c-0.096,0-0.173-0.032-0.232-0.096s-0.088-0.144-0.088-0.24v-0.64c0-0.139,0.021-0.248,0.064-0.328s0.117-0.173,0.224-0.28
		l2.4-2.336l-2.4-2.336c-0.107-0.106-0.182-0.2-0.224-0.28s-0.064-0.189-0.064-0.328v-0.64c0-0.096,0.029-0.173,0.088-0.232
		s0.136-0.088,0.232-0.088c0.053,0,0.112,0.014,0.176,0.04c0.064,0.027,0.123,0.066,0.176,0.12l3.104,3.008
		c0.096,0.096,0.163,0.187,0.2,0.272c0.037,0.085,0.056,0.171,0.056,0.256v0.416c0,0.085-0.019,0.171-0.056,0.256
		c-0.038,0.085-0.104,0.176-0.2,0.272l-3.104,3.008c-0.053,0.054-0.112,0.096-0.176,0.128
		C181.006,14.704,180.947,14.72,180.894,14.72z"/>
</g>
</svg>
