<svg width="130" height="133" viewBox="0 0 130 133" fill="none" xmlns="http://www.w3.org/2000/svg">
<g clip-path="url(#clip0)">
<path d="M94.9064 36.2563C90.9924 32.3058 85.7914 30.1558 80.2751 30.1827C74.7588 30.2365 69.6103 32.467 65.7489 36.4713C61.8875 40.4755 59.786 45.7966 59.8123 51.4402C59.8123 52.3271 60.5215 53.0527 61.3884 53.0527C62.2552 53.0527 62.9645 52.3271 62.9645 51.4402C62.9382 46.6566 64.7244 42.1686 67.9816 38.7556C71.2389 35.3426 75.6256 33.4614 80.3014 33.4345C84.9771 33.4076 89.3638 35.2351 92.6999 38.5675C96.0359 41.8999 97.8747 46.3879 97.9009 51.1715C97.9272 55.9551 96.141 60.4431 92.8837 63.8561C89.6265 67.2691 85.2397 69.1503 80.564 69.1772C79.6972 69.1772 78.988 69.9028 78.988 70.7897C78.988 71.6765 79.6972 72.4021 80.564 72.4021C86.0803 72.3484 91.2289 70.1178 95.0903 66.1136C98.9517 62.1093 101.106 56.7613 101.053 51.1177C101.001 45.4741 98.8203 40.2068 94.9064 36.2563Z" fill="url(#paint0)" stroke="url(#paint1)"/>
<path d="M126.402 60.2818L121.516 58.2125C122.278 53.5633 122.278 48.8872 121.516 44.2648L126.402 42.1955C127.794 41.6311 128.924 40.5024 129.501 39.0243C130.106 37.5462 130.106 35.9338 129.501 34.4557L126.77 27.6834C126.165 26.2053 125.062 25.0766 123.617 24.4585C122.173 23.8404 120.597 23.8404 119.152 24.4585L114.266 26.5278C111.613 22.7117 108.382 19.4061 104.626 16.665L106.648 11.6664C107.883 8.62958 106.464 5.13593 103.496 3.87284L96.9028 1.07792C93.9345 -0.185166 90.5197 1.26604 89.2851 4.30283L87.2624 9.30143C82.7181 8.52208 78.1474 8.52208 73.6293 9.30143L71.6067 4.30283C71.0025 2.82475 69.8993 1.69603 68.4545 1.07792C67.0098 0.459815 65.4337 0.459815 63.9889 1.07792L57.3957 3.87284C55.9509 4.49095 54.8477 5.61967 54.2435 7.09775C53.6393 8.57583 53.6393 10.1883 54.2435 11.6664L56.2661 16.665C52.5361 19.3793 49.3051 22.6848 46.6258 26.5278L41.7399 24.4585C40.2952 23.8404 38.7191 23.8404 37.2743 24.4585C35.8296 25.0766 34.7263 26.2053 34.1222 27.6834L31.364 34.4288C30.1294 37.4656 31.5479 40.9593 34.5162 42.2224L40.5841 44.8023C41.3984 45.1516 42.3178 44.7485 42.633 43.9423C42.9745 43.1092 42.5805 42.1686 41.7925 41.8461L35.7245 39.2662C34.3586 38.675 33.7019 37.0894 34.2798 35.6919L37.0117 28.9465C37.5633 27.549 39.1394 26.8772 40.5053 27.4684L46.5732 30.0483C47.2562 30.3439 48.0705 30.1021 48.4908 29.4571C51.3015 25.1572 54.8739 21.5023 59.0506 18.6537C59.681 18.2237 59.9174 17.4175 59.6284 16.6918L57.1067 10.4839C56.844 9.81205 56.844 9.05957 57.1067 8.38771C57.3694 7.71586 57.8948 7.17837 58.5515 6.90963L65.171 4.11471C65.8277 3.84597 66.5632 3.84597 67.2199 4.11471C67.8766 4.38345 68.402 4.92094 68.6647 5.59279L71.1864 11.8007C71.4753 12.4995 72.2108 12.9026 72.9463 12.7682C77.911 11.747 82.9282 11.747 87.8929 12.7682C88.6284 12.9295 89.3639 12.5263 89.6528 11.8007L92.1745 5.59279C92.7524 4.19533 94.3023 3.52348 95.6682 4.11471L102.261 6.90963C103.627 7.50086 104.284 9.08644 103.706 10.4839L101.237 16.6381C100.948 17.3368 101.184 18.1699 101.815 18.5999C106.018 21.4755 109.59 25.1304 112.375 29.4034C112.795 30.0483 113.583 30.2902 114.292 29.9946L120.36 27.4147C121.017 27.1459 121.752 27.1459 122.409 27.4147C123.066 27.6834 123.591 28.2209 123.854 28.8927L126.586 35.665C126.848 36.3369 126.848 37.0894 126.586 37.7612C126.323 38.4331 125.798 38.9706 125.141 39.2393L119.073 41.8192C118.39 42.1149 117.996 42.8673 118.127 43.6198C119.126 48.699 119.099 53.832 118.127 58.9113C117.97 59.6637 118.364 60.4162 119.073 60.7118L125.141 63.2918C126.507 63.883 127.164 65.4686 126.586 66.866L123.854 73.6115C123.276 75.0089 121.726 75.6808 120.36 75.0895L114.292 72.5096C113.609 72.214 112.795 72.4559 112.375 73.1008C109.564 77.4007 105.992 81.0556 101.815 83.9043C101.184 84.3343 100.948 85.1405 101.237 85.8661L103.759 92.074C104.021 92.7459 104.021 93.4984 103.759 94.1702C103.496 94.8421 102.971 95.3796 102.314 95.6483L95.6945 98.4432C95.0378 98.712 94.3023 98.712 93.6456 98.4432C92.9889 98.1745 92.4635 97.637 92.2008 96.9651L89.6791 90.7572C89.3376 89.9241 88.4182 89.5479 87.6302 89.8972C86.8159 90.2466 86.4481 91.1872 86.7896 91.9934L89.3113 98.2014C89.9155 99.6794 91.0188 100.808 92.4635 101.426C93.1727 101.722 93.9345 101.883 94.6963 101.883C95.4581 101.883 96.2198 101.722 96.9291 101.426L103.549 98.6313C104.993 98.0132 106.097 96.8845 106.701 95.4064C107.305 93.9284 107.305 92.3159 106.701 90.8378L104.678 85.8392C108.408 83.1249 111.639 79.8194 114.319 75.9764L119.204 78.0457C120.649 78.6638 122.225 78.6638 123.67 78.0457C125.115 77.4276 126.218 76.2989 126.822 74.8208L129.554 68.0754C130.789 65.0386 129.37 61.5449 126.402 60.2818Z" fill="url(#paint2)" stroke="url(#paint3)"/>
<path d="M37.9836 78.3951C29.8405 78.3951 23.2209 85.1942 23.2209 93.5252C23.2209 101.856 29.8405 108.602 37.9836 108.602C46.1267 108.602 52.7462 101.829 52.7462 93.4984C52.7462 85.1674 46.1267 78.3951 37.9836 78.3951ZM37.9836 105.404C31.5742 105.404 26.3731 100.083 26.3731 93.5252C26.3731 86.9679 31.5742 81.6468 37.9836 81.6468C44.393 81.6468 49.5941 86.9679 49.5941 93.5252C49.5941 100.083 44.393 105.404 37.9836 105.404Z" fill="url(#paint4)" stroke="url(#paint5)"/>
<path d="M71.2915 86.0273H67.7978C67.0623 82.8831 65.854 79.9269 64.1991 77.1589L66.6683 74.6327C67.5614 73.719 68.0342 72.5365 68.0342 71.2465C68.0342 69.9834 67.5614 68.7741 66.6683 67.8604L62.9908 64.098C62.0976 63.1843 60.9418 62.7005 59.681 62.7005C58.4201 62.7005 57.2643 63.1843 56.3712 64.098L53.902 66.6242C51.1964 64.9311 48.3069 63.7217 45.2336 62.9424V59.3681C45.2336 56.7344 43.1321 54.5845 40.5578 54.5845H35.3568C32.7825 54.5845 30.6811 56.7344 30.6811 59.3681V62.9424C27.6077 63.6949 24.7182 64.9311 22.0126 66.6242L19.5434 64.098C18.6503 63.1843 17.4945 62.7005 16.2336 62.7005C14.999 62.7005 13.817 63.1843 12.9239 64.098L9.24635 67.8604C8.35324 68.7741 7.88041 69.9566 7.88041 71.2465C7.88041 72.5096 8.35324 73.719 9.24635 74.6327L11.7155 77.1589C10.0607 79.9269 8.8786 82.8831 8.11682 86.0273H4.67571C2.10144 86.0273 0 88.1773 0 90.811V96.1321C0.026268 98.8195 2.10144 100.943 4.67571 100.943H8.16936C8.90487 104.087 10.1132 107.043 11.7681 109.811L9.29889 112.337C8.40577 113.251 7.93295 114.433 7.93295 115.723C7.93295 116.986 8.40577 118.196 9.29889 119.11L12.9764 122.872C13.8695 123.786 15.0253 124.269 16.2862 124.269C17.5208 124.269 18.7028 123.786 19.596 122.872L22.0652 120.346C24.7708 122.039 27.6602 123.248 30.7336 124.027V127.602C30.7336 130.235 32.835 132.385 35.4093 132.385H40.6104C43.1847 132.385 45.2861 130.235 45.2861 127.602V124.001C48.3595 123.248 51.2489 122.012 53.9545 120.319L56.4237 122.845C57.3169 123.759 58.4727 124.242 59.7335 124.242C60.9944 124.242 62.1502 123.759 63.0433 122.845L66.7208 119.083C67.6139 118.169 68.0868 116.986 68.0868 115.696C68.0868 114.433 67.6139 113.224 66.7208 112.31L64.2516 109.784C65.9065 107.016 67.0886 104.06 67.8503 100.916H71.2915C73.8657 100.916 75.9672 98.7657 75.9672 96.1321V90.811C75.9672 88.1773 73.8657 86.0273 71.2915 86.0273ZM72.815 96.1858C72.815 97.0458 72.132 97.7445 71.2915 97.7445H66.5107C65.7489 97.7445 65.1185 98.282 64.9609 99.0345C64.2516 102.662 62.8857 106.076 60.863 109.139C60.4428 109.784 60.5216 110.644 61.0469 111.182L64.4355 114.648C64.7244 114.944 64.8821 115.32 64.8821 115.75C64.8821 116.153 64.7244 116.556 64.4355 116.852L60.758 120.614C60.469 120.91 60.1013 121.071 59.681 121.071C59.2607 121.071 58.8929 120.91 58.604 120.614L55.2154 117.148C54.6901 116.61 53.8495 116.53 53.219 116.96C50.1982 119.029 46.8884 120.426 43.3423 121.152C42.6068 121.313 42.0814 121.958 42.0814 122.738V127.629C42.0814 128.489 41.3984 129.187 40.5578 129.187H35.3568C34.5162 129.187 33.8332 128.489 33.8332 127.629V122.738C33.8332 121.958 33.3079 121.313 32.5724 121.152C29.0262 120.426 25.6901 119.029 22.6956 116.96C22.4329 116.771 22.1177 116.691 21.8287 116.691C21.4347 116.691 21.0144 116.852 20.7255 117.175L17.3369 120.641C17.048 120.937 16.6802 121.098 16.2599 121.098C15.8659 121.098 15.4719 120.937 15.1829 120.641L11.5054 116.879C11.2165 116.583 11.0588 116.207 11.0588 115.777C11.0588 115.374 11.2165 114.971 11.5054 114.675L14.894 111.208C15.4193 110.671 15.4981 109.811 15.0779 109.166C13.0552 106.076 11.6893 102.689 10.98 99.0613C10.8224 98.3089 10.192 97.7714 9.43023 97.7714H4.67571C3.83513 97.7714 3.15216 97.0726 3.15216 96.2127V90.8647H3.17843C3.17843 90.0047 3.8614 89.306 4.70198 89.306H9.48276C10.2445 89.306 10.875 88.7685 11.0326 88.016C11.7418 84.388 13.1078 80.975 15.1304 77.9113C15.5507 77.2664 15.4719 76.4064 14.9465 75.8689L11.5317 72.4021C11.2427 72.1065 11.0851 71.7303 11.0851 71.3003C11.0851 70.8972 11.2427 70.494 11.5317 70.1984L15.2092 66.436C15.4981 66.1404 15.8659 65.9792 16.2862 65.9792C16.6802 65.9792 17.0742 66.1404 17.3632 66.436L20.7518 69.9028C21.2771 70.4403 22.1177 70.5209 22.7481 70.0909C25.7689 68.0216 29.0787 66.6242 32.6249 65.8986C33.3604 65.7373 33.8858 65.0923 33.8858 64.313V59.4219C33.8858 58.5619 34.5687 57.8632 35.4093 57.8632H40.6104C41.451 57.8632 42.1339 58.5619 42.1339 59.4219V64.3398C42.1339 65.1192 42.6593 65.7642 43.3948 65.9254C46.941 66.651 50.277 68.0485 53.2716 70.1178C53.902 70.5478 54.7426 70.4672 55.268 69.9297L58.6565 66.4629C58.9455 66.1673 59.3132 66.006 59.7335 66.006C60.1538 66.006 60.5216 66.1673 60.8105 66.4629L64.488 70.2253C64.777 70.5209 64.9346 70.8972 64.9346 71.3271C64.9346 71.7303 64.777 72.1334 64.488 72.429L61.0469 75.8689C60.5216 76.4064 60.4428 77.2664 60.863 77.9113C62.8857 81.0019 64.2516 84.388 64.9609 88.016C65.1185 88.7685 65.7489 89.306 66.5107 89.306H71.2915C72.132 89.306 72.815 90.0047 72.815 90.8647V96.1858V96.1858Z" fill="url(#paint6)" stroke="url(#paint7)"/>
</g>
<defs>
<linearGradient id="paint0" x1="80.433" y1="30.1825" x2="80.433" y2="72.4021" gradientUnits="userSpaceOnUse">
<stop stop-color="#E9C360"/>
<stop offset="1" stop-color="#C68F2B"/>
</linearGradient>
<linearGradient id="paint1" x1="80.433" y1="30.1825" x2="80.433" y2="72.4021" gradientUnits="userSpaceOnUse">
<stop stop-color="#E9C360"/>
<stop offset="1" stop-color="#C68F2B"/>
</linearGradient>
<linearGradient id="paint2" x1="80.459" y1="0.614342" x2="80.459" y2="101.883" gradientUnits="userSpaceOnUse">
<stop stop-color="#E9C360"/>
<stop offset="1" stop-color="#C68F2B"/>
</linearGradient>
<linearGradient id="paint3" x1="80.459" y1="0.614342" x2="80.459" y2="101.883" gradientUnits="userSpaceOnUse">
<stop stop-color="#E9C360"/>
<stop offset="1" stop-color="#C68F2B"/>
</linearGradient>
<linearGradient id="paint4" x1="37.9836" y1="78.3951" x2="37.9836" y2="108.602" gradientUnits="userSpaceOnUse">
<stop stop-color="#E9C360"/>
<stop offset="1" stop-color="#C68F2B"/>
</linearGradient>
<linearGradient id="paint5" x1="37.9836" y1="78.3951" x2="37.9836" y2="108.602" gradientUnits="userSpaceOnUse">
<stop stop-color="#E9C360"/>
<stop offset="1" stop-color="#C68F2B"/>
</linearGradient>
<linearGradient id="paint6" x1="37.9836" y1="54.5845" x2="37.9836" y2="132.385" gradientUnits="userSpaceOnUse">
<stop stop-color="#E9C360"/>
<stop offset="1" stop-color="#C68F2B"/>
</linearGradient>
<linearGradient id="paint7" x1="37.9836" y1="54.5845" x2="37.9836" y2="132.385" gradientUnits="userSpaceOnUse">
<stop stop-color="#E9C360"/>
<stop offset="1" stop-color="#C68F2B"/>
</linearGradient>
<clipPath id="clip0">
<rect width="130" height="133" fill="white"/>
</clipPath>
</defs>
</svg>
