<svg width="130" height="133" viewBox="0 0 130 133" fill="none" xmlns="http://www.w3.org/2000/svg">
<g clip-path="url(#clip0)">
<path d="M127.259 47.2863C127.276 47.204 127.296 47.1245 127.312 47.0397L127.178 47.0123C124.111 36.7245 118.607 27.2984 110.962 19.4775C98.6855 6.91736 82.3624 0 65.0005 0C47.6385 0 31.3154 6.91736 19.0386 19.4778C6.76178 32.0379 0.000999451 48.7376 0.000999451 66.5003C0.000999451 84.2629 6.76205 100.963 19.0386 113.523C31.3152 126.083 47.6382 133 65.0005 133C82.3627 133 98.6855 126.083 110.963 113.523C123.24 100.963 130.001 84.2629 130.001 66.5003C130 59.8957 129.064 53.4386 127.259 47.2863ZM93.4915 12.9347C98.0777 15.4967 102.357 18.6939 106.221 22.486C105.86 23.5126 105.247 24.6417 104.296 24.6417C104.281 24.6417 104.267 24.6415 104.251 24.6409C103.435 24.6107 102.488 24.2929 101.486 23.9568C99.9679 23.4475 98.2467 22.8695 96.2913 23.0311C94.3776 23.1882 92.7372 24.0147 91.2901 24.7437C89.9335 25.427 88.7622 26.018 87.9229 25.8033C87.1247 25.5999 86.2898 24.5722 85.4331 23.4461C85.0523 22.9457 84.8167 22.5869 84.73 22.3763C84.8321 22.202 85.0399 21.9269 85.1504 21.7806C86.2288 20.3525 88.0504 18.5246 89.8122 16.7568C91.0832 15.4811 92.3789 14.178 93.4915 12.9347ZM74.4438 6.30279C74.128 8.36622 73.2557 11.0861 72.4659 12.0855C71.593 13.1897 70.0501 13.6995 69.0264 13.2226C67.9937 12.7411 67.176 11.2362 66.8397 9.19719C66.6192 7.86054 66.1845 6.65274 65.7257 5.55106C68.6721 5.58653 71.5838 5.83951 74.4438 6.30279ZM22.869 23.3963C29.9358 16.1664 38.4657 10.9774 47.775 8.11629C48.8992 11.8979 50.2683 15.4407 51.6035 18.7887C52.6256 21.3525 53.7845 24.258 53.5229 26.8875C53.4226 27.8944 53.1727 29.182 52.5495 29.599C52.0075 29.962 50.9196 30.0548 49.7683 30.1532C47.8703 30.3153 45.5084 30.517 43.3569 32.0626C42.8973 32.3926 42.4705 32.7339 42.058 33.0634C41.1716 33.7719 40.3341 34.4408 39.5533 34.6646C38.7815 34.8863 37.787 34.7702 36.6348 34.6358C35.9732 34.5588 35.2888 34.4793 34.5646 34.4549C32.2658 34.3684 27.0257 35.4984 24.7442 38.5468C23.6168 40.0533 23.292 41.8743 23.8299 43.6745C24.2283 45.0087 25.082 45.9394 25.8649 46.6742C29.522 50.1045 34.541 52.534 39.6346 53.3403C40.3631 53.4555 41.0684 53.5436 41.7506 53.6293C45.4856 54.097 47.3438 54.4369 48.7565 57.0412C49.1083 57.6899 49.3916 58.4577 49.6917 59.2706C50.037 60.2069 50.3942 61.175 50.9145 62.1509C52.4593 65.05 55.0636 66.7483 57.7086 66.5975C59.6829 66.4812 61.1411 65.4269 62.3127 64.5801C62.8533 64.1894 63.3638 63.8203 63.8007 63.6341C64.9747 63.1326 66.7671 63.5779 68.593 64.8231C69.8454 65.6773 71.4655 67.0905 72.0719 68.971C72.5282 70.3858 72.2124 72.0236 71.3271 72.7892L63.3673 79.7442C60.8042 81.9842 58.0617 84.704 57.9694 88.6483C57.9401 89.8957 58.1917 91.0935 58.4135 92.1506C58.569 92.8901 58.8287 94.1281 58.6892 94.4515C58.5433 94.5842 57.8608 94.7555 57.4532 94.8577C56.7349 95.0375 55.9211 95.2415 55.0939 95.669C51.084 97.7405 50.7094 102.648 50.4614 105.896C50.2815 108.252 49.4273 110.235 48.5566 110.316C47.8484 110.386 46.8482 109.133 46.5007 107.745C46.2851 106.883 46.1838 105.923 46.0766 104.906C45.9222 103.441 45.747 101.781 45.172 100.15C44.431 98.0489 43.141 96.3168 42.003 94.7887C40.8853 93.2875 39.8293 91.8696 39.4883 90.3947C39.2329 89.29 39.3359 87.9625 39.4453 86.5566C39.5845 84.7666 39.7421 82.7378 39.1872 80.6728C38.3985 77.7373 36.4442 75.6398 34.7198 73.7886C33.5874 72.5734 32.5179 71.4254 31.8826 70.1852C31.1166 68.6901 31.2117 67.1229 31.3219 65.3083C31.4262 63.5884 31.5446 61.6389 30.8753 59.6331C30.2069 57.63 28.6269 56.4729 27.4566 55.6157C24.0257 53.1028 20.812 50.2411 17.9052 47.1098C16.3511 45.4359 14.832 43.6077 14.2435 41.5842C14.0897 41.0553 13.9833 40.6557 13.8996 40.3432C13.5277 38.95 13.3086 38.4524 12.5273 37.5676C15.2472 32.4211 18.712 27.6492 22.869 23.3963ZM65.0005 127.458C49.0853 127.458 34.1226 121.118 22.869 109.604C11.6154 98.0907 5.41764 82.7827 5.41764 66.5003C5.41764 58.7985 6.8062 51.3153 9.45873 44.3478C10.4822 46.9333 12.2201 49.0325 13.9778 50.9258C17.1206 54.3109 20.5948 57.4048 24.3201 60.1329C24.8463 60.5186 25.642 61.1013 25.7493 61.423C26.0718 62.39 25.9995 63.5834 25.9158 64.9647C25.7826 67.1597 25.6171 69.8909 27.085 72.7568C28.073 74.6856 29.4589 76.1729 30.799 77.6115C32.2682 79.1884 33.5371 80.5506 33.9642 82.141C34.267 83.2679 34.1594 84.6522 34.0457 86.1171C33.9146 87.8051 33.7659 89.7181 34.2171 91.6699C34.823 94.2911 36.3486 96.3395 37.6943 98.1467C38.6837 99.4753 39.6181 100.73 40.0766 102.03C40.4311 103.035 40.5573 104.233 40.6908 105.5C40.8138 106.666 40.9411 107.872 41.2531 109.119C42.1132 112.557 44.8397 115.862 48.4794 115.861C48.6666 115.861 48.8567 115.853 49.0487 115.835C52.8303 115.482 55.4406 111.838 55.8612 106.327C56.0237 104.198 56.2463 101.281 57.535 100.616C57.8101 100.473 58.2624 100.36 58.7412 100.24C59.8471 99.9632 61.361 99.5839 62.563 98.3245C64.7651 96.0173 64.1549 93.1099 63.7091 90.9874C63.535 90.1573 63.3703 89.3734 63.3841 88.7816C63.4231 87.1199 65.2117 85.4206 66.8849 83.9584L74.8346 77.0114C77.4224 74.7726 78.3793 70.8435 77.2155 67.2345C76.3526 64.5588 74.41 62.1304 71.5968 60.2116C68.1611 57.8692 64.6524 57.2679 61.7172 58.5181C60.7267 58.9401 59.9083 59.5319 59.186 60.054C58.5156 60.5386 57.8226 61.0398 57.396 61.0648C56.9705 61.0927 56.2092 60.5109 55.6695 59.4981C55.3288 58.8586 55.052 58.108 54.7587 57.3133C54.4033 56.3502 54.0358 55.3544 53.4922 54.3519C50.6778 49.1632 46.2843 48.6135 42.4082 48.1281C41.7679 48.048 41.106 47.9651 40.4622 47.8632C36.3995 47.2206 32.4131 45.2982 29.5255 42.5897C29.1612 42.2481 29.0407 42.0924 29.0014 42.0253C28.9976 42.0098 28.9952 41.9979 28.9939 41.9893C29.3516 41.1378 32.5959 39.94 34.3861 39.9932C34.8923 40.0104 35.4407 40.0744 36.0214 40.142C37.5213 40.3168 39.221 40.5152 41.0147 40.0007C42.8255 39.4814 44.1889 38.392 45.3919 37.431C45.7676 37.1307 46.1226 36.8472 46.4696 36.5978C47.4207 35.9146 48.7175 35.804 50.219 35.6757C53.1892 35.4222 58.1606 34.9977 58.9119 27.4489C59.3103 23.4448 57.818 19.7025 56.619 16.6956C55.3667 13.5549 54.0827 10.2432 53.0343 6.76718C55.2884 6.29946 57.5786 5.96586 59.8961 5.7658C60.0258 6.06976 60.1563 6.37012 60.2863 6.66521C60.815 7.86609 61.3144 9.00018 61.4994 10.1196C62.1543 14.0899 64.0301 16.9832 66.7806 18.2655C67.7654 18.7247 68.8278 18.9447 69.8995 18.9447C72.4077 18.9447 74.9649 17.7385 76.6787 15.5695C78.0578 13.8236 79.2606 10.4308 79.7454 7.41444C82.7015 8.18085 85.5859 9.18029 88.38 10.3994C87.6309 11.1836 86.8195 11.9982 86.0197 12.8004C84.1272 14.6995 82.1704 16.6629 80.8644 18.3927C80.3474 19.0774 79.5663 20.1117 79.3453 21.5429C78.9702 23.9731 80.4487 25.9163 81.1591 26.8501C82.2638 28.3023 83.9335 30.4968 86.6126 31.1806C87.1911 31.328 87.7531 31.3923 88.2977 31.392C90.3552 31.392 92.166 30.4799 93.6832 29.7154C94.7936 29.156 95.8425 28.6276 96.7249 28.555C97.5946 28.4824 98.6161 28.8262 99.7989 29.2227C101.053 29.6434 102.474 30.1199 104.055 30.1787C106.586 30.2743 108.714 29.0393 110.175 26.7465C115.269 32.7866 119.096 39.692 121.522 47.1195C121.123 47.4143 120.312 47.4531 118.407 47.4775C117.58 47.488 116.642 47.4999 115.643 47.5786C112.858 47.7972 110.705 46.9815 108.212 46.0364C106.538 45.4019 104.808 44.7457 102.738 44.3251C97.5255 43.2636 92.1386 46.2442 89.0149 51.9161C88.4469 52.9474 83.5698 62.1373 87.1784 67.2224C88.5266 69.1218 90.4351 70.2927 91.9688 71.2337C94.1442 72.5675 96.3937 73.9469 98.8851 74.9751C99.4183 75.1954 99.957 75.3988 100.478 75.5955C102.373 76.3112 104.163 76.9873 105.041 78.2159C105.775 79.2441 106.018 80.8714 105.785 83.1909C105.607 84.9512 104.966 86.7403 104.287 88.6342C102.765 92.8818 100.87 98.1683 105.312 103.361C106.578 104.842 108.099 105.969 109.781 106.71C108.931 107.698 108.05 108.665 107.132 109.604C95.8783 121.118 80.9156 127.458 65.0005 127.458ZM113.396 102.076C111.851 101.793 110.482 100.991 109.388 99.7113C107.165 97.1126 107.854 94.7801 109.373 90.5421C110.136 88.4119 110.926 86.2086 111.172 83.7594C111.55 80.0144 110.975 77.1319 109.414 74.9468C107.573 72.3678 104.8 71.3207 102.354 70.3969C101.848 70.206 101.37 70.0253 100.911 69.8363C98.8138 68.9705 96.8417 67.7613 94.7538 66.4812C93.5277 65.7289 92.2597 64.9514 91.5612 63.9672C90.7027 62.7575 91.7584 58.223 93.7336 54.637C95.2175 51.9435 98.1898 49.0516 101.682 49.7609C103.329 50.0956 104.787 50.6481 106.33 51.233C109.161 52.3065 112.09 53.419 116.058 53.1045C116.884 53.0396 117.693 53.0291 118.475 53.0188C119.882 53.0008 121.514 52.9789 123.006 52.4821C124.045 57.0238 124.584 61.7192 124.584 66.5003C124.584 79.4486 120.661 91.7782 113.396 102.076Z" fill="url(#paint0)"/>
</g>
<defs>
<linearGradient id="paint0" x1="65.0009" y1="0" x2="65.0009" y2="133" gradientUnits="userSpaceOnUse">
<stop stop-color="#E9C360"/>
<stop offset="1" stop-color="#C68F2B"/>
</linearGradient>
<clipPath id="clip0">
<rect width="130" height="133" fill="white"/>
</clipPath>
</defs>
</svg>
