<svg width="130" height="133" viewBox="0 0 130 133" fill="none" xmlns="http://www.w3.org/2000/svg">
<path d="M8.14 104C7.40667 104 6.82 103.78 6.38 103.34C5.94 102.9 5.72 102.313 5.72 101.58V99.93C5.72 99.1967 5.90333 98.5 6.27 97.84C6.71 97.1067 7.44333 96.2633 8.47 95.31L36.96 66.82C39.7467 64.2533 41.8733 62.0167 43.34 60.11C44.8067 58.2033 45.7967 56.3333 46.31 54.5C46.8967 52.5933 47.19 50.5033 47.19 48.23C47.19 43.3167 45.76 39.4667 42.9 36.68C40.1133 33.8933 36.1167 32.5 30.91 32.5C27.61 32.5 24.75 33.16 22.33 34.48C19.91 35.8 18.0033 37.67 16.61 40.09C15.2167 42.4367 14.3 45.1867 13.86 48.34C13.7867 49.22 13.4567 49.88 12.87 50.32C12.2833 50.6867 11.77 50.87 11.33 50.87H9.13C8.39667 50.87 7.81 50.6867 7.37 50.32C7.00333 49.88 6.82 49.3667 6.82 48.78C6.89333 46.2867 7.40667 43.72 8.36 41.08C9.31333 38.3667 10.7433 35.8733 12.65 33.6C14.63 31.3267 17.1233 29.4933 20.13 28.1C23.1367 26.6333 26.73 25.9 30.91 25.9C36.4833 25.9 40.9567 26.9633 44.33 29.09C47.7767 31.2167 50.27 33.9667 51.81 37.34C53.35 40.7133 54.12 44.3433 54.12 48.23C54.12 51.2367 53.68 54.0233 52.8 56.59C51.92 59.0833 50.6 61.54 48.84 63.96C47.08 66.3067 44.8433 68.7267 42.13 71.22L16.39 97.4H53.24C54.0467 97.4 54.67 97.62 55.11 98.06C55.55 98.5 55.77 99.1233 55.77 99.93V101.58C55.77 102.313 55.55 102.9 55.11 103.34C54.67 103.78 54.0467 104 53.24 104H8.14Z" fill="url(#paint0_linear_34_3)"/>
<path d="M95.5427 105.1C91.8027 105.1 88.2461 104.623 84.8727 103.67C81.5727 102.643 78.6761 101.177 76.1827 99.27C73.6894 97.29 71.7094 94.9067 70.2427 92.12C68.8494 89.26 68.1527 85.9967 68.1527 82.33C68.1527 77.6367 69.2894 73.6767 71.5627 70.45C73.8361 67.15 76.8427 64.62 80.5827 62.86C77.6494 61.1733 75.3027 58.9367 73.5427 56.15C71.7827 53.3633 70.9027 50.0267 70.9027 46.14C70.9027 41.6667 72.0027 37.9633 74.2027 35.03C76.4027 32.0233 79.3727 29.75 83.1127 28.21C86.8527 26.67 90.9961 25.9 95.5427 25.9C100.089 25.9 104.233 26.67 107.973 28.21C111.713 29.75 114.683 32.0233 116.883 35.03C119.083 37.9633 120.183 41.6667 120.183 46.14C120.183 50.0267 119.303 53.3633 117.543 56.15C115.783 58.9367 113.436 61.1733 110.503 62.86C114.243 64.62 117.249 67.15 119.523 70.45C121.796 73.6767 122.933 77.6367 122.933 82.33C122.933 87.2433 121.686 91.3867 119.193 94.76C116.773 98.1333 113.473 100.7 109.293 102.46C105.186 104.22 100.603 105.1 95.5427 105.1ZM95.5427 98.5C99.3561 98.5 102.803 97.84 105.883 96.52C108.963 95.2 111.419 93.33 113.253 90.91C115.086 88.49 116.003 85.63 116.003 82.33C116.003 78.9567 115.086 76.0967 113.253 73.75C111.419 71.33 108.963 69.4967 105.883 68.25C102.803 66.93 99.3561 66.27 95.5427 66.27C91.8027 66.27 88.3561 66.93 85.2027 68.25C82.1227 69.4967 79.6661 71.33 77.8327 73.75C75.9994 76.0967 75.0827 78.9567 75.0827 82.33C75.0827 85.63 75.9994 88.49 77.8327 90.91C79.6661 93.33 82.1227 95.2 85.2027 96.52C88.3561 97.84 91.8027 98.5 95.5427 98.5ZM95.5427 59.67C98.6961 59.5967 101.593 59.01 104.233 57.91C106.946 56.81 109.109 55.27 110.723 53.29C112.409 51.31 113.253 48.9267 113.253 46.14C113.253 43.28 112.446 40.86 110.833 38.88C109.293 36.8267 107.166 35.25 104.453 34.15C101.813 33.05 98.8427 32.5 95.5427 32.5C92.3161 32.5 89.3461 33.05 86.6327 34.15C83.9194 35.25 81.7561 36.8267 80.1427 38.88C78.6027 40.86 77.8327 43.28 77.8327 46.14C77.8327 49 78.6027 51.4567 80.1427 53.51C81.7561 55.49 83.9194 57.03 86.6327 58.13C89.3461 59.1567 92.3161 59.67 95.5427 59.67Z" fill="url(#paint1_linear_34_3)"/>
<defs>
<linearGradient id="paint0_linear_34_3" x1="64.3264" y1="25.9" x2="64.3264" y2="105.1" gradientUnits="userSpaceOnUse">
<stop stop-color="#E9C360"/>
<stop offset="1" stop-color="#C68F2B"/>
</linearGradient>
<linearGradient id="paint1_linear_34_3" x1="64.3264" y1="25.9" x2="64.3264" y2="105.1" gradientUnits="userSpaceOnUse">
<stop stop-color="#E9C360"/>
<stop offset="1" stop-color="#C68F2B"/>
</linearGradient>
</defs>
</svg>
