<svg width="0" height="0" class="hidden">
  <symbol  xmlns="http://www.w3.org/2000/svg" viewBox="0 0 36 36" id="arrow">
    <path d="M26.1266 8.12662L24.523 9.73024L31.6588 16.8661H0V19.134H31.6588L24.523 26.2698L26.1266 27.8734L36 18L26.1266 8.12662Z"></path>
  </symbol>
  <symbol  xmlns="http://www.w3.org/2000/svg" viewBox="0 0 20 20" id="cart_icon">
    <path d="M6.74195 15.0007C5.7041 15.0007 4.86279 15.842 4.86279 16.8798C4.86279 17.9177 5.70414 18.759 6.74195 18.759C7.7798 18.759 8.6211 17.9176 8.6211 16.8798C8.62114 15.842 7.7798 15.0007 6.74195 15.0007ZM6.74195 17.9238C6.16537 17.9238 5.69798 17.4564 5.69798 16.8799C5.69798 16.3033 6.16537 15.8359 6.74195 15.8359C7.31852 15.8359 7.78591 16.3033 7.78591 16.8799C7.78595 17.4564 7.31852 17.9238 6.74195 17.9238Z" stroke-width="0.6"></path>
    <path d="M14.6763 15.0007C13.6384 15.0007 12.7971 15.842 12.7971 16.8798C12.7971 17.9177 13.6384 18.759 14.6763 18.759C15.7141 18.759 16.5554 17.9176 16.5554 16.8798C16.5554 15.842 15.7141 15.0007 14.6763 15.0007ZM14.6763 17.9238C14.0997 17.9238 13.6323 17.4564 13.6323 16.8799C13.6323 16.3033 14.0997 15.8359 14.6763 15.8359C15.2528 15.8359 15.7202 16.3033 15.7202 16.8799C15.7203 17.4564 15.2528 17.9238 14.6763 17.9238Z" stroke-width="0.6"></path>
    <path d="M18.9148 4.03888C18.8279 3.94388 18.7089 3.88441 18.5808 3.87183L4.98811 3.68391L4.61228 2.53552C4.34751 1.76783 3.62862 1.24957 2.81661 1.24097H1.41767C1.18703 1.24097 1.00008 1.42793 1.00008 1.65857C1.00008 1.8892 1.18703 2.07616 1.41767 2.07616H2.81661C3.27065 2.08619 3.67046 2.37774 3.81885 2.80696L6.47057 10.8039L6.26179 11.2841C6.02892 11.8846 6.09886 12.5605 6.44971 13.1006C6.79721 13.6311 7.38181 13.9585 8.0157 13.9776H16.1379C16.3686 13.9776 16.5555 13.7906 16.5555 13.56C16.5555 13.3293 16.3686 13.1424 16.1379 13.1424H8.01566C7.65769 13.1334 7.32818 12.9451 7.13871 12.6413C6.95135 12.3411 6.91286 11.9714 7.03432 11.639L7.20137 11.2632L15.9917 10.3445C16.9573 10.2381 17.7515 9.53586 17.9753 8.59057L18.9776 4.39377C19.0227 4.27291 18.9987 4.13699 18.9148 4.03888ZM17.161 8.40269C17.0254 9.0112 16.5088 9.46004 15.8873 9.50932L7.20137 10.4071L5.25955 4.5191L18.0588 4.70701L17.161 8.40269Z" stroke-width="0.6"></path>
  </symbol>
  <symbol  xmlns="http://www.w3.org/2000/svg" viewBox="0 0 32 32" id="clock_icon">
    <path d="M16 0C7.17776 0 0 7.17776 0 16C0 24.8222 7.17776 32 16 32C24.8222 32 32 24.8222 32 16C32 7.17776 24.8222 0 16 0ZM16 30C8.28027 30 2.00001 23.7197 2.00001 16C2.00001 8.28027 8.28027 2.00001 16 2.00001C23.7197 2.00001 30 8.28027 30 16C30 23.7197 23.7197 30 16 30V30Z"></path>
    <path d="M17 6.00003H15V16.4141L21.293 22.707L22.707 21.293L17 15.5859V6.00003Z"></path>
  </symbol>
  <symbol  xmlns="http://www.w3.org/2000/svg" viewBox="0 0 40 40" id="facebook_icon">
    <rect x="0.5" y="0.5" width="39" height="39"  fill="var(--rect-fill)"  stroke="currentColor"></rect>
    <path d="M23.7188 21L24.1562 18.125H21.375V16.25C21.375 15.4375 21.75 14.6875 23 14.6875H24.2812V12.2188C24.2812 12.2188 23.125 12 22.0312 12C19.75 12 18.25 13.4062 18.25 15.9062V18.125H15.6875V21H18.25V28H21.375V21H23.7188Z"></path>
  </symbol>
  <symbol  xmlns="http://www.w3.org/2000/svg" viewBox="0 0 40 40" id="left_chevron">
    <path d="M31.0104 2.07915L28.9244 0L8.9895 20L28.9244 40L31.0104 37.9209L13.148 20L31.0104 2.07915Z"></path>
  </symbol>
  <symbol  xmlns="http://www.w3.org/2000/svg" viewBox="0 0 40 40" id="right_chevron">
    <path d="M8.98957 2.07915L11.0756 0L31.0105 20L11.0756 40L8.98957 37.9209L26.852 20L8.98957 2.07915Z"></path>
  </symbol>
  <symbol   xmlns="http://www.w3.org/2000/svg" viewBox="0 0 1920.001 336.228" id="rossait_icon">
    <path d="M1919.977 106.188c-.115 6.914-6.32 12.54-13.931 12.54h-43.096c-4.437.984-8.947 1.946-13.499 2.913-3.15 2.329-5.211 5.844-5.211 9.833v186.129c0 7.011 2.742 12.746-4.932 12.746h-56.58c-7.677 0-13.952-5.735-13.952-12.746V131.475c0-1.334-.286-2.581-.701-3.795-1.796-5.157-5.445-8.952-11.671-8.952h-49.671c-7.674 0-13.952-5.729-13.952-12.735V70.479c0-6.988 6.279-12.74 13.952-12.74h199.314c1.978 0 3.865.406 5.574 1.093 4.922 1.969 8.382 6.456 8.382 11.647v35.514l-.026.195zm-278.518 224.099h-47.56c-7.677 0-13.949-5.729-13.949-12.723v-47.288c0-7-3.561-8.769-7.911-3.921l-5.375 5.134c-5.365 5.146-11.27 10.279-17.716 15.448a555.354 555.354 0 01-7.59 6.004h.01l-.017.023a469.535 469.535 0 01-6.69 5.174c-1.786 1.374-3.589 2.673-5.386 3.995-17.067 11.459-46.57 29.402-92.326 28.154h-21.068c-7.674 0-13.949-5.729-13.949-12.723V70.422c0-7 6.275-12.718 13.949-12.718h49.144c7.667 0 13.949 5.718 13.949 12.718V240.05c0 6.977 4.406 10.131 9.791 6.948 0 0 3.16 0 8.253-3.428 5.106-3.417 10.335-7.2 15.71-11.384 8.581-6.37 17.046-13.399 25.352-21.12a431.568 431.568 0 0023.36-23.318c1.486-1.7 2.927-3.354 4.35-5.008a357.055 357.055 0 005.504-6.565 265.29 265.29 0 008.657-11.218V70.422c0-7 6.272-12.718 13.949-12.718h47.56c7.674 0 13.952 5.718 13.952 12.718v247.141c-.001 6.995-6.279 12.724-13.953 12.724zM1577.278 31.17c-13.53 7.652-28.847 11.47-45.959 11.47-16.774 0-31.923-3.818-45.447-11.47-6.059-3.446-10.984-7.446-14.884-12.008C1458.564 3.446 1475.174 0 1475.174 0h108.177c9.791 0 14.814 6.771 11.158 15.059 0 0-3.715 8.442-17.231 16.111zm-226.971 299.18h-49.22c-14.598 0-18.79-8.574-20.011-12.483a202.99 202.99 0 00-.359-1.82 272.95 272.95 0 01-.896-4.573h-79.808V250.02h63.874a2836.545 2836.545 0 00-7.437-23.976h.007c-.889-2.896-1.761-5.775-2.522-8.316-.045-.824-.15-1.654-.415-2.535 0 0-.314-1.082-2.086-5.975-.216-.601-.45-1.219-.708-1.935-2.421-6.611-4.828-12.987-7.248-19.099l-.185-.458c-4.235-10.337-8.26-19.197-12.086-26.563-3.896-7.458-6.387-12.306-7.454-14.509-7.001 13.633-13.401 27.931-19.387 42.686-.896 2.192-1.873 4.321-2.748 6.536-4.66 11.91-8.867 33.666-12.875 45.565-1.563.114-3.125.223-4.685.332h-79.867c4.238-13.462 8.804-36.591 13.569-49.703 7.004-19.265 14.514-38.176 22.662-56.594 11.849-26.815 23.984-49.817 36.43-69.009 1.569-2.272 7.137-8.728 19.858-8.728h52.942c7.681 0 17.155 4.951 21.061 10.949 0 0 13.893 21.475 22.882 38.491 8.985 16.999 17.109 34.101 24.354 51.243 3.544 8.385 6.84 16.695 9.994 24.983 4.332 11.396 8.35 22.705 12.02 33.94 3.554 10.852 6.899 21.675 9.784 32.384l.087.292h.474v1.803c6.296 23.409 11.41 45.021 15.355 64.836.532 4.344-.078 13.69-15.356 13.69zm-268.179-216.784l-6.753-.853c-6.763-.813-13.966-1.087-21.609-.795-29.481 1.116-51.854 9.346-67.118 24.737-14.933 15.036-21.972 34.295-21.243 57.625.025.504-.01 1.002.01 1.494 1.04 23.054 6.963 40.11 17.755 51.134 10.785 11.024 22.467 18.584 35.048 22.682 6.68 1.9 13.203 4.613 19.561 5.203 5.124.509 9.7.715 13.767.698h111.18v57.773h-77.799l-295.554.395h.004-4.22l-5.78.012c-4.517-.12-9.798-.498-13.077-.727-37.49-2.856-65.883-12.803-85.12-32.819-24.225-25.172-38.373-53.481-42.429-84.851a123.08 123.08 0 01-.924-7.36 135.408 135.408 0 01-.541-7.378c-.199-4.298-.195-8.482-.066-12.626 1.071-35.251 13.764-65.008 38.156-89.19 27.256-27.038 66.557-41.518 117.898-43.47 10.527-.401 20.357-.223 29.492.521 9.135.71 17.828 1.912 26.073 3.52l2.072 45.531c.321 6.88-4.556 11.458-10.81 10.188l-6.76-.818c-6.764-.801-13.967-1.076-21.598-.796-29.489 1.116-51.861 9.375-67.118 24.76-13.925 14.017-20.953 31.714-21.263 52.943-.024 2.055-.077 4.064.021 6.17 1.05 23.054 6.969 40.116 17.754 51.151 10.785 11.001 22.47 18.556 35.052 22.648 6.68 1.917 13.206 3.177 19.558 3.795 5.135.475 9.704.687 13.778.664l94.877-.189c-12.822-19.013-20.775-39.492-23.622-61.562-.38-2.37-.691-4.837-.931-7.372a139.114 139.114 0 01-.537-7.372c-.08-1.666-.087-3.303-.119-4.911-.642-38.662 12.072-70.966 38.209-96.899 27.256-27.015 66.563-41.536 117.898-43.459 10.527-.389 20.36-.223 29.495.504 9.135.755 17.814 1.929 26.073 3.531l2.068 45.542c.315 6.855-4.547 11.457-10.808 10.226zM561.706 300.021c-29.939 24.153-66.623 36.207-110.102 36.207-44.017 0-80.854-12.054-110.5-36.207-29.663-24.119-44.484-59.433-44.484-105.977 0-8.351.495-16.329 1.437-23.976.3-2.358.757-4.648 1.141-6.966 5.323-31.726 19.199-56.937 41.906-75.413 29.645-24.13 66.483-36.173 110.5-36.173 43.479 0 80.163 12.042 110.102 36.173 28.281 22.814 43.183 55.764 44.728 98.817.087 2.478.154 4.974.154 7.538 0 9.507-.656 18.504-1.905 27.055-4.852 33.397-19.156 59.737-42.977 78.922zm-43.147-118.397c-1.653-16.455-6.624-31.182-15.023-44.157-10.464-16.157-27.776-24.245-51.931-24.245-24.696 0-42.14 8.087-52.332 24.245-6.488 10.308-10.834 21.692-13.185 34.147a118.649 118.649 0 00-1.95 16.902c-.077 1.837-.16 3.657-.16 5.529 0 21.566 5.166 40.414 15.498 56.571 10.321 16.186 27.706 24.256 52.13 24.256 24.155 0 41.467-8.07 51.931-24.256 7.702-11.899 12.554-25.269 14.58-40.099a120.739 120.739 0 001.116-16.472c-.001-4.265-.263-8.385-.674-12.421zm-378.316 87.004c-1.329 0-2.648-.029-3.969-.075-9.516-.194-9.721-10.028-9.721-10.028v-44.277c0-5.477 4.001-6.839 6.066-7.195l.394-.057c.464-.052.802-.069.802-.069l-.045-.023c10.105-1.328 18.731-4.67 25.801-10.096 9.387-7.217 14.085-18.304 14.085-33.259 0-1.705-.202-4.573-.603-8.631-.216-2.221-.816-4.51-1.716-6.92a41.296 41.296 0 00-2.913-6.118 32.965 32.965 0 00-2.822-4.224c-.258-.326-.593-.653-.876-.984-.82-.945-1.653-1.895-2.56-2.759l-.46-.498-.199-.069c-12.606-11.424-32.474-13.908-40.612-14.44l-.154-.074c-.453-.023-.942-.017-1.402-.023-1.298-.074-2.093-.074-2.093-.074l.028.017c-.666-.006-1.301-.023-1.985-.023H90.998c-7.677 0-13.952 5.712-13.952 12.746v186.129c0 7.011-6.275 12.746-13.949 12.746H13.945C6.271 330.35 0 324.615 0 317.604V70.479c0-4.367 2.442-8.225 6.146-10.543a14.925 14.925 0 017.799-2.198h103.087c7.67 0 20.168.796 27.772 1.734 0 0 14.085 1.78 30.978 5.649h-.021l.052.011c5.093 1.179 10.444 2.541 15.738 4.109 17.953 6.273 46.776 21.429 62.416 56.583 3.157 7.893 5.26 16.072 6.237 24.508.262 2.209.467 4.464.6 6.788.049.841.049 1.608.073 2.41.028.973.073 1.98.084 2.936.01.464.045.973.045 1.454 0 29.396-10.332 54.196-30.992 74.4-20.669 20.189-50.59 30.308-89.771 30.308z"></path>
  </symbol>
  <symbol  xmlns="http://www.w3.org/2000/svg" viewBox="0 0 20 20" id="search_icon">
    <g clip-path="url(#clip0_16:46)">
      <path d="M8.80758 0C3.95121 0 0 3.95121 0 8.80758C0 13.6642 3.95121 17.6152 8.80758 17.6152C13.6642 17.6152 17.6152 13.6642 17.6152 8.80758C17.6152 3.95121 13.6642 0 8.80758 0ZM8.80758 15.9892C4.8477 15.9892 1.62602 12.7675 1.62602 8.80762C1.62602 4.84773 4.8477 1.62602 8.80758 1.62602C12.7675 1.62602 15.9891 4.8477 15.9891 8.80758C15.9891 12.7675 12.7675 15.9892 8.80758 15.9892Z"></path>
      <path d="M19.7618 18.6122L15.1006 13.9509C14.7829 13.6333 14.2686 13.6333 13.9509 13.9509C13.6333 14.2683 13.6333 14.7832 13.9509 15.1006L18.6122 19.7618C18.771 19.9206 18.9789 20 19.187 20C19.3949 20 19.603 19.9206 19.7618 19.7618C20.0794 19.4445 20.0794 18.9295 19.7618 18.6122Z"></path>
    </g>
    <defs>
      <clipPath id="clip0_16:46">
        <rect width="20" height="20"></rect>
      </clipPath>
    </defs>
  </symbol>
  <symbol  xmlns="http://www.w3.org/2000/svg" viewBox="0 0 32 32" id="telephone_icon">
    <g clip-path="url(#clip0_16:6)">
      <path d="M6.52061 21.2714C9.67685 25.0443 13.4763 28.0149 17.8128 30.1169C19.4638 30.8993 21.6719 31.8276 24.1319 31.9867C24.2844 31.9934 24.4303 32 24.5828 32C26.2338 32 27.56 31.4298 28.6408 30.2561C28.6474 30.2495 28.6607 30.2362 28.6673 30.223C29.0519 29.7588 29.4895 29.3411 29.9471 28.8968C30.2587 28.5984 30.577 28.2868 30.882 27.9685C32.2944 26.4965 32.2944 24.6266 30.8687 23.201L26.8837 19.2159C26.2073 18.5131 25.3984 18.1417 24.5496 18.1417C23.7009 18.1417 22.8853 18.5131 22.1891 19.2093L19.8153 21.5831C19.5965 21.4571 19.371 21.3444 19.1588 21.2383C18.8936 21.1057 18.6483 20.9797 18.4294 20.8404C16.2678 19.4679 14.3051 17.6776 12.4286 15.3767C11.4804 14.1765 10.8439 13.1687 10.3996 12.1409C11.0229 11.5773 11.6064 10.9872 12.17 10.4103C12.3689 10.2047 12.5745 9.99917 12.78 9.79362C13.4962 9.0775 13.8808 8.24865 13.8808 7.40655C13.8808 6.56444 13.5028 5.7356 12.78 5.01948L10.8041 3.04351C10.572 2.81144 10.3532 2.58599 10.1277 2.35392C9.69011 1.90303 9.23259 1.43887 8.7817 1.02114C8.09873 0.35143 7.29641 0 6.44768 0C5.60557 0 4.79662 0.35143 4.08713 1.02777L1.60723 3.50767C0.705443 4.40945 0.194875 5.50352 0.0887831 6.77C-0.0372012 8.35474 0.254552 10.039 1.01046 12.0746C2.17084 15.2242 3.92136 18.1484 6.52061 21.2714ZM1.70669 6.90924C1.78626 6.02735 2.12442 5.29134 2.76098 4.65479L5.22762 2.18815C5.6122 1.81683 6.03657 1.62453 6.44768 1.62453C6.85215 1.62453 7.26326 1.81683 7.64121 2.20141C8.08547 2.61252 8.50321 3.04351 8.9541 3.50104C9.17955 3.73311 9.41162 3.96519 9.6437 4.2039L11.6197 6.17986C12.0308 6.59097 12.243 7.0087 12.243 7.41981C12.243 7.83092 12.0308 8.24865 11.6197 8.65976C11.4141 8.86531 11.2086 9.0775 11.003 9.28305C10.3863 9.90634 9.80947 10.4965 9.17292 11.0601C9.15965 11.0734 9.15302 11.08 9.13976 11.0932C8.58941 11.6436 8.67561 12.1674 8.80822 12.5653C8.81486 12.5852 8.82149 12.5984 8.82812 12.6183C9.33869 13.845 10.0482 15.012 11.1555 16.4045C13.1447 18.8579 15.2401 20.7609 17.5476 22.2263C17.8327 22.4119 18.1377 22.5578 18.4228 22.7037C18.688 22.8363 18.9334 22.9623 19.1522 23.1015C19.1787 23.1148 19.1986 23.1281 19.2251 23.1413C19.444 23.254 19.6561 23.3071 19.8683 23.3071C20.3988 23.3071 20.7436 22.9689 20.8563 22.8562L23.3362 20.3763C23.7208 19.9917 24.1385 19.7862 24.5496 19.7862C25.0536 19.7862 25.4647 20.0978 25.7233 20.3763L29.7216 24.368C30.5173 25.1637 30.5107 26.0257 29.7017 26.8678C29.4232 27.1662 29.1315 27.4513 28.8198 27.7497C28.3557 28.2006 27.8716 28.6647 27.434 29.1886C26.6715 30.0108 25.7631 30.3954 24.5894 30.3954C24.4767 30.3954 24.3573 30.3887 24.2446 30.3821C22.0697 30.2429 20.0474 29.3941 18.5289 28.6714C14.4046 26.6755 10.7842 23.8442 7.78046 20.2503C5.30719 17.2731 3.64287 14.5014 2.54216 11.5309C1.85919 9.70742 1.6006 8.24202 1.70669 6.90924Z"></path>
    </g>
    <defs>
      <clipPath id="clip0_16:6">
        <rect width="32" height="32"></rect>
      </clipPath>
    </defs>
  </symbol>
  <symbol  xmlns="http://www.w3.org/2000/svg" viewBox="0 0 40 40" id="vk_icon">
    <rect x="0.5" y="0.5" width="39" height="39"  fill="var(--rect-fill)"  stroke="currentColor"></rect>
    <path d="M28.0312 15.6875C28.125 15.3125 28.0312 15 27.4688 15H25.625C25.1562 15 24.9375 15.25 24.8125 15.5312C24.8125 15.5312 23.875 17.8125 22.5625 19.3125C22.125 19.7188 21.9375 19.875 21.6875 19.875C21.5938 19.875 21.4062 19.7188 21.4062 19.3438V15.6875C21.4062 15.2188 21.2812 15 20.875 15H18C17.6875 15 17.5312 15.2188 17.5312 15.4375C17.5312 15.875 18.1875 15.9688 18.25 17.2188V19.9375C18.25 20.5312 18.1562 20.6562 17.9062 20.6562C17.2812 20.6562 15.7812 18.3438 14.875 15.7188C14.6875 15.2188 14.5 15 14.0312 15H12.1875C11.6875 15 11.5625 15.25 11.5625 15.5312C11.5625 16.0312 12.1875 18.4375 14.4688 21.6562C16 23.8438 18.1562 25 20.0938 25C21.25 25 21.4062 24.75 21.4062 24.3125C21.4062 22.2188 21.3125 22 21.875 22C22.1562 22 22.625 22.1562 23.7188 23.2188C24.9688 24.4688 25.1875 25 25.875 25H27.7188C28.25 25 28.5 24.75 28.3438 24.2188C28 23.1562 25.6562 20.9062 25.5312 20.75C25.25 20.4062 25.3438 20.25 25.5312 19.9375C25.5312 19.9375 27.7812 16.75 28.0312 15.6875Z"></path>
  </symbol>
  <symbol  xmlns="http://www.w3.org/2000/svg" viewBox="0 0 40 40" id="youtube_icon">
    <rect x="0.5" y="0.5" width="39" height="39" fill="var(--rect-fill)"  stroke="currentColor"></rect>
    <path d="M28.1562 15.9062C27.9688 15.1562 27.375 14.5625 26.6562 14.375C25.3125 14 20 14 20 14C20 14 14.6562 14 13.3125 14.375C12.5938 14.5625 12 15.1562 11.8125 15.9062C11.4375 17.2188 11.4375 20.0312 11.4375 20.0312C11.4375 20.0312 11.4375 22.8125 11.8125 24.1562C12 24.9062 12.5938 25.4688 13.3125 25.6562C14.6562 26 20 26 20 26C20 26 25.3125 26 26.6562 25.6562C27.375 25.4688 27.9688 24.9062 28.1562 24.1562C28.5312 22.8125 28.5312 20.0312 28.5312 20.0312C28.5312 20.0312 28.5312 17.2188 28.1562 15.9062ZM18.25 22.5625V17.5L22.6875 20.0312L18.25 22.5625Z"></path>
  </symbol>
</svg>