<svg width="46" height="46" fill="none" xmlns="http://www.w3.org/2000/svg"><path d="M38.819 45.002H5.277a3.486 3.486 0 01-3.487-3.487V9.785c0-3.063 3.67-4.646 5.896-2.535l12.263 11.597-3.89 4.417-2.19 9.43 10.003-2.892 3.59-3.854 13.766 13.02c2.283 2.18.746 6.034-2.409 6.034z" fill="#FD0"/><path d="M40.413 11.196L35.16 5.942a.886.886 0 010-1.25l1.927-1.927a4.514 4.514 0 016.39 0l.756.757a3.607 3.607 0 010 5.104l-2.57 2.57c-.332.344-.894.344-1.25 0z" fill="#2A3CB7"/><path d="M5.724 45.484A5.273 5.273 0 01.46 40.218v-29.86a5.273 5.273 0 015.265-5.265H15.9a.69.69 0 01.688.689.69.69 0 01-.688.688H5.724c-2.145 0-3.889 1.755-3.9 3.9v29.86c0 2.145 1.755 3.889 3.9 3.9h32.143c2.145 0 3.889-1.744 3.9-3.9V30.055a.69.69 0 01.688-.688.69.69 0 01.689.688V40.23a5.273 5.273 0 01-5.266 5.265H5.724v-.011z" fill="#282828"/><path d="M13.536 33.324a.642.642 0 01-.482-.206c-.172-.172-.24-.436-.172-.666l2.685-9.704a.704.704 0 01.172-.299L36.18 2.007A4.676 4.676 0 0139.507.631c1.25 0 2.432.493 3.327 1.376l1.33 1.343a4.715 4.715 0 010 6.642l-20.43 20.441a.604.604 0 01-.298.172L13.73 33.29a.584.584 0 01-.195.034zm.987-1.675l7.502-2.076-5.426-5.426-2.076 7.502zm2.741-8.787l6.046 6.046 17.379-17.38-6.046-6.033-17.379 17.367zM39.507 2.007c-.883 0-1.72.345-2.351.976L35.618 4.52l6.046 6.045L43.2 9.028a3.33 3.33 0 000-4.703l-1.354-1.342a3.261 3.261 0 00-2.34-.976z" fill="#282828"/><path d="M38.81 8.017l-.77-.77-18.868 18.867.77.77L38.81 8.017z" fill="#282828"/></svg>