<svg width="46" height="46" fill="none" xmlns="http://www.w3.org/2000/svg"><path d="M15.525 23.009H2.408a1.356 1.356 0 01-1.366-1.348V9.434c0-1.177 1.429-1.788 2.3-.98L16.45 20.682c.908.845.306 2.327-.925 2.327zM43.08 45.102H23.746c-1.114 0-2.013-.72-2.013-1.609V28.921c0-1.41 2.111-2.13 3.396-1.168l19.335 14.572c1.33 1.007.44 2.777-1.384 2.777z" fill="#FD0"/><path d="M31.688 12.04h-9.65c-.826 0-1.5-.675-1.5-1.501 0-.827.674-1.5 1.5-1.5h9.65c.826 0 1.5.673 1.5 1.5 0 .826-.674 1.5-1.5 1.5z" fill="#2A3CB7"/><path d="M24.258 13.656l-2.597-1.85 2.597-.306v2.156zm8.805-3.719h-2.705v9.649h2.704v-9.65zm-8.904-1.599H23v1.158h1.159V8.337z" fill="#2A3CB7"/><path d="M1.438 23.54a.54.54 0 01-.54-.54V1.437a.54.54 0 01.54-.539h11.5c.143 0 .278.054.377.162l4.312 4.313a.538.538 0 01.162.377V23a.54.54 0 01-.539.54H1.437zm.539-1.08H16.71V6.29h-3.773a.54.54 0 01-.54-.54V1.977H1.977V22.46zm11.5-17.25h2.47l-2.47-2.47v2.47z" fill="#282828"/><path d="M10.602 3.773H3.773v1.079h6.829V3.773zm4.312 4.313H3.774v1.078h11.14V8.086zm0 2.874H3.774v1.08h11.14v-1.08zm0 2.876H3.774v1.078h11.14v-1.078zm6.649 31.266a.54.54 0 01-.54-.54v-17.25a.54.54 0 01.54-.539h3.054V23a.54.54 0 01.54-.54h11.5c.143 0 .278.055.377.163l4.312 4.312a.538.538 0 01.162.378v3.773h3.054a.54.54 0 01.54.539v12.938a.54.54 0 01-.54.539h-23zm.539-1.079h21.921v-1.796H22.102v1.796zm0-2.875h21.921v-8.984H22.102v8.984zm3.593-14.375h4.492c.144 0 .279.054.378.162l4.15 4.15h5.715v-3.233h-3.774a.54.54 0 01-.539-.54V23.54H25.695v3.234zm-3.593 4.313h11.095l-3.234-3.234h-7.861v3.234zm15.093-4.313h2.471l-2.47-2.47v2.47z" fill="#282828"/><path d="M7.906 39.352a.54.54 0 01-.539-.54v-8.085H5.75a.534.534 0 01-.485-.315.537.537 0 01.072-.575l3.593-4.312a.524.524 0 01.414-.18c.17 0 .314.063.413.18l3.594 4.312a.544.544 0 01-.413.89H11.32v4.671h7.367a.54.54 0 01.54.54v2.874a.54.54 0 01-.54.54H7.908zm10.242-1.079v-1.796z" fill="#2A3CB7"/><path d="M7.906 39.352a.54.54 0 01-.539-.54v-8.085H5.75a.534.534 0 01-.485-.315.537.537 0 01.072-.575l3.593-4.312a.524.524 0 01.414-.18c.17 0 .314.063.413.18l3.594 4.312a.544.544 0 01-.413.89H11.32v4.671h7.367a.54.54 0 01.54.54v2.874a.54.54 0 01-.54.54H7.908zM6.9 29.648h1.006a.54.54 0 01.54.54v8.085h9.702v-1.796h-7.367a.54.54 0 01-.539-.54v-5.75a.54.54 0 01.54-.539h1.005L9.345 26.72 6.9 29.648zm23.288-8.984a.54.54 0 01-.54-.539v-7.367h-4.671v1.617a.544.544 0 01-.315.485.525.525 0 01-.575-.072l-4.312-3.594a.524.524 0 01-.198-.413c0-.162.072-.314.198-.413l4.312-3.594a.534.534 0 01.341-.126c.081 0 .153.018.225.054.189.09.315.279.315.486v1.617h8.085a.54.54 0 01.54.539v10.781a.54.54 0 01-.54.54h-2.865zm0-8.984a.54.54 0 01.539.539v7.367h1.796V9.883h-8.086a.54.54 0 01-.539-.54V8.339L20.97 10.78l2.928 2.444v-1.006a.54.54 0 01.54-.54h5.75z" fill="#282828"/></svg>