<svg width="46" height="46" fill="none" xmlns="http://www.w3.org/2000/svg"><path d="M41.589 10.44l-7.511 6.064-.171 19.703-3.836-.036-.018-16.432-2.696 2.174-.251 14.33-8.095.027-.377-7.313-2.462 1.985-.225 5.202-3.486-.036-.332-1.895L2.02 42.379c-1.194.962-.512 2.902 1.025 2.902h39.693c.898 0 1.635-.727 1.635-1.635V11.958l.97-.108c0-.539.153-1.644-.197-1.931-.566-.45-1.537-1.051-3.558.52z" fill="#FD0"/><path d="M15.857 13.027h-3.486v4.942h3.486v-4.942zM8.886 26.19H5.4v4.94h3.486v-4.94zM40.6 35.533h-3.486v4.942H40.6v-4.942zm-6.873-10.637h-3.486v4.941h3.486v-4.941zM15.543 39.253h-3.486v5.92h3.486v-5.92zM26.845 7.098H23.36v4.941h3.486V7.098zM22.64 30.852h-3.485v4.942h3.486v-4.942z" fill="#2A3CB7"/><path d="M2.47 45.91a1.4 1.4 0 01-1.392-1.392V32.469c0-.269.225-.494.494-.494.27 0 .494.225.494.494v12.049c0 .224.18.404.405.404h6.334v-3.774h-3.37a.943.943 0 01-.943-.943v-4.402c0-.521.422-.944.944-.944h3.369v-3.054h-3.37a.943.943 0 01-.943-.944V26.46c0-.521.422-.943.944-.943h3.369V22.46h-3.37a.943.943 0 01-.943-.943v-4.403c0-.52.422-.943.944-.943h3.369v-3.504H2.066v16.675c0 .27-.224.494-.494.494a.499.499 0 01-.494-.494V12.677l-.144-.027a.943.943 0 01-.754-.925V9.928c0-.521.422-.944.943-.944h7.682V4.411l-.144-.027a.943.943 0 01-.755-.925V1.213c0-.521.423-.943.944-.943h28.3c.522 0 .944.422.944.943v2.246c0 .45-.315.836-.755.925l-.144.027v4.573h2.345c.27 0 .494.225.494.495a.498.498 0 01-.494.494h-2.345v1.707h7.637V9.973h-2.165a.499.499 0 01-.494-.494c0-.27.224-.495.494-.495h2.21c.521 0 .943.423.943.944v1.797a.942.942 0 01-.754.925l-.144.027v31.84a1.4 1.4 0 01-1.393 1.393H2.471zm34.725-.988h6.334c.225 0 .405-.18.405-.404v-31.85h-6.739v3.504h3.37c.52 0 .943.422.943.943v4.403a.943.943 0 01-.944.943h-3.369v3.055h3.37c.52 0 .943.422.943.943v4.402a.943.943 0 01-.944.944h-3.369v3.054h3.37c.52 0 .943.423.943.944v4.402a.943.943 0 01-.944.943h-3.369v3.774zm-3.728-6.406c.52 0 .943.422.943.943v5.463h1.797V4.402H17.519a.499.499 0 01-.494-.494c0-.27.225-.494.495-.494h19.585V1.258H8.895v2.156h5.471c.27 0 .494.225.494.494 0 .27-.224.494-.494.494H9.793v40.52h1.887v-5.463c0-.52.422-.943.943-.943h2.965c.521 0 .943.422.943.943v5.463h1.77v-5.463c0-.52.422-.943.944-.943h1.841a.5.5 0 01.495.494c0 .27-.225.494-.495.494H19.29v5.418h7.42v-5.418h-2.48a.499.499 0 01-.493-.494c0-.27.224-.494.494-.494h2.524c.522 0 .944.422.944.943v5.463h1.86v-5.463c0-.52.422-.943.943-.943h2.965zm-2.92 6.406h2.875v-5.418h-2.875v5.418zm-17.879 0h2.875v-5.418h-2.875v5.418zm24.527-4.762h3.325v-4.312h-3.325v4.312zm-31.715 0h3.325v-4.312H5.48v4.312zm31.715-9.344h3.325v-4.312h-3.325v4.312zm-31.715 0h3.325v-4.312H5.48v4.312zm31.715-9.343h3.325V17.16h-3.325v4.313zm-31.715 0h3.325V17.16H5.48v4.313zM1.168 11.68h7.637V9.973H1.168v1.707z" fill="#282828"/><path d="M19.245 36.8a.943.943 0 01-.944-.943V7.053c0-.521.423-.944.944-.944h7.51c.522 0 .944.423.944.944v28.804a.943.943 0 01-.944.943h-7.51zm4.25-.988h3.216v-4.978h-3.217v4.978zm-4.206 0h3.217v-4.978H19.29v4.978zm4.205-5.966h3.217v-4.941h-3.217v4.941zm-4.204 0h3.216v-4.941H19.29v4.941zm4.204-5.939h3.217v-4.941h-3.217v4.941zm-4.204 0h3.216v-4.941H19.29v4.941zm4.204-5.93h3.217v-4.94h-3.217v4.94zm-4.204 0h3.216v-4.94H19.29v4.94zm4.204-5.938h3.217V7.098h-3.217v4.941zm-4.204 0h3.216V7.098H19.29v4.941zM12.623 36.8a.943.943 0 01-.943-.943V7.053c0-.521.422-.944.943-.944h2.965c.521 0 .943.423.943.944v28.804a.943.943 0 01-.943.943h-2.965zm.045-.988h2.875v-4.978h-2.875v4.978zm0-5.966h2.875v-4.941h-2.875v4.941zm0-5.939h2.875v-4.941h-2.875v4.941zm0-5.93h2.875v-4.94h-2.875v4.94zm0-5.938h2.875V7.098h-2.875v4.941zM30.502 36.8a.943.943 0 01-.943-.943V7.053c0-.521.422-.944.943-.944h2.965c.52 0 .943.423.943.944v28.804a.943.943 0 01-.943.943h-2.965zm.045-.988h2.875v-4.978h-2.875v4.978zm0-5.966h2.875v-4.941h-2.875v4.941zm0-5.939h2.875v-4.941h-2.875v4.941zm0-5.93h2.875v-4.94h-2.875v4.94zm0-5.938h2.875V7.098h-2.875v4.941z" fill="#282828"/></svg>