<svg width="46" height="46" fill="none" xmlns="http://www.w3.org/2000/svg"><path d="M43.934 26.387c-.027-7.96-4.825-14.806-11.68-17.825a17.702 17.702 0 012.875 2.31c6.684 6.683 6.684 17.563 0 24.248A17.1 17.1 0 0123 40.133a17.1 17.1 0 01-12.129-5.013 17.157 17.157 0 01-4.546-16.118 19.434 19.434 0 00-1.473 7.457c0 5.21 2.039 9.937 5.354 13.44A21.116 21.116 0 0023 44.204c10.539 0 19.307-7.726 20.934-17.816z" fill="#FD0"/><path d="M10.018 14.797c-3.8 6.01-2.911 14.025 2.129 19.056 5.984 5.984 15.722 5.984 21.715 0 5.984-5.984 5.984-15.723 0-21.715C28.75 7.035 20.925 6.154 14.824 10a.886.886 0 01-.961-.01c-.54.342-1.051.71-1.554 1.106.063.126.098.26.098.404a.945.945 0 01-.26.638.902.902 0 01-1.159.09c-.44.413-.863.853-1.267 1.312.01 0 .01.008.018.008a.913.913 0 01.279 1.25zM23.88 35.776a.901.901 0 01-.899.898.901.901 0 01-.898-.898V34.67c0-.494.404-.899.898-.899s.899.405.899.899v1.105zm10.79-13.657h1.105c.494 0 .898.405.898.899a.901.901 0 01-.898.898H34.67a.901.901 0 01-.899-.898c0-.494.405-.899.899-.899zM22.119 10.224c0-.494.405-.898.899-.898s.898.404.898.898v1.105a.901.901 0 01-.898.899.901.901 0 01-.899-.899v-1.105zm-4.887 7.008a.895.895 0 011.267 0l3.046 3.046a3.07 3.07 0 012.91 0l6.137-6.137a.895.895 0 111.267 1.267l-6.137 6.136c.234.432.369.935.369 1.456a3.09 3.09 0 11-6.182 0c0-.53.135-1.024.369-1.456L17.232 18.5a.895.895 0 010-1.267zm-5.903 4.852c.494 0 .899.404.899.898a.901.901 0 01-.899.899h-1.105a.901.901 0 01-.898-.899.9.9 0 01.898-.898h1.105zM24.393 46a19.494 19.494 0 0013.997-5.903 22.822 22.822 0 01-14.662 5.894c.215 0 .44.009.665.009z" fill="#FD0"/><path d="M10.206 39.9c-5.103-3.873-8.41-10.01-8.41-16.9C1.797 11.311 11.312 1.797 23 1.797c.863 0 1.734.054 2.587.153a.887.887 0 00.998-.782.887.887 0 00-.782-.997A22.466 22.466 0 0023 0C16.855 0 11.078 2.39 6.738 6.738 2.39 11.078 0 16.855 0 23s2.39 11.922 6.738 16.262C11.087 43.61 16.855 46 23 46c.243 0 .485-.009.728-.009A19.489 19.489 0 0110.206 39.9zM46 23a22.967 22.967 0 00-4.906-14.204h1.42a.901.901 0 00.898-.899.901.901 0 00-.898-.898H39.1a.901.901 0 00-.898.898v3.414a.9.9 0 00.898.899.901.901 0 00.898-.899v-.988A21.16 21.16 0 0144.203 23c0 1.15-.09 2.282-.27 3.387v.072c0 5.3-2.11 10.116-5.543 13.638A22.858 22.858 0 0046 23z" fill="#282828"/><path d="M43.934 26.387C42.307 36.477 33.539 44.203 23 44.203A21.135 21.135 0 0110.206 39.9c3.423 3.602 8.194 5.911 13.513 6.082a22.77 22.77 0 0014.671-5.885 19.468 19.468 0 005.544-13.638v-.072zM8.5 13.836a16.99 16.99 0 00-2.175 5.166 19.655 19.655 0 013.396-5.454.898.898 0 00-1.222.288zm23.754-5.274a17.108 17.108 0 00-7.44-2.614 17.223 17.223 0 00-10.95 2.532.89.89 0 00-.279 1.24.917.917 0 00.279.279 19.42 19.42 0 0110.53-3.082c2.794 0 5.453.593 7.86 1.644z" fill="#282828"/><path d="M5.948 24.797A17.118 17.118 0 0010.88 35.12a17.1 17.1 0 0012.129 5.013 17.1 17.1 0 0012.129-5.013c6.684-6.684 6.684-17.564 0-24.249a17.324 17.324 0 00-2.875-2.309 19.685 19.685 0 00-7.87-1.644A19.42 19.42 0 0013.863 10c.287.18.656.197.961.009 6.1-3.846 13.926-2.965 19.03 2.147 5.983 5.984 5.983 15.722 0 21.715-5.985 5.984-15.723 5.984-21.716 0-5.04-5.04-5.93-13.054-2.13-19.056a.893.893 0 00-.278-1.24c-.009 0-.009-.009-.018-.009a19.526 19.526 0 00-3.396 5.454 17.287 17.287 0 00-.368 5.777z" fill="#282828"/><path d="M34.67 23.916h1.106a.901.901 0 00.898-.898.901.901 0 00-.898-.899H34.67a.901.901 0 00-.899.899c0 .494.405.898.899.898zm-25.344-.934c0 .494.404.899.898.899h1.105a.901.901 0 00.899-.899.901.901 0 00-.899-.898h-1.105a.895.895 0 00-.898.898zm13.692-10.754a.901.901 0 00.898-.899v-1.105a.901.901 0 00-.898-.898.901.901 0 00-.899.898v1.105c0 .494.396.899.899.899zm-.036 21.544a.901.901 0 00-.898.899v1.105a.9.9 0 00.898.898.901.901 0 00.899-.898V34.67a.895.895 0 00-.899-.899zm-2.713-12.228A3.07 3.07 0 0019.9 23a3.09 3.09 0 106.182 0c0-.53-.135-1.024-.369-1.456l6.137-6.136a.895.895 0 10-1.267-1.267l-6.136 6.137a3.07 3.07 0 00-2.912 0l-3.045-3.046a.895.895 0 10-1.267 1.267l3.046 3.046zm2.731.162c.719 0 1.294.584 1.294 1.294A1.3 1.3 0 0123 24.294 1.3 1.3 0 0121.706 23c0-.71.575-1.294 1.294-1.294zM12.147 10.871a.89.89 0 00-.638-.26.945.945 0 00-.638.26.89.89 0 00-.26.638c0 .234.098.467.26.638.036.036.072.072.117.099a19.7 19.7 0 011.32-1.141 1.079 1.079 0 00-.161-.234z" fill="#2A3CB7"/><path d="M12.147 12.147a.895.895 0 00.162-1.042c-.459.36-.899.736-1.321 1.14a.895.895 0 00.521.171.999.999 0 00.638-.27zm17.07-9.461a.945.945 0 00.638-.26.89.89 0 00.26-.638.945.945 0 00-.26-.638.89.89 0 00-.638-.26.945.945 0 00-.638.26.89.89 0 00-.26.638.95.95 0 00.26.638.95.95 0 00.638.26z" fill="#2A3CB7"/></svg>