<svg width="58" height="58" fill="none" xmlns="http://www.w3.org/2000/svg"><path d="M10.207 52.8a3.195 3.195 0 100-6.389 3.195 3.195 0 000 6.39zm37.586-41.211a3.195 3.195 0 100-6.39 3.195 3.195 0 000 6.39z" fill="#2A3CB7"/><path d="M10.207 54.137A4.536 4.536 0 017 52.812a4.488 4.488 0 01-1.326-3.206c0-.906.26-1.767.76-2.515l.09-.136-.102-.124A28.842 28.842 0 01.227 29c0-7.68 2.99-14.908 8.428-20.345C14.092 3.217 21.32.227 29 .227c1.926 0 3.852.192 5.732.566a.92.92 0 01.714 1.065.908.908 0 01-.884.725.992.992 0 01-.181-.023A28.496 28.496 0 0029 2.04C14.137 2.04 2.04 14.137 2.04 29c0 5.981 2.027 11.86 5.697 16.573l.113.147.17-.09a4.536 4.536 0 015.38.77 4.489 4.489 0 011.327 3.206 4.536 4.536 0 01-1.326 3.206 4.463 4.463 0 01-3.194 1.325zm0-7.25c-.725 0-1.405.283-1.926.793a2.736 2.736 0 000 3.851c.51.522 1.2.794 1.926.794.725 0 1.404-.284 1.925-.793a2.736 2.736 0 000-3.851 2.736 2.736 0 00-1.925-.794zM29 57.773a29.75 29.75 0 01-5.675-.555.92.92 0 01-.714-1.065.899.899 0 01.883-.724c.057 0 .125.01.182.022 1.733.351 3.523.521 5.313.521 14.862 0 26.96-12.098 26.96-26.96a27.094 27.094 0 00-5.697-16.574l-.114-.147-.17.09a4.536 4.536 0 01-5.38-.77 4.489 4.489 0 01-1.326-3.206c0-1.212.476-2.344 1.325-3.205a4.488 4.488 0 013.206-1.326c1.212 0 2.345.476 3.206 1.326a4.558 4.558 0 01.567 5.72l-.091.136.102.125c3.999 5.04 6.196 11.373 6.196 17.819 0 7.68-2.99 14.908-8.428 20.345-5.437 5.438-12.664 8.428-20.345 8.428zM47.793 5.675c-.725 0-1.404.284-1.925.793a2.736 2.736 0 000 3.852 2.736 2.736 0 003.851 0 2.707 2.707 0 000-3.84 2.618 2.618 0 00-1.926-.805z" fill="#282828"/><path d="M29 8.394c-.985 0-1.948.08-2.889.215H31.9a20.44 20.44 0 00-2.9-.215z" fill="#FD0"/><path d="M12.053 40.906l.102.102a9.816 9.816 0 01-.351-.578.88.88 0 00.25.476zM25.466 8.61a.85.85 0 00-.59.226c.408-.09.816-.159 1.235-.227h-.645zm20.458 32.307a.98.98 0 00.238-.419c-.102.159-.204.329-.306.487l.068-.068zm2.753-16.347c.351 1.553.532 3.173.532 4.826 0 1.36-.124 2.685-.362 3.965a.911.911 0 00.544-.827v-7.08a.91.91 0 00-.714-.883zM32.546 8.61h-.657c.419.067.838.135 1.246.226a.883.883 0 00-.59-.227zm-14.614 3.217a.898.898 0 00-.838.238l-5.007 5.007a.937.937 0 00-.159 1.076 20.647 20.647 0 016.004-6.321zM9.334 24.56a.92.92 0 00-.725.883v7.08c0 .238.091.476.26.646a.93.93 0 00.284.181 21.655 21.655 0 01-.362-3.954c0-1.665.18-3.285.543-4.837zm36.749-6.39a.983.983 0 00.113-.442.917.917 0 00-.26-.645l-5.008-5.007a.937.937 0 00-.645-.26.956.956 0 00-.193.022 20.785 20.785 0 015.993 6.332z" fill="#282828"/><path d="M48.677 24.57a1 1 0 00-.193-.022h-2.333l-.046-.17a17.635 17.635 0 00-1.744-4.191l-.09-.148 1.664-1.665c.057-.056.102-.136.148-.204a20.785 20.785 0 00-5.993-6.332.881.881 0 00-.453.238l-1.665 1.665-.147-.09a17.907 17.907 0 00-4.203-1.745l-.17-.046V9.517a.933.933 0 00-.306-.68c-.408-.09-.827-.17-1.246-.227h-5.789c-.419.057-.827.136-1.234.227a.902.902 0 00-.318.68v2.333l-.17.046a17.635 17.635 0 00-4.191 1.744l-.147.09-1.665-1.664a.976.976 0 00-.454-.238 20.918 20.918 0 00-6.003 6.32c.045.08.09.148.158.216l1.665 1.665-.09.147a17.634 17.634 0 00-1.745 4.192l-.045.17H9.516a.875.875 0 00-.182.022 21.904 21.904 0 00-.543 4.837c0 1.348.124 2.674.362 3.954.113.045.238.08.363.08h2.333l.046.17a17.522 17.522 0 001.744 4.202l.09.147-1.676 1.677a.919.919 0 00-.25.815c.114.193.239.386.352.578l4.905 4.905a.97.97 0 00.646.26c.25 0 .476-.09.646-.26l1.676-1.676.147.09a17.912 17.912 0 004.203 1.745l.17.045v2.356a.91.91 0 00.906.907h7.069a.909.909 0 00.906-.907v-2.356l.17-.045a17.52 17.52 0 004.203-1.745l.147-.09 1.677 1.676c.181.17.408.26.646.26.249 0 .475-.09.645-.26l4.94-4.939c.101-.158.203-.317.305-.487a.916.916 0 00-.238-.86l-1.676-1.677.09-.148a17.91 17.91 0 001.745-4.203l.045-.17h2.356a.8.8 0 00.363-.079c.238-1.28.362-2.605.362-3.964a21.8 21.8 0 00-.532-4.826zm-1.099 7.047h-2.186a.907.907 0 00-.884.713 15.528 15.528 0 01-2.175 5.257.924.924 0 00.125 1.132l1.54 1.541-3.726 3.727-1.541-1.54a.937.937 0 00-.646-.261c-.17 0-.34.057-.487.147a15.955 15.955 0 01-5.256 2.175.92.92 0 00-.714.884v2.186H26.36v-2.186a.907.907 0 00-.713-.884 15.527 15.527 0 01-5.256-2.175.849.849 0 00-.487-.147.95.95 0 00-.646.272l-1.54 1.54-3.728-3.726 1.54-1.541a.91.91 0 00.126-1.133 15.716 15.716 0 01-2.176-5.256.92.92 0 00-.883-.714h-2.175V26.36h2.186c.42 0 .793-.294.884-.713a15.527 15.527 0 012.175-5.256.924.924 0 00-.125-1.133l-1.53-1.53 3.728-3.726 1.53 1.529c.18.17.407.26.645.26.17 0 .34-.056.487-.147a15.722 15.722 0 015.256-2.175.92.92 0 00.714-.883v-2.164h5.267v2.163c0 .42.295.793.714.884a15.53 15.53 0 015.256 2.175.848.848 0 00.487.147c.25 0 .476-.09.646-.26l1.53-1.54 3.726 3.726-1.529 1.53a.91.91 0 00-.125 1.132 15.955 15.955 0 012.175 5.256.92.92 0 00.884.714h2.175v5.268z" fill="#282828"/><path d="M45.403 26.35a.92.92 0 01-.883-.715 15.955 15.955 0 00-2.176-5.256.91.91 0 01.125-1.133L44 17.718l-3.727-3.727-1.53 1.54a.898.898 0 01-.645.261.848.848 0 01-.488-.147 15.53 15.53 0 00-5.256-2.175.907.907 0 01-.713-.883v-2.164h-5.268v2.163a.92.92 0 01-.714.884 15.72 15.72 0 00-5.256 2.175.942.942 0 01-.487.147.938.938 0 01-.646-.26L17.74 14l-3.726 3.728 1.53 1.529a.924.924 0 01.124 1.133 15.527 15.527 0 00-2.175 5.256.907.907 0 01-.884.713h-2.186v5.268h2.175a.92.92 0 01.883.714 15.718 15.718 0 002.175 5.256.91.91 0 01-.124 1.133l-1.54 1.54 3.726 3.727 1.54-1.54a.95.95 0 01.646-.272c.17 0 .34.045.488.147a15.527 15.527 0 005.256 2.175c.419.09.713.465.713.884v2.186h5.268v-2.186a.92.92 0 01.714-.884 15.955 15.955 0 005.256-2.175.943.943 0 01.487-.147c.238 0 .465.09.646.26l1.54 1.541 3.727-3.727-1.54-1.54a.924.924 0 01-.125-1.133 15.528 15.528 0 002.175-5.257.907.907 0 01.884-.713h2.186v-5.268h-2.175zM29 38.13c-5.041 0-9.13-4.1-9.13-9.13 0-5.03 4.1-9.13 9.13-9.13 5.03 0 9.13 4.1 9.13 9.13 0 5.03-4.089 9.13-9.13 9.13z" fill="#FD0"/><path d="M29 19.87c-5.03 0-9.13 4.1-9.13 9.13 0 5.03 4.089 9.13 9.13 9.13s9.13-4.1 9.13-9.13c0-5.03-4.1-9.13-9.13-9.13zm0 16.448c-4.033 0-7.318-3.285-7.318-7.318 0-4.033 3.285-7.318 7.318-7.318 4.033 0 7.318 3.285 7.318 7.318 0 4.033-3.285 7.318-7.318 7.318zM39.433 4.055a.97.97 0 01-.645-.26.917.917 0 01.01-1.291.892.892 0 01.635-.261.97.97 0 01.646.26c.17.17.26.408.26.646a.97.97 0 01-.26.646.937.937 0 01-.646.26zM18.623 55.78a.97.97 0 01-.645-.26.917.917 0 01-.26-.647.97.97 0 01.26-.645c.17-.17.408-.26.645-.26.238 0 .476.101.646.26.17.17.26.408.26.645a.97.97 0 01-.26.646.992.992 0 01-.646.26z" fill="#282828"/></svg>