<svg width="446" height="22" viewBox="0 0 446 22" fill="none" xmlns="http://www.w3.org/2000/svg">
<path d="M409.9 2.6C400.2 2 390.4 1.6 380.7 1.1C377.5 0.9 374.3 0.9 371 0.8C364 0.6 357 0.4 350.1 0.3C346.2 0.2 342.3 0.1 338.4 0C337.3 0 336.1 0 335 0C332.5 0 329.9 0 327.4 0C315.9 0 304.4 0 292.9 0C290.2 0 287.4 0.1 284.7 0.1C277.9 0.2 271.1 0.3 264.4 0.4C256.7 0.5 249.1 0.5 241.4 0.7C229 1 216.6 1.3 204.3 1.6C197.1 1.8 190 1.9 182.8 2.2C170.5 2.7 158.1 3.2 145.8 3.7C139.1 4 132.3 4.2 125.6 4.6C112.7 5.3 99.9 6 87.1 6.7C80.3 7.1 73.5 7.4 66.7 8C54 9.1 41.3 10.1 28.5 11.2C25.8 11.4 23 11.7 20.3 11.9C14.8 12.4 9.3 13.1 3.9 13.7C3.6 13.7 3.2 13.8 2.9 13.8C2.2 14 1.7 14.3 1.2 14.8C0.4 15.6 0 16.6 0 17.6C0 18.6 0.4 19.6 1.1 20.3C1.8 21 2.9 21.5 3.8 21.4C10.4 20.7 17 19.9 23.6 19.3C29.7 18.8 35.9 18.3 42 17.7C48.7 17.1 55.4 16.6 62.1 16C64.8 15.8 67.5 15.5 70.2 15.3C80.6 14.7 91.1 14.2 101.5 13.6C108 13.2 114.5 12.9 121 12.5C123.7 12.4 126.4 12.2 129.1 12.1C139.4 11.7 149.8 11.3 160.1 10.9C166.4 10.7 172.6 10.4 178.9 10.2C181 10.1 183.1 10 185.2 10C196.4 9.7 207.5 9.5 218.7 9.2C224.9 9.1 231.2 8.9 237.4 8.8C239.6 8.7 241.8 8.7 244.1 8.7C255.6 8.6 267.1 8.5 278.7 8.3C285.9 8.2 293.1 8.2 300.3 8.2C312.5 8.2 324.8 8.3 337 8.3C339.4 8.3 341.8 8.4 344.2 8.5C351 8.7 357.7 8.9 364.5 9.1C369.6 9.3 374.6 9.4 379.7 9.5C383.3 9.6 386.9 9.9 390.5 10.1C401.1 10.7 411.6 11.3 422.2 11.9C424.9 12.1 427.6 12.3 430.2 12.5C433.1 12.7 436 12.9 438.8 13.2C439.2 13.3 439.7 13.4 440.1 13.5C441.2 13.7 442.3 13.7 443.3 13.1C444.2 12.6 444.9 11.6 445.2 10.6C445.8 8.4 444.5 6.1 442.3 5.4C440.4 4.9 438.4 4.7 436.4 4.5C435 4.4 433.7 4.2 432.3 4.1C429.7 3.8 427.1 3.7 424.4 3.5C419.7 3.1 414.8 2.9 409.9 2.6Z" fill="#15C3EE"/>
</svg>
