<svg width="304" height="21" viewBox="0 0 304 21" fill="none" xmlns="http://www.w3.org/2000/svg">
<path d="M279.707 2.53953C273.088 1.95349 266.401 1.56279 259.782 1.07442C257.598 0.87907 255.415 0.87907 253.163 0.781395C248.386 0.586047 243.609 0.390698 238.901 0.293023C236.24 0.195349 233.578 0.0976744 230.917 0C230.167 0 229.348 0 228.597 0C226.891 0 225.117 0 223.411 0C215.564 0 207.716 0 199.869 0C198.026 0 196.116 0.0976744 194.273 0.0976744C189.633 0.195349 184.993 0.293023 180.421 0.390698C175.167 0.488372 169.981 0.488372 164.726 0.683721C156.265 0.976744 147.803 1.26977 139.41 1.56279C134.497 1.75814 129.652 1.85581 124.739 2.14884C116.346 2.63721 107.884 3.12558 99.4909 3.61395C94.919 3.90698 90.2788 4.10233 85.7068 4.49302C76.9042 5.17674 68.1697 5.86047 59.4352 6.54419C54.7951 6.93488 50.1549 7.22791 45.5147 7.81395C36.8485 8.88837 28.1823 9.86512 19.4478 10.9395C17.6054 11.1349 15.6947 11.4279 13.8523 11.6233C10.0992 12.1116 6.34613 12.7953 2.66128 13.3814C2.45657 13.3814 2.18361 13.4791 1.9789 13.4791C1.50123 13.6744 1.16004 13.9674 0.818855 14.4558C0.272952 15.2372 0 16.214 0 17.1907C0 18.1674 0.272952 19.1442 0.750617 19.8279C1.22828 20.5116 1.9789 21 2.59304 20.9023C7.09675 20.2186 11.6004 19.4372 16.1042 18.8512C20.2667 18.3628 24.4974 17.8744 28.6599 17.2884C33.2319 16.7023 37.8038 16.214 42.3758 15.6279C44.2182 15.4326 46.0606 15.1395 47.903 14.9442C54.9998 14.3581 62.1648 13.8698 69.2615 13.2837C73.697 12.893 78.1324 12.6 82.5679 12.2093C84.4103 12.1116 86.2528 11.9163 88.0952 11.8186C95.1237 11.4279 102.22 11.0372 109.249 10.6465C113.548 10.4512 117.779 10.1581 122.078 9.96279C123.511 9.86512 124.944 9.76744 126.377 9.76744C134.019 9.47442 141.594 9.27907 149.236 8.98605C153.467 8.88837 157.766 8.69302 161.997 8.59535C163.498 8.49767 164.999 8.49767 166.569 8.49767C174.416 8.4 182.264 8.30233 190.179 8.10698C195.092 8.0093 200.005 8.0093 204.919 8.0093C213.244 8.0093 221.637 8.10698 229.962 8.10698C231.6 8.10698 233.237 8.20465 234.875 8.30233C239.515 8.49767 244.087 8.69302 248.727 8.88837C252.207 9.08372 255.619 9.1814 259.099 9.27907C261.556 9.37674 264.013 9.66977 266.469 9.86512C273.702 10.4512 280.867 11.0372 288.101 11.6233C289.943 11.8186 291.785 12.014 293.56 12.2093C295.539 12.4047 297.517 12.6 299.428 12.893C299.701 12.9907 300.042 13.0884 300.315 13.186C301.066 13.3814 301.816 13.3814 302.499 12.7953C303.113 12.307 303.591 11.3302 303.795 10.3535C304.205 8.20465 303.318 5.95814 301.816 5.27442C300.52 4.78605 299.155 4.5907 297.79 4.39535C296.835 4.29767 295.948 4.10233 294.993 4.00465C293.218 3.71163 291.444 3.61395 289.602 3.4186C286.395 3.02791 283.051 2.83256 279.707 2.53953Z" fill="#15C3EE"/>
</svg>
