<svg width="12" height="12" viewBox="0 0 12 12" fill="none" xmlns="http://www.w3.org/2000/svg">
<path id="add 1 (Traced)" fill-rule="evenodd" clip-rule="evenodd" d="M5.79134 0.0198285C5.36189 0.104141 5.00646 0.482563 4.94478 0.921087C4.93124 1.01739 4.92148 1.85296 4.92122 2.94126L4.92075 4.79719L4.85891 4.85906L4.79704 4.9209L2.94098 4.92137C1.85261 4.92162 1.01698 4.93138 0.920672 4.94492C0.339381 5.02667 -0.0810851 5.58892 0.0132512 6.15833C0.0908598 6.62655 0.456568 6.98778 0.920672 7.05459C1.01975 7.06885 1.82122 7.0784 2.94098 7.07868L4.79704 7.07915L4.85891 7.14099L4.92075 7.20285L4.92122 9.05879C4.92148 10.1471 4.93124 10.9827 4.94478 11.079C5.0099 11.5419 5.37388 11.9088 5.84563 11.987C6.41094 12.0806 6.97365 11.6582 7.05513 11.079C7.06867 10.9827 7.07843 10.1471 7.07869 9.05879L7.07916 7.20285L7.141 7.14099L7.20287 7.07915L9.05893 7.07868C10.1787 7.0784 10.9802 7.06885 11.0792 7.05459C11.5433 6.98778 11.9091 6.62655 11.9867 6.15833C12.0811 5.58822 11.6631 5.02951 11.0792 4.94546C10.9802 4.93119 10.1787 4.92165 9.05893 4.92137L7.20287 4.9209L7.141 4.85906L7.07916 4.79719L7.07869 2.94126C7.07841 1.82157 7.06886 1.02016 7.05459 0.921087C6.9676 0.316776 6.38734 -0.0972098 5.79134 0.0198285Z" fill="#15C3EE"/>
</svg>
