<svg width="68" height="68" viewBox="0 0 68 68" fill="none" xmlns="http://www.w3.org/2000/svg">
<circle opacity="0.2" cx="34" cy="34" r="34" fill="#FE5C01"/>
<circle cx="34.0017" cy="34" r="15.5593" fill="#FE5C01"/>
<path d="M33.8712 42.7773C37.3341 39.2155 40.797 36.0261 40.797 32.0917C40.797 28.1574 37.6962 24.968 33.8712 24.968C30.0461 24.968 26.9453 28.1574 26.9453 32.0917C26.9453 36.0261 30.4082 39.2155 33.8712 42.7773Z" stroke="white" stroke-width="1.97881" stroke-linecap="round" stroke-linejoin="round"/>
<path d="M33.8712 34.8621C35.5105 34.8621 36.8394 33.5332 36.8394 31.8939C36.8394 30.2546 35.5105 28.9256 33.8712 28.9256C32.2319 28.9256 30.9029 30.2546 30.9029 31.8939C30.9029 33.5332 32.2319 34.8621 33.8712 34.8621Z" stroke="white" stroke-width="1.97881" stroke-linecap="round" stroke-linejoin="round"/>
</svg>
