<svg width="24" height="24" viewBox="0 0 24 24" fill="none" xmlns="http://www.w3.org/2000/svg">
<path d="M16.6582 9.28641C18.098 10.1862 18.8178 10.6362 19.0647 11.2122C19.2803 11.7153 19.2803 12.2847 19.0647 12.7878C18.8178 13.3639 18.098 13.8138 16.6582 14.7136L9.896 18.94C8.29805 19.9387 7.49907 20.4381 6.83973 20.3851C6.26501 20.3389 5.73818 20.0469 5.3944 19.584C5 19.053 5 18.1108 5 16.2264V7.7736C5 5.88922 5 4.94704 5.3944 4.41601C5.73818 3.95313 6.26501 3.66114 6.83973 3.61494C7.49907 3.56193 8.29805 4.06129 9.896 5.06001L16.6582 9.28641Z" stroke="white" stroke-width="2" stroke-linejoin="round"/>
</svg>
