<svg width="31" height="31" viewBox="0 0 31 31" fill="none" xmlns="http://www.w3.org/2000/svg">
<path id="add 1 (Traced)" fill-rule="evenodd" clip-rule="evenodd" d="M14.8237 9.4959C14.3942 9.58022 14.0388 9.95864 13.9771 10.3972C13.9636 10.4935 13.9538 11.329 13.9536 12.4173L13.9531 14.2733L13.8913 14.3351L13.8294 14.397L11.9733 14.3974C10.885 14.3977 10.0493 14.4075 9.95302 14.421C9.37173 14.5027 8.95126 15.065 9.0456 15.6344C9.12321 16.1026 9.48892 16.4639 9.95302 16.5307C10.0521 16.5449 10.8536 16.5545 11.9733 16.5548L13.8294 16.5552L13.8913 16.6171L13.9531 16.6789L13.9536 18.5349C13.9538 19.6232 13.9636 20.4587 13.9771 20.555C14.0423 21.018 14.4062 21.3849 14.878 21.463C15.4433 21.5567 16.006 21.1343 16.0875 20.555C16.101 20.4587 16.1108 19.6232 16.111 18.5349L16.1115 16.6789L16.1733 16.6171L16.2352 16.5552L18.0913 16.5548C19.211 16.5545 20.0125 16.5449 20.1116 16.5307C20.5757 16.4639 20.9414 16.1026 21.019 15.6344C21.1135 15.0643 20.6955 14.5056 20.1116 14.4215C20.0125 14.4073 19.211 14.3977 18.0913 14.3974L16.2352 14.397L16.1733 14.3351L16.1115 14.2733L16.111 12.4173C16.1108 11.2976 16.1012 10.4962 16.0869 10.3972C15.9999 9.79285 15.4197 9.37886 14.8237 9.4959Z" fill="white"/>
</svg>
