<svg width="19" height="19" viewBox="0 0 19 19" fill="none" xmlns="http://www.w3.org/2000/svg">
<path fill-rule="evenodd" clip-rule="evenodd" d="M8.85376 0.529743C8.20958 0.656212 7.67643 1.22384 7.58391 1.88163C7.56361 2.02608 7.54897 3.27944 7.54858 4.91189L7.54788 7.69579L7.45511 7.78858L7.36231 7.88134L4.57822 7.88205C2.94566 7.88243 1.69222 7.89707 1.54776 7.91738C0.67582 8.04001 0.0451204 8.88338 0.186625 9.73749C0.303038 10.4398 0.8516 10.9817 1.54776 11.0819C1.69637 11.1033 2.89857 11.1176 4.57822 11.118L7.36231 11.1187L7.45511 11.2115L7.54788 11.3043L7.54858 14.0882C7.54897 15.7206 7.56361 16.974 7.58391 17.1184C7.6816 17.8129 8.22756 18.3632 8.93519 18.4805C9.78316 18.6209 10.6272 17.9873 10.7494 17.1184C10.7698 16.974 10.7844 15.7206 10.7848 14.0882L10.7855 11.3043L10.8782 11.2115L10.971 11.1187L13.7551 11.118C15.4348 11.1176 16.637 11.1033 16.7856 11.0819C17.4818 10.9817 18.0303 10.4398 18.1467 9.73749C18.2884 8.88233 17.6614 8.04427 16.7856 7.91819C16.637 7.89679 15.4348 7.88247 13.7551 7.88205L10.971 7.88134L10.8782 7.78858L10.7855 7.69579L10.7848 4.91189C10.7844 3.23236 10.77 2.03023 10.7486 1.88163C10.6181 0.975164 9.74776 0.354185 8.85376 0.529743Z" fill="#15C3EE"/>
</svg>
