<svg width="103" height="55" viewBox="0 0 103 55" fill="none" xmlns="http://www.w3.org/2000/svg">
<path d="M100.617 5.87459C97.2068 8.47972 94.053 11.3068 91.0613 14.3762L91.0498 14.3809C91.0028 14.4282 90.9559 14.4756 90.9088 14.5233C90.2529 15.2069 91.3529 16.0695 92.0432 15.6154C94.5381 13.9691 96.8935 11.2245 99.3885 9.57776C93.8579 21.393 87.7568 34.8364 76.5011 42.1367C65.1558 49.4959 51.5844 49.432 41.6092 40.7634C46.3096 30.7386 45.8198 18.0724 41.024 8.26185C39.0684 4.27224 33.9514 -2.51451 29.3598 2.5893C25.0255 7.39868 27.343 17.6404 28.9385 23.0683C30.921 29.8227 34.679 36.2659 39.7353 41.0831C39.3676 41.8323 38.9734 42.5523 38.5524 43.2431C34.7973 49.3979 28.215 54.6817 20.5237 53.581C10.7516 52.1833 5.42384 42.3716 1.42871 34.5101C1.21296 34.0873 0.550211 34.3733 0.754527 34.801C4.30159 42.2992 8.49154 50.3684 16.6516 53.7583C23.3638 56.5441 30.2889 54.3368 35.3444 49.5556C37.6192 47.3997 39.4706 44.8902 40.9202 42.1671C46.7847 47.2535 54.244 50.1717 62.6548 49.0815C82.4151 46.5091 92.8224 28.442 100.611 12.0956L100.859 16.8555C100.914 17.864 102.473 17.6186 102.424 16.6218C102.299 14.1099 102.165 11.5944 102.037 9.09054C102.083 8.99623 101.94 8.12245 101.979 8.02436C101.787 7.19743 102.037 9.09054 101.976 7.97637C101.952 7.45017 101.921 6.92089 101.898 6.39486C101.86 5.75922 101.041 5.54232 100.617 5.87459ZM38.3579 37.489C33.977 32.3532 31.0245 25.9902 29.6539 19.4469C28.9582 16.1289 28.5817 12.6256 28.7963 9.24063C28.8802 7.90112 29.038 6.42093 29.6095 5.19681C31.3367 1.4919 35.0918 2.39709 37.3575 5.12599C44.7998 14.0729 44.994 29.0865 40.3913 39.6664C39.6976 38.9814 39.0167 38.2638 38.3579 37.489Z" fill="#EBE716"/>
</svg>
