<svg width="36" height="43" viewBox="0 0 36 43" fill="none" xmlns="http://www.w3.org/2000/svg">
<g id="&#209;&#129;&#209;&#130;&#209;&#128;&#208;&#181;&#208;&#187;&#208;&#190;&#209;&#135;&#208;&#186;&#208;&#176;" clip-path="url(#clip0_101_422)">
<path id="Vector" d="M35.8433 18.0723C34.9716 11.495 31.3395 5.50235 27.1263 0.532829C26.5452 -0.124901 25.6008 -0.197983 24.947 0.386666C24.2933 0.971315 24.2206 1.92137 24.8018 2.5791C28.6518 7.11013 32.0659 12.5181 32.7923 18.5108C32.865 19.3878 33.664 19.9724 34.5357 19.8263C35.3348 19.7532 35.9159 18.9493 35.8433 18.0723Z" fill="#F2E913"/>
<path id="Vector_2" d="M24.1482 32.9078C19.7171 33.127 15.7945 34.3694 11.6539 35.5387C10.8549 35.7579 10.3464 36.6349 10.5643 37.4388C10.7822 38.2427 11.6539 38.7542 12.453 38.535C16.4482 37.4388 20.153 36.2695 24.2935 36.0502C25.1652 35.9772 25.819 35.3194 25.7464 34.4425C25.6737 33.4924 25.0199 32.8347 24.1482 32.9078Z" fill="#F2E913"/>
<path id="Vector_3" d="M29.5234 21.8725C21.2423 16.903 11.2904 12.8104 1.77437 10.7641C0.975312 10.618 0.103613 11.1296 -0.0416695 11.9334C-0.186953 12.7373 0.321537 13.6143 1.12059 13.7605C10.2734 15.8067 19.9347 19.68 27.9253 24.5034C28.6517 24.9419 29.5961 24.7226 30.0319 23.9918C30.4678 23.261 30.2498 22.311 29.5234 21.8725Z" fill="#F2E913"/>
</g>
<defs>
<clipPath id="clip0_101_422">
<rect width="36" height="43" fill="white"/>
</clipPath>
</defs>
</svg>
