<svg width="275" height="116" viewBox="0 0 275 116" fill="none" xmlns="http://www.w3.org/2000/svg">
<path d="M268.272 34.3249C269.065 38.6661 266.38 43.571 260.491 48.7642C254.628 53.9334 245.72 59.2696 234.41 64.4572C211.798 74.8291 179.693 84.5598 143.456 91.179C107.22 97.7982 73.7476 100.047 48.9289 98.3387C36.5156 97.4845 26.2961 95.6425 18.9848 92.8795C11.6399 90.1039 7.39448 86.4649 6.60148 82.1237C5.80848 77.7825 8.49318 72.8776 14.3825 67.6844C20.2448 62.5152 29.153 57.179 40.4627 51.9914C63.0749 41.6195 95.1805 31.8888 131.417 25.2696C167.653 18.6504 201.125 16.402 225.944 18.1099C238.358 18.9641 248.577 20.8061 255.888 23.5691C263.233 26.3447 267.479 29.9837 268.272 34.3249Z" stroke="#D3B298"/>
<g clip-path="url(#clip0_306_725)">
<path fill-rule="evenodd" clip-rule="evenodd" d="M82.0414 50.2839L90.6152 55.9422V66.3938L81.9919 81.8366L82.0414 50.2839Z" fill="#62B22F"/>
<path fill-rule="evenodd" clip-rule="evenodd" d="M74.9254 45.8364L83.4745 50.8028L58.0742 66.2209L66.3515 51.1487L74.9254 45.8364Z" fill="#974995"/>
<path fill-rule="evenodd" clip-rule="evenodd" d="M114.829 31.5795L98.4724 31.5054L90.5904 26.7614L82.0413 11.7881L114.829 31.5795Z" fill="#EE7024"/>
<path fill-rule="evenodd" clip-rule="evenodd" d="M82.0414 11.7881L90.5905 26.7614L90.6152 47.4177L81.9919 44.7739L82.0414 11.7881Z" fill="#FBB61B"/>
<path fill-rule="evenodd" clip-rule="evenodd" d="M58 26.8604L66.4009 42.1055L66.3515 51.1488L58.0741 66.2209L58 26.8604Z" fill="#5A58A3"/>
<path fill-rule="evenodd" clip-rule="evenodd" d="M58 26.8604L114.706 61.551L98.4477 61.6498L66.4009 42.1055L58 26.8604Z" fill="#2188CB"/>
<path fill-rule="evenodd" clip-rule="evenodd" d="M98.4723 31.5055L114.829 31.5796L90.615 46.4541L90.5903 36.2989L98.4723 31.5055Z" fill="#DA0954"/>
<path fill-rule="evenodd" clip-rule="evenodd" d="M145.616 33.9516C147.593 32.1479 150.335 31.2337 153.004 31.3078C155.796 31.2584 158.613 31.4313 161.405 31.1101C160.812 32.9632 159.576 34.5693 158.761 36.3236C156.76 36.3483 154.758 36.2989 152.732 36.3483C150.162 36.5707 147.692 38.6462 147.445 41.2653C149.792 38.918 153.449 38.7697 156.488 39.5357C158.514 40.2275 160.342 41.7594 161.084 43.8102C161.775 45.614 161.874 47.5906 161.43 49.4685C160.762 52.0382 158.687 54.0395 156.241 54.9785C153.375 56.0656 150.064 56.115 147.197 54.9785C144.48 53.8666 142.552 51.2969 141.91 48.4801C141.193 45.9599 141.292 42.2536 142.033 39.7086C142.676 37.5343 143.936 35.5082 145.616 33.9516ZM152.584 43.7608C151.052 43.4643 149.322 44.082 148.532 45.4163C147.099 47.8624 149.075 51.4946 152.287 51.0498C155.821 50.5556 156.735 44.8727 152.584 43.7608ZM129.803 37.4355C132.965 36.6448 136.598 36.8919 139.291 38.8686C138.401 40.3016 137.586 41.8089 136.77 43.2914C135.461 42.8466 134.176 42.1548 132.743 42.1795C131.236 42.1301 129.58 42.7231 128.716 44.0326C127.801 45.4163 127.752 47.3188 128.641 48.7272C129.432 50.0615 131.013 50.6792 132.496 50.8027C133.657 50.6792 134.843 50.5062 135.906 50.0121C136.153 49.8638 136.449 49.8638 136.746 49.8885C137.265 51.3957 138.426 52.6312 138.871 54.1384C135.955 55.695 132.471 56.0162 129.284 55.2503C127.085 54.6078 124.985 53.3477 123.724 51.371C121.723 48.3072 121.797 43.9832 124.095 41.117C125.479 39.2392 127.604 38.0285 129.803 37.4355ZM164.543 37.5096C170.695 37.4602 176.848 37.4602 183 37.5096C182.951 43.3655 182.975 49.1967 182.975 55.0526C180.9 55.0526 178.824 55.0773 176.773 55.0526C176.872 51.2228 176.675 47.393 176.798 43.5632C176.798 43.2667 176.749 42.9949 176.601 42.7231C174.723 42.7725 172.82 42.7725 170.918 42.7231C170.794 46.8247 170.893 50.9263 170.868 55.0526C168.768 55.0773 166.643 55.0773 164.543 55.0526C164.543 49.2214 164.567 43.3655 164.543 37.5096Z" fill="white"/>
<path fill-rule="evenodd" clip-rule="evenodd" d="M90.6152 66.3939L98.4478 61.6499L114.706 61.551L81.9919 81.8367L90.6152 66.3939Z" fill="#037F37"/>
</g>
<defs>
<clipPath id="clip0_306_725">
<rect width="125" height="70.0484" fill="white" transform="translate(58 11.7885)"/>
</clipPath>
</defs>
</svg>
