<svg width="56" height="56" viewBox="0 0 56 56" fill="none" xmlns="http://www.w3.org/2000/svg">
<g clip-path="url(#clip0_115_138)">
<path d="M54.152 14.2827H41.9253L42.2753 13.0407C42.5213 12.1727 42.4145 11.2422 41.9784 10.4532C41.5423 9.66418 40.8125 9.08105 39.949 8.83167L9.69383 0.132457C8.82964 -0.11529 7.90288 -0.00852773 7.11698 0.429309C6.33108 0.867145 5.75026 1.60028 5.502 2.46779L3.46849 9.60855L2.91666 11.5455L0.131828 21.3145C-0.113199 22.1823 -0.00614964 23.1122 0.429569 23.901C0.865289 24.6897 1.59423 25.2731 2.45699 25.5235L11.039 27.9913V37.2131C11.0396 37.7052 11.2345 38.1769 11.5809 38.5248C11.9274 38.8728 12.3971 39.0685 12.887 39.0692H22.4233C22.2591 40.7994 21.6121 42.448 20.5567 43.8254C16.5725 48.5253 18.34 55.1013 18.4228 55.379C18.4728 55.5579 18.5796 55.7154 18.7271 55.8276C18.8746 55.9397 19.0545 56.0003 19.2395 56C19.3183 56.0013 19.3969 55.991 19.4728 55.9696C19.5802 55.9391 19.6806 55.8876 19.7681 55.818C19.8556 55.7484 19.9286 55.6621 19.9828 55.5641C20.037 55.4661 20.0714 55.3583 20.084 55.2469C20.0966 55.1355 20.0871 55.0227 20.0562 54.915C20.0398 54.8552 18.4438 48.939 21.8505 44.9233C25.018 41.183 24.3822 34.8016 23.961 30.5774C23.8933 29.8954 23.8303 29.2673 23.7907 28.7142C23.7668 28.3499 23.8189 27.9845 23.9437 27.6415C24.0684 27.2985 24.2631 26.9854 24.5152 26.7222C24.8138 26.4011 25.1751 26.1452 25.5766 25.9704C25.978 25.7956 26.411 25.7057 26.8485 25.7063C27.2896 25.7091 27.7255 25.8021 28.1297 25.9795C28.5338 26.157 28.8978 26.4153 29.1993 26.7386C29.4462 26.9984 29.636 27.3073 29.7566 27.6454C29.8772 27.9835 29.9258 28.3432 29.8993 28.7014C28.679 43.5945 32.9117 46.115 33.3993 46.354C33.6001 46.4436 33.8276 46.4514 34.0341 46.3759C34.2405 46.3003 34.4096 46.1473 34.5059 45.949C34.6022 45.7506 34.6182 45.5225 34.5504 45.3126C34.4826 45.1028 34.3364 44.9275 34.1425 44.8237C34.118 44.812 32.5092 43.741 31.7602 39.0586H42.6207C43.1422 44.1136 40.5918 49.8928 37.6682 54.6513C37.6097 54.7464 37.5705 54.8522 37.5527 54.9625C37.535 55.0728 37.539 55.1856 37.5646 55.2943C37.5902 55.4031 37.6369 55.5057 37.702 55.5963C37.7672 55.687 37.8494 55.7638 37.9441 55.8225C38.0388 55.8812 38.144 55.9206 38.2539 55.9385C38.3637 55.9563 38.476 55.9523 38.5843 55.9265C38.6925 55.9008 38.7947 55.8539 38.885 55.7885C38.9752 55.7231 39.0517 55.6405 39.1102 55.5454C42.994 49.2249 44.7102 43.6484 44.2972 39.0586H54.1567C54.644 39.0568 55.1109 38.8619 55.456 38.5164C55.8011 38.1708 55.9966 37.7025 56 37.2131V16.1376C55.9994 15.6457 55.8044 15.1741 55.458 14.8263C55.1115 14.4785 54.6418 14.283 54.152 14.2827ZM54.306 16.1376V20.1896C53.2754 19.9921 52.3292 19.4837 51.5938 18.732C50.8583 17.9804 50.3686 17.0214 50.19 15.983H54.1567C54.1966 15.9845 54.2344 16.0014 54.2622 16.0302C54.29 16.059 54.3057 16.0975 54.306 16.1376ZM7.13183 2.93533C7.25613 2.5006 7.547 2.13311 7.94067 1.91345C8.33433 1.6938 8.79865 1.63989 9.23183 1.76356L39.487 10.4663C39.7015 10.5278 39.9018 10.6312 40.0765 10.7705C40.2512 10.9098 40.3969 11.0823 40.5053 11.2782C40.6136 11.474 40.6825 11.6894 40.7079 11.912C40.7334 12.1346 40.7149 12.36 40.6537 12.5755L40.0937 14.5429L6.57183 4.90156L7.13183 2.93533ZM5.32933 9.25702L6.10516 6.535L39.6235 16.1705L38.2958 20.8294L4.78333 11.1951L5.32933 9.25702ZM12.733 37.2084V33.1388C13.785 33.3168 14.7557 33.8196 15.5101 34.5773C16.2645 35.335 16.7651 36.3099 16.9423 37.3666H12.887C12.8668 37.3667 12.8468 37.3629 12.8281 37.3552C12.8095 37.3476 12.7925 37.3363 12.7782 37.322C12.7639 37.3078 12.7525 37.2908 12.7447 37.2721C12.737 37.2534 12.733 37.2333 12.733 37.2131V37.2084ZM22.5832 37.3619H18.6667C18.4758 35.8499 17.7898 34.4446 16.7167 33.367C15.6436 32.2894 14.2443 31.6007 12.7388 31.4093V28.474L22.3242 31.2312C22.5599 33.2672 22.6465 35.3178 22.5832 37.3666V37.3619ZM26.8427 24.0213C26.1728 24.0214 25.5102 24.1598 24.8959 24.4279C24.2815 24.696 23.7286 25.0881 23.2715 25.5798C22.8605 26.0129 22.5438 26.5273 22.3417 27.0902C22.1396 27.6531 22.0566 28.2521 22.0978 28.849C22.1107 29.0271 22.1293 29.2251 22.1457 29.4173L2.92366 23.8866C2.49065 23.762 2.12456 23.4699 1.90582 23.0744C1.68707 22.6789 1.63354 22.2124 1.75699 21.7774L4.31666 12.8344L37.8362 22.4687L35.28 31.4187C35.2188 31.6342 35.116 31.8355 34.9773 32.0111C34.8387 32.1866 34.6669 32.333 34.4719 32.4418C34.2768 32.5507 34.0623 32.6198 33.8407 32.6453C33.619 32.6708 33.3945 32.6522 33.18 32.5905L31.3985 32.0796C31.4288 31.08 31.486 30.0126 31.5805 28.8572C31.6267 28.264 31.5486 27.6676 31.3513 27.1065C31.1539 26.5455 30.8417 26.0322 30.4348 25.5997C29.9765 25.1024 29.4209 24.7055 28.8028 24.4339C28.1847 24.1623 27.5173 24.0218 26.8427 24.0213ZM31.5397 37.3713C31.4318 36.1979 31.3773 35.0202 31.3763 33.8419L32.718 34.2274C33.582 34.4755 34.5088 34.3688 35.2946 33.9309C36.0804 33.493 36.6609 32.7597 36.9087 31.8921L39.6923 22.123L40.1053 20.6712L41.44 15.9841H48.4715C48.6657 17.4775 49.3409 18.8661 50.3941 19.9381C51.4473 21.01 52.8207 21.7066 54.3048 21.9215V31.4327C52.8209 31.6471 51.4475 32.3432 50.3943 33.4148C49.341 34.4864 48.6658 35.8747 48.4715 37.3678L31.5397 37.3713ZM54.152 37.3713H50.1853C50.3635 36.3315 50.8535 35.3712 51.5899 34.6188C52.3263 33.8664 53.2739 33.3578 54.306 33.1611V37.2131C54.306 37.2333 54.302 37.2534 54.2943 37.2721C54.2865 37.2908 54.2751 37.3078 54.2608 37.322C54.2465 37.3363 54.2295 37.3476 54.2108 37.3552C54.1922 37.3629 54.1722 37.3667 54.152 37.3666V37.3713Z" fill="#ADC0D2"/>
<path d="M17.2663 21.6344L6.59831 18.5679C6.38171 18.5057 6.14941 18.5325 5.95249 18.6424C5.75558 18.7523 5.61019 18.9362 5.54831 19.1537C5.48642 19.3713 5.51311 19.6046 5.62251 19.8024C5.73191 20.0002 5.91505 20.1462 6.13164 20.2083L16.7996 23.2725C17.0162 23.3347 17.2485 23.3079 17.4455 23.198C17.6424 23.0881 17.7878 22.9042 17.8496 22.6866C17.9115 22.4691 17.8848 22.2358 17.7754 22.038C17.666 21.8402 17.4829 21.6942 17.2663 21.632V21.6344ZM45.6163 23.2713C44.9458 23.2716 44.2904 23.4716 43.7331 23.846C43.1758 24.2204 42.7416 24.7525 42.4854 25.3748C42.2292 25.9972 42.1626 26.6819 42.294 27.3423C42.4254 28.0027 42.7488 28.6091 43.2235 29.0848C43.6981 29.5605 44.3025 29.8841 44.9603 30.0147C45.6181 30.1453 46.2997 30.077 46.9188 29.8184C47.5379 29.5598 48.0667 29.1226 48.4384 28.5621C48.81 28.0016 49.0078 27.3429 49.0066 26.6695C49.0039 25.7679 48.6456 24.9041 48.0101 24.2672C47.3747 23.6304 46.514 23.2723 45.6163 23.2713ZM45.6163 28.3767C45.2814 28.3765 44.954 28.2765 44.6756 28.0895C44.3972 27.9025 44.1803 27.6367 44.0522 27.3259C43.9241 27.015 43.8907 26.673 43.9561 26.3431C44.0215 26.0132 44.1828 25.7101 44.4196 25.4722C44.6565 25.2344 44.9582 25.0724 45.2867 25.0067C45.6152 24.941 45.9557 24.9746 46.2652 25.1032C46.5747 25.2318 46.8393 25.4497 47.0255 25.7293C47.2117 26.009 47.3112 26.3377 47.3115 26.6742C47.3112 27.1256 47.1325 27.5585 46.8146 27.8777C46.4968 28.1969 46.0658 28.3764 45.6163 28.3767Z" fill="#ADC0D2"/>
</g>
<defs>
<clipPath id="clip0_115_138">
<rect width="56" height="56" fill="white"/>
</clipPath>
</defs>
</svg>
