<svg width="56" height="56" viewBox="0 0 56 56" fill="none" xmlns="http://www.w3.org/2000/svg">
<g clip-path="url(#clip0_115_135)">
<path d="M56 19.0717C55.9987 18.2216 55.7487 17.3594 55.1958 16.6486L50.7586 10.9712C50.0154 10.0275 48.8846 9.54703 47.7545 9.54517C47.082 9.54517 46.3972 9.71754 45.7921 10.0949L41.4657 12.7866C41.0107 13.0768 40.2306 13.2759 39.4772 13.2708C38.8918 13.2733 38.3261 13.1562 37.9526 12.9717L33.7158 10.9195C33.0325 10.5905 32.2707 10.4556 31.5046 10.4543C30.4044 10.4594 29.2902 10.7298 28.3948 11.3503L27.9005 11.6971C27.5053 11.4999 26.9014 11.1995 26.2174 10.8591C25.3971 10.4569 24.4325 10.2947 23.4582 10.2915C22.5781 10.2941 21.6981 10.4297 20.9255 10.7561L18.0398 11.9874C17.5701 12.1911 16.8231 12.3241 16.0811 12.3208C15.3391 12.3239 14.5934 12.1909 14.1237 11.9874L11.2353 10.7554C10.7085 10.5307 10.1453 10.4347 9.58716 10.4341C8.94425 10.4354 8.3076 10.5603 7.71181 10.8019C7.11878 11.0437 6.5683 11.4007 6.12992 11.8906L0.871172 17.78C0.309837 18.4057 -0.000431002 19.2168 4.49369e-07 20.0574C-2.53028e-05 20.5528 0.107694 21.0423 0.315689 21.4919C0.523684 21.9416 0.82698 22.3406 1.20455 22.6613L6.11002 26.8464L3.78295 29.274C3.14147 29.9435 2.82209 30.8115 2.82209 31.6698C2.82089 32.5829 3.18358 33.505 3.90195 34.1839L4.37402 34.6324C4.81884 35.0544 5.35336 35.3228 5.9127 35.4659C5.63216 35.982 5.47881 36.5478 5.48002 37.1147C5.47881 38.0285 5.8415 38.9499 6.55856 39.6295L6.55736 39.6289L7.03084 40.0794C7.70481 40.7182 8.5785 41.0364 9.43928 41.0359C9.90672 41.0358 10.3695 40.9425 10.8005 40.7616C10.9533 41.3814 11.2688 41.9706 11.7651 42.4414L12.2386 42.892C12.9126 43.5308 13.7849 43.849 14.6471 43.8484C15.321 43.8491 15.9981 43.6505 16.5809 43.2649C16.7514 43.8134 17.0436 44.3333 17.4883 44.7558L17.9618 45.2063C18.6343 45.8452 19.508 46.1634 20.369 46.1628C21.2859 46.1635 22.2119 45.8033 22.8958 45.0893L24.9525 42.9416L27.7467 45.5277C28.4155 46.1481 29.274 46.4567 30.1214 46.4549C31.0524 46.4568 31.9916 46.0839 32.677 45.3502L33.123 44.8723C33.508 44.4588 33.7594 43.9693 33.9052 43.4584L34.9875 44.4574C35.6576 45.0753 36.5148 45.3826 37.3611 45.382C38.2933 45.3826 39.2351 45.0097 39.9211 44.2754L40.3646 43.7981C40.8768 43.2509 41.1651 42.5731 41.2542 41.8809C41.5399 41.9541 41.8294 42.0037 42.1214 42.0037C43.0536 42.0037 43.9928 41.6314 44.6795 40.8978L45.1243 40.4205C45.7228 39.7792 46.0552 38.9344 46.054 38.0571C46.054 37.7956 46.0165 37.5354 45.9585 37.2783C46.7317 37.1758 47.4813 36.8309 48.0514 36.2188L48.4974 35.7409C49.1191 35.0746 49.4271 34.2201 49.4271 33.3769C49.4283 32.4492 49.0543 31.513 48.3161 30.831L47.4819 30.0604L55.011 21.7359C55.687 20.9864 55.9988 20.0218 56 19.0717ZM6.78278 33.6946C6.38389 33.6934 5.99375 33.5508 5.68892 33.2619L5.21609 32.8134C4.88895 32.5041 4.72741 32.0925 4.72609 31.6699C4.72741 31.2735 4.86927 30.8865 5.16141 30.5817L9.92753 25.6081C10.238 25.2841 10.6524 25.1219 11.0774 25.1214C11.4751 25.122 11.8639 25.2652 12.1713 25.5547L12.6421 26.0039C12.6421 26.0039 13.1296 26.7248 13.1308 27.148C13.1298 27.4673 13.0315 27.7788 12.8489 28.0408C12.8331 28.0567 7.70481 33.4013 7.70481 33.4013C7.43497 33.5916 7.11298 33.694 6.78278 33.6946ZM10.5893 38.6555C10.2794 38.9782 9.86574 39.1397 9.4407 39.1411C9.04181 39.1404 8.65288 38.9972 8.34684 38.7084L7.87336 38.2584L7.87216 38.2577C7.54764 37.9497 7.38467 37.5369 7.38467 37.1142C7.38467 36.7179 7.52784 36.3309 7.81856 36.0261C7.81856 36.0261 14.1717 29.4127 14.2252 29.3489C14.52 29.064 14.9141 28.9049 15.3241 28.9054C15.723 28.9061 16.1119 29.0486 16.418 29.3381L16.8914 29.7886C17.2172 30.0966 17.3789 30.509 17.3801 30.9321C17.3788 31.3285 17.2357 31.716 16.9448 32.0209L10.5893 38.6555ZM15.7963 41.4674C15.4871 41.7908 15.0735 41.9525 14.6484 41.9537C14.2495 41.9531 13.8605 41.8099 13.5545 41.5204L13.0797 41.0704C12.754 40.7618 12.591 40.3495 12.591 39.9269C12.591 39.5732 12.7113 39.2301 12.9416 38.9444L17.366 34.3265C17.6645 34.0573 18.0386 33.9154 18.4262 33.9154C18.8251 33.9161 19.214 34.0586 19.52 34.3481L19.9948 34.7986C20.3194 35.1066 20.4823 35.519 20.4835 35.9415C20.4822 36.3386 20.3378 36.7262 20.0482 37.0302L15.7963 41.4674ZM24.203 40.98L21.5183 43.7819C21.209 44.1051 20.7948 44.2669 20.3698 44.2681C19.9709 44.2675 19.582 44.1243 19.2759 43.8348L18.8024 43.3848C18.4779 43.0768 18.315 42.6639 18.3138 42.2413C18.315 41.8441 18.4581 41.4566 18.7491 41.1531L21.4326 38.3513C21.7431 38.0281 22.1574 37.8657 22.5824 37.8651C22.9801 37.8657 23.3703 38.0083 23.6763 38.2984L24.1511 38.7484C24.4756 39.0564 24.6373 39.4687 24.6386 39.8913C24.637 40.2883 24.4939 40.6758 24.203 40.98ZM47.526 33.3794C47.5254 33.7686 47.386 34.1497 47.1034 34.4526L46.6586 34.9299C46.3481 35.2621 45.9268 35.4301 45.4954 35.4307C45.1041 35.4301 44.7209 35.2926 44.4169 35.0115L36.9208 28.0792L35.6246 29.4671L43.6482 36.9001C43.9823 37.2094 44.1502 37.6294 44.1527 38.0582C44.1502 38.4489 44.0121 38.8294 43.7302 39.1324L43.2867 39.6097C42.9762 39.9419 42.5549 40.1092 42.1235 40.1106C41.7321 40.1094 41.3478 39.9712 41.0461 39.6919L33.5482 32.7597L32.2533 34.1475L38.9074 40.301C39.0612 40.4475 39.1835 40.6239 39.2669 40.8193C39.3503 41.0146 39.393 41.225 39.3924 41.4374C39.3924 41.8269 39.2543 42.2079 38.9724 42.5102L38.5276 42.9876C38.2183 43.3197 37.7957 43.4877 37.3632 43.4889C36.9705 43.4877 36.5875 43.3496 36.2846 43.0702L29.6438 36.9391H29.6426L29.6414 36.9379L28.349 38.3283L28.3503 38.3295L28.3752 38.353L31.7012 41.4227C31.9959 41.7256 32.1486 42.1138 32.1498 42.5153C32.1486 42.9028 32.0117 43.282 31.7298 43.5844L31.285 44.0623C30.9745 44.3944 30.5545 44.5611 30.1243 44.5624C29.7329 44.5612 29.3498 44.4238 29.0469 44.1432L26.151 41.4617C26.403 40.9673 26.5437 40.4308 26.5437 39.8925C26.5444 39.4221 26.4491 38.9565 26.2636 38.5242C26.0782 38.0919 25.8065 37.702 25.4651 37.3784L24.9903 36.9279C24.3178 36.2895 23.4453 35.9708 22.5844 35.972C22.5176 35.972 22.4502 35.9873 22.3847 35.9912C22.3847 35.9753 22.3884 35.9587 22.3884 35.9428C22.3896 35.0296 21.3099 33.4274 21.3099 33.4274L20.8364 32.9782C20.3495 32.5168 19.7396 32.2061 19.0801 32.0835C19.2118 31.7107 19.2863 31.3225 19.2863 30.9337C19.2863 30.0205 18.9248 29.099 18.2078 28.4196L17.7343 27.9691C17.0603 27.3302 16.188 27.0114 15.327 27.012C15.2265 27.012 15.1273 27.0324 15.0274 27.0413C15 26.1645 14.6468 25.2883 13.9596 24.6354V24.6348L13.4875 24.1862C12.8135 23.5467 11.9412 23.2279 11.0802 23.2285C10.1619 23.2279 9.23738 23.588 8.55345 24.302L7.42842 25.4761L2.44464 21.2253C2.08644 20.9186 1.90761 20.4948 1.9063 20.0596C1.9075 19.6949 2.03164 19.3379 2.29633 19.0415L7.55497 13.1522C7.76366 12.9181 8.07231 12.7062 8.4338 12.5591C8.79528 12.4121 9.20566 12.3314 9.58934 12.3319C9.92349 12.3319 10.2371 12.3924 10.4879 12.5006L13.3749 13.7325C14.1888 14.0755 15.1337 14.2161 16.0833 14.2192C17.034 14.216 17.9776 14.0754 18.7916 13.7325L21.6774 12.5011C22.1222 12.3071 22.7934 12.1868 23.4609 12.1893C24.1991 12.1848 24.9385 12.3376 25.3673 12.5565C25.6397 12.692 25.898 12.8206 26.1379 12.9408L23.1948 15.0097C22.2492 15.6747 21.7395 16.7322 21.7408 17.7994C21.7396 18.5057 21.9635 19.2247 22.4191 19.8349L22.4179 19.8336L22.8067 20.356C23.5448 21.3373 24.6959 21.8419 25.8464 21.8444C26.4961 21.8444 27.1579 21.6802 27.7478 21.3264L29.5078 20.2694C29.8668 20.0499 30.4089 19.9112 30.9694 19.9137C31.6281 19.9099 32.2918 20.1047 32.6908 20.3979L37.56 23.8888C38.6437 24.6652 40.4088 26.1052 41.387 27.0114L47.0229 32.2223C47.3566 32.5317 47.5246 32.9499 47.526 33.3794ZM53.5979 20.4691L46.0897 28.7713L42.6809 25.6202C41.6131 24.6345 39.8524 23.1971 38.6714 22.3488L33.8034 18.8579C32.9781 18.2732 31.9676 18.0204 30.9685 18.0167C30.1184 18.0192 29.2619 18.2045 28.5225 18.6447L26.7637 19.7017C26.4939 19.8639 26.1758 19.9467 25.8454 19.9474C25.2548 19.9494 24.6637 19.6737 24.3342 19.2251L23.9467 18.7034L23.9454 18.702C23.7392 18.424 23.6432 18.1122 23.6417 17.7965C23.6442 17.3192 23.8644 16.856 24.2909 16.555L29.4948 12.8986C29.9448 12.5729 30.7453 12.3444 31.5057 12.3501C32.0339 12.3476 32.5384 12.4538 32.8839 12.6244L37.1206 14.6766C37.8429 15.0234 38.658 15.1653 39.4781 15.1673C40.5319 15.1621 41.5971 14.9331 42.4747 14.3941L46.8024 11.7018C47.0786 11.5294 47.4101 11.4403 47.7557 11.4403C48.3399 11.4391 48.9253 11.7038 49.2568 12.1358L53.6939 17.8133C53.9498 18.1384 54.098 18.5972 54.098 19.0726C54.0987 19.6043 53.9109 20.1274 53.5979 20.4691Z" fill="#ADC0D2"/>
</g>
<defs>
<clipPath id="clip0_115_135">
<rect width="56" height="56" fill="white"/>
</clipPath>
</defs>
</svg>
