<svg width="206" height="75" viewBox="0 0 206 75" fill="none" xmlns="http://www.w3.org/2000/svg">
<g clip-path="url(#clip0_16853_513)">
<path d="M179.185 7.02949H173.913V12.0462H179.185V7.02949Z" fill="#CC2229"/>
<path d="M6.14792 36.8255H0.79248V6.56314H6.14792V36.8255ZM29.1454 36.8255H23.785C23.5298 36.3739 23.3334 35.4805 23.1911 34.1453C21.7184 36.2708 19.3672 37.3311 16.1372 37.3311C13.727 37.3311 11.8077 36.7519 10.3792 35.5885C8.9459 34.4251 8.23413 32.8102 8.23413 30.7436C8.23413 26.7479 11.0419 24.4653 16.6526 23.9008L19.966 23.6014C21.0705 23.459 21.8657 23.1989 22.3468 22.816C22.8278 22.4331 23.0683 21.8588 23.0683 21.093C23.0683 20.1554 22.764 19.4731 22.1553 19.0313C21.5466 18.5945 20.5158 18.3736 19.0726 18.3736C17.5117 18.3736 16.3925 18.6386 15.715 19.159C15.0376 19.6842 14.64 20.5825 14.5271 21.8588H9.25024C9.5644 16.8715 12.8483 14.3779 19.1119 14.3779C25.2036 14.3779 28.252 16.5721 28.252 20.9654V32.6531C28.252 34.5871 28.5465 35.9763 29.1454 36.8255ZM17.4086 33.5121C19.0824 33.5121 20.4422 33.0507 21.4926 32.1328C22.5382 31.2148 23.0634 29.8895 23.0634 28.1567V26.1588C22.5529 26.6104 21.7184 26.9099 20.5551 27.0522L17.6638 27.3909C16.2501 27.5627 15.234 27.8965 14.6253 28.3874C14.0166 28.8832 13.7123 29.5999 13.7123 30.5325C13.7123 31.4701 14.0314 32.1966 14.6695 32.7218C15.3076 33.252 16.2206 33.5121 17.4086 33.5121ZM56.3005 14.3828C58.7058 14.3828 60.5858 15.0896 61.9357 16.5082C63.2807 17.9269 63.9532 19.8658 63.9532 22.33V36.8255H58.5978V23.1792C58.5978 20.4009 57.3363 19.0117 54.8132 19.0117C53.4534 19.0117 52.3539 19.5026 51.5194 20.4794C50.6849 21.4563 50.2677 22.8798 50.2677 24.75V36.8206H44.9515V23.1743C44.9515 20.396 43.6752 19.0068 41.1276 19.0068C39.7924 19.0068 38.7125 19.4977 37.8731 20.4745C37.0337 21.4513 36.6214 22.8749 36.6214 24.7451V36.8157H31.2659V14.8933H36.4545V18.0398C37.9566 15.605 40.0379 14.3828 42.7033 14.3828C46.0462 14.3828 48.314 15.7425 49.5019 18.4619C51.1463 15.7425 53.4142 14.3828 56.3005 14.3828ZM79.3814 14.3828C82.3856 14.3828 84.781 15.4185 86.5678 17.4851C88.3251 19.5811 89.2038 22.3742 89.2038 25.8594C89.2038 29.3151 88.3251 32.0935 86.5678 34.1895C84.781 36.2856 82.3856 37.336 79.3814 37.336C76.4067 37.336 74.1389 36.2168 72.5828 33.9784V45.1556H67.2274V14.8933H72.3717V18.0398C73.9573 15.6001 76.2938 14.3828 79.3814 14.3828ZM73.9818 31.0872C74.9439 32.3046 76.3184 32.9132 78.1051 32.9132C79.8625 32.9132 81.2516 32.2751 82.2677 30.9988C83.2593 29.752 83.7551 27.98 83.7551 25.6876C83.7551 23.4492 83.2642 21.741 82.2874 20.5678C81.3105 19.3946 79.9116 18.8055 78.1002 18.8055C76.3134 18.8055 74.9243 19.4142 73.9327 20.6316C72.9411 21.849 72.4454 23.5916 72.4454 25.8594C72.4552 28.1567 72.9657 29.8993 73.9818 31.0872ZM110.964 36.8255H105.609C105.354 36.3739 105.152 35.4805 105.015 34.1453C103.542 36.2708 101.191 37.3311 97.961 37.3311C95.5508 37.3311 93.6315 36.7519 92.203 35.5885C90.7697 34.4251 90.0579 32.8102 90.0579 30.7436C90.0579 26.7479 92.8608 24.4653 98.4715 23.9008L101.785 23.6014C102.889 23.459 103.685 23.1989 104.166 22.816C104.647 22.4331 104.887 21.8588 104.887 21.093C104.887 20.1554 104.583 19.4731 103.974 19.0313C103.366 18.5945 102.335 18.3736 100.892 18.3736C99.3305 18.3736 98.2113 18.6386 97.5339 19.159C96.8516 19.6842 96.454 20.5825 96.3411 21.8588H91.0691C91.3784 16.8715 94.6672 14.3779 100.931 14.3779C107.023 14.3779 110.071 16.5721 110.071 20.9654V32.6531C110.071 34.5871 110.37 35.9763 110.964 36.8255ZM99.2323 33.5121C100.901 33.5121 102.261 33.0507 103.312 32.1328C104.357 31.2148 104.882 29.8895 104.882 28.1567V26.1588C104.372 26.6104 103.537 26.9099 102.374 27.0522L99.4827 27.3909C98.0641 27.5627 97.0529 27.8965 96.4442 28.3874C95.8355 28.8832 95.5312 29.5999 95.5312 30.5325C95.5312 31.4701 95.8502 32.1966 96.4884 32.7218C97.1265 33.252 98.0444 33.5121 99.2323 33.5121ZM128.518 17.7403V6.56314H133.873V36.8255H128.69V33.7625C127.075 36.1432 124.763 37.3311 121.759 37.3311C118.725 37.3311 116.329 36.2806 114.572 34.1846C112.79 32.0886 111.892 29.3102 111.892 25.8545C111.892 22.3398 112.785 19.5468 114.572 17.4802C116.3 15.4136 118.696 14.3779 121.759 14.3779C124.704 14.3828 126.957 15.502 128.518 17.7403ZM117.38 26.0312C117.38 28.299 117.876 30.0122 118.867 31.1756C119.859 32.3389 121.233 32.9182 122.991 32.9182C124.748 32.9182 126.137 32.3095 127.153 31.0921C128.145 29.8747 128.641 28.1321 128.641 25.8643C128.641 23.5965 128.145 21.8539 127.153 20.6365C126.162 19.4191 124.773 18.8104 122.991 18.8104C121.263 18.8104 119.893 19.4486 118.887 20.7249C117.886 21.9913 117.38 23.7634 117.38 26.0312ZM156.866 36.8255H151.51C151.255 36.3739 151.059 35.4805 150.916 34.1453C149.444 36.2708 147.093 37.3311 143.863 37.3311C141.452 37.3311 139.533 36.7519 138.105 35.5885C136.671 34.4251 135.96 32.8102 135.96 30.7436C135.96 26.7479 138.762 24.4653 144.373 23.9008L147.687 23.6014C148.791 23.459 149.586 23.1989 150.067 22.816C150.548 22.4331 150.789 21.8588 150.789 21.093C150.789 20.1554 150.484 19.4731 149.876 19.0313C149.267 18.5945 148.236 18.3736 146.793 18.3736C145.232 18.3736 144.113 18.6386 143.436 19.159C142.758 19.6842 142.361 20.5825 142.248 21.8588H136.976C137.29 16.8715 140.574 14.3779 146.837 14.3779C152.929 14.3779 155.977 16.5721 155.977 20.9654V32.6531C155.977 34.5871 156.272 35.9763 156.866 36.8255ZM145.139 33.5121C146.808 33.5121 148.168 33.0507 149.218 32.1328C150.264 31.2148 150.789 29.8895 150.789 28.1567V26.1588C150.278 26.6104 149.444 26.9099 148.28 27.0522L145.389 27.3909C143.971 27.5627 142.959 27.8965 142.351 28.3874C141.742 28.8832 141.438 29.5999 141.438 30.5325C141.438 31.4701 141.757 32.1966 142.395 32.7218C143.033 33.252 143.946 33.5121 145.139 33.5121ZM170.728 14.5546C171.209 14.5546 171.646 14.584 172.044 14.638V19.5713H170.684C168.647 19.5713 167.076 20.0867 165.986 21.1225C164.897 22.1582 164.352 23.6799 164.352 25.6925V36.8304H158.996V14.8933H164.18V18.8055C165.397 15.9683 167.582 14.5546 170.728 14.5546ZM179.225 36.8255H173.87V14.8933H179.225V36.8255ZM200.775 34.1895C198.733 36.2856 196.043 37.336 192.7 37.336C189.357 37.336 186.662 36.2856 184.625 34.1895C182.553 32.1229 181.522 29.3446 181.522 25.8594C181.522 22.3742 182.558 19.5958 184.625 17.5293C186.662 15.4332 189.357 14.3828 192.7 14.3828C196.043 14.3828 198.733 15.4185 200.775 17.4851C202.812 19.5517 203.833 22.3447 203.833 25.8594C203.838 29.3151 202.817 32.0935 200.775 34.1895ZM188.513 31.0872C189.519 32.3046 190.913 32.9132 192.7 32.9132C194.482 32.9132 195.881 32.2947 196.887 31.0627C197.893 29.8306 198.394 28.0929 198.394 25.8545C198.394 23.6161 197.888 21.8784 196.887 20.6463C195.881 19.4142 194.486 18.7957 192.7 18.7957C190.913 18.7957 189.519 19.4044 188.513 20.6218C187.506 21.8391 187.006 23.5817 187.006 25.8496C187.006 28.1174 187.506 29.8698 188.513 31.0872Z" fill="#CC2229"/>
<path d="M81.0069 40.1094H75.7349V45.1262H81.0069V40.1094Z" fill="#CC2229"/>
<path d="M162.913 40.1094H157.641V45.1262H162.913V40.1094Z" fill="white"/>
<path d="M81.0493 69.9055H75.6938V47.9733H81.0493V69.9055ZM96.3498 47.4628C98.7306 47.4628 100.606 48.15 101.98 49.5244C103.355 50.8989 104.042 52.8477 104.042 55.3708V69.9055H98.6864V56.2592C98.6864 53.4809 97.3119 52.0917 94.563 52.0917C93.2033 52.0917 92.0498 52.5826 91.0975 53.5594C90.1501 54.5363 89.6739 55.8911 89.6739 57.619V69.9006H84.3185V47.9733H89.507V51.1198C91.1809 48.685 93.4586 47.4628 96.3498 47.4628ZM117.988 47.9733V52.0524H113.653V63.912C113.653 64.6188 113.845 65.1146 114.227 65.3993C114.61 65.684 115.253 65.8264 116.161 65.8264H117.988V69.9055C116.824 70.0184 115.892 70.0773 115.185 70.0773C112.804 70.0773 111.066 69.6306 109.976 68.7373C108.887 67.8439 108.337 66.4203 108.337 64.4666V52.0574H104.935V47.9782H108.337V41.5968H113.648V47.9733H117.988ZM140.342 59.3223V60.5986H123.937C124.133 62.4688 124.722 63.8776 125.699 64.8299C126.676 65.7822 127.987 66.2534 129.631 66.2534C132.071 66.2534 133.74 65.203 134.648 63.1069H139.792C139.223 65.3453 138.035 67.1223 136.224 68.4427C134.407 69.7583 132.198 70.4209 129.592 70.4209C126.332 70.4209 123.696 69.3705 121.689 67.2744C119.676 65.1784 118.67 62.4001 118.67 58.9443C118.67 55.4886 119.661 52.7102 121.645 50.6142C123.657 48.5182 126.278 47.4677 129.508 47.4677C132.822 47.4677 135.458 48.5574 137.411 50.7418C139.365 52.9213 140.342 55.7831 140.342 59.3223ZM129.464 51.6303C126.318 51.6303 124.492 53.3729 123.981 56.8581H134.991C134.766 55.2431 134.172 53.9669 133.21 53.0342C132.238 52.0966 130.991 51.6303 129.464 51.6303ZM154.455 47.6346C154.936 47.6346 155.377 47.664 155.77 47.718V52.6513H154.41C152.373 52.6513 150.802 53.1667 149.713 54.2025C148.623 55.2382 148.078 56.7599 148.078 58.7725V69.9104H142.723V47.9733H147.906V51.8855C149.129 49.0532 151.308 47.6346 154.455 47.6346ZM162.957 69.9055H157.601V47.9733H162.957V69.9055ZM184.506 67.2695C182.464 69.3656 179.774 70.416 176.431 70.416C173.083 70.416 170.393 69.3656 168.356 67.2695C166.285 65.203 165.254 62.4246 165.254 58.9394C165.254 55.4542 166.29 52.6759 168.356 50.6093C170.393 48.5132 173.088 47.4628 176.431 47.4628C179.774 47.4628 182.464 48.4985 184.506 50.5651C186.543 52.6317 187.564 55.4247 187.564 58.9394C187.564 62.4001 186.548 65.1735 184.506 67.2695ZM172.244 64.1672C173.25 65.3846 174.644 65.9933 176.431 65.9933C178.213 65.9933 179.612 65.3748 180.618 64.1427C181.624 62.9106 182.125 61.1729 182.125 58.9345C182.125 56.6961 181.62 54.9584 180.618 53.7263C179.612 52.4942 178.218 51.8757 176.431 51.8757C174.644 51.8757 173.25 52.4844 172.244 53.7018C171.238 54.9191 170.732 56.6618 170.732 58.9296C170.732 61.1974 171.238 62.9498 172.244 64.1672ZM201.593 47.6346C202.074 47.6346 202.511 47.664 202.909 47.718V52.6513H201.549C199.512 52.6513 197.941 53.1667 196.851 54.2025C195.762 55.2382 195.217 56.7599 195.217 58.7725V69.9104H189.861V47.9733H195.045V51.8855C196.262 49.0532 198.447 47.6346 201.593 47.6346Z" fill="white"/>
</g>
<defs>
<clipPath id="clip0_16853_513">
<rect width="203.045" height="63.8529" fill="white" transform="translate(0.791504 6.56316)"/>
</clipPath>
</defs>
</svg>
