<svg width="900" height="796" viewBox="0 0 900 796" fill="none" xmlns="http://www.w3.org/2000/svg">
<g clip-path="url(#clip0_121_134)">
<g clip-path="url(#clip1_121_134)">
<path d="M476.62 517.254L367.913 451.097" stroke="#FDC300" stroke-width="2" stroke-dasharray="5 5"/>
<path d="M703.506 111.243L717.094 97.8076" stroke="#FDC300" stroke-width="2" stroke-dasharray="5 5"/>
<path d="M340.788 408.904L656.376 96.8459" stroke="#FDC300" stroke-width="2" stroke-dasharray="5 5"/>
<path d="M778.078 219.169L849.251 103.5L851.938 106.217L884.504 86.8991" stroke="#FDC300" stroke-width="2" stroke-dasharray="5 5"/>
<path d="M885.546 74.498L879.114 69.0377" stroke="#FDC300" stroke-width="2" stroke-dasharray="5 5"/>
<path d="M770.006 203.111L842.987 84.5007" stroke="#FDC300" stroke-width="2" stroke-dasharray="5 5"/>
<path d="M770.006 203.111L778.074 219.169" stroke="#FDC300" stroke-width="2" stroke-dasharray="5 5"/>
<path d="M656.378 96.8443L703.507 111.243" stroke="#FDC300" stroke-width="2" stroke-dasharray="5 5"/>
<path d="M340.788 408.904C342.875 426.396 352.865 441.938 367.913 451.1" stroke="#FDC300" stroke-width="2" stroke-dasharray="5 5"/>
<path d="M800.742 0.427408L842.989 84.5032" stroke="#FDC300" stroke-width="2" stroke-dasharray="5 5"/>
<path d="M292.689 693.238L233.597 593.633L258.417 569.091" stroke="#FDC300" stroke-width="2" stroke-dasharray="5 5"/>
<path d="M283.69 708.027L292.689 693.238" stroke="#FDC300" stroke-width="2" stroke-dasharray="5 5"/>
<path d="M461.73 526.088L362.796 465.88" stroke="#FDC300" stroke-width="2" stroke-dasharray="5 5"/>
<path d="M461.729 526.088L476.618 517.256" stroke="#FDC300" stroke-width="2" stroke-dasharray="5 5"/>
<path d="M884.502 86.897C886.627 85.6367 888.01 83.4283 888.218 80.9654C888.424 78.5044 887.431 76.0957 885.548 74.496" stroke="#FDC300" stroke-width="2" stroke-dasharray="5 5"/>
<path d="M724.655 96.0686L725.5 49.4206" stroke="#FDC300" stroke-width="2" stroke-dasharray="5 5"/>
<path d="M707.63 46.165L739.673 14.4803" stroke="#FDC300" stroke-width="2" stroke-dasharray="5 5"/>
<path d="M707.63 46.165L725.5 49.4206" stroke="#FDC300" stroke-width="2" stroke-dasharray="5 5"/>
<path d="M879.614 59.9197C878.127 60.9241 877.198 62.5628 877.099 64.3538C877.003 66.1468 877.746 67.8796 879.114 69.0378" stroke="#FDC300" stroke-width="2" stroke-dasharray="5 5"/>
<path d="M879.614 59.9196L904.926 42.8143" stroke="#FDC300" stroke-width="2" stroke-dasharray="5 5"/>
<path d="M351.318 590.359L258.417 569.091" stroke="#FDC300" stroke-width="2" stroke-dasharray="5 5"/>
<path d="M283.69 708.027L212.348 587.77" stroke="#FDC300" stroke-width="2" stroke-dasharray="5 5"/>
<path d="M-153.089 956.34C-152.893 951.507 -150.874 946.929 -147.433 943.527L212.348 587.77" stroke="#FDC300" stroke-width="2" stroke-dasharray="5 5"/>
<path d="M358.154 583.361C358.644 585.297 358.094 587.347 356.698 588.775C355.301 590.206 353.266 590.803 351.318 590.359" stroke="#FDC300" stroke-width="2" stroke-dasharray="5 5"/>
<path d="M358.154 583.361L335.262 493.106" stroke="#FDC300" stroke-width="2" stroke-dasharray="5 5"/>
<path d="M362.794 465.877L335.258 493.106" stroke="#FDC300" stroke-width="2" stroke-dasharray="5 5"/>
<path d="M565.207 797.768C557.726 771.771 537.592 751.41 511.681 743.637" stroke="#FDC300" stroke-width="2" stroke-dasharray="5 5"/>
<path d="M470.369 703.875C474.876 721.971 488.402 736.397 506.168 742.067" stroke="#FDC300" stroke-width="2" stroke-dasharray="5 5"/>
<path d="M717.094 97.8071L724.657 96.0663" stroke="#FDC300" stroke-width="2" stroke-dasharray="5 5"/>
<path d="M897.832 972.25L1213.42 660.192" stroke="#FDC300" stroke-width="2" stroke-dasharray="5 5"/>
<path d="M739.673 14.4801L800.743 0.426867" stroke="#FDC300" stroke-width="2" stroke-dasharray="5 5"/>
<path d="M457.318 690.676L449.641 682.912" stroke="#FDC300" stroke-width="2" stroke-dasharray="5 5"/>
<path d="M441.963 675.147L434.286 667.383" stroke="#FDC300" stroke-width="2" stroke-dasharray="5 5"/>
<path d="M426.608 659.619L418.931 651.855" stroke="#FDC300" stroke-width="2" stroke-dasharray="5 5"/>
<path d="M356.626 588.845L405.878 638.654" stroke="#FDC300" stroke-width="2" stroke-dasharray="5 5"/>
<path d="M481.995 522.688L553.875 595.382" stroke="#FDC300" stroke-width="2" stroke-dasharray="5 5"/>
<path d="M550.624 444.074L482.053 511.878" stroke="#FDC300" stroke-width="2" stroke-dasharray="5 5"/>
<path d="M360.944 786.155L289.063 713.461" stroke="#FDC300" stroke-width="2" stroke-dasharray="5 5"/>
<path d="M766.398 195.931L720.702 104.988" stroke="#FDC300" stroke-width="2" stroke-dasharray="5 5"/>
<path d="M454.954 530.104L364.089 584.008" stroke="#FDC300" stroke-width="2" stroke-dasharray="5 5"/>
<path d="M296.784 686.506L351.706 596.253" stroke="#FDC300" stroke-width="2" stroke-dasharray="5 5"/>
<path d="M772.641 224.544L704.07 292.348" stroke="#FDC300" stroke-width="2" stroke-dasharray="5 5"/>
<path d="M636.505 678.948L708.386 751.642" stroke="#FDC300" stroke-width="2" stroke-dasharray="5 5"/>
<path d="M559.25 600.817L631.13 673.511" stroke="#FDC300" stroke-width="2" stroke-dasharray="5 5"/>
<path d="M438.199 864.283L366.318 791.589" stroke="#FDC300" stroke-width="2" stroke-dasharray="5 5"/>
<path d="M204.887 785.948L278.256 713.4" stroke="#FDC300" stroke-width="2" stroke-dasharray="5 5"/>
<path d="M126.084 863.869L199.453 791.321" stroke="#FDC300" stroke-width="2" stroke-dasharray="5 5"/>
<path d="M624.631 370.899L556.06 438.703" stroke="#FDC300" stroke-width="2" stroke-dasharray="5 5"/>
<path d="M698.636 297.722L630.065 365.526" stroke="#FDC300" stroke-width="2" stroke-dasharray="5 5"/>
<path d="M860.706 302.732L932.587 375.426" stroke="#FDC300" stroke-width="2" stroke-dasharray="5 5"/>
<path d="M783.451 224.603L855.332 297.297" stroke="#FDC300" stroke-width="2" stroke-dasharray="5 5"/>
<path d="M785.641 829.77L713.76 757.076" stroke="#FDC300" stroke-width="2" stroke-dasharray="5 5"/>
<path d="M865.022 762.029L796.451 829.833" stroke="#FDC300" stroke-width="2" stroke-dasharray="5 5"/>
<path d="M939.028 688.852L870.457 756.656" stroke="#FDC300" stroke-width="2" stroke-dasharray="5 5"/>
</g>
</g>
<defs>
<clipPath id="clip0_121_134">
<rect width="900" height="796" fill="white"/>
</clipPath>
<clipPath id="clip1_121_134">
<rect width="1501.73" height="792.248" fill="white" transform="translate(-250.764 993.838) rotate(-44.6777)"/>
</clipPath>
</defs>
</svg>
