<svg width="159" height="169" viewBox="0 0 159 169" fill="none" xmlns="http://www.w3.org/2000/svg">
<g clip-path="url(#clip0_121_297)">
<path d="M158.691 0H0V169H158.691V0Z" fill="#64BFB2"/>
<path d="M61.712 113.939H37V89.2279L61.712 113.939Z" fill="white"/>
<path d="M63.6041 112.175L38.8921 87.4629H63.6041" fill="white"/>
<path d="M68.2549 113.939H92.9669V89.2279L68.2549 113.939Z" fill="white"/>
<path d="M41.4248 116.681L58.8988 134.156L76.3728 116.681H41.4248Z" fill="white"/>
<path d="M82.9932 116.681L100.467 134.156L117.941 116.681H82.9932Z" fill="white"/>
<path d="M62.2412 134.713L79.7152 117.239L97.1892 134.713H62.2412Z" fill="white"/>
<path d="M41.4248 84.7209L58.8988 67.2469L76.3728 84.7209H41.4248Z" fill="white"/>
<path d="M82.9932 84.7209L100.467 67.2469L117.941 84.7209H82.9932Z" fill="white"/>
<path d="M62.1919 66.6938L79.6659 84.1678L97.1399 66.6938H62.1919Z" fill="white"/>
<path d="M66.2729 112.175L90.9849 87.4629H66.2729" fill="white"/>
<path d="M97.6021 113.939H122.314V89.2279L97.6021 113.939Z" fill="white"/>
<path d="M95.6201 112.175L120.332 87.4629H95.6201" fill="white"/>
<path d="M79.8951 62.0609L67.5391 49.7049H79.8951" fill="white"/>
<path d="M65.6479 34.9999L78.0039 47.3559H65.6479" fill="white"/>
<path d="M112.823 49.7049L100.467 62.0609V49.7049" fill="white"/>
<path d="M85.7622 63.9519L98.1182 51.5959V63.9519" fill="white"/>
</g>
<defs>
<clipPath id="clip0_121_297">
<rect width="159" height="169" fill="white"/>
</clipPath>
</defs>
</svg>
