<svg width="159" height="180" viewBox="0 0 159 180" fill="none" xmlns="http://www.w3.org/2000/svg">
<g clip-path="url(#clip0_121_334)">
<path d="M158.691 -0.000244141H0V179.978H158.691V-0.000244141Z" fill="#FCC002"/>
<g clip-path="url(#clip1_121_334)">
<path d="M102.004 85.016L114.521 97.454H102.004" fill="white"/>
<path d="M116.436 95.678L103.919 83.24H116.436" fill="white"/>
<path d="M102.004 118.007L114.521 130.445H102.004" fill="white"/>
<path d="M116.436 128.669L103.919 116.231H116.436" fill="white"/>
<path d="M102.004 112.088L114.521 99.65H102.004" fill="white"/>
<path d="M116.436 101.427L103.919 113.865H116.436" fill="white"/>
<path d="M102.004 79.037L114.521 66.599H102.004" fill="white"/>
<path d="M116.436 68.376L103.919 80.814H116.436" fill="white"/>
<path d="M116.436 62.438L103.919 50H116.436" fill="white"/>
<path d="M102.004 51.777L114.521 64.215H102.004" fill="white"/>
<path d="M118.756 62.438L131.272 50H118.756" fill="white"/>
<path d="M99.7729 51.708L87.2559 64.146H99.7729" fill="white"/>
<path d="M56.9931 85.016L44.4761 97.454H56.9931" fill="white"/>
<path d="M42.561 95.678L55.077 83.24H42.561" fill="white"/>
<path d="M56.9931 118.007L44.4761 130.445H56.9931" fill="white"/>
<path d="M42.561 128.669L55.077 116.231H42.561" fill="white"/>
<path d="M56.9931 112.088L44.4761 99.65H56.9931" fill="white"/>
<path d="M40.516 51.708L28 64.146H40.516" fill="white"/>
<path d="M40.516 79.047L28 66.609H40.516" fill="white"/>
<path d="M42.561 101.427L55.077 113.865H42.561" fill="white"/>
<path d="M56.9931 79.037L44.4761 66.599H56.9931" fill="white"/>
<path d="M42.561 68.376L55.077 80.814H42.561" fill="white"/>
<path d="M59.061 79.04L71.578 66.603H59.061" fill="white"/>
<path d="M59.061 51.739L71.578 64.177H59.061" fill="white"/>
</g>
</g>
<defs>
<clipPath id="clip0_121_334">
<rect width="159" height="180" fill="white" transform="translate(0 -0.000244141)"/>
</clipPath>
<clipPath id="clip1_121_334">
<rect width="103.272" height="80.445" fill="white" transform="translate(28 50)"/>
</clipPath>
</defs>
</svg>
