<svg width="159" height="169" viewBox="0 0 159 169" fill="none" xmlns="http://www.w3.org/2000/svg">
<g clip-path="url(#clip0_121_391)">
<path d="M159 0.0810547H0V169.081H159V0.0810547Z" fill="#BFA3CA"/>
<g clip-path="url(#clip1_121_391)">
<path d="M158 6H-2V166H158V6Z" fill="#BFA3CB"/>
<path d="M106.48 56.7094H45.2212L75.8452 87.344" fill="white"/>
<path d="M68.752 142.459V146.757L71.984 143.525C71.6746 143.461 71.4933 143.408 71.472 143.408C70.544 143.152 69.6373 142.821 68.752 142.448V142.459Z" fill="white"/>
<path d="M80.1115 133.605C80.9009 133.52 81.6475 133.349 82.3729 133.147L82.3942 133.125H75.4502C76.8902 133.605 78.4369 133.776 80.1115 133.605Z" fill="white"/>
<path d="M73.0506 143.739L69.2959 147.493H82.9386V143.547C80.9972 143.941 79.1519 144.112 77.5412 144.112C75.9306 144.112 74.1172 143.931 73.0399 143.749L73.0506 143.739Z" fill="white"/>
<path d="M70.48 129.776L82.3946 117.861H68.752V127.621C69.232 128.411 69.8293 129.115 70.48 129.776Z" fill="white"/>
<path d="M73.5091 132.229H82.9384V118.587L71.1411 130.384C71.3651 130.576 71.5571 130.811 71.8024 130.992C72.3464 131.472 72.9224 131.877 73.5091 132.229Z" fill="white"/>
<path d="M68.752 116.24L82.3946 102.597H68.752V116.24Z" fill="white"/>
<path d="M82.9386 116.965V103.323L69.2959 116.965H82.9386Z" fill="white"/>
<path d="M68.752 100.976L82.3946 87.3333H68.752V100.976Z" fill="white"/>
<path d="M82.9386 88.0587L69.2959 101.701H82.9386V88.0587Z" fill="white"/>
<path d="M58.5649 147.493H67.8769V142.064C67.0129 141.659 66.1703 141.211 65.3596 140.709L58.5756 147.493H58.5649Z" fill="white"/>
<path d="M86.8955 142.416C85.8395 142.821 84.8048 143.12 83.7915 143.355V147.483H93.1035L87.6635 142.043C87.5782 142.085 87.5035 142.139 87.4182 142.171C87.2475 142.245 87.0768 142.331 86.9062 142.395L86.8955 142.416Z" fill="white"/>
<path d="M69.2957 132.229L70.5757 130.949C70.3517 130.747 70.1384 130.544 69.9251 130.331L68.7411 131.515V128.976C67.5037 127.301 66.6717 125.339 66.3517 123.216C66.3517 123.216 65.5091 117.787 67.8877 115.696V98.2026C66.0424 99.2053 64.6664 100.251 63.4291 101.36C61.9784 102.661 60.4424 104.123 59.0984 105.968C58.3731 106.949 57.8077 107.952 57.2957 108.891C56.3464 110.629 55.4931 113.019 55.1304 114.981C54.3091 119.397 54.4797 123.429 55.6317 126.96C56.1437 128.539 56.6451 129.765 57.2531 130.96C59.1944 134.768 62.2557 137.968 65.8824 140.187L67.8557 138.213V141.275C68.1437 141.413 68.4317 141.552 68.7304 141.669V133.147H73.5411C73.0611 132.891 72.5811 132.592 72.1331 132.251H69.2744L69.2957 132.229Z" fill="white"/>
<path d="M73.7013 143.088L82.9386 133.851V142.8C83.2159 142.736 83.5039 142.683 83.7813 142.619V138.181L87.1093 141.509C91.024 139.707 94.0533 137.157 96.368 133.723C98.608 130.405 99.5253 123.92 98.448 122.043C98.2453 121.68 98.0319 121.659 97.9039 121.659C95.6746 121.787 90.1813 129.488 89.9039 129.861C89.1359 130.949 85.6906 133.296 81.3813 134.139L72.6133 142.907C72.9119 142.96 73.2746 143.024 73.7013 143.088Z" fill="white"/>
<path d="M68.7519 141.648C69.7012 142.064 70.6719 142.427 71.6745 142.704C71.6852 142.704 72.0372 142.8 72.6132 142.907L81.3812 134.139C80.9865 134.213 80.5919 134.299 80.1865 134.341C77.7439 134.597 75.5359 134.181 73.5519 133.125H68.7412V141.648H68.7519Z" fill="white"/>
<path d="M73.7012 143.088C75.7385 143.387 79.1305 143.6 82.9385 142.8V133.851L73.7012 143.088Z" fill="white"/>
<path d="M69.936 130.32C69.5093 129.893 69.1146 129.445 68.752 128.965V131.504L69.936 130.32Z" fill="white"/>
<path d="M72.1546 132.229C71.8773 132.016 71.6 131.803 71.3333 131.568C71.0773 131.376 70.832 131.163 70.5866 130.949L69.3066 132.229H72.1653H72.1546Z" fill="white"/>
<path d="M65.9038 140.165C66.5438 140.56 67.2051 140.923 67.8771 141.253V138.192L65.9038 140.165Z" fill="white"/>
<path d="M83.7811 142.619C84.7091 142.384 85.6584 142.096 86.6078 141.723C86.7678 141.659 86.9278 141.584 87.0878 141.509L83.7598 138.181V142.619H83.7811Z" fill="white"/>
<path d="M77.7332 26.8747C65.9038 30.9067 62.7998 39.6107 67.6638 42.8533C77.9998 47.056 77.0398 39.5787 99.6638 41.7013C115.258 42.7147 140.794 76.688 83.7918 91.4507V106.096C159.952 101.701 148.026 5.99999 77.7332 26.8747Z" fill="white"/>
</g>
</g>
<defs>
<clipPath id="clip0_121_391">
<rect width="159" height="169" fill="white"/>
</clipPath>
<clipPath id="clip1_121_391">
<rect width="160" height="160" fill="white" transform="translate(-2 6)"/>
</clipPath>
</defs>
</svg>
