<svg width="159" height="170" viewBox="0 0 159 170" fill="none" xmlns="http://www.w3.org/2000/svg">
<g clip-path="url(#clip0_121_369)">
<path d="M158.691 0.768066H0V169.768H158.691V0.768066Z" fill="#8FD2EE"/>
<g clip-path="url(#clip1_121_369)">
<path d="M63.712 73.79H39V98.502L63.712 73.79Z" fill="white"/>
<path d="M64.6988 75.1031L39.9868 99.8151H64.6988" fill="white"/>
<path d="M63.712 101.743H39V126.455L63.712 101.743Z" fill="white"/>
<path d="M64.6988 103.057L39.9868 127.769H64.6988" fill="white"/>
<path d="M118.209 73.79H93.4971V98.502L118.209 73.79Z" fill="white"/>
<path d="M119.197 75.1031L94.4849 99.8151H119.197" fill="white"/>
<path d="M118.209 101.743H93.4971V126.455L118.209 101.743Z" fill="white"/>
<path d="M119.197 103.057L94.4849 127.769H119.197" fill="white"/>
<path d="M90.4 46.019H65.688V70.731L90.4 46.019Z" fill="white"/>
<path d="M91.3878 47.3321L66.6758 72.0441H91.3878" fill="white"/>
<path d="M63.712 47.3321L39 72.0441H63.712" fill="white"/>
<path d="M78.1182 31.7681L65.7622 44.1241H78.1182" fill="white"/>
<path d="M79.4629 31.7681L91.8189 44.1241H79.4629" fill="white"/>
<path d="M93.4971 47.3321L118.209 72.0441H93.4971" fill="white"/>
</g>
</g>
<defs>
<clipPath id="clip0_121_369">
<rect width="159" height="170" fill="white"/>
</clipPath>
<clipPath id="clip1_121_369">
<rect width="80.197" height="96.001" fill="white" transform="translate(39 31.7681)"/>
</clipPath>
</defs>
</svg>
