<?xml version="1.0" encoding="utf-8"?>
<!-- Generator: Adobe Illustrator 24.3.0, SVG Export Plug-In . SVG Version: 6.00 Build 0)  -->
<svg version="1.1" id="Layer_1" xmlns="http://www.w3.org/2000/svg" xmlns:xlink="http://www.w3.org/1999/xlink" x="0px" y="0px"
	 width="194.444px" height="201.012px" viewBox="0 0 194.444 201.012" enable-background="new 0 0 194.444 201.012"
	 xml:space="preserve">
<g>
	<g>
		<path fill="#020203" d="M100.518,17.778c0.024-0.511,0.047-1.002,0.068-1.474c0.022-0.472,0.046-0.996,0.073-1.571l0.134-2.89
			c0.027-0.584,0.052-1.118,0.074-1.601s0.045-0.979,0.068-1.49l0.54,1.138l-1.149-0.053c-0.511-0.024-0.963-0.045-1.357-0.063
			c-0.394-0.019-0.769-0.035-1.123-0.052l0.062-1.344l7.59,0.352l-0.062,1.344c-0.351-0.017-0.724-0.033-1.117-0.052
			s-0.849-0.039-1.363-0.063l-1.149-0.053l0.648-1.083c-0.023,0.511-0.047,1.008-0.068,1.49c-0.022,0.482-0.048,1.017-0.074,1.601
			l-0.134,2.89c-0.027,0.575-0.052,1.1-0.073,1.571c-0.021,0.472-0.045,0.963-0.068,1.474L100.518,17.778z"/>
		<path fill="#020203" d="M111.827,18.953c-0.439-0.076-0.847-0.146-1.221-0.211c-0.373-0.064-0.708-0.122-1.005-0.173
			c-0.297-0.052-0.548-0.095-0.753-0.13c0.087-0.504,0.17-0.988,0.251-1.454c0.08-0.466,0.169-0.982,0.267-1.55l0.531-3.081
			c0.099-0.572,0.189-1.098,0.271-1.576c0.083-0.479,0.167-0.97,0.254-1.474c0.495,0.086,1.044,0.181,1.646,0.284
			c0.602,0.104,1.215,0.209,1.838,0.316c0.564,0.098,1.033,0.23,1.409,0.398s0.667,0.365,0.874,0.593
			c0.207,0.227,0.344,0.481,0.409,0.763c0.066,0.282,0.071,0.585,0.015,0.909c-0.066,0.389-0.196,0.716-0.39,0.981
			c-0.193,0.267-0.429,0.472-0.707,0.617c-0.277,0.146-0.58,0.236-0.907,0.272l-0.023,0.135c0.321,0.126,0.608,0.295,0.862,0.508
			s0.439,0.483,0.56,0.812c0.119,0.328,0.139,0.723,0.06,1.184c-0.063,0.367-0.183,0.695-0.357,0.984
			c-0.176,0.288-0.426,0.521-0.751,0.698s-0.743,0.285-1.256,0.324S112.565,19.08,111.827,18.953z M110.533,17.469l1.633,0.281
			c0.504,0.087,0.922,0.101,1.253,0.042c0.331-0.06,0.587-0.184,0.767-0.373c0.18-0.188,0.296-0.433,0.347-0.731
			c0.084-0.482-0.028-0.861-0.335-1.137c-0.307-0.274-0.771-0.466-1.395-0.573l-2.127-0.366l0.203-1.179l2.088,0.359
			c0.414,0.072,0.765,0.065,1.049-0.02c0.285-0.085,0.509-0.225,0.67-0.419c0.16-0.194,0.264-0.422,0.309-0.683
			c0.075-0.436-0.006-0.781-0.243-1.038c-0.237-0.256-0.627-0.431-1.17-0.524l-1.896-0.327c-0.059,0.342-0.118,0.684-0.177,1.025
			s-0.124,0.72-0.195,1.134l-0.42,2.434c-0.069,0.401-0.132,0.768-0.189,1.099C110.647,16.804,110.59,17.136,110.533,17.469z"/>
		<path fill="#020203" d="M123.421,21.942c-0.768-0.245-1.396-0.58-1.887-1.005s-0.854-0.909-1.092-1.454
			c-0.237-0.544-0.362-1.12-0.372-1.729c-0.011-0.608,0.081-1.219,0.276-1.829c0.272-0.854,0.691-1.573,1.257-2.154
			s1.246-0.969,2.043-1.163c0.796-0.193,1.68-0.136,2.649,0.174c0.735,0.234,1.345,0.559,1.829,0.973
			c0.484,0.413,0.849,0.891,1.093,1.43c0.244,0.54,0.372,1.116,0.386,1.73c0.014,0.613-0.081,1.238-0.284,1.874
			c-0.278,0.871-0.7,1.596-1.268,2.175c-0.566,0.578-1.245,0.961-2.034,1.148C125.228,22.298,124.362,22.242,123.421,21.942z
			 M123.781,20.706c0.508,0.162,0.977,0.212,1.406,0.148c0.429-0.063,0.815-0.213,1.159-0.448c0.344-0.236,0.639-0.536,0.884-0.898
			c0.246-0.363,0.438-0.764,0.578-1.201c0.149-0.471,0.226-0.929,0.227-1.374s-0.074-0.86-0.227-1.246
			c-0.152-0.385-0.385-0.722-0.697-1.011c-0.313-0.288-0.711-0.51-1.194-0.664c-0.499-0.159-0.963-0.209-1.391-0.15
			c-0.429,0.06-0.817,0.206-1.168,0.439c-0.35,0.234-0.65,0.531-0.902,0.893c-0.251,0.361-0.449,0.767-0.593,1.217
			c-0.142,0.445-0.217,0.888-0.226,1.326c-0.008,0.438,0.062,0.854,0.208,1.243c0.146,0.39,0.378,0.734,0.696,1.034
			S123.273,20.543,123.781,20.706z"/>
		<path fill="#020203" d="M131.584,24.757c0.225-0.459,0.44-0.901,0.647-1.325c0.208-0.425,0.438-0.896,0.691-1.413l1.37-2.804
			c0.259-0.529,0.494-1.01,0.705-1.442s0.43-0.879,0.656-1.343l1.338,0.654c-0.227,0.463-0.446,0.911-0.658,1.346
			c-0.212,0.434-0.448,0.916-0.707,1.445l-1.575,3.224l0.104,0.051l2.795-1.542c0.69-0.386,1.395-0.778,2.112-1.178
			c0.719-0.398,1.465-0.812,2.238-1.239l1.168,0.571c-0.227,0.463-0.445,0.911-0.657,1.343c-0.211,0.433-0.446,0.913-0.705,1.442
			l-1.37,2.803c-0.253,0.519-0.483,0.989-0.691,1.413c-0.207,0.425-0.423,0.866-0.647,1.326l-1.338-0.654
			c0.225-0.459,0.441-0.902,0.65-1.328c0.208-0.427,0.438-0.898,0.691-1.416l1.603-3.276l-0.1-0.048l-2.801,1.539
			c-0.847,0.469-1.623,0.899-2.331,1.291c-0.708,0.393-1.386,0.768-2.033,1.126L131.584,24.757z M139.43,17.278
			c-0.506-0.248-0.886-0.536-1.14-0.865s-0.391-0.683-0.411-1.062c-0.02-0.379,0.064-0.766,0.253-1.161l1.042,0.459
			c-0.188,0.386-0.231,0.738-0.13,1.058c0.102,0.32,0.358,0.581,0.771,0.782c0.42,0.206,0.785,0.252,1.094,0.138
			c0.31-0.114,0.554-0.354,0.732-0.721l1.016,0.497c-0.192,0.394-0.441,0.699-0.749,0.918c-0.307,0.219-0.669,0.329-1.084,0.331
			C140.408,17.654,139.943,17.529,139.43,17.278z"/>
		<path fill="#020203" d="M144.499,34.064c0.161-0.21,0.324-0.421,0.487-0.634c0.164-0.213,0.328-0.426,0.491-0.639
			c0.17-0.22,0.34-0.441,0.512-0.665c0.172-0.223,0.342-0.444,0.511-0.664c0.45,0.346,0.903,0.694,1.36,1.046
			c0.457,0.351,0.902,0.693,1.335,1.026l2.396,1.843c0.437,0.335,0.883,0.679,1.34,1.03c0.457,0.351,0.908,0.698,1.355,1.042
			c-0.17,0.22-0.34,0.441-0.512,0.664c-0.172,0.224-0.342,0.445-0.511,0.665c-0.164,0.213-0.328,0.426-0.492,0.639
			c-0.163,0.213-0.326,0.425-0.487,0.634l-1.025-0.788l1.287-1.823l0.106,0.385l-6.096-4.688l0.399,0.004l-1.432,1.711
			L144.499,34.064z M151.485,36.623c0.309-0.401,0.607-0.791,0.897-1.167c0.289-0.376,0.609-0.792,0.961-1.249l1.616-2.103
			c0.356-0.464,0.683-0.887,0.977-1.27c0.295-0.384,0.598-0.777,0.91-1.183l-0.239,1.152l-3.658-2.813l1.193-0.304
			c-0.376,0.433-0.756,0.867-1.139,1.305c-0.384,0.438-0.765,0.875-1.144,1.311c-0.476,0.548-0.913,1.001-1.312,1.36
			c-0.399,0.359-0.79,0.645-1.17,0.855c-0.381,0.21-0.782,0.362-1.206,0.458l-1.069-1.019c0.352-0.059,0.718-0.182,1.1-0.369
			s0.799-0.472,1.251-0.854s0.955-0.891,1.509-1.525c0.403-0.46,0.798-0.911,1.185-1.353c0.386-0.441,0.753-0.863,1.102-1.268
			l4.952,3.808c-0.314,0.409-0.618,0.804-0.912,1.186c-0.293,0.381-0.619,0.806-0.979,1.272l-1.756,2.282
			c-0.351,0.457-0.671,0.874-0.961,1.25c-0.289,0.376-0.588,0.765-0.897,1.167L151.485,36.623z"/>
		<path fill="#020203" d="M159.063,44.135c-0.561-0.579-0.956-1.172-1.186-1.778c-0.23-0.606-0.321-1.205-0.272-1.798
			c0.048-0.592,0.212-1.158,0.491-1.699c0.278-0.54,0.648-1.033,1.109-1.479c0.646-0.623,1.354-1.057,2.128-1.301
			s1.557-0.263,2.351-0.057c0.793,0.207,1.543,0.677,2.251,1.408c0.536,0.555,0.919,1.129,1.149,1.724
			c0.23,0.594,0.325,1.186,0.284,1.776s-0.2,1.16-0.479,1.707s-0.658,1.052-1.139,1.516c-0.657,0.635-1.373,1.073-2.146,1.314
			s-1.552,0.257-2.336,0.048C160.484,45.306,159.75,44.846,159.063,44.135z M159.966,43.218c0.37,0.383,0.76,0.648,1.168,0.797
			c0.408,0.147,0.819,0.199,1.233,0.154c0.415-0.045,0.816-0.169,1.204-0.373c0.389-0.203,0.747-0.464,1.078-0.783
			c0.354-0.344,0.639-0.711,0.851-1.103s0.342-0.793,0.391-1.204c0.049-0.412,0.003-0.818-0.135-1.221
			c-0.14-0.402-0.385-0.786-0.737-1.15c-0.364-0.377-0.749-0.642-1.153-0.792c-0.405-0.151-0.817-0.206-1.236-0.166
			s-0.825,0.159-1.218,0.358c-0.393,0.198-0.759,0.462-1.098,0.79c-0.337,0.325-0.612,0.679-0.828,1.062
			c-0.215,0.383-0.35,0.78-0.406,1.192c-0.056,0.413-0.015,0.827,0.124,1.241C159.341,42.436,159.596,42.834,159.966,43.218z"/>
		<path fill="#020203" d="M164.646,49.992c0.439-0.234,0.877-0.467,1.312-0.698s0.908-0.482,1.416-0.754l2.741-1.446
			c0.505-0.269,0.976-0.52,1.414-0.752s0.894-0.474,1.37-0.723l0.881,1.256c-0.356,0.557-0.7,1.09-1.033,1.602
			c-0.332,0.511-0.664,1.02-0.996,1.527l-1.946,3l0.063,0.09l3.469-0.827c0.588-0.143,1.175-0.283,1.761-0.421
			c0.586-0.139,1.204-0.287,1.854-0.446l0.877,1.25c-0.396,0.357-0.777,0.701-1.145,1.033c-0.368,0.332-0.766,0.692-1.191,1.081
			l-2.318,2.094c-0.418,0.378-0.807,0.729-1.166,1.056c-0.358,0.325-0.729,0.658-1.108,0.999l-0.836-1.191
			c0.568-0.51,1.109-0.995,1.623-1.456c0.514-0.46,0.992-0.891,1.436-1.292l1.918-1.726l-0.063-0.091l-2.854,0.73
			c-0.697,0.177-1.392,0.353-2.083,0.527c-0.692,0.176-1.34,0.343-1.943,0.501l-0.589-0.841c0.223-0.331,0.462-0.691,0.717-1.082
			c0.256-0.391,0.518-0.791,0.787-1.199s0.532-0.808,0.787-1.198l1.637-2.489l-0.063-0.091l-2.262,1.213
			c-0.531,0.283-1.103,0.588-1.712,0.915c-0.61,0.326-1.253,0.669-1.928,1.025L164.646,49.992z"/>
		<path fill="#020203" d="M175.695,68.286c0.436,0.017,0.88,0.034,1.333,0.054c0.453,0.019,0.929,0.037,1.427,0.056l2.964-3.505
			c0.326-0.384,0.636-0.749,0.929-1.096c0.293-0.346,0.626-0.743,1.001-1.19l0.676,1.585c-0.275,0.306-0.521,0.578-0.739,0.817
			c-0.219,0.239-0.423,0.463-0.612,0.67c-0.188,0.208-0.377,0.416-0.564,0.623s-0.39,0.43-0.608,0.669l-1.386,1.538l0.051,0.12
			l2.02,0.029c0.337,0.007,0.647,0.012,0.933,0.016c0.284,0.003,0.566,0.006,0.848,0.009s0.582,0.006,0.902,0.011
			s0.682,0.011,1.085,0.018l0.65,1.524c-0.621-0.031-1.268-0.061-1.938-0.088s-1.285-0.054-1.843-0.079l-3.245-0.136
			c-0.493-0.02-1.027-0.042-1.601-0.066c-0.573-0.023-1.119-0.048-1.638-0.071L175.695,68.286z"/>
		<path fill="#020203" d="M180.637,82.192c0.499-0.11,0.979-0.217,1.441-0.318c0.461-0.102,0.973-0.215,1.535-0.34l3.054-0.674
			c0.566-0.126,1.087-0.24,1.561-0.346c0.475-0.104,0.961-0.212,1.46-0.322c0.079,0.355,0.181,0.818,0.308,1.39
			c0.126,0.571,0.271,1.228,0.435,1.968c0.156,0.707,0.194,1.312,0.115,1.818s-0.289,0.918-0.632,1.238
			c-0.342,0.319-0.832,0.55-1.472,0.691c-0.566,0.125-1.093,0.133-1.579,0.022c-0.485-0.11-0.906-0.377-1.262-0.8
			s-0.622-1.04-0.802-1.853c-0.046-0.208-0.096-0.431-0.148-0.67s-0.104-0.473-0.154-0.701c-0.051-0.229-0.095-0.426-0.131-0.591
			l1.212-0.268l0.365,1.65c0.105,0.478,0.249,0.856,0.431,1.136s0.413,0.465,0.695,0.556c0.281,0.091,0.624,0.092,1.025,0.003
			c0.33-0.072,0.582-0.184,0.755-0.333c0.174-0.149,0.291-0.32,0.353-0.514s0.087-0.396,0.075-0.609s-0.038-0.416-0.081-0.611
			l-0.555-2.507l1.144,0.506c-0.499,0.11-0.984,0.218-1.456,0.322s-0.993,0.22-1.564,0.346l-2.824,0.624
			c-0.563,0.124-1.075,0.237-1.536,0.34c-0.462,0.102-0.941,0.208-1.441,0.318L180.637,82.192z"/>
		<path fill="#020203" d="M182.642,92.595c0.509-0.05,0.998-0.098,1.468-0.144c0.471-0.046,0.992-0.097,1.566-0.152l3.111-0.304
			c0.578-0.057,1.108-0.108,1.592-0.155c0.482-0.048,0.979-0.096,1.487-0.146l0.573,5.874l-1.28,0.125
			c-0.041-0.418-0.085-0.867-0.132-1.346s-0.102-1.044-0.165-1.694l-0.214-2.193l1.13,0.745c-0.509,0.05-1.004,0.098-1.484,0.145
			s-1.013,0.1-1.595,0.156l-2.646,0.258c-0.569,0.056-1.091,0.106-1.562,0.152c-0.473,0.046-0.963,0.094-1.472,0.144l0.974-0.859
			l0.218,2.226c0.053,0.544,0.103,1.059,0.15,1.547c0.048,0.487,0.094,0.955,0.137,1.403l-1.28,0.125L182.642,92.595z
			 M186.804,93.351l1.235-0.12l0.171,1.753c0.058,0.587,0.106,1.09,0.147,1.511s0.081,0.827,0.119,1.22l-1.235,0.12
			c-0.04-0.409-0.081-0.824-0.122-1.245s-0.09-0.918-0.146-1.491L186.804,93.351z"/>
		<path fill="#020203" d="M183.241,108.144c0.442-0.358,0.857-0.692,1.246-1.004c0.39-0.312,0.77-0.616,1.141-0.915l1.89-1.521
			l0.016-0.617l1.222,0.029l-0.015,0.604l1.5,1.408c0.352,0.333,0.702,0.661,1.053,0.984c0.35,0.322,0.756,0.699,1.218,1.131
			l-0.044,1.807c-0.479-0.462-0.948-0.912-1.407-1.351c-0.46-0.438-0.923-0.877-1.389-1.317l-1.755-1.668l0.677-0.01l-2.201,1.755
			c-0.336,0.273-0.698,0.564-1.088,0.874c-0.389,0.31-0.768,0.612-1.137,0.909c-0.369,0.296-0.692,0.556-0.971,0.779
			L183.241,108.144z M183.375,102.608c0.511,0.012,1.003,0.023,1.475,0.035c0.473,0.012,0.997,0.024,1.573,0.038l3.119,0.075
			c0.589,0.015,1.124,0.027,1.604,0.039c0.481,0.012,0.979,0.023,1.495,0.036l-0.037,1.521c-0.516-0.013-1.014-0.024-1.494-0.036
			c-0.481-0.012-1.017-0.024-1.605-0.039l-3.119-0.075c-0.576-0.014-1.101-0.026-1.572-0.038c-0.473-0.012-0.964-0.023-1.476-0.035
			L183.375,102.608z"/>
		<path fill="#020203" d="M182.836,113.767c0.505,0.08,0.991,0.158,1.457,0.232c0.467,0.075,0.984,0.157,1.554,0.249l3.081,0.492
			c0.582,0.093,1.11,0.178,1.585,0.253c0.476,0.076,0.967,0.155,1.477,0.236l-0.235,1.47c-0.509-0.081-1.002-0.16-1.479-0.236
			s-1.007-0.161-1.588-0.254l-3.543-0.566l-0.019,0.115l2.291,2.223c0.57,0.548,1.151,1.106,1.742,1.678
			c0.592,0.57,1.204,1.163,1.839,1.778l-0.205,1.283c-0.51-0.081-1.002-0.16-1.477-0.236c-0.475-0.075-1.003-0.16-1.585-0.253
			l-3.081-0.492c-0.569-0.091-1.087-0.174-1.554-0.249c-0.466-0.074-0.952-0.151-1.457-0.232l0.235-1.47
			c0.505,0.08,0.991,0.158,1.46,0.233s0.987,0.157,1.557,0.249l3.601,0.575l0.018-0.109l-2.29-2.229
			c-0.695-0.673-1.334-1.291-1.915-1.854c-0.582-0.562-1.139-1.101-1.671-1.616L182.836,113.767z"/>
		<path fill="#020203" d="M162.478,159.753c0.477-0.567,0.996-1.003,1.559-1.306s1.142-0.476,1.738-0.519
			c0.596-0.043,1.188,0.039,1.779,0.245c0.59,0.207,1.152,0.535,1.687,0.983c0.714,0.599,1.226,1.276,1.534,2.034
			c0.31,0.757,0.398,1.534,0.269,2.329c-0.13,0.796-0.498,1.554-1.103,2.274c-0.194,0.232-0.401,0.446-0.619,0.643
			c-0.219,0.195-0.439,0.371-0.662,0.526c-0.224,0.154-0.44,0.291-0.649,0.409c-0.21,0.118-0.405,0.212-0.587,0.28l-1.021-1.027
			c0.37-0.125,0.705-0.268,1.005-0.43c0.3-0.161,0.567-0.338,0.805-0.529s0.446-0.395,0.627-0.61
			c0.396-0.472,0.641-0.981,0.736-1.529c0.095-0.549,0.031-1.094-0.191-1.638c-0.224-0.543-0.612-1.048-1.166-1.513
			c-0.368-0.31-0.76-0.546-1.174-0.709c-0.414-0.164-0.836-0.242-1.264-0.233c-0.429,0.008-0.85,0.115-1.264,0.322
			s-0.801,0.524-1.16,0.953c-0.14,0.166-0.268,0.34-0.384,0.522s-0.22,0.375-0.312,0.579c-0.092,0.203-0.165,0.418-0.22,0.646
			c-0.056,0.228-0.095,0.466-0.115,0.714l-1.163-0.84c0.037-0.213,0.095-0.431,0.172-0.654s0.174-0.445,0.29-0.664
			c0.116-0.22,0.246-0.436,0.391-0.647C162.159,160.154,162.313,159.95,162.478,159.753z"/>
		<path fill="#020203" d="M157.911,164.962c0.348,0.376,0.682,0.736,1.003,1.083c0.32,0.347,0.677,0.731,1.068,1.155l2.123,2.294
			c0.395,0.427,0.757,0.817,1.086,1.174c0.33,0.356,0.668,0.722,1.016,1.098c-0.268,0.247-0.615,0.569-1.045,0.967
			s-0.922,0.854-1.479,1.368c-0.531,0.492-1.035,0.831-1.512,1.018c-0.477,0.188-0.938,0.214-1.388,0.08
			c-0.448-0.134-0.896-0.441-1.34-0.921c-0.394-0.427-0.666-0.877-0.816-1.353c-0.15-0.475-0.133-0.973,0.053-1.492
			c0.187-0.521,0.584-1.063,1.195-1.628c0.155-0.145,0.323-0.3,0.503-0.466c0.18-0.167,0.355-0.329,0.527-0.488
			c0.172-0.158,0.319-0.296,0.443-0.41l0.844,0.911l-1.241,1.147c-0.359,0.333-0.613,0.648-0.763,0.946
			c-0.149,0.297-0.192,0.591-0.129,0.88c0.064,0.289,0.236,0.585,0.516,0.887c0.229,0.248,0.452,0.409,0.669,0.484
			c0.216,0.074,0.424,0.089,0.621,0.044c0.198-0.044,0.386-0.125,0.564-0.242s0.34-0.244,0.485-0.379l1.885-1.744l0.141,1.243
			c-0.348-0.376-0.686-0.74-1.014-1.095s-0.69-0.747-1.088-1.177l-1.965-2.123c-0.392-0.423-0.747-0.808-1.068-1.154
			c-0.32-0.347-0.654-0.707-1.002-1.083L157.911,164.962z"/>
		<path fill="#020203" d="M146.436,174.283c0.66-0.463,1.308-0.76,1.942-0.893c0.634-0.132,1.24-0.128,1.817,0.013
			s1.111,0.391,1.602,0.751s0.92,0.803,1.287,1.328c0.515,0.734,0.832,1.503,0.952,2.305c0.12,0.803,0.017,1.579-0.312,2.33
			c-0.328,0.751-0.909,1.419-1.743,2.003c-0.632,0.442-1.259,0.731-1.882,0.866c-0.622,0.134-1.223,0.135-1.8,0.002
			s-1.113-0.38-1.61-0.74c-0.496-0.361-0.936-0.815-1.318-1.362c-0.524-0.749-0.846-1.524-0.963-2.325
			c-0.116-0.802-0.011-1.573,0.319-2.315C145.057,175.503,145.626,174.849,146.436,174.283z M147.2,175.318
			c-0.437,0.306-0.76,0.648-0.97,1.028s-0.325,0.778-0.346,1.195c-0.021,0.416,0.039,0.832,0.179,1.247
			c0.141,0.415,0.342,0.811,0.605,1.187c0.283,0.405,0.603,0.742,0.956,1.014c0.354,0.271,0.729,0.462,1.128,0.574
			s0.808,0.132,1.227,0.058s0.837-0.257,1.252-0.548c0.43-0.301,0.75-0.639,0.963-1.016c0.213-0.376,0.332-0.774,0.357-1.194
			s-0.028-0.84-0.163-1.259s-0.338-0.821-0.608-1.208c-0.269-0.384-0.575-0.712-0.919-0.983c-0.345-0.272-0.716-0.469-1.114-0.589
			c-0.399-0.12-0.814-0.144-1.245-0.072C148.07,174.824,147.637,175.012,147.2,175.318z"/>
		<path fill="#020203" d="M134.306,181.575c0.524,0.218,1.017,0.425,1.476,0.619c0.459,0.193,0.908,0.383,1.348,0.567l2.236,0.939
			l0.551-0.28l0.555,1.088l-0.539,0.275l-0.524,1.989c-0.127,0.468-0.248,0.933-0.366,1.394c-0.117,0.461-0.256,0.998-0.416,1.609
			l-1.609,0.821c0.179-0.642,0.352-1.269,0.519-1.881c0.167-0.613,0.333-1.229,0.498-1.849l0.634-2.336l0.33,0.59l-2.59-1.102
			c-0.401-0.165-0.83-0.346-1.287-0.541c-0.456-0.195-0.903-0.384-1.34-0.567s-0.819-0.346-1.147-0.484L134.306,181.575z
			 M139.239,179.059c0.232,0.455,0.455,0.894,0.67,1.314s0.453,0.888,0.715,1.401l1.417,2.779c0.268,0.525,0.511,1.002,0.729,1.431
			c0.219,0.429,0.445,0.872,0.68,1.332l-1.355,0.69c-0.234-0.459-0.46-0.903-0.679-1.332c-0.219-0.428-0.462-0.905-0.729-1.43
			l-1.417-2.78c-0.262-0.513-0.5-0.98-0.715-1.401c-0.214-0.421-0.438-0.858-0.67-1.314L139.239,179.059z"/>
		<path fill="#020203" d="M120.32,186.625c0.712-0.207,1.386-0.279,2.021-0.218c0.636,0.061,1.214,0.239,1.732,0.535
			c0.52,0.297,0.967,0.694,1.342,1.194c0.375,0.501,0.66,1.086,0.854,1.756c0.26,0.895,0.308,1.742,0.144,2.544
			c-0.165,0.801-0.522,1.496-1.073,2.085c-0.552,0.589-1.278,1.014-2.182,1.276c-0.291,0.084-0.582,0.147-0.872,0.188
			c-0.29,0.042-0.571,0.064-0.843,0.069c-0.272,0.004-0.528-0.003-0.768-0.021c-0.24-0.019-0.455-0.05-0.644-0.094l-0.277-1.422
			c0.377,0.103,0.735,0.17,1.074,0.202s0.659,0.035,0.963,0.008s0.591-0.08,0.861-0.158c0.591-0.172,1.078-0.459,1.462-0.861
			c0.385-0.402,0.635-0.892,0.752-1.467s0.075-1.211-0.127-1.906c-0.134-0.462-0.327-0.876-0.58-1.242s-0.561-0.666-0.921-0.896
			c-0.36-0.232-0.771-0.377-1.229-0.436s-0.957-0.01-1.494,0.146c-0.208,0.061-0.411,0.134-0.609,0.221s-0.392,0.189-0.58,0.308
			c-0.189,0.118-0.37,0.256-0.543,0.414c-0.173,0.159-0.337,0.335-0.493,0.529l-0.499-1.345c0.149-0.155,0.318-0.305,0.507-0.447
			c0.188-0.144,0.392-0.273,0.61-0.391c0.219-0.118,0.447-0.225,0.686-0.321C119.833,186.781,120.075,186.697,120.32,186.625z"/>
		<path fill="#020203" d="M114.314,186.339c0.037,0.262,0.075,0.525,0.114,0.791c0.038,0.267,0.077,0.532,0.115,0.798
			c0.04,0.274,0.08,0.551,0.12,0.83c0.04,0.278,0.08,0.556,0.12,0.83c-0.562,0.081-1.128,0.163-1.698,0.245
			c-0.57,0.083-1.126,0.163-1.666,0.241l-2.991,0.434c-0.545,0.079-1.103,0.159-1.673,0.242c-0.57,0.082-1.134,0.164-1.691,0.245
			c-0.04-0.274-0.08-0.552-0.12-0.83c-0.041-0.279-0.081-0.556-0.12-0.83c-0.039-0.266-0.077-0.531-0.116-0.798
			c-0.038-0.266-0.076-0.529-0.114-0.791l1.28-0.186l0.409,2.193l-0.35-0.192l7.61-1.102l-0.281,0.284l-0.229-2.22L114.314,186.339z
			 M107.608,189.563c0.073,0.502,0.144,0.987,0.211,1.457c0.068,0.47,0.144,0.989,0.226,1.56l0.381,2.625
			c0.083,0.579,0.16,1.107,0.229,1.586c0.068,0.478,0.14,0.97,0.213,1.477l-0.659-0.976l4.567-0.661l-0.614,1.067
			c-0.048-0.571-0.095-1.146-0.142-1.727s-0.094-1.157-0.143-1.732c-0.061-0.723-0.081-1.353-0.06-1.89s0.088-1.016,0.202-1.435
			c0.114-0.42,0.285-0.814,0.512-1.185l1.477-0.056c-0.203,0.292-0.37,0.64-0.503,1.045c-0.132,0.404-0.218,0.901-0.26,1.492
			c-0.041,0.591-0.027,1.306,0.041,2.145c0.049,0.61,0.098,1.208,0.145,1.792c0.048,0.584,0.095,1.143,0.141,1.674l-6.182,0.896
			c-0.074-0.511-0.146-1.004-0.215-1.479c-0.068-0.477-0.146-1.006-0.229-1.589l-0.413-2.851c-0.082-0.57-0.157-1.09-0.226-1.56
			c-0.067-0.47-0.138-0.955-0.211-1.457L107.608,189.563z"/>
		<path fill="#020203" d="M101.917,189.845c-0.165,0.501-0.338,1.028-0.521,1.581c-0.182,0.554-0.357,1.079-0.526,1.575
			l-1.054,3.203c-0.194,0.575-0.367,1.095-0.521,1.559c-0.152,0.464-0.308,0.932-0.465,1.402l-1.982,0.032
			c-0.177-0.479-0.348-0.946-0.514-1.402c-0.165-0.457-0.353-0.968-0.561-1.532l-1.15-3.173c-0.186-0.509-0.378-1.031-0.575-1.567
			s-0.384-1.05-0.561-1.541l1.585-0.026c0.178,0.521,0.36,1.058,0.547,1.607s0.364,1.069,0.532,1.561l1.61,4.72l0.13-0.002
			l1.478-4.724c0.16-0.515,0.327-1.053,0.5-1.614s0.342-1.106,0.507-1.634L101.917,189.845z M100.049,192.059l-0.124,1.173
			l-4.498,0.073l-0.136-1.168L100.049,192.059z"/>
		<path fill="#020203" d="M85.333,189.12c-0.058,0.49-0.112,0.965-0.166,1.423c-0.054,0.459-0.112,0.966-0.178,1.521l-0.087,0.749
			c0.207-0.059,0.436-0.113,0.684-0.165s0.523-0.084,0.826-0.097c0.302-0.013,0.637,0.002,1.002,0.045
			c0.65,0.075,1.194,0.243,1.633,0.501c0.439,0.259,0.759,0.607,0.958,1.048c0.199,0.439,0.264,0.968,0.191,1.583
			c-0.013,0.107-0.024,0.21-0.036,0.307c-0.011,0.097-0.022,0.197-0.035,0.301c-0.059,0.508-0.112,0.963-0.159,1.365
			s-0.097,0.827-0.148,1.274l-1.518-0.177c0.058-0.495,0.111-0.949,0.159-1.362s0.1-0.856,0.155-1.33l0.045-0.387
			c0.043-0.366,0.011-0.686-0.098-0.957c-0.107-0.272-0.304-0.492-0.587-0.658c-0.284-0.166-0.667-0.277-1.149-0.333
			c-0.279-0.033-0.541-0.043-0.785-0.03c-0.243,0.014-0.472,0.045-0.685,0.094c-0.213,0.05-0.411,0.109-0.594,0.18l-0.144,1.233
			c-0.068,0.585-0.131,1.116-0.187,1.594c-0.056,0.479-0.113,0.973-0.173,1.485l-1.518-0.177c0.06-0.513,0.117-1.008,0.174-1.485
			c0.056-0.478,0.117-1.009,0.186-1.595l0.362-3.099c0.066-0.572,0.127-1.094,0.182-1.562s0.112-0.958,0.172-1.466L85.333,189.12z"
			/>
		<path fill="#020203" d="M79.38,188.15c-0.128,0.495-0.25,0.972-0.368,1.429c-0.117,0.457-0.248,0.965-0.392,1.523l-0.777,3.021
			c-0.147,0.57-0.28,1.089-0.4,1.555s-0.244,0.948-0.373,1.448l-1.441-0.371c0.129-0.5,0.253-0.983,0.374-1.451
			c0.12-0.468,0.254-0.987,0.4-1.558l0.895-3.475l-0.113-0.029l-2.427,2.073c-0.599,0.518-1.209,1.044-1.832,1.579
			c-0.624,0.535-1.271,1.091-1.942,1.665l-1.259-0.324c0.129-0.499,0.253-0.981,0.372-1.447c0.12-0.466,0.254-0.984,0.4-1.556
			l0.777-3.021c0.144-0.558,0.274-1.065,0.393-1.523c0.117-0.457,0.24-0.934,0.367-1.429l1.441,0.371
			c-0.127,0.495-0.25,0.973-0.368,1.432c-0.118,0.46-0.249,0.969-0.393,1.527l-0.909,3.531l0.107,0.027l2.433-2.072
			c0.734-0.63,1.409-1.208,2.023-1.734s1.202-1.03,1.765-1.513L79.38,188.15z"/>
		<path fill="#020203" d="M62.075,186.072l-0.515,1.095c-0.38-0.18-0.749-0.353-1.105-0.521c-0.357-0.168-0.69-0.324-1-0.47
			l-1.459-0.687c-0.31-0.146-0.644-0.302-1-0.47s-0.726-0.341-1.105-0.521l0.514-1.094c0.381,0.179,0.749,0.353,1.106,0.52
			c0.356,0.168,0.69,0.325,1,0.471l1.458,0.686c0.311,0.146,0.644,0.303,1,0.471C61.326,185.72,61.694,185.893,62.075,186.072z"/>
		<path fill="#020203" d="M49.864,175.734c-0.286,0.425-0.561,0.832-0.824,1.225c-0.264,0.392-0.557,0.826-0.878,1.305l-1.742,2.589
			c-0.328,0.488-0.627,0.933-0.896,1.332c-0.269,0.398-0.547,0.812-0.835,1.24l-1.289-0.867c0.288-0.428,0.566-0.842,0.835-1.24
			c0.269-0.399,0.567-0.844,0.896-1.332l1.741-2.589c0.322-0.479,0.614-0.913,0.878-1.305c0.264-0.393,0.539-0.801,0.824-1.225
			L49.864,175.734z"/>
		<path fill="#020203" d="M44.782,172.11c-0.315,0.402-0.619,0.789-0.91,1.161s-0.615,0.785-0.971,1.238l-1.924,2.456
			c-0.363,0.464-0.693,0.886-0.99,1.264c-0.297,0.379-0.604,0.771-0.922,1.177l-1.223-0.958c0.317-0.405,0.625-0.798,0.922-1.177
			c0.297-0.378,0.627-0.8,0.99-1.264l1.924-2.456c0.355-0.453,0.679-0.866,0.971-1.238c0.291-0.372,0.594-0.759,0.909-1.161
			L44.782,172.11z"/>
		<path fill="#020203" d="M32.622,160.777c-0.066,0.564-0.131,1.094-0.191,1.589c-0.062,0.494-0.121,0.978-0.178,1.451l-0.292,2.408
			l0.421,0.453l-0.896,0.831l-0.412-0.442l-2.057,0.039c-0.485,0.006-0.965,0.017-1.441,0.029c-0.476,0.013-1.029,0.026-1.661,0.04
			l-1.229-1.324c0.665-0.003,1.315-0.008,1.95-0.016c0.635-0.007,1.273-0.016,1.914-0.025l2.421-0.03l-0.478,0.479l0.351-2.792
			c0.05-0.431,0.106-0.893,0.169-1.386c0.062-0.492,0.122-0.975,0.18-1.444s0.107-0.882,0.151-1.236L32.622,160.777z
			 M36.391,164.834c-0.374,0.348-0.734,0.683-1.081,1.004c-0.346,0.321-0.729,0.679-1.152,1.07l-2.286,2.124
			c-0.432,0.4-0.823,0.765-1.176,1.092c-0.353,0.328-0.718,0.667-1.096,1.018l-1.035-1.114c0.378-0.351,0.743-0.69,1.096-1.018
			s0.744-0.691,1.176-1.093l2.286-2.123c0.423-0.393,0.807-0.749,1.152-1.07c0.347-0.321,0.707-0.656,1.082-1.004L36.391,164.834z"
			/>
		<path fill="#020203" d="M27.252,153.996c0.26,0.362,0.5,0.698,0.721,1.007c0.221,0.308,0.419,0.584,0.594,0.829
			c0.176,0.245,0.324,0.452,0.445,0.621c-0.416,0.298-0.815,0.584-1.199,0.859c-0.385,0.274-0.811,0.58-1.279,0.916l-2.542,1.82
			c-0.472,0.338-0.905,0.648-1.3,0.931c-0.395,0.283-0.8,0.573-1.216,0.871c-0.292-0.409-0.616-0.861-0.973-1.358
			c-0.355-0.497-0.718-1.002-1.086-1.517c-0.333-0.465-0.574-0.89-0.724-1.272c-0.149-0.384-0.218-0.729-0.206-1.036
			c0.012-0.307,0.094-0.584,0.244-0.83c0.151-0.247,0.361-0.467,0.629-0.658c0.32-0.229,0.643-0.371,0.967-0.425
			s0.636-0.034,0.937,0.057c0.3,0.092,0.579,0.24,0.837,0.444l0.111-0.08c-0.141-0.315-0.227-0.638-0.257-0.967
			c-0.031-0.33,0.026-0.653,0.172-0.971s0.408-0.613,0.789-0.886c0.303-0.217,0.618-0.366,0.945-0.449
			c0.327-0.082,0.669-0.072,1.024,0.03c0.356,0.102,0.73,0.319,1.123,0.651C26.4,152.915,26.815,153.386,27.252,153.996z
			 M27.132,155.96l-0.965-1.348c-0.298-0.416-0.586-0.719-0.863-0.909s-0.547-0.281-0.808-0.273s-0.514,0.101-0.761,0.277
			c-0.398,0.285-0.584,0.633-0.56,1.044c0.025,0.411,0.223,0.874,0.591,1.389l1.257,1.754l-0.973,0.696l-1.234-1.723
			c-0.244-0.342-0.498-0.582-0.761-0.722s-0.52-0.197-0.771-0.172s-0.484,0.114-0.699,0.269c-0.359,0.258-0.544,0.561-0.556,0.91
			c-0.011,0.349,0.144,0.747,0.464,1.194l1.121,1.564c0.281-0.202,0.563-0.404,0.845-0.605c0.282-0.202,0.594-0.426,0.936-0.67
			l2.008-1.438c0.332-0.237,0.634-0.454,0.906-0.649C26.583,156.353,26.857,156.157,27.132,155.96z"/>
		<path fill="#020203" d="M23.324,148.219c-0.521,0.083-1.069,0.171-1.645,0.264c-0.574,0.093-1.122,0.178-1.641,0.255l-3.329,0.534
			c-0.6,0.092-1.142,0.176-1.624,0.253s-0.969,0.154-1.459,0.23l-0.938-1.746c0.344-0.377,0.681-0.743,1.011-1.1
			c0.329-0.357,0.697-0.758,1.103-1.202l2.292-2.479c0.366-0.398,0.742-0.809,1.128-1.229c0.387-0.422,0.757-0.823,1.112-1.206
			l0.75,1.396c-0.382,0.397-0.773,0.805-1.176,1.223c-0.403,0.418-0.784,0.815-1.144,1.19l-3.453,3.597l0.062,0.114l4.875-0.855
			c0.53-0.094,1.085-0.192,1.663-0.296c0.579-0.104,1.14-0.204,1.684-0.3L23.324,148.219z M20.499,147.576l-1.099,0.428
			l-2.129-3.962l0.976-0.657L20.499,147.576z"/>
		<path fill="#020203" d="M17.849,137.364c-0.478,0.183-0.938,0.358-1.378,0.526c-0.441,0.169-0.932,0.356-1.47,0.562l-2.921,1.116
			c-0.542,0.207-1.04,0.396-1.494,0.57c-0.453,0.173-0.919,0.351-1.396,0.533c-0.13-0.34-0.299-0.783-0.508-1.33
			c-0.209-0.546-0.448-1.174-0.719-1.882c-0.258-0.676-0.385-1.271-0.382-1.782c0.005-0.512,0.152-0.95,0.443-1.317
			c0.292-0.366,0.743-0.666,1.354-0.899c0.542-0.207,1.062-0.292,1.559-0.255c0.497,0.038,0.952,0.24,1.365,0.606
			c0.414,0.366,0.77,0.938,1.065,1.715c0.076,0.198,0.158,0.412,0.245,0.641c0.088,0.229,0.173,0.452,0.256,0.671
			c0.084,0.219,0.156,0.407,0.216,0.564l-1.159,0.443l-0.604-1.579c-0.175-0.457-0.372-0.811-0.593-1.061s-0.477-0.398-0.77-0.447
			c-0.292-0.049-0.63,0.001-1.015,0.147c-0.315,0.121-0.549,0.268-0.698,0.44c-0.149,0.174-0.24,0.36-0.273,0.561
			c-0.032,0.2-0.027,0.404,0.016,0.613s0.1,0.406,0.171,0.593l0.916,2.398l-1.206-0.333c0.478-0.183,0.942-0.36,1.394-0.532
			c0.451-0.173,0.95-0.363,1.497-0.571l2.702-1.032c0.538-0.206,1.028-0.394,1.47-0.562c0.44-0.169,0.9-0.344,1.378-0.526
			L17.849,137.364z"/>
		<path fill="#020203" d="M13.78,125.132c-0.496,0.121-0.975,0.238-1.433,0.352c-0.459,0.112-0.969,0.237-1.528,0.374l-2.809,0.689
			c-0.568,0.14-1.087,0.267-1.557,0.382c-0.469,0.115-0.952,0.233-1.449,0.355l0.939-0.84l0.273,1.117
			c0.122,0.497,0.229,0.937,0.324,1.319c0.094,0.384,0.183,0.748,0.268,1.093l-1.307,0.32l-1.811-7.38l1.307-0.32
			c0.084,0.341,0.173,0.703,0.267,1.086s0.202,0.825,0.325,1.325l0.274,1.118l-1.223-0.316c0.497-0.122,0.98-0.24,1.449-0.355
			c0.47-0.115,0.988-0.242,1.557-0.382l2.809-0.688c0.56-0.138,1.069-0.263,1.528-0.375c0.458-0.112,0.937-0.229,1.433-0.352
			L13.78,125.132z"/>
		<path fill="#020203" d="M12.318,118.791c-0.516-0.11-1.059-0.226-1.629-0.347c-0.569-0.121-1.11-0.238-1.622-0.354l-3.297-0.7
			c-0.593-0.131-1.128-0.247-1.606-0.35c-0.478-0.102-0.959-0.205-1.443-0.311l-0.246-1.967c0.456-0.228,0.902-0.448,1.338-0.662
			c0.437-0.214,0.924-0.455,1.462-0.724l3.031-1.486c0.485-0.239,0.983-0.486,1.495-0.74c0.513-0.254,1.003-0.496,1.472-0.725
			l0.197,1.573c-0.499,0.233-1.012,0.472-1.538,0.717s-1.024,0.478-1.495,0.698l-4.518,2.111l0.017,0.129l4.855,0.958
			c0.528,0.104,1.081,0.212,1.658,0.323c0.578,0.111,1.138,0.22,1.679,0.327L12.318,118.791z M9.915,117.173l-1.179,0.003
			l-0.559-4.463l1.146-0.262L9.915,117.173z"/>
		<path fill="#020203" d="M11.199,106.701c-0.002,0.117-0.009,0.232-0.021,0.345s-0.027,0.215-0.044,0.308
			c-0.018,0.094-0.035,0.179-0.054,0.256l-1.298-0.099c0.019-0.095,0.033-0.18,0.043-0.253s0.016-0.143,0.017-0.208
			c0.006-0.359-0.141-0.64-0.438-0.842s-0.763-0.356-1.394-0.462s-1.436-0.194-2.414-0.267c-0.623-0.045-1.251-0.09-1.883-0.135
			s-1.262-0.092-1.89-0.141l0.102-6.278c0.516,0.008,1.015,0.017,1.495,0.024c0.481,0.008,1.017,0.017,1.605,0.025l3.119,0.051
			c0.576,0.01,1.101,0.018,1.573,0.025s0.964,0.016,1.476,0.024l-0.025,1.527c-0.511-0.009-1.003-0.017-1.476-0.024
			c-0.472-0.008-0.996-0.016-1.572-0.025l-2.893-0.047c-0.585-0.01-1.118-0.019-1.602-0.026s-0.98-0.016-1.491-0.023L3.206,99.7
			l-0.08,4.939l-0.968-0.854c0.658,0.055,1.317,0.108,1.977,0.162c0.66,0.055,1.346,0.111,2.056,0.17
			c0.844,0.07,1.581,0.148,2.213,0.234c0.631,0.086,1.155,0.214,1.573,0.383c0.418,0.17,0.728,0.41,0.931,0.721
			C11.11,105.766,11.208,106.181,11.199,106.701z"/>
		<path fill="#020203" d="M12.151,90.135l-0.976-0.191c-0.168-0.294-0.336-0.587-0.503-0.881c-0.168-0.293-0.333-0.586-0.497-0.879
			c-0.391-0.686-0.767-1.283-1.126-1.79C8.69,85.886,8.326,85.48,7.96,85.176c-0.367-0.304-0.757-0.496-1.169-0.577
			c-0.502-0.098-0.906-0.035-1.213,0.189c-0.307,0.226-0.515,0.616-0.624,1.173c-0.039,0.2-0.059,0.411-0.059,0.635
			c0.001,0.223,0.018,0.451,0.052,0.686c0.033,0.234,0.084,0.47,0.152,0.709c0.067,0.238,0.151,0.476,0.251,0.711l-1.393-0.127
			c-0.063-0.216-0.117-0.447-0.162-0.694c-0.044-0.247-0.075-0.505-0.093-0.773c-0.019-0.269-0.021-0.541-0.009-0.819
			s0.045-0.551,0.098-0.818c0.12-0.612,0.325-1.11,0.614-1.493s0.646-0.646,1.069-0.794c0.424-0.146,0.899-0.168,1.427-0.064
			c0.473,0.093,0.921,0.289,1.346,0.589c0.425,0.3,0.835,0.704,1.231,1.215c0.397,0.511,0.792,1.125,1.186,1.842l0.861,1.587
			l-0.317,0.136l0.335-1.709c0.091-0.464,0.182-0.929,0.273-1.396S12,84.45,12.09,83.987l1.218,0.239L12.151,90.135z"/>
		<path fill="#020203" d="M15.438,77.315c-0.195,0.605-0.475,1.092-0.836,1.457c-0.362,0.366-0.787,0.625-1.276,0.776
			c-0.488,0.151-1.021,0.208-1.599,0.17c-0.577-0.039-1.179-0.159-1.806-0.362C9.047,79.074,8.32,78.7,7.742,78.235
			s-0.972-1.011-1.179-1.639c-0.207-0.627-0.187-1.323,0.062-2.091c0.189-0.585,0.46-1.058,0.811-1.418
			c0.352-0.36,0.768-0.62,1.249-0.778s1.015-0.221,1.598-0.187c0.583,0.033,1.201,0.155,1.853,0.366
			c0.895,0.29,1.629,0.668,2.204,1.137s0.963,1.014,1.162,1.636C15.701,75.884,15.681,76.568,15.438,77.315z M14.269,76.963
			c0.157-0.486,0.143-0.923-0.045-1.309c-0.188-0.387-0.502-0.727-0.944-1.02c-0.442-0.294-0.976-0.541-1.598-0.742
			c-0.655-0.212-1.248-0.325-1.776-0.339s-0.974,0.086-1.336,0.299c-0.363,0.213-0.619,0.553-0.771,1.019
			c-0.153,0.474-0.14,0.905,0.04,1.293c0.179,0.389,0.488,0.731,0.928,1.028s0.974,0.547,1.604,0.751s1.212,0.316,1.742,0.338
			c0.531,0.021,0.983-0.071,1.357-0.278S14.111,77.45,14.269,76.963z"/>
		<path fill="#020203" d="M17.731,70.545l-0.902-0.417c-0.094-0.324-0.188-0.649-0.281-0.974c-0.094-0.325-0.185-0.648-0.274-0.972
			c-0.218-0.759-0.441-1.428-0.671-2.006s-0.486-1.059-0.771-1.44c-0.285-0.382-0.618-0.661-0.999-0.837
			c-0.465-0.214-0.872-0.248-1.224-0.103s-0.646,0.477-0.884,0.992c-0.085,0.185-0.154,0.386-0.206,0.603
			c-0.053,0.217-0.09,0.442-0.112,0.678c-0.023,0.235-0.029,0.478-0.02,0.726c0.01,0.247,0.034,0.498,0.075,0.75l-1.322-0.452
			c-0.012-0.225-0.009-0.463,0.007-0.713c0.015-0.251,0.046-0.509,0.092-0.773c0.046-0.266,0.107-0.531,0.186-0.799
			c0.078-0.267,0.174-0.524,0.288-0.772c0.262-0.566,0.578-1.001,0.949-1.305c0.372-0.304,0.781-0.477,1.228-0.519
			s0.914,0.049,1.401,0.274c0.438,0.201,0.826,0.498,1.168,0.89s0.646,0.882,0.91,1.472s0.504,1.28,0.717,2.07l0.462,1.745
			l-0.342,0.058l0.73-1.582c0.197-0.429,0.396-0.859,0.596-1.293c0.2-0.433,0.398-0.863,0.597-1.292l1.127,0.52L17.731,70.545z"/>
		<path fill="#020203" d="M21.952,61.881l-0.851-0.516c-0.057-0.333-0.113-0.666-0.17-0.999c-0.057-0.334-0.111-0.666-0.165-0.997
			c-0.131-0.778-0.278-1.468-0.441-2.068c-0.163-0.6-0.365-1.105-0.604-1.518c-0.24-0.411-0.54-0.726-0.899-0.943
			c-0.438-0.265-0.839-0.344-1.204-0.238s-0.695,0.4-0.989,0.887c-0.105,0.174-0.196,0.366-0.272,0.575
			c-0.076,0.21-0.139,0.431-0.188,0.662c-0.049,0.23-0.083,0.471-0.101,0.718c-0.019,0.247-0.021,0.499-0.009,0.755L14.795,57.6
			c0.014-0.225,0.043-0.46,0.086-0.707c0.044-0.248,0.103-0.501,0.179-0.759c0.075-0.259,0.166-0.516,0.273-0.772
			s0.231-0.502,0.373-0.735c0.323-0.534,0.687-0.931,1.09-1.19s0.829-0.386,1.277-0.378s0.902,0.151,1.362,0.43
			c0.411,0.249,0.765,0.588,1.061,1.015c0.296,0.428,0.543,0.949,0.739,1.564c0.197,0.616,0.357,1.329,0.48,2.138l0.264,1.786
			l-0.346,0.019l0.902-1.49c0.245-0.404,0.49-0.81,0.737-1.218s0.493-0.813,0.737-1.218l1.062,0.644L21.952,61.881z"/>
		<path fill="#020203" d="M30.416,49.44c-0.386-0.335-0.758-0.657-1.115-0.966c-0.356-0.31-0.753-0.653-1.188-1.03l-2.358-2.043
			c-0.445-0.386-0.85-0.736-1.214-1.051c-0.363-0.315-0.739-0.642-1.13-0.979l3.813-4.401l1.017,0.881
			c-0.298,0.344-0.616,0.711-0.955,1.103s-0.738,0.853-1.198,1.383l-1.085,1.253l-0.414-1.219c0.386,0.335,0.762,0.66,1.127,0.977
			s0.77,0.666,1.211,1.049l2.187,1.895c0.436,0.377,0.832,0.721,1.189,1.029c0.356,0.31,0.729,0.632,1.115,0.966L30.416,49.44z"/>
		<path fill="#020203" d="M39.952,39.74c-0.601,0.537-1.208,0.91-1.823,1.117c-0.614,0.207-1.216,0.274-1.806,0.204
			c-0.59-0.071-1.15-0.256-1.68-0.556c-0.53-0.299-1.009-0.688-1.437-1.166c-0.599-0.668-1.005-1.393-1.22-2.175
			c-0.214-0.782-0.203-1.565,0.033-2.351c0.237-0.785,0.734-1.517,1.493-2.196c0.574-0.515,1.163-0.876,1.766-1.083
			c0.602-0.208,1.197-0.28,1.786-0.217c0.589,0.062,1.151,0.244,1.687,0.544s1.026,0.698,1.472,1.195
			c0.61,0.681,1.021,1.413,1.232,2.194c0.212,0.782,0.198,1.561-0.041,2.336C41.176,38.364,40.688,39.081,39.952,39.74z
			 M39.069,38.802c0.396-0.355,0.677-0.734,0.841-1.137c0.163-0.401,0.229-0.811,0.201-1.227c-0.029-0.416-0.139-0.822-0.327-1.218
			s-0.436-0.764-0.742-1.106c-0.329-0.368-0.686-0.665-1.069-0.892c-0.383-0.228-0.779-0.372-1.188-0.437
			c-0.409-0.063-0.817-0.034-1.225,0.089s-0.8,0.354-1.178,0.692c-0.391,0.35-0.669,0.724-0.835,1.123
			c-0.167,0.399-0.237,0.809-0.213,1.229c0.024,0.421,0.128,0.831,0.312,1.23s0.433,0.775,0.748,1.128
			c0.312,0.349,0.655,0.638,1.029,0.866c0.374,0.229,0.767,0.38,1.177,0.452c0.41,0.071,0.825,0.046,1.244-0.076
			C38.264,39.397,38.672,39.158,39.069,38.802z"/>
		<path fill="#020203" d="M51.387,30.607c-0.279-0.423-0.551-0.832-0.812-1.228c-0.262-0.396-0.552-0.834-0.87-1.314l-1.464-2.212
			c-0.322-0.487-0.617-0.933-0.884-1.336c-0.268-0.402-0.542-0.817-0.824-1.244l1.014,0.601l-3.849,2.547l0.1-1.227
			c0.287,0.496,0.575,0.996,0.865,1.501c0.29,0.504,0.579,1.006,0.868,1.506c0.363,0.628,0.65,1.188,0.861,1.683
			c0.21,0.495,0.354,0.956,0.429,1.385c0.075,0.428,0.09,0.857,0.043,1.289l-1.312,0.681c0.06-0.351,0.062-0.737,0.009-1.159
			c-0.054-0.422-0.188-0.909-0.402-1.461s-0.532-1.192-0.952-1.922c-0.305-0.531-0.604-1.051-0.896-1.559
			c-0.293-0.508-0.573-0.993-0.842-1.454l5.208-3.448c0.285,0.431,0.561,0.846,0.825,1.247c0.266,0.4,0.562,0.847,0.887,1.339
			l1.59,2.4c0.317,0.48,0.607,0.919,0.87,1.314c0.262,0.396,0.532,0.805,0.812,1.228L51.387,30.607z M46.699,36.383
			c-0.146-0.22-0.293-0.442-0.441-0.666c-0.148-0.225-0.297-0.448-0.444-0.672c-0.153-0.231-0.308-0.465-0.463-0.699
			c-0.156-0.235-0.311-0.468-0.463-0.699c0.473-0.313,0.95-0.629,1.431-0.947s0.948-0.628,1.403-0.93l2.521-1.668
			c0.459-0.304,0.929-0.615,1.409-0.934c0.48-0.317,0.956-0.632,1.426-0.943c0.153,0.231,0.308,0.465,0.463,0.699
			c0.155,0.235,0.31,0.468,0.463,0.699c0.148,0.224,0.296,0.448,0.444,0.672c0.148,0.225,0.296,0.446,0.441,0.667l-1.078,0.714
			l-1.307-1.809l0.398,0.024l-6.412,4.245l0.133-0.377l1.154,1.909L46.699,36.383z"/>
		<path fill="#020203" d="M56.393,27.88c-0.058-0.524-0.119-1.076-0.185-1.654c-0.064-0.579-0.123-1.13-0.176-1.652l-0.374-3.351
			c-0.062-0.604-0.121-1.148-0.175-1.634c-0.055-0.485-0.108-0.975-0.161-1.469l1.789-0.854c0.36,0.361,0.71,0.716,1.051,1.062
			c0.341,0.347,0.723,0.733,1.147,1.159l2.366,2.408c0.38,0.385,0.771,0.78,1.174,1.186s0.787,0.795,1.152,1.168l-1.432,0.684
			c-0.379-0.4-0.767-0.812-1.165-1.234s-0.776-0.821-1.134-1.198l-3.428-3.622l-0.117,0.057l0.622,4.91
			c0.067,0.534,0.14,1.093,0.216,1.676s0.149,1.148,0.219,1.696L56.393,27.88z M57.171,25.089l-0.374-1.118l4.059-1.937l0.61,1.006
			L57.171,25.089z"/>
	</g>
</g>
<circle fill="none" stroke="#17A747" stroke-width="2" stroke-miterlimit="10" cx="97.475" cy="102.929" r="74.803"/>
<path fill="#A2CF9A" d="M82.917,11.504L80.9,3.433L75.179,0l-3.433,5.72l2.017,8.071l5.196,3.118l1.005,4.021l-4.157,1.039
	l0.21,0.84l9.153-2.288l-0.21-0.84l-4.157,1.039l-1.005-4.021L82.917,11.504z M81.99,11.366l-2.488,4.146l-0.347-1.387l2.488-4.146
	L81.99,11.366z M81.347,8.791l-2.488,4.146l-0.347-1.387L81,7.404L81.347,8.791z M80.704,6.217l-2.488,4.146l-0.347-1.387
	l2.488-4.146L80.704,6.217z M78.662,15.722l-4.146-2.488l-0.347-1.387l4.146,2.488L78.662,15.722z M78.019,13.147l-4.146-2.488
	l-0.347-1.387l4.146,2.488L78.019,13.147z M77.376,10.573L73.23,8.085l-0.347-1.387l4.146,2.488L77.376,10.573z M77.257,8.314
	l-4.454-2.673l2.673-4.453L79.93,3.86L77.257,8.314z"/>
<path fill="#A2CF9A" d="M177.602,145.674l7.35,3.896l6.377-1.959l-1.959-6.377l-7.35-3.896l-5.792,1.779l-3.662-1.941l2.007-3.786
	l-0.765-0.405l-4.419,8.336l0.765,0.405l2.007-3.786l3.662,1.941L177.602,145.674z M178.324,145.077l-1.42-4.622l1.263,0.67
	l1.42,4.622L178.324,145.077z M180.668,146.319l-1.42-4.622l1.263,0.67l1.42,4.622L180.668,146.319z M183.013,147.562l-1.42-4.622
	l1.263,0.67l1.42,4.622L183.013,147.562z M177.31,139.69l4.622-1.42l1.263,0.67l-4.622,1.42L177.31,139.69z M179.654,140.932
	l4.622-1.42l1.263,0.67l-4.622,1.42L179.654,140.932z M181.999,142.175l4.622-1.42l1.263,0.67l-4.622,1.42L181.999,142.175z
	 M183.758,143.598l4.965-1.525l1.525,4.965l-4.965,1.525L183.758,143.598z"/>
<g>
	<g>
		<polygon fill="#020203" points="73.299,88.821 73.299,85.451 60.635,85.451 60.635,99.567 64.429,99.567 64.429,88.821 		"/>
		<g>
			<path fill="#020203" d="M82.293,88.59c1.391-0.127,3.012-0.19,3.898-0.19c2.845,0,2.845,0.863,2.845,2.106
				c0,1.222,0,2.107-2.993,2.107c-1.305,0-2.444-0.021-3.75-0.19V88.59z M82.293,95.775c1.369,0.211,2.823,0.211,4.34,0.211h0.59
				c4.382,0,5.605-2.276,5.605-5.057v-0.843c0-2.781-1.307-5.057-6.027-5.057h-0.59c-2.549,0-5.31,0.147-7.712,0.421v14.117h3.793
				L82.293,95.775L82.293,95.775z"/>
		</g>
		<polygon fill="#020203" points="98.295,85.45 98.295,99.567 102.088,99.567 109.483,90.507 109.483,99.567 113.277,99.567 
			113.277,85.45 109.483,85.45 102.088,94.51 102.088,85.45 		"/>
		<polygon fill="#020203" points="119.354,85.45 119.354,99.567 123.147,99.567 123.147,94.299 130.521,94.299 130.521,99.567 
			134.314,99.567 134.314,85.45 130.521,85.45 130.521,90.929 123.147,90.929 123.147,85.45 		"/>
		<polygon fill="#020203" points="60.635,120.633 64.429,120.633 64.429,109.887 71.382,109.887 71.382,120.633 75.174,120.633 
			75.174,106.516 60.635,106.516 		"/>
		<path fill="#020203" d="M85.402,114.733l2.149-4.825l2.149,4.825H85.402z M96.125,120.633l-6.677-14.117h-3.793l-6.677,14.117
			h3.812l1.201-2.739h7.101l1.222,2.739H96.125z"/>
		<g>
			<path fill="#020203" d="M107.697,113.68c-1.306,0-2.444-0.021-3.75-0.19v-3.835c1.391-0.127,3.012-0.19,3.897-0.19
				c2.845,0,2.845,0.864,2.845,2.106C110.689,112.795,110.689,113.68,107.697,113.68 M114.482,111.151
				c0-2.781-1.307-5.057-6.027-5.057h-0.59c-2.549,0-5.31,0.147-7.712,0.421v14.117h3.794v-3.793
				c1.369,0.211,2.823,0.211,4.34,0.211h0.59c4.383,0,5.605-2.276,5.605-5.057V111.151z"/>
		</g>
		<polygon fill="#020203" points="125.532,111.994 123.147,111.994 123.147,106.516 119.354,106.516 119.354,120.633 
			123.147,120.633 123.147,115.365 125.7,115.365 129.899,120.633 134.314,120.633 128.629,113.574 134.314,106.516 
			129.899,106.516 		"/>
	</g>
</g>
</svg>
