<?xml version="1.0" encoding="utf-8"?>
<!-- Generator: Adobe Illustrator 24.3.0, SVG Export Plug-In . SVG Version: 6.00 Build 0)  -->
<svg version="1.1" id="Layer_3" xmlns="http://www.w3.org/2000/svg" xmlns:xlink="http://www.w3.org/1999/xlink" x="0px" y="0px"
	 width="512px" height="512px" viewBox="0 0 512 512" enable-background="new 0 0 512 512" xml:space="preserve">
<g style="fill: none; stroke:#0f6350; stroke-width: 10px">
	<path  d="M274.552,259.2c19.572-10.246,27.132-34.418,16.886-53.99c-10.246-19.572-34.418-27.132-53.99-16.886
		s-27.132,34.418-16.886,53.99c3.778,7.217,9.669,13.108,16.886,16.886c-22.41,7.886-37.415,29.043-37.448,52.8c0,4.418,3.582,8,8,8
		h96c4.418,0,8-3.582,8-8C311.967,288.243,296.962,267.086,274.552,259.2z M256,200c13.255,0,24,10.745,24,24s-10.745,24-24,24
		c-13.255,0-24-10.745-24-24S242.745,200,256,200z M216.8,304c4.396-21.65,25.51-35.636,47.16-31.24
		c15.741,3.196,28.044,15.499,31.24,31.24H216.8z"/>
	<path  d="M424,344c-18.45-0.014-36.333,6.379-50.592,18.088l-38.512-38.512c15.22-17.722,23.994-40.073,24.896-63.416
		l81.696-3.024c5.173,16.77,22.961,26.17,39.731,20.997s26.17-22.961,20.997-39.731s-22.961-26.17-39.731-20.997
		c-11.001,3.394-19.306,12.472-21.709,23.731l-81.504,3.016c-3.534-30.669-20.51-58.182-46.336-75.096l15.288-27.792
		c25.062,8.748,52.471-4.478,61.218-29.54s-4.478-52.471-29.54-61.218c-25.062-8.748-52.471,4.478-61.218,29.54
		c-6.744,19.322-0.514,40.795,15.524,53.506l-15.296,27.808c-36.735-16.822-79.906-10.677-110.488,15.728l-38.512-38.512
		c28.012-34.259,22.947-84.74-11.312-112.752S53.86,2.877,25.848,37.136S2.901,121.876,37.16,149.888
		c29.509,24.128,71.931,24.128,101.44,0l38.512,38.512c-20.648,23.838-29.22,55.831-23.256,86.8l-70.264,18.912
		c-10.041-19.484-33.976-27.139-53.46-17.098c-19.484,10.041-27.139,33.976-17.098,53.46s33.976,27.139,53.46,17.098
		C79.795,340.717,88.11,326.963,88,312c0-0.8-0.192-1.6-0.248-2.4l70.312-18.928c8.094,22.726,23.809,41.949,44.472,54.4
		L185.6,378.88c-29.39-9.843-61.194,6.003-71.037,35.393s6.003,61.194,35.393,71.037c29.39,9.843,61.194-6.003,71.037-35.393
		c7.904-23.601-0.681-49.589-21.089-63.837l16.896-33.808c36.026,14.77,77.295,8.051,106.776-17.384l38.512,38.512
		c-27.924,34.212-22.826,84.582,11.386,112.506c34.212,27.923,84.582,22.826,112.506-11.386s22.826-84.582-11.386-112.506
		C460.31,350.356,442.437,343.992,424,344z M472,232c8.837,0,16,7.163,16,16c0,8.837-7.163,16-16,16s-16-7.163-16-16
		C456,239.163,463.163,232,472,232z M344,64c17.673,0,32,14.327,32,32s-14.327,32-32,32s-32-14.327-32-32S326.327,64,344,64z M48,336
		c-13.255,0-24-10.745-24-24s10.745-24,24-24s24,10.745,24,24S61.255,336,48,336z M208,432c0,22.091-17.909,40-40,40
		s-40-17.909-40-40s17.909-40,40-40C190.08,392.026,207.974,409.92,208,432z M24,88c-0.084-35.346,28.501-64.068,63.847-64.153
		c35.346-0.084,64.068,28.501,64.153,63.847c0.038,15.943-5.876,31.326-16.584,43.138c0.369-0.899,0.567-1.86,0.584-2.832
		c0.041-12.737-5.018-24.961-14.048-33.944c-3.188-3.188-6.807-5.913-10.752-8.096c12.198-12.789,11.719-33.044-1.07-45.242
		s-33.044-11.719-45.242,1.07c-11.792,12.363-11.792,31.809,0,44.172C49.548,94.388,40.011,110.497,40,128
		c0.016,0.962,0.206,1.913,0.56,2.808C29.911,119.093,24.008,103.832,24,88z M88,80c-8.837,0-16-7.163-16-16s7.163-16,16-16
		s16,7.163,16,16S96.837,80,88,80z M88,96c14.592,0,27.336,9.871,30.984,24H57.008C60.674,105.88,73.412,96.016,88,96z M45.2,135.44
		c0.892,0.355,1.84,0.545,2.8,0.56h80c0.974-0.013,1.937-0.209,2.84-0.576c-24.264,22.075-61.336,22.075-85.6,0L45.2,135.44z
		 M168,256c0-48.601,39.399-88,88-88s88,39.399,88,88s-39.399,88-88,88C207.423,343.943,168.057,304.577,168,256z M381.2,471.44
		c0.892,0.355,1.84,0.545,2.8,0.56h80c0.974-0.013,1.937-0.209,2.84-0.576c-24.264,22.075-61.336,22.075-85.6,0L381.2,471.44z
		 M424,416c-8.837,0-16-7.163-16-16s7.163-16,16-16s16,7.163,16,16S432.837,416,424,416z M424,432c14.592,0,27.336,9.871,30.984,24
		h-61.976C396.674,441.88,409.412,432.016,424,432z M471.408,466.832c0.372-0.899,0.573-1.859,0.592-2.832
		c0.041-12.737-5.018-24.961-14.048-33.944c-3.188-3.188-6.807-5.913-10.752-8.096c12.198-12.789,11.719-33.044-1.07-45.242
		c-12.789-12.198-33.044-11.719-45.242,1.07c-11.792,12.363-11.792,31.809,0,44.172c-15.34,8.428-24.877,24.537-24.888,42.04
		c0.016,0.962,0.206,1.913,0.56,2.808c-23.733-26.194-21.738-66.667,4.456-90.4s66.667-21.738,90.4,4.456
		c22.096,24.387,22.096,61.556,0,85.944L471.408,466.832z"/>
</g>
</svg>
