<?xml version="1.0" encoding="utf-8"?>
<!-- Generator: Adobe Illustrator 24.3.0, SVG Export Plug-In . SVG Version: 6.00 Build 0)  -->
<svg version="1.1" id="Layer_1" xmlns="http://www.w3.org/2000/svg" xmlns:xlink="http://www.w3.org/1999/xlink" x="0px" y="0px"
	 width="511px" height="511px" viewBox="0 0 511 511" enable-background="new 0 0 511 511" xml:space="preserve">
<g style="fill: none; stroke:#0f6350; stroke-width: 10px">
	<path  d="M475.125,22.756h-58.261c-4.136,0-7.485,3.349-7.485,7.485c0,4.133,3.349,7.485,7.485,7.485h58.261
		c1.376,0,2.495,1.119,2.495,2.495v293.286c0,4.133,3.353,7.485,7.485,7.485c4.136,0,7.485-3.353,7.485-7.485V40.222
		C492.591,30.589,484.759,22.756,475.125,22.756z"/>
	<path  d="M485.106,358.619c-4.133,0-7.485,3.349-7.485,7.485v100.97c0,15.415-12.538,27.957-27.953,27.957
		s-27.953-12.542-27.953-27.957V300.576c0-23.669-19.259-42.924-42.928-42.924s-42.924,19.255-42.924,42.924v50.631
		c0,15.415-12.542,27.953-27.953,27.953c-15.415,0-27.957-12.538-27.957-27.953v-37.364l38.101-38.105
		c5.201-5.197,6.951-12.538,5.306-19.201l91.828-91.828c7.895-7.895,7.895-20.745,0-28.639l-98.347-98.343h67.423
		c4.136,0,7.485-3.353,7.485-7.485c0-4.136-3.349-7.485-7.485-7.485H301.87L284.042,4.924c-7.899-7.895-20.745-7.895-28.639,0
		l-91.82,91.816c-1.583-0.39-3.216-0.616-4.893-0.616c-5.407,0-10.495,2.105-14.32,5.93l-39.715,39.719
		c-7.895,7.895-7.895,20.741,0,28.635l52.67,52.674c-23.127,22.589-50.265,43.127-80.748,61.072
		c-8.865,5.22-17.318,11.825-25.127,19.63c-14.082,14.086-24.351,30.464-28.912,46.121c-5.01,17.209-2.667,31.793,6.604,41.064
		c6.183,6.183,14.671,9.209,24.472,9.209c14.347-0.004,31.501-6.491,48.316-19.041c3.31-2.476,3.992-7.166,1.52-10.476
		c-2.476-3.314-7.166-3.996-10.476-1.52c-21.4,15.969-43.789,20.698-53.247,11.244c-5.154-5.158-6.179-14.737-2.815-26.292
		c3.867-13.279,12.791-27.384,25.127-39.719c6.912-6.912,14.359-12.741,22.132-17.314c31.579-18.593,59.723-39.91,83.739-63.388
		l18.53,18.526c-23.481,24.019-44.795,52.164-63.388,83.742c-2.324,3.945-5.057,7.918-8.129,11.805
		c-2.561,3.244-2.008,7.953,1.236,10.515c1.372,1.084,3.01,1.61,4.635,1.61c2.211,0,4.402-0.975,5.879-2.846
		c3.493-4.421,6.616-8.959,9.279-13.489c17.949-30.487,38.487-57.626,61.076-80.752l52.67,52.67c3.825,3.828,8.908,5.934,14.32,5.934
		c0.324,0,0.643-0.031,0.963-0.047v29.867c0,23.669,19.259,42.924,42.928,42.924s42.924-19.255,42.924-42.924v-50.631
		c0-15.411,12.542-27.953,27.957-27.953c15.411,0,27.953,12.538,27.953,27.953v166.499c0,23.672,19.255,42.928,42.924,42.928
		c23.672,0,42.928-19.255,42.928-42.928v-100.97C492.591,361.968,489.242,358.619,485.106,358.619z M265.987,15.509
		c2.058-2.058,5.407-2.058,7.466,0l131.146,131.15c2.058,2.055,2.058,5.407,0,7.462l-89.762,89.762l-35.014-35.014l15.166-15.166
		c2.924-2.928,2.924-7.665,0-10.589c-2.924-2.92-7.665-2.92-10.585,0l-15.17,15.166l-53.014-53.013l15.17-15.166
		c2.924-2.92,2.924-7.661,0-10.585c-2.924-2.92-7.665-2.924-10.585,0l-15.17,15.166l-8.066-8.066l59.696-59.696
		c2.924-2.928,2.924-7.665,0-10.589c-2.924-2.924-7.665-2.924-10.585,0l-59.7,59.696l-10.756-10.756L265.987,15.509z
		 M260.288,304.869L115.239,159.824c-2.058-2.058-2.058-5.407,0-7.466l39.719-39.715c0.998-0.998,2.324-1.548,3.731-1.548
		c1.411,0,2.737,0.55,3.735,1.548l145.044,145.044c2.058,2.058,2.058,5.407,0,7.466l-39.715,39.715
		c-0.998,0.998-2.324,1.548-3.735,1.548S261.286,305.867,260.288,304.869z"/>
	<path  d="M167.446,173.481c-2.924-2.924-7.665-2.924-10.589,0s-2.924,7.661,0,10.585l79.189,79.189
		c1.462,1.458,3.376,2.191,5.294,2.191c1.914,0,3.828-0.733,5.29-2.191c2.924-2.928,2.924-7.665,0-10.589L167.446,173.481z"/>
	<path  d="M442.653,180.923h-0.078c-4.136,0-7.446,3.349-7.446,7.485c0,4.136,3.388,7.485,7.524,7.485
		s7.485-3.349,7.485-7.485C450.139,184.272,446.79,180.923,442.653,180.923z"/>
	<path  d="M448.821,201.383c-4.136,0.055-7.403,3.446-7.353,7.579c0.051,4.101,3.431,7.392,7.52,7.392h0.097
		c4.133-0.055,7.442-3.446,7.392-7.579c-0.051-4.101-3.392-7.392-7.485-7.392c-0.031,0-0.062,0-0.094,0H448.821z"/>
	<path  d="M402.361,224.444c-4.136,0-7.446,3.349-7.446,7.485c0,4.133,3.388,7.485,7.524,7.485
		s7.485-3.353,7.485-7.485c0-4.136-3.349-7.485-7.485-7.485H402.361z"/>
</g>
</svg>
