<?xml version="1.0" encoding="utf-8"?>
<!-- Generator: Adobe Illustrator 24.3.0, SVG Export Plug-In . SVG Version: 6.00 Build 0)  -->
<svg version="1.1" id="Layer_1" xmlns="http://www.w3.org/2000/svg" xmlns:xlink="http://www.w3.org/1999/xlink" x="0px" y="0px"
	 width="512px" height="512px" viewBox="0 0 512 512" enable-background="new 0 0 512 512" xml:space="preserve">
<g style="fill: none; stroke:#0f6350; stroke-width: 10px">
	<path  d="M138.258,268.672c0,13.516,11.004,24.512,24.527,24.512c13.527,0,24.531-10.996,24.531-24.512
		c0-13.52-11.004-24.516-24.531-24.516C149.262,244.156,138.258,255.152,138.258,268.672z M172.316,268.672
		c0,5.246-4.273,9.512-9.531,9.512c-5.254,0-9.527-4.266-9.527-9.512s4.273-9.516,9.527-9.516
		C168.043,259.156,172.316,263.426,172.316,268.672z"/>
	<path  d="M349.215,293.184c13.523,0,24.527-10.996,24.527-24.512c0-13.52-11.004-24.516-24.527-24.516
		c-13.527,0-24.531,10.996-24.531,24.516C324.684,282.188,335.688,293.184,349.215,293.184z M349.215,259.156
		c5.254,0,9.527,4.27,9.527,9.516s-4.273,9.512-9.527,9.512c-5.258,0-9.531-4.266-9.531-9.512S343.957,259.156,349.215,259.156z"/>
	<path  d="M299.688,316.742c-0.008-0.008-0.016-0.012-0.023-0.02L99.645,116.879c-1.492-1.488-3.539-2.277-5.652-2.188
		c-2.105,0.102-4.074,1.082-5.422,2.707c-32.148,38.793-49.855,87.938-49.855,138.383c0,54.832,20.512,107.184,57.762,147.406
		c37.039,39.996,87.258,64.48,141.406,68.949c0.211,0.02,0.418,0.023,0.625,0.023c3.863,0,7.145-2.965,7.469-6.883
		c0.34-4.129-2.73-7.75-6.859-8.09c-50.402-4.16-97.152-26.957-131.637-64.191c-34.672-37.441-53.766-86.172-53.766-137.215
		c0-44.199,14.602-87.328,41.273-122.352l56.477,56.426c-0.016,0.555-0.035,1.109-0.035,1.664v14.242
		c-23.859,9.863-40.695,33.363-40.695,60.723v76.488c0,18.188,14.809,32.984,33.008,32.984s33.004-14.797,33.004-32.984v-13.438
		h36.309c4.145,0,7.5-3.355,7.5-7.5c0-4.141-3.355-7.5-7.5-7.5h-87.316v-48.051c0-27.949,22.762-50.688,50.742-50.688h0.949
		l98.828,98.738h-28.199c-4.141,0-7.5,3.359-7.5,7.5c0,4.145,3.359,7.5,7.5,7.5h43.211l87.191,87.117
		c-30.688,23.379-67.016,37.352-105.578,40.535c-4.129,0.34-7.199,3.961-6.855,8.09c0.34,4.129,3.965,7.203,8.09,6.859
		c44.379-3.664,86.008-20.629,120.379-49.066c1.625-1.348,2.609-3.316,2.711-5.43c0.098-2.109-0.699-4.164-2.191-5.656
		L299.688,316.742z M161.746,329.535v13.438c0,9.918-8.078,17.984-18.004,17.984c-9.93,0-18.008-8.066-18.008-17.984v-13.438H161.746
		z"/>
	<path  d="M409.645,102.262C368.602,61.262,314.039,38.68,256,38.68c-50.734,0-100.113,17.852-139.039,50.27
		c-1.621,1.352-2.598,3.316-2.691,5.426c-0.098,2.105,0.699,4.152,2.191,5.645l54.66,54.613c0.137,0.176,0.281,0.352,0.434,0.516
		c0.281,0.305,0.586,0.57,0.898,0.816l57.68,57.629c0.004,0.004,0.012,0.008,0.016,0.012L411.91,395.207
		c1.406,1.406,3.316,2.195,5.301,2.195c0.109,0,0.227-0.004,0.34-0.008c2.102-0.098,4.07-1.07,5.418-2.691
		c32.449-38.891,50.32-88.227,50.32-138.922C473.285,197.789,450.684,143.27,409.645,102.262z M316.449,200.797h-77.902
		l-31.676-31.648c3.719-2.289,8.035-3.547,12.492-3.547h73.273c13.129,0,23.812,10.672,23.812,23.785V200.797z M386.266,342.973
		c0,1.625-0.227,3.223-0.648,4.762l-18.215-18.199h18.863V342.973z M416.586,378.676l-19.559-19.543
		c2.758-4.898,4.238-10.449,4.238-16.16v-76.488c0-27.043-16.137-50.805-40.695-60.773v-14.195c0-35.301-28.742-64.02-64.066-64.02
		H273.5c-4.145,0-7.5,3.359-7.5,7.5c0,4.145,3.355,7.5,7.5,7.5h23.004c27.055,0,49.066,21.992,49.066,49.02v19.43
		c-0.016,3.262,2.176,6.25,5.301,7.207c21.172,6.594,35.395,26.012,35.395,48.332v48.051h-33.875l-98.828-98.742h70.387
		c3.719,0,7.5-3.723,7.5-7.52v-18.891c0-21.387-17.41-38.781-38.812-38.781h-73.273c-8.465,0-16.621,2.77-23.285,7.762l-7.695-7.691
		c7.988-5.305,17.375-8.176,27.117-8.176h22.996c4.141,0,7.5-3.355,7.5-7.5c0-4.141-3.359-7.5-7.5-7.5H215.5
		c-13.746,0-26.949,4.375-37.891,12.41l-44.613-44.57C168.16,68.414,211.52,53.68,256,53.68c111.539,0,202.285,90.66,202.285,202.102
		C458.285,300.223,443.531,343.547,416.586,378.676z"/>
	<path  d="M437.016,74.914C388.664,26.605,324.379,0,256,0S123.336,26.605,74.98,74.914
		C26.629,123.223,0,187.457,0,255.781c0,68.32,26.629,132.555,74.98,180.863c48.355,48.309,112.641,74.914,181.02,74.914
		s132.664-26.605,181.016-74.914C485.371,388.336,512,324.102,512,255.781C512,187.457,485.371,123.223,437.016,74.914z
		 M426.414,426.035c-45.52,45.48-106.039,70.523-170.414,70.523s-124.895-25.043-170.414-70.523
		C40.066,380.559,15,320.094,15,255.781S40.066,131.004,85.586,85.523C131.105,40.047,191.625,15,256,15
		s124.895,25.047,170.414,70.523C471.934,131.004,497,191.469,497,255.781S471.934,380.559,426.414,426.035z"/>
</g>
</svg>
