<?xml version="1.0" encoding="utf-8"?>
<!-- Generator: Adobe Illustrator 24.3.0, SVG Export Plug-In . SVG Version: 6.00 Build 0)  -->
<svg version="1.1" id="Layer_1" xmlns="http://www.w3.org/2000/svg" xmlns:xlink="http://www.w3.org/1999/xlink" x="0px" y="0px"
	 width="512px" height="512px" viewBox="0 0 512 512" enable-background="new 0 0 512 512" xml:space="preserve">
<g style="fill: none; stroke:#0f6350; stroke-width: 10px">
	<path id="Shape"  d="M25.6,494.933H8.533c-4.713,0-8.533,3.821-8.533,8.533C0,508.18,3.821,512,8.533,512H25.6
		c4.713,0,8.533-3.82,8.533-8.533C34.133,498.754,30.313,494.933,25.6,494.933z"/>
	<path id="Shape_1_"  d="M477.184,43.435c-4.079-24.727-25.456-42.867-50.517-42.867s-46.439,18.14-50.517,42.867
		c-21.562,4.146-36.457,23.98-34.428,45.843c2.03,21.863,20.321,38.616,42.278,38.722h51.2c4.713,0,8.533-3.821,8.533-8.533
		c0-4.713-3.821-8.533-8.533-8.533H384c-12.487-0.23-22.986-9.437-24.844-21.788s5.468-24.239,17.335-28.132
		c1.438,7.58,4.59,14.732,9.216,20.907c1.612,2.149,4.141,3.413,6.827,3.413c3.232,0,6.187-1.826,7.632-4.717
		c1.445-2.891,1.134-6.35-0.806-8.936c-8.401-11.143-9.173-26.278-1.948-38.218c7.224-11.94,20.989-18.279,34.758-16.008
		c13.769,2.271,24.769,12.695,27.777,26.323c-8.749,1.952-16.661,6.609-22.613,13.312c-2.582,3.573-2.017,8.525,1.304,11.425
		c3.32,2.9,8.303,2.793,11.496-0.246c7.833-8.757,20.62-11.058,31.015-5.581s15.726,17.326,12.932,28.737
		s-12.998,19.456-24.746,19.511c-4.713,0-8.533,3.821-8.533,8.533c0,4.713,3.821,8.533,8.533,8.533
		c21.957-0.106,40.249-16.859,42.278-38.722C513.641,67.415,498.746,47.581,477.184,43.435L477.184,43.435z"/>
	<path id="Shape_2_"  d="M102.4,153.6c0-4.713-3.821-8.533-8.533-8.533h-51.2
		c-12.487-0.23-22.986-9.437-24.844-21.788S23.29,99.04,35.157,95.147c1.438,7.58,4.59,14.732,9.216,20.907
		c1.612,2.149,4.141,3.413,6.827,3.413c3.232,0,6.187-1.826,7.632-4.717c1.445-2.891,1.134-6.35-0.806-8.936
		c-8.401-11.143-9.173-26.278-1.948-38.218s20.989-18.279,34.758-16.008c13.769,2.271,24.769,12.695,27.777,26.323
		c-8.749,1.952-16.661,6.609-22.613,13.312c-2.582,3.573-2.017,8.525,1.304,11.425c3.32,2.9,8.303,2.793,11.496-0.246
		c7.833-8.757,20.62-11.058,31.015-5.581c10.394,5.477,15.726,17.326,12.932,28.737c-2.794,11.412-12.998,19.456-24.746,19.511
		c-4.713,0-8.533,3.82-8.533,8.533s3.821,8.533,8.533,8.533c21.957-0.106,40.249-16.859,42.278-38.722
		c2.03-21.863-12.865-41.697-34.428-45.843c-4.079-24.727-25.456-42.867-50.517-42.867s-46.439,18.14-50.517,42.867
		c-21.562,4.146-36.457,23.98-34.428,45.843s20.321,38.616,42.278,38.722h51.2C98.58,162.133,102.4,158.313,102.4,153.6z"/>
	<path id="Shape_3_"  d="M418.133,384v-42.667c0-4.713-3.821-8.533-8.533-8.533c-4.713,0-8.533,3.82-8.533,8.533V384
		h-34.133c-4.713,0-8.533,3.82-8.533,8.533s3.82,8.533,8.533,8.533h34.133C410.492,401.067,418.133,393.426,418.133,384z"/>
	<path id="Shape_4_"  d="M469.333,256h-17.067v-25.6c0-28.277-22.923-51.2-51.2-51.2h-51.2
		c-28.277,0-51.2,22.923-51.2,51.2V384c0,28.277,22.923,51.2,51.2,51.2h17.067v59.733H253.781c1.715-5.297,1.715-11.001,0-16.299
		l-19.968-54.187c-4.864-13.141-9.984-16.384-37.547-43.093v-25.6c6.4,4.096,6.912,3.669,53.589,18.773
		c13.073,2.226,25.683-5.9,29.055-18.726c3.373-12.826-3.607-26.104-16.085-30.597c-45.312-14.507-34.56-8.533-59.307-31.915
		c-7.971-7.551-18.546-11.738-29.525-11.691h-35.328c-8.691-0.004-17.176,2.645-24.32,7.595c-24.917,17.067-32.853,21.333-39.168,32
		c-18.859,31.488-21.077,34.133-21.419,34.731c-4.781,12.336,0.626,26.283,12.473,32.173s26.23,1.783,33.18-9.474
		c18.005-28.501,17.067-27.733,20.053-30.464v67.072c0,11.435-3.072,13.739-28.587,58.453c-3.631,6.498-4.254,14.254-1.707,21.248
		h-29.44c-4.713,0-8.533,3.821-8.533,8.533S55.021,512,59.733,512h443.733c4.713,0,8.533-3.82,8.533-8.533s-3.82-8.533-8.533-8.533
		H460.8V460.8h8.533c23.564,0,42.667-19.103,42.667-42.667V298.667C512,275.103,492.898,256,469.333,256L469.333,256z M315.733,384
		V230.4c0-18.851,15.282-34.133,34.133-34.133h51.2c18.851,0,34.133,15.282,34.133,34.133V384c0,18.851-15.282,34.133-34.133,34.133
		h-51.2C331.015,418.133,315.733,402.851,315.733,384z M113.067,331.349c-9.045,6.229-10.837,10.496-28.331,38.485v0.853
		c-2.301,3.543-6.849,4.869-10.694,3.118c-3.845-1.752-5.829-6.053-4.666-10.115c20.139-32.597,22.101-37.632,28.416-41.984
		l26.709-18.517c4.184-2.849,9.105-4.42,14.165-4.523h35.328c21.077,0,26.453,24.32,49.835,32.171l34.133,10.923
		c4.198,1.295,6.726,5.565,5.843,9.869c-0.883,4.303-4.888,7.233-9.257,6.771c-46.677-15.104-47.531-14.507-53.163-19.968
		c-5.632-5.461-5.12-4.608-5.12-5.632c0-4.713-3.821-8.533-8.533-8.533c-4.713,0-8.533,3.82-8.533,8.533v42.667h-42.667v-38.912
		c3.363-1.604,6.879-2.862,10.496-3.755c4.713-1.084,7.655-5.783,6.571-10.496s-5.783-7.655-10.496-6.571
		C132.133,318.839,121.911,324.153,113.067,331.349L113.067,331.349z M105.728,482.133c34.133-59.733,30.805-46.933,30.805-89.6
		h46.763c26.965,26.197,31.147,28.757,34.56,37.888l20.053,53.589c1.155,4.571-1.615,9.213-6.187,10.368
		c-4.571,1.155-9.213-1.615-10.368-6.187c-23.125-61.525-16.555-49.835-37.632-74.923c-4.63-5.499-12.209-7.508-18.954-5.024
		c-6.746,2.484-11.211,8.929-11.168,16.117c-0.01,5.627-1.48,11.154-4.267,16.043l-28.757,50.091
		c-2.356,4.1-7.59,5.514-11.691,3.157c-4.1-2.356-5.514-7.591-3.157-11.691L105.728,482.133z M164.181,448.853
		c4.207-7.48,6.439-15.909,6.485-24.491c19.2,22.613,12.544,10.411,34.133,69.205l0.512,1.365h-68.267L164.181,448.853z
		 M443.733,494.933H384V435.2h12.203c6.77,15.513,22.071,25.557,38.997,25.6h8.533V494.933z M494.933,418.133
		c0,14.138-11.462,25.6-25.6,25.6H435.2c-8.088-0.04-15.681-3.9-20.48-10.411c22.177-6.136,37.536-26.313,37.547-49.323V273.067
		h17.067c14.138,0,25.6,11.462,25.6,25.6V418.133z"/>
	<path id="Shape_5_"  d="M162.133,196.267c-18.851,0-34.133,15.282-34.133,34.133s15.282,34.133,34.133,34.133
		s34.133-15.282,34.133-34.133S180.985,196.267,162.133,196.267z M162.133,247.467c-9.426,0-17.067-7.641-17.067-17.067
		c0-9.426,7.641-17.067,17.067-17.067c9.426,0,17.067,7.641,17.067,17.067C179.2,239.826,171.559,247.467,162.133,247.467z"/>
	<path id="Shape_6_"  d="M230.4,85.333c23.564,0,42.667-19.103,42.667-42.667S253.964,0,230.4,0
		s-42.667,19.103-42.667,42.667S206.836,85.333,230.4,85.333z M230.4,17.067c14.139,0,25.6,11.462,25.6,25.6s-11.461,25.6-25.6,25.6
		c-14.138,0-25.6-11.462-25.6-25.6S216.262,17.067,230.4,17.067z"/>
	<path id="Shape_7_"  d="M409.6,315.733c4.713,0,8.533-3.82,8.533-8.533v-17.067c0-4.713-3.821-8.533-8.533-8.533
		c-4.713,0-8.533,3.821-8.533,8.533V307.2C401.067,311.913,404.887,315.733,409.6,315.733z"/>
</g>
</svg>
