<?xml version="1.0" encoding="utf-8"?>
<!-- Generator: Adobe Illustrator 24.3.0, SVG Export Plug-In . SVG Version: 6.00 Build 0)  -->
<svg version="1.1" id="light" xmlns="http://www.w3.org/2000/svg" xmlns:xlink="http://www.w3.org/1999/xlink" x="0px" y="0px"
	 width="512px" height="512px" viewBox="0 0 512 512" enable-background="new 0 0 512 512" xml:space="preserve">
<g style="fill: none; stroke:#0f6350; stroke-width: 10px">
	<path  d="M288,512h-64c-14.933,0-32-12.8-32-38.4v-44.8c0-21.333-10.667-40.533-27.733-55.467
		c-38.4-29.867-57.6-72.533-57.6-119.467c2.133-81.067,68.267-145.067,147.2-147.2c40.533,0,78.933,14.933,106.667,42.667
		c27.733,27.733,44.8,66.133,44.8,106.667c0,44.8-19.2,87.467-55.467,115.2C330.667,386.133,320,409.6,320,430.933V480
		C320,497.067,305.067,512,288,512L288,512z M256,128c-68.267,0-125.867,57.6-128,125.867c0,40.533,17.067,78.933,49.067,102.4
		c23.467,19.2,36.267,44.8,36.267,72.533v44.8c0,4.267,0,17.067,10.667,17.067h64c6.4,0,10.667-4.267,10.667-10.667v-49.067
		c0-27.733,14.933-57.6,38.4-76.8C366.933,330.667,384,294.4,384,256c0-34.133-12.8-66.133-38.4-91.733
		C322.133,140.8,290.133,128,256,128L256,128z"/>

	<path  d="M309.333,448H202.667c-6.4,0-10.667-4.267-10.667-10.667s4.267-10.667,10.667-10.667h106.667
		c6.4,0,10.667,4.267,10.667,10.667S315.733,448,309.333,448z"/>

	<path  d="M256,64c-6.4,0-10.667-4.267-10.667-10.667V10.667C245.333,4.267,249.6,0,256,0
		c6.4,0,10.667,4.267,10.667,10.667v42.667C266.667,59.733,262.4,64,256,64z"/>

	<path  d="M398.933,123.733c-2.133,0-6.4,0-8.533-2.133c-4.267-4.267-4.267-10.667,0-14.933L420.267,76.8
		c4.267-4.267,10.667-4.267,14.933,0s4.267,10.667,0,14.933L405.333,121.6C405.333,121.6,401.067,123.733,398.933,123.733
		L398.933,123.733z"/>

	<path  d="M501.333,266.667h-42.667c-6.4,0-10.667-4.267-10.667-10.667c0-6.4,4.267-10.667,10.667-10.667h42.667
		c6.4,0,10.667,4.267,10.667,10.667C512,262.4,507.733,266.667,501.333,266.667z"/>

	<path  d="M428.8,439.467c-2.133,0-6.4,0-8.533-2.133L390.4,407.467c-4.267-4.267-4.267-10.667,0-14.933
		c4.267-4.267,10.667-4.267,14.933,0L435.2,422.4c4.267,4.267,4.267,10.667,0,14.933C435.2,439.467,433.067,439.467,428.8,439.467
		L428.8,439.467z"/>

	<path  d="M83.2,439.467c-2.133,0-6.4,0-8.533-2.133c-4.267-4.267-4.267-10.667,0-14.933l29.867-29.867
		c4.267-4.267,10.667-4.267,14.933,0c4.267,4.267,4.267,10.667,0,14.933L89.6,437.333C87.467,439.467,85.333,439.467,83.2,439.467z"
		/>

	<path  d="M53.333,266.667H10.667C4.267,266.667,0,262.4,0,256c0-6.4,4.267-10.667,10.667-10.667h42.667
		C59.733,245.333,64,249.6,64,256C64,262.4,59.733,266.667,53.333,266.667z"/>

	<path  d="M113.067,123.733c-2.133,0-6.4,0-8.533-2.133l-29.867-32c-4.267-4.267-4.267-10.667,0-14.933
		c4.267-4.267,10.667-4.267,14.933,0l29.867,29.867c4.267,4.267,4.267,10.667,0,14.933C117.333,121.6,115.2,123.733,113.067,123.733
		L113.067,123.733z"/>

	<path  d="M341.333,266.667c-6.4,0-10.667-4.267-10.667-10.667c0-40.533-34.133-74.667-74.667-74.667
		c-6.4,0-10.667-4.267-10.667-10.667S249.6,160,256,160c53.333,0,96,42.667,96,96C352,262.4,347.733,266.667,341.333,266.667z"/>
</g>
</svg>
