<?xml version="1.0" encoding="utf-8"?>
<!-- Generator: Adobe Illustrator 24.3.0, SVG Export Plug-In . SVG Version: 6.00 Build 0)  -->
<svg version="1.1" id="Capa_1" xmlns="http://www.w3.org/2000/svg" xmlns:xlink="http://www.w3.org/1999/xlink" x="0px" y="0px"
	 width="512px" height="512px" viewBox="0 0 512 512" enable-background="new 0 0 512 512" xml:space="preserve">
<g style="fill: none; stroke:#0f6350; stroke-width: 10px">
	<path  d="M431.5,496.5V395.175c44.749-3.817,80-41.454,80-87.175V180.858h-15V308c0,37.444-28.534,68.347-65,72.113
		v-40.006l37.803-37.803l-10.606-10.606L431.5,318.894v-74.787l37.803-37.803l-10.606-10.606L431.5,222.894V114h-15v60.894
		l-27.197-27.197l-10.606,10.606l37.803,37.803v74.787l-27.197-27.197l-10.606,10.606l37.803,37.803v88.006
		c-36.466-3.765-65-34.668-65-72.113V103.714h-15V308c0,45.721,35.251,83.358,80,87.175V496.5H385v15h127v-15H431.5z"/>
	<path  d="M351.5,88c0-39.977,32.523-72.5,72.5-72.5c22.292,0,42.259,10.121,55.569,26H447v15h42.29
		c2.294,4.735,4.069,9.763,5.293,15H461v15h35.462c0.01,0.501,0.038,0.997,0.038,1.5v77.858h15V88c0-48.248-39.252-87.5-87.5-87.5
		S336.5,39.752,336.5,88v0.714h15V88z"/>
	<path  d="M345.5,444c0-37.22-30.28-67.5-67.5-67.5c-7.793,0-15.275,1.343-22.245,3.784l-15.24-29.766l2.232-4.017
		h-4.289l-10.331-20.178l19.586-9.793l-14.796-34.03H193v15h30.083l5.205,11.971l-20.414,10.207l13.733,26.822H119.5v-15H148v-15H88
		v15h16.5v20.765l-13.777,28.181C83.618,377.898,75.97,376.5,68,376.5c-37.22,0-67.5,30.28-67.5,67.5
		c0,21.187,9.82,40.116,25.139,52.5H0v15h370v-15h-49.639C335.68,484.116,345.5,465.187,345.5,444z M217.253,361.5l-38.215,68.787
		L127.067,361.5H217.253z M113.376,368.262l51.558,68.238h-29.86c-2.308-20.771-14.077-38.715-30.889-49.438L113.376,368.262z
		 M97.55,400.633c11.885,8.124,20.269,20.999,22.406,35.867H80.015L97.55,400.633z M68,496.5c-28.949,0-52.5-23.551-52.5-52.5
		s23.551-52.5,52.5-52.5c5.609,0,11.01,0.893,16.082,2.529L55.985,451.5h63.971C116.304,476.907,94.402,496.5,68,496.5z
		 M110.361,496.5c13.485-10.902,22.699-26.877,24.712-45h49.34l47.332-85.198l10.491,20.49C223.194,398.74,210.5,419.91,210.5,444
		c0,21.187,9.82,40.116,25.139,52.5H110.361z M278,496.5c-28.949,0-52.5-23.551-52.5-52.5c0-18.277,9.394-34.395,23.601-43.8
		l26.224,51.218l13.352-6.836l-26.006-50.793c4.852-1.484,9.998-2.289,15.33-2.289c28.949,0,52.5,23.551,52.5,52.5
		S306.949,496.5,278,496.5L278,496.5z"/>
	<path  d="M256.857,436.304l-14.096-5.13c-3.421,9.4-2.972,19.582,1.265,28.668s11.748,15.975,21.148,19.396
		l5.13-14.096C258.646,460.9,252.613,447.963,256.857,436.304L256.857,436.304z"/>
	<path  d="M46.857,436.304l-14.096-5.13c-3.421,9.4-2.972,19.582,1.265,28.668s11.748,15.975,21.148,19.396
		l5.13-14.096C48.646,460.9,42.613,447.963,46.857,436.304L46.857,436.304z"/>
	<path  d="M311.974,428.158c-4.237-9.086-11.748-15.975-21.148-19.396l-5.13,14.096
		c11.658,4.243,17.691,17.18,13.447,28.839l14.096,5.13C316.66,447.425,316.211,437.244,311.974,428.158L311.974,428.158z"/>
	<path  d="M122.567,141.039C109.997,143.568,100.5,154.696,100.5,168c0,15.164,12.336,27.5,27.5,27.5h68.127v-15H128
		c-6.893,0-12.5-5.607-12.5-12.5s5.607-12.5,12.5-12.5c0.19,0,0.379,0.007,0.568,0.015l7.208,0.327l0.605-7.19
		c0.885-10.515,9.854-18.752,20.418-18.752c2.22,0,4.416,0.359,6.525,1.067l5.107,1.714l3.255-4.293
		c6.211-8.191,15.656-12.889,25.912-12.889c13.134,0,24.904,7.828,29.984,19.943l2.37,5.652l6.011-1.197
		c1.329-0.264,2.686-0.398,4.035-0.398c11.304,0,20.5,9.196,20.5,20.5s-9.196,20.5-20.5,20.5h-28.873v15H240
		c19.575,0,35.5-15.925,35.5-35.5s-15.925-35.5-35.5-35.5c-0.366,0-0.733,0.006-1.1,0.017c-8.372-14.754-24.029-24.017-41.3-24.017
		c-13.288,0-25.64,5.391-34.593,14.946c-2.044-0.363-4.119-0.546-6.207-0.546C140.692,114.9,126.726,125.961,122.567,141.039
		L122.567,141.039z"/>
	<path  d="M73,105.5c20.678,0,37.5-16.822,37.5-37.5S93.678,30.5,73,30.5S35.5,47.322,35.5,68S52.322,105.5,73,105.5z
		 M73,45.5c12.407,0,22.5,10.093,22.5,22.5S85.407,90.5,73,90.5S50.5,80.407,50.5,68S60.593,45.5,73,45.5z"/>
	<path  d="M65.5,0.5h15v15h-15V0.5z"/>
	<path  d="M65.5,120.5h15v15h-15V120.5z"/>
	<path  d="M19.963,25.574l10.605-10.605l10.605,10.605L30.568,36.179L19.963,25.574z"/>
	<path  d="M104.796,110.427l10.605-10.605l10.605,10.605l-10.605,10.605L104.796,110.427z"/>
	<path  d="M5.5,60.5h15v15h-15V60.5z"/>
	<path  d="M125.5,60.5h15v15h-15V60.5z"/>
	<path  d="M19.954,110.417l10.605-10.605l10.605,10.605l-10.605,10.605L19.954,110.417z"/>
	<path  d="M104.806,25.584l10.605-10.605l10.605,10.605l-10.605,10.605L104.806,25.584z"/>
	<path  d="M225,84.5h65c20.678,0,37.5-16.822,37.5-37.5S310.678,9.5,290,9.5c-10.167,0-19.833,4.148-26.838,11.322
		C260.193,19.95,257.099,19.5,254,19.5c-5.089,0-10.021,1.168-14.5,3.411c-4.479-2.243-9.411-3.411-14.5-3.411
		c-17.92,0-32.5,14.58-32.5,32.5S207.08,84.5,225,84.5L225,84.5z M225,34.5c3.66,0,7.167,1.123,10.144,3.247l4.356,3.108
		l4.356-3.108C246.833,35.623,250.34,34.5,254,34.5c2.817,0,5.51,0.653,8.005,1.94l5.814,3l3.762-5.353
		C275.8,28.084,282.686,24.5,290,24.5c12.407,0,22.5,10.093,22.5,22.5S302.407,69.5,290,69.5h-65c-9.649,0-17.5-7.851-17.5-17.5
		S215.351,34.5,225,34.5z"/>
	<path  d="M417,41.5h15v15h-15V41.5z"/>
	<path  d="M385,338.5h15v15h-15V338.5z"/>
	<path  d="M369,308.5h15v15h-15V308.5z"/>
</g>
</svg>
