<svg width="804" height="738" viewBox="0 0 804 738" fill="none" xmlns="http://www.w3.org/2000/svg">
<path opacity="0.15" d="M247.197 646.253C182.767 611.993 108.552 581.986 71.3582 523.819C34.5361 466.233 61.9909 401.989 50.9579 339.355C39.0709 271.874 -14.3969 203.025 3.88019 140.75C22.6549 76.7786 78.571 22.8899 149.244 4.46746C218.226 -13.5143 296.531 41.7985 371.644 44.8835C447.313 47.9914 513.952 -1.55788 588.361 22.5025C664.722 47.1938 729.234 108.43 768.886 173.332C807.403 236.375 804.732 306.782 802.927 373.701C801.284 434.64 780.494 488.719 758.893 543.928C734.982 605.042 728.965 680.803 669.326 715.172C609.439 749.683 523.825 736.138 447.094 723.611C376.639 712.108 311.511 680.451 247.197 646.253Z" fill="url(#paint0_linear_261_9193)"/>
<defs>
<linearGradient id="paint0_linear_261_9193" x1="220.35" y1="420.835" x2="686.161" y2="179.635" gradientUnits="userSpaceOnUse">
<stop stop-color="#56F09F"/>
<stop offset="1" stop-color="#01855C"/>
</linearGradient>
</defs>
</svg>
