<svg width="14" height="14" viewBox="0 0 14 14" fill="none" xmlns="http://www.w3.org/2000/svg">
<path d="M13.196 5.73202C13.248 5.73202 13.287 5.82302 13.313 6.00502C13.365 6.18702 13.391 6.38202 13.391 6.59002C13.391 6.82402 13.365 7.03202 13.313 7.21402C13.287 7.39602 13.248 7.48702 13.196 7.48702H7.65801V13.025C7.65801 13.077 7.54101 13.129 7.30701 13.181C7.09901 13.207 6.87801 13.22 6.64401 13.22C6.12401 13.22 5.86401 13.181 5.86401 13.103V7.48702H0.326012C0.274012 7.48702 0.222012 7.39602 0.170012 7.21402C0.144012 7.00602 0.131012 6.78502 0.131012 6.55102C0.131012 6.34302 0.144012 6.16102 0.170012 6.00502C0.196012 5.82302 0.235012 5.73202 0.287012 5.73202H5.86401V0.194024C5.86401 0.142024 5.95501 0.103024 6.13701 0.0770236C6.34501 0.0250235 6.55301 -0.000976562 6.76101 -0.000976562C6.99501 -0.000976562 7.20301 0.0250235 7.38501 0.0770236C7.56701 0.103024 7.65801 0.142024 7.65801 0.194024V5.73202H13.196Z" fill="#E63718"/>
</svg>
