<svg width="631" height="198" viewBox="0 0 631 198" fill="none" xmlns="http://www.w3.org/2000/svg">
<path d="M0.439131 169.014V140.883L141.091 0.231227H169.222V140.883H197.352V169.014H169.222V197.144H141.091V169.014H0.439131ZM141.091 140.883V39.8952L40.103 140.883H141.091ZM385.76 140.883V56.4921C385.76 41.0204 373.101 28.3617 357.63 28.3617H273.238C257.767 28.3617 245.108 41.0204 245.108 56.4921V140.883C245.108 156.355 257.767 169.014 273.238 169.014H357.63C373.101 169.014 385.76 156.355 385.76 140.883ZM413.891 56.4921V140.883C413.891 170.702 389.136 197.144 357.63 197.144H273.238C243.139 197.144 216.978 172.671 216.978 140.883V56.4921C216.978 26.6738 241.732 0.231227 273.238 0.231227H357.63C387.729 0.231227 413.047 25.2673 413.891 56.4921ZM433.659 169.014V140.883L574.311 0.231227H602.441V140.883H630.572V169.014H602.441V197.144H574.311V169.014H433.659ZM574.311 140.883V39.8952L473.323 140.883H574.311Z" fill="#009FE2"/>
</svg>
