<svg width="42" height="42" viewBox="0 0 42 42" fill="none" xmlns="http://www.w3.org/2000/svg">
<g clip-path="url(#clip0_2195_586)">
<path d="M28.8743 19.25C30.5466 19.2499 32.19 19.6854 33.6426 20.5137C35.0953 21.3421 36.3071 22.5346 37.1587 23.9738C38.0102 25.4129 38.4721 27.0492 38.4988 28.7212C38.5255 30.3932 38.1162 32.0433 37.3111 33.509L37.9866 35.8032C38.0759 36.1064 38.0818 36.4281 38.0038 36.7344C37.9257 37.0407 37.7666 37.3203 37.5431 37.5438C37.3196 37.7673 37.04 37.9264 36.7337 38.0045C36.4274 38.0825 36.1058 38.0766 35.8026 37.9873L33.5101 37.3117C32.2237 38.0181 30.7929 38.4209 29.327 38.4895C27.8611 38.558 26.3989 38.2905 25.0522 37.7073C23.7056 37.1241 22.5101 36.2406 21.5573 35.1245C20.6044 34.0084 19.9194 32.6893 19.5545 31.2678C19.1897 29.8464 19.1548 28.3603 19.4523 26.9233C19.7499 25.4863 20.3721 24.1363 21.2715 22.9766C22.1708 21.817 23.3234 20.8783 24.6411 20.2324C25.9588 19.5865 27.4068 19.2505 28.8743 19.25ZM19.2493 5.25C22.7317 5.25048 26.1158 6.40454 28.8728 8.53186C31.6299 10.6592 33.6046 13.6399 34.4883 17.0082C31.8397 15.7528 28.847 15.4201 25.9873 16.0631C23.1276 16.7062 20.5655 18.2879 18.7092 20.5563C16.853 22.8247 15.8094 25.6492 15.7449 28.5796C15.6804 31.51 16.5987 34.3776 18.3533 36.7255C15.8209 36.5845 13.3605 35.8309 11.1836 34.5293L6.54607 35.8942C6.24189 35.984 5.91914 35.99 5.61181 35.9118C5.30447 35.8336 5.02391 35.6739 4.79966 35.4497C4.57541 35.2254 4.41576 34.9448 4.33752 34.6375C4.25928 34.3302 4.26535 34.0074 4.35507 33.7033L5.72007 29.0657C4.29458 26.6749 3.52818 23.949 3.49892 21.1656C3.46966 18.3821 4.17859 15.6407 5.55351 13.2204C6.92843 10.8001 8.92022 8.78744 11.326 7.38735C13.7319 5.98726 16.4658 5.24978 19.2493 5.25Z" fill="#009FE2"/>
</g>
<defs>
<clipPath id="clip0_2195_586">
<rect width="42" height="42" fill="white"/>
</clipPath>
</defs>
</svg>
