<svg width="42" height="42" viewBox="0 0 42 42" fill="none" xmlns="http://www.w3.org/2000/svg">
<path d="M15.75 16.9626L21 14.9939L26.25 16.9626V21.0489C26.25 22.0237 25.9785 22.9793 25.4661 23.8086C24.9536 24.6379 24.2204 25.3081 23.3485 25.7441L21 26.9184L18.6515 25.7459C17.7791 25.3096 17.0455 24.6388 16.533 23.8088C16.0205 22.9789 15.7494 22.0226 15.75 21.0471V16.9626Z" fill="#009FE2"/>
<path fill-rule="evenodd" clip-rule="evenodd" d="M22.2285 3.84134C21.4364 3.54442 20.5636 3.54442 19.7715 3.84134L7.5215 8.43509C6.85421 8.68522 6.27918 9.13308 5.87327 9.71881C5.46736 10.3045 5.24991 11.0002 5.25 11.7128V21.0981C5.24994 24.0231 6.0644 26.8903 7.60212 29.3785C9.13984 31.8667 11.3401 33.8775 13.9563 35.1856L19.8258 38.1186C20.1903 38.3009 20.5924 38.3959 21 38.3959C21.4076 38.3959 21.8097 38.3009 22.1742 38.1186L28.0437 35.1838C30.6599 33.8757 32.8602 31.8649 34.3979 29.3767C35.9356 26.8886 36.7501 24.0213 36.75 21.0963V11.7146C36.7501 11.002 36.5326 10.3063 36.1267 9.72056C35.7208 9.13483 35.1458 8.68697 34.4785 8.43684L22.2285 3.84134ZM21.9223 11.6026C21.3277 11.3795 20.6723 11.3795 20.0777 11.6026L13.9528 13.8986C13.4524 14.0864 13.0212 14.4224 12.717 14.8617C12.4127 15.3011 12.2498 15.8229 12.25 16.3573V21.0473C12.2497 22.6726 12.7021 24.2658 13.5565 25.6484C14.4108 27.031 15.6333 28.1483 17.087 28.8751L20.0217 30.3416C20.3255 30.4935 20.6604 30.5725 21 30.5725C21.3396 30.5725 21.6745 30.4935 21.9783 30.3416L24.913 28.8751C26.3664 28.1484 27.5888 27.0314 28.4431 25.6491C29.2974 24.2669 29.7499 22.674 29.75 21.0491V16.3573C29.7502 15.8229 29.5873 15.3011 29.283 14.8617C28.9788 14.4224 28.5476 14.0864 28.0473 13.8986L21.9223 11.6026Z" fill="#009FE2"/>
</svg>
