<svg width="42" height="42" viewBox="0 0 42 42" fill="none" xmlns="http://www.w3.org/2000/svg">
<g clip-path="url(#clip0_2195_585)">
<g clip-path="url(#clip1_2195_585)">
<path d="M18.8133 4.49214C19.4784 4.10816 20.2329 3.90601 21.0008 3.90601C21.7688 3.90601 22.5232 4.10816 23.1883 4.49214L34.2028 10.8499C34.8679 11.2339 35.4202 11.7861 35.8042 12.4512C36.1881 13.1163 36.3903 13.8707 36.3903 14.6386V27.3576C36.3903 28.1256 36.1881 28.88 35.8042 29.5451C35.4202 30.2101 34.8679 30.7624 34.2028 31.1464L23.1883 37.5059C22.5232 37.8899 21.7688 38.092 21.0008 38.092C20.2329 38.092 19.4784 37.8899 18.8133 37.5059L7.79883 31.1464C7.13376 30.7624 6.58148 30.2101 6.1975 29.5451C5.81351 28.88 5.61135 28.1256 5.61133 27.3576V14.6404C5.61104 13.8721 5.81306 13.1174 6.19706 12.452C6.58106 11.7866 7.1335 11.234 7.79883 10.8499L18.8133 4.49214ZM21.0008 15.7499C19.6084 15.7499 18.2731 16.303 17.2885 17.2876C16.304 18.2721 15.7508 19.6075 15.7508 20.9999C15.7508 22.3923 16.304 23.7276 17.2885 24.7122C18.2731 25.6968 19.6084 26.2499 21.0008 26.2499C22.3932 26.2499 23.7286 25.6968 24.7131 24.7122C25.6977 23.7276 26.2508 22.3923 26.2508 20.9999C26.2508 19.6075 25.6977 18.2721 24.7131 17.2876C23.7286 16.303 22.3932 15.7499 21.0008 15.7499Z" fill="#009FE2"/>
</g>
</g>
<defs>
<clipPath id="clip0_2195_585">
<rect width="42" height="42" fill="white"/>
</clipPath>
<clipPath id="clip1_2195_585">
<rect width="42" height="42" fill="white"/>
</clipPath>
</defs>
</svg>
