<svg width="42" height="42" viewBox="0 0 42 42" fill="none" xmlns="http://www.w3.org/2000/svg">
<g clip-path="url(#clip0_2195_587)">
<g clip-path="url(#clip1_2195_587)">
<path d="M28 5.25C28.4641 5.25 28.9093 5.43437 29.2374 5.76256C29.5656 6.09075 29.75 6.53587 29.75 7V8.75H33.25C34.133 8.74972 34.9835 9.08321 35.631 9.68362C36.2784 10.284 36.675 11.107 36.7413 11.9875L36.75 12.25V33.25C36.7503 34.133 36.4168 34.9835 35.8164 35.631C35.216 36.2784 34.393 36.675 33.5125 36.7413L33.25 36.75H8.75C7.86699 36.7503 7.01651 36.4168 6.36904 35.8164C5.72157 35.216 5.32498 34.393 5.25875 33.5125L5.25 33.25V12.25C5.24972 11.367 5.58321 10.5165 6.18362 9.86904C6.78403 9.22157 7.60698 8.82498 8.4875 8.75875L8.75 8.75H12.25V7C12.25 6.53587 12.4344 6.09075 12.7626 5.76256C13.0908 5.43437 13.5359 5.25 14 5.25C14.4641 5.25 14.9092 5.43437 15.2374 5.76256C15.5656 6.09075 15.75 6.53587 15.75 7V8.75H26.25V7C26.25 6.53587 26.4344 6.09075 26.7626 5.76256C27.0908 5.43437 27.5359 5.25 28 5.25ZM25.942 16.4132L18.5185 23.8368L16.0422 21.3622C15.7122 21.0435 15.2701 20.8671 14.8113 20.8711C14.3525 20.8751 13.9135 21.0591 13.5891 21.3836C13.2646 21.708 13.0806 22.147 13.0766 22.6058C13.0726 23.0646 13.249 23.5067 13.5677 23.8368L17.2672 27.538C17.4314 27.7023 17.6263 27.8326 17.8409 27.9216C18.0554 28.0105 18.2854 28.0563 18.5176 28.0563C18.7499 28.0563 18.9798 28.0105 19.1944 27.9216C19.4089 27.8326 19.6039 27.7023 19.768 27.538L28.4165 18.8878C28.5836 18.7263 28.717 18.5332 28.8087 18.3197C28.9004 18.1062 28.9487 17.8766 28.9507 17.6442C28.9527 17.4118 28.9084 17.1814 28.8204 16.9663C28.7324 16.7513 28.6025 16.5559 28.4382 16.3916C28.2739 16.2272 28.0785 16.0973 27.8634 16.0093C27.6484 15.9213 27.4179 15.877 27.1855 15.8791C26.9532 15.8811 26.7235 15.9294 26.51 16.0211C26.2965 16.1128 26.1034 16.2461 25.942 16.4132Z" fill="#009FE2"/>
</g>
</g>
<defs>
<clipPath id="clip0_2195_587">
<rect width="42" height="42" fill="white"/>
</clipPath>
<clipPath id="clip1_2195_587">
<rect width="42" height="42" fill="white"/>
</clipPath>
</defs>
</svg>
