<svg width="42" height="42" viewBox="0 0 42 42" fill="none" xmlns="http://www.w3.org/2000/svg">
<g clip-path="url(#clip0_2195_588)">
<g clip-path="url(#clip1_2195_588)">
<path d="M33.2509 21.4936V24.5001C33.2509 27.749 31.9603 30.8648 29.663 33.1622C27.3657 35.4595 24.2498 36.7501 21.0009 36.7501C17.752 36.7501 14.6362 35.4595 12.3389 33.1622C10.0416 30.8648 8.75094 27.749 8.75094 24.5001V21.4936L19.8792 26.7558C20.2299 26.9216 20.613 27.0076 21.0009 27.0076C21.3889 27.0076 21.772 26.9216 22.1227 26.7558L33.2509 21.4936ZM22.1227 4.7461L38.0127 12.2606C39.2972 12.8661 39.4599 14.5391 38.5009 15.4158V22.7501C38.5009 23.2142 38.3166 23.6593 37.9884 23.9875C37.6602 24.3157 37.2151 24.5001 36.7509 24.5001C36.2868 24.5001 35.8417 24.3157 35.5135 23.9875C35.1853 23.6593 35.0009 23.2142 35.0009 22.7501V17.1676L22.1227 23.2576C21.772 23.4234 21.3889 23.5093 21.0009 23.5093C20.613 23.5093 20.2299 23.4234 19.8792 23.2576L3.98919 15.7413C3.65993 15.5853 3.38172 15.339 3.1869 15.031C2.99209 14.7231 2.88867 14.3662 2.88867 14.0018C2.88867 13.6375 2.99209 13.2806 3.1869 12.9726C3.38172 12.6647 3.65993 12.4184 3.98919 12.2623L19.8792 4.74785C20.2299 4.58207 20.613 4.49609 21.0009 4.49609C21.3889 4.49609 21.772 4.58207 22.1227 4.74785V4.7461Z" fill="#009FE2"/>
</g>
</g>
<defs>
<clipPath id="clip0_2195_588">
<rect width="42" height="42" fill="white"/>
</clipPath>
<clipPath id="clip1_2195_588">
<rect width="42" height="42" fill="white"/>
</clipPath>
</defs>
</svg>
