<svg width="42" height="42" viewBox="0 0 42 42" fill="none" xmlns="http://www.w3.org/2000/svg">
<g clip-path="url(#clip0_2195_584)">
<g clip-path="url(#clip1_2195_584)">
<path d="M33.25 7C34.1783 7 35.0685 7.36875 35.7249 8.02513C36.3813 8.6815 36.75 9.57174 36.75 10.5V12.25H26.25C23.9294 12.25 21.7038 13.1719 20.0628 14.8128C18.4219 16.4538 17.5 18.6794 17.5 21C17.5 23.3206 18.4219 25.5462 20.0628 27.1872C21.7038 28.8281 23.9294 29.75 26.25 29.75H36.75V31.5C36.75 32.4283 36.3813 33.3185 35.7249 33.9749C35.0685 34.6313 34.1783 35 33.25 35H8.75C7.82174 35 6.9315 34.6313 6.27513 33.9749C5.61875 33.3185 5.25 32.4283 5.25 31.5V10.5C5.25 9.57174 5.61875 8.6815 6.27513 8.02513C6.9315 7.36875 7.82174 7 8.75 7H33.25ZM35 15.75C35.9283 15.75 36.8185 16.1187 37.4749 16.7751C38.1312 17.4315 38.5 18.3217 38.5 19.25V22.75C38.5 23.6783 38.1312 24.5685 37.4749 25.2249C36.8185 25.8813 35.9283 26.25 35 26.25H26.25C24.8576 26.25 23.5223 25.6969 22.5377 24.7123C21.5531 23.7277 21 22.3924 21 21C21 19.6076 21.5531 18.2723 22.5377 17.2877C23.5223 16.3031 24.8576 15.75 26.25 15.75H35ZM26.25 19.25C25.7859 19.25 25.3408 19.4344 25.0126 19.7626C24.6844 20.0908 24.5 20.5359 24.5 21C24.5 21.4641 24.6844 21.9092 25.0126 22.2374C25.3408 22.5656 25.7859 22.75 26.25 22.75C26.7141 22.75 27.1592 22.5656 27.4874 22.2374C27.8156 21.9092 28 21.4641 28 21C28 20.5359 27.8156 20.0908 27.4874 19.7626C27.1592 19.4344 26.7141 19.25 26.25 19.25Z" fill="#009FE2"/>
</g>
</g>
<defs>
<clipPath id="clip0_2195_584">
<rect width="42" height="42" fill="white"/>
</clipPath>
<clipPath id="clip1_2195_584">
<rect width="42" height="42" fill="white"/>
</clipPath>
</defs>
</svg>
