<svg width="901" height="785" viewBox="0 0 901 785" fill="none" xmlns="http://www.w3.org/2000/svg">
<rect x="1" y="504" width="56" height="31" rx="7" fill="#009FE2"/>
<path d="M32 514H26C24.9 514 24 514.9 24 516L24 520H34V516C34 514.9 33.1 514 32 514ZM36 516V526H34V522H24V526H22L22 516C22 513.88 23.76 512 26 512H32C34.14 512 35.94 513.78 36 516Z" fill="white"/>
<path d="M5.4 554V562.8H16.4V551.8H7.6C6.39 551.8 5.4 552.79 5.4 554ZM1 565V562.8H3.2V554C3.2 551.668 5.136 549.6 7.6 549.6H18.6V562.8H20.8V565H1ZM21.9086 565V549.6H24.1086V561.81L35.1086 549.6H37.3086V565H35.1086V552.57L24.1086 565H21.9086ZM50.5043 551.8H43.9043C42.6943 551.8 41.7043 552.79 41.7043 554V558.4H52.7043V554C52.7043 552.79 51.7143 551.8 50.5043 551.8ZM54.9043 554V565H52.7043V560.6H41.7043V565H39.5043V554C39.5043 551.668 41.4403 549.6 43.9043 549.6H50.5043C52.8583 549.6 54.8383 551.558 54.9043 554ZM65.9 563.064L59.3 553.538V565H57.1V549.6H59.3L65.9 559.126L72.5 549.6H74.7V565H72.5V553.538L65.9 563.064ZM79.1086 551.8V556.2H90.1086V558.4H79.1086V562.8H92.3086V565H76.9086V549.6H92.3086V551.8H79.1086ZM108.375 551.8H101.775V565H99.5746V551.8H92.9746V549.6H108.375V551.8ZM122.679 556.2V554C122.679 552.79 121.689 551.8 120.479 551.8H111.679V558.4H120.479C121.689 558.4 122.679 557.41 122.679 556.2ZM124.879 554V556.2C124.879 558.532 122.943 560.6 120.479 560.6H111.679V565H109.479V549.6H120.479C122.833 549.6 124.813 551.558 124.879 554ZM150.854 549.6L143.154 557.3L150.854 565H147.752L141.152 558.4H137.654V565H135.454V549.6H137.654V556.2H141.152L147.752 549.6H150.854ZM164.053 560.6V554C164.053 552.79 163.063 551.8 161.853 551.8H155.253C154.043 551.8 153.053 552.79 153.053 554V560.6C153.053 561.81 154.043 562.8 155.253 562.8H161.853C163.063 562.8 164.053 561.81 164.053 560.6ZM166.253 554V560.6C166.253 563.02 164.273 565 161.853 565H155.253C152.811 565 150.853 563.042 150.853 560.6V554C150.853 551.58 152.833 549.6 155.253 549.6H161.853C164.185 549.6 166.253 551.602 166.253 554ZM181.439 556.2V554C181.439 552.79 180.449 551.8 179.239 551.8H170.439V558.4H179.239C180.449 558.4 181.439 557.41 181.439 556.2ZM183.639 554V556.2C183.639 558.532 181.703 560.6 179.239 560.6H170.439V565H168.239V549.6H179.239C181.593 549.6 183.573 551.558 183.639 554ZM200.805 549.6V565H198.605V551.8H187.605V565H185.405V549.6H200.805ZM207.62 562.8H213.78C214.99 562.8 215.98 561.81 215.98 560.6V558.4H207.18C204.826 558.4 202.78 556.486 202.78 554V549.6H204.98V554C204.98 555.21 205.97 556.2 207.18 556.2H215.98V549.6H218.18V560.6C218.18 562.932 216.244 565 213.78 565H207.62C205.222 565 203.286 563.086 203.22 560.6H205.42C205.42 561.81 206.41 562.8 207.62 562.8ZM224.561 549.6H231.161C233.515 549.6 235.495 551.558 235.561 554H233.361C233.361 552.79 232.371 551.8 231.161 551.8H224.561C223.351 551.8 222.361 552.79 222.361 554V560.6C222.361 561.81 223.351 562.8 224.561 562.8H231.161C232.371 562.8 233.361 561.81 233.361 560.6H235.561C235.561 562.932 233.625 565 231.161 565H224.561C222.207 565 220.161 563.086 220.161 560.6V554C220.161 551.624 222.097 549.666 224.561 549.6ZM248.311 551.8H241.711C240.501 551.8 239.511 552.79 239.511 554V558.4H250.511V554C250.511 552.79 249.521 551.8 248.311 551.8ZM252.711 554V565H250.511V560.6H239.511V565H237.311V554C237.311 551.668 239.247 549.6 241.711 549.6H248.311C250.665 549.6 252.645 551.558 252.711 554Z" fill="black"/>
<path opacity="0.8" d="M6.382 602.18C5.674 602.18 5.032 602.054 4.456 601.802C3.88 601.538 3.382 601.184 2.962 600.74C2.542 600.284 2.218 599.762 1.99 599.174C1.762 598.586 1.648 597.968 1.648 597.32C1.648 596.66 1.762 596.036 1.99 595.448C2.218 594.86 2.542 594.344 2.962 593.9C3.382 593.444 3.88 593.09 4.456 592.838C5.044 592.574 5.686 592.442 6.382 592.442C7.09 592.442 7.732 592.574 8.308 592.838C8.884 593.09 9.382 593.444 9.802 593.9C10.234 594.344 10.564 594.86 10.792 595.448C11.02 596.036 11.134 596.66 11.134 597.32C11.134 597.968 11.02 598.586 10.792 599.174C10.564 599.762 10.24 600.284 9.82 600.74C9.4 601.184 8.896 601.538 8.308 601.802C7.732 602.054 7.09 602.18 6.382 602.18ZM3.268 597.338C3.268 597.986 3.406 598.574 3.682 599.102C3.97 599.63 4.348 600.05 4.816 600.362C5.284 600.662 5.806 600.812 6.382 600.812C6.958 600.812 7.48 600.656 7.948 600.344C8.428 600.032 8.806 599.612 9.082 599.084C9.37 598.544 9.514 597.95 9.514 597.302C9.514 596.654 9.37 596.066 9.082 595.538C8.806 595.01 8.428 594.59 7.948 594.278C7.48 593.966 6.958 593.81 6.382 593.81C5.806 593.81 5.284 593.972 4.816 594.296C4.348 594.608 3.97 595.028 3.682 595.556C3.406 596.084 3.268 596.678 3.268 597.338ZM15.8794 602V594.008H12.6394V592.604H20.7034V594.008H17.4634V602H15.8794ZM36.7653 597.77C36.7653 598.586 36.5613 599.33 36.1533 600.002C35.7573 600.662 35.2113 601.19 34.5153 601.586C33.8313 601.982 33.0573 602.18 32.1933 602.18C31.2813 602.18 30.4773 601.964 29.7813 601.532C29.0853 601.088 28.5393 600.452 28.1433 599.624C27.7593 598.796 27.5673 597.812 27.5673 596.672C27.5673 594.992 27.7653 593.594 28.1613 592.478C28.5573 591.362 29.1153 590.528 29.8353 589.976C30.5553 589.412 31.3953 589.13 32.3553 589.13C33.1833 589.13 33.9333 589.334 34.6053 589.742C35.2893 590.138 35.8233 590.69 36.2073 591.398L35.2353 592.352C34.9713 591.788 34.5813 591.344 34.0653 591.02C33.5493 590.684 32.9733 590.516 32.3373 590.516C31.6893 590.516 31.1193 590.714 30.6273 591.11C30.1353 591.506 29.7513 592.076 29.4753 592.82C29.2113 593.564 29.0733 594.464 29.0613 595.52C29.2413 595.1 29.4933 594.74 29.8173 594.44C30.1413 594.128 30.5193 593.888 30.9513 593.72C31.3953 593.552 31.8633 593.468 32.3553 593.468C33.1833 593.468 33.9273 593.66 34.5873 594.044C35.2593 594.428 35.7873 594.944 36.1713 595.592C36.5673 596.24 36.7653 596.966 36.7653 597.77ZM32.2113 600.812C32.7633 600.812 33.2673 600.674 33.7233 600.398C34.1913 600.122 34.5633 599.756 34.8393 599.3C35.1153 598.832 35.2533 598.322 35.2533 597.77C35.2533 597.218 35.1153 596.714 34.8393 596.258C34.5633 595.802 34.1913 595.436 33.7233 595.16C33.2673 594.884 32.7633 594.746 32.2113 594.746C31.6593 594.746 31.1493 594.884 30.6813 595.16C30.2253 595.436 29.8593 595.802 29.5833 596.258C29.3073 596.714 29.1693 597.218 29.1693 597.77C29.1693 598.322 29.3073 598.832 29.5833 599.3C29.8593 599.756 30.2253 600.122 30.6813 600.398C31.1493 600.674 31.6593 600.812 32.2113 600.812ZM44.3153 602.18C43.4393 602.156 42.6653 601.946 41.9933 601.55C41.3213 601.154 40.7573 600.638 40.3013 600.002C39.8573 599.354 39.5213 598.658 39.2933 597.914C39.0653 597.158 38.9513 596.42 38.9513 595.7C38.9513 594.932 39.0713 594.164 39.3113 593.396C39.5633 592.628 39.9233 591.932 40.3913 591.308C40.8593 590.672 41.4233 590.168 42.0833 589.796C42.7433 589.412 43.4873 589.22 44.3153 589.22C45.2033 589.22 45.9773 589.424 46.6373 589.832C47.3093 590.24 47.8673 590.768 48.3113 591.416C48.7673 592.064 49.1093 592.766 49.3373 593.522C49.5653 594.278 49.6793 595.004 49.6793 595.7C49.6793 596.48 49.5533 597.254 49.3013 598.022C49.0613 598.778 48.7073 599.468 48.2393 600.092C47.7713 600.716 47.2073 601.22 46.5473 601.604C45.8873 601.976 45.1433 602.168 44.3153 602.18ZM40.5893 595.7C40.6133 596.288 40.7033 596.876 40.8593 597.464C41.0153 598.052 41.2493 598.592 41.5613 599.084C41.8733 599.576 42.2573 599.972 42.7133 600.272C43.1693 600.572 43.7033 600.722 44.3153 600.722C44.9513 600.722 45.5033 600.566 45.9713 600.254C46.4393 599.93 46.8233 599.516 47.1233 599.012C47.4353 598.496 47.6633 597.95 47.8073 597.374C47.9633 596.786 48.0413 596.228 48.0413 595.7C48.0413 595.112 47.9573 594.524 47.7893 593.936C47.6333 593.348 47.3933 592.808 47.0693 592.316C46.7453 591.824 46.3553 591.428 45.8993 591.128C45.4433 590.828 44.9153 590.678 44.3153 590.678C43.6793 590.678 43.1273 590.84 42.6593 591.164C42.1913 591.476 41.8013 591.89 41.4893 592.406C41.1893 592.91 40.9613 593.456 40.8053 594.044C40.6613 594.62 40.5893 595.172 40.5893 595.7ZM57.283 602.18C56.407 602.156 55.633 601.946 54.961 601.55C54.289 601.154 53.725 600.638 53.269 600.002C52.825 599.354 52.489 598.658 52.261 597.914C52.033 597.158 51.919 596.42 51.919 595.7C51.919 594.932 52.039 594.164 52.279 593.396C52.531 592.628 52.891 591.932 53.359 591.308C53.827 590.672 54.391 590.168 55.051 589.796C55.711 589.412 56.455 589.22 57.283 589.22C58.171 589.22 58.945 589.424 59.605 589.832C60.277 590.24 60.835 590.768 61.279 591.416C61.735 592.064 62.077 592.766 62.305 593.522C62.533 594.278 62.647 595.004 62.647 595.7C62.647 596.48 62.521 597.254 62.269 598.022C62.029 598.778 61.675 599.468 61.207 600.092C60.739 600.716 60.175 601.22 59.515 601.604C58.855 601.976 58.111 602.168 57.283 602.18ZM53.557 595.7C53.581 596.288 53.671 596.876 53.827 597.464C53.983 598.052 54.217 598.592 54.529 599.084C54.841 599.576 55.225 599.972 55.681 600.272C56.137 600.572 56.671 600.722 57.283 600.722C57.919 600.722 58.471 600.566 58.939 600.254C59.407 599.93 59.791 599.516 60.091 599.012C60.403 598.496 60.631 597.95 60.775 597.374C60.931 596.786 61.009 596.228 61.009 595.7C61.009 595.112 60.925 594.524 60.757 593.936C60.601 593.348 60.361 592.808 60.037 592.316C59.713 591.824 59.323 591.428 58.867 591.128C58.411 590.828 57.883 590.678 57.283 590.678C56.647 590.678 56.095 590.84 55.627 591.164C55.159 591.476 54.769 591.89 54.457 592.406C54.157 592.91 53.929 593.456 53.773 594.044C53.629 594.62 53.557 595.172 53.557 595.7ZM70.3935 602V592.604H72.0315L75.5235 598.76L79.0335 592.604H80.6355V602H79.1235V594.89L76.0275 600.326H75.0195L71.9055 594.89V602H70.3935ZM83.7128 602V592.604H85.3508L88.8428 598.76L92.3528 592.604H93.9548V602H92.4428V594.89L89.3468 600.326H88.3388L85.2248 594.89V602H83.7128ZM101.099 604.214V600.596H101.297C101.561 600.596 101.801 600.518 102.017 600.362C102.245 600.206 102.443 599.936 102.611 599.552C102.791 599.156 102.935 598.616 103.043 597.932C103.151 597.248 103.223 596.378 103.259 595.322L103.349 592.604H109.739V600.596H111.017V604.214H109.613V602H102.503V604.214H101.099ZM103.511 600.596H108.155V594.008H104.753L104.699 595.466C104.663 596.486 104.591 597.344 104.483 598.04C104.387 598.724 104.255 599.27 104.087 599.678C103.931 600.086 103.739 600.392 103.511 600.596ZM117.422 602.18C116.714 602.18 116.072 602.054 115.496 601.802C114.92 601.538 114.422 601.184 114.002 600.74C113.582 600.284 113.258 599.762 113.03 599.174C112.802 598.586 112.688 597.968 112.688 597.32C112.688 596.66 112.802 596.036 113.03 595.448C113.258 594.86 113.582 594.344 114.002 593.9C114.422 593.444 114.92 593.09 115.496 592.838C116.084 592.574 116.726 592.442 117.422 592.442C118.13 592.442 118.772 592.574 119.348 592.838C119.924 593.09 120.422 593.444 120.842 593.9C121.274 594.344 121.604 594.86 121.832 595.448C122.06 596.036 122.174 596.66 122.174 597.32C122.174 597.968 122.06 598.586 121.832 599.174C121.604 599.762 121.28 600.284 120.86 600.74C120.44 601.184 119.936 601.538 119.348 601.802C118.772 602.054 118.13 602.18 117.422 602.18ZM114.308 597.338C114.308 597.986 114.446 598.574 114.722 599.102C115.01 599.63 115.388 600.05 115.856 600.362C116.324 600.662 116.846 600.812 117.422 600.812C117.998 600.812 118.52 600.656 118.988 600.344C119.468 600.032 119.846 599.612 120.122 599.084C120.41 598.544 120.554 597.95 120.554 597.302C120.554 596.654 120.41 596.066 120.122 595.538C119.846 595.01 119.468 594.59 118.988 594.278C118.52 593.966 117.998 593.81 117.422 593.81C116.846 593.81 116.324 593.972 115.856 594.296C115.388 594.608 115.01 595.028 114.722 595.556C114.446 596.084 114.308 596.678 114.308 597.338ZM134.946 602V598.742H128.934V597.32L135.432 589.22H136.53V597.302H138.114V598.742H136.53V602H134.946ZM130.59 597.302H135.108V591.65L130.59 597.302ZM150.679 602.18C149.803 602.156 149.029 601.946 148.357 601.55C147.685 601.154 147.121 600.638 146.665 600.002C146.221 599.354 145.885 598.658 145.657 597.914C145.429 597.158 145.315 596.42 145.315 595.7C145.315 594.932 145.435 594.164 145.675 593.396C145.927 592.628 146.287 591.932 146.755 591.308C147.223 590.672 147.787 590.168 148.447 589.796C149.107 589.412 149.851 589.22 150.679 589.22C151.567 589.22 152.341 589.424 153.001 589.832C153.673 590.24 154.231 590.768 154.675 591.416C155.131 592.064 155.473 592.766 155.701 593.522C155.929 594.278 156.043 595.004 156.043 595.7C156.043 596.48 155.917 597.254 155.665 598.022C155.425 598.778 155.071 599.468 154.603 600.092C154.135 600.716 153.571 601.22 152.911 601.604C152.251 601.976 151.507 602.168 150.679 602.18ZM146.953 595.7C146.977 596.288 147.067 596.876 147.223 597.464C147.379 598.052 147.613 598.592 147.925 599.084C148.237 599.576 148.621 599.972 149.077 600.272C149.533 600.572 150.067 600.722 150.679 600.722C151.315 600.722 151.867 600.566 152.335 600.254C152.803 599.93 153.187 599.516 153.487 599.012C153.799 598.496 154.027 597.95 154.171 597.374C154.327 596.786 154.405 596.228 154.405 595.7C154.405 595.112 154.321 594.524 154.153 593.936C153.997 593.348 153.757 592.808 153.433 592.316C153.109 591.824 152.719 591.428 152.263 591.128C151.807 590.828 151.279 590.678 150.679 590.678C150.043 590.678 149.491 590.84 149.023 591.164C148.555 591.476 148.165 591.89 147.853 592.406C147.553 592.91 147.325 593.456 147.169 594.044C147.025 594.62 146.953 595.172 146.953 595.7ZM163.647 602.18C162.771 602.156 161.997 601.946 161.325 601.55C160.653 601.154 160.089 600.638 159.633 600.002C159.189 599.354 158.853 598.658 158.625 597.914C158.397 597.158 158.283 596.42 158.283 595.7C158.283 594.932 158.403 594.164 158.643 593.396C158.895 592.628 159.255 591.932 159.723 591.308C160.191 590.672 160.755 590.168 161.415 589.796C162.075 589.412 162.819 589.22 163.647 589.22C164.535 589.22 165.309 589.424 165.969 589.832C166.641 590.24 167.199 590.768 167.643 591.416C168.099 592.064 168.441 592.766 168.669 593.522C168.897 594.278 169.011 595.004 169.011 595.7C169.011 596.48 168.885 597.254 168.633 598.022C168.393 598.778 168.039 599.468 167.571 600.092C167.103 600.716 166.539 601.22 165.879 601.604C165.219 601.976 164.475 602.168 163.647 602.18ZM159.921 595.7C159.945 596.288 160.035 596.876 160.191 597.464C160.347 598.052 160.581 598.592 160.893 599.084C161.205 599.576 161.589 599.972 162.045 600.272C162.501 600.572 163.035 600.722 163.647 600.722C164.283 600.722 164.835 600.566 165.303 600.254C165.771 599.93 166.155 599.516 166.455 599.012C166.767 598.496 166.995 597.95 167.139 597.374C167.295 596.786 167.373 596.228 167.373 595.7C167.373 595.112 167.289 594.524 167.121 593.936C166.965 593.348 166.725 592.808 166.401 592.316C166.077 591.824 165.687 591.428 165.231 591.128C164.775 590.828 164.247 590.678 163.647 590.678C163.011 590.678 162.459 590.84 161.991 591.164C161.523 591.476 161.133 591.89 160.821 592.406C160.521 592.91 160.293 593.456 160.137 594.044C159.993 594.62 159.921 595.172 159.921 595.7ZM176.615 602.18C175.739 602.156 174.965 601.946 174.293 601.55C173.621 601.154 173.057 600.638 172.601 600.002C172.157 599.354 171.821 598.658 171.593 597.914C171.365 597.158 171.251 596.42 171.251 595.7C171.251 594.932 171.371 594.164 171.611 593.396C171.863 592.628 172.223 591.932 172.691 591.308C173.159 590.672 173.723 590.168 174.383 589.796C175.043 589.412 175.787 589.22 176.615 589.22C177.503 589.22 178.277 589.424 178.937 589.832C179.609 590.24 180.167 590.768 180.611 591.416C181.067 592.064 181.409 592.766 181.637 593.522C181.865 594.278 181.979 595.004 181.979 595.7C181.979 596.48 181.853 597.254 181.601 598.022C181.361 598.778 181.007 599.468 180.539 600.092C180.071 600.716 179.507 601.22 178.847 601.604C178.187 601.976 177.443 602.168 176.615 602.18ZM172.889 595.7C172.913 596.288 173.003 596.876 173.159 597.464C173.315 598.052 173.549 598.592 173.861 599.084C174.173 599.576 174.557 599.972 175.013 600.272C175.469 600.572 176.003 600.722 176.615 600.722C177.251 600.722 177.803 600.566 178.271 600.254C178.739 599.93 179.123 599.516 179.423 599.012C179.735 598.496 179.963 597.95 180.107 597.374C180.263 596.786 180.341 596.228 180.341 595.7C180.341 595.112 180.257 594.524 180.089 593.936C179.933 593.348 179.693 592.808 179.369 592.316C179.045 591.824 178.655 591.428 178.199 591.128C177.743 590.828 177.215 590.678 176.615 590.678C175.979 590.678 175.427 590.84 174.959 591.164C174.491 591.476 174.101 591.89 173.789 592.406C173.489 592.91 173.261 593.456 173.105 594.044C172.961 594.62 172.889 595.172 172.889 595.7ZM189.725 602V592.604H191.363L194.855 598.76L198.365 592.604H199.967V602H198.455V594.89L195.359 600.326H194.351L191.237 594.89V602H189.725ZM203.044 602V592.604H204.682L208.174 598.76L211.684 592.604H213.286V602H211.774V594.89L208.678 600.326H207.67L204.556 594.89V602H203.044ZM216.436 603.458L216.796 601.856H216.256V599.984H217.75V601.856L217.21 603.458H216.436ZM225.793 602V592.604H227.377V600.614H231.085V592.604H232.687V600.614H236.377V592.604H237.961V602H225.793ZM240.326 599.282C240.326 598.682 240.494 598.166 240.83 597.734C241.178 597.29 241.652 596.948 242.252 596.708C242.852 596.468 243.548 596.348 244.34 596.348C244.76 596.348 245.204 596.384 245.672 596.456C246.14 596.516 246.554 596.612 246.914 596.744V596.06C246.914 595.34 246.698 594.776 246.266 594.368C245.834 593.948 245.222 593.738 244.43 593.738C243.914 593.738 243.416 593.834 242.936 594.026C242.468 594.206 241.97 594.47 241.442 594.818L240.866 593.702C241.478 593.282 242.09 592.97 242.702 592.766C243.314 592.55 243.95 592.442 244.61 592.442C245.81 592.442 246.758 592.778 247.454 593.45C248.15 594.11 248.498 595.034 248.498 596.222V600.2C248.498 600.392 248.534 600.536 248.606 600.632C248.69 600.716 248.822 600.764 249.002 600.776V602C248.846 602.024 248.708 602.042 248.588 602.054C248.48 602.066 248.39 602.072 248.318 602.072C247.946 602.072 247.664 601.97 247.472 601.766C247.292 601.562 247.19 601.346 247.166 601.118L247.13 600.524C246.722 601.052 246.188 601.46 245.528 601.748C244.868 602.036 244.214 602.18 243.566 602.18C242.942 602.18 242.384 602.054 241.892 601.802C241.4 601.538 241.016 601.19 240.74 600.758C240.464 600.314 240.326 599.822 240.326 599.282ZM246.446 599.948C246.59 599.78 246.704 599.612 246.788 599.444C246.872 599.264 246.914 599.114 246.914 598.994V597.824C246.542 597.68 246.152 597.572 245.744 597.5C245.336 597.416 244.934 597.374 244.538 597.374C243.734 597.374 243.08 597.536 242.576 597.86C242.084 598.172 241.838 598.604 241.838 599.156C241.838 599.456 241.916 599.75 242.072 600.038C242.24 600.314 242.48 600.542 242.792 600.722C243.116 600.902 243.512 600.992 243.98 600.992C244.472 600.992 244.94 600.896 245.384 600.704C245.828 600.5 246.182 600.248 246.446 599.948ZM251.553 602V592.604H257.349V594.008H253.137V602H251.553ZM270.868 600.56V602H264.514V600.56H266.962V590.75C266.866 590.894 266.71 591.056 266.494 591.236C266.278 591.404 266.026 591.572 265.738 591.74C265.462 591.896 265.18 592.028 264.892 592.136C264.604 592.244 264.34 592.298 264.1 592.298V590.822C264.424 590.822 264.748 590.738 265.072 590.57C265.408 590.402 265.714 590.204 265.99 589.976C266.278 589.748 266.506 589.544 266.674 589.364C266.854 589.184 266.95 589.088 266.962 589.076H268.582V600.56H270.868ZM278.021 602.18C277.145 602.156 276.371 601.946 275.699 601.55C275.027 601.154 274.463 600.638 274.007 600.002C273.563 599.354 273.227 598.658 272.999 597.914C272.771 597.158 272.657 596.42 272.657 595.7C272.657 594.932 272.777 594.164 273.017 593.396C273.269 592.628 273.629 591.932 274.097 591.308C274.565 590.672 275.129 590.168 275.789 589.796C276.449 589.412 277.193 589.22 278.021 589.22C278.909 589.22 279.683 589.424 280.343 589.832C281.015 590.24 281.573 590.768 282.017 591.416C282.473 592.064 282.815 592.766 283.043 593.522C283.271 594.278 283.385 595.004 283.385 595.7C283.385 596.48 283.259 597.254 283.007 598.022C282.767 598.778 282.413 599.468 281.945 600.092C281.477 600.716 280.913 601.22 280.253 601.604C279.593 601.976 278.849 602.168 278.021 602.18ZM274.295 595.7C274.319 596.288 274.409 596.876 274.565 597.464C274.721 598.052 274.955 598.592 275.267 599.084C275.579 599.576 275.963 599.972 276.419 600.272C276.875 600.572 277.409 600.722 278.021 600.722C278.657 600.722 279.209 600.566 279.677 600.254C280.145 599.93 280.529 599.516 280.829 599.012C281.141 598.496 281.369 597.95 281.513 597.374C281.669 596.786 281.747 596.228 281.747 595.7C281.747 595.112 281.663 594.524 281.495 593.936C281.339 593.348 281.099 592.808 280.775 592.316C280.451 591.824 280.061 591.428 279.605 591.128C279.149 590.828 278.621 590.678 278.021 590.678C277.385 590.678 276.833 590.84 276.365 591.164C275.897 591.476 275.507 591.89 275.195 592.406C274.895 592.91 274.667 593.456 274.511 594.044C274.367 594.62 274.295 595.172 274.295 595.7ZM290.989 602.18C290.113 602.156 289.339 601.946 288.667 601.55C287.995 601.154 287.431 600.638 286.975 600.002C286.531 599.354 286.195 598.658 285.967 597.914C285.739 597.158 285.625 596.42 285.625 595.7C285.625 594.932 285.745 594.164 285.985 593.396C286.237 592.628 286.597 591.932 287.065 591.308C287.533 590.672 288.097 590.168 288.757 589.796C289.417 589.412 290.161 589.22 290.989 589.22C291.877 589.22 292.651 589.424 293.311 589.832C293.983 590.24 294.541 590.768 294.985 591.416C295.441 592.064 295.783 592.766 296.011 593.522C296.239 594.278 296.353 595.004 296.353 595.7C296.353 596.48 296.227 597.254 295.975 598.022C295.735 598.778 295.381 599.468 294.913 600.092C294.445 600.716 293.881 601.22 293.221 601.604C292.561 601.976 291.817 602.168 290.989 602.18ZM287.263 595.7C287.287 596.288 287.377 596.876 287.533 597.464C287.689 598.052 287.923 598.592 288.235 599.084C288.547 599.576 288.931 599.972 289.387 600.272C289.843 600.572 290.377 600.722 290.989 600.722C291.625 600.722 292.177 600.566 292.645 600.254C293.113 599.93 293.497 599.516 293.797 599.012C294.109 598.496 294.337 597.95 294.481 597.374C294.637 596.786 294.715 596.228 294.715 595.7C294.715 595.112 294.631 594.524 294.463 593.936C294.307 593.348 294.067 592.808 293.743 592.316C293.419 591.824 293.029 591.428 292.573 591.128C292.117 590.828 291.589 590.678 290.989 590.678C290.353 590.678 289.801 590.84 289.333 591.164C288.865 591.476 288.475 591.89 288.163 592.406C287.863 592.91 287.635 593.456 287.479 594.044C287.335 594.62 287.263 595.172 287.263 595.7ZM304.1 602V592.604H305.738L309.23 598.76L312.74 592.604H314.342V602H312.83V594.89L309.734 600.326H308.726L305.612 594.89V602H304.1ZM317.419 602V592.604H319.057L322.549 598.76L326.059 592.604H327.661V602H326.149V594.89L323.053 600.326H322.045L318.931 594.89V602H317.419Z" fill="black"/>
<rect x="481" y="504" width="56" height="31" rx="7" fill="#009FE2"/>
<path d="M512 526H502V512H512C514.1 512 516 513.78 516 516C516 517.2 515.54 518.2 514.64 519C515.54 519.8 516 520.8 516 522C516 524.16 514.24 525.94 512 526ZM512 520H504V524H512C513.1 524 514 523.1 514 522C514 520.9 513.1 520 512 520ZM504 514V518H512C513.1 518 514 517.1 514 516C514 514.9 513.1 514 512 514H504Z" fill="white"/>
<path d="M485.4 554V562.8H496.4V551.8H487.6C486.39 551.8 485.4 552.79 485.4 554ZM481 565V562.8H483.2V554C483.2 551.668 485.136 549.6 487.6 549.6H498.6V562.8H500.8V565H481ZM506.309 549.6H517.309V565H515.109V551.8H506.309C505.099 551.8 504.109 552.79 504.109 554V565H501.909V554C501.909 551.624 503.845 549.666 506.309 549.6ZM519.504 565V549.6H521.704V561.81L532.704 549.6H534.904V565H532.704V552.57L521.704 565H519.504ZM539.3 549.6V556.2H550.3V549.6H552.5V565H550.3V558.4H539.3V565H537.1V549.6H539.3ZM565.696 551.8H559.096C557.886 551.8 556.896 552.79 556.896 554V558.4H567.896V554C567.896 552.79 566.906 551.8 565.696 551.8ZM570.096 554V565H567.896V560.6H556.896V565H554.696V554C554.696 551.668 556.632 549.6 559.096 549.6H565.696C568.05 549.6 570.03 551.558 570.096 554ZM596.5 549.6L588.8 557.3L596.5 565H593.398L586.798 558.4H583.3V565H581.1V549.6H583.3V556.2H586.798L593.398 549.6H596.5ZM609.699 560.6V554C609.699 552.79 608.709 551.8 607.499 551.8H600.899C599.689 551.8 598.699 552.79 598.699 554V560.6C598.699 561.81 599.689 562.8 600.899 562.8H607.499C608.709 562.8 609.699 561.81 609.699 560.6ZM611.899 554V560.6C611.899 563.02 609.919 565 607.499 565H600.899C598.457 565 596.499 563.042 596.499 560.6V554C596.499 551.58 598.479 549.6 600.899 549.6H607.499C609.831 549.6 611.899 551.602 611.899 554ZM627.085 556.2V554C627.085 552.79 626.095 551.8 624.885 551.8H616.085V558.4H624.885C626.095 558.4 627.085 557.41 627.085 556.2ZM629.285 554V556.2C629.285 558.532 627.349 560.6 624.885 560.6H616.085V565H613.885V549.6H624.885C627.239 549.6 629.219 551.558 629.285 554ZM646.451 549.6V565H644.251V551.8H633.251V565H631.051V549.6H646.451ZM653.267 562.8H659.427C660.637 562.8 661.627 561.81 661.627 560.6V558.4H652.827C650.473 558.4 648.427 556.486 648.427 554V549.6H650.627V554C650.627 555.21 651.617 556.2 652.827 556.2H661.627V549.6H663.827V560.6C663.827 562.932 661.891 565 659.427 565H653.267C650.869 565 648.933 563.086 648.867 560.6H651.067C651.067 561.81 652.057 562.8 653.267 562.8ZM670.208 549.6H676.808C679.162 549.6 681.142 551.558 681.208 554H679.008C679.008 552.79 678.018 551.8 676.808 551.8H670.208C668.998 551.8 668.008 552.79 668.008 554V560.6C668.008 561.81 668.998 562.8 670.208 562.8H676.808C678.018 562.8 679.008 561.81 679.008 560.6H681.208C681.208 562.932 679.272 565 676.808 565H670.208C667.854 565 665.808 563.086 665.808 560.6V554C665.808 551.624 667.744 549.666 670.208 549.6ZM693.957 551.8H687.357C686.147 551.8 685.157 552.79 685.157 554V558.4H696.157V554C696.157 552.79 695.167 551.8 693.957 551.8ZM698.357 554V565H696.157V560.6H685.157V565H682.957V554C682.957 551.668 684.893 549.6 687.357 549.6H693.957C696.311 549.6 698.291 551.558 698.357 554Z" fill="black"/>
<path opacity="0.8" d="M486.382 602.18C485.674 602.18 485.032 602.054 484.456 601.802C483.88 601.538 483.382 601.184 482.962 600.74C482.542 600.284 482.218 599.762 481.99 599.174C481.762 598.586 481.648 597.968 481.648 597.32C481.648 596.66 481.762 596.036 481.99 595.448C482.218 594.86 482.542 594.344 482.962 593.9C483.382 593.444 483.88 593.09 484.456 592.838C485.044 592.574 485.686 592.442 486.382 592.442C487.09 592.442 487.732 592.574 488.308 592.838C488.884 593.09 489.382 593.444 489.802 593.9C490.234 594.344 490.564 594.86 490.792 595.448C491.02 596.036 491.134 596.66 491.134 597.32C491.134 597.968 491.02 598.586 490.792 599.174C490.564 599.762 490.24 600.284 489.82 600.74C489.4 601.184 488.896 601.538 488.308 601.802C487.732 602.054 487.09 602.18 486.382 602.18ZM483.268 597.338C483.268 597.986 483.406 598.574 483.682 599.102C483.97 599.63 484.348 600.05 484.816 600.362C485.284 600.662 485.806 600.812 486.382 600.812C486.958 600.812 487.48 600.656 487.948 600.344C488.428 600.032 488.806 599.612 489.082 599.084C489.37 598.544 489.514 597.95 489.514 597.302C489.514 596.654 489.37 596.066 489.082 595.538C488.806 595.01 488.428 594.59 487.948 594.278C487.48 593.966 486.958 593.81 486.382 593.81C485.806 593.81 485.284 593.972 484.816 594.296C484.348 594.608 483.97 595.028 483.682 595.556C483.406 596.084 483.268 596.678 483.268 597.338ZM495.879 602V594.008H492.639V592.604H500.703V594.008H497.463V602H495.879ZM511.455 602.18C510.543 602.18 509.721 601.964 508.989 601.532C508.269 601.1 507.717 600.518 507.333 599.786L508.323 598.922C508.659 599.474 509.103 599.918 509.655 600.254C510.219 600.59 510.825 600.758 511.473 600.758C512.025 600.758 512.517 600.638 512.949 600.398C513.381 600.158 513.723 599.828 513.975 599.408C514.227 598.988 514.353 598.502 514.353 597.95C514.353 597.41 514.227 596.936 513.975 596.528C513.735 596.12 513.405 595.802 512.985 595.574C512.577 595.334 512.115 595.214 511.599 595.214C511.095 595.214 510.615 595.328 510.159 595.556C509.703 595.784 509.337 596.108 509.061 596.528H507.621L509.061 589.22H515.271V590.678H510.231L509.457 594.746C509.721 594.458 510.051 594.236 510.447 594.08C510.855 593.924 511.305 593.846 511.797 593.846C512.589 593.846 513.297 594.02 513.921 594.368C514.557 594.716 515.055 595.196 515.415 595.808C515.787 596.408 515.973 597.11 515.973 597.914C515.973 598.754 515.769 599.498 515.361 600.146C514.965 600.782 514.425 601.28 513.741 601.64C513.069 602 512.307 602.18 511.455 602.18ZM523.436 602.18C522.56 602.156 521.786 601.946 521.114 601.55C520.442 601.154 519.878 600.638 519.422 600.002C518.978 599.354 518.642 598.658 518.414 597.914C518.186 597.158 518.072 596.42 518.072 595.7C518.072 594.932 518.192 594.164 518.432 593.396C518.684 592.628 519.044 591.932 519.512 591.308C519.98 590.672 520.544 590.168 521.204 589.796C521.864 589.412 522.608 589.22 523.436 589.22C524.324 589.22 525.098 589.424 525.758 589.832C526.43 590.24 526.988 590.768 527.432 591.416C527.888 592.064 528.23 592.766 528.458 593.522C528.686 594.278 528.8 595.004 528.8 595.7C528.8 596.48 528.674 597.254 528.422 598.022C528.182 598.778 527.828 599.468 527.36 600.092C526.892 600.716 526.328 601.22 525.668 601.604C525.008 601.976 524.264 602.168 523.436 602.18ZM519.71 595.7C519.734 596.288 519.824 596.876 519.98 597.464C520.136 598.052 520.37 598.592 520.682 599.084C520.994 599.576 521.378 599.972 521.834 600.272C522.29 600.572 522.824 600.722 523.436 600.722C524.072 600.722 524.624 600.566 525.092 600.254C525.56 599.93 525.944 599.516 526.244 599.012C526.556 598.496 526.784 597.95 526.928 597.374C527.084 596.786 527.162 596.228 527.162 595.7C527.162 595.112 527.078 594.524 526.91 593.936C526.754 593.348 526.514 592.808 526.19 592.316C525.866 591.824 525.476 591.428 525.02 591.128C524.564 590.828 524.036 590.678 523.436 590.678C522.8 590.678 522.248 590.84 521.78 591.164C521.312 591.476 520.922 591.89 520.61 592.406C520.31 592.91 520.082 593.456 519.926 594.044C519.782 594.62 519.71 595.172 519.71 595.7ZM536.404 602.18C535.528 602.156 534.754 601.946 534.082 601.55C533.41 601.154 532.846 600.638 532.39 600.002C531.946 599.354 531.61 598.658 531.382 597.914C531.154 597.158 531.04 596.42 531.04 595.7C531.04 594.932 531.16 594.164 531.4 593.396C531.652 592.628 532.012 591.932 532.48 591.308C532.948 590.672 533.512 590.168 534.172 589.796C534.832 589.412 535.576 589.22 536.404 589.22C537.292 589.22 538.066 589.424 538.726 589.832C539.398 590.24 539.956 590.768 540.4 591.416C540.856 592.064 541.198 592.766 541.426 593.522C541.654 594.278 541.768 595.004 541.768 595.7C541.768 596.48 541.642 597.254 541.39 598.022C541.15 598.778 540.796 599.468 540.328 600.092C539.86 600.716 539.296 601.22 538.636 601.604C537.976 601.976 537.232 602.168 536.404 602.18ZM532.678 595.7C532.702 596.288 532.792 596.876 532.948 597.464C533.104 598.052 533.338 598.592 533.65 599.084C533.962 599.576 534.346 599.972 534.802 600.272C535.258 600.572 535.792 600.722 536.404 600.722C537.04 600.722 537.592 600.566 538.06 600.254C538.528 599.93 538.912 599.516 539.212 599.012C539.524 598.496 539.752 597.95 539.896 597.374C540.052 596.786 540.13 596.228 540.13 595.7C540.13 595.112 540.046 594.524 539.878 593.936C539.722 593.348 539.482 592.808 539.158 592.316C538.834 591.824 538.444 591.428 537.988 591.128C537.532 590.828 537.004 590.678 536.404 590.678C535.768 590.678 535.216 590.84 534.748 591.164C534.28 591.476 533.89 591.89 533.578 592.406C533.278 592.91 533.05 593.456 532.894 594.044C532.75 594.62 532.678 595.172 532.678 595.7ZM549.515 602V592.604H551.153L554.645 598.76L558.155 592.604H559.757V602H558.245V594.89L555.149 600.326H554.141L551.027 594.89V602H549.515ZM562.834 602V592.604H564.472L567.964 598.76L571.474 592.604H573.076V602H571.564V594.89L568.468 600.326H567.46L564.346 594.89V602H562.834ZM580.22 604.214V600.596H580.418C580.682 600.596 580.922 600.518 581.138 600.362C581.366 600.206 581.564 599.936 581.732 599.552C581.912 599.156 582.056 598.616 582.164 597.932C582.272 597.248 582.344 596.378 582.38 595.322L582.47 592.604H588.86V600.596H590.138V604.214H588.734V602H581.624V604.214H580.22ZM582.632 600.596H587.276V594.008H583.874L583.82 595.466C583.784 596.486 583.712 597.344 583.604 598.04C583.508 598.724 583.376 599.27 583.208 599.678C583.052 600.086 582.86 600.392 582.632 600.596ZM596.543 602.18C595.835 602.18 595.193 602.054 594.617 601.802C594.041 601.538 593.543 601.184 593.123 600.74C592.703 600.284 592.379 599.762 592.151 599.174C591.923 598.586 591.809 597.968 591.809 597.32C591.809 596.66 591.923 596.036 592.151 595.448C592.379 594.86 592.703 594.344 593.123 593.9C593.543 593.444 594.041 593.09 594.617 592.838C595.205 592.574 595.847 592.442 596.543 592.442C597.251 592.442 597.893 592.574 598.469 592.838C599.045 593.09 599.543 593.444 599.963 593.9C600.395 594.344 600.725 594.86 600.953 595.448C601.181 596.036 601.295 596.66 601.295 597.32C601.295 597.968 601.181 598.586 600.953 599.174C600.725 599.762 600.401 600.284 599.981 600.74C599.561 601.184 599.057 601.538 598.469 601.802C597.893 602.054 597.251 602.18 596.543 602.18ZM593.429 597.338C593.429 597.986 593.567 598.574 593.843 599.102C594.131 599.63 594.509 600.05 594.977 600.362C595.445 600.662 595.967 600.812 596.543 600.812C597.119 600.812 597.641 600.656 598.109 600.344C598.589 600.032 598.967 599.612 599.243 599.084C599.531 598.544 599.675 597.95 599.675 597.302C599.675 596.654 599.531 596.066 599.243 595.538C598.967 595.01 598.589 594.59 598.109 594.278C597.641 593.966 597.119 593.81 596.543 593.81C595.967 593.81 595.445 593.972 594.977 594.296C594.509 594.608 594.131 595.028 593.843 595.556C593.567 596.084 593.429 596.678 593.429 597.338ZM615.111 600.56V602H608.757V600.56H611.205V590.75C611.109 590.894 610.953 591.056 610.737 591.236C610.521 591.404 610.269 591.572 609.981 591.74C609.705 591.896 609.423 592.028 609.135 592.136C608.847 592.244 608.583 592.298 608.343 592.298V590.822C608.667 590.822 608.991 590.738 609.315 590.57C609.651 590.402 609.957 590.204 610.233 589.976C610.521 589.748 610.749 589.544 610.917 589.364C611.097 589.184 611.193 589.088 611.205 589.076H612.825V600.56H615.111ZM626.17 597.77C626.17 598.586 625.966 599.33 625.558 600.002C625.162 600.662 624.616 601.19 623.92 601.586C623.236 601.982 622.462 602.18 621.598 602.18C620.686 602.18 619.882 601.964 619.186 601.532C618.49 601.088 617.944 600.452 617.548 599.624C617.164 598.796 616.972 597.812 616.972 596.672C616.972 594.992 617.17 593.594 617.566 592.478C617.962 591.362 618.52 590.528 619.24 589.976C619.96 589.412 620.8 589.13 621.76 589.13C622.588 589.13 623.338 589.334 624.01 589.742C624.694 590.138 625.228 590.69 625.612 591.398L624.64 592.352C624.376 591.788 623.986 591.344 623.47 591.02C622.954 590.684 622.378 590.516 621.742 590.516C621.094 590.516 620.524 590.714 620.032 591.11C619.54 591.506 619.156 592.076 618.88 592.82C618.616 593.564 618.478 594.464 618.466 595.52C618.646 595.1 618.898 594.74 619.222 594.44C619.546 594.128 619.924 593.888 620.356 593.72C620.8 593.552 621.268 593.468 621.76 593.468C622.588 593.468 623.332 593.66 623.992 594.044C624.664 594.428 625.192 594.944 625.576 595.592C625.972 596.24 626.17 596.966 626.17 597.77ZM621.616 600.812C622.168 600.812 622.672 600.674 623.128 600.398C623.596 600.122 623.968 599.756 624.244 599.3C624.52 598.832 624.658 598.322 624.658 597.77C624.658 597.218 624.52 596.714 624.244 596.258C623.968 595.802 623.596 595.436 623.128 595.16C622.672 594.884 622.168 594.746 621.616 594.746C621.064 594.746 620.554 594.884 620.086 595.16C619.63 595.436 619.264 595.802 618.988 596.258C618.712 596.714 618.574 597.218 618.574 597.77C618.574 598.322 618.712 598.832 618.988 599.3C619.264 599.756 619.63 600.122 620.086 600.398C620.554 600.674 621.064 600.812 621.616 600.812ZM638.813 602.18C637.937 602.156 637.163 601.946 636.491 601.55C635.819 601.154 635.255 600.638 634.799 600.002C634.355 599.354 634.019 598.658 633.791 597.914C633.563 597.158 633.449 596.42 633.449 595.7C633.449 594.932 633.569 594.164 633.809 593.396C634.061 592.628 634.421 591.932 634.889 591.308C635.357 590.672 635.921 590.168 636.581 589.796C637.241 589.412 637.985 589.22 638.813 589.22C639.701 589.22 640.475 589.424 641.135 589.832C641.807 590.24 642.365 590.768 642.809 591.416C643.265 592.064 643.607 592.766 643.835 593.522C644.063 594.278 644.177 595.004 644.177 595.7C644.177 596.48 644.051 597.254 643.799 598.022C643.559 598.778 643.205 599.468 642.737 600.092C642.269 600.716 641.705 601.22 641.045 601.604C640.385 601.976 639.641 602.168 638.813 602.18ZM635.087 595.7C635.111 596.288 635.201 596.876 635.357 597.464C635.513 598.052 635.747 598.592 636.059 599.084C636.371 599.576 636.755 599.972 637.211 600.272C637.667 600.572 638.201 600.722 638.813 600.722C639.449 600.722 640.001 600.566 640.469 600.254C640.937 599.93 641.321 599.516 641.621 599.012C641.933 598.496 642.161 597.95 642.305 597.374C642.461 596.786 642.539 596.228 642.539 595.7C642.539 595.112 642.455 594.524 642.287 593.936C642.131 593.348 641.891 592.808 641.567 592.316C641.243 591.824 640.853 591.428 640.397 591.128C639.941 590.828 639.413 590.678 638.813 590.678C638.177 590.678 637.625 590.84 637.157 591.164C636.689 591.476 636.299 591.89 635.987 592.406C635.687 592.91 635.459 593.456 635.303 594.044C635.159 594.62 635.087 595.172 635.087 595.7ZM651.781 602.18C650.905 602.156 650.131 601.946 649.459 601.55C648.787 601.154 648.223 600.638 647.767 600.002C647.323 599.354 646.987 598.658 646.759 597.914C646.531 597.158 646.417 596.42 646.417 595.7C646.417 594.932 646.537 594.164 646.777 593.396C647.029 592.628 647.389 591.932 647.857 591.308C648.325 590.672 648.889 590.168 649.549 589.796C650.209 589.412 650.953 589.22 651.781 589.22C652.669 589.22 653.443 589.424 654.103 589.832C654.775 590.24 655.333 590.768 655.777 591.416C656.233 592.064 656.575 592.766 656.803 593.522C657.031 594.278 657.145 595.004 657.145 595.7C657.145 596.48 657.019 597.254 656.767 598.022C656.527 598.778 656.173 599.468 655.705 600.092C655.237 600.716 654.673 601.22 654.013 601.604C653.353 601.976 652.609 602.168 651.781 602.18ZM648.055 595.7C648.079 596.288 648.169 596.876 648.325 597.464C648.481 598.052 648.715 598.592 649.027 599.084C649.339 599.576 649.723 599.972 650.179 600.272C650.635 600.572 651.169 600.722 651.781 600.722C652.417 600.722 652.969 600.566 653.437 600.254C653.905 599.93 654.289 599.516 654.589 599.012C654.901 598.496 655.129 597.95 655.273 597.374C655.429 596.786 655.507 596.228 655.507 595.7C655.507 595.112 655.423 594.524 655.255 593.936C655.099 593.348 654.859 592.808 654.535 592.316C654.211 591.824 653.821 591.428 653.365 591.128C652.909 590.828 652.381 590.678 651.781 590.678C651.145 590.678 650.593 590.84 650.125 591.164C649.657 591.476 649.267 591.89 648.955 592.406C648.655 592.91 648.427 593.456 648.271 594.044C648.127 594.62 648.055 595.172 648.055 595.7ZM664.748 602.18C663.872 602.156 663.098 601.946 662.426 601.55C661.754 601.154 661.19 600.638 660.734 600.002C660.29 599.354 659.954 598.658 659.726 597.914C659.498 597.158 659.384 596.42 659.384 595.7C659.384 594.932 659.504 594.164 659.744 593.396C659.996 592.628 660.356 591.932 660.824 591.308C661.292 590.672 661.856 590.168 662.516 589.796C663.176 589.412 663.92 589.22 664.748 589.22C665.636 589.22 666.41 589.424 667.07 589.832C667.742 590.24 668.3 590.768 668.744 591.416C669.2 592.064 669.542 592.766 669.77 593.522C669.998 594.278 670.112 595.004 670.112 595.7C670.112 596.48 669.986 597.254 669.734 598.022C669.494 598.778 669.14 599.468 668.672 600.092C668.204 600.716 667.64 601.22 666.98 601.604C666.32 601.976 665.576 602.168 664.748 602.18ZM661.022 595.7C661.046 596.288 661.136 596.876 661.292 597.464C661.448 598.052 661.682 598.592 661.994 599.084C662.306 599.576 662.69 599.972 663.146 600.272C663.602 600.572 664.136 600.722 664.748 600.722C665.384 600.722 665.936 600.566 666.404 600.254C666.872 599.93 667.256 599.516 667.556 599.012C667.868 598.496 668.096 597.95 668.24 597.374C668.396 596.786 668.474 596.228 668.474 595.7C668.474 595.112 668.39 594.524 668.222 593.936C668.066 593.348 667.826 592.808 667.502 592.316C667.178 591.824 666.788 591.428 666.332 591.128C665.876 590.828 665.348 590.678 664.748 590.678C664.112 590.678 663.56 590.84 663.092 591.164C662.624 591.476 662.234 591.89 661.922 592.406C661.622 592.91 661.394 593.456 661.238 594.044C661.094 594.62 661.022 595.172 661.022 595.7ZM677.859 602V592.604H679.497L682.989 598.76L686.499 592.604H688.101V602H686.589V594.89L683.493 600.326H682.485L679.371 594.89V602H677.859ZM691.178 602V592.604H692.816L696.308 598.76L699.818 592.604H701.42V602H699.908V594.89L696.812 600.326H695.804L692.69 594.89V602H691.178ZM704.569 603.458L704.929 601.856H704.389V599.984H705.883V601.856L705.343 603.458H704.569ZM713.927 602V592.604H715.511V600.614H719.219V592.604H720.821V600.614H724.511V592.604H726.095V602H713.927ZM728.46 599.282C728.46 598.682 728.628 598.166 728.964 597.734C729.312 597.29 729.786 596.948 730.386 596.708C730.986 596.468 731.682 596.348 732.474 596.348C732.894 596.348 733.338 596.384 733.806 596.456C734.274 596.516 734.688 596.612 735.048 596.744V596.06C735.048 595.34 734.832 594.776 734.4 594.368C733.968 593.948 733.356 593.738 732.564 593.738C732.048 593.738 731.55 593.834 731.07 594.026C730.602 594.206 730.104 594.47 729.576 594.818L729 593.702C729.612 593.282 730.224 592.97 730.836 592.766C731.448 592.55 732.084 592.442 732.744 592.442C733.944 592.442 734.892 592.778 735.588 593.45C736.284 594.11 736.632 595.034 736.632 596.222V600.2C736.632 600.392 736.668 600.536 736.74 600.632C736.824 600.716 736.956 600.764 737.136 600.776V602C736.98 602.024 736.842 602.042 736.722 602.054C736.614 602.066 736.524 602.072 736.452 602.072C736.08 602.072 735.798 601.97 735.606 601.766C735.426 601.562 735.324 601.346 735.3 601.118L735.264 600.524C734.856 601.052 734.322 601.46 733.662 601.748C733.002 602.036 732.348 602.18 731.7 602.18C731.076 602.18 730.518 602.054 730.026 601.802C729.534 601.538 729.15 601.19 728.874 600.758C728.598 600.314 728.46 599.822 728.46 599.282ZM734.58 599.948C734.724 599.78 734.838 599.612 734.922 599.444C735.006 599.264 735.048 599.114 735.048 598.994V597.824C734.676 597.68 734.286 597.572 733.878 597.5C733.47 597.416 733.068 597.374 732.672 597.374C731.868 597.374 731.214 597.536 730.71 597.86C730.218 598.172 729.972 598.604 729.972 599.156C729.972 599.456 730.05 599.75 730.206 600.038C730.374 600.314 730.614 600.542 730.926 600.722C731.25 600.902 731.646 600.992 732.114 600.992C732.606 600.992 733.074 600.896 733.518 600.704C733.962 600.5 734.316 600.248 734.58 599.948ZM739.687 602V592.604H745.483V594.008H741.271V602H739.687ZM759.002 600.56V602H752.648V600.56H755.096V590.75C755 590.894 754.844 591.056 754.628 591.236C754.412 591.404 754.16 591.572 753.872 591.74C753.596 591.896 753.314 592.028 753.026 592.136C752.738 592.244 752.474 592.298 752.234 592.298V590.822C752.558 590.822 752.882 590.738 753.206 590.57C753.542 590.402 753.848 590.204 754.124 589.976C754.412 589.748 754.64 589.544 754.808 589.364C754.988 589.184 755.084 589.088 755.096 589.076H756.716V600.56H759.002ZM766.155 602.18C765.279 602.156 764.505 601.946 763.833 601.55C763.161 601.154 762.597 600.638 762.141 600.002C761.697 599.354 761.361 598.658 761.133 597.914C760.905 597.158 760.791 596.42 760.791 595.7C760.791 594.932 760.911 594.164 761.151 593.396C761.403 592.628 761.763 591.932 762.231 591.308C762.699 590.672 763.263 590.168 763.923 589.796C764.583 589.412 765.327 589.22 766.155 589.22C767.043 589.22 767.817 589.424 768.477 589.832C769.149 590.24 769.707 590.768 770.151 591.416C770.607 592.064 770.949 592.766 771.177 593.522C771.405 594.278 771.519 595.004 771.519 595.7C771.519 596.48 771.393 597.254 771.141 598.022C770.901 598.778 770.547 599.468 770.079 600.092C769.611 600.716 769.047 601.22 768.387 601.604C767.727 601.976 766.983 602.168 766.155 602.18ZM762.429 595.7C762.453 596.288 762.543 596.876 762.699 597.464C762.855 598.052 763.089 598.592 763.401 599.084C763.713 599.576 764.097 599.972 764.553 600.272C765.009 600.572 765.543 600.722 766.155 600.722C766.791 600.722 767.343 600.566 767.811 600.254C768.279 599.93 768.663 599.516 768.963 599.012C769.275 598.496 769.503 597.95 769.647 597.374C769.803 596.786 769.881 596.228 769.881 595.7C769.881 595.112 769.797 594.524 769.629 593.936C769.473 593.348 769.233 592.808 768.909 592.316C768.585 591.824 768.195 591.428 767.739 591.128C767.283 590.828 766.755 590.678 766.155 590.678C765.519 590.678 764.967 590.84 764.499 591.164C764.031 591.476 763.641 591.89 763.329 592.406C763.029 592.91 762.801 593.456 762.645 594.044C762.501 594.62 762.429 595.172 762.429 595.7ZM779.123 602.18C778.247 602.156 777.473 601.946 776.801 601.55C776.129 601.154 775.565 600.638 775.109 600.002C774.665 599.354 774.329 598.658 774.101 597.914C773.873 597.158 773.759 596.42 773.759 595.7C773.759 594.932 773.879 594.164 774.119 593.396C774.371 592.628 774.731 591.932 775.199 591.308C775.667 590.672 776.231 590.168 776.891 589.796C777.551 589.412 778.295 589.22 779.123 589.22C780.011 589.22 780.785 589.424 781.445 589.832C782.117 590.24 782.675 590.768 783.119 591.416C783.575 592.064 783.917 592.766 784.145 593.522C784.373 594.278 784.487 595.004 784.487 595.7C784.487 596.48 784.361 597.254 784.109 598.022C783.869 598.778 783.515 599.468 783.047 600.092C782.579 600.716 782.015 601.22 781.355 601.604C780.695 601.976 779.951 602.168 779.123 602.18ZM775.397 595.7C775.421 596.288 775.511 596.876 775.667 597.464C775.823 598.052 776.057 598.592 776.369 599.084C776.681 599.576 777.065 599.972 777.521 600.272C777.977 600.572 778.511 600.722 779.123 600.722C779.759 600.722 780.311 600.566 780.779 600.254C781.247 599.93 781.631 599.516 781.931 599.012C782.243 598.496 782.471 597.95 782.615 597.374C782.771 596.786 782.849 596.228 782.849 595.7C782.849 595.112 782.765 594.524 782.597 593.936C782.441 593.348 782.201 592.808 781.877 592.316C781.553 591.824 781.163 591.428 780.707 591.128C780.251 590.828 779.723 590.678 779.123 590.678C778.487 590.678 777.935 590.84 777.467 591.164C776.999 591.476 776.609 591.89 776.297 592.406C775.997 592.91 775.769 593.456 775.613 594.044C775.469 594.62 775.397 595.172 775.397 595.7ZM792.233 602V592.604H793.871L797.363 598.76L800.873 592.604H802.475V602H800.963V594.89L797.867 600.326H796.859L793.745 594.89V602H792.233ZM805.553 602V592.604H807.191L810.683 598.76L814.193 592.604H815.795V602H814.283V594.89L811.187 600.326H810.179L807.065 594.89V602H805.553Z" fill="black"/>
<rect x="481" y="680" width="56" height="31" rx="7" fill="#009FE2"/>
<path d="M505.8 688H511.8C513.94 688 515.74 689.78 515.8 692H513.8C513.8 690.9 512.9 690 511.8 690H505.8C504.7 690 503.8 690.9 503.8 692V698C503.8 699.1 504.7 700 505.8 700H511.8C512.9 700 513.8 699.1 513.8 698H515.8C515.8 700.12 514.04 702 511.8 702H505.8C503.66 702 501.8 700.26 501.8 698V692C501.8 689.84 503.56 688.06 505.8 688Z" fill="white"/>
<path d="M495.3 727.8H484.3V741H482.1V725.6H495.3V727.8ZM500.809 725.6H511.809V741H509.609V727.8H500.809C499.599 727.8 498.609 728.79 498.609 730V741H496.409V730C496.409 727.624 498.345 725.666 500.809 725.6ZM518.624 738.8H524.784C525.994 738.8 526.984 737.81 526.984 736.6V734.4H518.184C515.83 734.4 513.784 732.486 513.784 730V725.6H515.984V730C515.984 731.21 516.974 732.2 518.184 732.2H526.984V725.6H529.184V736.6C529.184 738.932 527.248 741 524.784 741H518.624C516.226 741 514.29 739.086 514.224 736.6H516.424C516.424 737.81 517.414 738.8 518.624 738.8ZM544.585 736.6V735.874C544.585 734.664 543.595 733.674 542.385 733.674H533.585V738.8H542.385C543.595 738.8 544.585 737.81 544.585 736.6ZM546.785 735.874V736.6C546.785 738.932 544.849 741 542.385 741H531.385V725.6H544.585V727.8H533.585V731.474H542.385C544.739 731.474 546.719 733.432 546.785 735.874ZM548.551 741V725.6H550.751V737.81L561.751 725.6H563.951V741H561.751V728.57L550.751 741H548.551ZM568.347 725.6V732.2H579.347V725.6H581.547V741H579.347V734.4H568.347V741H566.147V725.6H568.347ZM594.743 727.8H588.143C586.933 727.8 585.943 728.79 585.943 730V734.4H596.943V730C596.943 728.79 595.953 727.8 594.743 727.8ZM599.143 730V741H596.943V736.6H585.943V741H583.743V730C583.743 727.668 585.679 725.6 588.143 725.6H594.743C597.097 725.6 599.077 727.558 599.143 730Z" fill="black"/>
<path opacity="0.8" d="M481.234 780.214V776.596H481.432C481.696 776.596 481.936 776.518 482.152 776.362C482.38 776.206 482.578 775.936 482.746 775.552C482.926 775.156 483.07 774.616 483.178 773.932C483.286 773.248 483.358 772.378 483.394 771.322L483.484 768.604H489.874V776.596H491.152V780.214H489.748V778H482.638V780.214H481.234ZM483.646 776.596H488.29V770.008H484.888L484.834 771.466C484.798 772.486 484.726 773.344 484.618 774.04C484.522 774.724 484.39 775.27 484.222 775.678C484.066 776.086 483.874 776.392 483.646 776.596ZM497.557 778.18C496.849 778.18 496.207 778.054 495.631 777.802C495.055 777.538 494.557 777.184 494.137 776.74C493.717 776.284 493.393 775.762 493.165 775.174C492.937 774.586 492.823 773.968 492.823 773.32C492.823 772.66 492.937 772.036 493.165 771.448C493.393 770.86 493.717 770.344 494.137 769.9C494.557 769.444 495.055 769.09 495.631 768.838C496.219 768.574 496.861 768.442 497.557 768.442C498.265 768.442 498.907 768.574 499.483 768.838C500.059 769.09 500.557 769.444 500.977 769.9C501.409 770.344 501.739 770.86 501.967 771.448C502.195 772.036 502.309 772.66 502.309 773.32C502.309 773.968 502.195 774.586 501.967 775.174C501.739 775.762 501.415 776.284 500.995 776.74C500.575 777.184 500.071 777.538 499.483 777.802C498.907 778.054 498.265 778.18 497.557 778.18ZM494.443 773.338C494.443 773.986 494.581 774.574 494.857 775.102C495.145 775.63 495.523 776.05 495.991 776.362C496.459 776.662 496.981 776.812 497.557 776.812C498.133 776.812 498.655 776.656 499.123 776.344C499.603 776.032 499.981 775.612 500.257 775.084C500.545 774.544 500.689 773.95 500.689 773.302C500.689 772.654 500.545 772.066 500.257 771.538C499.981 771.01 499.603 770.59 499.123 770.278C498.655 769.966 498.133 769.81 497.557 769.81C496.981 769.81 496.459 769.972 495.991 770.296C495.523 770.608 495.145 771.028 494.857 771.556C494.581 772.084 494.443 772.678 494.443 773.338ZM515.711 766.678H509.159V765.22H518.231L511.787 778H510.005L515.711 766.678ZM530.041 778.18C529.165 778.156 528.391 777.946 527.719 777.55C527.047 777.154 526.483 776.638 526.027 776.002C525.583 775.354 525.247 774.658 525.019 773.914C524.791 773.158 524.677 772.42 524.677 771.7C524.677 770.932 524.797 770.164 525.037 769.396C525.289 768.628 525.649 767.932 526.117 767.308C526.585 766.672 527.149 766.168 527.809 765.796C528.469 765.412 529.213 765.22 530.041 765.22C530.929 765.22 531.703 765.424 532.363 765.832C533.035 766.24 533.593 766.768 534.037 767.416C534.493 768.064 534.835 768.766 535.063 769.522C535.291 770.278 535.405 771.004 535.405 771.7C535.405 772.48 535.279 773.254 535.027 774.022C534.787 774.778 534.433 775.468 533.965 776.092C533.497 776.716 532.933 777.22 532.273 777.604C531.613 777.976 530.869 778.168 530.041 778.18ZM526.315 771.7C526.339 772.288 526.429 772.876 526.585 773.464C526.741 774.052 526.975 774.592 527.287 775.084C527.599 775.576 527.983 775.972 528.439 776.272C528.895 776.572 529.429 776.722 530.041 776.722C530.677 776.722 531.229 776.566 531.697 776.254C532.165 775.93 532.549 775.516 532.849 775.012C533.161 774.496 533.389 773.95 533.533 773.374C533.689 772.786 533.767 772.228 533.767 771.7C533.767 771.112 533.683 770.524 533.515 769.936C533.359 769.348 533.119 768.808 532.795 768.316C532.471 767.824 532.081 767.428 531.625 767.128C531.169 766.828 530.641 766.678 530.041 766.678C529.405 766.678 528.853 766.84 528.385 767.164C527.917 767.476 527.527 767.89 527.215 768.406C526.915 768.91 526.687 769.456 526.531 770.044C526.387 770.62 526.315 771.172 526.315 771.7ZM543.009 778.18C542.133 778.156 541.359 777.946 540.687 777.55C540.015 777.154 539.451 776.638 538.995 776.002C538.551 775.354 538.215 774.658 537.987 773.914C537.759 773.158 537.645 772.42 537.645 771.7C537.645 770.932 537.765 770.164 538.005 769.396C538.257 768.628 538.617 767.932 539.085 767.308C539.553 766.672 540.117 766.168 540.777 765.796C541.437 765.412 542.181 765.22 543.009 765.22C543.897 765.22 544.671 765.424 545.331 765.832C546.003 766.24 546.561 766.768 547.005 767.416C547.461 768.064 547.803 768.766 548.031 769.522C548.259 770.278 548.373 771.004 548.373 771.7C548.373 772.48 548.247 773.254 547.995 774.022C547.755 774.778 547.401 775.468 546.933 776.092C546.465 776.716 545.901 777.22 545.241 777.604C544.581 777.976 543.837 778.168 543.009 778.18ZM539.283 771.7C539.307 772.288 539.397 772.876 539.553 773.464C539.709 774.052 539.943 774.592 540.255 775.084C540.567 775.576 540.951 775.972 541.407 776.272C541.863 776.572 542.397 776.722 543.009 776.722C543.645 776.722 544.197 776.566 544.665 776.254C545.133 775.93 545.517 775.516 545.817 775.012C546.129 774.496 546.357 773.95 546.501 773.374C546.657 772.786 546.735 772.228 546.735 771.7C546.735 771.112 546.651 770.524 546.483 769.936C546.327 769.348 546.087 768.808 545.763 768.316C545.439 767.824 545.049 767.428 544.593 767.128C544.137 766.828 543.609 766.678 543.009 766.678C542.373 766.678 541.821 766.84 541.353 767.164C540.885 767.476 540.495 767.89 540.183 768.406C539.883 768.91 539.655 769.456 539.499 770.044C539.355 770.62 539.283 771.172 539.283 771.7ZM555.976 778.18C555.1 778.156 554.326 777.946 553.654 777.55C552.982 777.154 552.418 776.638 551.962 776.002C551.518 775.354 551.182 774.658 550.954 773.914C550.726 773.158 550.612 772.42 550.612 771.7C550.612 770.932 550.732 770.164 550.972 769.396C551.224 768.628 551.584 767.932 552.052 767.308C552.52 766.672 553.084 766.168 553.744 765.796C554.404 765.412 555.148 765.22 555.976 765.22C556.864 765.22 557.638 765.424 558.298 765.832C558.97 766.24 559.528 766.768 559.972 767.416C560.428 768.064 560.77 768.766 560.998 769.522C561.226 770.278 561.34 771.004 561.34 771.7C561.34 772.48 561.214 773.254 560.962 774.022C560.722 774.778 560.368 775.468 559.9 776.092C559.432 776.716 558.868 777.22 558.208 777.604C557.548 777.976 556.804 778.168 555.976 778.18ZM552.25 771.7C552.274 772.288 552.364 772.876 552.52 773.464C552.676 774.052 552.91 774.592 553.222 775.084C553.534 775.576 553.918 775.972 554.374 776.272C554.83 776.572 555.364 776.722 555.976 776.722C556.612 776.722 557.164 776.566 557.632 776.254C558.1 775.93 558.484 775.516 558.784 775.012C559.096 774.496 559.324 773.95 559.468 773.374C559.624 772.786 559.702 772.228 559.702 771.7C559.702 771.112 559.618 770.524 559.45 769.936C559.294 769.348 559.054 768.808 558.73 768.316C558.406 767.824 558.016 767.428 557.56 767.128C557.104 766.828 556.576 766.678 555.976 766.678C555.34 766.678 554.788 766.84 554.32 767.164C553.852 767.476 553.462 767.89 553.15 768.406C552.85 768.91 552.622 769.456 552.466 770.044C552.322 770.62 552.25 771.172 552.25 771.7ZM569.087 778V768.604H570.725L574.217 774.76L577.727 768.604H579.329V778H577.817V770.89L574.721 776.326H573.713L570.599 770.89V778H569.087ZM582.406 778V768.604H584.044L587.536 774.76L591.046 768.604H592.648V778H591.136V770.89L588.04 776.326H587.032L583.918 770.89V778H582.406Z" fill="black"/>
<path d="M579 408H883" stroke="#C1C1C1"/>
<path d="M360 1.00005L883 1" stroke="#C1C1C1"/>
<path d="M375 78L803 78.0001" stroke="#C1C1C1"/>
<path d="M849 1.00005L843.226 11L854.774 11L849 1.00005ZM849 407.648L854.774 397.648L843.227 397.648L849 407.648ZM848 10L848 398.648L850 398.648L850 10L848 10Z" fill="#009FE2"/>
<path d="M773 78L767.226 88L778.774 88L773 78ZM773 408L778.774 398L767.227 398L773 408ZM772 87L772 399L774 399L774 87L772 87Z" fill="#009FE2"/>
<path d="M190.769 29.2395V77.8113L221.634 107.152C255.605 139.445 308.925 139.445 342.895 107.152L373.761 77.8113V29.2395M190.769 29.2395H373.761M190.769 29.2395H177.214V1.00005H385.056V29.2395H373.761" stroke="#3F444D" stroke-width="2"/>
<path d="M373.761 77.8111H549.975C624.836 77.8111 685.524 138.499 685.524 213.36V272.098C685.524 346.96 624.836 407.648 549.975 407.648H136.549C61.6875 407.648 1 346.96 1 272.098V213.36C1 138.499 61.6875 77.8111 136.549 77.8111H190.769" stroke="#3F444D" stroke-width="2"/>
<path d="M635.823 109.44H682.135V155.752H671.969M51.831 108.31H2.12964V154.623H15.6846M125.254 78.941V405.389M152.363 78.941V405.389M538.679 78.941V405.389M565.789 78.941V405.389" stroke="#3F444D" stroke-width="2"/>
<path d="M2 236L12 241.774L12 230.227L2 236ZM686 236L676 230.227L676 241.774L686 236ZM11 237L677 237L677 235L11 235L11 237Z" fill="#009FE2"/>
<path d="M796 208C799.866 208 803 211.134 803 215L803 257C803 260.866 799.866 264 796 264L772 264L772 208L796 208Z" fill="#009FE2"/>
<path d="M793 239L793 233C793 231.9 792.1 231 791 231L787 231L787 241L791 241C792.1 241 793 240.1 793 239ZM791 243L781 243L781 241L785 241L785 231L781 231L781 229L791 229C793.12 229 795 230.76 795 233L795 239C795 241.14 793.22 242.94 791 243Z" fill="white"/>
<path d="M873 176C876.866 176 880 179.134 880 183L880 225C880 228.866 876.866 232 873 232L849 232L849 176L873 176Z" fill="#009FE2"/>
<path d="M858 207L858 197L872 197L872 207C872 209.1 870.22 211 868 211C866.8 211 865.8 210.54 865 209.64C864.2 210.54 863.2 211 862 211C859.84 211 858.06 209.24 858 207ZM864 207L864 199L860 199L860 207C860 208.1 860.9 209 862 209C863.1 209 864 208.1 864 207ZM870 199L866 199L866 207C866 208.1 866.9 209 868 209C869.1 209 870 208.1 870 207L870 199Z" fill="white"/>
<path d="M316 211C316 207.134 319.134 204 323 204H365C368.866 204 372 207.134 372 211V235H316V211Z" fill="#009FE2"/>
<path d="M340.8 212H346.8C348.94 212 350.74 213.78 350.8 216H348.8C348.8 214.9 347.9 214 346.8 214H340.8C339.7 214 338.8 214.9 338.8 216V222C338.8 223.1 339.7 224 340.8 224H346.8C347.9 224 348.8 223.1 348.8 222H350.8C350.8 224.12 349.04 226 346.8 226H340.8C338.66 226 336.8 224.26 336.8 222V216C336.8 213.84 338.56 212.06 340.8 212Z" fill="white"/>
</svg>
