<svg width="277" height="282" viewBox="0 0 277 282" fill="none" xmlns="http://www.w3.org/2000/svg">
<path d="M167.624 174.622H146.147L190.35 80.1482L190.682 79.4381L189.898 79.4363L67.1711 79.1501L78.2404 58.8469L221.3 59.1082L218 66.4379L217.683 67.1431H217.911L167.624 174.622Z" stroke="#009FE2"/>
<path d="M130.182 183.337L129.839 184.056L130.636 184.052L271.035 183.385L270.879 183.878L270.879 183.878C267.523 194.512 262.929 204.666 257.23 214.135L257.658 214.392L257.23 214.135C251.52 223.625 244.694 232.434 236.888 240.348L236.888 240.348C223.867 253.564 208.597 263.852 191.974 270.837C175.36 277.819 157.394 281.5 138.975 281.5C120.556 281.5 102.592 277.819 85.9778 270.837C69.3556 263.852 54.0823 253.564 41.0617 240.351L40.7056 240.702L41.0617 240.351C28.041 227.14 17.8973 211.647 11.0115 194.78L10.5485 194.969L11.0114 194.78C4.12829 177.923 0.5 159.692 0.5 141.004C0.5 122.314 4.12829 104.086 11.0115 87.2251C17.8973 70.3589 28.0383 54.8652 41.0617 41.6521L41.0617 41.6521C54.0823 28.4391 69.3556 18.1513 85.9778 11.1659L85.9779 11.1659C102.595 4.18052 120.558 0.5 138.977 0.5C157.396 0.5 175.36 4.18052 191.977 11.1604C208.599 18.1457 223.87 28.4336 236.893 41.6466C247.628 52.5372 256.46 65.0516 263.106 78.6595C269.736 92.2287 274.197 106.894 276.211 122.129L276.266 122.558H258.411L258.363 122.236L258.363 122.235C256.418 109.38 252.469 97.0235 246.746 85.5848C241.014 74.1264 233.485 63.5725 224.394 54.3486L224.038 54.6996L224.394 54.3486C213.026 42.8182 199.708 33.8382 185.219 27.752C170.728 21.6631 155.053 18.4546 138.975 18.4546C122.899 18.4546 107.224 21.6631 92.7302 27.7548C78.2448 33.841 64.9233 42.8182 53.5584 54.3486C42.1907 65.8818 33.3432 79.3937 27.3451 94.0882C21.3444 108.788 18.1826 124.692 18.1826 140.999C18.1826 157.305 21.3444 173.209 27.3479 187.909C33.3459 202.603 42.1934 216.118 53.5611 227.646C64.9261 239.179 78.2475 248.153 92.7328 254.242C107.224 260.334 122.899 263.543 138.975 263.543C155.053 263.543 170.728 260.334 185.219 254.245C199.708 248.156 213.026 239.179 224.394 227.649L224.394 227.648C227.693 224.298 230.798 220.765 233.683 217.072L233.289 216.764L233.683 217.072C236.576 213.369 239.258 209.504 241.702 205.503L241.703 205.501L241.952 205.091L242.412 204.332H241.524H98.136L142.344 110.227L142.68 109.512L141.89 109.514C123.15 109.571 104.401 109.552 85.6584 109.533L83.7306 109.531L61.454 109.512L61.448 109.512L60.5937 109.501L60.2456 109.496L60.1206 109.821C54.8237 123.585 53.2223 138.31 55.1287 152.546C57.5571 170.667 65.6749 188.016 79.0748 201.611C87.0148 209.669 96.3239 215.933 106.455 220.182C116.595 224.44 127.573 226.678 138.819 226.678H200.311L199.362 227.363C189.81 234.263 179.239 239.421 168.127 242.702C156.999 245.99 145.316 247.393 133.568 246.789C120.607 246.125 108.024 243.055 96.3984 237.826C84.7889 232.606 74.1196 225.231 64.9667 215.942L64.6105 216.293L64.9666 215.942C55.9795 206.824 48.8026 196.214 43.6754 184.674L43.2184 184.877L43.6753 184.674C38.5345 173.109 35.4432 160.6 34.6384 147.699L34.1394 147.73L34.6384 147.698C34.1381 139.707 34.5269 131.749 35.764 123.962L35.7702 123.923V123.918C38.4121 107.346 42.623 98.6008 48.0864 89.2071C59.7418 89.2071 71.5863 89.2043 83.5141 89.2014C114.078 89.1942 145.189 89.1868 175.07 89.2255L130.182 183.337Z" stroke="#3F444D"/>
</svg>
