<svg width="834" height="605" viewBox="0 0 834 605" fill="none" xmlns="http://www.w3.org/2000/svg">
<path d="M520.982 0L209.003 309.883C219.59 309.221 236.95 308.89 248.211 308.89C304.261 308.89 330.874 326.267 346.127 341.183C361.744 356.442 369.53 375.959 369.53 403.276V503.167C369.53 513.814 369.53 523.39 371.317 528.741C375.21 538.296 394.732 574.858 394.732 574.858L348.037 605L309.235 576.282C301.415 580.518 280.129 592.224 269.497 596.494C250.692 603.941 231.535 605 222.337 605C206.709 605 186.481 601.812 166.982 590.823C147.118 579.834 124.421 555.33 124.421 513.461C124.421 434.686 203.885 425.11 247.141 424.746L295.404 424.404V405.405C295.404 386.583 287.496 378.022 277.57 371.281C267.986 364.529 244.659 362.83 226.583 362.83H156.085L0 523.147V605H348.037H540.503H480.965L382.666 312.63H468.141L535.551 534.412H540.503L607.902 312.63H692.34L623.441 520.842L833.622 310.578V0H520.982ZM197.146 511.331C197.146 525.531 205.319 541.484 218.09 547.508C246.446 561.718 287.265 540.8 296.838 534.401V473.356H251.067C202.451 473.356 197.146 496.812 197.146 511.331Z" fill="#FF0022" style="mix-blend-mode:darken"/>
</svg>
