<svg width="1172" height="850" viewBox="0 0 1172 850" fill="none" xmlns="http://www.w3.org/2000/svg">
<path d="M732.413 0.5H1171.1V436.143L877.345 729.917L973.515 439.39L973.733 438.733H973.04H854.367H853.997L853.889 439.087L759.272 750.327H753.054L658.422 439.087L658.314 438.733H657.943H537.813H537.117L537.339 439.392L675.27 849.5H490.841L555.042 808.072L555.429 807.823L555.212 807.417L554.771 807.652C555.212 807.417 555.212 807.417 555.212 807.416L555.211 807.414L555.207 807.407L555.192 807.379L555.133 807.269L554.903 806.837C554.7 806.457 554.403 805.899 554.023 805.184C553.262 803.753 552.169 801.695 550.84 799.182C548.183 794.157 544.583 787.318 540.812 780.059C533.27 765.541 525.063 749.38 522.332 742.686C521.103 738.997 520.478 733.817 520.165 727.659C519.852 721.501 519.852 714.412 519.852 706.929V566.586C519.852 528.097 508.871 500.539 486.809 478.991C465.274 457.939 427.744 433.478 348.845 433.478C333.475 433.478 310.018 433.917 295.033 434.794L732.413 0.5ZM487.628 849.5H331.966C345.409 848.153 362.273 845.114 378.945 838.514L378.947 838.513C392.663 833.007 418.937 818.733 431.692 811.804C432.749 811.23 433.712 810.707 434.568 810.243L487.628 849.5ZM294.343 849.5H0.5V735.203L219.579 510.261H318.448C331.138 510.261 345.661 510.857 358.686 512.636C371.736 514.417 383.192 517.375 389.82 522.043L389.827 522.048C396.773 526.764 402.973 532.09 407.443 539.499C411.91 546.904 414.672 556.429 414.672 569.578V595.773L347.338 596.25C316.922 596.506 273.71 599.998 238.087 617.31C220.268 625.97 204.332 638.095 192.852 655.016C181.369 671.941 174.365 693.634 174.365 721.391C174.365 780.426 206.391 815.007 234.44 830.519C254.872 842.028 275.866 847.466 294.343 849.5ZM306.736 768.779L306.726 768.774C288.989 760.411 277.577 738.201 277.577 718.399C277.577 708.253 279.432 695.072 289.705 684.42C299.979 673.768 318.766 665.546 352.859 665.546H416.687V750.543C409.837 755.072 392.335 764.501 371.612 770.396C350.648 776.36 326.494 778.677 306.736 768.779Z" stroke="white" stroke-opacity="0.15"/>
</svg>
