<svg xmlns="http://www.w3.org/2000/svg"
 xmlns:xlink="http://www.w3.org/1999/xlink"
 width="32px" height="14px"  viewBox="0 0 32 14">
<path fill-rule="evenodd"  fill="#0e1115"
 d="M1.9998779,6.0 C1.9998779,6.0 29.999939,6.0 29.999939,6.0 C29.999939,6.0 29.999939,7.0 29.999939,7.0 C29.999939,7.0 1.9998779,7.0 1.9998779,7.0 C1.9998779,7.0 1.9998779,6.0 1.9998779,6.0 ZM24.044067,2.050293 C24.044067,2.050293 24.75122,1.3427734 24.75122,1.3427734 C24.75122,1.3427734 29.700867,6.2924805 29.700867,6.2924805 C29.700867,6.2924805 28.993774,7.0 28.993774,7.0 C28.993774,7.0 24.044067,2.050293 24.044067,2.050293 ZM24.01361,11.324219 C24.01361,11.324219 24.763672,12.074219 24.763672,12.074219 C24.763672,12.074219 30.014221,6.8237305 30.014221,6.8237305 C30.014221,6.8237305 29.26416,6.0737305 29.26416,6.0737305 C29.26416,6.0737305 24.01361,11.324219 24.01361,11.324219 Z"/>
</svg>