<?xml version="1.0" encoding="utf-8"?>
<!-- Generator: Adobe Illustrator 24.3.0, SVG Export Plug-In . SVG Version: 6.00 Build 0)  -->
<svg version="1.1" id="Objects" xmlns="http://www.w3.org/2000/svg" xmlns:xlink="http://www.w3.org/1999/xlink" x="0px" y="0px"
	 width="355.765px" height="355.765px" viewBox="0 0 355.765 355.765" enable-background="new 0 0 355.765 355.765"
	 xml:space="preserve">
<g>
	<path fill="#6CE8D2" d="M66.121,41.008v5.314c0,1.606-1.333,2.908-2.977,2.908h-6.547v6.415c0,1.606-1.333,2.908-2.977,2.908
		h-5.481c-1.644,0-2.977-1.302-2.977-2.908V49.23h-6.547c-1.644,0-2.977-1.302-2.977-2.908v-5.314c0-1.606,1.333-2.908,2.977-2.908
		h6.547v-6.415c0-1.606,1.333-2.908,2.977-2.908h5.481c1.644,0,2.977,1.302,2.977,2.908V38.1h6.547
		C64.788,38.1,66.121,39.402,66.121,41.008z"/>
</g>
<g>
	<path fill="#6CE8D2" d="M316.143,41.008v5.314c0,1.606-1.333,2.908-2.977,2.908h-6.547v6.415c0,1.606-1.333,2.908-2.977,2.908
		h-5.481c-1.644,0-2.977-1.302-2.977-2.908V49.23h-6.547c-1.644,0-2.977-1.302-2.977-2.908v-5.314c0-1.606,1.333-2.908,2.977-2.908
		h6.547v-6.415c0-1.606,1.333-2.908,2.977-2.908h5.481c1.644,0,2.977,1.302,2.977,2.908V38.1h6.547
		C314.81,38.1,316.143,39.402,316.143,41.008z"/>
</g>
<g>
	<path fill="#6CE8D2" d="M192.116,181.051v5.314c0,1.606-1.333,2.908-2.977,2.908h-6.547v6.415c0,1.606-1.333,2.908-2.977,2.908
		h-5.481c-1.644,0-2.977-1.302-2.977-2.908v-6.415h-6.547c-1.644,0-2.977-1.302-2.977-2.908v-5.314c0-1.606,1.333-2.908,2.977-2.908
		h6.547v-6.415c0-1.606,1.333-2.908,2.977-2.908h5.481c1.644,0,2.977,1.302,2.977,2.908v6.415h6.547
		C190.783,178.144,192.116,179.446,192.116,181.051z"/>
</g>
<g>
	<path fill="#6CE8D2" d="M63.4,330.428l-3.757,3.757c-1.136,1.136-2.998,1.114-4.161-0.049l-4.629-4.629l-4.536,4.536
		c-1.136,1.136-2.998,1.114-4.161-0.049l-3.876-3.876c-1.162-1.162-1.184-3.025-0.049-4.161l4.536-4.536l-4.629-4.629
		c-1.162-1.162-1.184-3.025-0.049-4.161l3.757-3.757c1.136-1.136,2.998-1.114,4.161,0.049l4.629,4.629l4.536-4.536
		c1.136-1.136,2.998-1.114,4.161,0.049l3.876,3.876c1.163,1.163,1.184,3.025,0.049,4.161l-4.536,4.536l4.629,4.629
		C64.513,327.43,64.535,329.293,63.4,330.428z"/>
</g>
<g>
	<path fill="#6CE8D2" d="M313.558,330.428l-3.757,3.757c-1.136,1.136-2.998,1.114-4.161-0.049l-4.629-4.629l-4.536,4.536
		c-1.136,1.136-2.998,1.114-4.161-0.049l-3.876-3.876c-1.162-1.162-1.184-3.025-0.049-4.161l4.536-4.536l-4.629-4.629
		c-1.162-1.162-1.184-3.025-0.049-4.161l3.757-3.757c1.136-1.136,2.998-1.114,4.161,0.049l4.629,4.629l4.536-4.536
		c1.136-1.136,2.998-1.114,4.161,0.049l3.876,3.876c1.163,1.163,1.184,3.025,0.049,4.161l-4.536,4.536l4.629,4.629
		C314.671,327.43,314.693,329.293,313.558,330.428z"/>
</g>
</svg>
