<svg width="25" height="24" viewBox="0 0 25 24" fill="none" xmlns="http://www.w3.org/2000/svg">
<path d="M4.50488 16V4H2.50488V2H5.50488C6.05717 2 6.50488 2.44772 6.50488 3V15H18.9433L20.9433 7H8.50488V5H22.2241C22.7764 5 23.2241 5.44772 23.2241 6C23.2241 6.08176 23.2141 6.16322 23.1942 6.24254L20.6942 16.2425C20.583 16.6877 20.183 17 19.7241 17H5.50488C4.9526 17 4.50488 16.5523 4.50488 16ZM6.50488 23C5.40031 23 4.50488 22.1046 4.50488 21C4.50488 19.8954 5.40031 19 6.50488 19C7.60945 19 8.50488 19.8954 8.50488 21C8.50488 22.1046 7.60945 23 6.50488 23ZM18.5049 23C17.4003 23 16.5049 22.1046 16.5049 21C16.5049 19.8954 17.4003 19 18.5049 19C19.6095 19 20.5049 19.8954 20.5049 21C20.5049 22.1046 19.6095 23 18.5049 23Z" fill="white"/>
</svg>
