<svg width="20" height="20" viewBox="0 0 20 20" fill="none" xmlns="http://www.w3.org/2000/svg">
<g id="Frame">
<path id="Vector" d="M7.47014 15.0001C7.26796 16.4135 6.05237 17.5001 4.58301 17.5001C3.11364 17.5001 1.89806 16.4135 1.69587 15.0001H0.833008V5.00008C0.833008 4.53985 1.20611 4.16675 1.66634 4.16675H13.333C13.7933 4.16675 14.1663 4.53985 14.1663 5.00008V6.66675H16.6663L19.1663 10.0465V15.0001H17.4702C17.2679 16.4135 16.0523 17.5001 14.583 17.5001C13.1137 17.5001 11.8981 16.4135 11.6958 15.0001H7.47014ZM12.4997 5.83341H2.49967V12.5422C3.02906 12.0019 3.76689 11.6667 4.58301 11.6667C5.74651 11.6667 6.75088 12.348 7.21899 13.3334H11.947C12.0868 13.0392 12.2743 12.7721 12.4997 12.5422V5.83341ZM14.1663 10.8334H17.4997V10.5959L15.8261 8.33341H14.1663V10.8334ZM14.583 15.8334C15.1273 15.8334 15.5903 15.4856 15.7618 15.0001C15.8079 14.8697 15.833 14.7295 15.833 14.5834C15.833 13.8931 15.2733 13.3334 14.583 13.3334C13.8927 13.3334 13.333 13.8931 13.333 14.5834C13.333 14.7295 13.3581 14.8697 13.4042 15.0001C13.5758 15.4856 14.0388 15.8334 14.583 15.8334ZM5.83301 14.5834C5.83301 13.8931 5.27337 13.3334 4.58301 13.3334C3.89265 13.3334 3.33301 13.8931 3.33301 14.5834C3.33301 14.7295 3.35807 14.8697 3.40413 15.0001C3.57573 15.4856 4.03875 15.8334 4.58301 15.8334C5.12727 15.8334 5.59028 15.4856 5.76188 15.0001C5.80794 14.8697 5.83301 14.7295 5.83301 14.5834Z" fill="#05251D"/>
</g>
</svg>
