<svg width="1172" height="850" viewBox="0 0 1172 850" fill="none" xmlns="http://www.w3.org/2000/svg">
<path d="M732.207 0L293.74 435.373C308.621 434.443 333.019 433.978 348.845 433.978C427.619 433.978 465.022 458.392 486.46 479.349C508.408 500.786 519.352 528.207 519.352 566.586V706.929C519.352 721.887 519.352 735.342 521.863 742.86C527.335 756.283 554.771 807.652 554.771 807.652L489.144 850L434.61 809.652C423.62 815.604 393.704 832.05 378.761 838.049C352.332 848.512 325.408 850 312.48 850C290.516 850 262.088 845.52 234.682 830.082C206.766 814.643 174.865 780.216 174.865 721.391C174.865 610.716 286.548 597.262 347.341 596.75L415.172 596.27V569.578C415.172 543.134 404.058 531.105 390.107 521.634C376.637 512.148 343.854 509.761 318.448 509.761H219.368L0 735V850H489.144H759.643H675.965L537.813 439.233H657.943L752.683 750.827H759.643L854.367 439.233H973.04L876.208 731.761L1171.6 436.35V0H732.207ZM277.077 718.399C277.077 738.349 288.563 760.763 306.512 769.226C346.365 789.191 403.733 759.802 417.187 750.811V665.046H352.859C284.533 665.046 277.077 698.001 277.077 718.399Z" fill="white" fill-opacity="0.4"/>
</svg>
