<svg width="149" height="41" viewBox="0 0 149 41" fill="none" xmlns="http://www.w3.org/2000/svg">
<g clip-path="url(#clip0_104_1070)">
<path d="M34.8103 11.7595C31.1393 11.7595 28.7184 13.5796 28.4344 16.07H31.4716C31.8406 14.7176 32.9593 14.0201 34.8026 14.0201C36.5415 14.0201 37.9306 14.8258 38.377 16.1454H33.7592V18.406H38.4233C38.1007 20.1062 36.7038 21.0935 34.8026 21.0935C32.8376 21.0935 31.6262 20.2279 31.4426 18.7866H28.3918C28.6836 21.505 31.1393 23.3579 34.8103 23.3579C38.9044 23.3579 41.4838 21.0394 41.4838 17.5616C41.4838 14.0838 38.9044 11.7653 34.8103 11.7653V11.7595Z" fill="#264E86"/>
<path d="M53.2176 12.0493H49.6278L44.9308 16.2826V12.0493H42.1409V23.0681H44.9308V19.258L46.3432 18.0118L50.3948 23.0681H53.8146L48.3081 16.3289L53.2176 12.0493Z" fill="#264E86"/>
<path d="M58.7799 11.7595C54.6839 11.7595 52.1064 14.0664 52.1064 17.5558C52.1064 21.0451 54.6839 23.3521 58.7799 23.3521C62.4509 23.3521 64.9028 21.4992 65.1926 18.7826H62.1418C61.9486 20.224 60.7449 21.0896 58.7799 21.0896C56.5561 21.0896 55.1746 19.7545 55.1746 17.5519C55.1746 15.3493 56.5561 14.0142 58.7799 14.0142C60.6212 14.0142 61.7418 14.7117 62.1089 16.0642H65.1443C64.866 13.5737 62.4393 11.7537 58.7683 11.7537L58.7799 11.7595Z" fill="#264E86"/>
<path d="M76.9044 12.0493H65.9648V23.0681H68.7567V14.3099H74.1125V23.0681H76.9044V12.0493Z" fill="#264E86"/>
<path d="M84.237 21.0954C82.0151 21.0954 80.6336 19.7584 80.6336 17.5578C80.6336 15.3571 82.0151 14.0201 84.237 14.0201C86.4589 14.0201 87.8288 15.3416 87.8288 17.5578C87.8288 19.7739 86.4628 21.0954 84.237 21.0954ZM84.237 11.7595C80.1429 11.7595 77.5654 14.0665 77.5654 17.5558C77.5654 21.0452 80.1429 23.3521 84.237 23.3521C88.3311 23.3521 90.8969 21.0336 90.8969 17.5558C90.8969 14.078 88.335 11.7595 84.237 11.7595Z" fill="#264E86"/>
<path d="M102.608 12.0493H99.8159V20.8075H94.462V12.0493H91.6682V23.0681H101.244V24.7316H103.914V20.8075H102.608V12.0493Z" fill="#264E86"/>
<path d="M114.537 12.0493H104.642V23.0681H114.537V20.8075H107.434V18.4079H113.754V16.1473H107.434V14.3099H114.537V12.0493Z" fill="#264E86"/>
<path d="M126.322 12.0493H123.53V16.1473H118.174V12.0493H115.381V23.0681H118.174V18.4079H123.53V23.0681H126.322V12.0493Z" fill="#264E86"/>
<path d="M137.569 12.0493H127.136V14.3099H130.956V23.0681H133.747V14.3099H137.569V12.0493Z" fill="#264E86"/>
<path d="M141.064 17.3452V14.3099H143.812C145.468 14.3099 146.173 14.5823 146.173 15.842C146.173 17.0573 145.359 17.3452 143.626 17.3452H141.064ZM144.867 12.0493H138.272V23.0623H141.064V19.6077H144.867C147.477 19.6077 148.965 18.1335 148.965 15.7995C148.965 13.4655 147.477 12.0493 144.867 12.0493Z" fill="#264E86"/>
<path d="M12.5081 5.61548H9.99632V13.1178C9.99468 13.185 9.97742 13.2509 9.94589 13.3103C9.91437 13.3696 9.86945 13.4208 9.8147 13.4598C9.74113 13.5129 9.65232 13.5407 9.5616 13.539C9.49604 13.5381 9.43097 13.5277 9.36839 13.5081L2.19642 11.1973L1.42358 13.5603L8.58782 15.8788C8.90389 15.98 9.2336 16.0321 9.56546 16.0334C10.3412 16.0334 11.0856 15.7271 11.6367 15.1811C12.1878 14.6351 12.5009 13.8936 12.5081 13.1178V5.61548Z" fill="#264E86"/>
<path d="M15.7503 5.61548H13.2385V13.1178C13.2462 13.893 13.5596 14.6339 14.1107 15.1792C14.6618 15.7244 15.4059 16.0301 16.1811 16.0295C16.5091 16.0274 16.8349 15.9753 17.1472 15.8749L24.3172 13.5564L23.5328 11.1935L16.384 13.512C16.3191 13.5296 16.2522 13.538 16.185 13.5371C16.0948 13.5391 16.0065 13.5112 15.9338 13.4579C15.8773 13.4197 15.8305 13.369 15.797 13.3096C15.7635 13.2503 15.7442 13.184 15.7406 13.1159V5.61548H15.7503Z" fill="#264E86"/>
<path d="M12.8379 20.2822C12.3744 20.2833 11.9176 20.3925 11.5037 20.6011C11.0898 20.8097 10.7303 21.112 10.4537 21.484L6.02148 27.5663L8.05792 29.025L12.5018 22.9408C12.5434 22.8885 12.5963 22.8463 12.6565 22.8172C12.7167 22.7881 12.7827 22.7729 12.8495 22.7727C12.9268 22.7769 13.0021 22.7992 13.0692 22.8378C13.1363 22.8764 13.1934 22.9302 13.236 22.9949L17.6798 29.0115L19.7182 27.5566L15.2743 21.5304C14.9963 21.1445 14.6306 20.8301 14.2074 20.6131C13.7842 20.3961 13.3155 20.2827 12.8399 20.2822H12.8379Z" fill="#264E86"/>
<path d="M24.5471 14.2405L17.3829 16.5474C16.9299 16.686 16.5163 16.9303 16.1763 17.2602C15.8363 17.5901 15.5797 17.9961 15.4276 18.4447C15.2844 18.8846 15.2478 19.3522 15.3207 19.8091C15.3936 20.2659 15.5739 20.6989 15.8468 21.0724L20.3197 27.1218L22.3503 25.6592L17.8794 19.5943C17.8408 19.5387 17.8157 19.4747 17.8063 19.4076C17.797 19.3404 17.8035 19.2721 17.8253 19.2079C17.8538 19.1348 17.8991 19.0695 17.9575 19.0171C18.0159 18.9648 18.0858 18.9269 18.1615 18.9065L25.3238 16.615L24.551 14.2405H24.5471Z" fill="#264E86"/>
<path d="M1.19166 14.252L0.418823 16.6284L7.5676 18.947C7.64464 18.9633 7.71605 18.9995 7.77471 19.0521C7.83336 19.1046 7.8772 19.1716 7.90185 19.2464C7.92351 19.3087 7.9299 19.3752 7.92048 19.4404C7.91107 19.5057 7.88613 19.5677 7.84776 19.6213L3.37687 25.6765L5.41331 27.1487L9.88612 21.0858C10.1583 20.7141 10.3379 20.283 10.4102 19.828C10.4824 19.373 10.4452 18.9074 10.3015 18.4697C10.1506 18.0218 9.89557 17.6161 9.55734 17.2859C9.2191 16.9557 8.80734 16.7105 8.3559 16.5705L1.19166 14.252Z" fill="#264E86"/>
<path d="M31.8598 26.7275H31.2029L30.6233 28.7833C30.5595 29.0036 30.5228 29.2219 30.5074 29.3011H30.4958C30.4654 29.1182 30.4254 28.9369 30.376 28.7582L29.8157 26.7275H29.1626L28.8632 30.0372H29.3191L29.4872 27.8462C29.5027 27.6723 29.5162 27.3555 29.5201 27.2395C29.5413 27.3265 29.5974 27.5912 29.6708 27.8462L30.2813 30.0372H30.6793L31.342 27.74C31.3961 27.5641 31.4444 27.3419 31.4638 27.2453C31.4638 27.3419 31.4638 27.6066 31.4889 27.7844L31.6628 30.0372H32.1265L31.8425 26.7275H31.8598Z" fill="#ACACAC"/>
<path d="M35.0242 26.7275H33.2119V30.0372H35.0764V29.6527H33.6756V28.4935H34.7537V28.1206H33.6756V27.1101H34.9624L35.0242 26.7275Z" fill="#ACACAC"/>
<path d="M39.5454 26.689L39.3097 26.716C39.1748 26.7225 39.0455 26.7719 38.9407 26.8571C38.8554 26.9577 38.8023 27.0815 38.788 27.2126L38.6953 27.6589C38.68 27.7832 38.6259 27.8994 38.5407 27.9912C38.4253 28.0717 38.2845 28.1074 38.1446 28.0917H37.9012V26.7276H37.4375V28.0917H37.1921C37.0523 28.1074 36.9115 28.0717 36.796 27.9912C36.7123 27.8985 36.6584 27.7827 36.6415 27.6589L36.5487 27.2126C36.5346 27.0811 36.4807 26.9571 36.3941 26.8571C36.29 26.772 36.1614 26.7225 36.027 26.716L35.7913 26.689L35.6986 27.0058L35.8338 27.0406C35.912 27.05 35.9855 27.083 36.0444 27.1353C36.0886 27.1922 36.1196 27.2582 36.1352 27.3285L36.2512 27.7593C36.2778 27.9073 36.3446 28.045 36.4444 28.1574C36.4998 28.2107 36.5655 28.2522 36.6376 28.2791L36.456 28.3911C36.3585 28.5006 36.2919 28.6339 36.2628 28.7776L36.0831 29.3978C36.0685 29.4696 36.0351 29.5362 35.9865 29.591C35.9145 29.6511 35.8289 29.6929 35.7372 29.7127L35.6406 29.7417L35.7218 30.0624L36.0212 30.0296C36.1581 30.0267 36.289 29.973 36.3883 29.8789C36.4738 29.7778 36.5288 29.6545 36.5468 29.5234L36.6782 28.9051C36.6959 28.7792 36.7519 28.6619 36.8385 28.5689C36.8874 28.5255 36.9447 28.4928 37.0069 28.4728C37.0692 28.4528 37.1349 28.4461 37.1998 28.453H37.4355V30.0238H37.9012V28.453H38.1388C38.2041 28.4462 38.2701 28.453 38.3326 28.4729C38.3951 28.4929 38.4528 28.5255 38.5021 28.5689C38.5867 28.663 38.6418 28.7799 38.6605 28.9051L38.7919 29.5234C38.8099 29.6545 38.8648 29.7778 38.9503 29.8789C39.0497 29.973 39.1806 30.0267 39.3174 30.0296L39.6169 30.0624L39.698 29.7417L39.6014 29.7127C39.5099 29.6925 39.4244 29.6507 39.3522 29.591C39.3042 29.5358 39.2709 29.4693 39.2556 29.3978L39.0759 28.7776C39.0454 28.6344 38.9789 28.5015 38.8827 28.3911C38.8279 28.3392 38.7618 28.3008 38.6895 28.2791C38.7657 28.2537 38.8355 28.2121 38.8943 28.1574C38.9925 28.044 39.0592 27.9067 39.0875 27.7593L39.2034 27.3285C39.2171 27.2571 39.249 27.1906 39.2962 27.1353C39.3529 27.0832 39.4245 27.0501 39.501 27.0406L39.6381 27.0058L39.5454 26.689Z" fill="#ACACAC"/>
<path d="M40.8946 29.6624C41.0465 29.3622 41.1663 29.0468 41.252 28.7214C41.3556 28.3273 41.4158 27.923 41.4317 27.5158L41.4549 27.1004H42.2663V29.6624H40.8946ZM42.73 26.7256H41.0684L41.0491 27.2125C41.0406 27.6679 40.9842 28.1212 40.881 28.5649C40.7848 28.9424 40.6468 29.3078 40.4695 29.6547H40.257V30.8951H40.7013V30.0372H42.6334V30.9028H43.0778V29.6624H42.732V26.7256H42.73Z" fill="#ACACAC"/>
<path d="M46.0932 26.7275H45.6295L45.1214 28.2364C45.0287 28.505 44.99 28.6229 44.9282 28.8161C44.8702 28.6113 44.8161 28.4722 44.7446 28.2848L44.1322 26.7275H43.624L44.5901 29.1001L44.8103 29.0808L44.7388 29.2933C44.698 29.4139 44.6322 29.5245 44.5456 29.6179C44.4441 29.709 44.3188 29.7693 44.1843 29.7918L44.109 29.813L44.194 30.1434L44.3292 30.128C44.5326 30.1214 44.7273 30.0442 44.8799 29.9096C45.0158 29.7387 45.1145 29.5413 45.1697 29.33L46.0836 26.7217L46.0932 26.7275Z" fill="#ACACAC"/>
<path d="M49.191 26.7275H48.7273V28.0858H47.4579V26.7275H46.9923V30.0372H47.4579V28.4606H48.7273V30.0372H49.191V26.7275Z" fill="#ACACAC"/>
<path d="M50.8585 28.7176C50.9165 28.5592 51.2681 27.3651 51.3164 27.1835H51.3473C51.3898 27.3767 51.7337 28.563 51.7956 28.7176H50.8585ZM51.641 26.7256H51.0614L49.9697 30.0372H50.4605L50.7484 29.104H51.9076L52.1994 30.0372H52.7191L51.6487 26.7256H51.641Z" fill="#ACACAC"/>
<path d="M53.9559 28.364V27.1004H54.3848C54.4814 27.0907 54.5789 27.1002 54.6718 27.1284C54.7646 27.1566 54.851 27.2029 54.9258 27.2646C54.985 27.3271 55.0302 27.4015 55.0585 27.4827C55.0868 27.564 55.0975 27.6504 55.09 27.7361C55.0983 27.8949 55.0489 28.0514 54.9509 28.1766C54.8938 28.246 54.8202 28.3001 54.7369 28.3339C54.6535 28.3676 54.563 28.38 54.4737 28.3698L53.9559 28.364ZM54.381 26.7256H53.4922V30.0372H53.9559V28.7408H54.5065C54.7555 28.7643 55.0044 28.6955 55.206 28.5476C55.3417 28.4533 55.4506 28.3254 55.5221 28.1763C55.5936 28.0273 55.6251 27.8623 55.6136 27.6974C55.6187 27.5355 55.5806 27.3752 55.5032 27.2329C55.4257 27.0906 55.3118 26.9715 55.1731 26.8879C54.9934 26.7797 54.8099 26.7352 54.381 26.7352V26.7256Z" fill="#ACACAC"/>
<path d="M57.7249 29.7321C57.0622 29.7321 56.8632 29.1524 56.8632 28.3139C56.8632 27.4754 57.1008 27.0329 57.6998 27.0329C58.2987 27.0329 58.5364 27.5526 58.5364 28.4414C58.5364 29.3592 58.2408 29.7321 57.7249 29.7321ZM57.6901 26.6793C56.8748 26.6793 56.3376 27.288 56.3376 28.3738C56.3376 29.3592 56.7936 30.0837 57.7094 30.0837C58.5557 30.0837 59.0522 29.4113 59.0522 28.4086C59.0522 27.4928 58.6658 26.6697 57.6862 26.6697L57.6901 26.6793Z" fill="#ACACAC"/>
<path d="M60.3527 29.6624C60.5046 29.3622 60.6244 29.0468 60.7101 28.7214C60.8132 28.3273 60.8728 27.923 60.8879 27.5158L60.913 27.1004H61.7264V29.6624H60.3527ZM62.1882 26.7256H60.5266L60.5073 27.2125C60.4997 27.668 60.4433 28.1214 60.3392 28.5649C60.2429 28.9424 60.1049 29.3078 59.9276 29.6547H59.7151V30.8951H60.1595V30.0372H62.0916V30.9028H62.534V29.6624H62.1882V26.7256Z" fill="#ACACAC"/>
<path d="M65.6294 26.7275H65.1657V28.0858H63.8944V26.7275H63.4307V30.0372H63.8944V28.4606H65.1657V30.0372H65.6294V26.7275Z" fill="#ACACAC"/>
<path d="M67.2811 29.6624V28.4142H67.7177C67.9223 28.3928 68.1277 28.4448 68.2974 28.5611C68.3629 28.6218 68.4141 28.6962 68.4475 28.7791C68.4809 28.8619 68.4956 28.9511 68.4906 29.0402C68.4962 29.1289 68.4817 29.2177 68.4482 29.2999C68.4148 29.3822 68.3632 29.4559 68.2974 29.5155C68.131 29.6276 67.931 29.6787 67.7313 29.6604H67.283L67.2811 29.6624ZM67.2811 26.7256H66.8174V30.0372H67.8124C68.1409 30.065 68.4672 29.9622 68.7205 29.7513C68.8109 29.6567 68.8812 29.5447 68.927 29.4222C68.9728 29.2996 68.9933 29.169 68.9871 29.0383C68.997 28.8855 68.9679 28.7327 68.9027 28.5942C68.8375 28.4557 68.7383 28.3359 68.6142 28.2461C68.3605 28.0935 68.0647 28.0259 67.7699 28.0529H67.2811V26.7352V26.7256ZM69.8991 26.7256H69.4354V30.0372H69.8991V26.7256Z" fill="#ACACAC"/>
<path d="M72.9002 26.7275H71.0918V30.0372H72.9543V29.6527H71.5536V28.4935H72.6297V28.1206H71.5536V27.1101H72.8384L72.9002 26.7275Z" fill="#ACACAC"/>
<path d="M75.796 29.6624V28.5031H76.3292C76.4445 28.4993 76.5599 28.5083 76.6731 28.5302C76.7845 28.5672 76.8802 28.6404 76.9453 28.738C77.0104 28.8357 77.0411 28.9522 77.0325 29.0692C77.0381 29.1473 77.027 29.2257 77 29.2992C76.973 29.3726 76.9307 29.4395 76.8759 29.4954C76.8211 29.5513 76.7551 29.595 76.6821 29.6234C76.6092 29.6519 76.5311 29.6645 76.4529 29.6604L75.796 29.6624ZM75.796 28.1302V27.1004H76.2403C76.3535 27.0939 76.4671 27.1057 76.5765 27.1352C76.6755 27.1674 76.7611 27.2316 76.8198 27.3176C76.8785 27.4035 76.9071 27.5065 76.9011 27.6105C76.904 27.7295 76.871 27.8467 76.8064 27.9467C76.7098 28.0781 76.6132 28.1399 76.3118 28.1399L75.796 28.1302ZM76.0375 26.7256H75.3303V30.0372H76.3505C76.5278 30.0398 76.7048 30.0216 76.8779 29.9831C77.0726 29.9427 77.2468 29.8349 77.3698 29.6787C77.4928 29.5225 77.5567 29.3278 77.5503 29.1291C77.5503 28.6963 77.3069 28.3853 76.8045 28.2732C76.9754 28.2426 77.1299 28.1525 77.2406 28.0188C77.3513 27.885 77.4111 27.7164 77.4093 27.5429C77.4102 27.3967 77.3682 27.2534 77.2885 27.1308C77.2089 27.0082 77.095 26.9117 76.961 26.8531C76.7523 26.741 76.6036 26.7256 76.0433 26.7256H76.0375Z" fill="#ACACAC"/>
<path d="M79.0555 29.6624V28.4142H79.4883C79.6928 28.3928 79.8983 28.4448 80.0679 28.5611C80.1334 28.6218 80.1847 28.6962 80.2181 28.7791C80.2515 28.8619 80.2662 28.9511 80.2611 29.0402C80.2676 29.129 80.2535 29.218 80.22 29.3004C80.1865 29.3829 80.1344 29.4565 80.0679 29.5155C79.9017 29.628 79.7016 29.6792 79.5018 29.6604H79.0555V29.6624ZM79.0555 26.7256H78.5918V30.0372H79.5849C79.9135 30.0654 80.2399 29.9626 80.493 29.7513C80.583 29.6565 80.6529 29.5445 80.6984 29.4219C80.7439 29.2994 80.7641 29.1689 80.7577 29.0383C80.7677 28.8857 80.739 28.733 80.6741 28.5945C80.6092 28.456 80.5104 28.3362 80.3867 28.2461C80.133 28.0935 79.8372 28.0259 79.5424 28.0529H79.0555V26.7352V26.7256ZM81.6735 26.7256H81.2098V30.0372H81.6735V26.7256Z" fill="#ACACAC"/>
<path d="M84.1289 26.6755C83.8785 26.6787 83.6339 26.7514 83.4224 26.8855C83.2109 27.0196 83.0408 27.2097 82.931 27.4348C82.7808 27.7411 82.7066 28.0791 82.7146 28.4201C82.7029 28.836 82.83 29.2439 83.0759 29.5794C83.1973 29.7376 83.3545 29.8649 83.5344 29.9509C83.7144 30.0368 83.9121 30.079 84.1115 30.074C84.4316 30.0802 84.7455 29.9849 85.008 29.8016L84.782 29.4944C84.61 29.633 84.3941 29.7056 84.1733 29.6992C83.9984 29.7047 83.826 29.6561 83.6797 29.5599C83.5335 29.4638 83.4204 29.3249 83.3561 29.1621C83.2636 28.9194 83.2228 28.6601 83.2363 28.4008C83.2197 28.0982 83.274 27.7959 83.3947 27.5179C83.4573 27.3746 83.5607 27.253 83.6919 27.1681C83.8232 27.0833 83.9765 27.0389 84.1328 27.0406C84.3423 27.0372 84.5468 27.1054 84.7124 27.2338L84.9404 26.9247C84.7049 26.7488 84.4169 26.6575 84.1231 26.6658L84.1289 26.6755Z" fill="#ACACAC"/>
<path d="M87.9024 26.7275H85.665V27.1101H86.5326V30.0372H86.9943V27.1101H87.8541L87.9024 26.7275Z" fill="#ACACAC"/>
<path d="M89.0638 28.7176C89.1218 28.5592 89.4754 27.3651 89.5198 27.1835H89.5507C89.5951 27.3767 89.9371 28.563 90.0009 28.7176H89.0638ZM89.8463 26.7256H89.2667L88.175 30.0372H88.6561L88.946 29.104H90.1052L90.4008 30.0372H90.9206L89.8502 26.7256H89.8463Z" fill="#ACACAC"/>
<path d="M92.161 29.6624V28.5031H92.6923C92.8082 28.4991 92.9242 28.5082 93.0381 28.5302C93.1495 28.5672 93.2453 28.6404 93.3103 28.738C93.3754 28.8357 93.4061 28.9522 93.3975 29.0692C93.4031 29.1473 93.392 29.2257 93.365 29.2992C93.338 29.3726 93.2957 29.4395 93.2409 29.4954C93.1861 29.5513 93.1201 29.595 93.0471 29.6234C92.9742 29.6519 92.8961 29.6645 92.8179 29.6604L92.161 29.6624ZM92.161 28.1302V27.1004H92.6054C92.7186 27.0941 92.832 27.1058 92.9415 27.1352C93.0405 27.1674 93.1261 27.2316 93.1848 27.3176C93.2435 27.4035 93.2721 27.5065 93.2661 27.6105C93.269 27.7295 93.236 27.8467 93.1715 27.9467C93.0749 28.0781 92.9783 28.1399 92.6768 28.1399L92.161 28.1302ZM92.4025 26.7256H91.6973V30.0372H92.7116C92.8883 30.0395 93.0647 30.0214 93.2372 29.9831C93.432 29.9431 93.6064 29.8354 93.7295 29.6791C93.8526 29.5228 93.9163 29.3279 93.9095 29.1291C93.9095 28.6963 93.668 28.3853 93.1657 28.2732C93.3362 28.2422 93.4902 28.1519 93.6006 28.0182C93.7109 27.8845 93.7704 27.7162 93.7685 27.5429C93.7694 27.3967 93.7274 27.2534 93.6477 27.1308C93.5681 27.0082 93.4542 26.9117 93.3202 26.8531C93.1116 26.741 92.9628 26.7256 92.4025 26.7256Z" fill="#ACACAC"/>
<path d="M97.171 26.689L96.9585 26.7122C96.8146 26.7206 96.6781 26.7786 96.5721 26.8764C96.4846 26.9764 96.4288 27.1001 96.4117 27.2319L96.319 27.6589C96.3061 27.7764 96.2583 27.8875 96.1818 27.9777C96.0717 28.0624 95.9339 28.1031 95.7954 28.0917H95.409V26.7276H94.9395V30.0373H95.409V28.4665H95.7954C95.8539 28.4628 95.9126 28.4707 95.968 28.49C96.0234 28.5092 96.0744 28.5393 96.118 28.5786C96.2024 28.6746 96.258 28.7924 96.2784 28.9186L96.3982 29.4982C96.4154 29.6463 96.4782 29.7854 96.5779 29.8963C96.6935 29.9951 96.8393 30.0516 96.9913 30.0566L97.2367 30.0798L97.3179 29.7591L97.1962 29.7185C97.1132 29.7001 97.0357 29.6624 96.9701 29.6084C96.9203 29.5541 96.8863 29.4873 96.8716 29.4152L96.6938 28.795C96.6649 28.6513 96.5982 28.5179 96.5006 28.4085C96.4452 28.357 96.3793 28.3181 96.3074 28.2945C96.3788 28.2689 96.4444 28.2295 96.5006 28.1786C96.6114 28.0633 96.6848 27.9171 96.7112 27.7593L96.8271 27.3439C96.8412 27.2708 96.8768 27.2035 96.9295 27.1507L97.1034 27.0657L97.2638 27.0271L97.171 26.7102V26.689Z" fill="#ACACAC"/>
<path d="M100.471 26.7275H99.9435L98.7842 28.9726C98.7065 29.13 98.6418 29.2935 98.591 29.4615C98.6104 29.2798 98.6258 29.0422 98.6258 28.8818V26.7275H98.1621V30.0372H98.6451L99.8894 27.6646C99.9549 27.5358 100.007 27.4004 100.044 27.2608C100.044 27.4076 100.021 27.7361 100.021 27.91V30.0353H100.484V26.7275H100.471Z" fill="#ACACAC"/>
<path d="M105.438 26.7275H104.911L103.752 28.9726C103.671 29.13 103.602 29.2934 103.547 29.4615C103.568 29.269 103.58 29.0755 103.582 28.8818V26.7275H103.118V30.0372H103.593L104.841 27.6646C104.905 27.5354 104.957 27.4001 104.994 27.2608C104.994 27.4076 104.971 27.7361 104.971 27.91V30.0353H105.435V26.7275H105.438Z" fill="#ACACAC"/>
<path d="M110.298 26.689L110.085 26.7122C109.941 26.72 109.805 26.7781 109.699 26.8764C109.612 26.9764 109.556 27.1001 109.539 27.2319L109.448 27.6589C109.433 27.7766 109.384 27.8873 109.307 27.9777C109.197 28.0631 109.059 28.1039 108.92 28.0917H108.534V26.7276H108.066V30.0373H108.534V28.4665H108.92C108.979 28.4628 109.037 28.4708 109.092 28.4901C109.147 28.5093 109.198 28.5394 109.241 28.5786C109.327 28.6739 109.383 28.792 109.403 28.9186L109.523 29.4982C109.541 29.6459 109.603 29.7848 109.701 29.8963C109.818 29.9957 109.965 30.0523 110.118 30.0566L110.36 30.0798L110.441 29.7591L110.321 29.7185C110.237 29.7006 110.159 29.6628 110.093 29.6084C110.045 29.5536 110.011 29.4869 109.997 29.4152L109.817 28.795C109.788 28.6513 109.721 28.5179 109.624 28.4085C109.569 28.3566 109.503 28.3177 109.43 28.2945C109.502 28.2689 109.567 28.2295 109.624 28.1786C109.735 28.0634 109.809 27.9173 109.836 27.7593L109.952 27.3439C109.966 27.2709 110.001 27.2036 110.053 27.1507L110.226 27.0657L110.387 27.0271L110.294 26.7102L110.298 26.689Z" fill="#ACACAC"/>
<path d="M112.512 29.732C111.851 29.732 111.652 29.1524 111.652 28.3139C111.652 27.4753 111.889 27.0329 112.488 27.0329C113.087 27.0329 113.323 27.5526 113.323 28.4414C113.323 29.3591 113.027 29.732 112.512 29.732ZM112.481 26.6754C111.663 26.6754 111.128 27.284 111.128 28.3699C111.128 29.3553 111.582 30.0798 112.5 30.0798C113.344 30.0798 113.843 29.4074 113.843 28.4047C113.843 27.4888 113.456 26.6658 112.477 26.6658L112.481 26.6754Z" fill="#ACACAC"/>
<path d="M117.086 26.7275H116.623V28.0858H115.353V26.7275H114.89V30.0372H115.353V28.4606H116.623V30.0372H117.086V26.7275Z" fill="#ACACAC"/>
<path d="M120.006 26.7275H118.277V30.0372H118.741V27.1101H119.945L120.006 26.7275Z" fill="#ACACAC"/>
<path d="M121.345 28.364V27.1004H121.774C121.871 27.0908 121.968 27.1003 122.061 27.1285C122.154 27.1567 122.24 27.203 122.315 27.2646C122.374 27.3274 122.419 27.4018 122.447 27.483C122.475 27.5642 122.486 27.6504 122.479 27.7361C122.487 27.8951 122.437 28.0516 122.338 28.1766C122.282 28.2463 122.208 28.3006 122.125 28.3344C122.041 28.3681 121.951 28.3803 121.861 28.3698L121.345 28.364ZM121.77 26.7256H120.882V30.0372H121.345V28.7408H121.896C122.145 28.7639 122.394 28.6952 122.595 28.5476C122.731 28.4531 122.839 28.325 122.91 28.176C122.982 28.027 123.013 27.8621 123.001 27.6974C123.006 27.5355 122.968 27.3752 122.891 27.2329C122.813 27.0906 122.699 26.9715 122.561 26.8879C122.383 26.7797 122.199 26.7352 121.77 26.7352V26.7256Z" fill="#ACACAC"/>
<path d="M125.688 26.7275H123.876V30.0372H125.742V29.6527H124.34V28.4935H125.418V28.1206H124.34V27.1101H125.625L125.688 26.7275Z" fill="#ACACAC"/>
<path d="M127.937 26.6754C127.687 26.6783 127.442 26.7508 127.23 26.8849C127.018 27.019 126.848 27.2093 126.738 27.4347C126.587 27.741 126.513 28.079 126.521 28.42C126.51 28.8359 126.637 29.2438 126.883 29.5793C127.004 29.7374 127.161 29.8646 127.341 29.9505C127.521 30.0365 127.719 30.0788 127.918 30.0739C128.238 30.0804 128.552 29.985 128.815 29.8015L128.589 29.4943C128.416 29.6331 128.199 29.7058 127.978 29.6991C127.803 29.7042 127.631 29.6554 127.486 29.5593C127.34 29.4632 127.227 29.3244 127.163 29.162C127.07 28.9193 127.029 28.66 127.043 28.4007C127.026 28.0979 127.081 27.7953 127.203 27.5178C127.268 27.3788 127.372 27.2618 127.503 27.1808C127.633 27.0999 127.784 27.0585 127.937 27.0618C128.147 27.0579 128.352 27.1261 128.517 27.255L128.745 26.9459C128.514 26.7677 128.229 26.6724 127.937 26.6754Z" fill="#ACACAC"/>
<path d="M131.059 26.6754C130.808 26.6783 130.563 26.7508 130.351 26.8849C130.139 27.019 129.969 27.2094 129.859 27.4347C129.708 27.7408 129.634 28.079 129.642 28.4201C129.631 28.8361 129.759 29.244 130.006 29.5793C130.126 29.7375 130.283 29.8648 130.462 29.9508C130.641 30.0367 130.838 30.079 131.037 30.074C131.358 30.0799 131.672 29.9846 131.936 29.8015L131.71 29.4943C131.538 29.6332 131.322 29.7059 131.101 29.6991C130.926 29.7046 130.754 29.656 130.607 29.5599C130.461 29.4637 130.348 29.3248 130.284 29.162C130.191 28.9194 130.15 28.6601 130.164 28.4008C130.147 28.0981 130.202 27.7958 130.322 27.5178C130.385 27.3741 130.488 27.2521 130.62 27.1672C130.752 27.0823 130.906 27.0382 131.062 27.0406C131.272 27.037 131.476 27.1052 131.642 27.2338L131.87 26.9246C131.635 26.7493 131.348 26.6581 131.055 26.6657L131.059 26.6754Z" fill="#ACACAC"/>
<path d="M133.373 29.6624V28.4142H133.808C134.012 28.3923 134.218 28.4444 134.387 28.5611C134.453 28.6218 134.504 28.6962 134.537 28.7791C134.571 28.8619 134.585 28.9511 134.58 29.0402C134.586 29.1289 134.572 29.2177 134.538 29.2999C134.505 29.3822 134.453 29.4559 134.387 29.5155C134.221 29.628 134.021 29.6792 133.821 29.6604H133.375L133.373 29.6624ZM133.373 26.7256H132.907V30.0372H133.902C134.231 30.0648 134.557 29.9621 134.81 29.7513C134.9 29.6565 134.97 29.5445 135.016 29.4219C135.061 29.2994 135.081 29.1689 135.075 29.0383C135.085 28.8859 135.056 28.7335 134.992 28.595C134.927 28.4566 134.829 28.3366 134.706 28.2461C134.452 28.0935 134.155 28.0258 133.86 28.0529H133.373V26.7352V26.7256ZM135.989 26.7256H135.527V30.0372H135.989V26.7256Z" fill="#ACACAC"/>
<path d="M110.021 34.2571H108.895L107.906 37.758C107.826 38.0494 107.761 38.3448 107.712 38.643H107.695C107.643 38.3302 107.574 38.0206 107.488 37.7155L106.522 34.2571H105.406L104.894 39.893H105.666L105.956 36.1641C105.983 35.8685 106.006 35.3313 106.014 35.1323H106.032C106.066 35.2811 106.163 35.7293 106.289 36.1641L107.33 39.893H108.016L109.15 35.9844C109.241 35.681 109.324 35.3043 109.355 35.14H109.372C109.372 35.3043 109.391 35.7525 109.415 36.0559L109.712 39.893H110.504L110.017 34.2571H110.021Z" fill="#264E86"/>
<path d="M113.903 39.3693C112.769 39.3693 112.429 38.3878 112.429 36.9561C112.429 35.5244 112.836 34.7786 113.86 34.7786C114.934 34.7786 115.29 35.6635 115.29 37.1783C115.29 38.7414 114.786 39.3693 113.903 39.3693ZM113.843 34.1777C112.446 34.1777 111.538 35.2153 111.538 37.0662C111.538 38.7414 112.311 39.974 113.885 39.974C115.329 39.974 116.183 38.8302 116.183 37.1203C116.183 35.5611 115.524 34.1777 113.843 34.1777Z" fill="#264E86"/>
<path d="M119.593 34.1777C119.165 34.1799 118.746 34.3017 118.384 34.5295C118.022 34.7572 117.73 35.0817 117.543 35.4664C117.285 35.9873 117.157 36.5626 117.17 37.1435C117.145 37.8567 117.364 38.5571 117.79 39.1297C117.998 39.3997 118.267 39.6169 118.575 39.7636C118.883 39.9103 119.221 39.9824 119.562 39.974C120.114 39.9878 120.655 39.8246 121.107 39.5084L120.721 38.9867C120.427 39.2252 120.056 39.3494 119.678 39.3364C119.379 39.3467 119.085 39.2642 118.835 39.1002C118.585 38.9362 118.392 38.6987 118.283 38.4206C118.123 38.0099 118.052 37.57 118.076 37.1299C118.049 36.6126 118.142 36.096 118.348 35.621C118.457 35.3773 118.635 35.171 118.86 35.0274C119.085 34.8839 119.347 34.8094 119.614 34.8134C119.975 34.8083 120.327 34.9231 120.615 35.1399L121.001 34.6201C120.599 34.3191 120.107 34.1631 119.604 34.1777H119.593Z" fill="#264E86"/>
<path d="M126.006 34.1931L125.64 34.2318C125.395 34.2465 125.163 34.3447 124.982 34.51C124.833 34.6809 124.738 34.892 124.709 35.1167L124.551 35.8451C124.528 36.0446 124.445 36.2324 124.313 36.3841C124.127 36.5295 123.893 36.5986 123.658 36.5773H123.013V34.2588H122.213V39.8947H123.013V37.2188H123.658C123.861 37.2077 124.06 37.2771 124.213 37.412C124.354 37.5772 124.448 37.7774 124.485 37.9916L124.692 38.9693C124.721 39.2221 124.827 39.4597 124.997 39.6494C125.198 39.8162 125.449 39.912 125.71 39.9218L126.122 39.9624L126.265 39.4117L126.056 39.348C125.915 39.3116 125.783 39.2457 125.669 39.1548C125.583 39.0573 125.525 38.9375 125.503 38.8089L125.198 37.754C125.145 37.5102 125.028 37.2852 124.858 37.1029C124.766 37.0127 124.656 36.9435 124.535 36.9C124.654 36.8566 124.764 36.7911 124.858 36.7068C125.049 36.5128 125.176 36.2645 125.221 35.9958L125.414 35.2848C125.437 35.1565 125.497 35.038 125.588 34.9447C125.674 34.8742 125.775 34.8252 125.884 34.8017L126.158 34.738L126 34.197L126.006 34.1931Z" fill="#264E86"/>
<path d="M127.92 39.2554V37.2828H128.828C129.028 37.2765 129.229 37.2927 129.425 37.3311C129.781 37.4161 130.036 37.7909 130.036 38.2507C130.044 38.3846 130.025 38.5188 129.977 38.6444C129.93 38.77 129.857 38.8842 129.762 38.9792C129.668 39.0742 129.554 39.148 129.428 39.1957C129.303 39.2433 129.169 39.2637 129.035 39.2554H127.92ZM127.92 36.6471V34.8947H128.681C128.876 34.8861 129.072 34.9056 129.261 34.9526C129.429 35.008 129.575 35.1174 129.675 35.2637C129.774 35.4101 129.823 35.5853 129.814 35.7622C129.82 35.9678 129.763 36.1704 129.649 36.3418C129.483 36.564 129.311 36.6548 128.807 36.6548L127.92 36.6471ZM128.334 34.2571H127.126V39.893H128.865C129.169 39.8987 129.472 39.8696 129.769 39.8061C130.101 39.736 130.398 39.5516 130.608 39.2849C130.817 39.0183 130.927 38.6865 130.917 38.3473C130.917 37.6131 130.503 37.0799 129.644 36.8925C130.339 36.6857 130.677 36.2356 130.677 35.6463C130.678 35.3963 130.605 35.1516 130.467 34.9427C130.33 34.7339 130.134 34.57 129.904 34.4715C129.551 34.2783 129.294 34.2571 128.335 34.2571H128.334Z" fill="#264E86"/>
<path d="M132.961 37.6441C133.062 37.3755 133.662 35.3526 133.746 35.0357H133.798C133.869 35.3642 134.464 37.3832 134.571 37.6441H132.961ZM134.314 34.2571H133.324L131.452 39.893H132.279L132.768 38.3068H134.743L135.249 39.893H136.141L134.314 34.2571Z" fill="#264E86"/>
</g>
<defs>
<clipPath id="clip0_104_1070">
<rect width="148.546" height="34.3586" fill="white" transform="translate(0.418945 5.61548)"/>
</clipPath>
</defs>
</svg>
