<svg width="12" height="10" viewBox="0 0 12 10" fill="none" xmlns="http://www.w3.org/2000/svg">
<path d="M10.2807 1.0067L3.98671 7.3007C3.98771 7.2997 1.69471 5.0067 1.69471 5.0067C1.50611 4.82455 1.25351 4.72375 0.991311 4.72603C0.729114 4.72831 0.478302 4.83348 0.292894 5.01889C0.107485 5.20429 0.00231622 5.45511 3.78025e-05 5.7173C-0.00224062 5.9795 0.0985542 6.2321 0.280712 6.4207L2.57471 8.7147C3.35471 9.4947 4.62471 9.4917 5.40071 8.7147L11.6947 2.4207C11.7902 2.32846 11.8664 2.21811 11.9188 2.09611C11.9712 1.9741 11.9988 1.84288 12 1.71011C12.0011 1.57733 11.9758 1.44565 11.9255 1.32275C11.8753 1.19985 11.801 1.0882 11.7071 0.99431C11.6132 0.900417 11.5016 0.826164 11.3787 0.775883C11.2558 0.725602 11.1241 0.7003 10.9913 0.701454C10.8585 0.702608 10.7273 0.730193 10.6053 0.782602C10.4833 0.835011 10.373 0.911194 10.2807 1.0067Z" fill="#54BD5D"/>
</svg>
