<svg width="266" height="238" viewBox="0 0 266 238" fill="none" xmlns="http://www.w3.org/2000/svg">
<path d="M67.1719 12.8H5.37183V204.2H67.1719V12.8Z" stroke="#1F2133" stroke-width="2" stroke-miterlimit="10"/>
<path d="M41.6466 1H30.8965V12.8002H41.6466V1Z" stroke="#1F2133" stroke-miterlimit="10"/>
<path d="M5.37183 19.8003H67.1713" stroke="#1F2133" stroke-width="2" stroke-miterlimit="10"/>
<path d="M26.5784 10.9331H8.57861V12.7996H26.5784V10.9331Z" stroke="#1F2133" stroke-miterlimit="10"/>
<path d="M11.616 10.9332V10.1693L14.8288 9.05859H20.041L23.541 10.1693V10.9332H11.616Z" stroke="#1F2133" stroke-miterlimit="10"/>
<path d="M19.9178 5.29956H14.8289V9.05785H19.9178V5.29956Z" stroke="#1F2133" stroke-miterlimit="10"/>
<path d="M20.6175 3.2998H14.1287V5.29978H20.6175V3.2998Z" stroke="#1F2133" stroke-miterlimit="10"/>
<path d="M63.9226 10.9331H45.9229V12.7996H63.9226V10.9331Z" stroke="#1F2133" stroke-miterlimit="10"/>
<path d="M48.9602 10.9332V10.1693L52.173 9.05859H57.3853L60.8852 10.1693V10.9332H48.9602Z" stroke="#1F2133" stroke-miterlimit="10"/>
<path d="M57.262 5.29956H52.1731V9.05785H57.262V5.29956Z" stroke="#1F2133" stroke-miterlimit="10"/>
<path d="M57.9619 3.2998H51.4731V5.29978H57.9619V3.2998Z" stroke="#1F2133" stroke-miterlimit="10"/>
<path d="M131.984 12.8H70.1837V204.2H131.984V12.8Z" stroke="#1F2133" stroke-width="2" stroke-miterlimit="10"/>
<path d="M106.459 1H95.709V12.8002H106.459V1Z" stroke="#1F2133" stroke-miterlimit="10"/>
<path d="M70.1837 19.8003H131.984" stroke="#1F2133" stroke-width="2" stroke-miterlimit="10"/>
<path d="M91.3905 10.9331H73.3907V12.7996H91.3905V10.9331Z" stroke="#1F2133" stroke-miterlimit="10"/>
<path d="M76.4282 10.9332V10.1693L79.6405 9.05859H84.8533L88.3532 10.1693V10.9332H76.4282Z" stroke="#1F2133" stroke-miterlimit="10"/>
<path d="M84.7295 5.29956H79.6406V9.05785H84.7295V5.29956Z" stroke="#1F2133" stroke-miterlimit="10"/>
<path d="M85.4295 3.2998H78.9407V5.29978H85.4295V3.2998Z" stroke="#1F2133" stroke-miterlimit="10"/>
<path d="M128.735 10.9331H110.735V12.7996H128.735V10.9331Z" stroke="#1F2133" stroke-miterlimit="10"/>
<path d="M113.773 10.9332V10.1693L116.985 9.05859H122.198L125.698 10.1693V10.9332H113.773Z" stroke="#1F2133" stroke-miterlimit="10"/>
<path d="M122.074 5.29956H116.985V9.05785H122.074V5.29956Z" stroke="#1F2133" stroke-miterlimit="10"/>
<path d="M122.774 3.2998H116.286V5.29978H122.774V3.2998Z" stroke="#1F2133" stroke-miterlimit="10"/>
<path d="M196.796 12.8H134.996V204.2H196.796V12.8Z" stroke="#1F2133" stroke-width="2" stroke-miterlimit="10"/>
<path d="M171.271 1H160.521V12.8002H171.271V1Z" stroke="#1F2133" stroke-miterlimit="10"/>
<path d="M134.996 19.8003H196.796" stroke="#1F2133" stroke-width="2" stroke-miterlimit="10"/>
<path d="M156.203 10.9331H138.203V12.7996H156.203V10.9331Z" stroke="#1F2133" stroke-miterlimit="10"/>
<path d="M141.24 10.9332V10.1693L144.453 9.05859H149.666L153.165 10.1693V10.9332H141.24Z" stroke="#1F2133" stroke-miterlimit="10"/>
<path d="M149.542 5.29956H144.453V9.05785H149.542V5.29956Z" stroke="#1F2133" stroke-miterlimit="10"/>
<path d="M150.242 3.2998H143.753V5.29978H150.242V3.2998Z" stroke="#1F2133" stroke-miterlimit="10"/>
<path d="M193.547 10.9331H175.547V12.7996H193.547V10.9331Z" stroke="#1F2133" stroke-miterlimit="10"/>
<path d="M178.585 10.9332V10.1693L181.798 9.05859H187.01L190.51 10.1693V10.9332H178.585Z" stroke="#1F2133" stroke-miterlimit="10"/>
<path d="M186.886 5.29956H181.797V9.05785H186.886V5.29956Z" stroke="#1F2133" stroke-miterlimit="10"/>
<path d="M187.586 3.2998H181.097V5.29978H187.586V3.2998Z" stroke="#1F2133" stroke-miterlimit="10"/>
<path d="M261.609 12.8H199.809V204.2H261.609V12.8Z" stroke="#1F2133" stroke-width="2" stroke-miterlimit="10"/>
<path d="M236.084 1H225.333V12.8002H236.084V1Z" stroke="#1F2133" stroke-miterlimit="10"/>
<path d="M199.809 19.8003H261.609" stroke="#1F2133" stroke-width="2" stroke-miterlimit="10"/>
<path d="M221.016 10.9331H203.016V12.7996H221.016V10.9331Z" stroke="#1F2133" stroke-miterlimit="10"/>
<path d="M206.053 10.9332V10.1693L209.266 9.05859H214.479L217.978 10.1693V10.9332H206.053Z" stroke="#1F2133" stroke-miterlimit="10"/>
<path d="M214.354 5.29956H209.265V9.05785H214.354V5.29956Z" stroke="#1F2133" stroke-miterlimit="10"/>
<path d="M215.055 3.2998H208.566V5.29978H215.055V3.2998Z" stroke="#1F2133" stroke-miterlimit="10"/>
<path d="M258.36 10.9331H240.36V12.7996H258.36V10.9331Z" stroke="#1F2133" stroke-miterlimit="10"/>
<path d="M243.397 10.9332V10.1693L246.61 9.05859H251.823L255.322 10.1693V10.9332H243.397Z" stroke="#1F2133" stroke-miterlimit="10"/>
<path d="M251.699 5.29956H246.61V9.05785H251.699V5.29956Z" stroke="#1F2133" stroke-miterlimit="10"/>
<path d="M252.399 3.2998H245.91V5.29978H252.399V3.2998Z" stroke="#1F2133" stroke-miterlimit="10"/>
<path d="M79.6407 6.39941H57.2618V8.19919H79.6407V6.39941Z" stroke="#1F2133" stroke-miterlimit="10"/>
<path d="M144.679 6.39941H122.3V8.19919H144.679V6.39941Z" stroke="#1F2133" stroke-miterlimit="10"/>
<path d="M209.492 6.39941H187.113V8.19919H209.492V6.39941Z" stroke="#1F2133" stroke-miterlimit="10"/>
<path d="M265 205H1V218H265V205Z" stroke="#1F2133" stroke-width="1.5" stroke-miterlimit="10"/>
<path d="M19.9176 218.6H8.57849V237H19.9176V218.6Z" stroke="#1F2133" stroke-width="1.5" stroke-miterlimit="10"/>
<path d="M99.0677 218.6H87.7286V237H99.0677V218.6Z" stroke="#1F2133" stroke-width="1.5" stroke-miterlimit="10"/>
<path d="M178.218 218.6H166.879V237H178.218V218.6Z" stroke="#1F2133" stroke-width="1.5" stroke-miterlimit="10"/>
<path d="M257.368 218.6H246.029V237H257.368V218.6Z" stroke="#1F2133" stroke-width="1.5" stroke-miterlimit="10"/>
</svg>
