<svg width="317" height="256" viewBox="0 0 317 256" fill="none" xmlns="http://www.w3.org/2000/svg">
<g clip-path="url(#clip0_117_4344)">
<path d="M137.641 18.7083H130.821V25.8516H137.641V18.7083Z" stroke="#1D1D1B" stroke-width="2" stroke-miterlimit="10"/>
<path d="M211.187 18.7083H204.366V25.8516H211.187V18.7083Z" stroke="#1D1D1B" stroke-width="2" stroke-miterlimit="10"/>
<path d="M219.129 26.3167H122.564V34.0553H219.129V26.3167Z" stroke="#1D1D1B" stroke-width="2" stroke-miterlimit="10"/>
<path d="M134.052 31.3862C134.851 31.3862 135.499 30.8491 135.499 30.1865C135.499 29.5239 134.851 28.9868 134.052 28.9868C133.252 28.9868 132.604 29.5239 132.604 30.1865C132.604 30.8491 133.252 31.3862 134.052 31.3862Z" fill="#1D1D1B"/>
<path d="M207.208 31.3862C208.007 31.3862 208.655 30.8491 208.655 30.1865C208.655 29.5239 208.007 28.9868 207.208 28.9868C206.409 28.9868 205.761 29.5239 205.761 30.1865C205.761 30.8491 206.409 31.3862 207.208 31.3862Z" fill="#1D1D1B"/>
<path d="M219.129 247.567H122.564V255.305H219.129V247.567Z" stroke="#1D1D1B" stroke-width="2" stroke-miterlimit="10"/>
<path d="M134.052 252.636C134.851 252.636 135.499 252.099 135.499 251.436C135.499 250.773 134.851 250.236 134.052 250.236C133.252 250.236 132.604 250.773 132.604 251.436C132.604 252.099 133.252 252.636 134.052 252.636Z" fill="#1D1D1B"/>
<path d="M207.208 252.636C208.007 252.636 208.655 252.099 208.655 251.436C208.655 250.773 208.007 250.236 207.208 250.236C206.409 250.236 205.761 250.773 205.761 251.436C205.761 252.099 206.409 252.636 207.208 252.636Z" fill="#1D1D1B"/>
<path d="M219.187 34.1545H122.622V60.0497H219.187V34.1545Z" stroke="#1D1D1B" stroke-width="2" stroke-miterlimit="10"/>
<path d="M134.052 40.5383C134.851 40.5383 135.499 40.0012 135.499 39.3386C135.499 38.676 134.851 38.1389 134.052 38.1389C133.252 38.1389 132.604 38.676 132.604 39.3386C132.604 40.0012 133.252 40.5383 134.052 40.5383Z" fill="#1D1D1B"/>
<path d="M207.208 40.5383C208.007 40.5383 208.655 40.0012 208.655 39.3386C208.655 38.676 208.007 38.1389 207.208 38.1389C206.409 38.1389 205.761 38.676 205.761 39.3386C205.761 40.0012 206.409 40.5383 207.208 40.5383Z" fill="#1D1D1B"/>
<path d="M134.052 56.4501C134.851 56.4501 135.499 55.913 135.499 55.2505C135.499 54.5879 134.851 54.0508 134.052 54.0508C133.252 54.0508 132.604 54.5879 132.604 55.2505C132.604 55.913 133.252 56.4501 134.052 56.4501Z" fill="#1D1D1B"/>
<path d="M207.208 56.4501C208.007 56.4501 208.655 55.913 208.655 55.2505C208.655 54.5879 208.007 54.0508 207.208 54.0508C206.409 54.0508 205.761 54.5879 205.761 55.2505C205.761 55.913 206.409 56.4501 207.208 56.4501Z" fill="#1D1D1B"/>
<path d="M169.78 38.249L160.533 51.6339C160.032 52.3578 160.658 53.2624 161.658 53.2624H180.152C181.152 53.2624 181.777 52.3578 181.277 51.6339L172.03 38.249C171.53 37.5244 170.28 37.5244 169.78 38.249Z" stroke="#1F2133" stroke-width="2" stroke-miterlimit="10"/>
<path d="M170.905 43.0652L168.652 47.1517C168.634 47.185 168.671 47.2206 168.714 47.2099L172.247 46.2912C172.291 46.2799 172.329 46.3189 172.307 46.3527L169.481 50.564" stroke="#1F2133" stroke-width="2" stroke-miterlimit="10"/>
<path d="M126.033 60.0779H122.622V247.567H126.033V60.0779Z" stroke="#1D1D1B" stroke-width="2" stroke-miterlimit="10"/>
<path d="M219.196 60.0779H215.786V247.567H219.196V60.0779Z" stroke="#1D1D1B" stroke-width="2" stroke-miterlimit="10"/>
<path d="M171.026 60.0779H126.033V81.0344H171.026V60.0779Z" stroke="#1D1D1B" stroke-width="2" stroke-miterlimit="10"/>
<path d="M134.052 64.0217H131.157V76.5765H134.052V64.0217Z" stroke="#1F2133" stroke-miterlimit="10"/>
<path d="M133.668 65.4165H131.839V77.0899H133.668V65.4165V65.4165Z" stroke="#1F2133" stroke-miterlimit="10"/>
<path d="M152.789 67.1331H144.532V73.979H152.789V67.1331Z" stroke="#1F2133" stroke-miterlimit="10"/>
<path d="M148.661 71.6208C149.342 71.6208 149.895 71.1628 149.895 70.5978C149.895 70.0327 149.342 69.5747 148.661 69.5747C147.98 69.5747 147.427 70.0327 147.427 70.5978C147.427 71.1628 147.98 71.6208 148.661 71.6208Z" fill="#1F2133"/>
<path d="M162.298 66.5238C163.55 66.5238 164.564 65.6825 164.564 64.6447C164.564 63.6069 163.55 62.7656 162.298 62.7656C161.047 62.7656 160.032 63.6069 160.032 64.6447C160.032 65.6825 161.047 66.5238 162.298 66.5238Z" stroke="#1F2133" stroke-miterlimit="10"/>
<path d="M215.786 60.0779H170.792V81.0344H215.786V60.0779Z" stroke="#1D1D1B" stroke-width="2" stroke-miterlimit="10"/>
<path d="M178.811 64.0217H175.917V76.5765H178.811V64.0217Z" stroke="#1F2133" stroke-miterlimit="10"/>
<path d="M178.427 65.4165H176.598V77.0899H178.427V65.4165Z" stroke="#1F2133" stroke-miterlimit="10"/>
<path d="M197.548 67.1331H189.292V73.979H197.548V67.1331Z" stroke="#1F2133" stroke-miterlimit="10"/>
<path d="M193.42 71.6208C194.102 71.6208 194.654 71.1628 194.654 70.5978C194.654 70.0327 194.102 69.5747 193.42 69.5747C192.739 69.5747 192.187 70.0327 192.187 70.5978C192.187 71.1628 192.739 71.6208 193.42 71.6208Z" fill="#1F2133"/>
<path d="M207.058 66.5238C208.31 66.5238 209.324 65.6825 209.324 64.6447C209.324 63.6069 208.31 62.7656 207.058 62.7656C205.807 62.7656 204.792 63.6069 204.792 64.6447C204.792 65.6825 205.807 66.5238 207.058 66.5238Z" stroke="#1F2133" stroke-miterlimit="10"/>
<path d="M171.026 81.0337H126.033V101.99H171.026V81.0337Z" stroke="#1D1D1B" stroke-width="2" stroke-miterlimit="10"/>
<path d="M134.052 84.9775H131.157V97.5324H134.052V84.9775Z" stroke="#1F2133" stroke-miterlimit="10"/>
<path d="M133.668 86.373H131.839V98.0465H133.668V86.373V86.373Z" stroke="#1F2133" stroke-miterlimit="10"/>
<path d="M152.789 88.0889H144.532V94.9348H152.789V88.0889Z" stroke="#1F2133" stroke-miterlimit="10"/>
<path d="M148.661 92.5766C149.342 92.5766 149.895 92.1186 149.895 91.5536C149.895 90.9885 149.342 90.5305 148.661 90.5305C147.98 90.5305 147.427 90.9885 147.427 91.5536C147.427 92.1186 147.98 92.5766 148.661 92.5766Z" fill="#1F2133"/>
<path d="M162.298 87.4801C163.55 87.4801 164.564 86.6388 164.564 85.601C164.564 84.5632 163.55 83.7219 162.298 83.7219C161.047 83.7219 160.032 84.5632 160.032 85.601C160.032 86.6388 161.047 87.4801 162.298 87.4801Z" stroke="#1F2133" stroke-miterlimit="10"/>
<path d="M215.786 81.0337H170.792V101.99H215.786V81.0337Z" stroke="#1D1D1B" stroke-width="2" stroke-miterlimit="10"/>
<path d="M178.811 84.9775H175.917V97.5324H178.811V84.9775Z" stroke="#1F2133" stroke-miterlimit="10"/>
<path d="M178.427 86.373H176.598V98.0465H178.427V86.373Z" stroke="#1F2133" stroke-miterlimit="10"/>
<path d="M197.548 88.0889H189.292V94.9348H197.548V88.0889Z" stroke="#1F2133" stroke-miterlimit="10"/>
<path d="M193.42 92.5766C194.102 92.5766 194.654 92.1186 194.654 91.5536C194.654 90.9885 194.102 90.5305 193.42 90.5305C192.739 90.5305 192.187 90.9885 192.187 91.5536C192.187 92.1186 192.739 92.5766 193.42 92.5766Z" fill="#1F2133"/>
<path d="M207.058 87.4801C208.31 87.4801 209.324 86.6388 209.324 85.601C209.324 84.5632 208.31 83.7219 207.058 83.7219C205.807 83.7219 204.792 84.5632 204.792 85.601C204.792 86.6388 205.807 87.4801 207.058 87.4801Z" stroke="#1F2133" stroke-miterlimit="10"/>
<path d="M171.026 101.99H126.033V122.947H171.026V101.99Z" stroke="#1D1D1B" stroke-width="2" stroke-miterlimit="10"/>
<path d="M134.052 105.934H131.157V118.489H134.052V105.934Z" stroke="#1F2133" stroke-miterlimit="10"/>
<path d="M133.668 107.329H131.839V119.002H133.668V107.329V107.329Z" stroke="#1F2133" stroke-miterlimit="10"/>
<path d="M152.789 109.045H144.532V115.891H152.789V109.045Z" stroke="#1F2133" stroke-miterlimit="10"/>
<path d="M148.661 113.533C149.342 113.533 149.895 113.075 149.895 112.51C149.895 111.945 149.342 111.487 148.661 111.487C147.98 111.487 147.427 111.945 147.427 112.51C147.427 113.075 147.98 113.533 148.661 113.533Z" fill="#1F2133"/>
<path d="M162.298 108.437C163.55 108.437 164.564 107.595 164.564 106.558C164.564 105.52 163.55 104.678 162.298 104.678C161.047 104.678 160.032 105.52 160.032 106.558C160.032 107.595 161.047 108.437 162.298 108.437Z" stroke="#1F2133" stroke-miterlimit="10"/>
<path d="M171.026 143.903H126.033V164.859H171.026V143.903Z" stroke="#1D1D1B" stroke-width="2" stroke-miterlimit="10"/>
<path d="M134.052 147.846H131.157V160.401H134.052V147.846Z" stroke="#1F2133" stroke-miterlimit="10"/>
<path d="M133.668 149.241H131.839V160.915H133.668V149.241V149.241Z" stroke="#1F2133" stroke-miterlimit="10"/>
<path d="M152.789 150.958H144.532V157.804H152.789V150.958Z" stroke="#1F2133" stroke-miterlimit="10"/>
<path d="M148.661 155.446C149.342 155.446 149.895 154.988 149.895 154.423C149.895 153.858 149.342 153.4 148.661 153.4C147.98 153.4 147.427 153.858 147.427 154.423C147.427 154.988 147.98 155.446 148.661 155.446Z" fill="#1F2133"/>
<path d="M162.298 150.349C163.55 150.349 164.564 149.508 164.564 148.47C164.564 147.432 163.55 146.591 162.298 146.591C161.047 146.591 160.032 147.432 160.032 148.47C160.032 149.508 161.047 150.349 162.298 150.349Z" stroke="#1F2133" stroke-miterlimit="10"/>
<path d="M162.298 155.535C163.55 155.535 164.564 154.693 164.564 153.656C164.564 152.618 163.55 151.777 162.298 151.777C161.047 151.777 160.032 152.618 160.032 153.656C160.032 154.693 161.047 155.535 162.298 155.535Z" stroke="#1F2133" stroke-miterlimit="10"/>
<path d="M162.298 160.72C163.55 160.72 164.564 159.879 164.564 158.841C164.564 157.803 163.55 156.962 162.298 156.962C161.047 156.962 160.032 157.803 160.032 158.841C160.032 159.879 161.047 160.72 162.298 160.72Z" stroke="#1F2133" stroke-miterlimit="10"/>
<path d="M215.786 143.903H170.792V164.859H215.786V143.903Z" stroke="#1D1D1B" stroke-width="2" stroke-miterlimit="10"/>
<path d="M178.811 147.846H175.917V160.401H178.811V147.846Z" stroke="#1F2133" stroke-miterlimit="10"/>
<path d="M178.427 149.241H176.598V160.915H178.427V149.241Z" stroke="#1F2133" stroke-miterlimit="10"/>
<path d="M197.548 150.958H189.292V157.804H197.548V150.958Z" stroke="#1F2133" stroke-miterlimit="10"/>
<path d="M193.42 155.446C194.102 155.446 194.654 154.988 194.654 154.423C194.654 153.858 194.102 153.4 193.42 153.4C192.739 153.4 192.187 153.858 192.187 154.423C192.187 154.988 192.739 155.446 193.42 155.446Z" fill="#1F2133"/>
<path d="M207.058 150.349C208.31 150.349 209.324 149.508 209.324 148.47C209.324 147.432 208.31 146.591 207.058 146.591C205.807 146.591 204.792 147.432 204.792 148.47C204.792 149.508 205.807 150.349 207.058 150.349Z" stroke="#1F2133" stroke-miterlimit="10"/>
<path d="M207.058 155.535C208.31 155.535 209.324 154.693 209.324 153.656C209.324 152.618 208.31 151.777 207.058 151.777C205.807 151.777 204.792 152.618 204.792 153.656C204.792 154.693 205.807 155.535 207.058 155.535Z" stroke="#1F2133" stroke-miterlimit="10"/>
<path d="M207.058 160.72C208.31 160.72 209.324 159.879 209.324 158.841C209.324 157.803 208.31 156.962 207.058 156.962C205.807 156.962 204.792 157.803 204.792 158.841C204.792 159.879 205.807 160.72 207.058 160.72Z" stroke="#1F2133" stroke-miterlimit="10"/>
<path d="M171.026 122.813H126.033V143.769H171.026V122.813Z" stroke="#1D1D1B" stroke-width="2" stroke-miterlimit="10"/>
<path d="M134.052 126.757H131.157V139.312H134.052V126.757Z" stroke="#1F2133" stroke-miterlimit="10"/>
<path d="M133.668 128.152H131.839V139.825H133.668V128.152V128.152Z" stroke="#1F2133" stroke-miterlimit="10"/>
<path d="M152.789 129.868H144.532V136.714H152.789V129.868Z" stroke="#1F2133" stroke-miterlimit="10"/>
<path d="M148.661 134.356C149.342 134.356 149.895 133.898 149.895 133.333C149.895 132.768 149.342 132.31 148.661 132.31C147.98 132.31 147.427 132.768 147.427 133.333C147.427 133.898 147.98 134.356 148.661 134.356Z" fill="#1F2133"/>
<path d="M162.298 129.259C163.55 129.259 164.564 128.418 164.564 127.38C164.564 126.342 163.55 125.501 162.298 125.501C161.047 125.501 160.032 126.342 160.032 127.38C160.032 128.418 161.047 129.259 162.298 129.259Z" stroke="#1F2133" stroke-miterlimit="10"/>
<path d="M162.298 134.445C163.55 134.445 164.564 133.603 164.564 132.566C164.564 131.528 163.55 130.687 162.298 130.687C161.047 130.687 160.032 131.528 160.032 132.566C160.032 133.603 161.047 134.445 162.298 134.445Z" stroke="#1F2133" stroke-miterlimit="10"/>
<path d="M162.298 139.63C163.55 139.63 164.564 138.789 164.564 137.751C164.564 136.714 163.55 135.872 162.298 135.872C161.047 135.872 160.032 136.714 160.032 137.751C160.032 138.789 161.047 139.63 162.298 139.63Z" stroke="#1F2133" stroke-miterlimit="10"/>
<path d="M215.786 122.813H170.792V143.769H215.786V122.813Z" stroke="#1D1D1B" stroke-width="2" stroke-miterlimit="10"/>
<path d="M178.811 126.757H175.917V139.312H178.811V126.757Z" stroke="#1F2133" stroke-miterlimit="10"/>
<path d="M178.427 128.152H176.598V139.825H178.427V128.152Z" stroke="#1F2133" stroke-miterlimit="10"/>
<path d="M197.548 129.868H189.292V136.714H197.548V129.868Z" stroke="#1F2133" stroke-miterlimit="10"/>
<path d="M193.42 134.356C194.102 134.356 194.654 133.898 194.654 133.333C194.654 132.768 194.102 132.31 193.42 132.31C192.739 132.31 192.187 132.768 192.187 133.333C192.187 133.898 192.739 134.356 193.42 134.356Z" fill="#1F2133"/>
<path d="M207.058 129.259C208.31 129.259 209.324 128.418 209.324 127.38C209.324 126.342 208.31 125.501 207.058 125.501C205.807 125.501 204.792 126.342 204.792 127.38C204.792 128.418 205.807 129.259 207.058 129.259Z" stroke="#1F2133" stroke-miterlimit="10"/>
<path d="M207.058 134.445C208.31 134.445 209.324 133.603 209.324 132.566C209.324 131.528 208.31 130.687 207.058 130.687C205.807 130.687 204.792 131.528 204.792 132.566C204.792 133.603 205.807 134.445 207.058 134.445Z" stroke="#1F2133" stroke-miterlimit="10"/>
<path d="M207.058 139.63C208.31 139.63 209.324 138.789 209.324 137.751C209.324 136.714 208.31 135.872 207.058 135.872C205.807 135.872 204.792 136.714 204.792 137.751C204.792 138.789 205.807 139.63 207.058 139.63Z" stroke="#1F2133" stroke-miterlimit="10"/>
<path d="M215.786 101.99H170.792V122.947H215.786V101.99Z" stroke="#1D1D1B" stroke-width="2" stroke-miterlimit="10"/>
<path d="M178.811 105.934H175.917V118.489H178.811V105.934Z" stroke="#1F2133" stroke-miterlimit="10"/>
<path d="M178.427 107.329H176.598V119.002H178.427V107.329Z" stroke="#1F2133" stroke-miterlimit="10"/>
<path d="M197.548 109.045H189.292V115.891H197.548V109.045Z" stroke="#1F2133" stroke-miterlimit="10"/>
<path d="M193.42 113.533C194.102 113.533 194.654 113.075 194.654 112.51C194.654 111.945 194.102 111.487 193.42 111.487C192.739 111.487 192.187 111.945 192.187 112.51C192.187 113.075 192.739 113.533 193.42 113.533Z" fill="#1F2133"/>
<path d="M207.058 108.437C208.31 108.437 209.324 107.595 209.324 106.558C209.324 105.52 208.31 104.678 207.058 104.678C205.807 104.678 204.792 105.52 204.792 106.558C204.792 107.595 205.807 108.437 207.058 108.437Z" stroke="#1F2133" stroke-miterlimit="10"/>
<path d="M207.058 113.622C208.31 113.622 209.324 112.781 209.324 111.743C209.324 110.705 208.31 109.864 207.058 109.864C205.807 109.864 204.792 110.705 204.792 111.743C204.792 112.781 205.807 113.622 207.058 113.622Z" stroke="#1F2133" stroke-miterlimit="10"/>
<path d="M207.058 118.808C208.31 118.808 209.324 117.966 209.324 116.929C209.324 115.891 208.31 115.05 207.058 115.05C205.807 115.05 204.792 115.891 204.792 116.929C204.792 117.966 205.807 118.808 207.058 118.808Z" stroke="#1F2133" stroke-miterlimit="10"/>
<path d="M134.066 233.462C134.865 233.462 135.513 232.925 135.513 232.263C135.513 231.6 134.865 231.063 134.066 231.063C133.267 231.063 132.619 231.6 132.619 232.263C132.619 232.925 133.267 233.462 134.066 233.462Z" fill="#1D1D1B"/>
<path d="M134.066 176.469C134.865 176.469 135.513 175.932 135.513 175.27C135.513 174.607 134.865 174.07 134.066 174.07C133.267 174.07 132.619 174.607 132.619 175.27C132.619 175.932 133.267 176.469 134.066 176.469Z" fill="#1D1D1B"/>
<path d="M171.19 195.078L161.942 208.464C161.442 209.188 162.067 210.092 163.068 210.092H181.561C182.561 210.092 183.186 209.188 182.687 208.464L173.439 195.079C172.94 194.354 171.69 194.354 171.19 195.078Z" stroke="#1F2133" stroke-width="2" stroke-miterlimit="10"/>
<path d="M172.315 199.895L170.062 203.982C170.043 204.015 170.081 204.05 170.124 204.04L173.657 203.121C173.701 203.11 173.739 203.149 173.717 203.183L170.891 207.394" stroke="#1F2133" stroke-width="2" stroke-miterlimit="10"/>
<path d="M234.881 18.7083H228.061V25.8516H234.881V18.7083Z" stroke="#1D1D1B" stroke-width="2" stroke-miterlimit="10"/>
<path d="M308.427 18.7083H301.606V25.8516H308.427V18.7083Z" stroke="#1D1D1B" stroke-width="2" stroke-miterlimit="10"/>
<path d="M316.369 26.3167H219.804V34.0553H316.369V26.3167Z" stroke="#1D1D1B" stroke-width="2" stroke-miterlimit="10"/>
<path d="M231.291 31.3862C232.09 31.3862 232.738 30.8491 232.738 30.1865C232.738 29.5239 232.09 28.9868 231.291 28.9868C230.492 28.9868 229.844 29.5239 229.844 30.1865C229.844 30.8491 230.492 31.3862 231.291 31.3862Z" fill="#1D1D1B"/>
<path d="M304.448 31.3862C305.247 31.3862 305.895 30.8491 305.895 30.1865C305.895 29.5239 305.247 28.9868 304.448 28.9868C303.649 28.9868 303.001 29.5239 303.001 30.1865C303.001 30.8491 303.649 31.3862 304.448 31.3862Z" fill="#1D1D1B"/>
<path d="M316.427 34.1545H219.862V60.0497H316.427V34.1545Z" stroke="#1D1D1B" stroke-width="2" stroke-miterlimit="10"/>
<path d="M231.291 40.5383C232.09 40.5383 232.738 40.0012 232.738 39.3386C232.738 38.676 232.09 38.1389 231.291 38.1389C230.492 38.1389 229.844 38.676 229.844 39.3386C229.844 40.0012 230.492 40.5383 231.291 40.5383Z" fill="#1D1D1B"/>
<path d="M304.448 40.5383C305.247 40.5383 305.895 40.0012 305.895 39.3386C305.895 38.676 305.247 38.1389 304.448 38.1389C303.649 38.1389 303.001 38.676 303.001 39.3386C303.001 40.0012 303.649 40.5383 304.448 40.5383Z" fill="#1D1D1B"/>
<path d="M231.291 56.4501C232.09 56.4501 232.738 55.913 232.738 55.2505C232.738 54.5879 232.09 54.0508 231.291 54.0508C230.492 54.0508 229.844 54.5879 229.844 55.2505C229.844 55.913 230.492 56.4501 231.291 56.4501Z" fill="#1D1D1B"/>
<path d="M304.448 56.4501C305.247 56.4501 305.895 55.913 305.895 55.2505C305.895 54.5879 305.247 54.0508 304.448 54.0508C303.649 54.0508 303.001 54.5879 303.001 55.2505C303.001 55.913 303.649 56.4501 304.448 56.4501Z" fill="#1D1D1B"/>
<path d="M267.02 38.249L257.773 51.6339C257.272 52.3578 257.898 53.2624 258.898 53.2624H277.392C278.392 53.2624 279.017 52.3578 278.517 51.6339L269.27 38.249C268.77 37.5244 267.52 37.5244 267.02 38.249Z" stroke="#1F2133" stroke-width="2" stroke-miterlimit="10"/>
<path d="M268.145 43.0652L265.892 47.1517C265.874 47.185 265.911 47.2206 265.954 47.2099L269.487 46.2912C269.531 46.2799 269.569 46.3189 269.547 46.3527L266.721 50.564" stroke="#1F2133" stroke-width="2" stroke-miterlimit="10"/>
<path d="M223.273 60.0779H219.862V247.567H223.273V60.0779Z" stroke="#1D1D1B" stroke-width="2" stroke-miterlimit="10"/>
<path d="M316.436 60.0779H313.026V247.567H316.436V60.0779Z" stroke="#1D1D1B" stroke-width="2" stroke-miterlimit="10"/>
<path d="M268.266 60.0779H223.273V81.0344H268.266V60.0779Z" stroke="#1D1D1B" stroke-width="2" stroke-miterlimit="10"/>
<path d="M231.291 64.0217H228.397V76.5765H231.291V64.0217Z" stroke="#1F2133" stroke-miterlimit="10"/>
<path d="M230.908 65.4165H229.079V77.0899H230.908V65.4165Z" stroke="#1F2133" stroke-miterlimit="10"/>
<path d="M250.029 67.1331H241.772V73.979H250.029V67.1331Z" stroke="#1F2133" stroke-miterlimit="10"/>
<path d="M245.9 71.6208C246.582 71.6208 247.134 71.1628 247.134 70.5978C247.134 70.0327 246.582 69.5747 245.9 69.5747C245.219 69.5747 244.667 70.0327 244.667 70.5978C244.667 71.1628 245.219 71.6208 245.9 71.6208Z" fill="#1F2133"/>
<path d="M259.538 66.5238C260.79 66.5238 261.804 65.6825 261.804 64.6447C261.804 63.6069 260.79 62.7656 259.538 62.7656C258.287 62.7656 257.272 63.6069 257.272 64.6447C257.272 65.6825 258.287 66.5238 259.538 66.5238Z" stroke="#1F2133" stroke-miterlimit="10"/>
<path d="M313.026 60.0779H268.032V81.0344H313.026V60.0779Z" stroke="#1D1D1B" stroke-width="2" stroke-miterlimit="10"/>
<path d="M276.051 64.0217H273.157V76.5765H276.051V64.0217Z" stroke="#1F2133" stroke-miterlimit="10"/>
<path d="M275.667 65.4165H273.838V77.0899H275.667V65.4165Z" stroke="#1F2133" stroke-miterlimit="10"/>
<path d="M294.788 67.1331H286.532V73.979H294.788V67.1331Z" stroke="#1F2133" stroke-miterlimit="10"/>
<path d="M290.66 71.6208C291.342 71.6208 291.894 71.1628 291.894 70.5978C291.894 70.0327 291.342 69.5747 290.66 69.5747C289.979 69.5747 289.427 70.0327 289.427 70.5978C289.427 71.1628 289.979 71.6208 290.66 71.6208Z" fill="#1F2133"/>
<path d="M304.297 66.5238C305.549 66.5238 306.564 65.6825 306.564 64.6447C306.564 63.6069 305.549 62.7656 304.297 62.7656C303.046 62.7656 302.031 63.6069 302.031 64.6447C302.031 65.6825 303.046 66.5238 304.297 66.5238Z" stroke="#1F2133" stroke-miterlimit="10"/>
<path d="M268.266 81.0337H223.273V101.99H268.266V81.0337Z" stroke="#1D1D1B" stroke-width="2" stroke-miterlimit="10"/>
<path d="M231.291 84.9775H228.397V97.5324H231.291V84.9775Z" stroke="#1F2133" stroke-miterlimit="10"/>
<path d="M230.908 86.373H229.079V98.0465H230.908V86.373Z" stroke="#1F2133" stroke-miterlimit="10"/>
<path d="M250.029 88.0889H241.772V94.9348H250.029V88.0889Z" stroke="#1F2133" stroke-miterlimit="10"/>
<path d="M245.9 92.5766C246.582 92.5766 247.134 92.1186 247.134 91.5536C247.134 90.9885 246.582 90.5305 245.9 90.5305C245.219 90.5305 244.667 90.9885 244.667 91.5536C244.667 92.1186 245.219 92.5766 245.9 92.5766Z" fill="#1F2133"/>
<path d="M259.538 87.4801C260.79 87.4801 261.804 86.6388 261.804 85.601C261.804 84.5632 260.79 83.7219 259.538 83.7219C258.287 83.7219 257.272 84.5632 257.272 85.601C257.272 86.6388 258.287 87.4801 259.538 87.4801Z" stroke="#1F2133" stroke-miterlimit="10"/>
<path d="M313.026 81.0337H268.032V101.99H313.026V81.0337Z" stroke="#1D1D1B" stroke-width="2" stroke-miterlimit="10"/>
<path d="M276.051 84.9775H273.157V97.5324H276.051V84.9775Z" stroke="#1F2133" stroke-miterlimit="10"/>
<path d="M275.667 86.373H273.838V98.0465H275.667V86.373Z" stroke="#1F2133" stroke-miterlimit="10"/>
<path d="M294.788 88.0889H286.532V94.9348H294.788V88.0889Z" stroke="#1F2133" stroke-miterlimit="10"/>
<path d="M290.66 92.5766C291.342 92.5766 291.894 92.1186 291.894 91.5536C291.894 90.9885 291.342 90.5305 290.66 90.5305C289.979 90.5305 289.427 90.9885 289.427 91.5536C289.427 92.1186 289.979 92.5766 290.66 92.5766Z" fill="#1F2133"/>
<path d="M304.297 87.4801C305.549 87.4801 306.564 86.6388 306.564 85.601C306.564 84.5632 305.549 83.7219 304.297 83.7219C303.046 83.7219 302.031 84.5632 302.031 85.601C302.031 86.6388 303.046 87.4801 304.297 87.4801Z" stroke="#1F2133" stroke-miterlimit="10"/>
<path d="M268.266 101.99H223.273V122.947H268.266V101.99Z" stroke="#1D1D1B" stroke-width="2" stroke-miterlimit="10"/>
<path d="M231.291 105.934H228.397V118.489H231.291V105.934Z" stroke="#1F2133" stroke-miterlimit="10"/>
<path d="M230.908 107.329H229.079V119.002H230.908V107.329Z" stroke="#1F2133" stroke-miterlimit="10"/>
<path d="M250.029 109.045H241.772V115.891H250.029V109.045Z" stroke="#1F2133" stroke-miterlimit="10"/>
<path d="M245.9 113.533C246.582 113.533 247.134 113.075 247.134 112.51C247.134 111.945 246.582 111.487 245.9 111.487C245.219 111.487 244.667 111.945 244.667 112.51C244.667 113.075 245.219 113.533 245.9 113.533Z" fill="#1F2133"/>
<path d="M259.538 108.437C260.79 108.437 261.804 107.595 261.804 106.558C261.804 105.52 260.79 104.678 259.538 104.678C258.287 104.678 257.272 105.52 257.272 106.558C257.272 107.595 258.287 108.437 259.538 108.437Z" stroke="#1F2133" stroke-miterlimit="10"/>
<path d="M268.266 143.903H223.273V164.859H268.266V143.903Z" stroke="#1D1D1B" stroke-width="2" stroke-miterlimit="10"/>
<path d="M231.291 147.846H228.397V160.401H231.291V147.846Z" stroke="#1F2133" stroke-miterlimit="10"/>
<path d="M230.908 149.241H229.079V160.915H230.908V149.241Z" stroke="#1F2133" stroke-miterlimit="10"/>
<path d="M250.029 150.958H241.772V157.804H250.029V150.958Z" stroke="#1F2133" stroke-miterlimit="10"/>
<path d="M245.9 155.446C246.582 155.446 247.134 154.988 247.134 154.423C247.134 153.858 246.582 153.4 245.9 153.4C245.219 153.4 244.667 153.858 244.667 154.423C244.667 154.988 245.219 155.446 245.9 155.446Z" fill="#1F2133"/>
<path d="M259.538 150.349C260.79 150.349 261.804 149.508 261.804 148.47C261.804 147.432 260.79 146.591 259.538 146.591C258.287 146.591 257.272 147.432 257.272 148.47C257.272 149.508 258.287 150.349 259.538 150.349Z" stroke="#1F2133" stroke-miterlimit="10"/>
<path d="M313.026 143.903H268.032V164.859H313.026V143.903Z" stroke="#1D1D1B" stroke-width="2" stroke-miterlimit="10"/>
<path d="M276.051 147.846H273.157V160.401H276.051V147.846Z" stroke="#1F2133" stroke-miterlimit="10"/>
<path d="M275.667 149.241H273.838V160.915H275.667V149.241Z" stroke="#1F2133" stroke-miterlimit="10"/>
<path d="M294.788 150.958H286.532V157.804H294.788V150.958Z" stroke="#1F2133" stroke-miterlimit="10"/>
<path d="M290.66 155.446C291.342 155.446 291.894 154.988 291.894 154.423C291.894 153.858 291.342 153.4 290.66 153.4C289.979 153.4 289.427 153.858 289.427 154.423C289.427 154.988 289.979 155.446 290.66 155.446Z" fill="#1F2133"/>
<path d="M304.297 150.349C305.549 150.349 306.564 149.508 306.564 148.47C306.564 147.432 305.549 146.591 304.297 146.591C303.046 146.591 302.031 147.432 302.031 148.47C302.031 149.508 303.046 150.349 304.297 150.349Z" stroke="#1F2133" stroke-miterlimit="10"/>
<path d="M268.266 164.859H223.273V185.816H268.266V164.859Z" stroke="#1D1D1B" stroke-width="2" stroke-miterlimit="10"/>
<path d="M231.291 168.803H228.397V181.358H231.291V168.803Z" stroke="#1F2133" stroke-miterlimit="10"/>
<path d="M230.908 170.198H229.079V181.871H230.908V170.198Z" stroke="#1F2133" stroke-miterlimit="10"/>
<path d="M250.029 171.914H241.772V178.76H250.029V171.914Z" stroke="#1F2133" stroke-miterlimit="10"/>
<path d="M245.9 176.402C246.582 176.402 247.134 175.944 247.134 175.379C247.134 174.814 246.582 174.356 245.9 174.356C245.219 174.356 244.667 174.814 244.667 175.379C244.667 175.944 245.219 176.402 245.9 176.402Z" fill="#1F2133"/>
<path d="M259.538 171.305C260.79 171.305 261.804 170.464 261.804 169.426C261.804 168.388 260.79 167.547 259.538 167.547C258.287 167.547 257.272 168.388 257.272 169.426C257.272 170.464 258.287 171.305 259.538 171.305Z" stroke="#1F2133" stroke-miterlimit="10"/>
<path d="M259.538 176.491C260.79 176.491 261.804 175.65 261.804 174.612C261.804 173.574 260.79 172.733 259.538 172.733C258.287 172.733 257.272 173.574 257.272 174.612C257.272 175.65 258.287 176.491 259.538 176.491Z" stroke="#1F2133" stroke-miterlimit="10"/>
<path d="M259.538 181.677C260.79 181.677 261.804 180.835 261.804 179.798C261.804 178.76 260.79 177.918 259.538 177.918C258.287 177.918 257.272 178.76 257.272 179.798C257.272 180.835 258.287 181.677 259.538 181.677Z" stroke="#1F2133" stroke-miterlimit="10"/>
<path d="M313.026 164.859H268.032V185.816H313.026V164.859Z" stroke="#1D1D1B" stroke-width="2" stroke-miterlimit="10"/>
<path d="M276.051 168.803H273.157V181.358H276.051V168.803Z" stroke="#1F2133" stroke-miterlimit="10"/>
<path d="M275.667 170.198H273.838V181.871H275.667V170.198Z" stroke="#1F2133" stroke-miterlimit="10"/>
<path d="M294.788 171.914H286.532V178.76H294.788V171.914Z" stroke="#1F2133" stroke-miterlimit="10"/>
<path d="M290.66 176.402C291.342 176.402 291.894 175.944 291.894 175.379C291.894 174.814 291.342 174.356 290.66 174.356C289.979 174.356 289.427 174.814 289.427 175.379C289.427 175.944 289.979 176.402 290.66 176.402Z" fill="#1F2133"/>
<path d="M304.297 171.305C305.549 171.305 306.564 170.464 306.564 169.426C306.564 168.388 305.549 167.547 304.297 167.547C303.046 167.547 302.031 168.388 302.031 169.426C302.031 170.464 303.046 171.305 304.297 171.305Z" stroke="#1F2133" stroke-miterlimit="10"/>
<path d="M304.297 176.491C305.549 176.491 306.564 175.65 306.564 174.612C306.564 173.574 305.549 172.733 304.297 172.733C303.046 172.733 302.031 173.574 302.031 174.612C302.031 175.65 303.046 176.491 304.297 176.491Z" stroke="#1F2133" stroke-miterlimit="10"/>
<path d="M304.297 181.677C305.549 181.677 306.564 180.835 306.564 179.798C306.564 178.76 305.549 177.918 304.297 177.918C303.046 177.918 302.031 178.76 302.031 179.798C302.031 180.835 303.046 181.677 304.297 181.677Z" stroke="#1F2133" stroke-miterlimit="10"/>
<path d="M268.266 185.815H223.273V206.772H268.266V185.815Z" stroke="#1D1D1B" stroke-width="2" stroke-miterlimit="10"/>
<path d="M231.291 189.759H228.397V202.314H231.291V189.759Z" stroke="#1F2133" stroke-miterlimit="10"/>
<path d="M230.908 191.154H229.079V202.828H230.908V191.154Z" stroke="#1F2133" stroke-miterlimit="10"/>
<path d="M250.029 192.87H241.772V199.716H250.029V192.87Z" stroke="#1F2133" stroke-miterlimit="10"/>
<path d="M245.9 197.358C246.582 197.358 247.134 196.9 247.134 196.335C247.134 195.77 246.582 195.312 245.9 195.312C245.219 195.312 244.667 195.77 244.667 196.335C244.667 196.9 245.219 197.358 245.9 197.358Z" fill="#1F2133"/>
<path d="M259.538 192.261C260.79 192.261 261.804 191.42 261.804 190.382C261.804 189.345 260.79 188.503 259.538 188.503C258.287 188.503 257.272 189.345 257.272 190.382C257.272 191.42 258.287 192.261 259.538 192.261Z" stroke="#1F2133" stroke-miterlimit="10"/>
<path d="M259.538 197.447C260.79 197.447 261.804 196.606 261.804 195.568C261.804 194.53 260.79 193.689 259.538 193.689C258.287 193.689 257.272 194.53 257.272 195.568C257.272 196.606 258.287 197.447 259.538 197.447Z" stroke="#1F2133" stroke-miterlimit="10"/>
<path d="M259.538 202.633C260.79 202.633 261.804 201.792 261.804 200.754C261.804 199.716 260.79 198.875 259.538 198.875C258.287 198.875 257.272 199.716 257.272 200.754C257.272 201.792 258.287 202.633 259.538 202.633Z" stroke="#1F2133" stroke-miterlimit="10"/>
<path d="M313.026 185.815H268.032V206.772H313.026V185.815Z" stroke="#1D1D1B" stroke-width="2" stroke-miterlimit="10"/>
<path d="M276.051 189.759H273.157V202.314H276.051V189.759Z" stroke="#1F2133" stroke-miterlimit="10"/>
<path d="M275.667 191.154H273.838V202.828H275.667V191.154Z" stroke="#1F2133" stroke-miterlimit="10"/>
<path d="M294.788 192.87H286.532V199.716H294.788V192.87Z" stroke="#1F2133" stroke-miterlimit="10"/>
<path d="M290.66 197.358C291.342 197.358 291.894 196.9 291.894 196.335C291.894 195.77 291.342 195.312 290.66 195.312C289.979 195.312 289.427 195.77 289.427 196.335C289.427 196.9 289.979 197.358 290.66 197.358Z" fill="#1F2133"/>
<path d="M304.297 192.261C305.549 192.261 306.564 191.42 306.564 190.382C306.564 189.345 305.549 188.503 304.297 188.503C303.046 188.503 302.031 189.345 302.031 190.382C302.031 191.42 303.046 192.261 304.297 192.261Z" stroke="#1F2133" stroke-miterlimit="10"/>
<path d="M304.297 197.447C305.549 197.447 306.564 196.606 306.564 195.568C306.564 194.53 305.549 193.689 304.297 193.689C303.046 193.689 302.031 194.53 302.031 195.568C302.031 196.606 303.046 197.447 304.297 197.447Z" stroke="#1F2133" stroke-miterlimit="10"/>
<path d="M304.297 202.633C305.549 202.633 306.564 201.792 306.564 200.754C306.564 199.716 305.549 198.875 304.297 198.875C303.046 198.875 302.031 199.716 302.031 200.754C302.031 201.792 303.046 202.633 304.297 202.633Z" stroke="#1F2133" stroke-miterlimit="10"/>
<path d="M268.266 122.813H223.273V143.769H268.266V122.813Z" stroke="#1D1D1B" stroke-width="2" stroke-miterlimit="10"/>
<path d="M231.291 126.757H228.397V139.312H231.291V126.757Z" stroke="#1F2133" stroke-miterlimit="10"/>
<path d="M230.908 128.152H229.079V139.825H230.908V128.152Z" stroke="#1F2133" stroke-miterlimit="10"/>
<path d="M250.029 129.868H241.772V136.714H250.029V129.868Z" stroke="#1F2133" stroke-miterlimit="10"/>
<path d="M245.9 134.356C246.582 134.356 247.134 133.898 247.134 133.333C247.134 132.768 246.582 132.31 245.9 132.31C245.219 132.31 244.667 132.768 244.667 133.333C244.667 133.898 245.219 134.356 245.9 134.356Z" fill="#1F2133"/>
<path d="M259.538 129.259C260.79 129.259 261.804 128.418 261.804 127.38C261.804 126.342 260.79 125.501 259.538 125.501C258.287 125.501 257.272 126.342 257.272 127.38C257.272 128.418 258.287 129.259 259.538 129.259Z" stroke="#1F2133" stroke-miterlimit="10"/>
<path d="M313.026 122.813H268.032V143.769H313.026V122.813Z" stroke="#1D1D1B" stroke-width="2" stroke-miterlimit="10"/>
<path d="M276.051 126.757H273.157V139.312H276.051V126.757Z" stroke="#1F2133" stroke-miterlimit="10"/>
<path d="M275.667 128.152H273.838V139.825H275.667V128.152Z" stroke="#1F2133" stroke-miterlimit="10"/>
<path d="M294.788 129.868H286.532V136.714H294.788V129.868Z" stroke="#1F2133" stroke-miterlimit="10"/>
<path d="M290.66 134.356C291.342 134.356 291.894 133.898 291.894 133.333C291.894 132.768 291.342 132.31 290.66 132.31C289.979 132.31 289.427 132.768 289.427 133.333C289.427 133.898 289.979 134.356 290.66 134.356Z" fill="#1F2133"/>
<path d="M304.297 129.259C305.549 129.259 306.564 128.418 306.564 127.38C306.564 126.342 305.549 125.501 304.297 125.501C303.046 125.501 302.031 126.342 302.031 127.38C302.031 128.418 303.046 129.259 304.297 129.259Z" stroke="#1F2133" stroke-miterlimit="10"/>
<path d="M313.026 101.99H268.032V122.947H313.026V101.99Z" stroke="#1D1D1B" stroke-width="2" stroke-miterlimit="10"/>
<path d="M276.051 105.934H273.157V118.489H276.051V105.934Z" stroke="#1F2133" stroke-miterlimit="10"/>
<path d="M275.667 107.329H273.838V119.002H275.667V107.329Z" stroke="#1F2133" stroke-miterlimit="10"/>
<path d="M294.788 109.045H286.532V115.891H294.788V109.045Z" stroke="#1F2133" stroke-miterlimit="10"/>
<path d="M290.66 113.533C291.342 113.533 291.894 113.075 291.894 112.51C291.894 111.945 291.342 111.487 290.66 111.487C289.979 111.487 289.427 111.945 289.427 112.51C289.427 113.075 289.979 113.533 290.66 113.533Z" fill="#1F2133"/>
<path d="M304.297 108.437C305.549 108.437 306.564 107.595 306.564 106.558C306.564 105.52 305.549 104.678 304.297 104.678C303.046 104.678 302.031 105.52 302.031 106.558C302.031 107.595 303.046 108.437 304.297 108.437Z" stroke="#1F2133" stroke-miterlimit="10"/>
<path d="M316.427 247.697H219.862V255.436H316.427V247.697Z" stroke="#1D1D1B" stroke-width="2" stroke-miterlimit="10"/>
<path d="M231.237 253.2C232.036 253.2 232.684 252.663 232.684 252C232.684 251.338 232.036 250.801 231.237 250.801C230.438 250.801 229.79 251.338 229.79 252C229.79 252.663 230.438 253.2 231.237 253.2Z" fill="#1D1D1B"/>
<path d="M304.394 253.2C305.193 253.2 305.841 252.663 305.841 252C305.841 251.338 305.193 250.801 304.394 250.801C303.594 250.801 302.947 251.338 302.947 252C302.947 252.663 303.594 253.2 304.394 253.2Z" fill="#1D1D1B"/>
<path d="M231.237 242.857C232.036 242.857 232.684 242.32 232.684 241.657C232.684 240.995 232.036 240.458 231.237 240.458C230.438 240.458 229.79 240.995 229.79 241.657C229.79 242.32 230.438 242.857 231.237 242.857Z" fill="#1D1D1B"/>
<path d="M231.237 214.078C232.036 214.078 232.684 213.541 232.684 212.879C232.684 212.216 232.036 211.679 231.237 211.679C230.438 211.679 229.79 212.216 229.79 212.879C229.79 213.541 230.438 214.078 231.237 214.078Z" fill="#1D1D1B"/>
<path d="M266.962 218.449L257.715 231.834C257.214 232.558 257.839 233.462 258.84 233.462H277.334C278.333 233.462 278.959 232.558 278.459 231.834L269.212 218.449C268.712 217.725 267.462 217.725 266.962 218.449Z" stroke="#1F2133" stroke-width="2" stroke-miterlimit="10"/>
<path d="M268.087 223.265L265.834 227.352C265.815 227.385 265.853 227.42 265.896 227.41L269.429 226.491C269.473 226.48 269.511 226.519 269.489 226.553L266.663 230.764" stroke="#1F2133" stroke-width="2" stroke-miterlimit="10"/>
<path d="M39.8812 18.7085H33.0605V25.8518H39.8812V18.7085Z" stroke="#1D1D1B" stroke-width="2" stroke-miterlimit="10"/>
<path d="M113.427 18.7085H106.606V25.8518H113.427V18.7085Z" stroke="#1D1D1B" stroke-width="2" stroke-miterlimit="10"/>
<path d="M121.369 26.3169H24.8042V34.0555H121.369V26.3169Z" stroke="#1D1D1B" stroke-width="2" stroke-miterlimit="10"/>
<path d="M36.2911 31.3864C37.0902 31.3864 37.7381 30.8493 37.7381 30.1867C37.7381 29.5242 37.0902 28.9871 36.2911 28.9871C35.4919 28.9871 34.844 29.5242 34.844 30.1867C34.844 30.8493 35.4919 31.3864 36.2911 31.3864Z" fill="#1D1D1B"/>
<path d="M109.448 31.3864C110.247 31.3864 110.895 30.8493 110.895 30.1867C110.895 29.5242 110.247 28.9871 109.448 28.9871C108.649 28.9871 108.001 29.5242 108.001 30.1867C108.001 30.8493 108.649 31.3864 109.448 31.3864Z" fill="#1D1D1B"/>
<path d="M121.427 34.1548H24.8623V60.0499H121.427V34.1548Z" stroke="#1D1D1B" stroke-width="2" stroke-miterlimit="10"/>
<path d="M36.2911 40.5385C37.0902 40.5385 37.7381 40.0014 37.7381 39.3388C37.7381 38.6763 37.0902 38.1392 36.2911 38.1392C35.4919 38.1392 34.844 38.6763 34.844 39.3388C34.844 40.0014 35.4919 40.5385 36.2911 40.5385Z" fill="#1D1D1B"/>
<path d="M109.448 40.5385C110.247 40.5385 110.895 40.0014 110.895 39.3388C110.895 38.6763 110.247 38.1392 109.448 38.1392C108.649 38.1392 108.001 38.6763 108.001 39.3388C108.001 40.0014 108.649 40.5385 109.448 40.5385Z" fill="#1D1D1B"/>
<path d="M36.2911 56.4504C37.0902 56.4504 37.7381 55.9133 37.7381 55.2507C37.7381 54.5881 37.0902 54.051 36.2911 54.051C35.4919 54.051 34.844 54.5881 34.844 55.2507C34.844 55.9133 35.4919 56.4504 36.2911 56.4504Z" fill="#1D1D1B"/>
<path d="M109.448 56.4504C110.247 56.4504 110.895 55.9133 110.895 55.2507C110.895 54.5881 110.247 54.051 109.448 54.051C108.649 54.051 108.001 54.5881 108.001 55.2507C108.001 55.9133 108.649 56.4504 109.448 56.4504Z" fill="#1D1D1B"/>
<path d="M72.0199 38.2492L62.7729 51.6341C62.2725 52.3581 62.8975 53.2626 63.8983 53.2626H82.3919C83.3916 53.2626 84.0167 52.3581 83.5174 51.6341L74.2698 38.2492C73.7705 37.5247 72.5203 37.5247 72.0199 38.2492Z" stroke="#1F2133" stroke-width="2" stroke-miterlimit="10"/>
<path d="M73.1454 43.0654L70.8921 47.152C70.8735 47.1853 70.9107 47.2208 70.9536 47.2101L74.4875 46.2915C74.5315 46.2802 74.5687 46.3191 74.5467 46.353L71.7214 50.5642" stroke="#1F2133" stroke-width="2" stroke-miterlimit="10"/>
<path d="M28.2726 60.0781H24.8623V247.567H28.2726V60.0781Z" stroke="#1D1D1B" stroke-width="2" stroke-miterlimit="10"/>
<path d="M121.436 60.0781H118.026V247.567H121.436V60.0781Z" stroke="#1D1D1B" stroke-width="2" stroke-miterlimit="10"/>
<path d="M73.2663 60.0781H28.2727V81.0346H73.2663V60.0781Z" stroke="#1D1D1B" stroke-width="2" stroke-miterlimit="10"/>
<path d="M36.2911 64.022H33.397V76.5768H36.2911V64.022Z" stroke="#1F2133" stroke-miterlimit="10"/>
<path d="M35.9081 65.4167H34.0791V77.0902H35.9081V65.4167Z" stroke="#1F2133" stroke-miterlimit="10"/>
<path d="M55.0289 67.1333H46.7725V73.9792H55.0289V67.1333Z" stroke="#1F2133" stroke-miterlimit="10"/>
<path d="M50.9003 71.6211C51.5817 71.6211 52.1341 71.163 52.1341 70.598C52.1341 70.033 51.5817 69.575 50.9003 69.575C50.2189 69.575 49.6665 70.033 49.6665 70.598C49.6665 71.163 50.2189 71.6211 50.9003 71.6211Z" fill="#1F2133"/>
<path d="M64.5382 66.524C65.7898 66.524 66.8044 65.6827 66.8044 64.6449C66.8044 63.6072 65.7898 62.7659 64.5382 62.7659C63.2866 62.7659 62.272 63.6072 62.272 64.6449C62.272 65.6827 63.2866 66.524 64.5382 66.524Z" stroke="#1F2133" stroke-miterlimit="10"/>
<path d="M118.026 60.0781H73.032V81.0346H118.026V60.0781Z" stroke="#1D1D1B" stroke-width="2" stroke-miterlimit="10"/>
<path d="M81.0509 64.022H78.1567V76.5768H81.0509V64.022Z" stroke="#1F2133" stroke-miterlimit="10"/>
<path d="M80.6674 65.4167H78.8384V77.0902H80.6674V65.4167Z" stroke="#1F2133" stroke-miterlimit="10"/>
<path d="M99.7881 67.1333H91.5317V73.9792H99.7881V67.1333Z" stroke="#1F2133" stroke-miterlimit="10"/>
<path d="M95.6603 71.6211C96.3417 71.6211 96.8941 71.163 96.8941 70.598C96.8941 70.033 96.3417 69.575 95.6603 69.575C94.9789 69.575 94.4265 70.033 94.4265 70.598C94.4265 71.163 94.9789 71.6211 95.6603 71.6211Z" fill="#1F2133"/>
<path d="M109.297 66.524C110.549 66.524 111.564 65.6827 111.564 64.6449C111.564 63.6072 110.549 62.7659 109.297 62.7659C108.046 62.7659 107.031 63.6072 107.031 64.6449C107.031 65.6827 108.046 66.524 109.297 66.524Z" stroke="#1F2133" stroke-miterlimit="10"/>
<path d="M73.2663 81.0339H28.2727V101.99H73.2663V81.0339Z" stroke="#1D1D1B" stroke-width="2" stroke-miterlimit="10"/>
<path d="M36.2911 84.9778H33.397V97.5326H36.2911V84.9778Z" stroke="#1F2133" stroke-miterlimit="10"/>
<path d="M35.9081 86.3733H34.0791V98.0467H35.9081V86.3733Z" stroke="#1F2133" stroke-miterlimit="10"/>
<path d="M55.0289 88.0891H46.7725V94.935H55.0289V88.0891Z" stroke="#1F2133" stroke-miterlimit="10"/>
<path d="M50.9003 92.5769C51.5817 92.5769 52.1341 92.1188 52.1341 91.5538C52.1341 90.9888 51.5817 90.5308 50.9003 90.5308C50.2189 90.5308 49.6665 90.9888 49.6665 91.5538C49.6665 92.1188 50.2189 92.5769 50.9003 92.5769Z" fill="#1F2133"/>
<path d="M64.5382 87.4803C65.7898 87.4803 66.8044 86.639 66.8044 85.6012C66.8044 84.5635 65.7898 83.7222 64.5382 83.7222C63.2866 83.7222 62.272 84.5635 62.272 85.6012C62.272 86.639 63.2866 87.4803 64.5382 87.4803Z" stroke="#1F2133" stroke-miterlimit="10"/>
<path d="M118.026 81.0339H73.032V101.99H118.026V81.0339Z" stroke="#1D1D1B" stroke-width="2" stroke-miterlimit="10"/>
<path d="M81.0509 84.9778H78.1567V97.5326H81.0509V84.9778Z" stroke="#1F2133" stroke-miterlimit="10"/>
<path d="M80.6674 86.3733H78.8384V98.0467H80.6674V86.3733Z" stroke="#1F2133" stroke-miterlimit="10"/>
<path d="M99.7881 88.0891H91.5317V94.935H99.7881V88.0891Z" stroke="#1F2133" stroke-miterlimit="10"/>
<path d="M95.6603 92.5769C96.3417 92.5769 96.8941 92.1188 96.8941 91.5538C96.8941 90.9888 96.3417 90.5308 95.6603 90.5308C94.9789 90.5308 94.4265 90.9888 94.4265 91.5538C94.4265 92.1188 94.9789 92.5769 95.6603 92.5769Z" fill="#1F2133"/>
<path d="M109.297 87.4803C110.549 87.4803 111.564 86.639 111.564 85.6012C111.564 84.5635 110.549 83.7222 109.297 83.7222C108.046 83.7222 107.031 84.5635 107.031 85.6012C107.031 86.639 108.046 87.4803 109.297 87.4803Z" stroke="#1F2133" stroke-miterlimit="10"/>
<path d="M73.2663 101.99H28.2727V122.947H73.2663V101.99Z" stroke="#1D1D1B" stroke-width="2" stroke-miterlimit="10"/>
<path d="M36.2911 105.934H33.397V118.489H36.2911V105.934Z" stroke="#1F2133" stroke-miterlimit="10"/>
<path d="M35.9081 107.329H34.0791V119.002H35.9081V107.329Z" stroke="#1F2133" stroke-miterlimit="10"/>
<path d="M55.0289 109.046H46.7725V115.892H55.0289V109.046Z" stroke="#1F2133" stroke-miterlimit="10"/>
<path d="M50.9003 113.533C51.5817 113.533 52.1341 113.075 52.1341 112.51C52.1341 111.945 51.5817 111.487 50.9003 111.487C50.2189 111.487 49.6665 111.945 49.6665 112.51C49.6665 113.075 50.2189 113.533 50.9003 113.533Z" fill="#1F2133"/>
<path d="M64.5382 108.437C65.7898 108.437 66.8044 107.596 66.8044 106.558C66.8044 105.52 65.7898 104.679 64.5382 104.679C63.2866 104.679 62.272 105.52 62.272 106.558C62.272 107.596 63.2866 108.437 64.5382 108.437Z" stroke="#1F2133" stroke-miterlimit="10"/>
<path d="M73.2663 143.903H28.2727V164.859H73.2663V143.903Z" stroke="#1D1D1B" stroke-width="2" stroke-miterlimit="10"/>
<path d="M36.2911 147.847H33.397V160.401H36.2911V147.847Z" stroke="#1F2133" stroke-miterlimit="10"/>
<path d="M35.9081 149.242H34.0791V160.915H35.9081V149.242Z" stroke="#1F2133" stroke-miterlimit="10"/>
<path d="M55.0289 150.958H46.7725V157.804H55.0289V150.958Z" stroke="#1F2133" stroke-miterlimit="10"/>
<path d="M50.9003 155.446C51.5817 155.446 52.1341 154.988 52.1341 154.423C52.1341 153.858 51.5817 153.4 50.9003 153.4C50.2189 153.4 49.6665 153.858 49.6665 154.423C49.6665 154.988 50.2189 155.446 50.9003 155.446Z" fill="#1F2133"/>
<path d="M64.5382 150.349C65.7898 150.349 66.8044 149.508 66.8044 148.47C66.8044 147.432 65.7898 146.591 64.5382 146.591C63.2866 146.591 62.272 147.432 62.272 148.47C62.272 149.508 63.2866 150.349 64.5382 150.349Z" stroke="#1F2133" stroke-miterlimit="10"/>
<path d="M118.026 143.903H73.032V164.859H118.026V143.903Z" stroke="#1D1D1B" stroke-width="2" stroke-miterlimit="10"/>
<path d="M81.0509 147.847H78.1567V160.401H81.0509V147.847Z" stroke="#1F2133" stroke-miterlimit="10"/>
<path d="M80.6674 149.242H78.8384V160.915H80.6674V149.242Z" stroke="#1F2133" stroke-miterlimit="10"/>
<path d="M99.7881 150.958H91.5317V157.804H99.7881V150.958Z" stroke="#1F2133" stroke-miterlimit="10"/>
<path d="M95.6603 155.446C96.3417 155.446 96.8941 154.988 96.8941 154.423C96.8941 153.858 96.3417 153.4 95.6603 153.4C94.9789 153.4 94.4265 153.858 94.4265 154.423C94.4265 154.988 94.9789 155.446 95.6603 155.446Z" fill="#1F2133"/>
<path d="M109.297 150.349C110.549 150.349 111.564 149.508 111.564 148.47C111.564 147.432 110.549 146.591 109.297 146.591C108.046 146.591 107.031 147.432 107.031 148.47C107.031 149.508 108.046 150.349 109.297 150.349Z" stroke="#1F2133" stroke-miterlimit="10"/>
<path d="M73.2663 164.859H28.2727V185.816H73.2663V164.859Z" stroke="#1D1D1B" stroke-width="2" stroke-miterlimit="10"/>
<path d="M36.2911 168.803H33.397V181.358H36.2911V168.803Z" stroke="#1F2133" stroke-miterlimit="10"/>
<path d="M35.9081 170.198H34.0791V181.872H35.9081V170.198Z" stroke="#1F2133" stroke-miterlimit="10"/>
<path d="M55.0289 171.915H46.7725V178.761H55.0289V171.915Z" stroke="#1F2133" stroke-miterlimit="10"/>
<path d="M50.9003 176.402C51.5817 176.402 52.1341 175.944 52.1341 175.379C52.1341 174.814 51.5817 174.356 50.9003 174.356C50.2189 174.356 49.6665 174.814 49.6665 175.379C49.6665 175.944 50.2189 176.402 50.9003 176.402Z" fill="#1F2133"/>
<path d="M64.5382 171.305C65.7898 171.305 66.8044 170.464 66.8044 169.426C66.8044 168.388 65.7898 167.547 64.5382 167.547C63.2866 167.547 62.272 168.388 62.272 169.426C62.272 170.464 63.2866 171.305 64.5382 171.305Z" stroke="#1F2133" stroke-miterlimit="10"/>
<path d="M64.5382 176.491C65.7898 176.491 66.8044 175.65 66.8044 174.612C66.8044 173.574 65.7898 172.733 64.5382 172.733C63.2866 172.733 62.272 173.574 62.272 174.612C62.272 175.65 63.2866 176.491 64.5382 176.491Z" stroke="#1F2133" stroke-miterlimit="10"/>
<path d="M64.5382 181.677C65.7898 181.677 66.8044 180.836 66.8044 179.798C66.8044 178.76 65.7898 177.919 64.5382 177.919C63.2866 177.919 62.272 178.76 62.272 179.798C62.272 180.836 63.2866 181.677 64.5382 181.677Z" stroke="#1F2133" stroke-miterlimit="10"/>
<path d="M118.026 164.859H73.032V185.816H118.026V164.859Z" stroke="#1D1D1B" stroke-width="2" stroke-miterlimit="10"/>
<path d="M81.0509 168.803H78.1567V181.358H81.0509V168.803Z" stroke="#1F2133" stroke-miterlimit="10"/>
<path d="M80.6674 170.198H78.8384V181.872H80.6674V170.198Z" stroke="#1F2133" stroke-miterlimit="10"/>
<path d="M99.7881 171.915H91.5317V178.761H99.7881V171.915Z" stroke="#1F2133" stroke-miterlimit="10"/>
<path d="M95.6603 176.402C96.3417 176.402 96.8941 175.944 96.8941 175.379C96.8941 174.814 96.3417 174.356 95.6603 174.356C94.9789 174.356 94.4265 174.814 94.4265 175.379C94.4265 175.944 94.9789 176.402 95.6603 176.402Z" fill="#1F2133"/>
<path d="M109.297 171.305C110.549 171.305 111.564 170.464 111.564 169.426C111.564 168.388 110.549 167.547 109.297 167.547C108.046 167.547 107.031 168.388 107.031 169.426C107.031 170.464 108.046 171.305 109.297 171.305Z" stroke="#1F2133" stroke-miterlimit="10"/>
<path d="M109.297 176.491C110.549 176.491 111.564 175.65 111.564 174.612C111.564 173.574 110.549 172.733 109.297 172.733C108.046 172.733 107.031 173.574 107.031 174.612C107.031 175.65 108.046 176.491 109.297 176.491Z" stroke="#1F2133" stroke-miterlimit="10"/>
<path d="M109.297 181.677C110.549 181.677 111.564 180.836 111.564 179.798C111.564 178.76 110.549 177.919 109.297 177.919C108.046 177.919 107.031 178.76 107.031 179.798C107.031 180.836 108.046 181.677 109.297 181.677Z" stroke="#1F2133" stroke-miterlimit="10"/>
<path d="M73.2663 185.815H28.2727V206.772H73.2663V185.815Z" stroke="#1D1D1B" stroke-width="2" stroke-miterlimit="10"/>
<path d="M36.2911 189.759H33.397V202.314H36.2911V189.759Z" stroke="#1F2133" stroke-miterlimit="10"/>
<path d="M35.9081 191.155H34.0791V202.828H35.9081V191.155Z" stroke="#1F2133" stroke-miterlimit="10"/>
<path d="M55.0289 192.871H46.7725V199.717H55.0289V192.871Z" stroke="#1F2133" stroke-miterlimit="10"/>
<path d="M50.9003 197.358C51.5817 197.358 52.1341 196.9 52.1341 196.335C52.1341 195.77 51.5817 195.312 50.9003 195.312C50.2189 195.312 49.6665 195.77 49.6665 196.335C49.6665 196.9 50.2189 197.358 50.9003 197.358Z" fill="#1F2133"/>
<path d="M64.5382 192.262C65.7898 192.262 66.8044 191.42 66.8044 190.383C66.8044 189.345 65.7898 188.504 64.5382 188.504C63.2866 188.504 62.272 189.345 62.272 190.383C62.272 191.42 63.2866 192.262 64.5382 192.262Z" stroke="#1F2133" stroke-miterlimit="10"/>
<path d="M64.5382 197.447C65.7898 197.447 66.8044 196.606 66.8044 195.568C66.8044 194.531 65.7898 193.689 64.5382 193.689C63.2866 193.689 62.272 194.531 62.272 195.568C62.272 196.606 63.2866 197.447 64.5382 197.447Z" stroke="#1F2133" stroke-miterlimit="10"/>
<path d="M64.5382 202.633C65.7898 202.633 66.8044 201.792 66.8044 200.754C66.8044 199.716 65.7898 198.875 64.5382 198.875C63.2866 198.875 62.272 199.716 62.272 200.754C62.272 201.792 63.2866 202.633 64.5382 202.633Z" stroke="#1F2133" stroke-miterlimit="10"/>
<path d="M118.026 185.815H73.032V206.772H118.026V185.815Z" stroke="#1D1D1B" stroke-width="2" stroke-miterlimit="10"/>
<path d="M81.0509 189.759H78.1567V202.314H81.0509V189.759Z" stroke="#1F2133" stroke-miterlimit="10"/>
<path d="M80.6674 191.155H78.8384V202.828H80.6674V191.155Z" stroke="#1F2133" stroke-miterlimit="10"/>
<path d="M99.7881 192.871H91.5317V199.717H99.7881V192.871Z" stroke="#1F2133" stroke-miterlimit="10"/>
<path d="M95.6603 197.358C96.3417 197.358 96.8941 196.9 96.8941 196.335C96.8941 195.77 96.3417 195.312 95.6603 195.312C94.9789 195.312 94.4265 195.77 94.4265 196.335C94.4265 196.9 94.9789 197.358 95.6603 197.358Z" fill="#1F2133"/>
<path d="M109.297 192.262C110.549 192.262 111.564 191.42 111.564 190.383C111.564 189.345 110.549 188.504 109.297 188.504C108.046 188.504 107.031 189.345 107.031 190.383C107.031 191.42 108.046 192.262 109.297 192.262Z" stroke="#1F2133" stroke-miterlimit="10"/>
<path d="M109.297 197.447C110.549 197.447 111.564 196.606 111.564 195.568C111.564 194.531 110.549 193.689 109.297 193.689C108.046 193.689 107.031 194.531 107.031 195.568C107.031 196.606 108.046 197.447 109.297 197.447Z" stroke="#1F2133" stroke-miterlimit="10"/>
<path d="M109.297 202.633C110.549 202.633 111.564 201.792 111.564 200.754C111.564 199.716 110.549 198.875 109.297 198.875C108.046 198.875 107.031 199.716 107.031 200.754C107.031 201.792 108.046 202.633 109.297 202.633Z" stroke="#1F2133" stroke-miterlimit="10"/>
<path d="M73.2663 122.813H28.2727V143.77H73.2663V122.813Z" stroke="#1D1D1B" stroke-width="2" stroke-miterlimit="10"/>
<path d="M36.2911 126.757H33.397V139.312H36.2911V126.757Z" stroke="#1F2133" stroke-miterlimit="10"/>
<path d="M35.9081 128.152H34.0791V139.825H35.9081V128.152Z" stroke="#1F2133" stroke-miterlimit="10"/>
<path d="M55.0289 129.868H46.7725V136.714H55.0289V129.868Z" stroke="#1F2133" stroke-miterlimit="10"/>
<path d="M50.9003 134.356C51.5817 134.356 52.1341 133.898 52.1341 133.333C52.1341 132.768 51.5817 132.31 50.9003 132.31C50.2189 132.31 49.6665 132.768 49.6665 133.333C49.6665 133.898 50.2189 134.356 50.9003 134.356Z" fill="#1F2133"/>
<path d="M64.5382 129.259C65.7898 129.259 66.8044 128.418 66.8044 127.38C66.8044 126.342 65.7898 125.501 64.5382 125.501C63.2866 125.501 62.272 126.342 62.272 127.38C62.272 128.418 63.2866 129.259 64.5382 129.259Z" stroke="#1F2133" stroke-miterlimit="10"/>
<path d="M118.026 122.813H73.032V143.77H118.026V122.813Z" stroke="#1D1D1B" stroke-width="2" stroke-miterlimit="10"/>
<path d="M81.0509 126.757H78.1567V139.312H81.0509V126.757Z" stroke="#1F2133" stroke-miterlimit="10"/>
<path d="M80.6674 128.152H78.8384V139.825H80.6674V128.152Z" stroke="#1F2133" stroke-miterlimit="10"/>
<path d="M99.7881 129.868H91.5317V136.714H99.7881V129.868Z" stroke="#1F2133" stroke-miterlimit="10"/>
<path d="M95.6603 134.356C96.3417 134.356 96.8941 133.898 96.8941 133.333C96.8941 132.768 96.3417 132.31 95.6603 132.31C94.9789 132.31 94.4265 132.768 94.4265 133.333C94.4265 133.898 94.9789 134.356 95.6603 134.356Z" fill="#1F2133"/>
<path d="M109.297 129.259C110.549 129.259 111.564 128.418 111.564 127.38C111.564 126.342 110.549 125.501 109.297 125.501C108.046 125.501 107.031 126.342 107.031 127.38C107.031 128.418 108.046 129.259 109.297 129.259Z" stroke="#1F2133" stroke-miterlimit="10"/>
<path d="M118.026 101.99H73.032V122.947H118.026V101.99Z" stroke="#1D1D1B" stroke-width="2" stroke-miterlimit="10"/>
<path d="M81.0509 105.934H78.1567V118.489H81.0509V105.934Z" stroke="#1F2133" stroke-miterlimit="10"/>
<path d="M80.6674 107.329H78.8384V119.002H80.6674V107.329Z" stroke="#1F2133" stroke-miterlimit="10"/>
<path d="M99.7881 109.046H91.5317V115.892H99.7881V109.046Z" stroke="#1F2133" stroke-miterlimit="10"/>
<path d="M95.6603 113.533C96.3417 113.533 96.8941 113.075 96.8941 112.51C96.8941 111.945 96.3417 111.487 95.6603 111.487C94.9789 111.487 94.4265 111.945 94.4265 112.51C94.4265 113.075 94.9789 113.533 95.6603 113.533Z" fill="#1F2133"/>
<path d="M109.297 108.437C110.549 108.437 111.564 107.596 111.564 106.558C111.564 105.52 110.549 104.679 109.297 104.679C108.046 104.679 107.031 105.52 107.031 106.558C107.031 107.596 108.046 108.437 109.297 108.437Z" stroke="#1F2133" stroke-miterlimit="10"/>
<path d="M121.427 247.697H24.8623V255.436H121.427V247.697Z" stroke="#1D1D1B" stroke-width="2" stroke-miterlimit="10"/>
<path d="M36.2369 253.2C37.036 253.2 37.6839 252.663 37.6839 252C37.6839 251.338 37.036 250.801 36.2369 250.801C35.4377 250.801 34.7898 251.338 34.7898 252C34.7898 252.663 35.4377 253.2 36.2369 253.2Z" fill="#1D1D1B"/>
<path d="M109.394 253.2C110.193 253.2 110.841 252.663 110.841 252C110.841 251.338 110.193 250.801 109.394 250.801C108.594 250.801 107.947 251.338 107.947 252C107.947 252.663 108.594 253.2 109.394 253.2Z" fill="#1D1D1B"/>
<path d="M36.2369 242.857C37.036 242.857 37.6839 242.32 37.6839 241.658C37.6839 240.995 37.036 240.458 36.2369 240.458C35.4377 240.458 34.7898 240.995 34.7898 241.658C34.7898 242.32 35.4377 242.857 36.2369 242.857Z" fill="#1D1D1B"/>
<path d="M36.2369 214.079C37.036 214.079 37.6839 213.542 37.6839 212.879C37.6839 212.216 37.036 211.679 36.2369 211.679C35.4377 211.679 34.7898 212.216 34.7898 212.879C34.7898 213.542 35.4377 214.079 36.2369 214.079Z" fill="#1D1D1B"/>
<path d="M71.9618 218.449L62.7148 231.834C62.2144 232.558 62.8394 233.463 63.8402 233.463H82.3338C83.3335 233.463 83.9586 232.558 83.4593 231.834L74.2117 218.449C73.7118 217.725 72.4622 217.725 71.9618 218.449Z" stroke="#1F2133" stroke-width="2" stroke-miterlimit="10"/>
<path d="M73.0873 223.265L70.834 227.352C70.8154 227.385 70.8526 227.421 70.8955 227.41L74.4294 226.491C74.4734 226.48 74.5106 226.519 74.4886 226.553L71.6633 230.764" stroke="#1F2133" stroke-width="2" stroke-miterlimit="10"/>
</g>
<defs>
<clipPath id="clip0_117_4344">
<rect width="317" height="256" fill="white"/>
</clipPath>
</defs>
</svg>
