<svg width="242" height="341" viewBox="0 0 242 341" fill="none" xmlns="http://www.w3.org/2000/svg">
<path d="M229.239 303.561V57.8877H115.959V292.418V303.561H126.458L133.366 293.811H212.938L219.016 303.561H229.239Z" stroke="#1F2133" stroke-width="1.5" stroke-miterlimit="10"/>
<path d="M123.199 57.3008L126.21 56.0239V54.05L121.635 53.4702V51.961L126.673 50.9165V48.8275L121.635 48.4214V46.9697L126.673 45.7515V44.3009L121.635 43.5463V41.6885L126.673 40.7027V39.3672L121.229 38.6125V36.8721L126.673 35.6527V33.9123L121.229 33.6799V31.6485L126.673 30.5464V28.515H121.229V26.3098L126.673 25.4977V23.8147L121.229 23.35V21.8994L126.673 20.3327V18.881L121.229 18.185V16.3859L127.136 14.9928V14.0059L126.036 13.3674L129.8 9.77037V8.37731L128.642 6.75189L128.585 5.7649H129.511L129.337 4.60422H128.353L128.178 3.03747L130.843 1.58691H131.904L134.567 3.03747L134.394 4.60422H133.409L133.235 5.7649H134.162L134.104 6.75189L132.946 8.37731V9.77037L136.71 13.3674L135.609 14.0059V14.9928L141.517 16.3859V18.185L136.073 18.881V20.3327L141.517 21.8994V23.35L136.073 23.8147V25.4977L141.517 26.3098V28.515H136.073V30.5464L141.517 31.6485V33.6799L136.073 33.9123V35.6527L141.517 36.8721V38.6125L136.073 39.3672V40.7027L141.111 41.6885V43.5463L136.073 44.3009V45.7515L141.111 46.9697V48.4214L136.073 48.8275V50.9165L141.111 51.961V53.4702L136.537 54.05V56.0239L139.548 57.3008H123.199Z" stroke="#1F2133" stroke-width="1.5" stroke-miterlimit="10"/>
<path d="M153.842 57.8877L154.376 57.5779L152.551 55.8339V55.1591L153.112 54.3705L153.14 53.8928H152.691L152.775 53.3307H153.253L153.337 52.5713L152.045 51.8672H151.531L150.24 52.5713L150.325 53.3307H150.801L150.886 53.8928H150.437L150.465 54.3705L151.026 55.1591V55.8339L149.202 57.5779L149.735 57.8877H153.842Z" stroke="#1F2133" stroke-width="1.5" stroke-miterlimit="10"/>
<path d="M164.132 57.3008L167.143 56.0239V54.05L162.568 53.4702V51.961L167.606 50.9165V48.8275L162.568 48.4214V46.9697L167.606 45.7515V44.3009L162.568 43.5463V41.6885L167.606 40.7027V39.3672L162.163 38.6125V36.8721L167.606 35.6527V33.9123L162.163 33.6799V31.6485L167.606 30.5464V28.515H162.163V26.3098L167.606 25.4977V23.8147L162.163 23.35V21.8994L167.606 20.3327V18.881L162.163 18.185V16.3859L168.069 14.9928V14.0059L166.969 13.3674L170.733 9.77037V8.37731L169.575 6.75189L169.518 5.7649H170.444L170.271 4.60422H169.286L169.112 3.03747L171.776 1.58691H172.837L175.5 3.03747L175.327 4.60422H174.342L174.168 5.7649H175.095L175.037 6.75189L173.879 8.37731V9.77037L177.643 13.3674L176.543 14.0059V14.9928L182.451 16.3859V18.185L177.006 18.881V20.3327L182.451 21.8994V23.35L177.006 23.8147V25.4977L182.451 26.3098V28.515H177.006V30.5464L182.451 31.6485V33.6799L177.006 33.9123V35.6527L182.451 36.8721V38.6125L177.006 39.3672V40.7027L182.044 41.6885V43.5463L177.006 44.3009V45.7515L182.044 46.9697V48.4214L177.006 48.8275V50.9165L182.044 51.961V53.4702L177.47 54.05V56.0239L180.481 57.3008H164.132Z" stroke="#1F2133" stroke-width="1.5" stroke-miterlimit="10"/>
<path d="M205.064 57.3008L208.075 56.0239V54.05L203.501 53.4702V51.961L208.539 50.9165V48.8275L203.501 48.4214V46.9697L208.539 45.7515V44.3009L203.501 43.5463V41.6885L208.539 40.7027V39.3672L203.095 38.6125V36.8721L208.539 35.6527V33.9123L203.095 33.6799V31.6485L208.539 30.5464V28.515H203.095V26.3098L208.539 25.4977V23.8147L203.095 23.35V21.8994L208.539 20.3327V18.881L203.095 18.185V16.3859L209.003 14.9928V14.0059L207.902 13.3674L211.666 9.77037V8.37731L210.508 6.75189L210.45 5.7649H211.377L211.203 4.60422H210.218L210.045 3.03747L212.708 1.58691H213.769L216.434 3.03747L216.259 4.60422H215.275L215.101 5.7649H216.027L215.97 6.75189L214.812 8.37731V9.77037L218.576 13.3674L217.476 14.0059V14.9928L223.383 16.3859V18.185L217.939 18.881V20.3327L223.383 21.8994V23.35L217.939 23.8147V25.4977L223.383 26.3098V28.515H217.939V30.5464L223.383 31.6485V33.6799L217.939 33.9123V35.6527L223.383 36.8721V38.6125L217.939 39.3672V40.7027L222.978 41.6885V43.5463L217.939 44.3009V45.7515L222.978 46.9697V48.4214L217.939 48.8275V50.9165L222.978 51.961V53.4702L218.402 54.05V56.0239L221.413 57.3008H205.064Z" stroke="#1F2133" stroke-width="1.5" stroke-miterlimit="10"/>
<path d="M110.013 71.1316H115.959V80.7269H104.762L110.013 71.1316Z" stroke="#1F2133" stroke-width="1.5" stroke-miterlimit="10"/>
<path d="M235.185 71.1316H229.239V80.7269H240.435L235.185 71.1316Z" stroke="#1F2133" stroke-width="1.5" stroke-miterlimit="10"/>
<path d="M115.959 293.592H229.239" stroke="#1F2133" stroke-width="1.5" stroke-miterlimit="10"/>
<path d="M139.321 339.413V197.858H14.3528V327.122V339.413H25.9355L33.5557 328.657H121.338L128.043 339.413H139.321Z" fill="white" stroke="#1F2133" stroke-width="1.5" stroke-miterlimit="10"/>
<path d="M22.3386 197.211L25.6616 195.802V193.626L20.6138 192.985V191.321L26.1719 190.168V187.863L20.6138 187.415V185.815L26.1719 184.47V182.869L20.6138 182.037V179.989L26.1719 178.9V177.428L20.1667 176.595V174.674L26.1719 173.33V171.409L20.1667 171.154V168.913L26.1719 167.696V165.456H20.1667V163.022L26.1719 162.126V160.269L20.1667 159.757V158.156L26.1719 156.428V154.828L20.1667 154.059V152.074L26.6836 150.538V149.45L25.4691 148.745L29.6229 144.776V143.239L28.3451 141.447L28.2805 140.358H29.3025L29.1112 139.078H28.0247L27.8335 137.349L30.7727 135.748H31.942L34.8813 137.349L34.6888 139.078H33.6035L33.411 140.358H34.4343L34.3697 141.447L33.0919 143.239V144.776L37.2444 148.745L36.0312 149.45V150.538L42.548 152.074V154.059L36.5428 154.828V156.428L42.548 158.156V159.757L36.5428 160.269V162.126L42.548 163.022V165.456H36.5428V167.696L42.548 168.913V171.154L36.5428 171.409V173.33L42.548 174.674V176.595L36.5428 177.428V178.9L42.101 179.989V182.037L36.5428 182.869V184.47L42.101 185.815V187.415L36.5428 187.863V190.168L42.101 191.321V192.985L37.0531 193.626V195.802L40.3762 197.211H22.3386Z" fill="white" stroke="#1F2133" stroke-width="1.5" stroke-miterlimit="10"/>
<path d="M56.1451 197.858L56.7329 197.516L54.72 195.592V194.848L55.3402 193.979L55.3699 193.451H54.8751L54.9681 192.831H55.4939L55.5869 191.993L54.1632 191.218H53.596L52.1709 191.993L52.2639 192.831H52.7911L52.8841 193.451H52.388L52.419 193.979L53.0378 194.848V195.592L51.0249 197.516L51.614 197.858H56.1451Z" fill="white" stroke="#1F2133" stroke-width="1.5" stroke-miterlimit="10"/>
<path d="M67.4953 197.211L70.8184 195.802V193.626L65.7705 192.985V191.321L71.3287 190.168V187.863L65.7705 187.415V185.815L71.3287 184.47V182.869L65.7705 182.037V179.989L71.3287 178.9V177.428L65.3235 176.595V174.674L71.3287 173.33V171.409L65.3235 171.154V168.913L71.3287 167.696V165.456H65.3235V163.022L71.3287 162.126V160.269L65.3235 159.757V158.156L71.3287 156.428V154.828L65.3235 154.059V152.074L71.8403 150.538V149.45L70.6258 148.745L74.7796 144.776V143.239L73.5018 141.447L73.4372 140.358H74.4592L74.268 139.078H73.1814L72.9902 137.349L75.9295 135.748H77.0987L80.038 137.349L79.8468 139.078H78.7603L78.569 140.358H79.591L79.5264 141.447L78.2486 143.239V144.776L82.4024 148.745L81.1879 149.45V150.538L87.7047 152.074V154.059L81.6995 154.828V156.428L87.7047 158.156V159.757L81.6995 160.269V162.126L87.7047 163.022V165.456H81.6995V167.696L87.7047 168.913V171.154L81.6995 171.409V173.33L87.7047 174.674V176.595L81.6995 177.428V178.9L87.2577 179.989V182.037L81.6995 182.869V184.47L87.2577 185.815V187.415L81.6995 187.863V190.168L87.2577 191.321V192.985L82.2099 193.626V195.802L85.5329 197.211H67.4953Z" fill="white" stroke="#1F2133" stroke-width="1.5" stroke-miterlimit="10"/>
<path d="M112.652 197.211L115.975 195.802V193.626L110.927 192.985V191.321L116.486 190.168V187.863L110.927 187.415V185.815L116.486 184.47V182.869L110.927 182.037V179.989L116.486 178.9V177.428L110.48 176.595V174.674L116.486 173.33V171.409L110.48 171.154V168.913L116.486 167.696V165.456H110.48V163.022L116.486 162.126V160.269L110.48 159.757V158.156L116.486 156.428V154.828L110.48 154.059V152.074L116.997 150.538V149.45L115.783 148.745L119.936 144.776V143.239L118.658 141.447L118.593 140.358H119.617L119.424 139.078H118.339L118.146 137.349L121.086 135.748H122.255L125.194 137.349L125.003 139.078H123.917L123.725 140.358H124.747L124.683 141.447L123.405 143.239V144.776L127.559 148.745L126.344 149.45V150.538L132.861 152.074V154.059L126.856 154.828V156.428L132.861 158.156V159.757L126.856 160.269V162.126L132.861 163.022V165.456H126.856V167.696L132.861 168.913V171.154L126.856 171.409V173.33L132.861 174.674V176.595L126.856 177.428V178.9L132.414 179.989V182.037L126.856 182.869V184.47L132.414 185.815V187.415L126.856 187.863V190.168L132.414 191.321V192.985L127.366 193.626V195.802L130.689 197.211H112.652Z" fill="white" stroke="#1F2133" stroke-width="1.5" stroke-miterlimit="10"/>
<path d="M7.79331 212.47H14.3528V223.055H2L7.79331 212.47Z" fill="white" stroke="#1F2133" stroke-width="1.5" stroke-miterlimit="10"/>
<path d="M145.881 212.47H139.321V223.055H151.674L145.881 212.47Z" fill="white" stroke="#1F2133" stroke-width="1.5" stroke-miterlimit="10"/>
<path d="M14.3528 328.416H139.321" stroke="#1F2133" stroke-width="1.5" stroke-miterlimit="10"/>
</svg>
