<svg width="270" height="286" viewBox="0 0 270 286" fill="none" xmlns="http://www.w3.org/2000/svg">
<g clip-path="url(#clip0_117_4782)">
<path d="M15.0239 208.588L14.7767 200.205L16.1374 199.219L15.5187 170.616L12.6735 166.424C12.6735 166.424 9.61592 166.937 9.45739 161.246C9.21021 152.369 27.2703 152.616 27.2703 152.616V148.794L25.7858 150.15C25.7858 150.15 23.3689 151.152 15.3949 150.89C4.13809 150.52 4.5091 132.026 4.5091 132.026L5.49876 131.163L2.40642 36.3568L0.550931 34.8773C0.550931 34.8773 -1.42792 24.2972 4.50957 19.8362C12.5502 13.7952 19.6012 15.5211 19.6012 15.5211L20.838 16.384L24.7966 16.2606L28.0128 9.10981L38.8986 8.49323V9.60298L51.7637 8.49323L53.2481 7.38347L59.1856 6.8903L65.7418 13.0547L144.415 8.49369L150.229 1.21997H155.054L157.157 3.80878L158.888 2.20585L168.784 1.2195L169.403 0.233154H178.928L181.031 5.90442L185.856 5.78101V4.67218C185.856 4.67218 196.123 2.94631 200.7 9.11075C205.277 15.2752 203.792 21.4396 203.792 21.4396L202.555 21.8094L204.022 32.0421L206.761 35.0012L207.875 45.8505L205.153 46.0969L208.74 84.9323H211.709L212.823 97.1378L210.349 99.6037L211.215 109.713L212.823 111.439C212.823 111.439 213.359 121.318 209.731 126.233C204.906 132.767 196.371 131.411 196.371 131.411L195.505 129.685L189.691 130.302L194.762 133.261L212.328 132.521C212.328 132.521 219.131 134.371 221.606 136.343C224.08 138.316 221.606 138.563 221.606 138.563L225.688 140.905L229.77 141.768L235.584 146.699V148.548L250.304 160.507H254.634L260.2 164.946V166.918L263.664 170.371L265.891 170.987C265.891 170.987 269.231 171.85 269.602 174.686C269.973 177.521 269.602 181.097 269.602 181.097C269.602 181.097 268.612 184.302 263.045 184.549L260.324 234.48C260.324 234.48 260.077 236.946 258.964 237.315L258.592 242.124L251.418 243.11L251.542 246.932L68.3003 276.52V282.684C68.3003 282.684 55.598 285.89 50.8974 284.41C50.8974 284.41 45.193 283.789 44.2174 273.314C43.8253 269.102 43.4754 256.178 43.4754 256.178C39.2696 255.315 35.0534 264.161 35.0534 264.161L18.7353 231.767C18.7353 231.767 9.26274 231.51 8.90112 219.505C8.66895 211.809 15.0239 208.588 15.0239 208.588Z" stroke="#1F2133" stroke-miterlimit="10"/>
<path d="M8.52979 30.2543C8.52979 30.2543 8.71552 26.186 10.7563 24.7064C12.7975 23.2269 15.024 22.672 15.024 22.672L189.999 11.761C189.999 11.761 193.524 11.761 194.823 12.8707C196.123 13.9805 197.05 16.9391 197.05 16.9391L206.142 116.432C206.142 116.432 206.328 119.575 205.029 121.24C203.73 122.904 200.575 123.459 200.575 123.459L21.704 143.432C21.704 143.432 18.5497 145.096 15.395 141.768C12.2403 138.439 12.426 137.144 12.426 137.144L8.52979 30.2543Z" stroke="#1F2133" stroke-miterlimit="10"/>
<path d="M17.3745 159.274C17.3745 159.274 17.6217 157.301 19.601 156.562C21.5803 155.822 207.379 136.096 207.379 136.096C207.379 136.096 212.822 136.096 214.801 138.315C216.78 140.534 259.333 173.576 259.333 173.576C259.333 173.576 261.56 174.069 260.57 175.548C259.581 177.028 55.474 203.411 55.474 203.411C55.474 203.411 49.703 204.495 46.6604 203.765C41.6507 202.563 39.8876 198.233 39.8876 198.233L17.3745 159.274Z" stroke="#1F2133" stroke-miterlimit="10"/>
<path d="M174.646 139.581L220.574 181.568" stroke="#1F2133" stroke-miterlimit="10"/>
<path d="M55.4397 284.8C53.7282 285.425 51.8792 285.767 49.9501 285.767C41.137 285.767 33.9927 278.646 33.9927 269.863C33.9927 264.123 37.0433 259.093 41.6168 256.297" stroke="#1F2133" stroke-miterlimit="10"/>
<path d="M18.735 231.767V205.383L14.7769 200.205" stroke="#1F2133" stroke-miterlimit="10"/>
<path d="M18.9829 227.297L36.641 261.085" stroke="#1F2133" stroke-miterlimit="10"/>
<path d="M258.962 237.315L68.3389 266.041C68.3389 266.041 65.8648 253.897 57.0202 253.589C48.1757 253.281 44.9595 252.479 42.7326 251.185C40.5061 249.89 40.0112 247.733 40.0112 247.733V257.346" stroke="#1F2133" stroke-miterlimit="10"/>
<path d="M27.8115 162.233L51.5155 200.205L212.079 179.493L174.646 144.98L27.8115 162.233Z" stroke="#1F2133" stroke-miterlimit="10"/>
<path d="M170.909 145.419L170.701 144.402L173.345 143.847L173.995 142.517C173.995 142.517 165.815 47.0824 165.073 45.3565C164.331 43.6306 163.094 43.6306 163.094 43.6306L25.1676 54.2331C25.1676 54.2331 23.9462 54.429 23.4884 56.2503C23.0307 58.072 27.9729 159.118 27.9729 159.118L28.826 160.33L39.065 159.537L39.0223 160.574L170.909 145.419Z" fill="white" stroke="#1F2133" stroke-miterlimit="10"/>
<path d="M169.03 141.433L169.642 140.179C169.642 140.179 161.935 50.2648 161.236 48.6385C160.537 47.0122 159.371 47.0122 159.371 47.0122L29.4218 57.0019C29.4218 57.0019 28.2713 57.1861 27.8398 58.9026C27.4083 60.6187 32.0648 155.821 32.0648 155.821L32.8687 156.962L169.03 141.433Z" fill="white" stroke="#1F2133" stroke-miterlimit="10"/>
<path d="M211.047 160.422C209.745 160.422 208.689 159.37 208.689 158.072V153.455C208.689 152.677 209.745 152.35 211.047 152.35C212.349 152.35 213.405 152.765 213.405 153.401V158.072C213.405 159.37 212.35 160.422 211.047 160.422Z" fill="white" stroke="#1F2133" stroke-miterlimit="10"/>
<path d="M211.047 154.561C212.273 154.561 213.266 154.066 213.266 153.456C213.266 152.845 212.273 152.35 211.047 152.35C209.822 152.35 208.828 152.845 208.828 153.456C208.828 154.066 209.822 154.561 211.047 154.561Z" fill="white" stroke="#1F2133" stroke-miterlimit="10"/>
<path d="M213.61 160.94H208.484C208.228 160.94 208.021 160.733 208.021 160.478V159.205C208.021 158.95 208.228 158.743 208.484 158.743H213.61C213.867 158.743 214.074 158.95 214.074 159.205V160.478C214.074 160.733 213.867 160.94 213.61 160.94Z" fill="white" stroke="#1F2133" stroke-miterlimit="10"/>
<path d="M189.152 143.358C187.85 143.358 186.794 142.306 186.794 141.008V136.392C186.794 135.614 187.85 135.286 189.152 135.286C190.454 135.286 191.51 135.701 191.51 136.338V141.008C191.51 142.306 190.454 143.358 189.152 143.358Z" fill="white" stroke="#1F2133" stroke-miterlimit="10"/>
<path d="M189.152 137.497C190.378 137.497 191.371 137.002 191.371 136.392C191.371 135.781 190.378 135.286 189.152 135.286C187.927 135.286 186.933 135.781 186.933 136.392C186.933 137.002 187.927 137.497 189.152 137.497Z" fill="white" stroke="#1F2133" stroke-miterlimit="10"/>
<path d="M191.715 143.876H186.589C186.333 143.876 186.125 143.669 186.125 143.414V142.141C186.125 141.886 186.333 141.679 186.589 141.679H191.715C191.971 141.679 192.179 141.886 192.179 142.141V143.414C192.179 143.67 191.971 143.876 191.715 143.876Z" fill="white" stroke="#1F2133" stroke-miterlimit="10"/>
<path d="M215.455 164.352C214.152 164.352 213.097 163.299 213.097 162.002V157.385C213.097 156.607 214.152 156.28 215.455 156.28C216.757 156.28 217.812 156.695 217.812 157.331V162.002C217.812 163.299 216.757 164.352 215.455 164.352Z" fill="white" stroke="#1F2133" stroke-miterlimit="10"/>
<path d="M215.454 158.491C216.68 158.491 217.673 157.996 217.673 157.385C217.673 156.775 216.68 156.28 215.454 156.28C214.229 156.28 213.235 156.775 213.235 157.385C213.235 157.996 214.229 158.491 215.454 158.491Z" fill="white" stroke="#1F2133" stroke-miterlimit="10"/>
<path d="M218.017 164.87H212.891C212.635 164.87 212.427 164.663 212.427 164.407V163.134C212.427 162.879 212.635 162.672 212.891 162.672H218.017C218.273 162.672 218.481 162.879 218.481 163.134V164.407C218.481 164.663 218.274 164.87 218.017 164.87Z" fill="white" stroke="#1F2133" stroke-miterlimit="10"/>
<path d="M228.564 175.055C227.112 175.055 225.936 173.882 225.936 172.435V167.288C225.936 166.421 227.112 166.055 228.564 166.055C230.016 166.055 231.192 166.518 231.192 167.228V172.435C231.192 173.882 230.016 175.055 228.564 175.055Z" fill="white" stroke="#1F2133" stroke-miterlimit="10"/>
<path d="M228.564 168.521C229.93 168.521 231.038 167.969 231.038 167.288C231.038 166.607 229.93 166.055 228.564 166.055C227.198 166.055 226.09 166.607 226.09 167.288C226.09 167.969 227.198 168.521 228.564 168.521Z" fill="white" stroke="#1F2133" stroke-miterlimit="10"/>
<path d="M231.475 175.633H225.653C225.397 175.633 225.189 175.425 225.189 175.17V173.644C225.189 173.389 225.397 173.182 225.653 173.182H231.475C231.731 173.182 231.939 173.389 231.939 173.644V175.17C231.939 175.425 231.731 175.633 231.475 175.633Z" fill="white" stroke="#1F2133" stroke-miterlimit="10"/>
<path d="M220.574 169.021C219.122 169.021 217.945 167.848 217.945 166.401V161.254C217.945 160.387 219.122 160.021 220.574 160.021C222.025 160.021 223.202 160.485 223.202 161.194V166.401C223.202 167.848 222.025 169.021 220.574 169.021Z" fill="white" stroke="#1F2133" stroke-miterlimit="10"/>
<path d="M220.574 162.487C221.94 162.487 223.048 161.935 223.048 161.254C223.048 160.573 221.94 160.021 220.574 160.021C219.207 160.021 218.1 160.573 218.1 161.254C218.1 161.935 219.207 162.487 220.574 162.487Z" fill="white" stroke="#1F2133" stroke-miterlimit="10"/>
<path d="M223.485 169.599H217.663C217.407 169.599 217.199 169.392 217.199 169.137V167.611C217.199 167.356 217.407 167.149 217.663 167.149H223.485C223.741 167.149 223.949 167.356 223.949 167.611V169.137C223.949 169.392 223.741 169.599 223.485 169.599Z" fill="white" stroke="#1F2133" stroke-miterlimit="10"/>
<path d="M230.183 159.503C228.881 159.503 227.825 158.451 227.825 157.153V152.536C227.825 151.759 228.88 151.431 230.183 151.431C231.485 151.431 232.54 151.846 232.54 152.483V157.154C232.54 158.451 231.485 159.503 230.183 159.503Z" fill="white" stroke="#1F2133" stroke-miterlimit="10"/>
<path d="M230.182 153.642C231.408 153.642 232.401 153.147 232.401 152.536C232.401 151.926 231.408 151.431 230.182 151.431C228.957 151.431 227.963 151.926 227.963 152.536C227.963 153.147 228.957 153.642 230.182 153.642Z" fill="white" stroke="#1F2133" stroke-miterlimit="10"/>
<path d="M232.745 160.022H227.619C227.363 160.022 227.155 159.814 227.155 159.559V158.286C227.155 158.031 227.363 157.824 227.619 157.824H232.745C233.001 157.824 233.209 158.031 233.209 158.286V159.559C233.209 159.814 233.002 160.022 232.745 160.022Z" fill="white" stroke="#1F2133" stroke-miterlimit="10"/>
<path d="M235.428 163.618C234.126 163.618 233.07 162.566 233.07 161.268V156.651C233.07 155.874 234.126 155.546 235.428 155.546C236.73 155.546 237.786 155.961 237.786 156.598V161.268C237.786 162.566 236.731 163.618 235.428 163.618Z" fill="white" stroke="#1F2133" stroke-miterlimit="10"/>
<path d="M235.428 157.757C236.653 157.757 237.647 157.262 237.647 156.651C237.647 156.041 236.653 155.546 235.428 155.546C234.202 155.546 233.209 156.041 233.209 156.651C233.209 157.262 234.202 157.757 235.428 157.757Z" fill="white" stroke="#1F2133" stroke-miterlimit="10"/>
<path d="M237.991 164.136H232.865C232.609 164.136 232.401 163.929 232.401 163.674V162.401C232.401 162.146 232.609 161.938 232.865 161.938H237.991C238.247 161.938 238.455 162.146 238.455 162.401V163.674C238.455 163.929 238.247 164.136 237.991 164.136Z" fill="white" stroke="#1F2133" stroke-miterlimit="10"/>
<path d="M249.346 175.055C247.894 175.055 246.717 173.882 246.717 172.435V167.288C246.717 166.421 247.894 166.055 249.346 166.055C250.797 166.055 251.974 166.518 251.974 167.228V172.435C251.975 173.882 250.798 175.055 249.346 175.055Z" fill="white" stroke="#1F2133" stroke-miterlimit="10"/>
<path d="M249.346 168.521C250.712 168.521 251.82 167.969 251.82 167.288C251.82 166.607 250.712 166.055 249.346 166.055C247.979 166.055 246.872 166.607 246.872 167.288C246.872 167.969 247.979 168.521 249.346 168.521Z" fill="white" stroke="#1F2133" stroke-miterlimit="10"/>
<path d="M252.257 175.633H246.435C246.179 175.633 245.971 175.425 245.971 175.17V173.644C245.971 173.389 246.179 173.182 246.435 173.182H252.257C252.513 173.182 252.721 173.389 252.721 173.644V175.17C252.721 175.425 252.513 175.633 252.257 175.633Z" fill="white" stroke="#1F2133" stroke-miterlimit="10"/>
<path d="M241.83 169.94C240.378 169.94 239.201 168.767 239.201 167.32V162.173C239.201 161.306 240.378 160.94 241.83 160.94C243.281 160.94 244.458 161.404 244.458 162.113V167.32C244.458 168.767 243.281 169.94 241.83 169.94Z" fill="white" stroke="#1F2133" stroke-miterlimit="10"/>
<path d="M241.83 163.405C243.196 163.405 244.304 162.853 244.304 162.173C244.304 161.492 243.196 160.94 241.83 160.94C240.463 160.94 239.355 161.492 239.355 162.173C239.355 162.853 240.463 163.405 241.83 163.405Z" fill="white" stroke="#1F2133" stroke-miterlimit="10"/>
<path d="M244.741 170.518H238.919C238.663 170.518 238.455 170.311 238.455 170.055V168.53C238.455 168.274 238.663 168.067 238.919 168.067H244.741C244.997 168.067 245.204 168.274 245.204 168.53V170.055C245.204 170.311 244.997 170.518 244.741 170.518Z" fill="white" stroke="#1F2133" stroke-miterlimit="10"/>
<path d="M140.638 186.539L115.495 189.845C115.151 189.89 114.809 189.75 114.596 189.476L107.688 180.729C107.223 180.131 107.591 179.257 108.344 179.167L132.6 175.967C132.916 175.93 133.229 176.048 133.441 176.283L141.236 184.924C141.761 185.507 141.416 186.437 140.638 186.539Z" fill="white" stroke="#1F2133" stroke-miterlimit="10"/>
<path d="M177.479 168.973L63.4706 184.036C62.8149 184.123 62.1658 183.835 61.7915 183.291L48.3715 163.791C47.6234 162.704 48.3035 161.215 49.6168 161.062L160.471 148.22C161.018 148.156 161.563 148.352 161.943 148.749L178.517 166.029C179.51 167.064 178.903 168.785 177.479 168.973Z" fill="white" stroke="#1F2133" stroke-miterlimit="10"/>
<path d="M78.73 264.475V210.3" stroke="#1F2133" stroke-miterlimit="10"/>
<path d="M81.0186 264.226V210.3" stroke="#1F2133" stroke-miterlimit="10"/>
<path d="M98.3369 261.695V207.925" stroke="#1F2133" stroke-miterlimit="10"/>
<path d="M100.625 261.552V207.543" stroke="#1F2133" stroke-miterlimit="10"/>
<path d="M214.988 243.748V191.5" stroke="#1F2133" stroke-miterlimit="10"/>
<path d="M217.276 243.507V191.232" stroke="#1F2133" stroke-miterlimit="10"/>
<path d="M234.595 240.763V189.229" stroke="#1F2133" stroke-miterlimit="10"/>
<path d="M236.883 240.626V188.863" stroke="#1F2133" stroke-miterlimit="10"/>
<path d="M262.7 184.918L58.443 213.274C58.443 213.274 50.5262 214.506 46.0727 213.274C41.6193 212.041 34.9398 210.543 32.4656 204.018C29.9915 197.493 15.5186 170.616 15.5186 170.616" stroke="#1F2133" stroke-miterlimit="10"/>
<path d="M115.407 223.136L133.22 220.732L135 243.507L186.933 234.548V213.821L205.214 210.3L207.255 224.431L208.69 229.979L208.021 234.81L194.638 245.698L129.509 255.314L116.892 250.506L114.479 244.191L115.407 223.136Z" stroke="#1F2133" stroke-miterlimit="10"/>
</g>
<defs>
<clipPath id="clip0_117_4782">
<rect width="270" height="286" fill="white"/>
</clipPath>
</defs>
</svg>
