<svg width="40" height="40" viewBox="0 0 40 40" fill="none" xmlns="http://www.w3.org/2000/svg">
<g clip-path="url(#clip0_124_1975)">
<path d="M14.9766 0.0861191C14.6875 0.257994 14.6094 0.570494 14.6094 1.64081V2.65643H13.5469C12.9687 2.65643 12.4219 2.69549 12.3359 2.73456C11.9609 2.93768 11.9531 3.02362 11.9531 6.9455V10.6252L7.5 12.8517C3.28906 14.9611 3.03906 15.1017 2.83594 15.4064L2.61719 15.7346V19.0158C2.61719 22.3908 2.67969 23.2033 3 24.4142L3.10156 24.8049L2.60937 25.3283C2.0625 25.9064 1.57031 26.8283 1.35156 27.6564C1.26562 27.9846 1.21875 28.4689 1.21875 29.0236C1.21875 30.0393 1.35156 30.633 1.78906 31.5236C2.46875 32.9064 3.66406 33.8986 5.23437 34.383C6.03125 34.633 7.52344 34.6408 8.25781 34.3986L8.75 34.2346V35.8283C8.75 37.5627 8.79687 37.8283 9.16406 38.0705C9.28125 38.1486 9.52344 38.2033 9.72656 38.2033C10.1172 38.2033 10.0312 38.2658 11.5937 36.8518L12.4375 36.0783L12.7266 36.3439C13.625 37.1877 14.5937 38.0393 14.7422 38.1174C15.0625 38.2814 15.5234 38.2268 15.7969 37.9768L16.0547 37.7502L16.0781 35.2424L16.1016 32.7346H18.4062H20.7109L20.8984 32.5393C21.1562 32.2893 21.1562 31.9299 20.8984 31.6799C20.7109 31.4846 20.7109 31.4846 19.0469 31.4846H17.3906L18.2578 30.6018C19.1562 29.7033 19.75 29.0002 20.1328 28.3908L20.3516 28.0471H25.6094C30.7578 28.0471 30.8594 28.0471 31.0156 27.8908C31.2734 27.633 31.25 27.2267 30.9687 26.9689L30.7734 26.7971H25.9297C22.0859 26.7971 21.0859 26.7736 21.1094 26.6955C21.125 26.6486 21.2422 26.3283 21.3672 26.0002L21.6016 25.3908H22.6797C23.7187 25.3908 23.7656 25.383 23.9453 25.1955C24.2031 24.9455 24.2031 24.5861 23.9453 24.3361C23.7656 24.1486 23.7109 24.1408 22.8516 24.1408C22.3594 24.1408 21.9531 24.1174 21.9531 24.0783C21.9531 24.0471 22.0078 23.7424 22.0703 23.3986C22.1328 23.0549 22.1797 22.7658 22.1875 22.7502C22.1875 22.7424 24.1172 22.7346 26.4766 22.7346C30.6953 22.7346 30.7656 22.7346 30.9687 22.5705C31.2266 22.3674 31.2578 21.883 31.0156 21.6408C30.8594 21.4846 30.7578 21.4846 26.5625 21.4846H22.2656V20.7424V20.0002H26.5469C31.3906 20.0002 31.1719 20.0314 31.1719 19.4221C31.1719 19.1799 31.125 19.0471 31.0078 18.9377C30.8516 18.7971 30.6484 18.7892 26.5547 18.7658L22.2656 18.7424V18.0471V17.3439H23.8672C25.4687 17.3439 25.4766 17.3439 25.6641 17.1486C25.8984 16.9221 25.9141 16.5705 25.7109 16.3205C25.5625 16.133 25.5391 16.133 23.9219 16.1096L22.2812 16.0861L22.2344 15.8205C22.1641 15.4611 21.8594 15.1174 21.4141 14.883L21.0547 14.6955L25.9062 14.6877C30.6953 14.6877 30.7656 14.6877 30.9687 14.5236C31.2266 14.3205 31.2578 13.8361 31.0156 13.5939C30.8594 13.4377 30.7578 13.4377 24.6875 13.4377H18.5156L15.8594 12.1096L13.2031 10.7814V7.30487V3.82831H24.0625H34.9219V6.133V8.4455L35.1172 8.633C35.3437 8.86737 35.6953 8.883 35.9453 8.67987L36.1328 8.53143L36.1562 6.03925C36.1719 4.67206 36.1562 3.44549 36.1328 3.31268C36.1094 3.17206 36 2.96893 35.8828 2.85956L35.6797 2.65643H25.7734H15.8594V1.91424V1.17206H26.7187H37.5781V15.0002V28.8283H36.875H36.1719L36.1562 19.7189L36.1328 10.6096L35.9453 10.4611C35.7109 10.2658 35.3828 10.2736 35.125 10.4767L34.9219 10.633V21.0627V31.4846H28.9453H22.9609L22.7734 31.6799C22.5156 31.9299 22.5156 32.2893 22.7734 32.5393L22.9609 32.7346H29.2187C36.0859 32.7346 35.8047 32.7502 36.0547 32.2658C36.1406 32.1018 36.1719 31.7814 36.1719 31.0549V30.0783H37.1484C37.875 30.0783 38.1953 30.0471 38.3594 29.9611C38.8594 29.7033 38.8281 30.8049 38.8281 15.0471C38.8281 6.30487 38.7969 0.640807 38.7578 0.523619C38.7109 0.414244 38.6016 0.250182 38.5078 0.164244L38.3281 0.000181625H26.7266C18.9844 0.00799413 15.0703 0.0314316 14.9766 0.0861191ZM21 19.3596C20.9687 22.3517 20.9531 22.6877 20.7891 23.4611C20.4219 25.2736 19.7422 26.8049 18.7109 28.1877C18.1406 28.9533 17.0156 30.1408 16.4062 30.6252L16.0937 30.8752V28.6564V26.4377L16.7031 25.8205C18.0234 24.4689 18.6016 22.8283 18.4297 20.9533C18.3516 20.2033 18.25 19.7892 17.9531 19.133C17.6406 18.4377 17.2734 18.258 16.8437 18.6017C16.5859 18.8049 16.5781 19.133 16.8203 19.6955C17.1016 20.3283 17.1953 20.8049 17.1953 21.5627C17.1953 22.8986 16.75 23.9611 15.7812 24.9221C14.8047 25.9064 13.7812 26.3283 12.3984 26.3283H11.6641L11.3828 25.9064C10.7266 24.9142 9.60156 24.0627 8.52344 23.7424C8.10156 23.6174 7.9375 23.3752 7.76562 22.5861C7.59375 21.8049 7.64844 20.7814 7.91406 20.0627C8.9375 17.2424 12.0156 16.0002 14.6406 17.3439C15.3516 17.7033 15.5625 17.7267 15.8203 17.4611C16.0781 17.2111 16.0781 16.8517 15.8203 16.5939C15.5781 16.3517 14.6406 15.9064 14.0078 15.7346C13.2812 15.5392 12.0234 15.5002 11.25 15.6564C7.95312 16.3205 5.85156 19.508 6.53125 22.7814C6.59375 23.1096 6.64062 23.383 6.625 23.3986C6.60937 23.4064 6.28125 23.4689 5.89844 23.5314C5.50781 23.6017 4.97656 23.7424 4.71094 23.8439C4.14062 24.0783 4.19531 24.133 4.00781 23.1017C3.92187 22.633 3.88281 21.6174 3.85156 19.2814L3.8125 16.1017L8.13281 13.9611L12.4609 11.8205L16.7422 13.9611L21.0312 16.1017L21 19.3596ZM8.05469 24.9142C9.34375 25.3127 10.4687 26.4611 10.8828 27.7736C11.8281 30.8283 9.04687 33.9064 5.9375 33.2502C5.03906 33.0627 4.42969 32.7189 3.74219 32.0393C3.07031 31.3596 2.71875 30.7424 2.53906 29.883C2.39844 29.1955 2.39844 28.8518 2.53906 28.1642C2.71875 27.3049 3.07031 26.6877 3.74219 26.008C4.9375 24.8127 6.46875 24.4299 8.05469 24.9142ZM14.8281 34.1564L14.8047 36.5158L13.8437 35.6408C12.4609 34.3908 12.4062 34.3908 10.9219 35.7424L10 36.5705V35.0627L10.0078 33.5549L10.3125 33.3205C11.0625 32.7502 11.7891 31.6408 12.1172 30.5471C12.3047 29.9221 12.3594 28.7893 12.2422 28.0002L12.1875 27.6017L12.9453 27.5627C13.4609 27.5314 13.8906 27.4611 14.2578 27.3361L14.8047 27.1486L14.8281 29.4768C14.8359 30.7502 14.8359 32.8596 14.8281 34.1564Z" fill="#FFCC60"/>
<path d="M13.3047 21.1094L12.1875 22.2188L11.5 21.5469C10.7266 20.7812 10.5547 20.6719 10.2266 20.7422C9.94531 20.8047 9.76562 21.0469 9.76562 21.3672C9.76562 21.5703 9.92969 21.7656 10.8438 22.6797C11.8047 23.6406 11.9453 23.75 12.1797 23.75C12.4219 23.75 12.5781 23.625 13.7734 22.4375C14.5 21.7188 15.1406 21.0312 15.2109 20.9062C15.4219 20.5 15.1172 20 14.6562 20C14.4609 20 14.2422 20.1797 13.3047 21.1094Z" fill="#FFCC60"/>
<path d="M6.24218 26.2427C6.14062 26.3208 5.9375 26.6333 5.78906 26.938L5.52343 27.4927L4.96875 27.5786C3.90625 27.7505 3.6875 27.9536 3.73437 28.7348C3.74218 28.8442 3.95312 29.1255 4.22656 29.4223L4.71093 29.9223L4.61718 30.5083C4.5 31.227 4.54687 31.5005 4.85937 31.7583C5.20312 32.0473 5.60156 32.0239 6.25 31.6723L6.77343 31.3833L7.28125 31.6723C7.96875 32.0551 8.35156 32.0551 8.71875 31.688C9.01562 31.3911 9.03906 31.227 8.89843 30.4067L8.8125 29.9067L9.24218 29.4692C9.77343 28.9302 9.875 28.6958 9.76562 28.2739C9.66406 27.8989 9.36718 27.6958 8.83593 27.6255C8.04687 27.5161 8.0625 27.5239 7.77343 26.9536C7.625 26.6645 7.41406 26.352 7.29687 26.2583C7.03125 26.0474 6.5 26.0395 6.24218 26.2427ZM7.38281 28.6333C7.52343 28.6958 7.75781 28.7505 7.89843 28.7505H8.15625L7.91406 29.0005C7.58593 29.3442 7.48437 29.6411 7.54687 30.0552L7.60156 30.4067L7.28125 30.2427C6.875 30.0395 6.64062 30.0395 6.24218 30.2427L5.92187 30.3989L5.97656 30.0161C6.03906 29.5708 5.96875 29.3911 5.60156 29.0005L5.35937 28.7505H5.61718C6.03125 28.7505 6.36718 28.5395 6.57031 28.1645L6.75 27.8208L6.94531 28.1645C7.05468 28.3755 7.23437 28.5552 7.38281 28.6333Z" fill="#FFCC60"/>
<path d="M19.7029 7C19.6013 7.07031 19.4919 7.21094 19.4529 7.3125C19.3669 7.53906 19.4919 7.94531 19.6873 8.04687C19.781 8.09375 21.4607 8.125 24.0857 8.125H28.3357L28.4998 7.94531C28.7498 7.67969 28.7341 7.25 28.4685 7.03906C28.2654 6.875 28.1873 6.875 24.0701 6.875C20.3513 6.875 19.8591 6.89062 19.7029 7Z" fill="#FFCC60"/>
<path d="M17.0389 10.9844C16.8201 11.2578 16.8358 11.5078 17.0623 11.7734L17.2498 11.9922H24.0545H30.8514L31.0233 11.8281C31.2498 11.5938 31.2498 11.1094 31.0155 10.9219C30.8514 10.7891 30.4608 10.7812 24.0233 10.7812H17.1951L17.0389 10.9844Z" fill="#FFCC60"/>
<path d="M26.9922 16.2891C26.8672 16.4062 26.7969 16.5703 26.7969 16.7188C26.7969 16.8672 26.8672 17.0312 26.9922 17.1484L27.1797 17.3438H29.0234C30.7578 17.3438 30.8672 17.3359 31.0156 17.1875C31.2734 16.9297 31.25 16.5234 30.9687 16.2656C30.7734 16.1016 30.7266 16.0938 28.9766 16.0938H27.1797L26.9922 16.2891Z" fill="#FFCC60"/>
<path d="M25.1953 24.3359C25.0703 24.4531 25 24.6172 25 24.7656C25 24.9141 25.0703 25.0781 25.1953 25.1953L25.3828 25.3906H28.0703C30.6719 25.3906 30.7656 25.3828 30.9687 25.2266C31.2344 25.0156 31.2578 24.5391 31 24.2969C30.8359 24.1484 30.7422 24.1406 28.1094 24.1406H25.3828L25.1953 24.3359Z" fill="#FFCC60"/>
<path d="M20.3359 33.6797C20.0469 33.7657 19.8672 33.9922 19.5547 34.6954L19.3203 35.211L18.5938 35.3047C17.6719 35.4376 17.4219 35.6251 17.3594 36.2344L17.3203 36.6407L17.8906 37.2266L18.4609 37.8126L18.375 38.3126C18.1953 39.2501 18.2969 39.7188 18.7109 39.9063C19.0703 40.0704 19.4297 40.0157 20.0625 39.6954L20.6719 39.3907L21.25 39.6954C22.0781 40.1251 22.625 40.0938 22.9141 39.6094C23.0703 39.3516 23.0781 39.086 22.9531 38.3516L22.8672 37.8047L23.4062 37.2579C23.9453 36.7188 23.9453 36.711 23.9453 36.2813C23.9453 35.8907 23.9219 35.8204 23.6953 35.6251C23.4922 35.4454 23.3359 35.3907 22.7344 35.3126L22.0234 35.211L21.6797 34.5391C21.4922 34.1719 21.2734 33.8282 21.1953 33.7813C20.9688 33.6407 20.6094 33.6016 20.3359 33.6797ZM21.3125 36.2813C21.4375 36.3438 21.7188 36.4219 21.9453 36.4532L22.3516 36.5079L22.0469 36.8282C21.6094 37.2735 21.5391 37.4532 21.6016 37.8829C21.625 38.0782 21.6719 38.3047 21.6875 38.3829C21.7266 38.5079 21.6875 38.5001 21.3359 38.3282C20.8203 38.0626 20.4062 38.0626 19.9453 38.336C19.625 38.5235 19.5938 38.5235 19.6328 38.3907C19.8359 37.6719 19.7578 37.3126 19.2891 36.8282L18.9766 36.5079L19.3672 36.461C19.9609 36.3907 20.2109 36.2266 20.4531 35.7344L20.6562 35.3047L20.875 35.7344C21.0078 36.0001 21.1797 36.211 21.3125 36.2813Z" fill="#FFCC60"/>
<path d="M27.5 33.7268C27.2891 33.8362 27.1484 34.0159 26.8828 34.5393L26.5313 35.219L25.8281 35.3127C25.1953 35.3987 25.0938 35.4377 24.8672 35.6643C24.6484 35.883 24.6094 35.9768 24.6094 36.2893C24.6094 36.6409 24.6328 36.6877 25.1563 37.2268L25.7031 37.7893L25.5938 38.4768C25.4688 39.2737 25.5234 39.6018 25.8359 39.844C26.1563 40.094 26.6172 40.0549 27.3281 39.6955L27.9375 39.3909L28.4844 39.6955C29.2188 40.1096 29.6641 40.1174 30.0469 39.7346C30.3438 39.4377 30.3594 39.3284 30.2188 38.4221L30.1328 37.8127L30.6485 37.2815C31.2188 36.6877 31.3125 36.4612 31.1797 36.0237C31.0391 35.5315 30.7656 35.3909 29.7422 35.2659L29.2891 35.219L28.9922 34.6174C28.8203 34.2893 28.6016 33.9456 28.5078 33.8518C28.2422 33.6096 27.8359 33.5549 27.5 33.7268ZM28.4766 36.2268C28.6094 36.344 28.8281 36.4143 29.1484 36.4534L29.625 36.508L29.2656 36.8674C28.8594 37.2815 28.7813 37.5315 28.8906 38.1018L28.9609 38.508L28.5859 38.3127C28.1016 38.0705 27.6406 38.0705 27.2188 38.3127L26.8906 38.5002L26.9297 37.8909L26.9766 37.2815L26.6094 36.8909L26.25 36.508L26.6484 36.4534C27.2578 36.3752 27.4609 36.2346 27.7031 35.7346L27.9219 35.2971L28.1016 35.6721C28.2031 35.883 28.3672 36.133 28.4766 36.2268Z" fill="#FFCC60"/>
<path d="M34.7656 33.727C34.5547 33.8364 34.4141 34.0161 34.1484 34.5395L33.7969 35.2192L33.1328 35.3051C32.1016 35.4536 31.875 35.6411 31.875 36.3832C31.875 36.7192 31.8984 36.7661 32.4219 37.2582L32.9688 37.7817L32.8438 38.4692C32.75 39.0004 32.75 39.2114 32.8125 39.4223C33.0313 40.0864 33.6719 40.1801 34.5938 39.6957L35.1719 39.3911L35.7266 39.6957C36.4531 40.0864 36.9297 40.1176 37.2656 39.7739C37.5781 39.4692 37.6094 39.2504 37.4844 38.4848L37.3672 37.8207L37.8672 37.3286C38.4453 36.7582 38.5703 36.4379 38.4219 35.9692C38.2891 35.5707 37.9844 35.4067 37.1797 35.2973L36.5234 35.2036L36.2109 34.5786C35.7734 33.6957 35.3359 33.4379 34.7656 33.727ZM35.3516 35.7114C35.5703 36.1879 35.8594 36.3911 36.4141 36.4536L36.8828 36.5082L36.6016 36.7348C36.1719 37.0942 36.0625 37.3598 36.125 37.9457C36.1563 38.2192 36.1563 38.4379 36.1328 38.4379C36.1094 38.4379 35.9531 38.3676 35.7813 38.2817C35.6094 38.1957 35.3281 38.1254 35.1563 38.1254C34.9844 38.1254 34.7031 38.1957 34.5313 38.2817C34.3594 38.3676 34.2031 38.4379 34.1797 38.4379C34.1563 38.4379 34.1641 38.2504 34.1875 38.0161C34.2578 37.4457 34.1953 37.2426 33.8203 36.8442L33.5156 36.5004L33.9453 36.4457C34.4531 36.3832 34.75 36.1723 34.9609 35.7114C35.0391 35.5317 35.125 35.3911 35.1563 35.3911C35.1875 35.3911 35.2734 35.5317 35.3516 35.7114Z" fill="#FFCC60"/>
</g>
<defs>
<clipPath id="clip0_124_1975">
<rect width="40" height="40" fill="white"/>
</clipPath>
</defs>
</svg>
