<svg width="40" height="40" viewBox="0 0 40 40" fill="none" xmlns="http://www.w3.org/2000/svg">
<path d="M29.6484 1.20333C27.4688 1.54708 25.5234 2.68771 24.125 4.43771C23.2656 5.51583 22.7344 6.60177 22.3672 8.02364C22.1797 8.76583 22.1562 9.01583 22.1484 10.0783C22.1484 11.3361 22.2344 11.8674 22.5938 12.9143C22.7734 13.4377 23.1875 14.3049 23.4844 14.7815C23.5859 14.9455 23.6719 15.094 23.6719 15.1174C23.6719 15.133 20.8516 15.1643 17.4062 15.1721C11.4922 15.1955 11.1172 15.2033 10.9219 15.3361C10.4141 15.6877 10.4375 15.4924 10.3906 19.9221L10.3516 23.9455L9.74219 25.1408C9.23438 26.1174 9.07031 26.383 8.8125 26.5705C8.63281 26.6955 8.46875 26.7971 8.4375 26.7971C8.40625 26.7971 8.33594 26.6408 8.28906 26.4533C8.17969 26.0158 7.86719 25.6408 7.46094 25.4611C7.19531 25.3361 6.9375 25.3127 5.70312 25.3127C4.46094 25.3127 4.21094 25.3361 3.9375 25.4611C3.53906 25.6408 3.24219 26.0158 3.125 26.508L3.03125 26.8752H2.15625C1.19531 26.8752 0.835938 26.9846 0.453125 27.3908C0.125 27.7424 0 28.133 0 28.7736C0 29.4846 0.164062 29.7658 0.585938 29.7658C0.992188 29.7658 1.17188 29.4846 1.17188 28.8596C1.17188 28.1174 1.27344 28.0471 2.26562 28.0471H3.04688V32.1096V36.1721H2.24219C1.55469 36.1721 1.41406 36.1486 1.30469 36.0315C1.1875 35.9065 1.17188 35.6174 1.17188 33.6408C1.17188 32.3518 1.14062 31.3361 1.09375 31.258C0.976562 31.0315 0.59375 30.9065 0.375 31.0236C0.0078125 31.219 0.0078125 31.2346 0 33.7111C0 36.0236 0 36.0627 0.1875 36.4611C0.320312 36.7424 0.484375 36.9299 0.710938 37.0861C1.02344 37.2893 1.10156 37.3049 2.04688 37.3283C2.74219 37.3518 3.04688 37.383 3.04688 37.4455C3.04688 37.9611 3.55469 38.6721 4.04688 38.844C4.36719 38.9533 6.91406 38.9924 7.28125 38.8908C7.53906 38.8127 7.94531 38.4768 8.125 38.1877L8.25781 37.9611L20.9062 37.969C32.8281 37.969 33.5703 37.9611 33.8281 37.8361C33.9766 37.758 34.1797 37.5783 34.2734 37.4299L34.4531 37.1643V27.7346V18.3127L34.875 18.133C35.9375 17.6955 37.3906 16.5393 38.1641 15.508C41.5234 11.0393 40.0859 4.57052 35.1797 2.10958C34.8359 1.93771 34.4453 1.79708 34.3125 1.79708C33.8984 1.79708 33.6406 2.21114 33.7969 2.61739C33.8281 2.68771 34.0625 2.85177 34.3281 2.98458C37.5312 4.58614 39.2266 7.75021 38.7422 11.2268C38.3203 14.258 35.9531 16.8127 32.8438 17.594C31.8594 17.844 30.0156 17.8361 29.1016 17.594C26.9609 17.008 25.1328 15.5002 24.125 13.4768C23.4609 12.1486 23.1953 10.6955 23.3516 9.25802C23.5625 7.39864 24.3594 5.75802 25.6875 4.46896C27.2266 2.97677 29.2344 2.22677 31.5234 2.28146C32.4219 2.30489 32.5391 2.25802 32.625 1.82833C32.6875 1.50021 32.4688 1.25021 32.0312 1.16427C31.5391 1.07052 30.3828 1.09396 29.6484 1.20333ZM16.7188 19.0158C16.7188 20.4455 16.7422 21.7268 16.7656 21.8674C16.8281 22.1486 17.125 22.4768 17.3672 22.5158C17.7031 22.5705 17.9922 22.4221 18.9844 21.6408C19.5391 21.2111 20.0469 20.8361 20.1094 20.8127C20.1875 20.7815 20.5547 21.0236 21.1094 21.4611C21.5938 21.844 22.1094 22.2346 22.25 22.3361C22.7188 22.6643 23.3359 22.508 23.5078 22.0158C23.5625 21.8596 23.5938 20.8049 23.5938 19.094V16.4065H24.1875H24.7812L25.2266 16.7815C26.1172 17.5471 27.2031 18.1799 28.2266 18.508L28.75 18.6877V21.0236C28.75 23.258 28.7578 23.3674 28.9062 23.5158C29.1172 23.7268 29.5391 23.719 29.7344 23.508C29.875 23.3596 29.8828 23.1799 29.9062 21.133L29.9297 18.9221L30.6875 18.9611C31.3594 19.0002 32.0156 18.9455 32.9922 18.7815L33.2812 18.7268V27.7658V36.7971H31.6016H29.9219V31.0627C29.9219 25.383 29.9219 25.3283 29.7578 25.1252C29.5547 24.8674 29.1406 24.844 28.9062 25.0783C28.75 25.2346 28.75 25.3361 28.75 31.0158V36.7971H24.1641H19.5703V36.133V35.469H20.7891C22.1094 35.469 22.3516 35.4143 22.8047 35.0315C23.1719 34.7268 23.3828 34.258 23.3906 33.7502C23.3984 33.5158 23.3672 33.2424 23.3359 33.1486C23.2812 33.0002 23.3203 32.9533 23.5859 32.8205C24.1484 32.5315 24.4688 31.969 24.4688 31.2424C24.4688 30.7346 24.2891 30.3205 23.8906 29.9455C23.5391 29.6018 23.1406 29.4533 22.6016 29.4533H22.1406L22.1484 28.844C22.1484 28.1799 22.0547 27.9455 21.6484 27.5315C21.1016 26.9768 21.2422 26.9924 16.9375 26.969L13.0625 26.9455L13.4219 26.2268C13.7812 25.5315 13.7891 25.4924 13.7891 24.8049C13.7891 24.1721 13.7656 24.0627 13.5547 23.6799C13.1719 22.9924 12.5078 22.5236 11.8984 22.508L11.6406 22.5002V19.4533V16.4065H14.1797H16.7188V19.0158ZM22.4219 18.6721C22.4219 19.9143 22.4062 20.9377 22.3828 20.9377C22.3594 20.9377 22.0156 20.6799 21.6094 20.3596C20.4609 19.4377 20.2188 19.3283 19.8203 19.5471C19.7266 19.594 19.2734 19.9299 18.8125 20.2893C18.3594 20.6408 17.9609 20.9377 17.9375 20.9377C17.9141 20.9377 17.8906 19.9143 17.8906 18.6721V16.4065H20.1562H22.4219V18.6721ZM12.1719 23.7971C12.4219 23.969 12.6562 24.4768 12.6562 24.8283C12.6562 25.0315 12.5312 25.3908 12.2656 25.9299C11.8203 26.844 11.7656 27.219 12.0469 27.6252C12.375 28.1018 12.1797 28.0861 16.5859 28.1252L20.6406 28.1643L20.8281 28.383C21.0625 28.6643 21.0625 28.9143 20.8281 29.1955L20.6406 29.4143L18.0469 29.4533C15.5938 29.4924 15.4531 29.5002 15.3438 29.6408C15.1797 29.8674 15.2031 30.2658 15.3984 30.4377C15.5547 30.5783 15.7656 30.5861 19.2578 30.6252C22.75 30.6643 22.9609 30.6721 23.1172 30.8127C23.2266 30.9143 23.2812 31.0549 23.2812 31.2424C23.2734 31.8908 23.3516 31.8752 19.1797 31.8752H15.5391L15.3516 32.0705C15.2422 32.1721 15.1562 32.3518 15.1562 32.4611C15.1562 32.5705 15.2422 32.7502 15.3516 32.8518L15.5391 33.0471H18.6719H21.8125L22.0391 33.2736C22.1641 33.3986 22.2656 33.5627 22.2656 33.633C22.2656 33.8596 22.0312 34.219 21.8516 34.258C21.7578 34.2815 20.1562 34.3049 18.2969 34.3205L14.9062 34.3361L14.7578 34.5236C14.5859 34.7424 14.5625 35.0627 14.7188 35.2815C14.8203 35.4143 14.9609 35.4299 16.4453 35.469L18.0625 35.508L18.25 35.7268C18.4844 36.008 18.4844 36.258 18.25 36.5393L18.0625 36.758H13.4219C10.875 36.758 8.69531 36.7346 8.57031 36.6955L8.35938 36.6408V32.3518V28.0627L8.65625 27.969C9.65625 27.6408 10.0312 27.2033 11.1016 25.0549C11.6719 23.9143 11.8203 23.6799 11.9531 23.6721C11.9766 23.6721 12.0781 23.7268 12.1719 23.7971ZM7.0625 26.6096C7.17188 26.719 7.1875 27.3283 7.1875 32.1408C7.1875 36.2424 7.16406 37.5705 7.09375 37.6408C7.03125 37.7033 6.60156 37.7346 5.6875 37.7346C4.47656 37.7346 4.375 37.7268 4.29688 37.5861C4.25 37.4846 4.21875 35.6174 4.21875 32.0783C4.21875 27.3205 4.23438 26.719 4.34375 26.6096C4.52344 26.4221 6.88281 26.4221 7.0625 26.6096Z" fill="#FFCC60"/>
<path d="M34.9766 6.50034C34.8672 6.6019 33.75 7.83628 32.4922 9.25815C31.2344 10.6722 30.0547 12.0003 29.8672 12.2035L29.5312 12.5707L28.2812 11.1644C27.1172 9.86753 27 9.76596 26.7578 9.76596C26.4375 9.76596 26.1719 10.016 26.1719 10.3207C26.1719 10.555 26.2109 10.6097 27.75 12.3519C28.3438 13.0238 28.9141 13.6097 29.0234 13.6566C29.3594 13.8128 29.8672 13.7738 30.1484 13.5707C30.2891 13.4769 31.6484 12.0003 33.1719 10.2816C35.6406 7.50034 35.9375 7.14096 35.9375 6.90659C35.9375 6.38315 35.3672 6.14096 34.9766 6.50034Z" fill="#FFCC60"/>
</svg>
