<svg width="40" height="40" viewBox="0 0 40 40" fill="none" xmlns="http://www.w3.org/2000/svg">
<path d="M18.0156 0.906109C17.2812 1.07017 16.3359 1.42173 15.7343 1.75767C14.8124 2.2733 13.6093 3.35923 13.289 3.96861C13.0703 4.37486 13.3906 4.84361 13.8828 4.84361C14.0937 4.84361 14.2031 4.76548 14.5781 4.3358C16.3906 2.28892 19.1484 1.50767 21.6484 2.3358C23.8593 3.07798 25.4921 4.85142 26.0234 7.09361C26.164 7.65611 26.1796 7.95298 26.1562 8.82798C26.1249 9.76548 26.0937 9.96861 25.8671 10.6249C25.5781 11.4842 25.3749 11.8592 24.789 12.6405C24.0078 13.6639 22.6953 14.5545 21.3906 14.9295C20.5703 15.1639 19.2109 15.2186 18.3515 15.0467C15.7656 14.5155 13.6953 12.4686 13.1718 9.90611C13.0156 9.15611 13.0156 7.94517 13.164 7.22642C13.2265 6.92955 13.2812 6.60923 13.2812 6.51548C13.2812 6.28111 12.9609 6.01548 12.6796 6.01548C12.1093 6.01548 11.8906 6.57017 11.8203 8.17955C11.7499 9.72642 11.9687 10.8124 12.5859 12.0624C13.7343 14.367 15.9296 15.9686 18.4296 16.3358C19.2968 16.4608 20.7968 16.3827 21.5703 16.1795C24.539 15.4061 26.7421 13.0624 27.3124 10.078C27.4843 9.2108 27.4609 7.74986 27.2734 6.87486C26.7656 4.56236 25.2343 2.62486 23.0859 1.56236C21.914 0.984234 21.2968 0.843609 19.8046 0.812359C18.8828 0.788921 18.414 0.820171 18.0156 0.906109Z" fill="#FFCC60"/>
<path d="M21.8125 5.67981C21.7344 5.75793 20.9375 6.69543 20.0469 7.75793L18.4297 9.69543L17.7109 9.07825C16.6953 8.20325 16.5312 8.14075 16.1406 8.44543C15.9844 8.56262 15.9375 8.672 15.9375 8.89856C15.9375 9.13293 15.9922 9.24231 16.2734 9.50012C16.9375 10.1329 18.1094 11.0939 18.3125 11.172C18.5781 11.2657 18.8047 11.1798 19.1094 10.8439C19.4531 10.4767 22.5937 6.71887 22.7578 6.4845C22.9375 6.22668 22.9219 6.00012 22.7265 5.75012C22.5312 5.50012 22.0625 5.46887 21.8125 5.67981Z" fill="#FFCC60"/>
<path d="M6.90625 16.9922C6.35156 17.1094 5.89062 17.3281 5.53125 17.6484C5.39062 17.7734 5.14062 17.9063 4.97656 17.9531C4.02344 18.2188 3.375 18.9844 3.07031 20.2109C2.96094 20.6563 2.9375 21.1563 2.92969 23.2422C2.92969 25.4531 2.94531 25.7969 3.07031 26.2031C3.27344 26.8672 3.6875 27.6563 4.09375 28.1484L4.4375 28.5703L3.5625 29.0859C3.08594 29.3672 2.39844 29.7734 2.03125 29.9844C0.90625 30.6484 0.40625 31.1719 0.132812 31.9844C0.0234375 32.3125 0 32.7344 0 34.6875C0 36.9063 0.0078125 37.0156 0.15625 37.2109C0.25 37.3281 0.453125 37.4531 0.609375 37.5C0.796875 37.5469 2.86719 37.5781 6.39062 37.5781H11.875V38.0391C11.875 38.5781 11.9531 38.8281 12.1953 39.0547C12.3516 39.2031 12.4688 39.2188 13.1797 39.2188C14.1094 39.2188 14.2969 39.1172 14.2969 38.6328C14.2969 38.2188 14.0781 38.0469 13.5469 38.0469H13.1172L13.1406 36.1094L13.1641 34.1797L13.3828 33.8125C13.6094 33.4219 13.7578 33.2969 14.6172 32.7813L15.1719 32.4453L16.4219 33.25C17.5312 33.9688 17.7188 34.0625 18.0234 34.0625C18.2266 34.0625 18.3828 34.1016 18.4062 34.1641C18.4219 34.2188 18.1797 34.8281 17.8516 35.5313C17.5156 36.2578 17.2656 36.8984 17.2656 37.0391C17.2656 37.1797 17.3672 37.4531 17.5 37.6641L17.7344 38.0469H16.9141C16.1797 38.0469 16.0859 38.0625 15.9375 38.2188C15.7344 38.4375 15.7344 38.8281 15.9375 39.0469L16.1016 39.2188H21.8672C27.6094 39.2188 27.625 39.2188 27.8047 39.0547C28.0469 38.8281 28.125 38.5781 28.125 38.0391V37.5781H33.6172C37.1328 37.5781 39.2031 37.5469 39.3906 37.5C39.5469 37.4531 39.75 37.3281 39.8438 37.2109C39.9922 37.0156 40 36.9063 40 34.6875C40 32.1484 39.9688 31.9375 39.5234 31.2734C39.1719 30.7656 38.7578 30.4609 37.1016 29.4766L35.5547 28.5703L35.8047 28.2734C36.1484 27.875 36.5391 27.2031 36.7656 26.6484C37.0625 25.9141 37.1328 25.1328 37.0938 22.7891C37.0625 21.0625 37.0312 20.5859 36.9219 20.2344C36.4766 18.8281 35.3047 17.75 33.6016 17.1875C32.0234 16.6563 30.2812 16.8438 29.3672 17.6328C29.2266 17.7656 28.9219 17.9297 28.7031 18C27.4922 18.3984 26.9375 19.375 26.7812 21.4063C26.6719 22.8594 26.7422 25.6094 26.9062 26.1953C27.0703 26.7969 27.4141 27.4609 27.875 28.0703L28.2578 28.5703L26.7891 29.4453C25.9766 29.9297 25.1562 30.4375 24.9609 30.5859L24.6172 30.8516L24.1406 30.5781C23.8516 30.4063 23.6953 30.2578 23.7266 30.2031C23.7578 30.1563 23.9141 29.9453 24.0781 29.7422C24.4531 29.2656 24.8828 28.375 25.0391 27.7734C25.2188 27.0625 25.2031 22.7422 25.0156 22.0234C24.6406 20.6016 23.3047 19.3828 21.4844 18.8125C21 18.6641 20.7266 18.6328 19.9219 18.6328C18.7734 18.6328 18.1797 18.7969 17.5312 19.2891C17.3125 19.4531 16.9531 19.6484 16.7344 19.7188C15.9922 19.9688 15.3906 20.6641 15.0547 21.6641C14.9062 22.1016 14.8906 22.375 14.8594 24.6484C14.8438 26.3359 14.8594 27.2969 14.9219 27.6172C15.0312 28.1953 15.5156 29.2266 15.9219 29.7344C16.0859 29.9453 16.2422 30.1563 16.2734 30.2031C16.3047 30.2578 16.1484 30.4063 15.8594 30.5781L15.3828 30.8516L15.0234 30.5781C14.8281 30.4297 14.0078 29.9141 13.2031 29.4375L11.7422 28.5703L12.125 28.0703C12.3359 27.7891 12.6094 27.3516 12.7344 27.1016C13.1719 26.2422 13.2031 25.9922 13.2031 23.1875C13.2031 20.8047 13.1953 20.5859 13.0391 20.1406C12.2969 17.9297 9.41406 16.4453 6.90625 16.9922ZM9 18.2734C10.2344 18.5938 11.3047 19.375 11.7344 20.2734C11.9375 20.7188 11.9531 20.8047 11.9531 21.7734V22.8125H11.7422C11.3984 22.8125 10.9375 22.5313 10.2031 21.8828C9.05469 20.8594 8.45312 20.625 6.99219 20.625C5.48438 20.6328 5.10156 20.9141 4.79688 22.2422C4.65625 22.875 4.50781 23.125 4.28125 23.125C4.11719 23.125 4.11719 23.1094 4.16406 21.9688C4.23438 20.0781 4.57812 19.3516 5.49219 19.1328C5.77344 19.0703 6.00781 18.9453 6.23438 18.7344C6.89844 18.1328 7.82812 17.9766 9 18.2734ZM33.1484 18.3516C33.875 18.6094 34.4922 18.9688 34.9375 19.4141C35.6484 20.1172 35.8594 20.7344 35.8594 22.0781V22.8125H35.6094C35.2266 22.8125 34.7891 22.5547 34.0312 21.8828C32.8828 20.8594 32.2812 20.625 30.8203 20.625C29.3125 20.6328 28.9688 20.8906 28.6406 22.2266C28.4766 22.8828 28.3359 23.125 28.1094 23.125C27.9453 23.125 27.9453 23.1094 27.9922 21.9688C28.0234 21.2891 28.0938 20.6484 28.1719 20.3906C28.3828 19.6719 28.8281 19.2188 29.4375 19.1016C29.6094 19.0703 29.8672 18.9141 30.0859 18.7188C30.5938 18.2578 31.0859 18.1172 31.9922 18.1563C32.4141 18.1797 32.875 18.2578 33.1484 18.3516ZM21.0156 20.0078C21.8438 20.2344 22.4609 20.5859 23.0078 21.1328C23.7422 21.8516 23.8516 22.1641 23.8906 23.4531L23.9219 24.5313H23.6953C23.3281 24.5234 22.8828 24.2656 22.2031 23.6563C20.9531 22.5391 20.3594 22.3125 18.7578 22.3594C17.8906 22.3828 17.7344 22.4063 17.4844 22.5625C17.1484 22.7734 16.8516 23.3281 16.7109 23.9844C16.5859 24.6094 16.4375 24.8359 16.1953 24.8438C16.0391 24.8438 16.0625 22.9453 16.2188 22.2656C16.4141 21.4141 16.8359 20.9297 17.4922 20.8203C17.6797 20.7891 17.875 20.6797 18.0156 20.5313C18.6406 19.875 19.8125 19.6719 21.0156 20.0078ZM8.375 22.0938C8.57812 22.1953 9.04688 22.5547 9.42969 22.8984C10.2344 23.6172 10.875 23.9766 11.5156 24.0391L11.9688 24.0859L11.9375 24.9922C11.9141 25.8594 11.8984 25.9219 11.6094 26.5078C10.8594 28.0234 9.17188 29.2188 7.92188 29.1172C7.13281 29.0547 6.35156 28.6328 5.53906 27.8203C4.57031 26.8438 4.14062 25.8984 4.14062 24.7031C4.14062 24.3828 4.14844 24.375 4.39844 24.375C5.125 24.3672 5.6875 23.8125 5.9375 22.8594C6.21875 21.7734 6.11719 21.8516 7.13281 21.8906C7.84375 21.9141 8.07812 21.9531 8.375 22.0938ZM32.1953 22.0938C32.3906 22.1875 32.8984 22.5703 33.3203 22.9453C34.1875 23.6953 34.7188 23.9844 35.3984 24.0391L35.8594 24.0859V24.5625C35.8594 25.9063 35.4688 26.8047 34.4609 27.8203C33.9297 28.3438 33.6484 28.5625 33.1641 28.7969C32.5938 29.0703 32.4844 29.1016 31.9141 29.1016C31.3438 29.1016 31.2344 29.0703 30.6641 28.7969C29.8125 28.3828 28.8359 27.4063 28.4141 26.5625C28.1328 25.9922 27.9688 25.2969 27.9688 24.6641C27.9688 24.3906 27.9844 24.375 28.2266 24.375C28.7812 24.3672 29.3984 23.9141 29.6406 23.3203C29.7031 23.1797 29.7969 22.8594 29.8438 22.6016C30.0078 21.8281 29.9609 21.8516 30.9609 21.8906C31.6719 21.9141 31.9062 21.9531 32.1953 22.0938ZM20.3125 23.8125C20.5078 23.9141 20.9844 24.2813 21.3672 24.625C22.1641 25.3359 22.8281 25.6953 23.4688 25.7578L23.9062 25.8047V26.4844C23.9062 26.9453 23.8594 27.3359 23.75 27.6719C23.2266 29.375 21.2109 30.9844 19.7891 30.8359C18.9062 30.7422 17.6719 29.9531 16.9922 29.0391C16.3438 28.1875 16.0938 27.5078 16.0938 26.625C16.0938 26.1172 16.1016 26.0938 16.2812 26.0938C16.5312 26.0938 16.9453 25.9453 17.2109 25.7656C17.4844 25.5703 17.75 25.0391 17.9219 24.3359C18 24.0391 18.1016 23.7422 18.1484 23.6875C18.2188 23.6016 18.4375 23.5859 19.1016 23.6094C19.8047 23.6328 20.0234 23.6719 20.3125 23.8125ZM6.76562 30.1875C6.77344 30.1953 6.61719 30.3828 6.41406 30.6094L6.04688 31.0234L5.32812 30.5547C4.92969 30.2969 4.59375 30.0625 4.58594 30.0313C4.57812 30 4.75781 29.8594 4.98438 29.7188L5.40625 29.4688L6.07812 29.8281C6.45312 30.0234 6.76562 30.1875 6.76562 30.1875ZM10.8828 29.5469C10.9766 29.5938 11.1953 29.7188 11.3594 29.8281L11.6641 30.0156L10.8906 30.5234L10.1172 31.0234L9.75 30.6094L9.38281 30.2031L9.9375 29.9063C10.2422 29.75 10.5312 29.5781 10.5781 29.5313C10.6797 29.4297 10.6797 29.4297 10.8828 29.5469ZM29.4219 29.5313C29.4688 29.5781 29.7578 29.75 30.0625 29.9063L30.6172 30.2031L30.25 30.6172L29.8828 31.0313L29.1094 30.5234L28.3359 30.0156L28.6406 29.8281C29.2969 29.4141 29.3047 29.4141 29.4219 29.5313ZM35.1875 29.8281L35.4922 30.0156L34.7188 30.5234L33.9453 31.0313L33.5859 30.6094L33.2188 30.1953L33.8984 29.8359C34.625 29.4453 34.5859 29.4453 35.1875 29.8281ZM8.57812 31.6563L8.49219 32.0313H8.08594H7.67188L7.58594 31.6641C7.49219 31.3047 7.49219 31.3047 7.78906 31L8.07812 30.7031L8.375 30.9922C8.66406 31.2891 8.66406 31.2891 8.57812 31.6563ZM32.4062 31.6563L32.3203 32.0313H31.9141H31.5078L31.4219 31.6563C31.3359 31.2891 31.3438 31.2891 31.625 30.9922L31.9062 30.7031L32.2031 30.9922C32.4922 31.2891 32.4922 31.2891 32.4062 31.6563ZM4.61719 31.6094C5.67969 32.2969 5.85938 32.3828 6.14844 32.375C6.41406 32.3672 6.48438 32.3984 6.48438 32.5C6.48438 32.5703 6.21875 33.2031 5.89844 33.8984C5.57812 34.6016 5.3125 35.2422 5.3125 35.3281C5.3125 35.4141 5.42188 35.6797 5.55469 35.9063L5.78906 36.3281H3.47656H1.15625L1.1875 34.4688C1.22656 32.0391 1.27344 31.9375 2.57812 31.1406C2.89844 30.9375 3.21875 30.7969 3.28906 30.8125C3.35938 30.8281 3.95312 31.1875 4.61719 31.6094ZM13.5469 31.1172C13.8438 31.3047 14.1016 31.4844 14.1094 31.5234C14.125 31.5703 13.9219 31.7266 13.6562 31.875C12.7578 32.3828 12.1562 33.1328 11.9531 34C11.9141 34.1875 11.875 34.7813 11.875 35.3281V36.3281H11.1328H10.3828L10.625 35.875C10.75 35.6328 10.8594 35.375 10.8594 35.3125C10.8594 35.25 10.5781 34.5938 10.2422 33.8672C9.90625 33.1328 9.64844 32.5 9.66406 32.4531C9.67969 32.4063 9.84375 32.3672 10.0312 32.3672C10.3281 32.3672 10.5234 32.2734 11.6016 31.5781C12.2812 31.1406 12.875 30.7813 12.9219 30.7813C12.9688 30.7813 13.25 30.9375 13.5469 31.1172ZM28.4375 31.6094C29.4922 32.2891 29.6562 32.3672 29.9688 32.3594C30.25 32.3594 30.3125 32.3828 30.3125 32.5C30.3125 32.5703 30.0469 33.2109 29.7266 33.9141C29.4062 34.6172 29.1406 35.2578 29.1406 35.3438C29.1406 35.4219 29.25 35.6797 29.3828 35.9063L29.6172 36.3281H28.875H28.125V35.3984C28.125 34.3359 28.0469 33.8359 27.8047 33.3125C27.5781 32.8438 26.9531 32.2266 26.3359 31.875C26.0781 31.7266 25.875 31.5703 25.8828 31.5234C25.9297 31.3906 26.9922 30.7813 27.125 30.8125C27.2031 30.8281 27.7969 31.1875 28.4375 31.6094ZM37.3516 31.1016C38.0859 31.5313 38.4297 31.8438 38.625 32.2656C38.7656 32.5781 38.7812 32.8203 38.8125 34.4688L38.8438 36.3281H36.5234H34.2109L34.4453 35.9063C34.5781 35.6797 34.6875 35.4219 34.6875 35.3438C34.6875 35.2578 34.4219 34.6172 34.1016 33.9141C33.7812 33.2109 33.5156 32.5781 33.5156 32.5C33.5156 32.3984 33.5859 32.3672 33.8516 32.375C34.1484 32.3828 34.3203 32.2969 35.4297 31.5781C36.1094 31.1406 36.6953 30.7813 36.7344 30.7813C36.7734 30.7813 37.0547 30.9219 37.3516 31.1016ZM17.7969 31.4297C18.0391 31.5703 18.3594 31.7344 18.5 31.7891L18.7578 31.8984L18.3516 32.3125L17.9453 32.7188L17.2344 32.2656C16.8438 32.0156 16.5156 31.7813 16.5078 31.7422C16.4922 31.6953 17.2266 31.1875 17.3281 31.1719C17.3438 31.1719 17.5547 31.2891 17.7969 31.4297ZM23.0938 31.4219C23.3281 31.5625 23.5078 31.7031 23.4922 31.7422C23.4844 31.7813 23.1562 32.0156 22.7734 32.2656L22.0703 32.7188L21.6641 32.3203L21.25 31.9219L21.9375 31.5547C22.3125 31.3516 22.6328 31.1797 22.6406 31.1797C22.6562 31.1719 22.8594 31.2891 23.0938 31.4219ZM20.2734 32.7109C20.5781 33.0469 20.5781 33.0469 20.4609 33.4531C20.3828 33.7422 20.375 33.75 20 33.75C19.625 33.75 19.6172 33.7422 19.5391 33.4531C19.4922 33.2969 19.4531 33.1328 19.4531 33.1016C19.4531 33.0469 19.9297 32.4297 19.9766 32.4219C19.9922 32.4219 20.1172 32.5547 20.2734 32.7109ZM25.9609 33.1563C26.2422 33.3438 26.5 33.6094 26.625 33.8203L26.8359 34.1797L26.8594 36.1094L26.8828 38.0469H24.5781H22.2656L22.5 37.6641C22.6328 37.4609 22.7344 37.1797 22.7344 37.0469C22.7344 36.9141 22.4766 36.2422 22.1484 35.5391C21.8203 34.8359 21.5781 34.2188 21.5938 34.1641C21.6172 34.1016 21.7734 34.0625 21.9766 34.0625C22.2812 34.0625 22.4688 33.9688 23.5625 33.2578L24.8047 32.4453L25.1562 32.6406C25.3516 32.75 25.7109 32.9844 25.9609 33.1563ZM9.05469 34.3047L9.50781 35.2891L9.19531 35.8047L8.89062 36.3281H8.07812H7.27344L6.96875 35.8047L6.66406 35.2813L6.96875 34.6172C7.14062 34.25 7.35156 33.7969 7.42969 33.6094L7.57812 33.2734L8.08594 33.2969L8.59375 33.3203L9.05469 34.3047ZM32.5703 33.6094C32.6562 33.7969 32.8594 34.25 33.0312 34.6172L33.3359 35.2813L33.0234 35.8047L32.7188 36.3281H31.9141H31.1094L30.8047 35.8047L30.4922 35.2813L30.7969 34.6172C30.9688 34.25 31.1719 33.7969 31.2578 33.6094L31.3984 33.2813H31.9141H32.4297L32.5703 33.6094ZM20.9531 35.9766L21.4141 36.9922L21.1172 37.5156L20.8203 38.0391L20 38.0469H19.1797L18.8828 37.5234L18.5859 37L18.7422 36.6484C18.8281 36.4531 19.0391 35.9766 19.2109 35.6016L19.5312 34.9141L20.0078 34.9375L20.4844 34.9609L20.9531 35.9766Z" fill="#FFCC60"/>
</svg>
