<svg width="40" height="40" viewBox="0 0 40 40" fill="none" xmlns="http://www.w3.org/2000/svg">
<path d="M0 8.28125V10.625H0.585938H1.17188V8.86719V7.10938H12.8906H24.6094L24.625 12.4375L24.6484 17.7734L25.2188 17.7969L25.7812 17.8203V11.875V5.9375H12.8906H0V8.28125Z" fill="#FFCC60"/>
<path d="M22.2656 8.8667V9.45264H22.8516H23.4375V8.8667V8.28076H22.8516H22.2656V8.8667Z" fill="#FFCC60"/>
<path d="M26.9531 10.0389V10.6248H30.1797H33.3984L33.5703 11.0701C33.6641 11.3201 33.7656 11.5857 33.7969 11.6561C33.8438 11.7889 33.6484 11.7967 30.3984 11.7967H26.9531L26.9688 15.367L26.9922 18.9451L32.0703 18.9842L37.1484 19.0232L37.9922 19.4529L38.8281 19.8826V20.5232V21.1717H37.6562H36.4844V22.8123V24.4529L37.6562 25.0389L38.8281 25.6248V26.3279V27.0311H37.0469H35.2734L35 26.8123C34.2109 26.1717 33.4375 25.8982 32.3828 25.8982C31.3281 25.8982 30.5547 26.1717 29.7656 26.8123L29.4922 27.0311H27.6406H25.7812V23.0076V18.9842H25.1953H24.6094V23.0076V27.0311H17.5547H10.5078L10.2344 26.8123C9.44531 26.1717 8.67188 25.8982 7.61719 25.8982C6.5625 25.8982 5.78906 26.1717 5 26.8123C4.75781 27.0076 4.67188 27.0311 4.125 27.0311H3.51562V25.5857V24.1404H2.34375H1.17188V17.9686V11.7967H0.585938H0V21.1717V30.5467H1.78125H3.55469L3.65625 30.9607C4.04688 32.6092 5.53125 33.8748 7.26562 34.031C8.71094 34.1717 10.1484 33.492 10.9688 32.281C11.3125 31.781 11.6406 30.9998 11.6406 30.6873C11.6406 30.5545 11.8047 30.5467 15.5469 30.5467H19.4531V29.9607V29.3748H15.5469C11.8047 29.3748 11.6406 29.367 11.6406 29.2342C11.6406 29.1482 11.5703 28.8904 11.4922 28.6482L11.3359 28.2029H20H28.6641L28.5078 28.6482C28.4297 28.8904 28.3594 29.1482 28.3594 29.2342C28.3594 29.367 28.1953 29.3748 24.4531 29.3748H20.5469V29.9607V30.5467H24.4375H28.3203L28.4219 30.9529C28.8125 32.6092 30.2969 33.8748 32.0312 34.031C33.4766 34.1717 34.9141 33.492 35.7344 32.281C36.0781 31.781 36.4062 30.9998 36.4062 30.6873C36.4062 30.5545 36.5078 30.5467 38.2031 30.5467H40V24.8592V19.1795L38.7656 18.5623L37.5312 17.9451L37.1094 16.8592C36.875 16.2576 36.6641 15.7576 36.6406 15.742C36.5625 15.6951 35.625 16.117 35.625 16.2029C35.625 16.2498 35.75 16.6014 35.8984 16.9842C36.0469 17.367 36.1719 17.7107 36.1719 17.7498C36.1719 17.7811 34.3672 17.8045 32.1719 17.7967L28.1641 17.7732L28.1406 15.367L28.125 12.9686L31.2266 12.9842L34.3281 13.0076L34.7031 13.9451C34.9062 14.4607 35.0859 14.9139 35.1016 14.9529C35.1328 15.0467 36.1719 14.6717 36.1719 14.5701C36.1719 14.5311 35.7266 13.3592 35.1797 11.9686L34.1953 9.45293H30.5703H26.9531V10.0389ZM38.8281 23.3201C38.8281 23.8592 38.8125 24.2967 38.7891 24.2967C38.7656 24.2967 38.5 24.1717 38.2031 24.0232L37.6562 23.7498V23.0467V22.3436H38.2422H38.8281V23.3201ZM2.34375 26.1717V27.0311H1.75781H1.17188V26.1717V25.3123H1.75781H2.34375V26.1717ZM8.80469 27.3045C9.40625 27.5779 10.0078 28.1795 10.2891 28.7811C10.4766 29.1873 10.5078 29.3592 10.5078 29.9607C10.5078 30.5701 10.4766 30.7264 10.2891 31.1326C10 31.7498 9.39844 32.3514 8.79688 32.6326C8.39062 32.8201 8.21875 32.8514 7.61719 32.8514C7.00781 32.8514 6.85156 32.8201 6.44531 32.6326C5.82812 32.3435 5.22656 31.742 4.94531 31.1404C4.75781 30.7342 4.72656 30.5623 4.72656 29.9607C4.72656 29.3514 4.75781 29.1951 4.94531 28.7889C5.32031 27.9842 6.10938 27.3201 6.92969 27.1092C7.4375 26.9842 8.30469 27.0701 8.80469 27.3045ZM33.5703 27.3045C34.1719 27.5779 34.7734 28.1795 35.0547 28.7811C35.2422 29.1873 35.2734 29.3592 35.2734 29.9607C35.2734 30.5701 35.2422 30.7264 35.0547 31.1326C34.7656 31.7498 34.1641 32.3514 33.5625 32.6326C33.1562 32.8201 32.9844 32.8514 32.3828 32.8514C31.7734 32.8514 31.6172 32.8201 31.2109 32.6326C30.5938 32.3435 29.9922 31.742 29.7109 31.1404C29.5234 30.7342 29.4922 30.5623 29.4922 29.9607C29.4922 29.3514 29.5234 29.1951 29.7109 28.7889C30.0859 27.9842 30.875 27.3201 31.6953 27.1092C32.2031 26.9842 33.0703 27.0701 33.5703 27.3045ZM3.74219 28.6482C3.66406 28.8904 3.59375 29.1482 3.59375 29.2342C3.59375 29.367 3.50781 29.3748 2.38281 29.3748H1.17188V28.7889V28.2029H2.53125H3.89844L3.74219 28.6482ZM38.8281 28.7889V29.3748H37.6172C36.4922 29.3748 36.4062 29.367 36.4062 29.2342C36.4062 29.1482 36.3359 28.8904 36.2578 28.6482L36.1016 28.2029H37.4688H38.8281V28.7889Z" fill="#FFCC60"/>
<path d="M7.03125 29.9604V30.5464H7.61719H8.20312V29.9604V29.3745H7.61719H7.03125V29.9604Z" fill="#FFCC60"/>
<path d="M31.7969 29.9604V30.5464H32.3828H32.9688V29.9604V29.3745H32.3828H31.7969V29.9604Z" fill="#FFCC60"/>
<path d="M22.2656 12.3823V14.1401H22.8516H23.4375V12.3823V10.6245H22.8516H22.2656V12.3823Z" fill="#FFCC60"/>
<path d="M7.65625 17.6558V23.5151H13.5156H19.375V17.6558V11.7964H13.5156H7.65625V17.6558ZM11.4062 14.7261V16.4839H13.4766H15.5469V14.7261V12.9683H16.875H18.2031V17.6558V22.3433H13.5156H8.82812V17.6558V12.9683H10.1172H11.4062V14.7261ZM14.375 14.1401V15.312H13.4766H12.5781V14.1401V12.9683H13.4766H14.375V14.1401Z" fill="#FFCC60"/>
<path d="M15.8594 20.5854V21.1714H16.4453H17.0312V20.5854V19.9995H16.4453H15.8594V20.5854Z" fill="#FFCC60"/>
<path d="M32.2656 14.7261V15.312H32.8516H33.4375V14.7261V14.1401H32.8516H32.2656V14.7261Z" fill="#FFCC60"/>
<path d="M26.9688 20.7188L26.9922 21.2891L28.1484 21.3125L29.2969 21.3359V20.7422V20.1562H28.125H26.9453L26.9688 20.7188Z" fill="#FFCC60"/>
<path d="M2.34375 22.3433V22.9683H2.92969H3.51562V22.3433V21.7183H2.92969H2.34375V22.3433Z" fill="#FFCC60"/>
</svg>
