<svg width="40" height="40" viewBox="0 0 40 40" fill="none" xmlns="http://www.w3.org/2000/svg">
<path d="M18.1091 0.078125C15.9998 0.414062 14.781 1.23438 13.8513 2.92969C13.5701 3.4375 13.531 3.47656 13.0466 3.67188C12.2185 4 11.8123 4.39062 11.5779 5.07031C11.4607 5.41406 11.4607 6.78906 11.5701 8.89062L11.6638 10.5547L11.4607 10.7656C11.3513 10.8828 11.1638 11.1875 11.0388 11.4453C10.8513 11.8438 10.8201 12.0078 10.8201 12.5781C10.8279 13.125 10.8591 13.3203 11.031 13.6875C11.4607 14.6172 12.3513 15.2578 13.3435 15.3594C13.7888 15.4062 13.8357 15.4297 13.8748 15.6172C14.0154 16.25 14.1013 16.5078 14.367 17.0703C14.7341 17.8438 15.2576 18.5469 15.867 19.0781L16.3279 19.4766V20.1953C16.3279 20.7031 16.2966 20.9297 16.2341 20.9609C12.2107 22.5156 8.14821 24.125 7.85915 24.2812C6.98415 24.7578 5.85915 26.0469 5.46853 27.0312C5.03103 28.1172 5.04665 27.8594 5.0154 33.3984C4.99978 37.0234 5.0154 38.6406 5.0779 38.8516C5.18728 39.2344 5.58571 39.6797 5.97634 39.8516C6.2654 39.9844 6.56228 40 9.49978 40H12.7107L12.8748 39.8203C13.1013 39.5781 13.1013 39.2188 12.867 39C12.7029 38.8438 12.6013 38.8281 11.7732 38.8281H10.8591V33.6328C10.8591 28.5391 10.8591 28.4375 10.7029 28.2812C10.4685 28.0469 10.0545 28.0703 9.85134 28.3281C9.68728 28.5312 9.68728 28.5938 9.68728 33.6797V38.8281H8.06228C6.5779 38.8281 6.42165 38.8125 6.30446 38.6875C6.18728 38.5547 6.17165 38.1016 6.17165 33.7031C6.17165 28.2969 6.17946 28.2109 6.69509 27.1875C7.06228 26.4531 7.88259 25.6016 8.55446 25.2578C8.81228 25.125 10.0857 24.6094 11.3904 24.1016C13.5154 23.2734 13.7654 23.1953 13.8904 23.2969C15.1482 24.3828 16.9216 25.7891 17.0779 25.8281C17.1873 25.8594 17.4216 25.8594 17.6091 25.8438C17.9295 25.8047 17.9529 25.8125 18.1326 26.125L18.3279 26.4453L17.6795 32.6172C17.3279 36.0078 17.0388 38.7969 17.031 38.8047C17.031 38.8203 16.5857 38.8281 16.0466 38.8281C15.5076 38.8281 14.9998 38.8594 14.9216 38.9062C14.5857 39.0859 14.6091 39.8125 14.9607 39.9531C15.031 39.9766 19.281 40 24.3982 40C33.2966 40 33.7263 39.9922 34.0232 39.8516C34.1951 39.7734 34.4295 39.6094 34.5466 39.4844C34.9763 39.0234 34.9998 38.8594 34.9998 36.6016V34.5234L34.8045 34.3359C34.5623 34.0859 34.2654 34.0859 34.0232 34.3359L33.8279 34.5234V36.5469C33.8279 38.4062 33.8201 38.5781 33.6873 38.6953C33.5623 38.8125 33.3201 38.8281 31.9295 38.8281H30.3123V33.6797C30.3123 28.5938 30.3123 28.5312 30.1482 28.3281C29.9451 28.0703 29.531 28.0469 29.2966 28.2812C29.1404 28.4375 29.1404 28.5391 29.1404 33.6328V38.8281H26.0623H22.9841L22.9373 38.5312C22.8826 38.1875 21.7263 27.0391 21.7029 26.6406C21.6951 26.4609 21.7576 26.2656 21.8748 26.0859C22.0466 25.8203 22.0779 25.8047 22.3904 25.8438C22.5779 25.8594 22.8123 25.8594 22.9216 25.8281C23.031 25.8047 23.6638 25.3359 24.3123 24.7891C24.9685 24.25 25.6716 23.6641 25.8748 23.5L26.242 23.1953L28.6716 24.1328C29.9998 24.6562 31.281 25.1719 31.5076 25.2812C32.117 25.5938 32.9451 26.4766 33.3045 27.1953C33.742 28.0938 33.8279 28.6016 33.8279 30.5312C33.8279 32.1953 33.8279 32.1953 34.0232 32.3828C34.2654 32.6328 34.5623 32.6328 34.8123 32.3828L35.0154 32.1797L34.9841 30.25C34.9451 28.0547 34.8982 27.8203 34.3279 26.6484C34.0466 26.0781 33.8279 25.7734 33.3591 25.2812C33.0232 24.9297 32.5466 24.5312 32.3045 24.3828C32.0623 24.2344 30.031 23.4062 27.7888 22.5391L23.7107 20.9609L23.6873 20.2344L23.6638 19.5L24.2654 18.9141C25.1873 18.0078 25.7185 17.1172 26.0154 15.9766L26.156 15.4297L26.6482 15.3672C27.6638 15.25 28.5388 14.6094 28.9685 13.6875C29.1404 13.3203 29.1716 13.125 29.1795 12.5781C29.1795 12.0078 29.1482 11.8438 28.9607 11.4453C28.8357 11.1875 28.6482 10.8828 28.5388 10.7656L28.3357 10.5547L28.4295 8.73438C28.4841 7.73438 28.5779 6.66406 28.6404 6.36719C28.7029 6.0625 28.7888 5.64062 28.8357 5.42969C28.9451 4.89844 28.9451 3.35156 28.8279 2.73438C28.6795 1.92188 28.3045 0.828125 28.1091 0.648438C27.867 0.421875 27.5076 0.296875 27.2654 0.351562C27.156 0.382812 26.8748 0.492188 26.6404 0.609375C26.242 0.804688 26.1326 0.820312 25.2732 0.820312C24.4841 0.8125 24.1795 0.773438 23.3591 0.570312C22.8201 0.429688 22.0466 0.265625 21.6404 0.195312C20.7498 0.046875 18.7263 -0.0234375 18.1091 0.078125ZM21.5232 1.35938C21.9138 1.42969 22.7576 1.61719 23.3982 1.76562C24.4841 2.03125 24.6404 2.04688 25.5076 2.01562C26.2185 1.98438 26.5466 1.9375 26.867 1.8125C27.1013 1.71875 27.3123 1.65625 27.3279 1.67969C27.3435 1.69531 27.4295 1.95312 27.5154 2.24219C27.6248 2.60938 27.6873 3.10938 27.7107 3.86719C27.742 4.8125 27.7263 5.05469 27.5779 5.66406C27.4685 6.14062 27.3748 6.91406 27.3045 8.07812C27.242 9.01562 27.1873 9.78906 27.1716 9.80469C27.156 9.8125 26.9451 9.80469 26.7029 9.78906L26.2498 9.75V9.30469C26.2498 8.38281 25.8279 7.60938 25.1248 7.25C24.7185 7.03125 23.9841 7.01562 23.0076 7.20312C21.2341 7.54688 18.742 7.54688 16.9841 7.20312C16.0154 7.01562 15.281 7.03125 14.8748 7.25C14.1716 7.60938 13.7498 8.38281 13.7498 9.30469V9.75L13.3045 9.78906C13.0545 9.80469 12.8435 9.8125 12.8279 9.80469C12.781 9.75781 12.6638 7.38281 12.656 6.39062C12.656 5.39844 12.656 5.39844 12.8826 5.13281C13.0388 4.96094 13.2576 4.82812 13.5545 4.73438C14.1404 4.55469 14.5466 4.17188 14.9216 3.44531C15.5623 2.21875 16.5623 1.52344 18.0623 1.25C18.656 1.14844 20.6951 1.21094 21.5232 1.35938ZM16.9295 8.39062C18.117 8.60938 19.8904 8.69531 21.2185 8.60156C21.8904 8.54688 22.7185 8.46094 23.0701 8.39844C24.2576 8.17969 24.3357 8.17969 24.6013 8.32031C25.0857 8.5625 25.0935 8.64844 25.0545 12.1406C25.0232 15.6094 25.0232 15.625 24.4841 16.7109C24.1013 17.4922 23.156 18.4453 22.3826 18.8438C21.5076 19.2969 21.0232 19.4062 19.9998 19.4062C18.9529 19.3984 18.2029 19.1953 17.3513 18.6953C16.2185 18.0156 15.2732 16.6484 15.0388 15.3516C14.8982 14.5469 14.8748 9.14844 15.0076 8.75781C15.0623 8.61719 15.2107 8.42969 15.3435 8.34375C15.6091 8.17969 15.7732 8.1875 16.9295 8.39062ZM13.7498 12.5781V14.2188H13.5388C13.4138 14.2188 13.1404 14.1328 12.9216 14.0312C11.9216 13.5625 11.6482 12.3281 12.367 11.5078C12.656 11.1797 13.1326 10.9453 13.4998 10.9375H13.7498V12.5781ZM27.0701 11.0859C27.6326 11.3359 28.0466 11.9688 28.0466 12.5703C28.0466 13.3984 27.2341 14.2188 26.4138 14.2188C26.2498 14.2188 26.2498 14.2031 26.2498 12.5781V10.9375H26.5076C26.6404 10.9375 26.8982 11.0078 27.0701 11.0859ZM19.0076 20.5156C20.0623 20.7031 21.0623 20.6016 22.3591 20.1875C22.4685 20.1484 22.492 20.2188 22.5154 20.6562L22.5388 21.1719L21.5857 21.9531L20.6326 22.7344H19.9998H19.3591L18.406 21.9453C17.8904 21.5078 17.4607 21.1172 17.4685 21.0859C17.4763 21.0469 17.4841 20.8047 17.492 20.5547L17.4998 20.0938L17.8904 20.2422C18.1091 20.3203 18.6091 20.4453 19.0076 20.5156ZM17.3904 22.625C17.7888 22.9453 18.156 23.2656 18.2029 23.3203C18.2732 23.3984 18.1951 23.5703 17.8748 24.0547C17.6482 24.3984 17.4373 24.6719 17.4138 24.6641C17.3826 24.6562 16.8279 24.2109 16.1795 23.6719L14.9998 22.7031L15.8045 22.375C16.242 22.1953 16.617 22.0391 16.6326 22.0391C16.6482 22.0312 16.9841 22.2969 17.3904 22.625ZM24.9216 22.7266C24.9216 22.7734 22.6873 24.6328 22.5935 24.6641C22.5623 24.6719 22.3513 24.3984 22.1248 24.0469C21.6404 23.3203 21.5779 23.4766 22.6482 22.5938L23.2966 22.0547L24.1091 22.3672C24.5545 22.5391 24.9216 22.7031 24.9216 22.7266ZM20.9373 24.3672C21.1091 24.625 21.2498 24.8516 21.2498 24.8828C21.2498 24.9062 21.1326 25.1016 20.9998 25.3125L20.742 25.7031H19.9998H19.2576L19.0076 25.3125C18.867 25.1016 18.7498 24.9062 18.7498 24.8828C18.7498 24.8516 18.8904 24.625 19.0623 24.3672L19.3826 23.9062H19.9998H20.617L20.9373 24.3672ZM20.5779 27.3203C20.6091 27.5703 20.6482 27.9297 20.6716 28.125L20.7185 28.4766L20.0857 27.8516C19.6638 27.4375 19.4529 27.1719 19.4529 27.0547C19.4529 26.8828 19.4841 26.875 19.992 26.875H20.531L20.5779 27.3203ZM20.9685 31.0156C20.9998 31.3828 21.0388 31.8047 21.0701 31.9531C21.1091 32.2109 21.0701 32.1875 20.117 31.25L19.1326 30.2734L19.1873 29.5703C19.2107 29.1797 19.2576 28.8359 19.281 28.7969C19.3045 28.7578 19.6795 29.0938 20.117 29.5391L20.9138 30.3516L20.9685 31.0156ZM20.156 32.9297L21.2888 34.0625L21.3748 34.9062C21.4216 35.3672 21.4529 35.75 21.4451 35.7578C21.4451 35.7656 20.8513 35.1875 20.1248 34.4609L18.8201 33.1484L18.8748 32.4766C18.906 32.1016 18.9529 31.7969 18.9763 31.7969C18.9998 31.7969 19.531 32.3047 20.156 32.9297ZM21.6716 37.8516C21.6951 37.9766 21.7263 38.25 21.7498 38.4531L21.7966 38.8281H21.4607C21.1404 38.8281 21.1013 38.8047 19.8123 37.5078L18.4998 36.1953L18.5545 35.5781C18.6404 34.5469 18.5232 34.5 20.1638 36.1406C21.2966 37.2734 21.6482 37.6719 21.6716 37.8516ZM18.9451 38.2812L19.4841 38.8281H18.8513H18.2107L18.2576 38.375C18.2966 37.9297 18.3357 37.7344 18.3748 37.7344C18.3904 37.7344 18.6482 37.9766 18.9451 38.2812Z" fill="#FFCC60"/>
</svg>
