<svg width="473" height="473" viewBox="0 0 473 473" fill="none" xmlns="http://www.w3.org/2000/svg">
<mask id="mask0_55_4923" style="mask-type:alpha" maskUnits="userSpaceOnUse" x="0" y="0" width="473" height="473">
<circle cx="236.5" cy="236.5" r="236.5" fill="#C4C4C4"/>
</mask>
<g mask="url(#mask0_55_4923)">
<path d="M484.93 -10.9717L427.109 44.8896L484.93 100.751L542.752 44.8896L484.93 -10.9717Z" stroke="#B38339" stroke-width="1.0396" stroke-miterlimit="10"/>
<path d="M413.609 44.951L471.503 100.716V-10.9801L413.609 44.951Z" stroke="#B38339" stroke-width="1.0396" stroke-miterlimit="10"/>
<path d="M484.809 4.87052L443.386 44.8889L484.809 84.9072L526.231 44.8888L484.809 4.87052Z" stroke="#B38339" stroke-width="1.0396" stroke-miterlimit="10"/>
<path d="M390.446 -10.9726L332.625 44.8888L390.446 100.75L448.267 44.8888L390.446 -10.9726Z" stroke="#B38339" stroke-width="1.0396" stroke-miterlimit="10"/>
<path d="M461.54 44.951L403.818 100.716V-10.9801L461.54 44.951Z" stroke="#B38339" stroke-width="1.0396" stroke-miterlimit="10"/>
<path d="M484.929 101.885L427.108 157.747L484.929 213.608L542.75 157.747L484.929 101.885Z" stroke="#B38339" stroke-width="1.0396" stroke-miterlimit="10"/>
<path d="M413.609 157.809L471.503 213.574V101.878L413.609 157.809Z" stroke="#B38339" stroke-width="1.0396" stroke-miterlimit="10"/>
<path d="M484.808 117.728L443.385 157.746L484.807 197.764L526.23 157.746L484.808 117.728Z" stroke="#B38339" stroke-width="1.0396" stroke-miterlimit="10"/>
<path d="M390.444 101.885L332.623 157.746L390.444 213.607L448.266 157.746L390.444 101.885Z" stroke="#B38339" stroke-width="1.0396" stroke-miterlimit="10"/>
<path d="M461.539 157.809L403.817 213.574V101.878L461.539 157.809Z" stroke="#B38339" stroke-width="1.0396" stroke-miterlimit="10"/>
<path d="M484.93 -10.9725L427.108 44.8888L484.93 100.75L542.751 44.8888L484.93 -10.9725Z" stroke="#B38339" stroke-width="1.0396" stroke-miterlimit="10"/>
<path d="M413.609 44.9508L471.503 100.716V-10.9802L413.609 44.9508Z" stroke="#B38339" stroke-width="1.0396" stroke-miterlimit="10"/>
<path d="M484.808 4.87028L443.386 44.8887L484.808 84.907L526.23 44.8886L484.808 4.87028Z" stroke="#B38339" stroke-width="1.0396" stroke-miterlimit="10"/>
<path d="M390.445 -10.9731L332.624 44.8882L390.445 100.749L448.267 44.8882L390.445 -10.9731Z" stroke="#B38339" stroke-width="1.0396" stroke-miterlimit="10"/>
<path d="M461.539 44.9508L403.817 100.716V-10.9802L461.539 44.9508Z" stroke="#B38339" stroke-width="1.0396" stroke-miterlimit="10"/>
<path d="M484.928 214.743L427.107 270.604L484.928 326.466L542.75 270.604L484.928 214.743Z" stroke="#B38339" stroke-width="1.0396" stroke-miterlimit="10"/>
<path d="M413.61 270.667L471.503 326.432V214.736L413.61 270.667Z" stroke="#B38339" stroke-width="1.0396" stroke-miterlimit="10"/>
<path d="M484.807 230.585L443.385 270.604L484.807 310.622L526.229 270.603L484.807 230.585Z" stroke="#B38339" stroke-width="1.0396" stroke-miterlimit="10"/>
<path d="M390.444 214.742L332.623 270.604L390.444 326.465L448.266 270.604L390.444 214.742Z" stroke="#B38339" stroke-width="1.0396" stroke-miterlimit="10"/>
<path d="M461.54 270.667L403.818 326.432V214.736L461.54 270.667Z" stroke="#B38339" stroke-width="1.0396" stroke-miterlimit="10"/>
<path d="M484.93 101.885L427.108 157.746L484.93 213.607L542.751 157.746L484.93 101.885Z" stroke="#B38339" stroke-width="1.0396" stroke-miterlimit="10"/>
<path d="M413.61 157.809L471.503 213.574V101.878L413.61 157.809Z" stroke="#B38339" stroke-width="1.0396" stroke-miterlimit="10"/>
<path d="M484.808 117.728L443.385 157.746L484.808 197.764L526.23 157.746L484.808 117.728Z" stroke="#B38339" stroke-width="1.0396" stroke-miterlimit="10"/>
<path d="M390.444 101.884L332.623 157.745L390.444 213.607L448.266 157.745L390.444 101.884Z" stroke="#B38339" stroke-width="1.0396" stroke-miterlimit="10"/>
<path d="M461.539 157.809L403.818 213.574V101.878L461.539 157.809Z" stroke="#B38339" stroke-width="1.0396" stroke-miterlimit="10"/>
<path d="M484.927 327.6L427.105 383.461L484.927 439.323L542.748 383.461L484.927 327.6Z" stroke="#B38339" stroke-width="1.0396" stroke-miterlimit="10"/>
<path d="M413.608 383.525L471.502 439.29V327.594L413.608 383.525Z" stroke="#B38339" stroke-width="1.0396" stroke-miterlimit="10"/>
<path d="M484.805 343.442L443.383 383.461L484.805 423.479L526.228 383.46L484.805 343.442Z" stroke="#B38339" stroke-width="1.0396" stroke-miterlimit="10"/>
<path d="M390.442 327.599L332.621 383.46L390.442 439.322L448.263 383.46L390.442 327.599Z" stroke="#B38339" stroke-width="1.0396" stroke-miterlimit="10"/>
<path d="M461.538 383.525L403.816 439.29V327.594L461.538 383.525Z" stroke="#B38339" stroke-width="1.0396" stroke-miterlimit="10"/>
<path d="M484.927 214.742L427.106 270.603L484.927 326.465L542.749 270.603L484.927 214.742Z" stroke="#B38339" stroke-width="1.0396" stroke-miterlimit="10"/>
<path d="M413.608 270.667L471.502 326.432V214.736L413.608 270.667Z" stroke="#B38339" stroke-width="1.0396" stroke-miterlimit="10"/>
<path d="M484.806 230.585L443.384 270.603L484.806 310.622L526.229 270.603L484.806 230.585Z" stroke="#B38339" stroke-width="1.0396" stroke-miterlimit="10"/>
<path d="M390.443 214.741L332.622 270.603L390.443 326.464L448.264 270.603L390.443 214.741Z" stroke="#B38339" stroke-width="1.0396" stroke-miterlimit="10"/>
<path d="M461.538 270.667L403.817 326.432V214.736L461.538 270.667Z" stroke="#B38339" stroke-width="1.0396" stroke-miterlimit="10"/>
<path d="M484.926 440.457L427.105 496.319L484.926 552.18L542.748 496.319L484.926 440.457Z" stroke="#B38339" stroke-width="1.0396" stroke-miterlimit="10"/>
<path d="M413.609 496.383L471.503 552.148V440.452L413.609 496.383Z" stroke="#B38339" stroke-width="1.0396" stroke-miterlimit="10"/>
<path d="M484.805 456.299L443.382 496.318L484.805 536.336L526.227 496.318L484.805 456.299Z" stroke="#B38339" stroke-width="1.0396" stroke-miterlimit="10"/>
<path d="M390.441 440.457L332.62 496.318L390.441 552.179L448.263 496.318L390.441 440.457Z" stroke="#B38339" stroke-width="1.0396" stroke-miterlimit="10"/>
<path d="M461.539 496.383L403.817 552.148V440.452L461.539 496.383Z" stroke="#B38339" stroke-width="1.0396" stroke-miterlimit="10"/>
<path d="M484.927 327.6L427.106 383.461L484.927 439.322L542.749 383.461L484.927 327.6Z" stroke="#B38339" stroke-width="1.0396" stroke-miterlimit="10"/>
<path d="M413.609 383.525L471.503 439.29V327.594L413.609 383.525Z" stroke="#B38339" stroke-width="1.0396" stroke-miterlimit="10"/>
<path d="M484.806 343.442L443.383 383.461L484.806 423.479L526.228 383.461L484.806 343.442Z" stroke="#B38339" stroke-width="1.0396" stroke-miterlimit="10"/>
<path d="M390.442 327.599L332.621 383.46L390.442 439.321L448.263 383.46L390.442 327.599Z" stroke="#B38339" stroke-width="1.0396" stroke-miterlimit="10"/>
<path d="M461.538 383.525L403.816 439.29V327.594L461.538 383.525Z" stroke="#B38339" stroke-width="1.0396" stroke-miterlimit="10"/>
<path d="M484.93 -10.972L427.109 44.8894L484.93 100.751L542.751 44.8894L484.93 -10.972Z" stroke="#B38339" stroke-width="1.0396" stroke-miterlimit="10"/>
<path d="M413.61 44.951L471.503 100.716V-10.9801L413.61 44.951Z" stroke="#B38339" stroke-width="1.0396" stroke-miterlimit="10"/>
<path d="M390.445 -10.9723L332.624 44.8889L390.445 100.75L448.267 44.8889L390.445 -10.9723Z" stroke="#B38339" stroke-width="1.0396" stroke-miterlimit="10"/>
<path d="M461.54 44.951L403.818 100.716V-10.9801L461.54 44.951Z" stroke="#B38339" stroke-width="1.0396" stroke-miterlimit="10"/>
<path d="M319.125 44.951L377.018 100.716V-10.9801L319.125 44.951Z" stroke="#B38339" stroke-width="1.0396" stroke-miterlimit="10"/>
<path d="M390.324 4.86997L348.901 44.8883L390.324 84.9066L431.746 44.8883L390.324 4.86997Z" stroke="#B38339" stroke-width="1.0396" stroke-miterlimit="10"/>
<path d="M295.961 -10.9731L238.14 44.8883L295.961 100.75L353.782 44.8883L295.961 -10.9731Z" stroke="#B38339" stroke-width="1.0396" stroke-miterlimit="10"/>
<path d="M367.054 44.951L309.333 100.716V-10.9801L367.054 44.951Z" stroke="#B38339" stroke-width="1.0396" stroke-miterlimit="10"/>
<path d="M484.929 101.885L427.108 157.747L484.929 213.608L542.75 157.747L484.929 101.885Z" stroke="#B38339" stroke-width="1.0396" stroke-miterlimit="10"/>
<path d="M413.609 157.809L471.503 213.574V101.878L413.609 157.809Z" stroke="#B38339" stroke-width="1.0396" stroke-miterlimit="10"/>
<path d="M390.444 101.885L332.623 157.746L390.444 213.607L448.266 157.746L390.444 101.885Z" stroke="#B38339" stroke-width="1.0396" stroke-miterlimit="10"/>
<path d="M461.539 157.809L403.818 213.574V101.878L461.539 157.809Z" stroke="#B38339" stroke-width="1.0396" stroke-miterlimit="10"/>
<path d="M319.125 157.809L377.018 213.574V101.878L319.125 157.809Z" stroke="#B38339" stroke-width="1.0396" stroke-miterlimit="10"/>
<path d="M390.323 117.727L348.901 157.745L390.323 197.764L431.746 157.745L390.323 117.727Z" stroke="#B38339" stroke-width="1.0396" stroke-miterlimit="10"/>
<path d="M295.96 101.884L238.139 157.745L295.96 213.607L353.781 157.745L295.96 101.884Z" stroke="#B38339" stroke-width="1.0396" stroke-miterlimit="10"/>
<path d="M367.054 157.809L309.332 213.574V101.878L367.054 157.809Z" stroke="#B38339" stroke-width="1.0396" stroke-miterlimit="10"/>
<path d="M484.93 -10.9723L427.108 44.889L484.93 100.75L542.751 44.889L484.93 -10.9723Z" stroke="#B38339" stroke-width="1.0396" stroke-miterlimit="10"/>
<path d="M413.609 44.9511L471.503 100.716V-10.98L413.609 44.9511Z" stroke="#B38339" stroke-width="1.0396" stroke-miterlimit="10"/>
<path d="M390.445 -10.973L332.624 44.8883L390.445 100.75L448.267 44.8883L390.445 -10.973Z" stroke="#B38339" stroke-width="1.0396" stroke-miterlimit="10"/>
<path d="M461.539 44.951L403.818 100.716V-10.9801L461.539 44.951Z" stroke="#B38339" stroke-width="1.0396" stroke-miterlimit="10"/>
<path d="M319.125 44.951L377.018 100.716V-10.9801L319.125 44.951Z" stroke="#B38339" stroke-width="1.0396" stroke-miterlimit="10"/>
<path d="M390.324 4.87002L348.901 44.8883L390.324 84.9065L431.746 44.8883L390.324 4.87002Z" stroke="#B38339" stroke-width="1.0396" stroke-miterlimit="10"/>
<path d="M295.961 -10.9737L238.14 44.8876L295.961 100.749L353.782 44.8876L295.961 -10.9737Z" stroke="#B38339" stroke-width="1.0396" stroke-miterlimit="10"/>
<path d="M367.054 44.951L309.333 100.716V-10.9801L367.054 44.951Z" stroke="#B38339" stroke-width="1.0396" stroke-miterlimit="10"/>
<path d="M484.928 214.743L427.106 270.604L484.928 326.465L542.749 270.604L484.928 214.743Z" stroke="#B38339" stroke-width="1.0396" stroke-miterlimit="10"/>
<path d="M413.609 270.667L471.503 326.432V214.736L413.609 270.667Z" stroke="#B38339" stroke-width="1.0396" stroke-miterlimit="10"/>
<path d="M390.444 214.742L332.622 270.603L390.444 326.465L448.265 270.603L390.444 214.742Z" stroke="#B38339" stroke-width="1.0396" stroke-miterlimit="10"/>
<path d="M461.539 270.667L403.817 326.432V214.736L461.539 270.667Z" stroke="#B38339" stroke-width="1.0396" stroke-miterlimit="10"/>
<path d="M319.125 270.667L377.018 326.432V214.736L319.125 270.667Z" stroke="#B38339" stroke-width="1.0396" stroke-miterlimit="10"/>
<path d="M390.322 230.584L348.9 270.603L390.322 310.621L431.745 270.603L390.322 230.584Z" stroke="#B38339" stroke-width="1.0396" stroke-miterlimit="10"/>
<path d="M295.959 214.742L238.138 270.603L295.959 326.464L353.781 270.603L295.959 214.742Z" stroke="#B38339" stroke-width="1.0396" stroke-miterlimit="10"/>
<path d="M367.054 270.667L309.332 326.432V214.736L367.054 270.667Z" stroke="#B38339" stroke-width="1.0396" stroke-miterlimit="10"/>
<path d="M484.929 101.885L427.108 157.746L484.929 213.607L542.751 157.746L484.929 101.885Z" stroke="#B38339" stroke-width="1.0396" stroke-miterlimit="10"/>
<path d="M413.609 157.809L471.503 213.574V101.878L413.609 157.809Z" stroke="#B38339" stroke-width="1.0396" stroke-miterlimit="10"/>
<path d="M390.444 101.884L332.623 157.746L390.444 213.607L448.266 157.746L390.444 101.884Z" stroke="#B38339" stroke-width="1.0396" stroke-miterlimit="10"/>
<path d="M461.539 157.809L403.817 213.574V101.878L461.539 157.809Z" stroke="#B38339" stroke-width="1.0396" stroke-miterlimit="10"/>
<path d="M319.125 157.809L377.018 213.574V101.878L319.125 157.809Z" stroke="#B38339" stroke-width="1.0396" stroke-miterlimit="10"/>
<path d="M390.323 117.727L348.901 157.745L390.323 197.764L431.746 157.745L390.323 117.727Z" stroke="#B38339" stroke-width="1.0396" stroke-miterlimit="10"/>
<path d="M295.96 101.884L238.138 157.745L295.96 213.606L353.781 157.745L295.96 101.884Z" stroke="#B38339" stroke-width="1.0396" stroke-miterlimit="10"/>
<path d="M367.054 157.809L309.332 213.574V101.878L367.054 157.809Z" stroke="#B38339" stroke-width="1.0396" stroke-miterlimit="10"/>
<path d="M484.927 327.6L427.106 383.461L484.927 439.323L542.749 383.461L484.927 327.6Z" stroke="#B38339" stroke-width="1.0396" stroke-miterlimit="10"/>
<path d="M413.609 383.525L471.503 439.29V327.594L413.609 383.525Z" stroke="#B38339" stroke-width="1.0396" stroke-miterlimit="10"/>
<path d="M390.442 327.599L332.621 383.461L390.442 439.322L448.264 383.461L390.442 327.599Z" stroke="#B38339" stroke-width="1.0396" stroke-miterlimit="10"/>
<path d="M461.539 383.525L403.817 439.29V327.594L461.539 383.525Z" stroke="#B38339" stroke-width="1.0396" stroke-miterlimit="10"/>
<path d="M319.124 383.525L377.018 439.29V327.594L319.124 383.525Z" stroke="#B38339" stroke-width="1.0396" stroke-miterlimit="10"/>
<path d="M390.321 343.442L348.899 383.46L390.321 423.478L431.743 383.46L390.321 343.442Z" stroke="#B38339" stroke-width="1.0396" stroke-miterlimit="10"/>
<path d="M295.958 327.599L238.137 383.46L295.958 439.321L353.78 383.46L295.958 327.599Z" stroke="#B38339" stroke-width="1.0396" stroke-miterlimit="10"/>
<path d="M367.053 383.525L309.332 439.29V327.594L367.053 383.525Z" stroke="#B38339" stroke-width="1.0396" stroke-miterlimit="10"/>
<path d="M484.928 214.742L427.106 270.603L484.928 326.465L542.749 270.603L484.928 214.742Z" stroke="#B38339" stroke-width="1.0396" stroke-miterlimit="10"/>
<path d="M413.609 270.667L471.503 326.432V214.736L413.609 270.667Z" stroke="#B38339" stroke-width="1.0396" stroke-miterlimit="10"/>
<path d="M390.444 214.741L332.622 270.603L390.444 326.464L448.265 270.603L390.444 214.741Z" stroke="#B38339" stroke-width="1.0396" stroke-miterlimit="10"/>
<path d="M461.539 270.667L403.817 326.432V214.736L461.539 270.667Z" stroke="#B38339" stroke-width="1.0396" stroke-miterlimit="10"/>
<path d="M319.124 270.667L377.018 326.432V214.736L319.124 270.667Z" stroke="#B38339" stroke-width="1.0396" stroke-miterlimit="10"/>
<path d="M390.322 230.584L348.899 270.603L390.322 310.621L431.745 270.603L390.322 230.584Z" stroke="#B38339" stroke-width="1.0396" stroke-miterlimit="10"/>
<path d="M295.959 214.741L238.138 270.602L295.959 326.463L353.781 270.602L295.959 214.741Z" stroke="#B38339" stroke-width="1.0396" stroke-miterlimit="10"/>
<path d="M367.054 270.667L309.332 326.432V214.736L367.054 270.667Z" stroke="#B38339" stroke-width="1.0396" stroke-miterlimit="10"/>
<path d="M484.926 440.457L427.105 496.319L484.926 552.18L542.748 496.319L484.926 440.457Z" stroke="#B38339" stroke-width="1.0396" stroke-miterlimit="10"/>
<path d="M413.609 496.383L471.503 552.148V440.452L413.609 496.383Z" stroke="#B38339" stroke-width="1.0396" stroke-miterlimit="10"/>
<path d="M390.442 440.457L332.621 496.318L390.442 552.179L448.263 496.318L390.442 440.457Z" stroke="#B38339" stroke-width="1.0396" stroke-miterlimit="10"/>
<path d="M461.539 496.383L403.817 552.148V440.452L461.539 496.383Z" stroke="#B38339" stroke-width="1.0396" stroke-miterlimit="10"/>
<path d="M319.125 496.383L377.018 552.148V440.452L319.125 496.383Z" stroke="#B38339" stroke-width="1.0396" stroke-miterlimit="10"/>
<path d="M390.321 456.299L348.898 496.317L390.321 536.336L431.743 496.317L390.321 456.299Z" stroke="#B38339" stroke-width="1.0396" stroke-miterlimit="10"/>
<path d="M295.958 440.456L238.136 496.317L295.958 552.179L353.779 496.317L295.958 440.456Z" stroke="#B38339" stroke-width="1.0396" stroke-miterlimit="10"/>
<path d="M367.054 496.383L309.332 552.148V440.452L367.054 496.383Z" stroke="#B38339" stroke-width="1.0396" stroke-miterlimit="10"/>
<path d="M484.928 327.599L427.106 383.461L484.928 439.322L542.749 383.461L484.928 327.599Z" stroke="#B38339" stroke-width="1.0396" stroke-miterlimit="10"/>
<path d="M413.609 383.525L471.503 439.29V327.594L413.609 383.525Z" stroke="#B38339" stroke-width="1.0396" stroke-miterlimit="10"/>
<path d="M390.443 327.599L332.622 383.46L390.443 439.321L448.264 383.46L390.443 327.599Z" stroke="#B38339" stroke-width="1.0396" stroke-miterlimit="10"/>
<path d="M461.539 383.525L403.817 439.29V327.594L461.539 383.525Z" stroke="#B38339" stroke-width="1.0396" stroke-miterlimit="10"/>
<path d="M319.125 383.525L377.018 439.29V327.594L319.125 383.525Z" stroke="#B38339" stroke-width="1.0396" stroke-miterlimit="10"/>
<path d="M390.321 343.442L348.899 383.46L390.321 423.478L431.744 383.46L390.321 343.442Z" stroke="#B38339" stroke-width="1.0396" stroke-miterlimit="10"/>
<path d="M295.959 327.598L238.137 383.459L295.959 439.321L353.78 383.459L295.959 327.598Z" stroke="#B38339" stroke-width="1.0396" stroke-miterlimit="10"/>
<path d="M367.054 383.525L309.332 439.29V327.594L367.054 383.525Z" stroke="#B38339" stroke-width="1.0396" stroke-miterlimit="10"/>
<path d="M390.445 -10.9725L332.624 44.8888L390.445 100.75L448.266 44.8888L390.445 -10.9725Z" stroke="#B38339" stroke-width="1.0396" stroke-miterlimit="10"/>
<path d="M319.125 44.951L377.018 100.716V-10.9801L319.125 44.951Z" stroke="#B38339" stroke-width="1.0396" stroke-miterlimit="10"/>
<path d="M295.961 -10.9731L238.14 44.8883L295.961 100.75L353.782 44.8883L295.961 -10.9731Z" stroke="#B38339" stroke-width="1.0396" stroke-miterlimit="10"/>
<path d="M367.054 44.951L309.332 100.716V-10.9801L367.054 44.951Z" stroke="#B38339" stroke-width="1.0396" stroke-miterlimit="10"/>
<path d="M224.639 44.951L282.533 100.716V-10.9801L224.639 44.951Z" stroke="#B38339" stroke-width="1.0396" stroke-miterlimit="10"/>
<path d="M295.84 4.86929L254.417 44.8876L295.84 84.9058L337.262 44.8875L295.84 4.86929Z" stroke="#B38339" stroke-width="1.0396" stroke-miterlimit="10"/>
<path d="M201.476 -10.9738L143.655 44.8876L201.476 100.749L259.298 44.8876L201.476 -10.9738Z" stroke="#B38339" stroke-width="1.0396" stroke-miterlimit="10"/>
<path d="M272.569 44.951L214.847 100.716V-10.9801L272.569 44.951Z" stroke="#B38339" stroke-width="1.0396" stroke-miterlimit="10"/>
<path d="M390.444 101.885L332.623 157.746L390.444 213.607L448.266 157.746L390.444 101.885Z" stroke="#B38339" stroke-width="1.0396" stroke-miterlimit="10"/>
<path d="M319.124 157.809L377.018 213.574V101.878L319.124 157.809Z" stroke="#B38339" stroke-width="1.0396" stroke-miterlimit="10"/>
<path d="M295.959 101.884L238.138 157.745L295.959 213.607L353.781 157.745L295.959 101.884Z" stroke="#B38339" stroke-width="1.0396" stroke-miterlimit="10"/>
<path d="M367.053 157.809L309.332 213.574V101.878L367.053 157.809Z" stroke="#B38339" stroke-width="1.0396" stroke-miterlimit="10"/>
<path d="M224.639 157.809L282.532 213.574V101.878L224.639 157.809Z" stroke="#B38339" stroke-width="1.0396" stroke-miterlimit="10"/>
<path d="M295.838 117.727L254.416 157.745L295.838 197.763L337.26 157.745L295.838 117.727Z" stroke="#B38339" stroke-width="1.0396" stroke-miterlimit="10"/>
<path d="M201.475 101.883L143.653 157.745L201.475 213.606L259.296 157.745L201.475 101.883Z" stroke="#B38339" stroke-width="1.0396" stroke-miterlimit="10"/>
<path d="M272.568 157.809L214.847 213.574V101.878L272.568 157.809Z" stroke="#B38339" stroke-width="1.0396" stroke-miterlimit="10"/>
<path d="M390.445 -10.973L332.623 44.8883L390.445 100.75L448.266 44.8883L390.445 -10.973Z" stroke="#B38339" stroke-width="1.0396" stroke-miterlimit="10"/>
<path d="M319.124 44.951L377.017 100.716V-10.9801L319.124 44.951Z" stroke="#B38339" stroke-width="1.0396" stroke-miterlimit="10"/>
<path d="M295.96 -10.9737L238.139 44.8877L295.96 100.749L353.782 44.8877L295.96 -10.9737Z" stroke="#B38339" stroke-width="1.0396" stroke-miterlimit="10"/>
<path d="M367.053 44.951L309.332 100.716V-10.9801L367.053 44.951Z" stroke="#B38339" stroke-width="1.0396" stroke-miterlimit="10"/>
<path d="M224.639 44.951L282.532 100.716V-10.9801L224.639 44.951Z" stroke="#B38339" stroke-width="1.0396" stroke-miterlimit="10"/>
<path d="M295.839 4.86929L254.417 44.8876L295.839 84.9058L337.261 44.8875L295.839 4.86929Z" stroke="#B38339" stroke-width="1.0396" stroke-miterlimit="10"/>
<path d="M201.476 -10.9743L143.655 44.8871L201.476 100.748L259.297 44.8871L201.476 -10.9743Z" stroke="#B38339" stroke-width="1.0396" stroke-miterlimit="10"/>
<path d="M272.568 44.951L214.847 100.716V-10.9801L272.568 44.951Z" stroke="#B38339" stroke-width="1.0396" stroke-miterlimit="10"/>
<path d="M390.444 214.742L332.623 270.603L390.444 326.465L448.265 270.603L390.444 214.742Z" stroke="#B38339" stroke-width="1.0396" stroke-miterlimit="10"/>
<path d="M319.125 270.667L377.018 326.432V214.736L319.125 270.667Z" stroke="#B38339" stroke-width="1.0396" stroke-miterlimit="10"/>
<path d="M295.959 214.741L238.138 270.603L295.959 326.464L353.781 270.603L295.959 214.741Z" stroke="#B38339" stroke-width="1.0396" stroke-miterlimit="10"/>
<path d="M367.054 270.667L309.332 326.432V214.736L367.054 270.667Z" stroke="#B38339" stroke-width="1.0396" stroke-miterlimit="10"/>
<path d="M224.639 270.667L282.533 326.432V214.736L224.639 270.667Z" stroke="#B38339" stroke-width="1.0396" stroke-miterlimit="10"/>
<path d="M295.838 230.584L254.415 270.602L295.838 310.62L337.26 270.602L295.838 230.584Z" stroke="#B38339" stroke-width="1.0396" stroke-miterlimit="10"/>
<path d="M201.474 214.741L143.653 270.602L201.474 326.464L259.296 270.602L201.474 214.741Z" stroke="#B38339" stroke-width="1.0396" stroke-miterlimit="10"/>
<path d="M272.569 270.667L214.847 326.432V214.736L272.569 270.667Z" stroke="#B38339" stroke-width="1.0396" stroke-miterlimit="10"/>
<path d="M390.444 101.884L332.623 157.745L390.444 213.607L448.266 157.745L390.444 101.884Z" stroke="#B38339" stroke-width="1.0396" stroke-miterlimit="10"/>
<path d="M319.125 157.809L377.018 213.574V101.878L319.125 157.809Z" stroke="#B38339" stroke-width="1.0396" stroke-miterlimit="10"/>
<path d="M295.96 101.884L238.139 157.745L295.96 213.606L353.781 157.745L295.96 101.884Z" stroke="#B38339" stroke-width="1.0396" stroke-miterlimit="10"/>
<path d="M367.054 157.809L309.332 213.574V101.878L367.054 157.809Z" stroke="#B38339" stroke-width="1.0396" stroke-miterlimit="10"/>
<path d="M224.639 157.809L282.533 213.574V101.878L224.639 157.809Z" stroke="#B38339" stroke-width="1.0396" stroke-miterlimit="10"/>
<path d="M295.838 117.726L254.416 157.745L295.838 197.763L337.261 157.745L295.838 117.726Z" stroke="#B38339" stroke-width="1.0396" stroke-miterlimit="10"/>
<path d="M201.475 101.883L143.654 157.744L201.475 213.606L259.297 157.744L201.475 101.883Z" stroke="#B38339" stroke-width="1.0396" stroke-miterlimit="10"/>
<path d="M272.568 157.809L214.847 213.574V101.878L272.568 157.809Z" stroke="#B38339" stroke-width="1.0396" stroke-miterlimit="10"/>
<path d="M390.443 327.599L332.621 383.461L390.443 439.322L448.264 383.461L390.443 327.599Z" stroke="#B38339" stroke-width="1.0396" stroke-miterlimit="10"/>
<path d="M319.125 383.525L377.018 439.29V327.594L319.125 383.525Z" stroke="#B38339" stroke-width="1.0396" stroke-miterlimit="10"/>
<path d="M295.958 327.599L238.137 383.46L295.958 439.321L353.78 383.46L295.958 327.599Z" stroke="#B38339" stroke-width="1.0396" stroke-miterlimit="10"/>
<path d="M367.054 383.525L309.332 439.29V327.594L367.054 383.525Z" stroke="#B38339" stroke-width="1.0396" stroke-miterlimit="10"/>
<path d="M224.639 383.525L282.533 439.29V327.594L224.639 383.525Z" stroke="#B38339" stroke-width="1.0396" stroke-miterlimit="10"/>
<path d="M295.837 343.441L254.414 383.459L295.837 423.477L337.259 383.459L295.837 343.441Z" stroke="#B38339" stroke-width="1.0396" stroke-miterlimit="10"/>
<path d="M201.474 327.598L143.652 383.459L201.473 439.321L259.295 383.459L201.474 327.598Z" stroke="#B38339" stroke-width="1.0396" stroke-miterlimit="10"/>
<path d="M272.569 383.525L214.847 439.29V327.594L272.569 383.525Z" stroke="#B38339" stroke-width="1.0396" stroke-miterlimit="10"/>
<path d="M390.444 214.741L332.622 270.603L390.444 326.464L448.265 270.603L390.444 214.741Z" stroke="#B38339" stroke-width="1.0396" stroke-miterlimit="10"/>
<path d="M319.125 270.667L377.018 326.432V214.736L319.125 270.667Z" stroke="#B38339" stroke-width="1.0396" stroke-miterlimit="10"/>
<path d="M295.959 214.741L238.138 270.602L295.959 326.463L353.781 270.602L295.959 214.741Z" stroke="#B38339" stroke-width="1.0396" stroke-miterlimit="10"/>
<path d="M367.054 270.667L309.332 326.432V214.736L367.054 270.667Z" stroke="#B38339" stroke-width="1.0396" stroke-miterlimit="10"/>
<path d="M224.639 270.667L282.533 326.432V214.736L224.639 270.667Z" stroke="#B38339" stroke-width="1.0396" stroke-miterlimit="10"/>
<path d="M295.838 230.584L254.415 270.602L295.838 310.62L337.26 270.602L295.838 230.584Z" stroke="#B38339" stroke-width="1.0396" stroke-miterlimit="10"/>
<path d="M201.474 214.74L143.653 270.602L201.474 326.463L259.296 270.602L201.474 214.74Z" stroke="#B38339" stroke-width="1.0396" stroke-miterlimit="10"/>
<path d="M272.568 270.667L214.847 326.432V214.736L272.568 270.667Z" stroke="#B38339" stroke-width="1.0396" stroke-miterlimit="10"/>
<path d="M390.442 440.457L332.621 496.318L390.442 552.179L448.264 496.318L390.442 440.457Z" stroke="#B38339" stroke-width="1.0396" stroke-miterlimit="10"/>
<path d="M319.125 496.383L377.018 552.148V440.452L319.125 496.383Z" stroke="#B38339" stroke-width="1.0396" stroke-miterlimit="10"/>
<path d="M295.958 440.456L238.136 496.317L295.958 552.179L353.779 496.317L295.958 440.456Z" stroke="#B38339" stroke-width="1.0396" stroke-miterlimit="10"/>
<path d="M367.054 496.383L309.332 552.148V440.452L367.054 496.383Z" stroke="#B38339" stroke-width="1.0396" stroke-miterlimit="10"/>
<path d="M224.639 496.383L282.533 552.148V440.452L224.639 496.383Z" stroke="#B38339" stroke-width="1.0396" stroke-miterlimit="10"/>
<path d="M295.836 456.298L254.414 496.317L295.836 536.335L337.259 496.317L295.836 456.298Z" stroke="#B38339" stroke-width="1.0396" stroke-miterlimit="10"/>
<path d="M201.473 440.455L143.652 496.317L201.473 552.178L259.294 496.317L201.473 440.455Z" stroke="#B38339" stroke-width="1.0396" stroke-miterlimit="10"/>
<path d="M272.569 496.383L214.847 552.148V440.452L272.569 496.383Z" stroke="#B38339" stroke-width="1.0396" stroke-miterlimit="10"/>
<path d="M390.443 327.599L332.622 383.46L390.443 439.321L448.264 383.46L390.443 327.599Z" stroke="#B38339" stroke-width="1.0396" stroke-miterlimit="10"/>
<path d="M319.125 383.525L377.018 439.29V327.594L319.125 383.525Z" stroke="#B38339" stroke-width="1.0396" stroke-miterlimit="10"/>
<path d="M295.958 327.598L238.137 383.459L295.958 439.321L353.78 383.459L295.958 327.598Z" stroke="#B38339" stroke-width="1.0396" stroke-miterlimit="10"/>
<path d="M367.054 383.525L309.332 439.29V327.594L367.054 383.525Z" stroke="#B38339" stroke-width="1.0396" stroke-miterlimit="10"/>
<path d="M224.639 383.525L282.533 439.29V327.594L224.639 383.525Z" stroke="#B38339" stroke-width="1.0396" stroke-miterlimit="10"/>
<path d="M295.837 343.441L254.415 383.459L295.837 423.478L337.259 383.459L295.837 343.441Z" stroke="#B38339" stroke-width="1.0396" stroke-miterlimit="10"/>
<path d="M201.474 327.598L143.653 383.459L201.474 439.32L259.296 383.459L201.474 327.598Z" stroke="#B38339" stroke-width="1.0396" stroke-miterlimit="10"/>
<path d="M272.569 383.525L214.847 439.29V327.594L272.569 383.525Z" stroke="#B38339" stroke-width="1.0396" stroke-miterlimit="10"/>
<path d="M295.961 -10.9731L238.139 44.8883L295.961 100.75L353.782 44.8883L295.961 -10.9731Z" stroke="#B38339" stroke-width="1.0396" stroke-miterlimit="10"/>
<path d="M224.639 44.951L282.532 100.716V-10.9801L224.639 44.951Z" stroke="#B38339" stroke-width="1.0396" stroke-miterlimit="10"/>
<path d="M201.476 -10.9737L143.655 44.8876L201.476 100.749L259.298 44.8876L201.476 -10.9737Z" stroke="#B38339" stroke-width="1.0396" stroke-miterlimit="10"/>
<path d="M272.569 44.951L214.847 100.716V-10.9801L272.569 44.951Z" stroke="#B38339" stroke-width="1.0396" stroke-miterlimit="10"/>
<path d="M130.154 44.951L188.048 100.716V-10.9801L130.154 44.951Z" stroke="#B38339" stroke-width="1.0396" stroke-miterlimit="10"/>
<path d="M201.355 4.86892L159.933 44.8872L201.355 84.9055L242.778 44.8872L201.355 4.86892Z" stroke="#B38339" stroke-width="1.0396" stroke-miterlimit="10"/>
<path d="M106.992 -10.9742L49.1702 44.8871L106.992 100.748L164.813 44.8871L106.992 -10.9742Z" stroke="#B38339" stroke-width="1.0396" stroke-miterlimit="10"/>
<path d="M178.083 44.951L120.362 100.716V-10.9801L178.083 44.951Z" stroke="#B38339" stroke-width="1.0396" stroke-miterlimit="10"/>
<path d="M295.96 101.884L238.138 157.745L295.96 213.607L353.781 157.745L295.96 101.884Z" stroke="#B38339" stroke-width="1.0396" stroke-miterlimit="10"/>
<path d="M224.639 157.809L282.532 213.574V101.878L224.639 157.809Z" stroke="#B38339" stroke-width="1.0396" stroke-miterlimit="10"/>
<path d="M201.475 101.883L143.653 157.745L201.475 213.606L259.296 157.745L201.475 101.883Z" stroke="#B38339" stroke-width="1.0396" stroke-miterlimit="10"/>
<path d="M272.568 157.809L214.846 213.574V101.878L272.568 157.809Z" stroke="#B38339" stroke-width="1.0396" stroke-miterlimit="10"/>
<path d="M130.153 157.809L188.047 213.574V101.878L130.153 157.809Z" stroke="#B38339" stroke-width="1.0396" stroke-miterlimit="10"/>
<path d="M201.353 117.726L159.931 157.744L201.353 197.763L242.776 157.744L201.353 117.726Z" stroke="#B38339" stroke-width="1.0396" stroke-miterlimit="10"/>
<path d="M106.991 101.883L49.1694 157.744L106.991 213.605L164.812 157.744L106.991 101.883Z" stroke="#B38339" stroke-width="1.0396" stroke-miterlimit="10"/>
<path d="M178.083 157.809L120.361 213.574V101.878L178.083 157.809Z" stroke="#B38339" stroke-width="1.0396" stroke-miterlimit="10"/>
<path d="M295.961 -10.9737L238.139 44.8876L295.961 100.749L353.782 44.8876L295.961 -10.9737Z" stroke="#B38339" stroke-width="1.0396" stroke-miterlimit="10"/>
<path d="M224.639 44.951L282.532 100.716V-10.9801L224.639 44.951Z" stroke="#B38339" stroke-width="1.0396" stroke-miterlimit="10"/>
<path d="M201.476 -10.9743L143.655 44.8871L201.476 100.748L259.297 44.8871L201.476 -10.9743Z" stroke="#B38339" stroke-width="1.0396" stroke-miterlimit="10"/>
<path d="M272.568 44.951L214.847 100.716V-10.9801L272.568 44.951Z" stroke="#B38339" stroke-width="1.0396" stroke-miterlimit="10"/>
<path d="M130.154 44.951L188.047 100.716V-10.9801L130.154 44.951Z" stroke="#B38339" stroke-width="1.0396" stroke-miterlimit="10"/>
<path d="M201.355 4.86875L159.932 44.8871L201.355 84.9054L242.777 44.887L201.355 4.86875Z" stroke="#B38339" stroke-width="1.0396" stroke-miterlimit="10"/>
<path d="M106.991 -10.9748L49.1699 44.8865L106.991 100.748L164.813 44.8865L106.991 -10.9748Z" stroke="#B38339" stroke-width="1.0396" stroke-miterlimit="10"/>
<path d="M178.083 44.951L120.361 100.716V-10.9801L178.083 44.951Z" stroke="#B38339" stroke-width="1.0396" stroke-miterlimit="10"/>
<path d="M295.959 214.741L238.138 270.603L295.959 326.464L353.781 270.603L295.959 214.741Z" stroke="#B38339" stroke-width="1.0396" stroke-miterlimit="10"/>
<path d="M224.639 270.667L282.533 326.432V214.736L224.639 270.667Z" stroke="#B38339" stroke-width="1.0396" stroke-miterlimit="10"/>
<path d="M201.474 214.741L143.653 270.602L201.474 326.464L259.296 270.602L201.474 214.741Z" stroke="#B38339" stroke-width="1.0396" stroke-miterlimit="10"/>
<path d="M272.569 270.667L214.847 326.432V214.736L272.569 270.667Z" stroke="#B38339" stroke-width="1.0396" stroke-miterlimit="10"/>
<path d="M130.154 270.667L188.048 326.432V214.736L130.154 270.667Z" stroke="#B38339" stroke-width="1.0396" stroke-miterlimit="10"/>
<path d="M201.354 230.583L159.931 270.601L201.354 310.62L242.776 270.601L201.354 230.583Z" stroke="#B38339" stroke-width="1.0396" stroke-miterlimit="10"/>
<path d="M106.99 214.74L49.1689 270.601L106.99 326.463L164.812 270.601L106.99 214.74Z" stroke="#B38339" stroke-width="1.0396" stroke-miterlimit="10"/>
<path d="M178.084 270.667L120.362 326.432V214.736L178.084 270.667Z" stroke="#B38339" stroke-width="1.0396" stroke-miterlimit="10"/>
<path d="M295.96 101.884L238.138 157.745L295.96 213.606L353.781 157.745L295.96 101.884Z" stroke="#B38339" stroke-width="1.0396" stroke-miterlimit="10"/>
<path d="M224.639 157.809L282.533 213.574V101.878L224.639 157.809Z" stroke="#B38339" stroke-width="1.0396" stroke-miterlimit="10"/>
<path d="M201.475 101.883L143.654 157.744L201.475 213.606L259.297 157.744L201.475 101.883Z" stroke="#B38339" stroke-width="1.0396" stroke-miterlimit="10"/>
<path d="M272.569 157.809L214.847 213.574V101.878L272.569 157.809Z" stroke="#B38339" stroke-width="1.0396" stroke-miterlimit="10"/>
<path d="M130.154 157.809L188.048 213.574V101.878L130.154 157.809Z" stroke="#B38339" stroke-width="1.0396" stroke-miterlimit="10"/>
<path d="M201.354 117.726L159.931 157.744L201.354 197.762L242.776 157.744L201.354 117.726Z" stroke="#B38339" stroke-width="1.0396" stroke-miterlimit="10"/>
<path d="M106.991 101.882L49.1697 157.744L106.991 213.605L164.813 157.744L106.991 101.882Z" stroke="#B38339" stroke-width="1.0396" stroke-miterlimit="10"/>
<path d="M178.083 157.809L120.362 213.574V101.878L178.083 157.809Z" stroke="#B38339" stroke-width="1.0396" stroke-miterlimit="10"/>
<path d="M295.958 327.599L238.136 383.46L295.958 439.321L353.779 383.46L295.958 327.599Z" stroke="#B38339" stroke-width="1.0396" stroke-miterlimit="10"/>
<path d="M224.639 383.525L282.532 439.29V327.594L224.639 383.525Z" stroke="#B38339" stroke-width="1.0396" stroke-miterlimit="10"/>
<path d="M201.473 327.598L143.652 383.459L201.473 439.321L259.295 383.459L201.473 327.598Z" stroke="#B38339" stroke-width="1.0396" stroke-miterlimit="10"/>
<path d="M272.568 383.525L214.846 439.29V327.594L272.568 383.525Z" stroke="#B38339" stroke-width="1.0396" stroke-miterlimit="10"/>
<path d="M130.154 383.525L188.047 439.29V327.594L130.154 383.525Z" stroke="#B38339" stroke-width="1.0396" stroke-miterlimit="10"/>
<path d="M201.352 343.441L159.93 383.459L201.352 423.477L242.775 383.459L201.352 343.441Z" stroke="#B38339" stroke-width="1.0396" stroke-miterlimit="10"/>
<path d="M106.989 327.597L49.1672 383.459L106.989 439.32L164.81 383.459L106.989 327.597Z" stroke="#B38339" stroke-width="1.0396" stroke-miterlimit="10"/>
<path d="M178.083 383.525L120.361 439.29V327.594L178.083 383.525Z" stroke="#B38339" stroke-width="1.0396" stroke-miterlimit="10"/>
<path d="M295.959 214.741L238.138 270.602L295.959 326.463L353.78 270.602L295.959 214.741Z" stroke="#B38339" stroke-width="1.0396" stroke-miterlimit="10"/>
<path d="M224.639 270.667L282.532 326.432V214.736L224.639 270.667Z" stroke="#B38339" stroke-width="1.0396" stroke-miterlimit="10"/>
<path d="M201.474 214.74L143.653 270.602L201.474 326.463L259.296 270.602L201.474 214.74Z" stroke="#B38339" stroke-width="1.0396" stroke-miterlimit="10"/>
<path d="M272.568 270.667L214.846 326.432V214.736L272.568 270.667Z" stroke="#B38339" stroke-width="1.0396" stroke-miterlimit="10"/>
<path d="M130.154 270.667L188.047 326.432V214.736L130.154 270.667Z" stroke="#B38339" stroke-width="1.0396" stroke-miterlimit="10"/>
<path d="M201.353 230.583L159.931 270.601L201.353 310.62L242.776 270.601L201.353 230.583Z" stroke="#B38339" stroke-width="1.0396" stroke-miterlimit="10"/>
<path d="M106.99 214.74L49.1682 270.601L106.99 326.462L164.811 270.601L106.99 214.74Z" stroke="#B38339" stroke-width="1.0396" stroke-miterlimit="10"/>
<path d="M178.083 270.667L120.361 326.432V214.736L178.083 270.667Z" stroke="#B38339" stroke-width="1.0396" stroke-miterlimit="10"/>
<path d="M295.958 440.456L238.136 496.317L295.958 552.179L353.779 496.317L295.958 440.456Z" stroke="#B38339" stroke-width="1.0396" stroke-miterlimit="10"/>
<path d="M224.64 496.383L282.533 552.148V440.452L224.64 496.383Z" stroke="#B38339" stroke-width="1.0396" stroke-miterlimit="10"/>
<path d="M201.473 440.455L143.652 496.317L201.473 552.178L259.295 496.317L201.473 440.455Z" stroke="#B38339" stroke-width="1.0396" stroke-miterlimit="10"/>
<path d="M272.569 496.383L214.847 552.148V440.452L272.569 496.383Z" stroke="#B38339" stroke-width="1.0396" stroke-miterlimit="10"/>
<path d="M130.155 496.383L188.048 552.148V440.452L130.155 496.383Z" stroke="#B38339" stroke-width="1.0396" stroke-miterlimit="10"/>
<path d="M201.352 456.298L159.93 496.316L201.352 536.334L242.775 496.316L201.352 456.298Z" stroke="#B38339" stroke-width="1.0396" stroke-miterlimit="10"/>
<path d="M106.989 440.455L49.168 496.316L106.989 552.177L164.811 496.316L106.989 440.455Z" stroke="#B38339" stroke-width="1.0396" stroke-miterlimit="10"/>
<path d="M178.084 496.383L120.363 552.148V440.452L178.084 496.383Z" stroke="#B38339" stroke-width="1.0396" stroke-miterlimit="10"/>
<path d="M295.959 327.598L238.137 383.459L295.959 439.321L353.78 383.459L295.959 327.598Z" stroke="#B38339" stroke-width="1.0396" stroke-miterlimit="10"/>
<path d="M224.64 383.525L282.533 439.29V327.594L224.64 383.525Z" stroke="#B38339" stroke-width="1.0396" stroke-miterlimit="10"/>
<path d="M201.474 327.598L143.653 383.459L201.474 439.32L259.296 383.459L201.474 327.598Z" stroke="#B38339" stroke-width="1.0396" stroke-miterlimit="10"/>
<path d="M272.569 383.525L214.847 439.29V327.594L272.569 383.525Z" stroke="#B38339" stroke-width="1.0396" stroke-miterlimit="10"/>
<path d="M130.155 383.525L188.048 439.29V327.594L130.155 383.525Z" stroke="#B38339" stroke-width="1.0396" stroke-miterlimit="10"/>
<path d="M201.353 343.441L159.93 383.459L201.353 423.477L242.775 383.459L201.353 343.441Z" stroke="#B38339" stroke-width="1.0396" stroke-miterlimit="10"/>
<path d="M106.991 327.597L49.1692 383.458L106.991 439.319L164.812 383.458L106.991 327.597Z" stroke="#B38339" stroke-width="1.0396" stroke-miterlimit="10"/>
<path d="M178.084 383.525L120.363 439.29V327.594L178.084 383.525Z" stroke="#B38339" stroke-width="1.0396" stroke-miterlimit="10"/>
<path d="M201.476 -10.9737L143.655 44.8876L201.476 100.749L259.298 44.8876L201.476 -10.9737Z" stroke="#B38339" stroke-width="1.0396" stroke-miterlimit="10"/>
<path d="M130.155 44.951L188.048 100.716V-10.9801L130.155 44.951Z" stroke="#B38339" stroke-width="1.0396" stroke-miterlimit="10"/>
<path d="M106.992 -10.9742L49.1709 44.8871L106.992 100.748L164.814 44.8871L106.992 -10.9742Z" stroke="#B38339" stroke-width="1.0396" stroke-miterlimit="10"/>
<path d="M178.084 44.951L120.362 100.716V-10.9801L178.084 44.951Z" stroke="#B38339" stroke-width="1.0396" stroke-miterlimit="10"/>
<path d="M35.6692 44.951L93.5627 100.716V-10.9801L35.6692 44.951Z" stroke="#B38339" stroke-width="1.0396" stroke-miterlimit="10"/>
<path d="M106.871 4.86831L65.448 44.8866L106.87 84.9048L148.293 44.8866L106.871 4.86831Z" stroke="#B38339" stroke-width="1.0396" stroke-miterlimit="10"/>
<path d="M12.5077 -10.975L-45.3137 44.8864L12.5077 100.748L70.3291 44.8864L12.5077 -10.975Z" stroke="#B38339" stroke-width="1.0396" stroke-miterlimit="10"/>
<path d="M83.5992 44.951L25.8774 100.716V-10.9801L83.5992 44.951Z" stroke="#B38339" stroke-width="1.0396" stroke-miterlimit="10"/>
<path d="M201.476 101.883L143.655 157.745L201.476 213.606L259.297 157.745L201.476 101.883Z" stroke="#B38339" stroke-width="1.0396" stroke-miterlimit="10"/>
<path d="M130.155 157.809L188.048 213.574V101.878L130.155 157.809Z" stroke="#B38339" stroke-width="1.0396" stroke-miterlimit="10"/>
<path d="M106.991 101.883L49.1694 157.744L106.991 213.606L164.812 157.744L106.991 101.883Z" stroke="#B38339" stroke-width="1.0396" stroke-miterlimit="10"/>
<path d="M178.083 157.809L120.362 213.574V101.878L178.083 157.809Z" stroke="#B38339" stroke-width="1.0396" stroke-miterlimit="10"/>
<path d="M35.6689 157.809L93.5625 213.574V101.878L35.6689 157.809Z" stroke="#B38339" stroke-width="1.0396" stroke-miterlimit="10"/>
<path d="M106.869 117.725L65.4468 157.744L106.869 197.762L148.292 157.744L106.869 117.725Z" stroke="#B38339" stroke-width="1.0396" stroke-miterlimit="10"/>
<path d="M12.5064 101.882L-45.3149 157.743L12.5064 213.605L70.3278 157.743L12.5064 101.882Z" stroke="#B38339" stroke-width="1.0396" stroke-miterlimit="10"/>
<path d="M83.599 157.809L25.8772 213.574V101.878L83.599 157.809Z" stroke="#B38339" stroke-width="1.0396" stroke-miterlimit="10"/>
<path d="M201.477 -10.9742L143.655 44.8871L201.477 100.748L259.298 44.8871L201.477 -10.9742Z" stroke="#B38339" stroke-width="1.0396" stroke-miterlimit="10"/>
<path d="M130.155 44.951L188.048 100.716V-10.9801L130.155 44.951Z" stroke="#B38339" stroke-width="1.0396" stroke-miterlimit="10"/>
<path d="M106.992 -10.9748L49.1707 44.8865L106.992 100.748L164.813 44.8865L106.992 -10.9748Z" stroke="#B38339" stroke-width="1.0396" stroke-miterlimit="10"/>
<path d="M178.083 44.951L120.362 100.716V-10.9801L178.083 44.951Z" stroke="#B38339" stroke-width="1.0396" stroke-miterlimit="10"/>
<path d="M35.6689 44.951L93.5625 100.716V-10.9801L35.6689 44.951Z" stroke="#B38339" stroke-width="1.0396" stroke-miterlimit="10"/>
<path d="M106.87 4.86831L65.448 44.8866L106.87 84.9048L148.293 44.8866L106.87 4.86831Z" stroke="#B38339" stroke-width="1.0396" stroke-miterlimit="10"/>
<path d="M12.5077 -10.9756L-45.3137 44.8857L12.5077 100.747L70.3291 44.8857L12.5077 -10.9756Z" stroke="#B38339" stroke-width="1.0396" stroke-miterlimit="10"/>
<path d="M83.5994 44.951L25.8774 100.716V-10.9801L83.5994 44.951Z" stroke="#B38339" stroke-width="1.0396" stroke-miterlimit="10"/>
<path d="M201.475 214.741L143.653 270.602L201.475 326.464L259.296 270.602L201.475 214.741Z" stroke="#B38339" stroke-width="1.0396" stroke-miterlimit="10"/>
<path d="M130.155 270.667L188.048 326.432V214.736L130.155 270.667Z" stroke="#B38339" stroke-width="1.0396" stroke-miterlimit="10"/>
<path d="M106.99 214.74L49.1687 270.601L106.99 326.463L164.812 270.601L106.99 214.74Z" stroke="#B38339" stroke-width="1.0396" stroke-miterlimit="10"/>
<path d="M178.084 270.667L120.362 326.432V214.736L178.084 270.667Z" stroke="#B38339" stroke-width="1.0396" stroke-miterlimit="10"/>
<path d="M35.6692 270.667L93.5627 326.432V214.736L35.6692 270.667Z" stroke="#B38339" stroke-width="1.0396" stroke-miterlimit="10"/>
<path d="M106.869 230.583L65.4463 270.601L106.869 310.619L148.291 270.601L106.869 230.583Z" stroke="#B38339" stroke-width="1.0396" stroke-miterlimit="10"/>
<path d="M12.5056 214.739L-45.3157 270.601L12.5056 326.462L70.3269 270.601L12.5056 214.739Z" stroke="#B38339" stroke-width="1.0396" stroke-miterlimit="10"/>
<path d="M83.5988 270.667L25.877 326.432V214.736L83.5988 270.667Z" stroke="#B38339" stroke-width="1.0396" stroke-miterlimit="10"/>
<path d="M201.476 101.883L143.655 157.744L201.476 213.606L259.298 157.744L201.476 101.883Z" stroke="#B38339" stroke-width="1.0396" stroke-miterlimit="10"/>
<path d="M130.155 157.809L188.048 213.574V101.878L130.155 157.809Z" stroke="#B38339" stroke-width="1.0396" stroke-miterlimit="10"/>
<path d="M106.991 101.882L49.1699 157.744L106.991 213.605L164.813 157.744L106.991 101.882Z" stroke="#B38339" stroke-width="1.0396" stroke-miterlimit="10"/>
<path d="M178.084 157.809L120.362 213.574V101.878L178.084 157.809Z" stroke="#B38339" stroke-width="1.0396" stroke-miterlimit="10"/>
<path d="M35.6692 157.809L93.5627 213.574V101.878L35.6692 157.809Z" stroke="#B38339" stroke-width="1.0396" stroke-miterlimit="10"/>
<path d="M106.87 117.725L65.447 157.744L106.869 197.762L148.292 157.744L106.87 117.725Z" stroke="#B38339" stroke-width="1.0396" stroke-miterlimit="10"/>
<path d="M12.5064 101.882L-45.3149 157.743L12.5064 213.604L70.3278 157.743L12.5064 101.882Z" stroke="#B38339" stroke-width="1.0396" stroke-miterlimit="10"/>
<path d="M83.5983 157.809L25.8765 213.574V101.878L83.5983 157.809Z" stroke="#B38339" stroke-width="1.0396" stroke-miterlimit="10"/>
<path d="M201.474 327.598L143.653 383.459L201.474 439.321L259.295 383.459L201.474 327.598Z" stroke="#B38339" stroke-width="1.0396" stroke-miterlimit="10"/>
<path d="M130.155 383.525L188.048 439.29V327.594L130.155 383.525Z" stroke="#B38339" stroke-width="1.0396" stroke-miterlimit="10"/>
<path d="M106.989 327.597L49.168 383.459L106.989 439.32L164.811 383.459L106.989 327.597Z" stroke="#B38339" stroke-width="1.0396" stroke-miterlimit="10"/>
<path d="M178.084 383.525L120.362 439.29V327.594L178.084 383.525Z" stroke="#B38339" stroke-width="1.0396" stroke-miterlimit="10"/>
<path d="M35.6694 383.525L93.563 439.29V327.594L35.6694 383.525Z" stroke="#B38339" stroke-width="1.0396" stroke-miterlimit="10"/>
<path d="M106.868 343.44L65.4458 383.458L106.868 423.476L148.291 383.458L106.868 343.44Z" stroke="#B38339" stroke-width="1.0396" stroke-miterlimit="10"/>
<path d="M12.5053 327.597L-45.3162 383.458L12.5052 439.319L70.3267 383.458L12.5053 327.597Z" stroke="#B38339" stroke-width="1.0396" stroke-miterlimit="10"/>
<path d="M83.5991 383.525L25.8774 439.29V327.594L83.5991 383.525Z" stroke="#B38339" stroke-width="1.0396" stroke-miterlimit="10"/>
<path d="M201.475 214.74L143.654 270.602L201.475 326.463L259.297 270.602L201.475 214.74Z" stroke="#B38339" stroke-width="1.0396" stroke-miterlimit="10"/>
<path d="M130.155 270.667L188.048 326.432V214.736L130.155 270.667Z" stroke="#B38339" stroke-width="1.0396" stroke-miterlimit="10"/>
<path d="M106.991 214.74L49.1694 270.601L106.991 326.462L164.812 270.601L106.991 214.74Z" stroke="#B38339" stroke-width="1.0396" stroke-miterlimit="10"/>
<path d="M178.084 270.667L120.362 326.432V214.736L178.084 270.667Z" stroke="#B38339" stroke-width="1.0396" stroke-miterlimit="10"/>
<path d="M35.6694 270.667L93.563 326.432V214.736L35.6694 270.667Z" stroke="#B38339" stroke-width="1.0396" stroke-miterlimit="10"/>
<path d="M106.869 230.583L65.4468 270.601L106.869 310.619L148.292 270.601L106.869 230.583Z" stroke="#B38339" stroke-width="1.0396" stroke-miterlimit="10"/>
<path d="M12.506 214.739L-45.3154 270.6L12.506 326.462L70.3274 270.6L12.506 214.739Z" stroke="#B38339" stroke-width="1.0396" stroke-miterlimit="10"/>
<path d="M83.5988 270.667L25.877 326.432V214.736L83.5988 270.667Z" stroke="#B38339" stroke-width="1.0396" stroke-miterlimit="10"/>
<path d="M201.473 440.455L143.652 496.317L201.473 552.178L259.295 496.317L201.473 440.455Z" stroke="#B38339" stroke-width="1.0396" stroke-miterlimit="10"/>
<path d="M130.155 496.383L188.048 552.148V440.452L130.155 496.383Z" stroke="#B38339" stroke-width="1.0396" stroke-miterlimit="10"/>
<path d="M106.989 440.455L49.1672 496.316L106.989 552.177L164.81 496.316L106.989 440.455Z" stroke="#B38339" stroke-width="1.0396" stroke-miterlimit="10"/>
<path d="M178.084 496.383L120.362 552.148V440.452L178.084 496.383Z" stroke="#B38339" stroke-width="1.0396" stroke-miterlimit="10"/>
<path d="M35.6692 496.383L93.5627 552.148V440.452L35.6692 496.383Z" stroke="#B38339" stroke-width="1.0396" stroke-miterlimit="10"/>
<path d="M106.867 456.297L65.4448 496.315L106.867 536.334L148.29 496.315L106.867 456.297Z" stroke="#B38339" stroke-width="1.0396" stroke-miterlimit="10"/>
<path d="M12.5042 440.454L-45.3171 496.315L12.5042 552.176L70.3256 496.315L12.5042 440.454Z" stroke="#B38339" stroke-width="1.0396" stroke-miterlimit="10"/>
<path d="M83.5988 496.383L25.877 552.148V440.452L83.5988 496.383Z" stroke="#B38339" stroke-width="1.0396" stroke-miterlimit="10"/>
<path d="M201.475 327.597L143.653 383.459L201.475 439.32L259.296 383.459L201.475 327.597Z" stroke="#B38339" stroke-width="1.0396" stroke-miterlimit="10"/>
<path d="M130.155 383.525L188.048 439.29V327.594L130.155 383.525Z" stroke="#B38339" stroke-width="1.0396" stroke-miterlimit="10"/>
<path d="M106.989 327.597L49.168 383.458L106.989 439.319L164.811 383.458L106.989 327.597Z" stroke="#B38339" stroke-width="1.0396" stroke-miterlimit="10"/>
<path d="M178.084 383.525L120.362 439.29V327.594L178.084 383.525Z" stroke="#B38339" stroke-width="1.0396" stroke-miterlimit="10"/>
<path d="M35.6692 383.525L93.5627 439.29V327.594L35.6692 383.525Z" stroke="#B38339" stroke-width="1.0396" stroke-miterlimit="10"/>
<path d="M106.868 343.44L65.4456 383.458L106.868 423.476L148.29 383.458L106.868 343.44Z" stroke="#B38339" stroke-width="1.0396" stroke-miterlimit="10"/>
<path d="M12.505 327.596L-45.3164 383.458L12.5049 439.319L70.3263 383.458L12.505 327.596Z" stroke="#B38339" stroke-width="1.0396" stroke-miterlimit="10"/>
<path d="M83.5984 383.525L25.8767 439.29V327.594L83.5984 383.525Z" stroke="#B38339" stroke-width="1.0396" stroke-miterlimit="10"/>
</g>
</svg>
