<svg version="1.1" id="Слой_1" xmlns="http://www.w3.org/2000/svg" x="0" y="0" width="474.379" height="165.979" xml:space="preserve"><path fill="#4E579F" d="M17.729 59.532l-7.532-4.344.007-.013-.036-.018 5.212-3.01 2.338-1.365.011.006 31.383-18.117h-.007l7.556-4.386.019.011.019-.011 7.557 4.386 31.373 18.117.014-.006 2.337 1.365 5.219 3.01-.042.018.012.013-7.54 4.344L56.68 37.046 17.729 59.532z"/><path fill="#F3A21E" d="M73.933 72.062l-9.677-5.592-7.557-4.387-.019.012-.019-.012-7.556 4.387-9.679 5.592 7.575 4.369 9.679-5.592 9.685 5.592 7.575-4.369z"/><path fill="#9A5A9E" d="M24.263 63.312l24.842-14.341v-.007l7.556-4.379.019.012.019-.012 7.557 4.379v.007l24.839 14.341-7.575 4.369-24.84-14.342-24.842 14.342-7.575-4.369z"/><path fill="#E3222A" d="M56.699 124.448l46.524-26.86v14.984l-9.38 5.415v-4.301l-9.422 5.433v4.307l-11.19 6.467v-4.692l-9.399 5.427v4.686l-7.133 4.124-7.135-4.124v-4.686l-9.446-5.458v4.687l-11.313-6.529v-4.301l-9.252-5.341v4.307l-9.38-5.414V97.588l46.526 26.86z"/><path fill="#4E579F" d="M56.699 105.493l46.524-26.86v14.978l-9.38 5.421v-4.307l-9.422 5.433v4.307l-11.19 6.461v-4.686l-9.399 5.421v4.692l-7.133 4.119-7.135-4.119v-4.692l-9.446-5.452v4.692l-11.313-6.533v-4.308l-9.252-5.335v4.307l-9.38-5.415V78.633l46.526 26.86z"/><path fill="#32763C" d="M56.699 86.508l46.524-26.861v14.984l-9.38 5.415v-4.307l-9.422 5.439v4.307l-11.19 6.462V87.26l-9.399 5.421v4.693l-7.133 4.124-7.135-4.124v-4.693l-9.446-5.452v4.694l-11.313-6.535v-4.307l-9.252-5.336v4.307l-9.38-5.421V59.654l46.526 26.86z"/><path d="M174.98 106.869a556.53 556.53 0 00-8.078-.01c-1.333.005-2.654.01-3.942.01h-.894v32.569h4.004v-10.412h8.9c6.758 0 11.663-4.641 11.663-11.035-.001-6.444-4.906-11.122-11.653-11.122zm-.01 18.32h-8.9v-14.526h8.9c4.509 0 7.659 2.996 7.659 7.285 0 4.196-3.221 7.241-7.659 7.241zm51.681-18.364l-14.863 31.265v1.348h3.81l4.21-8.875h15.749l4.21 8.875h3.766v-1.347l-14.727-31.266h-2.155zm7.321 20.033h-12.574l6.305-13.399 6.269 13.399zm43.553-19.945h-4.049v32.525h19.47v-3.793h-15.421zm49.367 0h-4.048v32.525h19.47v-3.793h-15.422zm49.324 17.632h15.023v-3.749h-15.023v-10.177h15.687v-3.706h-19.691v32.525h19.824v-3.793h-15.82zm44.211-17.632v3.793h10.193v28.732h4.003v-28.732h10.193v-3.793z" fill="#FFF"/><path fill="#E3222A" d="M174.401 88.968h-4.658c-15.497 0-28.06-12.563-28.06-28.06V56.25c0-15.497 12.563-28.06 28.06-28.06h4.658c15.497 0 28.06 12.563 28.06 28.06v4.658c0 15.497-12.563 28.06-28.06 28.06z"/><path fill="#4E579F" d="M239.349 88.968h-4.658c-15.497 0-28.06-12.563-28.06-28.06V56.25c0-15.497 12.563-28.06 28.06-28.06h4.658c15.497 0 28.06 12.563 28.06 28.06v4.658c0 15.497-12.563 28.06-28.06 28.06z"/><path fill="#32763C" d="M304.297 88.968h-4.658c-15.497 0-28.06-12.563-28.06-28.06V56.25c0-15.497 12.563-28.06 28.06-28.06h4.658c15.497 0 28.06 12.563 28.06 28.06v4.658c0 15.497-12.563 28.06-28.06 28.06z"/><path fill="#F3A21E" d="M369.244 88.968h-4.658c-15.497 0-28.06-12.563-28.06-28.06V56.25c0-15.497 12.563-28.06 28.06-28.06h4.658c15.497 0 28.06 12.563 28.06 28.06v4.658c.001 15.497-12.562 28.06-28.06 28.06z"/><path fill="#9A5A9E" d="M434.192 88.968h-4.658c-15.497 0-28.06-12.563-28.06-28.06V56.25c0-15.497 12.563-28.06 28.06-28.06h4.658c15.497 0 28.06 12.563 28.06 28.06v4.658c.001 15.497-12.562 28.06-28.06 28.06z"/><path fill="#FFF" d="M155.057 72.123l3.737-7.113c.21.176.693.453 1.448.831.755.378 1.707.756 2.856 1.134 1.15.378 2.479.721 3.988 1.029 1.509.308 3.15.461 4.923.461 1.435 0 2.582-.101 3.44-.303.858-.202 1.519-.465 1.983-.79.464-.325.766-.693.906-1.106.14-.412.21-.829.21-1.251 0-.86-.351-1.571-1.053-2.132-.702-.562-2-1-3.894-1.317l-5.501-.97a29.885 29.885 0 01-4.316-1.083c-1.439-.475-2.724-1.127-3.855-1.955-1.132-.828-2.057-1.893-2.776-3.196-.72-1.303-1.079-2.906-1.079-4.808 0-1.643.307-3.19.922-4.641.614-1.451 1.549-2.714 2.805-3.789 1.256-1.075 2.845-1.927 4.768-2.556 1.923-.629 4.184-.944 6.783-.944 1.849 0 3.472.1 4.869.301 1.396.201 2.596.445 3.599.732 1.003.288 1.819.571 2.447.85.628.279 1.082.514 1.361.706.611.349 1.191.836 1.741 1.464.55.627.825 1.368.825 2.222 0 .614-.105 1.197-.313 1.75a7.79 7.79 0 01-.77 1.526 6.917 6.917 0 01-.991 1.21c-.357.342-.657.609-.9.802-.349-.351-.886-.756-1.611-1.213-.725-.457-1.59-.866-2.594-1.227-1.004-.36-2.148-.668-3.432-.923a21.167 21.167 0 00-4.126-.383c-1.401 0-2.513.122-3.335.364-.823.243-1.44.539-1.852.89-.411.351-.678.746-.801 1.187a4.505 4.505 0 00-.184 1.2c0 .324.043.638.13.944.087.306.299.593.638.863.338.27.816.526 1.432.769s1.462.472 2.538.688l5.712 1.126c2.008.399 3.772.89 5.292 1.471 1.52.581 2.795 1.302 3.825 2.161 1.03.859 1.808 1.892 2.332 3.098s.786 2.643.786 4.309c0 3.775-1.405 6.724-4.213 8.849-2.808 2.124-6.768 3.187-11.879 3.187-2.334 0-4.48-.197-6.437-.592-1.957-.395-3.672-.855-5.147-1.382-1.474-.526-2.668-1.022-3.58-1.487-.912-.467-1.465-.788-1.657-.963zM282.24 75.57a299.285 299.285 0 012.75-7.039c1.079-2.675 2.237-5.513 3.474-8.513s2.53-6.061 3.881-9.184a884.94 884.94 0 013.974-9.052c.684-1.544 1.517-2.622 2.5-3.237.982-.614 2.28-.921 3.895-.921a7.47 7.47 0 011.816.224c.596.149 1.127.32 1.592.513.465.193.842.382 1.132.566.289.184.469.294.539.329.544.895 1.254 2.312 2.132 4.25a391.364 391.364 0 012.882 6.552 1023.72 1023.72 0 013.237 7.631 433.636 433.636 0 013.092 7.565c.947 2.386 1.78 4.504 2.5 6.355a525.036 525.036 0 011.526 3.96h-9.921a157.338 157.338 0 01-1.303-3.497 160.873 160.873 0 00-1.724-4.53H294.53a192.068 192.068 0 00-1.54 4.172 213.936 213.936 0 01-1.408 3.854h-9.342zm15.526-16.105h9.368c-.351-.965-.759-2.052-1.223-3.263-.465-1.21-.912-2.382-1.342-3.513-.43-1.132-.833-2.171-1.21-3.118a36.86 36.86 0 00-.908-2.132 132.53 132.53 0 00-.855 2.132c-.36.912-.755 1.934-1.184 3.066-.43 1.131-.877 2.289-1.342 3.473a364.652 364.652 0 00-1.304 3.355zm55.663 16.105V43.387c0-.79.109-1.469.329-2.039.219-.57.5-1.044.842-1.421a3.56 3.56 0 011.184-.868 5.222 5.222 0 011.381-.408c.351-.07.767-.14 1.25-.211.482-.07 1.092-.132 1.829-.184a73.467 73.467 0 012.697-.132c1.061-.035 2.346-.053 3.855-.053 3.228 0 5.921.347 8.079 1.042 2.158.694 3.895 1.639 5.21 2.835 1.316 1.196 2.25 2.558 2.802 4.087.553 1.53.829 3.12.829 4.773 0 2.199-.447 4.174-1.342 5.925-.895 1.751-2.368 3.18-4.421 4.289.544.856 1.14 1.857 1.79 3.002a328.21 328.21 0 012.026 3.631c.701 1.276 1.39 2.591 2.066 3.946.675 1.354 1.32 2.678 1.934 3.971H375.48c-.176-.401-.509-1.142-1-2.222a138.154 138.154 0 00-1.671-3.53 89.278 89.278 0 00-1.934-3.726c-.667-1.211-1.237-2.157-1.71-2.837-.509.07-1.022.105-1.539.105h-1.618c-.21 0-.509-.009-.895-.026l-1.171-.053a113.01 113.01 0 01-1.079-.053c-.325-.018-.54-.044-.645-.08v12.42h-8.789zm8.789-20.157c.105 0 .259.018.46.053.202.035.482.07.842.105.359.035.816.062 1.368.079.553.018 1.241.026 2.066.026 1.544 0 2.811-.131 3.802-.393.991-.262 1.767-.619 2.329-1.073.561-.454.938-.973 1.132-1.558a5.684 5.684 0 00.289-1.793 6.05 6.05 0 00-.263-1.741c-.176-.585-.544-1.13-1.105-1.636-.562-.506-1.364-.92-2.408-1.243-1.044-.323-2.425-.484-4.145-.484-1.263 0-2.263.031-3 .092-.737.061-1.193.109-1.368.144v9.422zm52.407-12.5c0-.965.145-1.855.434-2.671.29-.816.522-1.364.697-1.645h29.71c1.649 0 2.824.351 3.526 1.053.701.702 1.053 1.719 1.053 3.052 0 .965-.145 1.851-.434 2.658-.29.807-.522 1.36-.697 1.658h-12.079V75.57h-9V47.018h-8.631c-1.649 0-2.825-.351-3.526-1.053-.703-.701-1.053-1.718-1.053-3.052zM215.942 75.57l1.843-32.341c.035-.895.206-1.649.513-2.263.307-.614.701-1.092 1.184-1.434a4.579 4.579 0 011.644-.724 8.614 8.614 0 011.921-.21c1.403 0 2.592.197 3.566.592.974.395 1.618.741 1.934 1.039 1.298 2.667 2.658 5.496 4.079 8.487a243.013 243.013 0 004.342 8.697 857.085 857.085 0 003.802-7.645 285.964 285.964 0 003.408-7.171c.684-1.544 1.521-2.596 2.51-3.158.989-.561 2.115-.842 3.376-.842 1.354 0 2.535.189 3.541.567 1.007.378 1.649.673 1.927.884l2.066 35.522h-9l-1.236-22.105-2 4.105a188.154 188.154 0 00-1.96 4.145 661.599 661.599 0 00-1.776 3.908 297.251 297.251 0 00-1.474 3.316h-6.684c-.404-.965-.899-2.096-1.487-3.395a428.362 428.362 0 00-1.855-4.039 201.199 201.199 0 00-2-4.171 819.968 819.968 0 00-1.895-3.816l-1.185 22.052h-9.104zm-94.141-47.285h1.773v111.119h-1.773z"/></svg>