<svg width="60" height="62" viewBox="0 0 60 62" fill="none" xmlns="http://www.w3.org/2000/svg">
<mask id="path-1-inside-1_48_7921" fill="white">
<path fill-rule="evenodd" clip-rule="evenodd" d="M9.77793 0.25368C9.53505 0.500074 9.52884 0.613946 9.56488 4.17498L9.60189 7.8426L9.92572 8.54349C10.3589 9.4809 11.1221 10.2948 11.9586 10.7116C12.5654 11.0138 12.8103 11.0588 14.0595 11.0971L15.4737 11.1406L15.5362 12.157C15.6663 14.2728 16.8299 15.8543 18.6883 16.4409C19.2786 16.6273 19.8068 16.6732 21.361 16.6732H23.298L23.2999 24.6085L23.3017 32.5437L26.3393 36.9899C28.01 39.4353 29.5157 41.5195 29.6854 41.6213C29.9596 41.786 30.0283 41.786 30.3027 41.6213C30.4724 41.5195 31.9785 39.4353 33.6493 36.9899L36.6873 32.5437L36.6886 24.6085L36.6898 16.6732H38.5513C40.7376 16.6732 41.5651 16.5018 42.4965 15.856C43.6974 15.0232 44.3514 13.7886 44.4511 12.1662L44.5142 11.1406L45.9284 11.0971C47.1776 11.0588 47.4225 11.0138 48.0293 10.7116C48.8658 10.2948 49.629 9.4809 50.0622 8.54349L50.386 7.8426L50.423 4.17498C50.459 0.613946 50.4528 0.500074 50.21 0.25368L49.9599 0H29.9939H10.028L9.77793 0.25368ZM48.9859 4.30305C48.9859 7.24656 48.9004 7.79591 48.3221 8.56498C48.1407 8.80631 47.7119 9.14546 47.3694 9.31861L46.7467 9.63343H29.9939H13.2412L12.6185 9.31861C12.276 9.14546 11.8472 8.80631 11.6658 8.56498C11.0875 7.79591 11.0019 7.24656 11.0019 4.30305V1.60557H29.9939H48.9859V4.30305ZM42.8988 12.0028C42.8988 13.4961 42.1167 14.6066 40.7819 15.0088C39.8764 15.2815 20.1115 15.2815 19.206 15.0088C17.8712 14.6066 17.0891 13.4961 17.0891 12.0028V11.1155H29.9939H42.8988V12.0028ZM35.2289 24.3217V31.97L32.6713 35.7151C31.2647 37.7748 30.0605 39.46 29.9955 39.46C29.9306 39.46 28.7257 37.7771 27.3181 35.7203L24.759 31.9806V24.3269V16.6732H29.9939H35.2289V24.3217ZM4.51337 35.2477C3.84366 35.4987 3.1558 35.9906 2.7851 36.4838C1.50849 38.1817 1.82649 40.7491 3.46467 41.9714C3.71777 42.1602 6.17371 43.2563 8.92243 44.4073L13.92 46.4998L13.922 51.3474L13.9238 56.195H10.5056H7.08739L6.74286 56.5445C6.31456 56.979 6.20207 57.7377 6.27646 59.692C6.33538 61.2419 6.49231 61.6406 7.13232 61.867C7.3948 61.9599 14.2799 61.9997 30.016 61.9997C54.3419 61.9997 53.1452 62.0322 53.503 61.3618C53.6879 61.0154 53.7996 58.5994 53.6767 57.6023C53.61 57.0606 53.5085 56.8118 53.245 56.5445L52.9005 56.195H49.4823H46.0641L46.0673 51.3474L46.0706 46.4998L49.75 44.9664C56.3878 42.2001 56.2965 42.2427 56.9123 41.619C58.6773 39.8313 58.2314 36.7409 56.0299 35.5039C55.435 35.1697 55.2756 35.1373 54.2209 35.1373H53.0644L41.9171 39.845C35.7863 42.4343 30.5817 44.6199 30.3515 44.7021C29.9459 44.8467 29.5822 44.7034 18.4283 40.0017L6.92353 35.1521L5.94958 35.1132C5.32467 35.0883 4.80994 35.1364 4.51337 35.2477ZM10.3705 38.2779C12.6261 39.224 17.9205 41.4471 22.1359 43.2181C26.3511 44.9891 29.8913 46.4381 30.0028 46.4381C30.1143 46.4381 35.4957 44.215 41.9615 41.4978C50.9269 37.7302 53.836 36.5576 54.2174 36.5576C55.4052 36.5576 56.5341 37.701 56.5341 38.9042C56.5341 39.6774 55.9822 40.5896 55.2951 40.9523C55.1157 41.0469 49.3517 43.485 42.4861 46.3704L30.0031 51.6163L17.502 46.3657C10.6264 43.4778 4.85815 41.0396 4.68381 40.9476C3.99425 40.5835 3.45128 39.6677 3.45651 38.8773C3.46187 38.0577 4.02457 37.2064 4.85389 36.7629C5.63183 36.3468 6.02214 36.454 10.3705 38.2779ZM22.9809 50.317C26.7905 51.9196 29.9494 53.2309 30.0006 53.2309C30.0519 53.2309 32.6874 52.1414 35.8572 50.8099C39.027 49.4784 42.2642 48.1197 43.0509 47.7907L44.4814 47.1924V51.6937V56.195H15.5065V51.6901V47.1853L15.7804 47.2942C15.9311 47.3541 19.1713 48.7144 22.9809 50.317ZM52.1513 59.0356V60.3942H29.9939H7.8366V59.0356V57.6771H15.5065V56.195H44.4814V57.6771H52.1513V59.0356Z"/>
</mask>
<path fill-rule="evenodd" clip-rule="evenodd" d="M9.77793 0.25368C9.53505 0.500074 9.52884 0.613946 9.56488 4.17498L9.60189 7.8426L9.92572 8.54349C10.3589 9.4809 11.1221 10.2948 11.9586 10.7116C12.5654 11.0138 12.8103 11.0588 14.0595 11.0971L15.4737 11.1406L15.5362 12.157C15.6663 14.2728 16.8299 15.8543 18.6883 16.4409C19.2786 16.6273 19.8068 16.6732 21.361 16.6732H23.298L23.2999 24.6085L23.3017 32.5437L26.3393 36.9899C28.01 39.4353 29.5157 41.5195 29.6854 41.6213C29.9596 41.786 30.0283 41.786 30.3027 41.6213C30.4724 41.5195 31.9785 39.4353 33.6493 36.9899L36.6873 32.5437L36.6886 24.6085L36.6898 16.6732H38.5513C40.7376 16.6732 41.5651 16.5018 42.4965 15.856C43.6974 15.0232 44.3514 13.7886 44.4511 12.1662L44.5142 11.1406L45.9284 11.0971C47.1776 11.0588 47.4225 11.0138 48.0293 10.7116C48.8658 10.2948 49.629 9.4809 50.0622 8.54349L50.386 7.8426L50.423 4.17498C50.459 0.613946 50.4528 0.500074 50.21 0.25368L49.9599 0H29.9939H10.028L9.77793 0.25368ZM48.9859 4.30305C48.9859 7.24656 48.9004 7.79591 48.3221 8.56498C48.1407 8.80631 47.7119 9.14546 47.3694 9.31861L46.7467 9.63343H29.9939H13.2412L12.6185 9.31861C12.276 9.14546 11.8472 8.80631 11.6658 8.56498C11.0875 7.79591 11.0019 7.24656 11.0019 4.30305V1.60557H29.9939H48.9859V4.30305ZM42.8988 12.0028C42.8988 13.4961 42.1167 14.6066 40.7819 15.0088C39.8764 15.2815 20.1115 15.2815 19.206 15.0088C17.8712 14.6066 17.0891 13.4961 17.0891 12.0028V11.1155H29.9939H42.8988V12.0028ZM35.2289 24.3217V31.97L32.6713 35.7151C31.2647 37.7748 30.0605 39.46 29.9955 39.46C29.9306 39.46 28.7257 37.7771 27.3181 35.7203L24.759 31.9806V24.3269V16.6732H29.9939H35.2289V24.3217ZM4.51337 35.2477C3.84366 35.4987 3.1558 35.9906 2.7851 36.4838C1.50849 38.1817 1.82649 40.7491 3.46467 41.9714C3.71777 42.1602 6.17371 43.2563 8.92243 44.4073L13.92 46.4998L13.922 51.3474L13.9238 56.195H10.5056H7.08739L6.74286 56.5445C6.31456 56.979 6.20207 57.7377 6.27646 59.692C6.33538 61.2419 6.49231 61.6406 7.13232 61.867C7.3948 61.9599 14.2799 61.9997 30.016 61.9997C54.3419 61.9997 53.1452 62.0322 53.503 61.3618C53.6879 61.0154 53.7996 58.5994 53.6767 57.6023C53.61 57.0606 53.5085 56.8118 53.245 56.5445L52.9005 56.195H49.4823H46.0641L46.0673 51.3474L46.0706 46.4998L49.75 44.9664C56.3878 42.2001 56.2965 42.2427 56.9123 41.619C58.6773 39.8313 58.2314 36.7409 56.0299 35.5039C55.435 35.1697 55.2756 35.1373 54.2209 35.1373H53.0644L41.9171 39.845C35.7863 42.4343 30.5817 44.6199 30.3515 44.7021C29.9459 44.8467 29.5822 44.7034 18.4283 40.0017L6.92353 35.1521L5.94958 35.1132C5.32467 35.0883 4.80994 35.1364 4.51337 35.2477ZM10.3705 38.2779C12.6261 39.224 17.9205 41.4471 22.1359 43.2181C26.3511 44.9891 29.8913 46.4381 30.0028 46.4381C30.1143 46.4381 35.4957 44.215 41.9615 41.4978C50.9269 37.7302 53.836 36.5576 54.2174 36.5576C55.4052 36.5576 56.5341 37.701 56.5341 38.9042C56.5341 39.6774 55.9822 40.5896 55.2951 40.9523C55.1157 41.0469 49.3517 43.485 42.4861 46.3704L30.0031 51.6163L17.502 46.3657C10.6264 43.4778 4.85815 41.0396 4.68381 40.9476C3.99425 40.5835 3.45128 39.6677 3.45651 38.8773C3.46187 38.0577 4.02457 37.2064 4.85389 36.7629C5.63183 36.3468 6.02214 36.454 10.3705 38.2779ZM22.9809 50.317C26.7905 51.9196 29.9494 53.2309 30.0006 53.2309C30.0519 53.2309 32.6874 52.1414 35.8572 50.8099C39.027 49.4784 42.2642 48.1197 43.0509 47.7907L44.4814 47.1924V51.6937V56.195H15.5065V51.6901V47.1853L15.7804 47.2942C15.9311 47.3541 19.1713 48.7144 22.9809 50.317ZM52.1513 59.0356V60.3942H29.9939H7.8366V59.0356V57.6771H15.5065V56.195H44.4814V57.6771H52.1513V59.0356Z" fill="#231F20"/>
<path d="M44.4814 56.145H15.5065V56.245H44.4814V56.145ZM9.77793 0.25368L9.70671 0.183479V0.183479L9.77793 0.25368ZM9.56488 4.17498L9.66487 4.17397V4.17397L9.56488 4.17498ZM9.60189 7.8426L9.50189 7.84361L9.50211 7.86506L9.51111 7.88454L9.60189 7.8426ZM9.92572 8.54349L9.83495 8.58543L9.83495 8.58544L9.92572 8.54349ZM11.9586 10.7116L11.914 10.8011L11.914 10.8011L11.9586 10.7116ZM14.0595 11.0971L14.0626 10.9971H14.0626L14.0595 11.0971ZM15.4737 11.1406L15.5735 11.1344L15.5679 11.0434L15.4768 11.0406L15.4737 11.1406ZM15.5362 12.157L15.4363 12.1631V12.1632L15.5362 12.157ZM18.6883 16.4409L18.7185 16.3456L18.7184 16.3456L18.6883 16.4409ZM23.298 16.6732L23.398 16.6732L23.398 16.5732H23.298V16.6732ZM23.3017 32.5437L23.2017 32.5437L23.2017 32.5746L23.2191 32.6001L23.3017 32.5437ZM26.3393 36.9899L26.4219 36.9335L26.3393 36.9899ZM29.6854 41.6213L29.7369 41.5356L29.7369 41.5356L29.6854 41.6213ZM30.3027 41.6213L30.3541 41.7071L30.3542 41.7071L30.3027 41.6213ZM33.6493 36.9899L33.5667 36.9335L33.5667 36.9335L33.6493 36.9899ZM36.6873 32.5437L36.7699 32.6001L36.7873 32.5746L36.7873 32.5437L36.6873 32.5437ZM36.6886 24.6085L36.7886 24.6085V24.6085L36.6886 24.6085ZM36.6898 16.6732V16.5732H36.5899L36.5898 16.6732L36.6898 16.6732ZM42.4965 15.856L42.5535 15.9382L42.5535 15.9382L42.4965 15.856ZM44.4511 12.1662L44.3513 12.16V12.16L44.4511 12.1662ZM44.5142 11.1406L44.5111 11.0406L44.42 11.0434L44.4144 11.1344L44.5142 11.1406ZM45.9284 11.0971L45.9253 10.9971H45.9253L45.9284 11.0971ZM48.0293 10.7116L48.0739 10.8011L48.0739 10.8011L48.0293 10.7116ZM50.0622 8.54349L50.1529 8.58544V8.58543L50.0622 8.54349ZM50.386 7.8426L50.4768 7.88454L50.4858 7.86506L50.486 7.84361L50.386 7.8426ZM50.423 4.17498L50.323 4.17397V4.17397L50.423 4.17498ZM50.21 0.25368L50.1387 0.323881V0.323881L50.21 0.25368ZM49.9599 0L50.0311 -0.0702006L50.0017 -0.1H49.9599V0ZM10.028 0V-0.1H9.98615L9.95677 -0.070201L10.028 0ZM48.3221 8.56498L48.2422 8.50488L48.2421 8.5049L48.3221 8.56498ZM47.3694 9.31861L47.4146 9.40786L47.4146 9.40785L47.3694 9.31861ZM46.7467 9.63343V9.73343H46.7706L46.7918 9.72267L46.7467 9.63343ZM13.2412 9.63343L13.1961 9.72267L13.2173 9.73343H13.2412V9.63343ZM12.6185 9.31861L12.5733 9.40785L12.5733 9.40786L12.6185 9.31861ZM11.6658 8.56498L11.7457 8.5049L11.7457 8.50488L11.6658 8.56498ZM11.0019 1.60557V1.50557H10.9019V1.60557H11.0019ZM48.9859 1.60557H49.0859V1.50557H48.9859V1.60557ZM40.7819 15.0088L40.8107 15.1045L40.8107 15.1045L40.7819 15.0088ZM19.206 15.0088L19.1772 15.1045L19.1772 15.1045L19.206 15.0088ZM17.0891 11.1155V11.0155H16.9891V11.1155H17.0891ZM42.8988 11.1155H42.9988V11.0155H42.8988V11.1155ZM35.2289 31.97L35.3115 32.0264L35.3289 32.0009V31.97H35.2289ZM32.6713 35.7151L32.7539 35.7715L32.6713 35.7151ZM27.3181 35.7203L27.2356 35.7767L27.3181 35.7203ZM24.759 31.9806H24.659V32.0116L24.6764 32.0371L24.759 31.9806ZM24.759 16.6732V16.5732H24.659V16.6732H24.759ZM35.2289 16.6732H35.3289V16.5732H35.2289V16.6732ZM4.51337 35.2477L4.54846 35.3414L4.5485 35.3413L4.51337 35.2477ZM2.7851 36.4838L2.86502 36.5439L2.86503 36.5439L2.7851 36.4838ZM3.46467 41.9714L3.52447 41.8912L3.52447 41.8912L3.46467 41.9714ZM8.92243 44.4073L8.88381 44.4995H8.88381L8.92243 44.4073ZM13.92 46.4998L14.02 46.4998L14.02 46.4333L13.9586 46.4076L13.92 46.4998ZM13.922 51.3474L14.022 51.3474V51.3474L13.922 51.3474ZM13.9238 56.195V56.295H14.0238L14.0238 56.195L13.9238 56.195ZM7.08739 56.195V56.095H7.04555L7.01618 56.1248L7.08739 56.195ZM6.74286 56.5445L6.67164 56.4743L6.74286 56.5445ZM6.27646 59.692L6.37639 59.6882L6.37639 59.6882L6.27646 59.692ZM7.13232 61.867L7.16567 61.7727L7.16566 61.7727L7.13232 61.867ZM53.503 61.3618L53.4148 61.3148L53.4148 61.3148L53.503 61.3618ZM53.6767 57.6023L53.5775 57.6146V57.6146L53.6767 57.6023ZM53.245 56.5445L53.3162 56.4743L53.245 56.5445ZM52.9005 56.195L52.9717 56.1248L52.9423 56.095H52.9005V56.195ZM46.0641 56.195L45.9641 56.1949L45.964 56.295H46.0641V56.195ZM46.0673 51.3474L45.9673 51.3473V51.3473L46.0673 51.3474ZM46.0706 46.4998L46.0321 46.4075L45.9706 46.4331L45.9706 46.4997L46.0706 46.4998ZM49.75 44.9664L49.7115 44.8741V44.8741L49.75 44.9664ZM56.9123 41.619L56.8411 41.5487L56.9123 41.619ZM56.0299 35.5039L56.0789 35.4167L56.0789 35.4167L56.0299 35.5039ZM53.0644 35.1373V35.0373H53.0441L53.0255 35.0452L53.0644 35.1373ZM41.9171 39.845L41.8782 39.7528H41.8782L41.9171 39.845ZM30.3515 44.7021L30.3851 44.7963L30.3851 44.7962L30.3515 44.7021ZM18.4283 40.0017L18.4671 39.9095H18.4671L18.4283 40.0017ZM6.92353 35.1521L6.96237 35.06L6.94565 35.0529L6.92752 35.0522L6.92353 35.1521ZM5.94958 35.1132L5.95357 35.0133H5.95357L5.94958 35.1132ZM10.3705 38.2779L10.3318 38.3701H10.3318L10.3705 38.2779ZM22.1359 43.2181L22.0971 43.3103H22.0971L22.1359 43.2181ZM41.9615 41.4978L42.0002 41.59H42.0002L41.9615 41.4978ZM55.2951 40.9523L55.3417 41.0408L55.3418 41.0407L55.2951 40.9523ZM42.4861 46.3704L42.5248 46.4626H42.5248L42.4861 46.3704ZM30.0031 51.6163L29.9643 51.7085L30.0031 51.7247L30.0418 51.7085L30.0031 51.6163ZM17.502 46.3657L17.4632 46.4579H17.4632L17.502 46.3657ZM4.68381 40.9476L4.63712 41.0361L4.63713 41.0361L4.68381 40.9476ZM3.45651 38.8773L3.55651 38.878L3.55651 38.878L3.45651 38.8773ZM4.85389 36.7629L4.90104 36.8511L4.90105 36.8511L4.85389 36.7629ZM35.8572 50.8099L35.896 50.9021H35.896L35.8572 50.8099ZM43.0509 47.7907L43.0124 47.6984L43.0509 47.7907ZM44.4814 47.1924H44.5814V47.0422L44.4429 47.1002L44.4814 47.1924ZM15.5065 47.1853L15.5434 47.0923L15.4065 47.0379V47.1853H15.5065ZM15.7804 47.2942L15.7434 47.3871L15.7434 47.3871L15.7804 47.2942ZM52.1513 60.3942V60.4942H52.2513V60.3942H52.1513ZM7.8366 60.3942H7.7366V60.4942H7.8366V60.3942ZM7.8366 57.6771V57.5771H7.7366V57.6771H7.8366ZM52.1513 57.6771H52.2513V57.5771H52.1513V57.6771ZM15.5065 57.6771V57.7771H15.6065V57.6771H15.5065ZM44.4814 57.6771H44.3814V57.7771H44.4814V57.6771ZM9.70671 0.183479C9.64119 0.249947 9.5835 0.316013 9.54238 0.4375C9.50357 0.552173 9.48073 0.712356 9.46696 0.965914C9.43932 1.47444 9.44688 2.39759 9.46488 4.17599L9.66487 4.17397C9.64683 2.39134 9.63948 1.47703 9.66666 0.976765C9.68029 0.725927 9.70229 0.588879 9.73183 0.50162C9.75906 0.421176 9.79322 0.38061 9.84914 0.323881L9.70671 0.183479ZM9.46488 4.17599L9.50189 7.84361L9.70188 7.84159L9.66487 4.17397L9.46488 4.17599ZM9.51111 7.88454L9.83495 8.58543L10.0165 8.50155L9.69266 7.80065L9.51111 7.88454ZM9.83495 8.58544C10.2766 9.54119 11.055 10.3731 11.914 10.8011L12.0032 10.6221C11.1892 10.2165 10.4412 9.4206 10.0165 8.50154L9.83495 8.58544ZM11.914 10.8011C12.2214 10.9542 12.4438 11.0455 12.7501 11.1017C13.052 11.1571 13.4331 11.1779 14.0565 11.197L14.0626 10.9971C13.4368 10.978 13.0708 10.9572 12.7862 10.905C12.506 10.8536 12.3026 10.7712 12.0032 10.6221L11.914 10.8011ZM14.0565 11.197L15.4706 11.2405L15.4768 11.0406L14.0626 10.9971L14.0565 11.197ZM15.3739 11.1467L15.4363 12.1631L15.636 12.1509L15.5735 11.1344L15.3739 11.1467ZM15.4363 12.1632C15.5687 14.3155 16.756 15.9358 18.6582 16.5363L18.7184 16.3456C16.9038 15.7727 15.7639 14.2301 15.636 12.1509L15.4363 12.1632ZM18.6582 16.5363C19.2649 16.7278 19.8074 16.7732 21.361 16.7732V16.5732C19.8062 16.5732 19.2922 16.5268 18.7185 16.3456L18.6582 16.5363ZM21.361 16.7732H23.298V16.5732H21.361V16.7732ZM23.198 16.6733L23.1999 24.6085L23.3999 24.6084L23.398 16.6732L23.198 16.6733ZM23.1999 24.6085L23.2017 32.5437L23.4017 32.5437L23.3999 24.6084L23.1999 24.6085ZM23.2191 32.6001L26.2568 37.0463L26.4219 36.9335L23.3843 32.4873L23.2191 32.6001ZM26.2568 37.0463C27.0925 38.2695 27.8871 39.4027 28.4942 40.243C28.7977 40.6631 29.0547 41.0105 29.2468 41.2596C29.3427 41.3841 29.4231 41.4848 29.4852 41.5581C29.5162 41.5946 29.5435 41.6253 29.5664 41.6489C29.5869 41.6702 29.6108 41.6932 29.634 41.7071L29.7369 41.5356C29.7388 41.5368 29.7311 41.5316 29.7101 41.5099C29.6915 41.4906 29.6674 41.4636 29.6377 41.4287C29.5785 41.3589 29.5003 41.261 29.4052 41.1375C29.2149 40.8908 28.9593 40.5453 28.6563 40.1259C28.0505 39.2873 27.2569 38.1556 26.4219 36.9335L26.2568 37.0463ZM29.634 41.7071C29.7684 41.7878 29.8767 41.8448 29.994 41.8448C30.1112 41.8448 30.2195 41.7878 30.3541 41.7071L30.2512 41.5356C30.1114 41.6195 30.0482 41.6448 29.994 41.6448C29.9397 41.6448 29.8766 41.6195 29.7369 41.5356L29.634 41.7071ZM30.3542 41.7071C30.3773 41.6932 30.4012 41.6702 30.4217 41.6489C30.4446 41.6253 30.4719 41.5946 30.5029 41.5581C30.5651 41.4848 30.6455 41.3841 30.7414 41.2596C30.9335 41.0105 31.1906 40.6631 31.4941 40.243C32.1014 39.4027 32.8961 38.2695 33.7319 37.0463L33.5667 36.9335C32.7317 38.1556 31.938 39.2873 31.332 40.1259C31.029 40.5452 30.7733 40.8908 30.583 41.1375C30.4878 41.261 30.4096 41.3589 30.3504 41.4287C30.3208 41.4636 30.2966 41.4906 30.278 41.5099C30.257 41.5316 30.2493 41.5368 30.2512 41.5356L30.3542 41.7071ZM33.7319 37.0463L36.7699 32.6001L36.6047 32.4873L33.5667 36.9335L33.7319 37.0463ZM36.7873 32.5437L36.7886 24.6085L36.5886 24.6084L36.5873 32.5437L36.7873 32.5437ZM36.7886 24.6085L36.7898 16.6733L36.5898 16.6732L36.5886 24.6084L36.7886 24.6085ZM36.6898 16.7732H38.5513V16.5732H36.6898V16.7732ZM38.5513 16.7732C40.742 16.7732 41.5958 16.6022 42.5535 15.9382L42.4395 15.7738C41.5344 16.4014 40.7332 16.5732 38.5513 16.5732V16.7732ZM42.5535 15.9382C43.7826 15.0858 44.4496 13.8214 44.5509 12.1723L44.3513 12.16C44.2532 13.7559 43.6122 14.9606 42.4395 15.7738L42.5535 15.9382ZM44.5509 12.1723L44.614 11.1467L44.4144 11.1344L44.3513 12.16L44.5509 12.1723ZM44.5173 11.2405L45.9314 11.197L45.9253 10.9971L44.5111 11.0406L44.5173 11.2405ZM45.9314 11.197C46.5548 11.1779 46.9359 11.1571 47.2378 11.1017C47.5441 11.0455 47.7665 10.9542 48.0739 10.8011L47.9847 10.6221C47.6853 10.7712 47.4819 10.8536 47.2017 10.905C46.9171 10.9572 46.5511 10.978 45.9253 10.9971L45.9314 11.197ZM48.0739 10.8011C48.9329 10.3731 49.7113 9.54119 50.1529 8.58544L49.9714 8.50154C49.5467 9.4206 48.7987 10.2165 47.9847 10.6221L48.0739 10.8011ZM50.1529 8.58543L50.4768 7.88454L50.2952 7.80065L49.9714 8.50155L50.1529 8.58543ZM50.486 7.84361L50.523 4.17599L50.323 4.17397L50.286 7.84159L50.486 7.84361ZM50.523 4.17599C50.541 2.39759 50.5486 1.47444 50.5209 0.965914C50.5071 0.712356 50.4843 0.552173 50.4455 0.4375C50.4044 0.316013 50.3467 0.249947 50.2812 0.183479L50.1387 0.323881C50.1947 0.38061 50.2288 0.421176 50.2561 0.50162C50.2856 0.588879 50.3076 0.725927 50.3212 0.976765C50.3484 1.47703 50.3411 2.39134 50.323 4.17397L50.523 4.17599ZM50.2812 0.18348L50.0311 -0.0702006L49.8887 0.0702006L50.1387 0.323881L50.2812 0.18348ZM49.9599 -0.1H29.9939V0.1H49.9599V-0.1ZM29.9939 -0.1H10.028V0.1H29.9939V-0.1ZM9.95677 -0.070201L9.70671 0.183479L9.84914 0.323881L10.0992 0.070201L9.95677 -0.070201ZM48.8859 4.30305C48.8859 5.7767 48.8643 6.64174 48.7721 7.23404C48.6811 7.81786 48.5223 8.13233 48.2422 8.50488L48.402 8.62508C48.7002 8.22857 48.8733 7.88382 48.9697 7.26482C49.0648 6.65431 49.0859 5.77291 49.0859 4.30305H48.8859ZM48.2421 8.5049C48.1588 8.61576 48.0137 8.75475 47.8441 8.88893C47.6753 9.02248 47.4881 9.14653 47.3243 9.22937L47.4146 9.40785C47.5932 9.31753 47.7917 9.18544 47.9682 9.04579C48.1439 8.90678 48.304 8.75553 48.402 8.62507L48.2421 8.5049ZM47.3243 9.22937L46.7016 9.54418L46.7918 9.72267L47.4146 9.40786L47.3243 9.22937ZM46.7467 9.53343H29.9939V9.73343H46.7467V9.53343ZM29.9939 9.53343H13.2412V9.73343H29.9939V9.53343ZM13.2863 9.54418L12.6636 9.22937L12.5733 9.40786L13.1961 9.72267L13.2863 9.54418ZM12.6636 9.22937C12.4997 9.14653 12.3126 9.02248 12.1438 8.88893C11.9741 8.75475 11.8291 8.61576 11.7457 8.5049L11.5859 8.62507C11.6839 8.75553 11.844 8.90678 12.0197 9.04579C12.1962 9.18544 12.3947 9.31753 12.5733 9.40785L12.6636 9.22937ZM11.7457 8.50488C11.4656 8.13233 11.3068 7.81786 11.2158 7.23404C11.1236 6.64174 11.1019 5.7767 11.1019 4.30305H10.9019C10.9019 5.77291 10.9231 6.65431 11.0182 7.26482C11.1146 7.88382 11.2877 8.22857 11.5859 8.62508L11.7457 8.50488ZM11.1019 4.30305V1.60557H10.9019V4.30305H11.1019ZM11.0019 1.70557H29.9939V1.50557H11.0019V1.70557ZM29.9939 1.70557H48.9859V1.50557H29.9939V1.70557ZM48.8859 1.60557V4.30305H49.0859V1.60557H48.8859ZM42.7988 12.0028C42.7988 13.4563 42.0416 14.5248 40.753 14.913L40.8107 15.1045C42.1918 14.6884 42.9988 13.5359 42.9988 12.0028H42.7988ZM40.7531 14.913C40.7089 14.9263 40.5905 14.9418 40.3927 14.957C40.1997 14.9718 39.9418 14.9856 39.6279 14.9983C39.0002 15.0238 38.1512 15.0451 37.1543 15.0622C35.1606 15.0962 32.5774 15.1133 29.9939 15.1133C27.4105 15.1133 24.8273 15.0962 22.8336 15.0622C21.8367 15.0451 20.9877 15.0238 20.36 14.9983C20.046 14.9856 19.7882 14.9718 19.5952 14.957C19.3974 14.9418 19.2789 14.9263 19.2348 14.913L19.1772 15.1045C19.2462 15.1253 19.3883 15.1417 19.5799 15.1564C19.7764 15.1714 20.0369 15.1854 20.3519 15.1982C20.9819 15.2238 21.8327 15.2451 22.8302 15.2621C24.8254 15.2962 27.4098 15.3133 29.9939 15.3133C32.5781 15.3133 35.1625 15.2962 37.1577 15.2621C38.1552 15.2451 39.006 15.2238 39.636 15.1982C39.9509 15.1854 40.2115 15.1714 40.4079 15.1564C40.5996 15.1417 40.7416 15.1253 40.8107 15.1045L40.7531 14.913ZM19.2348 14.913C17.9463 14.5248 17.1891 13.4563 17.1891 12.0028H16.9891C16.9891 13.5359 17.7961 14.6884 19.1772 15.1045L19.2348 14.913ZM17.1891 12.0028V11.1155H16.9891V12.0028H17.1891ZM17.0891 11.2155H29.9939V11.0155H17.0891V11.2155ZM29.9939 11.2155H42.8988V11.0155H29.9939V11.2155ZM42.7988 11.1155V12.0028H42.9988V11.1155H42.7988ZM35.1289 24.3217V31.97H35.3289V24.3217H35.1289ZM35.1463 31.9136L32.5887 35.6587L32.7539 35.7715L35.3115 32.0264L35.1463 31.9136ZM32.5887 35.6587C31.8857 36.6881 31.2334 37.6237 30.749 38.3018C30.5066 38.6409 30.3067 38.9151 30.1635 39.1041C30.0918 39.1988 30.0351 39.2712 29.9948 39.3194C29.9744 39.3438 29.9596 39.3603 29.9498 39.3702C29.9447 39.3753 29.943 39.3766 29.944 39.3758C29.9444 39.3755 29.9476 39.373 29.9532 39.3701C29.9566 39.3683 29.9725 39.36 29.9955 39.36V39.56C30.0206 39.56 30.039 39.5509 30.0456 39.5474C30.0543 39.5429 30.0613 39.5379 30.0659 39.5344C30.0753 39.5271 30.0842 39.5187 30.0919 39.511C30.1076 39.4951 30.1267 39.4734 30.1482 39.4477C30.1917 39.3957 30.2507 39.3203 30.323 39.2249C30.4678 39.0336 30.669 38.7577 30.9117 38.4181C31.3972 37.7386 32.0503 36.8017 32.7539 35.7715L32.5887 35.6587ZM29.9955 39.36C30.0185 39.36 30.0344 39.3683 30.0379 39.3701C30.0434 39.373 30.0467 39.3755 30.0471 39.3758C30.048 39.3765 30.0463 39.3753 30.0412 39.3701C30.0315 39.3603 30.0166 39.3438 29.9962 39.3195C29.9559 39.2713 29.8992 39.1991 29.8274 39.1045C29.6842 38.9157 29.4841 38.6419 29.2417 38.3032C28.7569 37.6261 28.1042 36.6918 27.4007 35.6638L27.2356 35.7767C27.9397 36.8056 28.5932 37.7411 29.079 38.4197C29.3219 38.7588 29.5232 39.0343 29.6681 39.2253C29.7404 39.3207 29.7994 39.396 29.8429 39.4479C29.8644 39.4736 29.8835 39.4952 29.8993 39.511C29.9069 39.5187 29.9158 39.5272 29.9252 39.5344C29.9298 39.538 29.9368 39.5429 29.9454 39.5474C29.952 39.5509 29.9705 39.56 29.9955 39.56V39.36ZM27.4007 35.6638L24.8415 31.9242L24.6764 32.0371L27.2356 35.7767L27.4007 35.6638ZM24.859 31.9806V24.3269H24.659V31.9806H24.859ZM24.859 24.3269V16.6732H24.659V24.3269H24.859ZM24.759 16.7732H29.9939V16.5732H24.759V16.7732ZM29.9939 16.7732H35.2289V16.5732H29.9939V16.7732ZM35.1289 16.6732V24.3217H35.3289V16.6732H35.1289ZM4.47828 35.1541C3.79363 35.4106 3.08905 35.913 2.70516 36.4237L2.86503 36.5439C3.22256 36.0682 3.89368 35.5867 4.54846 35.3414L4.47828 35.1541ZM2.70517 36.4237C1.3975 38.1629 1.71941 40.794 3.40487 42.0515L3.52447 41.8912C1.93357 40.7043 1.61948 38.2005 2.86502 36.5439L2.70517 36.4237ZM3.40487 42.0515C3.44402 42.0807 3.51725 42.122 3.61299 42.1718C3.71117 42.2228 3.83975 42.2862 3.99463 42.36C4.3045 42.5079 4.72197 42.6989 5.21694 42.9198C6.20699 43.3617 7.50889 43.9238 8.88381 44.4995L8.96106 44.315C7.58726 43.7398 6.28682 43.1783 5.29845 42.7372C4.8042 42.5166 4.38844 42.3263 4.08074 42.1795C3.92683 42.1061 3.80054 42.0439 3.70523 41.9943C3.60747 41.9435 3.5486 41.9092 3.52447 41.8912L3.40487 42.0515ZM8.88381 44.4995L13.8814 46.5921L13.9586 46.4076L8.96106 44.315L8.88381 44.4995ZM13.82 46.4999L13.822 51.3474L14.022 51.3474L14.02 46.4998L13.82 46.4999ZM13.822 51.3474L13.8238 56.195L14.0238 56.195L14.022 51.3474L13.822 51.3474ZM13.9238 56.095H10.5056V56.295H13.9238V56.095ZM10.5056 56.095H7.08739V56.295H10.5056V56.095ZM7.01618 56.1248L6.67164 56.4743L6.81408 56.6147L7.15861 56.2652L7.01618 56.1248ZM6.67164 56.4743C6.43736 56.712 6.29639 57.0333 6.22223 57.5337C6.14841 58.0318 6.13932 58.7181 6.17653 59.6959L6.37639 59.6882C6.33921 58.7116 6.34918 58.0414 6.42007 57.563C6.49064 57.0869 6.62006 56.8115 6.81408 56.6147L6.67164 56.4743ZM6.17653 59.6958C6.20592 60.4688 6.25969 60.9726 6.39343 61.3124C6.46154 61.4855 6.55132 61.619 6.67062 61.7245C6.78914 61.8293 6.93179 61.9021 7.09897 61.9613L7.16566 61.7727C7.01284 61.7186 6.89587 61.6567 6.80312 61.5747C6.71116 61.4933 6.63802 61.3878 6.57954 61.2392C6.46008 60.9356 6.40593 60.4652 6.37639 59.6882L6.17653 59.6958ZM7.09896 61.9613C7.11812 61.968 7.14226 61.9719 7.16331 61.9747C7.18698 61.9778 7.21666 61.9807 7.25185 61.9835C7.32238 61.989 7.41892 61.9943 7.54145 61.9993C7.78672 62.0093 8.13957 62.0185 8.60392 62.0269C9.53282 62.0437 10.9103 62.0574 12.771 62.0682C16.4924 62.0898 22.1479 62.0997 30.016 62.0997V61.8997C22.148 61.8997 16.4929 61.8898 12.7721 61.8682C10.9117 61.8574 9.53517 61.8437 8.60754 61.8269C8.14364 61.8185 7.79259 61.8094 7.54962 61.7994C7.42803 61.7945 7.33436 61.7893 7.26751 61.7841C7.23402 61.7815 7.20822 61.7789 7.18948 61.7764C7.16812 61.7736 7.16292 61.7717 7.16567 61.7727L7.09896 61.9613ZM30.016 62.0997C42.1777 62.0997 47.9622 62.1079 50.7503 62.0322C52.1396 61.9944 52.7977 61.9359 53.1306 61.8405C53.3016 61.7914 53.4012 61.7289 53.4679 61.643C53.4995 61.6021 53.5207 61.5597 53.5384 61.5213C53.5571 61.4806 53.5707 61.4474 53.5912 61.4089L53.4148 61.3148C53.3906 61.3601 53.3716 61.4051 53.3567 61.4377C53.3407 61.4724 53.3271 61.4981 53.3098 61.5205C53.2783 61.561 53.2227 61.606 53.0755 61.6482C52.772 61.7352 52.1418 61.7943 50.7448 61.8322C47.9603 61.9079 42.1802 61.8997 30.016 61.8997V62.0997ZM53.5912 61.4089C53.6218 61.3516 53.646 61.2632 53.6666 61.1616C53.6879 61.0568 53.7073 60.9271 53.7247 60.7803C53.7597 60.4863 53.7873 60.1182 53.8052 59.7307C53.8409 58.9574 53.8385 58.0973 53.776 57.5901L53.5775 57.6146C53.6378 58.1044 53.641 58.9508 53.6054 59.7215C53.5876 60.1059 53.5603 60.469 53.5261 60.7567C53.509 60.9006 53.4904 61.0244 53.4706 61.1219C53.4502 61.2226 53.4304 61.2855 53.4148 61.3148L53.5912 61.4089ZM53.776 57.5901C53.7422 57.316 53.6988 57.1082 53.6272 56.9327C53.5547 56.7551 53.4553 56.6154 53.3162 56.4743L53.1738 56.6147C53.2982 56.7409 53.3813 56.8593 53.4421 57.0083C53.5038 57.1595 53.5445 57.3469 53.5775 57.6146L53.776 57.5901ZM53.3162 56.4743L52.9717 56.1248L52.8293 56.2652L53.1738 56.6147L53.3162 56.4743ZM52.9005 56.095H49.4823V56.295H52.9005V56.095ZM49.4823 56.095H46.0641V56.295H49.4823V56.095ZM46.1641 56.1951L46.1673 51.3475L45.9673 51.3473L45.9641 56.1949L46.1641 56.1951ZM46.1673 51.3475L46.1706 46.4999L45.9706 46.4997L45.9673 51.3473L46.1673 51.3475ZM46.109 46.5921L49.7885 45.0587L49.7115 44.8741L46.0321 46.4075L46.109 46.5921ZM49.7885 45.0587C53.1059 43.6762 54.7454 42.9941 55.6318 42.5798C56.0751 42.3726 56.3352 42.2301 56.5241 42.0981C56.7145 41.9652 56.8303 41.8443 56.9835 41.6893L56.8411 41.5487C56.6864 41.7055 56.5827 41.8132 56.4096 41.9342C56.2351 42.056 55.9876 42.1927 55.5471 42.3986C54.6657 42.8106 53.0319 43.4903 49.7115 44.8741L49.7885 45.0587ZM56.9835 41.6893C58.7954 39.854 58.3373 36.6857 56.0789 35.4167L55.9809 35.591C58.1256 36.7961 58.5593 39.8085 56.8411 41.5487L56.9835 41.6893ZM56.0789 35.4167C55.7798 35.2487 55.5799 35.1504 55.3177 35.0973C55.06 35.045 54.7461 35.0373 54.2209 35.0373V35.2373C54.7504 35.2373 55.0435 35.2458 55.2779 35.2933C55.5079 35.3399 55.6851 35.4249 55.9809 35.5911L56.0789 35.4167ZM54.2209 35.0373H53.0644V35.2373H54.2209V35.0373ZM53.0255 35.0452L41.8782 39.7528L41.9561 39.9371L53.1033 35.2294L53.0255 35.0452ZM41.8782 39.7528C35.7443 42.3434 30.5446 44.527 30.3179 44.6079L30.3851 44.7962C30.6189 44.7128 35.8282 42.5251 41.9561 39.9371L41.8782 39.7528ZM30.3179 44.6079C30.2738 44.6236 30.2351 44.6339 30.1791 44.6345C30.1206 44.6351 30.0388 44.6251 29.9102 44.5928C29.652 44.5281 29.2256 44.3792 28.4572 44.0762C26.9227 43.4713 24.0448 42.2607 18.4671 39.9095L18.3895 40.0938C23.9657 42.4444 26.8466 43.6563 28.3838 44.2623C29.1512 44.5648 29.589 44.7185 29.8616 44.7868C29.9984 44.8211 30.0987 44.8353 30.1812 44.8345C30.2664 44.8336 30.3278 44.8167 30.3851 44.7963L30.3179 44.6079ZM18.4671 39.9095L6.96237 35.06L6.88468 35.2443L18.3895 40.0938L18.4671 39.9095ZM6.92752 35.0522L5.95357 35.0133L5.94559 35.2131L6.91954 35.252L6.92752 35.0522ZM5.95357 35.0133C5.32579 34.9882 4.79434 35.0355 4.47824 35.1541L4.5485 35.3413C4.82553 35.2374 5.32355 35.1883 5.94559 35.2131L5.95357 35.0133ZM10.3318 38.3701C12.5874 39.3162 17.8818 41.5393 22.0971 43.3103L22.1746 43.1259C17.9592 41.3549 12.6648 39.1318 10.4091 38.1857L10.3318 38.3701ZM22.0971 43.3103C24.205 44.1959 26.1441 45.001 27.5704 45.5848C28.2835 45.8766 28.8686 46.1133 29.2826 46.277C29.4895 46.3588 29.6541 46.4226 29.7708 46.4661C29.829 46.4877 29.876 46.5046 29.9107 46.5162C29.928 46.522 29.9432 46.5268 29.9557 46.5302C29.9634 46.5323 29.9834 46.5381 30.0028 46.5381V46.3381C30.0153 46.3381 30.0216 46.3409 30.0091 46.3375C30.0014 46.3353 29.9899 46.3318 29.9741 46.3265C29.9426 46.316 29.898 46.3 29.8406 46.2786C29.7258 46.2359 29.5626 46.1727 29.3561 46.091C28.9432 45.9277 28.3589 45.6914 27.6461 45.3997C26.2206 44.8162 24.282 44.0113 22.1746 43.1259L22.0971 43.3103ZM30.0028 46.5381C30.0184 46.5381 30.0326 46.5344 30.0362 46.5334C30.0432 46.5317 30.0509 46.5294 30.0586 46.527C30.0741 46.5221 30.0943 46.5152 30.1183 46.5065C30.1666 46.4892 30.2342 46.4636 30.3196 46.4305C30.4908 46.3641 30.7359 46.2665 31.0466 46.141C31.6682 45.8899 32.5536 45.527 33.6375 45.0793C35.8052 44.1838 38.7672 42.9486 42.0002 41.59L41.9227 41.4056C38.6899 42.7642 35.7284 43.9991 33.5611 44.8944C32.4774 45.3421 31.5926 45.7048 30.9717 45.9555C30.6612 46.0809 30.4171 46.1782 30.2473 46.244C30.1624 46.2769 30.0966 46.3018 30.0506 46.3183C30.0275 46.3266 30.0103 46.3325 29.9986 46.3362C29.9927 46.3381 29.9892 46.339 29.9876 46.3394C29.9826 46.3407 29.9907 46.3381 30.0028 46.3381V46.5381ZM42.0002 41.59C46.483 39.7062 49.451 38.4714 51.3458 37.7076C52.2934 37.3257 52.9716 37.0619 53.4363 36.8937C53.6687 36.8096 53.8465 36.7499 53.9773 36.7113C54.1124 36.6714 54.1862 36.6576 54.2174 36.6576V36.4576C54.1532 36.4576 54.0527 36.4805 53.9207 36.5195C53.7843 36.5597 53.6022 36.621 53.3682 36.7057C52.9 36.8751 52.2191 37.14 51.271 37.5221C49.3747 38.2865 46.4054 39.5218 41.9227 41.4056L42.0002 41.59ZM54.2174 36.6576C54.7795 36.6576 55.3342 36.9288 55.75 37.35C56.1657 37.7711 56.4341 38.3335 56.4341 38.9042H56.6341C56.6341 38.2717 56.338 37.6609 55.8923 37.2095C55.4467 36.7581 54.8431 36.4576 54.2174 36.4576V36.6576ZM56.4341 38.9042C56.4341 39.2685 56.3034 39.6721 56.0867 40.0304C55.8699 40.3887 55.5724 40.6928 55.2484 40.8639L55.3418 41.0407C55.7048 40.8491 56.0268 40.5158 56.2578 40.1339C56.4888 39.7521 56.6341 39.3131 56.6341 38.9042H56.4341ZM55.2484 40.8639C55.2084 40.885 54.821 41.0525 54.1443 41.3411C53.4715 41.628 52.5197 42.0317 51.359 42.5227C49.0374 43.5047 45.8801 44.8355 42.4473 46.2782L42.5248 46.4626C45.9577 45.0199 49.1151 43.689 51.4369 42.7069C52.5977 42.2159 53.5497 41.8121 54.2227 41.525C54.8917 41.2397 55.2921 41.067 55.3417 41.0408L55.2484 40.8639ZM42.4473 46.2782L29.9643 51.5241L30.0418 51.7085L42.5248 46.4626L42.4473 46.2782ZM30.0418 51.5241L17.5407 46.2735L17.4632 46.4579L29.9643 51.7085L30.0418 51.5241ZM17.5407 46.2735C14.1029 44.8295 10.9421 43.4981 8.61884 42.5161C7.45723 42.0251 6.5051 41.6215 5.83251 41.3349C5.4962 41.1916 5.22989 41.0776 5.04228 40.9966C4.85154 40.9142 4.74778 40.8683 4.73049 40.8592L4.63713 41.0361C4.66343 41.0499 4.77806 41.1003 4.96299 41.1802C5.15105 41.2614 5.41771 41.3756 5.75411 41.5189C6.42696 41.8056 7.3793 42.2093 8.54098 42.7003C10.8644 43.6824 14.0254 45.0139 17.4632 46.4579L17.5407 46.2735ZM4.7305 40.8592C4.40552 40.6876 4.10975 40.3825 3.89563 40.0213C3.68156 39.6602 3.55404 39.2514 3.55651 38.878L3.35651 38.8766C3.35375 39.2937 3.4951 39.7379 3.72359 40.1233C3.95204 40.5087 4.27254 40.8436 4.63712 41.0361L4.7305 40.8592ZM3.55651 38.878C3.56159 38.1012 4.09827 37.2804 4.90104 36.8511L4.80673 36.6747C3.95087 37.1324 3.36215 38.0143 3.35651 38.8766L3.55651 38.878ZM4.90105 36.8511C5.09052 36.7497 5.2471 36.6853 5.44185 36.6671C5.63864 36.6488 5.88296 36.6769 6.2468 36.7768C6.97732 36.9775 8.15461 37.4569 10.3318 38.3701L10.4091 38.1857C8.23798 37.275 7.04595 36.7889 6.29976 36.584C5.92523 36.4811 5.65434 36.4465 5.42327 36.468C5.19016 36.4898 5.00622 36.568 4.80672 36.6747L4.90105 36.8511ZM22.9421 50.4092C24.847 51.2105 26.5893 51.939 27.8618 52.4673C28.498 52.7314 29.017 52.9454 29.3801 53.0935C29.5617 53.1676 29.7046 53.2252 29.8038 53.2644C29.8534 53.284 29.8925 53.2991 29.9204 53.3095C29.9342 53.3146 29.946 53.3189 29.9552 53.3219C29.9597 53.3234 29.9646 53.325 29.9694 53.3263C29.9717 53.327 29.975 53.3278 29.9788 53.3286C29.981 53.329 29.9897 53.3309 30.0006 53.3309V53.1309C30.0107 53.1309 30.0183 53.1325 30.0189 53.1327C30.0211 53.1331 30.0225 53.1335 30.0225 53.1335C30.0227 53.1335 30.0215 53.1332 30.0184 53.1322C30.0124 53.1302 30.0031 53.1269 29.9901 53.122C29.9641 53.1124 29.9265 53.0978 29.8773 53.0784C29.7791 53.0396 29.637 52.9823 29.4557 52.9083C29.0931 52.7605 28.5746 52.5466 27.9385 52.2825C26.6663 51.7545 24.9244 51.0261 23.0197 50.2248L22.9421 50.4092ZM30.0006 53.3309C30.0158 53.3309 30.0288 53.3272 30.0298 53.3269C30.0345 53.3257 30.0392 53.3243 30.0434 53.323C30.0518 53.3203 30.0622 53.3166 30.0741 53.3123C30.0981 53.3036 30.1315 53.2909 30.1733 53.2746C30.2571 53.242 30.3771 53.194 30.5291 53.1325C30.8333 53.0094 31.2668 52.8315 31.7977 52.6121C32.8594 52.1732 34.3109 51.5679 35.896 50.9021L35.8185 50.7177C34.2337 51.3834 32.7826 51.9886 31.7213 52.4273C31.1906 52.6467 30.7576 52.8243 30.4541 52.9471C30.3023 53.0086 30.1832 53.0561 30.1007 53.0883C30.0593 53.1044 30.0277 53.1164 30.0059 53.1243C29.9949 53.1283 29.9873 53.1309 29.9825 53.1324C29.9801 53.1332 29.9794 53.1334 29.98 53.1332C29.9803 53.1331 29.9818 53.1328 29.9841 53.1323C29.9853 53.1321 29.9919 53.1309 30.0006 53.1309V53.3309ZM35.896 50.9021C39.0657 49.5706 42.3029 48.2119 43.0895 47.8829L43.0124 47.6984C42.2256 48.0275 38.9882 49.3862 35.8185 50.7177L35.896 50.9021ZM43.0895 47.8829L44.52 47.2847L44.4429 47.1002L43.0124 47.6984L43.0895 47.8829ZM44.3814 47.1924V51.6937H44.5814V47.1924H44.3814ZM44.3814 51.6937V56.195H44.5814V51.6937H44.3814ZM15.6065 56.195V51.6901H15.4065V56.195H15.6065ZM15.6065 51.6901V47.1853H15.4065V51.6901H15.6065ZM15.4695 47.2782L15.7434 47.3871L15.8173 47.2013L15.5434 47.0923L15.4695 47.2782ZM15.7434 47.3871C15.8929 47.4465 19.1315 48.8061 22.9421 50.4092L23.0197 50.2248C19.2111 48.6227 15.9693 47.2617 15.8173 47.2013L15.7434 47.3871ZM52.0513 59.0356V60.3942H52.2513V59.0356H52.0513ZM52.1513 60.2942H29.9939V60.4942H52.1513V60.2942ZM29.9939 60.2942H7.8366V60.4942H29.9939V60.2942ZM7.9366 60.3942V59.0356H7.7366V60.3942H7.9366ZM7.9366 59.0356V57.6771H7.7366V59.0356H7.9366ZM52.0513 57.6771V59.0356H52.2513V57.6771H52.0513ZM7.8366 57.7771H15.5065V57.5771H7.8366V57.7771ZM15.6065 57.6771V56.195H15.4065V57.6771H15.6065ZM44.4814 57.7771H52.1513V57.5771H44.4814V57.7771ZM44.3814 56.195V57.6771H44.5814V56.195H44.3814Z" fill="white" mask="url(#path-1-inside-1_48_7921)"/>
</svg>
