<svg width="60" height="62" viewBox="0 0 60 62" fill="none" xmlns="http://www.w3.org/2000/svg">
<path d="M19.9211 15.6341L19.7969 15.7065L13.8607 19.1642C12.2289 20.1147 10.7005 21.0161 9.55287 21.7024C8.97895 22.0457 8.50083 22.3348 8.15278 22.5493C7.97865 22.6566 7.83795 22.7446 7.73443 22.8112C7.68262 22.8445 7.64105 22.8719 7.60971 22.8932C7.59995 22.8998 7.59144 22.9057 7.58412 22.9108C7.5797 22.9139 7.57572 22.9168 7.57215 22.9194L7.56106 22.9276L7.55794 22.93C7.5572 22.9305 7.55686 22.9308 7.55688 22.9308L7.24629 23.1881L7.24445 30.409L7.24258 37.7474L7.24255 37.8738L7.14084 37.9487L3.76574 40.4345C2.01932 41.7209 1.08589 42.4326 0.618014 42.9066C0.384698 43.143 0.294992 43.2937 0.264268 43.4015C0.237326 43.496 0.247347 43.5864 0.304939 43.7349L0.0719306 43.8252L0.304942 43.7349C0.518308 44.2851 1.099 44.5558 1.50576 44.4033L1.50588 44.4032C1.5056 44.4033 1.50604 44.4031 1.50727 44.4025C1.51362 44.3992 1.54104 44.385 1.59881 44.3497C1.66015 44.3122 1.74153 44.2598 1.84142 44.1935C2.04086 44.0611 2.30796 43.8771 2.6242 43.6544C3.25635 43.2094 4.08044 42.6132 4.9435 41.9735L8.08641 39.6438L8.21891 39.5455L8.36134 39.6287L14.4033 43.1565C16.7105 44.5036 18.2464 45.3838 19.251 45.9276C19.7537 46.1997 20.119 46.3851 20.3792 46.5022C20.5095 46.5608 20.6093 46.6004 20.6843 46.625C20.7635 46.6511 20.7988 46.6548 20.8061 46.6549C20.8154 46.655 20.8505 46.6519 20.9259 46.6286C20.9981 46.6063 21.0943 46.5696 21.2208 46.5139C21.4739 46.4025 21.8311 46.223 22.3311 45.9534C23.3302 45.4147 24.8801 44.5272 27.2702 43.1344L33.3783 39.5752L33.5042 39.5018L33.6301 39.5752L39.3523 42.9101L45.0746 46.2449L45.1964 46.3159L45.1987 46.4569L45.2707 51.0254C45.3047 53.1866 45.3266 54.322 45.3723 54.9423C45.3954 55.2557 45.4233 55.414 45.4525 55.5007C45.4657 55.54 45.4768 55.5571 45.4827 55.5648L19.9211 15.6341ZM19.9211 15.6341V15.4904M19.9211 15.6341V15.4904M19.9211 15.4904V11.0289C19.9211 8.88815 19.9243 7.77993 19.9613 7.17122M19.9211 15.4904L19.9613 7.17122M13.3542 27.2269C12.8025 27.5064 12.3135 27.437 11.8898 27.0191C11.5054 26.6399 11.5051 25.7356 11.8892 25.3927M13.3542 27.2269L11.8892 25.3927M13.3542 27.2269C14.6221 26.5848 21.6371 22.4296 21.7956 22.2269C22.0989 21.8388 22.0174 21.0027 21.6423 20.6551L13.3542 27.2269ZM11.8892 25.3927L12.0557 25.5792M11.8892 25.3927L12.0557 25.5792C12.0557 25.5792 12.0557 25.5792 12.0557 25.5792M12.0557 25.5792C12.0553 25.5795 12.0555 25.5795 12.0561 25.5789C12.0584 25.5772 12.0665 25.5708 12.084 25.5584C12.1045 25.5438 12.1323 25.5249 12.1676 25.5015C12.2381 25.4547 12.3343 25.3929 12.454 25.3177C12.693 25.1673 13.0214 24.9656 13.4157 24.7267C14.2042 24.249 15.2533 23.6247 16.3725 22.969L16.2462 22.7533L16.3726 22.969C18.5715 21.6807 19.7348 21.018 20.431 20.7473C20.7771 20.6128 20.9695 20.5913 21.0974 20.6125C21.2175 20.6324 21.318 20.6954 21.4725 20.8385C21.5996 20.9563 21.6987 21.185 21.7245 21.45C21.7496 21.7067 21.6997 21.9313 21.6094 22.0585C21.6091 22.0587 21.6088 22.0589 21.6085 22.0591C21.5954 22.0692 21.5751 22.0839 21.5465 22.1037C21.4896 22.143 21.4083 22.1965 21.3045 22.2631C21.0972 22.396 20.807 22.5763 20.4576 22.7901C19.7592 23.2173 18.829 23.7751 17.8635 24.347C15.9283 25.4933 13.866 26.6874 13.2412 27.0038L13.2412 27.0039C12.9994 27.1264 12.7911 27.1628 12.6092 27.137C12.4282 27.1113 12.2471 27.0203 12.0654 26.8411C11.9379 26.7153 11.8514 26.4703 11.8513 26.1922C11.8512 25.9118 11.9384 25.6839 12.0557 25.5792ZM19.9613 7.17122C19.9798 6.86492 20.0061 6.70751 20.0358 6.61551M19.9613 7.17122L20.0358 6.61551M20.0358 6.61551C20.0596 6.54147 20.0843 6.51104 20.1347 6.46132M20.0358 6.61551L20.1347 6.46132M20.1347 6.46132C20.2427 6.35486 20.4812 6.26672 20.7762 6.25207C21.0682 6.23758 21.3335 6.29943 21.4778 6.40344L20.1347 6.46132ZM46.2201 55.7479C45.9281 55.7624 45.6629 55.7006 45.5185 55.5966L21.5136 6.4352C21.5195 6.44294 21.5306 6.45997 21.5438 6.49927C21.573 6.58601 21.6009 6.74433 21.624 7.0577C21.6697 7.678 21.6916 8.81339 21.7257 10.9746L21.7977 15.5431L21.7999 15.6841L21.9218 15.7551L27.6477 19.0922L33.3739 22.4292L33.4998 22.5026L33.6257 22.4292L39.7309 18.8677C42.0153 17.5352 43.5677 16.6467 44.5915 16.0915C45.1038 15.8137 45.4798 15.6216 45.747 15.4995C45.8808 15.4384 45.9831 15.3967 46.0593 15.3708C46.0972 15.3579 46.126 15.3498 46.1469 15.3451C46.1633 15.3414 46.1715 15.3406 46.1733 15.3405C46.177 15.3409 46.2097 15.3448 46.288 15.3717C46.3658 15.3985 46.4705 15.4414 46.6074 15.5042C46.881 15.6297 47.2666 15.8272 47.7928 16.1125C48.8441 16.6828 50.4406 17.5955 52.7911 18.9642L52.917 18.7482L52.7911 18.9642C54.5179 19.9697 56.1325 20.9211 57.3427 21.6438C57.9479 22.0051 58.4514 22.309 58.817 22.5336C58.9999 22.646 59.1474 22.7381 59.2556 22.8074C59.3097 22.8421 59.3531 22.8704 59.3856 22.8925C59.4019 22.9035 59.4147 22.9124 59.4244 22.9194L59.4358 22.9277C59.4386 22.9299 59.4398 22.9308 59.4397 22.9308L59.75 23.188V31V38.812L59.4394 39.0692L59.4394 39.0692L59.4384 39.07L59.4353 39.0724L59.4242 39.0806C59.4147 39.0875 59.4023 39.0962 59.3866 39.1068C59.3553 39.1281 59.3137 39.1555 59.2619 39.1888C59.1584 39.2554 59.0177 39.3435 58.8435 39.4508C58.4955 39.6652 58.0174 39.9543 57.4435 40.2976C56.2958 40.9839 54.7675 41.8853 53.1356 42.8358L47.1994 46.2935L47.0752 46.3659V46.5096V50.9711C47.0752 53.1119 47.072 54.2201 47.0351 54.8288C47.0165 55.1351 46.9902 55.2925 46.9606 55.3845C46.9367 55.4585 46.912 55.489 46.8616 55.5387C46.7537 55.6451 46.5151 55.7333 46.2201 55.7479ZM32.5959 24.3511V24.2074L32.4718 24.1351L26.7219 20.7833C25.1405 19.8613 23.6974 19.0238 22.6462 18.4171C22.1207 18.1138 21.6929 17.8681 21.3946 17.6982C21.2455 17.6133 21.1282 17.5471 21.047 17.502C21.0067 17.4795 20.974 17.4617 20.9505 17.4492C20.9391 17.4431 20.9276 17.4372 20.9177 17.4324C20.9132 17.4302 20.9055 17.4265 20.8967 17.4229C20.8927 17.4213 20.884 17.4178 20.8728 17.4144C20.8673 17.4127 20.8572 17.4098 20.8444 17.4074C20.8356 17.4058 20.8057 17.4004 20.7677 17.4052L20.7663 17.4054C20.7429 17.4085 20.7252 17.4143 20.7204 17.4159L20.7203 17.4159C20.7128 17.4183 20.7069 17.4207 20.7036 17.422C20.6969 17.4247 20.6914 17.4273 20.6887 17.4286C20.6827 17.4314 20.6772 17.4342 20.6733 17.4363C20.665 17.4406 20.6548 17.4461 20.6437 17.4523C20.621 17.4647 20.5892 17.4826 20.5491 17.5053C20.4687 17.5509 20.3522 17.6176 20.2039 17.703C19.9071 17.8739 19.4812 18.1204 18.958 18.4243C17.9114 19.032 16.4746 19.8693 14.9 20.7895L9.17469 24.1355L9.05083 24.2079V24.3514V31.0001V37.6489V37.7926L9.17493 37.8649L14.9362 41.2234L20.6975 44.582L20.8234 44.6554L20.9493 44.582L26.7105 41.2234L32.4718 37.8649L32.5959 37.7926V37.6489V31V24.3511ZM57.9455 24.3511V24.2074L57.8214 24.1351L52.0715 20.7833C50.4901 19.8613 49.047 19.0238 47.9958 18.4171C47.4703 18.1138 47.0424 17.8681 46.7441 17.6982C46.5951 17.6133 46.4778 17.5471 46.3966 17.502C46.3563 17.4795 46.3236 17.4617 46.3001 17.4492C46.2887 17.4431 46.2772 17.4372 46.2673 17.4324C46.2628 17.4302 46.2551 17.4265 46.2463 17.4229C46.2423 17.4213 46.2336 17.4178 46.2224 17.4144C46.2169 17.4127 46.2068 17.4098 46.194 17.4074C46.1852 17.4058 46.1553 17.4004 46.1172 17.4052L46.1159 17.4054C46.0924 17.4085 46.0747 17.4143 46.0699 17.4159C46.0624 17.4183 46.0565 17.4207 46.0532 17.422C46.0464 17.4247 46.041 17.4273 46.0383 17.4286C46.0362 17.4296 46.0341 17.4306 46.0322 17.4315C46.0286 17.4333 46.0254 17.435 46.0229 17.4363C46.0145 17.4406 46.0043 17.4461 45.9932 17.4523C45.9706 17.4647 45.9387 17.4826 45.8987 17.5053C45.8183 17.5509 45.7018 17.6176 45.5534 17.703C45.2566 17.8739 44.8308 18.1204 44.3075 18.4243C43.261 19.032 41.8242 19.8693 40.2495 20.7895L34.5243 24.1355L34.4004 24.2079V24.3514V31.0001V37.6489V37.7926L34.5245 37.8649L40.2858 41.2234L46.047 44.582L46.173 44.6554L46.2989 44.582L52.0601 41.2234L57.8214 37.8649L57.9455 37.7926V37.6489V31V24.3511ZM53.8966 27.0795L53.784 27.3027L53.8965 27.0795C53.1318 26.694 51.0075 25.46 49.051 24.2896C48.0746 23.7056 47.1437 23.1397 46.4498 22.7065C46.1026 22.4897 45.8163 22.3071 45.6138 22.1725C45.5122 22.105 45.4341 22.0511 45.3807 22.0119C45.3613 21.9976 45.3466 21.9863 45.3362 21.9779C45.1657 21.6362 45.2366 21.1397 45.5058 20.8571L45.3247 20.6846L45.5058 20.857C45.6543 20.7011 45.7466 20.6355 45.8551 20.6122C45.9701 20.5875 46.1509 20.6011 46.4914 20.7302C47.1759 20.9899 48.3344 21.645 50.5436 22.9277C51.6629 23.5777 52.7166 24.2007 53.5122 24.6806C53.9102 24.9206 54.2428 25.1244 54.4865 25.2777C54.6085 25.3544 54.7071 25.4178 54.7801 25.4664C54.8166 25.4907 54.8456 25.5106 54.8674 25.5262C54.873 25.5302 54.8779 25.5338 54.8823 25.5369C54.8863 25.5399 54.8898 25.5426 54.8928 25.5449C54.8994 25.5499 54.9016 25.5519 54.9011 25.5514C55.2456 25.8569 55.2365 26.3327 54.983 26.7155C54.7297 27.0983 54.3025 27.2841 53.8966 27.0795ZM45.3514 22.0068L45.3513 22.0067L45.3514 22.0068ZM28.2696 25.5259L28.2697 25.5259C28.3501 25.4635 28.466 25.4009 28.5889 25.354C28.7146 25.3062 28.8235 25.2839 28.8891 25.2839C28.9548 25.2839 29.0637 25.3062 29.1893 25.354C29.3123 25.4009 29.4282 25.4635 29.5086 25.5259L29.5087 25.5259L29.7914 25.7452V31V36.2548L29.5087 36.4741L29.5086 36.4741C29.1153 36.7793 28.663 36.7793 28.2697 36.4741L28.2696 36.4741L27.9869 36.2548V31V25.7452L28.2696 25.5259ZM12.3191 34.9266L12.3192 34.9266C12.3715 34.9058 12.4125 34.8886 12.4461 34.8745C12.5436 34.8336 12.5781 34.819 12.6449 34.8199C12.7385 34.8211 12.9019 34.8615 13.28 35.0452C13.9507 35.371 15.1718 36.0811 17.6414 37.5171C17.9216 37.6801 18.218 37.8524 18.5314 38.0345C19.3692 38.5215 20.1471 38.9948 20.7249 39.3647C21.0141 39.5498 21.2511 39.7077 21.4197 39.8277C21.5043 39.888 21.5688 39.9366 21.6131 39.973C21.6329 39.9894 21.6465 40.0015 21.655 40.0096C21.8324 40.3532 21.7624 40.8577 21.4906 41.1429L21.4905 41.143C21.342 41.2989 21.2497 41.3645 21.1412 41.3878C21.0262 41.4125 20.8455 41.3989 20.505 41.2698C19.8204 41.0101 18.6619 40.355 16.4527 39.0723C15.3334 38.4223 14.2798 37.7993 13.4841 37.3194C13.0862 37.0794 12.7535 36.8756 12.5098 36.7223C12.3878 36.6456 12.2892 36.5822 12.2162 36.5336C12.1797 36.5093 12.1507 36.4894 12.1289 36.4738C12.118 36.4661 12.1097 36.4599 12.1035 36.4551C12.1 36.4525 12.0978 36.4507 12.0965 36.4496C12.0954 36.4487 12.095 36.4484 12.0953 36.4486C11.8977 36.2735 11.8087 35.9526 11.8601 35.6174C11.9117 35.2808 12.0903 35.0175 12.3191 34.9266ZM21.6458 39.9924L21.6459 39.9925L21.6458 39.9924Z" fill="#231F20" stroke="white" stroke-width="0.5"/>
</svg>
