<svg width="60" height="62" viewBox="0 0 60 62" fill="none" xmlns="http://www.w3.org/2000/svg">
<g clip-path="url(#clip0_48_7923)">
<mask id="path-1-inside-1_48_7923" fill="white">
<path fill-rule="evenodd" clip-rule="evenodd" d="M0.142553 8.14126C-0.0608725 8.34542 -0.0400924 53.5387 0.163552 53.8079C0.296544 53.9838 0.601683 54 3.76539 54C7.07084 54 7.22691 53.9907 7.33518 53.7877C7.41196 53.6437 7.44838 47.5832 7.44838 34.9635V16.3515H15.5963H23.7443V16.7357V17.1198H22.8224C21.568 17.1198 21.5569 17.1337 21.5569 18.7135V19.9621L18.1392 19.9953L14.7214 20.0285L14.1357 20.3541C13.3824 20.7728 12.7661 21.4805 12.4734 22.2625C12.1682 23.0783 12.2067 24.3 12.5605 25.0227C12.8606 25.6357 13.581 26.3897 14.1679 26.7049L14.612 26.9436H30.0877H45.5633L46.1181 26.6498C46.4641 26.4664 46.84 26.1363 47.1177 25.7717C48.1158 24.4611 48.2746 23.4638 47.6887 22.1867C47.2639 21.2608 46.7242 20.6913 45.8915 20.29L45.2352 19.9739L41.5987 19.9738L37.9622 19.9737V18.7192C37.9622 17.1435 37.9443 17.1198 36.7514 17.1198H35.8842V16.7357V16.3515H44.3056H52.727L52.7305 34.9837C52.7333 50.3751 52.7594 53.6495 52.8803 53.8095C53.0157 53.9885 53.2905 54.0009 56.5134 53.9741L60 53.9451V31.0048V8.06443L56.5133 8.03545C54.0315 8.01482 52.9834 8.04237 52.8768 8.13117C52.7668 8.22282 52.727 8.57307 52.727 9.44985V10.6438H44.2712H35.8153L35.6444 10.2839C35.357 9.67915 34.8812 9.19817 34.3029 8.92793C33.757 8.67284 33.713 8.67021 29.8689 8.66977C27.488 8.66955 25.8262 8.71401 25.5723 8.7848C25.0859 8.92025 24.172 9.76739 23.9517 10.2871L23.8003 10.6438H15.6243H7.44838V9.45841C7.44838 8.68272 7.40299 8.22743 7.31714 8.14126C7.12946 7.95291 0.33023 7.95291 0.142553 8.14126ZM6.02659 31.0048V52.4633H3.78453H1.54247V31.0048V9.54622H3.78453H6.02659V31.0048ZM58.7423 31.0048V52.4633H56.5002H54.2582V31.0048V9.54622H56.5002H58.7423V31.0048ZM33.6819 10.4132C34.3141 10.8658 34.3531 11.089 34.3531 14.2625V17.1198H29.8143H25.2755L25.2761 14.2934C25.2764 12.739 25.3254 11.2909 25.3851 11.0757C25.5059 10.6389 25.8904 10.2491 26.2778 10.1709C26.4183 10.1425 28.0589 10.1261 29.9236 10.1346L33.3141 10.1499L33.6819 10.4132ZM23.7443 13.5526V14.9246H15.5963H7.44838V13.5526V12.1805H15.5963H23.7443V13.5526ZM52.727 13.5526V14.9246H44.3056H35.8842V13.5526V12.1805H44.3056H52.727V13.5526ZM36.4311 19.3151V19.9737H29.7049H22.9787V19.3151V18.6565H25.2755V17.1198H34.3531V18.6565H36.4311V19.3151ZM44.8876 21.628C45.3695 21.7623 46.1387 22.416 46.2941 22.8232C46.4522 23.2373 46.4242 23.967 46.2363 24.3317C46.061 24.6719 45.4404 25.1528 44.9274 25.3459C44.7167 25.4251 40.0164 25.461 30.0532 25.4594C13.6005 25.4566 15.0113 25.535 14.1958 24.5788C13.648 23.9366 13.6182 23.2829 14.1038 22.5631C14.4602 22.0349 14.8522 21.735 15.3364 21.6203C15.9207 21.4819 44.3897 21.4893 44.8876 21.628ZM14.6337 35.7184C13.6499 36.0705 12.8397 36.8731 12.4665 37.8649C12.1409 38.7304 12.2102 40.0417 12.6186 40.7409C12.9894 41.3761 13.5972 41.9847 14.165 42.2898C14.5935 42.5199 14.7552 42.5311 18.0845 42.563L21.5569 42.5961V43.8906C21.5569 45.5196 21.5792 45.5483 22.8507 45.5483H23.7443V48.68C23.7443 52.1782 23.7651 52.3003 24.4879 53.0451C24.7105 53.2745 25.0983 53.5832 25.3496 53.7311L25.8066 54H29.7807C33.6082 54 33.7709 53.9914 34.1907 53.7693C34.7933 53.4502 35.195 53.0526 35.5661 52.4084L35.8821 51.8596L35.8832 48.704L35.8842 45.5483H36.7422C37.9311 45.5483 37.9622 45.5055 37.9622 43.871V42.5952L41.7628 42.5625L45.5633 42.5298L46.1246 42.2327C46.6893 41.9338 47.0761 41.5206 47.6436 40.6098C47.8833 40.2254 47.962 39.9451 48.0007 39.3389C48.0455 38.6393 48.0155 38.485 47.7018 37.8015C47.2642 36.8479 46.731 36.2807 45.8915 35.8762L45.2352 35.5601L30.1424 35.5649C17.7244 35.5687 14.9758 35.5959 14.6337 35.7184ZM44.9259 37.2399C45.3158 37.3872 46.0837 38.0566 46.2757 38.4163C46.4532 38.7493 46.4325 39.537 46.2363 39.9179C46.0463 40.2866 45.3371 40.8129 44.757 41.0158C44.4453 41.1248 41.3092 41.1548 30.1192 41.1562C16.006 41.1578 15.8726 41.1557 15.2759 40.9317C14.2732 40.5552 13.6694 39.7145 13.7706 38.8362C13.821 38.4002 14.8537 37.3169 15.3229 37.2079C15.9779 37.0559 44.5202 37.0868 44.9259 37.2399ZM36.4311 43.2982V44.0116H34.3531V45.5483H25.26V44.0116H22.9787V43.2982V42.5847H29.7049H36.4311V43.2982ZM34.3531 48.3788C34.3531 51.0966 34.3432 51.2288 34.107 51.6972C33.73 52.4443 33.5243 52.4775 29.4862 52.4399C26.9909 52.4168 26.0314 52.3716 25.8522 52.2687C25.3598 51.9863 25.332 51.8032 25.295 48.5942L25.26 45.5483H29.8065H34.3531V48.3788Z"/>
</mask>
<path fill-rule="evenodd" clip-rule="evenodd" d="M0.142553 8.14126C-0.0608725 8.34542 -0.0400924 53.5387 0.163552 53.8079C0.296544 53.9838 0.601683 54 3.76539 54C7.07084 54 7.22691 53.9907 7.33518 53.7877C7.41196 53.6437 7.44838 47.5832 7.44838 34.9635V16.3515H15.5963H23.7443V16.7357V17.1198H22.8224C21.568 17.1198 21.5569 17.1337 21.5569 18.7135V19.9621L18.1392 19.9953L14.7214 20.0285L14.1357 20.3541C13.3824 20.7728 12.7661 21.4805 12.4734 22.2625C12.1682 23.0783 12.2067 24.3 12.5605 25.0227C12.8606 25.6357 13.581 26.3897 14.1679 26.7049L14.612 26.9436H30.0877H45.5633L46.1181 26.6498C46.4641 26.4664 46.84 26.1363 47.1177 25.7717C48.1158 24.4611 48.2746 23.4638 47.6887 22.1867C47.2639 21.2608 46.7242 20.6913 45.8915 20.29L45.2352 19.9739L41.5987 19.9738L37.9622 19.9737V18.7192C37.9622 17.1435 37.9443 17.1198 36.7514 17.1198H35.8842V16.7357V16.3515H44.3056H52.727L52.7305 34.9837C52.7333 50.3751 52.7594 53.6495 52.8803 53.8095C53.0157 53.9885 53.2905 54.0009 56.5134 53.9741L60 53.9451V31.0048V8.06443L56.5133 8.03545C54.0315 8.01482 52.9834 8.04237 52.8768 8.13117C52.7668 8.22282 52.727 8.57307 52.727 9.44985V10.6438H44.2712H35.8153L35.6444 10.2839C35.357 9.67915 34.8812 9.19817 34.3029 8.92793C33.757 8.67284 33.713 8.67021 29.8689 8.66977C27.488 8.66955 25.8262 8.71401 25.5723 8.7848C25.0859 8.92025 24.172 9.76739 23.9517 10.2871L23.8003 10.6438H15.6243H7.44838V9.45841C7.44838 8.68272 7.40299 8.22743 7.31714 8.14126C7.12946 7.95291 0.33023 7.95291 0.142553 8.14126ZM6.02659 31.0048V52.4633H3.78453H1.54247V31.0048V9.54622H3.78453H6.02659V31.0048ZM58.7423 31.0048V52.4633H56.5002H54.2582V31.0048V9.54622H56.5002H58.7423V31.0048ZM33.6819 10.4132C34.3141 10.8658 34.3531 11.089 34.3531 14.2625V17.1198H29.8143H25.2755L25.2761 14.2934C25.2764 12.739 25.3254 11.2909 25.3851 11.0757C25.5059 10.6389 25.8904 10.2491 26.2778 10.1709C26.4183 10.1425 28.0589 10.1261 29.9236 10.1346L33.3141 10.1499L33.6819 10.4132ZM23.7443 13.5526V14.9246H15.5963H7.44838V13.5526V12.1805H15.5963H23.7443V13.5526ZM52.727 13.5526V14.9246H44.3056H35.8842V13.5526V12.1805H44.3056H52.727V13.5526ZM36.4311 19.3151V19.9737H29.7049H22.9787V19.3151V18.6565H25.2755V17.1198H34.3531V18.6565H36.4311V19.3151ZM44.8876 21.628C45.3695 21.7623 46.1387 22.416 46.2941 22.8232C46.4522 23.2373 46.4242 23.967 46.2363 24.3317C46.061 24.6719 45.4404 25.1528 44.9274 25.3459C44.7167 25.4251 40.0164 25.461 30.0532 25.4594C13.6005 25.4566 15.0113 25.535 14.1958 24.5788C13.648 23.9366 13.6182 23.2829 14.1038 22.5631C14.4602 22.0349 14.8522 21.735 15.3364 21.6203C15.9207 21.4819 44.3897 21.4893 44.8876 21.628ZM14.6337 35.7184C13.6499 36.0705 12.8397 36.8731 12.4665 37.8649C12.1409 38.7304 12.2102 40.0417 12.6186 40.7409C12.9894 41.3761 13.5972 41.9847 14.165 42.2898C14.5935 42.5199 14.7552 42.5311 18.0845 42.563L21.5569 42.5961V43.8906C21.5569 45.5196 21.5792 45.5483 22.8507 45.5483H23.7443V48.68C23.7443 52.1782 23.7651 52.3003 24.4879 53.0451C24.7105 53.2745 25.0983 53.5832 25.3496 53.7311L25.8066 54H29.7807C33.6082 54 33.7709 53.9914 34.1907 53.7693C34.7933 53.4502 35.195 53.0526 35.5661 52.4084L35.8821 51.8596L35.8832 48.704L35.8842 45.5483H36.7422C37.9311 45.5483 37.9622 45.5055 37.9622 43.871V42.5952L41.7628 42.5625L45.5633 42.5298L46.1246 42.2327C46.6893 41.9338 47.0761 41.5206 47.6436 40.6098C47.8833 40.2254 47.962 39.9451 48.0007 39.3389C48.0455 38.6393 48.0155 38.485 47.7018 37.8015C47.2642 36.8479 46.731 36.2807 45.8915 35.8762L45.2352 35.5601L30.1424 35.5649C17.7244 35.5687 14.9758 35.5959 14.6337 35.7184ZM44.9259 37.2399C45.3158 37.3872 46.0837 38.0566 46.2757 38.4163C46.4532 38.7493 46.4325 39.537 46.2363 39.9179C46.0463 40.2866 45.3371 40.8129 44.757 41.0158C44.4453 41.1248 41.3092 41.1548 30.1192 41.1562C16.006 41.1578 15.8726 41.1557 15.2759 40.9317C14.2732 40.5552 13.6694 39.7145 13.7706 38.8362C13.821 38.4002 14.8537 37.3169 15.3229 37.2079C15.9779 37.0559 44.5202 37.0868 44.9259 37.2399ZM36.4311 43.2982V44.0116H34.3531V45.5483H25.26V44.0116H22.9787V43.2982V42.5847H29.7049H36.4311V43.2982ZM34.3531 48.3788C34.3531 51.0966 34.3432 51.2288 34.107 51.6972C33.73 52.4443 33.5243 52.4775 29.4862 52.4399C26.9909 52.4168 26.0314 52.3716 25.8522 52.2687C25.3598 51.9863 25.332 51.8032 25.295 48.5942L25.26 45.5483H29.8065H34.3531V48.3788Z" fill="#231F20"/>
<path d="M0.142553 8.14126L0.0717155 8.07068L0.142553 8.14126ZM0.163552 53.8079L0.243309 53.7476H0.243308L0.163552 53.8079ZM7.33518 53.7877L7.42341 53.8348L7.42342 53.8348L7.33518 53.7877ZM7.44838 16.3515V16.2515H7.34838V16.3515H7.44838ZM23.7443 16.3515H23.8443V16.2515H23.7443V16.3515ZM23.7443 17.1198V17.2198H23.8443V17.1198H23.7443ZM21.5569 19.9621L21.5579 20.0621L21.6569 20.0612V19.9621H21.5569ZM18.1392 19.9953L18.1382 19.8953H18.1382L18.1392 19.9953ZM14.7214 20.0285L14.7204 19.9285L14.695 19.9288L14.6728 19.9411L14.7214 20.0285ZM14.1357 20.3541L14.1843 20.4415H14.1843L14.1357 20.3541ZM12.4734 22.2625L12.3798 22.2275L12.3798 22.2275L12.4734 22.2625ZM12.5605 25.0227L12.6503 24.9788L12.6503 24.9788L12.5605 25.0227ZM14.1679 26.7049L14.2152 26.6169L14.2152 26.6168L14.1679 26.7049ZM14.612 26.9436L14.5647 27.0317L14.5869 27.0436H14.612V26.9436ZM45.5633 26.9436V27.0436H45.5882L45.6101 27.0319L45.5633 26.9436ZM46.1181 26.6498L46.1649 26.7382L46.1649 26.7382L46.1181 26.6498ZM47.1177 25.7717L47.1972 25.8323L47.1973 25.8323L47.1177 25.7717ZM47.6887 22.1867L47.7796 22.145L47.7796 22.145L47.6887 22.1867ZM45.8915 20.29L45.9349 20.1999L45.9349 20.1999L45.8915 20.29ZM45.2352 19.9739L45.2786 19.8838L45.2581 19.8739L45.2352 19.8739L45.2352 19.9739ZM41.5987 19.9738L41.5987 20.0738L41.5987 19.9738ZM37.9622 19.9737H37.8622V20.0736L37.9622 20.0737L37.9622 19.9737ZM35.8842 17.1198H35.7842V17.2198H35.8842V17.1198ZM35.8842 16.3515V16.2515H35.7842V16.3515H35.8842ZM52.727 16.3515L52.827 16.3515L52.827 16.2515H52.727V16.3515ZM52.7305 34.9837L52.8305 34.9836L52.7305 34.9837ZM52.8803 53.8095L52.9601 53.7491L52.9601 53.7491L52.8803 53.8095ZM56.5134 53.9741L56.5143 54.0741L56.5134 53.9741ZM60 53.9451L60.0008 54.0451L60.1 54.0443V53.9451H60ZM60 8.06443H60.1V7.96526L60.0008 7.96443L60 8.06443ZM56.5133 8.03545L56.5125 8.13545L56.5133 8.03545ZM52.8768 8.13117L52.9408 8.208L52.9409 8.20798L52.8768 8.13117ZM52.727 10.6438V10.7438H52.827V10.6438H52.727ZM35.8153 10.6438L35.725 10.6867L35.7521 10.7438H35.8153V10.6438ZM35.6444 10.2839L35.7347 10.241L35.7347 10.241L35.6444 10.2839ZM34.3029 8.92793L34.2605 9.01853L34.2605 9.01853L34.3029 8.92793ZM29.8689 8.66977L29.869 8.56977H29.869L29.8689 8.66977ZM25.5723 8.7848L25.5991 8.88114L25.5991 8.88113L25.5723 8.7848ZM23.9517 10.2871L24.0437 10.3262L24.0437 10.3262L23.9517 10.2871ZM23.8003 10.6438V10.7438H23.8665L23.8924 10.6829L23.8003 10.6438ZM7.44838 10.6438H7.34838V10.7438H7.44838V10.6438ZM7.31714 8.14126L7.38797 8.07068L7.31714 8.14126ZM6.02659 52.4633V52.5633H6.12659V52.4633H6.02659ZM1.54247 52.4633H1.44247V52.5633H1.54247V52.4633ZM1.54247 9.54622V9.44622H1.44247V9.54622H1.54247ZM6.02659 9.54622H6.12659V9.44622H6.02659V9.54622ZM58.7423 52.4633V52.5633H58.8423V52.4633H58.7423ZM54.2582 52.4633H54.1582V52.5633H54.2582V52.4633ZM54.2582 9.54622V9.44622H54.1582V9.54622H54.2582ZM58.7423 9.54622H58.8423V9.44622H58.7423V9.54622ZM33.6819 10.4132L33.6237 10.4945L33.6237 10.4946L33.6819 10.4132ZM25.2755 17.1198L25.1755 17.1198V17.1198H25.2755ZM25.2761 14.2934L25.3761 14.2935V14.2935L25.2761 14.2934ZM25.3851 11.0757L25.4814 11.1023L25.4814 11.1023L25.3851 11.0757ZM26.2778 10.1709L26.2976 10.2689L26.2977 10.2689L26.2778 10.1709ZM29.9236 10.1346L29.9232 10.2345L29.9236 10.1346ZM33.3141 10.1499L33.3723 10.0686L33.3464 10.0501L33.3145 10.0499L33.3141 10.1499ZM23.7443 14.9246V15.0246H23.8443V14.9246H23.7443ZM7.44838 14.9246H7.34838V15.0246H7.44838V14.9246ZM7.44838 12.1805V12.0805H7.34838V12.1805H7.44838ZM23.7443 12.1805H23.8443V12.0805H23.7443V12.1805ZM52.727 14.9246V15.0246H52.827V14.9246H52.727ZM35.8842 14.9246H35.7842V15.0246H35.8842V14.9246ZM35.8842 12.1805V12.0805H35.7842V12.1805H35.8842ZM52.727 12.1805H52.827V12.0805H52.727V12.1805ZM36.4311 19.9737V20.0737H36.5311V19.9737H36.4311ZM22.9787 19.9737H22.8787V20.0737H22.9787V19.9737ZM22.9787 18.6565V18.5565H22.8787V18.6565H22.9787ZM36.4311 18.6565H36.5311V18.5565H36.4311V18.6565ZM44.8876 21.628L44.9144 21.5317L44.9144 21.5317L44.8876 21.628ZM46.2941 22.8232L46.3876 22.7875L46.3876 22.7875L46.2941 22.8232ZM46.2363 24.3317L46.1474 24.2859L46.1474 24.2859L46.2363 24.3317ZM44.9274 25.3459L44.9626 25.4395L44.9626 25.4395L44.9274 25.3459ZM30.0532 25.4594L30.0532 25.5594L30.0532 25.4594ZM14.1958 24.5788L14.1197 24.6437L14.1197 24.6437L14.1958 24.5788ZM14.1038 22.5631L14.0209 22.5071L14.0209 22.5071L14.1038 22.5631ZM15.3364 21.6203L15.3133 21.523H15.3133L15.3364 21.6203ZM14.6337 35.7184L14.6674 35.8126L14.6674 35.8126L14.6337 35.7184ZM12.4665 37.8649L12.3729 37.8297L12.3729 37.8297L12.4665 37.8649ZM12.6186 40.7409L12.7049 40.6905L12.7049 40.6905L12.6186 40.7409ZM14.165 42.2898L14.1177 42.3779L14.1177 42.3779L14.165 42.2898ZM18.0845 42.563L18.0835 42.663H18.0835L18.0845 42.563ZM21.5569 42.5961H21.6569V42.4971L21.5579 42.4961L21.5569 42.5961ZM23.7443 45.5483H23.8443V45.4483H23.7443V45.5483ZM24.4879 53.0451L24.5597 52.9754L24.5597 52.9754L24.4879 53.0451ZM25.3496 53.7311L25.4003 53.6449L25.4003 53.6449L25.3496 53.7311ZM25.8066 54L25.7558 54.0862L25.7793 54.1H25.8066V54ZM34.1907 53.7693L34.2374 53.8577L34.2374 53.8577L34.1907 53.7693ZM35.5661 52.4084L35.6527 52.4584L35.6527 52.4584L35.5661 52.4084ZM35.8821 51.8596L35.9688 51.9095L35.9821 51.8864L35.9821 51.8597L35.8821 51.8596ZM35.8832 48.704L35.9832 48.704V48.704L35.8832 48.704ZM35.8842 45.5483V45.4483H35.7843L35.7842 45.5483L35.8842 45.5483ZM37.9622 42.5952L37.9614 42.4953L37.8622 42.4961V42.5952H37.9622ZM41.7628 42.5625L41.7636 42.6625L41.7628 42.5625ZM45.5633 42.5298L45.5642 42.6298L45.5886 42.6296L45.6101 42.6182L45.5633 42.5298ZM46.1246 42.2327L46.0778 42.1443L46.0778 42.1443L46.1246 42.2327ZM47.6436 40.6098L47.5588 40.5569L47.5588 40.5569L47.6436 40.6098ZM48.0007 39.3389L47.9009 39.3325V39.3325L48.0007 39.3389ZM47.7018 37.8015L47.6109 37.8432L47.6109 37.8432L47.7018 37.8015ZM45.8915 35.8762L45.9349 35.7862L45.9349 35.7862L45.8915 35.8762ZM45.2352 35.5601L45.2786 35.47L45.2581 35.4601L45.2352 35.4601L45.2352 35.5601ZM30.1424 35.5649L30.1424 35.6649L30.1424 35.5649ZM44.9259 37.2399L44.9613 37.1464L44.9613 37.1464L44.9259 37.2399ZM46.2757 38.4163L46.3639 38.3692L46.3639 38.3692L46.2757 38.4163ZM46.2363 39.9179L46.3252 39.9637L46.3252 39.9637L46.2363 39.9179ZM44.757 41.0158L44.724 40.9214L44.757 41.0158ZM30.1192 41.1562L30.1192 41.2561L30.1192 41.1562ZM15.2759 40.9317L15.2407 41.0253L15.2407 41.0253L15.2759 40.9317ZM13.7706 38.8362L13.6713 38.8247L13.6713 38.8248L13.7706 38.8362ZM15.3229 37.2079L15.3003 37.1105L15.3003 37.1105L15.3229 37.2079ZM36.4311 44.0116V44.1116H36.5311V44.0116H36.4311ZM25.26 45.5483H25.16L25.16 45.5494L25.26 45.5483ZM22.9787 44.0116H22.8787V44.1116H22.9787V44.0116ZM22.9787 42.5847V42.4847H22.8787V42.5847H22.9787ZM36.4311 42.5847H36.5311V42.4847H36.4311V42.5847ZM34.107 51.6972L34.1963 51.7422L34.1963 51.7422L34.107 51.6972ZM29.4862 52.4399L29.4871 52.34L29.4862 52.4399ZM25.8522 52.2687L25.9019 52.182L25.9019 52.182L25.8522 52.2687ZM25.295 48.5942L25.195 48.5953V48.5954L25.295 48.5942ZM25.2755 18.6565V18.7565H25.3755V18.6565H25.2755ZM34.3531 18.6565H34.2531V18.7565H34.3531V18.6565ZM25.26 44.0116H25.36V43.9116H25.26V44.0116ZM34.3531 44.0116V43.9116H34.2531V44.0116H34.3531ZM0.0717155 8.07068C0.0545918 8.08787 0.0478079 8.10712 0.046207 8.11152C0.0433371 8.11941 0.0414547 8.12693 0.0401977 8.1326C0.0376261 8.14419 0.0356211 8.15756 0.0339379 8.17117C0.030507 8.19891 0.027345 8.23666 0.0243463 8.28301C0.0183184 8.37617 0.0125751 8.51017 0.00707953 8.6816C-0.00392154 9.02478 -0.0140383 9.52155 -0.0232917 10.1496C-0.0418011 11.4059 -0.0568831 13.1894 -0.0686219 15.3244C-0.0921001 19.5944 -0.10221 25.2714 -0.0995987 30.9502C-0.0969875 36.6291 -0.0816551 42.3101 -0.0542463 46.5883C-0.0405422 48.7273 -0.0238176 50.5159 -0.00415006 51.7783C0.00568239 52.4094 0.0162573 52.9095 0.0275749 53.2562C0.033229 53.4294 0.0390948 53.5652 0.0452033 53.6602C0.0482446 53.7075 0.0514304 53.7461 0.0548509 53.7746C0.056538 53.7887 0.0584935 53.8022 0.0609064 53.8138C0.0620991 53.8195 0.0637559 53.8265 0.0661198 53.8338C0.0677579 53.8388 0.0726607 53.8535 0.0837956 53.8682L0.243308 53.7476C0.252852 53.7602 0.25617 53.7715 0.256228 53.7716C0.257012 53.774 0.257095 53.7749 0.256719 53.7731C0.255994 53.7696 0.254835 53.7626 0.253429 53.7508C0.250665 53.7278 0.247755 53.6935 0.244791 53.6474C0.238889 53.5556 0.233103 53.4223 0.227468 53.2497C0.216208 52.9047 0.205654 52.406 0.195826 51.7752C0.176173 50.5137 0.159453 48.7259 0.14575 46.587C0.118344 42.3093 0.103012 36.6288 0.100401 30.9501C0.0977902 25.2715 0.1079 19.595 0.131375 15.3255C0.143113 13.1907 0.158191 11.4079 0.176687 10.1525C0.185936 9.52479 0.196033 9.02941 0.206977 8.68801C0.212454 8.51716 0.218116 8.38577 0.223929 8.29592C0.226851 8.25076 0.229718 8.21761 0.232425 8.19572C0.233811 8.18451 0.234903 8.17838 0.235455 8.17589C0.23576 8.17452 0.235446 8.17635 0.234152 8.1799C0.234127 8.17997 0.228925 8.19626 0.213391 8.21185L0.0717155 8.07068ZM0.0837949 53.8682C0.132774 53.933 0.197385 53.9777 0.311361 54.0086C0.419155 54.0379 0.577832 54.0567 0.822628 54.0698C1.31435 54.096 2.1849 54.1 3.76539 54.1V53.9C2.18218 53.9 1.3183 53.8959 0.833278 53.87C0.589702 53.8571 0.449426 53.8389 0.363737 53.8156C0.284229 53.794 0.260826 53.7708 0.243309 53.7476L0.0837949 53.8682ZM3.76539 54.1C5.41623 54.1 6.28563 54.0977 6.75516 54.0698C6.98791 54.0559 7.13398 54.0354 7.2305 54.0006C7.28104 53.9823 7.32148 53.959 7.35451 53.9282C7.38724 53.8977 7.40766 53.8643 7.42341 53.8348L7.24695 53.7407C7.23563 53.7619 7.22749 53.7732 7.21805 53.782C7.20891 53.7905 7.19357 53.8013 7.1626 53.8124C7.09611 53.8364 6.97627 53.8563 6.74329 53.8701C6.28135 53.8976 5.41999 53.9 3.76539 53.9V54.1ZM7.42342 53.8348C7.43119 53.8202 7.43469 53.8056 7.43622 53.799C7.43824 53.7902 7.43987 53.7806 7.44123 53.7712C7.44399 53.7521 7.44647 53.7278 7.44878 53.6993C7.45342 53.6419 7.45781 53.5617 7.462 53.4592C7.4704 53.2539 7.47813 52.9551 7.48524 52.5621C7.49946 51.7759 7.51122 50.61 7.52057 49.0546C7.53927 45.9437 7.54838 41.2734 7.54838 34.9635H7.34838C7.34838 41.2733 7.33927 45.9431 7.32057 49.0534C7.31122 50.6086 7.29947 51.7735 7.28527 52.5585C7.27817 52.9511 7.27047 53.2481 7.26217 53.451C7.25802 53.5527 7.25375 53.6298 7.24943 53.6832C7.24726 53.71 7.24517 53.7295 7.24329 53.7426C7.24233 53.7492 7.24162 53.7528 7.24128 53.7543C7.24045 53.7579 7.24157 53.7507 7.24694 53.7407L7.42342 53.8348ZM7.54838 34.9635V16.3515H7.34838V34.9635H7.54838ZM7.44838 16.4515H15.5963V16.2515H7.44838V16.4515ZM15.5963 16.4515H23.7443V16.2515H15.5963V16.4515ZM23.6443 16.3515V16.7357H23.8443V16.3515H23.6443ZM23.6443 16.7357V17.1198H23.8443V16.7357H23.6443ZM23.7443 17.0198H22.8224V17.2198H23.7443V17.0198ZM22.8224 17.0198C22.5116 17.0198 22.2673 17.0205 22.081 17.0477C21.8926 17.0753 21.7437 17.1327 21.641 17.262C21.542 17.3866 21.4996 17.5618 21.4787 17.7888C21.4575 18.0179 21.4569 18.3203 21.4569 18.7135H21.6569C21.6569 18.3167 21.6577 18.025 21.6778 17.8072C21.6981 17.5872 21.737 17.4627 21.7976 17.3864C21.8544 17.3148 21.9435 17.27 22.11 17.2456C22.2786 17.2209 22.506 17.2198 22.8224 17.2198V17.0198ZM21.4569 18.7135V19.9621H21.6569V18.7135H21.4569ZM21.556 19.8621L18.1382 19.8953L18.1401 20.0953L21.5579 20.0621L21.556 19.8621ZM18.1382 19.8953L14.7204 19.9285L14.7224 20.1285L18.1401 20.0953L18.1382 19.8953ZM14.6728 19.9411L14.0871 20.2667L14.1843 20.4415L14.77 20.1159L14.6728 19.9411ZM14.0871 20.2667C13.3138 20.6966 12.6811 21.4224 12.3798 22.2275L12.5671 22.2976C12.8511 21.5385 13.451 20.8491 14.1843 20.4415L14.0871 20.2667ZM12.3798 22.2275C12.2215 22.6504 12.1539 23.1733 12.1699 23.6807C12.1858 24.1876 12.2856 24.6888 12.4707 25.0667L12.6503 24.9788C12.4815 24.634 12.3852 24.163 12.3698 23.6744C12.3544 23.1862 12.4201 22.6904 12.5671 22.2976L12.3798 22.2275ZM12.4707 25.0667C12.6266 25.3852 12.8888 25.7353 13.1843 26.0446C13.4798 26.3538 13.8149 26.6288 14.1206 26.793L14.2152 26.6168C13.934 26.4658 13.6154 26.2062 13.3289 25.9064C13.0426 25.6067 12.7945 25.2733 12.6503 24.9788L12.4707 25.0667ZM14.1205 26.793L14.5647 27.0317L14.6594 26.8555L14.2152 26.6169L14.1205 26.793ZM14.612 27.0436H30.0877V26.8436H14.612V27.0436ZM30.0877 27.0436H45.5633V26.8436H30.0877V27.0436ZM45.6101 27.0319L46.1649 26.7382L46.0713 26.5615L45.5166 26.8552L45.6101 27.0319ZM46.1649 26.7382C46.5257 26.547 46.9123 26.2064 47.1972 25.8323L47.0381 25.7111C46.7678 26.0661 46.4025 26.3859 46.0712 26.5615L46.1649 26.7382ZM47.1973 25.8323C47.7016 25.1701 48.0011 24.5777 48.096 23.9823C48.1911 23.385 48.0784 22.7962 47.7796 22.145L47.5978 22.2284C47.8849 22.8542 47.9858 23.4026 47.8984 23.9509C47.8108 24.5011 47.5319 25.0627 47.0381 25.7112L47.1973 25.8323ZM47.7796 22.145C47.3462 21.2003 46.7907 20.6124 45.9349 20.1999L45.848 20.3801C46.6576 20.7702 47.1817 21.3214 47.5978 22.2284L47.7796 22.145ZM45.9349 20.1999L45.2786 19.8838L45.1918 20.064L45.8481 20.3801L45.9349 20.1999ZM45.2352 19.8739L41.5987 19.8738L41.5987 20.0738L45.2352 20.0739L45.2352 19.8739ZM41.5987 19.8738L37.9622 19.8737L37.9622 20.0737L41.5987 20.0738L41.5987 19.8738ZM38.0622 19.9737V18.7192H37.8622V19.9737H38.0622ZM38.0622 18.7192C38.0622 18.3269 38.0612 18.0248 38.0404 17.7955C38.0198 17.5684 37.9786 17.3934 37.8839 17.2683C37.785 17.1376 37.6413 17.0782 37.4595 17.0494C37.2806 17.021 37.0469 17.0198 36.7514 17.0198V17.2198C37.0523 17.2198 37.2682 17.2216 37.4282 17.2469C37.5852 17.2718 37.6697 17.3168 37.7244 17.389C37.7833 17.4668 37.8212 17.5931 37.8412 17.8136C37.861 18.0319 37.8622 18.3237 37.8622 18.7192H38.0622ZM36.7514 17.0198H35.8842V17.2198H36.7514V17.0198ZM35.9842 17.1198V16.7357H35.7842V17.1198H35.9842ZM35.9842 16.7357V16.3515H35.7842V16.7357H35.9842ZM35.8842 16.4515H44.3056V16.2515H35.8842V16.4515ZM44.3056 16.4515H52.727V16.2515H44.3056V16.4515ZM52.627 16.3515L52.6305 34.9837L52.8305 34.9836L52.827 16.3515L52.627 16.3515ZM52.6305 34.9837C52.6319 42.6793 52.6391 47.3462 52.6611 50.1092C52.6721 51.4905 52.6868 52.3969 52.7063 52.9683C52.7161 53.2537 52.7271 53.4572 52.7397 53.595C52.7459 53.6637 52.7528 53.7181 52.7604 53.7592C52.7643 53.7796 52.7687 53.7986 52.7739 53.8153C52.7786 53.83 52.7864 53.8511 52.8006 53.8698L52.9601 53.7491C52.9667 53.7578 52.9671 53.7628 52.9646 53.7549C52.9627 53.7488 52.96 53.7384 52.957 53.7224C52.951 53.6904 52.9449 53.643 52.9389 53.5768C52.9268 53.4448 52.916 53.246 52.9062 52.9615C52.8868 52.3929 52.8721 51.4888 52.8611 50.1076C52.8391 47.3455 52.8319 42.6795 52.8305 34.9836L52.6305 34.9837ZM52.8006 53.8698C52.8492 53.9341 52.9116 53.9799 53.0256 54.011C53.1323 54.04 53.2897 54.0578 53.5345 54.0688C54.0264 54.0911 54.9042 54.0875 56.5143 54.0741L56.5126 53.8741C54.8997 53.8875 54.0287 53.891 53.5436 53.8691C53.2999 53.858 53.1618 53.8408 53.0782 53.818C53.0019 53.7972 52.9791 53.7743 52.9601 53.7491L52.8006 53.8698ZM56.5143 54.0741L60.0008 54.0451L59.9992 53.8451L56.5126 53.8741L56.5143 54.0741ZM60.1 53.9451V31.0048H59.9V53.9451H60.1ZM60.1 31.0048V8.06443H59.9V31.0048H60.1ZM60.0008 7.96443L56.5142 7.93546L56.5125 8.13545L59.9992 8.16443L60.0008 7.96443ZM56.5142 7.93546C55.2732 7.92514 54.3892 7.92685 53.8017 7.94231C53.5083 7.95003 53.2869 7.96122 53.1313 7.97632C53.0537 7.98384 52.9902 7.99255 52.9412 8.00286C52.9168 8.00802 52.8941 8.01396 52.8742 8.02111C52.8557 8.02775 52.8326 8.03782 52.8128 8.05435L52.9409 8.20798C52.9343 8.21341 52.932 8.21286 52.9417 8.20935C52.9501 8.20635 52.9632 8.20262 52.9825 8.19856C53.021 8.19045 53.0762 8.1826 53.1506 8.17538C53.2991 8.16098 53.5149 8.14992 53.807 8.14224C54.3907 8.12688 55.2717 8.12513 56.5125 8.13545L56.5142 7.93546ZM52.8128 8.05433C52.7643 8.09478 52.7335 8.15467 52.7118 8.22183C52.6897 8.29032 52.6735 8.37753 52.6613 8.48479C52.6369 8.69951 52.627 9.01119 52.627 9.44985H52.827C52.827 9.01173 52.837 8.70989 52.86 8.50738C52.8715 8.40602 52.8859 8.33369 52.9022 8.28333C52.9189 8.23164 52.9344 8.21338 52.9408 8.208L52.8128 8.05433ZM52.627 9.44985V10.6438H52.827V9.44985H52.627ZM52.727 10.5438H44.2712V10.7438H52.727V10.5438ZM44.2712 10.5438H35.8153V10.7438H44.2712V10.5438ZM35.9056 10.6009L35.7347 10.241L35.5541 10.3268L35.725 10.6867L35.9056 10.6009ZM35.7347 10.241C35.4378 9.61636 34.9457 9.11792 34.3452 8.83733L34.2605 9.01853C34.8167 9.27842 35.2761 9.74193 35.5541 10.3269L35.7347 10.241ZM34.3452 8.83734C34.2086 8.77352 34.0961 8.72184 33.9452 8.68317C33.7952 8.64473 33.6111 8.61998 33.3286 8.60353C32.7651 8.57071 31.789 8.56999 29.869 8.56977L29.8689 8.76977C31.7929 8.76999 32.7609 8.77081 33.3169 8.80319C33.5941 8.81933 33.7636 8.8431 33.8955 8.87691C34.0265 8.91049 34.1241 8.9548 34.2605 9.01853L34.3452 8.83734ZM29.869 8.56977C28.678 8.56966 27.6663 8.58072 26.9203 8.60069C26.5474 8.61067 26.2402 8.6229 26.0098 8.63712C25.7844 8.65104 25.6212 8.66735 25.5454 8.68848L25.5991 8.88113C25.6504 8.86685 25.7902 8.85106 26.0221 8.83674C26.2492 8.82272 26.5538 8.81057 26.9257 8.80062C27.6692 8.78072 28.679 8.76966 29.8689 8.76977L29.869 8.56977ZM25.5455 8.68847C25.4086 8.72658 25.2498 8.81184 25.0888 8.92077C24.9264 9.03071 24.7557 9.16887 24.5943 9.31852C24.2745 9.61489 23.9782 9.96831 23.8596 10.2481L24.0437 10.3262C24.1455 10.0862 24.4163 9.75619 24.7302 9.46519C24.8856 9.32116 25.0483 9.18966 25.2009 9.08641C25.355 8.98218 25.4928 8.91074 25.5991 8.88114L25.5455 8.68847ZM23.8596 10.2481L23.7082 10.6048L23.8924 10.6829L24.0437 10.3262L23.8596 10.2481ZM23.8003 10.5438H15.6243V10.7438H23.8003V10.5438ZM15.6243 10.5438H7.44838V10.7438H15.6243V10.5438ZM7.54838 10.6438V9.45841H7.34838V10.6438H7.54838ZM7.54838 9.45841C7.54838 9.06924 7.53702 8.75771 7.51446 8.53135C7.5032 8.4184 7.48891 8.32399 7.47101 8.25063C7.46206 8.21394 7.45172 8.18046 7.43943 8.15161C7.42761 8.12384 7.41145 8.09425 7.38797 8.07068L7.2463 8.21185C7.24428 8.20982 7.24832 8.2133 7.25542 8.22996C7.26205 8.24553 7.26934 8.26781 7.27671 8.29804C7.29147 8.35852 7.30462 8.44258 7.31544 8.55118C7.33704 8.76793 7.34838 9.0719 7.34838 9.45841H7.54838ZM7.38797 8.07068C7.37314 8.05579 7.3566 8.04698 7.34583 8.04195C7.33389 8.03638 7.32131 8.03198 7.30934 8.02838C7.2854 8.02119 7.25648 8.01505 7.22457 8.00959C7.16036 7.99859 7.07439 7.98875 6.97128 7.97983C6.76451 7.96196 6.4808 7.94717 6.14685 7.93538C5.47852 7.91178 4.6039 7.9 3.72984 7.9C2.85579 7.9 1.98117 7.91178 1.31284 7.93538C0.978887 7.94717 0.695182 7.96196 0.488409 7.97983C0.385295 7.98875 0.299334 7.99859 0.235116 8.00959C0.20321 8.01505 0.174293 8.02119 0.150352 8.02838C0.138381 8.03198 0.125798 8.03638 0.113859 8.04195C0.103093 8.04698 0.0865507 8.05579 0.0717155 8.07068L0.213391 8.21185C0.208425 8.21683 0.20413 8.21979 0.201999 8.22115C0.20082 8.2219 0.199908 8.22242 0.199348 8.22272C0.198782 8.22303 0.198457 8.22318 0.198426 8.22319C0.198408 8.2232 0.199148 8.22286 0.200855 8.22224C0.202532 8.22162 0.20484 8.22084 0.207876 8.21993C0.220685 8.21609 0.240623 8.21156 0.268871 8.20672C0.324962 8.19712 0.404505 8.18783 0.505635 8.17909C0.707351 8.16165 0.987093 8.14701 1.31989 8.13525C1.98507 8.11177 2.85717 8.1 3.72984 8.1C4.60252 8.1 5.47462 8.11177 6.13979 8.13525C6.4726 8.14701 6.75234 8.16165 6.95405 8.17909C7.05518 8.18783 7.13473 8.19712 7.19082 8.20672C7.21907 8.21156 7.239 8.21609 7.25181 8.21993C7.25485 8.22084 7.25716 8.22162 7.25883 8.22224C7.26054 8.22286 7.26128 8.2232 7.26126 8.22319C7.26123 8.22318 7.26091 8.22303 7.26034 8.22272C7.25978 8.22242 7.25887 8.2219 7.25769 8.22115C7.25556 8.21979 7.25126 8.21683 7.2463 8.21185L7.38797 8.07068ZM5.92659 31.0048V52.4633H6.12659V31.0048H5.92659ZM6.02659 52.3633H3.78453V52.5633H6.02659V52.3633ZM3.78453 52.3633H1.54247V52.5633H3.78453V52.3633ZM1.64247 52.4633V31.0048H1.44247V52.4633H1.64247ZM1.64247 31.0048V9.54622H1.44247V31.0048H1.64247ZM1.54247 9.64622H3.78453V9.44622H1.54247V9.64622ZM3.78453 9.64622H6.02659V9.44622H3.78453V9.64622ZM5.92659 9.54622V31.0048H6.12659V9.54622H5.92659ZM58.6423 31.0048V52.4633H58.8423V31.0048H58.6423ZM58.7423 52.3633H56.5002V52.5633H58.7423V52.3633ZM56.5002 52.3633H54.2582V52.5633H56.5002V52.3633ZM54.3582 52.4633V31.0048H54.1582V52.4633H54.3582ZM54.3582 31.0048V9.54622H54.1582V31.0048H54.3582ZM54.2582 9.64622H56.5002V9.44622H54.2582V9.64622ZM56.5002 9.64622H58.7423V9.44622H56.5002V9.64622ZM58.6423 9.54622V31.0048H58.8423V9.54622H58.6423ZM33.6237 10.4946C33.78 10.6064 33.889 10.697 33.9712 10.8161C34.0528 10.9344 34.1132 11.0887 34.156 11.3347C34.2429 11.833 34.2531 12.6712 34.2531 14.2625H34.4531C34.4531 12.6803 34.4437 11.8202 34.3531 11.3004C34.3072 11.0373 34.2393 10.8526 34.1358 10.7025C34.0329 10.5534 33.8999 10.4463 33.7401 10.3319L33.6237 10.4946ZM34.2531 14.2625V17.1198H34.4531V14.2625H34.2531ZM34.3531 17.0198H29.8143V17.2198H34.3531V17.0198ZM29.8143 17.0198H25.2755V17.2198H29.8143V17.0198ZM25.3755 17.1199L25.3761 14.2935L25.1761 14.2934L25.1755 17.1198L25.3755 17.1199ZM25.3761 14.2935C25.3763 13.5172 25.3886 12.7677 25.4083 12.1857C25.4182 11.8947 25.4298 11.6462 25.4427 11.4574C25.4559 11.2639 25.4698 11.1443 25.4814 11.1023L25.2887 11.049C25.2705 11.1146 25.2559 11.2568 25.2432 11.4438C25.2301 11.6357 25.2183 11.8868 25.2084 12.179C25.1886 12.7635 25.1763 13.5153 25.1761 14.2934L25.3761 14.2935ZM25.4814 11.1023C25.5368 10.9021 25.6537 10.7101 25.8027 10.5591C25.9521 10.4076 26.1281 10.3032 26.2976 10.2689L26.258 10.0729C26.0402 10.1169 25.8302 10.2464 25.6603 10.4186C25.49 10.5912 25.3541 10.8125 25.2887 11.049L25.4814 11.1023ZM26.2977 10.2689C26.2977 10.2689 26.2977 10.2689 26.2979 10.2689C26.298 10.2688 26.2982 10.2688 26.2984 10.2688C26.2989 10.2687 26.2995 10.2686 26.3003 10.2685C26.302 10.2682 26.3043 10.2679 26.3071 10.2676C26.3129 10.2669 26.3204 10.2661 26.3297 10.2654C26.3484 10.2638 26.373 10.2622 26.4034 10.2607C26.4642 10.2576 26.5462 10.2547 26.6472 10.252C26.8491 10.2466 27.1249 10.2422 27.4551 10.2389C28.1153 10.2323 28.9912 10.2303 29.9232 10.2345L29.9241 10.0346C28.9914 10.0303 28.1145 10.0323 27.4531 10.0389C27.1225 10.0422 26.8453 10.0466 26.6418 10.0521C26.5402 10.0548 26.4563 10.0577 26.3932 10.0609C26.3336 10.064 26.2844 10.0675 26.258 10.0729L26.2977 10.2689ZM29.9232 10.2345L33.3136 10.2499L33.3145 10.0499L29.9241 10.0346L29.9232 10.2345ZM33.2558 10.2312L33.6237 10.4945L33.7401 10.3319L33.3723 10.0686L33.2558 10.2312ZM23.6443 13.5526V14.9246H23.8443V13.5526H23.6443ZM23.7443 14.8246H15.5963V15.0246H23.7443V14.8246ZM15.5963 14.8246H7.44838V15.0246H15.5963V14.8246ZM7.54838 14.9246V13.5526H7.34838V14.9246H7.54838ZM7.54838 13.5526V12.1805H7.34838V13.5526H7.54838ZM7.44838 12.2805H15.5963V12.0805H7.44838V12.2805ZM15.5963 12.2805H23.7443V12.0805H15.5963V12.2805ZM23.6443 12.1805V13.5526H23.8443V12.1805H23.6443ZM52.627 13.5526V14.9246H52.827V13.5526H52.627ZM52.727 14.8246H44.3056V15.0246H52.727V14.8246ZM44.3056 14.8246H35.8842V15.0246H44.3056V14.8246ZM35.9842 14.9246V13.5526H35.7842V14.9246H35.9842ZM35.9842 13.5526V12.1805H35.7842V13.5526H35.9842ZM35.8842 12.2805H44.3056V12.0805H35.8842V12.2805ZM44.3056 12.2805H52.727V12.0805H44.3056V12.2805ZM52.627 12.1805V13.5526H52.827V12.1805H52.627ZM36.3311 19.3151V19.9737H36.5311V19.3151H36.3311ZM36.4311 19.8737H29.7049V20.0737H36.4311V19.8737ZM29.7049 19.8737H22.9787V20.0737H29.7049V19.8737ZM23.0787 19.9737V19.3151H22.8787V19.9737H23.0787ZM23.0787 19.3151V18.6565H22.8787V19.3151H23.0787ZM36.3311 18.6565V19.3151H36.5311V18.6565H36.3311ZM44.8607 21.7243C45.0811 21.7858 45.3808 21.9719 45.6486 22.1995C45.7811 22.3121 45.9027 22.4323 46.0001 22.5479C46.0984 22.6648 46.1676 22.772 46.2007 22.8589L46.3876 22.7875C46.343 22.6707 46.2578 22.5436 46.1531 22.4192C46.0474 22.2935 45.9175 22.1656 45.7781 22.0471C45.5019 21.8124 45.176 21.6046 44.9144 21.5317L44.8607 21.7243ZM46.2007 22.8588C46.2733 23.049 46.3055 23.3202 46.295 23.5922C46.2846 23.8648 46.2319 24.1219 46.1474 24.2859L46.3252 24.3775C46.4286 24.1768 46.4839 23.8867 46.4949 23.5998C46.5059 23.3122 46.4731 23.0116 46.3876 22.7875L46.2007 22.8588ZM46.1474 24.2859C46.0699 24.4363 45.8848 24.6308 45.6472 24.8149C45.4119 24.9973 45.1372 25.1601 44.8921 25.2523L44.9626 25.4395C45.2306 25.3386 45.5227 25.1644 45.7697 24.973C46.0145 24.7834 46.2274 24.5672 46.3252 24.3775L46.1474 24.2859ZM44.8922 25.2523C44.8959 25.2508 44.8938 25.2521 44.8791 25.2544C44.8664 25.2563 44.8488 25.2585 44.8256 25.2607C44.7793 25.2651 44.7148 25.2694 44.6313 25.2737C44.4646 25.2822 44.2259 25.2901 43.9132 25.2973C43.288 25.3118 42.37 25.3236 41.1467 25.3329C38.7003 25.3516 35.0348 25.3602 30.0532 25.3594L30.0532 25.5594C35.0348 25.5602 38.701 25.5516 41.1483 25.5329C42.3718 25.5236 43.2911 25.5117 43.9178 25.4972C44.2311 25.49 44.472 25.4821 44.6415 25.4734C44.7262 25.4691 44.794 25.4646 44.8446 25.4598C44.8698 25.4574 44.8917 25.4548 44.9098 25.452C44.9259 25.4495 44.9456 25.4458 44.9626 25.4395L44.8922 25.2523ZM30.0532 25.3594C21.8241 25.358 18.0683 25.3768 16.2661 25.2768C15.3605 25.2265 14.968 25.1464 14.7508 25.0311C14.6467 24.9758 14.5806 24.911 14.5145 24.8286C14.4803 24.7858 14.4475 24.7402 14.4079 24.6867C14.3689 24.6341 14.325 24.5763 14.2718 24.5139L14.1197 24.6437C14.1685 24.7009 14.2092 24.7545 14.2471 24.8058C14.2845 24.8562 14.3211 24.907 14.3584 24.9536C14.4356 25.0499 14.5216 25.1359 14.657 25.2077C14.9187 25.3467 15.3548 25.4265 16.255 25.4765C18.0645 25.5769 21.8296 25.558 30.0532 25.5594L30.0532 25.3594ZM14.2719 24.514C14.0084 24.205 13.8761 23.9015 13.8622 23.5955C13.8482 23.2891 13.9522 22.9666 14.1867 22.619L14.0209 22.5071C13.7698 22.8793 13.6459 23.2436 13.6624 23.6046C13.6789 23.966 13.8354 24.3105 14.1197 24.6437L14.2719 24.514ZM14.1867 22.619C14.5332 22.1056 14.906 21.825 15.3594 21.7176L15.3133 21.523C14.7984 21.645 14.3873 21.9642 14.0209 22.5071L14.1867 22.619ZM15.3594 21.7176C15.3593 21.7177 15.3618 21.7171 15.3684 21.7162C15.3746 21.7154 15.3828 21.7145 15.3932 21.7135C15.4141 21.7116 15.4419 21.7096 15.4768 21.7076C15.5466 21.7036 15.6422 21.6998 15.7622 21.696C16.0021 21.6885 16.3375 21.6816 16.755 21.6752C17.5899 21.6624 18.7515 21.6519 20.1309 21.6436C22.8895 21.627 26.5182 21.6193 30.1444 21.6202C33.7705 21.6212 37.3939 21.6308 40.1417 21.6488C41.5156 21.6578 42.6705 21.6689 43.4972 21.6821C43.9107 21.6887 44.2416 21.6959 44.4768 21.7035C44.5945 21.7073 44.6875 21.7112 44.7547 21.7152C44.7883 21.7172 44.8147 21.7192 44.8341 21.7211C44.856 21.7233 44.8624 21.7248 44.8607 21.7243L44.9144 21.5317C44.8971 21.5268 44.8743 21.5241 44.8538 21.5221C44.8307 21.5198 44.8014 21.5176 44.7666 21.5155C44.6968 21.5114 44.6016 21.5074 44.4833 21.5036C44.2465 21.4959 43.9142 21.4888 43.5004 21.4822C42.6727 21.4689 41.5171 21.4578 40.143 21.4488C37.3946 21.4308 33.7708 21.4212 30.1444 21.4202C26.5181 21.4193 22.8889 21.427 20.1297 21.4436C18.7501 21.4519 17.5878 21.4624 16.752 21.4752C16.3341 21.4816 15.9975 21.4886 15.756 21.4961C15.6353 21.4999 15.5377 21.5038 15.4655 21.5079C15.3976 21.5118 15.3421 21.5162 15.3133 21.523L15.3594 21.7176ZM14.6 35.6243C13.5881 35.9864 12.7563 36.8109 12.3729 37.8297L12.5601 37.9001C12.9231 36.9354 13.7117 36.1546 14.6674 35.8126L14.6 35.6243ZM12.3729 37.8297C12.2041 38.2784 12.1393 38.837 12.1674 39.3706C12.1956 39.9031 12.3171 40.4231 12.5322 40.7914L12.7049 40.6905C12.5116 40.3595 12.3943 39.8743 12.3672 39.36C12.34 38.8467 12.4033 38.3169 12.5601 37.9001L12.3729 37.8297ZM12.5322 40.7913C12.911 41.4402 13.5314 42.0629 14.1177 42.3779L14.2124 42.2017C13.6629 41.9065 13.0678 41.3121 12.7049 40.6905L12.5322 40.7913ZM14.1177 42.3779C14.2276 42.4369 14.3259 42.4849 14.4643 42.5217C14.6008 42.558 14.7725 42.5826 15.03 42.6005C15.544 42.6363 16.4206 42.6471 18.0835 42.663L18.0854 42.463C16.419 42.447 15.5502 42.4363 15.0439 42.401C14.7913 42.3834 14.6342 42.36 14.5158 42.3285C14.3993 42.2975 14.3167 42.2577 14.2124 42.2017L14.1177 42.3779ZM18.0835 42.663L21.556 42.6961L21.5579 42.4961L18.0854 42.463L18.0835 42.663ZM21.4569 42.5961V43.8906H21.6569V42.5961H21.4569ZM21.4569 43.8906C21.4569 44.2962 21.4582 44.6088 21.4807 44.8463C21.503 45.0818 21.5474 45.2627 21.6482 45.3919C21.7528 45.5259 21.9041 45.5872 22.0968 45.6172C22.2869 45.6468 22.5354 45.6483 22.8507 45.6483V45.4483C22.5302 45.4483 22.2991 45.4462 22.1275 45.4196C21.9584 45.3932 21.8658 45.3456 21.8058 45.2688C21.7421 45.1872 21.7014 45.0555 21.6798 44.8274C21.6584 44.6014 21.6569 44.2994 21.6569 43.8906H21.4569ZM22.8507 45.6483H23.7443V45.4483H22.8507V45.6483ZM23.6443 45.5483V48.68H23.8443V45.5483H23.6443ZM23.6443 48.68C23.6443 50.4242 23.6491 51.3404 23.7465 51.9119C23.7958 52.2016 23.8697 52.4086 23.9813 52.5926C24.0915 52.7744 24.236 52.9291 24.4161 53.1147L24.5597 52.9754C24.3784 52.7887 24.2493 52.6488 24.1523 52.4889C24.0567 52.3313 23.9898 52.1495 23.9436 51.8783C23.8499 51.328 23.8443 50.434 23.8443 48.68H23.6443ZM24.4161 53.1147C24.6443 53.3499 25.0391 53.6645 25.2989 53.8173L25.4003 53.6449C25.1574 53.502 24.7766 53.199 24.5597 52.9754L24.4161 53.1147ZM25.2989 53.8173L25.7558 54.0862L25.8573 53.9138L25.4003 53.6449L25.2989 53.8173ZM25.8066 54.1H29.7807V53.9H25.8066V54.1ZM29.7807 54.1C31.6928 54.1 32.6939 54.0979 33.2688 54.0678C33.5565 54.0528 33.743 54.0305 33.886 53.9963C34.0318 53.9615 34.1291 53.915 34.2374 53.8577L34.1439 53.6809C34.0423 53.7347 33.9619 53.7725 33.8395 53.8018C33.7144 53.8317 33.5423 53.8532 33.2583 53.8681C32.6901 53.8978 31.696 53.9 29.7807 53.9V54.1ZM34.2374 53.8577C34.8582 53.529 35.2731 53.1173 35.6527 52.4584L35.4794 52.3585C35.1168 52.9879 34.7283 53.3714 34.1439 53.6809L34.2374 53.8577ZM35.6527 52.4584L35.9688 51.9095L35.7955 51.8097L35.4794 52.3585L35.6527 52.4584ZM35.9821 51.8597L35.9832 48.704L35.7832 48.7039L35.7821 51.8596L35.9821 51.8597ZM35.9832 48.704L35.9842 45.5483L35.7842 45.5483L35.7832 48.7039L35.9832 48.704ZM35.8842 45.6483H36.7422V45.4483H35.8842V45.6483ZM36.7422 45.6483C37.037 45.6483 37.2712 45.6459 37.4515 45.6146C37.6354 45.5826 37.7796 45.5179 37.8789 45.3814C37.9739 45.2509 38.0166 45.069 38.0384 44.8318C38.0604 44.5924 38.0622 44.2783 38.0622 43.871H37.8622C37.8622 44.281 37.8602 44.5851 37.8392 44.8135C37.818 45.044 37.7786 45.1793 37.7172 45.2638C37.6601 45.3422 37.5736 45.3904 37.4173 45.4175C37.2574 45.4453 37.0419 45.4483 36.7422 45.4483V45.6483ZM38.0622 43.871V42.5952H37.8622V43.871H38.0622ZM37.9631 42.6952L41.7636 42.6625L41.7619 42.4625L37.9614 42.4953L37.9631 42.6952ZM41.7636 42.6625L45.5642 42.6298L45.5625 42.4298L41.7619 42.4625L41.7636 42.6625ZM45.6101 42.6182L46.1714 42.3211L46.0778 42.1443L45.5166 42.4414L45.6101 42.6182ZM46.1714 42.3211C46.759 42.0101 47.1573 41.5794 47.7285 40.6626L47.5588 40.5569C46.995 41.4617 46.6196 41.8575 46.0778 42.1443L46.1714 42.3211ZM47.7285 40.6627C47.8519 40.4647 47.9361 40.2899 47.9938 40.0846C48.0511 39.8807 48.081 39.651 48.1005 39.3453L47.9009 39.3325C47.8817 39.633 47.8529 39.8465 47.8013 40.0305C47.75 40.213 47.675 40.3704 47.5588 40.5569L47.7285 40.6627ZM48.1005 39.3453C48.1229 38.9955 48.1277 38.7704 48.0838 38.5451C48.0402 38.3204 47.9493 38.101 47.7927 37.7598L47.6109 37.8432C47.768 38.1855 47.849 38.385 47.8875 38.5832C47.9259 38.7808 47.9233 38.9828 47.9009 39.3325L48.1005 39.3453ZM47.7927 37.7598C47.3467 36.7878 46.798 36.202 45.9349 35.7862L45.848 35.9663C46.6639 36.3594 47.1818 36.9079 47.6109 37.8432L47.7927 37.7598ZM45.9349 35.7862L45.2786 35.47L45.1918 35.6502L45.8481 35.9663L45.9349 35.7862ZM45.2352 35.4601L30.1423 35.4649L30.1424 35.6649L45.2353 35.6601L45.2352 35.4601ZM30.1423 35.4649C23.9335 35.4668 20.1413 35.4745 17.8586 35.4971C16.7174 35.5084 15.9524 35.5235 15.451 35.5434C15.2004 35.5533 15.0144 35.5645 14.8796 35.5772C14.7481 35.5896 14.656 35.6042 14.6 35.6243L14.6674 35.8126C14.6969 35.802 14.7655 35.7889 14.8984 35.7764C15.0279 35.7641 15.2097 35.7531 15.4589 35.7432C15.9572 35.7234 16.7196 35.7084 17.8606 35.6971C20.1422 35.6745 23.9333 35.6668 30.1424 35.6649L30.1423 35.4649ZM44.8906 37.3335C45.0679 37.4005 45.3461 37.5944 45.6093 37.8238C45.8728 38.0534 46.1006 38.3007 46.1874 38.4633L46.3639 38.3692C46.2588 38.1722 46.0067 37.9049 45.7407 37.6731C45.4746 37.4411 45.1739 37.2267 44.9613 37.1464L44.8906 37.3335ZM46.1874 38.4633C46.2638 38.6067 46.3035 38.8658 46.2962 39.1465C46.2888 39.4256 46.2357 39.7007 46.1474 39.8721L46.3252 39.9637C46.4331 39.7543 46.4884 39.4451 46.4961 39.1518C46.5037 38.8602 46.465 38.5589 46.3639 38.3692L46.1874 38.4633ZM46.1474 39.8721C46.0632 40.0355 45.8537 40.2481 45.5833 40.4487C45.3158 40.6473 45.0023 40.824 44.724 40.9214L44.79 41.1102C45.0917 41.0046 45.4229 40.8168 45.7025 40.6093C45.9793 40.4039 46.2194 40.169 46.3252 39.9637L46.1474 39.8721ZM44.724 40.9214C44.6992 40.93 44.6292 40.9419 44.4893 40.9534C44.3542 40.9644 44.1642 40.9745 43.9084 40.9836C43.3971 41.0017 42.6272 41.0157 41.5165 41.0263C39.2953 41.0476 35.7143 41.0555 30.1192 41.0562L30.1192 41.2561C35.7141 41.2555 39.2961 41.2476 41.5184 41.2263C42.6294 41.2157 43.4014 41.2016 43.9155 41.1834C44.1724 41.1743 44.3659 41.1641 44.5056 41.1527C44.6406 41.1416 44.7368 41.1287 44.79 41.1102L44.724 40.9214ZM30.1192 41.0562C23.062 41.057 19.5015 41.0569 17.6304 41.0286C15.755 41.0002 15.5904 40.9429 15.311 40.8381L15.2407 41.0253C15.5581 41.1445 15.7586 41.2003 17.6274 41.2285C19.5004 41.2569 23.0632 41.257 30.1192 41.2561L30.1192 41.0562ZM15.311 40.8381C14.339 40.4731 13.7753 39.6685 13.87 38.8477L13.6713 38.8248C13.5634 39.7606 14.2074 40.6373 15.2407 41.0253L15.311 40.8381ZM13.87 38.8477C13.8796 38.7645 13.941 38.6323 14.0513 38.4692C14.1587 38.3103 14.3034 38.1349 14.4621 37.9684C14.6207 37.802 14.7914 37.6466 14.9498 37.5267C15.1113 37.4046 15.2498 37.3275 15.3455 37.3053L15.3003 37.1105C15.1614 37.1427 14.9949 37.2419 14.8292 37.3672C14.6605 37.4948 14.4818 37.6579 14.3173 37.8304C14.1529 38.0029 14.0006 38.187 13.8856 38.3572C13.7734 38.5232 13.6869 38.6899 13.6713 38.8247L13.87 38.8477ZM15.3455 37.3053C15.3561 37.3028 15.3945 37.2985 15.4703 37.294C15.5422 37.2897 15.6399 37.2855 15.7622 37.2815C16.0064 37.2734 16.3462 37.266 16.7679 37.2593C17.6114 37.2459 18.7812 37.2353 20.1682 37.2272C22.9422 37.2111 26.5838 37.2055 30.2178 37.2095C33.8517 37.2134 37.4778 37.2269 40.2206 37.249C41.5921 37.26 42.7424 37.2732 43.5625 37.2883C43.9726 37.2959 44.2995 37.304 44.5301 37.3126C44.6455 37.3169 44.736 37.3213 44.8003 37.3257C44.8326 37.3279 44.8573 37.3301 44.8749 37.3322C44.8968 37.3347 44.8977 37.3362 44.8906 37.3335L44.9613 37.1464C44.9415 37.1389 44.916 37.1356 44.8982 37.1335C44.876 37.1309 44.8477 37.1285 44.8141 37.1262C44.7466 37.1215 44.6536 37.1171 44.5375 37.1127C44.3051 37.1041 43.9766 37.096 43.5662 37.0884C42.7451 37.0732 41.5939 37.06 40.2222 37.049C37.4788 37.0269 33.8522 37.0134 30.218 37.0095C26.5838 37.0055 22.9417 37.0111 20.1671 37.0272C18.7798 37.0353 17.6092 37.0459 16.7648 37.0594C16.3426 37.0661 16.0015 37.0735 15.7556 37.0816C15.6326 37.0856 15.5329 37.0899 15.4583 37.0943C15.3877 37.0986 15.3307 37.1034 15.3003 37.1105L15.3455 37.3053ZM36.3311 43.2982V44.0116H36.5311V43.2982H36.3311ZM23.0787 44.0116V43.2982H22.8787V44.0116H23.0787ZM23.0787 43.2982V42.5847H22.8787V43.2982H23.0787ZM22.9787 42.6847H29.7049V42.4847H22.9787V42.6847ZM29.7049 42.6847H36.4311V42.4847H29.7049V42.6847ZM36.3311 42.5847V43.2982H36.5311V42.5847H36.3311ZM34.2531 48.3788C34.2531 49.7398 34.2505 50.4475 34.2189 50.8741C34.2032 51.0863 34.1805 51.2243 34.1489 51.3361C34.1174 51.4473 34.0761 51.5365 34.0177 51.6521L34.1963 51.7422C34.256 51.6237 34.3045 51.5207 34.3413 51.3905C34.378 51.2608 34.4021 51.1081 34.4183 50.8889C34.4507 50.4529 34.4531 49.7356 34.4531 48.3788H34.2531ZM34.0177 51.6521C33.924 51.8379 33.8485 51.9625 33.7316 52.0554C33.6153 52.1479 33.4473 52.2169 33.1536 52.2641C32.5609 52.3594 31.5112 52.3588 29.4871 52.34L29.4852 52.5399C31.4993 52.5587 32.5714 52.5603 33.1854 52.4616C33.495 52.4118 33.7015 52.3348 33.856 52.212C34.0099 52.0898 34.1015 51.93 34.1963 51.7422L34.0177 51.6521ZM29.4871 52.34C28.2395 52.3284 27.3775 52.3113 26.8054 52.2843C26.5191 52.2708 26.3074 52.255 26.157 52.2364C26.0818 52.2271 26.0235 52.2173 25.9799 52.2072C25.9346 52.1968 25.9114 52.1874 25.9019 52.182L25.8024 52.3555C25.8377 52.3757 25.8837 52.3903 25.935 52.4021C25.9879 52.4143 26.0535 52.4251 26.1324 52.4348C26.2903 52.4544 26.508 52.4705 26.796 52.4841C27.3722 52.5113 28.2376 52.5284 29.4852 52.5399L29.4871 52.34ZM25.9019 52.182C25.7818 52.1131 25.7045 52.058 25.6454 51.9706C25.5852 51.8817 25.5374 51.7492 25.5017 51.5139C25.4299 51.0405 25.4136 50.2016 25.395 48.593L25.195 48.5954C25.2135 50.1958 25.2295 51.053 25.304 51.5439C25.3414 51.7908 25.3951 51.9577 25.4798 52.0827C25.5655 52.2094 25.6763 52.2831 25.8024 52.3555L25.9019 52.182ZM25.395 48.5931L25.36 45.5471L25.16 45.5494L25.195 48.5953L25.395 48.5931ZM25.26 45.6483H29.8065V45.4483H25.26V45.6483ZM29.8065 45.6483H34.3531V45.4483H29.8065V45.6483ZM34.2531 45.5483V48.3788H34.4531V45.5483H34.2531ZM22.9787 18.7565H25.2755V18.5565H22.9787V18.7565ZM25.3755 18.6565V17.1198H25.1755V18.6565H25.3755ZM25.2755 17.2198H34.3531V17.0198H25.2755V17.2198ZM34.2531 17.1198V18.6565H34.4531V17.1198H34.2531ZM34.3531 18.7565H36.4311V18.5565H34.3531V18.7565ZM25.36 45.5483V44.0116H25.16V45.5483H25.36ZM25.26 43.9116H22.9787V44.1116H25.26V43.9116ZM34.3531 45.4483H25.26V45.6483H34.3531V45.4483ZM36.4311 43.9116H34.3531V44.1116H36.4311V43.9116ZM34.2531 44.0116V45.5483H34.4531V44.0116H34.2531Z" fill="white" mask="url(#path-1-inside-1_48_7923)"/>
</g>
<defs>
<clipPath id="clip0_48_7923">
<rect width="60" height="62" fill="white"/>
</clipPath>
</defs>
</svg>
