<svg width="60" height="62" viewBox="0 0 60 62" fill="none" xmlns="http://www.w3.org/2000/svg">
<g clip-path="url(#clip0_48_7925)">
<mask id="path-1-inside-1_48_7925" fill="white">
<path fill-rule="evenodd" clip-rule="evenodd" d="M14.7734 1.50756C14.561 2.13606 14.5783 10.2872 14.7933 10.8091C14.9814 11.266 15.4243 11.7405 15.8395 11.9298C15.9987 12.0025 16.8176 12.0641 17.6593 12.0668L19.1895 12.0717L19.1922 13.4575C19.1951 14.9801 19.289 15.2011 19.9392 15.2149L20.3202 15.2229L20.3155 16.0861L20.3109 16.9492L19.9441 16.9379C19.7094 16.9306 19.4963 17.0077 19.3516 17.1524C19.1597 17.3443 19.1247 17.7485 19.1189 19.8343C19.1115 22.529 19.1561 22.6889 19.9189 22.7051L20.3192 22.7136L20.3141 23.5169L20.3089 24.3203L19.8549 24.3814C19.6051 24.415 19.3386 24.5048 19.2625 24.581C19.1832 24.6602 19.1209 25.9181 19.1166 27.53C19.1084 30.5922 19.1358 30.7051 19.8958 30.7212L20.311 30.73L20.3108 31.5736L20.3107 32.4172L19.8751 32.4548C19.6354 32.4755 19.3658 32.566 19.2758 32.656C19.1634 32.7684 19.1126 33.6977 19.1132 35.6285C19.1142 38.6836 19.1415 38.7951 19.8942 38.8111L20.3094 38.8199L20.3093 39.6718L20.3091 40.5236L19.8939 40.5326C19.1383 40.5489 19.1107 40.6611 19.1117 43.7184C19.1123 45.6319 19.1642 46.579 19.2746 46.6894C19.3638 46.7785 19.6327 46.8683 19.8723 46.8889L20.3079 46.9263L20.3078 47.7699L20.3076 48.6135L19.8924 48.6225C19.1834 48.6378 19.0934 48.8504 19.1177 50.4512C19.1496 52.5475 18.8209 52.148 23.5785 55.8753C27.1823 58.6986 27.5609 58.9721 28.1798 59.1986C29.0377 59.5125 29.9294 59.5123 30.7864 59.1977C31.4045 58.971 31.7877 58.6942 35.3893 55.8722C38.9399 53.0903 39.3429 52.7506 39.5771 52.3431C39.8125 51.9336 39.8376 51.4643 39.8513 47.2249C39.8677 42.1152 39.8749 42.1595 39.0345 42.1776L38.592 42.1872L38.5876 41.3246L38.5832 40.462L39.0386 40.4548C39.8445 40.4419 39.8672 40.3536 39.8601 37.264C39.8556 35.3595 39.8014 34.4011 39.6921 34.2917C39.6033 34.2029 39.3178 34.1165 39.0576 34.0997L38.5846 34.069L38.5892 33.2122L38.5939 32.3554L39.0364 32.3649C39.8414 32.3819 39.8688 32.276 39.8616 29.1741C39.8577 27.5118 39.7971 26.3053 39.7133 26.2215C39.6354 26.1436 39.3512 26.0763 39.082 26.0722L38.5922 26.0647L38.5925 25.2121L38.5926 24.3596L39.027 24.3501C39.8405 24.3326 39.8681 24.2256 39.8626 21.1045C39.8599 19.5479 39.8016 18.2184 39.7331 18.1499C39.6647 18.0815 39.3803 18.0106 39.1012 17.9926L38.5938 17.9597L38.594 17.1215L38.5941 16.2833L39.1016 16.2502C39.3806 16.2321 39.664 16.1622 39.7313 16.0949C39.7985 16.0276 39.858 15.0928 39.8636 14.0174L39.8735 12.0622L41.3012 12.0712C42.0865 12.0762 42.8844 12.0188 43.0744 11.9437C43.562 11.7509 44.0249 11.2526 44.2095 10.7217C44.3101 10.4326 44.3637 8.71075 44.3576 5.96776C44.3496 2.39203 44.3113 1.60305 44.1305 1.2857C43.8336 0.765008 43.5681 0.516145 43.1037 0.32305C42.5573 0.0960371 16.5935 0.0771791 15.9679 0.303366C15.3962 0.509988 14.9629 0.946925 14.7734 1.50756ZM29.4942 1.28232C41.871 1.27998 42.6573 1.29512 42.9019 1.53964C43.1423 1.78012 43.1616 2.11929 43.1609 6.10941C43.1601 10.1022 43.1409 10.4386 42.8997 10.6797C42.6545 10.9249 41.8766 10.9401 29.4924 10.9425C17.1082 10.9448 16.3303 10.9299 16.0852 10.6848C15.8441 10.4437 15.825 10.1074 15.8257 6.11455C15.8265 2.12444 15.8459 1.78526 16.0864 1.54469C16.331 1.30008 17.1174 1.28465 29.4942 1.28232ZM23.2431 12.0723L26.0937 12.0774L25.4485 12.3313C23.0717 13.2666 20.848 14.0684 20.6066 14.0769C20.3269 14.087 20.3231 14.0718 20.3604 13.0814C20.3811 12.5285 20.3969 12.074 20.3954 12.0716C20.3937 12.0692 21.6752 12.0696 23.2431 12.0723ZM25.5118 13.5548L29.3961 12.0834L31.5635 12.078C33.4894 12.0733 33.6809 12.0925 33.283 12.2519C33.0367 12.3506 30.2903 13.3921 27.1799 14.5666L21.5246 16.7019L21.5168 15.9234C21.5125 15.4952 21.5356 15.1181 21.5682 15.0855C21.6009 15.0529 23.3755 14.3641 25.5118 13.5548ZM29.0416 15.1003C36.7972 12.1667 37.0564 12.0776 37.8489 12.0724L38.6654 12.067L38.6679 13.5513L38.6704 15.0357L38.1909 15.0949C37.9272 15.1275 33.9432 16.578 29.3375 18.3181C24.7319 20.0582 20.818 21.4901 20.6401 21.5002L20.3167 21.5186L20.3146 19.8314L20.3126 18.1443L20.6817 18.1336C20.8848 18.1278 24.6468 16.7628 29.0416 15.1003ZM29.7201 19.4146C33.6272 17.9456 36.9533 16.7031 37.1115 16.6537L37.399 16.5638L37.3939 17.3622L37.3888 18.1605L29.5111 21.1301C25.1785 22.7635 21.6074 24.1035 21.5755 24.1079C21.5436 24.1124 21.5152 23.7542 21.5125 23.312L21.5077 22.508L22.062 22.2968C22.3667 22.1807 25.813 20.8837 29.7201 19.4146ZM20.7496 25.5467C21.0399 25.536 30.7577 21.9443 37.0568 19.5193C38.7632 18.8625 38.6645 18.764 38.6665 21.127L38.6682 23.1434L38.2964 23.1515C38.092 23.1558 34.0774 24.6053 29.3753 26.3725C24.6732 28.1396 20.711 29.5915 20.5704 29.5986C20.3289 29.6109 20.3148 29.5023 20.3131 27.6203C20.3123 26.525 20.327 25.6134 20.3459 25.5945C20.3648 25.5756 20.5465 25.554 20.7496 25.5467ZM29.189 27.6845C33.2951 26.1453 36.8203 24.8186 37.0227 24.7363L37.3908 24.5869L37.3907 25.4087L37.3905 26.2305L30.0424 28.992C26.001 30.5109 22.4292 31.8551 22.1051 31.9792L21.5159 32.2049L21.5109 31.3876C21.5082 30.9381 21.5549 30.5506 21.6147 30.5267C21.6745 30.5027 25.0829 29.2237 29.189 27.6845ZM20.6892 33.6417C20.8609 33.6362 24.844 32.1869 29.5405 30.421C34.237 28.655 38.211 27.2079 38.3715 27.2054C38.6609 27.2006 38.6633 27.217 38.665 29.2174L38.6667 31.2343L38.2291 31.2509C37.9555 31.2613 34.6127 32.4657 29.3037 34.4671C24.6353 36.2268 20.7026 37.6745 20.5645 37.6842C20.3285 37.7005 20.3132 37.5805 20.3116 35.7102C20.3108 34.6149 20.3251 33.7037 20.3437 33.6851C20.3622 33.6666 20.5177 33.6471 20.6892 33.6417ZM29.362 35.6886C33.6611 34.0737 37.2276 32.7511 37.2874 32.7498C37.3471 32.7483 37.3937 33.0994 37.391 33.5299L37.386 34.3126L29.6495 37.2126C25.3945 38.8077 21.8234 40.1531 21.7138 40.2024C21.5365 40.2821 21.5138 40.2016 21.5095 39.4787C21.5067 39.0314 21.5136 38.6563 21.5248 38.6452C21.5359 38.634 25.0627 37.3035 29.362 35.6886ZM29.6302 38.4647C34.2724 36.7199 38.2035 35.2918 38.3661 35.2914C38.6605 35.2904 38.6618 35.2992 38.6634 37.3073L38.6652 39.3242L38.225 39.3382C37.944 39.3471 34.7343 40.4975 29.3422 42.5221C24.6987 44.2656 20.7673 45.6933 20.6057 45.6948C20.3137 45.6975 20.3119 45.6851 20.3102 43.6808L20.3085 41.6638L20.7493 41.6505C21.0327 41.6419 24.1999 40.5058 29.6302 38.4647ZM29.483 43.7118C33.7125 42.1312 37.2229 40.8378 37.2838 40.8376C37.3447 40.8373 37.3908 41.1869 37.3864 41.6145L37.3783 42.3919L29.4454 45.361L21.5125 48.33L21.5069 47.5367C21.5036 47.0742 21.562 46.7105 21.6471 46.6644C21.7273 46.621 25.2535 45.2923 29.483 43.7118ZM29.5581 46.5594C34.2275 44.8109 38.186 43.3804 38.3546 43.3804L38.6613 43.3804L38.6633 47.5004C38.6645 49.7665 38.6119 51.7109 38.5466 51.8214C38.3929 52.0813 31.3846 57.5891 30.7526 57.9467C30.4871 58.0968 30.0138 58.2388 29.6966 58.2635C28.647 58.3452 28.5239 58.2705 24.4085 55.0534C22.3603 53.4522 20.6051 52.0635 20.508 51.9672C20.3918 51.8518 20.3255 51.4442 20.3138 50.7735L20.2961 49.755L20.6821 49.7467C20.901 49.7418 24.7456 48.3614 29.5581 46.5594Z"/>
</mask>
<path fill-rule="evenodd" clip-rule="evenodd" d="M14.7734 1.50756C14.561 2.13606 14.5783 10.2872 14.7933 10.8091C14.9814 11.266 15.4243 11.7405 15.8395 11.9298C15.9987 12.0025 16.8176 12.0641 17.6593 12.0668L19.1895 12.0717L19.1922 13.4575C19.1951 14.9801 19.289 15.2011 19.9392 15.2149L20.3202 15.2229L20.3155 16.0861L20.3109 16.9492L19.9441 16.9379C19.7094 16.9306 19.4963 17.0077 19.3516 17.1524C19.1597 17.3443 19.1247 17.7485 19.1189 19.8343C19.1115 22.529 19.1561 22.6889 19.9189 22.7051L20.3192 22.7136L20.3141 23.5169L20.3089 24.3203L19.8549 24.3814C19.6051 24.415 19.3386 24.5048 19.2625 24.581C19.1832 24.6602 19.1209 25.9181 19.1166 27.53C19.1084 30.5922 19.1358 30.7051 19.8958 30.7212L20.311 30.73L20.3108 31.5736L20.3107 32.4172L19.8751 32.4548C19.6354 32.4755 19.3658 32.566 19.2758 32.656C19.1634 32.7684 19.1126 33.6977 19.1132 35.6285C19.1142 38.6836 19.1415 38.7951 19.8942 38.8111L20.3094 38.8199L20.3093 39.6718L20.3091 40.5236L19.8939 40.5326C19.1383 40.5489 19.1107 40.6611 19.1117 43.7184C19.1123 45.6319 19.1642 46.579 19.2746 46.6894C19.3638 46.7785 19.6327 46.8683 19.8723 46.8889L20.3079 46.9263L20.3078 47.7699L20.3076 48.6135L19.8924 48.6225C19.1834 48.6378 19.0934 48.8504 19.1177 50.4512C19.1496 52.5475 18.8209 52.148 23.5785 55.8753C27.1823 58.6986 27.5609 58.9721 28.1798 59.1986C29.0377 59.5125 29.9294 59.5123 30.7864 59.1977C31.4045 58.971 31.7877 58.6942 35.3893 55.8722C38.9399 53.0903 39.3429 52.7506 39.5771 52.3431C39.8125 51.9336 39.8376 51.4643 39.8513 47.2249C39.8677 42.1152 39.8749 42.1595 39.0345 42.1776L38.592 42.1872L38.5876 41.3246L38.5832 40.462L39.0386 40.4548C39.8445 40.4419 39.8672 40.3536 39.8601 37.264C39.8556 35.3595 39.8014 34.4011 39.6921 34.2917C39.6033 34.2029 39.3178 34.1165 39.0576 34.0997L38.5846 34.069L38.5892 33.2122L38.5939 32.3554L39.0364 32.3649C39.8414 32.3819 39.8688 32.276 39.8616 29.1741C39.8577 27.5118 39.7971 26.3053 39.7133 26.2215C39.6354 26.1436 39.3512 26.0763 39.082 26.0722L38.5922 26.0647L38.5925 25.2121L38.5926 24.3596L39.027 24.3501C39.8405 24.3326 39.8681 24.2256 39.8626 21.1045C39.8599 19.5479 39.8016 18.2184 39.7331 18.1499C39.6647 18.0815 39.3803 18.0106 39.1012 17.9926L38.5938 17.9597L38.594 17.1215L38.5941 16.2833L39.1016 16.2502C39.3806 16.2321 39.664 16.1622 39.7313 16.0949C39.7985 16.0276 39.858 15.0928 39.8636 14.0174L39.8735 12.0622L41.3012 12.0712C42.0865 12.0762 42.8844 12.0188 43.0744 11.9437C43.562 11.7509 44.0249 11.2526 44.2095 10.7217C44.3101 10.4326 44.3637 8.71075 44.3576 5.96776C44.3496 2.39203 44.3113 1.60305 44.1305 1.2857C43.8336 0.765008 43.5681 0.516145 43.1037 0.32305C42.5573 0.0960371 16.5935 0.0771791 15.9679 0.303366C15.3962 0.509988 14.9629 0.946925 14.7734 1.50756ZM29.4942 1.28232C41.871 1.27998 42.6573 1.29512 42.9019 1.53964C43.1423 1.78012 43.1616 2.11929 43.1609 6.10941C43.1601 10.1022 43.1409 10.4386 42.8997 10.6797C42.6545 10.9249 41.8766 10.9401 29.4924 10.9425C17.1082 10.9448 16.3303 10.9299 16.0852 10.6848C15.8441 10.4437 15.825 10.1074 15.8257 6.11455C15.8265 2.12444 15.8459 1.78526 16.0864 1.54469C16.331 1.30008 17.1174 1.28465 29.4942 1.28232ZM23.2431 12.0723L26.0937 12.0774L25.4485 12.3313C23.0717 13.2666 20.848 14.0684 20.6066 14.0769C20.3269 14.087 20.3231 14.0718 20.3604 13.0814C20.3811 12.5285 20.3969 12.074 20.3954 12.0716C20.3937 12.0692 21.6752 12.0696 23.2431 12.0723ZM25.5118 13.5548L29.3961 12.0834L31.5635 12.078C33.4894 12.0733 33.6809 12.0925 33.283 12.2519C33.0367 12.3506 30.2903 13.3921 27.1799 14.5666L21.5246 16.7019L21.5168 15.9234C21.5125 15.4952 21.5356 15.1181 21.5682 15.0855C21.6009 15.0529 23.3755 14.3641 25.5118 13.5548ZM29.0416 15.1003C36.7972 12.1667 37.0564 12.0776 37.8489 12.0724L38.6654 12.067L38.6679 13.5513L38.6704 15.0357L38.1909 15.0949C37.9272 15.1275 33.9432 16.578 29.3375 18.3181C24.7319 20.0582 20.818 21.4901 20.6401 21.5002L20.3167 21.5186L20.3146 19.8314L20.3126 18.1443L20.6817 18.1336C20.8848 18.1278 24.6468 16.7628 29.0416 15.1003ZM29.7201 19.4146C33.6272 17.9456 36.9533 16.7031 37.1115 16.6537L37.399 16.5638L37.3939 17.3622L37.3888 18.1605L29.5111 21.1301C25.1785 22.7635 21.6074 24.1035 21.5755 24.1079C21.5436 24.1124 21.5152 23.7542 21.5125 23.312L21.5077 22.508L22.062 22.2968C22.3667 22.1807 25.813 20.8837 29.7201 19.4146ZM20.7496 25.5467C21.0399 25.536 30.7577 21.9443 37.0568 19.5193C38.7632 18.8625 38.6645 18.764 38.6665 21.127L38.6682 23.1434L38.2964 23.1515C38.092 23.1558 34.0774 24.6053 29.3753 26.3725C24.6732 28.1396 20.711 29.5915 20.5704 29.5986C20.3289 29.6109 20.3148 29.5023 20.3131 27.6203C20.3123 26.525 20.327 25.6134 20.3459 25.5945C20.3648 25.5756 20.5465 25.554 20.7496 25.5467ZM29.189 27.6845C33.2951 26.1453 36.8203 24.8186 37.0227 24.7363L37.3908 24.5869L37.3907 25.4087L37.3905 26.2305L30.0424 28.992C26.001 30.5109 22.4292 31.8551 22.1051 31.9792L21.5159 32.2049L21.5109 31.3876C21.5082 30.9381 21.5549 30.5506 21.6147 30.5267C21.6745 30.5027 25.0829 29.2237 29.189 27.6845ZM20.6892 33.6417C20.8609 33.6362 24.844 32.1869 29.5405 30.421C34.237 28.655 38.211 27.2079 38.3715 27.2054C38.6609 27.2006 38.6633 27.217 38.665 29.2174L38.6667 31.2343L38.2291 31.2509C37.9555 31.2613 34.6127 32.4657 29.3037 34.4671C24.6353 36.2268 20.7026 37.6745 20.5645 37.6842C20.3285 37.7005 20.3132 37.5805 20.3116 35.7102C20.3108 34.6149 20.3251 33.7037 20.3437 33.6851C20.3622 33.6666 20.5177 33.6471 20.6892 33.6417ZM29.362 35.6886C33.6611 34.0737 37.2276 32.7511 37.2874 32.7498C37.3471 32.7483 37.3937 33.0994 37.391 33.5299L37.386 34.3126L29.6495 37.2126C25.3945 38.8077 21.8234 40.1531 21.7138 40.2024C21.5365 40.2821 21.5138 40.2016 21.5095 39.4787C21.5067 39.0314 21.5136 38.6563 21.5248 38.6452C21.5359 38.634 25.0627 37.3035 29.362 35.6886ZM29.6302 38.4647C34.2724 36.7199 38.2035 35.2918 38.3661 35.2914C38.6605 35.2904 38.6618 35.2992 38.6634 37.3073L38.6652 39.3242L38.225 39.3382C37.944 39.3471 34.7343 40.4975 29.3422 42.5221C24.6987 44.2656 20.7673 45.6933 20.6057 45.6948C20.3137 45.6975 20.3119 45.6851 20.3102 43.6808L20.3085 41.6638L20.7493 41.6505C21.0327 41.6419 24.1999 40.5058 29.6302 38.4647ZM29.483 43.7118C33.7125 42.1312 37.2229 40.8378 37.2838 40.8376C37.3447 40.8373 37.3908 41.1869 37.3864 41.6145L37.3783 42.3919L29.4454 45.361L21.5125 48.33L21.5069 47.5367C21.5036 47.0742 21.562 46.7105 21.6471 46.6644C21.7273 46.621 25.2535 45.2923 29.483 43.7118ZM29.5581 46.5594C34.2275 44.8109 38.186 43.3804 38.3546 43.3804L38.6613 43.3804L38.6633 47.5004C38.6645 49.7665 38.6119 51.7109 38.5466 51.8214C38.3929 52.0813 31.3846 57.5891 30.7526 57.9467C30.4871 58.0968 30.0138 58.2388 29.6966 58.2635C28.647 58.3452 28.5239 58.2705 24.4085 55.0534C22.3603 53.4522 20.6051 52.0635 20.508 51.9672C20.3918 51.8518 20.3255 51.4442 20.3138 50.7735L20.2961 49.755L20.6821 49.7467C20.901 49.7418 24.7456 48.3614 29.5581 46.5594Z" fill="#231F20" stroke="white" stroke-width="0.2" mask="url(#path-1-inside-1_48_7925)"/>
</g>
<defs>
<clipPath id="clip0_48_7925">
<rect width="60" height="62" fill="white"/>
</clipPath>
</defs>
</svg>
