<svg width="60" height="62" viewBox="0 0 60 62" fill="none" xmlns="http://www.w3.org/2000/svg">
<path d="M50.4921 7.00134H41.2427C40.7646 7.00134 40.4456 7.32804 40.4456 7.81777V34.195C40.4456 40.075 35.741 44.8933 29.9998 44.8933C24.2586 44.8933 19.5541 40.075 19.5541 34.195L19.5534 7.81777C19.5534 7.32806 19.2345 7.00134 18.7563 7.00134L9.50686 7.00067C9.02872 7.00067 8.70972 7.32737 8.70972 7.8171V34.1943C8.70906 46.2001 18.278 56 29.9989 56C41.7205 56 51.2897 46.2003 51.2897 34.1943L51.2904 7.8171C51.2904 7.3267 50.9714 7 50.4926 7L50.4921 7.00134ZM10.3047 8.63487H17.9598V13.5347H10.3047V8.63487ZM49.6957 34.1964C49.6957 45.3029 40.845 54.369 29.9994 54.369C19.1551 54.369 10.3047 45.3036 10.3047 34.1964V15.1688H17.9598V34.1964C17.9598 40.9751 23.382 46.5283 30.0006 46.5283C36.6192 46.5283 42.0413 40.9751 42.0413 34.1964L42.0406 15.1688H49.6957L49.6957 34.1964ZM49.6957 13.534H42.0406V8.63418H49.6957V13.534Z" fill="#231F20"/>
</svg>
