<svg width="60" height="62" viewBox="0 0 60 62" fill="none" xmlns="http://www.w3.org/2000/svg">
<g clip-path="url(#clip0_48_7937)">
<mask id="path-1-inside-1_48_7937" fill="white">
<path fill-rule="evenodd" clip-rule="evenodd" d="M14.8238 3.80942C6.84314 5.89834 0.140851 7.70832 -0.0703365 7.83174C-0.281524 7.95504 -0.576992 8.23821 -0.727148 8.46095L-0.999972 8.86597V14.492C-0.999972 20.8461 -1.0185 20.7079 -0.0956451 21.2488C0.350827 21.5105 0.558624 21.5475 1.58392 21.5475H2.75393V32.2558V42.9639L1.45217 43.005C0.339202 43.04 0.0954407 43.0851 -0.228243 43.316C-1.02758 43.8863 -0.999972 43.555 -0.999488 52.5719C-0.999125 60.4979 -0.992222 60.7403 -0.758391 61.1238C-0.626035 61.341 -0.340254 61.6268 -0.123133 61.7592C0.267878 61.9977 0.548813 62 30 62C59.4512 62 59.7321 61.9977 60.1231 61.7592C60.3403 61.6268 60.626 61.341 60.7584 61.1238C60.9922 60.7403 60.9991 60.4979 60.9995 52.5719C61 43.555 61.0276 43.8863 60.2282 43.316C59.9046 43.0851 59.6608 43.04 58.5478 43.005L57.2461 42.9639V32.2558V21.5475H58.4161C59.4414 21.5475 59.6492 21.5105 60.0956 21.2488C61.0185 20.7079 61 20.8461 61 14.492V8.86597L60.7271 8.46095C60.577 8.23821 60.2816 7.95516 60.0707 7.83186C59.473 7.4828 30.6037 -0.0137884 29.9099 1.90495e-05C29.5768 0.00655941 23.218 1.61222 14.8238 3.80942ZM28.0625 9.70761V14.9452L23.8827 10.7674C21.5839 8.46955 19.8563 6.55455 19.8563 6.55455C19.8563 6.55455 21.7263 6.06391 23.8242 5.50701C25.9222 4.95011 28.0625 4.46987 28.0625 4.46987C28.0625 4.46987 28.0625 4.79532 28.0625 9.70761ZM36.1425 5.50446C38.3253 6.07347 40.2026 6.56436 40.2026 6.56436C40.2026 6.56436 38.4137 8.46979 36.1157 10.7675L31.9375 14.9452V9.70761C31.9375 6.38523 31.9375 4.46987 31.9375 4.46987C31.9375 4.46987 33.9596 4.93545 36.1425 5.50446ZM20.3731 12.7059L25.3368 17.6717H19.7973H14.2578V12.839V8.00639L14.7119 7.88576C14.9617 7.81939 15.2877 7.75253 15.2877 7.75253C15.2877 7.75253 17.643 9.97468 20.3731 12.7059ZM45.2042 7.87559L45.7422 8.01099V12.8414V17.6717H40.2027H34.6632L39.6269 12.7059C42.357 9.97468 44.6285 7.74005 44.6285 7.74005C44.6285 7.74005 44.9083 7.80098 45.2042 7.87559ZM10.3828 13.372V17.6717H6.62699H2.87115L2.90336 14.3194L2.93557 10.9671L6.50783 10.0282C8.47258 9.51177 10.3828 9 10.3828 9C10.3828 9 10.3828 10.0086 10.3828 13.372ZM53.6915 10.0882L57.0644 10.9691L57.0966 14.3204L57.1289 17.6717H53.373H49.6172V13.3625V9.05309L49.9679 9.13012C50.1606 9.17251 51.8363 9.60357 53.6915 10.0882ZM16.3164 21.5784C16.3164 21.5784 14.1367 23.7888 11.4727 26.4528L6.62893 31.2964V26.4219V21.5475H11.4727C14.1367 21.5475 16.3164 21.5784 16.3164 21.5784ZM45.7115 29.2078L53.3711 36.8682V39.9268V42.9853H52.2087C50.8474 42.9853 50.3575 43.163 49.9125 43.818L49.6172 44.2527V51.1889V58.1251H30H10.3828V51.1889V44.2527L10.0875 43.818C9.64246 43.163 9.15264 42.9853 7.79131 42.9853H6.62893V39.9275V36.8696L14.2877 29.2086L21.9465 21.5475H29.9993H38.052L45.7115 29.2078ZM53.3711 26.3922C53.3711 29.0568 53.3402 31.2369 53.3402 31.2369C53.3402 31.2369 51.1302 29.0568 48.4668 26.3922L43.6241 21.5475H48.4977H53.3711V26.3922ZM6.50783 52.4931V58.1251H4.69143H2.87502V52.4931V46.8611H4.69143H6.50783V52.4931ZM57.125 52.4931V58.1251H55.3086H53.4922V52.4931V46.8611H55.3086H57.125V52.4931Z"/>
</mask>
<path fill-rule="evenodd" clip-rule="evenodd" d="M14.8238 3.80942C6.84314 5.89834 0.140851 7.70832 -0.0703365 7.83174C-0.281524 7.95504 -0.576992 8.23821 -0.727148 8.46095L-0.999972 8.86597V14.492C-0.999972 20.8461 -1.0185 20.7079 -0.0956451 21.2488C0.350827 21.5105 0.558624 21.5475 1.58392 21.5475H2.75393V32.2558V42.9639L1.45217 43.005C0.339202 43.04 0.0954407 43.0851 -0.228243 43.316C-1.02758 43.8863 -0.999972 43.555 -0.999488 52.5719C-0.999125 60.4979 -0.992222 60.7403 -0.758391 61.1238C-0.626035 61.341 -0.340254 61.6268 -0.123133 61.7592C0.267878 61.9977 0.548813 62 30 62C59.4512 62 59.7321 61.9977 60.1231 61.7592C60.3403 61.6268 60.626 61.341 60.7584 61.1238C60.9922 60.7403 60.9991 60.4979 60.9995 52.5719C61 43.555 61.0276 43.8863 60.2282 43.316C59.9046 43.0851 59.6608 43.04 58.5478 43.005L57.2461 42.9639V32.2558V21.5475H58.4161C59.4414 21.5475 59.6492 21.5105 60.0956 21.2488C61.0185 20.7079 61 20.8461 61 14.492V8.86597L60.7271 8.46095C60.577 8.23821 60.2816 7.95516 60.0707 7.83186C59.473 7.4828 30.6037 -0.0137884 29.9099 1.90495e-05C29.5768 0.00655941 23.218 1.61222 14.8238 3.80942ZM28.0625 9.70761V14.9452L23.8827 10.7674C21.5839 8.46955 19.8563 6.55455 19.8563 6.55455C19.8563 6.55455 21.7263 6.06391 23.8242 5.50701C25.9222 4.95011 28.0625 4.46987 28.0625 4.46987C28.0625 4.46987 28.0625 4.79532 28.0625 9.70761ZM36.1425 5.50446C38.3253 6.07347 40.2026 6.56436 40.2026 6.56436C40.2026 6.56436 38.4137 8.46979 36.1157 10.7675L31.9375 14.9452V9.70761C31.9375 6.38523 31.9375 4.46987 31.9375 4.46987C31.9375 4.46987 33.9596 4.93545 36.1425 5.50446ZM20.3731 12.7059L25.3368 17.6717H19.7973H14.2578V12.839V8.00639L14.7119 7.88576C14.9617 7.81939 15.2877 7.75253 15.2877 7.75253C15.2877 7.75253 17.643 9.97468 20.3731 12.7059ZM45.2042 7.87559L45.7422 8.01099V12.8414V17.6717H40.2027H34.6632L39.6269 12.7059C42.357 9.97468 44.6285 7.74005 44.6285 7.74005C44.6285 7.74005 44.9083 7.80098 45.2042 7.87559ZM10.3828 13.372V17.6717H6.62699H2.87115L2.90336 14.3194L2.93557 10.9671L6.50783 10.0282C8.47258 9.51177 10.3828 9 10.3828 9C10.3828 9 10.3828 10.0086 10.3828 13.372ZM53.6915 10.0882L57.0644 10.9691L57.0966 14.3204L57.1289 17.6717H53.373H49.6172V13.3625V9.05309L49.9679 9.13012C50.1606 9.17251 51.8363 9.60357 53.6915 10.0882ZM16.3164 21.5784C16.3164 21.5784 14.1367 23.7888 11.4727 26.4528L6.62893 31.2964V26.4219V21.5475H11.4727C14.1367 21.5475 16.3164 21.5784 16.3164 21.5784ZM45.7115 29.2078L53.3711 36.8682V39.9268V42.9853H52.2087C50.8474 42.9853 50.3575 43.163 49.9125 43.818L49.6172 44.2527V51.1889V58.1251H30H10.3828V51.1889V44.2527L10.0875 43.818C9.64246 43.163 9.15264 42.9853 7.79131 42.9853H6.62893V39.9275V36.8696L14.2877 29.2086L21.9465 21.5475H29.9993H38.052L45.7115 29.2078ZM53.3711 26.3922C53.3711 29.0568 53.3402 31.2369 53.3402 31.2369C53.3402 31.2369 51.1302 29.0568 48.4668 26.3922L43.6241 21.5475H48.4977H53.3711V26.3922ZM6.50783 52.4931V58.1251H4.69143H2.87502V52.4931V46.8611H4.69143H6.50783V52.4931ZM57.125 52.4931V58.1251H55.3086H53.4922V52.4931V46.8611H55.3086H57.125V52.4931Z" fill="#231F20" stroke="white" stroke-width="2.4" mask="url(#path-1-inside-1_48_7937)"/>
</g>
<defs>
<clipPath id="clip0_48_7937">
<rect width="60" height="62" fill="white"/>
</clipPath>
</defs>
</svg>
