<svg width="60" height="62" viewBox="0 0 60 62" fill="none" xmlns="http://www.w3.org/2000/svg">
<path d="M6.8 24.5352H29.2V31.8529V54.0293C29.2 56.3489 27.3196 58.2293 25 58.2293H11C8.6804 58.2293 6.8 56.3489 6.8 54.0293V31.8529V24.5352Z" stroke="#231F20" stroke-width="1.6"/>
<path d="M23 25V19C23 17.3431 21.6569 16 20 16H16C14.3431 16 13 17.3431 13 19V25" stroke="#231F20" stroke-width="1.6"/>
<circle cx="36.7564" cy="14.4706" r="1.28571" transform="rotate(-30 36.7564 14.4706)" fill="#231F20"/>
<circle cx="41.2098" cy="11.8989" r="1.28571" transform="rotate(-30 41.2098 11.8989)" fill="#231F20"/>
<circle cx="45.664" cy="9.32754" r="1.28571" transform="rotate(-30 45.664 9.32754)" fill="#231F20"/>
<circle cx="50.1174" cy="6.75612" r="1.28571" transform="rotate(-30 50.1174 6.75612)" fill="#231F20"/>
<circle cx="36.7564" cy="24.7561" r="1.28571" transform="rotate(30 36.7564 24.7561)" fill="#231F20"/>
<circle cx="41.2097" cy="27.3275" r="1.28571" transform="rotate(30 41.2097 27.3275)" fill="#231F20"/>
<circle cx="45.664" cy="29.8989" r="1.28571" transform="rotate(30 45.664 29.8989)" fill="#231F20"/>
<circle cx="50.1173" cy="32.4703" r="1.28571" transform="rotate(30 50.1173 32.4703)" fill="#231F20"/>
<circle cx="36.2857" cy="19.1426" r="1.28571" fill="#231F20"/>
<circle cx="41.4285" cy="19.1426" r="1.28571" fill="#231F20"/>
<circle cx="46.5715" cy="19.1426" r="1.28571" fill="#231F20"/>
<circle cx="51.7142" cy="19.1426" r="1.28571" fill="#231F20"/>
</svg>
