<svg width="60" height="62" viewBox="0 0 60 62" fill="none" xmlns="http://www.w3.org/2000/svg">
<mask id="path-1-inside-1_48_7935" fill="white">
<path fill-rule="evenodd" clip-rule="evenodd" d="M4.13491 1.28102C3.89141 1.54037 3.87194 1.68322 3.87194 3.21643V4.87194H2.1995C-0.12094 4.87194 0.00111202 4.70972 0.00111202 7.79199C0.00111202 10.8382 -0.121787 10.6782 2.21643 10.6782H3.87194V12.6136V14.549H2.1995C-0.12094 14.549 0.00111202 14.3868 0.00111202 17.469C0.00111202 20.5153 -0.121787 20.3552 2.21643 20.3552H3.87194V31V41.6448H2.1995C-0.12094 41.6448 0.00111202 41.4826 0.00111202 44.5648C0.00111202 47.611 -0.121787 47.451 2.21643 47.451H3.87194V49.3864V51.3218H2.1995C-0.12094 51.3218 0.00111202 51.1596 0.00111202 54.2419C0.00111202 57.2881 -0.121787 57.1281 2.21643 57.1281H3.87194V58.8005C3.87194 61.1209 3.70972 60.9989 6.79199 60.9989C9.83821 60.9989 9.67817 61.1218 9.67817 58.7836V57.1281H12.5813H15.4844V58.8005C15.4844 61.1209 15.3222 60.9989 18.4045 60.9989C21.4507 60.9989 21.2906 61.1218 21.2906 58.7836V57.1281H24.1938H27.0969V58.8005C27.0969 61.1209 26.9347 60.9989 30.0169 60.9989C33.0632 60.9989 32.9031 61.1218 32.9031 58.7836V57.1281H35.8062H38.7094V58.8005C38.7094 61.1209 38.5471 60.9989 41.6294 60.9989C44.6756 60.9989 44.5156 61.1218 44.5156 58.7836V57.1281H47.4187H50.3218V58.8005C50.3218 61.1209 50.1596 60.9989 53.2419 60.9989C56.2881 60.9989 56.1281 61.1218 56.1281 58.7836V57.1281H57.8005C60.1209 57.1281 59.9989 57.2903 59.9989 54.208C59.9989 51.1618 60.1218 51.3218 57.7836 51.3218H56.1281V49.3864V47.451H57.8005C60.1209 47.451 59.9989 47.6132 59.9989 44.5309C59.9989 41.4847 60.1218 41.6448 57.7836 41.6448H56.1281V31V20.3552H57.8005C60.1209 20.3552 59.9989 20.5174 59.9989 17.4352C59.9989 14.389 60.1218 14.549 57.7836 14.549H56.1281V12.6136V10.6782H57.8005C60.1209 10.6782 59.9989 10.8404 59.9989 7.75812C59.9989 4.7119 60.1218 4.87194 57.7836 4.87194H56.1281V3.1995C56.1281 0.87906 56.2903 1.00111 53.208 1.00111C50.1618 1.00111 50.3218 0.878213 50.3218 3.21643V4.87194H47.4187H44.5156V3.1995C44.5156 0.87906 44.6778 1.00111 41.5955 1.00111C38.5493 1.00111 38.7094 0.878213 38.7094 3.21643V4.87194H35.8062H32.9031V3.1995C32.9031 0.87906 33.0653 1.00111 29.9831 1.00111C26.9368 1.00111 27.0969 0.878213 27.0969 3.21643V4.87194H24.1938H21.2906V3.1995C21.2906 0.87906 21.4529 1.00111 18.3706 1.00111C15.3244 1.00111 15.4844 0.878213 15.4844 3.21643V4.87194H12.5813H9.67817V3.1995C9.67817 0.87906 9.84038 1.00111 6.75812 1.00111C4.44748 1.00111 4.39244 1.00704 4.13491 1.28102ZM7.74276 3.90423V4.87194H6.77505H5.80735V3.90423V2.93652H6.77505H7.74276V3.90423ZM19.3552 3.90423V4.87194H18.3875H17.4198V3.90423V2.93652H18.3875H19.3552V3.90423ZM30.9677 3.90423V4.87194H30H29.0323V3.90423V2.93652H30H30.9677V3.90423ZM42.5802 3.90423V4.87194H41.6125H40.6448V3.90423V2.93652H41.6125H42.5802V3.90423ZM54.1927 3.90423V4.87194H53.2249H52.2572V3.90423V2.93652H53.2249H54.1927V3.90423ZM58.0635 7.77505V8.74276H30H1.93652V7.77505V6.80735H30H58.0635V7.77505ZM7.74276 12.6136V14.549H6.77505H5.80735V12.6136V10.6782H6.77505H7.74276V12.6136ZM15.4844 12.6136V14.549H12.5813H9.67817V12.6136V10.6782H12.5813H15.4844V12.6136ZM19.3552 12.6136V14.549H18.3875H17.4198V12.6136V10.6782H18.3875H19.3552V12.6136ZM27.0969 12.6136V14.549H24.1938H21.2906V12.6136V10.6782H24.1938H27.0969V12.6136ZM30.9677 12.6136V14.549H30H29.0323V12.6136V10.6782H30H30.9677V12.6136ZM38.7094 12.6136V14.549H35.8062H32.9031V12.6136V10.6782H35.8062H38.7094V12.6136ZM42.5802 12.6136V14.549H41.6125H40.6448V12.6136V10.6782H41.6125H42.5802V12.6136ZM50.3218 12.6136V14.549H47.4187H44.5156V12.6136V10.6782H47.4187H50.3218V12.6136ZM54.1927 12.6136V14.549H53.2249H52.2572V12.6136V10.6782H53.2249H54.1927V12.6136ZM58.0635 17.4521V18.4198H30H1.93652V17.4521V16.4844H30H58.0635V17.4521ZM7.74276 31V41.6448H6.77505H5.80735V31V20.3552H6.77505H7.74276V31ZM15.4844 31V41.6448H12.5813H9.67817V31V20.3552H12.5813H15.4844V31ZM19.3552 31V41.6448H18.3875H17.4198V31V20.3552H18.3875H19.3552V31ZM27.0969 31V41.6448H24.1938H21.2906V31V20.3552H24.1938H27.0969V31ZM30.9677 31V41.6448H30H29.0323V31V20.3552H30H30.9677V31ZM38.7094 31V41.6448H35.8062H32.9031V31V20.3552H35.8062H38.7094V31ZM42.5802 31V41.6448H41.6125H40.6448V31V20.3552H41.6125H42.5802V31ZM50.3218 31V41.6448H47.4187H44.5156V31V20.3552H47.4187H50.3218V31ZM54.1927 31V41.6448H53.2249H52.2572V31V20.3552H53.2249H54.1927V31ZM58.0635 44.5479V45.5156H30H1.93652V44.5479V43.5802H30H58.0635V44.5479ZM7.74276 49.3864V51.3218H6.77505H5.80735V49.3864V47.451H6.77505H7.74276V49.3864ZM15.4844 49.3864V51.3218H12.5813H9.67817V49.3864V47.451H12.5813H15.4844V49.3864ZM19.3552 49.3864V51.3218H18.3875H17.4198V49.3864V47.451H18.3875H19.3552V49.3864ZM27.0969 49.3864V51.3218H24.1938H21.2906V49.3864V47.451H24.1938H27.0969V49.3864ZM30.9677 49.3864V51.3218H30H29.0323V49.3864V47.451H30H30.9677V49.3864ZM38.7094 49.3864V51.3218H35.8062H32.9031V49.3864V47.451H35.8062H38.7094V49.3864ZM42.5802 49.3864V51.3218H41.6125H40.6448V49.3864V47.451H41.6125H42.5802V49.3864ZM50.3218 49.3864V51.3218H47.4187H44.5156V49.3864V47.451H47.4187H50.3218V49.3864ZM54.1927 49.3864V51.3218H53.2249H52.2572V49.3864V47.451H53.2249H54.1927V49.3864ZM58.0635 54.2249V55.1927H30H1.93652V54.2249V53.2572H30H58.0635V54.2249ZM7.74276 58.0958V59.0635H6.77505H5.80735V58.0958V57.1281H6.77505H7.74276V58.0958ZM19.3552 58.0958V59.0635H18.3875H17.4198V58.0958V57.1281H18.3875H19.3552V58.0958ZM30.9677 58.0958V59.0635H30H29.0323V58.0958V57.1281H30H30.9677V58.0958ZM42.5802 58.0958V59.0635H41.6125H40.6448V58.0958V57.1281H41.6125H42.5802V58.0958ZM54.1927 58.0958V59.0635H53.2249H52.2572V58.0958V57.1281H53.2249H54.1927V58.0958Z"/>
</mask>
<path fill-rule="evenodd" clip-rule="evenodd" d="M4.13491 1.28102C3.89141 1.54037 3.87194 1.68322 3.87194 3.21643V4.87194H2.1995C-0.12094 4.87194 0.00111202 4.70972 0.00111202 7.79199C0.00111202 10.8382 -0.121787 10.6782 2.21643 10.6782H3.87194V12.6136V14.549H2.1995C-0.12094 14.549 0.00111202 14.3868 0.00111202 17.469C0.00111202 20.5153 -0.121787 20.3552 2.21643 20.3552H3.87194V31V41.6448H2.1995C-0.12094 41.6448 0.00111202 41.4826 0.00111202 44.5648C0.00111202 47.611 -0.121787 47.451 2.21643 47.451H3.87194V49.3864V51.3218H2.1995C-0.12094 51.3218 0.00111202 51.1596 0.00111202 54.2419C0.00111202 57.2881 -0.121787 57.1281 2.21643 57.1281H3.87194V58.8005C3.87194 61.1209 3.70972 60.9989 6.79199 60.9989C9.83821 60.9989 9.67817 61.1218 9.67817 58.7836V57.1281H12.5813H15.4844V58.8005C15.4844 61.1209 15.3222 60.9989 18.4045 60.9989C21.4507 60.9989 21.2906 61.1218 21.2906 58.7836V57.1281H24.1938H27.0969V58.8005C27.0969 61.1209 26.9347 60.9989 30.0169 60.9989C33.0632 60.9989 32.9031 61.1218 32.9031 58.7836V57.1281H35.8062H38.7094V58.8005C38.7094 61.1209 38.5471 60.9989 41.6294 60.9989C44.6756 60.9989 44.5156 61.1218 44.5156 58.7836V57.1281H47.4187H50.3218V58.8005C50.3218 61.1209 50.1596 60.9989 53.2419 60.9989C56.2881 60.9989 56.1281 61.1218 56.1281 58.7836V57.1281H57.8005C60.1209 57.1281 59.9989 57.2903 59.9989 54.208C59.9989 51.1618 60.1218 51.3218 57.7836 51.3218H56.1281V49.3864V47.451H57.8005C60.1209 47.451 59.9989 47.6132 59.9989 44.5309C59.9989 41.4847 60.1218 41.6448 57.7836 41.6448H56.1281V31V20.3552H57.8005C60.1209 20.3552 59.9989 20.5174 59.9989 17.4352C59.9989 14.389 60.1218 14.549 57.7836 14.549H56.1281V12.6136V10.6782H57.8005C60.1209 10.6782 59.9989 10.8404 59.9989 7.75812C59.9989 4.7119 60.1218 4.87194 57.7836 4.87194H56.1281V3.1995C56.1281 0.87906 56.2903 1.00111 53.208 1.00111C50.1618 1.00111 50.3218 0.878213 50.3218 3.21643V4.87194H47.4187H44.5156V3.1995C44.5156 0.87906 44.6778 1.00111 41.5955 1.00111C38.5493 1.00111 38.7094 0.878213 38.7094 3.21643V4.87194H35.8062H32.9031V3.1995C32.9031 0.87906 33.0653 1.00111 29.9831 1.00111C26.9368 1.00111 27.0969 0.878213 27.0969 3.21643V4.87194H24.1938H21.2906V3.1995C21.2906 0.87906 21.4529 1.00111 18.3706 1.00111C15.3244 1.00111 15.4844 0.878213 15.4844 3.21643V4.87194H12.5813H9.67817V3.1995C9.67817 0.87906 9.84038 1.00111 6.75812 1.00111C4.44748 1.00111 4.39244 1.00704 4.13491 1.28102ZM7.74276 3.90423V4.87194H6.77505H5.80735V3.90423V2.93652H6.77505H7.74276V3.90423ZM19.3552 3.90423V4.87194H18.3875H17.4198V3.90423V2.93652H18.3875H19.3552V3.90423ZM30.9677 3.90423V4.87194H30H29.0323V3.90423V2.93652H30H30.9677V3.90423ZM42.5802 3.90423V4.87194H41.6125H40.6448V3.90423V2.93652H41.6125H42.5802V3.90423ZM54.1927 3.90423V4.87194H53.2249H52.2572V3.90423V2.93652H53.2249H54.1927V3.90423ZM58.0635 7.77505V8.74276H30H1.93652V7.77505V6.80735H30H58.0635V7.77505ZM7.74276 12.6136V14.549H6.77505H5.80735V12.6136V10.6782H6.77505H7.74276V12.6136ZM15.4844 12.6136V14.549H12.5813H9.67817V12.6136V10.6782H12.5813H15.4844V12.6136ZM19.3552 12.6136V14.549H18.3875H17.4198V12.6136V10.6782H18.3875H19.3552V12.6136ZM27.0969 12.6136V14.549H24.1938H21.2906V12.6136V10.6782H24.1938H27.0969V12.6136ZM30.9677 12.6136V14.549H30H29.0323V12.6136V10.6782H30H30.9677V12.6136ZM38.7094 12.6136V14.549H35.8062H32.9031V12.6136V10.6782H35.8062H38.7094V12.6136ZM42.5802 12.6136V14.549H41.6125H40.6448V12.6136V10.6782H41.6125H42.5802V12.6136ZM50.3218 12.6136V14.549H47.4187H44.5156V12.6136V10.6782H47.4187H50.3218V12.6136ZM54.1927 12.6136V14.549H53.2249H52.2572V12.6136V10.6782H53.2249H54.1927V12.6136ZM58.0635 17.4521V18.4198H30H1.93652V17.4521V16.4844H30H58.0635V17.4521ZM7.74276 31V41.6448H6.77505H5.80735V31V20.3552H6.77505H7.74276V31ZM15.4844 31V41.6448H12.5813H9.67817V31V20.3552H12.5813H15.4844V31ZM19.3552 31V41.6448H18.3875H17.4198V31V20.3552H18.3875H19.3552V31ZM27.0969 31V41.6448H24.1938H21.2906V31V20.3552H24.1938H27.0969V31ZM30.9677 31V41.6448H30H29.0323V31V20.3552H30H30.9677V31ZM38.7094 31V41.6448H35.8062H32.9031V31V20.3552H35.8062H38.7094V31ZM42.5802 31V41.6448H41.6125H40.6448V31V20.3552H41.6125H42.5802V31ZM50.3218 31V41.6448H47.4187H44.5156V31V20.3552H47.4187H50.3218V31ZM54.1927 31V41.6448H53.2249H52.2572V31V20.3552H53.2249H54.1927V31ZM58.0635 44.5479V45.5156H30H1.93652V44.5479V43.5802H30H58.0635V44.5479ZM7.74276 49.3864V51.3218H6.77505H5.80735V49.3864V47.451H6.77505H7.74276V49.3864ZM15.4844 49.3864V51.3218H12.5813H9.67817V49.3864V47.451H12.5813H15.4844V49.3864ZM19.3552 49.3864V51.3218H18.3875H17.4198V49.3864V47.451H18.3875H19.3552V49.3864ZM27.0969 49.3864V51.3218H24.1938H21.2906V49.3864V47.451H24.1938H27.0969V49.3864ZM30.9677 49.3864V51.3218H30H29.0323V49.3864V47.451H30H30.9677V49.3864ZM38.7094 49.3864V51.3218H35.8062H32.9031V49.3864V47.451H35.8062H38.7094V49.3864ZM42.5802 49.3864V51.3218H41.6125H40.6448V49.3864V47.451H41.6125H42.5802V49.3864ZM50.3218 49.3864V51.3218H47.4187H44.5156V49.3864V47.451H47.4187H50.3218V49.3864ZM54.1927 49.3864V51.3218H53.2249H52.2572V49.3864V47.451H53.2249H54.1927V49.3864ZM58.0635 54.2249V55.1927H30H1.93652V54.2249V53.2572H30H58.0635V54.2249ZM7.74276 58.0958V59.0635H6.77505H5.80735V58.0958V57.1281H6.77505H7.74276V58.0958ZM19.3552 58.0958V59.0635H18.3875H17.4198V58.0958V57.1281H18.3875H19.3552V58.0958ZM30.9677 58.0958V59.0635H30H29.0323V58.0958V57.1281H30H30.9677V58.0958ZM42.5802 58.0958V59.0635H41.6125H40.6448V58.0958V57.1281H41.6125H42.5802V58.0958ZM54.1927 58.0958V59.0635H53.2249H52.2572V58.0958V57.1281H53.2249H54.1927V58.0958Z" fill="#231F20" stroke="white" mask="url(#path-1-inside-1_48_7935)"/>
</svg>
