<svg width="60" height="62" viewBox="0 0 60 62" fill="none" xmlns="http://www.w3.org/2000/svg">
<mask id="path-1-inside-1_48_7927" fill="white">
<path fill-rule="evenodd" clip-rule="evenodd" d="M29.2668 0.33907C29.11 0.525485 27.8448 2.64764 26.4552 5.05511C25.0658 7.46257 21.7086 13.2775 18.9947 17.9772C13.5974 27.3242 13.7048 27.0976 14.3962 27.6792C14.5808 27.8344 15.2389 28.2477 15.8587 28.5977C16.4785 28.9475 16.9867 29.2744 16.9881 29.3242C16.9895 29.3739 16.1995 30.7919 15.2326 32.4753C14.1864 34.2965 13.4745 35.6608 13.4745 35.8446C13.4745 36.2872 13.7355 36.6001 14.4395 37.0009C14.779 37.1942 16.0279 37.9115 17.2148 38.595C18.4997 39.3348 19.5009 39.8375 19.6895 39.8375C19.8637 39.8375 20.14 39.7323 20.3035 39.6037C20.467 39.4751 21.3754 38.0252 22.3219 36.3815C23.2684 34.738 24.0717 33.3933 24.1072 33.3933C24.1426 33.3933 24.7619 33.736 25.4834 34.1549C26.9304 34.9949 27.3433 35.0831 27.8144 34.6528C27.9732 34.5078 29.4857 31.9902 31.1754 29.058C32.8651 26.1259 34.2673 23.6928 34.2915 23.6511C34.3156 23.6095 34.6652 23.6819 35.0684 23.812C35.5851 23.9789 36.1475 24.0527 36.9735 24.062C38.2211 24.0759 39.0421 23.9202 40.0346 23.4814L40.6412 23.2132L41.2491 23.6666C43.2315 25.1452 45.0722 27.4021 46.1721 29.7025C48.0982 33.7312 48.4085 38.1105 47.0595 42.2274C46.2041 44.8382 44.6768 47.2971 42.7219 49.211L42.0637 49.8555L23.1104 49.9173C5.56436 49.9745 4.11422 49.9942 3.58083 50.1812C1.71896 50.8341 0.415092 52.3455 0.110719 54.2039C-0.0408231 55.129 -0.0353146 58.9548 0.118103 59.3582C0.185142 59.5344 0.330121 59.7471 0.440408 59.8308C0.737397 60.0564 59.2626 60.0564 59.5596 59.8308C59.6699 59.7471 59.8149 59.5344 59.8819 59.3582C60.0353 58.9548 60.0408 55.129 59.8893 54.2039C59.5835 52.3372 58.2257 50.7711 56.4192 50.2016C56.0785 50.0941 55.1604 49.9913 54.1729 49.9498C53.2544 49.9112 52.5028 49.8639 52.5028 49.8447C52.5028 49.8256 52.7892 49.2665 53.1392 48.6023C55.0637 44.9511 55.9454 41.3044 55.9384 37.0255C55.9317 32.9551 55.1823 29.7395 53.3854 26.0702C52.0293 23.3011 50.4599 21.1458 48.2692 19.0436C47.1786 17.9972 45.2828 16.487 44.4196 15.9773C44.1518 15.8192 44.0213 15.6122 43.8792 15.1197C43.5808 14.0858 43.0116 13.1301 42.1576 12.2292L41.3642 11.3924L42.2455 9.87648C43.2288 8.18468 43.3341 7.73463 42.8521 7.28201C42.7012 7.14024 39.8399 5.44411 36.4939 3.51282C29.8214 -0.338516 29.8329 -0.333478 29.2668 0.33907ZM35.6052 5.43825L40.6583 8.35715L40.2223 9.15718C39.4793 10.5204 39.5534 10.4688 38.6694 10.2424C37.6465 9.98041 35.9814 10.0658 34.8727 10.4371C30.1194 12.0292 28.5492 18.1185 31.9461 21.7865L32.5521 22.4408L29.8054 27.1847C28.2948 29.794 26.9942 32.0467 26.9154 32.191C26.7551 32.4837 27.6397 32.9537 19.2763 28.1324C17.7939 27.2778 16.565 26.5626 16.5456 26.5431C16.4831 26.4808 30.3957 2.45572 30.4754 2.48818C30.5176 2.50528 32.826 3.8328 35.6052 5.43825ZM38.3588 12.3609C39.328 12.6133 39.921 12.9493 40.6048 13.6338C42.5197 15.5508 42.5281 18.4661 40.6241 20.4788C38.541 22.6811 35.0603 22.4545 33.2119 19.9964C30.4501 16.3233 33.9032 11.2007 38.3588 12.3609ZM47.1129 20.8562C53.4445 27.1648 55.5433 36.5276 52.4968 44.8731C51.9719 46.3108 51.0691 48.1057 50.2058 49.428C49.3483 50.7416 49.2271 51.2607 49.6736 51.7077C49.9195 51.954 50.0471 51.9672 52.7694 52.0289C55.9396 52.1009 56.1878 52.1541 56.9864 52.9321C57.7103 53.6372 57.894 54.3199 57.894 56.3042V57.9987H30H2.10596V56.3042C2.10596 54.8983 2.14581 54.5032 2.33966 53.9853C2.60618 53.2729 3.23333 52.6024 3.92259 52.2924C4.36679 52.0927 5.39629 52.08 23.5584 52.0504L42.7254 52.019L43.5523 51.2888C46.9604 48.2787 49.1155 44.2793 49.8174 39.6618C49.9989 38.4677 49.9953 35.6065 49.8107 34.3892C49.1774 30.2119 47.382 26.6152 44.4838 23.7174C43.8985 23.1322 43.1852 22.4652 42.8988 22.2351L42.3779 21.8168L42.7007 21.3937C43.1183 20.8464 43.7515 19.5436 43.9427 18.8386L44.0927 18.2856L45.0443 19.0143C45.5676 19.4152 46.4985 20.244 47.1129 20.8562ZM21.2313 31.6948L22.249 32.2894L20.797 34.8039C19.9983 36.1869 19.3121 37.3124 19.272 37.3051C19.0749 37.2691 16.053 35.4687 16.053 35.3872C16.053 35.3356 16.6935 34.1808 17.4763 32.8211L18.8997 30.349L19.5566 30.7245C19.9179 30.9311 20.6716 31.3677 21.2313 31.6948ZM6.60171 46.098C6.35242 46.2075 6.19045 46.3901 6.10032 46.663C5.95089 47.1157 6.0157 47.3899 6.36309 47.7757L6.60054 48.0393H15.0239H23.4474L23.735 47.7517C24.1394 47.3475 24.1326 46.6603 23.7203 46.2729L23.4179 45.9889L15.1939 45.9625C8.41166 45.9409 6.90526 45.9646 6.60171 46.098Z"/>
</mask>
<path fill-rule="evenodd" clip-rule="evenodd" d="M29.2668 0.33907C29.11 0.525485 27.8448 2.64764 26.4552 5.05511C25.0658 7.46257 21.7086 13.2775 18.9947 17.9772C13.5974 27.3242 13.7048 27.0976 14.3962 27.6792C14.5808 27.8344 15.2389 28.2477 15.8587 28.5977C16.4785 28.9475 16.9867 29.2744 16.9881 29.3242C16.9895 29.3739 16.1995 30.7919 15.2326 32.4753C14.1864 34.2965 13.4745 35.6608 13.4745 35.8446C13.4745 36.2872 13.7355 36.6001 14.4395 37.0009C14.779 37.1942 16.0279 37.9115 17.2148 38.595C18.4997 39.3348 19.5009 39.8375 19.6895 39.8375C19.8637 39.8375 20.14 39.7323 20.3035 39.6037C20.467 39.4751 21.3754 38.0252 22.3219 36.3815C23.2684 34.738 24.0717 33.3933 24.1072 33.3933C24.1426 33.3933 24.7619 33.736 25.4834 34.1549C26.9304 34.9949 27.3433 35.0831 27.8144 34.6528C27.9732 34.5078 29.4857 31.9902 31.1754 29.058C32.8651 26.1259 34.2673 23.6928 34.2915 23.6511C34.3156 23.6095 34.6652 23.6819 35.0684 23.812C35.5851 23.9789 36.1475 24.0527 36.9735 24.062C38.2211 24.0759 39.0421 23.9202 40.0346 23.4814L40.6412 23.2132L41.2491 23.6666C43.2315 25.1452 45.0722 27.4021 46.1721 29.7025C48.0982 33.7312 48.4085 38.1105 47.0595 42.2274C46.2041 44.8382 44.6768 47.2971 42.7219 49.211L42.0637 49.8555L23.1104 49.9173C5.56436 49.9745 4.11422 49.9942 3.58083 50.1812C1.71896 50.8341 0.415092 52.3455 0.110719 54.2039C-0.0408231 55.129 -0.0353146 58.9548 0.118103 59.3582C0.185142 59.5344 0.330121 59.7471 0.440408 59.8308C0.737397 60.0564 59.2626 60.0564 59.5596 59.8308C59.6699 59.7471 59.8149 59.5344 59.8819 59.3582C60.0353 58.9548 60.0408 55.129 59.8893 54.2039C59.5835 52.3372 58.2257 50.7711 56.4192 50.2016C56.0785 50.0941 55.1604 49.9913 54.1729 49.9498C53.2544 49.9112 52.5028 49.8639 52.5028 49.8447C52.5028 49.8256 52.7892 49.2665 53.1392 48.6023C55.0637 44.9511 55.9454 41.3044 55.9384 37.0255C55.9317 32.9551 55.1823 29.7395 53.3854 26.0702C52.0293 23.3011 50.4599 21.1458 48.2692 19.0436C47.1786 17.9972 45.2828 16.487 44.4196 15.9773C44.1518 15.8192 44.0213 15.6122 43.8792 15.1197C43.5808 14.0858 43.0116 13.1301 42.1576 12.2292L41.3642 11.3924L42.2455 9.87648C43.2288 8.18468 43.3341 7.73463 42.8521 7.28201C42.7012 7.14024 39.8399 5.44411 36.4939 3.51282C29.8214 -0.338516 29.8329 -0.333478 29.2668 0.33907ZM35.6052 5.43825L40.6583 8.35715L40.2223 9.15718C39.4793 10.5204 39.5534 10.4688 38.6694 10.2424C37.6465 9.98041 35.9814 10.0658 34.8727 10.4371C30.1194 12.0292 28.5492 18.1185 31.9461 21.7865L32.5521 22.4408L29.8054 27.1847C28.2948 29.794 26.9942 32.0467 26.9154 32.191C26.7551 32.4837 27.6397 32.9537 19.2763 28.1324C17.7939 27.2778 16.565 26.5626 16.5456 26.5431C16.4831 26.4808 30.3957 2.45572 30.4754 2.48818C30.5176 2.50528 32.826 3.8328 35.6052 5.43825ZM38.3588 12.3609C39.328 12.6133 39.921 12.9493 40.6048 13.6338C42.5197 15.5508 42.5281 18.4661 40.6241 20.4788C38.541 22.6811 35.0603 22.4545 33.2119 19.9964C30.4501 16.3233 33.9032 11.2007 38.3588 12.3609ZM47.1129 20.8562C53.4445 27.1648 55.5433 36.5276 52.4968 44.8731C51.9719 46.3108 51.0691 48.1057 50.2058 49.428C49.3483 50.7416 49.2271 51.2607 49.6736 51.7077C49.9195 51.954 50.0471 51.9672 52.7694 52.0289C55.9396 52.1009 56.1878 52.1541 56.9864 52.9321C57.7103 53.6372 57.894 54.3199 57.894 56.3042V57.9987H30H2.10596V56.3042C2.10596 54.8983 2.14581 54.5032 2.33966 53.9853C2.60618 53.2729 3.23333 52.6024 3.92259 52.2924C4.36679 52.0927 5.39629 52.08 23.5584 52.0504L42.7254 52.019L43.5523 51.2888C46.9604 48.2787 49.1155 44.2793 49.8174 39.6618C49.9989 38.4677 49.9953 35.6065 49.8107 34.3892C49.1774 30.2119 47.382 26.6152 44.4838 23.7174C43.8985 23.1322 43.1852 22.4652 42.8988 22.2351L42.3779 21.8168L42.7007 21.3937C43.1183 20.8464 43.7515 19.5436 43.9427 18.8386L44.0927 18.2856L45.0443 19.0143C45.5676 19.4152 46.4985 20.244 47.1129 20.8562ZM21.2313 31.6948L22.249 32.2894L20.797 34.8039C19.9983 36.1869 19.3121 37.3124 19.272 37.3051C19.0749 37.2691 16.053 35.4687 16.053 35.3872C16.053 35.3356 16.6935 34.1808 17.4763 32.8211L18.8997 30.349L19.5566 30.7245C19.9179 30.9311 20.6716 31.3677 21.2313 31.6948ZM6.60171 46.098C6.35242 46.2075 6.19045 46.3901 6.10032 46.663C5.95089 47.1157 6.0157 47.3899 6.36309 47.7757L6.60054 48.0393H15.0239H23.4474L23.735 47.7517C24.1394 47.3475 24.1326 46.6603 23.7203 46.2729L23.4179 45.9889L15.1939 45.9625C8.41166 45.9409 6.90526 45.9646 6.60171 46.098Z" fill="#231F20" stroke="white" stroke-width="0.6" mask="url(#path-1-inside-1_48_7927)"/>
</svg>
