<svg width="60" height="62" viewBox="0 0 60 62" fill="none" xmlns="http://www.w3.org/2000/svg">
<g clip-path="url(#clip0_48_7933)">
<mask id="path-1-inside-1_48_7933" fill="white">
<path fill-rule="evenodd" clip-rule="evenodd" d="M26.5444 1.07912C19.6354 1.93624 13.4048 4.97302 8.61615 9.81707C6.23705 12.2237 4.48412 14.7059 2.98993 17.7839C1.67523 20.4921 0.892364 22.9216 0.345568 25.9907C0.0179482 27.8294 -0.106658 31.9065 0.103351 33.9129C0.83374 40.8914 3.83792 47.1635 8.85306 52.1804C13.4817 56.8108 19.0673 59.669 25.6244 60.7627C27.5131 61.0777 32.6272 61.0795 34.6067 60.7659C37.7796 60.263 40.4261 59.4112 43.477 57.9106C46.5713 56.3884 48.8735 54.7396 51.3166 52.2957C55.7514 47.8592 58.5774 42.3745 59.7201 35.9862C59.9634 34.6267 59.9975 34.0399 59.9999 31.1795C60.0031 27.5618 59.8913 26.5677 59.1587 23.6973C57.7997 18.372 55.1878 13.8163 51.199 9.81393C46.6713 5.27095 41.2397 2.44776 34.8368 1.30899C33.6297 1.09432 32.7794 1.0364 30.3891 1.00611C28.7637 0.985598 27.0335 1.01842 26.5444 1.07912ZM33.1635 3.25649C39.4206 3.93972 45.2352 6.74723 49.7524 11.2661C53.4112 14.9264 55.8413 19.2169 57.1229 24.2802C58.1722 28.4255 58.1722 33.5715 57.1229 37.7168C54.5726 47.7918 46.8227 55.5622 36.8034 58.0901C32.5847 59.1545 27.4788 59.1599 23.3114 58.1041C18.2499 56.822 13.961 54.3911 10.302 50.7309C6.6596 47.0872 4.20149 42.7588 2.94553 37.7771C1.87124 33.5163 1.87124 28.4807 2.94553 24.2199C4.86059 16.6243 9.83616 10.2105 16.7584 6.41442C21.5923 3.76366 27.4619 2.63383 33.1635 3.25649ZM26.5894 7.05349C21.3344 7.85534 16.6692 10.205 12.9553 13.9203C9.21301 17.664 6.85839 22.3673 6.08928 27.6352C5.84333 29.3199 5.84333 32.6771 6.08928 34.3618C6.85839 39.6297 9.21301 44.333 12.9553 48.0767C16.5167 51.6393 20.8294 53.8865 25.9487 54.8465C27.3007 55.1 31.2342 55.2019 32.7558 55.0226C40.1923 54.1466 46.7405 49.9562 50.6867 43.5482C52.376 40.8049 53.6138 37.2277 54.0258 33.8977C54.2136 32.3805 54.182 29.1206 53.9652 27.6352C53.196 22.3673 50.8414 17.664 47.0991 13.9203C43.329 10.1488 38.7237 7.84701 33.3444 7.04564C31.8321 6.82035 28.089 6.8247 26.5894 7.05349ZM33.2841 9.11284C40.5287 10.1914 46.8014 14.833 49.9779 21.4656C51.63 24.9152 52.3056 28.4572 52.0801 32.487C51.7038 39.214 48.0376 45.5359 42.2707 49.402C38.2 52.1312 33.6385 53.3449 28.5283 53.0589C21.8154 52.683 15.4925 49.0114 11.6305 43.2465C8.91506 39.1933 7.69276 34.6244 7.97068 29.5662C8.40192 21.7163 13.2756 14.5085 20.4978 11.039C24.45 9.14047 28.9334 8.46508 33.2841 9.11284ZM29.3245 10.0398C29.0737 10.3069 29.0622 10.4223 29.0622 12.6736C29.0622 14.9786 29.0681 15.0335 29.3413 15.2904C29.724 15.6499 30.3839 15.6419 30.73 15.2735C30.9808 15.0065 30.9922 14.891 30.9922 12.6398C30.9922 10.3347 30.9863 10.2798 30.7131 10.0229C30.3305 9.66346 29.6705 9.67142 29.3245 10.0398ZM15.0039 15.9697C14.7965 16.177 14.7078 16.3993 14.7078 16.7107C14.7078 17.1112 14.8202 17.268 15.8367 18.2848C16.882 19.3306 17.0011 19.4142 17.4441 19.4142C18.0751 19.4142 18.4471 19.0358 18.4471 18.3939C18.4471 17.9719 18.3497 17.8346 17.3182 16.8028C16.3017 15.7859 16.145 15.6734 15.7446 15.6734C15.4333 15.6734 15.2111 15.7622 15.0039 15.9697ZM42.7362 16.8028C41.6909 17.8485 41.6073 17.9676 41.6073 18.4108C41.6073 19.042 41.9856 19.4142 42.6272 19.4142C43.049 19.4142 43.1863 19.3167 44.2178 18.2848C45.2343 17.268 45.3467 17.1112 45.3467 16.7107C45.3467 16.1047 44.9156 15.6734 44.3098 15.6734C43.9094 15.6734 43.7527 15.7859 42.7362 16.8028ZM34.3625 25.1592L31.9782 27.5254L31.3564 27.3188C30.5001 27.0343 29.0775 27.1051 28.3336 27.4693C24.911 29.1449 25.7091 34.3677 29.4609 34.8474C31.191 35.0685 32.8096 34.2168 33.5552 32.6927C33.9192 31.9485 33.99 30.5255 33.7056 29.6688L33.4991 29.0468L35.8644 26.6616C38.1407 24.3662 38.2298 24.2584 38.2298 23.797C38.2298 23.1649 37.8517 22.793 37.2092 22.793C36.77 22.793 36.6277 22.9112 34.3625 25.1592ZM31.3209 29.6987C32.3119 30.6564 31.8435 32.4344 30.5097 32.7783C29.5276 33.0316 28.4383 32.3833 28.2442 31.4303C27.8725 29.6037 29.9898 28.4119 31.3209 29.6987ZM9.05933 30.3124C8.69999 30.6951 8.70795 31.3553 9.07622 31.7015C9.34316 31.9524 9.4586 31.9639 11.709 31.9639C14.0132 31.9639 14.0681 31.958 14.3249 31.6846C14.6842 31.3019 14.6763 30.6417 14.308 30.2955C14.0411 30.0446 13.9256 30.0331 11.6752 30.0331C9.37103 30.0331 9.31614 30.0391 9.05933 30.3124ZM45.7296 30.3124C45.3702 30.6951 45.3782 31.3553 45.7464 31.7015C46.0134 31.9524 46.1288 31.9639 48.3792 31.9639C50.6834 31.9639 50.7383 31.958 50.9951 31.6846C51.3545 31.3019 51.3465 30.6417 50.9782 30.2955C50.7113 30.0446 50.5958 30.0331 48.3454 30.0331C46.0413 30.0331 45.9864 30.0391 45.7296 30.3124ZM15.8367 43.7122C14.8202 44.7291 14.7078 44.8858 14.7078 45.2863C14.7078 45.8923 15.1389 46.3236 15.7446 46.3236C16.145 46.3236 16.3017 46.2111 17.3182 45.1942C18.3347 44.1774 18.4471 44.0206 18.4471 43.6201C18.4471 43.0141 18.016 42.5828 17.4102 42.5828C17.0099 42.5828 16.8532 42.6953 15.8367 43.7122ZM41.9034 42.8791C41.6961 43.0864 41.6073 43.3086 41.6073 43.6201C41.6073 44.0206 41.7197 44.1774 42.7362 45.1942C43.7527 46.2111 43.9094 46.3236 44.3098 46.3236C44.9156 46.3236 45.3467 45.8923 45.3467 45.2863C45.3467 44.8858 45.2343 44.7291 44.2178 43.7122C43.2012 42.6953 43.0445 42.5828 42.6442 42.5828C42.3329 42.5828 42.1107 42.6716 41.9034 42.8791Z"/>
</mask>
<path fill-rule="evenodd" clip-rule="evenodd" d="M26.5444 1.07912C19.6354 1.93624 13.4048 4.97302 8.61615 9.81707C6.23705 12.2237 4.48412 14.7059 2.98993 17.7839C1.67523 20.4921 0.892364 22.9216 0.345568 25.9907C0.0179482 27.8294 -0.106658 31.9065 0.103351 33.9129C0.83374 40.8914 3.83792 47.1635 8.85306 52.1804C13.4817 56.8108 19.0673 59.669 25.6244 60.7627C27.5131 61.0777 32.6272 61.0795 34.6067 60.7659C37.7796 60.263 40.4261 59.4112 43.477 57.9106C46.5713 56.3884 48.8735 54.7396 51.3166 52.2957C55.7514 47.8592 58.5774 42.3745 59.7201 35.9862C59.9634 34.6267 59.9975 34.0399 59.9999 31.1795C60.0031 27.5618 59.8913 26.5677 59.1587 23.6973C57.7997 18.372 55.1878 13.8163 51.199 9.81393C46.6713 5.27095 41.2397 2.44776 34.8368 1.30899C33.6297 1.09432 32.7794 1.0364 30.3891 1.00611C28.7637 0.985598 27.0335 1.01842 26.5444 1.07912ZM33.1635 3.25649C39.4206 3.93972 45.2352 6.74723 49.7524 11.2661C53.4112 14.9264 55.8413 19.2169 57.1229 24.2802C58.1722 28.4255 58.1722 33.5715 57.1229 37.7168C54.5726 47.7918 46.8227 55.5622 36.8034 58.0901C32.5847 59.1545 27.4788 59.1599 23.3114 58.1041C18.2499 56.822 13.961 54.3911 10.302 50.7309C6.6596 47.0872 4.20149 42.7588 2.94553 37.7771C1.87124 33.5163 1.87124 28.4807 2.94553 24.2199C4.86059 16.6243 9.83616 10.2105 16.7584 6.41442C21.5923 3.76366 27.4619 2.63383 33.1635 3.25649ZM26.5894 7.05349C21.3344 7.85534 16.6692 10.205 12.9553 13.9203C9.21301 17.664 6.85839 22.3673 6.08928 27.6352C5.84333 29.3199 5.84333 32.6771 6.08928 34.3618C6.85839 39.6297 9.21301 44.333 12.9553 48.0767C16.5167 51.6393 20.8294 53.8865 25.9487 54.8465C27.3007 55.1 31.2342 55.2019 32.7558 55.0226C40.1923 54.1466 46.7405 49.9562 50.6867 43.5482C52.376 40.8049 53.6138 37.2277 54.0258 33.8977C54.2136 32.3805 54.182 29.1206 53.9652 27.6352C53.196 22.3673 50.8414 17.664 47.0991 13.9203C43.329 10.1488 38.7237 7.84701 33.3444 7.04564C31.8321 6.82035 28.089 6.8247 26.5894 7.05349ZM33.2841 9.11284C40.5287 10.1914 46.8014 14.833 49.9779 21.4656C51.63 24.9152 52.3056 28.4572 52.0801 32.487C51.7038 39.214 48.0376 45.5359 42.2707 49.402C38.2 52.1312 33.6385 53.3449 28.5283 53.0589C21.8154 52.683 15.4925 49.0114 11.6305 43.2465C8.91506 39.1933 7.69276 34.6244 7.97068 29.5662C8.40192 21.7163 13.2756 14.5085 20.4978 11.039C24.45 9.14047 28.9334 8.46508 33.2841 9.11284ZM29.3245 10.0398C29.0737 10.3069 29.0622 10.4223 29.0622 12.6736C29.0622 14.9786 29.0681 15.0335 29.3413 15.2904C29.724 15.6499 30.3839 15.6419 30.73 15.2735C30.9808 15.0065 30.9922 14.891 30.9922 12.6398C30.9922 10.3347 30.9863 10.2798 30.7131 10.0229C30.3305 9.66346 29.6705 9.67142 29.3245 10.0398ZM15.0039 15.9697C14.7965 16.177 14.7078 16.3993 14.7078 16.7107C14.7078 17.1112 14.8202 17.268 15.8367 18.2848C16.882 19.3306 17.0011 19.4142 17.4441 19.4142C18.0751 19.4142 18.4471 19.0358 18.4471 18.3939C18.4471 17.9719 18.3497 17.8346 17.3182 16.8028C16.3017 15.7859 16.145 15.6734 15.7446 15.6734C15.4333 15.6734 15.2111 15.7622 15.0039 15.9697ZM42.7362 16.8028C41.6909 17.8485 41.6073 17.9676 41.6073 18.4108C41.6073 19.042 41.9856 19.4142 42.6272 19.4142C43.049 19.4142 43.1863 19.3167 44.2178 18.2848C45.2343 17.268 45.3467 17.1112 45.3467 16.7107C45.3467 16.1047 44.9156 15.6734 44.3098 15.6734C43.9094 15.6734 43.7527 15.7859 42.7362 16.8028ZM34.3625 25.1592L31.9782 27.5254L31.3564 27.3188C30.5001 27.0343 29.0775 27.1051 28.3336 27.4693C24.911 29.1449 25.7091 34.3677 29.4609 34.8474C31.191 35.0685 32.8096 34.2168 33.5552 32.6927C33.9192 31.9485 33.99 30.5255 33.7056 29.6688L33.4991 29.0468L35.8644 26.6616C38.1407 24.3662 38.2298 24.2584 38.2298 23.797C38.2298 23.1649 37.8517 22.793 37.2092 22.793C36.77 22.793 36.6277 22.9112 34.3625 25.1592ZM31.3209 29.6987C32.3119 30.6564 31.8435 32.4344 30.5097 32.7783C29.5276 33.0316 28.4383 32.3833 28.2442 31.4303C27.8725 29.6037 29.9898 28.4119 31.3209 29.6987ZM9.05933 30.3124C8.69999 30.6951 8.70795 31.3553 9.07622 31.7015C9.34316 31.9524 9.4586 31.9639 11.709 31.9639C14.0132 31.9639 14.0681 31.958 14.3249 31.6846C14.6842 31.3019 14.6763 30.6417 14.308 30.2955C14.0411 30.0446 13.9256 30.0331 11.6752 30.0331C9.37103 30.0331 9.31614 30.0391 9.05933 30.3124ZM45.7296 30.3124C45.3702 30.6951 45.3782 31.3553 45.7464 31.7015C46.0134 31.9524 46.1288 31.9639 48.3792 31.9639C50.6834 31.9639 50.7383 31.958 50.9951 31.6846C51.3545 31.3019 51.3465 30.6417 50.9782 30.2955C50.7113 30.0446 50.5958 30.0331 48.3454 30.0331C46.0413 30.0331 45.9864 30.0391 45.7296 30.3124ZM15.8367 43.7122C14.8202 44.7291 14.7078 44.8858 14.7078 45.2863C14.7078 45.8923 15.1389 46.3236 15.7446 46.3236C16.145 46.3236 16.3017 46.2111 17.3182 45.1942C18.3347 44.1774 18.4471 44.0206 18.4471 43.6201C18.4471 43.0141 18.016 42.5828 17.4102 42.5828C17.0099 42.5828 16.8532 42.6953 15.8367 43.7122ZM41.9034 42.8791C41.6961 43.0864 41.6073 43.3086 41.6073 43.6201C41.6073 44.0206 41.7197 44.1774 42.7362 45.1942C43.7527 46.2111 43.9094 46.3236 44.3098 46.3236C44.9156 46.3236 45.3467 45.8923 45.3467 45.2863C45.3467 44.8858 45.2343 44.7291 44.2178 43.7122C43.2012 42.6953 43.0445 42.5828 42.6442 42.5828C42.3329 42.5828 42.1107 42.6716 41.9034 42.8791Z" fill="#231F20" stroke="white" stroke-width="0.6" mask="url(#path-1-inside-1_48_7933)"/>
</g>
<defs>
<clipPath id="clip0_48_7933">
<rect width="60" height="62" fill="white"/>
</clipPath>
</defs>
</svg>
