<svg width="60" height="62" viewBox="0 0 60 62" fill="none" xmlns="http://www.w3.org/2000/svg">
<g clip-path="url(#clip0_48_7931)">
<path fill-rule="evenodd" clip-rule="evenodd" d="M35.3253 4.09226C33.637 4.45168 33.2206 4.80752 25.8235 12.2145C21.9194 16.1237 18.4153 19.7385 18.0367 20.2478C16.6496 22.1131 16.4564 24.4915 17.5212 26.5939L18.0699 27.6774L15.4124 30.3396C13.9508 31.8038 12.6818 33.1347 12.5923 33.2972C12.4789 33.5034 12.488 33.6633 12.6226 33.8265C13.0695 34.3685 13.497 34.0709 16.2318 31.3149L18.9563 28.5695L20.0942 29.1571C21.1688 29.7119 21.3191 29.7447 22.7888 29.7447C25.3769 29.7447 25.3837 29.74 31.4261 23.6723L36.565 18.5119L42.308 24.2903L48.0511 30.0686L48.0421 32.8381L48.0332 35.6075L45.9789 36.6204C38.637 40.2412 33.7266 47.6647 33.2143 55.9184C33.142 57.0825 33.1704 57.567 33.3217 57.7505C33.5035 57.9708 35.0551 58 46.5948 58C57.5146 58 59.6926 57.963 59.8476 57.7749C59.985 57.6085 60.0216 53.4534 59.9887 41.771L59.9444 25.9918L59.4263 24.9369C58.9625 23.9926 57.9174 22.8886 49.4748 14.4241C40.9077 5.83497 39.952 4.92722 39.0692 4.5393C37.9829 4.06197 36.3714 3.86964 35.3253 4.09226ZM38.7672 5.78758C39.332 6.09684 41.8527 8.52273 47.1453 13.8504L54.7156 21.4705L53.6243 21.5731C50.4589 21.8706 48.0743 24.4626 48.055 27.6269L48.0511 28.2777L40.3613 20.5427C31.8533 11.9849 31.8698 12.0052 31.8698 10.113C31.8698 8.85202 32.0638 8.19001 32.7159 7.22477C33.2247 6.47157 34.0808 5.8265 35.058 5.46008C36.0324 5.09447 37.7844 5.24918 38.7672 5.78758ZM35.6727 7.76219C34.9565 8.15191 34.6022 8.51116 34.3556 9.0976C33.6887 10.6832 34.5345 12.4536 36.1578 12.8701C37.2645 13.154 38.2695 12.7889 39.0182 11.831C39.5742 11.1196 39.6292 9.57249 39.1252 8.8328C38.9171 8.52761 38.5496 8.13073 38.3085 7.95111C37.7167 7.50993 36.3205 7.40978 35.6727 7.76219ZM37.9396 9.33814C38.4229 9.91628 38.446 10.3545 38.0299 11.0416C37.4575 11.9862 36.0093 11.9054 35.4926 10.9001C35.0692 10.0759 35.4517 9.20297 36.3892 8.85397C36.9688 8.63819 37.4904 8.80105 37.9396 9.33814ZM31.1454 12.5358C31.452 13.2102 32.0855 13.9798 33.6107 15.5312L35.6633 17.6192L30.5769 22.7403C24.9075 28.4485 24.7327 28.5798 22.8082 28.5798C20.8997 28.5798 19.2018 27.4458 18.4087 25.6415C17.9971 24.705 18.0492 22.7566 18.5124 21.7648C18.7095 21.3428 20.8726 19.0324 24.6555 15.2038L30.4944 9.29417L30.6135 10.4614C30.6826 11.1382 30.9059 12.0096 31.1454 12.5358ZM13.8681 18.6021C13.6105 18.7533 13.5849 19.1329 13.5849 22.8181C13.5849 25.0457 13.6291 26.984 13.6831 27.1256C13.8239 27.4948 14.5106 27.4468 14.7198 27.0532C14.8364 26.8341 14.8791 25.38 14.847 22.7313C14.8064 19.3974 14.7585 18.7143 14.5558 18.5855C14.2563 18.3952 14.2197 18.396 13.8681 18.6021ZM56.1128 23.323C56.6593 23.5979 57.3586 24.1193 57.667 24.482C58.6528 25.6409 58.7696 26.2176 58.8523 30.3308L58.8926 34.0651L49.3456 35.1684L49.3472 30.828C49.3487 26.6227 49.3605 26.4622 49.7267 25.6733C50.2782 24.4846 50.8523 23.8819 51.967 23.3214C53.3644 22.6186 54.7131 22.6191 56.1128 23.323ZM4.23208 23.3445C4.12529 23.452 4.03791 23.6489 4.03791 23.7821C4.03791 23.9153 5.33031 25.3326 6.91009 26.9317C9.28535 29.3362 9.85218 29.8312 10.1868 29.7919C10.4735 29.7585 10.6074 29.6308 10.6462 29.3538C10.6912 29.0338 10.1771 28.4347 7.81625 26.056C6.22951 24.4571 4.81769 23.1491 4.67869 23.1491C4.53985 23.1491 4.33888 23.237 4.23208 23.3445ZM53.178 25.332C51.9895 25.7726 51.4492 26.5666 51.4492 27.8718C51.4492 29.3695 52.3651 30.4148 53.818 30.5757C55.9678 30.8138 57.4209 28.6369 56.4539 26.6265C55.8782 25.4295 54.4436 24.8626 53.178 25.332ZM54.8715 26.582C55.0513 26.6789 55.3023 27.0087 55.4295 27.3149C55.6298 27.7976 55.6298 27.9461 55.4295 28.4288C55.1625 29.0719 54.7552 29.3375 54.0364 29.3375C53.3421 29.3375 52.5819 28.5715 52.5819 27.8718C52.5819 26.812 53.9097 26.064 54.8715 26.582ZM0.186751 33.1158C-0.104836 33.4092 -0.0472306 33.8646 0.305522 34.0546C0.497433 34.158 2.19146 34.2232 4.68516 34.2232C7.17886 34.2232 8.87289 34.158 9.0648 34.0546C9.41755 33.8646 9.47516 33.4092 9.18357 33.1158C8.90687 32.8373 0.463452 32.8373 0.186751 33.1158ZM18.1561 33.0282C17.8618 33.1477 17.9038 34.0061 18.2098 34.1243C18.3506 34.1787 24.7896 34.2232 32.5187 34.2232C45.0784 34.2232 46.5987 34.196 46.826 33.9673C47.1268 33.6644 47.1294 33.6428 46.9128 33.2353C46.749 32.9275 46.4257 32.9207 32.5518 32.9332C24.7455 32.9402 18.2674 32.983 18.1561 33.0282ZM58.8926 46.1116V56.86H46.6757H34.4588V55.8677C34.4588 53.2199 35.7295 49.1171 37.4643 46.1639C40.089 41.6958 44.5396 38.1219 49.3456 36.4715C49.3456 35.8638 49.3456 35.1684 49.3456 35.1684L58.8926 34.0651V35.3632V46.1116ZM6.89391 40.221C3.87302 43.2683 3.60182 43.6904 4.59066 43.8043C5.00814 43.8523 5.36995 43.547 7.87126 41.0357C10.1873 38.7103 10.6745 38.1415 10.637 37.806C10.6035 37.5078 10.4831 37.3866 10.1868 37.3529C9.85315 37.3151 9.27596 37.8179 6.89391 40.221ZM17.7043 37.6645C17.6126 37.9555 18.061 38.4815 20.4848 40.9266C22.8681 43.331 23.4455 43.8339 23.7791 43.7961C24.0663 43.7636 24.1995 43.6369 24.2385 43.3593C24.3188 42.7882 18.8959 37.3174 18.2496 37.3174C17.9471 37.3174 17.7804 37.4235 17.7043 37.6645ZM13.6579 39.9666C13.6147 40.0801 13.5986 42.0406 13.6224 44.323L13.6658 48.473L14.0613 48.5292C14.8187 48.6368 14.8794 48.3155 14.8794 44.1969C14.8794 41.8844 14.8137 40.2666 14.7119 40.0752C14.5231 39.7204 13.781 39.6438 13.6579 39.9666Z" fill="#231F20"/>
</g>
<defs>
<clipPath id="clip0_48_7931">
<rect width="60" height="62" fill="white"/>
</clipPath>
</defs>
</svg>
