<svg width="60" height="62" viewBox="0 0 60 62" fill="none" xmlns="http://www.w3.org/2000/svg">
<path d="M58.0646 27.5559C58.0646 28.111 57.8355 28.6655 57.4542 29.0618C56.6916 29.8542 55.3949 29.8542 54.6318 29.0618C47.9189 22.0856 38.9939 18.2017 29.4594 18.2017C20.0007 18.2017 11.1519 22.0064 4.43837 28.9036C3.67579 29.6961 2.37906 29.6961 1.53971 28.9036C0.777128 28.1111 0.777128 26.7635 1.53971 25.9704C9.01508 18.2808 18.9323 14 29.4584 14C40.0615 14 49.9774 18.2808 57.4528 26.1286C57.8341 26.5255 58.0631 27.0806 58.0631 27.556L58.0646 27.5559ZM48.6053 35.3245C43.4944 29.934 36.7054 27.0007 29.4586 27.0007C22.2883 27.0007 15.4994 29.8548 10.3892 35.1654C9.62662 35.9579 9.62662 37.3055 10.3892 38.0986C11.1518 38.8911 12.4485 38.8911 13.2117 38.0986C17.5593 33.6594 23.2806 31.2016 29.3833 31.2016C35.5619 31.2016 41.3594 33.7386 45.708 38.2568C46.4706 39.0493 47.7674 39.0493 48.5305 38.2568C48.9118 37.8606 49.1408 37.3054 49.1408 36.7509C49.2163 36.2756 48.9879 35.7205 48.606 35.3242L48.6053 35.3245ZM39.7569 44.5205C37.0104 41.5874 33.3493 40.0023 29.3829 40.0023C25.5687 40.0023 21.9075 41.5082 19.161 44.3623C18.3985 45.1548 18.3217 46.5024 19.161 47.2955C19.9236 48.088 21.2204 48.1678 21.9835 47.2955C23.9666 45.3136 26.5602 44.125 29.3067 44.125C32.1292 44.125 34.7989 45.3144 36.782 47.3754C37.5446 48.1679 38.8414 48.2476 39.6045 47.3754C39.9858 46.9791 40.2148 46.424 40.2148 45.8695C40.3671 45.472 40.1381 44.9168 39.7568 44.5206L39.7569 44.5205Z" fill="#231F20"/>
<path fill-rule="evenodd" clip-rule="evenodd" d="M57.4528 26.1286C49.9774 18.2808 40.0615 14 29.4584 14C18.9323 14 9.01508 18.2808 1.53971 25.9704C0.777128 26.7635 0.777128 28.1111 1.53971 28.9036C2.37906 29.6961 3.67579 29.6961 4.43837 28.9036C11.1519 22.0064 20.0007 18.2017 29.4594 18.2017C38.9939 18.2017 47.9189 22.0856 54.6318 29.0618C55.3949 29.8542 56.6916 29.8542 57.4542 29.0618C57.5943 28.9161 57.7139 28.7492 57.8091 28.5686C57.9684 28.2664 58.0595 27.9262 58.0643 27.5848C58.0645 27.5752 58.0646 27.5656 58.0646 27.556M57.4528 26.1286C57.7992 26.4892 58.0199 26.9803 58.0574 27.4236L57.4528 26.1286ZM57.0954 27.6095L57.0954 27.556C57.0954 27.3748 56.989 27.0653 56.766 26.8331L56.7631 26.8301C49.4696 19.1733 39.8021 15 29.4584 15C19.1925 15 9.52074 19.1728 2.22463 26.6769C1.84371 27.0749 1.83942 27.7774 2.21043 28.182C2.69809 28.6254 3.38948 28.5753 3.75213 28.1985L3.75605 28.1944C10.6492 21.1127 19.7427 17.2017 29.4594 17.2017C39.2544 17.2017 48.4254 21.1939 55.3177 28.3564C55.7027 28.7562 56.3839 28.7558 56.768 28.3567C56.9629 28.1541 57.0812 27.8747 57.0954 27.6095ZM47.9566 36.0692L47.914 36.0243C42.9853 30.826 36.4455 28.0007 29.4586 28.0007C22.5417 28.0007 16.0011 30.7517 11.0754 35.8705C10.6884 36.2727 10.688 36.9902 11.0754 37.3935C11.4595 37.7927 12.1407 37.793 12.5257 37.3932L12.5315 37.3873C17.0579 32.7656 23.0227 30.2016 29.3833 30.2016C35.824 30.2016 41.8671 32.848 46.3942 37.5516C46.7783 37.9508 47.4595 37.9512 47.8445 37.5514C48.0524 37.3353 48.1731 37.031 48.1731 36.7509L48.1731 36.6694L48.1859 36.589C48.1955 36.5284 48.1613 36.3018 47.9566 36.0692ZM48.606 35.3242C48.9879 35.7205 49.2163 36.2756 49.1408 36.7509C49.1408 37.3054 48.9118 37.8606 48.5305 38.2568C47.7674 39.0493 46.4706 39.0493 45.708 38.2568C41.3594 33.7386 35.5619 31.2016 29.3833 31.2016C23.2806 31.2016 17.5593 33.6594 13.2117 38.0986C12.4485 38.8911 11.1518 38.8911 10.3892 38.0986C9.62662 37.3055 9.62662 35.9579 10.3892 35.1654C15.4994 29.8548 22.2883 27.0007 29.4586 27.0007C36.7054 27.0007 43.4952 29.9337 48.606 35.3242ZM39.757 44.5208C40.002 44.7755 40.1841 45.0958 40.2425 45.3977C40.275 45.5655 40.2692 45.7275 40.2148 45.8695C40.2148 46.424 39.9858 46.9791 39.6045 47.3754C38.8414 48.2476 37.5446 48.1679 36.782 47.3754C34.7989 45.3144 32.1292 44.125 29.3067 44.125C26.5602 44.125 23.9666 45.3136 21.9835 47.2955C21.2204 48.1678 19.9236 48.088 19.161 47.2955C18.3217 46.5024 18.3985 45.1548 19.161 44.3623C21.9075 41.5082 25.5687 40.0023 29.3829 40.0023C32.9905 40.0023 36.3456 41.3136 38.9897 43.7579C39.2525 44.0009 39.5086 44.2556 39.757 44.5208ZM38.7828 44.9267C36.2551 42.3761 32.9579 41.0023 29.3829 41.0023C25.8179 41.0023 22.4062 42.4081 19.8473 45.0674C19.4161 45.5156 19.4379 46.202 19.8141 46.5575L19.8311 46.5736L19.8473 46.5904C20.276 47.036 20.9268 47.0122 21.2657 46.6249L21.2874 46.6L21.3107 46.5767C23.4561 44.4327 26.2849 43.125 29.3067 43.125C32.3958 43.125 35.31 44.4272 37.4683 46.6703C37.8971 47.1159 38.5478 47.092 38.8867 46.7047L38.9021 46.6871L38.9183 46.6703C39.1263 46.4541 39.2471 46.1497 39.2471 45.8695L39.2471 45.6788L39.2882 45.5715C39.2859 45.5638 39.283 45.5546 39.2791 45.5439C39.2473 45.4556 39.1766 45.3358 39.0705 45.2257L38.7828 44.9267Z" fill="white"/>
</svg>
