<svg width="32" height="32" viewBox="0 0 32 32" fill="none" xmlns="http://www.w3.org/2000/svg">
<path d="M6.66675 24H4.00008C3.20008 24 2.66675 23.4667 2.66675 22.6667V9.33333C2.66675 8.53333 3.20008 8 4.00008 8H17.3334C18.1334 8 18.6667 8.53333 18.6667 9.33333V24" stroke="#C92628" stroke-linecap="round" stroke-linejoin="round"/>
<path d="M18.6667 12H24.0001L29.3334 17.3333V22.6667C29.3334 23.4667 28.8001 24 28.0001 24H25.3334" stroke="#C92628" stroke-linecap="round" stroke-linejoin="round"/>
<path d="M9.33341 26.6667C10.8062 26.6667 12.0001 25.4728 12.0001 24C12.0001 22.5273 10.8062 21.3334 9.33341 21.3334C7.86066 21.3334 6.66675 22.5273 6.66675 24C6.66675 25.4728 7.86066 26.6667 9.33341 26.6667Z" stroke="#C92628" stroke-linecap="round" stroke-linejoin="round"/>
<path d="M20 24H12" stroke="#C92628" stroke-linecap="round" stroke-linejoin="round"/>
<path d="M22.6667 26.6667C24.1394 26.6667 25.3333 25.4728 25.3333 24C25.3333 22.5273 24.1394 21.3334 22.6667 21.3334C21.1939 21.3334 20 22.5273 20 24C20 25.4728 21.1939 26.6667 22.6667 26.6667Z" stroke="#C92628" stroke-linecap="round" stroke-linejoin="round"/>
</svg>
