<svg width="1410" height="307" viewBox="0 0 1410 307" fill="none" xmlns="http://www.w3.org/2000/svg">
<path d="M985.45 10.1152H424.565V11.3146H985.45V10.1152Z" fill="url(#paint0_linear_157_1601)"/>
<path d="M1004.99 21.1458H405.021V22.3453H1004.99V21.1458Z" fill="url(#paint1_linear_157_1601)"/>
<path d="M1027.47 33.8307H382.549V35.0301H1027.47V33.8307Z" fill="url(#paint2_linear_157_1601)"/>
<path d="M1053.58 48.5693H356.436V49.7683H1053.58V48.5693Z" fill="url(#paint3_linear_157_1601)"/>
<path d="M1084.29 65.9036H325.723V67.103H1084.29V65.9036Z" fill="url(#paint4_linear_157_1601)"/>
<path d="M1120.94 86.5902H289.074V87.7895H1120.94V86.5902Z" fill="url(#paint5_linear_157_1601)"/>
<path d="M1165.43 111.701H244.583V112.901H1165.43V111.701Z" fill="url(#paint6_linear_157_1601)"/>
<path d="M1220.58 142.826H189.437V144.026H1220.58V142.826Z" fill="url(#paint7_linear_157_1601)"/>
<path d="M1290.73 182.424H119.282V183.623H1290.73V182.424Z" fill="url(#paint8_linear_157_1601)"/>
<path d="M1382.99 234.495H27.0277V235.694H1382.99V234.495Z" fill="url(#paint9_linear_157_1601)"/>
<path d="M474.426 0.712722L0.430275 305.944L1.07331 306.953L475.069 1.72184L474.426 0.712722Z" fill="url(#paint10_linear_157_1601)"/>
<path d="M507.326 0.742707L100.963 305.964L101.676 306.923L508.039 1.70215L507.326 0.742707Z" fill="url(#paint11_linear_157_1601)"/>
<path d="M540.058 0.591211L201.649 306.182L202.447 307.075L540.855 1.48342L540.058 0.591211Z" fill="url(#paint12_linear_157_1601)"/>
<path d="M572.808 0.53556L302.309 306.335L303.199 307.13L573.698 1.33142L572.808 0.53556Z" fill="url(#paint13_linear_157_1601)"/>
<path d="M605.551 0.547522L402.966 306.454L403.959 307.118L606.544 1.21207L605.551 0.547522Z" fill="url(#paint14_linear_157_1601)"/>
<path d="M638.793 0.856409L503.13 306.321L504.218 306.809L639.881 1.34489L638.793 0.856409Z" fill="url(#paint15_linear_157_1601)"/>
<path d="M671.497 0.898173L603.854 306.507L605.018 306.768L672.66 1.1585L671.497 0.898173Z" fill="url(#paint16_linear_157_1601)"/>
<path d="M705.605 1.03243H704.412V306.633H705.605V1.03243Z" fill="url(#paint17_linear_157_1601)"/>
<path d="M738.501 0.902379L737.337 1.16285L805.018 306.764L806.182 306.503L738.501 0.902379Z" fill="url(#paint18_linear_157_1601)"/>
<path d="M771.375 0.788757L770.286 1.2762L905.646 306.877L906.735 306.39L771.375 0.788757Z" fill="url(#paint19_linear_157_1601)"/>
<path d="M804.237 0.699824L803.245 1.3659L1006.29 306.966L1007.28 306.3L804.237 0.699824Z" fill="url(#paint20_linear_157_1601)"/>
<path d="M837.097 0.634227L836.207 1.43065L1106.93 307.032L1107.82 306.235L837.097 0.634227Z" fill="url(#paint21_linear_157_1601)"/>
<path d="M869.962 0.586491L869.165 1.47872L1207.56 307.079L1208.36 306.187L869.962 0.586491Z" fill="url(#paint22_linear_157_1601)"/>
<path d="M1308.2 307.113L902.119 1.51195L902.831 0.552783L1308.91 306.154L1308.2 307.113Z" fill="url(#paint23_linear_157_1601)"/>
<path d="M935.707 0.528106L935.063 1.53677L1408.82 307.138L1409.47 306.129L935.707 0.528106Z" fill="url(#paint24_linear_157_1601)"/>
<defs>
<linearGradient id="paint0_linear_157_1601" x1="705.008" y1="0.432739" x2="705.008" y2="307.233" gradientUnits="userSpaceOnUse">
<stop offset="0.155298" stop-color="white" stop-opacity="0"/>
<stop offset="0.534055" stop-color="white" stop-opacity="0.1"/>
<stop offset="0.882305" stop-color="white" stop-opacity="0"/>
</linearGradient>
<linearGradient id="paint1_linear_157_1601" x1="705.008" y1="0.432739" x2="705.008" y2="307.233" gradientUnits="userSpaceOnUse">
<stop offset="0.155298" stop-color="white" stop-opacity="0"/>
<stop offset="0.534055" stop-color="white" stop-opacity="0.1"/>
<stop offset="0.882305" stop-color="white" stop-opacity="0"/>
</linearGradient>
<linearGradient id="paint2_linear_157_1601" x1="705.008" y1="0.432739" x2="705.008" y2="307.233" gradientUnits="userSpaceOnUse">
<stop offset="0.155298" stop-color="white" stop-opacity="0"/>
<stop offset="0.534055" stop-color="white" stop-opacity="0.1"/>
<stop offset="0.882305" stop-color="white" stop-opacity="0"/>
</linearGradient>
<linearGradient id="paint3_linear_157_1601" x1="705.008" y1="0.432739" x2="705.008" y2="307.233" gradientUnits="userSpaceOnUse">
<stop offset="0.155298" stop-color="white" stop-opacity="0"/>
<stop offset="0.534055" stop-color="white" stop-opacity="0.1"/>
<stop offset="0.882305" stop-color="white" stop-opacity="0"/>
</linearGradient>
<linearGradient id="paint4_linear_157_1601" x1="705.008" y1="0.432739" x2="705.008" y2="307.233" gradientUnits="userSpaceOnUse">
<stop offset="0.155298" stop-color="white" stop-opacity="0"/>
<stop offset="0.534055" stop-color="white" stop-opacity="0.1"/>
<stop offset="0.882305" stop-color="white" stop-opacity="0"/>
</linearGradient>
<linearGradient id="paint5_linear_157_1601" x1="705.008" y1="0.432739" x2="705.008" y2="307.233" gradientUnits="userSpaceOnUse">
<stop offset="0.155298" stop-color="white" stop-opacity="0"/>
<stop offset="0.534055" stop-color="white" stop-opacity="0.1"/>
<stop offset="0.882305" stop-color="white" stop-opacity="0"/>
</linearGradient>
<linearGradient id="paint6_linear_157_1601" x1="705.008" y1="0.432739" x2="705.008" y2="307.233" gradientUnits="userSpaceOnUse">
<stop offset="0.155298" stop-color="white" stop-opacity="0"/>
<stop offset="0.534055" stop-color="white" stop-opacity="0.1"/>
<stop offset="0.882305" stop-color="white" stop-opacity="0"/>
</linearGradient>
<linearGradient id="paint7_linear_157_1601" x1="705.008" y1="0.432739" x2="705.008" y2="307.233" gradientUnits="userSpaceOnUse">
<stop offset="0.155298" stop-color="white" stop-opacity="0"/>
<stop offset="0.534055" stop-color="white" stop-opacity="0.1"/>
<stop offset="0.882305" stop-color="white" stop-opacity="0"/>
</linearGradient>
<linearGradient id="paint8_linear_157_1601" x1="705.008" y1="0.432739" x2="705.008" y2="307.233" gradientUnits="userSpaceOnUse">
<stop offset="0.155298" stop-color="white" stop-opacity="0"/>
<stop offset="0.534055" stop-color="white" stop-opacity="0.1"/>
<stop offset="0.882305" stop-color="white" stop-opacity="0"/>
</linearGradient>
<linearGradient id="paint9_linear_157_1601" x1="705.008" y1="0.432739" x2="705.008" y2="307.233" gradientUnits="userSpaceOnUse">
<stop offset="0.155298" stop-color="white" stop-opacity="0"/>
<stop offset="0.534055" stop-color="white" stop-opacity="0.1"/>
<stop offset="0.882305" stop-color="white" stop-opacity="0"/>
</linearGradient>
<linearGradient id="paint10_linear_157_1601" x1="705.008" y1="0.432739" x2="705.008" y2="307.233" gradientUnits="userSpaceOnUse">
<stop offset="0.155298" stop-color="white" stop-opacity="0"/>
<stop offset="0.534055" stop-color="white" stop-opacity="0.1"/>
<stop offset="0.882305" stop-color="white" stop-opacity="0"/>
</linearGradient>
<linearGradient id="paint11_linear_157_1601" x1="705.008" y1="0.432739" x2="705.008" y2="307.233" gradientUnits="userSpaceOnUse">
<stop offset="0.155298" stop-color="white" stop-opacity="0"/>
<stop offset="0.534055" stop-color="white" stop-opacity="0.1"/>
<stop offset="0.882305" stop-color="white" stop-opacity="0"/>
</linearGradient>
<linearGradient id="paint12_linear_157_1601" x1="705.008" y1="0.432739" x2="705.008" y2="307.233" gradientUnits="userSpaceOnUse">
<stop offset="0.155298" stop-color="white" stop-opacity="0"/>
<stop offset="0.534055" stop-color="white" stop-opacity="0.1"/>
<stop offset="0.882305" stop-color="white" stop-opacity="0"/>
</linearGradient>
<linearGradient id="paint13_linear_157_1601" x1="705.008" y1="0.432739" x2="705.008" y2="307.233" gradientUnits="userSpaceOnUse">
<stop offset="0.155298" stop-color="white" stop-opacity="0"/>
<stop offset="0.534055" stop-color="white" stop-opacity="0.1"/>
<stop offset="0.882305" stop-color="white" stop-opacity="0"/>
</linearGradient>
<linearGradient id="paint14_linear_157_1601" x1="705.008" y1="0.432739" x2="705.008" y2="307.233" gradientUnits="userSpaceOnUse">
<stop offset="0.155298" stop-color="white" stop-opacity="0"/>
<stop offset="0.534055" stop-color="white" stop-opacity="0.1"/>
<stop offset="0.882305" stop-color="white" stop-opacity="0"/>
</linearGradient>
<linearGradient id="paint15_linear_157_1601" x1="705.008" y1="0.432739" x2="705.008" y2="307.233" gradientUnits="userSpaceOnUse">
<stop offset="0.155298" stop-color="white" stop-opacity="0"/>
<stop offset="0.534055" stop-color="white" stop-opacity="0.1"/>
<stop offset="0.882305" stop-color="white" stop-opacity="0"/>
</linearGradient>
<linearGradient id="paint16_linear_157_1601" x1="705.008" y1="0.432739" x2="705.008" y2="307.233" gradientUnits="userSpaceOnUse">
<stop offset="0.155298" stop-color="white" stop-opacity="0"/>
<stop offset="0.534055" stop-color="white" stop-opacity="0.1"/>
<stop offset="0.882305" stop-color="white" stop-opacity="0"/>
</linearGradient>
<linearGradient id="paint17_linear_157_1601" x1="705.008" y1="0.432739" x2="705.008" y2="307.233" gradientUnits="userSpaceOnUse">
<stop offset="0.155298" stop-color="white" stop-opacity="0"/>
<stop offset="0.534055" stop-color="white" stop-opacity="0.1"/>
<stop offset="0.882305" stop-color="white" stop-opacity="0"/>
</linearGradient>
<linearGradient id="paint18_linear_157_1601" x1="705.008" y1="0.432739" x2="705.008" y2="307.233" gradientUnits="userSpaceOnUse">
<stop offset="0.155298" stop-color="white" stop-opacity="0"/>
<stop offset="0.534055" stop-color="white" stop-opacity="0.1"/>
<stop offset="0.882305" stop-color="white" stop-opacity="0"/>
</linearGradient>
<linearGradient id="paint19_linear_157_1601" x1="705.008" y1="0.432739" x2="705.008" y2="307.233" gradientUnits="userSpaceOnUse">
<stop offset="0.155298" stop-color="white" stop-opacity="0"/>
<stop offset="0.534055" stop-color="white" stop-opacity="0.1"/>
<stop offset="0.882305" stop-color="white" stop-opacity="0"/>
</linearGradient>
<linearGradient id="paint20_linear_157_1601" x1="705.008" y1="0.432739" x2="705.008" y2="307.233" gradientUnits="userSpaceOnUse">
<stop offset="0.155298" stop-color="white" stop-opacity="0"/>
<stop offset="0.534055" stop-color="white" stop-opacity="0.1"/>
<stop offset="0.882305" stop-color="white" stop-opacity="0"/>
</linearGradient>
<linearGradient id="paint21_linear_157_1601" x1="705.008" y1="0.432739" x2="705.008" y2="307.233" gradientUnits="userSpaceOnUse">
<stop offset="0.155298" stop-color="white" stop-opacity="0"/>
<stop offset="0.534055" stop-color="white" stop-opacity="0.1"/>
<stop offset="0.882305" stop-color="white" stop-opacity="0"/>
</linearGradient>
<linearGradient id="paint22_linear_157_1601" x1="705.008" y1="0.432739" x2="705.008" y2="307.233" gradientUnits="userSpaceOnUse">
<stop offset="0.155298" stop-color="white" stop-opacity="0"/>
<stop offset="0.534055" stop-color="white" stop-opacity="0.1"/>
<stop offset="0.882305" stop-color="white" stop-opacity="0"/>
</linearGradient>
<linearGradient id="paint23_linear_157_1601" x1="705.008" y1="0.432739" x2="705.008" y2="307.233" gradientUnits="userSpaceOnUse">
<stop offset="0.155298" stop-color="white" stop-opacity="0"/>
<stop offset="0.534055" stop-color="white" stop-opacity="0.1"/>
<stop offset="0.882305" stop-color="white" stop-opacity="0"/>
</linearGradient>
<linearGradient id="paint24_linear_157_1601" x1="705.008" y1="0.432739" x2="705.008" y2="307.233" gradientUnits="userSpaceOnUse">
<stop offset="0.155298" stop-color="white" stop-opacity="0"/>
<stop offset="0.534055" stop-color="white" stop-opacity="0.1"/>
<stop offset="0.882305" stop-color="white" stop-opacity="0"/>
</linearGradient>
</defs>
</svg>
