<svg width="40" height="40" viewBox="0 0 40 40" fill="none" xmlns="http://www.w3.org/2000/svg">
<path d="M5.25585 34.713C5.0104 34.713 4.8114 34.912 4.8114 35.1574V37.4315C4.8114 37.677 5.0104 37.876 5.25585 37.876H22.3617C22.6072 37.876 22.8062 37.677 22.8062 37.4315V35.1574C22.8062 34.912 22.6072 34.713 22.3617 34.713H17.2619V24.7957H21.7003C21.9457 24.7957 22.1447 24.5967 22.1447 24.3512V20.859C22.1447 20.7379 22.0955 20.6223 22.008 20.5385L19.2151 17.8571L29.3824 7.3506V19.1785C28.542 19.3776 27.9134 20.1226 27.895 21.0185H24.9095C24.664 21.0185 24.465 21.2175 24.465 21.463V26.3315C24.465 26.5769 24.664 26.7759 24.9095 26.7759H34.7441C34.9896 26.7759 35.1886 26.5769 35.1886 26.3315V21.463C35.1886 21.2175 34.9896 21.0185 34.7441 21.0185H31.7584C31.74 20.1226 31.1115 19.3776 30.2713 19.1785V6.43206L30.8531 5.83083C31.0093 5.66937 31.0204 5.41633 30.8787 5.24163L28.4822 2.28851C28.4742 2.27872 28.4629 2.2741 28.4543 2.26515C28.4343 2.24435 28.4128 2.22707 28.389 2.21049C28.364 2.19294 28.3392 2.17791 28.3116 2.16603C28.2901 2.15675 28.2684 2.15016 28.2451 2.14428C28.2116 2.13576 28.1789 2.1312 28.1444 2.13063C28.1309 2.13022 28.1191 2.12455 28.1052 2.12531C28.093 2.12618 28.0832 2.13294 28.0713 2.13475C28.0405 2.13939 28.0116 2.14834 27.9819 2.15958C27.9557 2.16958 27.931 2.17981 27.9075 2.19432C27.8973 2.20054 27.8856 2.20197 27.8758 2.20908L13.6693 12.5328L12.2906 11.2091C12.2079 11.1294 12.0976 11.0852 11.9828 11.0852H5.91752C5.67208 11.0852 5.47308 11.2842 5.47308 11.5296V15.9311C5.47308 15.9315 5.47286 15.9318 5.47286 15.9322C5.47286 15.9326 5.47308 15.9329 5.47308 15.9333V19.9476C5.47308 19.948 5.47286 19.9483 5.47286 19.9487C5.47286 19.949 5.47308 19.9494 5.47308 19.9497V24.3512C5.47308 24.5967 5.67208 24.7957 5.91752 24.7957H10.3557V34.713H5.25585V34.713ZM34.2997 21.9074V25.887H25.3539V21.9074H28.3969C28.3973 21.9074 28.3977 21.9077 28.3982 21.9077C28.3987 21.9077 28.3992 21.9074 28.3998 21.9074H34.2997ZM30.8695 21.0185H28.7839C28.8051 20.4598 29.263 20.0109 29.8268 20.0109C30.3904 20.0109 30.8483 20.4598 30.8695 21.0185ZM29.9403 5.49597L29.5131 5.93738C29.5128 5.93773 29.5124 5.93811 29.5121 5.93849L28.8725 6.59938L28.6817 3.94508L29.9403 5.49597ZM27.7511 3.39851L28.0082 6.97449L24.539 5.73274L27.7511 3.39851ZM27.702 7.80894L24.5109 11.1065L24.1018 6.52028L27.702 7.80894ZM23.2243 6.68811L23.6447 11.4022L19.3513 9.50265L23.2243 6.68811ZM23.3922 12.2624L19.5655 16.2168L18.9828 10.3117L23.3922 12.2624ZM18.0996 10.4123L18.755 17.0543L18.5739 17.2415L14.3208 13.1583L18.0996 10.4123ZM6.36197 16.3766H11.482V19.5042H6.36197V16.3766V16.3766ZM6.36197 23.9068V20.3931H11.9264C12.1719 20.3931 12.3709 20.1941 12.3709 19.9487V15.9322C12.3709 15.6867 12.1719 15.4877 11.9264 15.4877H6.36197V11.9741H11.804L21.2558 21.0485V23.9068H6.36197V23.9068ZM14.9028 31.6303H11.2446V30.3512H13.6298C13.8752 30.3512 14.0742 30.1522 14.0742 29.9068C14.0742 29.6613 13.8752 29.4623 13.6298 29.4623H11.2446V28.0821H12.4297C12.6751 28.0821 12.8741 27.8831 12.8741 27.6377C12.8741 27.3922 12.6751 27.1932 12.4297 27.1932H11.2446V24.7957H16.373V34.713H11.2446V32.5192H14.9028C15.1482 32.5192 15.3472 32.3202 15.3472 32.0748C15.3472 31.8293 15.1482 31.6303 14.9028 31.6303ZM21.9173 35.6019V36.9871H5.70029V35.6019H21.9173Z" fill="#0FAFEB"/>
<path d="M26.9668 22.5952C26.7213 22.5952 26.5223 22.7942 26.5223 23.0397V24.7545C26.5223 24.9999 26.7213 25.1989 26.9668 25.1989C27.2122 25.1989 27.4112 24.9999 27.4112 24.7545V23.0397C27.4112 22.7942 27.2122 22.5952 26.9668 22.5952Z" fill="#0FAFEB"/>
<path d="M32.6869 25.1989C32.9323 25.1989 33.1313 24.9999 33.1313 24.7545V23.0397C33.1313 22.7942 32.9323 22.5952 32.6869 22.5952C32.4414 22.5952 32.2424 22.7942 32.2424 23.0397V24.7545C32.2424 24.9999 32.4414 25.1989 32.6869 25.1989Z" fill="#0FAFEB"/>
<path d="M30.7801 25.1989C31.0256 25.1989 31.2246 24.9999 31.2246 24.7545V23.0397C31.2246 22.7942 31.0256 22.5952 30.7801 22.5952C30.5347 22.5952 30.3357 22.7942 30.3357 23.0397V24.7545C30.3357 24.9999 30.5347 25.1989 30.7801 25.1989Z" fill="#0FAFEB"/>
<path d="M28.8735 25.1989C29.1189 25.1989 29.3179 24.9999 29.3179 24.7545V23.0397C29.3179 22.7942 29.1189 22.5952 28.8735 22.5952C28.628 22.5952 28.429 22.7942 28.429 23.0397V24.7545C28.429 24.9999 28.628 25.1989 28.8735 25.1989Z" fill="#0FAFEB"/>
<path fill-rule="evenodd" clip-rule="evenodd" d="M7.5425 38.1713C7.47062 38.2788 7.39125 38.3869 7.305 38.49C6.88937 38.9894 6.31812 39.375 5.625 39.375C5.28 39.375 5 39.095 5 38.75C5 38.405 5.28 38.125 5.625 38.125C5.93187 38.125 6.16063 37.9113 6.345 37.69C6.72 37.24 6.90687 36.6775 6.90687 36.6775C6.99187 36.4219 7.23125 36.25 7.5 36.25C7.76875 36.25 8.00813 36.4219 8.09313 36.6775C8.09313 36.6775 8.56312 38.125 10 38.125C11.4369 38.125 11.9069 36.6775 11.9069 36.6775C11.9919 36.4219 12.2312 36.25 12.5 36.25C12.7688 36.25 13.0081 36.4219 13.0931 36.6775C13.0931 36.6775 13.5631 38.125 15 38.125C16.4369 38.125 16.9069 36.6775 16.9069 36.6775C16.9919 36.4219 17.2312 36.25 17.5 36.25C17.7688 36.25 18.0081 36.4219 18.0931 36.6775C18.0931 36.6775 18.5631 38.125 20 38.125C21.4369 38.125 21.9069 36.6775 21.9069 36.6775C21.9919 36.4219 22.2312 36.25 22.5 36.25C22.7688 36.25 23.0081 36.4219 23.0931 36.6775C23.0931 36.6775 23.5631 38.125 25 38.125C26.4369 38.125 26.9069 36.6775 26.9069 36.6775C26.9925 36.4213 27.2325 36.2488 27.5031 36.25C27.7731 36.2513 28.0119 36.4256 28.095 36.6825C28.095 36.6825 28.5519 38.125 30 38.125C31.4369 38.125 31.9069 36.6775 31.9069 36.6775C31.9919 36.4219 32.2312 36.25 32.5 36.25C32.7688 36.25 33.0081 36.4219 33.0931 36.6775C33.0931 36.6775 33.28 37.24 33.655 37.69C33.8394 37.9113 34.0681 38.125 34.375 38.125C34.72 38.125 35 38.405 35 38.75C35 39.095 34.72 39.375 34.375 39.375C33.6819 39.375 33.1106 38.9894 32.695 38.49C32.6088 38.3869 32.5294 38.2788 32.4575 38.1713C31.9769 38.7638 31.1919 39.375 30 39.375C28.7637 39.375 27.97 38.7306 27.4962 38.1225C27.0194 38.73 26.2244 39.375 25 39.375C23.7725 39.375 22.9763 38.7263 22.5 38.1175C22.0237 38.7263 21.2275 39.375 20 39.375C18.7725 39.375 17.9763 38.7263 17.5 38.1175C17.0237 38.7263 16.2275 39.375 15 39.375C13.7725 39.375 12.9763 38.7263 12.5 38.1175C12.0237 38.7263 11.2275 39.375 10 39.375C8.80813 39.375 8.02312 38.7638 7.5425 38.1713V38.1713Z" fill="#0FAFEB"/>
</svg>
