<svg width="40" height="40" viewBox="0 0 40 40" fill="none" xmlns="http://www.w3.org/2000/svg">
<path d="M38.125 28.125C37.5182 28.1346 36.9297 27.918 36.4738 27.5175C35.8001 26.9724 34.9597 26.6749 34.0931 26.6749C33.2265 26.6749 32.3862 26.9724 31.7125 27.5175C31.252 27.9096 30.667 28.1249 30.0622 28.1249C29.4574 28.1249 28.8724 27.9096 28.4119 27.5175C27.7389 26.9724 26.8992 26.675 26.0331 26.675C25.1671 26.675 24.3273 26.9724 23.6544 27.5175C23.1948 27.9096 22.6104 28.125 22.0062 28.125C21.4021 28.125 20.8177 27.9096 20.3581 27.5175C19.6853 26.9725 18.8456 26.6751 17.9797 26.6751C17.1138 26.6751 16.2741 26.9725 15.6012 27.5175C15.1416 27.9096 14.5573 28.125 13.9531 28.125C13.349 28.125 12.7646 27.9096 12.305 27.5175C11.6321 26.9725 10.7925 26.6751 9.92656 26.6751C9.06064 26.6751 8.221 26.9725 7.54812 27.5175C7.09318 27.918 6.50537 28.1345 5.89938 28.125C5.29413 28.1345 4.70712 27.9179 4.25312 27.5175C3.58502 26.9642 2.74241 26.6657 1.875 26.675V27.925C2.48035 27.9153 3.06757 28.1317 3.52188 28.5319C4.18956 29.0855 5.03205 29.3843 5.89938 29.375C6.76728 29.3844 7.61038 29.0856 8.27875 28.5319C8.73853 28.1401 9.32283 27.925 9.92688 27.925C10.5309 27.925 11.1152 28.1401 11.575 28.5319C12.2476 29.0773 13.0872 29.375 13.9531 29.375C14.8191 29.375 15.6587 29.0773 16.3312 28.5319C16.7912 28.1402 17.3756 27.9251 17.9797 27.9251C18.5838 27.9251 19.1682 28.1402 19.6281 28.5319C20.3009 29.0773 21.1408 29.3749 22.0069 29.3749C22.873 29.3749 23.7128 29.0773 24.3856 28.5319C24.8454 28.1401 25.4297 27.925 26.0337 27.925C26.6378 27.925 27.2221 28.1401 27.6819 28.5319C28.3553 29.0773 29.1956 29.3749 30.0622 29.3749C30.9288 29.3749 31.7691 29.0773 32.4425 28.5319C32.9033 28.1401 33.4883 27.925 34.0931 27.925C34.6979 27.925 35.283 28.1401 35.7437 28.5319C36.4127 29.0858 37.2565 29.3846 38.125 29.375V28.125Z" fill="#0FAFEB"/>
<path d="M38.125 31.25C37.5182 31.2596 36.9297 31.043 36.4738 30.6425C35.8001 30.0974 34.9597 29.7999 34.0931 29.7999C33.2265 29.7999 32.3862 30.0974 31.7125 30.6425C31.252 31.0346 30.667 31.2499 30.0622 31.2499C29.4574 31.2499 28.8724 31.0346 28.4119 30.6425C27.7389 30.0974 26.8992 29.8 26.0331 29.8C25.1671 29.8 24.3273 30.0974 23.6544 30.6425C23.1948 31.0346 22.6104 31.25 22.0062 31.25C21.4021 31.25 20.8177 31.0346 20.3581 30.6425C19.6853 30.0975 18.8456 29.8001 17.9797 29.8001C17.1138 29.8001 16.2741 30.0975 15.6012 30.6425C15.1416 31.0346 14.5573 31.25 13.9531 31.25C13.349 31.25 12.7646 31.0346 12.305 30.6425C11.6321 30.0975 10.7925 29.8001 9.92656 29.8001C9.06064 29.8001 8.221 30.0975 7.54812 30.6425C7.09318 31.0429 6.50537 31.2595 5.89938 31.25C5.29413 31.2595 4.70712 31.0429 4.25312 30.6425C3.58502 30.0892 2.74241 29.7907 1.875 29.8V31.05C2.48035 31.0403 3.06757 31.2567 3.52188 31.6569C4.18956 32.2105 5.03205 32.5093 5.89938 32.5C6.76728 32.5094 7.61038 32.2106 8.27875 31.6569C8.73853 31.2651 9.32283 31.05 9.92688 31.05C10.5309 31.05 11.1152 31.2651 11.575 31.6569C12.2476 32.2023 13.0872 32.5 13.9531 32.5C14.8191 32.5 15.6587 32.2023 16.3312 31.6569C16.7912 31.2652 17.3756 31.0501 17.9797 31.0501C18.5838 31.0501 19.1682 31.2652 19.6281 31.6569C20.3009 32.2023 21.1408 32.4999 22.0069 32.4999C22.873 32.4999 23.7128 32.2023 24.3856 31.6569C24.8454 31.2651 25.4297 31.05 26.0337 31.05C26.6378 31.05 27.2221 31.2651 27.6819 31.6569C28.3553 32.2023 29.1956 32.4999 30.0622 32.4999C30.9288 32.4999 31.7691 32.2023 32.4425 31.6569C32.9033 31.2651 33.4883 31.05 34.0931 31.05C34.6979 31.05 35.283 31.2651 35.7437 31.6569C36.4127 32.2108 37.2565 32.5096 38.125 32.5V31.25Z" fill="#0FAFEB"/>
<path d="M23.7575 7.5L23.7256 8.75C26.8309 8.82369 29.8732 9.64159 32.5969 11.135L33.195 10.0381C30.2974 8.44942 27.0611 7.57902 23.7575 7.5V7.5Z" fill="#0FAFEB"/>
<path d="M13.8088 16.3813L6.31813 17.3682C6.22814 17.3801 6.14181 17.4115 6.06517 17.4601C5.98853 17.5088 5.9234 17.5735 5.87433 17.6499C5.82526 17.7263 5.79341 17.8124 5.78101 17.9024C5.7686 17.9923 5.77594 18.0839 5.80251 18.1707L6.53376 20.5582C6.56385 20.6562 6.61762 20.7454 6.69032 20.8178C6.76302 20.8901 6.85243 20.9435 6.95063 20.9732L9.94126 21.875L6.03188 23.3275L6.46938 24.4994L7.60751 24.0763L8.13626 25.8075L9.33126 25.4425L8.78126 23.64L32.5213 14.8125L31.8963 16.1507C31.2338 17.5671 30.2813 18.8288 29.1005 19.8539C27.9196 20.8791 26.5367 21.6449 25.0413 22.1019L12.9419 25.7894L13.3069 26.9844L25.4063 23.2969C27.0697 22.789 28.6079 21.9374 29.9214 20.7974C31.2349 19.6574 32.2944 18.2542 33.0313 16.6788L34.1919 14.1925L35.8138 13.5894L35.3763 12.4175L33.4913 13.1182L32.8 12.6957C29.4944 10.6664 25.6295 9.73997 21.7631 10.05C21.6409 10.0596 21.5241 10.105 21.4274 10.1804C21.3307 10.2559 21.2584 10.3581 21.2194 10.4744L20.6194 12.2594L17.1625 11.5188L16.9 12.7407L20.2188 13.4519L19.8544 14.5375L13.8088 16.3813ZM19.3656 15.9957L18.4531 18.7107L13.2919 20.6288L14.4244 17.5038L19.3656 15.9957ZM7.21438 18.5107L13.0056 17.7482L11.7825 21.1232L7.63126 19.8732L7.21438 18.5107ZM21.8506 12.525L22.2719 11.2707C25.6802 11.0803 29.0671 11.9186 31.9931 13.6769L19.9606 18.15L21.45 13.7169L23.1925 14.0919L23.455 12.87L21.8506 12.525Z" fill="#0FAFEB"/>
<path d="M11.3972 23.6508L10.2015 24.0151L10.5661 25.2114L11.7618 24.8471L11.3972 23.6508Z" fill="#0FAFEB"/>
</svg>
