<svg width="40" height="40" viewBox="0 0 40 40" fill="none" xmlns="http://www.w3.org/2000/svg">
<path d="M11.0991 21.8384C11.9507 21.8384 12.6431 21.1455 12.6431 20.2939C12.6431 19.4419 11.9503 18.749 11.0991 18.749C10.2471 18.749 9.55426 19.4419 9.55426 20.2939C9.5547 21.1455 10.2476 21.8384 11.0991 21.8384ZM11.0991 19.5112C11.5303 19.5112 11.8809 19.8624 11.8809 20.2939C11.8809 20.7255 11.5298 21.0757 11.0991 21.0757C10.6676 21.0757 10.3169 20.7255 10.3169 20.2939C10.3169 19.8624 10.6676 19.5112 11.0991 19.5112Z" fill="#0FAFEB"/>
<path d="M12.7196 31.9419H12.8351C12.9974 32.9073 13.8365 33.6459 14.8471 33.6459C15.8578 33.6459 16.6974 32.9073 16.8591 31.9419C17.0689 31.941 17.2383 31.7708 17.2383 31.561C17.2383 31.3513 17.0676 31.1801 16.8574 31.1801H16.8458C16.6503 30.257 15.8289 29.561 14.8476 29.561C13.8663 29.561 13.0449 30.2566 12.8494 31.1801H12.7196C12.5089 31.1801 12.3383 31.3513 12.3383 31.561C12.3383 31.7717 12.5094 31.9419 12.7196 31.9419ZM14.8471 32.8837C14.2587 32.8837 13.7631 32.4841 13.6138 31.9419H16.0809C15.9316 32.4841 15.4356 32.8837 14.8471 32.8837ZM14.8471 30.3237C15.4049 30.3237 15.8787 30.6824 16.0543 31.1801H13.64C13.8156 30.6819 14.2894 30.3237 14.8471 30.3237Z" fill="#0FAFEB"/>
<path d="M22.0836 31.9419H22.1138C22.2756 32.9073 23.1152 33.6459 24.1254 33.6459C25.1356 33.6459 25.9752 32.9073 26.1374 31.9419H26.2209C26.432 31.9419 26.6023 31.7717 26.6023 31.561C26.6023 31.3508 26.4316 31.1801 26.2209 31.1801H26.1232C25.9276 30.257 25.1067 29.561 24.1254 29.561C23.1445 29.561 22.3232 30.2566 22.1276 31.1801H22.0832C21.8725 31.1801 21.7023 31.3513 21.7023 31.561C21.7027 31.7717 21.8734 31.9419 22.0836 31.9419ZM24.1258 32.8837C23.5378 32.8837 23.0418 32.4841 22.8929 31.9419H25.3592C25.2103 32.4841 24.7143 32.8837 24.1258 32.8837ZM24.1258 30.3237C24.6836 30.3237 25.1569 30.6824 25.3325 31.1801H22.9192C23.0947 30.6819 23.5685 30.3237 24.1258 30.3237Z" fill="#0FAFEB"/>
<path d="M34.7694 22.4002C34.7396 22.361 34.7018 22.3308 34.6605 22.3064V21.153V19.1477V19.0206C34.6605 18.8926 34.596 18.773 34.4893 18.7028C34.3827 18.6322 34.2471 18.6197 34.1298 18.6699L31.6236 19.7366C31.4827 19.7962 31.392 19.9344 31.392 20.0873C31.392 20.2402 31.4831 20.3779 31.6236 20.4375L33.8978 21.405V22.2508H27.1156C26.9431 22.2508 26.7916 22.3673 26.7476 22.5344L26.3676 23.9628L21.5636 25.9535H17.4565V14.7086C17.4565 14.5962 17.4067 14.4895 17.3209 14.417C17.2351 14.3446 17.1218 14.3148 17.0107 14.333L16.5854 14.4068V11.4206C16.5854 11.309 16.5365 11.2033 16.4516 11.1308C16.3671 11.0579 16.2556 11.0264 16.1449 11.0442L14.62 11.285C14.4351 11.3139 14.2987 11.4739 14.2987 11.6615V14.801L7.21069 16.0233C7.02758 16.0548 6.89424 16.2135 6.89424 16.3988V25.9535H5.53335C5.32313 25.9535 5.15247 26.1242 5.15247 26.3344V26.7886C5.15247 29.0126 5.64669 30.9019 6.62624 32.4424C6.58224 32.4739 6.54358 32.5139 6.51513 32.5633C5.55069 34.257 6.56002 35.2757 6.60358 35.3179C6.67513 35.3868 6.77024 35.4264 6.87024 35.4264H9.8538C10.7067 35.8522 13.7654 37.0868 20.4396 37.0868C27.1525 37.0868 30.2893 35.8415 31.1493 35.4264H31.2036C31.3671 35.4264 31.5125 35.3224 31.5645 35.1673L33.8342 28.457H33.8436V28.429L34.5111 26.4566C34.5502 26.3402 34.5311 26.2122 34.4596 26.1126C34.388 26.0122 34.2729 25.9535 34.1502 25.9535H33.9711L34.8351 22.7313C34.8658 22.6166 34.8418 22.4944 34.7694 22.4002ZM32.7471 20.0873L33.8987 19.5966V20.5766L32.7471 20.0873ZM29.0956 25.9535L29.4791 24.5379H31.1253L30.7431 25.9535H29.0956ZM27.0031 24.5379H28.6894L28.3067 25.9535H26.6262L27.0031 24.5379ZM29.6854 23.7753L29.8916 23.013H31.5374L31.3311 23.7753H29.6854ZM32.3262 23.013H33.9365C33.9436 23.0277 33.9502 23.0415 33.9591 23.0548L33.7658 23.7753H32.1205L32.3262 23.013ZM29.1018 23.013L28.8956 23.7753H27.2058L27.4089 23.013H29.1018ZM26.1205 24.8899L25.8618 25.8628C25.8534 25.8926 25.8507 25.9228 25.8502 25.953H23.5538L26.1205 24.8899ZM16.6942 21.1624H15.4965V18.0046H16.6942V21.1624ZM15.8231 11.8659V12.7646L15.0609 12.8735V11.9859L15.8231 11.8659ZM15.0605 13.6433L15.8227 13.5348V14.5375L15.0605 14.669V13.6433ZM7.65647 16.7193L16.6942 15.161V17.2424H15.1151C14.9045 17.2424 14.7342 17.413 14.7342 17.6233V21.5433C14.7342 21.7539 14.9049 21.9242 15.1151 21.9242H16.6942V25.9526H13.972V17.6233C13.972 17.4126 13.8014 17.2424 13.5911 17.2424H8.5818C8.37158 17.2424 8.20091 17.413 8.20091 17.6233V25.953H7.65647V16.7193ZM13.2098 25.9535H8.96269V18.0046H13.2098V25.9535ZM5.91424 26.7153H21.6467L21.6565 26.7397L21.7142 26.7153H33.6187L33.2871 27.6953H5.94713C5.92758 27.3997 5.91424 27.0993 5.91424 26.7886V26.7153ZM7.0938 33.0979C7.5458 33.6766 8.07158 34.2006 8.68002 34.6642H7.05291C6.91424 34.449 6.68891 33.9166 7.0938 33.0979ZM20.4391 36.3246C16.4285 36.3246 13.7591 35.8646 12.1262 35.4264H28.836C27.1729 35.8655 24.4702 36.3246 20.4391 36.3246ZM30.9298 34.6642H10.9774H10.0458C7.71024 33.2873 6.38669 31.245 6.0218 28.4575H33.0298L30.9298 34.6642ZM31.5316 25.9535L31.9142 24.5379H33.5614L33.2134 25.8353C33.2027 25.8748 33.2005 25.9148 33.2027 25.9535H31.5316V25.9535Z" fill="#0FAFEB"/>
<path d="M10.8391 7.59923C10.9227 7.59923 11.0067 7.5939 11.0911 7.58323C11.6316 8.44101 12.5556 8.97212 13.5765 9.00012C13.7378 9.80456 14.4498 10.4121 15.3009 10.4121C16.2174 10.4121 16.972 9.70767 17.0529 8.81212C17.7929 8.42678 18.2747 7.65078 18.2747 6.8059C18.2747 5.68678 17.4574 4.74812 16.3747 4.57434C15.8569 3.55834 14.8156 2.91345 13.6623 2.91345C12.9467 2.91345 12.2685 3.15967 11.7236 3.61123C11.448 3.4819 11.1471 3.41479 10.8391 3.41479C9.68537 3.41479 8.7467 4.35345 8.7467 5.50723C8.7467 6.66101 9.68537 7.59923 10.8391 7.59923ZM10.8391 4.17612C11.0991 4.17612 11.3511 4.25167 11.5685 4.39479C11.7196 4.49479 11.92 4.4739 12.048 4.3459C12.4796 3.91301 13.0529 3.67523 13.6627 3.67523C14.5849 3.67523 15.4116 4.22501 15.7685 5.07656C15.8249 5.21123 15.9534 5.30145 16.0987 5.30945C16.8916 5.35434 17.5129 6.01123 17.5129 6.80545C17.5129 7.42501 17.1223 7.98812 16.5405 8.20723C16.384 8.26634 16.2845 8.42012 16.2947 8.58723C16.2947 8.58812 16.296 8.60945 16.296 8.61034C16.2969 8.62456 16.2983 8.6379 16.2983 8.65256C16.2983 9.20234 15.8511 9.6499 15.3014 9.6499C14.752 9.6499 14.3045 9.20278 14.3049 8.65078C14.3054 8.64501 14.3063 8.6179 14.3067 8.61212C14.308 8.50367 14.2631 8.39923 14.1831 8.3259C14.1125 8.26101 14.0205 8.22545 13.9258 8.22545C13.9129 8.22545 13.9 8.2259 13.8876 8.22723C13.8138 8.23478 13.7396 8.23878 13.6636 8.23878C12.8 8.23878 12.02 7.7579 11.6285 6.98412C11.5467 6.82279 11.3627 6.74056 11.1889 6.78812C10.3009 7.02901 9.51026 6.35256 9.51026 5.50634C9.50893 4.77301 10.1054 4.17612 10.8391 4.17612Z" fill="#0FAFEB"/>
</svg>
