<svg width="41" height="40" viewBox="0 0 41 40" fill="none" xmlns="http://www.w3.org/2000/svg">
<rect width="40" height="40" transform="translate(0.5)" fill="#4C5C80"/>
<path d="M18.1548 20.9366C18.0857 20.9366 16.6366 20.937 15.9682 20.9364C15.6242 20.9361 15.5014 20.8125 15.5014 20.4662C15.501 19.5768 15.5007 18.6873 15.5014 17.7979C15.5016 17.456 15.6314 17.3255 15.9711 17.3253C16.6394 17.3249 18.0807 17.3251 18.1548 17.3251C18.1548 17.2641 18.1546 15.98 18.1548 15.3887C18.1552 14.5144 18.3112 13.6775 18.7554 12.9113C19.2101 12.127 19.8719 11.5897 20.72 11.2791C21.2631 11.08 21.827 11.0006 22.4034 11.0001C23.1245 10.9997 23.8457 11.0004 24.5671 11.0017C24.877 11.0021 25.0145 11.1392 25.0152 11.4514C25.0165 12.288 25.0165 13.1247 25.0152 13.9611C25.0148 14.2766 24.883 14.4033 24.566 14.4068C23.9748 14.4132 23.3833 14.4092 22.7928 14.433C22.1964 14.433 21.8827 14.7243 21.8827 15.3416C21.8684 15.9945 21.8767 16.6481 21.8767 17.3249C21.9326 17.3249 23.6299 17.3246 24.4232 17.3249C24.7836 17.3249 24.9067 17.4487 24.9067 17.8111C24.9067 18.6957 24.9065 19.5805 24.9059 20.4651C24.9056 20.8222 24.7899 20.9361 24.4274 20.9364C23.6341 20.9368 21.9434 20.9366 21.8695 20.9366V28.0964C21.8695 28.4781 21.7493 28.5998 21.3727 28.5998C20.4544 28.5998 19.5359 28.6 18.6177 28.5998C18.2848 28.5998 18.155 28.4704 18.155 28.1376C18.1548 25.8058 18.1548 21.0184 18.1548 20.9366Z" fill="white"/>
</svg>
