<svg width="41" height="40" viewBox="0 0 41 40" fill="none" xmlns="http://www.w3.org/2000/svg">
<rect width="40" height="40" transform="translate(0.5)" fill="#4C5C80"/>
<path d="M25.244 10H16.756C13.3064 10 10.5 12.8064 10.5 16.256V24.744C10.5 28.1936 13.3064 31 16.756 31H25.244C28.6936 31 31.5 28.1936 31.5 24.744V16.256C31.5 12.8064 28.6935 10 25.244 10ZM29.3874 24.744C29.3874 27.0323 27.5323 28.8874 25.244 28.8874H16.756C14.4677 28.8874 12.6126 27.0323 12.6126 24.744V16.256C12.6126 13.9677 14.4677 12.1126 16.756 12.1126H25.244C27.5323 12.1126 29.3874 13.9677 29.3874 16.256V24.744Z" fill="white"/>
<path d="M21.0002 15.0688C18.0053 15.0688 15.5688 17.5053 15.5688 20.5002C15.5688 23.495 18.0053 25.9315 21.0002 25.9315C23.995 25.9315 26.4315 23.495 26.4315 20.5002C26.4315 17.5053 23.995 15.0688 21.0002 15.0688ZM21.0002 23.8189C19.1673 23.8189 17.6814 22.3331 17.6814 20.5002C17.6814 18.6673 19.1673 17.1814 21.0002 17.1814C22.8331 17.1814 24.3189 18.6673 24.3189 20.5002C24.3189 22.3331 22.8331 23.8189 21.0002 23.8189Z" fill="white"/>
<path d="M26.4423 16.411C27.1611 16.411 27.7438 15.8284 27.7438 15.1096C27.7438 14.3908 27.1611 13.8081 26.4423 13.8081C25.7236 13.8081 25.1409 14.3908 25.1409 15.1096C25.1409 15.8284 25.7236 16.411 26.4423 16.411Z" fill="white"/>
</svg>
