<svg width="41" height="40" viewBox="0 0 41 40" fill="none" xmlns="http://www.w3.org/2000/svg">
<rect width="40" height="40" transform="translate(0.5)" fill="#4C5C80"/>
<g clip-path="url(#clip0_202_4890)">
<path d="M21.0272 27C13.169 27 8.68676 21.7447 8.5 13H12.4363C12.5656 19.4184 15.4675 22.1371 17.7661 22.6977V13H21.4725V18.5355C23.7423 18.2973 26.1271 15.7748 26.9316 13H30.638C30.3349 14.4391 29.7306 15.8017 28.8629 17.0025C27.9953 18.2033 26.883 19.2166 25.5956 19.979C27.0326 20.6756 28.3019 21.6615 29.3197 22.8717C30.3375 24.082 31.0806 25.489 31.5 27H27.4201C27.0436 25.6876 26.2784 24.5128 25.2204 23.6228C24.1624 22.7328 22.8586 22.1673 21.4725 21.997V27H21.0272Z" fill="white"/>
</g>
<defs>
<clipPath id="clip0_202_4890">
<rect width="24" height="24" fill="white" transform="translate(8.5 8)"/>
</clipPath>
</defs>
</svg>
