<svg width="41" height="40" viewBox="0 0 41 40" fill="none" xmlns="http://www.w3.org/2000/svg">
<rect width="40" height="40" transform="translate(0.5)" fill="#4C5C80"/>
<g clip-path="url(#clip0_202_4911)">
<path d="M27.5155 11.5083H13.4845C10.7316 11.5083 8.5 13.7399 8.5 16.4928V23.5068C8.5 26.2597 10.7316 28.4913 13.4845 28.4913H27.5155C30.2684 28.4913 32.5 26.2597 32.5 23.5068V16.4928C32.5 13.7399 30.2684 11.5083 27.5155 11.5083ZM24.1445 20.3411L17.5818 23.4711C17.4069 23.5545 17.2049 23.427 17.2049 23.2333V16.7776C17.2049 16.5811 17.4122 16.4537 17.5874 16.5426L24.1502 19.8682C24.3453 19.9671 24.3419 20.2469 24.1445 20.3411Z" fill="white"/>
</g>
<defs>
<clipPath id="clip0_202_4911">
<rect width="24" height="24" fill="white" transform="translate(8.5 8)"/>
</clipPath>
</defs>
</svg>
