<svg width="41" height="40" viewBox="0 0 41 40" fill="none" xmlns="http://www.w3.org/2000/svg">
<g clip-path="url(#clip0_13_12528)">
<path d="M29.8081 23.7901H29.8026L35.1551 18.2886C35.9914 17.3013 37.4634 17.1799 38.4498 18.0113C39.4362 18.8451 39.5601 20.3201 38.7272 21.3057L31.7118 29.6927C30.5477 30.8256 28.9877 31.4592 27.3637 31.4592H16.9341C16.1235 31.4592 15.3441 31.7738 14.761 32.337L13.5425 33.5124L13.5293 33.5228C13.4838 33.4617 13.4336 33.4039 13.3783 33.3482L6.73811 26.7081C6.65035 26.6206 6.55495 26.5445 6.45312 26.4827C7.9823 23.081 11.1847 21.2858 14.8879 21.2858C16.2244 21.2858 17.4961 21.5653 18.6464 22.0683H27.5114C28.5996 22.0683 29.5185 22.7951 29.8081 23.7901Z" fill="white"/>
<path d="M32.5741 7.04321V14.2426C32.5741 15.1074 31.8736 15.8079 31.0089 15.8079H12.2274C11.3626 15.8079 10.6621 15.1074 10.6621 14.2426V7.04321H32.5741Z" fill="#F78E16"/>
<path d="M10.6621 3.91296H32.5741V7.04316H10.6621V3.91296Z" fill="white"/>
<path d="M32.5741 2.34772V3.91297H10.6621V2.34772C10.6621 1.483 11.3626 0.782471 12.2274 0.782471H31.0089C31.8736 0.782471 32.5741 1.483 32.5741 2.34772Z" fill="#F78E16"/>
<path d="M13.3795 35.562L9.58943 39.2958L0.802734 30.4419L4.52552 26.7081C5.13646 26.0971 6.12808 26.0968 6.73932 26.7081L13.3795 33.3482C13.9944 33.9631 13.9871 34.9545 13.3795 35.562Z" fill="#F78E16"/>
<path d="M23.2024 11.8949C22.7703 11.8949 22.4199 12.2456 22.4199 12.6777C22.4199 13.1094 22.7703 13.4601 23.2024 13.4601C23.6345 13.4601 23.9849 13.1094 23.9849 12.6777C23.9849 12.2456 23.6345 11.8949 23.2024 11.8949Z" fill="#222222"/>
<path d="M18.4572 27.1832C18.7626 26.8771 18.7626 26.3818 18.4572 26.0757C18.1514 25.7705 17.656 25.7705 17.35 26.0757C17.0448 26.3818 17.0448 26.8771 17.35 27.1832C17.656 27.4883 18.1514 27.4883 18.4572 27.1832Z" fill="#222222"/>
<path d="M9.05287 39.8468C9.3562 40.1526 9.85002 40.1559 10.1573 39.8532L13.9514 36.1154C14.5959 35.4709 14.7919 34.5165 14.5085 33.687L15.3246 32.8999C15.764 32.4755 16.3425 32.2416 16.954 32.2416H27.3574C29.203 32.2416 30.9474 31.5328 32.2699 30.2458C32.3243 30.1929 31.8568 30.7436 39.3672 21.7673C40.4811 20.4495 40.3145 18.4705 38.9954 17.3553C37.6845 16.2506 35.7209 16.4093 34.6039 17.7045L29.9861 22.4507C29.403 21.7331 28.5138 21.2857 27.5531 21.2857H18.8266C17.5849 20.7662 16.2673 20.5033 14.9078 20.5033C11.1407 20.5033 7.84965 22.2425 6.0832 25.5069C5.33926 25.366 4.55464 25.591 3.99019 26.1555L0.267399 29.8893C-0.0365394 30.1941 -0.0371509 30.6873 0.266176 30.9928L9.05287 39.8468ZM14.9075 22.0682C16.1061 22.0682 17.265 22.3095 18.3526 22.7853C18.4517 22.8287 18.5584 22.851 18.6664 22.851H27.5531C28.4016 22.851 29.1183 23.543 29.1183 24.4159C29.1183 25.2791 28.4162 25.9812 27.5531 25.9812H21.1682C20.7361 25.9812 20.3857 26.3316 20.3857 26.7637C20.3857 27.196 20.7361 27.5461 21.1682 27.5461H27.5531C29.2791 27.5461 30.6833 26.142 30.6833 24.4159C30.6833 24.2783 30.6735 24.142 30.6557 24.0068C35.1228 19.415 35.7527 18.7698 35.7796 18.7377C36.3373 18.0794 37.3274 17.9959 37.986 18.5512C38.6453 19.1086 38.7287 20.0981 38.1695 20.7601L31.1505 29.1511C30.1255 30.1351 28.7798 30.6766 27.3574 30.6766H16.954C15.9346 30.6766 14.9696 31.0665 14.2376 31.7738L13.5725 32.4156L7.44175 26.2851C8.8746 23.5971 11.5633 22.0682 14.9075 22.0682ZM5.09769 27.2615C5.35577 27.0034 5.75205 26.9569 6.06669 27.1514C6.18625 27.2242 12.8796 33.934 12.9209 33.9894C13.1499 34.2979 13.1172 34.7361 12.849 35.0046L9.61457 38.191L1.9253 30.443L5.09769 27.2615Z" fill="#222222"/>
<path d="M12.2266 16.5903H31.0081C32.3049 16.5903 33.3559 15.5394 33.3559 14.2426V2.34773C33.3559 1.05094 32.3049 0 31.0081 0H12.2266C10.9298 0 9.87891 1.05094 9.87891 2.34773V14.2426C9.87891 15.5394 10.9302 16.5903 12.2266 16.5903ZM31.7906 6.2604H11.4442V4.69545H31.7906V6.2604ZM31.0081 15.0254H12.2266C11.7943 15.0254 11.4442 14.675 11.4442 14.2426V7.82565H31.7906V14.2426C31.7906 14.675 31.4405 15.0254 31.0081 15.0254ZM12.2266 1.56525H31.0081C31.4405 1.56525 31.7906 1.91536 31.7906 2.34773V3.1302H11.4442V2.34773C11.4442 1.91536 11.7946 1.56525 12.2266 1.56525Z" fill="#222222"/>
<path d="M29.4635 11.8949H26.3333C25.9012 11.8949 25.5508 12.2453 25.5508 12.6777C25.5508 13.1097 25.9012 13.4601 26.3333 13.4601H29.4635C29.8958 13.4601 30.2462 13.1097 30.2462 12.6777C30.2462 12.2453 29.8958 11.8949 29.4635 11.8949Z" fill="#222222"/>
</g>
<defs>
<clipPath id="clip0_13_12528">
<rect width="40" height="40" fill="white" transform="translate(0.5)"/>
</clipPath>
</defs>
</svg>
