<svg width="40" height="40" viewBox="0 0 40 40" fill="none" xmlns="http://www.w3.org/2000/svg">
<g clip-path="url(#clip0_13_12428)">
<path fill-rule="evenodd" clip-rule="evenodd" d="M35.8093 17.0315H27.6758V22.7737H38.0879L35.8093 17.0315Z" fill="white"/>
<path fill-rule="evenodd" clip-rule="evenodd" d="M23.5918 13.3732V29.747H27.3408C27.983 28.9742 28.9484 28.4825 30.0291 28.4825C31.1119 28.4825 32.0774 28.9742 32.7173 29.747H38.0873V26.2614V22.7736H27.6752V17.0315H35.8088L34.3583 13.3732H32.8414H23.5918V13.3732Z" fill="white"/>
<path fill-rule="evenodd" clip-rule="evenodd" d="M19.9884 14.1372C19.9884 19.4408 15.6902 23.7391 10.3866 23.7391C7.76258 23.7391 5.38203 22.6872 3.65039 20.9821V29.7469H7.94633C8.58852 28.9741 9.55398 28.4825 10.6346 28.4825C11.7174 28.4825 12.683 28.9741 13.3252 29.7469H23.5912V13.3732H27.3712V9.52661H18.8125C19.5632 10.8952 19.9884 12.4653 19.9884 14.1372Z" fill="#F78E16"/>
<path fill-rule="evenodd" clip-rule="evenodd" d="M16.8112 14.1372C16.8112 17.6848 13.9347 20.5614 10.3872 20.5614C6.8375 20.5614 3.96094 17.6849 3.96094 14.1372C3.96094 10.5875 6.83742 7.71082 10.3872 7.71082C13.9346 7.71082 16.8112 10.5875 16.8112 14.1372ZM10.3871 4.53308C5.08141 4.53308 0.783203 8.83136 0.783203 14.1372C0.783203 16.8168 1.87938 19.2393 3.65086 20.9821C5.3825 22.6873 7.76305 23.7392 10.3871 23.7392C15.6906 23.7392 19.9888 19.4409 19.9888 14.1372C19.9888 12.4653 19.5637 10.8953 18.813 9.52668C17.1809 6.55043 14.0188 4.53308 10.3871 4.53308Z" fill="white"/>
<path fill-rule="evenodd" clip-rule="evenodd" d="M10.3872 7.71082C6.8375 7.71082 3.96094 10.5874 3.96094 14.1372C3.96094 17.6848 6.83742 20.5614 10.3872 20.5614C13.9347 20.5614 16.8112 17.6849 16.8112 14.1372C16.8112 10.5875 13.9347 7.71082 10.3872 7.71082Z" fill="white"/>
<path fill-rule="evenodd" clip-rule="evenodd" d="M7.94711 29.7471H3.65109C3.02883 29.7471 2.51953 30.2564 2.51953 30.8786V31.895C2.51953 32.5173 3.02883 33.0266 3.65109 33.0266H7.30492C7.20086 32.6944 7.14328 32.3423 7.14328 31.9747C7.14328 31.1289 7.44664 30.3516 7.94711 29.7471Z" fill="white"/>
<path fill-rule="evenodd" clip-rule="evenodd" d="M10.6347 28.4825C9.55406 28.4825 8.58859 28.9742 7.94641 29.747C7.44594 30.3515 7.14258 31.1288 7.14258 31.9747C7.14258 32.3423 7.20016 32.6944 7.30422 33.0266C7.7493 34.4417 9.07352 35.4692 10.6347 35.4692C12.198 35.4692 13.5223 34.4417 13.9673 33.0266C14.0714 32.6944 14.129 32.3423 14.129 31.9747C14.129 31.1288 13.8256 30.3515 13.3252 29.747C12.683 28.9741 11.7175 28.4825 10.6347 28.4825Z" fill="white"/>
<path fill-rule="evenodd" clip-rule="evenodd" d="M23.5922 29.7471H13.3262C13.8266 30.3516 14.13 31.1289 14.13 31.9748C14.13 32.3424 14.0724 32.6945 13.9684 33.0267H26.699C26.5949 32.6945 26.5373 32.3424 26.5373 31.9748C26.5373 31.1289 26.8407 30.3516 27.3412 29.7471H23.5922Z" fill="white"/>
<path fill-rule="evenodd" clip-rule="evenodd" d="M27.3409 29.747C26.8405 30.3515 26.5371 31.1288 26.5371 31.9747C26.5371 32.3423 26.5947 32.6944 26.6988 33.0266C27.1438 34.4417 28.468 35.4692 30.0292 35.4692C31.5926 35.4692 32.9146 34.4417 33.3619 33.0266C33.4659 32.6944 33.5235 32.3423 33.5235 31.9747C33.5235 31.1288 33.2202 30.3515 32.7175 29.747C32.0775 28.9742 31.112 28.4825 30.0292 28.4825C28.9486 28.4825 27.983 28.9741 27.3409 29.747Z" fill="white"/>
<path fill-rule="evenodd" clip-rule="evenodd" d="M38.0867 29.7471H32.7168C33.2195 30.3516 33.5228 31.1289 33.5228 31.9748C33.5228 32.3424 33.4652 32.6945 33.3612 33.0267H38.0867C38.709 33.0267 39.2183 32.5174 39.2183 31.8951V30.8787C39.2183 30.2564 38.709 29.7471 38.0867 29.7471Z" fill="white"/>
<path d="M30.0304 32.756C29.5989 32.756 29.248 32.4062 29.248 31.9747C29.248 31.5433 29.5967 31.1935 30.0281 31.1935H30.0303C30.4618 31.1935 30.8116 31.5432 30.8116 31.9747C30.8116 32.4061 30.4619 32.756 30.0304 32.756Z" fill="#222222"/>
<path d="M10.6377 31.1935H10.6355C10.2041 31.1935 9.85547 31.5432 9.85547 31.9747C9.85547 32.4061 10.2063 32.756 10.6378 32.756C11.0693 32.756 11.4191 32.4062 11.4191 31.9747C11.419 31.5433 11.0692 31.1935 10.6377 31.1935Z" fill="#222222"/>
<path d="M38.8685 29.1333V22.7736C38.8685 22.6759 38.8494 22.5763 38.8134 22.4855L35.0843 13.0851C34.9662 12.7875 34.6784 12.592 34.3581 12.592H28.1529V9.52663C28.1529 9.09522 27.8031 8.74538 27.3717 8.74538H19.2659C18.8383 8.04405 18.3246 7.38858 17.7289 6.79295C16.2231 5.2871 14.3238 4.29233 12.2363 3.91616C10.1972 3.54866 8.11932 3.79163 6.22768 4.61889C5.83236 4.79178 5.65205 5.25233 5.82494 5.64764C5.99783 6.04288 6.45846 6.22335 6.85369 6.05038C10.2024 4.586 14.0374 5.311 16.6241 7.8978C18.2908 9.56452 19.2087 11.7802 19.2087 14.1369C19.2087 16.4933 18.2909 18.7084 16.6239 20.3744C14.9583 22.0411 12.7433 22.959 10.3868 22.959C8.03033 22.959 5.81463 22.041 4.14791 20.3743C1.56502 17.7915 0.838379 13.9583 2.29666 10.6092C2.46893 10.2137 2.28783 9.75327 1.89229 9.581C1.49689 9.40897 1.03643 9.58983 0.864161 9.98545C0.0404105 11.8773 -0.200449 13.9539 0.16752 15.9909C0.529551 17.995 1.46299 19.8243 2.86971 21.299V29.1333C2.20354 29.4327 1.73814 30.1021 1.73814 30.8786V31.895C1.73814 32.9497 2.59619 33.8078 3.65088 33.8078H6.77549C7.46307 35.2506 8.93549 36.2503 10.6374 36.2503C12.3383 36.2503 13.81 35.2506 14.4972 33.8078H26.1691C26.8563 35.2506 28.328 36.2503 30.0289 36.2503C31.7308 36.2503 33.2031 35.2506 33.8908 33.8078H38.0872C39.1419 33.8078 39.9999 32.9497 39.9999 31.895V30.8786C40 30.1021 39.5347 29.4327 38.8685 29.1333ZM35.2788 17.8127L36.9369 21.9924H28.4563V17.8127H35.2788ZM33.8277 14.1544L34.6591 16.2502H27.6751C27.2436 16.2502 26.8938 16.6 26.8938 17.0315V22.7736C26.8938 23.205 27.2436 23.5548 27.6751 23.5548H37.306V25.4802H36.2449C35.8134 25.4802 35.4636 25.83 35.4636 26.2615C35.4636 26.693 35.8134 27.0427 36.2449 27.0427H37.306V28.9658H33.0617C32.2867 28.1855 31.2135 27.7014 30.029 27.7014C28.8452 27.7014 27.7725 28.1855 26.9978 28.9658H24.3729V14.1544H33.8277ZM6.37127 32.2455H3.65088C3.46096 32.2455 3.30057 32.085 3.30057 31.8951V30.8787C3.30057 30.6887 3.46104 30.5283 3.65088 30.5283H6.61447C6.45127 30.9803 6.36182 31.4673 6.36182 31.9748C6.36182 32.0658 6.36564 32.1558 6.37127 32.2455ZM10.6374 34.688C9.14135 34.688 7.92424 33.4708 7.92424 31.9748C7.92424 30.4799 9.14135 29.2637 10.6374 29.2637C12.1322 29.2637 13.3483 30.4799 13.3483 31.9748C13.3483 33.4708 12.1322 34.688 10.6374 34.688ZM13.6685 28.9658C12.8938 28.1855 11.8212 27.7013 10.6374 27.7013C9.45291 27.7013 8.37971 28.1855 7.60463 28.9658H4.43213V22.6475C6.16486 23.8653 8.22549 24.5214 10.3869 24.5214C13.1608 24.5214 15.7684 23.4408 17.7288 21.4793C19.6906 19.5184 20.7711 16.9109 20.7711 14.1369C20.7711 12.8044 20.5212 11.5105 20.0446 10.3078H26.5904V12.5919H23.5916C23.1601 12.5919 22.8103 12.9417 22.8103 13.3732V28.9657H13.6685V28.9658ZM14.9013 32.2455C14.9069 32.1558 14.9107 32.0658 14.9107 31.9748C14.9107 31.4672 14.8213 30.9802 14.6582 30.5282H26.0081C25.845 30.9802 25.7556 31.4672 25.7556 31.9748C25.7556 32.0658 25.7595 32.1558 25.7651 32.2455H14.9013ZM30.029 34.688C28.5342 34.688 27.3181 33.4708 27.3181 31.9748C27.3181 30.4799 28.5342 29.2637 30.029 29.2637C30.8633 29.2637 31.6106 29.6423 32.1087 30.2362C32.1142 30.243 32.12 30.2496 32.1257 30.2563C32.5106 30.7244 32.7421 31.323 32.7421 31.9748C32.7421 33.4708 31.525 34.688 30.029 34.688ZM38.4376 31.8951C38.4376 32.0851 38.2771 32.2455 38.0873 32.2455H34.2951C34.3007 32.1558 34.3046 32.0658 34.3046 31.9748C34.3046 31.4672 34.2151 30.9802 34.0519 30.5282H38.0872C38.2771 30.5282 38.4375 30.6887 38.4375 30.8786V31.8951H38.4376Z" fill="#222222"/>
<path d="M10.3871 21.3426C14.3601 21.3426 17.5923 18.1103 17.5923 14.1372C17.5923 10.1629 14.3601 6.92957 10.3871 6.92957C6.41289 6.92957 3.17969 10.1629 3.17969 14.1372C3.17969 18.1103 6.41289 21.3426 10.3871 21.3426ZM10.3871 8.49199C13.4986 8.49199 16.0299 11.0244 16.0299 14.1372C16.0299 17.2488 13.4986 19.7802 10.3871 19.7802C7.27445 19.7802 4.74211 17.2488 4.74211 14.1372C4.74211 11.0243 7.27445 8.49199 10.3871 8.49199Z" fill="#222222"/>
<path d="M10.3868 14.9185H12.6433C13.0748 14.9185 13.4245 14.5687 13.4245 14.1372C13.4245 13.7058 13.0748 13.356 12.6433 13.356H11.168V10.8864C11.168 10.4549 10.8182 10.1051 10.3867 10.1051C9.95523 10.1051 9.60547 10.4549 9.60547 10.8864V14.1372C9.60555 14.5687 9.95531 14.9185 10.3868 14.9185Z" fill="#222222"/>
<path d="M3.59373 8.12884C3.79365 8.12884 3.99357 8.05251 4.14615 7.90001L4.14834 7.89782C4.45342 7.59275 4.45225 7.09923 4.14725 6.79415C3.84217 6.48915 3.34646 6.49017 3.04131 6.79524C2.73623 7.10032 2.73623 7.59501 3.04131 7.90009C3.19389 8.05259 3.39381 8.12884 3.59373 8.12884Z" fill="#222222"/>
</g>
<defs>
<clipPath id="clip0_13_12428">
<rect width="40" height="40" fill="white"/>
</clipPath>
</defs>
</svg>
