<svg width="40" height="40" viewBox="0 0 40 40" fill="none" xmlns="http://www.w3.org/2000/svg">
<g clip-path="url(#clip0_13_12508)">
<path d="M29.6094 12.5781V4.53125C29.6094 2.46002 31.2885 0.78125 33.3594 0.78125C35.4306 0.78125 37.1094 2.46002 37.1094 4.53125V11.0156C37.1094 11.8787 36.4099 12.5781 35.5469 12.5781H29.6094Z" fill="#F78E16"/>
<path d="M33.3591 0.78125H6.64062C4.5694 0.78125 2.89062 2.46002 2.89062 4.53125V33.4372C2.89062 34.3002 3.59009 34.9997 4.45312 34.9997H29.6091V4.53125C29.6091 2.46002 31.2881 0.78125 33.3591 0.78125Z" fill="white"/>
<path d="M22.8906 39.2184L21.741 36.46C21.3394 35.4962 21.1328 34.462 21.1328 33.4177V27.3602C21.1328 26.445 21.8747 25.7031 22.7899 25.7031C23.5031 25.7031 24.1364 26.1594 24.3619 26.8362L25.5396 30.3687C25.8237 31.2213 26.6217 31.7966 27.5208 31.7966C28.6743 31.7966 29.6091 30.8618 29.6091 29.7083V14.4299L31.9864 16.8027C33.9822 18.7952 35.1041 21.4996 35.1041 24.3198V32.6245C35.1041 34.9054 34.5969 37.1576 33.6197 39.2184" fill="white"/>
<path d="M11.3027 10H7.86523C7.43372 10 7.08398 9.65027 7.08398 9.21875V5.78125C7.08398 5.34973 7.43372 5 7.86523 5H11.3027C11.7339 5 12.084 5.34973 12.084 5.78125V9.21875C12.084 9.65027 11.7339 10 11.3027 10Z" fill="#F78E16"/>
<path d="M11.3027 19.375H7.86523C7.43372 19.375 7.08398 19.0253 7.08398 18.5938V15.1562C7.08398 14.7247 7.43372 14.375 7.86523 14.375H11.3027C11.7339 14.375 12.084 14.7247 12.084 15.1562V18.5938C12.084 19.0253 11.7339 19.375 11.3027 19.375Z" fill="#F78E16"/>
<path d="M11.3027 28.7497H7.86523C7.43372 28.7497 7.08398 28.4 7.08398 27.9684V24.5312C7.08398 24.0997 7.43372 23.75 7.86523 23.75H11.3027C11.7339 23.75 12.084 24.0997 12.084 24.5312V27.9684C12.084 28.4 11.7339 28.7497 11.3027 28.7497Z" fill="#F78E16"/>
<path d="M33.3591 0H6.64062C4.14215 0 2.10938 2.03278 2.10938 4.53125V33.4372C2.10938 34.7296 3.16071 35.7809 4.45312 35.7809H14.7134C15.145 35.7809 15.4947 35.4312 15.4947 34.9997C15.4947 34.5682 15.145 34.2184 14.7134 34.2184H4.45312C4.02222 34.2184 3.67188 33.8681 3.67188 33.4372V4.53125C3.67188 2.89429 5.00366 1.5625 6.64062 1.5625H29.9402C29.2484 2.3584 28.8278 3.3963 28.8278 4.53125V29.7083C28.8278 30.4291 28.2416 31.0153 27.5208 31.0153C26.9574 31.0153 26.459 30.6561 26.2805 30.1218L25.1031 26.5891C24.7708 25.5917 23.8409 24.9219 22.7899 24.9219C21.4453 24.9219 20.3516 26.0156 20.3516 27.3599V27.9684H16.3022C15.8707 27.9684 15.5209 28.3185 15.5209 28.7497C15.5209 29.1812 15.8707 29.5309 16.3022 29.5309H20.3516V33.4177C20.3516 34.5712 20.5765 35.6961 21.0202 36.7606L22.1695 39.519C22.2946 39.819 22.5848 40 22.8909 40C22.991 40 23.093 39.9808 23.1909 39.9399C23.5895 39.7739 23.7778 39.3164 23.6118 38.9182L22.4625 36.1597C22.0987 35.2866 21.9141 34.364 21.9141 33.418V27.3602C21.9141 26.8771 22.3068 26.4844 22.7899 26.4844C23.1674 26.4844 23.5016 26.7249 23.6209 27.0831L24.7983 30.6158C25.1895 31.7892 26.2836 32.5778 27.5208 32.5778C29.1031 32.5778 30.3903 31.2906 30.3903 29.7083V16.3138L31.4343 17.3557C33.2971 19.2148 34.3228 21.6882 34.3228 24.3198V32.6245C34.3228 34.7757 33.8354 36.94 32.9138 38.8837C32.7289 39.2734 32.8952 39.7394 33.2849 39.9243C33.6746 40.1093 34.1406 39.9432 34.3256 39.5532C35.3458 37.4017 35.8853 35.0058 35.8853 32.6245V24.3198C35.8853 21.2701 34.6967 18.4042 32.5381 16.2497L30.3903 14.1058V13.3594H35.5466C36.839 13.3594 37.8903 12.308 37.8903 11.0156V4.53125C37.8903 2.03278 35.8578 0 33.3591 0V0ZM36.3278 11.0156C36.3278 11.4462 35.9775 11.7969 35.5466 11.7969H30.3903V4.53125C30.3903 2.89429 31.7221 1.5625 33.3591 1.5625C34.996 1.5625 36.3278 2.89429 36.3278 4.53125V11.0156Z" fill="#222222"/>
<path d="M18.125 34.2185C17.9193 34.2185 17.7179 34.3021 17.5726 34.4474C17.4274 34.593 17.3438 34.7944 17.3438 34.9998C17.3438 35.2054 17.4274 35.4069 17.5726 35.5521C17.7179 35.6974 17.9193 35.781 18.125 35.781C18.3304 35.781 18.5318 35.6974 18.6774 35.5521C18.8226 35.4069 18.9062 35.2054 18.9062 34.9998C18.9062 34.7944 18.8226 34.593 18.6774 34.4474C18.5318 34.3021 18.3304 34.2185 18.125 34.2185Z" fill="#222222"/>
<path d="M12.8652 5.78125C12.8652 4.91974 12.1642 4.21875 11.3027 4.21875H7.86523C7.00342 4.21875 6.30273 4.91974 6.30273 5.78125V9.21875C6.30273 10.0803 7.00342 10.7812 7.86523 10.7812H11.3027C12.1642 10.7812 12.8652 10.0803 12.8652 9.21875V5.78125ZM11.3027 9.21875H7.86523V5.78125H11.3027L11.3036 9.21875C11.3036 9.21875 11.3033 9.21875 11.3027 9.21875Z" fill="#222222"/>
<path d="M12.8652 15.1562C12.8652 14.2947 12.1642 13.5938 11.3027 13.5938H7.86523C7.00342 13.5938 6.30273 14.2947 6.30273 15.1562V18.5938C6.30273 19.4553 7.00342 20.1562 7.86523 20.1562H11.3027C12.1642 20.1562 12.8652 19.4553 12.8652 18.5938V15.1562ZM11.3027 18.5938H7.86523V15.1562H11.3027L11.3036 18.5938C11.3036 18.5938 11.3033 18.5938 11.3027 18.5938Z" fill="#222222"/>
<path d="M11.3027 22.9688H7.86523C7.00342 22.9688 6.30273 23.6694 6.30273 24.5312V27.9684C6.30273 28.8303 7.00342 29.5309 7.86523 29.5309H11.3027C12.1642 29.5309 12.8652 28.8303 12.8652 27.9684V24.5312C12.8652 23.6694 12.1642 22.9688 11.3027 22.9688ZM11.3027 27.9684H7.86523V24.5312H11.3027L11.3036 27.9684C11.3036 27.9684 11.3033 27.9684 11.3027 27.9684Z" fill="#222222"/>
<path d="M25.2607 10.7812C25.6923 10.7812 26.042 10.4315 26.042 10C26.042 9.56848 25.6923 9.21875 25.2607 9.21875H19.875C19.4435 9.21875 19.0938 9.56848 19.0938 10C19.0938 10.4315 19.4435 10.7812 19.875 10.7812H25.2607Z" fill="#222222"/>
<path d="M16.3027 10.7812C16.5084 10.7812 16.7098 10.6976 16.8551 10.5524C17.0004 10.4071 17.084 10.2054 17.084 10C17.084 9.79462 17.0004 9.5929 16.8551 9.44763C16.7098 9.30237 16.5084 9.21875 16.3027 9.21875C16.0964 9.21875 15.8956 9.30237 15.7504 9.44763C15.6045 9.5929 15.5215 9.79462 15.5215 10C15.5215 10.2054 15.6045 10.4071 15.7504 10.5524C15.8956 10.6976 16.0964 10.7812 16.3027 10.7812Z" fill="#222222"/>
<path d="M16.3027 20.1562H25.2612C25.6927 20.1562 26.0424 19.8065 26.0424 19.375C26.0424 18.9435 25.6927 18.5938 25.2612 18.5938H16.3027C15.8715 18.5938 15.5215 18.9435 15.5215 19.375C15.5215 19.8065 15.8715 20.1562 16.3027 20.1562Z" fill="#222222"/>
</g>
<defs>
<clipPath id="clip0_13_12508">
<rect width="40" height="40" fill="white"/>
</clipPath>
</defs>
</svg>
