<svg width="40" height="40" viewBox="0 0 40 40" fill="none" xmlns="http://www.w3.org/2000/svg">
<path d="M34.5312 16.0938H5.46875C4.60547 16.0938 3.90625 16.793 3.90625 17.6562V34.8438H36.0938V17.6562C36.0938 16.793 35.3945 16.0938 34.5312 16.0938Z" fill="#F78E16"/>
<path d="M30.9375 31.7188H9.0625C9.0625 30.9188 9.0625 2.57164 9.0625 2.03125H24.6875L30.9375 8.28125V31.7188Z" fill="white"/>
<path d="M39.2188 34.8438C39.2188 36.5695 37.8195 37.9688 36.0938 37.9688H3.90625C2.18047 37.9688 0.78125 36.5695 0.78125 34.8438H39.2188Z" fill="white"/>
<path d="M30.9375 8.28125H24.6875V2.03125L30.9375 8.28125Z" fill="white"/>
<path d="M13.1976 11.9587C13.3502 12.1113 13.5501 12.1876 13.7501 12.1876C13.9501 12.1876 14.1499 12.1113 14.3025 11.9587L17.115 9.14623C17.4201 8.84115 17.4201 8.34646 17.115 8.04131C16.8098 7.73623 16.3153 7.73623 16.0101 8.04131L13.7501 10.3015L13.0525 9.60389C12.7473 9.29881 12.2528 9.29881 11.9476 9.60389C11.6425 9.90896 11.6425 10.4037 11.9476 10.7088L13.1976 11.9587Z" fill="#222222"/>
<path d="M13.1976 16.6462C13.3502 16.7988 13.5501 16.8751 13.7501 16.8751C13.9501 16.8751 14.1499 16.7988 14.3025 16.6462L17.115 13.8337C17.4201 13.5287 17.4201 13.034 17.115 12.7288C16.8098 12.4237 16.3153 12.4237 16.0101 12.7288L13.7501 14.989L13.0525 14.2914C12.7473 13.9863 12.2528 13.9863 11.9476 14.2914C11.6425 14.5965 11.6425 15.0912 11.9476 15.3963L13.1976 16.6462Z" fill="#222222"/>
<path d="M13.1976 21.3337C13.3502 21.4863 13.5501 21.5626 13.7501 21.5626C13.9501 21.5626 14.1499 21.4863 14.3025 21.3337L17.115 18.5212C17.4201 18.2162 17.4201 17.7215 17.115 17.4163C16.8098 17.1112 16.3153 17.1112 16.0101 17.4163L13.7501 19.6765L13.0525 18.9789C12.7473 18.6738 12.2528 18.6738 11.9476 18.9789C11.6425 19.284 11.6425 19.7787 11.9476 20.0838L13.1976 21.3337Z" fill="#222222"/>
<path d="M13.1976 26.0212C13.3502 26.1738 13.5501 26.2501 13.7501 26.2501C13.9501 26.2501 14.1499 26.1738 14.3025 26.0212L17.115 23.2087C17.4201 22.9037 17.4201 22.409 17.115 22.1038C16.8098 21.7987 16.3153 21.7987 16.0101 22.1038L13.7501 24.364L13.0525 23.6664C12.7473 23.3613 12.2528 23.3613 11.9476 23.6664C11.6425 23.9715 11.6425 24.4662 11.9476 24.7713L13.1976 26.0212Z" fill="#222222"/>
<path d="M18.4375 12.1875H27.8125C28.2439 12.1875 28.5938 11.8377 28.5938 11.4062C28.5938 10.9748 28.2439 10.625 27.8125 10.625H18.4375C18.0061 10.625 17.6562 10.9748 17.6562 11.4062C17.6562 11.8377 18.0061 12.1875 18.4375 12.1875Z" fill="#222222"/>
<path d="M18.4375 16.875H27.8125C28.2439 16.875 28.5938 16.5252 28.5938 16.0938C28.5938 15.6623 28.2439 15.3125 27.8125 15.3125H18.4375C18.0061 15.3125 17.6562 15.6623 17.6562 16.0938C17.6562 16.5252 18.0061 16.875 18.4375 16.875Z" fill="#222222"/>
<path d="M18.4375 21.5625H27.8125C28.2439 21.5625 28.5938 21.2127 28.5938 20.7812C28.5938 20.3498 28.2439 20 27.8125 20H18.4375C18.0061 20 17.6562 20.3498 17.6562 20.7812C17.6562 21.2127 18.0061 21.5625 18.4375 21.5625Z" fill="#222222"/>
<path d="M18.4375 26.25H27.8125C28.2439 26.25 28.5938 25.9002 28.5938 25.4688C28.5938 25.0373 28.2439 24.6875 27.8125 24.6875H18.4375C18.0061 24.6875 17.6562 25.0373 17.6562 25.4688C17.6562 25.9002 18.0061 26.25 18.4375 26.25Z" fill="#222222"/>
<path d="M20 38.75C20.4315 38.75 20.7812 38.4002 20.7812 37.9688C20.7812 37.5373 20.4315 37.1875 20 37.1875C19.5685 37.1875 19.2188 37.5373 19.2188 37.9688C19.2188 38.4002 19.5685 38.75 20 38.75Z" fill="#222222"/>
<path d="M39.2188 34.0625H36.875V17.6562C36.875 16.3639 35.8236 15.3125 34.5312 15.3125H31.7188V8.28125C31.7188 8.06734 31.6305 7.86938 31.4899 7.72883L25.2399 1.47883C25.1025 1.34133 24.9018 1.25 24.6875 1.25H9.0625C8.63109 1.25 8.28125 1.59977 8.28125 2.03125V15.3125H5.46875C4.17641 15.3125 3.125 16.3639 3.125 17.6562V34.0625H0.78125C0.349844 34.0625 0 34.4123 0 34.8438C0 36.9977 1.75234 38.75 3.90625 38.75H16.4844C16.9158 38.75 17.2656 38.4002 17.2656 37.9688C17.2656 37.5373 16.9158 37.1875 16.4844 37.1875H3.90625C2.88766 37.1875 2.01883 36.5345 1.69641 35.6242H38.3036C37.9812 36.5345 37.1123 37.1875 36.0938 37.1875H23.5156C23.0842 37.1875 22.7344 37.5373 22.7344 37.9688C22.7344 38.4002 23.0842 38.75 23.5156 38.75H36.0938C38.2477 38.75 40 36.9977 40 34.8438C40 34.4123 39.6502 34.0625 39.2188 34.0625ZM25.4688 3.91734L29.0514 7.5H25.4688V3.91734ZM9.84375 2.8125H23.9062V8.28125C23.9062 8.71273 24.2561 9.0625 24.6875 9.0625H30.1562V30.9375H9.84375V2.8125ZM4.6875 17.6562C4.6875 17.2255 5.03797 16.875 5.46875 16.875H8.28125V31.7188C8.28125 32.1502 8.63109 32.5 9.0625 32.5H30.9375C31.3689 32.5 31.7188 32.1502 31.7188 31.7188V16.875H34.5312C34.962 16.875 35.3125 17.2255 35.3125 17.6562V34.0625H4.6875V17.6562Z" fill="#222222"/>
</svg>
