<svg width="41" height="40" viewBox="0 0 41 40" fill="none" xmlns="http://www.w3.org/2000/svg">
<g clip-path="url(#clip0_13_12411)">
<path fill-rule="evenodd" clip-rule="evenodd" d="M21.1578 24.3918L30.6079 14.8714C30.9705 14.5068 30.9688 13.9173 30.6043 13.5547C30.4227 13.3741 30.1852 13.2812 29.9477 13.2812H28.3124V2.34374C28.3124 1.48437 27.6093 0.78125 26.7499 0.78125H14.25C13.3906 0.78125 12.6875 1.48437 12.6875 2.34374V13.2812H11.0548C10.5391 13.2812 10.1211 13.6992 10.1211 14.2149C10.1211 14.497 10.2461 14.7498 10.4438 14.921L19.8411 24.3882C20.2036 24.7527 20.7932 24.7544 21.1578 24.3918Z" fill="#F78E16"/>
<path fill-rule="evenodd" clip-rule="evenodd" d="M19.559 27.7858C14.6738 28.3926 4.17131 23.8559 1.31937 37.4697C1.1196 38.4235 1.73507 39.2187 2.46452 39.2187H10.3269C11.2732 39.2187 11.6975 38.7904 11.8916 38.0659L12.6257 36.6374L17.974 36.6967C21.4923 36.7356 22.4952 36.5395 25.7886 35.2189C30.3674 33.3828 37.0062 30.3781 38.4857 29.8218C40.6372 28.9879 39.8312 25.9121 37.1642 26.5812L28.4291 28.9359C28.513 28.7313 28.5471 28.5034 28.5152 28.2488C28.4009 27.3354 27.5572 26.6814 26.6403 26.7953C25.7617 26.9045 20.4376 27.6768 19.559 27.7858Z" fill="white"/>
<path d="M40.3854 27.4281C40.0365 26.3306 38.8203 25.3607 36.9744 25.8236C36.9699 25.8247 36.9655 25.8258 36.9612 25.827L29.2472 27.9064C28.9691 26.6947 27.8072 25.8633 26.5441 26.02C26.0985 26.0754 24.5908 26.2896 22.9947 26.5164C21.4712 26.7329 19.8958 26.9567 19.4628 27.0104C18.5092 27.129 17.2401 27.0286 15.8963 26.9224C15.4222 26.885 14.9318 26.8461 14.4301 26.8145C13.9985 26.7862 13.6284 27.1144 13.6012 27.5451C13.574 27.9757 13.9011 28.3468 14.3317 28.374C14.8212 28.4048 15.3052 28.4431 15.7732 28.48C17.1984 28.5927 18.5444 28.699 19.6554 28.561C20.1019 28.5055 21.6138 28.2907 23.2145 28.0633C24.7337 27.8473 26.3047 27.6242 26.7368 27.5704C27.2286 27.5101 27.6791 27.8572 27.7402 28.3458C27.7596 28.5004 27.811 28.911 26.7306 29.4063C24.5086 30.425 22.1405 31.297 20.2337 31.7986C19.8163 31.9084 19.5671 32.3357 19.6769 32.7529C19.7866 33.1703 20.2137 33.4194 20.6312 33.3097C22.6212 32.7863 25.0817 31.8812 27.3818 30.8266C28.1811 30.4602 28.6686 30.0333 28.9532 29.6038L37.3607 27.3374C38.2866 27.1072 38.7616 27.4773 38.8962 27.9013C39.0262 28.3099 38.863 28.8362 38.2065 29.0921C37.5521 29.3386 35.9863 30.0197 34.0052 30.8816C31.3771 32.0249 28.1065 33.4477 25.498 34.4936C22.2897 35.7802 21.3774 35.9515 17.9827 35.9153L12.6344 35.856C12.6315 35.856 12.6286 35.856 12.6257 35.856C12.3332 35.856 12.0649 36.0196 11.9309 36.2801L11.1968 37.7085C11.1715 37.758 11.1514 37.8099 11.1371 37.8634C11.0286 38.2681 10.8921 38.4373 10.3271 38.4373H2.46475C2.37928 38.4373 2.28732 38.3844 2.21248 38.2923C2.14865 38.2137 2.00834 37.9918 2.08412 37.6298C3.02498 33.1387 4.87903 30.3565 7.75238 29.1243C8.14894 28.9543 8.33254 28.495 8.16246 28.0984C7.99238 27.7019 7.53332 27.5183 7.13652 27.6883C3.76068 29.136 1.6078 32.2831 0.554832 37.3094C0.40452 38.0271 0.566628 38.7444 0.999595 39.2774C1.37248 39.7365 1.90647 39.9998 2.46467 39.9998H10.3271C11.5099 39.9998 12.3016 39.4312 12.6221 38.3536L13.0999 37.4238L17.9655 37.4776C21.5531 37.5183 22.6915 37.3024 26.0795 35.9438C28.709 34.8894 31.9912 33.4616 34.6284 32.3143C36.5159 31.4932 38.1461 30.784 38.7609 30.5529C38.7633 30.5519 38.7658 30.551 38.7683 30.55C40.2937 29.9591 40.7363 28.5322 40.3854 27.4281Z" fill="#222222"/>
<path d="M17.375 9.59686C18.6673 9.59686 19.7188 8.54546 19.7188 7.25311C19.7188 5.96077 18.6673 4.90936 17.375 4.90936C16.0827 4.90936 15.0312 5.96077 15.0312 7.25311C15.0312 8.54546 16.0827 9.59686 17.375 9.59686ZM17.375 6.47186C17.8058 6.47186 18.1562 6.82233 18.1562 7.25311C18.1562 7.68389 17.8058 8.03436 17.375 8.03436C16.9442 8.03436 16.5938 7.68389 16.5938 7.25311C16.5938 6.82233 16.9442 6.47186 17.375 6.47186Z" fill="#222222"/>
<path d="M21.2812 13.5031C21.2812 14.7955 22.3327 15.8469 23.625 15.8469C24.9173 15.8469 25.9688 14.7955 25.9688 13.5031C25.9688 12.2108 24.9173 11.1594 23.625 11.1594C22.3327 11.1594 21.2812 12.2108 21.2812 13.5031ZM24.4062 13.5031C24.4062 13.934 24.0558 14.2844 23.625 14.2844C23.1942 14.2844 22.8438 13.934 22.8438 13.5031C22.8438 13.0723 23.1942 12.7219 23.625 12.7219C24.0558 12.7219 24.4062 13.0723 24.4062 13.5031Z" fill="#222222"/>
<path d="M17.4024 15.7423C17.5255 15.8133 17.6598 15.8471 17.7923 15.8471C18.0623 15.8471 18.3249 15.707 18.4696 15.4563L23.8822 6.08133C24.098 5.70766 23.9699 5.22993 23.5963 5.01414C23.2225 4.79828 22.7448 4.92649 22.5291 5.30008L17.1165 14.6751C16.9008 15.0488 17.0288 15.5265 17.4024 15.7423Z" fill="#222222"/>
<path d="M9.90695 15.4892L19.2871 24.939C19.6096 25.2633 20.0391 25.4426 20.4965 25.444H20.5014C20.9571 25.444 21.3857 25.2671 21.7123 24.9422L31.1623 15.422C31.8276 14.7527 31.8246 13.6666 31.1552 13.0008C30.8305 12.6778 30.4016 12.5 29.9477 12.5H29.0936V2.34374C29.0936 1.0514 28.0422 0 26.7499 0H14.2499C12.9576 0 11.9062 1.0514 11.9062 2.34374V12.5H11.0548C10.1092 12.5 9.33984 13.2693 9.33984 14.2149C9.33984 14.7015 9.54609 15.164 9.90695 15.4892ZM11.0548 14.0624H12.6874C13.1188 14.0624 13.4687 13.7126 13.4687 13.2812V2.34374C13.4687 1.91296 13.8191 1.56249 14.2499 1.56249H26.7499C27.1806 1.56249 27.5311 1.91296 27.5311 2.34374V13.2812C27.5311 13.7126 27.8809 14.0624 28.3123 14.0624H29.9477C29.9698 14.0624 30.013 14.0685 30.0534 14.1086C30.1119 14.1669 30.1123 14.262 30.054 14.3206C30.0538 14.3207 30.0537 14.321 30.0534 14.3211L20.6068 23.8379C20.5707 23.8738 20.5296 23.8814 20.5013 23.8814C20.5011 23.8814 20.501 23.8814 20.5008 23.8814C20.4725 23.8813 20.4311 23.8736 20.3955 23.8377L10.9982 14.3706C10.9843 14.3567 10.97 14.3432 10.9551 14.3303C10.9354 14.3132 10.9022 14.2755 10.9022 14.2148C10.9023 14.1308 10.9707 14.0624 11.0548 14.0624Z" fill="#222222"/>
<path d="M10.8649 26.8121C10.4335 26.8121 10.084 27.1619 10.084 27.5933C10.084 28.0247 10.434 28.3746 10.8655 28.3746C11.2969 28.3746 11.6467 28.0247 11.6467 27.5933C11.6467 27.1619 11.2969 26.8121 10.8655 26.8121H10.8649Z" fill="#222222"/>
</g>
<defs>
<clipPath id="clip0_13_12411">
<rect width="40" height="40" fill="white" transform="translate(0.5)"/>
</clipPath>
</defs>
</svg>
