<svg width="41" height="40" viewBox="0 0 41 40" fill="none" xmlns="http://www.w3.org/2000/svg">
<path d="M23.885 30.0181L23.8546 29.9947L17.1531 29.9939L17.1226 30.0173C11.8602 30.5697 8 32.3814 8 34.5313C8 37.1204 13.596 39.2188 20.4999 39.2188C27.4037 39.2188 32.9997 37.1204 32.9997 34.5314C32.9997 32.3822 29.1436 30.5712 23.885 30.0181Z" fill="white"/>
<path d="M20.5941 0.781606C27.498 0.83395 33.0518 6.47216 33.0002 13.3752C32.9565 19.2213 29.4784 22.6642 23.855 29.9946C22.8081 31.3587 21.687 32.8571 20.5003 34.5313C19.3167 32.8555 18.1979 31.3571 17.1534 29.9939C11.4582 22.5658 7.95589 19.1768 8.00042 13.1877C8.05276 6.28388 13.6911 0.730044 20.5941 0.781606ZM25.1878 13.3166C25.2073 10.7276 23.1245 8.61357 20.5355 8.59404C17.9465 8.57451 15.8325 10.6573 15.8129 13.2463C15.7934 15.8353 17.8762 17.9494 20.4652 17.9689C23.0543 17.9885 25.1683 15.9057 25.1878 13.3166Z" fill="#F78E16"/>
<path d="M20.5649 4.68777C20.9961 4.69089 21.3485 4.34402 21.3516 3.91277C21.3547 3.48152 21.0078 3.12917 20.5766 3.12527C20.1446 3.12214 19.7922 3.4698 19.7891 3.90105C19.786 4.3323 20.1328 4.68464 20.5649 4.68777Z" fill="#222222"/>
<path d="M20.5411 7.81288C17.5246 7.79148 15.0542 10.225 15.0314 13.2406C15.0087 16.2559 17.4435 18.7275 20.4591 18.7503C20.4731 18.7503 20.487 18.7504 20.5009 18.7504C23.4973 18.7504 25.9461 16.3242 25.9688 13.3226C25.9915 10.3073 23.5567 7.83562 20.5411 7.81288ZM20.5008 17.188C20.4909 17.188 20.4806 17.1879 20.4708 17.1878C18.3168 17.1716 16.5776 15.4061 16.5938 13.2523C16.61 11.1081 18.3591 9.37515 20.4994 9.37515C20.5092 9.37515 20.5195 9.37523 20.5294 9.37531C22.6834 9.39156 24.4226 11.157 24.4063 13.3109C24.3901 15.455 22.6411 17.188 20.5008 17.188Z" fill="#222222"/>
<path d="M23.9077 3.71786C23.5013 3.57364 23.0545 3.78653 22.9103 4.19325C22.7662 4.59997 22.9791 5.04646 23.3857 5.19067C26.8269 6.41029 29.1203 9.68771 29.0928 13.3461C29.0896 13.7775 29.4367 14.1299 29.8682 14.1332C29.8701 14.1332 29.8721 14.1332 29.8742 14.1332C30.3028 14.1332 30.652 13.7873 30.6553 13.3578C30.6878 9.03381 27.9761 5.15981 23.9077 3.71786Z" fill="#222222"/>
<path d="M33.7814 13.3811C33.8364 6.01837 27.8613 0 20.4991 0C13.2228 0 7.27451 5.89282 7.2192 13.1819C7.17451 19.1925 10.4823 22.6756 15.7144 29.4085C10.5094 30.1863 7.2192 32.1408 7.2192 34.5313C7.2192 36.1327 8.69936 37.5696 11.3871 38.5774C13.8334 39.4948 17.0699 40 20.5003 40C23.9307 40 27.1672 39.4948 29.6135 38.5774C32.3013 37.5695 33.7814 36.1326 33.7814 34.5312C33.7814 32.1419 30.4942 30.188 25.2938 29.4096C30.4903 22.7209 33.7376 19.2331 33.7814 13.3811ZM32.2189 34.5314C32.2189 36.3754 27.2074 38.4377 20.5002 38.4377C13.793 38.4377 8.78154 36.3754 8.78154 34.5314C8.78154 33.1639 11.7775 31.4364 16.8148 30.8382C17.9284 32.2992 18.9046 33.6266 19.8621 34.9822C20.0084 35.1892 20.246 35.3125 20.4995 35.3126C20.4998 35.3126 20.5 35.3126 20.5002 35.3126C20.7535 35.3126 20.9911 35.1898 21.1376 34.9832C22.086 33.6452 23.089 32.2851 24.193 30.839C29.2257 31.4378 32.2189 33.1648 32.2189 34.5314ZM23.2353 29.519C22.2546 30.7968 21.354 32.0049 20.5015 33.1867C19.6515 32.0042 18.7688 30.8177 17.7734 29.5185C12.048 22.0511 8.73928 18.885 8.78162 13.1937C8.83037 6.76173 14.0784 1.5625 20.4992 1.5625C26.996 1.5625 32.2675 6.87408 32.219 13.3695C32.1774 18.9268 28.7335 22.3515 23.2353 29.519Z" fill="#222222"/>
</svg>
