<svg width="41" height="40" viewBox="0 0 41 40" fill="none" xmlns="http://www.w3.org/2000/svg">
<g clip-path="url(#clip0_13_12496)">
<path d="M20.5 0.78125C30.8555 0.78125 39.7188 9.64453 39.7188 20C39.7188 30.3555 30.8555 39.2188 20.5 39.2188C10.1445 39.2188 1.28125 30.3555 1.28125 20C1.28125 9.64453 10.1445 0.78125 20.5 0.78125Z" fill="white"/>
<path d="M29.1883 14.4367C30.1039 15.3516 30.1039 16.8359 29.1883 17.7508L19.8133 27.1258C19.3555 27.5836 18.7563 27.8125 18.1563 27.8125C17.5563 27.8125 16.957 27.5836 16.4992 27.1258L11.8117 22.4383C10.8961 21.5234 10.8961 20.0391 11.8117 19.1242C12.7273 18.2086 14.2102 18.2086 15.1258 19.1242L18.1563 22.1547L25.8742 14.4367C26.7898 13.5211 28.2727 13.5211 29.1883 14.4367Z" fill="#F78E16"/>
<path d="M38.8887 12.3173C37.8613 9.95039 36.3999 7.80977 34.5451 5.95492C32.6902 4.10008 30.5496 2.63867 28.1827 1.61133C25.7195 0.542109 23.1346 0 20.5 0C17.8654 0 15.2805 0.542109 12.8173 1.61133C10.4504 2.63867 8.30977 4.10008 6.45492 5.95492C4.60008 7.80977 3.13867 9.95039 2.11133 12.3173C1.04211 14.7805 0.5 17.3654 0.5 20C0.5 22.6346 1.04211 25.2195 2.11133 27.6827C3.13867 30.0496 4.60008 32.1902 6.45492 34.0451C8.30977 35.8999 10.4504 37.3613 12.8173 38.3887C15.2805 39.4579 17.8654 40 20.5 40C23.1346 40 25.7195 39.4579 28.1827 38.3887C30.5496 37.3613 32.6902 35.8999 34.5451 34.0451C36.3999 32.1902 37.8613 30.0496 38.8887 27.6827C39.9579 25.2195 40.5 22.6346 40.5 20C40.5 17.3654 39.9579 14.7805 38.8887 12.3173ZM20.5 38.4375C10.5059 38.4375 2.0625 29.9941 2.0625 20C2.0625 10.0059 10.5059 1.5625 20.5 1.5625C30.4941 1.5625 38.9375 10.0059 38.9375 20C38.9375 29.9941 30.4941 38.4375 20.5 38.4375Z" fill="#222222"/>
<path d="M35.8105 13.5784C34.9613 11.6053 33.7509 9.825 32.213 8.28711C30.675 6.74914 28.8948 5.53875 26.9216 4.68953C24.8709 3.80688 22.7104 3.35938 20.5 3.35938C17.4952 3.35938 14.3629 4.38547 11.4418 6.32664C11.0824 6.56547 10.9847 7.05039 11.2235 7.40969C11.4623 7.76906 11.9473 7.86672 12.3066 7.62797C14.9706 5.85766 17.8038 4.92188 20.5 4.92188C28.6732 4.92188 35.5781 11.8268 35.5781 20C35.5781 28.1732 28.6732 35.0781 20.5 35.0781C12.3268 35.0781 5.42188 28.1732 5.42188 20C5.42188 17.3044 6.35742 14.471 8.12727 11.8065C8.36602 11.447 8.2682 10.9622 7.90883 10.7234C7.5493 10.4847 7.06453 10.5826 6.82578 10.942C4.88516 13.8636 3.85938 16.9958 3.85938 20C3.85938 22.2104 4.30688 24.3709 5.18945 26.4216C6.03867 28.3947 7.24906 30.175 8.78703 31.7129C10.325 33.2509 12.1052 34.4613 14.0784 35.3105C16.1291 36.1931 18.2896 36.6406 20.5 36.6406C22.7104 36.6406 24.8709 36.1931 26.9216 35.3105C28.8947 34.4613 30.675 33.2509 32.2129 31.713C33.7509 30.175 34.9613 28.3948 35.8105 26.4216C36.6931 24.3709 37.1406 22.2104 37.1406 20C37.1406 17.7896 36.6931 15.6291 35.8105 13.5784Z" fill="#222222"/>
<path d="M11.2593 22.9907L15.9468 27.6782C16.5372 28.2686 17.3219 28.5938 18.1562 28.5938C18.9906 28.5938 19.7753 28.2686 20.3657 27.6782L29.7405 18.3034C30.331 17.7134 30.6562 16.9287 30.6562 16.0938C30.6562 15.2588 30.331 14.4741 29.7407 13.8843C29.1503 13.2939 28.3657 12.9688 27.5312 12.9688C26.6968 12.9688 25.9122 13.2939 25.3218 13.8843L18.1562 21.0498L15.6782 18.5718C15.0878 17.9814 14.3032 17.6562 13.4688 17.6562C12.6343 17.6562 11.8497 17.9814 11.2595 18.5716C10.669 19.1616 10.3438 19.9463 10.3438 20.7812C10.3438 21.6162 10.669 22.4009 11.2593 22.9907ZM12.3641 19.6766C12.6595 19.3814 13.0517 19.2188 13.4688 19.2188C13.8858 19.2188 14.278 19.3814 14.5734 19.6766L18.1562 23.2595L26.4266 14.9891C26.722 14.6939 27.1142 14.5312 27.5312 14.5312C27.9483 14.5312 28.3405 14.6939 28.6361 14.9894C28.9312 15.2843 29.0938 15.6765 29.0938 16.0938C29.0938 16.511 28.9312 16.9032 28.6359 17.1984L19.2609 26.5734C18.9655 26.8686 18.5733 27.0312 18.1562 27.0312C17.7392 27.0312 17.347 26.8686 17.0516 26.5734L12.3639 21.8856C12.0688 21.5907 11.9062 21.1985 11.9062 20.7812C11.9062 20.364 12.0688 19.9718 12.3641 19.6766Z" fill="#222222"/>
<path d="M9.48438 8.20312C9.05312 8.20312 8.70312 8.55312 8.70312 8.98438C8.70312 9.41562 9.05312 9.76562 9.48438 9.76562C9.91562 9.76562 10.2656 9.41562 10.2656 8.98438C10.2656 8.55312 9.91562 8.20312 9.48438 8.20312Z" fill="#222222"/>
</g>
<defs>
<clipPath id="clip0_13_12496">
<rect width="40" height="40" fill="white" transform="translate(0.5)"/>
</clipPath>
</defs>
</svg>
