<svg width="32" height="32" viewBox="0 0 32 32" fill="none" xmlns="http://www.w3.org/2000/svg">
<path d="M21.85 6.33005V3.79505L24.675 6.90505H22.52C22.3551 6.9171 22.192 6.8634 22.0665 6.75567C21.941 6.64795 21.8632 6.49494 21.85 6.33005ZM19.2951 22.16C19.299 22.424 19.4066 22.6759 19.5946 22.8611C19.7827 23.0464 20.0361 23.1503 20.3001 23.1503C20.5641 23.1503 20.8175 23.0465 21.0055 22.8612C21.1936 22.6759 21.3012 22.4241 21.3051 22.1601C21.3012 21.8961 21.1936 21.6443 21.0056 21.459C20.8175 21.2737 20.5641 21.1698 20.3001 21.1698C20.0361 21.1698 19.7827 21.2737 19.5947 21.459C19.4066 21.6443 19.299 21.8961 19.2951 22.16ZM22.8051 25.2951V29.5002C22.8057 29.5902 22.7818 29.6787 22.736 29.7562C22.6902 29.8337 22.6242 29.8973 22.5451 29.9402C22.4651 29.9824 22.3753 30.0027 22.2849 29.9992C22.1945 29.9957 22.1067 29.9684 22.0301 29.9202L20.3001 28.7802L18.5701 29.9202C18.4937 29.9687 18.4058 29.996 18.3153 29.9995C18.2249 30.003 18.1351 29.9826 18.0551 29.9402C17.976 29.8973 17.91 29.8337 17.8642 29.7562C17.8184 29.6787 17.7946 29.5902 17.7951 29.5002L17.7952 25.2951C14.8709 22.9908 16.523 18.1377 20.3001 18.1501C24.078 18.1318 25.7302 22.9986 22.8051 25.2951ZM18.3201 22.475C18.3432 22.6088 18.3782 22.7401 18.4247 22.8676C18.5083 23.0985 18.6347 23.3116 18.7972 23.4958C19.0293 23.7494 19.3221 23.9397 19.6481 24.0487C19.9741 24.1578 20.3226 24.1821 20.6605 24.1193C20.9985 24.0565 21.3149 23.9086 21.58 23.6897C21.845 23.4707 22.0499 23.1879 22.1754 22.8678C22.2219 22.7403 22.257 22.6089 22.2801 22.4751C22.5818 19.414 18.0184 19.4141 18.3201 22.475ZM24.915 2.00005H21.85V2.31505L22.475 3.00005L25.31 6.11505L26.03 6.90505H26.31V3.39005C26.3089 3.0209 26.1613 2.66728 25.8998 2.40672C25.6383 2.14616 25.2842 1.99991 24.915 2.00005ZM22.5201 7.90495H26.3052V25.6851C26.3054 26.053 26.1597 26.4059 25.9 26.6665C25.6404 26.9271 25.288 27.074 24.9202 27.0751H23.8052V25.7451C24.5164 25.0483 25.004 24.1556 25.206 23.1806C25.4079 22.2056 25.315 21.1926 24.939 20.2706C24.563 19.3486 23.9211 18.5595 23.0949 18.0038C22.2688 17.448 21.2959 17.1508 20.3002 17.1501C15.8523 17.1244 13.6031 22.6583 16.795 25.7451V27.0751H7.08494C6.71579 27.0753 6.36164 26.929 6.10015 26.6685C5.83865 26.4079 5.69113 26.0543 5.68994 25.6851V3.38988C5.69113 3.02073 5.83865 2.66711 6.10015 2.40655C6.36164 2.14599 6.71579 1.99974 7.08494 1.99988H20.8501V6.32988C20.8634 6.75995 21.0467 7.16722 21.3597 7.46245C21.6727 7.75768 22.09 7.9168 22.5201 7.90495ZM8.95494 6.10991H12.965C13.096 6.10757 13.2209 6.05387 13.3128 5.96036C13.4047 5.86685 13.4561 5.74101 13.4561 5.60993C13.4561 5.47885 13.4047 5.35301 13.3128 5.25949C13.221 5.16597 13.0961 5.11226 12.965 5.10991H8.95494C8.82361 5.11186 8.69833 5.1654 8.60615 5.25895C8.51397 5.35251 8.4623 5.47857 8.4623 5.60991C8.4623 5.74125 8.51397 5.86732 8.60615 5.96087C8.69833 6.05443 8.82361 6.10797 8.95494 6.10991ZM14 21.6601H8.95497C8.82364 21.6621 8.69836 21.7156 8.60617 21.8091C8.51399 21.9027 8.46232 22.0288 8.46231 22.1601C8.46231 22.2914 8.51398 22.4175 8.60615 22.5111C8.69833 22.6046 8.82361 22.6582 8.95494 22.6601H14C14.1313 22.6582 14.2566 22.6046 14.3488 22.5111C14.441 22.4175 14.4927 22.2915 14.4927 22.1601C14.4927 22.0288 14.441 21.9027 14.3488 21.8092C14.2566 21.7156 14.1313 21.6621 14 21.6601ZM8.95494 18.6501H14C14.1313 18.6481 14.2566 18.5946 14.3488 18.501C14.441 18.4075 14.4927 18.2814 14.4927 18.1501C14.4927 18.0187 14.441 17.8926 14.3488 17.7991C14.2566 17.7055 14.1313 17.652 14 17.65H8.95497C8.82364 17.652 8.69835 17.7055 8.60616 17.7991C8.51398 17.8926 8.4623 18.0187 8.4623 18.15C8.46229 18.2814 8.51396 18.4075 8.60614 18.501C8.69832 18.5946 8.82361 18.6481 8.95494 18.6501ZM23.0001 13.64H8.95497C8.82364 13.6419 8.69836 13.6955 8.60617 13.789C8.51399 13.8826 8.46232 14.0086 8.46231 14.14C8.46231 14.2713 8.51398 14.3974 8.60615 14.491C8.69833 14.5845 8.82361 14.6381 8.95494 14.64H23.0001C23.1315 14.6381 23.2567 14.5845 23.3489 14.491C23.4411 14.3974 23.4928 14.2713 23.4928 14.14C23.4928 14.0087 23.4411 13.8826 23.3489 13.789C23.2567 13.6955 23.1315 13.642 23.0001 13.64ZM23.0001 9.62496H8.95497C8.8237 9.62699 8.69849 9.68056 8.60637 9.77411C8.51426 9.86765 8.46263 9.99367 8.46262 10.125C8.46262 10.2562 8.51424 10.3823 8.60635 10.4758C8.69846 10.5694 8.82367 10.623 8.95494 10.625H23.0001C23.1314 10.623 23.2566 10.5694 23.3487 10.4758C23.4408 10.3823 23.4925 10.2563 23.4925 10.125C23.4925 9.99369 23.4408 9.86767 23.3487 9.77412C23.2566 9.68057 23.1314 9.62699 23.0001 9.62496Z" fill="url(#paint0_linear_76_43683)"/>
<defs>
<linearGradient id="paint0_linear_76_43683" x1="10.1446" y1="27.7846" x2="25.5669" y2="8.45219" gradientUnits="userSpaceOnUse">
<stop stop-color="#00AAE3"/>
<stop offset="1" stop-color="#58C3BD"/>
</linearGradient>
</defs>
</svg>
