<svg width="882" height="442" viewBox="0 0 882 442" fill="none" xmlns="http://www.w3.org/2000/svg">
<path d="M881 1.00003C881 58.7817 869.619 115.998 847.507 169.381C825.395 222.764 792.985 271.269 752.127 312.127C711.269 352.985 662.764 385.395 609.381 407.507C555.997 429.619 498.782 441 441 441C383.218 441 326.003 429.619 272.619 407.507C219.236 385.395 170.731 352.985 129.873 312.127C89.0152 271.269 56.6051 222.764 34.493 169.381C12.3809 115.997 0.999995 58.7816 1 1H132.336C132.336 41.5344 140.319 81.6719 155.831 119.121C171.343 156.57 194.079 190.597 222.741 219.259C251.403 247.921 285.43 270.657 322.879 286.169C360.328 301.681 400.466 309.665 441 309.665C481.534 309.665 521.672 301.681 559.121 286.169C596.57 270.657 630.597 247.921 659.259 219.259C687.921 190.597 710.657 156.57 726.169 119.121C741.681 81.6719 749.664 41.5344 749.664 1.00003" stroke="#EAEAEA"/>
</svg>
