<svg width="20" height="20" viewBox="0 0 20 20" fill="none" xmlns="http://www.w3.org/2000/svg">
<g id="Frame" clip-path="url(#clip0_453_11326)">
<g id="Group">
<g id="Vector">
<path fill-rule="evenodd" clip-rule="evenodd" d="M8 1.99991C7.31362 3.88124 7 7.03955 7 9.99991C7 10.3782 6.98699 10.6336 7 10.9999C8.02656 11.0825 8.87838 10.9999 10 10.9999C11.1216 10.9999 11.9744 11.0825 13 10.9999C13.014 10.6336 13 10.3782 13 9.99991C13 7.03955 12.6874 3.88025 12 1.99991C11.6558 1.05726 11.3982 0.461785 11 -8.7332e-05C10.8975 -0.120503 11.1231 0.0993359 11 -8.7332e-05C10.5672 -0.0276881 9.43279 -0.0276881 9 -8.7332e-05C8.89294 0.0845228 9.11806 -0.137454 9 -8.7332e-05C8.60078 0.461785 8.34519 1.05726 8 1.99991ZM13 12.9999C11.9576 13.077 11.0453 13.0007 10 12.9999C8.91941 12.9999 8.00255 13.0746 7 12.9999C7.1751 14.8892 7.52374 16.6959 8 17.9999C8.34519 18.9426 8.60178 19.539 9 19.9999C8.89194 19.9153 9.12007 20.1373 9 19.9999C9.43246 20.0275 10.5675 20.0275 11 19.9999C10.8976 20.1204 11.1232 19.9005 11 19.9999C11.3982 19.539 11.6548 18.9426 12 17.9999C12.4763 16.6959 12.8259 14.8882 13 12.9999ZM5 10.9999C4.98999 10.6814 5 10.3244 5 9.99991C5 6.91214 5.23958 4.08232 6 1.99991C6.20711 1.43352 6.73986 0.46278 7 -8.7332e-05C2.95477 1.18744 0.139076 5.62308 0 9.99991C0.877483 10.3961 2.52419 10.7272 4 10.9999C4.5373 11.0995 4.40567 10.9263 5 10.9999ZM0 10.9999C0.916504 11.3403 1.79834 11.7779 3 11.9999C3.65036 12.1194 4.2796 11.9163 5 11.9999C5.1741 14.1082 5.4487 16.4909 6 17.9999C6.20711 18.5663 6.73986 19.537 7 19.9999C5.14835 19.4544 3.25647 18.4589 2 16.9999C0.743526 15.541 0.257933 12.9039 0 10.9999ZM15 11.9999C15.7204 11.9163 16.3506 12.1204 17 11.9999C18.2017 11.7789 19.0835 11.3413 20 10.9999C19.7421 12.9043 19.2569 15.5407 18 16.9999C16.7431 18.4591 14.8522 19.4546 13 19.9999C13.2611 19.537 13.7929 18.5653 14 17.9999C14.5523 16.4899 14.8269 14.1082 15 11.9999ZM20 9.99991C19.1225 10.3961 17.4758 10.7272 16 10.9999C15.4627 11.0995 15.5933 10.9263 15 10.9999C15.01 10.6814 15 10.3244 15 9.99991C15 6.91214 14.7614 4.08232 14 1.99991C13.8085 1.46487 13.2747 0.497782 13 -8.7332e-05C17.0462 1.18744 19.8599 5.62308 20 9.99991Z" fill="white"/>
</g>
</g>
</g>
<defs>
<clipPath id="clip0_453_11326">
<rect width="20" height="20" fill="white"/>
</clipPath>
</defs>
</svg>
