<svg xmlns="http://www.w3.org/2000/svg">
  <symbol id="star-icon"  viewBox="0 0 21 20" >
    <path d="M9.20831 0.620635C9.31836 0.431795 9.476 0.275109 9.6655 0.166209C9.855 0.0573086 10.0697 0 10.2883 0C10.5069 0 10.7216 0.0573086 10.9111 0.166209C11.1006 0.275109 11.2583 0.431795 11.3683 0.620635L14.1633 5.41864L19.5913 6.59464C19.8048 6.64103 20.0024 6.74258 20.1645 6.88917C20.3265 7.03575 20.4473 7.22225 20.5148 7.43006C20.5823 7.63787 20.5941 7.85974 20.5491 8.07355C20.5041 8.28737 20.4038 8.48565 20.2583 8.64863L16.5583 12.7896L17.1183 18.3146C17.1404 18.5322 17.105 18.7517 17.0157 18.9513C16.9265 19.151 16.7864 19.3237 16.6094 19.4522C16.4325 19.5807 16.225 19.6606 16.0076 19.6838C15.7901 19.7071 15.5704 19.6729 15.3703 19.5846L10.2883 17.3446L5.20632 19.5846C5.00623 19.6729 4.78651 19.7071 4.56907 19.6838C4.35163 19.6606 4.1441 19.5807 3.96719 19.4522C3.79028 19.3237 3.65018 19.151 3.56088 18.9513C3.47159 18.7517 3.43622 18.5322 3.45832 18.3146L4.01832 12.7896L0.318315 8.64964C0.172543 8.48666 0.0720706 8.2883 0.026929 8.07435C-0.0182127 7.86041 -0.00644447 7.63837 0.0610588 7.43039C0.128562 7.22242 0.249439 7.03579 0.411621 6.88913C0.573804 6.74248 0.771618 6.64093 0.985315 6.59464L6.41332 5.41864L9.20831 0.620635Z" />
  </symbol>
  
  <symbol id="filter-icon">
    <path fill-rule="evenodd" clip-rule="evenodd" d="M13 12C14.306 12 15.418 12.835 15.83 14H17C17.2652 14 17.5196 14.1054 17.7071 14.2929C17.8946 14.4804 18 14.7348 18 15C18 15.2652 17.8946 15.5196 17.7071 15.7071C17.5196 15.8946 17.2652 16 17 16H15.83C15.6234 16.5855 15.2403 17.0926 14.7334 17.4512C14.2265 17.8099 13.6209 18.0025 13 18.0025C12.3791 18.0025 11.7735 17.8099 11.2666 17.4512C10.7597 17.0926 10.3766 16.5855 10.17 16H1C0.734784 16 0.48043 15.8946 0.292893 15.7071C0.105357 15.5196 0 15.2652 0 15C0 14.7348 0.105357 14.4804 0.292893 14.2929C0.48043 14.1054 0.734784 14 1 14H10.17C10.377 13.4149 10.7603 12.9084 11.2671 12.5502C11.774 12.1921 12.3794 11.9998 13 12ZM13 14C12.7348 14 12.4804 14.1054 12.2929 14.2929C12.1054 14.4804 12 14.7348 12 15C12 15.2652 12.1054 15.5196 12.2929 15.7071C12.4804 15.8946 12.7348 16 13 16C13.2652 16 13.5196 15.8946 13.7071 15.7071C13.8946 15.5196 14 15.2652 14 15C14 14.7348 13.8946 14.4804 13.7071 14.2929C13.5196 14.1054 13.2652 14 13 14ZM5 6C5.58899 5.99992 6.16497 6.17322 6.65613 6.49829C7.14729 6.82336 7.5319 7.28582 7.762 7.828L7.829 8H17C17.2549 8.00028 17.5 8.09788 17.6854 8.27285C17.8707 8.44782 17.9822 8.68695 17.9972 8.94139C18.0121 9.19584 17.9293 9.44638 17.7657 9.64183C17.6021 9.83729 17.3701 9.9629 17.117 9.993L17 10H7.83C7.6284 10.5703 7.25917 11.0663 6.77073 11.4231C6.28229 11.7799 5.69744 11.9808 5.09285 11.9994C4.48827 12.018 3.89217 11.8534 3.38273 11.5273C2.87328 11.2012 2.47427 10.7288 2.238 10.172L2.17 10H1C0.74512 9.99972 0.499968 9.90212 0.314632 9.72715C0.129296 9.55218 0.017765 9.31305 0.00282788 9.05861C-0.0121092 8.80416 0.0706746 8.55362 0.234265 8.35817C0.397855 8.16271 0.629904 8.0371 0.883 8.007L1 8H2.17C2.37701 7.41493 2.76032 6.90842 3.26715 6.55024C3.77397 6.19206 4.37938 5.99982 5 6ZM5 8C4.73478 8 4.48043 8.10536 4.29289 8.29289C4.10536 8.48043 4 8.73478 4 9C4 9.26522 4.10536 9.51957 4.29289 9.70711C4.48043 9.89464 4.73478 10 5 10C5.26522 10 5.51957 9.89464 5.70711 9.70711C5.89464 9.51957 6 9.26522 6 9C6 8.73478 5.89464 8.48043 5.70711 8.29289C5.51957 8.10536 5.26522 8 5 8ZM13 1.24966e-07C14.306 1.24966e-07 15.418 0.835 15.83 2H17C17.2652 2 17.5196 2.10536 17.7071 2.29289C17.8946 2.48043 18 2.73478 18 3C18 3.26522 17.8946 3.51957 17.7071 3.70711C17.5196 3.89464 17.2652 4 17 4H15.83C15.6234 4.58553 15.2403 5.09257 14.7334 5.45121C14.2265 5.80985 13.6209 6.00245 13 6.00245C12.3791 6.00245 11.7735 5.80985 11.2666 5.45121C10.7597 5.09257 10.3766 4.58553 10.17 4H1C0.734784 4 0.48043 3.89464 0.292893 3.70711C0.105357 3.51957 0 3.26522 0 3C0 2.73478 0.105357 2.48043 0.292893 2.29289C0.48043 2.10536 0.734784 2 1 2H10.17C10.377 1.41493 10.7603 0.908421 11.2671 0.55024C11.774 0.192059 12.3794 -0.000178928 13 1.24966e-07ZM13 2C12.7348 2 12.4804 2.10536 12.2929 2.29289C12.1054 2.48043 12 2.73478 12 3C12 3.26522 12.1054 3.51957 12.2929 3.70711C12.4804 3.89464 12.7348 4 13 4C13.2652 4 13.5196 3.89464 13.7071 3.70711C13.8946 3.51957 14 3.26522 14 3C14 2.73478 13.8946 2.48043 13.7071 2.29289C13.5196 2.10536 13.2652 2 13 2Z" />
  </symbol>
  
  <symbol id="warning-icon" viewBox="0 0 23 21">
    <path d="M11.1854 6V12M11.1854 20C6.63819 20 4.36461 20 3.05028 19.0451C1.90387 18.2122 1.16472 16.9319 1.0166 15.5226C0.846783 13.9069 1.98357 11.938 4.25716 8C6.53074 4.06204 7.66753 2.09306 9.15168 1.43227C10.4462 0.855909 11.9245 0.855909 13.219 1.43227C14.7032 2.09306 15.84 4.06204 18.1136 8C20.3871 11.938 21.5239 13.9069 21.3541 15.5226C21.206 16.9319 20.4669 18.2122 19.3204 19.0451C18.0061 20 15.7325 20 11.1854 20Z" stroke="#F15C5C" stroke-width="1.5" stroke-linecap="round"/>
    <path d="M11.6855 15C11.6855 15.2761 11.4617 15.5 11.1855 15.5C10.9094 15.5 10.6855 15.2761 10.6855 15C10.6855 14.7239 10.9094 14.5 11.1855 14.5C11.4617 14.5 11.6855 14.7239 11.6855 15Z" fill="#2D264B" stroke="#F15C5C"/>
  </symbol>
  
  <symbol id="form-valid-icon" viewBox="0 0 18 12">
    <path d="M17 0.843018L11.6093 7.31183C9.47319 9.87519 8.40512 11.1569 7 11.1569C5.59488 11.1569 4.52681 9.87519 2.39067 7.31182L1 5.64302" stroke="#69BC00" stroke-width="1.5" stroke-linecap="round"/>
  </symbol>

  <symbol id="search-icon"  viewBox="0 0 20 20">
    <path fill-rule="evenodd" clip-rule="evenodd" d="M8.49928 1.91687e-08C7.14387 0.000115492 5.80814 0.324364 4.60353 0.945694C3.39893 1.56702 2.36037 2.46742 1.57451 3.57175C0.788656 4.67609 0.278287 5.95235 0.0859852 7.29404C-0.106316 8.63574 0.0250263 10.004 0.469055 11.2846C0.913084 12.5652 1.65692 13.7211 2.63851 14.6557C3.6201 15.5904 4.81098 16.2768 6.11179 16.6576C7.4126 17.0384 8.78562 17.1026 10.1163 16.8449C11.447 16.5872 12.6967 16.015 13.7613 15.176L17.4133 18.828C17.6019 19.0102 17.8545 19.111 18.1167 19.1087C18.3789 19.1064 18.6297 19.0012 18.8151 18.8158C19.0005 18.6304 19.1057 18.3796 19.108 18.1174C19.1102 17.8552 19.0094 17.6026 18.8273 17.414L15.1753 13.762C16.1633 12.5086 16.7784 11.0024 16.9504 9.41573C17.1223 7.82905 16.8441 6.22602 16.1475 4.79009C15.4509 3.35417 14.3642 2.14336 13.0116 1.29623C11.659 0.449106 10.0952 -0.000107143 8.49928 1.91687e-08ZM1.99928 8.5C1.99928 6.77609 2.6841 5.12279 3.90308 3.90381C5.12207 2.68482 6.77537 2 8.49928 2C10.2232 2 11.8765 2.68482 13.0955 3.90381C14.3145 5.12279 14.9993 6.77609 14.9993 8.5C14.9993 10.2239 14.3145 11.8772 13.0955 13.0962C11.8765 14.3152 10.2232 15 8.49928 15C6.77537 15 5.12207 14.3152 3.90308 13.0962C2.6841 11.8772 1.99928 10.2239 1.99928 8.5Z" />
  </symbol>

  <symbol id="account-icon" viewBox="0 0 18 20">
    <path fill-rule="evenodd" clip-rule="evenodd" d="M13 12C14.2885 12.0001 15.5272 12.4975 16.4578 13.3887C17.3884 14.2798 17.9391 15.4958 17.995 16.783L18 17V18C18.0002 18.5046 17.8096 18.9906 17.4665 19.3605C17.1234 19.7305 16.6532 19.9572 16.15 19.995L16 20H2C1.49542 20.0002 1.00943 19.8096 0.639452 19.4665C0.269471 19.1234 0.0428433 18.6532 0.00500011 18.15L0 18V17C7.44425e-05 15.7115 0.497542 14.4728 1.38866 13.5422C2.27978 12.6116 3.49575 12.0609 4.783 12.005L5 12H13ZM13 14H5C4.23479 14 3.49849 14.2923 2.94174 14.8173C2.38499 15.3422 2.04989 16.0601 2.005 16.824L2 17V18H16V17C16 16.2348 15.7077 15.4985 15.1827 14.9417C14.6578 14.385 13.9399 14.0499 13.176 14.005L13 14ZM9 0C10.3261 0 11.5979 0.526784 12.5355 1.46447C13.4732 2.40215 14 3.67392 14 5C14 6.32608 13.4732 7.59785 12.5355 8.53553C11.5979 9.47322 10.3261 10 9 10C7.67392 10 6.40215 9.47322 5.46447 8.53553C4.52678 7.59785 4 6.32608 4 5C4 3.67392 4.52678 2.40215 5.46447 1.46447C6.40215 0.526784 7.67392 0 9 0ZM9 2C8.60603 2 8.21593 2.0776 7.85195 2.22836C7.48797 2.37913 7.15726 2.6001 6.87868 2.87868C6.6001 3.15726 6.37913 3.48797 6.22836 3.85195C6.0776 4.21593 6 4.60603 6 5C6 5.39397 6.0776 5.78407 6.22836 6.14805C6.37913 6.51203 6.6001 6.84274 6.87868 7.12132C7.15726 7.3999 7.48797 7.62087 7.85195 7.77164C8.21593 7.9224 8.60603 8 9 8C9.79565 8 10.5587 7.68393 11.1213 7.12132C11.6839 6.55871 12 5.79565 12 5C12 4.20435 11.6839 3.44129 11.1213 2.87868C10.5587 2.31607 9.79565 2 9 2Z" />
  </symbol>

  <symbol id="compare-icon" viewBox="0 0 18 18">
    <path fill-rule="evenodd" clip-rule="evenodd" d="M8 2C8 1.46957 7.78929 0.960859 7.41421 0.585786C7.03914 0.210714 6.53043 0 6 0H2C1.46957 0 0.960859 0.210714 0.585786 0.585786C0.210714 0.960859 0 1.46957 0 2V6C0 6.53043 0.210714 7.03914 0.585786 7.41421C0.960859 7.78929 1.46957 8 2 8H6C6.53043 8 7.03914 7.78929 7.41421 7.41421C7.78929 7.03914 8 6.53043 8 6V2ZM2 2H6V6H2V2ZM18 2C18 1.46957 17.7893 0.960859 17.4142 0.585786C17.0391 0.210714 16.5304 0 16 0H12C11.4696 0 10.9609 0.210714 10.5858 0.585786C10.2107 0.960859 10 1.46957 10 2V6C10 6.53043 10.2107 7.03914 10.5858 7.41421C10.9609 7.78929 11.4696 8 12 8H16C16.5304 8 17.0391 7.78929 17.4142 7.41421C17.7893 7.03914 18 6.53043 18 6V2ZM12 2H16V6H12V2ZM6 10C6.53043 10 7.03914 10.2107 7.41421 10.5858C7.78929 10.9609 8 11.4696 8 12V16C8 16.5304 7.78929 17.0391 7.41421 17.4142C7.03914 17.7893 6.53043 18 6 18H2C1.46957 18 0.960859 17.7893 0.585786 17.4142C0.210714 17.0391 0 16.5304 0 16V12C0 11.4696 0.210714 10.9609 0.585786 10.5858C0.960859 10.2107 1.46957 10 2 10H6ZM6 12H2V16H6V12ZM10 14C10 13.7348 10.1054 13.4804 10.2929 13.2929C10.4804 13.1054 10.7348 13 11 13H13V11C13 10.7348 13.1054 10.4804 13.2929 10.2929C13.4804 10.1054 13.7348 10 14 10C14.2652 10 14.5196 10.1054 14.7071 10.2929C14.8946 10.4804 15 10.7348 15 11V13H17C17.2652 13 17.5196 13.1054 17.7071 13.2929C17.8946 13.4804 18 13.7348 18 14C18 14.2652 17.8946 14.5196 17.7071 14.7071C17.5196 14.8946 17.2652 15 17 15H15V17C15 17.2652 14.8946 17.5196 14.7071 17.7071C14.5196 17.8946 14.2652 18 14 18C13.7348 18 13.4804 17.8946 13.2929 17.7071C13.1054 17.5196 13 17.2652 13 17V15H11C10.7348 15 10.4804 14.8946 10.2929 14.7071C10.1054 14.5196 10 14.2652 10 14Z" />
  </symbol>

  <symbol id="favorite-icon" viewBox="0 0 20 18">
    <path fill-rule="evenodd" clip-rule="evenodd" d="M16.4941 0.801034C18.5891 2.02203 20.0631 4.50103 19.9981 7.39303C19.9171 11.003 17.1081 14.187 12.3191 17.031C11.6091 17.453 10.8611 18 10.0001 18C9.15507 18 8.37507 17.443 7.68007 17.03C2.89307 14.187 0.0830677 11.002 0.00206769 7.39303C-0.0629323 4.50103 1.41107 2.02303 3.50607 0.801034C5.46607 -0.339966 7.92807 -0.346966 10.0001 1.33803C12.0721 -0.346966 14.5341 -0.340966 16.4941 0.801034ZM15.4871 2.53003C14.0931 1.71803 12.3511 1.74703 10.8431 3.27303C10.7326 3.38424 10.6013 3.4725 10.4566 3.53272C10.3119 3.59295 10.1568 3.62396 10.0001 3.62396C9.84335 3.62396 9.68819 3.59295 9.54351 3.53272C9.39883 3.4725 9.26749 3.38424 9.15707 3.27303C7.64907 1.74703 5.90707 1.71803 4.51307 2.53003C3.06907 3.37203 1.95307 5.15803 2.00207 7.35003C2.05807 9.86103 4.04207 12.544 8.70207 15.312C9.11007 15.555 9.53607 15.866 10.0001 15.995C10.4641 15.866 10.8901 15.555 11.2981 15.312C15.9581 12.544 17.9421 9.86203 17.9981 7.34903C18.0481 5.15903 16.9311 3.37203 15.4871 2.53003Z" />
  </symbol>

  <symbol id="basket-icon" viewBox="0 0 16 20">
    <path d="M8 0C8.90102 7.75892e-05 9.77566 0.304209 10.4823 0.86317C11.189 1.42213 11.6864 2.20321 11.894 3.08C13.0461 3.28976 14.088 3.89708 14.8383 4.79613C15.5886 5.69519 15.9997 6.82899 16 8V17C16 17.7956 15.6839 18.5587 15.1213 19.1213C14.5587 19.6839 13.7956 20 13 20H3C2.20435 20 1.44129 19.6839 0.87868 19.1213C0.316071 18.5587 3.28384e-08 17.7956 3.28384e-08 17V8C-0.000134128 6.82889 0.41082 5.69488 1.1612 4.79574C1.91157 3.89661 2.95376 3.2894 4.106 3.08C4.31358 2.20321 4.81097 1.42213 5.51765 0.86317C6.22434 0.304209 7.09898 7.75892e-05 8 0ZM11 5H5C4.23479 4.99996 3.49849 5.29233 2.94174 5.81728C2.38499 6.34224 2.04989 7.06011 2.005 7.824L2 8V17C2.00003 17.2449 2.08996 17.4813 2.25272 17.6644C2.41547 17.8474 2.63975 17.9643 2.883 17.993L3 18H4V13C3.99984 12.4954 4.19041 12.0094 4.5335 11.6395C4.87659 11.2695 5.34685 11.0428 5.85 11.005L6 11H10C10.5046 10.9998 10.9906 11.1904 11.3605 11.5335C11.7305 11.8766 11.9572 12.3468 11.995 12.85L12 13V18H13C13.2449 18 13.4813 17.91 13.6644 17.7473C13.8474 17.5845 13.9643 17.3603 13.993 17.117L14 17V8C14 7.23479 13.7077 6.49849 13.1827 5.94174C12.6578 5.38499 11.9399 5.04989 11.176 5.005L11 5ZM10 16H6V18H10V16ZM10 13H6V14H10V13ZM9 7C9.26522 7 9.51957 7.10536 9.70711 7.29289C9.89464 7.48043 10 7.73478 10 8C10 8.26522 9.89464 8.51957 9.70711 8.70711C9.51957 8.89464 9.26522 9 9 9H7C6.73478 9 6.48043 8.89464 6.29289 8.70711C6.10536 8.51957 6 8.26522 6 8C6 7.73478 6.10536 7.48043 6.29289 7.29289C6.48043 7.10536 6.73478 7 7 7H9ZM8 2C7.317 2 6.713 2.343 6.353 2.866L6.268 3H9.732C9.55647 2.69597 9.304 2.4435 8.99997 2.26796C8.69594 2.09243 8.35106 2.00001 8 2Z" />
  </symbol>
  
  <symbol id="wishlist-icon" viewBox="0 0 20 18">
	<path d="M16.4941 0.801034C18.5891 2.02203 20.0631 4.50103 19.9981 7.39303C19.8601 13.5 11.5001 18 10.0001 18C8.50007 18 0.139068 13.5 0.00206769 7.39303C-0.0629323 4.50103 1.41107 2.02303 3.50607 0.801034C5.46607 -0.339966 7.92807 -0.346966 10.0001 1.33803C12.0721 -0.346966 14.5341 -0.340966 16.4941 0.801034Z" />
  </svg>
</svg>