<svg width="24" height="24" viewBox="0 0 24 24" fill="none" xmlns="http://www.w3.org/2000/svg">
<path d="M13.03 1.86998L2.04 0.19998C1.53 0.11998 1.01 0.25998 0.62 0.58998C0.23 0.92998 0 1.41998 0 1.92998V23C0 23.55 0.45 24 1 24H4.25V18.75C4.25 17.78 5.03 17 6 17H8.5C9.47 17 10.25 17.78 10.25 18.75V24H14.5V3.59998C14.5 2.73998 13.88 2.00998 13.03 1.86998ZM5.5 14.75H4C3.80109 14.75 3.61032 14.671 3.46967 14.5303C3.32902 14.3897 3.25 14.1989 3.25 14C3.25 13.8011 3.32902 13.6103 3.46967 13.4697C3.61032 13.329 3.80109 13.25 4 13.25H5.5C5.69891 13.25 5.88968 13.329 6.03033 13.4697C6.17098 13.6103 6.25 13.8011 6.25 14C6.25 14.1989 6.17098 14.3897 6.03033 14.5303C5.88968 14.671 5.69891 14.75 5.5 14.75ZM5.5 11.75H4C3.80109 11.75 3.61032 11.671 3.46967 11.5303C3.32902 11.3897 3.25 11.1989 3.25 11C3.25 10.8011 3.32902 10.6103 3.46967 10.4697C3.61032 10.329 3.80109 10.25 4 10.25H5.5C5.69891 10.25 5.88968 10.329 6.03033 10.4697C6.17098 10.6103 6.25 10.8011 6.25 11C6.25 11.1989 6.17098 11.3897 6.03033 11.5303C5.88968 11.671 5.69891 11.75 5.5 11.75ZM5.5 8.74998H4C3.80109 8.74998 3.61032 8.67096 3.46967 8.53031C3.32902 8.38966 3.25 8.19889 3.25 7.99998C3.25 7.80107 3.32902 7.6103 3.46967 7.46965C3.61032 7.329 3.80109 7.24998 4 7.24998H5.5C5.69891 7.24998 5.88968 7.329 6.03033 7.46965C6.17098 7.6103 6.25 7.80107 6.25 7.99998C6.25 8.19889 6.17098 8.38966 6.03033 8.53031C5.88968 8.67096 5.69891 8.74998 5.5 8.74998ZM5.5 5.74998H4C3.80109 5.74998 3.61032 5.67096 3.46967 5.53031C3.32902 5.38966 3.25 5.19889 3.25 4.99998C3.25 4.80107 3.32902 4.6103 3.46967 4.46965C3.61032 4.329 3.80109 4.24998 4 4.24998H5.5C5.69891 4.24998 5.88968 4.329 6.03033 4.46965C6.17098 4.6103 6.25 4.80107 6.25 4.99998C6.25 5.19889 6.17098 5.38966 6.03033 5.53031C5.88968 5.67096 5.69891 5.74998 5.5 5.74998ZM10.5 14.75H9C8.80109 14.75 8.61032 14.671 8.46967 14.5303C8.32902 14.3897 8.25 14.1989 8.25 14C8.25 13.8011 8.32902 13.6103 8.46967 13.4697C8.61032 13.329 8.80109 13.25 9 13.25H10.5C10.6989 13.25 10.8897 13.329 11.0303 13.4697C11.171 13.6103 11.25 13.8011 11.25 14C11.25 14.1989 11.171 14.3897 11.0303 14.5303C10.8897 14.671 10.6989 14.75 10.5 14.75ZM10.5 11.75H9C8.80109 11.75 8.61032 11.671 8.46967 11.5303C8.32902 11.3897 8.25 11.1989 8.25 11C8.25 10.8011 8.32902 10.6103 8.46967 10.4697C8.61032 10.329 8.80109 10.25 9 10.25H10.5C10.6989 10.25 10.8897 10.329 11.0303 10.4697C11.171 10.6103 11.25 10.8011 11.25 11C11.25 11.1989 11.171 11.3897 11.0303 11.5303C10.8897 11.671 10.6989 11.75 10.5 11.75ZM10.5 8.74998H9C8.80109 8.74998 8.61032 8.67096 8.46967 8.53031C8.32902 8.38966 8.25 8.19889 8.25 7.99998C8.25 7.80107 8.32902 7.6103 8.46967 7.46965C8.61032 7.329 8.80109 7.24998 9 7.24998H10.5C10.6989 7.24998 10.8897 7.329 11.0303 7.46965C11.171 7.6103 11.25 7.80107 11.25 7.99998C11.25 8.19889 11.171 8.38966 11.0303 8.53031C10.8897 8.67096 10.6989 8.74998 10.5 8.74998ZM10.5 5.74998H9C8.80109 5.74998 8.61032 5.67096 8.46967 5.53031C8.32902 5.38966 8.25 5.19889 8.25 4.99998C8.25 4.80107 8.32902 4.6103 8.46967 4.46965C8.61032 4.329 8.80109 4.24998 9 4.24998H10.5C10.6989 4.24998 10.8897 4.329 11.0303 4.46965C11.171 4.6103 11.25 4.80107 11.25 4.99998C11.25 5.19889 11.171 5.38966 11.0303 5.53031C10.8897 5.67096 10.6989 5.74998 10.5 5.74998ZM22.62 10.842L15.5 9.35098V24H22.25C23.215 24 24 23.215 24 22.25V12.552C24 11.726 23.437 11.023 22.62 10.842ZM20.25 21H18.75C18.5511 21 18.3603 20.921 18.2197 20.7803C18.079 20.6397 18 20.4489 18 20.25C18 20.0511 18.079 19.8603 18.2197 19.7197C18.3603 19.579 18.5511 19.5 18.75 19.5H20.25C20.4489 19.5 20.6397 19.579 20.7803 19.7197C20.921 19.8603 21 20.0511 21 20.25C21 20.4489 20.921 20.6397 20.7803 20.7803C20.6397 20.921 20.4489 21 20.25 21ZM20.25 18H18.75C18.5511 18 18.3603 17.921 18.2197 17.7803C18.079 17.6397 18 17.4489 18 17.25C18 17.0511 18.079 16.8603 18.2197 16.7197C18.3603 16.579 18.5511 16.5 18.75 16.5H20.25C20.4489 16.5 20.6397 16.579 20.7803 16.7197C20.921 16.8603 21 17.0511 21 17.25C21 17.4489 20.921 17.6397 20.7803 17.7803C20.6397 17.921 20.4489 18 20.25 18ZM20.25 15H18.75C18.5511 15 18.3603 14.921 18.2197 14.7803C18.079 14.6397 18 14.4489 18 14.25C18 14.0511 18.079 13.8603 18.2197 13.7197C18.3603 13.579 18.5511 13.5 18.75 13.5H20.25C20.4489 13.5 20.6397 13.579 20.7803 13.7197C20.921 13.8603 21 14.0511 21 14.25C21 14.4489 20.921 14.6397 20.7803 14.7803C20.6397 14.921 20.4489 15 20.25 15Z" fill="url(#paint0_linear_50_15443)"/>
<defs>
<linearGradient id="paint0_linear_50_15443" x1="5.18488" y1="22.1152" x2="16.897" y2="2.02999" gradientUnits="userSpaceOnUse">
<stop stop-color="#00AAE3"/>
<stop offset="1" stop-color="#58C3BD"/>
</linearGradient>
</defs>
</svg>
