<svg width="25" height="25" viewBox="0 0 25 25" fill="none" xmlns="http://www.w3.org/2000/svg">
<path d="M21.6045 12H19.5614C19.3487 12 19.5034 11.7356 19.3745 11.2584C19.1037 10.2523 18.0725 9.65899 17.067 9.92985C16.2033 10.1556 15.6168 10.9746 15.6748 11.8646C15.6748 11.942 15.6168 12 15.5459 12H13.5027C13.2256 12 13 11.7743 13 11.5034V9.45907C13 9.2398 13.2707 9.39458 13.7412 9.2656C14.7467 9.00118 15.3461 7.96933 15.0754 6.95683C14.8434 6.09266 14.0313 5.51224 13.1354 5.56383C13.0645 5.57028 13 5.51224 13 5.43485V3.3905C13 3.11319 13.2256 2.88747 13.5027 2.88747H15.4299C15.6104 1.36549 17.299 0.520664 18.6268 1.2881C19.2198 1.6299 19.6 2.21677 19.6838 2.89392H21.6045C21.8817 2.89392 22.1073 3.11964 22.1073 3.3905V5.31877C23.6348 5.49934 24.4792 7.189 23.7122 8.5175C23.3706 9.11082 22.784 9.49131 22.1073 9.57515V11.5034C22.1073 11.7743 21.8817 12 21.6045 12Z" fill="url(#paint0_linear_50_14916)"/>
<path d="M21.6045 24H19.5614C19.3487 24 19.5034 23.7356 19.3745 23.2584C19.1037 22.2523 18.0725 21.659 17.067 21.9299C16.2033 22.1556 15.6168 22.9746 15.6748 23.8646C15.6748 23.942 15.6168 24 15.5459 24H13.5027C13.2256 24 13 23.7743 13 23.5034V21.4591C13 21.2398 13.2707 21.3946 13.7412 21.2656C14.7467 21.0012 15.3461 19.9693 15.0754 18.9568C14.8434 18.0927 14.0313 17.5122 13.1354 17.5638C13.0645 17.5703 13 17.5122 13 17.4349V15.3905C13 15.1132 13.2256 14.8875 13.5027 14.8875H15.4299C15.6104 13.3655 17.299 12.5207 18.6268 13.2881C19.2198 13.6299 19.6 14.2168 19.6838 14.8939H21.6045C21.8817 14.8939 22.1073 15.1196 22.1073 15.3905V17.3188C23.6348 17.4993 24.4792 19.189 23.7122 20.5175C23.3706 21.1108 22.784 21.4913 22.1073 21.5752V23.5034C22.1073 23.7743 21.8817 24 21.6045 24Z" fill="url(#paint1_linear_50_14916)"/>
<path d="M9.60454 24H7.56137C7.34867 24 7.50336 23.7356 7.37445 23.2584C7.10375 22.2523 6.07249 21.659 5.06702 21.9299C4.20334 22.1556 3.61681 22.9746 3.67482 23.8646C3.67482 23.942 3.61681 24 3.54591 24H1.50274C1.22559 24 1 23.7743 1 23.5034V21.4591C1 21.2398 1.2707 21.3946 1.74122 21.2656C2.74669 21.0012 3.34611 19.9693 3.0754 18.9568C2.84337 18.0927 2.03126 17.5122 1.13535 17.5638C1.06445 17.5703 1 17.5122 1 17.4349V15.3905C1 15.1132 1.22559 14.8875 1.50274 14.8875H3.4299C3.61037 13.3655 5.29905 12.5207 6.62679 13.2881C7.21976 13.6299 7.60004 14.2168 7.68383 14.8939H9.60454C9.88169 14.8939 10.1073 15.1196 10.1073 15.3905V17.3188C11.6348 17.4993 12.4792 19.189 11.7122 20.5175C11.3706 21.1108 10.784 21.4913 10.1073 21.5752V23.5034C10.1073 23.7743 9.88169 24 9.60454 24Z" fill="url(#paint2_linear_50_14916)"/>
<defs>
<linearGradient id="paint0_linear_50_14916" x1="15.3764" y1="11.1297" x2="20.8043" y2="1.89035" gradientUnits="userSpaceOnUse">
<stop stop-color="#00AAE3"/>
<stop offset="1" stop-color="#58C3BD"/>
</linearGradient>
<linearGradient id="paint1_linear_50_14916" x1="15.3764" y1="23.1297" x2="20.8043" y2="13.8903" gradientUnits="userSpaceOnUse">
<stop stop-color="#00AAE3"/>
<stop offset="1" stop-color="#58C3BD"/>
</linearGradient>
<linearGradient id="paint2_linear_50_14916" x1="3.3764" y1="23.1297" x2="8.80434" y2="13.8903" gradientUnits="userSpaceOnUse">
<stop stop-color="#00AAE3"/>
<stop offset="1" stop-color="#58C3BD"/>
</linearGradient>
</defs>
</svg>
