<svg width="25" height="25" viewBox="0 0 25 25" fill="none" xmlns="http://www.w3.org/2000/svg">
<g clip-path="url(#clip0_50_14398)">
<path d="M19.3563 24.7352H14.7601C14.2816 24.7352 14.6296 24.1407 14.3396 23.0678C13.7307 20.8059 11.4108 19.472 9.14894 20.0809C7.20606 20.5884 5.88664 22.4298 6.01714 24.4307C6.01714 24.6047 5.88664 24.7352 5.72715 24.7352H1.13093C0.507469 24.7352 0 24.2277 0 23.6187V19.0225C0 18.5295 0.608963 18.8775 1.6674 18.5875C3.92926 17.9931 5.27768 15.6732 4.66872 13.3968C4.14675 11.454 2.31986 10.149 0.304482 10.265C0.144991 10.2795 0 10.149 0 9.97506V5.37884C0 4.75537 0.507469 4.2479 1.13093 4.2479H5.46617C5.87214 0.826112 9.67091 -1.07327 12.6577 0.652122C13.9917 1.42058 14.8471 2.74 15.0356 4.2624H19.3563C19.9798 4.2624 20.4873 4.76987 20.4873 5.37884V9.71407C23.9235 10.12 25.8229 13.9188 24.0975 16.9056C23.3291 18.2396 22.0097 19.095 20.4873 19.2835V23.6187C20.4873 24.2277 19.9798 24.7352 19.3563 24.7352Z" fill="url(#paint0_linear_50_14398)"/>
</g>
<defs>
<linearGradient id="paint0_linear_50_14398" x1="5.34583" y1="22.7785" x2="17.5458" y2="1.99998" gradientUnits="userSpaceOnUse">
<stop stop-color="#00AAE3"/>
<stop offset="1" stop-color="#58C3BD"/>
</linearGradient>
<clipPath id="clip0_50_14398">
<rect width="24.75" height="24.75" fill="white"/>
</clipPath>
</defs>
</svg>
