<svg width="44" height="44" fill="none" xmlns="http://www.w3.org/2000/svg"><g clip-path="url(#clip0)" fill="#FF7029"><path d="M34.774 27.256c-.9-.938-1.987-1.439-3.139-1.439-1.142 0-2.238.492-3.176 1.43l-2.934 2.925c-.242-.13-.483-.25-.715-.371a11.75 11.75 0 01-.92-.492c-2.749-1.746-5.247-4.021-7.643-6.965-1.16-1.467-1.94-2.703-2.507-3.956.761-.697 1.467-1.421 2.154-2.118.26-.26.52-.529.78-.789 1.95-1.95 1.95-4.476 0-6.426L14.14 6.52c-.288-.288-.585-.585-.863-.883A43.87 43.87 0 0011.53 3.91c-.901-.891-1.978-1.365-3.111-1.365-1.133 0-2.229.474-3.158 1.365l-.018.019-3.158 3.185A6.794 6.794 0 00.07 11.432c-.223 2.712.576 5.238 1.189 6.89 1.504 4.059 3.752 7.82 7.104 11.85 4.068 4.857 8.962 8.692 14.552 11.395 2.136 1.012 4.987 2.21 8.172 2.414.195.01.4.019.585.019 2.145 0 3.947-.77 5.359-2.303.009-.019.027-.028.037-.047.483-.584 1.04-1.114 1.625-1.68.4-.381.808-.78 1.207-1.198.92-.957 1.402-2.071 1.402-3.213 0-1.152-.492-2.257-1.43-3.186l-5.098-5.117zm3.324 9.78c-.009 0-.009.008 0 0-.362.39-.733.742-1.133 1.132-.603.576-1.216 1.18-1.792 1.857-.938 1.003-2.043 1.477-3.492 1.477-.139 0-.287 0-.427-.01-2.758-.176-5.32-1.253-7.243-2.172-5.256-2.545-9.872-6.157-13.707-10.736C7.137 24.768 5.02 21.24 3.618 17.45c-.864-2.313-1.18-4.114-1.04-5.813a4.263 4.263 0 011.281-2.759l3.167-3.166c.455-.427.938-.66 1.411-.66.585 0 1.059.353 1.356.65l.028.028a46.92 46.92 0 011.672 1.663c.287.297.585.594.882.9l2.535 2.536c.984.984.984 1.894 0 2.878-.27.27-.53.539-.799.8a48.542 48.542 0 01-2.33 2.265c-.02.019-.038.028-.047.046-.799.799-.65 1.58-.483 2.108l.028.084c.66 1.597 1.588 3.102 3 4.894l.009.01c2.563 3.157 5.265 5.618 8.246 7.503.381.241.771.436 1.143.622.334.167.65.325.919.492.037.019.074.047.111.065.316.158.613.232.92.232.77 0 1.253-.483 1.411-.64l3.176-3.176c.316-.316.817-.697 1.402-.697.576 0 1.05.362 1.338.678l.018.019 5.117 5.116c.957.948.957 1.923.01 2.907zm-14.319-26.57c2.433.41 4.643 1.56 6.407 3.325a11.837 11.837 0 013.325 6.408c.102.613.631 1.04 1.235 1.04.074 0 .14-.01.214-.019a1.255 1.255 0 001.03-1.448 14.323 14.323 0 00-4.02-7.755 14.323 14.323 0 00-7.755-4.02 1.26 1.26 0 00-1.449 1.02 1.24 1.24 0 001.013 1.45zm20.17 8.944c-.827-4.848-3.111-9.26-6.621-12.77-3.51-3.51-7.922-5.794-12.77-6.62a1.249 1.249 0 00-1.439 1.02 1.26 1.26 0 001.031 1.45c4.328.733 8.274 2.785 11.413 5.915 3.14 3.139 5.182 7.085 5.916 11.413.102.613.631 1.04 1.235 1.04.074 0 .14-.01.213-.019a1.23 1.23 0 001.022-1.43z"/></g><defs><clipPath id="clip0"><path fill="#fff" d="M0 0h44v44H0z"/></clipPath></defs></svg>