<svg width="44" height="44" fill="none" xmlns="http://www.w3.org/2000/svg"><g clip-path="url(#clip0)" fill="#FF7029"><path d="M10.532 23.925a1.96 1.96 0 00-1.959 1.958 1.96 1.96 0 001.959 1.959 1.96 1.96 0 001.958-1.959 1.96 1.96 0 00-1.958-1.958zm0 2.625a.668.668 0 11.001-1.335.668.668 0 01-.001 1.335zm17.718 9.829a.645.645 0 00-.614-.447h-3.837l-1.185-3.648a.652.652 0 00-.614-.447.652.652 0 00-.614.447L20.2 35.932h-3.836a.646.646 0 00-.38 1.168l3.104 2.255-1.185 3.649a.651.651 0 00.214.706.652.652 0 00.78.015L22 41.471l3.103 2.254c.243.177.584.16.808-.04a.65.65 0 00.186-.681l-1.186-3.649 3.104-2.255a.645.645 0 00.235-.721zm-4.477 2.207a.646.646 0 00-.235.722l.716 2.204-1.875-1.362a.651.651 0 00-.759 0l-1.875 1.362.716-2.204a.646.646 0 00-.234-.722l-1.875-1.362h2.317c.28 0 .528-.18.615-.447L22 34.573l.716 2.204a.646.646 0 00.614.447h2.318l-1.875 1.362zm20.195-2.207a.646.646 0 00-.614-.447h-3.836l-1.185-3.648a.652.652 0 00-.615-.446.652.652 0 00-.614.446l-1.185 3.648h-3.836a.646.646 0 00-.38 1.168l3.104 2.255-1.186 3.649a.651.651 0 00.215.706.652.652 0 00.779.016l3.103-2.255 3.104 2.255a.651.651 0 00.808-.04.65.65 0 00.185-.682l-1.185-3.649 3.103-2.254a.645.645 0 00.235-.722zm-4.477 2.207a.645.645 0 00-.234.722l.716 2.204-1.875-1.362a.646.646 0 00-.76 0l-1.874 1.362.716-2.204a.646.646 0 00-.235-.722l-1.875-1.362h2.318c.28 0 .528-.18.614-.446l.716-2.205.717 2.205a.646.646 0 00.614.446h2.318l-1.875 1.362zm-26.96-2.207a.646.646 0 00-.614-.447H8.081l-1.185-3.648a.646.646 0 00-1.229 0l-1.185 3.648H.646a.646.646 0 00-.38 1.168l3.104 2.255-1.186 3.649a.646.646 0 00.994.721l3.103-2.254 3.104 2.254c.242.177.584.16.808-.04a.65.65 0 00.185-.681l-1.185-3.649 3.103-2.255a.645.645 0 00.235-.721zm-4.477 2.207a.646.646 0 00-.234.722l.716 2.204-1.875-1.362a.651.651 0 00-.76 0l-1.874 1.362.716-2.204a.646.646 0 00-.235-.722l-1.875-1.362h2.318c.28 0 .528-.18.614-.447l.716-2.204.716 2.204a.646.646 0 00.615.447h2.317l-1.875 1.362z"/><path d="M38.772 16.25a2.922 2.922 0 001.095-2.28 2.93 2.93 0 00-2.927-2.926H26.553c.322-.704.695-1.777.908-3.268.495-3.464-.253-5.302-.967-6.235-.605-.79-1.417-1.266-2.35-1.38a1.376 1.376 0 00-1.525 1.318c-.12 1.242-.563 4.65-1.197 5.917-1.627 3.255-5.508 5.196-6.706 5.733a2.384 2.384 0 00-1.56-.579h-5.25a2.398 2.398 0 00-2.395 2.396V28.07a2.398 2.398 0 002.396 2.396h5.25a2.39 2.39 0 001.781-.796c.682.43 1.782.91 3.301.91h16.877a2.93 2.93 0 002.926-2.927c0-.74-.276-1.416-.73-1.932a2.93 2.93 0 001.642-2.63 2.91 2.91 0 00-.73-1.931 2.93 2.93 0 001.643-2.63c0-.92-.428-1.744-1.095-2.28zM13.157 29.176h-5.25a1.105 1.105 0 01-1.105-1.104V14.946c0-.61.496-1.104 1.105-1.104h5.25a1.1 1.1 0 01.787.332v14.4c0 .078.014.154.04.225-.202.23-.497.376-.827.376zm21.07-12.279h2.714a1.636 1.636 0 010 3.27h-2.714a.646.646 0 000 1.292h1.801c.902 0 1.635.733 1.635 1.634 0 .902-.733 1.635-1.635 1.635h-2.296a.646.646 0 000 1.292h1.384c.901 0 1.635.733 1.635 1.635 0 .901-.733 1.634-1.635 1.634H18.24c-1.332 0-2.236-.446-2.727-.781.026-.142.04-.287.04-.436V14.946a2.41 2.41 0 00-.111-.725c1.513-.694 5.387-2.747 7.137-6.247.875-1.75 1.311-6.208 1.33-6.397a.67.67 0 00.002-.062c0-.022.009-.04.025-.055a.064.064 0 01.053-.017c.405.05.99.243 1.48.884.565.736 1.146 2.247.715 5.267-.366 2.56-1.233 3.68-1.238 3.686-.339.414-.034 1.055.5 1.055H36.94a1.636 1.636 0 010 3.27h-2.714a.646.646 0 100 1.291z"/></g><defs><clipPath id="clip0"><path fill="#fff" d="M0 0h44v44H0z"/></clipPath></defs></svg>