<svg width="44" height="44" fill="none" xmlns="http://www.w3.org/2000/svg"><path d="M42.832 15.1L28.899 1.167A3.966 3.966 0 0026.075.001c-1.07 0-2.072.414-2.824 1.166L1.166 23.252A3.967 3.967 0 000 26.075c0 1.069.414 2.072 1.166 2.824l1.718 1.718.001.001 11.547 11.547h-1.599a.917.917 0 000 1.833h18.333a.917.917 0 000-1.833h-9.751l21.417-21.418a3.999 3.999 0 000-5.648zm-1.296 4.352L19.45 41.537a2.145 2.145 0 01-1.524.629h-.008a2.141 2.141 0 01-1.524-.63L4.83 29.97 26.04 8.761a.917.917 0 00-1.297-1.296l-21.21 21.21-1.07-1.071a2.145 2.145 0 01-.629-1.528c0-.58.224-1.122.63-1.528L24.547 2.463a2.148 2.148 0 011.528-.629c.58 0 1.122.224 1.528.63l4.959 4.958-21.21 21.21a.917.917 0 001.297 1.296l21.21-21.21 7.677 7.678a2.164 2.164 0 010 3.056z" fill="#FF7029"/><path d="M22.584 26.474a.917.917 0 00-1.296 0l-7.213 7.213a.917.917 0 001.296 1.297l7.213-7.213a.917.917 0 000-1.297zm-2.958 6.848l-2.959 2.958a.917.917 0 001.297 1.296l2.958-2.958a.917.917 0 00-1.296-1.296zm2.722-2.722l-.389.388a.917.917 0 001.297 1.297l.388-.39a.916.916 0 10-1.296-1.296zm12.635-16.524a.916.916 0 00-1.296 0l-3.89 3.89a.917.917 0 000 1.295l2.593 2.593a.914.914 0 001.297 0l3.888-3.889a.917.917 0 000-1.296l-2.592-2.593zm-1.945 5.834l-1.296-1.297 2.593-2.592 1.296 1.296-2.593 2.593zM27.53 6.891c.234 0 .468-.09.647-.269l.39-.389a.917.917 0 10-1.297-1.296l-.39.39a.917.917 0 00.65 1.564zM9.214 30.77l-.39.39a.917.917 0 001.297 1.296l.39-.39a.917.917 0 00-1.297-1.295z" fill="#FF7029"/></svg>