<svg width="44" height="44" fill="none" xmlns="http://www.w3.org/2000/svg"><path d="M7.36 8.602a.702.702 0 00.703-.703V1.404h27.874V7.9a.702.702 0 101.404 0V.702A.702.702 0 0036.64 0H7.361a.702.702 0 00-.702.702V7.9c0 .388.314.703.702.703z" fill="#FF7029"/><path d="M37.341 27.17v-8.973a.702.702 0 10-1.404 0v8.91h-2.264V16.09h5.775a.702.702 0 00.702-.702v-4.681a.702.702 0 00-.702-.702h-5.775V7.9a.702.702 0 00-.702-.703H11.029a.702.702 0 00-.702.703v2.106H4.552a.702.702 0 00-.702.702v4.68c0 .389.315.703.702.703h5.775v11.015H8.063v-8.909a.702.702 0 10-1.404 0v8.972a3.984 3.984 0 00-3.277 3.916v7.441c0 .388.315.703.702.703h.234v4.069c0 .388.315.702.703.702h6.008a.702.702 0 00.703-.702v-1.963a.702.702 0 00-1.405 0v1.26H5.723V39.23h32.554v3.367h-4.604v-1.261a.702.702 0 00-1.405 0v1.963c0 .388.315.702.703.702h6.008a.702.702 0 00.703-.702v-4.07h.234a.702.702 0 00.702-.702v-7.441a3.984 3.984 0 00-3.277-3.916zm-.702 1.34a2.577 2.577 0 012.575 2.575v2.995h-5.541v-5.57h2.966zm2.575 9.314H4.786v-2.34h34.428v2.34zM11.732 16.091h20.537V34.08H11.732V16.09zm27.014-1.404H37.34V11.41h1.405v3.277zm-2.809-3.277v3.277h-2.264V11.41h2.264zm-3.668 3.277h-9.567V8.602h9.567v6.085zM11.732 8.602h9.566v6.085h-9.566V8.602zm-1.405 6.085H8.063V11.41h2.264v3.277zM5.255 11.41h1.404v3.277H5.255V11.41zm2.106 17.1h2.966v5.57h-5.54v-2.995A2.577 2.577 0 017.36 28.51z" fill="#FF7029"/><path d="M13.838 24.25h16.324a.702.702 0 00.702-.702 3.983 3.983 0 00-3.979-3.979h-9.77a3.983 3.983 0 00-3.98 3.979c0 .388.315.702.703.702zm3.277-3.277h9.77c1.177 0 2.171.793 2.477 1.873H14.638a2.579 2.579 0 012.477-1.873zm13.047 4.681H13.838a.702.702 0 000 1.404h16.324a.702.702 0 100-1.404zm0 2.809H13.838a.702.702 0 000 1.404h16.324a.702.702 0 000-1.404zm0 2.808H13.838a.702.702 0 000 1.404h16.324a.702.702 0 000-1.404z" fill="#FF7029"/></svg>