<svg width="220" height="106" viewBox="0 0 220 106" fill="none" xmlns="http://www.w3.org/2000/svg">
<path d="M67.1052 42.9507H73.2085V50.404H79.7256V42.9507H85.8289V63.4507H79.7243V55.3747H73.2071V63.4507H67.1052V42.9507ZM107.448 42.9507V63.4507H101.552V47.816H97.7251V53.7187C97.7251 56.3067 97.5175 59.62 95.8615 61.38C94.2083 63.4507 91.2079 63.9693 87.7949 63.4507V58.2747C91.0003 58.896 91.8282 57.6533 91.8282 53.6147V42.9507H107.448V42.9507ZM112.517 42.9507H118.62L122.034 55.168L125.447 42.9507H131.55L134.344 63.4507H128.654L127.206 52.476L123.999 63.4507H119.966L116.758 52.476L115.311 63.4507H109.62L112.517 42.9507V42.9507ZM136.619 42.9507H142.723V51.2333L148.619 42.9507H155.343L147.688 53.0973L155.549 63.4507H148.205L142.723 55.168V63.4507H136.619V42.9507ZM110.553 21C74.0364 21 49.9337 34.1493 49.9337 53.6147C49.9337 72.8733 74.0364 86.2293 110.552 86.2293C147.171 86.2293 171.17 72.8733 171.17 53.616C171.066 34.148 147.171 21 110.551 21H110.553ZM110.553 83.2267C76.3126 83.2267 53.4519 71.216 53.4519 53.6147C53.4519 35.8067 76.3126 24.0027 110.553 24.0027C145 24.0027 167.654 35.8067 167.654 53.616C167.654 71.32 144.896 83.2267 110.553 83.2267V83.2267ZM110.553 26.9013C78.2787 26.9013 56.8662 37.6693 56.8662 53.6147C56.8662 69.664 78.3825 80.432 110.553 80.432C142.724 80.432 164.24 69.664 164.24 53.6147C164.24 37.6693 142.724 26.9013 110.553 26.9013V26.9013ZM110.553 79.8107C78.7952 79.8107 57.4865 69.2493 57.4865 53.6147C57.4865 37.98 78.7952 27.42 110.553 27.42C142.31 27.42 163.62 37.98 163.62 53.6147C163.62 69.2493 142.309 79.8107 110.552 79.8107H110.553Z" fill="white"/>
</svg>
