<svg width="220" height="106" viewBox="0 0 220 106" fill="none" xmlns="http://www.w3.org/2000/svg">
<g clip-path="url(#clip0_30_567)">
<path fill-rule="evenodd" clip-rule="evenodd" d="M107.588 28.0122C112.09 28.0122 116.509 28.0131 121.006 28.0131L128.579 44.6348L136.15 28C140.678 28 145.127 28.0122 149.658 28.0122V53.141H142.622V35.0003H140.608L132.409 53.1393H124.745L116.547 35.0003H114.625V53.141H107.588C107.588 44.763 107.576 36.4068 107.576 28.0401H107.588V28.0122ZM153.439 28.0183H160.494V37.309H164.574L174.55 28.0183H184.999L170.622 40.4964L184.92 53.1594H174.473L164.574 43.8765H160.494V53.1594H153.438V28.0183H153.439ZM35.023 46.2201C39.6303 46.2184 54.5501 46.2184 59.0648 46.221C59.1635 46.2262 59.2614 46.2201 59.3585 46.1975C60.0243 46.0884 60.5341 45.5143 60.5341 44.8258L60.527 41.4518C55.1833 41.4526 47.5986 41.4526 42.3846 41.4518C42.2664 41.4518 42.1491 41.4509 42.0309 41.4509C38.4538 41.4509 35.4851 38.7836 35.0565 35.358C34.9921 34.9724 34.993 34.5701 35.0106 34.1819L35.0142 28.0811H42.284L42.2867 32.6131C42.2867 32.8033 42.2876 32.9978 42.2955 33.1881C42.3105 33.9637 42.9878 34.5963 43.7622 34.5562C48.2424 34.5544 55.7804 34.5544 60.5129 34.5562L60.4997 28.0428H67.7925L67.7837 45.8484C67.7978 46.1669 67.7907 46.7088 67.7378 47.0237C67.3092 50.4493 64.3414 53.1166 60.7634 53.1166C60.6452 53.1166 60.527 53.1175 60.4097 53.1175C55.1763 53.1183 40.2564 53.1192 35.023 53.1183V46.2201ZM71.815 53.1166H79.0743L79.084 36.7925C79.0849 36.4312 79.0584 36.0325 79.2286 35.7001C79.4623 35.2411 79.9457 34.9174 80.4845 34.9174C80.5101 34.9174 80.5348 34.9183 80.5595 34.92C85.0583 34.9218 99.9905 34.9226 104.587 34.9209V28.0175C99.3581 28.0166 84.41 28.0166 79.1819 28.0183C79.1272 28.0183 79.0725 28.0201 79.0178 28.0227C78.9552 28.0209 78.8917 28.0192 78.8282 28.0192C75.2493 28.0192 72.2807 30.6883 71.8521 34.1182C71.8221 34.2979 71.8062 34.4759 71.8062 34.6513V34.6644C71.8018 34.7673 71.7983 34.8703 71.7983 34.9741C71.7983 35.0814 71.8009 35.1879 71.8062 35.2935L71.815 53.1166Z" fill="white"/>
<path fill-rule="evenodd" clip-rule="evenodd" d="M161.057 69.2558L161.059 72.8428C161.059 72.9824 161.054 73.1185 161.061 73.2581C161.075 73.9832 161.709 74.5817 162.434 74.5451C166.929 74.5434 172.594 74.5434 177.09 74.5451C177.827 74.5512 178.46 73.9858 178.46 73.2389L178.46 72.4379H184.994L184.995 74.1952C185.022 74.7946 184.969 75.3365 184.832 75.9193C184.227 78.5073 182.059 80.556 179.377 80.9338C178.961 80.9922 178.545 80.9992 178.126 80.9992C172.529 81.0009 166.933 81.0009 161.336 80.9992C160.737 80.9992 160.153 80.9704 159.566 80.8395C156.906 80.2418 154.85 78.0265 154.509 75.2955C154.45 74.936 154.45 74.5599 154.467 74.1952L154.47 69.2567L154.467 64.5468C154.451 64.1873 154.45 63.8025 154.509 63.4465C154.862 60.6161 157.058 58.3379 159.861 57.8432C160.351 57.7568 160.84 57.7419 161.336 57.7419C166.933 57.7411 172.529 57.7411 178.126 57.7419C178.468 57.7419 178.809 57.7437 179.149 57.7795C182.023 58.0831 184.353 60.2478 184.886 63.0312C184.982 63.5338 184.998 63.9962 184.994 64.5468L184.993 66.1618H178.46L178.459 65.5031C178.459 65.2064 178.361 64.9351 178.191 64.7161C177.939 64.3897 177.503 64.1899 177.089 64.196C172.594 64.1978 166.929 64.1978 162.433 64.196C162.347 64.1917 162.264 64.1969 162.18 64.2144C161.564 64.3007 161.089 64.8173 161.061 65.435C161.056 65.5581 161.059 65.6846 161.059 65.8085L161.057 69.2558ZM124.251 57.6887L131.299 73.0862L138.34 57.707H150.969V80.98H144.403V64.1463H142.525L134.874 80.9783H127.722L120.072 64.1463H118.278V80.98H111.712C111.712 73.2058 111.701 65.4455 111.701 57.6826L124.251 57.6887ZM81.5869 57.6887L88.6345 73.0862L95.6759 57.707H108.305V80.98H101.739V64.1463H99.8608L92.2099 80.9783H85.0582L77.4074 64.1463H75.6135V80.98H69.0474C69.0474 73.2058 69.0369 65.4455 69.0369 57.6826L81.5869 57.6887ZM35.0124 57.6896H41.5952L41.5837 72.978C41.5608 73.759 41.9709 74.5189 42.9578 74.5643C47.4539 74.5626 53.1169 74.5626 57.613 74.5643C58.3433 74.6027 58.9827 73.9858 58.9827 73.266L58.9898 57.6852H65.5258L65.5347 74.2162C65.5435 74.4116 65.5435 74.6062 65.5355 74.8016V74.8138C65.5355 74.977 65.5205 75.1428 65.4923 75.3103C65.0928 78.4985 62.3279 80.9809 58.9959 80.9809C53.1795 80.9809 47.3631 80.9809 41.5476 80.9809C38.2147 80.9809 35.4507 78.4985 35.0512 75.3103C35.023 75.1428 35.008 74.977 35.008 74.8138V74.8016C34.9991 74.6062 34.9991 74.4116 35.008 74.2162C35.0071 74.2162 35.0124 57.6896 35.0124 57.6896Z" fill="white"/>
</g>
<defs>
<clipPath id="clip0_30_567">
<rect width="150" height="53" fill="white" transform="translate(35 28)"/>
</clipPath>
</defs>
</svg>
