<svg width="228" height="106" viewBox="0 0 228 106" fill="none" xmlns="http://www.w3.org/2000/svg">
<path d="M65.6972 68.2928V37.8572H87.6214V43.6175H72.3983V48.9478H87.5459V54.7081H72.3968V62.3598H87.5459V68.1202H65.6972V68.2928ZM118.987 37.8572L107.643 68.2928H100.563L89.9075 37.8572H96.9121L104.22 58.4908L112.134 37.8572H118.984H118.987ZM147.078 68.2928H138.853L131.317 57.1159H128.88V68.2928H122.184V37.8572H132.993C134.515 37.8572 135.809 37.9435 136.875 38.2009C138.017 38.3735 139.008 38.8884 139.921 39.4911C140.906 40.1591 141.694 41.0794 142.204 42.1562C142.737 43.1875 143.042 44.5639 143.042 46.1963C143.042 48.5177 142.585 50.4091 141.671 51.8719C140.758 53.3332 139.541 54.4507 137.941 55.3093L147.077 68.2928H147.078ZM136.191 46.2827C136.191 45.5104 136.04 44.8214 135.811 44.305C135.584 43.7901 135.127 43.3601 134.517 43.0163C134.061 42.8437 133.603 42.6726 133.07 42.5863C132.537 42.5 131.929 42.5 131.168 42.5H128.883V50.7528H130.786C131.701 50.7528 132.537 50.668 133.147 50.5817C133.831 50.4091 134.364 50.1517 134.822 49.7216C135.278 49.3779 135.583 48.8615 135.811 48.3466C136.116 47.8318 136.191 47.1428 136.191 46.2827V46.2827ZM149.132 68.2943L158.191 37.8587H165.575L174.634 68.2943H167.707L166.032 62.1039H157.581L155.907 68.2943H149.132V68.2943ZM164.509 56.5162L161.768 46.4568L159.028 56.5162H164.509ZM200.821 68.2928H178.136V62.6188L192.6 43.7038H178.136V37.8572H200.821V43.6175L186.358 62.4461H200.821V68.2943V68.2928Z" fill="white"/>
<path d="M55.9536 37.8572H27.1788V45.8526H55.9536V37.8572Z" fill="white"/>
<path d="M55.9536 49.0342H27.1788V57.0296H55.9536V49.0342Z" fill="white"/>
<path d="M55.9536 60.2974H27.1788V68.2928H55.9536V60.2974Z" fill="white"/>
</svg>
