<svg width="622" height="384" viewBox="0 0 622 384" fill="none" xmlns="http://www.w3.org/2000/svg">
<g clip-path="url(#clip0_59_4398)">
<path d="M0.00530741 1.63337C0.480099 1.58745 -0.85238 23.3187 5.04422 61.8441C13.7617 116.302 34.1874 168.224 64.9139 214.032C103.204 271.625 171.713 332.328 258.975 363.168C304.419 379.353 349.711 384.396 397.916 382.5C447.754 379.783 497.12 361.114 537.063 326.094C577.367 291.504 603.894 243.892 613.803 194.987C618.314 170.493 620.519 145.592 616.223 121.932C612.109 98.7147 602.35 76.8633 587.805 58.3C559.608 21.7419 517.202 3.43164 476.485 3.30152C457.455 2.86796 437.348 7.5276 421.742 18.4206C406.136 29.3135 394.409 44.8938 388.262 62.9004C382.902 79.2199 381.37 96.634 386.922 111.285C389.483 118.171 393.391 124.478 398.417 129.837C403.444 135.197 409.489 139.502 416.198 142.5C428.696 147.782 442.603 149.236 453.27 144.031C458.134 141.74 462.385 138.331 465.678 134.083C468.971 129.836 471.211 124.869 472.216 119.59C474.452 110.037 470.73 100.974 464.681 96.5728C458.784 91.98 451.7 91.3141 447.014 93.0517C445.226 93.7796 443.62 94.8891 442.306 96.3025C440.993 97.7159 440.004 99.3991 439.409 101.234C439.048 102.503 438.805 103.802 438.682 105.115C438.689 103.785 438.885 102.463 439.264 101.188C439.839 99.3067 440.824 97.5757 442.148 96.1198C443.472 94.6639 445.102 93.5194 446.922 92.7684C451.731 90.9314 458.922 91.582 464.987 96.213C471.19 100.645 475.065 109.991 472.821 119.697C471.823 125.084 469.561 130.158 466.221 134.503C462.881 138.847 458.558 142.338 453.607 144.689C442.679 150.047 428.566 148.593 415.877 143.265C409.041 140.24 402.879 135.882 397.751 130.446C392.622 125.009 388.631 118.604 386.011 111.606C380.344 96.6646 381.837 79.0515 387.236 62.533C393.431 44.2781 405.286 28.4722 421.08 17.4108C436.874 6.34931 457.219 1.58739 476.5 2.00024C517.585 2.10741 560.42 20.5478 588.9 57.435C603.607 76.1676 613.479 98.2276 617.648 121.672C622.005 145.608 619.784 170.661 615.258 195.286C605.303 244.505 578.615 292.437 538.051 327.25C497.855 362.499 448.144 381.283 398 384C349.599 385.885 304.116 380.785 258.5 364.5C170.939 333.461 102.269 272.467 64.0179 214.629C33.2937 168.668 12.967 116.562 4.45456 61.9436C-1.26591 23.3187 0.265677 1.58745 0.00530741 1.63337Z" fill="url(#paint0_linear_59_4398)"/>
</g>
<defs>
<linearGradient id="paint0_linear_59_4398" x1="-58.463" y1="368.064" x2="639.273" y2="-62.1437" gradientUnits="userSpaceOnUse">
<stop stop-color="#FFF3D1"/>
<stop offset="0.26" stop-color="#FCD462"/>
<stop offset="0.4" stop-color="#FFF3D1"/>
<stop offset="0.59" stop-color="#E9C154"/>
<stop offset="0.79" stop-color="#FFF3D1"/>
<stop offset="1" stop-color="#C48B00"/>
</linearGradient>
<clipPath id="clip0_59_4398">
<rect width="622" height="384" fill="white"/>
</clipPath>
</defs>
</svg>
