<svg width="619" height="383" viewBox="0 0 619 383" fill="none" xmlns="http://www.w3.org/2000/svg">
<path d="M614.609 3.36468L619 0.649995L618.595 0L614.204 2.71468L614.609 3.36468ZM604.198 9.79581L610.7 5.77349L610.302 5.12349L603.792 9.1764L604.198 9.79581ZM593.787 16.2346L600.296 12.2352L599.891 11.5852L593.389 15.6075L593.787 16.2346ZM583.375 22.6657L589.885 18.6434L589.48 17.9934L582.978 22.0157L583.375 22.6657ZM572.964 29.1045L579.474 25.0822L579.084 24.4704L572.582 28.4851L572.964 29.1045ZM562.56 35.5356L569.063 31.5133L568.657 30.8633L562.155 34.8856L562.56 35.5356ZM552.149 41.9667L558.651 37.9521L558.254 37.2944L551.744 41.2938L552.149 41.9667ZM541.738 48.4055L548.24 44.3832L547.842 43.7332L541.332 47.7555L541.738 48.4055ZM531.327 54.8366L537.829 50.8143L537.431 50.1643L530.891 54.1866L531.327 54.8366ZM520.946 61.2754L527.456 57.2531L527.05 56.6031L520.54 60.6254L520.946 61.2754ZM510.535 67.7065L517.045 63.6842L516.639 63.0342L510.137 67.0565L510.535 67.7065ZM500.093 74.1759L506.603 70.1536L506.197 69.5036L499.695 73.5259L500.093 74.1759ZM489.682 80.607L496.191 76.5847L495.786 75.9347L489.284 79.957L489.682 80.607ZM479.278 87.0458L485.78 83.0235L485.375 82.3735L478.872 86.3882L479.278 87.0458ZM468.867 93.4769L475.369 89.4546L474.971 88.8046L468.461 92.8269L468.867 93.4769ZM458.455 99.908L464.958 95.8934L464.56 95.2434L458.05 99.2581L458.455 99.908ZM448.044 106.293L454.546 102.271L454.149 101.621L447.639 105.643L448.044 106.293ZM437.633 112.724L444.143 108.702L443.737 108.052L437.235 112.074L437.633 112.724ZM427.222 119.163L433.739 115.164L433.334 114.514L426.854 118.528L427.222 119.163ZM416.81 125.594L423.32 121.572L422.915 120.922L416.412 124.944L416.81 125.594ZM406.399 132.033L412.909 128.011L412.503 127.361L406.001 131.383L406.399 132.033ZM395.995 138.464L402.498 134.442L402.1 133.792L395.59 137.814L395.995 138.464ZM385.584 144.903L392.086 140.881L391.689 140.231L385.179 144.253L385.584 144.903ZM375.173 151.334L381.675 147.312L381.277 146.662L374.767 150.684L375.173 151.334ZM364.762 157.765L371.271 153.751L370.866 153.101L364.356 157.115L364.762 157.765ZM354.35 164.204L360.86 160.182L360.455 159.532L353.953 163.554L354.35 164.204ZM343.939 170.635L350.449 166.613L350.044 165.963L343.541 169.985L343.939 170.635ZM333.528 177.097L340.038 173.075L339.632 172.425L333.13 176.447L333.528 177.097ZM323.124 183.528L329.626 179.506L329.221 178.856L322.719 182.878L323.124 183.528ZM312.713 189.967L319.215 185.944L318.817 185.294L312.307 189.317L312.713 189.967ZM302.302 196.398L308.804 192.376L308.406 191.726L301.896 195.763L302.302 196.398ZM291.89 202.837L298.393 198.814L297.995 198.164L291.454 202.179L291.89 202.837ZM281.51 209.268L288.02 205.245L287.614 204.595L281.104 208.618L281.51 209.268ZM271.098 215.699L277.608 211.684L277.203 211.034L270.701 215.049L271.098 215.699ZM260.687 222.138L267.197 218.115L266.792 217.465L260.289 221.488L260.687 222.138ZM250.276 228.569L256.786 224.547L256.38 223.897L249.878 227.919L250.276 228.569ZM239.872 235.008L246.375 230.985L245.977 230.335L239.436 234.358L239.872 235.008ZM229.461 241.439L235.963 237.416L235.565 236.766L229.056 240.789L229.461 241.439ZM219.05 247.877L225.552 243.855L225.154 243.205L218.644 247.227L219.05 247.877ZM208.638 254.309L215.148 250.286L214.743 249.636L208.233 253.659L208.638 254.309ZM198.197 260.763L204.707 256.74L204.301 256.09L197.799 260.113L198.197 260.763ZM187.785 267.194L194.295 263.171L193.89 262.521L187.388 266.544L187.785 267.194ZM177.374 273.633L183.884 269.61L183.479 268.953L176.976 272.975L177.374 273.633ZM166.97 280.064L173.473 276.041L173.067 275.391L166.565 279.414L166.97 280.064ZM156.559 286.495L163.061 282.473L162.664 281.823L156.154 285.845L156.559 286.495ZM146.148 292.934L152.65 288.911L152.252 288.261L145.742 292.284L146.148 292.934ZM135.737 299.365L142.239 295.342L141.841 294.692L135.331 298.715L135.737 299.365ZM125.325 305.804L131.835 301.781L131.43 301.131L124.92 305.115L125.325 305.804ZM114.914 312.235L121.424 308.212L121.019 307.562L114.516 311.585L114.914 312.235ZM104.503 318.673L111.013 314.651L110.607 314.001L104.105 318.016L104.503 318.673ZM94.0916 325.089L100.601 321.067L100.211 320.409L93.7091 324.432L94.0916 325.089ZM83.6879 331.52L90.1902 327.506L89.7924 326.856L83.2825 330.87L83.6879 331.52ZM73.2767 337.997L79.7789 333.975L79.3811 333.325L72.8712 337.347L73.2767 337.997ZM62.8654 344.429L69.3677 340.406L68.9699 339.756L62.46 343.779L62.8654 344.429ZM52.4541 350.867L58.964 346.845L58.5586 346.195L52.0181 350.179L52.4541 350.867ZM42.0735 357.26L48.5834 353.238L48.1779 352.588L41.668 356.61L42.0735 357.26ZM31.6622 363.699L38.1721 359.677L37.7667 359.027L31.2644 363.049L31.6622 363.699ZM21.2203 370.115L27.7302 366.092L27.3248 365.442L20.8225 369.465L21.2203 370.115ZM10.8091 376.554L17.319 372.531L16.9135 371.881L10.4113 375.904L10.8091 376.554ZM0.405435 383L6.88475 378.978L6.48696 378.328L0 382.35L0.405435 383Z" fill="url(#paint0_linear_59_4414)"/>
<defs>
<linearGradient id="paint0_linear_59_4414" x1="-35.1352" y1="403.83" x2="661.878" y2="-25.9077" gradientUnits="userSpaceOnUse">
<stop stop-color="#FFF0C8"/>
<stop offset="0.26" stop-color="#FDD973"/>
<stop offset="0.4" stop-color="#FFF0C8"/>
<stop offset="0.59" stop-color="#E9C154"/>
<stop offset="0.79" stop-color="#FFF0C8"/>
<stop offset="1" stop-color="#C48B00"/>
</linearGradient>
</defs>
</svg>
