<svg width="237" height="383" viewBox="0 0 237 383" fill="none" xmlns="http://www.w3.org/2000/svg">
<path d="M232.316 376.471L236.347 383L237 382.601L232.969 376.072L232.316 376.471ZM225.866 366.028L229.905 372.557L230.558 372.151L226.519 365.621L225.866 366.028ZM219.417 355.578L223.448 362.107L224.1 361.708L220.069 355.179L219.417 355.578ZM212.951 345.15L216.99 351.68L217.643 351.273L213.581 344.728L212.951 345.15ZM206.502 334.7L210.533 341.23L211.185 340.831L207.154 334.301L206.502 334.7ZM200.044 324.258L204.083 330.787L204.736 330.38L200.704 323.851L200.044 324.258ZM193.617 313.792L197.648 320.321L198.301 319.922L194.27 313.393L193.617 313.792ZM187.167 303.349L191.199 309.879L191.851 309.472L187.797 302.95L187.167 303.349ZM180.71 292.899L184.741 299.429L185.401 299.03L181.332 292.5L180.71 292.899ZM174.26 282.456L178.261 288.986L178.913 288.579L174.882 282.05L174.26 282.456ZM167.803 272.006L171.842 278.536L172.494 278.137L168.455 271.607L167.803 272.006ZM161.368 261.564L165.399 268.093L166.052 267.686L162.021 261.157L161.368 261.564ZM154.911 251.113L158.911 257.681L159.564 257.282L155.533 250.753L154.911 251.113ZM148.461 240.671L152.492 247.2L153.145 246.794L149.083 240.264L148.461 240.671ZM142.011 230.228L146.042 236.75L146.695 236.351L142.664 229.821L142.011 230.228ZM135.554 219.778L139.585 226.307L140.237 225.901L136.206 219.371L135.554 219.778ZM129.065 209.343L133.097 215.872L133.726 215.481L129.695 208.952L129.065 209.343ZM122.608 198.9L126.639 205.43L127.299 205.023L123.261 198.501L122.608 198.9ZM116.158 188.458L120.189 194.987L120.842 194.581L116.834 188.036L116.158 188.458ZM109.701 178.008L113.739 184.537L114.392 184.13L110.353 177.609L109.701 178.008ZM103.251 167.565L107.282 174.094L107.935 173.688L103.903 167.143L103.251 167.565ZM96.7933 157.115L100.832 163.644L101.485 163.237L97.446 156.716L96.7933 157.115ZM90.3435 146.672L94.3746 153.202L95.0273 152.795L90.9961 146.265L90.3435 146.672ZM83.8937 136.222L87.9248 142.751L88.5775 142.345L84.5463 135.823L83.8937 136.222ZM77.4362 125.779L81.4673 132.309L82.12 131.902L78.0888 125.373L77.4362 125.779ZM70.9863 115.329L75.0175 121.858L75.6702 121.459L71.639 114.93L70.9863 115.329ZM64.5289 104.886L68.56 111.416L69.2203 111.009L65.1815 104.48L64.5289 104.886ZM58.079 94.436L62.1102 100.966L62.7629 100.567L58.7317 94.0371L58.079 94.436ZM51.6216 83.9934L55.6604 90.523L56.313 90.1163L52.2742 83.5868L51.6216 83.9934ZM45.1717 73.5355L49.2029 80.065L49.8556 79.666L45.8244 73.1365L45.1717 73.5355ZM38.7143 63.0929L42.7531 69.6224L43.4057 69.2158L39.3746 62.6863L38.7143 63.0929ZM32.2644 52.6426L36.2956 59.1721L36.9482 58.7732L32.9171 52.2437L32.2644 52.6426ZM25.807 42.2001L29.8458 48.7296L30.4984 48.3229L26.4673 41.7934L25.807 42.2001ZM19.3571 31.7498L23.3883 38.2409L24.0409 37.8419L20.0098 31.3355L19.3571 31.7498ZM12.9073 21.3072L16.9385 27.8367L17.5911 27.43L13.56 20.9005L12.9073 21.3072ZM6.44981 10.8493L10.4809 17.3787L11.1413 16.9798L7.10248 10.4503L6.44981 10.8493ZM0 0.406655L4.03113 6.93615L4.6838 6.5295L0.652665 0L0 0.406655Z" fill="url(#paint0_linear_59_4416)"/>
<defs>
<linearGradient id="paint0_linear_59_4416" x1="0.12297" y1="-0.122881" x2="237.131" y2="390.19" gradientUnits="userSpaceOnUse">
<stop stop-color="#FFF0C8"/>
<stop offset="0.26" stop-color="#FDD973"/>
<stop offset="0.4" stop-color="#FFF0C8"/>
<stop offset="0.59" stop-color="#FDD973"/>
<stop offset="0.79" stop-color="white"/>
<stop offset="1" stop-color="#C48B00"/>
</linearGradient>
</defs>
</svg>
