<svg width="50" height="50" viewBox="0 0 50 50" fill="none" xmlns="http://www.w3.org/2000/svg">
<g clip-path="url(#clip0_220_6048)">
<g clip-path="url(#clip1_220_6048)">
<path d="M49.9216 14.2815L25.7549 0.114802C25.6303 0.0416704 25.4888 0.00221669 25.3443 0.000316207C25.1998 -0.00158428 25.0573 0.0341338 24.9308 0.103962L0.764111 13.4374C0.633573 13.5092 0.524717 13.6147 0.448923 13.743C0.373129 13.8712 0.33318 14.0175 0.333252 14.1665V49.1665C0.333214 49.2759 0.354741 49.3843 0.396605 49.4854C0.438469 49.5865 0.499848 49.6784 0.577234 49.7558C0.654621 49.8332 0.746499 49.8945 0.847617 49.9364C0.948735 49.9783 1.05711 49.9998 1.16655 49.9998H5.33325C5.44269 49.9998 5.55107 49.9783 5.65219 49.9364C5.75331 49.8945 5.84518 49.8332 5.92257 49.7558C5.99996 49.6784 6.06134 49.5865 6.1032 49.4854C6.14506 49.3843 6.16659 49.2759 6.16655 49.1665V19.9999H44.4999V49.1666C44.4997 49.276 44.5212 49.3844 44.5631 49.4856C44.6049 49.5867 44.6663 49.6786 44.7437 49.756C44.8211 49.8334 44.913 49.8948 45.0141 49.9366C45.1153 49.9785 45.2237 50 45.3332 49.9999H49.4999C49.6093 50 49.7177 49.9785 49.8189 49.9366C49.92 49.8948 50.0119 49.8334 50.0893 49.756C50.1667 49.6786 50.2281 49.5867 50.2699 49.4856C50.3118 49.3844 50.3333 49.276 50.3332 49.1666V14.9999C50.3333 14.8546 50.2953 14.7119 50.2231 14.5858C50.1509 14.4598 50.047 14.3549 49.9216 14.2815ZM48.6666 48.3332H46.1666V19.1665C46.1666 19.057 46.1451 18.9486 46.1032 18.8475C46.0613 18.7464 46 18.6545 45.9226 18.5771C45.8452 18.4998 45.7533 18.4384 45.6522 18.3965C45.5511 18.3546 45.4427 18.3331 45.3333 18.3332H5.33325C5.11227 18.3332 4.90036 18.4211 4.74411 18.5773C4.58785 18.7336 4.50003 18.9455 4.49995 19.1665V48.3332H1.99995V14.6582L25.3208 1.79146L48.6666 15.4773V48.3332Z" fill="#15C3EE"/>
<path d="M42 38.333H32C31.8906 38.3329 31.7822 38.3544 31.681 38.3962C31.5799 38.4381 31.488 38.4994 31.4106 38.5768C31.3332 38.6542 31.2718 38.7462 31.23 38.8473C31.1881 38.9484 31.1666 39.0568 31.1667 39.1663V49.1663C31.1666 49.2758 31.1881 49.3842 31.23 49.4853C31.2718 49.5865 31.3332 49.6784 31.4106 49.7558C31.488 49.8332 31.5799 49.8945 31.681 49.9364C31.7822 49.9782 31.8906 49.9997 32 49.9996H42C42.1095 49.9997 42.2179 49.9782 42.3191 49.9364C42.4202 49.8945 42.5121 49.8332 42.5895 49.7558C42.6669 49.6784 42.7283 49.5865 42.7701 49.4853C42.812 49.3842 42.8335 49.2758 42.8334 49.1663V39.1663C42.8335 39.0568 42.812 38.9484 42.7701 38.8473C42.7283 38.7462 42.6669 38.6542 42.5895 38.5768C42.5121 38.4994 42.4202 38.4381 42.3191 38.3962C42.2179 38.3544 42.1095 38.3329 42 38.333ZM41.1666 48.333H32.8333V39.9997H41.1666V48.333Z" fill="#15C3EE"/>
<path d="M37.8333 39.1663V41.6663H36.1667V39.1663H34.5V42.4996C34.4998 42.6091 34.5213 42.7175 34.5632 42.8186C34.605 42.9198 34.6664 43.0117 34.7438 43.0891C34.8212 43.1665 34.9131 43.2278 35.0142 43.2697C35.1154 43.3115 35.2238 43.333 35.3333 43.3329H38.6666C38.776 43.333 38.8844 43.3115 38.9856 43.2697C39.0867 43.2278 39.1786 43.1665 39.256 43.0891C39.3334 43.0117 39.3948 42.9198 39.4366 42.8186C39.4785 42.7175 39.5 42.6091 39.4999 42.4996V39.1663H37.8333ZM32 38.333H22C21.8906 38.333 21.7822 38.3545 21.6811 38.3964C21.58 38.4382 21.4881 38.4996 21.4107 38.577C21.3333 38.6544 21.272 38.7463 21.2301 38.8474C21.1882 38.9485 21.1667 39.0569 21.1667 39.1663V49.1663C21.1667 49.2757 21.1882 49.3841 21.2301 49.4852C21.272 49.5864 21.3333 49.6782 21.4107 49.7556C21.4881 49.833 21.58 49.8944 21.6811 49.9363C21.7822 49.9781 21.8906 49.9996 22 49.9996H32C32.1095 49.9997 32.2179 49.9782 32.3191 49.9364C32.4202 49.8945 32.5121 49.8332 32.5895 49.7558C32.6669 49.6784 32.7283 49.5865 32.7701 49.4853C32.812 49.3842 32.8335 49.2758 32.8333 49.1663V39.1663C32.8335 39.0568 32.812 38.9484 32.7701 38.8473C32.7283 38.7462 32.6669 38.6542 32.5895 38.5768C32.5121 38.4994 32.4202 38.4381 32.3191 38.3962C32.2179 38.3544 32.1095 38.3329 32 38.333ZM31.1667 48.333H22.8333V39.9997H31.1667V48.333Z" fill="#15C3EE"/>
<path d="M27.8332 39.1663V41.6663H26.1665V39.1663H24.4998V42.4996C24.4997 42.609 24.5212 42.7174 24.5631 42.8185C24.605 42.9197 24.6664 43.0115 24.7437 43.0889C24.8211 43.1663 24.913 43.2277 25.0141 43.2696C25.1152 43.3114 25.2236 43.3329 25.3331 43.3329H28.6664C28.7758 43.333 28.8842 43.3115 28.9854 43.2697C29.0865 43.2278 29.1784 43.1665 29.2558 43.0891C29.3332 43.0117 29.3946 42.9198 29.4364 42.8186C29.4783 42.7175 29.4998 42.6091 29.4997 42.4996V39.1663H27.8332ZM41.9999 28.333H31.9999C31.8904 28.3329 31.782 28.3544 31.6808 28.3962C31.5797 28.4381 31.4878 28.4994 31.4104 28.5768C31.333 28.6542 31.2716 28.7461 31.2298 28.8473C31.1879 28.9484 31.1665 29.0568 31.1666 29.1663V39.1663C31.1665 39.2758 31.1879 39.3842 31.2298 39.4853C31.2716 39.5865 31.333 39.6784 31.4104 39.7558C31.4878 39.8332 31.5797 39.8945 31.6808 39.9364C31.782 39.9782 31.8904 39.9997 31.9999 39.9996H41.9999C42.1093 39.9997 42.2177 39.9782 42.3189 39.9364C42.42 39.8945 42.5119 39.8332 42.5893 39.7558C42.6667 39.6784 42.7281 39.5865 42.7699 39.4853C42.8118 39.3842 42.8333 39.2758 42.8332 39.1663V29.1663C42.8333 29.0568 42.8118 28.9484 42.7699 28.8473C42.7281 28.7461 42.6667 28.6542 42.5893 28.5768C42.5119 28.4994 42.42 28.4381 42.3189 28.3962C42.2177 28.3544 42.1093 28.3329 41.9999 28.333ZM41.1665 38.333H32.8332V29.9997H41.1665V38.333Z" fill="#15C3EE"/>
<path d="M37.8333 29.1665V31.6665H36.1666V29.1665H34.4999V32.4998C34.4997 32.6093 34.5212 32.7177 34.5631 32.8188C34.6049 32.92 34.6663 33.0119 34.7437 33.0893C34.8211 33.1667 34.913 33.228 35.0141 33.2699C35.1153 33.3117 35.2237 33.3332 35.3332 33.3331H38.6665C38.7759 33.3332 38.8843 33.3117 38.9855 33.2699C39.0866 33.228 39.1785 33.1667 39.2559 33.0893C39.3333 33.0119 39.3947 32.92 39.4365 32.8188C39.4784 32.7177 39.4999 32.6093 39.4998 32.4998V29.1665H37.8333ZM5.33325 24.9999H45.3332V26.6666H5.33325V24.9999ZM5.33325 21.6665H45.3332V23.3332H5.33325V21.6665ZM29.5 11.6665H21.1667C20.9457 11.6666 20.7338 11.7544 20.5775 11.9107C20.4212 12.0669 20.3334 12.2788 20.3333 12.4998V15.8331C20.3334 16.0541 20.4212 16.266 20.5775 16.4223C20.7338 16.5785 20.9457 16.6663 21.1667 16.6664H29.5C29.6094 16.6664 29.7178 16.6449 29.8189 16.6031C29.92 16.5612 30.0119 16.4998 30.0893 16.4224C30.1667 16.345 30.228 16.2532 30.2699 16.152C30.3118 16.0509 30.3333 15.9425 30.3333 15.8331V12.4998C30.3333 12.3904 30.3118 12.282 30.2699 12.1809C30.228 12.0798 30.1667 11.9879 30.0893 11.9105C30.0119 11.8331 29.92 11.7717 29.8189 11.7299C29.7178 11.688 29.6094 11.6665 29.5 11.6665ZM28.6666 14.9999H21.9999V13.3332H28.6666V14.9999Z" fill="#15C3EE"/>
</g>
</g>
<defs>
<clipPath id="clip0_220_6048">
<rect width="50" height="50" fill="white"/>
</clipPath>
<clipPath id="clip1_220_6048">
<rect width="50" height="50" fill="white" transform="translate(0.333252)"/>
</clipPath>
</defs>
</svg>
