<svg width="51" height="50" viewBox="0 0 51 50" fill="none" xmlns="http://www.w3.org/2000/svg">
<g clip-path="url(#clip0_220_6038)">
<path d="M8.77456 11.6598H12.0032C12.4078 11.6598 12.7356 11.3318 12.7356 10.9273C12.7356 10.5229 12.4078 10.1949 12.0032 10.1949H8.77456C7.57808 10.1949 6.56743 9.24756 6.52153 8.0832C6.52009 8.04683 6.51937 8.01043 6.51938 7.97402C6.51938 6.53418 7.69077 5.36279 9.13062 5.36279C9.92319 5.36279 10.6641 5.71738 11.1631 6.33564C11.2659 6.46288 11.4082 6.55208 11.5675 6.58904C11.7268 6.62599 11.8939 6.60857 12.0421 6.53955C12.3219 6.40896 12.627 6.34158 12.9358 6.34219C13.6877 6.34219 14.3907 6.74688 14.7701 7.39834C14.8187 7.48183 14.8833 7.55489 14.9603 7.61329C15.0372 7.67168 15.125 7.71427 15.2185 7.7386C15.3119 7.76293 15.4093 7.76852 15.505 7.75504C15.6007 7.74156 15.6927 7.70928 15.7758 7.66006C16.0176 7.51728 16.2933 7.44201 16.5741 7.44209C17.3359 7.44209 17.9861 7.98545 18.1203 8.73398C18.1506 8.90313 18.2394 9.05623 18.3712 9.16651C18.503 9.27678 18.6694 9.3372 18.8413 9.33721H21.2114C21.4606 9.33721 21.6746 9.52979 21.6787 9.75772C21.6799 9.81478 21.6697 9.87153 21.6486 9.92457C21.6275 9.97762 21.596 10.0259 21.5559 10.0665C21.5161 10.1073 21.4685 10.1397 21.4159 10.1618C21.3633 10.1838 21.3069 10.1951 21.2499 10.1949H14.9327C14.5281 10.1949 14.2002 10.5229 14.2002 10.9273C14.2002 11.3318 14.5281 11.6598 14.9327 11.6598H21.2499C21.7623 11.6598 22.2421 11.4584 22.6011 11.0928C22.9601 10.7271 23.1526 10.2436 23.1433 9.73096C23.1247 8.70606 22.2581 7.87236 21.2114 7.87236H19.3885C19.1617 7.31195 18.7726 6.8321 18.2711 6.49443C17.7696 6.15675 17.1786 5.97665 16.5741 5.97725C16.2591 5.97725 15.9473 6.02627 15.65 6.12129C14.9751 5.3418 13.9837 4.87734 12.9358 4.87734C12.5941 4.87734 12.2599 4.92471 11.9373 5.01846C11.1837 4.30088 10.1867 3.89795 9.13062 3.89795C6.88306 3.89795 5.05454 5.72646 5.05454 7.97402C5.05454 8.0292 5.05571 8.08477 5.05786 8.14072C5.1355 10.1141 6.76812 11.6598 8.77456 11.6598ZM49.9343 44.637H49.4576C50.215 43.7427 50.5727 42.3528 50.5727 40.3433C50.5727 37.8339 50.0287 34.6844 49.1528 32.1239C48.3908 29.8962 47.0739 27.2406 45.1271 27.2406C44.1483 27.2406 43.2403 27.906 42.4204 29.2201C41.7098 28.0847 40.8125 27.2406 39.7151 27.2406C38.5349 27.2406 37.4605 28.2035 36.5179 30.1039C36.3209 30.0327 36.1131 29.9961 35.9037 29.9956H28.6041C28.1995 29.9956 27.8716 30.3235 27.8716 30.728C27.8716 31.1325 28.1995 31.4605 28.6041 31.4605H35.9037C36.0006 31.4606 36.0936 31.4992 36.1621 31.5677C36.2307 31.6363 36.2693 31.7292 36.2694 31.8262V32.6544C36.2693 32.7514 36.2307 32.8443 36.1621 32.9129C36.0936 32.9814 36.0006 33.02 35.9037 33.0201H15.4298C15.3329 33.02 15.2399 32.9814 15.1714 32.9129C15.1028 32.8443 15.0642 32.7514 15.0641 32.6544V31.8262C15.0642 31.7292 15.1028 31.6363 15.1714 31.5677C15.2399 31.4992 15.3329 31.4606 15.4298 31.4605H25.6744C26.079 31.4605 26.4068 31.1325 26.4068 30.728C26.4068 30.3235 26.079 29.9956 25.6744 29.9956H19.601C20.1641 28.7371 20.4555 27.374 20.4562 25.9953C20.4562 20.6055 16.0712 16.2205 10.6814 16.2205C5.29155 16.2205 0.906494 20.6055 0.906494 25.9953C0.906494 31.1043 4.84653 35.3097 9.84751 35.7343V39.9059C9.6922 39.8849 9.53567 39.8743 9.37895 39.8742C9.10363 39.8739 8.82923 39.9062 8.56147 39.9703C7.70884 38.818 6.31509 38.1395 4.86089 38.2072C2.63599 38.3105 0.820752 40.1347 0.728662 42.3607C0.695361 43.167 0.89126 43.9578 1.27407 44.6485C0.929248 44.708 0.666748 45.0077 0.666748 45.3694C0.666748 45.5637 0.743914 45.75 0.881269 45.8873C1.01863 46.0247 1.20492 46.1019 1.39917 46.1019H49.9343C50.3389 46.1019 50.6667 45.7739 50.6667 45.3694C50.6667 44.9649 50.3389 44.637 49.9343 44.637ZM15.4642 43.5688C15.4489 43.3551 15.4112 43.1436 15.3517 42.9378H17.6906V44.637H15.354C15.4522 44.29 15.4895 43.9285 15.4642 43.5688ZM31.3614 37.5097V38.5888H20.2945V37.5097H31.3614ZM34.4648 37.5097C34.4189 37.8685 34.3804 38.2283 34.3494 38.5888H32.8261V37.5097H34.4648ZM37.5305 40.0536C37.6234 40.0536 37.699 40.1292 37.699 40.2221V41.3044C37.699 41.3974 37.6234 41.4729 37.5305 41.4729H13.803C13.7583 41.4728 13.7155 41.455 13.6839 41.4235C13.6523 41.3919 13.6345 41.3491 13.6344 41.3044V40.2221C13.6344 40.1292 13.71 40.0536 13.803 40.0536H37.5305ZM19.1554 42.9378H32.5003V44.637H19.1554V42.9378ZM33.9653 42.9378H34.5515C34.7445 43.6663 35.0327 44.2195 35.3876 44.637H33.9652L33.9653 42.9378ZM43.2507 30.7379C43.8852 29.4653 44.5867 28.7055 45.1272 28.7055C45.7307 28.7055 46.7841 29.7249 47.7668 32.598C48.5815 34.9797 49.1079 38.0199 49.1079 40.3433C49.1079 44.4726 47.6095 44.4726 45.1271 44.4726C44.8219 44.4726 44.501 44.4721 44.1841 44.4597C44.846 43.5627 45.1607 42.2253 45.1607 40.3433C45.1607 37.8339 44.6167 34.6844 43.7408 32.1239C43.5908 31.6855 43.419 31.2307 43.2255 30.7826C43.2341 30.768 43.2429 30.7534 43.2507 30.7379ZM39.7151 28.7056C40.3186 28.7056 41.372 29.725 42.3547 32.5981C43.1694 34.9798 43.6958 38.02 43.6958 40.3434C43.6958 44.4727 42.1974 44.4727 39.715 44.4727C37.7457 44.4727 36.6211 44.398 36.0837 42.9379H37.5304C38.4311 42.9379 39.1637 42.2052 39.1637 41.3046V40.2223C39.1637 39.3217 38.431 38.589 37.5304 38.589H35.8202C35.8531 38.2278 35.8938 37.8673 35.9423 37.5079C36.9336 37.487 37.7341 36.6756 37.7341 35.6793V34.8511C37.7341 34.4389 37.5955 34.0593 37.3647 33.7529C37.5956 33.4466 37.7341 33.067 37.7341 32.6548V31.8266C37.7341 31.6017 37.6914 31.3869 37.6168 31.1877C37.6355 31.1587 37.653 31.1286 37.6677 31.0964C38.3526 29.5991 39.1179 28.7056 39.7151 28.7056ZM35.9037 34.4851C36.0006 34.4852 36.0936 34.5238 36.1621 34.5923C36.2307 34.6609 36.2693 34.7538 36.2694 34.8508V35.679C36.2693 35.776 36.2307 35.8689 36.1621 35.9375C36.0936 36.006 36.0006 36.0446 35.9037 36.0447H15.4298C15.3329 36.0446 15.2399 36.006 15.1714 35.9375C15.1028 35.8689 15.0642 35.776 15.0641 35.679V34.8508C15.0642 34.7538 15.1028 34.6609 15.1714 34.5923C15.2399 34.5238 15.3329 34.4852 15.4298 34.4851H35.9037ZM2.37144 25.9953C2.37144 21.4132 6.09937 17.6854 10.6815 17.6854C15.2636 17.6854 18.9915 21.4132 18.9915 25.9953C18.9915 27.3707 18.6487 28.7331 18.0002 29.9351C17.9895 29.955 17.9801 29.9752 17.9714 29.9956H15.4299C14.4206 29.9956 13.5994 30.8168 13.5994 31.8262V32.6544C13.5991 33.0136 13.7053 33.3649 13.9043 33.6639C13.8766 33.6714 13.8492 33.6806 13.8225 33.6913C13.0197 34.0193 12.1776 34.2148 11.3125 34.2794V28.509L13.843 25.9784C13.9794 25.8409 14.0557 25.6549 14.0552 25.4612C14.0548 25.2675 13.9777 25.0818 13.8407 24.9449C13.7037 24.8079 13.5181 24.7308 13.3244 24.7304C13.1307 24.73 12.9447 24.8063 12.8072 24.9427L11.3125 26.4373V24.5257C11.3125 24.1212 10.9847 23.7933 10.5801 23.7933C10.1755 23.7933 9.84771 24.1212 9.84771 24.5257V28.9291L8.43872 27.5204C8.30136 27.3831 8.11506 27.3059 7.9208 27.3059C7.72654 27.3059 7.54024 27.3831 7.40288 27.5204C7.26552 27.6578 7.18835 27.8441 7.18835 28.0383C7.18835 28.2326 7.26552 28.4189 7.40288 28.5563L9.84761 31.0011V34.2636C5.65552 33.8438 2.37144 30.2961 2.37144 25.9953ZM11.3125 35.7496C12.0889 35.7008 12.8567 35.5588 13.5993 35.3266V35.679C13.5993 36.6884 14.4205 37.5096 15.4298 37.5096H18.8296V38.5887H13.8029C12.9022 38.5887 12.1695 39.3214 12.1695 40.222V40.6938C12.0132 40.7038 11.8583 40.7244 11.7057 40.7582C11.5819 40.6483 11.4504 40.5474 11.3124 40.4561L11.3125 35.7496ZM3.0938 44.637C2.48335 44.0642 2.15718 43.2693 2.19224 42.4213C2.25337 40.9471 3.45542 39.7389 4.92886 39.6707C6.05396 39.6191 7.07671 40.2016 7.60542 41.1915C7.69265 41.3549 7.83857 41.4792 8.01378 41.5393C8.189 41.5994 8.38048 41.5909 8.54966 41.5154C8.81061 41.3988 9.09331 41.3387 9.37915 41.3392C9.67557 41.3391 9.96844 41.4037 10.2373 41.5285C10.5062 41.6532 10.7447 41.8351 10.9361 42.0614C11.0354 42.1786 11.169 42.2615 11.318 42.2986C11.467 42.3356 11.6239 42.3249 11.7665 42.2679C11.9708 42.1861 12.1897 42.1469 12.4097 42.1525C12.6909 42.6127 13.1919 42.9232 13.7666 42.9359C13.9032 43.1577 13.9843 43.4092 14.0029 43.669C14.0266 44.015 13.9442 44.3498 13.7683 44.637H3.0938ZM27.9151 20.8326H35.2407C35.6453 20.8326 35.9731 20.5047 35.9731 20.1002C35.9731 19.6957 35.6453 19.3678 35.2407 19.3678H27.9151C27.4305 19.3678 27.0337 18.9864 27.0305 18.5177L27.0304 18.5047C27.0304 17.4963 27.8513 16.6589 28.8605 16.6381C29.0314 16.6345 29.1958 16.5713 29.325 16.4593C29.4542 16.3473 29.5402 16.1937 29.568 16.025C29.8666 14.2156 31.4162 12.9023 33.2528 12.9023C35.0985 12.9023 36.6496 14.223 36.9407 16.0425C36.9709 16.2303 37.0729 16.399 37.2253 16.5129C37.3776 16.6269 37.5682 16.6772 37.7569 16.6532C37.8519 16.6411 37.9283 16.6354 37.9974 16.6354C38.6583 16.6354 39.2766 16.9905 39.6114 17.5622C39.676 17.6725 39.7683 17.764 39.8792 17.8275C39.99 17.8911 40.1156 17.9245 40.2434 17.9245H42.2516C42.6495 17.9245 42.9732 18.2482 42.9732 18.6461C42.9732 19.044 42.6496 19.3678 42.2516 19.3678H38.1702C37.7656 19.3678 37.4377 19.6957 37.4377 20.1002C37.4377 20.5047 37.7656 20.8326 38.1702 20.8326H42.2516C43.4572 20.8326 44.438 19.8518 44.438 18.6461C44.438 17.4405 43.4572 16.4597 42.2516 16.4597H40.6297C40.0537 15.7205 39.1844 15.2511 38.2464 15.18C37.6113 12.9771 35.6037 11.4374 33.2528 11.4374C30.8852 11.4374 28.8601 13.0055 28.2431 15.2384C26.7222 15.5471 25.5655 16.9053 25.5655 18.5046L25.5656 18.5276C25.5745 19.7986 26.6285 20.8326 27.9151 20.8326Z" fill="#15C3EE"/>
</g>
<defs>
<clipPath id="clip0_220_6038">
<rect width="50" height="50" fill="white" transform="translate(0.666748)"/>
</clipPath>
</defs>
</svg>
