<svg width="50" height="50" viewBox="0 0 50 50" fill="none" xmlns="http://www.w3.org/2000/svg">
<g clip-path="url(#clip0_220_6033)">
<path d="M13.7256 8.82353C21.0184 6.13323 28.5473 6.285 36.2746 8.82353" stroke="#15C3EE" stroke-width="1.96078" stroke-miterlimit="10" stroke-linecap="round" stroke-linejoin="round"/>
<path d="M36.2746 49.0197H13.7256V2.94165C21.0184 0.251457 28.5473 0.403124 36.2746 2.94165V49.0197Z" stroke="#15C3EE" stroke-width="1.96078" stroke-miterlimit="10" stroke-linecap="round" stroke-linejoin="round"/>
<path d="M13.7256 14.7062C21.0184 12.016 28.5473 12.1677 36.2746 14.7062M13.7256 20.5886C21.0184 17.8984 28.5473 18.05 36.2746 20.5886M13.7256 26.4709C21.0184 23.7807 28.5473 23.9324 36.2746 26.4709M13.7256 32.3533C21.0184 29.6631 28.5473 29.8147 36.2746 32.3533M0.980469 49.0196H49.0197M42.1569 17.647H47.0589V49.0196M7.84321 17.647H2.94125V49.0196M25.0001 49.0196V36.2745M17.6471 36.2745H32.353M42.1569 49.0196H36.2746V15.6862L42.1569 11.7646V49.0196ZM7.84321 49.0196H13.7256V15.6862L7.84321 11.7646V49.0196ZM19.6079 36.2745H30.3922V49.0196H19.6079V36.2745Z" stroke="#15C3EE" stroke-width="1.96078" stroke-miterlimit="10" stroke-linecap="round" stroke-linejoin="round"/>
</g>
<defs>
<clipPath id="clip0_220_6033">
<rect width="50" height="50" fill="white"/>
</clipPath>
</defs>
</svg>
