<svg width="51" height="50" viewBox="0 0 51 50" fill="none" xmlns="http://www.w3.org/2000/svg">
<g clip-path="url(#clip0_220_6042)">
<path d="M9.12256 42.1875C8.5835 42.1875 8.146 42.625 8.146 43.1641C8.146 43.7031 8.5835 44.1406 9.12256 44.1406C9.66162 44.1406 10.0991 43.7031 10.0991 43.1641C10.0991 42.625 9.66162 42.1875 9.12256 42.1875ZM16.9351 26.2695C14.2427 26.2695 12.0522 28.46 12.0522 31.1523C12.0522 33.8447 14.2427 36.0352 16.9351 36.0352C19.6274 36.0352 21.8179 33.8447 21.8179 31.1523C21.8179 28.46 19.6274 26.2695 16.9351 26.2695ZM16.9351 34.082C15.3196 34.082 14.0054 32.7678 14.0054 31.1523C14.0054 29.5369 15.3196 28.2227 16.9351 28.2227C18.5505 28.2227 19.8647 29.5369 19.8647 31.1523C19.8647 32.7678 18.5505 34.082 16.9351 34.082Z" fill="#15C3EE"/>
<path d="M45.4507 37.9883H44.1812V37.6631C44.1812 36.2903 43.4065 35.0702 42.228 34.472V8.78906C42.228 3.94277 38.2853 0 33.439 0H22.7944C17.9481 0 14.0054 3.94277 14.0054 8.78906V10.742C13.4173 11.0421 12.9237 11.4989 12.579 12.0619C12.2343 12.625 12.052 13.2724 12.0522 13.9326V14.3133C10.8496 14.4476 9.6833 14.8274 8.63408 15.4337C8.62705 15.4378 8.6207 15.4426 8.61377 15.4468C5.91523 17.0173 4.23975 19.9271 4.23975 23.0469V34.082C2.08584 34.082 0.333496 35.8344 0.333496 37.9883V46.0938C0.333496 48.2477 2.08584 50 4.23975 50C5.73926 50 7.08066 49.1278 7.73076 47.8424C8.18242 47.9773 8.6512 48.0461 9.12256 48.0469H24.7476C25.2212 48.0469 25.6896 47.9759 26.1393 47.8424C26.7895 49.1277 28.1308 50 29.6304 50C31.0406 50 32.3249 49.2376 33.0132 48.0469H49.3569C49.8963 48.0469 50.3335 47.6097 50.3335 47.0703V42.8711C50.3335 40.1787 48.1431 37.9883 45.4507 37.9883ZM40.9969 36.0844C41.349 36.172 41.6617 36.3751 41.8849 36.6613C42.108 36.9475 42.2289 37.3002 42.228 37.6631V37.9883H36.3687V37.6631C36.3687 36.9196 36.8703 36.2713 37.5894 36.0862C37.7224 36.0521 37.8592 36.035 37.9966 36.0353H40.6001C40.7359 36.0353 40.8673 36.0513 40.9969 36.0844ZM15.9585 8.83936L15.9598 8.83926C15.9585 8.82275 15.9585 8.80586 15.9585 8.78906C15.9585 5.01973 19.0251 1.95312 22.7944 1.95312H33.439C37.2083 1.95312 40.2749 5.01973 40.2749 8.78906V34.082H38.3218V8.78906C38.3218 6.09668 36.1313 3.90625 33.439 3.90625H22.7944C20.1021 3.90625 17.9116 6.09668 17.9116 8.78906C17.9116 8.80596 17.9116 8.82275 17.9104 8.83926L17.9088 10.3516H15.9585V8.83936ZM14.0054 13.9326C14.0054 13.1892 14.507 12.5408 15.2261 12.3558C15.3591 12.3217 15.496 12.3045 15.6333 12.3048H18.2368C18.3709 12.3048 18.5027 12.3209 18.6315 12.3532C18.9842 12.4405 19.2974 12.6435 19.521 12.9299C19.7446 13.2162 19.8656 13.5693 19.8647 13.9326V14.2578H14.0054V13.9326ZM10.0991 16.8699C11.0149 16.4362 12.0155 16.2111 13.0288 16.2109H20.8413C21.8546 16.2111 22.8552 16.4362 23.771 16.8699V22.0703H10.0991V16.8699ZM10.0991 24.0234H23.771V31.1523C23.771 34.9217 20.7044 37.9883 16.9351 37.9883C15.1099 37.9883 13.3931 37.2771 12.1014 35.9864C10.8103 34.6943 10.0991 32.9775 10.0991 31.1523V24.0234ZM4.23975 48.0469C3.16279 48.0469 2.28662 47.1707 2.28662 46.0938V37.9883C2.28662 36.9113 3.16279 36.0352 4.23975 36.0352V43.1641C4.23975 44.6209 4.90312 45.9995 6.00791 46.9203C5.69268 47.5887 5.0084 48.0469 4.23975 48.0469ZM27.6772 43.1641C27.6772 44.1948 27.1247 45.1623 26.2363 45.6885C25.7852 45.9542 25.2711 46.0942 24.7476 46.0938H9.12256C8.59937 46.0942 8.08561 45.9544 7.63477 45.689C6.74541 45.1623 6.19287 44.1948 6.19287 43.1641V23.0469C6.19287 21.2429 6.91377 19.5295 8.146 18.2667V31.1523C8.146 33.499 9.06006 35.7062 10.7203 37.3675C12.3812 39.0273 14.5884 39.9414 16.9351 39.9414C21.7813 39.9414 25.7241 35.9986 25.7241 31.1523V18.2667C26.9563 19.5295 27.6772 21.2429 27.6772 23.0469V43.1641ZM31.5835 46.0938C31.5835 46.3178 31.5462 46.5365 31.4723 46.7449C31.1972 47.5237 30.4569 48.0469 29.6304 48.0469C28.8618 48.0469 28.1774 47.5888 27.8622 46.9204C28.9668 46 29.6304 44.6211 29.6304 43.1641V36.0352C30.7073 36.0352 31.5835 36.9113 31.5835 37.9883V46.0938ZM29.6304 34.082V23.0469C29.6304 19.9271 27.9549 17.0173 25.2563 15.4469C25.2494 15.4427 25.2432 15.4378 25.236 15.4338C24.1868 14.8275 23.0204 14.4477 21.8179 14.3134V13.9327C21.8179 12.5587 21.0425 11.3382 19.8608 10.7398V8.9418C19.8635 8.89414 19.8647 8.84375 19.8647 8.78906C19.8647 7.17363 21.179 5.85938 22.7944 5.85938H33.439C35.0544 5.85938 36.3687 7.17363 36.3687 8.78906V34.4725C35.7806 34.7725 35.2869 35.2293 34.9423 35.7924C34.5976 36.3555 34.4153 37.0029 34.4155 37.6631V37.9883H33.5366C33.5366 35.8344 31.7843 34.082 29.6304 34.082ZM48.3804 46.0938H33.5366V39.9414H45.4507C47.0661 39.9414 48.3804 41.2557 48.3804 42.8711V46.0938Z" fill="#15C3EE"/>
<path d="M45.4507 41.8945H41.2515C40.7121 41.8945 40.2749 42.3317 40.2749 42.8711C40.2749 43.4104 40.7121 43.8477 41.2515 43.8477H45.4507C45.99 43.8477 46.4272 43.4104 46.4272 42.8711C46.4272 42.3317 45.99 41.8945 45.4507 41.8945ZM24.7476 42.1875H13.0288C12.4895 42.1875 12.0522 42.6247 12.0522 43.1641C12.0522 43.7034 12.4895 44.1406 13.0288 44.1406H24.7476C25.2869 44.1406 25.7241 43.7034 25.7241 43.1641C25.7241 42.6247 25.2869 42.1875 24.7476 42.1875Z" fill="#15C3EE"/>
</g>
<defs>
<clipPath id="clip0_220_6042">
<rect width="50" height="50" fill="white" transform="translate(0.333496)"/>
</clipPath>
</defs>
</svg>
