<svg width="50" height="50" viewBox="0 0 50 50" fill="none" xmlns="http://www.w3.org/2000/svg">
<path d="M32.0927 30.0938H27.4627V28.5601H31.2911C31.7637 28.5566 32.2237 28.4079 32.6088 28.134C32.994 27.8602 33.2856 27.4745 33.4441 27.0293H40.4817V47.6994C40.4817 48.1219 40.8231 48.4663 41.2456 48.4692H44.3072C44.7297 48.4692 45.0712 48.1219 45.0712 47.6994V27.0293H47.3717C47.5741 27.0285 47.768 26.9478 47.9111 26.8047C48.0542 26.6616 48.1349 26.4677 48.1357 26.2654V23.2038C48.1357 23.0009 48.0553 22.8063 47.9121 22.6625C47.7689 22.5188 47.5746 22.4377 47.3717 22.4369H45.0712V21.673C45.0689 21.0645 44.8266 20.4816 44.3969 20.0508C43.9672 19.62 43.3849 19.3762 42.7764 19.3724H41.2427C40.635 19.3777 40.0539 19.6221 39.625 20.0526C39.1961 20.4832 38.9539 21.0653 38.9509 21.673V22.4369H33.5887V20.1393C33.5887 19.8788 33.5714 19.6271 33.5511 19.3753H35.1195C35.728 19.3723 36.3106 19.1292 36.7409 18.699C37.1711 18.2688 37.4141 17.6861 37.4172 17.0777V4.82841C37.4141 4.21997 37.1711 3.63732 36.7409 3.20709C36.3106 2.77685 35.728 2.5338 35.1195 2.53076H15.2134C14.605 2.5338 14.0223 2.77685 13.5921 3.20709C13.1618 3.63732 12.9188 4.21997 12.9157 4.82841V17.0777C12.9157 18.3365 13.9546 19.3753 15.2134 19.3753H16.7847C16.7596 19.6292 16.746 19.8841 16.7442 20.1393V22.4369H11.3849V14.0161C11.3853 13.9151 11.3658 13.8151 11.3274 13.7217C11.289 13.6284 11.2326 13.5435 11.1614 13.472C11.0901 13.4005 11.0055 13.3437 10.9122 13.305C10.819 13.2663 10.719 13.2463 10.6181 13.2463H8.32335V11.7213C8.32373 11.6206 8.30427 11.5208 8.26609 11.4277C8.2279 11.3345 8.17173 11.2497 8.10079 11.1782C8.02985 11.1068 7.94553 11.05 7.85264 11.0111C7.75975 10.9722 7.6601 10.952 7.5594 10.9516H4.4978C4.39661 10.9512 4.29635 10.9709 4.20278 11.0094C4.10922 11.048 4.02421 11.1046 3.95266 11.1762C3.88111 11.2477 3.82442 11.3328 3.78588 11.4263C3.74733 11.5199 3.72768 11.6201 3.72806 11.7213V22.4369H2.96411C2.76073 22.4369 2.56568 22.5177 2.42187 22.6615C2.27806 22.8053 2.19727 23.0004 2.19727 23.2038V26.2625C2.19727 26.685 2.54162 27.0264 2.96411 27.0264H5.26175V33.1554C5.26175 34.1769 6.79255 34.1769 6.79255 33.1554V27.0293H8.32335V46.9384H6.78966V40.0483C6.78966 39.0268 5.26175 39.0268 5.26175 40.0483V47.6994C5.25886 48.1248 5.60322 48.4692 6.0286 48.4692H9.0873C9.18849 48.4695 9.28876 48.4499 9.38232 48.4114C9.47588 48.3728 9.56089 48.3161 9.63244 48.2446C9.704 48.173 9.76068 48.088 9.79923 47.9944C9.83778 47.9009 9.85742 47.8006 9.85704 47.6994V27.0293H16.8889C17.2101 27.9177 18.0551 28.563 19.0447 28.563H22.8732V30.0938H18.2432C17.9428 30.0926 17.6453 30.1515 17.3681 30.267C17.0909 30.3825 16.8396 30.5523 16.629 30.7664C16.4184 30.9805 16.2527 31.2346 16.1418 31.5136C16.0309 31.7927 15.9769 32.0912 15.9831 32.3914C15.9831 33.7139 17.0046 34.6862 18.246 34.6862H21.3424V36.9838C21.3424 37.4034 21.6838 37.7449 22.1034 37.7478H22.8732V40.8094H19.8087C19.2002 40.8132 18.6179 41.057 18.1882 41.4878C17.7585 41.9185 17.5162 42.5015 17.5139 43.1099V44.0157C17.0677 44.1747 16.6813 44.4672 16.4069 44.8534C16.1325 45.2395 15.9836 45.7007 15.9802 46.1744C15.9802 47.4332 17.0162 48.4692 18.275 48.4692C18.8829 48.4669 19.4652 48.2244 19.8951 47.7945C20.3249 47.3647 20.5674 46.7823 20.5697 46.1744C20.5664 45.7023 20.4185 45.2425 20.1458 44.857C19.8731 44.4715 19.4888 44.1789 19.0447 44.0186V43.1099C19.0447 42.6759 19.3688 42.3431 19.8087 42.3431H24.404V44.0157C23.9578 44.1747 23.5713 44.4672 23.2969 44.8534C23.0226 45.2395 22.8736 45.7007 22.8703 46.1744C22.8703 47.4332 23.9062 48.4692 25.165 48.4692C25.7735 48.4669 26.3564 48.2246 26.7872 47.7949C27.218 47.3652 27.4617 46.7828 27.4656 46.1744C27.4618 45.7008 27.3127 45.2398 27.0384 44.8537C26.7641 44.4676 26.3778 44.1751 25.9319 44.0157V42.3431H30.53C30.967 42.3431 31.2911 42.673 31.2911 43.1099V44.0157C30.8455 44.1752 30.4596 44.4679 30.1858 44.854C29.912 45.2401 29.7634 45.7011 29.7603 46.1744C29.7603 47.4332 30.7963 48.4692 32.0551 48.4692C32.6635 48.4669 33.2464 48.2246 33.6772 47.7949C34.108 47.3652 34.3518 46.7828 34.3556 46.1744C34.3518 45.7008 34.2027 45.2398 33.9284 44.8537C33.6541 44.4676 33.2679 44.1751 32.8219 44.0157V43.1099C32.8196 42.502 32.5777 41.9195 32.1486 41.4888C31.7196 41.0581 31.138 40.814 30.53 40.8094H27.4627V37.7507H28.2266C28.3273 37.7511 28.4271 37.7316 28.5203 37.6934C28.6135 37.6552 28.6982 37.5991 28.7697 37.5281C28.8412 37.4572 28.898 37.3729 28.9369 37.28C28.9758 37.1871 28.996 37.0874 28.9964 36.9867V34.6891H32.0898C32.3903 34.6915 32.6883 34.6335 32.966 34.5187C33.2437 34.4038 33.4956 34.2343 33.7066 34.0203C33.9176 33.8063 34.0835 33.5521 34.1945 33.2728C34.3055 32.9935 34.3593 32.6948 34.3527 32.3943C34.3593 32.0937 34.3055 31.7949 34.1946 31.5154C34.0836 31.2359 33.9177 30.9816 33.7067 30.7674C33.4958 30.5531 33.2439 30.3834 32.9662 30.2682C32.6885 30.153 32.3905 30.0947 32.0898 30.0967L32.0927 30.0938ZM15.2134 4.06156H35.1224C35.5565 4.06156 35.8864 4.38855 35.8864 4.82841V14.7829H31.6644C30.8756 13.8233 29.8838 13.0504 28.7605 12.52C27.6371 11.9896 26.4102 11.7149 25.1679 11.7155C22.552 11.7155 20.2138 12.9107 18.6685 14.7829H14.4494V4.82841C14.4494 4.38855 14.7764 4.06156 15.2134 4.06156ZM5.25886 12.4824H6.79255V22.4369H5.25886V12.4824ZM25.1679 13.2492C26.0737 13.2454 26.9712 13.421 27.8087 13.766C28.6462 14.1109 29.4071 14.6183 30.0474 15.2589C30.6878 15.8995 31.1949 16.6606 31.5394 17.4983C31.884 18.3359 32.0593 19.2335 32.0551 20.1393V26.2654C32.0574 26.3663 32.0393 26.4667 32.0017 26.5605C31.9642 26.6543 31.908 26.7394 31.8366 26.8108C31.7652 26.8823 31.68 26.9385 31.5862 26.976C31.4925 27.0136 31.3921 27.0317 31.2911 27.0293H27.4656V22.4369C27.4617 21.8285 27.218 21.2461 26.7872 20.8165C26.3564 20.3868 25.7735 20.1444 25.165 20.1422C24.5574 20.1452 23.9754 20.388 23.5457 20.8176C23.1161 21.2473 22.8733 21.8293 22.8703 22.4369V27.0293H19.0418C18.9406 27.0321 18.8399 27.0142 18.7458 26.9769C18.6517 26.9395 18.5662 26.8834 18.4944 26.8119C18.4227 26.7405 18.3663 26.6552 18.3285 26.5612C18.2908 26.4672 18.2726 26.3666 18.275 26.2654V20.1393C18.2708 19.233 18.4462 18.335 18.7911 17.4969C19.1361 16.6589 19.6437 15.8975 20.2846 15.2569C20.9256 14.6162 21.6872 14.1089 22.5253 13.7643C23.3635 13.4197 24.2617 13.2446 25.1679 13.2492ZM8.32335 14.7771H9.85415V22.4369H8.32046L8.32335 14.7771ZM14.4494 16.3108H17.6731C17.4214 16.8009 17.2189 17.3146 17.0683 17.8445H15.2163C15.1148 17.8473 15.0139 17.8294 14.9196 17.7918C14.8253 17.7543 14.7396 17.6979 14.6678 17.6261C14.5961 17.5544 14.5397 17.4687 14.5021 17.3744C14.4646 17.2801 14.4466 17.1791 14.4494 17.0777V16.3108ZM32.6627 16.3108H35.8864V17.0777C35.8888 17.1789 35.8706 17.2796 35.8328 17.3735C35.7951 17.4675 35.7387 17.5528 35.6669 17.6242C35.5952 17.6957 35.5097 17.7518 35.4156 17.7892C35.3215 17.8266 35.2208 17.8444 35.1195 17.8416H33.2646C33.1148 17.3128 32.9131 16.8001 32.6627 16.3108ZM41.2456 20.9032H42.7793C43.2134 20.9032 43.5404 21.236 43.5404 21.673V22.4369H40.4817V21.673C40.4817 21.2389 40.8087 20.9032 41.2456 20.9032ZM25.165 21.673C25.602 21.673 25.9348 22 25.9348 22.4369V33.1583H24.4011V22.4369C24.4011 22 24.7281 21.673 25.165 21.673ZM3.72806 23.9677H16.7442V25.5014H3.72806V23.9677ZM33.5916 23.9677H46.6049V25.5014H33.5887L33.5916 23.9677ZM42.0125 27.0293H43.5404V46.9384H42.0154L42.0125 27.0293ZM18.2432 31.6246H22.8703V33.1583H18.2403C17.8236 33.1583 17.511 32.8429 17.511 32.3914C17.511 31.9371 17.8236 31.6246 18.2432 31.6246ZM32.0927 33.1583H27.4627V31.6246H32.0927C32.5094 31.6246 32.8248 31.9371 32.8248 32.3914C32.8248 32.8429 32.5094 33.1583 32.0927 33.1583ZM22.8703 34.692H27.4627V36.2141H22.8703V34.692ZM6.01703 35.4415C5.81465 35.4445 5.62169 35.5274 5.48021 35.6722C5.33873 35.8169 5.2602 36.0117 5.26175 36.2141V36.9838C5.2386 38.0256 6.81281 38.0256 6.79255 36.9838V36.2141C6.79372 36.1121 6.77444 36.0108 6.73585 35.9164C6.69725 35.8219 6.64012 35.7361 6.56784 35.6641C6.49555 35.5921 6.40957 35.5353 6.31496 35.4971C6.22036 35.4588 6.11905 35.4399 6.01703 35.4415ZM24.404 37.7478H25.9348V40.8094H24.4011L24.404 37.7478ZM18.275 45.4047C18.709 45.4047 19.0447 45.7432 19.0447 46.1744C19.0447 46.6056 18.709 46.9384 18.275 46.9384C17.8438 46.9384 17.5139 46.6056 17.5139 46.1744C17.5139 45.7432 17.8438 45.4047 18.275 45.4047ZM25.165 45.4047C25.5991 45.4047 25.9348 45.7432 25.9348 46.1744C25.9348 46.6056 25.5962 46.9384 25.165 46.9384C24.731 46.9384 24.404 46.6056 24.404 46.1744C24.404 45.7432 24.7338 45.4047 25.165 45.4047ZM32.0522 45.4047C32.4862 45.4047 32.8248 45.7432 32.8248 46.1744C32.8248 46.6056 32.4862 46.9384 32.0551 46.9384C31.621 46.9384 31.2911 46.6056 31.2911 46.1744C31.2911 45.7432 31.6239 45.4047 32.0551 45.4047H32.0522Z" fill="#15C3EE"/>
</svg>
