<svg width="83" height="82" viewBox="0 0 83 82" fill="none" xmlns="http://www.w3.org/2000/svg">
<rect x="0.0136719" width="82.0068" height="81.8679" rx="40.934" fill="#15C3EE"/>
<path d="M56.8932 45.3154L56.8936 45.3488L56.9028 45.381L60.8832 59.3628C60.9252 59.5401 60.9258 59.7248 60.885 59.9025C60.8438 60.0818 60.7614 60.2491 60.6445 60.3911L60.6443 60.391L60.6376 60.4C60.527 60.5475 60.3835 60.6672 60.2186 60.7496C60.0537 60.8321 59.8719 60.875 59.6876 60.875H22.3126V60.8748L22.3027 60.8752C22.1104 60.8828 21.9191 60.8435 21.7454 60.7608C21.5717 60.6781 21.4208 60.5545 21.3055 60.4006C21.1968 60.2545 21.1231 60.0854 21.0901 59.9063C21.0572 59.7271 21.0659 59.5428 21.1156 59.3676L25.0974 45.381L25.1062 45.35L25.1069 45.3177C25.1112 45.1138 25.172 44.9151 25.2826 44.7437L25.3029 44.7122L25.3131 44.6762L25.9882 42.2919C26.3283 41.1602 27.024 40.1681 27.972 39.4626C28.9206 38.7567 30.0714 38.3753 31.2538 38.375C31.2538 38.375 31.2539 38.375 31.2539 38.375H36.6876H36.9376V38.125V25.1875C36.9376 24.1101 37.3656 23.0767 38.1274 22.3149C38.8893 21.553 39.9226 21.125 41.0001 21.125C42.0775 21.125 43.1108 21.553 43.8727 22.3149C44.6346 23.0767 45.0626 24.1101 45.0626 25.1875V38.125V38.375H45.3126H50.7463H50.7468C51.924 38.3726 53.0709 38.748 54.0189 39.446C54.9659 40.1433 55.6644 41.1258 56.0121 42.2492L56.6867 44.6751L56.6972 44.7129L56.7188 44.7457C56.8303 44.9149 56.8909 45.1127 56.8932 45.3154ZM42.4376 38.375H42.6876V38.125V25.1875C42.6876 24.7399 42.5098 24.3107 42.1933 23.9943C41.8768 23.6778 41.4476 23.5 41.0001 23.5C40.5525 23.5 40.1233 23.6778 39.8068 23.9943C39.4904 24.3107 39.3126 24.7399 39.3126 25.1875V38.125V38.375H39.5626H42.4376ZM53.7328 42.931L53.7329 42.931L50.7463 41V40.75H50.7457L31.2549 40.75L31.2538 41V40.75H31.2545C30.5845 40.7471 29.9312 40.9596 29.3912 41.3562C28.851 41.7529 28.4526 42.3128 28.2549 42.9531L28.2548 42.9531L28.2525 42.9614L28.0225 43.8096L27.937 44.125H28.2638H53.7363H54.0655L53.9771 43.8079L53.7328 42.931ZM32.6392 58.1766L32.5398 58.5H32.8782H57.7901H58.1205L58.0307 58.182L54.7819 46.682L54.7305 46.5H54.5413H27.4444H27.2551L27.2038 46.6823L23.9694 58.1823L23.8801 58.5H24.2101H29.8738H30.059L30.113 58.3229L32.0105 52.0985L32.0108 52.0972C32.0557 51.9473 32.1297 51.8077 32.2287 51.6864C32.3277 51.5652 32.4496 51.4647 32.5876 51.3908C32.7255 51.3168 32.8767 51.2709 33.0325 51.2556C33.1883 51.2403 33.3455 51.2559 33.4952 51.3016L33.4973 51.3022C33.6516 51.3479 33.795 51.4244 33.9189 51.5272C34.0427 51.63 34.1444 51.7568 34.2177 51.9001C34.291 52.0434 34.3344 52.2 34.3453 52.3606C34.3562 52.5212 34.3343 52.6823 34.281 52.8341L34.2809 52.834L34.278 52.8434L32.6392 58.1766Z" fill="white" stroke="#15C3EE" stroke-width="0.5"/>
</svg>
