<svg width="82" height="82" viewBox="0 0 82 82" fill="none" xmlns="http://www.w3.org/2000/svg">
<rect width="82" height="82" rx="41" fill="#15C3EE"/>
<path d="M22.0589 28.1471H34.2354M27.809 22.7354V34.2354M58.2502 48.6667V31.8001C58.2502 29.6532 58.2502 28.5798 57.8324 27.7598C57.4648 27.0385 56.8784 26.452 56.1571 26.0845C55.3371 25.6667 54.2637 25.6667 52.1168 25.6667H41.0002M23.7502 48.6667V41.0001M60.1668 48.6667V50.2001C60.1668 52.3469 60.1668 53.4204 59.749 54.2404C59.3815 54.9616 58.7951 55.5481 58.0738 55.9156C57.2538 56.3334 56.1804 56.3334 54.0335 56.3334H27.9668C25.82 56.3334 24.7465 56.3334 23.9265 55.9156C23.2052 55.5481 22.6188 54.9616 22.2513 54.2404C21.8335 53.4204 21.8335 52.3469 21.8335 50.2001V48.6667H33.9799C34.4487 48.6667 34.6831 48.6667 34.9037 48.7197C35.0993 48.7666 35.2862 48.8441 35.4577 48.9492C35.6511 49.0677 35.8169 49.2335 36.1484 49.5649L36.2686 49.6852C36.6001 50.0167 36.7659 50.1824 36.9593 50.301C37.1308 50.406 37.3177 50.4835 37.5133 50.5304C37.7339 50.5834 37.9683 50.5834 38.4371 50.5834H43.5632C44.032 50.5834 44.2664 50.5834 44.487 50.5304C44.6826 50.4835 44.8696 50.406 45.041 50.301C45.2345 50.1824 45.4002 50.0167 45.7317 49.6852L45.852 49.5649C46.1834 49.2335 46.3492 49.0677 46.5426 48.9492C46.7141 48.8441 46.9011 48.7666 47.0966 48.7197C47.3172 48.6667 47.5516 48.6667 48.0204 48.6667H60.1668Z" stroke="white" stroke-width="2" stroke-linecap="round" stroke-linejoin="round"/>
</svg>
