<svg width="83" height="82" viewBox="0 0 83 82" fill="none" xmlns="http://www.w3.org/2000/svg">
<rect x="0.00683594" width="82.0068" height="81.8679" rx="40.934" fill="#15C3EE"/>
<path d="M39.0834 33.3332L48.6667 33.3342M39.0834 40.9998L48.6667 41.0008M39.0834 48.6665L48.6667 48.6675M33.3334 48.6665H33.3526M33.3334 40.9998H33.3526M33.3334 33.3332H33.3526M31.8001 25.6665H50.2001C52.3469 25.6665 53.4204 25.6665 54.2404 26.0843C54.9617 26.4518 55.5481 27.0383 55.9156 27.7595C56.3334 28.5795 56.3334 29.653 56.3334 31.7998V50.1998C56.3334 52.3467 56.3334 53.4201 55.9156 54.2401C55.5481 54.9614 54.9617 55.5478 54.2404 55.9154C53.4204 56.3332 52.3469 56.3332 50.2001 56.3332H31.8001C29.6532 56.3332 28.5798 56.3332 27.7598 55.9154C27.0385 55.5478 26.4521 54.9614 26.0846 54.2401C25.6667 53.4201 25.6667 52.3467 25.6667 50.1998V31.7998C25.6667 29.653 25.6667 28.5795 26.0846 27.7595C26.4521 27.0383 27.0385 26.4518 27.7598 26.0843C28.5798 25.6665 29.6532 25.6665 31.8001 25.6665Z" stroke="white" stroke-width="2" stroke-linecap="round" stroke-linejoin="round"/>
</svg>
