<svg width="83" height="82" viewBox="0 0 83 82" fill="none" xmlns="http://www.w3.org/2000/svg">
<rect width="82.0068" height="81.8679" rx="40.934" fill="#15C3EE"/>
<path d="M33.3335 39.0833H37.1668M33.3335 52.5L39.0835 46.75L42.9168 50.5833L48.6668 44.8333M42.9168 23.75H33.7168C31.57 23.75 30.4965 23.75 29.6765 24.1678C28.9552 24.5353 28.3688 25.1217 28.0013 25.843C27.5835 26.663 27.5835 27.7365 27.5835 29.8833V52.1167C27.5835 54.2635 27.5835 55.337 28.0013 56.157C28.3688 56.8783 28.9552 57.4647 29.6765 57.8322C30.4965 58.25 31.57 58.25 33.7168 58.25H48.2835C50.4304 58.25 51.5038 58.25 52.3238 57.8322C53.0451 57.4647 53.6315 56.8783 53.999 56.157C54.4168 55.337 54.4168 54.2635 54.4168 52.1167V35.25M42.9168 23.75L54.4168 35.25M42.9168 23.75V32.1833C42.9168 33.2568 42.9168 33.7935 43.1257 34.2035C43.3095 34.5641 43.6027 34.8573 43.9633 35.0411C44.3733 35.25 44.9101 35.25 45.9835 35.25H54.4168" stroke="white" stroke-width="2" stroke-linecap="round" stroke-linejoin="round"/>
</svg>
