<svg width="83" height="82" viewBox="0 0 83 82" fill="none" xmlns="http://www.w3.org/2000/svg">
<rect width="82.0068" height="81.8679" rx="40.934" fill="#15C3EE"/>
<g clip-path="url(#clip0_117_1743)">
<path fill-rule="evenodd" clip-rule="evenodd" d="M20.5038 45.9603L19.0433 51.8023C18.9226 52.284 18.9288 52.7887 19.0612 53.2673C19.1936 53.7459 19.4478 54.182 19.7989 54.5331C20.1501 54.8843 20.5862 55.1384 21.0648 55.2708C21.5433 55.4033 22.0481 55.4094 22.5298 55.2887C22.5298 55.2887 26.319 54.3419 28.3689 53.8474L28.3765 53.8455C28.9821 53.694 29.6205 53.7448 30.1945 53.9902L30.205 53.995C32.4116 54.9089 34.7771 55.3779 37.1654 55.375C47.2145 55.375 55.3738 47.2157 55.3738 37.1666C55.3738 27.1176 47.2145 18.9583 37.1654 18.9583C27.1163 18.9583 18.9571 27.1176 18.9571 37.1666C18.9512 39.5585 19.4274 41.9271 20.3572 44.1309C20.6045 44.7087 20.6553 45.3508 20.5038 45.9603ZM20.9025 52.2671L22.363 46.4241C22.6167 45.4086 22.5309 44.3379 22.1186 43.3757C21.2914 41.4105 20.868 39.2989 20.8738 37.1666C20.8738 28.1746 28.1734 20.875 37.1654 20.875C46.1575 20.875 53.4571 28.1746 53.4571 37.1666C53.4571 46.1587 46.1575 53.4583 37.1654 53.4583C34.9613 53.4583 32.8587 53.0194 30.9401 52.2249C29.9836 51.8176 28.9204 51.7335 27.9118 51.9854C25.8638 52.4799 22.065 53.4296 22.065 53.4296C21.9044 53.4692 21.7364 53.4667 21.5771 53.4224C21.4178 53.378 21.2727 53.2932 21.1557 53.1763C21.0388 53.0594 20.9541 52.9143 20.9097 52.755C20.8653 52.5957 20.8629 52.4276 20.9025 52.2671Z" fill="white"/>
<path fill-rule="evenodd" clip-rule="evenodd" d="M37.1657 34.2917C36.416 34.311 35.7036 34.6224 35.1802 35.1595C34.6568 35.6965 34.3639 36.4168 34.3639 37.1667C34.3639 37.9166 34.6568 38.6368 35.1802 39.1738C35.7036 39.7109 36.416 40.0223 37.1657 40.0417C37.9153 40.0223 38.6277 39.7109 39.1511 39.1738C39.6745 38.6368 39.9674 37.9166 39.9674 37.1667C39.9674 36.4168 39.6745 35.6965 39.1511 35.1595C38.6277 34.6224 37.9153 34.311 37.1657 34.2917ZM37.1657 36.2083C37.4198 36.2083 37.6636 36.3093 37.8433 36.489C38.023 36.6687 38.124 36.9125 38.124 37.1667C38.124 37.4208 38.023 37.6646 37.8433 37.8443C37.6636 38.024 37.4198 38.125 37.1657 38.125C36.9115 38.125 36.6677 38.024 36.488 37.8443C36.3083 37.6646 36.2073 37.4208 36.2073 37.1667C36.2073 36.9125 36.3083 36.6687 36.488 36.489C36.6677 36.3093 36.9115 36.2083 37.1657 36.2083ZM44.8323 34.2917C44.0827 34.311 43.3702 34.6224 42.8469 35.1595C42.3235 35.6965 42.0306 36.4168 42.0306 37.1667C42.0306 37.9166 42.3235 38.6368 42.8469 39.1738C43.3702 39.7109 44.0827 40.0223 44.8323 40.0417C45.582 40.0223 46.2944 39.7109 46.8178 39.1738C47.3411 38.6368 47.634 37.9166 47.634 37.1667C47.634 36.4168 47.3411 35.6965 46.8178 35.1595C46.2944 34.6224 45.582 34.311 44.8323 34.2917ZM44.8323 36.2083C45.0865 36.2083 45.3302 36.3093 45.51 36.489C45.6897 36.6687 45.7907 36.9125 45.7907 37.1667C45.7907 37.4208 45.6897 37.6646 45.51 37.8443C45.3302 38.024 45.0865 38.125 44.8323 38.125C44.5782 38.125 44.3344 38.024 44.1547 37.8443C43.975 37.6646 43.874 37.4208 43.874 37.1667C43.874 36.9125 43.975 36.6687 44.1547 36.489C44.3344 36.3093 44.5782 36.2083 44.8323 36.2083ZM29.499 34.2917C28.7493 34.311 28.0369 34.6224 27.5135 35.1595C26.9902 35.6965 26.6973 36.4168 26.6973 37.1667C26.6973 37.9166 26.9902 38.6368 27.5135 39.1738C28.0369 39.7109 28.7493 40.0223 29.499 40.0417C30.2486 40.0223 30.9611 39.7109 31.4844 39.1738C32.0078 38.6368 32.3007 37.9166 32.3007 37.1667C32.3007 36.4168 32.0078 35.6965 31.4844 35.1595C30.9611 34.6224 30.2486 34.311 29.499 34.2917ZM29.499 36.2083C29.7532 36.2083 29.9969 36.3093 30.1766 36.489C30.3564 36.6687 30.4573 36.9125 30.4573 37.1667C30.4573 37.4208 30.3564 37.6646 30.1766 37.8443C29.9969 38.024 29.7532 38.125 29.499 38.125C29.2448 38.125 29.0011 38.024 28.8213 37.8443C28.6416 37.6646 28.5407 37.4208 28.5407 37.1667C28.5407 36.9125 28.6416 36.6687 28.8213 36.489C29.0011 36.3093 29.2448 36.2083 29.499 36.2083ZM57.1776 42.3618C58.4098 43.3485 59.4043 44.5998 60.0874 46.0229C60.7706 47.4461 61.1248 49.0047 61.124 50.5833C61.124 51.7525 60.9333 52.8766 60.5816 53.9279C60.3061 54.7263 60.2475 55.5835 60.4119 56.4119C60.6659 57.7804 61.1058 59.9788 61.1058 59.9788C61.1368 60.1336 61.1291 60.2936 61.0834 60.4447C61.0377 60.5957 60.9554 60.7332 60.8438 60.8448C60.7322 60.9564 60.5947 61.0387 60.4437 61.0844C60.2926 61.1301 60.1326 61.1378 59.9778 61.1068L56.4234 60.3957C55.5857 60.2279 54.7184 60.2875 53.9116 60.5682L53.9077 60.5692C52.867 60.9362 51.7467 61.125 50.5823 61.125C49.0037 61.1258 47.4451 60.7716 46.0219 60.0884C44.5988 59.4053 43.3475 58.4108 42.3608 57.1786C42.2015 56.9805 41.9701 56.8537 41.7174 56.8262C41.4647 56.7987 41.2115 56.8727 41.0134 57.0319C40.8152 57.1912 40.6885 57.4226 40.661 57.6753C40.6335 57.928 40.7075 58.1812 40.8667 58.3794C42.0328 59.8354 43.5115 61.0105 45.1933 61.8175C46.8751 62.6246 48.7169 63.0429 50.5823 63.0417C51.97 63.0417 53.304 62.8145 54.5441 62.3775C55.0272 62.2102 55.5463 62.1748 56.0477 62.275L59.6021 62.9861C60.0662 63.0789 60.5461 63.0557 60.9991 62.9185C61.452 62.7813 61.8641 62.5345 62.1988 62.1998C62.5335 61.8652 62.7803 61.453 62.9175 61.0001C63.0547 60.5471 63.0779 60.0673 62.9851 59.6032C62.9851 59.6032 62.5471 57.4162 62.2951 56.0573L62.2932 56.0449C62.1926 55.5457 62.228 55.0287 62.3957 54.548L62.3986 54.5374C62.8145 53.2954 63.0407 51.9652 63.0407 50.5833C63.0407 46.657 61.2208 43.1514 58.3784 40.8677C58.2803 40.7889 58.1676 40.7301 58.0468 40.6948C57.926 40.6595 57.7994 40.6484 57.6743 40.662C57.5492 40.6756 57.428 40.7137 57.3176 40.7742C57.2072 40.8347 57.1098 40.9163 57.0309 41.0144C56.8717 41.2125 56.7977 41.4658 56.8252 41.7184C56.8527 41.9711 56.9794 42.2025 57.1776 42.3618Z" fill="white"/>
</g>
<defs>
<clipPath id="clip0_117_1743">
<rect width="46" height="46" fill="white" transform="translate(18 18)"/>
</clipPath>
</defs>
</svg>
