<svg width="83" height="82" viewBox="0 0 83 82" fill="none" xmlns="http://www.w3.org/2000/svg">
<rect x="0.00585938" width="82.0068" height="81.8679" rx="40.934" fill="#15C3EE"/>
<path d="M55.1152 30.6498V36.2501V36.4001V30.6498ZM55.1152 30.6498C55.1156 30.0153 54.6115 29.5004 53.9893 29.5001L55.1152 30.6498ZM54.9652 36.5501V36.4001V30.6498V30.6497C54.9655 30.0952 54.5258 29.6504 53.9893 29.6501H44.97C44.4334 29.6501 43.9931 30.0949 43.9931 30.6498C43.9931 31.205 44.4334 31.6498 44.97 31.6498H52.8605H53.0105V31.7998V36.3999V36.5499H52.8605H23.5537C22.2229 36.5499 21.1492 35.4502 21.1492 34.1C21.1492 32.7496 22.2228 31.6499 23.5537 31.6499H33.6985C34.2355 31.6499 34.6757 31.2051 34.6757 30.6498C34.6757 30.0945 34.2355 29.6498 33.6985 29.6498L23.5539 29.6498C21.1503 29.652 19.1973 31.6402 19.1949 34.1C19.1949 34.1 19.1949 34.1001 19.1949 34.1001L19.0449 34.0999L54.9652 36.5501ZM54.9652 36.5501H55.1152M54.9652 36.5501H55.1152M55.1152 36.5501H58.4885L58.4885 36.5502L58.4979 36.5502C59.0346 36.5505 59.4742 36.9953 59.4738 37.5499V37.55M55.1152 36.5501L59.4738 37.55M59.4738 37.55V62.8497C59.4738 63.4051 59.0335 63.8499 58.4966 63.8499H23.5539C21.1502 63.8471 19.1976 61.8593 19.1949 59.3997L59.4738 37.55ZM23.5536 61.8502H23.5537L57.3698 61.8501L57.5198 61.8501V61.7001V54.8001V54.6501H57.3698H49.4793C48.9426 54.6501 48.5023 54.2052 48.5023 53.6502V46.7489C48.5026 46.1941 48.9429 45.7499 49.4792 45.7502H49.4793H57.3698H57.5198V45.6002V38.7001V38.5501H57.3698H23.5543C22.7878 38.5455 22.0362 38.3322 21.3771 37.9321L21.1492 37.7937V38.0603V59.4001L21.1492 59.4002C21.1506 60.7499 22.2234 61.8487 23.5536 61.8502ZM57.3693 52.6502H57.5193V52.5002V47.8999V47.7499H57.3693H50.6064H50.4564V47.8999V52.5002V52.6502H50.6064H57.3693Z" fill="white" stroke="#15C3EE" stroke-width="0.3"/>
<path d="M34.5524 24.3322V24.3318L34.3076 24.5317C33.887 24.875 33.2733 24.8062 32.9356 24.3756L32.9356 24.3756C32.5964 23.9431 32.6659 23.312 33.0885 22.9672L33.0886 22.9672L38.7242 18.3675C38.7243 18.3674 38.7243 18.3674 38.7244 18.3673C38.8982 18.2264 39.1131 18.1501 39.3342 18.1501C39.5553 18.1501 39.7703 18.2264 39.9441 18.3673C39.9441 18.3674 39.9442 18.3674 39.9442 18.3675L45.5796 22.967L45.5796 22.967C46.0023 23.3119 46.0718 23.9431 45.7328 24.3754C45.3949 24.8062 44.7811 24.8749 44.3606 24.5315L44.3606 24.5315L40.556 21.4256L40.3112 21.2257V21.5418V32.95C40.3112 33.5052 39.8709 33.95 39.3342 33.95C38.7973 33.95 38.357 33.5051 38.357 32.9499V21.5419V21.2257L38.1121 21.4257L34.5524 24.3322Z" fill="white" stroke="#15C3EE" stroke-width="0.3"/>
</svg>
