<svg width="83" height="82" viewBox="0 0 83 82" fill="none" xmlns="http://www.w3.org/2000/svg">
<rect x="0.0136719" width="82.0068" height="81.8679" rx="40.934" fill="#15C3EE"/>
<g clip-path="url(#clip0_117_1757)">
<path d="M54.033 37.9333C48.5376 37.9333 44.0664 42.4045 44.0664 47.9C44.0664 53.3955 48.5376 57.8666 54.033 57.8666C59.5285 57.8666 63.9997 53.3955 63.9997 47.9C63.9997 42.4045 59.5285 37.9333 54.033 37.9333ZM54.033 56.3333C49.3832 56.3333 45.5997 52.5498 45.5997 47.9C45.5997 43.2501 49.3832 39.4666 54.033 39.4666C58.6829 39.4666 62.4664 43.2501 62.4664 47.9C62.4663 52.5498 58.6828 56.3333 54.033 56.3333Z" fill="white"/>
<path d="M54.0338 43.3C51.4969 43.3 49.4338 45.3631 49.4338 47.9C49.4338 50.4369 51.4969 52.5 54.0338 52.5C56.5707 52.5 58.6338 50.4369 58.6338 47.9C58.6338 45.3631 56.5707 43.3 54.0338 43.3ZM54.0338 50.9666C52.3425 50.9666 50.9672 49.5912 50.9672 47.9C50.9672 46.2087 52.3426 44.8333 54.0338 44.8333C55.7251 44.8333 57.1005 46.2088 57.1005 47.9C57.1005 49.5913 55.725 50.9666 54.0338 50.9666ZM26.4338 46.3666C24.7425 46.3666 23.3672 47.742 23.3672 49.4333C23.3672 51.1245 24.7425 52.5 26.4338 52.5C28.125 52.5 29.5005 51.1246 29.5005 49.4334C29.5005 47.742 28.125 46.3666 26.4338 46.3666ZM26.4338 50.9666C25.5882 50.9666 24.9005 50.279 24.9005 49.4333C24.9005 48.5877 25.5881 47.8999 26.4338 47.8999C27.2794 47.8999 27.9672 48.5876 27.9672 49.4333C27.9671 50.279 27.2794 50.9666 26.4338 50.9666Z" fill="white"/>
<path d="M59.4 32.5666H56.502L55.7354 28.7333H56.3334C56.434 28.7333 56.5338 28.7135 56.6268 28.675C56.7198 28.6365 56.8043 28.58 56.8755 28.5088C56.9467 28.4376 57.0032 28.3531 57.0417 28.2601C57.0802 28.167 57.1 28.0673 57.1 27.9666V24.9C57.1 24.7993 57.0802 24.6996 57.0417 24.6066C57.0032 24.5135 56.9467 24.429 56.8755 24.3578C56.8043 24.2866 56.7198 24.2302 56.6268 24.1916C56.5338 24.1531 56.434 24.1333 56.3334 24.1334H40.2334C38.1197 24.1334 36.4 25.853 36.4 27.9667C36.4 28.0674 36.4198 28.1671 36.4583 28.2601C36.4968 28.3532 36.5533 28.4377 36.6245 28.5089C36.6957 28.5801 36.7802 28.6366 36.8732 28.6751C36.9662 28.7136 37.066 28.7334 37.1666 28.7334H38.6233L37.9654 35.6395C37.9539 35.6395 37.9448 35.6334 37.9333 35.6334H29.5C26.5851 35.6334 24.3733 38.549 24.1548 41.3213C20.6097 42.3186 18 45.5731 18 49.4334C18 54.0832 21.7835 57.8667 26.4334 57.8667C30.5595 57.8667 33.9965 54.8859 34.7203 50.9667H41.9822C42.0949 50.9667 42.2063 50.9418 42.3083 50.8938C42.4104 50.8459 42.5006 50.776 42.5725 50.6892C42.6446 50.6024 42.6965 50.5008 42.7246 50.3916C42.7527 50.2823 42.7563 50.1683 42.7351 50.0575C42.6007 49.3462 42.5332 48.6239 42.5335 47.9001C42.5335 41.559 47.6924 36.4001 54.0335 36.4001C57.3309 36.4001 60.4743 37.8192 62.6585 40.2932C62.8685 40.5316 63.2066 40.6137 63.5041 40.5025C63.6498 40.4475 63.7752 40.3495 63.8639 40.2214C63.9525 40.0934 64 39.9414 64.0001 39.7857V37.1667C64 34.6298 61.9369 32.5666 59.4 32.5666ZM26.4334 56.3334C22.6292 56.3334 19.5334 53.2383 19.5334 49.4334C19.5334 45.6284 22.6292 42.5334 26.4334 42.5334C30.2375 42.5334 33.3334 45.6284 33.3334 49.4334C33.3334 53.2383 30.2375 56.3334 26.4334 56.3334ZM41.0897 49.4334H34.8666C34.8666 44.7835 31.0831 41 26.4333 41C26.1979 41 25.9656 41.0161 25.7348 41.0353C25.8299 40.4933 26.0239 39.9459 26.2975 39.4391C26.3435 39.4476 26.3849 39.4667 26.4332 39.4667H27.9665C28.3897 39.4667 28.7332 39.1241 28.7332 38.7001C28.7332 38.2761 28.3897 37.9335 27.9665 37.9335H27.5242C28.1007 37.4643 28.7753 37.1668 29.4998 37.1668H37.8204L37.1703 43.994C37.1603 44.1004 37.1726 44.2077 37.2064 44.309C37.2402 44.4104 37.2948 44.5037 37.3666 44.5828C37.4384 44.6618 37.5258 44.7249 37.6234 44.768C37.721 44.8112 37.8265 44.8335 37.9332 44.8335H41.3793C41.1403 45.8185 41 46.842 41 47.9C41 48.4121 41.0299 48.925 41.0897 49.4334ZM54.0334 34.8666C48.4613 34.8666 43.7087 38.388 41.8479 43.3161C41.8204 43.313 41.7958 43.3 41.7666 43.3H38.7766L40.1643 28.7334H54.1713L55.4141 34.9479C54.9571 34.8996 54.4971 34.8666 54.0334 34.8666ZM55.5666 27.2H38.0644C38.3811 26.3076 39.2336 25.6666 40.2334 25.6666H55.5667V27.2H55.5666ZM62.4666 37.9632C60.895 36.63 59.0289 35.7023 57.0341 35.2292L56.8086 34.0999H59.4C61.0913 34.0999 62.4666 35.4753 62.4666 37.1665V37.9632Z" fill="white"/>
</g>
<defs>
<clipPath id="clip0_117_1757">
<rect width="46" height="46" fill="white" transform="translate(18 18)"/>
</clipPath>
</defs>
</svg>
