<svg width="27" height="28" viewBox="0 0 27 28" fill="none" xmlns="http://www.w3.org/2000/svg">
<g clip-path="url(#clip0_76_49720)">
<path d="M25.875 24.9531H24.75V10.3281C24.75 10.0298 24.6315 9.74361 24.4205 9.53263C24.2095 9.32165 23.9234 9.20312 23.625 9.20312H19.125C18.8266 9.20312 18.5405 9.32165 18.3295 9.53263C18.1185 9.74361 18 10.0298 18 10.3281V24.9531H16.875V14.8281C16.875 14.5298 16.7565 14.2436 16.5455 14.0326C16.3345 13.8217 16.0484 13.7031 15.75 13.7031H11.25C10.9516 13.7031 10.6655 13.8217 10.4545 14.0326C10.2435 14.2436 10.125 14.5298 10.125 14.8281V24.9531H9V18.2031C9 17.9048 8.88147 17.6186 8.67049 17.4076C8.45952 17.1967 8.17337 17.0781 7.875 17.0781H3.375C3.07663 17.0781 2.79048 17.1967 2.5795 17.4076C2.36853 17.6186 2.25 17.9048 2.25 18.2031V24.9531H1.125C0.826631 24.9531 0.540483 25.0717 0.329505 25.2826C0.118526 25.4936 0 25.7798 0 26.0781C0 26.3765 0.118526 26.6626 0.329505 26.8736C0.540483 27.0846 0.826631 27.2031 1.125 27.2031H25.875C26.1734 27.2031 26.4595 27.0846 26.6705 26.8736C26.8815 26.6626 27 26.3765 27 26.0781C27 25.7798 26.8815 25.4936 26.6705 25.2826C26.4595 25.0717 26.1734 24.9531 25.875 24.9531ZM4.5 12.5781C11.2601 12.5781 17.2564 7.39863 20.25 4.29138V5.82812C20.25 6.12649 20.3685 6.41264 20.5795 6.62362C20.7905 6.8346 21.0766 6.95312 21.375 6.95312C21.6734 6.95312 21.9595 6.8346 22.1705 6.62362C22.3815 6.41264 22.5 6.12649 22.5 5.82812V1.32812C22.4889 1.03331 22.3668 0.753589 22.1581 0.544976C21.9495 0.336363 21.6698 0.214262 21.375 0.203125L16.875 0.203125C16.5766 0.203125 16.2905 0.321651 16.0795 0.53263C15.8685 0.743608 15.75 1.02976 15.75 1.32812C15.75 1.62649 15.8685 1.91264 16.0795 2.12362C16.2905 2.3346 16.5766 2.45312 16.875 2.45312H18.882C16.2248 5.25663 10.5806 10.3281 4.5 10.3281C4.20163 10.3281 3.91548 10.4467 3.7045 10.6576C3.49353 10.8686 3.375 11.1548 3.375 11.4531C3.375 11.7515 3.49353 12.0376 3.7045 12.2486C3.91548 12.4596 4.20163 12.5781 4.5 12.5781Z" fill="url(#paint0_linear_76_49720)"/>
</g>
<defs>
<linearGradient id="paint0_linear_76_49720" x1="5.83298" y1="25.067" x2="19.1561" y2="2.38853" gradientUnits="userSpaceOnUse">
<stop stop-color="#00AAE3"/>
<stop offset="1" stop-color="#58C3BD"/>
</linearGradient>
<clipPath id="clip0_76_49720">
<rect width="27" height="27" fill="white" transform="translate(0 0.203125)"/>
</clipPath>
</defs>
</svg>
