<svg width="32" height="32" viewBox="0 0 32 32" fill="none" xmlns="http://www.w3.org/2000/svg">
<path d="M29.21 11.8405C28.6265 11.7557 28.0696 11.5404 27.5809 11.2106C27.0921 10.8808 26.684 10.445 26.387 9.93557C26.0901 9.42618 25.9118 8.85636 25.8656 8.26853C25.8193 7.68071 25.9063 7.09003 26.12 6.54048C26.2559 6.1812 26.2759 5.78842 26.1772 5.4172C26.0786 5.04598 25.8663 4.71494 25.57 4.47048C24.2621 3.37214 22.7733 2.50932 21.17 1.92048C20.8049 1.78486 20.4064 1.76792 20.0311 1.87206C19.6558 1.9762 19.323 2.19612 19.08 2.50048C18.7143 2.96813 18.2469 3.34636 17.7132 3.60649C17.1796 3.86662 16.5937 4.0018 16 4.0018C15.4063 4.0018 14.8205 3.86662 14.2868 3.60649C13.7532 3.34636 13.2857 2.96813 12.92 2.50048C12.677 2.19612 12.3442 1.9762 11.9689 1.87206C11.5937 1.76792 11.1951 1.78486 10.83 1.92048C9.34969 2.46412 7.96561 3.24055 6.73002 4.22048C6.41857 4.46704 6.19423 4.80684 6.08986 5.19013C5.98549 5.57341 6.00657 5.98004 6.15002 6.35048C6.38078 6.91457 6.47612 7.52488 6.42839 8.13248C6.38067 8.74007 6.19121 9.32802 5.87522 9.84916C5.55923 10.3703 5.1255 10.8101 4.60881 11.1334C4.09213 11.4566 3.50689 11.6543 2.90002 11.7105C2.50603 11.7526 2.13597 11.9201 1.84433 12.1884C1.55269 12.4566 1.35488 12.8114 1.28002 13.2005C1.09382 14.1222 1.00002 15.0602 1.00002 16.0005C0.998653 16.7877 1.0622 17.5737 1.19002 18.3505C1.25364 18.752 1.44777 19.1215 1.7424 19.4017C2.03704 19.6818 2.41576 19.8571 2.82002 19.9005C3.44022 19.9587 4.03745 20.1646 4.56173 20.501C5.08601 20.8374 5.52208 21.2945 5.83345 21.834C6.14482 22.3735 6.32243 22.9797 6.35141 23.602C6.38039 24.2242 6.2599 24.8444 6.00002 25.4105C5.82995 25.7787 5.78776 26.1932 5.88016 26.5882C5.97256 26.9831 6.19424 27.3359 6.51002 27.5905C7.81014 28.6689 9.28459 29.5177 10.87 30.1005C11.0728 30.1707 11.2855 30.2078 11.5 30.2105C11.7942 30.2098 12.0839 30.1387 12.3449 30.003C12.6059 29.8672 12.8306 29.6709 13 29.4305C13.3564 28.9112 13.8342 28.4867 14.3919 28.194C14.9495 27.9012 15.5702 27.749 16.2 27.7505C16.8103 27.7513 17.4119 27.8945 17.957 28.1688C18.5022 28.4431 18.9757 28.8409 19.34 29.3305C19.5823 29.6562 19.9256 29.8926 20.3162 30.003C20.7069 30.1133 21.1231 30.0913 21.5 29.9405C22.9497 29.357 24.2993 28.5506 25.5 27.5505C25.8016 27.3011 26.0164 26.9625 26.1134 26.5834C26.2105 26.2042 26.1848 25.8041 26.04 25.4405C25.8048 24.8837 25.7023 24.2798 25.7405 23.6765C25.7786 23.0733 25.9565 22.4872 26.2601 21.9645C26.5636 21.4417 26.9845 20.9967 27.4895 20.6646C27.9945 20.3324 28.5698 20.1222 29.17 20.0505C29.5592 19.9967 29.9212 19.8203 30.2034 19.5471C30.4857 19.2738 30.6736 18.9177 30.74 18.5305C30.9006 17.6964 30.9876 16.8498 31 16.0005C31.0002 15.1046 30.9165 14.2107 30.75 13.3305C30.6825 12.9518 30.4974 12.604 30.2209 12.3365C29.9445 12.069 29.5907 11.8955 29.21 11.8405ZM21 16.0005C21 16.9894 20.7068 17.9561 20.1574 18.7783C19.608 19.6006 18.8271 20.2414 17.9134 20.6199C16.9998 20.9983 15.9945 21.0973 15.0246 20.9044C14.0547 20.7115 13.1638 20.2353 12.4645 19.536C11.7652 18.8367 11.289 17.9458 11.0961 16.9759C10.9032 16.006 11.0022 15.0007 11.3806 14.0871C11.7591 13.1734 12.3999 12.3925 13.2222 11.8431C14.0444 11.2937 15.0111 11.0005 16 11.0005C17.3261 11.0005 18.5979 11.5273 19.5356 12.4649C20.4732 13.4026 21 14.6744 21 16.0005Z" fill="url(#paint0_linear_76_49712)"/>
<defs>
<linearGradient id="paint0_linear_76_49712" x1="7.4811" y1="27.9631" x2="21.1149" y2="3.45326" gradientUnits="userSpaceOnUse">
<stop stop-color="#00AAE3"/>
<stop offset="1" stop-color="#58C3BD"/>
</linearGradient>
</defs>
</svg>
