<svg width="31" height="28" viewBox="0 0 31 28" fill="none" xmlns="http://www.w3.org/2000/svg">
<g clip-path="url(#clip0_76_49715)">
<path d="M6.42999 24.8826C6.47998 24.8926 6.53003 24.8926 6.58002 24.8926H7.44V20.2626C7.44 18.9426 8.46997 17.8526 9.77002 17.7726C10.02 14.8326 12.5 12.5126 15.5 12.5126C18.5 12.5126 20.98 14.8326 21.23 17.7726C22.53 17.8526 23.56 18.9426 23.56 20.2626V24.8926H24.42C24.47 24.8926 24.52 24.8926 24.57 24.8826C27.95 24.3826 30.5 21.4126 30.5 17.9726C30.5 14.2826 27.62 11.2526 23.99 10.9926C23.78 9.09266 22.93 7.32264 21.54 5.93262C19.92 4.31262 17.77 3.43262 15.5 3.43262C11.12 3.43262 7.5 6.74262 7.01001 10.9926C3.38 11.2526 0.5 14.2826 0.5 17.9726C0.5 21.4126 3.04999 24.3826 6.42999 24.8826Z" fill="url(#paint0_linear_76_49715)"/>
<path d="M15.5004 14.0127C13.1604 14.0127 11.2504 15.9227 11.2504 18.2627V19.2627H9.94043C9.39044 19.2627 8.94043 19.7127 8.94043 20.2627V27.9727C8.94043 28.5327 9.39044 28.9727 9.94043 28.9727H21.0604C21.6104 28.9727 22.0604 28.5327 22.0604 27.9727V20.2627C22.0604 19.7127 21.6104 19.2627 21.0604 19.2627H19.7504V18.2627C19.7504 15.9227 17.8405 14.0127 15.5004 14.0127ZM17.7504 19.2627H13.2504V18.2627C13.2504 17.0227 14.2604 16.0127 15.5004 16.0127C16.7404 16.0127 17.7504 17.0227 17.7504 18.2627V19.2627Z" fill="url(#paint1_linear_76_49715)"/>
</g>
<defs>
<linearGradient id="paint0_linear_76_49715" x1="6.98109" y1="23.1948" x2="15.641" y2="2.58784" gradientUnits="userSpaceOnUse">
<stop stop-color="#00AAE3"/>
<stop offset="1" stop-color="#58C3BD"/>
</linearGradient>
<linearGradient id="paint1_linear_76_49715" x1="11.7748" y1="27.7891" x2="19.5902" y2="16.1221" gradientUnits="userSpaceOnUse">
<stop stop-color="#00AAE3"/>
<stop offset="1" stop-color="#58C3BD"/>
</linearGradient>
<clipPath id="clip0_76_49715">
<rect width="31" height="27" fill="white" transform="translate(0 0.203125)"/>
</clipPath>
</defs>
</svg>
