<svg width="612" height="619" viewBox="0 0 612 619" fill="none" xmlns="http://www.w3.org/2000/svg">
<g clip-path="url(#clip0_5_121)">
<path d="M47.747 162.679C70.186 137.586 114.414 117.846 152.914 98.346C194.718 77.173 233.158 51.225 271.747 27.679C293.279 14.541 312.331 2.21501 332.747 1.17901C364.442 -0.428987 389.546 9.03701 415.247 20.179C445.497 33.293 475.377 49.541 500.247 64.679C560.05 101.081 601.154 154.597 608.747 196.179C619.247 253.679 584.747 268.179 588.747 318.679C591.968 359.344 614.747 397.179 599.747 440.179C595.829 451.41 581.747 510.679 520.247 544.179C467.002 573.182 389.247 616.679 348.747 617.179C289.834 617.906 255.115 599.993 241.747 597.179C222.747 593.179 161.747 589.179 138.747 582.179C126.92 578.579 110.756 566.533 89.247 548.179C68.928 530.841 43.291 508.414 30.247 464.179C18.747 425.179 -4.64396 334.951 2.24704 270.679C7.35204 223.072 29.147 183.479 47.747 162.679Z" stroke="#D6D4E2" stroke-width="2" stroke-linecap="round" stroke-linejoin="round" stroke-dasharray="1 5"/>
</g>
<defs>
<clipPath id="clip0_5_121">
<rect width="611.745" height="618.2" fill="white"/>
</clipPath>
</defs>
</svg>
