<svg width="48" height="48" viewBox="0 0 48 48" fill="none" xmlns="http://www.w3.org/2000/svg">
<path d="M43.4112 32.8466C42.368 30.9635 40.8649 29.3754 39.042 28.2302L32.5195 24.1385C33.6097 22.6399 34.2539 20.7971 34.2539 18.8062V6.15234C34.2539 2.75994 31.494 0 28.1016 0H19.8984C16.506 0 13.7461 2.75994 13.7461 6.15234V18.8062C13.7461 20.797 14.3903 22.6399 15.4804 24.1384L8.95793 28.2302C7.13897 29.3714 5.62812 30.9677 4.5887 32.8466C3.54928 34.7255 3 36.8538 3 39.001V40.7695C3 41.4491 3.55092 42 4.23047 42H43.7695C44.4491 42 45 41.4491 45 40.7695V39.001C45 36.8538 44.4506 34.7256 43.4112 32.8466ZM17.3555 32.5664C18.0339 32.5664 18.5859 33.1184 18.5859 33.7969C18.5859 34.4754 18.0339 35.0273 17.3555 35.0273C16.677 35.0273 16.125 34.4754 16.125 33.7969C16.125 33.1184 16.677 32.5664 17.3555 32.5664ZM16.207 16.2306H31.793V18.8062C31.793 22.4584 28.8217 25.4297 25.1695 25.4297H22.8304C19.1783 25.4297 16.207 22.4584 16.207 18.8062V16.2306ZM19.8984 2.46094H28.1016C30.137 2.46094 31.793 4.1169 31.793 6.15234V13.7697H16.207V6.15234C16.207 4.1169 17.863 2.46094 19.8984 2.46094ZM42.5391 39.5391H5.46094V39.001C5.46094 35.4494 7.25709 32.2023 10.2658 30.3148L16.166 26.6134V30.3032C14.7126 30.7995 13.6641 32.1776 13.6641 33.7969C13.6641 35.8323 15.32 37.4883 17.3555 37.4883C19.3909 37.4883 21.0469 35.8323 21.0469 33.7969C21.0469 32.208 20.0378 30.8505 18.627 30.3312V26.8576C19.8847 27.5169 21.3146 27.8906 22.8305 27.8906H25.1696C26.7229 27.8906 28.1863 27.4984 29.4663 26.8084L29.4878 30.0234H28.0195C26.4364 30.0234 25.1484 31.3114 25.1484 32.8945V35.0273C25.1484 36.1581 26.0684 37.0781 27.1992 37.0781H28.4297C29.1092 37.0781 29.6602 36.5272 29.6602 35.8477C29.6602 35.1681 29.1092 34.6172 28.4297 34.6172H27.6094V32.8945C27.6094 32.6684 27.7934 32.4844 28.0195 32.4844H33.2695C33.4957 32.4844 33.6797 32.6684 33.6797 32.8945V34.6172H32.8594C32.1798 34.6172 31.6289 35.1681 31.6289 35.8477C31.6289 36.5272 32.1798 37.0781 32.8594 37.0781H34.0898C35.2206 37.0781 36.1406 36.1581 36.1406 35.0273V32.8945C36.1406 31.3114 34.8527 30.0234 33.2695 30.0234H31.9488L31.9264 26.6714L37.7342 30.3149C40.7429 32.2023 42.5391 35.4495 42.5391 39.001V39.5391Z" fill="#04324B"/>
<path d="M21.9492 9.35156H22.7695V10.1719C22.7695 10.8514 23.3205 11.4023 24 11.4023C24.6795 11.4023 25.2305 10.8514 25.2305 10.1719V9.35156H26.0508C26.7303 9.35156 27.2812 8.80064 27.2812 8.12109C27.2812 7.44155 26.7303 6.89062 26.0508 6.89062H25.2305V6.07031C25.2305 5.39077 24.6795 4.83984 24 4.83984C23.3205 4.83984 22.7695 5.39077 22.7695 6.07031V6.89062H21.9492C21.2697 6.89062 20.7188 7.44155 20.7188 8.12109C20.7188 8.80064 21.2697 9.35156 21.9492 9.35156Z" fill="#04324B"/>
</svg>
