<svg width="48" height="48" viewBox="0 0 48 48" fill="none" xmlns="http://www.w3.org/2000/svg">
<path d="M21.5846 1.91009L21.5848 1.91042L33.1833 28.2254L33.1837 28.2265C33.7003 29.3911 33.1542 30.7862 31.9501 31.3048C30.7472 31.823 29.3565 31.2728 28.8355 30.0826L28.835 30.0815L26.3086 24.3477L26.1771 24.0493H25.851H13.0468H12.7207L12.5892 24.3477L10.0644 30.0779C10.0641 30.0785 10.0639 30.0791 10.0636 30.0797C9.66762 30.9577 8.79705 31.4919 7.8791 31.4919C7.56506 31.4919 7.25186 31.4301 6.93455 31.2885L6.93457 31.2884L6.92854 31.2858C5.72475 30.7673 5.17724 29.3904 5.69583 28.2054C5.69585 28.2054 5.69588 28.2053 5.6959 28.2052L17.2175 1.91009C17.2175 1.90998 17.2176 1.90987 17.2176 1.90976C17.5957 1.05066 18.4473 0.5 19.4011 0.5C20.3549 0.5 21.2066 1.0508 21.5846 1.91009ZM15.058 18.6332L14.7499 19.3344H15.5157H23.3246H24.0905L23.7824 18.6332L19.878 9.74766L19.4202 8.70592L18.9624 9.74766L15.058 18.6332ZM37.7582 13.6891C37.7582 12.3932 38.8129 11.3412 40.1291 11.3412C41.4453 11.3412 42.5 12.3932 42.5 13.6891V29.1439C42.5 30.4399 41.4453 31.4919 40.1291 31.4919C38.8129 31.4919 37.7582 30.4399 37.7582 29.1439V13.6891ZM37.7582 3.91117C37.7582 2.61523 38.8129 1.56323 40.1291 1.56323C41.4453 1.56323 42.5 2.61523 42.5 3.91117V4.67062C42.5 5.96656 41.4453 7.01856 40.1291 7.01856C38.8129 7.01856 37.7582 5.96656 37.7582 4.67062V3.91117Z" fill="#15415A" stroke="#EBF7FE"/>
</svg>
