<svg width="48" height="48" viewBox="0 0 48 48" fill="none" xmlns="http://www.w3.org/2000/svg">
<path d="M43.0161 14.1829C41.7498 13.001 40.0613 12.2412 38.2462 12.2412H32.7166V6.71156C32.7166 4.85427 31.9568 3.20804 30.7327 1.98392C29.5085 0.759799 27.8623 0 26.005 0H21.9106C20.0533 0 18.407 0.759799 17.1829 1.98392C15.9588 3.20804 15.199 4.85427 15.199 6.71156V12.2412H9.71156C7.85427 12.2412 6.20804 13.001 4.98392 14.2251C3.7598 15.4492 3 17.0955 3 18.9528V23.0472C3 24.9045 3.7598 26.5508 4.98392 27.7749C6.20804 28.999 7.85427 29.7588 9.71156 29.7588H15.2412V35.2884C15.2412 37.1457 16.001 38.792 17.2251 40.0161C18.4492 41.2402 20.0955 42 21.9528 42H26.0472C27.9045 42 29.5508 41.2402 30.7749 40.0161C31.999 38.792 32.7588 37.1457 32.7588 35.2884V29.7166H38.2884C40.1457 29.7166 41.792 28.9568 43.0161 27.7327C44.2402 26.5085 45 24.8623 45 23.005V18.9106C45 17.0533 44.2402 15.407 43.0161 14.1829ZM41.9608 23.0472H41.9186C41.9186 24.0603 41.4965 24.9889 40.8211 25.6643C40.1457 26.3397 39.2171 26.7618 38.204 26.7618H31.2392C30.395 26.7618 29.7196 27.4372 29.7196 28.2814V35.2884C29.7196 36.3015 29.2975 37.2302 28.6221 37.9055C27.9467 38.5809 27.0181 39.003 26.005 39.003H21.9106C20.8975 39.003 19.9688 38.5809 19.2935 37.9055C18.6181 37.2302 18.196 36.3015 18.196 35.2884V28.2392C18.196 27.395 17.5206 26.7196 16.7186 26.7196H9.71156C8.69849 26.7196 7.76985 26.2975 7.09447 25.6221C6.4191 24.9467 5.99698 24.0181 5.99698 23.005V18.9106C5.99698 17.8975 6.4191 16.9688 7.09447 16.2935C7.76985 15.6181 8.69849 15.196 9.71156 15.196H16.7186C17.5628 15.196 18.196 14.5206 18.196 13.7186V6.71156C18.196 5.69849 18.6181 4.76985 19.2935 4.09447C19.9688 3.4191 20.8975 2.99698 21.9106 2.99698H26.005C27.0181 2.99698 27.9467 3.4191 28.6221 4.09447C29.2975 4.76985 29.7196 5.69849 29.7196 6.71156V13.7186C29.7196 14.5628 30.395 15.196 31.2392 15.196H38.2462C39.2593 15.196 40.1879 15.6181 40.8633 16.2935C41.5387 16.9688 41.9608 17.8975 41.9608 18.9106V23.0472Z" fill="#15415A"/>
</svg>
