<svg width="48" height="48" viewBox="0 0 48 48" fill="none" xmlns="http://www.w3.org/2000/svg">
<path d="M3.83996 4.38401L40.3015 4.38387C40.3077 4.38397 40.3138 4.38401 40.32 4.38401H44.16C44.3516 4.38401 44.5349 4.45951 44.6698 4.59326C44.8046 4.72695 44.88 4.90783 44.88 5.09601V31.752C44.88 31.9402 44.8046 32.1211 44.6698 32.2548C44.5349 32.3885 44.3516 32.464 44.16 32.464H3.83996C3.64836 32.464 3.465 32.3885 3.33013 32.2548C3.19533 32.1211 3.11996 31.9402 3.11996 31.752V5.09601C3.11996 4.90783 3.19533 4.72695 3.33013 4.59326C3.46501 4.45951 3.64836 4.38401 3.83996 4.38401ZM44.16 2.00001H41.5798C41.5736 1.99992 41.5674 1.99987 41.5611 1.99987L3.83996 2.00001C2.12147 2.00001 0.719961 3.38697 0.719961 5.09601V31.752C0.719961 33.4611 2.12147 34.848 3.83996 34.848H44.16C45.8785 34.848 47.28 33.4611 47.28 31.752V5.09601C47.28 3.38697 45.8785 2.00001 44.16 2.00001Z" fill="#15415A" stroke="#15415A" stroke-width="0.48"/>
<path d="M18.9196 33.6599V33.6584C18.9215 33.342 19.049 33.0395 19.2738 32.8161C19.4985 32.5928 19.8024 32.4666 20.1197 32.4641L20.1216 32.4641L27.84 32.4641C28.1563 32.4641 28.4602 32.5882 28.6852 32.81C28.91 33.0315 29.0377 33.3325 29.0399 33.6475C29.0417 33.744 29.1133 36.0904 31.5683 38.5233C31.7376 38.6894 31.8534 38.9019 31.9006 39.134C31.948 39.3664 31.9243 39.6075 31.8328 39.8264C31.7414 40.0452 31.5863 40.2318 31.3877 40.3623C31.1894 40.4927 30.9567 40.5615 30.7191 40.5601M18.9196 33.6599L30.72 40.3201M18.9196 33.6599C18.9196 33.7211 18.8988 36.0766 16.4314 38.5235C16.2631 38.6901 16.1481 38.9027 16.1015 39.1346C16.0549 39.3665 16.0787 39.6068 16.17 39.8252C16.2612 40.0435 16.4157 40.2297 16.6134 40.3604C16.811 40.4911 17.0432 40.5605 17.2804 40.5601M18.9196 33.6599L17.28 40.3201M30.7191 40.5601C30.7189 40.5601 30.7186 40.5601 30.7184 40.5601L30.72 40.3201M30.7191 40.5601H30.72V40.3201M30.7191 40.5601H17.2804M30.72 40.3201H17.28M17.2804 40.5601L17.28 40.3201M17.2804 40.5601H17.28V40.3201M28.2058 38.1761H19.7905C20.4506 37.1593 20.9207 36.0319 21.1772 34.8481H26.7974C27.0635 36.0324 27.5407 37.1594 28.2058 38.1761ZM1.91996 29.1361H46.08C46.3976 29.1361 46.7026 29.011 46.9278 28.7876C47.153 28.5643 47.28 28.2609 47.28 27.9441C47.28 27.6273 47.153 27.3239 46.9278 27.1005C46.7026 26.8772 46.3976 26.7521 46.08 26.7521H1.91996C1.60235 26.7521 1.29734 26.8772 1.07214 27.1005C0.846881 27.3239 0.719961 27.6273 0.719961 27.9441C0.719961 28.2609 0.846881 28.5643 1.07214 28.7876C1.29734 29.011 1.60235 29.1361 1.91996 29.1361Z" fill="#15415A" stroke="#15415A" stroke-width="0.48"/>
</svg>
