<svg width="48" height="48" viewBox="0 0 48 48" fill="none" xmlns="http://www.w3.org/2000/svg">
<path d="M16.6172 27.1328C16.6172 23.5954 19.0378 20.6395 22.3594 19.9186V15.2505C19.9791 14.5497 18.2578 12.3463 18.2578 9.74219C18.2578 6.57595 20.8338 4 24 4C27.1662 4 29.7422 6.57595 29.7422 9.74219C29.7422 12.3305 27.9987 14.5235 25.6406 15.2381V19.9492C28.8941 20.7202 31.3828 23.6437 31.3828 27.1329C31.3837 28.021 31.224 28.902 30.9113 29.7333L16.6172 27.1328ZM16.6172 27.1328C16.6163 28.0209 16.776 28.9019 17.0887 29.7331L16.6172 27.1328ZM35.492 33.0265L35.5858 33.0902L35.6727 33.0174C36.6443 32.2035 37.8946 31.7126 39.2578 31.7126C42.3412 31.7126 44.85 34.2214 44.85 37.3048C44.85 40.3882 42.3412 42.897 39.2578 42.897C36.1744 42.897 33.6656 40.3882 33.6656 37.3048C33.6655 36.7546 33.7467 36.2075 33.9068 35.6811L33.9389 35.5755L33.8476 35.5134L29.1852 32.346L29.0849 32.2779L28.9972 32.3617C27.6985 33.6033 25.9385 34.3657 24 34.3657C22.0615 34.3657 20.3015 33.6033 19.0028 32.3617L18.9151 32.2779L18.8148 32.346L14.1524 35.5134L14.0611 35.5755L14.0932 35.6811C14.2533 36.2075 14.3345 36.7546 14.3344 37.3047C14.3344 40.3882 11.8256 42.897 8.74219 42.897C5.65879 42.897 3.15 40.3882 3.15 37.3048C3.15 34.2214 5.65879 31.7126 8.74219 31.7126C10.1054 31.7126 11.3557 32.2035 12.3274 33.0172L12.4142 33.09L12.508 33.0263L17.173 29.8572L17.2707 29.7908L17.2291 29.6803C16.9228 28.866 16.7663 28.003 16.7672 27.133V27.1328C16.7672 23.6654 19.1391 20.771 22.3912 20.0652L22.5094 20.0395V19.9186V15.2505V15.1383L22.4017 15.1066C20.0842 14.4243 18.4078 12.2786 18.4078 9.74219C18.4078 6.65879 20.9166 4.15 24 4.15C27.0834 4.15 29.5922 6.65879 29.5922 9.74219C29.5922 12.2615 27.8948 14.3982 25.5971 15.0946L25.4906 15.1268V15.2381V19.9492V20.0678L25.606 20.0951C28.7955 20.851 31.2328 23.7168 31.2328 27.1329V27.133C31.2337 28.0031 31.0772 28.8661 30.7709 29.6805L30.7293 29.791L30.827 29.8574L35.492 33.0265ZM6.13125 37.3048C6.13125 38.7446 7.30238 39.9157 8.74219 39.9157C10.182 39.9157 11.3531 38.7446 11.3531 37.3048C11.3531 35.865 10.182 34.6938 8.74219 34.6938C7.30238 34.6938 6.13125 35.865 6.13125 37.3048ZM24 7.13133C22.5602 7.13133 21.3891 8.30247 21.3891 9.74227C21.3891 11.1821 22.5602 12.3532 24 12.3532C25.4398 12.3532 26.6109 11.1821 26.6109 9.74227C26.6109 8.30247 25.4398 7.13133 24 7.13133ZM19.7484 27.1329C19.7484 29.4773 21.6556 31.3845 24 31.3845C26.3444 31.3845 28.2516 29.4773 28.2516 27.1329C28.2516 24.7885 26.3444 22.8813 24 22.8813C21.6556 22.8813 19.7484 24.7885 19.7484 27.1329ZM36.6469 37.3048C36.6469 38.7446 37.818 39.9157 39.2578 39.9157C40.6976 39.9157 41.8688 38.7446 41.8688 37.3048C41.8688 35.865 40.6976 34.6938 39.2578 34.6938C37.818 34.6938 36.6469 35.865 36.6469 37.3048Z" fill="#04324B" stroke="#EBF7FE" stroke-width="0.3"/>
</svg>
