<svg width="162" height="162" viewBox="0 0 162 162" fill="none" xmlns="http://www.w3.org/2000/svg">
<g clip-path="url(#clip0_156_3898)">
<path fill-rule="evenodd" clip-rule="evenodd" d="M86.4768 106.033C86.3743 106.164 86.2718 106.295 86.1713 106.426C85.6074 104.572 84.9649 102.748 84.2438 100.956C82.8053 97.4111 81.0685 93.9946 79.052 90.7432C75.0259 84.2677 69.9033 78.541 63.9132 73.8192C60.9538 71.4646 57.7935 69.3738 54.4686 67.5708C51.1546 65.785 47.6946 64.2841 44.126 63.0842C37.7612 60.9546 31.0963 59.8563 24.384 59.8309C31.2407 59.8098 38.0548 60.9088 44.5566 63.0842C48.1253 64.2841 51.5853 65.785 54.8994 67.5708C58.224 69.3744 61.3842 71.4651 64.3439 73.8192C70.3326 78.5426 75.4548 84.2689 79.4826 90.7432C81.4992 93.9945 83.2361 97.411 84.6744 100.956C85.345 102.621 85.9458 104.314 86.4768 106.033Z" fill="#006837"/>
<path fill-rule="evenodd" clip-rule="evenodd" d="M114.591 86.2365L114.216 86.3001L113.513 85.5377C113.615 85.4948 113.72 85.4518 113.824 85.4067L114.591 86.2365Z" fill="#006837"/>
<path fill-rule="evenodd" clip-rule="evenodd" d="M9.76805 92.9928C9.50092 93.7651 9.02604 94.4489 8.39551 94.9693C7.74438 95.5026 6.95841 95.8457 6.1244 95.9607C5.294 96.1006 4.44107 96.0091 3.65935 95.6962C2.90208 95.3881 2.24402 94.8783 1.75693 94.2221C1.23949 93.5237 0.905987 92.7065 0.787045 91.8456C0.666613 91.131 0.695827 90.3993 0.87284 89.6965C1.03948 89.0495 1.35716 88.4512 1.79987 87.9505L3.22172 89.0827C2.93296 89.4034 2.72025 89.785 2.59937 90.1992C2.47849 90.6133 2.45256 91.0493 2.5235 91.4748C2.5934 91.9896 2.79607 92.4774 3.11163 92.8903C3.41127 93.2792 3.81501 93.5754 4.27611 93.7445C4.76509 93.9213 5.2917 93.968 5.8042 93.8799C6.31982 93.8107 6.80842 93.6081 7.22164 93.2923C7.61073 92.9932 7.90693 92.5901 8.07586 92.1295C8.25323 91.6409 8.29994 91.1144 8.21138 90.6022C8.1509 90.1739 7.99371 89.7649 7.75169 89.4062C7.50968 89.0476 7.18918 88.7486 6.81445 88.5319L7.83095 87.0249C8.41059 87.3674 8.89861 87.845 9.25331 88.4169C9.63321 89.0365 9.88105 89.7278 9.98134 90.4474C10.125 91.3003 10.0516 92.1756 9.76805 92.9928Z" fill="#006837"/>
<path fill-rule="evenodd" clip-rule="evenodd" d="M1.71704 79.1704L1.81971 82.0439L9.11156 81.7842L9.18495 83.8358L1.8931 84.0954L1.99494 86.9559L0.300917 87.016L0.0223389 79.2308L1.71704 79.1704Z" fill="#006837"/>
<path fill-rule="evenodd" clip-rule="evenodd" d="M0.710669 69.4438L7.50712 73.8105C8.0996 74.1677 8.59596 74.6639 8.9532 75.256C9.25761 75.7766 9.3949 76.3779 9.34656 76.9789C9.30084 77.4803 9.15768 77.9679 8.92509 78.4145L7.38961 77.7921C7.51039 77.5105 7.58993 77.213 7.62579 76.9088C7.64815 76.6663 7.60228 76.4223 7.49333 76.2045C7.36279 75.9629 7.17865 75.7545 6.95503 75.595L6.85859 75.5099L0 78.5282L0.173543 76.315L5.17442 74.31L0.551534 71.4788L0.710669 69.4438Z" fill="#006837"/>
<path fill-rule="evenodd" clip-rule="evenodd" d="M7.09799 66.3718C7.77681 66.6575 8.25407 66.974 8.52975 67.3214L9.37085 63.3934L3.89441 62.2225L3.24974 65.2344L4.52294 65.5462C5.39983 65.7599 6.26037 66.0358 7.09799 66.3718ZM10.0649 60.156L13.5438 60.8995L13.1408 62.7814L11.3194 62.3926L9.99199 68.5924L11.8136 68.9818L11.4108 70.8644L7.93356 70.1073L8.0088 69.7563C8.10505 69.2252 7.79958 68.7706 7.0924 68.3924C6.3849 68.014 5.33733 67.6502 3.9497 67.3009L1.22107 66.6121L2.66658 59.8608L9.80109 61.3852L10.0649 60.156Z" fill="#006837"/>
<path fill-rule="evenodd" clip-rule="evenodd" d="M3.66406 56.3505L4.38584 54.4143L9.87493 56.4566L5.8836 50.3967L6.56498 48.5693L14.9915 51.7055L14.2739 53.6292L8.7968 51.5911L12.7763 57.6468L12.0901 59.4859L3.66406 56.3505Z" fill="#006837"/>
<path fill-rule="evenodd" clip-rule="evenodd" d="M10.7099 44.9345C10.8039 45.3394 11.0882 45.6695 11.5629 45.9245C12.0231 46.1711 12.4486 46.2295 12.8393 46.0998C13.2298 45.97 13.5632 45.6486 13.8396 45.1358L14.7025 43.5312L11.8292 41.9877L10.9897 43.5474C10.7099 44.0674 10.6167 44.5298 10.7099 44.9345ZM11.3094 39.377L19.2291 43.6306L18.2555 45.4389L16.1511 44.309L15.2509 45.9817L16.6012 48.5136L15.5611 50.4471L14.0616 47.5141C13.5974 47.9141 13.0195 48.1588 12.4091 48.2141C11.7735 48.255 11.14 48.1074 10.5881 47.7898C10.0246 47.5068 9.55465 47.0675 9.23458 46.5246C8.94066 45.9962 8.80877 45.3931 8.85534 44.7904C8.91272 44.0867 9.12328 43.4041 9.47229 42.7902L11.3094 39.377Z" fill="#006837"/>
<path fill-rule="evenodd" clip-rule="evenodd" d="M20.2508 27.1504L27.2597 32.778L25.9721 34.3786L20.2849 29.8126L18.3539 32.2133L19.7757 33.4376C20.5755 34.103 21.3197 34.8323 22.0008 35.6185C22.5162 36.2408 22.8198 36.8331 22.9115 37.3956C23.0029 37.9577 22.8342 38.5053 22.4055 39.0385C22.1819 39.3034 21.9291 39.5421 21.6519 39.7503L20.3602 38.549C20.464 38.4776 20.5563 38.3906 20.6337 38.2912C20.9451 37.9049 20.9337 37.4512 20.5995 36.9303C20.2656 36.4098 19.6274 35.7383 18.6852 34.9159L15.9218 32.5327L20.2508 27.1504Z" fill="#006837"/>
<path fill-rule="evenodd" clip-rule="evenodd" d="M30.1436 25.073L26.7473 23.5426L28.066 27.024L30.1436 25.073ZM31.7028 25.775L28.661 28.6309L29.4008 30.5794L27.8471 32.038L24.6088 22.75L26.1063 21.3442L35.1944 25.1382L33.6027 26.6327L31.7028 25.775Z" fill="#006837"/>
<path fill-rule="evenodd" clip-rule="evenodd" d="M37.5033 12.5327L42.6765 19.881L40.9749 21.0772L38.8536 18.0647L35.5127 20.4126L37.634 23.4251L35.9317 24.6215L30.7585 17.2727L32.4601 16.0763L34.5006 18.9747L37.8417 16.6261L35.8017 13.7291L37.5033 12.5327Z" fill="#006837"/>
<path fill-rule="evenodd" clip-rule="evenodd" d="M45.1042 14.8014C45.3082 15.5082 45.3617 16.0782 45.2646 16.5114L48.8518 14.6969L46.3227 9.70414L43.5725 11.0955L44.1295 12.2808C44.5141 13.0967 44.8399 13.939 45.1042 14.8014ZM51.8086 13.2018L53.4158 16.3735L51.6962 17.2431L50.8551 15.5827L45.1938 18.4456L46.0342 20.106L44.3155 20.9755L42.7206 17.7971L43.0409 17.635C43.5146 17.3767 43.6768 16.8535 43.5277 16.0654C43.3784 15.2783 43.0037 14.2359 42.4036 12.938L41.2249 10.3837L47.3909 7.26562L50.6852 13.7696L51.8086 13.2018Z" fill="#006837"/>
<path fill-rule="evenodd" clip-rule="evenodd" d="M62.2153 2.18457L64.8568 10.7726L53.5115 14.2554L50.87 5.66866L52.847 5.06188L54.9899 12.0292L57.7037 11.1963L55.5605 4.22824L57.537 3.62079L59.6806 10.5888L62.3819 9.75953L60.2383 2.79168L62.2153 2.18457Z" fill="#006837"/>
<path fill-rule="evenodd" clip-rule="evenodd" d="M71.6662 6.33849L69.8011 3.11592L68.8393 6.713L71.6662 6.33849ZM72.5236 7.81808L68.385 8.36654L67.8484 10.3791L65.7352 10.6586L68.5266 1.22731L70.564 0.956543L75.7309 9.33437L73.5661 9.62193L72.5236 7.81808Z" fill="#006837"/>
<path fill-rule="evenodd" clip-rule="evenodd" d="M84.5281 6.53279C84.9795 6.15995 85.2119 5.62278 85.2251 4.9213C85.25 3.55188 84.3647 2.77419 82.5691 2.58824L82.4865 7.19557C83.3947 7.12593 84.0753 6.905 84.5281 6.53279ZM80.5722 7.16057L80.6556 2.55458C79.7373 2.62352 79.0547 2.8399 78.6077 3.20373C78.1595 3.5687 77.9293 4.10148 77.9171 4.80206C77.8929 6.15389 78.7779 6.94006 80.5722 7.16057ZM85.9642 7.75205C85.1429 8.41735 83.9737 8.77488 82.4566 8.82465L82.4391 9.79994L80.5256 9.76512L80.5431 8.77756C79.0204 8.66391 77.8607 8.25995 77.064 7.56569C76.267 6.87116 75.8793 5.9378 75.9009 4.7656C75.9219 3.58548 76.343 2.66685 77.164 2.0097C77.9859 1.35211 79.1595 0.990537 80.6847 0.924965L80.7015 0L82.6152 0.0353168L82.599 0.946811C84.1128 1.05951 85.2681 1.46538 86.0649 2.16443C86.8614 2.86235 87.2491 3.79751 87.2281 4.96992C87.2071 6.15943 86.7858 7.0868 85.9642 7.75205Z" fill="#006837"/>
<path fill-rule="evenodd" clip-rule="evenodd" d="M96.1875 3.63399L93.3452 3.18833L92.2123 10.3884L90.1818 10.0704L91.3147 2.86879L88.4846 2.42481L88.7482 0.751465L96.4511 1.96065L96.1875 3.63399Z" fill="#006837"/>
<path fill-rule="evenodd" clip-rule="evenodd" d="M106.52 4.74001L103.996 13.3627L101.999 12.7796L103.034 9.24409L99.1132 8.09864L98.0781 11.6335L96.0813 11.0503L98.6053 2.42676L100.602 3.01033L99.6069 6.41083L103.528 7.55645L104.523 4.15611L106.52 4.74001Z" fill="#006837"/>
<path fill-rule="evenodd" clip-rule="evenodd" d="M111.842 14.6137C112.328 14.5725 112.793 14.3973 113.185 14.1075C113.596 13.7901 113.923 13.3783 114.14 12.9072C114.356 12.436 114.456 11.9196 114.429 11.4018C114.394 10.9156 114.225 10.4488 113.939 10.0533C113.638 9.65132 113.241 9.33098 112.785 9.12148C112.328 8.91199 111.826 8.82 111.325 8.85391C110.839 8.89503 110.374 9.07056 109.982 9.3608C109.572 9.67784 109.244 10.0895 109.028 10.5606C108.811 11.0317 108.712 11.5482 108.738 12.0659C108.773 12.552 108.943 13.0188 109.228 13.4138C109.529 13.8159 109.926 14.1364 110.382 14.346C110.839 14.5556 111.341 14.6477 111.842 14.6137ZM107.601 14.3541C107.099 13.7033 106.786 12.9268 106.697 12.1099C106.62 11.278 106.764 10.4407 107.113 9.68155C107.462 8.9224 108.004 8.26799 108.686 7.78362C109.364 7.31949 110.158 7.05109 110.979 7.00786C111.855 6.97286 112.726 7.14506 113.522 7.51045C114.319 7.87583 115.017 8.42404 115.561 9.11037C116.064 9.77131 116.378 10.5564 116.469 11.3818C116.56 12.2071 116.425 13.0417 116.078 13.7962C115.731 14.5507 115.185 15.1968 114.499 15.6655C113.813 16.1341 113.012 16.4076 112.182 16.4568C111.307 16.4917 110.436 16.3194 109.64 15.954C108.843 15.5886 108.145 15.0404 107.601 14.3541Z" fill="#006837"/>
<path fill-rule="evenodd" clip-rule="evenodd" d="M124.538 15.7889L120.906 13.531L117.062 19.7264L115.306 18.6344L120.057 11.0073L125.445 14.3577L124.538 15.7889Z" fill="#006837"/>
<path fill-rule="evenodd" clip-rule="evenodd" d="M126.528 24.0152C127.01 24.0904 127.504 24.0299 127.953 23.8406C128.427 23.6292 128.843 23.3064 129.165 22.8997C129.487 22.493 129.705 22.0146 129.802 21.5052C129.883 21.0249 129.829 20.5315 129.645 20.0802C129.448 19.6185 129.138 19.2134 128.744 18.9019C128.35 18.5903 127.884 18.3822 127.389 18.2964C126.907 18.2218 126.414 18.2824 125.964 18.4715C125.49 18.6827 125.075 19.0055 124.753 19.412C124.431 19.8186 124.212 20.297 124.115 20.8064C124.034 21.287 124.089 21.7804 124.272 22.2319C124.469 22.6937 124.779 23.0989 125.173 23.4104C125.567 23.7219 126.033 23.9298 126.528 24.0152ZM122.469 22.7611C122.135 22.01 122.014 21.1816 122.12 20.3667C122.244 19.5405 122.582 18.7611 123.101 18.1061C123.62 17.4511 124.301 16.9434 125.078 16.6335C125.847 16.3423 126.682 16.2688 127.49 16.4211C128.349 16.5939 129.155 16.9672 129.842 17.5105C130.529 18.0538 131.078 18.7517 131.443 19.5473C131.776 20.3083 131.895 21.1453 131.788 21.9687C131.681 22.7922 131.352 23.5711 130.836 24.2222C130.321 24.8734 129.637 25.3722 128.86 25.6655C128.082 25.9588 127.24 26.0355 126.422 25.8873C125.563 25.7142 124.757 25.3408 124.07 24.7975C123.383 24.2542 122.835 23.5565 122.469 22.7611Z" fill="#006837"/>
<path fill-rule="evenodd" clip-rule="evenodd" d="M135.637 30.9528C134.998 31.3174 134.456 31.5033 134.012 31.5106L136.62 34.5679L140.882 30.9379L138.882 28.5936L137.86 29.4136C137.157 29.9791 136.414 30.4935 135.637 30.9528ZM138.77 37.0873L136.062 39.3942L134.812 37.9295L136.23 36.722L132.113 31.8962L130.696 33.1032L129.446 31.6379L132.163 29.3421L132.396 29.6154C132.759 30.0148 133.306 30.0494 134.036 29.7192C134.767 29.3887 135.694 28.7796 136.816 27.8918L139.023 26.147L143.506 31.4013L137.954 36.1307L138.77 37.0873Z" fill="#006837"/>
<path fill-rule="evenodd" clip-rule="evenodd" d="M145.698 34.3384L146.798 36.0881L141.838 39.2007L149.08 39.7173L150.118 41.3696L142.504 46.1482L141.411 44.4089L146.36 41.3025L139.129 40.7783L138.084 39.1161L145.698 34.3384Z" fill="#006837"/>
<path fill-rule="evenodd" clip-rule="evenodd" d="M149.517 52.0541C149.295 52.4805 148.934 52.8182 148.494 53.0114C148.019 53.2383 147.475 53.2758 146.973 53.1163C146.418 52.9327 145.919 52.6095 145.525 52.1777C145.055 51.682 144.673 51.1103 144.394 50.4869C144.135 49.9221 143.947 49.3275 143.834 48.7167C143.719 48.0988 143.691 47.4678 143.75 46.842L145.372 46.8042C145.319 47.2742 145.335 47.7495 145.42 48.2148C145.5 48.6782 145.638 49.1296 145.832 49.5577C146.037 50.0486 146.361 50.4802 146.777 50.8125C147.149 51.0895 147.518 51.1437 147.883 50.9751C148.025 50.9173 148.147 50.822 148.238 50.6994C148.329 50.5769 148.384 50.4318 148.398 50.28C148.424 49.8856 148.34 49.4918 148.157 49.1415L147.241 47.1464L148.664 46.4935L149.517 48.3477C149.643 48.6709 149.869 48.946 150.161 49.1336C150.28 49.2033 150.414 49.2421 150.552 49.2465C150.69 49.2509 150.827 49.2208 150.95 49.159C151.105 49.0886 151.238 48.976 151.333 48.8339C151.427 48.6918 151.48 48.5259 151.485 48.3553C151.51 47.9031 151.415 47.4523 151.21 47.0489C151.036 46.6757 150.816 46.3259 150.554 46.0079C150.283 45.6725 149.968 45.375 149.618 45.1233L150.826 43.8779C151.669 44.5394 152.338 45.3949 152.778 46.3713C153.06 46.9668 153.239 47.6056 153.307 48.2607C153.375 48.8237 153.297 49.3947 153.08 49.9186C152.883 50.3871 152.515 50.7631 152.051 50.9702C151.683 51.1459 151.269 51.2023 150.868 51.1317C150.458 51.057 150.078 50.8695 149.77 50.5902C149.833 51.0924 149.745 51.602 149.517 52.0541Z" fill="#006837"/>
<path fill-rule="evenodd" clip-rule="evenodd" d="M151.684 59.4873L154.548 57.1051L150.837 56.7672L151.684 59.4873ZM150.37 60.5816L149.129 56.5989L147.053 56.4119L146.419 54.377L156.196 55.5305L156.807 57.4914L149.416 63.9968L148.767 61.9134L150.37 60.5816Z" fill="#006837"/>
<path fill-rule="evenodd" clip-rule="evenodd" d="M161.209 64.6838L161.436 66.0901C160.82 66.2062 160.569 66.6063 160.679 67.2907C160.703 67.5718 160.832 67.8337 161.039 68.0256C161.142 68.1042 161.262 68.1598 161.388 68.1887C161.515 68.2176 161.647 68.2192 161.774 68.1933L162 69.6001C161.365 69.6928 160.85 69.5632 160.455 69.2113C160.059 68.8591 159.795 68.2734 159.664 67.4542C159.403 65.8316 159.918 64.9082 161.209 64.6838ZM158.435 63.4526L149.557 64.8794L149.869 66.818L156.321 70.1224L150.551 71.0499L150.876 73.0773L159.754 71.6512L159.445 69.725L152.98 66.4218L158.763 65.4926L158.435 63.4526Z" fill="#006837"/>
<path fill-rule="evenodd" clip-rule="evenodd" d="M160.182 83.0896L151.192 83.2485L151.155 81.1702L154.84 81.105L154.769 77.024L151.083 77.0893L151.045 75.0103L160.035 74.8525L160.073 76.9309L156.528 76.9936L156.6 81.0739L160.145 81.0111L160.182 83.0896Z" fill="#006837"/>
<path fill-rule="evenodd" clip-rule="evenodd" d="M153.89 91.0188L157.482 90.0306L154.243 88.1908L153.89 91.0188ZM152.24 91.4728L152.757 87.3336L150.944 86.3069L151.208 84.1919L159.635 89.2772L159.381 91.3151L149.96 94.1899L150.23 92.0245L152.24 91.4728Z" fill="#006837"/>
<path fill-rule="evenodd" clip-rule="evenodd" d="M9.20796 120.155C9.16802 119.339 9.35337 118.528 9.74374 117.81C10.1597 117.08 10.7587 116.472 11.4817 116.044C12.2047 115.617 13.0268 115.385 13.8669 115.371C14.6846 115.375 15.4857 115.603 16.1827 116.03C16.9235 116.485 17.5379 117.12 17.9694 117.874C18.348 118.492 18.5943 119.182 18.6926 119.9C18.7791 120.563 18.7075 121.236 18.4837 121.865L16.7417 121.345C16.89 120.939 16.945 120.506 16.9025 120.076C16.8601 119.647 16.7214 119.233 16.4966 118.864C16.2392 118.413 15.8692 118.035 15.4225 117.769C14.9993 117.521 14.5144 117.396 14.0236 117.411C13.5054 117.439 13.0015 117.591 12.555 117.855C12.1085 118.119 11.7325 118.488 11.4592 118.928C11.2099 119.351 11.0855 119.836 11.1003 120.326C11.1187 120.845 11.2717 121.35 11.5443 121.793C11.7605 122.168 12.059 122.489 12.4174 122.732C12.7758 122.975 13.1848 123.133 13.6134 123.195L13.2328 124.971C12.5671 124.869 11.9359 124.608 11.3932 124.209C10.8099 123.776 10.3222 123.227 9.96022 122.597C9.50882 121.859 9.25016 121.019 9.20796 120.155Z" fill="black"/>
<path fill-rule="evenodd" clip-rule="evenodd" d="M18.6008 125.786L19.7874 127.319C20.0654 127.677 20.3478 127.891 20.6348 127.962C20.7852 127.985 20.9388 127.977 21.086 127.939C21.2333 127.9 21.3712 127.832 21.4912 127.739C21.6111 127.645 21.7107 127.528 21.7837 127.395C21.8567 127.261 21.9016 127.114 21.9156 126.963C21.8969 126.601 21.7555 126.255 21.5146 125.984L20.3283 124.45L18.6008 125.786ZM18.8637 130.321C18.2537 130.791 17.6502 130.641 17.0532 129.87L15.6544 128.063L17.453 126.673L18.8512 128.48C19.4486 129.251 19.4528 129.865 18.8637 130.321ZM20.83 130.91C20.7042 131.384 20.418 131.8 20.0201 132.088C19.7436 132.32 19.4137 132.481 19.06 132.554C18.7063 132.628 18.3398 132.613 17.9933 132.51C17.2715 132.305 16.5673 131.759 15.8806 130.873L13.1694 127.371L20.2823 121.875L22.8444 125.183C23.4834 126.009 23.8218 126.776 23.8596 127.482C23.8831 127.819 23.8193 128.156 23.6745 128.461C23.5297 128.766 23.3087 129.029 23.0328 129.224C22.7084 129.485 22.3136 129.643 21.8987 129.679C21.4806 129.707 21.0627 129.62 20.6902 129.428C20.8908 129.895 20.9397 130.413 20.83 130.91Z" fill="black"/>
<path fill-rule="evenodd" clip-rule="evenodd" d="M25.6581 139.118L24.4675 140.289L19.5847 135.331L25.9939 129.03L30.7603 133.868L29.5693 135.039L26.2536 131.672L24.8624 133.04L27.7906 136.014L26.6367 137.148L23.709 134.175L22.2257 135.632L25.6581 139.118Z" fill="black"/>
<path fill-rule="evenodd" clip-rule="evenodd" d="M36.1251 140.483L33.8944 138.668L29.2845 144.318L27.6917 143.02L32.3017 137.37L30.0815 135.562L31.1528 134.249L37.1963 139.171L36.1251 140.483Z" fill="black"/>
<path fill-rule="evenodd" clip-rule="evenodd" d="M39.1913 146.994L39.8466 143.329L36.7897 145.457L39.1913 146.994ZM38.891 148.676L35.3754 146.427L33.6657 147.619L31.8695 146.47L40.0934 141.063L41.8243 142.17L40.362 151.902L38.5229 150.726L38.891 148.676Z" fill="black"/>
<path fill-rule="evenodd" clip-rule="evenodd" d="M53.2273 148.033L49.4462 156.183L47.5811 155.32L50.6491 148.707L47.852 147.411L47.0054 149.084C46.5509 150.019 46.0211 150.917 45.4213 151.767C44.94 152.417 44.4377 152.853 43.9142 153.078C43.3896 153.301 42.8167 153.269 42.1958 152.982C41.8847 152.828 41.5917 152.64 41.3224 152.422L42.1791 150.881C42.2739 150.964 42.3806 151.032 42.4956 151.084C42.9462 151.292 43.3843 151.172 43.8099 150.723C44.2351 150.274 44.734 149.494 45.3068 148.382L46.9569 145.129L53.2273 148.033Z" fill="black"/>
<path fill-rule="evenodd" clip-rule="evenodd" d="M62.7687 151.091L60.135 159.679L58.1451 159.07L59.2249 155.55L55.3194 154.354L54.2396 157.876L52.2495 157.267L54.8836 148.678L56.8731 149.286L55.8348 152.674L59.7403 153.868L60.7792 150.481L62.7687 151.091Z" fill="black"/>
<path fill-rule="evenodd" clip-rule="evenodd" d="M73.2437 152.814L75.2915 153.104L74.032 162L71.9841 161.709L73.2437 152.814ZM68.5989 159.274C68.9371 159.054 69.1418 158.694 69.2131 158.194C69.3431 157.271 68.8401 156.729 67.7043 156.568L65.8473 156.305L65.4339 159.229L67.2909 159.491C67.825 159.567 68.261 159.494 68.5989 159.274ZM70.7239 156.179C71.2369 156.743 71.4261 157.5 71.2914 158.45C71.1485 159.457 70.7196 160.18 70.0046 160.619C69.2891 161.058 68.3505 161.196 67.1889 161.031L63.1703 160.465L64.4299 151.568L66.4777 151.859L66.0636 154.781L68.3272 155.1C69.4128 155.254 70.2117 155.613 70.7239 156.179Z" fill="black"/>
<path fill-rule="evenodd" clip-rule="evenodd" d="M92.0483 152.188L93.0094 161.121L90.9535 161.341L90.1733 154.094L86.1372 154.528L86.9174 161.775L84.861 161.995L83.8997 153.064L92.0483 152.188Z" fill="black"/>
<path fill-rule="evenodd" clip-rule="evenodd" d="M102.274 157.356L102.657 158.98L95.8804 160.576L93.8169 151.832L100.431 150.274L100.814 151.898L96.2128 152.982L96.6613 154.881L100.725 153.923L101.096 155.497L97.0324 156.454L97.5098 158.478L102.274 157.356Z" fill="black"/>
<path fill-rule="evenodd" clip-rule="evenodd" d="M108.868 149.117L106.158 150.082L108.609 156.949L106.672 157.639L104.222 150.773L101.524 151.734L100.954 150.138L108.298 147.521L108.868 149.117Z" fill="black"/>
<path fill-rule="evenodd" clip-rule="evenodd" d="M115.752 148.799C115.824 148.596 115.855 148.381 115.843 148.166C115.83 147.951 115.775 147.741 115.679 147.547C115.584 147.354 115.451 147.182 115.287 147.041C115.124 146.901 114.935 146.794 114.729 146.728C114.319 146.629 113.833 146.718 113.272 146.995L111.751 147.745L113.132 150.542L114.652 149.791C115.212 149.515 115.579 149.185 115.752 148.799ZM114.662 144.864C115.269 144.826 115.872 144.974 116.392 145.288C116.912 145.602 117.324 146.068 117.571 146.622C117.853 147.163 117.971 147.774 117.909 148.381C117.836 148.977 117.587 149.538 117.193 149.992C116.726 150.529 116.151 150.961 115.506 151.26L113.881 152.06L114.978 154.282L113.112 155.202L109.135 147.145L112.625 145.425C113.257 145.095 113.951 144.904 114.662 144.864Z" fill="black"/>
<path fill-rule="evenodd" clip-rule="evenodd" d="M125.698 145.802C125.917 145.367 126.01 144.879 125.967 144.394C125.91 143.879 125.73 143.385 125.441 142.954C125.152 142.523 124.763 142.169 124.307 141.921C123.874 141.697 123.387 141.598 122.901 141.635C122.401 141.681 121.92 141.851 121.502 142.131C121.085 142.41 120.744 142.79 120.511 143.235C120.292 143.671 120.199 144.158 120.242 144.643C120.298 145.159 120.478 145.653 120.767 146.084C121.056 146.515 121.446 146.869 121.902 147.117C122.335 147.341 122.821 147.44 123.308 147.404C123.808 147.357 124.289 147.187 124.707 146.907C125.124 146.627 125.465 146.247 125.698 145.802ZM123.26 149.281C122.443 149.369 121.617 149.23 120.873 148.88C120.123 148.51 119.484 147.95 119.018 147.256C118.552 146.563 118.277 145.759 118.219 144.925C118.178 144.105 118.363 143.288 118.754 142.566C119.182 141.802 119.785 141.15 120.513 140.662C121.24 140.175 122.073 139.866 122.943 139.76C123.77 139.677 124.604 139.82 125.356 140.173C126.107 140.527 126.749 141.078 127.212 141.768C127.675 142.457 127.941 143.26 127.983 144.089C128.025 144.918 127.84 145.743 127.449 146.476C127.021 147.24 126.419 147.893 125.691 148.38C124.963 148.868 124.13 149.176 123.26 149.281Z" fill="black"/>
<path fill-rule="evenodd" clip-rule="evenodd" d="M134.074 138.145C133.58 137.587 132.968 137.631 132.236 138.277L130.524 139.79L132.029 141.492L133.742 139.979C134.473 139.332 134.584 138.721 134.074 138.145ZM129.562 138.704L128.115 137.069L129.569 135.786C129.824 135.527 130.16 135.363 130.521 135.321C130.673 135.325 130.823 135.361 130.961 135.425C131.099 135.489 131.222 135.581 131.323 135.695C131.424 135.808 131.501 135.941 131.549 136.085C131.597 136.23 131.615 136.382 131.602 136.534C131.551 136.823 131.355 137.119 131.015 137.42L129.562 138.704ZM134.533 136.145C135.015 136.24 135.449 136.498 135.763 136.875C136.013 137.136 136.195 137.454 136.292 137.802C136.389 138.151 136.397 138.517 136.317 138.87C136.161 139.602 135.662 140.34 134.821 141.082L131.501 144.015L125.545 137.283L128.683 134.513C129.466 133.821 130.208 133.433 130.911 133.35C131.246 133.304 131.587 133.346 131.901 133.47C132.216 133.594 132.493 133.798 132.705 134.06C132.987 134.366 133.171 134.75 133.234 135.161C133.289 135.576 133.23 135.998 133.063 136.383C133.516 136.151 134.03 136.068 134.533 136.145Z" fill="black"/>
<path fill-rule="evenodd" clip-rule="evenodd" d="M141.366 131.459C141.463 130.981 141.424 130.486 141.255 130.029C141.065 129.546 140.761 129.117 140.369 128.777C139.976 128.438 139.508 128.198 139.003 128.079C138.526 127.977 138.03 128.009 137.571 128.172C137.1 128.348 136.681 128.639 136.352 129.019C136.022 129.398 135.793 129.854 135.686 130.345C135.59 130.822 135.628 131.317 135.797 131.773C135.987 132.256 136.291 132.686 136.683 133.025C137.076 133.365 137.544 133.605 138.05 133.724C138.526 133.826 139.022 133.794 139.482 133.631C139.953 133.455 140.372 133.164 140.701 132.784C141.03 132.405 141.259 131.949 141.366 131.459ZM139.931 135.454C139.165 135.754 138.331 135.838 137.521 135.695C136.7 135.536 135.936 135.163 135.304 134.616C134.672 134.069 134.195 133.366 133.92 132.577C133.664 131.796 133.627 130.96 133.815 130.16C134.027 129.31 134.437 128.523 135.01 127.861C135.584 127.2 136.306 126.683 137.118 126.353C137.894 126.055 138.736 125.974 139.554 126.117C140.373 126.261 141.137 126.624 141.765 127.168C142.393 127.712 142.861 128.416 143.12 129.205C143.378 129.994 143.417 130.839 143.233 131.649C143.021 132.498 142.612 133.286 142.038 133.947C141.465 134.608 140.742 135.125 139.931 135.454Z" fill="black"/>
<path fill-rule="evenodd" clip-rule="evenodd" d="M138.986 123.312L140.111 121.578L145.027 124.76L142.444 117.981L143.505 116.344L151.052 121.229L149.934 122.952L145.029 119.778L147.601 126.55L146.532 128.198L138.986 123.312ZM137.753 120.542C138.862 121.239 139.863 120.898 140.757 119.52C141.208 118.823 141.406 118.212 141.35 117.686C141.293 117.159 140.997 116.718 140.463 116.363L139.688 117.557C139.799 117.624 139.896 117.714 139.971 117.82C140.045 117.927 140.097 118.048 140.122 118.176C140.145 118.456 140.064 118.736 139.895 118.961C139.517 119.543 139.062 119.671 138.528 119.346L137.753 120.542Z" fill="black"/>
<path d="M12.2284 104.961C12.5125 103.237 11.3439 101.61 9.6183 101.326C7.8927 101.042 6.26354 102.209 5.97946 103.933C5.69538 105.658 6.86396 107.285 8.58956 107.569C10.3152 107.853 11.9443 106.685 12.2284 104.961Z" fill="#006837"/>
<path fill-rule="evenodd" clip-rule="evenodd" d="M155.828 104.447C155.828 105.073 155.642 105.685 155.295 106.205C154.947 106.725 154.452 107.131 153.873 107.37C153.295 107.61 152.658 107.672 152.044 107.55C151.43 107.428 150.865 107.127 150.423 106.685C149.98 106.242 149.678 105.678 149.556 105.065C149.434 104.451 149.496 103.815 149.736 103.237C149.976 102.659 150.382 102.165 150.902 101.817C151.423 101.469 152.035 101.284 152.662 101.284C153.077 101.284 153.489 101.366 153.873 101.525C154.258 101.684 154.607 101.917 154.901 102.21C155.195 102.504 155.428 102.853 155.587 103.237C155.746 103.621 155.828 104.032 155.828 104.447Z" fill="#006837"/>
<path fill-rule="evenodd" clip-rule="evenodd" d="M115.44 54.7422V54.7441L115.083 54.3979L115.44 54.7422Z" fill="#006837"/>
<path fill-rule="evenodd" clip-rule="evenodd" d="M84.0368 118.53L83.6985 119.025L82.5645 112.945C81.254 105.939 78.7813 99.201 75.2484 93.0093C73.4837 89.8976 71.4581 86.9411 69.1933 84.1714C66.9347 81.3773 64.447 78.7761 61.7562 76.3948C59.0463 74.0101 56.1493 71.8466 53.093 69.925C50.0207 67.9888 46.7899 66.316 43.4351 64.9244C36.6492 62.1003 29.4505 60.3921 22.1183 59.8661C22.8729 59.8394 23.6282 59.8277 24.3841 59.8311C23.7731 59.8333 23.1578 59.8456 22.5468 59.8661C29.8797 60.3921 37.0791 62.1003 43.8657 64.9244C47.22 66.3155 50.4501 67.9884 53.5214 69.925C56.5784 71.8465 59.4762 74.01 62.1867 76.3948C64.877 78.7761 67.3639 81.3773 69.6218 84.1714C71.8873 86.9405 73.913 89.8972 75.677 93.0093C79.2105 99.201 81.6839 105.939 82.9952 112.945L84.0368 118.53Z" fill="#006837"/>
<path fill-rule="evenodd" clip-rule="evenodd" d="M114.591 86.2359L114.216 86.2995L113.512 85.5372C113.496 85.5434 113.482 85.5496 113.465 85.5558C112.813 85.8303 112.167 86.1047 111.534 86.414L109.629 87.3257L107.765 88.3174C105.299 89.6692 102.92 91.1738 100.642 92.8224C98.3583 94.4575 96.1824 96.2374 94.1271 98.1508C91.397 100.7 88.8796 103.467 86.5998 106.425C86.5608 106.294 86.5198 106.163 86.4768 106.032C88.674 103.221 91.0879 100.586 93.6966 98.1508C95.7529 96.2379 97.9295 94.4581 100.213 92.8224C102.49 91.1734 104.869 89.6687 107.334 88.3174L109.2 87.3257L111.103 86.414C111.737 86.1047 112.385 85.8303 113.035 85.5558C113.156 85.5065 113.273 85.4575 113.391 85.4061H113.393C113.496 85.3612 113.599 85.3182 113.701 85.2729L113.824 85.4061L114.591 86.2359Z" fill="#006837"/>
<path fill-rule="evenodd" clip-rule="evenodd" d="M139.826 91.084C135.109 118.756 111.598 140.03 82.8733 141.331C82.8158 141.335 82.7538 141.335 82.6962 141.339C86.6726 134.379 91.8075 128.148 97.8802 122.912C103.47 118.07 109.831 114.096 116.603 110.941C117.883 110.339 119.178 109.77 120.488 109.233C112.063 112.07 103.957 116.106 96.7684 121.535C90.5493 126.224 85.1186 131.874 80.6809 138.273C80.7339 137.963 80.7826 137.653 80.827 137.343C87.2585 110.799 111.195 91.084 139.742 91.084H139.826Z" fill="url(#paint0_linear_156_3898)"/>
<path fill-rule="evenodd" clip-rule="evenodd" d="M81.4738 128.488C81.4743 131.451 81.2581 134.411 80.827 137.343C80.7385 137.701 80.6587 138.06 80.5745 138.423C80.136 139.056 79.7063 139.697 79.2944 140.343C77.8144 136.286 76.076 132.328 74.09 128.492C71.2333 122.992 67.8748 117.767 64.0573 112.884C60.2588 108.038 56.0502 103.528 51.4779 99.4037C46.9285 95.308 42.0813 91.5552 36.9759 88.1763C37.9504 88.9198 38.9116 89.678 39.8596 90.4509C43.6474 93.5033 47.2448 96.7842 50.6317 100.275C54.8473 104.617 58.6811 109.314 62.0906 114.313C65.4732 119.284 68.3884 124.556 70.7989 130.063C72.377 133.682 73.7334 137.393 74.8606 141.175C74.8296 141.171 74.7986 141.171 74.7677 141.167C43.7795 138.48 19.4621 112.499 19.4621 80.8345C19.4589 76.4946 19.9208 72.1669 20.8397 67.9253H20.8575C54.3347 67.9253 81.4738 95.0401 81.4738 128.488Z" fill="url(#paint1_linear_156_3898)"/>
<path d="M67.7589 52.729H60.9047V59.5771H67.7589V52.729Z" fill="url(#paint2_linear_156_3898)"/>
<path d="M77.5835 52.729H70.7291V59.5771H77.5835V52.729Z" fill="url(#paint3_linear_156_3898)"/>
<path d="M67.7589 62.3232H60.9047V69.1715H67.7589V62.3232Z" fill="url(#paint4_linear_156_3898)"/>
<path d="M77.5835 62.3232H70.7291V69.1715H77.5835V62.3232Z" fill="url(#paint5_linear_156_3898)"/>
<path fill-rule="evenodd" clip-rule="evenodd" d="M147.026 85.7735L140.175 85.8574C137.593 85.8772 135.013 86.04 132.449 86.345C129.892 86.6678 127.356 87.1405 124.854 87.7607C117.334 89.648 110.227 92.9052 103.89 97.3689C103.348 97.7254 102.834 98.1166 102.321 98.5099C101.811 98.8993 101.279 99.2762 100.783 99.6818C99.7703 100.487 98.7901 101.325 97.8285 102.187C93.9772 105.65 90.5614 109.567 87.6561 113.852L84.1291 119.025L84.0369 118.53L82.9953 112.945C81.684 105.939 79.2105 99.2009 75.677 93.0093C73.913 89.8971 71.8873 86.9405 69.6219 84.1713C67.364 81.3773 64.877 78.7761 62.1868 76.3947C59.4762 74.01 56.5785 71.8465 53.5214 69.925C50.4502 67.9883 47.22 66.3155 43.8658 64.9243C37.0791 62.1002 29.8798 60.3921 22.5469 59.8661C23.1579 59.8456 23.7731 59.8333 24.3842 59.8311C31.0964 59.8565 37.7613 60.9549 44.1262 63.0845C47.6948 64.2843 51.1548 65.7853 54.4687 67.571C57.7937 69.374 60.9539 71.4648 63.9133 73.8194C69.9034 78.5413 75.026 84.2679 79.0521 90.7434C81.0687 93.9949 82.8055 97.4113 84.2439 100.956C84.9657 102.749 85.6082 104.572 86.1714 106.426C86.2719 106.295 86.3744 106.164 86.477 106.033C86.5201 106.164 86.5611 106.295 86.6 106.426C88.8798 103.468 91.3972 100.701 94.1273 98.1514C96.1825 96.2379 98.3585 94.4581 100.642 92.8229C102.92 91.1744 105.299 89.6698 107.765 88.318L109.629 87.3263L111.534 86.4146C112.168 86.1053 112.813 85.8309 113.466 85.5564C113.482 85.5502 113.496 85.5439 113.513 85.5377L114.216 86.3L114.591 86.2365L113.824 85.4067L113.701 85.2735C113.599 85.3188 113.496 85.3618 113.394 85.4067H113.392L70.4462 38.8509L68.8735 40.3157L61.4364 47.152C58.9471 49.4178 52.1391 55.2882 52.1391 55.2882C52.1391 55.2882 56.8802 50.1963 58.5678 48.3423C59.148 47.7094 59.7222 47.0762 60.2984 46.4433L67.143 39.0148L74.0345 31.6314L77.4855 27.9417L80.9571 24.2766L82.0172 23.1621L82.2427 23.3754L82.4457 23.1621L83.6247 24.2766C88.5541 28.9538 93.5101 33.6063 98.4087 38.3142L102.946 42.6737L105.758 45.3739L109.461 48.9528V48.9671L111.667 51.0977V51.0814L113.088 52.4581L115.083 54.3982L115.44 54.7443L119.781 58.9647L120.398 59.5608L127.675 66.6901C132.533 71.4389 137.354 76.2267 142.191 80.998L147.026 85.7735Z" fill="url(#paint6_linear_156_3898)"/>
<path fill-rule="evenodd" clip-rule="evenodd" d="M114.591 86.2359L114.216 86.2995L113.512 85.5372L113.391 85.4061H113.393C113.496 85.3612 113.598 85.3182 113.701 85.2729L113.824 85.4061L114.591 86.2359Z" fill="url(#paint7_linear_156_3898)"/>
</g>
<defs>
<linearGradient id="paint0_linear_156_3898" x1="105.926" y1="110.881" x2="84.2675" y2="89.2033" gradientUnits="userSpaceOnUse">
<stop stop-color="#006837"/>
<stop offset="0.13" stop-color="#006837"/>
<stop offset="0.97" stop-color="#44AE4D"/>
<stop offset="1" stop-color="#44AE4D"/>
</linearGradient>
<linearGradient id="paint1_linear_156_3898" x1="72.4726" y1="126.647" x2="16.4093" y2="70.5333" gradientUnits="userSpaceOnUse">
<stop stop-color="#006837"/>
<stop offset="0.13" stop-color="#006837"/>
<stop offset="0.97" stop-color="#44AE4D"/>
<stop offset="1" stop-color="#44AE4D"/>
</linearGradient>
<linearGradient id="paint2_linear_156_3898" x1="104.845" y1="96.6302" x2="46.8997" y2="38.6333" gradientUnits="userSpaceOnUse">
<stop stop-color="#006837"/>
<stop offset="0.13" stop-color="#006837"/>
<stop offset="0.97" stop-color="#44AE4D"/>
<stop offset="1" stop-color="#44AE4D"/>
</linearGradient>
<linearGradient id="paint3_linear_156_3898" x1="109.757" y1="91.7225" x2="51.8115" y2="33.725" gradientUnits="userSpaceOnUse">
<stop stop-color="#006837"/>
<stop offset="0.13" stop-color="#006837"/>
<stop offset="0.97" stop-color="#44AE4D"/>
<stop offset="1" stop-color="#44AE4D"/>
</linearGradient>
<linearGradient id="paint4_linear_156_3898" x1="100.044" y1="101.428" x2="42.098" y2="43.4303" gradientUnits="userSpaceOnUse">
<stop stop-color="#006837"/>
<stop offset="0.13" stop-color="#006837"/>
<stop offset="0.97" stop-color="#44AE4D"/>
<stop offset="1" stop-color="#44AE4D"/>
</linearGradient>
<linearGradient id="paint5_linear_156_3898" x1="104.956" y1="96.5201" x2="47.0105" y2="38.5226" gradientUnits="userSpaceOnUse">
<stop stop-color="#006837"/>
<stop offset="0.13" stop-color="#006837"/>
<stop offset="0.97" stop-color="#44AE4D"/>
<stop offset="1" stop-color="#44AE4D"/>
</linearGradient>
<linearGradient id="paint6_linear_156_3898" x1="100.354" y1="88.3733" x2="60.8162" y2="48.8006" gradientUnits="userSpaceOnUse">
<stop stop-color="#006837"/>
<stop offset="0.13" stop-color="#006837"/>
<stop offset="0.97" stop-color="#44AE4D"/>
<stop offset="1" stop-color="#44AE4D"/>
</linearGradient>
<linearGradient id="paint7_linear_156_3898" x1="114.77" y1="86.5976" x2="61.9482" y2="33.7283" gradientUnits="userSpaceOnUse">
<stop stop-color="#006837"/>
<stop offset="0.13" stop-color="#006837"/>
<stop offset="0.97" stop-color="#44AE4D"/>
<stop offset="1" stop-color="#44AE4D"/>
</linearGradient>
<clipPath id="clip0_156_3898">
<rect width="162" height="162" fill="white"/>
</clipPath>
</defs>
</svg>
