<svg width="870" height="172" viewBox="0 0 870 172" fill="none" xmlns="http://www.w3.org/2000/svg">
<g clip-path="url(#clip0_51_1015)">
<path d="M129.301 42.7004L86.3013 85.7004L129.301 128.7C152.901 152.3 172.301 171.5 172.501 171.3C172.601 171.2 166.401 152 158.601 128.6L144.501 86.2004L158.601 43.3004C166.401 19.6004 172.601 0.200394 172.501 0.00038147C172.301 -0.0996094 152.901 19.1004 129.301 42.7004Z" fill="white" fill-opacity="0.05"/>
<path d="M0.301193 2.70039C0.701193 4.1004 7.10119 23.5004 14.4012 45.8004L27.8012 86.3004L13.8012 128.3C6.10119 151.3 -0.0988071 170.5 0.00119289 170.9C0.201193 171.4 19.5012 152.5 43.1012 128.9L85.8012 86.2004L42.7012 43.2004C16.4012 17.0004 -0.0988071 1.20039 0.301193 2.70039Z" fill="white" fill-opacity="0.05"/>
<path d="M734.801 32.6004C734.301 33.7004 723.901 58.5004 711.901 87.6004L690.001 140.7H699.801H709.601L715.901 124.9L722.301 109.2H743.701H765.201L771.201 124.9L777.301 140.7H787.401H797.501L775.301 86.6004C763.101 56.8004 752.401 32.1004 751.701 31.6004C750.901 31.1004 747.101 30.7004 743.101 30.7004C737.001 30.7004 735.701 31.0004 734.801 32.6004ZM751.201 73.7004C754.801 83.0004 757.801 90.9004 757.801 91.2004C757.801 91.5004 751.501 91.7004 743.801 91.7004C736.101 91.7004 729.801 91.4004 729.801 91.0004C729.801 89.4004 743.201 56.7004 743.801 56.7004C744.201 56.7004 747.501 64.3004 751.201 73.7004Z" fill="white" fill-opacity="0.05"/>
<path d="M227.101 33.2004C211.601 37.5004 203.101 46.3004 202.101 59.2004C201.401 66.9004 203.801 72.7004 210.001 78.2004C215.501 83.2004 222.401 86.1004 237.601 89.8004C258.701 94.8004 263.301 98.2004 263.301 108.6C263.301 113.3 262.801 115 260.601 117.9C255.301 124.9 242.701 128.3 232.001 125.7C225.301 124.1 218.301 118.2 217.101 113L216.201 109.2L207.001 108.9L197.801 108.6V112C197.801 116.9 203.201 127.1 207.801 130.7C216.301 137.4 227.101 140.7 240.701 140.7C264.701 140.6 281.601 128.7 283.501 110.3C284.301 102.2 282.401 96.5004 276.701 90.3004C270.601 83.6004 262.101 79.6004 246.701 76.3004C227.001 72.1004 221.801 68.7004 221.801 60.4004C221.801 51.2004 229.601 45.4004 241.801 45.4004C250.501 45.4004 256.701 48.6004 259.501 54.6004L261.301 58.5004L270.101 58.9004C274.901 59.1004 279.201 59.1004 279.701 58.9004C281.001 58.5004 279.001 50.8004 276.701 47.0004C273.701 42.1004 267.101 37.0004 260.901 34.6004C253.601 31.7004 234.901 31.0004 227.101 33.2004Z" fill="white" fill-opacity="0.05"/>
<path d="M300.801 86.2004V140.7H309.301H317.801V117.2V93.7004H341.801H365.801V117.2V140.7H373.801H381.801V86.2004V31.7004H373.801H365.801L365.601 54.9004L365.301 78.2004L341.601 78.4004L317.801 78.5004V55.1004V31.7004H309.301H300.801V86.2004Z" fill="white" fill-opacity="0.05"/>
<path d="M429.901 35.9004C426.101 44.6004 384.501 137.3 383.601 139C382.801 140.6 383.601 140.7 397.501 140.5L412.301 140.2L424.601 112.7C431.301 97.6004 441.601 74.6004 447.501 61.7004C453.301 48.8004 458.701 36.7004 459.401 34.9004L460.801 31.7004H446.301H431.701L429.901 35.9004Z" fill="white" fill-opacity="0.05"/>
<path d="M461.801 86.2004V140.7H470.501H479.101L478.501 97.9004C477.901 63.7004 478.001 55.5004 479.101 56.8004C479.701 57.7004 493.601 76.9004 509.801 99.5004L539.301 140.7H547.601H555.801V86.2004V31.6004L547.601 31.9004L539.301 32.2004L539.701 73.2004C539.901 102.3 539.701 113.9 538.901 113.2C538.301 112.6 524.801 94.1004 508.901 72.2004L480.101 32.2004L470.901 31.9004L461.801 31.6004V86.2004Z" fill="white" fill-opacity="0.05"/>
<path d="M560.801 38.7004V45.7004H589.301H617.801V38.7004V31.7004H589.301H560.801V38.7004Z" fill="white" fill-opacity="0.05"/>
<path d="M623.801 39.1004V46.5004L640.101 46.9004C655.001 47.2004 656.701 47.4004 661.901 49.8004C669.701 53.5004 672.301 57.4004 672.301 65.4004C672.301 79.9004 661.101 86.4004 634.301 87.3004C627.201 87.5004 621.401 88.0004 621.501 88.3004C621.601 88.5004 631.801 100.4 644.001 114.7L666.301 140.7H677.601C688.301 140.7 688.801 140.6 687.601 138.9C686.901 137.9 679.301 128.9 670.801 118.8C662.301 108.8 655.201 100.2 655.001 99.7004C654.801 99.3004 656.601 98.6004 659.001 98.2004C670.701 96.2004 680.801 89.5004 685.201 80.8004C692.501 66.2004 690.501 52.0004 679.701 42.3004C670.901 34.4004 660.201 31.7004 637.601 31.7004H623.801V39.1004Z" fill="white" fill-opacity="0.05"/>
<path d="M787.101 39.9004C789.601 44.5004 797.501 59.4004 804.701 73.0004L817.801 97.8004V119.3V140.7H826.301H834.801V119.8V99.0004L852.301 65.8004C861.901 47.5004 869.801 32.3004 869.801 32.1004C869.801 31.8004 865.701 31.8004 860.701 31.9004L851.601 32.2004L839.901 55.4004C833.501 68.2004 827.801 79.1004 827.201 79.7004C826.501 80.4004 822.201 72.9004 813.701 56.2004L801.301 31.7004H792.001H782.701L787.101 39.9004Z" fill="white" fill-opacity="0.05"/>
<path d="M560.801 85.7004V92.7004H589.301H617.901L617.601 85.9004L617.301 79.2004L589.101 78.9004L560.801 78.7004V85.7004Z" fill="white" fill-opacity="0.05"/>
<path d="M560.801 133.2V140.7H589.301H617.901L617.601 133.4L617.301 126.2L589.101 125.9L560.801 125.7V133.2Z" fill="white" fill-opacity="0.05"/>
</g>
<defs>
<clipPath id="clip0_51_1015">
<rect width="869.801" height="171.302" fill="white"/>
</clipPath>
</defs>
</svg>
