<svg width="18" height="18" viewBox="0 0 18 18" fill="none" xmlns="http://www.w3.org/2000/svg">
<path fill-rule="evenodd" clip-rule="evenodd" d="M3 0C2.20435 0 1.44129 0.316071 0.87868 0.87868C0.316071 1.44129 0 2.20435 0 3V15C0 15.7956 0.316071 16.5587 0.87868 17.1213C1.44129 17.6839 2.20435 18 3 18H15C15.7956 18 16.5587 17.6839 17.1213 17.1213C17.6839 16.5587 18 15.7956 18 15V3C18 2.20435 17.6839 1.44129 17.1213 0.87868C16.5587 0.316071 15.7956 0 15 0H3ZM7.293 11.121L9.414 9L7.293 6.879C7.20009 6.78616 7.12638 6.67592 7.07607 6.55459C7.02576 6.43326 6.99984 6.3032 6.9998 6.17185C6.99975 6.04051 7.02558 5.91043 7.0758 5.78907C7.12602 5.6677 7.19966 5.55741 7.2925 5.4645C7.38534 5.37159 7.49558 5.29788 7.61691 5.24757C7.73825 5.19726 7.8683 5.17134 7.99965 5.1713C8.13099 5.17125 8.26107 5.19708 8.38243 5.2473C8.5038 5.29752 8.61409 5.37116 8.707 5.464L11.536 8.293C11.7235 8.48053 11.8288 8.73484 11.8288 9C11.8288 9.26516 11.7235 9.51947 11.536 9.707L8.707 12.536C8.61409 12.6288 8.5038 12.7025 8.38243 12.7527C8.26107 12.8029 8.13099 12.8287 7.99965 12.8287C7.8683 12.8287 7.73825 12.8027 7.61691 12.7524C7.49558 12.7021 7.38534 12.6284 7.2925 12.5355C7.19966 12.4426 7.12602 12.3323 7.0758 12.2109C7.02558 12.0896 6.99975 11.9595 6.9998 11.8281C6.99984 11.6968 7.02576 11.5667 7.07607 11.4454C7.12638 11.3241 7.20009 11.2138 7.293 11.121Z" fill="white"/>
</svg>
