<svg width="50" height="50" viewBox="0 0 50 50" fill="none" xmlns="http://www.w3.org/2000/svg">
<path d="M5.95671 5.99379L32.1442 2.25421C32.292 2.23301 32.4426 2.24382 32.5859 2.28593C32.7291 2.32803 32.8616 2.40043 32.9744 2.49823C33.0873 2.59603 33.1777 2.71694 33.2397 2.85277C33.3017 2.98859 33.3338 3.13615 33.3338 3.28546V46.7146C33.3338 46.8637 33.3017 47.0111 33.2399 47.1467C33.178 47.2824 33.0877 47.4032 32.9751 47.501C32.8626 47.5987 32.7303 47.6712 32.5873 47.7134C32.4443 47.7557 32.2939 47.7667 32.1463 47.7459L5.95462 44.0063C5.458 43.9356 5.00356 43.688 4.67481 43.3091C4.34605 42.9302 4.16504 42.4454 4.16504 41.9438V8.05629C4.16504 7.55465 4.34605 7.06986 4.67481 6.69096C5.00356 6.31207 5.46008 6.06452 5.95671 5.99379ZM35.4171 6.25004H43.7505C44.303 6.25004 44.8329 6.46953 45.2236 6.86024C45.6143 7.25094 45.8338 7.78084 45.8338 8.33337V41.6667C45.8338 42.2192 45.6143 42.7491 45.2236 43.1398C44.8329 43.5305 44.303 43.75 43.7505 43.75H35.4171V6.25004ZM21.2505 25L27.0838 16.6667H22.0838L18.7505 21.4292L15.4171 16.6667H10.4171L16.2505 25L10.4171 33.3334H15.4171L18.7505 28.5709L22.0838 33.3334H27.0838L21.2505 25Z" fill="#009FE2"/>
</svg>
