<svg width="30" height="30" viewBox="0 0 30 30" fill="none" xmlns="http://www.w3.org/2000/svg">
<g clip-path="url(#clip0_2379_455)">
<path fill-rule="evenodd" clip-rule="evenodd" d="M15 2.5V10.625C15 11.1223 15.1975 11.5992 15.5492 11.9508C15.9008 12.3025 16.3777 12.5 16.875 12.5H25V25C25 25.663 24.7366 26.2989 24.2678 26.7678C23.7989 27.2366 23.163 27.5 22.5 27.5H7.5C6.83696 27.5 6.20107 27.2366 5.73223 26.7678C5.26339 26.2989 5 25.663 5 25V5C5 4.33696 5.26339 3.70107 5.73223 3.23223C6.20107 2.76339 6.83696 2.5 7.5 2.5H15ZM15 13.75C14.6685 13.75 14.3505 13.8817 14.1161 14.1161C13.8817 14.3505 13.75 14.6685 13.75 15V18.385L13.2325 17.8675C12.9967 17.6398 12.681 17.5138 12.3532 17.5167C12.0255 17.5195 11.712 17.651 11.4802 17.8827C11.2485 18.1145 11.117 18.428 11.1142 18.7557C11.1113 19.0835 11.2373 19.3992 11.465 19.635L14.115 22.2875C14.2311 22.4037 14.369 22.4959 14.5207 22.5588C14.6724 22.6217 14.8351 22.6541 14.9994 22.6541C15.1636 22.6541 15.3263 22.6217 15.4781 22.5588C15.6298 22.4959 15.7677 22.4037 15.8837 22.2875L18.535 19.635C18.6544 19.5197 18.7496 19.3818 18.8151 19.2293C18.8806 19.0768 18.9151 18.9127 18.9166 18.7468C18.918 18.5808 18.8864 18.4162 18.8235 18.2626C18.7607 18.1089 18.6679 17.9694 18.5505 17.852C18.4331 17.7346 18.2936 17.6418 18.1399 17.579C17.9863 17.5161 17.8217 17.4845 17.6557 17.4859C17.4898 17.4874 17.3258 17.5219 17.1732 17.5874C17.0207 17.6529 16.8828 17.7481 16.7675 17.8675L16.25 18.385V15C16.25 14.6685 16.1183 14.3505 15.8839 14.1161C15.6495 13.8817 15.3315 13.75 15 13.75ZM17.5 2.55375C17.9736 2.65419 18.4078 2.88999 18.75 3.2325L24.2675 8.75C24.61 9.09216 24.8458 9.5264 24.9463 10H17.5V2.55375Z" fill="black"/>
</g>
<defs>
<clipPath id="clip0_2379_455">
<rect width="30" height="30" fill="white"/>
</clipPath>
</defs>
</svg>
