<svg width="19" height="19" viewBox="0 0 19 19" fill="none" xmlns="http://www.w3.org/2000/svg">
<path d="M7.75609 4.16996L14.8261 11.241L7.65309 18.415C7.32107 18.747 6.88282 18.9516 6.41509 18.993L6.23909 19H1.00609C0.75727 19 0.517202 18.9081 0.331923 18.742C0.146643 18.5759 0.0291934 18.3473 0.00209379 18.1L-0.00390625 17.99V12.757C-0.00379152 12.2874 0.161528 11.8329 0.463094 11.473L0.583094 11.343L7.75609 4.16996ZM10.8961 1.02996C11.25 0.676008 11.7238 0.467628 12.2238 0.445967C12.7239 0.424306 13.2139 0.590937 13.5971 0.912957L13.7241 1.02996L17.9671 5.27296C18.3208 5.62682 18.529 6.10038 18.5506 6.6002C18.5723 7.10003 18.4058 7.58983 18.0841 7.97296L17.9671 8.10096L16.2411 9.82696L9.17109 2.75596L10.8961 1.02996Z" fill="black"/>
</svg>
