<svg width="18" height="18" viewBox="0 0 18 18" fill="none" xmlns="http://www.w3.org/2000/svg">
<path fill-rule="evenodd" clip-rule="evenodd" d="M4.75865 17.9974C6.05684 17.9497 9.73596 17.4413 13.5891 13.5899C17.4413 9.73757 17.9488 6.0601 17.9975 4.76127C18.0696 2.78193 16.5533 0.859377 14.8016 0.108561C14.5907 0.0174959 14.3597 -0.0171754 14.1313 0.00794945C13.9029 0.0330743 13.685 0.117132 13.4989 0.251874C12.0565 1.30284 11.0612 2.8928 10.2066 4.14296C10.0185 4.41762 9.93811 4.75185 9.98067 5.08197C10.0232 5.41208 10.1858 5.715 10.4373 5.93302L12.1962 7.23906C12.2812 7.30041 12.341 7.39051 12.3646 7.49262C12.3881 7.59474 12.3738 7.70193 12.3242 7.79428C11.9258 8.51806 11.2172 9.59606 10.4058 10.4073C9.59352 11.2185 8.46481 11.9738 7.6904 12.4172C7.59331 12.4717 7.47902 12.487 7.37103 12.4598C7.26305 12.4327 7.16957 12.3652 7.10982 12.2712L5.96489 10.5289C5.75439 10.2494 5.44387 10.0621 5.09836 10.0063C4.75285 9.95055 4.39916 10.0306 4.11135 10.2297C2.84291 11.1076 1.36261 12.0856 0.278976 13.4727C0.133265 13.6601 0.0405769 13.8832 0.010603 14.1187C-0.0193691 14.3541 0.0144711 14.5933 0.108589 14.8112C0.863165 16.5715 2.77259 18.0704 4.75865 17.9974Z" fill="white"/>
</svg>
