<svg width="20" height="20" viewBox="0 0 20 20" fill="none" xmlns="http://www.w3.org/2000/svg">
<path fill-rule="evenodd" clip-rule="evenodd" d="M11.5007 1.91687e-08C12.8561 0.000115492 14.1919 0.324364 15.3965 0.945694C16.6011 1.56702 17.6396 2.46742 18.4255 3.57175C19.2113 4.67609 19.7217 5.95235 19.914 7.29404C20.1063 8.63574 19.975 10.004 19.5309 11.2846C19.0869 12.5652 18.3431 13.7211 17.3615 14.6557C16.3799 15.5904 15.189 16.2768 13.8882 16.6576C12.5874 17.0384 11.2144 17.1026 9.8837 16.8449C8.55303 16.5872 7.30328 16.015 6.23872 15.176L2.58672 18.828C2.39812 19.0102 2.14552 19.111 1.88332 19.1087C1.62112 19.1064 1.37031 19.0012 1.1849 18.8158C0.999496 18.6304 0.894329 18.3796 0.89205 18.1174C0.889771 17.8552 0.990566 17.6026 1.17272 17.414L4.82472 13.762C3.83673 12.5086 3.22156 11.0024 3.04962 9.41573C2.87769 7.82905 3.15593 6.22602 3.8525 4.79009C4.54907 3.35417 5.63584 2.14336 6.98842 1.29623C8.341 0.449106 9.90476 -0.000107143 11.5007 1.91687e-08ZM18.0007 8.5C18.0007 6.77609 17.3159 5.12279 16.0969 3.90381C14.8779 2.68482 13.2246 2 11.5007 2C9.77682 2 8.12352 2.68482 6.90453 3.90381C5.68554 5.12279 5.00072 6.77609 5.00072 8.5C5.00072 10.2239 5.68554 11.8772 6.90453 13.0962C8.12352 14.3152 9.77682 15 11.5007 15C13.2246 15 14.8779 14.3152 16.0969 13.0962C17.3159 11.8772 18.0007 10.2239 18.0007 8.5Z" fill="black"/>
</svg>
