<svg width="18" height="18" viewBox="0 0 18 18" fill="none" xmlns="http://www.w3.org/2000/svg">
<path fill-rule="evenodd" clip-rule="evenodd" d="M1.8 0C1.32261 0 0.864773 0.210714 0.527208 0.585786C0.189642 0.960859 0 1.46957 0 2V16C0 16.5304 0.189642 17.0391 0.527208 17.4142C0.864773 17.7893 1.32261 18 1.8 18H16.2C16.6774 18 17.1352 17.7893 17.4728 17.4142C17.8104 17.0391 18 16.5304 18 16V2C18 1.46957 17.8104 0.960859 17.4728 0.585786C17.1352 0.210714 16.6774 0 16.2 0H1.8ZM5.9625 5.63C5.98247 5.43882 6.04238 5.25547 6.13745 5.09458C6.23252 4.93369 6.36012 4.79972 6.51006 4.70335C6.66 4.60698 6.82814 4.55089 7.00106 4.53954C7.17398 4.5282 7.34689 4.56191 7.506 4.638C7.9596 4.854 8.9172 5.34 10.1304 6.118C10.9827 6.66007 11.806 7.2564 12.5964 7.904C12.7353 8.01883 12.8481 8.16816 12.9258 8.34005C13.0035 8.51194 13.044 8.70164 13.044 8.894C13.044 9.08636 13.0035 9.27606 12.9258 9.44795C12.8481 9.61984 12.7353 9.76917 12.5964 9.884C11.806 10.531 10.9827 11.1266 10.1304 11.668C9.28203 12.2178 8.40577 12.7126 7.506 13.15C7.34691 13.2263 7.17395 13.2602 7.00096 13.2489C6.82798 13.2377 6.65976 13.1816 6.50976 13.0852C6.35976 12.9888 6.23214 12.8548 6.13712 12.6938C6.04209 12.5328 5.98229 12.3493 5.9625 12.158C5.85367 11.0743 5.80079 9.98447 5.8041 8.894C5.8041 7.343 5.9049 6.175 5.9625 5.63Z" fill="white"/>
</svg>
