<svg width="56" height="56" viewBox="0 0 56 56" fill="none" xmlns="http://www.w3.org/2000/svg">
<rect width="56" height="56" rx="28" fill="white"/>
<g clip-path="url(#clip0_2171_977)">
<path fill-rule="evenodd" clip-rule="evenodd" d="M20 19C19.4696 19 18.9609 19.2107 18.5858 19.5858C18.2107 19.9609 18 20.4696 18 21V35C18 35.5304 18.2107 36.0391 18.5858 36.4142C18.9609 36.7893 19.4696 37 20 37H36C36.5304 37 37.0391 36.7893 37.4142 36.4142C37.7893 36.0391 38 35.5304 38 35V21C38 20.4696 37.7893 19.9609 37.4142 19.5858C37.0391 19.2107 36.5304 19 36 19H20ZM24.625 24.63C24.6472 24.4388 24.7138 24.2555 24.8194 24.0946C24.925 23.9337 25.0668 23.7997 25.2334 23.7034C25.4 23.607 25.5868 23.5509 25.779 23.5395C25.9711 23.5282 26.1632 23.5619 26.34 23.638C26.844 23.854 27.908 24.34 29.256 25.118C30.203 25.6601 31.1178 26.2564 31.996 26.904C32.1503 27.0188 32.2757 27.1682 32.362 27.34C32.4484 27.5119 32.4933 27.7016 32.4933 27.894C32.4933 28.0864 32.4484 28.2761 32.362 28.448C32.2757 28.6198 32.1503 28.7692 31.996 28.884C31.1178 29.531 30.203 30.1266 29.256 30.668C28.3134 31.2178 27.3397 31.7126 26.34 32.15C26.1632 32.2263 25.9711 32.2602 25.7788 32.2489C25.5866 32.2377 25.3997 32.1816 25.2331 32.0852C25.0664 31.9888 24.9246 31.8548 24.819 31.6938C24.7134 31.5328 24.647 31.3493 24.625 31.158C24.5041 30.0743 24.4453 28.9845 24.449 27.894C24.449 26.343 24.561 25.175 24.625 24.63Z" fill="black"/>
</g>
<defs>
<clipPath id="clip0_2171_977">
<rect width="24" height="24" fill="white" transform="translate(16 16)"/>
</clipPath>
</defs>
</svg>
