<svg width="22" height="19" viewBox="0 0 22 19" fill="none" xmlns="http://www.w3.org/2000/svg">
<path d="M12.2982 1.64795L20.9322 16.6019C21.0638 16.83 21.1332 17.0886 21.1332 17.3519C21.1332 17.6152 21.0639 17.8739 20.9322 18.1019C20.8006 18.33 20.6112 18.5193 20.3832 18.651C20.1552 18.7826 19.8965 18.8519 19.6332 18.8519H2.3652C2.10189 18.8519 1.84323 18.7826 1.61521 18.651C1.38719 18.5193 1.19783 18.33 1.06619 18.1019C0.934539 17.8739 0.865233 17.6152 0.865234 17.3519C0.865236 17.0886 0.934545 16.83 1.0662 16.6019L9.7002 1.64795C10.2772 0.647949 11.7202 0.647949 12.2982 1.64795ZM10.9992 13.4999C10.734 13.4999 10.4796 13.6053 10.2921 13.7928C10.1046 13.9804 9.9992 14.2347 9.9992 14.4999C9.9992 14.7652 10.1046 15.0195 10.2921 15.2071C10.4796 15.3946 10.734 15.4999 10.9992 15.4999C11.2644 15.4999 11.5188 15.3946 11.7063 15.2071C11.8938 15.0195 11.9992 14.7652 11.9992 14.4999C11.9992 14.2347 11.8938 13.9804 11.7063 13.7928C11.5188 13.6053 11.2644 13.4999 10.9992 13.4999ZM10.9992 6.49995C10.7543 6.49998 10.5179 6.58991 10.3348 6.75266C10.1518 6.91542 10.0349 7.1397 10.0062 7.38295L9.9992 7.49995V11.4999C9.99948 11.7548 10.0971 12 10.272 12.1853C10.447 12.3707 10.6861 12.4822 10.9406 12.4971C11.195 12.5121 11.4456 12.4293 11.641 12.2657C11.8365 12.1021 11.9621 11.87 11.9922 11.6169L11.9992 11.4999V7.49995C11.9992 7.23473 11.8938 6.98038 11.7063 6.79284C11.5188 6.60531 11.2644 6.49995 10.9992 6.49995Z" fill="#DB5151"/>
</svg>
