<svg width="444" height="369" viewBox="0 0 444 369" fill="none" xmlns="http://www.w3.org/2000/svg">
<g opacity="0.3">
<path d="M180.612 139.417L179.205 141.448C166.422 159.896 134.99 208.661 133.853 210.575L133.632 210.948L133.208 211.041C125.278 212.788 118.391 213.249 111.386 213.717C108.786 213.891 106.17 214.066 103.478 214.308C93.6422 215.193 82.5777 216.98 67.1037 222.87C67.0935 227.184 67.0749 229.817 67.0572 232.322C67.0355 235.399 67.0151 238.284 67.0134 243.854C79.7489 237.646 87.7445 234.331 94.8391 232.676C102.222 230.954 108.58 231.042 118.157 231.448L119.873 231.521L118.962 232.978C108.435 249.801 105.912 253.723 101.837 260.058L101.471 260.626L101.469 260.628C100.468 262.176 99.6793 263.407 99.0261 264.427C96.5586 268.281 96.021 269.121 93.217 272.583L92.9578 272.903L92.5482 272.948C83.5898 273.924 74.267 270.933 65.3296 267.353C62.9488 266.399 60.5995 265.405 58.2872 264.428C51.8245 261.695 45.6514 259.085 39.8905 257.802C25.255 254.542 16.718 261.618 13.9655 264.885L13.9327 264.923L13.8962 264.959C12.1188 266.679 10.3626 269.562 8.75493 273.387C7.15494 277.194 5.73293 281.859 4.58623 287.067C2.29257 297.486 1.11692 310.009 1.78682 322.066C2.45763 334.139 4.9736 345.647 9.98283 354.108C14.959 362.513 22.3684 367.888 32.9734 367.913C52.7547 366.938 66.7114 354.596 79.1902 339.179C83.5199 333.83 87.6392 328.154 91.7572 322.48C93.5804 319.968 95.4032 317.456 97.244 314.973C103.222 306.91 109.367 299.183 116.212 292.948L116.285 292.881L116.371 292.83C117.119 292.382 118.299 292.093 119.678 291.881C121.101 291.662 122.884 291.505 124.947 291.394C129.074 291.172 134.399 291.13 140.351 291.163C144.661 291.187 149.299 291.251 154.061 291.317C162.485 291.433 171.297 291.555 179.367 291.471L180.517 291.459L180.369 292.6C178.565 306.464 175.475 318.619 172.15 330.79C171.648 332.629 171.14 334.468 170.631 336.314C167.864 346.341 165.046 356.549 162.738 367.944L198.569 367.999C199.818 361.524 201.022 354.214 202.266 346.666L202.483 345.354C203.855 337.032 205.279 328.47 206.862 320.496C208.444 312.526 210.19 305.112 212.211 299.094C214.216 293.126 216.548 288.345 219.401 285.826C222.178 283.373 226.904 281.037 232.638 278.669C237.261 276.76 242.634 274.794 248.327 272.711C249.732 272.197 251.156 271.676 252.593 271.147C267.172 265.78 283.115 259.574 294.323 251.46C326.18 228.395 341.398 197.242 338.024 171.157C336.34 158.131 330.02 146.314 318.745 137.302C307.459 128.281 291.156 122.033 269.466 120.272L268.254 120.173L268.585 119.003C271.994 106.954 276.06 95.4818 280.055 84.2115C281.179 81.0397 282.298 77.884 283.395 74.7359C288.395 60.3827 292.949 46.1633 295.583 31.1713C295.885 29.4503 295.669 26.9308 295.167 24.1984C294.669 21.4968 293.914 18.701 293.215 16.4838C292.604 14.5471 291.151 12.5511 289.164 10.6321C287.189 8.72425 284.75 6.95478 282.271 5.46088C279.793 3.96765 277.303 2.7663 275.242 1.98533C274.21 1.59446 273.302 1.31544 272.568 1.15562C272.096 1.05281 271.739 1.00946 271.487 1.00123C267.347 7.14815 263.676 12.5244 260.183 17.6417C256.734 22.6931 253.458 27.4923 250.071 32.5316L250.07 32.5331C243.712 41.9588 236.675 52.6824 229.479 63.6497C216.066 84.0899 202.097 105.376 190.933 120.684L190.697 121.006L190.304 121.078C165.332 125.639 150.325 129.988 134.481 135.622M180.612 139.417L134.481 135.622M180.612 139.417L178.189 139.897C177.379 140.057 176.365 140.216 175.142 140.406C170.29 141.163 162.15 142.433 150.459 146.383C135.951 151.284 115.948 160.313 89.6836 177.629C89.5212 177.423 89.327 177.174 89.1052 176.888C88.3882 175.962 87.3842 174.639 86.2391 173.056C84.0932 170.087 81.465 166.221 79.2996 162.338C86.8365 157.472 112.557 143.422 134.481 135.622M180.612 139.417L134.481 135.622M209.707 138.6C196.337 158.803 180.591 183.427 166.175 209.242L165.363 210.696L167.028 210.73C173.906 210.868 180.79 210.817 187.57 210.762L188.148 210.757C194.735 210.703 201.219 210.65 207.528 210.766L208.231 210.779L208.481 210.122C210.653 204.415 213.062 198.109 215.564 191.562C222.575 173.214 230.308 152.976 235.543 138.739L236.013 137.46L234.652 137.395C230.622 137.204 224.816 137.044 219.893 137.107C217.435 137.138 215.176 137.226 213.461 137.396C212.608 137.481 211.857 137.59 211.274 137.731C210.983 137.802 210.702 137.889 210.459 138C210.243 138.099 209.921 138.276 209.707 138.6ZM209.707 138.6L210.541 139.152M209.707 138.6C209.707 138.6 209.707 138.601 209.706 138.601L210.541 139.152M210.541 139.152C211.423 137.816 225.328 137.993 233.556 138.347C233.593 138.247 233.629 138.148 233.666 138.049L234.604 138.394L234.557 139.393C234.453 139.388 234.348 139.383 234.242 139.378C229.019 153.546 221.483 173.27 214.633 191.197C212.13 197.746 209.72 204.055 207.547 209.766C201.224 209.649 194.727 209.703 188.145 209.757C181.547 209.811 174.863 209.866 168.182 209.751C168.095 209.906 168.008 210.062 167.921 210.217L167.048 209.73L167.069 208.73C167.246 208.734 167.424 208.737 167.602 208.74C181.849 183.317 197.348 159.087 210.541 139.152ZM261.46 139.391L260.664 139.312L260.412 140.071C256.691 151.266 252.964 163.015 249.239 174.757L249.218 174.825C245.485 186.593 241.755 198.353 238.029 209.556L237.609 210.822L238.941 210.871C250.449 211.298 257.927 211.387 265.295 209.691C272.338 208.071 279.221 204.837 289.424 198.856C289.523 203.807 289.622 208.76 289.724 213.711C276.629 223.75 267.569 225.116 251.198 227.585C246.89 228.234 242.077 228.96 236.551 229.94L236.486 229.952L236.424 229.971C233.749 230.816 231.619 232.945 229.96 235.55C228.294 238.168 227.033 241.373 226.133 244.567C225.231 247.766 224.68 250.997 224.453 253.693C224.339 255.04 224.305 256.268 224.353 257.3C224.4 258.307 224.526 259.213 224.783 259.867L225.137 260.773L226.052 260.443L264.456 246.619C272.652 243.668 281.888 237.691 290.326 230.001C298.77 222.306 306.471 212.844 311.563 202.869C316.65 192.904 319.174 182.339 317.111 172.494C315.038 162.606 308.376 153.622 295.458 146.793C286.046 141.815 273.772 140.605 262.839 139.528C262.377 139.482 261.917 139.437 261.46 139.391ZM152.19 231.498L151.621 231.503L151.334 231.995C146.034 241.107 135.856 257.594 127.326 271.313L126.386 272.825L128.167 272.841C137.682 272.926 148.274 272.911 158.48 272.895L158.803 272.894C168.896 272.879 178.594 272.863 186.493 272.946L187.218 272.954L187.451 272.266C189.17 267.178 191.032 261.709 192.803 256.504C193.955 253.122 195.068 249.852 196.079 246.87C197.362 243.088 198.481 239.771 199.304 237.285C200.115 234.839 200.665 233.12 200.778 232.601L201.04 231.398L199.808 231.389C185.637 231.291 168.036 231.367 152.19 231.498ZM272.614 41.2474L270.861 40.331C256.986 59.2832 232.445 97.2662 222.327 118.488L221.642 119.924L223.233 119.918C224.546 119.913 226.342 119.908 228.321 119.903C233.574 119.889 240.115 119.872 242.322 119.838L243.012 119.827L243.247 119.178C246.647 109.785 250.797 99.1025 255.125 87.9622C261.12 72.5331 267.455 56.2256 272.614 41.2474ZM40.9492 326.945L41.2418 327.797L42.1195 327.595C60.6902 323.315 73.0772 304.622 77.2199 287.27L77.4555 286.283L76.4653 286.062C68.2345 284.222 61.0845 283.422 55.187 283.877C49.2885 284.333 44.5478 286.054 41.2682 289.349C37.9786 292.655 36.2999 297.403 36.2372 303.612C36.1746 309.808 37.7175 317.538 40.9492 326.945Z" stroke="white" stroke-width="2"/>
<path d="M290.097 367.882L267.849 367.962L282.69 305.631L282.984 304.398L281.716 304.399L229.763 304.46L233.627 288.365H355.778L351.868 304.329L305.107 304.461L304.308 304.464L304.134 305.243L290.097 367.882Z" stroke="white" stroke-width="2"/>
<path d="M378.85 367.901H359.524L367.314 336.541L367.622 335.299L366.342 335.3L317.05 335.332L320.601 320.803H442.132L438.672 335.293L387.496 335.329L386.709 335.33L386.525 336.095L378.85 367.901Z" stroke="white" stroke-width="2"/>
</g>
</svg>
