<svg width="46" height="41" viewBox="0 0 46 41" fill="none" xmlns="http://www.w3.org/2000/svg">
<circle cx="16.5755" cy="20.1595" r="15.6795" stroke="#6150E9" stroke-width="1.79195"/>
<path d="M37.4697 10.0042C37.6416 9.8287 37.8469 9.6893 38.0734 9.59413C38.2999 9.49897 38.5431 9.44995 38.7888 9.44995C39.0345 9.44995 39.2778 9.49897 39.5043 9.59413C39.7308 9.6893 39.936 9.8287 40.108 10.0042C40.8287 10.7324 40.8388 11.9092 40.1332 12.6501L25.2329 30.2644C25.0637 30.4501 24.8584 30.5994 24.6296 30.7031C24.4007 30.8068 24.1531 30.8628 23.9019 30.8675C23.6507 30.8722 23.4011 30.8256 23.1686 30.7306C22.936 30.6355 22.7252 30.494 22.5492 30.3148L13.4825 21.1271C13.1328 20.7705 12.937 20.291 12.937 19.7916C12.937 19.2921 13.1328 18.8126 13.4825 18.456C13.6545 18.2805 13.8597 18.1411 14.0862 18.046C14.3128 17.9508 14.556 17.9018 14.8017 17.9018C15.0474 17.9018 15.2906 17.9508 15.5171 18.046C15.7436 18.1411 15.9489 18.2805 16.1209 18.456L23.8117 26.2501L37.4193 10.0596C37.4349 10.0401 37.4518 10.0216 37.4697 10.0042Z" fill="white"/>
</svg>
