<svg width="15" height="7" viewBox="0 0 15 7" fill="none" xmlns="http://www.w3.org/2000/svg">
<path d="M13.9549 1.78258C14.2951 1.43935 14.2926 0.885334 13.9494 0.545153C13.6061 0.204973 13.0521 0.207444 12.7119 0.550674L10.6734 2.60747C9.84609 3.44221 9.27671 4.01482 8.79426 4.40227C8.32561 4.77863 8.02459 4.90775 7.755 4.94211C7.58572 4.96369 7.41444 4.96369 7.24516 4.94211C6.97557 4.90775 6.67455 4.77863 6.2059 4.40227C5.72346 4.01482 5.15407 3.44222 4.32675 2.60747L2.28822 0.550675C1.94804 0.207445 1.39403 0.204973 1.0508 0.545154C0.707566 0.885335 0.705095 1.43935 1.04528 1.78258L3.12052 3.87643C3.90213 4.66506 4.54093 5.30962 5.11012 5.76673C5.702 6.24206 6.30276 6.58615 7.02389 6.67807C7.34009 6.71837 7.66007 6.71837 7.97627 6.67807C8.6974 6.58615 9.29817 6.24206 9.89005 5.76673C10.4592 5.30962 11.098 4.66507 11.8796 3.87644L13.9549 1.78258Z" fill="white"/>
</svg>
