<svg width="20" height="21" viewBox="0 0 20 21" fill="none" xmlns="http://www.w3.org/2000/svg">
<path d="M4.80478 14.4878L5.2556 13.8884L4.80478 14.4878ZM2.51782 9.04312L1.78847 9.21793L2.51782 9.04312ZM4.65486 14.3696L5.13266 13.7915L4.65486 14.3696ZM18.3494 9.45212L17.6201 9.27732L18.3494 9.45212ZM16.5749 14.1313L16.0494 13.596L16.5749 14.1313ZM15.8671 14.6895L15.4691 14.0538L15.8671 14.6895ZM18.2851 6.12998L18.7999 5.58452L18.2851 6.12998ZM18.5866 6.51221L17.9362 6.88566L18.5866 6.51221ZM1.5611 1.98477C1.46064 1.58292 1.05344 1.3386 0.651594 1.43906C0.249748 1.53952 0.00542772 1.94672 0.105889 2.34857L1.5611 1.98477ZM13.3335 12.9167C13.7477 12.9167 14.0835 12.5809 14.0835 12.1667C14.0835 11.7525 13.7477 11.4167 13.3335 11.4167V12.9167ZM8.3335 11.4167C7.91928 11.4167 7.5835 11.7525 7.5835 12.1667C7.5835 12.5809 7.91928 12.9167 8.3335 12.9167V11.4167ZM1.71069 6.42544H15.3709V4.92544H1.71069V6.42544ZM10.9032 14.5746H10.4826V16.0746H10.9032V14.5746ZM3.24716 8.86832L2.44003 5.50064L0.981344 5.85024L1.78847 9.21793L3.24716 8.86832ZM10.4826 14.5746C8.94313 14.5746 7.85281 14.5734 7.00613 14.475C6.17843 14.3788 5.66589 14.197 5.2556 13.8884L4.35396 15.0872C5.05617 15.6154 5.86076 15.852 6.83297 15.965C7.7862 16.0757 8.97855 16.0746 10.4826 16.0746V14.5746ZM1.78847 9.21793C2.13903 10.6806 2.41578 11.8404 2.74568 12.7415C3.08215 13.6606 3.49978 14.3879 4.17705 14.9477L5.13266 13.7915C4.73694 13.4644 4.44072 13.0083 4.15426 12.2259C3.86124 11.4254 3.60597 10.3654 3.24716 8.86832L1.78847 9.21793ZM5.2556 13.8884C5.21389 13.8571 5.1729 13.8247 5.13266 13.7915L4.17705 14.9477C4.23494 14.9955 4.29393 15.042 4.35396 15.0872L5.2556 13.8884ZM17.6201 9.27732C17.3097 10.5724 17.089 11.4893 16.8442 12.1902C16.6044 12.8767 16.3632 13.288 16.0494 13.596L17.1003 14.6665C17.6405 14.1361 17.9798 13.4881 18.2603 12.6848C18.5359 11.8958 18.7755 10.8923 19.0787 9.62692L17.6201 9.27732ZM10.9032 16.0746C12.2045 16.0746 13.2361 16.0755 14.0676 15.9914C14.9142 15.9058 15.6234 15.7269 16.2651 15.3251L15.4691 14.0538C15.0964 14.2871 14.6402 14.4258 13.9167 14.499C13.178 14.5737 12.2349 14.5746 10.9032 14.5746V16.0746ZM16.0494 13.596C15.8731 13.7692 15.6785 13.9226 15.4691 14.0538L16.2651 15.3251C16.5665 15.1364 16.8465 14.9156 17.1003 14.6665L16.0494 13.596ZM15.3709 6.42544C16.2012 6.42544 16.7552 6.42676 17.1647 6.47674C17.5619 6.5252 17.6983 6.6074 17.7704 6.67544L18.7999 5.58452C18.3904 5.19802 17.8805 5.05295 17.3464 4.98778C16.8247 4.92412 16.1623 4.92544 15.3709 4.92544V6.42544ZM19.0787 9.62692C19.2632 8.85732 19.4189 8.2135 19.4785 7.69131C19.5396 7.15673 19.5174 6.62711 19.237 6.13876L17.9362 6.88566C17.9855 6.97163 18.0337 7.12344 17.9882 7.52096C17.9414 7.93089 17.8136 8.46986 17.6201 9.27732L19.0787 9.62692ZM17.7704 6.67544C17.8356 6.73702 17.8915 6.80785 17.9362 6.88566L19.237 6.13876C19.1192 5.93362 18.9719 5.74688 18.7999 5.58452L17.7704 6.67544ZM2.4383 5.49354L1.5611 1.98477L0.105889 2.34857L0.983082 5.85734L2.4383 5.49354ZM13.3335 11.4167H8.3335V12.9167H13.3335V11.4167Z" fill="white"/>
<path d="M8.72802 17.9561C8.72802 18.4406 8.33529 18.8333 7.85083 18.8333C7.36637 18.8333 6.97363 18.4406 6.97363 17.9561C6.97363 17.4717 7.36637 17.0789 7.85083 17.0789C8.33529 17.0789 8.72802 17.4717 8.72802 17.9561Z" fill="white"/>
<path d="M13.9912 17.9561C13.9912 18.4406 13.5984 18.8333 13.114 18.8333C12.6295 18.8333 12.2368 18.4406 12.2368 17.9561C12.2368 17.4717 12.6295 17.0789 13.114 17.0789C13.5984 17.0789 13.9912 17.4717 13.9912 17.9561Z" fill="white"/>
</svg>
