<svg width="21" height="22" viewBox="0 0 21 22" fill="none" xmlns="http://www.w3.org/2000/svg">
<path d="M19.2237 16.5387C19.2237 16.8537 19.1537 17.1775 19.005 17.4925C18.8562 17.8075 18.6638 18.105 18.41 18.385C17.9813 18.8575 17.5087 19.1988 16.975 19.4175C16.45 19.6363 15.8813 19.75 15.2688 19.75C14.3763 19.75 13.4225 19.54 12.4162 19.1113C11.41 18.6825 10.4037 18.105 9.40625 17.3788C8.4 16.6438 7.44625 15.83 6.53625 14.9287C5.635 14.0187 4.82125 13.065 4.095 12.0675C3.3775 11.07 2.8 10.0725 2.38 9.08375C1.96 8.08625 1.75 7.1325 1.75 6.2225C1.75 5.6275 1.855 5.05875 2.065 4.53375C2.275 4 2.6075 3.51 3.07125 3.0725C3.63125 2.52125 4.24375 2.25 4.89125 2.25C5.13625 2.25 5.38125 2.3025 5.6 2.4075C5.8275 2.5125 6.02875 2.67 6.18625 2.8975L8.21625 5.75875C8.37375 5.9775 8.4875 6.17875 8.56625 6.37125C8.645 6.555 8.68875 6.73875 8.68875 6.905C8.68875 7.115 8.6275 7.325 8.505 7.52625C8.39125 7.7275 8.225 7.9375 8.015 8.1475L7.35 8.83875C7.25375 8.935 7.21 9.04875 7.21 9.18875C7.21 9.25875 7.21875 9.32 7.23625 9.39C7.2625 9.46 7.28875 9.5125 7.30625 9.565C7.46375 9.85375 7.735 10.23 8.12 10.685C8.51375 11.14 8.93375 11.6038 9.38875 12.0675C9.86125 12.5313 10.3162 12.96 10.78 13.3537C11.235 13.7387 11.6112 14.0012 11.9087 14.1587C11.9525 14.1762 12.005 14.2025 12.0662 14.2287C12.1362 14.255 12.2062 14.2637 12.285 14.2637C12.4337 14.2637 12.5475 14.2113 12.6437 14.115L13.3088 13.4588C13.5275 13.24 13.7375 13.0737 13.9388 12.9688C14.14 12.8462 14.3412 12.785 14.56 12.785C14.7262 12.785 14.9013 12.82 15.0938 12.8988C15.2862 12.9775 15.4875 13.0913 15.7063 13.24L18.6025 15.2962C18.83 15.4537 18.9875 15.6375 19.0837 15.8562C19.1712 16.075 19.2237 16.2937 19.2237 16.5387Z" stroke="#006DD2" stroke-miterlimit="10"/>
</svg>
