<svg width="32" height="32" viewBox="0 0 32 32" fill="none" xmlns="http://www.w3.org/2000/svg">
<g clip-path="url(#clip0_76_43687)">
<path fill-rule="evenodd" clip-rule="evenodd" d="M23.8008 0.9375H8.19908C4.1952 0.9375 0.93689 4.19556 0.93689 8.2V23.8C0.93689 27.8042 4.1952 31.0625 8.19908 31.0625H23.8008C27.8048 31.0625 31.063 27.8042 31.063 23.8V8.2C31.063 4.19556 27.8048 0.9375 23.8008 0.9375ZM10.5504 23.0124C10.5504 23.5649 10.1013 24.0123 9.54939 24.0123C8.99751 24.0123 8.55133 23.5649 8.55133 23.0124V17.3876C8.55133 16.8352 8.99751 16.3876 9.54939 16.3876C10.1013 16.3876 10.5504 16.8352 10.5504 17.3876V23.0124ZM16.9995 23.0124C16.9995 23.5649 16.5533 24.0123 16.0014 24.0123C15.4466 24.0123 15.0004 23.5649 15.0004 23.0124V14.0876C15.0004 13.5351 15.4466 13.0874 16.0014 13.0874C16.5533 13.0874 16.9995 13.5351 16.9995 14.0876V23.0124ZM23.4515 23.0124C23.4515 23.5649 23.0024 24.0123 22.4505 24.0123C21.8986 24.0123 21.4495 23.5649 21.4495 23.0124V8.98731C21.4495 8.43519 21.8986 7.9875 22.4505 7.9875C23.0024 7.9875 23.4515 8.43519 23.4515 8.98731V23.0124Z" fill="url(#paint0_linear_76_43687)"/>
</g>
<defs>
<linearGradient id="paint0_linear_76_43687" x1="7.44523" y1="28.6791" x2="22.3101" y2="3.37536" gradientUnits="userSpaceOnUse">
<stop stop-color="#00AAE3"/>
<stop offset="1" stop-color="#58C3BD"/>
</linearGradient>
<clipPath id="clip0_76_43687">
<rect width="32" height="32" fill="white"/>
</clipPath>
</defs>
</svg>
