<svg width="60" height="60" viewBox="0 0 60 60" fill="none" xmlns="http://www.w3.org/2000/svg">
<path d="M55.3027 23.395C55.3092 23.2519 55.3125 23.1098 55.3125 22.9688C55.3125 17.4763 50.844 13.0078 45.3516 13.0078C44.1858 13.0078 43.0309 13.2154 41.9395 13.616C39.9375 10.3494 36.3866 8.32031 32.4609 8.32031C26.6535 8.32031 21.8704 12.79 21.3711 18.4699C17.6907 19.9063 15.0554 23.1909 14.4367 27.0703H9.96094C8.99016 27.0703 8.20312 27.8573 8.20312 28.8281C8.20312 29.7989 8.99016 30.5859 9.96094 30.5859H14.4361C15.2814 35.8923 19.8891 39.9609 25.4297 39.9609C27.7685 39.9609 30.0144 39.2291 31.8805 37.8986C32.388 38.7758 33.0442 39.562 33.8162 40.2186C34.487 39.6715 35.2423 39.2242 36.0604 38.9023C37.3194 34.7715 41.1659 31.7578 45.7031 31.7578C50.2404 31.7578 54.0868 34.7715 55.3459 38.9024C55.354 38.9055 55.362 38.9092 55.37 38.9123C58.1241 37.4266 60 34.5145 60 31.1719C60 27.8629 58.1614 24.8937 55.3027 23.395Z" fill="url(#paint0_linear_76_43739)"/>
<path d="M52.2656 41.8359C52.2656 38.2116 49.3275 35.2734 45.7031 35.2734C42.0788 35.2734 39.1406 38.2116 39.1406 41.8359C36.4223 41.8359 34.2188 44.0395 34.2188 46.7578C34.2188 49.4761 36.4223 51.6797 39.1406 51.6797H52.2656C54.9839 51.6797 57.1875 49.4761 57.1875 46.7578C57.1875 44.0395 54.9839 41.8359 52.2656 41.8359Z" fill="url(#paint1_linear_76_43739)"/>
<path d="M9.96094 34.1016H4.10156C3.13078 34.1016 2.34375 34.8886 2.34375 35.8594C2.34375 36.8302 3.13078 37.6172 4.10156 37.6172H9.96094C10.9317 37.6172 11.7188 36.8302 11.7188 35.8594C11.7188 34.8886 10.9317 34.1016 9.96094 34.1016Z" fill="url(#paint2_linear_76_43739)"/>
<path d="M4.10156 23.5547H9.96094C10.9317 23.5547 11.7188 22.7677 11.7188 21.7969C11.7188 20.8261 10.9317 20.0391 9.96094 20.0391H4.10156C3.13078 20.0391 2.34375 20.8261 2.34375 21.7969C2.34375 22.7677 3.13078 23.5547 4.10156 23.5547Z" fill="url(#paint3_linear_76_43739)"/>
<path d="M5.85938 28.8281C5.85938 27.8573 5.07234 27.0703 4.10156 27.0703H1.75781C0.787031 27.0703 0 27.8573 0 28.8281C0 29.7989 0.787031 30.5859 1.75781 30.5859H4.10156C5.07234 30.5859 5.85938 29.7989 5.85938 28.8281Z" fill="url(#paint4_linear_76_43739)"/>
<defs>
<linearGradient id="paint0_linear_76_43739" x1="16.2492" y1="11.2108" x2="34.2709" y2="44.9767" gradientUnits="userSpaceOnUse">
<stop stop-color="#0090EA"/>
<stop offset="1" stop-color="#801DE5"/>
</linearGradient>
<linearGradient id="paint1_linear_76_43739" x1="37.7867" y1="36.7601" x2="47.7731" y2="52.892" gradientUnits="userSpaceOnUse">
<stop stop-color="#0090EA"/>
<stop offset="1" stop-color="#801DE5"/>
</linearGradient>
<linearGradient id="paint2_linear_76_43739" x1="3.80006" y1="34.4201" x2="5.20561" y2="38.7449" gradientUnits="userSpaceOnUse">
<stop stop-color="#0090EA"/>
<stop offset="1" stop-color="#801DE5"/>
</linearGradient>
<linearGradient id="paint3_linear_76_43739" x1="3.80006" y1="20.3576" x2="5.20561" y2="24.6824" gradientUnits="userSpaceOnUse">
<stop stop-color="#0090EA"/>
<stop offset="1" stop-color="#801DE5"/>
</linearGradient>
<linearGradient id="paint4_linear_76_43739" x1="0.910194" y1="27.3889" x2="2.86738" y2="31.1527" gradientUnits="userSpaceOnUse">
<stop stop-color="#0090EA"/>
<stop offset="1" stop-color="#801DE5"/>
</linearGradient>
</defs>
</svg>
