<svg width="60" height="60" viewBox="0 0 60 60" fill="none" xmlns="http://www.w3.org/2000/svg">
<path d="M22.5823 27.9728C15.7708 27.9728 9.42465 26.0778 5.1354 23.1957C5.08988 23.165 5.04446 23.1343 5 23.1036V28.981C5.86016 29.8031 6.94888 30.5945 8.23228 31.3139C12.1216 33.4935 17.3515 34.7441 22.5825 34.7441C24.6181 34.7441 26.6157 34.5907 28.5244 34.2933V27.5557C26.6008 27.831 24.6053 27.9728 22.5823 27.9728Z" fill="url(#paint0_linear_76_43715)"/>
<path d="M28.5243 39.5308V37.5015C26.6008 37.7766 24.6053 37.9184 22.5823 37.9184C15.758 37.9184 9.40136 36.0171 5.11211 33.1245C5.074 33.1001 5.03695 33.0747 5 33.0493V39.5096C5.76287 40.1603 6.67066 40.7856 7.70327 41.3655C11.5926 43.545 16.8225 44.7956 22.0534 44.7956C24.8614 44.7956 27.5975 44.5036 30.1283 43.946C29.1062 42.7345 28.5243 41.1845 28.5243 39.5308Z" fill="url(#paint1_linear_76_43715)"/>
<path d="M40.13 50.2624L40.0221 50.2042L33.4654 46.3497C29.9993 47.4056 26.0835 47.9696 22.0534 47.9696C15.4471 47.9696 9.27876 46.1878 5 43.4507V49.5629C5 54.4458 13.8663 56.9999 22.6247 56.9999C30.9387 56.9999 39.3501 54.6976 40.1807 50.2866C40.1638 50.2793 40.1469 50.2709 40.13 50.2624Z" fill="url(#paint2_linear_76_43715)"/>
<path d="M22.6245 2.79688C14.1419 2.79688 5.55919 5.19272 5.02637 9.77775C5.77304 10.4052 6.65278 11.0089 7.65141 11.5683C11.5401 13.7477 16.7706 14.9976 22.0014 14.9976C27.3842 14.9976 32.5046 13.9227 36.4191 11.971C37.9775 11.1939 39.245 10.315 40.1586 9.40362C39.2143 5.0624 30.8717 2.79688 22.6245 2.79688Z" fill="url(#paint3_linear_76_43715)"/>
<path d="M37.835 14.812C33.4897 16.9788 27.8662 18.1723 22.0016 18.1723C15.4216 18.1723 9.27654 16.2974 5 13.5793V19.2472C5.86016 20.0693 6.84312 20.6491 8.12652 21.3686C12.0158 23.5481 17.3515 24.7987 22.5825 24.7987C24.6181 24.7987 26.6157 24.6453 28.5244 24.3479V22.527C28.5244 21.1854 29.4226 20.0089 30.7124 19.6545L40.2484 16.8676V13.4099C39.5193 13.9053 38.7153 14.3729 37.835 14.812Z" fill="url(#paint4_linear_76_43715)"/>
<path d="M53.5782 22.0637L43.7275 19.1845L43.6879 19.1735C43.3895 19.0945 43.0737 19.0945 42.7753 19.1735L32.885 22.0637C31.8187 22.357 31.0762 23.3293 31.0762 24.4375V38.4919C31.0762 40.6269 32.2501 42.5527 34.1439 43.5309L40.5794 47.3135L40.6684 47.3621C41.4709 47.7671 42.3513 47.9696 43.2315 47.9696C44.1118 47.9696 44.9922 47.7671 45.7946 47.3621L45.84 47.3392L52.3192 43.5309C54.213 42.5526 55.387 40.6269 55.387 38.4919V24.4375C55.387 23.3293 54.6445 22.3572 53.5782 22.0637ZM48.9656 31.7221L42.4849 37.7192C42.4716 37.7315 42.4573 37.742 42.4438 37.7537C42.4251 37.7699 42.4065 37.7861 42.3873 37.8013C42.3655 37.8185 42.343 37.8344 42.3205 37.8504C42.3007 37.8644 42.281 37.8785 42.2606 37.8916C42.237 37.9067 42.2129 37.9204 42.1888 37.934C42.1686 37.9454 42.1487 37.9572 42.1283 37.9677C42.1025 37.9808 42.0762 37.9923 42.05 38.0041C42.0302 38.0129 42.0107 38.0222 41.9907 38.0301C41.9625 38.0413 41.9339 38.0506 41.9053 38.06C41.8863 38.0662 41.8677 38.0732 41.8486 38.0787C41.8177 38.0876 41.7864 38.0945 41.7551 38.1016C41.7378 38.1055 41.7207 38.1104 41.7033 38.1137C41.6681 38.1203 41.6327 38.1247 41.5974 38.129C41.5834 38.1307 41.5697 38.1335 41.5557 38.1347C41.5062 38.1394 41.4567 38.1418 41.4072 38.1418H41.4071H41.4068C41.3545 38.1418 41.3025 38.1391 41.2505 38.134C41.2359 38.1325 41.2214 38.1295 41.2068 38.1276C41.1695 38.123 41.1323 38.1181 41.0956 38.1108C41.0772 38.1071 41.0591 38.1017 41.0408 38.0975C41.0082 38.0897 40.9754 38.0822 40.9434 38.0725C40.9232 38.0663 40.9037 38.0586 40.8838 38.0516C40.854 38.0413 40.8243 38.0312 40.795 38.0189C40.774 38.0101 40.7535 37.9998 40.7328 37.99C40.7056 37.9773 40.6785 37.9647 40.6519 37.9503C40.6304 37.9387 40.6097 37.9255 40.5886 37.9129C40.5638 37.898 40.5391 37.8832 40.515 37.8668C40.4938 37.8523 40.4733 37.8365 40.4526 37.8208C40.4298 37.8037 40.4072 37.7865 40.3851 37.768C40.365 37.7511 40.3456 37.7329 40.3262 37.7148C40.3123 37.7019 40.2976 37.6902 40.284 37.6767L37.4526 34.8448C36.8327 34.2249 36.8327 33.2201 37.4526 32.6003C38.0724 31.9805 39.0773 31.9805 39.697 32.6003L41.4491 34.3524L46.8093 29.3923C47.4524 28.7969 48.4566 28.8359 49.052 29.4793C49.6478 30.1226 49.6091 31.1268 48.9656 31.7221Z" fill="url(#paint5_linear_76_43715)"/>
<defs>
<linearGradient id="paint0_linear_76_43715" x1="8.65427" y1="24.1584" x2="14.3891" y2="37.5311" gradientUnits="userSpaceOnUse">
<stop stop-color="#0090EA"/>
<stop offset="1" stop-color="#801DE5"/>
</linearGradient>
<linearGradient id="paint1_linear_76_43715" x1="8.90343" y1="34.1137" x2="14.4632" y2="47.8373" gradientUnits="userSpaceOnUse">
<stop stop-color="#0090EA"/>
<stop offset="1" stop-color="#801DE5"/>
</linearGradient>
<linearGradient id="paint2_linear_76_43715" x1="10.465" y1="44.6784" x2="15.9993" y2="61.2592" gradientUnits="userSpaceOnUse">
<stop stop-color="#0090EA"/>
<stop offset="1" stop-color="#801DE5"/>
</linearGradient>
<linearGradient id="paint3_linear_76_43715" x1="10.4838" y1="3.90244" x2="15.0633" y2="19.1181" gradientUnits="userSpaceOnUse">
<stop stop-color="#0090EA"/>
<stop offset="1" stop-color="#801DE5"/>
</linearGradient>
<linearGradient id="paint4_linear_76_43715" x1="10.4755" y1="14.4419" x2="14.4976" y2="28.8054" gradientUnits="userSpaceOnUse">
<stop stop-color="#0090EA"/>
<stop offset="1" stop-color="#801DE5"/>
</linearGradient>
<linearGradient id="paint5_linear_76_43715" x1="34.8526" y1="21.729" x2="54.4677" y2="40.7972" gradientUnits="userSpaceOnUse">
<stop stop-color="#0090EA"/>
<stop offset="1" stop-color="#801DE5"/>
</linearGradient>
</defs>
</svg>
