<svg width="60" height="60" viewBox="0 0 60 60" fill="none" xmlns="http://www.w3.org/2000/svg">
<g clip-path="url(#clip0_76_43734)">
<path d="M38.7889 0C31.0332 0 24.7264 6.42574 24.7264 14.1797C24.7264 21.9336 31.0332 28.2422 38.7889 28.2422C46.5446 28.2422 52.8514 21.9336 52.8514 14.1797C52.8514 6.42574 46.5446 0 38.7889 0ZM35.2733 7.14844C36.2441 7.14844 37.0311 7.93523 37.0311 8.90625C37.0311 9.87703 36.2441 10.6641 35.2733 10.6641C34.3025 10.6641 33.5155 9.87703 33.5155 8.90625C33.5155 7.93523 34.3027 7.14844 35.2733 7.14844ZM42.3046 21.2109C41.3338 21.2109 40.5468 20.4239 40.5468 19.4531C40.5468 18.4821 41.3338 17.6953 42.3046 17.6953C43.2753 17.6953 44.0624 18.4821 44.0624 19.4531C44.0624 20.4239 43.2753 21.2109 42.3046 21.2109ZM43.7672 9.88125L36.7359 20.4281C36.1911 21.2425 35.0995 21.4498 34.2983 20.9156C33.4915 20.3766 33.2718 19.2866 33.8108 18.478L40.8421 7.93113C41.3845 7.1209 42.4762 6.90809 43.2797 7.44363C44.0864 7.9827 44.3061 9.07277 43.7672 9.88125Z" fill="url(#paint0_linear_76_43734)"/>
<path d="M0.514863 44.5775C-0.171621 45.264 -0.171621 46.3767 0.514863 47.0632L12.8195 59.4851C13.5062 60.1717 14.6186 60.1717 15.3052 59.4851L17.7915 56.9986C18.4781 56.3121 18.4781 55.1992 17.7915 54.5127L5.48725 42.0909C4.80064 41.4044 3.68783 41.4044 3.00111 42.0909L0.514863 44.5775Z" fill="url(#paint1_linear_76_43734)"/>
<path d="M46.0914 48.9725L59.4505 36.5094C60.1743 35.8216 60.1799 34.6808 59.4849 33.9894C59.4724 33.9769 59.46 33.9646 59.4475 33.9524C57.524 32.0562 54.2375 32.2397 52.211 34.0254L44.6404 40.8421C43.7202 41.7605 42.4018 42.3046 41.0011 42.3046H29.9998C29.0282 42.3046 28.242 41.5184 28.242 40.5468C28.242 39.5752 29.0282 38.789 29.9998 38.789H40.5466C42.4883 38.789 44.0623 37.2148 44.0623 35.2734C44.0623 33.3317 42.4883 31.7578 40.5466 31.7578H33.3163C29.5397 27.5469 22.2437 27.2088 18.0997 31.1174L8.52258 40.1569L19.7622 51.5119L21.8214 49.4532H44.8835C45.3326 49.4532 45.765 49.281 46.0914 48.9725Z" fill="url(#paint2_linear_76_43734)"/>
</g>
<defs>
<linearGradient id="paint0_linear_76_43734" x1="29.0954" y1="2.55916" x2="48.1174" y2="24.4166" gradientUnits="userSpaceOnUse">
<stop stop-color="#0090EA"/>
<stop offset="1" stop-color="#801DE5"/>
</linearGradient>
<linearGradient id="paint1_linear_76_43734" x1="2.84372" y1="43.2455" x2="15.2566" y2="57.4768" gradientUnits="userSpaceOnUse">
<stop stop-color="#0090EA"/>
<stop offset="1" stop-color="#801DE5"/>
</linearGradient>
<linearGradient id="paint2_linear_76_43734" x1="16.5191" y1="30.4777" x2="27.1566" y2="57.7943" gradientUnits="userSpaceOnUse">
<stop stop-color="#0090EA"/>
<stop offset="1" stop-color="#801DE5"/>
</linearGradient>
<clipPath id="clip0_76_43734">
<rect width="60" height="60" fill="white"/>
</clipPath>
</defs>
</svg>
