<svg width="24" height="24" viewBox="0 0 24 24" fill="none" xmlns="http://www.w3.org/2000/svg">
<path d="M20.6745 3.54111C20.6765 3.54064 20.6786 3.54017 20.6807 3.53969C20.752 3.52345 20.8477 3.50168 20.9723 3.50008C21.1232 3.49815 21.2452 3.52965 21.3308 3.59843C21.412 3.66434 21.4595 3.76151 21.4833 3.87677C21.5004 3.95936 21.5008 4.03117 21.4996 4.06596L18.1132 19.8352C18.0353 20.1771 17.9235 20.3339 17.8459 20.4051C17.7745 20.4706 17.6966 20.4967 17.6027 20.4997C17.3849 20.5068 17.1529 20.3867 17.0917 20.3513L12.1814 16.8597L12.181 16.8594C12.0404 16.7597 11.8706 16.7109 11.6998 16.7194C11.5289 16.728 11.3646 16.7935 11.2346 16.9073L11.2345 16.9074L8.8183 19.0222L9.15159 15.1314C9.72842 14.6254 11.8574 12.7565 13.9233 10.9286C15.0052 9.97143 16.0705 9.02476 16.887 8.29072C17.295 7.92387 17.6421 7.60894 17.8985 7.3719C18.0265 7.25355 18.1336 7.15302 18.215 7.07438C18.2865 7.00532 18.3624 6.93026 18.4073 6.87432M20.6745 3.54111L17.6008 5.7731C17.6527 5.76469 17.7341 5.75353 17.8235 5.74983C17.903 5.74654 18.0353 5.74652 18.1672 5.7865C18.2965 5.82567 18.5759 5.9599 18.6111 6.30423C18.6375 6.56255 18.4935 6.76712 18.4073 6.87432M20.6745 3.54111L0.767323 11.0852M20.6745 3.54111L0.767323 11.0852M18.4073 6.87432C18.4073 6.87443 18.4072 6.87454 18.4071 6.87465L18.0175 6.56126L18.4076 6.87399C18.4075 6.8741 18.4074 6.87421 18.4073 6.87432ZM17.5819 6.29475C17.5746 6.30203 17.5663 6.31024 17.5569 6.31944L17.5861 6.30162C17.5981 6.29425 17.6107 6.28789 17.6238 6.28258C17.6267 6.27065 17.6298 6.26066 17.6326 6.25278C17.6327 6.2525 17.6328 6.25222 17.6329 6.25194C17.6355 6.24466 17.6379 6.23926 17.6394 6.23591C17.6426 6.22882 17.6447 6.22518 17.6447 6.22517C17.6447 6.22516 17.6402 6.23256 17.6279 6.24788L17.6274 6.24851C17.6279 6.24779 17.627 6.24873 17.6244 6.25152C17.6188 6.25731 17.6056 6.27108 17.5819 6.29475ZM17.5819 6.29475L17.3253 5.87501C17.3253 5.87499 17.3253 5.87498 17.3254 5.87496L17.5819 6.29475ZM0.767323 11.0852C0.772729 11.0821 0.777344 11.0795 0.781033 11.0774C0.770992 11.083 0.76063 11.0877 0.750034 11.0918L0.767323 11.0852ZM1.01506 11.5427C1.01445 11.5425 1.01383 11.5423 1.01323 11.542L1.00897 11.5405L1.00887 11.5408M1.01506 11.5427L1.00887 11.5408M1.01506 11.5427C1.01578 11.543 1.0165 11.5433 1.01723 11.5436L0.946712 11.7287M1.01506 11.5427L1.01592 11.543L1.0253 11.5464L0.855592 12.0167L0.946712 11.7287M1.00887 11.5408L1.00642 11.54L0.986978 11.6014M1.00887 11.5408L0.986978 11.6014M0.986978 11.6014L0.839263 12.0108L0.946712 11.7287M0.986978 11.6014L0.946712 11.7287M5.68089 13.2655L5.68069 13.2639L5.68057 13.2629L5.65302 13.0319C5.68575 13.028 5.71904 13.0311 5.75076 13.041L5.64957 13.009L5.55851 13.0647M5.68089 13.2655L5.68088 13.2655M5.68089 13.2655L5.81865 13.4917L5.68099 13.2663M5.68089 13.2655L5.68099 13.2663M5.68088 13.2655L5.68069 13.2639L5.68057 13.2629L5.65301 13.0319C5.62001 13.0358 5.58776 13.0468 5.55851 13.0647M5.68088 13.2655L5.68098 13.2663M5.68088 13.2655L5.68042 13.2647L5.68013 13.2643L5.55851 13.0647M5.55851 13.0647L5.55796 13.065L5.67999 13.2647L5.68028 13.2652L5.68098 13.2663M5.68098 13.2663L5.71224 13.5284L5.68099 13.2663M5.68098 13.2663L5.68099 13.2663M0.495651 11.3194C0.498209 11.313 0.50654 11.299 0.52317 11.2789C0.509952 11.2666 0.500893 11.2564 0.495042 11.2488C0.491961 11.2448 0.490791 11.2429 0.490756 11.2429C0.490673 11.2429 0.496571 11.2534 0.499042 11.2734C0.500593 11.286 0.500098 11.2975 0.49872 11.3065C0.497398 11.3151 0.495572 11.3196 0.495651 11.3194ZM17.8486 6.73303C17.8424 6.73903 17.836 6.74515 17.8294 6.75141C17.8413 6.75031 17.8533 6.74945 17.8649 6.74897C17.8892 6.74797 17.8999 6.74914 17.8999 6.74905C17.8999 6.74896 17.8917 6.7479 17.8773 6.74353C17.8714 6.74174 17.8614 6.7385 17.8486 6.73303ZM8.5237 19.5599L8.52961 19.5569L8.5237 19.5599Z" stroke="#00265E"/>
</svg>
