<svg width="21" height="20" viewBox="0 0 21 20" fill="none" xmlns="http://www.w3.org/2000/svg">
<path d="M10.3881 14.925H10.3981M10.3881 7.925V11.925M4.80015 18.925H15.976C17.7577 18.925 18.6485 18.925 19.171 18.5503C19.6269 18.2234 19.9246 17.72 19.9913 17.1629C20.0678 16.5245 19.6385 15.744 18.7799 14.1829L13.192 4.02298C12.2778 2.36083 11.8207 1.52975 11.2167 1.2548C10.6903 1.01516 10.0859 1.01516 9.55947 1.2548C8.95547 1.52975 8.49838 2.36082 7.5842 4.02298L1.99626 14.1829C1.13765 15.744 0.708341 16.5245 0.784832 17.1629C0.851576 17.72 1.14922 18.2234 1.60516 18.5503C2.12767 18.925 3.0185 18.925 4.80015 18.925Z" stroke="#C92628" stroke-linecap="round" stroke-linejoin="round"/>
</svg>
