<?xml version="1.0" encoding="utf-8"?>
<!-- Generator: Adobe Illustrator 24.3.0, SVG Export Plug-In . SVG Version: 6.00 Build 0)  -->
<svg version="1.1" id="Graphic_Elements" xmlns="http://www.w3.org/2000/svg" xmlns:xlink="http://www.w3.org/1999/xlink" viewBox="0 0 290.551 265.434" enable-background="new 0 0 290.551 265.434"
	 xml:space="preserve">
<g>
	<g opacity="0.15">
		<path fill="#E63718" d="M1.087,227.358c1.111-0.545,1.809-1.027,2.576-1.987c0.871-1.09,1.812-2.123,2.79-3.119
			c1.821-1.856,3.77-3.581,5.62-5.408c0.879-0.868,1.801-1.729,2.502-2.749c0.734-1.068,1.444-2.153,2.151-3.239
			c1.421-2.183,2.85-4.361,4.452-6.418c2.95-3.789,8.261-4.171,11.829-7.196c3.139-2.661,4.894-6.45,6.332-10.219
			c0.828-2.17,1.714-4.348,2.444-6.551c0.823-2.485,1.275-5.074,1.555-7.672c0.279-2.601,0.386-5.217,0.524-7.828
			c0.136-2.583,1.198-5.041,1.258-7.623c0.059-2.56-0.689-5.037-0.798-7.585c-0.053-1.245-0.662-2.287-1.054-3.457
			c-0.427-1.275-0.683-2.672-0.78-4.012c-0.093-1.275-0.411-2.469-0.643-3.73c-0.27-1.47-0.469-2.951-0.722-4.424
			c-0.224-1.305-0.491-2.602-0.864-3.873c-0.382-1.304-0.964-2.527-1.416-3.807c-3.575-10.122-2.014-21.057-1.786-31.54
			c0.055-2.521,0.044-5.045-0.127-7.561c-0.034-0.5-0.063-0.969-0.219-1.447c-0.158-0.484-0.55-1.066-0.553-1.582
			c-0.007-1.039,1.222-1.439,2.05-1.578c5.005-0.84,8.481,3.66,10.05,7.836c1.65,4.39,1.75,9.175,2.128,13.794
			c0.097,1.186,0.132,2.386,0.286,3.566c0.177,1.354,0.502,2.682,0.78,4.017c0.244,1.172,0.461,2.353,0.54,3.549
			c0.083,1.249,0.166,2.342,0.703,3.499c0.565,1.217,1.264,2.375,1.837,3.591c0.577,1.228,1.111,2.475,1.614,3.735
			c1.002,2.509,1.881,5.064,2.756,7.62c0.432,1.263,0.769,2.636,1.328,3.847c0.194,0.42,0.484,0.794,0.74,1.178
			c0.402,0.605,0.678,1.243,0.968,1.905c0.477,1.089,0.976,2.207,1.235,3.367c0.328,1.473,0.415,2.987,0.421,4.493
			c0.005,1.325-0.064,2.65-0.059,3.975c0.005,1.187,0.269,2.345,0.609,3.477c0.339,1.129,0.959,2.194,1.495,3.242
			c0.545,1.066,1.111,2.121,1.687,3.17c2.324,4.23,4.838,8.361,6.945,12.707c2.104,4.341,3.757,8.909,4.405,13.708
			c0.738,5.467,0.05,11.021-1.771,16.216c-0.428,1.222-0.883,2.423-1.545,3.538c-0.707,1.189-1.45,2.356-2.138,3.556
			c-0.614,1.071-1.168,2.166-1.649,3.303c-0.545,1.288-1.315,2.433-2.133,3.563c-1.663,2.297-3.577,4.412-5.434,6.554
			c-1.906,2.199-3.827,4.386-5.722,6.595c-3.554,4.143-6.695,8.663-10.938,12.147c-1.956,1.606-4.018,3.078-6.012,4.635
			c-2.111,1.648-3.95,3.491-5.69,5.524c-1.707,1.994-3.346,4.055-5.262,5.857c-1.725,1.624-3.913,3.268-6.306,3.655
			c-0.472,0.077-0.918,0.081-1.374,0.193c-0.245,0.06-0.579,0.165-0.806-0.006c-0.73-0.551,0.168-2.774,0.409-3.396
			c0.905-2.336,2.591-4.284,4.225-6.141c7.09-8.057,15.702-14.524,23.781-21.523c4.182-3.623,8.858-6.71,13.697-9.395
			c4.795-2.66,9.936-4.841,14.479-7.929c2.388-1.623,4.715-3.333,7.027-5.062c2.118-1.584,3.963-3.465,5.754-5.408
			c1.799-1.951,3.506-3.985,5.191-6.035c1.721-2.093,3.677-3.954,5.593-5.869c4.027-4.027,7.802-8.297,11.815-12.338
			c1.894-1.908,3.939-3.689,5.708-5.707c0.729-0.832,1.523-1.615,2.108-2.561c0.627-1.013,0.995-2.185,1.49-3.266
			c2.202-4.81,4.973-9.332,7.505-13.969c1.163-2.13,2.142-4.356,3.3-6.484c1.01-1.856,2.329-3.588,2.959-5.63
			c1.022-3.316-1.194-7.073-4.582-7.872c-2.759-0.651-5.532,0.917-7.66,2.514c-2.578,1.933-4.806,4.336-6.864,6.802
			c-0.95,1.139-1.861,2.272-2.631,3.542c-1.396,2.303-2.654,4.687-4.033,7c-1.335,2.239-2.74,4.732-4.787,6.402
			c-1.021,0.833-2.293,1.311-3.484,1.854c-1.204,0.549-2.408,1.096-3.593,1.684c0.184,0.001,0.367,0.003,0.55,0.004
			c-0.247-0.124-0.495-0.247-0.742-0.371c0.169,0.193,0.338,0.386,0.507,0.579c-0.375-1.619-0.38-3.289-0.606-4.93
			c-0.074-0.534-1.284-0.968-1.188-0.268c0.172,1.248,0.214,2.51,0.388,3.757c0.144,1.03,0.236,1.534,1.175,1.977
			c0.878,0.415,1.553-0.205,2.38-0.592c1.276-0.598,2.568-1.162,3.839-1.771c2.549-1.221,4.091-3.523,5.576-5.842
			c1.518-2.371,2.838-4.858,4.249-7.292c1.699-2.931,3.783-5.507,6.121-7.956c2.234-2.339,4.904-4.896,8.061-5.892
			c1.28-0.404,2.686-0.495,3.889,0.191c1.803,1.028,2.83,3.193,2.441,5.223c-0.435,2.27-1.977,4.168-3.058,6.156
			c-1.209,2.223-2.235,4.544-3.454,6.766c-2.539,4.628-5.303,9.151-7.478,13.967c-0.486,1.076-0.855,2.235-1.515,3.221
			c-0.666,0.994-1.537,1.84-2.315,2.744c-0.925,1.074-2.022,2.007-3.037,2.997c-1.026,1.001-2.041,2.013-3.046,3.035
			c-4.063,4.131-7.931,8.445-12.028,12.542c-0.961,0.961-1.922,1.922-2.883,2.883c-1.021,1.021-1.89,2.2-2.814,3.31
			c-1.775,2.134-3.591,4.235-5.524,6.228c-0.993,1.023-2,2.084-3.121,2.968c-1.153,0.909-2.354,1.764-3.538,2.632
			c-2.372,1.74-4.756,3.468-7.316,4.923c-4.962,2.819-10.285,5.079-15.062,8.212c-2.336,1.532-4.745,2.957-6.989,4.625
			c-2.258,1.678-4.318,3.627-6.467,5.441c-4.116,3.473-8.3,6.869-12.298,10.478c-3.916,3.536-7.944,7.293-11.033,11.594
			c-0.666,0.927-1.252,1.908-1.693,2.963c-0.413,0.989-0.89,2.244-0.787,3.334c0.146,1.554,1.502,2.256,2.918,1.951
			c0.905-0.195,1.833-0.228,2.731-0.552c1.15-0.415,2.203-1.05,3.188-1.766c2.125-1.545,3.89-3.496,5.586-5.489
			c1.773-2.083,3.484-4.273,5.554-6.075c2.014-1.754,4.235-3.274,6.342-4.912c2.033-1.58,3.995-3.259,5.713-5.183
			c1.923-2.154,3.64-4.507,5.507-6.712c3.785-4.472,7.842-8.748,11.476-13.343c0.84-1.062,1.646-2.183,2.349-3.341
			c0.676-1.113,1.094-2.339,1.688-3.494c1.192-2.318,2.846-4.42,3.829-6.836c2.07-5.089,3.093-10.587,2.727-16.082
			c-0.669-10.051-5.903-18.701-10.713-27.262c-1.246-2.218-2.462-4.455-3.566-6.748c-1.227-2.549-1.064-5.104-1.037-7.856
			c0.013-1.385-0.017-2.775-0.226-4.147c-0.208-1.371-0.651-2.574-1.167-3.849c-0.417-1.032-0.829-2.051-1.448-2.981
			c-0.777-1.168-1.141-2.481-1.594-3.803c-0.912-2.663-1.812-5.33-2.836-7.952c-1.041-2.666-2.316-5.166-3.588-7.722
			c-0.574-1.154-0.657-2.217-0.74-3.472c-0.087-1.303-0.336-2.588-0.607-3.863c-0.261-1.229-0.551-2.455-0.714-3.703
			c-0.166-1.275-0.207-2.575-0.309-3.857c-0.376-4.714-0.534-9.57-2.28-14.028c-0.829-2.115-2.043-4.334-3.739-5.878
			c-1.57-1.429-3.744-2.732-5.917-2.837c-1.379-0.067-3.44,0.044-4.315,1.295c-0.525,0.751-0.293,1.453,0.01,2.243
			c0.48,1.253,0.483,2.535,0.533,3.868c0.209,5.492-0.221,10.979-0.408,16.465c-0.181,5.294-0.163,10.644,0.892,15.857
			c0.531,2.625,1.407,5.066,2.374,7.553c1.077,2.77,1.339,5.81,1.836,8.717c0.212,1.242,0.616,2.502,0.73,3.747
			c0.123,1.339,0.28,2.614,0.6,3.924c0.28,1.151,0.893,2.194,1.177,3.334c0.173,0.695,0.115,1.473,0.195,2.185
			c0.082,0.732,0.202,1.46,0.317,2.188c0.197,1.243,0.391,2.495,0.381,3.757c-0.012,1.508-0.447,2.982-0.769,4.447
			c-0.591,2.684-0.572,5.409-0.76,8.145c-0.187,2.72-0.475,5.443-1.101,8.101c-0.575,2.443-1.564,4.742-2.42,7.094
			c-1.491,4.094-3.116,8.449-6.415,11.46c-1.809,1.652-3.999,2.614-6.225,3.569c-1.997,0.857-4.049,1.749-5.547,3.381
			c-1.817,1.981-3.259,4.397-4.723,6.643c-0.702,1.077-1.4,2.156-2.121,3.221c-0.848,1.252-1.861,2.3-2.938,3.358
			c-1.76,1.727-3.599,3.372-5.336,5.122c-0.903,0.911-1.778,1.85-2.598,2.836c-0.41,0.494-0.773,1.098-1.283,1.49
			c-0.456,0.352-1.027,0.587-1.541,0.84C-0.383,226.727,0.587,227.603,1.087,227.358L1.087,227.358z" pathLength="1"/>
	</g>
	<g opacity="0.15">
		<path fill="#E63718" d="M98.972,161.216c0.007-0.928,0.108-1.856,0.077-2.785c-0.029-0.878-0.203-1.736-0.426-2.584
			c-0.469-1.778-1.056-3.497-1.328-5.323c-0.137-0.923-0.213-1.852-0.248-2.784c-0.034-0.907-0.292-1.694-0.524-2.562
			c-0.236-0.884-0.247-1.785-0.257-2.694c-0.01-0.894-0.124-1.749-0.325-2.62c-0.358-1.545-0.623-3.147-1.633-4.426
			c-0.475-0.602-1.044-0.989-1.68-1.401c-0.733-0.476-1.475-1.012-2.329-1.248c-0.385-0.106-0.827-0.032-1.197-0.162
			c-0.36-0.126-0.648-0.444-1.005-0.595c-0.796-0.337-1.693-0.556-2.533-0.758c-1.849-0.445-3.745-0.547-5.64-0.563
			c-1.832-0.016-3.687-0.06-5.514,0.115c-0.922,0.088-1.814,0.271-2.744,0.258c-0.469-0.007-0.935-0.02-1.401,0.049
			c-0.438,0.066-0.858,0.198-1.291,0.29c-0.901,0.192-1.882,0.103-2.798,0.084c-0.728-0.015-1.447-0.022-2.174,0.028
			c-0.649,0.044-1.333,0.119-1.977-0.005c-0.689-0.133-0.808-0.657-1.06-1.241c-0.134-0.31-0.293-0.569-0.523-0.817
			c-0.212-0.229-0.489-0.429-0.648-0.702c-0.369-0.633-0.287-1.668-0.299-2.378c-0.029-1.709,0.174-3.381,0.369-5.074
			c0.45-3.911,0.575-7.814,0.575-11.748c0-2.01,0-4.02,0-6.03c0-0.942,0.008-1.883-0.036-2.824
			c-0.042-0.893-0.102-1.792-0.004-2.684c0.208-1.899,0.904-3.712,1.379-5.552c0.478-1.852,0.813-3.76,1.201-5.633
			c0.192-0.927,0.364-1.858,0.476-2.798c0.112-0.937,0.084-1.855,0.068-2.796c-0.016-0.935,0.165-1.802,0.29-2.722
			c0.124-0.915,0.116-1.828,0.133-2.749c0.036-1.916,0.314-3.817,0.381-5.731c0.069-1.968,0.011-3.944,0.007-5.913
			c-0.002-0.79-0.048-1.573-0.066-2.362c-0.015-0.652,0.036-1.344,0.503-1.846c1.085-1.168,3.045-1.226,4.518-1.117
			c2.317,0.171,3.368,2.848,3.952,4.745c0.362,1.177,0.617,2.382,0.903,3.578c0.448,1.877,0.923,3.747,1.312,5.638
			c0.391,1.906,0.702,3.838,0.784,5.785c0.081,1.943,0.029,3.899,0.049,5.844c0.021,1.996,0.041,3.994-0.014,5.99
			c-0.051,1.87-0.403,3.702-0.4,5.578c0.002,2.018,0.014,4.036-0.006,6.054c-0.018,1.888,0.186,3.757,0.5,5.617
			c0.325,1.922,0.759,3.825,1.052,5.752c0.3,1.974,0.387,3.97,0.516,5.96c0.061,0.939,0.135,1.877,0.236,2.813
			c0.099,0.923,0.018,1.842-0.025,2.766c-0.043,0.916,0,1.793,0.174,2.693c0.152,0.788,0.177,1.624,0.385,2.397
			c0.156,0.582,0.536,1.379,1.183,1.527c0.632,0.145,1.281-0.161,1.397-0.818c0.052-0.297-0.357-0.513-0.594-0.526
			c-0.915-0.053-1.813,0.192-2.723,0.149c-1.06-0.05-0.805-1.382-0.874-2.148c-0.145-1.607-0.513-3.185-0.674-4.79
			c-0.167-1.668-0.173-3.363-0.141-5.038c0.064-3.306,0.29-6.691,0.946-9.936c0.655-3.24,1.209-6.496,1.812-9.747
			c1.236-6.661,2.425-13.332,2.474-20.128c0.025-3.407-0.147-6.811-0.237-10.215c-0.044-1.685-0.069-3.371-0.04-5.057
			c0.028-1.616,0.041-3.279,0.276-4.881c0.229-1.564,1.068-3.081,2.638-3.612c1.42-0.48,2.98-0.08,4.222,0.682
			c0.737,0.452,1.384,1.059,1.895,1.756c0.618,0.842,0.942,1.751,1.268,2.732c0.472,1.421,1.111,2.777,1.657,4.169
			c0.55,1.403,0.873,2.784,1.096,4.269c0.247,1.643,0.696,3.226,0.742,4.898c0.044,1.612-0.08,3.223-0.082,4.835
			c-0.004,3.449,0.046,6.902-0.003,10.351c-0.046,3.289-0.672,6.52-1.263,9.744c-0.146,0.799-0.302,1.597-0.52,2.38
			c-0.209,0.75-0.428,1.475-0.544,2.248c-0.118,0.787-0.185,1.58-0.295,2.368c-0.109,0.777-0.258,1.547-0.349,2.327
			c-0.375,3.219-0.247,6.48,0.049,9.7c0.308,3.358,0.707,6.712,1.125,10.058c0.213,1.7,0.403,3.41,0.696,5.098
			c0.146,0.845,0.319,1.693,0.334,2.553c0.015,0.81-0.039,1.621-0.033,2.432c0.012,1.649,0.36,3.232,0.617,4.852
			c0.13,0.82,0.193,1.629,0.186,2.459c-0.005,0.602,0.031,1.194,0.249,1.761c0.253,0.656,0.687,1.232,0.795,1.938
			c0.084,0.548,0.089,1.132,0.474,1.571c0.265,0.302,1.136,0.515,1.245-0.062c0.392-2.078,0.445-4.194,0.517-6.302
			c0.076-2.212,0.335-4.406,0.532-6.609c0.398-4.443,0.194-8.91,0.218-13.364c0.012-2.235,0.063-4.473-0.074-6.706
			c-0.132-2.151-0.568-4.205-1.024-6.304c-0.462-2.127-0.67-4.298-1.031-6.444c-0.365-2.171-0.755-4.336-1.163-6.499
			c-0.12-0.634-0.171-0.963-0.127-1.592c0.046-0.652,0.119-1.303,0.193-1.952c0.127-1.107,0.318-2.219,0.389-3.331
			c0.039-0.602-1.267-0.763-1.305-0.172c-0.128,1.996-0.659,3.994-0.61,6.001c0.019,0.796,0.264,1.608,0.413,2.388
			c0.206,1.079,0.394,2.161,0.58,3.244c0.374,2.171,0.662,4.351,1.004,6.526c0.331,2.105,0.965,4.152,1.222,6.27
			c0.273,2.244,0.257,4.516,0.239,6.773c-0.035,4.454,0.178,8.934-0.104,13.381c-0.156,2.45-0.502,4.884-0.623,7.336
			c-0.118,2.403-0.105,4.811-0.552,7.184c0.415-0.021,0.83-0.041,1.245-0.062c-0.397-0.452-0.282-1.119-0.432-1.667
			c-0.197-0.716-0.688-1.312-0.869-2.036c-0.173-0.694-0.071-1.425-0.112-2.132c-0.047-0.821-0.176-1.632-0.321-2.44
			c-0.149-0.834-0.314-1.667-0.403-2.51c-0.091-0.861-0.07-1.729-0.052-2.593c0.018-0.833,0.024-1.65-0.086-2.477
			c-0.12-0.895-0.306-1.78-0.429-2.674c-0.475-3.463-0.891-6.934-1.269-10.409c-0.369-3.397-0.724-6.799-0.607-10.222
			c0.057-1.669,0.281-3.294,0.528-4.942c0.118-0.786,0.184-1.579,0.295-2.366c0.113-0.803,0.322-1.557,0.544-2.335
			c0.466-1.628,0.711-3.328,1.007-4.994c0.299-1.683,0.561-3.375,0.699-5.079c0.14-1.733,0.108-3.472,0.108-5.21
			c0-1.779,0-3.558-0.001-5.337c0-1.693,0.034-3.381,0.076-5.074c0.041-1.644-0.044-3.238-0.37-4.852
			c-0.316-1.564-0.458-3.178-0.926-4.706c-0.445-1.451-1.09-2.829-1.655-4.235c-0.466-1.161-0.752-2.404-1.337-3.513
			c-0.442-0.837-1.046-1.596-1.755-2.223c-2.472-2.187-6.912-2.991-9.104,0.022c-0.541,0.743-0.841,1.655-0.974,2.558
			c-0.239,1.635-0.251,3.332-0.277,4.982c-0.057,3.542,0.12,7.081,0.219,10.62c0.098,3.498,0.091,6.993-0.227,10.481
			c-0.314,3.446-0.86,6.865-1.468,10.269c-0.608,3.406-1.276,6.801-1.844,10.214c-0.272,1.633-0.692,3.237-0.945,4.873
			c-0.262,1.697-0.413,3.419-0.534,5.131c-0.241,3.406-0.317,6.892,0.216,10.274c0.128,0.81,0.272,1.618,0.376,2.432
			c0.094,0.739,0.04,1.521,0.188,2.247c0.196,0.962,1.065,1.41,1.98,1.471c0.901,0.06,1.789-0.203,2.686-0.152
			c-0.198-0.175-0.396-0.351-0.594-0.526c-0.025,0.145,0.049,0.121-0.065,0.122c0.207,0.066,0.413,0.131,0.62,0.197
			c-0.614-0.517-0.615-1.361-0.715-2.094c-0.121-0.887-0.37-1.756-0.389-2.655c-0.019-0.905,0.087-1.806,0.097-2.71
			c0.01-0.91-0.127-1.812-0.201-2.718c-0.16-1.959-0.22-3.927-0.427-5.882c-0.206-1.946-0.62-3.859-0.98-5.78
			c-0.356-1.901-0.682-3.82-0.741-5.757c-0.061-2,0.007-4.01,0.002-6.012c-0.002-0.97-0.033-1.945,0.042-2.913
			c0.071-0.916,0.215-1.824,0.296-2.739c0.174-1.961,0.101-3.96,0.085-5.927c-0.032-3.864,0.094-7.723-0.582-11.543
			c-0.336-1.901-0.79-3.778-1.244-5.653c-0.339-1.399-0.64-2.81-1.016-4.2c-0.577-2.133-1.441-4.601-3.463-5.775
			c-1.164-0.676-2.552-0.677-3.859-0.598c-1.437,0.087-3.246,0.537-4.075,1.837c-0.349,0.547-0.416,1.21-0.401,1.843
			c0.019,0.822,0.064,1.639,0.066,2.462c0.005,1.935,0.061,3.878-0.007,5.813c-0.068,1.948-0.356,3.882-0.383,5.831
			c-0.012,0.888-0.012,1.767-0.132,2.649c-0.125,0.92-0.306,1.787-0.29,2.722c0.017,0.975,0.041,1.923-0.08,2.893
			c-0.116,0.939-0.291,1.87-0.484,2.797c-0.391,1.873-0.722,3.782-1.205,5.632c-0.473,1.807-1.15,3.591-1.354,5.457
			c-0.101,0.922-0.034,1.853,0.008,2.777c0.044,0.944,0.032,1.888,0.032,2.833c0,3.964,0.099,7.943-0.095,11.903
			c-0.096,1.962-0.265,3.921-0.492,5.872c-0.196,1.688-0.391,3.357-0.355,5.061c0.016,0.749-0.017,1.641,0.23,2.356
			c0.222,0.643,0.8,0.945,1.146,1.493c0.367,0.582,0.423,1.262,0.991,1.721c0.499,0.402,1.18,0.541,1.804,0.586
			c0.668,0.048,1.334,0.004,2-0.041c0.748-0.051,1.494-0.03,2.243-0.015c0.911,0.019,1.851,0.073,2.751-0.099
			c0.407-0.078,0.801-0.213,1.208-0.284c0.502-0.088,1.018-0.044,1.525-0.042c0.923,0.005,1.82-0.198,2.737-0.278
			c0.897-0.078,1.798-0.094,2.698-0.098c1.913-0.007,3.84-0.055,5.744,0.164c0.946,0.109,1.87,0.294,2.782,0.568
			c0.394,0.118,0.794,0.218,1.185,0.349c0.419,0.14,0.723,0.426,1.112,0.619c0.367,0.183,0.749,0.226,1.151,0.257
			c0.456,0.035,0.825,0.197,1.221,0.422c0.681,0.387,1.462,0.819,2.037,1.355c1.212,1.129,1.461,2.785,1.827,4.314
			c0.22,0.919,0.366,1.805,0.377,2.751c0.01,0.889,0.014,1.789,0.224,2.659c0.213,0.883,0.526,1.682,0.56,2.601
			c0.032,0.886,0.101,1.771,0.22,2.65c0.254,1.862,0.827,3.613,1.319,5.419c0.232,0.853,0.441,1.73,0.462,2.617
			c0.021,0.898-0.072,1.795-0.079,2.693C97.663,161.649,98.968,161.799,98.972,161.216L98.972,161.216z" pathLength="1"/>
	</g>
	<g opacity="0.15">
		<path fill="#E63718" d="M277.474,240.906c-1.272-1.061-2.437-2.234-3.642-3.368c-1.344-1.265-2.772-2.322-4.285-3.371
			c-2.943-2.041-5.659-4.352-8.424-6.621c-2.851-2.339-5.749-4.621-8.646-6.904c-2.981-2.348-6.049-4.455-9.215-6.541
			c-3.019-1.989-5.999-4.041-9.013-6.039c-3.035-2.012-6.168-3.862-9.199-5.88c-3.127-2.081-6.311-3.965-9.675-5.639
			c-3.153-1.568-6.362-3.052-9.317-4.98c-5.979-3.901-11.017-8.869-15.973-13.956c-2.495-2.561-4.356-5.585-6.066-8.706
			c-1.676-3.059-3.418-5.982-4.559-9.296c-1.219-3.542-2.607-7.124-3.173-10.839c-0.255-1.674-0.428-3.362-0.537-5.052
			c-0.126-1.959-0.034-3.94-0.22-5.892c-0.167-1.757-0.358-3.451-0.35-5.221c0.008-1.851,0.025-3.701,0.011-5.552
			c-0.027-3.794,0.328-7.532,0.501-11.314c0.077-1.684,0.365-3.35,0.536-5.026c0.206-2.028,0.19-4.069,0.257-6.104
			c0.063-1.942,0.063-3.946,0.418-5.86c0.131-0.706,0.322-1.401,0.451-2.108c0.182-0.994,0.217-1.992,0.541-2.958
			c0.569-1.698,1.198-3.306,1.646-5.048c0.456-1.774,1.096-3.498,1.594-5.262c0.953-3.376,3.07-6.194,4.188-9.496
			c0.472-1.395,0.992-2.848,1.151-4.317c0.204-1.885,0.43-3.749,0.66-5.632c0.43-3.517,0.905-6.958,0.915-10.505
			c0.005-1.725,0.163-3.525-0.114-5.234c-0.293-1.805-1.028-3.517-1.459-5.289c-0.865-3.559-1.733-7.356-1.626-11.033
			c0.093-3.193,0.762-6.352,1.422-9.469c0.558-2.632,1.137-5.294,2.025-7.838c0.394-1.128,0.917-2.211,1.361-3.32
			c0.62-1.549,1.518-4.13,3.381-4.548c0.609-0.137,1.607-0.118,2.065,0.368c0.359,0.381,0.51,1.178,0.669,1.651
			c0.585,1.751,0.436,3.545,0.699,5.347c0.32,2.192,0.564,4.394,0.878,6.588c0.409,2.858,1.166,5.685,1.967,8.454
			c0.492,1.701,0.945,3.37,1.237,5.119c0.289,1.73,0.514,3.472,0.94,5.176c0.41,1.64,0.873,3.165,0.958,4.864
			c0.094,1.863,0.415,3.699,0.576,5.556c0.318,3.663,0.227,7.346,0.174,11.018c-0.026,1.807-0.123,3.648,0.023,5.45
			c0.135,1.654,0.605,3.248,0.975,4.858c1.656,7.227,1.089,14.662,2.392,21.923c0.644,3.591,1.765,7.059,2.62,10.599
			c0.882,3.654,1.192,7.391,1.958,11.063c1.093,5.238,2.637,10.305,4.248,15.393c0.304,0.959,0.592,1.931,0.785,2.92
			c0.073,0.374,0.148,0.759,0.159,1.141c0.002,0.084-0.042,0.398-0.007,0.464c0.138,0.255-0.501,0.22,0.21-0.02
			c0.176-0.003,0.351-0.006,0.527-0.009c-1-0.91-1.167-2.254-1.655-3.455c-0.637-1.565-1.189-3.094-1.574-4.746
			c-0.722-3.096-1.06-6.263-1.462-9.412c-0.819-6.425-1.498-12.827-1.71-19.306c-0.106-3.228-0.186-6.479-0.05-9.708
			c0.135-3.203,0.621-6.379,0.757-9.581c0.14-3.297,0.004-6.613,0.004-9.912c0-3.346,0-6.692,0-10.037
			c0-3.253,0.262-6.633-0.04-9.872c-0.278-2.985-1.054-6.003-1.81-8.896c-1.425-5.453-2.325-11.139-2.481-16.779
			c-0.067-2.402-0.049-4.812,0.092-7.211c0.152-2.588,0.783-4.97,1.281-7.502c0.439-2.232,0.446-4.571-1.099-6.391
			c-1.619-1.908-3.514-2.288-5.76-1.22c-1.79,0.851-3.838,2.17-4.97,3.833c-0.624,0.916-0.846,1.876-0.827,2.974
			c0.028,1.607-0.112,3.13-0.265,4.728c-0.208,2.177-0.107,4.4-0.119,6.586c-0.012,2.08-0.035,4.162-0.01,6.242
			c0.038,3.155,0.344,6.295,0.636,9.434c0.304,3.271,0.496,6.551,0.83,9.82c0.66,6.454,1.693,12.866,2.96,19.227
			c1.287,6.464,2.907,12.853,4.473,19.253c1.574,6.432,2.965,12.893,4.236,19.391c1.26,6.44,2.299,12.948,3.723,19.353
			c0.623,2.799,1.902,5.335,3.106,7.915c1.141,2.445,2.073,5.508,3.972,7.479c1.923,1.996,4.611,3.417,7.045,4.677
			c2.806,1.452,5.57,2.896,8.292,4.503c5.604,3.306,11.245,6.555,16.862,9.841c2.71,1.585,5.378,3.214,7.979,4.973
			c2.395,1.62,4.917,3.041,7.588,4.155c2.764,1.153,5.649,1.929,8.401,3.129c2.711,1.182,5.41,2.278,8.242,3.142
			c1.106,0.337,2.211,0.677,3.329,0.972c0.841,0.222,2.306,0.517,2.301,1.623c0.089-0.151,0.178-0.303,0.267-0.454
			c-1.358,1.096-4.031,0.76-5.648,0.49c-2.219-0.37-4.26-1.397-6.301-2.295c-4.162-1.831-8.051-4.058-12.008-6.281
			c-4.075-2.288-7.861-4.808-11.525-7.712c-3.583-2.839-6.944-5.94-10.504-8.804c-3.479-2.799-7.243-5.256-11.01-7.647
			c-3.707-2.352-7.599-4.548-11.823-5.824c-4.404-1.33-9.038-1.69-13.511-2.724c-4.639-1.072-9.263-2.407-13.844-3.709
			c-4.567-1.298-9.082-2.794-13.323-4.952c-4.114-2.094-7.916-4.725-11.68-7.382c-5.238-3.696-10.689-7.451-17.037-8.934
			c-2.503-0.585-5.289-0.784-7.656,0.397c-2.582,1.289-4.171,3.95-3.602,6.836c0.584,2.967,2.654,5.562,4.767,7.627
			c2.437,2.381,4.813,4.723,6.98,7.366c2.432,2.965,4.705,6.068,6.793,9.284c1.951,3.006,3.433,6.367,5.787,9.089
			c2.307,2.667,5.213,4.729,7.439,7.477c1.454,1.794,2.635,3.801,3.916,5.719c1.143,1.71,2.168,3.705,3.761,5.041
			c0.659,0.552,1.243,1.067,1.819,1.705c0.435,0.482,0.819,0.771,1.475,0.834c0.472,0.045,1.306-0.847,0.541-0.919
			c-0.749-0.071-1.684-1.502-2.285-1.987c-1.043-0.84-1.749-1.729-2.496-2.839c-1.541-2.29-2.995-4.656-4.596-6.903
			c-2.464-3.457-5.964-5.834-8.666-9.059c-1.399-1.669-2.393-3.55-3.473-5.426c-1.02-1.772-2.126-3.494-3.277-5.184
			c-2.464-3.617-5.137-7.115-8.066-10.369c-2.458-2.729-5.487-4.988-7.515-8.08c-1.017-1.551-1.901-3.378-1.837-5.277
			c0.069-2.055,1.505-3.842,3.433-4.502c3.374-1.156,7.43,0.283,10.548,1.596c3.16,1.331,6.158,3.05,8.969,5.009
			c4.389,3.057,8.686,6.278,13.383,8.858c4.699,2.581,9.74,4.339,14.882,5.809c5.22,1.492,10.521,3.092,15.846,4.152
			c5.315,1.058,10.697,1.591,15.691,3.84c4.762,2.143,9.153,5.119,13.453,8.056c4.398,3.003,8.312,6.531,12.396,9.932
			c4.092,3.408,8.276,6.692,12.914,9.329c4.584,2.606,9.111,5.243,13.944,7.369c3.673,1.616,7.912,3.53,12.011,2.276
			c1.11-0.34,2.646-1.246,1.361-2.412c-1.117-1.014-3.312-1.236-4.701-1.654c-4.951-1.492-9.534-3.849-14.451-5.411
			c-4.966-1.577-9.031-4.405-13.385-7.15c-4.594-2.896-9.318-5.644-14.026-8.351c-4.704-2.704-9.345-5.581-14.193-8.016
			c-2.224-1.117-4.415-2.257-6.471-3.666c-0.946-0.649-1.934-1.314-2.688-2.191c-0.835-0.97-1.364-2.238-1.914-3.383
			c-1.086-2.26-2.17-4.537-3.187-6.829c-1.126-2.538-1.699-5.115-2.221-7.828c-2.127-11.048-4.097-22.132-6.733-33.073
			c-2.578-10.699-5.281-21.34-6.926-32.236c-0.835-5.535-1.287-11.079-1.769-16.651c-0.413-4.779-0.827-9.511-0.813-14.311
			c0.011-3.848-0.083-7.702,0.316-11.531c0.13-1.243-0.022-2.483,0.089-3.716c0.113-1.264,0.879-2.234,1.826-3.017
			c0.805-0.665,1.725-1.269,2.645-1.763c1.492-0.802,2.835-0.803,4.111,0.352c3.715,3.36,0.941,8.387,0.536,12.529
			c-0.382,3.906-0.378,7.911-0.096,11.824c0.361,5.018,1.313,10.001,2.579,14.862c0.632,2.425,1.16,4.925,1.508,7.408
			c0.369,2.632,0.11,5.432,0.111,8.087c0.001,5.722-0.054,11.447,0.014,17.169c0.034,2.809-0.001,5.584-0.261,8.382
			c-0.253,2.728-0.529,5.449-0.557,8.191c-0.11,10.881,0.877,21.712,2.494,32.465c0.353,2.349,0.79,4.716,1.559,6.97
			c0.388,1.139,0.927,2.216,1.296,3.362c0.303,0.94,0.6,1.671,1.342,2.346c0.131,0.119,0.389,0.037,0.527-0.01
			c1.408-0.474,0.901-2.341,0.657-3.393c-0.412-1.776-1.021-3.505-1.624-5.224c-1.079-3.069-1.812-6.269-2.565-9.43
			c-0.876-3.675-1.323-7.38-2.014-11.087c-0.708-3.801-1.927-7.473-2.785-11.238c-0.861-3.776-1.147-7.597-1.385-11.454
			c-0.234-3.799-0.527-7.5-1.174-11.254c-0.295-1.709-0.81-3.368-1.114-5.074c-0.325-1.82-0.255-3.676-0.236-5.518
			c0.04-3.904,0.183-7.816-0.103-11.715c-0.262-3.582-0.564-7.237-1.484-10.703c-0.467-1.761-0.715-3.563-1.009-5.358
			c-0.299-1.824-0.759-3.563-1.273-5.336c-0.842-2.906-1.61-5.866-2.025-8.866c-0.314-2.268-0.66-4.547-0.907-6.823
			c-0.191-1.756-0.151-3.395-0.74-5.089c-0.345-0.992-0.557-1.809-1.674-2.032c-2.568-0.512-4.43,1.16-5.602,3.275
			c-1.342,2.422-2.364,5.231-3.107,7.901c-0.712,2.558-1.272,5.161-1.785,7.766c-0.696,3.529-1.321,7.167-0.884,10.771
			c0.459,3.782,1.368,7.512,2.465,11.151c0.549,1.82,0.623,3.541,0.614,5.43c-0.009,1.879,0.071,3.783-0.096,5.656
			c-0.335,3.752-1.192,7.465-1.411,11.225c-0.219,3.746-2.018,7.093-3.693,10.361c-0.812,1.585-1.387,3.186-1.878,4.895
			c-0.509,1.771-1.132,3.5-1.579,5.289c-0.444,1.781-1.32,3.434-1.723,5.213c-0.191,0.842-0.212,1.714-0.387,2.562
			c-0.177,0.861-0.403,1.711-0.512,2.584c-0.488,3.896-0.173,7.851-0.605,11.751c-0.422,3.806-0.801,7.647-0.948,11.474
			c-0.148,3.835-0.121,7.728-0.043,11.565c0.037,1.792,0.397,3.551,0.419,5.345c0.024,1.998,0.102,3.993,0.289,5.983
			c0.348,3.71,1.225,7.121,2.424,10.635c1.188,3.485,2.324,6.826,4.141,10.048c1.793,3.179,3.476,6.44,5.712,9.34
			c1.027,1.332,2.237,2.502,3.42,3.692c1.253,1.261,2.439,2.581,3.721,3.814c2.682,2.578,5.566,4.989,8.57,7.182
			c2.988,2.18,6.191,3.909,9.501,5.544c3.411,1.683,6.778,3.388,9.97,5.466c3.176,2.068,6.396,4.065,9.572,6.131
			c3.227,2.099,6.424,4.241,9.602,6.413c3.116,2.129,6.269,4.113,9.239,6.454c3.078,2.426,6.162,4.845,9.196,7.326
			c2.888,2.361,5.713,4.785,8.781,6.914c1.455,1.01,2.838,2.017,4.134,3.23c1.259,1.178,2.469,2.405,3.793,3.51
			C276.84,242.018,277.909,241.269,277.474,240.906L277.474,240.906z" pathLength="1"/>
	</g>
	<g>
		<path fill="#E63718" d="M185.548,73.94c0.06,0,0.555-0.003,0.465-0.138c-0.099-0.149-0.669-0.116-0.806-0.116
			c-0.061,0-0.555,0.003-0.465,0.138C184.841,73.973,185.411,73.94,185.548,73.94L185.548,73.94z" pathLength="1"/>
	</g>
	<g opacity="0.15">
		<path fill="#E63718" d="M212.243,109.293c-0.127-0.019-0.018,0.005-0.044-0.006c-0.094-0.04-0.034-0.011-0.052-0.027
			c-0.088-0.077-0.135-0.162-0.154-0.207c-0.105-0.242-0.129-0.517-0.137-0.777c-0.025-0.84,0.164-1.698,0.349-2.512
			c0.521-2.294,1.296-4.534,2.1-6.742c0.604-1.66,1.244-3.309,1.916-4.943c0.536-1.303,1.045-2.617,1.558-3.93
			c0.405-1.037,0.819-2.07,1.279-3.084c0.433-0.954,0.932-1.874,1.351-2.835c0.429-0.985,0.817-1.988,1.288-2.955
			c0.446-0.914,1.015-1.76,1.47-2.67c0.482-0.963,0.875-1.979,1.089-3.038c0.21-1.038,0.165-2.073,0.165-3.126
			c0.001-2.283,0.202-4.625-0.102-6.895c-0.283-2.114-1-4.139-1.655-6.159c-0.322-0.993-0.635-1.991-0.883-3.006
			c-0.267-1.095-0.416-2.206-0.561-3.322c-0.298-2.28-0.561-4.569-1.037-6.82c-0.233-1.102-0.604-2.179-0.799-3.287
			c-0.197-1.121-0.212-2.263-0.305-3.395c-0.178-2.161-0.826-4.235-0.88-6.416c-0.026-1.053,0.046-2.111-0.087-3.16
			c-0.119-0.942-0.444-1.791-0.853-2.64c-0.256-0.532-0.535-1.111-0.997-1.497c-0.437-0.365-0.979-0.524-1.536-0.59
			c-0.798-0.095-1.627-0.063-2.43-0.038c-0.843,0.026-1.696,0.115-2.481,0.446c-1.736,0.733-2.42,2.448-2.637,4.21
			c-0.105,0.856-0.121,1.72-0.123,2.581c-0.001,0.377,1.276,0.163,1.277-0.317c0.005-1.68-0.011-3.726,1.017-5.152
			c0.949-1.318,2.739-1.122,4.182-1.089c0.536,0.012,1.107,0.066,1.539,0.418c0.452,0.368,0.714,0.931,0.958,1.445
			c0.41,0.865,0.718,1.726,0.822,2.683c0.11,1.003,0.046,2.012,0.071,3.018c0.026,1.039,0.149,2.07,0.33,3.093
			c0.192,1.082,0.448,2.142,0.543,3.239c0.095,1.105,0.109,2.218,0.285,3.315c0.178,1.111,0.553,2.186,0.791,3.285
			c0.475,2.195,0.741,4.426,1.029,6.651c0.139,1.072,0.264,2.148,0.499,3.204c0.226,1.017,0.527,2.016,0.844,3.008
			c0.633,1.981,1.351,3.95,1.707,6.005c0.377,2.179,0.219,4.432,0.199,6.634c-0.01,1.116,0.082,2.257-0.085,3.364
			c-0.153,1.015-0.481,1.997-0.903,2.931c-0.429,0.95-1.004,1.812-1.486,2.734c-0.465,0.889-0.847,1.818-1.236,2.742
			c-0.823,1.953-1.815,3.821-2.602,5.791c-0.61,1.527-1.185,3.067-1.813,4.587c-0.613,1.483-1.197,2.978-1.755,4.483
			c-0.806,2.175-1.575,4.375-2.151,6.623c-0.229,0.895-0.44,1.809-0.515,2.732c-0.044,0.545-0.104,1.256,0.244,1.726
			c0.143,0.193,0.366,0.309,0.601,0.344c0.297,0.045,0.673-0.015,0.903-0.224C212.532,109.562,212.523,109.335,212.243,109.293
			L212.243,109.293z" pathLength="1"/>
	</g>
</g>
</svg>
