<svg xmlns="http://www.w3.org/2000/svg" width="326.187" height="20.031" viewBox="0 0 326.187 20.031">
  <defs>
    <style>
      .cls-1 {
        fill-rule: evenodd;
      }
    </style>
  </defs>
  <path id="logo" class="cls-1" d="M195.6,65.89a5.929,5.929,0,0,1-1.575-.15,1,1,0,0,1-.675-0.585,3.7,3.7,0,0,1-.18-1.335V49.93a3.577,3.577,0,0,1,.18-1.32,1.049,1.049,0,0,1,.675-0.585,5.435,5.435,0,0,1,1.575-.165q0.09,0,.09-0.18t-0.09-.18l-1.65.03q-1.38.06-2.19,0.06-1.11,0-2.55-.06l-1.44-.03q-0.09,0-.09.18t0.09,0.18a5.438,5.438,0,0,1,1.635.18,1.1,1.1,0,0,1,.705.615,3.705,3.705,0,0,1,.18,1.335v6.12H180V49.99a3.443,3.443,0,0,1,.2-1.335,1.148,1.148,0,0,1,.72-0.615,5.438,5.438,0,0,1,1.635-.18q0.06,0,.06-0.18t-0.06-.18l-1.59.03q-1.44.06-2.49,0.06-0.78,0-2.16-.06l-1.59-.03q-0.06,0-.06.18t0.06,0.18a5.458,5.458,0,0,1,1.56.165,1.052,1.052,0,0,1,.69.585,3.577,3.577,0,0,1,.18,1.32V63.82a3.7,3.7,0,0,1-.18,1.335,1,1,0,0,1-.69.585,6.111,6.111,0,0,1-1.59.15q-0.06,0-.06.18t0.06,0.18q1.02,0,1.59-.03l2.19-.03,2.49,0.03q0.57,0.03,1.59.03,0.06,0,.06-0.18t-0.06-.18a6.624,6.624,0,0,1-1.665-.15,1.007,1.007,0,0,1-.705-0.585A3.7,3.7,0,0,1,180,63.82V56.89h10.29v6.93a3.687,3.687,0,0,1-.18,1.35,1.007,1.007,0,0,1-.69.57,6.435,6.435,0,0,1-1.65.15q-0.09,0-.09.18t0.09,0.18q0.9,0,1.44-.03l2.55-.03,2.19,0.03q0.63,0.03,1.65.03,0.09,0,.09-0.18t-0.09-.18h0Zm23.07,0a2.027,2.027,0,0,1-1.515-.8A14.227,14.227,0,0,1,215.4,62.14l-7.35-14.82a0.228,0.228,0,0,0-.24-0.09,0.311,0.311,0,0,0-.27.09l-6.45,14.52a21.171,21.171,0,0,1-1.29,2.535,3.466,3.466,0,0,1-1.11,1.185,2.772,2.772,0,0,1-1.41.33,0.183,0.183,0,0,0,0,.36q0.63,0,1.59-.06,1.08-.06,1.89-0.06,0.84,0,1.98.06,1.02,0.06,1.56.06a0.183,0.183,0,0,0,0-.36,3.545,3.545,0,0,1-2.1-.54,1.834,1.834,0,0,1-.75-1.59,4.135,4.135,0,0,1,.39-1.62l2.31-5.19h5.43l3.24,6.57a4.356,4.356,0,0,1,.51,1.53,0.666,0.666,0,0,1-.405.645,3.1,3.1,0,0,1-1.275.2q-0.12,0-.12.18t0.12,0.18q0.57,0,1.59-.06t1.77-.06q0.57,0,1.83.06t1.83,0.06a0.183,0.183,0,0,0,0-.36h0Zm-11.94-14.73,2.49,5.04h-4.74Zm16.92-3.03a3.57,3.57,0,0,1,1.2.15,0.909,0.909,0,0,1,.54.51,3.179,3.179,0,0,1,.15,1.14V63.82a3.442,3.442,0,0,1-.195,1.335,1.066,1.066,0,0,1-.75.585,7.184,7.184,0,0,1-1.725.15q-0.06,0-.06.18t0.06,0.18q1.11,0,1.74-.03l2.34-.03,2.46,0.03q0.6,0.03,1.65.03,0.09,0,.09-0.18t-0.09-.18a6.986,6.986,0,0,1-1.71-.15,1.019,1.019,0,0,1-.72-0.57,3.687,3.687,0,0,1-.18-1.35V49.99a3.786,3.786,0,0,1,.135-1.185,0.856,0.856,0,0,1,.54-0.525,3.835,3.835,0,0,1,1.245-.15,4.086,4.086,0,0,1,3,1.095,5.686,5.686,0,0,1,1.41,3.405,0.179,0.179,0,0,0,.2.09q0.165,0,.165-0.09,0-1.17.09-3.06t0.18-2.82a0.121,0.121,0,0,0-.15-0.12,0.161,0.161,0,0,0-.18.12,0.919,0.919,0,0,1-.675.6,6.624,6.624,0,0,1-1.665.15l-2.04.03q-1.98.06-3.75,0.06-3.45,0-6.03-.09-1.68,0-1.68-.66a0.166,0.166,0,0,0-.33,0q0,0.93-.15,2.775t-0.27,3.015q0,0.09.165,0.09c0.11,0,.165-0.02.165-0.06a7.269,7.269,0,0,1,1.815-3.405,4.2,4.2,0,0,1,3.015-1.125h0ZM256.5,65.89a2.027,2.027,0,0,1-1.515-.8,14.227,14.227,0,0,1-1.755-2.955l-7.35-14.82a0.228,0.228,0,0,0-.24-0.09,0.311,0.311,0,0,0-.27.09l-6.45,14.52a21.171,21.171,0,0,1-1.29,2.535,3.466,3.466,0,0,1-1.11,1.185,2.772,2.772,0,0,1-1.41.33,0.183,0.183,0,0,0,0,.36q0.63,0,1.59-.06,1.08-.06,1.89-0.06,0.84,0,1.98.06,1.02,0.06,1.56.06a0.183,0.183,0,0,0,0-.36,3.545,3.545,0,0,1-2.1-.54,1.834,1.834,0,0,1-.75-1.59,4.135,4.135,0,0,1,.39-1.62l2.31-5.19h5.43l3.24,6.57a4.356,4.356,0,0,1,.51,1.53,0.666,0.666,0,0,1-.405.645,3.1,3.1,0,0,1-1.275.2q-0.12,0-.12.18t0.12,0.18q0.57,0,1.59-.06t1.77-.06q0.57,0,1.83.06t1.83,0.06a0.183,0.183,0,0,0,0-.36h0Zm-11.94-14.73,2.49,5.04h-4.74Zm34.02,14.73a2.027,2.027,0,0,1-1.515-.8,14.227,14.227,0,0,1-1.755-2.955l-7.35-14.82a0.228,0.228,0,0,0-.24-0.09,0.311,0.311,0,0,0-.27.09L261,61.84a21.171,21.171,0,0,1-1.29,2.535,3.466,3.466,0,0,1-1.11,1.185,2.772,2.772,0,0,1-1.41.33,0.183,0.183,0,0,0,0,.36q0.63,0,1.59-.06,1.08-.06,1.89-0.06,0.84,0,1.98.06,1.02,0.06,1.56.06a0.183,0.183,0,0,0,0-.36,3.545,3.545,0,0,1-2.1-.54,1.834,1.834,0,0,1-.75-1.59,4.135,4.135,0,0,1,.39-1.62l4.89-10.98,6.09,12.36a4.356,4.356,0,0,1,.51,1.53,0.666,0.666,0,0,1-.4.645,3.1,3.1,0,0,1-1.275.2q-0.12,0-.12.18t0.12,0.18q0.57,0,1.59-.06t1.77-.06q0.57,0,1.83.06t1.83,0.06a0.183,0.183,0,0,0,0-.36h0Zm22.74,0a5.929,5.929,0,0,1-1.575-.15,1,1,0,0,1-.675-0.585,3.7,3.7,0,0,1-.18-1.335V47.44a0.2,0.2,0,0,0-.165-0.15,1.1,1.1,0,0,0-.375-0.06,0.645,0.645,0,0,0-.42.09l-12.3,15.54V49.93a3.577,3.577,0,0,1,.18-1.32,1.052,1.052,0,0,1,.69-0.585,5.9,5.9,0,0,1,1.65-.165q0.09,0,.09-0.18t-0.09-.18l-1.44.03q-1.44.06-2.52,0.06-0.81,0-2.25-.06l-1.62-.03q-0.09,0-.09.18t0.09,0.18a5.435,5.435,0,0,1,1.575.165,1.049,1.049,0,0,1,.675.585,3.577,3.577,0,0,1,.18,1.32V66.46q0,0.209.54,0.21a0.526,0.526,0,0,0,.42-0.12l12.3-15.54V63.82a3.687,3.687,0,0,1-.18,1.35,1.007,1.007,0,0,1-.69.57,6.435,6.435,0,0,1-1.65.15q-0.09,0-.09.18t0.09,0.18q0.9,0,1.44-.03l2.52-.03,2.25,0.03q0.6,0.03,1.62.03,0.09,0,.09-0.18t-0.09-.18h0Zm19.14,0a6.248,6.248,0,0,1-1.635-.15,0.955,0.955,0,0,1-.66-0.57A4,4,0,0,1,318,63.82V49.93a3.878,3.878,0,0,1,.165-1.32,1,1,0,0,1,.675-0.585,5.748,5.748,0,0,1,1.62-.165q0.06,0,.06-0.18t-0.06-.18l-1.65.03q-1.38.06-2.22,0.06-0.57,0-1.05-.03t-0.84-.06q-0.9-.09-1.56-0.09a7.925,7.925,0,0,0-3.12.585,5.093,5.093,0,0,0-2.16,1.635,3.92,3.92,0,0,0-.78,2.4,3.766,3.766,0,0,0,1.47,3.075,7.8,7.8,0,0,0,4.29,1.425,5.882,5.882,0,0,0-2.67,1.17,10.3,10.3,0,0,0-2.31,2.91q-0.72,1.17-.9,1.5-0.93,1.53-1.44,2.235a4.491,4.491,0,0,1-1.11,1.11,2.59,2.59,0,0,1-1.38.435q-0.06,0-.06.18t0.06,0.18h3.66a1.147,1.147,0,0,0,.69-0.2,5.79,5.79,0,0,0,.945-1.23Q309,63.79,310.5,61.21a16.72,16.72,0,0,1,2.445-3.495,3.821,3.821,0,0,1,2.205-1.125v7.23a4,4,0,0,1-.165,1.35,0.948,0.948,0,0,1-.63.57,5.273,5.273,0,0,1-1.485.15q-0.09,0-.09.18t0.09,0.18q0.96,0,1.53-.03l2.19-.03,2.22,0.03q0.6,0.03,1.65.03,0.06,0,.06-0.18t-0.06-.18h0Zm-10.41-14.61q0-3.48,3.03-3.48a2.219,2.219,0,0,1,1.485.495,2.119,2.119,0,0,1,.585,1.7v6a5.6,5.6,0,0,1-.66.03,4.171,4.171,0,0,1-3.3-1.29,5.02,5.02,0,0,1-1.14-3.45h0Zm41.339,14.61a5.939,5.939,0,0,1-1.559-.15,1,1,0,0,1-.69-0.585,3.7,3.7,0,0,1-.181-1.335V50.29a2.865,2.865,0,0,1,.48-1.89,2.61,2.61,0,0,1,1.95-.54c0.061,0,.091-0.06.091-0.18s-0.03-.18-0.091-0.18H350.4q-5.13.09-9.121,0.09-4.318,0-8.339-.06-0.961-.03-1.981-0.03c-0.04,0-.059.06-0.059,0.18s0.019,0.18.059,0.18a2.61,2.61,0,0,1,1.95.54,2.865,2.865,0,0,1,.48,1.89V63.82a3.708,3.708,0,0,1-.179,1.335,1,1,0,0,1-.69.585,6.116,6.116,0,0,1-1.59.15c-0.041,0-.06.06-0.06,0.18s0.019,0.18.06,0.18q1.019,0,1.59-.03l2.13-.03,2.4,0.03q0.6,0.03,1.589.03c0.061,0,.091-0.06.091-0.18s-0.03-.18-0.091-0.18a5.742,5.742,0,0,1-1.559-.15,1,1,0,0,1-.661-0.585,3.73,3.73,0,0,1-.179-1.335V50.2a6.359,6.359,0,0,1,.09-1.335,0.575,0.575,0,0,1,.45-0.435,6.807,6.807,0,0,1,1.38-.09h6.149a5.9,5.9,0,0,1,1.306.09,0.559,0.559,0,0,1,.405.42,6.339,6.339,0,0,1,.09,1.35V63.82a3.677,3.677,0,0,1-.181,1.335,1,1,0,0,1-.675.585,5.773,5.773,0,0,1-1.545.15c-0.059,0-.089.06-0.089,0.18s0.03,0.18.089,0.18q1.02,0,1.591-.03l2.37-.03,2.16,0.03c0.379,0.02.9,0.03,1.559,0.03,0.061,0,.091-0.06.091-0.18s-0.03-.18-0.091-0.18h0Zm12.75,0.72a10.737,10.737,0,0,0,5.235-1.32,10.344,10.344,0,0,0,3.855-3.6,9.2,9.2,0,0,0,1.44-5.01,9.827,9.827,0,0,0-1.155-4.65A9.051,9.051,0,0,0,370.2,48.5a9.336,9.336,0,0,0-5.01-1.335,11.974,11.974,0,0,0-5,1.11,9.776,9.776,0,0,0-4,3.315,8.931,8.931,0,0,0-1.56,5.295,10.245,10.245,0,0,0,1.185,4.875,8.938,8.938,0,0,0,3.36,3.54,9.461,9.461,0,0,0,4.965,1.305h0Zm1.02-.72a5.944,5.944,0,0,1-3.765-1.305,8.61,8.61,0,0,1-2.61-3.615,13.511,13.511,0,0,1-.945-5.16,9.263,9.263,0,0,1,1.605-5.775,5.369,5.369,0,0,1,4.515-2.085,6.588,6.588,0,0,1,3.975,1.23,7.841,7.841,0,0,1,2.61,3.42,12.735,12.735,0,0,1,.915,4.95,11.2,11.2,0,0,1-.825,4.5,6.512,6.512,0,0,1-2.25,2.865,5.577,5.577,0,0,1-3.225.975h0Zm32.7,0a2.027,2.027,0,0,1-1.515-.8,14.227,14.227,0,0,1-1.755-2.955l-7.35-14.82a0.228,0.228,0,0,0-.24-0.09,0.311,0.311,0,0,0-.27.09l-6.45,14.52a21.171,21.171,0,0,1-1.29,2.535,3.466,3.466,0,0,1-1.11,1.185,2.772,2.772,0,0,1-1.41.33,0.183,0.183,0,0,0,0,.36q0.63,0,1.59-.06,1.08-.06,1.89-0.06,0.84,0,1.98.06,1.02,0.06,1.56.06a0.183,0.183,0,0,0,0-.36,3.545,3.545,0,0,1-2.1-.54,1.834,1.834,0,0,1-.75-1.59,4.135,4.135,0,0,1,.39-1.62l4.89-10.98,6.09,12.36a4.356,4.356,0,0,1,.51,1.53,0.666,0.666,0,0,1-.4.645,3.1,3.1,0,0,1-1.275.2q-0.12,0-.12.18t0.12,0.18q0.57,0,1.59-.06t1.77-.06q0.57,0,1.83.06t1.83,0.06a0.183,0.183,0,0,0,0-.36h0Zm18.15,0a6.248,6.248,0,0,1-1.635-.15,0.955,0.955,0,0,1-.66-0.57,4,4,0,0,1-.165-1.35V49.93a3.878,3.878,0,0,1,.165-1.32,1,1,0,0,1,.675-0.585,5.748,5.748,0,0,1,1.62-.165q0.06,0,.06-0.18t-0.06-.18l-1.65.03q-1.38.06-2.22,0.06-0.57,0-1.05-.03t-0.84-.06q-0.9-.09-1.56-0.09a7.925,7.925,0,0,0-3.12.585,5.093,5.093,0,0,0-2.16,1.635,3.92,3.92,0,0,0-.78,2.4A3.766,3.766,0,0,0,404.1,55.1a7.8,7.8,0,0,0,4.29,1.425,5.882,5.882,0,0,0-2.67,1.17,10.3,10.3,0,0,0-2.31,2.91q-0.72,1.17-.9,1.5-0.93,1.53-1.44,2.235a4.491,4.491,0,0,1-1.11,1.11,2.59,2.59,0,0,1-1.38.435q-0.06,0-.06.18t0.06,0.18h3.66a1.147,1.147,0,0,0,.69-0.2,5.79,5.79,0,0,0,.945-1.23q0.675-1.035,2.175-3.615a16.72,16.72,0,0,1,2.445-3.495,3.821,3.821,0,0,1,2.2-1.125v7.23a4,4,0,0,1-.165,1.35,0.948,0.948,0,0,1-.63.57,5.273,5.273,0,0,1-1.485.15q-0.09,0-.09.18t0.09,0.18q0.96,0,1.53-.03l2.19-.03,2.22,0.03q0.6,0.03,1.65.03,0.06,0,.06-0.18t-0.06-.18h0ZM405.6,51.28q0-3.48,3.03-3.48a2.219,2.219,0,0,1,1.485.495,2.119,2.119,0,0,1,.585,1.7v6a5.6,5.6,0,0,1-.66.03,4.171,4.171,0,0,1-3.3-1.29,5.02,5.02,0,0,1-1.14-3.45h0Zm32.16,14.61a3.434,3.434,0,0,1-1.875-.615,7.534,7.534,0,0,1-1.62-1.545q-0.765-.96-2.325-3.12-1.322-1.86-2-2.655a5.2,5.2,0,0,0-1.365-1.185,4.216,4.216,0,0,0-1.71-.48l4.02-5.07a10.126,10.126,0,0,1,2.73-2.46,5.651,5.651,0,0,1,2.91-.9q0.09,0,.09-0.18t-0.09-.18l-1.23.03q-1.2.06-2.31,0.06-1.02,0-2.28-.06l-1.35-.03c-0.041,0-.06.06-0.06,0.18s0.019,0.18.06,0.18a1.074,1.074,0,0,1,1.32,1.08,5.341,5.341,0,0,1-1.26,2.76l-3.3,4.56h-0.21q-1.2,0-2.01.03v-6.3a3.705,3.705,0,0,1,.18-1.335,1.09,1.09,0,0,1,.675-0.615,4.861,4.861,0,0,1,1.545-.18q0.09,0,.09-0.18t-0.09-.18l-1.59.03q-1.44.06-2.4,0.06-0.81,0-2.13-.06l-1.56-.03q-0.09,0-.09.18t0.09,0.18a5.293,5.293,0,0,1,1.545.165,1.049,1.049,0,0,1,.675.585,3.577,3.577,0,0,1,.18,1.32V63.82a3.7,3.7,0,0,1-.18,1.335,1,1,0,0,1-.675.585,5.929,5.929,0,0,1-1.575.15q-0.09,0-.09.18t0.09,0.18q0.99,0,1.56-.03l2.16-.03,2.37,0.03q0.6,0.03,1.62.03,0.09,0,.09-0.18t-0.09-.18a5.745,5.745,0,0,1-1.56-.15,0.994,0.994,0,0,1-.66-0.585,3.7,3.7,0,0,1-.18-1.335V56.8h0.12a3.744,3.744,0,0,1,1.59.285,3.469,3.469,0,0,1,1.155.96q0.555,0.675,1.755,2.385l0.54,0.78q1.8,2.58,2.55,3.57a7.574,7.574,0,0,0,1.065,1.23,1.175,1.175,0,0,0,.735.24h4.35q0.06,0,.06-0.18t-0.06-.18h0Zm10.59,0.72a10.74,10.74,0,0,0,5.235-1.32,10.352,10.352,0,0,0,3.855-3.6,9.2,9.2,0,0,0,1.44-5.01,9.839,9.839,0,0,0-1.155-4.65,9.051,9.051,0,0,0-3.315-3.525,9.336,9.336,0,0,0-5.01-1.335,11.974,11.974,0,0,0-5,1.11,9.764,9.764,0,0,0-4,3.315,8.931,8.931,0,0,0-1.56,5.295,10.233,10.233,0,0,0,1.185,4.875,8.931,8.931,0,0,0,3.36,3.54,9.461,9.461,0,0,0,4.965,1.305h0Zm1.02-.72a5.944,5.944,0,0,1-3.765-1.305A8.61,8.61,0,0,1,443,60.97a13.511,13.511,0,0,1-.945-5.16,9.263,9.263,0,0,1,1.6-5.775,5.368,5.368,0,0,1,4.515-2.085,6.59,6.59,0,0,1,3.975,1.23,7.856,7.856,0,0,1,2.61,3.42,12.735,12.735,0,0,1,.915,4.95,11.2,11.2,0,0,1-.825,4.5,6.526,6.526,0,0,1-2.25,2.865,5.577,5.577,0,0,1-3.225.975h0Zm22.259-10.17a6.175,6.175,0,0,0,2.655-1.83,4.011,4.011,0,0,0,.945-2.58,3.345,3.345,0,0,0-1.425-2.865,6.9,6.9,0,0,0-4.095-1.035q-0.6,0-1.065.03t-0.8.06q-0.93.09-1.77,0.09-0.81,0-2.13-.06l-1.56-.03q-0.06,0-.06.18t0.06,0.18a4.571,4.571,0,0,1,1.425.165,1.092,1.092,0,0,1,.66.6,3.341,3.341,0,0,1,.195,1.3V63.82a3.324,3.324,0,0,1-.195,1.32,1.1,1.1,0,0,1-.675.585,4.711,4.711,0,0,1-1.44.165q-0.09,0-.09.18t0.09,0.18q0.99,0,1.56-.03l2.16-.03q0.75,0,1.35.03t0.99,0.06q1.14,0.09,2.01.09a7.626,7.626,0,0,0,3.375-.735,5.855,5.855,0,0,0,2.37-2.01,4.979,4.979,0,0,0,.855-2.835,4.5,4.5,0,0,0-1.47-3.42,6.615,6.615,0,0,0-3.93-1.65h0Zm-2.43-7.71a2.974,2.974,0,0,1,2.37.93,3.9,3.9,0,0,1,.81,2.64,4.715,4.715,0,0,1-.9,2.985,3.177,3.177,0,0,1-2.67,1.155l-1.26-.03v-5.7a2.545,2.545,0,0,1,.345-1.59,1.709,1.709,0,0,1,1.305-.39h0Zm0.75,17.67a4.526,4.526,0,0,1-1.53-.195,1.169,1.169,0,0,1-.69-0.585,2.63,2.63,0,0,1-.18-1.08V56.53q0.72-.06,1.8-0.06a4.317,4.317,0,0,1,3.465,1.38A5.425,5.425,0,0,1,474,61.51q0,4.17-4.05,4.17h0Zm30.72,0.21a2.027,2.027,0,0,1-1.515-.8A14.227,14.227,0,0,1,497.4,62.14l-7.35-14.82a0.228,0.228,0,0,0-.24-0.09,0.311,0.311,0,0,0-.27.09l-6.45,14.52a21.171,21.171,0,0,1-1.29,2.535,3.466,3.466,0,0,1-1.11,1.185,2.772,2.772,0,0,1-1.41.33,0.183,0.183,0,0,0,0,.36q0.63,0,1.59-.06,1.08-.06,1.89-0.06,0.84,0,1.98.06,1.02,0.06,1.56.06a0.183,0.183,0,0,0,0-.36,3.545,3.545,0,0,1-2.1-.54,1.834,1.834,0,0,1-.75-1.59,4.135,4.135,0,0,1,.39-1.62l2.31-5.19h5.43l3.24,6.57a4.356,4.356,0,0,1,.51,1.53,0.666,0.666,0,0,1-.405.645,3.1,3.1,0,0,1-1.275.2q-0.12,0-.12.18t0.12,0.18q0.57,0,1.59-.06t1.77-.06q0.57,0,1.83.06t1.83,0.06a0.183,0.183,0,0,0,0-.36h0Zm-11.94-14.73,2.49,5.04h-4.74Z" transform="translate(-174.625 -46.625)"/>
</svg>
