<svg width="50" height="50" viewBox="0 0 50 50" fill="none" xmlns="http://www.w3.org/2000/svg">
<path d="M42.1667 17.9322L44.4934 14.7828C44.5708 14.673 44.6021 14.5373 44.5806 14.4047C44.5591 14.2721 44.4865 14.1532 44.3784 14.0735C44.2703 13.9938 44.1352 13.9596 44.0022 13.9783C43.8692 13.9969 43.7488 14.0669 43.6667 14.1733L41.34 17.3226C41.2983 17.3767 41.2677 17.4387 41.2502 17.5048C41.2327 17.5709 41.2286 17.6399 41.2381 17.7076C41.2476 17.7753 41.2705 17.8405 41.3055 17.8992C41.3405 17.958 41.3869 18.0092 41.4419 18.0498C41.497 18.0903 41.5596 18.1195 41.626 18.1356C41.6925 18.1517 41.7615 18.1543 41.8291 18.1434C41.8966 18.1324 41.9612 18.1081 42.0192 18.0718C42.0772 18.0356 42.1273 17.9881 42.1667 17.9322ZM46.7948 33.5794C45.1948 32.889 43.1167 32.739 41.3181 33.1308C42.6866 29.6897 42.9948 25.9705 42.0777 22.6753C42.0595 22.6098 42.0284 22.5486 41.9864 22.4952C41.9444 22.4418 41.8921 22.3972 41.8328 22.3641C41.7734 22.331 41.7081 22.31 41.6406 22.3022C41.573 22.2945 41.5046 22.3003 41.4393 22.3191C37.1654 23.5602 33.953 25.4787 31.8325 28.0191C30.7613 24.5233 28.6955 21.3178 26.1441 18.6541L26.1311 18.6363V14.8486C27.3791 14.2801 27.4654 12.5698 26.1311 12.1993V9.69106C30.1708 9.16435 32.427 5.04449 31.9599 3.36572C32.0565 2.88627 31.501 2.56024 31.1284 2.86846C28.6243 4.96572 25.9092 5.52462 24.5613 5.26572C21.7736 4.73627 20.625 3.63695 19.2496 3.11161C18.9791 3.0075 18.6208 3.15271 18.5948 3.4712C18.1763 4.40956 20.3599 9.56709 25.1037 9.74517V12.2233C23.5845 12.6986 23.7544 14.6527 25.1037 14.9685V18.7013C22.403 21.8404 20.0763 25.3 18.9188 29.2787C16.738 26.4143 13.2359 24.276 8.69002 23.0842C8.62435 23.0671 8.55593 23.0631 8.48872 23.0725C8.42151 23.082 8.35683 23.1046 8.29843 23.1392C8.24003 23.1738 8.18906 23.2196 8.14847 23.274C8.10788 23.3284 8.07847 23.3903 8.06194 23.4561C7.29619 26.5123 7.57701 29.9027 8.76536 33.0794C6.93591 32.6959 4.81125 32.8828 3.19687 33.6198C3.09519 33.6663 3.01144 33.7447 2.9583 33.8431C2.90515 33.9415 2.88551 34.0545 2.90235 34.165C2.91947 34.2733 2.94482 34.3794 2.96605 34.4869C2.85783 34.8719 3.28386 36.1109 3.3592 36.3452C4.35235 39.4191 6.53865 42.1938 9.38865 44.0404C14.3387 47.2479 20.9708 47.4226 24.0708 46.4801C34.9339 49.2561 43.9756 44.202 46.6106 36.7486C46.8571 36.0527 47.0441 35.3102 47.0174 34.5822C47.0469 34.428 47.0791 34.2746 47.0996 34.1185C47.1143 34.0076 47.0924 33.895 47.0373 33.7977C46.9822 33.7004 46.8975 33.6238 46.7948 33.5794ZM24.3702 6.27462C26.1818 6.61983 28.6647 5.78558 30.4099 4.66983C28.2544 9.11298 23.0277 9.6801 20.2229 4.74243C20.7071 5.01914 22.9181 5.9986 24.3695 6.27462H24.3702ZM46.0181 34.378C45.4078 37.6157 42.6928 40.4116 41.5188 41.4917C39.5222 43.3274 36.9051 44.6452 33.9489 45.3027C31.8941 45.7602 29.7174 45.7006 27.575 45.4828C33.2599 43.2582 38.1339 39.8616 40.7887 34.339C42.3743 33.7993 44.4352 33.8157 46.0181 34.378ZM40.3606 23.7541C39.8272 24.7957 39.0695 25.7061 38.1421 26.4198C37.7558 26.7143 37.9606 27.3424 38.4551 27.3424C38.5633 27.3424 38.6729 27.3082 38.766 27.2369C39.8556 26.3985 40.7375 25.3204 41.3434 24.0863C42.1345 28.3876 40.8503 33.2863 37.8558 37.1431C35.6161 40.028 32.3071 42.3794 28.027 44.1767C29.0729 43.2054 29.9571 41.9459 30.4599 41.1082C32.4489 37.789 33.1839 33.6287 32.1619 29.2589C33.9126 26.8753 36.664 25.0308 40.3606 23.7541ZM25.6167 19.678C28.0256 23.1041 30.6352 28.6109 30.9976 33.2404C31.3887 38.2397 27.7941 42.5952 25.6791 44.6979C24.9826 41.7612 25.0592 38.6941 25.9017 35.7959C25.9398 35.6651 25.9244 35.5245 25.8589 35.405C25.7934 35.2856 25.6831 35.197 25.5524 35.1589C25.4216 35.1207 25.281 35.1361 25.1615 35.2016C25.0421 35.2671 24.9535 35.3774 24.9154 35.5082C24.0579 38.4597 23.9499 41.5784 24.601 44.5821C22.2928 42.7924 19.8825 39.5328 19.4332 36.6876C18.4208 30.2897 21.4044 24.6548 25.6167 19.678ZM8.77906 25.2082C9.17943 26.5658 9.94522 27.7872 10.9928 28.739C11.0907 28.828 11.214 28.8712 11.3373 28.8712C11.8058 28.8712 12.0291 28.2911 11.6818 27.9767C10.6599 27.0527 9.9318 25.776 9.63728 24.4267C12.714 25.3952 16.3941 27.2068 18.5928 30.565C18.1436 32.6304 18.0844 34.7615 18.4181 36.8486C18.8496 39.5794 20.8113 42.5095 22.9215 44.4965C18.2695 42.8349 15.0476 40.726 12.6585 37.8089C9.65167 34.1363 8.23249 29.4363 8.77906 25.2082ZM9.26468 34.2705C11.914 40.0993 16.7558 43.4541 22.8345 45.5609C17.8736 45.8561 12.4154 44.7678 8.62906 41.4226C7.43454 40.3678 4.66536 37.628 3.98934 34.402C5.57427 33.802 7.66262 33.7472 9.26468 34.2705ZM9.44824 19.639C9.53572 19.6389 9.62171 19.6164 9.69808 19.5738C9.77445 19.5311 9.83866 19.4696 9.88462 19.3952C9.93058 19.3208 9.95677 19.2358 9.96071 19.1485C9.96466 19.0611 9.94622 18.9741 9.90714 18.8959L8.01399 15.1054C7.98418 15.0446 7.94261 14.9902 7.89168 14.9454C7.84075 14.9007 7.78147 14.8664 7.71725 14.8447C7.65303 14.823 7.58514 14.8142 7.51751 14.8188C7.44987 14.8235 7.38382 14.8414 7.32316 14.8717C7.2625 14.902 7.20844 14.944 7.16409 14.9953C7.11974 15.0465 7.08598 15.1061 7.06475 15.1705C7.04352 15.2349 7.03525 15.3028 7.04041 15.3704C7.04557 15.438 7.06406 15.5039 7.09481 15.5644L8.98797 19.3548C9.03065 19.4403 9.09634 19.5122 9.17766 19.5624C9.25897 19.6126 9.35267 19.6391 9.44824 19.639Z" fill="#456039"/>
<path d="M15.6402 17.4956C15.7064 17.4822 15.7693 17.4559 15.8253 17.4182C15.8813 17.3805 15.9293 17.3321 15.9666 17.2758C16.0038 17.2195 16.0297 17.1564 16.0425 17.0901C16.0554 17.0238 16.0551 16.9556 16.0416 16.8895L15.3566 13.5217C15.3279 13.3889 15.2485 13.2726 15.1352 13.1976C15.022 13.1227 14.8839 13.0949 14.7505 13.1203C14.6169 13.1475 14.4996 13.2267 14.4244 13.3403C14.3491 13.454 14.322 13.5929 14.3491 13.7265L15.034 17.0943C15.0474 17.1605 15.0738 17.2233 15.1115 17.2793C15.1492 17.3353 15.1976 17.3834 15.2539 17.4206C15.3102 17.4579 15.3733 17.4837 15.4396 17.4966C15.5059 17.5095 15.5741 17.5091 15.6402 17.4956ZM34.706 16.0956C35.1177 14.5538 35.6783 13.0557 36.3799 11.6224C36.4318 11.5011 36.4351 11.3647 36.3892 11.2411C36.3433 11.1175 36.2517 11.0162 36.1333 10.9582C36.0149 10.9002 35.8788 10.8899 35.753 10.9294C35.6272 10.9688 35.5214 11.0551 35.4573 11.1703C34.7267 12.6639 34.1429 14.2248 33.7142 15.8313C33.6955 15.8968 33.69 15.9655 33.6981 16.0332C33.7062 16.1009 33.7277 16.1663 33.7614 16.2256C33.795 16.2849 33.8402 16.3369 33.8941 16.3786C33.9481 16.4203 34.0098 16.4508 34.0756 16.4684C34.1415 16.486 34.2102 16.4903 34.2778 16.4811C34.3453 16.4718 34.4104 16.4492 34.4691 16.4146C34.5279 16.38 34.5791 16.334 34.6199 16.2794C34.6607 16.2247 34.6902 16.1625 34.7066 16.0963L34.706 16.0956Z" fill="#456039"/>
</svg>
