<svg width="228" height="221" viewBox="0 0 228 221" fill="none" xmlns="http://www.w3.org/2000/svg">
<g opacity="0.4">
<path d="M112.372 132.999C112.372 132.999 71.5234 149.634 55.2364 172.076C38.9204 194.518 42.9268 206.741 53.3203 214.289C61.3622 220.124 70.8557 221.46 82.2943 211.415" stroke="#232323" stroke-width="2.90967" stroke-miterlimit="10"/>
<path d="M112.372 132.999C112.372 132.999 115.566 176.983 131.882 199.424C148.198 221.866 161.059 221.837 171.452 214.289C179.494 208.453 183.675 199.831 177.665 185.866" stroke="#232323" stroke-width="2.90967" stroke-miterlimit="10"/>
<path d="M129.559 123.825C129.559 123.825 132.752 167.809 149.068 190.251C165.384 212.692 178.245 212.663 188.639 205.115C196.681 199.28 200.861 190.657 194.852 176.693" stroke="#232323" stroke-width="2.90967" stroke-miterlimit="10"/>
<path d="M129.559 123.826C129.559 123.826 172.381 134.364 198.771 125.8C225.161 117.235 229.11 104.984 225.132 92.7614C222.055 83.3259 215.145 76.6485 200.019 78.071" stroke="#232323" stroke-width="2.90967" stroke-miterlimit="10"/>
<path d="M126.162 104.635C126.162 104.635 168.984 115.174 195.375 106.609C221.765 98.0449 225.713 85.7933 221.736 73.5708C218.658 64.1354 211.749 57.458 196.623 58.8806" stroke="#232323" stroke-width="2.90967" stroke-miterlimit="10"/>
<path d="M126.162 104.635C126.162 104.635 149.417 67.1839 149.417 39.4292C149.417 11.6746 138.994 4.15527 126.162 4.15527C116.233 4.15527 107.756 8.65529 104.417 23.5197" stroke="#232323" stroke-width="2.90967" stroke-miterlimit="10"/>
<path d="M106.855 101.935C106.855 101.935 130.11 64.4837 130.11 36.729C130.11 8.97437 119.688 1.45508 106.855 1.45508C96.9264 1.45508 88.449 5.955 85.1104 20.8194" stroke="#232323" stroke-width="2.90967" stroke-miterlimit="10"/>
<path d="M106.855 101.935C106.855 101.935 78.433 68.2289 52.0428 59.6645C25.6527 51.1 15.2592 58.6774 11.3108 70.8999C8.23344 80.3353 9.91729 89.7998 23.0108 97.5514" stroke="#232323" stroke-width="2.90967" stroke-miterlimit="10"/>
<path d="M98.3203 119.47C98.3203 119.47 69.8978 85.7641 43.5077 77.1996C17.1175 68.6352 6.72404 76.2125 2.77568 88.435C-0.301722 97.8705 1.38214 107.335 14.4756 115.086" stroke="#232323" stroke-width="2.90967" stroke-miterlimit="10"/>
<path d="M98.3208 119.471C98.3208 119.471 57.4726 136.106 41.1856 158.548C24.8696 180.99 28.876 193.212 39.2695 200.761C47.3114 206.596 56.8049 207.931 68.2435 197.886" stroke="#232323" stroke-width="2.90967" stroke-miterlimit="10"/>
<path d="M14.4463 115.057L22.9817 97.5215" stroke="#232323" stroke-width="2.90967" stroke-miterlimit="10"/>
<path d="M85.1104 20.791L104.417 23.491" stroke="#232323" stroke-width="2.90967" stroke-miterlimit="10"/>
<path d="M196.623 58.8799L200.02 78.07" stroke="#232323" stroke-width="2.90967" stroke-miterlimit="10"/>
<path d="M194.852 176.692L177.636 185.838" stroke="#232323" stroke-width="2.90967" stroke-miterlimit="10"/>
<path d="M68.2432 197.887L82.2657 211.416" stroke="#232323" stroke-width="2.90967" stroke-miterlimit="10"/>
<path d="M14.4463 115.057L104.417 23.4902" stroke="#232323" stroke-width="2.90967" stroke-miterlimit="10"/>
<path d="M85.1104 20.791L200.019 78.0713" stroke="#232323" stroke-width="2.90967" stroke-miterlimit="10"/>
<path d="M196.623 58.8799L177.636 185.837" stroke="#232323" stroke-width="2.90967" stroke-miterlimit="10"/>
<path d="M194.852 176.692L68.2432 197.886" stroke="#232323" stroke-width="2.90967" stroke-miterlimit="10"/>
<path d="M82.2649 211.414L22.9814 97.5215" stroke="#232323" stroke-width="2.90967" stroke-miterlimit="10"/>
</g>
</svg>
