<svg width="43" height="36" viewBox="0 0 43 36" fill="none" xmlns="http://www.w3.org/2000/svg">
<path d="M37.9221 23.5049C36.524 24.5534 35.3007 25.8641 34.0774 27.0874C32.8541 28.3107 31.6308 29.4466 30.2327 30.3204C28.8347 31.2816 27.3492 31.9806 25.8638 32.4175C23.2424 33.1165 20.7085 32.8544 18.8735 31.9806C18.1745 31.6311 17.5628 31.1942 17.0386 30.5825C16.2521 29.6214 15.7279 28.3981 15.4657 27.1748C16.4269 26.5631 17.3881 26.0388 18.3492 25.5146C20.7085 24.3786 23.2424 23.5922 25.8638 23.068C28.4852 22.5437 31.1939 22.3689 33.9026 22.2816C31.1939 21.6699 28.3978 21.4951 25.689 21.7573C22.8929 22.0194 20.1842 22.7184 17.5628 23.9417L15.2036 25.2524C15.2036 24.9029 15.2036 24.466 15.291 24.1165C15.8153 22.1942 16.7764 20.4466 18.1745 19.0485C20.1842 17.1262 23.0677 16.165 25.8638 16.0777C28.7473 15.9029 31.5434 16.7767 34.3395 17.9126C37.1356 19.0485 39.9318 20.2718 42.7279 21.3204C40.1939 19.6602 37.5725 18.0874 34.8638 16.6893C33.4657 15.9903 32.0677 15.3786 30.4949 14.9417C29.0094 14.5049 27.3492 14.3301 25.7764 14.3301C22.6308 14.4175 19.3104 15.6408 17.1259 18.0874C15.6405 19.7476 14.8541 21.8447 14.6793 24.0291C14.5046 24.5534 14.4172 25.165 14.4172 25.7767C13.1065 26.7379 11.8832 27.7864 10.8347 28.9223C8.99972 31.0194 7.51428 33.466 6.55312 36C9.69875 31.6311 11.9706 29.534 14.5046 27.699C14.6793 29.0097 15.1162 30.233 15.9026 31.2816C16.1648 31.7184 16.5143 32.068 16.8638 32.4175C17.6502 33.1165 19.0483 33.9029 20.7085 34.2524C22.5434 34.6893 24.4657 34.5146 26.3007 34.0777C29.8832 33.0291 32.8541 30.5825 35.0386 27.9612C36.1745 26.6505 37.223 25.3398 38.4463 24.1165C39.6696 22.8932 40.9803 21.8447 42.6405 21.3204C40.8929 21.4951 39.3201 22.4563 37.9221 23.5049ZM12.8444 4.28155C12.9318 5.67961 13.2813 7.07767 13.5434 8.47573C14.0677 11.0971 14.3298 13.8058 13.5434 16.2524C12.9318 18.2621 11.7085 19.835 10.3104 20.7087C9.78613 21.0583 9.26186 21.233 8.65021 21.3204C7.77642 21.4078 6.81526 21.3204 5.85409 20.9709C5.85409 20.0971 5.85409 19.2233 6.02885 18.3495C6.29098 16.2524 6.81525 14.2427 7.60166 12.3204C8.38807 10.3107 9.34923 8.47573 10.3978 6.46602C8.73758 7.95146 7.4269 9.69903 6.37836 11.7087C5.32982 13.7184 4.63079 15.9029 4.36865 18.0874C4.28127 18.699 4.1939 19.3981 4.1939 20.0097C4.01914 19.9223 3.84438 19.7476 3.66962 19.6602C2.62108 18.4369 1.83467 17.0388 1.57254 15.5534C1.22302 13.3689 1.74729 11.0971 2.88322 9.17476C4.01914 7.25243 5.76671 5.67961 7.68904 4.28155C9.61137 2.8835 11.6211 1.48544 13.5434 4.382e-07C11.2716 1.04854 9.0871 2.00971 6.99001 3.23301C5.94147 3.84466 4.89292 4.54369 3.93176 5.41748C2.97059 6.29126 2.09681 7.25243 1.48516 8.38835C0.174477 10.5728 -0.437173 13.3689 0.349235 15.9029C0.786128 17.6505 1.92205 19.1359 3.40749 20.1845C3.66962 20.4466 3.93176 20.7087 4.28127 20.9709C4.36865 22.2816 4.54341 23.5922 4.89292 24.8155C5.50458 27 6.55312 29.0097 7.95118 30.6699C7.16477 28.5728 6.55312 26.5631 6.2036 24.466C6.02885 23.6796 5.94147 22.8932 5.94147 22.0194C7.33953 22.6311 8.73758 22.7184 9.96089 22.3689C10.8347 22.1068 11.8832 21.4951 12.9318 20.534C13.9803 19.4854 14.7667 18.0874 15.2036 16.6893C16.0774 13.8058 15.6405 10.7476 14.7667 8.03883C14.3298 6.72816 13.8929 5.41748 13.6308 4.1068C13.2813 2.79612 13.1939 1.39806 13.456 0.087379C12.8444 1.31068 12.757 2.8835 12.8444 4.28155Z" fill="white"/>
</svg>
