<svg width="32" height="32" viewBox="0 0 32 32" fill="none" xmlns="http://www.w3.org/2000/svg">
<g clip-path="url(#clip0_6036_26109)">
<path fill-rule="evenodd" clip-rule="evenodd" d="M15.9987 16C18.496 16 20.7587 16.8267 22.4187 17.9827C23.996 19.0827 25.332 20.7173 25.332 22.476C25.332 23.4413 24.92 24.2413 24.2707 24.836C23.66 25.3973 22.8627 25.7613 22.0414 26.0093C20.4 26.5067 18.2387 26.6667 15.9987 26.6667C13.7587 26.6667 11.5974 26.5067 9.95603 26.0093C9.1347 25.7613 8.33736 25.3973 7.72536 24.836C7.0787 24.2427 6.66536 23.4427 6.66536 22.4773C6.66536 20.7187 8.00136 19.084 9.5787 17.984C11.2387 16.8267 13.5014 16 15.9987 16ZM15.9987 18.6667C14.0787 18.6667 12.3414 19.3067 11.1054 20.1693C9.7867 21.0893 9.33203 22.0253 9.33203 22.476C9.33203 22.8813 9.80136 23.1347 10.228 23.2947L10.5014 23.388L10.728 23.4573C11.9814 23.836 13.8214 24 15.9987 24C18.0094 24 19.7307 23.86 20.9694 23.5413L21.3747 23.4253L21.628 23.3453C22.0854 23.1893 22.6654 22.9267 22.6654 22.476C22.6654 22.0253 22.2107 21.0893 20.892 20.1693C19.6574 19.308 17.9187 18.6667 15.9987 18.6667ZM25.332 17.3333C26.724 17.3333 27.988 17.7933 28.9227 18.444C29.776 19.04 30.6654 20.0307 30.6654 21.2387C30.6654 23.0187 28.936 23.656 27.3814 23.8787L26.9814 23.928L26.596 23.9613C26.5347 23.9653 26.4734 23.9689 26.412 23.972C26.5747 23.512 26.6654 23.012 26.6654 22.476C26.6654 22.0693 26.6147 21.6733 26.5227 21.292C27.0374 21.252 27.46 21.1853 27.7747 21.0907C27.9134 21.048 27.788 20.9173 27.6414 20.804L27.4987 20.7L27.3974 20.632C26.9972 20.3588 26.5459 20.1692 26.0707 20.0747C25.564 19.0613 24.7854 18.184 23.956 17.484C24.4079 17.384 24.8693 17.3334 25.332 17.3333ZM6.66536 17.3333C7.14136 17.3333 7.6027 17.3867 8.04136 17.484C7.21203 18.184 6.43336 19.0613 5.9267 20.0747C5.40936 20.18 4.95203 20.3867 4.60003 20.632L4.42936 20.7493C4.26003 20.872 4.06136 21.0427 4.2227 21.0907C4.53736 21.1853 4.96003 21.2533 5.47603 21.292C5.3827 21.6733 5.33203 22.0693 5.33203 22.476C5.33203 23.012 5.4227 23.512 5.58536 23.972L5.21203 23.9453L4.81736 23.9053C3.2147 23.7093 1.33203 23.096 1.33203 21.2387C1.33203 20.032 2.22003 19.04 3.0747 18.444C4.13185 17.7194 5.38374 17.3322 6.66536 17.3333ZM24.6654 9.33333C25.5494 9.33333 26.3973 9.68452 27.0224 10.3096C27.6475 10.9348 27.9987 11.7826 27.9987 12.6667C27.9987 13.5507 27.6475 14.3986 27.0224 15.0237C26.3973 15.6488 25.5494 16 24.6654 16C23.7813 16 22.9335 15.6488 22.3083 15.0237C21.6832 14.3986 21.332 13.5507 21.332 12.6667C21.332 11.7826 21.6832 10.9348 22.3083 10.3096C22.9335 9.68452 23.7813 9.33333 24.6654 9.33333ZM7.33203 9.33333C8.21609 9.33333 9.06393 9.68452 9.68905 10.3096C10.3142 10.9348 10.6654 11.7826 10.6654 12.6667C10.6654 13.5507 10.3142 14.3986 9.68905 15.0237C9.06393 15.6488 8.21609 16 7.33203 16C6.44798 16 5.60013 15.6488 4.97501 15.0237C4.34989 14.3986 3.9987 13.5507 3.9987 12.6667C3.9987 11.7826 4.34989 10.9348 4.97501 10.3096C5.60013 9.68452 6.44798 9.33333 7.33203 9.33333ZM15.9987 4C17.4132 4 18.7697 4.5619 19.7699 5.5621C20.7701 6.56229 21.332 7.91885 21.332 9.33333C21.332 10.7478 20.7701 12.1044 19.7699 13.1046C18.7697 14.1048 17.4132 14.6667 15.9987 14.6667C14.5842 14.6667 13.2277 14.1048 12.2275 13.1046C11.2273 12.1044 10.6654 10.7478 10.6654 9.33333C10.6654 7.91885 11.2273 6.56229 12.2275 5.5621C13.2277 4.5619 14.5842 4 15.9987 4ZM24.6654 12C24.4886 12 24.319 12.0702 24.194 12.1953C24.0689 12.3203 23.9987 12.4899 23.9987 12.6667C23.9987 12.8435 24.0689 13.013 24.194 13.1381C24.319 13.2631 24.4886 13.3333 24.6654 13.3333C24.8422 13.3333 25.0117 13.2631 25.1368 13.1381C25.2618 13.013 25.332 12.8435 25.332 12.6667C25.332 12.4899 25.2618 12.3203 25.1368 12.1953C25.0117 12.0702 24.8422 12 24.6654 12ZM7.33203 12C7.15522 12 6.98565 12.0702 6.86063 12.1953C6.7356 12.3203 6.66536 12.4899 6.66536 12.6667C6.66536 12.8435 6.7356 13.013 6.86063 13.1381C6.98565 13.2631 7.15522 13.3333 7.33203 13.3333C7.50884 13.3333 7.67841 13.2631 7.80344 13.1381C7.92846 13.013 7.9987 12.8435 7.9987 12.6667C7.9987 12.4899 7.92846 12.3203 7.80344 12.1953C7.67841 12.0702 7.50884 12 7.33203 12ZM15.9987 6.66667C15.2915 6.66667 14.6132 6.94762 14.1131 7.44771C13.613 7.94781 13.332 8.62609 13.332 9.33333C13.332 10.0406 13.613 10.7189 14.1131 11.219C14.6132 11.719 15.2915 12 15.9987 12C16.7059 12 17.3842 11.719 17.8843 11.219C18.3844 10.7189 18.6654 10.0406 18.6654 9.33333C18.6654 8.62609 18.3844 7.94781 17.8843 7.44771C17.3842 6.94762 16.7059 6.66667 15.9987 6.66667Z" fill="#F600EC"/>
</g>
<defs>
<clipPath id="clip0_6036_26109">
<rect width="32" height="32" fill="white"/>
</clipPath>
</defs>
</svg>
