<svg width="338" height="33" viewBox="0 0 338 33" fill="none" xmlns="http://www.w3.org/2000/svg">
<path d="M192.892 25.8637C195.372 25.8637 197.382 23.8413 197.382 21.3464C197.382 18.8516 195.372 16.8291 192.892 16.8291C190.412 16.8291 188.402 18.8516 188.402 21.3464C188.402 23.8413 190.412 25.8637 192.892 25.8637Z" fill="#6D7277"/>
<path d="M222.673 11.8772H212.37V32.5261H207.897V8.42691H222.672V11.8772H222.673Z" fill="#6D7277"/>
<path d="M233.621 8.42691C235.222 8.42691 236.608 8.61574 237.778 8.99341C238.949 9.37108 239.914 9.89908 240.677 10.5765C241.439 11.2548 242.004 12.0652 242.375 13.0093C242.745 13.9535 242.93 14.9875 242.93 16.1095C242.93 17.2764 242.737 18.3452 242.351 19.3178C241.964 20.2904 241.384 21.1264 240.611 21.8258C239.838 22.5262 238.869 23.0707 237.704 23.4593C236.539 23.8489 235.178 24.0423 233.621 24.0423H230.292V32.5252H225.836V8.42691H233.621ZM233.621 20.5434C234.438 20.5434 235.151 20.4407 235.757 20.2354C236.364 20.0301 236.87 19.7358 237.273 19.3517C237.676 18.9686 237.977 18.502 238.176 17.952C238.375 17.402 238.474 16.7878 238.474 16.1104C238.474 15.466 238.375 14.883 238.176 14.3605C237.977 13.838 237.68 13.3934 237.281 13.0267C236.884 12.6601 236.381 12.3796 235.775 12.1852C235.167 11.9909 234.449 11.8937 233.621 11.8937H230.292V20.5434H233.621Z" fill="#6D7277"/>
<path d="M265.34 8.42691L255.667 29.1766C255.324 29.8989 254.96 30.4929 254.574 30.9595C254.187 31.4261 253.77 31.7927 253.323 32.0595C252.875 32.3262 252.395 32.5123 251.881 32.6177C251.368 32.7232 250.818 32.7763 250.233 32.7763C249.438 32.7763 248.859 32.7039 248.494 32.56C248.13 32.4161 247.948 32.2043 247.948 31.9266V29.1271H249.239C249.482 29.1271 249.73 29.1051 249.985 29.0602C250.239 29.0162 250.49 28.9272 250.738 28.7934C250.986 28.6596 251.226 28.4717 251.459 28.2269C251.691 27.9831 251.906 27.6604 252.105 27.2598L253.049 25.3266L243.442 8.42691H247.617C248.003 8.42691 248.313 8.52133 248.544 8.71016C248.777 8.89899 248.969 9.13824 249.124 9.42699L253.778 18.26C254.032 18.7495 254.261 19.2326 254.466 19.7102C254.67 20.1877 254.85 20.6772 255.005 21.1768C255.292 20.1767 255.661 19.2051 256.114 18.26L260.172 9.42699C260.293 9.18316 260.475 8.95491 260.719 8.74408C260.961 8.53324 261.271 8.42783 261.646 8.42783H265.34V8.42691Z" fill="#6D7277"/>
<path d="M287.055 32.5261H282.566V11.8772H272.164V32.5261H267.691V8.42691H287.055V32.5261Z" fill="#6D7277"/>
<path d="M311.751 32.5261H307.262V11.8772H296.86V32.5261H292.388V8.42691H311.751V32.5261Z" fill="#6D7277"/>
<path d="M337.558 32.5261H334.112C333.726 32.5261 333.41 32.4289 333.168 32.2346C332.925 32.0402 332.743 31.7982 332.621 31.5095L330.833 26.5934H320.911L319.122 31.5095C319.033 31.7652 318.862 31.999 318.608 32.2098C318.354 32.4207 318.034 32.5261 317.647 32.5261H314.185L323.593 8.42691H328.148L337.558 32.5261ZM329.69 23.4263L326.774 15.4101C326.63 15.0544 326.482 14.6327 326.327 14.1432C326.172 13.6547 326.017 13.1267 325.863 12.5602C325.719 13.1267 325.571 13.6574 325.416 14.1515C325.261 14.6456 325.113 15.0764 324.969 15.4431L322.07 23.4263H329.69Z" fill="#6D7277"/>
<path fill-rule="evenodd" clip-rule="evenodd" d="M25.0743 14.0195V32.5389H31.4535V14.0195H34.4335L39.9882 8.42692H19.6043L19.6116 14.0195H25.0743ZM137.135 32.5893C137.135 17.0638 145.292 9.93575 153.758 8.45167L160.047 8.42692V32.538H153.668V27.1773H143.882C143.613 28.7751 143.435 30.5699 143.365 32.5884L137.135 32.5893ZM153.667 14.4329C150.516 15.3661 147.439 17.2077 145.473 21.6278H153.667V14.4329ZM45.5374 20.7304V14.0195H49.833C54.2115 14.0195 54.2662 20.7304 49.833 20.7304C48.4008 20.7304 46.9686 20.7304 45.5374 20.7304ZM50.0735 8.42692C61.9791 8.42692 61.9909 26.3221 50.0398 26.3221C48.5384 26.3221 47.0379 26.3221 45.5374 26.3221V32.538H39.1582V14.0195L44.7101 8.42692H50.0735ZM110.321 32.5756V8.33434H106.795L94.0125 21.1961V8.42692H87.6334V32.6984H92.4865L103.942 21.1723V32.6984H110.192L110.321 32.5756ZM120.837 22.9992V26.9463H127.18C129.947 26.9463 129.585 22.9992 127.18 22.9992C125.067 22.9992 122.952 22.9992 120.837 22.9992ZM114.458 8.42692C114.458 16.4643 114.458 24.5007 114.458 32.538H127.177C138.147 32.5398 138.746 17.4066 127.32 17.4066C125.159 17.4066 122.998 17.4066 120.837 17.4066V14.0186H131.627L137.18 8.426C129.606 8.42692 122.032 8.42692 114.458 8.42692ZM168.527 14.0195V32.5389H174.907V14.0195H177.887L183.442 8.42692H163.057L163.065 14.0195H168.527ZM16.7008 32.5389H12.7232C-4.28704 32.5389 -4.19502 8.42784 12.7232 8.42784H16.7008V14.0204H13.1778C3.91697 14.0204 3.97254 26.9473 13.1778 26.9473H16.7008V32.5389ZM73.0848 27.2727C65.5431 27.2727 65.4557 13.6932 73.0848 13.6932C80.6456 13.6923 80.8315 27.2727 73.0848 27.2727ZM73.0848 8.10059C57.1132 8.10059 57.1123 32.8643 73.0848 32.8643C89.0919 32.8643 89.2086 8.10059 73.0848 8.10059Z" fill="#13336D"/>
<path fill-rule="evenodd" clip-rule="evenodd" d="M96.0391 0H109.187L102.852 6.38825H96.0391V0Z" fill="#13336D"/>
</svg>
