<svg width="307" height="30" viewBox="0 0 307 30" fill="none" xmlns="http://www.w3.org/2000/svg">
<g clip-path="url(#clip0_4027_1313)">
<path d="M175.201 23.5127C177.453 23.5127 179.279 21.674 179.279 19.406C179.279 17.1379 177.453 15.2993 175.201 15.2993C172.949 15.2993 171.123 17.1379 171.123 19.406C171.123 21.674 172.949 23.5127 175.201 23.5127Z" fill="white"/>
<path d="M202.25 10.7976H192.892V29.5692H188.83V7.66089H202.25V10.7976H202.25Z" fill="white"/>
<path d="M212.194 7.66089C213.648 7.66089 214.907 7.83256 215.97 8.17589C217.033 8.51922 217.91 8.99922 218.603 9.61506C219.295 10.2317 219.809 10.9684 220.145 11.8267C220.481 12.6851 220.649 13.6251 220.649 14.6451C220.649 15.7059 220.474 16.6776 220.123 17.5617C219.772 18.4459 219.245 19.2059 218.543 19.8417C217.841 20.4784 216.961 20.9734 215.903 21.3267C214.844 21.6809 213.608 21.8567 212.194 21.8567H209.17V29.5684H205.123V7.66089H212.194ZM212.194 18.6759C212.936 18.6759 213.583 18.5826 214.134 18.3959C214.686 18.2092 215.145 17.9417 215.511 17.5926C215.877 17.2442 216.151 16.8201 216.331 16.3201C216.512 15.8201 216.602 15.2617 216.602 14.6459C216.602 14.0601 216.512 13.5301 216.331 13.0551C216.151 12.5801 215.88 12.1759 215.519 11.8426C215.158 11.5092 214.701 11.2542 214.15 11.0776C213.598 10.9009 212.946 10.8126 212.194 10.8126H209.17V18.6759H212.194Z" fill="white"/>
<path d="M241.005 7.66089L232.219 26.5242C231.907 27.1809 231.576 27.7209 231.226 28.1451C230.875 28.5692 230.496 28.9026 230.089 29.1451C229.683 29.3876 229.247 29.5567 228.78 29.6526C228.314 29.7484 227.815 29.7967 227.283 29.7967C226.561 29.7967 226.035 29.7309 225.704 29.6001C225.373 29.4692 225.207 29.2767 225.207 29.0242V26.4792H226.381C226.601 26.4792 226.827 26.4592 227.057 26.4184C227.288 26.3784 227.517 26.2976 227.742 26.1759C227.967 26.0542 228.185 25.8834 228.396 25.6609C228.607 25.4392 228.803 25.1459 228.983 24.7817L229.84 23.0242L221.115 7.66089H224.907C225.258 7.66089 225.539 7.74672 225.749 7.91839C225.96 8.09006 226.135 8.30756 226.275 8.57006L230.503 16.6001C230.734 17.0451 230.942 17.4842 231.128 17.9184C231.313 18.3526 231.476 18.7976 231.617 19.2517C231.878 18.3426 232.214 17.4592 232.625 16.6001L236.31 8.57006C236.421 8.34839 236.586 8.14089 236.807 7.94922C237.027 7.75756 237.308 7.66172 237.649 7.66172H241.005V7.66089Z" fill="white"/>
<path d="M260.727 29.5692H256.65V10.7976H247.202V29.5692H243.14V7.66089H260.727V29.5692Z" fill="white"/>
<path d="M283.159 29.5692H279.082V10.7976H269.633V29.5692H265.571V7.66089H283.159V29.5692Z" fill="white"/>
<path d="M306.598 29.5692H303.469C303.118 29.5692 302.832 29.4809 302.612 29.3042C302.391 29.1276 302.225 28.9076 302.115 28.6451L300.491 24.1759H291.479L289.853 28.6451C289.773 28.8776 289.617 29.0901 289.387 29.2817C289.156 29.4734 288.865 29.5692 288.514 29.5692H285.369L293.915 7.66089H298.052L306.598 29.5692ZM299.452 21.2967L296.804 14.0092C296.674 13.6859 296.539 13.3026 296.398 12.8576C296.257 12.4134 296.117 11.9334 295.977 11.4184C295.846 11.9334 295.711 12.4159 295.57 12.8651C295.43 13.3142 295.295 13.7059 295.164 14.0392L292.531 21.2967H299.452Z" fill="white"/>
<path fill-rule="evenodd" clip-rule="evenodd" d="M22.7746 12.7451V29.5809H28.5687V12.7451H31.2754L36.3206 7.66092H17.8063L17.8129 12.7451H22.7746ZM124.558 29.6268C124.558 15.5126 131.966 9.03259 139.656 7.68342L145.368 7.66092V29.5801H139.574V24.7068H130.685C130.441 26.1593 130.28 27.7909 130.216 29.6259L124.558 29.6268ZM139.573 13.1209C136.711 13.9693 133.917 15.6434 132.131 19.6618H139.573V13.1209ZM41.3609 18.8459V12.7451H45.2625C49.2394 12.7451 49.2891 18.8459 45.2625 18.8459C43.9617 18.8459 42.6609 18.8459 41.3609 18.8459ZM45.481 7.66092C56.2946 7.66092 56.3054 23.9293 45.4503 23.9293C44.0866 23.9293 42.7238 23.9293 41.3609 23.9293V29.5801H35.5668V12.7451L40.6095 7.66092H45.481ZM100.203 29.6143V7.57676H97.0006L85.3901 19.2693V7.66092H79.596V29.7259H84.004L94.4089 19.2476V29.7259H100.086L100.203 29.6143ZM109.755 20.9084V24.4968H115.516C118.029 24.4968 117.7 20.9084 115.516 20.9084C113.596 20.9084 111.675 20.9084 109.755 20.9084ZM103.961 7.66092C103.961 14.9676 103.961 22.2734 103.961 29.5801H115.512C125.477 29.5818 126.021 15.8243 115.642 15.8243C113.68 15.8243 111.718 15.8243 109.755 15.8243V12.7443H119.555L124.598 7.66009C117.719 7.66092 110.84 7.66092 103.961 7.66092ZM153.071 12.7451V29.5809H158.866V12.7451H161.572L166.618 7.66092H148.102L148.109 12.7451H153.071ZM15.1691 29.5809H11.5563C-3.89385 29.5809 -3.81027 7.66176 11.5563 7.66176H15.1691V12.7459H11.9692C3.55772 12.7459 3.6082 24.4976 11.9692 24.4976H15.1691V29.5809ZM66.3818 24.7934C59.5318 24.7934 59.4523 12.4484 66.3818 12.4484C73.2491 12.4476 73.4179 24.7934 66.3818 24.7934ZM66.3818 7.36426C51.875 7.36426 51.8742 29.8768 66.3818 29.8768C80.9208 29.8768 81.0267 7.36426 66.3818 7.36426Z" fill="white"/>
<path fill-rule="evenodd" clip-rule="evenodd" d="M87.2305 0H99.1728L93.4185 5.8075H87.2305V0Z" fill="white"/>
</g>
<defs>
<clipPath id="clip0_4027_1313">
<rect width="307" height="30" fill="white"/>
</clipPath>
</defs>
</svg>
