<svg width="52" height="52" viewBox="0 0 52 52" fill="none" xmlns="http://www.w3.org/2000/svg">
<g clip-path="url(#clip0_131_4052)">
<path d="M29.0477 9.64038C24.8476 9.64038 21.4307 13.0574 21.4307 17.2574C21.4307 21.4574 24.8476 24.8744 29.0477 24.8744C33.2477 24.8744 36.6646 21.4574 36.6646 17.2574C36.6646 13.0574 33.2478 9.64038 29.0477 9.64038V9.64038ZM29.0477 21.8276C26.5276 21.8276 24.4775 19.7774 24.4775 17.2574C24.4775 14.7374 26.5276 12.6872 29.0477 12.6872C31.5677 12.6872 33.6179 14.7374 33.6179 17.2574C33.6179 19.7774 31.5678 21.8276 29.0477 21.8276Z" fill="#241E46"/>
<path d="M51.3731 2.86522C50.9793 2.57841 50.472 2.49737 50.0087 2.64697C41.8971 5.26427 35.864 3.71335 29.4768 2.07143C22.9507 0.39386 16.2024 -1.34078 7.25195 1.54738C6.62278 1.7505 6.19633 2.33609 6.19633 2.99715C6.19633 3.07697 6.19613 48.276 6.19613 48.9531H1.52438C0.683053 48.9531 0.000976562 49.6352 0.000976562 50.4765C0.000976562 51.3178 0.683053 51.9999 1.52438 51.9999H13.8131C14.6544 51.9999 15.3365 51.3178 15.3365 50.4765C15.3365 49.6352 14.6544 48.9531 13.8131 48.9531H9.24293L9.24303 31.5474C16.828 29.3875 22.6113 30.8738 28.718 32.4435C36.5682 34.4615 42.6863 35.632 50.9442 32.9677C51.5733 32.7647 51.9999 32.179 51.9999 31.5179V4.09673C51.9999 3.60955 51.7669 3.15182 51.3731 2.86522V2.86522ZM48.9531 30.3888C41.3674 32.549 35.5836 31.0625 29.4766 29.4927C22.4507 27.6867 16.7301 26.4682 9.24313 28.3913L9.24323 4.12619C16.8282 1.96601 22.6117 3.45244 28.7184 5.02225C34.7519 6.57317 40.9749 8.17315 48.9531 6.12377V30.3888Z" fill="#241E46"/>
</g>
<defs>
<clipPath id="clip0_131_4052">
<rect width="52" height="52" fill="white"/>
</clipPath>
</defs>
</svg>
