<svg width="52" height="52" viewBox="0 0 52 52" fill="none" xmlns="http://www.w3.org/2000/svg">
<g clip-path="url(#clip0_131_4053)">
<path d="M44.1908 0C44.1908 0 20.5926 0 20.1102 0C16.6352 0 13.3448 0.560577 10.8454 1.57779C9.14658 2.26929 6.29688 3.8316 6.29688 6.52658V45.2933C6.29688 47.9891 9.97574 52 20.1102 52C25.0304 52 28.2411 50.8467 30.0681 49.8791C31.9216 48.8976 33.2002 47.6594 33.6949 46.4164H44.1908C45.0323 46.4164 45.7142 45.7345 45.7142 44.893V1.52344C45.7142 0.681976 45.0323 0 44.1908 0ZM30.8766 45.2608C30.7961 45.569 30.076 46.4831 28.3744 47.3234C26.8696 48.0668 24.2143 48.9531 20.1102 48.9531C15.3871 48.9531 12.7064 48.0145 11.2893 47.227C9.69406 46.3403 9.34891 45.4754 9.34375 45.2933V10.7462C9.87537 11.0521 10.4002 11.2937 10.8454 11.475C13.3448 12.4926 16.6352 13.0528 20.1102 13.0528C23.5855 13.0528 26.8756 12.4926 29.375 11.475C29.8205 11.2937 30.345 11.0521 30.877 10.7462V45.2608H30.8766ZM20.1102 10.0059C13.144 10.0059 9.34375 7.70724 9.34375 6.52658C9.34375 5.34552 13.144 3.04688 20.1102 3.04688C27.0767 3.04688 30.877 5.34552 30.877 6.52658C30.877 7.70764 27.0767 10.0059 20.1102 10.0059ZM42.6674 43.3696H33.9235V6.52658C33.9235 5.03369 33.0487 3.88913 31.9799 3.04688H42.6674V43.3696Z" fill="#241E46"/>
<path d="M23.8833 6.55002C23.8833 5.87637 22.1996 5.33008 20.1223 5.33008C18.045 5.33008 16.3613 5.87637 16.3613 6.55002C16.3613 7.22366 18.045 7.76996 20.1223 7.76996C22.1996 7.76996 23.8833 7.22366 23.8833 6.55002Z" fill="#241E46"/>
</g>
<defs>
<clipPath id="clip0_131_4053">
<rect width="52" height="52" fill="white"/>
</clipPath>
</defs>
</svg>
