<svg width="52" height="52" viewBox="0 0 52 52" fill="none" xmlns="http://www.w3.org/2000/svg">
<g clip-path="url(#clip0_131_4054)">
<path d="M42.3172 44.0701C39.8274 44.0701 38.4869 43.2024 37.4099 42.5053C36.445 41.8808 35.7479 41.4294 34.1581 41.4294C32.5686 41.4294 31.8713 41.8807 30.9066 42.5052C29.8295 43.2024 28.489 44.0701 25.9993 44.0701C23.5096 44.0701 22.1692 43.2024 21.0921 42.5052C20.1274 41.8808 19.4302 41.4294 17.8407 41.4294C16.2511 41.4294 15.554 41.8807 14.5892 42.5052C13.5122 43.2024 12.1718 44.0701 9.68205 44.0701C7.19235 44.0701 5.85193 43.2024 4.77486 42.5052C3.81012 41.8808 3.11299 41.4294 1.52344 41.4294C0.682094 41.4294 0 40.7473 0 39.906C0 39.0647 0.682094 38.3826 1.52344 38.3826C4.01314 38.3826 5.35356 39.2502 6.43053 39.9474C7.39538 40.5718 8.0924 41.0232 9.68205 41.0232C11.2717 41.0232 11.9688 40.572 12.9336 39.9474C14.0106 39.2502 15.3511 38.3826 17.8407 38.3826C20.3304 38.3826 21.6708 39.2502 22.7478 39.9474C23.7125 40.5718 24.4096 41.0232 25.9993 41.0232C27.5889 41.0232 28.2861 40.572 29.2508 39.9474C30.3279 39.2502 31.6684 38.3826 34.158 38.3826C36.6479 38.3826 37.9883 39.2502 39.0654 39.9474C40.0303 40.5718 40.7274 41.0232 42.3172 41.0232C43.907 41.0232 44.6042 40.572 45.5692 39.9473C46.6461 39.2502 47.9868 38.3826 50.4765 38.3826C51.3178 38.3826 51.9999 39.0647 51.9999 39.906C51.9999 40.7473 51.3178 41.4294 50.4765 41.4294C48.8867 41.4294 48.1896 41.8807 47.2246 42.5052C46.1476 43.2024 44.8071 44.0701 42.3172 44.0701V44.0701Z" fill="#241E46"/>
<path d="M50.4766 35.3357H1.52344C0.682094 35.3357 0 34.6536 0 33.8123C0 32.9709 0.682094 32.2888 1.52344 32.2888H50.4766C51.3179 32.2888 52 32.9709 52 33.8123C52 34.6536 51.3179 35.3357 50.4766 35.3357Z" fill="#241E46"/>
<path d="M43.5703 51.2047C42.9318 51.2047 42.3536 50.7934 42.1368 50.1945C41.9203 49.5968 42.1137 48.9065 42.6045 48.5041C43.0985 48.0992 43.8046 48.0514 44.353 48.3751C44.9007 48.6986 45.1865 49.3576 45.0633 49.9788C44.9237 50.6827 44.2882 51.2047 43.5703 51.2047V51.2047Z" fill="#241E46"/>
<path d="M25.9991 51.2046C25.3606 51.2046 24.7824 50.7932 24.5655 50.1945C24.3492 49.5973 24.5417 48.9059 25.0332 48.5041C25.5281 48.0998 26.2328 48.0509 26.7818 48.3751C27.3281 48.6977 27.6178 49.3583 27.4932 49.9788C27.3518 50.6824 26.7174 51.2046 25.9991 51.2046Z" fill="#241E46"/>
<path d="M8.42927 51.2047C7.84579 51.2047 7.30243 50.8595 7.05309 50.3326C6.77613 49.7473 6.90654 49.0248 7.3787 48.5785C7.8466 48.1363 8.55774 48.0344 9.12984 48.3302C9.70621 48.6282 10.0372 49.2827 9.9329 49.9238C9.81427 50.6524 9.16834 51.2047 8.42927 51.2047Z" fill="#241E46"/>
<path d="M34.4298 48.1578C33.7914 48.1578 33.2131 47.7463 32.9963 47.1476C32.7796 46.5497 32.9729 45.8598 33.464 45.4572C33.957 45.0531 34.6653 45.0027 35.2126 45.3282C35.7579 45.6526 36.0486 46.3101 35.9238 46.9319C35.7825 47.6354 35.148 48.1578 34.4298 48.1578Z" fill="#241E46"/>
<path d="M18.1797 48.1577C17.5413 48.1577 16.963 47.7463 16.7462 47.1476C16.5296 46.5499 16.7231 45.8596 17.2139 45.4572C17.7079 45.0521 18.414 45.0041 18.9624 45.3282C19.5085 45.6509 19.7983 46.3113 19.6737 46.9319C19.5324 47.6355 18.8979 48.1577 18.1797 48.1577V48.1577Z" fill="#241E46"/>
<path d="M26.0001 29.026C25.5723 29.026 25.1445 28.899 24.7714 28.6449C22.4312 27.051 14.7959 21.2862 14.7959 14.0249V5.3701C14.7959 4.7069 15.225 4.11976 15.8569 3.91857L25.3373 0.898811C25.771 0.760584 26.2294 0.760686 26.6632 0.898709L36.1435 3.91857C36.7755 4.11976 37.2045 4.7069 37.2045 5.3701V14.0249C37.2045 21.2862 29.5693 27.0509 27.2292 28.6448C26.8557 28.899 26.4279 29.026 26.0001 29.026V29.026ZM17.8428 6.48373V14.0249C17.8428 16.4537 19.0548 19.0441 21.4454 21.724C23.1263 23.6084 24.9584 25.038 26.0003 25.7861C27.0419 25.0382 28.8741 23.6085 30.5551 21.724C32.9456 19.0441 34.1578 16.4537 34.1578 14.0249V6.48373L26.0002 3.88526L17.8428 6.48373Z" fill="#241E46"/>
<path d="M25.9947 21.3903C25.6155 21.3903 25.2363 21.2496 24.9419 20.9681C23.4285 19.521 20.8896 16.6948 20.8896 14.0247V9.82431C20.8896 9.16111 21.3187 8.57397 21.9508 8.37278L25.5379 7.2302C25.8388 7.13453 26.1619 7.13453 26.4626 7.2302L30.0497 8.37278C30.6817 8.57397 31.1107 9.16111 31.1107 9.82431V14.0247C31.1107 16.0901 29.5721 18.2486 28.2813 19.6957C27.9021 20.1207 27.4866 20.5491 27.0462 20.9693C26.7518 21.2501 26.3732 21.3903 25.9947 21.3903V21.3903ZM23.9365 10.9379V14.0247C23.9365 15.0156 24.9041 16.4458 25.9985 17.6776C26.0016 17.6743 26.0046 17.6709 26.0076 17.6675C27.5237 15.9678 28.0638 14.6713 28.0638 14.0247V10.9379L26.0002 10.2806L23.9365 10.9379Z" fill="#241E46"/>
</g>
<defs>
<clipPath id="clip0_131_4054">
<rect width="52" height="52" fill="white"/>
</clipPath>
</defs>
</svg>
