<svg width="21" height="13" viewBox="0 0 21 13" fill="none" xmlns="http://www.w3.org/2000/svg">
<path d="M11.4379 13C4.26296 13 0.170518 8.12012 0 0H3.594C3.71206 5.95996 6.36165 8.48448 8.46034 9.005V0H11.8445V5.14014C13.9169 4.91892 16.0943 2.57658 16.8289 0H20.213C19.9362 1.33629 19.3845 2.60153 18.5923 3.71661C17.8001 4.83168 16.7845 5.77259 15.609 6.48048C16.9211 7.1273 18.08 8.04282 19.0093 9.16662C19.9386 10.2904 20.6171 11.597 21 13H17.2748C16.9311 11.7814 16.2324 10.6905 15.2664 9.86405C14.3004 9.03764 13.11 8.51247 11.8445 8.35435V13H11.4379Z" fill="white"/>
</svg>
