<svg width="60" height="72" viewBox="0 0 60 72" fill="none" xmlns="http://www.w3.org/2000/svg">
<path d="M59.5728 21.463C59.4526 21.463 59.4526 21.5242 59.3925 21.5853L59.3324 21.6465C58.551 22.3804 58.0701 23.42 57.4089 24.215C56.6275 25.0711 55.6057 25.6827 54.7641 26.4777C52.1193 28.8016 49.6549 31.4312 47.9718 34.6113C47.9718 34.6113 47.9718 34.6724 47.9117 34.6724C46.7697 37.302 46.1686 40.1763 45.1467 42.8671C44.8462 43.5398 44.4855 44.2737 44.0047 44.7629C43.3435 45.4356 42.5019 45.8025 41.8407 46.3529C41.1194 47.0868 40.6386 48.0652 39.797 48.7379C38.3544 49.8999 36.6113 50.5726 35.0484 51.4899C42.2615 43.8456 48.2123 34.6724 50.797 24.3373V24.2761C51.0975 23.2365 51.5183 22.258 51.9991 21.2796C52.1193 20.9738 52.2997 20.7292 52.4199 20.4234C54.7641 15.7757 55.9062 8.62059 52.6002 4.15631C52.3598 3.78939 52.1795 3.48361 51.9991 3.11669C51.9991 3.11669 51.9991 3.11669 51.9991 3.17784C51.7587 2.74976 51.398 2.32168 51.1576 1.8936C51.0975 1.95475 51.0374 1.8936 50.9773 1.77129C50.9773 1.77129 50.9773 1.77129 50.9773 1.83244C50.8571 1.71013 50.797 1.52667 50.7368 1.34321C50.7368 1.28205 50.6767 1.2209 50.6767 1.15974C50.4964 0.73166 50.4363 -0.858356 50.1959 0.609351V0.670506C50.1959 0.731661 50.1959 0.792815 50.1959 0.853969C50.1959 2.13821 50.7368 3.3613 51.2778 4.52324C51.6986 6.41903 51.9991 8.43713 51.8188 10.3941C51.4582 13.3906 49.8352 16.1426 50.3161 19.2615C50.3161 19.3226 50.3161 19.3838 50.3161 19.3838C50.3762 24.4596 48.6931 29.1685 46.4691 33.6939C46.2888 30.0247 45.8079 26.2942 46.5893 22.625C47.6713 18.5888 47.0702 14.736 46.1085 10.761C45.9883 10.5164 45.5074 8.62059 45.3271 9.4156C45.0265 15.898 39.797 19.2615 42.3817 26.6612V26.7223C42.3817 26.7223 42.3817 26.7223 42.3817 26.6612C43.0429 28.2512 43.5839 29.9635 44.5456 31.3701C44.9063 32.1039 45.2068 32.8989 45.5074 33.6328V33.5716C45.5675 33.6939 45.5675 33.8162 45.6276 33.9997C45.6276 33.9997 45.6276 33.9997 45.6276 33.9386V33.9997C45.6276 33.9997 45.6276 33.9997 45.6276 33.9386C46.3489 35.7732 43.103 39.7482 42.0812 41.4606C37.8736 47.3925 33.0649 53.0188 27.2343 57.4219C31.9829 52.8353 31.9829 47.2091 34.808 41.8275V41.7663C34.808 41.7663 34.808 41.7052 34.8681 41.7052C34.8681 41.7052 34.8681 41.7052 34.8681 41.7663C35.5894 40.5432 35.8299 39.0755 36.2506 37.7301C36.7916 36.3236 37.4528 34.9782 37.573 33.4493C37.8134 31.2478 37.0921 28.8016 37.573 26.4777C38.0539 23.42 37.6331 24.9488 36.7315 26.5389C35.4692 28.4346 34.0266 30.2081 32.9446 32.2262C32.9446 32.2262 32.9446 32.2262 32.9446 32.2874C32.9446 32.2874 32.9446 32.2874 32.9446 32.3485C31.2015 35.8343 28.6769 39.3201 30.0594 43.4175C30.8408 45.6802 31.8627 48.0041 31.0212 50.4503C31.0212 50.5114 31.0212 50.5726 30.961 50.5726C30.961 50.5726 30.961 50.5726 30.961 50.5114V50.5726C30.7206 51.0618 30.5403 51.6122 30.2998 52.1014C30.2998 52.1014 30.2998 52.0403 30.36 52.0403C30.36 52.1014 30.2998 52.1014 30.2998 52.1626C30.2998 52.1626 30.2999 52.2237 30.2397 52.2237C28.9775 54.7922 26.9939 56.8715 25.0704 58.9507C23.3873 60.8465 20.983 62.0085 18.8191 63.2316C18.8191 63.2316 18.759 63.2316 18.759 63.2927H18.8191C13.5896 65.8612 8.23992 68.3074 2.52958 69.7139C1.74816 70.0809 0.666205 70.0197 0.0651167 70.6313C-0.175319 70.9982 0.305552 71.2428 0.606096 71.1816H0.545987C0.606096 71.1816 0.606096 71.1816 0.666205 71.1816C0.786422 71.1816 0.90664 71.1816 1.02686 71.1205C2.04871 70.8759 3.01045 70.5701 4.0323 70.3255H3.97219C6.31643 69.7139 8.54046 68.3074 11.065 68.4297H11.0049C15.0923 68.4297 18.759 70.5701 22.7261 71.1205C25.4911 71.4263 28.0758 70.2643 30.4802 68.9801C34.5676 67.5735 37.6331 64.577 40.7588 61.6415C43.8844 58.4615 47.6112 56.1376 51.6986 54.4865C52.3598 54.2418 53.0811 53.9361 53.7423 53.8749H53.8024C53.8625 53.8749 53.9226 53.8138 53.8625 53.7526C50.0155 53.4468 45.9281 53.508 42.2615 54.9757C42.2615 54.9757 42.2615 54.9757 42.3216 54.9757C39.6768 55.9542 37.2725 57.4219 34.808 58.7061H34.8681C29.7589 61.2746 25.1906 64.8827 20.1415 67.6347C17.3163 68.3074 14.1907 67.8793 11.2454 67.9405C11.1852 67.9405 11.1251 67.9405 11.065 67.9405C15.6934 65.9224 20.5021 64.0266 24.5895 60.8465C27.2944 59.0119 29.9993 57.1161 32.2834 54.8534C33.0649 54.0584 33.8463 53.3245 34.7479 52.6518C36.9719 51.4287 39.3162 50.2668 41.8407 49.7776C44.4855 49.166 46.7697 47.6372 48.9336 46.1083C53.3816 43.0506 54.8242 37.6078 56.2669 32.6543C57.5291 29.1073 58.7313 25.5604 59.7532 21.9523C59.5728 21.6465 59.6329 21.5242 59.5728 21.463ZM51.0374 2.81091C51.398 3.3613 51.6986 3.97285 52.0592 4.52324C52.1795 4.7067 52.2997 4.89017 52.4199 5.07363C54.704 8.31482 54.1029 12.351 53.5018 16.0814C53.1412 17.8549 52.2997 19.5061 51.5183 21.1573C51.6986 20.3623 51.9991 19.6284 52.2396 18.8945C52.8407 16.7541 53.6221 14.5526 53.4417 12.2287C53.4417 11.9841 53.3816 11.8006 53.3816 11.556V11.4949C53.2013 9.96599 53.2614 8.43713 52.7805 6.96942C52.7805 6.96942 52.7805 6.96942 52.7805 6.90826C52.7805 6.84711 52.7204 6.78596 52.7204 6.66365V6.7248C52.6603 6.41903 52.5401 6.17441 52.4199 5.92979V5.86864C52.2396 5.56287 52.0592 5.25709 51.939 4.89017C51.939 4.89017 51.939 4.89017 51.939 4.82901C51.7587 4.15631 51.3379 3.48361 51.0374 2.81091ZM50.797 16.3872C51.6385 13.146 52.9008 9.90484 52.1193 6.54134C52.7805 8.25366 52.6603 10.1495 52.7805 11.9229C52.8407 12.7791 52.7805 13.6964 52.6603 14.5526V14.4914C52.2396 16.9376 51.2778 19.2615 50.6767 21.7077C50.6767 21.6465 50.6767 21.5853 50.6767 21.5242C50.9172 19.8119 50.5565 18.0995 50.797 16.3872ZM45.0866 31.0643C45.0866 31.0643 45.0866 31.0031 45.0265 31.0031C45.0265 31.0031 45.0866 31.0031 45.0866 31.0643ZM45.2669 31.3701C42.5019 27.1504 41.1795 21.3407 43.9445 16.8153C44.5456 15.5922 44.8462 14.2468 45.3271 13.0237C45.3271 13.3906 45.3872 13.7576 45.3872 14.1856V14.1245C45.3872 14.308 45.3872 14.4914 45.3872 14.6749C45.3872 16.3872 45.6877 18.1607 45.0866 19.8119C43.7041 23.6646 44.4254 27.6396 45.3271 31.4924C45.2669 31.3701 45.2669 31.3701 45.2669 31.3701ZM45.5675 19.873C46.5292 17.1822 45.3872 14.308 45.7478 11.6172C46.0484 14.0022 46.95 16.2649 46.7697 18.7111C46.1085 23.0531 45.2669 27.4562 45.9882 31.7981C45.0866 27.8843 44.3653 23.8481 45.5675 19.873ZM36.9719 30.4527C37.3326 32.9601 36.8517 35.3451 35.7698 37.6078C35.2889 39.0755 35.0484 40.6044 34.267 41.9498V42.0109C34.0867 42.3779 33.9064 42.6836 33.7261 43.0506C33.7261 43.0506 33.7261 43.0506 33.7261 42.9894C33.7862 42.439 33.9064 41.8886 34.0266 41.3382C34.4474 38.7698 34.808 36.2013 35.349 33.6328V33.6939C35.7096 31.7981 36.1905 29.9635 36.8517 28.19C36.7916 28.985 36.9118 29.7189 36.9719 30.4527ZM30.2397 40.4821C30.2397 39.0144 30.9009 37.7301 31.502 36.4459C32.584 33.6939 34.1468 31.1866 35.7096 28.7404C36.0102 28.2512 36.3107 27.7008 36.6714 27.2116C34.0266 33.6939 33.9064 40.849 31.8627 47.5148C31.8627 47.4537 31.8627 47.3314 31.8627 47.2091C31.5621 44.9464 30.1195 42.9283 30.2397 40.4821ZM23.8682 66.2281C23.8682 66.2893 23.8682 66.2893 23.8682 66.2281C24.3491 65.9224 24.8901 65.5554 25.431 65.1885C26.2726 64.577 26.9939 63.8431 27.8354 63.2927C27.8354 63.2927 27.8354 63.2927 27.7753 63.3539C28.0157 63.2316 28.196 63.0481 28.3764 62.9258C28.5567 62.8035 28.6769 62.6812 28.8572 62.5589C28.8572 62.5589 28.8572 62.5589 28.7971 62.62C28.9173 62.4977 29.0977 62.3754 29.278 62.3142C29.278 62.3142 29.278 62.3142 29.2179 62.3754C29.278 62.3142 29.3982 62.2531 29.4583 62.1919C29.4583 62.1919 29.4583 62.1919 29.3982 62.1919C34.5676 59.0119 39.9173 55.8319 45.868 54.3642C45.868 54.3642 45.868 54.3642 45.9281 54.3642C47.1904 54.1807 48.5128 54.0584 49.8352 53.8749C49.715 53.8749 49.5948 53.9361 49.4746 53.9361C47.6112 54.4253 45.8079 55.098 44.1249 56.0153C44.0648 56.0765 43.9445 56.0765 43.8844 56.1376C43.644 56.2599 43.4637 56.3823 43.2834 56.5046H43.3435C41.5402 57.4219 39.9173 58.7061 38.1741 59.8069C38.1741 59.8069 38.1741 59.8069 38.2342 59.8069C38.2342 59.8069 38.1741 59.8069 38.1741 59.8681C38.1741 59.8681 38.114 59.8681 38.114 59.9292H38.0539C38.0539 59.9292 38.0539 59.9292 37.9938 59.9292H37.9337C37.9337 59.9292 37.9938 59.9292 37.9938 59.8681C33.3654 62.3142 28.4365 64.1489 23.748 66.3504C23.8081 66.2893 23.8682 66.2893 23.8682 66.2281ZM28.3764 64.8216C31.8627 63.5373 35.1687 61.8862 38.4746 60.1738C40.4582 58.8896 42.3216 57.4219 44.4855 56.3211H44.5456C46.6494 55.2203 48.9336 54.4253 51.2177 53.8749C51.1576 53.8749 51.0975 53.9361 51.0374 53.9361C46.95 55.6484 43.2834 58.0946 40.1577 61.2135C40.1577 61.2135 40.1577 61.2135 40.2178 61.1523C39.1358 62.1919 37.9337 63.1092 36.8517 64.1489L36.9118 64.0877C33.7862 67.0843 29.5785 68.7355 25.5513 70.142C22.2453 70.937 18.9994 69.4082 15.9338 68.2462C20.3819 68.7966 24.3491 66.6562 28.3764 64.8216ZM47.9718 36.079C49.715 31.3701 53.6221 28.0677 57.3488 24.9488C53.6221 31.0643 49.8953 37.302 45.7478 43.1729C46.5292 40.849 47.1303 38.464 47.9718 36.079ZM41.6604 47.1479C42.2615 46.2918 43.103 45.7414 43.9445 45.191C43.103 45.986 42.2615 46.7198 41.4801 47.5148C41.5402 47.3925 41.6003 47.2702 41.6604 47.1479ZM56.7477 28.3123C56.7477 28.3735 56.7477 28.4346 56.6876 28.4958C54.7641 33.6328 54.0428 39.4425 50.3161 43.601C48.2123 45.7414 45.5675 47.3314 42.8626 48.4322C42.7424 48.4322 42.6222 48.4933 42.5019 48.4933C41.9009 48.6156 41.2998 48.7379 40.6987 48.8603C40.7588 48.7991 40.8189 48.7991 40.879 48.7379C45.3872 45.4356 48.3325 40.6044 51.1576 35.8343C53.2614 32.1651 55.7259 28.8016 57.7095 25.0712C57.469 26.1108 57.0483 27.2116 56.7477 28.3123Z" fill="#B38339"/>
</svg>
