<svg width="56" height="56" viewBox="0 0 56 56" fill="none" xmlns="http://www.w3.org/2000/svg">
<g clip-path="url(#clip0_105_1348)">
<path d="M53.0131 9.10885C52.2481 8.34256 51.0069 8.34124 50.2419 9.1056L26.7309 32.5546L18.2482 23.3415C17.5153 22.5459 16.276 22.4943 15.479 23.2272C14.6827 23.9601 14.6317 25.2 15.3647 25.9964L25.229 36.7093C25.4077 36.9035 25.6239 37.0596 25.8645 37.1682C26.105 37.2767 26.3651 37.3355 26.629 37.341C26.6433 37.3416 26.6571 37.3416 26.6708 37.3416C27.1894 37.3414 27.6869 37.1359 28.0544 36.77L53.0092 11.8806C53.7761 11.1163 53.7774 9.87514 53.0131 9.10885Z" fill="#FF5E00"/>
<path d="M52.5401 26.0401C51.4577 26.0401 50.5804 26.9174 50.5804 28C50.5804 40.1756 40.6756 50.0804 28.5 50.0804C16.3251 50.0804 6.4196 40.1756 6.4196 28C6.4196 15.8251 16.3251 5.9196 28.5 5.9196C29.5825 5.9196 30.4599 5.0423 30.4599 3.95985C30.4599 2.8773 29.5825 2 28.5 2C14.1634 2 2.5 13.6634 2.5 28C2.5 42.336 14.1634 54 28.5 54C42.836 54 54.5 42.336 54.5 28C54.5 26.9175 53.6227 26.0401 52.5401 26.0401Z" fill="#FF5E00"/>
</g>
<defs>
<clipPath id="clip0_105_1348">
<rect width="52" height="52" fill="white" transform="translate(2.5 2)"/>
</clipPath>
</defs>
</svg>
