<svg width="20" height="12" viewBox="0 0 20 12" fill="none" xmlns="http://www.w3.org/2000/svg">
<path d="M18.7212 0.764198C18.8527 0.323992 18.7212 0 18.0881 0H15.9934C15.4599 0 15.2145 0.27821 15.0829 0.588115C15.0829 0.588115 14.016 3.16244 12.508 4.8317C12.0208 5.31417 11.7967 5.46912 11.53 5.46912C11.3984 5.46912 11.1957 5.31417 11.1957 4.87396V0.764198C11.1957 0.23595 11.0463 0 10.6053 0H7.31206C6.97775 0 6.77859 0.246515 6.77859 0.475423C6.77859 0.975497 7.53256 1.09171 7.6108 2.50037V5.55716C7.6108 6.22627 7.48988 6.34953 7.22315 6.34953C6.51186 6.34953 4.78342 3.76464 3.75917 0.806458C3.55289 0.232429 3.35018 0 2.81315 0H0.718403C0.120919 0 0 0.27821 0 0.588115C0 1.13749 0.71129 3.86677 3.31105 7.47294C5.04305 9.93457 7.48277 11.2693 9.70199 11.2693C11.0357 11.2693 11.1993 10.9735 11.1993 10.4628C11.1993 8.11036 11.0783 7.88849 11.747 7.88849C12.0564 7.88849 12.5898 8.04345 13.8346 9.23024C15.2572 10.6389 15.4919 11.2693 16.2885 11.2693H18.3833C18.9808 11.2693 19.2831 10.9735 19.1088 10.3889C18.7105 9.15981 16.0182 6.63126 15.8973 6.46222C15.5879 6.0678 15.6768 5.89172 15.8973 5.53955C15.9009 5.53603 18.458 1.97212 18.7212 0.764198Z" fill="#2D79B7"/>
</svg>
