<svg width="20" height="14" viewBox="0 0 20 14" fill="none" xmlns="http://www.w3.org/2000/svg">
<path d="M18.7574 2.11591C18.5371 1.28304 17.8879 0.6271 17.0637 0.404497C15.5697 0 9.57888 0 9.57888 0C9.57888 0 3.58811 0 2.09407 0.404497C1.26982 0.627135 0.620651 1.28304 0.40032 2.11591C0 3.62554 0 6.77523 0 6.77523C0 6.77523 0 9.92492 0.40032 11.4345C0.620651 12.2674 1.26982 12.896 2.09407 13.1186C3.58811 13.5231 9.57888 13.5231 9.57888 13.5231C9.57888 13.5231 15.5697 13.5231 17.0637 13.1186C17.8879 12.896 18.5371 12.2674 18.7574 11.4345C19.1578 9.92492 19.1578 6.77523 19.1578 6.77523C19.1578 6.77523 19.1578 3.62554 18.7574 2.11591ZM7.61955 9.63491V3.91554L12.6267 6.7753L7.61955 9.63491Z" fill="#2D79B7"/>
</svg>
