<svg width="24" height="25" viewBox="0 0 24 25" fill="none" xmlns="http://www.w3.org/2000/svg">
<path d="M2 12.2884C2 11.4239 2.1097 10.585 2.31595 9.78488C3.40622 9.8414 4.48848 9.29872 5.0718 8.28839C5.65467 7.27882 5.58406 6.07128 4.99121 5.15558C6.18354 3.98386 7.66832 3.10879 9.32603 2.6499C9.8222 3.62242 10.8333 4.28839 12 4.28839C13.1667 4.28839 14.1778 3.62242 14.674 2.6499C16.3317 3.10879 17.8165 3.98386 19.0088 5.15558C18.4159 6.07128 18.3453 7.27882 18.9282 8.28839C19.5115 9.29872 20.5938 9.8414 21.6841 9.78488C21.8903 10.585 22 11.4239 22 12.2884C22 13.1529 21.8903 13.9918 21.6841 14.7919C20.5938 14.7354 19.5115 15.2781 18.9282 16.2884C18.3453 17.298 18.4159 18.5055 19.0088 19.4212C17.8165 20.5929 16.3317 21.468 14.674 21.9269C14.1778 20.9544 13.1667 20.2884 12 20.2884C10.8333 20.2884 9.8222 20.9544 9.32603 21.9269C7.66832 21.468 6.18354 20.5929 4.99121 19.4212C5.58406 18.5055 5.65467 17.298 5.0718 16.2884C4.48848 15.2781 3.40622 14.7354 2.31595 14.7919C2.1097 13.9918 2 13.1529 2 12.2884ZM6.80385 15.2884C7.43395 16.3798 7.61458 17.6345 7.36818 18.8122C7.77597 19.1024 8.21005 19.3538 8.66489 19.5627C9.56176 18.7598 10.7392 18.2884 12 18.2884C13.2608 18.2884 14.4382 18.7598 15.3351 19.5627C15.7899 19.3538 16.224 19.1024 16.6318 18.8122C16.3854 17.6345 16.566 16.3798 17.1962 15.2884C17.8262 14.1971 18.8225 13.4134 19.9655 13.0379C19.9884 12.7901 20 12.5402 20 12.2884C20 12.0367 19.9884 11.7867 19.9655 11.539C18.8225 11.1635 17.8262 10.3798 17.1962 9.28839C16.566 8.19702 16.3854 6.94235 16.6318 5.76462C16.224 5.47445 15.7899 5.22304 15.3351 5.01409C14.4382 5.81701 13.2608 6.28839 12 6.28839C10.7392 6.28839 9.56176 5.81701 8.66489 5.01409C8.21005 5.22304 7.77597 5.47445 7.36818 5.76462C7.61458 6.94235 7.43395 8.19702 6.80385 9.28839C6.17376 10.3798 5.17754 11.1635 4.03451 11.539C4.01157 11.7867 4 12.0367 4 12.2884C4 12.5402 4.01157 12.7901 4.03451 13.0379C5.17754 13.4134 6.17376 14.1971 6.80385 15.2884ZM12 15.2884C10.3431 15.2884 9 13.9453 9 12.2884C9 10.6316 10.3431 9.28839 12 9.28839C13.6569 9.28839 15 10.6316 15 12.2884C15 13.9453 13.6569 15.2884 12 15.2884ZM12 13.2884C12.5523 13.2884 13 12.8407 13 12.2884C13 11.7361 12.5523 11.2884 12 11.2884C11.4477 11.2884 11 11.7361 11 12.2884C11 12.8407 11.4477 13.2884 12 13.2884Z" fill="#242323"/>
</svg>
