<svg width="15" height="12" viewBox="0 0 15 12" fill="none" xmlns="http://www.w3.org/2000/svg">
<path d="M1.72222 10.2857L5.33333 6M13.2778 10.2857L9.66667 6M1 3.14286L6.21803 6.58331C6.68134 6.8888 6.913 7.04154 7.16339 7.10088C7.38466 7.15332 7.61534 7.15332 7.83661 7.10088C8.087 7.04154 8.31866 6.8888 8.78197 6.58331L14 3.14286M3.31111 11H11.6889C12.4979 11 12.9023 11 13.2113 10.8443C13.4831 10.7073 13.7041 10.4888 13.8426 10.22C14 9.9144 14 9.51436 14 8.71429V3.28571C14 2.48564 14 2.0856 13.8426 1.78001C13.7041 1.51121 13.4831 1.29267 13.2113 1.1557C12.9023 1 12.4979 1 11.6889 1H3.31111C2.50215 1 2.09766 1 1.78868 1.1557C1.51689 1.29267 1.29592 1.51121 1.15744 1.78001C1 2.0856 1 2.48564 1 3.28571V8.71429C1 9.51436 1 9.9144 1.15744 10.22C1.29592 10.4888 1.51689 10.7073 1.78868 10.8443C2.09766 11 2.50215 11 3.31111 11Z" stroke="#ED2224" stroke-width="1.5" stroke-linecap="round" stroke-linejoin="round"/>
</svg>
