<svg width="15" height="15" viewBox="0 0 15 15" fill="none" xmlns="http://www.w3.org/2000/svg">
<path d="M1 2.80556C1 8.98808 6.01192 14 12.1944 14C12.4734 14 12.7499 13.9898 13.0238 13.9697C13.338 13.9467 13.4951 13.9352 13.6381 13.8529C13.7566 13.7847 13.8689 13.6638 13.9283 13.5407C14 13.392 14 13.2186 14 12.8719V10.8372C14 10.5456 14 10.3998 13.952 10.2748C13.9096 10.1644 13.8408 10.066 13.7515 9.98848C13.6504 9.90066 13.5134 9.85083 13.2393 9.75118L10.9233 8.90898C10.6045 8.79303 10.445 8.73506 10.2938 8.7449C10.1604 8.75358 10.0321 8.7991 9.92301 8.87639C9.79935 8.96405 9.71207 9.10951 9.53752 9.40043L8.94444 10.3889C7.03065 9.52215 5.47915 7.96863 4.61111 6.05556L5.59957 5.46248C5.89049 5.28793 6.03595 5.20065 6.12361 5.07699C6.2009 4.96795 6.24642 4.8396 6.2551 4.70623C6.26494 4.55497 6.20697 4.39555 6.09103 4.07671L6.09102 4.0767L5.24882 1.76065C5.14917 1.48661 5.09934 1.34958 5.01152 1.24851C4.93395 1.15924 4.83565 1.09039 4.72524 1.04799C4.60025 1 4.45444 1 4.16284 1H2.12812C1.78136 1 1.60797 1 1.45932 1.07168C1.3362 1.13105 1.21532 1.2434 1.14712 1.36186C1.06477 1.50488 1.05326 1.662 1.03025 1.97625C1.0102 2.25006 1 2.52662 1 2.80556Z" stroke="#ED2224" stroke-width="1.5" stroke-linecap="round" stroke-linejoin="round"/>
</svg>
