<svg width="71" height="60" viewBox="0 0 71 60" fill="none" xmlns="http://www.w3.org/2000/svg">
<g clip-path="url(#clip0)">
<path d="M19.6397 60.0001C16.3552 60.0001 13.6106 59.335 11.4059 58.0046C9.23039 56.7066 7.49129 54.7869 6.4116 52.4917C5.28676 50.149 4.72433 47.4207 4.72433 44.3068V19.4815C4.72433 16.2797 5.25301 13.4725 6.31036 11.0599C7.31279 8.71115 9.02386 6.73599 11.2034 5.41164C13.4059 4.05876 16.218 3.38232 19.6397 3.38232C23.0615 3.38232 25.8624 4.05876 28.0423 5.41164C30.2065 6.74467 31.9044 8.71826 32.9016 11.0599C33.9567 13.4703 34.4854 16.2775 34.4876 19.4815V44.3068C34.5415 47.1162 33.9648 49.9018 32.8004 52.4579C31.7285 54.7671 29.9884 56.6998 27.8061 58.0046C25.6036 59.335 22.8815 60.0001 19.6397 60.0001ZM19.6397 49.9212C20.7196 49.9212 21.4957 49.5717 21.9682 48.8727C22.4518 48.1436 22.7528 47.3082 22.8455 46.4376C22.9488 45.6411 23.0051 44.8393 23.0143 44.0362V19.7521C23.0143 18.9844 22.9704 18.1185 22.8793 17.1478C22.8079 16.2356 22.5186 15.3539 22.0356 14.5774C21.5632 13.8333 20.7646 13.4612 19.6397 13.4612C18.5149 13.4612 17.7163 13.8333 17.2438 14.5774C16.7609 15.3539 16.4716 16.2356 16.4002 17.1478C16.3091 18.1185 16.2652 18.9844 16.2652 19.7521V44.0362C16.2756 44.8405 16.3432 45.643 16.4677 46.4376C16.5828 47.3082 16.8944 48.141 17.3788 48.8727C17.8512 49.5717 18.6049 49.9212 19.6397 49.9212Z" fill="#FF8400"/>
<path d="M40.9667 58.9852V51.0033L54.0599 30.8454C55.0497 29.3573 55.9834 27.9142 56.8607 26.5162C57.7133 25.1673 58.4365 23.7404 59.0204 22.2547C59.582 20.8101 59.8682 19.2728 59.8641 17.7225C59.8641 16.1442 59.5491 14.9717 58.9192 14.2051C58.6099 13.8272 58.2172 13.5267 57.7721 13.3271C57.327 13.1275 56.8417 13.0344 56.3546 13.0551C55.1397 13.0551 54.1949 13.3933 53.52 14.0698C52.8071 14.8184 52.3265 15.7584 52.1364 16.7755C51.8759 18.021 51.7515 19.2911 51.7652 20.5636V23.2693H40.8318V20.3606C40.7807 17.3897 41.308 14.4372 42.384 11.6684C43.3569 9.19413 45.0802 7.08837 47.3108 5.64813C49.5605 4.18251 52.5076 3.44971 56.1521 3.44971C61.0542 3.44971 64.7549 4.72366 67.2543 7.27158C69.7537 9.81949 71.0023 13.3708 71 17.9255C71.018 20.0232 70.6638 22.1075 69.9539 24.081C69.2358 26.0147 68.3078 27.8635 67.1868 29.594C66.0395 31.3776 64.8134 33.2378 63.5086 35.1746L53.52 50.1239H69.5152V58.9852H40.9667Z" fill="#FF8400"/>
<path d="M15.5903 57.9707C12.1989 57.9707 9.31031 57.2672 7.00889 55.8771C4.7214 54.5113 2.89211 52.493 1.75475 50.08C0.590542 47.655 0 44.8005 0 41.6009V16.7756C0 13.4949 0.553422 10.5693 1.64339 8.08343C2.70294 5.60829 4.50664 3.52619 6.80304 2.1274C9.11122 0.717024 12.0606 0 15.5903 0C19.1201 0 22.066 0.717024 24.3641 2.13078C26.6368 3.54086 28.4199 5.61971 29.4697 8.08343C30.5597 10.5727 31.1131 13.4949 31.1131 16.7756V41.6009C31.1648 44.5153 30.5652 47.4044 29.3584 50.0564C28.2257 52.4832 26.3947 54.515 24.1009 55.8906C21.8028 57.2672 18.9378 57.9707 15.5903 57.9707ZM15.5903 1.35287C12.3136 1.35287 9.59377 2.00225 7.49145 3.2841C5.43846 4.54176 3.82639 6.40805 2.87847 8.62458C1.86274 10.9414 1.34981 13.6843 1.34981 16.7756V41.6009C1.34981 44.5975 1.89648 47.2525 2.96958 49.4915C3.9932 51.6648 5.63742 53.4846 7.69392 54.7204C9.78275 55.9786 12.4351 56.6178 15.5802 56.6178C18.7252 56.6178 21.3169 55.9786 23.399 54.7204C25.4625 53.4796 27.1079 51.6478 28.1233 49.4611C29.2481 46.9965 29.8085 44.3108 29.7633 41.6009V16.7756C29.7633 13.6843 29.2504 10.9414 28.2347 8.62458C27.2882 6.41146 25.683 4.54518 23.6385 3.28072C21.5733 2.00225 18.867 1.35287 15.5903 1.35287ZM15.5903 47.8918C14.3215 47.8918 13.3732 47.4386 12.7692 46.5389C12.2325 45.725 11.8865 44.8 11.7568 43.8331C11.6284 43.006 11.5585 42.1708 11.5476 41.3337V17.0462C11.5476 16.2548 11.5949 15.3551 11.686 14.3777C11.7638 13.3567 12.0856 12.3695 12.6241 11.4994C13.2281 10.549 14.2236 10.0688 15.5903 10.0688C16.957 10.0688 17.9525 10.5592 18.5599 11.4994C19.0977 12.3667 19.4216 13.3498 19.5048 14.3675C19.5959 15.3585 19.6431 16.2582 19.6431 17.0361V41.3202C19.6342 42.1503 19.5768 42.9793 19.471 43.8027C19.3626 44.7794 19.0236 45.7162 18.4823 46.5355C17.885 47.4386 16.903 47.8918 15.5903 47.8918ZM15.5903 11.4318C14.7028 11.4318 14.1055 11.6956 13.7647 12.2334C13.3394 12.9193 13.0847 13.6976 13.0223 14.5028C12.9346 15.4431 12.8907 16.2988 12.8907 17.0462V41.3303C12.9021 42.1017 12.9675 42.8714 13.0864 43.6336C13.186 44.4039 13.4608 45.141 13.8895 45.7881C14.1055 46.1263 14.5206 46.5389 15.5768 46.5389C16.4272 46.5389 17.0042 46.292 17.3451 45.7881C17.7685 45.1478 18.0314 44.4145 18.1111 43.6505C18.2127 42.8811 18.2679 42.1063 18.2764 41.3303V17.0462C18.2764 16.3089 18.2326 15.4532 18.1448 14.5028C18.0811 13.6979 17.8266 12.9199 17.4024 12.2334C17.0751 11.6956 16.4778 11.4318 15.5903 11.4318Z" fill="white"/>
<path d="M66.1407 56.9558H36.2424V48.0978L49.4435 27.7709C50.4559 26.2658 51.3839 24.8148 52.2376 23.4518C53.0635 22.1374 53.764 20.748 54.3298 19.3019C54.8636 17.9364 55.1382 16.4831 55.1397 15.0167C55.1397 13.6063 54.8731 12.5679 54.3467 11.9287C54.1006 11.6286 53.7877 11.3905 53.4331 11.2337C53.0786 11.0769 52.6922 11.0056 52.3051 11.0257C51.2658 11.0257 50.4964 11.2929 49.943 11.8408C49.3253 12.4989 48.9085 13.3204 48.7416 14.2083C48.4992 15.4069 48.386 16.6281 48.4042 17.8509V21.2331H36.1074V17.6548C36.0595 14.597 36.6038 11.5589 37.7103 8.70887C38.7351 6.10444 40.5476 3.88688 42.8936 2.36727C45.2456 0.845286 48.3434 0.0673828 52.1027 0.0673828C57.1644 0.0673828 61.0688 1.42026 63.684 4.09219C66.2993 6.76411 67.6255 10.5183 67.6255 15.2196C67.6424 17.3971 67.2733 19.5603 66.5355 21.6085C65.8015 23.5887 64.8521 25.4817 63.7043 27.2534C62.5704 29.0155 61.3421 30.8994 60.0193 32.8475L50.7326 46.7416H66.1407V56.9558ZM37.5922 55.6029H64.7909V48.0944H48.2051L58.8989 32.0933C60.2049 30.1486 61.44 28.2748 62.5704 26.5229C63.6631 24.833 64.5683 23.0286 65.27 21.1418C65.9549 19.2434 66.2977 17.2382 66.2824 15.2196C66.2824 10.8701 65.0878 7.44055 62.729 5.0392C60.3702 2.63785 56.7966 1.42026 52.1027 1.42026C48.6066 1.42026 45.7585 2.12375 43.6292 3.51045C41.5178 4.87875 39.8851 6.8734 38.9589 9.2162C37.9179 11.911 37.4079 14.7824 37.4572 17.6717V19.9039H47.0409V17.8746C47.0281 16.5534 47.1571 15.2347 47.4256 13.9411C47.6432 12.7962 48.187 11.7389 48.9913 10.8971C49.7945 10.0922 50.9081 9.68294 52.3051 9.68294C52.8919 9.66158 53.4756 9.77656 54.0107 10.0189C54.5458 10.2612 55.0176 10.6243 55.3894 11.0798C56.1183 11.9693 56.4895 13.2951 56.4895 15.0268C56.4927 16.6616 56.1905 18.2825 55.5987 19.8058C54.9983 21.3312 54.256 22.7965 53.3816 24.1824C52.5211 25.5555 51.5762 27.0167 50.5706 28.5251L37.5922 48.4969V55.6029Z" fill="white"/>
</g>
<defs>
<clipPath id="clip0">
<rect width="71" height="60" fill="white"/>
</clipPath>
</defs>
</svg>
