<svg width="70" height="60" viewBox="0 0 70 60" fill="none" xmlns="http://www.w3.org/2000/svg">
<g clip-path="url(#clip0)">
<path d="M18.9317 60.0001C15.6529 60.0001 12.9131 59.335 10.7122 58.0046C8.54053 56.7066 6.80447 54.7869 5.72667 52.4917C4.6038 50.149 4.04236 47.4207 4.04236 44.3068V19.4815C4.04236 16.2797 4.57011 13.4725 5.62561 11.0599C6.62628 8.71115 8.33437 6.73599 10.5101 5.41164C12.7087 4.05876 15.5159 3.38232 18.9317 3.38232C22.3475 3.38232 25.1434 4.05876 27.3195 5.41164C29.4807 6.74381 31.1759 8.71766 32.1704 11.0599C33.2236 13.4703 33.7514 16.2775 33.7536 19.4815V44.3068C33.8073 47.1162 33.2317 49.9018 32.0693 52.4579C30.9993 54.7671 29.2622 56.6998 27.0837 58.0046C24.8852 59.335 22.1678 60.0001 18.9317 60.0001ZM18.9317 49.9212C20.0096 49.9212 20.7844 49.5717 21.256 48.8727C21.7388 48.1436 22.0393 47.3082 22.1319 46.4376C22.2349 45.6411 22.2912 44.8393 22.3003 44.0362V19.7521C22.3003 18.9844 22.2565 18.1185 22.1656 17.1478C22.0943 16.2356 21.8055 15.3539 21.3234 14.5774C20.8518 13.8333 20.0545 13.4612 18.9317 13.4612C17.8088 13.4612 17.0116 13.8333 16.54 14.5774C16.0579 15.3539 15.769 16.2356 15.6978 17.1478C15.6068 18.1185 15.5631 18.9844 15.5631 19.7521V44.0362C15.5734 44.8405 15.6409 45.643 15.7652 46.4376C15.88 47.3082 16.1911 48.141 16.6747 48.8727C17.1463 49.5717 17.8986 49.9212 18.9317 49.9212Z" fill="#FF8400"/>
<path d="M55.0433 60.0001C51.2256 60.0001 48.2275 59.2786 46.0491 57.8355C43.8707 56.3942 42.2345 54.2633 41.4004 51.7814C40.432 48.8953 39.9649 45.8636 40.0193 42.8186V40.857H51.2705V42.8186C51.2428 44.2917 51.3556 45.764 51.6073 47.2155C51.8297 48.3417 52.2339 49.167 52.82 49.6845C53.5043 50.2371 54.3688 50.5143 55.2455 50.4624C56.2762 50.4624 57.051 50.1918 57.5698 49.6506C58.0886 49.1095 58.4367 48.2978 58.6141 47.2155C58.8115 45.872 58.9017 44.5148 58.8836 43.1568C58.8836 40.4511 58.513 38.388 57.7719 36.9674C57.0308 35.5469 55.4925 34.8141 53.1569 34.769H51.0684V26.99H52.8874C55.2657 26.99 56.8601 26.3361 57.6709 25.0283C58.4816 23.7205 58.8858 21.6912 58.8836 18.9404C58.8836 16.8186 58.6028 15.1952 58.0414 14.07C57.48 12.9449 56.4357 12.3812 54.9086 12.3789C53.4264 12.3789 52.4495 13.0103 51.9779 14.273C51.5063 15.5357 51.2705 17.1591 51.2705 19.1433V21.9844H40.0193V18.6698C40.0193 15.3778 40.6144 12.5931 41.8046 10.3158C42.9353 8.09924 44.7247 6.29074 46.925 5.14106C49.1482 3.96857 51.8095 3.38232 54.9086 3.38232C58.0526 3.38232 60.7475 3.94602 62.9933 5.07342C65.1912 6.1548 67.0029 7.89115 68.181 10.0452C69.3937 12.2346 70 14.9517 70 18.1963C70 21.4004 69.3488 24.0836 68.0462 26.2459C66.7437 28.4083 65.1717 29.7386 63.3301 30.2369C64.6078 30.7008 65.769 31.4396 66.7325 32.4015C67.8299 33.5386 68.6488 34.9165 69.1242 36.4263C69.7081 38.1174 70 40.2707 70 42.8863C70.0526 45.9035 69.5619 48.9055 68.5515 51.7476C67.6576 54.2258 65.992 56.3487 63.8018 57.8017C61.5987 59.2673 58.6792 60.0001 55.0433 60.0001Z" fill="#FF8400"/>
<path d="M15.563 57.9707C12.1776 57.9707 9.29403 57.2672 6.99663 55.8771C4.71392 54.5104 2.88808 52.4923 1.75168 50.08C0.589509 47.655 0 44.8005 0 41.6009V16.7756C0 13.4949 0.552454 10.5693 1.64052 8.08343C2.69725 5.60768 4.49803 3.52531 6.79115 2.1274C9.09528 0.717024 12.0395 0 15.563 0C19.0866 0 22.0274 0.717024 24.3215 2.13078C26.5902 3.54086 28.3702 5.61971 29.4182 8.08343C30.5063 10.5727 31.0587 13.4949 31.0587 16.7756V41.6009C31.1103 44.5153 30.5118 47.4044 29.307 50.0564C28.1774 52.4839 26.3494 54.516 24.0587 55.8906C21.7647 57.2672 18.9047 57.9707 15.563 57.9707ZM15.563 1.35287C12.2921 1.35287 9.577 2.00225 7.47834 3.2841C5.42763 4.5402 3.81798 6.40697 2.87344 8.62458C1.85948 10.9414 1.34745 13.6843 1.34745 16.7756V41.6009C1.34745 44.5975 1.89317 47.2525 2.96439 49.4915C3.98622 51.6648 5.62756 53.4846 7.68046 54.7204C9.76564 55.9786 12.4134 56.6178 15.5529 56.6178C18.6925 56.6178 21.2796 55.9786 23.358 54.7204C25.4179 53.4796 27.0605 51.6478 28.0741 49.4611C29.197 46.9965 29.7564 44.3108 29.7113 41.6009V16.7756C29.7113 13.6843 29.1992 10.9414 28.1853 8.62458C27.2404 6.41146 25.6381 4.54518 23.5972 3.28072C21.5356 2.00225 18.834 1.35287 15.563 1.35287ZM15.563 47.8918C14.2964 47.8918 13.3499 47.4386 12.7469 46.5389C12.2111 45.725 11.8657 44.8 11.7363 43.8331C11.6079 43.006 11.5381 42.1708 11.5274 41.3337V17.0462C11.5274 16.2548 11.5746 15.3551 11.6655 14.3777C11.7437 13.3568 12.0649 12.3698 12.602 11.4994C13.205 10.549 14.1987 10.0688 15.563 10.0688C16.9273 10.0688 17.9211 10.5592 18.5274 11.4994C19.0654 12.3661 19.3888 13.3496 19.4706 14.3675C19.5616 15.3619 19.6088 16.2582 19.6088 17.0361V41.3202C19.5999 42.1503 19.5425 42.9793 19.437 43.8027C19.3287 44.7794 18.9904 45.7162 18.45 46.5355C17.8537 47.4386 16.8734 47.8918 15.563 47.8918ZM15.563 11.4318C14.6771 11.4318 14.0808 11.6956 13.7406 12.2334C13.3179 12.9202 13.0639 13.6981 12.9995 14.5028C12.9119 15.4431 12.8681 16.2954 12.8681 17.0462V41.3303C12.8795 42.1017 12.9448 42.8714 13.0635 43.6336C13.163 44.4039 13.4373 45.141 13.8653 45.7881C14.0808 46.1263 14.4952 46.5389 15.5496 46.5389C16.3985 46.5389 16.9745 46.292 17.3147 45.7881C17.7371 45.1474 18.0005 44.4144 18.0828 43.6505C18.1815 42.8809 18.2354 42.1062 18.2445 41.3303V17.0462C18.2445 16.3089 18.2007 15.4532 18.1131 14.5028C18.0495 13.6979 17.7954 12.9199 17.372 12.2334C17.0452 11.6956 16.449 11.4318 15.563 11.4318Z" fill="white"/>
<path d="M51.6747 57.9707C47.7401 57.9707 44.6006 57.2063 42.3099 55.6945C40.0097 54.1704 38.2796 51.9216 37.3917 49.3021C36.4022 46.3422 35.9226 43.2345 35.9735 40.1127V37.4746H48.5722V40.1127C48.5496 41.5419 48.6624 42.97 48.9091 44.3777C49.1044 45.3518 49.4379 46.0688 49.9196 46.4712C50.4829 46.9118 51.1881 47.1285 51.9004 47.08C52.7358 47.08 53.3556 46.8771 53.7397 46.478C54.224 45.8842 54.5249 45.1612 54.6054 44.398C54.7956 43.0913 54.8824 41.7714 54.8648 40.451C54.8648 37.867 54.5279 35.8918 53.8306 34.5761C53.2074 33.3822 51.8869 32.7802 49.7883 32.7396H47.026V23.6077H49.5188C51.6376 23.6077 53.0558 23.0564 53.7296 21.9673C54.4673 20.7734 54.8412 18.8455 54.8412 16.2176C54.8412 14.2153 54.5818 12.6764 54.0698 11.6483C53.6218 10.752 52.8167 10.3326 51.54 10.3326C50.3407 10.3326 49.6097 10.7959 49.2392 11.7869C48.7472 13.2802 48.5192 14.8484 48.5655 16.4205V19.9549H35.9769V15.9639C35.9769 12.5817 36.6035 9.65953 37.8398 7.29538C39.0323 4.96099 40.915 3.05421 43.2296 1.83653C45.5539 0.61894 48.3465 0 51.54 0C54.7334 0 57.6035 0.591883 59.9245 1.76212C62.2425 2.90744 64.1545 4.73972 65.4018 7.01127C66.6651 9.29087 67.3051 12.1421 67.3051 15.4904C67.3051 18.8388 66.6145 21.646 65.2536 23.8884C64.243 25.5795 63.027 26.8207 61.6627 27.5682C62.4546 28.0196 63.1849 28.5721 63.8354 29.212C65.0047 30.4186 65.8798 31.8807 66.3922 33.4837C66.9986 35.2424 67.3051 37.4882 67.3051 40.1669C67.3561 43.266 66.8506 46.3491 65.8128 49.2683C64.8651 51.8775 63.1096 54.1131 60.8037 55.6471C58.4995 57.1928 55.4273 57.9707 51.6747 57.9707ZM37.3244 38.8275V40.1127C37.2756 43.0805 37.7312 46.035 38.6718 48.8489C39.46 51.189 41.0005 53.1997 43.051 54.5648C45.1059 55.9177 48.0096 56.6178 51.6747 56.6178C55.1579 56.6178 57.9808 55.9177 60.0592 54.531C62.1299 53.1541 63.7053 51.1456 64.553 48.8016C65.5319 46.0356 66.0077 43.1154 65.9577 40.1804C65.9577 37.6539 65.6747 35.5536 65.1189 33.9402C64.6749 32.5312 63.9129 31.2441 62.8922 30.1793C61.9982 29.2805 60.92 28.588 59.7325 28.1499L57.7113 27.4228L59.7964 26.8613C61.4538 26.4149 62.9057 25.1702 64.1117 23.1747C65.3176 21.1793 65.9678 18.5344 65.9678 15.4735C65.9678 12.3585 65.385 9.72379 64.2329 7.65051C63.1116 5.62301 61.3972 3.99021 59.3215 2.97294C57.179 1.89741 54.5717 1.35287 51.54 1.35287C48.5082 1.35287 45.9851 1.9177 43.8696 3.04397C41.7923 4.1328 40.1023 5.84144 39.0323 7.93461C37.897 10.1026 37.3244 12.8083 37.3244 15.9741V18.602H47.2281V16.4374C47.1787 14.7043 47.4318 12.9758 47.9759 11.3303C48.5486 9.80158 49.7782 8.99662 51.54 8.99662C53.7767 8.99662 54.8041 10.1195 55.2758 11.0598C55.8888 12.2976 56.1887 13.9887 56.1887 16.2345C56.1887 19.1432 55.7575 21.2503 54.8749 22.6809C53.9384 24.1928 52.1362 24.9605 49.5188 24.9605H48.3735V31.3867H49.7883C52.3888 31.4374 54.1405 32.2999 54.9995 33.947C55.7979 35.4791 56.1887 37.6065 56.1887 40.451C56.2065 41.8463 56.113 43.2408 55.9091 44.6212C55.7891 45.6533 55.3631 46.6254 54.6862 47.4115C54.0395 48.0879 53.0963 48.4262 51.8768 48.4262C50.835 48.4803 49.8106 48.1426 49.0034 47.4791C48.3094 46.8636 47.8311 45.9064 47.5785 44.6347C47.323 43.1393 47.2102 41.6229 47.2416 40.106V38.8207L37.3244 38.8275Z" fill="white"/>
</g>
<defs>
<clipPath id="clip0">
<rect width="70" height="60" fill="white"/>
</clipPath>
</defs>
</svg>
