<svg width="72" height="60" viewBox="0 0 72 60" fill="none" xmlns="http://www.w3.org/2000/svg">
<g clip-path="url(#clip0)">
<path d="M20.0281 60C16.7495 60 14.0118 59.3387 11.8149 58.0161C9.64483 56.7257 7.91009 54.8172 6.83311 52.5353C5.71109 50.2018 5.15008 47.4894 5.15008 44.3981V19.7176C5.15008 16.5344 5.67743 13.7436 6.73213 11.345C7.72772 9.00376 9.4352 7.0346 11.6129 5.71622C13.8121 4.37123 16.6171 3.69873 20.0281 3.69873C23.439 3.69873 26.2328 4.37123 28.4095 5.71622C30.5682 7.04165 32.2618 9.00368 33.2567 11.3315C34.3114 13.7279 34.8387 16.5187 34.8387 19.7041V44.3847C34.8921 47.1777 34.3169 49.947 33.1557 52.4882C32.0846 54.7828 30.3493 56.7037 28.1739 58.0027C25.9725 59.3342 23.2572 60 20.0281 60ZM20.0281 49.9798C21.1052 49.9798 21.8794 49.6436 22.3506 48.9375C22.8317 48.2118 23.1318 47.3817 23.2258 46.5165C23.3287 45.7247 23.3849 44.9275 23.3941 44.1291V19.9866C23.3941 19.2233 23.347 18.3591 23.2595 17.3975C23.1883 16.4905 22.8997 15.614 22.418 14.842C21.9467 14.1022 21.1501 13.7324 20.0281 13.7324C18.9038 13.7324 18.1094 14.1022 17.6382 14.842C17.155 15.6133 16.8663 16.4902 16.7966 17.3975C16.7069 18.3591 16.662 19.2222 16.662 19.9866V44.1291C16.6725 44.9287 16.74 45.7265 16.864 46.5165C16.9788 47.382 17.2896 48.21 17.7728 48.9375C18.244 49.6301 18.9947 49.9798 20.0281 49.9798Z" fill="#FF8400"/>
<path d="M57.122 59.7979C53.5742 59.7979 50.6906 59.0245 48.4713 57.4778C46.229 55.9053 44.525 53.6819 43.5905 51.1093C42.5129 48.1591 41.988 45.036 42.0421 41.8961V22.192C41.9963 18.988 42.4147 15.7942 43.2842 12.7098C44.0071 10.0878 45.5834 7.78083 47.7644 6.15299C49.9142 4.55917 53.011 3.76339 57.0547 3.76563C60.5554 3.76563 63.3145 4.30363 65.3319 5.37962C67.2864 6.38323 68.8162 8.05335 69.6438 10.0871C70.4943 12.1494 70.9206 14.7049 70.9229 17.7535C70.9223 17.9221 70.9324 18.0906 70.9532 18.2579C70.9764 18.4025 70.9887 18.5486 70.9902 18.695H60.4208C60.4208 16.496 60.2525 14.8708 59.9159 13.8194C59.5793 12.7681 58.648 12.2413 57.122 12.2391C56.0898 12.2391 55.3145 12.5529 54.7961 13.1806C54.2777 13.8082 53.931 14.9066 53.756 16.4758C53.5475 18.6662 53.4576 20.8662 53.4867 23.0662V27.9082C54.0928 26.9071 55.0172 26.1376 56.1122 25.7226C57.4156 25.1856 58.8091 24.9003 60.2188 24.882C63.0889 24.7901 65.3891 25.4401 67.1192 26.8322C68.9059 28.3102 70.2075 30.2897 70.8556 32.5148C71.6475 35.119 72.0335 37.8295 72 40.5511C72 44.3619 71.5512 47.7132 70.6536 50.6049C69.756 53.4966 68.2289 55.7495 66.0724 57.3635C63.9226 58.9864 60.9392 59.7979 57.122 59.7979ZM57.2533 51.5262C58.2867 51.5262 59.0407 51.19 59.5086 50.4839C59.9765 49.7777 60.2962 48.7555 60.4511 47.3904C60.6244 45.7037 60.703 44.0086 60.6867 42.313C60.6867 40.5197 60.6306 38.973 60.5184 37.6728C60.4757 36.5931 60.1633 35.5412 59.6096 34.613C59.1181 33.8732 58.2867 33.5034 57.122 33.5034C56.5865 33.502 56.0571 33.6167 55.5703 33.8396C55.1007 34.0479 54.6685 34.3319 54.2912 34.6802C53.9761 34.9636 53.7049 35.2922 53.4867 35.6553V44.5323C53.4819 45.6822 53.5822 46.8302 53.7863 47.962C53.9336 48.9111 54.3296 49.8043 54.9341 50.5511C55.2225 50.8773 55.5807 51.1344 55.9822 51.3032C56.3838 51.472 56.8182 51.5483 57.2533 51.5262Z" fill="#FF8400"/>
<path d="M15.5512 57.6328C12.1683 57.6328 9.28696 56.9334 6.9913 55.5514C4.71033 54.1927 2.88588 52.1864 1.75035 49.7882C0.58906 47.3773 0 44.5393 0 41.3584V16.6779C0 13.4163 0.552034 10.5077 1.63927 8.03631C2.69519 5.575 4.4946 3.50477 6.78597 2.115C9.08836 0.712845 12.0303 0 15.5512 0C19.0721 0 22.0107 0.712845 24.3029 2.11836C26.57 3.52022 28.3486 5.58695 29.3958 8.03631C30.483 10.5111 31.0351 13.4163 31.0351 16.6779V41.3584C31.0866 44.2558 30.4886 47.1281 29.2847 49.7646C28.1559 52.178 26.3293 54.1982 24.0404 55.5649C21.7481 56.9334 18.8903 57.6328 15.5512 57.6328ZM15.5512 1.34499C12.2827 1.34499 9.56971 1.99059 7.47265 3.26496C5.4235 4.51374 3.81507 6.36963 2.87125 8.57431C1.85806 10.8776 1.34642 13.6046 1.34642 16.6779V41.3584C1.34642 44.3376 1.89173 46.9771 2.96213 49.2031C3.98318 51.3637 5.62328 53.1729 7.67461 54.4015C9.7582 55.6523 12.4039 56.2878 15.5411 56.2878C18.6783 56.2878 21.2634 55.6523 23.3403 54.4015C25.3986 53.1679 27.0399 51.3468 28.0527 49.1728C29.1748 46.7226 29.7337 44.0525 29.6886 41.3584V16.6779C29.6886 13.6046 29.177 10.8776 28.1638 8.57431C27.2197 6.37409 25.6186 4.51869 23.5792 3.2616C21.5192 1.99058 18.8196 1.34499 15.5512 1.34499ZM15.5512 47.6126C14.2856 47.6126 13.3397 47.1621 12.7372 46.2677C12.2019 45.4585 11.8566 44.5389 11.7273 43.5777C11.5991 42.7554 11.5294 41.925 11.5187 41.0928V16.9469C11.5187 16.1634 11.5658 15.2656 11.6567 14.2939C11.7343 13.2789 12.0552 12.2974 12.5924 11.4324C13.195 10.4876 14.1879 10.0101 15.5512 10.0101C16.9144 10.0101 17.9074 10.4976 18.5133 11.4324C19.0498 12.2946 19.3729 13.272 19.4558 14.2838C19.5467 15.269 19.5938 16.1601 19.5938 16.9368V41.0794C19.585 41.9047 19.5276 42.7288 19.4222 43.5474C19.314 44.5184 18.9759 45.4497 18.4359 46.2643C17.8401 47.1621 16.8606 47.6126 15.5512 47.6126ZM15.5512 11.3652C14.6659 11.3652 14.0701 11.6274 13.7302 12.1621C13.3071 12.8446 13.0532 13.6181 12.9896 14.4183C12.9021 15.3531 12.8583 16.2038 12.8583 16.9469V41.0894C12.8697 41.8563 12.935 42.6215 13.0536 43.3793C13.153 44.1451 13.427 44.8779 13.8547 45.5212C14.0701 45.8574 14.4842 46.2677 15.5377 46.2677C16.386 46.2677 16.9616 46.0222 17.3015 45.5212C17.724 44.8847 17.9861 44.1556 18.0656 43.3961C18.167 42.6312 18.222 41.8609 18.2306 41.0894V16.9469C18.2306 16.2105 18.1868 15.3631 18.0993 14.4183C18.0357 13.6181 17.7818 12.8446 17.3588 12.1621C17.0323 11.6274 16.4365 11.3652 15.5512 11.3652Z" fill="white"/>
<path d="M52.6452 57.4307C48.9762 57.4307 45.9332 56.6103 43.6073 54.9896C41.2604 53.3407 39.4731 51.0157 38.4842 48.3251C37.38 45.2969 36.8404 42.0923 36.892 38.8699V19.1658C36.8482 15.8968 37.2767 12.6386 38.1644 9.49191C38.9285 6.733 40.5855 4.30445 42.8769 2.58539C45.1489 0.914238 48.4107 0.0668945 52.5778 0.0668945C56.1728 0.0668945 59.0642 0.635153 61.1748 1.74813C63.2654 2.82654 64.9019 4.61514 65.7896 6.79184C66.6715 8.92702 67.1361 11.5935 67.1361 14.7138C67.1338 14.85 67.1428 14.986 67.163 15.1207C67.1885 15.2978 67.202 15.4764 67.2034 15.6553V16.3278H55.2707V15.6553C55.2707 13.537 55.1125 11.9566 54.7961 10.9848C54.6446 10.5074 54.2541 9.87187 52.6452 9.87187C51.8171 9.87187 51.2281 10.1005 50.841 10.5679C50.5447 10.9277 50.1677 11.7313 49.949 13.5134C49.7434 15.6781 49.6546 17.8523 49.683 20.0265V23.0528C50.1942 22.6397 50.7607 22.3002 51.3661 22.044C52.7518 21.4893 54.2289 21.1974 55.7217 21.1832C58.7512 21.0891 61.2152 21.7952 63.0631 23.2814C64.95 24.8444 66.3271 26.9342 67.0182 29.2834C67.8308 31.9542 68.2282 34.7337 68.1964 37.5249C68.1964 41.385 67.7318 44.8315 66.8196 47.777C65.8805 50.8033 64.2614 53.1839 62.0028 54.8752C59.7442 56.5666 56.5902 57.4307 52.6452 57.4307ZM52.5778 1.41188C48.7035 1.41188 45.7144 2.1718 43.6881 3.6681C41.6286 5.21272 40.1395 7.39552 39.4536 9.87523C38.6051 12.8979 38.1958 16.0268 38.2384 19.1658V38.8699C38.1863 41.927 38.6963 44.9677 39.7431 47.8409C40.6358 50.2824 42.2528 52.3938 44.3781 53.8934C46.4752 55.3527 49.2555 56.0925 52.6452 56.0925C56.294 56.0925 59.1686 55.3224 61.195 53.806C63.2213 52.2895 64.6822 50.1274 65.5338 47.387C66.4056 44.5692 66.8499 41.2538 66.8499 37.5316C66.8831 34.8795 66.5073 32.2382 65.7358 29.7004C65.1283 27.596 63.903 25.7219 62.2182 24.3204C60.6295 23.0393 58.455 22.4341 55.7621 22.5181C54.4363 22.5383 53.1258 22.8051 51.8979 23.305C50.9359 23.6657 50.1236 24.3397 49.5921 25.2182L48.3366 27.4173V20.04C48.3089 17.8141 48.3999 15.5884 48.6093 13.3722C48.8045 11.6573 49.195 10.467 49.8008 9.72728C50.4067 8.98754 51.4065 8.54033 52.6452 8.54033C54.9408 8.54033 55.7823 9.65331 56.0785 10.5881C56.4152 11.5968 56.5801 13.0528 56.6104 14.9963H65.7795C65.7795 14.9089 65.7795 14.8214 65.7795 14.7273C65.7795 11.7818 65.3655 9.29016 64.5509 7.32984C63.7798 5.44359 62.3608 3.89374 60.5487 2.95862C58.63 1.92971 55.9506 1.41188 52.5778 1.41188ZM52.7798 49.159C52.2468 49.1822 51.7154 49.0855 51.2248 48.876C50.7342 48.6664 50.2971 48.3495 49.9456 47.9485C49.264 47.113 48.8168 46.1116 48.6497 45.0467C48.436 43.8742 48.3312 42.6844 48.3366 41.4926V32.4374L48.4241 32.2828C48.6763 31.8605 48.9906 31.4785 49.3565 31.1496C49.7915 30.7516 50.2883 30.4269 50.8275 30.1879C51.4013 29.9264 52.0246 29.7911 52.6553 29.7912C54.0555 29.7912 55.0822 30.2653 55.7049 31.2C56.3153 32.22 56.6623 33.3754 56.7147 34.5625C56.8292 35.884 56.8864 37.4643 56.8864 39.27C56.9014 40.9913 56.8216 42.7121 56.6474 44.4247C56.4724 45.9176 56.129 47.0272 55.5905 47.8174C54.9913 48.7085 54.0454 49.159 52.7798 49.159V49.159ZM49.683 32.8073V41.4926C49.6782 42.6009 49.7751 43.7073 49.9725 44.7979C50.0982 45.6295 50.4407 46.4134 50.9655 47.0709C51.1918 47.324 51.4727 47.5224 51.787 47.6512C52.1013 47.7799 52.4408 47.8356 52.7798 47.814C53.5809 47.814 54.1262 47.5686 54.4628 47.0676C54.8701 46.469 55.1361 45.5276 55.2943 44.2734C55.4691 42.6125 55.5511 40.9433 55.54 39.2734C55.54 37.5181 55.4828 35.9748 55.3717 34.6903C55.3357 33.723 55.0617 32.7795 54.5739 31.9432C54.2104 31.3984 53.5809 31.1328 52.6452 31.1328C52.2073 31.1327 51.7745 31.2268 51.3762 31.4085C50.7003 31.7148 50.119 32.1967 49.6931 32.8039L49.683 32.8073Z" fill="white"/>
</g>
<defs>
<clipPath id="clip0">
<rect width="72" height="60" fill="white"/>
</clipPath>
</defs>
</svg>
