<svg width="58" height="60" viewBox="0 0 58 60" fill="none" xmlns="http://www.w3.org/2000/svg">
<path d="M19.178 60.0002C15.89 60.0002 13.1443 59.3387 10.941 58.0159C8.76389 56.7261 7.02388 54.8169 5.94481 52.5338C4.81953 50.2042 4.2569 47.4912 4.2569 44.3948V19.7087C4.2569 16.5248 4.78578 13.7333 5.84353 11.3342C6.84537 8.99806 8.55734 7.0337 10.7385 5.71764C12.944 4.37235 15.7572 3.69971 19.178 3.69971C22.5989 3.69971 25.4008 4.37235 27.5838 5.71764C29.748 7.04423 31.4463 9.00644 32.445 11.3342C33.5005 13.7311 34.0294 16.5226 34.0316 19.7087V44.3948C34.0855 47.1884 33.5086 49.9584 32.3437 52.5002C31.2695 54.7962 29.5277 56.7178 27.3441 58.0159C25.1386 59.3387 22.4166 60.0002 19.178 60.0002ZM19.178 49.9777C20.2583 49.9777 21.0347 49.6302 21.5073 48.9351C21.9898 48.2093 22.2907 47.379 22.3851 46.5136C22.4884 45.7216 22.5447 44.9243 22.5539 44.1257V19.9777C22.5539 19.2143 22.5066 18.3533 22.4188 17.388C22.3474 16.4809 22.058 15.6042 21.5749 14.832C21.1022 14.0921 20.3033 13.7221 19.178 13.7221C18.0505 13.7221 17.2538 14.0921 16.7812 14.832C16.2966 15.6035 16.0071 16.4806 15.9372 17.388C15.8461 18.3533 15.8022 19.2143 15.8022 19.9777V44.1257C15.8126 44.9255 15.8803 45.7235 16.0048 46.5136C16.1199 47.3793 16.4316 48.2075 16.9162 48.9351C17.3888 49.6302 18.1428 49.9777 19.178 49.9777Z" fill="#FF8400"/>
<path d="M46.7247 58.9911V15.6055C46.2274 15.8745 45.6647 16.1436 45.0368 16.4127L43.0451 17.2535L41.0196 18.0943C40.3647 18.3633 39.7705 18.6324 39.2304 18.9015V10.5606C39.7233 10.2916 40.4209 9.92163 41.3234 9.45078C42.2259 8.97993 43.1936 8.45302 44.2266 7.87006C45.2596 7.28935 46.2262 6.69518 47.1265 6.08755C47.8486 5.62323 48.5265 5.09412 49.152 4.50684H58V58.9911H46.7247Z" fill="#FF8400"/>
<path d="M15.5963 57.6457C12.2036 57.6457 9.31389 56.9462 7.01158 55.5639C4.72321 54.2058 2.89322 52.1988 1.75543 49.7993C0.590769 47.3879 0 44.5493 0 41.3677V16.6816C0 13.4193 0.553635 10.5101 1.64403 8.03812C2.70398 5.57685 4.50837 3.50642 6.80566 2.11547C9.11472 0.713004 12.0652 0 15.5963 0C19.1274 0 22.0745 0.713005 24.3734 2.11883C26.647 3.52101 28.4308 5.58821 29.4811 8.03812C30.5715 10.5135 31.1251 13.4193 31.1251 16.6816V41.3677C31.1768 44.2658 30.577 47.1386 29.3697 49.7758C28.2366 52.189 26.4049 54.2094 24.1101 55.5774C21.8112 56.9462 18.9451 57.6457 15.5963 57.6457ZM15.5963 1.34529C12.3184 1.34529 9.59746 1.99103 7.49433 3.2657C5.44055 4.5163 3.82786 6.37213 2.87958 8.57623C1.86345 10.88 1.35033 13.6076 1.35033 16.6816V41.3677C1.35033 44.3475 1.89721 46.9877 2.97072 49.2141C3.99474 51.3752 5.63959 53.1848 7.69688 54.4137C9.78651 55.6648 12.4399 56.3004 15.5862 56.3004C18.7324 56.3004 21.3251 55.6648 23.408 54.4137C25.4723 53.1798 27.1184 51.3583 28.1341 49.1839C29.2594 46.733 29.82 44.0624 29.7748 41.3677V16.6816C29.7748 13.6076 29.2616 10.88 28.2455 8.57623C27.2987 6.37552 25.6929 4.51971 23.6476 3.26233C21.5816 1.99103 18.8742 1.34529 15.5963 1.34529ZM15.5963 47.6233C14.327 47.6233 13.3784 47.1726 12.7741 46.278C12.2372 45.4687 11.891 44.5489 11.7614 43.5874C11.6329 42.7649 11.5629 41.9344 11.5521 41.102V16.9507C11.5521 16.1637 11.5993 15.2691 11.6905 14.2971C11.7683 13.2819 12.0902 12.3002 12.629 11.435C13.2332 10.4899 14.2291 10.0123 15.5963 10.0123C16.9635 10.0123 17.9594 10.5 18.567 11.435C19.1051 12.2973 19.4291 13.275 19.5123 14.287C19.6034 15.2724 19.6507 16.167 19.6507 16.9406V41.0886C19.6418 41.9141 19.5843 42.7384 19.4785 43.5572C19.37 44.5284 19.031 45.4599 18.4894 46.2747C17.8919 47.1726 16.9095 47.6233 15.5963 47.6233ZM15.5963 11.3677C14.7085 11.3677 14.1109 11.63 13.77 12.1648C13.3445 12.8469 13.0898 13.6209 13.0273 14.4215C12.9395 15.3565 12.8956 16.2074 12.8956 16.9507V41.0987C12.9071 41.8657 12.9725 42.6311 13.0914 43.389C13.1911 44.155 13.466 44.888 13.8949 45.5314C14.1109 45.8677 14.5262 46.278 15.5828 46.278C16.4335 46.278 17.0108 46.0325 17.3517 45.5314C17.7754 44.8948 18.0383 44.1655 18.118 43.4058C18.2197 42.6408 18.2749 41.8703 18.2835 41.0987V16.9507C18.2835 16.2175 18.2396 15.3666 18.1518 14.4215C18.088 13.6211 17.8334 12.8474 17.4091 12.1648C17.0817 11.63 16.4841 11.3677 15.5963 11.3677Z" fill="white"/>
<path d="M55.0934 56.6368H42.4678V13.6715C42.2282 13.7825 41.9784 13.8935 41.7218 14.0079C41.0871 14.2769 40.4221 14.5594 39.7233 14.8487C39.0245 15.1379 38.3493 15.4238 37.6978 15.6928C37.0463 15.9619 36.4791 16.2175 35.9525 16.4798L34.9769 16.9675V7.13342L35.3145 6.94171C35.8096 6.67265 36.5106 6.30158 37.4176 5.82848C38.3122 5.361 39.2844 4.81952 40.3006 4.25786C41.3167 3.6962 42.272 3.10091 43.1599 2.50225C43.8485 2.06354 44.4959 1.56375 45.0942 1.00898L45.2934 0.810547H55.0833L55.0934 56.6368ZM43.8182 55.2915H53.7431V2.15248H45.8437C45.2417 2.68777 44.6008 3.1779 43.9262 3.61884C43.0046 4.23431 42.0155 4.84306 40.9757 5.42826C39.936 6.01346 38.9502 6.54485 38.0556 7.01907C37.3535 7.38678 36.7762 7.69171 36.3239 7.93387V14.7982C36.5973 14.6771 36.8842 14.5527 37.1779 14.4316L39.2034 13.5942C39.9011 13.3027 40.5639 13.0224 41.1918 12.7534C41.7961 12.4944 42.3463 12.2321 42.8223 11.9731L43.8351 11.4316L43.8182 55.2915Z" fill="white"/>
</svg>
