<svg width="72" height="60" viewBox="0 0 72 60" fill="none" xmlns="http://www.w3.org/2000/svg">
<g clip-path="url(#clip0)">
<path d="M20.7935 59.9998C17.4756 59.9998 14.7032 59.3316 12.4761 57.9953C10.2786 56.6912 8.52194 54.7628 7.43112 52.4573C6.29487 50.1017 5.72674 47.3611 5.72674 44.2353V19.2976C5.72674 16.0836 6.26078 13.2637 7.32886 10.8378C8.34263 8.47919 10.0708 6.4954 12.2716 5.16399C14.5009 3.80499 17.3415 3.12549 20.7935 3.12549C24.2454 3.12549 27.0747 3.80499 29.2813 5.16399C31.4682 6.5022 33.1836 8.485 34.19 10.8378C35.258 13.2637 35.7921 16.0836 35.7921 19.2976V44.2353C35.8482 47.0576 35.2656 49.8563 34.0877 52.4233C33.006 54.7438 31.2479 56.6855 29.0427 57.9953C26.8225 59.3316 24.0727 59.9998 20.7935 59.9998ZM20.7935 49.8752C21.8843 49.8752 22.6683 49.5241 23.1455 48.822C23.6352 48.0901 23.9393 47.2506 24.0318 46.3758C24.1378 45.5759 24.1948 44.7703 24.2023 43.9635V19.5694C24.2023 18.8016 24.1568 17.9296 24.0659 16.9534C23.9949 16.0368 23.7025 15.1509 23.2137 14.3712C22.7433 13.6238 21.9388 13.2501 20.7935 13.2501C19.6481 13.2501 18.8505 13.6238 18.3733 14.3712C17.8859 15.1516 17.5937 16.0371 17.5211 16.9534C17.4324 17.9284 17.3847 18.8016 17.3847 19.5694V43.9635C17.3952 44.7715 17.4635 45.5776 17.5893 46.3758C17.7046 47.2505 18.0194 48.0874 18.5096 48.822C18.9937 49.5253 19.7709 49.8752 20.7935 49.8752V49.8752Z" fill="#FF8400"/>
<path d="M56.9264 59.9998C52.8791 59.9998 49.8226 59.2863 47.7568 57.8594C45.6799 56.4218 44.1916 54.2872 43.5641 51.8458C42.794 48.9191 42.4271 45.9016 42.4733 42.8764H53.4495C53.4217 44.5816 53.5357 46.2862 53.7904 47.9726C54.0176 49.2886 54.438 50.2286 55.0516 50.7926C55.6652 51.3565 56.5401 51.617 57.6764 51.574C58.8592 51.5298 59.6978 51.0542 60.1989 50.147C60.6999 49.2399 61.0067 47.9386 61.1192 46.2399C61.2317 44.5411 61.2897 42.5026 61.2897 40.0904C61.3026 38.477 61.2001 36.8648 60.9829 35.2659C60.8531 34.0623 60.432 32.908 59.7557 31.9024C59.1421 31.0666 58.2218 30.6453 56.9946 30.6453C56.467 30.6307 55.9426 30.7328 55.4593 30.9443C54.976 31.1558 54.5457 31.4714 54.1994 31.8684C53.4722 32.6838 52.9495 33.9522 52.6314 35.6736H42.8141L43.8368 3.94092H69.6071V13.4539H52.9723L52.3655 24.8016C52.82 24.1697 53.6836 23.6148 54.9562 23.1368C56.2726 22.651 57.6483 22.3425 59.0467 22.2195C61.8669 21.9024 64.2417 22.412 66.171 23.7484C68.1004 25.0847 69.5548 27.1119 70.5342 29.8299C71.5137 32.5479 72.0023 35.8775 72 39.8186C72.0164 42.5349 71.8341 45.2488 71.4546 47.9386C71.167 50.183 70.4495 52.3514 69.3412 54.326C68.2678 56.1419 66.6749 57.597 64.7666 58.5049C62.7713 59.5015 60.1579 59.9998 56.9264 59.9998Z" fill="#FF8400"/>
<path d="M15.7485 58.2333C12.3193 58.2333 9.40479 57.5266 7.08001 56.1302C4.76838 54.7594 2.92024 52.7316 1.77256 50.3069C0.596534 47.8709 0 45.0034 0 41.7894V16.8516C0 13.5561 0.559038 10.6172 1.66007 8.12004C2.73037 5.63369 4.55237 3.54216 6.87208 2.13703C9.20367 0.720272 12.1829 0 15.7485 0C19.3141 0 22.2899 0.720272 24.6113 2.14043C26.9071 3.5569 28.7083 5.64517 29.7688 8.12004C30.8698 10.6206 31.4288 13.5561 31.4288 16.8516V41.7894C31.4828 44.7171 30.8771 47.6196 29.6563 50.2831C28.5144 52.7214 26.6658 54.7627 24.3488 56.1438C22.0241 57.5266 19.13 58.2333 15.7485 58.2333ZM15.7485 1.359C12.4386 1.359 9.69113 2.01132 7.56747 3.29898C5.49216 4.56059 3.86328 6.43587 2.90768 8.66365C1.88164 10.9909 1.36351 13.7463 1.36351 16.8516V41.7894C1.36351 44.7995 1.91573 47.4666 2.99972 49.7157C4.03372 51.8988 5.69463 53.7269 7.77199 54.9683C9.88202 56.2322 12.5613 56.8743 15.7383 56.8743C18.9153 56.8743 21.5332 56.2322 23.6364 54.9683C25.7209 53.7218 27.383 51.8817 28.4087 49.6852C29.5449 47.2094 30.111 44.5115 30.0653 41.7894V16.8516C30.0653 13.7463 29.5438 10.9909 28.5212 8.66365C27.5651 6.4405 25.9437 4.56577 23.8784 3.29558C21.7923 2.01132 19.0584 1.359 15.7485 1.359ZM15.7485 48.1087C14.4668 48.1087 13.5089 47.6535 12.8988 46.7497C12.3561 45.9324 12.0065 45.0031 11.8761 44.0317C11.7464 43.2008 11.6758 42.3618 11.6648 41.5209V17.1234C11.6648 16.3284 11.7125 15.4247 11.8046 14.4428C11.8837 13.4173 12.2087 12.4258 12.7522 11.5515C13.3624 10.5968 14.368 10.1144 15.7485 10.1144C17.1291 10.1144 18.1346 10.607 18.7482 11.5515C19.2915 12.4227 19.6187 13.4103 19.7027 14.4326C19.7947 15.4315 19.8424 16.3318 19.8424 17.1132V41.5074C19.8335 42.3413 19.7754 43.174 19.6686 44.0011C19.5601 44.983 19.2164 45.9245 18.6664 46.7463C18.0665 47.6534 17.0745 48.1087 15.7485 48.1087ZM15.7485 11.4836C14.852 11.4836 14.2487 11.7486 13.9044 12.2888C13.4752 12.9781 13.2181 13.7598 13.1544 14.5685C13.0658 15.513 13.0215 16.3692 13.0215 17.1234V41.5175C13.0315 42.2925 13.0975 43.0658 13.2192 43.8313C13.3198 44.605 13.5974 45.3455 14.0305 45.9955C14.2487 46.3352 14.6679 46.7497 15.7349 46.7497C16.5939 46.7497 17.1768 46.5017 17.5211 45.9955C17.9489 45.3523 18.2143 44.6157 18.2949 43.8482C18.3975 43.0754 18.4532 42.2971 18.4619 41.5175V17.1234C18.4619 16.3828 18.4176 15.5232 18.3289 14.5685C18.2646 13.76 18.0075 12.9784 17.579 12.2888C17.2484 11.7486 16.645 11.4836 15.7485 11.4836Z" fill="white"/>
<path d="M51.8814 58.2333C47.7125 58.2333 44.498 57.4722 42.3369 55.9739C40.1313 54.4434 38.5485 52.1763 37.8748 49.5832C37.0856 46.5971 36.706 43.5181 36.7465 40.4303V39.7508H49.0863V40.4303C49.0618 42.0971 49.1759 43.763 49.4271 45.4111C49.6248 46.5696 49.9794 47.3884 50.4804 47.8471C50.9815 48.3058 51.6599 48.4892 52.6143 48.4485C53.5688 48.4077 54.179 48.0713 54.5641 47.3748C55.0141 46.5594 55.297 45.3363 55.4027 43.7497C55.5152 42.0509 55.5731 40.0124 55.5731 37.6342C55.5849 36.0538 55.4847 34.4746 55.2732 32.9083C55.1571 31.8153 54.7783 30.7664 54.1687 29.8505C53.6881 29.1914 52.9654 28.872 51.9598 28.872C51.5282 28.8573 51.0988 28.9391 50.703 29.1114C50.3072 29.2836 49.9551 29.542 49.6726 29.8675C49.0317 30.5844 48.5579 31.7531 48.2647 33.3431L48.1625 33.9003H37.0635L38.1305 0.808594H65.2438V11.6806H48.5715L48.0807 20.7927C48.584 20.4939 49.1147 20.2436 49.6657 20.0453C51.0378 19.5373 52.4721 19.215 53.9301 19.0872C56.8889 18.7474 59.4421 19.308 61.5078 20.735C63.5735 22.1619 65.1075 24.3126 66.1301 27.1563C67.1289 29.9354 67.6368 33.3737 67.6368 37.3726C67.6506 40.1218 67.4661 42.8684 67.0846 45.5911C66.7788 47.9204 66.0327 50.1708 64.8859 52.2231C63.7435 54.1495 62.0545 55.6958 60.0318 56.667C57.9491 57.7067 55.1982 58.2333 51.8814 58.2333ZM38.1134 41.1098C38.1188 43.846 38.4751 46.5702 39.1736 49.2163C39.7658 51.5029 41.1585 53.5032 43.1005 54.8562C45.04 56.1948 47.9954 56.8743 51.8814 56.8743C54.9834 56.8743 57.5195 56.3952 59.4148 55.4507C61.2006 54.5979 62.6919 53.2357 63.6996 51.5368C64.7609 49.6362 65.4493 47.5514 65.7279 45.3941C66.1014 42.7367 66.2814 40.0559 66.2664 37.3726C66.2664 33.53 65.7858 30.2378 64.8382 27.6115C63.9144 25.043 62.5338 23.1098 60.7306 21.8596C58.9274 20.6093 56.7083 20.1608 54.0699 20.4496C52.7276 20.5664 51.407 20.8612 50.143 21.3261C49.0044 21.7508 48.2409 22.2299 47.8659 22.7497L46.5024 24.6523L47.2796 10.3284H63.8803V2.17439H39.4497L38.4713 32.5481H47.041C47.3819 30.9683 47.9205 29.7961 48.6568 28.9705C49.0655 28.5031 49.5723 28.1309 50.1413 27.8802C50.7103 27.6295 51.3276 27.5065 51.9496 27.5198C53.3983 27.5198 54.513 28.0362 55.2595 29.0555C56.0042 30.1498 56.4721 31.4076 56.623 32.7214C56.8408 34.3532 56.9422 35.9983 56.9264 37.6444C56.9264 40.0226 56.8685 42.1223 56.7526 43.838C56.6333 45.6557 56.3026 47.0249 55.7504 48.0272C55.1368 49.1381 54.0665 49.7531 52.6552 49.8075C51.336 49.8584 50.2895 49.5357 49.543 48.846C48.7965 48.1563 48.3295 47.12 48.0738 45.6421C47.8408 44.1425 47.7234 42.6273 47.7227 41.1098H38.1134Z" fill="white"/>
</g>
<defs>
<clipPath id="clip0">
<rect width="72" height="60" fill="white"/>
</clipPath>
</defs>
</svg>
