<svg width="71" height="60" viewBox="0 0 71 60" fill="none" xmlns="http://www.w3.org/2000/svg">
<path d="M19.0488 60C15.8074 60 13.0988 59.3459 10.9231 58.0377C8.77614 56.7613 7.05988 54.8735 5.99437 52.6164C4.8843 50.3126 4.32927 47.6297 4.32927 44.5676V20.1552C4.32927 17.0067 4.851 14.2461 5.89447 11.8736C6.88373 9.56394 8.57233 7.62162 10.7233 6.3193C12.8968 4.98892 15.672 4.32373 19.0488 4.32373C22.4256 4.32373 25.1897 4.98892 27.341 6.3193C29.4775 7.62932 31.1534 9.57034 32.1365 11.8736C33.1777 14.2439 33.6995 17.0044 33.7017 20.1552V44.5676C33.7548 47.3303 33.1857 50.0696 32.0366 52.5832C30.9788 54.854 29.2615 56.7545 27.1079 58.0377C24.9344 59.3459 22.248 60 19.0488 60ZM19.0488 50.0887C20.1144 50.0887 20.8804 49.745 21.3466 49.0577C21.8239 48.3406 22.121 47.5191 22.2125 46.663C22.3144 45.8798 22.37 45.0913 22.379 44.3016V20.4213C22.379 19.6663 22.3357 18.8149 22.2458 17.8603C22.1754 16.9632 21.8898 16.0963 21.4132 15.3326C20.947 14.6009 20.1589 14.235 19.0488 14.235C17.9387 14.235 17.1506 14.6009 16.6843 15.3326C16.2078 16.0963 15.9222 16.9632 15.8518 17.8603C15.7619 18.8149 15.7186 19.6663 15.7186 20.4213V44.3016C15.7288 45.0924 15.7956 45.8816 15.9184 46.663C16.032 47.5191 16.3395 48.3381 16.8175 49.0577C17.2838 49.745 18.0275 50.0887 19.0488 50.0887Z" fill="#FF8400"/>
<path d="M55.6144 59.0023V46.8959H39.03V38.7141L53.0835 5.12207H66.0047V38.6476H71V46.8959H66.0047V59.0023H55.6144ZM47.4887 38.6476H55.6144V16.2307L47.4887 38.6476Z" fill="#FF8400"/>
<path d="M15.3856 57.0067C12.0354 57.0067 9.18804 56.3149 6.91684 54.9479C4.65848 53.6059 2.85293 51.6209 1.73171 49.2472C0.582786 46.8625 0 44.0554 0 40.9091V16.4967C0 13.2705 0.546154 10.3936 1.62181 7.949C2.66744 5.51502 4.44745 3.46755 6.7137 2.09202C8.99156 0.7051 11.9022 0 15.3856 0C18.8689 0 21.7762 0.7051 24.0441 2.09534C26.287 3.48197 28.0466 5.52625 29.0827 7.949C30.1583 10.3969 30.7045 13.2705 30.7045 16.4967V40.9091C30.7555 43.775 30.1638 46.616 28.9728 49.2239C27.856 51.6111 26.0489 53.6094 23.7843 54.9612C21.5165 56.3149 18.6891 57.0067 15.3856 57.0067ZM15.3856 1.33038C12.1519 1.33038 9.46778 1.96896 7.39306 3.22949C5.36559 4.46452 3.77424 6.3003 2.84067 8.48115C1.83827 10.7594 1.33208 13.4534 1.33208 16.4967V40.9091C1.33208 43.8559 1.87158 46.4667 2.93058 48.6685C3.94076 50.8056 5.56338 52.5952 7.59287 53.8104C9.65427 55.0477 12.2718 55.6763 15.3756 55.6763C18.4793 55.6763 21.0369 55.0477 23.0916 53.8104C25.1281 52.5902 26.7519 50.7889 27.7539 48.6386C28.864 46.2149 29.417 43.5739 29.3724 40.9091V16.4967C29.3724 13.4568 28.8662 10.7594 27.8638 8.48115C26.9298 6.30484 25.3457 4.4696 23.3281 3.22616C21.29 1.96896 18.6192 1.33038 15.3856 1.33038ZM15.3856 47.0953C14.1334 47.0953 13.1976 46.6497 12.6015 45.765C12.0719 44.9646 11.7303 44.055 11.6024 43.1042C11.4757 42.2908 11.4067 41.4695 11.396 40.6463V16.7628C11.396 15.9845 11.4426 15.0998 11.5325 14.1386C11.6093 13.1346 11.9268 12.1638 12.4583 11.3082C13.0544 10.3736 14.0368 9.90133 15.3856 9.90133C16.7343 9.90133 17.7167 10.3836 18.3161 11.3082C18.8469 12.161 19.1666 13.1278 19.2486 14.1286C19.3385 15.1064 19.3851 15.9878 19.3851 16.7528V40.633C19.3764 41.4494 19.3196 42.2645 19.2153 43.0743C19.1083 44.0347 18.7738 44.9559 18.2395 45.7616C17.6501 46.6497 16.681 47.0953 15.3856 47.0953ZM15.3856 11.2417C14.5097 11.2417 13.9203 11.5011 13.5839 12.0299C13.1654 12.705 12.9142 13.4701 12.8513 14.2616C12.7647 15.1829 12.7214 16.0244 12.7214 16.7628V40.643C12.7311 41.4017 12.7957 42.1586 12.9145 42.908C13.0129 43.6655 13.284 44.3903 13.7071 45.0266C13.9203 45.3592 14.3299 45.765 15.3722 45.765C16.2114 45.765 16.7809 45.5222 17.1173 45.0266C17.5352 44.397 17.7945 43.6759 17.8732 42.9246C17.9735 42.168 18.028 41.4061 18.0364 40.643V16.7628C18.0364 16.0377 17.9931 15.1962 17.9065 14.2616C17.8436 13.4701 17.5924 12.705 17.1739 12.0299C16.8508 11.5011 16.2614 11.2417 15.3856 11.2417Z" fill="white"/>
<path d="M63.0075 56.009H51.2852V43.9026H34.7007V34.9225L34.7507 34.7995L48.9773 0.79834H63.0075V34.3238H68.0028V43.9026H63.0075V56.009ZM52.6173 54.6786H61.6754V42.5722H66.6707V35.6542H61.6754V2.12872H49.8632L36.0328 35.1886V42.5722H52.6173V54.6786ZM52.6173 35.6542H42.8764L52.6173 8.7806V35.6542ZM44.7746 34.3238H51.2852V16.3638L44.7746 34.3238Z" fill="white"/>
</svg>
