<svg width="64" height="64" viewBox="0 0 64 64" fill="none" xmlns="http://www.w3.org/2000/svg">
<g clip-path="url(#clip0_13111_12282)">
<g clip-path="url(#clip1_13111_12282)">
<path d="M19.7159 50.3208L8.84622 61.1894C8.42626 61.6093 8.42626 62.2882 8.84622 62.7081C9.05567 62.9176 9.33063 63.0228 9.60559 63.0228C9.88056 63.0228 10.1555 62.9176 10.365 62.7081L21.2346 51.8396C21.6546 51.4196 21.6546 50.7408 21.2346 50.3208C20.8146 49.9009 20.1358 49.9009 19.7159 50.3208Z" fill="#407BFF"/>
<path d="M18.2697 0.888527C18.2697 0.294564 17.7885 -0.185547 17.1956 -0.185547H5.05749C4.91679 -0.185547 4.77501 -0.157621 4.6429 -0.101769C4.58168 -0.0759912 4.53549 -0.0298062 4.48072 0.0056383C4.41842 0.0464531 4.34968 0.0743791 4.2949 0.129157C4.21005 0.214009 4.1542 0.314972 4.10372 0.417009C4.09405 0.436342 4.07579 0.450305 4.06827 0.470712C4.0092 0.609268 3.98235 0.756416 3.98449 0.903564V13.0266C3.98449 13.6206 4.46568 14.1007 5.05857 14.1007C5.65146 14.1007 6.13264 13.6206 6.13264 13.0266V3.48456L16.6371 13.989C16.8465 14.1985 17.1215 14.3037 17.3965 14.3037C17.6714 14.3037 17.9464 14.1985 18.1558 13.989C18.5758 13.569 18.5758 12.8902 18.1558 12.4703L7.64709 1.9626H17.1956C17.7885 1.9626 18.2697 1.48249 18.2697 0.888527Z" fill="#407BFF"/>
<path d="M19.3906 13.7004L38.6327 32.9414C38.8346 33.1433 38.9474 33.4161 38.9474 33.7007C38.9474 33.9854 38.8346 34.2593 38.6327 34.4601L21.8868 51.1953C25.4087 56.1886 30.6083 59.9962 36.8228 61.6857C37.3599 61.8189 37.913 61.9575 38.493 62.0842C39.0612 61.9575 39.6273 61.82 40.1654 61.6814C43.2394 60.8469 46.1147 59.4957 48.6967 57.6698C53.8169 54.0169 57.5127 48.6959 59.1002 42.6886C59.7017 40.4696 60.0057 38.1786 60.0057 35.8725V14.5038L38.4963 7.29785L19.3906 13.7004ZM45.9267 18.1814C46.2758 17.8732 46.7827 17.8259 47.1812 18.059C47.5829 18.2942 47.7859 18.7593 47.6882 19.2136L46.0169 26.9115H55.1068C55.5751 26.9115 55.9897 27.2144 56.1304 27.6612C56.2722 28.108 56.1079 28.5935 55.7255 28.8631L47.8579 34.4L54.3174 37.91C54.7266 38.1324 54.9457 38.5942 54.8598 39.0507C54.7739 39.5093 54.4033 39.8595 53.9414 39.9196L46.0835 40.9282L46.7323 48.8624C46.7709 49.3371 46.4927 49.7807 46.0481 49.9536C45.9224 50.002 45.7914 50.0245 45.6625 50.0245C45.3349 50.0245 45.017 49.8741 44.8097 49.6035L40.1417 43.5081L38.0408 49.3146C37.8905 49.7313 37.4995 50.0127 37.0559 50.0234C36.6241 50.0213 36.2096 49.771 36.0388 49.3629L33.7585 43.8991C33.5297 43.3513 33.7886 42.723 34.3364 42.4942C34.8841 42.2643 35.5125 42.5243 35.7413 43.072L36.9582 45.9892L38.7884 40.9303C38.9227 40.5608 39.246 40.2934 39.6348 40.2343C40.0279 40.1774 40.4135 40.331 40.6519 40.6425L44.2941 45.3974L43.8591 40.0818C43.8129 39.5093 44.2232 39.0013 44.7925 38.9283L50.3734 38.2119L45.3123 35.4611C44.9858 35.2839 44.7742 34.9499 44.7527 34.5793C44.7313 34.2077 44.9031 33.8522 45.2071 33.6395L51.716 29.0586H44.6861C44.3618 29.0586 44.0535 28.9114 43.8505 28.659C43.6464 28.4066 43.568 28.0737 43.6368 27.7568L44.8934 21.9654L40.6745 25.701C40.4468 25.9019 40.1482 25.9953 39.8421 25.9642C39.5403 25.9298 39.2664 25.7687 39.0891 25.5217L36.2557 21.5648L35.8003 23.6141C35.6714 24.193 35.0968 24.5529 34.519 24.4304C33.94 24.3015 33.5749 23.728 33.7037 23.149L34.6811 18.7518C34.7724 18.3383 35.1 18.0171 35.5146 17.9323C35.9303 17.8453 36.3567 18.0139 36.6027 18.3587L40.1428 23.3026L45.9278 18.1793L45.9267 18.1814Z" fill="#407BFF"/>
<path d="M16.9922 14.5069V35.8746C16.9922 40.7337 18.3423 45.3511 20.701 49.352L36.3599 33.7028L17.1221 14.4629L16.9922 14.5069Z" fill="#407BFF"/>
</g>
</g>
<defs>
<clipPath id="clip0_13111_12282">
<rect width="64" height="64" fill="white"/>
</clipPath>
<clipPath id="clip1_13111_12282">
<rect width="58" height="63.3704" fill="white" transform="translate(3 -0.185547)"/>
</clipPath>
</defs>
</svg>
