<svg width="18" height="18" viewBox="0 0 18 18" fill="none" xmlns="http://www.w3.org/2000/svg">
<g clip-path="url(#clip0_13093_61961)">
<path fill-rule="evenodd" clip-rule="evenodd" d="M8.00228 2.132C8.27688 1.88782 8.63156 1.75293 8.99903 1.75293C9.36649 1.75293 9.72118 1.88782 9.99578 2.132L12.9463 4.75475L13.1338 3.62675C13.1499 3.52959 13.1851 3.43656 13.2372 3.35297C13.2893 3.26939 13.3573 3.19688 13.4375 3.1396C13.5176 3.08232 13.6082 3.04138 13.7042 3.01912C13.8001 2.99686 13.8995 2.99372 13.9967 3.00987C14.0938 3.02602 14.1868 3.06116 14.2704 3.11326C14.354 3.16537 14.4265 3.23343 14.4838 3.31355C14.5411 3.39368 14.582 3.4843 14.6043 3.58025C14.6265 3.67619 14.6297 3.77559 14.6135 3.87275L14.2715 5.93225L16.2478 7.6895C16.3889 7.82353 16.4724 8.00717 16.4806 8.20161C16.4888 8.39605 16.4211 8.58607 16.2918 8.73153C16.1625 8.87699 15.9817 8.96649 15.7877 8.98113C15.5936 8.99577 15.4014 8.93441 15.2518 8.81L14.9038 8.501L14.3135 14.399C14.2765 14.7693 14.1032 15.1125 13.8272 15.3622C13.5513 15.6118 13.1924 15.7499 12.8203 15.7497H5.17778C4.8058 15.7497 4.4471 15.6115 4.17131 15.3619C3.89551 15.1123 3.72229 14.7691 3.68528 14.399L3.09578 8.501L2.74703 8.81C2.59737 8.93441 2.40522 8.99577 2.21115 8.98113C2.01709 8.96649 1.83632 8.87699 1.70702 8.73153C1.57773 8.58607 1.51003 8.39605 1.51825 8.20161C1.52646 8.00717 1.60993 7.82353 1.75103 7.6895L8.00228 2.132ZM4.46678 7.28225C4.48103 7.32875 4.49003 7.376 4.49528 7.4255L5.17778 14.2505H12.8203L13.5028 7.4255C13.508 7.376 13.5178 7.328 13.5313 7.283L8.99903 3.2525L4.46678 7.28225Z" fill="#407BFF"/>
</g>
<defs>
<clipPath id="clip0_13093_61961">
<rect width="18" height="18" fill="white"/>
</clipPath>
</defs>
</svg>
