<svg width="64" height="64" viewBox="0 0 64 64" fill="none" xmlns="http://www.w3.org/2000/svg">
<g clip-path="url(#clip0_13111_10377)">
<path d="M57 8H51V18H57V8Z" fill="#407BFF"/>
<path d="M44 6H38V20H44V6Z" fill="#407BFF"/>
<path d="M28 6H22V20H28V6Z" fill="#407BFF"/>
<path d="M36 6H30V20H36V6Z" fill="#407BFF"/>
<path d="M45 25H13C10.79 25 9 23.21 9 21V5C9 2.79 10.79 1 13 1H45C47.21 1 49 2.79 49 5V21C49 23.21 47.21 25 45 25ZM46 5C46 4.448 45.552 4 45 4H13C12.448 4 12 4.448 12 5V21C12 21.552 12.448 22 13 22H45C45.552 22 46 21.552 46 21V5Z" fill="#407BFF"/>
<path d="M20 6H14V20H20V6Z" fill="#407BFF"/>
<path d="M33 38V33H45.503L48.417 38H33Z" fill="#407BFF"/>
<path d="M31 33H24V38H31V33Z" fill="#407BFF"/>
<path d="M5 46C5.552 46 6 45.552 6 45C6 44.448 5.552 44 5 44H0.0880013C0.334 42.484 1.133 41.293 2.33 40.55L9 37L14.44 29.23C15.42 27.83 17.02 27 18.72 27H39C40.86 27 42.58 27.99 43.51 29.59L44.335 31H23C22.448 31 22 31.448 22 32V39C22 39.552 22.448 40 23 40H54.134L60.09 41.16C61.23 41.4 62.21 42.03 62.9 42.89C63.387 43.497 63.724 44.221 63.886 45H59C58.448 45 58 45.448 58 46C58 46.552 58.448 47 59 47H64V54C64 54.55 63.78 55.05 63.41 55.41C63.05 55.78 62.55 56 62 56H61C61 51.037 56.963 47 52 47C47.037 47 43 51.037 43 56H21C21 51.037 16.963 47 12 47C7.037 47 3 51.037 3 56H2C0.900002 56 0 55.1 0 54V46H5Z" fill="#407BFF"/>
<path d="M52 49C55.87 49 59 52.13 59 56C59 59.87 55.87 63 52 63C48.13 63 45 59.87 45 56C45 52.13 48.13 49 52 49ZM52 59C53.657 59 55 57.657 55 56C55 54.343 53.657 53 52 53C50.343 53 49 54.343 49 56C49 57.657 50.343 59 52 59Z" fill="#407BFF"/>
<path d="M12 49C15.87 49 19 52.13 19 56C19 59.87 15.87 63 12 63C8.13 63 5 59.87 5 56C5 52.13 8.13 49 12 49ZM12 59C13.657 59 15 57.657 15 56C15 54.343 13.657 53 12 53C10.343 53 9 54.343 9 56C9 57.657 10.343 59 12 59Z" fill="#407BFF"/>
</g>
<defs>
<clipPath id="clip0_13111_10377">
<rect width="64" height="64" fill="white"/>
</clipPath>
</defs>
</svg>
