<svg width="64" height="64" viewBox="0 0 64 64" fill="none" xmlns="http://www.w3.org/2000/svg">
<g clip-path="url(#clip0_13111_12283)">
<g clip-path="url(#clip1_13111_12283)">
<path d="M21.5393 36.5756L36.5761 21.5388C34.5676 19.2574 31.6717 17.9547 28.6321 17.9649C22.7438 17.9717 17.9721 22.7435 17.9654 28.6317C17.955 31.6712 19.2579 34.5671 21.5393 36.5756Z" fill="#407BFF"/>
<path d="M1.91692 62.5497L62.5493 1.91749C62.988 1.47911 62.9883 0.767978 62.5498 0.329223C62.1112 -0.109532 61.4002 -0.109782 60.9615 0.328723L0.329273 60.9609C-0.109107 61.3994 -0.109107 62.1102 0.329273 62.5486C0.773529 62.9725 1.47216 62.973 1.91692 62.5497Z" fill="#407BFF"/>
<path d="M29.209 10.3346H29.2516C29.8211 10.3161 30.2865 9.87399 30.334 9.30612L31.0076 1.22187C31.0337 0.908242 30.9271 0.598117 30.7136 0.366992C30.5001 0.135867 30.1995 0.00486656 29.8848 0.00586656H28.4982C28.1836 0.00474156 27.8828 0.135742 27.6695 0.366992C27.456 0.598117 27.3493 0.908367 27.3755 1.22187L28.0491 9.31174C28.1018 9.90712 28.6117 10.3567 29.209 10.3346Z" fill="#407BFF"/>
<path d="M1.21602 31.0073L9.26877 30.3337C9.85227 30.285 10.3004 29.7963 10.2984 29.2109V29.0987C10.3001 28.5108 9.84814 28.0212 9.26202 27.9759L1.20814 27.3607C0.895892 27.3369 0.587892 27.4445 0.358392 27.6578C0.129017 27.871 -0.000982656 28.1703 1.73441e-05 28.4835V29.8825C-0.00173266 30.1975 0.129017 30.4989 0.360267 30.7128C0.591517 30.9265 0.902017 31.0334 1.21602 31.0073Z" fill="#407BFF"/>
<path d="M18.2626 12.5402C18.6036 13.0312 19.2695 13.169 19.7772 12.8535L19.8131 12.831C20.2975 12.5302 20.4796 11.9141 20.2363 11.3982L16.7758 4.05621C16.6417 3.77371 16.3958 3.55996 16.0975 3.46646C15.7991 3.37296 15.4752 3.40796 15.2038 3.56334L14.0002 4.25834C13.7282 4.41521 13.5345 4.67884 13.4657 4.98521C13.397 5.29159 13.4597 5.61271 13.6386 5.87071L18.2626 12.5402Z" fill="#407BFF"/>
<path d="M12.7854 38.5627C12.4913 38.0542 11.8549 37.8584 11.3258 38.1136L4.04213 41.6054C3.76088 41.7408 3.54863 41.9872 3.45638 42.2854C3.36413 42.5837 3.40026 42.9068 3.55601 43.1775L4.25551 44.3889C4.41238 44.6609 4.67601 44.8547 4.98238 44.9234C5.28876 44.9922 5.60988 44.9295 5.86788 44.7506L12.507 40.1471C12.9861 39.8138 13.13 39.1692 12.8383 38.6638L12.7854 38.5627Z" fill="#407BFF"/>
<path d="M43.1881 3.56294C42.9162 3.40569 42.591 3.36957 42.2911 3.46319C41.9914 3.55682 41.7445 3.77182 41.6105 4.05582L38.15 11.3989C37.895 11.9396 38.1082 12.5852 38.635 12.8676L38.6731 12.8878C39.1755 13.1567 39.7997 13.0066 40.1249 12.5386L44.7531 5.87019C44.932 5.61219 44.9947 5.29107 44.926 4.98469C44.8572 4.67832 44.6635 4.41469 44.3915 4.25782L43.1881 3.56294Z" fill="#407BFF"/>
<path d="M12.5362 18.1806L5.87004 13.6209C5.61192 13.4442 5.29167 13.3834 4.98667 13.4529C4.68167 13.5224 4.41954 13.7159 4.26329 13.987L3.56379 15.1985C3.40854 15.4699 3.37342 15.7937 3.46692 16.0921C3.56042 16.3905 3.77417 16.6364 4.05667 16.7705L11.3673 20.2152C11.8942 20.4649 12.5243 20.2697 12.8179 19.7661L12.874 19.6685C13.1674 19.1602 13.0202 18.512 12.5362 18.1806Z" fill="#407BFF"/>
<path d="M61.1374 24.69L54.8946 26.363L58.2519 21.344C58.7229 20.6702 58.7935 19.7947 58.4366 19.0542C58.0797 18.3137 57.3509 17.8234 56.5305 17.772C55.71 17.7207 54.9257 18.1162 54.4793 18.8064L48.214 28.1483L36.3009 31.3371L31.3492 36.2888L28.1491 48.2131L18.8073 54.4785C18.0613 54.9736 17.6763 55.8611 17.8243 56.7441C17.9723 57.6271 18.6257 58.3406 19.4923 58.5655C20.1264 58.7295 20.8004 58.6151 21.3449 58.2511L26.364 54.8938L24.691 61.1367C24.4803 61.9209 24.7041 62.7579 25.278 63.3324C25.8519 63.907 26.6886 64.1317 27.4731 63.922C28.2576 63.7122 28.8706 63.0999 29.0811 62.3157L30.7542 56.0729L33.4152 61.4848C33.7023 62.0774 34.2366 62.5129 34.8748 62.6749C35.4052 62.8337 35.9765 62.7814 36.4692 62.5289C37.5921 61.9716 38.0536 60.6118 37.5022 59.4862L32.5394 49.392L35.4251 38.6354L43.2961 46.5064L44.0483 57.7346C44.1497 58.9753 45.2298 59.9038 46.4717 59.8177C47.7135 59.7315 48.6553 58.663 48.5845 57.4202L48.1802 51.4019L52.7502 55.9719C53.6401 56.8617 55.0828 56.8617 55.9727 55.9719C56.8626 55.082 56.8626 53.6392 55.9727 52.7493L51.4028 48.1794L57.4211 48.5837C58.6639 48.6544 59.7325 47.7126 59.8185 46.4709C59.9046 45.2291 58.9761 44.1488 57.7355 44.0475L46.5072 43.2952L38.6363 35.4242L49.3929 32.5386L59.487 37.5014C59.6188 37.5701 59.7581 37.623 59.9025 37.6586C61.034 37.958 62.2082 37.3505 62.6172 36.2539C63.0262 35.1572 62.5369 33.9291 61.4857 33.4145L56.0737 30.7534L62.3165 29.0804C63.1008 28.8698 63.7131 28.2568 63.9228 27.4724C64.1326 26.688 63.9078 25.8511 63.3333 25.2772C62.7587 24.7031 61.9217 24.4794 61.1374 24.69Z" fill="#407BFF"/>
</g>
</g>
<defs>
<clipPath id="clip0_13111_12283">
<rect width="64" height="64" fill="white"/>
</clipPath>
<clipPath id="clip1_13111_12283">
<rect width="64" height="64" fill="white"/>
</clipPath>
</defs>
</svg>
