<svg width="18" height="18" viewBox="0 0 18 18" fill="none" xmlns="http://www.w3.org/2000/svg">
<g clip-path="url(#clip0_13093_62075)">
<g clip-path="url(#clip1_13093_62075)">
<g clip-path="url(#clip2_13093_62075)">
<path fill-rule="evenodd" clip-rule="evenodd" d="M5.325 5.24971H3C2.60218 5.24971 2.22064 5.40775 1.93934 5.68905C1.65804 5.97036 1.5 6.35189 1.5 6.74971V14.2497C1.5 14.6475 1.65804 15.0291 1.93934 15.3104C2.22064 15.5917 2.60218 15.7497 3 15.7497H15C15.3978 15.7497 15.7794 15.5917 16.0607 15.3104C16.342 15.0291 16.5 14.6475 16.5 14.2497V6.74971C16.5 6.35189 16.342 5.97036 16.0607 5.68905C15.7794 5.40775 15.3978 5.24971 15 5.24971H12.675C12.5014 4.40323 12.0409 3.64263 11.3713 3.09644C10.7017 2.55025 9.8641 2.25195 9 2.25195C8.1359 2.25195 7.29829 2.55025 6.6287 3.09644C5.95912 3.64263 5.49861 4.40323 5.325 5.24971ZM6.8775 5.24971H11.1225C10.9675 4.81056 10.6802 4.43029 10.3001 4.1613C9.9199 3.89232 9.46568 3.74787 9 3.74787C8.53432 3.74787 8.0801 3.89232 7.69995 4.1613C7.3198 4.43029 7.03245 4.81056 6.8775 5.24971ZM15 8.99971V6.74971H3V8.99971H6.8775C7.03245 8.56056 7.3198 8.18029 7.69995 7.9113C8.0801 7.64232 8.53432 7.49787 9 7.49787C9.46568 7.49787 9.9199 7.64232 10.3001 7.9113C10.6802 8.18029 10.9675 8.56056 11.1225 8.99971H15ZM11.25 10.4997H15V14.2497H3V10.4997H6.75C6.75 11.0964 6.98705 11.6687 7.40901 12.0907C7.83097 12.5127 8.40326 12.7497 9 12.7497C9.59674 12.7497 10.169 12.5127 10.591 12.0907C11.0129 11.6687 11.25 11.0964 11.25 10.4997ZM9 8.99971C8.80109 8.99971 8.61032 9.07873 8.46967 9.21938C8.32902 9.36003 8.25 9.5508 8.25 9.74971V10.4997C8.25 10.6986 8.32902 10.8894 8.46967 11.03C8.61032 11.1707 8.80109 11.2497 9 11.2497C9.19891 11.2497 9.38968 11.1707 9.53033 11.03C9.67098 10.8894 9.75 10.6986 9.75 10.4997V9.74971C9.75 9.5508 9.67098 9.36003 9.53033 9.21938C9.38968 9.07873 9.19891 8.99971 9 8.99971Z" fill="#407BFF"/>
</g>
</g>
</g>
<defs>
<clipPath id="clip0_13093_62075">
<rect width="18" height="18" fill="white"/>
</clipPath>
<clipPath id="clip1_13093_62075">
<rect width="18" height="18" fill="white"/>
</clipPath>
<clipPath id="clip2_13093_62075">
<rect width="18" height="18" fill="white"/>
</clipPath>
</defs>
</svg>
