<svg width="64" height="64" viewBox="0 0 64 64" fill="none" xmlns="http://www.w3.org/2000/svg">
<g clip-path="url(#clip0_13111_12285)">
<path d="M47.9986 21.1538C53.0479 21.1538 57.1412 17.09 57.1412 12.0769C57.1412 7.06388 53.0479 3 47.9986 3C42.9492 3 38.856 7.06388 38.856 12.0769C38.856 17.09 42.9492 21.1538 47.9986 21.1538Z" fill="#407BFF"/>
<path d="M18.2852 25.6921C18.2836 24.931 18.3524 24.1714 18.4909 23.4229H11.4283C8.39729 23.4229 5.49047 24.6182 3.34726 26.7461C1.20404 28.8739 0 31.7598 0 34.769V46.1152C0 46.717 0.240809 47.2942 0.669451 47.7197C1.09809 48.1453 1.67946 48.3844 2.28565 48.3844H11.4283C11.4307 45.2958 12.3401 42.2749 14.0451 39.6914C15.7501 37.108 18.1767 35.0741 21.028 33.8386C19.2523 31.4881 18.2901 28.6303 18.2852 25.6921Z" fill="#407BFF"/>
<path d="M52.5699 23.4229H45.5073C45.6458 24.1714 45.7146 24.931 45.713 25.6921C45.7081 28.6303 44.7459 31.4881 42.9702 33.8386C45.8215 35.0741 48.2481 37.108 49.9531 39.6914C51.6581 42.2749 52.5675 45.2958 52.5699 48.3844H61.7126C62.3187 48.3844 62.9001 48.1453 63.3288 47.7197C63.7574 47.2942 63.9982 46.717 63.9982 46.1152V34.769C63.9982 31.7598 62.7942 28.8739 60.6509 26.7461C58.5077 24.6182 55.6009 23.4229 52.5699 23.4229Z" fill="#407BFF"/>
<path d="M15.9995 21.1538C21.0489 21.1538 25.1421 17.09 25.1421 12.0769C25.1421 7.06388 21.0489 3 15.9995 3C10.9502 3 6.85693 7.06388 6.85693 12.0769C6.85693 17.09 10.9502 21.1538 15.9995 21.1538Z" fill="#407BFF"/>
<path d="M31.999 34.7691C37.0484 34.7691 41.1416 30.7052 41.1416 25.6922C41.1416 20.6791 37.0484 16.6152 31.999 16.6152C26.9497 16.6152 22.8564 20.6791 22.8564 25.6922C22.8564 30.7052 26.9497 34.7691 31.999 34.7691Z" fill="#407BFF"/>
<path d="M36.5704 37.0381H27.4278C24.3968 37.0381 21.49 38.2335 19.3468 40.3613C17.2036 42.4891 15.9995 45.3751 15.9995 48.3842V59.7304C15.9995 60.3322 16.2403 60.9094 16.669 61.335C17.0976 61.7605 17.679 61.9996 18.2852 61.9996H45.713C46.3192 61.9996 46.9005 61.7605 47.3292 61.335C47.7578 60.9094 47.9986 60.3322 47.9986 59.7304V48.3842C47.9986 46.8942 47.703 45.4188 47.1287 44.0423C46.5544 42.6657 45.7126 41.4149 44.6514 40.3613C43.5901 39.3077 42.3303 38.472 40.9438 37.9018C39.5572 37.3316 38.0711 37.0381 36.5704 37.0381Z" fill="#407BFF"/>
</g>
<defs>
<clipPath id="clip0_13111_12285">
<rect width="64" height="59" fill="white" transform="translate(0 3)"/>
</clipPath>
</defs>
</svg>
