<svg width="64" height="64" viewBox="0 0 64 64" fill="none" xmlns="http://www.w3.org/2000/svg">
<g clip-path="url(#clip0_13111_12284)">
<path d="M49.668 13.8267V5.12381L58.8757 14.3315H50.1729C49.8902 14.3315 49.668 14.1094 49.668 13.8267ZM50.1729 17.3604C48.2344 17.3604 46.6392 15.7652 46.6392 13.8267V4.23535H21.9036C18.8344 4.23535 16.3507 6.71901 16.3507 9.78824V18.693C18.7132 17.845 21.2575 17.3604 23.9229 17.3604C36.4421 17.3604 46.6392 27.5575 46.6392 40.0767C46.6392 48.4969 42.0354 55.8469 35.2104 59.7642H54.2113C57.2805 59.7642 59.7642 57.2805 59.7642 54.2113V17.3604H50.1729ZM43.6104 40.0767C43.6104 50.9402 34.7863 59.7642 23.9229 59.7642C13.0594 59.7642 4.23535 50.9402 4.23535 40.0767C4.23535 29.2132 13.0594 20.3892 23.9229 20.3892C34.7863 20.3892 43.6104 29.2132 43.6104 40.0767ZM13.8267 41.5911C14.6546 41.5911 15.3411 40.9046 15.3411 40.0767C15.3411 35.3517 19.1979 31.495 23.9229 31.495C25.3565 31.495 26.7094 31.8584 27.9209 32.5046C27.093 32.5248 26.4469 33.1911 26.4469 34.019C26.4469 34.8469 27.1334 35.5334 27.9613 35.5334H31.9998C32.8277 35.5334 33.5142 34.8469 33.5142 34.019V29.9805C33.5142 29.1527 32.8277 28.4661 31.9998 28.4661C31.1719 28.4661 30.4854 29.1527 30.4854 29.9805V30.5055C28.5873 29.193 26.3257 28.4661 23.9229 28.4661C17.5219 28.4661 12.3123 33.6757 12.3123 40.0767C12.3123 40.9046 12.9988 41.5911 13.8267 41.5911ZM35.5334 40.0767C35.5334 39.2488 34.8469 38.5623 34.019 38.5623C33.1911 38.5623 32.5046 39.2488 32.5046 40.0767C32.5046 44.8017 28.6479 48.6584 23.9229 48.6584C22.4892 48.6584 21.1161 48.295 19.8844 47.6488C20.7123 47.6488 21.3988 46.9623 21.3988 46.1344C21.3988 45.3065 20.7123 44.62 19.8844 44.62H15.8459C15.018 44.62 14.3315 45.3065 14.3315 46.1344V50.1729C14.3315 51.0007 15.018 51.6873 15.8459 51.6873C16.6738 51.6873 17.3604 51.0007 17.3604 50.1729V49.6479C19.2584 50.9604 21.52 51.6873 23.9229 51.6873C30.3238 51.6873 35.5334 46.4777 35.5334 40.0767Z" fill="#407BFF"/>
</g>
<defs>
<clipPath id="clip0_13111_12284">
<rect width="56" height="56" fill="white" transform="translate(4 4)"/>
</clipPath>
</defs>
</svg>
