<svg width="64" height="64" viewBox="0 0 64 64" fill="none" xmlns="http://www.w3.org/2000/svg">
<g clip-path="url(#clip0_13111_10378)">
<path d="M52.5416 0.55957H11.4583C9.31803 0.55957 7.2654 1.40696 5.752 2.91531C4.23859 4.42367 3.38837 6.46944 3.38837 8.60258V55.3983C3.38837 57.5314 4.23859 59.5772 5.752 61.0855C7.2654 62.5939 9.31803 63.4413 11.4583 63.4413H52.5416C54.6819 63.4413 56.7345 62.5939 58.248 61.0855C59.7614 59.5772 60.6116 57.5314 60.6116 55.3983V8.60258C60.6116 6.46944 59.7614 4.42367 58.248 2.91531C56.7345 1.40696 54.6819 0.55957 52.5416 0.55957ZM27.6862 45.9806L20.2619 53.2925C19.8492 53.7033 19.2898 53.934 18.7066 53.934C18.1233 53.934 17.564 53.7033 17.1513 53.2925L12.7495 48.9054C12.3607 48.4896 12.1491 47.9396 12.1591 47.3713C12.1692 46.803 12.4002 46.2608 12.8034 45.8589C13.2067 45.457 13.7507 45.2268 14.3209 45.2168C14.8911 45.2068 15.4429 45.4177 15.8601 45.8052L18.7946 48.7299L24.6637 42.8804C24.8652 42.6649 25.1081 42.4921 25.3781 42.3722C25.6481 42.2523 25.9395 42.1878 26.235 42.1826C26.5306 42.1774 26.8241 42.2316 27.0981 42.3419C27.3722 42.4522 27.6211 42.6165 27.8301 42.8247C28.0391 43.033 28.2039 43.2812 28.3146 43.5543C28.4253 43.8274 28.4796 44.12 28.4744 44.4145C28.4692 44.709 28.4045 44.9995 28.2842 45.2686C28.1639 45.5377 27.9905 45.7798 27.7743 45.9806H27.6862ZM27.6862 29.8946L20.2619 37.2065C19.8492 37.6172 19.2898 37.848 18.7066 37.848C18.1233 37.848 17.564 37.6172 17.1513 37.2065L12.7495 32.8194C12.3607 32.4035 12.1491 31.8535 12.1591 31.2853C12.1692 30.717 12.4002 30.1748 12.8034 29.7729C13.2067 29.371 13.7507 29.1408 14.3209 29.1308C14.8911 29.1207 15.4429 29.3317 15.8601 29.7191L18.7946 32.6439L24.6637 26.7944C25.0809 26.4069 25.6327 26.196 26.2029 26.206C26.7731 26.2161 27.3171 26.4463 27.7203 26.8482C28.1236 27.2501 28.3546 27.7923 28.3646 28.3605C28.3747 28.9288 28.163 29.4788 27.7743 29.8946H27.6862ZM27.6862 13.8086L20.2619 21.1204C19.8584 21.4801 19.336 21.679 18.7946 21.679C18.2532 21.679 17.7309 21.4801 17.3274 21.1204L12.9256 16.7333C12.6208 16.3152 12.4739 15.8032 12.5109 15.2876C12.5479 14.7721 12.7663 14.2861 13.1277 13.9154C13.4891 13.5447 13.9703 13.3131 14.4863 13.2615C15.0023 13.2098 15.52 13.3414 15.9481 13.6331L18.8827 16.5578L24.7517 10.7084C25.1689 10.3209 25.7207 10.11 26.2909 10.12C26.8611 10.13 27.4051 10.3602 27.8084 10.7621C28.2116 11.164 28.4426 11.7062 28.4526 12.2745C28.4627 12.8428 28.2511 13.3928 27.8623 13.8086H27.6862ZM49.6071 51.0112H34.9345C34.3508 51.0112 33.791 50.7801 33.3782 50.3687C32.9655 49.9573 32.7336 49.3994 32.7336 48.8176C32.7336 48.2359 32.9655 47.6779 33.3782 47.2666C33.791 46.8552 34.3508 46.6241 34.9345 46.6241H49.6071C50.1908 46.6241 50.7506 46.8552 51.1634 47.2666C51.5761 47.6779 51.808 48.2359 51.808 48.8176C51.808 49.3994 51.5761 49.9573 51.1634 50.3687C50.7506 50.7801 50.1908 51.0112 49.6071 51.0112ZM49.6071 34.9252H34.9345C34.3508 34.9252 33.791 34.6941 33.3782 34.2827C32.9655 33.8713 32.7336 33.3134 32.7336 32.7316C32.7336 32.1498 32.9655 31.5919 33.3782 31.1805C33.791 30.7692 34.3508 30.5381 34.9345 30.5381H49.6071C50.1908 30.5381 50.7506 30.7692 51.1634 31.1805C51.5761 31.5919 51.808 32.1498 51.808 32.7316C51.808 33.3134 51.5761 33.8713 51.1634 34.2827C50.7506 34.6941 50.1908 34.9252 49.6071 34.9252ZM49.6071 18.8391H34.9345C34.3508 18.8391 33.791 18.608 33.3782 18.1967C32.9655 17.7853 32.7336 17.2274 32.7336 16.6456C32.7336 16.0638 32.9655 15.5059 33.3782 15.0945C33.791 14.6831 34.3508 14.452 34.9345 14.452H49.6071C50.1908 14.452 50.7506 14.6831 51.1634 15.0945C51.5761 15.5059 51.808 16.0638 51.808 16.6456C51.808 17.2274 51.5761 17.7853 51.1634 18.1967C50.7506 18.608 50.1908 18.8391 49.6071 18.8391Z" fill="#407BFF"/>
</g>
<defs>
<clipPath id="clip0_13111_10378">
<rect width="58" height="64" fill="white" transform="translate(3)"/>
</clipPath>
</defs>
</svg>
