<svg width="20" height="18" viewBox="0 0 20 18" fill="none" xmlns="http://www.w3.org/2000/svg">
<path fill-rule="evenodd" clip-rule="evenodd" d="M5.1 3.99701H2C1.46957 3.99701 0.960859 4.20772 0.585786 4.5828C0.210714 4.95787 0 5.46658 0 5.99701V15.997C0 16.5274 0.210714 17.0362 0.585786 17.4112C0.960859 17.7863 1.46957 17.997 2 17.997H18C18.5304 17.997 19.0391 17.7863 19.4142 17.4112C19.7893 17.0362 20 16.5274 20 15.997V5.99701C20 5.46658 19.7893 4.95787 19.4142 4.5828C19.0391 4.20772 18.5304 3.99701 18 3.99701H14.9C14.6685 2.86837 14.0545 1.85424 13.1617 1.12599C12.2689 0.397731 11.1521 0 10 0C8.84787 0 7.73105 0.397731 6.83827 1.12599C5.94549 1.85424 5.33148 2.86837 5.1 3.99701ZM7.17 3.99701H12.83C12.6234 3.41148 12.2403 2.90444 11.7334 2.5458C11.2265 2.18716 10.6209 1.99456 10 1.99456C9.37909 1.99456 8.77346 2.18716 8.2666 2.5458C7.75974 2.90444 7.3766 3.41148 7.17 3.99701ZM18 8.99701V5.99701H2V8.99701H7.17C7.3766 8.41148 7.75974 7.90444 8.2666 7.5458C8.77346 7.18716 9.37909 6.99456 10 6.99456C10.6209 6.99456 11.2265 7.18716 11.7334 7.5458C12.2403 7.90444 12.6234 8.41148 12.83 8.99701H18ZM13 10.997H18V15.997H2V10.997H7C7 11.7927 7.31607 12.5557 7.87868 13.1183C8.44129 13.6809 9.20435 13.997 10 13.997C10.7956 13.997 11.5587 13.6809 12.1213 13.1183C12.6839 12.5557 13 11.7927 13 10.997ZM10 8.99701C9.73478 8.99701 9.48043 9.10237 9.29289 9.2899C9.10536 9.47744 9 9.73179 9 9.99701V10.997C9 11.2622 9.10536 11.5166 9.29289 11.7041C9.48043 11.8917 9.73478 11.997 10 11.997C10.2652 11.997 10.5196 11.8917 10.7071 11.7041C10.8946 11.5166 11 11.2622 11 10.997V9.99701C11 9.73179 10.8946 9.47744 10.7071 9.2899C10.5196 9.10237 10.2652 8.99701 10 8.99701Z" fill="#407BFF"/>
</svg>
