<svg width="20" height="17" viewBox="0 0 20 17" fill="none" xmlns="http://www.w3.org/2000/svg">
<path d="M13.84 2.41054e-09C14.3347 -1.98282e-05 14.8218 0.122315 15.2578 0.356111C15.6938 0.589906 16.0652 0.927903 16.339 1.34L16.444 1.512L18.438 5H19.6C19.6922 4.99998 19.7816 5.03182 19.853 5.09014C19.9245 5.14845 19.9736 5.22965 19.992 5.32L20 5.4V5.875C20.0001 6.03482 19.9524 6.19101 19.8629 6.32344C19.7734 6.45587 19.6463 6.55847 19.498 6.618L19.37 6.658C19.7447 7.4362 19.9115 8.29819 19.854 9.16L19.827 9.447L19.102 15.248C19.045 15.7048 18.8321 16.128 18.4992 16.4461C18.1664 16.7642 17.734 16.9577 17.275 16.994L17.117 17H16C15.4954 17.0002 15.0094 16.8096 14.6395 16.4665C14.2695 16.1234 14.0428 15.6532 14.005 15.15L14 15H6C6.00016 15.5046 5.80959 15.9906 5.4665 16.3605C5.12341 16.7305 4.65316 16.9572 4.15 16.995L4 17H2.883C2.4225 17.0003 1.97601 16.8416 1.61892 16.5509C1.26183 16.2601 1.01602 15.855 0.923 15.404L0.898 15.248L0.173 9.448C0.0658684 8.59011 0.183014 7.7191 0.513 6.92L0.63 6.657L0.606 6.652C0.450823 6.61329 0.310811 6.52895 0.204038 6.40988C0.0972655 6.29081 0.0286328 6.14246 0.00699998 5.984L8.33825e-09 5.875V5.4C-1.88121e-05 5.30779 0.0318227 5.2184 0.0901356 5.14697C0.148448 5.07553 0.229651 5.02644 0.32 5.008L0.4 5H1.563L3.556 1.512C3.8015 1.08233 4.14947 0.720055 4.56891 0.457466C4.98836 0.194876 5.46625 0.0401247 5.96 0.00699997L6.16 2.41054e-09H13.84ZM17.76 8.036C17.2429 8.60266 16.5257 8.94588 15.76 8.993L15.554 9H4.446C4.03145 9.00269 3.62096 8.91826 3.24111 8.7522C2.86127 8.58613 2.52054 8.34213 2.241 8.036C2.15844 8.33806 2.12369 8.65119 2.138 8.964L2.158 9.199L2.883 15H4V14C4.00003 13.7551 4.08996 13.5187 4.25272 13.3356C4.41547 13.1526 4.63975 13.0357 4.883 13.007L5 13H15C15.2449 13 15.4813 13.09 15.6644 13.2527C15.8474 13.4155 15.9643 13.6397 15.993 13.883L16 14V15H17.117L17.842 9.199C17.892 8.807 17.863 8.412 17.76 8.036ZM3.737 9.898L6.48 11.38C6.853 11.582 6.698 12.149 6.274 12.132L3.96 12.039C3.70195 12.0287 3.4579 11.9189 3.27896 11.7327C3.10001 11.5465 3.00005 11.2983 3 11.04V10.34C2.99995 10.2534 3.02241 10.1682 3.06518 10.0929C3.10794 10.0176 3.16955 9.95462 3.24395 9.91026C3.31836 9.8659 3.40301 9.84163 3.48962 9.83983C3.57623 9.83803 3.66182 9.85877 3.738 9.9L3.737 9.898ZM16.999 10.338V11.039C16.9992 11.2974 16.8994 11.5459 16.7204 11.7323C16.5414 11.9188 16.2972 12.0287 16.039 12.039L13.725 12.131C13.301 12.148 13.145 11.581 13.519 11.379L16.261 9.899C16.3372 9.85777 16.4228 9.83703 16.5094 9.83883C16.596 9.84063 16.6806 9.8649 16.755 9.90926C16.8295 9.95362 16.8911 10.0166 16.9338 10.0919C16.9766 10.1672 16.999 10.2514 16.999 10.338ZM13.84 2H6.16C5.98374 2.00006 5.81062 2.0467 5.65819 2.13521C5.50576 2.22372 5.37943 2.35095 5.292 2.504L3.578 5.504C3.49114 5.65606 3.44574 5.82826 3.44633 6.00338C3.44692 6.1785 3.49349 6.35039 3.58137 6.50186C3.66926 6.65333 3.79538 6.77906 3.94711 6.86648C4.09885 6.9539 4.27088 6.99994 4.446 7H15.554C15.7291 6.99994 15.9012 6.9539 16.0529 6.86648C16.2046 6.77906 16.3307 6.65333 16.4186 6.50186C16.5065 6.35039 16.5531 6.1785 16.5537 6.00338C16.5543 5.82826 16.5089 5.65606 16.422 5.504L14.708 2.504C14.6205 2.3508 14.494 2.22348 14.3414 2.13496C14.1888 2.04644 14.0154 1.99988 13.839 2H13.84Z" fill="#407BFF"/>
</svg>
