<svg width="19" height="16" viewBox="0 0 19 16" fill="none" xmlns="http://www.w3.org/2000/svg">
<path d="M8.77882 0.371777C8.86142 0.473982 8.92307 0.591466 8.96024 0.717512C8.99741 0.843558 9.00937 0.975694 8.99544 1.10637C8.98151 1.23704 8.94196 1.36368 8.87905 1.47906C8.81615 1.59444 8.73112 1.69628 8.62882 1.77878C8.06982 2.23078 7.70482 2.66478 7.46582 3.05478C7.8311 3.1421 8.1644 3.3305 8.42759 3.59842C8.69077 3.86634 8.87321 4.20296 8.954 4.56973C9.03479 4.9365 9.01068 5.31861 8.88442 5.67232C8.75816 6.02603 8.53487 6.33704 8.24009 6.56975C7.94531 6.80246 7.59097 6.94748 7.21761 6.98819C6.84426 7.02889 6.46699 6.96366 6.12898 6.79994C5.79098 6.63623 5.5059 6.38065 5.30639 6.06246C5.10687 5.74428 5.00097 5.37634 5.00082 5.00078L5.00682 4.84678C4.9748 4.20283 5.07415 3.5591 5.29882 2.95478C5.62482 2.07078 6.25482 1.12578 7.37182 0.222777C7.47403 0.140174 7.59151 0.0785249 7.71756 0.0413556C7.8436 0.00418628 7.97574 -0.00777493 8.10641 0.00615597C8.23708 0.0200869 8.36373 0.0596369 8.4791 0.122544C8.59448 0.185452 8.69633 0.270483 8.77882 0.372777V0.371777ZM2.46582 3.05478C2.70482 2.66478 3.06982 2.23078 3.62982 1.77878C3.73199 1.69611 3.81688 1.59413 3.87963 1.47866C3.94239 1.36318 3.98178 1.23648 3.99557 1.10578C4.00936 0.975084 3.99728 0.842949 3.96 0.716922C3.92272 0.590896 3.86099 0.473445 3.77832 0.371277C3.69565 0.269108 3.59367 0.184223 3.4782 0.121467C3.36273 0.0587111 3.23603 0.0193137 3.10533 0.00552416C2.97463 -0.00826534 2.84249 0.00382277 2.71647 0.0410991C2.59044 0.0783754 2.47299 0.14011 2.37082 0.222777C1.25382 1.12578 0.623821 2.07078 0.297821 2.95478C0.0732802 3.55914 -0.0260644 4.20284 0.0058215 4.84678L0.000821384 5.00078C0.000972971 5.37634 0.106869 5.74428 0.306386 6.06246C0.505904 6.38065 0.790981 6.63623 1.12898 6.79994C1.46699 6.96366 1.84426 7.02889 2.21761 6.98819C2.59097 6.94748 2.94531 6.80246 3.24009 6.56975C3.53487 6.33704 3.75816 6.02603 3.88442 5.67232C4.01068 5.31861 4.03479 4.9365 3.954 4.56973C3.8732 4.20296 3.69077 3.86634 3.42759 3.59842C3.1644 3.3305 2.8311 3.1421 2.46582 3.05478ZM10.5008 6.00078C10.5008 5.60295 10.6589 5.22142 10.9402 4.94012C11.2215 4.65881 11.603 4.50078 12.0008 4.50078H17.0008C17.3986 4.50078 17.7802 4.65881 18.0615 4.94012C18.3428 5.22142 18.5008 5.60295 18.5008 6.00078C18.5008 6.3986 18.3428 6.78013 18.0615 7.06144C17.7802 7.34274 17.3986 7.50078 17.0008 7.50078H12.0008C11.603 7.50078 11.2215 7.34274 10.9402 7.06144C10.6589 6.78013 10.5008 6.3986 10.5008 6.00078ZM10.5008 2.00078C10.5008 1.60295 10.6589 1.22142 10.9402 0.940116C11.2215 0.658812 11.603 0.500777 12.0008 0.500777H17.0008C17.3986 0.500777 17.7802 0.658812 18.0615 0.940116C18.3428 1.22142 18.5008 1.60295 18.5008 2.00078C18.5008 2.3986 18.3428 2.78013 18.0615 3.06144C17.7802 3.34274 17.3986 3.50078 17.0008 3.50078H12.0008C11.603 3.50078 11.2215 3.34274 10.9402 3.06144C10.6589 2.78013 10.5008 2.3986 10.5008 2.00078ZM0.500821 10.0008C0.500821 9.60295 0.658857 9.22142 0.940161 8.94012C1.22147 8.65881 1.603 8.50078 2.00082 8.50078H17.0008C17.3986 8.50078 17.7802 8.65881 18.0615 8.94012C18.3428 9.22142 18.5008 9.60295 18.5008 10.0008C18.5008 10.3986 18.3428 10.7801 18.0615 11.0614C17.7802 11.3427 17.3986 11.5008 17.0008 11.5008H2.00082C1.603 11.5008 1.22147 11.3427 0.940161 11.0614C0.658857 10.7801 0.500821 10.3986 0.500821 10.0008ZM2.00082 12.5008C1.603 12.5008 1.22147 12.6588 0.940161 12.9401C0.658857 13.2214 0.500821 13.603 0.500821 14.0008C0.500821 14.3986 0.658857 14.7801 0.940161 15.0614C1.22147 15.3427 1.603 15.5008 2.00082 15.5008H17.0008C17.3986 15.5008 17.7802 15.3427 18.0615 15.0614C18.3428 14.7801 18.5008 14.3986 18.5008 14.0008C18.5008 13.603 18.3428 13.2214 18.0615 12.9401C17.7802 12.6588 17.3986 12.5008 17.0008 12.5008H2.00082Z" fill="url(#paint0_linear_13093_67649)"/>
<defs>
<linearGradient id="paint0_linear_13093_67649" x1="1.18312e-07" y1="17.5153" x2="18.2275" y2="-6.24461" gradientUnits="userSpaceOnUse">
<stop stop-color="#0090FF"/>
<stop offset="1" stop-color="#1346C5"/>
</linearGradient>
</defs>
</svg>
