<svg width="24" height="24" viewBox="0 0 24 24" fill="none" xmlns="http://www.w3.org/2000/svg">
<rect x="1" y="1" width="22" height="22" rx="4" stroke="url(#paint0_linear_13093_67664)" stroke-width="2"/>
<path d="M8.72789 13.364C9.48101 13.364 10.0915 12.7535 10.0915 12.0004C10.0915 11.2472 9.48101 10.6367 8.72789 10.6367C7.97478 10.6367 7.36426 11.2472 7.36426 12.0004C7.36426 12.7535 7.97478 13.364 8.72789 13.364Z" fill="url(#paint1_linear_13093_67664)"/>
<path d="M15.2728 13.364C16.0259 13.364 16.6365 12.7535 16.6365 12.0004C16.6365 11.2472 16.0259 10.6367 15.2728 10.6367C14.5197 10.6367 13.9092 11.2472 13.9092 12.0004C13.9092 12.7535 14.5197 13.364 15.2728 13.364Z" fill="url(#paint2_linear_13093_67664)"/>
<path fill-rule="evenodd" clip-rule="evenodd" d="M12 3C7.03309 3 3 7.03309 3 12C3 16.9669 7.03309 21 12 21C16.9669 21 21 16.9669 21 12C21 7.03309 16.9669 3 12 3ZM12 4.63636C16.0636 4.63636 19.3636 7.93636 19.3636 12C19.3636 16.0636 16.0636 19.3636 12 19.3636C7.93636 19.3636 4.63636 16.0636 4.63636 12C4.63636 7.93636 7.93636 4.63636 12 4.63636Z" fill="url(#paint3_linear_13093_67664)"/>
<path fill-rule="evenodd" clip-rule="evenodd" d="M12.818 20.1821V18.5457C12.818 18.0941 12.4515 17.7275 11.9998 17.7275C11.5482 17.7275 11.1816 18.0941 11.1816 18.5457V20.1821C11.1816 20.6337 11.5482 21.0003 11.9998 21.0003C12.4515 21.0003 12.818 20.6337 12.818 20.1821Z" fill="url(#paint4_linear_13093_67664)"/>
<path fill-rule="evenodd" clip-rule="evenodd" d="M12.818 5.45454V3.81818C12.818 3.36655 12.4515 3 11.9998 3C11.5482 3 11.1816 3.36655 11.1816 3.81818V5.45454C11.1816 5.90618 11.5482 6.27273 11.9998 6.27273C12.4515 6.27273 12.818 5.90618 12.818 5.45454Z" fill="url(#paint5_linear_13093_67664)"/>
<defs>
<linearGradient id="paint0_linear_13093_67664" x1="1.53479e-07" y1="27.1192" x2="29.1059" y2="-4.6688" gradientUnits="userSpaceOnUse">
<stop stop-color="#0090FF"/>
<stop offset="1" stop-color="#1346C5"/>
</linearGradient>
<linearGradient id="paint1_linear_13093_67664" x1="7.36426" y1="13.7184" x2="10.6717" y2="10.1062" gradientUnits="userSpaceOnUse">
<stop stop-color="#0090FF"/>
<stop offset="1" stop-color="#1346C5"/>
</linearGradient>
<linearGradient id="paint2_linear_13093_67664" x1="13.9092" y1="13.7184" x2="17.2167" y2="10.1062" gradientUnits="userSpaceOnUse">
<stop stop-color="#0090FF"/>
<stop offset="1" stop-color="#1346C5"/>
</linearGradient>
<linearGradient id="paint3_linear_13093_67664" x1="3" y1="23.3394" x2="24.8294" y2="-0.501599" gradientUnits="userSpaceOnUse">
<stop stop-color="#0090FF"/>
<stop offset="1" stop-color="#1346C5"/>
</linearGradient>
<linearGradient id="paint4_linear_13093_67664" x1="11.1816" y1="21.4256" x2="14.5337" y2="19.5952" gradientUnits="userSpaceOnUse">
<stop stop-color="#0090FF"/>
<stop offset="1" stop-color="#1346C5"/>
</linearGradient>
<linearGradient id="paint5_linear_13093_67664" x1="11.1816" y1="6.69807" x2="14.5337" y2="4.86762" gradientUnits="userSpaceOnUse">
<stop stop-color="#0090FF"/>
<stop offset="1" stop-color="#1346C5"/>
</linearGradient>
</defs>
</svg>
