<svg width="32" height="32" viewBox="0 0 32 32" fill="none" xmlns="http://www.w3.org/2000/svg">
<g clip-path="url(#clip0_12914_9821)">
<path fill-rule="evenodd" clip-rule="evenodd" d="M9.33333 4C7.91885 4 6.56229 4.5619 5.5621 5.5621C4.5619 6.56229 4 7.91885 4 9.33333V22.6667C4 24.0812 4.5619 25.4377 5.5621 26.4379C6.56229 27.4381 7.91885 28 9.33333 28H22.6667C24.0812 28 25.4377 27.4381 26.4379 26.4379C27.4381 25.4377 28 24.0812 28 22.6667V9.33333C28 7.91885 27.4381 6.56229 26.4379 5.5621C25.4377 4.5619 24.0812 4 22.6667 4H9.33333ZM23.1093 13.4067C23.3056 13.1125 23.3769 12.7523 23.3077 12.4055C23.2384 12.0587 23.0342 11.7536 22.74 11.5573C22.4458 11.3611 22.0857 11.2897 21.7388 11.359C21.392 11.4283 21.0869 11.6325 20.8907 11.9267C20.4187 12.5533 19.924 13.1533 19.3453 13.6867C18.6747 14.3053 17.996 14.7693 17.3347 15.044L17.324 12.5107C17.2858 12.1863 17.1299 11.8873 16.8858 11.6703C16.6418 11.4533 16.3266 11.3334 16 11.3333C15.2773 11.3747 14.6667 11.908 14.6667 12.6667V18.4973C12.0693 17.7773 10.6667 15.2573 10.6667 12.6667C10.6667 12.313 10.5262 11.9739 10.2761 11.7239C10.0261 11.4738 9.68696 11.3333 9.33333 11.3333C8.97971 11.3333 8.64057 11.4738 8.39052 11.7239C8.14048 11.9739 8 12.313 8 12.6667C8 17.5093 11.3467 21.3333 16 21.3333C16.3536 21.3333 16.6928 21.1929 16.9428 20.9428C17.1929 20.6928 17.3333 20.3536 17.3333 20V17.916C19.1093 18.0573 20.832 19.312 21.4747 20.596C21.5496 20.7581 21.6562 20.9035 21.7884 21.0236C21.9205 21.1437 22.0755 21.236 22.244 21.2951C22.4125 21.3542 22.5911 21.3788 22.7693 21.3675C22.9475 21.3562 23.1217 21.3093 23.2814 21.2294C23.4411 21.1496 23.5831 21.0384 23.6991 20.9026C23.815 20.7669 23.9025 20.6091 23.9564 20.4389C24.0102 20.2686 24.0293 20.0893 24.0125 19.9115C23.9957 19.7338 23.9434 19.5612 23.8587 19.404C23.2213 18.128 22.032 16.9347 20.568 16.156C20.7653 15.9947 20.9613 15.824 21.1547 15.6467C21.8893 14.9767 22.5451 14.2252 23.1093 13.4067Z" fill="#407BFF"/>
</g>
<defs>
<clipPath id="clip0_12914_9821">
<rect width="32" height="32" fill="white"/>
</clipPath>
</defs>
</svg>
