<?xml version="1.0" encoding="utf-8"?>

<svg xmlns="http://www.w3.org/2000/svg" xmlns:xlink="http://www.w3.org/1999/xlink">

<symbol fill="none" viewBox="0 0 16 16" id="cart_icon" xmlns="http://www.w3.org/2000/svg"><path d="M9.117 1.407a.25.25 0 00-.158.435l3.12 2.909h.734L9.298 1.476a.25.25 0 00-.18-.07zm-2.364.09a.25.25 0 00-.173.07L3.183 4.751h.733L6.92 1.933a.25.25 0 00-.168-.436zM1.226 5.25A.25.25 0 001 5.5V7a.25.25 0 00.25.25h13.5A.25.25 0 0015 7V5.5a.25.25 0 00-.25-.249H1.226zm.625 2.498l.9 6.535A.25.25 0 003 14.5H13a.25.25 0 00.247-.216l.902-6.535H1.851zm3.141.497a.25.25 0 01.257.225l.5 4.25a.25.25 0 11-.496.057l-.5-4.25a.25.25 0 01.24-.282zm3.005 0a.25.25 0 01.252.254v4.251a.25.25 0 11-.5 0v-4.25a.25.25 0 01.248-.255zm3.005 0a.25.25 0 01.247.282l-.5 4.25a.25.25 0 11-.497-.057l.5-4.25a.25.25 0 01.25-.225z" fill="#4B4E53"/></symbol>

<symbol fill="none" viewBox="0 0 16 16" id="email_icon" xmlns="http://www.w3.org/2000/svg"><path d="M4.5 8.175l-1-.765V1.5A.5.5 0 014 1h8a.5.5 0 01.5.5v5.91l-1 .765V2h-7v6.175zm3.805 3.72a.5.5 0 01-.61 0L1 6.745V13.5A1.5 1.5 0 002.5 15h11a1.5 1.5 0 001.5-1.5V6.745l-6.695 5.15zM13.5 5.1v1.54l1-.77-1-.77zm-11 0l-1 .77 1 .77V5.1zM10 3.5H6a.5.5 0 100 1h4a.5.5 0 100-1zM10 6H6a.5.5 0 100 1h4a.5.5 0 100-1z" fill="#fff"/></symbol>

<symbol fill="none" viewBox="0 0 16 16" id="phone_icon" xmlns="http://www.w3.org/2000/svg"><path d="M15 11.755V13.5a1.5 1.5 0 01-1.5 1.5h-1a11.41 11.41 0 01-8.13-3.37A11.408 11.408 0 011 3.5v-1A1.5 1.5 0 012.5 1h1.745a1.5 1.5 0 011.444 1.09l.63 2.205a1.5 1.5 0 01-.38 1.475L4.746 6.965a8.565 8.565 0 004.29 4.29l1.194-1.195a1.5 1.5 0 011.476-.38l2.204.63A1.5 1.5 0 0115 11.755z" fill="#fff"/></symbol>

<symbol fill="none" viewBox="0 0 16 16" id="profile_icon" xmlns="http://www.w3.org/2000/svg"><path d="M4.5 4.5a3.5 3.5 0 117 0 3.5 3.5 0 01-7 0zm5 4.5h-3A4.5 4.5 0 002 13.5v1a.5.5 0 00.5.5h11a.5.5 0 00.5-.5v-1A4.5 4.5 0 009.5 9z" fill="#4B4E53"/></symbol>

<symbol fill="none" viewBox="0 0 12 12" id="search_icon" xmlns="http://www.w3.org/2000/svg"><path d="M10.843 10.055L8.73 7.989a4.202 4.202 0 00.976-2.988 4.227 4.227 0 00-1.378-2.833 4.414 4.414 0 00-2.987-1.144 4.412 4.412 0 00-2.978 1.164A4.225 4.225 0 001.006 5.03a4.203 4.203 0 00.997 2.982 4.387 4.387 0 002.813 1.507c1.099.134 2.21-.145 3.106-.783l2.112 2.088a.614.614 0 00.809 0 .564.564 0 000-.77zm-8.72-4.791c0-.63.192-1.247.55-1.77a3.244 3.244 0 011.462-1.175 3.327 3.327 0 011.883-.18 3.281 3.281 0 011.668.871c.456.446.766 1.014.892 1.632a3.122 3.122 0 01-.185 1.841 3.203 3.203 0 01-1.2 1.43 3.31 3.31 0 01-1.81.538 3.3 3.3 0 01-1.251-.237 3.242 3.242 0 01-1.06-.69 3.16 3.16 0 01-.706-1.037 3.104 3.104 0 01-.242-1.223z" fill="#fff"/></symbol>

<symbol viewBox="0 0 22 22" id="plus" xmlns="http://www.w3.org/2000/svg"><g clip-path="url(#iclip0_224_3449)"><path d="M10 0h2v22h-2z"/><path d="M22 10v2H0v-2z"/></g><defs><clipPath id="iclip0_224_3449"><path d="M0 0h22v22H0z"/></clipPath></defs></symbol>

</svg>