<svg width="36" height="21" viewBox="0 0 36 21" fill="none" xmlns="http://www.w3.org/2000/svg">
<path d="M35.1795 1.395C35.4268 0.591428 35.1795 0 33.99 0H30.0536C29.0512 0 28.5901 0.507857 28.3428 1.07357C28.3428 1.07357 26.3379 5.77286 23.5043 8.82C22.5887 9.70071 22.1677 9.98357 21.6664 9.98357C21.4192 9.98357 21.0382 9.70071 21.0382 8.89714V1.395C21.0382 0.430714 20.7575 0 19.9288 0H13.7403C13.1121 0 12.7379 0.45 12.7379 0.867857C12.7379 1.78071 14.1547 1.99286 14.3017 4.56429V10.1443C14.3017 11.3657 14.0745 11.5907 13.5733 11.5907C12.2367 11.5907 8.98869 6.87214 7.06398 1.47214C6.67636 0.424286 6.29543 0 5.28629 0H1.34997C0.227223 0 0 0.507857 0 1.07357C0 2.07643 1.33661 7.05857 6.22191 13.6414C9.47656 18.135 14.0611 20.5714 18.2313 20.5714C20.7375 20.5714 21.0449 20.0314 21.0449 19.0993C21.0449 14.805 20.8177 14.4 22.0741 14.4C22.6555 14.4 23.658 14.6829 25.997 16.8493C28.6703 19.4207 29.1113 20.5714 30.6083 20.5714H34.5447C35.6674 20.5714 36.2355 20.0314 35.908 18.9643C35.1595 16.7207 30.1004 12.105 29.8732 11.7964C29.2918 11.0764 29.4589 10.755 29.8732 10.1121C29.8799 10.1057 34.685 3.6 35.1795 1.395Z" fill="white"/>
</svg>
