<svg width="24" height="24" viewBox="0 0 24 24" fill="none" xmlns="http://www.w3.org/2000/svg">
<path d="M5.90738 9.18747H5.0625C4.53745 9.18747 4.27493 9.18747 4.07438 9.28965C3.89798 9.37954 3.75456 9.52296 3.66468 9.69936C3.5625 9.8999 3.5625 10.1624 3.5625 10.6875V13.3125C3.5625 13.8375 3.5625 14.1 3.66468 14.3006C3.75456 14.477 3.89798 14.6204 4.07438 14.7103C4.27493 14.8125 4.53745 14.8125 5.0625 14.8125H5.90738C6.42387 14.8125 6.68212 14.8125 6.92143 14.8769C7.13346 14.9339 7.33383 15.0278 7.5134 15.1541C7.71606 15.2967 7.88139 15.4951 8.21204 15.8919L10.6738 18.8461C11.0823 19.3362 11.2865 19.5813 11.4649 19.6068C11.6194 19.6289 11.7747 19.5726 11.8793 19.4568C12 19.323 12 19.004 12 18.3659V5.63401C12 4.99599 12 4.67697 11.8793 4.54317C11.7747 4.42731 11.6194 4.37107 11.4649 4.39315C11.2865 4.41866 11.0823 4.66373 10.6738 5.15387L8.21204 8.10803C7.88139 8.50481 7.71606 8.7032 7.5134 8.84582C7.33383 8.9722 7.13346 9.06604 6.92143 9.12309C6.68212 9.18747 6.42387 9.18747 5.90738 9.18747Z" fill="#1C313D"/>
<path d="M15.75 9.65622L20.4375 14.3437M20.4375 9.65622L15.75 14.3437M5.0625 9.18747H5.90738C6.42387 9.18747 6.68212 9.18747 6.92143 9.12309C7.13346 9.06604 7.33383 8.9722 7.5134 8.84582C7.71606 8.7032 7.88139 8.50481 8.21204 8.10803L10.6738 5.15387C11.0823 4.66373 11.2865 4.41866 11.4649 4.39315C11.6194 4.37107 11.7747 4.42731 11.8793 4.54317C12 4.67697 12 4.99599 12 5.63401V18.3659C12 19.004 12 19.323 11.8793 19.4568C11.7747 19.5726 11.6194 19.6289 11.4649 19.6068C11.2865 19.5813 11.0823 19.3362 10.6738 18.8461L8.21204 15.8919C7.88139 15.4951 7.71606 15.2967 7.5134 15.1541C7.33383 15.0278 7.13346 14.9339 6.92143 14.8769C6.68212 14.8125 6.42387 14.8125 5.90738 14.8125H5.0625C4.53745 14.8125 4.27493 14.8125 4.07438 14.7103C3.89798 14.6204 3.75456 14.477 3.66468 14.3006C3.5625 14.1 3.5625 13.8375 3.5625 13.3125V10.6875C3.5625 10.1624 3.5625 9.8999 3.66468 9.69936C3.75456 9.52296 3.89798 9.37954 4.07438 9.28965C4.27493 9.18747 4.53745 9.18747 5.0625 9.18747Z" stroke="#1C313D" stroke-width="1.49254" stroke-linecap="round" stroke-linejoin="round"/>
</svg>
