<svg width="74" height="74" viewBox="0 0 74 74" fill="none" xmlns="http://www.w3.org/2000/svg">
<rect width="74" height="74" rx="37" fill="#F2A231" fill-opacity="0.1"/>
<path d="M30.1602 41.3164C30.1602 42.2333 29.4169 42.9766 28.5 42.9766C26.2978 42.8891 26.2984 39.7434 28.5 39.6562C29.4169 39.6562 30.1602 40.3995 30.1602 41.3164ZM34.2109 39.6562C33.2941 39.6562 32.5508 40.3995 32.5508 41.3164C32.6382 43.5186 35.784 43.518 35.8711 41.3164C35.8711 40.3995 35.1278 39.6562 34.2109 39.6562ZM39.9219 39.6562C39.005 39.6562 38.2617 40.3995 38.2617 41.3164C38.3492 43.5186 41.4949 43.518 41.582 41.3164C41.582 40.3995 40.8387 39.6562 39.9219 39.6562ZM28.5 45.3672C27.5831 45.3672 26.8398 46.1105 26.8398 47.0273C26.9273 49.2295 30.073 49.2289 30.1602 47.0273C30.1602 46.1105 29.4169 45.3672 28.5 45.3672ZM34.2109 45.3672C33.2941 45.3672 32.5508 46.1105 32.5508 47.0273C32.6382 49.2295 35.784 49.2289 35.8711 47.0273C35.8711 46.1105 35.1278 45.3672 34.2109 45.3672ZM39.9219 45.3672C39.005 45.3672 38.2617 46.1105 38.2617 47.0273C38.3492 49.2295 41.4949 49.2289 41.582 47.0273C41.582 46.1105 40.8387 45.3672 39.9219 45.3672ZM45.6328 45.3672C44.7159 45.3672 43.9727 46.1105 43.9727 47.0273C44.0601 49.2295 47.2058 49.2289 47.293 47.0273C47.293 46.1105 46.5497 45.3672 45.6328 45.3672ZM54 35.1406V46.0312C54 50.4252 50.4252 54 46.0312 54H27.9688C23.5748 54 20 50.4252 20 46.0312V35.1406C20 30.7467 23.5748 27.1719 27.9688 27.1719H46.0312C50.4252 27.1719 54 30.7467 54 35.1406ZM51.3438 35.1406C51.3438 32.2113 48.9606 29.8281 46.0312 29.8281H27.9688C25.0394 29.8281 22.6562 32.2113 22.6562 35.1406V46.0312C22.6562 48.9606 25.0394 51.3438 27.9688 51.3438H46.0312C48.9606 51.3438 51.3438 48.9606 51.3438 46.0312V35.1406ZM47.3594 34.4766H26.6406C24.8785 34.5467 24.8798 37.0633 26.6406 37.1328H47.3594C49.1215 37.0627 49.1202 34.5461 47.3594 34.4766ZM33.4141 23.9844C33.4141 24.7179 32.8195 25.3125 32.0859 25.3125C31.3524 25.3125 30.7578 24.7179 30.7578 23.9844C30.7578 23.252 30.162 22.6562 29.4297 22.6562C28.6974 22.6562 28.1016 23.252 28.1016 23.9844C28.1016 24.7179 27.507 25.3125 26.7734 25.3125C26.0399 25.3125 25.4453 24.7179 25.4453 23.9844C25.6643 18.6984 33.1961 18.7003 33.4141 23.9844ZM44.7031 20C42.5061 20 40.7188 21.7874 40.7188 23.9844C40.7188 24.7179 41.3134 25.3125 42.0469 25.3125C42.7804 25.3125 43.375 24.7179 43.375 23.9844C43.375 23.252 43.9708 22.6562 44.7031 22.6562C45.4355 22.6562 46.0312 23.252 46.0312 23.9844C46.0312 24.7179 46.6259 25.3125 47.3594 25.3125C48.0929 25.3125 48.6875 24.7179 48.6875 23.9844C48.6875 21.7874 46.9001 20 44.7031 20ZM45.6328 39.6562C44.7159 39.6562 43.9727 40.3995 43.9727 41.3164C44.0601 43.5186 47.2058 43.518 47.293 41.3164C47.293 40.3995 46.5497 39.6562 45.6328 39.6562Z" fill="#F2A231"/>
</svg>
