<svg width="66" height="66" viewBox="0 0 66 66" fill="none" xmlns="http://www.w3.org/2000/svg">
<rect width="66" height="66" rx="33" fill="white"/>
<path d="M33 31.9375C35.197 31.9375 36.9844 30.1501 36.9844 27.9531C36.9844 25.7561 35.197 23.9688 33 23.9688C30.803 23.9688 29.0156 25.7561 29.0156 27.9531C29.0156 30.1501 30.803 31.9375 33 31.9375ZM33 26.625C33.7323 26.625 34.3281 27.2208 34.3281 27.9531C34.3281 28.6855 33.7323 29.2812 33 29.2812C32.2677 29.2812 31.6719 28.6855 31.6719 27.9531C31.6719 27.2208 32.2677 26.625 33 26.625Z" fill="#F2A231"/>
<path d="M44.9531 27.9531C44.9531 21.3622 39.591 16 33 16C26.409 16 21.0469 21.3622 21.0469 27.9531C21.0469 30.5606 21.8718 33.0386 23.4325 35.1193L29.8113 43.6237C30.5606 44.6225 31.7526 45.2188 33 45.2188C34.2474 45.2188 35.4394 44.6225 36.1888 43.6236L42.5675 35.1193C44.1282 33.0386 44.9531 30.5606 44.9531 27.9531ZM40.4426 33.5254L34.0639 42.0297C33.8098 42.3683 33.4221 42.5625 33 42.5625C32.5779 42.5625 32.1902 42.3683 31.9362 42.0298L25.5574 33.5254C24.3443 31.9081 23.7031 29.9812 23.7031 27.9531C23.7031 22.8268 27.8737 18.6562 33 18.6562C38.1263 18.6562 42.2969 22.8268 42.2969 27.9531C42.2969 29.9812 41.6557 31.9081 40.4426 33.5254Z" fill="#F2A231"/>
<path d="M39.6406 48.6719C39.6406 47.9384 39.046 47.3438 38.3125 47.3438H27.6875C26.954 47.3438 26.3594 47.9384 26.3594 48.6719C26.3594 49.4054 26.954 50 27.6875 50H38.3125C39.046 50 39.6406 49.4054 39.6406 48.6719Z" fill="#F2A231"/>
</svg>
