<svg width="66" height="66" viewBox="0 0 66 66" fill="none" xmlns="http://www.w3.org/2000/svg">
<rect width="66" height="66" rx="33" fill="white"/>
<path d="M42.0312 49.9975H23.9688C19.5748 49.9975 16 46.4227 16 42.0288V30.8545C16 28.3848 17.1724 26.0162 19.1361 24.5184L28.1674 17.6301C31.0128 15.4599 34.9872 15.4599 37.8326 17.6301L46.8639 24.5184C48.8276 26.0161 50 28.3847 50 30.8545V42.0288C50 46.4227 46.4252 49.9975 42.0312 49.9975V49.9975ZM33 18.657C31.8632 18.657 30.7268 19.0187 29.7782 19.7421L20.747 26.6303C19.4379 27.6289 18.6562 29.208 18.6562 30.8545V42.0288C18.6562 44.9581 21.0394 47.3413 23.9688 47.3413H42.0312C44.9606 47.3413 47.3438 44.9581 47.3438 42.0288V30.8545C47.3438 29.208 46.5621 27.6289 45.253 26.6304L36.2218 19.7422C35.2734 19.0189 34.1365 18.657 33 18.657V18.657ZM37.8328 39.0679L44.2314 34.1862C44.8145 33.7413 44.9266 32.9079 44.4817 32.3247C44.0368 31.7416 43.2034 31.6295 42.6202 32.0744L36.2218 36.956C34.3248 38.4028 31.6751 38.4028 29.7767 36.9548L23.4445 32.1395C22.8607 31.6955 22.0274 31.8089 21.5834 32.3928C21.1394 32.9767 21.2528 33.8099 21.8367 34.2539L28.1674 39.068C29.59 40.1531 31.295 40.6956 32.9999 40.6956C34.7049 40.6956 36.41 40.153 37.8328 39.0679ZM33 35.1179C32.1916 35.1179 31.3835 34.8672 30.709 34.3655C28.0027 32.3529 26.5447 29.934 26.4925 27.3702C26.4445 24.024 30.5033 22.203 33 24.3854C35.4981 22.2025 39.5553 24.0248 39.5075 27.3702C39.4554 29.934 37.9973 32.3529 35.291 34.3655C34.6167 34.867 33.8082 35.1178 33 35.1179ZM29.1485 27.3311C29.2 29.4878 30.8865 31.1872 32.294 32.234C32.7097 32.5431 33.2903 32.5431 33.7059 32.234C35.1134 31.1872 36.7999 29.4877 36.8515 27.3311C36.7967 25.7108 34.3887 25.6812 34.3281 27.2864C34.3281 28.02 33.7335 28.6146 33 28.6146C32.2665 28.6146 31.6719 28.02 31.6719 27.2864C31.612 25.6809 29.202 25.7117 29.1485 27.3311V27.3311Z" fill="#F2A231"/>
</svg>
