<svg width="67" height="66" viewBox="0 0 67 66" fill="none" xmlns="http://www.w3.org/2000/svg">
<rect x="0.666748" width="66" height="66" rx="33" fill="white"/>
<g clip-path="url(#clip0_14_1260)">
<path d="M38.6398 49.9999C25.017 49.8976 9.05738 30.048 20.7195 18.3764C21.1338 17.9552 21.5724 17.55 22.023 17.172C22.9759 16.3726 24.1832 15.9603 25.4217 16.011C26.6653 16.062 27.8345 16.5753 28.7141 17.4563C28.7198 17.4621 28.7255 17.4679 28.7311 17.4737L30.9775 19.8081C33.4086 22.1868 32.547 26.4766 29.3776 27.7179C28.3964 28.1181 27.7705 28.4734 27.6032 28.5937C26.3663 29.8541 25.5788 31.9021 30.2056 36.5369C31.707 38.0409 33.9307 40.0404 35.8996 40.0404C36.6983 40.0404 37.4315 39.7024 38.1392 39.0075C38.2313 38.8725 38.5494 38.3306 38.9596 37.3085C40.1882 34.1173 44.4863 33.2302 46.8738 35.6782L49.1811 37.9109C49.1866 37.9162 49.192 37.9216 49.1974 37.927C50.0734 38.8045 50.586 39.9705 50.6407 41.2102C50.6954 42.4491 50.2881 43.6558 49.4938 44.6079C49.1414 45.0303 48.7651 45.4425 48.375 45.8332C45.6275 48.5856 42.3013 49.9999 38.6398 49.9999V49.9999ZM25.2192 18.6591C24.6943 18.6591 24.1663 18.8402 23.7297 19.2065C23.3437 19.5304 22.9677 19.8777 22.6124 20.2388C16.3953 26.5534 19.8123 35.179 25.7855 41.0843C31.7049 46.9739 40.2871 50.1941 46.4957 43.957C46.8301 43.622 47.1527 43.2686 47.4547 42.9066C48.2211 41.988 48.1648 40.6587 47.3253 39.8103L45.0194 37.5788C45.0139 37.5735 45.0085 37.5682 45.0031 37.5628C44.4746 37.0334 43.7516 36.8154 43.0197 36.9649C42.2855 37.1148 41.704 37.6006 41.4242 38.2978C41.2386 38.7601 40.5915 40.3103 40.0577 40.845C38.8316 42.0732 37.4326 42.6959 35.8997 42.6959C32.9766 42.6959 30.3169 40.4071 28.3262 38.413C25.3058 35.5152 21.815 30.5739 25.7567 26.6843C26.3154 26.1246 27.9018 25.4518 28.3747 25.2589C29.0616 24.9787 29.5404 24.399 29.6881 23.6683C29.8369 22.9321 29.6186 22.2056 29.0891 21.6752C29.0834 21.6695 29.0777 21.6636 29.0721 21.6578L26.8271 19.3248C26.3817 18.8828 25.8024 18.6591 25.2192 18.6591V18.6591ZM49.3232 31.8742C48.6438 31.8742 48.0645 31.3554 48.0023 30.6655C47.4267 24.2789 42.3736 19.2258 35.9871 18.6503C35.2567 18.5845 34.7181 17.9391 34.7839 17.2087C34.8496 16.4783 35.4955 15.9395 36.2254 16.0055C43.6929 16.5638 50.0888 22.9598 50.6472 30.4271C50.713 31.1575 50.1743 31.8029 49.4439 31.8687C49.4034 31.8724 49.3631 31.8742 49.3232 31.8742ZM38.9782 31.8722C39.6739 31.6401 40.0496 30.8881 39.8175 30.1924C39.2967 28.6313 38.0747 27.3773 36.5488 26.8379C35.8575 26.5935 35.0987 26.9559 34.8544 27.6474C34.61 28.3387 34.9724 29.0974 35.6638 29.3418C36.4237 29.6104 37.0348 30.2425 37.2985 31.0328C37.4841 31.5891 38.002 31.9408 38.5579 31.9408C38.6971 31.9409 38.8388 31.9188 38.9782 31.8722V31.8722ZM44.1947 31.8607C44.9207 31.7569 45.4249 31.0842 45.3211 30.3583C44.656 25.7085 40.9441 21.9966 36.2943 21.3314C34.542 21.1517 34.184 23.6409 35.9183 23.9602C39.4075 24.4594 42.1931 27.245 42.6922 30.7342C42.787 31.3965 43.3549 31.8741 44.005 31.8741C44.0676 31.8743 44.131 31.8698 44.1947 31.8607V31.8607Z" fill="#F2A231"/>
</g>
<defs>
<clipPath id="clip0_14_1260">
<rect width="34" height="34" fill="white" transform="translate(16.6667 16)"/>
</clipPath>
</defs>
</svg>
