<svg width="32" height="32" viewBox="0 0 32 32" fill="none" xmlns="http://www.w3.org/2000/svg">
<path d="M16 32C24.8366 32 32 24.8366 32 16C32 7.16344 24.8366 0 16 0C7.16344 0 0 7.16344 0 16C0 24.8366 7.16344 32 16 32Z" fill="url(#paint0_linear_3_1780)"/>
<path fill-rule="evenodd" clip-rule="evenodd" d="M13.0677 23.3337C12.5493 23.3337 12.6374 23.1379 12.4586 22.6444L10.9343 17.6278L22.6677 10.667" fill="#C8DAEA"/>
<path fill-rule="evenodd" clip-rule="evenodd" d="M13.0657 23.333C13.4657 23.333 13.6424 23.15 13.8657 22.933L15.999 20.8586L13.3379 19.2539" fill="#A9C9DD"/>
<path fill-rule="evenodd" clip-rule="evenodd" d="M13.3381 19.2547L19.7861 24.0185C20.5219 24.4245 21.053 24.2143 21.2363 23.3354L23.8609 10.967C24.1297 9.88963 23.4503 9.40099 22.7463 9.72056L7.33435 15.6634C6.28234 16.0853 6.28847 16.6722 7.14259 16.9338L11.0977 18.1682L20.2541 12.3915C20.6863 12.1294 21.083 12.2703 20.7574 12.5593" fill="url(#paint1_linear_3_1780)"/>
<defs>
<linearGradient id="paint0_linear_3_1780" x1="21.3344" y1="5.3344" x2="13.3344" y2="24" gradientUnits="userSpaceOnUse">
<stop stop-color="#37AEE2"/>
<stop offset="1" stop-color="#1E96C8"/>
</linearGradient>
<linearGradient id="paint1_linear_3_1780" x1="17.1762" y1="15.9998" x2="18.8858" y2="21.5298" gradientUnits="userSpaceOnUse">
<stop stop-color="#EFF7FC"/>
<stop offset="1" stop-color="white"/>
</linearGradient>
</defs>
</svg>
