<svg width="32" height="32" viewBox="0 0 32 32" fill="none" xmlns="http://www.w3.org/2000/svg">
<path fill-rule="evenodd" clip-rule="evenodd" d="M0 16C0 7.16344 7.16344 0 16 0C24.8366 0 32 7.16344 32 16C32 24.8366 24.8366 32 16 32C7.16344 32 0 24.8366 0 16Z" fill="#45668E"/>
<path fill-rule="evenodd" clip-rule="evenodd" d="M23.606 12.4196C23.7246 12.024 23.606 11.7334 23.0415 11.7334H21.1748C20.7002 11.7334 20.4814 11.9845 20.3627 12.2613C20.3627 12.2613 19.4134 14.5751 18.0687 16.0781C17.6336 16.5132 17.4358 16.6516 17.1985 16.6516C17.0799 16.6516 16.9019 16.5132 16.9019 16.1177V12.4196C16.9019 11.9449 16.7704 11.7334 16.3748 11.7334H13.4415C13.1449 11.7334 12.9665 11.9537 12.9665 12.1625C12.9665 12.6124 13.6389 12.7162 13.7082 13.9818V16.7307C13.7082 17.3334 13.5993 17.4427 13.362 17.4427C12.7292 17.4427 11.1899 15.1185 10.2769 12.4591C10.098 11.9422 9.91856 11.7334 9.44149 11.7334H7.57482C7.04149 11.7334 6.93481 11.9845 6.93481 12.2613C6.93481 12.7557 7.56766 15.208 9.88143 18.4512C11.4239 20.6661 13.5972 21.8667 15.5748 21.8667C16.7614 21.8667 16.9082 21.6001 16.9082 21.1407V19.4667C16.9082 18.9334 17.0206 18.827 17.3963 18.827C17.6732 18.827 18.1478 18.9654 19.2553 20.0333C20.5209 21.2989 20.7296 21.8667 21.4415 21.8667H23.3082C23.8415 21.8667 24.1082 21.6001 23.9543 21.0738C23.786 20.5493 23.1817 19.7883 22.3799 18.8863C21.9448 18.3721 21.2922 17.8184 21.0944 17.5415C20.8176 17.1856 20.8967 17.0273 21.0944 16.7109C21.0944 16.7109 23.3687 13.5072 23.606 12.4196Z" fill="white"/>
</svg>
