<svg width="32" height="32" viewBox="0 0 32 32" fill="none" xmlns="http://www.w3.org/2000/svg">
<path fill-rule="evenodd" clip-rule="evenodd" d="M19.9129 18.7609C19.7479 19.2239 18.9559 19.6459 18.5749 19.7029C18.2339 19.7539 17.8019 19.7749 17.3269 19.6249C17.0389 19.5329 16.6699 19.4109 16.1979 19.2069C14.2099 18.3489 12.9109 16.3479 12.8119 16.2159C12.7129 16.0839 12.0029 15.1419 12.0029 14.1669C12.0029 13.1919 12.5149 12.7119 12.6969 12.5139C12.8779 12.3159 13.0929 12.2659 13.2249 12.2659C13.3569 12.2659 13.4889 12.2669 13.6049 12.2729C13.7269 12.2789 13.8899 12.2269 14.0509 12.6129C14.2159 13.0099 14.6119 13.9849 14.6619 14.0839C14.7109 14.1829 14.7439 14.2989 14.6779 14.4309C14.6119 14.5629 14.5789 14.6459 14.4799 14.7619C14.3809 14.8769 14.2719 15.0199 14.1829 15.1089C14.0839 15.2069 13.9799 15.3149 14.0959 15.5129C14.2119 15.7109 14.6089 16.3599 15.1979 16.8849C15.9549 17.5599 16.5939 17.7689 16.7919 17.8689C16.9899 17.9679 17.1059 17.9509 17.2209 17.8189C17.3369 17.6869 17.7169 17.2409 17.8489 17.0419C17.9809 16.8439 18.1129 16.8769 18.2949 16.9429C18.4759 17.0089 19.4509 17.4879 19.6489 17.5879C19.8469 17.6869 19.9789 17.7359 20.0289 17.8189C20.0779 17.9019 20.0779 18.2979 19.9129 18.7609ZM16.0359 9.33887C12.3999 9.33887 9.44192 12.2949 9.44092 15.9279C9.44092 17.1729 9.78892 18.3859 10.4489 19.4349L10.6059 19.6839L9.93992 22.1159L12.4349 21.4619L12.6749 21.6039C13.6869 22.2049 14.8469 22.5229 16.0299 22.5229H16.0329C19.6659 22.5229 22.6229 19.5669 22.6249 15.9329C22.6249 14.1719 21.9409 12.5169 20.6959 11.2709C19.4509 10.0259 17.7959 9.33887 16.0359 9.33887Z" fill="#67D449"/>
<path fill-rule="evenodd" clip-rule="evenodd" d="M16.033 23.862H16.03C14.702 23.862 13.398 23.529 12.24 22.897L8.035 24L9.161 19.891C8.467 18.689 8.101 17.325 8.102 15.927C8.104 11.556 11.661 8 16.033 8C18.154 8 20.146 8.826 21.643 10.325C23.14 11.823 23.965 13.815 23.964 15.934C23.962 20.305 20.404 23.862 16.033 23.862ZM16 0C7.163 0 0 7.163 0 16C0 24.836 7.163 32 16 32C24.836 32 32 24.836 32 16C32 7.163 24.836 0 16 0Z" fill="#67D449"/>
</svg>
