<svg width="62" height="62" viewBox="0 0 62 62" fill="none" xmlns="http://www.w3.org/2000/svg">
<path d="M51.5859 0H45.168C44.6664 0 44.2598 0.406512 44.2598 0.908203C44.2598 1.40989 44.6664 1.81641 45.168 1.81641H51.5859C51.7528 1.81641 51.8887 1.95215 51.8887 2.11914V59.8809C51.8887 60.0478 51.7528 60.1836 51.5859 60.1836H10.4141C10.2472 60.1836 10.1113 60.0478 10.1113 59.8809V41.293C10.1113 40.7913 9.7047 40.3848 9.20312 40.3848C8.70155 40.3848 8.29492 40.7913 8.29492 41.293V59.8809C8.29492 61.0493 9.24563 62 10.4141 62H51.5859C52.7544 62 53.7051 61.0493 53.7051 59.8809V2.11914C53.7051 0.950707 52.7544 0 51.5859 0Z" fill="#B38339"/>
<path d="M9.20312 37.9629C9.7047 37.9629 10.1113 37.5564 10.1113 37.0547V2.11914C10.1113 1.95215 10.2472 1.81641 10.4141 1.81641H40.9297C41.4313 1.81641 41.8379 1.40989 41.8379 0.908203C41.8379 0.406512 41.4313 0 40.9297 0H10.4141C9.24563 0 8.29492 0.950707 8.29492 2.11914V37.0547C8.29492 37.5564 8.70155 37.9629 9.20312 37.9629Z" fill="#B38339"/>
<path d="M45.4315 19.2931H44.5978L41.7682 12.7286C41.6441 12.4676 41.3804 12.1675 40.9299 12.1699H34.8288C34.6515 11.4227 34.261 10.7576 33.7248 10.2422V7.56836C33.7248 6.06607 32.5026 4.84375 31.0002 4.84375C29.4978 4.84375 28.2756 6.06607 28.2756 7.56836V10.2422C27.7394 10.7576 27.3489 11.4227 27.1716 12.1699H21.0705C20.7904 12.1794 20.3957 12.3184 20.2322 12.7286L17.4026 19.2931H16.5688C16.0673 19.2931 15.6606 19.6997 15.6606 20.2013V21.4123C15.6606 23.2484 17.1545 24.7424 18.9907 24.7424H23.1503C24.9866 24.7424 26.4804 23.2484 26.4804 21.4123V20.2013C26.4804 19.6997 26.0737 19.2931 25.5722 19.2931H24.7384L22.451 13.9863H27.1717C27.349 14.7336 27.7395 15.3986 28.2757 15.914V25.6719H27.9729C26.1366 25.6719 24.6428 27.1658 24.6428 29.002V30.2129C24.6428 30.7146 25.0494 31.1211 25.551 31.1211H30.0804C30.5819 31.1211 30.9886 30.7146 30.9886 30.2129C30.9886 29.7112 30.5819 29.3047 30.0804 29.3047H26.4592V29.002C26.4592 28.1673 27.1382 27.4883 27.9729 27.4883H34.0275C34.8622 27.4883 35.5412 28.1673 35.5412 29.002V29.3047H34.3186C33.8171 29.3047 33.4104 29.7112 33.4104 30.2129C33.4104 30.7146 33.8171 31.1211 34.3186 31.1211H36.4494C36.951 31.1211 37.3576 30.7146 37.3576 30.2129V29.002C37.3576 27.1658 35.8638 25.6719 34.0275 25.6719H33.7248V15.914C34.261 15.3986 34.6515 14.7336 34.8288 13.9863H39.5494L37.262 19.2931H36.4282C35.9267 19.2931 35.52 19.6997 35.52 20.2013V21.4123C35.52 23.2484 37.0138 24.7424 38.8501 24.7424H43.0097C44.8459 24.7424 46.3397 23.2484 46.3397 21.4123V20.2013C46.3397 19.6998 45.9331 19.2931 45.4315 19.2931V19.2931ZM28.8811 13.0781C28.8811 11.9097 29.8318 10.959 31.0002 10.959C32.1686 10.959 33.1193 11.9097 33.1193 13.0781C33.1193 14.2466 32.1686 15.1973 31.0002 15.1973C29.8318 15.1973 28.8811 14.2466 28.8811 13.0781ZM30.092 7.56836C30.092 7.06752 30.4994 6.66016 31.0002 6.66016C31.501 6.66016 31.9084 7.06752 31.9084 7.56836V9.2495C31.6167 9.18024 31.3129 9.14258 31.0002 9.14258C30.6875 9.14258 30.3837 9.18036 30.092 9.2495V7.56836ZM24.664 21.4123C24.664 22.247 23.985 22.926 23.1503 22.926H18.9907C18.156 22.926 17.4771 22.247 17.4771 21.4123V21.1095H24.664V21.4123ZM19.3805 19.2931L21.0705 15.3725L22.7605 19.2931H19.3805ZM31.9084 25.6719H30.092V16.9067C30.3837 16.976 30.6875 17.0137 31.0002 17.0137C31.3129 17.0137 31.6167 16.9759 31.9084 16.9067V25.6719ZM40.9299 15.3725L42.6199 19.2931H39.24L40.9299 15.3725ZM44.5233 21.4123C44.5233 22.247 43.8444 22.926 43.0097 22.926H38.8501C38.0154 22.926 37.3364 22.247 37.3364 21.4123V21.1095H44.5233V21.4123Z" fill="#B38339"/>
<path d="M42.5041 55.3398C42.1087 55.3398 41.7279 55.2573 41.3721 55.0945C40.9158 54.8856 40.377 55.0863 40.1684 55.5426C39.9597 55.9987 40.1603 56.5376 40.6164 56.7462C41.2109 57.0182 41.8461 57.1562 42.5041 57.1562C45.0081 57.1562 47.0451 55.1192 47.0451 52.6152C47.0451 50.1113 45.0081 48.0742 42.5041 48.0742C40.0225 48.0742 38.0286 50.0167 37.9647 52.4966C37.9518 52.998 38.3478 53.4149 38.8491 53.4278C39.346 53.4395 39.7675 53.0446 39.7805 52.5433C39.8187 51.0558 41.0151 49.8906 42.5041 49.8906C44.0065 49.8906 45.2287 51.1129 45.2287 52.6152C45.2287 54.1175 44.0065 55.3398 42.5041 55.3398V55.3398Z" fill="#B38339"/>
<path d="M14.0469 51.4043H23.3402C23.8418 51.4043 24.2484 50.9978 24.2484 50.4961C24.2484 49.9944 23.8418 49.5879 23.3402 49.5879H14.0469C13.5453 49.5879 13.1387 49.9944 13.1387 50.4961C13.1387 50.9978 13.5453 51.4043 14.0469 51.4043Z" fill="#B38339"/>
<path d="M14.0469 55.6426H25.9141C26.4156 55.6426 26.8223 55.2361 26.8223 54.7344C26.8223 54.2327 26.4156 53.8262 25.9141 53.8262H14.0469C13.5453 53.8262 13.1387 54.2327 13.1387 54.7344C13.1387 55.2361 13.5453 55.6426 14.0469 55.6426Z" fill="#B38339"/>
<path d="M14.0469 40.5059H17.8832C18.3848 40.5059 18.7914 40.0993 18.7914 39.5977C18.7914 39.096 18.3848 38.6895 17.8832 38.6895H14.0469C13.5453 38.6895 13.1387 39.096 13.1387 39.5977C13.1387 40.0993 13.5453 40.5059 14.0469 40.5059V40.5059Z" fill="#B38339"/>
<path d="M47.9532 38.6895H21.5161C21.0145 38.6895 20.6079 39.096 20.6079 39.5977C20.6079 40.0993 21.0145 40.5059 21.5161 40.5059H47.9532C48.4548 40.5059 48.8614 40.0993 48.8614 39.5977C48.8614 39.096 48.4548 38.6895 47.9532 38.6895Z" fill="#B38339"/>
<path d="M35.2383 36.2676C35.7399 36.2676 36.1465 35.8611 36.1465 35.3594C36.1465 34.8577 35.7399 34.4512 35.2383 34.4512H26.7617C26.2601 34.4512 25.8535 34.8577 25.8535 35.3594C25.8535 35.8611 26.2601 36.2676 26.7617 36.2676H35.2383Z" fill="#B38339"/>
<path d="M38.8105 43.8359C38.8105 43.3342 38.4039 42.9277 37.9023 42.9277H14.0469C13.5453 42.9277 13.1387 43.3342 13.1387 43.8359C13.1387 44.3376 13.5453 44.7441 14.0469 44.7441H37.9023C38.4039 44.7441 38.8105 44.3376 38.8105 43.8359Z" fill="#B38339"/>
<path d="M48.8613 43.8359C48.8613 43.3342 48.4547 42.9277 47.9531 42.9277H41.5352C41.0336 42.9277 40.627 43.3342 40.627 43.8359C40.627 44.3376 41.0336 44.7441 41.5352 44.7441H47.9531C48.4547 44.7441 48.8613 44.3376 48.8613 43.8359Z" fill="#B38339"/>
</svg>
