<svg width="65" height="64" viewBox="0 0 65 64" fill="none" xmlns="http://www.w3.org/2000/svg">
<g clip-path="url(#clip0_55_4826)">
<path d="M34.9327 57.1274H34.2552C34.4956 56.6584 34.6323 56.1277 34.6323 55.5654C34.6323 53.6706 33.0909 52.1292 31.196 52.1292H7.68052C5.78569 52.1292 4.24424 53.6706 4.24424 55.5654C4.24424 56.1277 4.38082 56.6584 4.62136 57.1274H3.94372C2.0489 57.1274 0.507446 58.6688 0.507446 60.5636C0.507446 62.4585 2.0489 63.9999 3.94372 63.9999H34.9327C36.8275 63.9999 38.369 62.4585 38.369 60.5636C38.369 58.6688 36.8275 57.1274 34.9327 57.1274V57.1274ZM34.9327 62.1256H3.94372C3.0824 62.1256 2.38178 61.425 2.38178 60.5636C2.38178 59.7023 3.0824 59.0017 3.94372 59.0017H9.71442C10.9261 59.0017 10.9261 57.1274 9.71442 57.1274H7.68052C6.8192 57.1274 6.11857 56.4267 6.11857 55.5654C6.11857 54.7041 6.8192 54.0035 7.68052 54.0035H31.196C32.0573 54.0035 32.758 54.7041 32.758 55.5654C32.758 56.4267 32.0573 57.1274 31.196 57.1274H14.711C13.4993 57.1274 13.4993 59.0017 14.711 59.0017H34.9327C35.794 59.0017 36.4946 59.7023 36.4946 60.5636C36.4946 61.425 35.794 62.1256 34.9327 62.1256Z" fill="#B38339"/>
<path d="M63.3105 40.298L46.5067 23.4941C47.5507 21.7494 47.2266 19.4601 45.7596 18.0592L47.7324 16.0864C50.5515 19.1899 55.4339 14.776 52.3931 11.7349L46.0346 5.37683C45.1778 4.52001 43.8524 5.84541 44.7093 6.70211L51.0676 13.0603C52.28 14.2728 50.3998 16.1031 49.2122 14.9157L38.4332 4.13664C37.2208 2.9242 39.101 1.09385 40.2885 2.2813L41.2986 3.29132C42.1554 4.14814 43.4808 2.82274 42.6238 1.96604L41.6139 0.956023C38.5976 -2.06028 34.1359 2.7725 37.2625 5.61674L22.9593 19.9197C20.1401 16.8204 15.2544 21.2272 18.2986 24.2711L29.0777 35.0503C32.0902 38.0625 36.5612 33.2346 33.429 30.3896L35.4018 28.4168C36.8024 29.8847 39.0945 30.2134 40.8381 29.1653L57.6406 45.9678C61.2988 49.6261 66.9688 43.9561 63.3105 40.298V40.298ZM32.2584 33.7249C31.7468 34.2366 30.9146 34.2364 30.4031 33.7249L19.624 22.9457C18.4264 21.7484 20.2832 19.8944 21.4794 21.0904L32.2584 31.8695C32.7647 32.3757 32.7645 33.2188 32.2584 33.7249ZM32.1038 29.0643L24.2847 21.2451L38.5878 6.94202L46.4069 14.7611L32.1038 29.0643ZM40.3596 27.1772C39.3446 28.1922 37.7117 28.0818 36.7309 27.0951L44.4378 19.3882C45.4213 20.3746 45.5462 21.9906 44.5199 23.0169L40.3596 27.1772ZM61.9851 44.6424C61.1615 45.466 59.7896 45.466 58.966 44.6424L42.2556 27.9319L45.2746 24.9129L61.9851 41.6233C62.8087 42.4469 62.8087 43.8188 61.9851 44.6424Z" fill="#B38339"/>
<path d="M7.19701 44.6129L12.6322 48.2904C13.6062 48.9492 14.6835 47.415 13.6826 46.7379L8.24739 43.0605C7.24374 42.3815 6.19337 43.9338 7.19701 44.6129Z" fill="#B38339"/>
<path d="M25.9747 48.4514C26.1554 48.4514 26.3381 48.3992 26.499 48.2903L31.9342 44.6129C32.9379 43.9338 31.8874 42.3815 30.8838 43.0605L25.4487 46.7379C24.6734 47.2623 25.1058 48.4514 25.9747 48.4514V48.4514Z" fill="#B38339"/>
<path d="M20.5027 43.4454V37.1971C20.5027 35.9854 18.6284 35.9854 18.6284 37.1971V43.4454C18.6284 44.6572 20.5027 44.6572 20.5027 43.4454Z" fill="#B38339"/>
</g>
<defs>
<clipPath id="clip0_55_4826">
<rect width="64" height="64" fill="white" transform="translate(0.5)"/>
</clipPath>
</defs>
</svg>
