<svg width="64" height="64" viewBox="0 0 64 64" fill="none" xmlns="http://www.w3.org/2000/svg">
<path d="M23.5845 15.9104C24.7929 14.7022 26.0933 13.6676 27.4149 12.8277C28.4247 12.1828 29.4452 11.6584 30.4444 11.2581C30.3664 10.9958 30.3275 10.7266 30.3275 10.4537C30.3275 9.74157 30.6004 9.02582 31.1425 8.48369C32.2267 7.39932 34.0055 7.39932 35.0899 8.48369L41.4714 14.8652C42.0135 15.4073 42.2864 16.1231 42.2864 16.8388C42.2864 17.5511 42.0135 18.2667 41.4714 18.8126C40.9292 19.3547 40.2135 19.6276 39.4976 19.6276C39.2284 19.6276 38.959 19.5886 38.6969 19.5106C38.2965 20.5098 37.7721 21.5303 37.1273 22.5401C36.7551 23.1247 36.3477 23.7023 35.9012 24.2728L37.3291 25.7008L37.478 25.5521C37.8429 25.1836 38.4382 25.1836 38.8032 25.5521L49.6919 36.4407C50.0569 36.8057 50.0569 37.3974 49.6919 37.7659C49.3269 38.1309 48.7316 38.1309 48.3666 37.7659L38.1405 27.5398C37.1625 28.5142 36.1881 29.4922 35.2101 30.4667L58.5962 53.8492C58.9966 54.2531 59.5281 54.4516 60.0596 54.4516C60.5911 54.4516 61.1226 54.2532 61.523 53.8492C61.9234 53.4488 62.1254 52.9173 62.1254 52.3858C62.1254 51.8543 61.9234 51.3228 61.523 50.9225L51.3677 40.7672C51.0027 40.4023 51.0027 39.8069 51.3677 39.4419C51.7362 39.0771 52.328 39.0771 52.6965 39.4419L62.8481 49.5972C63.617 50.3661 63.9997 51.376 63.9997 52.3858C63.9997 53.3957 63.6171 54.4091 62.8481 55.1745C62.0793 55.9433 61.0694 56.3297 60.0595 56.3297C59.0496 56.3297 58.0363 55.9435 57.2674 55.1745L33.2224 31.1292C32.8575 30.7642 32.8575 30.1689 33.2224 29.8039L33.3713 29.6552L31.9468 28.2272C31.3764 28.6737 30.7987 29.0847 30.2141 29.4533C29.2008 30.0982 28.1803 30.6226 27.181 31.0229C27.259 31.2852 27.298 31.5544 27.298 31.8273C27.298 32.5396 27.0288 33.2553 26.4831 33.7974C25.3989 34.8818 23.6236 34.8818 22.5394 33.7974L20.8493 32.1073C20.4808 31.7423 20.4808 31.1506 20.8493 30.7821C21.2141 30.4171 21.8095 30.4171 22.1744 30.7821L23.8645 32.4722C24.2224 32.8301 24.8 32.8301 25.1579 32.4722C25.335 32.2951 25.4236 32.0612 25.4236 31.8273C25.4236 31.5899 25.335 31.3561 25.1579 31.1789L18.7763 24.7973C18.4184 24.4394 17.8373 24.4394 17.4794 24.7973C17.125 25.1517 17.125 25.7327 17.4794 26.0907L19.1695 27.7808C19.538 28.1458 19.538 28.7411 19.1695 29.1061C18.8046 29.4711 18.2127 29.4711 17.8442 29.1061L16.1541 27.4159C15.0699 26.3317 15.0699 24.5529 16.1541 23.4686C16.877 22.7457 17.9611 22.4836 18.9285 22.7706C19.329 21.7713 19.8569 20.7508 20.4982 19.7411C21.3416 18.4192 22.3762 17.1223 23.5845 15.9104ZM2.95875 43.6513C2.44138 43.6513 2.02325 43.2332 2.02325 42.716C2.02325 42.1951 2.44138 41.777 2.95875 41.777H4.819C5.33637 41.777 5.758 42.1951 5.758 42.716C5.758 43.2333 5.33625 43.6513 4.819 43.6513H2.95875ZM6.31075 38.0847C6.75725 38.3433 6.90963 38.9138 6.65088 39.3603C6.39225 39.8103 5.82175 39.9627 5.37175 39.7039L3.763 38.7721C3.31663 38.5134 3.16425 37.9429 3.42287 37.4966C3.6815 37.0466 4.25563 36.8942 4.702 37.1528L6.31075 38.0847ZM16.4021 34.0206C16.6572 33.5741 17.2277 33.4217 17.6742 33.6768C18.1243 33.9354 18.2766 34.5059 18.0215 34.9524L17.0896 36.5611C16.8345 37.0076 16.264 37.1635 15.8176 36.9048C15.3711 36.6497 15.2153 36.0793 15.4739 35.6292L16.4021 34.0206ZM19.5451 39.7039C19.0951 39.9592 18.5245 39.8067 18.2695 39.3567C18.0109 38.9102 18.1667 38.3398 18.6133 38.0847L20.2219 37.1528C20.6719 36.8977 21.2424 37.0501 21.4975 37.5001C21.7561 37.9466 21.6003 38.5169 21.1537 38.7721L19.5451 39.7039ZM6.89888 34.9524C6.64375 34.5059 6.79613 33.9354 7.24613 33.6768C7.69263 33.4217 8.26313 33.5741 8.51825 34.0206L9.45012 35.6293C9.70525 36.0793 9.55287 36.6498 9.10287 36.9049C8.65637 37.1636 8.086 37.0077 7.83075 36.5612L6.89888 34.9524ZM13.3975 35.0729C13.3975 35.5903 12.9794 36.0119 12.462 36.0119C11.9411 36.0119 11.523 35.5902 11.523 35.0729V33.2127C11.523 32.6954 11.9411 32.2773 12.462 32.2773C12.9794 32.2773 13.3975 32.6954 13.3975 33.2127V35.0729ZM31.8335 49.459V45.2034C31.8335 44.5586 31.5677 43.9703 31.1425 43.5416C30.7138 43.1165 30.1256 42.8507 29.4807 42.8507H14.6058C13.9609 42.8507 13.3728 43.1165 12.9439 43.5416C12.5188 43.9703 12.253 44.5586 12.253 45.2034V49.459H31.8335ZM33.7079 45.2033V49.4588H40.667C41.6095 49.4588 42.4635 49.8451 43.0836 50.4616C43.7001 51.0817 44.0864 51.9356 44.0864 52.8782V55.3903C44.0864 55.9077 43.6646 56.3295 43.1474 56.3295H24.1658C23.6484 56.3295 23.2302 55.9077 23.2302 55.3903C23.2302 54.8731 23.6484 54.4513 24.1658 54.4513H42.212V52.8782C42.212 52.453 42.0349 52.0703 41.755 51.7903C41.475 51.5105 41.0924 51.3332 40.6671 51.3332C28.2511 51.3332 15.8354 51.3332 3.41587 51.3332C2.99425 51.3332 2.608 51.5105 2.328 51.7903C2.04813 52.0702 1.8745 52.453 1.8745 52.8782V54.4513H19.9209C20.4381 54.4513 20.8563 54.8731 20.8563 55.3903C20.8563 55.9077 20.4381 56.3295 19.9209 56.3295H0.939C0.421625 56.3295 0 55.9077 0 55.3903V52.8782C0 51.9356 0.38625 51.0817 1.00275 50.4616C1.62275 49.8451 2.47675 49.4588 3.41575 49.4588H10.3784V45.2033C10.3784 44.0411 10.8531 42.9817 11.6185 42.2163C12.3839 41.451 13.4399 40.9762 14.6055 40.9762H29.4805C30.6427 40.9762 31.7021 41.451 32.4675 42.2163C33.2331 42.9817 33.7079 44.0411 33.7079 45.2033ZM34.6965 25.7184L34.0445 26.3704L33.389 27.0224L34.6965 28.3299L35.352 27.6779L36.0039 27.0259L34.6965 25.7184ZM32.4678 11.1022L38.8529 17.4838C39.03 17.6609 39.2639 17.7496 39.4977 17.7496C39.7352 17.7496 39.9691 17.6609 40.1463 17.4838C40.3235 17.3066 40.412 17.0727 40.412 16.8389C40.412 16.6016 40.3235 16.3677 40.1463 16.1904L33.7611 9.80894C33.4067 9.45107 32.8256 9.45107 32.4678 9.80894C32.2906 9.98607 32.202 10.2199 32.202 10.4538C32.202 10.6982 32.2976 10.9286 32.4678 11.1022ZM28.4176 14.4011C27.2235 15.1593 26.0365 16.1089 24.9097 17.2357C23.7829 18.3659 22.8334 19.5531 22.075 20.7437C21.4054 21.7926 20.8809 22.8519 20.5089 23.8794L26.0755 29.4426C27.1031 29.0704 28.1625 28.5461 29.2114 27.8799C30.402 27.1217 31.589 26.1721 32.7158 25.0453C33.8461 23.9184 34.7956 22.7279 35.554 21.5373C36.2201 20.4884 36.7445 19.4291 37.1166 18.4014L31.5536 12.8384C30.5225 13.2104 29.4665 13.7349 28.4176 14.4011Z" fill="#B38339"/>
</svg>
