<svg width="64" height="64" viewBox="0 0 64 64" fill="none" xmlns="http://www.w3.org/2000/svg">
<path d="M20.8301 48.59C21.8152 47.8316 22.5452 46.7651 22.8677 45.5321C23.0342 44.9085 23.2574 44.5081 23.6154 44.2281C23.9979 43.934 24.4127 43.849 24.9547 43.849H29.8765C30.3939 43.849 30.8155 44.2671 30.8155 44.7844C30.8155 45.3016 30.3939 45.7234 29.8765 45.7234H25.0859C24.8236 45.7234 24.7316 45.8014 24.6784 45.9997C24.246 47.6439 23.2787 49.0649 21.9747 50.0711C20.9259 50.8755 19.6646 51.4105 18.2895 51.5806V62.1256H20.398V57.2747C20.398 56.4314 20.7417 55.6625 21.2979 55.1061C21.8542 54.5499 22.6231 54.2061 23.4664 54.2061C24.3132 54.2061 25.0786 54.5499 25.6351 55.1061C26.1912 55.6624 26.5387 56.4314 26.5387 57.2747V62.1256H28.9305V52.2999C28.9305 51.453 29.2742 50.6841 29.8304 50.1279C30.3867 49.5715 31.1556 49.2279 31.9991 49.2279C32.8457 49.2279 33.6149 49.5715 34.171 50.1279C34.7274 50.6842 35.0711 51.4531 35.0711 52.2999V62.1256H37.4629V57.2747C37.4629 56.4314 37.8066 55.6625 38.363 55.1061C38.9191 54.5499 39.6882 54.2061 40.5349 54.2061C41.3784 54.2061 42.1471 54.5499 42.7036 55.1061C43.2597 55.6624 43.6035 56.4314 43.6035 57.2747V62.1256H45.7117C45.7117 58.6106 45.7117 55.0956 45.7117 51.5806C44.3297 51.4105 43.0649 50.872 42.0161 50.0641C40.7159 49.0614 39.752 47.644 39.3232 46.0069C39.2666 45.8298 39.2062 45.7234 38.9546 45.7234H34.1251C33.6041 45.7234 33.1861 45.3018 33.1861 44.7844C33.1861 44.267 33.6041 43.849 34.1251 43.849H39.0469C39.6067 43.849 40.0354 43.9624 40.4109 44.2706C40.7617 44.5576 40.9814 44.9581 41.1337 45.5391C41.4526 46.7651 42.1791 47.828 43.1569 48.5829C44.1952 49.3836 45.4317 49.7734 46.6614 49.7664C48.1214 49.7593 49.574 49.1959 50.6795 48.0939C51.7107 47.0628 52.3521 45.6384 52.3521 44.0616C52.3521 42.4955 51.7107 41.0675 50.6761 40.0329C49.6415 38.9981 48.2169 38.3569 46.6474 38.3569C36.8819 38.3569 27.1162 38.3569 17.3507 38.3569C15.7846 38.3569 14.3569 38.9981 13.3221 40.0329C12.2875 41.0675 11.6461 42.4955 11.6461 44.0616C11.6461 45.6314 12.2875 47.0557 13.3221 48.0904C14.4346 49.1995 15.8944 49.7665 17.3614 49.7665C18.5801 49.77 19.8027 49.3802 20.8301 48.59ZM39.1529 16.5829C39.5179 16.2179 40.1096 16.2179 40.4781 16.5829C40.8431 16.9514 40.8431 17.5431 40.4781 17.9081L37.6009 20.7854C37.9587 20.796 38.3911 20.7605 38.8765 20.6507C39.7234 20.4557 40.68 19.9881 41.6189 19.0491C42.5544 18.1138 43.0222 17.157 43.217 16.3101C43.5075 15.0486 43.2772 14.1451 43.0966 13.9644C42.9157 13.7837 42.0121 13.5534 40.7509 13.8439C39.904 14.0389 38.9471 14.5065 38.0119 15.442C36.7965 16.6609 36.3711 17.9152 36.3004 18.918C36.2896 19.1094 36.2862 19.283 36.2896 19.4424L39.1529 16.5829ZM36.0631 22.3231L32.9379 25.4484V27.6026C33.4552 27.7301 34.1107 28.0349 34.504 28.4034L44.7407 36.4823H46.6471C48.734 36.4823 50.6297 37.3363 52.0011 38.7075C53.3759 40.0824 54.2299 41.9781 54.2299 44.0616C54.2299 46.1523 53.3722 48.0479 51.9975 49.4191C50.8317 50.5779 49.2939 51.3645 47.5861 51.5806V62.0654C47.5861 62.6005 47.3701 63.0822 47.0192 63.4331C46.6684 63.7839 46.1831 64 45.6516 64C36.5486 64 27.4492 64 18.3499 64C17.815 64 17.333 63.7839 16.9822 63.4331C16.6314 63.0822 16.4154 62.6005 16.4154 62.0654V51.5841C14.7002 51.3715 13.1626 50.5814 11.9969 49.4156C10.6255 48.0444 9.77148 46.1486 9.77148 44.0616C9.77148 41.9781 10.6255 40.0825 11.9969 38.7075C13.3716 37.3363 15.2671 36.4823 17.3506 36.4823H19.2606L24.3879 32.4357C24.7916 32.1169 25.3801 32.1841 25.6989 32.5881C26.0177 32.992 25.9504 33.5802 25.5465 33.8991L22.2724 36.4823H41.7255L33.3489 29.8704C32.8599 29.5479 32.6332 29.36 31.999 29.36C31.5382 29.36 31.1201 29.5018 30.7551 29.7889L28.8772 31.27C28.4735 31.5889 27.8887 31.518 27.5662 31.1141C27.2472 30.7101 27.3181 30.1255 27.7222 29.8031L29.5967 28.3255C30.043 27.9711 30.5427 27.7337 31.0635 27.6026V25.4484L27.9381 22.3231C27.1621 22.5995 25.9892 22.7696 24.7066 22.4755C23.555 22.2097 22.2722 21.5933 21.057 20.3779C19.8416 19.1589 19.2252 17.8799 18.9594 16.7246C18.506 14.7615 19.1474 13.0644 19.5761 12.6391C20.0049 12.2104 21.7021 11.5655 23.665 12.019C24.8166 12.2847 26.0994 12.9012 27.3146 14.1166C28.9126 15.7146 29.4727 17.4155 29.5647 18.7939C29.625 19.6619 29.4761 20.4379 29.2705 21.0049L31.0635 22.7978V14.4991C30.2202 14.1165 29.1006 13.3086 28.2786 11.994C27.5699 10.8566 27.0346 9.3365 27.0346 7.38062C27.0346 7.2425 27.0417 7.10063 27.0487 6.9625C27.0666 6.44875 27.5025 6.04475 28.0164 6.066C28.5337 6.08725 28.9341 6.5195 28.9162 7.037C28.9091 7.15388 28.9091 7.26375 28.9091 7.38062C28.9091 8.93962 29.3202 10.1302 29.8659 11.0055C30.2555 11.6291 30.6842 12.0827 31.0634 12.391V7.38075C31.0634 6.86338 31.4816 6.44175 31.9989 6.44175C32.5162 6.44175 32.9379 6.86338 32.9379 7.38075V12.391C33.3134 12.0827 33.7421 11.6292 34.132 11.0055C34.6776 10.1302 35.0885 8.93975 35.0885 7.38062C35.0885 5.8215 34.6776 4.631 34.132 3.75575C33.3134 2.44475 32.3212 1.87425 31.9989 1.87425C31.889 1.87425 31.5806 2.023 31.152 2.34562C30.7799 2.622 30.3795 3.01175 30.0216 3.52912C29.724 3.95075 29.143 4.05713 28.7176 3.763C28.2926 3.46537 28.1861 2.88425 28.4837 2.459C28.9694 1.761 29.5184 1.22588 30.0324 0.84325C30.8011 0.26575 31.5736 0 31.9989 0C32.672 0 34.5181 0.83975 35.7227 2.76737C36.4315 3.90475 36.9631 5.42488 36.9631 7.38088C36.9631 9.33675 36.4315 10.8569 35.7227 11.9943C34.9007 13.3089 33.7811 14.1168 32.9379 14.4994V22.798L34.7306 21.0051C34.5252 20.4381 34.3764 19.6621 34.433 18.7941C34.5287 17.4157 35.0885 15.7149 36.6866 14.1169C37.9021 12.9015 39.1811 12.285 40.3364 12.0192C42.2992 11.5658 43.9965 12.2106 44.4219 12.6394C44.8506 13.0646 45.4954 14.7617 45.0417 16.7249C44.7761 17.88 44.1596 19.1591 42.9441 20.3781C41.7287 21.5935 40.4462 22.21 39.2947 22.4757C38.0082 22.7696 36.8391 22.5995 36.0631 22.3231ZM23.5232 17.9081C23.1582 17.5431 23.1582 16.9515 23.5232 16.5829C23.8882 16.2179 24.4835 16.2179 24.8485 16.5829L27.708 19.4424C27.7151 19.283 27.7114 19.1092 27.6972 18.918C27.6301 17.9152 27.2047 16.6609 25.9894 15.442C25.0539 14.5065 24.0936 14.0389 23.247 13.8439C21.989 13.5534 21.082 13.7836 20.9012 13.9644C20.7206 14.1451 20.4937 15.0486 20.7842 16.3101C20.9791 17.1569 21.4469 18.1136 22.3821 19.0491C23.3176 19.9881 24.2779 20.4557 25.1247 20.6507C25.6101 20.7605 26.0425 20.796 26.4004 20.7854L23.5232 17.9081ZM22.2722 62.1256H24.6641V57.2747C24.6641 56.9487 24.5294 56.6511 24.3099 56.4314C24.0936 56.2152 23.796 56.0806 23.4664 56.0806C23.1405 56.0806 22.8394 56.2152 22.6231 56.4314C22.407 56.6511 22.2722 56.9487 22.2722 57.2747V62.1256ZM30.8049 62.1256H33.1965V52.2999C33.1965 51.9704 33.062 51.6726 32.8422 51.4565C32.6262 51.2369 32.3284 51.1022 31.999 51.1022C31.6729 51.1022 31.3752 51.2369 31.1555 51.4565C30.9394 51.6726 30.8049 51.9702 30.8049 52.2999V62.1256ZM39.3371 62.1256H41.7287V57.2747C41.7287 56.9487 41.5942 56.6511 41.3781 56.4314C41.1584 56.2152 40.8607 56.0806 40.5346 56.0806C40.2052 56.0806 39.9076 56.2152 39.688 56.4314C39.4717 56.6511 39.3371 56.9487 39.3371 57.2747V62.1256ZM46.6471 40.6813C47.5826 40.6813 48.4259 41.0604 49.039 41.6734C49.6484 42.2829 50.0275 43.1296 50.0275 44.0616C50.0275 44.9936 49.6484 45.8404 49.039 46.4499C48.426 47.0628 47.5827 47.442 46.6471 47.442C45.7152 47.442 44.8719 47.0629 44.2587 46.4499C43.6457 45.8404 43.2702 44.9936 43.2702 44.0616C43.2702 43.1296 43.6457 42.2829 44.2587 41.6734C44.8719 41.0604 45.7152 40.6813 46.6471 40.6813ZM47.7137 42.9985C47.4407 42.7256 47.0652 42.5591 46.6471 42.5591C46.2326 42.5591 45.8569 42.7257 45.5841 42.9985C45.311 43.2714 45.1445 43.647 45.1445 44.0615C45.1445 44.4761 45.311 44.8553 45.5841 45.1245C45.8569 45.3974 46.2326 45.5674 46.6471 45.5674C47.0654 45.5674 47.4409 45.3974 47.7137 45.1245C47.983 44.8553 48.153 44.4761 48.153 44.0615C48.153 43.647 47.983 43.2714 47.7137 42.9985ZM17.3505 40.6813C18.286 40.6813 19.1295 41.0604 19.7425 41.6734C20.3519 42.2829 20.731 43.1296 20.731 44.0616C20.731 44.9936 20.3519 45.8404 19.7425 46.4499C19.1295 47.0628 18.2861 47.442 17.3505 47.442C16.4186 47.442 15.5754 47.0629 14.9624 46.4499C14.3494 45.8404 13.9739 44.9936 13.9739 44.0616C13.9739 43.1296 14.3494 42.2829 14.9624 41.6734C15.5754 41.0604 16.4186 40.6813 17.3505 40.6813ZM18.4136 42.9985C18.1442 42.7256 17.7687 42.5591 17.3505 42.5591C16.936 42.5591 16.5605 42.7257 16.2875 42.9985C16.0147 43.2714 15.8482 43.647 15.8482 44.0615C15.8482 44.4761 16.0147 44.8553 16.2875 45.1245C16.5605 45.3974 16.936 45.5674 17.3505 45.5674C17.7687 45.5674 18.1442 45.3974 18.4136 45.1245C18.6866 44.8553 18.8567 44.4761 18.8567 44.0615C18.8567 43.647 18.6865 43.2714 18.4136 42.9985Z" fill="#B38339"/>
</svg>
