<svg width="65" height="64" viewBox="0 0 65 64" fill="none" xmlns="http://www.w3.org/2000/svg">
<path d="M52.8588 60.0314C52.8588 59.514 53.2768 59.0924 53.7941 59.0924C54.3151 59.0924 54.7331 59.514 54.7331 60.0314V63.0645C54.7331 63.5819 54.3151 63.9999 53.7941 63.9999H22.5524C22.2937 63.9999 22.0634 63.9006 21.8862 63.7235L10.544 52.3814C10.3668 52.2043 10.264 51.9598 10.2677 51.7081C10.2677 37.2124 10.2677 22.7164 10.2677 8.21712C10.2677 7.69975 10.6893 7.2815 11.2067 7.2815C11.724 7.2815 12.1422 7.69975 12.1422 8.21712V10.5556H28.1261C28.2467 9.98875 28.4061 9.4325 28.6079 8.89038C28.3669 8.76275 28.1472 8.59612 27.9524 8.40487C27.4529 7.90512 27.1446 7.21775 27.1446 6.456C27.1446 5.69788 27.4529 5.00675 27.9524 4.51075C28.4522 4.01112 29.1431 3.69925 29.9014 3.69925H35.0994C35.8577 3.69925 36.5487 4.01112 37.0482 4.51075C37.5477 5.00675 37.8561 5.69775 37.8561 6.456C37.8561 7.21788 37.5477 7.90525 37.0482 8.40487C36.8568 8.59612 36.6337 8.76275 36.3927 8.89038C36.5733 9.36862 36.7223 9.87887 36.8427 10.4139C37.0448 11.3245 37.1581 12.3024 37.1581 13.3124C37.1581 14.3224 37.0448 15.3002 36.8427 16.2144C36.7223 16.7494 36.5734 17.2561 36.3927 17.7344C36.6337 17.8655 36.8568 18.0286 37.0482 18.2199C37.5477 18.7196 37.8561 19.4105 37.8561 20.1688C37.8561 20.927 37.5477 21.618 37.0482 22.1176C36.5487 22.6171 35.8578 22.9255 35.0994 22.9255H29.9014C29.1432 22.9255 28.4522 22.6171 27.9524 22.1176C27.4529 21.618 27.1446 20.9271 27.1446 20.1688C27.1446 19.4104 27.4529 18.7195 27.9524 18.2199C28.1473 18.0286 28.3669 17.862 28.6079 17.7344C28.4061 17.1922 28.2466 16.636 28.1261 16.0691H12.1422V50.7798H22.5524C23.0698 50.7798 23.4914 51.1979 23.4914 51.7151V62.1255H52.8588V60.0314ZM34.6246 48.1968C34.1072 48.1968 33.6856 47.775 33.6856 47.2578C33.6856 46.7404 34.1072 46.3223 34.6246 46.3223H48.7024V36.4576H16.2984V46.3223H30.3761C30.8934 46.3223 31.3151 46.7405 31.3151 47.2578C31.3151 47.775 30.8934 48.1968 30.3761 48.1968H15.3629C14.8422 48.1968 14.4239 47.775 14.4239 47.2578V35.5186C14.4239 35.0012 14.8422 34.5831 15.3629 34.5831H49.6414C50.1588 34.5831 50.5767 35.0012 50.5767 35.5186V47.2578C50.5767 47.775 50.1587 48.1968 49.6414 48.1968H34.6246ZM29.7101 25.2996H35.2907C36.2192 25.2996 37.0589 25.6751 37.6683 26.2846C38.2778 26.8941 38.6569 27.7374 38.6569 28.6621V30.3346H40.6272C41.1446 30.3346 41.5662 30.7562 41.5662 31.2736C41.5662 31.791 41.1446 32.209 40.6272 32.209C35.2093 32.209 29.7916 32.209 24.3738 32.209C23.8564 32.209 23.4348 31.7909 23.4348 31.2736C23.4348 30.7562 23.8564 30.3346 24.3738 30.3346H26.3438V28.6621C26.3438 27.7374 26.7229 26.894 27.3324 26.2846C27.9421 25.6751 28.7853 25.2996 29.7101 25.2996ZM35.2907 27.174H29.7101C29.3026 27.174 28.9306 27.3405 28.6576 27.6098C28.3883 27.8826 28.2218 28.2546 28.2218 28.6621V30.3346H36.7789V28.6621C36.7789 28.2546 36.6124 27.8826 36.3432 27.6098C36.0702 27.3405 35.6983 27.174 35.2907 27.174ZM42.9197 6.123C42.4023 6.123 41.9842 5.70138 41.9842 5.184C41.9842 4.66663 42.4024 4.24862 42.9197 4.24862H49.6414C50.1588 4.24862 50.5767 4.66675 50.5767 5.184C50.5767 5.70138 50.1587 6.123 49.6414 6.123H42.9197ZM42.9197 10.3679C42.4023 10.3679 41.9842 9.94975 41.9842 9.4325C41.9842 8.91512 42.4024 8.4935 42.9197 8.4935H49.6414C50.1588 8.4935 50.5767 8.91512 50.5767 9.4325C50.5767 9.94987 50.1587 10.3679 49.6414 10.3679H42.9197ZM28.2858 52.6541C27.7684 52.6541 27.3466 52.236 27.3466 51.7151C27.3466 51.1978 27.7684 50.7798 28.2858 50.7798H49.6416C50.1589 50.7798 50.5768 51.1979 50.5768 51.7151C50.5768 52.236 50.1588 52.6541 49.6416 52.6541H28.2858ZM28.2858 56.9026C27.7684 56.9026 27.3466 56.481 27.3466 55.9636C27.3466 55.4463 27.7684 55.0246 28.2858 55.0246H46.3638C46.8812 55.0246 47.3028 55.4463 47.3028 55.9636C47.3028 56.481 46.8812 56.9026 46.3638 56.9026H28.2858ZM13.4674 52.6541L21.6136 60.8003V52.6541H13.4674ZM35.0994 19.2865H29.9014C29.6676 19.2865 29.4442 19.3822 29.2777 19.5451C29.1183 19.7081 29.0192 19.9279 29.0192 20.1688C29.0192 20.4096 29.1183 20.6294 29.2777 20.7924C29.4408 20.9517 29.6606 21.051 29.9014 21.051H35.0994C35.3404 21.051 35.5599 20.9517 35.7229 20.7924C35.8823 20.6293 35.9817 20.4097 35.9817 20.1688C35.9817 19.9278 35.8823 19.708 35.7229 19.5451C35.5599 19.3857 35.3404 19.2865 35.0994 19.2865ZM29.9014 7.33838H35.0994C35.3333 7.33838 35.5564 7.24625 35.7229 7.07975C35.8823 6.92037 35.9817 6.70062 35.9817 6.45612C35.9817 6.21512 35.8823 5.99563 35.7229 5.83612C35.5598 5.673 35.3403 5.57387 35.0994 5.57387H29.9014C29.6604 5.57387 29.4407 5.673 29.2777 5.83612C29.1183 5.9955 29.0192 6.21512 29.0192 6.45612C29.0192 6.70062 29.1183 6.92037 29.2777 7.07975C29.4442 7.24613 29.6676 7.33838 29.9014 7.33838ZM12.1422 12.43V14.1947H27.8463V13.3124V12.43H12.1422ZM29.9828 10.8144C29.8129 11.5798 29.7206 12.4195 29.7206 13.3124C29.7206 14.2054 29.8128 15.0486 29.9828 15.8105C30.1104 16.388 30.2841 16.9266 30.4897 17.4121H34.5114C34.7204 16.9266 34.8903 16.3881 35.0181 15.8105C35.1882 15.0486 35.2803 14.2054 35.2803 13.3124C35.2803 12.4194 35.1883 11.5798 35.0181 10.8144C34.8903 10.2369 34.7204 9.69825 34.5114 9.21638H30.4897C30.2841 9.69825 30.1104 10.2369 29.9828 10.8144ZM12.1422 3.97213C12.1422 4.4895 11.7239 4.90763 11.2067 4.90763C10.6894 4.90763 10.2677 4.48938 10.2677 3.97213V0.939125C10.2677 0.42175 10.6893 0 11.2067 0H53.7941C54.3151 0 54.7331 0.42175 54.7331 0.939125V55.783C54.7331 56.3004 54.3151 56.722 53.7941 56.722C53.2767 56.722 52.8588 56.3004 52.8588 55.783V1.8745H12.1422V3.97213Z" fill="#B38339"/>
</svg>
