<svg width="64" height="64" viewBox="0 0 64 64" fill="none" xmlns="http://www.w3.org/2000/svg">
<path d="M31.2503 16.5625C31.768 16.5625 32.1878 16.1428 32.1878 15.625C32.1878 15.1072 31.768 14.6875 31.2503 14.6875H18.8789C18.3612 14.6875 17.9414 15.1072 17.9414 15.625C17.9414 16.1428 18.3612 16.5625 18.8789 16.5625H31.2503Z" fill="#B38339"/>
<path d="M13.6914 22C13.6914 22.5178 14.1112 22.9375 14.6289 22.9375H35.5003C36.0182 22.9375 36.4378 22.5178 36.4378 22C36.4378 21.4822 36.0182 21.0625 35.5003 21.0625H14.6289C14.1112 21.0625 13.6914 21.4822 13.6914 22Z" fill="#B38339"/>
<path d="M14.6289 27.3125H35.5003C36.0182 27.3125 36.4378 26.8928 36.4378 26.375C36.4378 25.8572 36.0182 25.4375 35.5003 25.4375H14.6289C14.1112 25.4375 13.6914 25.8572 13.6914 26.375C13.6914 26.8928 14.1112 27.3125 14.6289 27.3125Z" fill="#B38339"/>
<path d="M14.6289 36.0625H21.7503C22.268 36.0625 22.6878 35.6428 22.6878 35.125C22.6878 34.6072 22.268 34.1875 21.7503 34.1875H14.6289C14.1112 34.1875 13.6914 34.6072 13.6914 35.125C13.6914 35.6428 14.1112 36.0625 14.6289 36.0625Z" fill="#B38339"/>
<path d="M56.8115 41.8102C57.3293 41.8102 57.749 41.3905 57.749 40.8727V36.6598C57.749 36.0836 57.4565 35.5584 56.9666 35.2549L52.4578 32.4622V1.3125C52.4578 0.58875 51.8691 0 51.1453 0H16.1446C15.4208 0 14.8321 0.58875 14.8321 1.3125V4.29012H11.8545C11.1307 4.29012 10.542 4.87887 10.542 5.60262V8.58025H7.56445C6.8407 8.58025 6.25195 9.169 6.25195 9.89275V57.7637C6.25195 58.4875 6.8407 59.0762 7.56445 59.0762H14.5005C15.0182 59.0762 15.438 58.6565 15.438 58.1387C15.438 57.621 15.0182 57.2012 14.5005 57.2012H8.12695V10.4552H42.0027V27.7016L36.304 31.2313C36.3885 31.0905 36.438 30.9263 36.438 30.75C36.438 30.2323 36.0183 29.8125 35.5005 29.8125H14.6291C14.1113 29.8125 13.6916 30.2323 13.6916 30.75C13.6916 31.2677 14.1113 31.6875 14.6291 31.6875H35.5005C35.5251 31.6875 35.5491 31.6856 35.5732 31.6839L31.531 34.1875H24.7505C24.2327 34.1875 23.813 34.6073 23.813 35.125C23.813 35.6427 24.2327 36.0625 24.7505 36.0625H29.1368C29.0646 36.2496 29.0252 36.4511 29.0252 36.6599V38.5625H14.6291C14.1113 38.5625 13.6916 38.9823 13.6916 39.5C13.6916 40.0177 14.1113 40.4375 14.6291 40.4375H29.0251V42.9375H14.6291C14.1113 42.9375 13.6916 43.3573 13.6916 43.875C13.6916 44.3927 14.1113 44.8125 14.6291 44.8125H29.0251V47.0225C29.0251 47.1194 29.0266 47.216 29.0291 47.3125H14.6291C14.1113 47.3125 13.6916 47.7323 13.6916 48.25C13.6916 48.7677 14.1113 49.1875 14.6291 49.1875H29.2322C29.7177 51.7009 31.0411 53.9952 33.0247 55.6856L34.8032 57.2012H18.8755C18.3577 57.2012 17.938 57.621 17.938 58.1387C17.938 58.6565 18.3577 59.0762 18.8755 59.0762H37.0035L42.3153 63.603C42.6257 63.8676 43.0065 63.9999 43.3871 63.9999C43.7677 63.9999 44.1485 63.8675 44.4588 63.603L53.7495 55.6855C56.2912 53.5195 57.749 50.3619 57.749 47.0224V45.2477C57.749 44.73 57.3293 44.3102 56.8115 44.3102C56.2936 44.3102 55.874 44.73 55.874 45.2477V47.0224C55.874 49.8117 54.6563 52.4492 52.5333 54.2584L43.387 62.0529L34.2407 54.2584C32.1177 52.4492 30.9001 49.8117 30.9001 47.0224V36.7836L43.387 29.0495L55.874 36.7836V40.8726C55.874 41.3906 56.2937 41.8102 56.8115 41.8102ZM43.8777 27.21V9.89275C43.8777 9.169 43.289 8.58025 42.5652 8.58025H12.417V6.16512H46.2928V12.75C46.2928 13.2677 46.7125 13.6875 47.2303 13.6875C47.7482 13.6875 48.1678 13.2677 48.1678 12.75V5.60262C48.1678 4.87887 47.5791 4.29012 46.8553 4.29012H16.7071V1.875H50.5828V31.301L48.1678 29.8051V17.125C48.1678 16.6073 47.7482 16.1875 47.2303 16.1875C46.7125 16.1875 46.2928 16.6073 46.2928 17.125V28.6439L44.2571 27.383C44.1362 27.3081 44.0087 27.2511 43.8777 27.21Z" fill="#B38339"/>
<path d="M34.7988 43.8412C34.7988 48.5763 38.6511 52.4287 43.3862 52.4287C48.1215 52.4287 51.9737 48.5764 51.9737 43.8412C51.9737 39.1059 48.1215 35.2537 43.3862 35.2537C38.6511 35.2537 34.7988 39.106 34.7988 43.8412ZM50.0987 43.8412C50.0987 47.5424 47.0875 50.5537 43.3862 50.5537C39.6851 50.5537 36.6738 47.5425 36.6738 43.8412C36.6738 40.1398 39.6851 37.1287 43.3862 37.1287C47.0875 37.1287 50.0987 40.1399 50.0987 43.8412Z" fill="#B38339"/>
<path d="M41.4617 42.9161C41.0957 42.5499 40.502 42.5499 40.1359 42.9161C39.7698 43.2822 39.7698 43.8758 40.1359 44.2418L42.3982 46.5039C42.5813 46.6869 42.8213 46.7786 43.0612 46.7786C43.301 46.7786 43.541 46.6871 43.7242 46.5039L47.2305 42.9976C47.5967 42.6314 47.5967 42.0378 47.2305 41.6718C46.8643 41.3057 46.2708 41.3057 45.9047 41.6718L43.0613 44.5153L41.4617 42.9161Z" fill="#B38339"/>
</svg>
