<svg width="65" height="64" viewBox="0 0 65 64" fill="none" xmlns="http://www.w3.org/2000/svg">
<g clip-path="url(#clip0_55_6688)">
<path d="M7.56913 43.9909C7.56913 43.4735 7.99088 43.0555 8.50825 43.0555C9.0255 43.0555 9.44725 43.4736 9.44725 43.9909V59.3126H55.5575V24.4242H9.44713V39.7459C9.44713 40.2632 9.02538 40.6814 8.50813 40.6814C7.99075 40.6814 7.569 40.2632 7.569 39.7459V24.4242H1.43913C0.92175 24.4242 0.5 24.0026 0.5 23.4852C0.5 23.1594 0.670125 22.8687 0.92525 22.7021L11.1799 14.7614V3.75199C11.1799 3.23461 11.6015 2.81299 12.1189 2.81299H19.188C19.7054 2.81299 20.127 3.23461 20.127 3.75199V7.84111L26.3634 3.01149C26.53 2.88386 26.7284 2.81311 26.9375 2.81311H38.0672C38.3083 2.81311 38.5315 2.90524 38.698 3.05761L47.8966 10.1762C48.3041 10.4916 48.3785 11.0799 48.0631 11.4872C47.7477 11.8982 47.1631 11.9726 46.752 11.6574L37.7518 4.68749H27.2528C19.5599 10.6404 11.8673 16.5969 4.1745 22.5497H8.50813H56.4927H60.8264L50.1111 14.2546C49.7036 13.9392 49.6292 13.3546 49.9445 12.9436C50.2599 12.5361 50.8445 12.4617 51.2556 12.777L64.1359 22.7446C64.5434 23.06 64.6214 23.6482 64.3059 24.0557C64.1251 24.286 63.8559 24.4242 63.5654 24.4242H57.4318V60.248C57.4318 60.7689 57.0135 61.187 56.4926 61.187H8.50813C7.99075 61.187 7.569 60.7689 7.569 60.248V43.9909H7.56913ZM33.4395 9.21236V13.057H37.2805C37.0927 12.0896 36.6179 11.2215 35.9446 10.5519C35.275 9.87861 34.4069 9.40374 33.4395 9.21236ZM37.2805 14.9315H33.4395V18.776C34.4069 18.5846 35.275 18.1099 35.9446 17.4402C36.6179 16.767 37.0927 15.9024 37.2805 14.9315ZM31.565 18.776V14.9315H27.7204C27.9081 15.9024 28.3865 16.767 29.0562 17.4402C29.7295 18.1099 30.5941 18.5846 31.565 18.776ZM27.7205 13.057H31.5651V9.21236C30.5941 9.40374 29.7296 9.87861 29.0564 10.5519C28.3866 11.2215 27.9083 12.0896 27.7205 13.057ZM32.5005 7.24936C34.3644 7.24936 36.051 8.00411 37.2699 9.22311C38.4924 10.4456 39.2471 12.1322 39.2471 13.9961C39.2471 15.8564 38.4924 17.543 37.2699 18.7655C36.051 19.9845 34.3643 20.7392 32.5005 20.7392C30.6402 20.7392 28.9535 19.9845 27.7311 18.7655C26.5122 17.543 25.7539 15.8564 25.7539 13.9961C25.7539 12.1324 26.5121 10.4456 27.7311 9.22311C28.9535 8.00411 30.6402 7.24936 32.5005 7.24936ZM18.2525 4.68749H13.0544V13.3121L18.2525 9.29036V4.68749ZM27.2846 46.9354H31.5651V34.3139H25.0877L28.3795 38.5836C28.5319 38.7856 28.5991 39.0372 28.5637 39.2887C28.376 40.614 27.7064 41.7834 26.7425 42.6231C25.7857 43.4486 24.5456 43.9484 23.1884 43.9484C21.8313 43.9484 20.5875 43.4487 19.6344 42.6231C18.667 41.7832 18.0009 40.614 17.8095 39.2887C17.7705 39.0124 17.8556 38.7466 18.0256 38.5482L22.4018 32.8611C22.5683 32.606 22.8587 32.436 23.1882 32.436H31.5649V30.1327C31.5649 29.6154 31.983 29.1937 32.5003 29.1937C33.0175 29.1937 33.4393 29.6155 33.4393 30.1327V32.436H41.8159C42.1419 32.436 42.4324 32.606 42.599 32.8611L47.0034 38.5837C47.1594 38.7857 47.2266 39.0374 47.1912 39.2889C47.0034 40.6141 46.3338 41.7835 45.3664 42.6232C44.4131 43.4487 43.1695 43.9485 41.8159 43.9485C40.4588 43.9485 39.215 43.4489 38.2617 42.6232C37.2944 41.7834 36.6248 40.6141 36.437 39.2889C36.398 39.0125 36.483 38.7467 36.6496 38.5519L39.9131 34.314H33.4393V46.9355H37.7161C38.7048 46.9355 39.6012 47.3395 40.2531 47.9915C40.9016 48.64 41.3055 49.5364 41.3055 50.525C41.3055 51.5136 40.9015 52.4136 40.2531 53.062C39.6011 53.714 38.7048 54.1144 37.7161 54.1144H27.2844C26.2957 54.1144 25.3993 53.714 24.7474 53.062C24.0989 52.4136 23.695 51.5135 23.695 50.525C23.695 49.5364 24.0989 48.6399 24.7474 47.9915C25.3995 47.3394 26.296 46.9354 27.2846 46.9354ZM37.7164 48.8099H32.5005H27.2846C26.8134 48.8099 26.3846 49.0047 26.0763 49.3165C25.7644 49.6284 25.5695 50.0571 25.5695 50.5249C25.5695 50.9961 25.7644 51.4249 26.0763 51.7366C26.3845 52.0485 26.8132 52.2399 27.2846 52.2399H37.7164C38.1876 52.2399 38.6164 52.0485 38.9282 51.7366C39.2401 51.4247 39.4314 50.9961 39.4314 50.5249C39.4314 50.0571 39.24 49.6284 38.9282 49.3165C38.6164 49.0047 38.1876 48.8099 37.7164 48.8099ZM44.1441 41.2092C44.6863 40.738 45.0866 40.1072 45.2674 39.3915L41.8161 34.9056L38.3614 39.3915C38.542 40.1074 38.9425 40.738 39.4846 41.2092C40.1083 41.7479 40.9196 42.0739 41.8161 42.0739C42.709 42.0739 43.524 41.7479 44.1441 41.2092ZM25.5164 41.2092C26.0585 40.738 26.459 40.1072 26.6397 39.3915L23.1884 34.9056L19.7371 39.3915C19.9179 40.1074 20.3147 40.738 20.8569 41.2092C21.4805 41.7479 22.2955 42.0739 23.1884 42.0739C24.0814 42.0739 24.8964 41.7479 25.5164 41.2092Z" fill="#B38339"/>
</g>
<defs>
<clipPath id="clip0_55_6688">
<rect width="64" height="64" fill="white" transform="translate(0.5)"/>
</clipPath>
</defs>
</svg>
