<svg width="64" height="64" viewBox="0 0 64 64" fill="none" xmlns="http://www.w3.org/2000/svg">
<path d="M11.5549 44.2474C10.8461 44.8604 9.92838 45.2325 8.92212 45.2325C7.91937 45.2325 7.00163 44.8604 6.293 44.2474C5.57725 43.6273 5.08462 42.7627 4.94287 41.7814C4.90375 41.5049 4.98887 41.2391 5.15538 41.0407L8.139 37.1679C8.3055 36.9126 8.596 36.7426 8.92212 36.7426H16.806V34.8293C16.806 34.3119 17.2241 33.8902 17.7414 33.8902C18.2586 33.8902 18.6804 34.3119 18.6804 34.8293V36.7426H26.5607C26.8867 36.7426 27.1774 36.9126 27.344 37.1679L30.3522 41.0762C30.5082 41.2782 30.5755 41.5297 30.5401 41.7815C30.402 42.7629 29.9059 43.6274 29.1901 44.2475C28.485 44.8605 27.5636 45.2326 26.5609 45.2326C25.5545 45.2326 24.6368 44.8605 23.9281 44.2475C23.2124 43.6274 22.7199 42.7629 22.5781 41.7815C22.539 41.505 22.6241 41.2393 22.7943 41.0409L24.658 38.6171H18.6805V47.2982H21.9298C22.688 47.2982 23.3754 47.61 23.8751 48.1097C24.3746 48.6094 24.6865 49.2967 24.6865 50.0586C24.6865 50.8169 24.3746 51.5079 23.8751 52.0074C23.3755 52.5035 22.6881 52.8154 21.9298 52.8154H13.5569C12.795 52.8154 12.1076 52.5035 11.608 52.0074C11.1084 51.5079 10.7966 50.817 10.7966 50.0586C10.7966 49.2967 11.1084 48.6094 11.608 48.1097C12.1076 47.61 12.795 47.2982 13.5569 47.2982H16.8061V38.6171H10.825L12.7171 41.0762C12.8802 41.2854 12.9404 41.5405 12.905 41.7815C12.7667 42.7379 12.2847 43.6131 11.5549 44.2474ZM31.8476 39.3895C31.713 38.89 32.0106 38.3763 32.5103 38.2415C33.0099 38.1104 33.5238 38.4045 33.6582 38.9041C33.8461 39.6092 33.9914 40.3426 34.0906 41.1009C34.1898 41.8485 34.2394 42.5962 34.2394 43.3402C34.2394 45.732 33.7469 48.014 32.8574 50.0832H58.21C59.2873 50.0832 60.2651 49.6439 60.9739 48.9317C61.686 48.223 62.1255 47.245 62.1255 46.1677V33.8228C62.1255 33.3054 62.5471 32.8874 63.0645 32.8874C63.5819 32.8874 63.9999 33.3055 63.9999 33.8228V46.1677C63.9999 47.7622 63.3514 49.2081 62.2991 50.257C61.2503 51.3057 59.8046 51.9576 58.21 51.9576H31.915C31.1674 53.2332 30.2638 54.4061 29.2255 55.4442C26.1286 58.5412 21.8481 60.4582 17.1214 60.4582C12.391 60.4582 8.11413 58.5412 5.01375 55.4442C1.917 52.3475 0 48.0672 0 43.3404C0 38.61 1.917 34.3331 5.01375 31.2329C6.09812 30.1523 7.32412 29.2132 8.66 28.4514V19.352C8.66 17.7575 9.312 16.3119 10.3608 15.2594C11.4096 14.2105 12.8588 13.5621 14.4532 13.5621H22.6241V11.096C22.6241 9.6715 23.2054 8.37463 24.1443 7.43575C25.0831 6.49688 26.3801 5.91225 27.8081 5.91225H28.1092C28.1944 5.30613 28.4779 4.764 28.8925 4.353C29.392 3.85338 30.0795 3.5415 30.8412 3.5415H41.8221C42.5804 3.5415 43.2714 3.85338 43.771 4.353C44.182 4.764 44.4655 5.30613 44.5505 5.91225H44.8553C46.2833 5.91225 47.5766 6.49688 48.5191 7.43575C49.4581 8.37475 50.0391 9.67163 50.0391 11.096V13.5621H58.21C59.8046 13.5621 61.2503 14.2106 62.2991 15.2594C63.3515 16.3119 63.9999 17.7575 63.9999 19.352V29.5781C63.9999 30.0955 63.5817 30.5135 63.0645 30.5135C62.5472 30.5135 62.1255 30.0954 62.1255 29.5781V25.2374C61.6436 25.4357 61.1475 25.627 60.6409 25.8114C59.8719 26.0913 59.0781 26.357 58.2596 26.6121V29.8438C58.2596 30.8996 57.7067 31.8351 56.8139 32.4941C55.9989 33.0965 54.8899 33.4685 53.6816 33.4685C52.4734 33.4685 51.3678 33.0965 50.5529 32.4941C49.6564 31.835 49.1036 30.8996 49.1036 29.8438V28.678C47.2645 28.9651 45.3582 29.1883 43.4024 29.3476C41.1064 29.5355 38.743 29.6311 36.3299 29.6311C33.9204 29.6311 31.5535 29.5355 29.2609 29.3476C28.3644 29.2733 27.4751 29.1883 26.5998 29.0891C28.7861 30.5454 30.618 32.4871 31.9361 34.7619C32.1946 35.212 32.0424 35.7824 31.5959 36.041C31.1495 36.2996 30.5754 36.1474 30.3167 35.7009C28.9739 33.3835 27.0391 31.4559 24.7253 30.1201C22.415 28.7879 19.7859 28.0934 17.1213 28.0934C13.0819 28.0934 9.21612 29.6844 6.33887 32.558C3.582 35.3181 1.87413 39.1274 1.87413 43.3404C1.87413 47.5499 3.582 51.359 6.33887 54.1191C9.09912 56.876 12.9083 58.5839 17.1213 58.5839C21.3307 58.5839 25.1398 56.876 27.9001 54.1191C30.6569 51.359 32.3647 47.5497 32.3647 43.3404C32.3647 42.6459 32.3223 41.9797 32.2373 41.342C32.1524 40.6864 32.0213 40.0344 31.8476 39.3895ZM10.538 27.53C11.647 27.0693 12.8199 26.7184 14.0352 26.4953C13.3479 26.279 12.6746 26.0487 12.0226 25.8114C11.5159 25.627 11.0199 25.4357 10.538 25.2374V27.53ZM16.2782 26.2401C16.5546 26.226 16.8381 26.2189 17.1215 26.2189C18.6984 26.2189 20.229 26.435 21.6817 26.8355V25.1949C21.6817 24.9929 21.6003 24.8051 21.462 24.6705C21.3275 24.5359 21.1431 24.4509 20.9412 24.4509H17.0187C16.8167 24.4509 16.6325 24.5359 16.4944 24.6705C16.3598 24.8051 16.2782 24.9929 16.2782 25.1949V26.2401ZM28.1094 7.78638H27.8083C26.8978 7.78638 26.0719 8.1585 25.4696 8.76088C24.8708 9.35963 24.4986 10.1889 24.4986 11.096V13.5621H48.1647V11.096C48.1647 10.1889 47.7925 9.35963 47.1903 8.76088C46.5914 8.1585 45.7659 7.78638 44.8551 7.78638H44.5504C44.4653 8.39238 44.1819 8.9345 43.7709 9.349C43.2712 9.84863 42.5804 10.157 41.822 10.157H38.4559C37.9385 10.157 37.5169 9.73875 37.5169 9.2215C37.5169 8.70075 37.9385 8.2825 38.4559 8.2825H41.822C42.063 8.2825 42.2827 8.18338 42.4456 8.02388C42.605 7.86088 42.7043 7.64125 42.7043 7.40025V6.29838C42.7043 6.0575 42.605 5.83775 42.4456 5.67838C42.2826 5.51525 42.063 5.41613 41.822 5.41613H30.8412C30.6003 5.41613 30.3771 5.51525 30.2178 5.67838C30.0583 5.83775 29.959 6.0575 29.959 6.29838V7.40025C29.959 7.64125 30.0583 7.861 30.2178 8.02388C30.3771 8.18338 30.6004 8.2825 30.8412 8.2825H34.2075C34.7249 8.2825 35.1465 8.70075 35.1465 9.2215C35.1465 9.73888 34.7249 10.157 34.2075 10.157H30.8412C30.083 10.157 29.392 9.84863 28.8925 9.349C28.478 8.9345 28.1945 8.39238 28.1094 7.78638ZM14.4567 24.6669C14.5595 24.1566 14.8146 23.6996 15.169 23.3453C15.6437 22.8705 16.2994 22.5764 17.0187 22.5764H20.9412C21.6605 22.5764 22.316 22.8706 22.7909 23.3453C23.2621 23.8201 23.5561 24.4755 23.5561 25.1949V26.786C25.4305 27.0836 27.3866 27.3175 29.4062 27.4805C31.6421 27.6613 33.9559 27.757 36.33 27.757C38.7041 27.757 41.0214 27.6613 43.2573 27.4805C45.2769 27.3175 47.2292 27.0836 49.1039 26.786V25.1949C49.1039 24.4755 49.398 23.8201 49.8727 23.3453C50.3475 22.8705 51.003 22.5764 51.7224 22.5764H55.6413C56.3641 22.5764 57.0196 22.8706 57.4909 23.3453C57.8488 23.6996 58.1004 24.1566 58.2067 24.6669C58.8235 24.4684 59.4222 24.2665 60.0033 24.0539C60.7402 23.7846 61.449 23.5048 62.1258 23.2141V19.352C62.1258 18.2749 61.6862 17.2969 60.9741 16.5883C60.2654 15.876 59.2875 15.4365 58.2103 15.4365C43.6259 15.4365 29.038 15.4365 14.4535 15.4365C13.3762 15.4365 12.3984 15.876 11.6861 16.5883C10.9774 17.2969 10.538 18.2749 10.538 19.352V23.2141C11.2148 23.5046 11.9234 23.7845 12.6569 24.0539C13.2415 24.2665 13.8404 24.4684 14.4567 24.6669ZM55.6411 24.4508H51.7223C51.5203 24.4508 51.3325 24.5358 51.1979 24.6704C51.0633 24.805 50.9816 24.9928 50.9816 25.1948V29.8436C50.9816 30.2724 51.2404 30.6798 51.6655 30.9916C52.1686 31.3638 52.881 31.594 53.6818 31.594C54.4861 31.594 55.1982 31.3636 55.7014 30.9916C56.123 30.6798 56.3853 30.2722 56.3853 29.8436V25.1949C56.3853 24.9929 56.3003 24.8051 56.1655 24.6705C56.031 24.5358 55.8466 24.4508 55.6411 24.4508ZM21.9299 49.1763H13.557C13.3125 49.1763 13.0928 49.2755 12.9334 49.4349C12.774 49.5944 12.6748 49.814 12.6748 50.0585C12.6748 50.2995 12.774 50.5192 12.9334 50.6786C13.0928 50.8416 13.3125 50.9409 13.557 50.9409H21.9299C22.1709 50.9409 22.3905 50.8416 22.55 50.6786C22.7094 50.5192 22.8123 50.2995 22.8123 50.0585C22.8123 49.814 22.7095 49.5944 22.55 49.4349C22.3905 49.2755 22.1707 49.1763 21.9299 49.1763ZM27.9678 42.8336C28.2618 42.5821 28.4851 42.249 28.6055 41.8699L26.561 39.2124L24.5129 41.8699C24.6369 42.249 24.8601 42.5821 25.1542 42.8336C25.5264 43.1596 26.0189 43.3545 26.561 43.3545C27.0996 43.3545 27.5921 43.1596 27.9678 42.8336ZM10.3324 42.8336C10.623 42.5821 10.8461 42.249 10.9703 41.8699L8.92225 39.2124L6.87775 41.8699C6.99825 42.249 7.225 42.5821 7.51562 42.8336C7.89125 43.1596 8.38363 43.3545 8.92237 43.3545C9.46437 43.3545 9.95675 43.1596 10.3324 42.8336Z" fill="#B38339"/>
</svg>
