<svg width="64" height="64" viewBox="0 0 64 64" fill="none" xmlns="http://www.w3.org/2000/svg">
<g clip-path="url(#clip0_55_4817)">
<path d="M30.0801 10.2356C29.5429 10.2356 29.1074 10.6711 29.1074 11.2083C29.1074 11.7457 29.5429 12.1811 30.0801 12.1811H34.4613C35.4019 12.1811 36.1671 11.4158 36.1671 10.4753V7.10431C36.1671 6.16369 35.4019 5.39844 34.4613 5.39844H14.3415C13.4009 5.39844 12.6356 6.16369 12.6356 7.10431V10.4754C12.6356 11.4159 13.4009 12.1812 14.3415 12.1812H25.5079C26.0451 12.1812 26.4806 11.7457 26.4806 11.2084C26.4806 10.6711 26.0451 10.2357 25.5079 10.2357H14.5812V7.34406H34.2215V10.2354H30.0801V10.2356Z" fill="#B38339"/>
<path d="M8.28772 17.1754C8.28772 17.7128 8.72322 18.1481 9.26047 18.1481H39.7482C40.2856 18.1481 40.721 17.7126 40.721 17.1754C40.721 16.638 40.2855 16.2026 39.7482 16.2026H9.26047C8.72322 16.2025 8.28772 16.638 8.28772 17.1754Z" fill="#B38339"/>
<path d="M9.26059 24.269H39.7483C40.2857 24.269 40.7211 23.8335 40.7211 23.2962C40.7211 22.7589 40.2856 22.3235 39.7483 22.3235H9.26059C8.72334 22.3235 8.28784 22.759 8.28784 23.2962C8.28784 23.8336 8.72334 24.269 9.26059 24.269Z" fill="#B38339"/>
<path d="M33.7346 29.4171C33.7346 28.8797 33.2991 28.4443 32.7618 28.4443H9.26047C8.72322 28.4443 8.28772 28.8798 8.28772 29.4171C8.28772 29.9543 8.72322 30.3898 9.26047 30.3898H32.7617C33.299 30.3898 33.7346 29.9543 33.7346 29.4171V29.4171Z" fill="#B38339"/>
<path d="M21.4113 36.5104C21.9486 36.5104 22.3841 36.0749 22.3841 35.5377C22.3841 35.0003 21.9486 34.5649 21.4113 34.5649H9.26047C8.72322 34.5649 8.28772 35.0004 8.28772 35.5377C8.28772 36.0751 8.72322 36.5104 9.26047 36.5104H21.4113Z" fill="#B38339"/>
<path d="M8.08766 55.426C8.60466 55.5742 9.14254 55.2738 9.28979 54.757C9.29604 54.7354 9.93416 52.5955 12.4184 52.5955C13.6447 52.5955 14.2267 53.0773 15.0323 53.7442C15.9579 54.5104 17.11 55.4639 19.336 55.4639C22.1117 55.4639 23.6037 52.5293 23.6659 52.4044C23.9047 51.9248 23.7095 51.3439 23.2308 51.1035C22.752 50.863 22.168 51.0567 21.9257 51.5344C21.9155 51.5543 20.9015 53.5183 19.336 53.5183C17.8108 53.5183 17.132 52.9565 16.2728 52.2453C15.3693 51.4974 14.3454 50.6499 12.4183 50.6499C9.26879 50.6499 7.77066 52.9878 7.41854 54.2239C7.27141 54.7406 7.57104 55.2789 8.08766 55.426Z" fill="#B38339"/>
<path d="M63.4883 9.9885C63.392 9.74837 63.2041 9.55662 62.9661 9.45525L60.7058 8.4935C60.8954 8.01425 60.657 7.44538 60.1878 7.24263L59.7371 7.048L60.4684 5.3545C61.2944 3.43787 60.3808 1.14038 58.4661 0.31325C56.5529 -0.51325 54.2533 0.400625 53.4265 2.31325L52.673 4.05762C51.811 3.90737 50.9391 4.381 50.5931 5.18225L48.5668 9.87463V4.89463C48.5668 2.19563 46.371 0 43.6721 0H5.33527C2.63714 0 0.442017 2.19513 0.442017 4.89325V59.1068C0.442017 61.8049 2.63714 64 5.33527 64H43.6735C46.3716 64 48.5666 61.8049 48.5666 59.1068V45.487C48.5666 44.9496 48.1311 44.5143 47.5939 44.5143C47.0566 44.5143 46.6211 44.9497 46.6211 45.487V59.1068C46.6211 60.7321 45.2989 62.0544 43.6736 62.0544H5.33527C3.70989 62.0544 2.38764 60.7321 2.38764 59.1068V4.89325C2.38764 3.26787 3.71002 1.94562 5.33527 1.94562H43.6721C45.2981 1.94562 46.6211 3.2685 46.6211 4.89463V14.3799L31.7104 48.9139C31.6585 49.0341 31.6296 49.169 31.6299 49.3001L31.6413 57.4946C31.6428 59.3231 33.9039 60.3077 35.2423 59.0494L41.2133 53.4385C41.2958 53.3619 41.3649 53.2664 41.4153 53.166C41.4205 53.1556 41.4258 53.1454 41.4306 53.1348C41.4338 53.1281 41.4374 53.1218 41.4403 53.115L59.9358 10.2802L61.3058 10.8631L54.0703 27.6884C53.858 28.1819 54.086 28.7541 54.5796 28.9664C54.7049 29.0204 54.8353 29.0457 54.9634 29.0457C55.3404 29.0457 55.6991 28.8253 55.8575 28.457L63.4788 10.7347C63.581 10.497 63.5844 10.2285 63.4883 9.9885V9.9885ZM57.0575 1.949C58.3478 2.01525 59.1888 3.4085 58.6819 4.58362L57.951 6.27637L54.481 4.77838L55.2125 3.085C55.5258 2.36025 56.2658 1.90525 57.0575 1.949V1.949ZM52.366 5.9845L58.5235 8.64312L50.6998 26.7625L44.5413 24.1033L52.366 5.9845ZM40.0398 51.4509L33.8824 48.7919L43.7701 25.8896L49.9286 28.5489L40.0398 51.4509ZM33.9096 57.6316C33.7898 57.7441 33.5868 57.6579 33.5868 57.4927L33.5776 50.7796L38.8011 53.0351L33.9096 57.6316Z" fill="#B38339"/>
</g>
<defs>
<clipPath id="clip0_55_4817">
<rect width="64" height="64" fill="white"/>
</clipPath>
</defs>
</svg>
