<svg width="65" height="64" viewBox="0 0 65 64" fill="none" xmlns="http://www.w3.org/2000/svg">
<g clip-path="url(#clip0_55_4850)">
<path d="M63.5493 47.498H61.4438V13.228C61.4438 9.44922 58.3696 6.375 54.5913 6.375H46.917C46.3916 6.375 45.9663 6.80078 45.9663 7.32568C45.9663 7.85059 46.3916 8.27588 46.917 8.27588H54.5913C57.3218 8.27588 59.543 10.4976 59.543 13.228V47.498H5.45703V13.228C5.45703 10.4976 7.67822 8.27588 10.4087 8.27588H43.1143C43.6396 8.27588 44.0649 7.85059 44.0649 7.32568C44.0649 6.80078 43.6396 6.375 43.1143 6.375H10.4092C6.63037 6.375 3.55615 9.44922 3.55615 13.228V47.498H1.45068C0.925293 47.498 0.5 47.9238 0.5 48.4487V51.3232C0.5 54.7588 3.29541 57.5542 6.73145 57.5542H12.3999C12.9248 57.5542 13.3501 57.1289 13.3501 56.604C13.3501 56.0791 12.9248 55.6533 12.3999 55.6533H6.73145C4.34375 55.6533 2.40088 53.7104 2.40088 51.3232V49.3989H23.5713C23.939 51.3701 25.6704 52.8672 27.7466 52.8672H37.2534C39.3296 52.8672 41.061 51.3701 41.4287 49.3989H62.5991V51.3232C62.5991 53.7104 60.6562 55.6533 58.2686 55.6533H16.2021C15.6768 55.6533 15.2515 56.0786 15.2515 56.6035C15.2515 57.1284 15.6768 57.5542 16.2021 57.5542H58.2686C61.7046 57.5542 64.5 54.7588 64.5 51.3232V48.4487C64.5 47.9238 64.0747 47.498 63.5493 47.498V47.498ZM37.2534 50.9663H27.7466C26.7256 50.9663 25.855 50.311 25.5327 49.3989H39.4673C39.145 50.311 38.2744 50.9663 37.2534 50.9663Z" fill="#B38339"/>
<path d="M7.61133 13.228V44.3931C7.61133 44.918 8.03662 45.3438 8.56201 45.3438H56.438C56.9629 45.3438 57.3882 44.918 57.3882 44.3931V13.228C57.3882 11.6855 56.1333 10.4302 54.5908 10.4302H10.4092C8.86621 10.4307 7.61133 11.6855 7.61133 13.228V13.228ZM55.4873 13.228V43.4429H9.51221V13.228C9.51221 12.7334 9.91455 12.3315 10.4087 12.3315H54.5908C55.0854 12.3315 55.4873 12.7334 55.4873 13.228V13.228Z" fill="#B38339"/>
<path d="M32.5 19.7476C31.9751 19.7476 31.5493 20.1733 31.5493 20.6982V36.1025H27.7583C27.2334 36.1025 26.8076 36.5283 26.8076 37.0532C26.8076 37.5781 27.2334 38.0034 27.7583 38.0034H37.1338C37.6587 38.0034 38.0845 37.5781 38.0845 37.0532C38.0845 36.5283 37.6587 36.1025 37.1338 36.1025H33.4507V20.6982C33.4507 20.1733 33.0249 19.7476 32.5 19.7476Z" fill="#B38339"/>
<path d="M32.5 16.7148C33.0249 16.7148 33.4507 16.2891 33.4507 15.7642V14.3022C33.4507 13.7773 33.0249 13.3521 32.5 13.3521C31.9751 13.3521 31.5493 13.7773 31.5493 14.3022V15.7642C31.5493 16.2891 31.9751 16.7148 32.5 16.7148Z" fill="#B38339"/>
<path d="M18.0678 28.2168C18.7684 30.2627 20.6918 31.6372 22.8549 31.6372C25.017 31.6372 26.9408 30.2627 27.6415 28.2168C27.7294 27.96 27.702 27.6792 27.5712 27.4448H27.5717L24.3558 21.6973C24.7509 21.5688 25.1337 21.3838 25.4906 21.1392C27.3817 19.8438 29.871 19.1304 32.5004 19.1304C35.1293 19.1304 37.6185 19.8438 39.5097 21.1392C39.8666 21.3838 40.2499 21.5679 40.6449 21.6963L37.4286 27.4448H37.4291C37.2982 27.6792 37.2709 27.96 37.3588 28.2168C38.0595 30.2627 39.9828 31.6372 42.1454 31.6372C44.308 31.6372 46.2318 30.2627 46.932 28.2168C47.0204 27.96 46.9931 27.6792 46.8622 27.4448L43.6039 21.6216C44.1742 21.4038 44.7074 21.0674 45.1615 20.6128L46.0936 19.6812C46.4647 19.3101 46.4647 18.708 46.0936 18.3369C45.7225 17.9658 45.1205 17.9658 44.7494 18.3369L43.8178 19.2686C42.952 20.1343 41.5917 20.2617 40.5839 19.5708C38.3793 18.061 35.5087 17.2295 32.5004 17.2295C29.4916 17.2295 26.6205 18.061 24.4169 19.5708C23.4086 20.2617 22.0482 20.1343 21.183 19.2686L20.2509 18.3369C19.8798 17.9658 19.2782 17.9658 18.9071 18.3369C18.5355 18.708 18.5355 19.3101 18.9066 19.6812L19.8388 20.6128C20.2929 21.0674 20.8261 21.4043 21.3964 21.6221L18.1381 27.4448L18.1386 27.4453C18.0072 27.6792 17.9799 27.96 18.0678 28.2168V28.2168ZM42.1449 29.7363C41.3124 29.7363 40.536 29.4097 39.9608 28.8594H44.3295C43.7543 29.4097 42.9779 29.7363 42.1449 29.7363V29.7363ZM39.8788 26.9585L42.1449 22.9082L44.4115 26.9585H39.8788ZM22.8549 29.7363C22.0219 29.7363 21.2455 29.4097 20.6703 28.8594H25.039C24.4638 29.4097 23.6874 29.7363 22.8549 29.7363ZM20.5883 26.9585L22.8549 22.9082L25.121 26.9585H20.5883Z" fill="#B38339"/>
<path d="M39.3726 39.0981H25.5195C24.9946 39.0981 24.5693 39.5239 24.5693 40.0488C24.5693 40.5737 24.9946 40.999 25.5195 40.999H39.3726C39.8975 40.999 40.3232 40.5737 40.3232 40.0488C40.3232 39.5239 39.8975 39.0981 39.3726 39.0981Z" fill="#B38339"/>
</g>
<defs>
<clipPath id="clip0_55_4850">
<rect width="64" height="64" fill="white" transform="translate(0.5)"/>
</clipPath>
</defs>
</svg>
