<svg width="63" height="62" viewBox="0 0 63 62" fill="none" xmlns="http://www.w3.org/2000/svg">
<path d="M4.60653 51.4642H4.6098C5.11137 51.4624 5.51655 51.0543 5.51473 50.5528L5.34375 2.72461C5.34375 2.22377 5.75111 1.81641 6.25195 1.81641H10.5871C11.0887 1.81641 11.4953 1.40977 11.4953 0.908203C11.4953 0.406633 11.0887 0 10.5871 0H6.25195C4.74954 0 3.52734 1.2222 3.52734 2.72788L3.69845 50.5593C3.70014 51.0598 4.10641 51.4642 4.60653 51.4642Z" fill="#B38339"/>
<path d="M57.0101 33.119C57.5117 33.119 57.9183 32.7124 57.9183 32.2108V24.7551L59.2687 23.0967C59.5853 22.7077 59.5268 22.1357 59.1378 21.819C58.7489 21.5025 58.1768 21.5609 57.8601 21.9499L57.1385 22.8362C57.0965 22.8303 57.0539 22.8262 57.0101 22.8262H50.6933V19.7988H57.0101C57.5117 19.7988 57.9183 19.3922 57.9183 18.8906V11.4348L59.2687 9.77638C59.5853 9.38743 59.5268 8.81538 59.1378 8.49872C58.7489 8.18206 58.1768 8.24067 57.8601 8.62962L57.1385 9.51591C57.0965 9.50998 57.0539 9.50586 57.0101 9.50586H54.1552V2.72461C54.1552 1.2222 52.933 0 51.4306 0H48.04C47.5384 0 47.1318 0.406633 47.1318 0.908203C47.1318 1.40977 47.5384 1.81641 48.04 1.81641H51.4306C51.9315 1.81641 52.3388 2.22377 52.3388 2.72461V9.50586H50.6933V6.35742C50.6933 4.85501 49.4711 3.63281 47.9687 3.63281H45.9189L45.9209 2.72461C45.9209 1.2222 44.6987 0 43.1963 0H14.2199C13.7183 0 13.3116 0.406633 13.3116 0.908203C13.3116 1.40977 13.7183 1.81641 14.2199 1.81641H43.1964C43.6971 1.81641 44.1046 2.22377 44.1046 2.72267L43.9835 59.2754C43.9835 59.7762 43.576 60.1836 43.0753 60.1836H6.45411C5.95545 60.1836 5.54809 59.7779 5.54591 59.2777L5.51466 54.1833C5.51164 53.6817 5.10694 53.2816 4.60089 53.2806C4.09932 53.2837 3.69523 53.6928 3.69826 54.1944L3.7295 59.2871C3.73604 60.7829 4.95824 61.9999 6.45411 61.9999H46.708C48.045 61.9999 49.1593 61.0316 49.3886 59.7596H57.0101C57.5117 59.7596 57.9183 59.353 57.9183 58.8514V56.2213C57.9183 55.7197 57.5117 55.3131 57.0101 55.3131C56.5086 55.3131 56.1019 55.7197 56.1019 56.2213V57.9432H49.4418V51.2831H56.1019V52.5885C56.1019 53.09 56.5086 53.4967 57.0101 53.4967C57.5117 53.4967 57.9183 53.09 57.9183 52.5885V50.3749C57.9183 49.8733 57.5117 49.4667 57.0101 49.4667H50.6933V46.4393H57.0101C57.5117 46.4393 57.9183 46.0327 57.9183 45.5311V38.0754L59.2687 36.417C59.5853 36.028 59.5268 35.456 59.1378 35.1393C58.7489 34.8227 58.1768 34.8812 57.8601 35.2702L57.1385 36.1565C57.0965 36.1506 57.0539 36.1465 57.0101 36.1465H50.6933V33.1191H57.0101V33.119ZM51.1216 28.1921L52.6141 29.6846C52.7848 29.8553 53.016 29.9506 53.2562 29.9506C53.2716 29.9506 53.2871 29.9502 53.3026 29.9494C53.5592 29.9363 53.7984 29.8151 53.9606 29.6158L56.1021 26.9859V31.3026H49.4419V24.6425H55.6678L53.1872 27.6889L52.406 26.9078C52.0514 26.5529 51.4763 26.5531 51.1217 26.9078C50.7669 27.2623 50.7669 27.8374 51.1216 28.1921V28.1921ZM51.1216 14.8718L52.6141 16.3642C52.7848 16.535 53.016 16.6303 53.2562 16.6303C53.2716 16.6303 53.2871 16.6299 53.3026 16.6291C53.5592 16.616 53.7984 16.4948 53.9606 16.2955L56.1021 13.6655V17.9823H49.4419V11.3221H55.6678L53.1872 14.3686L52.406 13.5874C52.0514 13.2326 51.4763 13.2328 51.1217 13.5874C50.7669 13.942 50.7669 14.5171 51.1216 14.8718V14.8718ZM46.708 60.1835H45.6439C45.7445 59.8997 45.7998 59.5948 45.7998 59.2772L45.8017 58.3671H47.6162V59.2753C47.6162 59.776 47.2087 60.1835 46.708 60.1835ZM51.1216 41.5124L52.6141 43.0049C52.7848 43.1756 53.016 43.2709 53.2562 43.2709C53.2716 43.2709 53.2871 43.2705 53.3026 43.2697C53.5592 43.2566 53.7984 43.1354 53.9606 42.9361L56.1021 40.3062V44.6229H49.4419V37.9628H55.6678L53.1872 41.0092L52.406 40.2281C52.0514 39.8733 51.4763 39.8734 51.1217 40.2281C50.7669 40.5826 50.7669 41.1577 51.1216 41.5124ZM48.8769 36.1464H48.5336C48.032 36.1464 47.6254 36.553 47.6254 37.0546V45.5311C47.6254 46.0327 48.032 46.4393 48.5336 46.4393H48.8769V49.4667H48.5336C48.032 49.4667 47.6254 49.8733 47.6254 50.3749V56.5507H45.8057L45.9152 5.4491H47.9687C48.4695 5.4491 48.8769 5.85646 48.8769 6.3573V9.50574H48.5336C48.032 9.50574 47.6254 9.91237 47.6254 10.4139V18.8905C47.6254 19.3921 48.032 19.7987 48.5336 19.7987H48.8769V22.826H48.5336C48.032 22.826 47.6254 23.2327 47.6254 23.7343V32.2108C47.6254 32.7124 48.032 33.119 48.5336 33.119H48.8769V36.1464Z" fill="#B38339"/>
<path d="M12.6552 22.7456C13.7041 23.5678 14.9897 23.9789 16.2754 23.9789C17.5611 23.9789 18.8468 23.5678 19.8956 22.7456C20.2904 22.4361 20.3595 21.8653 20.0501 21.4705C19.7917 21.1409 19.3511 21.0393 18.9829 21.1947L17.4226 15.9745C18.5778 15.7499 19.5309 15.4031 20.4113 15.0814C21.4888 14.6877 22.5179 14.3122 23.8211 14.1889V16.0258C22.6995 16.1724 21.5486 16.5656 20.8572 17.068C20.4514 17.3629 20.3614 17.9308 20.6562 18.3366C20.8339 18.5812 21.1109 18.711 21.3917 18.711C21.5767 18.711 21.7636 18.6546 21.9248 18.5375C21.9492 18.5198 21.9768 18.5019 22.0046 18.4841V26.3108C22.0046 28.551 22.5239 30.2067 23.6885 31.6791C23.9484 32.0076 24.3276 32.196 24.7292 32.196C25.1307 32.196 25.51 32.0076 25.7698 31.6791C26.9344 30.2067 27.4538 28.551 27.4538 26.3108V18.4836C27.4808 18.5016 27.5083 18.5194 27.5337 18.5378C27.9396 18.8325 28.5075 18.7425 28.8023 18.3367C29.0971 17.9308 29.007 17.3629 28.6013 17.0682C27.8588 16.5289 26.7753 16.1522 25.6374 16.0179V14.189C26.9406 14.3123 27.9696 14.6877 29.0471 15.0815C29.9276 15.4033 30.8806 15.7501 32.0358 15.9746L30.4754 21.1948C30.1073 21.0396 29.6668 21.1409 29.4082 21.4707C29.0988 21.8654 29.168 22.4363 29.5627 22.7458C30.6118 23.568 31.8972 23.979 33.183 23.979C34.4685 23.979 35.7545 23.5678 36.8032 22.7458C37.1979 22.4364 37.2671 21.8654 36.9577 21.4707C36.6993 21.141 36.2587 21.0394 35.8905 21.1948L34.4014 16.213C34.4657 16.2139 34.5283 16.2159 34.5938 16.2159C35.0954 16.2159 35.502 15.8093 35.502 15.3077C35.502 14.8061 35.0954 14.3995 34.5938 14.3995C32.4732 14.3995 31.1118 13.9021 29.6704 13.3753C28.4783 12.9397 27.2503 12.4929 25.6372 12.3665V8.76514H25.8512C26.3528 8.76514 26.7594 8.3585 26.7594 7.85693C26.7594 7.35536 26.3528 6.94873 25.8512 6.94873H23.6069C23.1053 6.94873 22.6987 7.35536 22.6987 7.85693C22.6987 8.3585 23.1053 8.76514 23.6069 8.76514H23.8208V12.3665C22.2078 12.493 20.9797 12.9398 19.7877 13.3753C18.3463 13.9021 16.9849 14.3995 14.8643 14.3995C14.3627 14.3995 13.9561 14.8061 13.9561 15.3077C13.9561 15.8093 14.3627 16.2159 14.8643 16.2159C14.9297 16.2159 14.9923 16.2139 15.0566 16.213L13.5675 21.1948C13.1993 21.0396 12.7588 21.1409 12.5003 21.4707C12.1912 21.8653 12.2604 22.4361 12.6552 22.7456V22.7456ZM32.1253 22.0184L33.1832 18.479L34.2411 22.0184C33.5508 22.1962 32.8156 22.1962 32.1253 22.0184ZM25.6375 26.311C25.6375 27.8559 25.3615 29.0011 24.7293 30.0099C24.0971 29.001 23.8211 27.8558 23.8211 26.311V17.8629C24.1254 17.8107 24.4348 17.7792 24.7293 17.7792C25.0306 17.7792 25.3377 17.8049 25.6375 17.8512V26.311ZM15.2175 22.0184L16.2754 18.479L17.3332 22.0184C16.643 22.1962 15.9079 22.1962 15.2175 22.0184V22.0184Z" fill="#B38339"/>
<path d="M34.1143 35.1172H15.3447C14.8432 35.1172 14.4365 35.5238 14.4365 36.0254C14.4365 36.527 14.8432 36.9336 15.3447 36.9336H34.1143C34.6158 36.9336 35.0225 36.527 35.0225 36.0254C35.0225 35.5238 34.6158 35.1172 34.1143 35.1172Z" fill="#B38339"/>
<path d="M35.0225 40.8691C35.0225 40.3676 34.6158 39.9609 34.1143 39.9609H27.1514C26.6498 39.9609 26.2432 40.3676 26.2432 40.8691C26.2432 41.3707 26.6498 41.7773 27.1514 41.7773H34.1143C34.6158 41.7773 35.0225 41.3707 35.0225 40.8691Z" fill="#B38339"/>
<path d="M23.2158 40.8691C23.2158 40.3676 22.8092 39.9609 22.3076 39.9609H15.3447C14.8432 39.9609 14.4365 40.3676 14.4365 40.8691C14.4365 41.3707 14.8432 41.7773 15.3447 41.7773H22.3076C22.8092 41.7773 23.2158 41.3707 23.2158 40.8691Z" fill="#B38339"/>
<path d="M31.6924 44.8047H17.7666C17.265 44.8047 16.8584 45.2113 16.8584 45.7129C16.8584 46.2145 17.265 46.6211 17.7666 46.6211H31.6924C32.194 46.6211 32.6006 46.2145 32.6006 45.7129C32.6006 45.2113 32.194 44.8047 31.6924 44.8047Z" fill="#B38339"/>
<path d="M31.6924 49.6484H17.7666C17.265 49.6484 16.8584 50.0551 16.8584 50.5566C16.8584 51.0582 17.265 51.4648 17.7666 51.4648H31.6924C32.194 51.4648 32.6006 51.0582 32.6006 50.5566C32.6006 50.0551 32.194 49.6484 31.6924 49.6484Z" fill="#B38339"/>
</svg>
