<svg width="64" height="64" viewBox="0 0 64 64" fill="none" xmlns="http://www.w3.org/2000/svg">
<path d="M31.6293 39.7316H33.9998V20.5408H31.6293V39.7316ZM15.0712 58.5929H50.239C50.7563 58.5929 51.1744 59.011 51.1744 59.5283C51.1744 60.0491 50.7563 60.4673 50.239 60.4673H15.0712V62.1256H54.7213C54.6079 61.7075 54.5052 61.2929 54.4165 60.8783C54.2358 60.0563 54.1012 59.2129 54.009 58.3519C53.9559 57.8381 54.3279 57.3775 54.8417 57.3279C55.3554 57.2747 55.816 57.6468 55.8693 58.1605C55.9508 58.9294 56.0783 59.7019 56.2484 60.4814C56.4114 61.2396 56.6134 61.9803 56.8437 62.7066C57.0953 63.316 56.6488 63.9999 55.9755 63.9999H14.1358C11.9708 63.9999 10.0043 63.1176 8.57978 61.6932C7.15541 60.2652 6.26953 58.2986 6.26953 56.1372C6.26953 53.9722 7.15541 52.0056 8.57978 50.5812C10.0043 49.1567 11.9708 48.271 14.1358 48.271H18.4799L18.4977 47.006C18.5118 46.1626 18.8555 45.3974 19.4048 44.8481C19.9575 44.2954 20.7158 43.9518 21.5592 43.9518H27.551V42.4067C27.551 41.6698 27.8522 41.0036 28.3342 40.5182C28.7133 40.1391 29.2058 39.8734 29.755 39.7741V20.4982C29.2058 20.4026 28.7132 20.1334 28.3342 19.7541C27.9054 19.3254 27.6219 18.7549 27.5617 18.1171C27.4199 18.1279 27.2604 18.1384 27.0798 18.149C26.123 18.2164 25.1947 18.3014 24.2912 18.4006C23.384 18.4963 22.4734 18.6131 21.5663 18.7479C20.6734 18.8825 19.8017 19.0278 18.9548 19.1909C18.0335 19.3645 17.1193 19.5664 16.2052 19.7861V23.8929L20.2092 30.1009H20.9533C21.4352 30.1009 21.8923 30.2496 22.2005 30.643C22.3813 30.8734 22.4804 31.1532 22.4875 31.4721C22.4947 31.667 22.4628 31.8654 22.406 32.0532C21.9277 33.5201 20.9568 34.7816 19.6777 35.671C18.441 36.5285 16.9139 37.0353 15.2697 37.0353C13.622 37.0353 12.0984 36.5286 10.8618 35.671C9.58266 34.7816 8.61178 33.5201 8.13341 32.0532C8.07678 31.8796 8.04478 31.6494 8.05191 31.4721C8.05903 31.1532 8.15466 30.8732 8.33891 30.643C8.64016 30.2568 9.10428 30.0938 9.58266 30.1009H10.3303L14.3307 23.8929V20.2716C13.5052 20.502 12.6865 20.7571 11.8787 21.0406C11.0955 21.3135 10.2805 21.2425 9.58953 20.9095C8.90216 20.5764 8.33878 19.9811 8.06591 19.2015C7.79666 18.4184 7.86391 17.6035 8.19703 16.9125C8.53016 16.2251 9.12541 15.6616 9.90841 15.3889C10.7198 15.109 11.5597 14.8396 12.4278 14.5881C13.0727 14.4004 13.7069 14.2266 14.3305 14.0708V13.316C14.3305 12.7987 14.7522 12.377 15.2695 12.377C15.7869 12.377 16.205 12.7987 16.205 13.316V13.6314C16.5629 13.5534 16.9279 13.479 17.2964 13.4046C18.0263 13.2594 18.8023 13.1211 19.6244 12.9865C20.1312 12.9014 20.613 13.2487 20.6945 13.7589C20.7795 14.2691 20.4323 14.7475 19.922 14.8325C19.1815 14.953 18.4233 15.0911 17.6543 15.2435C17.1689 15.3391 16.687 15.4419 16.205 15.5483V17.8585C16.9739 17.6777 17.7712 17.5112 18.6039 17.3519C19.4933 17.1818 20.3898 17.0294 21.2968 16.8948C22.1933 16.7636 23.1252 16.6431 24.0925 16.5404C25.0422 16.4376 25.9953 16.349 26.9485 16.2817C27.1115 16.2711 27.3134 16.2569 27.5509 16.2428V13.9891C27.3312 13.9998 27.0762 14.0175 26.789 14.0387C26.378 14.0671 25.9245 14.106 25.4284 14.1485C24.8863 14.1946 24.4362 14.2406 24.0783 14.2761C23.5645 14.3293 23.1039 13.9572 23.0508 13.4434C22.9977 12.9296 23.3733 12.469 23.8869 12.4159C24.429 12.3591 24.8897 12.3131 25.2653 12.2812C25.6799 12.2458 26.144 12.2069 26.6578 12.1714C26.9094 12.1536 27.2034 12.1324 27.5508 12.1146C27.5508 11.3527 27.7917 10.6901 28.3339 10.1481C28.8193 9.66625 29.4854 9.365 30.2225 9.365H31.8773V6.93075C31.2785 6.76775 30.747 6.44887 30.3183 6.02362C29.6804 5.38587 29.2872 4.50362 29.2872 3.52912C29.2872 2.55463 29.6804 1.67237 30.3183 1.0345C30.9597 0.396875 31.8419 0 32.8163 0C33.7907 0 34.673 0.396875 35.3109 1.03463C35.9488 1.67238 36.3455 2.55475 36.3455 3.52925C36.3455 4.50375 35.9487 5.38587 35.3109 6.02375C34.8858 6.449 34.3507 6.76787 33.7518 6.93087V9.365H35.4065C36.1437 9.365 36.8098 9.66625 37.2952 10.1481C37.8373 10.6902 38.0818 11.3529 38.0818 12.1146C38.4254 12.1324 38.7232 12.1536 38.9712 12.1714C39.9812 12.2423 40.9874 12.3344 41.9867 12.4408C43.0072 12.5541 43.9887 12.6781 44.9312 12.8162C45.8985 12.9615 46.8623 13.1245 47.8154 13.3053C48.3682 13.4116 48.9068 13.5179 49.4242 13.6313V13.3159C49.4242 12.7986 49.8423 12.3769 50.3595 12.3769C50.8804 12.3769 51.2985 12.7986 51.2985 13.3159V14.0706C51.9222 14.2265 52.5564 14.4001 53.2013 14.588C54.0694 14.8396 54.9092 15.1089 55.7242 15.3888C56.5037 15.6616 57.0989 16.225 57.432 16.9124C57.7652 17.6034 57.8359 18.4182 57.5632 19.2014C57.2903 19.9809 56.7269 20.5761 56.0395 20.9094C55.3522 21.2424 54.5337 21.3133 53.7542 21.0405C52.9427 20.757 52.1242 20.5019 51.2985 20.2715V23.8927L55.2989 30.1007H56.0465C56.2132 30.1007 56.3974 30.1185 56.5568 30.1645C56.8615 30.2495 57.1095 30.409 57.2939 30.6429C57.4747 30.8733 57.5703 31.1531 57.5809 31.472C57.5844 31.6597 57.556 31.8724 57.4994 32.0531C57.0175 33.52 56.0465 34.7815 54.7675 35.6709C53.5309 36.5284 52.0072 37.0351 50.3595 37.0351C48.7155 37.0351 47.1918 36.5285 45.9517 35.6709C44.6725 34.7815 43.7052 33.52 43.2233 32.0531C43.1665 31.8795 43.1382 31.6493 43.1418 31.472C43.1489 31.1531 43.2482 30.8731 43.4289 30.6429C43.6132 30.409 43.8577 30.2496 44.1624 30.1645C44.3289 30.1184 44.5025 30.0971 44.6762 30.1007H45.4238L49.4242 23.8927V19.786C48.8432 19.6442 48.262 19.5131 47.6808 19.3891C47.1387 19.2758 46.6213 19.1765 46.1288 19.0844C45.6222 18.9958 45.2855 18.5104 45.374 18.0037C45.4662 17.4935 45.9517 17.1569 46.4583 17.249C47.0323 17.3518 47.5673 17.4545 48.0599 17.5572C48.556 17.6635 49.0095 17.7628 49.4242 17.8584V15.5481C48.7722 15.4029 48.1203 15.2682 47.4718 15.1442C46.5753 14.9742 45.6399 14.8148 44.6584 14.6695C43.7053 14.5278 42.7485 14.4072 41.7918 14.301C40.8387 14.1982 39.8537 14.1096 38.8402 14.0387C38.5532 14.0175 38.298 13.9998 38.0819 13.9891V16.2428C38.3158 16.2569 38.5178 16.2711 38.6807 16.2817C39.2122 16.3206 39.8004 16.3703 40.4488 16.4305C41.1043 16.4906 41.6889 16.5545 42.1992 16.6147C42.7129 16.6715 43.0814 17.1356 43.0248 17.6494C42.9645 18.1631 42.5004 18.5317 41.9865 18.475C41.3593 18.4006 40.7889 18.3369 40.2787 18.2908C39.7719 18.2411 39.1944 18.195 38.5495 18.149C38.3688 18.1384 38.2094 18.1278 38.0677 18.1171C38.0074 18.755 37.7239 19.3255 37.2952 19.7541C36.916 20.1333 36.4235 20.4026 35.8743 20.4982V39.7741C36.4234 39.8734 36.9159 40.1391 37.2952 40.5182C37.7805 41.0036 38.0818 41.6698 38.0818 42.4067V43.9518H44.07C44.8885 43.9553 45.6574 44.2741 46.2385 44.8517C46.809 45.4188 47.1314 46.1805 47.1314 46.9884C47.1349 47.41 47.1208 47.8457 47.1137 48.2711H55.9755C56.6098 48.2711 57.0669 48.8983 56.8614 49.5112C56.5957 50.2873 56.383 51.0633 56.2129 51.8356C56.0428 52.6116 55.9259 53.37 55.8514 54.107C55.8019 54.6207 55.3448 54.9964 54.8309 54.9468C54.3172 54.8936 53.9415 54.4365 53.9912 53.9227C54.0727 53.0901 54.2038 52.2644 54.3809 51.4389C54.4767 51.0101 54.5829 50.5814 54.7034 50.1455C41.4938 50.1455 28.2842 50.1455 15.0709 50.1455V51.8073H50.239C50.7563 51.8073 51.1744 52.2254 51.1744 52.7427C51.1744 53.2601 50.7563 53.6818 50.239 53.6818H15.0712V55.1984H49.633C50.1504 55.1984 50.5685 55.62 50.5685 56.1374C50.5685 56.6548 50.1504 57.0728 49.633 57.0728H15.0712V58.5929ZM13.1968 62.0513C13.1968 58.1075 13.1968 54.1637 13.1968 50.22C11.9248 50.4256 10.7802 51.0314 9.90491 51.9066C8.82066 52.9945 8.14391 54.4897 8.14391 56.1374C8.14391 57.7815 8.82066 59.2804 9.90491 60.3646C10.7802 61.2432 11.9248 61.8493 13.1968 62.0513ZM51.2985 16.0018V18.3333C51.5608 18.4041 51.8265 18.4785 52.0923 18.5565C52.9073 18.7904 53.6655 19.0312 54.3672 19.2757C54.6612 19.3785 54.9659 19.3501 55.2247 19.2261C55.4833 19.1021 55.6959 18.8752 55.7987 18.5847C55.9014 18.2942 55.873 17.986 55.749 17.7272C55.6215 17.4686 55.3983 17.256 55.1077 17.1567C54.3139 16.8769 53.506 16.6217 52.684 16.3808C52.2374 16.2534 51.7768 16.1258 51.2985 16.0018ZM14.3307 18.3333V16.0018C13.8523 16.1259 13.3917 16.2534 12.9488 16.381C12.1268 16.6219 11.3153 16.877 10.5215 17.157C10.231 17.2563 10.0078 17.4689 9.88378 17.7275C9.75616 17.9861 9.73141 18.2945 9.83066 18.585C9.93341 18.8755 10.146 19.1024 10.4047 19.2264C10.6633 19.3504 10.968 19.3787 11.2622 19.276C11.9638 19.0315 12.722 18.7906 13.537 18.5567C13.8027 18.4785 14.0684 18.4041 14.3307 18.3333ZM53.0737 30.1007L50.3594 25.8913L47.6488 30.1007H53.0737ZM17.9803 30.1007L15.2697 25.8913L12.5555 30.1007H17.9803ZM33.9857 2.35987C33.6844 2.06212 33.2734 1.87437 32.8163 1.87437C32.3592 1.87437 31.9447 2.06212 31.647 2.35987C31.3458 2.6575 31.1615 3.07212 31.1615 3.52912C31.1615 3.98612 31.3458 4.40075 31.647 4.69838C31.9447 4.99963 32.3592 5.18388 32.8163 5.18388C33.2734 5.18388 33.6844 4.99963 33.9857 4.69838C34.2834 4.40075 34.4675 3.98625 34.4675 3.52912C34.4675 3.072 34.2834 2.6575 33.9857 2.35987ZM47.0145 34.1295C47.9464 34.778 49.1052 35.1608 50.3594 35.1608C51.6173 35.1608 52.776 34.778 53.7079 34.1295C54.5017 33.5804 55.1323 32.8363 55.522 31.9751C52.0814 31.9751 48.6409 31.9751 45.1967 31.9751C45.5902 32.8363 46.2209 33.5804 47.0145 34.1295ZM11.9248 34.1295C12.8567 34.778 14.0118 35.1608 15.2697 35.1608C16.5275 35.1608 17.6828 34.778 18.6147 34.1295C19.4084 33.5804 20.0425 32.8363 20.4323 31.9751C16.9918 31.9751 13.5475 31.9751 10.1069 31.9751C10.4968 32.8363 11.1275 33.5804 11.9248 34.1295ZM30.6903 43.9518C31.2077 43.9518 31.6293 44.3699 31.6293 44.8871C31.6293 45.408 31.2077 45.8261 30.6903 45.8261H28.4863H21.559C21.2365 45.8261 20.9425 45.9572 20.7299 46.1734C20.5102 46.393 20.3719 46.6978 20.3649 47.0274L20.3472 48.2711H45.2463C45.2534 47.8423 45.2604 47.4171 45.264 46.9884C45.264 46.673 45.1294 46.386 44.9203 46.1769C44.69 45.9466 44.3923 45.8296 44.0699 45.8261H37.1428H34.9388C34.4215 45.8261 33.9998 45.408 33.9998 44.8871C33.9998 44.3697 34.4215 43.9518 34.9388 43.9518H36.2038V42.4067C36.2038 42.1871 36.1153 41.9886 35.9699 41.8434C35.8247 41.6981 35.6263 41.6095 35.4065 41.6095H30.2227C30.0065 41.6095 29.8045 41.6981 29.6593 41.8434C29.5139 41.9886 29.4254 42.1871 29.4254 42.4067V43.9518H30.6903ZM36.2038 17.8656C36.2038 15.9237 36.2038 13.9821 36.2038 12.0404C36.2038 11.8206 36.1153 11.6223 35.9699 11.477C35.8247 11.3316 35.6263 11.2395 35.4065 11.2395H30.2227C30.0065 11.2395 29.8045 11.3316 29.6593 11.477C29.5139 11.6223 29.4254 11.8207 29.4254 12.0404V17.8656C29.4254 18.0853 29.5139 18.2838 29.6593 18.429C29.8047 18.5743 30.0065 18.6665 30.2227 18.6665H35.4065C35.6263 18.6665 35.8247 18.5744 35.9699 18.429C36.1152 18.2838 36.2038 18.0853 36.2038 17.8656Z" fill="#B38339"/>
</svg>
