<svg width="63" height="62" viewBox="0 0 63 62" fill="none" xmlns="http://www.w3.org/2000/svg">
<g clip-path="url(#clip0_55_6455)">
<path d="M58.1598 28.0164L56.5542 21.5942C56.9931 21.501 57.3225 21.1115 57.3225 20.645V19.6095C57.3225 17.3613 55.4934 15.5323 53.2453 15.5323H45.9322V13.3964C45.9322 12.2901 45.0322 11.3901 43.9259 11.3901H6.64817C5.54186 11.3901 4.64189 12.2901 4.64189 13.3964V30.9998C4.64189 31.5359 5.0765 31.9706 5.6127 31.9706C6.14878 31.9706 6.58351 31.536 6.58351 30.9998V13.3964C6.58351 13.3607 6.61245 13.3318 6.64817 13.3318H43.9258C43.9615 13.3318 43.9905 13.3607 43.9905 13.3964V31.0001C43.9905 31.5361 44.4251 31.9709 44.9613 31.9709C45.4973 31.9709 45.9321 31.5363 45.9321 31.0001V29.8996H57.3838C57.3848 29.8996 57.3855 29.8998 57.3863 29.8998C57.3873 29.8998 57.3881 29.8997 57.389 29.8997C58.7982 29.9006 59.9947 30.8256 60.4057 32.1001H57.3871C56.851 32.1001 56.4163 32.5347 56.4163 33.0709V35.1418C56.4163 36.8191 57.7807 38.1836 59.458 38.1836H60.5583V42.4549H58.0199C57.186 40.0472 54.8972 38.3129 52.2096 38.3129C49.5219 38.3129 47.233 40.0472 46.3993 42.4549H45.9318V35.1417C45.9318 34.6056 45.4972 34.1709 44.961 34.1709C44.4249 34.1709 43.9902 34.6055 43.9902 35.1417V42.4547H23.8489C23.0151 40.047 20.7263 38.3127 18.0386 38.3127C15.3509 38.3127 13.062 40.047 12.2283 42.4547H6.64817C6.61245 42.4547 6.58351 42.4257 6.58351 42.39V40.2543H10.7902C11.3263 40.2543 11.761 39.8197 11.761 39.2835C11.761 38.7473 11.3264 38.3127 10.7902 38.3127H1.47081C0.934727 38.3127 0.5 38.7473 0.5 39.2835C0.5 39.8197 0.934605 40.2543 1.47081 40.2543H4.64201V42.39C4.64201 43.4963 5.54198 44.3963 6.64829 44.3963H11.8921C11.8919 44.4178 11.8904 44.4393 11.8904 44.461C11.8904 47.8511 14.6486 50.6091 18.0386 50.6091C21.4286 50.6091 24.1868 47.8511 24.1868 44.461C24.1868 44.4392 24.1853 44.4178 24.1851 44.3963H46.0631C46.0629 44.4178 46.0614 44.4393 46.0614 44.461C46.0614 47.8511 48.8196 50.6091 52.2096 50.6091C55.5996 50.6091 58.3577 47.8511 58.3577 44.461C58.3577 44.4392 58.3563 44.4178 58.356 44.3963H61.5291C62.0652 44.3963 62.4999 43.9617 62.4999 43.4255V33.0706C62.5 30.5141 60.6137 28.39 58.1598 28.0164ZM45.9322 17.4738H53.2453C54.4229 17.4738 55.381 18.4319 55.381 19.6095V19.6742H45.9322V17.4738ZM45.9322 27.9581V21.6157H54.5583L56.1439 27.9581H45.9322ZM18.0386 48.6679C15.7191 48.6679 13.8319 46.7809 13.8319 44.4612C13.8319 42.1415 15.7191 40.2545 18.0386 40.2545C20.3582 40.2545 22.2453 42.1415 22.2453 44.4612C22.2453 46.7809 20.3582 48.6679 18.0386 48.6679ZM52.2098 48.6679C49.8903 48.6679 48.0031 46.7809 48.0031 44.4612C48.0031 42.1415 49.8903 40.2545 52.2098 40.2545C54.5294 40.2545 56.4165 42.1415 56.4165 44.4612C56.4165 46.7809 54.5294 48.6679 52.2098 48.6679ZM60.5585 36.242H59.4582C58.8516 36.242 58.358 35.7484 58.358 35.1417V34.0414H60.5584V36.242H60.5585Z" fill="#B38339"/>
<path d="M18.0385 42.4551C16.9322 42.4551 16.0322 43.355 16.0322 44.4614C16.0322 45.5677 16.9322 46.4676 18.0385 46.4676C19.1448 46.4676 20.0448 45.5677 20.0448 44.4614C20.0448 43.355 19.1448 42.4551 18.0385 42.4551Z" fill="#B38339"/>
<path d="M52.2099 42.4551C51.1036 42.4551 50.2036 43.355 50.2036 44.4614C50.2036 45.5677 51.1036 46.4676 52.2099 46.4676C53.3162 46.4676 54.2162 45.5677 54.2162 44.4614C54.2162 43.355 53.3162 42.4551 52.2099 42.4551Z" fill="#B38339"/>
<path d="M40.8195 38.313H26.3226C25.7865 38.313 25.3518 38.7476 25.3518 39.2838C25.3518 39.82 25.7864 40.2546 26.3226 40.2546H40.8195C41.3556 40.2546 41.7903 39.82 41.7903 39.2838C41.7903 38.7476 41.3557 38.313 40.8195 38.313Z" fill="#B38339"/>
<path d="M15.9675 34.1714H3.54161C3.00553 34.1714 2.5708 34.606 2.5708 35.1422C2.5708 35.6784 3.00541 36.113 3.54161 36.113H15.9675C16.5036 36.113 16.9383 35.6784 16.9383 35.1422C16.9383 34.606 16.5036 34.1714 15.9675 34.1714Z" fill="#B38339"/>
<path d="M34.2576 20.9942C33.8786 20.6152 33.2638 20.6152 32.8847 20.9943L24.2517 29.6272L19.7607 25.1362C19.3816 24.7571 18.7669 24.7571 18.3879 25.1362C18.0087 25.5154 18.0087 26.1299 18.3879 26.5091L23.5654 31.6866C23.7549 31.8762 24.0034 31.9709 24.2517 31.9709C24.5001 31.9709 24.7487 31.8762 24.9381 31.6866L34.2575 22.3672C34.6366 21.9879 34.6366 21.3734 34.2576 20.9942Z" fill="#B38339"/>
</g>
<defs>
<clipPath id="clip0_55_6455">
<rect width="62" height="62" fill="white" transform="translate(0.5)"/>
</clipPath>
</defs>
</svg>
