<svg width="64" height="64" viewBox="0 0 64 64" fill="none" xmlns="http://www.w3.org/2000/svg">
<path d="M40.0156 22.9033C40.5332 22.9033 40.9531 22.4834 40.9531 21.9658V20.9639C40.9531 20.4463 40.5332 20.0264 40.0156 20.0264C39.498 20.0264 39.0781 20.4463 39.0781 20.9639V21.9658C39.0781 22.4834 39.498 22.9033 40.0156 22.9033Z" fill="#B38339"/>
<path d="M50.0352 22.9033C50.5532 22.9033 50.9727 22.4834 50.9727 21.9658V20.9639C50.9727 20.4463 50.5532 20.0264 50.0352 20.0264C49.5176 20.0264 49.0977 20.4463 49.0977 20.9639V21.9658C49.0977 22.4834 49.5176 22.9033 50.0352 22.9033Z" fill="#B38339"/>
<path d="M41.4872 27.7281C42.5306 28.505 43.7542 28.9156 45.0257 28.9156C46.2972 28.9156 47.5208 28.505 48.5643 27.7281C48.9793 27.4186 49.0653 26.8316 48.7562 26.4161C48.4466 26.0006 47.8597 25.9146 47.4442 26.2242C46.7269 26.7584 45.8905 27.0406 45.0257 27.0406C44.1605 27.0406 43.3246 26.7579 42.6068 26.2242C42.1917 25.9146 41.6043 26.0006 41.2953 26.4161C40.9857 26.8311 41.0716 27.4186 41.4872 27.7281Z" fill="#B38339"/>
<path d="M61.3036 40.4316L54.6459 38.2123L53.3944 36.3349C53.1005 35.894 52.6513 35.5986 52.1298 35.5029C52.0785 35.4936 52.0272 35.4877 51.9755 35.4829V32.4531C52.1747 32.2905 52.3705 32.123 52.5595 31.9457C54.7357 29.9052 55.9838 27.059 55.9838 24.1367V23.458C55.9838 23.0957 55.9506 22.7397 55.8881 22.393L57.3251 20.2373C57.7587 19.5874 57.9877 18.8305 57.9877 18.0498V16.9555C57.9877 11.4658 53.5214 7 48.0321 7H41.018C39.5409 7 38.2519 7.81689 37.5761 9.02197C34.4994 9.24609 32.0644 11.8188 32.0644 14.9516V18.0498C32.0644 18.583 32.1738 19.1045 32.3793 19.5888C30.3066 17.9599 27.7123 17.02 24.9858 17.02C18.3911 17.02 13.0259 22.3852 13.0259 28.9799V34.0541H6.94969C4.77489 34.0541 3.00634 35.8232 3.00634 37.998V41.0038C3.00634 42.7714 3.78222 44.3603 5.01024 45.4506V46.7543C5.01024 47.1967 4.73192 47.5976 4.31835 47.7528L1.90869 48.6567C0.767088 49.0849 0 50.1918 0 51.411V56.0341C0 56.5521 0.419921 56.9716 0.937498 56.9716C1.45508 56.9716 1.875 56.5521 1.875 56.0341V51.411C1.875 50.9687 2.15332 50.5673 2.56689 50.412L4.62109 49.642L7.58934 52.5795C7.96581 52.9521 8.45946 53.1376 8.9536 53.1376C9.44774 53.1376 9.94188 52.9516 10.3179 52.5795L11.0224 51.8827V56.0346C11.0224 56.5521 11.4419 56.9721 11.9599 56.9721C12.4775 56.9721 12.8974 56.5521 12.8974 56.0346V49.9418C12.8974 49.1376 13.3686 48.4003 14.0991 48.0634L19.063 45.7724L22.978 49.4296C23.541 49.9555 24.2636 50.2182 24.9858 50.2182C25.3481 50.2182 25.7104 50.1523 26.0527 50.0199V56.0346C26.0527 56.5521 26.4721 56.9721 26.9902 56.9721C27.5078 56.9721 27.9277 56.5521 27.9277 56.0346V44.1728C27.9277 43.2812 28.496 42.4926 29.3417 42.2104L35.6972 40.0917L39.5956 44.7695C39.9433 45.1869 40.4545 45.4408 40.9975 45.4653C41.0268 45.4667 41.0556 45.4672 41.0849 45.4672C41.5971 45.4672 42.0932 45.2626 42.457 44.8993L44.0888 43.2675V56.0341C44.0888 56.5521 44.5082 56.9716 45.0263 56.9716C45.5439 56.9716 45.9638 56.5521 45.9638 56.0341V43.2675L47.5951 44.8993C47.9799 45.2836 48.5107 45.4897 49.0546 45.4653C49.5976 45.4408 50.1088 45.1869 50.4569 44.7695L52.2592 42.6064C52.5907 42.2084 52.537 41.6176 52.1395 41.2861C51.7416 40.9545 51.1503 41.0082 50.8192 41.4057L49.0165 43.5693C49.0116 43.5751 48.998 43.5907 48.9696 43.5922C48.9413 43.5937 48.9267 43.579 48.9213 43.5732L46.4716 41.124L51.7431 37.3583C51.7484 37.3544 51.7655 37.3427 51.7924 37.3476C51.8192 37.3525 51.8305 37.3696 51.8344 37.3749L53.2274 39.4648C53.3378 39.6581 53.517 39.8124 53.7445 39.8886L60.7108 42.2104C61.5565 42.4926 62.1249 43.2812 62.1249 44.1728V56.0346C62.1249 56.5521 62.5448 56.9721 63.0624 56.9721C63.5804 56.9721 63.9999 56.5521 63.9999 56.0346V44.1728C63.9999 42.4726 62.9164 40.9692 61.3036 40.4316ZM33.9394 14.9516C33.9394 13.0278 35.2807 11.4126 37.0766 10.9888C37.1005 11.4853 37.5097 11.8808 38.0121 11.8808C38.5297 11.8808 38.9496 11.4614 38.9496 10.9434C38.9496 9.80273 39.8774 8.875 41.018 8.875H48.0321C52.4877 8.875 56.1127 12.5 56.1127 16.9555V18.0493C56.1127 18.459 55.9926 18.8559 55.7655 19.1968L55.056 20.2607C54.2177 18.9375 52.872 17.9614 51.2665 17.6416C45.6337 16.5195 41.6571 13.2612 41.6176 13.2285C41.2196 12.8979 40.6293 12.9516 40.2978 13.3491C39.9662 13.7471 40.0199 14.3384 40.4179 14.6699C40.5932 14.8159 44.7817 18.2617 50.8998 19.4804C52.7592 19.8506 54.1088 21.5234 54.1088 23.458V24.1367C54.1088 26.5429 53.0766 28.8906 51.2772 30.5776C49.4125 32.3256 46.9775 33.1972 44.4223 33.0327C39.6679 32.726 35.9438 28.5922 35.9438 23.6225V20.2046C35.9438 19.6523 36.1586 19.1328 36.5492 18.7422L38.6752 16.6162C39.0409 16.2505 39.0409 15.6567 38.6752 15.2905C38.309 14.9248 37.7153 14.9248 37.3495 15.2905L35.2236 17.4165C34.7475 17.8921 34.4091 18.4687 34.226 19.0976C34.039 18.7802 33.9399 18.4204 33.9399 18.0493V14.9516H33.9394ZM38.0766 35.4829C38.0248 35.4877 37.9736 35.4936 37.9223 35.5034C37.5492 35.5717 37.2143 35.7441 36.9457 35.997V31.2568C37.2968 31.6533 37.6742 32.0244 38.0766 32.3657V35.4829ZM14.9013 28.9799C14.9013 23.4189 19.4253 18.895 24.9858 18.895C28.8832 18.895 32.4614 21.1714 34.1181 24.6977C34.2348 25.9653 34.5551 27.1748 35.0458 28.2895C35.061 28.5185 35.0702 28.75 35.0702 28.9794V38.3242L29.9311 40.037V39.4448C32.3452 37.8388 33.9394 35.0956 33.9394 31.9858V30.6235C33.9394 29.25 33.0014 28.0717 31.6581 27.7578C29.4335 27.2378 25.3042 25.9682 22.6425 23.3066C22.2763 22.9404 21.6831 22.9404 21.3169 23.3066C20.9506 23.6728 20.9506 24.2661 21.3169 24.6323C24.3076 27.623 28.8124 29.018 31.2319 29.5834C31.7221 29.6982 32.0644 30.1254 32.0644 30.6235V31.9858C32.0644 35.8891 28.8886 39.0644 24.9858 39.0644C21.0825 39.0644 17.9072 35.8891 17.9072 31.9858V29.81C17.9072 29.5249 18.018 29.2573 18.2197 29.0556L19.6367 27.6386C20.0029 27.2724 20.0029 26.6792 19.6367 26.3129C19.2705 25.9467 18.6772 25.9467 18.311 26.3129L16.894 27.7299C16.3383 28.2856 16.0322 29.0244 16.0322 29.81V31.9858C16.0322 35.0956 17.6269 37.8393 20.0405 39.4448V41.1562L14.9013 40.2216V28.9799ZM6.94969 35.9291H13.0263V37.0605H5.1079C5.45067 36.3901 6.14647 35.9291 6.94969 35.9291ZM4.88085 38.9355H13.0263V41.0038C13.0263 43.2494 11.1992 45.0766 8.9536 45.0766C6.70799 45.0766 4.88085 43.2499 4.88085 41.0038V38.9355ZM8.99901 51.2465C8.9741 51.2714 8.93358 51.2714 8.90819 51.2465L6.23143 48.5981C6.64403 48.0854 6.88475 47.4374 6.88475 46.7543V46.58C7.52977 46.8197 8.22655 46.9516 8.9536 46.9516C9.68065 46.9516 10.3774 46.8197 11.022 46.58V46.7543C11.022 47.2763 11.1621 47.7817 11.4189 48.226C11.2749 48.5229 11.1675 48.8383 11.1015 49.1659L8.99901 51.2465ZM13.313 46.3608C13.1684 46.4277 13.0307 46.5043 12.8969 46.5868V45.4506C13.8628 44.5932 14.5478 43.4272 14.7968 42.1083L19.9296 43.0414C19.8237 43.2577 19.6469 43.4374 19.4209 43.5419L13.313 46.3608ZM26.0522 44.1728V47.7431L25.7138 48.059C25.3056 48.4408 24.666 48.4403 24.2578 48.059L20.8271 44.8549C21.5034 44.3036 21.9155 43.4682 21.9155 42.5737V40.3969C22.8735 40.748 23.9077 40.9394 24.9858 40.9394C26.0639 40.9394 27.0981 40.748 28.0561 40.3969V40.7416C26.8344 41.4311 26.0522 42.7299 26.0522 44.1728ZM41.1308 43.5732C41.1254 43.5785 41.1108 43.5937 41.0824 43.5922C41.0541 43.5907 41.0409 43.5751 41.0356 43.5688L37.1762 38.9374L38.2177 37.3749C38.2216 37.3696 38.2333 37.3525 38.2597 37.3476C38.287 37.3422 38.3036 37.3544 38.309 37.3583L43.5805 41.124L41.1308 43.5732ZM45.0263 39.852L39.9516 36.227V33.6489C41.2651 34.3588 42.7362 34.8027 44.3012 34.9037C44.5478 34.9199 44.7929 34.9277 45.0375 34.9277C46.8266 34.9277 48.5502 34.5014 50.1005 33.6923V36.227L45.0263 39.852Z" fill="#B38339"/>
<path d="M20.9785 31.9214C21.4961 31.9214 21.916 31.5015 21.916 30.9839V29.9819C21.916 29.4644 21.4961 29.0444 20.9785 29.0444C20.4604 29.0444 20.041 29.4644 20.041 29.9819V30.9839C20.041 31.5015 20.4604 31.9214 20.9785 31.9214Z" fill="#B38339"/>
<path d="M28.9941 31.9214C29.5117 31.9214 29.9316 31.5015 29.9316 30.9839V29.9819C29.9316 29.4644 29.5117 29.0444 28.9941 29.0444C28.4761 29.0444 28.0566 29.4644 28.0566 29.9819V30.9839C28.0566 31.5015 28.4761 31.9214 28.9941 31.9214Z" fill="#B38339"/>
<path d="M22.4675 35.7754C23.2131 36.2656 24.0842 36.5244 24.9866 36.5244C25.8889 36.5244 26.76 36.2656 27.5056 35.7754C27.9382 35.4912 28.0584 34.9096 27.7742 34.477C27.4895 34.0444 26.9085 33.9238 26.4758 34.2085C26.0369 34.497 25.5222 34.6494 24.9866 34.6494C24.4514 34.6494 23.9363 34.4966 23.4973 34.2085C23.0652 33.9238 22.4836 34.0444 22.199 34.477C21.9148 34.9096 22.0349 35.4912 22.4675 35.7754Z" fill="#B38339"/>
<path d="M6.94922 41.9414H6.95898C7.47705 41.9414 7.8916 41.522 7.8916 41.0039C7.8916 40.4863 7.4668 40.0664 6.94922 40.0664C6.43115 40.0664 6.01172 40.4863 6.01172 41.0039C6.01172 41.522 6.43115 41.9414 6.94922 41.9414Z" fill="#B38339"/>
<path d="M10.9473 41.9414H10.957C11.4751 41.9414 11.8896 41.522 11.8896 41.0039C11.8896 40.4863 11.4648 40.0664 10.9473 40.0664C10.4292 40.0664 10.0098 40.4863 10.0098 41.0039C10.0098 41.522 10.4292 41.9414 10.9473 41.9414Z" fill="#B38339"/>
</svg>
