<svg width="64" height="64" viewBox="0 0 64 64" fill="none" xmlns="http://www.w3.org/2000/svg">
<g clip-path="url(#clip0_55_4833)">
<path d="M16.1431 35.0308C16.1431 35.728 15.5781 36.2934 14.8809 36.2934C14.1836 36.2934 13.6187 35.728 13.6187 35.0308C13.6187 34.3335 14.1836 33.7686 14.8809 33.7686C15.5781 33.7686 16.1431 34.3335 16.1431 35.0308V35.0308Z" fill="#B38339"/>
<path d="M21.1924 35.0308C21.1924 35.728 20.6274 36.2934 19.9302 36.2934C19.2329 36.2934 18.6675 35.728 18.6675 35.0308C18.6675 34.3335 19.2329 33.7686 19.9302 33.7686C20.6274 33.7686 21.1924 34.3335 21.1924 35.0308V35.0308Z" fill="#B38339"/>
<path d="M26.2417 35.0308C26.2417 35.728 25.6768 36.2934 24.9795 36.2934C24.2822 36.2934 23.7173 35.728 23.7173 35.0308C23.7173 34.3335 24.2822 33.7686 24.9795 33.7686C25.6768 33.7686 26.2417 34.3335 26.2417 35.0308V35.0308Z" fill="#B38339"/>
<path d="M31.291 35.0308C31.291 35.728 30.7261 36.2934 30.0288 36.2934C29.3315 36.2934 28.7661 35.728 28.7661 35.0308C28.7661 34.3335 29.3315 33.7686 30.0288 33.7686C30.7261 33.7686 31.291 34.3335 31.291 35.0308V35.0308Z" fill="#B38339"/>
<path d="M36.3403 35.0308C36.3403 35.728 35.7754 36.2934 35.0781 36.2934C34.3809 36.2934 33.8159 35.728 33.8159 35.0308C33.8159 34.3335 34.3809 33.7686 35.0781 33.7686C35.7754 33.7686 36.3403 34.3335 36.3403 35.0308V35.0308Z" fill="#B38339"/>
<path d="M41.3897 35.0308C41.3897 35.728 40.8247 36.2934 40.1275 36.2934C39.4302 36.2934 38.8647 35.728 38.8647 35.0308C38.8647 34.3335 39.4302 33.7686 40.1275 33.7686C40.8247 33.7686 41.3897 34.3335 41.3897 35.0308V35.0308Z" fill="#B38339"/>
<path d="M16.1431 46.644C16.1431 47.3413 15.5781 47.9067 14.8809 47.9067C14.1836 47.9067 13.6187 47.3413 13.6187 46.644C13.6187 45.9473 14.1836 45.3818 14.8809 45.3818C15.5781 45.3818 16.1431 45.9473 16.1431 46.644V46.644Z" fill="#B38339"/>
<path d="M21.1924 46.644C21.1924 47.3413 20.6274 47.9067 19.9302 47.9067C19.2329 47.9067 18.6675 47.3413 18.6675 46.644C18.6675 45.9473 19.2329 45.3818 19.9302 45.3818C20.6274 45.3818 21.1924 45.9473 21.1924 46.644V46.644Z" fill="#B38339"/>
<path d="M26.2417 46.644C26.2417 47.3413 25.6768 47.9067 24.9795 47.9067C24.2822 47.9067 23.7173 47.3413 23.7173 46.644C23.7173 45.9473 24.2822 45.3818 24.9795 45.3818C25.6768 45.3818 26.2417 45.9473 26.2417 46.644V46.644Z" fill="#B38339"/>
<path d="M31.291 46.644C31.291 47.3413 30.7261 47.9067 30.0288 47.9067C29.3315 47.9067 28.7661 47.3413 28.7661 46.644C28.7661 45.9473 29.3315 45.3818 30.0288 45.3818C30.7261 45.3818 31.291 45.9473 31.291 46.644V46.644Z" fill="#B38339"/>
<path d="M36.3403 46.644C36.3403 47.3413 35.7754 47.9067 35.0781 47.9067C34.3809 47.9067 33.8159 47.3413 33.8159 46.644C33.8159 45.9473 34.3809 45.3818 35.0781 45.3818C35.7754 45.3818 36.3403 45.9473 36.3403 46.644V46.644Z" fill="#B38339"/>
<path d="M41.3897 46.644C41.3897 47.3413 40.8247 47.9067 40.1275 47.9067C39.4302 47.9067 38.8647 47.3413 38.8647 46.644C38.8647 45.9473 39.4302 45.3818 40.1275 45.3818C40.8247 45.3818 41.3897 45.9473 41.3897 46.644V46.644Z" fill="#B38339"/>
<path d="M52.7506 30.2974H48.4063C47.8834 30.2974 47.4596 30.7212 47.4596 31.2437C47.4596 31.7666 47.8834 32.1904 48.4063 32.1904H52.7506C53.6207 32.1904 54.3287 32.8984 54.3287 33.7686V36.293C54.3287 37.1631 53.6207 37.8711 52.7506 37.8711H11.3462C10.4761 37.8711 9.76856 37.1631 9.76856 36.293V33.7686C9.76856 32.8984 10.4761 32.1904 11.3462 32.1904H43.983C44.5055 32.1904 44.9293 31.7666 44.9293 31.2437C44.9293 30.7212 44.5055 30.2974 43.983 30.2974H11.3462C9.43213 30.2974 7.875 31.8545 7.875 33.7686V36.293C7.875 38.2071 9.43213 39.7647 11.3462 39.7647H52.7506C54.6651 39.7647 56.2223 38.2071 56.2223 36.293V33.7686C56.2223 31.8545 54.6647 30.2974 52.7506 30.2974V30.2974Z" fill="#B38339"/>
<path d="M52.7506 41.9106H11.3462C9.43213 41.9106 7.875 43.4678 7.875 45.3819V47.9068C7.875 49.8208 9.43213 51.378 11.3462 51.378H14.9678C15.4903 51.378 15.9146 50.9541 15.9146 50.4312C15.9146 49.9082 15.4903 49.4844 14.9678 49.4844H11.3462C10.4761 49.4844 9.76856 48.7764 9.76856 47.9068V45.3819C9.76856 44.5117 10.4761 43.8042 11.3462 43.8042H52.7506C53.6207 43.8042 54.3287 44.5117 54.3287 45.3819V47.9068C54.3287 48.7769 53.6207 49.4844 52.7506 49.4844H19.3701C18.8472 49.4844 18.4234 49.9082 18.4234 50.4312C18.4234 50.9541 18.8472 51.378 19.3701 51.378H52.7506C54.6647 51.378 56.2223 49.8203 56.2223 47.9068V45.3819C56.2223 43.4678 54.6647 41.9106 52.7506 41.9106V41.9106Z" fill="#B38339"/>
<path d="M41.3897 54.4077H22.8335C20.9194 54.4077 19.3623 55.9648 19.3623 57.8789V60.4033C19.3623 62.3174 20.9194 63.875 22.8335 63.875H41.3897C43.3038 63.875 44.8609 62.3174 44.8609 60.4033V57.8789C44.8609 55.9648 43.3038 54.4077 41.3897 54.4077V54.4077ZM42.9678 60.4038C42.9678 61.2739 42.2598 61.9815 41.3897 61.9815H22.8335C21.9634 61.9815 21.2554 61.2734 21.2554 60.4038V57.8789C21.2554 57.0088 21.9634 56.3013 22.8335 56.3013H41.3897C42.2598 56.3013 42.9678 57.0088 42.9678 57.8789V60.4038Z" fill="#B38339"/>
<path d="M32.0484 28.2774C39.879 28.2774 46.2496 21.9068 46.2496 14.0762C46.2496 6.24562 39.879 -0.125 32.0484 -0.125C28.2281 -0.125 24.6441 1.37012 21.9561 4.08546C21.5884 4.45655 21.5913 5.05616 21.9629 5.42433C22.3345 5.792 22.9336 5.78907 23.3018 5.41749C25.6314 3.06446 28.7373 1.76856 32.0484 1.76856C38.835 1.76856 44.356 7.28956 44.356 14.0762C44.356 16.4546 43.6773 18.6773 42.504 20.562C41.5547 18.0015 39.6832 15.8545 37.2554 14.5689C38.1558 13.4185 38.6543 11.9951 38.6543 10.502C38.6543 6.85939 35.691 3.896 32.0484 3.896C28.4058 3.896 25.4424 6.85939 25.4424 10.502C25.4424 11.9951 25.9409 13.4185 26.8418 14.5689C24.4141 15.8545 22.542 18.0015 21.5928 20.562C20.4194 18.6773 19.7407 16.4546 19.7407 14.0762C19.7407 12.2915 20.1143 10.5708 20.8501 8.96144C21.0679 8.48586 20.8589 7.92433 20.3833 7.70656C19.9077 7.48927 19.3457 7.69826 19.1284 8.17384C18.2783 10.0322 17.8472 12.0181 17.8472 14.0762C17.8472 21.9068 24.2178 28.2774 32.0484 28.2774ZM28.792 15.7627C29.1084 15.6436 29.3374 15.3653 29.3926 15.0313C29.4478 14.6973 29.3208 14.3599 29.0596 14.145C27.9644 13.2451 27.336 11.9175 27.336 10.502C27.336 7.90333 29.4502 5.78956 32.0484 5.78956C34.647 5.78956 36.7613 7.90333 36.7613 10.502C36.7613 11.9175 36.1329 13.2451 35.0376 14.145C34.7764 14.3599 34.6495 14.6973 34.7046 15.0313C34.7598 15.3653 34.9888 15.6436 35.3052 15.7627C38.2344 16.8643 40.4131 19.3926 41.0836 22.4244C38.8335 24.8575 35.6163 26.3838 32.0484 26.3838C28.481 26.3838 25.2637 24.8575 23.0137 22.4244C23.6841 19.3926 25.8628 16.8643 28.792 15.7627V15.7627Z" fill="#B38339"/>
</g>
<defs>
<clipPath id="clip0_55_4833">
<rect width="64" height="64" fill="white"/>
</clipPath>
</defs>
</svg>
