<svg width="64" height="64" viewBox="0 0 64 64" fill="none" xmlns="http://www.w3.org/2000/svg">
<g clip-path="url(#clip0_55_6747)">
<path d="M44.6001 10.3024V5.73498C44.6001 5.48723 44.391 5.28148 44.1466 5.28148H10.6089C10.3609 5.28148 10.1552 5.48723 10.1552 5.73498V10.2066C10.1552 10.724 9.73713 11.1421 9.21988 11.1421C8.7025 11.1421 8.28088 10.7239 8.28088 10.2066V5.73498C8.28088 5.09373 8.54313 4.51248 8.96475 4.09086C9.38638 3.66923 9.9675 3.40698 10.6089 3.40698H44.1466C44.788 3.40698 45.369 3.66923 45.7906 4.09086C46.2122 4.51248 46.4745 5.09373 46.4745 5.73498V10.3024H58.7805C60.1626 10.3024 61.5125 10.9154 62.4692 11.9005C63.4154 12.8677 64 14.193 64 15.628V59.6542C64 60.1716 63.5819 60.5932 63.0646 60.5932H26.7451C26.2279 60.5932 25.8097 60.1716 25.8097 59.6542V42.8586C25.8097 42.3379 26.228 41.9196 26.7451 41.9196C27.2661 41.9196 27.6844 42.3379 27.6844 42.8586V58.7152H62.1256V15.628C62.1256 14.6925 61.7465 13.8316 61.1299 13.2044C60.5099 12.5664 59.6736 12.1909 58.7805 12.1767H26.4121C27.2342 13.1404 27.6844 14.356 27.6844 15.6279V38.6101C27.6844 39.1275 27.2661 39.5491 26.7451 39.5491C26.2279 39.5491 25.8097 39.1275 25.8097 38.6101V24.2525H13.6065C12.2282 24.2525 10.8428 23.6821 9.8435 22.6864C8.88325 21.7332 8.28088 20.4222 8.28088 18.9766C8.28088 18.92 8.28088 18.9059 8.28088 18.9092V14.4516C8.28088 13.9342 8.7025 13.5164 9.21988 13.5164C9.73725 13.5164 10.1552 13.9344 10.1552 14.4516V18.9766C10.1552 19.9049 10.545 20.7484 11.1616 21.3611C11.8205 22.0166 12.671 22.357 13.5249 22.3782C14.4284 22.3995 15.3355 22.0629 16.0336 21.3649C16.6502 20.7414 17.0365 19.8802 17.0365 18.9271V15.6316C17.0365 14.1824 17.6034 12.8289 18.6451 11.8191C19.6444 10.8552 20.9909 10.3025 22.3797 10.3025H44.6001V10.3024ZM32.8433 46.0087C32.3259 46.0087 31.9079 45.5871 31.9079 45.0697C31.9079 44.5524 32.326 44.1342 32.8433 44.1342H56.9664C57.4836 44.1342 57.9054 44.5525 57.9054 45.0697C57.9054 45.5871 57.4836 46.0087 56.9664 46.0087H32.8433ZM32.8433 54.495C32.3259 54.495 31.9079 54.0734 31.9079 53.556C31.9079 53.0386 32.326 52.617 32.8433 52.617H50.5742C51.0916 52.617 51.5132 53.0386 51.5132 53.556C51.5132 54.0734 51.0916 54.495 50.5742 54.495H32.8433ZM32.8433 50.2501C32.3259 50.2501 31.9079 49.8321 31.9079 49.3149C31.9079 48.7939 32.326 48.3759 32.8433 48.3759H56.9664C57.4836 48.3759 57.9054 48.7939 57.9054 49.3149C57.9054 49.8322 57.4836 50.2501 56.9664 50.2501H32.8433ZM44.9049 17.0737C41.8328 17.0737 39.0513 18.3174 37.0385 20.3301C35.0259 22.3429 33.7821 25.1244 33.7821 28.1965C33.7821 31.2685 35.0259 34.05 37.0385 36.0627C39.0513 38.0754 41.8328 39.3226 44.9049 39.3226C47.977 39.3226 50.7585 38.0752 52.7711 36.0627C54.7838 34.05 56.0274 31.2685 56.0274 28.1965C56.0274 25.1244 54.7838 22.3429 52.7711 20.3301C50.7585 18.3174 47.977 17.0737 44.9049 17.0737ZM35.7134 19.0049C38.0662 16.6521 41.3155 15.1994 44.9049 15.1994C48.4944 15.1994 51.7435 16.6521 54.0962 19.0049C56.449 21.3576 57.9054 24.6069 57.9054 28.1964C57.9054 31.7857 56.4491 35.035 54.0962 37.3877C51.7435 39.7404 48.4944 41.1967 44.9049 41.1967C41.3155 41.1967 38.0662 39.7405 35.7134 37.3877C33.3606 35.035 31.9079 31.7857 31.9079 28.1964C31.9079 24.607 33.3606 21.3576 35.7134 19.0049ZM46.5809 21.8501C46.7794 21.3719 47.3285 21.1487 47.8069 21.347C48.2819 21.5491 48.5086 22.0982 48.3066 22.5731L43.3884 34.2944C43.1899 34.7692 42.6409 34.996 42.1624 34.7941C41.6875 34.5956 41.4609 34.0464 41.6628 33.568L46.5809 21.8501ZM43.7071 24.1924C43.7071 25.1171 43.3776 25.9639 42.8426 26.5841C42.2757 27.2467 41.482 27.6542 40.5961 27.6542C39.7103 27.6542 38.9166 27.2467 38.3496 26.5841C37.8146 25.9639 37.485 25.1172 37.485 24.1924C37.485 23.2639 37.8146 22.417 38.3496 21.7971C38.9165 21.1379 39.7103 20.727 40.5961 20.727C41.482 20.727 42.2757 21.1379 42.8426 21.7971C43.3778 22.417 43.7071 23.2639 43.7071 24.1924ZM41.4217 25.3686C41.6769 25.0746 41.8327 24.6599 41.8327 24.1924C41.8327 23.7246 41.6769 23.3064 41.4217 23.0125C41.2057 22.7607 40.9115 22.605 40.5962 22.605C40.281 22.605 39.9867 22.7607 39.7707 23.0125C39.5191 23.3065 39.3596 23.7246 39.3596 24.1924C39.3596 24.6599 39.5191 25.0747 39.7707 25.3686C39.9869 25.6204 40.281 25.7797 40.5962 25.7797C40.9115 25.7797 41.2057 25.6204 41.4217 25.3686ZM52.3247 32.2037C52.3247 33.1285 51.9951 33.9755 51.4601 34.5956C50.8932 35.2582 50.0995 35.6656 49.2136 35.6656C47.495 35.6656 46.1024 34.1136 46.1024 32.2037C46.1024 31.2755 46.432 30.4286 46.967 29.8085C47.534 29.1496 48.3279 28.7421 49.2136 28.7421C50.0995 28.7421 50.8931 29.1496 51.4601 29.8085C51.9951 30.4286 52.3247 31.2755 52.3247 32.2037ZM50.0392 33.3802C50.2944 33.0861 50.4502 32.6715 50.4502 32.2037C50.4502 31.7362 50.2944 31.318 50.0392 31.0239C49.8231 30.7724 49.5291 30.6164 49.2137 30.6164C48.8984 30.6164 48.6044 30.7724 48.3881 31.0239C48.1365 31.3181 47.9771 31.7362 47.9771 32.2037C47.9771 33.079 48.5334 33.7911 49.2137 33.7911C49.529 33.7911 49.8231 33.6354 50.0392 33.3802ZM20.0378 44.7224V41.9339H7.69625V44.7225H20.0378V44.7224ZM5.82175 41.9339H0.939C0.42175 41.9339 0 41.5122 0 40.9949V36.3282C0 35.8109 0.42175 35.3927 0.939 35.3927H5.92462C6.442 35.3927 6.86 35.811 6.86 36.3282C6.86 36.849 6.44187 37.2672 5.92462 37.2672H1.87437V40.056H14.2195V37.2672H10.1695C9.65213 37.2672 9.23413 36.849 9.23413 36.3282C9.23413 35.8109 9.65225 35.3927 10.1695 35.3927H15.155C15.6724 35.3927 16.0941 35.811 16.0941 36.3282V40.0559H20.9769C21.4943 40.0559 21.9159 40.4775 21.9159 40.9949V50.3246C21.9159 50.842 21.4943 51.2636 20.9769 51.2636H16.0941V54.0522H18.4646C18.9855 54.0522 19.4036 54.4705 19.4036 54.9877V59.6544C19.4036 60.1717 18.9855 60.5934 18.4646 60.5934H4.24837C3.731 60.5934 3.30938 60.1717 3.30938 59.6544V55.9267H0.939C0.42175 55.9266 0 55.5084 0 54.9876V50.3245C0 49.8071 0.42175 49.3855 0.939 49.3855H5.82188V41.9339H5.82175ZM20.0378 49.3856V46.5969H7.69625V49.3856H20.0378ZM1.87437 54.0521H14.2195V51.2635H1.87437V54.0521ZM5.18738 58.7152H17.529V55.9266H5.18738V58.7152ZM25.8096 22.3781V15.628C25.8096 14.6782 25.427 13.8172 24.807 13.1902C24.1444 12.524 23.2656 12.191 22.3834 12.1874C21.5046 12.184 20.6222 12.5065 19.949 13.1584C19.2545 13.8317 18.9107 14.6714 18.9107 15.6315V18.927C18.9107 20.2415 18.4324 21.4462 17.6386 22.3781H25.8096Z" fill="#B38339"/>
</g>
<defs>
<clipPath id="clip0_55_6747">
<rect width="64" height="64" fill="white"/>
</clipPath>
</defs>
</svg>
