<svg width="65" height="64" viewBox="0 0 65 64" fill="none" xmlns="http://www.w3.org/2000/svg">
<path d="M31.75 16.5625C32.2678 16.5625 32.6875 16.1428 32.6875 15.625C32.6875 15.1072 32.2678 14.6875 31.75 14.6875H19.3787C18.8609 14.6875 18.4412 15.1072 18.4412 15.625C18.4412 16.1428 18.8609 16.5625 19.3787 16.5625H31.75Z" fill="#B38339"/>
<path d="M14.1912 22C14.1912 22.5178 14.6109 22.9375 15.1287 22.9375H36C36.5179 22.9375 36.9375 22.5178 36.9375 22C36.9375 21.4822 36.5179 21.0625 36 21.0625H15.1287C14.6109 21.0625 14.1912 21.4822 14.1912 22Z" fill="#B38339"/>
<path d="M15.1287 27.3125H36C36.5179 27.3125 36.9375 26.8928 36.9375 26.375C36.9375 25.8572 36.5179 25.4375 36 25.4375H15.1287C14.6109 25.4375 14.1912 25.8572 14.1912 26.375C14.1912 26.8928 14.6109 27.3125 15.1287 27.3125Z" fill="#B38339"/>
<path d="M15.1287 36.0625H22.25C22.7678 36.0625 23.1875 35.6428 23.1875 35.125C23.1875 34.6072 22.7678 34.1875 22.25 34.1875H15.1287C14.6109 34.1875 14.1912 34.6072 14.1912 35.125C14.1912 35.6428 14.6109 36.0625 15.1287 36.0625Z" fill="#B38339"/>
<path d="M57.311 41.8102C57.8288 41.8102 58.2485 41.3905 58.2485 40.8727V36.6598C58.2485 36.0836 57.956 35.5584 57.4661 35.2549L52.9573 32.4622V1.3125C52.9573 0.58875 52.3686 0 51.6448 0H16.6441C15.9203 0 15.3316 0.58875 15.3316 1.3125V4.29012H12.354C11.6302 4.29012 11.0415 4.87887 11.0415 5.60262V8.58025H8.06396C7.34021 8.58025 6.75146 9.169 6.75146 9.89275V57.7637C6.75146 58.4875 7.34021 59.0762 8.06396 59.0762H15C15.5177 59.0762 15.9375 58.6565 15.9375 58.1387C15.9375 57.621 15.5177 57.2012 15 57.2012H8.62647V10.4552H42.5022V27.7016L36.8035 31.2313C36.888 31.0905 36.9375 30.9263 36.9375 30.75C36.9375 30.2323 36.5178 29.8125 36 29.8125H15.1286C14.6108 29.8125 14.1911 30.2323 14.1911 30.75C14.1911 31.2677 14.6108 31.6875 15.1286 31.6875H36C36.0246 31.6875 36.0486 31.6856 36.0727 31.6839L32.0305 34.1875H25.25C24.7322 34.1875 24.3125 34.6073 24.3125 35.125C24.3125 35.6427 24.7322 36.0625 25.25 36.0625H29.6363C29.5641 36.2496 29.5247 36.4511 29.5247 36.6599V38.5625H15.1286C14.6108 38.5625 14.1911 38.9823 14.1911 39.5C14.1911 40.0177 14.6108 40.4375 15.1286 40.4375H29.5246V42.9375H15.1286C14.6108 42.9375 14.1911 43.3573 14.1911 43.875C14.1911 44.3927 14.6108 44.8125 15.1286 44.8125H29.5246V47.0225C29.5246 47.1194 29.5261 47.216 29.5286 47.3125H15.1286C14.6108 47.3125 14.1911 47.7323 14.1911 48.25C14.1911 48.7677 14.6108 49.1875 15.1286 49.1875H29.7317C30.2172 51.7009 31.5406 53.9952 33.5242 55.6856L35.3027 57.2012H19.375C18.8572 57.2012 18.4375 57.621 18.4375 58.1387C18.4375 58.6565 18.8572 59.0762 19.375 59.0762H37.503L42.8148 63.603C43.1252 63.8676 43.506 63.9999 43.8866 63.9999C44.2672 63.9999 44.648 63.8675 44.9583 63.603L54.249 55.6855C56.7907 53.5195 58.2485 50.3619 58.2485 47.0224V45.2477C58.2485 44.73 57.8288 44.3102 57.311 44.3102C56.7931 44.3102 56.3735 44.73 56.3735 45.2477V47.0224C56.3735 49.8117 55.1558 52.4492 53.0328 54.2584L43.8865 62.0529L34.7402 54.2584C32.6172 52.4492 31.3996 49.8117 31.3996 47.0224V36.7836L43.8865 29.0495L56.3735 36.7836V40.8726C56.3735 41.3906 56.7932 41.8102 57.311 41.8102ZM44.3772 27.21V9.89275C44.3772 9.169 43.7885 8.58025 43.0647 8.58025H12.9165V6.16512H46.7923V12.75C46.7923 13.2677 47.212 13.6875 47.7298 13.6875C48.2477 13.6875 48.6673 13.2677 48.6673 12.75V5.60262C48.6673 4.87887 48.0786 4.29012 47.3548 4.29012H17.2066V1.875H51.0823V31.301L48.6673 29.8051V17.125C48.6673 16.6073 48.2477 16.1875 47.7298 16.1875C47.212 16.1875 46.7923 16.6073 46.7923 17.125V28.6439L44.7566 27.383C44.6357 27.3081 44.5082 27.2511 44.3772 27.21Z" fill="#B38339"/>
<path d="M35.2993 43.8412C35.2993 48.5763 39.1516 52.4287 43.8867 52.4287C48.6219 52.4287 52.4742 48.5764 52.4742 43.8412C52.4742 39.1059 48.6219 35.2537 43.8867 35.2537C39.1516 35.2537 35.2993 39.106 35.2993 43.8412ZM50.5992 43.8412C50.5992 47.5424 47.5879 50.5537 43.8867 50.5537C40.1856 50.5537 37.1743 47.5425 37.1743 43.8412C37.1743 40.1398 40.1856 37.1287 43.8867 37.1287C47.5879 37.1287 50.5992 40.1399 50.5992 43.8412Z" fill="#B38339"/>
<path d="M41.9612 42.9161C41.5952 42.5499 41.0016 42.5499 40.6354 42.9161C40.2693 43.2822 40.2693 43.8758 40.6354 44.2418L42.8977 46.5039C43.0808 46.6869 43.3208 46.7786 43.5607 46.7786C43.8005 46.7786 44.0405 46.6871 44.2237 46.5039L47.73 42.9976C48.0962 42.6314 48.0962 42.0378 47.73 41.6718C47.3638 41.3057 46.7703 41.3057 46.4042 41.6718L43.5608 44.5153L41.9612 42.9161Z" fill="#B38339"/>
</svg>
