<svg width="65" height="64" viewBox="0 0 65 64" fill="none" xmlns="http://www.w3.org/2000/svg">
<g clip-path="url(#clip0_55_6618)">
<path d="M17.985 52.2207V50.2433C17.985 49.7754 17.79 49.3467 17.4817 49.0384C17.1697 48.7265 16.741 48.5353 16.2732 48.5353H11.1738C10.7026 48.5353 10.2772 48.7267 9.96545 49.0384C9.65358 49.3467 9.4622 49.7755 9.4622 50.2433V52.2207H17.985ZM32.6772 4.84453C33.5772 4.84453 34.3887 5.20953 34.9806 5.80128C35.5688 6.38953 35.9338 7.20103 35.9338 8.10116C35.9338 9.00128 35.5688 9.81278 34.9806 10.4047C34.3887 10.9929 33.5772 11.3579 32.6772 11.3579C31.7807 11.3579 30.9656 10.9929 30.3773 10.4047C29.7856 9.81291 29.4241 9.00128 29.4241 8.10116C29.4241 7.20103 29.7856 6.38953 30.3773 5.80128C30.9656 5.20953 31.7807 4.84453 32.6772 4.84453ZM33.6552 7.12666C33.4036 6.87503 33.0598 6.72266 32.6772 6.72266C32.2981 6.72266 31.9507 6.87503 31.7026 7.12666C31.451 7.37478 31.2987 7.72203 31.2987 8.10116C31.2987 8.48391 31.4511 8.82766 31.7026 9.07928C31.9507 9.32741 32.2981 9.48328 32.6772 9.48328C33.0598 9.48328 33.4036 9.32741 33.6552 9.07928C33.9033 8.82766 34.0592 8.48391 34.0592 8.10116C34.0592 7.72203 33.9033 7.37478 33.6552 7.12666ZM19.8596 52.2207H26.5429V50.2433C26.5429 49.2582 26.9435 48.3615 27.5955 47.7095C28.0313 47.2737 28.5772 46.9512 29.1902 46.7847V39.9027C29.1902 39.3853 29.6118 38.9635 30.1292 38.9635C30.6466 38.9635 31.0647 39.3853 31.0647 39.9027V46.657H34.2896V28.8994H31.0647V35.6538C31.0647 36.1747 30.6466 36.5929 30.1292 36.5929C29.6118 36.5929 29.1902 36.1747 29.1902 35.6538V28.7754C28.5772 28.6089 28.0313 28.2829 27.5955 27.8469C26.947 27.1984 26.5429 26.3019 26.5429 25.3132V23.3358H19.8596V25.3132C19.8596 26.3019 19.4556 27.1985 18.8071 27.8469C18.3711 28.2828 17.8218 28.6088 17.2088 28.7754V46.7847C17.8218 46.9512 18.3711 47.2737 18.8071 47.7095C19.4556 48.3615 19.8596 49.2582 19.8596 50.2433V52.2207ZM38.8149 52.2207H44.7826V50.2433C44.7826 49.2582 45.1866 48.3615 45.8351 47.7095C46.271 47.2737 46.8202 46.9512 47.4333 46.7847V34.6367C47.4333 34.1193 47.8514 33.6975 48.3688 33.6975C48.8862 33.6975 49.3079 34.1192 49.3079 34.6367V46.657H52.5328V28.8994H49.3079V30.3878C49.3079 30.9052 48.8862 31.3269 48.3688 31.3269C47.8514 31.3269 47.4333 30.9052 47.4333 30.3878V28.7753C46.8202 28.6088 46.2744 28.2828 45.8351 27.8468C45.1866 27.1983 44.7826 26.3018 44.7826 25.313V23.3357H38.8149V25.313C38.8149 26.3018 38.4111 27.1984 37.7625 27.8468C37.3231 28.2827 36.7773 28.6087 36.1642 28.7753V46.7845C36.7773 46.951 37.323 47.2735 37.7625 47.7094C38.4109 48.3614 38.8149 49.258 38.8149 50.2432V52.2207ZM57.0546 52.3375C57.7243 52.5112 58.3197 52.8585 58.7946 53.3333C59.4821 54.0208 59.9072 54.9669 59.9072 56.0088V57.2917C60.5769 57.4653 61.1723 57.8127 61.6471 58.2874C62.3347 58.9749 62.7598 59.921 62.7598 60.9665V63.0679C62.7598 63.6172 62.2884 63.9999 61.7392 63.9999H2.8212C2.30383 63.9999 1.88208 63.5816 1.88208 63.0679V60.9665C1.88208 59.9212 2.30733 58.9749 2.9947 58.2874C3.46958 57.8125 4.06483 57.4653 4.7347 57.2917V56.0088C4.7347 54.9669 5.15995 54.0208 5.84745 53.3333C6.3222 52.8584 6.9177 52.5112 7.58733 52.3375V50.2433C7.58733 49.2582 7.99133 48.3615 8.63983 47.7095C9.0757 47.2737 9.62495 46.9512 10.2345 46.7847V45.1687C10.2345 44.6513 10.6562 44.2295 11.1736 44.2295C11.691 44.2295 12.1091 44.6513 12.1091 45.1687V46.657H15.334V28.8994H12.1093V40.9233C12.1093 41.4407 11.6912 41.8588 11.1738 41.8588C10.6565 41.8588 10.2347 41.4407 10.2347 40.9233V28.7753C9.6252 28.6088 9.07583 28.2828 8.64008 27.8468C7.99158 27.1983 7.58758 26.3018 7.58758 25.313V23.3357H7.09845C5.76245 23.3357 4.54695 22.7899 3.66458 21.9112C2.78583 21.0288 2.24008 19.8133 2.24008 18.4773C2.24008 17.1413 2.78583 15.9258 3.66458 15.0434C4.49033 14.2178 5.61008 13.6862 6.85045 13.6223L30.1647 0.70541C30.9372 0.22341 31.8337 -0.00696473 32.7197 0.000160265C33.6163 0.00728526 34.5092 0.25541 35.25 0.730285L58.5039 13.6223C59.7442 13.686 60.8639 14.2177 61.6897 15.0434C62.5684 15.9258 63.1177 17.1413 63.1177 18.4773C63.1177 19.8133 62.5684 21.0288 61.6897 21.9112C60.8108 22.79 59.5953 23.3357 58.2558 23.3357H57.0546V25.313C57.0546 26.3018 56.6506 27.1984 56.0021 27.8468C55.5661 28.2827 55.0168 28.6087 54.4074 28.7753V46.7845C55.0168 46.951 55.5662 47.2735 56.0021 47.7094C56.6506 48.3614 57.0546 49.258 57.0546 50.2432V52.3375ZM8.52308 54.0953C7.99858 54.0953 7.52033 54.3114 7.17295 54.6588C6.8257 55.006 6.60958 55.4844 6.60958 56.0089V57.1748H58.0326V56.0089C58.0326 55.4844 57.8164 55.006 57.4692 54.6588C57.1218 54.3115 56.6436 54.0953 56.1191 54.0953C40.2537 54.0953 24.3885 54.0953 8.52308 54.0953ZM58.9717 59.0494H5.67395C5.14595 59.0494 4.66745 59.2655 4.3202 59.6128C3.97295 59.96 3.75683 60.4385 3.75683 60.9665V62.1324H60.8853V60.9665C60.8853 60.4385 60.6691 59.96 60.3218 59.6128C59.9746 59.2655 59.4961 59.0494 58.9717 59.0494ZM55.1799 23.3357H46.6572V25.313C46.6572 25.7808 46.8522 26.2095 47.164 26.5214C47.4722 26.8298 47.9011 27.0247 48.3688 27.0247H53.4683C53.9396 27.0247 54.3648 26.8298 54.6768 26.5214C54.9886 26.2095 55.1799 25.7808 55.1799 25.313V23.3357ZM36.9368 23.3357H28.4176V25.313C28.4176 25.7808 28.609 26.2095 28.9208 26.5214C29.2328 26.8298 29.658 27.0247 30.1292 27.0247H35.2287C35.6964 27.0247 36.1253 26.8298 36.4336 26.5214C36.7453 26.2095 36.9368 25.7808 36.9368 25.313V23.3357ZM17.985 23.3357H9.4622V25.313C9.4622 25.7808 9.65358 26.2095 9.96545 26.5214C10.2772 26.8298 10.7026 27.0247 11.1738 27.0247H16.2733C16.7411 27.0247 17.1698 26.8298 17.4818 26.5214C17.7901 26.2095 17.9851 25.7808 17.9851 25.313V23.3357H17.985ZM55.1799 52.2207V50.2433C55.1799 49.7754 54.9886 49.3467 54.6768 49.0384C54.3648 48.7265 53.9397 48.5353 53.4683 48.5353H48.3688C47.9011 48.5353 47.4722 48.7267 47.164 49.0384C46.8521 49.3467 46.6572 49.7755 46.6572 50.2433V52.2207H55.1799ZM36.9368 52.2207V50.2433C36.9368 49.7754 36.7453 49.3467 36.4336 49.0384C36.1253 48.7265 35.6963 48.5353 35.2287 48.5353H30.1292C29.658 48.5353 29.2328 48.7267 28.9208 49.0384C28.609 49.3467 28.4176 49.7755 28.4176 50.2433V52.2207H36.9368ZM58.2558 15.4934H7.09845C6.27995 15.4934 5.53208 15.83 4.98995 16.3687C4.45133 16.9108 4.1147 17.6587 4.1147 18.4773C4.1147 19.2958 4.45133 20.0437 4.98995 20.5858C5.53208 21.1244 6.27995 21.461 7.09845 21.461H58.2558C59.0779 21.461 59.8222 21.1244 60.3644 20.5858C60.9066 20.0437 61.2396 19.2958 61.2396 18.4773C61.2396 17.6587 60.9066 16.9109 60.3644 16.3687C59.8222 15.83 59.0779 15.4934 58.2558 15.4934ZM54.6376 13.6188L34.3251 2.35679C33.751 2.03429 33.3966 1.87479 32.7127 1.86779C32.0854 1.86429 31.6355 2.01304 31.1003 2.32491L10.7202 13.6188H54.6376Z" fill="#B38339"/>
</g>
<defs>
<clipPath id="clip0_55_6618">
<rect width="64" height="64" fill="white" transform="translate(0.5)"/>
</clipPath>
</defs>
</svg>
