<svg width="64" height="58" viewBox="0 0 64 58" fill="none" xmlns="http://www.w3.org/2000/svg">
<path d="M44.6001 7.30236V2.73498C44.6001 2.48723 44.391 2.28148 44.1466 2.28148H10.6089C10.3609 2.28148 10.1552 2.48723 10.1552 2.73498V7.20661C10.1552 7.72398 9.73713 8.14211 9.21988 8.14211C8.7025 8.14211 8.28088 7.72386 8.28088 7.20661V2.73498C8.28088 2.09373 8.54313 1.51248 8.96475 1.09086C9.38638 0.669233 9.9675 0.406982 10.6089 0.406982H44.1466C44.788 0.406982 45.369 0.669233 45.7906 1.09086C46.2122 1.51248 46.4745 2.09373 46.4745 2.73498V7.30236H58.7805C60.1626 7.30236 61.5125 7.91536 62.4692 8.90048C63.4154 9.86773 64 11.193 64 12.628V56.6542C64 57.1716 63.5819 57.5932 63.0646 57.5932H26.7451C26.2279 57.5932 25.8097 57.1716 25.8097 56.6542V39.8586C25.8097 39.3379 26.228 38.9196 26.7451 38.9196C27.2661 38.9196 27.6844 39.3379 27.6844 39.8586V55.7152H62.1256V12.628C62.1256 11.6925 61.7465 10.8316 61.1299 10.2044C60.5099 9.56636 59.6736 9.19086 58.7805 9.17673H26.4121C27.2342 10.1404 27.6844 11.356 27.6844 12.6279V35.6101C27.6844 36.1275 27.2661 36.5491 26.7451 36.5491C26.2279 36.5491 25.8097 36.1275 25.8097 35.6101V21.2525H13.6065C12.2282 21.2525 10.8428 20.6821 9.8435 19.6864C8.88325 18.7332 8.28088 17.4222 8.28088 15.9766C8.28088 15.92 8.28088 15.9059 8.28088 15.9092V11.4516C8.28088 10.9342 8.7025 10.5164 9.21988 10.5164C9.73725 10.5164 10.1552 10.9344 10.1552 11.4516V15.9766C10.1552 16.9049 10.545 17.7484 11.1616 18.3611C11.8205 19.0166 12.671 19.357 13.5249 19.3782C14.4284 19.3995 15.3355 19.0629 16.0336 18.3649C16.6502 17.7414 17.0365 16.8802 17.0365 15.9271V12.6316C17.0365 11.1824 17.6034 9.82886 18.6451 8.81911C19.6444 7.85523 20.9909 7.30248 22.3797 7.30248H44.6001V7.30236ZM32.8433 43.0087C32.3259 43.0087 31.9079 42.5871 31.9079 42.0697C31.9079 41.5524 32.326 41.1342 32.8433 41.1342H56.9664C57.4836 41.1342 57.9054 41.5525 57.9054 42.0697C57.9054 42.5871 57.4836 43.0087 56.9664 43.0087H32.8433ZM32.8433 51.495C32.3259 51.495 31.9079 51.0734 31.9079 50.556C31.9079 50.0386 32.326 49.617 32.8433 49.617H50.5742C51.0916 49.617 51.5132 50.0386 51.5132 50.556C51.5132 51.0734 51.0916 51.495 50.5742 51.495H32.8433ZM32.8433 47.2501C32.3259 47.2501 31.9079 46.8321 31.9079 46.3149C31.9079 45.7939 32.326 45.3759 32.8433 45.3759H56.9664C57.4836 45.3759 57.9054 45.7939 57.9054 46.3149C57.9054 46.8322 57.4836 47.2501 56.9664 47.2501H32.8433ZM44.9049 14.0737C41.8328 14.0737 39.0513 15.3174 37.0385 17.3301C35.0259 19.3429 33.7821 22.1244 33.7821 25.1965C33.7821 28.2685 35.0259 31.05 37.0385 33.0627C39.0513 35.0754 41.8328 36.3226 44.9049 36.3226C47.977 36.3226 50.7585 35.0752 52.7711 33.0627C54.7838 31.05 56.0274 28.2685 56.0274 25.1965C56.0274 22.1244 54.7838 19.3429 52.7711 17.3301C50.7585 15.3174 47.977 14.0737 44.9049 14.0737ZM35.7134 16.0049C38.0662 13.6521 41.3155 12.1994 44.9049 12.1994C48.4944 12.1994 51.7435 13.6521 54.0962 16.0049C56.449 18.3576 57.9054 21.6069 57.9054 25.1964C57.9054 28.7857 56.4491 32.035 54.0962 34.3877C51.7435 36.7404 48.4944 38.1967 44.9049 38.1967C41.3155 38.1967 38.0662 36.7405 35.7134 34.3877C33.3606 32.035 31.9079 28.7857 31.9079 25.1964C31.9079 21.607 33.3606 18.3576 35.7134 16.0049ZM46.5809 18.8501C46.7794 18.3719 47.3285 18.1487 47.8069 18.347C48.2819 18.5491 48.5086 19.0982 48.3066 19.5731L43.3884 31.2944C43.1899 31.7692 42.6409 31.996 42.1624 31.7941C41.6875 31.5956 41.4609 31.0464 41.6628 30.568L46.5809 18.8501ZM43.7071 21.1924C43.7071 22.1171 43.3776 22.9639 42.8426 23.5841C42.2757 24.2467 41.482 24.6542 40.5961 24.6542C39.7103 24.6542 38.9166 24.2467 38.3496 23.5841C37.8146 22.9639 37.485 22.1172 37.485 21.1924C37.485 20.2639 37.8146 19.417 38.3496 18.7971C38.9165 18.1379 39.7103 17.727 40.5961 17.727C41.482 17.727 42.2757 18.1379 42.8426 18.7971C43.3778 19.417 43.7071 20.2639 43.7071 21.1924ZM41.4217 22.3686C41.6769 22.0746 41.8327 21.6599 41.8327 21.1924C41.8327 20.7246 41.6769 20.3064 41.4217 20.0125C41.2057 19.7607 40.9115 19.605 40.5962 19.605C40.281 19.605 39.9867 19.7607 39.7707 20.0125C39.5191 20.3065 39.3596 20.7246 39.3596 21.1924C39.3596 21.6599 39.5191 22.0747 39.7707 22.3686C39.9869 22.6204 40.281 22.7797 40.5962 22.7797C40.9115 22.7797 41.2057 22.6204 41.4217 22.3686ZM52.3247 29.2037C52.3247 30.1285 51.9951 30.9755 51.4601 31.5956C50.8932 32.2582 50.0995 32.6656 49.2136 32.6656C47.495 32.6656 46.1024 31.1136 46.1024 29.2037C46.1024 28.2755 46.432 27.4286 46.967 26.8085C47.534 26.1496 48.3279 25.7421 49.2136 25.7421C50.0995 25.7421 50.8931 26.1496 51.4601 26.8085C51.9951 27.4286 52.3247 28.2755 52.3247 29.2037ZM50.0392 30.3802C50.2944 30.0861 50.4502 29.6715 50.4502 29.2037C50.4502 28.7362 50.2944 28.318 50.0392 28.0239C49.8231 27.7724 49.5291 27.6164 49.2137 27.6164C48.8984 27.6164 48.6044 27.7724 48.3881 28.0239C48.1365 28.3181 47.9771 28.7362 47.9771 29.2037C47.9771 30.079 48.5334 30.7911 49.2137 30.7911C49.529 30.7911 49.8231 30.6354 50.0392 30.3802ZM20.0378 41.7224V38.9339H7.69625V41.7225H20.0378V41.7224ZM5.82175 38.9339H0.939C0.42175 38.9339 0 38.5122 0 37.9949V33.3282C0 32.8109 0.42175 32.3927 0.939 32.3927H5.92462C6.442 32.3927 6.86 32.811 6.86 33.3282C6.86 33.849 6.44187 34.2672 5.92462 34.2672H1.87437V37.056H14.2195V34.2672H10.1695C9.65213 34.2672 9.23413 33.849 9.23413 33.3282C9.23413 32.8109 9.65225 32.3927 10.1695 32.3927H15.155C15.6724 32.3927 16.0941 32.811 16.0941 33.3282V37.0559H20.9769C21.4943 37.0559 21.9159 37.4775 21.9159 37.9949V47.3246C21.9159 47.842 21.4943 48.2636 20.9769 48.2636H16.0941V51.0522H18.4646C18.9855 51.0522 19.4036 51.4705 19.4036 51.9877V56.6544C19.4036 57.1717 18.9855 57.5934 18.4646 57.5934H4.24837C3.731 57.5934 3.30938 57.1717 3.30938 56.6544V52.9267H0.939C0.42175 52.9266 0 52.5084 0 51.9876V47.3245C0 46.8071 0.42175 46.3855 0.939 46.3855H5.82188V38.9339H5.82175ZM20.0378 46.3856V43.5969H7.69625V46.3856H20.0378ZM1.87437 51.0521H14.2195V48.2635H1.87437V51.0521ZM5.18738 55.7152H17.529V52.9266H5.18738V55.7152ZM25.8096 19.3781V12.628C25.8096 11.6782 25.427 10.8172 24.807 10.1902C24.1444 9.52398 23.2656 9.19098 22.3834 9.18736C21.5046 9.18398 20.6222 9.50648 19.949 10.1584C19.2545 10.8317 18.9107 11.6714 18.9107 12.6315V15.927C18.9107 17.2415 18.4324 18.4462 17.6386 19.3781H25.8096Z" fill="#B38339"/>
</svg>
