<svg width="20" height="14" viewBox="0 0 20 14" fill="none" xmlns="http://www.w3.org/2000/svg">
<path d="M12.2652 13.7355L10.4649 11.943C10.3419 11.8208 10.3421 11.6255 10.4656 11.5035L13.516 8.48692L0.324073 8.48692C0.14514 8.48692 -9.9524e-08 8.34591 -9.74569e-08 8.17257L-6.74713e-08 5.65803C-6.54013e-08 5.48444 0.14514 5.34368 0.324073 5.34368L13.516 5.34368L10.4656 2.3271C10.3424 2.20506 10.3421 2.01008 10.4649 1.88779L12.2649 0.095301C12.326 0.0345221 12.4096 1.47983e-07 12.4971 1.49027e-07C12.5846 1.5007e-07 12.6683 0.0345221 12.7293 0.095301L19.3571 6.69613C19.4184 6.75715 19.4492 6.83641 19.4492 6.91542C19.4492 6.99444 19.4184 7.07345 19.3571 7.13471L12.7293 13.7355C12.6685 13.7963 12.5846 13.8304 12.4971 13.8304C12.4096 13.8304 12.326 13.7963 12.2649 13.7355L12.2652 13.7355Z" fill="#131A22"/>
</svg>
