<svg width="20" height="29" viewBox="0 0 20 29" fill="none" xmlns="http://www.w3.org/2000/svg">
<path d="M0.135913 18.5578L2.70604 15.9766C2.88138 15.8002 3.16129 15.8005 3.33628 15.9776L7.66154 20.3513L7.66154 1.43634C7.66154 1.17978 7.86372 0.971679 8.11226 0.971679L11.7177 0.971679C11.9666 0.971679 12.1684 1.17978 12.1684 1.43634L12.1684 20.3513L16.4937 15.9776C16.6686 15.8009 16.9482 15.8005 17.1236 15.9766L19.6937 18.5575C19.7808 18.645 19.8303 18.7649 19.8303 18.8904C19.8303 19.0159 19.7808 19.1358 19.6937 19.2233L10.2292 28.7264C10.1417 28.8143 10.0281 28.8586 9.91479 28.8586C9.8015 28.8586 9.68821 28.8143 9.60037 28.7264L0.135913 19.2233C0.0487669 19.1361 -3.4882e-05 19.0159 -3.4871e-05 18.8904C-3.48601e-05 18.7649 0.048767 18.645 0.135913 18.5575L0.135913 18.5578Z" fill="#FF0022"/>
</svg>
