<svg width="24" height="24" viewBox="0 0 24 24" fill="none" xmlns="http://www.w3.org/2000/svg">
<path d="M23 12C23 18.0751 18.0751 23 12 23M23 12C23 5.92487 18.0751 1 12 1M23 12C23 14.025 18.0751 15.6667 12 15.6667C5.92487 15.6667 1 14.025 1 12M23 12C23 9.97496 18.0751 8.33333 12 8.33333C5.92487 8.33333 1 9.97496 1 12M12 23C5.92487 23 1 18.0751 1 12M12 23C9.97496 23 8.33333 18.0751 8.33333 12C8.33333 5.92487 9.97496 1 12 1M12 23C14.025 23 15.6667 18.0751 15.6667 12C15.6667 5.92487 14.025 1 12 1M1 12C1 5.92487 5.92487 1 12 1" stroke="white" stroke-linecap="round" stroke-linejoin="round"/>
</svg>
