<svg width="68" height="13" viewBox="0 0 68 13" fill="none" xmlns="http://www.w3.org/2000/svg">
<path d="M67.9991 4.28986C67.995 4.53662 67.7752 4.73741 67.5057 4.73741H65.9794C65.8222 4.77253 65.6625 4.80686 65.5013 4.84138C65.3897 4.9245 65.3167 5.04995 65.3167 5.19232V11.8353C65.3167 12.0855 65.4138 12.2902 65.1421 12.2902H63.1382C62.8663 12.2902 62.6441 12.0855 62.6441 11.8353V5.44075V5.19235C62.6441 5.14474 62.6339 5.10024 62.6192 5.05691C62.5556 4.87285 62.4264 4.73741 62.2059 4.73741H60.4467C60.1749 4.73741 59.9526 4.53294 59.9526 4.2829V3.0154C59.9526 2.766 60.1749 2.56071 60.4467 2.56071H67.5057C67.5758 2.56071 67.6426 2.5752 67.7031 2.59972C67.8775 2.66999 68 2.83013 68 3.0154V4.2829L67.9991 4.28986ZM58.1349 12.288H56.4505C56.1786 12.288 55.9565 12.0835 55.9565 11.8339V10.1462C55.9565 9.89634 55.8304 9.8332 55.6763 10.0062C55.6763 10.0062 55.6763 10.0062 55.4859 10.1895C55.2959 10.3731 55.0868 10.5563 54.8585 10.7408C54.7712 10.8119 54.6815 10.883 54.5897 10.9551H54.59L54.5894 10.9559C54.5118 11.0178 54.433 11.0787 54.3525 11.1406C54.2892 11.1896 54.2254 11.236 54.1617 11.2831C53.5573 11.6921 52.5124 12.3325 50.8919 12.288H50.1457C49.8739 12.288 49.6517 12.0835 49.6517 11.8339V8.0401V6.91069V3.01337C49.6517 2.76354 49.8739 2.55946 50.1457 2.55946H51.8862C52.1578 2.55946 52.3802 2.76354 52.3802 3.01337V6.67842V7.5807V9.0674C52.3802 9.31641 52.5363 9.42898 52.727 9.31538C52.727 9.31538 52.8389 9.31538 53.0193 9.19303C53.2001 9.07108 53.3853 8.93606 53.5757 8.78673C53.8796 8.55939 54.1794 8.30852 54.4736 8.03296C54.7686 7.75779 55.0442 7.4798 55.3009 7.20074C55.3535 7.14007 55.4046 7.08103 55.455 7.022C55.5222 6.94334 55.5874 6.8645 55.6499 6.7877C55.7595 6.65225 55.8615 6.51845 55.9565 6.38733V6.34568V3.01337C55.9565 2.76354 56.1786 2.55946 56.4505 2.55946H58.1349C58.4067 2.55946 58.6291 2.76354 58.6291 3.01337V5.99063V6.19389V11.8338C58.629 12.0835 58.4067 12.288 58.1349 12.288ZM55.8618 1.61246C55.3827 1.88556 54.8402 2.02182 54.2341 2.02182C53.64 2.02182 53.1035 1.88556 52.6245 1.61246C52.41 1.48947 52.2355 1.34671 52.0974 1.18389C51.6574 0.622988 52.2457 0.5 52.2457 0.5H56.0769C56.4237 0.5 56.6016 0.741657 56.4721 1.03746C56.4721 1.03746 56.3405 1.33875 55.8618 1.61246ZM47.8233 12.2902H46.0801C45.5631 12.2902 45.4146 11.9842 45.3714 11.8447C45.3674 11.8239 45.3632 11.8026 45.3587 11.7797C45.3491 11.7338 45.3384 11.6774 45.3269 11.6165H42.5004V9.42323H44.7626C44.672 9.12418 44.5804 8.82717 44.4992 8.56753H44.4994C44.468 8.46417 44.4371 8.36142 44.4101 8.27073C44.4085 8.24132 44.4048 8.2117 44.3954 8.18025C44.3954 8.18025 44.3843 8.14164 44.3215 7.967C44.3139 7.94556 44.3056 7.9235 44.2965 7.89794C44.2107 7.662 44.1255 7.43444 44.0398 7.2163L44.0332 7.19995C43.8832 6.83103 43.7407 6.51481 43.6052 6.25192C43.4672 5.98574 43.379 5.81272 43.3412 5.73409C43.0932 6.22065 42.8666 6.73095 42.6546 7.25756C42.6228 7.33579 42.5882 7.41177 42.5572 7.49083C42.3922 7.9159 42.2432 8.69237 42.1012 9.11705C42.0459 9.12111 41.9906 9.125 41.9353 9.12889H41.5746H41.4124H39.1067C39.2568 8.64844 39.4185 7.82296 39.5873 7.35499C39.8353 6.66742 40.1013 5.99249 40.3899 5.33515C40.8095 4.37812 41.2393 3.55718 41.6801 2.87221C41.7357 2.79112 41.9329 2.56071 42.3834 2.56071H44.2584C44.5305 2.56071 44.866 2.73741 45.0043 2.95148C45.0043 2.95148 45.4964 3.71792 45.8147 4.32523C46.133 4.93192 46.4207 5.54229 46.6773 6.15409C46.8028 6.45335 46.9195 6.74994 47.0312 7.04574C47.1847 7.45246 47.327 7.85608 47.4569 8.25706C47.5828 8.64437 47.7013 9.03064 47.8035 9.41285L47.8065 9.42327H47.8233V9.48762C48.0463 10.3231 48.2274 11.0944 48.3672 11.8016C48.386 11.9567 48.3644 12.2902 47.8233 12.2902ZM38.3253 4.55318C38.3253 4.55318 38.3253 4.55318 38.0861 4.52273C37.8466 4.49372 37.5915 4.48394 37.3208 4.49436C36.2767 4.53419 35.4843 4.82792 34.9437 5.37723C34.4149 5.91386 34.1656 6.60122 34.1914 7.43387C34.1923 7.45185 34.191 7.46963 34.1917 7.48719C34.2286 8.30999 34.4383 8.91872 34.8205 9.31216C35.2025 9.70561 35.6163 9.97543 36.0618 10.1217C36.2984 10.1895 36.5294 10.2863 36.7546 10.3074C36.9361 10.3255 37.0982 10.3329 37.2422 10.3323H41.1798V11.8308V12.3568V12.3942H38.4244L27.9569 12.4083H27.9571H27.8089H27.8076L27.6029 12.4087C27.4429 12.4045 27.2559 12.391 27.1397 12.3828C25.812 12.2809 24.8064 11.9259 24.1251 11.2115C23.2671 10.3131 22.766 9.30274 22.6224 8.18314C22.6092 8.09817 22.5982 8.01033 22.5897 7.92047C22.5806 7.82996 22.5744 7.74234 22.5705 7.65714C22.5635 7.50375 22.5636 7.35442 22.5682 7.20652C22.6061 5.94841 23.0556 4.88638 23.9195 4.02332C24.8848 3.05834 26.2768 2.54154 28.0951 2.47188C28.4679 2.45756 28.8161 2.46392 29.1396 2.49047C29.4631 2.51581 29.771 2.55871 30.063 2.6161L30.1364 4.2411C30.1478 4.48665 29.975 4.65004 29.7535 4.60471C29.7535 4.60471 29.7535 4.60471 29.5141 4.57552C29.2746 4.54693 29.0194 4.53712 28.7492 4.54711C27.7048 4.58694 26.9124 4.88171 26.3721 5.4308C25.8789 5.93107 25.63 6.56267 25.619 7.32034C25.6182 7.39368 25.6163 7.46538 25.6198 7.54054C25.657 8.36334 25.8666 8.97229 26.2486 9.36613C26.6305 9.75875 27.0444 10.0284 27.49 10.1744C27.7266 10.2429 27.9577 10.2878 28.1827 10.3099C28.3645 10.3268 28.5263 10.3344 28.6706 10.3336L32.0309 10.3268C31.5767 9.64826 31.2951 8.91736 31.1942 8.12968C31.1808 8.04509 31.1698 7.95705 31.1613 7.86657C31.1524 7.77688 31.1462 7.68887 31.1423 7.60347C31.1394 7.54401 31.1392 7.48558 31.138 7.42819C31.1153 6.04834 31.5656 4.89541 32.4913 3.96986C33.4566 3.00569 34.8487 2.48744 36.6668 2.41881C37.0396 2.40492 37.3879 2.41085 37.7114 2.43679C38.035 2.46374 38.3423 2.50564 38.6348 2.56281L38.7081 4.18821C38.7192 4.43287 38.5471 4.59711 38.3253 4.55318ZM19.8937 11.2078C18.8334 12.0698 17.5342 12.5 15.9943 12.5C14.4354 12.5 13.1307 12.0698 12.0807 11.2078C11.0302 10.347 10.5053 9.0866 10.5053 7.42544C10.5053 7.1274 10.5228 6.84266 10.5562 6.56974C10.5668 6.48558 10.583 6.40385 10.5966 6.32112C10.7851 5.18882 11.2765 4.28904 12.0807 3.62963C13.1307 2.76843 14.4354 2.33861 15.9943 2.33861C17.5342 2.33861 18.8334 2.76839 19.8937 3.62963C20.8953 4.44386 21.4231 5.61985 21.4778 7.15641C21.4809 7.24485 21.4833 7.33393 21.4833 7.42544C21.4833 7.76475 21.4601 8.08585 21.4158 8.39104C21.244 9.58298 20.7374 10.5231 19.8937 11.2078ZM18.3656 6.98217C18.3071 6.39489 18.131 5.86929 17.8335 5.40621C17.4629 4.82956 16.8498 4.5409 15.9943 4.5409C15.1197 4.5409 14.5019 4.82953 14.1409 5.40621C13.9111 5.7741 13.7572 6.1804 13.6739 6.62492C13.6377 6.81918 13.6136 7.01979 13.6049 7.22815C13.6021 7.29371 13.5992 7.35867 13.5992 7.42548C13.5992 8.19517 13.7822 8.86786 14.1481 9.4445C14.5136 10.0222 15.1293 10.3102 15.9944 10.3102C16.8498 10.3102 17.463 10.0222 17.8336 9.4445C18.1064 9.01983 18.2782 8.54265 18.3499 8.01337C18.3758 7.82399 18.3895 7.62852 18.3895 7.42548C18.3894 7.27326 18.3802 7.12622 18.3656 6.98217ZM4.96693 10.0874C4.91986 10.0874 4.87315 10.0863 4.82636 10.0847C4.48934 10.0778 4.48208 9.72677 4.48208 9.72677V8.14653C4.48208 7.95105 4.62378 7.90244 4.69692 7.88974L4.71087 7.8877C4.7273 7.88585 4.73927 7.88524 4.73927 7.88524L4.73768 7.88442C5.09556 7.83702 5.40107 7.71775 5.65146 7.52409C5.98392 7.26652 6.15031 6.87082 6.15031 6.33707C6.15031 6.27622 6.14315 6.17386 6.12895 6.02903C6.1213 5.94977 6.10005 5.86807 6.06818 5.78206C6.04176 5.71139 6.0079 5.63844 5.96501 5.56371C5.93522 5.51017 5.90151 5.45974 5.86506 5.41295C5.85592 5.40132 5.84406 5.38965 5.83404 5.37783C5.80499 5.34411 5.77549 5.3102 5.74337 5.27936L5.72708 5.26159L5.72003 5.25913C5.27357 4.8514 4.56991 4.76275 4.28169 4.74376L4.27624 4.74112C4.26019 4.7403 4.24287 4.74052 4.22658 4.7403C4.18061 4.73766 4.15246 4.73766 4.15246 4.73766L4.15345 4.73827C4.12986 4.73805 4.10737 4.73745 4.08315 4.73745H3.22284C2.95095 4.73745 2.72871 4.94131 2.72871 5.19235V5.24546V11.8353C2.72871 12.0855 2.50647 12.2902 2.23468 12.2902H0.493885C0.222098 12.2902 0 12.0855 0 11.8353V4.63284V3.0154C0 2.85954 0.0864874 2.72185 0.21767 2.63912C0.296614 2.5903 0.391849 2.56067 0.493885 2.56067H4.14488C4.41652 2.56067 4.85916 2.58908 5.12847 2.62256C5.12847 2.62256 5.62731 2.68609 6.2256 2.82417H6.22486L6.2267 2.82457C6.40708 2.86664 6.59659 2.91525 6.78409 2.97122C7.41992 3.1951 8.44073 3.73602 8.99465 4.99067C9.10646 5.27237 9.18094 5.56428 9.21554 5.86536C9.22482 5.9442 9.23208 6.02468 9.23679 6.10762C9.23853 6.13764 9.23853 6.16501 9.23938 6.19364C9.24037 6.22836 9.24196 6.2643 9.24235 6.29842C9.24271 6.31498 9.24395 6.33315 9.24395 6.35032C9.24395 7.39946 8.87802 8.28458 8.14632 9.00566C7.41429 9.7262 6.35459 10.0874 4.96693 10.0874Z" fill="#FFFFFF"/>
</svg>
