<svg width="21" height="27" viewBox="0 0 21 27" fill="none" xmlns="http://www.w3.org/2000/svg">
<path d="M3.26446 12.2652L5.05695 10.4649C5.17924 10.3419 5.37446 10.3421 5.4965 10.4656L8.51308 13.516L8.51308 0.324073C8.51308 0.14514 8.65409 -4.64335e-07 8.82743 -4.54691e-07L11.342 -3.14791e-07C11.5156 -3.05134e-07 11.6563 0.14514 11.6563 0.324073L11.6563 13.516L14.6729 10.4656C14.7949 10.3424 14.9899 10.3421 15.1122 10.4649L16.9047 12.2649C16.9655 12.326 17 12.4096 17 12.4971C17 12.5846 16.9655 12.6683 16.9047 12.7293L10.3039 19.3571C10.2428 19.4184 10.1636 19.4492 10.0846 19.4492C10.0056 19.4492 9.92655 19.4184 9.86529 19.3571L3.26446 12.7293C3.20368 12.6685 3.16964 12.5846 3.16964 12.4971C3.16964 12.4096 3.20368 12.326 3.26446 12.2649L3.26446 12.2652Z" fill="#FF0022"/>
<rect y="23" width="21" height="4" fill="#FF0022"/>
</svg>
