<svg width="37" height="37" viewBox="0 0 37 37" fill="none" xmlns="http://www.w3.org/2000/svg">
<path d="M29.752 22.888C27.2623 21.7473 24.7067 20.7562 22.0988 19.9199C24.3975 17.8375 25.637 13.9594 25.948 11.0595C26.1706 10.816 26.3424 10.5306 26.4533 10.2199C26.5641 9.90914 26.6119 9.57941 26.5938 9.25C26.5938 7.1034 25.741 5.04473 24.2231 3.52685C22.7053 2.00898 20.6466 1.15625 18.5 1.15625C16.3534 1.15625 14.2947 2.00898 12.7769 3.52685C11.259 5.04473 10.4063 7.1034 10.4062 9.25C10.3776 9.90967 10.6086 10.5543 11.0497 11.0457C11.3596 13.9478 12.5991 17.8346 14.9012 19.9199C12.2933 20.7564 9.73772 21.7477 7.24795 22.8885C4.04687 24.5587 4.04688 31.7905 4.04688 35.2656C4.04688 35.419 4.10778 35.566 4.2162 35.6744C4.32462 35.7828 4.47167 35.8438 4.625 35.8438H32.375C32.5283 35.8438 32.6754 35.7828 32.7838 35.6744C32.8922 35.566 32.9531 35.419 32.9531 35.2656C32.9531 31.7911 32.9531 24.5593 29.752 22.888ZM15.6094 28.7097C15.609 28.2607 15.7133 27.8178 15.914 27.4162C16.1147 27.0145 16.4063 26.6652 16.7656 26.396V28.7091C16.7656 28.8624 16.8265 29.0095 16.935 29.1179C17.0434 29.2263 17.1904 29.2872 17.3438 29.2872H19.6562C19.8096 29.2872 19.9566 29.2263 20.065 29.1179C20.1735 29.0095 20.2344 28.8624 20.2344 28.7091V26.3966C20.6286 26.6922 20.9406 27.0837 21.1409 27.5339C21.3413 27.9841 21.4232 28.478 21.3789 28.9687C21.3347 29.4594 21.1657 29.9307 20.8881 30.3378C20.6105 30.7449 20.2334 31.0742 19.7927 31.2946C19.352 31.5149 18.8623 31.619 18.3701 31.5968C17.8778 31.5747 17.3994 31.4271 16.9803 31.168C16.5612 30.909 16.2152 30.5471 15.9753 30.1167C15.7353 29.6864 15.6094 29.2024 15.6094 28.7097ZM22.5469 28.7097C22.548 27.8725 22.2886 27.0557 21.8048 26.3724C21.3209 25.6892 20.6365 25.1733 19.8465 24.8964C19.7593 24.8619 19.665 24.8497 19.572 24.861C19.479 24.8722 19.3903 24.9066 19.3139 24.9609C19.2376 25.0152 19.176 25.0877 19.1348 25.1718C19.0936 25.256 19.0741 25.3491 19.0781 25.4427V28.131H17.9219V25.4427C17.9237 25.3498 17.9028 25.2579 17.861 25.1749C17.8192 25.0919 17.7578 25.0204 17.682 24.9666C17.6063 24.9127 17.5186 24.8782 17.4265 24.866C17.3344 24.8537 17.2407 24.8642 17.1535 24.8964C16.3978 25.1619 15.7381 25.6461 15.2582 26.2874C14.7783 26.9287 14.4999 27.6982 14.4583 28.4982C14.4168 29.2981 14.6139 30.0923 15.0247 30.7799C15.4356 31.4675 16.0415 32.0175 16.7656 32.36V34.6875H10.4062V22.766C11.3224 22.4083 12.2445 22.0658 13.172 21.7387C14.6576 23.0067 16.5468 23.7033 18.5 23.7033C20.4532 23.7033 22.3424 23.0067 23.828 21.7387C24.7027 22.0485 25.674 22.4047 26.5938 22.766V34.6875H20.2344V32.36C20.9254 32.0321 21.5093 31.5151 21.9186 30.869C22.3278 30.2228 22.5457 29.4745 22.5469 28.7097ZM11.7151 9.95358C11.6381 9.84888 11.5873 9.7273 11.5668 9.59896C11.5463 9.47063 11.5568 9.33926 11.5973 9.21579C11.6379 9.09232 11.7073 8.98032 11.7999 8.88913C11.8925 8.79794 12.0056 8.73019 12.1296 8.69153C16.3327 7.82604 20.6685 7.83056 24.8698 8.70483C25.5121 8.88867 25.4907 9.5223 25.2976 9.94838L24.8206 10.6676C24.5899 11.0286 24.2366 11.2942 23.8256 11.4155C23.4146 11.5368 22.9737 11.5057 22.5839 11.3278C21.3177 10.7233 19.9325 10.4091 18.5294 10.4083C17.1263 10.4075 15.7408 10.7201 14.4739 11.3232C14.0924 11.5023 13.6596 11.5398 13.253 11.429C12.8464 11.3182 12.4924 11.0663 12.2545 10.7184L11.7151 9.95358ZM18.5 2.3125C20.0544 2.3153 21.5629 2.83957 22.784 3.80137C24.0052 4.76317 24.8683 6.10688 25.2352 7.61737C20.8005 6.63445 16.2049 6.62992 11.7683 7.60408C12.1375 6.09658 13.0012 4.75625 14.2214 3.79708C15.4416 2.83792 16.9479 2.31524 18.5 2.3125ZM12.4193 12.3441C12.8117 12.5434 13.2447 12.6497 13.6848 12.6548C14.1249 12.6599 14.5603 12.5637 14.9572 12.3736C16.073 11.8349 17.2962 11.5559 18.5352 11.5575C19.7741 11.5591 20.9967 11.8413 22.111 12.3829C22.4981 12.5607 22.9196 12.6512 23.3456 12.648C23.7716 12.6448 24.1917 12.548 24.5761 12.3644C23.8719 15.8678 21.8803 20.2344 18.5 20.2344C15.1128 20.2344 13.12 15.8516 12.4193 12.3441ZM18.5 21.3906C19.3624 21.3914 20.2103 21.1687 20.9611 20.7443C21.0622 20.7813 21.76 21.0235 22.5157 21.2819C21.3385 22.1054 19.9366 22.547 18.5 22.547C17.0634 22.547 15.6615 22.1054 14.4843 21.2819C15.0038 21.1059 15.5222 20.9267 16.0395 20.7443C16.7901 21.1686 17.6378 21.3913 18.5 21.3906ZM7.7833 23.9136C8.26333 23.6692 8.75259 23.4433 9.25 23.2366V34.6875H5.2037C5.21353 31.6234 5.36847 25.1745 7.7833 23.9136ZM17.9219 34.6875V32.7103C18.3049 32.771 18.6951 32.771 19.0781 32.7103V34.6875H17.9219ZM27.75 34.6875V23.2366C28.3056 23.4719 28.8114 23.702 29.2167 23.9136C31.6315 25.1739 31.7865 31.6234 31.7969 34.6875H27.75Z" fill="#1C4A47"/>
</svg>
