<?xml version="1.0" encoding="utf-8"?>
<!-- Generator: Adobe Illustrator 24.3.0, SVG Export Plug-In . SVG Version: 6.00 Build 0)  -->
<svg version="1.1" id="Группа_1_копия_" xmlns="http://www.w3.org/2000/svg" xmlns:xlink="http://www.w3.org/1999/xlink"
	 x="0px" y="0px" width="220.425px" height="38.771px" viewBox="0 0 220.425 38.771" enable-background="new 0 0 220.425 38.771"
	 xml:space="preserve">
<g>
	<path fill="#FFFFFF" d="M77.321,13.757v-3.66c0-2.551-0.014-4.048-0.042-4.492c-0.028-0.374-0.101-0.648-0.218-0.821
		c-0.118-0.173-0.343-0.294-0.676-0.364c-0.042-0.014-0.097-0.024-0.166-0.031c-0.07-0.007-0.149-0.014-0.239-0.021
		c-0.09-0.007-0.156-0.01-0.198-0.01c-0.18-0.028-0.27-0.069-0.27-0.125c0-0.111,0.111-0.166,0.333-0.166
		c0.693,0,1.476,0.021,2.35,0.062c2.856,0,4.443-0.007,4.762-0.021c0.513-0.028,0.832-0.069,0.957-0.125
		C84.023,3.928,84.1,3.9,84.141,3.9c0.055,0,0.083,0.062,0.083,0.187c0,0.028-0.024,0.142-0.073,0.343
		c-0.049,0.201-0.08,0.413-0.094,0.634l-0.083,1.248c-0.028,0.236-0.083,0.354-0.166,0.354c-0.111,0-0.166-0.09-0.166-0.27
		c0-0.277-0.035-0.506-0.104-0.686C83.399,5.28,82.9,5.023,82.041,4.94c-0.361-0.042-1.31-0.062-2.849-0.062
		c-0.083,0-0.125,0.07-0.125,0.208v5.739c0,0.139,0.042,0.208,0.125,0.208c1.885,0,2.987-0.014,3.306-0.042
		c0.527-0.042,0.873-0.159,1.04-0.354c0.111-0.138,0.194-0.208,0.25-0.208c0.069,0,0.104,0.056,0.104,0.166
		c0,0.028-0.01,0.09-0.031,0.187c-0.021,0.097-0.045,0.236-0.073,0.416c-0.028,0.18-0.049,0.367-0.062,0.561
		c-0.028,0.25-0.049,0.544-0.062,0.884c-0.014,0.34-0.021,0.517-0.021,0.53c-0.028,0.208-0.076,0.312-0.146,0.312
		c-0.097,0-0.146-0.111-0.146-0.333c0-0.222-0.028-0.416-0.083-0.582c-0.097-0.388-0.457-0.617-1.081-0.686
		c-0.624-0.069-1.615-0.104-2.974-0.104c-0.097,0-0.146,0.049-0.146,0.146v1.83c0,0.125,0,0.482,0,1.071c0,0.589,0,1.12,0,1.591
		c0,0.471,0,0.769,0,0.894c0.028,0.457,0.086,0.801,0.177,1.029c0.09,0.229,0.26,0.392,0.509,0.489
		c0.305,0.125,0.88,0.187,1.726,0.187c0.832,0,1.456-0.062,1.871-0.187c0.319-0.097,0.554-0.26,0.707-0.489
		c0.152-0.229,0.27-0.579,0.354-1.05c0.042-0.208,0.104-0.312,0.187-0.312s0.125,0.104,0.125,0.312c0,0.097-0.035,0.409-0.104,0.936
		c-0.07,0.527-0.125,0.887-0.166,1.081c-0.07,0.264-0.166,0.419-0.291,0.468c-0.125,0.048-0.402,0.073-0.832,0.073
		c-0.402,0-1.414-0.021-3.036-0.062c-1.664-0.042-2.53-0.062-2.599-0.062c-0.139,0-0.381,0.014-0.728,0.042
		c-0.347,0.028-0.617,0.034-0.811,0.021c-0.222,0-0.333-0.056-0.333-0.166c0-0.055,0.076-0.097,0.229-0.125
		c0.263-0.028,0.423-0.048,0.478-0.062c0.25-0.055,0.433-0.215,0.551-0.478c0.118-0.263,0.184-0.755,0.198-1.476
		C77.307,16.397,77.321,15.157,77.321,13.757z"/>
	<path fill="#FFFFFF" d="M93.54,20.078c-1.095,0-2.024-0.187-2.786-0.561c-0.139-0.069-0.225-0.146-0.26-0.229
		c-0.035-0.083-0.052-0.27-0.052-0.561c0-0.36,0.034-1.095,0.104-2.204c0.014-0.222,0.069-0.333,0.166-0.333
		c0.097,0,0.146,0.076,0.146,0.229c0,0.319,0.021,0.575,0.062,0.769c0.152,0.721,0.513,1.255,1.081,1.601
		c0.568,0.347,1.234,0.52,1.996,0.52c0.943,0,1.674-0.277,2.194-0.832c0.52-0.554,0.78-1.199,0.78-1.934
		c0-0.707-0.17-1.317-0.509-1.83c-0.34-0.513-0.967-1.151-1.882-1.913l-0.936-0.769c-1.04-0.845-1.75-1.615-2.131-2.308
		c-0.381-0.693-0.572-1.428-0.572-2.204c0-1.123,0.388-2.027,1.164-2.714c0.776-0.686,1.823-1.029,3.14-1.029
		c0.707,0,1.352,0.07,1.934,0.208c0.333,0.07,0.575,0.104,0.728,0.104c0.138,0,0.208,0.049,0.208,0.146l-0.021,0.27
		c-0.014,0.18-0.028,0.444-0.042,0.79c-0.014,0.347-0.021,0.728-0.021,1.144c0,0.319-0.049,0.478-0.146,0.478
		c-0.083,0-0.139-0.09-0.166-0.27c-0.042-0.43-0.132-0.776-0.27-1.04c-0.402-0.735-1.268-1.102-2.599-1.102
		c-0.735,0-1.345,0.218-1.83,0.655c-0.485,0.437-0.728,1.022-0.728,1.757c0,0.596,0.173,1.133,0.52,1.612
		c0.346,0.478,1.019,1.106,2.017,1.882l0.582,0.457c1.178,0.929,1.979,1.754,2.402,2.475c0.423,0.721,0.634,1.525,0.634,2.412
		c0,0.555-0.135,1.154-0.405,1.799s-0.725,1.196-1.362,1.653C95.848,19.787,94.801,20.078,93.54,20.078z"/>
	<path fill="#FFFFFF" d="M106.016,13.757v-3.66c0-2.551-0.014-4.048-0.042-4.492c-0.028-0.374-0.101-0.648-0.218-0.821
		c-0.118-0.173-0.343-0.294-0.676-0.364c-0.166-0.042-0.402-0.062-0.707-0.062c-0.111,0-0.166-0.042-0.166-0.125
		c0-0.111,0.111-0.166,0.333-0.166c0.277,0,0.596,0.004,0.957,0.01c0.36,0.007,0.676,0.018,0.946,0.031
		c0.27,0.014,0.419,0.021,0.447,0.021c0.111,0,0.485-0.01,1.123-0.031c0.637-0.021,1.137-0.031,1.497-0.031
		c1.733,0,3.022,0.395,3.868,1.185c0.693,0.665,1.04,1.574,1.04,2.724c0,1.359-0.485,2.482-1.456,3.369
		c-0.971,0.887-2.191,1.331-3.66,1.331c-0.222,0-0.367-0.007-0.437-0.021c-0.153,0-0.229-0.048-0.229-0.146
		c0-0.125,0.187-0.187,0.561-0.187c1.026,0,1.882-0.326,2.568-0.977c0.686-0.651,1.029-1.511,1.029-2.578
		c0-1.234-0.388-2.246-1.164-3.036c-0.679-0.693-1.629-1.04-2.849-1.04c-0.402,0-0.7,0.042-0.894,0.125
		c-0.111,0.042-0.166,0.174-0.166,0.395v8.546c0,2.426,0.034,3.93,0.104,4.512c0.042,0.347,0.114,0.613,0.218,0.801
		s0.302,0.302,0.593,0.343c0.388,0.056,0.7,0.083,0.936,0.083c0.111,0,0.166,0.042,0.166,0.125c0,0.111-0.111,0.166-0.333,0.166
		c-0.333,0-0.704-0.004-1.112-0.01c-0.409-0.007-0.749-0.018-1.019-0.031c-0.27-0.014-0.413-0.021-0.426-0.021h-0.374
		c-0.25,0.014-0.537,0.028-0.863,0.042c-0.326,0.014-0.579,0.021-0.759,0.021c-0.222,0-0.333-0.056-0.333-0.166
		c0-0.083,0.055-0.125,0.166-0.125c0.166,0,0.374-0.028,0.624-0.083c0.305-0.055,0.506-0.437,0.603-1.144
		C105.981,17.687,106.016,16.183,106.016,13.757z"/>
	<path fill="#FFFFFF" d="M121.445,13.757v-3.66c0-2.551-0.014-4.048-0.042-4.492c-0.028-0.374-0.101-0.648-0.218-0.821
		c-0.118-0.173-0.343-0.294-0.676-0.364c-0.042-0.014-0.097-0.024-0.166-0.031c-0.07-0.007-0.149-0.014-0.239-0.021
		c-0.09-0.007-0.156-0.01-0.198-0.01c-0.18-0.028-0.27-0.069-0.27-0.125c0-0.111,0.111-0.166,0.333-0.166
		c0.693,0,1.476,0.021,2.35,0.062c2.856,0,4.443-0.007,4.762-0.021c0.513-0.028,0.832-0.069,0.957-0.125
		c0.111-0.055,0.187-0.083,0.229-0.083c0.055,0,0.083,0.062,0.083,0.187c0,0.028-0.024,0.142-0.073,0.343
		c-0.049,0.201-0.08,0.413-0.094,0.634l-0.083,1.248c-0.028,0.236-0.083,0.354-0.166,0.354c-0.111,0-0.166-0.09-0.166-0.27
		c0-0.277-0.035-0.506-0.104-0.686c-0.139-0.43-0.638-0.686-1.497-0.769c-0.361-0.042-1.31-0.062-2.849-0.062
		c-0.083,0-0.125,0.07-0.125,0.208v5.739c0,0.139,0.042,0.208,0.125,0.208c1.885,0,2.987-0.014,3.306-0.042
		c0.527-0.042,0.873-0.159,1.04-0.354c0.111-0.138,0.194-0.208,0.25-0.208c0.069,0,0.104,0.056,0.104,0.166
		c0,0.028-0.01,0.09-0.031,0.187c-0.021,0.097-0.045,0.236-0.073,0.416c-0.028,0.18-0.049,0.367-0.062,0.561
		c-0.028,0.25-0.049,0.544-0.062,0.884c-0.014,0.34-0.021,0.517-0.021,0.53c-0.028,0.208-0.076,0.312-0.146,0.312
		c-0.097,0-0.146-0.111-0.146-0.333c0-0.222-0.028-0.416-0.083-0.582c-0.097-0.388-0.457-0.617-1.081-0.686
		c-0.624-0.069-1.615-0.104-2.974-0.104c-0.097,0-0.146,0.049-0.146,0.146v1.83c0,0.125,0,0.482,0,1.071c0,0.589,0,1.12,0,1.591
		c0,0.471,0,0.769,0,0.894c0.028,0.457,0.086,0.801,0.177,1.029c0.09,0.229,0.26,0.392,0.509,0.489
		c0.305,0.125,0.88,0.187,1.726,0.187c0.832,0,1.456-0.062,1.871-0.187c0.319-0.097,0.554-0.26,0.707-0.489
		c0.152-0.229,0.27-0.579,0.354-1.05c0.042-0.208,0.104-0.312,0.187-0.312c0.083,0,0.125,0.104,0.125,0.312
		c0,0.097-0.035,0.409-0.104,0.936c-0.07,0.527-0.125,0.887-0.166,1.081c-0.07,0.264-0.166,0.419-0.291,0.468
		c-0.125,0.048-0.402,0.073-0.832,0.073c-0.402,0-1.414-0.021-3.036-0.062c-1.664-0.042-2.53-0.062-2.599-0.062
		c-0.139,0-0.381,0.014-0.728,0.042c-0.347,0.028-0.617,0.034-0.811,0.021c-0.222,0-0.333-0.056-0.333-0.166
		c0-0.055,0.076-0.097,0.229-0.125c0.263-0.028,0.423-0.048,0.478-0.062c0.25-0.055,0.433-0.215,0.551-0.478
		c0.118-0.263,0.184-0.755,0.198-1.476C121.431,16.397,121.445,15.157,121.445,13.757z"/>
	<path fill="#FFFFFF" d="M136.209,13.757v-3.66c0-2.551-0.014-4.048-0.042-4.492c-0.028-0.374-0.101-0.648-0.218-0.821
		c-0.118-0.173-0.343-0.294-0.676-0.364c-0.166-0.042-0.402-0.062-0.707-0.062c-0.111,0-0.166-0.042-0.166-0.125
		c0-0.111,0.111-0.166,0.333-0.166c0.277,0,0.603,0.004,0.977,0.01c0.374,0.007,0.693,0.018,0.957,0.031
		c0.263,0.014,0.402,0.021,0.416,0.021c0.042,0,0.398-0.01,1.071-0.031c0.672-0.021,1.133-0.031,1.383-0.031
		c1.691,0,2.96,0.305,3.805,0.915c0.346,0.25,0.672,0.624,0.977,1.123c0.305,0.499,0.457,1.068,0.457,1.705
		c0,1.65-0.839,3.251-2.516,4.803c2.204,2.828,3.646,4.603,4.325,5.323c0.818,0.86,1.664,1.359,2.537,1.497
		c0.263,0.042,0.533,0.062,0.811,0.062c0.125,0,0.187,0.042,0.187,0.125c0,0.111-0.166,0.166-0.499,0.166h-1.476
		c-0.998,0-1.74-0.132-2.225-0.395c-0.277-0.152-0.586-0.402-0.925-0.749c-0.34-0.346-0.593-0.627-0.759-0.842
		c-0.166-0.215-0.541-0.703-1.123-1.466c-0.319-0.43-0.749-1.015-1.289-1.757c-0.541-0.741-0.867-1.182-0.977-1.32
		c-0.083-0.083-0.173-0.125-0.27-0.125l-2.558-0.042c-0.097,0-0.146,0.056-0.146,0.166v0.499c0,2.426,0.034,3.93,0.104,4.512
		c0.042,0.347,0.114,0.613,0.218,0.801s0.302,0.302,0.593,0.343c0.388,0.056,0.7,0.083,0.936,0.083c0.111,0,0.166,0.042,0.166,0.125
		c0,0.111-0.111,0.166-0.333,0.166c-0.333,0-0.704-0.004-1.112-0.01c-0.409-0.007-0.749-0.018-1.019-0.031
		c-0.27-0.014-0.413-0.021-0.426-0.021h-0.146c-0.097,0.014-0.222,0.024-0.374,0.031c-0.153,0.007-0.312,0.01-0.478,0.01
		s-0.34,0.003-0.52,0.01c-0.18,0.007-0.326,0.01-0.437,0.01c-0.222,0-0.333-0.056-0.333-0.166c0-0.083,0.055-0.125,0.166-0.125
		c0.166,0,0.374-0.028,0.624-0.083c0.305-0.055,0.506-0.437,0.603-1.144C136.174,17.687,136.209,16.183,136.209,13.757z
		 M137.872,5.106v6.8c0,0.111,0.048,0.194,0.146,0.25c0.374,0.222,1.102,0.333,2.183,0.333c0.665,0,1.185-0.132,1.56-0.395
		c0.845-0.582,1.268-1.65,1.268-3.202c0-1.303-0.322-2.322-0.967-3.057c-0.645-0.735-1.522-1.102-2.63-1.102
		c-0.652,0-1.116,0.042-1.393,0.125C137.928,4.898,137.872,4.981,137.872,5.106z"/>
	<path fill="#FFFFFF" d="M159.394,13.653h-4.471c-0.097,0-0.166,0.056-0.208,0.166l-1.248,3.681
		c-0.194,0.541-0.291,1.005-0.291,1.393c0,0.194,0.076,0.343,0.229,0.447c0.152,0.104,0.326,0.156,0.52,0.156h0.187
		c0.18,0,0.27,0.042,0.27,0.125c0,0.111-0.125,0.166-0.374,0.166c-0.194,0-0.489-0.01-0.884-0.031
		c-0.395-0.021-0.621-0.031-0.676-0.031c-0.014,0-0.312,0.01-0.894,0.031c-0.582,0.021-1.068,0.031-1.456,0.031
		c-0.263,0-0.395-0.056-0.395-0.166c0-0.083,0.097-0.125,0.291-0.125c0.111,0,0.277-0.014,0.499-0.042
		c0.443-0.055,0.79-0.246,1.04-0.572c0.25-0.326,0.485-0.787,0.707-1.383l4.72-12.913c0.194-0.541,0.346-0.811,0.457-0.811
		c0.111,0,0.263,0.25,0.457,0.749c0.055,0.139,0.405,1.054,1.05,2.745c0.645,1.691,1.344,3.514,2.1,5.469
		c0.755,1.955,1.32,3.397,1.695,4.325c0.554,1.359,1.15,2.128,1.788,2.308c0.25,0.083,0.52,0.125,0.811,0.125
		c0.152,0,0.229,0.042,0.229,0.125c0,0.111-0.139,0.166-0.416,0.166c-1.22,0-2.308-0.014-3.265-0.042
		c-0.416-0.028-0.624-0.076-0.624-0.146c0-0.069,0.048-0.118,0.146-0.146c0.194-0.069,0.236-0.256,0.125-0.561l-1.934-5.115
		C159.54,13.694,159.477,13.653,159.394,13.653z M155.152,12.904h3.972c0.083,0,0.111-0.048,0.083-0.146l-1.975-5.614
		c-0.097-0.319-0.201-0.319-0.312,0l-1.83,5.614C155.048,12.856,155.069,12.904,155.152,12.904z"/>
	<path fill="#FFFFFF" d="M169.916,16.73v-3.078c0-2.093,0.003-3.67,0.01-4.731c0.007-1.061,0.01-1.622,0.01-1.684
		c0-0.062,0-0.87,0-2.423c0-0.693,0.076-1.04,0.229-1.04c0.055,0,0.121,0.035,0.198,0.104c0.076,0.07,0.177,0.174,0.302,0.312
		c0.125,0.139,0.201,0.222,0.229,0.25c0.513,0.582,2.717,2.96,6.613,7.132c0.721,0.777,1.681,1.823,2.88,3.14
		c1.199,1.317,1.903,2.079,2.111,2.287l-0.229-10.563c-0.014-0.693-0.073-1.175-0.177-1.445s-0.315-0.447-0.634-0.53
		c-0.305-0.069-0.603-0.104-0.894-0.104c-0.194,0-0.291-0.048-0.291-0.146c0-0.097,0.138-0.146,0.416-0.146
		c0.374,0,0.825,0.01,1.352,0.031c0.527,0.021,0.797,0.031,0.811,0.031c0.028,0,0.246-0.01,0.655-0.031
		c0.409-0.021,0.78-0.031,1.112-0.031c0.25,0,0.374,0.049,0.374,0.146c0,0.07-0.076,0.118-0.229,0.146
		c-0.111,0.014-0.291,0.042-0.541,0.083c-0.291,0.07-0.485,0.222-0.582,0.457c-0.097,0.236-0.146,0.707-0.146,1.414l-0.042,12.144
		c0,0.347-0.004,0.617-0.01,0.811c-0.007,0.194-0.018,0.34-0.031,0.437c-0.014,0.097-0.031,0.159-0.052,0.187
		c-0.021,0.028-0.052,0.042-0.094,0.042c-0.125,0-0.631-0.444-1.518-1.331c-0.083-0.083-0.409-0.412-0.977-0.988
		c-0.569-0.575-1.286-1.313-2.152-2.215c-0.867-0.901-1.632-1.712-2.298-2.433c-1.941-2.093-3.75-4.082-5.427-5.968l0.27,9.96
		c0.014,0.846,0.08,1.438,0.198,1.778c0.118,0.34,0.322,0.551,0.613,0.634c0.319,0.083,0.665,0.125,1.04,0.125
		c0.111,0,0.166,0.042,0.166,0.125c0,0.111-0.125,0.166-0.374,0.166c-0.347,0-0.69-0.004-1.029-0.01
		c-0.34-0.007-0.613-0.018-0.821-0.031c-0.208-0.014-0.326-0.021-0.354-0.021l-0.707,0.042c-0.485,0.014-0.915,0.021-1.289,0.021
		c-0.222,0-0.333-0.056-0.333-0.166c0-0.083,0.055-0.125,0.166-0.125c0.319,0,0.603-0.042,0.853-0.125
		c0.25-0.069,0.416-0.284,0.499-0.645C169.874,18.366,169.916,17.701,169.916,16.73z"/>
	<path fill="#FFFFFF" d="M192.498,18.893h5.656c1.012,0,1.75-0.083,2.215-0.25c0.464-0.166,0.821-0.423,1.071-0.769
		c0.208-0.305,0.346-0.679,0.416-1.123c0.042-0.222,0.104-0.333,0.187-0.333c0.111,0,0.166,0.16,0.166,0.478
		c0,0.444-0.139,1.241-0.416,2.391c-0.07,0.25-0.132,0.402-0.187,0.457c-0.056,0.055-0.201,0.083-0.437,0.083
		c-1.151,0-2.898-0.018-5.24-0.052c-2.343-0.035-4.131-0.052-5.365-0.052c-0.25,0-0.374-0.055-0.374-0.166
		c0-0.097,0.097-0.291,0.291-0.582c4.519-6.82,7.562-11.506,9.129-14.057h-4.512c-1.47,0-2.468,0.139-2.994,0.416
		c-0.347,0.18-0.621,0.43-0.821,0.749c-0.201,0.319-0.322,0.617-0.364,0.894c-0.028,0.25-0.104,0.374-0.229,0.374
		c-0.083,0-0.125-0.09-0.125-0.27c0-0.18,0.138-1.102,0.416-2.766c0.042-0.263,0.111-0.395,0.208-0.395
		c0.042,0,0.142,0.021,0.302,0.062c0.159,0.042,0.35,0.07,0.572,0.083c0.984,0.042,2.19,0.062,3.618,0.062h5.802
		c0.277,0,0.416,0.056,0.416,0.166c0,0.083-0.028,0.166-0.083,0.25C199.513,8.191,196.408,12.974,192.498,18.893z"/>
	<path fill="#FFFFFF" d="M214.27,13.653h-4.471c-0.097,0-0.166,0.056-0.208,0.166l-1.248,3.681
		c-0.194,0.541-0.291,1.005-0.291,1.393c0,0.194,0.076,0.343,0.229,0.447c0.152,0.104,0.326,0.156,0.52,0.156h0.187
		c0.18,0,0.27,0.042,0.27,0.125c0,0.111-0.125,0.166-0.374,0.166c-0.194,0-0.489-0.01-0.884-0.031
		c-0.395-0.021-0.621-0.031-0.676-0.031c-0.014,0-0.312,0.01-0.894,0.031c-0.582,0.021-1.068,0.031-1.456,0.031
		c-0.263,0-0.395-0.056-0.395-0.166c0-0.083,0.097-0.125,0.291-0.125c0.111,0,0.277-0.014,0.499-0.042
		c0.443-0.055,0.79-0.246,1.04-0.572c0.25-0.326,0.485-0.787,0.707-1.383l4.72-12.913c0.194-0.541,0.346-0.811,0.457-0.811
		c0.111,0,0.263,0.25,0.457,0.749c0.055,0.139,0.405,1.054,1.05,2.745c0.645,1.691,1.344,3.514,2.1,5.469
		c0.755,1.955,1.32,3.397,1.695,4.325c0.554,1.359,1.15,2.128,1.788,2.308c0.25,0.083,0.52,0.125,0.811,0.125
		c0.152,0,0.229,0.042,0.229,0.125c0,0.111-0.139,0.166-0.416,0.166c-1.22,0-2.308-0.014-3.265-0.042
		c-0.416-0.028-0.624-0.076-0.624-0.146c0-0.069,0.048-0.118,0.146-0.146c0.194-0.069,0.236-0.256,0.125-0.561l-1.934-5.115
		C214.415,13.694,214.353,13.653,214.27,13.653z M210.027,12.904h3.972c0.083,0,0.111-0.048,0.083-0.146l-1.975-5.614
		c-0.097-0.319-0.201-0.319-0.312,0l-1.83,5.614C209.924,12.856,209.944,12.904,210.027,12.904z"/>
	<path fill="#FFFFFF" d="M98.216,35.835l-1.507-5.02c-0.068-0.22-0.134-0.374-0.199-0.461c-0.065-0.087-0.154-0.154-0.267-0.199
		c-0.09-0.034-0.217-0.051-0.381-0.051c-0.051,0-0.076-0.02-0.076-0.059s0.045-0.059,0.135-0.059c0.175,0,0.387,0.003,0.635,0.008
		l0.364,0.017c0.017,0,0.069-0.003,0.157-0.009c0.087-0.006,0.198-0.01,0.33-0.013c0.133-0.003,0.261-0.004,0.385-0.004
		c0.102,0,0.152,0.02,0.152,0.059s-0.028,0.059-0.085,0.059c-0.152,0-0.262,0.017-0.33,0.051c-0.073,0.04-0.11,0.107-0.11,0.203
		c0,0.045,0.054,0.305,0.161,0.779c0.107,0.457,0.488,1.832,1.143,4.123l1.803-4.851c0.096-0.26,0.166-0.389,0.212-0.389
		c0.045,0,0.116,0.133,0.212,0.398l1.702,4.851c0.022-0.085,0.219-0.727,0.588-1.926c0.37-1.199,0.614-2.013,0.732-2.442
		c0.062-0.231,0.093-0.412,0.093-0.542c0-0.169-0.161-0.254-0.482-0.254c-0.051,0-0.076-0.02-0.076-0.059s0.048-0.059,0.144-0.059
		c0.124,0,0.252,0.001,0.385,0.004c0.133,0.003,0.241,0.007,0.326,0.013c0.085,0.006,0.135,0.009,0.152,0.009l0.263-0.017
		c0.175-0.006,0.316-0.008,0.423-0.008c0.079,0,0.118,0.017,0.118,0.051c0,0.045-0.025,0.068-0.076,0.068
		c-0.113,0-0.209,0.014-0.288,0.042c-0.113,0.04-0.209,0.131-0.288,0.275c-0.079,0.144-0.167,0.357-0.263,0.639
		c-0.124,0.361-0.388,1.16-0.792,2.396c-0.404,1.236-0.659,2.009-0.766,2.32c-0.113,0.322-0.189,0.524-0.229,0.605
		c-0.039,0.082-0.082,0.123-0.127,0.123c-0.039,0-0.076-0.03-0.11-0.089c-0.034-0.059-0.082-0.176-0.144-0.351l-1.668-4.733
		c-0.948,2.534-1.541,4.109-1.778,4.724c-0.113,0.299-0.206,0.449-0.279,0.449c-0.045,0-0.085-0.04-0.119-0.119
		C98.36,36.306,98.3,36.123,98.216,35.835z"/>
	<path fill="#FFFFFF" d="M107.545,33.93v-1.49c0-1.038-0.006-1.648-0.017-1.829c-0.011-0.152-0.041-0.264-0.089-0.334
		c-0.048-0.071-0.14-0.12-0.275-0.148c-0.017-0.006-0.04-0.01-0.068-0.013c-0.028-0.003-0.061-0.006-0.097-0.008
		c-0.037-0.003-0.064-0.004-0.08-0.004c-0.073-0.011-0.11-0.028-0.11-0.051c0-0.045,0.045-0.068,0.135-0.068
		c0.282,0,0.601,0.008,0.957,0.025c1.163,0,1.809-0.003,1.939-0.009c0.209-0.011,0.339-0.028,0.389-0.051
		c0.045-0.023,0.076-0.034,0.093-0.034c0.023,0,0.034,0.025,0.034,0.076c0,0.011-0.01,0.058-0.03,0.14
		c-0.02,0.082-0.033,0.168-0.038,0.258l-0.034,0.508c-0.011,0.096-0.034,0.144-0.068,0.144c-0.045,0-0.068-0.037-0.068-0.11
		c0-0.113-0.014-0.206-0.042-0.279c-0.056-0.175-0.26-0.279-0.61-0.313c-0.147-0.017-0.533-0.025-1.16-0.025
		c-0.034,0-0.051,0.028-0.051,0.085v2.337c0,0.057,0.017,0.085,0.051,0.085c0.768,0,1.216-0.006,1.346-0.017
		c0.214-0.017,0.356-0.065,0.423-0.144c0.045-0.056,0.079-0.085,0.102-0.085c0.028,0,0.042,0.023,0.042,0.068
		c0,0.011-0.004,0.037-0.013,0.076c-0.008,0.039-0.018,0.096-0.03,0.169c-0.011,0.073-0.02,0.15-0.025,0.229
		c-0.011,0.102-0.02,0.222-0.025,0.36c-0.006,0.138-0.009,0.21-0.009,0.216c-0.011,0.085-0.031,0.127-0.059,0.127
		c-0.04,0-0.059-0.045-0.059-0.135s-0.011-0.169-0.034-0.237c-0.04-0.158-0.186-0.251-0.44-0.279
		c-0.254-0.028-0.658-0.042-1.211-0.042c-0.04,0-0.059,0.02-0.059,0.059v0.745c0,0.051,0,0.196,0,0.436c0,0.24,0,0.456,0,0.648
		c0,0.192,0,0.313,0,0.364c0.011,0.186,0.035,0.326,0.072,0.419c0.037,0.093,0.106,0.16,0.207,0.199
		c0.124,0.051,0.358,0.076,0.703,0.076c0.339,0,0.593-0.026,0.762-0.076c0.13-0.039,0.226-0.106,0.288-0.199
		c0.062-0.093,0.11-0.236,0.144-0.428c0.017-0.085,0.042-0.127,0.076-0.127s0.051,0.042,0.051,0.127c0,0.04-0.014,0.167-0.042,0.381
		c-0.028,0.215-0.051,0.361-0.068,0.44c-0.028,0.107-0.068,0.171-0.119,0.191c-0.051,0.02-0.164,0.03-0.339,0.03
		c-0.164,0-0.576-0.008-1.236-0.025c-0.677-0.017-1.03-0.025-1.058-0.025c-0.056,0-0.155,0.006-0.296,0.017
		c-0.141,0.011-0.251,0.014-0.33,0.008c-0.09,0-0.135-0.023-0.135-0.068c0-0.022,0.031-0.039,0.093-0.051
		c0.107-0.011,0.172-0.02,0.195-0.025c0.102-0.022,0.176-0.087,0.224-0.195c0.048-0.107,0.075-0.308,0.08-0.601
		C107.54,35.005,107.545,34.5,107.545,33.93z"/>
	<path fill="#FFFFFF" d="M113.556,33.93v-1.49c0-1.038-0.006-1.648-0.017-1.829c-0.011-0.158-0.038-0.271-0.08-0.339
		c-0.042-0.068-0.129-0.116-0.258-0.144c-0.068-0.017-0.164-0.025-0.288-0.025c-0.062,0-0.093-0.017-0.093-0.051
		c0-0.045,0.045-0.068,0.135-0.068c0.113,0,0.246,0.001,0.398,0.004c0.152,0.003,0.282,0.007,0.389,0.013
		c0.107,0.006,0.164,0.009,0.169,0.009c0.022,0,0.094-0.003,0.216-0.009c0.121-0.006,0.269-0.01,0.444-0.013
		c0.175-0.003,0.336-0.004,0.483-0.004c0.034,0,0.087,0,0.161,0c0.248,0,0.446,0.001,0.593,0.004
		c0.147,0.003,0.358,0.021,0.635,0.055c0.276,0.034,0.516,0.082,0.72,0.144c0.203,0.062,0.423,0.158,0.66,0.288
		c0.237,0.13,0.446,0.288,0.627,0.474c0.547,0.57,0.821,1.287,0.821,2.15c0,0.948-0.305,1.744-0.914,2.387
		c-0.621,0.649-1.476,0.974-2.565,0.974c-0.299,0-0.691-0.017-1.177-0.051c-0.102-0.006-0.21-0.013-0.326-0.021
		c-0.116-0.008-0.205-0.016-0.267-0.021c-0.062-0.006-0.099-0.008-0.11-0.008c-0.107,0-0.22,0.003-0.339,0.008
		c-0.062,0-0.15,0.003-0.262,0.009c-0.113,0.006-0.189,0.008-0.229,0.008c-0.09,0-0.135-0.023-0.135-0.068
		c0-0.034,0.028-0.051,0.085-0.051c0.096-0.011,0.175-0.022,0.237-0.034c0.124-0.023,0.206-0.178,0.245-0.466
		C113.542,35.53,113.556,34.918,113.556,33.93z M114.267,32.305v1.05c0,1.01,0.006,1.623,0.017,1.837
		c0.017,0.361,0.048,0.576,0.093,0.643c0.152,0.226,0.632,0.339,1.439,0.339c0.818,0,1.49-0.262,2.015-0.787
		c0.214-0.209,0.381-0.498,0.499-0.868c0.119-0.37,0.178-0.755,0.178-1.156c0-0.852-0.271-1.563-0.813-2.133
		c-0.361-0.384-0.763-0.639-1.206-0.766c-0.443-0.127-0.964-0.19-1.562-0.19c-0.288,0-0.471,0.02-0.55,0.059
		c-0.068,0.028-0.102,0.085-0.102,0.169C114.27,30.693,114.267,31.294,114.267,32.305z"/>
	<path fill="#FFFFFF" d="M122.166,33.93v-1.49c0-1.038-0.006-1.648-0.017-1.829c-0.011-0.158-0.038-0.271-0.08-0.339
		c-0.042-0.068-0.129-0.116-0.258-0.144c-0.068-0.017-0.164-0.025-0.288-0.025c-0.062,0-0.093-0.017-0.093-0.051
		c0-0.045,0.045-0.068,0.135-0.068c0.113,0,0.246,0.001,0.398,0.004c0.152,0.003,0.282,0.007,0.389,0.013
		c0.107,0.006,0.164,0.009,0.169,0.009c0.022,0,0.094-0.003,0.216-0.009c0.121-0.006,0.269-0.01,0.444-0.013
		c0.175-0.003,0.336-0.004,0.483-0.004c0.034,0,0.087,0,0.161,0c0.248,0,0.446,0.001,0.593,0.004
		c0.147,0.003,0.358,0.021,0.635,0.055c0.276,0.034,0.516,0.082,0.72,0.144c0.203,0.062,0.423,0.158,0.66,0.288
		c0.237,0.13,0.446,0.288,0.627,0.474c0.547,0.57,0.821,1.287,0.821,2.15c0,0.948-0.305,1.744-0.914,2.387
		c-0.621,0.649-1.476,0.974-2.565,0.974c-0.299,0-0.691-0.017-1.177-0.051c-0.102-0.006-0.21-0.013-0.326-0.021
		c-0.116-0.008-0.205-0.016-0.267-0.021c-0.062-0.006-0.099-0.008-0.11-0.008c-0.107,0-0.22,0.003-0.339,0.008
		c-0.062,0-0.15,0.003-0.262,0.009c-0.113,0.006-0.189,0.008-0.229,0.008c-0.09,0-0.135-0.023-0.135-0.068
		c0-0.034,0.028-0.051,0.085-0.051c0.096-0.011,0.175-0.022,0.237-0.034c0.124-0.023,0.206-0.178,0.245-0.466
		C122.152,35.53,122.166,34.918,122.166,33.93z M122.877,32.305v1.05c0,1.01,0.006,1.623,0.017,1.837
		c0.017,0.361,0.048,0.576,0.093,0.643c0.152,0.226,0.632,0.339,1.439,0.339c0.818,0,1.49-0.262,2.015-0.787
		c0.214-0.209,0.381-0.498,0.499-0.868c0.119-0.37,0.178-0.755,0.178-1.156c0-0.852-0.271-1.563-0.813-2.133
		c-0.361-0.384-0.763-0.639-1.206-0.766c-0.443-0.127-0.964-0.19-1.562-0.19c-0.288,0-0.471,0.02-0.55,0.059
		c-0.068,0.028-0.102,0.085-0.102,0.169C122.88,30.693,122.877,31.294,122.877,32.305z"/>
	<path fill="#FFFFFF" d="M130.776,33.93v-1.49c0-1.038-0.006-1.648-0.017-1.829c-0.017-0.276-0.113-0.435-0.288-0.474
		c-0.085-0.022-0.172-0.034-0.262-0.034c-0.045,0-0.068-0.017-0.068-0.051c0-0.045,0.045-0.068,0.135-0.068
		c0.085,0,0.195,0.001,0.33,0.004c0.135,0.003,0.255,0.007,0.36,0.013c0.104,0.006,0.159,0.009,0.165,0.009
		c0.006,0,0.061-0.003,0.165-0.009c0.104-0.006,0.223-0.01,0.356-0.013c0.133-0.003,0.236-0.004,0.309-0.004
		c0.09,0,0.135,0.023,0.135,0.068c0,0.034-0.023,0.051-0.068,0.051c-0.04,0-0.11,0.008-0.212,0.025
		c-0.113,0.023-0.19,0.071-0.233,0.144c-0.042,0.073-0.069,0.186-0.08,0.339c-0.011,0.181-0.017,0.79-0.017,1.829v1.49
		c0,0.988,0.014,1.6,0.042,1.837c0.017,0.141,0.047,0.25,0.089,0.326c0.042,0.076,0.123,0.123,0.241,0.14
		c0.158,0.023,0.274,0.034,0.347,0.034c0.068,0,0.102,0.017,0.102,0.051c0,0.045-0.042,0.068-0.127,0.068
		c-0.135,0-0.288-0.001-0.457-0.004c-0.169-0.003-0.309-0.007-0.419-0.013c-0.11-0.006-0.168-0.008-0.174-0.008
		c-0.006,0-0.061,0.001-0.165,0.004c-0.104,0.003-0.223,0.007-0.356,0.013c-0.133,0.006-0.236,0.008-0.309,0.008
		c-0.09,0-0.135-0.023-0.135-0.068c0-0.034,0.031-0.051,0.093-0.051c0.073,0,0.147-0.008,0.22-0.025
		c0.13-0.028,0.214-0.186,0.254-0.474C130.762,35.53,130.776,34.918,130.776,33.93z"/>
	<path fill="#FFFFFF" d="M135.068,35.141v-1.253c0-0.852,0.001-1.494,0.004-1.926c0.003-0.432,0.004-0.66,0.004-0.686
		c0-0.025,0-0.354,0-0.986c0-0.282,0.031-0.423,0.093-0.423c0.022,0,0.049,0.014,0.08,0.042c0.031,0.028,0.072,0.071,0.123,0.127
		c0.051,0.056,0.082,0.09,0.093,0.102c0.209,0.237,1.106,1.205,2.692,2.904c0.293,0.316,0.684,0.742,1.173,1.278
		c0.488,0.536,0.775,0.847,0.859,0.931l-0.093-4.301c-0.006-0.282-0.03-0.478-0.072-0.588c-0.042-0.11-0.128-0.182-0.258-0.216
		c-0.124-0.028-0.246-0.042-0.364-0.042c-0.079,0-0.118-0.02-0.118-0.059s0.056-0.059,0.169-0.059c0.152,0,0.336,0.004,0.55,0.013
		c0.214,0.008,0.324,0.013,0.33,0.013c0.011,0,0.1-0.004,0.267-0.013c0.166-0.008,0.318-0.013,0.453-0.013
		c0.102,0,0.152,0.02,0.152,0.059c0,0.028-0.031,0.048-0.093,0.059c-0.045,0.006-0.119,0.017-0.22,0.034
		c-0.119,0.028-0.198,0.09-0.237,0.186c-0.04,0.096-0.059,0.288-0.059,0.576l-0.017,4.944c0,0.141-0.001,0.251-0.004,0.33
		c-0.003,0.079-0.007,0.138-0.013,0.178c-0.006,0.039-0.013,0.065-0.021,0.076c-0.009,0.011-0.021,0.017-0.038,0.017
		c-0.051,0-0.257-0.181-0.618-0.542c-0.034-0.034-0.167-0.168-0.398-0.402c-0.231-0.234-0.523-0.535-0.876-0.902
		c-0.353-0.367-0.665-0.697-0.936-0.99c-0.79-0.852-1.527-1.662-2.21-2.43l0.11,4.055c0.006,0.344,0.032,0.586,0.08,0.724
		c0.048,0.138,0.131,0.224,0.25,0.258c0.13,0.034,0.271,0.051,0.423,0.051c0.045,0,0.068,0.017,0.068,0.051
		c0,0.045-0.051,0.068-0.152,0.068c-0.141,0-0.281-0.001-0.419-0.004c-0.138-0.003-0.25-0.007-0.334-0.013
		c-0.085-0.006-0.133-0.008-0.144-0.008l-0.288,0.017c-0.198,0.006-0.373,0.008-0.525,0.008c-0.09,0-0.135-0.023-0.135-0.068
		c0-0.034,0.022-0.051,0.068-0.051c0.13,0,0.245-0.017,0.347-0.051c0.102-0.028,0.169-0.116,0.203-0.262
		C135.051,35.807,135.068,35.536,135.068,35.141z"/>
	<path fill="#FFFFFF" d="M148.944,34.717v0.948c0,0.186-0.006,0.302-0.017,0.347c-0.011,0.045-0.042,0.082-0.093,0.11
		c-0.48,0.254-1.078,0.381-1.795,0.381c-1.168,0-2.097-0.302-2.785-0.906c-0.282-0.243-0.521-0.581-0.715-1.016
		c-0.195-0.435-0.292-0.9-0.292-1.397c0-0.638,0.132-1.196,0.398-1.676c0.265-0.48,0.604-0.849,1.016-1.109
		c0.57-0.356,1.321-0.533,2.252-0.533c0.406,0,0.838,0.048,1.295,0.144c0.192,0.045,0.42,0.073,0.686,0.085
		c0.068,0.006,0.102,0.031,0.102,0.076c0,0.017-0.004,0.069-0.013,0.157c-0.008,0.088-0.018,0.222-0.03,0.402
		c-0.011,0.181-0.017,0.395-0.017,0.643c0,0.118-0.025,0.178-0.076,0.178c-0.028,0-0.048-0.042-0.059-0.127
		c-0.017-0.209-0.076-0.395-0.178-0.559c-0.119-0.181-0.353-0.34-0.703-0.478c-0.35-0.138-0.779-0.207-1.287-0.207
		c-0.734,0-1.338,0.186-1.812,0.559c-0.254,0.203-0.457,0.493-0.61,0.868c-0.152,0.375-0.229,0.803-0.229,1.283
		c0,0.525,0.097,0.996,0.292,1.414c0.195,0.418,0.396,0.728,0.605,0.931c0.621,0.604,1.36,0.906,2.218,0.906
		c0.44,0,0.762-0.059,0.965-0.178c0.113-0.062,0.169-0.161,0.169-0.296v-1.439c0-0.344-0.021-0.564-0.064-0.66
		c-0.042-0.096-0.148-0.166-0.317-0.212c-0.068-0.017-0.164-0.025-0.288-0.025c-0.045,0-0.068-0.017-0.068-0.051
		c0-0.045,0.045-0.068,0.135-0.068c0.113,0,0.246,0.003,0.398,0.009c0.152,0.006,0.282,0.01,0.389,0.013
		c0.107,0.003,0.164,0.004,0.169,0.004c0.006,0,0.061-0.001,0.165-0.004c0.104-0.003,0.223-0.007,0.356-0.013
		c0.132-0.006,0.236-0.009,0.309-0.009c0.09,0,0.135,0.023,0.135,0.068c0,0.034-0.023,0.051-0.068,0.051
		c-0.04,0-0.11,0.008-0.212,0.025c-0.113,0.023-0.19,0.071-0.233,0.144c-0.042,0.073-0.069,0.186-0.08,0.339
		C148.949,34.018,148.944,34.311,148.944,34.717z"/>
	<path fill="#FFFFFF" d="M158.163,33.888h-1.82c-0.04,0-0.068,0.023-0.085,0.068l-0.508,1.498c-0.079,0.22-0.119,0.409-0.119,0.567
		c0,0.079,0.031,0.14,0.093,0.182c0.062,0.042,0.133,0.063,0.212,0.063h0.076c0.073,0,0.11,0.017,0.11,0.051
		c0,0.045-0.051,0.068-0.152,0.068c-0.079,0-0.199-0.004-0.36-0.013c-0.161-0.009-0.253-0.013-0.275-0.013
		c-0.006,0-0.127,0.004-0.364,0.013c-0.237,0.008-0.435,0.013-0.593,0.013c-0.107,0-0.161-0.023-0.161-0.068
		c0-0.034,0.04-0.051,0.119-0.051c0.045,0,0.113-0.006,0.203-0.017c0.181-0.023,0.322-0.1,0.423-0.233
		c0.102-0.133,0.197-0.32,0.288-0.563l1.922-5.257c0.079-0.22,0.141-0.33,0.186-0.33c0.045,0,0.107,0.102,0.186,0.305
		c0.022,0.056,0.165,0.429,0.428,1.118c0.262,0.689,0.547,1.431,0.855,2.227c0.308,0.796,0.538,1.383,0.69,1.761
		c0.226,0.553,0.468,0.866,0.728,0.94c0.102,0.034,0.212,0.051,0.33,0.051c0.062,0,0.093,0.017,0.093,0.051
		c0,0.045-0.057,0.068-0.169,0.068c-0.497,0-0.94-0.006-1.329-0.017c-0.169-0.011-0.254-0.031-0.254-0.059
		c0-0.028,0.02-0.048,0.059-0.059c0.079-0.028,0.096-0.104,0.051-0.229l-0.787-2.083C158.223,33.905,158.197,33.888,158.163,33.888z
		 M156.436,33.583h1.617c0.034,0,0.045-0.02,0.034-0.059l-0.804-2.286c-0.04-0.13-0.082-0.13-0.127,0l-0.745,2.286
		C156.394,33.563,156.402,33.583,156.436,33.583z"/>
	<path fill="#FFFFFF" d="M167.459,34.717v0.948c0,0.186-0.006,0.302-0.017,0.347c-0.011,0.045-0.042,0.082-0.093,0.11
		c-0.48,0.254-1.078,0.381-1.795,0.381c-1.168,0-2.097-0.302-2.785-0.906c-0.282-0.243-0.521-0.581-0.715-1.016
		c-0.195-0.435-0.292-0.9-0.292-1.397c0-0.638,0.132-1.196,0.398-1.676c0.265-0.48,0.604-0.849,1.016-1.109
		c0.57-0.356,1.321-0.533,2.252-0.533c0.406,0,0.838,0.048,1.295,0.144c0.192,0.045,0.42,0.073,0.686,0.085
		c0.068,0.006,0.102,0.031,0.102,0.076c0,0.017-0.004,0.069-0.013,0.157c-0.008,0.088-0.018,0.222-0.03,0.402
		c-0.011,0.181-0.017,0.395-0.017,0.643c0,0.118-0.025,0.178-0.076,0.178c-0.028,0-0.048-0.042-0.059-0.127
		c-0.017-0.209-0.076-0.395-0.178-0.559c-0.119-0.181-0.353-0.34-0.703-0.478c-0.35-0.138-0.779-0.207-1.287-0.207
		c-0.734,0-1.338,0.186-1.812,0.559c-0.254,0.203-0.457,0.493-0.61,0.868c-0.152,0.375-0.229,0.803-0.229,1.283
		c0,0.525,0.097,0.996,0.292,1.414c0.195,0.418,0.396,0.728,0.605,0.931c0.621,0.604,1.36,0.906,2.218,0.906
		c0.44,0,0.762-0.059,0.965-0.178c0.113-0.062,0.169-0.161,0.169-0.296v-1.439c0-0.344-0.021-0.564-0.064-0.66
		c-0.042-0.096-0.148-0.166-0.317-0.212c-0.068-0.017-0.164-0.025-0.288-0.025c-0.045,0-0.068-0.017-0.068-0.051
		c0-0.045,0.045-0.068,0.135-0.068c0.113,0,0.246,0.003,0.398,0.009c0.152,0.006,0.282,0.01,0.389,0.013
		c0.107,0.003,0.164,0.004,0.169,0.004c0.006,0,0.061-0.001,0.165-0.004c0.104-0.003,0.223-0.007,0.356-0.013
		c0.132-0.006,0.236-0.009,0.309-0.009c0.09,0,0.135,0.023,0.135,0.068c0,0.034-0.023,0.051-0.068,0.051
		c-0.04,0-0.11,0.008-0.212,0.025c-0.113,0.023-0.19,0.071-0.233,0.144c-0.042,0.073-0.069,0.186-0.08,0.339
		C167.465,34.018,167.459,34.311,167.459,34.717z"/>
	<path fill="#FFFFFF" d="M170.871,33.93v-1.49c0-1.038-0.006-1.648-0.017-1.829c-0.011-0.152-0.041-0.264-0.089-0.334
		c-0.048-0.071-0.14-0.12-0.275-0.148c-0.017-0.006-0.04-0.01-0.068-0.013c-0.028-0.003-0.061-0.006-0.097-0.008
		c-0.037-0.003-0.064-0.004-0.08-0.004c-0.073-0.011-0.11-0.028-0.11-0.051c0-0.045,0.045-0.068,0.135-0.068
		c0.282,0,0.601,0.008,0.957,0.025c1.163,0,1.809-0.003,1.939-0.009c0.209-0.011,0.339-0.028,0.389-0.051
		c0.045-0.023,0.076-0.034,0.093-0.034c0.023,0,0.034,0.025,0.034,0.076c0,0.011-0.01,0.058-0.03,0.14
		c-0.02,0.082-0.033,0.168-0.038,0.258l-0.034,0.508c-0.011,0.096-0.034,0.144-0.068,0.144c-0.045,0-0.068-0.037-0.068-0.11
		c0-0.113-0.014-0.206-0.042-0.279c-0.056-0.175-0.26-0.279-0.61-0.313c-0.147-0.017-0.533-0.025-1.16-0.025
		c-0.034,0-0.051,0.028-0.051,0.085v2.337c0,0.057,0.017,0.085,0.051,0.085c0.768,0,1.216-0.006,1.346-0.017
		c0.214-0.017,0.356-0.065,0.423-0.144c0.045-0.056,0.079-0.085,0.102-0.085c0.028,0,0.042,0.023,0.042,0.068
		c0,0.011-0.004,0.037-0.013,0.076c-0.008,0.039-0.018,0.096-0.03,0.169c-0.011,0.073-0.02,0.15-0.025,0.229
		c-0.011,0.102-0.02,0.222-0.025,0.36c-0.006,0.138-0.009,0.21-0.009,0.216c-0.011,0.085-0.031,0.127-0.059,0.127
		c-0.04,0-0.059-0.045-0.059-0.135s-0.011-0.169-0.034-0.237c-0.04-0.158-0.186-0.251-0.44-0.279
		c-0.254-0.028-0.658-0.042-1.211-0.042c-0.04,0-0.059,0.02-0.059,0.059v0.745c0,0.051,0,0.196,0,0.436c0,0.24,0,0.456,0,0.648
		c0,0.192,0,0.313,0,0.364c0.011,0.186,0.035,0.326,0.072,0.419c0.037,0.093,0.106,0.16,0.207,0.199
		c0.124,0.051,0.358,0.076,0.703,0.076c0.339,0,0.593-0.026,0.762-0.076c0.13-0.039,0.226-0.106,0.288-0.199
		c0.062-0.093,0.11-0.236,0.144-0.428c0.017-0.085,0.042-0.127,0.076-0.127s0.051,0.042,0.051,0.127c0,0.04-0.014,0.167-0.042,0.381
		c-0.028,0.215-0.051,0.361-0.068,0.44c-0.028,0.107-0.068,0.171-0.119,0.191c-0.051,0.02-0.164,0.03-0.339,0.03
		c-0.164,0-0.576-0.008-1.236-0.025c-0.677-0.017-1.03-0.025-1.058-0.025c-0.056,0-0.155,0.006-0.296,0.017
		c-0.141,0.011-0.251,0.014-0.33,0.008c-0.09,0-0.135-0.023-0.135-0.068c0-0.022,0.031-0.039,0.093-0.051
		c0.107-0.011,0.172-0.02,0.195-0.025c0.102-0.022,0.176-0.087,0.224-0.195c0.048-0.107,0.075-0.308,0.08-0.601
		C170.865,35.005,170.871,34.5,170.871,33.93z"/>
	<path fill="#FFFFFF" d="M176.602,35.141v-1.253c0-0.852,0.001-1.494,0.004-1.926c0.003-0.432,0.004-0.66,0.004-0.686
		c0-0.025,0-0.354,0-0.986c0-0.282,0.031-0.423,0.093-0.423c0.022,0,0.049,0.014,0.08,0.042c0.031,0.028,0.072,0.071,0.123,0.127
		c0.051,0.056,0.082,0.09,0.093,0.102c0.209,0.237,1.106,1.205,2.692,2.904c0.293,0.316,0.684,0.742,1.173,1.278
		c0.488,0.536,0.775,0.847,0.859,0.931l-0.093-4.301c-0.006-0.282-0.03-0.478-0.072-0.588c-0.042-0.11-0.129-0.182-0.258-0.216
		c-0.124-0.028-0.246-0.042-0.364-0.042c-0.079,0-0.119-0.02-0.119-0.059s0.056-0.059,0.169-0.059c0.152,0,0.336,0.004,0.55,0.013
		c0.214,0.008,0.325,0.013,0.33,0.013c0.011,0,0.1-0.004,0.267-0.013c0.166-0.008,0.318-0.013,0.453-0.013
		c0.102,0,0.152,0.02,0.152,0.059c0,0.028-0.031,0.048-0.093,0.059c-0.045,0.006-0.119,0.017-0.22,0.034
		c-0.119,0.028-0.198,0.09-0.237,0.186c-0.04,0.096-0.059,0.288-0.059,0.576l-0.017,4.944c0,0.141-0.001,0.251-0.004,0.33
		c-0.003,0.079-0.007,0.138-0.013,0.178c-0.006,0.039-0.013,0.065-0.021,0.076c-0.009,0.011-0.021,0.017-0.038,0.017
		c-0.051,0-0.257-0.181-0.618-0.542c-0.034-0.034-0.167-0.168-0.398-0.402c-0.232-0.234-0.524-0.535-0.876-0.902
		c-0.353-0.367-0.665-0.697-0.935-0.99c-0.79-0.852-1.527-1.662-2.21-2.43l0.11,4.055c0.006,0.344,0.032,0.586,0.08,0.724
		c0.048,0.138,0.131,0.224,0.25,0.258c0.13,0.034,0.271,0.051,0.423,0.051c0.045,0,0.068,0.017,0.068,0.051
		c0,0.045-0.051,0.068-0.152,0.068c-0.141,0-0.281-0.001-0.419-0.004c-0.138-0.003-0.25-0.007-0.334-0.013
		c-0.085-0.006-0.133-0.008-0.144-0.008l-0.288,0.017c-0.198,0.006-0.373,0.008-0.525,0.008c-0.09,0-0.135-0.023-0.135-0.068
		c0-0.034,0.023-0.051,0.068-0.051c0.13,0,0.245-0.017,0.347-0.051c0.102-0.028,0.169-0.116,0.203-0.262
		C176.585,35.807,176.602,35.536,176.602,35.141z"/>
	<path fill="#FFFFFF" d="M188.599,36.504c-1.185,0-2.117-0.305-2.794-0.914c-0.683-0.615-1.024-1.45-1.024-2.506
		c0-0.356,0.073-0.745,0.22-1.168c0.147-0.423,0.389-0.804,0.728-1.143c0.604-0.604,1.465-0.906,2.582-0.906
		c0.451,0,0.861,0.034,1.228,0.102c0.079,0.017,0.378,0.059,0.897,0.127c0.051,0.006,0.076,0.037,0.076,0.093
		c0,0.017-0.003,0.044-0.008,0.08c-0.006,0.037-0.011,0.09-0.017,0.161c-0.006,0.071-0.011,0.148-0.017,0.233
		c-0.006,0.102-0.011,0.264-0.017,0.487c-0.006,0.223-0.009,0.351-0.009,0.385c-0.006,0.119-0.031,0.178-0.076,0.178
		c-0.045,0-0.068-0.059-0.068-0.178c0-0.373-0.119-0.66-0.356-0.864c-0.158-0.135-0.391-0.25-0.698-0.343
		c-0.308-0.093-0.639-0.14-0.995-0.14c-0.875,0-1.524,0.206-1.947,0.618c-0.288,0.277-0.487,0.594-0.597,0.952
		c-0.11,0.358-0.165,0.778-0.165,1.257c0,0.835,0.289,1.561,0.868,2.176c0.579,0.615,1.308,0.923,2.189,0.923
		c0.705,0,1.196-0.141,1.473-0.423c0.158-0.164,0.262-0.401,0.313-0.711c0.017-0.085,0.045-0.127,0.085-0.127
		c0.039,0,0.059,0.042,0.059,0.127c0,0.045-0.021,0.206-0.064,0.483c-0.042,0.277-0.083,0.477-0.123,0.601
		c-0.023,0.079-0.045,0.131-0.068,0.157c-0.023,0.025-0.073,0.055-0.152,0.089C189.801,36.439,189.293,36.504,188.599,36.504z"/>
	<path fill="#FFFFFF" d="M194.347,34.921v-0.728c0-0.305-0.065-0.601-0.195-0.889c-0.028-0.068-0.247-0.437-0.656-1.109
		c-0.409-0.672-0.687-1.115-0.834-1.329c-0.198-0.293-0.389-0.502-0.576-0.627c-0.135-0.09-0.257-0.135-0.364-0.135
		c-0.056,0-0.085-0.02-0.085-0.059s0.037-0.059,0.11-0.059c0.062,0,0.216,0.004,0.461,0.013c0.246,0.008,0.371,0.013,0.377,0.013
		c0.011,0,0.054-0.003,0.127-0.009c0.073-0.006,0.165-0.01,0.275-0.013c0.11-0.003,0.213-0.004,0.309-0.004
		c0.073,0,0.11,0.02,0.11,0.059c0,0.011-0.042,0.037-0.127,0.076c-0.073,0.039-0.11,0.09-0.11,0.152c0,0.085,0.037,0.195,0.11,0.33
		c0.073,0.13,0.333,0.579,0.779,1.346c0.446,0.768,0.705,1.211,0.779,1.329c0.068-0.152,0.286-0.552,0.656-1.198
		c0.37-0.646,0.619-1.077,0.749-1.291c0.096-0.152,0.144-0.296,0.144-0.432c0-0.135-0.045-0.214-0.135-0.237
		c-0.085-0.028-0.127-0.056-0.127-0.085c0-0.034,0.045-0.051,0.135-0.051c0.085,0,0.196,0.004,0.334,0.013
		c0.138,0.008,0.213,0.013,0.224,0.013c0.006,0,0.128-0.004,0.368-0.013c0.24-0.008,0.391-0.013,0.453-0.013
		c0.073,0,0.11,0.017,0.11,0.051c0,0.045-0.037,0.068-0.11,0.068c-0.135,0-0.265,0.039-0.389,0.118
		c-0.124,0.073-0.274,0.217-0.449,0.432c-0.135,0.164-0.419,0.607-0.851,1.329c-0.432,0.723-0.687,1.177-0.766,1.363
		c-0.085,0.203-0.127,0.485-0.127,0.847v0.728c0,0.327,0.008,0.61,0.025,0.847c0.017,0.282,0.133,0.437,0.347,0.466
		c0.158,0.023,0.285,0.034,0.381,0.034c0.045,0,0.068,0.017,0.068,0.051c0,0.045-0.045,0.068-0.135,0.068
		c-0.135,0-0.286-0.001-0.453-0.004c-0.167-0.003-0.305-0.007-0.415-0.013c-0.11-0.006-0.168-0.008-0.174-0.008
		c-0.006,0-0.061,0.001-0.165,0.004c-0.105,0.003-0.223,0.007-0.356,0.013c-0.133,0.006-0.236,0.008-0.309,0.008
		c-0.09,0-0.135-0.023-0.135-0.068c0-0.034,0.022-0.051,0.068-0.051c0.068,0,0.152-0.011,0.254-0.034
		c0.158-0.034,0.245-0.189,0.262-0.466C194.339,35.53,194.347,35.248,194.347,34.921z"/>
</g>
<linearGradient id="SVGID_1_" gradientUnits="userSpaceOnUse" x1="57.464" y1="219.177" x2="4.9792" y2="178.3623" gradientTransform="matrix(1 0 0 -1 0 222.8269)">
	<stop  offset="0" style="stop-color:#C8AA80"/>
	<stop  offset="0.224" style="stop-color:#FBDD96"/>
	<stop  offset="0.3808" style="stop-color:#D7B986"/>
	<stop  offset="0.4991" style="stop-color:#CAAC80"/>
	<stop  offset="0.6455" style="stop-color:#E8C98E"/>
	<stop  offset="0.7949" style="stop-color:#FCDD97"/>
	<stop  offset="0.9359" style="stop-color:#CAAC81"/>
</linearGradient>
<path fill-rule="evenodd" clip-rule="evenodd" fill="url(#SVGID_1_)" d="M26.786,0.232c-0.922,0.965-2.351,3.129-3.29,4.985
	c-0.608,1.2-0.85,1.852-1.066,2.868c-0.153,0.716-0.165,0.886-0.164,2.226c0.001,1.46,0.025,1.697,0.303,3.056
	c0.12,0.587,0.323,1.275,0.397,1.349c0.072,0.072,0.063,0.095,0.279-0.762c0.444-1.767,1.211-3.49,1.917-4.309l0.228-0.264
	l0.47,0.258c1.038,0.57,2.301,1.483,3.378,2.441c0.319,0.284,0.602,0.515,0.629,0.514c0.027-0.001,0.201-0.215,0.386-0.476
	c0.185-0.261,0.595-0.789,0.911-1.173c0.655-0.796,0.641-0.746,0.456-1.716c-0.562-2.936-2.007-6.035-3.959-8.49
	C27.026-0.057,27.05-0.043,26.786,0.232z M39.508,0.571c-1.478,1.815-2.792,4.226-3.548,6.51c-0.32,0.966-0.582,2.082-0.622,2.649
	l-0.036,0.512l0.614,0.76c0.337,0.418,0.75,0.948,0.916,1.177c0.166,0.229,0.318,0.416,0.337,0.416c0.019,0,0.312-0.24,0.652-0.532
	c0.34-0.292,0.798-0.676,1.019-0.852c0.879-0.703,2.457-1.724,2.741-1.774c0.247-0.043,1.121,1.359,1.585,2.542
	c0.279,0.713,0.738,2.281,0.738,2.524c0,0.128,0.156,0.29,0.205,0.212c0.017-0.027,0.114-0.369,0.216-0.759
	c0.659-2.524,0.652-4.995-0.019-7.008c-0.432-1.295-1.856-3.853-3.04-5.457C40.83,0.902,40.075,0,40.017,0
	C39.993,0,39.764,0.257,39.508,0.571z M11.687,3.785c-0.14,0.217-0.068,2.924,0.111,4.149c0.417,2.852,0.969,4.832,1.847,6.629
	l0.236,0.484l0.546,0.039c2.174,0.155,4.99,1.094,7.382,2.461c0.194,0.111,0.368,0.186,0.387,0.167
	c0.019-0.019-0.059-0.24-0.173-0.492c-0.285-0.628-0.624-1.643-0.771-2.31c-0.269-1.219-0.284-1.391-0.288-3.215L20.96,9.902
	l-0.194-0.243c-0.447-0.56-1.836-1.821-2.891-2.624c-1.339-1.02-3.399-2.234-4.755-2.804C12.345,3.905,11.733,3.715,11.687,3.785z
	 M55.047,3.786c-0.102,0.037-0.574,0.231-1.05,0.431c-2.616,1.1-5.167,2.822-7.075,4.777c-0.965,0.989-0.93,0.923-0.859,1.598
	c0.228,2.166-0.17,4.654-1.06,6.626c-0.269,0.596-0.256,0.609,0.287,0.281c0.946-0.571,2.501-1.261,3.797-1.685
	c0.847-0.277,2.38-0.603,3.273-0.696l0.772-0.081l0.282-0.556c0.237-0.466,0.572-1.281,0.8-1.945c0.478-1.39,0.939-3.64,1.109-5.403
	c0.084-0.873,0.062-3.379-0.03-3.399C55.26,3.725,55.149,3.749,55.047,3.786z M33.147,10.729c-0.412,0.529-1.053,1.486-1.491,2.229
	c-1.547,2.62-2.479,5.348-2.859,8.371c-0.139,1.106-0.14,3.339-0.002,4.28c0.426,2.896,1.471,5.552,3.118,7.92
	c0.701,1.008,1.85,2.289,2.046,2.281c0.052-0.002,0.239-0.176,0.416-0.386c1.96-2.327,3.267-5.03,3.869-8.008
	c0.272-1.343,0.31-1.791,0.311-3.612c0.001-1.872-0.044-2.371-0.342-3.819c-0.115-0.557-0.167-0.773-0.364-1.491
	c-0.498-1.821-1.701-4.388-2.922-6.236c-0.543-0.822-1.351-1.883-1.434-1.883C33.456,10.373,33.299,10.533,33.147,10.729z
	 M25.495,11.439c-1.19,2.2-1.905,5.454-1.907,8.68c-0.001,1.603,0.168,2.692,0.69,4.456c0.405,1.367,1.417,3.362,2.505,4.94
	c0.711,1.03,2.147,2.718,2.805,3.298c0.112,0.099,0.344,0.307,0.515,0.463c0.599,0.546,0.767,0.685,0.83,0.685
	c0.106,0,0.075-0.088-0.223-0.625c-0.378-0.682-0.86-1.667-1.191-2.431c-0.445-1.027-0.475-1.099-0.606-1.451
	c-0.07-0.187-0.174-0.465-0.232-0.617c-0.405-1.069-0.849-2.792-1.015-3.943c-0.322-2.233-0.038-5.056,0.76-7.545
	c0.293-0.914,0.977-2.437,1.314-2.928c0.046-0.067,0.083-0.164,0.083-0.216c0-0.052-0.434-0.428-0.963-0.835
	c-0.529-0.408-1.419-1.095-1.976-1.528c-0.557-0.433-1.051-0.787-1.097-0.787C25.742,11.053,25.61,11.226,25.495,11.439z
	 M40.043,11.923c-0.611,0.477-1.417,1.1-1.791,1.385c-0.374,0.285-0.774,0.598-0.891,0.695l-0.212,0.178l0.22,0.366
	c1.507,2.501,2.274,5.936,2.088,9.35c-0.052,0.963-0.252,2.589-0.367,2.995c-0.029,0.102-0.087,0.352-0.13,0.556
	c-0.196,0.938-0.779,2.787-1.109,3.52c-0.061,0.136-0.187,0.428-0.279,0.648c-0.223,0.532-0.878,1.839-1.03,2.053
	c-0.066,0.094-0.111,0.219-0.099,0.278c0.017,0.082,0.146-0.01,0.545-0.386c2.814-2.659,4.944-5.981,5.819-9.077
	c0.436-1.541,0.6-2.846,0.6-4.755c0-2.306-0.275-4.057-0.966-6.149c-0.306-0.926-1.049-2.488-1.195-2.51
	C41.196,11.062,40.654,11.446,40.043,11.923z M5.472,11.677c-0.169,0.55-0.211,3.016-0.071,4.13
	c0.189,1.502,0.611,3.043,1.237,4.508c0.325,0.761,1.156,2.345,1.537,2.929c1.248,1.915,3.993,3.885,7.541,5.411
	c0.685,0.295,2.518,0.922,2.694,0.922c0.123,0,0.026-0.155-0.501-0.805c-0.807-0.995-1.695-2.288-2.225-3.239
	c-1.494-2.681-2.466-6.046-2.468-8.543c-0.001-0.813-0.056-0.931-0.771-1.648c-1.371-1.373-3.648-2.771-5.576-3.423
	C6.008,11.629,5.513,11.543,5.472,11.677z M60.604,11.792c-2.342,0.728-4.419,1.965-5.972,3.557
	c-0.774,0.794-0.789,0.821-0.789,1.473c-0.003,2.734-0.845,5.687-2.441,8.555c-0.604,1.086-1.506,2.42-2.384,3.528
	c-0.431,0.543-0.508,0.703-0.315,0.649c2.979-0.835,6.055-2.409,8.228-4.21c1.544-1.28,2.623-2.872,3.586-5.289
	c1.021-2.563,1.431-5.539,1.096-7.968l-0.066-0.479l-0.194,0.006C61.247,11.617,60.91,11.697,60.604,11.792z M14.511,16.749
	c0,0.388,0.132,1.762,0.248,2.594c0.371,2.642,1.223,4.922,2.634,7.045c0.776,1.168,1.407,1.928,2.517,3.035
	c2.499,2.491,5.656,4.527,9.272,5.979c1.151,0.462,2.614,0.927,2.8,0.89c0.079-0.016,0.074-0.037-0.028-0.121
	c-0.068-0.056-0.526-0.43-1.019-0.832c-1.583-1.29-3.384-3.14-4.581-4.705c-0.489-0.639-1.47-2.069-1.47-2.142
	c0-0.021-0.058-0.119-0.128-0.218c-0.211-0.296-0.946-1.769-1.228-2.46c-0.755-1.851-1.05-3.259-1.107-5.283l-0.038-1.358
	l-0.418-0.279c-1.516-1.014-4.161-1.987-6.54-2.404C14.437,16.316,14.51,16.295,14.511,16.749z M51.806,16.437
	c-2.341,0.396-5.406,1.516-6.789,2.482c-0.151,0.106-0.298,0.208-0.326,0.227c-0.028,0.019-0.061,0.52-0.074,1.111
	c-0.022,1.033-0.06,1.384-0.26,2.404c-0.588,3-2.192,6.205-4.495,8.984c-1.196,1.443-2.849,3.025-4.245,4.063
	c-0.545,0.405-0.719,0.599-0.539,0.599c0.037,0,0.357-0.084,0.711-0.187c3.973-1.157,8.391-3.752,11.274-6.62
	c3.077-3.062,4.719-6.338,5.265-10.506c0.121-0.924,0.234-2.493,0.186-2.572C52.471,16.353,52.277,16.357,51.806,16.437z
	 M9.355,29.988c-2.513,0.053-5.917,0.526-7.926,1.102C0.009,31.497,0,31.5,0,31.623c0,0.063,0.036,0.115,0.08,0.115
	s0.287,0.129,0.54,0.287c0.253,0.158,0.613,0.376,0.8,0.485c3.693,2.154,6.511,3.478,9.725,4.568c1.095,0.371,3.299,0.95,4.23,1.112
	c0.119,0.021,0.438,0.076,0.71,0.123c3.042,0.53,6.293,0.568,10.188,0.121c1.217-0.14,2.177-0.276,4.137-0.588
	c0.645-0.103,1.334-0.203,1.53-0.223c0.196-0.02,0.374-0.063,0.394-0.096c0.048-0.078-0.096-0.167-0.273-0.169
	c-0.197-0.001-1.324-0.278-2.143-0.527c-2.645-0.802-5.443-2.282-7.675-4.061c-0.804-0.641-0.774-0.614-1.286-1.11
	c-0.256-0.247-0.47-0.391-0.706-0.474c-0.359-0.126-1.532-0.433-2.098-0.549c-0.187-0.038-0.479-0.098-0.648-0.133
	c-1.129-0.23-2.893-0.415-4.724-0.495C11.588,29.958,10.968,29.954,9.355,29.988z M53.781,30.008
	c-2.282,0.138-4.743,0.521-6.391,0.995c-0.762,0.219-0.9,0.298-1.507,0.859c-2.598,2.403-6.179,4.331-9.753,5.25
	c-0.386,0.099-0.837,0.198-1.002,0.22s-0.332,0.078-0.37,0.124c-0.079,0.095-0.039,0.117,0.315,0.168
	c0.119,0.017,0.702,0.114,1.297,0.215c1.851,0.314,2.873,0.456,4.477,0.624c2.198,0.229,2.717,0.263,4.508,0.296
	c1.538,0.028,1.975,0.014,3.097-0.099c3.958-0.398,7.22-1.3,11.42-3.158c1.852-0.819,4.608-2.287,6.6-3.514
	c0.204-0.126,0.422-0.247,0.483-0.27c0.194-0.072,0.078-0.189-0.303-0.306c-1.562-0.48-4.338-1.028-6.17-1.218
	c-0.374-0.039-0.902-0.097-1.173-0.129C58.64,29.984,54.816,29.946,53.781,30.008z"/>
</svg>
