<?xml version="1.0" encoding="utf-8"?>
<!-- Generator: Adobe Illustrator 24.3.0, SVG Export Plug-In . SVG Version: 6.00 Build 0)  -->
<svg version="1.1" id="Группа_1_копия_" xmlns="http://www.w3.org/2000/svg" xmlns:xlink="http://www.w3.org/1999/xlink"
	 x="0px" y="0px" width="75.037px" height="43.391px" viewBox="0 0 75.037 43.391" enable-background="new 0 0 75.037 43.391"
	 xml:space="preserve">
<linearGradient id="SVGID_1_" gradientUnits="userSpaceOnUse" x1="64.3129" y1="226.1238" x2="5.5727" y2="180.4447" gradientTransform="matrix(1 0 0 -1 0 230.2088)">
	<stop  offset="0" style="stop-color:#C8AA80"/>
	<stop  offset="0.224" style="stop-color:#FBDD96"/>
	<stop  offset="0.3808" style="stop-color:#D7B986"/>
	<stop  offset="0.4991" style="stop-color:#CAAC80"/>
	<stop  offset="0.6455" style="stop-color:#E8C98E"/>
	<stop  offset="0.7949" style="stop-color:#FCDD97"/>
	<stop  offset="0.9359" style="stop-color:#CAAC81"/>
</linearGradient>
<path fill-rule="evenodd" clip-rule="evenodd" fill="url(#SVGID_1_)" d="M29.979,0.26c-1.032,1.08-2.631,3.502-3.682,5.579
	c-0.68,1.344-0.951,2.072-1.193,3.209c-0.171,0.802-0.185,0.991-0.183,2.492c0.001,1.634,0.028,1.9,0.34,3.421
	c0.135,0.657,0.361,1.427,0.444,1.51c0.08,0.08,0.071,0.107,0.312-0.853c0.497-1.977,1.356-3.906,2.146-4.822l0.255-0.296
	l0.525,0.288c1.161,0.638,2.575,1.659,3.78,2.732c0.357,0.318,0.673,0.577,0.704,0.576c0.03-0.001,0.225-0.24,0.432-0.532
	c0.207-0.292,0.666-0.882,1.019-1.312c0.733-0.891,0.718-0.835,0.51-1.92c-0.629-3.286-2.246-6.754-4.431-9.502
	C30.248-0.064,30.274-0.049,29.979,0.26z M44.217,0.639c-1.654,2.031-3.125,4.73-3.971,7.286c-0.358,1.081-0.651,2.331-0.696,2.965
	l-0.04,0.573l0.687,0.851c0.378,0.468,0.839,1.061,1.025,1.317c0.186,0.257,0.356,0.466,0.377,0.465
	c0.021-0.001,0.349-0.269,0.73-0.596c0.38-0.327,0.893-0.756,1.14-0.954c0.984-0.787,2.75-1.93,3.068-1.985
	c0.277-0.048,1.255,1.521,1.773,2.845c0.313,0.798,0.826,2.553,0.826,2.825c0,0.143,0.175,0.324,0.229,0.237
	c0.019-0.03,0.127-0.413,0.241-0.85c0.737-2.824,0.73-5.59-0.021-7.844c-0.483-1.449-2.077-4.312-3.402-6.108
	C45.696,1.01,44.851,0,44.786,0C44.759,0,44.503,0.288,44.217,0.639z M13.08,4.236c-0.157,0.242-0.076,3.272,0.125,4.644
	c0.467,3.192,1.084,5.408,2.067,7.419l0.265,0.542l0.611,0.044c2.433,0.174,5.585,1.224,8.261,2.754
	c0.217,0.124,0.412,0.208,0.433,0.187c0.021-0.021-0.066-0.269-0.194-0.55c-0.319-0.703-0.698-1.839-0.863-2.585
	c-0.301-1.364-0.318-1.557-0.322-3.598l-0.004-2.009l-0.217-0.272c-0.5-0.627-2.055-2.038-3.235-2.937
	c-1.499-1.141-3.804-2.501-5.321-3.138C13.817,4.37,13.131,4.157,13.08,4.236z M61.608,4.237c-0.114,0.041-0.643,0.258-1.175,0.482
	c-2.928,1.231-5.783,3.159-7.918,5.346c-1.08,1.107-1.041,1.033-0.961,1.788c0.255,2.424-0.191,5.209-1.186,7.415
	c-0.301,0.667-0.286,0.681,0.321,0.315c1.059-0.64,2.799-1.411,4.25-1.886c0.948-0.31,2.663-0.675,3.663-0.779l0.864-0.09
	l0.316-0.622c0.265-0.522,0.64-1.434,0.895-2.177c0.534-1.556,1.051-4.074,1.242-6.047c0.094-0.978,0.07-3.782-0.034-3.805
	C61.847,4.169,61.722,4.196,61.608,4.237z M37.097,12.007c-0.461,0.592-1.178,1.663-1.668,2.494c-1.731,2.933-2.774,5.986-3.2,9.369
	c-0.156,1.238-0.157,3.737-0.002,4.79c0.476,3.241,1.647,6.213,3.49,8.864c0.785,1.128,2.07,2.561,2.29,2.553
	c0.058-0.002,0.268-0.197,0.466-0.432c2.194-2.604,3.656-5.63,4.331-8.963c0.304-1.503,0.347-2.004,0.349-4.043
	c0.001-2.095-0.049-2.653-0.382-4.275c-0.128-0.623-0.187-0.865-0.407-1.668c-0.558-2.038-1.904-4.911-3.27-6.98
	c-0.608-0.92-1.512-2.108-1.605-2.108C37.443,11.61,37.267,11.789,37.097,12.007z M28.534,12.802
	c-1.331,2.462-2.132,6.104-2.134,9.715c-0.001,1.794,0.187,3.013,0.773,4.987c0.453,1.529,1.586,3.763,2.804,5.528
	c0.795,1.153,2.403,3.042,3.14,3.691c0.126,0.11,0.385,0.344,0.576,0.518c0.67,0.612,0.858,0.767,0.929,0.767
	c0.119,0,0.084-0.098-0.249-0.7c-0.423-0.763-0.963-1.866-1.333-2.721c-0.498-1.149-0.531-1.23-0.679-1.624
	c-0.078-0.209-0.195-0.52-0.26-0.691c-0.453-1.197-0.95-3.125-1.136-4.413c-0.361-2.499-0.043-5.658,0.851-8.444
	c0.328-1.023,1.093-2.728,1.47-3.277c0.052-0.075,0.093-0.184,0.093-0.242c0-0.058-0.485-0.479-1.078-0.935
	c-0.593-0.456-1.588-1.226-2.211-1.71c-0.624-0.485-1.176-0.881-1.227-0.881C28.81,12.37,28.662,12.564,28.534,12.802z
	 M44.815,13.344c-0.684,0.534-1.586,1.231-2.004,1.55c-0.418,0.319-0.867,0.669-0.997,0.778l-0.237,0.199l0.247,0.409
	c1.686,2.799,2.545,6.644,2.336,10.464c-0.059,1.078-0.282,2.898-0.411,3.352c-0.032,0.114-0.098,0.394-0.145,0.622
	c-0.219,1.049-0.871,3.119-1.241,3.939c-0.069,0.152-0.209,0.479-0.313,0.726c-0.249,0.596-0.983,2.058-1.153,2.298
	c-0.074,0.105-0.124,0.245-0.11,0.311c0.019,0.092,0.164-0.011,0.61-0.432c3.15-2.976,5.533-6.693,6.512-10.159
	c0.487-1.725,0.672-3.185,0.672-5.321c0-2.581-0.308-4.541-1.081-6.882c-0.342-1.036-1.174-2.784-1.337-2.809
	C46.106,12.38,45.499,12.81,44.815,13.344z M6.124,13.069c-0.189,0.616-0.236,3.376-0.08,4.622c0.211,1.681,0.684,3.406,1.384,5.045
	c0.364,0.852,1.294,2.625,1.72,3.278c1.397,2.143,4.469,4.348,8.44,6.056c0.766,0.33,2.818,1.032,3.015,1.032
	c0.137,0,0.029-0.173-0.561-0.901c-0.903-1.114-1.897-2.561-2.49-3.625c-1.672-3-2.76-6.766-2.762-9.561
	c-0.001-0.91-0.062-1.042-0.863-1.844c-1.534-1.537-4.083-3.101-6.241-3.831C6.724,13.015,6.17,12.919,6.124,13.069z M67.828,13.198
	c-2.621,0.815-4.945,2.199-6.684,3.981c-0.867,0.888-0.883,0.919-0.884,1.649c-0.003,3.06-0.946,6.365-2.731,9.575
	c-0.676,1.215-1.685,2.708-2.669,3.949c-0.482,0.608-0.569,0.787-0.352,0.726c3.335-0.935,6.777-2.696,9.208-4.712
	c1.728-1.432,2.936-3.214,4.014-5.92c1.143-2.869,1.601-6.199,1.227-8.918l-0.074-0.536l-0.217,0.006
	C68.547,13.002,68.17,13.091,67.828,13.198z M16.24,18.745c0,0.434,0.147,1.972,0.278,2.904c0.415,2.957,1.369,5.508,2.948,7.884
	c0.869,1.307,1.574,2.158,2.817,3.397c2.797,2.788,6.33,5.067,10.377,6.692c1.288,0.517,2.925,1.038,3.134,0.996
	c0.089-0.018,0.083-0.041-0.031-0.136c-0.076-0.063-0.589-0.482-1.14-0.931c-1.772-1.444-3.788-3.514-5.127-5.266
	c-0.547-0.715-1.645-2.316-1.645-2.397c0-0.024-0.064-0.134-0.143-0.244c-0.236-0.331-1.059-1.98-1.374-2.753
	c-0.845-2.072-1.175-3.648-1.239-5.912l-0.043-1.52l-0.467-0.313c-1.696-1.135-4.657-2.224-7.319-2.69
	C16.157,18.26,16.24,18.237,16.24,18.745z M57.98,18.395c-2.62,0.443-6.051,1.697-7.598,2.778c-0.169,0.118-0.333,0.233-0.364,0.255
	s-0.068,0.582-0.083,1.244c-0.025,1.156-0.067,1.549-0.291,2.69c-0.658,3.357-2.453,6.945-5.031,10.055
	c-1.339,1.615-3.189,3.386-4.751,4.547c-0.61,0.453-0.805,0.67-0.603,0.67c0.042,0,0.4-0.094,0.796-0.21
	c4.447-1.295,9.391-4.199,12.618-7.409c3.444-3.427,5.281-7.093,5.892-11.758c0.135-1.034,0.262-2.79,0.208-2.878
	C58.725,18.302,58.508,18.306,57.98,18.395z M10.47,33.562c-2.813,0.059-6.623,0.589-8.871,1.233C0.01,35.251,0,35.255,0,35.392
	c0,0.071,0.04,0.129,0.09,0.129s0.321,0.145,0.605,0.321s0.686,0.421,0.895,0.543c4.133,2.411,7.287,3.893,10.884,5.113
	c1.226,0.416,3.692,1.064,4.734,1.244c0.133,0.023,0.491,0.085,0.795,0.138c3.405,0.593,7.043,0.636,11.403,0.135
	c1.362-0.157,2.436-0.309,4.63-0.658c0.722-0.115,1.493-0.227,1.712-0.249c0.22-0.022,0.418-0.071,0.441-0.108
	c0.054-0.088-0.108-0.187-0.306-0.189c-0.22-0.001-1.482-0.312-2.399-0.589c-2.96-0.897-6.092-2.554-8.589-4.545
	c-0.9-0.717-0.866-0.688-1.44-1.242c-0.287-0.277-0.526-0.437-0.79-0.53c-0.402-0.141-1.715-0.485-2.348-0.615
	c-0.209-0.043-0.536-0.11-0.726-0.148c-1.263-0.258-3.238-0.465-5.287-0.554C12.969,33.528,12.275,33.524,10.47,33.562z
	 M60.191,33.585c-2.554,0.155-5.308,0.583-7.152,1.113c-0.853,0.245-1.008,0.333-1.687,0.961c-2.907,2.689-6.915,4.847-10.916,5.876
	c-0.432,0.111-0.937,0.222-1.122,0.247c-0.185,0.025-0.372,0.087-0.415,0.139c-0.089,0.107-0.044,0.131,0.352,0.188
	c0.133,0.019,0.786,0.127,1.451,0.24c2.072,0.352,3.216,0.511,5.01,0.698c2.461,0.257,3.041,0.295,5.045,0.331
	c1.722,0.031,2.21,0.015,3.466-0.111c4.43-0.446,8.08-1.455,12.781-3.534c2.073-0.917,5.158-2.559,7.387-3.932
	c0.228-0.14,0.472-0.276,0.541-0.302c0.217-0.08,0.087-0.212-0.339-0.343c-1.748-0.537-4.855-1.151-6.905-1.363
	c-0.418-0.043-1.009-0.108-1.313-0.145C65.628,33.558,61.35,33.515,60.191,33.585z"/>
</svg>
