<?xml version="1.0" encoding="utf-8"?>
<!-- Generator: Adobe Illustrator 24.3.0, SVG Export Plug-In . SVG Version: 6.00 Build 0)  -->
<svg version="1.1" id="Группа_1_копия_" xmlns="http://www.w3.org/2000/svg" xmlns:xlink="http://www.w3.org/1999/xlink"
	 x="0px" y="0px" width="124.821px" height="109.841px" viewBox="0 0 124.821 109.841" enable-background="new 0 0 124.821 109.841"
	 xml:space="preserve">
<g>
	<path fill="#FFFFFF" d="M1.6,90.262v-3.15c0-2.195-0.012-3.484-0.036-3.866c-0.024-0.322-0.087-0.558-0.188-0.707
		c-0.102-0.149-0.295-0.253-0.582-0.313c-0.036-0.012-0.084-0.021-0.143-0.027c-0.06-0.006-0.128-0.012-0.206-0.018
		c-0.078-0.006-0.134-0.009-0.17-0.009c-0.155-0.024-0.233-0.06-0.233-0.107c0-0.095,0.095-0.143,0.286-0.143
		c0.597,0,1.271,0.018,2.023,0.054c2.458,0,3.824-0.006,4.099-0.018c0.441-0.024,0.716-0.06,0.823-0.107
		c0.095-0.048,0.161-0.072,0.197-0.072c0.048,0,0.072,0.054,0.072,0.161c0,0.024-0.021,0.122-0.063,0.295
		C7.438,82.407,7.411,82.589,7.4,82.78l-0.072,1.074c-0.024,0.203-0.072,0.304-0.143,0.304c-0.096,0-0.143-0.077-0.143-0.233
		c0-0.239-0.03-0.435-0.089-0.591c-0.119-0.37-0.549-0.591-1.289-0.662c-0.31-0.036-1.128-0.054-2.452-0.054
		c-0.072,0-0.107,0.06-0.107,0.179v4.94c0,0.119,0.036,0.179,0.107,0.179c1.623,0,2.571-0.012,2.846-0.036
		c0.453-0.036,0.752-0.137,0.895-0.304c0.095-0.119,0.167-0.179,0.215-0.179c0.06,0,0.089,0.048,0.089,0.143
		c0,0.024-0.009,0.078-0.027,0.161c-0.018,0.084-0.039,0.203-0.063,0.358c-0.024,0.155-0.042,0.316-0.054,0.483
		c-0.024,0.215-0.042,0.468-0.054,0.761c-0.012,0.293-0.018,0.445-0.018,0.456c-0.024,0.179-0.066,0.268-0.125,0.268
		c-0.084,0-0.125-0.095-0.125-0.286c0-0.191-0.024-0.358-0.072-0.501c-0.084-0.334-0.394-0.531-0.931-0.591
		c-0.537-0.06-1.39-0.089-2.56-0.089c-0.084,0-0.125,0.042-0.125,0.125v1.575c0,0.107,0,0.415,0,0.922c0,0.507,0,0.964,0,1.369
		c0,0.406,0,0.662,0,0.77c0.024,0.394,0.074,0.689,0.152,0.886c0.077,0.197,0.224,0.337,0.439,0.421
		c0.262,0.107,0.758,0.161,1.486,0.161c0.716,0,1.253-0.054,1.611-0.161c0.274-0.083,0.477-0.224,0.609-0.421
		c0.131-0.197,0.233-0.498,0.304-0.904c0.036-0.179,0.089-0.268,0.161-0.268s0.107,0.089,0.107,0.268
		c0,0.084-0.03,0.352-0.089,0.805c-0.06,0.454-0.107,0.764-0.143,0.931c-0.06,0.227-0.143,0.361-0.251,0.403
		c-0.107,0.042-0.346,0.063-0.716,0.063c-0.346,0-1.217-0.018-2.613-0.054c-1.432-0.036-2.178-0.054-2.237-0.054
		c-0.119,0-0.328,0.012-0.626,0.036c-0.298,0.024-0.531,0.03-0.698,0.018c-0.191,0-0.286-0.048-0.286-0.143
		c0-0.048,0.065-0.083,0.197-0.107c0.227-0.024,0.364-0.042,0.412-0.054c0.215-0.048,0.373-0.185,0.474-0.412
		c0.101-0.227,0.158-0.65,0.17-1.271C1.588,92.535,1.6,91.467,1.6,90.262z"/>
	<path fill="#FFFFFF" d="M15.561,95.703c-0.943,0-1.742-0.161-2.398-0.483c-0.119-0.06-0.194-0.125-0.224-0.197
		c-0.03-0.072-0.045-0.233-0.045-0.483c0-0.31,0.03-0.942,0.089-1.897c0.012-0.191,0.06-0.286,0.143-0.286
		c0.083,0,0.125,0.066,0.125,0.197c0,0.275,0.018,0.495,0.054,0.662c0.131,0.621,0.441,1.08,0.931,1.378
		c0.489,0.298,1.062,0.447,1.718,0.447c0.811,0,1.441-0.239,1.888-0.716c0.447-0.477,0.671-1.032,0.671-1.665
		c0-0.609-0.146-1.133-0.439-1.575c-0.293-0.441-0.832-0.99-1.62-1.647l-0.805-0.662c-0.895-0.728-1.507-1.39-1.835-1.987
		c-0.328-0.597-0.492-1.229-0.492-1.897c0-0.967,0.334-1.745,1.002-2.336c0.668-0.591,1.569-0.886,2.703-0.886
		c0.609,0,1.163,0.06,1.665,0.179c0.286,0.06,0.495,0.089,0.626,0.089c0.119,0,0.179,0.042,0.179,0.125l-0.018,0.233
		c-0.012,0.155-0.024,0.382-0.036,0.68c-0.012,0.298-0.018,0.626-0.018,0.984c0,0.275-0.042,0.412-0.125,0.412
		c-0.072,0-0.119-0.077-0.143-0.233c-0.036-0.37-0.114-0.668-0.233-0.895c-0.346-0.632-1.092-0.949-2.237-0.949
		c-0.633,0-1.158,0.188-1.575,0.564c-0.418,0.376-0.626,0.88-0.626,1.512c0,0.513,0.149,0.975,0.447,1.387
		c0.298,0.412,0.877,0.952,1.736,1.62l0.501,0.394c1.014,0.8,1.703,1.51,2.067,2.13c0.364,0.621,0.546,1.313,0.546,2.076
		c0,0.477-0.116,0.993-0.349,1.548c-0.233,0.555-0.624,1.029-1.172,1.423C17.548,95.452,16.647,95.703,15.561,95.703z"/>
	<path fill="#FFFFFF" d="M26.3,90.262v-3.15c0-2.195-0.012-3.484-0.036-3.866c-0.024-0.322-0.087-0.558-0.188-0.707
		c-0.102-0.149-0.295-0.253-0.582-0.313c-0.143-0.036-0.346-0.054-0.609-0.054c-0.096,0-0.143-0.036-0.143-0.107
		c0-0.095,0.095-0.143,0.286-0.143c0.239,0,0.513,0.003,0.823,0.009c0.31,0.006,0.582,0.015,0.814,0.027
		c0.233,0.012,0.361,0.018,0.385,0.018c0.095,0,0.418-0.009,0.967-0.027c0.549-0.018,0.978-0.027,1.289-0.027
		c1.491,0,2.601,0.34,3.329,1.02c0.597,0.573,0.895,1.354,0.895,2.345c0,1.17-0.418,2.136-1.253,2.9
		c-0.835,0.764-1.886,1.146-3.15,1.146c-0.191,0-0.316-0.006-0.376-0.018c-0.131,0-0.197-0.042-0.197-0.125
		c0-0.107,0.161-0.161,0.483-0.161c0.883,0,1.62-0.28,2.21-0.841c0.591-0.561,0.886-1.3,0.886-2.219
		c0-1.062-0.334-1.933-1.002-2.613c-0.585-0.597-1.402-0.895-2.452-0.895c-0.346,0-0.603,0.036-0.77,0.107
		c-0.096,0.036-0.143,0.149-0.143,0.34v7.356c0,2.088,0.03,3.383,0.089,3.884c0.036,0.298,0.098,0.528,0.188,0.689
		c0.089,0.161,0.26,0.26,0.51,0.295c0.334,0.048,0.602,0.072,0.805,0.072c0.095,0,0.143,0.036,0.143,0.107
		c0,0.095-0.096,0.143-0.286,0.143c-0.286,0-0.606-0.003-0.958-0.009c-0.352-0.006-0.644-0.015-0.877-0.027
		c-0.233-0.012-0.355-0.018-0.367-0.018h-0.322c-0.215,0.012-0.463,0.024-0.743,0.036c-0.281,0.012-0.498,0.018-0.653,0.018
		c-0.191,0-0.286-0.048-0.286-0.143c0-0.072,0.048-0.107,0.143-0.107c0.143,0,0.322-0.024,0.537-0.072
		c0.262-0.048,0.435-0.376,0.519-0.984C26.27,93.645,26.3,92.35,26.3,90.262z"/>
	<path fill="#FFFFFF" d="M39.581,90.262v-3.15c0-2.195-0.012-3.484-0.036-3.866c-0.024-0.322-0.087-0.558-0.188-0.707
		c-0.102-0.149-0.295-0.253-0.582-0.313c-0.036-0.012-0.084-0.021-0.143-0.027c-0.06-0.006-0.128-0.012-0.206-0.018
		c-0.078-0.006-0.134-0.009-0.17-0.009c-0.155-0.024-0.233-0.06-0.233-0.107c0-0.095,0.095-0.143,0.286-0.143
		c0.597,0,1.271,0.018,2.023,0.054c2.458,0,3.824-0.006,4.099-0.018c0.441-0.024,0.716-0.06,0.823-0.107
		c0.095-0.048,0.161-0.072,0.197-0.072c0.048,0,0.072,0.054,0.072,0.161c0,0.024-0.021,0.122-0.063,0.295
		c-0.042,0.173-0.069,0.355-0.081,0.546l-0.072,1.074c-0.024,0.203-0.072,0.304-0.143,0.304c-0.096,0-0.143-0.077-0.143-0.233
		c0-0.239-0.03-0.435-0.089-0.591c-0.119-0.37-0.549-0.591-1.289-0.662c-0.31-0.036-1.128-0.054-2.452-0.054
		c-0.072,0-0.107,0.06-0.107,0.179v4.94c0,0.119,0.036,0.179,0.107,0.179c1.623,0,2.571-0.012,2.846-0.036
		c0.453-0.036,0.752-0.137,0.895-0.304c0.095-0.119,0.167-0.179,0.215-0.179c0.06,0,0.089,0.048,0.089,0.143
		c0,0.024-0.009,0.078-0.027,0.161c-0.018,0.084-0.039,0.203-0.063,0.358c-0.024,0.155-0.042,0.316-0.054,0.483
		c-0.024,0.215-0.042,0.468-0.054,0.761c-0.012,0.293-0.018,0.445-0.018,0.456c-0.024,0.179-0.066,0.268-0.125,0.268
		c-0.084,0-0.125-0.095-0.125-0.286c0-0.191-0.024-0.358-0.072-0.501c-0.084-0.334-0.394-0.531-0.931-0.591
		c-0.537-0.06-1.39-0.089-2.56-0.089c-0.084,0-0.125,0.042-0.125,0.125v1.575c0,0.107,0,0.415,0,0.922c0,0.507,0,0.964,0,1.369
		c0,0.406,0,0.662,0,0.77c0.024,0.394,0.074,0.689,0.152,0.886c0.077,0.197,0.224,0.337,0.439,0.421
		c0.262,0.107,0.758,0.161,1.486,0.161c0.716,0,1.253-0.054,1.611-0.161c0.274-0.083,0.477-0.224,0.609-0.421
		c0.131-0.197,0.233-0.498,0.304-0.904c0.036-0.179,0.089-0.268,0.161-0.268s0.107,0.089,0.107,0.268
		c0,0.084-0.03,0.352-0.089,0.805c-0.06,0.454-0.107,0.764-0.143,0.931c-0.06,0.227-0.143,0.361-0.251,0.403
		c-0.107,0.042-0.346,0.063-0.716,0.063c-0.346,0-1.217-0.018-2.613-0.054c-1.432-0.036-2.178-0.054-2.237-0.054
		c-0.119,0-0.328,0.012-0.626,0.036c-0.298,0.024-0.531,0.03-0.698,0.018c-0.191,0-0.286-0.048-0.286-0.143
		c0-0.048,0.065-0.083,0.197-0.107c0.227-0.024,0.364-0.042,0.412-0.054c0.215-0.048,0.373-0.185,0.474-0.412
		c0.101-0.227,0.158-0.65,0.17-1.271C39.569,92.535,39.581,91.467,39.581,90.262z"/>
	<path fill="#FFFFFF" d="M52.289,90.262v-3.15c0-2.195-0.012-3.484-0.036-3.866c-0.024-0.322-0.087-0.558-0.188-0.707
		c-0.102-0.149-0.295-0.253-0.582-0.313c-0.143-0.036-0.346-0.054-0.609-0.054c-0.096,0-0.143-0.036-0.143-0.107
		c0-0.095,0.095-0.143,0.286-0.143c0.239,0,0.519,0.003,0.841,0.009c0.322,0.006,0.597,0.015,0.823,0.027
		c0.227,0.012,0.346,0.018,0.358,0.018c0.036,0,0.343-0.009,0.922-0.027c0.579-0.018,0.975-0.027,1.19-0.027
		c1.456,0,2.547,0.263,3.275,0.788c0.298,0.215,0.579,0.537,0.841,0.967c0.262,0.43,0.394,0.919,0.394,1.468
		c0,1.42-0.722,2.798-2.166,4.135c1.897,2.434,3.138,3.962,3.723,4.582c0.704,0.74,1.432,1.17,2.184,1.289
		c0.227,0.036,0.459,0.054,0.698,0.054c0.107,0,0.161,0.036,0.161,0.107c0,0.095-0.143,0.143-0.43,0.143h-1.271
		c-0.859,0-1.498-0.113-1.915-0.34c-0.239-0.131-0.504-0.346-0.796-0.644c-0.293-0.298-0.51-0.54-0.653-0.725
		c-0.143-0.185-0.465-0.605-0.967-1.262c-0.275-0.37-0.644-0.874-1.11-1.512c-0.465-0.638-0.746-1.017-0.841-1.137
		c-0.072-0.072-0.149-0.107-0.233-0.107l-2.202-0.036c-0.084,0-0.125,0.048-0.125,0.143v0.43c0,2.088,0.03,3.383,0.089,3.884
		c0.036,0.298,0.098,0.528,0.188,0.689s0.26,0.26,0.51,0.295c0.334,0.048,0.602,0.072,0.805,0.072c0.095,0,0.143,0.036,0.143,0.107
		c0,0.095-0.096,0.143-0.286,0.143c-0.286,0-0.606-0.003-0.958-0.009c-0.352-0.006-0.644-0.015-0.877-0.027
		c-0.233-0.012-0.355-0.018-0.367-0.018h-0.125c-0.084,0.012-0.191,0.021-0.322,0.027c-0.131,0.006-0.268,0.009-0.412,0.009
		s-0.293,0.003-0.447,0.009c-0.155,0.006-0.281,0.009-0.376,0.009c-0.191,0-0.286-0.048-0.286-0.143
		c0-0.072,0.048-0.107,0.143-0.107c0.143,0,0.322-0.024,0.537-0.072c0.262-0.048,0.435-0.376,0.519-0.984
		C52.259,93.645,52.289,92.35,52.289,90.262z M53.721,82.816v5.853c0,0.096,0.042,0.167,0.125,0.215
		c0.322,0.191,0.949,0.286,1.879,0.286c0.573,0,1.02-0.113,1.342-0.34c0.728-0.501,1.092-1.42,1.092-2.756
		c0-1.121-0.277-1.998-0.832-2.631c-0.555-0.632-1.31-0.949-2.264-0.949c-0.561,0-0.961,0.036-1.199,0.107
		C53.768,82.637,53.721,82.708,53.721,82.816z"/>
	<path fill="#FFFFFF" d="M72.246,90.172h-3.848c-0.084,0-0.143,0.048-0.179,0.143l-1.074,3.168
		c-0.167,0.465-0.251,0.865-0.251,1.199c0,0.167,0.065,0.295,0.197,0.385c0.131,0.089,0.28,0.134,0.447,0.134H67.7
		c0.155,0,0.233,0.036,0.233,0.107c0,0.095-0.107,0.143-0.322,0.143c-0.167,0-0.421-0.009-0.761-0.027s-0.534-0.027-0.582-0.027
		c-0.012,0-0.268,0.009-0.77,0.027c-0.501,0.018-0.919,0.027-1.253,0.027c-0.227,0-0.34-0.048-0.34-0.143
		c0-0.072,0.084-0.107,0.251-0.107c0.096,0,0.239-0.012,0.43-0.036c0.382-0.048,0.68-0.212,0.895-0.492
		c0.215-0.28,0.418-0.677,0.609-1.19l4.063-11.115c0.167-0.465,0.298-0.698,0.394-0.698c0.095,0,0.227,0.215,0.394,0.644
		c0.048,0.119,0.349,0.907,0.904,2.363c0.555,1.456,1.157,3.025,1.808,4.707c0.65,1.682,1.137,2.924,1.459,3.723
		c0.477,1.17,0.99,1.832,1.539,1.987c0.215,0.072,0.447,0.107,0.698,0.107c0.131,0,0.197,0.036,0.197,0.107
		c0,0.095-0.119,0.143-0.358,0.143c-1.05,0-1.987-0.012-2.81-0.036c-0.358-0.024-0.537-0.065-0.537-0.125
		c0-0.06,0.042-0.101,0.125-0.125c0.167-0.06,0.203-0.221,0.107-0.483l-1.665-4.403C72.371,90.208,72.317,90.172,72.246,90.172z
		 M68.594,89.528h3.419c0.072,0,0.095-0.042,0.072-0.125l-1.7-4.833c-0.084-0.274-0.173-0.274-0.268,0l-1.575,4.833
		C68.505,89.486,68.523,89.528,68.594,89.528z"/>
	<path fill="#FFFFFF" d="M81.302,92.821v-2.649c0-1.802,0.003-3.159,0.009-4.072c0.006-0.913,0.009-1.396,0.009-1.45
		s0-0.749,0-2.085c0-0.597,0.065-0.895,0.197-0.895c0.048,0,0.104,0.03,0.17,0.089c0.065,0.06,0.152,0.149,0.26,0.268
		c0.107,0.119,0.173,0.191,0.197,0.215c0.441,0.501,2.339,2.548,5.692,6.139c0.62,0.668,1.447,1.569,2.479,2.703
		c1.032,1.134,1.638,1.79,1.817,1.969l-0.197-9.093c-0.012-0.597-0.063-1.011-0.152-1.244s-0.272-0.385-0.546-0.456
		c-0.263-0.06-0.519-0.089-0.77-0.089c-0.167,0-0.251-0.042-0.251-0.125c0-0.083,0.119-0.125,0.358-0.125
		c0.322,0,0.71,0.009,1.163,0.027c0.453,0.018,0.686,0.027,0.698,0.027c0.024,0,0.212-0.009,0.564-0.027
		c0.352-0.018,0.671-0.027,0.958-0.027c0.215,0,0.322,0.042,0.322,0.125c0,0.06-0.066,0.102-0.197,0.125
		c-0.096,0.012-0.251,0.036-0.465,0.072c-0.251,0.06-0.418,0.191-0.501,0.394c-0.084,0.203-0.125,0.609-0.125,1.217l-0.036,10.453
		c0,0.298-0.003,0.531-0.009,0.698c-0.006,0.167-0.015,0.293-0.027,0.376c-0.012,0.083-0.027,0.137-0.045,0.161
		c-0.018,0.024-0.045,0.036-0.081,0.036c-0.107,0-0.543-0.382-1.307-1.146c-0.072-0.072-0.352-0.355-0.841-0.85
		c-0.489-0.495-1.107-1.13-1.853-1.906c-0.746-0.776-1.405-1.474-1.978-2.094c-1.671-1.802-3.228-3.514-4.672-5.137l0.233,8.573
		c0.012,0.728,0.069,1.238,0.17,1.53c0.101,0.293,0.277,0.474,0.528,0.546c0.274,0.072,0.573,0.107,0.895,0.107
		c0.095,0,0.143,0.036,0.143,0.107c0,0.095-0.107,0.143-0.322,0.143c-0.298,0-0.594-0.003-0.886-0.009
		c-0.293-0.006-0.528-0.015-0.707-0.027c-0.179-0.012-0.281-0.018-0.304-0.018l-0.609,0.036c-0.418,0.012-0.788,0.018-1.11,0.018
		c-0.191,0-0.286-0.048-0.286-0.143c0-0.072,0.048-0.107,0.143-0.107c0.274,0,0.519-0.036,0.734-0.107
		c0.215-0.06,0.358-0.244,0.43-0.555C81.267,94.229,81.302,93.657,81.302,92.821z"/>
	<path fill="#FFFFFF" d="M100.74,94.683h4.868c0.871,0,1.506-0.072,1.906-0.215c0.4-0.143,0.707-0.364,0.922-0.662
		c0.179-0.262,0.298-0.585,0.358-0.967c0.036-0.191,0.089-0.286,0.161-0.286c0.095,0,0.143,0.137,0.143,0.412
		c0,0.382-0.119,1.068-0.358,2.058c-0.06,0.215-0.114,0.346-0.161,0.394c-0.048,0.048-0.173,0.072-0.376,0.072
		c-0.991,0-2.494-0.015-4.51-0.045c-2.017-0.03-3.556-0.045-4.618-0.045c-0.215,0-0.322-0.048-0.322-0.143
		c0-0.083,0.083-0.251,0.251-0.501c3.89-5.871,6.509-9.904,7.858-12.1h-3.884c-1.265,0-2.124,0.119-2.577,0.358
		c-0.298,0.155-0.534,0.37-0.707,0.644c-0.173,0.275-0.277,0.531-0.313,0.77c-0.024,0.215-0.089,0.322-0.197,0.322
		c-0.072,0-0.107-0.077-0.107-0.233c0-0.155,0.119-0.949,0.358-2.381c0.036-0.227,0.095-0.34,0.179-0.34
		c0.036,0,0.122,0.018,0.26,0.054c0.137,0.036,0.301,0.06,0.492,0.072c0.847,0.036,1.885,0.054,3.114,0.054h4.994
		c0.239,0,0.358,0.048,0.358,0.143c0,0.072-0.024,0.143-0.072,0.215C106.778,85.471,104.105,89.588,100.74,94.683z"/>
	<path fill="#FFFFFF" d="M119.48,90.172h-3.848c-0.084,0-0.143,0.048-0.179,0.143l-1.074,3.168
		c-0.167,0.465-0.251,0.865-0.251,1.199c0,0.167,0.065,0.295,0.197,0.385c0.131,0.089,0.28,0.134,0.447,0.134h0.161
		c0.155,0,0.233,0.036,0.233,0.107c0,0.095-0.107,0.143-0.322,0.143c-0.167,0-0.421-0.009-0.761-0.027s-0.534-0.027-0.582-0.027
		c-0.012,0-0.268,0.009-0.77,0.027c-0.501,0.018-0.919,0.027-1.253,0.027c-0.227,0-0.34-0.048-0.34-0.143
		c0-0.072,0.084-0.107,0.251-0.107c0.096,0,0.239-0.012,0.43-0.036c0.382-0.048,0.68-0.212,0.895-0.492
		c0.215-0.28,0.418-0.677,0.609-1.19l4.063-11.115c0.167-0.465,0.298-0.698,0.394-0.698c0.095,0,0.227,0.215,0.394,0.644
		c0.048,0.119,0.349,0.907,0.904,2.363c0.555,1.456,1.157,3.025,1.808,4.707c0.65,1.682,1.137,2.924,1.459,3.723
		c0.477,1.17,0.99,1.832,1.539,1.987c0.215,0.072,0.447,0.107,0.698,0.107c0.131,0,0.197,0.036,0.197,0.107
		c0,0.095-0.119,0.143-0.358,0.143c-1.05,0-1.987-0.012-2.81-0.036c-0.358-0.024-0.537-0.065-0.537-0.125
		c0-0.06,0.042-0.101,0.125-0.125c0.167-0.06,0.203-0.221,0.107-0.483l-1.665-4.403C119.605,90.208,119.552,90.172,119.48,90.172z
		 M115.829,89.528h3.419c0.072,0,0.095-0.042,0.072-0.125l-1.7-4.833c-0.084-0.274-0.173-0.274-0.268,0l-1.575,4.833
		C115.739,89.486,115.757,89.528,115.829,89.528z"/>
	<path fill="#FFFFFF" d="M19.586,109.266l-1.297-4.321c-0.058-0.189-0.115-0.322-0.171-0.397c-0.056-0.075-0.132-0.132-0.23-0.171
		c-0.078-0.029-0.187-0.044-0.328-0.044c-0.044,0-0.066-0.017-0.066-0.051s0.039-0.051,0.117-0.051c0.151,0,0.333,0.003,0.547,0.007
		l0.313,0.015c0.015,0,0.059-0.002,0.135-0.007c0.075-0.005,0.17-0.008,0.284-0.011c0.114-0.002,0.225-0.004,0.332-0.004
		c0.087,0,0.131,0.017,0.131,0.051s-0.024,0.051-0.073,0.051c-0.131,0-0.226,0.015-0.284,0.044
		c-0.063,0.034-0.095,0.092-0.095,0.175c0,0.039,0.046,0.262,0.138,0.67c0.092,0.394,0.42,1.577,0.984,3.549l1.552-4.176
		c0.083-0.223,0.143-0.335,0.182-0.335c0.039,0,0.1,0.114,0.182,0.343l1.465,4.176c0.019-0.073,0.188-0.625,0.506-1.658
		c0.318-1.032,0.528-1.733,0.63-2.102c0.053-0.199,0.08-0.354,0.08-0.466c0-0.146-0.138-0.219-0.415-0.219
		c-0.044,0-0.066-0.017-0.066-0.051s0.041-0.051,0.124-0.051c0.107,0,0.217,0.001,0.332,0.004c0.114,0.003,0.208,0.006,0.281,0.011
		c0.073,0.005,0.117,0.007,0.131,0.007l0.226-0.015c0.15-0.005,0.272-0.007,0.364-0.007c0.068,0,0.102,0.015,0.102,0.044
		c0,0.039-0.022,0.058-0.066,0.058c-0.097,0-0.18,0.012-0.248,0.036c-0.097,0.034-0.18,0.113-0.248,0.237
		c-0.068,0.124-0.143,0.307-0.226,0.55c-0.107,0.311-0.334,0.998-0.681,2.062c-0.347,1.064-0.567,1.73-0.659,1.997
		c-0.097,0.277-0.163,0.451-0.197,0.521c-0.034,0.07-0.07,0.106-0.109,0.106c-0.034,0-0.066-0.026-0.095-0.077
		c-0.029-0.051-0.07-0.152-0.124-0.302l-1.436-4.074c-0.816,2.181-1.326,3.537-1.53,4.066c-0.097,0.257-0.177,0.386-0.24,0.386
		c-0.039,0-0.073-0.034-0.102-0.102S19.659,109.513,19.586,109.266z"/>
	<path fill="#FFFFFF" d="M27.616,107.626v-1.283c0-0.894-0.005-1.418-0.015-1.574c-0.01-0.131-0.035-0.227-0.076-0.288
		c-0.041-0.061-0.12-0.103-0.237-0.128c-0.015-0.005-0.034-0.008-0.058-0.011c-0.024-0.002-0.052-0.005-0.084-0.007
		c-0.032-0.002-0.055-0.004-0.069-0.004c-0.063-0.01-0.095-0.024-0.095-0.044c0-0.039,0.039-0.058,0.117-0.058
		c0.243,0,0.517,0.007,0.823,0.022c1.001,0,1.557-0.002,1.669-0.007c0.18-0.01,0.291-0.024,0.335-0.044
		c0.039-0.019,0.066-0.029,0.08-0.029c0.019,0,0.029,0.022,0.029,0.066c0,0.01-0.009,0.05-0.026,0.12
		c-0.017,0.07-0.028,0.145-0.033,0.222l-0.029,0.437c-0.01,0.083-0.029,0.124-0.058,0.124c-0.039,0-0.058-0.031-0.058-0.095
		c0-0.097-0.012-0.177-0.036-0.241c-0.049-0.151-0.224-0.241-0.525-0.27c-0.126-0.015-0.459-0.022-0.998-0.022
		c-0.029,0-0.044,0.024-0.044,0.073v2.011c0,0.049,0.015,0.073,0.044,0.073c0.661,0,1.047-0.005,1.159-0.015
		c0.185-0.015,0.306-0.056,0.364-0.124c0.039-0.049,0.068-0.073,0.087-0.073c0.024,0,0.036,0.019,0.036,0.058
		c0,0.01-0.004,0.032-0.011,0.066c-0.007,0.034-0.016,0.083-0.026,0.146c-0.01,0.063-0.017,0.129-0.022,0.197
		c-0.01,0.087-0.017,0.191-0.022,0.31c-0.005,0.119-0.007,0.181-0.007,0.186c-0.01,0.073-0.027,0.109-0.051,0.109
		c-0.034,0-0.051-0.039-0.051-0.117c0-0.078-0.01-0.146-0.029-0.204c-0.034-0.136-0.16-0.216-0.379-0.24
		c-0.219-0.024-0.566-0.036-1.042-0.036c-0.034,0-0.051,0.017-0.051,0.051v0.641c0,0.044,0,0.169,0,0.375c0,0.207,0,0.392,0,0.557
		c0,0.165,0,0.27,0,0.313c0.01,0.16,0.03,0.281,0.062,0.361c0.032,0.08,0.091,0.137,0.179,0.171
		c0.107,0.044,0.308,0.066,0.605,0.066c0.291,0,0.51-0.022,0.656-0.066c0.112-0.034,0.194-0.091,0.248-0.171
		c0.053-0.08,0.095-0.203,0.124-0.368c0.015-0.073,0.036-0.109,0.066-0.109s0.044,0.036,0.044,0.109
		c0,0.034-0.012,0.143-0.036,0.328c-0.024,0.185-0.044,0.311-0.058,0.379c-0.024,0.092-0.058,0.147-0.102,0.164
		c-0.044,0.017-0.141,0.025-0.291,0.025c-0.141,0-0.496-0.007-1.064-0.022c-0.583-0.015-0.887-0.022-0.911-0.022
		c-0.049,0-0.134,0.005-0.255,0.015c-0.122,0.01-0.216,0.012-0.284,0.007c-0.078,0-0.117-0.02-0.117-0.058
		c0-0.019,0.027-0.034,0.08-0.044c0.092-0.01,0.148-0.017,0.168-0.022c0.087-0.019,0.152-0.075,0.193-0.168
		c0.041-0.092,0.064-0.265,0.069-0.517C27.611,108.552,27.616,108.117,27.616,107.626z"/>
	<path fill="#FFFFFF" d="M32.79,107.626v-1.283c0-0.894-0.005-1.418-0.015-1.574c-0.01-0.136-0.033-0.233-0.069-0.291
		s-0.111-0.1-0.222-0.124c-0.058-0.015-0.141-0.022-0.248-0.022c-0.053,0-0.08-0.015-0.08-0.044c0-0.039,0.039-0.058,0.117-0.058
		c0.097,0,0.211,0.001,0.343,0.004c0.131,0.003,0.243,0.006,0.335,0.011c0.092,0.005,0.141,0.007,0.146,0.007
		c0.019,0,0.081-0.002,0.186-0.007c0.104-0.005,0.232-0.008,0.383-0.011c0.151-0.002,0.289-0.004,0.415-0.004
		c0.029,0,0.075,0,0.138,0c0.214,0,0.384,0.001,0.51,0.004c0.126,0.003,0.308,0.018,0.547,0.047c0.238,0.029,0.445,0.07,0.619,0.124
		c0.175,0.053,0.364,0.136,0.568,0.248c0.204,0.112,0.384,0.248,0.539,0.408c0.471,0.491,0.707,1.108,0.707,1.851
		c0,0.816-0.262,1.501-0.787,2.055c-0.534,0.559-1.27,0.838-2.208,0.838c-0.258,0-0.595-0.015-1.013-0.044
		c-0.087-0.005-0.181-0.011-0.281-0.018c-0.1-0.007-0.176-0.013-0.23-0.018c-0.054-0.005-0.085-0.007-0.095-0.007
		c-0.092,0-0.189,0.002-0.291,0.007c-0.054,0-0.129,0.002-0.226,0.007c-0.097,0.005-0.163,0.007-0.197,0.007
		c-0.078,0-0.117-0.02-0.117-0.058c0-0.029,0.024-0.044,0.073-0.044c0.083-0.01,0.151-0.019,0.204-0.029
		c0.107-0.019,0.177-0.153,0.211-0.401C32.778,109.003,32.79,108.476,32.79,107.626z M33.402,106.227v0.904
		c0,0.87,0.005,1.397,0.015,1.581c0.015,0.311,0.041,0.495,0.08,0.554c0.131,0.194,0.544,0.291,1.239,0.291
		c0.704,0,1.283-0.226,1.734-0.678c0.185-0.18,0.328-0.429,0.43-0.747c0.102-0.318,0.153-0.65,0.153-0.995
		c0-0.733-0.233-1.346-0.7-1.836c-0.311-0.33-0.657-0.55-1.038-0.66c-0.381-0.109-0.83-0.164-1.344-0.164
		c-0.248,0-0.406,0.017-0.474,0.051c-0.058,0.024-0.087,0.073-0.087,0.146C33.405,104.84,33.402,105.357,33.402,106.227z"/>
	<path fill="#FFFFFF" d="M40.201,107.626v-1.283c0-0.894-0.005-1.418-0.015-1.574c-0.01-0.136-0.033-0.233-0.069-0.291
		s-0.111-0.1-0.222-0.124c-0.058-0.015-0.141-0.022-0.248-0.022c-0.053,0-0.08-0.015-0.08-0.044c0-0.039,0.039-0.058,0.117-0.058
		c0.097,0,0.211,0.001,0.343,0.004c0.131,0.003,0.243,0.006,0.335,0.011c0.092,0.005,0.141,0.007,0.146,0.007
		c0.019,0,0.081-0.002,0.186-0.007c0.104-0.005,0.232-0.008,0.383-0.011c0.151-0.002,0.289-0.004,0.415-0.004
		c0.029,0,0.075,0,0.138,0c0.214,0,0.384,0.001,0.51,0.004c0.126,0.003,0.308,0.018,0.547,0.047c0.238,0.029,0.445,0.07,0.619,0.124
		c0.175,0.053,0.364,0.136,0.568,0.248c0.204,0.112,0.384,0.248,0.539,0.408c0.471,0.491,0.707,1.108,0.707,1.851
		c0,0.816-0.262,1.501-0.787,2.055c-0.534,0.559-1.27,0.838-2.208,0.838c-0.258,0-0.595-0.015-1.013-0.044
		c-0.087-0.005-0.181-0.011-0.281-0.018c-0.1-0.007-0.176-0.013-0.23-0.018c-0.054-0.005-0.085-0.007-0.095-0.007
		c-0.092,0-0.189,0.002-0.291,0.007c-0.054,0-0.129,0.002-0.226,0.007c-0.097,0.005-0.163,0.007-0.197,0.007
		c-0.078,0-0.117-0.02-0.117-0.058c0-0.029,0.024-0.044,0.073-0.044c0.083-0.01,0.151-0.019,0.204-0.029
		c0.107-0.019,0.177-0.153,0.211-0.401C40.189,109.003,40.201,108.476,40.201,107.626z M40.813,106.227v0.904
		c0,0.87,0.005,1.397,0.015,1.581c0.015,0.311,0.041,0.495,0.08,0.554c0.131,0.194,0.544,0.291,1.239,0.291
		c0.704,0,1.283-0.226,1.734-0.678c0.185-0.18,0.328-0.429,0.43-0.747c0.102-0.318,0.153-0.65,0.153-0.995
		c0-0.733-0.233-1.346-0.7-1.836c-0.311-0.33-0.657-0.55-1.038-0.66c-0.381-0.109-0.83-0.164-1.345-0.164
		c-0.248,0-0.406,0.017-0.474,0.051c-0.058,0.024-0.087,0.073-0.087,0.146C40.816,104.84,40.813,105.357,40.813,106.227z"/>
	<path fill="#FFFFFF" d="M47.612,107.626v-1.283c0-0.894-0.005-1.418-0.015-1.574c-0.015-0.238-0.097-0.374-0.248-0.408
		c-0.073-0.019-0.148-0.029-0.226-0.029c-0.039,0-0.058-0.015-0.058-0.044c0-0.039,0.039-0.058,0.117-0.058
		c0.073,0,0.168,0.001,0.284,0.004c0.117,0.003,0.22,0.006,0.31,0.011c0.09,0.005,0.137,0.007,0.142,0.007
		c0.005,0,0.052-0.002,0.142-0.007c0.09-0.005,0.192-0.008,0.306-0.011c0.114-0.002,0.203-0.004,0.266-0.004
		c0.078,0,0.117,0.019,0.117,0.058c0,0.029-0.02,0.044-0.058,0.044c-0.034,0-0.095,0.007-0.182,0.022
		c-0.097,0.019-0.164,0.061-0.2,0.124c-0.036,0.063-0.06,0.16-0.069,0.291c-0.01,0.156-0.015,0.68-0.015,1.574v1.283
		c0,0.85,0.012,1.377,0.036,1.581c0.015,0.122,0.04,0.215,0.076,0.281s0.106,0.106,0.208,0.12c0.136,0.019,0.236,0.029,0.299,0.029
		c0.058,0,0.087,0.015,0.087,0.044c0,0.039-0.036,0.058-0.109,0.058c-0.117,0-0.248-0.001-0.393-0.004
		c-0.146-0.003-0.266-0.006-0.361-0.011c-0.095-0.005-0.145-0.007-0.149-0.007c-0.005,0-0.052,0.001-0.142,0.004
		c-0.09,0.002-0.192,0.006-0.306,0.011c-0.114,0.005-0.203,0.007-0.266,0.007c-0.078,0-0.117-0.02-0.117-0.058
		c0-0.029,0.027-0.044,0.08-0.044c0.063,0,0.126-0.007,0.189-0.022c0.112-0.024,0.185-0.16,0.219-0.408
		C47.6,109.003,47.612,108.476,47.612,107.626z"/>
	<path fill="#FFFFFF" d="M51.307,108.668v-1.079c0-0.733,0.001-1.286,0.004-1.658c0.002-0.372,0.004-0.568,0.004-0.59
		c0-0.022,0-0.305,0-0.849c0-0.243,0.027-0.364,0.08-0.364c0.019,0,0.042,0.012,0.069,0.036c0.027,0.024,0.062,0.061,0.106,0.109
		c0.044,0.049,0.07,0.078,0.08,0.087c0.18,0.204,0.952,1.037,2.317,2.5c0.253,0.272,0.589,0.639,1.009,1.1
		c0.42,0.462,0.667,0.729,0.74,0.802l-0.08-3.702c-0.005-0.243-0.026-0.412-0.062-0.506c-0.036-0.095-0.111-0.157-0.222-0.186
		c-0.107-0.024-0.211-0.036-0.313-0.036c-0.068,0-0.102-0.017-0.102-0.051s0.049-0.051,0.146-0.051c0.131,0,0.289,0.004,0.474,0.011
		c0.185,0.007,0.279,0.011,0.284,0.011c0.01,0,0.086-0.004,0.23-0.011c0.143-0.007,0.273-0.011,0.39-0.011
		c0.087,0,0.131,0.017,0.131,0.051c0,0.024-0.027,0.041-0.08,0.051c-0.039,0.005-0.102,0.015-0.189,0.029
		c-0.102,0.024-0.17,0.078-0.204,0.16c-0.034,0.083-0.051,0.248-0.051,0.496l-0.015,4.256c0,0.122-0.001,0.216-0.004,0.284
		c-0.002,0.068-0.006,0.119-0.011,0.153c-0.005,0.034-0.011,0.056-0.018,0.066c-0.007,0.01-0.018,0.015-0.033,0.015
		c-0.044,0-0.221-0.155-0.532-0.466c-0.029-0.029-0.143-0.144-0.343-0.346c-0.199-0.201-0.451-0.46-0.754-0.776
		c-0.304-0.316-0.572-0.6-0.805-0.853c-0.68-0.734-1.314-1.431-1.902-2.091l0.095,3.491c0.005,0.296,0.028,0.504,0.069,0.623
		c0.041,0.119,0.113,0.193,0.215,0.222c0.112,0.029,0.233,0.044,0.364,0.044c0.039,0,0.058,0.015,0.058,0.044
		c0,0.039-0.044,0.058-0.131,0.058c-0.121,0-0.242-0.001-0.361-0.004c-0.119-0.003-0.215-0.006-0.288-0.011
		c-0.073-0.005-0.114-0.007-0.124-0.007l-0.248,0.015c-0.17,0.005-0.321,0.007-0.452,0.007c-0.078,0-0.117-0.02-0.117-0.058
		c0-0.029,0.019-0.044,0.058-0.044c0.112,0,0.211-0.015,0.299-0.044c0.087-0.024,0.146-0.099,0.175-0.226
		C51.292,109.241,51.307,109.008,51.307,108.668z"/>
	<path fill="#FFFFFF" d="M63.25,108.304v0.816c0,0.16-0.005,0.26-0.015,0.299c-0.01,0.039-0.036,0.07-0.08,0.095
		c-0.413,0.219-0.928,0.328-1.545,0.328c-1.006,0-1.805-0.26-2.397-0.78c-0.243-0.209-0.448-0.5-0.616-0.874
		c-0.168-0.374-0.251-0.775-0.251-1.202c0-0.549,0.114-1.03,0.342-1.443c0.228-0.413,0.52-0.731,0.874-0.955
		c0.491-0.306,1.137-0.459,1.938-0.459c0.35,0,0.721,0.041,1.115,0.124c0.165,0.039,0.362,0.063,0.59,0.073
		c0.058,0.005,0.087,0.027,0.087,0.066c0,0.015-0.004,0.06-0.011,0.135c-0.007,0.075-0.016,0.191-0.026,0.346
		c-0.01,0.155-0.015,0.34-0.015,0.554c0,0.102-0.022,0.153-0.066,0.153c-0.024,0-0.041-0.036-0.051-0.109
		c-0.015-0.18-0.066-0.34-0.153-0.481c-0.102-0.155-0.304-0.293-0.605-0.412c-0.301-0.119-0.67-0.178-1.108-0.178
		c-0.632,0-1.151,0.16-1.559,0.481c-0.219,0.175-0.394,0.424-0.525,0.747c-0.131,0.323-0.197,0.691-0.197,1.104
		c0,0.452,0.084,0.857,0.251,1.217c0.168,0.36,0.341,0.627,0.521,0.802c0.534,0.52,1.171,0.78,1.909,0.78
		c0.379,0,0.656-0.051,0.831-0.153c0.097-0.053,0.146-0.138,0.146-0.255v-1.239c0-0.296-0.018-0.486-0.055-0.568
		c-0.036-0.082-0.128-0.143-0.273-0.182c-0.058-0.015-0.141-0.022-0.248-0.022c-0.039,0-0.058-0.015-0.058-0.044
		c0-0.039,0.039-0.058,0.117-0.058c0.097,0,0.211,0.003,0.343,0.007c0.131,0.005,0.243,0.009,0.335,0.011
		c0.092,0.003,0.141,0.004,0.146,0.004c0.005,0,0.052-0.001,0.142-0.004c0.09-0.002,0.192-0.006,0.306-0.011
		c0.114-0.005,0.203-0.007,0.266-0.007c0.078,0,0.117,0.02,0.117,0.058c0,0.029-0.02,0.044-0.058,0.044
		c-0.034,0-0.095,0.007-0.182,0.022c-0.097,0.02-0.164,0.061-0.2,0.124c-0.036,0.063-0.06,0.16-0.069,0.292
		C63.255,107.701,63.25,107.954,63.25,108.304z"/>
	<path fill="#FFFFFF" d="M71.186,107.59h-1.567c-0.034,0-0.058,0.02-0.073,0.058l-0.437,1.29c-0.068,0.189-0.102,0.352-0.102,0.488
		c0,0.068,0.027,0.12,0.08,0.157c0.053,0.036,0.114,0.055,0.182,0.055h0.066c0.063,0,0.095,0.015,0.095,0.044
		c0,0.039-0.044,0.058-0.131,0.058c-0.068,0-0.171-0.004-0.31-0.011c-0.138-0.007-0.217-0.011-0.237-0.011
		c-0.005,0-0.109,0.004-0.313,0.011c-0.204,0.007-0.374,0.011-0.51,0.011c-0.092,0-0.138-0.02-0.138-0.058
		c0-0.029,0.034-0.044,0.102-0.044c0.039,0,0.097-0.005,0.175-0.015c0.155-0.019,0.277-0.086,0.364-0.2
		c0.087-0.114,0.17-0.276,0.248-0.485l1.654-4.525c0.068-0.189,0.121-0.284,0.16-0.284c0.039,0,0.092,0.087,0.16,0.262
		c0.019,0.049,0.142,0.369,0.368,0.962c0.226,0.593,0.471,1.232,0.736,1.917c0.265,0.685,0.463,1.19,0.594,1.516
		c0.194,0.476,0.403,0.746,0.627,0.809c0.087,0.029,0.182,0.044,0.284,0.044c0.053,0,0.08,0.015,0.08,0.044
		c0,0.039-0.049,0.058-0.146,0.058c-0.428,0-0.809-0.005-1.144-0.015c-0.146-0.01-0.219-0.027-0.219-0.051
		c0-0.024,0.017-0.041,0.051-0.051c0.068-0.024,0.083-0.09,0.044-0.197l-0.678-1.793C71.237,107.604,71.215,107.59,71.186,107.59z
		 M69.7,107.327h1.392c0.029,0,0.039-0.017,0.029-0.051l-0.692-1.968c-0.034-0.112-0.07-0.112-0.109,0l-0.641,1.968
		C69.663,107.31,69.67,107.327,69.7,107.327z"/>
	<path fill="#FFFFFF" d="M79.188,108.304v0.816c0,0.16-0.005,0.26-0.015,0.299c-0.01,0.039-0.036,0.07-0.08,0.095
		c-0.413,0.219-0.928,0.328-1.545,0.328c-1.006,0-1.805-0.26-2.397-0.78c-0.243-0.209-0.448-0.5-0.616-0.874
		c-0.168-0.374-0.251-0.775-0.251-1.202c0-0.549,0.114-1.03,0.342-1.443c0.228-0.413,0.52-0.731,0.874-0.955
		c0.491-0.306,1.137-0.459,1.938-0.459c0.35,0,0.721,0.041,1.115,0.124c0.165,0.039,0.362,0.063,0.59,0.073
		c0.058,0.005,0.087,0.027,0.087,0.066c0,0.015-0.004,0.06-0.011,0.135c-0.007,0.075-0.016,0.191-0.026,0.346
		c-0.01,0.155-0.015,0.34-0.015,0.554c0,0.102-0.022,0.153-0.066,0.153c-0.024,0-0.041-0.036-0.051-0.109
		c-0.015-0.18-0.066-0.34-0.153-0.481c-0.102-0.155-0.304-0.293-0.605-0.412c-0.301-0.119-0.67-0.178-1.108-0.178
		c-0.632,0-1.151,0.16-1.559,0.481c-0.219,0.175-0.394,0.424-0.525,0.747c-0.131,0.323-0.197,0.691-0.197,1.104
		c0,0.452,0.084,0.857,0.251,1.217c0.168,0.36,0.341,0.627,0.521,0.802c0.534,0.52,1.171,0.78,1.909,0.78
		c0.379,0,0.656-0.051,0.831-0.153c0.097-0.053,0.146-0.138,0.146-0.255v-1.239c0-0.296-0.018-0.486-0.055-0.568
		c-0.036-0.082-0.128-0.143-0.273-0.182c-0.058-0.015-0.141-0.022-0.248-0.022c-0.039,0-0.058-0.015-0.058-0.044
		c0-0.039,0.039-0.058,0.117-0.058c0.097,0,0.211,0.003,0.343,0.007c0.131,0.005,0.243,0.009,0.335,0.011
		c0.092,0.003,0.141,0.004,0.146,0.004c0.005,0,0.052-0.001,0.142-0.004c0.09-0.002,0.192-0.006,0.306-0.011
		c0.114-0.005,0.203-0.007,0.266-0.007c0.078,0,0.117,0.02,0.117,0.058c0,0.029-0.02,0.044-0.058,0.044
		c-0.034,0-0.095,0.007-0.182,0.022c-0.097,0.02-0.164,0.061-0.2,0.124c-0.036,0.063-0.06,0.16-0.069,0.292
		C79.192,107.701,79.188,107.954,79.188,108.304z"/>
	<path fill="#FFFFFF" d="M82.124,107.626v-1.283c0-0.894-0.005-1.418-0.015-1.574c-0.01-0.131-0.035-0.227-0.076-0.288
		c-0.041-0.061-0.12-0.103-0.237-0.128c-0.015-0.005-0.034-0.008-0.058-0.011c-0.024-0.002-0.052-0.005-0.084-0.007
		c-0.032-0.002-0.055-0.004-0.069-0.004c-0.063-0.01-0.095-0.024-0.095-0.044c0-0.039,0.039-0.058,0.117-0.058
		c0.243,0,0.517,0.007,0.823,0.022c1.001,0,1.557-0.002,1.669-0.007c0.18-0.01,0.291-0.024,0.335-0.044
		c0.039-0.019,0.066-0.029,0.08-0.029c0.019,0,0.029,0.022,0.029,0.066c0,0.01-0.009,0.05-0.026,0.12
		c-0.017,0.07-0.028,0.145-0.033,0.222l-0.029,0.437c-0.01,0.083-0.029,0.124-0.058,0.124c-0.039,0-0.058-0.031-0.058-0.095
		c0-0.097-0.012-0.177-0.036-0.241c-0.049-0.151-0.224-0.241-0.525-0.27c-0.126-0.015-0.459-0.022-0.998-0.022
		c-0.029,0-0.044,0.024-0.044,0.073v2.011c0,0.049,0.015,0.073,0.044,0.073c0.661,0,1.047-0.005,1.159-0.015
		c0.185-0.015,0.306-0.056,0.364-0.124c0.039-0.049,0.068-0.073,0.087-0.073c0.024,0,0.036,0.019,0.036,0.058
		c0,0.01-0.004,0.032-0.011,0.066s-0.016,0.083-0.026,0.146c-0.01,0.063-0.017,0.129-0.022,0.197
		c-0.01,0.087-0.017,0.191-0.022,0.31c-0.005,0.119-0.007,0.181-0.007,0.186c-0.01,0.073-0.027,0.109-0.051,0.109
		c-0.034,0-0.051-0.039-0.051-0.117c0-0.078-0.01-0.146-0.029-0.204c-0.034-0.136-0.16-0.216-0.379-0.24
		c-0.219-0.024-0.566-0.036-1.042-0.036c-0.034,0-0.051,0.017-0.051,0.051v0.641c0,0.044,0,0.169,0,0.375c0,0.207,0,0.392,0,0.557
		c0,0.165,0,0.27,0,0.313c0.01,0.16,0.03,0.281,0.062,0.361c0.032,0.08,0.091,0.137,0.179,0.171
		c0.107,0.044,0.308,0.066,0.605,0.066c0.291,0,0.51-0.022,0.656-0.066c0.112-0.034,0.194-0.091,0.248-0.171
		c0.053-0.08,0.095-0.203,0.124-0.368c0.015-0.073,0.036-0.109,0.066-0.109c0.029,0,0.044,0.036,0.044,0.109
		c0,0.034-0.012,0.143-0.036,0.328c-0.024,0.185-0.044,0.311-0.058,0.379c-0.024,0.092-0.058,0.147-0.102,0.164
		c-0.044,0.017-0.141,0.025-0.291,0.025c-0.141,0-0.496-0.007-1.064-0.022c-0.583-0.015-0.887-0.022-0.911-0.022
		c-0.049,0-0.134,0.005-0.255,0.015c-0.122,0.01-0.216,0.012-0.284,0.007c-0.078,0-0.117-0.02-0.117-0.058
		c0-0.019,0.027-0.034,0.08-0.044c0.092-0.01,0.148-0.017,0.168-0.022c0.087-0.019,0.152-0.075,0.193-0.168
		c0.041-0.092,0.064-0.265,0.069-0.517C82.119,108.552,82.124,108.117,82.124,107.626z"/>
	<path fill="#FFFFFF" d="M87.058,108.668v-1.079c0-0.733,0.001-1.286,0.004-1.658c0.002-0.372,0.004-0.568,0.004-0.59
		c0-0.022,0-0.305,0-0.849c0-0.243,0.027-0.364,0.08-0.364c0.019,0,0.042,0.012,0.069,0.036c0.027,0.024,0.062,0.061,0.106,0.109
		c0.044,0.049,0.07,0.078,0.08,0.087c0.18,0.204,0.952,1.037,2.317,2.5c0.253,0.272,0.589,0.639,1.009,1.1
		c0.42,0.462,0.667,0.729,0.74,0.802l-0.08-3.702c-0.005-0.243-0.026-0.412-0.062-0.506c-0.036-0.095-0.111-0.157-0.222-0.186
		c-0.107-0.024-0.211-0.036-0.313-0.036c-0.068,0-0.102-0.017-0.102-0.051s0.049-0.051,0.146-0.051c0.131,0,0.289,0.004,0.474,0.011
		c0.185,0.007,0.279,0.011,0.284,0.011c0.01,0,0.086-0.004,0.23-0.011c0.143-0.007,0.273-0.011,0.39-0.011
		c0.087,0,0.131,0.017,0.131,0.051c0,0.024-0.027,0.041-0.08,0.051c-0.039,0.005-0.102,0.015-0.189,0.029
		c-0.102,0.024-0.17,0.078-0.204,0.16c-0.034,0.083-0.051,0.248-0.051,0.496l-0.015,4.256c0,0.122-0.001,0.216-0.004,0.284
		c-0.002,0.068-0.006,0.119-0.011,0.153c-0.005,0.034-0.011,0.056-0.018,0.066c-0.007,0.01-0.018,0.015-0.033,0.015
		c-0.044,0-0.221-0.155-0.532-0.466c-0.029-0.029-0.143-0.144-0.343-0.346c-0.199-0.201-0.451-0.46-0.754-0.776
		c-0.304-0.316-0.572-0.6-0.805-0.853c-0.68-0.734-1.314-1.431-1.902-2.091l0.095,3.491c0.005,0.296,0.028,0.504,0.069,0.623
		c0.041,0.119,0.113,0.193,0.215,0.222c0.112,0.029,0.233,0.044,0.364,0.044c0.039,0,0.058,0.015,0.058,0.044
		c0,0.039-0.044,0.058-0.131,0.058c-0.121,0-0.242-0.001-0.361-0.004c-0.119-0.003-0.215-0.006-0.288-0.011
		c-0.073-0.005-0.114-0.007-0.124-0.007l-0.248,0.015c-0.17,0.005-0.321,0.007-0.452,0.007c-0.078,0-0.117-0.02-0.117-0.058
		c0-0.029,0.019-0.044,0.058-0.044c0.112,0,0.211-0.015,0.299-0.044c0.087-0.024,0.146-0.099,0.175-0.226
		C87.043,109.241,87.058,109.008,87.058,108.668z"/>
	<path fill="#FFFFFF" d="M97.384,109.841c-1.02,0-1.822-0.262-2.405-0.787c-0.588-0.529-0.882-1.248-0.882-2.157
		c0-0.306,0.063-0.641,0.189-1.006c0.126-0.364,0.335-0.692,0.627-0.984c0.52-0.52,1.261-0.78,2.223-0.78
		c0.389,0,0.741,0.029,1.057,0.087c0.068,0.015,0.325,0.051,0.772,0.109c0.044,0.005,0.066,0.032,0.066,0.08
		c0,0.015-0.003,0.038-0.007,0.069c-0.005,0.032-0.01,0.078-0.015,0.138c-0.005,0.061-0.01,0.128-0.015,0.2
		c-0.005,0.087-0.01,0.227-0.015,0.419c-0.005,0.192-0.007,0.302-0.007,0.332c-0.005,0.102-0.027,0.153-0.066,0.153
		c-0.039,0-0.058-0.051-0.058-0.153c0-0.321-0.102-0.568-0.306-0.743c-0.136-0.117-0.336-0.215-0.601-0.295
		c-0.265-0.08-0.55-0.12-0.856-0.12c-0.753,0-1.312,0.177-1.676,0.532c-0.248,0.238-0.419,0.511-0.514,0.82
		c-0.095,0.309-0.142,0.669-0.142,1.082c0,0.719,0.249,1.343,0.747,1.873c0.498,0.53,1.126,0.794,1.884,0.794
		c0.607,0,1.03-0.121,1.268-0.364c0.136-0.141,0.226-0.345,0.27-0.612c0.015-0.073,0.039-0.109,0.073-0.109
		c0.034,0,0.051,0.036,0.051,0.109c0,0.039-0.018,0.177-0.055,0.415c-0.036,0.238-0.072,0.411-0.106,0.517
		c-0.02,0.068-0.039,0.113-0.058,0.135c-0.02,0.022-0.063,0.047-0.131,0.076C98.418,109.785,97.981,109.841,97.384,109.841z"/>
	<path fill="#FFFFFF" d="M102.332,108.479v-0.627c0-0.262-0.056-0.517-0.168-0.765c-0.024-0.058-0.213-0.376-0.565-0.955
		c-0.352-0.578-0.592-0.959-0.718-1.144c-0.17-0.253-0.335-0.432-0.495-0.539c-0.117-0.078-0.221-0.117-0.313-0.117
		c-0.049,0-0.073-0.017-0.073-0.051s0.032-0.051,0.095-0.051c0.053,0,0.186,0.004,0.397,0.011c0.211,0.007,0.319,0.011,0.324,0.011
		c0.01,0,0.046-0.002,0.109-0.007c0.063-0.005,0.142-0.008,0.237-0.011c0.095-0.002,0.183-0.004,0.266-0.004
		c0.063,0,0.095,0.017,0.095,0.051c0,0.01-0.036,0.032-0.109,0.066c-0.063,0.034-0.095,0.078-0.095,0.131
		c0,0.073,0.032,0.168,0.095,0.284c0.063,0.112,0.287,0.498,0.67,1.159c0.384,0.661,0.607,1.042,0.67,1.144
		c0.058-0.131,0.247-0.475,0.565-1.031c0.318-0.556,0.533-0.927,0.645-1.111c0.083-0.131,0.124-0.255,0.124-0.372
		s-0.039-0.185-0.117-0.204c-0.073-0.024-0.109-0.049-0.109-0.073c0-0.029,0.039-0.044,0.117-0.044c0.073,0,0.169,0.004,0.288,0.011
		c0.119,0.007,0.183,0.011,0.193,0.011c0.005,0,0.11-0.004,0.317-0.011c0.206-0.007,0.336-0.011,0.39-0.011
		c0.063,0,0.095,0.015,0.095,0.044c0,0.039-0.032,0.058-0.095,0.058c-0.117,0-0.228,0.034-0.335,0.102
		c-0.107,0.063-0.236,0.187-0.386,0.372c-0.117,0.141-0.361,0.522-0.732,1.144c-0.372,0.622-0.592,1.013-0.66,1.173
		c-0.073,0.175-0.109,0.418-0.109,0.729v0.627c0,0.282,0.007,0.525,0.022,0.729c0.015,0.243,0.114,0.377,0.299,0.401
		c0.136,0.019,0.245,0.029,0.328,0.029c0.039,0,0.058,0.015,0.058,0.044c0,0.039-0.039,0.058-0.117,0.058
		c-0.117,0-0.247-0.001-0.39-0.004c-0.143-0.003-0.262-0.006-0.357-0.011c-0.095-0.005-0.145-0.007-0.149-0.007
		c-0.005,0-0.052,0.001-0.142,0.004c-0.09,0.002-0.192,0.006-0.306,0.011c-0.114,0.005-0.203,0.007-0.266,0.007
		c-0.078,0-0.117-0.02-0.117-0.058c0-0.029,0.019-0.044,0.058-0.044c0.058,0,0.131-0.01,0.219-0.029
		c0.136-0.029,0.211-0.163,0.226-0.401C102.324,109.003,102.332,108.761,102.332,108.479z"/>
</g>
<linearGradient id="SVGID_1_" gradientUnits="userSpaceOnUse" x1="106.9818" y1="211.8877" x2="9.2699" y2="135.9023" gradientTransform="matrix(1 0 0 -1 0 218.6828)">
	<stop  offset="0" style="stop-color:#C8AA80"/>
	<stop  offset="0.224" style="stop-color:#FBDD96"/>
	<stop  offset="0.3808" style="stop-color:#D7B986"/>
	<stop  offset="0.4991" style="stop-color:#CAAC80"/>
	<stop  offset="0.6455" style="stop-color:#E8C98E"/>
	<stop  offset="0.7949" style="stop-color:#FCDD97"/>
	<stop  offset="0.9359" style="stop-color:#CAAC81"/>
</linearGradient>
<path fill-rule="evenodd" clip-rule="evenodd" fill="url(#SVGID_1_)" d="M49.868,0.433c-1.717,1.797-4.376,5.826-6.125,9.281
	c-1.131,2.235-1.582,3.447-1.984,5.339c-0.284,1.334-0.307,1.649-0.305,4.145c0.002,2.717,0.046,3.16,0.565,5.69
	c0.224,1.093,0.601,2.373,0.739,2.512c0.134,0.134,0.118,0.178,0.519-1.419c0.827-3.289,2.255-6.497,3.57-8.022l0.425-0.492
	l0.874,0.48c1.932,1.06,4.284,2.76,6.289,4.545c0.593,0.528,1.12,0.959,1.171,0.958c0.05-0.001,0.374-0.4,0.718-0.886
	c0.345-0.486,1.108-1.468,1.696-2.183c1.219-1.482,1.194-1.39,0.849-3.194c-1.046-5.465-3.736-11.235-7.37-15.806
	C50.316-0.106,50.359-0.081,49.868,0.433z M73.552,1.063c-2.751,3.379-5.198,7.868-6.606,12.12
	c-0.596,1.799-1.084,3.877-1.158,4.932l-0.067,0.954l1.142,1.415c0.628,0.778,1.396,1.764,1.706,2.191
	c0.31,0.427,0.592,0.775,0.627,0.774c0.035-0.001,0.581-0.447,1.214-0.991c0.632-0.544,1.486-1.258,1.897-1.587
	c1.636-1.309,4.575-3.21,5.103-3.302c0.46-0.08,2.087,2.53,2.95,4.733c0.52,1.328,1.373,4.247,1.373,4.699
	c0,0.238,0.291,0.54,0.381,0.394c0.031-0.051,0.212-0.687,0.401-1.414c1.226-4.698,1.214-9.299-0.036-13.047
	c-0.803-2.411-3.456-7.172-5.659-10.16C76.014,1.679,74.608,0,74.5,0C74.455,0,74.029,0.478,73.552,1.063z M21.758,7.047
	c-0.262,0.403-0.126,5.443,0.207,7.725c0.776,5.31,1.803,8.996,3.438,12.341l0.44,0.901l1.016,0.073
	c4.048,0.289,9.29,2.037,13.742,4.581c0.361,0.206,0.685,0.346,0.72,0.31c0.035-0.035-0.109-0.447-0.322-0.915
	c-0.531-1.17-1.162-3.06-1.435-4.3c-0.5-2.27-0.529-2.59-0.536-5.986l-0.007-3.342l-0.36-0.452c-0.832-1.043-3.418-3.39-5.382-4.886
	c-2.493-1.899-6.328-4.16-8.852-5.22C22.984,7.27,21.844,6.916,21.758,7.047z M102.482,7.048c-0.19,0.069-1.069,0.429-1.954,0.802
	c-4.871,2.048-9.619,5.254-13.171,8.893c-1.797,1.841-1.731,1.718-1.599,2.974c0.424,4.032-0.317,8.665-1.974,12.335
	c-0.501,1.109-0.476,1.133,0.534,0.523c1.762-1.064,4.656-2.348,7.07-3.137c1.577-0.515,4.431-1.123,6.093-1.296l1.437-0.15
	l0.525-1.035c0.441-0.868,1.064-2.386,1.489-3.621c0.889-2.589,1.749-6.776,2.066-10.059c0.157-1.626,0.116-6.291-0.056-6.329
	C102.879,6.935,102.672,6.979,102.482,7.048z M61.71,19.973c-0.768,0.985-1.96,2.767-2.775,4.149
	c-2.88,4.878-4.615,9.957-5.323,15.585c-0.259,2.059-0.261,6.216-0.003,7.969c0.792,5.392,2.739,10.336,5.805,14.744
	c1.305,1.876,3.444,4.261,3.809,4.247c0.096-0.004,0.445-0.327,0.775-0.718c3.649-4.332,6.081-9.365,7.204-14.909
	c0.506-2.5,0.578-3.334,0.58-6.725c0.002-3.485-0.081-4.413-0.636-7.111c-0.213-1.037-0.311-1.439-0.677-2.775
	c-0.928-3.39-3.167-8.169-5.439-11.61c-1.011-1.531-2.515-3.506-2.669-3.506C62.285,19.312,61.993,19.61,61.71,19.973z
	 M47.465,21.295c-2.215,4.096-3.546,10.155-3.551,16.16c-0.002,2.984,0.312,5.012,1.285,8.296c0.754,2.544,2.638,6.259,4.664,9.196
	c1.323,1.918,3.997,5.061,5.223,6.139c0.209,0.184,0.64,0.572,0.959,0.862c1.115,1.017,1.428,1.276,1.545,1.276
	c0.198,0,0.139-0.163-0.415-1.164c-0.703-1.269-1.602-3.104-2.217-4.526c-0.828-1.911-0.884-2.046-1.129-2.701
	c-0.13-0.348-0.325-0.865-0.433-1.15c-0.754-1.991-1.58-5.199-1.889-7.341c-0.6-4.157-0.071-9.412,1.415-14.047
	c0.545-1.702,1.818-4.538,2.446-5.451c0.086-0.125,0.155-0.306,0.155-0.402c0-0.097-0.807-0.796-1.793-1.555
	c-0.986-0.759-2.641-2.039-3.678-2.845c-1.037-0.806-1.956-1.466-2.042-1.466C47.923,20.577,47.679,20.9,47.465,21.295z
	 M74.548,22.196c-1.138,0.888-2.638,2.048-3.334,2.578c-0.695,0.53-1.442,1.113-1.658,1.295L69.162,26.4l0.41,0.681
	c2.805,4.656,4.233,11.052,3.887,17.407c-0.098,1.792-0.469,4.82-0.683,5.575c-0.054,0.19-0.163,0.655-0.242,1.035
	c-0.365,1.746-1.45,5.188-2.065,6.552c-0.114,0.253-0.348,0.796-0.52,1.207c-0.415,0.991-1.635,3.424-1.918,3.823
	c-0.123,0.174-0.206,0.407-0.183,0.517c0.031,0.153,0.272-0.018,1.014-0.719c5.24-4.95,9.204-11.134,10.833-16.898
	c0.811-2.87,1.117-5.298,1.117-8.852c0-4.293-0.512-7.553-1.798-11.447c-0.569-1.723-1.953-4.631-2.224-4.672
	C76.695,20.594,75.686,21.309,74.548,22.196z M10.187,21.74c-0.314,1.024-0.393,5.616-0.133,7.689
	c0.351,2.796,1.138,5.666,2.302,8.392c0.605,1.417,2.152,4.366,2.861,5.453c2.324,3.565,7.435,7.232,14.039,10.073
	c1.275,0.548,4.688,1.717,5.015,1.717c0.228,0,0.049-0.288-0.933-1.499c-1.503-1.853-3.156-4.259-4.143-6.031
	c-2.781-4.99-4.591-11.256-4.594-15.904c-0.001-1.514-0.104-1.733-1.436-3.068c-2.552-2.557-6.791-5.159-10.382-6.372
	C11.185,21.649,10.264,21.49,10.187,21.74z M112.828,21.954c-4.361,1.355-8.226,3.658-11.119,6.622
	c-1.441,1.477-1.469,1.528-1.47,2.743c-0.005,5.091-1.573,10.588-4.544,15.928c-1.125,2.021-2.803,4.505-4.439,6.568
	c-0.802,1.011-0.946,1.308-0.586,1.208c5.547-1.555,11.272-4.484,15.318-7.838c2.874-2.383,4.884-5.347,6.677-9.847
	c1.901-4.772,2.663-10.312,2.041-14.834l-0.123-0.891l-0.36,0.01C114.025,21.628,113.397,21.777,112.828,21.954z M27.015,31.182
	c0,0.722,0.245,3.28,0.463,4.83c0.69,4.919,2.276,9.162,4.904,13.115c1.445,2.175,2.619,3.59,4.686,5.65
	c4.652,4.638,10.53,8.428,17.262,11.132c2.143,0.861,4.866,1.726,5.213,1.657c0.147-0.03,0.138-0.068-0.052-0.226
	c-0.126-0.104-0.98-0.801-1.897-1.549c-2.947-2.402-6.301-5.846-8.529-8.759c-0.91-1.19-2.737-3.852-2.737-3.988
	c0-0.04-0.107-0.222-0.238-0.406c-0.392-0.551-1.761-3.294-2.285-4.58c-1.405-3.447-1.954-6.068-2.061-9.835l-0.071-2.529
	l-0.777-0.52c-2.822-1.889-7.747-3.699-12.175-4.475C26.877,30.375,27.014,30.336,27.015,31.182z M96.447,30.6
	c-4.359,0.736-10.065,2.822-12.64,4.621c-0.282,0.197-0.554,0.387-0.606,0.423c-0.052,0.036-0.114,0.967-0.137,2.069
	c-0.041,1.923-0.112,2.576-0.484,4.475c-1.094,5.585-4.08,11.552-8.369,16.726c-2.227,2.687-5.304,5.632-7.903,7.565
	c-1.014,0.754-1.339,1.115-1.003,1.115c0.07,0,0.665-0.157,1.324-0.349c7.397-2.155,15.622-6.985,20.989-12.325
	c5.729-5.701,8.785-11.799,9.801-19.559c0.225-1.72,0.436-4.641,0.346-4.788C97.687,30.445,97.325,30.452,96.447,30.6z
	 M17.416,55.829c-4.679,0.098-11.017,0.979-14.756,2.052C0.017,58.638,0,58.645,0,58.873c0,0.118,0.067,0.214,0.149,0.214
	s0.535,0.24,1.006,0.534c0.471,0.294,1.141,0.7,1.489,0.903C9.519,64.535,14.766,67,20.749,69.029
	c2.039,0.692,6.141,1.77,7.874,2.069c0.221,0.038,0.816,0.142,1.322,0.23c5.663,0.986,11.716,1.058,18.968,0.224
	c2.266-0.26,4.053-0.514,7.702-1.094c1.201-0.191,2.483-0.378,2.848-0.415c0.365-0.037,0.695-0.118,0.733-0.179
	c0.09-0.146-0.179-0.312-0.508-0.314c-0.366-0.002-2.465-0.518-3.99-0.98c-4.924-1.492-10.134-4.249-14.288-7.56
	c-1.498-1.193-1.44-1.144-2.395-2.066c-0.477-0.461-0.875-0.728-1.314-0.882c-0.669-0.235-2.853-0.807-3.905-1.022
	c-0.348-0.071-0.891-0.182-1.207-0.247c-2.101-0.428-5.387-0.773-8.794-0.922C21.574,55.773,20.418,55.766,17.416,55.829z
	 M100.126,55.867c-4.249,0.257-8.829,0.97-11.898,1.852c-1.419,0.408-1.676,0.554-2.806,1.599
	c-4.836,4.473-11.503,8.062-18.158,9.774c-0.718,0.185-1.558,0.369-1.866,0.41c-0.308,0.041-0.618,0.145-0.69,0.231
	c-0.147,0.177-0.072,0.217,0.586,0.313c0.221,0.032,1.308,0.212,2.414,0.4c3.447,0.585,5.35,0.85,8.334,1.161
	c4.093,0.427,5.058,0.49,8.392,0.55c2.864,0.051,3.676,0.026,5.766-0.185c7.369-0.741,13.441-2.42,21.261-5.879
	c3.448-1.525,8.58-4.257,12.288-6.541c0.379-0.234,0.785-0.46,0.9-0.503c0.361-0.133,0.145-0.352-0.564-0.57
	c-2.907-0.894-8.077-1.914-11.486-2.268c-0.695-0.072-1.678-0.18-2.184-0.241C109.17,55.822,102.053,55.751,100.126,55.867z"/>
</svg>
