<svg width="60" height="60" viewBox="0 0 60 60" fill="none" xmlns="http://www.w3.org/2000/svg">
<g clip-path="url(#clip0_12_2253)">
<path d="M0.516349 60C0.264496 60 0.0595703 59.7947 0.0595703 59.5423V44.1289C0.0595703 43.8765 0.264496 43.6712 0.516349 43.6712H3.90507V18.8976H0.516349C0.264496 18.8976 0.0595703 18.6922 0.0595703 18.4398V8.16429C0.0595703 7.95612 0.199976 7.77392 0.401116 7.72151L29.8671 0.0187347C29.9115 0.00612245 29.9531 0.000122449 29.9958 0C30.0428 0.000122449 30.084 0.00563265 30.1256 0.0173878L59.5961 7.72139C59.7971 7.77392 59.9375 7.956 59.9375 8.16416V18.4397C59.9375 18.6921 59.7327 18.8974 59.4808 18.8974H56.0921V43.6712H59.4808C59.7327 43.6712 59.9375 43.8765 59.9375 44.1289V59.5423C59.9375 59.7947 59.7327 60 59.4808 60H0.516349ZM52.2464 59.0846H59.0239V44.5865H52.2464V59.0846ZM4.81863 35.3273V43.6712H8.20723C8.45908 43.6712 8.66401 43.8765 8.66401 44.1289V59.0846H51.3329V44.1289C51.3329 43.8765 51.5377 43.6712 51.7896 43.6712H55.1784V35.3273L38.7822 18.8976H21.2148L4.81863 35.3273ZM0.973136 59.0846H7.75069V44.5865H0.973136V59.0846ZM55.1786 34.0327V18.8976H40.0739L55.1786 34.0327ZM4.81863 34.0327L19.9231 18.8976H4.81863V34.0327ZM48.401 17.9821H59.0239V8.5178L48.401 5.74102V17.9821ZM31.1012 17.9821H47.4874V5.50224L44.3694 4.68698L31.1012 17.9821ZM12.5095 5.50224V17.9821H28.896L15.6279 4.68698L12.5095 5.50224ZM0.973136 8.5178V17.9822H11.5961V5.74102L0.973136 8.5178ZM30.4552 17.335L43.3445 4.41918L30.4552 1.05V17.335ZM16.6524 4.41918L29.5418 17.335V1.05L16.6524 4.41918Z" fill="black"/>
</g>
<defs>
<clipPath id="clip0_12_2253">
<rect width="60" height="60" fill="white"/>
</clipPath>
</defs>
</svg>
