<svg width="60" height="60" viewBox="0 0 60 60" fill="none" xmlns="http://www.w3.org/2000/svg">
<g clip-path="url(#clip0_12_2252)">
<g clip-path="url(#clip1_12_2252)">
<path fill-rule="evenodd" clip-rule="evenodd" d="M3.03797 60C2.7747 60 2.56055 59.7857 2.56055 59.5223V21.2912C2.56055 21.0278 2.77482 20.8135 3.03797 20.8135H22.2472C22.5104 20.8135 22.7246 21.0278 22.7246 21.2912V59.5223C22.7246 59.7857 22.5103 60 22.2472 60H3.03797ZM3.51552 59.0445H21.7696V21.769H3.51552V59.0445Z" fill="black"/>
<path fill-rule="evenodd" clip-rule="evenodd" d="M22.2473 60.0001C21.9839 60.0001 21.7697 59.7857 21.7697 59.5223V36.2392C21.7697 35.9757 21.984 35.7614 22.2473 35.7614H56.9602C57.2234 35.7614 57.4376 35.9757 57.4376 36.2392V59.5223C57.4376 59.7857 57.2234 60.0001 56.9602 60.0001H22.2473ZM22.7247 59.0446H56.4828V36.7168H22.7247V59.0446ZM6.63172 53.7994C6.36845 53.7994 6.1543 53.5851 6.1543 53.3218V24.8877C6.1543 24.6242 6.36857 24.4099 6.63172 24.4099H18.6524C18.9158 24.4099 19.13 24.6242 19.13 24.8877V53.3218C19.13 53.5851 18.9157 53.7994 18.6524 53.7994H6.63172ZM7.10927 52.844H18.175V25.3654H7.10927V52.844Z" fill="black"/>
<path fill-rule="evenodd" clip-rule="evenodd" d="M47.8912 56.8484C47.6278 56.8484 47.4136 56.6341 47.4136 56.3707V50.0771C47.4136 49.8137 47.6279 49.5993 47.8912 49.5993H53.9973C54.2607 49.5993 54.4749 49.8137 54.4749 50.0771V56.3707C54.4749 56.6341 54.2606 56.8484 53.9973 56.8484H47.8912ZM48.3686 55.8929H53.5199V50.5548H48.3686V55.8929ZM36.9302 56.8484C36.6669 56.8484 36.4527 56.6341 36.4527 56.3707V50.0771C36.4527 49.8137 36.667 49.5993 36.9302 49.5993H43.0365C43.2999 49.5993 43.514 49.8137 43.514 50.0771V56.3707C43.514 56.6341 43.2997 56.8484 43.0365 56.8484H36.9302ZM37.4077 55.8929H42.559V50.5548H37.4077V55.8929ZM25.9694 56.8484C25.7061 56.8484 25.492 56.6341 25.492 56.3707V50.0771C25.492 49.8137 25.7062 49.5993 25.9694 49.5993H32.0757C32.3389 49.5993 32.5531 49.8137 32.5531 50.0771V56.3707C32.5531 56.6341 32.3388 56.8484 32.0757 56.8484H25.9694ZM26.4468 55.8929H31.5981V50.5548H26.4468V55.8929ZM47.8912 46.396C47.6278 46.396 47.4136 46.1816 47.4136 45.9182V39.6246C47.4136 39.3612 47.6279 39.1469 47.8912 39.1469H53.9973C54.2607 39.1469 54.4749 39.3612 54.4749 39.6246V45.9182C54.4749 46.1816 54.2606 46.396 53.9973 46.396H47.8912ZM48.3686 45.4405H53.5199V40.1024H48.3686V45.4405ZM25.2118 46.1618C24.9485 46.1618 24.7344 45.9475 24.7344 45.6841V39.3904C24.7344 39.127 24.9487 38.9127 25.2118 38.9127H31.3181C31.5807 38.9127 31.7944 39.127 31.7944 39.3904V45.6841C31.7944 45.9475 31.5806 46.1618 31.3181 46.1618H25.2118ZM25.6893 45.2063H30.8405V39.8682H25.6893V45.2063ZM35.794 46.0441C35.5307 46.0441 35.3164 45.8298 35.3164 45.5664V39.2728C35.3164 39.0093 35.5307 38.795 35.794 38.795H41.9001C42.1635 38.795 42.3777 39.0093 42.3777 39.2728V45.5664C42.3777 45.8298 42.1634 46.0441 41.9001 46.0441H35.794ZM36.2714 45.0898H41.4227V39.7505H36.2714V45.0898ZM29.0159 36.7166C28.7527 36.7166 28.5385 36.4787 28.5385 36.186V5.02547C28.5385 4.28589 29.0803 3.68433 29.7465 3.68433H36.4644C37.1305 3.68433 37.6723 4.28589 37.6723 5.02547V36.1861C37.6723 36.4787 37.458 36.7167 37.1949 36.7167H29.0159V36.7166ZM29.7466 4.63969C29.6094 4.63969 29.4936 4.76865 29.4936 4.92137V35.7611H36.7175V4.92149C36.7175 4.76878 36.6016 4.63982 36.4645 4.63982L29.7466 4.63969Z" fill="black"/>
<path fill-rule="evenodd" clip-rule="evenodd" d="M42.0143 36.7167C41.7511 36.7167 41.5369 36.4871 41.5369 36.2049V1.29497C41.5369 0.580986 42.0784 0 42.7438 0H49.4629C50.1283 0 50.6698 0.580863 50.6698 1.29497V36.2051C50.6698 36.4873 50.4555 36.7169 50.1922 36.7169H42.0143V36.7167ZM42.7436 0.955491C42.6072 0.955491 42.4919 1.08016 42.4919 1.22774V35.7614H49.7145V1.22774C49.7145 1.08016 49.5992 0.955491 49.4628 0.955491H42.7436ZM29.016 9.49245C28.7527 9.49245 28.5386 9.27814 28.5386 9.01471C28.5386 8.75128 28.7529 8.53696 29.016 8.53696H37.195C37.4582 8.53696 37.6724 8.75128 37.6724 9.01471C37.6724 9.27814 37.4581 9.49245 37.195 9.49245H29.016Z" fill="black"/>
<path fill-rule="evenodd" clip-rule="evenodd" d="M0.477419 59.9999C0.214277 59.9999 0 59.7856 0 59.5222C0 59.2587 0.214277 59.0444 0.477419 59.0444H59.5226C59.7858 59.0444 60 59.2587 60 59.5222C60 59.7856 59.7858 59.9999 59.5226 59.9999H0.477419ZM42.0142 9.49236C41.7509 9.49236 41.5368 9.27804 41.5368 9.01461C41.5368 8.75118 41.7511 8.53687 42.0142 8.53687H50.1918C50.4552 8.53687 50.6694 8.75118 50.6694 9.01461C50.6694 9.27804 50.4551 9.49236 50.1918 9.49236H42.0142Z" fill="black"/>
</g>
</g>
<defs>
<clipPath id="clip0_12_2252">
<rect width="60" height="60" fill="white"/>
</clipPath>
<clipPath id="clip1_12_2252">
<rect width="60" height="60" fill="white"/>
</clipPath>
</defs>
</svg>
