<svg width="60" height="60" viewBox="0 0 60 60" fill="none" xmlns="http://www.w3.org/2000/svg">
<g clip-path="url(#clip0_12_2251)">
<path d="M45.5632 26.4339V23.2945H39.5906V16.4807H33.2882V23.2945H27.3148V26.4339H15.3451V20.5266C15.9055 19.805 16.2268 18.9269 16.2642 18.0146L24.0491 8.82698C26.2202 8.71359 27.9829 7.03396 28.2146 4.89808H31.5288L33.2884 6.3049V9.43665H34.2473V5.84473L31.8655 3.94053H28.2148C27.9743 1.728 26.0943 0 23.8164 0C21.4471 0 19.5117 1.87102 19.4013 4.21041L9.49092 14.0947C8.25076 14.8787 7.42272 16.2573 7.42272 17.8282C7.42272 18.2753 7.49084 18.7067 7.61516 19.1136V26.4339H3V60H11.0226V52.0469H48.977V60H57V26.4339H45.5632ZM34.2472 17.4382H38.6319V23.2945H34.2472V17.4382ZM28.2741 24.2521H44.6045V46.5245H28.2741V24.2521ZM23.8164 0.957673C25.7277 0.957673 27.2824 2.51069 27.2824 4.41918C27.2824 6.32792 25.7277 7.88094 23.8164 7.88094C21.905 7.88094 20.3498 6.32792 20.3498 4.41918C20.3497 2.51069 21.9049 0.957673 23.8164 0.957673ZM19.5166 5.44886C19.9107 7.08759 21.2176 8.37355 22.8709 8.73478L16.1218 16.7C15.6203 14.809 13.8973 13.4085 11.8485 13.4085C11.7373 13.4085 11.6286 13.4172 11.5192 13.4251L19.5166 5.44886ZM11.8485 14.3666C13.7596 14.3666 15.3145 15.9196 15.3145 17.8281C15.3145 19.7368 13.7595 21.2898 11.8485 21.2898C9.93716 21.2898 8.38171 19.7368 8.38171 17.8281C8.38171 15.9196 9.93704 14.3666 11.8485 14.3666ZM14.386 21.4431V26.4338H8.57403V20.7909C9.38452 21.683 10.5502 22.2475 11.8485 22.2475C12.7925 22.2476 13.6667 21.9484 14.386 21.4431ZM56.0409 59.0422H49.9358V51.0889H10.0632V59.0422H3.95924V27.3918H27.315V47.482H45.5632V27.3918H56.0409V59.0422Z" fill="black"/>
<path d="M31.3282 37.9276H41.5513V27.719H31.3282V37.9276ZM32.2872 28.6769H40.592V36.9698H32.2872V28.6769ZM7.42285 35.8672H24.2961V30.88H7.42285V35.8672ZM8.38184 31.8379H23.3374V34.9096H8.38184V31.8379ZM7.42285 42.6093H8.38184V39.2651H23.8165V38.3072H7.42285V42.6093ZM11.8486 42.1303H23.8165V43.0879H11.8486V42.1303Z" fill="black"/>
</g>
<defs>
<clipPath id="clip0_12_2251">
<rect width="54" height="60" fill="white" transform="translate(3)"/>
</clipPath>
</defs>
</svg>
