<svg width="60" height="60" viewBox="0 0 60 60" fill="none" xmlns="http://www.w3.org/2000/svg">
<g clip-path="url(#clip0_12_2250)">
<g clip-path="url(#clip1_12_2250)">
<path d="M48.4989 60.0004C44.4255 60.0004 40.6145 57.7964 38.5531 54.2486L38.4091 54.0008H4.50172C2.01943 54.0008 0 51.9814 0 49.4991V9.50147C0 7.0193 2.01943 4.99974 4.50172 4.99974H6.99946V2.50189C6.99946 1.12237 8.12183 0 9.50135 0C10.8809 0 12.0031 1.12237 12.0031 2.50189V4.99974H17.9987V2.50189C17.9987 1.12237 19.1211 0 20.5006 0C21.8801 0 23.0025 1.12237 23.0025 2.50189V4.99974H29.9979V2.50189C29.9979 1.12237 31.1203 0 32.4998 0C33.8793 0 35.0017 1.12237 35.0017 2.50189V4.99974H40.9973V2.50189C40.9973 1.12237 42.1196 0 43.4991 0C44.8786 0 46.001 1.12237 46.001 2.50189V4.99974H48.4987C50.981 4.99974 53.0004 7.01917 53.0004 9.50147V37.9235L53.2899 38.0569C57.3662 39.9359 60 44.0347 60 48.4991C60.0002 54.8408 54.8408 60.0004 48.4989 60.0004ZM48.4989 38.0017C42.7106 38.0017 38.0016 42.7108 38.0016 48.4989C38.0016 54.2871 42.7106 58.9963 48.4989 58.9963C54.2872 58.9963 58.9963 54.2873 58.9963 48.4989C58.9963 42.7106 54.2871 38.0017 48.4989 38.0017ZM1.00396 49.499C1.00396 51.4277 2.57302 52.9968 4.50172 52.9968H37.9048L37.6689 52.3322C37.2235 51.0779 36.9976 49.7882 36.9976 48.4991C36.9976 44.6434 38.9256 41.0604 42.1549 38.9145L43.5283 38.0018H39.4995C39.2228 38.0018 38.9975 37.7767 38.9975 37.4998V31.5001C38.9975 31.2233 39.2228 30.9981 39.4995 30.9981H45.499C45.7758 30.9981 46.0011 31.2233 46.0011 31.5001V37.2687L46.582 37.1708C47.2722 37.0543 47.8993 36.9976 48.4989 36.9976C49.4668 37.0014 50.4339 37.1288 51.3717 37.3761L51.9967 37.5409V16.003H1.00396V49.499ZM40.0016 36.9977H44.9971V32.0022H40.0016V36.9977ZM4.50172 6.00382C2.57302 6.00382 1.00396 7.57289 1.00396 9.50159V14.9992H51.9967V9.50147C51.9967 7.57289 50.4275 6.0037 48.4989 6.0037H46.0012V8.50142C46.0012 9.88094 44.8788 11.0033 43.4993 11.0033C42.1198 11.0033 40.9976 9.88094 40.9976 8.50142V6.00382H35.0019V8.50155C35.0019 9.88106 33.8796 11.0034 32.5 11.0034C31.1205 11.0034 29.9982 9.88106 29.9982 8.50155V6.00382H23.0027V8.50155C23.0027 9.88106 21.8804 11.0034 20.5009 11.0034C19.1213 11.0034 17.999 9.88106 17.999 8.50155V6.00382H12.0032V8.50155C12.0032 9.88106 10.881 11.0034 9.50146 11.0034C8.12195 11.0034 6.99958 9.88106 6.99958 8.50155V6.00382H4.50172ZM43.4992 1.00409C42.6733 1.00409 42.0014 1.67609 42.0014 2.50189V8.50155C42.0014 9.32747 42.6733 9.99935 43.4992 9.99935C44.3251 9.99935 44.9971 9.32735 44.9971 8.50155V2.50189C44.9971 1.67597 44.3251 1.00409 43.4992 1.00409ZM32.4999 1.00409C31.674 1.00409 31.002 1.67609 31.002 2.50189V8.50155C31.002 9.32747 31.674 9.99935 32.4999 9.99935C33.3258 9.99935 33.9979 9.32735 33.9979 8.50155V2.50189C33.9979 1.67597 33.3258 1.00409 32.4999 1.00409ZM20.5007 1.00409C19.6748 1.00409 19.0029 1.67609 19.0029 2.50189V8.50155C19.0029 9.32747 19.6748 9.99935 20.5007 9.99935C21.3267 9.99935 21.9987 9.32735 21.9987 8.50155V2.50189C21.9987 1.67597 21.3267 1.00409 20.5007 1.00409ZM9.50146 1.00409C8.67554 1.00409 8.00354 1.67609 8.00354 2.50189V8.50155C8.00354 9.32747 8.67554 9.99935 9.50146 9.99935C10.3274 9.99935 10.9993 9.32735 10.9993 8.50155V2.50189C10.9993 1.67597 10.3274 1.00409 9.50146 1.00409Z" fill="black"/>
<path d="M43.5742 51.7957L47.065 49.0041L47.0212 48.7194C47.0082 48.6347 46.997 48.5618 46.997 48.4991C46.997 47.9645 47.2783 47.4813 47.7498 47.2064L47.9969 47.0623V40.9976H49.0008V47.0623L49.248 47.2064C49.7193 47.4813 50.0006 47.9645 50.0006 48.4991C50.0006 49.3273 49.3269 50.0011 48.4987 50.0011C48.3188 50.0011 48.1366 49.9656 47.9571 49.8953L47.6893 49.7905L44.2015 52.58L43.5742 51.7957ZM28.5002 49.0011C28.2235 49.0011 27.9982 48.7759 27.9982 48.499V42.4994C27.9982 42.2225 28.2235 41.9973 28.5002 41.9973H34.4998C34.7765 41.9973 35.0018 42.2225 35.0018 42.4994V48.499C35.0018 48.7759 34.7765 49.0011 34.4998 49.0011H28.5002ZM29.0021 47.9971H33.9978V43.0014H29.0021V47.9971ZM17.5008 49.0011C17.224 49.0011 16.9989 48.7759 16.9989 48.499V42.4994C16.9989 42.2225 17.2241 41.9973 17.5008 41.9973H23.5005C23.7772 41.9973 24.0024 42.2225 24.0024 42.4994V48.499C24.0024 48.7759 23.7772 49.0011 23.5005 49.0011H17.5008ZM18.0029 47.9971H22.9984V43.0014H18.0029V47.9971ZM6.50155 49.0011C6.22469 49.0011 5.99951 48.7759 5.99951 48.499V42.4994C5.99951 42.2225 6.22482 41.9973 6.50155 41.9973H12.5011C12.7778 41.9973 13.0031 42.2225 13.0031 42.4994V48.499C13.0031 48.7759 12.7778 49.0011 12.5011 49.0011H6.50155ZM7.00359 47.9971H11.9992V43.0014H7.00359V47.9971ZM28.5002 38.0018C28.2235 38.0018 27.9982 37.7766 27.9982 37.4998V31.5001C27.9982 31.2232 28.2235 30.9981 28.5002 30.9981H34.4998C34.7765 30.9981 35.0018 31.2232 35.0018 31.5001V37.4998C35.0018 37.7766 34.7765 38.0018 34.4998 38.0018H28.5002ZM29.0021 36.9978H33.9978V32.0023H29.0021V36.9978ZM17.5008 38.0018C17.224 38.0018 16.9989 37.7766 16.9989 37.4998V31.5001C16.9989 31.2232 17.2241 30.9981 17.5008 30.9981H23.5005C23.7772 30.9981 24.0024 31.2232 24.0024 31.5001V37.4998C24.0024 37.7766 23.7772 38.0018 23.5005 38.0018H17.5008ZM18.0029 36.9978H22.9984V32.0023H18.0029V36.9978ZM6.50155 38.0018C6.22469 38.0018 5.99951 37.7766 5.99951 37.4998V31.5001C5.99951 31.2232 6.22482 30.9981 6.50155 30.9981H12.5011C12.7778 30.9981 13.0031 31.2232 13.0031 31.5001V37.4998C13.0031 37.7766 12.7778 38.0018 12.5011 38.0018H6.50155ZM7.00359 36.9978H11.9992V32.0023H7.00359V36.9978ZM39.4995 27.0025C39.2228 27.0025 38.9974 26.7773 38.9974 26.5005V20.5008C38.9974 20.224 39.2228 19.9988 39.4995 19.9988H45.499C45.7758 19.9988 46.0011 20.224 46.0011 20.5008V26.5005C46.0011 26.7773 45.7758 27.0025 45.499 27.0025H39.4995ZM40.0015 25.9986H44.9971V21.003H40.0015V25.9986ZM28.5002 27.0025C28.2235 27.0025 27.9982 26.7773 27.9982 26.5005V20.5008C27.9982 20.224 28.2235 19.9988 28.5002 19.9988H34.4998C34.7765 19.9988 35.0018 20.224 35.0018 20.5008V26.5005C35.0018 26.7773 34.7765 27.0025 34.4998 27.0025H28.5002ZM29.0021 25.9986H33.9978V21.003H29.0021V25.9986ZM17.5008 27.0025C17.224 27.0025 16.9989 26.7773 16.9989 26.5005V20.5008C16.9989 20.224 17.2241 19.9988 17.5008 19.9988H23.5005C23.7772 19.9988 24.0024 20.224 24.0024 20.5008V26.5005C24.0024 26.7773 23.7772 27.0025 23.5005 27.0025H17.5008ZM18.0029 25.9986H22.9984V21.003H18.0029V25.9986ZM6.50155 27.0025C6.22469 27.0025 5.99951 26.7773 5.99951 26.5005V20.5008C5.99951 20.224 6.22482 19.9988 6.50155 19.9988H12.5011C12.7778 19.9988 13.0031 20.224 13.0031 20.5008V26.5005C13.0031 26.7773 12.7778 27.0025 12.5011 27.0025H6.50155ZM7.00359 25.9986H11.9992V21.003H7.00359V25.9986Z" fill="black"/>
</g>
</g>
<defs>
<clipPath id="clip0_12_2250">
<rect width="60" height="60" fill="white"/>
</clipPath>
<clipPath id="clip1_12_2250">
<rect width="60" height="60.0004" fill="white"/>
</clipPath>
</defs>
</svg>
