<svg width="21" height="21" viewBox="0 0 21 21" fill="none" xmlns="http://www.w3.org/2000/svg">
<path fill-rule="evenodd" clip-rule="evenodd" d="M1.31231 10.4999C1.31231 10.6739 1.38145 10.8408 1.50452 10.9639C1.62759 11.087 1.79451 11.1561 1.96856 11.1561L17.4469 11.1561L13.3164 15.2852C13.1932 15.4085 13.124 15.5756 13.124 15.7499C13.124 15.9241 13.1932 16.0913 13.3164 16.2145C13.4397 16.3377 13.6068 16.4069 13.7811 16.4069C13.9553 16.4069 14.1225 16.3377 14.2457 16.2145L19.4957 10.9645C19.5568 10.9035 19.6053 10.8311 19.6384 10.7514C19.6714 10.6716 19.6885 10.5862 19.6885 10.4999C19.6885 10.4135 19.6714 10.3281 19.6384 10.2483C19.6053 10.1686 19.5568 10.0962 19.4957 10.0352L14.2457 4.78523C14.1847 4.72421 14.1122 4.67581 14.0325 4.64279C13.9528 4.60977 13.8673 4.59277 13.7811 4.59277C13.6068 4.59277 13.4397 4.662 13.3164 4.78523C13.1932 4.90845 13.124 5.07558 13.124 5.24985C13.124 5.42412 13.1932 5.59125 13.3164 5.71448L17.4469 9.8436L1.96856 9.8436C1.79451 9.8436 1.62759 9.91274 1.50452 10.0358C1.38145 10.1589 1.31231 10.3258 1.31231 10.4999Z" fill="black"/>
</svg>
