<svg width="38" height="38" viewBox="0 0 38 38" fill="none" xmlns="http://www.w3.org/2000/svg">
<g clip-path="url(#clip0_191_43)">
<path d="M18.9997 -4.05153e-07C18.3705 -4.32656e-07 17.8557 0.514801 17.8653 1.13447L17.8653 34.0818L11.7067 27.9232C11.2586 27.4752 10.5341 27.4752 10.086 27.9232C9.63798 28.3713 9.63798 29.0958 10.086 29.5439L18.1989 37.6568C18.4182 37.8761 18.7042 38 19.0093 38C19.3143 38 19.6099 37.8761 19.8196 37.6568L27.9325 29.5439C28.3806 29.0958 28.3806 28.3713 27.9325 27.9232C27.4844 27.4752 26.7599 27.4752 26.3118 27.9232L20.1533 34.0818L20.1533 1.13447C20.1437 0.505268 19.6289 -3.77649e-07 18.9997 -4.05153e-07Z" fill="#0C0C0D"/>
</g>
<defs>
<clipPath id="clip0_191_43">
<rect width="38" height="38" fill="white" transform="translate(38) rotate(90)"/>
</clipPath>
</defs>
</svg>
