<svg width="26" height="26" viewBox="0 0 26 26" fill="none" xmlns="http://www.w3.org/2000/svg">
<path fill-rule="evenodd" clip-rule="evenodd" d="M9.46447 2.46447C8.52678 3.40215 8 4.67392 8 6L5 6H3V8V21C3 22.6569 4.34315 24 6 24H20C21.6569 24 23 22.6569 23 21V8V6H21L9.99733 6C9.99733 5.20364 10.3137 4.4399 10.8768 3.87679C11.4399 3.31368 12.2036 2.99733 13 2.99733C13.7964 2.99733 14.5601 3.31368 15.1232 3.87679C15.6863 4.4399 16.0027 5.20364 16.0027 6L18 6C18 4.67392 17.4732 3.40215 16.5355 2.46447C15.5979 1.52678 14.3261 1 13 1C11.6739 1 10.4021 1.52678 9.46447 2.46447ZM5 21V8H21V21C21 21.5523 20.5523 22 20 22H6C5.44772 22 5 21.5523 5 21Z" fill="#0C0C0D"/>
</svg>
