<svg width="26" height="26" viewBox="0 0 26 26" fill="none" xmlns="http://www.w3.org/2000/svg">
<path fill-rule="evenodd" clip-rule="evenodd" d="M18 7.5C18 9.98528 15.9853 12 13.5 12C11.0147 12 9 9.98528 9 7.5C9 5.01472 11.0147 3 13.5 3C15.9853 3 18 5.01472 18 7.5ZM16.3294 13.3535C18.5019 12.3015 20 10.0757 20 7.5C20 3.91015 17.0899 1 13.5 1C9.91015 1 7 3.91015 7 7.5C7 10.0757 8.49813 12.3015 10.6706 13.3535C10.1361 13.4892 9.61088 13.6634 9.09914 13.8754C7.7039 14.4533 6.43615 15.3004 5.36827 16.3683C4.3004 17.4361 3.45331 18.7039 2.87539 20.0991C2.29746 21.4944 2 22.9898 2 24.5L3.85613 24.5C3.85613 23.2335 4.10558 21.9795 4.59023 20.8095C5.07488 19.6394 5.78524 18.5763 6.68075 17.6808C7.57627 16.7852 8.6394 16.0749 9.80945 15.5902C10.9795 15.1056 12.2335 14.8561 13.5 14.8561C14.7665 14.8561 16.0205 15.1056 17.1905 15.5902C18.3606 16.0749 19.4237 16.7852 20.3192 17.6808C21.2148 18.5763 21.9251 19.6394 22.4098 20.8095C22.8944 21.9795 23.1439 23.2335 23.1439 24.5H25C25 22.9898 24.7025 21.4944 24.1246 20.0991C23.5467 18.7039 22.6996 17.4361 21.6317 16.3683C20.5639 15.3004 19.2961 14.4533 17.9009 13.8754C17.3891 13.6634 16.8639 13.4892 16.3294 13.3535Z" fill="#0C0C0D"/>
</svg>
