<svg width="26" height="26" viewBox="0 0 26 26" fill="none" xmlns="http://www.w3.org/2000/svg">
<path fill-rule="evenodd" clip-rule="evenodd" d="M20.4726 16.4592C17.3066 19.5411 12.2418 19.473 9.15989 16.307C6.07799 13.1411 6.14611 8.07625 9.31204 4.99435C12.478 1.91246 17.5428 1.98058 20.6247 5.1465C23.7066 8.31243 23.6385 13.3773 20.4726 16.4592ZM9.18036 17.6829C12.6757 20.5603 17.8507 20.4071 21.1701 17.1757C24.7318 13.7086 24.8084 8.01064 21.3413 4.44897C17.8741 0.887302 12.1762 0.810667 8.61451 4.2778C5.295 7.5092 5.00273 12.6784 7.78526 16.2498L1.29712 22.5658C0.901381 22.951 0.892867 23.5841 1.2781 23.9798C1.66334 24.3756 2.29645 24.3841 2.69219 23.9989L9.18036 17.6829Z" fill="#0C0C0D"/>
</svg>
