<svg width="220" height="184" viewBox="0 0 220 184" fill="none" xmlns="http://www.w3.org/2000/svg">
<path d="M133.661 58.314C135.287 52.7129 137.185 47.3592 139.056 42.0794C142.153 33.342 145.178 24.8067 146.781 15.6861C147.112 13.7951 146.293 10.3942 145.591 8.16733C144.237 3.87785 135.735 -0.18766 134.065 0.162722M133.661 58.314L66.23 66.934C74.1131 64.1309 81.5814 61.9672 93.9921 59.7006C99.5224 52.1181 106.436 41.5827 113.083 31.4533C116.654 26.0108 120.148 20.6855 123.31 15.9985C124.981 13.5118 126.612 11.1228 128.328 8.60918C130.103 6.00916 131.969 3.27574 134.065 0.162722M133.661 58.314C133.595 58.3084 133.528 58.3029 133.461 58.2975L133.38 59.2942L134.343 59.5664C134.36 59.5055 134.377 59.4446 134.395 59.3838C176.709 63.4297 177.496 102.417 145.959 125.251C139.778 129.725 130.761 133.025 123.023 135.856C116.68 138.177 111.196 140.183 108.839 142.264C104.846 145.79 102.573 159.586 100.502 172.148C99.8601 176.046 99.2373 179.825 98.5887 183.142L133.661 58.314ZM134.065 0.162722L134.894 0.721165C134.792 0.872439 134.691 1.02272 134.591 1.17204M134.065 0.162722L134.27 1.14143C134.269 1.14161 134.27 1.14158 134.273 1.14149C134.291 1.14091 134.388 1.13787 134.591 1.17204M144.637 8.46832C144.98 9.55375 145.348 10.9195 145.59 12.2336C145.838 13.5787 145.929 14.7535 145.796 15.5136C144.497 22.9067 142.25 29.9269 139.772 37.04C139.23 38.5956 138.676 40.157 138.12 41.7278C136.138 47.3194 134.114 53.0294 132.418 59.022L132.087 60.1925L133.3 60.2909C143.983 61.1583 151.965 64.2322 157.465 68.6281C162.953 73.015 166.022 78.7571 166.841 85.0889C168.483 97.7854 161.074 113.072 145.372 124.441C139.879 128.418 132.039 131.474 124.798 134.14C124.088 134.401 123.384 134.659 122.689 134.913C119.864 135.947 117.187 136.926 114.883 137.878C112.043 139.051 109.625 140.236 108.177 141.515C106.654 142.86 105.464 145.347 104.468 148.312C103.455 151.328 102.584 155.029 101.798 158.988C101.011 162.952 100.304 167.207 99.6234 171.333L99.5167 171.98C98.9254 175.568 98.3533 179.039 97.7634 182.14L81.0278 182.115C82.1447 176.724 83.4863 171.863 84.8095 167.068C85.0622 166.152 85.3143 165.239 85.5641 164.325C87.214 158.284 88.7546 152.229 89.6537 145.317L89.8021 144.176L88.6516 144.188C84.6544 144.23 80.2972 144.17 76.1247 144.112C73.761 144.079 71.4567 144.048 69.3105 144.036C66.3574 144.019 63.7035 144.04 61.6408 144.151C60.6106 144.206 59.7075 144.285 58.9785 144.397C58.2931 144.503 57.6195 144.656 57.156 144.934L57.0703 144.985L56.9965 145.052C53.5639 148.179 50.4924 152.044 47.5243 156.047C46.6046 157.288 45.6969 158.539 44.7909 159.787C42.7525 162.596 40.7226 165.393 38.5839 168.035C32.4199 175.65 25.6223 181.621 16.0431 182.098C11.0009 182.082 7.48018 179.541 5.0871 175.499C2.66092 171.401 1.42243 165.785 1.09195 159.837C0.762368 153.905 1.34118 147.741 2.46926 142.617C3.03317 140.055 3.7302 137.772 4.50908 135.919C5.29567 134.048 6.13458 132.69 6.94461 131.906L6.98117 131.871L7.01396 131.832C8.29235 130.315 12.3478 126.921 19.376 128.486C22.1848 129.112 25.1831 130.38 28.3729 131.728C29.5282 132.217 30.7086 132.716 31.9143 133.199C36.3511 134.977 41.0773 136.506 45.655 136.007L46.0645 135.962L46.3238 135.642C47.7327 133.903 48.0129 133.465 49.2419 131.545C49.5655 131.04 49.9548 130.432 50.4479 129.67L50.4494 129.668L50.6298 129.387C52.6529 126.243 53.9048 124.297 59.1272 115.951L60.0387 114.494L58.3219 114.421C53.5715 114.22 50.3569 114.172 46.622 115.043C43.1835 115.845 39.3459 117.416 33.4414 120.272C33.4438 118.022 33.4529 116.733 33.4626 115.365C33.4709 114.192 33.4796 112.962 33.4848 111.019C40.9395 108.215 46.2948 107.356 51.066 106.927C52.3787 106.809 53.6632 106.723 54.9454 106.637C58.4314 106.404 61.9007 106.172 65.8736 105.297L66.2971 105.203L66.5185 104.831C67.0739 103.895 82.6551 79.7211 88.9908 70.5775L90.3977 68.5471L87.9746 69.027C87.5864 69.1039 87.0942 69.1806 86.4972 69.2736C84.098 69.6474 80.0053 70.2851 74.159 72.2603C66.9902 74.6823 57.157 79.1156 44.2911 87.5574C43.9382 87.1017 43.4439 86.4505 42.88 85.6705C41.898 84.3123 40.7166 82.5798 39.7047 80.8194C43.8511 78.2239 56.0899 71.6031 66.5652 67.8761C74.3971 65.0913 81.8133 62.9414 94.1717 60.6843L94.5646 60.6125L94.8 60.2899C100.344 52.6893 107.285 42.111 113.942 31.9663C117.509 26.5308 120.994 21.2197 124.139 16.5578L124.14 16.5563C125.828 14.044 127.447 11.6724 129.152 9.17526C130.832 6.71443 132.596 4.13164 134.591 1.17204M144.637 8.46832L145.581 8.17064L144.637 8.46814C144.637 8.4682 144.637 8.46826 144.637 8.46832ZM144.637 8.46832C144.37 7.62136 143.716 6.70103 142.759 5.77701C141.814 4.86407 140.637 4.00872 139.43 3.28157C138.225 2.55509 137.017 1.97312 136.026 1.59758C135.529 1.40943 135.104 1.27963 134.771 1.20724C134.704 1.19248 134.643 1.18099 134.591 1.17204M129.419 68.769L128.624 68.6901L128.372 69.4487C126.525 75.0035 124.676 80.8321 122.83 86.6535L122.818 86.6912C120.967 92.5278 119.118 98.3565 117.271 103.909L116.85 105.174L118.183 105.224C123.882 105.435 127.656 105.484 131.384 104.626C134.777 103.846 138.077 102.329 142.751 99.6279C142.793 101.713 142.835 103.798 142.878 105.883C136.603 110.637 132.253 111.294 124.252 112.502C122.108 112.825 119.703 113.189 116.928 113.681L116.864 113.692L116.802 113.712C115.315 114.181 114.177 115.347 113.323 116.688C112.461 118.042 111.819 119.682 111.365 121.294C110.909 122.912 110.629 124.546 110.514 125.914C110.457 126.598 110.439 127.23 110.463 127.769C110.487 128.283 110.553 128.8 110.711 129.203L111.065 130.108L111.98 129.779L131.026 122.923C135.171 121.431 139.807 118.423 144.025 114.58C148.248 110.731 152.108 105.991 154.666 100.981C157.22 95.9787 158.517 90.6185 157.462 85.5841C156.398 80.5063 152.978 75.9387 146.466 72.4959C141.708 69.9793 135.53 69.3709 130.139 68.8401C129.898 68.8163 129.658 68.7927 129.419 68.769ZM75.1749 114.446L74.6052 114.45L74.3188 114.943C71.6944 119.454 66.6511 127.624 62.42 134.429L61.4799 135.941L63.2602 135.957C67.9824 135.999 73.2383 135.992 78.2992 135.984L78.4572 135.983C83.4646 135.976 88.2715 135.968 92.1855 136.009L92.9111 136.017L93.1433 135.329C93.996 132.806 94.919 130.094 95.7975 127.514C96.3684 125.836 96.9205 124.215 97.4223 122.735C98.0587 120.859 98.6143 119.213 99.0231 117.978C99.419 116.783 99.7047 115.895 99.7679 115.604L100.03 114.4L98.7977 114.391C91.7659 114.343 83.0343 114.381 75.1749 114.446ZM81.6746 103.666L80.8627 105.12L82.5275 105.154C85.9467 105.223 89.3674 105.197 92.7291 105.17L93.0125 105.167C96.2814 105.141 99.4916 105.114 102.614 105.172L103.317 105.185L103.567 104.528C104.643 101.699 105.838 98.5725 107.078 95.3262C110.555 86.2262 114.392 76.1845 116.99 69.1213L117.46 67.8421L116.099 67.7773C114.093 67.6818 111.203 67.6021 108.749 67.6336C107.525 67.6493 106.387 67.6928 105.515 67.7796C105.083 67.8226 104.684 67.8791 104.361 67.9577C104.201 67.9966 104.028 68.0484 103.867 68.1222C103.733 68.1833 103.468 68.3201 103.283 68.6C96.6498 78.6236 88.833 90.8475 81.6746 103.666ZM135.378 20.7618L133.625 19.8454C126.736 29.2557 114.545 48.1216 109.507 58.6868L108.822 60.1232L110.414 60.1172C111.062 60.1147 111.951 60.1124 112.931 60.1098C115.537 60.103 118.788 60.0945 119.886 60.0774L120.576 60.0666L120.811 59.4179C122.487 54.7877 124.543 49.4969 126.688 43.9725C129.667 36.305 132.82 28.1876 135.378 20.7618ZM19.5339 162.449L19.8266 163.301L20.7043 163.099C30.1787 160.915 36.4122 151.424 38.4888 142.726L38.7244 141.739L37.7343 141.518C33.628 140.6 30.0275 140.192 27.0328 140.424C24.0373 140.655 21.5529 141.535 19.8116 143.284C18.0602 145.044 17.2017 147.542 17.1698 150.708C17.1379 153.862 17.922 157.757 19.5339 162.449Z" stroke="#6150E9" stroke-width="2"/>
<path d="M143.168 182.085L133.177 182.121L140.389 151.831L140.682 150.598L139.415 150.6L114.289 150.629L115.963 143.656H175.503L173.81 150.566L151.014 150.63L150.216 150.633L150.041 151.412L143.168 182.085Z" stroke="#6150E9" stroke-width="2"/>
<path d="M187.19 182.093H178.647L182.355 167.166L182.664 165.924L181.384 165.925L157.581 165.94L159.095 159.743H218.333L216.857 165.921L191.875 165.939L191.088 165.94L190.904 166.704L187.19 182.093Z" stroke="#6150E9" stroke-width="2"/>
</svg>
