<svg width="18" height="18" viewBox="0 0 18 18" fill="none" xmlns="http://www.w3.org/2000/svg">
<g id="location-arrow">
<path id="Icon" d="M4.02185 9.03917C3.00749 8.67824 2.50031 8.49777 2.3492 8.22404C2.21826 7.98683 2.21213 7.70044 2.33282 7.45785C2.47209 7.17791 2.9711 6.97593 3.9691 6.57198L13.3761 2.76439C14.359 2.36654 14.8505 2.16762 15.1609 2.26961C15.4304 2.35814 15.6418 2.5695 15.7303 2.83899C15.8323 3.14946 15.6334 3.64092 15.2355 4.62385L11.4279 14.0308C11.024 15.0288 10.822 15.5278 10.5421 15.6671C10.2995 15.7878 10.0131 15.7817 9.77589 15.6507C9.50215 15.4996 9.32169 14.9924 8.96076 13.9781L7.85573 10.8725C7.78551 10.6751 7.7504 10.5765 7.69305 10.4941C7.64225 10.4211 7.57886 10.3577 7.50586 10.3069C7.42346 10.2495 7.32479 10.2144 7.12744 10.1442L4.02185 9.03917Z" stroke="white" stroke-linecap="round" stroke-linejoin="round"/>
</g>
</svg>
