<svg width="18" height="18" viewBox="0 0 18 18" fill="none" xmlns="http://www.w3.org/2000/svg">
<g id="mail-open">
<path id="Icon" d="M2.27124 7.50021L7.66845 11.1126C8.14958 11.4334 8.39015 11.5938 8.65017 11.6561C8.87996 11.7112 9.1195 11.7112 9.34928 11.6561C9.6093 11.5938 9.84987 11.4334 10.331 11.1126L15.7282 7.50021M7.7236 3.05181L3.3736 5.78367C2.96341 6.04127 2.75831 6.17008 2.60955 6.34419C2.47789 6.4983 2.37882 6.6775 2.31834 6.87096C2.25 7.08954 2.25 7.33173 2.25 7.81611V12.6002C2.25 13.4403 2.25 13.8603 2.41349 14.1812C2.5573 14.4634 2.78677 14.6929 3.06901 14.8367C3.38988 15.0002 3.80992 15.0002 4.65 15.0002H13.35C14.1901 15.0002 14.6101 15.0002 14.931 14.8367C15.2132 14.6929 15.4427 14.4634 15.5865 14.1812C15.75 13.8603 15.75 13.4403 15.75 12.6002V7.8161C15.75 7.33173 15.75 7.08954 15.6817 6.87096C15.6212 6.6775 15.5221 6.4983 15.3904 6.34419C15.2417 6.17008 15.0366 6.04127 14.6264 5.78367L10.2764 3.05181C9.81347 2.76109 9.58201 2.61573 9.33364 2.55906C9.11404 2.50896 8.88596 2.50896 8.66636 2.55906C8.41799 2.61573 8.18653 2.76109 7.7236 3.05181Z" stroke="white" stroke-linecap="round" stroke-linejoin="round"/>
</g>
</svg>
