<svg width="18" height="18" viewBox="0 0 18 18" fill="none" xmlns="http://www.w3.org/2000/svg">
<g id="phone-alt">
<path id="Icon" d="M3.83721 9.54522L6.11616 6.81512C6.34716 6.51812 6.46266 6.36962 6.52319 6.20308C6.57674 6.05571 6.5989 5.89877 6.58824 5.74233C6.57619 5.56554 6.50633 5.39086 6.36659 5.04152L5.83357 3.70897C5.62677 3.19198 5.52337 2.93349 5.34501 2.76406C5.18783 2.61476 4.99087 2.51405 4.77781 2.47404C4.53602 2.42864 4.26593 2.49617 3.72574 2.63121L2.25024 3.00014C2.25024 10.5001 7.50002 15.7501 15.0002 15.7501L15.369 14.2744C15.504 13.7342 15.5715 13.4642 15.5261 13.2224C15.4861 13.0093 15.3854 12.8123 15.2361 12.6552C15.0667 12.4768 14.8082 12.3734 14.2912 12.1666L13.1021 11.6909C12.7035 11.5315 12.5042 11.4518 12.3056 11.4457C12.13 11.4403 11.9555 11.4761 11.7963 11.5503C11.616 11.6341 11.4643 11.7859 11.1608 12.0894L8.846 14.3678" stroke="white" stroke-linecap="round" stroke-linejoin="round"/>
</g>
</svg>
