<svg width="64" height="64" viewBox="0 0 64 64" fill="none" xmlns="http://www.w3.org/2000/svg">
<path fill-rule="evenodd" clip-rule="evenodd" d="M10.281 37L13.466 49.739C13.599 50.275 13.273 50.818 12.738 50.952C12.203 51.086 11.659 50.76 11.525 50.224L8.03001 36.243C7.95501 35.944 8.02201 35.627 8.21201 35.385C8.40101 35.142 8.69201 35 9.00001 35H26C26.552 35 27 35.448 27 36V38H55C55.317 38 55.616 38.151 55.804 38.406C55.993 38.661 56.049 38.991 55.956 39.294L52.707 49.851C52.545 50.379 51.985 50.675 51.458 50.513C50.93 50.351 50.634 49.791 50.796 49.263L53.646 40H26C25.448 40 25 39.552 25 39V37H10.281V37Z" fill="#0FAFEB"/>
<path fill-rule="evenodd" clip-rule="evenodd" d="M27 16C27 15.204 26.684 14.441 26.121 13.879C25.559 13.316 24.796 13 24 13C22.257 13 19.743 13 18 13C17.204 13 16.441 13.316 15.879 13.879C15.316 14.441 15 15.204 15 16C15 21.423 15 36 15 36C15 36.552 15.448 37 16 37H26C26.552 37 27 36.552 27 36V16ZM25 35V16C25 15.735 24.895 15.48 24.707 15.293C24.52 15.105 24.265 15 24 15C22.257 15 19.743 15 18 15C17.735 15 17.48 15.105 17.293 15.293C17.105 15.48 17 15.735 17 16V35H25Z" fill="#0FAFEB"/>
<path fill-rule="evenodd" clip-rule="evenodd" d="M17 24C17 23.448 16.552 23 16 23H11C9.343 23 8 24.343 8 26C8 29.414 8 36 8 36C8 36.552 8.448 37 9 37H16C16.552 37 17 36.552 17 36V24ZM15 25H11C10.448 25 10 25.448 10 26V35H15V25Z" fill="#0FAFEB"/>
<path fill-rule="evenodd" clip-rule="evenodd" d="M54 27C54 25.343 52.657 24 51 24C44.75 24 26 24 26 24C25.448 24 25 24.448 25 25V39C25 39.552 25.448 40 26 40H53C53.552 40 54 39.552 54 39V27ZM27 26V38H52V27C52 26.448 51.552 26 51 26H27Z" fill="#0FAFEB"/>
<path fill-rule="evenodd" clip-rule="evenodd" d="M26 33H53C53.552 33 54 32.552 54 32C54 31.448 53.552 31 53 31H26C25.448 31 25 31.448 25 32C25 32.552 25.448 33 26 33Z" fill="#0FAFEB"/>
<path fill-rule="evenodd" clip-rule="evenodd" d="M32 25V32C32 32.552 32.448 33 33 33C33.552 33 34 32.552 34 32V25C34 24.448 33.552 24 33 24C32.448 24 32 24.448 32 25Z" fill="#0FAFEB"/>
<path fill-rule="evenodd" clip-rule="evenodd" d="M38 32V39C38 39.552 38.448 40 39 40C39.552 40 40 39.552 40 39V32C40 31.448 39.552 31 39 31C38.448 31 38 31.448 38 32Z" fill="#0FAFEB"/>
<path fill-rule="evenodd" clip-rule="evenodd" d="M44 25V32C44 32.552 44.448 33 45 33C45.552 33 46 32.552 46 32V25C46 24.448 45.552 24 45 24C44.448 24 44 24.448 44 25Z" fill="#0FAFEB"/>
<path fill-rule="evenodd" clip-rule="evenodd" d="M26 18H22C21.448 18 21 18.448 21 19C21 19.552 21.448 20 22 20H26C26.552 20 27 19.552 27 19C27 18.448 26.552 18 26 18Z" fill="#0FAFEB"/>
<path fill-rule="evenodd" clip-rule="evenodd" d="M45 13.8431L26.545 25.8381C26.082 26.1391 25.462 26.0081 25.162 25.5451C24.861 25.0821 24.992 24.4621 25.455 24.1621L45.455 11.1621C45.762 10.9621 46.155 10.9461 46.477 11.1211C46.799 11.2961 47 11.6331 47 12.0001V17.0001C47 17.5521 46.552 18.0001 46 18.0001C45.448 18.0001 45 17.5521 45 17.0001V13.8431Z" fill="#0FAFEB"/>
<path fill-rule="evenodd" clip-rule="evenodd" d="M12.068 51.074C11.953 51.246 11.826 51.419 11.688 51.584C11.023 52.383 10.109 53 9 53C8.448 53 8 52.552 8 52C8 51.448 8.448 51 9 51C9.491 51 9.857 50.658 10.152 50.304C10.752 49.584 11.051 48.684 11.051 48.684C11.187 48.275 11.57 48 12 48C12.43 48 12.813 48.275 12.949 48.684C12.949 48.684 13.701 51 16 51C18.299 51 19.051 48.684 19.051 48.684C19.187 48.275 19.57 48 20 48C20.43 48 20.813 48.275 20.949 48.684C20.949 48.684 21.701 51 24 51C26.299 51 27.051 48.684 27.051 48.684C27.187 48.275 27.57 48 28 48C28.43 48 28.813 48.275 28.949 48.684C28.949 48.684 29.701 51 32 51C34.299 51 35.051 48.684 35.051 48.684C35.187 48.275 35.57 48 36 48C36.43 48 36.813 48.275 36.949 48.684C36.949 48.684 37.701 51 40 51C42.299 51 43.051 48.684 43.051 48.684C43.188 48.274 43.572 47.998 44.005 48C44.437 48.002 44.819 48.281 44.952 48.692C44.952 48.692 45.683 51 48 51C50.299 51 51.051 48.684 51.051 48.684C51.187 48.275 51.57 48 52 48C52.43 48 52.813 48.275 52.949 48.684C52.949 48.684 53.248 49.584 53.848 50.304C54.143 50.658 54.509 51 55 51C55.552 51 56 51.448 56 52C56 52.552 55.552 53 55 53C53.891 53 52.977 52.383 52.312 51.584C52.174 51.419 52.047 51.246 51.932 51.074C51.163 52.022 49.907 53 48 53C46.022 53 44.752 51.969 43.994 50.996C43.231 51.968 41.959 53 40 53C38.036 53 36.762 51.962 36 50.988C35.238 51.962 33.964 53 32 53C30.036 53 28.762 51.962 28 50.988C27.238 51.962 25.964 53 24 53C22.036 53 20.762 51.962 20 50.988C19.238 51.962 17.964 53 16 53C14.093 53 12.837 52.022 12.068 51.074V51.074Z" fill="#0FAFEB"/>
</svg>
