<svg width="64" height="64" viewBox="0 0 64 64" fill="none" xmlns="http://www.w3.org/2000/svg">
<path d="M6.98508 39.223C6.87153 39.4125 6.85209 39.6441 6.93334 39.8497L9.8191 47.174C9.92605 47.4455 10.1885 47.6244 10.4806 47.6244H53.1011C53.4261 47.6244 53.7094 47.4042 53.7899 47.0893L57.0941 34.1632C57.1521 33.9365 57.0948 33.6959 56.941 33.5198C56.7875 33.3434 56.5583 33.2539 56.3243 33.2806L55.4251 33.3838L56.1461 30.2679C56.1463 30.2672 56.1465 30.2665 56.1466 30.2658L57.0979 26.1546C57.1528 25.9181 57.083 25.6698 56.9132 25.4966C56.7434 25.3233 56.4972 25.248 56.2594 25.2983L33.6906 30.0264C33.3063 30.1066 33.0601 30.4837 33.1406 30.8681C33.2208 31.2525 33.5962 31.5014 33.9823 31.4181L36.4274 30.9059V35.5641L32.6395 35.9988L31.526 24.2521C30.5747 17.375 25.4712 16.4226 25.2542 16.3851C25.2471 16.3839 25.2405 16.3867 25.2334 16.3856C25.1587 16.375 25.0823 16.373 25.0052 16.3868L24.9755 16.3923C24.9737 16.3927 24.972 16.3929 24.9702 16.3933L13.8365 18.4428C13.8066 18.4483 13.7771 18.4556 13.7483 18.465C7.92674 20.3306 8.38681 26.0032 8.38924 26.0191L8.83859 38.7303L7.51355 38.8823C7.2941 38.9077 7.09897 39.0334 6.98508 39.223ZM51.9708 27.6497L55.4615 26.9184L54.8699 29.475L51.5983 30.0111L51.9708 27.6497ZM51.365 31.4904L54.5233 30.973L53.9257 33.5559L50.986 33.8932L51.365 31.4904ZM47.1612 28.6572L50.4818 27.9616L50.1203 30.2532L46.9622 30.7707L47.1612 28.6572ZM46.8243 32.2344L49.887 31.7326L49.5197 34.0615L46.6208 34.3942L46.8243 32.2344ZM42.2156 29.6933L45.704 28.9625L45.5112 31.0084L42.2156 31.5484V29.6933ZM42.2156 32.9895L45.3734 32.4721L45.1767 34.5599L42.2156 34.8998V32.9895V32.9895ZM37.8497 30.6079L40.7934 29.9912V31.7813L37.8497 32.2637V30.6079ZM37.8497 33.7048L40.7934 33.2225V35.063L37.8497 35.4008V33.7048ZM25.5051 17.925C26.6598 18.3217 29.468 19.7534 30.1135 24.4167L31.2263 36.161L24.4893 36.9341L23.858 24.7608C23.858 21.6987 24.9931 18.9914 25.5051 17.925ZM14.1399 19.833L23.8896 18.0382C23.4205 19.1407 22.8218 20.8597 22.565 22.8711L13.9153 24.3337C13.5278 24.399 13.267 24.766 13.3326 25.1532C13.3913 25.5004 13.692 25.7459 14.033 25.7459C14.0722 25.7459 14.1122 25.7428 14.1521 25.7358L22.4533 24.332C22.4484 24.4875 22.4368 24.6399 22.4368 24.7976L22.5518 27.0174L11.8177 28.4105C11.4285 28.4612 11.1535 28.8178 11.2042 29.2073C11.2507 29.5657 11.5566 29.8268 11.9083 29.8268C11.9389 29.8268 11.9698 29.825 12.001 29.8209L22.6256 28.442L22.7571 30.9816L17.3132 31.7014C16.9236 31.7528 16.6497 32.1101 16.7014 32.4994C16.7486 32.8573 17.0542 33.1174 17.4052 33.1174C17.4365 33.1174 17.4677 33.1153 17.4993 33.1112L22.8309 32.4062L23.0738 37.0966L10.2561 38.5676L9.80834 25.9306C9.79202 25.7438 9.46772 21.357 14.1399 19.833ZM55.4604 34.8115L52.549 46.2021H10.9646L8.59584 40.19L55.4604 34.8115Z" fill="#0FAFEB"/>
<path d="M48.3302 44.398C50.1007 44.398 51.5413 42.9577 51.5413 41.1872C51.5413 39.4167 50.1007 37.9764 48.3302 37.9764C46.5597 37.9764 45.1194 39.4167 45.1194 41.1872C45.1194 42.9577 46.5597 44.398 48.3302 44.398ZM48.3302 39.3987C49.0637 39.3987 49.694 39.8432 49.9698 40.4761H47.7375C47.3448 40.4761 47.0264 40.7945 47.0264 41.1872C47.0264 41.5799 47.3448 41.8983 47.7375 41.8983H49.9698C49.694 42.5313 49.0637 42.9757 48.3302 42.9757C47.3441 42.9757 46.5417 42.1733 46.5417 41.1872C46.5417 40.2011 47.3441 39.3987 48.3302 39.3987Z" fill="#0FAFEB"/>
</svg>
