<svg width="64" height="64" viewBox="0 0 64 64" fill="none" xmlns="http://www.w3.org/2000/svg">
<path d="M52.0675 41.8004H50.2007V19.1341L50.8324 19.3498C50.9327 19.384 51.0343 19.4004 51.1341 19.4004C51.5224 19.4004 51.8852 19.1562 52.0173 18.7683C52.1841 18.2802 51.9234 17.7497 51.4358 17.5834L50.2007 17.1616V16.5999C50.2007 16.0845 49.7828 15.6665 49.2674 15.6665C48.777 15.6665 48.3793 16.0461 48.3414 16.5268L32.3021 11.0499C32.1061 10.9834 31.8947 10.9834 31.6987 11.0499L15.6594 16.5268C15.6215 16.0461 15.2238 15.6665 14.7334 15.6665C14.218 15.6665 13.8001 16.0845 13.8001 16.5999V17.1616L12.565 17.5834C12.0774 17.7497 11.8167 18.2802 11.9835 18.7683C12.1503 19.2559 12.6807 19.5166 13.1684 19.3498L13.8001 19.1341V41.8004H11.9334C11.4179 41.8004 11 42.2183 11 42.7337V52.0672C11 52.5827 11.4179 53.0006 11.9334 53.0006H17.5335C18.0489 53.0006 18.4668 52.5827 18.4668 52.0672V50.2879L18.7412 50.1381C20.0045 49.4486 21.4246 49.1236 22.8583 49.2006C24.1221 49.264 25.3667 49.6427 26.4568 50.2963L26.8533 50.5342C27.1514 50.7133 27.5232 50.7115 27.8195 50.531L28.0054 50.4175C28.231 50.2822 28.4646 50.1628 28.7017 50.0516C29.7299 49.5699 30.8551 49.3137 32.0004 49.3137C33.4099 49.3137 34.7917 49.6956 35.9899 50.4143L36.1813 50.531C36.2576 50.5775 36.3389 50.6114 36.4225 50.634C36.4512 50.6418 36.4809 50.6409 36.51 50.6459C36.5624 50.6548 36.6143 50.6672 36.6672 50.6672C36.6704 50.6672 36.6736 50.6658 36.6768 50.6658C36.7363 50.6651 36.7945 50.6519 36.853 50.6399C36.8821 50.6339 36.9119 50.6343 36.9404 50.6255C37.0262 50.5992 37.1092 50.561 37.1862 50.5095C37.3325 50.4116 37.4819 50.3189 37.6341 50.2316C38.6991 49.6202 39.8989 49.2706 41.1347 49.2148C42.4454 49.1692 43.7843 49.4358 44.9638 50.0278L45.534 50.3117V52.0672C45.534 52.5827 45.9519 53.0006 46.4673 53.0006H52.0675C52.5829 53.0006 53.0008 52.5827 53.0008 52.0672V42.7337C53.0008 42.2183 52.5829 41.8004 52.0675 41.8004ZM16.6001 51.1339H12.8667V43.6671H16.6001V51.1339ZM26.5724 48.2495C26.5241 48.2267 26.4762 48.2033 26.4275 48.1813C26.1741 48.067 25.9164 47.9636 25.6546 47.8716C25.6069 47.8549 25.5588 47.8399 25.5108 47.8239C25.2427 47.7344 24.9718 47.6535 24.6971 47.5879C24.6908 47.5864 24.6847 47.5844 24.6784 47.5829C24.3985 47.5166 24.1154 47.4668 23.8309 47.4259C23.8015 47.4217 23.7728 47.4136 23.7433 47.4096L22.2886 35.0322L23.8216 34.6322C23.8263 34.6311 23.8312 34.6315 23.8359 34.6302L32.0004 32.4983L40.1649 34.6303C40.169 34.6313 40.1732 34.6308 40.1772 34.6319L41.7117 35.0323L40.2534 47.4192C40.2219 47.4233 40.1914 47.4317 40.16 47.436C39.8767 47.4754 39.5951 47.5234 39.3174 47.5876C39.3069 47.59 39.2966 47.5933 39.286 47.5958C39.0163 47.6591 38.7506 47.737 38.4878 47.8233C38.436 47.8402 38.3841 47.8561 38.3328 47.874C38.0741 47.9638 37.8195 48.0648 37.5692 48.1766C37.5162 48.2002 37.4641 48.2256 37.4115 48.2502C37.1601 48.368 36.9119 48.4934 36.6708 48.6332C36.665 48.6365 36.6588 48.639 36.653 48.6424C35.5052 48.0095 34.2385 47.6235 32.9338 47.4969V43.6671C32.9338 43.1516 32.5158 42.7337 32.0004 42.7337C31.485 42.7337 31.067 43.1516 31.067 43.6671V47.4969C29.76 47.6237 28.4907 48.0112 27.3378 48.6483C27.0892 48.5025 26.8326 48.3721 26.5724 48.2495ZM33.8671 19.4H30.1337V18.4666H33.8671V19.4ZM30.1337 21.2667H33.8671V24.7351L32.1039 24.5393C32.0697 24.5352 32.035 24.5334 32.0004 24.5334C31.9658 24.5334 31.9311 24.5352 31.8969 24.5393L30.1337 24.7351V21.2667ZM29.2931 26.7069C29.2967 26.7065 29.3002 26.7072 29.3038 26.7068L32.0004 26.406L34.697 26.7068C34.7037 26.7076 34.7102 26.7073 34.7169 26.7079L39.4672 27.2359V32.5168L32.236 30.6303C32.159 30.6102 32.0797 30.6002 32.0004 30.6002C31.9211 30.6002 31.8418 30.6102 31.7648 30.6303L24.5336 32.5168V27.2359L29.2931 26.7069ZM42.1394 47.3641L43.6609 34.443C43.7156 33.9799 43.4199 33.5475 42.9687 33.4303L41.3339 33.0038V26.4001C41.3339 25.9243 40.9762 25.5246 40.5036 25.4722L35.7338 24.9425V17.5332C35.7338 17.0178 35.3159 16.5999 34.8005 16.5999H29.2003C28.6849 16.5999 28.267 17.0178 28.267 17.5332V24.9425L23.4972 25.4722C23.0246 25.5246 22.6669 25.9243 22.6669 26.4001V33.0038L21.0322 33.4303C20.581 33.5475 20.2857 33.9795 20.3399 34.4425L21.8566 47.3468C20.6873 47.4192 19.5388 47.7014 18.4668 48.1903V42.7337C18.4668 42.2183 18.0489 41.8004 17.5335 41.8004H15.6668V18.4967L32.0004 12.9194L48.334 18.4967V41.8004H46.4673C45.9519 41.8004 45.534 42.2183 45.534 42.7337V48.2352C44.4699 47.7417 43.3129 47.4441 42.1394 47.3641ZM51.1341 51.1339H47.4007V43.6671H51.1341V51.1339Z" fill="#0FAFEB"/>
<path d="M25.4666 39.4669C26.4975 39.4669 27.3333 38.6312 27.3333 37.6002C27.3333 36.5693 26.4975 35.7335 25.4666 35.7335C24.4356 35.7335 23.5999 36.5693 23.5999 37.6002C23.5999 38.6312 24.4356 39.4669 25.4666 39.4669Z" fill="#0FAFEB"/>
<path d="M38.5335 39.4669C39.5644 39.4669 40.4002 38.6312 40.4002 37.6002C40.4002 36.5693 39.5644 35.7335 38.5335 35.7335C37.5025 35.7335 36.6668 36.5693 36.6668 37.6002C36.6668 38.6312 37.5025 39.4669 38.5335 39.4669Z" fill="#0FAFEB"/>
<path d="M28.0023 30.1112L32.0001 29.223L35.9978 30.1112C36.0657 30.1262 36.1341 30.1335 36.2011 30.1335C36.629 30.1335 37.0146 29.8377 37.1112 29.4025C37.2233 28.8994 36.9057 28.4008 36.4025 28.2892L32.2024 27.3558C32.0693 27.3257 31.9308 27.3257 31.7977 27.3558L27.5976 28.2892C27.0945 28.4009 26.7768 28.8994 26.8889 29.4025C27.0006 29.9057 27.5001 30.2228 28.0023 30.1112Z" fill="#0FAFEB"/>
</svg>
