<svg width="64" height="64" viewBox="0 0 64 64" fill="none" xmlns="http://www.w3.org/2000/svg">
<path d="M63.1565 45.437H47.3178C46.8518 45.437 46.4742 45.0594 46.4742 44.5935C46.4742 44.1276 46.8518 43.75 47.3178 43.75H63.1565C63.6224 43.75 64 44.1276 64 44.5935C64 45.0594 63.6224 45.437 63.1565 45.437Z" fill="#0FAFEB"/>
<path d="M36.1072 43.75H41.5471C42.013 43.75 42.3906 44.1276 42.3906 44.5935C42.3906 45.0594 42.013 45.437 41.5471 45.437H36.1072C35.6412 45.437 35.2637 45.0594 35.2637 44.5935C35.2637 44.1276 35.6412 43.75 36.1072 43.75Z" fill="#0FAFEB"/>
<path d="M39.6719 47.7498C39.6719 48.2158 39.2943 48.5934 38.8284 48.5934H22.9897C22.5237 48.5934 22.1461 48.2158 22.1461 47.7498C22.1461 47.2839 22.5237 46.9062 22.9897 46.9062H38.8284C39.2943 46.9062 39.6719 47.2839 39.6719 47.7498Z" fill="#0FAFEB"/>
<path d="M10.9342 47.7498C10.9342 47.2839 11.3118 46.9062 11.7777 46.9062H17.219C17.6849 46.9062 18.0625 47.2839 18.0625 47.7498C18.0625 48.2158 17.6849 48.5934 17.219 48.5934H11.7777C11.3118 48.5934 10.9342 48.2158 10.9342 47.7498Z" fill="#0FAFEB"/>
<path d="M55.2346 46.9062C55.7005 46.9062 56.0781 47.2839 56.0781 47.7498C56.0781 48.2158 55.7005 48.5934 55.2346 48.5934H49.7946C49.3287 48.5934 48.9511 48.2158 48.9511 47.7498C48.9511 47.2839 49.3287 46.9062 49.7946 46.9062H55.2346Z" fill="#0FAFEB"/>
<path d="M0.00549744 44.5935C0.00549744 44.1276 0.383096 43.75 0.849016 43.75H16.6877C17.1537 43.75 17.5312 44.1276 17.5312 44.5935C17.5312 45.0594 17.1537 45.437 16.6877 45.437H0.849016C0.383096 45.437 0.00549744 45.0594 0.00549744 44.5935Z" fill="#0FAFEB"/>
<path d="M46.4591 36.4566C44.1884 36.4566 42.34 34.6096 42.34 32.3375C42.34 30.0655 44.1871 28.2185 46.4591 28.2185C48.7311 28.2185 50.5781 30.0655 50.5781 32.3375C50.5781 34.6096 48.7298 36.4566 46.4591 36.4566ZM46.4591 29.9068C45.1176 29.9068 44.0271 30.9974 44.0271 32.3388C44.0271 33.6803 45.1176 34.7708 46.4591 34.7708C47.8005 34.7708 48.8911 33.6803 48.8911 32.3388C48.8911 30.9974 47.7992 29.9068 46.4591 29.9068Z" fill="#0FAFEB"/>
<path d="M35.3966 36.4566C33.1258 36.4566 31.2775 34.6096 31.2775 32.3375C31.2775 30.0655 33.1258 28.2185 35.3966 28.2185C37.6673 28.2185 39.5156 30.0655 39.5156 32.3375C39.5156 34.6096 37.6686 36.4566 35.3966 36.4566ZM35.3966 29.9068C34.0551 29.9068 32.9646 30.9974 32.9646 32.3388C32.9646 33.6803 34.0551 34.7708 35.3966 34.7708C36.738 34.7708 37.8286 33.6803 37.8286 32.3388C37.8286 30.9974 36.738 29.9068 35.3966 29.9068Z" fill="#0FAFEB"/>
<path d="M24.3185 36.4566C22.0478 36.4566 20.1995 34.6096 20.1995 32.3375C20.1995 30.0655 22.0478 28.2185 24.3185 28.2185C26.5892 28.2185 28.4376 30.0655 28.4376 32.3375C28.4376 34.6096 26.5892 36.4566 24.3185 36.4566ZM24.3185 29.9068C22.9771 29.9068 21.8865 30.9974 21.8865 32.3388C21.8865 33.6803 22.9771 34.7708 24.3185 34.7708C25.66 34.7708 26.7505 33.6803 26.7505 32.3388C26.7505 30.9974 25.66 29.9068 24.3185 29.9068Z" fill="#0FAFEB"/>
<path d="M13.256 36.4566C10.9853 36.4566 9.137 34.6096 9.137 32.3375C9.137 30.0655 10.984 28.2185 13.256 28.2185C15.5267 28.2185 17.3751 30.0655 17.3751 32.3375C17.3751 34.6096 15.5267 36.4566 13.256 36.4566ZM13.256 29.9068C11.9146 29.9068 10.824 30.9974 10.824 32.3388C10.824 33.6803 11.9146 34.7708 13.256 34.7708C14.5975 34.7708 15.688 33.6803 15.688 32.3388C15.688 30.9974 14.5962 29.9068 13.256 29.9068Z" fill="#0FAFEB"/>
<path d="M63.7953 26.4769C62.9594 29.5835 61.3978 32.5057 59.2807 34.9275C57.1636 37.3492 54.4769 39.2872 51.5098 40.5326C51.4062 40.5761 51.2961 40.5979 51.1834 40.5979H7.99626C6.69578 40.5979 5.54762 39.8158 5.07146 38.6075L0.0628202 25.9022C0.0615402 25.8971 0.0602614 25.8933 0.0577014 25.8881C0.0487414 25.8651 0.0410577 25.8408 0.0346577 25.8165C0.0320977 25.8075 0.0295377 25.7985 0.0282577 25.7896C0.0231377 25.7678 0.0180177 25.7448 0.0154577 25.7217C0.0141777 25.7128 0.0116202 25.7025 0.0116202 25.6936C0.00906019 25.6693 0.00778144 25.6449 0.00650144 25.6193C0.00650144 25.6117 0.00522019 25.604 0.00522019 25.5976C0.00522019 25.5963 0.00522019 25.595 0.00522019 25.5937V22.765C0.00522019 20.9499 1.48106 19.4741 3.2961 19.4741H3.44074C5.25578 19.4741 6.73162 20.9499 6.73162 22.765V24.7489H16.5927L18.3156 17.7947C18.6638 16.388 19.9195 15.4062 21.3671 15.4062H43.5239C44.3636 15.4062 45.1534 15.7326 45.7473 16.3266L54.1684 24.7489H62.4718C62.9018 24.7489 63.2986 24.9448 63.5598 25.2865C63.8222 25.6283 63.9079 26.0622 63.7953 26.4769ZM5.0433 22.765C5.0433 21.8805 4.32394 21.1611 3.43946 21.1611H3.29482C2.41034 21.1611 1.69098 21.8805 1.69098 22.765V24.7489H5.0433V22.765V22.765ZM19.9527 18.2005L18.331 24.7489H25.7959V17.0946H21.3671C20.6951 17.0946 20.114 17.549 19.9527 18.2005ZM34.715 24.7489V17.0946H27.483V24.7489H34.715ZM36.402 17.0946V24.7489H43.634V17.0997C43.5982 17.0971 43.561 17.0946 43.5252 17.0946H36.402ZM45.321 18.2875V24.7489H51.7825L45.321 18.2875ZM53.819 26.436H17.2519H2.0865L6.64074 37.988C6.86218 38.5486 7.39338 38.9108 7.99626 38.9108H51.0132C56.4135 36.5915 60.4148 32.068 62.0558 26.436H53.819Z" fill="#0FAFEB"/>
</svg>
