<svg width="325" height="166" viewBox="0 0 325 166" fill="none" xmlns="http://www.w3.org/2000/svg">
<mask id="mask0_1_2733" style="mask-type:alpha" maskUnits="userSpaceOnUse" x="0" y="0" width="325" height="166">
<rect width="325" height="166" fill="#C4C4C4"/>
</mask>
<g mask="url(#mask0_1_2733)">
<mask id="mask1_1_2733" style="mask-type:alpha" maskUnits="userSpaceOnUse" x="2" y="-417" width="594" height="594">
<rect x="2.01514" y="176.985" width="593.97" height="593.97" transform="rotate(-90 2.01514 176.985)" fill="#FF8424"/>
</mask>
<g mask="url(#mask1_1_2733)">
<path d="M1409.51 -488.049L-0.459955 921.922" stroke="#FF5016" stroke-opacity="0.4"/>
<path d="M1398.2 -499.363L-11.7737 910.608" stroke="#FF5016" stroke-opacity="0.4"/>
<path d="M1386.88 -510.677L-23.0874 899.294" stroke="#FF5016" stroke-opacity="0.4"/>
<path d="M1375.57 -521.99L-34.4011 887.98" stroke="#FF5016" stroke-opacity="0.4"/>
<path d="M1364.26 -533.304L-45.7148 876.667" stroke="#FF5016" stroke-opacity="0.4"/>
<path d="M1352.94 -544.618L-57.0286 865.353" stroke="#FF5016" stroke-opacity="0.4"/>
<path d="M1341.63 -555.932L-68.3423 854.039" stroke="#FF5016" stroke-opacity="0.4"/>
<path d="M1330.31 -567.245L-79.656 842.726" stroke="#FF5016" stroke-opacity="0.4"/>
<path d="M1319 -578.559L-90.9697 831.412" stroke="#FF5016" stroke-opacity="0.4"/>
<path d="M1307.69 -589.873L-102.283 820.098" stroke="#FF5016" stroke-opacity="0.4"/>
<path d="M1296.37 -601.186L-113.597 808.785" stroke="#FF5016" stroke-opacity="0.4"/>
<path d="M1285.06 -612.5L-124.911 797.471" stroke="#FF5016" stroke-opacity="0.4"/>
<path d="M1273.75 -623.814L-136.224 786.157" stroke="#FF5016" stroke-opacity="0.4"/>
<path d="M1262.43 -635.128L-147.538 774.843" stroke="#FF5016" stroke-opacity="0.4"/>
<path d="M1251.12 -646.441L-158.852 763.53" stroke="#FF5016" stroke-opacity="0.4"/>
<path d="M1239.81 -657.755L-170.166 752.216" stroke="#FF5016" stroke-opacity="0.4"/>
<path d="M1228.49 -669.069L-181.479 740.902" stroke="#FF5016" stroke-opacity="0.4"/>
<path d="M1217.18 -680.382L-192.793 729.589" stroke="#FF5016" stroke-opacity="0.4"/>
<path d="M1205.86 -691.696L-204.107 718.275" stroke="#FF5016" stroke-opacity="0.4"/>
<path d="M1194.55 -703.01L-215.42 706.961" stroke="#FF5016" stroke-opacity="0.4"/>
<path d="M1183.24 -714.323L-226.734 695.647" stroke="#FF5016" stroke-opacity="0.4"/>
<path d="M1171.92 -725.637L-238.048 684.334" stroke="#FF5016" stroke-opacity="0.4"/>
<path d="M1160.61 -736.951L-249.362 673.02" stroke="#FF5016" stroke-opacity="0.4"/>
<path d="M1149.3 -748.265L-260.675 661.706" stroke="#FF5016" stroke-opacity="0.4"/>
<path d="M1137.98 -759.578L-271.989 650.393" stroke="#FF5016" stroke-opacity="0.4"/>
<path d="M1126.67 -770.892L-283.303 639.079" stroke="#FF5016" stroke-opacity="0.4"/>
<path d="M1115.35 -782.206L-294.616 627.765" stroke="#FF5016" stroke-opacity="0.4"/>
<path d="M1104.04 -793.519L-305.93 616.452" stroke="#FF5016" stroke-opacity="0.4"/>
<path d="M1092.73 -804.833L-317.244 605.138" stroke="#FF5016" stroke-opacity="0.4"/>
<path d="M1081.41 -816.147L-328.558 593.824" stroke="#FF5016" stroke-opacity="0.4"/>
<path d="M1070.1 -827.461L-339.871 582.51" stroke="#FF5016" stroke-opacity="0.4"/>
<path d="M1058.79 -838.774L-351.185 571.197" stroke="#FF5016" stroke-opacity="0.4"/>
<path d="M1047.47 -850.088L-362.499 559.883" stroke="#FF5016" stroke-opacity="0.4"/>
<path d="M1036.16 -861.402L-373.812 548.569" stroke="#FF5016" stroke-opacity="0.4"/>
<path d="M1024.84 -872.715L-385.126 537.255" stroke="#FF5016" stroke-opacity="0.4"/>
<path d="M1013.53 -884.029L-396.44 525.942" stroke="#FF5016" stroke-opacity="0.4"/>
<path d="M1002.22 -895.343L-407.753 514.628" stroke="#FF5016" stroke-opacity="0.4"/>
<path d="M990.904 -906.656L-419.067 503.314" stroke="#FF5016" stroke-opacity="0.4"/>
<path d="M979.59 -917.97L-430.381 492.001" stroke="#FF5016" stroke-opacity="0.4"/>
<path d="M968.276 -929.284L-441.695 480.687" stroke="#FF5016" stroke-opacity="0.4"/>
<path d="M956.963 -940.598L-453.008 469.373" stroke="#FF5016" stroke-opacity="0.4"/>
<path d="M945.649 -951.911L-464.322 458.06" stroke="#FF5016" stroke-opacity="0.4"/>
<path d="M934.335 -963.225L-475.636 446.746" stroke="#FF5016" stroke-opacity="0.4"/>
<path d="M923.021 -974.539L-486.949 435.432" stroke="#FF5016" stroke-opacity="0.4"/>
<path d="M911.708 -985.853L-498.263 424.118" stroke="#FF5016" stroke-opacity="0.4"/>
<path d="M900.394 -997.166L-509.577 412.805" stroke="#FF5016" stroke-opacity="0.4"/>
<path d="M889.08 -1008.48L-520.891 401.491" stroke="#FF5016" stroke-opacity="0.4"/>
<path d="M877.767 -1019.79L-532.204 390.177" stroke="#FF5016" stroke-opacity="0.4"/>
<path d="M866.453 -1031.11L-543.518 378.864" stroke="#FF5016" stroke-opacity="0.4"/>
<path d="M855.139 -1042.42L-554.832 367.55" stroke="#FF5016" stroke-opacity="0.4"/>
<path d="M843.826 -1053.73L-566.145 356.236" stroke="#FF5016" stroke-opacity="0.4"/>
<path d="M832.512 -1065.05L-577.459 344.922" stroke="#FF5016" stroke-opacity="0.4"/>
<path d="M821.198 -1076.36L-588.773 333.609" stroke="#FF5016" stroke-opacity="0.4"/>
<path d="M809.885 -1087.68L-600.086 322.295" stroke="#FF5016" stroke-opacity="0.4"/>
<path d="M798.571 -1098.99L-611.4 310.981" stroke="#FF5016" stroke-opacity="0.4"/>
<path d="M787.257 -1110.3L-622.714 299.668" stroke="#FF5016" stroke-opacity="0.4"/>
<path d="M775.943 -1121.62L-634.028 288.354" stroke="#FF5016" stroke-opacity="0.4"/>
<path d="M764.63 -1132.93L-645.341 277.04" stroke="#FF5016" stroke-opacity="0.4"/>
<path d="M753.316 -1144.24L-656.655 265.727" stroke="#FF5016" stroke-opacity="0.4"/>
<path d="M742.002 -1155.56L-667.969 254.413" stroke="#FF5016" stroke-opacity="0.4"/>
<path d="M730.688 -1166.87L-679.282 243.099" stroke="#FF5016" stroke-opacity="0.4"/>
<path d="M719.375 -1178.19L-690.596 231.785" stroke="#FF5016" stroke-opacity="0.4"/>
<path d="M708.061 -1189.5L-701.91 220.472" stroke="#FF5016" stroke-opacity="0.4"/>
<path d="M696.747 -1200.81L-713.224 209.158" stroke="#FF5016" stroke-opacity="0.4"/>
<path d="M685.434 -1212.13L-724.537 197.844" stroke="#FF5016" stroke-opacity="0.4"/>
<path d="M674.12 -1223.44L-735.851 186.531" stroke="#FF5016" stroke-opacity="0.4"/>
<path d="M662.806 -1234.75L-747.165 175.217" stroke="#FF5016" stroke-opacity="0.4"/>
<path d="M651.492 -1246.07L-758.479 163.903" stroke="#FF5016" stroke-opacity="0.4"/>
<path d="M640.179 -1257.38L-769.792 152.589" stroke="#FF5016" stroke-opacity="0.4"/>
<path d="M628.865 -1268.7L-781.106 141.276" stroke="#FF5016" stroke-opacity="0.4"/>
<path d="M617.552 -1280.01L-792.419 129.962" stroke="#FF5016" stroke-opacity="0.4"/>
<path d="M606.238 -1291.32L-803.733 118.648" stroke="#FF5016" stroke-opacity="0.4"/>
<path d="M594.924 -1302.64L-815.047 107.335" stroke="#FF5016" stroke-opacity="0.4"/>
<path d="M583.61 -1313.95L-826.361 96.021" stroke="#FF5016" stroke-opacity="0.4"/>
<path d="M572.297 -1325.26L-837.674 84.7073" stroke="#FF5016" stroke-opacity="0.4"/>
<path d="M560.983 -1336.58L-848.988 73.3935" stroke="#FF5016" stroke-opacity="0.4"/>
<path d="M549.669 -1347.89L-860.302 62.0798" stroke="#FF5016" stroke-opacity="0.4"/>
<path d="M538.355 -1359.2L-871.615 50.7661" stroke="#FF5016" stroke-opacity="0.4"/>
<path d="M527.042 -1370.52L-882.929 39.4524" stroke="#FF5016" stroke-opacity="0.4"/>
<path d="M515.728 -1381.83L-894.243 28.1387" stroke="#FF5016" stroke-opacity="0.4"/>
<path d="M504.414 -1393.15L-905.557 16.8249" stroke="#FF5016" stroke-opacity="0.4"/>
<path d="M493.101 -1404.46L-916.87 5.51122" stroke="#FF5016" stroke-opacity="0.4"/>
</g>
</g>
</svg>
