<svg width="53" height="52" viewBox="0 0 53 52" fill="none" xmlns="http://www.w3.org/2000/svg">
<path d="M43.0603 18.5359C42.6249 18.5359 42.2725 18.1835 42.2725 17.748C42.2725 17.3126 42.6249 16.9602 43.0603 16.9602C44.246 16.9602 45.2108 15.9953 45.2108 14.8097C45.2108 13.6232 44.246 12.6584 43.0603 12.6584C42.6249 12.6584 42.2725 12.306 42.2725 11.8705C42.2725 11.435 42.6249 11.0826 43.0603 11.0826C45.1147 11.0826 46.7866 12.7545 46.7866 14.8097C46.7866 16.864 45.1147 18.5359 43.0603 18.5359Z" fill="#FF8424"/>
<path d="M51.447 15.5975H45.9988C45.5633 15.5975 45.2109 15.2451 45.2109 14.8096C45.2109 14.3742 45.5633 14.0218 45.9988 14.0218H51.447C51.8825 14.0218 52.2349 14.3742 52.2349 14.8096C52.2349 15.2451 51.8825 15.5975 51.447 15.5975Z" fill="#FF8424"/>
<path d="M43.0603 29.7271C42.6249 29.7271 42.2725 29.3747 42.2725 28.9392C42.2725 28.5037 42.6249 28.1513 43.0603 28.1513C44.246 28.1513 45.2108 27.1864 45.2108 26C45.2108 24.8143 44.246 23.8495 43.0603 23.8495C42.6249 23.8495 42.2725 23.4971 42.2725 23.0616C42.2725 22.6261 42.6249 22.2737 43.0603 22.2737C45.1147 22.2737 46.7866 23.9457 46.7866 26C46.7866 28.0551 45.1147 29.7271 43.0603 29.7271Z" fill="#FF8424"/>
<path d="M51.447 26.7878H45.9988C45.5633 26.7878 45.2109 26.4355 45.2109 26C45.2109 25.5645 45.5633 25.2121 45.9988 25.2121H51.447C51.8825 25.2121 52.2349 25.5645 52.2349 26C52.2349 26.4355 51.8825 26.7878 51.447 26.7878Z" fill="#FF8424"/>
<path d="M43.0603 40.9174C42.6249 40.9174 42.2725 40.565 42.2725 40.1295C42.2725 39.694 42.6249 39.3416 43.0603 39.3416C44.246 39.3416 45.2108 38.3768 45.2108 37.1911C45.2108 36.0054 44.246 35.0406 43.0603 35.0406C42.6249 35.0406 42.2725 34.6882 42.2725 34.2527C42.2725 33.8172 42.6249 33.4648 43.0603 33.4648C45.1147 33.4648 46.7866 35.1367 46.7866 37.1911C46.7866 39.2454 45.1147 40.9174 43.0603 40.9174Z" fill="#FF8424"/>
<path d="M51.447 37.979H45.9988C45.5633 37.979 45.2109 37.6266 45.2109 37.1911C45.2109 36.7556 45.5633 36.4032 45.9988 36.4032H51.447C51.8825 36.4032 52.2349 36.7556 52.2349 37.1911C52.2349 37.6266 51.8825 37.979 51.447 37.979Z" fill="#FF8424"/>
<path d="M17.9828 9.96313C17.5473 9.96313 17.1949 9.61074 17.1949 9.17525C17.1949 7.98882 16.2301 7.02397 15.0444 7.02397C13.858 7.02397 12.8931 7.98882 12.8931 9.17525C12.8931 9.61074 12.5408 9.96313 12.1053 9.96313C11.6698 9.96313 11.3174 9.61074 11.3174 9.17525C11.3174 7.12015 12.9893 5.44821 15.0444 5.44821C17.0988 5.44821 18.7707 7.12015 18.7707 9.17525C18.7707 9.61074 18.4183 9.96313 17.9828 9.96313Z" fill="#FF8424"/>
<path d="M15.0447 7.02397C14.6092 7.02397 14.2568 6.67158 14.2568 6.23609V0.787879C14.2568 0.352391 14.6092 0 15.0447 0C15.4802 0 15.8326 0.352391 15.8326 0.787879V6.23609C15.8326 6.67158 15.4802 7.02397 15.0447 7.02397Z" fill="#FF8424"/>
<path d="M29.1742 9.96313C28.7387 9.96313 28.3863 9.61074 28.3863 9.17525C28.3863 7.98882 27.4215 7.02397 26.2351 7.02397C25.0494 7.02397 24.0845 7.98882 24.0845 9.17525C24.0845 9.61074 23.7322 9.96313 23.2967 9.96313C22.8612 9.96313 22.5088 9.61074 22.5088 9.17525C22.5088 7.12015 24.1807 5.44821 26.2351 5.44821C28.2902 5.44821 29.9621 7.12015 29.9621 9.17525C29.9621 9.61074 29.6097 9.96313 29.1742 9.96313Z" fill="#FF8424"/>
<path d="M26.2351 7.02397C25.7997 7.02397 25.4473 6.67158 25.4473 6.23609V0.787879C25.4473 0.352391 25.7997 0 26.2351 0C26.6706 0 27.023 0.352391 27.023 0.787879V6.23609C27.023 6.67158 26.6706 7.02397 26.2351 7.02397Z" fill="#FF8424"/>
<path d="M40.3647 9.96313C39.9292 9.96313 39.5768 9.61074 39.5768 9.17525C39.5768 7.98882 38.6119 7.02397 37.4255 7.02397C36.2398 7.02397 35.275 7.98882 35.275 9.17525C35.275 9.61074 34.9226 9.96313 34.4871 9.96313C34.0516 9.96313 33.6992 9.61074 33.6992 9.17525C33.6992 7.12015 35.3712 5.44821 37.4255 5.44821C39.4806 5.44821 41.1525 7.12015 41.1525 9.17525C41.1525 9.61074 40.8001 9.96313 40.3647 9.96313Z" fill="#FF8424"/>
<path d="M37.4256 7.02397C36.9901 7.02397 36.6377 6.67158 36.6377 6.23609V0.787879C36.6377 0.352391 36.9901 0 37.4256 0C37.861 0 38.2134 0.352391 38.2134 0.787879V6.23609C38.2134 6.67158 37.861 7.02397 37.4256 7.02397Z" fill="#FF8424"/>
<path d="M9.41084 40.9174C7.3565 40.9174 5.68457 39.2454 5.68457 37.1911C5.68457 35.1367 7.3565 33.4648 9.41084 33.4648C9.84633 33.4648 10.1987 33.8172 10.1987 34.2527C10.1987 34.6882 9.84633 35.0406 9.41084 35.0406C8.22517 35.0406 7.26033 36.0054 7.26033 37.1911C7.26033 38.3768 8.22517 39.3416 9.41084 39.3416C9.84633 39.3416 10.1987 39.694 10.1987 40.1295C10.1987 40.565 9.84633 40.9174 9.41084 40.9174Z" fill="#FF8424"/>
<path d="M6.47221 37.9789H1.02323C0.587743 37.9789 0.235352 37.6266 0.235352 37.1911C0.235352 36.7556 0.587743 36.4032 1.02323 36.4032H6.47221C6.9077 36.4032 7.26009 36.7556 7.26009 37.1911C7.26009 37.6266 6.9077 37.9789 6.47221 37.9789Z" fill="#FF8424"/>
<path d="M9.41084 29.7271C7.3565 29.7271 5.68457 28.0551 5.68457 26C5.68457 23.9457 7.3565 22.2737 9.41084 22.2737C9.84633 22.2737 10.1987 22.6261 10.1987 23.0616C10.1987 23.4971 9.84633 23.8495 9.41084 23.8495C8.22517 23.8495 7.26033 24.8143 7.26033 26C7.26033 27.1864 8.22517 28.1513 9.41084 28.1513C9.84633 28.1513 10.1987 28.5037 10.1987 28.9392C10.1987 29.3747 9.84633 29.7271 9.41084 29.7271Z" fill="#FF8424"/>
<path d="M6.47221 26.7879H1.02323C0.587743 26.7879 0.235352 26.4355 0.235352 26C0.235352 25.5645 0.587743 25.2121 1.02323 25.2121H6.47221C6.9077 25.2121 7.26009 25.5645 7.26009 26C7.26009 26.4355 6.9077 26.7879 6.47221 26.7879Z" fill="#FF8424"/>
<path d="M9.41084 18.5359C7.3565 18.5359 5.68457 16.864 5.68457 14.8097C5.68457 12.7545 7.3565 11.0826 9.41084 11.0826C9.84633 11.0826 10.1987 11.435 10.1987 11.8705C10.1987 12.306 9.84633 12.6584 9.41084 12.6584C8.22517 12.6584 7.26033 13.6232 7.26033 14.8097C7.26033 15.9953 8.22517 16.9602 9.41084 16.9602C9.84633 16.9602 10.1987 17.3126 10.1987 17.748C10.1987 18.1835 9.84633 18.5359 9.41084 18.5359Z" fill="#FF8424"/>
<path d="M6.47221 15.5975H1.02323C0.587743 15.5975 0.235352 15.2452 0.235352 14.8097C0.235352 14.3742 0.587743 14.0218 1.02323 14.0218H6.47221C6.9077 14.0218 7.26009 14.3742 7.26009 14.8097C7.26009 15.2452 6.9077 15.5975 6.47221 15.5975Z" fill="#FF8424"/>
<path d="M37.4255 46.5517C35.3712 46.5517 33.6992 44.8798 33.6992 42.8255C33.6992 42.39 34.0516 42.0376 34.4871 42.0376C34.9226 42.0376 35.275 42.39 35.275 42.8255C35.275 44.0111 36.2398 44.976 37.4255 44.976C38.6119 44.976 39.5768 44.0111 39.5768 42.8255C39.5768 42.39 39.9292 42.0376 40.3647 42.0376C40.8001 42.0376 41.1525 42.39 41.1525 42.8255C41.1525 44.8798 39.4806 46.5517 37.4255 46.5517Z" fill="#FF8424"/>
<path d="M37.4256 51.9999C36.9901 51.9999 36.6377 51.6475 36.6377 51.212V45.7638C36.6377 45.3283 36.9901 44.976 37.4256 44.976C37.861 44.976 38.2134 45.3283 38.2134 45.7638V51.212C38.2134 51.6475 37.861 51.9999 37.4256 51.9999Z" fill="#FF8424"/>
<path d="M26.2358 46.5517C24.1807 46.5517 22.5088 44.8798 22.5088 42.8255C22.5088 42.39 22.8612 42.0376 23.2967 42.0376C23.7322 42.0376 24.0845 42.39 24.0845 42.8255C24.0845 44.0111 25.0494 44.976 26.2358 44.976C27.4215 44.976 28.3863 44.0111 28.3863 42.8255C28.3863 42.39 28.7387 42.0376 29.1742 42.0376C29.6097 42.0376 29.9621 42.39 29.9621 42.8255C29.9621 44.8798 28.2902 46.5517 26.2358 46.5517Z" fill="#FF8424"/>
<path d="M26.2351 51.9999C25.7997 51.9999 25.4473 51.6475 25.4473 51.212V45.7638C25.4473 45.3283 25.7997 44.976 26.2351 44.976C26.6706 44.976 27.023 45.3283 27.023 45.7638V51.212C27.023 51.6475 26.6706 51.9999 26.2351 51.9999Z" fill="#FF8424"/>
<path d="M15.0444 46.5517C12.9893 46.5517 11.3174 44.8798 11.3174 42.8255C11.3174 42.39 11.6698 42.0376 12.1053 42.0376C12.5408 42.0376 12.8931 42.39 12.8931 42.8255C12.8931 44.0111 13.858 44.976 15.0444 44.976C16.2301 44.976 17.1949 44.0111 17.1949 42.8255C17.1949 42.39 17.5473 42.0376 17.9828 42.0376C18.4183 42.0376 18.7707 42.39 18.7707 42.8255C18.7707 44.8798 17.0988 46.5517 15.0444 46.5517Z" fill="#FF8424"/>
<path d="M15.0447 51.9999C14.6092 51.9999 14.2568 51.6475 14.2568 51.212V45.7638C14.2568 45.3283 14.6092 44.976 15.0447 44.976C15.4802 44.976 15.8326 45.3283 15.8326 45.7638V51.212C15.8326 51.6475 15.4802 51.9999 15.0447 51.9999Z" fill="#FF8424"/>
<path d="M40.6966 43.6111H11.7736C10.0355 43.6111 8.62207 42.1977 8.62207 40.4596V11.5366C8.62207 9.79848 10.0355 8.38507 11.7736 8.38507H40.6966C42.4347 8.38507 43.8481 9.79848 43.8481 11.5366V40.4596C43.8481 42.1977 42.4347 43.6111 40.6966 43.6111ZM11.7736 9.96083C10.9049 9.96083 10.1978 10.6679 10.1978 11.5366V40.4596C10.1978 41.3283 10.9049 42.0353 11.7736 42.0353H40.6966C41.5653 42.0353 42.2724 41.3283 42.2724 40.4596V11.5366C42.2724 10.6679 41.5653 9.96083 40.6966 9.96083H11.7736Z" fill="#FF8424"/>
<path d="M37.5451 39.6717H14.9252C13.6218 39.6717 12.5615 38.6115 12.5615 37.3081V14.6881C12.5615 13.3847 13.6218 12.3245 14.9252 12.3245H30.1996C31.0413 12.3245 31.833 12.6522 32.4285 13.2478L38.9855 19.8047C39.581 20.4002 39.9088 21.1912 39.9088 22.0329V37.3081C39.9088 38.6115 38.8485 39.6717 37.5451 39.6717V39.6717ZM14.9252 13.9002C14.4904 13.9002 14.1373 14.2534 14.1373 14.6881V37.3081C14.1373 37.7428 14.4904 38.096 14.9252 38.096H37.5451C37.9799 38.096 38.333 37.7428 38.333 37.3081V22.0329C38.333 21.6121 38.1691 21.2166 37.8714 20.9188L31.3144 14.3619C31.0167 14.0641 30.6204 13.9002 30.1996 13.9002H14.9252V13.9002Z" fill="#FF8424"/>
<path d="M31.1393 32.0884H21.3308C20.8954 32.0884 20.543 31.736 20.543 31.3005C20.543 30.865 20.8954 30.5126 21.3308 30.5126H31.1393C31.5748 30.5126 31.9272 30.865 31.9272 31.3005C31.9272 31.736 31.5748 32.0884 31.1393 32.0884Z" fill="#FF8424"/>
<path d="M31.1393 35.7715H21.3308C20.8954 35.7715 20.543 35.4191 20.543 34.9837C20.543 34.5482 20.8954 34.1958 21.3308 34.1958H31.1393C31.5748 34.1958 31.9272 34.5482 31.9272 34.9837C31.9272 35.4191 31.5748 35.7715 31.1393 35.7715Z" fill="#FF8424"/>
<path d="M35.0794 39.6717C34.6439 39.6717 34.2916 39.3193 34.2916 38.8838V29.764C34.2916 28.8953 33.5845 28.1882 32.7158 28.1882H19.755C18.8864 28.1882 18.1793 28.8953 18.1793 29.764V38.8838C18.1793 39.3193 17.8269 39.6717 17.3914 39.6717C16.9559 39.6717 16.6035 39.3193 16.6035 38.8838V29.764C16.6035 28.0259 18.0169 26.6125 19.755 26.6125H32.7158C34.4539 26.6125 35.8673 28.0259 35.8673 29.764V38.8838C35.8673 39.3193 35.5149 39.6717 35.0794 39.6717Z" fill="#FF8424"/>
<path d="M29.6035 20.2579H18.9672C17.6638 20.2579 16.6035 19.1976 16.6035 17.8942V13.1123C16.6035 12.6769 16.9559 12.3245 17.3914 12.3245C17.8269 12.3245 18.1793 12.6769 18.1793 13.1123V17.8942C18.1793 18.329 18.5324 18.6821 18.9672 18.6821H29.6035C30.0382 18.6821 30.3914 18.329 30.3914 17.8942V13.3255C30.3914 12.89 30.7438 12.5376 31.1793 12.5376C31.6148 12.5376 31.9672 12.89 31.9672 13.3255V17.8942C31.9672 19.1976 30.9069 20.2579 29.6035 20.2579Z" fill="#FF8424"/>
<path d="M22.1795 20.2579C21.744 20.2579 21.3916 19.9055 21.3916 19.47V13.1123C21.3916 12.6769 21.744 12.3245 22.1795 12.3245C22.615 12.3245 22.9673 12.6769 22.9673 13.1123V19.47C22.9673 19.9055 22.615 20.2579 22.1795 20.2579Z" fill="#FF8424"/>
<path d="M26.3914 20.2579C25.9559 20.2579 25.6035 19.9055 25.6035 19.47V13.1123C25.6035 12.6769 25.9559 12.3245 26.3914 12.3245C26.8269 12.3245 27.1793 12.6769 27.1793 13.1123V19.47C27.1793 19.9055 26.8269 20.2579 26.3914 20.2579Z" fill="#FF8424"/>
</svg>
