<svg width="52" height="52" viewBox="0 0 52 52" fill="none" xmlns="http://www.w3.org/2000/svg">
<path d="M46.647 51.2353H5.35288C2.82278 51.2353 0.764648 49.1772 0.764648 46.6471V5.35294C0.764648 2.82284 2.82278 0.764709 5.35288 0.764709H46.647C49.1771 0.764709 51.2352 2.82284 51.2352 5.35294V46.6471C51.2352 49.1772 49.1771 51.2353 46.647 51.2353ZM5.35288 2.29412C3.6659 2.29412 2.29406 3.66633 2.29406 5.35294V46.6471C2.29406 48.3337 3.6659 49.7059 5.35288 49.7059H46.647C48.334 49.7059 49.7058 48.3337 49.7058 46.6471V5.35294C49.7058 3.66633 48.334 2.29412 46.647 2.29412H5.35288Z" fill="#FF8424"/>
<path d="M44.7351 9.94117C43.2594 9.94117 42.0586 8.74034 42.0586 7.2647C42.0586 5.78905 43.2594 4.58823 44.7351 4.58823C46.2107 4.58823 47.4115 5.78905 47.4115 7.2647C47.4115 8.74034 46.2107 9.94117 44.7351 9.94117ZM44.7351 6.11764C44.1025 6.11764 43.588 6.63217 43.588 7.2647C43.588 7.89722 44.1025 8.41176 44.7351 8.41176C45.3676 8.41176 45.8821 7.89722 45.8821 7.2647C45.8821 6.63217 45.3676 6.11764 44.7351 6.11764Z" fill="#FF8424"/>
<path d="M7.26436 47.4118C5.78872 47.4118 4.58789 46.2109 4.58789 44.7353C4.58789 43.2596 5.78872 42.0588 7.26436 42.0588C8.74001 42.0588 9.94084 43.2596 9.94084 44.7353C9.94084 46.2109 8.74001 47.4118 7.26436 47.4118ZM7.26436 43.5882C6.63184 43.5882 6.1173 44.1028 6.1173 44.7353C6.1173 45.3678 6.63184 45.8823 7.26436 45.8823C7.89689 45.8823 8.41142 45.3678 8.41142 44.7353C8.41142 44.1028 7.89689 43.5882 7.26436 43.5882Z" fill="#FF8424"/>
<path d="M44.7351 47.4118C43.2594 47.4118 42.0586 46.2109 42.0586 44.7353C42.0586 43.2596 43.2594 42.0588 44.7351 42.0588C46.2107 42.0588 47.4115 43.2596 47.4115 44.7353C47.4115 46.2109 46.2107 47.4118 44.7351 47.4118ZM44.7351 43.5882C44.1025 43.5882 43.588 44.1028 43.588 44.7353C43.588 45.3678 44.1025 45.8823 44.7351 45.8823C45.3676 45.8823 45.8821 45.3678 45.8821 44.7353C45.8821 44.1028 45.3676 43.5882 44.7351 43.5882Z" fill="#FF8424"/>
<path d="M7.26436 9.94117C5.78872 9.94117 4.58789 8.74034 4.58789 7.2647C4.58789 5.78905 5.78872 4.58823 7.26436 4.58823C8.74001 4.58823 9.94084 5.78905 9.94084 7.2647C9.94084 8.74034 8.74001 9.94117 7.26436 9.94117ZM7.26436 6.11764C6.63184 6.11764 6.1173 6.63217 6.1173 7.2647C6.1173 7.89722 6.63184 8.41176 7.26436 8.41176C7.89689 8.41176 8.41142 7.89722 8.41142 7.2647C8.41142 6.63217 7.89689 6.11764 7.26436 6.11764Z" fill="#FF8424"/>
<path d="M25.8868 47.5242C14.0182 47.5242 4.3623 37.8686 4.3623 26C4.3623 14.1314 14.0182 4.47546 25.8868 4.47546C37.7555 4.47546 47.4114 14.1314 47.4114 26C47.4114 37.8686 37.7555 47.5242 25.8868 47.5242ZM25.8868 6.00488C14.8613 6.00488 5.89172 14.9745 5.89172 26C5.89172 37.0251 14.8613 45.9948 25.8868 45.9948C36.9123 45.9948 45.882 37.0251 45.882 26C45.882 14.9745 36.9123 6.00488 25.8868 6.00488Z" fill="#FF8424"/>
<path d="M25.7741 32.1494C22.5062 32.1494 19.8477 29.4908 19.8477 26.2229C19.8477 22.955 22.5062 20.2964 25.7741 20.2964C29.042 20.2964 31.7006 22.955 31.7006 26.2229C31.7006 29.4908 29.042 32.1494 25.7741 32.1494ZM25.7741 21.8259C23.3493 21.8259 21.3771 23.7985 21.3771 26.2229C21.3771 28.6474 23.3493 30.62 25.7741 30.62C28.1989 30.62 30.1712 28.6474 30.1712 26.2229C30.1712 23.7985 28.1989 21.8259 25.7741 21.8259Z" fill="#FF8424"/>
<path d="M20.6589 27.6493C20.5761 27.6493 20.4932 27.6358 20.4125 27.6086C19.084 27.1557 15.707 27.0799 12.4421 27.0067L12.1964 27.0011C11.4018 26.9809 10.7222 26.4361 10.5423 25.6763C9.93513 22.8519 11.8394 19.0299 13.9498 17.0995C15.2425 15.9158 16.5823 15.4569 17.7233 15.8105C17.8249 15.8419 17.919 15.8945 17.9996 15.9644C20.47 18.1181 22.1831 19.9063 23.3907 21.5914C23.5094 21.7568 23.5572 21.9625 23.5236 22.163C23.49 22.3639 23.378 22.5428 23.2114 22.6604C22.0644 23.4748 21.3788 24.8074 21.3788 26.2255C21.3788 26.4384 21.3908 26.6146 21.4139 26.7647C21.4565 27.0295 21.3564 27.2968 21.1511 27.4697C21.0114 27.5873 20.8367 27.6493 20.6589 27.6493V27.6493ZM16.9407 17.2238C16.3881 17.2238 15.6951 17.5752 14.9819 18.2279C13.2128 19.8465 11.5669 23.1652 12.0336 25.3391C12.0493 25.4045 12.1389 25.4698 12.233 25.4724L12.4764 25.4776C15.3523 25.5422 18.0975 25.6038 19.8576 25.9089C19.9398 24.3784 20.6126 22.9431 21.7194 21.9091C20.6343 20.5156 19.1572 19.0124 17.1341 17.2391C17.0714 17.2287 17.0072 17.2238 16.9407 17.2238V17.2238Z" fill="#FF8424"/>
<path d="M20.6825 40.5481C20.637 40.5481 20.5907 40.5462 20.5444 40.5425C17.6715 40.2467 14.6254 37.2555 13.441 34.6526C12.7144 33.0556 12.6927 31.6393 13.3805 30.6644C13.4417 30.577 13.5209 30.5039 13.6127 30.449C16.4229 28.7657 18.6528 27.6889 20.6303 27.0601C20.8244 26.9996 21.0343 27.0175 21.215 27.1105C21.3957 27.2046 21.5309 27.3666 21.5914 27.5608C22.0118 28.9046 23.067 29.9684 24.4157 30.4064C24.6173 30.4721 24.7891 30.5158 24.9407 30.5401C25.2058 30.5823 25.4291 30.7596 25.5292 31.0079C25.63 31.2562 25.5934 31.5393 25.4321 31.7536C24.5912 32.876 23.477 36.0618 22.3986 39.1426L22.3165 39.379C22.0678 40.0836 21.4084 40.5481 20.6825 40.5481V40.5481ZM14.5574 31.6662C14.2878 32.1875 14.3842 33.0328 14.833 34.0193C15.8262 36.2014 18.4735 38.792 20.6848 39.0198C20.7557 39.0146 20.8423 38.9604 20.873 38.8719L20.9551 38.6374C21.9043 35.9244 22.8109 33.3338 23.645 31.7551C22.2149 31.2043 21.0574 30.1204 20.4159 28.7485C18.7543 29.3501 16.8687 30.2903 14.5574 31.6662Z" fill="#FF8424"/>
<path d="M29.1609 40.6071C27.8115 40.6071 26.7652 40.1844 26.1663 39.3842C26.1028 39.2987 26.0573 39.2009 26.0334 39.0971C25.3 35.9035 24.9655 33.4499 24.9789 31.3757C24.9804 31.1722 25.0625 30.9777 25.2074 30.835C25.353 30.6928 25.5771 30.6203 25.7526 30.6159C25.769 30.6162 25.7854 30.6162 25.8011 30.6162C27.1909 30.6162 28.5067 29.9434 29.3312 28.8094C29.4559 28.6369 29.55 28.4879 29.6187 28.3535C29.7404 28.1141 29.9779 27.9562 30.2452 27.9368C30.5171 27.9162 30.771 28.0398 30.9255 28.259C31.7351 29.4076 34.4272 31.4567 37.0305 33.4383L37.215 33.5787C37.846 34.0626 38.0752 34.9028 37.7743 35.6234C36.6048 38.2648 32.8179 40.2378 29.9764 40.5593C29.6941 40.5914 29.4215 40.6071 29.1609 40.6071V40.6071ZM27.4829 38.5747C27.8951 38.9925 28.7285 39.1636 29.8046 39.0396C32.1869 38.77 35.469 37.0528 36.3696 35.0193C36.395 34.9573 36.3614 34.8516 36.2867 34.7941L36.1037 34.6552C33.8111 32.9096 31.6215 31.2432 30.3752 29.9598C29.4096 31.1494 28.0206 31.9153 26.518 32.1012C26.5763 33.867 26.8884 35.9513 27.4829 38.5747V38.5747Z" fill="#FF8424"/>
<path d="M38.1637 29.9602C38.1413 29.9602 38.1189 29.9591 38.0957 29.9572C34.833 29.6671 32.3955 29.2276 30.427 28.5742C30.2343 28.5099 30.0745 28.3714 29.9842 28.1896C29.8931 28.0073 29.8789 27.7967 29.9438 27.6037C30.3934 26.27 30.1649 24.7887 29.3315 23.6416C29.2068 23.4699 29.0933 23.334 28.985 23.2253C28.796 23.036 28.7199 22.7612 28.7841 22.5009C28.8491 22.2411 29.0447 22.0338 29.3009 21.9547C30.6421 21.5402 33.4194 19.6157 36.1056 17.7551L36.3042 17.617C36.9584 17.1674 37.8269 17.2066 38.4206 17.7167C40.5721 19.6452 41.2778 23.8563 40.7057 26.6583C40.3548 28.3766 39.5393 29.5349 38.4101 29.9195C38.3302 29.9464 38.2473 29.9602 38.1637 29.9602ZM31.5927 27.3341C33.2902 27.824 35.3685 28.172 38.0472 28.4173C38.5722 28.1545 38.9904 27.4136 39.207 26.3521C39.6871 24.0031 39.068 20.3509 37.4117 18.8663C37.3609 18.8219 37.2496 18.8223 37.1735 18.8753L36.9763 19.012C34.6105 20.6512 32.3522 22.216 30.7481 23.0043C31.5815 24.2906 31.8803 25.8473 31.5927 27.3341V27.3341Z" fill="#FF8424"/>
<path d="M28.8306 22.8381C28.6671 22.8381 28.5073 22.7858 28.3743 22.6869C27.2445 21.8464 25.7666 21.6048 24.4164 22.045C24.2148 22.11 24.0512 22.1754 23.9145 22.2452C23.6763 22.3669 23.3911 22.3546 23.1633 22.2131C22.9355 22.0712 22.7989 21.8206 22.8026 21.5529C22.8227 20.1497 21.8519 16.9154 20.9125 13.7875L20.8415 13.5519C20.6145 12.7905 20.9229 11.9754 21.5913 11.5688C24.0885 10.1193 28.3123 10.7492 30.8006 12.1591C32.3263 13.0239 33.1761 14.1571 33.1926 15.3498C33.1941 15.4565 33.1732 15.5622 33.1313 15.6604C31.8484 18.6733 30.6774 20.855 29.4467 22.5267C29.3257 22.6906 29.145 22.7997 28.9434 22.8299C28.906 22.8355 28.868 22.8381 28.8306 22.8381V22.8381ZM25.7733 20.3006C26.7673 20.3006 27.7515 20.5507 28.6275 21.035C29.6185 19.5713 30.5915 17.7017 31.6512 15.231C31.5638 14.6508 30.9888 14.0238 30.0464 13.4899C27.9606 12.3081 24.2947 11.7671 22.3724 12.8839C22.3149 12.919 22.2798 13.0232 22.3067 13.1131L22.3769 13.3476C23.2044 16.1021 23.9945 18.7323 24.2476 20.5007C24.7502 20.3666 25.2632 20.3006 25.7733 20.3006Z" fill="#FF8424"/>
</svg>
