<svg width="52" height="52" viewBox="0 0 52 52" fill="none" xmlns="http://www.w3.org/2000/svg">
<path d="M48.1764 25.5336H3.82347C2.13649 25.5336 0.764648 24.1618 0.764648 22.4748V6.69902C0.764648 5.01204 2.13649 3.6402 3.82347 3.6402H48.1764C49.8634 3.6402 51.2352 5.01204 51.2352 6.69902V22.4748C51.2352 24.1618 49.8634 25.5336 48.1764 25.5336ZM3.82347 5.16961C2.98035 5.16961 2.29406 5.8559 2.29406 6.69902V22.4748C2.29406 23.3179 2.98035 24.0042 3.82347 24.0042H48.1764C49.0195 24.0042 49.7058 23.3179 49.7058 22.4748V6.69902C49.7058 5.8559 49.0195 5.16961 48.1764 5.16961H3.82347Z" fill="#FF8424"/>
<path d="M44.1846 25.5337C43.7619 25.5337 43.4199 25.1916 43.4199 24.7689V21.5264C43.4199 21.0081 42.9979 20.5862 42.4797 20.5862H9.52039C9.00213 20.5862 8.58019 21.0081 8.58019 21.5264V24.7689C8.58019 25.1916 8.23817 25.5337 7.81549 25.5337C7.39281 25.5337 7.05078 25.1916 7.05078 24.7689V21.5264C7.05078 20.165 8.15901 19.0568 9.52039 19.0568H42.4797C43.8411 19.0568 44.9493 20.165 44.9493 21.5264V24.7689C44.9493 25.1916 44.6073 25.5337 44.1846 25.5337Z" fill="#FF8424"/>
<path d="M7.26436 12.8167C5.78872 12.8167 4.58789 11.6158 4.58789 10.1402C4.58789 8.66454 5.78872 7.46371 7.26436 7.46371C8.74001 7.46371 9.94084 8.66454 9.94084 10.1402C9.94084 11.6158 8.74001 12.8167 7.26436 12.8167ZM7.26436 8.99313C6.63184 8.99313 6.1173 9.50766 6.1173 10.1402C6.1173 10.7727 6.63184 11.2872 7.26436 11.2872C7.89689 11.2872 8.41142 10.7727 8.41142 10.1402C8.41142 9.50766 7.89689 8.99313 7.26436 8.99313Z" fill="#FF8424"/>
<path d="M14.3991 12.8167C12.9235 12.8167 11.7227 11.6158 11.7227 10.1402C11.7227 8.66454 12.9235 7.46371 14.3991 7.46371C15.8748 7.46371 17.0756 8.66454 17.0756 10.1402C17.0756 11.6158 15.8748 12.8167 14.3991 12.8167ZM14.3991 8.99313C13.7666 8.99313 13.2521 9.50766 13.2521 10.1402C13.2521 10.7727 13.7666 11.2872 14.3991 11.2872C15.0317 11.2872 15.5462 10.7727 15.5462 10.1402C15.5462 9.50766 15.0317 8.99313 14.3991 8.99313Z" fill="#FF8424"/>
<path d="M33.3336 48.3598C31.5249 48.3598 30.0537 46.8886 30.0537 45.0807V35.3844C30.0537 34.9617 30.3957 34.6197 30.8184 34.6197C31.2411 34.6197 31.5831 34.9617 31.5831 35.3844V45.0807C31.5831 46.0455 32.3687 46.8304 33.3336 46.8304C34.2984 46.8304 35.084 46.0455 35.084 45.0807C35.084 44.1151 34.2984 43.3295 33.3336 43.3295C32.9109 43.3295 32.5689 42.9874 32.5689 42.5648C32.5689 42.1421 32.9109 41.8 33.3336 41.8C35.1423 41.8 36.6135 43.272 36.6135 45.0807C36.6135 46.8886 35.1423 48.3598 33.3336 48.3598Z" fill="#FF8424"/>
<path d="M20.2017 48.3598C18.393 48.3598 16.9219 46.8886 16.9219 45.0807C16.9219 43.272 18.393 41.8001 20.2017 41.8001C20.6244 41.8001 20.9664 42.1421 20.9664 42.5648C20.9664 42.9874 20.6244 43.3295 20.2017 43.3295C19.2369 43.3295 18.4513 44.1151 18.4513 45.0807C18.4513 46.0455 19.2369 46.8304 20.2017 46.8304C21.1666 46.8304 21.9515 46.0455 21.9522 45.0799V35.3852C21.9522 34.9625 22.2942 34.6205 22.7169 34.6205C23.1396 34.6205 23.4816 34.9625 23.4816 35.3852V45.0807C23.4809 46.8886 22.009 48.3598 20.2017 48.3598Z" fill="#FF8424"/>
<path d="M26.7676 43.16C26.345 43.16 26.0029 42.8172 26.0029 42.3953L26.0037 32.699C26.0037 32.2763 26.3457 31.9343 26.7684 31.9343C27.1911 31.9343 27.5331 32.2771 27.5331 32.699L27.5323 42.3953C27.5323 42.8179 27.1903 43.16 26.7676 43.16Z" fill="#FF8424"/>
</svg>
