<svg width="25" height="25" fill="none" xmlns="http://www.w3.org/2000/svg"><path d="M21.5.51h-18c-1.657 0-3 1.37-3 3.061V21.43c0 1.69 1.343 3.06 3 3.06h18c1.657 0 3-1.37 3-3.06V3.57c0-1.69-1.343-3.06-3-3.06z" stroke="#000" stroke-miterlimit="10"/><path d="M13.91 24.949h-3.39a.99.99 0 01-.707-.299 1.03 1.03 0 01-.293-.721v-7.827h-2a.99.99 0 01-.707-.299 1.031 1.031 0 01-.293-.721v-3.368c0-.27.105-.53.293-.721a.99.99 0 01.707-.3h2V8.99A5.762 5.762 0 0111 4.908a5.329 5.329 0 011.804-1.186 5.244 5.244 0 012.116-.365h2.59a.99.99 0 01.707.299c.188.191.293.45.293.722v3.06c0 .271-.105.531-.293.722a.99.99 0 01-.707.3h-1.78c-.53 0-.66.111-.69.142-.03.03-.11.214-.11.643v1.316h2.41c.178.002.353.047.51.133.163.088.298.22.392.383.093.162.141.347.138.535v3.347c0 .27-.105.53-.293.722a.99.99 0 01-.707.299h-2.45v7.806a1.041 1.041 0 01-.245.823 1 1 0 01-.775.34zm-3.18-1.265h3V15.52c0-.186.073-.365.202-.497a.683.683 0 01.488-.207h2.76V11.93h-2.8a.669.669 0 01-.487-.2.695.695 0 01-.203-.494V9.347a2.153 2.153 0 01.42-1.48 2.06 2.06 0 011.62-.571h1.53V4.633h-2.37a3.85 3.85 0 00-1.664.257 3.9 3.9 0 00-1.404.946 4.015 4.015 0 00-.887 1.46A4.075 4.075 0 0010.73 9v2.225a.697.697 0 01-.196.493.67.67 0 01-.484.2H7.73v2.909h2.32a.666.666 0 01.484.206.695.695 0 01.196.498v8.153z" fill="#000"/></svg>