<svg width="25" height="25" fill="none" xmlns="http://www.w3.org/2000/svg"><path d="M21.5.51h-18c-1.657 0-3 1.37-3 3.061V21.43c0 1.69 1.343 3.06 3 3.06h18c1.657 0 3-1.37 3-3.06V3.57c0-1.69-1.343-3.06-3-3.06z" stroke="#000" stroke-miterlimit="10"/><path d="M12.5 18.878c3.314 0 6-2.741 6-6.123 0-3.381-2.686-6.122-6-6.122s-6 2.74-6 6.122c0 3.382 2.686 6.123 6 6.123z" stroke="#000" stroke-width="1.5" stroke-miterlimit="10"/><path d="M19.5 6.633c.828 0 1.5-.686 1.5-1.53 0-.846-.672-1.531-1.5-1.531s-1.5.685-1.5 1.53.672 1.53 1.5 1.53z" stroke="#000" stroke-width=".75" stroke-miterlimit="10"/></svg>