<svg width="25" height="25" fill="none" xmlns="http://www.w3.org/2000/svg"><path d="M21.5.51h-18c-1.657 0-3 1.37-3 3.061V21.43c0 1.69 1.343 3.06 3 3.06h18c1.657 0 3-1.37 3-3.06V3.57c0-1.69-1.343-3.06-3-3.06z" stroke="#000" stroke-miterlimit="10"/><path d="M12.71 18.602c2.58 0 1.66-1.663 1.86-2.143v-.908c.518.234.98.583 1.35 1.02 1.22 1.266 1.54 2.041 2.53 2.041h1.82a1.18 1.18 0 001-.449 1.177 1.177 0 00.13-1.091c-.4-1.307-2.78-3.551-2.92-3.796l.07-.133a21.081 21.081 0 002.55-4.46 1.143 1.143 0 00-.12-1.02 1.15 1.15 0 00-1-.408h-1.79a1.33 1.33 0 00-.8.238 1.374 1.374 0 00-.51.67 13.06 13.06 0 01-2.32 3.847V9.561c0-1.153.11-2.285-1.07-2.285h-2.85a.987.987 0 00-.56.19c-.164.12-.289.286-.358.48A1.04 1.04 0 0010 9.06c.67.857.25 1.337.39 3.715a14.043 14.043 0 01-2.32-4.409 1.363 1.363 0 00-.473-.811 1.313 1.313 0 00-.877-.3H4.9a.98.98 0 00-.867.244 1.021 1.021 0 00-.323.857c0 1.551 3.36 10.204 9 10.204v.041zm-6-10.204c.16 0 .18 0 .3.347.72 2.184 2.35 5.408 3.54 5.408.89 0 .89-.939.89-1.286v-2.806a2.727 2.727 0 00-.6-1.673h2.6v3.847c0 1.02.83 1.673 2.11.337a16.322 16.322 0 002.36-4 .255.255 0 01.106-.147.246.246 0 01.174-.037H20a22.43 22.43 0 01-2.36 4.082 1.146 1.146 0 000 1.479l.31.347c.51.54 2.25 2.367 2.4 3.061h-1.93c-.37 0-.66-.55-1.75-1.683-1.09-1.133-1.62-1.378-2.21-1.378-1.12 0-1 .939-1 2.04v.92a2.49 2.49 0 01-.75.07C8 17.46 5 9.848 4.83 8.389l1.88.01z" fill="#000"/></svg>