<svg width="56" height="56" viewBox="0 0 56 56" fill="none" xmlns="http://www.w3.org/2000/svg">
<path d="M47.871 39.7419C47.871 38.397 47.2685 37.2012 46.3328 36.3729C46.7311 35.7939 46.9677 35.0939 46.9677 34.3397V33.8565C46.9677 33.469 46.9054 33.087 46.7826 32.7194L42.943 21.1987C41.9575 18.2434 39.2027 16.2581 36.0884 16.2581H33.0987C34.944 14.7668 36.129 12.488 36.129 9.93548V7.00361C36.129 3.14142 32.9867 0 29.1254 0H26.8746C23.0124 0 19.871 3.14142 19.871 7.00361V9.93548C19.871 12.488 21.056 14.7668 22.9013 16.2581H19.9116C16.7973 16.2581 14.0424 18.2434 13.057 21.1987L9.2174 32.7184C9.09456 33.0861 9.03224 33.469 9.03224 33.8556V34.3388C9.03224 35.0939 9.26798 35.7939 9.66721 36.3729C8.73147 37.2012 8.12902 38.397 8.12902 39.7419H4.51611V54.1935H18.9677V56H27.0968H28H37.0322V54.1935H51.4839V39.7419H47.871ZM46.0645 39.7419H40.6451C40.6451 38.8432 41.0904 38.0502 41.7661 37.557C42.2538 37.8 42.7993 37.9355 43.372 37.9355C43.9383 37.9355 44.4676 37.7919 44.9445 37.5579C45.6201 38.0511 46.0645 38.8432 46.0645 39.7419ZM45.0691 33.2911C45.1306 33.4735 45.1613 33.6641 45.1613 33.8556V34.3388C45.1613 34.7688 45.0023 35.159 44.7485 35.4679C44.3068 35.3243 43.8444 35.2258 43.3548 35.2258C42.8716 35.2258 42.4155 35.3225 41.9783 35.4634C41.869 35.327 41.7778 35.1734 41.7101 35.0045L38.3302 26.5548L42.1824 24.6292L45.0691 33.2911ZM40.4013 36.353C39.452 37.1813 38.8387 38.3862 38.8387 39.7419H37.0322V28.1752L40.0319 35.6756C40.1294 35.9195 40.2586 36.1417 40.4013 36.353ZM21.6774 7.00271C21.6774 4.13768 24.0086 1.80645 26.8746 1.80645H29.1254C31.9913 1.80645 34.3226 4.13768 34.3226 7.00361V7.35316C33.8321 6.93948 33.3913 6.45897 33.0201 5.90168C32.442 5.03368 31.4756 4.51613 30.4324 4.51613H25.5667C24.5244 4.51613 23.557 5.03368 22.9491 5.94774C22.596 6.47794 22.1624 6.94761 21.6774 7.35497V7.00271V7.00271ZM21.6774 9.93548V9.548C22.782 8.89677 23.7431 8.01252 24.4846 6.90155C24.7258 6.53935 25.1304 6.32258 25.5676 6.32258H30.4333C30.8695 6.32258 31.2751 6.53935 31.5479 6.94942C32.2605 8.01794 33.2188 8.89768 34.3226 9.548V9.93548C34.3226 13.421 31.4855 16.2581 28 16.2581C24.5144 16.2581 21.6774 13.421 21.6774 9.93548ZM31.3907 18.0645C30.8921 19.1141 29.568 19.871 28 19.871C26.432 19.871 25.1079 19.1141 24.6093 18.0645H28H31.3907ZM10.8387 33.8565C10.8387 33.6641 10.8694 33.4735 10.9308 33.2911L13.8175 24.6292L17.6698 26.5557L14.2899 35.0045C14.2222 35.1734 14.131 35.3279 14.0208 35.4643C13.5845 35.3225 13.1284 35.2258 12.6451 35.2258C12.1556 35.2258 11.6931 35.3243 11.2515 35.4688C10.9977 35.1599 10.8387 34.7697 10.8387 34.3397V33.8565ZM11.0555 37.5579C11.5333 37.7919 12.0617 37.9355 12.628 37.9355C13.2006 37.9355 13.7462 37.8 14.233 37.557C14.9095 38.0502 15.3548 38.8432 15.3548 39.7419H9.93547C9.93547 38.8432 10.3799 38.0511 11.0555 37.5579ZM18.9677 52.3871H6.32256V41.5484H8.12902V43.3548H9.93547V41.5484H15.3548V43.3548H17.1613V41.5484H18.9677V52.3871ZM18.9677 39.7419H17.1613C17.1613 38.3853 16.548 37.1813 15.5978 36.353C15.7405 36.1417 15.8697 35.9195 15.9681 35.6747L18.9677 28.1743V39.7419ZM27.0968 54.1935H20.7742V52.3871H27.0968V54.1935ZM35.2258 54.1935H28.9032V52.3871H35.2258V54.1935ZM35.2258 50.5806H28.9032V40.6452H27.0968V50.5806H20.7742V41.4572C22.8326 41.0372 24.3871 39.2126 24.3871 37.0323H31.6129C31.6129 39.2126 33.1673 41.0372 35.2258 41.4572V50.5806ZM20.7742 39.5757V37.0323H22.5806C22.5806 38.2083 21.8228 39.2018 20.7742 39.5757ZM35.2258 39.5757C34.1762 39.2018 33.4193 38.2083 33.4193 37.0323H35.2258V39.5757ZM35.2258 22.5806V35.2258H20.7742V22.5806H18.9677V23.3095L18.3427 24.8712L14.3938 22.8968L14.7695 21.7695C15.5093 19.553 17.5759 18.0645 19.9116 18.0645H22.6899C23.193 20.123 25.3824 21.6774 28 21.6774C30.6175 21.6774 32.8061 20.123 33.3101 18.0645H36.0884C38.4241 18.0645 40.4907 19.553 41.2295 21.7705L41.6053 22.8977L37.6564 24.8721L37.0322 23.3095V22.5806H35.2258ZM49.6774 52.3871H37.0322V41.5484H38.8387V43.3548H40.6451V41.5484H46.0645V43.3548H47.871V41.5484H49.6774V52.3871Z" fill="#B38339"/>
</svg>
