<svg width="56" height="56" viewBox="0 0 56 56" fill="none" xmlns="http://www.w3.org/2000/svg">
<g clip-path="url(#clip0_71_4993)">
<path d="M55.1707 54.3606H53.837V49.4085C53.837 48.1195 52.9219 47.0405 51.7074 46.7864V43.8901C51.7074 42.7015 50.9293 41.6919 49.8558 41.3424L49.1495 38.9507C49.0056 38.4634 48.6845 38.0599 48.2701 37.8017V36.8067C48.2701 36.3539 47.9031 35.9871 47.4505 35.9871C46.9978 35.9871 46.6308 36.3539 46.6308 36.8067V37.493H44.1744V36.8067C44.1744 36.3539 43.8074 35.9871 43.3547 35.9871C42.902 35.9871 42.535 36.3539 42.535 36.8067V37.8017C42.1207 38.0598 41.7996 38.4633 41.6557 38.9506L40.9881 41.2109H37.3343C37.7582 40.5987 38.0074 39.8567 38.0074 39.0572V34.3667H38.7107C39.9269 34.3667 40.9591 33.5653 41.3079 32.4629H43.6631C44.0119 33.5652 45.0441 34.3666 46.2602 34.3666H49.5047C51.0063 34.3666 52.2281 33.1448 52.2281 31.6432C52.2281 30.1415 51.0063 28.9198 49.5047 28.9198H46.2602C45.044 28.9198 44.0117 29.7212 43.6631 30.8235H41.3078C40.959 29.7212 39.9268 28.9199 38.7107 28.9199H38.0074V28.5806C38.0074 26.7632 36.7224 25.2409 35.0134 24.8729V22.3162C35.0134 20.2004 34.0582 18.3044 32.5574 17.0337H40.988L41.6555 19.294C41.7995 19.7814 42.1206 20.1849 42.5349 20.443V26.4797C42.5349 26.9325 42.9019 27.2993 43.3546 27.2993C43.8073 27.2993 44.1743 26.9325 44.1743 26.4797V20.7516H46.6307V26.4797C46.6307 26.9325 46.9977 27.2993 47.4503 27.2993C47.903 27.2993 48.27 26.9325 48.27 26.4797V20.443C48.6843 20.185 49.0054 19.7815 49.1494 19.294L49.8169 17.0337H52.3648C53.5165 17.0337 54.4535 16.0967 54.4535 14.945V12.105C54.4535 11.0168 53.6166 10.1214 52.5528 10.0259L29.3487 0.269514C28.4907 -0.091145 27.5073 -0.0897242 26.6505 0.27312L3.62911 10.026C2.56583 10.122 1.72964 11.0172 1.72964 12.1051V14.9451C1.72964 16.0968 2.66659 17.0338 3.8183 17.0338H6.47548L7.14302 19.2941C7.28696 19.7816 7.60805 20.1851 8.02237 20.4431V26.4798C8.02237 26.9326 8.38937 27.2994 8.84205 27.2994C9.29473 27.2994 9.66173 26.9326 9.66173 26.4798V20.7517H12.1181V26.4798C12.1181 26.9326 12.4851 27.2994 12.9378 27.2994C13.3905 27.2994 13.7575 26.9326 13.7575 26.4798V20.4431C14.1718 20.1851 14.4929 19.7816 14.6369 19.2941L15.3044 17.0338H17.5778C18.0304 17.0338 18.3974 16.6669 18.3974 16.2141C18.3974 15.7613 18.0304 15.3944 17.5778 15.3944H3.81841C3.57064 15.3944 3.36911 15.1928 3.36911 14.9451V12.1051C3.36911 11.8579 3.56999 11.6566 3.81709 11.6559C3.81939 11.6559 3.82157 11.6558 3.82387 11.6558H37.5221C37.9748 11.6558 38.3417 11.2889 38.3417 10.8362C38.3417 10.3834 37.9748 10.0165 37.5221 10.0165H7.85461L27.2902 1.78264C27.742 1.59116 28.2607 1.5904 28.7134 1.78078L48.3006 10.0165H41.0152C40.5625 10.0165 40.1955 10.3834 40.1955 10.8362C40.1955 11.2889 40.5625 11.6558 41.0152 11.6558H52.3602C52.3616 11.6558 52.3632 11.6561 52.3646 11.6561C52.365 11.6561 52.3656 11.6559 52.366 11.6559C52.6132 11.6565 52.8143 11.8578 52.8143 12.1051V14.9451C52.8143 15.1929 52.6128 15.3944 52.365 15.3944H21.0711C20.6184 15.3944 20.2514 15.7613 20.2514 16.2141C20.2514 16.6669 20.6184 17.0338 21.0711 17.0338H23.6258C22.1251 18.3045 21.1698 20.2005 21.1698 22.3164V24.8382C19.3701 25.1333 17.9924 26.6988 17.9924 28.5806V28.9198H17.1446C15.9284 28.9198 14.8962 29.7212 14.5476 30.8235H12.1922C11.8435 29.7212 10.8112 28.9198 9.59517 28.9198H6.35067C4.84901 28.9198 3.62726 30.1415 3.62726 31.6432C3.62726 33.1448 4.84901 34.3666 6.35067 34.3666H9.59517C10.8114 34.3666 11.8436 33.5652 12.1922 32.4629H14.5476C14.8963 33.5652 15.9286 34.3666 17.1446 34.3666H17.9924V39.0572C17.9924 39.8567 18.2416 40.5987 18.6655 41.2109H15.3044L14.6369 38.9505C14.4929 38.4631 14.1717 38.0598 13.7575 37.8016V36.8066C13.7575 36.3538 13.3905 35.987 12.9378 35.987C12.4851 35.987 12.1181 36.3538 12.1181 36.8066V37.4929H9.66184V36.8066C9.66184 36.3538 9.29484 35.987 8.84216 35.987C8.38948 35.987 8.02248 36.3538 8.02248 36.8066V37.8016C7.60816 38.0596 7.28707 38.4631 7.14313 38.9506L6.44739 41.3064C5.31252 41.6176 4.4759 42.6576 4.4759 43.8899V46.7862C3.26135 47.0404 2.34637 48.1193 2.34637 49.4083V54.3604H0.8292C0.376519 54.3604 0.00952148 54.7273 0.00952148 55.1801C0.00952148 55.6329 0.376519 55.9998 0.8292 55.9998H55.1707C55.6234 55.9998 55.9904 55.6329 55.9904 55.1801C55.9904 54.7273 55.6234 54.3606 55.1707 54.3606V54.3606ZM47.5773 18.8299C47.5282 18.9962 47.3728 19.1124 47.1993 19.1124H43.6061C43.4326 19.1124 43.2771 18.9962 43.228 18.8299L42.6975 17.0339H48.1078L47.5773 18.8299ZM13.0648 18.8299C13.0156 18.9961 12.8602 19.1124 12.6868 19.1124H9.09342C8.91998 19.1124 8.76457 18.9962 8.71539 18.8299L8.18489 17.0339H13.5952L13.0648 18.8299ZM43.2279 39.4152C43.2771 39.2488 43.4325 39.1325 43.6059 39.1325H47.1992C47.3726 39.1325 47.5281 39.2487 47.5772 39.4151L48.1077 41.2111H42.6974L43.2279 39.4152ZM46.2603 30.5593H49.5048C50.1025 30.5593 50.5888 31.0455 50.5888 31.6433C50.5888 32.2411 50.1025 32.7274 49.5048 32.7274H46.2603C45.6626 32.7274 45.1762 32.2411 45.1762 31.6433C45.1762 31.0455 45.6626 30.5593 46.2603 30.5593ZM38.7107 30.5594C39.3084 30.5594 39.7948 31.0456 39.7948 31.6433C39.7948 32.2411 39.3084 32.7275 38.7107 32.7275H38.0074V30.5594H38.7107ZM28.0917 17.0339C31.0044 17.0339 33.3742 19.4037 33.3742 22.3165V24.7876H31.7348V22.3165C31.7348 20.3076 30.1005 18.6734 28.0917 18.6734C26.083 18.6734 24.4486 20.3076 24.4486 22.3165V24.7876H22.8093V22.3165C22.8093 19.4035 25.1789 17.0339 28.0917 17.0339ZM26.088 24.7876V22.3165C26.088 21.2116 26.9869 20.3127 28.0917 20.3127C29.1965 20.3127 30.0955 21.2116 30.0955 22.3165V24.7876H26.088ZM9.59517 32.7274H6.35067C5.75296 32.7274 5.26661 32.2411 5.26661 31.6433C5.26661 31.0455 5.75296 30.5593 6.35067 30.5593H9.59517C10.1929 30.5593 10.6792 31.0455 10.6792 31.6433C10.6792 32.2411 10.193 32.7274 9.59517 32.7274ZM17.1447 32.7274C16.547 32.7274 16.0607 32.2411 16.0607 31.6433C16.0607 31.0455 16.547 30.5593 17.1447 30.5593H17.9925V32.7274H17.1447ZM19.6319 39.0574V28.5807C19.6319 27.3931 20.598 26.427 21.7855 26.427H34.2145C35.4021 26.427 36.3682 27.3931 36.3682 28.5807V39.0574C36.3682 40.2449 35.4021 41.211 34.2145 41.211H21.7855C20.598 41.211 19.6319 40.2449 19.6319 39.0574V39.0574ZM8.71539 39.4151C8.76457 39.2488 8.91998 39.1325 9.09342 39.1325H12.6867C12.8601 39.1325 13.0156 39.2487 13.0647 39.4151L13.5952 41.2111H8.18489L8.71539 39.4151ZM3.98573 49.4085C3.98573 48.8352 4.45218 48.3688 5.02541 48.3688H10.9979C11.4506 48.3688 11.8176 48.0019 11.8176 47.5491C11.8176 47.0963 11.4506 46.7294 10.9979 46.7294H6.11525V43.8901C6.11525 43.3168 6.58171 42.8504 7.15494 42.8504H49.0284C49.6017 42.8504 50.0681 43.3168 50.0681 43.8901V46.7294H14.4911C14.0384 46.7294 13.6714 47.0963 13.6714 47.5491C13.6714 48.0019 14.0384 48.3688 14.4911 48.3688H51.158C51.7313 48.3688 52.1977 48.8352 52.1977 49.4085V54.3606H3.98573V49.4085Z" fill="#B38339"/>
<path d="M25.3918 6.02642C25.3918 7.54523 26.6275 8.78087 28.1463 8.78087C29.6651 8.78087 30.9008 7.54523 30.9008 6.02642C30.9008 4.50761 29.6651 3.27197 28.1463 3.27197C26.6275 3.27197 25.3918 4.5075 25.3918 6.02642V6.02642ZM29.2614 6.02642C29.2614 6.64129 28.7612 7.14151 28.1463 7.14151C27.5314 7.14151 27.0312 6.64129 27.0312 6.02642C27.0312 5.41155 27.5314 4.91133 28.1463 4.91133C28.7612 4.91133 29.2614 5.41155 29.2614 6.02642Z" fill="#B38339"/>
<path d="M30.2687 29.8715C29.649 29.2835 28.8366 28.9843 27.9813 29.0293C26.3731 29.1137 25.0913 30.4426 25.0632 32.0545C25.0521 32.6961 25.2403 33.3178 25.5987 33.8424L25.269 35.898C25.1819 36.441 25.3365 36.9924 25.6932 37.4108C26.0498 37.8293 26.5698 38.0693 27.1196 38.0693H29.1729C29.7227 38.0693 30.2427 37.8293 30.5993 37.4108C30.9559 36.9924 31.1106 36.441 31.0235 35.8981L30.6938 33.8422C31.0417 33.3327 31.2298 32.7302 31.2298 32.1086C31.23 31.2666 30.8796 30.4512 30.2687 29.8715V29.8715ZM29.0189 33.7501L29.405 36.1578C29.42 36.251 29.3781 36.3166 29.3518 36.3473C29.3255 36.3781 29.2674 36.4299 29.173 36.4299H27.1197C27.0253 36.4299 26.9672 36.3781 26.9409 36.3473C26.9146 36.3166 26.8727 36.2509 26.8877 36.1577L27.2738 33.7501C27.3131 33.5055 27.2396 33.2563 27.0739 33.0722C26.828 32.7988 26.696 32.4474 26.7024 32.083C26.7153 31.3407 27.3276 30.7054 28.0673 30.6664C28.0937 30.665 28.1201 30.6643 28.1463 30.6643C28.5189 30.6643 28.8693 30.8034 29.1403 31.0607C29.4308 31.3362 29.5907 31.7085 29.5907 32.1086C29.5907 32.4635 29.4587 32.8056 29.2189 33.072C29.0532 33.2563 28.9796 33.5054 29.0189 33.7501V33.7501Z" fill="#B38339"/>
</g>
<defs>
<clipPath id="clip0_71_4993">
<rect width="56" height="56" fill="white"/>
</clipPath>
</defs>
</svg>
