<svg width="56" height="56" viewBox="0 0 56 56" fill="none" xmlns="http://www.w3.org/2000/svg">
<path d="M14.8652 50.5361C14.4862 48.3418 12.5682 46.6665 10.2666 46.6665C8.42887 46.6665 6.83659 47.7342 6.07589 49.2817C5.92561 49.1744 5.76505 49.0791 5.59989 48.9932V33.5998C5.59989 33.0846 5.18175 32.6665 4.66659 32.6665C4.15144 32.6665 3.7333 33.0846 3.7333 33.5998V48.5331C1.67442 48.5331 0 50.2075 0 52.2665C0 54.3255 1.67442 55.9998 3.7333 55.9998H14C15.5437 55.9998 16.8 54.7435 16.8 53.1998C16.8 51.9575 15.987 50.9019 14.8652 50.5361ZM14 54.1331H3.7333C2.70386 54.1331 1.86659 53.2959 1.86659 52.2664C1.86659 51.2368 2.70386 50.3998 3.7333 50.3998C4.60414 50.3998 5.37786 50.9057 5.65873 51.6598C5.81645 52.0826 6.2533 52.3318 6.69944 52.2515C7.14372 52.1712 7.46659 51.7848 7.46659 51.3331C7.46659 49.7894 8.72287 48.5331 10.2666 48.5331C11.8103 48.5331 13.0666 49.7894 13.0666 51.3331C13.0666 51.8483 13.4847 52.2664 13.9999 52.2664C14.5142 52.2664 14.9332 52.6854 14.9332 53.1997C14.9332 53.714 14.5143 54.1331 14 54.1331Z" fill="#B38339"/>
<path d="M55.0667 7.4667H37.3333C36.8181 7.4667 36.4 7.88484 36.4 8.4C36.4 8.91516 36.8181 9.3333 37.3333 9.3333H54.1333V29.4803L28.6599 4.00684C28.4769 3.82386 28.237 3.73341 27.9972 3.73341C27.7573 3.73341 27.5174 3.82397 27.3345 4.00684L1.8667 29.4793V9.3333H12.1334C12.6486 9.3333 13.0667 8.91516 13.0667 8.4V4.6667C13.0667 4.15155 12.6486 3.73341 12.1334 3.73341H11.2V1.8667H16.8V3.73341H15.8667C15.3515 3.73341 14.9334 4.15155 14.9334 4.6667V8.4C14.9334 8.91516 15.3515 9.3333 15.8667 9.3333H18.6667C19.1819 9.3333 19.6 8.91516 19.6 8.4C19.6 7.88484 19.1819 7.4667 18.6667 7.4667H16.8V5.6H17.7333C18.2485 5.6 18.6666 5.18186 18.6666 4.6667V0.933297C18.6666 0.418141 18.2485 0 17.7333 0H10.2667C9.75155 0 9.33341 0.418141 9.33341 0.933297V4.66659C9.33341 5.18175 9.75155 5.59989 10.2667 5.59989H11.2V7.46659H0.933297C0.686 7.46659 0.448 7.56459 0.273438 7.74003C0.098 7.9147 0 8.1527 0 8.4L0.00371875 31.7333C0.00371875 32.1113 0.231438 32.451 0.580563 32.5957C0.696281 32.6433 0.816703 32.6667 0.937125 32.6667C1.1807 32.6667 1.41969 32.5715 1.59698 32.3933L27.9972 5.98358L54.4067 32.3932C54.585 32.5714 54.8239 32.6666 55.0666 32.6666C55.187 32.6666 55.3083 32.6433 55.424 32.5956C55.7722 32.4509 55.9999 32.1103 55.9999 31.7332V8.4C56 7.88484 55.5819 7.4667 55.0667 7.4667Z" fill="#B38339"/>
<path d="M52.2666 48.5331V33.5998C52.2666 33.0846 51.8485 32.6665 51.3333 32.6665C50.8182 32.6665 50.4 33.0846 50.4 33.5998V48.9932C50.2349 49.0791 50.0743 49.1743 49.924 49.2817C49.1633 47.7342 47.571 46.6665 45.7333 46.6665C43.4317 46.6665 41.5137 48.3418 41.1348 50.5361C40.0129 50.9019 39.1999 51.9575 39.1999 53.1998C39.1999 53.5292 39.2671 53.8401 39.3726 54.1331H23.3332C22.818 54.1331 22.3999 54.5512 22.3999 55.0664C22.3999 55.5816 22.818 55.9997 23.3332 55.9997H41.9999H45.7332H52.2665C54.3255 55.9998 55.9999 54.3254 55.9999 52.2665C55.9999 50.2076 54.3255 48.5331 52.2666 48.5331ZM52.2666 54.1331H45.7333H41.9999C41.4856 54.1331 41.0666 53.7141 41.0666 53.1998C41.0666 52.6855 41.4856 52.2665 41.9999 52.2665C42.5151 52.2665 42.9332 51.8484 42.9332 51.3332C42.9332 49.7895 44.1895 48.5332 45.7332 48.5332C47.2769 48.5332 48.5332 49.7895 48.5332 51.3332C48.5332 51.7849 48.8562 52.1713 49.3004 52.2516C49.7437 52.3328 50.1833 52.0826 50.3411 51.6599C50.6219 50.9058 51.3958 50.3999 52.2665 50.3999C53.2959 50.3999 54.1332 51.2371 54.1332 52.2666C54.1332 53.2962 53.2961 54.1331 52.2666 54.1331Z" fill="#B38339"/>
<path d="M31.7332 18.6669C31.7332 16.6079 30.0588 14.9336 27.9999 14.9336C25.9409 14.9336 24.2666 16.608 24.2666 18.6669C24.2666 20.7258 25.9409 22.4002 27.9999 22.4002C30.0589 22.4002 31.7332 20.7258 31.7332 18.6669ZM26.1332 18.6669C26.1332 17.6375 26.9704 16.8002 27.9999 16.8002C29.0293 16.8002 29.8666 17.6373 29.8666 18.6669C29.8666 19.6963 29.0294 20.5336 27.9999 20.5336C26.9705 20.5335 26.1332 19.6963 26.1332 18.6669Z" fill="#B38339"/>
<path d="M45.7334 31.7334H38.2667C37.7515 31.7334 37.3334 32.1515 37.3334 32.6667V42.9334H36.4001C35.8849 42.9334 35.4668 43.3515 35.4668 43.8667C35.4668 44.3819 35.8849 44.8 36.4001 44.8H47.6001C48.1153 44.8 48.5334 44.3819 48.5334 43.8667C48.5334 43.3515 48.1153 42.9334 47.6001 42.9334H46.6668V32.6667C46.6668 32.1515 46.2487 31.7334 45.7334 31.7334ZM44.8001 42.9334H39.2001V39.2001H44.8001V42.9334ZM44.8001 37.3334H39.2001V33.6001H44.8001V37.3334Z" fill="#B38339"/>
<path d="M37.3332 51.3333C37.3332 50.8181 36.9151 50.4 36.3999 50.4H33.5999V32.6667C33.5999 32.1515 33.1818 31.7334 32.6666 31.7334H23.3333C22.8182 31.7334 22.4 32.1515 22.4 32.6667V50.4H19.6C19.0849 50.4 18.6667 50.8181 18.6667 51.3333V55.0666C18.6667 55.5817 19.0849 55.9999 19.6 55.9999C20.1152 55.9999 20.5333 55.5817 20.5333 55.0666V52.2666H36.3999C36.9151 52.2667 37.3332 51.8486 37.3332 51.3333ZM31.7332 41.0667H30.7999C30.2848 41.0667 29.8666 41.4848 29.8666 42C29.8666 42.5151 30.2848 42.9333 30.7999 42.9333H31.7332V50.4H24.2665V33.6H31.7332V41.0667V41.0667Z" fill="#B38339"/>
<path d="M17.7334 31.7334H10.2668C9.75164 31.7334 9.3335 32.1515 9.3335 32.6667V42.9334H8.40009C7.88494 42.9334 7.4668 43.3515 7.4668 43.8667C7.4668 44.3819 7.88494 44.8001 8.40009 44.8001H19.6001C20.1152 44.8001 20.5334 44.382 20.5334 43.8668C20.5334 43.3516 20.1152 42.9335 19.6001 42.9335H18.6668V32.6668C18.6668 32.1515 18.2487 31.7334 17.7334 31.7334ZM16.8001 42.9334H11.2001V39.2001H16.8001V42.9334ZM16.8001 37.3334H11.2001V33.6001H16.8001V37.3334Z" fill="#B38339"/>
</svg>
