<svg width="56" height="56" viewBox="0 0 56 56" fill="none" xmlns="http://www.w3.org/2000/svg">
<g clip-path="url(#clip0_55_4690)">
<path d="M23.008 49.6439L22.8435 50.4476L23.002 49.6431C22.5577 49.5555 22.1262 49.8447 22.0386 50.2891C21.951 50.7338 22.2402 51.1649 22.685 51.2525C22.6863 51.2529 22.6987 51.2551 22.7 51.2555C22.7521 51.2653 22.8038 51.2705 22.855 51.2705C23.2409 51.2705 23.5848 50.997 23.6596 50.604C23.745 50.1588 23.4532 49.729 23.008 49.6439Z" fill="#B38339"/>
<path d="M29.28 49.9074L29.3616 50.7234L29.2774 49.9078C28.8267 49.9539 28.499 50.3568 28.5455 50.8076C28.5887 51.2297 28.945 51.5441 29.3603 51.5441C29.3885 51.5441 29.4171 51.5424 29.4453 51.5399L29.468 51.5373C29.9166 51.4848 30.2349 51.0802 30.1849 50.6316C30.1345 50.1834 29.7286 49.8604 29.28 49.9074V49.9074Z" fill="#B38339"/>
<path d="M26.1397 50.011C26.1397 50.011 26.1282 50.0106 26.1278 50.0106C25.6757 49.9901 25.2981 50.3413 25.2775 50.7938C25.2575 51.2462 25.6129 51.6295 26.0654 51.65C26.0782 51.6508 26.0906 51.6508 26.1034 51.6508C26.5392 51.6508 26.9024 51.3077 26.922 50.8677C26.9425 50.4152 26.5926 50.0316 26.1397 50.011V50.011Z" fill="#B38339"/>
<path d="M19.978 48.8104L19.9677 48.8065C19.5413 48.6536 19.0765 48.8766 18.9235 49.303C18.7702 49.7294 18.9966 50.2011 19.423 50.3545C19.5149 50.3874 19.6084 50.4027 19.7003 50.4027C20.0365 50.4027 20.3523 50.1947 20.4723 49.8597C20.6257 49.4333 20.4044 48.9633 19.978 48.8104V48.8104Z" fill="#B38339"/>
<path d="M32.3758 49.3334L32.5779 50.1285L32.3733 49.3342C31.9345 49.447 31.6705 49.8943 31.7832 50.3331C31.8785 50.7031 32.2118 50.9492 32.5771 50.9492C32.645 50.9492 32.7138 50.9406 32.7826 50.9227C32.786 50.9218 32.8005 50.918 32.8044 50.9171C33.2397 50.7984 33.4944 50.351 33.3782 49.9148C33.262 49.479 32.8129 49.2197 32.3758 49.3334V49.3334Z" fill="#B38339"/>
<path d="M35.3413 48.2987L35.6664 49.0515L35.3387 48.2996C34.9234 48.4807 34.7333 48.964 34.914 49.3792C35.0486 49.6881 35.3502 49.8723 35.6668 49.8723C35.7758 49.8723 35.8873 49.8501 35.9937 49.8039C35.9971 49.8022 36.0103 49.7967 36.0138 49.7949C36.4252 49.6091 36.6068 49.1272 36.4231 48.7149C36.2393 48.3022 35.7548 48.1172 35.3413 48.2987V48.2987Z" fill="#B38339"/>
<path d="M16.8446 10.9045C16.9762 10.9045 17.1099 10.8729 17.2334 10.8071C17.6333 10.5939 17.7841 10.097 17.5709 9.69708C17.3577 9.29761 16.8613 9.14593 16.4614 9.35956L16.4516 9.36468C16.0521 9.57788 15.9055 10.0722 16.1187 10.4721C16.2657 10.7481 16.5511 10.9045 16.8446 10.9045Z" fill="#B38339"/>
<path d="M7.35589 20.0667C7.47766 20.1304 7.60797 20.1607 7.73657 20.1607C8.0318 20.1607 8.3172 20.0009 8.46374 19.7211L8.47827 19.6925C8.67822 19.2857 8.51074 18.794 8.104 18.5944C7.70025 18.3953 7.21234 18.5594 7.00983 18.9606C6.80047 19.3613 6.95514 19.8565 7.35589 20.0667Z" fill="#B38339"/>
<path d="M6.20103 23.1529C6.28819 23.1824 6.37663 23.1965 6.46422 23.1965C6.80601 23.1965 7.12517 22.9807 7.24095 22.6389L7.25163 22.6065C7.38493 22.1737 7.14183 21.7144 6.7086 21.5815C6.27922 21.4491 5.82335 21.6875 5.6862 22.1147C5.54222 22.5432 5.7725 23.0081 6.20103 23.1529Z" fill="#B38339"/>
<path d="M8.97434 17.1972C9.12003 17.3031 9.28879 17.3544 9.45627 17.3544C9.70963 17.3544 9.95999 17.2369 10.1202 17.0165L10.1309 17.0019C10.3941 16.6337 10.3082 16.1227 9.94077 15.8595C9.57291 15.5959 9.06021 15.6805 8.79617 16.0479L9.45712 16.5341L8.79361 16.0513C8.52701 16.4179 8.60819 16.931 8.97434 17.1972Z" fill="#B38339"/>
<path d="M14.0598 12.6765C14.232 12.6765 14.4055 12.6222 14.5537 12.5094C14.9195 12.242 14.9985 11.7288 14.731 11.3631C14.4632 10.9974 13.95 10.9183 13.5847 11.1858L13.5642 11.2008C13.2036 11.4746 13.1319 11.9903 13.4057 12.3513C13.5672 12.5641 13.812 12.6765 14.0598 12.6765Z" fill="#B38339"/>
<path d="M5.46875 35.5935C5.57727 35.9459 5.90112 36.172 6.25147 36.172C6.33136 36.172 6.41296 36.16 6.49329 36.1352C6.92395 36.0032 7.16705 35.5469 7.03803 35.1154C6.91455 34.6847 6.46808 34.4318 6.03357 34.5501C5.5965 34.6693 5.33887 35.1205 5.45807 35.5576C5.46063 35.5661 5.46619 35.5849 5.46875 35.5935Z" fill="#B38339"/>
<path d="M11.5818 14.8382C11.795 14.8382 12.0082 14.7558 12.1692 14.5917C12.4892 14.2713 12.4892 13.7517 12.1692 13.4317C11.8488 13.1113 11.3293 13.1113 11.0088 13.4317L10.9952 13.4454C10.6781 13.7688 10.6846 14.2875 11.008 14.6045C11.1673 14.7609 11.3746 14.8382 11.5818 14.8382Z" fill="#B38339"/>
<path d="M6.37537 32.0168C6.31769 31.5712 5.91052 31.2551 5.46448 31.308C5.01502 31.3619 4.69373 31.7699 4.74713 32.2198L4.75183 32.2527C4.81165 32.6603 5.16156 32.9525 5.56189 32.9525C5.6012 32.9525 5.64136 32.9495 5.68195 32.9435C6.12842 32.8786 6.43817 32.4633 6.37537 32.0168Z" fill="#B38339"/>
<path d="M5.3449 29.6674C5.35344 29.6674 5.36156 29.6678 5.36968 29.6678C5.81145 29.6678 6.17632 29.3162 6.18914 28.8715L6.18999 28.8364C6.18999 28.3831 5.82256 28.0161 5.36968 28.0161C4.91979 28.0161 4.55492 28.3776 4.54937 28.8257C4.5374 29.2778 4.8933 29.6542 5.3449 29.6674V29.6674Z" fill="#B38339"/>
<path d="M5.52477 26.3777C5.57391 26.3862 5.62218 26.3905 5.67046 26.3905C6.06011 26.3905 6.40575 26.1115 6.4771 25.7146C6.47924 25.7026 6.48095 25.6906 6.48266 25.6787C6.54888 25.2305 6.23913 24.8135 5.79052 24.7477C5.34747 24.6819 4.93261 24.9865 4.86126 25.4283C4.7835 25.8735 5.08001 26.2978 5.52477 26.3777Z" fill="#B38339"/>
<path d="M44.2203 17.456C44.3792 17.6868 44.6347 17.8102 44.8953 17.8102C45.0555 17.8102 45.2179 17.7632 45.3597 17.6654C45.7327 17.409 45.8272 16.8981 45.5708 16.5247L44.8889 16.9809L45.5682 16.5208C45.3136 16.1457 44.8035 16.0478 44.4288 16.3021C44.0536 16.5563 43.9558 17.0664 44.21 17.4415L44.2203 17.456Z" fill="#B38339"/>
<path d="M48.4095 25.7108C47.9592 25.7612 47.6353 26.1675 47.6862 26.6178L47.6904 26.6533C47.749 27.0621 48.1002 27.3574 48.5018 27.3574C48.5402 27.3574 48.5795 27.3548 48.6188 27.3493C49.0636 27.2856 49.3738 26.8759 49.3161 26.4315C49.2644 25.9825 48.8568 25.6603 48.4095 25.7108Z" fill="#B38339"/>
<path d="M47.0252 23.396L47.0286 23.4067C47.1337 23.7643 47.4606 23.9959 47.8152 23.9959C47.8917 23.9959 47.9694 23.9852 48.0468 23.9621C48.4817 23.8344 48.7304 23.3785 48.6026 22.9436L48.5992 22.9329C48.4714 22.4979 48.0156 22.2493 47.5806 22.3775C47.1461 22.5052 46.8975 22.9611 47.0252 23.396V23.396Z" fill="#B38339"/>
<path d="M45.8665 20.3286C46.0096 20.6196 46.3023 20.7892 46.6065 20.7892C46.7274 20.7892 46.8505 20.7623 46.9662 20.705C47.3726 20.5051 47.5413 20.0163 47.3409 19.6096L46.5975 19.9561L47.3401 19.6079C47.1478 19.1977 46.6595 19.0213 46.2493 19.2135C45.8392 19.4058 45.6623 19.8941 45.8545 20.3043L45.8665 20.3286Z" fill="#B38339"/>
<path d="M42.1542 14.8945C42.3149 15.0585 42.5272 15.1406 42.74 15.1406C42.9472 15.1406 43.1544 15.0628 43.3142 14.906C43.6355 14.5916 43.6428 14.0776 43.333 13.7537C43.0258 13.4226 42.508 13.4025 42.1756 13.7093C41.8428 14.0165 41.8223 14.5356 42.1295 14.8684L42.1542 14.8945Z" fill="#B38339"/>
<path d="M48.676 29.136C48.2252 29.1245 47.848 29.4778 47.8322 29.9286C47.8117 30.3776 48.1564 30.76 48.6059 30.7852C48.6217 30.786 48.6367 30.7865 48.6525 30.7865C49.0844 30.7865 49.4463 30.4485 49.4707 30.0114L49.4719 29.9777C49.4847 29.5252 49.1284 29.1493 48.676 29.136V29.136Z" fill="#B38339"/>
<path d="M36.9085 10.8664L36.9282 10.8771C37.0504 10.942 37.1816 10.9728 37.3106 10.9728C37.6024 10.9728 37.8848 10.8155 38.0331 10.54C38.2467 10.1422 38.0963 9.64488 37.6998 9.42955L37.3029 10.1473L37.6972 9.42784C37.2999 9.20994 36.8013 9.35563 36.5834 9.75297C36.3659 10.1499 36.5112 10.6489 36.9085 10.8664V10.8664Z" fill="#B38339"/>
<path d="M39.683 12.6651L39.6958 12.6749C39.8441 12.7873 40.0179 12.8415 40.191 12.8415C40.4388 12.8415 40.6836 12.7296 40.8451 12.5168C41.1189 12.1558 41.048 11.6414 40.6874 11.3675L40.6819 11.3637C40.3226 11.0877 39.8077 11.1552 39.5317 11.5145C39.2557 11.8738 39.3237 12.3891 39.683 12.6651V12.6651Z" fill="#B38339"/>
<path d="M55.4937 41.5548L51.6429 37.6972C51.3153 37.3691 50.8799 37.1884 50.4163 37.1884C49.9532 37.1884 49.5174 37.3691 49.1901 37.6972L49.1008 37.7865L48.8479 37.5336C48.5356 37.2204 48.2938 36.856 48.1297 36.459C48.1152 36.4065 48.096 36.3552 48.0712 36.3069C47.9456 35.954 47.8802 35.5785 47.8802 35.1927V34.1015C47.955 34.1408 48.0366 34.1694 48.1241 34.1844C48.1711 34.1925 48.2177 34.1964 48.2639 34.1964C48.6531 34.1964 48.9974 33.9186 49.0696 33.5239C49.1572 33.0804 48.8697 32.6493 48.4258 32.5604C48.2305 32.5215 48.0374 32.5553 47.8751 32.6433C47.8246 31.4778 47.3483 30.3892 46.5194 29.5586L42.7836 25.8163C41.9453 24.9768 40.8306 24.5145 39.645 24.5145C38.7273 24.5145 37.8532 24.7927 37.1157 25.3075L36.7192 24.9089V15.5266C36.7192 14.3956 36.3087 13.3044 35.5635 12.4547C35.0333 11.8505 34.7415 11.0746 34.7415 10.2697V9.58228H34.7979C35.7541 9.58228 36.5321 8.80426 36.5321 7.84766V2.39087C36.5321 1.43427 35.7541 0.65625 34.7979 0.65625H19.4747C18.5186 0.65625 17.7405 1.43427 17.7405 2.39087V7.84766C17.7405 8.80426 18.5186 9.58228 19.4747 9.58228H19.6012V9.94202C19.6012 10.8264 19.2573 11.6578 18.6331 12.2829L16.9792 13.9398C16.1016 14.819 15.6184 15.9875 15.6184 17.2308V22.5231C15.6184 23.2422 15.791 23.9211 16.0948 24.5226C15.007 24.5855 13.9932 25.0388 13.2164 25.8163L9.48059 29.5586C8.60303 30.4379 8.11981 31.6068 8.11981 32.8497V35.1927C8.11981 36.0771 7.77631 36.9085 7.1521 37.5336L6.90216 37.7839C6.90088 37.7848 6.90002 37.7856 6.89917 37.7865L6.8103 37.6972C6.48261 37.3691 6.04724 37.1884 5.58368 37.1884C5.12054 37.1884 4.68475 37.3691 4.35748 37.6972L0.506287 41.5548C-0.168762 42.2311 -0.168762 43.3317 0.506287 44.0081L1.8252 45.3287C2.1452 45.6495 2.66473 45.65 2.98517 45.33C3.3056 45.0095 3.30646 44.4904 2.98602 44.1696L1.66754 42.8485C1.63037 42.8113 1.63037 42.7511 1.66754 42.7139L5.51874 38.8563C5.55463 38.8204 5.61316 38.82 5.64905 38.8563L6.31854 39.5271H6.31897L15.4608 48.6847L16.4849 49.7109C16.522 49.7481 16.522 49.8084 16.4849 49.8455L12.6341 53.7031C12.5978 53.7394 12.5392 53.7394 12.5034 53.7031L5.30853 46.4959C4.98853 46.1751 4.46899 46.1746 4.14856 46.4946C3.8277 46.8151 3.82727 47.3342 4.14728 47.655L11.3425 54.8622C11.6698 55.1904 12.1056 55.3711 12.5692 55.3711C13.0323 55.3711 13.4677 55.1904 13.7954 54.8622L17.6461 51.0046C18.3212 50.3287 18.3212 49.2282 17.6461 48.5518L17.6042 48.51L18.09 48.0233C18.6574 47.4547 19.4111 47.1129 20.2122 47.0612C21.3397 46.9881 22.4005 46.507 23.199 45.7068L26.7366 42.1615C27.7569 41.8936 28.5511 41.0626 28.7669 40.0219C29.1305 40.1949 29.5368 40.2923 29.9658 40.2923C31.5085 40.2923 32.7638 39.0358 32.7638 37.4908V35.543C33.1167 35.7041 33.5085 35.7947 33.9212 35.7947C35.464 35.7947 36.7188 34.5381 36.7188 32.9932V27.2348L39.2421 29.7705C39.4023 29.9316 39.613 30.0119 39.8236 30.0119C40.033 30.0119 40.2423 29.9324 40.4025 29.7731C40.7234 29.4535 40.7247 28.9344 40.4051 28.6131L38.3013 26.4991C38.7085 26.2748 39.1674 26.1552 39.645 26.1552C40.3918 26.1552 41.0942 26.4465 41.6223 26.9759L45.3582 30.7177C45.9264 31.2872 46.2396 32.0443 46.2396 32.8497V35.1927C46.2396 36.515 46.7535 37.7579 47.6866 38.6927L47.9413 38.9478L46.7514 40.1398L39.5549 47.3487L39.1537 46.9467C39.1494 46.9428 39.1456 46.9385 39.1413 46.9347L39.0708 46.8638C38.2214 46.0131 37.0931 45.5017 35.8942 45.424C35.1649 45.3765 34.4788 45.0655 33.9597 44.546L31.2642 41.865C30.9429 41.5454 30.4233 41.5467 30.1038 41.868C29.7846 42.1893 29.7859 42.7088 30.1072 43.028L32.801 45.7068C33.5995 46.507 34.6603 46.9881 35.7883 47.0612C36.5889 47.1129 37.3426 47.4547 37.91 48.0229L37.9497 48.0626C37.9711 48.087 37.9937 48.1096 38.0176 48.131L38.3958 48.5095L38.3539 48.5518C37.6788 49.2282 37.6788 50.3283 38.3539 51.0046L42.2047 54.8622C42.5324 55.1904 42.9677 55.3711 43.4313 55.3711C43.8944 55.3711 44.3302 55.1904 44.6579 54.8622L55.4937 44.0076C56.1688 43.3313 56.1688 42.2311 55.4937 41.5548V41.5548ZM48.4301 33.3978L48.4147 33.3953L48.2651 33.3649L48.4301 33.3978ZM22.0378 44.5477C21.5212 45.0655 20.8351 45.3765 20.1062 45.424C18.9069 45.5017 17.7786 46.0131 16.9292 46.8638L16.4451 47.3487L16.0093 46.9121C16.0038 46.9065 15.9982 46.9005 15.9927 46.8954L8.05872 38.9478L8.31336 38.6927C9.24646 37.7579 9.76044 36.515 9.76044 35.1927V32.8497C9.76044 32.0443 10.0732 31.2872 10.6418 30.7177L14.3777 26.9759C14.9058 26.4465 15.6082 26.1552 16.355 26.1552C16.8339 26.1552 17.2945 26.2756 17.7029 26.5016L15.5958 28.6122C15.2758 28.9327 15.2762 29.4522 15.5966 29.7722C15.7568 29.932 15.9666 30.0119 16.1764 30.0119C16.3866 30.0119 16.5968 29.9316 16.757 29.7714L19.2739 27.2498V37.4908C19.2739 39.0358 20.5292 40.2923 22.072 40.2923C22.5069 40.2923 22.9188 40.1923 23.2862 40.0146C23.4528 40.8276 23.9724 41.5129 24.6765 41.9034L22.0378 44.5477ZM35.0786 32.9937C35.0786 33.6337 34.5591 34.1545 33.9212 34.1545C33.2829 34.1545 32.7638 33.6337 32.7638 32.9937V23.8433C32.7638 23.3904 32.3968 23.023 31.9435 23.023C31.4902 23.023 31.1232 23.3904 31.1232 23.8433V37.4913C31.1232 38.1313 30.6041 38.6517 29.9658 38.6517C29.3928 38.6517 28.9173 38.2321 28.8254 37.6831V23.8339C28.8254 23.3806 28.4584 23.0136 28.0051 23.0136C27.8594 23.0136 27.7223 23.0521 27.6035 23.1187C27.3442 23.2567 27.1677 23.5293 27.1677 23.8433V37.4908C27.1677 37.5951 27.1737 37.6972 27.1848 37.7985V39.4515C27.1848 40.0915 26.6657 40.6123 26.0274 40.6123C25.3895 40.6123 24.8704 40.0915 24.8704 39.4515V23.8241C24.8704 23.3712 24.503 23.0038 24.0501 23.0038C23.5968 23.0038 23.2294 23.3712 23.2294 23.8241V37.4908C23.2294 38.1309 22.7103 38.6517 22.0724 38.6517C21.4341 38.6517 20.915 38.1309 20.915 37.4908V22.2318C20.915 21.7784 20.5475 21.411 20.0947 21.411C19.6414 21.411 19.2744 21.7784 19.2744 22.2318V25.0541C19.2056 25.0764 19.1389 25.1075 19.077 25.1486C18.0161 24.7499 17.259 23.7237 17.259 22.5231V17.2308C17.259 16.4255 17.5722 15.6684 18.1404 15.0989L19.7943 13.442C20.7278 12.5072 21.2418 11.2643 21.2418 9.94202V9.58228H22.891C23.3443 9.58228 23.7113 9.21484 23.7113 8.76196C23.7113 8.30866 23.3443 7.94165 22.891 7.94165H19.4747C19.423 7.94165 19.3812 7.89935 19.3812 7.84766V2.39087C19.3812 2.33917 19.423 2.29688 19.4747 2.29688H34.7975C34.8496 2.29688 34.8915 2.33917 34.8915 2.39087V7.84766C34.8915 7.89978 34.8496 7.94165 34.7975 7.94165H26.7422C26.2893 7.94165 25.9219 8.30866 25.9219 8.76196C25.9219 9.21484 26.2893 9.58228 26.7422 9.58228H33.1009V10.2697C33.1009 11.4728 33.5371 12.6328 34.3297 13.5369C34.8124 14.0872 35.0786 14.7938 35.0786 15.5266V32.9937ZM54.3325 42.8485L43.4966 53.7031C43.4787 53.7215 43.4569 53.7305 43.4313 53.7305C43.4061 53.7305 43.3843 53.7215 43.3659 53.7031L39.5151 49.8455C39.478 49.8084 39.478 49.7481 39.5151 49.7109L40.1351 49.0897L40.1355 49.0893L46.4258 42.7883L50.351 38.8563C50.3868 38.82 50.4454 38.82 50.4813 38.8563L54.3325 42.7139C54.3696 42.7511 54.3696 42.8113 54.3325 42.8485V42.8485Z" fill="#B38339"/>
<path d="M22.0719 4.24414C21.5904 4.24414 21.1986 4.63678 21.1986 5.11914C21.1986 5.60193 21.5904 5.99414 22.0719 5.99414C22.5538 5.99414 22.9456 5.60193 22.9456 5.11914C22.9456 4.63678 22.5538 4.24414 22.0719 4.24414Z" fill="#B38339"/>
<path d="M50.6845 41.6377C50.2026 41.6377 49.8108 42.0303 49.8108 42.5127C49.8108 42.9951 50.2026 43.3877 50.6845 43.3877C51.166 43.3877 51.5578 42.9951 51.5578 42.5127C51.5578 42.0303 51.166 41.6377 50.6845 41.6377Z" fill="#B38339"/>
<path d="M13.6701 50.0063C13.6701 49.524 13.2783 49.1313 12.7968 49.1313C12.3149 49.1313 11.9231 49.524 11.9231 50.0063C11.9231 50.4887 12.3149 50.8813 12.7968 50.8813C13.2783 50.8813 13.6701 50.4887 13.6701 50.0063Z" fill="#B38339"/>
</g>
<defs>
<clipPath id="clip0_55_4690">
<rect width="56" height="56" fill="white"/>
</clipPath>
</defs>
</svg>
