<svg width="56" height="56" viewBox="0 0 56 56" fill="none" xmlns="http://www.w3.org/2000/svg">
<path d="M28 3.45166C27.1478 3.45166 26.2953 3.6342 25.505 3.99907L13.5377 9.52165C13.35 9.6075 13.191 9.74534 13.0794 9.91889C12.9678 10.0924 12.9084 10.2944 12.9081 10.5007H7.52028C7.37801 10.5002 7.23704 10.5278 7.1055 10.582C6.97396 10.6362 6.85444 10.7158 6.75384 10.8164C6.65324 10.917 6.57355 11.0366 6.51935 11.1681C6.46516 11.2997 6.43754 11.4406 6.43808 11.5828V14.8506C4.84575 15.046 3.78518 16.7821 4.44211 18.2992L5.45272 20.63C5.53557 20.8229 5.67295 20.9875 5.84799 21.1034C6.02303 21.2194 6.22812 21.2816 6.43808 21.2827H33.1773H49.4187H49.5619C49.583 21.2811 49.6041 21.2789 49.6251 21.2761C49.879 21.2619 50.1196 21.1582 50.3046 20.9837C50.4895 20.8092 50.6068 20.5749 50.6357 20.3223C50.6357 20.3201 50.6357 20.3179 50.6357 20.3157L52.3622 16.3195C52.4324 16.1558 52.461 15.9772 52.4454 15.7997C52.4298 15.6223 52.3704 15.4513 52.2726 15.3024C52.1747 15.1535 52.0415 15.0312 51.8848 14.9463C51.7282 14.8615 51.5529 14.8168 51.3747 14.8162H49.5619V11.5865C49.5625 11.4442 49.5348 11.3032 49.4806 11.1717C49.4264 11.0401 49.3467 10.9206 49.2461 10.82C49.1455 10.7194 49.026 10.6397 48.8945 10.5855C48.7629 10.5313 48.622 10.5037 48.4797 10.5042H43.0919C43.0916 10.2979 43.0322 10.096 42.9206 9.92242C42.809 9.74887 42.65 9.61103 42.4623 9.52518L30.495 4.0021C29.7047 3.63746 28.8522 3.45469 28 3.45469L28 3.45166ZM28 5.6076C28.5417 5.6076 29.0833 5.7224 29.5875 5.95519L40.9359 11.1914V11.583V15.8402V15.8948C40.937 16.1792 41.0505 16.4516 41.2516 16.6528C41.4528 16.8539 41.7252 16.9674 42.0097 16.9685H49.7367L48.8061 19.1266H38.563V14.8126C38.5625 14.671 38.5341 14.5309 38.4794 14.4003C38.4247 14.2698 38.3448 14.1512 38.2443 14.0515C38.1438 13.9518 38.0247 13.8729 37.8937 13.8192C37.7627 13.7655 37.6224 13.7382 37.4808 13.7388C37.1964 13.7399 36.9239 13.8533 36.7228 14.0545C36.5217 14.2556 36.4082 14.5282 36.4071 14.8126V19.1266H34.2511V11.5828C34.2522 11.2969 34.1397 11.0223 33.9383 10.8193C33.7369 10.6164 33.4632 10.5017 33.1773 10.5006C33.035 10.5001 32.8941 10.5277 32.7625 10.5819C32.631 10.636 32.5114 10.7157 32.4108 10.8163C32.3102 10.9169 32.2305 11.0365 32.1763 11.168C32.1222 11.2996 32.0945 11.4406 32.0951 11.5828V19.1266H23.4691V11.5828C23.4696 11.4411 23.4422 11.3006 23.3884 11.1694C23.3346 11.0383 23.2555 10.919 23.1556 10.8185C23.0556 10.718 22.9369 10.6382 22.806 10.5837C22.6752 10.5291 22.5349 10.5009 22.3932 10.5006C22.2509 10.5001 22.1099 10.5277 21.9784 10.5819C21.8468 10.636 21.7273 10.7157 21.6267 10.8163C21.5261 10.9169 21.4464 11.0365 21.3922 11.168C21.338 11.2996 21.3104 11.4406 21.311 11.5828V19.1266H19.1634V14.8126C19.1629 14.671 19.1344 14.5309 19.0798 14.4003C19.0251 14.2698 18.9452 14.1512 18.8447 14.0515C18.7442 13.9518 18.6251 13.8729 18.4941 13.8192C18.3631 13.7655 18.2228 13.7382 18.0812 13.7388C17.7968 13.7399 17.5243 13.8533 17.3232 14.0545C17.122 14.2556 17.0085 14.5282 17.0074 14.8126V19.1266H7.14761L6.41492 17.438C6.30328 17.1801 6.44547 16.9685 6.72652 16.9685H13.9819C14.0121 16.9691 14.0423 16.9684 14.0724 16.9664C14.342 16.9447 14.5936 16.8225 14.7773 16.624C14.961 16.4255 15.0634 16.1652 15.0641 15.8947V11.5828V11.1912L26.4125 5.95499C26.9167 5.72217 27.4583 5.6074 28 5.6074L28 5.6076ZM8.59616 12.6567H12.9081V14.8126H8.59616V12.6567ZM43.0919 12.6567H47.4038V14.8042L43.0919 14.7711V12.6567ZM17.2222 23.685C16.9363 23.6838 16.6617 23.7964 16.4587 23.9977C16.2558 24.1991 16.1411 24.4729 16.14 24.7588C16.1394 24.9011 16.167 25.042 16.2212 25.1736C16.2754 25.3051 16.3551 25.4246 16.4557 25.5252C16.5563 25.6258 16.6758 25.7056 16.8074 25.7598C16.9389 25.8139 17.0799 25.8416 17.2222 25.841H39.86C40.0017 25.8407 40.142 25.8125 40.2729 25.7579C40.4037 25.7034 40.5225 25.6235 40.6224 25.523C40.7223 25.4225 40.8014 25.3032 40.8552 25.1721C40.909 25.0409 40.9364 24.9005 40.9359 24.7588C40.9348 24.474 40.821 24.2011 40.6194 23.9999C40.4178 23.7988 40.1448 23.6855 39.86 23.685H17.2222ZM46.6396 24.8536C46.1375 24.8469 45.6263 24.9696 45.1531 25.2536L42.5339 26.8284C42.3741 26.9241 42.2419 27.0596 42.15 27.2215C42.0581 27.3835 42.0098 27.5666 42.0097 27.7528V40.6824C42.0097 42.4557 43.4745 43.9227 45.2478 43.9227H46.3216C48.0949 43.9227 49.5619 42.4557 49.5619 40.6824V27.7528C49.5619 26.0974 48.1456 24.8793 46.6396 24.8536V24.8536ZM9.36044 24.8557C8.85872 24.8623 8.36747 25.0088 7.93505 25.2537C7.07021 25.7434 6.43807 26.6493 6.43808 27.7529V40.6824C6.43808 42.4558 7.89663 43.9228 9.66994 43.9228H10.7521C12.5255 43.9228 13.9819 42.4558 13.9819 40.6824V27.7529C13.9827 27.5675 13.9356 27.385 13.8452 27.2231C13.7549 27.0611 13.6243 26.9253 13.4661 26.8286L10.8469 25.2537C10.3737 24.9696 9.86216 24.846 9.36044 24.8557V24.8557ZM9.32459 26.98C9.45696 26.9833 9.59601 27.024 9.73305 27.1064L11.8259 28.357V40.6823C11.8259 41.2905 11.3602 41.7645 10.7521 41.7645H9.66986C9.06173 41.7645 8.59609 41.2905 8.59609 40.6823V27.7528C8.59608 27.2733 8.92745 26.9653 9.32457 26.98H9.32459ZM46.669 26.98C47.0683 26.9635 47.4038 27.2734 47.4038 27.7528V40.6824C47.4038 41.2905 46.9297 41.7645 46.3216 41.7645H45.2478C44.6397 41.7645 44.1656 41.2905 44.1656 40.6824V28.3569L46.2584 27.1064C46.3954 27.024 46.5359 26.985 46.669 26.98V26.98ZM21.5341 27.9992C19.7608 27.9992 18.2959 29.4556 18.2959 31.2288V40.6824C18.2959 42.4557 19.7608 43.9227 21.5341 43.9227H22.6079C24.3812 43.9227 25.8398 42.4557 25.8397 40.6824V31.2288C25.8398 29.4556 24.3812 27.9992 22.6079 27.9992H21.5341ZM33.392 27.9992C31.6187 27.9992 30.1517 29.4556 30.1517 31.2288V40.6824C30.1517 42.4557 31.6187 43.9227 33.392 43.9227H34.4658C36.2391 43.9227 37.704 42.4557 37.704 40.6824V31.2288C37.704 29.4556 36.2391 27.9992 34.4658 27.9992H33.392ZM21.5341 30.1551H22.6079C23.216 30.1551 23.6901 30.6207 23.6901 31.2288V40.6824C23.6901 41.2905 23.216 41.7645 22.6079 41.7645H21.5341C20.926 41.7645 20.4519 41.2905 20.4519 40.6824V31.2288C20.4519 30.6207 20.926 30.1551 21.5341 30.1551H21.5341ZM33.392 30.1551H34.4658C35.0739 30.1551 35.548 30.6207 35.548 31.2288V40.6824C35.548 41.2905 35.0739 41.7645 34.4658 41.7645H33.392C32.7839 41.7645 32.3098 41.2905 32.3098 40.6824V31.2288C32.3098 30.6207 32.7839 30.1551 33.392 30.1551H33.392ZM6.43801 46.0786C4.66472 46.0786 3.20827 47.5351 3.20825 49.3084C3.20822 51.0817 4.66468 52.5487 6.438 52.5487H49.5618C51.3352 52.5487 52.7916 51.0817 52.7916 49.3084C52.7916 47.5351 51.3351 46.0786 49.5618 46.0786H6.43801ZM6.43801 48.2346H49.5618C50.17 48.2346 50.6356 48.7003 50.6356 49.3084C50.6356 49.9166 50.17 50.3906 49.5618 50.3906H6.43808C5.82995 50.3906 5.36429 49.9166 5.3643 49.3084C5.36431 48.7003 5.82995 48.2346 6.43808 48.2346H6.43801Z" fill="#B38339"/>
</svg>
