<svg width="56" height="56" viewBox="0 0 56 56" fill="none" xmlns="http://www.w3.org/2000/svg">
<path d="M55.1795 51.078H53.2654V48.6171C53.2654 48.164 52.8981 47.7968 52.4451 47.7968C51.9921 47.7968 51.6248 48.164 51.6248 48.6171V51.078H4.37498V20.5625C4.37498 20.1095 4.0077 19.7422 3.55467 19.7422C3.10164 19.7422 2.73436 20.1095 2.73436 20.5625V51.078H0.820309C0.36728 51.078 0 51.4453 0 51.8983V55.1795C0 55.6326 0.36728 55.9999 0.820309 55.9999H55.1795C55.6325 55.9999 55.9998 55.6326 55.9998 55.1795V51.8983C55.9998 51.4453 55.6325 51.078 55.1795 51.078ZM54.3592 54.3592H1.64062V52.7186H54.3592V54.3592Z" fill="#B38339"/>
<path d="M49.1639 16.5156H6.83593C6.3829 16.5156 6.01562 16.8829 6.01562 17.3359V48.6171C6.01562 49.0701 6.3829 49.4374 6.83593 49.4374H10.7666C11.2197 49.4374 11.5869 49.0701 11.5869 48.6171C11.5869 48.164 11.2197 47.7968 10.7666 47.7968H7.65624V18.1562H48.3436V47.7968H14.0364C13.5834 47.7968 13.2161 48.164 13.2161 48.6171C13.2161 49.0701 13.5834 49.4374 14.0364 49.4374H49.1639C49.6169 49.4374 49.9842 49.0701 49.9842 48.6171V17.3359C49.9842 16.8829 49.6169 16.5156 49.1639 16.5156Z" fill="#B38339"/>
<path d="M23.8663 23.28C23.852 22.8376 23.4891 22.4863 23.0465 22.4863H20.9848C20.6084 20.7761 19.0819 19.4922 17.2602 19.4922C15.4386 19.4922 13.9121 20.7761 13.5357 22.4863H11.474C11.0313 22.4863 10.6684 22.8375 10.6541 23.28L10.2219 36.6159C10.2147 36.8379 10.2979 37.0534 10.4523 37.2131C10.6069 37.3726 10.8195 37.4628 11.0417 37.4628H23.4787C23.7009 37.4628 23.9136 37.3726 24.0681 37.2131C24.2227 37.0535 24.3058 36.8379 24.2986 36.6159L23.8663 23.28ZM17.2602 21.1327C18.1686 21.1327 18.9476 21.6932 19.2721 22.4862H15.2485C15.5728 21.6934 16.3518 21.1327 17.2602 21.1327ZM11.8891 35.822L12.2682 24.1268H22.2523L22.6314 35.822H11.8891Z" fill="#B38339"/>
<path d="M45.6167 23.28C45.6024 22.8376 45.2395 22.4863 44.7969 22.4863H42.7351C42.3588 20.7761 40.8322 19.4922 39.0106 19.4922C37.189 19.4922 35.6624 20.7761 35.2862 22.4863H33.2245C32.7818 22.4863 32.4189 22.8375 32.4046 23.28L31.9724 36.6159C31.9651 36.8379 32.0484 37.0534 32.2028 37.2131C32.3574 37.3726 32.5701 37.4628 32.7922 37.4628H45.2291C45.4512 37.4628 45.664 37.3726 45.8185 37.2131C45.9731 37.0535 46.0562 36.8379 46.049 36.6159L45.6167 23.28ZM39.0106 21.1327C39.919 21.1327 40.6979 21.6932 41.0224 22.4862H36.9989C37.3234 21.6934 38.1024 21.1327 39.0106 21.1327ZM33.6396 35.822L34.0185 24.1268H44.0027L44.3818 35.822H33.6396Z" fill="#B38339"/>
<path d="M20.4509 26.7841C20.1306 26.4639 19.6112 26.4639 19.2908 26.7841L14.0699 32.0052C13.7495 32.3256 13.7495 32.845 14.0699 33.1653C14.23 33.3254 14.44 33.4056 14.6499 33.4056C14.8598 33.4056 15.0698 33.3255 15.2299 33.1653L20.4509 27.9442C20.7712 27.6238 20.7712 27.1044 20.4509 26.7841Z" fill="#B38339"/>
<path d="M15.0872 28.1851C15.5402 28.1851 15.9075 27.8178 15.9075 27.3647C15.9075 26.9117 15.5402 26.5444 15.0872 26.5444C14.6341 26.5444 14.2668 26.9117 14.2668 27.3647C14.2668 27.8178 14.6341 28.1851 15.0872 28.1851Z" fill="#B38339"/>
<path d="M19.4336 33.4053C19.8866 33.4053 20.2539 33.038 20.2539 32.585C20.2539 32.1319 19.8866 31.7646 19.4336 31.7646C18.9805 31.7646 18.6133 32.1319 18.6133 32.585C18.6133 33.038 18.9805 33.4053 19.4336 33.4053Z" fill="#B38339"/>
<path d="M42.2012 26.7841C41.8809 26.4639 41.3615 26.4639 41.0411 26.7841L35.8201 32.0052C35.4997 32.3256 35.4997 32.845 35.8201 33.1653C35.9802 33.3254 36.1902 33.4056 36.4001 33.4056C36.61 33.4056 36.82 33.3255 36.9801 33.1653L42.2012 27.9442C42.5216 27.6238 42.5216 27.1044 42.2012 26.7841Z" fill="#B38339"/>
<path d="M36.8374 28.1851C37.2904 28.1851 37.6577 27.8178 37.6577 27.3647C37.6577 26.9117 37.2904 26.5444 36.8374 26.5444C36.3844 26.5444 36.0171 26.9117 36.0171 27.3647C36.0171 27.8178 36.3844 28.1851 36.8374 28.1851Z" fill="#B38339"/>
<path d="M41.1838 33.4053C41.6369 33.4053 42.0041 33.038 42.0041 32.585C42.0041 32.1319 41.6369 31.7646 41.1838 31.7646C40.7308 31.7646 40.3635 32.1319 40.3635 32.585C40.3635 33.038 40.7308 33.4053 41.1838 33.4053Z" fill="#B38339"/>
<path d="M22.492 40.25H11.7287C10.7458 40.25 9.94629 41.0495 9.94629 42.0324V44.4832C9.94629 45.4661 10.7459 46.2656 11.7287 46.2656H22.492C23.4748 46.2656 24.2744 45.4661 24.2744 44.4832V42.0324C24.2744 41.0495 23.4748 40.25 22.492 40.25ZM22.6337 44.4832C22.6337 44.5613 22.5701 44.625 22.492 44.625H11.7287C11.6505 44.625 11.5869 44.5613 11.5869 44.4832V42.0324C11.5869 41.9543 11.6506 41.8906 11.7287 41.8906H22.492C22.5701 41.8906 22.6337 41.9543 22.6337 42.0324V44.4832Z" fill="#B38339"/>
<path d="M44.2056 40.25H33.4423C32.4594 40.25 31.6599 41.0495 31.6599 42.0324V44.4832C31.6599 45.4661 32.4596 46.2656 33.4423 46.2656H44.2056C45.1885 46.2656 45.988 45.4661 45.988 44.4832V42.0324C45.988 41.0495 45.1885 40.25 44.2056 40.25ZM44.3474 44.4832C44.3474 44.5613 44.2837 44.625 44.2056 44.625H33.4423C33.3641 44.625 33.3005 44.5613 33.3005 44.4832V42.0324C33.3005 41.9543 33.3642 41.8906 33.4423 41.8906H44.2056C44.2837 41.8906 44.3474 41.9543 44.3474 42.0324V44.4832Z" fill="#B38339"/>
<path d="M52.5545 0H3.4453C1.54557 0 0 1.54557 0 3.4453V8.06681V9.98896V10.1182C0 10.1497 0.00218749 10.1808 0.00568748 10.2113C0.0896871 12.0063 1.18562 13.5401 2.73436 14.2561V17.3359C2.73436 17.7889 3.10164 18.1562 3.55467 18.1562C4.0077 18.1562 4.37498 17.7889 4.37498 17.3359V14.6759C4.48228 14.6832 4.59023 14.6883 4.69928 14.6883C6.31124 14.6883 7.73584 13.8723 8.58273 12.6318C9.42951 13.8722 10.8542 14.6883 12.4662 14.6883C14.0781 14.6883 15.5028 13.8723 16.3496 12.6318C17.1965 13.8722 18.6211 14.6883 20.2331 14.6883C21.8451 14.6883 23.2697 13.8723 24.1165 12.6318C24.9633 13.8722 26.388 14.6883 28 14.6883C29.612 14.6883 31.0366 13.8723 31.8835 12.6318C32.7303 13.8722 34.1549 14.6883 35.7669 14.6883C37.3789 14.6883 38.8035 13.8723 39.6504 12.6319C40.4972 13.8723 41.9218 14.6883 43.5338 14.6883C45.1458 14.6883 46.5704 13.8723 47.4173 12.6318C48.2642 13.8722 49.6888 14.6883 51.3007 14.6883C51.4099 14.6883 51.5177 14.6832 51.625 14.6759V45.1443C51.625 45.5974 51.9923 45.9647 52.4453 45.9647C52.8984 45.9647 53.2656 45.5974 53.2656 45.1443V14.2561C54.8144 13.54 55.9103 12.0062 55.9943 10.2113C55.9978 10.1807 56 10.1497 56 10.1182V9.98896V8.06681V3.4453C55.9998 1.54557 54.4542 0 52.5545 0ZM7.75794 9.99312C7.75564 11.6778 6.38452 13.0476 4.69928 13.0476C3.01272 13.0476 1.64062 11.6755 1.64062 9.98896V8.88712H7.75794V9.99312ZM7.75794 7.2465H1.64062V3.4453C1.64062 2.45021 2.45021 1.64062 3.4453 1.64062H7.75794V7.2465ZM15.5246 9.99946C15.5189 11.6812 14.1492 13.0476 12.4662 13.0476C10.7796 13.0476 9.40753 11.6755 9.40753 9.98885V8.88712H15.5246V9.99946ZM15.5246 7.2465H9.40731V1.64062H15.5246V7.2465ZM23.2913 10.0058C23.2822 11.6846 21.914 13.0476 20.2331 13.0476C18.5465 13.0476 17.1743 11.6755 17.1743 9.98885V8.88712H23.2913V10.0058V10.0058ZM23.2913 7.2465H17.174V1.64062H23.2913V7.2465ZM31.0587 9.98896C31.0585 11.6755 29.6864 13.0476 27.9999 13.0476C26.3133 13.0476 24.9412 11.6755 24.9412 9.98885V8.88712H31.0587V9.98896ZM31.0591 7.2465H24.9407V1.64062H31.0591V7.2465ZM38.8255 9.98896C38.8255 11.6755 37.4534 13.0476 35.7668 13.0476C34.0858 13.0476 32.7177 11.6846 32.7085 10.0057V8.88712H38.8255V9.98896V9.98896ZM38.8258 7.2465H32.7085V1.64062H38.8258V7.2465ZM46.5923 9.98885C46.5923 11.6755 45.2202 13.0476 43.5336 13.0476C41.8505 13.0476 40.4808 11.6811 40.4752 9.99935V8.88701H46.5923V9.98885ZM46.5925 7.2465H40.4752V1.64062H46.5925V7.2465ZM54.3592 9.98896C54.3592 11.6755 52.9871 13.0476 51.3005 13.0476C49.6154 13.0476 48.2441 11.6777 48.2418 9.99312V8.88712H54.3592V9.98896ZM54.3592 7.2465H48.2418V1.64062H52.5545C53.5496 1.64062 54.3592 2.45021 54.3592 3.4453V7.2465Z" fill="#B38339"/>
</svg>
