<svg width="56" height="56" viewBox="0 0 56 56" fill="none" xmlns="http://www.w3.org/2000/svg">
<path d="M55.0667 54.1332H51.2757C51.3155 53.8265 51.3334 53.5134 51.3334 53.1999C51.3334 50.5655 49.8174 48.3231 47.6001 47.2847V15.8666C47.6001 15.3066 47.2268 14.9333 46.6668 14.9333H32.6668V0.933297C32.6668 0.373297 32.2935 2.40285e-08 31.7335 2.40285e-08H6.53352C5.9733 -0.000109351 5.6 0.373188 5.6 0.933187V54.1332H0.933297C0.373297 54.1332 0 54.5065 0 55.0665C0 55.6265 0.373297 55.9999 0.933297 55.9999H6.5333H9.3333H31.7333H50.12H55.0667C55.6267 55.9999 56 55.6266 56 55.0666C56 54.5066 55.6267 54.1332 55.0667 54.1332ZM45.7333 46.7324C45.4287 46.6899 45.1174 46.6665 44.8 46.6665C44.0954 46.6665 43.4043 46.7865 42.7513 47.0108C42.5887 46.794 42.3265 46.6665 42 46.6665C41.44 46.6665 41.0667 47.0398 41.0667 47.5998V47.8858C40.713 48.1406 40.3841 48.4314 40.0856 48.7546C40.0385 48.8044 39.9921 48.855 39.9467 48.9064C39.1733 47.9396 38.1771 47.2403 37.0508 46.8998C36.889 46.7514 36.666 46.6664 36.4 46.6664C36.296 46.6664 36.1984 46.6794 36.1084 46.704C35.8976 46.6794 35.6836 46.6664 35.4667 46.6664C34.8818 46.6664 34.2231 46.7423 33.6895 46.9589C33.6234 46.9813 33.5578 47.0042 33.4928 47.0288C32.8478 46.5045 32.0935 46.127 31.2985 45.9193C31.2901 45.917 31.2815 45.9154 31.2732 45.9131C31.2038 45.8953 31.1342 45.8783 31.0644 45.8631C31.0077 45.8507 30.9504 45.8398 30.8932 45.8291C30.8684 45.8245 30.8435 45.8196 30.8186 45.8153C30.7585 45.8049 30.6983 45.7957 30.6376 45.7873C30.6105 45.7835 30.5833 45.7801 30.5561 45.7767C30.5004 45.7698 30.4445 45.7634 30.3883 45.7582C30.3473 45.7544 30.3062 45.7516 30.265 45.7486C30.2211 45.7455 30.1772 45.7419 30.1329 45.7399C30.0442 45.7356 29.9555 45.733 29.8667 45.733C29.798 45.733 29.7299 45.7344 29.6621 45.7369C29.6177 45.7384 29.5734 45.7412 29.5291 45.7437C29.5113 45.7448 29.4934 45.7455 29.4757 45.7467C28.6254 45.8032 27.79 46.0431 27.0666 46.4682V16.7999H31.7333H45.7333V46.7324V46.7324ZM7.4667 1.86659H30.8V14.9333H26.1333C25.5733 14.9333 25.2 15.3066 25.2 15.8666V44.8933C24.723 44.4163 24.1732 44.0128 23.5746 43.6971C23.5218 43.6688 23.4684 43.6415 23.4148 43.6148C23.3937 43.6044 23.3728 43.5936 23.3516 43.5834C22.6855 43.2603 21.9606 43.0484 21.2032 42.9691C21.1926 42.968 21.1819 42.9671 21.1712 42.966C21.0832 42.9572 20.9949 42.9504 20.906 42.9452C20.8825 42.9438 20.859 42.9424 20.8354 42.9412C20.7351 42.9365 20.6345 42.9333 20.5333 42.9333C19.1442 42.9333 17.8573 43.3901 16.8 44.158V43.8667C16.8 43.3067 16.4267 42.9334 15.8667 42.9334C15.3067 42.9334 14.9334 43.3067 14.9334 43.8667V45.7334C14.9334 45.8734 14.9567 46.0017 15.0005 46.1154C14.5422 46.8707 14.2264 47.7221 14.0934 48.6268C13.0189 48.7496 12.0364 49.1363 11.2001 49.7143V49.4668C11.2001 48.9068 10.8268 48.5335 10.2668 48.5335C9.70681 48.5335 9.33352 48.9068 9.33352 49.4668V51.3335C9.33352 51.4424 9.34806 51.5441 9.37497 51.6375C8.9122 52.3859 8.59731 53.2328 8.46759 54.1334H7.46692V1.86659H7.4667ZM14.5086 50.4192C14.5271 50.4176 14.5458 50.4165 14.5644 50.4151C14.6136 50.4113 14.6628 50.4075 14.7125 50.4052C14.7856 50.402 14.8592 50.3998 14.9334 50.3998C15.4934 50.3998 15.8667 50.0265 15.8667 49.4665C15.8667 46.8532 17.92 44.7998 20.5334 44.7998C22.8667 44.7998 24.8267 46.4798 25.1067 48.8131C25.1698 49.0655 25.3197 49.2735 25.5246 49.4118C25.5375 49.4209 25.5508 49.4294 25.5642 49.4378C25.5787 49.4467 25.593 49.4556 25.608 49.4637C25.6424 49.4828 25.6783 49.5002 25.7157 49.5151C25.7171 49.5157 25.7184 49.5162 25.7199 49.5169C25.7626 49.534 25.8073 49.5483 25.8533 49.5598C25.8534 49.5598 25.8534 49.5598 25.8535 49.5599C25.9091 49.5784 25.9722 49.5855 26.0389 49.5834C26.3457 49.5879 26.6311 49.4201 26.7867 49.1868C26.7867 49.1867 26.7868 49.1867 26.7869 49.1866L26.8802 49.0933C27.6269 48.16 28.6535 47.6 29.8669 47.6C30.4971 47.6 31.127 47.7765 31.6924 48.1066C30.5791 49.1534 29.9477 50.5181 29.8744 51.9783C29.8694 52.0738 29.8669 52.17 29.8669 52.2667C29.8669 52.9157 29.9749 53.5377 30.1885 54.1334H10.36C10.7968 52.1239 12.4604 50.6053 14.5086 50.4192ZM32.3918 54.1332C32.0353 53.5301 31.8267 52.8171 31.8267 52.1732C31.8267 51.1411 32.2336 50.2113 32.9329 49.5317C33.0666 49.4077 33.2091 49.2933 33.3596 49.1898C33.5054 49.1909 33.6521 49.1604 33.7867 49.0932C35.84 47.9732 38.2667 48.9999 39.0134 51.0532C39.1067 51.3332 39.3867 51.6132 39.8534 51.6132C39.942 51.6132 40.04 51.585 40.1384 51.5349C40.3726 51.4965 40.5578 51.3245 40.6934 51.0532C41.0551 50.2846 41.6151 49.671 42.2967 49.2408C42.4438 49.1998 42.5702 49.1272 42.6707 49.0286C43.3117 48.7064 44.0384 48.5332 44.8001 48.5332C47.4134 48.5332 49.4668 50.5865 49.4668 53.1999C49.4668 53.4799 49.4668 53.8532 49.3735 54.1332H32.3918V54.1332Z" fill="#B38339"/>
<path d="M30.8 24.2666C30.24 24.2666 29.8667 24.6399 29.8667 25.1999V27.0666C29.8667 27.6266 30.24 27.9999 30.8 27.9999C31.36 27.9999 31.7333 27.6266 31.7333 27.0666V25.1999C31.7333 24.6399 31.36 24.2666 30.8 24.2666Z" fill="#B38339"/>
<path d="M30.8 41.0667C30.24 41.0667 29.8667 41.4399 29.8667 41.9999V43.8666C29.8667 44.4266 30.24 44.7999 30.8 44.7999C31.36 44.7999 31.7333 44.4266 31.7333 43.8666V41.9999C31.7333 41.4399 31.36 41.0667 30.8 41.0667Z" fill="#B38339"/>
<path d="M30.8 29.8667C30.24 29.8667 29.8667 30.24 29.8667 30.8V32.6667C29.8667 33.2267 30.24 33.6 30.8 33.6C31.36 33.6 31.7333 33.2267 31.7333 32.6667V30.8C31.7333 30.24 31.36 29.8667 30.8 29.8667Z" fill="#B38339"/>
<path d="M30.8 35.4666C30.24 35.4666 29.8667 35.8398 29.8667 36.3998V38.2666C29.8667 38.8266 30.24 39.1999 30.8 39.1999C31.36 39.1999 31.7333 38.8266 31.7333 38.2666V36.3998C31.7333 35.8398 31.36 35.4666 30.8 35.4666Z" fill="#B38339"/>
<path d="M30.8 18.6665C30.24 18.6665 29.8667 19.0398 29.8667 19.5998V21.4665C29.8667 22.0265 30.24 22.3998 30.8 22.3998C31.36 22.3998 31.7333 22.0265 31.7333 21.4665V19.5998C31.7333 19.0398 31.36 18.6665 30.8 18.6665Z" fill="#B38339"/>
<path d="M36.4001 27.9999C36.9601 27.9999 37.3334 27.6266 37.3334 27.0666V25.1999C37.3334 24.6399 36.9601 24.2666 36.4001 24.2666C35.8401 24.2666 35.4668 24.6399 35.4668 25.1999V27.0666C35.4668 27.6266 35.8401 27.9999 36.4001 27.9999Z" fill="#B38339"/>
<path d="M36.4001 22.3998C36.9601 22.3998 37.3334 22.0265 37.3334 21.4665V19.5998C37.3334 19.0398 36.9601 18.6665 36.4001 18.6665C35.8401 18.6665 35.4668 19.0398 35.4668 19.5998V21.4665C35.4668 22.0265 35.8401 22.3998 36.4001 22.3998Z" fill="#B38339"/>
<path d="M36.4001 33.6C36.9601 33.6 37.3334 33.2267 37.3334 32.6667V30.8C37.3334 30.24 36.9601 29.8667 36.4001 29.8667C35.8401 29.8667 35.4668 30.24 35.4668 30.8V32.6667C35.4668 33.2267 35.8401 33.6 36.4001 33.6Z" fill="#B38339"/>
<path d="M36.4001 39.1999C36.9601 39.1999 37.3334 38.8266 37.3334 38.2666V36.3998C37.3334 35.8398 36.9601 35.4666 36.4001 35.4666C35.8401 35.4666 35.4668 35.8398 35.4668 36.3998V38.2666C35.4668 38.8266 35.8401 39.1999 36.4001 39.1999Z" fill="#B38339"/>
<path d="M36.4001 44.7999C36.9601 44.7999 37.3334 44.4266 37.3334 43.8666V41.9999C37.3334 41.4399 36.9601 41.0667 36.4001 41.0667C35.8401 41.0667 35.4668 41.4399 35.4668 41.9999V43.8666C35.4668 44.4266 35.8401 44.7999 36.4001 44.7999Z" fill="#B38339"/>
<path d="M41.9999 33.6C42.5599 33.6 42.9332 33.2267 42.9332 32.6667V30.8C42.9332 30.24 42.5599 29.8667 41.9999 29.8667C41.4399 29.8667 41.0667 30.24 41.0667 30.8V32.6667C41.0667 33.2267 41.4399 33.6 41.9999 33.6Z" fill="#B38339"/>
<path d="M41.9999 27.9999C42.5599 27.9999 42.9332 27.6266 42.9332 27.0666V25.1999C42.9332 24.6399 42.5599 24.2666 41.9999 24.2666C41.4399 24.2666 41.0667 24.6399 41.0667 25.1999V27.0666C41.0667 27.6266 41.4399 27.9999 41.9999 27.9999Z" fill="#B38339"/>
<path d="M41.9999 44.7999C42.5599 44.7999 42.9332 44.4266 42.9332 43.8666V41.9999C42.9332 41.4399 42.5599 41.0667 41.9999 41.0667C41.4399 41.0667 41.0667 41.4399 41.0667 41.9999V43.8666C41.0667 44.4266 41.4399 44.7999 41.9999 44.7999Z" fill="#B38339"/>
<path d="M41.9999 39.1999C42.5599 39.1999 42.9332 38.8266 42.9332 38.2666V36.3998C42.9332 35.8398 42.5599 35.4666 41.9999 35.4666C41.4399 35.4666 41.0667 35.8398 41.0667 36.3998V38.2666C41.0667 38.8266 41.4399 39.1999 41.9999 39.1999Z" fill="#B38339"/>
<path d="M41.9999 22.3998C42.5599 22.3998 42.9332 22.0265 42.9332 21.4665V19.5998C42.9332 19.0398 42.5599 18.6665 41.9999 18.6665C41.4399 18.6665 41.0667 19.0398 41.0667 19.5998V21.4665C41.0667 22.0265 41.4399 22.3998 41.9999 22.3998Z" fill="#B38339"/>
<path d="M10.2668 35.4667C10.8268 35.4667 11.2001 35.0934 11.2001 34.5334V32.6667C11.2001 32.1067 10.8268 31.7334 10.2668 31.7334C9.70679 31.7334 9.3335 32.1067 9.3335 32.6667V34.5334C9.33339 35.0933 9.70679 35.4667 10.2668 35.4667Z" fill="#B38339"/>
<path d="M10.2668 41.0665C10.8268 41.0665 11.2001 40.6932 11.2001 40.1332V38.2665C11.2001 37.7065 10.8268 37.3333 10.2668 37.3333C9.70679 37.3333 9.3335 37.7065 9.3335 38.2665V40.1332C9.33339 40.6931 9.70679 41.0665 10.2668 41.0665Z" fill="#B38339"/>
<path d="M10.2668 46.6666C10.8268 46.6666 11.2001 46.2933 11.2001 45.7333V43.8666C11.2001 43.3066 10.8268 42.9333 10.2668 42.9333C9.70679 42.9333 9.3335 43.3066 9.3335 43.8666V45.7333C9.33339 46.2932 9.70679 46.6666 10.2668 46.6666Z" fill="#B38339"/>
<path d="M10.2668 7.4667C10.8268 7.4667 11.2001 7.0934 11.2001 6.5334V4.6667C11.2001 4.1067 10.8268 3.7334 10.2668 3.7334C9.70679 3.7334 9.3335 4.1067 9.3335 4.6667V6.5334C9.33339 7.09329 9.70679 7.4667 10.2668 7.4667Z" fill="#B38339"/>
<path d="M10.2668 13.0665C10.8268 13.0665 11.2001 12.6933 11.2001 12.1333V10.2665C11.2001 9.70655 10.8268 9.33325 10.2668 9.33325C9.70679 9.33325 9.3335 9.70655 9.3335 10.2665V12.1333C9.33339 12.6931 9.70679 13.0665 10.2668 13.0665Z" fill="#B38339"/>
<path d="M10.2668 18.6666C10.8268 18.6666 11.2001 18.2934 11.2001 17.7334V15.8666C11.2001 15.3066 10.8268 14.9333 10.2668 14.9333C9.70679 14.9333 9.3335 15.3066 9.3335 15.8666V17.7334C9.33339 18.2932 9.70679 18.6666 10.2668 18.6666Z" fill="#B38339"/>
<path d="M10.2668 24.2665C10.8268 24.2665 11.2001 23.8932 11.2001 23.3332V21.4665C11.2001 20.9065 10.8268 20.5332 10.2668 20.5332C9.70679 20.5332 9.3335 20.9065 9.3335 21.4665V23.3332C9.33339 23.8931 9.70679 24.2665 10.2668 24.2665Z" fill="#B38339"/>
<path d="M10.2668 29.8666C10.8268 29.8666 11.2001 29.4933 11.2001 28.9333V27.0666C11.2001 26.5066 10.8268 26.1333 10.2668 26.1333C9.70679 26.1333 9.3335 26.5066 9.3335 27.0666V28.9333C9.33339 29.4932 9.70679 29.8666 10.2668 29.8666Z" fill="#B38339"/>
<path d="M15.8666 13.0665C16.4266 13.0665 16.7999 12.6933 16.7999 12.1333V10.2665C16.7999 9.70655 16.4266 9.33325 15.8666 9.33325C15.3066 9.33325 14.9333 9.70655 14.9333 10.2665V12.1333C14.9332 12.6931 15.3066 13.0665 15.8666 13.0665Z" fill="#B38339"/>
<path d="M15.8666 7.4667C16.4266 7.4667 16.7999 7.0934 16.7999 6.5334V4.6667C16.7999 4.1067 16.4266 3.7334 15.8666 3.7334C15.3066 3.7334 14.9333 4.1067 14.9333 4.6667V6.5334C14.9332 7.09329 15.3066 7.4667 15.8666 7.4667Z" fill="#B38339"/>
<path d="M15.8666 24.2665C16.4266 24.2665 16.7999 23.8932 16.7999 23.3332V21.4665C16.7999 20.9065 16.4266 20.5332 15.8666 20.5332C15.3066 20.5332 14.9333 20.9065 14.9333 21.4665V23.3332C14.9332 23.8931 15.3066 24.2665 15.8666 24.2665Z" fill="#B38339"/>
<path d="M15.8666 18.6666C16.4266 18.6666 16.7999 18.2934 16.7999 17.7334V15.8666C16.7999 15.3066 16.4266 14.9333 15.8666 14.9333C15.3066 14.9333 14.9333 15.3066 14.9333 15.8666V17.7334C14.9332 18.2932 15.3066 18.6666 15.8666 18.6666Z" fill="#B38339"/>
<path d="M15.8666 29.8666C16.4266 29.8666 16.7999 29.4933 16.7999 28.9333V27.0666C16.7999 26.5066 16.4266 26.1333 15.8666 26.1333C15.3066 26.1333 14.9333 26.5066 14.9333 27.0666V28.9333C14.9332 29.4932 15.3066 29.8666 15.8666 29.8666Z" fill="#B38339"/>
<path d="M15.8666 35.4667C16.4266 35.4667 16.7999 35.0934 16.7999 34.5334V32.6667C16.7999 32.1067 16.4266 31.7334 15.8666 31.7334C15.3066 31.7334 14.9333 32.1067 14.9333 32.6667V34.5334C14.9332 35.0933 15.3066 35.4667 15.8666 35.4667Z" fill="#B38339"/>
<path d="M15.8666 41.0665C16.4266 41.0665 16.7999 40.6932 16.7999 40.1332V38.2665C16.7999 37.7065 16.4266 37.3333 15.8666 37.3333C15.3066 37.3333 14.9333 37.7065 14.9333 38.2665V40.1332C14.9332 40.6931 15.3066 41.0665 15.8666 41.0665Z" fill="#B38339"/>
<path d="M21.4667 18.6666C22.0267 18.6666 22.4 18.2934 22.4 17.7334V15.8666C22.4 15.3066 22.0267 14.9333 21.4667 14.9333C20.9067 14.9333 20.5334 15.3066 20.5334 15.8666V17.7334C20.5333 18.2932 20.9067 18.6666 21.4667 18.6666Z" fill="#B38339"/>
<path d="M21.4667 13.0665C22.0267 13.0665 22.4 12.6933 22.4 12.1333V10.2665C22.4 9.70655 22.0267 9.33325 21.4667 9.33325C20.9067 9.33325 20.5334 9.70655 20.5334 10.2665V12.1333C20.5333 12.6931 20.9067 13.0665 21.4667 13.0665Z" fill="#B38339"/>
<path d="M21.4667 7.4667C22.0267 7.4667 22.4 7.0934 22.4 6.5334V4.6667C22.4 4.1067 22.0267 3.7334 21.4667 3.7334C20.9067 3.7334 20.5334 4.1067 20.5334 4.6667V6.5334C20.5333 7.09329 20.9067 7.4667 21.4667 7.4667Z" fill="#B38339"/>
<path d="M21.4667 41.0665C22.0267 41.0665 22.4 40.6932 22.4 40.1332V38.2665C22.4 37.7065 22.0267 37.3333 21.4667 37.3333C20.9067 37.3333 20.5334 37.7065 20.5334 38.2665V40.1332C20.5333 40.6931 20.9067 41.0665 21.4667 41.0665Z" fill="#B38339"/>
<path d="M21.4667 35.4667C22.0267 35.4667 22.4 35.0934 22.4 34.5334V32.6667C22.4 32.1067 22.0267 31.7334 21.4667 31.7334C20.9067 31.7334 20.5334 32.1067 20.5334 32.6667V34.5334C20.5333 35.0933 20.9067 35.4667 21.4667 35.4667Z" fill="#B38339"/>
<path d="M21.4667 29.8666C22.0267 29.8666 22.4 29.4933 22.4 28.9333V27.0666C22.4 26.5066 22.0267 26.1333 21.4667 26.1333C20.9067 26.1333 20.5334 26.5066 20.5334 27.0666V28.9333C20.5333 29.4932 20.9067 29.8666 21.4667 29.8666Z" fill="#B38339"/>
<path d="M21.4667 24.2665C22.0267 24.2665 22.4 23.8932 22.4 23.3332V21.4665C22.4 20.9065 22.0267 20.5332 21.4667 20.5332C20.9067 20.5332 20.5334 20.9065 20.5334 21.4665V23.3332C20.5333 23.8931 20.9067 24.2665 21.4667 24.2665Z" fill="#B38339"/>
<path d="M27.0666 13.0665C27.6266 13.0665 27.9999 12.6933 27.9999 12.1333V10.2665C27.9999 9.70655 27.6266 9.33325 27.0666 9.33325C26.5066 9.33325 26.1333 9.70655 26.1333 10.2665V12.1333C26.1332 12.6931 26.5066 13.0665 27.0666 13.0665Z" fill="#B38339"/>
<path d="M27.0666 7.4667C27.6266 7.4667 27.9999 7.0934 27.9999 6.5334V4.6667C27.9999 4.1067 27.6266 3.7334 27.0666 3.7334C26.5066 3.7334 26.1333 4.1067 26.1333 4.6667V6.5334C26.1332 7.09329 26.5066 7.4667 27.0666 7.4667Z" fill="#B38339"/>
</svg>
