<svg width="56" height="56" viewBox="0 0 56 56" fill="none" xmlns="http://www.w3.org/2000/svg">
<g clip-path="url(#clip0_55_4731)">
<path d="M55.6358 46.0701L50.0207 42.3121L50.8935 40.6449C51.0489 40.3483 51.0083 39.9871 50.7908 39.7323C50.7239 39.6537 49.2043 37.9011 45.7413 36.1275C46.9799 33.4309 47.9769 30.4821 48.7215 27.3051C50.9623 17.7445 50.1543 9.53544 50.1187 9.19069C50.0789 8.80427 49.7736 8.49879 49.3871 8.45898C42.8601 7.78567 37.5403 5.60891 34.227 3.90158C30.6253 2.0455 28.546 0.325701 28.5259 0.308967C28.2214 0.054563 27.7783 0.054563 27.474 0.308967C27.3921 0.377435 19.1433 7.1664 6.61266 8.45909C6.22625 8.49901 5.92087 8.80438 5.88106 9.1908C5.86509 9.34557 5.49574 13.0411 5.9118 18.3673C5.94712 18.8188 6.34065 19.1568 6.79313 19.121C7.24474 19.0858 7.58216 18.691 7.54694 18.2396C7.24266 14.3436 7.37555 11.2947 7.46086 10.0147C13.9543 9.23685 19.2393 7.05735 22.5717 5.33504C25.2876 3.93133 27.1479 2.62201 27.9999 1.97955C28.8517 2.62201 30.7122 3.93133 33.428 5.33504C36.7605 7.05735 42.0453 9.23674 48.5386 10.0147C48.6796 12.1408 48.9482 19.1511 47.1246 26.9311C46.3346 30.3014 45.2528 33.4001 43.8938 36.197C43.8558 36.2753 43.8168 36.3525 43.7783 36.4302C43.6944 36.5997 43.6097 36.7683 43.5237 36.9356C43.4752 37.0299 43.4268 37.1241 43.3777 37.2177C43.2865 37.3915 43.1938 37.5638 43.1004 37.735C43.0224 37.8779 42.9435 38.0195 42.8641 38.1606C42.7927 38.2873 42.7211 38.4136 42.6487 38.5387C42.5757 38.6645 42.502 38.7895 42.4279 38.9139C42.3744 39.0037 42.3201 39.0925 42.266 39.1814C42.091 39.4687 41.9131 39.7527 41.7312 40.0322C41.7178 40.0527 41.7049 40.0735 41.6916 40.0939C41.5969 40.2387 41.5009 40.3817 41.4045 40.5243C41.3631 40.5854 41.3216 40.6465 41.2798 40.7072C40.7097 41.5382 40.109 42.3328 39.4784 43.0879C39.4748 43.0923 39.4712 43.0967 39.4676 43.101C39.3454 43.2472 39.2219 43.3914 39.0975 43.5347C38.9995 43.6473 38.9006 43.7584 38.8011 43.8693C38.7811 43.8916 38.7613 43.9143 38.7413 43.9365C38.629 44.061 38.5158 44.1843 38.4016 44.3066C38.3958 44.3128 38.39 44.3191 38.3841 44.3254C35.4894 47.4204 32.0113 49.8097 28 51.4535C24.0726 49.8427 19.6759 47.0866 15.9467 42.3763C15.9347 42.3612 15.9228 42.346 15.9109 42.3309C15.8357 42.2357 15.7613 42.139 15.6868 42.0422C14.3265 40.2625 13.1192 38.2907 12.0825 36.1491C12.0583 36.0991 12.0295 36.0528 11.9972 36.0101C10.1188 32.1014 8.66026 27.3318 7.88983 21.5087C7.83044 21.0598 7.41711 20.7438 6.96933 20.8034C6.52035 20.8628 6.20448 21.275 6.26387 21.7239C6.97076 27.0664 8.31223 31.8949 10.2588 36.1275C6.79543 37.9013 5.27589 39.6539 5.20885 39.7324C4.99152 39.9872 4.95094 40.3484 5.10604 40.645L5.97884 42.3122L0.363902 46.0702C0.126013 46.2296 -0.0116886 46.5014 0.000780067 46.7874C0.0132487 47.0734 0.173919 47.3322 0.424933 47.4703L5.01263 49.9936V55.0614C5.01263 55.3558 5.17046 55.6275 5.42606 55.7736C5.55217 55.8455 5.69239 55.8815 5.83272 55.8815C5.97687 55.8815 6.12114 55.8435 6.24965 55.7675L15.3616 50.3882C15.3673 50.3848 15.3723 50.381 15.3779 50.3775C15.3872 50.3717 15.3963 50.3657 15.4054 50.3595C15.4217 50.3485 15.4374 50.3369 15.4527 50.3249C15.4602 50.319 15.4677 50.3132 15.4749 50.307C15.4942 50.2907 15.5124 50.2737 15.5299 50.256C15.5328 50.2531 15.5357 50.2506 15.5385 50.2477C15.5597 50.2255 15.5794 50.2022 15.5977 50.178C15.5983 50.1772 15.5991 50.1766 15.5997 50.1757C15.6011 50.1737 15.6022 50.1715 15.6037 50.1696C15.6225 50.1441 15.6395 50.1177 15.6552 50.0904C15.6585 50.0846 15.662 50.0789 15.6651 50.0731C15.681 50.0438 15.6953 50.0138 15.7075 49.983C15.7095 49.9777 15.7112 49.9724 15.7131 49.967C15.723 49.9403 15.7314 49.9132 15.7385 49.8857C15.7404 49.8784 15.7425 49.8712 15.7441 49.8639C15.7514 49.8318 15.757 49.7995 15.7605 49.7667C15.7609 49.7624 15.761 49.758 15.7614 49.7535C15.764 49.724 15.7649 49.6943 15.7642 49.6646C15.7641 49.6578 15.764 49.651 15.7638 49.6442C15.7622 49.6107 15.7591 49.577 15.7534 49.5435C15.753 49.5412 15.7523 49.5389 15.7519 49.5365C15.7464 49.506 15.7387 49.4758 15.7297 49.4457C15.7272 49.4378 15.7248 49.4301 15.7223 49.4223C15.7116 49.3903 15.6996 49.3584 15.6846 49.3273L14.5612 46.9831C15.2355 46.6469 16.0224 46.3023 16.9281 45.9777C19.955 49.0673 23.5549 51.452 27.6972 53.0997C27.7946 53.1384 27.8973 53.1578 28.0002 53.1578C28.1031 53.1578 28.206 53.1384 28.3033 53.0997C32.4382 51.4548 36.0437 49.0679 39.0727 45.9779C39.9782 46.3025 40.7651 46.6471 41.4392 46.9832L40.3159 49.3274C40.3009 49.3586 40.2888 49.3905 40.2781 49.4225C40.2755 49.4303 40.2731 49.4381 40.2708 49.4459C40.2617 49.476 40.2541 49.5063 40.2486 49.5368C40.2482 49.5391 40.2475 49.5414 40.2472 49.5437C40.2415 49.5772 40.2383 49.6109 40.2368 49.6445C40.2365 49.6513 40.2365 49.6581 40.2363 49.6649C40.2358 49.6947 40.2366 49.7243 40.2392 49.7538C40.2396 49.7582 40.2396 49.7627 40.2401 49.7671C40.2435 49.7998 40.2491 49.8321 40.2565 49.8641C40.2581 49.8715 40.2602 49.8787 40.2622 49.8861C40.2692 49.9135 40.2776 49.9405 40.2874 49.9671C40.2894 49.9725 40.291 49.9779 40.2931 49.9833C40.3053 50.0141 40.3195 50.044 40.3353 50.0732C40.3385 50.0791 40.342 50.0849 40.3454 50.0907C40.361 50.1178 40.378 50.1443 40.3967 50.1696C40.3982 50.1715 40.3992 50.1738 40.4007 50.1758C40.4014 50.1766 40.402 50.1773 40.4027 50.1781C40.4211 50.2023 40.4408 50.2256 40.462 50.2478C40.4647 50.2507 40.4677 50.2532 40.4705 50.2561C40.4879 50.2738 40.5063 50.2909 40.5255 50.3072C40.5328 50.3133 40.5403 50.3191 40.5477 50.325C40.563 50.337 40.5788 50.3486 40.5951 50.3597C40.6042 50.3658 40.6132 50.3719 40.6224 50.3776C40.628 50.3811 40.633 50.3849 40.6387 50.3883L49.7506 55.7677C49.8791 55.8436 50.0231 55.8816 50.1675 55.8816C50.3077 55.8816 50.4481 55.8456 50.5742 55.7737C50.8298 55.6277 50.9876 55.3559 50.9876 55.0615V49.9936L55.5753 47.4703C55.8262 47.3323 55.987 47.0735 55.9995 46.7874C56.0114 46.5013 55.8738 46.2295 55.6358 46.0701ZM6.65302 53.6247V49.5084C6.65291 49.2095 6.49006 48.9342 6.228 48.7899L2.39706 46.6829L6.74424 43.7737L9.62855 49.2832C9.64441 49.3135 9.66212 49.3425 9.68137 49.3701C9.68892 49.381 9.69778 49.3907 9.70576 49.4011C9.71845 49.4176 9.73092 49.4345 9.74481 49.4498C9.75859 49.4651 9.77369 49.479 9.78845 49.4932C9.79775 49.5021 9.8065 49.5115 9.81623 49.5198C9.83439 49.5356 9.85375 49.5501 9.87333 49.5643C9.88044 49.5694 9.88732 49.5749 9.89454 49.5798C9.91642 49.5947 9.93928 49.608 9.96257 49.6208C9.96804 49.6238 9.9734 49.627 9.97898 49.6298C10.0039 49.6427 10.0295 49.6541 10.0559 49.6644C10.0602 49.6661 10.0646 49.6679 10.0691 49.6695C10.0963 49.6797 10.1241 49.6883 10.1526 49.6956C10.1565 49.6966 10.1605 49.6976 10.1646 49.6985C10.1824 49.7028 10.1998 49.7082 10.2181 49.7113L12.5978 50.1152L6.65302 53.6247ZM12.2171 48.387C12.2362 48.373 12.2564 48.3587 12.2762 48.3444C12.3186 48.3139 12.3609 48.2835 12.4056 48.2522C12.4329 48.233 12.4621 48.2133 12.4903 48.1938C12.536 48.1623 12.5813 48.1309 12.6291 48.0987C12.658 48.0793 12.6887 48.0593 12.7185 48.0396C12.7687 48.0063 12.8183 47.9732 12.8708 47.9392C12.8896 47.9271 12.91 47.9146 12.9291 47.9023C12.9882 47.8645 13.0478 47.8267 13.1096 47.7882C13.1143 47.7852 13.1194 47.7823 13.1241 47.7793L13.5214 48.6082L12.2171 48.387ZM13.0794 45.9068C13.0771 45.9081 13.0746 45.9088 13.0723 45.9101C13.0653 45.9139 13.0586 45.9178 13.0516 45.9217C13.0515 45.9217 13.0515 45.9217 13.0514 45.9218C13.0487 45.9233 13.046 45.9249 13.0432 45.9264C13.0084 45.9456 12.9744 45.9648 12.9403 45.984C12.8767 46.0197 12.8145 46.0552 12.7531 46.0907C12.7166 46.1118 12.68 46.1328 12.6442 46.1538C12.6402 46.1562 12.6362 46.1585 12.6322 46.1609C12.6266 46.1642 12.6212 46.1675 12.6157 46.1706C12.5171 46.2286 12.4217 46.2859 12.3286 46.343C12.3142 46.3517 12.2994 46.3607 12.2851 46.3695C12.2286 46.4044 12.1736 46.4388 12.119 46.4733C12.1073 46.4806 12.0959 46.4879 12.0843 46.4952C12.0829 46.4961 12.0816 46.497 12.0802 46.4979C11.4495 46.8987 10.9532 47.2702 10.5848 47.5741L7.90186 42.4494L6.8359 40.4126C7.43297 39.8492 8.75815 38.7423 10.9743 37.6036C11.0593 37.7699 11.1452 37.9352 11.2323 38.0996C11.2765 38.183 11.3217 38.2655 11.3664 38.3485C11.4796 38.5585 11.5941 38.7672 11.7107 38.9738C11.7366 39.0199 11.7612 39.0671 11.7873 39.1129C12.6633 40.6524 13.6295 42.0882 14.681 43.4214C14.7053 43.4522 14.7295 43.4831 14.7539 43.5138C14.8393 43.6213 14.9252 43.7283 15.0118 43.8344C15.0563 43.889 15.1012 43.9431 15.1459 43.9974C15.2222 44.0896 15.2982 44.1819 15.3751 44.273C15.4898 44.409 15.6054 44.5438 15.722 44.6773C14.6989 45.076 13.8229 45.4971 13.0794 45.9068ZM40.2783 44.6772C40.2798 44.675 40.2816 44.6729 40.2835 44.6708C40.3543 44.59 40.4238 44.5078 40.4936 44.4262C40.5361 44.3765 40.579 44.3273 40.6213 44.2774C40.7282 44.151 40.8339 44.0235 40.9391 43.8953C40.9427 43.8909 40.9463 43.8867 40.9498 43.8823C41.4633 43.2554 41.9575 42.6052 42.4306 41.9311C42.4934 41.8416 42.5538 41.7496 42.6157 41.6594C42.691 41.5498 42.7663 41.4402 42.8404 41.3294C42.9237 41.2051 43.0061 41.0801 43.0879 40.9544C43.154 40.8531 43.2192 40.7509 43.2843 40.6487C43.3928 40.4784 43.5001 40.3072 43.6062 40.1343C43.678 40.0171 43.7492 39.8994 43.8199 39.7812C43.9028 39.6425 43.985 39.5034 44.0663 39.3631C44.1577 39.2055 44.2481 39.047 44.3375 38.8874C44.3867 38.7996 44.4361 38.7121 44.4847 38.6236C44.6018 38.4106 44.7169 38.1956 44.8305 37.9792C44.8691 37.9056 44.9074 37.8317 44.9457 37.7578C44.9722 37.7064 44.9994 37.6554 45.0257 37.6038C47.2262 38.7361 48.5611 39.8495 49.1631 40.4146L45.415 47.5741C45.0465 47.2702 44.5502 46.8986 43.9193 46.4978C43.918 46.4969 43.9168 46.4961 43.9155 46.4952C43.904 46.4879 43.8925 46.4806 43.8809 46.4733C43.8264 46.4388 43.7714 46.4044 43.715 46.3696C43.6972 46.3586 43.6785 46.3474 43.6604 46.3364C43.5707 46.2815 43.479 46.2264 43.3842 46.1706C43.3787 46.1673 43.3733 46.1641 43.3677 46.1609C43.3637 46.1585 43.3597 46.1562 43.3557 46.1538C43.3199 46.1328 43.2832 46.1118 43.2468 46.0907C43.1853 46.0552 43.1231 46.0198 43.0596 45.984C43.0255 45.9649 42.9914 45.9456 42.9567 45.9264C42.954 45.9249 42.9513 45.9233 42.9485 45.9218C42.9484 45.9218 42.9484 45.9217 42.9484 45.9217C42.9414 45.9179 42.9347 45.914 42.9277 45.9101C42.9254 45.9088 42.9229 45.908 42.9206 45.9067C42.1773 45.4972 41.3014 45.076 40.2783 44.6772ZM42.7141 48.1176L42.8762 47.7795C42.881 47.7825 42.886 47.7855 42.8909 47.7885C42.9525 47.8268 43.0117 47.8645 43.0704 47.9021C43.0898 47.9145 43.1105 47.9272 43.1296 47.9395C43.1823 47.9735 43.2321 48.0068 43.2824 48.0403C43.3118 48.0597 43.3425 48.0796 43.3711 48.0989C43.419 48.1312 43.4644 48.1627 43.5102 48.1943C43.5385 48.2137 43.5676 48.2334 43.5949 48.2527C43.6386 48.2834 43.6802 48.3132 43.7219 48.3431C43.7424 48.3579 43.7634 48.3729 43.7835 48.3874L42.4794 48.6088L42.7141 48.1176ZM49.7719 48.7899C49.51 48.9341 49.347 49.2095 49.347 49.5085V53.6248L43.4023 50.1151L45.7821 49.7112C45.7907 49.7098 45.7989 49.7068 45.8074 49.705C45.8277 49.7009 45.8477 49.6962 45.8675 49.6906C45.8818 49.6866 45.896 49.6822 45.91 49.6774C45.9291 49.6708 45.9478 49.6636 45.9661 49.6556C45.9798 49.6498 45.9934 49.6439 46.0067 49.6373C46.0248 49.6285 46.0421 49.6186 46.0594 49.6085C46.072 49.6011 46.0846 49.594 46.0966 49.5861C46.1139 49.5746 46.1303 49.562 46.1467 49.5493C46.1575 49.5409 46.1687 49.533 46.179 49.524C46.196 49.5094 46.2119 49.4934 46.2278 49.4773C46.2362 49.4688 46.2451 49.4609 46.2531 49.452C46.2716 49.4315 46.2887 49.4095 46.3051 49.3871C46.3092 49.3814 46.314 49.3764 46.318 49.3706C46.3375 49.3427 46.3553 49.3134 46.3712 49.2829L49.2557 43.7734L53.6027 46.6826L49.7719 48.7899Z" fill="#B38339"/>
<path d="M45.044 13.3268C45.0041 12.9404 44.6988 12.635 44.3123 12.5951C34.8518 11.6191 28.5875 6.48214 28.5259 6.43085C28.2219 6.17677 27.7791 6.17677 27.4746 6.43041C27.4125 6.48225 21.1482 11.6192 11.6876 12.5951C11.3012 12.635 10.9958 12.9404 10.956 13.3268C10.9403 13.4788 10.5792 17.1069 11.1426 22.0606C11.6646 26.6496 13.1194 33.2673 17.085 38.7333C17.2453 38.9543 17.4957 39.0718 17.7493 39.0718C17.9162 39.0718 18.0848 39.021 18.2302 38.9154C18.5967 38.6494 18.6784 38.1366 18.4123 37.77C14.6644 32.604 13.279 26.2965 12.7766 21.9148C12.3647 18.322 12.4626 15.3981 12.5385 14.1487C20.6579 13.1392 26.3013 9.36535 27.9999 8.09902C29.6985 9.36546 35.3414 13.1395 43.4617 14.1487C43.5179 15.0618 43.5858 16.8698 43.4556 19.184C43.4302 19.6362 43.7762 20.0233 44.2284 20.0487C44.6818 20.0732 45.0679 19.7284 45.0932 19.2762C45.2898 15.7773 45.0541 13.4253 45.044 13.3268Z" fill="#B38339"/>
<path d="M44.0751 21.74C43.6262 21.6831 43.2155 22.0012 43.1586 22.4505C41.3333 36.8735 33.977 42.8552 27.9997 45.3309C25.1113 44.1358 22.5783 42.4203 20.4672 40.229C20.1532 39.903 19.6339 39.893 19.3078 40.2074C18.9816 40.5216 18.9719 41.0408 19.2861 41.367C21.6339 43.8039 24.4637 45.6917 27.6969 46.9778C27.7943 47.0166 27.897 47.0359 27.9999 47.0359C28.1029 47.0359 28.2057 47.0166 28.303 46.9778C33.5899 44.8747 37.7278 41.213 40.6015 36.0944C42.7291 32.3046 44.1368 27.7836 44.7857 22.6564C44.8426 22.2072 44.5243 21.7969 44.0751 21.74Z" fill="#B38339"/>
<path d="M37.1695 19.749C36.0495 18.6291 34.2276 18.6293 33.1076 19.7491L25.8035 27.0532L23.1669 24.4165C22.0469 23.2967 20.225 23.2968 19.105 24.4166C17.9852 25.5366 17.9852 27.3587 19.105 28.4786L23.7727 33.1462C24.315 33.6887 25.0363 33.9873 25.8035 33.9873C26.5708 33.9873 27.2921 33.6885 27.8344 33.1461L37.1696 23.811C38.2894 22.6912 38.2894 20.869 37.1695 19.749ZM36.01 22.6513L26.6749 31.9864C26.4422 32.2191 26.1328 32.3473 25.8037 32.3473C25.4746 32.3473 25.1652 32.2191 24.9325 31.9864L20.265 27.3189C19.7845 26.8384 19.7845 26.0568 20.2648 25.5763C20.505 25.3362 20.8205 25.2161 21.1362 25.2161C21.4516 25.2161 21.7671 25.3363 22.0073 25.5763L25.2237 28.7929C25.3776 28.9468 25.586 29.0331 25.8036 29.0331C26.021 29.0331 26.2296 28.9467 26.3835 28.7929L34.2674 20.9089C34.748 20.4283 35.5294 20.4282 36.01 20.9087C36.4904 21.3893 36.4904 22.171 36.01 22.6513Z" fill="#B38339"/>
</g>
<defs>
<clipPath id="clip0_55_4731">
<rect width="56" height="56" fill="white"/>
</clipPath>
</defs>
</svg>
