<svg width="56" height="56" viewBox="0 0 56 56" fill="none" xmlns="http://www.w3.org/2000/svg">
<g clip-path="url(#clip0_71_5017)">
<path d="M55.5844 16.1847L54.08 15.0135C53.9628 14.9227 53.9845 14.7716 53.9845 14.691V12.0489C53.9845 11.3738 53.4353 10.8245 52.7601 10.8245H51.0944C50.518 10.8245 50.0345 11.2255 49.9052 11.7629L46.4613 9.0814C46.2302 8.90142 45.9327 8.80237 45.6236 8.80237C45.3146 8.80237 45.017 8.90154 44.7859 9.0814L35.6628 16.1848C35.1309 16.599 35.2432 17.0785 35.2902 17.2156C35.3374 17.3528 35.5433 17.8 36.2174 17.8H36.7764C36.7764 17.8 36.9754 17.7999 36.9754 18.0141C36.9754 19.7435 36.9754 23.927 36.9754 25.3603C36.9754 25.748 36.7718 25.8134 36.7718 25.8134C36.5025 25.8134 36.1349 25.9775 35.9551 26.1779L31.2355 31.4384C31.0557 31.639 30.9859 32.0093 31.0805 32.2616L33.0308 37.4577C33.1255 37.7099 33.0049 38.0131 32.7629 38.1313L28.7284 40.1038C28.4864 40.2222 28.2628 40.5378 28.2315 40.8052L28.002 42.766C27.9707 43.0334 27.7959 43.0902 27.6133 42.8921L25.1121 40.1763C24.9295 39.9782 24.9732 39.7094 25.2089 39.5793L28.5815 37.7162C28.8173 37.5859 28.8831 37.2993 28.7277 37.0794L25.162 32.0316C25.0067 31.8116 24.8368 31.4155 24.7848 31.1512L23.8272 26.2937C23.7752 26.0294 23.5122 25.8131 23.2429 25.8131C23.2429 25.8131 22.7034 25.8131 22.5237 25.8131C22.1156 25.8131 22.0649 25.4723 22.0649 25.4723V17.9425C22.0649 17.9425 22.0645 17.7998 22.1971 17.7998C22.3536 17.7998 22.8229 17.7998 22.8229 17.7998C23.4969 17.7998 23.703 17.3525 23.7501 17.2154C23.7971 17.0783 23.9094 16.5988 23.3775 16.1846L21.8732 15.0134C21.756 14.9225 21.7777 14.7715 21.7777 14.6909V12.0487C21.7777 11.3736 21.2284 10.8244 20.5533 10.8244H18.8876C18.3112 10.8244 17.8277 11.2254 17.6984 11.7627L14.2545 9.08128C14.0234 8.9013 13.7258 8.80225 13.4168 8.80225C13.1078 8.80225 12.8102 8.90142 12.5791 9.08128L3.45598 16.1847C2.92412 16.5989 3.03639 17.0784 3.08341 17.2155C3.13055 17.3526 3.33648 17.7999 4.01061 17.7999H4.56953C4.56953 17.7999 4.76861 17.7998 4.76861 18.014C4.76861 19.6335 4.76861 23.8029 4.76861 25.503C4.76861 25.6182 4.79126 25.8133 4.52606 25.8133H0.489741C0.220383 25.8133 0 26.0336 0 26.303V45.7524C0 46.0218 0.220383 46.2422 0.489741 46.2422H1.34679C1.61614 46.2422 1.83653 46.0218 1.83653 45.7524C1.83653 45.7524 1.83653 36.1514 1.83653 32.9511C1.83653 32.7369 2.07675 32.7362 2.07675 32.7362H23.2582C23.4214 32.7362 23.5065 32.8712 23.5065 32.8712L26.0442 36.4638C26.1997 36.6837 26.1338 36.9703 25.8981 37.1004L22.2735 39.1027C22.0377 39.233 21.9941 39.5016 22.1766 39.6997L28.9727 47.079C29.1551 47.2771 29.3301 47.2203 29.3613 46.9529L29.939 42.0147C29.9703 41.7472 30.1939 41.4315 30.4359 41.3133L35.0688 39.0481C35.3107 38.9299 35.4313 38.6267 35.3366 38.3745L33.2203 32.7362H53.5953V45.7524C53.5953 46.0218 53.8157 46.2422 54.085 46.2422H54.9421C55.2114 46.2422 55.4318 46.0218 55.4318 45.7524V26.303C55.4318 26.0336 55.2114 25.8133 54.9421 25.8133C54.9421 25.8133 54.6734 25.8133 54.5838 25.8133C54.2318 25.8133 54.272 25.5132 54.272 25.5132V17.9426C54.272 17.9426 54.2716 17.7999 54.4042 17.7999C54.5607 17.7999 55.03 17.7999 55.03 17.7999C55.704 17.7999 55.91 17.3526 55.9572 17.2155C56.0041 17.0784 56.1163 16.5989 55.5844 16.1847ZM12.15 23.1633C12.1499 23.1585 12.1481 22.6751 12.4486 22.3714C12.6411 22.1767 12.9459 22.0781 13.3547 22.0781C14.5306 22.0781 14.6675 22.8486 14.6718 23.1714C14.6685 23.4432 14.6657 23.8879 14.6657 24.1597V25.4929C14.6657 25.4929 14.7182 25.8134 14.3304 25.8134C13.8687 25.8134 13.0292 25.8134 12.4837 25.8134C12.1266 25.8134 12.167 25.5337 12.167 25.5337V24.1597C12.1671 23.8827 12.1593 23.4321 12.15 23.1633ZM19.1321 12.382C19.1321 12.2787 19.2381 12.2936 19.2381 12.2936H20.1984C20.1984 12.2936 20.3081 12.294 20.3081 12.4202C20.3081 12.7191 20.3081 13.1979 20.3081 13.4571C20.3081 13.5986 20.2118 13.536 20.2118 13.536L19.2456 12.7336C19.2004 12.6913 19.132 12.6498 19.132 12.4944C19.1321 12.4944 19.1321 12.4102 19.1321 12.382ZM5.74895 16.5771C5.67793 16.5235 5.56627 16.4224 5.76817 16.2462L13.1311 10.5134C13.1311 10.5134 13.2491 10.4027 13.4165 10.4027C13.5959 10.4027 13.6921 10.5058 13.6921 10.5058L21.194 16.3469C21.2991 16.4429 21.2128 16.4907 21.1654 16.5208C20.8232 16.7381 20.5954 17.1205 20.5954 17.5551V25.4725C20.5954 25.4725 20.6358 25.8134 20.1564 25.8134C19.2584 25.8134 17.5725 25.8134 16.5649 25.8134C16.1262 25.8134 16.1349 25.4521 16.1349 25.4521V24.1597C16.1349 23.8927 16.1376 23.456 16.1409 23.1894C16.1422 23.0811 16.1329 22.1108 15.4035 21.3722C14.9032 20.8657 14.2139 20.6089 13.3547 20.6089C12.3246 20.6089 11.7152 21.0159 11.3853 21.3572C10.6648 22.1029 10.6776 23.0951 10.6814 23.2058C10.6904 23.4688 10.6978 23.8968 10.6978 24.1597V25.5847C10.6978 25.5847 10.7288 25.8134 10.4431 25.8134C9.4662 25.8134 7.57592 25.8134 6.53535 25.8134C6.16804 25.8134 6.23722 25.5439 6.23722 25.5439V17.5551C6.23734 17.1559 6.04536 16.8008 5.74895 16.5771ZM1.83653 28.1395C1.83653 27.8702 2.05691 27.6498 2.32627 27.6498H21.7329C22.0022 27.6498 22.2652 27.866 22.3174 28.1304L22.8939 31.0552C22.8939 31.0552 22.9342 31.267 22.5975 31.267C17.4878 31.267 7.35285 31.267 2.15841 31.267C1.78339 31.267 1.83653 30.9693 1.83653 30.9693V28.1395V28.1395ZM51.3392 12.382C51.3392 12.2787 51.4452 12.2936 51.4452 12.2936H52.4055C52.4055 12.2936 52.5152 12.294 52.5152 12.4202C52.5152 12.7191 52.5152 13.1979 52.5152 13.4571C52.5152 13.5986 52.419 13.536 52.419 13.536L51.4527 12.7336C51.4075 12.6913 51.339 12.6498 51.339 12.4944C51.3392 12.4944 51.3392 12.4102 51.3392 12.382ZM44.3571 23.1633C44.3569 23.1585 44.3552 22.6751 44.6557 22.3714C44.8481 22.1767 45.153 22.0781 45.5618 22.0781C46.7376 22.0781 46.8746 22.8486 46.8789 23.1714C46.8755 23.4432 46.8727 23.8879 46.8727 24.1597V25.5592C46.8727 25.5592 46.9008 25.8134 46.633 25.8134C46.1589 25.8134 45.1117 25.8134 44.6969 25.8134C44.3449 25.8134 44.3741 25.5515 44.3741 25.5515V24.1597C44.3742 23.8827 44.3664 23.4321 44.3571 23.1633ZM33.8563 31.267L36.7743 28.0144C36.9541 27.8139 37.3217 27.6499 37.591 27.6499H53.1052C53.3745 27.6499 53.5949 27.8703 53.5949 28.1397V31.2671H33.8563V31.267ZM48.6226 25.8133C48.2935 25.8133 48.342 25.5744 48.342 25.5744V24.1595C48.342 23.8926 48.3446 23.4559 48.3479 23.1892C48.3493 23.081 48.34 22.1107 47.6105 21.3721C47.1103 20.8655 46.4209 20.6088 45.5618 20.6088C44.5316 20.6088 43.9223 21.0158 43.5923 21.3571C42.8719 22.1027 42.8846 23.095 42.8884 23.2056C42.8975 23.4686 42.9048 23.8967 42.9048 24.1595V25.5668C42.9048 25.5668 42.9369 25.8133 42.5925 25.8133C41.6283 25.8133 39.7781 25.8133 38.7358 25.8133C38.445 25.8133 38.4443 25.5744 38.4443 25.5744V17.555C38.4443 17.1559 38.2523 16.8008 37.9559 16.5771C37.8849 16.5235 37.7732 16.4224 37.9751 16.2462L45.338 10.5134C45.338 10.5134 45.456 10.4027 45.6234 10.4027C45.8029 10.4027 45.899 10.5058 45.899 10.5058L53.401 16.3469C53.506 16.4429 53.4197 16.4907 53.3723 16.5208C53.0301 16.7381 52.8024 17.1205 52.8024 17.5551V25.5745C52.8024 25.5745 52.8081 25.8134 52.5096 25.8134C51.538 25.8133 49.6676 25.8133 48.6226 25.8133Z" fill="#B38339"/>
<path d="M5.77225 34.7559C4.70376 34.7559 3.83447 35.6252 3.83447 36.6935C3.83447 37.762 4.70376 38.6312 5.77225 38.6312C6.84075 38.6312 7.70991 37.7619 7.70991 36.6935C7.70991 35.6252 6.84075 34.7559 5.77225 34.7559Z" fill="#B38339"/>
<path d="M13.0307 33.5527C11.9622 33.5527 11.093 34.422 11.093 35.4904C11.093 36.5588 11.9623 37.4281 13.0307 37.4281C14.0992 37.4281 14.9685 36.5588 14.9685 35.4904C14.9685 34.422 14.0992 33.5527 13.0307 33.5527Z" fill="#B38339"/>
<path d="M17.7539 36.437C16.6855 36.437 15.8162 37.3063 15.8162 38.3747C15.8162 39.4433 16.6855 40.3125 17.7539 40.3125C18.8224 40.3125 19.6916 39.4432 19.6916 38.3747C19.6916 37.3062 18.8223 36.437 17.7539 36.437Z" fill="#B38339"/>
<path d="M38.2402 39.0999C38.9046 39.0999 39.4432 38.5613 39.4432 37.8969C39.4432 37.2325 38.9046 36.6938 38.2402 36.6938C37.5757 36.6938 37.0371 37.2325 37.0371 37.8969C37.0371 38.5613 37.5757 39.0999 38.2402 39.0999Z" fill="#B38339"/>
<path d="M45.6235 36.6937C46.2879 36.6937 46.8265 36.1551 46.8265 35.4906C46.8265 34.8262 46.2879 34.2876 45.6235 34.2876C44.959 34.2876 44.4204 34.8262 44.4204 35.4906C44.4204 36.1551 44.959 36.6937 45.6235 36.6937Z" fill="#B38339"/>
<path d="M50.4362 40.3031C51.1006 40.3031 51.6392 39.7644 51.6392 39.1C51.6392 38.4356 51.1006 37.897 50.4362 37.897C49.7718 37.897 49.2332 38.4356 49.2332 39.1C49.2332 39.7644 49.7718 40.3031 50.4362 40.3031Z" fill="#B38339"/>
</g>
<defs>
<clipPath id="clip0_71_5017">
<rect width="56" height="56" fill="white"/>
</clipPath>
</defs>
</svg>
