<svg width="56" height="56" viewBox="0 0 56 56" fill="none" xmlns="http://www.w3.org/2000/svg">
<path d="M31.1361 4.47803C23.1043 4.47803 16.5701 11.0123 16.5701 19.044C16.5701 27.0757 23.1043 33.61 31.1361 33.61C39.1678 33.61 45.702 27.0757 45.702 19.044C45.702 11.0124 39.1679 4.47803 31.1361 4.47803ZM31.1362 31.9694C24.0092 31.9694 18.2109 26.1712 18.2109 19.0441C18.2109 11.9172 24.0091 6.11887 31.1362 6.11887C38.2632 6.11887 44.0614 11.917 44.0614 19.0441C44.0613 26.1712 38.2631 31.9694 31.1362 31.9694Z" fill="#B38339"/>
<path d="M31.141 18.145C29.7989 18.145 28.7073 19.2368 28.7073 20.5787C28.7073 21.633 29.3811 22.5324 30.3207 22.8698V23.5593C30.3207 24.0123 30.6879 24.3796 31.141 24.3796C31.594 24.3796 31.9613 24.0123 31.9613 23.5593V22.8698C32.9007 22.5324 33.5747 21.6329 33.5747 20.5787C33.5748 19.2368 32.483 18.145 31.141 18.145ZM31.141 21.3718C30.7037 21.3718 30.348 21.0161 30.348 20.5788C30.348 20.1415 30.7038 19.7859 31.141 19.7859C31.5783 19.7859 31.9339 20.1415 31.9339 20.5788C31.9339 21.0161 31.5783 21.3718 31.141 21.3718Z" fill="#B38339"/>
<path d="M31.1674 0C20.5058 0 11.832 8.67386 11.832 19.3355V22.0876C11.832 24.8584 10.7529 27.4632 8.79374 29.4225L6.24465 31.9716C4.64734 33.5689 5.77718 36.2977 8.03654 36.2977C11.9548 36.2977 11.832 36.2489 11.832 36.4268V39.5721C11.832 44.7365 16.0335 48.938 21.1978 48.938C22.5779 48.938 23.7005 50.0607 23.7005 51.4407V54.1706C23.7005 55.1793 24.5211 55.9999 25.5298 55.9999H31.2646C31.7176 55.9999 32.0849 55.6326 32.0849 55.1796C32.0849 54.7266 31.7176 54.3593 31.2646 54.3593H25.5298C25.4259 54.3593 25.3413 54.2747 25.3413 54.1707V51.4408C25.3413 49.1561 23.4824 47.2974 21.1978 47.2974C16.9382 47.2974 13.4727 43.8318 13.4727 39.5722V36.4269C13.4727 35.4511 12.6787 34.657 11.7028 34.657H8.03654C7.24084 34.657 6.84184 33.6947 7.40479 33.1318L9.95388 30.5827C12.223 28.3136 13.4727 25.2966 13.4727 22.0877V19.3357C13.4727 9.57872 21.4106 1.64084 31.1677 1.64084C40.9248 1.64084 48.8626 9.57872 48.8626 19.3358V27.4066C48.8626 31.72 47.2921 35.8751 44.4404 39.1065C42.5468 41.2522 41.5039 44.1104 41.5039 47.1544V54.1558C41.5039 54.2679 41.4127 54.3591 41.3006 54.3591H35.0931C34.6401 54.3591 34.2728 54.7263 34.2728 55.1794C34.2728 55.6324 34.6401 55.9997 35.0931 55.9997H41.3006C42.3174 55.9997 43.1446 55.1725 43.1446 54.1557V47.1543C43.1446 44.5103 44.0416 42.0377 45.6705 40.192C48.7871 36.6605 50.5034 32.1199 50.5034 27.4064V19.3356C50.5033 8.67397 41.8293 0 31.1674 0Z" fill="#B38339"/>
<path d="M37.1987 20.7463C37.6518 20.7463 38.0191 20.3791 38.0191 19.926V17.6585C38.0189 16.4474 37.0336 15.462 35.8225 15.462H35.7608V13.0481C35.7608 10.5008 33.6884 8.42822 31.141 8.42822C28.5937 8.42822 26.5213 10.5007 26.5213 13.0481V15.462H26.2549C25.0437 15.462 24.0583 16.4473 24.0583 17.6585V26.022C24.0583 27.2332 25.0437 28.2185 26.2549 28.2185H35.8225C37.0337 28.2185 38.0189 27.2332 38.0189 26.022V23.7545C38.0189 23.3014 37.6517 22.9342 37.1986 22.9342C36.7456 22.9342 36.3783 23.3014 36.3783 23.7545V26.022C36.3783 26.3233 36.1238 26.5778 35.8226 26.5778H26.255C25.9538 26.5778 25.6992 26.3233 25.6992 26.022V17.6585C25.6992 17.3573 25.9537 17.1027 26.255 17.1027C27.3173 17.1027 34.5706 17.1027 35.8226 17.1027C36.1238 17.1027 36.3783 17.3573 36.3783 17.6585V19.926C36.3783 20.3791 36.7456 20.7463 37.1987 20.7463ZM34.1201 15.462H28.162V13.0481C28.162 11.4054 29.4984 10.069 31.1411 10.069C32.7838 10.069 34.1202 11.4054 34.1202 13.0481V15.462H34.1201Z" fill="#B38339"/>
</svg>
