<svg width="56" height="56" viewBox="0 0 56 56" fill="none" xmlns="http://www.w3.org/2000/svg">
<g clip-path="url(#clip0_71_5082)">
<path d="M54.652 46.6472C55.1364 46.6472 55.5289 46.2548 55.5289 45.7704V9.29436C55.5289 9.06467 55.4345 8.83684 55.2722 8.67431L46.8547 0.256813C46.692 0.0943906 46.4643 0 46.2344 0H11.6291C10.1141 0 8.88169 1.23244 8.88169 2.74739V3.74117H1.34094C0.576628 3.74117 0.179925 4.69689 0.721002 5.23808L7.58319 12.1003L0.721002 18.9625C0.179925 19.5035 0.576518 20.4594 1.34094 20.4594H8.88169V53.2527C8.88169 54.7677 10.1141 56.0001 11.6291 56.0001H52.7815C54.2965 56.0001 55.5289 54.7677 55.5289 53.2527V49.5115C55.5289 49.0272 55.1365 48.6347 54.652 48.6347C54.1677 48.6347 53.7752 49.0271 53.7752 49.5115V53.2527C53.7752 53.8007 53.3294 54.2465 52.7814 54.2465H11.6291C11.0811 54.2465 10.6353 53.8007 10.6353 53.2527V20.4592H16.3054C16.7896 20.4592 17.1823 20.0668 17.1823 19.5824C17.1823 19.098 16.7897 18.7055 16.3054 18.7055H3.45778L9.44322 12.7203C9.78567 12.3778 9.78567 11.8227 9.44322 11.4802L3.45778 5.49478H41.6165V18.7056H20.0466C19.5624 18.7056 19.1697 19.0981 19.1697 19.5825C19.1697 20.0669 19.5623 20.4594 20.0466 20.4594H42.4934C42.9777 20.4594 43.3702 20.0669 43.3702 19.5825V4.61792C43.3702 4.13361 42.9778 3.74106 42.4934 3.74106H10.6353V2.74728C10.6353 2.19931 11.0811 1.7535 11.6291 1.7535H45.3577V7.42361C45.3577 8.93856 46.5901 10.171 48.1051 10.171H53.7752V45.7702C53.7752 46.2547 54.1676 46.6472 54.652 46.6472ZM48.1051 8.4175C47.5571 8.4175 47.1113 7.97169 47.1113 7.42372V2.99359L52.5351 8.4175H48.1051V8.4175Z" fill="#B38339"/>
<path d="M20.982 14.0292H19.0529V10.1712H20.982C21.4662 10.1712 21.8588 9.77876 21.8588 9.29434C21.8588 8.81003 21.4663 8.41748 20.982 8.41748H18.1762C17.692 8.41748 17.2993 8.80992 17.2993 9.29434V14.906C17.2993 15.3904 17.6919 15.7829 18.1762 15.7829H20.982C21.4662 15.7829 21.8588 15.3905 21.8588 14.906C21.8588 14.4216 21.4663 14.0292 20.982 14.0292Z" fill="#B38339"/>
<path d="M28.3608 14.6287L26.4902 9.01696C26.3709 8.65887 26.0358 8.41748 25.6584 8.41748C25.2811 8.41748 24.946 8.65887 24.8266 9.01696L22.9561 14.6287C22.803 15.0881 23.0513 15.5847 23.5108 15.7378C23.9701 15.8907 24.4665 15.6428 24.6198 15.1833L25.6585 12.0671L26.6973 15.1833C26.8547 15.6553 27.3901 15.9031 27.8526 15.7209C28.2797 15.5524 28.5058 15.0635 28.3608 14.6287Z" fill="#B38339"/>
<path d="M32.2054 8.41748H30.3349C29.8506 8.41748 29.458 8.80992 29.458 9.29434V14.906C29.458 15.3904 29.8504 15.7829 30.3349 15.7829H34.076C34.5604 15.7829 34.9529 15.3905 34.9529 14.906V11.1649C34.9528 9.65003 33.7204 8.41748 32.2054 8.41748ZM33.1992 14.0292H31.2117V12.975C31.231 12.9763 31.2506 12.977 31.2701 12.977H33.1992V14.0292ZM33.1992 11.2234H31.2701C31.2504 11.2234 31.231 11.224 31.2117 11.2254V10.1712H32.2055C32.7535 10.1712 33.1993 10.617 33.1993 11.165V11.2234H33.1992Z" fill="#B38339"/>
<path d="M45.2992 34.6052H44.3054V29.8704C44.3054 29.3861 43.913 28.9935 43.4285 28.9935H40.5642V24.2587C40.5642 23.7744 40.1718 23.3818 39.6874 23.3818H24.723C24.2388 23.3818 23.8462 23.7743 23.8462 24.2587V28.9935H20.9818C20.4976 28.9935 20.105 29.386 20.105 29.8704V34.6052H19.1112C18.1119 34.6052 17.2991 35.4181 17.2991 36.4174V49.5113C17.2991 50.5106 18.1119 51.3234 19.1112 51.3234H24.7229C25.2071 51.3234 25.5998 50.931 25.5998 50.4466C25.5998 49.9623 25.2072 49.5697 24.7229 49.5697H19.1112C19.0789 49.5697 19.0528 49.5433 19.0528 49.5113V36.4173C19.0528 36.3851 19.0789 36.3588 19.1112 36.3588H45.2991C45.3312 36.3588 45.3575 36.3851 45.3575 36.4173V49.5112C45.3575 49.5433 45.3312 49.5696 45.2991 49.5696H27.5288C27.0446 49.5696 26.6519 49.962 26.6519 50.4465C26.6519 50.9308 27.0445 51.3233 27.5288 51.3233H45.2992C46.2984 51.3233 47.1113 50.5104 47.1113 49.5112V36.4173C47.1113 35.4181 46.2984 34.6052 45.2992 34.6052ZM25.5999 25.1354H38.8107V28.9934H25.5999V25.1354ZM42.5518 34.6052H21.8587V30.7473H42.5518V34.6052Z" fill="#B38339"/>
<path d="M35.0113 38.3467H29.3996C28.9153 38.3467 28.5227 38.7391 28.5227 39.2235V46.7058C28.5227 47.1901 28.9151 47.5826 29.3996 47.5826H35.0113C35.4956 47.5826 35.8881 47.1902 35.8881 46.7058V39.2235C35.888 38.7391 35.4956 38.3467 35.0113 38.3467ZM34.1344 45.8289H30.2764V44.7767H34.1344V45.8289ZM34.1344 43.0231H30.2764V40.1003H34.1344V43.0231Z" fill="#B38339"/>
</g>
<defs>
<clipPath id="clip0_71_5082">
<rect width="56" height="56" fill="white"/>
</clipPath>
</defs>
</svg>
