<svg width="56" height="56" viewBox="0 0 56 56" fill="none" xmlns="http://www.w3.org/2000/svg">
<g clip-path="url(#clip0_55_4796)">
<path d="M55.8811 26.6418C55.6503 25.9824 55.1255 25.5095 54.4788 25.3419L48.677 14.6248C49.4255 14.2023 49.9325 13.3998 49.9325 12.4807C49.9325 11.1239 48.8285 10.0199 47.4717 10.0199C46.4081 10.0199 45.5003 10.6981 45.1573 11.6447C42.848 11.5497 40.3831 10.9918 37.7862 10.4024C35.4901 9.88135 33.1367 9.34883 30.7287 9.09651L30.448 6.623C30.9761 6.48453 31.463 6.27695 31.7855 5.96678C32.4066 5.36918 32.7629 4.45124 32.7629 3.44809C32.7629 2.44495 32.4066 1.52701 31.7854 0.929302C30.9153 0.0922928 28.8483 0.00195312 28.0002 0.00195312C27.152 0.00195312 25.085 0.0922928 24.2149 0.929411C23.5938 1.52701 23.2374 2.44495 23.2374 3.44809C23.2374 4.45124 23.5938 5.36918 24.2149 5.96678C24.5373 6.27695 25.0241 6.48443 25.5524 6.623L25.2716 9.09651C22.8635 9.34883 20.5102 9.88135 18.2142 10.4024C15.6174 10.9918 13.1523 11.5497 10.8431 11.6447C10.5001 10.6981 9.59221 10.0199 8.52869 10.0199C7.17185 10.0199 6.06787 11.1239 6.06787 12.4807C6.06787 13.3999 6.5748 14.2023 7.32332 14.6248L6.16685 16.7612C5.95117 17.1596 6.09936 17.6573 6.49769 17.873C6.62183 17.9402 6.75548 17.972 6.88738 17.972C7.17885 17.972 7.46102 17.8164 7.60955 17.5421L8.5265 15.8483L13.5982 25.2743H3.42341L6.06207 20.4003C6.27775 20.0019 6.12955 19.5043 5.73122 19.2885C5.33268 19.0727 4.83505 19.221 4.61937 19.6193L1.52135 25.3419C0.874647 25.5093 0.34989 25.9824 0.11901 26.6418C-0.174321 27.4799 0.0852143 28.3797 0.78037 28.9341C3.20029 30.8644 5.85405 31.8296 8.50868 31.8294C11.1628 31.8292 13.8177 30.8641 16.237 28.9341C16.932 28.3797 17.1917 27.48 16.8983 26.6419C16.6678 25.983 16.1436 25.5102 15.4974 25.3423L9.73154 14.6263C10.2515 14.3335 10.6546 13.8576 10.8531 13.2864C13.3261 13.1925 15.8831 12.6137 18.577 12.0024C20.7054 11.5194 22.8842 11.0255 25.0815 10.768L24.8292 12.9905C20.215 13.9984 17.4631 17.3004 17.4631 22.1074C17.4631 26.2527 19.5096 29.279 23.0314 30.6804V42.4298C22.2835 42.4834 21.5348 42.5184 20.787 42.5296C20.334 42.5364 19.9723 42.9091 19.9791 43.362C19.9859 43.8109 20.3517 44.1701 20.799 44.1701C20.8032 44.1701 20.8073 44.1701 20.8115 44.17C23.2721 44.1331 25.7438 43.8745 28.1577 43.4016C30.476 42.9473 32.8496 42.6989 35.2129 42.6636C35.6659 42.6568 36.0276 42.2841 36.0208 41.8312C36.014 41.3823 35.6482 41.0232 35.2009 41.0232C35.1967 41.0232 35.1926 41.0232 35.1884 41.0233C34.4487 41.0343 33.7083 41.0679 32.9685 41.1189V34.8337C34.6533 34.7125 36.3442 34.7007 38.0319 34.7962C38.3856 37.1767 40.3332 39.2777 42.7878 39.909V41.3706C42.7878 41.8237 43.1549 42.1909 43.608 42.1909C44.0612 42.1909 44.4283 41.8237 44.4283 41.3706V34.6717C44.4283 34.2795 44.1507 33.9422 43.7658 33.8667C40.1988 33.1677 36.5701 32.9404 32.9685 33.189V30.6805C36.4904 29.2791 38.5368 26.2528 38.5368 22.1075C38.5368 21.916 38.5325 21.7255 38.524 21.5411C38.5031 21.0886 38.1208 20.7397 37.6666 20.7595C37.2141 20.7804 36.8642 21.1643 36.8851 21.6169C36.8924 21.776 36.8962 21.9411 36.8962 22.1074C36.8962 26.9932 33.5705 29.9101 28 29.9101C22.4294 29.9101 19.1037 26.9932 19.1037 22.1074C19.1037 17.2217 22.4294 14.3048 28 14.3048C32.0767 14.3048 35.0028 15.8607 36.2392 18.6856C36.4209 19.1008 36.9048 19.2898 37.3196 19.1082C37.7347 18.9266 37.9238 18.4428 37.7422 18.0279C36.6084 15.4372 34.2842 13.6874 31.1712 12.9962L30.9183 10.7679C33.1157 11.0255 35.2945 11.5194 37.4228 12.0023C40.1168 12.6136 42.6737 13.1924 45.1467 13.2863C45.3452 13.8575 45.7483 14.3335 46.2683 14.6262L40.5024 25.3422C39.8562 25.5101 39.332 25.9829 39.1015 26.6418C38.8081 27.4799 39.0677 28.3795 39.7628 28.9339C42.1824 30.8641 44.8368 31.8293 47.4911 31.8293C50.1454 31.8293 52.7998 30.8642 55.2194 28.9339C55.9148 28.3795 56.1743 27.4799 55.8811 26.6418V26.6418ZM8.52847 11.6605C8.98083 11.6605 9.34875 12.0284 9.34875 12.4807C9.34875 12.932 8.98247 13.2992 8.53165 13.3009C8.53099 13.3009 8.53033 13.3009 8.52968 13.3009C8.52847 13.3009 8.52716 13.3009 8.52596 13.3009C8.07481 13.2996 7.70809 12.9322 7.70809 12.4807C7.7082 12.0284 8.07612 11.6605 8.52847 11.6605ZM15.2139 27.6515C10.9526 31.0509 6.06469 31.0509 1.80331 27.6515C1.5919 27.4828 1.63783 27.2681 1.66747 27.1838C1.70258 27.0834 1.7985 26.915 2.04655 26.915H14.9708C15.2189 26.915 15.3149 27.0834 15.35 27.1838C15.3794 27.2682 15.4253 27.4828 15.2139 27.6515ZM42.7878 38.1967C41.2749 37.6636 40.0843 36.3911 39.7256 34.9281C40.7495 35.03 41.7711 35.1708 42.7878 35.3523V38.1967ZM24.672 31.1906C25.4543 31.3719 26.2922 31.4848 27.1798 31.5282V41.9137C26.3491 42.0617 25.5123 42.1829 24.672 42.2782V31.1906ZM31.328 41.2633C30.4882 41.3547 29.6514 41.4707 28.8202 41.6128V31.5281C29.7078 31.4847 30.5458 31.3718 31.328 31.1905V41.2633ZM24.8779 3.44798C24.8779 2.89687 25.0552 2.39727 25.3522 2.11148C25.5489 1.92227 26.5263 1.64229 28.0001 1.64229C29.4738 1.64229 30.4513 1.92227 30.6479 2.11137C30.945 2.39716 31.1223 2.89687 31.1223 3.44798C31.1223 3.9991 30.945 4.4987 30.6479 4.7846C30.4513 4.9737 29.4737 5.25368 28.0001 5.25368C26.5264 5.25368 25.5489 4.9737 25.3522 4.7846C25.0552 4.49881 24.8779 3.9991 24.8779 3.44798V3.44798ZM27.1755 6.86722C27.5012 6.88866 27.7885 6.89423 28.0001 6.89423C28.2116 6.89423 28.499 6.88855 28.8246 6.86722L29.0635 8.97117C28.7101 8.95553 28.3558 8.94558 28.0001 8.94558C27.6443 8.94558 27.29 8.95553 26.9367 8.97117L27.1755 6.86722ZM29.4906 12.7343C29.0078 12.6887 28.5112 12.6642 28.0001 12.6642C27.487 12.6642 26.9912 12.6893 26.5096 12.7336L26.7492 10.6221C27.1658 10.599 27.5828 10.586 28 10.586C28.4171 10.586 28.8341 10.599 29.2507 10.6221L29.4906 12.7343ZM52.5767 25.2744H42.4021L47.4738 15.8484L52.5767 25.2744ZM47.4717 11.6605C47.924 11.6605 48.2919 12.0284 48.2919 12.4807C48.2919 12.9322 47.9253 13.2995 47.4742 13.3009C47.4727 13.3009 47.4714 13.3009 47.47 13.3009C47.4697 13.3009 47.4692 13.3009 47.4689 13.3009C47.0179 13.2994 46.6515 12.9321 46.6515 12.4807C46.6514 12.0284 47.0193 11.6605 47.4717 11.6605V11.6605ZM54.1967 27.6515C49.9353 31.0508 45.0475 31.051 40.7861 27.6515C40.5747 27.4828 40.6206 27.2682 40.6501 27.1838C40.6852 27.0834 40.7813 26.915 41.0293 26.915H53.9536C54.2016 26.915 54.2976 27.0834 54.3327 27.1838C54.3622 27.2681 54.4081 27.4828 54.1967 27.6515Z" fill="#B38339"/>
<path d="M24.2311 27.2542C24.3771 27.3609 24.5464 27.4122 24.7143 27.4122C24.9671 27.4122 25.2167 27.2956 25.3773 27.0756L32.072 17.9095C32.3392 17.5437 32.2593 17.0305 31.8934 16.7633C31.5276 16.4963 31.0145 16.5761 30.7472 16.9419L24.0525 26.108C23.7853 26.4739 23.8652 26.987 24.2311 27.2542V27.2542Z" fill="#B38339"/>
<path d="M26.8953 19.0829C26.8953 17.639 25.8331 16.4644 24.5274 16.4644C23.2218 16.4644 22.1597 17.639 22.1597 19.0829C22.1597 20.5268 23.2219 21.7015 24.5274 21.7015C25.8331 21.7016 26.8953 20.5269 26.8953 19.0829ZM23.8001 19.0829C23.8001 18.5527 24.1331 18.1049 24.5273 18.1049C24.9215 18.1049 25.2546 18.5528 25.2546 19.0829C25.2546 19.613 24.9215 20.061 24.5273 20.061C24.1331 20.061 23.8001 19.6131 23.8001 19.0829Z" fill="#B38339"/>
<path d="M31.4727 27.8591C32.7784 27.8591 33.8405 26.6845 33.8405 25.2406C33.8405 23.7967 32.7783 22.6221 31.4727 22.6221C30.1671 22.6221 29.1049 23.7967 29.1049 25.2406C29.1049 26.6845 30.1669 27.8591 31.4727 27.8591ZM31.4727 24.2625C31.8669 24.2625 32.1999 24.7104 32.1999 25.2405C32.1999 25.7706 31.8669 26.2185 31.4727 26.2185C31.0785 26.2185 30.7454 25.7706 30.7454 25.2405C30.7454 24.7104 31.0784 24.2625 31.4727 24.2625Z" fill="#B38339"/>
<path d="M43.6081 43.8312C43.1549 43.8312 42.7878 44.1983 42.7878 44.6514V45.0936C41.5657 45.1213 40.4414 45.5374 39.5642 46.3014C38.7576 47.004 38.2336 47.9453 38.0483 49.0022C34.6419 48.8156 31.2269 49.0531 27.8422 49.7164C24.5679 50.3581 21.2638 50.584 17.9684 50.3974C17.6148 48.0158 15.6647 45.9155 13.2123 45.2846V40.0993C14.4356 40.0719 15.5606 39.6549 16.4384 38.8891C17.2441 38.1863 17.7672 37.2461 17.9521 36.1902C18.906 36.2426 19.8602 36.2618 20.8116 36.2474C21.2646 36.2407 21.6263 35.8679 21.6195 35.415C21.6127 34.9662 21.2469 34.607 20.7996 34.607C20.7954 34.607 20.7913 34.607 20.7871 34.6071C18.0407 34.6478 15.2689 34.3992 12.5499 33.8663C12.3094 33.8193 12.0602 33.8822 11.8708 34.0379C11.6816 34.1938 11.5719 34.4261 11.5719 34.6713V50.5214C11.5719 50.9136 11.8496 51.251 12.2345 51.3264C14.876 51.8439 17.5362 52.1028 20.1963 52.1028C21.5148 52.1028 22.8334 52.0388 24.1497 51.9116C24.7325 53.1766 25.56 54.3378 26.6702 55.448C27.0369 55.8146 27.5185 55.9978 28.0002 55.9978C28.4817 55.9978 28.9635 55.8145 29.3302 55.448C30.7623 54.0158 31.7405 52.4717 32.3125 50.7382C36.0262 50.4082 39.7571 50.6026 43.4503 51.3264C43.6912 51.3735 43.9401 51.3105 44.1294 51.1548C44.3186 50.9989 44.4283 50.7666 44.4283 50.5214V44.6513C44.4283 44.1983 44.0611 43.8312 43.6081 43.8312V43.8312ZM16.3039 36.0647C16.1612 36.6867 15.8372 37.2366 15.3599 37.6529C14.7849 38.1546 14.0378 38.4322 13.2123 38.4588V35.6559C14.2381 35.8315 15.2699 35.9665 16.3039 36.0647ZM13.2123 46.9965C14.7238 47.5293 15.9154 48.8009 16.2746 50.2643C15.252 50.1623 14.2308 50.0226 13.2123 49.8405V46.9965ZM28.17 54.2879C28.0763 54.3819 27.9236 54.3817 27.8301 54.2879C27.0045 53.4624 26.3607 52.6111 25.8779 51.7058C26.6391 51.5998 27.3992 51.4751 28.1578 51.3265C28.9319 51.1748 29.7078 51.049 30.4847 50.9436C29.9783 52.148 29.2276 53.2303 28.17 54.2879V54.2879ZM39.6964 49.1273C39.8394 48.505 40.164 47.9546 40.6417 47.5385C41.2162 47.0379 41.9633 46.7606 42.7877 46.7338V49.5368C41.7595 49.3605 40.7286 49.2255 39.6964 49.1273V49.1273Z" fill="#B38339"/>
</g>
<defs>
<clipPath id="clip0_55_4796">
<rect width="56" height="56" fill="white"/>
</clipPath>
</defs>
</svg>
