<svg width="56" height="56" viewBox="0 0 56 56" fill="none" xmlns="http://www.w3.org/2000/svg">
<path d="M52.2254 52.0394C52.2252 53.029 51.4205 53.8339 50.4307 53.8339C49.441 53.8339 48.6362 53.0292 48.6362 52.0394C48.6362 50.0601 47.0266 48.4504 45.0472 48.4504C43.0679 48.4504 41.4582 50.0601 41.4582 52.0394C41.4582 53.029 40.6535 53.8339 39.6637 53.8339H38.0865C37.6145 53.8339 37.1515 53.6419 36.8178 53.3083L35.5492 52.0396L38.241 49.3479L36.4312 47.5381C37.3742 45.5955 37.8694 43.4432 37.8694 41.2728C37.8694 39.7053 37.6083 38.1997 37.1417 36.7865H45.0472V3.589H32.4859V0H12.7469V3.589H0.185791V36.7865H9.88579C9.41926 38.1997 9.15812 39.7052 9.15812 41.2728C9.15812 49.1883 15.5985 55.6284 23.5138 55.6284C25.6842 55.6284 27.8367 55.1331 29.7791 54.1902L31.5888 56L34.2806 53.3083L35.5492 54.5769C36.2168 55.2454 37.1417 55.6284 38.0867 55.6284H39.6639C41.6432 55.6284 43.2529 54.0188 43.2529 52.0394C43.2529 51.0499 44.0576 50.2449 45.0474 50.2449C46.037 50.2449 46.8419 51.0497 46.8419 52.0394C46.8419 54.0188 48.4516 55.6284 50.4309 55.6284C52.4103 55.6284 54.0199 54.0188 54.0199 52.0394V46.6561H52.2254V52.0394ZM14.5414 1.7945H30.6916V3.589H14.5414V1.7945ZM1.98029 5.38332H12.7469H32.4861H43.2529V18.0389L36.9723 18.7369V16.1501H30.6916V18.8419H14.5414V16.1501H8.26086V18.7369L1.98029 18.0389V5.38332ZM35.1778 17.9446V23.328H32.4861V17.9446H35.1778ZM12.7469 17.9446V23.328H10.0554V17.9446H12.7469ZM1.98029 34.992V19.8441L8.26086 20.5422V25.1227H14.5414V20.6364H30.6916V25.1227H36.9722V20.5422L43.2527 19.8441V34.992H36.4026C34.0671 30.2196 29.1754 26.917 23.5138 26.917C17.8521 26.917 12.9604 30.2198 10.625 34.992H1.98029ZM31.589 53.4626L30.1113 51.9838L29.5226 52.3051C27.6887 53.3056 25.6116 53.8339 23.5139 53.8339C16.5873 53.8339 10.9526 48.1993 10.9526 41.2726C10.9526 34.346 16.5873 28.7113 23.5139 28.7113C30.4406 28.7113 36.0753 34.346 36.0753 41.2726C36.0753 43.3703 35.5468 45.4474 34.5472 47.2805L34.2259 47.8692L35.7037 49.3479L31.589 53.4626Z" fill="#B38339"/>
<path d="M54.0197 43.0673V41.2729H52.2252V43.0673H50.4307V44.8618H52.2252V43.0675H54.0197V44.8618H55.8142V43.0673H54.0197Z" fill="#B38339"/>
<path d="M22.6166 37.6837H24.4111C24.9064 37.6837 25.3083 38.0856 25.3083 38.581H27.1028C27.1028 37.097 25.8951 35.8892 24.4111 35.8892V34.0947H22.6166V35.8892C21.1326 35.8892 19.9248 37.097 19.9248 38.581V39.4782C19.9248 40.9622 21.1326 42.17 22.6166 42.17H24.4111C24.9064 42.17 25.3083 42.5719 25.3083 43.0672V43.9645C25.3083 44.4598 24.9064 44.8617 24.4111 44.8617H22.6166C22.1212 44.8617 21.7193 44.4598 21.7193 43.9645H19.9248C19.9248 45.4485 21.1326 46.6562 22.6166 46.6562V48.4507H24.4111V46.6562C25.8951 46.6562 27.1028 45.4485 27.1028 43.9645V43.0672C27.1028 41.5833 25.8951 40.3755 24.4111 40.3755H22.6166C22.1212 40.3755 21.7193 39.9736 21.7193 39.4782V38.581C21.7193 38.0856 22.1214 37.6837 22.6166 37.6837Z" fill="#B38339"/>
<path d="M23.5137 15.2529H21.7192V17.0474H23.5137V15.2529Z" fill="#B38339"/>
<path d="M27.1029 15.2529H25.3083V17.0474H27.1029V15.2529Z" fill="#B38339"/>
<path d="M19.9249 15.2529H18.1304V17.0474H19.9249V15.2529Z" fill="#B38339"/>
</svg>
