<svg width="56" height="56" viewBox="0 0 56 56" fill="none" xmlns="http://www.w3.org/2000/svg">
<g clip-path="url(#clip0_55_4726)">
<path d="M55.1707 54.3606H53.8369V49.4085C53.8369 48.1195 52.9218 47.0405 51.7074 46.7864V43.8901C51.7074 42.7015 50.9293 41.6919 49.8558 41.3424L49.1495 38.9507C49.0055 38.4634 48.6844 38.0599 48.2701 37.8017V36.8067C48.2701 36.3539 47.9031 35.9871 47.4504 35.9871C46.9978 35.9871 46.6308 36.3539 46.6308 36.8067V37.493H44.1743V36.8067C44.1743 36.3539 43.8073 35.9871 43.3547 35.9871C42.902 35.9871 42.535 36.3539 42.535 36.8067V37.8017C42.1207 38.0598 41.7996 38.4633 41.6556 38.9506L40.9881 41.2109H37.3343C37.7582 40.5987 38.0074 39.8567 38.0074 39.0572V34.3667H38.7107C39.9269 34.3667 40.9591 33.5653 41.3079 32.4629H43.6631C44.0118 33.5652 45.0441 34.3666 46.2602 34.3666H49.5047C51.0063 34.3666 52.2281 33.1448 52.2281 31.6432C52.2281 30.1415 51.0063 28.9198 49.5047 28.9198H46.2602C45.044 28.9198 44.0117 29.7212 43.6631 30.8235H41.3078C40.959 29.7212 39.9268 28.9199 38.7107 28.9199H38.0074V28.5806C38.0074 26.7632 36.7224 25.2409 35.0134 24.8729V22.3162C35.0134 20.2004 34.0582 18.3044 32.5574 17.0337H40.988L41.6555 19.294C41.7995 19.7814 42.1206 20.1849 42.5349 20.443V26.4797C42.5349 26.9325 42.9019 27.2993 43.3546 27.2993C43.8072 27.2993 44.1742 26.9325 44.1742 26.4797V20.7516H46.6306V26.4797C46.6306 26.9325 46.9976 27.2993 47.4503 27.2993C47.903 27.2993 48.27 26.9325 48.27 26.4797V20.443C48.6843 20.185 49.0054 19.7815 49.1494 19.294L49.8169 17.0337H52.3648C53.5165 17.0337 54.4534 16.0967 54.4534 14.945V12.105C54.4534 11.0168 53.6166 10.1214 52.5528 10.0259L29.3487 0.269514C28.4907 -0.091145 27.5073 -0.0897242 26.6505 0.27312L3.62911 10.026C2.56583 10.122 1.72964 11.0172 1.72964 12.1051V14.9451C1.72964 16.0968 2.66659 17.0338 3.81829 17.0338H6.47547L7.14302 19.2941C7.28696 19.7816 7.60805 20.1851 8.02237 20.4431V26.4798C8.02237 26.9326 8.38937 27.2994 8.84205 27.2994C9.29473 27.2994 9.66173 26.9326 9.66173 26.4798V20.7517H12.1181V26.4798C12.1181 26.9326 12.4851 27.2994 12.9378 27.2994C13.3905 27.2994 13.7575 26.9326 13.7575 26.4798V20.4431C14.1718 20.1851 14.4929 19.7816 14.6368 19.2941L15.3044 17.0338H17.5777C18.0304 17.0338 18.3974 16.6669 18.3974 16.2141C18.3974 15.7613 18.0304 15.3944 17.5777 15.3944H3.8184C3.57064 15.3944 3.36911 15.1928 3.36911 14.9451V12.1051C3.36911 11.8579 3.56999 11.6566 3.81709 11.6559C3.81939 11.6559 3.82157 11.6558 3.82387 11.6558H37.5221C37.9747 11.6558 38.3417 11.2889 38.3417 10.8362C38.3417 10.3834 37.9747 10.0165 37.5221 10.0165H7.85461L27.2902 1.78264C27.742 1.59116 28.2607 1.5904 28.7134 1.78078L48.3006 10.0165H41.0152C40.5625 10.0165 40.1955 10.3834 40.1955 10.8362C40.1955 11.2889 40.5625 11.6558 41.0152 11.6558H52.3602C52.3616 11.6558 52.3631 11.6561 52.3646 11.6561C52.365 11.6561 52.3656 11.6559 52.366 11.6559C52.6132 11.6565 52.8143 11.8578 52.8143 12.1051V14.9451C52.8143 15.1929 52.6128 15.3944 52.365 15.3944H21.0711C20.6184 15.3944 20.2514 15.7613 20.2514 16.2141C20.2514 16.6669 20.6184 17.0338 21.0711 17.0338H23.6258C22.1251 18.3045 21.1698 20.2005 21.1698 22.3164V24.8382C19.3701 25.1333 17.9924 26.6988 17.9924 28.5806V28.9198H17.1446C15.9284 28.9198 14.8962 29.7212 14.5476 30.8235H12.1922C11.8435 29.7212 10.8112 28.9198 9.59517 28.9198H6.35066C4.84901 28.9198 3.62725 30.1415 3.62725 31.6432C3.62725 33.1448 4.84901 34.3666 6.35066 34.3666H9.59517C10.8114 34.3666 11.8436 33.5652 12.1922 32.4629H14.5476C14.8963 33.5652 15.9286 34.3666 17.1446 34.3666H17.9924V39.0572C17.9924 39.8567 18.2416 40.5987 18.6655 41.2109H15.3044L14.6368 38.9505C14.4929 38.4631 14.1717 38.0598 13.7575 37.8016V36.8066C13.7575 36.3538 13.3905 35.987 12.9378 35.987C12.4851 35.987 12.1181 36.3538 12.1181 36.8066V37.4929H9.66184V36.8066C9.66184 36.3538 9.29484 35.987 8.84216 35.987C8.38948 35.987 8.02248 36.3538 8.02248 36.8066V37.8016C7.60816 38.0596 7.28706 38.4631 7.14313 38.9506L6.44739 41.3064C5.31251 41.6176 4.47589 42.6576 4.47589 43.8899V46.7862C3.26135 47.0404 2.34637 48.1193 2.34637 49.4083V54.3604H0.8292C0.376519 54.3604 0.00952148 54.7273 0.00952148 55.1801C0.00952148 55.6329 0.376519 55.9998 0.8292 55.9998H55.1707C55.6234 55.9998 55.9904 55.6329 55.9904 55.1801C55.9904 54.7273 55.6234 54.3606 55.1707 54.3606V54.3606ZM47.5773 18.8299C47.5281 18.9962 47.3727 19.1124 47.1993 19.1124H43.606C43.4326 19.1124 43.2771 18.9962 43.228 18.8299L42.6975 17.0339H48.1078L47.5773 18.8299ZM13.0648 18.8299C13.0156 18.9961 12.8602 19.1124 12.6868 19.1124H9.09342C8.91997 19.1124 8.76456 18.9962 8.71538 18.8299L8.18489 17.0339H13.5952L13.0648 18.8299ZM43.2279 39.4152C43.2771 39.2488 43.4325 39.1325 43.6059 39.1325H47.1992C47.3726 39.1325 47.528 39.2487 47.5772 39.4151L48.1077 41.2111H42.6974L43.2279 39.4152ZM46.2603 30.5593H49.5048C50.1025 30.5593 50.5888 31.0455 50.5888 31.6433C50.5888 32.2411 50.1025 32.7274 49.5048 32.7274H46.2603C45.6626 32.7274 45.1762 32.2411 45.1762 31.6433C45.1762 31.0455 45.6626 30.5593 46.2603 30.5593ZM38.7107 30.5594C39.3084 30.5594 39.7947 31.0456 39.7947 31.6433C39.7947 32.2411 39.3084 32.7275 38.7107 32.7275H38.0074V30.5594H38.7107ZM28.0917 17.0339C31.0044 17.0339 33.3742 19.4037 33.3742 22.3165V24.7876H31.7348V22.3165C31.7348 20.3076 30.1005 18.6734 28.0917 18.6734C26.0829 18.6734 24.4486 20.3076 24.4486 22.3165V24.7876H22.8093V22.3165C22.8093 19.4035 25.1789 17.0339 28.0917 17.0339ZM26.088 24.7876V22.3165C26.088 21.2116 26.9869 20.3127 28.0917 20.3127C29.1965 20.3127 30.0954 21.2116 30.0954 22.3165V24.7876H26.088ZM9.59517 32.7274H6.35066C5.75295 32.7274 5.26661 32.2411 5.26661 31.6433C5.26661 31.0455 5.75295 30.5593 6.35066 30.5593H9.59517C10.1929 30.5593 10.6792 31.0455 10.6792 31.6433C10.6792 32.2411 10.193 32.7274 9.59517 32.7274ZM17.1447 32.7274C16.547 32.7274 16.0607 32.2411 16.0607 31.6433C16.0607 31.0455 16.547 30.5593 17.1447 30.5593H17.9925V32.7274H17.1447ZM19.6319 39.0574V28.5807C19.6319 27.3931 20.598 26.427 21.7855 26.427H34.2145C35.402 26.427 36.3682 27.3931 36.3682 28.5807V39.0574C36.3682 40.2449 35.402 41.211 34.2145 41.211H21.7855C20.598 41.211 19.6319 40.2449 19.6319 39.0574V39.0574ZM8.71538 39.4151C8.76456 39.2488 8.91997 39.1325 9.09342 39.1325H12.6867C12.8601 39.1325 13.0156 39.2487 13.0647 39.4151L13.5952 41.2111H8.18489L8.71538 39.4151ZM3.98573 49.4085C3.98573 48.8352 4.45218 48.3688 5.02541 48.3688H10.9979C11.4506 48.3688 11.8176 48.0019 11.8176 47.5491C11.8176 47.0963 11.4506 46.7294 10.9979 46.7294H6.11525V43.8901C6.11525 43.3168 6.5817 42.8504 7.15493 42.8504H49.0284C49.6017 42.8504 50.0681 43.3168 50.0681 43.8901V46.7294H14.4911C14.0384 46.7294 13.6714 47.0963 13.6714 47.5491C13.6714 48.0019 14.0384 48.3688 14.4911 48.3688H51.158C51.7312 48.3688 52.1977 48.8352 52.1977 49.4085V54.3606H3.98573V49.4085Z" fill="#B38339"/>
<path d="M25.3918 6.02642C25.3918 7.54523 26.6275 8.78087 28.1463 8.78087C29.6651 8.78087 30.9007 7.54523 30.9007 6.02642C30.9007 4.50761 29.6651 3.27197 28.1463 3.27197C26.6275 3.27197 25.3918 4.5075 25.3918 6.02642V6.02642ZM29.2614 6.02642C29.2614 6.64129 28.7612 7.14151 28.1463 7.14151C27.5314 7.14151 27.0312 6.64129 27.0312 6.02642C27.0312 5.41155 27.5314 4.91133 28.1463 4.91133C28.7612 4.91133 29.2614 5.41155 29.2614 6.02642Z" fill="#B38339"/>
<path d="M30.2686 29.8715C29.6489 29.2835 28.8365 28.9843 27.9812 29.0293C26.3729 29.1137 25.0912 30.4426 25.0631 32.0545C25.0519 32.6961 25.2401 33.3178 25.5986 33.8424L25.2689 35.898C25.1818 36.441 25.3364 36.9924 25.693 37.4108C26.0497 37.8293 26.5697 38.0693 27.1195 38.0693H29.1727C29.7226 38.0693 30.2426 37.8293 30.5992 37.4108C30.9558 36.9924 31.1105 36.441 31.0234 35.8981L30.6936 33.8422C31.0416 33.3327 31.2297 32.7302 31.2297 32.1086C31.2299 31.2666 30.8794 30.4512 30.2686 29.8715V29.8715ZM29.0188 33.7501L29.4049 36.1578C29.4199 36.251 29.378 36.3166 29.3517 36.3473C29.3254 36.3781 29.2673 36.4299 29.1729 36.4299H27.1196C27.0252 36.4299 26.967 36.3781 26.9408 36.3473C26.9145 36.3166 26.8726 36.2509 26.8876 36.1577L27.2737 33.7501C27.3129 33.5055 27.2395 33.2563 27.0738 33.0722C26.8279 32.7988 26.6959 32.4474 26.7022 32.083C26.7151 31.3407 27.3275 30.7054 28.0672 30.6664C28.0936 30.665 28.12 30.6643 28.1462 30.6643C28.5188 30.6643 28.8691 30.8034 29.1402 31.0607C29.4307 31.3362 29.5906 31.7085 29.5906 32.1086C29.5906 32.4635 29.4585 32.8056 29.2188 33.072C29.0531 33.2563 28.9795 33.5054 29.0188 33.7501V33.7501Z" fill="#B38339"/>
</g>
<defs>
<clipPath id="clip0_55_4726">
<rect width="56" height="56" fill="white"/>
</clipPath>
</defs>
</svg>
