<svg width="56" height="56" viewBox="0 0 56 56" fill="none" xmlns="http://www.w3.org/2000/svg">
<path d="M46.137 42.1047L44.7108 41.4904C44.7215 41.1012 44.4793 40.7346 44.091 40.6052L43.4198 40.3814C43.3882 36.7921 42.504 34.7724 41.7217 32.9878C41.0809 31.5258 40.5276 30.2609 40.5193 28.2865C40.7268 27.6588 40.9035 27.0122 41.0466 26.349L41.2707 26.0623C43.2151 23.5762 44.3888 22.0757 44.3888 18.324C44.3888 13.919 42.657 9.36156 39.6374 5.82061C36.4367 2.06716 32.3038 0 28 0C23.6963 0 19.5634 2.06716 16.3627 5.82061C13.343 9.36156 11.6113 13.919 11.6113 18.324C11.6113 22.08 12.8906 23.7158 14.8269 26.1918L14.9551 26.3558C15.6755 29.6883 17.2399 32.6093 19.3527 34.76C19.3526 34.7644 19.3521 34.7687 19.3521 34.7731V37.1904L18.2742 37.909C17.9329 38.1365 17.6577 38.4287 17.4505 38.7579L11.9091 40.6051C11.5209 40.7345 11.2787 41.101 11.2893 41.4903L9.86306 42.1046C7.39822 43.1663 5.80566 45.5863 5.80566 48.2699V53.1577C5.80566 54.7249 7.08072 56 8.648 56H47.3521C48.9194 56 50.1944 54.7249 50.1944 53.1577V48.2699C50.1944 45.5863 48.6019 43.1663 46.137 42.1047ZM37.8889 46.8876L39.5293 49.3481L37.0587 54.1857H33.8035C33.8979 52.7864 34.1327 51.0772 34.6828 49.6046C34.6957 49.57 34.7057 49.5352 34.7142 49.5001C34.7217 49.4853 34.7291 49.4705 34.7367 49.4555L36.1451 46.6406C36.9932 44.9442 38.0112 42.907 38.6923 41.5438C38.8122 41.3039 38.8949 41.0543 38.9424 40.8014L42.5758 42.0125C42.5805 42.0772 42.5915 42.1409 42.6095 42.2027L41.8076 44.6585L38.4238 45.5044C38.1376 45.5759 37.9041 45.7821 37.7976 46.0573C37.6912 46.3324 37.7253 46.6422 37.8889 46.8876ZM18.9414 54.1857L16.4708 49.3481L18.1112 46.8876C18.2748 46.6422 18.3089 46.3324 18.2025 46.0573C18.096 45.7821 17.8625 45.5759 17.5763 45.5044L14.1925 44.6585L13.39 42.2009C13.4076 42.1398 13.4184 42.0768 13.423 42.0129L17.0576 40.8014C17.1051 41.0542 17.1878 41.3039 17.3077 41.5438C17.9887 42.907 19.0068 44.9442 19.8549 46.6406L21.2632 49.4555C21.2937 49.5162 21.3235 49.5754 21.3542 49.6323C21.9037 51.1171 22.1323 52.8417 22.2236 54.1857H18.9414V54.1857ZM23.2353 49.5277C24.4158 48.3268 25.2435 47.3196 25.8085 46.5488L27.0929 50.4021V54.1857H24.0416C23.9566 52.8454 23.7432 51.1198 23.2353 49.5277ZM28.8606 49.968L26.9254 44.1623C26.9028 44.0945 26.8722 44.0316 26.8361 43.9732C26.8317 43.966 26.8271 43.959 26.8225 43.9519C26.8025 43.9214 26.7812 43.8923 26.758 43.8648C26.7563 43.8629 26.7552 43.8607 26.7535 43.8588L26.7487 43.8531C26.7472 43.8514 26.7459 43.8497 26.7443 43.848L21.1664 37.3405V36.3179C23.1716 37.7563 25.5077 38.5832 28 38.5832C30.4923 38.5832 32.8285 37.7563 34.8337 36.3179V37.3405L29.2466 43.8589C29.0188 44.1246 28.9643 44.4977 29.1064 44.8177C29.1406 44.8948 29.948 46.6669 32.7854 49.5489C32.2896 51.1106 32.0733 52.8028 31.986 54.1857H28.9072V50.2549C28.9072 50.1574 28.8915 50.0605 28.8606 49.968ZM16.3283 22.1944C16.3283 16.3971 21.0125 12.7695 22.9747 11.6846C24.8775 13.5773 27.5003 15.1215 30.8181 16.297C34.1747 17.4863 37.4443 17.9941 39.1896 18.143C39.5098 19.4897 39.6718 20.8495 39.6718 22.1944C39.6718 22.2156 39.6711 22.2367 39.6711 22.2579C39.6513 22.2566 39.6315 22.2549 39.6113 22.2549H36.4987C36.1192 21.1312 35.0558 20.3197 33.8057 20.3197H31.8705C30.8447 20.3197 29.9441 20.866 29.4443 21.6829C29.0207 21.4319 28.5271 21.2873 28 21.2873C27.4729 21.2873 26.9793 21.4319 26.5558 21.6829C26.056 20.866 25.1554 20.3197 24.1296 20.3197H22.1944C20.9443 20.3197 19.8809 21.1312 19.5014 22.2549H16.3888C16.3686 22.2549 16.3489 22.2566 16.3289 22.2579C16.3289 22.2367 16.3283 22.2156 16.3283 22.1944ZM16.4246 24.0691H19.3521V24.1296C19.3521 24.6306 19.7583 25.0367 20.2592 25.0367C20.7602 25.0367 21.1664 24.6306 21.1664 24.1296V23.162C21.1664 22.5951 21.6275 22.1339 22.1944 22.1339H22.2549V23.162C22.2549 23.663 22.6611 24.0691 23.162 24.0691C23.663 24.0691 24.0692 23.663 24.0692 23.162V22.1339H24.1296C24.6965 22.1339 25.1577 22.5951 25.1577 23.162V24.1296C25.1577 24.6306 25.5639 25.0367 26.0648 25.0367C26.5658 25.0367 26.972 24.6306 26.972 24.1296C26.972 23.5627 27.4332 23.1015 28 23.1015C28.5669 23.1015 29.0281 23.5627 29.0281 24.1296C29.0281 24.6306 29.4343 25.0367 29.9353 25.0367C30.4362 25.0367 30.8424 24.6306 30.8424 24.1296V23.162C30.8424 22.5951 31.3036 22.1339 31.8705 22.1339H31.9309V23.162C31.9309 23.663 32.3371 24.0691 32.8381 24.0691C33.339 24.0691 33.7452 23.663 33.7452 23.162V22.1339H33.8057C34.3726 22.1339 34.8337 22.5951 34.8337 23.162V24.1296C34.8337 24.6306 35.2399 25.0367 35.7409 25.0367C36.2418 25.0367 36.648 24.6306 36.648 24.1296V24.0691H39.5755C38.8365 31.2233 33.9272 36.7689 28 36.7689C22.0729 36.7689 17.1636 31.2233 16.4246 24.0691ZM37.0693 40.7328C35.4233 44.0271 34.2197 46.4349 33.5649 47.7436C32.1555 46.2471 31.394 45.1464 31.0343 44.5608L35.9064 38.8766L36.7195 39.4186C37.1498 39.7056 37.3003 40.2705 37.0693 40.7328ZM40.0601 33.7161C40.7568 35.3054 41.4746 36.9451 41.5904 39.7717L38.5496 38.7582C38.3423 38.4289 38.0671 38.1367 37.7259 37.9092L36.648 37.1905V34.7732C36.648 34.7687 36.6474 34.7645 36.6474 34.7602C37.6066 33.7836 38.4532 32.6487 39.1587 31.3881C39.4111 32.2328 39.7379 32.981 40.0601 33.7161ZM13.4255 18.324C13.4255 14.3437 14.9992 10.2155 17.7431 6.99782C20.5935 3.65512 24.2362 1.81425 28 1.81425C31.7639 1.81425 35.4066 3.65512 38.257 6.99782C41.0009 10.2155 42.5746 14.3437 42.5746 18.324C42.5746 20.3246 42.2232 21.4935 41.4789 22.7044C41.4831 22.535 41.486 22.365 41.486 22.1944C41.486 20.4797 41.2483 18.7456 40.7795 17.0401C40.6747 16.6587 40.3348 16.3893 39.9397 16.374C38.8568 16.3325 35.2162 15.9305 31.4239 14.5869C25.4996 12.4878 23.0561 9.46461 22.0495 7.29814C21.8384 6.84385 21.299 6.64658 20.8446 6.85764C20.3902 7.06882 20.1931 7.60826 20.4041 8.06255C20.7688 8.8474 21.2196 9.59221 21.7559 10.2969C19.2631 11.794 14.5141 15.8088 14.5141 22.1944C14.5141 22.3586 14.5166 22.5222 14.5206 22.6852C13.7913 21.474 13.4255 20.2702 13.4255 18.324ZM19.2806 39.4187L20.0936 38.8767L24.9656 44.5606C24.605 45.1481 23.8438 46.248 22.4354 47.7437C21.7805 46.4349 20.5771 44.0271 18.931 40.7329C18.6998 40.2705 18.8503 39.7056 19.2806 39.4187ZM7.61992 53.1577V48.2699C7.61992 46.3116 8.78213 44.5456 10.5807 43.771L11.82 43.2372L12.6236 45.6984C12.7205 45.9951 12.9631 46.2212 13.266 46.2969L15.8876 46.9523L14.6665 48.7841C14.4843 49.0572 14.464 49.4075 14.6134 49.6998L16.9042 54.1857H14.3931V52.1901C14.3931 51.6891 13.987 51.2829 13.486 51.2829C12.985 51.2829 12.5789 51.6891 12.5789 52.1901V54.1857H8.648C8.0811 54.1857 7.61992 53.7246 7.61992 53.1577ZM48.3802 53.1577C48.3802 53.7246 47.919 54.1857 47.3521 54.1857H43.4212V52.1901C43.4212 51.6891 43.0151 51.2829 42.5141 51.2829C42.0131 51.2829 41.607 51.6891 41.607 52.1901V54.1857H39.0959L41.3867 49.6998C41.5361 49.4075 41.5158 49.0572 41.3336 48.7841L40.1124 46.9523L42.734 46.2969C43.0368 46.2213 43.2795 45.9951 43.3763 45.6984L44.1799 43.2372L45.4193 43.771C47.218 44.5456 48.3802 46.3116 48.3802 48.2699V53.1577Z" fill="#B38339"/>
<path d="M23.6194 31.6264C24.6945 32.358 26.2913 32.7777 28.0001 32.7777C29.7089 32.7777 31.3057 32.358 32.3808 31.6264C32.795 31.3444 32.9023 30.7802 32.6204 30.3661C32.3385 29.9518 31.7742 29.8448 31.3601 30.1265C30.5899 30.6505 29.3338 30.9634 28 30.9634C26.6661 30.9634 25.4101 30.6505 24.6398 30.1265C24.2256 29.8447 23.6615 29.9519 23.3795 30.3661C23.0979 30.7802 23.2051 31.3444 23.6194 31.6264Z" fill="#B38339"/>
</svg>
