<svg width="56" height="56" viewBox="0 0 56 56" fill="none" xmlns="http://www.w3.org/2000/svg">
<g clip-path="url(#clip0_55_4763)">
<path d="M33.9158 13.2861H37.1539C37.6072 13.2861 37.9742 12.9191 37.9742 12.4658C37.9742 12.0129 37.6072 11.6455 37.1539 11.6455H33.9158C33.4625 11.6455 33.0955 12.0129 33.0955 12.4658C33.0955 12.9191 33.4625 13.2861 33.9158 13.2861Z" fill="#B38339"/>
<path d="M33.9158 17.1357H43.1738C43.6271 17.1357 43.9941 16.7687 43.9941 16.3154C43.9941 15.8625 43.6271 15.4951 43.1738 15.4951H33.9158C33.4625 15.4951 33.0955 15.8625 33.0955 16.3154C33.0955 16.7687 33.4625 17.1357 33.9158 17.1357V17.1357Z" fill="#B38339"/>
<path d="M33.9158 20.5234H45.3399C45.7932 20.5234 46.1602 20.1564 46.1602 19.7031C46.1602 19.2498 45.7932 18.8828 45.3399 18.8828H33.9158C33.4625 18.8828 33.0955 19.2498 33.0955 19.7031C33.0955 20.1564 33.4625 20.5234 33.9158 20.5234V20.5234Z" fill="#B38339"/>
<path d="M9.99756 17.4209C9.54468 17.4209 9.17725 17.793 9.17725 18.2463C9.17725 18.6992 9.54468 19.0667 9.99756 19.0667C10.4509 19.0667 10.8179 18.6992 10.8179 18.2463V18.2361C10.8179 17.7828 10.4509 17.4209 9.99756 17.4209Z" fill="#B38339"/>
<path d="M18.281 17.4209C17.8277 17.4209 17.4607 17.793 17.4607 18.2463C17.4607 18.6992 17.8277 19.0667 18.281 19.0667C18.7343 19.0667 19.1013 18.6992 19.1013 18.2463V18.2361C19.1013 17.7828 18.7339 17.4209 18.281 17.4209Z" fill="#B38339"/>
<path d="M16.6805 20.8398C16.2451 20.7146 15.7905 20.9658 15.6653 21.4012C15.4705 22.0784 14.8429 22.5509 14.1392 22.5509C13.4355 22.5509 12.8079 22.0784 12.6135 21.4016C12.4883 20.9658 12.0333 20.7146 11.5984 20.8398C11.163 20.965 10.9113 21.4196 11.0365 21.8545C11.4322 23.2307 12.7083 24.1915 14.1392 24.1915C15.5705 24.1915 16.8462 23.2307 17.2419 21.8549C17.367 21.4196 17.1158 20.965 16.6805 20.8398Z" fill="#B38339"/>
<path d="M22.0898 38.2812C21.6365 38.2812 21.2695 38.6487 21.2695 39.102V52.368C21.2695 52.8213 21.6365 53.1883 22.0898 53.1883C22.5427 53.1883 22.9102 52.8213 22.9102 52.368V39.102C22.9102 38.6487 22.5427 38.2812 22.0898 38.2812Z" fill="#B38339"/>
<path d="M6.18872 38.2812C5.73541 38.2812 5.36841 38.6487 5.36841 39.102V52.368C5.36841 52.8213 5.73541 53.1883 6.18872 53.1883C6.6416 53.1883 7.00903 52.8213 7.00903 52.368V39.102C7.00903 38.6487 6.6416 38.2812 6.18872 38.2812Z" fill="#B38339"/>
<path d="M53.8741 31.9H51.3936V9.09076C51.3936 8.02308 50.5245 7.15449 49.4569 7.15449H30.6791C29.6114 7.15449 28.7424 8.02308 28.7424 9.09076V22.4259C28.7424 22.8792 29.1098 23.2466 29.5627 23.2466C30.016 23.2466 30.383 22.8792 30.383 22.4259V9.09076C30.383 8.92755 30.5159 8.79511 30.6791 8.79511H49.4569C49.6201 8.79511 49.7529 8.92755 49.7529 9.09076V31.9H45.7774V29.7817C45.7774 28.7824 44.9644 27.9694 43.9651 27.9694H36.4319C35.4326 27.9694 34.62 28.7824 34.62 29.7817V31.9H30.3834V26.3365C30.3834 25.8836 30.016 25.5161 29.5631 25.5161C29.1098 25.5161 28.7428 25.8836 28.7428 26.3365V31.9H27.9169C27.3551 29.8151 26.1819 28.0023 24.5913 26.6573C26.011 25.2141 26.6416 23.1287 26.2122 21.116L25.7102 18.7657C26.4344 18.1658 26.8963 17.2605 26.8963 16.2492C26.8963 15.0269 26.2195 13.934 25.1817 13.3739C26.3455 10.0909 25.5376 6.37904 23.0348 3.87625C20.8589 1.70073 17.758 0.771899 14.7408 1.39268C14.5494 1.43199 14.3626 1.48582 14.1815 1.55119C10.9972 0.64928 7.58998 1.52983 5.24356 3.87625C2.74034 6.3799 1.93285 10.0931 3.09794 13.3764C2.06273 13.9391 1.38213 15.0388 1.38213 16.2492C1.38213 17.2605 1.84398 18.1658 2.56773 18.7657L2.06615 21.116C1.63634 23.1304 2.26824 25.2179 3.69096 26.6616C1.40649 28.5974 0 31.4805 0 34.6322V51.1837C0 52.2889 0.899348 53.1883 2.00463 53.1883C2.45793 53.1883 2.82493 52.8213 2.82493 52.368C2.82493 51.9151 2.45793 51.5477 2.00463 51.5477C1.80382 51.5477 1.64062 51.3845 1.64062 51.1837V34.6322C1.64062 31.389 3.40641 28.4842 6.12924 26.9568L4.67362 31.4655C4.58475 31.7411 4.64756 32.0431 4.83896 32.2602L11.8364 40.1937L12.7558 43.7979C12.9198 44.4405 13.4757 44.872 14.1388 44.872C14.8019 44.872 15.3577 44.4405 15.5218 43.7979L16.442 40.1928L23.4394 32.2602C23.6308 32.0431 23.6936 31.7411 23.6048 31.4655L22.1526 26.9679C24.0483 28.045 25.5184 29.8129 26.2046 31.9034C25.0595 31.9342 24.1367 32.8733 24.1367 34.0256V37.2863C24.1367 38.3732 24.6498 39.3418 25.4449 39.9651V52.7239C25.4449 53.8958 26.3985 54.8494 27.5705 54.8494H52.5663C53.7383 54.8494 54.6919 53.8958 54.6919 52.7239V39.9647C55.4874 39.3413 56.0001 38.3723 56.0001 37.2859V34.0251C55.9997 32.8536 55.0461 31.9 53.8741 31.9V31.9ZM24.6075 21.4586C24.9395 23.0146 24.402 24.6296 23.2327 25.6858C22.6593 25.3414 22.0492 25.05 21.4079 24.818C22.1718 23.6948 22.6854 22.3823 22.8597 20.9553L23.0417 19.4634C23.2339 19.498 23.4296 19.5168 23.6287 19.5168C23.8175 19.5168 24.0025 19.4997 24.1824 19.4685L24.6075 21.4586ZM14.1392 27.0346C10.5333 27.0346 7.48445 24.3357 7.04738 20.7562L6.39883 15.449C6.86281 15.5208 7.32979 15.5571 7.79591 15.5571C10.115 15.5571 12.4033 14.6718 14.1392 12.9949C15.8751 14.6718 18.163 15.5571 20.4825 15.5571C20.9486 15.5571 21.4156 15.5208 21.8796 15.4486L21.231 20.7562C20.7939 24.3357 17.7451 27.0346 14.1392 27.0346ZM23.6287 17.8757C23.4963 17.8757 23.3672 17.8591 23.2416 17.8283L23.5856 15.0111C23.8069 14.9308 24.026 14.8415 24.2431 14.7432C24.8485 14.9893 25.2556 15.5802 25.2556 16.2492C25.2556 17.146 24.5259 17.8757 23.6287 17.8757ZM6.40395 5.03664C7.99031 3.45029 10.168 2.6804 12.3478 2.87308C12.0466 3.25376 11.809 3.68826 11.6561 4.16421C11.5172 4.5953 11.7539 5.05758 12.1854 5.19643C12.6156 5.33529 13.0788 5.0986 13.2176 4.66708C13.4915 3.81772 14.2016 3.17856 15.0714 2.99997C17.5469 2.4907 20.0903 3.25205 21.8749 5.03664C24.0491 7.21089 24.6648 10.4985 23.4497 13.3012C20.6474 14.5172 17.3602 13.9011 15.1851 11.7264C14.1956 10.7369 13.506 9.49707 13.1899 8.14014C13.0873 7.6988 12.646 7.42451 12.2051 7.52748C11.7637 7.63001 11.4894 8.07136 11.592 8.51227C11.865 9.6842 12.367 10.7835 13.0643 11.7538C10.8892 13.9062 7.61903 14.5121 4.82871 13.3012C3.61363 10.4985 4.22928 7.21089 6.40395 5.03664ZM4.03532 14.7432C4.25236 14.8415 4.47153 14.9308 4.69284 15.0111L5.0372 17.8296C4.91159 17.8599 4.78214 17.8762 4.64969 17.8762C3.75248 17.8762 3.02275 17.146 3.02275 16.2492C3.02275 15.5861 3.43205 14.9901 4.03532 14.7432ZM3.67088 21.4586L4.09556 19.4685C4.27585 19.4997 4.46085 19.5164 4.64969 19.5164C4.84665 19.5164 5.04318 19.498 5.23672 19.463L5.41873 20.9553C5.59305 22.3832 6.10745 23.6957 6.87136 24.8193C6.22921 25.0517 5.61868 25.3427 5.04703 25.687C3.87638 24.6309 3.33848 23.0155 3.67088 21.4586ZM8.08217 26.2476C8.46498 26.6116 8.87983 26.941 9.32203 27.232L11.2066 36.9992L6.37832 31.5253L8.08217 26.2476ZM14.1388 42.582L11.1711 28.1561C12.1017 28.4915 13.1014 28.6752 14.1392 28.6752C15.1774 28.6752 16.1767 28.4915 17.1073 28.1561L14.1388 42.582ZM17.0718 36.9987L18.9564 27.232C19.3986 26.9414 19.8134 26.612 20.1958 26.2476L21.8997 31.5253L17.0718 36.9987ZM36.2606 29.7817C36.2606 29.6869 36.3375 29.61 36.4319 29.61H43.9651C44.0595 29.61 44.1368 29.6869 44.1368 29.7817V31.9H36.2606V29.7817ZM53.0508 52.7239C53.0508 52.9909 52.8334 53.2084 52.5663 53.2084H27.57C27.303 53.2084 27.0855 52.9909 27.0855 52.7239V40.6581C27.2342 40.6782 27.3859 40.6893 27.5401 40.6893H37.2467V42.9532C37.2467 44.581 38.5707 45.9051 40.1985 45.9051C41.8263 45.9051 43.1503 44.581 43.1503 42.9532V40.6893H44.6747C45.1276 40.6893 45.495 40.3223 45.495 39.869C45.495 39.4157 45.1276 39.0487 44.6747 39.0487H43.1503V38.9119C43.1503 37.9498 42.3676 37.1671 41.4055 37.1671H38.9915C38.0294 37.1671 37.2467 37.9498 37.2467 38.9119V39.0487H27.5401C26.5681 39.0487 25.7773 38.2578 25.7773 37.2859V34.0256C25.7773 33.7581 25.9948 33.5406 26.2618 33.5406H53.8741C54.1416 33.5406 54.3591 33.7581 54.3591 34.0256V37.2859C54.3591 38.2578 53.5682 39.0487 52.5962 39.0487H48.5853C48.132 39.0487 47.765 39.4157 47.765 39.869C47.765 40.3223 48.132 40.6893 48.5853 40.6893H52.5962C52.7505 40.6893 52.9022 40.6782 53.0508 40.6581V52.7239ZM38.8877 42.9532V38.9119C38.8877 38.8547 38.9343 38.8077 38.992 38.8077H41.4055C41.4631 38.8077 41.5097 38.8547 41.5097 38.9119V42.9532C41.5097 43.6761 40.9214 44.2645 40.1985 44.2645C39.4756 44.2645 38.8877 43.6761 38.8877 42.9532V42.9532Z" fill="#B38339"/>
</g>
<defs>
<clipPath id="clip0_55_4763">
<rect width="56" height="56" fill="white"/>
</clipPath>
</defs>
</svg>
