<svg width="56" height="56" viewBox="0 0 56 56" fill="none" xmlns="http://www.w3.org/2000/svg">
<path d="M53.0868 22.1127H38.9313V17.9781C38.9313 17.6844 38.7908 17.4105 38.5534 17.2391L28.9132 10.2651V8.10715H37.1921C37.6964 8.10715 38.1053 7.69832 38.1053 7.19396V2.91319C38.1053 2.40883 37.6964 2 37.1921 2H28C27.4957 2 27.0868 2.40883 27.0868 2.91319V5.05287V7.19115V10.2609L17.3735 17.2349C17.1347 17.4063 16.9928 17.683 16.9928 17.9767V22.1113H2.91317C2.40882 22.1113 2 22.5201 2 23.0245V53.0868C2 53.5912 2.40882 54 2.91317 54H25.5106H30.4894H53.0868C53.5912 54 54 53.5912 54 53.0868V23.0259C54 22.5215 53.5912 22.1127 53.0868 22.1127ZM28.9132 3.82639H36.2789V6.27796H28.9132V5.05287V3.82639ZM26.4223 52.175V45.7307H29.5763V52.175H26.4223V52.175ZM52.1751 52.175H31.4026V44.8175C31.4026 44.3131 30.9938 43.9043 30.4894 43.9043H25.5106C25.0062 43.9043 24.5974 44.3131 24.5974 44.8175V52.175H3.82493V23.9391H17.906C18.4103 23.9391 18.8191 23.5303 18.8191 23.0259V18.4459L27.9972 11.8555L37.1036 18.4431V23.0259C37.1036 23.5303 37.5124 23.9391 38.0168 23.9391H52.1737V52.175H52.1751ZM21.2973 25.3609H16.3185C15.8141 25.3609 15.4053 25.7697 15.4053 26.2741V31.2545C15.4053 31.7588 15.8141 32.1677 16.3185 32.1677H21.2973C21.8017 32.1677 22.2105 31.7588 22.2105 31.2545V26.2741C22.2105 25.7697 21.8017 25.3609 21.2973 25.3609ZM20.3842 30.3413H17.2302V27.1887H20.3842V30.3413ZM12.1053 25.3609H7.12638C6.62204 25.3609 6.21322 25.7697 6.21322 26.2741V31.2545C6.21322 31.7588 6.62204 32.1677 7.12638 32.1677H12.1053C12.6096 32.1677 13.0184 31.7588 13.0184 31.2545V26.2741C13.0184 25.7697 12.6096 25.3609 12.1053 25.3609ZM11.1921 30.3413H8.03815V27.1887H11.1921V30.3413V30.3413ZM33.7895 26.2741V31.2545C33.7895 31.7588 34.1983 32.1677 34.7027 32.1677H39.6815C40.1859 32.1677 40.5947 31.7588 40.5947 31.2545V26.2741C40.5947 25.7697 40.1859 25.3609 39.6815 25.3609H34.7027C34.1983 25.3609 33.7895 25.7697 33.7895 26.2741ZM35.6158 27.1887H38.7684V30.3413H35.6158V27.1887ZM44.2769 32.1691H49.2557C49.7601 32.1691 50.1689 31.7602 50.1689 31.2559V26.2755C50.1689 25.7711 49.7601 25.3623 49.2557 25.3623H44.2769C43.7725 25.3623 43.3637 25.7711 43.3637 26.2755V31.2559C43.3651 31.7602 43.7739 32.1691 44.2769 32.1691ZM45.19 27.1887H48.344V30.3413H45.19V27.1887ZM30.4894 25.3609H25.5106C25.0062 25.3609 24.5974 25.7697 24.5974 26.2741V31.2545C24.5974 31.7588 25.0062 32.1677 25.5106 32.1677H30.4894C30.9938 32.1677 31.4026 31.7588 31.4026 31.2545V26.2741C31.4026 25.7697 30.9938 25.3609 30.4894 25.3609ZM29.5763 30.3413H26.4223V27.1887H29.5763V30.3413ZM28 15.3073C26.1231 15.3073 24.5974 16.8345 24.5974 18.7114C24.5974 20.5884 26.1231 22.1155 28 22.1155C29.8755 22.1155 31.4026 20.5884 31.4026 18.7114C31.4026 16.8345 29.8755 15.3073 28 15.3073ZM28 20.2877C27.1304 20.2877 26.4223 19.5811 26.4223 18.7114C26.4223 17.8418 27.129 17.1351 28 17.1351C28.8696 17.1351 29.5763 17.8418 29.5763 18.7114C29.5763 19.5811 28.8696 20.2877 28 20.2877ZM21.2973 34.6333H16.3185C15.8141 34.6333 15.4053 35.0421 15.4053 35.5465V40.5255C15.4053 41.0299 15.8141 41.4387 16.3185 41.4387H21.2973C21.8017 41.4387 22.2105 41.0299 22.2105 40.5255V35.5465C22.2105 35.0421 21.8017 34.6333 21.2973 34.6333ZM20.3842 39.6123H17.2302V36.4611H20.3842V39.6123ZM12.1053 34.6333H7.12638C6.62204 34.6333 6.21322 35.0421 6.21322 35.5465V40.5255C6.21322 41.0299 6.62204 41.4387 7.12638 41.4387H12.1053C12.6096 41.4387 13.0184 41.0299 13.0184 40.5255V35.5465C13.0184 35.0421 12.6096 34.6333 12.1053 34.6333ZM11.1921 39.6123H8.03815V36.4611H11.1921V39.6123V39.6123ZM39.6815 34.6333H34.7027C34.1983 34.6333 33.7895 35.0421 33.7895 35.5465V40.5255C33.7895 41.0299 34.1983 41.4387 34.7027 41.4387H39.6815C40.1859 41.4387 40.5947 41.0299 40.5947 40.5255V35.5465C40.5947 35.0421 40.1859 34.6333 39.6815 34.6333ZM38.7684 39.6123H35.6158V36.4611H38.7684V39.6123ZM44.2769 41.4387H49.2557C49.7601 41.4387 50.1689 41.0299 50.1689 40.5255V35.5465C50.1689 35.0421 49.7601 34.6333 49.2557 34.6333H44.2769C43.7725 34.6333 43.3637 35.0421 43.3637 35.5465V40.5255C43.3651 41.0299 43.7739 41.4387 44.2769 41.4387ZM45.19 36.4597H48.344V39.6109H45.19V36.4597ZM30.4894 34.6333H25.5106C25.0062 34.6333 24.5974 35.0421 24.5974 35.5465V40.5255C24.5974 41.0299 25.0062 41.4387 25.5106 41.4387H30.4894C30.9938 41.4387 31.4026 41.0299 31.4026 40.5255V35.5465C31.4026 35.0421 30.9938 34.6333 30.4894 34.6333ZM29.5763 39.6123H26.4223V36.4611H29.5763V39.6123ZM21.2973 43.9029H16.3185C15.8141 43.9029 15.4053 44.3117 15.4053 44.8161V49.7951C15.4053 50.2995 15.8141 50.7083 16.3185 50.7083H21.2973C21.8017 50.7083 22.2105 50.2995 22.2105 49.7951V44.8175C22.2105 44.3117 21.8017 43.9029 21.2973 43.9029ZM20.3842 48.8819H17.2302V45.7307H20.3842V48.8819ZM12.1053 43.9029H7.12638C6.62204 43.9029 6.21322 44.3117 6.21322 44.8161V49.7951C6.21322 50.2995 6.62204 50.7083 7.12638 50.7083H12.1053C12.6096 50.7083 13.0184 50.2995 13.0184 49.7951V44.8175C13.0184 44.3117 12.6096 43.9029 12.1053 43.9029ZM11.1921 48.8819H8.03815V45.7307H11.1921V48.8819V48.8819ZM39.6815 43.9029H34.7027C34.1983 43.9029 33.7895 44.3117 33.7895 44.8161V49.7951C33.7895 50.2995 34.1983 50.7083 34.7027 50.7083H39.6815C40.1859 50.7083 40.5947 50.2995 40.5947 49.7951V44.8175C40.5947 44.3117 40.1859 43.9029 39.6815 43.9029ZM38.7684 48.8819H35.6158V45.7307H38.7684V48.8819ZM44.2769 50.7097H49.2557C49.7601 50.7097 50.1689 50.3009 50.1689 49.7965V44.8175C50.1689 44.3131 49.7601 43.9043 49.2557 43.9043H44.2769C43.7725 43.9043 43.3637 44.3131 43.3637 44.8175V49.7965C43.3651 50.3009 43.7739 50.7097 44.2769 50.7097ZM45.19 45.7307H48.344V48.8819H45.19V45.7307Z" fill="#B38339"/>
</svg>
