<svg width="56" height="56" viewBox="0 0 56 56" fill="none" xmlns="http://www.w3.org/2000/svg">
<path d="M55.4041 34.7743C54.3389 33.2089 52.1939 32.7946 50.6237 33.8499L43.4771 38.6326L43.4563 23.7456L45.9391 26.0714C46.4671 26.5659 47.1555 26.838 47.8782 26.838C47.8796 26.838 47.8811 26.838 47.8825 26.838C48.6628 26.8369 49.4162 26.5099 49.9495 25.9406C50.4676 25.3875 50.7394 24.6659 50.7147 23.9083C50.69 23.1508 50.3717 22.4483 49.8186 21.9302L45.1116 17.5208C44.7894 17.2189 44.2835 17.2355 43.9818 17.5577C43.68 17.8799 43.6965 18.3856 44.0186 18.6875L48.7256 23.0969C48.9671 23.3231 49.106 23.6297 49.1168 23.9604C49.1275 24.291 49.009 24.6061 48.7827 24.8475C48.5464 25.0997 48.226 25.2389 47.8801 25.2393C47.8795 25.2393 47.8789 25.2393 47.8782 25.2393C47.5629 25.2393 47.2625 25.1205 47.032 24.9046C47.0319 24.9045 47.0319 24.9045 47.0319 24.9045L28.3417 7.39586C28.0337 7.10744 27.5544 7.10788 27.2472 7.39739L8.60552 24.9584C8.36478 25.1853 8.05 25.3041 7.71925 25.2949C7.3885 25.285 7.08148 25.1469 6.85464 24.9059C6.6278 24.6652 6.50825 24.3504 6.5182 24.0198C6.52805 23.689 6.66619 23.382 6.90692 23.1552L26.9419 4.28163C27.4168 3.83417 28.1619 3.83308 28.638 4.27933L40.3594 15.2597C40.6815 15.5615 41.1873 15.5451 41.4892 15.2228C41.791 14.9006 41.7745 14.3949 41.4524 14.093L29.7311 3.11263C28.6403 2.09063 26.9337 2.09292 25.8458 3.11799L19.4321 9.15986L19.4304 8.08219C19.4299 7.74247 19.2971 7.42332 19.0566 7.18357C18.8165 6.94414 18.4978 6.81235 18.1588 6.81235C18.1581 6.81235 18.1576 6.81235 18.1569 6.81235L13.569 6.8188C13.2292 6.81924 12.9102 6.95202 12.6703 7.19253C12.4306 7.43305 12.2987 7.75253 12.2992 8.09236L12.3119 15.8675L5.81077 21.9917C5.25908 22.5114 4.94288 23.2148 4.92023 23.9723C4.89759 24.7298 5.17136 25.4508 5.691 26.0023C6.21053 26.554 6.91392 26.8703 7.67156 26.8929C7.70055 26.8938 7.72953 26.8943 7.75852 26.8943C8.48422 26.8943 9.17142 26.6219 9.70178 26.1221L12.179 23.7884L12.1889 30.8203C11.3874 30.7036 10.5765 30.6423 9.76183 30.6423H8.39409V30.163C8.39409 28.554 7.08498 27.2449 5.47597 27.2449H2.91813C1.30911 27.2448 0 28.5538 0 30.1629V42.6883C0 43.1298 0.357875 43.4876 0.799313 43.4876C1.24075 43.4876 1.59863 43.1298 1.59863 42.6883V30.1629C1.59863 29.4354 2.19056 28.8434 2.91813 28.8434H5.47586C6.20342 28.8434 6.79536 29.4354 6.79536 30.1629V31.4415V47.8255V49.0915C6.79536 49.819 6.20342 50.411 5.47586 50.411H2.91813C2.19056 50.411 1.59863 49.819 1.59863 49.0915V47.6928C1.59863 47.2514 1.24075 46.8935 0.799313 46.8935C0.357875 46.8935 0 47.2514 0 47.6928V49.0915C0 50.7005 1.30911 52.0096 2.91813 52.0096H5.47586C7.08487 52.0096 8.39398 50.7006 8.39398 49.0915V48.9829L20.0997 53.4156C20.1214 53.4238 20.1434 53.431 20.1657 53.4373C20.6746 53.581 21.1833 53.6531 21.6856 53.6531C21.9573 53.6531 22.2271 53.632 22.4942 53.5897L39.6968 51.11C39.7008 51.1094 39.7048 51.1088 39.7088 51.1081C41.1714 50.8746 42.5511 50.2563 43.6988 49.3203C43.7088 49.3122 43.7186 49.3038 43.7281 49.2951L54.8418 39.2996C56.1361 38.1506 56.3777 36.2051 55.4041 34.7743ZM17.8322 8.41152L17.8359 10.6636L13.908 14.3637L13.8983 8.41688L17.8322 8.41152ZM27.7967 9.07586L41.8555 22.2459L41.8799 39.7014L39.6168 41.216L37.2203 41.0816L37.157 40.4451C36.934 38.2031 35.2789 36.3996 33.0904 35.9692L33.076 25.5846C33.0749 24.7877 32.4261 24.1401 31.6293 24.1401C31.6286 24.1401 31.6281 24.1401 31.6273 24.1401L24.0089 24.1508C23.6225 24.1514 23.2594 24.3023 22.9866 24.5759C22.7137 24.8495 22.5637 25.2131 22.5643 25.5994L22.577 34.6535C21.0679 34.3086 19.627 33.7388 18.2798 32.9508C18.1117 32.8525 17.942 32.7575 17.7708 32.6652C17.7041 32.6292 17.6363 32.5954 17.569 32.5603C17.4649 32.506 17.361 32.4513 17.2558 32.3991C17.172 32.3575 17.0872 32.3182 17.0028 32.278C16.9132 32.2355 16.8237 32.1925 16.7335 32.1515C16.6416 32.1098 16.549 32.0701 16.4565 32.0301C16.3719 31.9935 16.2874 31.9568 16.2023 31.9217C16.1071 31.8824 16.0114 31.8447 15.9156 31.8072C15.8306 31.7739 15.7455 31.7409 15.6601 31.7089C15.5653 31.6735 15.47 31.6393 15.3745 31.6057C15.2849 31.5741 15.1953 31.5432 15.1051 31.5132C15.0137 31.4826 14.922 31.4528 14.8299 31.4238C14.7318 31.3928 14.6333 31.3633 14.5346 31.3341C14.4499 31.3092 14.3652 31.2842 14.28 31.2606C14.1688 31.2297 14.057 31.2007 13.9451 31.172C13.8927 31.1586 13.8406 31.1434 13.7879 31.1304L13.7756 22.2843L27.7967 9.07586ZM31.4916 35.7692L24.806 34.9995L24.1761 34.927L24.1632 25.7492L31.4776 25.7389L31.4916 35.7692ZM53.7767 38.1077L42.674 48.0934C41.7488 48.8436 40.6389 49.3399 39.4626 49.5286L22.2674 52.0073C22.2638 52.0079 22.2603 52.0084 22.2567 52.0089L22.2448 52.0108C21.7238 52.0933 21.1813 52.0585 20.6322 51.9078L8.39409 47.2733V32.2408H9.76183C10.9261 32.2408 12.0825 32.3753 13.2087 32.6363C13.2506 32.6461 13.2923 32.656 13.3341 32.6661C13.4725 32.6994 13.6105 32.7338 13.7479 32.771C13.7599 32.7743 13.7718 32.7778 13.7839 32.781C13.9216 32.8187 14.0587 32.8584 14.1955 32.8998C14.22 32.9073 14.2446 32.9146 14.269 32.9221C14.4144 32.9671 14.5592 33.014 14.7033 33.0632C14.7182 33.0684 14.7329 33.0736 14.7478 33.0788C15.0478 33.1823 15.3449 33.2953 15.6382 33.4176C15.6542 33.4243 15.6702 33.4309 15.6861 33.4377C15.8324 33.4992 15.9777 33.5627 16.1221 33.6288C16.1259 33.6306 16.1299 33.6324 16.1337 33.6343C16.2732 33.6984 16.4118 33.7649 16.5495 33.8332C16.5657 33.8412 16.582 33.8491 16.5982 33.8572C16.7327 33.9244 16.8662 33.9941 16.9988 34.0654C17.0239 34.0789 17.0488 34.0927 17.0739 34.1062C17.2078 34.1792 17.3409 34.2536 17.4727 34.3307C19.3748 35.4433 21.4455 36.164 23.6273 36.4728C23.6342 36.4738 23.641 36.4746 23.6479 36.4754L32.6036 37.5065C32.6531 37.5136 32.7024 37.5218 32.7513 37.531C34.0697 37.7786 35.1103 38.7528 35.4584 40.0214C35.51 40.2094 35.5463 40.4038 35.5662 40.6032L35.6018 40.9609L18.8171 39.4903C18.3776 39.4519 17.9896 39.7771 17.9511 40.2168C17.9125 40.6566 18.2378 41.0443 18.6775 41.0828L36.4227 42.6376C36.427 42.6379 36.4312 42.6378 36.4353 42.6381C36.4395 42.6385 36.4435 42.6391 36.4478 42.6394L39.7943 42.8272C39.8093 42.8281 39.8242 42.8284 39.8391 42.8284C39.8549 42.8284 39.8706 42.8259 39.8863 42.8249C39.9042 42.8239 39.922 42.8232 39.9397 42.821C39.9635 42.8179 39.9868 42.8128 40.0103 42.8077C40.027 42.8039 40.0438 42.8012 40.0602 42.7964C40.0858 42.7891 40.1104 42.7791 40.1353 42.7692C40.1486 42.7638 40.1624 42.7598 40.1755 42.7536C40.2128 42.7364 40.2491 42.7164 40.2837 42.6933L43.1244 40.7922C43.1245 40.7921 43.1246 40.792 43.1247 40.7919L51.514 35.1774C52.358 34.6101 53.5102 34.8327 54.0823 35.6736C54.6054 36.442 54.4755 37.4871 53.7767 38.1077Z" fill="#B38339"/>
</svg>
