<svg width="56" height="56" viewBox="0 0 56 56" fill="none" xmlns="http://www.w3.org/2000/svg">
<path d="M26.0648 31.8099H29.9353C30.4362 31.8099 30.8424 31.4037 30.8424 30.9027C30.8424 30.4018 30.4362 29.9956 29.9353 29.9956H26.0648C25.5639 29.9956 25.1577 30.4018 25.1577 30.9027C25.1577 31.4037 25.5639 31.8099 26.0648 31.8099Z" fill="#B38339"/>
<path d="M51.3216 41.0657C51.2956 41.0526 51.2688 41.0409 51.2417 41.0303L44.3699 38.3859C43.6514 38.1094 43.0996 37.5317 42.856 36.8013L42.5806 35.975C44.1195 33.7658 44.7122 31.5973 43.2687 29.4319C42.6153 28.4518 41.8112 27.7456 40.8202 27.2806C41.2516 25.6787 41.4859 23.9693 41.4859 22.1944V22.1339H41.5464C42.5801 22.1339 43.4211 21.2929 43.4211 20.2592V18.324C43.4211 17.6192 43.0298 17.0046 42.4535 16.6845V14.4536C42.4535 6.48378 35.9697 0 27.9999 0C20.0301 0 13.5464 6.48378 13.5464 14.4536V16.6845C12.97 17.0046 12.5788 17.6192 12.5788 18.324V20.2592C12.5788 21.2929 13.4197 22.1339 14.4535 22.1339H14.514V22.1944C14.514 23.9693 14.7482 25.6787 15.1797 27.2807C14.1885 27.7458 13.3845 28.4519 12.7312 29.4321C11.2876 31.5973 11.8804 33.7658 13.4192 35.9751L13.1438 36.8014C12.9004 37.532 12.3486 38.1095 11.6299 38.386L4.75811 41.0303C4.7309 41.0407 4.70429 41.0526 4.67829 41.0657C2.38942 42.2101 0.967529 44.5107 0.967529 47.0698V53.1577C0.967529 54.7249 2.24259 56 3.80986 56H27.9999H52.19C53.7573 56 55.0323 54.7249 55.0323 53.1577V47.0698C55.0323 44.5107 53.6104 42.2101 51.3216 41.0657ZM41.7592 30.4384C42.2888 31.2326 42.7214 32.4194 41.3547 34.5632C40.6449 35.6765 39.5793 36.8602 38.361 38.0984C37.9199 37.9726 37.6156 37.5738 37.6156 37.1108V33.8056C37.6156 33.7644 37.6118 33.7241 37.6065 33.6843C38.6968 32.3384 39.5975 30.7653 40.2557 29.0293C40.8509 29.351 41.3375 29.8058 41.7592 30.4384ZM16.7336 26.0043H16.9572C17.5963 26.0043 18.1969 26.2532 18.6512 26.7074C19.4457 27.5019 20.5022 27.9395 21.6258 27.9395H34.374C35.4976 27.9395 36.554 27.5019 37.351 26.705C37.8028 26.2531 38.4036 26.0043 39.0427 26.0043H39.2662C37.9214 32.1988 33.3804 36.7689 27.9999 36.7689C22.6195 36.7689 18.0785 32.1988 16.7336 26.0043ZM19.397 39.0911C19.8978 38.5757 20.1986 37.875 20.1986 37.1109V35.5558C22.4022 37.4615 25.0953 38.5832 27.9999 38.5832C30.9045 38.5832 33.5976 37.4615 35.8012 35.5558V37.1108C35.8012 37.8749 36.1019 38.5754 36.6028 39.0909C33.9641 40.7386 31.004 41.6069 27.9999 41.6069C24.996 41.6069 22.0356 40.7387 19.397 39.0911ZM27.9999 43.4212C30.0705 43.4212 32.1196 43.0502 34.0751 42.336C31.5986 44.8521 29.2411 47.5838 27.9999 50.6436C26.7587 47.5838 24.4012 44.852 21.9247 42.3359C23.8802 43.0502 25.9294 43.4212 27.9999 43.4212ZM41.6068 20.2592C41.6068 20.2926 41.5797 20.3197 41.5464 20.3197H39.5507V18.2635H41.5464C41.5797 18.2635 41.6068 18.2906 41.6068 18.324V20.2592ZM34.7127 20.3197V18.2635H37.7364V20.3197H34.7127ZM28.9071 20.3197V18.2635H32.8984V20.3197H28.9071ZM23.1014 20.3197V18.2635H27.0928V20.3197H23.1014ZM18.2634 20.3197V18.2635H21.2872V20.3197H18.2634ZM35.8012 16.4492H31.8099V14.4536C31.8099 10.7732 31.5007 7.30395 30.9395 4.68465C30.7463 3.78308 30.5332 3.01759 30.2974 2.38284C31.4408 2.96232 32.4999 3.97334 33.3947 5.36524C34.9466 7.7794 35.8012 11.007 35.8012 14.4536V16.4492ZM26.0042 16.4492V14.4536C26.0042 11.1705 26.261 8.02372 26.7273 5.59299C27.1961 3.14906 27.7387 2.15836 27.9999 1.8757C28.2612 2.15836 28.8038 3.14906 29.2726 5.59299C29.7388 8.02372 29.9956 11.1705 29.9956 14.4536V16.4492H26.0042ZM25.7025 2.38296C25.4665 3.01771 25.2535 3.78321 25.0604 4.68477C24.4991 7.30395 24.19 10.7732 24.19 14.4536V16.4492H20.1986V14.4536C20.1986 11.007 21.0533 7.7794 22.6052 5.36536C23.5 3.97334 24.559 2.96244 25.7025 2.38296ZM40.6392 14.4536V16.4492H37.6155V14.4536C37.6155 10.6633 36.6585 7.08733 34.9208 4.38433C34.7207 4.07288 34.5123 3.77788 34.2972 3.49776C38.0845 5.68309 40.6392 9.77557 40.6392 14.4536ZM21.7028 3.49764C21.4876 3.77788 21.2793 4.07288 21.0791 4.38421C19.3413 7.08733 18.3844 10.6633 18.3844 14.4536V16.4492H15.3606V14.4536C15.3606 9.77557 17.9153 5.68309 21.7028 3.49764ZM14.393 20.2592V18.324C14.393 18.2906 14.4201 18.2635 14.4535 18.2635H16.4492V20.3197H14.4535C14.4201 20.3197 14.393 20.2926 14.393 20.2592ZM22.2578 22.1339C22.2565 22.154 22.2548 22.1739 22.2548 22.1944V23.162C22.2548 23.663 22.6609 24.0691 23.1619 24.0691C23.6629 24.0691 24.069 23.663 24.069 23.162V22.1944C24.069 22.1739 24.0673 22.154 24.066 22.1339H31.9338C31.9325 22.154 31.9308 22.1739 31.9308 22.1944V23.162C31.9308 23.663 32.337 24.0691 32.8379 24.0691C33.3389 24.0691 33.7451 23.663 33.7451 23.162V22.1944C33.7451 22.1739 33.7434 22.154 33.742 22.1339H39.6716V22.1944C39.6716 22.8713 39.6337 23.5374 39.5617 24.1901H39.0427C37.9191 24.1901 36.8627 24.6277 36.0657 25.4246C35.6139 25.8765 35.0131 26.1253 34.374 26.1253H21.6258C20.9867 26.1253 20.3861 25.8764 19.9318 25.4222C19.1373 24.6277 18.0808 24.1901 16.9572 24.1901H16.438C16.3662 23.5374 16.3281 22.8713 16.3281 22.1944V22.1339H22.2578ZM14.2406 30.4384C14.6624 29.8058 15.149 29.351 15.7443 29.0293C16.4025 30.7653 17.3032 32.3384 18.3934 33.6843C18.3881 33.7241 18.3844 33.7644 18.3844 33.8056V37.1109C18.3844 37.5739 18.0801 37.9727 17.639 38.0985C16.4206 36.8603 15.3549 35.6766 14.6453 34.5634C13.2786 32.4194 13.7111 31.2328 14.2406 30.4384ZM2.78178 53.1577V47.0698C2.78178 45.2164 3.80394 43.5486 5.45225 42.7073L12.2815 40.0792C13.4108 39.6447 14.2976 38.7738 14.7555 37.6653C15.8253 38.8905 17.0967 40.1308 18.3903 41.3925C22.2308 45.1382 26.5525 49.3546 27.045 54.1859H12.4578V51.2226C12.4578 50.7216 12.0517 50.3155 11.5507 50.3155C11.0497 50.3155 10.6436 50.7216 10.6436 51.2226V54.1857H3.80986C3.24297 54.1857 2.78178 53.7246 2.78178 53.1577ZM53.2181 53.1577C53.2181 53.7246 52.7569 54.1857 52.19 54.1857H45.3563V51.2225C45.3563 50.7215 44.9501 50.3153 44.4492 50.3153C43.9482 50.3153 43.542 50.7215 43.542 51.2225V54.1857H28.9548C29.4473 49.3545 33.7689 45.1381 37.6096 41.3923C38.9031 40.1307 40.1745 38.8904 41.2443 37.6651C41.7023 38.7737 42.5891 39.6446 43.7184 40.0791L50.5476 42.7072C52.1959 43.5486 53.2181 45.2163 53.2181 47.0698V53.1577Z" fill="#B38339"/>
</svg>
