<svg width="56" height="56" viewBox="0 0 56 56" fill="none" xmlns="http://www.w3.org/2000/svg">
<path d="M10.2668 13.5332H12.1334C14.7468 13.5332 16.8001 11.4799 16.8001 8.86657V6.06657C16.8001 3.45324 14.7468 1.3999 12.1334 1.3999H10.2668C7.65343 1.3999 5.6001 3.45324 5.6001 6.06657V8.86657C5.6001 11.4799 7.65343 13.5332 10.2668 13.5332ZM7.46676 6.06657C7.46676 4.4799 8.6801 3.26657 10.2668 3.26657H12.1334C13.7201 3.26657 14.9334 4.4799 14.9334 6.06657V8.86657C14.9334 10.4532 13.7201 11.6666 12.1334 11.6666H10.2668C8.6801 11.6666 7.46676 10.4532 7.46676 8.86657V6.06657Z" fill="#B38339"/>
<path d="M20.5333 27.5335V34.0668H22.4V21.0001C22.4 17.3601 19.5067 14.4668 15.8667 14.4668H6.53333C2.89333 14.4668 0 17.3601 0 21.0001V34.0668H1.86667V27.5335H4.66667V53.6668C4.66667 54.2268 5.04 54.6001 5.6 54.6001H11.2H16.8C17.36 54.6001 17.7333 54.2268 17.7333 53.6668V27.5335H20.5333ZM15.8667 21.9335V52.7335H12.1333V35.9335H14V34.0668H8.4V35.9335H10.2667V52.7335H6.53333V21.9335H4.66667V25.6668H1.86667V21.0001C1.86667 18.3868 3.92 16.3335 6.53333 16.3335H10.2667V25.6668H12.1333V16.3335H15.8667C18.48 16.3335 20.5333 18.3868 20.5333 21.0001V25.6668H17.7333V21.9335H15.8667Z" fill="#B38339"/>
<path d="M55.0667 1.3999H19.6001C19.0401 1.3999 18.6667 1.77324 18.6667 2.33324V10.7332H20.5334V3.26657H54.1334V36.3999L37.3334 49.6532L20.1601 36.1199L19.0401 37.6132L36.7734 51.6132C36.9601 51.7066 37.1467 51.7999 37.3334 51.7999C37.5201 51.7999 37.7067 51.7066 37.8934 51.6132L55.6267 37.6132C55.9067 37.4266 56.0001 37.1466 56.0001 36.8666V2.33324C56.0001 1.77324 55.6267 1.3999 55.0667 1.3999Z" fill="#B38339"/>
<path d="M25.1999 5.1333H23.3333V6.99997H25.1999V5.1333Z" fill="#B38339"/>
<path d="M28.9333 5.1333H27.0667V6.99997H28.9333V5.1333Z" fill="#B38339"/>
<path d="M32.6667 5.1333H30.8V6.99997H32.6667V5.1333Z" fill="#B38339"/>
<path d="M36.4001 5.1333H34.5334V6.99997H36.4001V5.1333Z" fill="#B38339"/>
<path d="M40.1333 5.1333H38.2666V6.99997H40.1333V5.1333Z" fill="#B38339"/>
<path d="M43.8667 5.1333H42V6.99997H43.8667V5.1333Z" fill="#B38339"/>
<path d="M47.6001 5.1333H45.7334V6.99997H47.6001V5.1333Z" fill="#B38339"/>
<path d="M51.3332 5.1333H49.4666V6.99997H51.3332V5.1333Z" fill="#B38339"/>
<path d="M25.1999 8.8667H23.3333V10.7334H25.1999V8.8667Z" fill="#B38339"/>
<path d="M28.9333 8.8667H27.0667V10.7334H28.9333V8.8667Z" fill="#B38339"/>
<path d="M32.6667 8.8667H30.8V10.7334H32.6667V8.8667Z" fill="#B38339"/>
<path d="M36.4001 8.8667H34.5334V10.7334H36.4001V8.8667Z" fill="#B38339"/>
<path d="M40.1333 8.8667H38.2666V10.7334H40.1333V8.8667Z" fill="#B38339"/>
<path d="M43.8667 8.8667H42V10.7334H43.8667V8.8667Z" fill="#B38339"/>
<path d="M47.6001 8.8667H45.7334V10.7334H47.6001V8.8667Z" fill="#B38339"/>
<path d="M51.3332 8.8667H49.4666V10.7334H51.3332V8.8667Z" fill="#B38339"/>
<path d="M37.3333 39.6666C43.0267 39.6666 47.6 35.0933 47.6 29.4C47.6 23.7066 43.0267 19.1333 37.3333 19.1333C31.64 19.1333 27.0667 23.7066 27.0667 29.4C27.0667 35.0933 31.64 39.6666 37.3333 39.6666ZM37.3333 21C42 21 45.7333 24.7333 45.7333 29.4C45.7333 34.0666 42 37.8 37.3333 37.8C32.6667 37.8 28.9333 34.0666 28.9333 29.4C28.9333 24.7333 32.6667 21 37.3333 21Z" fill="#B38339"/>
<path d="M35.4668 34.0668C35.7468 34.0668 35.9334 33.9734 36.1201 33.7868L42.6534 27.2534L41.3468 25.9468L35.4668 31.8268L33.3201 29.6801L32.0134 30.9868L34.8134 33.7868C35.0001 33.9734 35.1868 34.0668 35.4668 34.0668Z" fill="#B38339"/>
<path d="M41.0668 14.4668H33.6001V16.3335H41.0668V14.4668Z" fill="#B38339"/>
</svg>
