<svg width="56" height="49" viewBox="0 0 56 49" fill="none" xmlns="http://www.w3.org/2000/svg">
<g clip-path="url(#clip0_71_5262)">
<path d="M54.8333 9.0214H39.2233V3.50572C39.2233 2.57595 38.8546 1.68425 38.1982 1.0268C37.5418 0.369352 36.6516 0 35.7233 0L20.2767 0C19.3484 0 18.4582 0.369352 17.8018 1.0268C17.1454 1.68425 16.7767 2.57595 16.7767 3.50572V9.0214H1.16667C0.857247 9.0214 0.560501 9.14452 0.341709 9.36367C0.122916 9.58282 0 9.88005 0 10.19L0 24.2129C0.000584502 25.3492 0.331991 26.4608 0.953639 27.4114C1.57529 28.362 2.46019 29.1104 3.5 29.5649V47.5844C3.5 47.8943 3.62292 48.1915 3.84171 48.4107C4.0605 48.6298 4.35725 48.7529 4.66667 48.7529H51.3333C51.6428 48.7529 51.9395 48.6298 52.1583 48.4107C52.3771 48.1915 52.5 47.8943 52.5 47.5844V29.5649C53.5398 29.1104 54.4247 28.362 55.0464 27.4114C55.668 26.4608 55.9994 25.3492 56 24.2129V10.19C56 9.88005 55.8771 9.58282 55.6583 9.36367C55.4395 9.14452 55.1428 9.0214 54.8333 9.0214V9.0214ZM19.11 3.50572C19.11 3.1958 19.2329 2.89857 19.4517 2.67942C19.6705 2.46027 19.9672 2.33715 20.2767 2.33715H35.7467C36.0561 2.33715 36.3528 2.46027 36.5716 2.67942C36.7904 2.89857 36.9133 3.1958 36.9133 3.50572V9.0214H19.11V3.50572ZM50.1667 46.4158H5.83333V30.0557H11.6667V31.458C11.6543 31.9223 11.7341 32.3844 11.9015 32.8175C12.0689 33.2507 12.3206 33.6461 12.6419 33.981C12.9632 34.3159 13.3477 34.5835 13.7731 34.7682C14.1985 34.953 14.6564 35.0512 15.12 35.0572H17.4533C17.9248 35.0637 18.3928 34.9747 18.8291 34.7955C19.2654 34.6163 19.661 34.3507 19.9922 34.0145C20.3235 33.6784 20.5835 33.2786 20.7567 32.8393C20.9299 32.4 21.0126 31.9302 21 31.458V30.0557H35V31.458C35 32.3878 35.3687 33.2795 36.0251 33.937C36.6815 34.5944 37.5717 34.9638 38.5 34.9638H40.8333C41.7616 34.9638 42.6518 34.5944 43.3082 33.937C43.9646 33.2795 44.3333 32.3878 44.3333 31.458V30.0557H50.1667V46.4158ZM14 28.8872V26.9941H18.6667V31.4347C18.6667 31.7446 18.5437 32.0418 18.325 32.261C18.1062 32.4801 17.8094 32.6032 17.5 32.6032H15.1667C14.8572 32.6032 14.5605 32.4801 14.3417 32.261C14.1229 32.0418 14 31.7446 14 31.4347V28.8872ZM42 31.458C42 31.768 41.8771 32.0652 41.6583 32.2843C41.4395 32.5035 41.1428 32.6266 40.8333 32.6266H38.5C38.1906 32.6266 37.8938 32.5035 37.675 32.2843C37.4562 32.0652 37.3333 31.768 37.3333 31.458V27.0175H42V31.458ZM53.6667 24.2129C53.6667 25.1426 53.2979 26.0343 52.6415 26.6918C51.9852 27.3492 51.0949 27.7186 50.1667 27.7186H44.3333V25.8255C44.3333 25.5156 44.2104 25.2183 43.9916 24.9992C43.7728 24.78 43.4761 24.6569 43.1667 24.6569H36.1667C35.8572 24.6569 35.5605 24.78 35.3417 24.9992C35.1229 25.2183 35 25.5156 35 25.8255V27.7186H21V25.8255C21 25.5156 20.8771 25.2183 20.6583 24.9992C20.4395 24.78 20.1428 24.6569 19.8333 24.6569H12.8333C12.5239 24.6569 12.2272 24.78 12.0084 24.9992C11.7896 25.2183 11.6667 25.5156 11.6667 25.8255V27.7186H5.83333C4.90508 27.7186 4.01484 27.3492 3.35846 26.6918C2.70208 26.0343 2.33333 25.1426 2.33333 24.2129V11.3585H53.6667V24.2129Z" fill="#B38339"/>
</g>
<defs>
<clipPath id="clip0_71_5262">
<rect width="56" height="48.7529" fill="white"/>
</clipPath>
</defs>
</svg>
