<svg width="56" height="56" viewBox="0 0 56 56" fill="none" xmlns="http://www.w3.org/2000/svg">
<path d="M46.375 6.125H14C13.517 6.125 13.125 6.517 13.125 7V11.375H10.5C10.2244 11.375 9.96537 11.5045 9.8 11.725L4.55 18.725C4.31025 19.0444 4.31725 19.4854 4.56662 19.7969L9.07638 25.4336L2.09125 30.807L2.1 30.8184C1.89263 30.9776 1.75 31.2174 1.75 31.5V53.375C1.75 53.858 2.142 54.25 2.625 54.25H35.875C35.9835 54.25 36.0911 54.2255 36.1926 54.1861C36.2311 54.1712 36.2626 54.1459 36.2985 54.1258C36.344 54.1004 36.3939 54.082 36.435 54.0479L46.935 45.2979C47.1345 45.1308 47.25 44.8849 47.25 44.625V23.5804C51.6653 23.1402 55.125 19.404 55.125 14.875C55.125 10.0503 51.1997 6.125 46.375 6.125ZM45.5 39.522C43.4753 40.2054 42.0333 43.2416 42.0035 47.1292L39.8414 48.9309C39.2665 47.6831 38.1299 46.7451 36.75 46.4634V31.9095L38.5 30.4509V35.1496C38.5 36.232 39.1204 37.1613 40.1205 37.5751C40.4556 37.7143 40.8013 37.7816 41.1416 37.7816C41.8171 37.7816 42.4725 37.5147 42.9809 37.0064C43.477 36.5111 43.75 35.8514 43.75 35.1496V26.0759L45.5 24.6173V39.522ZM14 13.125H17.6715L14.875 17.5989L12.0785 13.125H14ZM23.0291 30.625H21.6825L24.3075 20.125H31.4291L23.0291 30.625ZM18.6209 30.625L15.9959 20.125H22.5041L19.8791 30.625H18.6209ZM28.0656 13.7961L31.5 18.375H25.2035L28.0656 13.7961ZM16.4535 18.375L19.25 13.9011L22.0465 18.375H16.4535ZM23.625 17.5989L20.8285 13.125H26.4206L23.625 17.5989ZM13.2965 18.375H7L10.4344 13.7961L13.2965 18.375ZM14.1916 20.125L16.8166 30.625H15.47L7.07 20.125H14.1916ZM15.05 32.375H17.9375H20.5625H21.8146C21.3815 35.8225 18.438 38.5 14.875 38.5C11.312 38.5 8.3685 35.8225 7.93538 32.375H15.05ZM6.16963 32.375C6.60975 36.7903 10.346 40.25 14.875 40.25C19.404 40.25 23.1402 36.7903 23.5804 32.375H35V46.4354C31.8395 46.8318 29.3326 49.3395 28.9354 52.5H9.56462C9.16737 49.3395 6.6605 46.8326 3.5 46.4354V32.375H6.16963ZM35 48.2038V52.5H30.7038C31.0748 50.3064 32.8064 48.5748 35 48.2038ZM42 27.5345V35.1496C42 35.3833 41.909 35.6038 41.7436 35.7691C41.3595 36.1533 40.9168 36.0106 40.7899 35.959C40.6639 35.9065 40.25 35.693 40.25 35.1496V28.9931L42 27.5345ZM38.7082 28H38.5V28.1733L35.5583 30.625H25.27L30.87 23.625H43.9582L38.7082 28ZM14.875 7.875H45.5V21.875H32.27L33.9325 19.7969C34.1819 19.4854 34.1889 19.0444 33.9491 18.725L28.6991 11.725C28.5346 11.5045 28.2756 11.375 28 11.375H14.875V7.875ZM13.23 30.625H5.1975L10.1701 26.8004L13.23 30.625ZM3.5 48.2038C5.69362 48.5739 7.42525 50.3064 7.79625 52.5H3.5V48.2038ZM36.75 48.286C37.5716 48.5791 38.2016 49.2634 38.4151 50.1191L36.75 51.5069V48.286ZM43.862 45.5805C44.1131 43.687 44.7676 42.217 45.5 41.5389V44.2155L43.862 45.5805ZM47.25 21.8146V7.93538C50.6975 8.3685 53.375 11.312 53.375 14.875C53.375 18.438 50.6975 21.3815 47.25 21.8146Z" fill="#B38339"/>
<path d="M2.625 7.875C4.55525 7.875 6.125 9.44475 6.125 11.375C6.125 11.858 6.517 12.25 7 12.25C7.483 12.25 7.875 11.858 7.875 11.375C7.875 9.44475 9.44475 7.875 11.375 7.875C11.858 7.875 12.25 7.483 12.25 7C12.25 6.517 11.858 6.125 11.375 6.125C9.44475 6.125 7.875 4.55525 7.875 2.625C7.875 2.142 7.483 1.75 7 1.75C6.517 1.75 6.125 2.142 6.125 2.625C6.125 4.55525 4.55525 6.125 2.625 6.125C2.142 6.125 1.75 6.517 1.75 7C1.75 7.483 2.142 7.875 2.625 7.875ZM7 5.52388C7.3885 6.10838 7.89163 6.6115 8.47613 7C7.89163 7.3885 7.3885 7.89163 7 8.47613C6.6115 7.89163 6.10838 7.3885 5.52388 7C6.10838 6.6115 6.6115 6.10838 7 5.52388Z" fill="#B38339"/>
<path d="M32.375 28H30.625V29.75H32.375V28Z" fill="#B38339"/>
<path d="M33.25 24.5H31.5V26.25H33.25V24.5Z" fill="#B38339"/>
<path d="M36.75 26.25H35V28H36.75V26.25Z" fill="#B38339"/>
</svg>
