<svg width="56" height="56" viewBox="0 0 56 56" fill="none" xmlns="http://www.w3.org/2000/svg">
<g clip-path="url(#clip0_55_4748)">
<path d="M19.724 41.7655L15.4302 40.3342C15.0485 40.207 14.7921 39.8512 14.7921 39.4489V37.8252C16.3797 36.7268 17.4225 34.8942 17.4225 32.822V32.2612C17.99 31.5785 18.2992 30.7274 18.2992 29.8286V29.315C18.2992 26.4454 15.9646 24.1108 13.095 24.1108H9.58792C6.71836 24.1108 4.38375 26.4453 4.38375 29.315V29.8286C4.38375 30.7275 4.69295 31.5785 5.2605 32.2612V32.822C5.2605 34.8943 6.30317 36.7269 7.89075 37.8252V39.4489C7.89075 39.8512 7.63427 40.207 7.25266 40.3342L2.95881 41.7655C1.18912 42.3555 0 44.0052 0 45.8708V51.2339C0 51.6869 0.367281 52.0542 0.820312 52.0542C1.27334 52.0542 1.64062 51.6869 1.64062 51.2339V45.8708C1.64062 44.7125 2.37891 43.6882 3.47769 43.3219L5.2605 42.7277V51.234C5.2605 51.687 5.62778 52.0543 6.08081 52.0543C6.53384 52.0543 6.90113 51.687 6.90113 51.234V42.1809L7.77153 41.8907C7.8318 41.8706 7.89064 41.848 7.9485 41.8238L10.4258 43.6817L8.78719 51.0559C8.68897 51.4981 8.96777 51.9364 9.40997 52.0346C9.85261 52.1332 10.2903 51.8541 10.3887 51.4118L11.3414 47.1244L12.2942 51.4118C12.3792 51.7942 12.7181 52.0544 13.0942 52.0544C13.1531 52.0544 13.2129 52.0481 13.2729 52.0347C13.7151 51.9365 13.994 51.4982 13.8957 51.056L12.2569 43.6819L14.7342 41.8238C14.7922 41.8479 14.8509 41.8706 14.9112 41.8907L15.7816 42.1809V51.234C15.7816 51.687 16.1489 52.0543 16.6019 52.0543C17.055 52.0543 17.4222 51.687 17.4222 51.234V42.7277L19.205 43.3219C20.3038 43.6882 21.0421 44.7125 21.0421 45.8708V51.2339C21.0421 51.6869 21.4094 52.0542 21.8624 52.0542C22.3155 52.0542 22.6827 51.6869 22.6827 51.2339V45.8708C22.683 44.0052 21.4939 42.3555 19.724 41.7655V41.7655ZM6.90123 32.8219V31.5073L8.83247 30.2199L11.959 31.262C12.3887 31.4053 12.8533 31.173 12.9966 30.7431C13.1399 30.3134 12.9076 29.8488 12.4777 29.7055L8.97061 28.5365C8.73053 28.4565 8.46683 28.4917 8.25617 28.6322L6.04417 30.1068C6.03247 30.015 6.02438 29.9224 6.02438 29.8283V29.3147C6.02438 27.3498 7.623 25.7511 9.58792 25.7511H13.0949C15.0598 25.7511 16.6585 27.3497 16.6585 29.3147V29.8283C16.6585 30.2452 16.5401 30.6433 16.3224 30.987L15.9847 30.8745C15.5547 30.7313 15.0904 30.9635 14.9471 31.3934C14.8038 31.8232 15.0361 32.2877 15.466 32.431L15.7818 32.5362V32.8218C15.7818 35.2702 13.7899 37.2621 11.3415 37.2621C8.89317 37.2621 6.90123 35.2703 6.90123 32.8219V32.8219ZM11.3414 38.9028C11.9714 38.9028 12.5794 38.8065 13.1514 38.6277V39.4489C13.1514 39.903 13.2715 40.3345 13.4834 40.7111L11.3414 42.3176L9.19942 40.7111C9.41139 40.3344 9.53148 39.9029 9.53148 39.4488V38.6276C10.1034 38.8064 10.7114 38.9028 11.3414 38.9028V38.9028Z" fill="#B38339"/>
<path d="M53.0411 41.7657L48.7472 40.3344C48.3656 40.2072 48.1091 39.8514 48.1091 39.4491V37.8253C49.6967 36.727 50.7394 34.8944 50.7394 32.8222V29.3151C50.7394 26.929 48.7981 24.9878 46.4121 24.9878H42.9051C40.5189 24.9878 38.5776 26.9291 38.5776 29.3151V32.8222C38.5776 34.8945 39.6204 36.7271 41.208 37.8253V39.4491C41.208 39.8514 40.9515 40.2072 40.5699 40.3344L36.2761 41.7657C34.5062 42.3557 33.3171 44.0055 33.3171 45.871V51.2341C33.3171 51.6871 33.6844 52.0544 34.1375 52.0544C34.5905 52.0544 34.9578 51.6871 34.9578 51.2341V45.871C34.9578 44.7127 35.696 43.6884 36.7948 43.3221L38.5776 42.7279V51.2342C38.5776 51.6872 38.9449 52.0545 39.3979 52.0545C39.851 52.0545 40.2183 51.6872 40.2183 51.2342V42.1811L41.0887 41.8909C41.1489 41.8708 41.2078 41.8482 41.2656 41.824L43.743 43.682L42.1042 51.0562C42.006 51.4984 42.2848 51.9367 42.727 52.0349C43.1694 52.1334 43.6075 51.8544 43.7057 51.4121L44.6584 47.1247L45.6112 51.4121C45.6962 51.7945 46.0352 52.0547 46.4112 52.0547C46.4701 52.0547 46.53 52.0484 46.5899 52.035C47.0321 51.9368 47.311 51.4985 47.2127 51.0563L45.5739 43.6822L48.0513 41.8242C48.1092 41.8483 48.168 41.871 48.2282 41.8911L49.0986 42.1813V51.2344C49.0986 51.6874 49.4659 52.0547 49.919 52.0547C50.372 52.0547 50.7393 51.6874 50.7393 51.2344V42.7281L52.5221 43.3223C53.6211 43.6884 54.3594 44.7127 54.3594 45.871V51.2341C54.3594 51.6871 54.7266 52.0544 55.1797 52.0544C55.6327 52.0544 56 51.6871 56 51.2341V45.871C56 44.0054 54.8109 42.3557 53.0411 41.7657ZM40.2182 32.8221V29.315C40.2182 27.8335 41.4235 26.6283 42.9049 26.6283H46.412C47.8934 26.6283 49.0986 27.8336 49.0986 29.315V32.8221C49.0986 35.2705 47.1068 37.2624 44.6583 37.2624C42.2099 37.2624 40.2182 35.2705 40.2182 32.8221V32.8221ZM44.6586 38.903C45.2886 38.903 45.8966 38.8067 46.4685 38.6279V39.4491C46.4685 39.9031 46.5885 40.3347 46.8006 40.7114L44.6586 42.3179L42.5166 40.7114C42.7286 40.3347 42.8486 39.9033 42.8486 39.4492V38.6281C43.4205 38.8066 44.0285 38.903 44.6586 38.903Z" fill="#B38339"/>
<path d="M32.1849 13.0466C31.9162 13.4114 31.9939 13.9249 32.3587 14.1936C32.7234 14.4625 33.237 14.3846 33.5057 14.0198L34.7978 12.2663C34.9813 12.0172 35.0091 11.686 34.8695 11.4097C34.73 11.1335 34.4468 10.9594 34.1374 10.9594H29.1837L31.3984 5.05361C31.4929 4.80172 31.4578 4.51942 31.3046 4.29838C31.1513 4.07722 30.8993 3.94531 30.6303 3.94531H20.9859C20.6095 3.94531 20.2814 4.20147 20.1901 4.56667L17.5598 15.0879C17.4985 15.333 17.5536 15.5926 17.709 15.7917C17.8644 15.9909 18.103 16.1073 18.3556 16.1073H23.4923L21.0583 28.2775C20.9829 28.6546 21.1794 29.0333 21.531 29.1887C21.6381 29.2361 21.7509 29.2589 21.8623 29.2589C22.1167 29.2589 22.3645 29.1403 22.523 28.925L27.0453 22.7877C27.314 22.4229 27.2362 21.9094 26.8715 21.6407C26.5069 21.3719 25.9933 21.4497 25.7245 21.8145L23.3905 24.9821L25.2973 15.4478C25.3455 15.2069 25.2831 14.957 25.1273 14.7669C24.9715 14.5768 24.7387 14.4666 24.4929 14.4666H19.4062L21.6263 5.58605H29.4465L27.2318 11.4919C27.1373 11.7438 27.1724 12.026 27.3256 12.2471C27.4788 12.4683 27.7308 12.6002 27.9999 12.6002H32.5139L32.1849 13.0466Z" fill="#B38339"/>
<path d="M30.6303 29.2583H34.1373C34.5659 29.2583 34.9223 28.9283 34.9552 28.5009L35.8319 17.1029C35.8494 16.8751 35.7711 16.6503 35.6159 16.4827C35.4607 16.315 35.2425 16.2197 35.014 16.2197H29.7534C29.5249 16.2197 29.3068 16.315 29.1515 16.4827C28.9963 16.6503 28.918 16.8751 28.9355 17.1029L29.8123 28.5009C29.8453 28.9283 30.2016 29.2583 30.6303 29.2583V29.2583ZM34.1283 17.8604L33.3778 27.6177H31.39L30.6395 17.8604H34.1283Z" fill="#B38339"/>
<path d="M34.9577 33.6988C34.9577 32.2796 33.803 31.125 32.3839 31.125C30.9647 31.125 29.8101 32.2796 29.8101 33.6988C29.8101 35.1181 30.9647 36.2726 32.3839 36.2726C33.803 36.2726 34.9577 35.1181 34.9577 33.6988ZM32.3839 34.632C31.8693 34.632 31.4507 34.2133 31.4507 33.6988C31.4507 33.1842 31.8694 32.7656 32.3839 32.7656C32.8984 32.7656 33.3171 33.1843 33.3171 33.6988C33.3171 34.2134 32.8984 34.632 32.3839 34.632Z" fill="#B38339"/>
</g>
<defs>
<clipPath id="clip0_55_4748">
<rect width="56" height="56" fill="white"/>
</clipPath>
</defs>
</svg>
