<svg width="56" height="56" viewBox="0 0 56 56" fill="none" xmlns="http://www.w3.org/2000/svg">
<g clip-path="url(#clip0_55_4755)">
<path d="M33.4698 35.2897C34.163 35.2897 34.8112 35.0165 35.2952 34.5204L39.5948 30.1122C40.5762 29.1059 40.5558 27.4889 39.5495 26.5075C38.5431 25.5263 36.9258 25.5466 35.9445 26.5528L33.4222 29.1386L32.9803 28.709C31.9725 27.7294 30.3553 27.7518 29.3752 28.7595C28.3954 29.7672 28.418 31.3842 29.4258 32.3641L31.6927 34.5682C32.1712 35.0335 32.8024 35.2897 33.4698 35.2897ZM30.554 29.9055C30.9023 29.5475 31.4768 29.54 31.8344 29.8877L32.8646 30.8895C33.1896 31.2057 33.7094 31.1986 34.0261 30.8741L37.1214 27.7007C37.4701 27.3431 38.0445 27.3362 38.4017 27.6845C38.7591 28.033 38.7662 28.6073 38.4179 28.9646L34.1182 33.3727C33.7859 33.7281 33.1807 33.7356 32.8389 33.3898L30.572 31.1857C30.2142 30.8376 30.206 30.2633 30.554 29.9055V29.9055Z" fill="#B38339"/>
<path d="M27.1157 35.8492C26.8423 35.4868 26.327 35.4146 25.9643 35.6881C25.6018 35.9615 25.5299 36.4769 25.8032 36.8392C26.1025 37.2359 26.4337 37.6163 26.7872 37.9698C28.8084 39.9908 31.4956 41.1036 34.3539 41.1036C37.2122 41.1036 39.8993 39.9908 41.9205 37.9698C43.9417 35.949 45.0547 33.2621 45.0547 30.4043C45.0547 27.5463 43.9416 24.8595 41.9205 22.8387C37.7481 18.667 30.9596 18.6671 26.7872 22.8387C23.9427 25.6828 22.9361 29.8317 24.1604 33.6664C24.2984 34.0988 24.7613 34.3373 25.1934 34.1995C25.6259 34.0614 25.8647 33.5989 25.7265 33.1665C24.6902 29.9205 25.5421 26.4085 27.9499 24.0011C31.481 20.4704 37.2269 20.4704 40.7579 24.0011C42.4686 25.7115 43.4107 27.9855 43.4107 30.4044C43.4107 32.8232 42.4686 35.0972 40.7579 36.8076C39.0474 38.5179 36.7731 39.46 34.3539 39.46C31.9349 39.46 29.6604 38.518 27.9498 36.8076C27.6499 36.5075 27.3692 36.1852 27.1157 35.8492V35.8492Z" fill="#B38339"/>
<path d="M54.8691 45.4203L49.683 40.2349C49.3619 39.914 48.8415 39.9139 48.5204 40.2349L48.4887 40.2666L46.4929 38.2712C47.8345 36.2029 48.6338 33.8132 48.7911 31.3191C48.8196 30.8661 48.4754 30.4757 48.0224 30.447C47.5697 30.4195 47.179 30.7627 47.1502 31.2156C46.9539 34.3294 45.6293 37.2607 43.4203 39.4693C40.924 41.9654 37.6457 43.2149 34.3664 43.2181C34.3622 43.218 34.3582 43.2175 34.3539 43.2175H34.2886C31.0271 43.201 27.7705 41.952 25.2875 39.4693C22.8657 37.0479 21.532 33.8285 21.532 30.4041C21.532 26.9796 22.8657 23.7602 25.2875 21.3388C30.2867 16.3402 38.4211 16.3402 43.4203 21.3388C45.2823 23.2006 46.5111 25.549 46.9738 28.1304C47.054 28.5772 47.4814 28.874 47.928 28.7944C48.3749 28.7143 48.6722 28.2872 48.5921 27.8403C48.0698 24.9269 46.6834 22.2767 44.5829 20.1764C43.5421 19.1357 42.3805 18.2877 41.1431 17.6311V11.0067C41.1425 10.7904 41.0551 10.5786 40.9024 10.4255L30.7163 0.240734C30.5631 0.0882656 30.3514 0.000546875 30.1349 0H2.46607C1.10632 0 -1.26953e-05 1.10611 -1.26953e-05 2.46575V9.3742C-1.26953e-05 9.82811 0.367925 10.1962 0.82205 10.1962C1.27607 10.1962 1.64411 9.82822 1.64411 9.3742V2.46575C1.64411 2.0125 2.01282 1.6438 2.46618 1.6438H29.3131V9.36294C29.3131 10.7226 30.4195 11.8287 31.7792 11.8287H39.4994V16.8867C37.8955 16.279 36.2045 15.9669 34.5109 15.9486C34.5028 15.9475 34.4949 15.9459 34.4865 15.9459H16.1334C15.6793 15.9459 15.3113 16.3139 15.3113 16.7678C15.3113 17.2217 15.6793 17.5898 16.1334 17.5898H27.6424C26.4698 18.203 25.3645 18.9878 24.3635 19.9441H16.1334C15.6793 19.9441 15.3113 20.3121 15.3113 20.766C15.3113 21.22 15.6793 21.588 16.1334 21.588H22.884C21.5422 23.3261 20.6252 25.3279 20.1862 27.4647H16.1335C15.6794 27.4647 15.3114 27.8328 15.3114 28.2867C15.3114 28.7406 15.6794 29.1086 16.1335 29.1086H19.9462C19.9083 29.537 19.8883 29.9691 19.8883 30.4043C19.8883 30.7613 19.9013 31.1163 19.9268 31.4688H16.1336C15.6796 31.4688 15.3115 31.8369 15.3115 32.2908C15.3115 32.7447 15.6796 33.1127 16.1336 33.1127H20.1411C20.5603 35.3375 21.495 37.4222 22.8865 39.2235H16.1336C15.6796 39.2235 15.3115 39.5915 15.3115 40.0455C15.3115 40.4995 15.6796 40.8674 16.1336 40.8674H24.3668C25.3664 41.8219 26.4699 42.6055 27.6405 43.2179H16.1331C15.6791 43.2179 15.3111 43.5859 15.3111 44.0398C15.3111 44.4937 15.6791 44.8618 16.1331 44.8618H34.3539C36.0998 44.8616 37.8457 44.548 39.4991 43.9216V53.5347C39.4991 53.9878 39.1304 54.3566 38.6771 54.3566H2.46607C2.01282 54.3566 1.644 53.9879 1.644 53.5347V12.6623C1.644 12.2084 1.27596 11.8404 0.821941 11.8404C0.367925 11.8404 -0.00012207 12.2083 -0.00012207 12.6623V53.5347C-1.26953e-05 54.8939 1.10632 56 2.46607 56H38.6772C40.0369 56 41.1433 54.8939 41.1433 53.5342V43.1768C41.5101 42.9821 41.8702 42.7703 42.2225 42.542L44.2178 44.537C43.8725 44.8384 43.854 45.4128 44.186 45.7311L49.3721 50.9166C50.8188 52.4243 53.4224 52.4242 54.8689 50.9166C56.377 49.47 56.3769 46.8667 54.8691 45.4203V45.4203ZM31.7791 10.1849C31.3259 10.1849 30.9571 9.81619 30.9571 9.36294V2.80623L38.3367 10.1849H31.7791ZM43.5634 41.5579C43.9142 41.268 44.2548 40.9597 44.5829 40.6317C44.909 40.3056 45.2177 39.9651 45.5091 39.6123L47.326 41.429L45.3802 43.3744L43.5634 41.5579ZM53.7065 49.7541C52.8718 50.6242 51.3695 50.624 50.5346 49.7541L45.9297 45.1499L49.1017 41.9783L53.7066 46.5826C54.5766 47.4175 54.5767 48.9194 53.7065 49.7541Z" fill="#B38339"/>
<path d="M7.4598 22.4001H11.056C12.07 22.4001 12.8949 21.5754 12.8949 20.5617V16.9659C12.8949 15.9521 12.0701 15.1274 11.056 15.1274H7.4598C6.446 15.1274 5.62109 15.9521 5.62109 16.9659V20.5617C5.62109 21.5754 6.446 22.4001 7.4598 22.4001V22.4001ZM7.26522 16.9659C7.26522 16.8586 7.35261 16.7713 7.4598 16.7713H11.056C11.1635 16.7713 11.2507 16.8586 11.2507 16.9659V20.5617C11.2507 20.669 11.1633 20.7563 11.056 20.7563H7.4598C7.3525 20.7563 7.26522 20.669 7.26522 20.5617V16.9659Z" fill="#B38339"/>
<path d="M5.62109 32.0865C5.62109 33.1002 6.44589 33.9249 7.4598 33.9249H11.056C12.07 33.9249 12.8949 33.1002 12.8949 32.0865V28.4907C12.8949 27.477 12.0701 26.6523 11.056 26.6523H7.4598C6.446 26.6523 5.62109 27.477 5.62109 28.4907V32.0865ZM7.26522 28.4907C7.26522 28.3834 7.35261 28.2961 7.4598 28.2961H11.056C11.1635 28.2961 11.2507 28.3834 11.2507 28.4907V32.0865C11.2507 32.1938 11.1633 32.2811 11.056 32.2811H7.4598C7.3525 32.2811 7.26522 32.1938 7.26522 32.0865V28.4907Z" fill="#B38339"/>
<path d="M5.62109 43.8449C5.62109 44.8586 6.44589 45.6833 7.4598 45.6833H11.056C12.07 45.6833 12.8949 44.8586 12.8949 43.8449V40.2491C12.8949 39.2353 12.0701 38.4106 11.056 38.4106H7.4598C6.446 38.4106 5.62109 39.2353 5.62109 40.2491V43.8449ZM7.26522 40.2491C7.26522 40.1418 7.35261 40.0546 7.4598 40.0546H11.056C11.1635 40.0546 11.2507 40.1418 11.2507 40.2491V43.8449C11.2507 43.9522 11.1633 44.0395 11.056 44.0395H7.4598C7.3525 44.0395 7.26522 43.9522 7.26522 43.8449V40.2491Z" fill="#B38339"/>
</g>
<defs>
<clipPath id="clip0_55_4755">
<rect width="56" height="56" fill="white"/>
</clipPath>
</defs>
</svg>
