<svg width="56" height="56" viewBox="0 0 56 56" fill="none" xmlns="http://www.w3.org/2000/svg">
<path d="M10.1105 38.7168C9.49036 39.2531 8.68733 39.5787 7.80686 39.5787C6.92945 39.5787 6.12642 39.2531 5.50638 38.7168C4.88009 38.1741 4.44905 37.4177 4.32502 36.559C4.29078 36.3171 4.36527 36.0845 4.51095 35.911L7.12162 32.5222C7.26731 32.2988 7.5215 32.1501 7.80686 32.1501H14.7052V30.4759C14.7052 30.0232 15.0711 29.6543 15.5237 29.6543C15.9763 29.6543 16.3453 30.0232 16.3453 30.4759V32.1501H23.2407C23.5259 32.1501 23.7802 32.2988 23.926 32.5222L26.5582 35.942C26.6947 36.1188 26.7536 36.3388 26.7226 36.5591C26.6017 37.4178 26.1676 38.1743 25.5414 38.7169C24.9244 39.2532 24.1182 39.5788 23.2408 39.5788C22.3602 39.5788 21.5572 39.2532 20.9371 38.7169C20.3108 38.1743 19.8799 37.4178 19.7559 36.5591C19.7216 36.3172 19.7961 36.0846 19.945 35.9111L21.5758 33.7903H16.3454V41.3863H19.1885C19.852 41.3863 20.4535 41.6591 20.8907 42.0963C21.3278 42.5335 21.6007 43.135 21.6007 43.8016C21.6007 44.4651 21.3278 45.0697 20.8907 45.5068C20.4536 45.9409 19.8521 46.2138 19.1885 46.2138H11.8623C11.1956 46.2138 10.5942 45.9409 10.157 45.5068C9.71983 45.0697 9.44705 44.4652 9.44705 43.8016C9.44705 43.135 9.71983 42.5335 10.157 42.0963C10.5942 41.6591 11.1956 41.3863 11.8623 41.3863H14.7054V33.7903H9.47187L11.1275 35.942C11.2702 36.125 11.3228 36.3482 11.2919 36.5591C11.1709 37.3959 10.7492 38.1618 10.1105 38.7168V38.7168ZM27.8667 34.4661C27.7489 34.0291 28.0093 33.5795 28.4465 33.4616C28.8836 33.3469 29.3333 33.6042 29.451 34.0414C29.6154 34.6584 29.7425 35.3001 29.8293 35.9636C29.916 36.6177 29.9595 37.272 29.9595 37.923C29.9595 40.0158 29.5285 42.0126 28.7502 43.8231H50.9337C51.8763 43.8231 52.732 43.4387 53.3521 42.8156C53.9752 42.1954 54.3598 41.3397 54.3598 40.3971V29.5952C54.3598 29.1425 54.7287 28.7768 55.1814 28.7768C55.6341 28.7768 55.9999 29.1426 55.9999 29.5952V40.3971C55.9999 41.7923 55.4325 43.0574 54.5117 43.9752C53.594 44.8928 52.329 45.4632 50.9337 45.4632H27.9256C27.2715 46.5794 26.4808 47.6057 25.5723 48.514C22.8625 51.2239 19.1171 52.9013 14.9812 52.9013C10.8421 52.9013 7.09986 51.2239 4.38703 48.514C1.67738 45.8044 0 42.0591 0 37.9231C0 33.7841 1.67738 30.0418 4.38703 27.3291C5.33586 26.3835 6.40861 25.5619 7.5775 24.8953V16.9333C7.5775 15.5381 8.148 14.2732 9.06566 13.3523C9.98342 12.4345 11.2514 11.8672 12.6466 11.8672H19.7961V9.70931C19.7961 8.46287 20.3047 7.3281 21.1262 6.50659C21.9477 5.68507 23.0826 5.17353 24.3321 5.17353H24.5956C24.6701 4.64317 24.9181 4.16881 25.2809 3.80918C25.718 3.37201 26.3196 3.09912 26.9861 3.09912H36.5944C37.2578 3.09912 37.8625 3.37201 38.2996 3.80918C38.6592 4.16881 38.9073 4.64317 38.9817 5.17353H39.2483C40.4978 5.17353 41.6295 5.68507 42.4542 6.50659C43.2759 7.32821 43.7842 8.46298 43.7842 9.70931V11.8672H50.9337C52.329 11.8672 53.594 12.4346 54.5117 13.3523C55.4326 14.2732 55.9999 15.5381 55.9999 16.9333V25.8812C55.9999 26.3339 55.634 26.6996 55.1814 26.6996C54.7288 26.6996 54.3598 26.3338 54.3598 25.8812V22.083C53.9382 22.2566 53.5041 22.4239 53.0608 22.5853C52.3879 22.8301 51.6934 23.0627 50.9772 23.2859V26.1136C50.9772 27.0375 50.4934 27.856 49.7121 28.4327C48.999 28.9597 48.0286 29.2852 46.9714 29.2852C45.9142 29.2852 44.9468 28.9597 44.2338 28.4327C43.4493 27.8559 42.9657 27.0375 42.9657 26.1136V25.0936C41.3564 25.3448 39.6885 25.54 37.9771 25.6795C35.9681 25.8439 33.9001 25.9275 31.7886 25.9275C29.6803 25.9275 27.6093 25.8439 25.6033 25.6795C24.8188 25.6144 24.0407 25.54 23.2748 25.4533C25.1879 26.7275 26.7907 28.4265 27.9441 30.4169C28.1703 30.8108 28.0371 31.3099 27.6464 31.5362C27.2558 31.7625 26.7535 31.6293 26.5272 31.2386C25.3521 29.2109 23.6592 27.5242 21.6346 26.3554C19.6131 25.1897 17.3126 24.582 14.9811 24.582C11.4466 24.582 8.06411 25.9741 5.54652 28.4886C3.13425 30.9037 1.63986 34.2368 1.63986 37.9231C1.63986 41.6064 3.13425 44.9394 5.54652 47.3545C7.96173 49.7668 11.2947 51.2612 14.9811 51.2612C18.6644 51.2612 21.9973 49.7668 24.4126 47.3545C26.8248 44.9394 28.3192 41.6063 28.3192 37.9231C28.3192 37.3154 28.282 36.7326 28.2076 36.1746C28.1333 35.6009 28.0186 35.0304 27.8667 34.4661V34.4661ZM9.22075 24.0891C10.1911 23.6859 11.2174 23.3789 12.2808 23.1837C11.6794 22.9944 11.0903 22.793 10.5198 22.5853C10.0764 22.4239 9.64239 22.2566 9.22075 22.083V24.0891ZM14.2435 22.9604C14.4853 22.9481 14.7334 22.9418 14.9813 22.9418C16.3611 22.9418 17.7004 23.1309 18.9715 23.4814V22.0458C18.9715 21.8691 18.9002 21.7048 18.7792 21.587C18.6616 21.4692 18.5002 21.3948 18.3236 21.3948H14.8914C14.7147 21.3948 14.5534 21.4692 14.4326 21.587C14.3148 21.7048 14.2435 21.8691 14.2435 22.0458V22.9604ZM24.5957 6.81339H24.3322C23.5355 6.81339 22.8129 7.139 22.2859 7.66607C21.7619 8.18998 21.4363 8.91557 21.4363 9.70931V11.8672H42.1442V9.70931C42.1442 8.91557 41.8184 8.18998 41.2915 7.66607C40.7675 7.139 40.0451 6.81339 39.2482 6.81339H38.9816C38.9071 7.34364 38.6591 7.818 38.2995 8.18068C37.8623 8.61785 37.2578 8.88768 36.5942 8.88768H33.6489C33.1962 8.88768 32.8273 8.52171 32.8273 8.06912C32.8273 7.61346 33.1962 7.2475 33.6489 7.2475H36.5942C36.8051 7.2475 36.9974 7.16076 37.1399 7.0212C37.2794 6.87857 37.3662 6.6864 37.3662 6.47553V5.51139C37.3662 5.30062 37.2794 5.10834 37.1399 4.96889C36.9973 4.82615 36.8051 4.73942 36.5942 4.73942H26.9861C26.7752 4.73942 26.58 4.82615 26.4405 4.96889C26.301 5.10834 26.2141 5.30062 26.2141 5.51139V6.47553C26.2141 6.6864 26.301 6.87868 26.4405 7.0212C26.58 7.16076 26.7753 7.2475 26.9861 7.2475H29.9316C30.3843 7.2475 30.7532 7.61346 30.7532 8.06912C30.7532 8.52182 30.3843 8.88768 29.9316 8.88768H26.9861C26.3226 8.88768 25.718 8.61785 25.2809 8.18068C24.9182 7.818 24.6702 7.34364 24.5957 6.81339V6.81339ZM12.6497 21.5838C12.7396 21.1374 12.9628 20.7375 13.2729 20.4274C13.6883 20.012 14.262 19.7546 14.8914 19.7546H18.3236C18.9529 19.7546 19.5265 20.0121 19.942 20.4274C20.3544 20.8429 20.6116 21.4164 20.6116 22.0458V23.4381C22.2517 23.6985 23.9633 23.9031 25.7305 24.0457C27.6869 24.2039 29.7114 24.2877 31.7888 24.2877C33.8661 24.2877 35.8937 24.2039 37.8501 24.0457C39.6173 23.9031 41.3256 23.6985 42.9659 23.4381V22.0458C42.9659 21.4164 43.2232 20.8429 43.6387 20.4274C44.0541 20.012 44.6276 19.7546 45.2571 19.7546H48.6861C49.3186 19.7546 49.8922 20.0121 50.3045 20.4274C50.6177 20.7375 50.8378 21.1374 50.9309 21.5838C51.4706 21.4101 51.9945 21.2335 52.5028 21.0474C53.1477 20.8119 53.7679 20.567 54.36 20.3127V16.9333C54.36 15.9908 53.9755 15.1351 53.3524 14.515C52.7322 13.8918 51.8766 13.5072 50.934 13.5072C38.1726 13.5072 25.4083 13.5072 12.6468 13.5072C11.7042 13.5072 10.8486 13.8918 10.2254 14.515C9.6052 15.1351 9.22075 15.9908 9.22075 16.9333V20.3127C9.81291 20.5669 10.433 20.8117 11.0748 21.0474C11.5863 21.2335 12.1103 21.4101 12.6497 21.5838V21.5838ZM48.686 21.3947H45.257C45.0802 21.3947 44.9159 21.4691 44.7981 21.5869C44.6803 21.7047 44.6089 21.869 44.6089 22.0457V26.1135C44.6089 26.4886 44.8353 26.8451 45.2073 27.118C45.6475 27.4436 46.2709 27.6451 46.9715 27.6451C47.6754 27.6451 48.2985 27.4435 48.7387 27.118C49.1076 26.8451 49.3371 26.4885 49.3371 26.1135V22.0458C49.3371 21.8691 49.2627 21.7048 49.1448 21.587C49.0271 21.4691 48.8658 21.3947 48.686 21.3947ZM19.1886 43.0295H11.8624C11.6484 43.0295 11.4562 43.1164 11.3167 43.2558C11.1773 43.3954 11.0904 43.5876 11.0904 43.8015C11.0904 44.0124 11.1773 44.2046 11.3167 44.3441C11.4562 44.4867 11.6484 44.5736 11.8624 44.5736H19.1886C19.3995 44.5736 19.5917 44.4867 19.7312 44.3441C19.8707 44.2046 19.9607 44.0124 19.9607 43.8015C19.9607 43.5876 19.8708 43.3954 19.7312 43.2558C19.5917 43.1164 19.3994 43.0295 19.1886 43.0295ZM24.4718 37.4797C24.729 37.2597 24.9245 36.9682 25.0298 36.6364L23.2409 34.3111L21.4488 36.6364C21.5573 36.9682 21.7526 37.2597 22.01 37.4797C22.3356 37.765 22.7665 37.9355 23.2409 37.9355C23.7122 37.9355 24.1431 37.765 24.4718 37.4797ZM9.04083 37.4797C9.29512 37.2597 9.49036 36.9682 9.59897 36.6364L7.80697 34.3111L6.01803 36.6364C6.12347 36.9682 6.32187 37.2597 6.57617 37.4797C6.90484 37.765 7.33567 37.9355 7.80708 37.9355C8.28133 37.9355 8.71216 37.765 9.04083 37.4797Z" fill="#B38339"/>
</svg>
