<svg width="56" height="56" viewBox="0 0 56 56" fill="none" xmlns="http://www.w3.org/2000/svg">
<g clip-path="url(#clip0_55_4803)">
<path d="M28.0002 6.68943C28.7565 6.68943 29.3696 6.07634 29.3696 5.32006C29.3696 4.56377 28.7565 3.95068 28.0002 3.95068C27.2439 3.95068 26.6309 4.56377 26.6309 5.32006C26.6309 6.07634 27.2439 6.68943 28.0002 6.68943Z" fill="#B38339"/>
<path d="M33.979 8.64014H22.0209C21.5676 8.64014 21.2 9.00775 21.2 9.4611C21.2 9.91446 21.5676 10.2821 22.0209 10.2821H33.9792C34.4326 10.2821 34.8002 9.91446 34.8002 9.4611C34.8002 9.00764 34.4325 8.64014 33.979 8.64014Z" fill="#B38339"/>
<path d="M33.979 11.4258H22.0209C21.5676 11.4258 21.2 11.7934 21.2 12.2467C21.2 12.7001 21.5676 13.0677 22.0209 13.0677H33.9792C34.4326 13.0677 34.8002 12.7001 34.8002 12.2467C34.8002 11.7934 34.4325 11.4258 33.979 11.4258Z" fill="#B38339"/>
<path d="M25.404 20.9208C25.3607 20.4695 24.9597 20.1385 24.5082 20.1821C21.7996 20.4425 19.7647 21.3147 18.5362 21.9988V20.4128C18.5362 19.9594 18.1686 19.5918 17.7153 19.5918C17.2619 19.5918 16.8943 19.9594 16.8943 20.4128V23.5134C16.8943 23.8319 17.0786 24.1219 17.3671 24.257C17.4782 24.309 17.5971 24.3345 17.7153 24.3345C17.9038 24.3345 18.0905 24.2695 18.241 24.1443C18.2642 24.1249 20.6073 22.2069 24.6656 21.8168C25.1168 21.7732 25.4475 21.3721 25.404 20.9208Z" fill="#B38339"/>
<path d="M38.0616 20.5137H28.693C28.2397 20.5137 27.8721 20.8813 27.8721 21.3346C27.8721 21.788 28.2397 22.1556 28.693 22.1556H38.0616C38.515 22.1556 38.8826 21.788 38.8826 21.3346C38.8826 20.8813 38.5151 20.5137 38.0616 20.5137Z" fill="#B38339"/>
<path d="M25.404 27.9599C25.3607 27.5086 24.9597 27.178 24.5082 27.2212C21.7996 27.4816 19.7647 28.3537 18.5362 29.0379V27.4518C18.5362 26.9985 18.1686 26.6309 17.7153 26.6309C17.2619 26.6309 16.8943 26.9985 16.8943 27.4518V30.5525C16.8943 30.871 17.0786 31.1609 17.3671 31.296C17.4782 31.3481 17.5971 31.3736 17.7153 31.3736C17.9038 31.3736 18.0905 31.3086 18.241 31.1833C18.2642 31.1639 20.6073 29.2459 24.6656 28.8558C25.1168 28.8123 25.4475 28.4113 25.404 27.9599Z" fill="#B38339"/>
<path d="M38.0616 27.5527H28.693C28.2397 27.5527 27.8721 27.9203 27.8721 28.3737C27.8721 28.8271 28.2397 29.1947 28.693 29.1947H38.0616C38.515 29.1947 38.8826 28.8271 38.8826 28.3737C38.8827 27.9203 38.5151 27.5527 38.0616 27.5527Z" fill="#B38339"/>
<path d="M25.4041 34.999C25.3608 34.5478 24.9598 34.2167 24.5083 34.2603C21.7997 34.5207 19.7648 35.3929 18.5363 36.0769V34.4909C18.5362 34.0375 18.1686 33.6699 17.7153 33.6699C17.2619 33.6699 16.8943 34.0375 16.8943 34.4909V37.5916C16.8943 37.91 17.0786 38.2 17.3671 38.3351C17.4782 38.3871 17.5971 38.4126 17.7153 38.4126C17.9038 38.4126 18.0905 38.3478 18.241 38.2224C18.2642 38.2031 20.6073 36.2852 24.6656 35.8949C25.1168 35.8514 25.4475 35.4503 25.4041 34.999Z" fill="#B38339"/>
<path d="M38.0616 34.5918H28.693C28.2397 34.5918 27.8721 34.9594 27.8721 35.4128C27.8721 35.8661 28.2397 36.2337 28.693 36.2337H38.0616C38.515 36.2337 38.8826 35.8661 38.8826 35.4128C38.8826 34.9594 38.5151 34.5918 38.0616 34.5918Z" fill="#B38339"/>
<path d="M43.5121 9.12273H40.2222C38.9684 7.12883 36.7501 5.79993 34.2259 5.79993H33.2099V5.20996C33.2099 2.33712 30.8728 0 28 0C25.1272 0 22.7901 2.33712 22.7901 5.20985V5.79993H21.7741C19.2499 5.79993 17.0314 7.12883 15.7779 9.12273H12.488C10.1607 9.12273 8.26733 11.0161 8.26733 13.3434V17.6377C8.26733 18.091 8.63494 18.4586 9.0883 18.4586C9.54166 18.4586 9.90927 18.091 9.90927 17.6377V13.3434C9.90927 11.9215 11.0661 10.7647 12.488 10.7647H15.0175C14.8036 11.4467 14.6949 12.1643 14.6949 12.8792V14.0502H12.642C12.1886 14.0502 11.821 14.4178 11.821 14.8711V51.3472C11.821 51.8006 12.1886 52.1682 12.642 52.1682H43.358C43.8113 52.1682 44.1789 51.8006 44.1789 51.3472V47.5742C44.1789 47.1208 43.8113 46.7532 43.358 46.7532C42.9046 46.7532 42.537 47.1208 42.537 47.5742V50.5261H13.463V15.6922H42.537V44.2903C42.537 44.7437 42.9046 45.1113 43.358 45.1113C43.8113 45.1113 44.1789 44.7437 44.1789 44.2903V14.8713C44.1789 14.4179 43.8113 14.0503 43.358 14.0503H41.3051V12.8793C41.3051 12.1664 41.1957 11.4453 40.9823 10.7648H43.5119C44.9337 10.7648 46.0906 11.9216 46.0906 13.3435V51.7793C46.0906 53.2013 44.9337 54.3582 43.5119 54.3582H19.6489C19.1955 54.3582 18.8279 54.7258 18.8279 55.1791C18.8279 55.6325 19.1955 56.0001 19.6489 56.0001H43.5121C45.8393 56.0001 47.7327 54.1067 47.7327 51.7793V13.3434C47.7327 11.0162 45.8392 9.12273 43.5121 9.12273ZM39.6632 14.0503H16.3369V12.8793C16.3369 12.0322 16.5382 11.1885 16.9206 10.4328C17.8176 8.66051 19.6558 7.44186 21.7743 7.44186C21.7743 7.44186 23.6033 7.44186 23.6112 7.44186C24.6794 7.44186 24.4322 5.89607 24.4322 5.20985C24.4322 3.24253 26.0327 1.64204 28 1.64204C29.9673 1.64204 31.5678 3.24252 31.5678 5.20996C31.5678 5.90657 31.2647 7.44186 32.3888 7.44186H34.2257C36.3442 7.44186 38.1823 8.66041 39.0793 10.4328C39.4538 11.1727 39.6631 12.0418 39.6631 12.8793V14.0503H39.6632Z" fill="#B38339"/>
<path d="M16.3648 54.3579H12.488C11.0661 54.3579 9.90927 53.201 9.90927 51.779V20.9216C9.90927 20.4682 9.54166 20.1006 9.0883 20.1006C8.63494 20.1006 8.26733 20.4682 8.26733 20.9216V51.779C8.26733 54.1064 10.1607 55.9998 12.488 55.9998H16.3648C16.8181 55.9998 17.1858 55.6322 17.1858 55.1788C17.1858 54.7255 16.8181 54.3579 16.3648 54.3579Z" fill="#B38339"/>
</g>
<defs>
<clipPath id="clip0_55_4803">
<rect width="56" height="56" fill="white"/>
</clipPath>
</defs>
</svg>
