<svg width="56" height="56" viewBox="0 0 56 56" fill="none" xmlns="http://www.w3.org/2000/svg">
<path d="M37.9162 29.7919V34.0587C37.9162 34.7031 38.4386 35.2256 39.0832 35.2256C39.7277 35.2256 40.2501 34.7032 40.2501 34.0587V29.7921C40.9464 29.3877 41.417 28.6357 41.417 27.774C41.417 26.4875 40.3701 25.4409 39.0833 25.4409C37.7966 25.4409 36.7498 26.4875 36.7498 27.774C36.7496 28.6354 37.22 29.3875 37.9162 29.7919Z" fill="#B38339"/>
<path d="M55.9998 10.5001V1.16692C55.9998 0.522484 55.4773 0 54.8328 0H1.16692C0.522375 0 0 0.522484 0 1.16692V10.5001C0 11.078 0.420656 11.5568 0.972234 11.6495V49.0174C0.420656 49.1101 0 49.5887 0 50.1668V54.8332C0 55.4775 0.522375 56 1.16692 56H54.8328C55.4772 56 55.9998 55.4775 55.9998 54.8331V50.1667C55.9998 49.5888 55.5791 49.1101 55.0275 49.0173V11.6495C55.5791 11.5567 55.9998 11.0782 55.9998 10.5001ZM53.666 53.6663H2.33373V51.3336H53.6659V53.6663H53.666ZM8.36117 31.5V48.9999H3.30608V31.5H8.36117ZM3.30608 29.1662V11.667H8.36128V29.1663H3.30608V29.1662ZM15.7497 31.5V48.9999H10.695V31.5H15.7497ZM10.695 29.1662V11.667H15.7499V29.1663H10.695V29.1662ZM23.1387 31.5V48.9999H18.0835V31.5H23.1387ZM18.0836 29.1662V11.667H23.1388V29.1663H18.0836V29.1662ZM30.5272 31.5V39.0831V48.9998H25.4724V31.5H30.5272ZM25.4726 29.166V11.667H30.5273V21.5832V29.166H25.4726ZM45.3049 22.7502V37.9164H32.8611V37.9163V22.7502H45.3049ZM32.8611 20.4163V11.667H37.9163V20.4164H32.8611V20.4163ZM45.3049 20.4163H40.25V11.667H45.3049V20.4163ZM45.3051 40.2501V48.9999H40.25V40.2501H45.3051ZM37.9161 40.2501V48.9999H32.8609V40.2501H37.9161ZM52.6937 31.5001V48.9999H47.6388V39.0832C47.6388 39.0815 47.6386 39.0802 47.6386 39.0786V31.5H52.6937V31.5001ZM47.6387 29.1662V21.5833V11.6671H52.6938V29.1663H47.6387V29.1662ZM53.666 9.33319H2.33373V2.33373H53.6659V9.33319H53.666Z" fill="#B38339"/>
<path d="M9.57732 7.00035H15.896C16.5405 7.00035 17.0629 6.47797 17.0629 5.83343C17.0629 5.18921 16.5406 4.6665 15.896 4.6665H9.57732C8.93299 4.6665 8.4104 5.18921 8.4104 5.83343C8.41051 6.47797 8.93299 7.00035 9.57732 7.00035Z" fill="#B38339"/>
<path d="M6.19793 7.00084H6.22571C6.87015 7.00084 7.39263 6.47846 7.39263 5.83391C7.39263 5.1897 6.87037 4.66699 6.22571 4.66699H6.19793C5.55349 4.66699 5.03101 5.1897 5.03101 5.83391C5.03101 6.47835 5.55338 7.00084 6.19793 7.00084Z" fill="#B38339"/>
</svg>
