<svg width="56" height="56" viewBox="0 0 56 56" fill="none" xmlns="http://www.w3.org/2000/svg">
<path d="M52.7595 23.0436L50.4391 21.4377L48.1 11.2406C47.406 8.21476 44.7531 6.10156 41.6487 6.10156H14.3513C11.2469 6.10156 8.59402 8.21476 7.89995 11.2406L5.56092 21.4377L3.24055 23.0436C1.2114 24.4479 0 26.7597 0 29.2273V39.7522C0 41.4617 1.33343 42.8648 3.01472 42.9783V47.5409C3.01472 48.8409 4.07228 49.8984 5.37225 49.8984H10.4656C11.7656 49.8984 12.8232 48.8409 12.8232 47.5409V42.9865H20.196C20.3748 45.0301 22.0944 46.6388 24.1836 46.6388H33.8624C35.9516 46.6388 37.6713 45.0302 37.8501 42.9865H43.1768V47.5409C43.1768 48.8409 44.2344 49.8984 45.5344 49.8984H50.6277C51.9277 49.8984 52.9853 48.8409 52.9853 47.5409V42.9783C54.6666 42.8649 56 41.4617 56 39.7522V29.2273C56.0001 26.7597 54.7887 24.4479 52.7595 23.0436ZM2.05671 29.2273C2.05671 27.4344 2.93684 25.7549 4.41109 24.7346L7.0593 22.9018C7.27032 22.7558 7.41909 22.5362 7.4764 22.2862L9.90455 11.7003C10.3831 9.61483 12.2116 8.15827 14.3513 8.15827H41.6487C43.7884 8.15827 45.6169 9.61483 46.0954 11.7005L48.5236 22.2863C48.5809 22.5364 48.7297 22.7561 48.9407 22.902L51.5889 24.7348C53.0632 25.755 53.9433 27.4345 53.9433 29.2274V36.3558H2.05671V29.2273ZM10.7666 47.541C10.7664 47.7069 10.6315 47.8419 10.4656 47.8419H5.37225C5.20635 47.8419 5.07143 47.7069 5.07143 47.541V42.9865H10.7666V47.541ZM33.8626 44.5823H24.1837C23.2302 44.5823 22.4362 43.8929 22.27 42.9867H35.7765C35.6102 43.8929 34.8161 44.5823 33.8626 44.5823ZM50.9288 47.541C50.9288 47.7068 50.7938 47.8419 50.6279 47.8419H45.5345C45.3686 47.8419 45.2337 47.7069 45.2337 47.541V42.9867H50.9288V47.541ZM53.9434 39.7523C53.9434 40.4017 53.4151 40.93 52.7658 40.93H3.23438C2.58501 40.93 2.05671 40.4017 2.05671 39.7523V38.4126H53.9434V39.7523Z" fill="#B38339"/>
<path d="M9.56927 23.0839H46.4309C46.7441 23.0839 47.0401 22.9412 47.2352 22.6963C47.4303 22.4514 47.5033 22.1309 47.4332 21.8257L45.1597 11.9151C44.7816 10.2681 43.3376 9.11768 41.6483 9.11768H14.3517C12.6623 9.11768 11.2183 10.2681 10.8402 11.9152L8.56683 21.8258C8.49677 22.131 8.56971 22.4514 8.76482 22.6965C8.95994 22.9415 9.2561 23.0839 9.56927 23.0839ZM12.8449 12.3752C13.0073 11.6683 13.6269 11.1744 14.3518 11.1744H41.6484C42.3733 11.1744 42.9929 11.6683 43.1553 12.3751L45.14 21.0274H10.8602L12.8449 12.3752Z" fill="#B38339"/>
<path d="M13.7836 28.9658H5.33353C4.7656 28.9658 4.30518 29.4262 4.30518 29.9942C4.30518 32.8908 6.66189 35.2475 9.55855 35.2475C12.4552 35.2475 14.8119 32.8908 14.8119 29.9942C14.8119 29.4264 14.3515 28.9658 13.7836 28.9658ZM9.55855 33.191C8.15547 33.191 6.96066 32.2825 6.53149 31.0227H12.5856C12.1566 32.2825 10.9616 33.191 9.55855 33.191Z" fill="#B38339"/>
<path d="M50.6666 28.9658H42.2166C41.6487 28.9658 41.1882 29.4261 41.1882 29.9942C41.1882 32.8908 43.5449 35.2475 46.4416 35.2475C49.3383 35.2475 51.695 32.8908 51.695 29.9942C51.695 29.4264 51.2346 28.9658 50.6666 28.9658ZM46.4416 33.191C45.0385 33.191 43.8437 32.2825 43.4145 31.0227H49.4687C49.0396 32.2825 47.8447 33.191 46.4416 33.191Z" fill="#B38339"/>
<path d="M38.5323 32.8276C38.5885 32.8647 38.4775 32.7905 38.5323 32.8276V32.8276Z" fill="#B38339"/>
<path d="M38.5323 32.8276C37.7579 32.3054 36.7239 33.0614 36.9711 33.9554C37.0832 34.3606 37.437 34.6603 37.8552 34.7043C38.3103 34.7523 38.7531 34.4815 38.9193 34.056C39.0923 33.6132 38.9304 33.0901 38.5323 32.8276Z" fill="#B38339"/>
<path d="M35.2314 32.6538H18.0386C17.4707 32.6538 17.0103 33.1142 17.0103 33.6822C17.0103 34.2501 17.4707 34.7105 18.0386 34.7105H35.2314C35.7994 34.7105 36.2598 34.2501 36.2598 33.6822C36.2598 33.1144 35.7994 32.6538 35.2314 32.6538Z" fill="#B38339"/>
<path d="M18.7658 30.7219C19.3322 30.1387 19.0263 29.1275 18.2183 28.9823C17.4387 28.842 16.7784 29.6515 17.0889 30.3873C17.3663 31.0589 18.2507 31.2221 18.7658 30.7219Z" fill="#B38339"/>
<path d="M17.0891 30.3869C17.063 30.325 17.1151 30.4497 17.0891 30.3869V30.3869Z" fill="#B38339"/>
<path d="M37.9617 28.9658H20.7688C20.2009 28.9658 19.7405 29.4262 19.7405 29.9942C19.7405 30.5621 20.2009 31.0225 20.7688 31.0225H37.9617C38.5296 31.0225 38.99 30.5621 38.99 29.9942C38.99 29.4264 38.5296 28.9658 37.9617 28.9658Z" fill="#B38339"/>
</svg>
