<svg width="56" height="56" viewBox="0 0 56 56" fill="none" xmlns="http://www.w3.org/2000/svg">
<path d="M28.0002 0L17.8005 6.46053C16.3496 5.49072 15.3925 3.83909 15.3925 1.96671H13.5914C13.5914 4.94665 11.168 7.37002 8.18807 7.37002V9.17112C9.44702 9.17112 10.6034 9.60704 11.5229 10.3311L0.0830078 17.685V28.8186L5.48632 25.3964V32.5855C5.48632 35.0682 3.46639 37.0883 0.983464 37.0883V38.8894C3.4662 38.8894 5.48632 40.9093 5.48632 43.3923V56H12.6907H27.0996H50.5139V25.3964L55.9172 28.8186V17.6806L28.0002 0ZM14.4918 5.45192C15.1483 6.6344 16.1281 7.6142 17.3106 8.27067C16.1281 8.92713 15.1483 9.90616 14.4918 11.0894C14.1307 10.4383 13.6642 9.85756 13.1266 9.3496L13.1042 9.31444L13.0942 9.32078C12.6638 8.9181 12.1918 8.55884 11.6731 8.27067C12.8556 7.6142 13.8352 6.63517 14.4918 5.45192ZM4.22814 37.989C5.11073 37.4568 5.85461 36.7129 6.38678 35.8303C6.91894 36.7129 7.66282 37.4576 8.54541 37.989C7.66282 38.5211 6.91894 39.265 6.38678 40.1476C5.85461 39.265 5.11073 38.5211 4.22814 37.989ZM25.2985 54.1989H14.4918V54.1987V30.7846H25.2985V54.1989ZM48.7128 54.1987H27.0996V28.9833H12.6907V54.1987H7.28742V43.3921C7.28742 40.9093 9.30735 38.8892 11.7903 38.8892V37.0881C9.30754 37.0881 7.28742 35.0682 7.28742 32.5853V24.256L28 11.1376L33.8058 14.8146C32.3325 16.3292 30.2757 17.2758 28 17.2758V19.0773C32.4685 19.0773 36.1051 22.7127 36.1051 27.1823H37.9062C37.9062 24.124 39.6101 21.4576 42.1172 20.0778L48.7128 24.2554V54.1987V54.1987ZM37.0057 13.2967C37.9955 15.449 39.7344 17.187 41.8849 18.1768C39.7336 19.1666 37.9955 20.9045 37.0057 23.057C36.0159 20.9047 34.2771 19.1666 32.1265 18.1768C34.2771 17.187 36.0157 15.449 37.0057 13.2967ZM54.1161 25.5459L44.2261 19.2817C44.8015 19.152 45.3969 19.0773 46.0111 19.0773V17.2762C41.5426 17.2762 37.906 13.6407 37.906 9.17112H36.1049C36.1049 10.7146 35.6636 12.1537 34.9116 13.3829L27.9998 9.00532L1.88411 25.5459V18.6685L12.7466 11.6856C13.2788 12.5222 13.5914 13.5118 13.5914 14.5744H15.3925C15.3925 11.5945 17.8159 9.17112 20.7958 9.17112V7.37002C20.4778 7.37002 20.1682 7.33678 19.8656 7.28453L28.0002 2.13251L54.1163 18.6729V25.5459H54.1161Z" fill="#B38339"/>
<path d="M30.7017 39.79H44.21V28.9834H30.7017V39.79V39.79ZM32.5028 30.7845H42.4089V37.9889H32.5028V30.7845V30.7845Z" fill="#B38339"/>
<path d="M23.4974 42.4917H21.6963V44.2928H23.4974V42.4917Z" fill="#B38339"/>
<path d="M40.608 32.5857H38.8069V34.3868H40.608V32.5857Z" fill="#B38339"/>
<path d="M46.9117 50.5964H45.1106V52.3975H46.9117V50.5964Z" fill="#B38339"/>
<path d="M43.3094 50.5964H41.5083V52.3975H43.3094V50.5964Z" fill="#B38339"/>
<path d="M39.7074 50.5964H37.9062V52.3975H39.7074V50.5964Z" fill="#B38339"/>
</svg>
