<svg width="56" height="56" viewBox="0 0 56 56" fill="none" xmlns="http://www.w3.org/2000/svg">
<path d="M28 14.3936C31.0188 14.3936 33.4688 11.9436 33.4688 8.9248C33.4688 5.90605 31.0188 3.45605 28 3.45605C24.9813 3.45605 22.5312 5.90605 22.5312 8.9248C22.5312 11.9217 24.9813 14.3936 28 14.3936ZM28 5.6873C29.7719 5.6873 31.2375 7.13105 31.2375 8.9248C31.2375 10.6967 29.7938 12.1623 28 12.1623C26.2281 12.1623 24.7625 10.7186 24.7625 8.9248C24.7844 7.13105 26.2281 5.6873 28 5.6873Z" fill="#B38339"/>
<path d="M16.1001 35.6341C15.6407 35.7435 15.2907 36.1591 15.2689 36.6403L14.4376 49.4372C14.4157 49.9403 14.0001 50.3122 13.497 50.3122H7.15323C6.6501 50.3122 6.23447 49.9185 6.2126 49.4372L5.35947 36.6622C5.3376 36.2028 5.00947 35.8091 4.57197 35.6778C4.33135 35.6122 3.63135 35.3935 3.52197 35.2622C3.43447 35.131 3.39072 34.4091 3.36885 34.0372L2.60322 20.4966C3.69697 20.1685 5.49072 19.5997 6.43135 19.2935L9.55948 22.2247C9.99698 22.6185 10.6532 22.6185 11.0907 22.2247L14.2189 19.2935C14.5251 19.381 14.897 19.5122 15.3126 19.6435C15.9032 19.8403 16.5376 19.5122 16.7126 18.9216C16.9095 18.331 16.5814 17.6966 15.9907 17.5216C15.0501 17.2153 14.2845 16.9747 14.2845 16.9747C13.8907 16.8435 13.4751 16.9528 13.1689 17.2153L10.3251 19.8841L7.48135 17.2153C7.1751 16.931 6.75947 16.8435 6.36572 16.9747C6.36572 16.9747 3.36885 17.9372 1.85947 18.3966C0.918848 18.681 0.350098 19.4247 0.350098 20.4091C0.350098 20.4747 0.350098 20.6497 0.350098 20.6497L1.09385 33.9935C1.09385 33.9935 1.09385 34.1903 1.11572 34.2341C1.24697 36.2028 1.53135 36.9247 3.17197 37.5591L3.95947 49.5903C4.06885 51.2528 5.46885 52.5653 7.13135 52.5653H13.4751C15.1376 52.5653 16.5376 51.2528 16.647 49.5903L17.4564 37.1216C17.5439 36.9028 17.5439 36.6403 17.4782 36.3997C17.3251 35.8091 16.6907 35.481 16.1001 35.6341Z" fill="#B38339"/>
<path d="M10.3032 15.1592C13.322 15.1592 15.772 12.7092 15.772 9.69043C15.772 6.67168 13.322 4.22168 10.3032 4.22168C7.28447 4.22168 4.83447 6.67168 4.83447 9.69043C4.83447 12.7092 7.30635 15.1592 10.3032 15.1592ZM10.3032 6.47481C12.0751 6.47481 13.5407 7.91856 13.5407 9.71231C13.5407 11.5061 12.097 12.9498 10.3032 12.9498C8.53135 12.9498 7.06572 11.5061 7.06572 9.71231C7.06572 7.91856 8.53135 6.47481 10.3032 6.47481Z" fill="#B38339"/>
<path d="M36.4658 18.3531C34.9564 17.8937 31.9595 16.9312 31.9595 16.9312C31.5658 16.8 31.1502 16.9094 30.8439 17.1719L28.0002 19.8406L25.1564 17.1719C24.8502 16.8875 24.4345 16.8 24.0408 16.9312C24.0408 16.9312 21.0439 17.8937 19.5345 18.3531C18.572 18.6375 18.0251 19.3812 18.0251 20.3656L18.7689 33.9937L18.7908 34.2125C18.922 36.1812 19.2064 36.925 20.847 37.5375L21.6345 49.5687C21.7439 51.2312 23.1439 52.5437 24.8064 52.5437H31.172C32.8345 52.5437 34.2345 51.2312 34.3439 49.5687L35.1314 37.5375C36.772 36.9031 37.0564 36.1594 37.1877 34.2125L37.9533 20.5625V20.3656C37.9752 19.3594 37.4283 18.6375 36.4658 18.3531ZM34.9783 33.8188L34.9564 34.0375C34.9345 34.3875 34.8908 35.0875 34.8033 35.2187C34.6939 35.35 33.972 35.5687 33.7314 35.6344C33.2939 35.7656 32.9658 36.1594 32.9439 36.6406L32.1127 49.4156C32.0908 49.9187 31.6752 50.2906 31.172 50.2906H24.8064C24.3033 50.2906 23.9095 49.8969 23.8658 49.4156L23.0345 36.6406C23.0127 36.1812 22.6845 35.7875 22.247 35.6344C22.0064 35.5687 21.3064 35.35 21.197 35.2187C21.1095 35.0875 21.0658 34.3656 21.0439 34.0375L20.2783 20.4969V20.4312C21.372 20.1031 23.1658 19.5344 24.1064 19.2281L27.2345 22.1594C27.672 22.5531 28.3283 22.5531 28.7658 22.1594L31.8939 19.25C32.8345 19.5562 34.6283 20.125 35.722 20.4531L34.9783 33.8188Z" fill="#B38339"/>
<path d="M54.1626 18.3531C52.6533 17.8937 49.6564 16.9312 49.6564 16.9312C49.2626 16.8 48.847 16.9094 48.5408 17.1719L45.697 19.8406L42.8533 17.1719C42.547 16.8875 42.1314 16.8 41.7376 16.9312C41.7376 16.9312 40.972 17.1719 40.0314 17.4781C39.4408 17.675 39.1126 18.2875 39.3095 18.8781C39.5064 19.4687 40.1189 19.7969 40.7095 19.6C41.1251 19.4687 41.497 19.3375 41.8033 19.25L44.9314 22.1812C45.3689 22.575 46.0251 22.575 46.4626 22.1812L49.5908 19.25C50.5314 19.5562 52.3033 20.1031 53.4189 20.4531L52.6751 33.8188L52.6533 34.0375C52.6314 34.3875 52.5876 35.0875 52.5001 35.2187C52.3908 35.35 51.6689 35.5687 51.4283 35.6344C50.9908 35.7656 50.6626 36.1594 50.6408 36.6406L49.8095 49.4156C49.7658 49.9187 49.3501 50.2906 48.8689 50.2906H42.5033C42.022 50.2906 41.6064 49.8969 41.5626 49.4156L40.7095 36.6406C40.6876 36.1812 40.3158 35.7875 39.8783 35.6344C39.2876 35.4375 38.697 35.7656 38.5001 36.3562C38.4345 36.575 38.4345 36.8156 38.5001 37.0125L39.3314 49.5687C39.4408 51.2312 40.8189 52.5437 42.5033 52.5437H48.8689C50.5314 52.5437 51.9314 51.2312 52.0408 49.5687L52.8283 37.5375C54.4689 36.9031 54.7533 36.1812 54.8845 34.2344C54.8845 34.1469 54.9064 33.95 54.9064 33.95L55.6501 20.5406V20.3437C55.6501 19.3812 55.1033 18.6375 54.1626 18.3531Z" fill="#B38339"/>
<path d="M45.697 15.1592C48.7158 15.1592 51.1658 12.7092 51.1658 9.69043C51.1658 6.67168 48.7158 4.22168 45.697 4.22168C42.6783 4.22168 40.2283 6.67168 40.2283 9.69043C40.2283 12.7092 42.6783 15.1592 45.697 15.1592ZM45.697 6.47481C47.4689 6.47481 48.9345 7.91856 48.9345 9.71231C48.9345 11.5061 47.4908 12.9498 45.697 12.9498C43.9251 12.9498 42.4595 11.5061 42.4595 9.71231C42.4595 7.91856 43.9033 6.47481 45.697 6.47481Z" fill="#B38339"/>
</svg>
