<svg width="56" height="56" viewBox="0 0 56 56" fill="none" xmlns="http://www.w3.org/2000/svg">
<path d="M28.9333 31.7334C25.6358 31.7334 23.3333 34.036 23.3333 37.3334V38.2667C23.3333 42.8027 25.8981 45.7334 29.8666 45.7334C33.8351 45.7334 36.3998 42.8027 36.3998 38.2667V37.3334C36.3998 34.036 34.0964 31.7334 30.7998 31.7334H28.9333ZM34.5333 37.3334V38.2667C34.5333 39.9504 34.0778 43.8667 29.8666 43.8667C25.6544 43.8667 25.1998 39.9504 25.1998 38.2667V37.3334C25.1998 35.0654 26.6651 33.6001 28.9331 33.6001H30.8C33.067 33.6001 34.5333 35.0654 34.5333 37.3334Z" fill="#B38339"/>
<path d="M28.0281 37.3335H28.0178C27.5035 37.3335 27.0901 37.7516 27.0901 38.2668C27.0901 38.7819 27.5119 39.2001 28.0281 39.2001C28.5432 39.2001 28.9614 38.7819 28.9614 38.2668C28.9614 37.7516 28.5432 37.3335 28.0281 37.3335Z" fill="#B38339"/>
<path d="M32.5948 25.1973C33.1147 25.2308 33.558 24.852 33.5973 24.3386L34.5297 12.2201C34.7368 9.99883 37.7227 7.46669 40.1334 7.46669H42C44.4566 7.46669 47.4413 9.98855 47.6028 12.2053L48.5361 24.3386C48.5734 24.8276 48.9823 25.2 49.4657 25.2C49.489 25.2 49.5143 25.1991 49.5386 25.1971C50.0519 25.158 50.4364 24.709 50.3973 24.1947L49.464 12.0651C49.2147 8.64466 45.0819 5.6001 42 5.6001H40.1333C36.736 5.6001 32.97 8.85368 32.6694 12.0615L31.7361 24.1948C31.697 24.7091 32.0814 25.1581 32.5948 25.1973Z" fill="#B38339"/>
<path d="M41.0182 11.8386C40.8913 11.4569 40.5348 11.2002 40.1334 11.2002C39.7311 11.2002 39.3745 11.4569 39.2477 11.8386C38.5467 13.9433 36.4812 13.9993 36.4001 14.0002C35.884 14.0002 35.4668 14.4183 35.4668 14.9335V18.6668C35.4668 21.7841 37.5967 26.1335 41.0668 26.1335C44.536 26.1335 46.6668 21.7842 46.6668 18.6668V14.9335C46.6668 14.4183 46.2487 14.0002 45.7335 14.0002C45.6933 14.0002 41.7201 13.9414 41.0182 11.8386ZM44.8001 18.6669C44.8001 21.2037 43.1351 24.2669 41.0668 24.2669C38.9985 24.2669 37.3335 21.2037 37.3335 18.6669V15.753C38.2472 15.5459 39.3756 15.025 40.2045 13.9648C41.5112 15.2723 43.5972 15.6812 44.8002 15.809V18.6669H44.8001Z" fill="#B38339"/>
<path d="M18.6667 13.0668H19.6C20.1151 13.0668 20.5333 12.6487 20.5333 12.1335C20.5333 11.6183 20.1151 11.2002 19.6 11.2002H18.6667C18.1506 11.2002 17.7334 11.6183 17.7334 12.1335C17.7333 12.6487 18.1506 13.0668 18.6667 13.0668Z" fill="#B38339"/>
<path d="M31.7612 39.2001C32.2764 39.2001 32.6945 38.7819 32.6945 38.2668C32.6945 37.7516 32.2764 37.3335 31.7612 37.3335H31.751C31.2367 37.3335 30.8232 37.7516 30.8232 38.2668C30.8232 38.7819 31.2451 39.2001 31.7612 39.2001Z" fill="#B38339"/>
<path d="M9.36875 14.7028C9.54703 16.4967 10.3273 18.0758 10.3646 18.1506C11.2102 19.8427 12.4898 22.4 16.7999 22.4C21.11 22.4 22.3887 19.8427 23.2343 18.1506C23.2716 18.0758 24.0519 16.4967 24.2312 14.7028C24.808 14.3855 25.2 13.7704 25.2 13.0667V11.2C25.2 10.5103 24.8239 9.90729 24.2667 9.58441V9.3334C24.2667 6.24498 21.7542 3.7334 18.6667 3.7334H14.9334C11.845 3.7334 9.33342 6.24498 9.33342 9.3334V9.58441C8.77506 9.90729 8.3999 10.5103 8.3999 11.2V13.0667C8.3999 13.7704 8.7919 14.3854 9.36875 14.7028ZM10.2666 11.2C10.7818 11.2 11.1999 10.7818 11.1999 10.2667V9.3334C11.1999 7.27441 12.8743 5.6001 14.9332 5.6001H18.6665C20.7255 5.6001 22.3998 7.27452 22.3998 9.3334V10.2667C22.3998 10.7818 22.8169 11.2 23.3331 11.2V13.0667C22.8169 13.0667 22.3998 13.4848 22.3998 14C22.3998 15.6147 21.5729 17.3003 21.5645 17.3161C20.5929 19.2593 19.7361 20.5333 16.7998 20.5333C13.8626 20.5333 13.0058 19.2593 12.0351 17.317C12.0258 17.3002 11.1998 15.6146 11.1998 14C11.1998 13.4848 10.7817 13.0667 10.2665 13.0667V11.2H10.2666Z" fill="#B38339"/>
<path d="M32.6667 46.6666C32.4819 46.6666 32.3018 46.7216 32.1487 46.8235L29.8667 48.3448L27.5838 46.8233C27.4307 46.7216 27.2506 46.6665 27.0667 46.6665C21.6674 46.6665 20.5334 49.2042 20.5334 51.3332C20.5334 51.8484 20.9506 52.2665 21.4667 52.2665C21.9819 52.2665 22.4 51.8484 22.4 51.3332C22.4 50.5828 22.4 48.6153 26.7876 48.5351L29.3486 50.2431C29.6622 50.4521 30.0701 50.4521 30.3837 50.2431L32.9457 48.5351C37.3332 48.6153 37.3332 50.5828 37.3332 51.3332C37.3332 51.8484 37.7504 52.2665 38.2665 52.2665C38.7817 52.2665 39.1998 51.8484 39.1998 51.3332C39.2 49.2043 38.066 46.6666 32.6667 46.6666Z" fill="#B38339"/>
<path d="M49.5283 35.4668H49.5246C49.0103 35.4668 48.5932 35.8821 48.5913 36.3964L48.5335 51.3297C48.5316 51.8448 48.9469 52.2648 49.463 52.2668H49.4667C49.981 52.2668 50.3982 51.8515 50.4 51.3372L50.4579 36.4039C50.4598 35.8887 50.0445 35.4687 49.5283 35.4668Z" fill="#B38339"/>
<path d="M13.9999 13.0668H14.9332C15.4484 13.0668 15.8665 12.6487 15.8665 12.1335C15.8665 11.6183 15.4484 11.2002 14.9332 11.2002H13.9999C13.4838 11.2002 13.0667 11.6183 13.0667 12.1335C13.0667 12.6487 13.4838 13.0668 13.9999 13.0668Z" fill="#B38339"/>
<path d="M21.4479 30.0507L22.2291 26.1531C26.9415 26.2595 30.3332 27.4337 31.3729 29.3433C31.6184 29.796 32.1831 29.963 32.6385 29.7166C33.0912 29.4701 33.2582 28.9036 33.0118 28.451C31.5474 25.7593 27.4687 24.279 21.5262 24.279C21.0624 24.2706 20.6432 24.573 20.5509 25.0284L19.6176 29.683C19.5168 30.1888 19.8435 30.6807 20.3494 30.7815C20.4119 30.7946 20.4725 30.8002 20.5342 30.8002C20.9701 30.8001 21.3583 30.494 21.4479 30.0507Z" fill="#B38339"/>
<path d="M53.7114 28.9342C51.8821 27.1087 49.1334 26.1445 45.7613 26.1445C45.2218 26.1548 44.8027 26.5524 44.8 27.0751C44.799 27.2655 44.7337 31.7334 41.0667 31.7334C37.3987 31.7334 37.3343 27.2664 37.3334 27.0761C37.3324 26.5618 36.9144 26.1455 36.4001 26.1455C35.884 26.1455 35.4668 26.5627 35.4668 27.0788C35.4668 29.1658 36.4748 32.9672 40.1335 33.5244V38.2667C40.1335 38.7818 40.5507 39.2 41.0668 39.2C41.582 39.2 42.0001 38.7818 42.0001 38.2667V33.5234C45.1501 33.0427 46.3364 30.1606 46.6033 28.0344C49.0794 28.1734 51.0683 28.9333 52.3918 30.2557C53.5155 31.3767 54.1334 32.8952 54.1334 34.5332V49.4665C54.1334 49.9816 54.5505 50.3997 55.0667 50.3997C55.5818 50.3997 56 49.9816 56 49.4665V34.5333C56 32.396 55.1871 30.408 53.7114 28.9342Z" fill="#B38339"/>
<path d="M16.8001 24.2666C15.7706 24.2666 14.9333 25.1038 14.9333 26.1333C14.9333 26.8212 15.3113 27.4166 15.8666 27.7405V34.5333C15.8666 35.0485 16.2838 35.4666 16.7999 35.4666C17.3151 35.4666 17.7332 35.0485 17.7332 34.5333V27.7405C18.2877 27.4166 18.6665 26.8212 18.6665 26.1333C18.6668 25.1038 17.8286 24.2666 16.8001 24.2666Z" fill="#B38339"/>
<path d="M6.53339 35.4668C6.01725 35.4668 5.6001 35.8849 5.6001 36.4001V51.3334C5.6001 51.8486 6.01725 52.2667 6.53339 52.2667C7.04855 52.2667 7.46669 51.8486 7.46669 51.3334V36.4001C7.4668 35.8849 7.04866 35.4668 6.53339 35.4668Z" fill="#B38339"/>
<path d="M13.0461 25.0218C12.9528 24.5682 12.5132 24.2798 12.0699 24.2788C7.16701 24.2788 3.41687 25.3288 1.50456 27.2365C0.506844 28.2334 0 29.4328 0 30.8001V49.4668C0 49.9819 0.417156 50.4001 0.933297 50.4001C1.44845 50.4001 1.86659 49.9819 1.86659 49.4668V30.8001C1.86659 29.9339 2.18017 29.2004 2.8233 28.5572C4.27744 27.1059 7.37045 26.2425 11.3754 26.1529L15.8863 47.7904C15.9908 48.2944 16.4873 48.6182 16.9904 48.5137C17.4954 48.4082 17.8193 47.9135 17.7128 47.4095L13.0461 25.0218Z" fill="#B38339"/>
</svg>
