<svg width="56" height="56" viewBox="0 0 56 56" fill="none" xmlns="http://www.w3.org/2000/svg">
<path d="M33.0838 45.8312C32.6236 45.6017 32.0702 45.7948 31.8406 46.2559C31.6978 46.5406 31.7174 46.8654 31.862 47.1268C31.7033 47.3975 31.6847 47.7409 31.8425 48.0387C32.0105 48.3541 32.3334 48.5334 32.6675 48.5334C32.8149 48.5334 32.9652 48.4979 33.1052 48.4242C33.8939 48.0042 34.0059 47.4321 34.0022 47.1288C33.9938 46.507 33.5225 46.0506 33.0838 45.8312Z" fill="#B38339"/>
<path d="M31.3069 17.3088C31.6587 17.5953 31.7343 17.7633 31.7334 17.739C31.7287 18.1049 31.3367 18.6723 31.04 18.9757L29.8173 20.3337C29.4729 20.7164 29.5037 21.3063 29.8863 21.6516C30.0646 21.8122 30.2886 21.8915 30.5107 21.8915C30.7664 21.8915 31.0203 21.7869 31.2051 21.5825L32.3933 20.2599C32.5164 20.1368 33.6001 19.0168 33.6001 17.7333C33.6001 17.0856 33.2361 16.4733 32.4876 15.8629C32.0881 15.5372 31.5001 15.5969 31.1744 15.9955C30.8486 16.395 30.9083 16.983 31.3069 17.3088Z" fill="#B38339"/>
<path d="M22.7585 40.1979C21.743 39.1133 20.5333 37.4128 20.5333 35.4669C20.5333 34.3049 20.9683 33.0971 21.8269 31.8763C22.1238 31.4544 22.0219 30.873 21.6011 30.5762C21.1792 30.2793 20.5968 30.3802 20.3 30.802C19.2165 32.3439 18.6667 33.9129 18.6667 35.4669C18.6667 38.0223 20.1507 40.1439 21.3958 41.4739C21.5796 41.6699 21.8288 41.7687 22.0771 41.7687C22.3058 41.7687 22.5353 41.6857 22.7155 41.5167C23.0916 41.1649 23.1112 40.574 22.7585 40.1979Z" fill="#B38339"/>
<path d="M12.7717 21.5145C10.0007 22.4393 8.40744 22.2676 7.29302 20.9227L6.38772 19.4733L10.3441 19.1447C10.8574 19.1027 11.2392 18.651 11.1972 18.1377C11.1542 17.6244 10.7043 17.2407 10.1892 17.2847L5.27417 17.6926L3.97698 15.6167L10.4328 14.4519C10.9397 14.3605 11.2766 13.8751 11.1851 13.3673C11.0937 12.8605 10.612 12.5218 10.1006 12.6151L2.912 13.9124L2.67958 13.5418C2.07572 12.4704 1.86659 12.0568 1.86659 11.2001C1.86659 10.8604 2.36031 10.4534 3.02203 10.2415L23.5003 6.5185C24.0072 6.42608 24.344 5.93979 24.2516 5.43306C24.1592 4.92633 23.6748 4.5912 23.1662 4.68176L2.63298 8.41517C2.59842 8.42173 2.56484 8.43015 2.53028 8.43945C0.993016 8.90418 0 9.98689 0 11.2002C0 12.5265 0.380844 13.2656 1.07516 14.4949L5.74186 21.9616C5.76144 21.9933 5.78287 22.0241 5.80628 22.0521C6.9673 23.4923 8.40656 23.9646 9.86727 23.9646C11.0647 23.9646 12.2771 23.6473 13.3617 23.286C13.8507 23.1227 14.1158 22.5944 13.9525 22.1053C13.789 21.6172 13.2627 21.3502 12.7717 21.5145Z" fill="#B38339"/>
<path d="M35.8838 8.49799C35.1931 8.15269 34.0414 7.90255 32.7245 7.81297C32.2215 7.78497 31.7651 8.16582 31.7295 8.67999C31.6941 9.19427 32.0824 9.63943 32.5966 9.67497C33.7707 9.75526 34.6741 9.98013 35.0494 10.1687C36.5913 10.9387 39.2 13.3999 39.2 17.7334C39.2 21.8867 34.7638 25.4997 34.719 25.5361C34.3177 25.8591 34.2523 26.4461 34.5743 26.8474C34.7591 27.078 35.0297 27.1974 35.3033 27.1974C35.5077 27.1974 35.714 27.1302 35.8857 26.993C36.0967 26.824 41.0667 22.7901 41.0667 17.7334C41.0667 12.489 37.8093 9.46115 35.8838 8.49799Z" fill="#B38339"/>
<path d="M53.4696 8.43906C53.4351 8.42976 53.4015 8.42134 53.3669 8.41478L32.8336 4.68148C32.324 4.5919 31.8406 4.92692 31.7482 5.43278C31.6557 5.93962 31.9927 6.42579 32.4995 6.51821L52.9778 10.2412C53.6395 10.4531 54.1332 10.8601 54.1332 11.1998C54.1332 12.0566 53.9242 12.4701 53.3418 13.5051L53.0869 13.9121L45.8993 12.6148C45.3898 12.5215 44.9063 12.8602 44.8148 13.3671C44.7233 13.8748 45.0602 14.3601 45.5671 14.4516L52.022 15.6165L50.7256 17.6922L45.8106 17.2843C45.2973 17.2405 44.8456 17.624 44.8026 18.1373C44.7606 18.6506 45.1424 19.1024 45.6556 19.1444L49.6121 19.4719L48.7068 20.9224C47.5933 22.2673 46.0011 22.4391 43.2281 21.5141C42.7371 21.3498 42.2108 21.6168 42.0474 22.1049C41.8841 22.5939 42.1491 23.1222 42.6382 23.2856C43.7228 23.6468 44.9352 23.9642 46.1326 23.9642C47.5933 23.9642 49.0325 23.4919 50.1935 22.0518C50.2168 22.0238 50.2384 21.9929 50.2579 21.9612L54.9461 14.4582C55.6191 13.2653 55.9998 12.5262 55.9998 11.1999C55.9999 9.9866 55.0069 8.9039 53.4696 8.43906Z" fill="#B38339"/>
<path d="M25.703 33.9053C25.2252 33.7103 24.681 33.9407 24.4869 34.4177C24.3403 34.777 24.2666 35.1299 24.2666 35.4667C24.2666 35.9913 24.4458 36.5466 24.7995 37.1197C24.9759 37.4053 25.2811 37.563 25.5946 37.563C25.7616 37.563 25.9316 37.5182 26.0836 37.424C26.5223 37.1524 26.6586 36.5774 26.3879 36.1388C26.1668 35.7804 26.1331 35.5639 26.1331 35.4668C26.1331 35.3735 26.1621 35.254 26.2152 35.1206C26.4096 34.6436 26.18 34.0994 25.703 33.9053Z" fill="#B38339"/>
<path d="M25.228 13.0668C25.7442 13.0668 26.1613 12.6486 26.1613 12.1335C26.1613 11.6183 25.7442 11.2002 25.228 11.2002H25.2187C24.7036 11.2002 24.29 11.6183 24.29 12.1335C24.29 12.6486 24.7129 13.0668 25.228 13.0668Z" fill="#B38339"/>
<path d="M28.9332 22.947V15.3758C29.9552 14.7868 30.7999 13.8545 30.7999 12.1334C30.7999 10.7184 30.1372 9.60313 28.9332 8.8527V5.42828C30.0178 5.04098 30.7999 4.01516 30.7999 2.8C30.7999 1.25628 29.5437 0 27.9999 0C26.4562 0 25.1999 1.25628 25.1999 2.8C25.1999 4.01516 25.9821 5.04098 27.0666 5.4273V8.08916C26.2472 7.88386 25.3073 7.77558 24.2573 7.77558C22.6203 7.77558 20.9953 8.0593 20.1162 8.498C18.1908 9.46116 14.9333 12.489 14.9333 17.7333C14.9333 22.7901 19.7456 26.698 19.9501 26.8623L27.0668 32.5547V39.2383L24.5402 42.2734C24.4525 42.3612 22.4001 44.45 22.4001 47.6C22.4001 50.9768 24.7558 52.1547 26.6495 53.102L26.8315 53.1926C26.9099 53.2317 26.9883 53.271 27.0666 53.3101V55.0667C27.0666 55.5819 27.4848 56 27.9999 56C28.5151 56 28.9332 55.5819 28.9332 55.0667V54.1633C29.5707 54.4068 30.1848 54.5721 30.7421 54.5721C31.6698 54.5721 32.1981 54.1325 32.4772 53.7638C33.6168 52.2611 32.3419 50.4981 31.3601 49.6534L28.4872 47.4993L34.2011 41.7817C34.3281 41.6734 37.3334 39.1067 37.3334 35.4667C37.3334 31.3937 34.3859 28.3986 34.2599 28.2735L28.9332 22.947ZM27.9999 1.8667C28.5142 1.8667 28.9332 2.28572 28.9332 2.8C28.9332 3.31428 28.5142 3.7333 27.9999 3.7333C27.4857 3.7333 27.0666 3.31428 27.0666 2.8C27.0666 2.28572 27.4857 1.8667 27.9999 1.8667ZM32.9401 40.4068L26.4068 46.9401C26.2155 47.1314 26.1165 47.3966 26.1352 47.6663C26.1548 47.936 26.2902 48.1843 26.5066 48.3467L30.1905 51.1066C30.5275 51.3977 31.2601 52.2797 30.9895 52.6363C30.9726 52.6587 30.9372 52.7053 30.7422 52.7053C30.0263 52.7053 28.7738 52.0772 27.6678 51.5237L27.4839 51.4313C25.4893 50.4345 24.2668 49.7159 24.2668 47.6C24.2668 45.2424 25.8469 43.6072 25.9169 43.5307L30.5266 37.9933C30.6498 37.8701 31.7335 36.7501 31.7335 35.4667C31.7335 34.1833 30.6499 33.0634 30.5266 32.9401C30.5023 32.9159 30.4762 32.8926 30.4501 32.8711L21.1168 25.4054C21.0748 25.3708 16.8001 21.8858 16.8001 17.7334C16.8001 13.4 19.4088 10.9387 20.9506 10.1687C21.4742 9.90642 22.7781 9.64228 24.2575 9.64228C25.355 9.64228 28.9335 9.82144 28.9335 12.1333C28.9335 13.4316 28.2064 13.803 26.4219 14.3976C25.8749 14.5806 25.3084 14.769 24.783 15.0313C24.2239 15.3113 22.4002 16.3324 22.4002 17.7333C22.4002 19.0166 23.4837 20.1366 23.607 20.2599L27.3002 23.953C27.3319 23.9894 27.3627 24.0212 27.3991 24.0529L32.9403 29.5932C32.9655 29.6183 35.4669 32.158 35.4669 35.4666C35.4666 38.2256 33.0222 40.3321 32.9401 40.4068ZM28.9332 36.9964V34.048L29.2365 34.2916C29.5016 34.5744 29.8665 35.1157 29.8665 35.4666C29.8665 35.8325 29.4708 36.4046 29.1497 36.7359L28.9332 36.9964ZM27.0666 16.1504V21.0803L24.9293 18.943C24.6624 18.6714 24.2666 18.0993 24.2621 17.7744C24.3339 17.542 25.0059 17.01 25.6172 16.702C26.0251 16.4976 26.5039 16.338 27.0116 16.169C27.0292 16.1626 27.0489 16.156 27.0666 16.1504Z" fill="#B38339"/>
</svg>
