<svg width="56" height="56" viewBox="0 0 56 56" fill="none" xmlns="http://www.w3.org/2000/svg">
<g clip-path="url(#clip0_71_5253)">
<path d="M23.5588 21.939C23.5588 21.4858 23.1916 21.1187 22.7385 21.1187C22.2855 21.1187 21.9182 21.4858 21.9182 21.939V22.8157C21.9182 23.2688 22.2855 23.636 22.7385 23.636C23.1916 23.636 23.5588 23.2688 23.5588 22.8157V21.939Z" fill="#B38339"/>
<path d="M33.2595 21.1187C32.8065 21.1187 32.4392 21.4858 32.4392 21.939V22.8157C32.4392 23.2688 32.8065 23.636 33.2595 23.636C33.7126 23.636 34.0798 23.2688 34.0798 22.8157V21.939C34.0798 21.4858 33.7126 21.1187 33.2595 21.1187Z" fill="#B38339"/>
<path d="M24.4356 19.2324C24.4356 18.7793 24.0683 18.4121 23.6153 18.4121H21.8618C21.4088 18.4121 21.0415 18.7793 21.0415 19.2324C21.0415 19.6855 21.4088 20.0527 21.8618 20.0527H23.6153C24.0683 20.0527 24.4356 19.6853 24.4356 19.2324Z" fill="#B38339"/>
<path d="M32.3828 20.0527H34.1363C34.5893 20.0527 34.9566 19.6855 34.9566 19.2324C34.9566 18.7793 34.5893 18.4121 34.1363 18.4121H32.3828C31.9298 18.4121 31.5625 18.7793 31.5625 19.2324C31.5625 19.6853 31.9298 20.0527 32.3828 20.0527Z" fill="#B38339"/>
<path d="M32.5746 26.8872C32.5746 26.4341 32.2073 26.0669 31.7543 26.0669H24.2441C23.7911 26.0669 23.4238 26.4341 23.4238 26.8872C23.4238 29.1561 25.4764 31.002 27.9992 31.002C30.5221 31.002 32.5746 29.1561 32.5746 26.8872V26.8872ZM25.2302 27.7075H30.7682C30.3659 28.6699 29.2765 29.3614 27.9992 29.3614C26.7219 29.3614 25.6324 28.6699 25.2302 27.7075V27.7075Z" fill="#B38339"/>
<path d="M45.8897 43.7688C45.8541 42.6891 45.1358 41.7035 44.044 41.382L36.527 39.1712L36.1535 38.6732C35.6631 38.0192 34.8029 37.8152 34.0817 38.1531V35.0887C34.8797 34.629 35.6299 34.0767 36.3165 33.4366C38.3812 31.5116 39.7036 28.9616 40.0891 26.19H40.7121C41.5614 26.19 42.3755 25.8287 42.9457 25.1989C43.4208 24.6741 43.695 23.9997 43.7233 23.2967C43.7233 23.2967 43.7243 23.2451 43.7243 23.2202V14.8485C43.7243 9.74573 40.3366 5.41974 35.6924 4.00005C35.1413 1.6649 33.0596 0 30.6294 0H25.3688C22.961 0 20.8579 1.673 20.306 4.00005C15.6616 5.41963 12.2738 9.74562 12.2738 14.8485V23.2202C12.2738 23.2369 12.282 23.4135 12.2892 23.4855C12.441 25.0021 13.8123 26.1901 15.411 26.1901H15.9091C16.2946 28.9617 17.617 31.5119 19.6818 33.4368C20.3689 34.0773 21.1196 34.6299 21.9183 35.0898V38.1531C21.197 37.8152 20.337 38.0192 19.8465 38.6732L19.473 39.1712L11.9558 41.3821C10.8642 41.7034 10.1459 42.689 10.1103 43.7688C7.75193 44.6435 6.13745 46.931 6.13745 49.4712V55.1794C6.13745 55.6324 6.50473 55.9997 6.95776 55.9997C7.41079 55.9997 7.77807 55.6324 7.77807 55.1794V49.4713C7.77807 47.6496 8.91513 46.0056 10.5871 45.3424C11.0621 46.0052 11.8387 46.4258 12.6815 46.4258C12.9265 46.4258 13.1708 46.3906 13.4087 46.3209L18.935 44.6956L20.624 47.6514C20.876 48.0924 21.3075 48.395 21.8079 48.4816C21.9051 48.4984 22.0026 48.5066 22.0995 48.5066C22.5011 48.5066 22.8914 48.3641 23.202 48.0979L24.8866 46.6539L25.0772 47.226C25.2212 47.6577 25.4723 48.0298 25.7936 48.3204L24.5713 55.0327C24.4901 55.4784 24.7856 55.9055 25.2313 55.9868C25.2811 55.9959 25.3304 56.0001 25.3793 56.0001C25.768 56.0001 26.1132 55.7226 26.1854 55.3267L27.3414 48.9789C27.4002 48.983 27.4594 48.9859 27.5191 48.9859H28.4985C28.5586 48.9859 28.6182 48.983 28.6775 48.9788L29.832 55.3265C29.904 55.7226 30.2492 56.0001 30.6381 56.0001C30.6867 56.0001 30.7362 55.9957 30.7858 55.9868C31.2316 55.9057 31.5272 55.4786 31.4461 55.0329L30.2251 48.3193C30.5457 48.0289 30.7964 47.6571 30.9401 47.226L31.127 46.6656L32.7981 48.098C33.1087 48.3643 33.4989 48.5067 33.9006 48.5067C33.9974 48.5067 34.095 48.4984 34.1922 48.4817C34.6926 48.3951 35.1242 48.0924 35.3761 47.6515L37.0651 44.6957L42.5924 46.3213C42.8294 46.3907 43.0738 46.4259 43.3188 46.4259C44.1615 46.4259 44.9382 46.0052 45.4131 45.3425C47.0851 46.0057 48.2222 47.6496 48.2222 49.4714V55.1796C48.2222 55.6326 48.5895 55.9999 49.0426 55.9999C49.4956 55.9999 49.8629 55.6326 49.8629 55.1796V49.4713C49.8625 46.931 48.2481 44.6435 45.8897 43.7688V43.7688ZM25.3688 1.64062H30.6294C32.007 1.64062 33.2207 2.42156 33.8121 3.5969C33.3439 3.53773 32.8669 3.5071 32.3829 3.5071H23.6153C23.132 3.5071 22.6557 3.53762 22.1881 3.59668C22.7833 2.42429 24.0048 1.64062 25.3688 1.64062V1.64062ZM17.4634 25.3072C17.4308 24.8797 17.0744 24.5494 16.6455 24.5494H15.411C14.6448 24.5494 13.9906 24.0103 13.9218 23.3221C13.8822 22.9267 14.0054 22.5488 14.2686 22.2579C14.5284 21.9708 14.8992 21.8062 15.286 21.8062C15.5004 21.8062 20.4607 21.7062 24.112 13.1636L25.6788 13.4993C26.1218 13.5942 26.5578 13.312 26.6528 12.869C26.7477 12.426 26.4655 11.99 26.0226 11.8951L23.7923 11.4172C21.5842 10.9267 21.0908 9.18661 21.0728 9.11989C20.9629 8.68031 20.5172 8.41311 20.078 8.52303C19.6385 8.63295 19.3713 9.07833 19.4812 9.51779C19.5065 9.61929 20.0746 11.7721 22.5093 12.7349C20.8941 16.4195 19.0791 18.2389 17.8028 19.1241C16.3564 20.1272 15.2867 20.1652 15.2861 20.1654C14.805 20.1654 14.3352 20.2816 13.9145 20.4967V14.8484C13.9145 9.49931 18.2663 5.14762 23.6153 5.14762H32.3829C37.732 5.14762 42.0837 9.49942 42.0837 14.8484V20.5359C41.6356 20.3003 41.1245 20.1656 40.5873 20.1654L40.1414 20.1653C39.4891 20.1651 38.8898 19.8024 38.5385 19.1949C36.6007 15.845 33.3185 13.4585 29.5334 12.6474C29.0906 12.5524 28.6543 12.8347 28.5594 13.2777C28.4645 13.7206 28.7466 14.1567 29.1896 14.2516C32.5223 14.9658 35.4122 17.067 37.1183 20.0165C37.7565 21.1198 38.9147 21.8055 40.1408 21.8059L40.5867 21.8061C41.3534 21.8063 42.0078 22.3457 42.0764 23.0339C42.0813 23.0831 42.0836 23.132 42.0835 23.1806V23.1817C42.0825 23.5225 41.9594 23.8434 41.7292 24.0977C41.4694 24.3847 41.0987 24.5493 40.7119 24.5493H39.3525C38.9236 24.5493 38.5672 24.8796 38.5345 25.3071C38.3321 27.9581 37.1471 30.419 35.1975 32.2366C33.2374 34.064 30.6808 35.0704 27.9988 35.0704C25.3169 35.0704 22.7603 34.0639 20.8002 32.2366C18.851 30.4191 17.6658 27.9582 17.4634 25.3072V25.3072ZM27.9992 36.7112C29.5377 36.7112 31.0406 36.4241 32.4411 35.877V39.162L27.9999 41.9376L23.5589 39.162V35.8777C24.959 36.4243 26.4611 36.7112 27.9992 36.7112V36.7112ZM12.9467 44.7467C12.8596 44.7721 12.7704 44.7852 12.6815 44.7852C12.2709 44.7852 11.903 44.5094 11.7869 44.115C11.7869 44.1149 11.7869 44.1148 11.7869 44.1147C11.6418 43.6211 11.9256 43.1012 12.419 42.956L18.0212 41.3083C17.8037 41.9292 17.8304 42.6172 18.1099 43.2281L12.9467 44.7467ZM22.1343 46.8522C22.1283 46.8574 22.1143 46.8696 22.0879 46.8649C22.0617 46.8604 22.0525 46.8442 22.0485 46.8374L19.6394 42.6215C19.4547 42.2981 19.4796 41.8966 19.7032 41.5985L21.159 39.6574C21.1701 39.6427 21.1869 39.6347 21.204 39.6347C21.2143 39.6347 21.2247 39.6375 21.234 39.6434L26.6184 43.0087L22.1343 46.8522ZM29.3836 46.7071C29.31 46.9281 29.1583 47.1049 28.9668 47.2164C28.9436 47.2277 28.9212 47.24 28.8994 47.2532C28.7767 47.3117 28.6408 47.3452 28.4984 47.3452H27.519C27.1167 47.3452 26.7608 47.0887 26.6336 46.7071L26.2316 45.501L27.9999 43.9853L29.7818 45.5125L29.3836 46.7071ZM33.9515 46.8374C33.9475 46.8442 33.9382 46.8604 33.9121 46.8649C33.8858 46.8696 33.8717 46.8574 33.8657 46.8522L29.3816 43.0087L34.766 39.6434C34.7911 39.6277 34.8233 39.6338 34.8411 39.6574L36.2969 41.5985C36.5203 41.8966 36.5454 42.2981 36.3607 42.6215L33.9515 46.8374ZM43.3185 44.7852C43.2297 44.7852 43.1405 44.7722 43.0542 44.7469L37.89 43.2281C38.1696 42.6172 38.1963 41.9292 37.9789 41.3083L43.5808 42.9559C44.0745 43.1012 44.3581 43.6211 44.2132 44.1145V44.1146C44.2132 44.1147 44.2132 44.1148 44.2131 44.1149C44.0968 44.5095 43.729 44.7852 43.3185 44.7852V44.7852Z" fill="#B38339"/>
<path d="M19.2323 50.8521H14.8485C13.4292 50.8521 12.2747 52.0067 12.2747 53.4259C12.2747 54.845 13.4293 55.9997 14.8486 55.9997H19.2324C20.6517 55.9997 21.8063 54.845 21.8063 53.4259C21.8063 52.0067 20.6516 50.8521 19.2323 50.8521ZM19.2323 54.3591H14.8485C14.3339 54.3591 13.9153 53.9404 13.9153 53.4259C13.9153 52.9114 14.334 52.4927 14.8485 52.4927H19.2323C19.7469 52.4927 20.1655 52.9114 20.1655 53.4259C20.1655 53.9404 19.7469 54.3591 19.2323 54.3591Z" fill="#B38339"/>
</g>
<defs>
<clipPath id="clip0_71_5253">
<rect width="56" height="56" fill="white"/>
</clipPath>
</defs>
</svg>
