<svg width="56" height="56" viewBox="0 0 56 56" fill="none" xmlns="http://www.w3.org/2000/svg">
<path d="M22.6478 39.0713C22.1952 39.0713 21.8284 39.4382 21.8284 39.8908V48.0375C21.8284 48.4901 22.1952 48.857 22.6478 48.857C23.1005 48.857 23.4673 48.4901 23.4673 48.0375V39.8908C23.4673 39.4381 23.1005 39.0713 22.6478 39.0713Z" fill="#B38339"/>
<path d="M38.4012 25.0015C37.9485 25.0015 37.5817 25.3684 37.5817 25.8209V28.3046C37.5817 29.1463 37.3568 29.9751 36.9316 30.7013L36.0399 32.2246C35.889 32.4822 35.8093 32.7763 35.8093 33.0749V48.5835C35.8093 49.0361 36.1761 49.403 36.6288 49.403C37.0815 49.403 37.4483 49.0361 37.4483 48.5835V33.075C37.4483 33.0671 37.4505 33.0594 37.4544 33.0526L38.346 31.5296C38.9182 30.5524 39.2208 29.4373 39.2208 28.3047V25.8211C39.2207 25.3684 38.8539 25.0015 38.4012 25.0015Z" fill="#B38339"/>
<path d="M54.8086 35.1893H54.6512L50.4115 18.1735H53.0629C54.6824 18.1735 56 16.8559 56 15.2362C56 13.6167 54.6824 12.2991 53.0629 12.2991H48.9253C48.7213 11.8462 48.2795 11.5552 47.7631 11.5552C47.2466 11.5552 46.8049 11.8465 46.6012 12.2991H39.6125V11.7254C39.6125 10.044 38.2446 8.67614 36.5633 8.67614C35.8483 8.67614 35.1908 8.9246 34.6704 9.33838C34.128 8.49235 33.1813 7.92921 32.1038 7.92921C31.3713 7.92921 30.6996 8.19013 30.1735 8.62227C29.6254 7.80836 28.6972 7.27067 27.6443 7.27067C26.9153 7.27067 26.2463 7.52886 25.7214 7.9574C25.1743 7.13813 24.2418 6.59717 23.1848 6.59717C21.5035 6.59717 20.1357 7.96504 20.1357 9.6464V11.8795C19.7204 11.8874 19.3035 11.9566 18.8956 12.0892C18.7149 12.148 18.5407 12.2189 18.3724 12.299H9.39671C9.19271 11.8462 8.75128 11.5552 8.2349 11.5551C8.23479 11.5551 8.23479 11.5551 8.23479 11.5551C7.71841 11.5551 7.27655 11.8463 7.07266 12.299H3.04442C1.42491 12.299 0.107297 13.6166 0.107297 15.2361C0.107297 16.8558 1.42491 18.1734 3.04442 18.1734H5.58667L1.34679 35.1893H0.960103C0.430609 35.1893 0 35.62 0 36.1494V38.8199C0 42.6942 3.15205 45.8462 7.02633 45.8462H9.61775C13.492 45.8462 16.6441 42.6943 16.6441 38.8199V36.1494C16.6441 35.62 16.2135 35.1893 15.684 35.1893H15.1229L10.8829 18.1735H14.523C13.4149 20.8335 13.9095 23.8916 15.8335 26.0713L21.8284 32.8628V36.3982C21.8284 36.8507 22.1952 37.2176 22.6479 37.2176C23.1006 37.2176 23.4674 36.8507 23.4674 36.3982V32.5528C23.4674 32.3531 23.3944 32.1603 23.2623 32.0106L17.0622 24.9866C15.4835 23.1981 15.1327 20.6538 16.1688 18.5048L17.8615 14.994C18.1731 14.3478 18.7203 13.8697 19.4026 13.6479C20.0849 13.4258 20.8087 13.4907 21.4406 13.83L28.5011 17.6205C28.7856 17.7732 28.9662 18.0686 28.9723 18.3916C28.9789 18.7284 28.7985 19.0369 28.5015 19.1964L27.5752 19.6944C26.3259 20.3661 24.8221 20.3892 23.5527 19.7563L21.4124 18.6892C21.0071 18.4872 20.5153 18.6519 20.3133 19.057C20.1112 19.462 20.2759 19.954 20.6809 20.156L22.8213 21.223C24.5337 22.0769 26.5553 22.0601 28.2534 21.187L29.3082 22.4567C29.8102 23.0609 30.0865 23.8261 30.0865 24.6116V27.9996C30.0865 28.4522 30.4533 28.8191 30.906 28.8191C31.3587 28.8191 31.7255 28.4522 31.7255 27.9996V24.6116C31.7255 23.4445 31.3147 22.3073 30.569 21.4094L29.6958 20.3583C30.2838 19.8723 30.6261 19.1437 30.611 18.3603C30.6088 18.2488 30.5992 18.1384 30.5827 18.0298C31.0308 18.2892 31.5499 18.4389 32.1038 18.4389C32.8477 18.4389 33.529 18.1699 34.0586 17.7256C34.6097 18.5192 35.526 19.041 36.5632 19.041C36.9203 19.041 37.263 18.9788 37.5816 18.8656V22.3289C37.5816 22.7815 37.9484 23.1484 38.4011 23.1484C38.8537 23.1484 39.2205 22.7815 39.2205 22.3289V18.1737H45.1151L40.8752 35.1895H40.5434C39.8876 35.1895 39.354 35.723 39.354 36.3788V38.8201C39.354 42.6944 42.506 45.8465 46.3803 45.8465H48.9717C52.846 45.8465 55.998 42.6945 55.998 38.8201V36.3788C55.998 35.7228 55.4644 35.1893 54.8086 35.1893V35.1893ZM1.74626 15.2362C1.74626 14.5204 2.32863 13.9381 3.04442 13.9381H8.13842L8.78537 16.5345H3.04442C2.32874 16.5345 1.74626 15.9521 1.74626 15.2362V15.2362ZM15.005 38.8199C15.005 41.7905 12.5883 44.2073 9.61764 44.2073H7.02633C4.05566 44.2072 1.63896 41.7905 1.63896 38.8199V36.8282H15.005V38.8199ZM13.4337 35.1893H3.03579L7.27556 18.1735H9.19369L13.4337 35.1893ZM9.82753 13.9381H16.5714C16.5049 14.0494 16.4422 14.1638 16.3851 14.2821L15.2991 16.5345H10.4745L9.82753 13.9381ZM54.361 15.2362C54.361 15.9521 53.7787 16.5345 53.0629 16.5345H50.0031L49.3562 13.9381H53.063C53.7786 13.9381 54.361 14.5204 54.361 15.2362V15.2362ZM47.667 13.9381L48.3139 16.5345H39.5631C39.5949 16.3582 39.6125 16.177 39.6125 15.9917V13.9381H47.667ZM21.7747 12.181V9.6464C21.7747 8.86877 22.4073 8.23613 23.1848 8.23613C23.9625 8.23613 24.5951 8.86877 24.5951 9.6464V13.6633L22.2158 12.3859C22.0716 12.3085 21.9242 12.2408 21.7747 12.181V12.181ZM26.2342 14.5432V10.3199C26.2342 9.54227 26.8668 8.90963 27.6445 8.90963C28.422 8.90963 29.0546 9.54227 29.0546 10.3199V15.3894C29.0546 15.5976 29.0074 15.8006 28.9209 15.9856L26.2342 14.5432ZM33.5141 15.3894C33.5141 16.1671 32.8815 16.7997 32.104 16.7997C31.3263 16.7997 30.6937 16.1671 30.6937 15.3894V10.9784C30.6937 10.2008 31.3263 9.56817 32.104 9.56817C32.8815 9.56817 33.5141 10.2008 33.5141 10.9784V15.3894ZM36.5633 17.4019C35.7857 17.4019 35.1531 16.7692 35.1531 15.9916V11.7253C35.1531 10.9476 35.7857 10.315 36.5633 10.315C37.3409 10.315 37.9735 10.9476 37.9735 11.7253V15.9916C37.9735 16.7692 37.3409 17.4019 36.5633 17.4019ZM54.3591 38.8199C54.3591 41.7905 51.9424 44.2073 48.9717 44.2073H46.3803C43.4096 44.2073 40.9929 41.7905 40.9929 38.8199V36.8282H47.6759C48.1286 36.8282 48.4954 36.4613 48.4954 36.0088C48.4954 35.5562 48.1286 35.1893 47.6759 35.1893H42.5642L46.804 18.1735H48.7221L52.962 35.1893H51.1683C50.7157 35.1893 50.3489 35.5562 50.3489 36.0088C50.3489 36.4613 50.7157 36.8282 51.1683 36.8282H54.3591V38.8199Z" fill="#B38339"/>
</svg>
