<svg width="56" height="56" viewBox="0 0 56 56" fill="none" xmlns="http://www.w3.org/2000/svg">
<g clip-path="url(#clip0_55_4736)">
<path d="M27.0551 21.3527C27.4199 21.6992 28.0266 21.6291 28.3039 21.2108L33.7637 12.9709C34.014 12.5933 33.9106 12.084 33.533 11.8336C33.1557 11.5837 32.6464 11.6871 32.3961 12.0643L27.4759 19.4899L24.7419 16.8939C24.4134 16.582 23.8943 16.5957 23.582 16.9242C23.2701 17.2528 23.2838 17.7719 23.6123 18.0838C23.6119 18.0838 27.0521 21.3501 27.0551 21.3527V21.3527Z" fill="#B38339"/>
<path d="M27.6145 33.8644C27.7713 33.9362 27.9448 33.9742 28.1174 33.9742H28.1242C28.2998 33.9733 28.4759 33.9332 28.6331 33.858C41.107 27.9257 43.221 15.1262 43.5713 11.3447C43.6517 10.4812 43.1655 9.67713 42.3618 9.34388C39.8786 8.31293 38.1906 6.00751 37.9565 3.32739C37.8843 2.50238 37.1793 1.85938 36.3487 1.85938H36.3389L19.5336 1.95807C18.6864 1.96277 17.9981 2.60663 17.9331 3.45557C17.7264 6.13654 16.0631 8.45862 13.5923 9.51563C12.7968 9.85572 12.3225 10.6641 12.4131 11.5271C12.8079 15.3044 15.0719 28.0786 27.6145 33.8644V33.8644ZM14.2375 11.0238C17.2671 9.7284 19.308 6.88422 19.5674 3.59827L36.3244 3.5C36.6222 6.77869 38.6922 9.59681 41.7329 10.8589C41.8688 10.9157 41.9512 11.0499 41.938 11.1934C41.609 14.7374 39.6407 26.6871 28.1144 32.287C16.5219 26.8234 14.4152 14.8968 14.0443 11.3566C14.0294 11.2135 14.1072 11.0798 14.2375 11.0238Z" fill="#B38339"/>
<path d="M16.2857 15.5712C16.3848 15.936 16.8475 16.2701 17.2927 16.1475C17.7294 16.027 17.9879 15.578 17.8691 15.1409C17.6602 14.371 17.4846 13.5905 17.3466 12.8171C19.5751 11.3649 21.2289 9.19751 22.0403 6.66608L33.887 6.59644C34.7278 9.11762 36.4068 11.2662 38.6525 12.692C38.5239 13.4674 38.3572 14.2506 38.1568 15.0234C38.0432 15.4622 38.3068 15.91 38.7452 16.0236C39.1844 16.1373 39.6317 15.8737 39.7453 15.4349C39.9803 14.5274 40.1717 13.6063 40.3136 12.6971C40.3931 12.1891 40.1606 11.6896 39.7223 11.4247C37.6305 10.1614 36.0843 8.17938 35.3686 5.84406C35.2076 5.31897 34.7124 4.9541 34.163 4.9541H34.1553L21.7523 5.02673C21.1995 5.03015 20.7047 5.40228 20.5496 5.93121C19.8618 8.27466 18.3386 10.2746 16.2618 11.5627C15.8264 11.8323 15.6004 12.3344 15.6854 12.8419C15.8384 13.749 16.04 14.6671 16.2857 15.5712V15.5712Z" fill="#B38339"/>
<path d="M38.0872 18.0039C37.6685 17.8305 37.1892 18.0304 37.0161 18.4491C35.1204 23.0437 32.1195 26.5369 28.0939 28.8359C24.0372 26.5813 20.9927 23.1177 19.0436 18.5376C18.8659 18.121 18.3839 17.927 17.9674 18.1043C17.5504 18.2816 17.3564 18.7636 17.5337 19.1801C19.661 24.1781 23.0123 27.946 27.4945 30.3783C27.6834 30.4813 27.8901 30.5321 28.0965 30.5321C28.308 30.5321 28.5191 30.4787 28.7113 30.3714C33.1598 27.8896 36.4641 24.0888 38.5329 19.0746C38.7059 18.6559 38.5064 18.1765 38.0872 18.0039Z" fill="#B38339"/>
<path d="M5.26312 43.8345C3.66309 43.8345 2.36084 45.1363 2.36084 46.7368C2.36084 48.3372 3.66309 49.639 5.26312 49.639C6.86358 49.639 8.16583 48.3372 8.16583 46.7368C8.16583 45.1363 6.86401 43.8345 5.26312 43.8345V43.8345ZM5.26312 47.9984C4.56757 47.9984 4.00146 47.4327 4.00146 46.7368C4.00146 46.0412 4.56757 45.4751 5.26312 45.4751C5.9591 45.4751 6.52521 46.0412 6.52521 46.7368C6.52521 47.4327 5.9591 47.9984 5.26312 47.9984Z" fill="#B38339"/>
<path d="M55.4117 35.8039C54.3603 34.259 52.2433 33.8497 50.6928 34.8913L39.9689 42.0686L37.6797 41.94L37.6212 41.3538C37.393 39.0582 35.6383 37.2292 33.3543 36.9062C33.3397 36.9041 33.3256 36.9023 33.3111 36.9011L21.7558 35.8885C21.3649 35.8274 20.1135 35.4681 16.675 33.4959C14.8878 32.4709 12.8742 31.8925 10.8286 31.8138V29.6678C10.8286 28.5907 9.9527 27.7148 8.87562 27.7148H1.95294C0.876282 27.7148 0 28.5911 0 29.6678V50.8041C0 51.8807 0.876282 52.757 1.95294 52.757H8.87562C9.95228 52.757 10.8286 51.8807 10.8286 50.8041V50.2217L20.9295 54.0469C20.9517 54.0554 21.772 54.3622 23.2802 54.2199C23.2845 54.2195 40.0637 51.8004 40.0637 51.8004C40.068 51.8 40.0719 51.7991 40.0761 51.7983C41.51 51.5697 42.8622 50.9634 43.9872 50.0461C43.9974 50.0376 44.0072 50.0291 44.0171 50.0205L54.8567 40.2712C56.1342 39.1368 56.373 37.2164 55.4117 35.8039V35.8039ZM53.7634 39.048L42.9353 48.7871C42.0389 49.5138 40.9631 49.9944 39.8232 50.1773L23.0521 52.5951C23.0482 52.5955 23.0427 52.5964 23.0376 52.5972C23.035 52.5977 23.032 52.5981 23.0294 52.5985C22.5278 52.6776 22.0053 52.6442 21.476 52.4994L10.8286 48.4675V39.0992C10.8286 38.6459 10.4611 38.2789 10.0082 38.2789C9.55494 38.2789 9.18793 38.6459 9.18793 39.0992V50.8041C9.18793 50.9763 9.0478 51.1164 8.87562 51.1164H1.95294C1.78076 51.1164 1.64063 50.9763 1.64063 50.8041V29.6678C1.64063 29.4956 1.78076 29.3555 1.95294 29.3555H8.87562C9.0478 29.3555 9.18793 29.4956 9.18793 29.6678V35.3937C9.18793 35.847 9.55537 36.2141 10.0082 36.2141C10.4616 36.2141 10.8286 35.8466 10.8286 35.3937V33.4562C12.5884 33.5339 14.3196 34.0364 15.8585 34.9195C20.0058 37.298 21.1641 37.462 21.5448 37.5159C21.5593 37.518 21.5734 37.5193 21.5879 37.521L33.1445 38.5336C34.6681 38.7587 35.8361 39.9824 35.9887 41.5162L36.0323 41.9532L20.5604 42.9086C20.5497 42.9077 20.539 42.9069 20.5296 42.906C20.028 42.8607 19.5751 42.6236 19.2534 42.2382C18.9633 41.89 18.4459 41.843 18.0982 42.1335C17.75 42.4236 17.703 42.941 17.9935 43.2888C18.5955 44.0109 19.4448 44.4428 20.3835 44.5402C20.8902 44.5932 36.9346 43.5413 36.9346 43.5413L40.1509 43.722C40.3286 43.7323 40.5051 43.6836 40.6529 43.5845L51.6067 36.2538C52.4112 35.7133 53.5096 35.9252 54.0552 36.7267C54.5538 37.4599 54.4299 38.4562 53.7634 39.048V39.048Z" fill="#B38339"/>
</g>
<defs>
<clipPath id="clip0_55_4736">
<rect width="56" height="56" fill="white"/>
</clipPath>
</defs>
</svg>
