<svg width="590" height="438" viewBox="0 0 590 438" fill="none" xmlns="http://www.w3.org/2000/svg">
<g clip-path="url(#clip0_37_587)">
<path d="M148.67 153.917L126.27 300.442L103.857 310.01L81.1196 319.718L65.7878 314.732" stroke="#1E2935" stroke-width="2" stroke-linecap="round" stroke-linejoin="round"/>
<path d="M124.509 42.3668L148.67 153.917L172.819 206.114L196.569 308.694L221.165 317.714L246.099 326.858L271.377 336.129L292.995 326.183L315.443 270.249L336.625 258.529L357.108 260.341L357.366 260.542L357.605 260.727L365.385 266.768L382.329 279.925L383.256 280.388L393.958 285.741L408.077 292.805L409.253 293.744L433.84 313.385L460.057 330.158L486.793 342.754L506.925 332.711L526.771 322.813L546.321 313.06L565.584 303.45L584.579 293.975" stroke="#1E2935" stroke-width="2" stroke-linecap="round" stroke-linejoin="round"/>
<path d="M146.995 43.8806L151.684 63.9234L170.372 143.835" stroke="#1E2935" stroke-width="2" stroke-linecap="round" stroke-linejoin="round"/>
<path d="M290.833 226.241L267.756 317.048L246.099 326.858L224.123 336.816L201.819 346.921L179.179 357.177L156.197 367.589L132.866 378.16L107.787 368.308L92.7121 354.349L83.8586 346.151L59.6349 353.213L34.8302 346.688L9.96449 342.378L-14.4083 343.076L-38.8735 321.955L-62.9778 304.5L-87.0068 280.063L-109.903 283.258L-132.643 279.824L-154.896 280.06L-156.034 281.396L-164.059 290.821L-179.122 308.512L-200.968 307.622L-222.509 305.919L-247.419 322.077L-268.901 314.175L-290.13 305.604L-311.054 297.45L-336.579 306.975" stroke="#1E2935" stroke-width="2" stroke-linecap="round" stroke-linejoin="round"/>
<path d="M102.355 224.13L126.269 300.442L150.236 309.351L174.531 318.383L199.156 327.535L224.123 336.816L249.436 346.224L275.103 355.764L297.004 345.528L318.581 335.443L340.473 303.263L361.854 281.674L382.329 279.925L402.373 286.175L421.856 287.179L441.633 277.936L467.283 286.542L486.726 277.308L512.661 285.906L531.78 276.681L558.003 285.272" stroke="#1E2935" stroke-width="2" stroke-linecap="round" stroke-linejoin="round"/>
<path d="M195.39 132.212L184.866 166.672L172.819 206.114L150.236 309.351L127.848 319.05L105.13 328.891L81.1196 319.718L57.7754 252.611L56.8207 249.866L44.2763 234.555L33.4054 221.286L33.2136 221.212L33.0275 220.824L25.8688 215.462L20.1393 211.172L18.595 210.014L9.80685 203.432L9.18602 202.967L-14.7236 206.495L-30.1761 224.593L-38.4742 234.315L-44.8714 238.327L-62.7987 249.571L-85.9014 249.39L-95.059 252.625L-108.371 257.328L-114.492 262.736L-127.62 275.17L-132.643 279.824L-156.66 316.166L-181.155 345.892L-206.493 362.857L-228.93 353.218L-251.057 343.714L-272.878 334.339L-294.403 325.092L-315.635 315.972L-336.579 306.975" stroke="#1E2935" stroke-width="2" stroke-linecap="round" stroke-linejoin="round"/>
<path d="M146.995 43.8806L168.753 116.776L176.562 140.958" stroke="#1E2935" stroke-width="2" stroke-linecap="round" stroke-linejoin="round"/>
<path d="M241.807 146.002L287.061 196.652L295.669 210.406L311.628 236.062" stroke="#1E2935" stroke-width="2" stroke-linecap="round" stroke-linejoin="round"/>
<path d="M195.39 132.212L213.604 177.757L219.544 192.61L196.569 308.694L174.531 318.383L152.167 328.212L127.848 319.05L103.857 310.01L79.9717 269.762L102.356 224.13L124.509 42.3668" stroke="#1E2935" stroke-width="2" stroke-linecap="round" stroke-linejoin="round"/>
<path d="M7.32058 288.419L-14.8857 237.593L-38.4743 234.314L-62.2178 211.244" stroke="#1E2935" stroke-width="2" stroke-linecap="round" stroke-linejoin="round"/>
<path d="M241.807 146.002L219.544 192.61L243.91 238.262L267.756 317.048L292.995 326.183L318.581 335.443L344.524 344.833L370.829 354.354L392.161 339.476L413.276 322.951L433.84 313.385L453.858 309.579L480.196 321.564L500.072 312.397L519.621 304.103L538.951 294.62L558.003 285.272L584.579 293.975" stroke="#1E2935" stroke-width="2" stroke-linecap="round" stroke-linejoin="round"/>
<path d="M290.833 226.241L315.443 270.249L340.473 303.263L366.084 324.002L392.161 339.476L418.675 352.215L439.597 339.219L460.057 330.158L480.196 321.564L506.925 332.711" stroke="#1E2935" stroke-width="2" stroke-linecap="round" stroke-linejoin="round"/>
<path d="M122.941 0.425415L128.416 10.3178L146.996 43.8806L172.743 126.748L178.138 140.227" stroke="#1E2935" stroke-width="2" stroke-linecap="round" stroke-linejoin="round"/>
<path d="M195.39 132.212L216.707 174.263" stroke="#1E2935" stroke-width="2" stroke-linecap="round" stroke-linejoin="round"/>
<path d="M34.8303 346.688L10.277 385.806L-14.6512 416.281L-40.1421 434.317" stroke="#1E2935" stroke-width="2" stroke-linecap="round" stroke-linejoin="round"/>
<path d="M60.2699 368.654L35.6158 403.295L10.554 427.646L-14.9639 445.133" stroke="#1E2935" stroke-width="2" stroke-linecap="round" stroke-linejoin="round"/>
<path d="M241.807 146.002L216.707 174.263" stroke="#1E2935" stroke-width="2" stroke-linecap="round" stroke-linejoin="round"/>
<path d="M387.639 296.156L413.276 322.951L439.597 339.219L466.358 352.947" stroke="#1E2935" stroke-width="2" stroke-linecap="round" stroke-linejoin="round"/>
<path d="M387.639 296.156L366.084 324.002L344.524 344.833L322.991 355.059L301.13 365.438L278.939 375.976L256.405 386.677L233.524 397.542L210.286 408.576L186.683 419.784L162.721 427.646L138.358 430.53L113.577 447.605L88.4318 464.78L62.0956 452.379L36.1416 440.24L10.5542 427.646L-14.6512 416.281L-39.5098 404.368L-63.9991 393.349L-88.1503 382.208L-111.986 370.513L-135.424 360.93L-158.457 353.374L-181.155 345.892L-203.603 336.847L-225.666 329.452L-247.419 322.077L-272.878 334.339" stroke="#1E2935" stroke-width="2" stroke-linecap="round" stroke-linejoin="round"/>
<path d="M44.2764 234.555L55.1373 202.809L60.1238 191.64L70.9946 167.287L76.8648 154.138L84.0605 136.073" stroke="#1E2935" stroke-width="2" stroke-linecap="round" stroke-linejoin="round"/>
<path d="M71.4194 154.736L86.9913 125.849" stroke="#1E2935" stroke-width="2" stroke-linecap="round" stroke-linejoin="round"/>
<path d="M12.4719 291.543L33.6724 267.122" stroke="#1E2935" stroke-width="2" stroke-linecap="round" stroke-linejoin="round"/>
<path d="M-89.4019 413.157L-63.9991 393.349L-39.0481 368.651L-14.4082 343.076L9.6819 301.293" stroke="#1E2935" stroke-width="2" stroke-linecap="round" stroke-linejoin="round"/>
<path d="M87.234 432.851L62.0955 452.379L36.5378 467.257L10.5952 456.112" stroke="#1E2935" stroke-width="2" stroke-linecap="round" stroke-linejoin="round"/>
<path d="M79.9717 269.762L59.1733 251.888" stroke="#1E2935" stroke-width="2" stroke-linecap="round" stroke-linejoin="round"/>
<path d="M267.67 452.062L240.274 441.142L213.281 430.385L189.362 438.807L165.034 448.579L140.293 461.979L113.577 447.605L87.2341 432.851" stroke="#1E2935" stroke-width="2" stroke-linecap="round" stroke-linejoin="round"/>
<path d="M359.412 406.298L332.201 396.045L309.756 407.056L286.959 418.24L263.8 429.601L240.274 441.142L216.377 452.145L189.362 438.807L162.721 427.646L136.465 417.465L110.558 394.615L94.269 380.736L84.9425 372.788L67.1317 359.011L59.6348 353.213L34.5048 324.848L9.68169 301.293L-14.9454 274.907L-39.4233 244.987" stroke="#1E2935" stroke-width="2" stroke-linecap="round" stroke-linejoin="round"/>
<path d="M381.462 395.298L354.302 385.202L327.528 375.251L305.38 385.939L282.888 396.793L260.047 407.816L236.848 419.011L213.28 430.385L186.683 419.784L160.47 409.337L134.637 398.517L130.074 395.155L109.145 379.742L97.4926 364.264L90.6976 355.235L83.8585 346.151L76.7353 336.809L67.9173 325.245L58.7725 313.251L56.5592 312.483L33.6723 267.122L21.064 241.246L9.04526 216.582L-14.7238 206.495L-37.6106 221.497L-62.2178 211.244" stroke="#1E2935" stroke-width="2" stroke-linecap="round" stroke-linejoin="round"/>
<path d="M424.555 373.8L397.503 364.009L370.829 354.354L349.343 364.724L327.528 375.251L301.13 365.438L275.103 355.764L252.87 366.155L230.299 376.703L207.379 387.415L184.106 398.291L160.47 409.337L136.466 417.465L112.039 418.327L87.2342 432.851L61.2574 418.993L35.616 403.295L10.2772 385.806L-14.671 372.105L-39.0481 368.651L-63.1666 360.283L-87.305 339.567L-110.983 324.86L-133.969 321.242L-156.66 316.166L-179.122 308.512" stroke="#1E2935" stroke-width="2" stroke-linecap="round" stroke-linejoin="round"/>
<path d="M33.4053 221.286L55.1371 202.809L68.5708 176.346L77.6389 158.482L100.763 113.586L124.509 42.3668" stroke="#1E2935" stroke-width="2" stroke-linecap="round" stroke-linejoin="round"/>
<path d="M58.7727 313.251L34.505 324.848L9.96457 342.378L-0.538355 355.053L-14.6711 372.105L-39.5098 404.368L-64.9524 423.658" stroke="#1E2935" stroke-width="2" stroke-linecap="round" stroke-linejoin="round"/>
<path d="M-311.054 297.45L-285.893 288.061L-261.088 278.806L-236.633 269.681L-212.519 260.683L-188.74 251.81L-165.288 243.059L-142.157 234.429L-119.341 225.916L-96.8321 217.517L-74.6257 209.23L-52.715 201.055L-31.094 192.988L-9.7571 185.025L11.2416 191.156L29.6591 198.656L32.5444 198.036L42.83 195.549L51.1081 188.798L54.5873 185.962L61.567 175.991L64.8913 171.241L68.2398 166.459L73.7065 158.649" stroke="#1E2935" stroke-width="2" stroke-linecap="round" stroke-linejoin="round"/>
<path d="M59.1377 251.387L78.9359 233.582L100.763 113.586L122.941 0.425415" stroke="#1E2935" stroke-width="2" stroke-linecap="round" stroke-linejoin="round"/>
<path d="M291.154 440.347L267.67 452.062L243.808 463.966L219.554 476.063L192.087 463.443L165.034 448.579L138.358 430.53L112.039 418.327L86.0194 393.935L60.27 368.654" stroke="#1E2935" stroke-width="2" stroke-linecap="round" stroke-linejoin="round"/>
<path d="M56.5593 312.483L34.2038 304.731L9.95314 294.444L-14.9453 274.907" stroke="#1E2935" stroke-width="2" stroke-linecap="round" stroke-linejoin="round"/>
<path d="M331.958 254.334L332.086 254.364L340.513 256.379L352.309 259.195L357.108 260.341L371.593 265.397L377.064 267.307L389.664 276.769L402.059 286.078L418.382 291.113L428.003 294.052L447.624 294.374L467.283 286.542L493.332 294.141L519.621 304.103L546.321 313.06" stroke="#1E2935" stroke-width="2" stroke-linecap="round" stroke-linejoin="round"/>
<path d="M314.267 428.818L291.154 440.347L263.801 429.601L236.848 419.011L210.286 408.576L184.106 398.291L158.303 388.154L132.866 378.16L109.145 379.742L84.9426 372.788L60.2701 368.654L46.7397 356.971L34.8303 346.688" stroke="#1E2935" stroke-width="2" stroke-linecap="round" stroke-linejoin="round"/>
<path d="M337.016 417.469L314.267 428.818L286.959 418.24L260.047 407.816L233.523 397.542L207.379 387.415L181.607 377.43L156.197 367.589L131.144 357.884L113.724 365.658" stroke="#1E2935" stroke-width="2" stroke-linecap="round" stroke-linejoin="round"/>
<path d="M34.2038 304.731L9.68188 301.293" stroke="#1E2935" stroke-width="2" stroke-linecap="round" stroke-linejoin="round"/>
<path d="M403.174 384.466L381.462 395.298L359.412 406.298L337.015 417.469L309.756 407.056L282.888 396.793L256.404 386.677L230.298 376.703L204.559 366.871L179.179 357.177L154.153 347.616L129.473 338.189L106.438 348.313L94.9226 353.378" stroke="#1E2935" stroke-width="2" stroke-linecap="round" stroke-linejoin="round"/>
<path d="M263.927 202.623L287.227 196.838L301.719 207.86L307.673 212.389L312.573 220.904L325.585 243.511" stroke="#1E2935" stroke-width="2" stroke-linecap="round" stroke-linejoin="round"/>
<path d="M287.227 196.838L265.869 207.592L243.91 238.261L221.165 317.714L199.156 327.535L176.822 337.502L154.153 347.616L131.144 357.884L106.439 348.313L93.5561 343.325L82.0758 338.877L78.6548 335.583" stroke="#1E2935" stroke-width="2" stroke-linecap="round" stroke-linejoin="round"/>
<path d="M148.67 153.917L170.844 145.852L177.032 142.414L178.652 141.513L195.39 132.212L241.807 146.002L263.927 202.623L265.869 207.592L290.833 226.241L311.628 236.062L331.658 254.065L331.958 254.335L336.625 258.53L361.854 281.674L387.639 296.156L408.077 292.805L428.003 294.052L436.149 298.944L453.858 309.579L473.781 300.961L493.332 294.141L512.661 285.906L538.951 294.62L565.584 303.45" stroke="#1E2935" stroke-width="2" stroke-linecap="round" stroke-linejoin="round"/>
<path d="M445.615 363.296L424.555 373.8L403.174 384.466L376.068 374.525L349.343 364.724L322.991 355.059L297.004 345.528L271.377 336.129L249.436 346.224L227.166 356.47L201.819 346.921L176.822 337.502L152.167 328.212L129.473 338.189L105.13 328.891L88.3394 336.163" stroke="#1E2935" stroke-width="2" stroke-linecap="round" stroke-linejoin="round"/>
<path d="M316.024 220.719L338.017 228.01L362.012 235.965L386.315 244.022L410.931 252.182L435.869 260.438L461.133 268.824L486.726 277.308L505.902 268.204" stroke="#1E2935" stroke-width="2" stroke-linecap="round" stroke-linejoin="round"/>
<path d="M486.792 342.754L466.358 352.948L445.615 363.296L418.675 352.215L397.503 364.009L376.068 374.525L354.302 385.202L332.201 396.045L305.38 385.939L278.939 375.977L252.87 366.155L227.166 356.47L204.559 366.871L181.607 377.43L158.302 388.154L134.637 398.517L110.558 394.615L86.0193 393.935L61.2572 418.993L36.1415 440.24L10.5952 456.112L-14.9639 445.133L-40.1422 434.317L-64.9526 423.658L-89.4021 413.157L-113.498 402.806L-137.247 392.603L-160.658 382.546L-183.738 372.633L-206.493 362.857" stroke="#1E2935" stroke-width="2" stroke-linecap="round" stroke-linejoin="round"/>
<path d="M124.509 42.3668L146.995 43.8806" stroke="#1E2935" stroke-width="2" stroke-linecap="round" stroke-linejoin="round"/>
<path d="M-9.75708 185.025L11.3013 177.17L32.0855 169.413L53.0744 175.559L60.0057 175.911" stroke="#1E2935" stroke-width="2" stroke-linecap="round" stroke-linejoin="round"/>
<path d="M11.3013 177.17L32.2972 183.424L49.7173 188.401" stroke="#1E2935" stroke-width="2" stroke-linecap="round" stroke-linejoin="round"/>
<path d="M32.0854 169.413L52.6026 161.758L71.4192 154.737" stroke="#1E2935" stroke-width="2" stroke-linecap="round" stroke-linejoin="round"/>
<path d="M-31.094 192.988L-10.0938 199.093L11.135 202.646L29.659 198.656" stroke="#1E2935" stroke-width="2" stroke-linecap="round" stroke-linejoin="round"/>
<path d="M430.258 243.426L410.931 252.182L391.334 261.06L373.566 264.968" stroke="#1E2935" stroke-width="2" stroke-linecap="round" stroke-linejoin="round"/>
<path d="M455.146 251.578L435.869 260.438L416.456 265.9L396.659 273.933L377 267.259L376.459 267.048" stroke="#1E2935" stroke-width="2" stroke-linecap="round" stroke-linejoin="round"/>
<path d="M405.686 235.376L386.315 244.022L366.675 252.785L355.278 257.871" stroke="#1E2935" stroke-width="2" stroke-linecap="round" stroke-linejoin="round"/>
<path d="M381.425 227.43L362.012 235.965L342.33 244.616L340.698 245.334" stroke="#1E2935" stroke-width="2" stroke-linecap="round" stroke-linejoin="round"/>
<path d="M357.47 219.584L338.017 228.01L327.778 232.446" stroke="#1E2935" stroke-width="2" stroke-linecap="round" stroke-linejoin="round"/>
<path d="M333.816 211.836L315.12 219.817" stroke="#1E2935" stroke-width="2" stroke-linecap="round" stroke-linejoin="round"/>
<path d="M178.138 140.227L195.39 132.212" stroke="#1E2935" stroke-width="2" stroke-linecap="round" stroke-linejoin="round"/>
<path d="M20.1392 211.171L32.6495 203.852L42.8299 195.549" stroke="#1E2935" stroke-width="2" stroke-linecap="round" stroke-linejoin="round"/>
<path d="M52.6028 161.758L65.5378 165.648" stroke="#1E2935" stroke-width="2" stroke-linecap="round" stroke-linejoin="round"/>
<path d="M25.8689 215.462L32.6497 203.852" stroke="#1E2935" stroke-width="2" stroke-linecap="round" stroke-linejoin="round"/>
<path d="M310.456 204.183L301.719 207.86" stroke="#1E2935" stroke-width="2" stroke-linecap="round" stroke-linejoin="round"/>
<path d="M338.787 243.429L342.33 244.616L366.675 252.785L391.334 261.06L416.456 265.9L441.633 277.936L461.133 268.824L480.358 259.837" stroke="#1E2935" stroke-width="2" stroke-linecap="round" stroke-linejoin="round"/>
<path d="M349.568 256.316L351.981 256.589L352.638 256.872L355.13 257.935L361.712 260.747L372.262 265.255L376.459 267.048L377 267.259L396.659 273.932L421.856 287.179L447.624 294.374L473.781 300.961L500.071 312.397L526.771 322.813" stroke="#1E2935" stroke-width="2" stroke-linecap="round" stroke-linejoin="round"/>
<path d="M9.80688 203.432L11.1352 202.646" stroke="#1E2935" stroke-width="2" stroke-linecap="round" stroke-linejoin="round"/>
<path d="M286.895 196.465L287.385 196.627L310.456 204.183L333.816 211.836L357.47 219.584L381.425 227.43L405.686 235.376L430.258 243.426L455.146 251.578L480.358 259.837L505.902 268.204L531.781 276.681" stroke="#1E2935" stroke-width="2" stroke-linecap="round" stroke-linejoin="round"/>
<path d="M86.9912 125.849L118.582 15.6317L122.941 0.425415" stroke="#1E2935" stroke-width="2" stroke-linecap="round" stroke-linejoin="round"/>
<path d="M57.085 249.578L73.5504 176.598L77.639 158.482L93.8658 113.096L99.5725 97.1355L122.941 0.425415" stroke="#1E2935" stroke-width="2" stroke-linecap="round" stroke-linejoin="round"/>
<path d="M53.6951 296.805L40.0909 246.793L33.1993 221.462L33.2135 221.212L33.0274 220.824L9.04528 216.582L-14.8857 237.593L-39.4233 244.987L-62.7988 249.571L-87.0068 280.063L-110.983 324.86L-135.424 360.93L-160.658 382.546" stroke="#1E2935" stroke-width="2" stroke-linecap="round" stroke-linejoin="round"/>
<path d="M56.8206 249.866L58.8691 251.628L59.3038 251.769L78.9359 233.582L102.355 224.13" stroke="#1E2935" stroke-width="2" stroke-linecap="round" stroke-linejoin="round"/>
<path d="M66.079 321.218L58.8336 313.221L58.3052 312.637L57.8705 312.156L34.7137 269.059L33.6724 267.122" stroke="#1E2935" stroke-width="2" stroke-linecap="round" stroke-linejoin="round"/>
<path d="M-30.2927 208.051L-20.888 203.879L-10.0938 199.093L11.2416 191.156L32.2972 183.424L53.0743 175.559L61.9406 172.319" stroke="#1E2935" stroke-width="2" stroke-linecap="round" stroke-linejoin="round"/>
<path d="M18.595 210.014L31.1252 199.254L32.5444 198.036" stroke="#1E2935" stroke-width="2" stroke-linecap="round" stroke-linejoin="round"/>
<path d="M33.269 221.12L49.7941 193.864L52.607 189.226L54.5874 185.962" stroke="#1E2935" stroke-width="2" stroke-linecap="round" stroke-linejoin="round"/>
</g>
<defs>
<clipPath id="clip0_37_587">
<rect width="590" height="438" fill="white"/>
</clipPath>
</defs>
</svg>
