<svg width="1760" height="428" viewBox="0 0 1760 428" fill="none" xmlns="http://www.w3.org/2000/svg">
<g clip-path="url(#clip0_30_264)">
<path d="M1.77674 126.04V509.235" stroke="#1E2935" stroke-width="2" stroke-linecap="round" stroke-linejoin="round"/>
<path d="M1301.06 508.84L1296.83 503.882L1268.32 470.441L1243.46 358.303" stroke="#1E2935" stroke-width="2" stroke-linecap="round" stroke-linejoin="round"/>
<path d="M1243.46 358.303L1253.23 364.115L1267.56 372.64L1301.65 392.92L1335.77 413.22L1343.75 415.647H1395.09H1481.83H1552.06" stroke="#1E2935" stroke-width="2" stroke-linecap="round" stroke-linejoin="round"/>
<path d="M1153.3 69.5427L1163.89 93.4653L1164.91 95.7769L1179.59 102.256L1184.33 104.351L1222.63 127.289L1231.97 197.109L1241.84 202.203L1252.28 207.592H1293.89L1306.19 213.302H1349.04L1363.41 219.362H1407.56H1451.73L1469.8 225.805H1515.37L1536.12 232.671H1583.17L1606.9 239.999H1655.54L1682.64 247.841H1732.98L1758.22 254.716" stroke="#1E2935" stroke-width="2" stroke-linecap="round" stroke-linejoin="round"/>
<path d="M1414.07 192.286L1402.55 115.514L1400.26 100.243" stroke="#1E2935" stroke-width="2" stroke-linecap="round" stroke-linejoin="round"/>
<path d="M1113.96 1.76459L1120.51 89.8196L1160.95 185.143L1201.4 202.203L1210.67 207.592L1220.49 213.302L1230.91 219.362L1242 225.805L1253.81 232.671L1266.42 239.999L1279.9 247.841H1330.25H1380.59H1430.92H1481.27H1531.62L1555.21 256.251H1607.37L1634.69 265.293H1688.82L1720.39 275.04H1758.22" stroke="#1E2935" stroke-width="2" stroke-linecap="round" stroke-linejoin="round"/>
<path d="M999.188 73.64L1002.61 156.62L1006.24 213.302L1010.1 219.362L1014.19 225.804L1018.56 232.671L1023.21 239.999L1028.2 247.841H1078.54L1085.71 256.251L1093.42 265.293L1101.73 275.04H1157.97L1169.25 285.582H1227.77H1286.3H1344.83H1403.36H1461.89H1520.42H1578.94H1637.47L1669.55 297.018H1730.55L1758.22 306.175" stroke="#1E2935" stroke-width="2" stroke-linecap="round" stroke-linejoin="round"/>
<path d="M1730.92 43.8343L1750 122.784L1758.22 141.441" stroke="#1E2935" stroke-width="2" stroke-linecap="round" stroke-linejoin="round"/>
<path d="M236.207 171.566L250.989 92.11" stroke="#1E2935" stroke-width="2" stroke-linecap="round" stroke-linejoin="round"/>
<path d="M1113.96 1.76459L1153.3 69.5427L1160.95 185.143L1169.06 207.592L1177.64 213.302L1186.75 219.362L1196.44 225.805L1206.76 232.671L1217.77 239.999L1229.56 247.841H1279.9L1294.37 256.251H1346.54H1398.7H1450.86H1503.04H1555.21L1580.56 265.293H1634.69L1664.15 275.04H1720.39L1754.53 285.582H1758.22" stroke="#1E2935" stroke-width="2" stroke-linecap="round" stroke-linejoin="round"/>
<path d="M1559.96 410.64L1529.49 392.92H1447.66L1417.18 372.64H1339.77H1267.56" stroke="#1E2935" stroke-width="2" stroke-linecap="round" stroke-linejoin="round"/>
<path d="M961.003 98.4167L1002.61 156.62" stroke="#1E2935" stroke-width="2" stroke-linecap="round" stroke-linejoin="round"/>
<path d="M1758.22 461.794L1733.68 392.92L1726.46 372.64L1726.39 372.456L1720.36 355.515L1718.77 354.428L1694.74 337.985L1672.91 323.064L1668.97 320.371L1662.83 316.171" stroke="#1E2935" stroke-width="2" stroke-linecap="round" stroke-linejoin="round"/>
<path d="M927.514 183.08L946.886 207.998L950.541 212.704L955.718 219.362L960.727 225.805L963.744 229.688L968.265 235.501" stroke="#1E2935" stroke-width="2" stroke-linecap="round" stroke-linejoin="round"/>
<path d="M1758.22 408.571L1747.06 392.92L1735.06 376.111L1732.58 372.64L1720.36 355.515" stroke="#1E2935" stroke-width="2" stroke-linecap="round" stroke-linejoin="round"/>
<path d="M1335.77 413.22L1337.09 415.647L1366.95 470.441L1402.72 503.882L1408.02 508.84" stroke="#1E2935" stroke-width="2" stroke-linecap="round" stroke-linejoin="round"/>
<path d="M1639.39 337.985H1574.76H1504.88H1434.97H1365.08H1295.18L1275.99 323.064L1258.5 309.464H1194.79H1131.08H1067.37H1003.66H939.951H876.243H812.532H748.823H685.115H621.406H557.697H493.988H430.278H366.569H302.86H239.151H175.443H111.734H48.0251H1.7644" stroke="#1E2935" stroke-width="2" stroke-linecap="round" stroke-linejoin="round"/>
<path d="M1516.1 438.436L1481.83 415.647L1447.66 392.92H1365.86H1301.65" stroke="#1E2935" stroke-width="2" stroke-linecap="round" stroke-linejoin="round"/>
<path d="M1350.78 30.3387L1362.96 92.3518L1375.79 127.157L1389.31 197.109L1403.61 202.203L1418.72 207.592H1460.33H1501.94H1543.55L1563.28 213.302H1606.13L1628.39 219.362H1672.56L1697.62 225.805H1743.17L1758.22 229.47" stroke="#1E2935" stroke-width="2" stroke-linecap="round" stroke-linejoin="round"/>
<path d="M278.61 70.9031L289.835 86.3186L310.86 115.179L314.796 119.407" stroke="#1E2935" stroke-width="2" stroke-linecap="round" stroke-linejoin="round"/>
<path d="M927.514 183.08L928.942 243.265" stroke="#1E2935" stroke-width="2" stroke-linecap="round" stroke-linejoin="round"/>
<path d="M1653.37 508.84L1614.48 440.984L1564.2 407.951" stroke="#1E2935" stroke-width="2" stroke-linecap="round" stroke-linejoin="round"/>
<path d="M1423.49 128.178L1425.79 137.289L1437.56 183.962" stroke="#1E2935" stroke-width="2" stroke-linecap="round" stroke-linejoin="round"/>
<path d="M270.002 165.304L284.011 109.516" stroke="#1E2935" stroke-width="2" stroke-linecap="round" stroke-linejoin="round"/>
<path d="M171.044 148.15L177.57 137.321L200.55 99.2002" stroke="#1E2935" stroke-width="2" stroke-linecap="round" stroke-linejoin="round"/>
<path d="M958.746 84.3776L919.391 123.527L920.379 189.24" stroke="#1E2935" stroke-width="2" stroke-linecap="round" stroke-linejoin="round"/>
<path d="M1758.22 328.633L1742.61 323.064L1704.46 309.464H1640.75H1577.04H1513.34H1449.63H1385.92H1322.2H1258.5L1242.48 297.018L1227.77 285.582L1214.21 275.04L1201.67 265.293L1190.04 256.251L1179.22 247.841L1169.14 239.999L1159.71 232.671L1150.88 225.804L1142.59 219.362L1134.79 213.302L1127.45 207.592L1120.51 89.8196L1080.07 68.2986L1039.63 86.0469L1007.99 76.3416L999.188 73.64L958.746 84.3776L939.934 111.129L919.391 123.527L904.754 137.321L902.345 139.588L899.849 141.942L897.253 144.39L894.555 146.931L891.75 149.576L888.826 152.329L885.783 155.198L882.607 158.191L879.292 161.314L878.469 162.09L877.781 162.738L877.37 163.183L876.075 164.577L872.908 167.991L869.593 171.566L866.119 175.311L862.472 179.24L858.641 183.37L854.613 187.712L850.37 192.286L845.897 197.109L841.17 202.203L836.17 207.592L834.845 213.302L833.44 219.362L832.719 222.464L830.351 224.192L821.398 225.804L783.302 232.671H736.25H689.199H642.148H595.097H548.046L536.807 239.999H488.168L474.441 247.841H424.099L407.554 256.251H355.388L335.637 265.293L314.343 275.04L291.318 285.582L266.341 297.018L239.151 309.464L209.446 323.064L176.856 337.985L140.938 354.428L101.158 372.64L56.8559 392.92H1.7644" stroke="#1E2935" stroke-width="2" stroke-linecap="round" stroke-linejoin="round"/>
<path d="M1184.33 104.351L1192.63 158.406L1201.4 202.203" stroke="#1E2935" stroke-width="2" stroke-linecap="round" stroke-linejoin="round"/>
<path d="M1758.22 309.464H1704.46L1669.55 297.018H1608.53H1547.53H1486.52H1425.51H1364.5H1303.49H1242.48H1181.47L1169.25 285.582H1110.72L1052.19 284.608L993.66 285.582L935.131 283.92L876.603 285.582H818.074H759.546H701.017H642.489H583.96H525.432H466.903H408.375H349.846H291.318H232.789H174.26H115.732H57.2035H1.7644" stroke="#1E2935" stroke-width="2" stroke-linecap="round" stroke-linejoin="round"/>
<path d="M836.17 207.592H794.558H752.949H711.339H669.727H628.118H586.506L577.749 213.302H534.901L524.292 219.362H480.129H435.966H391.802H347.637H303.472H259.31H215.147L194.082 225.805H148.52L124.589 232.671H77.5399L50.4017 239.999H1.7644" stroke="#1E2935" stroke-width="2" stroke-linecap="round" stroke-linejoin="round"/>
<path d="M172.396 137.321L200.55 99.2002" stroke="#1E2935" stroke-width="2" stroke-linecap="round" stroke-linejoin="round"/>
<path d="M1434.63 97.5785L1446.11 142.839" stroke="#1E2935" stroke-width="2" stroke-linecap="round" stroke-linejoin="round"/>
<path d="M1655.42 323.064H1609.29H1542.63H1475.97H1409.31H1342.65H1275.99H1209.33L1194.79 309.464L1181.47 297.018H1120.46L1059.46 296.027L998.446 297.018H937.437H876.43H815.421H754.411H693.402H632.393H571.385H510.376H449.367H388.359H327.35H266.341H205.331H144.322H83.313H22.3037H1.7644" stroke="#1E2935" stroke-width="2" stroke-linecap="round" stroke-linejoin="round"/>
<path d="M1325.66 69.592L1288.36 94.8522" stroke="#1E2935" stroke-width="2" stroke-linecap="round" stroke-linejoin="round"/>
<path d="M1325.66 69.592L1362.96 92.3518L1400.26 100.243" stroke="#1E2935" stroke-width="2" stroke-linecap="round" stroke-linejoin="round"/>
<path d="M1758.22 337.985H1714.55H1694.73" stroke="#1E2935" stroke-width="2" stroke-linecap="round" stroke-linejoin="round"/>
<path d="M1074.62 25.246L1080.07 68.2986L1085.84 154.178L1091.94 213.302L1098.42 219.362L1105.31 225.805L1112.66 232.671L1120.5 239.999L1128.88 247.841H1179.22H1229.56L1242.21 256.251L1255.8 265.293H1309.93H1364.05H1418.18H1472.32H1526.44H1580.56L1607.9 275.04H1664.15L1696 285.582H1754.53L1758.22 286.724" stroke="#1E2935" stroke-width="2" stroke-linecap="round" stroke-linejoin="round"/>
<path d="M1736.91 167.984L1717.71 122.195L1699.35 83.0947" stroke="#1E2935" stroke-width="2" stroke-linecap="round" stroke-linejoin="round"/>
<path d="M1422.98 81.639L1433.19 91.8842L1436.27 94.9793L1453.24 112.038L1483.48 120.582L1496.42 147.419L1509.93 161.314H1541.5H1573.07H1604.65H1636.22L1667.78 134.379L1699.35 83.0947L1711.21 68.348L1714.73 63.9771L1730.92 43.8343" stroke="#1E2935" stroke-width="2" stroke-linecap="round" stroke-linejoin="round"/>
<path d="M1227.52 372.64H1184.94L1169.41 354.428H1095.95H1022.49H949.024H875.562H802.099H728.637H655.175H581.712H508.25H434.788H361.325H287.863H214.4H140.938H67.4758H1.7644" stroke="#1E2935" stroke-width="2" stroke-linecap="round" stroke-linejoin="round"/>
<path d="M1002.61 156.62L1044.22 152.152L1085.84 154.178L1127.44 207.592H1169.06H1210.67H1252.28L1263.34 213.302H1306.19L1319.24 219.362L1333.12 225.804L1347.91 232.671H1394.96H1442.01H1489.07L1509.61 239.999H1558.26L1581.96 247.841H1632.29L1659.54 256.251H1711.7L1742.94 265.293H1758.22" stroke="#1E2935" stroke-width="2" stroke-linecap="round" stroke-linejoin="round"/>
<path d="M902.345 139.588H878.808H851.949H825.091H798.23L796.663 141.942H769.292L767.134 144.39H739.232L736.437 146.931H707.986L704.504 149.576H675.478L671.255 152.329H641.631L636.61 155.198H606.364L600.477 158.191H569.582L562.759 161.314L555.629 164.577H523.35H491.07L482.133 167.991H449.113L438.982 171.566H405.186L393.755 175.311L381.76 179.24L369.159 183.37L355.905 187.712L341.947 192.286L327.226 197.109L311.679 202.203L295.231 207.592L277.804 213.302L259.31 219.362L239.644 225.805L218.691 232.671L196.324 239.999H147.683L122.05 247.841H71.7085L42.3931 256.251H1.7644" stroke="#1E2935" stroke-width="2" stroke-linecap="round" stroke-linejoin="round"/>
<path d="M1758.22 225.805H1743.17L1716.72 219.362H1672.56L1648.98 213.302H1606.13L1585.16 207.592H1543.55L1524.93 202.203H1484.48H1444.05H1403.61H1363.16H1322.72H1282.28H1241.84H1201.4" stroke="#1E2935" stroke-width="2" stroke-linecap="round" stroke-linejoin="round"/>
<path d="M999.188 73.64L1035.29 55.4647L1074.62 25.246L1113.96 1.76459" stroke="#1E2935" stroke-width="2" stroke-linecap="round" stroke-linejoin="round"/>
<path d="M1758.22 218.746L1734.68 213.302H1691.84L1668.38 207.592H1626.77L1605.81 202.203H1565.37L1546.67 197.109H1507.32H1467.99H1428.66H1389.31H1349.98H1310.64H1271.31" stroke="#1E2935" stroke-width="2" stroke-linecap="round" stroke-linejoin="round"/>
<path d="M1222.63 127.289L1260.92 132.059L1299.21 123.229L1337.5 114.505L1375.79 127.157L1414.07 192.286L1428.66 197.109L1444.05 202.203L1460.33 207.592L1477.59 213.302H1520.44H1563.28L1584.23 219.362H1628.39L1652.05 225.805H1697.62L1724.32 232.671H1758.22" stroke="#1E2935" stroke-width="2" stroke-linecap="round" stroke-linejoin="round"/>
<path d="M1459.47 143.65L1463.8 146.46L1478.36 147.326L1484.12 149.883L1509.93 161.314L1524.03 164.577L1538.8 167.991L1554.25 171.566L1570.44 175.311L1587.42 179.24L1605.28 183.37L1624.05 187.712L1643.81 192.286L1664.67 197.109L1686.7 202.203L1709.99 207.592H1751.6L1758.22 209.048" stroke="#1E2935" stroke-width="2" stroke-linecap="round" stroke-linejoin="round"/>
<path d="M1758.22 207.592H1751.6L1727.15 202.203H1686.7H1646.26L1625.34 197.109H1586H1546.67L1528.95 192.286H1490.66H1452.37H1414.07" stroke="#1E2935" stroke-width="2" stroke-linecap="round" stroke-linejoin="round"/>
<path d="M873.227 508.84L873.303 503.882L873.808 470.441L874.249 441.286L874.637 415.647L874.979 392.92L875.286 372.64L875.562 354.428L875.81 337.985L876.036 323.064L876.243 309.464L876.43 297.018L876.603 285.582L876.761 275.04L876.91 265.293L877.046 253.828L877.173 226.537L877.291 188.425" stroke="#1E2935" stroke-width="2" stroke-linecap="round" stroke-linejoin="round"/>
<path d="M876.075 164.577H846.151H813.871H781.592H749.312H717.031H684.751H652.472H620.19L614.216 167.991L607.959 171.566L601.403 175.311L594.524 179.24L587.297 183.37L579.696 187.712H542.396L522.159 179.902L505.099 173.32L503.158 173.723L501.102 173.843L478.227 175.191L478.015 175.311L467.799 181.056L456.82 192.286L445.236 197.109L433.004 202.203L420.062 207.592L406.353 213.302L391.802 219.362L376.328 225.805L359.843 232.671L342.245 239.999L323.415 247.841L303.224 256.251H251.056L227.383 265.293L201.859 275.04L174.26 285.582L144.322 297.018L111.734 309.464L76.1284 323.064L37.0646 337.985L1.7644 351.467" stroke="#1E2935" stroke-width="2" stroke-linecap="round" stroke-linejoin="round"/>
<path d="M1437.56 183.962L1474.85 187.712H1512.15L1528.95 192.286H1567.24H1605.53H1643.81H1682.11H1720.4H1758.22" stroke="#1E2935" stroke-width="2" stroke-linecap="round" stroke-linejoin="round"/>
<path d="M854.613 187.712H840.784H803.486H766.187H728.889H691.59H654.292H616.993H579.696L571.689 192.286L563.246 197.109H523.909H484.574H445.236H405.899H366.562H327.226H287.889L271.235 202.203H230.795L212.01 207.592H170.398L149.257 213.302H106.407H63.5588L38.4903 219.362H1.7644" stroke="#1E2935" stroke-width="2" stroke-linecap="round" stroke-linejoin="round"/>
<path d="M1459.84 183.37H1496.21H1532.56H1568.91H1605.28H1641.63H1677.98H1714.35H1750.7H1758.22" stroke="#1E2935" stroke-width="2" stroke-linecap="round" stroke-linejoin="round"/>
<path d="M236.207 171.566L202.411 159.269L168.616 170.574" stroke="#1E2935" stroke-width="2" stroke-linecap="round" stroke-linejoin="round"/>
<path d="M1222.63 127.289L1213.77 92.8159" stroke="#1E2935" stroke-width="2" stroke-linecap="round" stroke-linejoin="round"/>
<path d="M250.989 92.11L284.011 109.516L292.258 112.795" stroke="#1E2935" stroke-width="2" stroke-linecap="round" stroke-linejoin="round"/>
<path d="M1035.29 55.4647L1007.99 76.3416" stroke="#1E2935" stroke-width="2" stroke-linecap="round" stroke-linejoin="round"/>
<path d="M460.223 179.24L441.872 183.37H405.514H369.159H332.802H296.447H260.09H223.734H187.377H151.022L132.116 187.712H94.8186H57.5193L35.6249 192.286H1.7644" stroke="#1E2935" stroke-width="2" stroke-linecap="round" stroke-linejoin="round"/>
<path d="M1181.9 101.618L1213.77 92.8159L1251.06 86.5957L1288.36 94.8522L1299.21 123.229L1310.64 197.109L1322.72 202.203L1335.5 207.592H1377.1H1418.71L1434.74 213.302H1477.59L1495.89 219.362H1540.06H1584.23L1606.49 225.805H1652.05L1677.27 232.671H1724.32L1752.83 239.999H1758.22" stroke="#1E2935" stroke-width="2" stroke-linecap="round" stroke-linejoin="round"/>
<path d="M821.398 225.805H786.382H740.822H695.26H649.698H604.136H558.574L548.046 232.671H500.996L488.168 239.999H439.527H390.886H342.245H293.604L273.075 247.841H222.734L198.891 256.251H146.725L119.128 265.293H65.0021L33.1336 275.04L1.7644 284.638" stroke="#1E2935" stroke-width="2" stroke-linecap="round" stroke-linejoin="round"/>
<path d="M981.376 233.078L985.162 265.293L989.245 275.04L993.66 285.582L998.447 297.018L1003.66 309.464L1009.35 323.064L1015.6 337.985L1022.49 354.428L1030.11 372.64L1038.61 392.92L1048.12 415.647L1058.86 441.286L1071.07 470.441L1085.07 503.882L1087.14 508.84" stroke="#1E2935" stroke-width="2" stroke-linecap="round" stroke-linejoin="round"/>
<path d="M1.7644 171.566H33.4318H67.227H101.024L118.908 167.991L135.989 164.577L144.897 161.314L153.423 158.191L158.24 156.426" stroke="#1E2935" stroke-width="2" stroke-linecap="round" stroke-linejoin="round"/>
<path d="M931.036 242.379L933.003 273.985L935.131 283.92L937.437 297.018L939.951 309.464L942.695 323.064L945.707 337.985L949.024 354.428L952.699 372.64L956.793 392.92L961.378 415.647L966.553 441.286L972.436 470.441L979.185 503.882L980.187 508.84" stroke="#1E2935" stroke-width="2" stroke-linecap="round" stroke-linejoin="round"/>
<path d="M1743.57 14.879L1758.22 42.5267" stroke="#1E2935" stroke-width="2" stroke-linecap="round" stroke-linejoin="round"/>
<path d="M1174.1 92.8724L1153.3 69.5427" stroke="#1E2935" stroke-width="2" stroke-linecap="round" stroke-linejoin="round"/>
<path d="M904.63 202.835L877.737 188.66L877.291 188.425" stroke="#1E2935" stroke-width="2" stroke-linecap="round" stroke-linejoin="round"/>
<path d="M1035.29 55.4647L1039.63 86.0469L1044.22 152.152L1049.09 213.302L1054.26 219.362L1059.75 225.805L1065.61 232.671L1071.85 239.999L1078.54 247.841H1128.88L1137.87 256.251L1147.55 265.293L1157.97 275.04H1214.21H1270.45H1326.7H1382.94H1439.18H1495.43H1551.66H1607.9L1637.47 285.582H1696L1730.55 297.018H1758.22" stroke="#1E2935" stroke-width="2" stroke-linecap="round" stroke-linejoin="round"/>
<path d="M1349.98 197.109L1337.5 114.505L1325.66 69.592L1314.42 41.3056" stroke="#1E2935" stroke-width="2" stroke-linecap="round" stroke-linejoin="round"/>
<path d="M1483.48 120.582L1513.73 117.289L1543.97 133.866L1548 139.588L1549.65 141.942L1558.21 154.128L1573.07 161.314L1588.59 164.577L1604.82 167.991L1621.83 171.566L1639.65 175.311L1658.34 179.24L1677.98 183.37L1698.65 187.712L1720.4 192.286L1743.35 197.109L1758.22 200.236" stroke="#1E2935" stroke-width="2" stroke-linecap="round" stroke-linejoin="round"/>
<path d="M1.7644 155.198H31.7009H61.9462H92.1914H122.437H152.682L160.265 153.746" stroke="#1E2935" stroke-width="2" stroke-linecap="round" stroke-linejoin="round"/>
<path d="M904.754 137.321H878.843H852.476H826.107H799.74L798.23 139.588H771.371L769.292 141.942H741.923L739.232 144.39H711.332L707.986 146.931H679.534L675.478 149.576H646.451L641.631 152.329H612.009L606.364 155.198H576.119L569.582 158.191H538.687H507.793L499.615 161.314L491.07 164.577H458.79L449.113 167.991H416.092L405.186 171.566H371.389L359.146 175.311H324.538H289.929L255.32 169.2L239.917 179.24L223.734 183.37L206.713 187.712L188.787 192.286L169.881 197.109L149.912 202.203L128.788 207.592L106.407 213.302L82.6531 219.362L57.3958 225.804L30.4887 232.671L1.7644 239.999" stroke="#1E2935" stroke-width="2" stroke-linecap="round" stroke-linejoin="round"/>
<path d="M841.17 202.203H837.421H796.979H756.537H716.096H675.654H635.212H594.771L586.506 207.592H544.895L534.901 213.302H492.051H449.201H406.353H363.502H320.654H277.804H234.956L215.147 219.362H170.982L148.52 225.805H102.958L77.5399 232.671H30.4887H1.7644" stroke="#1E2935" stroke-width="2" stroke-linecap="round" stroke-linejoin="round"/>
<path d="M1730.92 43.8343L1712.68 65.9252" stroke="#1E2935" stroke-width="2" stroke-linecap="round" stroke-linejoin="round"/>
<path d="M1730.92 43.8343L1758.22 49.6822" stroke="#1E2935" stroke-width="2" stroke-linecap="round" stroke-linejoin="round"/>
<path d="M1513.73 117.289L1527.32 141.228L1541.5 161.314L1556.32 164.577L1571.81 167.991H1604.82H1637.85L1655.62 171.566H1689.42L1708.87 175.311H1743.47L1758.22 178.037" stroke="#1E2935" stroke-width="2" stroke-linecap="round" stroke-linejoin="round"/>
<path d="M1621.06 149.576H1604.3L1590.01 146.931H1562.5" stroke="#1E2935" stroke-width="2" stroke-linecap="round" stroke-linejoin="round"/>
<path d="M1434.63 97.5785L1420.23 120.497" stroke="#1E2935" stroke-width="2" stroke-linecap="round" stroke-linejoin="round"/>
<path d="M1438.94 142.403L1432.61 142.018" stroke="#1E2935" stroke-width="2" stroke-linecap="round" stroke-linejoin="round"/>
<path d="M1.7644 202.203H28.5867H69.0284L91.2069 197.109H130.544H169.881H209.217L227.076 192.286H265.367H303.658L318.607 187.712H355.905H393.204H430.502L454.838 183.37L467.799 181.056L495.5 175.311L499.641 174.451L503.158 173.723" stroke="#1E2935" stroke-width="2" stroke-linecap="round" stroke-linejoin="round"/>
<path d="M232.83 69.8162L244.471 75.5476L265.109 85.7134L285.003 105.558L292.258 112.795L302.513 116.874L317.03 122.648L327.715 137.321L332.864 144.39L335.223 147.629L336.638 149.571L346.128 155.198L361.95 164.577H394.229L404.899 161.314L415.109 158.191H446.004L455.136 155.198H485.383L493.517 152.329H523.14L530.349 149.576H559.375H588.399L594.178 146.931H622.629L627.631 144.39H655.531L659.811 141.942H687.182L690.792 139.588L694.27 137.321H720.639H747.006" stroke="#1E2935" stroke-width="2" stroke-linecap="round" stroke-linejoin="round"/>
<path d="M877.781 162.738L877.737 188.66" stroke="#1E2935" stroke-width="2" stroke-linecap="round" stroke-linejoin="round"/>
<path d="M1758.22 372.64H1732.58" stroke="#1E2935" stroke-width="2" stroke-linecap="round" stroke-linejoin="round"/>
<path d="M1563.97 147.965L1566.62 147.906" stroke="#1E2935" stroke-width="2" stroke-linecap="round" stroke-linejoin="round"/>
<path d="M359.617 149.576H385.22H414.245H443.271H472.297H501.323L508.822 146.931L516.027 144.39L522.96 141.942L529.636 139.588L536.066 137.321" stroke="#1E2935" stroke-width="2" stroke-linecap="round" stroke-linejoin="round"/>
<path d="M166.317 170.642L134.819 171.566H101.024L82.2808 175.311H47.6722L27.1523 179.24H1.7644" stroke="#1E2935" stroke-width="2" stroke-linecap="round" stroke-linejoin="round"/>
<path d="M1735.05 376.111L1758.22 385.881" stroke="#1E2935" stroke-width="2" stroke-linecap="round" stroke-linejoin="round"/>
<path d="M1552.09 139.588H1577.15H1604.02H1630.88H1632.62" stroke="#1E2935" stroke-width="2" stroke-linecap="round" stroke-linejoin="round"/>
<path d="M1.7644 161.314H26.0337H57.6057H89.1778H120.75H140.534" stroke="#1E2935" stroke-width="2" stroke-linecap="round" stroke-linejoin="round"/>
<path d="M1453.24 112.038L1465.53 132.706L1478.36 147.326L1491.75 164.577H1524.03H1556.32H1588.59H1620.88H1653.15L1685.44 149.593L1717.71 122.195L1750 122.784L1758.22 114.441" stroke="#1E2935" stroke-width="2" stroke-linecap="round" stroke-linejoin="round"/>
<path d="M1574.21 155.198H1598.14" stroke="#1E2935" stroke-width="2" stroke-linecap="round" stroke-linejoin="round"/>
<path d="M1457.13 179.24H1481.05H1516.51H1551.97H1587.42H1622.88H1658.34H1693.8H1729.27H1758.22" stroke="#1E2935" stroke-width="2" stroke-linecap="round" stroke-linejoin="round"/>
<path d="M894.555 146.931H878.697H850.246H821.795H793.343L791.58 149.576H762.556L760.124 152.329H730.502L727.345 155.198H697.1L693.16 158.191H662.266L657.475 161.314L652.472 164.577L647.237 167.991L641.755 171.566L636.012 175.311L629.984 179.24L623.654 183.37H587.297H550.939L536.397 179.24L528.498 176.999L514.584 173.048L505.021 173.468L495.11 192.286L484.574 197.109L473.445 202.203L461.673 207.592L449.201 213.302L435.966 219.362L421.89 225.804L406.894 232.671L390.886 239.999L373.757 247.841L355.388 256.251H303.224L281.509 265.293L258.101 275.04L232.789 285.582L205.331 297.018L175.443 309.464L142.787 323.064L106.959 337.985L67.4758 354.428L23.7452 372.64L1.7644 381.793" stroke="#1E2935" stroke-width="2" stroke-linecap="round" stroke-linejoin="round"/>
<path d="M1.7644 146.931H25.1356L41.7174 144.39H69.6177L85.0386 141.942H112.408L126.742 139.588L140.552 137.321" stroke="#1E2935" stroke-width="2" stroke-linecap="round" stroke-linejoin="round"/>
<path d="M1758.22 197.109H1743.35H1704.01L1682.11 192.286L1661.35 187.712L1641.63 183.37L1622.88 179.24L1605.05 175.311L1588.04 171.566L1571.81 167.991H1538.8H1505.77H1472.75H1449.72" stroke="#1E2935" stroke-width="2" stroke-linecap="round" stroke-linejoin="round"/>
<path d="M536.397 179.24H559.063H594.524H629.984H665.445H700.906H736.367H771.828H807.288H842.749H862.472" stroke="#1E2935" stroke-width="2" stroke-linecap="round" stroke-linejoin="round"/>
<path d="M1422.98 81.6389L1411.68 100.37" stroke="#1E2935" stroke-width="2" stroke-linecap="round" stroke-linejoin="round"/>
<path d="M903.178 254.172L876.91 265.293H822.782H768.655H714.527H660.401H606.273H552.146H498.018H443.892H389.765H335.637H281.509H227.383H173.257H119.128L89.3754 275.04L57.2035 285.582L22.3037 297.018L1.7644 303.748" stroke="#1E2935" stroke-width="2" stroke-linecap="round" stroke-linejoin="round"/>
<path d="M1699.35 83.0947L1681.78 95.3022" stroke="#1E2935" stroke-width="2" stroke-linecap="round" stroke-linejoin="round"/>
<path d="M1736.91 167.984L1758.22 167.989" stroke="#1E2935" stroke-width="2" stroke-linecap="round" stroke-linejoin="round"/>
<path d="M1278.07 76.9998L1288.36 94.8522" stroke="#1E2935" stroke-width="2" stroke-linecap="round" stroke-linejoin="round"/>
<path d="M836.974 219.362H833.44H789.276H745.111H700.948H656.784H612.621H568.456L558.574 225.805H513.014L500.996 232.671H453.945H406.894H359.843H312.792H265.743H218.691H171.64L147.683 239.999H99.0425L71.7085 247.841H21.3668L1.7644 253.136" stroke="#1E2935" stroke-width="2" stroke-linecap="round" stroke-linejoin="round"/>
<path d="M1650.89 123.8L1667.78 134.379L1685.44 149.593L1703.9 167.991L1736.91 167.984L1757.01 171.566H1758.22" stroke="#1E2935" stroke-width="2" stroke-linecap="round" stroke-linejoin="round"/>
<path d="M1591.39 382.649L1572 372.64L1536.72 354.428L1504.88 337.985L1475.97 323.064L1449.63 309.464L1425.51 297.018L1403.36 285.582L1382.94 275.04L1364.05 265.293L1346.54 256.251L1330.25 247.841L1315.06 239.999H1266.42H1217.77H1169.14H1120.5H1071.85H1023.21H1003.33" stroke="#1E2935" stroke-width="2" stroke-linecap="round" stroke-linejoin="round"/>
<path d="M1422.98 81.6389L1434.63 97.5785L1445.4 109.825L1465.53 132.706L1467.87 133.818L1496.42 147.419L1527.32 141.227L1558.22 154.128L1569.17 155.198L1574.63 155.484L1589.1 157.142L1598.14 155.198L1602.63 154.234L1614.85 151.605L1615.04 151.563L1620 150.499L1621.06 149.576L1623.16 147.767L1624.12 146.931L1627.07 144.39L1627.9 143.677L1629.9 141.942L1632.35 139.83L1632.62 139.588L1635.24 137.321L1650.89 123.8L1681.78 95.3022L1697.89 79.9837L1706.04 72.2442L1712.68 65.9252L1729.53 38.0746L1743.57 14.879" stroke="#1E2935" stroke-width="2" stroke-linecap="round" stroke-linejoin="round"/>
<path d="M845.286 213.302H834.845H791.996H749.146H706.298H663.448H620.6H577.749L568.456 219.362H524.292L513.014 225.805H467.452H421.89H376.328H330.766H285.206H239.644H194.082L171.64 232.671H124.589L99.0426 239.999H50.4017L21.3668 247.841H1.7644" stroke="#1E2935" stroke-width="2" stroke-linecap="round" stroke-linejoin="round"/>
<path d="M1620 150.499L1636.22 161.314L1653.15 164.577L1670.87 167.991H1703.9L1723.22 171.566H1757.01L1758.22 171.78" stroke="#1E2935" stroke-width="2" stroke-linecap="round" stroke-linejoin="round"/>
<path d="M850.37 192.286H839.722H801.432H763.142H724.852H686.561H648.271H609.98H571.689H533.4H495.11H456.82H418.529H380.238H341.947H303.658L287.889 197.109H248.554L230.795 202.203H190.352L170.398 207.592H128.788H87.177L63.5588 213.302H20.7087L1.7644 217.654" stroke="#1E2935" stroke-width="2" stroke-linecap="round" stroke-linejoin="round"/>
<path d="M375.67 155.198H394.646L404.646 152.329L414.245 149.576L423.464 146.931L432.326 144.39L440.85 141.942L449.058 139.588L456.962 137.321" stroke="#1E2935" stroke-width="2" stroke-linecap="round" stroke-linejoin="round"/>
<path d="M799.74 137.321H773.373H747.006L744.511 139.588L741.923 141.942H714.552L711.332 144.39H683.433L679.534 146.931H651.081L646.451 149.576H617.425L612.009 152.329H582.386L576.119 155.198H545.872H515.629L507.793 158.191H476.898L468.043 161.314L458.79 164.577H426.511L416.092 167.991H383.071L371.389 171.566H337.594H303.799L270.002 165.304L255.32 169.2L238.073 172.244L236.11 172.087L220.713 175.311L204.456 179.24L187.377 183.37L169.415 187.712L150.496 192.286L130.544 197.109L109.47 202.203L87.177 207.592H45.5673L20.7087 213.302H1.7644" stroke="#1E2935" stroke-width="2" stroke-linecap="round" stroke-linejoin="round"/>
<path d="M1.7644 191.4L20.2217 187.712H57.5193L78.3091 183.37H114.665H151.022L168.996 179.24H204.456H239.917H275.378L289.929 175.311L303.799 171.566L317.03 122.648" stroke="#1E2935" stroke-width="2" stroke-linecap="round" stroke-linejoin="round"/>
<path d="M1743.57 14.879L1758.22 26.1918" stroke="#1E2935" stroke-width="2" stroke-linecap="round" stroke-linejoin="round"/>
<path d="M1.7644 187.712H20.2217L41.952 183.37H78.3091L98.0739 179.24H133.535H168.996L186.105 175.311H220.713L236.11 172.087L252.076 168.625L270.002 165.304" stroke="#1E2935" stroke-width="2" stroke-linecap="round" stroke-linejoin="round"/>
<path d="M168.983 141.942H167.148L153.319 144.39L138.943 146.931L123.988 149.576L108.417 152.329L92.1914 155.198L75.2691 158.191L57.6057 161.314L39.1484 164.577L19.8459 167.991L1.7644 171.189" stroke="#1E2935" stroke-width="2" stroke-linecap="round" stroke-linejoin="round"/>
<path d="M1.7644 167.991H19.8459H52.8666H85.8872H118.908L143.796 165.762" stroke="#1E2935" stroke-width="2" stroke-linecap="round" stroke-linejoin="round"/>
<path d="M165.297 146.931H138.943H110.492H82.0391H53.5864L36.9111 149.576L19.5477 152.329L1.7644 155.148" stroke="#1E2935" stroke-width="2" stroke-linecap="round" stroke-linejoin="round"/>
<path d="M1.7644 152.329H19.5477H49.1702H78.7926H108.417H138.039H161.312" stroke="#1E2935" stroke-width="2" stroke-linecap="round" stroke-linejoin="round"/>
<path d="M1623.16 147.767L1618.45 146.931H1590.01L1576.25 144.39H1558.89" stroke="#1E2935" stroke-width="2" stroke-linecap="round" stroke-linejoin="round"/>
<path d="M1.7644 130.368L19.3042 139.588H46.1636H73.023H99.8824H126.742H153.603H170.721" stroke="#1E2935" stroke-width="2" stroke-linecap="round" stroke-linejoin="round"/>
<path d="M335.045 137.321H351.492H377.859H404.227H430.594H456.962H483.331H509.699H536.066H562.433H588.8H615.169H641.536H667.903H694.27" stroke="#1E2935" stroke-width="2" stroke-linecap="round" stroke-linejoin="round"/>
<path d="M367.846 158.191H384.215L394.646 155.198H424.891L434.271 152.329H463.893L472.297 149.576L480.369 146.931L488.127 144.39L495.59 141.942L502.775 139.588L509.698 137.321" stroke="#1E2935" stroke-width="2" stroke-linecap="round" stroke-linejoin="round"/>
<path d="M342.635 141.942H358.74H386.11H413.481H440.85H468.221H495.59H522.96H550.332H577.702H605.071H632.442H659.811L663.933 139.588L667.903 137.321" stroke="#1E2935" stroke-width="2" stroke-linecap="round" stroke-linejoin="round"/>
<path d="M766.27 508.84L767.422 503.882L775.18 470.441L781.945 441.286L787.894 415.647L793.168 392.92L797.874 372.64L802.099 354.428L805.916 337.985L809.377 323.064L812.532 309.464L815.421 297.018L818.074 285.582L820.52 275.04L822.782 265.293L824.881 256.251L826.833 247.841L828.652 239.999L830.351 224.192" stroke="#1E2935" stroke-width="2" stroke-linecap="round" stroke-linejoin="round"/>
<path d="M1668.97 320.371L1675.95 323.064H1742.61H1758.22" stroke="#1E2935" stroke-width="2" stroke-linecap="round" stroke-linejoin="round"/>
<path d="M1548.88 137.321H1564.4H1590.76H1617.13H1635.24" stroke="#1E2935" stroke-width="2" stroke-linecap="round" stroke-linejoin="round"/>
<path d="M1758.22 269.715L1742.94 265.293H1688.82L1659.54 256.251H1607.37L1581.96 247.841H1531.61L1509.61 239.999H1460.97H1412.34H1363.7H1315.06L1300.86 232.671L1287.56 225.805L1275.08 219.362L1263.34 213.302H1220.49H1177.64H1134.79H1091.94H1049.09H1006.24L963.393 212.842L948.509 208.476" stroke="#1E2935" stroke-width="2" stroke-linecap="round" stroke-linejoin="round"/>
<path d="M1271.31 197.109L1260.92 132.059L1251.06 86.5957L1241.71 74.2947" stroke="#1E2935" stroke-width="2" stroke-linecap="round" stroke-linejoin="round"/>
<path d="M232.83 69.8162L247.038 75.1999L278.61 70.9032" stroke="#1E2935" stroke-width="2" stroke-linecap="round" stroke-linejoin="round"/>
<path d="M1602.63 154.234L1593.73 149.576L1589.57 147.402" stroke="#1E2935" stroke-width="2" stroke-linecap="round" stroke-linejoin="round"/>
<path d="M352.066 146.931H366.56H395.013H423.464H451.916H480.369H508.822H537.272L543.928 144.39L550.333 141.942L556.496 139.588L562.433 137.321" stroke="#1E2935" stroke-width="2" stroke-linecap="round" stroke-linejoin="round"/>
<path d="M958.746 84.3776L961.002 98.4167L963.393 212.842L965.93 219.362L968.63 225.805L971.504 232.671L972.372 234.744" stroke="#1E2935" stroke-width="2" stroke-linecap="round" stroke-linejoin="round"/>
<path d="M1349.98 197.109L1363.16 202.203L1377.1 207.592L1391.88 213.302L1407.56 219.362L1424.25 225.805L1442.01 232.671L1460.97 239.999L1481.27 247.841L1503.04 256.251L1526.44 265.293L1551.66 275.04L1578.94 285.582L1608.53 297.018L1640.75 309.464L1661.45 317.461" stroke="#1E2935" stroke-width="2" stroke-linecap="round" stroke-linejoin="round"/>
<path d="M1617.13 137.321L1630.88 139.588L1632.35 139.83" stroke="#1E2935" stroke-width="2" stroke-linecap="round" stroke-linejoin="round"/>
<path d="M1627.9 143.677L1617.78 141.942L1604.02 139.588L1590.76 137.321" stroke="#1E2935" stroke-width="2" stroke-linecap="round" stroke-linejoin="round"/>
<path d="M891.75 149.576H878.658H849.632H820.606H791.58L789.747 152.329H760.124L757.591 155.198H727.345L724.055 158.191H693.16L689.047 161.314L684.751 164.577L680.255 167.991L675.552 171.566L670.62 175.311L665.445 179.24L660.009 183.37L654.292 187.712L648.271 192.286L641.92 197.109L635.212 202.203L628.118 207.592L620.599 213.302L612.621 219.362L604.136 225.805L595.097 232.671L585.449 239.999H536.807L524.782 247.841H474.441L459.72 256.251L443.892 265.293L426.827 275.04L408.375 285.582L388.359 297.018L366.569 309.464L342.764 323.064L316.645 337.985L287.863 354.428L255.984 372.64L220.481 392.92H138.669L93.9576 415.647H7.21638L1.7644 418.142" stroke="#1E2935" stroke-width="2" stroke-linecap="round" stroke-linejoin="round"/>
<path d="M1564.4 137.321L1577.15 139.588L1590.4 141.942L1604.15 144.39L1618.45 146.931H1624.12" stroke="#1E2935" stroke-width="2" stroke-linecap="round" stroke-linejoin="round"/>
<path d="M641.536 137.321L637.074 139.588L632.442 141.942L627.631 144.39H599.73L594.178 146.931H565.725H537.272L530.349 149.576H501.323L493.517 152.329H463.893L455.136 155.198H424.891L415.109 158.191H384.215L373.327 161.314L361.95 164.577L350.051 167.991" stroke="#1E2935" stroke-width="2" stroke-linecap="round" stroke-linejoin="round"/>
<path d="M1.7644 146.177L13.8152 144.39H41.7174L57.6675 141.942H85.0385L99.8824 139.588L114.185 137.321" stroke="#1E2935" stroke-width="2" stroke-linecap="round" stroke-linejoin="round"/>
<path d="M1758.22 184.818L1750.7 183.37L1729.27 179.24L1708.87 175.311H1674.26H1639.65H1605.05H1570.44H1535.83H1501.22H1466.61H1454.54" stroke="#1E2935" stroke-width="2" stroke-linecap="round" stroke-linejoin="round"/>
<path d="M1.7644 144.39H13.8152L30.2982 141.942H57.6675L73.023 139.588L87.8175 137.321" stroke="#1E2935" stroke-width="2" stroke-linecap="round" stroke-linejoin="round"/>
<path d="M167.176 144.39H153.319H125.419H97.5181L82.0391 146.931L65.9354 149.576L49.1702 152.329L31.7009 155.198L13.48 158.191L1.7644 160.116" stroke="#1E2935" stroke-width="2" stroke-linecap="round" stroke-linejoin="round"/>
<path d="M1.7644 158.191H13.48H44.3745H75.2691H106.164H137.058H150.651" stroke="#1E2935" stroke-width="2" stroke-linecap="round" stroke-linejoin="round"/>
<path d="M1621.72 354.428H1610.18H1536.72H1463.26H1389.79H1316.34L1295.18 337.985H1225.29L1209.33 323.064H1142.67H1076.01H1009.35H942.695H876.036H809.377H742.719H676.06H609.401H542.742H476.083H409.423H342.764H276.105H209.446H142.787H76.1284H9.46775H1.7644" stroke="#1E2935" stroke-width="2" stroke-linecap="round" stroke-linejoin="round"/>
<path d="M163.344 149.576H153.014L138.039 152.329L122.437 155.198L106.164 158.191L89.1778 161.314L71.428 164.577L52.8666 167.991L33.4318 171.566L13.0636 175.311L1.7644 177.388" stroke="#1E2935" stroke-width="2" stroke-linecap="round" stroke-linejoin="round"/>
<path d="M1.7644 175.311H13.0636H47.6722L67.227 171.566L85.8872 167.991L103.709 164.577L120.75 161.314L137.058 158.191L152.682 155.198H159.193" stroke="#1E2935" stroke-width="2" stroke-linecap="round" stroke-linejoin="round"/>
<path d="M1758.22 392.92H1747.06" stroke="#1E2935" stroke-width="2" stroke-linecap="round" stroke-linejoin="round"/>
<path d="M1.7644 199.357L12.5325 197.109H51.8697H91.2069L112.205 192.286H150.496H188.787H227.076L244.012 187.712H281.31H318.607L332.802 183.37L346.298 179.24H381.76H417.219H452.682H460.223L477.694 175.311L478.227 175.191" stroke="#1E2935" stroke-width="2" stroke-linecap="round" stroke-linejoin="round"/>
<path d="M477.694 175.311H462.97H428.363H393.755H359.146L346.298 179.24H310.839H275.378L260.089 183.37L244.012 187.712H206.713H169.415H132.116L112.205 192.286H73.9158H35.6249L12.5325 197.109H1.7644" stroke="#1E2935" stroke-width="2" stroke-linecap="round" stroke-linejoin="round"/>
<path d="M1552.72 140.038L1563.02 141.942H1590.4H1617.78H1629.9" stroke="#1E2935" stroke-width="2" stroke-linecap="round" stroke-linejoin="round"/>
<path d="M858.641 183.37H841.791H805.434H769.079H732.722H696.366H660.009H623.654L616.993 187.712L609.98 192.286L602.583 197.109L594.771 202.203H554.329L544.895 207.592H503.285H461.673H420.062H378.452H336.841H295.231H253.621L234.956 213.302H192.106L170.982 219.362H126.818L102.958 225.805H57.3958H11.8356L1.7644 228.24" stroke="#1E2935" stroke-width="2" stroke-linecap="round" stroke-linejoin="round"/>
<path d="M845.897 197.109H838.603H799.267H759.93H720.593H681.256H641.92H602.583H563.246L554.329 202.203H513.887H473.445H433.004H392.562H352.12H311.679H271.235L253.621 207.592H212.01L192.106 213.302H149.257L126.818 219.362H82.6531H38.4903L11.8356 225.805H1.7644" stroke="#1E2935" stroke-width="2" stroke-linecap="round" stroke-linejoin="round"/>
<path d="M877.291 188.425L873.651 192.286L872.643 193.354L853.83 213.302L843.587 224.162L828.652 239.999H780.011H731.37H682.729H634.088L625.466 247.841H575.124L564.051 256.251L552.146 265.293L539.31 275.04L525.432 285.582L510.376 297.018L493.988 309.464L476.083 323.064L456.437 337.985L434.788 354.428L410.809 372.64L384.105 392.92L354.183 415.647H267.444H180.701L135.818 441.286L84.7845 470.441L26.2454 503.882L17.5681 508.84" stroke="#1E2935" stroke-width="2" stroke-linecap="round" stroke-linejoin="round"/>
<path d="M872.908 167.991H845.359H812.34H779.317H746.297H713.278H680.255H647.237H614.216H581.195H548.175L540.369 171.566H506.572H472.777L462.97 175.311L452.682 179.24L441.872 183.37L430.502 187.712L418.529 192.286L405.899 197.109L392.562 202.203L378.452 207.592L363.502 213.302L347.637 219.362L330.766 225.804L312.792 232.671L293.604 239.999H244.965L222.734 247.841H172.392L146.725 256.251H94.5592L65.0021 265.293H10.874L1.7644 267.906" stroke="#1E2935" stroke-width="2" stroke-linecap="round" stroke-linejoin="round"/>
<path d="M899.849 141.942H878.773H851.404H824.033H796.663L795.035 144.39H767.134L764.89 146.931H736.437L733.53 149.576H704.504L700.878 152.329H671.255L666.855 155.198H636.61L631.371 158.191H600.477L594.331 161.314L587.911 164.577H555.629L548.175 167.991H515.154H482.133L472.777 171.566H438.982L428.363 175.311L417.219 179.24L405.514 183.37L393.204 187.712L380.238 192.286L366.562 197.109L352.12 202.203L336.841 207.592L320.654 213.302L303.472 219.362L285.206 225.805L265.743 232.671L244.965 239.999H196.324L172.392 247.841H122.05L94.5592 256.251H42.3931L10.874 265.293H1.7644" stroke="#1E2935" stroke-width="2" stroke-linecap="round" stroke-linejoin="round"/>
<path d="M1430.77 139.223L1438.94 142.403L1446.11 142.839L1459.47 143.65L1460.92 146.287L1472.75 167.991L1486.65 171.566L1501.22 175.311L1516.51 179.24L1532.56 183.37L1549.45 187.712L1567.24 192.286L1586 197.109L1605.81 202.203H1646.26L1668.38 207.592H1709.99L1734.68 213.302H1758.22" stroke="#1E2935" stroke-width="2" stroke-linecap="round" stroke-linejoin="round"/>
<path d="M358.174 149.069L366.56 146.931L376.525 144.39L386.11 141.942L395.337 139.588L404.226 137.321" stroke="#1E2935" stroke-width="2" stroke-linecap="round" stroke-linejoin="round"/>
<path d="M1205.35 91.0548L1213.77 92.8159" stroke="#1E2935" stroke-width="2" stroke-linecap="round" stroke-linejoin="round"/>
<path d="M1758.22 256.251H1711.7L1682.64 247.841H1632.29L1606.9 239.999H1558.26L1536.12 232.671H1489.07L1469.8 225.805H1424.25H1378.68L1363.41 219.362H1319.24H1275.08H1230.91H1186.75H1142.59H1098.42H1054.26H1010.09H965.93H957.511" stroke="#1E2935" stroke-width="2" stroke-linecap="round" stroke-linejoin="round"/>
<path d="M897.253 144.39H878.736H850.836H822.935H795.035L793.343 146.931H764.89L762.556 149.576H733.53L730.502 152.329H700.878L697.1 155.198H666.855L662.266 158.191H631.371L625.903 161.314L620.19 164.577H587.911L581.195 167.991L574.164 171.566L566.794 175.311L559.063 179.24L550.939 183.37L542.396 187.712L533.4 192.286L523.909 197.109L513.887 202.203L503.285 207.592L492.051 213.302L480.129 219.362L467.452 225.805L453.945 232.671L439.527 239.999L424.099 247.841H373.757H323.415H273.075L251.056 256.251H198.891L173.257 265.293L145.617 275.04L115.732 285.582L83.313 297.018L48.0251 309.464L9.46775 323.064L1.7644 325.781" stroke="#1E2935" stroke-width="2" stroke-linecap="round" stroke-linejoin="round"/>
<path d="M302.513 116.874L310.182 115.316" stroke="#1E2935" stroke-width="2" stroke-linecap="round" stroke-linejoin="round"/>
<path d="M1555.43 141.942H1563.02L1576.25 144.39H1604.15H1627.07" stroke="#1E2935" stroke-width="2" stroke-linecap="round" stroke-linejoin="round"/>
<path d="M367.479 152.329H375.024H404.646H434.271L443.271 149.576L451.916 146.931L460.227 144.39L468.221 141.942L475.916 139.588L483.331 137.321" stroke="#1E2935" stroke-width="2" stroke-linecap="round" stroke-linejoin="round"/>
<path d="M1.7644 503.882H26.2454H132.129H238.01H343.893H449.774H555.656L577.924 470.441L597.338 441.286L614.41 415.647L629.543 392.92L643.048 372.64L655.175 354.428L666.123 337.985L676.06 323.064L685.115 309.464L693.402 297.018L701.017 285.582L708.036 275.04L714.527 265.293L720.549 256.251L726.147 247.841L731.37 239.999L736.25 232.671L740.822 225.805L745.111 219.362L749.146 213.302L752.949 207.592L756.537 202.203L759.93 197.109L763.142 192.286L766.187 187.712L769.079 183.37L771.828 179.24L774.444 175.311L776.939 171.566L779.318 167.991L781.592 164.577L783.766 161.314L785.844 158.191L787.836 155.198H818.083H848.328H878.572H885.783" stroke="#1E2935" stroke-width="2" stroke-linecap="round" stroke-linejoin="round"/>
<path d="M1.7644 150.513L7.88508 149.576H36.9111H65.9354H94.9615H123.988H153.014L164.969 147.377" stroke="#1E2935" stroke-width="2" stroke-linecap="round" stroke-linejoin="round"/>
<path d="M1.7644 149.576H7.88508L25.1356 146.931H53.5864L69.6177 144.39H97.5181L112.408 141.942H139.777L153.603 139.588L166.919 137.321" stroke="#1E2935" stroke-width="2" stroke-linecap="round" stroke-linejoin="round"/>
<path d="M1641.04 336.455L1609.29 323.064L1577.04 309.464L1547.53 297.018L1520.42 285.582L1495.43 275.04L1472.32 265.293L1450.86 256.251L1430.92 247.841L1412.34 239.999L1394.96 232.671L1378.68 225.805H1333.12H1287.56H1242H1196.44H1150.88H1105.31H1059.75H1014.19H968.63H962.837" stroke="#1E2935" stroke-width="2" stroke-linecap="round" stroke-linejoin="round"/>
<path d="M1758.22 241.388L1752.83 239.999H1704.18L1677.27 232.671H1630.22L1606.49 225.805H1560.93L1540.06 219.362L1520.44 213.302L1501.94 207.592L1484.48 202.203L1467.99 197.109L1452.37 192.286L1437.56 183.962L1413.83 130.696L1405.15 111.214L1400.26 100.243L1387.14 42.5338L1350.78 30.3387L1314.42 41.3056L1278.07 76.9998L1241.71 74.2947L1205.35 91.0548L1174.1 92.8724" stroke="#1E2935" stroke-width="2" stroke-linecap="round" stroke-linejoin="round"/>
<path d="M1.7644 125.362L8.71435 125.283L35.0815 137.321H61.4486H87.8175H114.185H140.552H166.919H172.396" stroke="#1E2935" stroke-width="2" stroke-linecap="round" stroke-linejoin="round"/>
<path d="M1720.36 355.515L1614.48 440.984L1508.6 503.882H1402.72H1296.83H1190.95L1169.69 470.441L1151.16 441.286L1134.86 415.647L1120.42 392.92L1107.53 372.64L1095.95 354.428L1085.5 337.985L1076.01 323.064L1067.37 309.464L1059.46 296.027L1052.19 284.608L1045.49 275.04L1039.29 265.293L1033.54 256.251L1028.2 247.841H1014.61L996.957 239.999L981.376 233.078L973.099 236.48L944.685 248.158L931.036 242.379L928.944 243.265L903.178 254.172L877.046 253.828L824.881 256.251H772.713H720.549H668.383H616.217H564.051H511.886H459.72H407.554L389.766 265.293L370.585 275.04L349.846 285.582L327.35 297.018L302.86 309.464L276.105 323.064L246.751 337.985L214.4 354.428L178.571 372.64L138.669 392.92H56.8559L7.21638 415.647H1.7644" stroke="#1E2935" stroke-width="2" stroke-linecap="round" stroke-linejoin="round"/>
<path d="M169.257 141.57L167.148 141.942H139.777L125.418 144.39L110.492 146.931L94.9615 149.576L78.7926 152.329L61.9462 155.198L44.3745 158.191L26.0337 161.314L6.86879 164.577L1.7644 165.447" stroke="#1E2935" stroke-width="2" stroke-linecap="round" stroke-linejoin="round"/>
<path d="M1.7644 164.577H6.86879H39.1484H71.428H103.709H129.964" stroke="#1E2935" stroke-width="2" stroke-linecap="round" stroke-linejoin="round"/>
<path d="M1617.89 358.001L1610.18 354.428L1574.76 337.985L1542.63 323.064L1513.34 309.464L1486.52 297.018L1461.89 285.582L1439.18 275.04L1418.18 265.293L1398.7 256.251L1380.59 247.841L1363.7 239.999L1347.91 232.671H1300.86H1253.81H1206.76H1159.71H1112.66H1065.61H1018.56H971.504L966.975 230.811" stroke="#1E2935" stroke-width="2" stroke-linecap="round" stroke-linejoin="round"/>
<path d="M430.594 137.321L422.197 139.588L413.481 141.942L404.424 144.39L395.013 146.931L385.22 149.576L375.024 152.329L370.763 153.479" stroke="#1E2935" stroke-width="2" stroke-linecap="round" stroke-linejoin="round"/>
<path d="M1.7644 462.507L43.5135 441.286H135.818H228.12H320.425H412.729L440.926 415.647L465.919 392.92L488.222 372.64L508.25 354.428L526.333 337.985L542.742 323.064L557.697 309.464L571.385 297.018L583.96 285.582L595.552 275.04L606.273 265.293L616.217 256.251L625.466 247.841H675.806L682.729 239.999L689.199 232.671L695.26 225.804L700.948 219.362L706.298 213.302L711.339 207.592L716.096 202.203L720.593 197.109L724.852 192.286L728.889 187.712L732.722 183.37L736.367 179.24L739.836 175.311L743.142 171.566L746.297 167.991L749.312 164.577L752.193 161.314L754.949 158.191H785.844H816.739H847.633H878.529H882.607" stroke="#1E2935" stroke-width="2" stroke-linecap="round" stroke-linejoin="round"/>
<path d="M1.7644 184.102L5.59666 183.37H41.952L62.6131 179.24H98.0739L116.888 175.311H151.496H186.105L202.411 159.269L217.97 116.341L250.989 92.11L265.109 85.7134L278.61 70.9031" stroke="#1E2935" stroke-width="2" stroke-linecap="round" stroke-linejoin="round"/>
<path d="M1.7644 183.37H5.59666L27.1523 179.24H62.6131L82.2808 175.311H116.888L134.819 171.566L151.927 165.035L164.482 155.198L167.019 153.209L168.865 151.764L181.399 141.942L184.565 139.588L184.949 139.161L217.97 116.341L232.83 69.8162" stroke="#1E2935" stroke-width="2" stroke-linecap="round" stroke-linejoin="round"/>
<path d="M1615.04 151.563L1604.3 149.576H1602.64L1589.57 147.402L1566.62 147.907L1562.86 147.183" stroke="#1E2935" stroke-width="2" stroke-linecap="round" stroke-linejoin="round"/>
<path d="M1758.22 354.858L1757.11 354.428L1714.55 337.985L1675.95 323.064H1672.91" stroke="#1E2935" stroke-width="2" stroke-linecap="round" stroke-linejoin="round"/>
<path d="M338.769 139.588H341.619H368.478H395.337H422.197H449.058H475.916H502.775H529.636H556.496H583.355H610.213H637.074H663.933H690.793H717.652L720.639 137.321" stroke="#1E2935" stroke-width="2" stroke-linecap="round" stroke-linejoin="round"/>
<path d="M1204.96 392.92H1202.23L1184.94 372.64H1107.52H1030.11H952.699H875.286H797.874H720.461H643.048H565.635H488.222H410.809H333.397H255.984H178.571H101.158H23.7452H1.7644" stroke="#1E2935" stroke-width="2" stroke-linecap="round" stroke-linejoin="round"/>
<path d="M659.314 508.84L661.539 503.882L676.552 470.441L689.642 441.286L701.153 415.647L711.357 392.92L720.461 372.64L728.637 354.428L736.019 337.985L742.719 323.064L748.823 309.464L754.411 297.018L759.546 285.582L764.278 275.04L768.655 265.293L772.713 256.251L776.491 247.841L780.011 239.999L783.302 232.671L786.382 225.804L789.276 219.362L791.996 213.302L794.558 207.592L796.979 202.203L799.268 197.109L801.432 192.286L803.486 187.712L805.434 183.37L807.288 179.24L809.053 175.311L810.734 171.566L812.34 167.991L813.871 164.577L815.336 161.314L816.739 158.191L818.083 155.198L819.371 152.329L820.606 149.576L821.795 146.931L822.935 144.39L824.033 141.942L825.091 139.588L826.108 137.321" stroke="#1E2935" stroke-width="2" stroke-linecap="round" stroke-linejoin="round"/>
<path d="M836.17 207.592L837.421 202.203L838.603 197.109L839.722 192.286L840.784 187.712L841.791 183.37L842.749 179.24L843.66 175.311L844.53 171.566L845.359 167.991L846.151 164.577L846.908 161.314L847.633 158.191L848.328 155.198L848.993 152.329L849.632 149.576L850.246 146.931L850.835 144.39L851.404 141.942L851.949 139.588L852.476 137.321" stroke="#1E2935" stroke-width="2" stroke-linecap="round" stroke-linejoin="round"/>
<path d="M878.843 137.321L878.808 139.588L878.773 141.942L878.736 144.39L878.697 146.931L878.658 149.576L878.616 152.329L878.572 155.198L878.529 158.191L878.48 161.314L878.469 162.09" stroke="#1E2935" stroke-width="2" stroke-linecap="round" stroke-linejoin="round"/>
<path d="M888.826 152.329H878.616H848.993H819.371H789.747L787.836 155.198H757.591L754.949 158.191H724.055L720.62 161.314H689.047H657.475H625.903H594.331H562.759H531.187H499.615H468.043H436.471H404.899H373.327L367.846 158.191L357.562 152.329L352.731 149.576L348.09 146.931L345.117 145.237L341.755 143.319L338.386 140.331L337.548 139.588L334.992 137.321L334.873 137.217L317.305 121.633L314.796 119.407L310.86 115.179L289.835 86.3187L278.61 70.9032L232.83 69.8162L200.55 99.2002L184.949 139.161L184.565 139.588L168.819 170.181L151.496 175.311L133.535 179.24L114.665 183.37L94.8186 187.712L73.9158 192.286L51.8697 197.109L28.5867 202.203L3.95577 207.592L1.7644 208.07" stroke="#1E2935" stroke-width="2" stroke-linecap="round" stroke-linejoin="round"/>
<path d="M339.584 143.702L341.755 143.319" stroke="#1E2935" stroke-width="2" stroke-linecap="round" stroke-linejoin="round"/>
<path d="M773.373 137.321L771.371 139.588H744.511H717.652L714.552 141.942H687.182L683.433 144.39H655.531L651.081 146.931H622.629L617.425 149.576H588.399L582.386 152.329H552.762H523.14L515.629 155.198H485.383L476.898 158.191H446.004L436.471 161.314L426.511 164.577H394.229L383.071 167.991H350.051L337.594 171.566L324.538 175.311L310.839 179.24L296.447 183.37L281.31 187.712L265.367 192.286L248.554 197.109H209.217L190.352 202.203H149.912H109.47H69.0284L45.5673 207.592H3.95577H1.7644" stroke="#1E2935" stroke-width="2" stroke-linecap="round" stroke-linejoin="round"/>
<path d="M339.549 140.065L341.619 139.588L351.492 137.321" stroke="#1E2935" stroke-width="2" stroke-linecap="round" stroke-linejoin="round"/>
<path d="M346.651 144.39H348.625H376.525H404.424H432.326H460.227H488.127H516.027H543.928H571.83H599.73L605.071 141.942L610.213 139.588L615.169 137.321" stroke="#1E2935" stroke-width="2" stroke-linecap="round" stroke-linejoin="round"/>
<path d="M1203.41 394.309L1202.23 392.92H1120.42H1038.61H956.793H874.979H793.168H711.357H629.543H547.73H465.919H384.105H302.294L267.444 415.647L228.12 441.286L183.412 470.441L132.129 503.882L124.526 508.84" stroke="#1E2935" stroke-width="2" stroke-linecap="round" stroke-linejoin="round"/>
<path d="M347.212 144.73L348.625 144.39L358.74 141.942L368.478 139.588L377.859 137.321" stroke="#1E2935" stroke-width="2" stroke-linecap="round" stroke-linejoin="round"/>
<path d="M869.593 171.566H844.53H810.734H776.939H743.142H709.347H675.552H641.755H607.959H574.164H540.369L532.187 175.311H530.831" stroke="#1E2935" stroke-width="2" stroke-linecap="round" stroke-linejoin="round"/>
<path d="M1.7644 142.11L2.92713 141.942H30.2982L46.1636 139.588L61.4486 137.321" stroke="#1E2935" stroke-width="2" stroke-linecap="round" stroke-linejoin="round"/>
<path d="M1.7644 141.942H2.92713L19.3042 139.588L35.0815 137.321" stroke="#1E2935" stroke-width="2" stroke-linecap="round" stroke-linejoin="round"/>
<path d="M1718.77 354.428H1757.11H1758.22" stroke="#1E2935" stroke-width="2" stroke-linecap="round" stroke-linejoin="round"/>
<path d="M1758.22 192.191L1735.95 187.712L1714.35 183.37L1693.8 179.24L1674.26 175.311L1655.62 171.566H1621.83H1588.04H1554.25H1520.45H1486.65H1452.85L1451.91 171.307" stroke="#1E2935" stroke-width="2" stroke-linecap="round" stroke-linejoin="round"/>
<path d="M1.7644 441.286H43.5135L93.9576 415.647H180.701L220.481 392.92H302.294L333.397 372.64L361.325 354.428L386.542 337.985L409.423 323.064L430.278 309.464L449.367 297.018L466.903 285.582L483.068 275.04L498.018 265.293L511.886 256.251L524.782 247.841H575.124L585.449 239.999H634.088L642.148 232.671L649.698 225.805L656.784 219.362L663.448 213.302L669.727 207.592L675.654 202.203L681.256 197.109L686.561 192.286L691.59 187.712L696.366 183.37L700.906 179.24L705.229 175.311L709.347 171.566L713.278 167.991L717.031 164.577L720.62 161.314H752.193H783.765H815.336H846.908H878.48H879.292" stroke="#1E2935" stroke-width="2" stroke-linecap="round" stroke-linejoin="round"/>
<path d="M1452.07 171.566H1452.85L1466.61 175.311L1481.05 179.24L1496.21 183.37L1512.15 187.712H1549.45H1586.75H1624.05H1661.35H1698.65H1735.95H1758.22" stroke="#1E2935" stroke-width="2" stroke-linecap="round" stroke-linejoin="round"/>
<path d="M866.119 175.311H843.66H809.053H774.444H739.836H705.229H670.62H636.012H601.403H566.794H532.187L531.87 175.455" stroke="#1E2935" stroke-width="2" stroke-linecap="round" stroke-linejoin="round"/>
<path d="M1179.68 415.647L1151.16 441.286H1058.86H966.553H874.249H781.945H689.642H597.338H505.033H412.729L380.67 470.441L343.893 503.882L338.439 508.84" stroke="#1E2935" stroke-width="2" stroke-linecap="round" stroke-linejoin="round"/>
<path d="M1387.14 42.5338L1394.04 58.7786L1411.68 100.37L1420.23 120.497L1423.49 128.178L1430.77 139.223L1432.61 142.018L1449.72 167.991L1451.91 171.307L1452.07 171.566L1454.24 174.864L1454.54 175.311L1457.13 179.24L1459.84 183.37L1474.85 187.712L1490.66 192.286L1507.32 197.109L1524.93 202.203H1565.37L1585.16 207.592H1626.77L1648.98 213.302H1691.84L1716.72 219.362H1758.22" stroke="#1E2935" stroke-width="2" stroke-linecap="round" stroke-linejoin="round"/>
<path d="M1543.97 133.866L1548.88 137.321L1552.09 139.588L1552.72 140.038L1555.43 141.942L1558.89 144.39L1562.5 146.931L1562.86 147.183L1563.97 147.965L1574.63 155.484L1589.1 157.142L1604.65 161.314L1620.88 164.577L1637.85 167.991H1670.87L1689.42 171.566H1723.22L1743.47 175.311H1758.22" stroke="#1E2935" stroke-width="2" stroke-linecap="round" stroke-linejoin="round"/>
<path d="M1.7644 275.04H33.1336H89.3754H145.617H201.859H258.101H314.343H370.585H426.827H483.068H539.31H595.552H651.794H708.036H764.278H820.52H876.761L933.003 273.985L989.245 275.04H1045.49H1101.73L1110.72 285.582L1120.46 297.018L1131.08 309.464L1142.67 323.064L1155.39 337.985L1169.41 354.428H1242.87H1316.34L1339.77 372.64L1365.86 392.92L1395.09 415.647L1428.07 441.286H1511.59L1516.1 438.436L1552.06 415.647L1559.96 410.64L1564.2 407.951L1580.35 392.92L1591.39 382.649L1602.15 372.64L1617.89 358.001L1621.72 354.428L1639.39 337.985L1641.04 336.455L1655.42 323.064L1661.45 317.461L1662.83 316.171" stroke="#1E2935" stroke-width="2" stroke-linecap="round" stroke-linejoin="round"/>
<path d="M1465.57 470.441L1428.07 441.286L1343.75 415.647" stroke="#1E2935" stroke-width="2" stroke-linecap="round" stroke-linejoin="round"/>
<path d="M1.7644 470.441H84.7845H183.412H282.04H380.67H479.298L505.033 441.286L527.669 415.647L547.73 392.92L565.635 372.64L581.712 354.428L596.228 337.985L609.401 323.064L621.406 309.464L632.393 297.018L642.489 285.582L651.794 275.04L660.401 265.293L668.383 256.251L675.806 247.841H726.147H776.491H826.833L827.854 247.408L845.361 239.999L877.173 226.537L885.485 219.362L904.63 202.835L920.379 189.24L927.514 183.08" stroke="#1E2935" stroke-width="2" stroke-linecap="round" stroke-linejoin="round"/>
<path d="M1602.15 372.64H1572H1494.59H1417.18L1389.79 354.428L1365.08 337.985L1342.65 323.064L1322.2 309.464L1303.49 297.018L1286.3 285.582L1270.45 275.04L1255.8 265.293H1201.67H1147.55H1093.42H1039.29H985.162L944.685 248.158" stroke="#1E2935" stroke-width="2" stroke-linecap="round" stroke-linejoin="round"/>
<path d="M1580.35 392.92H1529.49L1494.59 372.64L1463.26 354.428L1434.97 337.985L1409.31 323.064L1385.92 309.464L1364.5 297.018L1344.83 285.582L1326.7 275.04L1309.93 265.293L1294.37 256.251H1242.21H1190.04H1137.87H1085.71H1033.54L1014.61 247.841" stroke="#1E2935" stroke-width="2" stroke-linecap="round" stroke-linejoin="round"/>
<path d="M832.719 222.464L836.974 219.362L845.286 213.302L860.506 202.203L872.643 193.354" stroke="#1E2935" stroke-width="2" stroke-linecap="round" stroke-linejoin="round"/>
<path d="M939.934 111.129L961.003 98.4167" stroke="#1E2935" stroke-width="2" stroke-linecap="round" stroke-linejoin="round"/>
<path d="M1243.46 358.303L1227.52 372.64L1204.96 392.92L1203.41 394.309L1179.68 415.647H1134.86H1048.12H961.378H874.637H787.894H701.153H614.41H527.669H440.926H354.183L320.425 441.286L282.04 470.441L238.01 503.882L231.483 508.84" stroke="#1E2935" stroke-width="2" stroke-linecap="round" stroke-linejoin="round"/>
<path d="M588.8 137.321L583.355 139.588L577.702 141.942L571.83 144.39L565.725 146.931L559.375 149.576L552.762 152.329L545.872 155.198L538.687 158.191L531.187 161.314L523.35 164.577L515.154 167.991L506.572 171.566L503.678 172.77L501.102 173.842" stroke="#1E2935" stroke-width="2" stroke-linecap="round" stroke-linejoin="round"/>
<path d="M1463.8 146.46L1491.75 164.577L1505.77 167.991L1520.45 171.566L1535.83 175.311L1551.97 179.24L1568.91 183.37L1586.75 187.712L1605.53 192.286L1625.34 197.109H1664.67H1704.01L1727.15 202.203H1758.22" stroke="#1E2935" stroke-width="2" stroke-linecap="round" stroke-linejoin="round"/>
<path d="M1602.64 149.576L1614.85 151.605" stroke="#1E2935" stroke-width="2" stroke-linecap="round" stroke-linejoin="round"/>
<path d="M1164.91 95.7769L1169.07 105.164L1192.63 158.406L1231.97 197.109H1271.31L1282.28 202.203L1293.89 207.592H1335.5L1349.04 213.302H1391.88H1434.74L1451.73 219.362H1495.89L1515.37 225.805H1560.93L1583.17 232.671H1630.22L1655.54 239.999H1704.18L1732.98 247.841H1758.22" stroke="#1E2935" stroke-width="2" stroke-linecap="round" stroke-linejoin="round"/>
<path d="M1253.23 364.115L1245.28 356.674L1242.87 354.428L1225.29 337.985H1155.39H1085.5H1015.6H945.707H875.81H805.916H736.019H666.123H596.228H526.333H456.437H386.542H316.645H246.751H176.856H106.959H37.0646H1.7644" stroke="#1E2935" stroke-width="2" stroke-linecap="round" stroke-linejoin="round"/>
<path d="M350.051 167.991L336.638 149.571" stroke="#1E2935" stroke-width="2" stroke-linecap="round" stroke-linejoin="round"/>
<path d="M1758.24 509.235V25.7772" stroke="#1E2935" stroke-width="2" stroke-linecap="round" stroke-linejoin="round"/>
</g>
<defs>
<clipPath id="clip0_30_264">
<rect width="1760" height="428" fill="white"/>
</clipPath>
</defs>
</svg>
