<svg width="1759" height="605" viewBox="0 0 1759 605" fill="none" xmlns="http://www.w3.org/2000/svg">
<mask id="mask0_30_534" style="mask-type:alpha" maskUnits="userSpaceOnUse" x="0" y="0" width="1759" height="605">
<rect width="1759" height="605" fill="#D9D9D9"/>
</mask>
<g mask="url(#mask0_30_534)">
<path d="M550.591 -34.1667L220.881 293.217C232.071 292.518 250.417 292.168 262.318 292.168C321.553 292.168 349.678 310.526 365.799 326.285C382.303 342.405 390.532 363.024 390.532 391.884V497.416C390.532 508.664 390.532 518.781 392.42 524.435C396.535 534.529 417.166 573.156 417.166 573.156L367.817 605L326.81 574.66C318.546 579.136 296.05 591.502 284.813 596.013C264.94 603.881 244.694 605 234.973 605C218.457 605 197.08 601.631 176.472 590.022C155.48 578.413 131.492 552.525 131.492 508.291C131.492 425.068 215.473 414.951 261.187 414.566L312.193 414.205V394.133C312.193 374.249 303.836 365.204 293.346 358.082C283.217 350.948 258.564 349.153 239.46 349.153H164.956L0 518.524V605H367.817H571.222H508.3L404.414 296.119H494.748L565.988 530.426H571.222L642.451 296.119H731.688L658.874 516.089L881 293.951V-34.1667H550.591ZM208.351 506.042C208.351 521.043 216.988 537.897 230.485 544.261C260.453 559.274 303.591 537.174 313.708 530.414V465.922H265.336C213.957 465.922 208.351 490.702 208.351 506.042Z" fill="#FF0022" style="mix-blend-mode:darken"/>
</g>
</svg>
