<svg width="140" height="787" fill="none" xmlns="http://www.w3.org/2000/svg"><path opacity=".05" d="M0 723c0-12.667 2.133-23.667 6.4-33 4.133-9.333 10.133-16.533 18-21.6 7.733-5.067 16.867-7.6 27.4-7.6 10.533 0 19.667 2.533 27.4 7.6 7.733 5.067 13.733 12.267 18 21.6 4.133 9.333 6.2 20.333 6.2 33v24.4H140V787H0v-64zm72.2 2.4c0-8.133-1.733-14.267-5.2-18.4-3.6-4.133-8.667-6.2-15.2-6.2-6.533 0-11.6 2.067-15.2 6.2-3.6 4.133-5.4 10.267-5.4 18.4v22h41v-22zm40.6-170.677v59.2l27.2 11v40.4l-140-61.8v-39l140-62v41.2l-27.2 11zm-29.2 11.6l-44.8 18 44.8 18v-36zM0 491.297v-39.6h108.6v-66.8H140v106.4H0zm0-122.07v-39.6h108.6v-66.8H140v106.4H0zm109.4-234.471H140v112.4H0v-109.8h30.6v70.6h23.6v-62.2h29.6v62.2h25.6v-73.2zm-78-51.775v43H0V.581h31.4v42.8H140v39.6H31.4z" fill="#fff"/></svg>