<svg width="146" height="746" fill="none" xmlns="http://www.w3.org/2000/svg"><path opacity=".05" d="M145.8 686.8c0 11.333-1.4 22.333-4.2 33-2.8 10.667-6.533 19.333-11.2 26l-29.2-13c4.133-6.267 7.467-13.533 10-21.8 2.533-8.267 3.8-16.4 3.8-24.4 0-15.2-3.8-22.8-11.4-22.8-4 0-6.933 2.2-8.8 6.6-2 4.267-4.067 11.2-6.2 20.8-2.267 10.533-4.667 19.333-7.2 26.4-2.667 7.067-6.867 13.133-12.6 18.2s-13.467 7.6-23.2 7.6c-8.533 0-16.2-2.333-23-7-6.933-4.667-12.4-11.6-16.4-20.8-4-9.333-6-20.733-6-34.2a116.7 116.7 0 013.2-27.2c2-8.933 5-16.8 9-23.6l29.4 12.2C34.6 656.133 31 669.067 31 681.6c0 7.867 1.2 13.6 3.6 17.2 2.267 3.6 5.267 5.4 9 5.4 3.733 0 6.533-2.133 8.4-6.4s3.8-11.133 5.8-20.6c2.267-10.667 4.733-19.467 7.4-26.4 2.533-7.067 6.667-13.133 12.4-18.2 5.6-5.2 13.267-7.8 23-7.8 8.4 0 16 2.333 22.8 7 6.8 4.667 12.267 11.667 16.4 21 4 9.333 6 20.667 6 34zM143 480.108l-74.2.4 60.4 36v17.6l-58.4 35.8H143v36.6H3v-32.6l80.8-49.2-80.8-48v-32.6l140-.4v36.4zm-27.2-158.221v59.2l27.2 11v40.4l-140-61.8v-39l140-62v41.2l-27.2 11zm-29.2 11.6l-44.8 18 44.8 18v-36zm19.2-136.226v21.6H143v39.6H3v-64c0-12.667 2.133-23.667 6.4-33 4.133-9.333 10.133-16.533 18-21.6 7.733-5.067 16.867-7.6 27.4-7.6 10.133 0 19 2.4 26.6 7.2 7.467 4.667 13.333 11.4 17.6 20.2l44-30.2v42.4l-37.2 25.4zm-51-25c-6.533 0-11.6 2.067-15.2 6.2-3.6 4.133-5.4 10.267-5.4 18.4v22h41v-22c0-8.133-1.733-14.267-5.2-18.4-3.6-4.133-8.667-6.2-15.2-6.2zM34.4 82.567v43H3V.167h31.4v42.8H143v39.6H34.4z" fill="#fff"/></svg>