<svg xmlns="http://www.w3.org/2000/svg" width="145.38" height="205.55"><style>.st2{fill-rule:evenodd}.st1,.st2{fill:#a95ca3}</style><path d="M0 118.03h87.52v87.52H0z" fill="#f7dfed"/><path class="st1" d="M40.08 0h3.79v3.79h-3.79zm25.38 0h3.79v3.79h-3.79zm25.37 0h3.8v3.79h-3.8zm25.38 0H120v3.79h-3.79zm25.37 0h3.8v3.79h-3.8z"/><path class="st2" d="M40.08 27.35h3.79v3.79h-3.79zm25.38 0h3.79v3.79h-3.79zm25.37 0h3.8v3.79h-3.8zm25.38 0H120v3.79h-3.79z"/><path class="st1" d="M141.58 27.35h3.8v3.79h-3.8z"/><path class="st2" d="M40.08 54.7h3.79v3.8h-3.79zm25.38 0h3.79v3.8h-3.79zm25.37 0h3.8v3.8h-3.8zm25.38 0H120v3.8h-3.79z"/><path class="st1" d="M141.58 54.7h3.8v3.8h-3.8z"/><path class="st2" d="M40.08 82.05h3.79v3.8h-3.79zm25.38 0h3.79v3.8h-3.79zm25.37 0h3.8v3.8h-3.8zm25.38 0H120v3.8h-3.79z"/><path class="st1" d="M141.58 82.05h3.8v3.8h-3.8z"/><path class="st2" d="M40.08 109.4h3.79v3.8h-3.79zm25.38 0h3.79v3.8h-3.79zm25.37 0h3.8v3.8h-3.8zm25.38 0H120v3.8h-3.79z"/><path class="st1" d="M141.58 109.4h3.8v3.8h-3.8z"/><path class="st2" d="M40.08 136.76h3.79v3.79h-3.79zm25.38 0h3.79v3.79h-3.79zm25.37 0h3.8v3.79h-3.8zm25.38 0H120v3.79h-3.79z"/><path class="st1" d="M141.58 136.76h3.8v3.79h-3.8z"/></svg>