<svg width="162" height="48" fill="none" xmlns="http://www.w3.org/2000/svg"><g clip-path="url(#clip0)"><path fill-rule="evenodd" clip-rule="evenodd" d="M120.199 28.388h17.935v-5.104h-9.357l3.866-2.713c3.397-2.385 5.246-4.294 5.246-7.907 0-4.333-3.402-7.271-8.378-7.271-4.401 0-6.792 1.716-9.222 4.847l4.241 3.517c1.778-2.032 2.977-2.906 4.511-2.906 1.534 0 2.526.874 2.526 2.295 0 1.42-.78 2.456-2.913 4.07l-8.455 6.46v4.712zm31.578.418c6.445 0 10.621-3.214 10.621-10.492V5.784h-6.38v12.723c0 3.163-1.65 4.648-4.176 4.648-2.527 0-4.176-1.549-4.176-4.808V5.785h-6.38v12.69c-.007 7.072 4.04 10.331 10.485 10.331h.006z" fill="#FF7919"/><path fill-rule="evenodd" clip-rule="evenodd" d="M50.028 28.806h6.48V11.073h7.011v-5.68H43.016v5.68h7.012v17.733zm15.95 0h6.348V15.428l5.941 9.096h.133l5.982-9.163v13.445h6.486V5.393h-6.845l-5.61 9.07-5.576-9.064h-6.845v23.407h-.014zm29.13 0h6.481v-6.053l2.372-2.663 5.876 8.696h7.776l-9.146-13.318 8.847-10.069h-7.67l-8.042 9.496V5.393h-6.48l-.013 23.413z" fill="#1D1D1B"/><path fill-rule="evenodd" clip-rule="evenodd" d="M33.832 13.8A17.086 17.086 0 0013.714.42 17.083 17.083 0 00.336 20.537c.075.372.15.743.265 1.106a8.762 8.762 0 013.994-1.963 8.618 8.618 0 0110.225 6.65 8.46 8.46 0 01-2.053 7.368 17.088 17.088 0 0021.065-19.9z" fill="#FF7919"/><path d="M6.592 45.052H5.555v2.189h-.697v-4.974h.697v2.16h1.051l1.564-2.16h.76l-1.777 2.409 1.862 2.565h-.81l-1.613-2.189zm5.376 2.246c-.502 0-.955-.11-1.357-.327a2.494 2.494 0 01-.952-.917 2.526 2.526 0 01-.341-1.3c0-.479.113-.912.34-1.3.233-.389.55-.692.953-.91a2.757 2.757 0 011.357-.334c.497 0 .947.111 1.35.334.403.218.718.521.945.91.228.383.341.817.341 1.3 0 .483-.113.919-.34 1.307a2.457 2.457 0 01-.946.91 2.79 2.79 0 01-1.35.327zm0-.633c.365 0 .692-.083.98-.248.294-.166.524-.394.69-.683.17-.293.256-.62.256-.98s-.086-.685-.256-.974a1.785 1.785 0 00-.69-.689 1.935 1.935 0 00-.98-.249c-.365 0-.696.083-.995.25a1.835 1.835 0 00-.696.688 1.92 1.92 0 00-.249.974c0 .36.083.687.249.98.17.29.403.517.696.683.299.165.63.248.995.248zm5.725-4.398c.644 0 1.15.154 1.52.462.37.308.555.732.555 1.272s-.185.964-.555 1.272c-.37.307-.876.461-1.52.461h-1.23v1.507h-.71v-4.974h1.94zm-.021 2.85c.45 0 .793-.095 1.03-.285.237-.194.355-.471.355-.831s-.118-.635-.355-.825c-.237-.194-.58-.291-1.03-.291h-1.209v2.231h1.209zm7.369-2.85v4.974h-.697v-4.356H21.46v4.356h-.703v-4.974h4.285zm3.79 5.03c-.503 0-.955-.108-1.358-.326a2.494 2.494 0 01-.952-.917 2.526 2.526 0 01-.341-1.3c0-.479.114-.912.34-1.3.233-.389.55-.692.953-.91a2.757 2.757 0 011.357-.334c.498 0 .948.111 1.35.334.403.218.718.521.945.91.228.383.341.817.341 1.3 0 .483-.113.919-.34 1.307a2.457 2.457 0 01-.946.91 2.79 2.79 0 01-1.35.327zm0-.632c.364 0 .69-.083.98-.248a1.81 1.81 0 00.69-.683c.17-.293.255-.62.255-.98s-.085-.685-.256-.974a1.785 1.785 0 00-.69-.689 1.935 1.935 0 00-.98-.249 2 2 0 00-.994.25 1.835 1.835 0 00-.697.688 1.92 1.92 0 00-.249.974c0 .36.083.687.25.98.17.29.402.517.695.683.299.165.63.248.995.248zm5.724-4.398c.644 0 1.151.154 1.52.462.37.308.555.732.555 1.272s-.185.964-.554 1.272c-.37.307-.877.461-1.52.461h-1.23v1.507h-.71v-4.974h1.94zm-.021 2.85c.45 0 .793-.095 1.03-.285.237-.194.355-.471.355-.831s-.118-.635-.355-.825c-.237-.194-.58-.291-1.03-.291h-1.208v2.231h1.208zm6.068.88h-2.644l-.547 1.244h-.732l2.253-4.974h.703l2.26 4.974h-.746l-.547-1.244zm-.249-.568l-1.073-2.437-1.073 2.437h2.146zm5.569-2.544h-1.706v4.356h-.696v-4.356h-1.7v-.618h4.1v.618zm.863-.618h.704v3.837l2.941-3.837h.654v4.974h-.696v-3.83l-2.95 3.83h-.653v-4.974zm8.948 2.394c.336.081.59.225.76.434.176.204.263.467.263.789 0 .43-.159.765-.476 1.002-.313.236-.77.355-1.371.355h-2.274v-4.974h2.139c.544 0 .968.111 1.272.334.307.218.462.533.462.945 0 .27-.07.5-.207.69-.132.189-.322.33-.568.425zm-2.395-.206h1.386c.346 0 .609-.068.789-.206.184-.137.277-.338.277-.604 0-.265-.093-.466-.277-.604-.185-.142-.448-.213-.79-.213h-1.385v1.627zm1.556 2.224c.763 0 1.145-.284 1.145-.852 0-.284-.098-.493-.292-.625-.19-.138-.474-.207-.852-.207h-1.557v1.684h1.556zm7.327-4.412v4.974h-.71v-2.217h-2.857v2.217h-.71v-4.974h.71v2.139h2.856v-2.14h.711zM65.954 44c.592 0 1.044.132 1.357.398.317.265.476.656.476 1.172 0 .545-.17.96-.512 1.244-.336.284-.82.426-1.45.426h-2.053v-4.974h.704V44h1.478zm-.157 2.678c.413 0 .728-.092.946-.277.222-.19.334-.462.334-.817 0-.682-.427-1.023-1.28-1.023h-1.321v2.117h1.321zm2.779-4.412h.703v4.974h-.703v-4.974zm2.254 0h.703v3.837l2.942-3.837h.654v4.974h-.697v-3.83l-2.949 3.83h-.654v-4.974zm2.138-.348c-.388 0-.689-.083-.902-.25-.209-.17-.315-.411-.32-.724h.505c.004.185.068.33.191.434.128.1.304.149.526.149.213 0 .384-.05.512-.15a.54.54 0 00.206-.433h.497c-.004.308-.113.547-.327.718-.208.17-.504.256-.888.256zm9.691.348l-2.21 4.1c-.175.327-.381.57-.618.732a1.349 1.349 0 01-.775.241c-.217 0-.44-.05-.667-.149l.184-.568c.176.061.332.092.47.092.312 0 .57-.166.774-.497l.114-.178-2.004-3.773h.76l1.613 3.155 1.656-3.155h.703zm5.015 0v4.974h-.71v-2.217h-2.857v2.217h-.71v-4.974h.71v2.139h2.856v-2.14h.711zm1.551 0h.704v3.837l2.942-3.837h.653v4.974h-.696v-3.83l-2.949 3.83h-.654v-4.974zm8.948 2.394c.337.081.59.225.76.434.176.204.263.467.263.789 0 .43-.158.765-.476 1.002-.312.236-.77.355-1.371.355h-2.274v-4.974h2.139c.545 0 .969.111 1.272.334.308.218.462.533.462.945 0 .27-.069.5-.206.69-.133.189-.322.33-.569.425zm-2.394-.206h1.385c.346 0 .609-.068.789-.206.185-.137.277-.338.277-.604 0-.265-.092-.466-.277-.604-.185-.142-.448-.213-.789-.213H95.78v1.627zm1.556 2.224c.762 0 1.144-.284 1.144-.852 0-.284-.097-.493-.292-.625-.19-.138-.473-.207-.852-.207h-1.556v1.684h1.556zm6.658-.056v.618h-3.609v-4.974h3.51v.618h-2.8v1.528h2.494v.604h-2.494v1.606h2.899zm3.056-4.356c.644 0 1.151.154 1.521.462.369.308.554.732.554 1.272s-.185.964-.554 1.272c-.37.307-.877.461-1.521.461h-1.229v1.507h-.711v-4.974h1.94zm-.021 2.85c.45 0 .793-.095 1.03-.285.237-.194.355-.471.355-.831s-.118-.635-.355-.825c-.237-.194-.58-.291-1.03-.291h-1.208v2.231h1.208zm5.378 2.18c-.498 0-.948-.108-1.35-.326a2.468 2.468 0 01-.938-.91 2.534 2.534 0 01-.341-1.307c0-.483.113-.917.341-1.3.227-.389.542-.692.945-.91a2.745 2.745 0 011.35-.334c.388 0 .744.066 1.066.199.322.128.597.32.824.575l-.462.448a1.853 1.853 0 00-1.4-.59c-.369 0-.703.083-1.001.25a1.822 1.822 0 00-.704.688 1.92 1.92 0 00-.249.974c0 .36.083.687.249.98.171.29.405.517.704.683.298.165.632.248 1.001.248.555 0 1.021-.199 1.4-.597l.462.448c-.227.256-.504.45-.831.583a2.774 2.774 0 01-1.066.199zm2.876-5.03h.704v3.837l2.941-3.837h.654v4.974h-.696v-3.83l-2.949 3.83h-.654v-4.974zm9.268.618h-1.706v4.356h-.696v-4.356h-1.698v-.618h4.1v.618zm4.473 3.738v.618h-3.61v-4.974h3.511v.618h-2.8v1.528h2.494v.604h-2.494v1.606h2.899zm4.534-3.738h-1.706v4.356h-.696v-4.356h-1.698v-.618h4.1v.618zm3.731 0h-1.705v-.618h4.114v.618h-1.705v4.356h-.704v-4.356zm7.794 4.356l-.007-3.624-1.797 3.02h-.327l-1.798-2.999v3.603h-.682v-4.974h.582l2.075 3.496 2.047-3.496h.582l.008 4.974h-.683zm3.795-2.21l-.909.924v1.286h-.711v-4.974h.711v2.778l2.7-2.778h.81l-2.124 2.238 2.259 2.736h-.831l-1.905-2.21zm6.593 1.592v.618h-3.575v-.483l2.025-1.954c.247-.237.413-.441.498-.611a1.2 1.2 0 00.128-.526c0-.26-.093-.462-.277-.604-.18-.147-.441-.22-.782-.22-.55 0-.973.18-1.272.54l-.483-.42c.194-.237.448-.421.76-.554a2.726 2.726 0 011.059-.199c.521 0 .936.126 1.243.377.308.246.462.582.462 1.009 0 .265-.057.516-.17.753-.114.237-.329.507-.647.81l-1.52 1.464h2.551zm3.049.675c-.663 0-1.179-.19-1.549-.569-.369-.379-.554-.923-.554-1.634v-2.828h.711v2.8c0 1.065.466 1.598 1.4 1.598.454 0 .802-.13 1.044-.39.242-.266.362-.669.362-1.209v-2.8h.69v2.829c0 .715-.185 1.262-.555 1.641-.369.375-.885.562-1.549.562z" fill="#424242"/></g><defs><clipPath id="clip0"><path fill="#fff" d="M0 0h162v48H0z"/></clipPath></defs></svg>