<svg width="45" height="45" viewBox="0 0 45 45" fill="none" xmlns="http://www.w3.org/2000/svg">
<path fill-rule="evenodd" clip-rule="evenodd" d="M9.48998 0.8552C8.74886 1.07189 7.74348 1.96038 7.33351 2.76085C7.13817 3.14239 6.93924 3.88388 6.89147 4.40885L6.80463 5.36329L5.54863 5.56247C4.85785 5.67192 4.05225 5.88538 3.75829 6.0368C2.88871 6.48462 1.72944 7.65252 1.24305 8.57076L0.789062 9.42731V25.1477V40.868L1.25021 41.7387C1.78455 42.748 3.01547 43.8977 4.11588 44.4156C4.88344 44.7769 4.8877 44.7769 22.6266 44.7769C39.3466 44.7769 40.421 44.7591 41.2603 44.4676C42.3839 44.0772 43.7431 42.8738 44.3457 41.7362L44.8054 40.868V25.1477V9.42731L44.3515 8.57076C43.5909 7.13536 41.5837 5.60343 40.4637 5.60343C40.21 5.60343 40.1459 5.41241 40.0768 4.45049C39.9515 2.70579 38.8818 1.25628 37.4214 0.852311C34.8492 0.14073 32.4513 1.91654 32.4403 4.54124L32.4365 5.43348H23.4797H14.5229L14.5191 4.54124C14.5082 1.94526 12.0139 0.117107 9.48998 0.8552ZM11.9812 2.59311C12.9367 3.23382 13.0727 3.69744 13.0727 6.31331C13.0727 8.8505 12.9859 9.11766 11.8979 9.92662C11.3173 10.3583 10.1323 10.3721 9.49236 9.95432C8.54738 9.33757 8.3824 8.79186 8.38172 6.28051C8.38121 4.37979 8.43478 3.88371 8.69273 3.40462C9.31254 2.25355 10.893 1.86351 11.9812 2.59311ZM37.3868 2.51629C38.3838 3.03923 38.5778 3.65326 38.5775 6.28323C38.5771 8.25788 38.5307 8.65318 38.2446 9.12072C37.2981 10.6671 35.4028 10.6606 34.2384 9.10695C33.9233 8.68649 33.8867 8.39571 33.8867 6.31331C33.8867 4.39645 33.9404 3.89068 34.1936 3.42909C34.8175 2.2906 36.2021 1.89478 37.3868 2.51629ZM6.88499 8.03287C6.98377 9.25855 7.26681 9.89314 8.07019 10.69C8.84594 11.4596 9.54338 11.7216 10.8159 11.7216C11.7196 11.7216 12.0271 11.6395 12.6897 11.2208C13.8783 10.4699 14.4145 9.55171 14.4952 8.12906L14.5614 6.96303H23.4797H32.3979L32.4641 8.12906C32.582 10.2086 33.9017 11.562 35.937 11.691C37.2826 11.7764 38.0259 11.5355 38.8364 10.7512C39.6566 9.95789 40.1052 8.96079 40.11 7.92189C40.1138 7.11004 40.1216 7.09814 40.5748 7.21133C41.458 7.43226 42.3868 8.21403 42.8776 9.15012C43.3384 10.0288 43.3553 10.1503 43.3553 12.5908V15.1206H22.6887H2.0222L2.10341 12.602C2.18001 10.2264 2.21243 10.0322 2.6746 9.18632C3.39234 7.87277 4.77783 7.02132 6.26774 6.97833C6.79883 6.96303 6.79883 6.96303 6.88499 8.03287ZM43.3553 28.4284V40.2064L42.9117 41.0931C42.4002 42.1158 41.403 42.8908 40.2614 43.153C39.2027 43.3961 6.46598 43.3935 5.32719 43.1501C4.17594 42.9042 3.28128 42.2183 2.66573 41.1099L2.15391 40.1882L2.10358 28.4192L2.05342 16.6502H22.7043H43.3553V28.4284ZM9.64062 20.9672C8.61033 21.4451 7.97175 22.2115 7.67131 23.3309C7.42325 24.2548 7.5797 24.6875 8.19456 24.7784C8.72208 24.8562 9.00426 24.5654 9.12385 23.8202C9.18851 23.4167 9.42207 22.9924 9.75339 22.6763L10.2801 22.1736H14.5307H18.7815L19.3392 22.7288C19.8853 23.2726 19.8981 23.3199 19.9567 25.0138C20.0242 26.9735 19.8424 27.789 19.2041 28.3869C18.7919 28.773 18.6189 28.8048 16.6848 28.8482C13.9854 28.9087 13.8404 28.9437 13.8404 29.5356C13.8404 30.3344 14.0743 30.4161 16.3569 30.4161C18.7786 30.4161 19.3531 30.6048 19.7398 31.5266C20.0652 32.3022 20.0652 35.1581 19.7398 35.9337C19.306 36.9679 18.9445 37.0442 14.4887 37.0435C9.60548 37.0428 9.42805 36.9762 8.99351 34.981C8.88552 34.4852 8.50165 34.264 8.01611 34.4174C7.0051 34.7371 7.77265 37.1003 9.20575 38.0792C9.79417 38.4813 9.88374 38.4898 14.0834 38.5409C16.4364 38.5696 18.6159 38.5462 18.9265 38.4887C19.2766 38.4242 19.8065 38.0807 20.3182 37.5868C21.3858 36.5566 21.5718 35.8753 21.4856 33.3097C21.4179 31.2983 21.2569 30.7348 20.5372 29.9913C20.2119 29.6551 20.2133 29.6449 20.6713 29.0565C20.926 28.7294 21.2205 28.2017 21.3259 27.884C21.5754 27.1327 21.5737 23.8353 21.3236 23.0911C21.0047 22.1423 20.3313 21.3969 19.4051 20.9672C18.5633 20.5769 18.3888 20.5624 14.5229 20.5624C10.6569 20.5624 10.4824 20.5769 9.64062 20.9672ZM26.1894 20.9672C25.21 21.4215 24.5477 22.1827 24.2529 23.1933C24.1138 23.6703 24.0707 25.6985 24.1084 29.9913C24.1671 36.6693 24.1517 36.5625 25.2059 37.6128C26.1109 38.5144 26.4759 38.5737 31.1094 38.5737C35.8862 38.5737 36.0603 38.5391 37.1128 37.3786C37.4371 37.0209 37.784 36.4361 37.8836 36.079C38.1511 35.1195 38.1279 23.9475 37.8567 23.043C37.5859 22.1401 36.4794 21.0378 35.5729 20.7681C35.1055 20.6289 33.5659 20.5595 30.9666 20.5607C27.2132 20.5623 27.0286 20.5781 26.1894 20.9672ZM35.8884 22.729L36.4457 23.2843L36.4945 29.3961C36.5483 36.1261 36.5302 36.2624 35.513 36.7864C34.7789 37.1645 27.3644 37.1645 26.6303 36.7864C25.6133 36.2624 25.595 36.1251 25.6488 29.4066L25.6976 23.3052L26.1241 22.8483C26.3587 22.5969 26.7041 22.326 26.8918 22.2463C27.0795 22.1666 29.0551 22.1175 31.282 22.1374L35.3308 22.1736L35.8884 22.729Z" fill="#FF0015"/>
</svg>
