<svg width="45" height="45" viewBox="0 0 45 45" fill="none" xmlns="http://www.w3.org/2000/svg">
<path fill-rule="evenodd" clip-rule="evenodd" d="M22.9072 0.0991263C22.5535 0.187011 22.0563 0.368369 21.8023 0.502313C21.5482 0.636257 16.6292 5.45671 10.8712 11.2143C-0.643677 22.7285 0.00670002 21.9531 0.00670002 24.1645C0.00670002 27.8932 2.97436 32.9755 7.85236 37.6002C10.1389 39.768 12.1526 41.1901 14.7107 42.4437C17.6337 43.8761 19.6802 44.2471 21.5713 43.6876C22.4051 43.4411 22.8766 43.0096 29.3367 36.5825L36.2143 29.74V30.8392C36.2143 32.1513 36.5475 33.0398 37.1404 33.3089L37.5742 33.5058V36.205V38.9041L38.1522 39.4798C38.6455 39.9712 38.8471 40.0556 39.5291 40.0556C40.2111 40.0556 40.4127 39.9712 40.906 39.4798L41.4839 38.9041V31.7216V24.5391L42.5817 23.3249C43.8985 21.8685 44.1084 21.256 43.9865 19.2274C43.7733 15.6839 41.3204 11.4452 36.9792 7.11907C33.6466 3.79774 30.3315 1.56387 27.2193 0.542445C25.7488 0.0596713 23.8512 -0.135402 22.9072 0.0991263ZM26.1068 1.70408C27.5687 2.07476 30.2813 3.43655 32.0455 4.68522C34.1335 6.16318 37.34 9.29435 38.9606 11.438C41.1894 14.3857 42.6643 17.7577 42.6713 19.9205C42.6739 20.7021 42.0889 22.1027 41.707 22.2295C41.5808 22.2715 41.4984 21.6443 41.4528 20.2938C41.3918 18.4797 41.3303 18.1612 40.7858 16.8314C38.0417 10.1307 29.2728 2.63255 24.1806 2.63255C22.8394 2.63255 22.4452 3.02185 22.4452 4.34672C22.4452 6.30694 23.809 9.34667 25.9475 12.152C27.0223 13.5623 29.7328 16.3353 31.1309 17.4553C32.5056 18.5566 34.5261 19.8793 35.4934 20.3114C36.158 20.6083 36.2143 20.6838 36.2143 21.2765V21.9194L35.5768 21.6555C34.0277 21.0137 31.485 19.3271 29.5558 17.6615C28.4234 16.6838 27.8372 16.6138 27.7424 17.4449C27.7001 17.8158 27.7941 18.039 28.0987 18.2916C31.0057 20.7016 33.2725 22.2341 35.0244 22.9737L36.1293 23.4402L36.1771 25.6035L36.225 27.7666L29.1225 34.8534C25.2164 38.7512 21.7908 42.0644 21.5103 42.2161C21.1703 42.4 20.6037 42.4887 19.8104 42.4825C14.7287 42.4415 6.23339 35.6442 2.80896 28.8795C1.68585 26.6608 1.18999 24.4176 1.53422 23.1128C1.71356 22.432 2.59716 21.4971 10.7716 13.3394L19.8104 4.31895L19.9153 5.21135C20.2677 8.20959 22.1295 11.7414 25.3175 15.4597C26.085 16.3546 26.586 16.5588 27.0009 16.1455C27.3633 15.7844 27.2127 15.4393 26.1657 14.232C24.0106 11.7467 22.094 8.42956 21.5023 6.16047C21.14 4.77209 21.2281 3.14885 21.7003 2.50741C22.4654 1.46786 24.0417 1.1805 26.1068 1.70408ZM25.6864 4.26019C28.1708 4.99527 31.4621 7.19832 34.2594 9.99912C36.3185 12.0606 37.6665 13.8351 38.8331 16.0195C40.121 18.4312 40.1186 18.4081 40.1215 28.9858C40.1237 37.2984 40.0946 38.3451 39.8548 38.5434C39.6596 38.7048 39.5077 38.7171 39.3023 38.5881C39.0596 38.4357 39.0125 38.0036 38.9724 35.5623C38.9246 32.6514 38.8389 32.2661 38.2394 32.2661C38.067 32.2661 37.847 32.1188 37.7501 31.9387C37.6385 31.7307 37.5742 29.443 37.5742 25.675V19.7388L36.4751 19.2423C32.4698 17.4333 27.0806 12.159 24.9534 7.96659C24.4475 6.96972 23.8051 4.97021 23.8051 4.39278C23.8051 4.06089 23.8921 3.98722 24.2841 3.98722C24.5478 3.98722 25.1786 4.11016 25.6864 4.26019Z" fill="#FF0015"/>
</svg>
