<svg width="45" height="46" viewBox="0 0 45 46" fill="none" xmlns="http://www.w3.org/2000/svg">
<path fill-rule="evenodd" clip-rule="evenodd" d="M21.2585 1.28032C20.5533 1.80381 20.3031 2.55538 20.3002 4.15886C20.2987 4.92954 20.2415 5.63882 20.1728 5.73492C20.0183 5.95132 17.9361 6.8303 17.5794 6.82962C17.436 6.82928 16.901 6.40443 16.3905 5.8855C15.8799 5.36658 15.2557 4.83361 15.0035 4.70113C14.4554 4.4135 13.46 4.38778 12.9456 4.648C12.4131 4.91753 9.1146 8.18116 8.82603 8.72411C8.38645 9.55131 8.51316 10.4345 9.18916 11.2544C10.1661 12.4393 11.822 13.9354 12.1564 13.9354C12.5315 13.9354 12.9992 13.4983 12.9992 13.1479C12.9992 13.0073 12.3496 12.2197 11.5555 11.3974C10.7615 10.5751 10.1118 9.80934 10.1118 9.69564C10.1118 9.41748 13.3148 6.18278 13.7157 6.05605C13.9475 5.98279 14.3494 6.25334 15.2086 7.06057C16.527 8.2996 17.4011 8.6857 18.2063 8.3847C19.8121 7.7844 20.9456 7.25515 21.2797 6.94992C21.7974 6.47668 21.9992 5.65455 22.0002 4.01318C22.0011 2.91357 22.0554 2.6146 22.27 2.53271C22.7916 2.33323 27.1878 2.41918 27.4025 2.63304C27.5248 2.75486 27.6066 3.34671 27.6073 4.11351C27.6083 5.65709 27.8179 6.48294 28.3278 6.95296C28.5383 7.14686 29.4159 7.59151 30.2782 7.94107C31.7376 8.53258 31.8933 8.56253 32.5275 8.3732C32.964 8.24292 33.6214 7.77814 34.3566 7.08003C34.9878 6.48057 35.6149 5.98855 35.7503 5.98668C36.0441 5.98245 39.4958 9.38009 39.4958 9.67364C39.4958 9.78599 38.964 10.4492 38.3141 11.1475C36.7536 12.8241 36.6992 13.1146 37.5519 15.2165C37.9075 16.0931 38.3717 16.9723 38.5834 17.1704C39.0472 17.6046 40.014 17.8096 41.6432 17.8194C42.5881 17.8252 42.8792 17.8861 42.9595 18.0945C43.1598 18.6141 43.0735 22.9935 42.8588 23.2073C42.7333 23.3324 42.1178 23.4104 41.2563 23.4104C38.9096 23.4104 38.439 23.7435 37.5209 26.0542C36.936 27.5262 36.9069 27.6824 37.0989 28.3204C37.2307 28.7587 37.6998 29.4226 38.4004 30.1623C39.0029 30.7987 39.4958 31.3776 39.4958 31.4492C39.4958 31.6269 36.2583 34.9042 35.8815 35.1079C35.6331 35.2423 35.3105 35.0138 34.0696 33.8246C32.596 32.4125 32.1319 32.1671 31.7167 32.5808C31.29 33.0058 31.5203 33.5237 32.6593 34.701C34.249 36.3441 34.882 36.7769 35.6949 36.7769C36.5251 36.7769 36.8482 36.5642 38.6226 34.8496C40.5409 32.9958 41.0244 32.3211 41.0244 31.4979C41.0244 30.6232 40.7297 30.1087 39.5938 28.9996C39.0729 28.491 38.6465 27.9506 38.6465 27.7986C38.6465 27.6467 38.8624 26.997 39.1264 26.3547L39.6062 25.1869L41.2919 25.0857C43.2128 24.9705 43.7806 24.7617 44.2558 23.9958C44.5553 23.5131 44.5913 23.1486 44.5906 20.5987C44.5897 16.5611 44.3942 16.2896 41.3799 16.1388L39.6125 16.0503L39.1304 14.8659C38.8653 14.2145 38.6481 13.5638 38.6476 13.4198C38.6469 13.2758 38.9614 12.8571 39.3465 12.4892C40.967 10.9406 41.3816 9.85316 40.7815 8.72411C40.493 8.18116 37.1945 4.91753 36.662 4.648C36.1849 4.40673 35.1624 4.40707 34.6863 4.64868C34.4823 4.75223 33.8444 5.29535 33.2688 5.85556C32.099 6.99442 32.1342 6.98934 30.4088 6.26231L29.3897 5.83272L29.3009 4.08915C29.2068 2.23932 29.066 1.82073 28.3487 1.25883C27.9314 0.931772 27.6858 0.907577 24.8233 0.912653C21.9484 0.91756 21.7144 0.941755 21.2585 1.28032ZM23.1902 11.1646C21.4027 11.5094 19.2448 12.6216 18.1934 13.7399C17.7564 14.2049 17.7207 14.3179 17.8924 14.6935C18.1757 15.3128 18.8234 15.249 19.6813 14.5174C23.1314 11.5752 28.4369 12.1481 31.1589 15.7568C32.0097 16.8848 32.3336 17.6062 32.6412 19.058C33.1561 21.4896 32.4339 24.0225 30.6388 26.0811C30.3721 26.3867 30.154 26.7104 30.154 26.8002C30.154 27.0317 30.7937 27.6403 31.0371 27.6403C31.4142 27.6403 32.8091 25.9805 33.3472 24.8915C35.2331 21.0758 34.4803 16.7095 31.4204 13.7154C29.7568 12.0876 27.7074 11.2362 25.2284 11.1433C24.3409 11.11 23.4238 11.1196 23.1902 11.1646ZM12.9004 15.6221C12.7061 15.7004 12.3429 16.006 12.0936 16.3011C11.7432 16.7159 11.6404 17.0181 11.6404 17.633C11.6404 18.6268 11.2951 19.1344 10.5203 19.2793C10.0185 19.373 9.84427 19.3197 9.46364 18.9566C8.78764 18.3115 7.79334 17.9473 7.07522 18.0815C6.6224 18.1661 6.09943 18.557 4.98403 19.6442C2.88027 21.6949 2.72112 22.416 3.99788 24.109C4.58029 24.881 4.63006 25.022 4.46055 25.4189C4.14004 26.1689 4.02624 26.2397 2.94328 26.3618C2.02643 26.465 1.81208 26.5625 1.23459 27.1378L0.574219 27.7954L0.62976 30.1846L0.685131 32.5739L1.31952 33.1525C1.87255 33.6569 2.0689 33.7317 2.84817 33.7339C3.84043 33.7368 4.02675 33.8158 4.31142 34.3547C4.6107 34.921 4.54496 35.5062 4.14242 35.8624C3.54336 36.3923 3.09937 37.5658 3.23186 38.269C3.38744 39.0955 5.9875 41.777 6.86817 42.0193C7.65287 42.235 8.56616 41.9886 9.10373 41.4161C9.75697 40.7205 10.0333 40.6312 10.6888 40.9039C11.414 41.2058 11.6404 41.6108 11.6404 42.6055C11.6404 43.2519 11.7369 43.4855 12.2215 44.0126L12.8024 44.6445L14.9545 44.7009C17.3438 44.7636 17.8522 44.6421 18.5227 43.8483C18.8225 43.4933 18.9447 43.1459 18.9463 42.6434C18.9501 41.4975 19.0909 41.2218 19.8216 40.9306L20.4959 40.6618L21.195 41.258C21.9938 41.9391 22.8252 42.2216 23.5849 42.0702C24.3452 41.9188 27.0373 39.2981 27.2875 38.4658C27.5345 37.645 27.2782 36.8474 26.4928 35.9933C26.1711 35.6434 25.9078 35.3316 25.9078 35.3001C25.9078 35.0785 26.47 33.9719 26.6363 33.8667C26.7494 33.7951 27.1859 33.7351 27.6063 33.7334C28.5245 33.7295 29.3539 33.2704 29.7211 32.5629C30.0749 31.8815 30.0934 28.3414 29.7468 27.6738C29.331 26.8728 28.8284 26.5623 27.6382 26.3715C26.5937 26.204 26.479 26.1434 26.2139 25.6202C25.9652 25.1296 25.9571 24.9907 26.1541 24.6111C26.2798 24.369 26.5403 24.0286 26.7333 23.8548C26.9262 23.6809 27.1693 23.2811 27.2736 22.9664C27.6041 21.9688 27.3403 21.4152 25.7746 19.8193C23.7254 17.7308 22.9983 17.5717 21.3027 18.8407C20.531 19.4183 20.3831 19.4701 19.9425 19.3172C19.2526 19.0776 18.944 18.5602 18.944 17.6428C18.944 16.7603 18.5487 16.1207 17.7484 15.7085C17.2079 15.43 13.5392 15.3647 12.9004 15.6221ZM17.2115 17.1839C17.3236 17.2956 17.4157 17.7714 17.416 18.2414C17.4169 19.4476 17.8704 20.1154 19.0381 20.6298C20.4556 21.2543 21.1252 21.1621 22.2379 20.1889C22.6868 19.7962 22.9575 19.6781 23.2446 19.7498C23.7645 19.8799 25.738 21.9385 25.738 22.351C25.738 22.529 25.5396 22.8591 25.2972 23.0848C24.2638 24.0464 24.1291 25.0575 24.8462 26.4679C25.3959 27.5487 26.094 27.978 27.3031 27.9783C28.3384 27.9787 28.4556 28.2001 28.4556 30.155C28.4556 31.9771 28.3061 32.2082 27.1272 32.2093C26.0131 32.2101 25.3062 32.6855 24.7961 33.7767C24.5687 34.2636 24.3817 34.8788 24.3809 35.144C24.3787 35.7595 24.7912 36.6266 25.3228 37.1242C25.5511 37.3379 25.738 37.6614 25.738 37.8433C25.738 38.2364 23.418 40.4992 23.0149 40.4992C22.8638 40.4992 22.5645 40.3131 22.35 40.0857C21.8504 39.5561 20.98 39.1451 20.362 39.1473C20.0959 39.1482 19.4783 39.3344 18.9895 39.561C17.8941 40.0691 17.4169 40.7733 17.416 41.8831C17.415 43.0574 17.183 43.2063 15.3539 43.2063C13.3914 43.2063 13.1691 43.0896 13.1687 42.0583C13.1684 40.8538 12.7375 40.1584 11.6525 39.6109C10.2366 38.8966 9.22161 39.0307 8.25635 40.0601C8.02977 40.3016 7.68786 40.4992 7.49627 40.4992C7.02647 40.4992 4.84645 38.3348 4.84645 37.8684C4.84645 37.6728 5.03328 37.3379 5.26156 37.1242C5.77739 36.6413 6.20525 35.7651 6.20525 35.191C6.20525 34.9519 6.01926 34.3372 5.79183 33.8251C5.27124 32.6522 4.60747 32.2101 3.36621 32.2093C2.24044 32.2084 2.12885 32.0177 2.12885 30.0936C2.12885 28.214 2.2542 27.9787 3.25564 27.9787C4.69987 27.9787 5.52262 27.3108 6.03166 25.7258C6.31684 24.8377 6.1368 24.097 5.43837 23.2841C5.11277 22.9051 4.84645 22.4569 4.84645 22.2879C4.84645 21.8817 7.04108 19.688 7.44753 19.688C7.62213 19.688 8.07597 19.9533 8.45643 20.2777C8.83673 20.602 9.39842 20.9142 9.70466 20.9714C10.2913 21.081 11.6399 20.7186 12.2629 20.2839C12.7733 19.9278 13.1691 18.9877 13.1691 18.1313C13.1691 17.7218 13.2608 17.2956 13.3729 17.1839C13.6515 16.9064 16.933 16.9064 17.2115 17.1839ZM13.8485 23.6347C10.1368 24.4694 7.81848 28.293 8.89312 31.8077C9.35494 33.3183 10.0503 34.3873 11.118 35.2281C13.3247 36.9655 16.1133 37.1806 18.644 35.8084C22.0594 33.9567 22.9482 29.0883 20.4465 25.9354C18.943 24.0406 16.2378 23.0973 13.8485 23.6347ZM17.5497 25.5878C19.7786 26.7332 20.8376 29.3972 20.0181 31.7978C19.5889 33.0551 18.1027 34.4672 16.8164 34.8396C13.4318 35.8197 10.285 33.533 10.285 30.0936C10.285 28.0587 11.2318 26.521 13.0485 25.6059C14.0243 25.1142 14.205 25.0797 15.4621 25.1438C16.427 25.193 17.0321 25.3218 17.5497 25.5878Z" fill="#FF0015"/>
</svg>
