<svg width="45" height="45" viewBox="0 0 45 45" fill="none" xmlns="http://www.w3.org/2000/svg">
<path fill-rule="evenodd" clip-rule="evenodd" d="M31.7982 5.13831C30.9928 5.5622 30.419 6.24949 29.5435 7.8387C28.7096 9.3524 27.8553 10.0042 24.8363 11.4307C23.3141 12.1498 22.6555 12.3651 21.7058 12.4539C20.1555 12.5989 18.5906 13.2205 16.8225 14.3934L15.4087 15.3312L14.8437 15.04C14.4344 14.8292 14.0311 14.7745 13.3787 14.8416L12.4785 14.9342L12.1644 14.2403C11.9917 13.8588 11.6714 13.4298 11.4525 13.2869C11.0956 13.054 11.01 13.0564 10.622 13.3096C10.1323 13.6294 10.0464 14.2855 10.4507 14.6197C10.5945 14.7387 10.8309 15.2431 10.9761 15.7409C11.2002 16.5087 11.2327 17.9238 11.1906 25.0702C11.1418 33.3623 11.1353 33.5054 10.762 34.2003C9.96424 35.6854 9.40633 35.982 5.6015 36.9457C3.71094 37.4244 3.69069 37.4258 3.0286 37.1127C2.66157 36.9393 2.2151 36.5583 2.03634 36.2663C1.72727 35.7614 1.71118 35.1925 1.71066 24.6852L1.70997 13.6351L2.1021 13.0554C2.32204 12.7303 2.7763 12.3689 3.13693 12.2321C3.71924 12.0114 3.92275 12.025 5.29728 12.3776C7.87121 13.0374 8.74372 13.1598 9.05279 12.9044C9.37968 12.6339 9.40183 12.1993 9.10782 11.8175C8.80395 11.4225 5.08547 10.4812 3.82947 10.4812C1.8735 10.4812 0.301349 11.8685 0.0679054 13.8006C0.00785738 14.2977 -0.0170617 19.5528 0.0123567 25.4785C0.0722317 37.5131 -0.0118702 36.7176 1.33013 37.9253C2.67956 39.1399 3.89783 39.1879 7.54242 38.1699C9.84328 37.5273 10.4374 37.2087 11.4902 36.052L12.1853 35.2884L12.8592 35.569C13.6839 35.9122 14.5042 35.7907 15.1609 35.228L15.6345 34.8221L16.4692 35.2434C16.9281 35.4751 17.7861 35.8312 18.3756 36.0348C19.4044 36.3899 19.7914 36.4073 28.0134 36.4695C33.8727 36.5138 36.7811 36.4751 37.2181 36.3465C38.5907 35.9427 39.5281 34.1386 39.1237 32.6795L38.9546 32.0693L39.5987 31.9833C41.1634 31.7742 42.3237 30.3249 42.1588 28.7855C42.1112 28.3415 42.0199 27.8535 41.9558 27.7011C41.871 27.4996 41.9861 27.3634 42.3781 27.2017C43.5685 26.7106 44.2697 25.1489 43.9312 23.7428C43.6983 22.7761 42.7039 21.7426 41.8411 21.5708C41.5113 21.5051 41.3509 21.3848 41.4052 21.2439C42.072 19.513 41.1686 17.5696 39.4603 17.0597C39.0602 16.9404 37.5549 16.8594 35.7349 16.8594H32.6807L33.1779 15.8681C35.2637 11.7097 36.2146 7.13227 35.2678 5.80767C34.5351 4.78285 33.0265 4.4917 31.7982 5.13831ZM33.9042 7.04039C34.2467 8.32706 33.2651 11.7566 31.5513 15.2614C30.938 16.5158 30.4361 17.6832 30.4361 17.8557C30.4361 18.5425 30.694 18.5832 35.0439 18.5832H39.2365L39.5951 19.0374C39.994 19.5425 40.0533 20.2498 39.732 20.6668C39.2943 21.2346 38.7714 21.3413 36.4274 21.3413C34.2079 21.3413 34.0762 21.3606 33.8205 21.7245C33.4737 22.2176 33.4804 22.3053 33.8971 22.7204C34.2212 23.0433 34.4739 23.0652 37.885 23.0652C41.5211 23.0652 41.5277 23.0659 41.9517 23.4884C42.5137 24.0481 42.5137 24.8404 41.9517 25.4001C41.5305 25.8199 41.5004 25.8233 38.2199 25.8233C36.271 25.8233 34.7752 25.8966 34.5779 26.0017C34.1937 26.2067 34.1193 27.0577 34.4611 27.3403C34.5829 27.441 35.7944 27.5452 37.2122 27.5768C39.4118 27.6259 39.7934 27.6766 40.1092 27.9617C40.5953 28.4006 40.605 29.4842 40.1269 29.9605C39.8097 30.2765 39.5501 30.3053 37.012 30.3053C34.4739 30.3053 34.2143 30.3341 33.8971 30.65C33.0727 31.4713 33.6595 32.0291 35.348 32.0291C36.4951 32.0291 36.6405 32.07 37.0662 32.5126C37.645 33.1144 37.6611 33.7557 37.1134 34.3897L36.6957 34.8734H28.6773C19.9985 34.8734 20.0532 34.8783 17.5872 33.8821L16.2461 33.3404V25.1143V16.8883L16.895 16.3881C18.7138 14.9861 20.1667 14.3581 22.2163 14.0883C23.586 13.908 24.0286 13.7525 25.8887 12.7971C29.3641 11.0124 30.0437 10.4682 31.0409 8.67114C31.9486 7.0359 32.5241 6.47876 33.2345 6.5484C33.6587 6.58995 33.8149 6.70476 33.9042 7.04039ZM14.1809 16.5206C14.5049 16.6933 14.5156 16.9692 14.513 25.0967C14.5115 29.7154 14.4531 33.5776 14.3832 33.6793C14.1811 33.9733 13.7691 34.0643 13.3475 33.9083L12.9582 33.764V25.26C12.9582 18.8756 13.0099 16.7044 13.1658 16.5491C13.4207 16.2951 13.741 16.2862 14.1809 16.5206Z" fill="#FF0015"/>
</svg>
