<svg width="45" height="45" viewBox="0 0 45 45" fill="none" xmlns="http://www.w3.org/2000/svg">
<path fill-rule="evenodd" clip-rule="evenodd" d="M19.6233 2.15923C18.4353 2.96715 16.9738 3.96842 16.3757 4.3842C15.7776 4.79998 11.9852 7.39992 7.9482 10.1616C3.91116 12.9235 0.464956 15.3068 0.289882 15.4581C-0.00933893 15.7165 -0.0256502 16.5899 0.0180277 30.1018L0.0644241 44.4709L2.07651 44.5217C3.72232 44.5634 4.13118 44.5213 4.32329 44.2908C4.50362 44.0741 4.51069 43.9057 4.35392 43.5628C4.16344 43.1461 4.06068 43.1169 2.78677 43.1169H1.4237V29.8631V16.6092L5.18435 14.0315C7.2528 12.6139 9.32288 11.1911 9.78467 10.8699C11.6706 9.55809 21.1217 3.07529 21.5587 2.79347C22.0252 2.49287 22.0451 2.50081 23.6429 3.62575C24.5302 4.25042 26.5612 5.64905 28.156 6.73373C29.7509 7.81859 32.7685 9.88902 34.8618 11.3348C36.9551 12.7805 39.5038 14.5258 40.5254 15.2131L42.3831 16.4626V29.7819V43.101L41.0882 43.1541C40.0906 43.1949 39.7474 43.2797 39.5939 43.5231C39.4489 43.7529 39.4491 43.9252 39.5946 44.155C39.766 44.4258 40.0901 44.4709 41.8591 44.4709H43.9236L43.97 30.0948L44.0164 15.7186L42.5201 14.6538C41.6971 14.068 40.5345 13.2557 39.9364 12.8486C39.3383 12.4415 35.1074 9.53931 30.5342 6.3992C25.9611 3.25926 22.1214 0.690186 22.0014 0.690186C21.8816 0.690186 20.8114 1.35132 19.6233 2.15923ZM5.99085 22.9326C5.67677 23.2455 5.67677 44.0317 5.99085 44.3446C6.30602 44.6585 37.682 44.6585 37.9972 44.3446C38.1567 44.1857 38.2147 42.6944 38.2147 38.7607C38.2147 34.1223 38.176 33.3551 37.9299 33.1098C37.6851 32.8661 36.9598 32.8262 32.7647 32.8262H27.8842V27.9877C27.8842 24.4652 27.8251 23.0904 27.6667 22.9326C27.3526 22.6197 6.30493 22.6197 5.99085 22.9326ZM10.848 25.2993C10.848 26.6687 11.1028 27.1043 11.8537 27.0193L12.3885 26.9586L12.4414 25.5595L12.4943 24.1603H14.2991H16.1038V28.4932V32.8262H11.7542H7.40449V28.4932V24.1603H9.12624H10.848V25.2993ZM21.1784 25.3879C21.1784 26.6873 21.3561 27.0489 21.994 27.0489C22.632 27.0489 22.8096 26.6873 22.8096 25.3879V24.1603H24.5313H26.2531V28.4932V32.8262H21.9034H17.5537V28.4932V24.1603H19.3661H21.1784V25.3879ZM10.848 35.5462C10.848 36.835 11.0691 37.3396 11.6336 37.3396C12.3028 37.3396 12.4791 36.9932 12.4791 35.6787V34.451H14.2915H16.1038V38.784V43.1169H11.7542H7.40449V38.784V34.451H9.12624H10.848V35.5462ZM21.1784 35.6787C21.1784 36.9932 21.3548 37.3396 22.0239 37.3396C22.5885 37.3396 22.8096 36.835 22.8096 35.5462V34.451H24.5313H26.2531V38.784V43.1169H21.9034H17.5537V38.784V34.451H19.3661H21.1784V35.6787ZM31.5462 35.741C31.5872 36.7347 31.6724 37.0766 31.9167 37.2295C32.1472 37.3739 32.3205 37.3739 32.551 37.2295C32.7953 37.0766 32.8805 36.7347 32.9215 35.741L32.9747 34.451H34.7791H36.5835V38.784V43.1169H32.2339H27.8842V38.784V34.451H29.6886H31.493L31.5462 35.741Z" fill="#FF0015"/>
</svg>
