<svg width="45" height="45" viewBox="0 0 45 45" fill="none" xmlns="http://www.w3.org/2000/svg">
<path fill-rule="evenodd" clip-rule="evenodd" d="M14.3273 5.15497C6.38172 7.10144 0.796203 14.1192 0.78907 22.1647C0.781936 30.102 6.13884 37.0216 13.8802 39.0752C15.4705 39.4971 15.9552 39.5471 18.3602 39.538C20.7298 39.5291 21.268 39.4707 22.7967 39.0577C27.7832 37.7102 31.9054 34.3088 34.113 29.7196C34.7681 28.3583 34.8507 27.835 34.4619 27.5135C34.0549 27.1771 33.5542 27.4648 33.0474 28.3265C32.3417 29.5259 30.4258 31.3404 28.9625 32.1954C27.3277 33.1503 25.3257 33.7426 23.3187 33.8651C16.3253 34.292 10.3836 28.9605 10.0505 21.9597C9.94452 19.7337 10.3287 17.9943 11.4239 15.74C12.0198 14.5139 12.4213 13.9825 13.7305 12.6882C15.3747 11.0627 16.4186 10.3953 18.6494 9.54394C20.2286 8.94116 23.5897 8.76663 25.285 9.19957C26.9384 9.62176 28.8205 10.4552 29.8526 11.2223C30.8183 11.94 31.1995 12.0476 31.548 11.7005C31.9504 11.2996 31.7472 10.8783 30.601 9.73649C28.4884 7.63195 25.4456 5.95706 22.2609 5.14578C20.4102 4.6742 16.2702 4.67905 14.3273 5.15497ZM21.7528 6.52622C22.5184 6.71028 23.6348 7.04546 24.2338 7.27112L25.3228 7.68135L23.2769 7.6089C19.088 7.46072 16.053 8.52798 13.1449 11.172C10.9119 13.2024 9.33315 16.0052 8.83956 18.8165C8.53735 20.5382 8.62661 23.5795 9.02137 25.0046C10.5653 30.5779 15.3634 34.6358 21.1815 35.2892C23.6031 35.561 26.754 34.9868 28.7854 33.9034L29.7285 33.4004L29.3073 33.8481C27.9783 35.2606 24.7591 37.0839 22.6094 37.6416C15.7983 39.4088 8.80111 36.8293 4.98029 31.1422C0.599778 24.6225 1.46812 16.2257 7.0947 10.6953C9.16195 8.66334 11.5011 7.39746 14.7936 6.52934C16.5123 6.07613 19.8747 6.07457 21.7528 6.52622ZM39.1862 13.5565C38.2486 14.2705 37.4096 14.8548 37.3218 14.8548C37.2339 14.8548 36.3847 14.3088 35.4344 13.6416C34.4542 12.9532 33.5259 12.4284 33.2885 12.4284C32.7694 12.4284 32.4527 12.728 32.4527 13.2194C32.4527 13.5338 33.3423 16.3402 33.7489 17.3087C33.8418 17.53 33.4566 17.9026 32.0738 18.9285C31.0861 19.6612 30.2085 20.4067 30.1236 20.5848C30.0172 20.8079 30.0591 21.0455 30.2581 21.3481C30.5441 21.7829 30.5706 21.7873 32.9427 21.7873H35.3382L35.8151 23.3038C36.5999 25.7996 36.8731 26.2934 37.4685 26.2934C37.7484 26.2934 38.072 26.1801 38.1873 26.0416C38.3027 25.9031 38.6891 24.8696 39.0461 23.7452L39.6951 21.7006L41.9635 21.614C44.3839 21.5214 44.8054 21.3793 44.8054 20.6548C44.8054 20.2037 44.3225 19.759 42.5785 18.604C41.9146 18.1643 41.2861 17.7023 41.1819 17.5772C41.0419 17.409 41.1275 16.8995 41.5099 15.6257C42.2436 13.1814 42.2844 12.8882 41.9401 12.5452C41.4339 12.0407 40.9364 12.2234 39.1862 13.5565ZM35.9204 15.708C37.1706 16.643 37.5318 16.6212 38.9588 15.5237C39.5959 15.0338 40.1624 14.6778 40.2175 14.7328C40.2727 14.7879 40.1081 15.46 39.852 16.2264C39.5924 17.0025 39.4346 17.7721 39.4955 17.9635C39.5557 18.1524 40.1473 18.6661 40.81 19.1049C41.4726 19.5439 42.0602 19.976 42.1155 20.0652C42.1754 20.1616 41.5436 20.2275 40.5572 20.2275C38.6239 20.2275 38.6597 20.1989 38.0031 22.2639C37.7835 22.9551 37.5501 23.5204 37.4845 23.5204C37.4189 23.5204 37.1556 22.8651 36.8997 22.0641C36.3249 20.2658 36.1104 20.1365 33.981 20.3032C32.6464 20.4077 32.5655 20.3957 32.8877 20.1418C33.0791 19.9909 33.6859 19.5196 34.236 19.0945C35.1134 18.4165 35.2364 18.2472 35.2364 17.7186C35.2364 17.387 35.0407 16.5978 34.8015 15.9647C34.5623 15.3315 34.3665 14.7811 34.3665 14.7414C34.3665 14.6177 34.9379 14.9731 35.9204 15.708Z" fill="#FF0015"/>
</svg>
