<svg width="175" height="34" viewBox="0 0 175 34" fill="none" xmlns="http://www.w3.org/2000/svg">
<path d="M81.8409 28.6875H85.299L90.1194 10.5187V28.6875H93.9966V4.67499H88.6523L83.832 22.3125L79.0116 4.67499H73.5625V28.6875H76.9158V10.5187L81.8409 28.6875ZM110.239 16.7875C110.239 12.5375 108.143 10.9437 103.847 10.9437C101.122 10.9437 99.0266 11.7937 97.7691 12.5375V15.9375C98.817 15.0875 101.227 14.2375 103.323 14.2375C105.314 14.2375 106.152 14.9812 106.152 16.7875V17.7437H105.524C99.3409 17.7437 96.5116 19.8687 96.5116 23.375C96.5116 26.8812 98.6074 28.9 101.751 28.9C104.161 28.9 105.209 28.1562 105.943 27.3062H106.152C106.152 27.7312 106.362 28.3687 106.467 28.6875H110.449C110.344 27.3062 110.239 25.8187 110.239 24.4375V16.7875V16.7875ZM106.152 24.5437C105.628 25.2875 104.685 25.925 103.218 25.925C101.542 25.925 100.703 24.8625 100.703 23.375C100.703 21.3562 102.065 20.6125 105.628 20.6125H106.257V24.5437H106.152ZM117.26 11.2625H113.488V33.6812H117.574V26.6687C118.622 28.2625 120.089 29.0062 121.871 29.0062C125.853 29.0062 128.577 25.8187 128.577 19.975C128.577 14.1312 125.958 10.9437 122.08 10.9437C120.194 10.9437 118.622 11.7937 117.47 13.4937L117.26 11.2625ZM120.718 25.8187C118.622 25.8187 117.47 24.0125 117.47 20.0812C117.47 16.0437 118.622 14.2375 120.928 14.2375C123.128 14.2375 124.281 16.0437 124.281 19.975C124.281 24.0125 123.128 25.8187 120.718 25.8187V25.8187ZM141.257 28.6875H145.868L139.371 19.3375L145.134 11.2625H141.048L135.284 19.3375V11.2625H131.197V28.6875H135.284V20.1875L141.257 28.6875ZM159.491 27.5187V24.1187C158.233 24.9687 156.137 25.7125 154.146 25.7125C151.212 25.7125 150.06 24.3312 149.85 21.3562H159.595V19.125C159.595 13.0687 156.976 10.8375 152.889 10.8375C147.964 10.8375 145.554 14.6625 145.554 19.975C145.554 26.0312 148.488 29.0062 153.622 29.0062C156.452 29.0062 158.338 28.3687 159.491 27.5187ZM152.889 14.2375C154.88 14.2375 155.509 15.9375 155.509 18.0625V18.3812H149.85C149.955 15.6187 151.003 14.2375 152.889 14.2375V14.2375ZM174.161 14.5562V11.2625H160.539V14.5562H165.359V28.6875H169.446V14.5562H174.161Z" fill="black"/>
<path d="M49.3564 32.9375C58.054 32.9375 65.075 25.8188 65.075 17C65.075 8.18125 58.054 1.0625 49.3564 1.0625C40.6588 1.0625 33.6379 8.18125 33.6379 17C33.5331 25.8188 40.6588 32.9375 49.3564 32.9375Z" fill="#FED42B"/>
<path d="M15.7186 32.9375C24.3997 32.9375 31.4371 25.802 31.4371 17C31.4371 8.19796 24.3997 1.0625 15.7186 1.0625C7.03744 1.0625 0 8.19796 0 17C0 25.802 7.03744 32.9375 15.7186 32.9375Z" fill="#FC3F1D"/>
<path d="M18.0236 9.9875H16.4518C13.7272 9.9875 12.3649 11.3687 12.3649 13.4937C12.3649 15.8312 13.308 17 15.2991 18.3812L16.8709 19.55L12.3649 26.6687H8.69727L12.9937 20.1875C10.4787 18.3812 9.11643 16.6812 9.11643 13.7062C9.11643 9.9875 11.6314 7.4375 16.4518 7.4375H21.2721V26.5625H18.1284V9.9875H18.0236Z" fill="white"/>
<path d="M41.6019 9.77501L27.7695 28.1563L31.4372 32.4063L41.7067 18.5938L40.6588 26.1375L46.4222 28.1563L53.4432 16.7875C53.1288 18.9125 52.6049 23.8 57.2156 25.2875C64.4462 27.5188 70.7336 14.3438 73.6677 7.65001L69.4761 5.41876C66.2276 12.325 61.1977 19.975 59.2067 19.4438C57.2156 18.9125 58.9971 12.4313 60.1498 8.28751V8.18126L53.7576 5.95001L46.1079 18.5938L47.1558 11.6875L41.6019 9.77501Z" fill="black"/>
</svg>
