<svg width="145" height="32" viewBox="0 0 145 32" fill="none" xmlns="http://www.w3.org/2000/svg">
<g clip-path="url(#clip0_131_4200)">
<path fill-rule="evenodd" clip-rule="evenodd" d="M17.5263 0.0806131C10.8591 -0.644828 4.47148 2.98238 1.55711 9.10832C-1.31734 15.2343 -0.119652 22.529 4.63117 27.3249C9.382 32.1209 16.608 33.4106 22.6364 30.4685C28.7047 27.5668 32.2977 21.1184 31.6191 14.3879C30.8605 6.85139 24.9919 0.886658 17.5263 0.0806131ZM17.0073 24.4635C13.4142 24.9471 9.901 23.0529 8.30408 19.7884C6.70716 16.5239 7.34593 12.5743 9.901 9.95467C12.4561 7.37532 16.3685 6.69018 19.6422 8.30227C22.8759 9.91437 24.7523 13.461 24.3132 17.0882C23.7542 20.9572 20.8 23.9799 17.0073 24.4635ZM40.1226 0.725449C39.0048 0.725449 37.9668 1.24938 37.2482 2.09573C36.5296 2.98238 36.29 4.11084 36.4897 5.199C36.849 6.9723 38.4459 8.14107 40.2424 8.14107H50.5425L34.5334 29.5819C34.0144 30.267 34.4935 31.2746 35.3718 31.2746H60.4833C62.2399 31.2746 63.8768 30.0655 64.2361 28.3325C64.4756 27.2443 64.1962 26.0756 63.4775 25.2292C62.7589 24.3426 61.7209 23.8589 60.6031 23.8589H48.0673L64.0764 2.45845C64.5954 1.73301 64.1163 0.725449 63.238 0.725449H40.1226ZM140.529 0.806054C138.812 1.20908 137.614 2.78087 137.654 4.55416V17.0076L117.693 0.967263C117.014 0.403031 115.976 0.926961 115.976 1.81361V27.4862C115.936 29.2595 117.134 30.8312 118.851 31.2343C119.929 31.4761 121.086 31.194 121.965 30.5088C122.843 29.7834 123.362 28.7355 123.362 27.6071V15.0328L143.323 31.0731C144.002 31.6373 145.04 31.1134 145.04 30.2267V4.47356C145.04 3.3451 144.521 2.25694 143.643 1.5718C142.764 0.846356 141.607 0.56424 140.529 0.806054ZM88.5491 7.45593C96.9729 7.45593 103.281 11.9698 103.281 16C103.281 20.0302 96.9729 24.5441 88.5491 24.5441C80.1254 24.5441 73.8176 20.0302 73.8176 16C73.8176 11.9698 80.1254 7.45593 88.5491 7.45593ZM88.5491 8.60728e-06C76.3327 8.60728e-06 66.4318 7.17381 66.4318 16C66.4318 24.8262 76.3327 32 88.5491 32C100.766 32 110.666 24.8262 110.666 16C110.666 7.17381 100.766 8.60728e-06 88.5491 8.60728e-06Z" fill="#0069FF"/>
</g>
<defs>
<clipPath id="clip0_131_4200">
<rect width="145" height="32" fill="white"/>
</clipPath>
</defs>
</svg>
