<svg width="221" height="54" viewBox="0 0 221 54" fill="none" xmlns="http://www.w3.org/2000/svg">
<g clip-path="url(#clip0_131_4222)">
<g clip-path="url(#clip1_131_4222)">
<path d="M83.5638 12.5426C83.1858 10.6285 82.6161 8.74887 81.8613 6.92651V6.92651C81.1364 5.08925 80.2275 3.31451 79.1458 1.62398C78.7605 1.04097 78.1829 0.579368 77.4927 0.302771C76.8025 0.0261733 76.0335 -0.0518129 75.2918 0.0795551C73.1755 0.478323 71.0948 1.01643 69.0669 1.6895C67.0273 2.33643 65.0443 3.1186 63.1344 4.02954C62.4723 4.35534 61.9391 4.85693 61.6081 5.46535C61.277 6.07378 61.1644 6.75916 61.2857 7.42728C61.6618 9.34174 62.2316 11.2215 62.9882 13.0434C63.7056 14.8796 64.6093 16.6529 65.6881 18.3412C66.0723 18.9242 66.6487 19.3862 67.3379 19.6636C68.0271 19.941 68.7954 20.0202 69.5369 19.8903C71.6532 19.4895 73.7337 18.9498 75.7618 18.2757C77.8024 17.6273 79.787 16.8452 81.6994 15.9357C82.3635 15.6122 82.8993 15.1122 83.2332 14.5046C83.567 13.8969 83.6825 13.2115 83.5638 12.5426V12.5426Z" fill="#F72A16"/>
<path d="M106.891 3.40243C104.908 2.62699 102.864 1.98254 100.776 1.47424C98.6896 0.937832 96.5618 0.540501 94.4101 0.285502C93.66 0.205779 92.9009 0.336206 92.237 0.658853C91.573 0.9815 91.0369 1.48053 90.7023 2.08733C89.7659 3.84612 89.009 5.67726 88.441 7.55834C87.8372 9.43012 87.4264 11.3476 87.2138 13.2868C87.1414 13.964 87.308 14.6446 87.6903 15.2324C88.0726 15.8202 88.6512 16.2855 89.3445 16.5628C91.3259 17.3345 93.3681 17.9743 95.4545 18.477C97.5411 19.0102 99.6689 19.4044 101.82 19.6563C102.571 19.741 103.332 19.6127 103.997 19.2895C104.663 18.9663 105.198 18.4645 105.528 17.8545C106.47 16.0973 107.229 14.2658 107.795 12.3835C108.399 10.5146 108.814 8.60041 109.032 6.66445C109.096 5.98902 108.924 5.31257 108.541 4.72834C108.157 4.1441 107.581 3.68085 106.891 3.40243Z" fill="#FABC22"/>
<path d="M134.773 12.5426C134.397 10.628 133.828 8.74819 133.07 6.92654V6.92654C132.345 5.08928 131.436 3.31454 130.355 1.62401C129.97 1.04187 129.393 0.580847 128.704 0.304302C128.015 0.0277564 127.247 -0.050745 126.506 0.0795842C122.273 0.903158 118.182 2.23166 114.343 4.02957C113.681 4.35537 113.148 4.85696 112.817 5.46538C112.486 6.07381 112.373 6.75919 112.495 7.42731C112.871 9.34177 113.441 11.2216 114.197 13.0434C114.922 14.8792 115.831 16.6524 116.913 18.3412C117.297 18.9251 117.875 19.3877 118.565 19.6651C119.255 19.9426 120.024 20.0213 120.767 19.8904C122.881 19.49 124.96 18.9503 126.986 18.2757C129.027 17.6283 131.012 16.8461 132.924 15.9357C133.585 15.6102 134.118 15.1093 134.449 14.5019C134.78 13.8944 134.893 13.21 134.773 12.5426V12.5426Z" fill="#06C92E"/>
<path d="M158.122 3.40243C154.133 1.87355 149.936 0.825434 145.641 0.285502C144.891 0.205779 144.131 0.336206 143.467 0.658853C142.803 0.9815 142.267 1.48053 141.933 2.08733C140.996 3.84612 140.24 5.67726 139.672 7.55834C139.07 9.43068 138.659 11.348 138.444 13.2868C138.377 13.9634 138.545 14.6422 138.927 15.2291C139.309 15.8161 139.885 16.2821 140.575 16.5628C142.556 17.3393 144.598 17.9837 146.685 18.491C148.767 19.0187 150.889 19.4082 153.035 19.6563C153.786 19.7403 154.547 19.6117 155.212 19.2886C155.877 18.9655 156.412 18.464 156.743 17.8545C157.68 16.0961 158.437 14.2649 159.004 12.3835V12.3835C159.598 10.5137 160.002 8.59954 160.211 6.66445C160.278 5.99429 160.114 5.32167 159.741 4.73804C159.367 4.15441 158.802 3.68808 158.122 3.40243V3.40243Z" fill="#00C2FC"/>
<path d="M19.2988 48.8787C19.3009 49.0323 19.2687 49.1847 19.2041 49.3269C19.1395 49.4691 19.0438 49.5983 18.9227 49.7069C18.8015 49.8155 18.6573 49.9013 18.4986 49.9592C18.3399 50.0171 18.1698 50.0459 17.9985 50.0441H15.8104C15.6388 50.0473 15.4683 50.0191 15.3094 49.9612C15.1504 49.9032 15.0064 49.8168 14.8861 49.7071C14.7637 49.5993 14.6672 49.4702 14.6025 49.3277C14.5379 49.1853 14.5064 49.0325 14.5101 48.8787V43.8523C14.5064 43.6986 14.5379 43.5458 14.6025 43.4033C14.6672 43.2608 14.7637 43.1317 14.8861 43.0239C15.0064 42.9143 15.1504 42.8278 15.3094 42.7698C15.4683 42.7119 15.6388 42.6837 15.8104 42.687H16.4945C16.8167 42.2995 17.0817 41.8763 17.2831 41.428C17.5197 40.9047 17.7134 40.3666 17.8627 39.8181C18.0194 39.2378 18.1552 38.634 18.2544 38.0116C18.3536 37.3891 18.4319 36.7667 18.4789 36.1395L18.6147 34.333C18.631 34.0173 18.7847 33.7199 19.043 33.5047C19.1669 33.3954 19.3138 33.3094 19.4752 33.2516C19.6366 33.1937 19.8092 33.1652 19.983 33.1677H29.5971C29.7684 33.1658 29.9385 33.1947 30.0972 33.2526C30.2559 33.3105 30.4001 33.3962 30.5212 33.5048C30.6424 33.6134 30.7381 33.7426 30.8027 33.8849C30.8673 34.0271 30.8995 34.1795 30.8974 34.333V42.687H32.1612C32.3325 42.6851 32.5026 42.7139 32.6613 42.7718C32.82 42.8297 32.9642 42.9155 33.0854 43.0241C33.2065 43.1327 33.3022 43.2619 33.3668 43.4041C33.4314 43.5464 33.4636 43.6988 33.4615 43.8523V48.8787C33.4636 49.0323 33.4314 49.1847 33.3668 49.3269C33.3022 49.4691 33.2065 49.5983 33.0854 49.7069C32.9642 49.8155 32.82 49.9013 32.6613 49.9592C32.5026 50.0171 32.3325 50.0459 32.1612 50.0441H29.9731C29.8017 50.0459 29.6317 50.0171 29.473 49.9592C29.3143 49.9013 29.1701 49.8155 29.0489 49.7069C28.9278 49.5983 28.8321 49.4691 28.7675 49.3269C28.7028 49.1847 28.6706 49.0323 28.6728 48.8787V46.9786H19.2727L19.2988 48.8787ZM25.764 37.4734H23.4714L23.3879 38.0256C23.2726 39.0026 23.0558 39.9677 22.7403 40.9085C22.5297 41.5335 22.2295 42.1313 21.8473 42.687H25.7483L25.764 37.4734Z" fill="#0073E6"/>
<path d="M40.1304 41.6153C40.3512 42.2369 40.8374 42.7551 41.4829 43.0567C42.1749 43.3766 42.9448 43.5375 43.7233 43.5248C44.2266 43.5282 44.7294 43.4969 45.2273 43.4312C45.6616 43.3701 46.0872 43.2665 46.4963 43.1223C46.7374 43.0435 46.9917 43.0023 47.2483 43.0006C47.4972 42.9871 47.745 43.0404 47.9599 43.1538C48.1748 43.2672 48.347 43.4355 48.4546 43.6371L48.9769 44.6152C49.0683 44.7877 49.1147 44.9765 49.1126 45.1675C49.1234 45.3711 49.0717 45.5734 48.963 45.7525C48.8544 45.9316 48.693 46.0805 48.4964 46.183C47.6552 46.617 46.7446 46.9326 45.7965 47.1191C44.9353 47.2618 44.0612 47.3323 43.1854 47.3297C42.0092 47.3449 40.8396 47.1689 39.7335 46.8102C38.7559 46.5008 37.8649 46.005 37.122 45.3569C36.3791 44.7089 35.8019 43.9241 35.4304 43.0567C35.0193 42.1098 34.8154 41.1009 34.8298 40.0849C34.8236 39.1227 35.0276 38.1688 35.4304 37.2768C35.8163 36.4159 36.3857 35.6306 37.1067 34.9649C37.8445 34.2849 38.7343 33.7522 39.7178 33.4017C40.8153 33.0097 41.9884 32.8157 43.1697 32.8308C44.1356 32.8293 45.0935 32.988 45.995 33.2988C46.8755 33.5935 47.6828 34.0403 48.3711 34.6139C49.0612 35.19 49.6215 35.8795 50.0213 36.645C50.4376 37.4842 50.6461 38.3943 50.6323 39.3127C50.6448 39.7821 50.6152 40.2516 50.5435 40.7167C50.4837 40.963 50.3328 41.184 50.1153 41.3438C49.9209 41.5228 49.6574 41.6283 49.379 41.6387L40.1304 41.6153ZM45.5041 38.5451C45.4921 38.054 45.2652 37.5867 44.8722 37.2441C44.6247 37.0339 44.3312 36.8721 44.0103 36.769C43.6893 36.6658 43.3479 36.6236 43.0078 36.645C42.3065 36.597 41.6075 36.7618 41.0234 37.113C40.5374 37.4858 40.1759 37.9717 39.9789 38.5171L45.5041 38.5451Z" fill="#0073E6"/>
<path d="M57.7497 46.9786C57.5783 46.9805 57.4083 46.9516 57.2496 46.8937C57.0908 46.8358 56.9467 46.7501 56.8255 46.6415C56.7043 46.5329 56.6086 46.4037 56.544 46.2614C56.4794 46.1192 56.4472 45.9668 56.4493 45.8133V37.7822H53.316C53.145 37.7829 52.9756 37.7531 52.8175 37.6948C52.6595 37.6365 52.5158 37.5506 52.395 37.4423C52.2741 37.334 52.1783 37.2053 52.1132 37.0636C52.0481 36.9219 52.0149 36.7701 52.0156 36.6169V34.3471C52.0149 34.1939 52.0481 34.042 52.1132 33.9004C52.1783 33.7587 52.2741 33.63 52.395 33.5217C52.5158 33.4133 52.6595 33.3275 52.8175 33.2692C52.9756 33.2108 53.145 33.1811 53.316 33.1817H64.7266C64.8979 33.1798 65.0679 33.2087 65.2266 33.2666C65.3854 33.3245 65.5295 33.4103 65.6507 33.5188C65.7719 33.6274 65.8676 33.7567 65.9322 33.8989C65.9968 34.0411 66.029 34.1935 66.0269 34.3471V36.6169C66.029 36.7705 65.9968 36.9228 65.9322 37.0651C65.8676 37.2073 65.7719 37.3365 65.6507 37.4451C65.5295 37.5537 65.3854 37.6395 65.2266 37.6974C65.0679 37.7553 64.8979 37.7841 64.7266 37.7822H61.5932V45.8133C61.5953 45.9668 61.5631 46.1192 61.4985 46.2614C61.4339 46.4037 61.3382 46.5329 61.217 46.6415C61.0959 46.7501 60.9517 46.8358 60.793 46.8937C60.6343 46.9516 60.4642 46.9805 60.2929 46.9786H57.7497Z" fill="#0073E6"/>
<path d="M78.4826 37.6559C77.7567 37.3137 76.9525 37.1263 76.1326 37.1083C75.7236 37.1085 75.3176 37.1702 74.9314 37.2909C74.5452 37.4164 74.1903 37.6088 73.887 37.8572C73.5631 38.1194 73.3019 38.4378 73.1193 38.7932C72.9163 39.1974 72.8164 39.637 72.8269 40.0802C72.8193 40.5156 72.9248 40.9466 73.135 41.3391C73.33 41.6927 73.5975 42.0102 73.9235 42.2751C74.2384 42.5284 74.6032 42.7268 74.9993 42.8602C75.3888 42.9894 75.8008 43.056 76.2161 43.0567C77.0688 43.0414 77.8988 42.8075 78.6079 42.3828C78.8886 42.2039 79.2243 42.1075 79.5688 42.1067C79.7743 42.1067 79.9767 42.1514 80.1586 42.237C80.3405 42.3226 80.4965 42.4465 80.6132 42.5981L81.6577 43.857C81.835 44.0689 81.9304 44.3269 81.9292 44.5918C81.9367 44.7811 81.8931 44.9693 81.8022 45.1404C81.7113 45.3115 81.5758 45.4604 81.407 45.5746C80.5545 46.2231 79.5653 46.7117 78.4982 47.0114C77.6487 47.2282 76.7704 47.3416 75.8871 47.3483C74.682 47.3626 73.4835 47.1867 72.3464 46.8289C71.341 46.512 70.4199 46.0116 69.6413 45.3593C68.889 44.7136 68.3042 43.9275 67.9284 43.0567C67.5173 42.1098 67.3134 41.1008 67.3279 40.0849C67.3215 39.124 67.52 38.1709 67.9128 37.2768C68.2893 36.416 68.8519 35.6303 69.5682 34.9649C70.3017 34.291 71.1814 33.759 72.1532 33.4017C73.2045 33.0135 74.3324 32.8193 75.4693 32.8307C76.401 32.8226 77.3309 32.9058 78.2423 33.0788C79.1753 33.2839 80.0597 33.6374 80.8535 34.1224C81.0739 34.2249 81.2599 34.3782 81.3921 34.5667C81.5243 34.7551 81.598 34.9717 81.6055 35.1942C81.6047 35.4016 81.5336 35.604 81.4018 35.7745L80.4096 37.2487C80.2972 37.4371 80.129 37.5939 79.9235 37.7021C79.7181 37.8103 79.4833 37.8655 79.245 37.8618C78.9738 37.8616 78.7087 37.79 78.4826 37.6559V37.6559Z" fill="#0073E6"/>
<path d="M89.9763 40.3844V45.8133C89.9784 45.9668 89.9462 46.1192 89.8816 46.2614C89.817 46.4037 89.7213 46.5329 89.6002 46.6415C89.479 46.7501 89.3348 46.8358 89.1761 46.8937C89.0174 46.9516 88.8473 46.9805 88.676 46.9786H86.1432C85.9719 46.9805 85.8018 46.9516 85.6431 46.8937C85.4844 46.8358 85.3402 46.7501 85.219 46.6415C85.0979 46.5329 85.0022 46.4037 84.9376 46.2614C84.873 46.1192 84.8408 45.9668 84.8429 45.8133V34.3471C84.8408 34.1935 84.873 34.0411 84.9376 33.8989C85.0022 33.7567 85.0979 33.6274 85.219 33.5189C85.3402 33.4103 85.4844 33.3245 85.6431 33.2666C85.8018 33.2087 85.9719 33.1798 86.1432 33.1817H88.6655C88.8369 33.1798 89.0069 33.2087 89.1656 33.2666C89.3244 33.3245 89.4685 33.4103 89.5897 33.5189C89.7109 33.6274 89.8066 33.7567 89.8712 33.8989C89.9358 34.0411 89.968 34.1935 89.9659 34.3471V39.191L93.9348 33.9493C94.1204 33.7218 94.3593 33.5333 94.6346 33.397C94.911 33.2547 95.2245 33.1804 95.5432 33.1817H97.935C98.1155 33.1774 98.2949 33.2082 98.4608 33.2721C98.6266 33.3359 98.7751 33.4312 98.8959 33.5515C99.1254 33.7514 99.2638 34.0208 99.284 34.3071C99.3043 34.5934 99.205 34.8762 99.0056 35.1006L95.3813 39.3922L97.0577 41.4468C97.487 42.0635 98.1396 42.5294 98.9064 42.7665C99.304 42.8107 99.6727 42.9759 99.9508 43.2345C100.151 43.5397 100.24 43.8929 100.207 44.2454V46.1175C100.204 46.3684 100.096 46.6092 99.9038 46.7914C99.7177 46.9847 99.4634 47.1152 99.1831 47.1611L98.6609 47.2032C98.499 47.2032 98.3267 47.2032 98.1387 47.2032C97.7088 47.2004 97.2802 47.1597 96.8592 47.0816C96.3914 46.9823 95.9414 46.8247 95.5223 46.6136C95.0339 46.3674 94.5857 46.0618 94.1907 45.7056C93.6853 45.2526 93.2338 44.7539 92.8433 44.2174L89.9763 40.3844Z" fill="#0073E6"/>
<path d="M115.017 46.9786C114.847 46.9786 114.679 46.9484 114.522 46.8896C114.365 46.8309 114.223 46.7449 114.103 46.6365C113.984 46.5281 113.889 46.3995 113.826 46.2582C113.762 46.1169 113.73 45.9656 113.732 45.8133V39.7806L108.824 46.2111C108.652 46.4281 108.438 46.6152 108.192 46.7633C107.944 46.9099 107.653 46.985 107.356 46.9786H104.411C104.239 46.9805 104.069 46.9516 103.911 46.8937C103.752 46.8358 103.608 46.7501 103.487 46.6415C103.365 46.5329 103.27 46.4037 103.205 46.2614C103.141 46.1192 103.108 45.9668 103.11 45.8133V34.3471C103.108 34.1935 103.141 34.0411 103.205 33.8989C103.27 33.7567 103.365 33.6274 103.487 33.5189C103.608 33.4103 103.752 33.3245 103.911 33.2666C104.069 33.2087 104.239 33.1799 104.411 33.1817H106.944C107.115 33.1799 107.285 33.2087 107.444 33.2666C107.602 33.3245 107.747 33.4103 107.868 33.5189C107.989 33.6274 108.085 33.7567 108.149 33.8989C108.214 34.0411 108.246 34.1935 108.244 34.3471V40.3844L113.137 33.9493C113.301 33.7375 113.502 33.551 113.732 33.397C113.973 33.2487 114.26 33.1732 114.552 33.1817H117.529C117.7 33.1793 117.871 33.2079 118.03 33.2658C118.188 33.3237 118.333 33.4097 118.453 33.5187C118.576 33.6265 118.672 33.7556 118.737 33.8981C118.802 34.0405 118.833 34.1933 118.829 34.3471V45.8133C118.833 45.967 118.802 46.1198 118.737 46.2623C118.672 46.4047 118.576 46.5338 118.453 46.6416C118.333 46.7507 118.188 46.8367 118.03 46.8946C117.871 46.9525 117.7 46.9811 117.529 46.9786H115.017Z" fill="#0073E6"/>
<path d="M134.517 46.9786C134.346 46.9805 134.176 46.9517 134.017 46.8938C133.859 46.8359 133.714 46.7501 133.593 46.6415C133.472 46.5329 133.376 46.4037 133.312 46.2615C133.247 46.1192 133.215 45.9669 133.217 45.8133V39.7807L128.324 46.2205C128.152 46.4375 127.938 46.6246 127.692 46.7727C127.443 46.9199 127.149 46.9951 126.851 46.988H123.911C123.739 46.9899 123.568 46.9608 123.408 46.9023C123.249 46.8438 123.104 46.7572 122.983 46.6476C122.862 46.538 122.766 46.4077 122.702 46.2644C122.638 46.121 122.607 45.9676 122.611 45.8133V34.3471C122.609 34.1936 122.641 34.0412 122.705 33.8989C122.77 33.7567 122.866 33.6275 122.987 33.5189C123.108 33.4103 123.252 33.3245 123.411 33.2666C123.57 33.2087 123.74 33.1799 123.911 33.1818H126.444C126.615 33.1799 126.785 33.2087 126.944 33.2666C127.103 33.3245 127.247 33.4103 127.368 33.5189C127.489 33.6275 127.585 33.7567 127.649 33.8989C127.714 34.0412 127.746 34.1936 127.744 34.3471V40.3844L132.637 33.9493C132.805 33.736 133.012 33.5493 133.248 33.3971C133.498 33.2441 133.797 33.1685 134.1 33.1818H137.076C137.247 33.1805 137.417 33.2098 137.575 33.268C137.733 33.3262 137.876 33.4121 137.997 33.5206C138.118 33.6291 138.213 33.7581 138.277 33.9C138.341 34.042 138.373 34.194 138.371 34.3471V45.8133C138.373 45.9665 138.341 46.1185 138.277 46.2604C138.213 46.4023 138.118 46.5313 137.997 46.6398C137.876 46.7484 137.733 46.8342 137.575 46.8924C137.417 46.9506 137.247 46.9799 137.076 46.9786H134.517ZM133.765 27.1445C134.053 27.1251 134.342 27.1614 134.612 27.2511C134.882 27.3407 135.128 27.4815 135.332 27.664C135.691 28.0371 135.878 28.5193 135.854 29.0118C135.844 29.4217 135.717 29.8225 135.487 30.1768C135.257 30.5311 134.931 30.8275 134.538 31.0383C133.661 31.5843 132.355 31.8589 130.622 31.862C128.703 31.862 127.33 31.5874 126.501 31.0383C126.123 30.8197 125.81 30.5208 125.592 30.1681C125.373 29.8155 125.255 29.4199 125.248 29.0165C125.225 28.5242 125.412 28.0425 125.77 27.6686C125.969 27.4857 126.209 27.3439 126.475 27.2534C126.742 27.1628 127.027 27.1256 127.311 27.1445C127.774 27.1091 128.236 27.2255 128.611 27.4721C128.887 27.6957 129.088 27.9843 129.191 28.3051C129.29 28.5629 129.455 28.7967 129.671 28.9884C129.803 29.0879 129.955 29.163 130.119 29.2096C130.283 29.2562 130.455 29.2733 130.627 29.2599C130.783 29.2721 130.94 29.2542 131.088 29.2074C131.236 29.1605 131.37 29.0859 131.483 28.9884C131.679 28.7886 131.83 28.5565 131.927 28.3051C132.03 27.9843 132.23 27.6957 132.507 27.4721C132.868 27.2296 133.315 27.1131 133.765 27.1445V27.1445Z" fill="#0073E6"/>
<path d="M154.085 45.8132C154.087 45.9668 154.055 46.1192 153.99 46.2614C153.925 46.4037 153.83 46.5329 153.709 46.6415C153.587 46.7501 153.443 46.8358 153.284 46.8937C153.126 46.9516 152.956 46.9805 152.784 46.9786H150.252C150.08 46.9805 149.91 46.9516 149.752 46.8937C149.593 46.8358 149.449 46.7501 149.327 46.6415C149.206 46.5329 149.111 46.4037 149.046 46.2614C148.981 46.1192 148.949 45.9668 148.951 45.8132V34.3471C148.949 34.1935 148.981 34.0411 149.046 33.8989C149.111 33.7566 149.206 33.6274 149.327 33.5188C149.449 33.4102 149.593 33.3245 149.752 33.2666C149.91 33.2087 150.08 33.1798 150.252 33.1817H152.68C152.983 33.1868 153.282 33.253 153.553 33.3753C153.824 33.4976 154.061 33.673 154.247 33.8884L158.184 37.8712L161.808 33.9165C162 33.7042 162.232 33.5237 162.493 33.383C162.75 33.2469 163.045 33.1773 163.344 33.1817H165.636C165.808 33.1798 165.978 33.2087 166.136 33.2666C166.295 33.3245 166.439 33.4102 166.56 33.5188C166.682 33.6274 166.777 33.7566 166.842 33.8989C166.907 34.0411 166.939 34.1935 166.937 34.3471V45.8132C166.939 45.9668 166.907 46.1192 166.842 46.2614C166.777 46.4037 166.682 46.5329 166.56 46.6415C166.439 46.7501 166.295 46.8358 166.136 46.8937C165.978 46.9516 165.808 46.9805 165.636 46.9786H163.104C162.932 46.9805 162.762 46.9516 162.603 46.8937C162.445 46.8358 162.301 46.7501 162.179 46.6415C162.058 46.5329 161.962 46.4037 161.898 46.2614C161.833 46.1192 161.801 45.9668 161.803 45.8132V40.1972L158.894 43.1409C158.785 43.2564 158.649 43.3492 158.496 43.413C158.342 43.4768 158.176 43.5102 158.007 43.5106C157.841 43.5116 157.677 43.4823 157.524 43.4243C157.371 43.3664 157.233 43.2811 157.119 43.1737L154.074 40.1972L154.085 45.8132Z" fill="#0073E6"/>
<path d="M182.614 46.9786C182.443 46.9805 182.273 46.9516 182.114 46.8937C181.955 46.8358 181.811 46.7501 181.69 46.6415C181.569 46.5329 181.473 46.4037 181.409 46.2614C181.344 46.1192 181.312 45.9668 181.314 45.8133V39.7806L176.4 46.2111C176.228 46.4281 176.014 46.6152 175.768 46.7633C175.52 46.9099 175.229 46.985 174.932 46.9786H171.987C171.816 46.9805 171.646 46.9516 171.487 46.8937C171.328 46.8358 171.184 46.7501 171.063 46.6415C170.942 46.5329 170.846 46.4037 170.781 46.2614C170.717 46.1192 170.685 45.9668 170.687 45.8133V34.3471C170.685 34.1935 170.717 34.0411 170.781 33.8989C170.846 33.7567 170.942 33.6274 171.063 33.5189C171.184 33.4103 171.328 33.3245 171.487 33.2666C171.646 33.2087 171.816 33.1799 171.987 33.1817H174.52C174.691 33.1799 174.861 33.2087 175.02 33.2666C175.179 33.3245 175.323 33.4103 175.444 33.5189C175.565 33.6274 175.661 33.7567 175.725 33.8989C175.79 34.0411 175.822 34.1935 175.82 34.3471V40.3844L180.713 33.9493C180.883 33.736 181.092 33.5494 181.33 33.397C181.57 33.2487 181.857 33.1732 182.149 33.1817H185.126C185.297 33.1799 185.467 33.2087 185.626 33.2666C185.785 33.3245 185.929 33.4103 186.05 33.5189C186.171 33.6274 186.267 33.7567 186.332 33.8989C186.396 34.0411 186.429 34.1935 186.426 34.3471V45.8133C186.429 45.9668 186.396 46.1192 186.332 46.2614C186.267 46.4037 186.171 46.5329 186.05 46.6415C185.929 46.7501 185.785 46.8358 185.626 46.8937C185.467 46.9516 185.297 46.9805 185.126 46.9786H182.614Z" fill="#0073E6"/>
<path d="M195.341 51.9489C195.343 52.1024 195.31 52.2548 195.246 52.397C195.181 52.5393 195.086 52.6685 194.964 52.7771C194.843 52.8857 194.699 52.9714 194.54 53.0293C194.382 53.0872 194.212 53.1161 194.04 53.1142H191.507C191.336 53.1161 191.166 53.0872 191.007 53.0293C190.849 52.9714 190.704 52.8857 190.583 52.7771C190.462 52.6685 190.366 52.5393 190.302 52.397C190.237 52.2548 190.205 52.1024 190.207 51.9489V34.3471C190.205 34.1935 190.237 34.0411 190.302 33.8989C190.366 33.7567 190.462 33.6275 190.583 33.5189C190.704 33.4103 190.849 33.3245 191.007 33.2666C191.166 33.2087 191.336 33.1799 191.507 33.1817H194.213C194.361 33.1792 194.509 33.2036 194.648 33.2535C194.786 33.3034 194.911 33.3778 195.017 33.4722C195.122 33.5665 195.205 33.679 195.26 33.8028C195.316 33.9266 195.343 34.0592 195.341 34.1926C195.854 33.7815 196.444 33.4551 197.085 33.2285C197.889 32.9389 198.751 32.7973 199.618 32.812C200.589 32.804 201.55 32.9827 202.438 33.3362C203.273 33.6738 204.012 34.1761 204.6 34.8057C205.209 35.4697 205.678 36.2278 205.983 37.0428C206.323 37.9474 206.491 38.8966 206.48 39.8509C206.488 40.8523 206.286 41.8461 205.884 42.7806C205.502 43.6611 204.932 44.4668 204.208 45.1534C203.469 45.8407 202.58 46.384 201.597 46.7493C200.518 47.1477 199.359 47.3451 198.192 47.3296C197.668 47.3311 197.144 47.2967 196.625 47.2267C196.174 47.1668 195.732 47.0584 195.309 46.9037L195.341 51.9489ZM195.341 42.5372C195.674 42.7221 196.037 42.8609 196.416 42.9491C196.849 43.0315 197.29 43.0677 197.732 43.0567C198.196 43.0906 198.662 43.0265 199.093 42.8697C199.523 42.7128 199.907 42.4675 200.213 42.1535C200.758 41.5297 201.042 40.755 201.017 39.9632C201.041 39.227 200.769 38.5076 200.249 37.9367C199.97 37.6562 199.623 37.4363 199.235 37.2936C198.847 37.1509 198.428 37.0892 198.009 37.113C197.492 37.1312 196.985 37.2504 196.524 37.4621C196.063 37.6739 195.659 37.9732 195.341 38.3392V42.5372Z" fill="#0073E6"/>
</g>
</g>
<defs>
<clipPath id="clip0_131_4222">
<rect width="221" height="54" fill="white"/>
</clipPath>
<clipPath id="clip1_131_4222">
<rect width="191.98" height="67" fill="white" transform="translate(14.5098)"/>
</clipPath>
</defs>
</svg>
