<svg width="203" height="50" viewBox="0 0 203 50" fill="none" xmlns="http://www.w3.org/2000/svg">
<g clip-path="url(#clip0_131_4202)">
<path fill-rule="evenodd" clip-rule="evenodd" d="M202.071 46.23V3.77003C202.071 1.69651 200.235 0 197.99 0H4.12722C1.88249 0 0.0458984 1.69651 0.0458984 3.77003V46.23C0.0458984 48.3035 1.88249 50 4.12722 50H197.99C200.235 50 202.071 48.3035 202.071 46.23Z" fill="url(#paint0_linear_131_4202)"/>
<path fill-rule="evenodd" clip-rule="evenodd" d="M22.2384 33.836L17.1367 16.164H20.5038L24.4321 29.7361L28.6664 16.164H31.7785L36.0128 29.7832L39.9921 16.164H43.3082L38.2065 33.836H34.3293L30.1969 20.6409L26.1156 33.836H22.2384Z" fill="white"/>
<path d="M48.8683 16.164H45.6543V33.836H48.8683V16.164Z" fill="white"/>
<path fill-rule="evenodd" clip-rule="evenodd" d="M55.705 31.0556H63.4595V33.836H52.542V16.164H55.705V31.0556Z" fill="white"/>
<path fill-rule="evenodd" clip-rule="evenodd" d="M73.3051 16.164C75.9069 16.164 78.1006 17.0594 79.8352 18.7088C81.5698 20.4053 82.437 22.4788 82.437 24.9764C82.437 27.427 81.5698 29.5476 79.8352 31.2441C78.1006 32.9406 75.9069 33.7889 73.3051 33.7889H65.8057V16.164H73.3051ZM73.3051 31.0556C75.0907 31.0556 76.5701 30.4901 77.6925 29.3591C78.8149 28.2281 79.4271 26.7672 79.4271 25.0236C79.4271 23.2328 78.8659 21.819 77.6925 20.688C76.5701 19.557 75.0907 18.9915 73.3051 18.9915H68.9177V31.1027H73.3051V31.0556Z" fill="white"/>
<path fill-rule="evenodd" clip-rule="evenodd" d="M99.324 28.7936C99.324 30.2545 98.7628 31.4326 97.6404 32.4222C96.5181 33.3648 95.1916 33.8831 93.5591 33.8831H85.3965V16.164H92.9979C94.5794 16.164 95.9059 16.6353 96.9772 17.5778C98.0996 18.5203 98.6097 19.6984 98.6097 21.065C98.6097 22.6202 97.9465 23.7983 96.6711 24.6937C98.3547 25.4948 99.324 26.9557 99.324 28.7936ZM88.5595 18.8973V23.5627H92.9979C94.3754 23.5627 95.4467 22.5259 95.4467 21.2535C95.4467 19.934 94.3754 18.9444 92.9979 18.9444H88.5595V18.8973ZM93.6101 31.1027C95.0896 31.1027 96.212 30.0189 96.212 28.6051C96.212 27.2385 95.0896 26.1546 93.6101 26.1546H88.5595V31.1027H93.6101Z" fill="white"/>
<path fill-rule="evenodd" clip-rule="evenodd" d="M105.446 31.0556H113.915V33.836H102.334V16.164H113.813V18.9444H105.446V23.5156H113.098V26.2488H105.446V31.0556Z" fill="white"/>
<path fill-rule="evenodd" clip-rule="evenodd" d="M127.638 33.836L123.557 27.3798H119.833V33.836H116.721V16.164H124.373C126.108 16.164 127.536 16.7295 128.71 17.8134C129.883 18.8973 130.495 20.2168 130.495 21.819C130.495 24.0811 128.965 26.1075 126.72 26.9557L131.056 33.836H127.638ZM119.884 18.8973V24.7879H124.373C126.057 24.7879 127.383 23.4684 127.383 21.819C127.383 20.1697 126.057 18.8501 124.373 18.8501H119.884V18.8973Z" fill="white"/>
<path fill-rule="evenodd" clip-rule="evenodd" d="M144.371 33.836L140.341 27.3798H136.617V33.836H133.505V16.164H141.157C142.892 16.164 144.32 16.7295 145.494 17.8134C146.667 18.8973 147.279 20.2168 147.279 21.819C147.279 24.0811 145.749 26.1075 143.504 26.9557L147.841 33.836H144.371ZM136.668 18.8973V24.7879H141.157C142.841 24.7879 144.167 23.4684 144.167 21.819C144.167 20.1697 142.841 18.8501 141.157 18.8501H136.668V18.8973Z" fill="white"/>
<path d="M153.3 16.164H150.188V33.836H153.3V16.164Z" fill="white"/>
<path fill-rule="evenodd" clip-rule="evenodd" d="M160.135 31.0556H168.604V33.836H157.023V16.164H168.502V18.9444H160.135V23.5156H167.788V26.2488H160.135V31.0556Z" fill="white"/>
<path fill-rule="evenodd" clip-rule="evenodd" d="M170.798 29.7832L173.502 28.3223C174.267 30.3016 175.848 31.2912 178.246 31.2912C180.644 31.2912 181.817 30.3487 181.817 28.9821C181.817 28.2281 181.511 27.7097 180.848 27.3327C180.236 26.9557 179.063 26.5316 177.43 26.0603C175.593 25.5419 174.675 25.2121 173.4 24.4581C172.175 23.6569 171.563 22.4788 171.563 20.8765C171.563 19.3214 172.175 18.0961 173.349 17.1536C174.522 16.2111 176.002 15.787 177.685 15.787C180.746 15.787 183.093 17.2479 184.368 19.6984L181.715 21.1122C180.899 19.4628 179.573 18.6616 177.685 18.6616C175.848 18.6616 174.675 19.5099 174.675 20.8765C174.675 22.196 175.593 22.8087 178.552 23.6098C179.267 23.8454 179.828 23.9868 180.134 24.1282C180.491 24.2224 180.95 24.4109 181.562 24.6466C182.175 24.8822 182.685 25.1178 182.94 25.3534C183.96 26.1074 184.878 27.2384 184.878 28.9821C184.878 30.5843 184.266 31.8567 182.991 32.7992C181.766 33.7417 180.134 34.1659 178.093 34.1659C174.471 34.1187 171.767 32.5165 170.798 29.7832Z" fill="white"/>
</g>
<defs>
<linearGradient id="paint0_linear_131_4202" x1="0.0458984" y1="24.9984" x2="202.054" y2="24.9984" gradientUnits="userSpaceOnUse">
<stop stop-color="#A92284"/>
<stop offset="1" stop-color="#53237D"/>
</linearGradient>
<clipPath id="clip0_131_4202">
<rect width="202.025" height="50" fill="white" transform="translate(0.0458984)"/>
</clipPath>
</defs>
</svg>
