<?xml version="1.0" encoding="utf-8"?>
<!-- Generator: Adobe Illustrator 24.3.0, SVG Export Plug-In . SVG Version: 6.00 Build 0)  -->
<svg version="1.1" id="Layer_1" xmlns="http://www.w3.org/2000/svg" xmlns:xlink="http://www.w3.org/1999/xlink" x="0px" y="0px"
	 width="864.623px" height="315.71px" viewBox="0 0 864.623 315.71" enable-background="new 0 0 864.623 315.71"
	 xml:space="preserve">
<g>
	<path fill="#FFFFFF" d="M85.491,238.988l46.983-46.983l46.979,46.983v50.925H85.491V238.988z M25.678,168.537V97.09l34.14,34.14
		v71.451L25.678,168.537z M85.491,131.23l34.14-34.14v71.447l-34.14,34.14V131.23z M145.313,168.537V97.09l34.14,34.14v71.451
		L145.313,168.537z M205.126,131.23l34.144-34.14v71.447l-34.144,34.14V131.23z M36.933,72.034l35.719-35.724l35.728,35.724
		l-35.728,35.723L36.933,72.034z M156.564,72.034l35.723-35.724l35.728,35.724l-35.728,35.723L156.564,72.034z M192.287,0
		l-59.813,59.822L72.652,0L0,72.657V179.17l59.818,59.818v49.541H0v25.673h264.944v-25.673h-59.818v-49.541l59.818-59.818V72.657
		L192.287,0z"/>
	<polygon fill="#FFFFFF" points="441.952,95.335 441.952,71.985 354.224,71.985 354.224,169.776 380.502,169.776 380.502,95.335 	
		"/>
	<g>
		<path fill="#FFFFFF" d="M504.255,143.506c9.484,1.462,19.556,1.462,30.068,1.462h4.085c30.359,0,38.826-15.771,38.826-35.036
			v-5.839c0-19.26-9.049-35.032-41.745-35.032h-4.09c-17.659,0-36.781,1.022-53.422,2.919v97.799h26.278V143.506z M504.255,93.734
			c9.632-0.879,20.87-1.314,27-1.314c19.709,0,19.709,5.978,19.709,14.592c0,8.471,0,14.597-20.731,14.597
			c-9.045,0-16.933-0.144-25.978-1.314V93.734z"/>
	</g>
	<polygon fill="#FFFFFF" points="615.107,71.984 615.107,169.775 641.385,169.775 692.615,107.012 692.615,169.775 718.893,169.775 
		718.893,71.984 692.615,71.984 641.385,134.747 641.385,71.984 	"/>
	<polygon fill="#FFFFFF" points="838.353,71.985 838.353,109.936 787.267,109.936 787.267,71.985 760.989,71.985 760.989,169.779 
		787.267,169.779 787.267,133.286 838.353,133.286 838.353,169.779 864.622,169.779 864.622,71.985 	"/>
	<polygon fill="#FFFFFF" points="354.226,217.916 354.226,315.706 380.499,315.706 380.499,241.266 428.666,241.266 
		428.666,315.706 454.94,315.706 454.94,217.916 	"/>
	<path fill="#FFFFFF" d="M540.682,241.414l14.884,33.422h-29.772L540.682,241.414z M527.543,217.916l-46.257,97.79h26.404
		l8.323-18.973h49.185l8.471,18.973h26.409l-46.261-97.79H527.543z"/>
	<g>
		<path fill="#FFFFFF" d="M727.239,250.023c0-19.265-9.049-35.032-41.749-35.032h-4.085c-17.664,0-36.789,1.022-53.426,2.919v97.799
			h26.283v-26.274c9.48,1.462,19.552,1.462,30.063,1.462h4.085c30.359,0,38.83-15.771,38.83-35.036V250.023z M680.234,267.539
			c-9.045,0-16.933-0.144-25.974-1.314V239.66c9.632-0.879,20.866-1.314,26.992-1.314c19.713,0,19.713,5.982,19.713,14.592
			C700.965,261.409,700.965,267.539,680.234,267.539"/>
	</g>
	<polygon fill="#FFFFFF" points="834.042,217.912 803.787,255.863 787.267,255.863 787.267,217.912 760.989,217.912 
		760.989,315.707 787.267,315.707 787.267,279.209 804.953,279.209 834.042,315.707 864.623,315.707 825.245,266.805 
		864.623,217.912 	"/>
</g>
</svg>
