<?xml version="1.0" encoding="utf-8"?>
<!-- Generator: Adobe Illustrator 24.3.0, SVG Export Plug-In . SVG Version: 6.00 Build 0)  -->
<svg version="1.1" id="Layer_1" xmlns="http://www.w3.org/2000/svg" xmlns:xlink="http://www.w3.org/1999/xlink" x="0px" y="0px"
	 width="1065.825px" height="1230.188px" viewBox="0 0 1065.825 1230.188" enable-background="new 0 0 1065.825 1230.188"
	 xml:space="preserve">
<g>
	<path fill="#F0F0F0" d="M922.673,348.134L715.032,140.494l-182.12,182.12l-182.12-182.12l-207.64,207.641v339.36l189.245,189.244
		v176.167H143.152v36.788h779.522v-36.788H733.428V876.738l189.246-189.243V348.134z M194.686,348.627l156.106-156.106
		l156.106,156.106L350.792,504.734L194.686,348.627z M715.032,504.734L558.925,348.627l156.106-156.106l156.106,156.106
		L715.032,504.734z M514.518,566.592L369.186,711.923v-60.765l145.332-145.331V566.592z M551.306,505.826l145.332,145.332v60.765
		L551.306,566.591V505.826z M514.518,453.799L369.186,599.132v-60.765l145.332-145.332V453.799z M696.638,599.132L551.306,453.799
		v-60.764l145.332,145.332V599.132z M514.518,618.618v60.765L369.186,824.714V763.95L514.518,618.618z M733.428,711.921v-60.765
		l152.456-152.455v60.763L733.428,711.921z M551.306,679.382v-60.764L696.638,763.95v60.764L551.306,679.382z M733.428,599.13
		v-60.765L885.883,385.91v60.764L733.428,599.13z M332.397,599.131L179.94,446.674v-60.765l152.457,152.457V599.131z
		 M332.397,651.157v60.765L179.94,559.464V498.7L332.397,651.157z M332.397,763.949v60.764L179.94,672.256v-60.764L332.397,763.949z
		 M733.428,763.948l152.456-152.456v60.763L733.428,824.712V763.948z M369.186,876.74l163.726-163.725L696.638,876.74v176.166
		H369.186V876.74z"/>
</g>
</svg>
