<?xml version="1.0" encoding="utf-8"?>
<!-- Generator: Adobe Illustrator 24.3.0, SVG Export Plug-In . SVG Version: 6.00 Build 0)  -->
<svg version="1.1" id="Layer_1" xmlns="http://www.w3.org/2000/svg" xmlns:xlink="http://www.w3.org/1999/xlink" x="0px" y="0px"
	 width="492.61px" height="364px" viewBox="0 0 492.61 364" enable-background="new 0 0 492.61 364" xml:space="preserve">
<g>
	<path fill="none" stroke="#005A46" stroke-width="5" stroke-miterlimit="10" d="M443.61,4.209
		c-23.836,11-47.711,21.961-71.625,32.875c-23.918,10.918-47.793,21.875-71.625,32.875l22,73.75
		c19.664-9.164,39.289-18.289,58.875-27.375c4.046-1.876,8.083-3.744,12.125-5.617c0,12.062,0,24.138,0,36.242v97
		c0,20.836,0,39.5,0,56s0,33.586,0,51.25h96.75c0-17.664,0-34.75,0-51.25s0-35.164,0-56v-117c0-20.164,0-40.207,0-60.125
		c0-19.914,0-39.957,0-60.125L443.61,4.209z"/>
</g>
<g>
	<g>
		<circle fill="#005A46" cx="151.35" cy="147.588" r="2.65"/>
	</g>
</g>
<g>
	<g>
		<circle fill="#005A46" cx="179.97" cy="147.588" r="2.65"/>
	</g>
</g>
<g>
	<g>
		<path fill="#005A46" d="M171.312,161.898h-11.306c-1.463,0-2.65,1.187-2.65,2.65s1.186,2.65,2.65,2.65h11.306
			c1.463,0,2.65-1.187,2.65-2.65S172.776,161.898,171.312,161.898z"/>
	</g>
</g>
<g>
	<g>
		<path fill="#005A46" d="M233.877,250.585L213.148,188.4c-0.55-1.649-1.386-3.141-2.441-4.43v-23.113
			c1.683-0.935,2.827-2.73,2.827-4.789v-11.306c0-2.059-1.143-3.854-2.827-4.789v-6.516c0-24.84-20.208-45.049-45.048-45.049
			s-45.049,20.209-45.049,45.049v6.517c-1.683,0.935-2.827,2.73-2.827,4.789v11.306c0,2.059,1.143,3.854,2.827,4.789v17.823
			c0,1.463,1.187,2.65,2.65,2.65s2.65-1.187,2.65-2.65v-17.136h3.18v8.656c0,1.463,1.187,2.65,2.65,2.65h10.53
			c3.222,2.685,6.908,4.824,10.913,6.282c-0.048,0.024-0.097,0.046-0.145,0.073c-1.271,0.726-1.712,2.345-0.986,3.616l11.306,19.786
			c0.999,1.748,3.603,1.748,4.602,0l10.544-18.451h21.406c3.732,0,7.032,2.379,8.212,5.919l20.728,62.185
			c1.407,4.222-0.721,8.986-4.833,10.719c-1.067,0.45-2.222,0.675-3.38,0.675H210.7c0.002-0.059,0.009-0.117,0.009-0.177v-11.306
			c0-3.91-2.718-7.196-6.363-8.072l-10.756-29.579c-0.5-1.376-2.021-2.085-3.396-1.585c-1.376,0.5-2.085,2.021-1.585,3.396
			l10.013,27.537h-10.349c-4.578,0-8.303,3.725-8.303,8.303v11.306c0,0.06,0.007,0.118,0.009,0.177h-49.777
			c-1.463,0-2.65,1.187-2.65,2.65s1.187,2.65,2.65,2.65h90.435c4.541,0,8.667-2.113,11.322-5.796
			C234.614,259.475,235.313,254.892,233.877,250.585z M129.09,156.245h-5.83c-0.098,0-0.177-0.079-0.177-0.177v-11.306
			c0-0.098,0.079-0.177,0.177-0.177h5.83V156.245z M129.205,139.285h-3.295v-5.83c0-21.918,17.831-39.749,39.749-39.749
			s39.749,17.831,39.749,39.749v5.83h-3.295c-1.348-15.811-14.647-28.266-30.801-28.266h-11.306
			C143.852,111.019,130.554,123.474,129.205,139.285z M196.928,141.935v3.828l-27.01-17.363c-1.734-1.114-4.083,0.175-4.083,2.229
			v6.525l-18.558-11.599c-1.14-0.713-2.634-0.459-3.474,0.592l-9.004,11.255c2.148-11.968,12.629-21.082,25.207-21.082h11.306
			C185.437,116.319,196.928,127.81,196.928,141.935z M134.39,167.551v-3.836c0.814,1.338,1.711,2.619,2.684,3.836H134.39z
			 M165.659,195.952l-6.639-11.618h13.279L165.659,195.952z M165.659,176.031c-4.904,0-9.558-1.146-13.71-3.18h2.404
			c1.463,0,2.65-1.187,2.65-2.65s-1.187-2.65-2.65-2.65h-10.087c-5.623-5.275-9.31-12.609-9.816-20.836
			c-0.008-0.139-0.031-0.274-0.06-0.406v-0.061c0.184-0.135,0.355-0.294,0.505-0.481l11.573-14.467l20.612,12.883
			c1.735,1.084,4.054-0.208,4.054-2.247v-6.453l25.046,16.101C193.024,165.828,180.396,176.031,165.659,176.031z M205.408,179.985
			c-1.701-0.729-3.564-1.127-5.499-1.127h-21.008c8.403-3.254,15.353-9.528,19.425-17.627c0.373,0.2,0.799,0.315,1.252,0.315h5.83
			L205.408,179.985L205.408,179.985z M208.234,156.068c0,0.098-0.079,0.177-0.177,0.177h-5.83v-11.66h5.83
			c0.098,0,0.177,0.079,0.177,0.177V156.068z M205.408,263.478c0,0.098-0.079,0.177-0.177,0.177h-3.003v-3.003
			c0-1.463-1.187-2.65-2.65-2.65c-1.463,0-2.65,1.187-2.65,2.65v3.003h-3.18v-3.003c0-1.463-1.187-2.65-2.65-2.65
			s-2.65,1.187-2.65,2.65v3.003h-3.003c-0.098,0-0.177-0.079-0.177-0.177v-11.306c0-1.656,1.347-3.003,3.003-3.003h14.124
			c0.003,0,0.006,0.001,0.009,0.001c0.002,0,0.005,0,0.007,0c1.652,0.004,2.996,1.349,2.996,3.003L205.408,263.478L205.408,263.478z
			"/>
	</g>
</g>
<g>
	<g>
		<circle fill="#005A46" cx="165.66" cy="215.426" r="2.65"/>
	</g>
</g>
<g>
	<g>
		<circle fill="#005A46" cx="165.66" cy="226.909" r="2.65"/>
	</g>
</g>
<g>
	<g>
		<circle fill="#005A46" cx="165.66" cy="238.392" r="2.65"/>
	</g>
</g>
<g>
	<g>
		<path fill="#005A46" d="M141.405,196.417l4.183-14.159c0.283-0.957,0.004-1.992-0.722-2.677c-0.725-0.685-1.774-0.905-2.714-0.568
			l-15.401,5.521c-7.091-3.717-15.112-5.676-23.277-5.676c-26.398,0-47.875,20.209-47.875,45.049
			c0,13.065,6.019,25.472,16.513,34.04c1.134,0.925,2.803,0.757,3.729-0.377c0.925-1.134,0.757-2.803-0.377-3.729
			c-9.256-7.557-14.565-18.468-14.565-29.935c0-21.918,19.099-39.749,42.575-39.749c7.678,0,15.206,1.931,21.769,5.586
			c0.668,0.372,1.464,0.437,2.183,0.179l11.6-4.158l-3.108,10.523c-0.257,0.871-0.051,1.812,0.547,2.496
			c6.181,7.065,9.585,15.988,9.585,25.124c0,21.918-19.099,39.749-42.575,39.749c-6.602,0-12.928-1.372-18.803-4.077
			c-1.329-0.612-2.903-0.03-3.515,1.299c-0.612,1.329-0.03,2.903,1.299,3.515c6.576,3.028,13.648,4.563,21.02,4.563
			c26.398,0,47.875-20.209,47.875-45.049C151.35,213.966,147.828,204.262,141.405,196.417z"/>
	</g>
</g>
<g>
	<g>
		<path fill="#005A46" d="M117.607,241.984h-3.769c-0.617,0-1.119-0.502-1.119-1.119v-16.96c0-1.463-1.187-2.65-2.65-2.65H95.936
			c-1.463,0-2.65,1.187-2.65,2.65v20.728c0,5.617,4.57,10.187,10.188,10.187h6.595c6.096,0,9.222-6,10.108-9.545
			C120.59,243.629,119.303,241.984,117.607,241.984z M110.07,249.522h-6.596c-2.695,0-4.888-2.193-4.888-4.887v-18.078h8.833v14.309
			c0,3.433,2.71,6.246,6.103,6.411C112.719,248.466,111.58,249.522,110.07,249.522z"/>
	</g>
</g>
<g>
	<g>
		<path fill="#005A46" d="M103.474,195.817c-6.137,0-11.13,4.993-11.13,11.13s4.993,11.13,11.13,11.13
			c6.137,0,11.13-4.993,11.13-11.13S109.611,195.817,103.474,195.817z M103.474,212.776c-3.215,0-5.83-2.615-5.83-5.83
			c0-3.214,2.615-5.83,5.83-5.83c3.215,0,5.83,2.615,5.83,5.83C109.304,210.161,106.689,212.776,103.474,212.776z"/>
	</g>
</g>
<path fill="none" stroke="#005A46" stroke-width="5" stroke-miterlimit="10" d="M153.5,361.5c-27.5,0-50.875-4.625-70.125-13.875
	s-34.793-22.082-46.625-38.5c-11.836-16.414-20.5-35.457-26-57.125c-5.5-21.664-8.25-44.832-8.25-69.5
	c0-35,5.125-66.039,15.375-93.125C28.125,62.293,44.164,41.043,66,25.625C87.832,10.211,116.25,2.5,151.25,2.5
	c26.664,0,49.457,4.418,68.375,13.25c18.914,8.836,34.457,21.293,46.625,37.375c12.164,16.086,21.125,35.086,26.875,57
	c5.75,21.918,8.625,45.875,8.625,71.875c0,35.836-5.293,67.211-15.875,94.125C275.289,303.043,259.039,324,237.125,339
	C215.207,354,187.332,361.5,153.5,361.5z"/>
</svg>
