<?xml version="1.0" encoding="utf-8"?>
<!-- Generator: Adobe Illustrator 24.3.0, SVG Export Plug-In . SVG Version: 6.00 Build 0)  -->
<svg version="1.1" id="Layer_1" xmlns="http://www.w3.org/2000/svg" xmlns:xlink="http://www.w3.org/1999/xlink" x="0px" y="0px"
	 width="600.114px" height="364px" viewBox="0 0 600.114 364" enable-background="new 0 0 600.114 364" xml:space="preserve">
<path fill="none" stroke="#005A46" stroke-width="5" stroke-miterlimit="10" d="M153.5,361.5c-27.5,0-50.875-4.625-70.125-13.875
	s-34.793-22.082-46.625-38.5c-11.836-16.414-20.5-35.457-26-57.125c-5.5-21.664-8.25-44.832-8.25-69.5
	c0-35,5.125-66.039,15.375-93.125C28.125,62.293,44.164,41.043,66,25.625C87.832,10.211,116.25,2.5,151.25,2.5
	c26.664,0,49.457,4.418,68.375,13.25c18.914,8.836,34.457,21.293,46.625,37.375c12.164,16.086,21.125,35.086,26.875,57
	c5.75,21.918,8.625,45.875,8.625,71.875c0,35.836-5.293,67.211-15.875,94.125C275.289,303.043,259.039,324,237.125,339
	C215.207,354,187.332,361.5,153.5,361.5z"/>
<path fill="none" stroke="#005A46" stroke-width="5" stroke-miterlimit="10" d="M564.739,206.467c-2.866,0-5.742,0-8.625,0v-73.5
	c0-19.832,0-39.707,0-59.625c0-19.914,0-40.207,0-60.875h-95.25c-7.168,10.168-14.375,20.375-21.625,30.625
	s-14.543,20.543-21.875,30.875l-40,56.25c-6.668,9.5-13.961,19.836-21.875,31c-7.918,11.168-15.793,22.293-23.625,33.375
	c-7.836,11.086-14.918,21.125-21.25,30.125v63.75h149.25c0,6.747,0,13.168,0,19.25c0,15.836,0,32.25,0,49.25h96.25
	c0-17,0-33.414,0-49.25c0-6.082,0-12.503,0-19.25c2.883,0,5.759,0,8.625,0c12.414,0,23.375,0,32.875,0v-82
	C588.114,206.467,577.153,206.467,564.739,206.467z M430.614,164.717l36.5-51.969c0,13.431,0,26.844,0,40.219v60.25h-70.632
	c4.35-6.222,8.689-12.434,13.007-18.625C416.403,184.678,423.446,174.717,430.614,164.717z"/>
<g>
	<path fill="#005A46" d="M187.619,122.032c0-9.468-7.703-17.17-17.17-17.17c-9.469,0-17.172,7.703-17.172,17.17
		c0,9.469,7.703,17.172,17.172,17.172C179.917,139.204,187.619,131.501,187.619,122.032z M158.586,122.032
		c0-6.541,5.322-11.862,11.863-11.862s11.862,5.321,11.862,11.862c0,6.542-5.321,11.863-11.862,11.863
		S158.586,128.573,158.586,122.032z"/>
	<path fill="#005A46" d="M141.201,112.93c1.466,0,2.654-1.188,2.654-2.654s-1.188-2.654-2.654-2.654h-6.978
		c-1.466,0-2.654,1.188-2.654,2.654s1.188,2.654,2.654,2.654H141.201z"/>
	<path fill="#005A46" d="M81.758,112.93h35.27c1.466,0,2.654-1.188,2.654-2.654s-1.188-2.654-2.654-2.654h-35.27
		c-1.466,0-2.654,1.188-2.654,2.654S80.292,112.93,81.758,112.93z"/>
	<path fill="#005A46" d="M81.758,136.443h9.095c1.466,0,2.654-1.188,2.654-2.654c0-1.466-1.188-2.654-2.654-2.654h-9.095
		c-1.466,0-2.654,1.188-2.654,2.654C79.104,135.255,80.292,136.443,81.758,136.443z"/>
	<path fill="#005A46" d="M108.05,131.135c-1.466,0-2.654,1.188-2.654,2.654c0,1.466,1.188,2.654,2.654,2.654h5.75
		c1.466,0,2.654-1.188,2.654-2.654c0-1.466-1.188-2.654-2.654-2.654H108.05z"/>
	<path fill="#005A46" d="M81.758,124.686h59.443c1.466,0,2.654-1.188,2.654-2.654s-1.188-2.654-2.654-2.654H81.758
		c-1.466,0-2.654,1.188-2.654,2.654S80.292,124.686,81.758,124.686z"/>
	<path fill="#005A46" d="M88.717,168.67h89.291c5.3,0,9.611-4.313,9.611-9.613s-4.311-9.611-9.611-9.611H88.717
		c-5.3,0-9.613,4.311-9.613,9.611S83.417,168.67,88.717,168.67z M88.717,154.754h89.291c2.372,0,4.303,1.929,4.303,4.303
		s-1.931,4.304-4.303,4.304H88.717c-2.373,0-4.304-1.931-4.304-4.304S86.343,154.754,88.717,154.754z"/>
	<path fill="#005A46" d="M88.717,193.017h89.291c5.3,0,9.611-4.313,9.611-9.613s-4.311-9.611-9.611-9.611H88.717
		c-5.3,0-9.613,4.311-9.613,9.611S83.417,193.017,88.717,193.017z M88.717,179.102h89.291c2.372,0,4.303,1.931,4.303,4.303
		c0,2.373-1.931,4.304-4.303,4.304H88.717c-2.373,0-4.304-1.931-4.304-4.304C84.413,181.033,86.343,179.102,88.717,179.102z"/>
	<path fill="#005A46" d="M88.717,217.365h89.291c5.3,0,9.611-4.311,9.611-9.611s-4.311-9.613-9.611-9.613H88.717
		c-5.3,0-9.613,4.313-9.613,9.613S83.417,217.365,88.717,217.365z M88.717,203.449h89.291c2.372,0,4.303,1.931,4.303,4.304
		c0,2.372-1.931,4.303-4.303,4.303H88.717c-2.373,0-4.304-1.931-4.304-4.303C84.413,205.38,86.343,203.449,88.717,203.449z"/>
	<path fill="#005A46" d="M88.717,241.712h62.635c5.3,0,9.613-4.311,9.613-9.611c0-5.3-4.313-9.613-9.613-9.613H88.717
		c-5.3,0-9.613,4.313-9.613,9.613C79.104,237.401,83.417,241.712,88.717,241.712z M88.717,227.796h62.635
		c2.373,0,4.303,1.931,4.303,4.304s-1.929,4.303-4.303,4.303H88.717c-2.373,0-4.304-1.929-4.304-4.303
		S86.343,227.796,88.717,227.796z"/>
	<path fill="#005A46" d="M234.106,230.058h-10.031v-8.859c0-2.264-1.367-4.213-3.315-5.073l3.889-17.829
		c1.116-5.123-0.238-10.571-3.627-14.574c-3.23-3.815-7.947-6.003-12.946-6.003c-0.835,0-1.663,0.066-2.477,0.185V96.993
		c0-4.862-3.956-8.817-8.817-8.817H69.941c-4.862,0-8.817,3.956-8.817,8.817v28.476c0,1.466,1.188,2.654,2.654,2.654
		s2.654-1.188,2.654-2.654V96.993c0-1.935,1.574-3.509,3.509-3.509h126.842c1.935,0,3.509,1.574,3.509,3.509v82.62
		c-1.949,1.007-3.707,2.391-5.162,4.109c-2.006,2.371-3.322,5.245-3.806,8.311c-0.23,1.448,0.759,2.808,2.206,3.036
		c1.451,0.23,2.808-0.759,3.037-2.207c0.332-2.107,1.237-4.082,2.616-5.71c2.219-2.621,5.461-4.124,8.895-4.124
		c3.434,0,6.676,1.503,8.895,4.124c2.328,2.75,3.259,6.492,2.491,10.013l-4.033,18.488h-14.705l-2.477-11.358
		c-0.313-1.432-1.725-2.339-3.159-2.028c-1.433,0.313-2.34,1.728-2.028,3.159l2.333,10.699c-1.95,0.86-3.317,2.809-3.317,5.073
		v8.859h-10.029c-4.581,0-8.308,3.726-8.308,8.307v6.764c0,4.581,3.728,8.307,8.308,8.307h0.141l1.611,7.151
		c0.288,1.275,0.779,2.455,1.436,3.51H69.941c-1.935,0-3.509-1.574-3.509-3.509V137.649c0-1.466-1.188-2.654-2.654-2.654
		s-2.654,1.188-2.654,2.654v122.939c0,4.862,3.956,8.819,8.817,8.819l151.427-0.035c5.303,0,9.822-3.613,10.986-8.786l1.611-7.151
		h0.141c4.58,0,8.307-3.726,8.307-8.307v-6.764C242.414,233.784,238.686,230.058,234.106,230.058z M197.386,221.199
		c0-0.13,0.106-0.237,0.237-0.237h20.91c0.13,0,0.235,0.107,0.235,0.237v8.859h-21.382V221.199z M227.176,259.419
		c-0.617,2.736-3.004,4.645-5.808,4.645h-26.581c-2.804,0-5.191-1.909-5.808-4.645l-1.347-5.983h40.891L227.176,259.419z
		 M237.105,245.128c0,1.653-1.346,2.999-2.999,2.999h-52.058c-1.653,0-2.999-1.346-2.999-2.999v-6.764
		c0-1.654,1.346-2.999,2.999-2.999h52.058c1.654,0,2.999,1.344,2.999,2.999V245.128z"/>
</g>
</svg>
