<?xml version="1.0" encoding="utf-8"?>
<!-- Generator: Adobe Illustrator 24.3.0, SVG Export Plug-In . SVG Version: 6.00 Build 0)  -->
<svg version="1.1" id="Layer_1" xmlns="http://www.w3.org/2000/svg" xmlns:xlink="http://www.w3.org/1999/xlink" x="0px" y="0px"
	 width="551.364px" height="364px" viewBox="0 0 551.364 364" enable-background="new 0 0 551.364 364" xml:space="preserve">
<path fill="none" stroke="#005A46" stroke-width="5" stroke-miterlimit="10" d="M153.5,361.5c-27.5,0-50.875-4.625-70.125-13.875
	s-34.793-22.082-46.625-38.5c-11.836-16.414-20.5-35.457-26-57.125c-5.5-21.664-8.25-44.832-8.25-69.5
	c0-35,5.125-66.039,15.375-93.125C28.125,62.293,44.164,41.043,66,25.625C87.832,10.211,116.25,2.5,151.25,2.5
	c26.664,0,49.457,4.418,68.375,13.25c18.914,8.836,34.457,21.293,46.625,37.375c12.164,16.086,21.125,35.086,26.875,57
	c5.75,21.918,8.625,45.875,8.625,71.875c0,35.836-5.293,67.211-15.875,94.125C275.289,303.043,259.039,324,237.125,339
	C215.207,354,187.332,361.5,153.5,361.5z"/>
<path fill="none" stroke="#005A46" stroke-width="5" stroke-miterlimit="10" d="M501.614,274.967c-15.836,0-31.668,0-47.5,0h-22.038
	l21.038-15.75c21.5-15.832,39.125-31.832,52.875-48c13.75-16.164,23.875-32.625,30.375-49.375s9.75-33.625,9.75-50.625
	c0-22.164-4.711-41.207-14.125-57.125c-9.418-15.914-23.336-28.082-41.75-36.5c-18.418-8.414-40.961-12.625-67.625-12.625
	c-11.836,0-23.5,0.711-35,2.125c-11.5,1.418-22.586,3.375-33.25,5.875c-10.668,2.5-20.75,5.293-30.25,8.375
	c-9.5,3.086-18.168,6.375-26,9.875l8,91c7.5-5.164,15.25-9.957,23.25-14.375c8-4.414,16.082-8.289,24.25-11.625
	c8.164-3.332,16.332-6,24.5-8c8.164-2,16.164-3,24-3c14.832,0,25.957,3.293,33.375,9.875c7.414,6.586,11.125,16.293,11.125,29.125
	c0,13.336-3.836,26.586-11.5,39.75c-7.668,13.168-18.625,26.793-32.875,40.875c-14.25,14.086-31.293,29.375-51.125,45.875
	c-8.5,7-17,14-25.5,21s-17,14.086-25.5,21.25v64h248.75v-82C533.196,274.967,517.446,274.967,501.614,274.967z"/>
<g>
	<g>
		<path fill="#005A46" d="M77.268,187.472c1.46,0,2.644-1.184,2.644-2.644V117.7c0-0.505,0.41-0.916,0.915-0.917h0.001h128.205
			h0.002c0.505,0,0.916,0.411,0.916,0.917v31.873c0,1.46,1.184,2.644,2.644,2.644c1.46,0,2.644-1.184,2.644-2.644V117.7
			c0-2.475-1.461-4.611-3.562-5.605v-5.79c0-2.475-1.46-4.61-3.561-5.605v-5.791c0-3.422-2.783-6.205-6.205-6.205H87.95
			c-3.422,0-6.205,2.784-6.205,6.205v5.791c-2.101,0.995-3.561,3.13-3.561,5.605v5.791c-2.1,0.995-3.56,3.13-3.56,5.604v67.128
			C74.624,186.288,75.807,187.472,77.268,187.472L77.268,187.472z M83.472,106.305c0-0.506,0.411-0.917,0.917-0.917h121.083
			c0.506,0,0.917,0.411,0.917,0.917v5.19H83.472L83.472,106.305z M87.033,94.909c0-0.506,0.411-0.917,0.917-0.917h113.96
			c0.506,0,0.917,0.411,0.917,0.917v5.191H87.033V94.909z"/>
		<path fill="#005A46" d="M176.644,177.718c-6.419-6.419-14.952-9.953-24.03-9.953c-9.077,0-17.611,3.535-24.03,9.953
			s-9.953,14.952-9.953,24.03c0,9.077,3.535,17.611,9.953,24.03c6.418,6.418,14.952,9.953,24.03,9.953
			c9.077,0,17.611-3.535,24.03-9.953c6.418-6.418,9.953-14.952,9.953-24.03C186.597,192.67,183.062,184.136,176.644,177.718z
			 M172.904,222.038c-5.42,5.42-12.626,8.405-20.291,8.405c-7.665,0-14.871-2.985-20.291-8.405
			c-5.42-5.42-8.405-12.626-8.405-20.291c0-7.665,2.985-14.871,8.405-20.291c5.42-5.42,12.626-8.405,20.291-8.405
			s14.871,2.985,20.291,8.405c5.42,5.42,8.405,12.626,8.405,20.291C181.309,209.412,178.324,216.618,172.904,222.038z"/>
		<path fill="#005A46" d="M234.407,264.692l-12.046-12.046v-32.38c0-1.46-1.184-2.644-2.644-2.644h-4.477v-55.709
			c0-1.46-1.184-2.644-2.644-2.644s-2.644,1.184-2.644,2.644v55.709h-14.829c5.997-16.133,2.525-35.017-10.42-47.962
			c-15.694-15.694-40.116-17.465-57.783-5.318v-38.805c0-1.46-1.184-2.644-2.644-2.644H88.663c-1.46,0-2.644,1.184-2.644,2.644
			v44.16c0,1.46,1.184,2.644,2.644,2.644h29.391c-10.894,12.784-13.543,30.23-7.947,45.282H79.912v-20.455
			c0-1.46-1.184-2.644-2.644-2.644c-1.46,0-2.644,1.184-2.644,2.644v20.455h-4.481c-0.705,0-1.381,0.282-1.878,0.782
			s-0.772,1.179-0.766,1.884l0.395,46.296c0.012,1.451,1.192,2.622,2.644,2.622h15.709c1.46,0,2.644-1.184,2.644-2.644
			s-1.184-2.644-2.644-2.644H73.16l-0.35-41.008h39.658c2.07,3.932,4.756,7.622,8.059,10.926c8.847,8.847,20.467,13.27,32.088,13.27
			c7.314,0,14.628-1.754,21.251-5.259l7.602,7.602c0.496,0.496,1.168,0.775,1.87,0.775c0.701,0,1.374-0.279,1.87-0.775l1.152-1.152
			l5.326,5.326l-1.152,1.152c-1.033,1.033-1.033,2.707,0,3.739l5.404,5.404h-97.35c-1.46,0-2.644,1.184-2.644,2.644
			s1.184,2.644,2.644,2.644h103.732c0.002,0,0.004,0,0.006,0c0.675-0.001,1.35-0.259,1.864-0.774c1.033-1.033,1.033-2.707,0-3.739
			l-8.048-8.048l11.37-11.37l23.157,23.157c0.516,0.516,1.193,0.775,1.87,0.775s1.353-0.258,1.87-0.775
			C235.44,267.398,235.44,265.724,234.407,264.692L234.407,264.692z M91.307,128.18h30.324v38.871H91.307V128.18z M124.265,230.096
			c-15.631-15.631-15.631-41.066,0-56.697c7.816-7.816,18.082-11.723,28.349-11.723s20.533,3.908,28.349,11.723
			c15.631,15.631,15.631,41.066,0,56.697C165.331,245.727,139.897,245.727,124.265,230.096z M178.513,239.016
			c2.177-1.514,4.25-3.241,6.189-5.181c1.939-1.94,3.666-4.012,5.181-6.189l4.824,4.823l-11.37,11.37L178.513,239.016z
			 M190.097,244.556l5.326-5.326l5.326,5.326l-5.326,5.326L190.097,244.556z M205.641,239.665l-1.152,1.152l-5.326-5.326
			l1.152-1.152c0.496-0.496,0.775-1.168,0.775-1.87c0-0.701-0.279-1.374-0.775-1.87l-7.602-7.602
			c0.016-0.03,0.032-0.059,0.048-0.088h24.311v24.448l-7.692-7.692C208.348,238.632,206.673,238.632,205.641,239.665
			L205.641,239.665z"/>
		<path fill="#005A46" d="M201.198,122.891h-64.815c-1.46,0-2.644,1.184-2.644,2.644c0,1.46,1.184,2.644,2.644,2.644h64.815
			c1.46,0,2.644-1.184,2.644-2.644C203.842,124.075,202.658,122.891,201.198,122.891z"/>
		<path fill="#005A46" d="M203.842,136.932c0-1.46-1.184-2.644-2.644-2.644h-64.815c-1.46,0-2.644,1.184-2.644,2.644
			c0,1.46,1.184,2.644,2.644,2.644h64.815C202.658,139.576,203.842,138.392,203.842,136.932z"/>
		<path fill="#005A46" d="M136.383,145.683c-1.46,0-2.644,1.184-2.644,2.644c0,1.46,1.184,2.644,2.644,2.644h43.447
			c1.46,0,2.644-1.184,2.644-2.644c0-1.46-1.184-2.644-2.644-2.644H136.383z"/>
	</g>
</g>
</svg>
