<svg width="101" height="100" viewBox="0 0 101 100" fill="none" xmlns="http://www.w3.org/2000/svg">
<path fill-rule="evenodd" clip-rule="evenodd" d="M83.1916 33.932C91.2786 38.784 94.9231 44.6515 94.9231 50C94.9231 55.3487 91.2786 61.2161 83.1916 66.0682C75.2241 70.8487 63.8296 74 50.9231 74C38.0164 74 26.6222 70.8487 18.6547 66.0682C10.5678 61.2161 6.9231 55.3487 6.9231 50C6.9231 44.6515 10.5678 38.784 18.6547 33.932C26.6222 29.1515 38.0164 26 50.9231 26C63.8296 26 75.2241 29.1515 83.1916 33.932ZM50.9231 0C23.3088 0 0.923096 22.386 0.923096 50C0.923096 77.6143 23.3088 100 50.9231 100C78.5371 100 100.923 77.6143 100.923 50C100.923 22.386 78.5371 0 50.9231 0ZM50.9231 94C68.8881 94 84.3381 83.2337 91.1731 67.8013C82.0676 75.2009 67.4296 80 50.9231 80C34.4167 80 19.7785 75.2009 10.6728 67.8013C17.5081 83.2337 32.9583 94 50.9231 94ZM50.9231 6C68.8881 6 84.3381 16.7665 91.1731 32.1985C82.0676 24.799 67.4296 20 50.9231 20C34.4167 20 19.7785 24.799 10.6728 32.1985C17.5081 16.7665 32.9583 6 50.9231 6ZM56.4231 50C56.4231 46.9625 53.9606 44.5 50.9231 44.5C47.8855 44.5 45.4231 46.9625 45.4231 50C45.4231 53.0376 47.8855 55.5 50.9231 55.5C53.9606 55.5 56.4231 53.0376 56.4231 50Z" fill="url(#paint0_linear_1_944)"/>
<defs>
<linearGradient id="paint0_linear_1_944" x1="0.923096" y1="50" x2="100.923" y2="50" gradientUnits="userSpaceOnUse">
<stop stop-color="#4318FF"/>
<stop offset="1" stop-color="#6463B1"/>
</linearGradient>
</defs>
</svg>
