<svg width="202" height="36" viewBox="0 0 202 36" fill="none" xmlns="http://www.w3.org/2000/svg">
<g id="Logo_Procon_Original 1" clip-path="url(#clip0_1_711)">
<path id="Vector" fill-rule="evenodd" clip-rule="evenodd" d="M0.805994 28.3151C1.25543 28.7646 1.80974 28.9892 2.46892 28.9892C3.15805 28.9892 3.71236 28.7646 4.13183 28.3151C4.58129 27.8655 4.80599 27.3112 4.80599 26.6521V5.21353H11.4577C12.836 5.21353 14.0494 5.52814 15.0981 6.15735C16.1468 6.78656 16.9708 7.65549 17.57 8.76409C18.1693 9.84274 18.4689 11.1012 18.4689 12.5394C18.4689 14.5768 17.8097 16.2547 16.4914 17.5731C15.173 18.8615 13.4951 19.5057 11.4577 19.5057L9.12037 19.506C7.92909 19.506 6.96335 20.4718 6.96335 21.663C6.96335 22.8543 7.92909 23.8201 9.12037 23.8201L11.4577 23.8203C13.7049 23.8203 15.6974 23.3409 17.4352 22.3821C19.173 21.4233 20.5213 20.0899 21.4802 18.3821C22.4689 16.6742 22.9633 14.7267 22.9633 12.5394C22.9633 10.2622 22.4689 8.25474 21.4802 6.5169C20.5213 4.74911 19.173 3.37085 17.4352 2.38207C15.6974 1.39331 13.7049 0.898926 11.4577 0.898926H2.46892C1.80974 0.898926 1.25543 1.12364 0.805994 1.57308C0.356556 1.99256 0.131836 2.54687 0.131836 3.236V26.6521C0.131836 27.3112 0.356556 27.8655 0.805994 28.3151Z" fill="#4318FF"/>
<path id="Vector_2" d="M4.80654 33.6632C4.80654 34.9538 3.7603 36 2.46967 36C1.17906 36 0.132812 34.9538 0.132812 33.6632C0.132812 32.3726 1.17906 31.3262 2.46967 31.3262C3.7603 31.3262 4.80654 32.3726 4.80654 33.6632Z" fill="#4318FF"/>
<path id="Vector_3" fill-rule="evenodd" clip-rule="evenodd" d="M30.5909 36.0001C29.9319 36.0001 29.3776 35.7754 28.928 35.3259C28.4788 34.8764 28.2539 34.3221 28.2539 33.663V3.23601C28.2539 2.54686 28.4788 1.99256 28.928 1.57308C29.3776 1.12364 29.9319 0.898926 30.5909 0.898926H38.6808C40.9281 0.898926 42.9207 1.37832 44.6586 2.33713C46.3964 3.26597 47.7447 4.55435 48.7034 6.20229C49.6922 7.85022 50.1865 9.76784 50.1865 11.9551C50.1865 14.1124 49.6473 16.015 48.5685 17.663C47.49 19.2809 46.0219 20.5094 44.1642 21.3484C42.7045 22.0993 41.1261 22.4218 39.4899 22.472L37.2421 22.4717C36.0509 22.4717 35.085 21.506 35.085 20.3147C35.085 19.1234 36.0509 18.1576 37.2421 18.1576L38.6808 18.1573C40.7183 18.1573 42.3962 17.5881 43.7147 16.4495C45.0331 15.2809 45.6922 13.7828 45.6922 11.9551C45.6922 9.97758 45.0331 8.3596 43.7147 7.10118C42.3962 5.84275 40.7183 5.21352 38.6808 5.21352H32.9282V33.663C32.9282 34.3221 32.7034 34.8764 32.2541 35.3259C31.8344 35.7754 31.2801 36.0001 30.5909 36.0001ZM46.3811 24.9133L46.3819 24.9143L51.0404 32.4045C51.5799 33.2734 51.6546 34.0975 51.2653 34.8764C50.8757 35.6255 50.2016 36.0001 49.2426 36.0001C48.374 36.0001 47.6996 35.6255 47.2202 34.8764L42.5116 27.3208C42.2914 26.9702 42.1652 26.5552 42.1652 26.1107C42.1652 24.8526 43.185 23.8328 44.4431 23.8328C45.2617 23.8328 45.9797 24.2647 46.3811 24.9133Z" fill="#4318FF"/>
<path id="Vector_4" fill-rule="evenodd" clip-rule="evenodd" d="M67.4083 34.6966C69.5957 35.5655 72.0074 36 74.6443 36C77.281 36 79.6779 35.5655 81.8352 34.6966C83.4392 34.0375 84.8819 33.1932 86.1633 32.1635C87.1149 31.3999 87.2796 30.0112 86.528 29.0446C85.7691 28.0692 84.3631 27.8933 83.3874 28.6523C82.7912 29.1159 82.212 29.5819 81.5657 29.9776C79.5581 31.176 77.2511 31.7752 74.6443 31.7752C72.0375 31.7752 69.7303 31.176 67.7229 29.9776C65.7153 28.749 64.1424 27.1011 63.0037 25.0338C61.8653 22.9363 61.296 20.5843 61.296 17.9775C61.296 15.3708 61.8653 13.0337 63.0037 10.9663C64.1424 8.86892 65.7153 7.22098 67.7229 6.02248C69.7303 4.82398 72.0375 4.22472 74.6443 4.22472C77.2511 4.22472 79.5581 4.82398 81.5657 6.02248C83.5731 7.22098 85.1462 8.86892 86.2847 10.9663C87.4233 13.0337 87.9927 15.3708 87.9927 17.9775C87.9927 20.2105 87.5747 22.2565 86.7393 24.1157C86.2255 25.2417 86.71 26.5754 87.8319 27.108C88.9644 27.6458 90.3189 27.1635 90.8564 26.031C90.9706 25.7775 91.0796 25.5201 91.1836 25.2584C92.0525 23.0412 92.487 20.6142 92.487 17.9775C92.487 15.3408 92.0525 12.9288 91.1836 10.7416C90.3147 8.55431 89.0862 6.66666 87.4983 5.07866C85.9101 3.46068 84.0226 2.21723 81.8352 1.34831C79.6779 0.449438 77.281 0 74.6443 0C72.0074 0 69.5957 0.449438 67.4083 1.34831C65.2209 2.21723 63.3334 3.46068 61.7455 5.07866C60.1874 6.66666 58.974 8.55431 58.105 10.7416C57.2361 12.9288 56.8016 15.3408 56.8016 17.9775C56.8016 20.6142 57.2361 23.0412 58.105 25.2584C58.974 27.4458 60.1874 29.3484 61.7455 30.9664C63.3334 32.5544 65.2209 33.7978 67.4083 34.6966Z" fill="#4318FF"/>
<path id="Vector_5" d="M115.126 36C112.699 36 110.421 35.5505 108.294 34.6517C106.197 33.7229 104.354 32.4496 102.766 30.8315C101.208 29.1834 99.9795 27.2658 99.0807 25.0787C98.2118 22.8914 97.7773 20.5243 97.7773 17.9775C97.7773 15.4607 98.2118 13.1236 99.0807 10.9663C99.9795 8.77902 101.208 6.87639 102.766 5.25842C104.354 3.61048 106.197 2.3221 108.294 1.39326C110.392 0.46442 112.669 0 115.126 0C117.433 0 119.41 0.299626 121.058 0.898876C122.736 1.49813 124.414 2.48688 126.092 3.86517C126.452 4.16478 126.691 4.44943 126.811 4.71911C126.931 4.98876 126.991 5.31836 126.991 5.70787C126.991 6.27714 126.781 6.75656 126.362 7.14607C125.972 7.50561 125.493 7.71537 124.924 7.77528C124.354 7.80524 123.8 7.61047 123.261 7.191C122.152 6.23222 120.998 5.49814 119.8 4.98876C118.631 4.47941 117.073 4.22472 115.126 4.22472C113.358 4.22472 111.695 4.58428 110.137 5.30337C108.579 6.02248 107.201 7.01125 106.002 8.26967C104.834 9.52809 103.92 10.9962 103.26 12.6741C102.601 14.3221 102.272 16.0899 102.272 17.9775C102.272 19.8951 102.601 21.6929 103.26 23.3708C103.92 25.0188 104.834 26.4718 106.002 27.7304C107.201 28.9889 108.579 29.9776 110.137 30.6967C111.695 31.3858 113.358 31.7303 115.126 31.7303C116.654 31.7303 118.092 31.4756 119.44 30.9664C120.819 30.4269 122.137 29.6928 123.395 28.764C123.935 28.3744 124.459 28.2097 124.968 28.2696C125.508 28.2997 125.957 28.5093 126.317 28.8989C126.676 29.2584 126.856 29.7678 126.856 30.4269C126.856 31.0562 126.616 31.6105 126.137 32.0898C122.901 34.6966 119.231 36 115.126 36Z" fill="#4318FF"/>
<path id="Vector_6" fill-rule="evenodd" clip-rule="evenodd" d="M142.889 1.30337C145.076 0.434456 147.488 0 150.125 0C152.762 0 155.159 0.434456 157.316 1.30337C158.92 1.96247 160.362 2.80684 161.644 3.83644C162.595 4.60018 162.76 5.9889 162.009 6.9553C161.25 7.93092 159.844 8.10666 158.868 7.3478C158.272 6.88406 157.693 6.41806 157.046 6.02248C155.039 4.82398 152.732 4.22472 150.125 4.22472C147.518 4.22472 145.211 4.82398 143.204 6.02248C141.196 7.25094 139.623 8.89888 138.485 10.9663C137.346 13.0637 136.777 15.4157 136.777 18.0225C136.777 20.6292 137.346 22.9663 138.485 25.0338C139.623 27.1312 141.196 28.779 143.204 29.9776C145.211 31.176 147.518 31.7752 150.125 31.7752C152.732 31.7752 155.039 31.176 157.046 29.9776C159.054 28.779 160.627 27.1312 161.765 25.0338C162.904 22.9663 163.473 20.6292 163.473 18.0225C163.473 15.7895 163.056 13.7435 162.22 11.8843C161.706 10.7583 162.191 9.42458 163.313 8.89195C164.445 8.35434 165.799 8.83654 166.337 9.96902C166.451 10.2225 166.56 10.48 166.664 10.7416C167.533 12.9588 167.968 15.3858 167.968 18.0225C167.968 20.6592 167.533 23.0712 166.664 25.2584C165.796 27.4458 164.567 29.3333 162.979 30.9213C161.391 32.5393 159.503 33.7828 157.316 34.6517C155.159 35.5505 152.762 36 150.125 36C147.488 36 145.076 35.5505 142.889 34.6517C140.702 33.7828 138.814 32.5393 137.226 30.9213C135.668 29.3333 134.455 27.4458 133.586 25.2584C132.717 23.0712 132.282 20.6592 132.282 18.0225C132.282 15.3858 132.717 12.9588 133.586 10.7416C134.455 8.55431 135.668 6.65169 137.226 5.03371C138.814 3.44569 140.702 2.20225 142.889 1.30337Z" fill="#4318FF"/>
<path id="Vector_7" d="M175.551 36.0001C174.892 36.0001 174.337 35.7754 173.888 35.3259C173.469 34.8764 173.259 34.3221 173.259 33.663V3.23601C173.259 2.54686 173.469 1.99256 173.888 1.57308C174.337 1.12364 174.892 0.898926 175.551 0.898926C176.27 0.898926 176.869 1.18357 177.349 1.75286L196.944 27.8202V3.23601C196.944 2.54686 197.169 1.99256 197.618 1.57308C198.068 1.12364 198.622 0.898926 199.281 0.898926C199.97 0.898926 200.525 1.12364 200.944 1.57308C201.364 1.99256 201.573 2.54686 201.573 3.23601V33.663C201.573 34.3221 201.364 34.8764 200.944 35.3259C200.525 35.7754 199.97 36.0001 199.281 36.0001C198.982 36.0001 198.652 35.9401 198.293 35.8203C197.963 35.6704 197.693 35.4608 197.484 35.191L177.888 9.12364V33.663C177.888 34.3221 177.663 34.8764 177.214 35.3259C176.794 35.7754 176.24 36.0001 175.551 36.0001Z" fill="#4318FF"/>
</g>
<defs>
<clipPath id="clip0_1_711">
<rect width="201.699" height="36" fill="white"/>
</clipPath>
</defs>
</svg>
