<svg width="281" height="50" viewBox="0 0 281 50" fill="none" xmlns="http://www.w3.org/2000/svg">
<g clip-path="url(#clip0_1_994)">
<path fill-rule="evenodd" clip-rule="evenodd" d="M1.11992 39.3265C1.74414 39.9508 2.51401 40.2628 3.42955 40.2628C4.38667 40.2628 5.15654 39.9508 5.73914 39.3265C6.36339 38.7022 6.67548 37.9323 6.67548 37.0169V7.24104H15.9139C17.8282 7.24104 19.5136 7.67799 20.9701 8.5519C22.4266 9.4258 23.571 10.6327 24.4033 12.1724C25.2356 13.6705 25.6517 15.4183 25.6517 17.4158C25.6517 20.2456 24.7362 22.576 22.9052 24.4071C21.0741 26.1965 18.7437 27.0912 15.9139 27.0912L12.6677 27.0917C11.0131 27.0917 9.67181 28.433 9.67181 30.0876C9.67181 31.7422 11.0131 33.0835 12.6677 33.0835L15.9139 33.0837C19.035 33.0837 21.8024 32.4179 24.2161 31.0862C26.6297 29.7546 28.5024 27.9027 29.834 25.5307C31.2073 23.1586 31.894 20.4537 31.894 17.4158C31.894 14.2531 31.2073 11.4649 29.834 9.05128C28.5024 6.59601 26.6297 4.68176 24.2161 3.30846C21.8024 1.93518 19.035 1.24854 15.9139 1.24854H3.42955C2.51401 1.24854 1.74414 1.56064 1.11992 2.18486C0.495705 2.76747 0.183594 3.53734 0.183594 4.49447V37.0169C0.183594 37.9323 0.495705 38.7022 1.11992 39.3265Z" fill="white"/>
<path d="M6.67574 46.7542C6.67574 48.5467 5.22262 49.9997 3.43009 49.9997C1.63757 49.9997 0.184448 48.5467 0.184448 46.7542C0.184448 44.9617 1.63757 43.5083 3.43009 43.5083C5.22262 43.5083 6.67574 44.9617 6.67574 46.7542Z" fill="white"/>
<path fill-rule="evenodd" clip-rule="evenodd" d="M42.4871 50.0001C41.5717 50.0001 40.8018 49.6881 40.1775 49.0638C39.5535 48.4395 39.2412 47.6696 39.2412 46.7542V4.49448C39.2412 3.53733 39.5535 2.76747 40.1775 2.18486C40.8018 1.56064 41.5717 1.24854 42.4871 1.24854H53.7231C56.8443 1.24854 59.6118 1.91437 62.0255 3.24604C64.4392 4.53609 66.3118 6.32551 67.6433 8.61431C69.0166 10.9031 69.7032 13.5665 69.7032 16.6043C69.7032 19.6006 68.9542 22.2431 67.4559 24.5319C65.958 26.7791 63.9189 28.4853 61.3388 29.6505C59.3114 30.6935 57.1193 31.1415 54.8467 31.2111L51.7248 31.2108C50.0703 31.2108 48.7289 29.8695 48.7289 28.2149C48.7289 26.5603 50.0703 25.219 51.7248 25.219L53.7231 25.2186C56.5529 25.2186 58.8833 24.4279 60.7145 22.8465C62.5457 21.2236 63.4611 19.1428 63.4611 16.6043C63.4611 13.8578 62.5457 11.6106 60.7145 9.86277C58.8833 8.11496 56.5529 7.24103 53.7231 7.24103H45.7333V46.7542C45.7333 47.6696 45.421 48.4395 44.797 49.0638C44.2142 49.6881 43.4443 50.0001 42.4871 50.0001ZM64.4179 34.6018L64.419 34.6032L70.8892 45.0063C71.6385 46.2131 71.7422 47.3576 71.2015 48.4395C70.6604 49.4799 69.7241 50.0001 68.3922 50.0001C67.1857 50.0001 66.2491 49.4799 65.5833 48.4395L59.0436 37.9457C58.7378 37.4587 58.5624 36.8823 58.5624 36.2648C58.5624 34.5176 59.9789 33.1011 61.7261 33.1011C62.8631 33.1011 63.8604 33.701 64.4179 34.6018Z" fill="white"/>
<path fill-rule="evenodd" clip-rule="evenodd" d="M93.6231 48.1897C96.6611 49.3966 100.011 50 103.673 50C107.335 50 110.664 49.3966 113.66 48.1897C115.888 47.2743 117.892 46.1017 119.672 44.6716C120.993 43.611 121.222 41.6822 120.178 40.3397C119.124 38.9849 117.171 38.7408 115.816 39.7949C114.988 40.4387 114.184 41.086 113.286 41.6356C110.498 43.3 107.294 44.1322 103.673 44.1322C100.053 44.1322 96.8481 43.3 94.0601 41.6356C91.2717 39.9291 89.0871 37.6404 87.5056 34.7692C85.9245 31.856 85.1337 28.5892 85.1337 24.9688C85.1337 21.3483 85.9245 18.1024 87.5056 15.231C89.0871 12.3179 91.2717 10.0291 94.0601 8.36455C96.8481 6.69997 100.053 5.86767 103.673 5.86767C107.294 5.86767 110.498 6.69997 113.286 8.36455C116.074 10.0291 118.259 12.3179 119.84 15.231C121.422 18.1024 122.212 21.3483 122.212 24.9688C122.212 28.0701 121.632 30.9118 120.472 33.4941C119.758 35.0579 120.431 36.9103 121.989 37.65C123.562 38.3969 125.443 37.7271 126.19 36.1541C126.348 35.8021 126.5 35.4445 126.644 35.0812C127.851 32.0017 128.455 28.6309 128.455 24.9688C128.455 21.3067 127.851 17.9567 126.644 14.9188C125.437 11.881 123.731 9.25925 121.526 7.0537C119.32 4.80651 116.698 3.07948 113.66 1.87266C110.664 0.624219 107.335 0 103.673 0C100.011 0 96.6611 0.624219 93.6231 1.87266C90.5851 3.07948 87.9635 4.80651 85.758 7.0537C83.594 9.25925 81.9087 11.881 80.7019 14.9188C79.495 17.9567 78.8916 21.3067 78.8916 24.9688C78.8916 28.6309 79.495 32.0017 80.7019 35.0812C81.9087 38.1192 83.594 40.7616 85.758 43.0089C87.9635 45.2144 90.5851 46.9414 93.6231 48.1897Z" fill="white"/>
<path d="M159.897 49.9999C156.526 49.9999 153.363 49.3756 150.409 48.1273C147.496 46.8372 144.936 45.0687 142.731 42.8215C140.567 40.5324 138.86 37.8691 137.612 34.8314C136.405 31.7935 135.802 28.5059 135.802 24.9687C135.802 21.473 136.405 18.2271 137.612 15.2308C138.86 12.193 140.567 9.55043 142.731 7.30323C144.936 5.01443 147.496 3.22501 150.409 1.93496C153.322 0.644905 156.484 -0.00012207 159.897 -0.00012207C163.101 -0.00012207 165.848 0.416025 168.136 1.24832C170.467 2.08061 172.797 3.45388 175.128 5.36817C175.627 5.7843 175.96 6.17964 176.127 6.55419C176.293 6.92871 176.376 7.38649 176.376 7.92748C176.376 8.71813 176.085 9.38399 175.502 9.92498C174.961 10.4243 174.295 10.7157 173.505 10.7989C172.714 10.8405 171.944 10.57 171.195 9.98738C169.655 8.65573 168.053 7.63618 166.389 6.92871C164.766 6.22128 162.602 5.86755 159.897 5.86755C157.442 5.86755 155.132 6.36693 152.968 7.36567C150.804 8.36443 148.89 9.73772 147.225 11.4855C145.602 13.2333 144.333 15.2724 143.417 17.6029C142.502 19.8917 142.044 22.3469 142.044 24.9687C142.044 27.632 142.502 30.1289 143.417 32.4593C144.333 34.7482 145.602 36.7663 147.225 38.5143C148.89 40.2622 150.804 41.6355 152.968 42.6341C155.132 43.5913 157.442 44.0697 159.897 44.0697C162.019 44.0697 164.017 43.716 165.889 43.0088C167.804 42.2595 169.635 41.2399 171.382 39.9499C172.132 39.4088 172.86 39.18 173.567 39.2632C174.316 39.305 174.941 39.5961 175.44 40.1372C175.939 40.6365 176.189 41.3441 176.189 42.2595C176.189 43.1334 175.856 43.9033 175.19 44.5691C170.696 48.1896 165.598 49.9999 159.897 49.9999Z" fill="white"/>
<path fill-rule="evenodd" clip-rule="evenodd" d="M198.457 1.81024C201.495 0.603411 204.845 0 208.507 0C212.169 0 215.499 0.603411 218.495 1.81024C220.722 2.72565 222.726 3.89839 224.506 5.32839C225.827 6.38914 226.056 8.31791 225.013 9.66014C223.958 11.0152 222.006 11.2592 220.651 10.2053C219.822 9.5612 219.018 8.91397 218.12 8.36455C215.332 6.69997 212.128 5.86767 208.507 5.86767C204.887 5.86767 201.682 6.69997 198.894 8.36455C196.106 10.0708 193.921 12.3596 192.34 15.231C190.758 18.144 189.968 21.4108 189.968 25.0312C189.968 28.6517 190.758 31.8976 192.34 34.7692C193.921 37.6822 196.106 39.9709 198.894 41.6356C201.682 43.3 204.887 44.1322 208.507 44.1322C212.128 44.1322 215.332 43.3 218.12 41.6356C220.908 39.9709 223.093 37.6822 224.675 34.7692C226.256 31.8976 227.046 28.6517 227.046 25.0312C227.046 21.9299 226.466 19.0882 225.306 16.5059C224.592 14.9421 225.265 13.0897 226.824 12.3499C228.396 11.6033 230.277 12.273 231.024 13.8459C231.183 14.1979 231.334 14.5555 231.479 14.9188C232.686 17.9983 233.289 21.3691 233.289 25.0312C233.289 28.6933 232.686 32.0433 231.479 35.0812C230.272 38.1192 228.566 40.7408 226.36 42.9462C224.154 45.1935 221.533 46.9205 218.495 48.1274C215.499 49.3757 212.169 50 208.507 50C204.845 50 201.495 49.3757 198.457 48.1274C195.419 46.9205 192.798 45.1935 190.592 42.9462C188.428 40.7408 186.743 38.1192 185.536 35.0812C184.329 32.0433 183.726 28.6933 183.726 25.0312C183.726 21.3691 184.329 17.9983 185.536 14.9188C186.743 11.881 188.428 9.23846 190.592 6.99127C192.798 4.78568 195.419 3.05867 198.457 1.81024Z" fill="white"/>
<path d="M243.82 50.0001C242.905 50.0001 242.135 49.6881 241.511 49.0638C240.928 48.4395 240.637 47.6696 240.637 46.7542V4.49448C240.637 3.53733 240.928 2.76747 241.511 2.18486C242.135 1.56064 242.905 1.24854 243.82 1.24854C244.819 1.24854 245.651 1.64387 246.317 2.43455L273.533 38.6391V4.49448C273.533 3.53733 273.845 2.76747 274.469 2.18486C275.094 1.56064 275.863 1.24854 276.779 1.24854C277.736 1.24854 278.506 1.56064 279.089 2.18486C279.671 2.76747 279.962 3.53733 279.962 4.49448V46.7542C279.962 47.6696 279.671 48.4395 279.089 49.0638C278.506 49.6881 277.736 50.0001 276.779 50.0001C276.363 50.0001 275.905 49.9169 275.406 49.7504C274.948 49.5422 274.573 49.2511 274.282 48.8765L247.066 12.6717V46.7542C247.066 47.6696 246.754 48.4395 246.13 49.0638C245.547 49.6881 244.777 50.0001 243.82 50.0001Z" fill="white"/>
</g>
<defs>
<clipPath id="clip0_1_994">
<rect width="280.137" height="50" fill="white"/>
</clipPath>
</defs>
</svg>
