<svg width="18" height="19" viewBox="0 0 18 19" fill="none" xmlns="http://www.w3.org/2000/svg">
<path d="M17.8296 17.5207L13.1822 12.9477C14.3992 11.6255 15.1469 9.87682 15.1469 7.95262C15.1464 3.83639 11.7559 0.5 7.57318 0.5C3.39048 0.5 0 3.83639 0 7.95262C0 12.0688 3.39048 15.4052 7.57318 15.4052C9.38039 15.4052 11.0379 14.7802 12.3399 13.741L17.0053 18.332C17.2327 18.556 17.6017 18.556 17.829 18.332C17.8831 18.2792 17.9261 18.2162 17.9554 18.1465C17.9848 18.0769 18 18.0021 18 17.9265C18 17.8509 17.985 17.7761 17.9557 17.7064C17.9265 17.6367 17.8836 17.5736 17.8296 17.5207ZM7.57318 14.2586C4.03416 14.2586 1.16524 11.4353 1.16524 7.95262C1.16524 4.46991 4.03416 1.64663 7.57318 1.64663C11.1122 1.64663 13.9811 4.46991 13.9811 7.95262C13.9811 11.4353 11.1122 14.2586 7.57318 14.2586Z" fill="#222222"/>
</svg>
