<svg width="30" height="22" viewBox="0 0 30 22" fill="none" xmlns="http://www.w3.org/2000/svg">
<path d="M16.7558 20.7139C16.6065 20.8423 16.5153 21.0235 16.5022 21.2175C16.4891 21.4116 16.5552 21.6028 16.686 21.7494C16.7508 21.822 16.8297 21.8813 16.918 21.9241C17.0063 21.9669 17.1024 21.9923 17.2007 21.9988C17.2991 22.0053 17.3977 21.9927 17.4911 21.9619C17.5845 21.9311 17.6708 21.8827 17.745 21.8193L29.745 11.5537C29.8253 11.4846 29.8897 11.3997 29.9336 11.3044C29.9776 11.209 30.0002 11.1056 30 11.0011C30.0002 10.8965 29.9776 10.7931 29.9336 10.6978C29.8897 10.6025 29.8253 10.5174 29.745 10.4484L17.745 0.182889C17.6708 0.119473 17.5845 0.0710178 17.4911 0.0402079C17.3977 0.00939804 17.2991 -0.00311448 17.2007 0.00337448C17.1024 0.00986345 17.0063 0.0352112 16.918 0.0780107C16.8297 0.12081 16.7508 0.180184 16.686 0.252776C16.5552 0.399313 16.4891 0.590572 16.5022 0.784632C16.5153 0.978691 16.6065 1.15971 16.7558 1.28818L27.2551 10.269H0.750367C0.651763 10.2687 0.55411 10.2876 0.46297 10.3244C0.37183 10.3612 0.289016 10.4152 0.219292 10.4834C0.149568 10.5515 0.0943435 10.6325 0.0567079 10.7216C0.0190724 10.8107 -0.000212363 10.9062 1.76376e-06 11.0026C-0.000212363 11.099 0.0190724 11.1945 0.0567079 11.2836C0.0943435 11.3727 0.149568 11.4537 0.219292 11.5219C0.289016 11.59 0.37183 11.6441 0.46297 11.6809C0.55411 11.7177 0.651763 11.7366 0.750367 11.7364H27.2551L16.7558 20.7139Z" fill="black"/>
</svg>
