<svg width="28" height="28" viewBox="0 0 28 28" fill="none" xmlns="http://www.w3.org/2000/svg">
<g clip-path="url(#clip0_191_59)">
<path d="M21.1466 16.647C19.2004 16.647 17.6172 18.2302 17.6172 20.1764C17.6172 22.1226 19.2004 23.7058 21.1466 23.7058C23.0931 23.7058 24.676 22.1226 24.676 20.1764C24.676 18.2302 23.0928 16.647 21.1466 16.647ZM21.1466 21.9411C20.1734 21.9411 19.3819 21.1496 19.3819 20.1764C19.3819 19.2032 20.1734 18.4117 21.1466 18.4117C22.1198 18.4117 22.9113 19.2032 22.9113 20.1764C22.9113 21.1497 22.1198 21.9411 21.1466 21.9411Z" fill="white"/>
<path d="M9.08802 16.647C7.14185 16.647 5.55859 18.2302 5.55859 20.1764C5.55859 22.1226 7.14185 23.7058 9.08802 23.7058C11.0342 23.7058 12.6174 22.1226 12.6174 20.1764C12.6174 18.2302 11.0342 16.647 9.08802 16.647ZM9.08802 21.9411C8.1148 21.9411 7.3233 21.1496 7.3233 20.1764C7.3233 19.2032 8.1148 18.4117 9.08802 18.4117C10.061 18.4117 10.8527 19.2032 10.8527 20.1764C10.8527 21.1497 10.0612 21.9411 9.08802 21.9411Z" fill="white"/>
<path d="M23.5245 6.54474C23.3745 6.2468 23.0695 6.05884 22.7359 6.05884H18.0889V7.82355H22.1918L24.5944 12.6024L26.1715 11.8094L23.5245 6.54474Z" fill="white"/>
<path d="M18.4997 19.3237H11.8232V21.0884H18.4997V19.3237Z" fill="white"/>
<path d="M6.44111 19.3237H3.38233C2.89495 19.3237 2.5 19.7187 2.5 20.2061C2.5 20.6934 2.89501 21.0884 3.38233 21.0884H6.44116C6.92854 21.0884 7.32349 20.6934 7.32349 20.2061C7.32349 19.7187 6.92848 19.3237 6.44111 19.3237Z" fill="white"/>
<path d="M27.8147 13.9295L26.0791 11.6942C25.9124 11.4789 25.655 11.353 25.3823 11.353H18.9706V5.17652C18.9706 4.68914 18.5756 4.29419 18.0882 4.29419H3.38233C2.89495 4.29419 2.5 4.6892 2.5 5.17652C2.5 5.66384 2.89501 6.05885 3.38233 6.05885H17.2059V12.2353C17.2059 12.7227 17.6009 13.1176 18.0882 13.1176H24.9503L26.2352 14.7729V19.3235H23.7941C23.3067 19.3235 22.9117 19.7185 22.9117 20.2058C22.9117 20.6932 23.3067 21.0882 23.7941 21.0882H27.1176C27.605 21.0882 27.9999 20.6932 28 20.2058V14.4707C28 14.2748 27.9347 14.0842 27.8147 13.9295Z" fill="white"/>
<path d="M6.38259 14.853H2.32373C1.83636 14.853 1.44141 15.248 1.44141 15.7354C1.44141 16.2227 1.83641 16.6177 2.32373 16.6177H6.38253C6.86991 16.6177 7.26486 16.2227 7.26486 15.7354C7.26491 15.248 6.86991 14.853 6.38259 14.853Z" fill="white"/>
<path d="M8.41176 11.3823H0.882328C0.395008 11.3823 0 11.7773 0 12.2647C0 12.7521 0.395008 13.147 0.882328 13.147H8.41176C8.89913 13.147 9.29409 12.752 9.29409 12.2647C9.29409 11.7774 8.89913 11.3823 8.41176 11.3823Z" fill="white"/>
<path d="M9.85316 7.91187H2.32373C1.83636 7.91187 1.44141 8.30687 1.44141 8.79419C1.44141 9.28157 1.83641 9.67652 2.32373 9.67652H9.85316C10.3405 9.67652 10.7355 9.28151 10.7355 8.79419C10.7355 8.30687 10.3405 7.91187 9.85316 7.91187Z" fill="white"/>
</g>
<defs>
<clipPath id="clip0_191_59">
<rect width="28" height="28" fill="white"/>
</clipPath>
</defs>
</svg>
