<svg width="23" height="23" viewBox="0 0 23 23" fill="none" xmlns="http://www.w3.org/2000/svg">
<path d="M22.4122 11.5511C22.7751 11.1422 23 10.6055 23 10.0178C23 8.75021 21.9676 7.71777 20.7 7.71777H16.238C16.6776 6.37866 16.8667 4.59488 16.8667 3.83333V3.06666C16.8667 1.37489 15.4918 0 13.8 0H13.0333C12.6807 0 12.374 0.240222 12.2922 0.582666L11.8731 2.254C11.2904 4.59488 9.43 7.17599 7.50822 7.64621C7.17089 6.78755 6.33778 6.18444 5.36667 6.18444H0.766667C0.342444 6.18444 0 6.52688 0 6.9511V20.7511C0 21.1753 0.342444 21.5177 0.766667 21.5177H5.36667C6.28156 21.5177 7.07378 20.9811 7.44178 20.2093L10.074 21.0884C10.9378 21.3746 11.8322 21.5229 12.742 21.5229H19.1667C20.4342 21.5229 21.4667 20.4904 21.4667 19.2229C21.4667 18.9213 21.4104 18.6351 21.3031 18.3744C22.2793 18.1086 23 17.2142 23 16.1562C23 15.5684 22.7751 15.0318 22.4122 14.6229C22.7751 14.214 23 13.6773 23 13.0895C23 12.5018 22.7751 11.96 22.4122 11.5511ZM6.13333 19.2178C6.13333 19.642 5.79089 19.9844 5.36667 19.9844H1.53333V7.71777H5.36667C5.79089 7.71777 6.13333 8.06021 6.13333 8.48443V19.2178ZM19.1667 12.3178H20.7C21.1242 12.3178 21.4667 12.6602 21.4667 13.0844C21.4667 13.5086 21.1242 13.8511 20.7 13.8511H19.1667C18.7424 13.8511 18.4 14.1935 18.4 14.6178C18.4 15.042 18.7424 15.3844 19.1667 15.3844H20.7C21.1242 15.3844 21.4667 15.7269 21.4667 16.1511C21.4667 16.5753 21.1242 16.9178 20.7 16.9178H19.1667C18.7424 16.9178 18.4 17.2602 18.4 17.6844C18.4 18.1086 18.7424 18.4511 19.1667 18.4511C19.5909 18.4511 19.9333 18.7935 19.9333 19.2178C19.9333 19.642 19.5909 19.9844 19.1667 19.9844H12.742C12.0009 19.9844 11.2649 19.8669 10.5596 19.6318L7.66667 18.6658V9.17954C8.86778 8.94954 10.0484 8.18799 11.1116 6.94088C12.1491 5.72444 12.9924 4.10933 13.3604 2.622L13.6313 1.53333H13.8C14.6433 1.53333 15.3333 2.22333 15.3333 3.06666V3.83333C15.3333 4.86066 15.0113 6.83866 14.5973 7.71777H13.0333C12.6091 7.71777 12.2667 8.06021 12.2667 8.48443C12.2667 8.90865 12.6091 9.2511 13.0333 9.2511H20.7C21.1242 9.2511 21.4667 9.59354 21.4667 10.0178C21.4667 10.442 21.1242 10.7844 20.7 10.7844H19.1667C18.7424 10.7844 18.4 11.1269 18.4 11.5511C18.4 11.9753 18.7424 12.3178 19.1667 12.3178Z" fill="white"/>
<path d="M3.83307 18.4511C4.25649 18.4511 4.59974 18.1078 4.59974 17.6844C4.59974 17.261 4.25649 16.9177 3.83307 16.9177C3.40966 16.9177 3.06641 17.261 3.06641 17.6844C3.06641 18.1078 3.40966 18.4511 3.83307 18.4511Z" fill="white"/>
</svg>
