<svg width="23" height="23" viewBox="0 0 23 23" fill="none" xmlns="http://www.w3.org/2000/svg">
<path d="M13.6673 21.1789C13.5399 21.1789 13.4124 21.1424 13.3122 21.0696C13.1119 20.9239 13.0209 20.6598 13.0664 20.3685L13.467 17.9192H1.59371C0.865282 17.9192 0.273438 17.3273 0.273438 16.5989V3.15035C0.273438 2.42192 0.865282 1.83008 1.59371 1.83008H21.4069C22.1353 1.83008 22.7271 2.42192 22.7271 3.15035V16.5989C22.7271 17.3273 22.1353 17.9192 21.4069 17.9192H20.2141L20.6147 20.3685C20.6602 20.669 20.5692 20.9239 20.3688 21.0696C20.2687 21.1424 20.1412 21.1789 20.0137 21.1789C19.8863 21.1789 19.7497 21.1424 19.6222 21.0787L17.1365 19.7584C17.0454 19.7129 16.927 19.7038 16.8451 19.7038C16.7631 19.7038 16.6448 19.7129 16.5537 19.7584L14.0589 21.0696C13.9314 21.1424 13.7948 21.1789 13.6673 21.1789ZM16.8451 18.8843C17.0909 18.8843 17.3368 18.9389 17.5189 19.0391L19.7679 20.2228L19.0577 15.8796L18.7208 16.0708C18.1472 16.3895 17.5007 16.5534 16.8451 16.5534C16.1895 16.5534 15.543 16.3895 14.9694 16.0708L14.6325 15.8796L13.9223 20.2228L16.1713 19.0391C16.3534 18.9389 16.5992 18.8843 16.8451 18.8843ZM1.59371 2.64956C1.32055 2.64956 1.09291 2.87719 1.09291 3.15035V16.5989C1.09291 16.872 1.32055 17.0997 1.59371 17.0997H13.3487H13.3578L13.5945 17.1088L13.8859 15.3515L13.9132 15.224L13.8312 15.1147C13.2758 14.4318 12.9662 13.5668 12.9662 12.6836C12.9662 10.553 14.7053 8.81385 16.836 8.81385C18.9666 8.81385 20.7057 10.553 20.7057 12.6836C20.7057 13.5668 20.3962 14.4318 19.8407 15.1147L19.7588 15.2149L19.7861 15.3423V15.3515L20.0684 17.0997H21.3886C21.6618 17.0997 21.8894 16.872 21.8894 16.5989V3.15035C21.8894 2.87719 21.6618 2.64956 21.3886 2.64956H1.59371ZM16.8451 9.62422C15.1606 9.62422 13.7948 10.99 13.7948 12.6745C13.7948 14.359 15.1606 15.7248 16.8451 15.7248C18.5296 15.7248 19.8954 14.359 19.8954 12.6745C19.8954 10.9991 18.5296 9.62422 16.8451 9.62422Z" fill="white"/>
<path d="M3.51521 6.57388C3.28757 6.57388 3.10547 6.39177 3.10547 6.16414C3.10547 5.9365 3.28757 5.75439 3.51521 5.75439H18.9942C19.2219 5.75439 19.404 5.9365 19.404 6.16414C19.404 6.39177 19.2219 6.57388 18.9942 6.57388H3.51521Z" fill="white"/>
<path d="M3.51521 10.2797C3.28757 10.2797 3.10547 10.0976 3.10547 9.86994C3.10547 9.64231 3.28757 9.46021 3.51521 9.46021H10.071C10.2987 9.46021 10.4808 9.64231 10.4808 9.86994C10.4808 10.0976 10.2987 10.2797 10.071 10.2797H3.51521Z" fill="white"/>
</svg>
