<svg width="27" height="27" viewBox="0 0 27 27" fill="none" xmlns="http://www.w3.org/2000/svg">
<path d="M13.5 0C8.10817 0 3.72162 4.38655 3.72162 9.77832C3.72162 16.4697 12.4723 26.293 12.8449 26.7079C13.1948 27.0977 13.8058 27.097 14.1551 26.7079C14.5277 26.293 23.2784 16.4697 23.2784 9.77832C23.2783 4.38655 18.8918 0 13.5 0ZM13.5 14.6981C10.7872 14.6981 8.5803 12.4911 8.5803 9.77832C8.5803 7.06556 10.7873 4.85863 13.5 4.85863C16.2127 4.85863 18.4196 7.06562 18.4196 9.77838C18.4196 12.4911 16.2127 14.6981 13.5 14.6981Z" fill="white" fill-opacity="0.22"/>
</svg>
