<svg width="27" height="27" viewBox="0 0 27 27" fill="none" xmlns="http://www.w3.org/2000/svg">
<g clip-path="url(#clip0)">
<path d="M24.8335 17.7224C23.1805 17.7224 21.5574 17.4639 20.0193 16.9556C19.2656 16.6985 18.3391 16.9343 17.8791 17.4068L14.8433 19.6985C11.3225 17.8192 9.15377 15.6511 7.30005 12.1568L9.52439 9.20004C10.1023 8.62291 10.3096 7.77987 10.0612 6.98885C9.55076 5.44268 9.29145 3.82036 9.29145 2.16661C9.29152 0.97193 8.31959 0 7.12498 0H2.16654C0.97193 0 0 0.97193 0 2.16654C0 15.8599 11.1402 27 24.8335 27C26.0281 27 27.0001 26.0281 27.0001 24.8335V19.8889C27 18.6943 26.0281 17.7224 24.8335 17.7224Z" fill="white" fill-opacity="0.22"/>
</g>
<defs>
<clipPath id="clip0">
<rect width="27" height="27" fill="white"/>
</clipPath>
</defs>
</svg>
