<svg width="49" height="49" viewBox="0 0 49 49" fill="none" xmlns="http://www.w3.org/2000/svg">
<g clip-path="url(#clip0)">
<path d="M28.6888 18.1743C25.7903 15.2759 21.0729 15.2759 18.1744 18.1743C15.2765 21.0734 15.2765 25.7903 18.1744 28.6894C20.7556 31.2699 24.7756 31.5464 27.6722 29.5314C27.7331 29.8198 27.8726 30.095 28.0969 30.3193L32.318 34.5404C32.9332 35.1543 33.9272 35.1543 34.5392 34.5404C35.1537 33.9259 35.1537 32.9319 34.5392 32.3193L30.3181 28.0969C30.095 27.8745 29.8192 27.7343 29.5308 27.6734C31.5471 24.7762 31.2706 20.7568 28.6888 18.1743ZM27.3561 27.3567C25.1922 29.5207 21.6704 29.5207 19.5071 27.3567C17.3444 25.1928 17.3444 21.6716 19.5071 19.5077C21.6704 17.3443 25.1922 17.3443 27.3561 19.5077C29.5201 21.6716 29.5201 25.1928 27.3561 27.3567Z" fill="white"/>
</g>
<circle cx="24.5" cy="24.5" r="24" stroke="white" stroke-opacity="0.2"/>
<defs>
<clipPath id="clip0">
<rect width="19" height="19" fill="white" transform="translate(15 15)"/>
</clipPath>
</defs>
</svg>
