<svg width="787" height="140" fill="none" xmlns="http://www.w3.org/2000/svg"><path opacity=".05" d="M64 0c12.667 0 23.667 2.133 33 6.4 9.333 4.133 16.533 10.133 21.6 18 5.067 7.733 7.6 16.867 7.6 27.4 0 10.533-2.533 19.667-7.6 27.4-5.067 7.733-12.267 13.733-21.6 18-9.333 4.133-20.333 6.2-33 6.2H39.6V140H0V0h64zm-2.4 72.2c8.133 0 14.267-1.733 18.4-5.2 4.133-3.6 6.2-8.667 6.2-15.2 0-6.533-2.067-11.6-6.2-15.2-4.133-3.6-10.267-5.4-18.4-5.4h-22v41h22zm170.677 40.6h-59.2l-11 27.2h-40.4l61.8-140h39l62 140h-41.2l-11-27.2zm-11.6-29.2l-18-44.8-18 44.8h36zM295.703 0h39.6v108.6h66.8V140h-106.4V0zm122.07 0h39.6v108.6h66.8V140h-106.4V0zm234.471 109.4V140h-112.4V0h109.8v30.6h-70.6v23.6h62.2v29.6h-62.2v25.6h73.2zm51.775-78h-43V0h125.4v31.4h-42.8V140h-39.6V31.4z" fill="#fff"/></svg>