<svg version="1.1" id="Layer_1" xmlns="http://www.w3.org/2000/svg" viewBox="0 0 129.842 129.847" xml:space="preserve"><circle fill="none" stroke="#FFF" stroke-width="3" stroke-miterlimit="10" cx="64.916" cy="64.923" r="53.788"/><path d="M39.197 6.239l1.806 3.792-1.062.505-1.4-2.941-1.441.686 1.401 2.941-1.056.503-1.806-3.792 3.558-1.694zm5.309 2.206a2.11 2.11 0 01-1.04-.471 2.114 2.114 0 01-.647-.966 2.118 2.118 0 01-.073-1.16c.085-.379.265-.715.54-1.006s.623-.509 1.043-.651.829-.181 1.224-.117c.396.065.742.222 1.04.471.298.25.514.572.647.965.134.394.158.781.073 1.16s-.265.715-.54 1.006-.623.509-1.043.651c-.42.143-.828.183-1.224.118zm1.406-1.376c.13-.15.214-.327.25-.532s.017-.418-.059-.642-.19-.405-.343-.545a1.076 1.076 0 00-.522-.27 1.117 1.117 0 00-.593.043c-.202.068-.367.177-.498.327s-.214.327-.251.532c-.036.204-.016.418.06.642s.19.405.343.545c.153.141.327.23.522.27s.393.025.594-.043.366-.177.497-.327zm5.428-.632a2.08 2.08 0 01-.97-.586 2.142 2.142 0 01-.531-1.039c-.089-.411-.07-.799.055-1.166s.34-.678.643-.934a2.48 2.48 0 011.1-.522 2.562 2.562 0 011.058-.02c.33.068.622.206.875.413l-.595.828c-.335-.264-.692-.354-1.072-.272-.223.048-.411.14-.563.275s-.258.302-.315.501a1.293 1.293 0 00-.012.644c.05.231.142.425.276.582s.299.266.494.326c.195.061.404.066.626.019.379-.082.667-.312.864-.69l.883.509c-.146.293-.354.539-.627.737s-.596.337-.972.418c-.43.093-.836.085-1.217-.023zm9.32-1.207l-.211-2.216-.909 1.905-.525.049-1.239-1.657.202 2.168-1.088.102-.388-4.182.974-.09 1.694 2.277 1.21-2.547.974-.09.4 4.181-1.094.1zm4.919-.339a2.123 2.123 0 01-.81-.805 2.12 2.12 0 01-.269-1.131c.012-.416.125-.786.337-1.112s.498-.577.857-.754A2.52 2.52 0 0166.9.843c.443.014.84.12 1.188.318a2.114 2.114 0 011.079 1.936 2.098 2.098 0 01-1.195 1.866c-.359.177-.76.259-1.204.246s-.841-.12-1.189-.318zm1.798-.798c.176-.094.314-.231.42-.41s.162-.386.17-.622-.037-.446-.131-.631-.227-.33-.395-.435a1.125 1.125 0 00-.572-.167c-.211-.007-.404.038-.58.132s-.315.231-.421.41a1.284 1.284 0 00-.169.622c-.007.236.037.446.131.631a1.082 1.082 0 00.966.603 1.13 1.13 0 00.581-.133zm8.158-1.391l-1.271-.177-.449 3.227-1.159-.162.448-3.227-1.277-.178.13-.933 3.708.516-.13.934zm5.942.542c.241.189.407.417.498.68.092.264.1.549.023.855s-.217.554-.42.743c-.203.188-.456.31-.758.365a2.388 2.388 0 01-1.007-.055l-.71-.176-.265 1.065-1.153-.286 1.012-4.076 1.863.462c.37.093.674.233.917.423zm-.934 1.642c.146-.073.243-.205.29-.395.047-.19.023-.353-.07-.487-.095-.135-.261-.231-.497-.29l-.641-.159-.296 1.194.641.159c.236.058.427.05.573-.022zm6.796 3.536l-.313.863-3.17-1.151 1.434-3.948 3.097 1.125-.313.863-1.991-.723-.243.665 1.754.637-.304.834-1.754-.637-.262.722 2.065.75zm6.698.495l-1.156-.559-1.418 2.933-1.054-.509 1.419-2.933-1.161-.562.41-.848 3.37 1.63-.41.848zm5.055 3.833c.117.343.056.707-.182 1.091-.256.411-.583.644-.983.697-.399.053-.836-.067-1.309-.36l-1.688-1.046 2.213-3.57.994.617-.705 1.137.826.512c.439.271.717.579.834.922zm-1.601.776c.157-.03.288-.128.392-.294.191-.309.102-.579-.269-.809l-.627-.389-.613.989.627.389c.17.106.333.143.49.114zm9.775 6.557a.99.99 0 01-.269.596c-.248.278-.551.4-.909.367-.359-.033-.737-.226-1.135-.58l-1.609-1.432 2.793-3.138 1.523 1.356c.376.335.605.666.687.993s.007.62-.225.88a1.004 1.004 0 01-.469.306c-.178.051-.365.05-.563-.003.132.224.19.443.176.655zm-1.106-.27c.188-.212.154-.433-.103-.661l-.699-.622-.574.645.699.623c.257.228.483.233.677.015zm-.266-1.884l.564.502c.251.223.469.232.651.026.184-.206.15-.421-.101-.645l-.565-.502-.549.619zm5.362 2.768l.78.871-1.836 1.646 2.994-.355.745.831-3.127 2.804-.781-.871 1.831-1.643-2.984.356-.749-.835 3.127-2.804zm4.782 11.27l-1.462 1.029-.625-.888.691-.487-1.547-2.198-.691.487-.629-.893 1.462-1.029.087.123c.146.2.386.246.719.136.334-.11.766-.337 1.297-.681l1.087-.707 1.948 2.768-2.665 1.875.328.465zm-1.179-2.926c-.288.134-.533.202-.737.204l.915 1.3 1.894-1.333-.694-.986-.383.248a8.434 8.434 0 01-.995.567zm4.203 8.261l-.805.442-1.623-2.956 3.682-2.022 1.585 2.888-.805.442-1.02-1.857-.62.341.898 1.636-.778.428-.898-1.636-.674.37 1.058 1.924zm.906 3.633c.038-.399.173-.755.402-1.069.23-.313.537-.549.922-.708s.769-.208 1.153-.148.729.218 1.039.474c.309.255.548.588.717.999.17.41.234.815.196 1.214a2.133 2.133 0 01-.403 1.069 2.114 2.114 0 01-.922.708 2.101 2.101 0 01-2.191-.326 2.51 2.51 0 01-.718-.999 2.513 2.513 0 01-.195-1.214zm1.464 1.314c.158.121.34.192.547.216.206.023.418-.011.637-.101.218-.09.392-.216.522-.378a1.08 1.08 0 00.235-.539 1.139 1.139 0 00-.081-.589 1.143 1.143 0 00-.358-.476c-.158-.121-.341-.193-.547-.216s-.419.011-.637.101c-.219.09-.393.216-.522.378a1.07 1.07 0 00-.235.539c-.027.197 0 .394.081.589.08.197.199.355.358.476zm7.5 21.248l-4.197.143-.041-1.188 3.28-.112-.026-.779.918-.031.066 1.967zm-4.054 3.774c.187-.27.449-.475.787-.615.339-.14.733-.197 1.185-.173s.838.125 1.158.3c.321.176.56.408.717.697.156.289.225.613.205.973-.02.355-.122.668-.31.938-.187.271-.449.476-.787.615s-.732.197-1.184.173c-.452-.024-.838-.124-1.159-.3a1.739 1.739 0 01-.716-.697 1.77 1.77 0 01-.206-.966 1.8 1.8 0 01.31-.945zm.926 1.489c.188.129.49.204.91.227.419.023.729-.02.929-.126.2-.107.306-.262.316-.461.012-.204-.077-.37-.264-.498-.188-.128-.491-.204-.91-.227-.42-.022-.729.02-.93.127s-.306.263-.316.467c-.011.199.077.363.265.491zm1.033 12.625l-4.091-.951.265-1.14 3.174.737.273-1.175-.661-.178c-.58-.155-1.044-.313-1.393-.475s-.603-.357-.76-.587c-.158-.229-.198-.512-.121-.847.037-.156.101-.326.193-.51l.932.284a.772.772 0 00-.055.153.412.412 0 00.1.394c.102.109.257.207.465.292.208.086.484.175.828.267l1.617.438-.766 3.298zm-5.191 5.376l-.866-.305 1.117-3.181 3.963 1.392-1.092 3.108-.866-.305.702-1.998-.668-.234-.619 1.76-.837-.294.618-1.761-.725-.255-.727 2.073zm-.417 6.686l.547-1.162-2.948-1.387.498-1.059 2.948 1.387.549-1.167.853.401-1.594 3.388-.853-.401zm-5.086 9.941l-3.434-2.419.685-.971 1.339.942.933-1.324-1.339-.943.685-.971 3.434 2.418-.685.972-1.29-.909-.933 1.325 1.29.908-.685.972zm-6.602 2.608l1.184-1.323-.388-.79.809-.903 1.894 4.182-.78.872-4.37-1.414.824-.921.827.297zm.885.325l1.361.493-.642-1.299-.719.806zm-7.801 10.388l-2.578-3.316.929-.722 2 2.572 1.26-.979-2-2.572.924-.718 2.578 3.315-3.113 2.42zm-7.09.578l1.52-.92-.141-.869 1.037-.628.589 4.553-1 .606-3.767-2.63 1.057-.64.705.528zm.752.568l1.158.87-.234-1.43-.924.56zm-6.647 6.179l-1.741-3.822 1.065-.485 1.35 2.965 1.098-.499-.262-.633c-.23-.555-.388-1.019-.473-1.394-.085-.374-.084-.694.001-.96.086-.266.285-.469.599-.611.146-.066.319-.119.521-.158l.343.911a.74.74 0 00-.155.051.41.41 0 00-.251.319c-.024.147-.008.329.052.547.06.217.157.489.294.818l.639 1.549-3.08 1.402zm-6.941 2.444l-1.287-3.998 1.113-.358.999 3.102 1.147-.37-.187-.658c-.165-.577-.268-1.057-.309-1.438s-.004-.7.111-.954c.116-.253.338-.433.665-.538.152-.05.331-.082.536-.098l.235.945a.772.772 0 00-.16.033c-.148.048-.243.144-.285.287s-.046.327-.013.549c.034.223.1.505.197.848l.457 1.612-3.219 1.036zm-7.303-1.683l-.184-.899 3.304-.677.842 4.115-3.228.66-.184-.899 2.075-.425-.143-.693-1.828.374-.178-.87 1.828-.374-.154-.752-2.15.44zm-5.968 3.082l1.277-.129-.325-3.241 1.164-.117.325 3.242 1.283-.129.095.938-3.726.373-.093-.937zm-7.013 1.038l.068-4.199 1.188.02-.026 1.638 1.62.026.027-1.638 1.188.02-.068 4.199-1.188-.02.026-1.578-1.62-.025-.026 1.577-1.189-.02zm-3.789-4.28a2.11 2.11 0 01.894 2.027 2.117 2.117 0 01-.439 1.076 2.11 2.11 0 01-.924.671 2.498 2.498 0 01-1.223.133c-.44-.055-.825-.197-1.153-.428s-.572-.522-.731-.877-.214-.738-.162-1.15c.051-.413.198-.771.439-1.076s.549-.528.924-.672c.375-.143.782-.187 1.223-.132s.824.197 1.152.428zm-1.864.627c-.183.077-.335.201-.457.369s-.197.369-.227.604c-.029.234-.005.448.072.641s.194.35.353.471c.159.12.343.193.553.22s.407 0 .59-.078a1.09 1.09 0 00.458-.369 1.28 1.28 0 00.226-.604 1.281 1.281 0 00-.072-.641c-.077-.193-.194-.351-.353-.471s-.343-.193-.553-.22-.407 0-.59.078zm-7.947-2.688l-.543 2.158 1.494-1.489.512.13.612 1.976.537-2.11 1.059.269-1.036 4.07-.948-.24-.833-2.714-1.993 1.994-.948-.241 1.024-4.073 1.063.27zm-11.807-.21c-.201-.232-.321-.486-.36-.763s.007-.558.141-.844c.133-.287.317-.504.553-.65s.507-.218.814-.214c.307.004.633.085.978.245l.664.309.462-.996 1.078.5-1.768 3.81-1.742-.809a2.367 2.367 0 01-.82-.588zm1.228-1.434c-.157.044-.277.155-.359.333s-.09.342-.023.492c.067.149.211.276.433.379l.599.278.518-1.116-.599-.277c-.222-.104-.411-.133-.569-.089zm-8.45-2.449l-.993-.619 2.223-3.563.993.619-2.223 3.563zm1.639-.96c-.116-.343-.054-.707.185-1.09.256-.411.584-.643.984-.694.4-.052.836.069 1.308.363l1.685 1.051-2.223 3.563-.993-.619.708-1.135-.825-.515c-.437-.273-.713-.581-.829-.924zm1.602-.772c-.157.029-.288.127-.392.293-.193.309-.104.578.266.81l.626.391.616-.988-.626-.391c-.169-.106-.332-.144-.49-.115zm-10.164-3.504l2.659-3.251.92.752-1.037 1.269 1.254 1.025 1.037-1.269.92.752-2.659 3.252-.92-.752.999-1.222-1.254-1.025-.999 1.221-.92-.752zm-1.866-5.364l.377.386 1.151-1.122.825.847-3.007 2.932-.825-.847 1.168-1.139-.398-.408-1.868.422-.871-.894 2.369-.476.629-2.465.934.958-.484 1.806zm-4.871-6.72l.72-.569 2.091 2.646-3.294 2.604-2.043-2.584.72-.569 1.313 1.661.556-.438-1.158-1.464.697-.551 1.157 1.464.603-.477-1.362-1.723zM8.178 84.107a2.46 2.46 0 01-.083.846l-.953-.106c.061-.216.09-.454.087-.714a2.48 2.48 0 00-.114-.731c-.138-.435-.316-.617-.534-.549-.114.037-.179.126-.195.268-.016.142-.011.359.016.652.031.322.042.596.032.821-.01.226-.074.438-.192.635-.117.196-.315.34-.594.428a1.202 1.202 0 01-.724.011c-.239-.071-.458-.221-.656-.449s-.359-.535-.482-.92c-.084-.263-.137-.531-.159-.806s-.007-.526.045-.758l.952.081c-.084.447-.069.85.045 1.208.071.225.157.378.256.46.1.081.203.104.31.071.106-.034.167-.121.182-.26a3.439 3.439 0 00-.022-.642 5.938 5.938 0 01-.033-.824c.011-.224.074-.435.189-.633s.312-.342.59-.431c.24-.076.479-.079.715-.008.237.071.456.223.657.452.202.229.363.535.484.916.103.325.164.652.181.982zm-2.241-9l-2.183.438 1.985.713.101.519-1.515 1.389 2.126-.414.21 1.078-4.121.802-.187-.96L4.45 76.76l-2.655-.949-.187-.96 4.12-.815.209 1.071zM4.365 68.4l.126 1.771.837.271.085 1.209L1.094 70.1l-.083-1.167 4.058-2.152.087 1.233-.791.386zm-.849.41l-1.302.634 1.379.443-.077-1.077zm.505-6.327l-.025.647 1.115.043-.046 1.187-4.197-.163.075-1.918c.015-.38.09-.707.227-.982s.325-.484.565-.626c.24-.143.518-.208.833-.196.304.012.566.093.786.244.22.15.389.36.507.629l1.354-.854-.049 1.271-1.145.718zm-1.962-.64c-.113.12-.174.301-.184.545l-.025.66 1.229.048.026-.66c.009-.244-.037-.43-.138-.558s-.25-.196-.445-.204c-.196-.007-.351.049-.463.169zm.319-5.276l-.181 1.277-.933-.133.528-3.725.933.132-.181 1.271 3.226.458-.167 1.176-3.225-.456zm2.076-12.206a1.47 1.47 0 01.712-.452c.269-.074.554-.062.855.034.301.097.539.252.713.468.175.215.279.476.314.781a2.4 2.4 0 01-.122 1l-.224.698 1.046.335-.363 1.131-4-1.282.586-1.828c.116-.362.277-.657.483-.885zm1.575 1.04c-.063-.15-.188-.256-.375-.315-.187-.06-.351-.047-.491.038-.141.085-.248.244-.323.476l-.2.629 1.171.375.201-.628c.075-.233.08-.424.017-.575zm3.787-5.857l-.721 1.624.613.632-.492 1.107-3.086-3.398.475-1.069 4.593.004-.501 1.13-.881-.03zm-.941-.037l-1.448-.052 1.009 1.039.439-.987zm-.168-5.298L9.3 33.18l2.822 1.627 1.001-1.736.816.47-1.594 2.766-3.638-2.098zm3.207-5.243l.689-.968 2.654 1.89 1.163-1.632.768.546-1.852 2.6-3.422-2.436zm8.388-5.306l.692.604-2.217 2.541-3.165-2.762 2.166-2.482.692.604-1.393 1.596.534.465 1.227-1.406.669.584-1.227 1.406.579.505 1.443-1.655zm1.035-4.355l-.941.883-.644-.688 2.744-2.573.645.687-.937.878 2.229 2.376-.866.812-2.23-2.375z" id="letter" fill="#FFF" stroke="#FFF"/><path d="M57.23 48.123c-3.418-1.96-6.189-.354-6.189 3.584v29.066c0 3.943 2.771 5.547 6.189 3.588l25.405-14.57c3.419-1.961 3.419-5.139 0-7.099L57.23 48.123z" fill="#FFF" stroke="#FFF"/></svg>