<svg width="746" height="146" fill="none" xmlns="http://www.w3.org/2000/svg"><path opacity=".05" d="M59.2 145.8c-11.333 0-22.333-1.4-33-4.2-10.667-2.8-19.333-6.533-26-11.2l13-29.2c6.267 4.133 13.533 7.467 21.8 10 8.267 2.533 16.4 3.8 24.4 3.8 15.2 0 22.8-3.8 22.8-11.4 0-4-2.2-6.933-6.6-8.8-4.267-2-11.2-4.067-20.8-6.2-10.533-2.267-19.333-4.667-26.4-7.2-7.067-2.667-13.133-6.867-18.2-12.6S2.6 55.333 2.6 45.6c0-8.533 2.333-16.2 7-23 4.667-6.933 11.6-12.4 20.8-16.4 9.333-4 20.733-6 34.2-6a116.7 116.7 0 0127.2 3.2c8.933 2 16.8 5 23.6 9l-12.2 29.4C89.867 34.6 76.933 31 64.4 31c-7.867 0-13.6 1.2-17.2 3.6-3.6 2.267-5.4 5.267-5.4 9 0 3.733 2.133 6.533 6.4 8.4s11.133 3.8 20.6 5.8c10.667 2.267 19.467 4.733 26.4 7.4 7.067 2.533 13.133 6.667 18.2 12.4 5.2 5.6 7.8 13.267 7.8 23 0 8.4-2.333 16-7 22.8-4.667 6.8-11.667 12.267-21 16.4-9.333 4-20.667 6-34 6zm206.692-2.8l-.4-74.2-36 60.4h-17.6l-35.8-58.4V143h-36.6V3h32.6l49.2 80.8 48-80.8h32.6l.4 140h-36.4zm158.221-27.2h-59.2l-11 27.2h-40.401L375.313 3h39l62 140h-41.2l-11-27.2zm-11.6-29.2l-18-44.8-18 44.8h36zm136.226 19.2h-21.6V143h-39.6V3h64c12.667 0 23.667 2.133 33 6.4 9.333 4.133 16.533 10.133 21.6 18 5.067 7.733 7.6 16.867 7.6 27.4 0 10.133-2.4 19-7.2 26.6-4.667 7.467-11.4 13.333-20.2 17.6l30.2 44h-42.4l-25.4-37.2zm25-51c0-6.533-2.067-11.6-6.2-15.2-4.133-3.6-10.267-5.4-18.4-5.4h-22v41h22c8.133 0 14.267-1.733 18.4-5.2 4.133-3.6 6.2-8.667 6.2-15.2zm89.694-20.4h-43V3h125.4v31.4h-42.8V143h-39.6V34.4z" fill="#fff"/></svg>