<svg width="24" height="24" viewBox="0 0 24 24" fill="none" xmlns="http://www.w3.org/2000/svg">
<g clip-path="url(#clip0_6034_26030)">
<path fill-rule="evenodd" clip-rule="evenodd" d="M10.9193 2.868C11.0293 2.67916 11.1869 2.52247 11.3764 2.41357C11.5659 2.30467 11.7807 2.24736 11.9993 2.24736C12.2178 2.24736 12.4326 2.30467 12.6221 2.41357C12.8116 2.52247 12.9692 2.67916 13.0793 2.868L15.8743 7.666L21.3023 8.842C21.5158 8.88839 21.7134 8.98994 21.8754 9.13653C22.0374 9.28311 22.1582 9.46961 22.2257 9.67742C22.2932 9.88523 22.305 10.1071 22.26 10.3209C22.215 10.5347 22.1148 10.733 21.9693 10.896L18.2693 15.037L18.8293 20.562C18.8513 20.7796 18.816 20.9991 18.7267 21.1987C18.6374 21.3983 18.4973 21.571 18.3204 21.6996C18.1435 21.8281 17.9359 21.908 17.7185 21.9312C17.5011 21.9544 17.2813 21.9202 17.0813 21.832L11.9993 19.592L6.91725 21.832C6.71717 21.9202 6.49744 21.9544 6.28001 21.9312C6.06257 21.908 5.85504 21.8281 5.67812 21.6996C5.50121 21.571 5.36112 21.3983 5.27182 21.1987C5.18253 20.9991 5.14716 20.7796 5.16925 20.562L5.72925 15.037L2.02925 10.897C1.88348 10.734 1.78301 10.5357 1.73787 10.3217C1.69272 10.1078 1.70449 9.88573 1.772 9.67775C1.8395 9.46978 1.96038 9.28315 2.12256 9.13649C2.28474 8.98984 2.48256 8.8883 2.69625 8.842L8.12425 7.666L10.9193 2.868ZM11.9993 4.987L9.68625 8.95899C9.59879 9.10892 9.48107 9.23898 9.34058 9.34091C9.20009 9.44283 9.03991 9.51438 8.87025 9.55099L4.37825 10.524L7.44025 13.951C7.67425 14.213 7.78725 14.561 7.75225 14.91L7.28925 19.483L11.4953 17.629C11.6541 17.559 11.8257 17.5229 11.9993 17.5229C12.1728 17.5229 12.3444 17.559 12.5033 17.629L16.7093 19.483L16.2463 14.91C16.2287 14.7373 16.2472 14.5629 16.3008 14.3978C16.3543 14.2326 16.4417 14.0805 16.5573 13.951L19.6203 10.524L15.1283 9.55099C14.9586 9.51438 14.7984 9.44283 14.6579 9.34091C14.5174 9.23898 14.3997 9.10892 14.3123 8.95899L11.9993 4.987Z" fill="#F600EC"/>
</g>
<defs>
<clipPath id="clip0_6034_26030">
<rect width="24" height="24" fill="white"/>
</clipPath>
</defs>
</svg>
