<svg width="60" height="60" viewBox="0 0 60 60" fill="none" xmlns="http://www.w3.org/2000/svg">
<g clip-path="url(#clip0_59_3880)">
<path fill-rule="evenodd" clip-rule="evenodd" d="M0.923062 55.4254H8.14852V24.7721H0.923062V55.4254ZM8.61012 56.3483H0.461462C0.206786 56.3483 0 56.1416 0 55.8868V24.3106C0 24.0558 0.206647 23.849 0.461462 23.849H8.61012C8.8648 23.849 9.07159 24.0558 9.07159 24.3106V55.8868C9.07159 56.1416 8.8648 56.3484 8.61012 56.3483Z" fill="white"/>
<path fill-rule="evenodd" clip-rule="evenodd" d="M51.8515 55.4254H59.077V24.7721H51.8515V55.4254ZM59.5385 56.3483H51.3901C51.1351 56.3483 50.9285 56.1416 50.9285 55.8868V24.3106C50.9285 24.0558 51.1351 23.849 51.3899 23.849H59.5385C59.7934 23.849 60.0001 24.0558 60.0001 24.3106V55.8868C60.0001 56.1416 59.7933 56.3484 59.5385 56.3483Z" fill="white"/>
<path fill-rule="evenodd" clip-rule="evenodd" d="M29.9992 48.7082H8.61004C8.35522 48.7082 8.14844 48.5028 8.14844 48.2467C8.14844 47.9919 8.35509 47.7852 8.6099 47.7852H29.9992C30.2542 47.7852 30.4608 47.9919 30.4608 48.2467C30.461 48.5026 30.254 48.7082 29.9992 48.7082ZM29.9992 56.3483H8.61004C8.35522 56.3483 8.14844 56.1417 8.14844 55.8868C8.14844 55.6309 8.35509 55.4254 8.6099 55.4254H29.9992C30.2542 55.4254 30.4608 55.6309 30.4608 55.8868C30.461 56.1417 30.254 56.3484 29.9992 56.3483Z" fill="white"/>
<path fill-rule="evenodd" clip-rule="evenodd" d="M19.3055 48.7082C17.4534 48.7082 15.9473 50.2153 15.9473 52.0662C15.9473 53.9182 17.4532 55.4254 19.3053 55.4254C21.1563 55.4254 22.6633 53.9182 22.6633 52.0662C22.6633 50.2153 21.1562 48.7082 19.3055 48.7082V48.7082ZM19.3055 56.3483C16.945 56.3483 15.0244 54.4279 15.0244 52.0662C15.0244 49.7057 16.9449 47.7852 19.3053 47.7852C21.6659 47.7852 23.5864 49.7058 23.5864 52.0662C23.5864 54.4279 21.6658 56.3484 19.3055 56.3483Z" fill="white"/>
<path fill-rule="evenodd" clip-rule="evenodd" d="M51.39 56.3483H29.9993C29.7446 56.3483 29.5378 56.1417 29.5378 55.8868V48.2467C29.5378 47.9919 29.7445 47.7852 29.9993 47.7852H51.39C51.6447 47.7852 51.8513 47.9919 51.8513 48.2467C51.8515 48.5026 51.6447 48.7082 51.3899 48.7082H30.461V55.4254H51.39C51.6447 55.4254 51.8513 55.6309 51.8513 55.8868C51.8515 56.1417 51.6447 56.3484 51.39 56.3483V56.3483Z" fill="white"/>
<path fill-rule="evenodd" clip-rule="evenodd" d="M40.6945 48.7082C38.8425 48.7082 37.3365 50.2153 37.3365 52.0662C37.3366 53.9182 38.8424 55.4254 40.6945 55.4254C42.5466 55.4254 44.0525 53.9182 44.0525 52.0662C44.0525 50.2153 42.5466 48.7082 40.6945 48.7082ZM40.6945 56.3483C38.3342 56.3483 36.4136 54.4279 36.4136 52.0662C36.4136 49.7057 38.3342 47.7852 40.6945 47.7852C43.0549 47.7852 44.9755 49.7058 44.9755 52.0662C44.9755 54.4279 43.0549 56.3484 40.6945 56.3483V56.3483Z" fill="white"/>
<path fill-rule="evenodd" clip-rule="evenodd" d="M7.33733 24.7733C7.2857 24.7733 7.23269 24.7638 7.18231 24.7457C6.94202 24.6603 6.8169 24.3959 6.9023 24.1556L7.95505 21.2075H1.11659L2.16934 24.1556C2.25585 24.3959 2.12962 24.6604 1.89044 24.7457C1.65016 24.8311 1.3858 24.7061 1.3004 24.4669L0.0277102 20.901C-0.0228098 20.7603 -0.00246338 20.6029 0.0841818 20.4804C0.170689 20.3578 0.311314 20.2844 0.46149 20.2844H8.61015C8.76033 20.2844 8.90082 20.3578 8.98746 20.4804C9.07411 20.6029 9.09556 20.7604 9.04518 20.901L7.77124 24.4668C7.70384 24.6555 7.52723 24.7733 7.33733 24.7733V24.7733Z" fill="white"/>
<path fill-rule="evenodd" clip-rule="evenodd" d="M8.61015 21.2074C8.50191 21.2074 8.39367 21.1702 8.30592 21.0933L4.53575 17.7941L0.765575 21.0933C0.574568 21.2614 0.282382 21.2423 0.114075 21.0499C-0.0528486 20.8588 -0.0336095 20.5669 0.157397 20.3986L4.23166 16.8338C4.40592 16.6813 4.66558 16.6813 4.83984 16.8339L8.91424 20.3986C9.10649 20.5667 9.12559 20.8589 8.95742 21.0499C8.86607 21.1546 8.73859 21.2074 8.61015 21.2074V21.2074Z" fill="white"/>
<path fill-rule="evenodd" clip-rule="evenodd" d="M58.2644 24.7733C58.2128 24.7733 58.161 24.7638 58.1094 24.7457C57.8691 24.6603 57.744 24.3959 57.8305 24.1556L58.8834 21.2075H52.0449L53.0978 24.1556C53.183 24.3959 53.0579 24.6604 52.8176 24.7457C52.5785 24.8311 52.314 24.7061 52.2275 24.4669L50.9548 20.901C50.9044 20.7603 50.9258 20.6029 51.0125 20.4804C51.0991 20.3578 51.2396 20.2844 51.3898 20.2844H59.5383C59.6875 20.2844 59.8291 20.3578 59.9158 20.4804C60.0012 20.6029 60.0228 20.7604 59.9722 20.901L58.6996 24.4668C58.6321 24.6555 58.4543 24.7733 58.2644 24.7733V24.7733Z" fill="white"/>
<path fill-rule="evenodd" clip-rule="evenodd" d="M51.39 21.2074C51.2614 21.2074 51.134 21.1546 51.0426 21.0499C50.8743 20.8588 50.8935 20.5669 51.0858 20.3986L55.1602 16.8338C55.3345 16.6813 55.594 16.6813 55.7682 16.8339L59.8425 20.3986C60.0338 20.5667 60.0529 20.8589 59.8858 21.0499C59.7176 21.2422 59.4255 21.2616 59.2343 21.0933L55.4643 17.7941L51.6941 21.0933C51.6064 21.1702 51.4981 21.2074 51.39 21.2074Z" fill="white"/>
<path fill-rule="evenodd" clip-rule="evenodd" d="M8.61005 29.505C8.40687 29.505 8.22057 29.3693 8.1652 29.1637C8.09793 28.9173 8.2434 28.6638 8.48977 28.5976C10.6147 28.0231 12.2756 26.3718 14.0351 24.6255C18.911 19.7832 24.1607 17.3711 29.6448 17.4565C34.9462 17.5382 40.2451 19.9454 45.395 24.6111C47.3288 26.3621 49.1543 28.0159 51.5004 28.5953C51.7482 28.6553 51.8982 28.9065 51.8381 29.1529C51.7769 29.4004 51.5268 29.552 51.2792 29.4906C48.7074 28.856 46.7975 27.1266 44.776 25.295C34.6229 16.0995 23.9371 16.0936 14.6853 25.2805C12.837 27.1156 11.0918 28.8501 8.73019 29.4881C8.69047 29.4989 8.64964 29.505 8.61005 29.505V29.505ZM8.61005 32.7897C8.38763 32.7897 8.19178 32.6287 8.15441 32.4014C8.11371 32.1502 8.28548 31.9135 8.5367 31.8727C11.8346 31.339 14.0291 29.1589 16.3547 26.8513C24.6296 18.633 33.7924 18.6283 42.853 26.8356C45.4059 29.1481 47.8167 31.333 51.4571 31.8691C51.7095 31.9063 51.8838 32.1407 51.8466 32.3931C51.8093 32.6454 51.5738 32.8197 51.3225 32.7825C47.4058 32.2043 44.8938 29.9293 42.2341 27.5208C33.4739 19.5861 24.9852 19.5801 17.0048 27.5064C14.5724 29.9208 12.2743 32.2032 8.68452 32.7837C8.65933 32.7873 8.634 32.7897 8.61005 32.7897V32.7897Z" fill="white"/>
<path fill-rule="evenodd" clip-rule="evenodd" d="M23.2521 48.7082C22.9975 48.7082 22.7905 48.5028 22.7905 48.2467L22.7907 15.2137C22.7907 14.959 22.9973 14.7522 23.2521 14.7522C23.5069 14.7522 23.7136 14.959 23.7136 15.2138V48.2467C23.7136 48.5026 23.5069 48.7082 23.2521 48.7082Z" fill="white"/>
<path fill-rule="evenodd" clip-rule="evenodd" d="M15.3586 48.7082C15.1038 48.7082 14.897 48.5028 14.897 48.2467V15.2137C14.897 14.959 15.1038 14.7522 15.3584 14.7522C15.6132 14.7522 15.82 14.959 15.82 15.2138V48.2467C15.82 48.5026 15.6132 48.7082 15.3586 48.7082Z" fill="white"/>
<path fill-rule="evenodd" clip-rule="evenodd" d="M15.3585 11.6165C15.088 11.8113 14.6457 12.2103 14.5687 12.7716C14.4944 13.3087 14.7598 13.9086 15.3583 14.5587C15.9581 13.9074 16.2237 13.3053 16.1469 12.7669C16.0687 12.2091 15.6275 11.8114 15.3585 11.6165V11.6165ZM15.3585 15.6753C15.2443 15.6753 15.1301 15.6332 15.0411 15.5503C13.9885 14.5564 13.5219 13.5769 13.6553 12.637C13.838 11.3475 15.094 10.6864 15.1468 10.66C15.2792 10.5915 15.4365 10.5915 15.57 10.66C15.6228 10.6864 16.8788 11.3475 17.0613 12.637C17.1937 13.5769 16.7274 14.5564 15.6745 15.5503C15.5856 15.6332 15.4725 15.6753 15.3585 15.6753V15.6753Z" fill="white"/>
<path fill-rule="evenodd" clip-rule="evenodd" d="M23.2521 11.6165C22.9817 11.8113 22.5395 12.2103 22.4625 12.7716C22.388 13.3087 22.6537 13.9086 23.2521 14.5587C23.8519 13.9074 24.1175 13.3053 24.0405 12.7669C23.9625 12.2091 23.5213 11.8114 23.2521 11.6165V11.6165ZM23.2521 15.6753C23.1381 15.6753 23.0238 15.6332 22.9348 15.5503C21.8822 14.5564 21.4157 13.5769 21.5491 12.637C21.7318 11.3475 22.9876 10.6864 23.0405 10.66C23.1728 10.5915 23.3302 10.5915 23.4636 10.66C23.5166 10.6864 24.7724 11.3475 24.9551 12.637C25.0873 13.5769 24.621 14.5564 23.5681 15.5503C23.4793 15.6332 23.3663 15.6753 23.2521 15.6753V15.6753Z" fill="white"/>
<path fill-rule="evenodd" clip-rule="evenodd" d="M29.9994 4.69393C29.7278 4.93545 29.312 5.4019 29.2182 6.05935C29.1198 6.7467 29.3829 7.50145 29.9994 8.31032C30.6196 7.49785 30.8827 6.7395 30.7806 6.04966C30.6845 5.3983 30.2698 4.93435 29.9994 4.69393V4.69393ZM29.9994 9.49415C29.8685 9.49415 29.7435 9.43768 29.6557 9.34038C28.5994 8.15655 28.145 7.00511 28.3061 5.91512C28.5163 4.49323 29.7086 3.75052 29.7591 3.71924C29.9069 3.62913 30.0931 3.62913 30.2411 3.71924C30.2916 3.75038 31.4837 4.49323 31.6941 5.91512C31.8552 7.00511 31.4008 8.15655 30.3444 9.34038C30.2566 9.43768 30.1317 9.49415 29.9994 9.49415V9.49415Z" fill="white"/>
<path fill-rule="evenodd" clip-rule="evenodd" d="M36.7477 48.7082C36.4929 48.7082 36.2861 48.5028 36.2861 48.2467V15.2137C36.2861 14.959 36.4929 14.7522 36.7476 14.7522C37.0025 14.7522 37.2092 14.959 37.2092 15.2138L37.2093 48.2467C37.2093 48.5026 37.0024 48.7082 36.7477 48.7082Z" fill="white"/>
<path fill-rule="evenodd" clip-rule="evenodd" d="M44.6417 48.7082C44.3867 48.7082 44.1799 48.5028 44.1799 48.2467L44.1801 15.2137C44.1801 14.959 44.3867 14.7522 44.6415 14.7522C44.8963 14.7522 45.103 14.959 45.103 15.2138L45.1031 48.2467C45.1031 48.5026 44.8962 48.7082 44.6417 48.7082Z" fill="white"/>
<path fill-rule="evenodd" clip-rule="evenodd" d="M44.6416 11.6165C44.3711 11.8113 43.9287 12.2103 43.8518 12.7716C43.7784 13.3087 44.0429 13.9086 44.6414 14.5587C45.2412 13.9074 45.5068 13.3053 45.4311 12.7669C45.3517 12.2091 44.9106 11.8114 44.6416 11.6165V11.6165ZM44.6416 15.6753C44.5272 15.6753 44.4143 15.6332 44.3253 15.5503C43.2725 14.5564 42.8062 13.5769 42.9384 12.637C43.1211 11.3475 44.3771 10.6864 44.4299 10.66C44.5634 10.5915 44.7195 10.5915 44.8529 10.66C44.9058 10.6864 46.1617 11.3475 46.3444 12.637C46.4779 13.5769 46.0116 14.5564 44.9587 15.5503C44.8698 15.6332 44.7556 15.6753 44.6416 15.6753Z" fill="white"/>
<path fill-rule="evenodd" clip-rule="evenodd" d="M36.7478 11.6165C36.4773 11.8113 36.0349 12.2103 35.9581 12.7716C35.8848 13.3087 36.1504 13.9086 36.7476 14.5587C37.3475 13.9074 37.6131 13.3053 37.5373 12.7669C37.4581 12.2091 37.017 11.8114 36.7478 11.6165V11.6165ZM36.7478 15.6753C36.6336 15.6753 36.5205 15.6332 36.4316 15.5503C35.3789 14.5564 34.9124 13.5769 35.0446 12.637C35.2275 11.3475 36.4833 10.6864 36.5361 10.66C36.6697 10.5915 36.8258 10.5915 36.9593 10.66C37.0121 10.6864 38.2681 11.3475 38.4508 12.637C38.5842 13.5769 38.1179 14.5564 37.065 15.5503C36.9761 15.6332 36.8618 15.6753 36.7478 15.6753V15.6753Z" fill="white"/>
<path fill-rule="evenodd" clip-rule="evenodd" d="M0.461368 36.2318C0.348563 36.2318 0.234236 36.1897 0.145237 36.1056C-0.0398179 35.9313 -0.0493682 35.6393 0.125998 35.4542L8.27466 26.7959C8.44892 26.6098 8.74097 26.6013 8.92602 26.7756C9.11232 26.9511 9.12077 27.2431 8.94651 27.4282L0.797983 36.0863C0.706632 36.1825 0.584 36.2318 0.461368 36.2318V36.2318Z" fill="white"/>
<path fill-rule="evenodd" clip-rule="evenodd" d="M8.61001 36.2318C8.48738 36.2318 8.36475 36.1825 8.27464 36.0863L0.126117 27.4282C-0.0493877 27.2431 -0.0398374 26.9511 0.145218 26.7756C0.331657 26.6013 0.622459 26.6098 0.797825 26.7961L8.94649 35.4541C9.12088 35.6393 9.1123 35.9313 8.926 36.1056C8.83714 36.1897 8.72406 36.2318 8.61001 36.2318V36.2318Z" fill="white"/>
<path fill-rule="evenodd" clip-rule="evenodd" d="M8.61001 44.8887C8.48738 44.8887 8.36475 44.8407 8.27464 44.7445L0.126117 36.0863C-0.0493877 35.9 -0.0398374 35.608 0.145218 35.4337C0.331657 35.2595 0.622459 35.2679 0.797825 35.4542L8.94649 44.1111C9.12088 44.2974 9.1123 44.5895 8.926 44.7637C8.83714 44.8479 8.72406 44.8887 8.61001 44.8887V44.8887Z" fill="white"/>
<path fill-rule="evenodd" clip-rule="evenodd" d="M0.461368 44.8887C0.348563 44.8887 0.234236 44.8479 0.145237 44.7637C-0.0398179 44.5895 -0.0493682 44.2974 0.125998 44.1111L8.27466 35.4541C8.44892 35.2679 8.74097 35.2595 8.92602 35.4337C9.11232 35.608 9.12077 35.9 8.94651 36.0863L0.797983 44.7445C0.706632 44.8406 0.584 44.8887 0.461368 44.8887V44.8887Z" fill="white"/>
<path fill-rule="evenodd" clip-rule="evenodd" d="M0.461368 53.5469C0.348563 53.5469 0.234236 53.5048 0.145237 53.4219C-0.0398179 53.2464 -0.0493682 52.9543 0.125998 52.7693L8.27466 44.1111C8.44892 43.9261 8.74097 43.9176 8.92602 44.0919C9.11232 44.2661 9.12077 44.5582 8.94651 44.7445L0.797983 53.4014C0.706632 53.4976 0.584 53.5469 0.461368 53.5469V53.5469Z" fill="white"/>
<path fill-rule="evenodd" clip-rule="evenodd" d="M8.61001 53.5469C8.48738 53.5469 8.36475 53.4976 8.27464 53.4014L0.126117 44.7445C-0.0493877 44.5582 -0.0398374 44.2661 0.145218 44.0919C0.331657 43.9164 0.622459 43.9261 0.797825 44.1111L8.94649 52.7693C9.12088 52.9543 9.1123 53.2464 8.926 53.4219C8.83714 53.5048 8.72406 53.5469 8.61001 53.5469V53.5469Z" fill="white"/>
<path fill-rule="evenodd" clip-rule="evenodd" d="M51.39 36.2318C51.2757 36.2318 51.1628 36.1897 51.0738 36.1056C50.8876 35.9313 50.8792 35.6393 51.0534 35.4542L59.2019 26.7959C59.3762 26.6098 59.6683 26.6013 59.8546 26.7756C60.0396 26.9511 60.0493 27.2431 59.8738 27.4282L51.7253 36.0863C51.6352 36.1825 51.5125 36.2318 51.39 36.2318V36.2318Z" fill="white"/>
<path fill-rule="evenodd" clip-rule="evenodd" d="M59.5384 36.2318C59.4147 36.2318 59.2933 36.1825 59.2019 36.0863L51.0534 27.4282C50.8792 27.2431 50.8876 26.9511 51.0738 26.7756C51.259 26.6013 51.551 26.6098 51.7253 26.7961L59.8738 35.4541C60.0493 35.6393 60.0396 35.9313 59.8546 36.1056C59.7656 36.1897 59.6514 36.2318 59.5384 36.2318Z" fill="white"/>
<path fill-rule="evenodd" clip-rule="evenodd" d="M59.5384 44.8887C59.4147 44.8887 59.2933 44.8407 59.2019 44.7445L51.0534 36.0863C50.8792 35.9 50.8876 35.608 51.0738 35.4337C51.259 35.2595 51.551 35.2679 51.7253 35.4542L59.8738 44.1111C60.0493 44.2974 60.0396 44.5895 59.8546 44.7637C59.7656 44.8479 59.6514 44.8887 59.5384 44.8887Z" fill="white"/>
<path fill-rule="evenodd" clip-rule="evenodd" d="M51.39 44.8887C51.2757 44.8887 51.1628 44.8479 51.0738 44.7637C50.8876 44.5895 50.8792 44.2974 51.0534 44.1111L59.2019 35.4541C59.3762 35.2679 59.6683 35.2595 59.8546 35.4337C60.0396 35.608 60.0493 35.9 59.8738 36.0863L51.7253 44.7445C51.6352 44.8406 51.5125 44.8887 51.39 44.8887V44.8887Z" fill="white"/>
<path fill-rule="evenodd" clip-rule="evenodd" d="M51.39 53.5469C51.2757 53.5469 51.1628 53.5048 51.0738 53.4219C50.8876 53.2464 50.8792 52.9543 51.0534 52.7693L59.2019 44.1111C59.3762 43.9261 59.6683 43.9176 59.8546 44.0919C60.0396 44.2661 60.0493 44.5582 59.8738 44.7445L51.7253 53.4014C51.6352 53.4976 51.5125 53.5469 51.39 53.5469V53.5469Z" fill="white"/>
<path fill-rule="evenodd" clip-rule="evenodd" d="M59.5384 53.5469C59.4147 53.5469 59.2933 53.4976 59.2019 53.4014L51.0534 44.7445C50.8792 44.5582 50.8876 44.2661 51.0738 44.0919C51.259 43.9164 51.551 43.9261 51.7253 44.1111L59.8738 52.7693C60.0493 52.9543 60.0396 53.2464 59.8546 53.4219C59.7656 53.5048 59.6514 53.5469 59.5384 53.5469Z" fill="white"/>
<path fill-rule="evenodd" clip-rule="evenodd" d="M29.9993 56.3483C29.7446 56.3483 29.5378 56.1417 29.5378 55.8868V9.03269C29.5378 8.77788 29.7445 8.57109 29.9993 8.57109C30.2543 8.57109 30.4609 8.77788 30.4609 9.03269L30.461 55.8868C30.461 56.1417 30.2541 56.3484 29.9993 56.3483Z" fill="white"/>
</g>
<defs>
<clipPath id="clip0_59_3880">
<rect width="60" height="60" fill="white"/>
</clipPath>
</defs>
</svg>
