<svg width="60" height="61" viewBox="0 0 60 61" fill="none" xmlns="http://www.w3.org/2000/svg">
<g clip-path="url(#clip0_59_3881)">
<path fill-rule="evenodd" clip-rule="evenodd" d="M20.6276 10.0843C20.4174 10.0843 20.2263 9.93837 20.1782 9.72356L18.3214 1.42306H14.0931L12.2363 9.72328C12.181 9.97215 11.9334 10.1291 11.6846 10.0732C11.4358 10.0173 11.2795 9.77076 11.3349 9.52203L13.2735 0.860836C13.3204 0.649898 13.5078 0.500137 13.7241 0.500137H18.6903C18.9066 0.500137 19.094 0.650036 19.141 0.860836L21.0784 9.52189C21.1349 9.77062 20.9787 10.0175 20.7298 10.0732C20.695 10.0805 20.6613 10.0844 20.6276 10.0843Z" fill="white"/>
<path fill-rule="evenodd" clip-rule="evenodd" d="M12.2916 10.084L16.2073 12.8721L20.1231 10.084H12.2916ZM16.2073 13.9C16.1136 13.9 16.0197 13.8716 15.9392 13.8146L10.5789 9.99858C10.4155 9.88232 10.3457 9.67359 10.407 9.48231C10.4683 9.29089 10.6462 9.16119 10.8469 9.16119L21.5676 9.16106C21.7683 9.16106 21.9462 9.29102 22.0075 9.48231C22.0676 9.67359 21.9991 9.88232 21.8344 9.99872L16.4754 13.8144C16.3948 13.8716 16.301 13.9 16.2073 13.9Z" fill="white"/>
<path fill-rule="evenodd" clip-rule="evenodd" d="M23.1639 59.5771H36.8375V58.1296C36.8375 57.3315 36.1873 56.6821 35.3892 56.6821L24.6109 56.6819C23.8129 56.6819 23.1638 57.3315 23.1638 58.1297L23.1639 59.5771ZM37.299 60.5H22.7023C22.4463 60.5 22.2407 60.2935 22.2407 60.0385L22.2409 58.1296C22.2409 56.8223 23.3032 55.7591 24.6109 55.7591L35.3893 55.759C36.6969 55.759 37.7605 56.8226 37.7605 58.1297V60.0384C37.7605 60.2934 37.5538 60.5001 37.299 60.5Z" fill="white"/>
<path fill-rule="evenodd" clip-rule="evenodd" d="M25.4076 56.6822C25.368 56.6822 25.3283 56.6771 25.2886 56.6664C25.0422 56.6003 24.8956 56.3475 24.9616 56.1013L25.5315 53.9724C25.5856 53.7706 25.7681 53.6302 25.9773 53.6302L34.0227 53.63C34.2318 53.63 34.4144 53.7706 34.4685 53.9724L35.0382 56.1012C35.1044 56.3474 34.9577 56.6005 34.7124 56.6664C34.4662 56.7323 34.2125 56.5862 34.1463 56.3399L33.6693 54.5529H26.3319L25.8535 56.3399C25.7982 56.5459 25.6119 56.6822 25.4076 56.6822V56.6822Z" fill="white"/>
<path fill-rule="evenodd" clip-rule="evenodd" d="M34.0227 54.5532C33.7906 54.5532 33.5911 54.3796 33.5645 54.1442L32.4722 44.6129H27.5276L26.4351 54.144C26.4063 54.3972 26.1767 54.5789 25.9244 54.5501C25.6708 54.5211 25.4892 54.2923 25.5182 54.0391L26.6576 44.0987C26.684 43.8656 26.8811 43.69 27.1165 43.69L32.8844 43.6899C33.1187 43.6899 33.3158 43.8658 33.3423 44.0989L34.4817 54.0388C34.5106 54.2923 34.329 54.5212 34.0754 54.5501C34.0576 54.5522 34.0394 54.5532 34.0227 54.5532V54.5532Z" fill="white"/>
<path fill-rule="evenodd" clip-rule="evenodd" d="M32.8843 44.6129C32.6284 44.6129 32.4227 44.4063 32.4227 44.1513L32.4229 42.5781H27.5782V44.1512C27.5782 44.4063 27.3713 44.6129 27.1165 44.6129C26.8618 44.6129 26.655 44.4063 26.655 44.1513V42.1165C26.655 41.8616 26.8618 41.6552 27.1165 41.6552L32.8843 41.6549C33.1393 41.6549 33.3447 41.8619 33.3447 42.1167V44.1512C33.3447 44.4063 33.1392 44.6129 32.8843 44.6129Z" fill="white"/>
<path fill-rule="evenodd" clip-rule="evenodd" d="M31.8663 42.5781C31.6117 42.5781 31.4049 42.3715 31.4049 42.1167C31.4049 41.8616 31.6115 41.6552 31.8663 41.6552C32.1729 41.6549 32.4227 41.4058 32.4227 41.0994C32.4229 40.7926 32.1728 40.5435 31.8663 40.5435L28.1334 40.5432C27.827 40.5432 27.5781 40.7929 27.5781 41.0994C27.5782 41.4057 27.8268 41.6552 28.1334 41.6552C28.3882 41.6549 28.5949 41.8619 28.5949 42.1167C28.595 42.3714 28.3881 42.5781 28.1334 42.5781C27.3186 42.5781 26.655 41.9147 26.655 41.0994C26.655 40.284 27.3184 39.6206 28.1334 39.6206L31.8663 39.6203C32.6825 39.6203 33.3447 40.2838 33.3447 41.0994C33.3447 41.9146 32.6824 42.5781 31.8663 42.5781V42.5781Z" fill="white"/>
<path fill-rule="evenodd" clip-rule="evenodd" d="M28.9494 40.5432C28.6946 40.5432 28.4878 40.3369 28.4878 40.082L28.4879 17.5247C28.4879 12.8337 30.1356 8.46983 33.1283 5.23683C35.2928 2.89686 38.0846 1.26347 41.2012 0.512869C41.4487 0.453076 41.6987 0.605881 41.7577 0.853637C41.8177 1.10125 41.6651 1.35067 41.4174 1.41032C38.479 2.11802 35.8468 3.65812 33.8048 5.86383C30.9721 8.92562 29.4109 13.0669 29.4109 17.5247V40.0819C29.4109 40.3367 29.2041 40.5435 28.9494 40.5432V40.5432ZM31.0503 40.5432C30.7954 40.5432 30.5887 40.3369 30.5887 40.082V17.5247C30.5887 13.3545 32.0357 9.49477 34.6618 6.65624C36.3156 4.86949 38.3299 3.58601 40.6495 2.84108C40.8925 2.76329 41.1518 2.89672 41.23 3.13935C41.3081 3.38199 41.1748 3.64192 40.932 3.71999C38.7649 4.4155 36.8841 5.61456 35.3397 7.28324C32.871 9.95041 31.5117 13.5877 31.5117 17.5247L31.5118 40.0819C31.5118 40.3367 31.305 40.5435 31.0503 40.5432Z" fill="white"/>
<path fill-rule="evenodd" clip-rule="evenodd" d="M30 11.7885C29.8101 11.7885 29.6322 11.6706 29.5648 11.4815C28.809 9.35359 27.6755 7.46373 26.1948 5.86383C24.153 3.65798 21.5208 2.11802 18.5822 1.41033C18.3346 1.35053 18.1819 1.10139 18.2421 0.853638C18.301 0.605883 18.5498 0.453215 18.7985 0.512871C21.915 1.26347 24.707 2.897 26.8715 5.23683C28.4376 6.92904 29.6369 8.92618 30.435 11.1724C30.5204 11.4126 30.3954 11.6765 30.155 11.7618C30.1034 11.7798 30.0516 11.7886 30 11.7885V11.7885ZM28.9496 17.986C28.6948 17.986 28.488 17.7793 28.488 17.5247C28.4881 13.5876 27.1287 9.95069 24.6601 7.28324C23.1181 5.61677 21.2372 4.41786 19.0678 3.72013C18.8251 3.64179 18.6916 3.38199 18.7698 3.13936C18.848 2.89658 19.1087 2.76329 19.3514 2.84149C21.6398 3.5777 23.7094 4.89717 25.3379 6.65624C27.9654 9.49477 29.4111 13.3546 29.4111 17.5247C29.4111 17.7793 29.2043 17.986 28.9496 17.986V17.986Z" fill="white"/>
<path fill-rule="evenodd" clip-rule="evenodd" d="M39.3721 10.0843C39.3386 10.0843 39.3048 10.0808 39.2712 10.0732C39.0224 10.0173 38.8649 9.77076 38.9214 9.52203L40.8589 0.860836C40.9069 0.649898 41.0932 0.500137 41.3095 0.500137H46.2757C46.4921 0.500137 46.6795 0.650036 46.7264 0.860836L48.665 9.52189C48.7203 9.77062 48.5639 10.0175 48.3152 10.0732C48.0654 10.129 47.82 9.97228 47.7635 9.72356L45.9067 1.42306H41.6798L39.8218 9.72328C39.7736 9.93824 39.5837 10.0844 39.3721 10.0843V10.0843Z" fill="white"/>
<path fill-rule="evenodd" clip-rule="evenodd" d="M39.877 10.084L43.7928 12.8721L47.7096 10.084H39.877ZM43.7928 13.9C43.6988 13.9 43.6051 13.8716 43.5246 13.8146L38.1656 9.99858C38.0009 9.88232 37.9324 9.67359 37.9924 9.48231C38.0537 9.29089 38.2316 9.16119 38.4323 9.16119L49.153 9.16106C49.3537 9.16106 49.5316 9.29102 49.5928 9.48231C49.6542 9.67359 49.5845 9.88232 49.421 9.99872L44.0608 13.8144C43.9801 13.8716 43.8864 13.9 43.7928 13.9Z" fill="white"/>
</g>
<defs>
<clipPath id="clip0_59_3881">
<rect width="60" height="60" fill="white" transform="translate(0 0.5)"/>
</clipPath>
</defs>
</svg>
