<svg width="61" height="60" viewBox="0 0 61 60" fill="none" xmlns="http://www.w3.org/2000/svg">
<g clip-path="url(#clip0_59_3882)">
<path fill-rule="evenodd" clip-rule="evenodd" d="M9.90395 19.185C9.61329 19.185 9.37772 18.9494 9.37772 18.6589V15.3333L7.00867 12.9644L4.63977 15.3333V18.6589C4.63977 18.9493 4.40406 19.185 4.1134 19.185C3.82273 19.185 3.58716 18.9494 3.58716 18.6589V15.1153C3.58716 14.9759 3.64252 14.8421 3.74135 14.7434L6.63649 11.8478C6.83386 11.6505 7.18335 11.6506 7.38086 11.8481L10.2761 14.7431C10.3748 14.8418 10.4302 14.9759 10.4302 15.1154V18.6589C10.4302 18.9493 10.1946 19.185 9.90395 19.185ZM4.1134 36.9395C3.82273 36.9395 3.58716 36.7042 3.58716 36.4137V23.5808C3.58716 23.29 3.82273 23.0545 4.1134 23.0545C4.40406 23.0544 4.63977 23.2901 4.63977 23.5808V36.4135C4.63977 36.7039 4.40406 36.9398 4.1134 36.9395ZM9.90395 36.9395C9.61329 36.9395 9.37772 36.7042 9.37772 36.4137V23.5808C9.37772 23.29 9.61329 23.0545 9.90395 23.0545C10.1946 23.0544 10.4302 23.2901 10.4302 23.5808V36.4135C10.4302 36.7039 10.1946 36.9398 9.90395 36.9395ZM9.90395 48.3001H4.1134C3.82273 48.3001 3.58716 48.0647 3.58716 47.774V41.3354C3.58716 41.0446 3.82273 40.8093 4.1134 40.8093C4.40406 40.8091 4.63977 41.0449 4.63977 41.3356V47.2475H9.37772V41.3354C9.37772 41.0446 9.61329 40.8093 9.90395 40.8093C10.1946 40.8091 10.4302 41.0449 10.4302 41.3356V47.7739C10.4302 48.0644 10.1946 48.3004 9.90395 48.3001Z" fill="white"/>
<path fill-rule="evenodd" clip-rule="evenodd" d="M19.4004 19.185C19.1098 19.185 18.8741 18.9494 18.8741 18.6589L18.8742 15.3333L16.5052 12.9644L14.1361 15.3333V18.6589C14.1361 18.9493 13.9004 19.185 13.6099 19.185C13.3192 19.185 13.0835 18.9494 13.0835 18.6589L13.0836 15.1153C13.0836 14.9759 13.139 14.8421 13.2377 14.7434L16.133 11.8478C16.3303 11.6505 16.6798 11.6506 16.8772 11.8481L19.7725 14.7431C19.8712 14.8418 19.9265 14.9759 19.9265 15.1154V18.6589C19.9265 18.9493 19.691 19.185 19.4004 19.185V19.185ZM13.6099 36.9395C13.3192 36.9395 13.0835 36.7042 13.0835 36.4137L13.0836 23.5808C13.0836 23.29 13.3192 23.0545 13.6099 23.0545C13.9005 23.0544 14.1361 23.2901 14.1361 23.5808V36.4135C14.1361 36.7039 13.9004 36.9398 13.6099 36.9395ZM19.4004 36.9395C19.1098 36.9395 18.8741 36.7042 18.8741 36.4137L18.8742 23.5808C18.8742 23.29 19.1098 23.0545 19.4004 23.0545C19.691 23.0544 19.9265 23.2901 19.9265 23.5808V36.4135C19.9265 36.7039 19.691 36.9398 19.4004 36.9395ZM19.4004 48.3001H13.6099C13.3192 48.3001 13.0835 48.0647 13.0835 47.774L13.0836 41.3354C13.0836 41.0446 13.3192 40.8093 13.6099 40.8093C13.9005 40.8091 14.1361 41.0449 14.1361 41.3356V47.2475H18.8742V41.3354C18.8742 41.0446 19.1098 40.8093 19.4004 40.8093C19.691 40.8091 19.9265 41.0449 19.9265 41.3356V47.7739C19.9265 48.0644 19.691 48.3004 19.4004 48.3001Z" fill="white"/>
<path fill-rule="evenodd" clip-rule="evenodd" d="M28.8969 19.185C28.6062 19.185 28.3706 18.9494 28.3706 18.6589V15.3333L26.0016 12.9644L23.6327 15.3333V18.6589C23.6327 18.9493 23.397 19.185 23.1065 19.185C22.8158 19.185 22.5801 18.9494 22.5801 18.6589V15.1153C22.5801 14.9759 22.6356 14.8421 22.7343 14.7434L25.6295 11.8478C25.8268 11.6505 26.1764 11.6506 26.3736 11.8481L29.2689 14.7431C29.3679 14.8418 29.4231 14.9759 29.4231 15.1154V18.6589C29.4231 18.9493 29.1875 19.185 28.8969 19.185V19.185ZM23.1065 36.9395C22.8158 36.9395 22.5801 36.7042 22.5801 36.4137V23.5808C22.5801 23.29 22.8158 23.0545 23.1065 23.0545C23.397 23.0544 23.6326 23.2901 23.6326 23.5808L23.6327 36.4135C23.6327 36.7039 23.397 36.9398 23.1065 36.9395ZM28.8969 36.9395C28.6062 36.9395 28.3706 36.7042 28.3706 36.4137V23.5808C28.3706 23.29 28.6062 23.0545 28.8969 23.0545C29.1875 23.0544 29.4231 23.2901 29.4231 23.5808V36.4135C29.4231 36.7039 29.1875 36.9398 28.8969 36.9395ZM28.8969 48.3001H23.1065C22.8158 48.3001 22.5801 48.0647 22.5801 47.774V41.3354C22.5801 41.0446 22.8158 40.8093 23.1065 40.8093C23.397 40.8091 23.6326 41.0449 23.6326 41.3356L23.6327 47.2475H28.3706V41.3354C28.3706 41.0446 28.6062 40.8093 28.8969 40.8093C29.1875 40.8091 29.4231 41.0449 29.4231 41.3356V47.7739C29.4231 48.0644 29.1875 48.3004 28.8969 48.3001V48.3001Z" fill="white"/>
<path fill-rule="evenodd" clip-rule="evenodd" d="M38.3935 19.185C38.1028 19.185 37.8671 18.9494 37.8671 18.6589V15.3333L35.4982 12.9644L33.129 15.3333V18.6589C33.129 18.9493 32.8934 19.185 32.6029 19.185C32.3122 19.185 32.0767 18.9494 32.0767 18.6589V15.1153C32.0767 14.9759 32.132 14.8421 32.2307 14.7434L35.126 11.8478C35.3235 11.6505 35.673 11.6506 35.8704 11.8481L38.7655 14.7431C38.8643 14.8418 38.9197 14.9759 38.9197 15.1154V18.6589C38.9197 18.9493 38.6841 19.185 38.3935 19.185V19.185ZM32.6029 36.9395C32.3122 36.9395 32.0767 36.7042 32.0767 36.4137V23.5808C32.0767 23.29 32.3122 23.0545 32.6029 23.0545C32.8936 23.0544 33.129 23.2901 33.129 23.5808V36.4135C33.129 36.7039 32.8934 36.9398 32.6029 36.9395ZM38.3935 36.9395C38.1028 36.9395 37.8671 36.7042 37.8671 36.4137V23.5808C37.8671 23.29 38.1028 23.0545 38.3933 23.0545C38.6841 23.0544 38.9197 23.2901 38.9197 23.5808V36.4135C38.9197 36.7039 38.6841 36.9398 38.3935 36.9395ZM38.3935 48.3001H32.6029C32.3122 48.3001 32.0767 48.0647 32.0767 47.774V41.3354C32.0767 41.0446 32.3122 40.8093 32.6029 40.8093C32.8936 40.8091 33.129 41.0449 33.129 41.3356V47.2475H37.8671V41.3354C37.8671 41.0446 38.1028 40.8093 38.3933 40.8093C38.6841 40.8091 38.9197 41.0449 38.9197 41.3356V47.7739C38.9197 48.0644 38.6841 48.3004 38.3935 48.3001Z" fill="white"/>
<path fill-rule="evenodd" clip-rule="evenodd" d="M47.8898 19.185C47.5993 19.185 47.3634 18.9494 47.3634 18.6589L47.3636 15.3333L44.9947 12.9644L42.6256 15.3333V18.6589C42.6256 18.9493 42.39 19.185 42.0994 19.185C41.8087 19.185 41.573 18.9494 41.573 18.6589V15.1153C41.573 14.9759 41.6285 14.8421 41.7272 14.7434L44.6223 11.8478C44.8198 11.6505 45.1693 11.6506 45.3667 11.8481L48.262 14.7431C48.3607 14.8418 48.416 14.9759 48.416 15.1154V18.6589C48.416 18.9493 48.1805 19.185 47.8898 19.185ZM42.0994 36.9395C41.8087 36.9395 41.573 36.7042 41.573 36.4137V23.5808C41.573 23.29 41.8087 23.0545 42.0994 23.0545C42.39 23.0544 42.6256 23.2901 42.6256 23.5808V36.4135C42.6256 36.7039 42.39 36.9398 42.0994 36.9395ZM47.8898 36.9395C47.5993 36.9395 47.3634 36.7042 47.3634 36.4137L47.3636 23.5808C47.3636 23.29 47.5991 23.0545 47.8898 23.0545C48.1805 23.0544 48.416 23.2901 48.416 23.5808V36.4135C48.416 36.7039 48.1805 36.9398 47.8898 36.9395V36.9395ZM47.8898 48.3001H42.0994C41.8087 48.3001 41.573 48.0647 41.573 47.774V41.3354C41.573 41.0446 41.8087 40.8093 42.0994 40.8093C42.39 40.8091 42.6256 41.0449 42.6256 41.3356V47.2475H47.3636V41.3354C47.3636 41.0446 47.5991 40.8093 47.8898 40.8093C48.1805 40.8091 48.416 41.0449 48.416 41.3356V47.7739C48.416 48.0644 48.1805 48.3004 47.8898 48.3001Z" fill="white"/>
<path fill-rule="evenodd" clip-rule="evenodd" d="M57.3863 19.185C57.0956 19.185 56.86 18.9494 56.86 18.6589V15.3333L54.491 12.9644L52.122 15.3333V18.6589C52.122 18.9493 51.8864 19.185 51.5957 19.185C51.3052 19.185 51.0693 18.9494 51.0693 18.6589V15.1153C51.0693 14.9759 51.1248 14.8421 51.2235 14.7434L54.1188 11.8478C54.3162 11.6505 54.6657 11.6506 54.8632 11.8481L57.7583 14.7431C57.857 14.8418 57.9125 14.9759 57.9125 15.1154V18.6589C57.9125 18.9493 57.6768 19.185 57.3863 19.185V19.185ZM51.5957 36.9395C51.3052 36.9395 51.0693 36.7042 51.0693 36.4137V23.5808C51.0693 23.29 51.3052 23.0545 51.5957 23.0545C51.8864 23.0544 52.122 23.2901 52.122 23.5808V36.4135C52.122 36.7039 51.8864 36.9398 51.5957 36.9395ZM57.3863 36.9395C57.0956 36.9395 56.86 36.7042 56.86 36.4137V23.5808C56.86 23.29 57.0956 23.0545 57.3863 23.0545C57.6768 23.0544 57.9125 23.2901 57.9125 23.5808V36.4135C57.9125 36.7039 57.6768 36.9398 57.3863 36.9395ZM57.3863 48.3001H51.5957C51.3052 48.3001 51.0693 48.0647 51.0693 47.774V41.3354C51.0693 41.0446 51.3052 40.8093 51.5957 40.8093C51.8864 40.8091 52.122 41.0449 52.122 41.3356V47.2475H56.86V41.3354C56.86 41.0446 57.0956 40.8093 57.3863 40.8093C57.6768 40.8091 57.9125 41.0449 57.9125 41.3356V47.7739C57.9125 48.0644 57.6768 48.3004 57.3863 48.3001V48.3001Z" fill="white"/>
<path fill-rule="evenodd" clip-rule="evenodd" d="M1.80237 23.0544H59.6974V19.185H1.80237V23.0544V23.0544ZM60.2237 24.1069H1.27613C0.98547 24.1069 0.749756 23.8713 0.749756 23.5808V18.6589C0.749756 18.3681 0.98547 18.1327 1.27613 18.1327L60.2237 18.1324C60.5143 18.1324 60.75 18.3682 60.75 18.6589V23.5808C60.75 23.8713 60.5143 24.1072 60.2237 24.1069Z" fill="white"/>
<path fill-rule="evenodd" clip-rule="evenodd" d="M1.80237 40.8091H59.6974V36.9395H1.80237V40.8091V40.8091ZM60.2237 41.8615H1.27613C0.98547 41.8615 0.749756 41.6261 0.749756 41.3356V36.4136C0.749756 36.123 0.98547 35.8875 1.27613 35.8875H60.2237C60.5143 35.8875 60.75 36.123 60.75 36.4137V41.3354C60.75 41.626 60.5143 41.8618 60.2237 41.8615Z" fill="white"/>
<path fill-rule="evenodd" clip-rule="evenodd" d="M54.491 20.6265C54.2189 20.6265 53.9977 20.8479 53.9977 21.1198C53.9977 21.3917 54.2189 21.613 54.491 21.613C54.763 21.6127 54.9843 21.3918 54.9843 21.1198C54.9843 20.8477 54.7628 20.6265 54.491 20.6265ZM54.491 22.6655C53.6386 22.6655 52.9451 21.972 52.9451 21.1198C52.9451 20.2674 53.6386 19.5741 54.491 19.5741C55.3433 19.5738 56.0368 20.2674 56.0368 21.1198C56.0369 21.972 55.3433 22.6655 54.491 22.6655Z" fill="white"/>
<path fill-rule="evenodd" clip-rule="evenodd" d="M44.9946 20.6265C44.7225 20.6265 44.5013 20.8479 44.5013 21.1198C44.5013 21.3917 44.7225 21.613 44.9946 21.613C45.2665 21.6127 45.4877 21.3918 45.4877 21.1198C45.4878 20.8477 45.2665 20.6265 44.9946 20.6265ZM44.9946 22.6655C44.1423 22.6655 43.4487 21.972 43.4487 21.1198C43.4487 20.2674 44.1423 19.5741 44.9946 19.5741C45.8468 19.5738 46.5403 20.2674 46.5403 21.1198C46.5403 21.972 45.8468 22.6655 44.9946 22.6655Z" fill="white"/>
<path fill-rule="evenodd" clip-rule="evenodd" d="M35.498 20.6265C35.2262 20.6265 35.0049 20.8479 35.0049 21.1198C35.0049 21.3917 35.2262 21.613 35.498 21.613C35.7701 21.6127 35.9913 21.3918 35.9913 21.1198C35.9913 20.8477 35.7701 20.6265 35.498 20.6265ZM35.498 22.6655C34.6457 22.6655 33.9524 21.972 33.9524 21.1198C33.9524 20.2674 34.6457 19.5741 35.498 19.5741C36.3505 19.5738 37.0439 20.2674 37.0439 21.1198C37.0439 21.972 36.3504 22.6655 35.498 22.6655Z" fill="white"/>
<path fill-rule="evenodd" clip-rule="evenodd" d="M26.0017 20.6265C25.7297 20.6265 25.5084 20.8479 25.5084 21.1197C25.5084 21.3917 25.7297 21.613 26.0017 21.613C26.2737 21.6127 26.495 21.3918 26.495 21.1197C26.495 20.8477 26.2737 20.6265 26.0017 20.6265ZM26.0017 22.6655C25.1494 22.6655 24.4561 21.972 24.4561 21.1197C24.4561 20.2674 25.1494 19.5741 26.0017 19.5741C26.854 19.5738 27.5473 20.2674 27.5473 21.1197C27.5473 21.972 26.854 22.6655 26.0017 22.6655Z" fill="white"/>
<path fill-rule="evenodd" clip-rule="evenodd" d="M16.5052 20.6265C16.2333 20.6265 16.0119 20.8479 16.0119 21.1197C16.0119 21.3917 16.2333 21.613 16.5052 21.613C16.7771 21.6127 16.9984 21.3918 16.9984 21.1197C16.9984 20.8477 16.7771 20.6265 16.5052 20.6265ZM16.5052 22.6655C15.6529 22.6655 14.9595 21.972 14.9595 21.1197C14.9595 20.2674 15.6529 19.5741 16.5052 19.5741C17.3576 19.5738 18.0509 20.2674 18.0509 21.1197C18.0509 21.972 17.3576 22.6655 16.5052 22.6655Z" fill="white"/>
<path fill-rule="evenodd" clip-rule="evenodd" d="M7.00866 20.6265C6.73669 20.6265 6.51537 20.8479 6.51537 21.1197C6.51537 21.3917 6.73669 21.613 7.00866 21.613C7.28064 21.6127 7.50196 21.3918 7.50196 21.1197C7.50196 20.8477 7.28064 20.6265 7.00866 20.6265ZM7.00866 22.6655C6.15633 22.6655 5.46289 21.972 5.46289 21.1197C5.46289 20.2674 6.15633 19.5741 7.00866 19.5741C7.861 19.5738 8.55444 20.2674 8.55444 21.1197C8.55444 21.972 7.861 22.6655 7.00866 22.6655V22.6655Z" fill="white"/>
<path fill-rule="evenodd" clip-rule="evenodd" d="M54.491 38.3812C54.2189 38.3812 53.9977 38.6025 53.9977 38.8746C53.9977 39.1463 54.2189 39.3679 54.491 39.3679C54.763 39.3676 54.9843 39.1466 54.9843 38.8746C54.9843 38.6022 54.7628 38.3813 54.491 38.3812ZM54.491 40.4201C53.6386 40.4201 52.9451 39.727 52.9451 38.8746C52.9451 38.0223 53.6386 37.3289 54.491 37.3289C55.3433 37.3287 56.0368 38.0223 56.0368 38.8746C56.0369 39.727 55.3433 40.4204 54.491 40.4201V40.4201Z" fill="white"/>
<path fill-rule="evenodd" clip-rule="evenodd" d="M44.9946 38.3812C44.7225 38.3812 44.5013 38.6025 44.5013 38.8746C44.5013 39.1463 44.7225 39.3679 44.9946 39.3679C45.2665 39.3676 45.4877 39.1466 45.4877 38.8746C45.4878 38.6022 45.2665 38.3813 44.9946 38.3812ZM44.9946 40.4201C44.1423 40.4201 43.4487 39.727 43.4487 38.8746C43.4487 38.0223 44.1423 37.3289 44.9946 37.3289C45.8468 37.3287 46.5403 38.0223 46.5403 38.8746C46.5403 39.727 45.8468 40.4204 44.9946 40.4201V40.4201Z" fill="white"/>
<path fill-rule="evenodd" clip-rule="evenodd" d="M35.498 38.3812C35.2262 38.3812 35.0049 38.6025 35.0049 38.8746C35.0049 39.1463 35.2262 39.3679 35.498 39.3679C35.7701 39.3676 35.9913 39.1466 35.9913 38.8746C35.9913 38.6022 35.7701 38.3813 35.498 38.3812ZM35.498 40.4201C34.6457 40.4201 33.9524 39.727 33.9524 38.8746C33.9524 38.0223 34.6457 37.3289 35.498 37.3289C36.3505 37.3287 37.0439 38.0223 37.0439 38.8746C37.0439 39.727 36.3504 40.4204 35.498 40.4201V40.4201Z" fill="white"/>
<path fill-rule="evenodd" clip-rule="evenodd" d="M26.0017 38.3812C25.7297 38.3812 25.5084 38.6025 25.5084 38.8746C25.5084 39.1463 25.7297 39.3679 26.0017 39.3679C26.2737 39.3676 26.495 39.1466 26.495 38.8746C26.495 38.6022 26.2737 38.3813 26.0017 38.3812ZM26.0017 40.4201C25.1494 40.4201 24.4561 39.727 24.4561 38.8746C24.4561 38.0223 25.1494 37.3289 26.0017 37.3289C26.854 37.3287 27.5473 38.0223 27.5473 38.8746C27.5473 39.727 26.854 40.4204 26.0017 40.4201V40.4201Z" fill="white"/>
<path fill-rule="evenodd" clip-rule="evenodd" d="M16.5052 38.3812C16.2333 38.3812 16.0119 38.6025 16.0119 38.8746C16.0119 39.1463 16.2333 39.3679 16.5052 39.3679C16.7771 39.3676 16.9984 39.1466 16.9984 38.8746C16.9984 38.6022 16.7771 38.3813 16.5052 38.3812ZM16.5052 40.4201C15.6529 40.4201 14.9595 39.727 14.9595 38.8746C14.9595 38.0223 15.6529 37.3289 16.5052 37.3289C17.3576 37.3287 18.0509 38.0223 18.0509 38.8746C18.0509 39.727 17.3576 40.4204 16.5052 40.4201V40.4201Z" fill="white"/>
<path fill-rule="evenodd" clip-rule="evenodd" d="M7.00866 38.3812C6.73669 38.3812 6.51537 38.6025 6.51537 38.8746C6.51537 39.1463 6.73669 39.3679 7.00866 39.3679C7.28064 39.3676 7.50196 39.1466 7.50196 38.8746C7.50196 38.6022 7.28064 38.3813 7.00866 38.3812ZM7.00866 40.4201C6.15633 40.4201 5.46289 39.727 5.46289 38.8746C5.46289 38.0223 6.15633 37.3289 7.00866 37.3289C7.861 37.3287 8.55444 38.0223 8.55444 38.8746C8.55444 39.727 7.861 40.4204 7.00866 40.4201V40.4201Z" fill="white"/>
</g>
<defs>
<clipPath id="clip0_59_3882">
<rect width="60" height="60" fill="white" transform="translate(0.75)"/>
</clipPath>
</defs>
</svg>
