<svg width="61" height="61" viewBox="0 0 61 61" fill="none" xmlns="http://www.w3.org/2000/svg">
<path d="M43.7778 8.94435C43.4529 8.74939 42.998 8.61941 42.608 8.61941C42.4131 8.61941 42.1531 8.61942 41.9582 8.6844C41.3733 8.87937 40.8534 9.33428 40.5284 9.85418C40.0085 10.959 40.3985 12.2587 41.4383 12.8436C42.3481 13.3635 43.2579 14.0134 44.1028 14.7283L44.3627 14.9882L36.3042 21.617L36.1093 21.357C35.6543 20.8371 35.1994 20.3822 34.7445 19.9923C34.6145 19.9273 34.5496 19.8623 34.4196 19.8623C34.2246 19.8623 34.0946 19.9273 33.9647 20.0573C33.8997 20.1872 33.8347 20.3172 33.8347 20.4472C33.8347 20.5772 33.8997 20.7072 34.0297 20.8371C36.0443 22.4618 37.1491 24.8014 37.1491 27.4009C37.1491 32.015 33.3798 35.7843 28.7656 35.7843C24.1515 35.7843 20.3822 32.015 20.3822 27.4009C20.3822 22.7868 24.1515 19.0175 28.7656 19.0175C29.1556 19.0175 29.6105 19.0175 30.0004 19.0825H30.0654C30.3253 19.0825 30.5853 18.8875 30.5853 18.6275C30.6503 18.3026 30.3903 18.0426 30.1304 17.9777C29.6755 17.9127 29.2206 17.8477 28.7656 17.8477C28.5057 17.8477 28.1807 17.8477 27.9208 17.9127H27.6608L25.1913 10.764L25.5162 10.699C26.751 10.3741 28.0508 10.1791 29.2855 10.0491C30.4553 9.98416 31.4301 8.94435 31.4301 7.77457C31.4301 7.1247 31.1702 6.5398 30.7153 6.08489C30.3253 5.69496 29.7405 5.5 29.1556 5.5C29.0906 5.5 29.0256 5.5 28.9606 5.5C15.8331 6.47482 5.5 17.5877 5.5 30.7803C5.5 37.7989 8.42445 44.5577 13.5585 49.3018C18.2376 53.656 24.4115 56.1255 30.7803 56.1255C31.3652 56.1255 32.015 56.1255 32.6649 56.0605C45.0776 55.1507 55.1507 45.1426 56.1255 32.7299C56.8404 22.9817 52.0963 13.8834 43.7778 8.94435ZM37.0841 22.7868L36.9541 22.5268L45.2076 15.8331L45.4025 16.028C47.2222 17.8477 48.7169 19.9923 49.7567 22.3968L49.9517 22.7868L37.7989 24.4115L37.734 24.1515C37.539 23.6966 37.344 23.2417 37.0841 22.7868ZM38.1239 25.7762L38.0589 25.4513L50.3416 23.7616L50.4066 24.0215C51.1214 26.1661 51.5114 28.4407 51.5114 30.7153C51.5114 30.8453 51.5114 31.5601 51.5114 31.5601L38.1239 28.8956L38.1889 28.6357C38.2539 28.1807 38.2539 27.7908 38.2539 27.4009C38.2539 26.881 38.1889 26.4261 38.1239 25.7762ZM36.8241 32.405C37.279 31.6901 37.604 30.9752 37.7989 30.2604L37.8639 30.0004L51.4464 32.7299V32.9899C51.1214 35.8493 50.2116 38.7088 48.7169 41.2433L48.5219 41.5682L36.6942 32.6649L36.8241 32.405ZM34.0946 35.2644C34.6795 34.8745 35.2644 34.3546 35.8493 33.7697L36.0443 33.5747L47.937 42.4781L47.7421 42.738C46.8972 43.9078 45.9874 44.9476 44.9476 45.9224C43.9078 46.8972 42.803 47.7421 41.6332 48.4569L41.3733 48.6519L33.8347 35.3944L34.0946 35.2644ZM30.1954 36.7591C31.0402 36.6292 31.8201 36.3692 32.5999 36.0443L32.8599 35.9143L40.3985 49.1068L40.1385 49.2368C37.474 50.6015 34.6145 51.3164 31.6251 51.4464H31.3002L29.8704 36.8241L30.1954 36.7591ZM25.9712 36.4992C26.816 36.7591 27.6608 36.8891 28.5057 36.8891H28.7656L30.1304 51.4464H29.8054C29.8054 51.4464 29.4155 51.4464 29.2855 51.4464C26.4911 51.2514 23.8266 50.4716 21.292 49.1718L21.0321 49.0418L25.5812 36.3692L25.9712 36.4992ZM22.3318 34.3546C22.9817 34.9395 23.6966 35.4594 24.4764 35.8493L24.7364 35.9793L20.1872 48.5219L19.8623 48.327C17.4578 46.8323 15.4431 44.9476 13.8834 42.673L13.7535 42.4781L22.1369 34.2246L22.3318 34.3546ZM21.1621 33.1198L21.357 33.3148L13.1036 41.4383L12.9086 41.1133C11.4789 38.5788 10.569 35.8493 10.2441 32.9249V32.6649L19.6673 30.0004L19.7323 30.2604C20.0573 31.3002 20.5122 32.21 21.1621 33.1198ZM19.3424 28.6357L19.4074 28.8956L10.1141 31.4951V31.1052C10.0491 28.7007 10.4391 26.2961 11.2189 24.0215L11.2839 23.7616L19.6024 24.9314L19.5374 25.2563C19.3424 25.9712 19.2774 26.686 19.2774 27.4009C19.2774 27.7908 19.2774 28.1807 19.3424 28.6357ZM21.8119 20.9021C21.0321 21.747 20.4472 22.6568 19.9923 23.6316L19.9273 23.8266L11.6738 22.7218L11.8688 22.3318C13.0386 19.7323 14.6633 17.3928 16.8079 15.4431L17.0678 15.2482L22.0719 20.6422L21.8119 20.9021ZM26.5561 18.1726L26.2311 18.2376C25.0613 18.5626 24.0215 19.0825 23.0467 19.7973L22.8517 19.9923L17.8477 14.5983L18.1076 14.4033C19.8623 13.0386 21.747 11.9988 23.8266 11.2189L24.1515 11.089L26.5561 18.1726ZM55.0207 32.5999C54.1109 44.4927 44.4927 54.1109 32.5999 54.9557C32.015 55.0207 31.4301 55.0207 30.7803 55.0207C24.6714 55.0207 18.7575 52.6812 14.2734 48.5219C9.39927 43.9728 6.53981 37.474 6.53981 30.7803C6.53981 18.1726 16.418 7.51462 28.9606 6.60479H29.0256C29.3505 6.60479 29.6105 6.73477 29.8054 6.92973C30.0654 7.18968 30.1954 7.51462 30.1954 7.83956C30.1954 8.48944 29.7405 9.00934 29.0906 9.00934C27.4659 9.13932 25.8412 9.46426 24.2165 9.91917H24.1515C21.422 10.764 18.8875 12.1937 16.6779 14.0784H16.6129L16.5479 14.1434H16.4829C13.7535 16.4829 11.6738 19.4724 10.3091 22.8517C10.2441 22.9167 10.2441 22.9817 10.2441 23.0467V23.1117V23.1767C9.13932 26.1011 8.74939 29.1556 8.94435 32.21C9.65922 42.998 18.3676 51.7063 29.1556 52.4212C29.6755 52.4862 30.1304 52.4862 30.7153 52.4862H30.7803C36.3042 52.4862 41.5682 50.4066 45.5975 46.6373C46.8323 45.4675 47.937 44.1678 48.9768 42.673V42.608C50.9265 39.5536 52.1613 36.0443 52.4212 32.405C52.4862 31.7551 52.4862 31.2352 52.4862 30.7803C52.4862 28.2457 52.0313 25.7112 51.1214 23.3067V23.2417V23.1767C51.1214 23.1117 51.0565 23.0467 50.9915 22.9167C49.8217 19.8623 47.937 17.0678 45.4675 14.7933H45.4025C44.2977 13.7535 43.063 12.8436 41.7632 12.0638C41.1783 11.7388 40.9833 11.089 41.3083 10.5041C41.4383 10.1791 41.6982 9.98416 42.0232 9.85418C42.1531 9.7892 42.2181 9.7892 42.3481 9.7892C42.5431 9.7892 42.738 9.85418 42.933 9.98416C51.1864 14.5983 55.6706 23.3067 55.0207 32.5999Z" fill="white"/>
</svg>
