<svg width="61" height="60" viewBox="0 0 61 60" fill="none" xmlns="http://www.w3.org/2000/svg">
<g clip-path="url(#clip0_59_3886)">
<path fill-rule="evenodd" clip-rule="evenodd" d="M34.9652 28.2681C38.0877 28.2681 40.5672 28.2861 42.418 28.3006C44.4254 28.315 45.9287 28.3258 46.8398 28.3017C46.8267 28.2945 46.8122 28.2873 46.7989 28.2801C44.7799 27.2597 40.6442 25.1672 39.8605 20.8573H28.4189C27.6363 25.1672 23.4993 27.2597 21.4802 28.2801C21.4671 28.2873 21.4538 28.2946 21.4394 28.3017C22.3516 28.3258 23.8539 28.315 25.8623 28.3006C27.8731 28.2849 30.6276 28.2645 34.1395 28.2681H34.9652ZM45.3602 29.2392C44.5828 29.2392 43.6151 29.232 42.4108 29.2224C40.4015 29.208 37.6491 29.1875 34.1408 29.1911C34.1397 29.1911 34.1395 29.1911 34.1395 29.1911C30.6301 29.1875 27.8778 29.208 25.8682 29.2224C23.782 29.2392 22.402 29.2488 21.5005 29.2248C20.4636 29.1983 19.8709 29.1587 19.7531 28.6719C19.6342 28.1803 20.0824 27.9532 21.0643 27.4568C23.0031 26.4761 27.0389 24.4353 27.5653 20.337C27.5953 20.1061 27.7913 19.9343 28.0232 19.9343H40.256C40.4891 19.9343 40.685 20.1061 40.7138 20.337C41.2414 24.4353 45.2762 26.4761 47.2159 27.4568C48.1981 27.9532 48.6462 28.1803 48.5272 28.6719C48.4084 29.1587 47.8169 29.1983 46.7796 29.2248C46.3976 29.2356 45.9299 29.2392 45.3602 29.2392V29.2392Z" fill="white"/>
<path fill-rule="evenodd" clip-rule="evenodd" d="M41.6154 52.7275C41.5938 52.7275 41.5732 52.7262 41.5516 52.7226C41.2993 52.6879 41.1224 52.4559 41.1574 52.2034L44.3892 28.714C44.424 28.4616 44.6571 28.2849 44.9096 28.3198C45.162 28.3546 45.3387 28.5865 45.3038 28.8402L42.0719 52.3284C42.0395 52.5604 41.8424 52.7275 41.6154 52.7275V52.7275ZM26.6652 52.7275C26.438 52.7275 26.2396 52.5604 26.2083 52.3284L22.9766 28.8402C22.9417 28.5865 23.1171 28.3546 23.3708 28.3198C23.6221 28.2849 23.8551 28.4616 23.89 28.714L27.123 52.2034C27.1578 52.4559 26.9812 52.6879 26.7288 52.7226C26.7075 52.7262 26.6856 52.7275 26.6652 52.7275V52.7275Z" fill="white"/>
<path fill-rule="evenodd" clip-rule="evenodd" d="M26.1701 52.7275C25.9273 52.7275 25.7301 52.9246 25.7301 53.1673C25.7301 53.409 25.9273 53.6072 26.1701 53.6072H42.1107C42.3522 53.6072 42.549 53.409 42.549 53.1673C42.5493 52.9246 42.3521 52.7275 42.1104 52.7275H26.1701ZM42.1107 54.5303H26.1701C25.4189 54.5303 24.8071 53.9185 24.8071 53.1673C24.8071 52.4162 25.4188 51.8044 26.1701 51.8044H42.1107C42.8616 51.8044 43.4722 52.4162 43.4722 53.1673C43.4722 53.9185 42.8616 54.5303 42.1107 54.5303Z" fill="white"/>
<path fill-rule="evenodd" clip-rule="evenodd" d="M34.1398 60C30.8696 60 28.2085 57.339 28.2085 54.0688C28.2086 53.814 28.4151 53.6072 28.67 53.6072C28.9249 53.6072 29.1314 53.814 29.1314 54.0688C29.1316 56.8294 31.3778 59.0771 34.1397 59.0771C36.9017 59.0771 39.1492 56.8294 39.1492 54.0688C39.1493 53.814 39.3558 53.6072 39.6106 53.6072C39.8656 53.6072 40.0721 53.814 40.0721 54.0688C40.0722 57.339 37.4112 60 34.1398 60V60Z" fill="white"/>
<path fill-rule="evenodd" clip-rule="evenodd" d="M32.9715 20.8573C32.7168 20.8573 32.5099 20.6506 32.5099 20.3958L32.5102 7.53578C32.5102 5.64758 31.6242 4.25101 30.016 3.60436C29.455 3.37958 28.8238 3.26068 28.188 3.26068C27.5537 3.26068 26.9213 3.37972 26.3611 3.60436C23.6138 4.70888 23.7279 8.06216 23.83 11.02C23.848 11.5548 23.8649 12.0596 23.8649 12.5415C23.8652 12.6642 23.8167 12.7807 23.7302 12.8672C23.6439 12.9537 23.5259 13.003 23.4033 13.003L16.7152 13.0007C16.4602 13.0007 16.2534 12.7939 16.2534 12.5392C16.2536 12.2844 16.4602 12.0776 16.7149 12.0776L22.937 12.0799C22.931 11.7507 22.919 11.4082 22.907 11.0511C22.8012 7.95157 22.669 4.0935 26.0162 2.7487C26.6859 2.47935 27.4369 2.33762 28.188 2.33762C28.9404 2.33762 29.6916 2.47949 30.3598 2.7487C32.3131 3.53349 33.433 5.27857 33.433 7.53578L33.4331 20.3958C33.4331 20.6506 33.2263 20.8573 32.9715 20.8573V20.8573ZM35.3094 20.8573C35.0543 20.8573 34.8477 20.6506 34.8477 20.3958L34.8478 7.53578C34.8478 4.67164 33.4029 2.44946 30.8862 1.4374C30.0474 1.10092 29.1147 0.923062 28.188 0.923062C27.2626 0.923062 26.3299 1.10092 25.491 1.4374C21.5022 3.04075 21.514 5.8844 21.5296 9.48405C21.5298 9.69789 21.5309 9.91188 21.5309 10.1282C21.5309 10.383 21.3253 10.5897 21.0705 10.5897L16.7163 10.5956L16.7161 10.5958C16.4614 10.5956 16.2547 10.389 16.2547 10.1342C16.2547 9.87935 16.4602 9.6727 16.7149 9.6727L20.6069 9.66786C20.6069 9.60779 20.6066 9.54772 20.6066 9.48765C20.5911 5.85187 20.5765 2.41818 25.1473 0.581741C26.0935 0.200696 27.1448 0 28.188 0C29.2314 0 30.2829 0.200696 31.2299 0.581741C34.0738 1.72349 35.7706 4.32312 35.7706 7.53578L35.7707 20.3958C35.7707 20.6506 35.5639 20.8573 35.3094 20.8573V20.8573Z" fill="white"/>
<path fill-rule="evenodd" clip-rule="evenodd" d="M12.4158 16.2601C12.1612 16.2601 11.9541 16.0534 11.9541 15.7986C11.9542 15.5438 12.1609 15.3372 12.4157 15.3372C14.6225 15.3372 16.418 13.5416 16.418 11.3349C16.4181 9.1282 14.6224 7.33259 12.4157 7.33259C12.1612 7.33259 11.9541 7.12595 11.9541 6.87113C11.9542 6.61632 12.1609 6.40953 12.4157 6.40953C15.1309 6.40953 17.3409 8.61857 17.3409 11.3349C17.3411 14.0511 15.1308 16.2602 12.4158 16.2601V16.2601Z" fill="white"/>
<path fill-rule="evenodd" clip-rule="evenodd" d="M12.4158 18.1735C12.1612 18.1735 11.9541 17.9668 11.9541 17.712L11.9542 5.06473C11.9542 4.80867 12.1609 4.60313 12.4157 4.60313C12.6705 4.60313 12.8772 4.80867 12.8772 5.06473V17.712C12.8772 17.9668 12.6705 18.1735 12.4158 18.1735V18.1735Z" fill="white"/>
<path fill-rule="evenodd" clip-rule="evenodd" d="M34.1398 52.7275C33.885 52.7275 33.6782 52.5207 33.6782 52.266L33.6784 28.7297C33.6784 28.4749 33.8849 28.2681 34.1397 28.2681C34.3945 28.2681 34.6011 28.4749 34.6011 28.7297L34.6014 52.266C34.6014 52.5207 34.3945 52.7275 34.1398 52.7275Z" fill="white"/>
</g>
<defs>
<clipPath id="clip0_59_3886">
<rect width="60" height="60" fill="white" transform="translate(0.25)"/>
</clipPath>
</defs>
</svg>
