<svg width="7" height="6" viewBox="0 0 7 6" fill="none" xmlns="http://www.w3.org/2000/svg">
<path d="M5.54183 0.916518C5.63805 0.821143 5.76793 0.767466 5.90341 0.767092C6.03888 0.766718 6.16906 0.819678 6.26581 0.914521C6.36255 1.00936 6.41807 1.13847 6.42038 1.27393C6.42269 1.40938 6.3716 1.54031 6.27814 1.63839L3.53364 5.06902C3.48647 5.11982 3.42955 5.16059 3.36626 5.1889C3.30297 5.2172 3.23463 5.23244 3.16532 5.23373C3.096 5.23501 3.02714 5.2223 2.96285 5.19637C2.89856 5.17043 2.84016 5.13179 2.79114 5.08277L0.972706 3.26364C0.922046 3.21644 0.881413 3.15951 0.853231 3.09626C0.825049 3.03301 0.809896 2.96474 0.808674 2.8955C0.807452 2.82627 0.820188 2.7575 0.846122 2.6933C0.872055 2.62909 0.910654 2.57077 0.959617 2.5218C1.00858 2.47284 1.0669 2.43424 1.13111 2.40831C1.19531 2.38238 1.26408 2.36964 1.33332 2.37086C1.40255 2.37208 1.47083 2.38724 1.53408 2.41542C1.59733 2.4436 1.65425 2.48423 1.70146 2.53489L3.14108 3.97383L5.52877 0.931644C5.53303 0.926317 5.53762 0.921265 5.54252 0.916518H5.54183Z" fill="white"/>
</svg>
