<svg width="20" height="20" viewBox="0 0 20 20" fill="none" xmlns="http://www.w3.org/2000/svg">
<g id="Iconly">
<g id="Message">
<path id="Fill 1" fill-rule="evenodd" clip-rule="evenodd" d="M9.81346 11.2205C9.25596 11.2205 8.70012 11.0363 8.23512 10.668L4.49762 7.65466C4.22846 7.438 4.18679 7.04383 4.40262 6.7755C4.62012 6.508 5.01346 6.4655 5.28179 6.68133L9.01596 9.69133C9.48512 10.063 10.146 10.063 10.6185 9.688L14.3151 6.683C14.5835 6.46383 14.9768 6.5055 15.1951 6.77383C15.4126 7.04133 15.3718 7.43466 15.1043 7.653L11.401 10.663C10.9326 11.0347 10.3726 11.2205 9.81346 11.2205Z" fill="#BFBFBF"/>
<g id="Group 5">
<mask id="mask0_40_2714" style="mask-type:luminance" maskUnits="userSpaceOnUse" x="0" y="1" width="19" height="17">
<path id="Clip 4" fill-rule="evenodd" clip-rule="evenodd" d="M0.833008 1.6665H18.7496V17.9165H0.833008V1.6665Z" fill="white"/>
</mask>
<g mask="url(#mask0_40_2714)">
<path id="Fill 3" fill-rule="evenodd" clip-rule="evenodd" d="M5.69876 16.6665H13.8821C13.8838 16.6648 13.8904 16.6665 13.8954 16.6665C14.8463 16.6665 15.6896 16.3265 16.3363 15.6807C17.0871 14.9332 17.4996 13.859 17.4996 12.6565V6.93317C17.4996 4.60567 15.9779 2.9165 13.8821 2.9165H5.70042C3.60459 2.9165 2.08292 4.60567 2.08292 6.93317V12.6565C2.08292 13.859 2.49626 14.9332 3.24626 15.6807C3.89292 16.3265 4.73709 16.6665 5.68709 16.6665H5.69876ZM5.68459 17.9165C4.39876 17.9165 3.25042 17.4498 2.36376 16.5665C1.37626 15.5815 0.832924 14.1932 0.832924 12.6565V6.93317C0.832924 3.93067 2.92542 1.6665 5.70042 1.6665H13.8821C16.6571 1.6665 18.7496 3.93067 18.7496 6.93317V12.6565C18.7496 14.1932 18.2063 15.5815 17.2188 16.5665C16.3329 17.449 15.1838 17.9165 13.8954 17.9165H13.8821H5.70042H5.68459Z" fill="#BFBFBF"/>
</g>
</g>
</g>
</g>
</svg>
