<svg width="49" height="49" viewBox="0 0 49 49" fill="none" xmlns="http://www.w3.org/2000/svg">
<g id="Shapes" clip-path="url(#clip0_1_781)">
<path id="Vector" fill-rule="evenodd" clip-rule="evenodd" d="M15.9446 32.2928C12.628 28.9762 11.7199 24.168 13.2274 20.0571C13.6794 18.8242 13.5441 17.3907 12.6156 16.4622C11.376 15.2226 9.30119 15.3897 8.57689 16.9861C5.72726 23.2671 6.90505 30.9466 12.0979 36.1395C17.2907 41.3322 24.9702 42.5101 31.2512 39.6604C32.8476 38.9361 33.0147 36.8613 31.7751 35.6217C30.8466 34.6932 29.413 34.5579 28.1802 35.0099C24.0693 36.5174 19.261 35.6093 15.9446 32.2928ZM36.1395 12.0978C41.3323 17.2906 42.5101 24.9702 39.6605 31.2511C38.9362 32.8475 36.8614 33.0146 35.6218 31.775C34.6933 30.8465 34.5579 29.413 35.01 28.1801C36.5174 24.0692 35.6093 19.261 32.2929 15.9445C28.9763 12.6279 24.168 11.7199 20.0571 13.2273C18.8243 13.6794 17.3908 13.544 16.4623 12.6155C15.2227 11.3759 15.3898 9.30113 16.9862 8.57683C23.2671 5.72717 30.9467 6.90499 36.1395 12.0978Z" fill="url(#paint0_linear_1_781)"/>
</g>
<defs>
<linearGradient id="paint0_linear_1_781" x1="22.9089" y1="9.08486" x2="23.2366" y2="36.5215" gradientUnits="userSpaceOnUse">
<stop offset="0.0509862" stop-color="#4318FF"/>
<stop offset="1" stop-color="#6463B1"/>
</linearGradient>
<clipPath id="clip0_1_781">
<rect width="34" height="34" fill="white" transform="translate(0 24.0416) rotate(-45)"/>
</clipPath>
</defs>
</svg>
