<svg width="20" height="20" viewBox="0 0 20 20" fill="none" xmlns="http://www.w3.org/2000/svg">
<g id="Iconly">
<g id="Call">
<mask id="mask0_40_2724" style="mask-type:luminance" maskUnits="userSpaceOnUse" x="1" y="1" width="18" height="18">
<path id="Clip 2" fill-rule="evenodd" clip-rule="evenodd" d="M1.66701 1.66675H18.75V18.7497H1.66701V1.66675Z" fill="white"/>
</mask>
<g mask="url(#mask0_40_2724)">
<path id="Fill 1" fill-rule="evenodd" clip-rule="evenodd" d="M3.63291 4.21722C3.63458 4.21722 3.59291 4.26055 3.54041 4.31222C3.33874 4.50805 2.92124 4.91555 2.91708 5.76805C2.91041 6.96055 3.69458 9.17472 7.47041 12.9497C11.2287 16.7064 13.4396 17.4997 14.6346 17.4997H14.6521C15.5046 17.4956 15.9112 17.0772 16.1079 16.8764C16.1679 16.8147 16.2162 16.7697 16.2504 16.7414C17.0804 15.9064 17.5054 15.2847 17.5012 14.8864C17.4954 14.4797 16.9896 13.9989 16.2904 13.3339C16.0679 13.1222 15.8262 12.8922 15.5712 12.6372C14.9104 11.9781 14.5829 12.0906 13.8629 12.3439C12.8671 12.6931 11.5004 13.1681 9.37708 11.0439C7.25041 8.91889 7.72624 7.55389 8.07458 6.55805C8.32624 5.83805 8.44124 5.50972 7.77958 4.84805C7.52041 4.58972 7.28791 4.34472 7.07374 4.11972C6.41291 3.42472 5.93624 2.92222 5.53208 2.91639H5.52541C5.12624 2.91639 4.50624 3.34305 3.62874 4.22055C3.63124 4.21805 3.63208 4.21722 3.63291 4.21722ZM14.6354 18.7497C12.5587 18.7497 9.85124 17.0964 6.58708 13.8339C3.31041 10.5581 1.65458 7.84222 1.66708 5.76139C1.67458 4.38639 2.39541 3.68222 2.66624 3.41805C2.68041 3.40055 2.72874 3.35305 2.74541 3.33639C3.94041 2.14055 4.74624 1.65722 5.54791 1.66639C6.47874 1.67889 7.14124 2.37555 7.97958 3.25805C8.18708 3.47639 8.41208 3.71389 8.66291 3.96389C9.87958 5.18055 9.53291 6.17305 9.25458 6.96972C8.95124 7.83889 8.68874 8.58889 10.2604 10.1606C11.8337 11.7322 12.5837 11.4697 13.4496 11.1639C14.2471 10.8856 15.2371 10.5372 16.4554 11.7539C16.7021 12.0006 16.9362 12.2231 17.1521 12.4289C18.0387 13.2714 18.7387 13.9372 18.7504 14.8706C18.7604 15.6664 18.2771 16.4772 17.0837 17.6714L16.5554 17.3131L17.0021 17.7497C16.7379 18.0206 16.0346 18.7422 14.6587 18.7497H14.6354Z" fill="#BFBFBF"/>
</g>
</g>
</g>
</svg>
