<svg width="34" height="33" viewBox="0 0 34 33" fill="none" xmlns="http://www.w3.org/2000/svg">
<path d="M8.72018 19.8856H25.5206M8.72018 19.8856V15.8535C8.72018 14.9126 8.72018 14.4421 8.90329 14.0827C9.06436 13.7666 9.32138 13.5096 9.6375 13.3485C9.99688 13.1654 10.4673 13.1654 11.4082 13.1654H22.8326C23.7735 13.1654 24.2439 13.1654 24.6033 13.3485C24.9194 13.5096 25.1764 13.7666 25.3375 14.0827C25.5206 14.4421 25.5206 14.9126 25.5206 15.8535V19.8856M8.72018 19.8856V26.6058V31.6459M25.5206 19.8856V26.6058V31.6459M27.783 6.7364L20.7268 3.20831C19.4045 2.54713 18.7433 2.21654 18.0498 2.08643C17.4356 1.97119 16.8052 1.97119 16.191 2.08643C15.4975 2.21654 14.8363 2.54713 13.514 3.2083L6.45779 6.7364C4.83959 7.5455 4.0305 7.95004 3.43937 8.55359C2.91663 9.08732 2.51907 9.73058 2.27547 10.4368C2 11.2355 2 12.1401 2 13.9493V28.9578C2 29.8987 2 30.3692 2.18311 30.7286C2.34419 31.0447 2.6012 31.3017 2.91732 31.4628C3.2767 31.6459 3.74716 31.6459 4.68807 31.6459H29.5527C30.4936 31.6459 30.9641 31.6459 31.3235 31.4628C31.6396 31.3017 31.8966 31.0447 32.0577 30.7286C32.2408 30.3692 32.2408 29.8987 32.2408 28.9578V13.9493C32.2408 12.1401 32.2408 11.2355 31.9653 10.4368C31.7217 9.73058 31.3242 9.08732 30.8014 8.55359C30.2103 7.95004 29.4012 7.5455 27.783 6.7364Z" stroke="#F86F33" stroke-width="2.5" stroke-linecap="round" stroke-linejoin="round"/>
</svg>
