<svg width="32" height="32" viewBox="0 0 32 32" fill="none" xmlns="http://www.w3.org/2000/svg">
<g clip-path="url(#clip0_43_646)">
<path d="M31.0625 1.93762H8.5C7.98225 1.93762 7.5625 2.35737 7.5625 2.87512V15.1241C6.30794 15.3391 5.15106 15.9789 4.30344 16.9376H3.8125V16.0001C3.8125 15.4824 3.39275 15.0626 2.875 15.0626H0.9375C0.41975 15.0626 0 15.4824 0 16.0001C0 16.5179 0.41975 16.9376 0.9375 16.9376H1.9375V28.1876H0.9375C0.41975 28.1876 0 28.6074 0 29.1251C0 29.6429 0.41975 30.0626 0.9375 30.0626H2.875C3.39275 30.0626 3.8125 29.6429 3.8125 29.1251V28.1876H4.60406C10.583 30.0799 10.3571 30.0626 10.625 30.0626H23.5C25.4395 30.0626 26.7981 28.1365 26.1513 26.3126H31.0625C31.5803 26.3126 32 25.8929 32 25.3751V2.87512C32 2.35737 31.5803 1.93762 31.0625 1.93762ZM17.875 3.81262H21.625V8.50012H17.875V3.81262ZM24.4375 27.2501C24.4375 27.7671 24.0169 28.1876 23.5 28.1876H10.7709C4.79206 26.2953 5.018 26.3126 4.75 26.3126H3.8125V18.8126H4.75C5.04775 18.8126 5.32781 18.6712 5.5045 18.4316C6.98931 16.4183 10.0095 16.4167 11.4954 18.4316C11.6722 18.6712 11.9523 18.8126 12.25 18.8126H16.9375C17.4544 18.8126 17.875 19.2332 17.875 19.7501C17.875 20.2671 17.4544 20.6876 16.9375 20.6876H11.3125C10.7947 20.6876 10.375 21.1074 10.375 21.6251C10.375 24.2098 12.4778 26.3126 15.0625 26.3126H23.5C24.0169 26.3126 24.4375 26.7332 24.4375 27.2501ZM30.125 24.4376C29.5566 24.4376 15.8347 24.4376 15.0625 24.4376C13.8403 24.4376 12.7976 23.6539 12.4106 22.5626H16.9375C18.4883 22.5626 19.75 21.3009 19.75 19.7501C19.75 18.1993 18.4883 16.9376 16.9375 16.9376H12.6966C11.849 15.9789 10.6921 15.3391 9.4375 15.1241V3.81262H16V9.43762C16 9.95537 16.4197 10.3751 16.9375 10.3751H22.5625C23.0803 10.3751 23.5 9.95537 23.5 9.43762V3.81262H30.125V24.4376Z" fill="#F86F33"/>
</g>
<defs>
<clipPath id="clip0_43_646">
<rect width="32" height="32" fill="white"/>
</clipPath>
</defs>
</svg>
