<svg width="34" height="34" viewBox="0 0 34 34" fill="none" xmlns="http://www.w3.org/2000/svg">
<path d="M22.8333 11.1667L11.1667 22.8333M12.8333 12.8333H12.85M21.1667 21.1667H21.1833M13.6667 12.8333C13.6667 13.2936 13.2936 13.6667 12.8333 13.6667C12.3731 13.6667 12 13.2936 12 12.8333C12 12.3731 12.3731 12 12.8333 12C13.2936 12 13.6667 12.3731 13.6667 12.8333ZM22 21.1667C22 21.6269 21.6269 22 21.1667 22C20.7064 22 20.3333 21.6269 20.3333 21.1667C20.3333 20.7064 20.7064 20.3333 21.1667 20.3333C21.6269 20.3333 22 20.7064 22 21.1667ZM24.2146 4.93092C25.4459 4.96606 26.6668 5.45353 27.6066 6.39334C28.5464 7.33315 29.0339 8.554 29.069 9.78535C29.1038 11.0039 29.1212 11.6131 29.1569 11.7549C29.2335 12.0585 29.1445 11.8438 29.3051 12.1125C29.38 12.2381 29.7986 12.6813 30.6356 13.5674C31.4814 14.463 32 15.6709 32 17C32 18.3291 31.4814 19.537 30.6356 20.4326C29.7986 21.3187 29.38 21.7619 29.3051 21.8875C29.1445 22.1562 29.2335 21.9415 29.1569 22.2451C29.1212 22.3869 29.1038 22.9961 29.069 24.2146C29.0339 25.446 28.5464 26.6669 27.6066 27.6067C26.6668 28.5465 25.4459 29.0339 24.2146 29.0691C22.9961 29.1038 22.3868 29.1212 22.245 29.157C21.9415 29.2335 22.1562 29.1446 21.8874 29.3051C21.7619 29.3801 21.3187 29.7986 20.4326 30.6356C19.537 31.4814 18.3291 32 17 32C15.6709 32 14.463 31.4814 13.5675 30.6356C12.6812 29.7986 12.2381 29.3801 12.1126 29.3051C11.8438 29.1446 12.0585 29.2335 11.7549 29.157C11.6131 29.1212 11.0037 29.1038 9.78534 29.0691C8.55397 29.034 7.3331 28.5465 6.39328 27.6067C5.45346 26.6668 4.96598 25.446 4.93086 24.2146C4.89611 22.9961 4.87873 22.3868 4.84297 22.245C4.76642 21.9415 4.85536 22.1562 4.69485 21.8874C4.61986 21.7618 4.20136 21.3187 3.36436 20.4325C2.51855 19.537 2 18.3291 2 17C2 15.6709 2.51855 14.463 3.36436 13.5675C4.20136 12.6813 4.61986 12.2382 4.69485 12.1126C4.85536 11.8438 4.76642 12.0585 4.84297 11.755C4.87873 11.6132 4.89611 11.0039 4.93086 9.78543C4.96598 8.55404 5.45346 7.33316 6.39328 6.39334C7.3331 5.45352 8.55397 4.96605 9.78534 4.93092C11.0039 4.89616 11.6131 4.87878 11.7549 4.84302C12.0585 4.76647 11.8438 4.85541 12.1125 4.6949C12.2381 4.61991 12.6813 4.20136 13.5675 3.36438C14.463 2.51855 15.6709 2 17 2C18.3291 2 19.537 2.51856 20.4326 3.3644C21.3188 4.2014 21.7619 4.6199 21.8874 4.69489C22.1562 4.8554 21.9415 4.76646 22.245 4.84301C22.3868 4.87877 22.9961 4.89615 24.2146 4.93092Z" stroke="#F86F33" stroke-width="2.5" stroke-linecap="round" stroke-linejoin="round"/>
</svg>
