<svg width="32" height="32" viewBox="0 0 32 32" fill="none" xmlns="http://www.w3.org/2000/svg">
<g clip-path="url(#clip0_43_644)">
<path d="M0.9375 0.937622H4.21344C5.00169 0.937622 5.70575 1.43062 5.97538 2.17131L13.9226 23.7877" stroke="#F86F33" stroke-width="2" stroke-miterlimit="10" stroke-linecap="round" stroke-linejoin="round"/>
<path d="M15.2052 31.0616C17.2763 31.0616 18.9552 29.3827 18.9552 27.3116C18.9552 25.2405 17.2763 23.5616 15.2052 23.5616C13.1341 23.5616 11.4552 25.2405 11.4552 27.3116C11.4552 29.3827 13.1341 31.0616 15.2052 31.0616Z" stroke="#F86F33" stroke-width="2" stroke-miterlimit="10" stroke-linecap="round" stroke-linejoin="round"/>
<path d="M31.0624 21.54L18.729 26.029" stroke="#F86F33" stroke-width="2" stroke-miterlimit="10" stroke-linecap="round" stroke-linejoin="round"/>
<path d="M18.729 26.029L12.3162 8.40982L22.8877 4.56207L29.3005 22.1813" stroke="#F86F33" stroke-width="2" stroke-miterlimit="10" stroke-linecap="round" stroke-linejoin="round"/>
<path d="M26.0941 13.3717L15.5226 17.2194" stroke="#F86F33" stroke-width="2" stroke-miterlimit="10" stroke-linecap="round" stroke-linejoin="round"/>
<path d="M18.0035 10.3304L19.7654 9.68912" stroke="#F86F33" stroke-width="2" stroke-miterlimit="10" stroke-linecap="round" stroke-linejoin="round"/>
<path d="M21.21 19.1401L22.9718 18.4987" stroke="#F86F33" stroke-width="2" stroke-miterlimit="10" stroke-linecap="round" stroke-linejoin="round"/>
<path d="M10.0749 13.2162C11.3271 16.6566 7.86404 18.1061 9.11622 21.5464L11.6813 28.5941" stroke="#F86F33" stroke-width="2" stroke-miterlimit="10" stroke-linecap="round" stroke-linejoin="round"/>
</g>
<defs>
<clipPath id="clip0_43_644">
<rect width="32" height="32" fill="white"/>
</clipPath>
</defs>
</svg>
