<svg width="76" height="76" viewBox="0 0 76 76" fill="none" xmlns="http://www.w3.org/2000/svg">
<mask id="mask0_70_2072" style="mask-type:alpha" maskUnits="userSpaceOnUse" x="0" y="0" width="76" height="76">
<rect width="76" height="76" rx="38" fill="#D9D9D9"/>
</mask>
<g mask="url(#mask0_70_2072)">
<rect width="76" height="76" rx="38" fill="#EDE0D6"/>
<path d="M38 43C40.2091 43 42 41.2091 42 39C42 36.7909 40.2091 35 38 35C35.7909 35 34 36.7909 34 39C34 41.2091 35.7909 43 38 43Z" stroke="#021527" stroke-linecap="round" stroke-linejoin="round"/>
<path d="M31.9995 45.9997C32.6982 45.0684 33.6042 44.3124 34.6456 43.7918C35.687 43.2711 36.8354 43 37.9997 43C39.164 43 40.3124 43.271 41.3538 43.7916C42.3953 44.3122 43.3013 45.0681 44 45.9995" stroke="#021527" stroke-linecap="round" stroke-linejoin="round"/>
<path d="M48 49V27C48 26.4477 47.5523 26 47 26H29C28.4477 26 28 26.4477 28 27V49C28 49.5523 28.4477 50 29 50H47C47.5523 50 48 49.5523 48 49Z" stroke="#021527" stroke-linecap="round" stroke-linejoin="round"/>
<path d="M34 30H42" stroke="#021527" stroke-linecap="round" stroke-linejoin="round"/>
</g>
</svg>
