<svg width="76" height="76" viewBox="0 0 76 76" fill="none" xmlns="http://www.w3.org/2000/svg">
<mask id="mask0_70_2068" style="mask-type:alpha" maskUnits="userSpaceOnUse" x="0" y="0" width="76" height="76">
<rect width="76" height="76" rx="38" fill="#D9D9D9"/>
</mask>
<g mask="url(#mask0_70_2068)">
<rect width="76" height="76" rx="38" fill="#EDE0D6"/>
<path d="M36.9989 35.3024L33.7489 29.6732C33.4181 29.0991 33.3287 28.417 33.5005 27.777C33.6723 27.137 34.0911 26.5913 34.665 26.26C35.2389 25.9287 35.9209 25.8387 36.5611 26.01C37.2013 26.1812 37.7472 26.5996 38.0791 27.1732L43.0791 35.8335" stroke="#021C33" stroke-linecap="round" stroke-linejoin="round"/>
<path d="M33.169 38.6685L28.419 30.4413C28.2545 30.1569 28.1477 29.843 28.1046 29.5173C28.0615 29.1917 28.083 28.8607 28.1679 28.5434C28.2528 28.2261 28.3994 27.9286 28.5993 27.668C28.7992 27.4073 29.0485 27.1886 29.333 27.0244C29.6175 26.8601 29.9315 26.7536 30.2572 26.7108C30.5829 26.668 30.9138 26.6898 31.2311 26.7749C31.5483 26.8601 31.8457 27.0069 32.1062 27.207C32.3666 27.4072 32.5851 27.6567 32.7491 27.9413L36.9991 35.3025" stroke="#021C33" stroke-linecap="round" stroke-linejoin="round"/>
<path d="M41.249 42.6635C40.586 41.5151 40.4063 40.1503 40.7495 38.8694C41.0928 37.5885 41.9307 36.4964 43.0792 35.8334L41.8292 33.6683C41.6647 33.384 41.5579 33.07 41.5148 32.7444C41.4717 32.4187 41.4932 32.0878 41.5781 31.7705C41.663 31.4531 41.8096 31.1557 42.0095 30.895C42.2094 30.6344 42.4587 30.4157 42.7432 30.2514C43.0277 30.0872 43.3417 29.9806 43.6674 29.9378C43.9931 29.895 44.324 29.9168 44.6412 30.002C44.9585 30.0871 45.2559 30.2339 45.5163 30.4341C45.7768 30.6342 45.9953 30.8837 46.1593 31.1683L48.6593 35.4984C49.3162 36.6357 49.7427 37.8913 49.9144 39.1935C50.086 40.4956 49.9995 41.8188 49.6597 43.0875C49.3199 44.3562 48.7335 45.5455 47.934 46.5875C47.1345 47.6296 46.1376 48.5039 45.0002 49.1606C43.8627 49.8173 42.607 50.2435 41.3049 50.4149C40.0027 50.5863 38.6795 50.4994 37.4109 50.1593C36.1423 49.8193 34.9531 49.2326 33.9112 48.4329C32.8693 47.6332 31.9952 46.636 31.3388 45.4984L26.0888 36.4052C25.7579 35.831 25.6686 35.149 25.8403 34.5089C26.0121 33.8689 26.431 33.3233 27.0049 32.9919C27.5788 32.6606 28.2608 32.5707 28.9009 32.7419C29.5411 32.9131 30.0871 33.3316 30.4189 33.9052L33.1689 38.6683" stroke="#021C33" stroke-linecap="round" stroke-linejoin="round"/>
<path d="M32.1368 52.0003C30.4418 50.8243 29.0289 49.2868 28 47.4988" stroke="#021C33" stroke-linecap="round" stroke-linejoin="round"/>
<path d="M44 25.875C45.141 25.8748 46.2618 26.1752 47.2498 26.7458C48.2379 27.3164 49.0582 28.1372 49.6282 29.1255" stroke="#021C33" stroke-linecap="round" stroke-linejoin="round"/>
</g>
</svg>
