<svg xmlns="http://www.w3.org/2000/svg" width="233.188" height="145.82"><path id="_03" data-name="3" d="M60.488 145.3a56.714 56.714 0 0031-8.6q13.6-8.6 21.3-24.9 7.7-16.29 7.7-38.9 0-22.59-7.7-38.9-7.7-16.29-21.3-24.9a60.172 60.172 0 00-62 0q-13.6 8.61-21.3 24.9t-7.7 38.9q0 22.605 7.7 38.9t21.3 24.9a56.707 56.707 0 0031 8.6h0zm0-27.4q-12.6 0-19.9-11t-7.3-34q0-22.995 7.3-34t19.9-11q12.8 0 20.1 11t7.3 34q0 23.01-7.3 34-7.3 11.01-20.1 11h0zm134.2-58l31.6-36v-21h-98v26h59.6l-28.8 32.6v21.4h14.8q26.2 0 26.2 17.2a15.09 15.09 0 01-7 13.3q-7 4.71-19.2 4.7a71.293 71.293 0 01-21.5-3.3 61.017 61.017 0 01-18.5-9.3l-12.6 24.8a74.945 74.945 0 0024.3 11.1 110.086 110.086 0 0029.1 3.9q19 0 32.1-6.2t19.5-16.5a41.793 41.793 0 006.4-22.5q0-15.8-9.8-26.5t-28.2-13.7h0z" fill="#f7f8f9" fill-opacity="0" stroke="#fff" stroke-linejoin="round" stroke-width="1" fill-rule="evenodd"/></svg>