<svg xmlns="http://www.w3.org/2000/svg" width="235.188" height="145.82"><path id="_02" data-name="2" d="M60.488 145.3a56.714 56.714 0 0031-8.6q13.6-8.6 21.3-24.9 7.7-16.29 7.7-38.9 0-22.59-7.7-38.9-7.7-16.29-21.3-24.9a60.172 60.172 0 00-62 0q-13.6 8.61-21.3 24.9t-7.7 38.9q0 22.605 7.7 38.9t21.3 24.9a56.707 56.707 0 0031 8.6h0zm0-27.4q-12.6 0-19.9-11t-7.3-34q0-22.995 7.3-34t19.9-11q12.8 0 20.1 11t7.3 34q0 23.01-7.3 34-7.3 11.01-20.1 11h0zm114-1.4l32.2-30.4q13.8-12.8 18.6-22.8a48.8 48.8 0 004.8-21.4 37.275 37.275 0 00-6.5-21.9 42.087 42.087 0 00-18.2-14.4q-11.7-5.1-27.3-5.1-18.6 0-33 6.9a55.378 55.378 0 00-22.6 19.1l23.6 15.2a31.872 31.872 0 0112.4-10.5 38.384 38.384 0 0116.6-3.5q11 0 16.7 4.5t5.7 12.9a25.627 25.627 0 01-3 11.7q-3 5.91-11.6 14.1l-54 51v21h105.8v-26.4h-60.2z" fill="#f7f8f9" fill-opacity="0" stroke="#fff" stroke-linejoin="round" stroke-width="1" fill-rule="evenodd"/></svg>