<svg xmlns="http://www.w3.org/2000/svg" width="260" height="145.82"><path id="_04" data-name="4" d="M60.488 145.3a56.714 56.714 0 0031-8.6q13.6-8.6 21.3-24.9 7.7-16.29 7.7-38.9 0-22.59-7.7-38.9-7.7-16.29-21.3-24.9a60.172 60.172 0 00-62 0q-13.6 8.61-21.3 24.9t-7.7 38.9q0 22.605 7.7 38.9t21.3 24.9a56.707 56.707 0 0031 8.6h0zm0-27.4q-12.6 0-19.9-11t-7.3-34q0-22.995 7.3-34t19.9-11q12.8 0 20.1 11t7.3 34q0 23.01-7.3 34-7.3 11.01-20.1 11h0zm199-30.8h-22.8V60.9h-30.6v26.2h-37.6l61.2-84.2h-34l-66 88.8v21.8h75.4v29.4h31.6v-29.4h22.8V87.1z" fill="#f7f8f9" fill-opacity="0" stroke="#fff" stroke-linejoin="round" stroke-width="1" fill-rule="evenodd"/></svg>