<svg xmlns="http://www.w3.org/2000/svg" width="183.6" height="144.82"><path id="_01" data-name="1" d="M1102.3 4088.89a56.717 56.717 0 0031-8.6q13.6-8.6 21.3-24.9 7.7-16.29 7.7-38.9 0-22.59-7.7-38.9-7.695-16.29-21.3-24.9a60.172 60.172 0 00-62 0q-13.6 8.61-21.3 24.9t-7.7 38.9q0 22.605 7.7 38.9t21.3 24.9a56.717 56.717 0 0031 8.6zm0-27.4q-12.6 0-19.9-11t-7.3-34q0-22.995 7.3-34t19.9-11q12.795 0 20.1 11t7.3 34q0 23.01-7.3 34-7.305 11.01-20.1 11zm63.2-115v26h28v114h32.4v-140h-60.4z" transform="translate(-1042.31 -3944.09)" fill="#f1f0f6" fill-rule="evenodd"/></svg>