<svg xmlns="http://www.w3.org/2000/svg" width="259" height="144.82"><path id="_04" data-name="4" d="M1429.3 4337.89a56.717 56.717 0 0031-8.6q13.6-8.595 21.3-24.9t7.7-38.9q0-22.59-7.7-38.9-7.695-16.29-21.3-24.9a60.172 60.172 0 00-62 0q-13.6 8.61-21.3 24.9-7.7 16.305-7.7 38.9t7.7 38.9q7.7 16.3 21.3 24.9a56.717 56.717 0 0031 8.6zm0-27.4q-12.6 0-19.9-11t-7.3-34q0-22.995 7.3-34t19.9-11q12.795 0 20.1 11t7.3 34q0 23.01-7.3 34-7.305 11.01-20.1 11zm199-30.8h-22.8v-26.2h-30.6v26.2h-37.6l61.2-84.2h-34l-66 88.8v21.8h75.4v29.4h31.6v-29.4h22.8v-26.4z" transform="translate(-1369.31 -4193.09)" fill="#f1f0f6" fill-rule="evenodd"/></svg>