<svg xmlns="http://www.w3.org/2000/svg" width="232.19" height="144.82"><path id="_03" data-name="3" d="M1102.3 4337.89a56.717 56.717 0 0031-8.6q13.6-8.595 21.3-24.9t7.7-38.9q0-22.59-7.7-38.9-7.695-16.29-21.3-24.9a60.172 60.172 0 00-62 0q-13.6 8.61-21.3 24.9-7.7 16.305-7.7 38.9t7.7 38.9q7.7 16.3 21.3 24.9a56.717 56.717 0 0031 8.6zm0-27.4q-12.6 0-19.9-11t-7.3-34q0-22.995 7.3-34t19.9-11q12.795 0 20.1 11t7.3 34q0 23.01-7.3 34-7.305 11.01-20.1 11zm134.2-58l31.6-36v-21h-98v26h59.6l-28.8 32.6v21.4h14.8q26.19 0 26.2 17.2a15.1 15.1 0 01-7 13.3q-7.005 4.71-19.2 4.7a71.264 71.264 0 01-21.5-3.3 61.006 61.006 0 01-18.5-9.3l-12.6 24.8a74.828 74.828 0 0024.3 11.1 110.075 110.075 0 0029.1 3.9q18.99 0 32.1-6.2t19.5-16.5a41.845 41.845 0 006.4-22.5q0-15.795-9.8-26.5t-28.2-13.7z" transform="translate(-1042.31 -4193.09)" fill="#f1f0f6" fill-rule="evenodd"/></svg>