<svg width="58" height="58" fill="none" xmlns="http://www.w3.org/2000/svg"><path d="M49.656 54.12l-.55-2.762a.85.85 0 10-1.666.331l.55 2.762c.19.958-.543 1.85-1.519 1.85h-4.963v-3.858a.85.85 0 10-1.699 0V56.3H25.166a.85.85 0 100 1.699H46.47a3.247 3.247 0 003.185-3.88z" fill="#fff"/><path d="M48.332 47.466l-.29-1.454c-.563-2.821-2.617-3.977-3.791-4.415-.44-.163-1.186-.331-9.829-2.473v-.59h9.197c.95 0 1.723-.773 1.723-1.723V25.748c.57-.792.894-1.758.894-2.783a4.756 4.756 0 00-.894-2.783v-3.885a16.18 16.18 0 00-4.81-11.549C34.703-1.047 25.578-1.588 19.15 3.403a.85.85 0 001.042 1.342C25.93.29 34.108.758 39.334 5.953a14.49 14.49 0 014.309 10.343v2.12a2.398 2.398 0 00-1.38-1.38v-.74c0-7.285-5.927-13.211-13.212-13.211S15.839 9.01 15.839 16.296v.74a2.4 2.4 0 00-1.38 1.38v-1.95c0-3.311 1.067-6.446 3.087-9.065A.85.85 0 0016.2 6.363a16.404 16.404 0 00-3.441 10.103v3.715a4.756 4.756 0 00-.894 2.784c0 1.025.324 1.99.894 2.783v10.704c0 1.148.934 2.082 2.082 2.082h8.768v.582c-.715.177-8.857 2.195-9.772 2.462v.003a1.216 1.216 0 00-.054.022l-.003-.007c-1.174.439-3.228 1.595-3.79 4.416-.68 3.415-1.157 5.792-1.648 8.243A3.13 3.13 0 0011.412 58h9.79a.85.85 0 100-1.7H18.22v-3.857a.85.85 0 10-1.7 0V56.3h-5.109c-.904 0-1.58-.827-1.404-1.712.606-3.023 1.04-5.197 1.648-8.244.56-2.807 3.159-3.26 3.306-3.328l5.217-1.293 2.356 2.781 3.069 3.622c.883 1.043 2.078 1.698 3.405 1.7h.005c1.266 0 2.474-.6 3.401-1.689l5.457-6.409 5.216 1.293c.065.022.084.025.596.177.847.322 2.294 1.153 2.692 3.146l.29 1.452a.85.85 0 001.666-.331zm-25.177-13.5h2.55a2.391 2.391 0 002.23 1.539h2.159a2.392 2.392 0 002.39-2.39 2.392 2.392 0 00-2.39-2.389h-2.158a2.391 2.391 0 00-2.231 1.54h-2.774c-.601 0-1.184-.08-1.732-.23a10.224 10.224 0 01-2.121-6.215v-2.025a.596.596 0 01.631-.599c.4.024.79.036 1.174.036 7.734 0 12.338-4.719 14.174-7.112.962 1.721 2.386 2.254 3.439 2.393a.56.56 0 01.489.554v6.907c0 8.17-9.373 12.83-15.83 7.99zm4.09-.85c0-.381.31-.69.69-.69h2.159a.691.691 0 010 1.38h-2.158a.69.69 0 01-.69-.69zm16.557-12.144a3.056 3.056 0 01.734 1.993 3.055 3.055 0 01-.734 1.993v-3.986zm-.159 6.541v9.298c0 .013-.01.024-.024.024h-9.197v-.52a11.643 11.643 0 005.92-7.52c.322.164.686.257 1.07.257a2.39 2.39 0 002.231-1.538zm-2.92-8.246a.691.691 0 011.38 0v7.396a.691.691 0 01-1.38 0v-7.396zM29.05 4.784c6.348 0 11.512 5.164 11.512 11.512v.74a2.4 2.4 0 00-.629.358 2.251 2.251 0 00-1.217-.565c-1.02-.134-1.792-.728-2.296-1.765a1.479 1.479 0 00-2.522-.23c-1.518 2.066-5.738 6.7-13.026 6.7-.347 0-.7-.011-1.061-.033a2.278 2.278 0 00-.734.077v-2.311a2.391 2.391 0 00-1.54-2.23v-.74c0-6.349 5.165-11.513 11.513-11.513zM17.998 29.589a4.08 4.08 0 01-.306-.76l.069-.034c.07.268.149.532.237.794zm-2-2.999v-7.323a.691.691 0 011.38 0v7.396a.691.691 0 01-1.38 0v-.073zM14.3 24.958a3.056 3.056 0 01-.734-1.993 3.056 3.056 0 01.734-1.993v3.986zm.542 11.877a.383.383 0 01-.383-.383v-8.938a2.399 2.399 0 001.51 1.427 5.95 5.95 0 001.534 2.84c.728.763 1.655 1.346 2.695 1.718a11.78 11.78 0 003.412 2.768v.568h-8.768zm18.18 7.971l-1.9 2.23c-.599.704-1.347 1.092-2.107 1.092h-.003c-.762-.001-1.511-.391-2.11-1.099l-1.884-2.223h8.003zm1.446-1.699h-10.89l-1.557-1.839 2.643-.655a.86.86 0 00.645-.853v-2.75a11.46 11.46 0 003.725.618c1.222 0 2.478-.192 3.69-.595v2.757c0 .39.266.73.645.824l2.66.66-1.561 1.834z" fill="#fff"/></svg>