<svg width="58" height="58" fill="none" xmlns="http://www.w3.org/2000/svg"><path d="M26.455 13.207a1.133 1.133 0 10-1.317 1.843 7.252 7.252 0 013.032 5.889c0 3.986-3.243 7.23-7.23 7.23-3.987 0-7.23-3.244-7.23-7.23a7.252 7.252 0 013.033-5.889 1.133 1.133 0 00-1.318-1.843 9.523 9.523 0 00-3.98 7.732c0 5.235 4.26 9.495 9.495 9.495 5.236 0 9.496-4.26 9.496-9.495a9.52 9.52 0 00-3.98-7.732zM44.94 39.151a5.641 5.641 0 00-5.635 5.636 5.641 5.641 0 005.635 5.635 5.641 5.641 0 005.634-5.635 5.641 5.641 0 00-5.634-5.636zm0 9.005a3.373 3.373 0 01-3.37-3.37 3.373 3.373 0 013.37-3.369 3.373 3.373 0 013.369 3.37 3.373 3.373 0 01-3.37 3.369z" fill="#fff"/><path d="M57.848 40.72l-2.933-5.08a1.133 1.133 0 00-1.548-.414l-1.353.782a11.362 11.362 0 00-3.009-1.74v-1.56c0-.626-.507-1.133-1.133-1.133h-5.865c-.626 0-1.133.507-1.133 1.133v1.56a11.355 11.355 0 00-3.009 1.74l-1.354-.782a1.163 1.163 0 00-.172-.08l1.955-1.956a1.133 1.133 0 000-1.602l-1.585-1.584a18.01 18.01 0 001.8-4.344h2.238c.626 0 1.133-.507 1.133-1.132v-7.2c0-.626-.507-1.133-1.133-1.133H38.51a17.995 17.995 0 00-1.8-4.343l1.576-1.576a1.133 1.133 0 000-1.602l-5.093-5.09a1.133 1.133 0 00-1.602 0L30.016 5.16a18.013 18.013 0 00-4.343-1.8V1.133C25.673.507 25.166 0 24.54 0h-7.2c-.625 0-1.133.507-1.133 1.133v2.226a18.017 18.017 0 00-4.343 1.8L10.29 3.585a1.133 1.133 0 00-1.601 0L3.595 8.674a1.133 1.133 0 000 1.602l1.576 1.576a18.005 18.005 0 00-1.8 4.343H1.137c-.625 0-1.133.507-1.133 1.132L0 24.527a1.133 1.133 0 001.133 1.133H3.37a17.998 17.998 0 001.8 4.344l-1.584 1.584a1.132 1.132 0 000 1.602l5.089 5.093c.212.212.5.332.8.332h.001c.3 0 .589-.12.801-.332l1.586-1.586a18.02 18.02 0 004.344 1.8v2.247c0 .625.507 1.132 1.132 1.132h7.2c.626 0 1.133-.507 1.133-1.132v-2.247a18.02 18.02 0 004.343-1.8l1.586 1.586a1.133 1.133 0 001.603 0l.554-.555-1.728 2.993a1.132 1.132 0 00.415 1.547l1.352.78a11.355 11.355 0 000 3.477l-1.352.78a1.133 1.133 0 00-.415 1.547l2.933 5.08a1.134 1.134 0 001.547.415l1.354-.781a11.38 11.38 0 003.009 1.74v1.56c0 .626.507 1.133 1.133 1.133h5.865c.626 0 1.133-.507 1.133-1.133v-1.56a11.367 11.367 0 003.009-1.74l1.353.781a1.132 1.132 0 001.548-.415l2.933-5.08a1.132 1.132 0 00-.415-1.547l-1.352-.78a11.353 11.353 0 000-3.476l1.352-.78a1.133 1.133 0 00.415-1.548zm-25.445-4.84l-1.415-1.416a1.132 1.132 0 00-1.416-.15 15.796 15.796 0 01-5.27 2.184 1.133 1.133 0 00-.895 1.107v2.005h-4.934v-2.005c0-.534-.373-.995-.895-1.107a15.791 15.791 0 01-5.27-2.184 1.132 1.132 0 00-1.415.15L9.477 35.88 5.99 32.39l1.415-1.415c.377-.377.44-.967.15-1.416a15.789 15.789 0 01-2.184-5.27 1.133 1.133 0 00-1.107-.894H2.266l.003-4.935h1.994c.534 0 .995-.372 1.107-.894a15.784 15.784 0 012.184-5.27 1.133 1.133 0 00-.15-1.416L5.999 9.475l3.49-3.487 1.404 1.403c.377.378.967.44 1.416.15a15.777 15.777 0 015.27-2.183c.521-.112.894-.573.894-1.107V2.266h4.934V4.25c0 .533.373.995.895 1.107a15.78 15.78 0 015.27 2.184c.448.29 1.038.227 1.416-.15l1.403-1.404 3.49 3.487-1.404 1.405c-.378.378-.44.968-.15 1.416a15.784 15.784 0 012.183 5.27c.112.522.574.894 1.108.894h1.997v4.935h-1.997c-.534 0-.996.373-1.108.895a15.78 15.78 0 01-2.184 5.27 1.134 1.134 0 00.15 1.415l1.415 1.414-3.488 3.49zm21.31 6.849a9.061 9.061 0 010 4.115c-.113.487.104.99.537 1.24l1.07.617-1.8 3.118-1.073-.619a1.132 1.132 0 00-1.342.155 9.045 9.045 0 01-3.56 2.058 1.133 1.133 0 00-.805 1.085v1.235h-3.601v-1.235c0-.5-.327-.94-.805-1.085a9.044 9.044 0 01-3.56-2.058 1.133 1.133 0 00-1.343-.155l-1.071.619-1.8-3.118 1.069-.617c.432-.25.65-.753.537-1.24a9.06 9.06 0 010-4.115 1.133 1.133 0 00-.537-1.239l-1.07-.618 1.8-3.117 1.072.619c.433.25.978.186 1.342-.156a9.045 9.045 0 013.56-2.058c.479-.144.806-.585.806-1.084V33.84h3.6v1.235c0 .5.328.94.806 1.084a9.045 9.045 0 013.56 2.058c.364.342.91.405 1.342.156l1.072-.62 1.8 3.118-1.07.618c-.432.25-.65.753-.536 1.239zM47.352 9.516c.625 0 1.132-.507 1.132-1.133v-7.25a1.133 1.133 0 10-2.265 0v7.25c0 .626.507 1.133 1.133 1.133zm-4.532 0c.626 0 1.133-.507 1.133-1.133v-7.25a1.133 1.133 0 10-2.266 0v7.25c0 .626.508 1.133 1.133 1.133zM54.375 0a3.63 3.63 0 00-3.625 3.625v2.266a3.63 3.63 0 003.625 3.625A3.63 3.63 0 0058 5.89V3.625A3.63 3.63 0 0054.375 0zm1.36 5.89a1.36 1.36 0 01-2.719 0V3.626c0-.75.61-1.36 1.359-1.36.75 0 1.36.61 1.36 1.36v2.266zm1.132 5.891c-.625 0-1.133.507-1.133 1.133v7.25a1.133 1.133 0 102.266 0v-7.25c0-.626-.507-1.133-1.133-1.133zm-7.023 9.516a3.63 3.63 0 003.625-3.625v-2.266a3.63 3.63 0 00-3.625-3.625 3.63 3.63 0 00-3.625 3.625v2.266a3.63 3.63 0 003.625 3.625zm-1.36-5.89a1.36 1.36 0 012.719 0v2.265a1.36 1.36 0 01-2.719 0v-2.266zM4.871 48.484c-.626 0-1.133.508-1.133 1.133v7.25a1.133 1.133 0 102.266 0v-7.25c0-.625-.507-1.133-1.133-1.133zm7.024 0A3.63 3.63 0 008.27 52.11v2.266A3.63 3.63 0 0011.895 58a3.63 3.63 0 003.625-3.625v-2.266a3.63 3.63 0 00-3.625-3.625zm1.359 5.891a1.36 1.36 0 01-2.719 0v-2.266a1.36 1.36 0 012.719 0v2.266zm5.664-5.891c-.626 0-1.133.508-1.133 1.133v7.25a1.133 1.133 0 102.266 0v-7.25c0-.625-.507-1.133-1.133-1.133z" fill="#fff"/><path d="M25.941 48.484a3.63 3.63 0 00-3.625 3.625v2.266A3.63 3.63 0 0025.941 58a3.63 3.63 0 003.625-3.625v-2.266a3.63 3.63 0 00-3.625-3.625zm1.36 5.891a1.36 1.36 0 01-2.719 0v-2.266a1.36 1.36 0 012.719 0v2.266zM20.94 13.708a1.14 1.14 0 01-.8-.332 1.14 1.14 0 01-.333-.8c0-.299.122-.59.332-.801a1.14 1.14 0 01.801-.332 1.137 1.137 0 011.133 1.132c0 .298-.121.59-.332.801a1.141 1.141 0 01-.8.332z" fill="#fff"/></svg>