<svg width="58" height="58" fill="none" xmlns="http://www.w3.org/2000/svg"><path d="M56.867 0h-9.969c-.625 0-1.132.507-1.132 1.133v9.969c0 .625.507 1.132 1.132 1.132h9.97c.625 0 1.132-.507 1.132-1.132v-9.97C58 .508 57.493 0 56.867 0zm-1.133 9.969h-7.703V2.266h7.703v7.703zm-21.07 0h5.438c.625 0 1.132-.507 1.132-1.133V3.398c0-.625-.507-1.132-1.132-1.132h-5.438c-.626 0-1.133.507-1.133 1.132v5.438c0 .626.507 1.133 1.133 1.133zm1.133-5.438h3.172v3.172h-3.172V4.531zM17.45 24.242c-.626 0-1.133.507-1.133 1.133v9.063c0 .625.507 1.132 1.132 1.132h9.063c.625 0 1.133-.507 1.133-1.133v-9.062c0-.626-.508-1.133-1.133-1.133h-9.063zm7.929 9.063h-6.797v-6.797h6.797v6.797zM56.867 19.71h-8.156c-.626 0-1.133.508-1.133 1.134V29c0 .626.507 1.133 1.133 1.133h8.156c.626 0 1.133-.507 1.133-1.133v-8.156c0-.626-.507-1.133-1.133-1.133zm-1.133 8.157h-5.89v-5.89h5.89v5.89zM41.008 19.71h-7.25c-.626 0-1.133.508-1.133 1.134v7.25c0 .625.507 1.133 1.133 1.133h7.25c.625 0 1.133-.508 1.133-1.133v-7.25c0-.626-.508-1.133-1.133-1.133zm-1.133 7.25h-4.984v-4.983h4.984v4.984z" fill="#fff"/><path d="M37.383 37.156c-.626 0-1.133.507-1.133 1.133v16.313c0 .624-.508 1.132-1.133 1.132H11.035v-4.91a3.863 3.863 0 00-3.86-3.859h-4.91V14.953c0-.625.509-1.133 1.133-1.133h15.637v5.438c0 .626.508 1.133 1.133 1.133h8.156c.626 0 1.133-.507 1.133-1.133v-8.156c0-.626-.507-1.133-1.133-1.133h-8.156c-.625 0-1.133.507-1.133 1.133v.453H3.398A3.402 3.402 0 000 14.953v33.145c0 .3.12.589.332.801l8.769 8.77c.212.212.5.331.8.331h25.216a3.402 3.402 0 003.399-3.398V38.289c0-.626-.508-1.133-1.133-1.133zM21.3 12.234h5.89v5.891H21.3v-5.89zM8.769 50.824v3.308l-4.902-4.901h3.309c.878 0 1.593.715 1.593 1.593z" fill="#fff"/><path d="M37.383 32.059a1.137 1.137 0 00-1.133 1.132c0 .298.121.59.332.801.21.211.503.332.8.332.299 0 .591-.121.802-.332.21-.21.332-.503.332-.8 0-.298-.122-.59-.332-.801a1.141 1.141 0 00-.801-.332z" fill="#fff"/></svg>