<svg width="166" height="36" viewBox="0 0 166 36" fill="none" xmlns="http://www.w3.org/2000/svg">
<g clip-path="url(#clip0_103_2022)">
<path fill-rule="evenodd" clip-rule="evenodd" d="M16.8934 12.7551H26.1062V17.9273H16.8934V12.7551ZM11.1134 18.4793H20.3262V23.6515H11.1134V18.4793ZM11.1134 24.2036H16.3359V29.3757H11.1134V24.2036ZM16.8934 24.2036H26.1062V29.3757H16.8934V24.2036ZM21.0597 18.4793H30.2725V23.6515H21.0597V18.4793ZM26.6636 24.2036H35.8764V29.3757H26.6636V24.2036ZM11.1134 29.9278H20.3262V35.0999H11.1134V29.9278ZM21.0597 29.9278H30.2725V35.0999H21.0597V29.9278ZM31.006 29.9278H40.1894V35.0999H30.9766V29.9278H31.006ZM18.3897 0.899902L34.6735 10.2272L34.2334 10.8664L18.3897 1.80067L3.80767 10.1691H7.68057V23.1866H6.88839V10.9536H0.873657L18.3897 0.899902ZM11.1134 12.7551H16.3359V17.9273H11.1134V12.7551Z" fill="white"/>
<path fill-rule="evenodd" clip-rule="evenodd" d="M165.126 18.9443H160.67V14.1789C160.67 12.7842 160.613 11.9125 160.526 11.5638C160.44 11.2151 160.21 11.0408 159.894 11.0408C159.52 11.0408 159.29 11.2442 159.204 11.68C159.118 12.1159 159.06 13.0166 159.06 14.4114V27.1964C159.06 28.533 159.118 29.4047 159.204 29.8115C159.29 30.2183 159.52 30.4217 159.865 30.4217C160.181 30.4217 160.411 30.2183 160.526 29.8115C160.641 29.4047 160.67 28.4459 160.67 26.9349V23.4481H165.126V24.5232C165.126 27.3708 165.011 29.4047 164.753 30.5961C164.494 31.7874 163.948 32.8335 163.085 33.7342C162.223 34.635 161.159 35.0708 159.923 35.0708C158.629 35.0708 157.537 34.6931 156.703 33.9376C155.869 33.1821 155.294 32.1361 155.007 30.7704C154.719 29.4338 154.604 27.3998 154.604 24.6975V16.6778C154.604 14.7019 154.662 13.191 154.719 12.203C154.805 11.2151 155.064 10.2562 155.467 9.32641C155.898 8.39659 156.473 7.67017 157.22 7.14714C157.968 6.62412 158.83 6.3626 159.779 6.3626C161.101 6.3626 162.165 6.7694 163.028 7.58299C163.89 8.39659 164.436 9.41358 164.724 10.634C164.983 11.8544 165.126 13.7431 165.126 16.3291V18.9443V18.9443ZM145.347 0.899902H147.158C147.129 2.43992 146.842 3.68937 146.324 4.64825C145.807 5.60712 145.088 6.07203 144.168 6.07203C143.248 6.07203 142.501 5.60712 142.012 4.64825C141.495 3.68937 141.236 2.46898 141.178 0.928959H142.99C143.076 2.49803 143.478 3.25351 144.197 3.25351C144.858 3.22446 145.261 2.46898 145.347 0.899902ZM149.113 34.4897H145.376V21.9662L143.047 34.5188H139.166V6.94374H142.903V19.3801L145.404 6.94374H149.113V34.4897V34.4897ZM133.732 14.0336C133.732 12.7551 133.675 11.9415 133.589 11.5638C133.502 11.2151 133.33 11.0408 133.071 11.0408C132.841 11.0408 132.669 11.1861 132.554 11.4766C132.439 11.7672 132.381 12.6098 132.381 14.0336V26.9058C132.381 28.504 132.41 29.4919 132.496 29.8697C132.582 30.2474 132.755 30.4217 133.042 30.4217C133.33 30.4217 133.531 30.2183 133.617 29.7825C133.704 29.3466 133.732 28.3296 133.732 26.7025V14.0336V14.0336ZM138.188 23.0994C138.188 25.8598 138.16 27.8357 138.073 28.9689C137.987 30.1312 137.729 31.1772 137.326 32.1361C136.895 33.095 136.32 33.8214 135.601 34.3444C134.882 34.8674 134.02 35.0999 133.071 35.0999C132.151 35.0999 131.346 34.8674 130.599 34.3735C129.851 33.8795 129.276 33.1821 128.845 32.1942C128.414 31.2353 128.126 30.1893 128.04 29.0561C127.954 27.9228 127.925 25.9179 127.925 23.0994V18.3631C127.925 15.6027 127.954 13.6268 128.04 12.4936C128.126 11.3313 128.385 10.2853 128.788 9.32641C129.219 8.36753 129.794 7.64111 130.513 7.11808C131.231 6.59506 132.094 6.3626 133.042 6.3626C133.962 6.3626 134.767 6.59506 135.515 7.08903C136.234 7.58299 136.837 8.28036 137.269 9.2683C137.7 10.2272 137.987 11.2732 138.073 12.4064C138.16 13.5397 138.188 15.5446 138.188 18.3631V23.0994ZM122.29 11.6219V18.6537C122.405 18.6537 122.52 18.6827 122.607 18.6827C123.009 18.6827 123.297 18.5084 123.469 18.1888C123.613 17.8691 123.699 17.2008 123.699 16.1838V13.9174C123.699 12.9876 123.613 12.3483 123.411 12.0868C123.239 11.7672 122.865 11.6219 122.29 11.6219ZM117.805 6.94374H122.319C123.526 6.94374 124.475 7.08903 125.108 7.40865C125.769 7.72828 126.258 8.16413 126.574 8.74527C126.89 9.32641 127.12 10.0238 127.235 10.8374C127.35 11.651 127.408 12.9295 127.408 14.6729V17.0846C127.408 18.828 127.293 20.1356 127.063 20.9201C126.833 21.7337 126.43 22.3439 125.826 22.7798C125.223 23.2156 124.446 23.419 123.469 23.419H122.262V34.5478H117.805V6.94374V6.94374ZM117.489 6.94374V12.4646H114.873V34.5188H110.417V12.4355H107.772V6.91469H117.489V6.94374ZM107.6 18.9443H103.143V14.1789C103.143 12.7842 103.086 11.9125 103 11.5638C102.913 11.2151 102.683 11.0408 102.367 11.0408C101.993 11.0408 101.764 11.2442 101.677 11.68C101.591 12.1159 101.534 13.0166 101.534 14.4114V27.1964C101.534 28.533 101.591 29.4047 101.677 29.8115C101.764 30.2183 101.993 30.4217 102.338 30.4217C102.655 30.4217 102.885 30.2183 103 29.8115C103.115 29.4047 103.143 28.4459 103.143 26.9349V23.4481H107.6V24.5232C107.6 27.3708 107.485 29.4047 107.226 30.5961C106.967 31.7874 106.421 32.8335 105.558 33.7342C104.696 34.635 103.632 35.0708 102.396 35.0708C101.102 35.0708 100.01 34.6931 99.1761 33.9376C98.3424 33.1821 97.7674 32.1361 97.4799 30.7704C97.1924 29.4338 97.0774 27.3998 97.0774 24.6975V16.6778C97.0774 14.7019 97.1062 13.191 97.1924 12.203C97.2787 11.2151 97.5374 10.2562 97.9399 9.32641C98.3711 8.39659 98.9461 7.67017 99.6936 7.14714C100.441 6.62412 101.304 6.3626 102.252 6.3626C103.575 6.3626 104.638 6.7694 105.501 7.58299C106.363 8.39659 106.91 9.41358 107.197 10.634C107.456 11.8544 107.6 13.7431 107.6 16.3291V18.9443V18.9443ZM96.5887 20.833V25.5692H90.9826V20.833H96.5887ZM85.7791 11.6219V18.6537C85.8941 18.6537 86.009 18.6827 86.0953 18.6827C86.4978 18.6827 86.7853 18.5084 86.9578 18.1888C87.1015 17.8691 87.1878 17.2008 87.1878 16.1838V13.9174C87.1878 12.9876 87.1015 12.3483 86.9003 12.0868C86.7278 11.7672 86.354 11.6219 85.7791 11.6219ZM81.2942 6.94374H85.8078C87.0153 6.94374 87.964 7.08903 88.5965 7.40865C89.2577 7.72828 89.7464 8.16413 90.0627 8.74527C90.3789 9.32641 90.6089 10.0238 90.7239 10.8374C90.8389 11.651 90.8964 12.9295 90.8964 14.6729V17.0846C90.8964 18.828 90.7814 20.1356 90.5514 20.9201C90.3214 21.7337 89.9189 22.3439 89.3152 22.7798C88.7115 23.2156 87.9352 23.419 86.9578 23.419H85.7503V34.5478H81.2942V6.94374V6.94374ZM72.9857 6.94374H80.4317V12.4646H77.4706V17.7239H80.2593V22.9541H77.4706V29.027H80.748V34.5478H73.0145V6.94374H72.9857ZM66.1722 22.0533V29.7825C66.776 29.7534 67.1785 29.5791 67.3509 29.3176C67.5234 29.027 67.6097 28.3296 67.6097 27.2255V24.6394C67.6097 23.4481 67.5234 22.7507 67.3797 22.4892C67.2072 22.2277 66.8047 22.0824 66.1722 22.0533ZM66.1722 11.6219V17.7529C66.3735 17.7529 66.5172 17.7239 66.6035 17.7239C67.0347 17.7239 67.2934 17.5495 67.4084 17.2008C67.5234 16.8522 67.5809 15.8642 67.5809 14.237C67.5809 13.3653 67.5234 12.7551 67.4372 12.4064C67.3509 12.0578 67.2072 11.8544 67.0635 11.7381C66.9197 11.7091 66.6035 11.651 66.1722 11.6219ZM61.6874 6.94374H66.1147C67.5234 6.94374 68.5872 7.11808 69.3059 7.46677C70.0246 7.81545 70.5996 8.54187 71.0596 9.58792C71.4908 10.663 71.7208 12.3774 71.7208 14.7601C71.7208 16.3582 71.577 17.4914 71.2608 18.1307C70.9446 18.7699 70.3121 19.2639 69.3921 19.5835C70.4271 19.9612 71.1171 20.5714 71.4908 21.4431C71.8645 22.3149 72.037 23.6515 72.037 25.453V28.01C72.037 29.8697 71.8933 31.2644 71.6345 32.1652C71.3758 33.0659 70.9446 33.6761 70.3696 33.9957C69.7946 34.3154 68.6159 34.4897 66.8047 34.4897H61.6586V6.94374H61.6874ZM53.3789 6.94374H60.8249V12.4646H57.8638V17.7239H60.6524V22.9541H57.8638V29.027H61.1412V34.5478H53.4077V6.94374H53.3789ZM52.459 18.9443H48.0029V14.1789C48.0029 12.7842 47.9454 11.9125 47.8591 11.5638C47.7729 11.2151 47.5429 11.0408 47.2266 11.0408C46.8529 11.0408 46.6229 11.2442 46.5367 11.68C46.4504 12.1159 46.3929 13.0166 46.3929 14.4114V27.1964C46.3929 28.533 46.4504 29.4047 46.5367 29.8115C46.6229 30.2183 46.8529 30.4217 47.1979 30.4217C47.5141 30.4217 47.7441 30.2183 47.8591 29.8115C47.9741 29.4047 48.0029 28.4459 48.0029 26.9349V23.4481H52.459V24.5232C52.459 27.3708 52.344 29.4047 52.0852 30.5961C51.8265 31.7874 51.2803 32.8335 50.4178 33.7342C49.5553 34.635 48.4916 35.0708 47.2554 35.0708C45.9617 35.0708 44.8692 34.6931 44.0355 33.9376C43.2018 33.1821 42.6268 32.1361 42.3393 30.7704C42.0518 29.4338 41.9368 27.3998 41.9368 24.6975V16.6778C41.9368 14.7019 41.9943 13.191 42.0518 12.203C42.1381 11.2151 42.3968 10.2562 42.7993 9.32641C43.2305 8.39659 43.8055 7.67017 44.553 7.14714C45.3005 6.62412 46.1629 6.3626 47.1116 6.3626C48.4341 6.3626 49.4978 6.7694 50.3603 7.58299C51.2228 8.39659 51.769 9.41358 52.0565 10.634C52.3152 11.8544 52.459 13.7431 52.459 16.3291V18.9443Z" fill="white"/>
</g>
<defs>
<clipPath id="clip0_103_2022">
<rect width="166" height="36" fill="white"/>
</clipPath>
</defs>
</svg>
