<svg width="190" height="40" viewBox="0 0 190 40" fill="none" xmlns="http://www.w3.org/2000/svg">
<path fill-rule="evenodd" clip-rule="evenodd" d="M19.3358 14.1725H29.8806V19.9193H19.3358V14.1725ZM12.7201 20.5327H23.2649V26.2795H12.7201V20.5327ZM12.7201 26.8929H18.6978V32.6398H12.7201V26.8929ZM19.3358 26.8929H29.8806V32.6398H19.3358V26.8929ZM24.1045 20.5327H34.6493V26.2795H24.1045V20.5327ZM30.5187 26.8929H41.0634V32.6398H30.5187V26.8929ZM12.7201 33.2532H23.2649V39H12.7201V33.2532ZM24.1045 33.2532H34.6493V39H24.1045V33.2532ZM35.4888 33.2532H46V39H35.4552V33.2532H35.4888ZM21.0485 1L39.6866 11.3636L39.1828 12.0739L21.0485 2.00085L4.35821 11.2991H8.79104V25.763H7.88433V12.1708H1L21.0485 1ZM12.7201 14.1725H18.6978V19.9193H12.7201V14.1725Z" fill="#347CCA"/>
<path fill-rule="evenodd" clip-rule="evenodd" d="M189 21.0493H183.9V15.7545C183.9 14.2048 183.834 13.2362 183.735 12.8488C183.636 12.4613 183.373 12.2676 183.011 12.2676C182.583 12.2676 182.32 12.4936 182.221 12.9779C182.123 13.4622 182.057 14.463 182.057 16.0127V30.2184C182.057 31.7035 182.123 32.672 182.221 33.124C182.32 33.576 182.583 33.802 182.978 33.802C183.34 33.802 183.604 33.576 183.735 33.124C183.867 32.672 183.9 31.6066 183.9 29.9278V26.0535H189V27.2481C189 30.4121 188.868 32.672 188.572 33.9958C188.276 35.3195 187.651 36.4817 186.664 37.4826C185.677 38.4834 184.459 38.9677 183.044 38.9677C181.563 38.9677 180.313 38.548 179.359 37.7086C178.404 36.8692 177.746 35.7069 177.417 34.1895C177.088 32.7043 176.957 30.4444 176.957 27.4418V18.531C176.957 16.3356 177.022 14.6568 177.088 13.559C177.187 12.4613 177.483 11.3959 177.944 10.3628C178.437 9.32965 179.095 8.52252 179.951 7.94138C180.807 7.36024 181.794 7.06967 182.88 7.06967C184.393 7.06967 185.611 7.52167 186.598 8.42566C187.585 9.32965 188.21 10.4596 188.539 11.8156C188.835 13.1716 189 15.2702 189 18.1436V21.0493V21.0493ZM166.361 1H168.434C168.401 2.71113 168.072 4.09941 167.48 5.16483C166.888 6.23025 166.065 6.74681 165.012 6.74681C163.959 6.74681 163.103 6.23025 162.544 5.16483C161.952 4.09941 161.656 2.74342 161.59 1.03229H163.663C163.761 2.7757 164.222 3.61512 165.045 3.61512C165.802 3.58284 166.262 2.74342 166.361 1ZM170.672 38.322H166.394V24.407L163.729 38.3543H159.286V7.71538H163.564V21.5336L166.427 7.71538H170.672V38.322V38.322ZM153.067 15.593C153.067 14.1725 153.001 13.2685 152.903 12.8488C152.804 12.4613 152.607 12.2676 152.31 12.2676C152.047 12.2676 151.85 12.4291 151.718 12.7519C151.586 13.0748 151.521 14.011 151.521 15.593V29.8955C151.521 31.6712 151.554 32.7689 151.652 33.1886C151.751 33.6083 151.948 33.802 152.277 33.802C152.607 33.802 152.837 33.576 152.936 33.0918C153.034 32.6075 153.067 31.4775 153.067 29.6695V15.593V15.593ZM158.168 25.6661C158.168 28.7332 158.135 30.9286 158.036 32.1878C157.937 33.4792 157.641 34.6415 157.18 35.7069C156.687 36.7723 156.029 37.5794 155.206 38.1606C154.383 38.7417 153.396 39 152.31 39C151.257 39 150.336 38.7417 149.481 38.1929C148.625 37.644 147.967 36.8692 147.473 35.7715C146.98 34.706 146.651 33.5438 146.552 32.2846C146.453 31.0255 146.42 28.7978 146.42 25.6661V20.4036C146.42 17.3364 146.453 15.141 146.552 13.8819C146.651 12.5905 146.947 11.4282 147.407 10.3628C147.901 9.29737 148.559 8.49023 149.382 7.90909C150.204 7.32795 151.192 7.06967 152.277 7.06967C153.33 7.06967 154.252 7.32795 155.107 7.87681C155.93 8.42566 156.621 9.20051 157.115 10.2982C157.608 11.3636 157.937 12.5259 158.036 13.785C158.135 15.0442 158.168 17.2719 158.168 20.4036V25.6661ZM139.971 12.9133V20.7264C140.102 20.7264 140.234 20.7587 140.333 20.7587C140.793 20.7587 141.123 20.565 141.32 20.2099C141.484 19.8547 141.583 19.1121 141.583 17.9822V15.4639C141.583 14.4308 141.484 13.7205 141.254 13.4299C141.057 13.0748 140.629 12.9133 139.971 12.9133ZM134.838 7.71538H140.004C141.386 7.71538 142.472 7.87681 143.196 8.23195C143.952 8.58709 144.512 9.07137 144.874 9.71708C145.236 10.3628 145.499 11.1376 145.631 12.0416C145.762 12.9456 145.828 14.3662 145.828 16.3033V18.983C145.828 20.9201 145.696 22.373 145.433 23.2447C145.17 24.1487 144.709 24.8267 144.018 25.311C143.327 25.7952 142.439 26.0212 141.32 26.0212H139.938V38.3866H134.838V7.71538V7.71538ZM134.476 7.71538V13.8496H131.481V38.3543H126.381V13.8173H123.354V7.68309H134.476V7.71538ZM123.156 21.0493H118.056V15.7545C118.056 14.2048 117.99 13.2362 117.891 12.8488C117.793 12.4613 117.529 12.2676 117.167 12.2676C116.74 12.2676 116.476 12.4936 116.378 12.9779C116.279 13.4622 116.213 14.463 116.213 16.0127V30.2184C116.213 31.7035 116.279 32.672 116.378 33.124C116.476 33.576 116.74 33.802 117.134 33.802C117.496 33.802 117.76 33.576 117.891 33.124C118.023 32.672 118.056 31.6066 118.056 29.9278V26.0535H123.156V27.2481C123.156 30.4121 123.025 32.672 122.728 33.9958C122.432 35.3195 121.807 36.4817 120.82 37.4826C119.833 38.4834 118.615 38.9677 117.2 38.9677C115.719 38.9677 114.469 38.548 113.515 37.7086C112.561 36.8692 111.902 35.7069 111.573 34.1895C111.244 32.7043 111.113 30.4444 111.113 27.4418V18.531C111.113 16.3356 111.146 14.6568 111.244 13.559C111.343 12.4613 111.639 11.3959 112.1 10.3628C112.593 9.32965 113.252 8.52252 114.107 7.94138C114.963 7.36024 115.95 7.06967 117.036 7.06967C118.549 7.06967 119.767 7.52167 120.754 8.42566C121.741 9.32965 122.366 10.4596 122.695 11.8156C122.992 13.1716 123.156 15.2702 123.156 18.1436V21.0493V21.0493ZM110.553 23.1478V28.4104H104.137V23.1478H110.553ZM98.1809 12.9133V20.7264C98.3125 20.7264 98.4441 20.7587 98.5428 20.7587C99.0035 20.7587 99.3326 20.565 99.53 20.2099C99.6945 19.8547 99.7932 19.1121 99.7932 17.9822V15.4639C99.7932 14.4308 99.6945 13.7205 99.4642 13.4299C99.2667 13.0748 98.839 12.9133 98.1809 12.9133ZM93.0476 7.71538H98.2138C99.5958 7.71538 100.682 7.87681 101.406 8.23195C102.162 8.58709 102.722 9.07137 103.084 9.71708C103.446 10.3628 103.709 11.1376 103.841 12.0416C103.972 12.9456 104.038 14.3662 104.038 16.3033V18.983C104.038 20.9201 103.906 22.373 103.643 23.2447C103.38 24.1487 102.919 24.8267 102.228 25.311C101.537 25.7952 100.649 26.0212 99.53 26.0212H98.148V38.3866H93.0476V7.71538V7.71538ZM83.5379 7.71538H92.0604V13.8496H88.6712V19.6933H91.863V25.5047H88.6712V32.2523H92.4224V38.3866H83.5708V7.71538H83.5379ZM75.7393 24.5038V33.0918C76.4303 33.0595 76.891 32.8658 77.0885 32.5752C77.2859 32.2523 77.3846 31.4775 77.3846 30.2506V27.3772C77.3846 26.0535 77.2859 25.2787 77.1214 24.9881C76.9239 24.6975 76.4632 24.5361 75.7393 24.5038ZM75.7393 12.9133V19.7256C75.9697 19.7256 76.1342 19.6933 76.2329 19.6933C76.7265 19.6933 77.0226 19.4996 77.1543 19.1121C77.2859 18.7247 77.3517 17.627 77.3517 15.819C77.3517 14.8505 77.2859 14.1725 77.1872 13.785C77.0885 13.3976 76.9239 13.1716 76.7594 13.0425C76.5949 13.0102 76.2329 12.9456 75.7393 12.9133ZM70.6061 7.71538H75.6735C77.2859 7.71538 78.5034 7.90909 79.326 8.29652C80.1487 8.68394 80.8068 9.49108 81.3333 10.6534C81.8268 11.8479 82.0901 13.7528 82.0901 16.4002C82.0901 18.1759 81.9256 19.435 81.5636 20.1453C81.2016 20.8556 80.4777 21.4044 79.4247 21.7596C80.6093 22.1793 81.3991 22.8573 81.8268 23.8258C82.2546 24.7944 82.452 26.2795 82.452 28.2812V31.1223C82.452 33.1886 82.2875 34.7383 81.9914 35.7392C81.6952 36.74 81.2016 37.418 80.5435 37.7732C79.8854 38.1283 78.5363 38.322 76.4632 38.322H70.5732V7.71538H70.6061ZM61.0964 7.71538H69.6189V13.8496H66.2296V19.6933H69.4215V25.5047H66.2296V32.2523H69.9809V38.3866H61.1293V7.71538H61.0964ZM60.0434 21.0493H54.9431V15.7545C54.9431 14.2048 54.8772 13.2362 54.7785 12.8488C54.6798 12.4613 54.4166 12.2676 54.0546 12.2676C53.6268 12.2676 53.3636 12.4936 53.2649 12.9779C53.1662 13.4622 53.1003 14.463 53.1003 16.0127V30.2184C53.1003 31.7035 53.1662 32.672 53.2649 33.124C53.3636 33.576 53.6268 33.802 54.0217 33.802C54.3837 33.802 54.6469 33.576 54.7785 33.124C54.9102 32.672 54.9431 31.6066 54.9431 29.9278V26.0535H60.0434V27.2481C60.0434 30.4121 59.9118 32.672 59.6156 33.9958C59.3195 35.3195 58.6943 36.4817 57.7071 37.4826C56.72 38.4834 55.5025 38.9677 54.0875 38.9677C52.6068 38.9677 51.3564 38.548 50.4021 37.7086C49.4478 36.8692 48.7897 35.7069 48.4607 34.1895C48.1316 32.7043 48 30.4444 48 27.4418V18.531C48 16.3356 48.0658 14.6568 48.1316 13.559C48.2303 12.4613 48.5265 11.3959 48.9872 10.3628C49.4807 9.32965 50.1389 8.52252 50.9944 7.94138C51.8499 7.36024 52.8371 7.06967 53.923 7.06967C55.4366 7.06967 56.6541 7.52167 57.6413 8.42566C58.6285 9.32965 59.2537 10.4596 59.5827 11.8156C59.8789 13.1716 60.0434 15.2702 60.0434 18.1436V21.0493Z" fill="#101B22"/>
</svg>
