<svg width="42" height="42" viewBox="0 0 42 42" fill="none" xmlns="http://www.w3.org/2000/svg">
<path fill-rule="evenodd" clip-rule="evenodd" d="M4.19178 0.0980525C3.40488 0.272684 2.81425 0.527486 2.20496 0.95503C1.2614 1.61725 0.607233 2.49977 0.225123 3.62593L0 4.28946V13.1196V21.9498L0.225123 22.6133C0.464137 23.3177 0.899425 24.0579 1.40104 24.6127C2.1309 25.4201 3.50499 26.0896 4.71255 26.2261L5.21918 26.2834V29.6642C5.21918 33.007 5.22123 33.0493 5.40411 33.4116C5.73074 34.059 6.50523 34.3013 7.15701 33.96C7.26263 33.9046 9.34348 32.1512 11.7812 30.0635L16.2132 26.2676L23.0245 26.2444L29.8356 26.2211L30.5108 25.9926C31.2708 25.7353 32.2489 25.1213 32.7085 24.6127C33.2102 24.0579 33.6455 23.3177 33.8845 22.6133L34.1096 21.9498V13.1196V4.28946L33.8809 3.61467C33.6235 2.8552 33.009 1.87772 32.5002 1.41831C31.945 0.916999 31.2044 0.48198 30.4996 0.243114L29.8356 0.0181293L17.2603 0.0033439C7.04408 -0.0086487 4.59238 0.00909378 4.19178 0.0980525ZM29.5795 2.70258C30.4083 2.9403 31.1856 3.7171 31.4235 4.54541C31.5625 5.02972 31.5625 21.2095 31.4235 21.6938C31.1856 22.5221 30.4083 23.299 29.5795 23.5367C29.3317 23.6077 27.4071 23.6342 22.3877 23.6355C15.8468 23.6372 15.5193 23.6444 15.2055 23.7921C15.0247 23.8773 13.3048 25.2969 11.3836 26.9467L7.89041 29.9464L7.84932 27.2623C7.80238 24.1962 7.79581 24.1655 7.11082 23.8185C6.79578 23.6589 6.61784 23.6337 5.80718 23.6337C5.29085 23.6337 4.71616 23.59 4.53008 23.5367C3.70126 23.299 2.92397 22.5221 2.68611 21.6938C2.54704 21.2095 2.54704 5.02972 2.68611 4.54541C2.91674 3.74224 3.68942 2.95155 4.47945 2.71022C4.91038 2.57855 29.1215 2.57124 29.5795 2.70258ZM8.58592 8.04742C8.19115 8.24636 7.84932 8.7705 7.84932 9.17686C7.84932 9.58321 8.19115 10.1073 8.58592 10.3063L8.95266 10.4911H17.0548H25.1569L25.5237 10.3063C25.9184 10.1073 26.2603 9.58321 26.2603 9.17686C26.2603 8.7705 25.9184 8.24636 25.5237 8.04742L25.1569 7.8626H17.0548H8.95266L8.58592 8.04742ZM37.5618 8.23839C37.1849 8.43488 37.0456 8.58988 36.8973 8.97799C36.6164 9.71315 36.9178 10.2568 37.8902 10.7694C38.3755 11.0252 38.6259 11.2194 38.8465 11.5111C39.4411 12.2974 39.411 11.7904 39.411 20.9845C39.411 27.0879 39.3856 29.3294 39.3139 29.5794C39.076 30.4077 38.2987 31.1845 37.4699 31.4222C37.2838 31.4755 36.7092 31.5192 36.1928 31.5192C35.3822 31.5192 35.2042 31.5444 34.8892 31.704C34.2042 32.051 34.1976 32.0817 34.1507 35.1479L34.1096 37.8319L30.6164 34.8322C28.6952 33.1824 26.9753 31.7628 26.7945 31.6777C26.4818 31.5304 26.1718 31.5228 20.4247 31.5228C14.7106 31.5228 14.3653 31.5311 14.047 31.6756C13.0938 32.1082 13.0938 33.5587 14.047 33.9913C14.3647 34.1355 14.7042 34.1442 20.082 34.1459L25.7804 34.1477L30.2157 37.9463C32.655 40.0355 34.7374 41.7901 34.843 41.8455C35.4948 42.1868 36.2693 41.9446 36.5959 41.2971C36.7788 40.9348 36.7808 40.8925 36.7808 37.5498V34.1689L37.2875 34.1117C38.495 33.9752 39.8691 33.3056 40.599 32.4983C41.1006 31.9434 41.5359 31.2032 41.7749 30.4989L42 29.8353V21.0052V12.175L41.7679 11.5187C41.2285 9.99293 40.2078 8.88985 38.7793 8.28842C38.2768 8.0769 37.9014 8.06146 37.5618 8.23839ZM8.58592 13.3044C8.19115 13.5034 7.84932 14.0275 7.84932 14.4339C7.84932 14.8402 8.19115 15.3644 8.58592 15.5633L8.95266 15.7481H14.4247H19.8967L20.2634 15.5633C20.6582 15.3644 21 14.8402 21 14.4339C21 14.0275 20.6582 13.5034 20.2634 13.3044L19.8967 13.1196H14.4247H8.95266L8.58592 13.3044Z" fill="#347CCA"/>
</svg>
