<svg width="42" height="36" viewBox="0 0 42 36" fill="none" xmlns="http://www.w3.org/2000/svg">
<path id="about_Icon_3" d="M11.5391 9.53906L14 12M22 3H32.6C34.8402 3 35.9603 3 36.816 3.43597C37.5686 3.81947 38.1805 4.43139 38.564 5.18404C39 6.03969 39 7.15979 39 9.4V27M3 27V20M13 6C13 8.76142 10.7614 11 8 11C5.23858 11 3 8.76142 3 6C3 3.23858 5.23858 1 8 1C10.7614 1 13 3.23858 13 6ZM1 27H41V28.6C41 30.8402 41 31.9603 40.564 32.816C40.1805 33.5686 39.5686 34.1805 38.816 34.564C37.9603 35 36.8402 35 34.6 35H7.4C5.15979 35 4.03968 35 3.18404 34.564C2.43139 34.1805 1.81947 33.5686 1.43597 32.816C1 31.9603 1 30.8402 1 28.6V27Z" stroke="white" stroke-width="2" stroke-linecap="round" stroke-linejoin="round"/>
</svg>
