<svg width="32" height="32" viewBox="0 0 32 32" fill="none" xmlns="http://www.w3.org/2000/svg">
<path d="M15.4212 6.85278V19.4121H9.68755C8.31173 19.4121 6.99225 18.8656 6.0194 17.8927C5.04654 16.9199 4.5 15.6004 4.5 14.2246V12.0403C4.5 10.6645 5.04654 9.34504 6.0194 8.37218C6.99225 7.39933 8.31173 6.85278 9.68755 6.85278H15.4212Z" fill="url(#paint0_linear_76_43689)"/>
<path d="M27.1853 4.35958C26.9396 4.18282 26.6554 4.06697 26.3562 4.02159C26.0569 3.97621 25.7512 4.00259 25.4641 4.09856L16.5088 7.08113V19.184L25.4641 22.1665C25.6587 22.2321 25.8628 22.2653 26.0681 22.2648C26.3191 22.2651 26.5677 22.2159 26.7997 22.1201C27.0317 22.0242 27.2425 21.8835 27.4201 21.7061C27.5978 21.5287 27.7386 21.3181 27.8348 21.0862C27.9309 20.8543 27.9804 20.6057 27.9804 20.3547V5.91039C27.9802 5.60739 27.908 5.30878 27.7698 5.03915C27.6315 4.76952 27.4312 4.5366 27.1853 4.35958Z" fill="url(#paint1_linear_76_43689)"/>
<path d="M16.677 26.8167C16.2761 27.3291 15.7394 27.7185 15.128 27.9407C14.5165 28.1629 13.855 28.2089 13.2187 28.0735C12.5824 27.938 11.9969 27.6266 11.529 27.1746C11.0611 26.7226 10.7295 26.1483 10.5721 25.5171L9.31616 20.4824C9.43906 20.5006 9.56331 20.5079 9.68748 20.5043H16.4695L17.2995 23.8352C17.4292 24.3468 17.4405 24.8812 17.3327 25.3979C17.2248 25.9145 17.0006 26.3997 16.677 26.8167Z" fill="url(#paint2_linear_76_43689)"/>
<defs>
<linearGradient id="paint0_linear_76_43689" x1="6.85937" y1="18.4185" x2="13.4417" y2="8.67554" gradientUnits="userSpaceOnUse">
<stop stop-color="#00AAE3"/>
<stop offset="1" stop-color="#58C3BD"/>
</linearGradient>
<linearGradient id="paint1_linear_76_43689" x1="18.9871" y1="20.8198" x2="29.2822" y2="9.81334" gradientUnits="userSpaceOnUse">
<stop stop-color="#00AAE3"/>
<stop offset="1" stop-color="#58C3BD"/>
</linearGradient>
<linearGradient id="paint2_linear_76_43689" x1="11.0639" y1="27.543" x2="14.7457" y2="20.9304" gradientUnits="userSpaceOnUse">
<stop stop-color="#00AAE3"/>
<stop offset="1" stop-color="#58C3BD"/>
</linearGradient>
</defs>
</svg>
