<svg width="15" height="16" viewBox="0 0 15 16" fill="none" xmlns="http://www.w3.org/2000/svg">
<g id="mail-alt">
<path id="Icon" d="M1.72222 12.2857L5.33333 8M13.2778 12.2857L9.66667 8M1 5.14286L6.21803 8.58331C6.68134 8.8888 6.913 9.04154 7.16339 9.10088C7.38466 9.15332 7.61534 9.15332 7.83661 9.10088C8.087 9.04154 8.31866 8.8888 8.78197 8.58331L14 5.14286M3.31111 13H11.6889C12.4979 13 12.9023 13 13.2113 12.8443C13.4831 12.7073 13.7041 12.4888 13.8426 12.22C14 11.9144 14 11.5144 14 10.7143V5.28571C14 4.48564 14 4.0856 13.8426 3.78001C13.7041 3.51121 13.4831 3.29267 13.2113 3.1557C12.9023 3 12.4979 3 11.6889 3H3.31111C2.50215 3 2.09766 3 1.78868 3.1557C1.51689 3.29267 1.29592 3.51121 1.15744 3.78001C1 4.0856 1 4.48564 1 5.28571V10.7143C1 11.5144 1 11.9144 1.15744 12.22C1.29592 12.4888 1.51689 12.7073 1.78868 12.8443C2.09766 13 2.50215 13 3.31111 13Z" stroke="#38AEE4" stroke-width="1.5" stroke-linecap="round" stroke-linejoin="round"/>
</g>
</svg>
