<svg width="11" height="10" viewBox="0 0 11 10" fill="none" xmlns="http://www.w3.org/2000/svg">
<g clip-path="url(#clip0_2260_1017)">
<path d="M10.2785 0.22908C10.2083 0.158765 10.125 0.10298 10.0332 0.0649179C9.94147 0.0268556 9.84311 0.00726357 9.74377 0.00726357C9.64443 0.00726357 9.54607 0.0268556 9.45431 0.0649179C9.36255 0.10298 9.2792 0.158765 9.20903 0.22908L5.5 3.93053L1.79097 0.221495C1.72075 0.151273 1.63738 0.0955689 1.54563 0.0575646C1.45388 0.0195603 1.35554 7.39916e-10 1.25623 0C1.15692 -7.39917e-10 1.05859 0.0195603 0.966835 0.0575646C0.875085 0.0955689 0.791718 0.151273 0.721495 0.221495C0.651273 0.291718 0.595569 0.375085 0.557565 0.466835C0.51956 0.558585 0.5 0.656923 0.5 0.756233C0.5 0.855543 0.51956 0.95388 0.557565 1.04563C0.595569 1.13738 0.651273 1.22075 0.721495 1.29097L4.43053 5L0.721495 8.70903C0.651273 8.77925 0.595569 8.86262 0.557565 8.95437C0.51956 9.04612 0.5 9.14446 0.5 9.24377C0.5 9.34308 0.51956 9.44141 0.557565 9.53316C0.595569 9.62492 0.651273 9.70828 0.721495 9.7785C0.791718 9.84873 0.875085 9.90443 0.966835 9.94244C1.05859 9.98044 1.15692 10 1.25623 10C1.35554 10 1.45388 9.98044 1.54563 9.94244C1.63738 9.90443 1.72075 9.84873 1.79097 9.7785L5.5 6.06947L9.20903 9.7785C9.27925 9.84873 9.36262 9.90443 9.45437 9.94244C9.54612 9.98044 9.64446 10 9.74377 10C9.84308 10 9.94141 9.98044 10.0332 9.94244C10.1249 9.90443 10.2083 9.84873 10.2785 9.7785C10.3487 9.70828 10.4044 9.62492 10.4424 9.53316C10.4804 9.44141 10.5 9.34308 10.5 9.24377C10.5 9.14446 10.4804 9.04612 10.4424 8.95437C10.4044 8.86262 10.3487 8.77925 10.2785 8.70903L6.56947 5L10.2785 1.29097C10.5667 1.00274 10.5667 0.517308 10.2785 0.22908Z" fill="#383B56"/>
</g>
<defs>
<clipPath id="clip0_2260_1017">
<rect width="10" height="10" fill="white" transform="translate(0.5)"/>
</clipPath>
</defs>
</svg>
