<svg width="328" height="66" viewBox="0 0 328 66" fill="none" xmlns="http://www.w3.org/2000/svg">
<g clip-path="url(#clip0_45_7364)">
<path d="M43.8218 7.53018C42.7152 6.86575 41.166 6.64428 39.838 7.08723C38.7314 7.53018 37.4035 7.30871 36.2969 6.64428C35.1903 5.97985 34.5263 4.87247 34.0837 3.76508C33.8623 2.43622 32.977 1.10736 31.6491 0.442935C30.5425 -0.221495 29.2146 -0.442971 27.8866 -1.83535e-05C26.5587 0.442935 25.4521 1.10736 24.7881 2.21475C23.4602 4.65099 24.3455 7.53018 26.5587 8.85904C27.6653 9.52347 29.2146 9.74495 30.5425 9.302C31.6491 8.85904 32.977 9.08052 34.0837 9.74495C35.1903 10.4094 35.8542 11.2953 36.0756 12.6241V12.8456C36.2969 14.1745 37.1822 15.2819 38.2888 15.9463C38.9528 16.3892 39.838 16.6107 40.7233 16.6107C41.166 16.6107 41.6086 16.6107 42.0513 16.3892C43.3792 15.9463 44.4858 15.2819 45.1498 14.1745C46.2564 13.2886 46.4777 11.9597 46.0351 10.6309C45.8138 9.302 44.9285 8.19461 43.8218 7.53018Z" fill="#BBD034"/>
<path d="M24.3455 20.1545C24.5668 21.4833 25.4521 22.5907 26.5588 23.2551C27.2227 23.6981 28.108 23.9196 28.9933 23.9196C29.4359 23.9196 29.8786 23.9196 30.3212 23.6981C31.6492 23.2551 32.7558 22.5907 33.4198 21.4833C34.7477 19.0471 33.8624 16.1679 31.6492 14.839C30.5426 14.1746 28.9933 13.9531 27.6654 14.3961C26.5588 14.839 25.2308 14.6175 24.1242 13.9531C23.0176 13.2887 22.3536 12.1813 21.911 11.0739C21.6897 9.52358 20.8044 8.4162 19.6978 7.75177C18.5911 7.08734 17.2632 6.86587 15.9353 7.30882C14.6073 7.75177 13.5007 8.4162 12.8368 9.52359C12.1728 10.631 11.9515 11.9598 12.3941 13.2887C12.8368 14.6175 13.5007 15.7249 14.6073 16.3894C15.7139 17.0538 17.2632 17.2753 18.5911 16.8323C19.9191 16.3894 21.247 16.3894 22.3536 17.0538C23.4602 17.7182 24.1242 18.8256 24.3455 20.1545Z" fill="#BBD034"/>
<path d="M32.5344 43.1876C31.6491 42.5232 30.9851 41.1943 30.9851 39.8655C30.9851 38.5366 31.4278 37.4292 32.5344 36.5433C33.641 35.6574 34.0837 34.3285 34.0837 32.9997C34.0837 30.342 31.8704 28.1272 29.2146 28.1272C26.5587 28.1272 24.3455 30.342 24.3455 32.9997C24.3455 34.3285 25.0094 35.6574 26.116 36.7648C27.0013 37.6507 27.444 38.7581 27.444 40.0869C27.444 41.4158 27.0013 42.5232 26.116 43.4091C25.0094 44.295 24.3455 45.6238 24.3455 47.1742C24.3455 48.503 25.0094 49.8319 26.116 50.9393C27.0013 51.8252 27.444 52.9326 27.444 54.2614C27.444 55.5903 27.0013 56.6977 26.116 57.5836C25.0094 58.4695 24.3455 59.7983 24.3455 61.3487C24.3455 64.0064 26.5587 66.2212 29.2146 66.2212C31.8704 66.2212 34.0837 64.0064 34.0837 61.3487C34.0837 60.0198 33.4197 58.691 32.3131 57.5836C31.4278 56.6977 30.7638 55.5903 30.7638 54.2614C30.7638 52.9326 31.2065 51.8252 32.3131 50.9393C33.4197 50.0534 33.8623 48.7245 33.8623 47.3957C34.0837 45.6238 33.641 44.295 32.5344 43.1876Z" fill="#BBD034"/>
<path d="M44.4859 36.3221C43.6006 35.4362 42.9367 34.3288 42.9367 33C42.9367 31.6711 43.3793 30.5637 44.4859 29.6778C45.5925 28.7919 46.0352 27.4631 46.0352 26.1342C46.0352 23.4765 43.822 21.2617 41.1661 21.2617C38.5102 21.2617 36.297 23.4765 36.297 26.1342C36.297 27.4631 36.961 28.7919 38.0676 29.8993C38.9529 30.7852 39.6168 31.8926 39.6168 33.2214C39.6168 34.5503 39.1742 35.6577 38.2889 36.5436C37.1823 37.4295 36.5183 38.7584 36.5183 40.3087C36.5183 41.6376 37.1823 42.9664 38.2889 44.0738C39.1742 44.9597 39.8382 46.0671 39.8382 47.3959C39.8382 48.7248 39.3955 49.8322 38.5102 50.7181C37.4036 51.604 36.7396 52.9329 36.7396 54.4832C36.7396 57.1409 38.9529 59.3557 41.6087 59.3557C44.2646 59.3557 46.4778 57.1409 46.4778 54.4832C46.4778 53.1543 45.8139 51.8255 44.7073 50.7181C43.822 49.8322 43.158 48.7248 43.158 47.3959C43.158 46.0671 43.6006 44.9597 44.7073 44.0738C45.8139 43.1879 46.2565 41.859 46.2565 40.5302C46.2565 38.5369 45.5925 37.208 44.4859 36.3221Z" fill="#BBD034"/>
<path d="M56.6586 36.5437C57.7652 35.6578 58.2078 34.3289 58.2078 33.0001C58.2078 31.6712 57.5438 30.3423 56.4372 29.235C55.5519 28.3491 54.888 27.2417 54.888 25.9128C54.888 24.584 55.3306 23.4766 56.4372 22.5907C57.5438 21.7048 57.9865 20.3759 57.9865 19.047C57.9865 16.3893 55.7733 14.1746 53.1174 14.1746C50.4615 14.1746 48.2483 16.3893 48.2483 19.047C48.2483 20.3759 48.9123 21.7048 50.0189 22.8121C50.9042 23.6981 51.5681 24.8054 51.5681 26.1343C51.5681 27.4632 51.1255 28.5705 50.2402 29.4564C49.1336 30.3423 48.4696 31.6712 48.4696 33.2215C48.4696 34.5504 49.1336 35.8793 50.2402 36.9866C51.1255 37.8726 51.7895 38.9799 51.7895 40.3088C51.7895 41.6377 51.3468 42.745 50.4615 43.6309C49.3549 44.5168 48.6909 45.8457 48.6909 47.396C48.6909 50.0538 50.9042 52.2685 53.56 52.2685C56.2159 52.2685 58.4291 50.0538 58.4291 47.396C58.4291 46.0672 57.7652 44.7383 56.6586 43.6309C55.7733 42.745 55.1093 41.6377 55.1093 40.3088C55.1093 38.7585 55.7733 37.4296 56.6586 36.5437Z" fill="#BBD034"/>
<path d="M19.4764 21.7045C18.1485 21.0401 16.8206 20.8186 15.4926 21.2616C14.1647 21.7045 13.0581 21.483 11.9515 20.8186C10.8449 20.1542 10.1809 19.0468 9.73825 17.9394C9.51693 16.6105 8.63164 15.5032 7.3037 14.6173C5.09047 13.2884 1.99196 14.1743 0.664024 16.6105C5.64897e-05 17.7179 -0.221266 19.0468 0.221379 20.3756C0.664024 21.7045 1.32799 22.8119 2.4346 23.4763C3.54122 24.1408 5.09048 24.3622 6.41841 23.9193C7.52502 23.4763 8.85296 23.6978 9.95957 24.3622C11.0662 25.0267 11.7302 25.9126 11.9515 27.2414V27.4629C12.1728 28.7918 13.0581 29.8991 14.1647 30.5636C15.2713 30.785 16.1566 31.0065 17.0419 31.0065C17.4845 31.0065 17.9272 31.0065 18.3698 30.785C19.6978 30.3421 20.8044 29.6777 21.4683 28.5703C22.575 26.134 21.911 23.0334 19.4764 21.7045Z" fill="#BBD034"/>
<path d="M19.4764 49.6107C18.1485 48.9463 16.8205 48.7248 15.4926 49.1678C14.386 49.6107 13.058 49.3893 11.9514 48.7248C10.8448 48.0604 10.1808 46.953 9.7382 45.8456C9.51688 44.5168 8.63159 43.1879 7.30365 42.5235C6.19704 41.8591 4.8691 41.6376 3.54117 42.0805C2.21323 42.5235 1.10662 43.1879 0.442652 44.2953C-0.885284 46.7316 6.42165e-06 49.6107 2.21323 50.9396C3.54117 51.604 4.8691 51.8255 6.19704 51.3826C7.30365 50.9396 8.63159 51.1611 9.7382 51.8255C10.8448 52.4899 11.5088 53.3758 11.7301 54.7047V54.9262C11.9514 56.255 12.8367 57.3624 13.9433 58.0269C14.6073 58.4698 15.4926 58.6913 16.3779 58.6913C16.8205 58.6913 17.2632 58.6913 17.7058 58.4698C19.0337 58.0269 20.1404 57.3624 20.8043 56.255C22.5749 54.0403 21.9109 50.9396 19.4764 49.6107Z" fill="#BBD034"/>
<path d="M19.4763 35.6579C18.1483 34.9934 16.8204 34.9934 15.4925 35.4364C14.3858 35.8793 13.0579 35.6579 11.9513 34.9934C10.8447 34.329 10.1807 33.2216 9.73807 32.1142C9.51674 30.7854 8.63145 29.4565 7.30352 28.7921C4.86897 27.4632 1.99178 28.3491 0.663843 30.5639C-0.664092 33.0001 0.221198 35.8793 2.43442 37.2082C3.54104 37.8726 5.09029 38.0941 6.41823 37.6511C7.52484 37.2082 8.85278 37.4297 9.95939 38.0941C11.066 38.7585 11.9513 39.8659 12.1726 40.9733V41.1948C12.3939 42.5236 13.2792 43.631 14.3858 44.2954C15.2711 44.7384 15.9351 44.9599 16.8204 44.9599C18.591 44.9599 20.1402 44.074 21.0255 42.5236C22.5748 40.0874 21.9108 36.9867 19.4763 35.6579Z" fill="#BBD034"/>
<path d="M81.4467 22.8126H79.0121V18.383H74.143V22.5911H71.7085V11.9602H74.143V16.1683H79.0121V11.9602H81.4467V22.8126Z" fill="#7C7C7B"/>
<path d="M85.4305 22.8126H82.996L87.6437 11.9602H89.4143L94.0621 22.8126H91.6276L90.7423 20.8193H86.3158L85.4305 22.8126ZM89.857 18.6045L88.529 15.5038L87.2011 18.826H89.857V18.6045Z" fill="#7C7C7B"/>
<path d="M98.9313 17.2756L101.366 11.9602H104.022L100.038 20.1548C99.5953 21.0407 99.1526 21.7052 98.71 22.1481C98.2673 22.5911 97.6034 22.8126 96.9394 22.8126C96.0541 22.8126 95.3901 22.3696 94.7262 21.4837L96.2754 20.1548C96.4967 20.3763 96.7181 20.5978 96.9394 20.5978C97.1607 20.5978 97.6034 20.3763 97.6034 19.9334L92.5129 11.9602H95.3901L98.9313 17.2756Z" fill="#7C7C7B"/>
<path d="M111.768 11.9602H114.202V22.8126H111.768V18.6045C111.547 18.826 111.104 18.826 110.44 19.0475C109.997 19.0475 109.555 19.2689 109.112 19.2689C107.784 19.2689 106.677 19.0475 106.013 18.383C105.35 17.7186 104.907 16.8327 104.907 15.5038V11.9602H107.341V14.175C107.341 15.0609 107.563 15.9468 107.784 16.3897C108.005 16.8327 108.669 17.2756 109.555 17.2756C109.997 17.2756 110.44 17.2756 110.883 17.0542C111.325 16.8327 111.768 16.8327 111.989 16.6112V11.9602H111.768Z" fill="#7C7C7B"/>
<path d="M126.154 22.8126H123.719V18.383H118.85V22.5911H116.416V11.9602H118.85V16.1683H123.719V11.9602H126.154V22.8126Z" fill="#7C7C7B"/>
<path d="M128.146 17.2754C128.146 15.7251 128.588 14.3962 129.695 13.2889C130.802 12.1815 132.13 11.7385 133.679 11.7385C134.785 11.7385 135.671 11.96 136.777 12.6244C137.663 13.2889 138.327 13.9533 138.769 15.0607C138.991 15.9466 139.212 16.611 139.212 17.4969C139.212 19.0472 138.769 20.3761 137.663 21.4835C136.556 22.5909 135.228 23.0338 133.679 23.0338C132.13 23.0338 130.802 22.5909 129.695 21.4835C128.588 20.1546 128.146 18.8258 128.146 17.2754ZM131.466 15.0607C130.802 15.7251 130.58 16.3895 130.58 17.2754C130.58 18.1613 130.802 19.0473 131.466 19.4902C132.13 19.9332 132.794 20.3761 133.679 20.3761C134.564 20.3761 135.449 20.1546 135.892 19.4902C136.556 18.8258 136.777 18.1613 136.777 17.2754C136.777 16.3895 136.556 15.7251 135.892 15.0607C135.228 14.3962 134.564 14.1748 133.679 14.1748C132.794 14.1748 131.908 14.3962 131.466 15.0607Z" fill="#7C7C7B"/>
<path d="M145.63 19.4904H140.982V17.4971H145.63V19.4904Z" fill="#7C7C7B"/>
<path d="M149.614 14.175H146.073V11.9602H155.368V14.175H151.827V22.8126H149.393V14.175H149.614Z" fill="#7C7C7B"/>
<path d="M165.328 22.8126H156.918V11.9602H165.107V14.175H159.352V16.1683H164.885V18.383H159.352V20.5978H165.328V22.8126Z" fill="#7C7C7B"/>
<path d="M174.181 11.9602H177.058L173.074 17.2756L177.058 22.8126H174.181L171.746 19.2689L169.312 22.8126H166.435L170.418 17.2756L166.656 11.9602H169.533L171.968 15.2824L174.181 11.9602Z" fill="#7C7C7B"/>
<path d="M188.124 22.8126H185.911V18.383H181.042V22.5911H178.607V11.9602H181.042V16.1683H185.911V11.9602H188.124V22.8126Z" fill="#7C7C7B"/>
<path d="M197.862 16.1683L192.551 22.8126H190.559V11.9602H192.993V18.6045L198.305 11.9602H200.297V22.8126H197.862V16.1683Z" fill="#7C7C7B"/>
<path d="M209.15 11.9602H211.584V22.8126H209.15V18.6045C208.928 18.826 208.486 18.826 207.822 19.0475C207.379 19.0475 206.937 19.2689 206.494 19.2689C205.166 19.2689 204.281 19.0475 203.395 18.383C202.731 17.7186 202.289 16.8327 202.289 15.5038V11.9602H204.723V14.175C204.723 15.0609 204.945 15.9468 205.166 16.3897C205.387 16.8327 206.051 17.2756 206.937 17.2756C207.379 17.2756 207.601 17.2756 208.265 17.0542C208.707 16.8327 209.15 16.8327 209.371 16.6112V11.9602H209.15Z" fill="#7C7C7B"/>
<path d="M222.429 22.8126H214.019V11.9602H222.208V14.175H216.453V16.1683H221.987V18.383H216.453V20.5978H222.429V22.8126V22.8126Z" fill="#7C7C7B"/>
<path d="M232.61 19.2689L233.938 20.8193C233.495 21.4837 232.831 22.1481 231.946 22.3696C231.061 22.8126 230.175 23.034 229.29 23.034C227.52 23.034 226.192 22.5911 225.306 21.4837C224.2 20.3763 223.757 19.0475 223.757 17.4971C223.757 15.9468 224.2 14.6179 225.306 13.5105C226.413 12.4032 227.741 11.9602 229.29 11.9602C230.175 11.9602 231.061 12.1817 231.725 12.4032C232.61 12.8461 233.053 13.2891 233.495 13.9535L231.946 15.5038C231.725 15.0609 231.282 14.8394 230.839 14.6179C230.397 14.3964 229.954 14.3964 229.511 14.3964C228.626 14.3964 227.741 14.6179 227.077 15.2824C226.413 15.9468 226.192 16.6112 226.192 17.7186C226.192 18.6045 226.413 19.4904 227.077 20.1548C227.741 20.8193 228.405 21.0407 229.29 21.0407C230.839 20.5978 231.725 20.1548 232.61 19.2689Z" fill="#7C7C7B"/>
<path d="M237.922 22.8126H235.487V11.9602H237.922V16.1683L242.127 11.9602H245.225L240.578 16.8327L245.447 22.8126H242.348L238.807 18.383L238.143 19.2689V22.8126H237.922Z" fill="#7C7C7B"/>
<path d="M254.078 16.1683L248.767 22.8126H246.775V11.9602H249.209V18.6045L254.521 11.9602H256.513V22.8126H254.078V16.1683Z" fill="#7C7C7B"/>
<path d="M266.03 16.1681L260.718 22.8124H258.947V11.96H261.382V18.6043L266.694 11.96H268.686V22.8124H266.251V16.1681H266.03ZM260.718 9.08081H262.71C262.931 9.52376 263.153 9.96672 263.595 9.96672C263.816 9.96672 264.038 9.96672 264.259 9.74524C264.48 9.52376 264.48 9.30229 264.48 9.08081H266.472C266.472 9.74524 266.251 10.4097 265.587 10.8526C264.923 11.2956 264.259 11.5171 263.595 11.5171C262.71 11.5171 262.046 11.2956 261.603 10.8526C261.161 10.4097 260.939 9.74524 260.718 9.08081Z" fill="#7C7C7B"/>
<path d="M282.85 22.8126H274.661V11.9602H277.096V20.5978H281.522V11.9602H283.957V20.5978H285.285V24.5844H283.072V22.8126H282.85Z" fill="#7C7C7B"/>
<path d="M295.023 22.8126H286.613V11.9602H294.802V14.175H289.047V16.1683H294.58V18.383H289.047V20.5978H295.023V22.8126V22.8126Z" fill="#7C7C7B"/>
<path d="M306.753 22.8126H304.319V18.383H299.449V22.5911H297.015V11.9602H299.449V16.1683H304.319V11.9602H306.753V22.8126Z" fill="#7C7C7B"/>
<path d="M311.622 14.175H308.081V11.9602H317.376V14.175H313.835V22.8126H311.401V14.175H311.622Z" fill="#7C7C7B"/>
<path d="M321.36 19.2689V22.5911H318.926V11.9602H323.352C324.238 11.9602 324.901 12.1817 325.565 12.4032C326.229 12.6246 326.672 13.0676 327.115 13.5105C327.557 13.9535 327.779 14.8394 327.779 15.7253C327.779 16.6112 327.557 17.2756 327.115 17.9401C326.672 18.6045 326.008 18.826 325.344 19.0475C324.68 19.2689 324.016 19.4904 323.131 19.4904H321.36V19.2689ZM323.352 14.175H321.139V17.0542H323.131C324.459 17.0542 325.344 16.6112 325.344 15.5038C325.344 14.3964 324.68 14.175 323.352 14.175Z" fill="#7C7C7B"/>
<path d="M79.2335 31.6709L73.9217 38.3152H71.9298V27.4629H74.3644V34.1072L79.6761 27.4629H81.668V38.3152H79.2335V31.6709Z" fill="#7C7C7B"/>
<path d="M92.2915 34.7716L93.6194 36.3219C93.1768 36.9864 92.5128 37.6508 91.6275 37.8723C90.7422 38.3152 89.857 38.5367 88.9717 38.5367C87.2011 38.5367 85.8731 38.0938 84.9879 36.9864C83.8812 35.879 83.4386 34.5501 83.4386 32.9998C83.4386 31.4495 83.8812 30.1206 84.9879 29.0132C86.0945 27.9058 87.4224 27.4629 88.9717 27.4629C89.857 27.4629 90.7422 27.6844 91.4062 27.9058C92.2915 28.3488 92.9555 28.7918 93.1768 29.4562L91.6275 31.0065C91.4062 30.5636 90.9636 30.3421 90.5209 30.1206C90.0783 29.8991 89.6356 29.8991 89.193 29.8991C88.3077 29.8991 87.4224 30.1206 86.7584 30.785C86.0945 31.4495 85.8731 32.1139 85.8731 33.2213C85.8731 34.1072 86.0945 34.9931 86.7584 35.6575C87.4224 36.322 88.0864 36.5434 89.193 36.5434C90.5209 36.1005 91.6275 35.6575 92.2915 34.7716Z" fill="#7C7C7B"/>
<path d="M103.136 34.7716L104.464 36.3219C104.022 36.9864 103.358 37.6508 102.472 37.8723C101.587 38.3152 100.702 38.5367 99.8164 38.5367C98.0458 38.5367 96.7179 38.0938 95.8326 36.9864C94.726 35.879 94.2833 34.5501 94.2833 32.9998C94.2833 31.4495 94.726 30.1206 95.8326 29.0132C96.9392 27.9058 98.2671 27.4629 99.8164 27.4629C100.702 27.4629 101.587 27.6844 102.251 27.9058C103.136 28.3488 103.8 28.7918 104.022 29.4562L102.472 31.0065C102.251 30.5636 101.808 30.3421 101.366 30.1206C100.923 29.8991 100.48 29.8991 100.038 29.8991C99.1524 29.8991 98.2671 30.1206 97.6032 30.785C96.9392 31.4495 96.7179 32.1139 96.7179 33.2213C96.7179 34.1072 96.9392 34.9931 97.6032 35.6575C98.2671 36.322 98.9311 36.5434 100.038 36.5434C101.366 36.1005 102.472 35.6575 103.136 34.7716Z" fill="#7C7C7B"/>
<path d="M115.309 38.3152H112.874V29.899H109.555V31.2279C109.555 33.6641 109.112 35.436 108.669 36.5433C108.448 37.2078 108.005 37.8722 107.563 38.0937C107.12 38.3152 106.456 38.5366 105.571 38.5366C105.35 38.5366 105.128 38.5366 104.907 38.5366V36.3219C105.128 36.3219 105.128 36.3219 105.349 36.3219C105.792 36.3219 106.235 36.1004 106.456 35.6574C106.677 35.436 106.677 34.7715 106.899 33.8856C107.12 32.9997 107.12 31.4494 107.12 29.0131V27.9058H115.309V38.3152V38.3152Z" fill="#7C7C7B"/>
<path d="M126.154 38.3152H117.744V27.4629H125.933V29.6777H119.957V31.6709H125.49V33.8857H119.957V36.1005H126.154V38.3152Z" fill="#7C7C7B"/>
<path d="M129.474 40.0871H127.26V36.1005H128.367C129.031 34.5501 129.474 32.1139 129.474 28.7918V27.4629H137.441V36.1005H138.769V40.0871H136.556V38.3152H129.695V40.0871H129.474ZM135.007 29.6777H131.908V30.3421C131.908 32.7783 131.466 34.7716 131.023 36.1005H135.007V29.6777Z" fill="#7C7C7B"/>
<path d="M139.654 32.9998C139.654 31.4495 140.097 30.1206 141.204 29.0132C142.31 27.9058 143.638 27.4629 145.187 27.4629C146.294 27.4629 147.401 27.6844 148.286 28.3488C149.171 29.0132 149.835 29.6777 150.278 30.785C150.499 31.6709 150.721 32.3354 150.721 33.2213C150.721 34.7716 150.278 36.1005 149.171 37.2079C148.065 38.3152 146.737 38.7582 145.187 38.7582C143.638 38.7582 142.31 38.3152 141.204 37.2079C140.318 35.879 139.654 34.5501 139.654 32.9998ZM143.196 30.5636C142.532 31.228 142.31 31.8924 142.31 32.7783C142.31 33.6642 142.532 34.5501 143.196 34.9931C143.86 35.6575 144.524 35.879 145.409 35.879C146.294 35.879 147.179 35.6575 147.622 34.9931C148.286 34.3287 148.507 33.6642 148.507 32.7783C148.507 31.8924 148.286 31.228 147.622 30.5636C146.958 29.8991 146.294 29.6777 145.409 29.6777C144.524 29.6777 143.638 29.8991 143.196 30.5636Z" fill="#7C7C7B"/>
<path d="M157.582 38.3152H152.934V27.4629H157.803C158.91 27.4629 159.795 27.6844 160.459 28.1273C161.123 28.5703 161.565 29.4562 161.565 30.3421C161.565 31.228 161.123 32.1139 160.459 32.5569C161.344 32.9998 161.787 33.8857 161.787 34.9931C161.787 35.879 161.565 36.322 161.123 36.9864C160.68 37.6508 160.237 37.8723 159.574 38.0938C158.91 38.3152 158.467 38.3152 157.582 38.3152ZM157.36 29.6777H155.368V31.6709H157.582C158.024 31.6709 158.246 31.6709 158.688 31.4495C158.91 31.228 159.131 31.0065 159.131 30.785C159.131 30.5636 159.131 30.3421 158.91 30.1206C158.91 29.8991 158.688 29.8991 158.467 29.8991C158.246 29.8991 158.024 29.8991 158.024 29.6777C157.803 29.6777 157.582 29.6777 157.36 29.6777ZM157.582 33.8857H155.368V36.1005H157.36C157.582 36.1005 157.803 36.1005 158.024 36.1005C158.246 36.1005 158.467 36.1005 158.688 35.879C158.91 35.879 159.131 35.6575 159.131 35.436C159.352 35.436 159.352 35.2146 159.352 34.9931C159.352 34.7716 159.352 34.5501 159.131 34.3287C159.131 34.1072 158.91 34.1072 158.688 34.1072C158.467 34.1072 158.246 34.1072 158.024 33.8857C157.803 33.6642 157.803 33.8857 157.582 33.8857Z" fill="#7C7C7B"/>
<path d="M165.107 38.3152H162.672L167.541 27.4629H169.312L174.181 38.3152H171.746L170.418 36.3219H165.771L165.107 38.3152ZM169.533 34.3287L168.205 31.0065L166.877 34.3287H169.533Z" fill="#7C7C7B"/>
<path d="M184.804 38.3152H182.37V34.1072H177.501V38.3152H175.066V27.4629H177.501V31.6709H182.37V27.4629H184.804V38.3152Z" fill="#7C7C7B"/>
<path d="M194.543 31.6709L189.231 38.3152H187.239V27.4629H189.673V34.1072L194.985 27.4629H196.977V38.3152H194.543V31.6709Z" fill="#7C7C7B"/>
<path d="M208.486 38.3157H206.051V34.7721H204.281L201.404 38.3157H198.526L201.625 34.3291C200.961 34.1076 200.297 33.6647 199.854 33.2217C199.412 32.7788 199.19 32.1143 199.19 31.2284C199.19 30.3425 199.412 29.6781 199.854 29.2351C200.297 28.5707 200.961 28.3492 201.625 28.1278C202.289 27.9063 202.953 27.6848 203.838 27.6848H208.486V38.3157ZM203.617 32.5573H206.051V29.8996H203.838C202.51 29.8996 201.846 30.3425 201.846 31.2284C201.846 31.6714 202.068 31.8929 202.51 32.3358C202.732 32.3358 203.174 32.5573 203.617 32.5573Z" fill="#7C7C7B"/>
<path d="M217.339 38.3152H214.904V27.4629H217.117L220.659 32.5569L223.978 27.4629H226.192V38.3152H223.757V31.8924L220.88 36.1005H220.216L217.339 31.6709V38.3152V38.3152Z" fill="#7C7C7B"/>
<path d="M229.954 38.3152H227.52L232.389 27.4629H234.159L239.028 38.3152H236.594L235.708 36.3219H231.061L229.954 38.3152ZM234.602 34.3287L233.274 31.0065L231.946 34.3287H234.602Z" fill="#7C7C7B"/>
<path d="M241.241 29.6777H237.7V27.4629H246.996V29.6777H243.455V38.3152H241.241V29.6777Z" fill="#7C7C7B"/>
<path d="M256.955 38.3152H248.545V27.4629H256.955V29.6777H250.98V31.6709H256.513V33.8857H250.98V36.1005H256.955V38.3152Z" fill="#7C7C7B"/>
<path d="M261.603 34.9931V38.3152H259.169V27.4629H263.595C264.48 27.4629 265.144 27.6844 265.808 27.9058C266.472 28.1273 266.915 28.5703 267.358 29.0132C267.8 29.4562 268.022 30.3421 268.022 31.228C268.022 32.1139 267.8 32.7783 267.358 33.4428C266.915 34.1072 266.251 34.3287 265.587 34.5501C264.923 34.7716 264.259 34.9931 263.374 34.9931H261.603V34.9931ZM263.816 29.6777H261.603V32.5569H263.595C264.923 32.5569 265.808 32.1139 265.808 31.0065C265.808 29.8991 265.144 29.6777 263.816 29.6777Z" fill="#7C7C7B"/>
<path d="M277.317 31.6709L272.005 38.3152H270.013V27.4629H272.448V34.1072L277.76 27.4629H279.752V38.3152H277.317V31.6709Z" fill="#7C7C7B"/>
<path d="M283.735 38.3152H281.301L286.17 27.4629H287.941L292.81 38.3152H289.932L289.047 36.3219H284.399L283.735 38.3152ZM288.162 34.3287L286.834 31.0065L285.506 34.3287H288.162Z" fill="#7C7C7B"/>
<path d="M303.433 38.3152H300.999V29.899H297.679V31.2279C297.679 33.6641 297.236 35.436 296.794 36.5433C296.572 37.2078 296.13 37.8722 295.687 38.0937C295.244 38.3152 294.58 38.5366 293.695 38.5366C293.474 38.5366 293.252 38.5366 293.031 38.5366V36.3219C293.252 36.3219 293.252 36.3219 293.474 36.3219C293.916 36.3219 294.359 36.1004 294.58 35.6574C294.802 35.436 294.802 34.7715 295.023 33.8856C295.244 32.9997 295.244 31.4494 295.244 29.0131V27.9058H303.433V38.3152V38.3152Z" fill="#7C7C7B"/>
<path d="M305.425 32.9998C305.425 31.4495 305.868 30.1206 306.974 29.0132C308.081 27.9058 309.409 27.4629 310.958 27.4629C312.065 27.4629 313.171 27.6844 314.057 28.3488C314.942 29.0132 315.606 29.6777 316.049 30.785C316.27 31.6709 316.491 32.3354 316.491 33.2213C316.491 34.7716 316.049 36.1005 314.942 37.2079C313.835 38.3152 312.507 38.7582 310.958 38.7582C309.409 38.7582 308.081 38.3152 306.974 37.2079C305.868 35.879 305.425 34.5501 305.425 32.9998ZM308.745 30.5636C308.081 31.228 307.86 31.8924 307.86 32.7783C307.86 33.6642 308.081 34.5501 308.745 34.9931C309.409 35.6575 310.073 35.879 310.958 35.879C311.843 35.879 312.729 35.6575 313.171 34.9931C313.835 34.3287 314.057 33.6642 314.057 32.7783C314.057 31.8924 313.835 31.228 313.171 30.5636C312.507 29.8991 311.843 29.6777 310.958 29.6777C310.073 29.6777 309.409 29.8991 308.745 30.5636Z" fill="#7C7C7B"/>
<path d="M323.352 38.3152H318.704V27.4629H323.574C324.68 27.4629 325.565 27.6844 326.229 28.1273C326.893 28.5703 327.336 29.4562 327.336 30.3421C327.336 31.228 326.893 32.1139 326.229 32.5569C327.115 32.9998 327.557 33.8857 327.557 34.9931C327.557 35.879 327.336 36.322 326.893 36.9864C326.451 37.4293 326.008 37.8723 325.344 38.0938C324.68 38.3152 324.016 38.3152 323.352 38.3152ZM322.91 29.6777H320.918V31.6709H323.131C323.574 31.6709 323.795 31.6709 324.238 31.4495C324.459 31.228 324.68 31.0065 324.68 30.785C324.68 30.5636 324.68 30.3421 324.459 30.1206C324.459 29.8991 324.238 29.8991 324.016 29.8991C323.795 29.8991 323.574 29.8991 323.574 29.6777C323.352 29.6777 323.131 29.6777 322.91 29.6777ZM323.131 33.8857H320.918V36.1005H322.91C323.131 36.1005 323.352 36.1005 323.574 36.1005C323.795 36.1005 324.016 36.1005 324.238 35.879C324.459 35.879 324.68 35.6575 324.68 35.436C324.901 35.2146 324.902 34.9931 324.902 34.7716C324.902 34.5501 324.901 34.3287 324.68 34.1072C324.68 33.8857 324.459 33.8857 324.238 33.8857C324.016 33.8857 323.795 33.8857 323.574 33.6642C323.574 33.8857 323.352 33.8857 323.131 33.8857Z" fill="#7C7C7B"/>
<path d="M79.2335 47.396L73.9217 54.0403H71.9298V43.188H74.3644V49.8323L79.6761 43.188H81.668V54.0403H79.2335V47.396Z" fill="#7C7C7B"/>
<path d="M96.0541 50.275L97.382 51.8254C96.9394 52.4898 96.2754 53.1542 95.3901 53.3757C94.5048 53.8187 93.6195 54.0401 92.7342 54.0401C90.9637 54.0401 89.6357 53.5972 88.7504 52.4898C87.6438 51.3824 87.2012 50.0536 87.2012 48.5032C87.2012 46.9529 87.6438 45.624 88.7504 44.5166C89.857 43.4093 91.185 42.9663 92.7342 42.9663C93.6195 42.9663 94.5048 43.1878 95.1688 43.4093C95.8327 43.6307 96.4967 44.2952 96.9394 44.9596L95.6114 46.5099C95.3901 46.067 94.9475 45.8455 94.5048 45.624C94.0622 45.4026 93.6195 45.4026 93.1769 45.4026C92.2916 45.4026 91.4063 45.624 90.7423 46.2885C90.0784 46.9529 89.857 47.6173 89.857 48.7247C89.857 49.6106 90.0784 50.4965 90.7423 51.1609C91.4063 51.8254 92.0703 52.0468 92.9556 52.0468C94.2835 51.8254 95.1688 51.3824 96.0541 50.275Z" fill="#7C7C7B"/>
<path d="M107.341 53.8187H98.9312V42.9663H107.12V45.1811H101.366V47.1744H106.899V49.3891H101.366V51.6039H107.341V53.8187V53.8187Z" fill="#7C7C7B"/>
<path d="M111.768 50.4965V53.8187H109.333V42.9663H113.76C114.645 42.9663 115.309 43.1878 115.973 43.4093C116.637 43.6307 117.08 44.0737 117.522 44.5166C117.965 45.1811 118.186 45.8455 118.186 46.7314C118.186 47.6173 117.965 48.2817 117.522 48.9462C117.08 49.6106 116.416 49.8321 115.752 50.0536C115.088 50.275 114.424 50.4965 113.538 50.4965H111.768V50.4965ZM113.981 45.4026H111.768V48.2817H113.76C115.088 48.2817 115.973 47.8388 115.973 46.7314C115.973 45.624 115.309 45.4026 113.981 45.4026Z" fill="#7C7C7B"/>
<path d="M122.391 45.4028H118.85V43.188H128.367V45.4028H124.826V54.0403H122.391V45.4028Z" fill="#7C7C7B"/>
<path d="M136.999 47.396L131.687 54.0403H129.695V43.188H132.129V49.8323L137.441 43.188H139.433V54.0403H136.999V47.396Z" fill="#7C7C7B"/>
<path d="M148.95 54.0401H146.515V52.7113C144.966 52.7113 143.86 52.2683 142.753 51.6039C141.646 50.718 141.204 49.6106 141.204 48.2817C141.204 46.7314 141.646 45.624 142.753 44.9596C143.86 44.2952 144.966 43.8522 146.515 43.8522V42.9663H148.95V43.8522C150.499 43.8522 151.827 44.2952 152.712 44.9596C153.598 45.624 154.262 46.9529 154.262 48.2817C154.262 49.8321 153.819 50.9395 152.712 51.6039C151.606 52.2683 150.499 52.7113 148.95 52.7113V54.0401ZM143.638 48.2817C143.638 48.9462 143.86 49.6106 144.524 50.0536C145.188 50.4965 145.851 50.718 146.515 50.718V46.067C145.63 46.067 144.966 46.2885 144.302 46.5099C143.86 46.9529 143.638 47.3958 143.638 48.2817ZM148.95 46.067V50.718C150.721 50.718 151.827 50.0536 151.827 48.5032C151.827 47.6173 151.606 46.9529 151.163 46.7314C150.499 46.2885 149.835 46.067 148.95 46.067Z" fill="#7C7C7B"/>
<path d="M163.115 47.396L157.803 54.0403H155.811V43.188H158.246V49.8323L163.557 43.188H165.549V54.0403H163.115V47.396Z" fill="#7C7C7B"/>
<path d="M170.418 53.8187H167.984V42.9663H170.418V47.1744L174.623 42.9663H177.722L173.074 47.8388L177.943 53.8187H174.845L171.304 49.3891L170.418 50.275V53.8187Z" fill="#7C7C7B"/>
<path d="M180.378 53.8187H177.943L182.591 42.9663H184.362L189.009 53.8187H186.575L185.69 51.8254H181.263L180.378 53.8187ZM184.804 49.8321L183.476 46.5099L182.148 49.8321H184.804Z" fill="#7C7C7B"/>
<path d="M198.748 53.8187H190.559V42.9663H192.993V51.6039H197.42V42.9663H199.854V51.6039H201.182V55.5905H198.969V53.8187H198.748Z" fill="#7C7C7B"/>
<path d="M209.592 47.396L204.281 54.0403H202.289V43.188H204.723V49.8323L210.035 43.188H212.027V54.0403H209.592V47.396Z" fill="#7C7C7B"/>
<path d="M221.765 47.396L216.453 54.0403H214.462V43.188H216.896V49.8323L222.208 43.188H224.2V54.0403H221.765V47.396V47.396Z" fill="#7C7C7B"/>
</g>
<defs>
<clipPath id="clip0_45_7364">
<rect width="328" height="66" fill="white"/>
</clipPath>
</defs>
</svg>
