<svg width="133" height="60" viewBox="0 0 133 60" fill="none" xmlns="http://www.w3.org/2000/svg">
<g clip-path="url(#clip0)">
<path d="M32.0977 3.79785V52.4044H100.112V50.8853H103.091V52.4044H133V3.79785H32.0977Z" fill="#FF8400"/>
<path d="M101.603 44.8091C100.129 44.8085 98.6873 45.2536 97.4613 46.0879C96.2354 46.9222 95.2797 48.1082 94.7152 49.4961C94.1507 50.884 94.0027 52.4113 94.29 53.8849C94.5773 55.3585 95.2869 56.7121 96.3291 57.7747C97.3713 58.8372 98.6993 59.5609 100.145 59.8542C101.591 60.1475 103.09 59.9972 104.452 59.4224C105.814 58.8476 106.978 57.874 107.797 56.6249C108.616 55.3757 109.053 53.9071 109.053 52.4047C109.053 50.3907 108.268 48.4591 106.871 47.0347C105.474 45.6104 103.579 44.8098 101.603 44.8091V44.8091ZM103.093 53.9238H100.112V50.8856H103.093V53.9238Z" fill="#FF8400"/>
<path d="M32.0977 3.79785V14.429H15.7119L9.08882 24.9336L11.8718 20.5055L9.07561 24.9363L2.2887 35.7102V44.8223H8.25103V47.8605H2.2887V52.4179H67.869V50.8988H70.8501V51.8927C70.9296 52.0566 70.9755 52.2353 70.9849 52.4179H88.7345V3.79785H32.0977ZM20.173 52.4044H17.1919V50.8853H20.173V52.4044ZM26.1354 34.1776H8.19289L16.288 20.5055H26.1354V34.1776Z" fill="#FF8400"/>
<path d="M3.24279 34.1779L9.07561 24.9365L9.07826 24.9312L3.24279 34.1779Z" fill="#FF8400"/>
<path d="M18.6825 44.8091C17.2084 44.8091 15.7675 45.2546 14.5419 46.0892C13.3162 46.9238 12.361 48.1101 11.7969 49.498C11.2328 50.8859 11.0852 52.4131 11.3728 53.8865C11.6603 55.3599 12.3702 56.7133 13.4125 57.7756C14.4548 58.8379 15.7828 59.5613 17.2285 59.8544C18.6742 60.1474 20.1727 59.997 21.5346 59.4221C22.8964 58.8472 24.0604 57.8737 24.8793 56.6246C25.6983 55.3755 26.1354 53.907 26.1354 52.4047C26.1354 50.3902 25.3502 48.4582 23.9525 47.0338C22.5548 45.6093 20.6591 44.8091 18.6825 44.8091V44.8091ZM20.1731 53.9238H17.1919V50.8856H20.1731V53.9238Z" fill="#FF8400"/>
<path d="M99.4091 55.9245C97.8603 55.9245 96.3463 55.4564 95.0585 54.5795C93.7707 53.7025 92.767 52.4561 92.1743 50.9978C91.5816 49.5395 91.4266 47.9348 91.7287 46.3867C92.0309 44.8386 92.7767 43.4165 93.8718 42.3004C94.967 41.1843 96.3623 40.4242 97.8814 40.1162C99.4004 39.8083 100.975 39.9663 102.406 40.5704C103.837 41.1744 105.06 42.1974 105.92 43.5098C106.781 44.8222 107.24 46.3652 107.24 47.9437C107.237 50.0594 106.411 52.0877 104.943 53.5838C103.475 55.0799 101.485 55.9216 99.4091 55.9245V55.9245ZM99.4091 41.2773C98.1154 41.2773 96.8507 41.6683 95.775 42.4008C94.6994 43.1333 93.861 44.1745 93.3659 45.3926C92.8708 46.6107 92.7413 47.9511 92.9937 49.2442C93.246 50.5374 93.869 51.7252 94.7838 52.6575C95.6986 53.5898 96.8641 54.2247 98.133 54.482C99.4018 54.7392 100.717 54.6072 101.912 54.1026C103.107 53.598 104.129 52.7436 104.848 51.6473C105.567 50.551 105.95 49.2622 105.95 47.9437C105.949 46.1761 105.259 44.4813 104.033 43.2314C102.806 41.9815 101.143 41.2787 99.4091 41.2773V41.2773Z" fill="white"/>
<path d="M16.4519 55.9245C14.9031 55.9245 13.3891 55.4564 12.1013 54.5795C10.8135 53.7025 9.80984 52.4561 9.21714 50.9978C8.62444 49.5395 8.46936 47.9348 8.77152 46.3867C9.07367 44.8386 9.81949 43.4165 10.9147 42.3004C12.0098 41.1843 13.4051 40.4242 14.9242 40.1162C16.4432 39.8083 18.0177 39.9663 19.4486 40.5704C20.8795 41.1744 22.1025 42.1974 22.963 43.5098C23.8235 44.8222 24.2827 46.3652 24.2827 47.9437C24.2799 50.0594 23.454 52.0877 21.986 53.5838C20.5181 55.0799 18.5279 55.9216 16.4519 55.9245V55.9245ZM16.4519 41.2773C15.1582 41.2773 13.8935 41.6683 12.8178 42.4008C11.7422 43.1333 10.9038 44.1745 10.4087 45.3926C9.9136 46.6107 9.78407 47.9511 10.0365 49.2442C10.2888 50.5374 10.9118 51.7252 11.8266 52.6575C12.7414 53.5898 13.9069 54.2247 15.1758 54.482C16.4446 54.7392 17.7598 54.6072 18.9551 54.1026C20.1503 53.598 21.1719 52.7436 21.8906 51.6473C22.6094 50.551 22.993 49.2622 22.993 47.9437C22.9909 46.1763 22.3011 44.4819 21.0748 43.2322C19.8486 41.9825 18.1861 41.2795 16.4519 41.2773V41.2773Z" fill="white"/>
<path d="M0.644845 48.6013C0.473817 48.6013 0.309794 48.532 0.188859 48.4088C0.0679243 48.2855 -1.62051e-05 48.1183 -1.62051e-05 47.944V31.8316C-0.000578037 31.7066 0.0342953 31.5841 0.100413 31.4788L13.0373 10.9706C13.0953 10.8778 13.1754 10.8015 13.2701 10.7487C13.3648 10.696 13.4711 10.6685 13.5791 10.6689H29.3861C29.5571 10.6689 29.7212 10.7382 29.8421 10.8614C29.963 10.9847 30.031 11.1519 30.031 11.3262V47.944C30.031 48.1183 29.963 48.2855 29.8421 48.4088C29.7212 48.532 29.5571 48.6013 29.3861 48.6013H24.4307V47.2868H28.7439V11.9834H13.9438L1.28971 32.0256V47.2868H8.47304V48.6013H0.644845Z" fill="white"/>
<path d="M1.55138 31.0237V29.7092H21.6716V17.8418H10.1751V16.5273H22.3164C22.4875 16.5273 22.6515 16.5966 22.7724 16.7198C22.8934 16.8431 22.9613 17.0102 22.9613 17.1846V30.3664C22.9613 30.5407 22.8934 30.7079 22.7724 30.8312C22.6515 30.9544 22.4875 31.0237 22.3164 31.0237H1.55138Z" fill="white"/>
<path d="M5.33597 41.4282H1.17344V42.7426H5.33597V41.4282Z" fill="white"/>
<path d="M100.054 47.2866H98.7642V48.601H100.054V47.2866Z" fill="white"/>
<path d="M17.0994 47.2866H15.8097V48.601H17.0994V47.2866Z" fill="white"/>
<path d="M44.7888 47.6745V1.13379H43.6814V47.6745H44.7888Z" fill="white"/>
<path d="M60.4187 48.5984V1.26318H59.3114V48.5984H60.4187Z" fill="white"/>
<path d="M76.3764 48.0626V0.864746L75.2691 0.864746V48.0626H76.3764Z" fill="white"/>
<path d="M92.1332 48.2726V1.07471H91.0259V48.2726H92.1332Z" fill="white"/>
<path d="M107.792 48.275V1.07715H106.685V48.275H107.792Z" fill="white"/>
<path d="M92.1332 47.9439H29.4152V0.67334H123.877V47.9439H106.685" stroke="white" stroke-miterlimit="10"/>
</g>
<defs>
<clipPath id="clip0">
<rect width="133" height="60" fill="white"/>
</clipPath>
</defs>
</svg>
