<svg width="80" height="74" viewBox="0 0 80 74" fill="none" xmlns="http://www.w3.org/2000/svg">
<g clip-path="url(#clip0)">
<path d="M27.9873 57.6815H58.7829C58.7829 57.6815 59.9112 58.4281 59.7591 61.6868C59.607 64.9455 62.0158 61.9842 62.0158 61.9842L60.9065 55.9541L40.5705 55.2834C40.5705 55.2834 31.3471 54.1824 27.9873 57.6815Z" fill="#F7941D"/>
<path d="M65.4707 30.1189C65.4707 30.4922 65.4073 31.7324 63.8732 33.6243L63.6957 33.8394L64.9636 29.7329L65.4707 30.1189Z" fill="#F5841F"/>
<path d="M54.6181 57.6812C56.412 57.6812 57.9905 58.9467 58.916 60.8449C58.7302 60.617 58.4978 60.4314 58.2343 60.3005C57.9709 60.1695 57.6824 60.0963 57.3883 60.0856C55.8415 60.0856 54.6307 62.123 54.6307 64.7236C54.6307 67.3242 55.8415 69.3617 57.3883 69.3617C57.6778 69.3515 57.962 69.2803 58.222 69.1527C58.482 69.0251 58.712 68.844 58.897 68.6214C57.9715 70.5196 56.3994 71.7345 54.6181 71.7345C51.7781 71.7345 49.4707 68.5708 49.4707 64.7173C49.4707 60.8639 51.7781 57.6812 54.6181 57.6812Z" fill="#F5841F"/>
<path d="M45.813 65.5273C45.813 61.7308 48.9192 58.6556 52.8811 58.3013C50.7132 59.4782 49.1284 62.2813 49.1284 65.5779C49.1284 68.7416 50.5737 71.4878 52.6529 72.7216C48.8114 72.266 45.813 69.2162 45.813 65.5273Z" fill="#F5841F"/>
<path d="M26.542 64.7937C26.542 63.1451 27.1976 61.564 28.3649 60.3977C29.5321 59.2315 31.1154 58.5754 32.767 58.5737H32.8367C30.4152 59.3267 28.6212 61.9589 28.6212 65.0847C28.589 66.192 28.8164 67.2916 29.2852 68.2956C29.7541 69.2997 30.4514 70.1806 31.3217 70.868C29.9557 70.5414 28.7403 69.7638 27.8727 68.6611C27.0051 67.5585 26.5362 66.1957 26.542 64.7937V64.7937Z" fill="#F5841F"/>
<path d="M38.4279 66.0465C37.794 68.4067 35.9936 70.1214 33.8637 70.1214C31.2076 70.1214 29.0459 67.4639 29.0459 64.1989C29.0459 60.9339 31.2076 58.2827 33.8637 58.2827C36.0951 58.2827 37.9715 60.181 38.5166 62.712H38.0348C37.6291 61.225 36.6592 60.181 35.4992 60.181C33.9524 60.181 32.748 61.959 32.748 64.2369C32.748 66.5148 33.9271 68.3371 35.4992 68.3371C36.6022 68.3371 37.5214 67.4259 37.9651 66.0845L38.4279 66.0465Z" fill="#F5841F"/>
<path d="M49.3439 54.625L49.1981 55.8968L44.9382 55.9348L45.3946 54.625H49.3439Z" fill="#F5841F"/>
<path d="M28.4437 56.093C29.3249 55.5868 32.3296 54.6756 42.5103 54.625L42.0349 55.9664L28.4437 56.093Z" fill="#F5841F"/>
<path d="M35.6387 63.6228C35.9303 63.3571 36.6339 63.4204 37.2551 63.4773C37.5341 63.4773 37.8066 63.5279 38.0539 63.5279C39.2456 63.5279 39.6386 63.49 39.6513 63.49H39.7718L39.8669 63.414C41.1347 62.4459 41.5404 62.6737 42.1109 63.1609C42.3469 63.3904 42.6352 63.5592 42.951 63.6529C43.2668 63.7466 43.6007 63.7623 43.9239 63.6988H44.5578C44.5152 64.0198 44.4919 64.3431 44.4881 64.6669C44.4881 64.8883 44.4881 65.1035 44.5261 65.2996C43.8299 65.3891 43.1555 65.6035 42.5356 65.9324C42.1444 66.1506 41.7133 66.2883 41.2678 66.3373C40.4611 66.2095 39.7047 65.8638 39.0808 65.3376L38.9667 65.2427H38.8209C38.4089 65.2427 38.0348 65.2427 37.6925 65.2427C36.6466 65.2427 35.8922 65.2806 35.626 65.0212C35.4651 64.7979 35.3949 64.5221 35.4295 64.2493C35.4179 64.136 35.4306 64.0216 35.4666 63.9136C35.5027 63.8056 35.5613 63.7065 35.6387 63.6228V63.6228Z" fill="#F5841F"/>
<path d="M36.5578 56.84L45.5341 56.7515L45.6418 60.4973H45.7559C45.2835 61.2233 44.9364 62.0232 44.729 62.8638H43.8605H43.7211C43.525 62.8973 43.3237 62.8812 43.1355 62.8171C42.9473 62.753 42.7781 62.6429 42.6434 62.4968C41.6355 61.63 40.7417 61.6679 39.4738 62.6487H39.3597C39.0531 60.8857 38.0622 59.3146 36.6022 58.2764C36.6061 58.2662 36.6061 58.2549 36.6022 58.2448H36.5642L36.5578 56.84Z" fill="#F5841F"/>
<path d="M64.3106 29.1699L60.5895 40.939L59.7084 40.0405L63.3534 28.3853L64.3106 29.1699Z" fill="#F5841F"/>
<path d="M55.9049 55.7959L56.0253 55.8339L54.7829 55.8465L59.4295 40.9326L60.3106 41.8311L55.9049 55.7959Z" fill="#F5841F"/>
<path d="M48.6022 42.9321L44.0697 55.9478L42.9097 55.9541L47.5245 43.0587L48.6022 42.9321Z" fill="#F5841F"/>
<path d="M55.252 51.5942L53.9207 55.8526L50.0285 55.8906L50.542 51.5942H55.252Z" fill="#F5841F"/>
<path d="M76.336 53.8342L77.0776 55.0111C76.2533 55.1019 75.4821 55.4623 74.8843 56.0362C74.6944 56.2721 74.5855 56.5627 74.5737 56.8651C73.1702 56.9403 71.8511 57.5575 70.8952 58.586C69.9393 59.6145 69.4216 60.9737 69.4517 62.3763C69.4485 63.556 69.8166 64.7069 70.504 65.6666L60.5642 67.394V64.7491V64.6795V62.1485C60.5642 58.9405 60.0951 56.9157 59.1632 56.1311C59.0483 56.0226 58.9129 55.9382 58.7648 55.8828C58.6168 55.8274 58.4591 55.8021 58.3011 55.8084H56.6973L57.9651 51.8284L60.8558 53.5748H64.4184L64.2979 49.6897C65.9209 48.2015 67.2554 46.4276 68.2345 44.4569L69.6735 44.2544L68.7163 50.7844L69.1093 50.854C70.6337 51.2679 72.011 52.1011 73.084 53.2584L73.1791 53.3533L76.336 53.8342Z" fill="#F5841F"/>
<path d="M63.6831 33.8965L70.3645 42.1792L69.5468 43.4447L67.645 43.7104L67.5499 43.9129C67.1368 44.8015 66.6401 45.649 66.0666 46.4439L64.1014 44.4318L64.0697 43.3877V42.679H62.2884L61.2425 41.6097L63.6831 33.8965Z" fill="#F5841F"/>
<path d="M59.588 26.5819L62.6371 27.8031L62.6561 27.8221L59.0618 39.3698L58.3201 38.6105V26.8287V25.9555V25.0127L59.588 26.5819Z" fill="#F5841F"/>
<path d="M36.2979 0L45.7369 10.434L44.2282 10.7504V13.737L39.3407 14.8063L33.5467 7.88405L30.6624 14.1356L23.1125 16.1035L23.626 14.7747L21.3566 13.8382L28.6339 0.607439L36.2979 0Z" fill="#F5841F"/>
<path d="M20.1648 19.9443L21.2995 17.2235L22.1109 17.0083L27.5182 15.6036L31.7084 14.5153L36.4374 16.0655L45.4009 14.1103V11.1301L47.309 10.7314L53.7559 14.838L55.607 21.5957L58.4786 23.7028V25.3037L47.8288 21.3996L44.2916 21.9817V16.4009V16.3946L43.8098 16.5021L8.61489 24.0318L9.3946 22.8359L20.1648 19.9443Z" fill="#F5841F"/>
<path d="M57.8827 42.4385L19.1125 46.8361L6.99207 45.1657L45.6355 40.1543L57.8827 42.4385Z" fill="#F5841F"/>
<path d="M57.496 28.4232V40.9706L43.3154 38.6674V25.5062L46.7702 25.0127L57.496 28.4232Z" fill="#F5841F"/>
<path d="M41.1601 25.7594V38.9459L1.51505 43.6156L0.849436 29.0813L41.1601 20.8999V25.0318V25.7594Z" fill="#F5841F"/>
<path d="M76.0697 61.1172C74.9033 61.1172 73.9588 62.3321 73.9588 63.819C73.9588 65.306 74.9033 66.5272 76.0697 66.5272C77.2361 66.5272 78.187 65.3123 78.187 63.819C78.187 62.3257 77.2171 61.1172 76.0697 61.1172ZM76.0697 65.7046C75.3724 65.7046 74.8019 64.8441 74.8019 63.8064C74.8019 62.7687 75.3914 61.9081 76.0697 61.9081C76.748 61.9081 77.3375 62.7687 77.3375 63.8064C77.3375 64.8441 76.7543 65.7046 76.0697 65.7046Z" fill="white"/>
<path d="M74.7639 58.213C73.8224 58.1585 72.8861 58.3874 72.0764 58.87C71.2667 59.3527 70.6208 60.0668 70.2224 60.9201C69.8239 61.7733 69.6912 62.7262 69.8415 63.6556C69.9918 64.5849 70.4181 65.4478 71.0653 66.1326C71.7125 66.8173 72.5507 67.2923 73.4714 67.4962C74.3921 67.7 75.3529 67.6233 76.2295 67.2759C77.106 66.9285 77.8579 66.3264 78.3877 65.5477C78.9175 64.7689 79.201 63.8493 79.2013 62.908C79.2321 61.6993 78.7829 60.5274 77.9516 59.6479C77.1204 58.7685 75.9746 58.2527 74.7639 58.213V58.213ZM76.4438 65.9705C75.5182 65.9705 74.7639 65.0087 74.7639 63.8254C74.7639 62.6422 75.5182 61.6804 76.4438 61.6804C77.3693 61.6804 78.1236 62.6422 78.1236 63.8254C78.1236 65.0087 77.3693 65.9768 76.4438 65.9768V65.9705Z" fill="#F7941D"/>
<path d="M75.4358 58.175C75.438 58.0453 75.48 57.9194 75.5563 57.8143C76.0063 57.2575 77.3502 57.0487 77.8257 57.0107L78.5103 56.9664L76.8621 54.3469L73.5911 53.847C72.4976 52.7283 71.1492 51.8903 69.6609 51.4046L70.5737 45.1783L70.3582 45.0012L71.4041 43.394L64.748 35.1682C66.6498 32.6879 66.3011 31.1629 66.2821 31.0933V30.9605L63.1696 28.4295L60.1458 27.164L58.3201 24.962V24.8987L55.3471 22.7157L53.4834 15.9263L46.5103 11.4971L46.0602 11.592L36.0063 0.474609L27.4929 1.14532L19.5563 15.572L21.9334 16.5528L21.496 17.6791L19.7147 18.1473L18.58 20.8808L7.89857 23.7345L6.2187 26.2971L0 27.6891L0.748019 45.8111L1.14105 45.7605L16.355 47.8548L46.6117 44.4254L42.8082 55.0492C36.2282 55.0492 28.4247 55.4731 27.3851 57.2195C27.3123 57.3263 27.2687 57.4502 27.2587 57.5789C27.2487 57.7077 27.2726 57.8368 27.3281 57.9535L27.4422 58.1687L31.9366 58.1307C30.995 58.1875 30.0743 58.4323 29.2292 58.8507C28.3841 59.2692 27.6317 59.8527 27.0167 60.5666C26.4016 61.2806 25.9364 62.1106 25.6486 63.0073C25.3608 63.904 25.2562 64.8493 25.3411 65.7871C25.4259 66.7249 25.6985 67.6362 26.1427 68.4669C26.5869 69.2976 27.1935 70.0309 27.9268 70.6233C28.6601 71.2157 29.505 71.6552 30.4116 71.9157C31.3181 72.1761 32.2678 72.2523 33.2044 72.1398C33.4252 72.1692 33.6474 72.1861 33.87 72.1904C36.3423 72.1904 38.4406 70.2921 39.2013 67.6283C39.8181 68.0578 40.5374 68.3176 41.2868 68.3812C41.8534 68.3398 42.4045 68.178 42.9033 67.9067C43.454 67.6208 44.0543 67.4426 44.6719 67.3815C45.4136 71.1527 48.9382 74.0317 53.1664 74.0317C53.8351 74.0202 54.5005 73.9353 55.1506 73.7786C57.2108 73.5255 58.954 71.8803 59.8859 69.6088L70.916 67.7105L70.8653 67.4195C71.34 67.9618 71.9243 68.3978 72.5799 68.6988C73.2354 68.9998 73.9473 69.1589 74.6688 69.1658C76.0431 69.1237 77.3527 68.5735 78.3437 67.6221C79.3346 66.6706 79.9362 65.3858 80.0317 64.0166C80.1273 62.6475 79.71 61.2918 78.8608 60.2124C78.0116 59.133 76.791 58.4069 75.4358 58.175V58.175ZM70.3645 43.4446L69.5531 44.7101L67.6513 44.9758L67.5563 45.1783C67.1481 46.0682 66.6534 46.916 66.0792 47.7093L64.1141 45.6972V44.6531V43.9445H62.2948L61.2488 42.8751L63.683 35.1619L70.3645 43.4446ZM54.4596 57.9345L58.4279 57.8966C58.5529 57.92 58.6653 57.9874 58.7448 58.0864C59.0872 58.4154 59.6196 59.3519 59.7591 61.9841C59.1897 60.6259 58.1987 59.4859 56.9319 58.7318H57.1664C56.3106 58.3287 55.3976 58.0598 54.4596 57.9345V57.9345ZM44.7353 64.1292H43.8605H43.7211C43.526 64.1627 43.3256 64.1466 43.1384 64.0825C42.9512 64.0183 42.7831 63.9082 42.6498 63.7622C41.6355 62.8953 40.748 62.9396 39.4802 63.914H39.3661C39.0643 62.1508 38.0751 60.5787 36.6149 59.5417C36.6125 59.5313 36.6125 59.5205 36.6149 59.5101H36.5769V58.1054L45.5467 58.0168L45.6418 61.7627H45.7623C45.2873 62.4873 44.94 63.2876 44.7353 64.1292V64.1292ZM57.8954 43.1472L58.2567 43.2105L58.0222 43.9698L53.9208 44.2102C53.3829 44.1525 52.8433 44.3019 52.412 44.6278C51.1442 45.4884 50.3582 47.4879 49.9968 50.5567L49.4453 55.0492H45.6862L49.4897 44.0773L57.8954 43.1472ZM43.3154 24.4305L46.7639 23.861L57.496 27.7904V42.236L43.3154 39.5911V24.4305ZM50.0222 57.1563L50.5483 52.8599H55.2456L53.9208 57.1183L50.0222 57.1563ZM55.5055 52.0373H50.6434L50.8146 50.6516C51.2203 47.1715 52.1458 45.8364 52.8494 45.3239C53.113 45.1048 53.4522 44.998 53.794 45.0265H53.8574L57.7559 44.7923L55.5055 52.0373ZM58.3201 43.027V41.0591L58.7829 41.5274L58.3201 43.027ZM45.401 55.8908H49.3502L49.1918 57.1563L44.9445 57.1942L45.401 55.8908ZM46.4406 60.8389L46.3582 58.0105L51.683 57.9599C49.6524 58.2793 47.7978 59.2978 46.4406 60.8389ZM54.7829 57.112L59.4358 42.1981L60.3106 43.0966L55.8732 57.0613L55.9873 57.0993L54.7829 57.112ZM59.7147 41.2932L63.3471 29.638L64.3106 30.4226L60.5959 42.2044L59.7147 41.2932ZM60.9826 43.7546L61.1601 43.9318H60.9255L60.9826 43.7546ZM60.8178 44.7544H63.29L63.5816 54.0052H61.0777L58.4025 52.3727L60.8178 44.7544ZM64.1838 46.8678L65.6101 48.3294C65.1918 48.8551 64.7453 49.3578 64.2726 49.8354L64.1838 46.8678ZM63.8986 34.8455L63.7211 35.0607L65.0016 31.0047L65.4707 31.3907C65.4897 31.7577 65.4136 32.9979 63.8796 34.8898L63.8986 34.8455ZM59.588 27.841L62.6498 29.0622L59.0618 40.6352L58.3201 39.8632V26.2781L59.588 27.841ZM20.7227 15.186L28 1.92993L35.664 1.29718L45.1094 11.7312L43.5943 12.0476V15.0595L38.7132 16.1288L32.9192 9.20655L30.0285 15.4581L22.4786 17.426L22.9921 16.0972L20.7227 15.186ZM37.8003 16.325L35.4992 16.8312L30.9921 15.3505L33.122 10.7568L37.8003 16.325ZM7.60697 25.6454L8.39303 24.4495L19.1696 21.5578L20.2979 18.837L21.1157 18.6282L26.5166 17.2171L30.7068 16.1288L35.4358 17.6791L44.3994 15.7239V12.7436L46.3011 12.345L52.7734 16.4515L54.6307 23.2093L57.496 25.31V26.9109L46.8463 23.0131L43.3154 23.5953V18.0144L42.8336 18.122L7.60697 25.6454ZM42.4723 19.0331V39.5658L1.53407 44.8809L0.849445 28.3409L42.4723 19.0331ZM4.24723 45.3555L42.916 40.3441L55.1506 42.6283L16.3613 47.026L4.24723 45.3555ZM48.6212 44.1976L44.0634 57.2132H42.916L47.5436 44.3241L48.6212 44.1976ZM42.5166 55.8908L42.0349 57.2322L28.4437 57.3587C29.3249 56.8525 32.3296 55.9414 42.5166 55.8908ZM35.7401 58.1117V58.9912C34.8132 58.4848 33.7842 58.1929 32.729 58.137L35.7401 58.1117ZM26.1426 65.1732C26.1443 63.5241 26.8014 61.943 27.9696 60.7769C29.1379 59.6108 30.7219 58.9549 32.374 58.9533H32.4374C30.0222 59.7126 28.2282 62.3385 28.2282 65.4643C28.202 66.5652 28.4322 67.6572 28.9008 68.6543C29.3695 69.6513 30.0636 70.526 30.9287 71.2096C29.5684 70.8847 28.357 70.1129 27.489 69.0182C26.6211 67.9234 26.1469 66.5693 26.1426 65.1732V65.1732ZM33.8637 71.3931C31.2139 71.3931 29.0523 68.7356 29.0523 65.4706C29.0523 62.2056 31.2139 59.5544 33.8637 59.5544C36.0951 59.5544 37.9778 61.4526 38.5166 63.9836H38.0349C37.6292 62.503 36.6593 61.4526 35.4992 61.4526C33.9525 61.4526 32.7417 63.237 32.7417 65.5085C32.7417 67.7801 33.9334 69.6024 35.4992 69.6024C36.5959 69.6024 37.5151 68.6913 37.9651 67.3498H38.4532C37.8003 69.672 35.9937 71.3868 33.8637 71.3868V71.3931ZM35.0681 66.8753C35.4865 67.2802 36.1331 67.3435 37.0523 67.3435C36.6973 68.1851 36.1204 68.7546 35.4802 68.7546C34.4342 68.7546 33.5784 67.2739 33.5784 65.5149C33.5784 63.7558 34.4659 62.2815 35.4802 62.2815C36.1775 62.2815 36.7924 62.9143 37.1284 63.914C36.393 63.8507 35.6006 63.8191 35.0872 64.2873C34.9262 64.4468 34.8016 64.6389 34.7217 64.8508C34.6419 65.0626 34.6087 65.2891 34.6244 65.5149C34.6016 65.7589 34.6292 66.0049 34.7056 66.2379C34.7819 66.4708 34.9053 66.6856 35.0681 66.869V66.8753ZM42.561 67.179C42.1695 67.3966 41.7385 67.5342 41.2932 67.584C40.4881 67.4569 39.7336 67.1111 39.1125 66.5842L38.9984 66.4956H38.8526H37.7179C36.6783 66.4956 35.9239 66.5336 35.6513 66.2742C35.4961 66.0485 35.4285 65.7741 35.4612 65.5022C35.4477 65.3894 35.4577 65.275 35.4904 65.1661C35.5231 65.0573 35.5779 64.9563 35.6513 64.8695C35.9429 64.6037 36.6466 64.667 37.2678 64.7239C37.5468 64.7239 37.8257 64.7746 38.0729 64.7746C39.2583 64.7746 39.6513 64.7366 39.6704 64.7366H39.7908L39.8859 64.6607C41.122 63.6989 41.5594 63.9203 42.13 64.4076C42.3656 64.6375 42.6539 64.8066 42.9698 64.9003C43.2857 64.994 43.6197 65.0095 43.9429 64.9454H44.5769C44.5311 65.2661 44.5078 65.5896 44.5071 65.9135C44.5071 66.135 44.5071 66.3501 44.5452 66.5463C43.8513 66.6337 43.179 66.8459 42.561 67.1727V67.179ZM45.3376 65.9135C45.3376 62.117 48.4437 59.0419 52.3994 58.6875C50.206 59.8454 48.6466 62.6675 48.6466 65.9641C48.6466 69.1279 50.0983 71.8803 52.1712 73.1079C48.3233 72.6586 45.3376 69.6024 45.3376 65.9198V65.9135ZM54.6244 72.9813C51.7845 72.9813 49.4707 69.8176 49.4707 65.9641C49.4707 62.1107 51.7845 58.9406 54.6244 58.9406C56.412 58.9406 57.9905 60.2061 58.916 62.1044C58.7315 61.8767 58.5002 61.6911 58.2378 61.5601C57.9753 61.4291 57.6878 61.3558 57.3946 61.3451C55.8479 61.3451 54.6371 63.3825 54.6371 65.9831C54.6371 68.5837 55.8479 70.6212 57.3946 70.6212C57.6841 70.6106 57.9681 70.5392 58.2281 70.4116C58.488 70.284 58.7181 70.1032 58.9033 69.8808C57.9778 71.7538 56.4184 72.9876 54.6244 72.9876V72.9813ZM59.3217 65.9705C59.3217 68.0395 58.4406 69.7669 57.42 69.7669C56.3994 69.7669 55.4865 68.0206 55.4865 65.9705C55.4865 63.9203 56.3677 62.174 57.42 62.174C58.4723 62.174 59.3217 63.9077 59.3217 65.9768V65.9705ZM60.5895 68.6533V66.0084V65.9388V63.4078C60.5895 60.1998 60.1204 58.175 59.1886 57.3904C58.9566 57.1752 58.6494 57.0594 58.3328 57.0677H56.7227L57.9905 53.0877L60.8558 54.8404H64.4184L64.2979 50.9553C65.9179 49.4659 67.2501 47.6922 68.2282 45.7225L69.6735 45.52L68.7163 52.05L69.1093 52.1196C70.6337 52.5335 72.011 53.3667 73.084 54.524L73.1791 54.6189L76.3487 55.0998L77.0903 56.2767C76.2656 56.3662 75.494 56.7267 74.897 57.3018C74.7046 57.5363 74.5954 57.8277 74.5864 58.1307C73.1829 58.2059 71.8638 58.8231 70.9079 59.8516C69.952 60.8801 69.4343 62.2393 69.4643 63.6419C69.4612 64.8216 69.8293 65.9726 70.5166 66.9322L60.5895 68.6533ZM74.7449 68.3243C73.8031 68.3788 72.8666 68.1497 72.0567 67.6668C71.2469 67.1839 70.601 66.4693 70.2027 65.6158C69.8044 64.7622 69.6721 63.8089 69.8228 62.8793C69.9736 61.9498 70.4006 61.0869 71.0484 60.4024C71.6963 59.7179 72.5351 59.2433 73.4562 59.0402C74.3774 58.8371 75.3384 58.9147 76.2149 59.2631C77.0913 59.6115 77.8427 60.2145 78.3718 60.9942C78.9009 61.7738 79.1832 62.694 79.1823 63.6356C79.2 64.2366 79.0987 64.8353 78.8841 65.3971C78.6695 65.959 78.346 66.4731 77.9319 66.9098C77.5179 67.3466 77.0216 67.6975 76.4714 67.9424C75.9212 68.1873 75.328 68.3214 74.7258 68.3369L74.7449 68.3243Z" fill="white"/>
<path d="M76.0697 61.1172C74.9033 61.1172 73.9588 62.3321 73.9588 63.819C73.9588 65.306 74.9033 66.5272 76.0697 66.5272C77.2361 66.5272 78.187 65.3123 78.187 63.819C78.187 62.3257 77.2171 61.1172 76.0697 61.1172ZM76.0697 65.7046C75.3724 65.7046 74.8019 64.8441 74.8019 63.8064C74.8019 62.7687 75.3914 61.9081 76.0697 61.9081C76.748 61.9081 77.3375 62.7687 77.3375 63.8064C77.3375 64.8441 76.7543 65.7046 76.0697 65.7046Z" fill="white"/>
</g>
<defs>
<clipPath id="clip0">
<rect width="80" height="74" fill="white"/>
</clipPath>
</defs>
</svg>
