<svg width="65" height="65" viewBox="0 0 65 65" fill="none" xmlns="http://www.w3.org/2000/svg">
<g clip-path="url(#clip0)">
<path d="M61.9671 54.5413C55.8432 51.3036 51.1652 49.5067 46.994 48.7974L47.4482 48.1715C47.5359 48.0503 47.5962 47.9114 47.6249 47.7644C47.6536 47.6173 47.65 47.4658 47.6144 47.3203L46.6644 43.5124C49.207 39.9158 50.7054 35.4235 50.7054 31.1621V27.0621H53.7687C54.0398 27.0621 54.2997 26.9539 54.4914 26.7615C54.6831 26.569 54.7907 26.3079 54.7907 26.0357C54.7907 25.7635 54.6831 25.5024 54.4914 25.3099C54.2997 25.1174 54.0398 25.0093 53.7687 25.0093H52.7495V23.9857C52.7551 21.2276 52.1137 18.5069 50.8771 16.0442L41.7093 17.8022C41.6465 17.8156 41.5824 17.8221 41.5182 17.8217C41.3678 17.822 41.2191 17.7888 41.0829 17.7246C40.9467 17.6603 40.8264 17.5666 40.7306 17.4502C40.6347 17.3337 40.5657 17.1974 40.5286 17.0509C40.4914 16.9045 40.4869 16.7517 40.5156 16.6033L42.1774 7.77459C41.298 7.37596 40.3908 7.04222 39.4631 6.77601V6.55904C39.4594 5.74325 39.1353 4.96188 38.5612 4.38476C37.987 3.80765 37.2093 3.48144 36.397 3.47705H32.3449C31.5282 3.47779 30.7453 3.80391 30.1678 4.38382C29.5904 4.96373 29.2657 5.75005 29.2649 6.57017V6.78713C28.3382 7.05471 27.4319 7.38938 26.5534 7.7885L28.2152 16.6172C28.2433 16.7655 28.2385 16.9182 28.2011 17.0644C28.1638 17.2106 28.0947 17.3467 27.999 17.4631C27.9032 17.5794 27.7831 17.6731 27.6472 17.7375C27.5113 17.8019 27.3629 17.8354 27.2126 17.8356C27.1474 17.8361 27.0824 17.8296 27.0187 17.8161L17.8509 16.047C16.6165 18.5104 15.976 21.2307 15.9813 23.9884V25.0121H14.9704C14.8361 25.0121 14.7032 25.0386 14.5792 25.0902C14.4552 25.1418 14.3426 25.2174 14.2477 25.3127C14.1528 25.408 14.0775 25.5211 14.0261 25.6457C13.9748 25.7702 13.9483 25.9037 13.9483 26.0385C13.9483 26.1732 13.9748 26.3067 14.0261 26.4312C14.0775 26.5558 14.1528 26.6689 14.2477 26.7642C14.3426 26.8595 14.4552 26.9352 14.5792 26.9867C14.7032 27.0383 14.8361 27.0649 14.9704 27.0649H18.0337V31.1538C18.0337 35.4152 19.5349 39.9074 22.0747 43.5068L21.1275 47.312C21.0912 47.4574 21.0873 47.6091 21.1161 47.7562C21.1448 47.9033 21.2054 48.0422 21.2937 48.1632L21.7451 48.789C17.5905 49.4983 12.8986 51.2924 6.78858 54.533C5.8696 55.0142 5.09963 55.7394 4.56246 56.6295C4.02528 57.5197 3.74146 58.5407 3.74188 59.5816V63.9765C3.74262 64.2482 3.85062 64.5085 4.04221 64.7004C4.23379 64.8923 4.49333 65.0001 4.76391 65.0001H29.6527H39.0504C39.067 65.0001 39.0808 65.0001 39.0947 65.0001H63.9807C64.251 65.0001 64.5103 64.8922 64.7014 64.7003C64.8926 64.5083 65 64.2479 65 63.9765V59.5899C65.002 58.5504 64.7204 57.5302 64.1857 56.6402C63.651 55.7501 62.8837 55.0242 61.9671 54.5413V54.5413ZM20.075 31.1538V27.0621H48.6641V31.1538C48.6768 35.4088 47.2555 39.543 44.6314 42.8837C44.5911 42.9122 44.5531 42.9438 44.5178 42.9783C44.1688 43.4317 43.8032 43.8573 43.4293 44.255C43.1828 44.5165 42.9225 44.7529 42.6676 44.9922C40.1749 47.2536 37.2057 48.5776 34.3751 48.5776C31.5444 48.5776 28.5808 47.2536 26.0853 44.9922C25.8277 44.7529 25.5701 44.5165 25.3208 44.255C24.9515 43.8563 24.5887 43.4308 24.2323 42.9783C24.197 42.9438 24.1591 42.9122 24.1188 42.8837C21.4918 39.5438 20.0667 35.4099 20.075 31.1538V31.1538ZM23.2242 47.3454L23.6839 45.504C26.1518 48.1993 29.2926 50.0991 32.824 50.5303L30.0543 56.7916L23.2242 47.3454ZM30.5113 62.9417L31.1234 59.8653H37.6184L37.876 61.1643L38.2305 62.9334L30.5113 62.9417ZM38.6709 56.8L35.9012 50.5386C39.4409 50.1075 42.5818 48.2077 45.0413 45.5123L45.5011 47.3537L38.6709 56.8Z" fill="#FF8400"/>
<path d="M44.0802 8.78174L42.8006 15.5132L49.7886 14.1641C48.3067 11.9672 46.3568 10.1287 44.0802 8.78174V8.78174Z" fill="#FF8400"/>
<path d="M24.6505 8.78174C22.3774 10.1292 20.4313 11.9678 18.9532 14.1641L25.9385 15.5132L24.6505 8.78174Z" fill="#FF8400"/>
<path d="M60.934 62.9138H35.9455H35.9123H26.2183H1.71446C1.26024 62.9138 0.824577 62.7328 0.503133 62.4105C0.181688 62.0882 0.000734002 61.651 1.98423e-07 61.1948V56.8083C-0.000289504 55.6424 0.316655 54.4986 0.916588 53.5005C1.51652 52.5024 2.37664 51.6878 3.404 51.145C9.12626 48.1214 13.5412 46.3606 17.5296 45.5317C17.3568 45.1708 17.3147 44.7606 17.4105 44.3718L18.2802 40.8698C15.7431 37.1647 14.2946 32.6307 14.2946 28.3805V24.9758H11.9237C11.469 24.9758 11.0329 24.7944 10.7114 24.4715C10.3899 24.1486 10.2092 23.7107 10.2092 23.254C10.2092 22.7974 10.3899 22.3594 10.7114 22.0365C11.0329 21.7136 11.469 21.5322 11.9237 21.5322H12.2533V21.204C12.2426 18.338 12.9069 15.51 14.1921 12.9511L14.4275 12.481L24.1216 14.3502C24.1744 14.36 24.2288 14.3568 24.2801 14.3409C24.3314 14.325 24.3782 14.2969 24.4163 14.2588C24.4544 14.2208 24.4828 14.1741 24.499 14.1227C24.5152 14.0713 24.5187 14.0167 24.5093 13.9635L22.7118 4.59518L23.2103 4.36987C23.964 4.02834 24.7372 3.73204 25.5258 3.48255C25.6038 2.53219 26.0352 1.64617 26.7343 1.00084C27.4333 0.355502 28.3487 -0.0018148 29.2982 6.93167e-06H33.3503C34.2986 -0.000361503 35.2122 0.357675 35.9097 1.00293C36.6071 1.64818 37.0371 2.53339 37.1144 3.48255C37.9038 3.73249 38.6778 4.02878 39.4326 4.36987L39.9312 4.59518L38.1475 13.9635C38.1378 14.0171 38.1414 14.0722 38.1578 14.1241C38.1742 14.176 38.203 14.223 38.2417 14.2612C38.2797 14.298 38.3259 14.3252 38.3764 14.3407C38.427 14.3562 38.4804 14.3594 38.5325 14.3502L48.2265 12.481L48.462 12.9511C49.7464 15.5103 50.4107 18.3381 50.4008 21.204V21.5322H50.7276C51.1823 21.5322 51.6184 21.7136 51.9399 22.0365C52.2614 22.3594 52.4421 22.7974 52.4421 23.254C52.4421 23.7107 52.2614 24.1486 51.9399 24.4715C51.6184 24.7944 51.1823 24.9758 50.7276 24.9758H48.3567V28.3721C48.3567 32.6252 46.9081 37.1592 44.3711 40.8614L45.2435 44.3635C45.3405 44.7519 45.2993 45.1621 45.1272 45.5234C49.1128 46.3579 53.525 48.113 59.2528 51.1366C60.2797 51.6799 61.1392 52.4945 61.7386 53.4926C62.3381 54.4907 62.6546 55.6343 62.654 56.7999V61.1948C62.654 61.4213 62.6095 61.6455 62.523 61.8546C62.4364 62.0637 62.3096 62.2536 62.1498 62.4133C61.9899 62.573 61.8003 62.6995 61.5916 62.7854C61.383 62.8713 61.1595 62.9149 60.934 62.9138V62.9138ZM35.8264 62.8804H35.8403H35.8264ZM36.1339 61.523H60.934C60.977 61.523 61.0195 61.5145 61.0591 61.4981C61.0988 61.4816 61.1348 61.4574 61.1651 61.4269C61.1955 61.3964 61.2196 61.3602 61.236 61.3204C61.2524 61.2806 61.2609 61.2379 61.2609 61.1948V56.8083C61.2616 55.8958 61.0141 55.0005 60.545 54.219C60.0758 53.4376 59.403 52.7997 58.5992 52.3744C52.5833 49.1951 47.8914 47.3926 43.8337 46.7028L42.7258 46.5136L43.8337 44.981C43.863 44.9417 43.8829 44.8962 43.8921 44.848C43.9012 44.7998 43.8992 44.7501 43.8864 44.7028L42.8616 40.5889L43.0444 40.3274C45.5371 36.8059 46.958 32.4499 46.958 28.3666V23.585H50.7137C50.8012 23.585 50.885 23.5502 50.9468 23.4881C51.0086 23.426 51.0433 23.3418 51.0433 23.254C51.0433 23.1662 51.0086 23.082 50.9468 23.02C50.885 22.9579 50.8012 22.923 50.7137 22.923H49.0242V21.204C49.0316 18.7313 48.4954 16.2875 47.4538 14.047L38.8094 15.7159C38.5345 15.7691 38.2509 15.7538 37.9832 15.6715C37.7155 15.5891 37.472 15.4422 37.2739 15.2435C37.0758 15.0449 36.9292 14.8005 36.8468 14.5318C36.7645 14.2631 36.7489 13.9782 36.8014 13.7021L38.3718 5.42131C37.6808 5.13039 36.9733 4.88055 36.253 4.67306L35.7295 4.5312V3.78852C35.7288 3.15427 35.4781 2.54609 35.0324 2.09683C34.5866 1.64756 33.9818 1.39374 33.3503 1.3908H29.2982C28.6652 1.39153 28.0584 1.64439 27.6108 2.09389C27.1632 2.54339 26.9114 3.15283 26.9107 3.78852V4.5312L26.4066 4.67306C25.6872 4.88055 24.9806 5.1304 24.2905 5.42131L25.861 13.7021C25.9135 13.9782 25.8979 14.2631 25.8155 14.5318C25.7332 14.8005 25.5865 15.0449 25.3884 15.2435C25.1903 15.4422 24.9468 15.5891 24.6792 15.6715C24.4115 15.7538 24.1278 15.7691 23.8529 15.7159L15.2086 14.047C14.1659 16.2872 13.6296 18.7312 13.6381 21.204V22.923H11.9237C11.8363 22.923 11.7524 22.9579 11.6906 23.02C11.6288 23.082 11.5941 23.1662 11.5941 23.254C11.5941 23.3418 11.6288 23.426 11.6906 23.4881C11.7524 23.5502 11.8363 23.585 11.9237 23.585H15.6794V28.3721C15.6794 32.4444 17.1058 36.7976 19.5931 40.3329L19.7759 40.5944L18.7538 44.7112C18.7405 44.7584 18.7384 44.8082 18.7475 44.8565C18.7567 44.9047 18.7768 44.9502 18.8065 44.9893L19.9144 46.522L18.8065 46.7111C14.7488 47.4009 10.0569 49.2145 4.04104 52.3828C3.23947 52.8082 2.56858 53.445 2.10055 54.2248C1.63253 55.0046 1.38509 55.8978 1.38486 56.8083V61.1948C1.38486 61.2381 1.39341 61.2811 1.41001 61.3211C1.4266 61.3611 1.45092 61.3974 1.48157 61.4279C1.51221 61.4584 1.54857 61.4825 1.58854 61.4989C1.62851 61.5152 1.67131 61.5234 1.71446 61.523H26.6032H36.0203H36.1339ZM26.6199 60.8638L27.509 56.3966H35.1396L36.0286 60.8471L26.6199 60.8638ZM28.6445 57.7874L28.3094 59.4702H34.3391L34.004 57.8013L28.6445 57.7874ZM35.4775 55.4091L31.7854 47.0644H32.813C35.9705 46.6694 38.959 45.0199 41.4656 42.294L42.2965 41.0339L43.2078 44.7167L35.4775 55.4091ZM33.8516 48.3133L35.7683 52.6442L41.7204 44.4247L41.6401 44.1048C39.3302 46.3356 36.6657 47.7737 33.8516 48.3133V48.3133ZM27.171 55.4091L19.4158 44.7167L20.3658 40.906L21.1967 42.3162C23.6895 45.031 26.6836 46.675 29.8328 47.0699H30.8603L27.171 55.4091ZM20.9281 44.4247L26.8802 52.6442L28.8052 48.3133C25.9911 47.7737 23.3322 46.3356 21.0167 44.1048L20.9281 44.4247ZM31.3229 46.5081C28.3593 46.5081 25.2489 45.1729 22.5678 42.7446L22.432 42.6166C22.216 42.4136 21.9889 42.2022 21.7673 41.9657C21.3823 41.5541 21.0139 41.1313 20.6594 40.6862C20.6262 40.6584 20.5957 40.6334 20.568 40.6055L20.5098 40.5416C17.7995 37.07 16.3312 32.7835 16.3414 28.3721V23.585H46.3099V28.3721C46.3155 32.7825 44.8423 37.0664 42.1276 40.5332L42.0694 40.6L41.978 40.6779C41.6263 41.1229 41.2634 41.5513 40.8895 41.949L40.8618 41.9796C40.643 42.2105 40.4187 42.4164 40.2054 42.6166L40.0863 42.7279C37.3913 45.1729 34.2892 46.5081 31.3229 46.5081V46.5081ZM21.5568 39.6153C21.6186 39.6621 21.6736 39.7173 21.7202 39.7794C22.0526 40.2022 22.4043 40.6139 22.7699 41.0061C22.9638 41.2147 23.166 41.4011 23.3765 41.5986L23.5067 41.721C25.9219 43.9073 28.7027 45.1173 31.3229 45.1173C33.943 45.1173 36.7266 43.9073 39.1501 41.7126L39.2637 41.6069C39.4769 41.4066 39.6791 41.2175 39.8758 41.0117L39.9007 40.9838C40.2525 40.6055 40.5987 40.1994 40.9255 39.7766C40.9745 39.7148 41.0313 39.6596 41.0945 39.6125C43.5843 36.3999 44.9327 32.4432 44.925 28.3721V24.9758H17.7263V28.3721C17.718 32.4441 19.0664 36.4019 21.5568 39.6153V39.6153Z" fill="white"/>
<path d="M38.8842 13.6074L40.5461 4.89551L41.3936 5.40176C43.761 6.79758 45.7872 8.70795 47.3236 10.9927L47.9163 11.8661L38.8842 13.6074ZM41.5238 7.1319L40.6264 11.8606L45.5482 10.9121C44.4195 9.44134 43.0603 8.16464 41.5238 7.1319V7.1319Z" fill="white"/>
<path d="M23.7643 13.6074L14.746 11.8661L15.3304 10.9955C16.8674 8.71046 18.8934 6.79928 21.2604 5.40176L22.1107 4.89551L23.7643 13.6074ZM17.1003 10.9065L22.0221 11.855L21.1247 7.12634C19.587 8.15759 18.2276 9.43451 17.1003 10.9065V10.9065Z" fill="white"/>
</g>
<defs>
<clipPath id="clip0">
<rect width="65" height="65" fill="white"/>
</clipPath>
</defs>
</svg>
