<svg width="106" height="57" viewBox="0 0 106 57" fill="none" xmlns="http://www.w3.org/2000/svg">
<g clip-path="url(#clip0)">
<path d="M58.3816 10.0942V24.0858H57.015V10.0942H31.7809V50.5659H38.1689L41.6118 35.7516H42.8248L40.4095 46.1622L39.8347 48.6436L39.3872 50.5659H47.825L47.3801 48.6462L46.8054 46.1622L44.39 35.7516H45.6003L49.0433 50.5659H53.7627C53.7019 50.5414 53.6467 50.5051 53.6003 50.4589C53.5538 50.4128 53.5172 50.3579 53.4925 50.2974C53.4678 50.2369 53.4556 50.1721 53.4565 50.1068C53.4574 50.0415 53.4715 49.977 53.4979 49.9172L56.4959 41.959H57.6559L54.5175 50.2943C54.4631 50.4105 54.3693 50.5038 54.2527 50.558H61.8589L62.8653 46.2334L63.6122 48.227L63.0693 50.558H65.9825C65.8661 50.5034 65.7725 50.4102 65.7177 50.2943L63.6546 44.8121L63.297 43.8787L62.5767 41.959H63.7393L66.74 49.9146C66.7722 49.9962 66.7835 50.0845 66.7729 50.1715C66.7623 50.2585 66.73 50.3415 66.679 50.413C66.6261 50.4791 66.558 50.5315 66.4804 50.5659H71.5124L71.0675 48.6462L70.4901 46.1622L68.4349 37.289V35.7516H69.2877L72.7307 50.5659H80.0906V10.0942H58.3816ZM37.9888 16.5152C37.9888 16.4338 38.0049 16.3532 38.0362 16.278C38.0675 16.2029 38.1133 16.1345 38.1711 16.077C38.2289 16.0195 38.2975 15.9738 38.373 15.9427C38.4485 15.9115 38.5294 15.8955 38.6112 15.8955H54.8221C54.9038 15.8955 54.9848 15.9115 55.0603 15.9427C55.1358 15.9738 55.2044 16.0195 55.2622 16.077C55.32 16.1345 55.3658 16.2029 55.3971 16.278C55.4284 16.3532 55.4445 16.4338 55.4445 16.5152V25.8236H37.9968L37.9888 16.5152ZM37.9888 27.0629H55.4392V27.6879C55.4392 27.8522 55.3736 28.0098 55.2569 28.1261C55.1402 28.2423 54.9819 28.3076 54.8168 28.3076H38.6191C38.4541 28.3076 38.2958 28.2423 38.179 28.1261C38.0623 28.0098 37.9968 27.8522 37.9968 27.6879L37.9888 27.0629ZM48.9665 32.0256H44.4642L45.2958 29.5443H48.1375L48.9665 32.0256ZM45.6904 46.919L45.9791 48.161H41.2119L41.5006 46.919H45.6904ZM46.0903 34.5096H37.9968V33.2676H54.7162V34.5096H46.0903ZM65.0609 41.9484L65.0238 41.8456H65.0873L65.0609 41.9484ZM65.3548 40.4243C65.2966 40.4506 65.241 40.4744 65.1827 40.4955C65.0477 40.5501 64.9087 40.5942 64.7669 40.6273C64.7113 40.6273 64.6583 40.6511 64.6027 40.659C64.4228 40.6932 64.2402 40.7117 64.0571 40.7143H51.9089C51.6609 40.7143 51.4231 40.6163 51.2478 40.4417C51.0725 40.2671 50.974 40.0304 50.974 39.7835C50.974 39.5366 51.0725 39.2999 51.2478 39.1253C51.4231 38.9507 51.6609 38.8527 51.9089 38.8527H55.3518C55.5169 38.8527 55.6752 38.7874 55.7919 38.6712C55.9086 38.5549 55.9742 38.3973 55.9742 38.233V31.4086C55.9742 29.9273 56.5652 28.5068 57.6171 27.4594C58.6691 26.412 60.0958 25.8236 61.5835 25.8236C63.0712 25.8236 64.4979 26.412 65.5499 27.4594C66.6019 28.5068 67.1928 29.9273 67.1928 31.4086V37.6133C67.1903 38.2075 67.0165 38.7885 66.6921 39.2873C66.3677 39.786 65.9063 40.1816 65.3628 40.4269L65.3548 40.4243ZM69.3884 46.9217L69.6744 48.1637H67.4153L66.9465 46.9217H69.3884ZM72.9028 34.5123H68.4296V33.2703H72.8975L72.9028 34.5123Z" fill="#FF8400"/>
<path d="M4.81218 3.16406V56.9997H106V3.16406H4.81218ZM100.904 52.2612H9.91302V8.62252H100.904V52.2612Z" fill="#FF8400"/>
<path d="M30.1866 10.2046H24.3786H22.9035H11.5021V50.5655H30.1866V10.2046Z" fill="#FF8400"/>
<path d="M85.8562 10.2046H81.8544V50.5655H99.3075V10.2046H87.3287H85.8562Z" fill="#FF8400"/>
<path d="M11.5021 10.205H22.9035H24.3786H30.1866V10.0942H11.4994V50.5659H11.5021V10.205Z" fill="#FF8400"/>
<path d="M85.8562 10.205H87.3287H99.3075V10.0942H81.8544V10.205H85.8562Z" fill="#FF8400"/>
<path d="M64.7192 33.6286H60.5692V33.1223C60.5689 32.0191 60.2391 30.9409 59.6217 30.0248C59.0043 29.1087 58.1272 28.3962 57.1019 27.9778C56.0767 27.5594 54.9496 27.4541 53.8641 27.6752C52.7785 27.8963 51.7836 28.4339 51.0058 29.2196V20.9871C51.0061 20.7878 50.967 20.5903 50.8906 20.4061C50.8142 20.2218 50.7021 20.0544 50.5607 19.9133C50.4192 19.7722 50.2512 19.6603 50.0663 19.5839C49.8814 19.5076 49.6831 19.4683 49.4829 19.4683H36.2832C36.0829 19.4683 35.8845 19.5075 35.6995 19.5839C35.5144 19.6602 35.3462 19.7721 35.2046 19.9131C35.0629 20.0542 34.9505 20.2216 34.8739 20.4059C34.7972 20.5902 34.7578 20.7877 34.7578 20.9871V30.0898C34.7585 30.4922 34.9195 30.8779 35.2055 31.1621C35.4915 31.4464 35.8791 31.6061 36.2832 31.6061H40.6558L39.9804 33.6286H35.2662C35.1314 33.6286 35.002 33.6819 34.9067 33.7769C34.8113 33.8718 34.7578 34.0006 34.7578 34.1349V36.1574C34.7578 36.2917 34.8113 36.4205 34.9067 36.5154C35.002 36.6104 35.1314 36.6637 35.2662 36.6637H37.6763L34.763 49.1918C34.7329 49.3226 34.7562 49.4599 34.8277 49.5736C34.8992 49.6873 35.0131 49.7681 35.1444 49.7983C35.1818 49.8068 35.22 49.8112 35.2583 49.8115H37.2896C37.4046 49.8114 37.5162 49.7725 37.6062 49.7011C37.6961 49.6298 37.7591 49.5302 37.7849 49.4186L38.1636 47.7889H42.5123L42.891 49.4186C42.9162 49.53 42.9787 49.6295 43.0682 49.7009C43.1577 49.7723 43.2689 49.8113 43.3836 49.8115H45.4176C45.552 49.8108 45.6807 49.7571 45.7755 49.6623C45.8702 49.5674 45.9235 49.439 45.9235 49.3052C45.9274 49.2675 45.9274 49.2295 45.9235 49.1918L43.0102 36.6532H49.3955V38.1694H47.1099C46.6386 38.1694 46.1866 38.3558 45.8534 38.6876C45.5201 39.0195 45.3329 39.4695 45.3329 39.9388C45.3329 40.4081 45.5201 40.8581 45.8534 41.1899C46.1866 41.5218 46.6386 41.7082 47.1099 41.7082H49.7584L47.4489 47.8364C47.3815 48.0151 47.35 48.2053 47.3563 48.3961C47.3627 48.5868 47.4067 48.7745 47.4859 48.9484C47.5651 49.1222 47.6779 49.2788 47.8179 49.4093C47.9578 49.5397 48.1223 49.6415 48.3017 49.7086C48.4812 49.7758 48.6722 49.8071 48.8638 49.8008C49.0554 49.7945 49.2439 49.7507 49.4185 49.6718C49.5931 49.593 49.7504 49.4807 49.8815 49.3413C50.0125 49.2019 50.1146 49.0382 50.1821 48.8595L51.9221 44.237H55.2035L54.0594 49.1812C54.0292 49.3117 54.0521 49.4487 54.123 49.5623C54.194 49.676 54.3073 49.757 54.4381 49.7877C54.4764 49.7962 54.5154 49.8006 54.5546 49.8009H56.586C56.701 49.8009 56.8126 49.762 56.9025 49.6906C56.9925 49.6192 57.0554 49.5196 57.0812 49.408L57.2825 48.5405L57.4043 48.8595C57.468 49.043 57.568 49.2119 57.6983 49.3563C57.8287 49.5007 57.9867 49.6176 58.1632 49.7001C58.3397 49.7826 58.531 49.8291 58.7258 49.8368C58.9207 49.8445 59.1151 49.8132 59.2975 49.7448C59.48 49.6764 59.6469 49.5723 59.7883 49.4387C59.9297 49.305 60.0428 49.1445 60.1208 48.9666C60.1989 48.7887 60.2403 48.597 60.2427 48.4029C60.2451 48.2088 60.2084 48.0162 60.1348 47.8364L60.111 47.7784H61.806L62.1847 49.408C62.2105 49.5196 62.2735 49.6192 62.3634 49.6906C62.4534 49.762 62.5649 49.8009 62.6799 49.8009H64.7113C64.8461 49.8009 64.9755 49.7476 65.0708 49.6526C65.1662 49.5577 65.2198 49.4289 65.2198 49.2946C65.2237 49.2569 65.2237 49.2189 65.2198 49.1812L62.3065 36.6532H64.7166C64.8514 36.6532 64.9808 36.5998 65.0761 36.5049C65.1715 36.4099 65.2251 36.2812 65.2251 36.1469V34.1243C65.2223 33.9924 65.1679 33.8667 65.0734 33.7741C64.9789 33.6815 64.8518 33.6293 64.7192 33.6286V33.6286ZM49.3955 33.1223V33.6286H45.7857L45.1077 31.6061H49.4829C49.5279 31.6061 49.5703 31.6061 49.6153 31.6061C49.471 32.0987 49.397 32.6091 49.3955 33.1223V33.1223ZM36.2832 20.4808H49.4882C49.6231 20.4808 49.7524 20.5342 49.8478 20.6291C49.9431 20.7241 49.9967 20.8529 49.9967 20.9871V28.571H35.7747V20.9871C35.7747 20.9206 35.7879 20.8548 35.8134 20.7934C35.839 20.732 35.8765 20.6761 35.9237 20.6291C35.9709 20.5821 36.0269 20.5448 36.0886 20.5194C36.1503 20.4939 36.2165 20.4808 36.2832 20.4808V20.4808ZM35.7747 30.0898V29.5835H49.9967V30.0898C49.996 30.2237 49.9421 30.3518 49.8468 30.4461C49.7516 30.5405 49.6226 30.5935 49.4882 30.5935H36.2832C36.2162 30.5942 36.1498 30.5817 36.0876 30.5567C36.0255 30.5318 35.9689 30.4948 35.9212 30.448C35.8734 30.4012 35.8355 30.3455 35.8094 30.284C35.7834 30.2225 35.7698 30.1565 35.7694 30.0898H35.7747ZM41.7284 31.6061H44.0431L44.7184 33.6286H41.0504L41.7284 31.6061ZM35.9019 48.7989L38.7171 36.669H39.7076L37.7372 45.1494L37.2684 47.1719L36.8897 48.8042L35.9019 48.7989ZM40.3433 38.4067L41.8158 44.7538H38.8681L40.3433 38.4067ZM38.402 46.7764L38.6377 45.7664H42.0488L42.2819 46.7764H38.402ZM44.7846 48.7989H43.7968L43.4181 47.1693L42.9493 45.1467L40.9789 36.6532H41.9641L44.7846 48.7989ZM42.3746 35.6511H35.7694V34.6412H49.3955V35.6511H42.3746ZM46.3472 39.9493C46.3472 39.8497 46.3669 39.7511 46.4053 39.6591C46.4437 39.5671 46.4999 39.4836 46.5708 39.4133C46.6416 39.343 46.7257 39.2873 46.8183 39.2494C46.9108 39.2115 47.0099 39.1922 47.1099 39.1925H49.904C49.9707 39.1925 50.0367 39.1794 50.0982 39.1539C50.1598 39.1285 50.2156 39.0911 50.2626 39.0441C50.3096 38.997 50.3469 38.9412 50.3721 38.8798C50.3974 38.8184 50.4102 38.7526 50.4099 38.6862V33.1223C50.4099 31.9152 50.8915 30.7576 51.7487 29.904C52.606 29.0505 53.7687 28.571 54.981 28.571C56.1934 28.571 57.3561 29.0505 58.2133 29.904C59.0706 30.7576 59.5522 31.9152 59.5522 33.1223V38.18C59.5513 38.6632 59.411 39.136 59.1481 39.5423C58.8852 39.9485 58.5107 40.271 58.0691 40.4714L57.9313 40.5321C57.8204 40.5736 57.7073 40.6088 57.5924 40.6376L57.4573 40.6639C57.3115 40.692 57.1635 40.7071 57.015 40.7088H47.1099C47.0098 40.7088 46.9106 40.6891 46.8181 40.651C46.7255 40.6128 46.6414 40.5569 46.5706 40.4863C46.4998 40.4158 46.4436 40.3321 46.4053 40.24C46.3669 40.1478 46.3472 40.0491 46.3472 39.9493ZM57.8307 41.7134L57.8016 41.6317H57.8519L57.8307 41.7134ZM49.2393 48.5194C49.1885 48.6297 49.0959 48.7155 48.9817 48.758C48.8676 48.8005 48.7411 48.7962 48.6301 48.7462C48.5622 48.7178 48.5029 48.6724 48.458 48.6143C48.4177 48.556 48.392 48.4889 48.3833 48.4187C48.3745 48.3485 48.3829 48.2772 48.4077 48.2109L50.8495 41.724H51.7976L49.2393 48.5194ZM52.8808 41.724H54.7162L55.2882 43.2429H52.3114L52.8808 41.724ZM56.186 48.8042H55.2008L56.0351 45.2153L56.6442 46.8396L56.186 48.8042ZM59.139 48.6143C59.0626 48.7094 58.9514 48.7705 58.8299 48.7843C58.7083 48.7982 58.5862 48.7636 58.4902 48.6881C58.434 48.6423 58.3888 48.5847 58.3577 48.5194L56.676 44.0366L56.3873 43.2745L55.7994 41.7082H56.7475L59.1867 48.1924C59.2125 48.2588 59.2217 48.3306 59.2134 48.4013C59.2051 48.4721 59.1796 48.5398 59.139 48.5985V48.6143ZM58.4769 43.4327L59.0066 41.107C59.4125 40.8285 59.756 40.4694 60.0156 40.0522L61.1068 44.7512H58.9801L58.4769 43.4327ZM59.7376 46.7816L59.3588 45.7717H61.3452L61.5809 46.7816H59.7376ZM64.081 48.8042H63.0931L62.717 47.1745L62.2377 45.1467L60.5612 37.9163V36.6532H61.2551L64.081 48.8042ZM64.2107 35.6564H60.5692V34.6465H64.2107V35.6564Z" fill="white"/>
<path d="M95.6156 4.74902H6.74817V49.8116H95.6156V4.74902Z" stroke="white" stroke-miterlimit="10"/>
<path d="M101.492 0.791016H0.794525V52.7861H101.492V0.791016Z" stroke="white" stroke-miterlimit="10"/>
<path d="M27.909 5.27686H26.5424V49.311H27.909V5.27686Z" fill="white"/>
<path d="M50.1636 4.31641H48.797V18.3845H50.1636V4.31641Z" fill="white"/>
<path d="M72.8525 5.0127H71.4859V49.0469H72.8525V5.0127Z" fill="white"/>
</g>
<defs>
<clipPath id="clip0">
<rect width="106" height="57" fill="white"/>
</clipPath>
</defs>
</svg>
