<svg width="68" height="60" viewBox="0 0 68 60" fill="none" xmlns="http://www.w3.org/2000/svg">
<path d="M56.0381 49.3727C52.8934 49.331 49.8916 48.053 47.6826 45.8155C45.4735 43.5779 44.2349 40.5607 44.2349 37.4171C44.2349 34.2734 45.4735 31.2563 47.6826 29.0187C49.8916 26.7811 52.8934 25.5032 56.0381 25.4615H62.6841V20.1479C62.6824 18.7391 62.1218 17.3885 61.1252 16.3924C60.1287 15.3963 58.7775 14.8359 57.3682 14.8342H54.7165V9.52064C54.7148 8.1108 54.1534 6.75928 53.1554 5.76297C52.1575 4.76665 50.8047 4.20703 49.3943 4.20703H12.1828C10.3027 4.21153 8.48461 4.88033 7.05008 6.0952C5.61555 7.31008 4.65692 8.99279 4.34364 10.8459C4.27 11.0614 4.22473 11.2855 4.20895 11.5127V52.0295C4.21174 54.1425 5.05273 56.1682 6.54752 57.6623C8.04231 59.1565 10.0689 59.9971 12.1828 59.9999H57.3682C58.7764 59.9982 60.1266 59.4387 61.123 58.444C62.1194 57.4492 62.6807 56.1003 62.6841 54.6926V49.3727H56.0381ZM9.52487 12.1774C9.52543 11.473 9.80564 10.7975 10.304 10.2994C10.8023 9.80129 11.4781 9.52119 12.1828 9.52064H49.3943V14.8342H12.1828C11.4781 14.8337 10.8023 14.5536 10.304 14.0555C9.80564 13.5573 9.52543 12.8819 9.52487 12.1774V12.1774Z" fill="#FF8400"/>
<path d="M66.007 29.4497H56.0381C53.9233 29.4497 51.8951 30.2894 50.3997 31.7842C48.9043 33.2789 48.0642 35.3062 48.0642 37.4201C48.0642 39.534 48.9043 41.5613 50.3997 43.056C51.8951 44.5508 53.9233 45.3905 56.0381 45.3905H66.007C66.5354 45.39 67.042 45.1799 67.4157 44.8064C67.7893 44.433 67.9994 43.9266 68 43.3984V31.4397C67.9983 30.9121 67.7877 30.4065 67.4143 30.0337C67.0409 29.6608 66.5349 29.4508 66.007 29.4497V29.4497ZM56.0381 40.0727C55.5124 40.0727 54.9985 39.9169 54.5614 39.625C54.1243 39.333 53.7836 38.9181 53.5825 38.4326C53.3813 37.9471 53.3287 37.413 53.4312 36.8976C53.5338 36.3822 53.7869 35.9088 54.1586 35.5373C54.5304 35.1657 55.004 34.9127 55.5196 34.8102C56.0352 34.7076 56.5696 34.7603 57.0553 34.9613C57.5409 35.1624 57.9561 35.503 58.2481 35.9399C58.5402 36.3768 58.6961 36.8904 58.6961 37.4159C58.6961 38.1205 58.416 38.7963 57.9176 39.2945C57.4191 39.7928 56.743 40.0727 56.0381 40.0727V40.0727Z" fill="#FF8400"/>
<path d="M53.7905 57.055H8.60522C6.32383 57.0522 4.13668 56.1451 2.52349 54.5326C0.910298 52.9201 0.00278457 50.7339 0 48.4535L0 7.93676C0.00730536 7.69437 0.0491133 7.45425 0.124164 7.22365L0.149418 7.13109C0.488606 5.13538 1.52394 3.32423 3.07181 2.01886C4.61968 0.71349 6.58004 -0.00174592 8.60522 3.20054e-06H45.8167C47.3944 0.000558882 48.9074 0.626849 50.0236 1.74139C51.1398 2.85593 51.768 4.36764 51.7702 5.94468V10.6272H53.7969C55.3735 10.6294 56.8849 11.2565 57.9997 12.3708C59.1146 13.4852 59.7419 14.9959 59.7441 16.5719V22.5082H52.4605C49.4825 22.5487 46.6402 23.7597 44.5486 25.879C42.457 27.9984 41.2844 30.8557 41.2844 33.8327C41.2844 36.8097 42.457 39.667 44.5486 41.7863C46.6402 43.9057 49.4825 45.1167 52.4605 45.1572H59.7378V51.1166C59.7339 52.6915 59.1059 54.2006 57.9912 55.3136C56.8765 56.4266 55.3661 57.0528 53.7905 57.055V57.055ZM8.60522 1.26214C6.87283 1.26127 5.19641 1.87534 3.87478 2.9949C2.55315 4.11447 1.67221 5.66676 1.38896 7.3751L1.37633 7.434L1.33845 7.57284C1.29813 7.69052 1.27268 7.81277 1.26269 7.93676V48.4535C1.26492 50.3994 2.03922 52.2649 3.41573 53.6408C4.79224 55.0167 6.65855 55.7906 8.60522 55.7929H53.7905C55.0314 55.7912 56.221 55.2982 57.099 54.4218C57.977 53.5454 58.4718 52.3569 58.4751 51.1166V46.4278H52.4605C49.1491 46.385 45.9877 45.0401 43.6612 42.6843C41.3346 40.3285 40.0301 37.1514 40.0301 33.8411C40.0301 30.5308 41.3346 27.3538 43.6612 24.998C45.9877 22.6421 49.1491 21.2972 52.4605 21.2544H58.4751V16.5719C58.4734 15.3305 57.9794 14.1405 57.1012 13.2627C56.223 12.3849 55.0325 11.891 53.7905 11.8894H50.5076V5.94468C50.5059 4.70221 50.0109 3.51121 49.1314 2.63324C48.2519 1.75528 47.0597 1.26214 45.8167 1.26214H8.60522ZM46.448 11.8894H8.60522C7.73285 11.8894 6.8962 11.543 6.27933 10.9264C5.66247 10.3098 5.31592 9.47348 5.31592 8.60148C5.31592 7.72948 5.66247 6.8932 6.27933 6.27661C6.8962 5.66001 7.73285 5.31361 8.60522 5.31361H46.448V11.8894ZM8.60522 6.57575C8.06773 6.57575 7.55225 6.78917 7.17219 7.16907C6.79213 7.54897 6.57861 8.06422 6.57861 8.60148C6.57861 9.13874 6.79213 9.65399 7.17219 10.0339C7.55225 10.4138 8.06773 10.6272 8.60522 10.6272H45.1853V6.57575H8.60522Z" fill="white"/>
<path d="M62.4294 42.4417H52.4605C50.1783 42.4417 47.9895 41.5355 46.3757 39.9224C44.7619 38.3093 43.8553 36.1215 43.8553 33.8402C43.8553 31.559 44.7619 29.3712 46.3757 27.7581C47.9895 26.145 50.1783 25.2388 52.4605 25.2388H62.4294C63.1255 25.2399 63.7926 25.5169 64.2846 26.009C64.7766 26.5012 65.0532 27.1683 65.0537 27.864V39.8186C65.0526 40.5139 64.7758 41.1805 64.2839 41.6722C63.792 42.1639 63.1251 42.4406 62.4294 42.4417V42.4417ZM52.4605 26.5051C50.5131 26.5051 48.6455 27.2784 47.2685 28.6548C45.8915 30.0312 45.118 31.8979 45.118 33.8445C45.118 35.791 45.8915 37.6578 47.2685 39.0342C48.6455 40.4106 50.5131 41.1838 52.4605 41.1838H62.4294C62.7904 41.1832 63.1364 41.0397 63.3916 40.7846C63.6468 40.5294 63.7905 40.1836 63.791 39.8228V27.864C63.7905 27.503 63.6469 27.157 63.3917 26.9015C63.1366 26.6461 62.7906 26.502 62.4294 26.5009L52.4605 26.5051ZM52.4605 37.1323C51.8099 37.1323 51.174 36.9395 50.6331 36.5782C50.0921 36.2169 49.6705 35.7035 49.4216 35.1027C49.1726 34.5019 49.1075 33.8408 49.2344 33.203C49.3613 32.5652 49.6746 31.9794 50.1346 31.5196C50.5946 31.0598 51.1807 30.7466 51.8188 30.6198C52.4569 30.4929 53.1182 30.558 53.7193 30.8069C54.3203 31.0557 54.834 31.4771 55.1955 32.0178C55.5569 32.5585 55.7498 33.1942 55.7498 33.8445C55.7476 34.7154 55.4002 35.5499 54.7837 36.1654C54.1672 36.7808 53.3318 37.127 52.4605 37.1281V37.1323ZM52.4605 31.8187C52.0597 31.8187 51.6678 31.9375 51.3346 32.1601C51.0013 32.3827 50.7415 32.6991 50.5882 33.0692C50.4348 33.4394 50.3946 33.8467 50.4728 34.2397C50.551 34.6326 50.744 34.9936 51.0275 35.2769C51.3109 35.5602 51.672 35.7531 52.0651 35.8313C52.4583 35.9094 52.8657 35.8693 53.2361 35.716C53.6064 35.5627 53.9229 35.303 54.1456 34.9699C54.3683 34.6368 54.4871 34.2451 54.4871 33.8445C54.4874 33.5782 54.4352 33.3144 54.3335 33.0683C54.2318 32.8221 54.0826 32.5984 53.8944 32.4099C53.7062 32.2214 53.4827 32.0718 53.2367 31.9697C52.9907 31.8675 52.7269 31.8148 52.4605 31.8145V31.8187Z" fill="white"/>
</svg>
