<svg width="101" height="56" viewBox="0 0 101 56" fill="none" xmlns="http://www.w3.org/2000/svg">
<g clip-path="url(#clip0)">
<path d="M4.70786 4.50586V56.0053H101V4.50586H4.70786ZM96.1459 51.4643H9.5619V9.71786H96.1459V51.4643Z" fill="#FF8400"/>
<path d="M48.2859 35.6717C48.3888 35.7491 48.5059 35.8054 48.6305 35.8374C48.7552 35.8694 48.8849 35.8764 49.0122 35.8582C49.1396 35.8399 49.2621 35.7966 49.3728 35.7309C49.4834 35.6651 49.58 35.5781 49.657 35.4749L52.5981 31.5495C52.7262 31.3804 52.7953 31.1739 52.7947 30.9617V30.9617V25.0736C52.7947 24.8134 52.6914 24.5638 52.5076 24.3797C52.3237 24.1957 52.0743 24.0923 51.8143 24.0923C51.5543 24.0923 51.3049 24.1957 51.1211 24.3797C50.9372 24.5638 50.8339 24.8134 50.8339 25.0736V30.6237L48.0893 34.3094C47.937 34.5169 47.8723 34.776 47.909 35.0308C47.9458 35.2857 48.0812 35.5158 48.2859 35.6717Z" fill="#FF8400"/>
<path d="M76.3341 49.8447V11.2314H30.5457V49.8447H76.3341ZM57.18 17.6796C58.0991 16.76 59.3455 16.2434 60.645 16.2437C61.9445 16.2439 63.1907 16.7609 64.1095 17.6809C65.0282 18.6008 65.5442 19.8485 65.544 21.1493C65.5438 22.4501 65.0273 23.6975 64.1082 24.6172C63.9244 24.8011 63.6751 24.9044 63.4151 24.9044C63.1552 24.9044 62.9059 24.8011 62.7221 24.6172L57.1775 19.0671C56.993 18.8838 56.8889 18.6346 56.888 18.3744C56.887 18.1142 56.9893 17.8643 57.1724 17.6796H57.18ZM59.2819 23.1489C60.3043 24.1295 61.1238 25.3021 61.6935 26.5997C62.2631 27.8973 62.5719 29.2945 62.6021 30.7116C62.6323 32.1286 62.3833 33.5378 61.8694 34.8585C61.3555 36.1792 60.5867 37.3857 59.607 38.409L62.407 42.1477C62.4912 42.2502 62.5537 42.3686 62.5909 42.4959C62.6281 42.6232 62.6391 42.7567 62.6232 42.8884C62.6074 43.02 62.5651 43.1471 62.4988 43.262C62.4326 43.3768 62.3437 43.477 62.2377 43.5565C62.1317 43.636 62.0106 43.6932 61.8819 43.7246C61.7532 43.756 61.6194 43.7609 61.4888 43.7392C61.3581 43.7174 61.2332 43.6693 61.1215 43.5978C61.0099 43.5263 60.914 43.433 60.8394 43.3233L58.1175 39.7007C56.2871 41.0349 54.0811 41.7536 51.8168 41.7536C49.5525 41.7536 47.3466 41.0349 45.5162 39.7007L42.8018 43.3233C42.6461 43.5318 42.414 43.6697 42.1566 43.7068C41.8993 43.744 41.6377 43.6773 41.4295 43.5214C41.2213 43.3655 41.0835 43.1332 41.0464 42.8756C41.0093 42.618 41.0759 42.3562 41.2317 42.1477L44.0342 38.409C42.0731 36.373 40.9888 33.6478 41.0145 30.8197C41.0403 27.9916 42.1741 25.2866 44.172 23.2868C46.1699 21.2869 48.8722 20.152 51.6975 20.1262C54.5228 20.1004 57.2454 21.1859 59.2794 23.1489H59.2819ZM46.4562 17.6796C46.64 17.8636 46.7432 18.1132 46.7432 18.3733C46.7432 18.6335 46.64 18.8831 46.4562 19.0671L40.9116 24.6172C40.7278 24.8011 40.4785 24.9044 40.2185 24.9044C39.9586 24.9044 39.7093 24.8011 39.5255 24.6172C38.639 23.6905 38.1504 22.4533 38.1643 21.1704C38.1781 19.8875 38.6934 18.6611 39.5997 17.7539C40.506 16.8468 41.7312 16.331 43.0128 16.3171C44.2944 16.3032 45.5305 16.7923 46.4562 17.6796Z" fill="#FF8400"/>
<path d="M28.8546 11.2314H23.3276H21.9238H11.0741V49.8447H28.8546V11.2314Z" fill="#FF8400"/>
<path d="M81.8308 11.2314H78.0226V49.8447H94.6313V11.2314H83.2321H81.8308Z" fill="#FF8400"/>
<path d="M11.0741 11.2314H21.9239H23.3277H28.8546V11.1255H11.0716V49.8447H11.0741V11.2314Z" fill="#FF8400"/>
<path d="M52.5654 11.2314H53.9692H76.3341V11.1255H30.5457V11.2314H52.5654Z" fill="#FF8400"/>
<path d="M81.8308 11.2314H83.2321H94.6313V11.1255H78.0226V11.2314H81.8308Z" fill="#FF8400"/>
<path d="M40.0724 34.6601L37.2748 38.3988C37.1257 38.6073 37.064 38.8659 37.103 39.1194C37.142 39.3728 37.2785 39.6009 37.4834 39.7548C37.6882 39.9088 37.9451 39.9764 38.1991 39.9431C38.4531 39.9099 38.684 39.7784 38.8425 39.5769L41.5593 35.9517C43.3897 37.2859 45.5957 38.0047 47.86 38.0047C50.1243 38.0047 52.3303 37.2859 54.1607 35.9517L56.875 39.5769C57.0334 39.7784 57.2643 39.9099 57.5183 39.9431C57.7723 39.9764 58.0293 39.9088 58.2341 39.7548C58.439 39.6009 58.5755 39.3728 58.6145 39.1194C58.6534 38.8659 58.5918 38.6073 58.4426 38.3988L55.6476 34.6601C57.1093 33.133 58.0906 31.2097 58.4695 29.1291C58.8484 27.0485 58.6082 24.9024 57.7789 22.9573C56.9495 21.0121 55.5675 19.3538 53.8045 18.1883C52.0415 17.0227 49.9753 16.4014 47.8625 16.4014C45.7497 16.4014 43.6835 17.0227 41.9205 18.1883C40.1576 19.3538 38.7755 21.0121 37.9462 22.9573C37.1168 24.9024 36.8767 27.0485 37.2556 29.1291C37.6345 31.2097 38.6157 33.133 40.0774 34.6601H40.0724ZM44.1325 30.548L46.8771 26.885V21.3349C46.8771 21.0746 46.9804 20.825 47.1642 20.641C47.3481 20.457 47.5975 20.3536 47.8575 20.3536C48.1175 20.3536 48.3669 20.457 48.5507 20.641C48.7346 20.825 48.8379 21.0746 48.8379 21.3349V27.223C48.8371 27.435 48.7682 27.6411 48.6413 27.8108L45.7001 31.7362C45.6241 31.8425 45.5276 31.9325 45.4163 32.001C45.305 32.0695 45.1812 32.115 45.0521 32.1349C44.923 32.1548 44.7913 32.1486 44.6646 32.1168C44.5379 32.085 44.4188 32.0282 44.3143 31.9497C44.2099 31.8712 44.1222 31.7726 44.0563 31.6597C43.9905 31.5468 43.9478 31.4218 43.9309 31.2922C43.9139 31.1626 43.923 31.0308 43.9577 30.9048C43.9923 30.7787 44.0517 30.6608 44.1325 30.5581V30.548Z" stroke="white" stroke-miterlimit="10"/>
<path d="M35.5737 20.8684C35.7575 21.0523 36.0068 21.1557 36.2667 21.1557C36.5267 21.1557 36.776 21.0523 36.9598 20.8684L42.5044 15.3184C42.6882 15.1343 42.7914 14.8848 42.7914 14.6246C42.7914 14.3644 42.6882 14.1149 42.5044 13.9308C41.5857 13.0109 40.3395 12.4939 39.0399 12.4937C37.7404 12.4934 36.494 13.0099 35.5749 13.9296C34.6559 14.8492 34.1394 16.0967 34.1392 17.3975C34.1389 18.6983 34.6549 19.9459 35.5737 20.8659V20.8684Z" stroke="white" stroke-miterlimit="10"/>
<path d="M58.7627 20.8683C58.9466 21.0523 59.1959 21.1556 59.4558 21.1556C59.7157 21.1556 59.965 21.0523 60.1489 20.8683C60.6038 20.4128 60.9646 19.872 61.2107 19.2769C61.4569 18.6818 61.5835 18.044 61.5834 17.3999C61.5833 16.7558 61.4564 16.118 61.2101 15.523C60.9637 14.928 60.6027 14.3874 60.1476 13.932C59.6925 13.4767 59.1523 13.1155 58.5578 12.8691C57.9633 12.6227 57.3261 12.496 56.6826 12.4961C56.0391 12.4962 55.402 12.6232 54.8076 12.8698C54.2131 13.1164 53.673 13.4778 53.2181 13.9333C53.0344 14.1173 52.9311 14.3668 52.9311 14.627C52.9311 14.8872 53.0344 15.1368 53.2181 15.3208L58.7627 20.8683Z" stroke="white" stroke-miterlimit="10"/>
<path d="M0.756073 0.756836V52.2512H97.0457V0.756836H0.756073ZM92.1942 47.7153H5.61012V5.96884H92.1942V47.7153Z" stroke="white" stroke-miterlimit="10"/>
<path d="M27.471 5.98145H26.0823V47.3217H27.471V5.98145Z" fill="white"/>
<path d="M73.0804 6.17285H71.6917V47.5131H73.0804V6.17285Z" fill="white"/>
</g>
<defs>
<clipPath id="clip0">
<rect width="101" height="56" fill="white"/>
</clipPath>
</defs>
</svg>
