<svg version="1.1" id="Capa_1" xmlns="http://www.w3.org/2000/svg" x="0" y="0" viewBox="0 0 512.001 512.001" xml:space="preserve"><path d="M256.017 121.493c-39.609 0-76.892 13.013-107.816 37.633-30.004 23.887-51.493 57.451-60.509 94.51-1.305 5.366 1.986 10.775 7.353 12.081 5.365 1.303 10.774-1.986 12.081-7.353 16.741-68.812 77.968-116.871 148.892-116.871 84.491 0 153.229 68.738 153.229 153.229s-68.738 153.229-153.229 153.229c-71.594 0-132.953-48.616-149.215-118.225-1.257-5.378-6.635-8.72-12.013-7.463-5.378 1.256-8.719 6.635-7.463 12.013 8.743 37.424 30.15 71.363 60.279 95.565 30.593 24.576 69.094 38.11 108.412 38.11 95.519 0 173.229-77.71 173.229-173.229s-77.711-173.229-173.23-173.229z"/><path d="M489.249 66.953l-16.571-16.571C457.993 35.697 438.468 27.61 417.7 27.61s-40.292 8.088-54.977 22.773c-3.905 3.905-3.905 10.237 0 14.142l35.315 35.315-17.079 17.079c-33.644-23.749-73.231-37.345-114.943-39.222V60h21.266c16.542 0 30-13.458 30-30s-13.458-30-30-30h-62.531c-16.542 0-30 13.458-30 30s13.458 30 30 30h21.266v17.697c-41.711 1.877-81.298 15.473-114.941 39.22L113.999 99.84l35.315-35.315c3.905-3.905 3.905-10.237 0-14.142-14.685-14.685-34.209-22.773-54.977-22.773s-40.292 8.087-54.978 22.773l-16.57 16.571C8.104 81.638.016 101.163.016 121.93s8.088 40.292 22.772 54.978a10.001 10.001 0 0014.142 0l34.765-34.765 15.636 15.636c-31.464 38.61-48.574 86.46-48.574 136.944 0 49.704 16.592 96.851 47.132 135.144a92260.72 92260.72 0 00-18.378 30.355A31615.45 31615.45 0 0052.346 485.3a5779.44 5779.44 0 00-5.005 8.301c-2.752 4.577-3.325 5.529-3.325 8.332 0 2.66 1.06 5.211 2.945 7.088 2.97 2.957 4.991 2.961 12.513 2.977a3590.449 3590.449 0 0011.949-.008c8.656-.02 17.292-.058 17.292-.058a10 10 0 007.578-3.527l32.111-37.812c36.865 26.869 81.121 41.387 127.613 41.387s90.747-14.518 127.612-41.387l32.111 37.812a9.998 9.998 0 007.578 3.527s8.636.038 17.292.058c2.915.006 5.83.011 8.421.011 1.266 0 2.455-.001 3.528-.003 7.521-.016 9.543-.021 12.513-2.977a10.004 10.004 0 002.945-7.088c0-2.803-.573-3.755-3.325-8.332a5779.44 5779.44 0 00-5.005-8.301 31615.45 31615.45 0 00-15.165-25.078c-7.115-11.757-14.226-23.499-18.378-30.355 30.541-38.293 47.132-85.44 47.132-135.144 0-50.483-17.109-98.332-48.572-136.941l15.638-15.638 34.765 34.765a10.002 10.002 0 0014.143 0c30.313-30.316 30.313-79.641-.001-109.956zM224.751 40c-5.514 0-10-4.486-10-10s4.486-10 10-10h62.531c5.514 0 10 4.486 10 10s-4.486 10-10 10h-62.531zM64.626 120.927l-.002.002-.002.002-34.156 34.157c-6.791-9.644-10.45-21.12-10.45-33.158 0-15.425 6.007-29.927 16.915-40.835l16.571-16.571C64.76 53.266 79.548 47.637 94.337 47.637c11.622 0 23.243 3.476 33.151 10.429l-34.7 34.7-.003.003-.003.003-28.156 28.155zM85.839 128l14.018-14.018 15.314 15.314a221.552 221.552 0 00-12.779 11.801c-.577.577-1.137 1.166-1.707 1.749L85.839 128zm-1.811 363.952c-3.927.015-8.252.029-12.356.038 7.451-12.33 18.353-30.342 28.059-46.369.882.912 1.761 1.827 2.661 2.726a222.395 222.395 0 0010.4 9.734l-28.764 33.871zm356.333.038c-4.103-.009-8.43-.023-12.356-.038l-28.764-33.871a222.416 222.416 0 0010.401-9.734c.9-.9 1.779-1.814 2.661-2.726a63576.436 63576.436 0 0128.058 46.369zm12.914-197.268c0 108.769-88.49 197.258-197.258 197.258-108.769 0-197.258-88.49-197.258-197.258 0-108.769 88.49-197.259 197.258-197.259s197.258 88.49 197.258 197.259zm-41.924-151.874c-.571-.583-1.131-1.173-1.709-1.751a221.792 221.792 0 00-12.776-11.799l15.316-15.316L426.199 128l-14.848 14.848zm70.214 12.234l-34.149-34.15-.003-.003-.003-.003-28.156-28.156-.001-.001-.002-.002-34.708-34.708c9.644-6.791 21.12-10.45 33.158-10.45 15.425 0 29.928 6.007 40.835 16.915l16.571 16.571c20.106 20.106 22.259 51.47 6.458 73.987z"/><path d="M256.017 260.023c-5.936 0-11.527 1.5-16.418 4.138l-40.682-40.682c-3.905-3.905-10.237-3.905-14.143 0-3.905 3.905-3.905 10.237 0 14.143l40.682 40.682a34.485 34.485 0 00-4.139 16.418c0 15.657 10.427 28.92 24.699 33.224v94.387c.001 5.523 4.478 10 10.001 10s10-4.477 10-10v-94.387c14.273-4.304 24.699-17.567 24.699-33.224 0-19.133-15.566-34.699-34.699-34.699zm-.001 49.398c-8.105 0-14.699-6.594-14.699-14.699s6.594-14.699 14.699-14.699 14.699 6.594 14.699 14.699-6.594 14.699-14.699 14.699zm100.898-84.578c-3.148-4.538-9.379-5.664-13.917-2.516-4.538 3.148-5.664 9.379-2.516 13.917 11.944 17.217 18.258 37.438 18.258 58.479 0 5.523 4.477 10 10 10s10-4.477 10-10c0-25.136-7.547-49.299-21.825-69.88zm18.892 100.087c-1.86-1.86-4.44-2.93-7.07-2.93s-5.21 1.07-7.07 2.93-2.93 4.44-2.93 7.07 1.07 5.21 2.93 7.07c1.86 1.86 4.44 2.93 7.07 2.93s5.21-1.07 7.07-2.93c1.86-1.86 2.93-4.44 2.93-7.07s-1.07-5.21-2.93-7.07zm-275.95-37.28c-1.86-1.86-4.44-2.93-7.07-2.93s-5.21 1.07-7.07 2.93-2.93 4.44-2.93 7.07 1.07 5.21 2.93 7.07 4.44 2.93 7.07 2.93 5.211-1.07 7.07-2.93c1.86-1.86 2.93-4.44 2.93-7.07s-1.07-5.21-2.93-7.07z"/></svg>