<svg version="1.1" id="Capa_1" xmlns="http://www.w3.org/2000/svg" x="0" y="0" viewBox="0 0 512 512" xml:space="preserve"><path d="M374.637 492h-.125c-5.522 0-10 4.478-10 10s4.478 10 10 10h.125c5.522 0 10-4.478 10-10s-4.478-10-10-10z"/><path d="M509.046 168.862L438 98.317V40c0-22.056-17.944-40-40-40H114C91.944 0 74 17.944 74 40v57.816l-71.071 71.07A10.007 10.007 0 000 175.958V432.5C0 476.337 35.664 512 79.5 512h250.432c5.522 0 10-4.478 10-10s-4.478-10-10-10H79.5c-11.707 0-22.625-3.412-31.839-9.274l18.747-18.747h153.59c5.522 0 10-4.478 10-10s-4.478-10-10-10H86.407l119.286-119.286c27.74-27.739 72.875-27.739 100.613 0l158.032 158.033A59.118 59.118 0 01432.5 492H419c-5.522 0-10 4.478-10 10s4.478 10 10 10h13.5c20.369 0 38.966-7.707 53.048-20.349.345-.265.681-.545.997-.861.132-.132.249-.274.373-.412C502.341 475.868 512 455.297 512 432.5V175.958a9.999 9.999 0 00-2.954-7.096zM438 126.502l49.833 49.481L438 225.816v-99.314zm-364-.401v99.715l-49.857-49.858L74 126.101zM32.799 469.302C24.795 459.167 20 446.387 20 432.5V200.101l141 141.001-128.201 128.2zm287.65-158.751c-35.537-35.535-93.361-35.535-128.898 0l-16.408 16.408L94 245.816V40c0-11.028 8.972-20 20-20h284c11.028 0 20 8.972 20 20v205.816l-81.143 81.143-16.408-16.408zM492 432.5c0 13.887-4.795 26.668-12.8 36.803L351 341.102l141-141.001V432.5z"/><path d="M262 92H161.529c-5.522 0-10 4.478-10 10s4.478 10 10 10H262c5.522 0 10-4.478 10-10s-4.478-10-10-10zm53.41 2.93a10.117 10.117 0 00-7.08-2.93c-2.63 0-5.21 1.069-7.07 2.93-1.86 1.861-2.93 4.44-2.93 7.07s1.069 5.21 2.93 7.069c1.87 1.861 4.44 2.931 7.07 2.931s5.21-1.07 7.08-2.931c1.859-1.859 2.92-4.439 2.92-7.069s-1.061-5.21-2.92-7.07zM350.47 164H161.529c-5.522 0-10 4.478-10 10s4.478 10 10 10H350.47c5.522 0 10-4.478 10-10s-4.478-10-10-10zm.001 72H161.529c-5.522 0-10 4.478-10 10s4.478 10 10 10H350.47c5.523 0 10.001-4.478 10.001-10s-4.478-10-10-10z"/></svg>