<svg version="1.1" id="Capa_1" xmlns="http://www.w3.org/2000/svg" x="0" y="0" viewBox="0 0 512 512" xml:space="preserve"><path d="M355.81 402.93a10.081 10.081 0 00-7.08-2.93 10.03 10.03 0 00-7.06 2.93 10.016 10.016 0 00-2.93 7.07c0 2.63 1.06 5.21 2.93 7.069a10.053 10.053 0 007.06 2.931c2.64 0 5.21-1.07 7.08-2.931 1.86-1.859 2.93-4.439 2.93-7.069s-1.07-5.21-2.93-7.07z"/><path d="M510.009 204.012A10 10 0 00502 200h-40.785V10c0-5.522-4.477-10-10-10h-184c-5.523 0-10 4.478-10 10v77H154.088c-5.523 0-10 4.478-10 10v103H107a10 10 0 00-9.592 12.829l58.987 200a10 10 0 009.591 7.171H304.5c5.523 0 10-4.478 10-10s-4.477-10-10-10H173.464l-53.088-180h368.249l-53.088 180H399c-5.523 0-10 4.478-10 10s4.477 10 10 10h44.013a10 10 0 009.591-7.171l58.987-200a10 10 0 00-1.582-8.817zM324.079 200H164.088v-93h159.991v93zm117.137 0H344.08V97c0-5.522-4.477-10-10-10h-56.864V20h164v180z"/><path d="M454.101 438H145.552L62.68 157.017a10 10 0 00-9.591-7.171H10c-5.523 0-10 4.478-10 10s4.477 10 10 10h35.612l82.873 280.983a10 10 0 009.591 7.171h49.616a36.763 36.763 0 00-4.153 17c0 20.402 16.598 37 37 37s37-16.598 37-37a36.763 36.763 0 00-4.153-17h81.856a36.763 36.763 0 00-4.153 17c0 20.402 16.598 37 37 37s37-16.598 37-37a36.763 36.763 0 00-4.153-17h53.166c5.523 0 10-4.478 10-10s-4.478-10-10.001-10zm-233.562 54c-9.374 0-17-7.626-17-17 0-9.374 7.626-17 17-17 9.374 0 17 7.626 17 17 0 9.374-7.626 17-17 17zm147.549 0c-9.374 0-17-7.626-17-17 0-9.374 7.626-17 17-17 9.374 0 17 7.626 17 17 0 9.374-7.626 17-17 17zM251.16 251.93a10.077 10.077 0 00-7.08-2.93c-2.63 0-5.21 1.07-7.07 2.93s-2.92 4.44-2.92 7.07 1.06 5.21 2.92 7.069a10.09 10.09 0 007.07 2.931c2.64 0 5.21-1.07 7.08-2.931 1.86-1.859 2.92-4.439 2.92-7.069s-1.06-5.21-2.92-7.07z"/><path d="M202.021 249h-72.606c-5.523 0-10 4.478-10 10s4.477 10 10 10h72.606c5.523 0 10-4.478 10-10s-4.477-10-10-10z"/></svg>