<svg version="1.1" id="Capa_1" xmlns="http://www.w3.org/2000/svg" x="0" y="0" viewBox="0 0 512 512" xml:space="preserve"><path d="M439.315 348.837l-.72-.729c-3.896-3.914-10.229-3.927-14.143-.031s-3.928 10.229-.031 14.143l.596.602a9.973 9.973 0 007.15 3.008 9.966 9.966 0 006.991-2.851c3.948-3.862 4.019-10.193.157-14.142z"/><path d="M502 492h-28v-58.116c0-19.004-4.525-37.985-13.088-54.893-2.495-4.928-8.515-6.898-13.438-4.403-4.928 2.495-6.898 8.512-4.403 13.438 7.15 14.12 10.93 29.978 10.93 45.857V492H58v-58.18c0-47.356 33.573-89.093 79.829-99.24l34.195-7.502a57.61 57.61 0 0018.034-7.335c18.32 15.864 41.465 24.521 65.941 24.521 24.388 0 47.454-8.595 65.742-24.349a57.594 57.594 0 0017.744 7.145l34.616 7.568a101.667 101.667 0 0124.515 8.762 9.999 9.999 0 0013.453-4.359c2.512-4.919.56-10.941-4.359-13.453a121.706 121.706 0 00-29.337-10.488l-34.615-7.568c-17.489-3.824-30.183-19.593-30.183-37.495v-3.857c22.453-12.786 38.735-35.201 43.193-61.586h4.69c15.737 0 28.541-12.804 28.541-28.542v-18.917c0-15.737-12.804-28.541-28.541-28.541H358V87.667C358 39.327 318.673 0 270.333 0h-28.666C193.327 0 154 39.327 154 87.667v40.916h-3.459c-15.737 0-28.541 12.804-28.541 28.541v18.917c0 15.738 12.804 28.542 28.541 28.542h4.69c4.423 26.178 20.485 48.45 42.665 61.285v4.186c0 17.89-12.683 33.656-30.156 37.489l-34.195 7.502c-26.983 5.919-51.379 21.033-68.693 42.558C47.536 379.128 38 406.195 38 433.82V492H10c-5.522 0-10 4.478-10 10s4.478 10 10 10h492c5.522 0 10-4.478 10-10s-4.478-10-10-10zM358 148.583h3.459c4.71 0 8.541 3.831 8.541 8.541v18.917c0 4.71-3.831 8.542-8.541 8.542H358v-36zm-204 36h-3.459c-4.71 0-8.541-3.832-8.541-8.542v-18.917c0-4.71 3.831-8.541 8.541-8.541H154v36zm102 139.683c-18.735 0-36.493-6.335-50.845-17.976 7.162-9.019 11.697-20.121 12.573-32.011a87.503 87.503 0 0023.939 3.321h28.666a87.471 87.471 0 0023.422-3.182c.916 11.948 5.52 23.095 12.772 32.12-14.297 11.479-31.928 17.728-50.527 17.728zM174 87.667C174 50.355 204.355 20 241.667 20h28.666c33.826 0 61.935 24.95 66.891 57.413a9.983 9.983 0 00-2.189 1.647c-31.935 31.936-74.395 49.522-119.557 49.522H174V87.667zm0 102.267v-41.351h41.478c24.956 0 49.301-4.843 72.357-14.393 18.353-7.602 35.166-17.899 50.165-30.68v86.424c0 37.312-30.355 67.666-67.667 67.666h-28.666c-37.312 0-67.667-30.355-67.667-67.666z"/><path d="M125.088 371.682c-3.427-4.328-9.715-5.062-14.048-1.635-19.617 15.525-30.868 38.77-30.868 63.773 0 5.522 4.478 10 10 10s10-4.478 10-10c0-18.854 8.485-36.382 23.28-48.09 4.33-3.428 5.063-9.717 1.636-14.048zm30.869-9.659c-1.19-5.393-6.525-8.797-11.921-7.609l-.463.103c-5.392 1.198-8.791 6.54-7.593 11.931 1.035 4.661 5.168 7.833 9.752 7.833.719 0 1.448-.078 2.179-.24l.438-.097c5.393-1.19 8.799-6.527 7.608-11.921z"/></svg>