<?xml version="1.0" encoding="utf-8"?>
<!-- Generator: Adobe Illustrator 24.3.0, SVG Export Plug-In . SVG Version: 6.00 Build 0)  -->
<svg version="1.1" id="Layer_1" xmlns="http://www.w3.org/2000/svg" xmlns:xlink="http://www.w3.org/1999/xlink" x="0px" y="0px"
	 width="953px" height="551.931px" viewBox="0 0 953 551.931" enable-background="new 0 0 953 551.931" xml:space="preserve">
<defs>
	<filter id="Adobe_OpacityMaskFilter" filterUnits="userSpaceOnUse" x="0" y="0" width="953" height="551.931">
		<feColorMatrix  type="matrix" values="1 0 0 0 0  0 1 0 0 0  0 0 1 0 0  0 0 0 1 0"/>
	</filter>
</defs>
<mask maskUnits="userSpaceOnUse" x="0" y="0" width="953" height="551.931" id="path-1-inside-1_105_50_1_">
	<path fill-rule="evenodd" clip-rule="evenodd" fill="#FFFFFF" filter="url(#Adobe_OpacityMaskFilter)" d="M380.942,4.298
		c-13.085,13.69-33.343,44.384-46.668,70.71c-8.618,17.028-12.051,26.264-15.119,40.676c-2.163,10.162-2.34,12.561-2.324,31.58
		c0.018,20.703,0.352,24.076,4.304,43.354c1.706,8.326,4.577,18.083,5.629,19.135c1.019,1.019,0.896,1.354,3.956-10.815
		c6.303-25.058,17.181-49.503,27.197-61.117l3.234-3.751l6.66,3.655c14.72,8.08,32.638,21.029,47.911,34.628
		c4.52,4.024,8.534,7.308,8.919,7.297s2.847-3.048,5.473-6.748c2.626-3.7,8.439-11.184,12.919-16.631
		c9.287-11.293,9.099-10.587,6.469-24.334c-7.967-41.64-28.464-85.6-56.151-120.425C384.349,0.19,384.682,0.383,380.942,4.298z
		 M561.388,9.101c-20.962,25.746-39.604,59.949-50.33,92.342c-4.538,13.703-8.256,29.537-8.823,37.573l-0.513,7.267l8.704,10.781
		c4.786,5.929,10.634,13.441,12.995,16.692c2.36,3.251,4.51,5.906,4.779,5.899c0.268-0.007,4.429-3.405,9.246-7.551
		c4.817-4.146,11.32-9.587,14.451-12.092c12.466-9.97,34.855-24.459,38.879-25.161c3.505-0.61,15.902,19.277,22.476,36.059
		c3.962,10.114,10.463,32.355,10.463,35.798c0,1.816,2.219,4.111,2.902,3.001c0.237-0.385,1.612-5.232,3.058-10.772
		c9.342-35.794,9.247-70.845-0.271-99.407c-6.121-18.367-26.328-54.645-43.118-77.409C580.144,13.795,569.433,1,568.605,1
		C568.263,1,565.016,4.645,561.388,9.101z M166.774,54.691c-1.993,3.073-0.963,41.471,1.58,58.853
		c5.915,40.453,13.739,68.536,26.193,94.021l3.354,6.863l7.744,0.554c30.838,2.203,70.78,15.516,104.701,34.901
		c2.747,1.569,5.216,2.634,5.485,2.364c0.27-0.27-0.834-3.408-2.453-6.974c-4.045-8.912-8.851-23.311-10.934-32.76
		c-3.812-17.292-4.031-19.73-4.086-45.605l-0.054-25.46l-2.746-3.442c-6.337-7.944-26.041-25.832-41.006-37.226
		c-18.997-14.465-48.212-31.694-67.439-39.771C176.11,56.388,167.424,53.689,166.774,54.691z M781.803,54.698
		c-1.445,0.524-8.145,3.272-14.889,6.107c-37.109,15.603-73.289,40.032-100.347,67.753c-13.691,14.026-13.187,13.088-12.18,22.661
		c3.231,30.721-2.416,66.018-15.036,93.979c-3.815,8.453-3.628,8.636,4.071,3.987c13.422-8.106,35.473-17.889,53.864-23.899
		c12.016-3.926,33.756-8.552,46.419-9.877l10.948-1.146l4-7.882c3.357-6.616,8.109-18.175,11.342-27.589
		c6.774-19.723,13.325-51.628,15.737-76.635c1.195-12.39,0.882-47.931-0.425-48.219C784.825,53.834,783.248,54.175,781.803,54.698z
		 M471.159,153.176c-5.848,7.508-14.929,21.082-21.145,31.61c-21.943,37.166-35.162,75.864-40.558,118.739
		c-1.974,15.684-1.987,47.359-0.025,60.713c6.036,41.077,20.868,78.748,44.231,112.337c9.943,14.295,26.238,32.462,29.023,32.357
		c0.735-0.027,3.392-2.491,5.905-5.474c27.805-33.004,46.333-71.35,54.885-113.588c3.856-19.047,4.404-25.399,4.417-51.236
		c0.012-26.553-0.62-33.624-4.844-54.175c-1.625-7.902-2.372-10.965-5.158-21.146c-7.069-25.825-24.127-62.236-41.443-88.459
		c-7.701-11.662-19.159-26.713-20.336-26.713C475.545,148.14,473.317,150.406,471.159,153.176z M362.63,163.248
		c-16.873,31.206-27.015,77.367-27.052,123.124c-0.018,22.733,2.376,38.185,9.793,63.209c5.745,19.383,20.099,47.686,35.535,70.066
		c10.08,14.614,30.449,38.558,39.79,46.773c1.591,1.4,4.878,4.356,7.304,6.569c8.496,7.751,10.877,9.718,11.769,9.718
		c1.506,0,1.062-1.245-3.161-8.87c-5.356-9.672-12.203-23.647-16.895-34.483c-6.307-14.563-6.735-15.588-8.602-20.582
		c-0.991-2.649-2.474-6.591-3.296-8.758c-5.747-15.166-12.037-39.609-14.393-55.931c-4.572-31.674-0.539-71.71,10.782-107.02
		c4.156-12.964,13.851-34.571,18.636-41.531c0.653-0.949,1.184-2.329,1.181-3.065c-0.004-0.736-6.151-6.067-13.661-11.847
		c-7.51-5.78-20.121-15.535-28.026-21.677c-7.903-6.141-14.905-11.167-15.556-11.167
		C366.123,157.774,364.258,160.237,362.63,163.248z M568.976,170.112c-8.671,6.765-20.1,15.604-25.399,19.643
		c-5.299,4.038-10.985,8.478-12.635,9.864l-3.001,2.522l3.124,5.186c21.37,35.475,32.251,84.204,29.612,132.619
		c-0.744,13.657-3.571,36.724-5.204,42.478c-0.411,1.445-1.24,4.992-1.844,7.882c-2.778,13.299-11.045,39.53-15.734,49.922
		c-0.87,1.927-2.653,6.065-3.964,9.196c-3.16,7.548-12.46,26.087-14.61,29.127c-0.939,1.327-1.568,3.1-1.398,3.941
		c0.237,1.164,2.074-0.138,7.727-5.479c39.921-37.712,70.126-84.83,82.533-128.747c6.177-21.863,8.512-40.364,8.512-67.439
		c0-32.709-3.901-57.549-13.696-87.216c-4.335-13.13-14.88-35.286-16.944-35.599C585.332,157.903,577.647,163.348,568.976,170.112z
		 M78.613,166.631c-2.391,7.805-2.996,42.786-1.013,58.582c2.674,21.303,8.673,43.169,17.541,63.936
		c4.611,10.799,16.396,33.263,21.797,41.549c17.706,27.163,56.643,55.102,106.961,76.747c9.714,4.179,35.715,13.078,38.212,13.078
		c1.739,0,0.371-2.196-7.109-11.421c-11.451-14.12-24.043-32.452-31.562-45.946c-21.187-38.022-34.977-85.756-35.004-121.17
		c-0.009-11.534-0.792-13.207-10.939-23.374c-19.443-19.481-51.741-39.306-79.096-48.55
		C86.217,165.945,79.197,164.728,78.613,166.631z M860.628,168.265c-33.223,10.326-62.675,27.866-84.713,50.453
		c-10.982,11.255-11.19,11.642-11.198,20.896c-0.036,38.786-11.984,80.67-34.617,121.352c-8.568,15.401-21.356,34.324-33.821,50.044
		c-6.107,7.702-7.207,9.969-4.467,9.201c42.261-11.844,85.884-34.166,116.704-59.719c21.897-18.154,37.21-40.739,50.87-75.026
		c14.484-36.355,20.291-78.566,15.55-113.022l-0.934-6.788l-2.746,0.08C869.746,165.78,864.963,166.917,860.628,168.265z
		 M206.822,238.569c0.002,5.5,1.869,24.992,3.524,36.8c5.257,37.478,17.344,69.808,37.359,99.924
		c11.012,16.569,19.954,27.352,35.699,43.047c35.445,35.335,80.225,64.212,131.517,84.815c16.327,6.558,37.073,13.151,39.716,12.622
		c1.123-0.225,1.055-0.521-0.395-1.72c-0.963-0.796-7.466-6.105-14.451-11.798c-22.455-18.301-48.003-44.539-64.98-66.737
		c-6.933-9.064-20.852-29.346-20.852-30.384c0-0.301-0.817-1.695-1.816-3.097c-2.989-4.198-13.417-25.097-17.412-34.897
		c-10.706-26.26-14.891-46.232-15.7-74.931l-0.543-19.268l-5.922-3.964c-21.497-14.389-59.023-28.182-92.759-34.094
		C205.771,232.427,206.82,232.129,206.822,238.569z M735.822,234.139c-33.211,5.611-76.686,21.504-96.299,35.207
		c-2.145,1.498-4.222,2.95-4.617,3.226c-0.395,0.276-0.866,7.37-1.046,15.765c-0.314,14.649-0.852,19.628-3.687,34.093
		c-8.337,42.549-31.086,88.014-63.761,127.433c-16.971,20.473-40.411,42.91-60.212,57.633c-7.728,5.746-10.198,8.492-7.639,8.492
		c0.53,0,5.07-1.196,10.09-2.658c56.355-16.417,119.023-53.215,159.913-93.903c43.651-43.435,66.935-89.899,74.675-149.015
		c1.715-13.102,3.323-35.363,2.635-36.477C745.265,232.954,742.508,233.009,735.822,234.139z M133.688,426.353
		c-35.649,0.747-83.934,7.461-112.426,15.633C1.131,447.758,1,447.808,1,449.547c0,0.897,0.511,1.63,1.135,1.63
		s4.073,1.831,7.664,4.07c3.591,2.239,8.696,5.335,11.346,6.881c52.376,30.559,92.355,49.338,137.943,64.796
		c15.538,5.269,46.79,13.482,59.994,15.766c1.686,0.292,6.218,1.08,10.072,1.751c43.149,7.515,89.266,8.06,144.512,1.71
		c17.262-1.985,30.877-3.919,58.681-8.337c9.152-1.455,18.918-2.877,21.701-3.162c2.784-0.285,5.298-0.9,5.587-1.367
		c0.686-1.11-1.363-2.375-3.872-2.393c-2.791-0.018-18.784-3.948-30.402-7.47c-37.512-11.37-77.206-32.373-108.857-57.598
		c-11.409-9.093-10.972-8.715-18.246-15.738c-3.634-3.509-6.667-5.544-10.01-6.719c-5.098-1.791-21.735-6.147-29.754-7.79
		c-2.649-0.543-6.788-1.389-9.196-1.88c-16.009-3.264-41.041-5.889-67.001-7.025C165.366,425.93,156.566,425.873,133.688,426.353z
		 M763.849,426.647c-32.372,1.962-67.269,7.393-90.648,14.109c-10.809,3.106-12.77,4.222-21.378,12.185
		c-36.846,34.083-87.643,61.426-138.342,74.467c-5.474,1.408-11.871,2.815-14.216,3.126s-4.71,1.103-5.254,1.759
		c-1.123,1.352-0.552,1.657,4.462,2.384c1.686,0.244,9.963,1.614,18.392,3.044c26.261,4.455,40.758,6.474,63.498,8.846
		c31.184,3.252,38.537,3.735,63.936,4.192c21.819,0.392,28.011,0.194,43.93-1.407c56.144-5.647,102.406-18.439,161.983-44.791
		c26.269-11.62,65.367-32.435,93.621-49.838c2.89-1.781,5.982-3.504,6.858-3.83c2.75-1.015,1.104-2.685-4.3-4.345
		c-22.15-6.81-61.536-14.586-87.513-17.279c-5.299-0.549-12.787-1.375-16.641-1.835
		C832.756,426.302,778.528,425.758,763.849,426.647z"/>
</mask>
<path mask="url(#path-1-inside-1_105_50_1_)" fill="none" stroke="#E9D2A8" stroke-width="2" d="M380.942,4.298
	c-13.085,13.69-33.343,44.384-46.668,70.71c-8.618,17.028-12.051,26.264-15.119,40.676c-2.163,10.162-2.34,12.561-2.324,31.58
	c0.018,20.703,0.352,24.076,4.304,43.354c1.706,8.326,4.577,18.083,5.629,19.135c1.019,1.019,0.896,1.354,3.956-10.815
	c6.303-25.058,17.181-49.503,27.197-61.117l3.234-3.751l6.66,3.655c14.72,8.08,32.638,21.029,47.911,34.628
	c4.52,4.024,8.534,7.308,8.919,7.297s2.847-3.048,5.473-6.748c2.626-3.7,8.439-11.184,12.919-16.631
	c9.287-11.293,9.099-10.587,6.469-24.334c-7.967-41.64-28.464-85.6-56.151-120.425C384.349,0.19,384.682,0.383,380.942,4.298z
	 M561.388,9.101c-20.962,25.746-39.604,59.949-50.33,92.342c-4.538,13.703-8.256,29.537-8.823,37.573l-0.513,7.267l8.704,10.781
	c4.786,5.929,10.634,13.441,12.995,16.692c2.36,3.251,4.51,5.906,4.779,5.899c0.268-0.007,4.429-3.405,9.246-7.551
	c4.817-4.146,11.32-9.587,14.451-12.092c12.466-9.97,34.855-24.459,38.879-25.161c3.505-0.61,15.902,19.277,22.476,36.059
	c3.962,10.114,10.463,32.355,10.463,35.798c0,1.816,2.219,4.111,2.902,3.001c0.237-0.385,1.612-5.232,3.058-10.772
	c9.342-35.794,9.247-70.845-0.271-99.407c-6.121-18.367-26.328-54.645-43.118-77.409C580.144,13.795,569.433,1,568.605,1
	C568.263,1,565.016,4.645,561.388,9.101z M166.774,54.691c-1.993,3.073-0.963,41.471,1.58,58.853
	c5.915,40.453,13.739,68.536,26.193,94.021l3.354,6.863l7.744,0.554c30.838,2.203,70.78,15.516,104.701,34.901
	c2.747,1.569,5.216,2.634,5.485,2.364c0.27-0.27-0.834-3.408-2.453-6.974c-4.045-8.912-8.851-23.311-10.934-32.76
	c-3.812-17.292-4.031-19.73-4.086-45.605l-0.054-25.46l-2.746-3.442c-6.337-7.944-26.041-25.832-41.006-37.226
	c-18.997-14.465-48.212-31.694-67.439-39.771C176.11,56.388,167.424,53.689,166.774,54.691z M781.803,54.698
	c-1.445,0.524-8.145,3.272-14.889,6.107c-37.109,15.603-73.289,40.032-100.347,67.753c-13.691,14.026-13.187,13.088-12.18,22.661
	c3.231,30.721-2.416,66.018-15.036,93.979c-3.815,8.453-3.628,8.636,4.071,3.987c13.422-8.106,35.473-17.889,53.864-23.899
	c12.016-3.926,33.756-8.552,46.419-9.877l10.948-1.146l4-7.882c3.357-6.616,8.109-18.175,11.342-27.589
	c6.774-19.723,13.325-51.628,15.737-76.635c1.195-12.39,0.882-47.931-0.425-48.219C784.825,53.834,783.248,54.175,781.803,54.698z
	 M471.159,153.176c-5.848,7.508-14.929,21.082-21.145,31.61c-21.943,37.166-35.162,75.864-40.558,118.739
	c-1.974,15.684-1.987,47.359-0.025,60.713c6.036,41.077,20.868,78.748,44.231,112.337c9.943,14.295,26.238,32.462,29.023,32.357
	c0.735-0.027,3.392-2.491,5.905-5.474c27.805-33.004,46.333-71.35,54.885-113.588c3.856-19.047,4.404-25.399,4.417-51.236
	c0.012-26.553-0.62-33.624-4.844-54.175c-1.625-7.902-2.372-10.965-5.158-21.146c-7.069-25.825-24.127-62.236-41.443-88.459
	c-7.701-11.662-19.159-26.713-20.336-26.713C475.545,148.14,473.317,150.406,471.159,153.176z M362.63,163.248
	c-16.873,31.206-27.015,77.367-27.052,123.124c-0.018,22.733,2.376,38.185,9.793,63.209c5.745,19.383,20.099,47.686,35.535,70.066
	c10.08,14.614,30.449,38.558,39.79,46.773c1.591,1.4,4.878,4.356,7.304,6.569c8.496,7.751,10.877,9.718,11.769,9.718
	c1.506,0,1.062-1.245-3.161-8.87c-5.356-9.672-12.203-23.647-16.895-34.483c-6.307-14.563-6.735-15.588-8.602-20.582
	c-0.991-2.649-2.474-6.591-3.296-8.758c-5.747-15.166-12.037-39.609-14.393-55.931c-4.572-31.674-0.539-71.71,10.782-107.02
	c4.156-12.964,13.851-34.571,18.636-41.531c0.653-0.949,1.184-2.329,1.181-3.065c-0.004-0.736-6.151-6.067-13.661-11.847
	c-7.51-5.78-20.121-15.535-28.026-21.677c-7.903-6.141-14.905-11.167-15.556-11.167C366.123,157.774,364.258,160.237,362.63,163.248
	z M568.976,170.112c-8.671,6.765-20.1,15.604-25.399,19.643c-5.299,4.038-10.985,8.478-12.635,9.864l-3.001,2.522l3.124,5.186
	c21.37,35.475,32.251,84.204,29.612,132.619c-0.744,13.657-3.571,36.724-5.204,42.478c-0.411,1.445-1.24,4.992-1.844,7.882
	c-2.778,13.299-11.045,39.53-15.734,49.922c-0.87,1.927-2.653,6.065-3.964,9.196c-3.16,7.548-12.46,26.087-14.61,29.127
	c-0.939,1.327-1.568,3.1-1.398,3.941c0.237,1.164,2.074-0.138,7.727-5.479c39.921-37.712,70.126-84.83,82.533-128.747
	c6.177-21.863,8.512-40.364,8.512-67.439c0-32.709-3.901-57.549-13.696-87.216c-4.335-13.13-14.88-35.286-16.944-35.599
	C585.332,157.903,577.647,163.348,568.976,170.112z M78.613,166.631c-2.391,7.805-2.996,42.786-1.013,58.582
	c2.674,21.303,8.673,43.169,17.541,63.936c4.611,10.799,16.396,33.263,21.797,41.549c17.706,27.163,56.643,55.102,106.961,76.747
	c9.714,4.179,35.715,13.078,38.212,13.078c1.739,0,0.371-2.196-7.109-11.421c-11.451-14.12-24.043-32.452-31.562-45.946
	c-21.187-38.022-34.977-85.756-35.004-121.17c-0.009-11.534-0.792-13.207-10.939-23.374c-19.443-19.481-51.741-39.306-79.096-48.55
	C86.217,165.945,79.197,164.728,78.613,166.631z M860.628,168.265c-33.223,10.326-62.675,27.866-84.713,50.453
	c-10.982,11.255-11.19,11.642-11.198,20.896c-0.036,38.786-11.984,80.67-34.617,121.352c-8.568,15.401-21.356,34.324-33.821,50.044
	c-6.107,7.702-7.207,9.969-4.467,9.201c42.261-11.844,85.884-34.166,116.704-59.719c21.897-18.154,37.21-40.739,50.87-75.026
	c14.484-36.355,20.291-78.566,15.55-113.022l-0.934-6.788l-2.746,0.08C869.746,165.78,864.963,166.917,860.628,168.265z
	 M206.822,238.569c0.002,5.5,1.869,24.992,3.524,36.8c5.257,37.478,17.344,69.808,37.359,99.924
	c11.012,16.569,19.954,27.352,35.699,43.047c35.445,35.335,80.225,64.212,131.517,84.815c16.327,6.558,37.073,13.151,39.716,12.622
	c1.123-0.225,1.055-0.521-0.395-1.72c-0.963-0.796-7.466-6.105-14.451-11.798c-22.455-18.301-48.003-44.539-64.98-66.737
	c-6.933-9.064-20.852-29.346-20.852-30.384c0-0.301-0.817-1.695-1.816-3.097c-2.989-4.198-13.417-25.097-17.412-34.897
	c-10.706-26.26-14.891-46.232-15.7-74.931l-0.543-19.268l-5.922-3.964c-21.497-14.389-59.023-28.182-92.759-34.094
	C205.771,232.427,206.82,232.129,206.822,238.569z M735.822,234.139c-33.211,5.611-76.686,21.504-96.299,35.207
	c-2.145,1.498-4.222,2.95-4.617,3.226c-0.395,0.276-0.866,7.37-1.046,15.765c-0.314,14.649-0.852,19.628-3.687,34.093
	c-8.337,42.549-31.086,88.014-63.761,127.433c-16.971,20.473-40.411,42.91-60.212,57.633c-7.728,5.746-10.198,8.492-7.639,8.492
	c0.53,0,5.07-1.196,10.09-2.658c56.355-16.417,119.023-53.215,159.913-93.903c43.651-43.435,66.935-89.899,74.675-149.015
	c1.715-13.102,3.323-35.363,2.635-36.477C745.265,232.954,742.508,233.009,735.822,234.139z M133.688,426.353
	c-35.649,0.747-83.934,7.461-112.426,15.633C1.131,447.758,1,447.808,1,449.547c0,0.897,0.511,1.63,1.135,1.63
	s4.073,1.831,7.664,4.07c3.591,2.239,8.696,5.335,11.346,6.881c52.376,30.559,92.355,49.338,137.943,64.796
	c15.538,5.269,46.79,13.482,59.994,15.766c1.686,0.292,6.218,1.08,10.072,1.751c43.149,7.515,89.266,8.06,144.512,1.71
	c17.262-1.985,30.877-3.919,58.681-8.337c9.152-1.455,18.918-2.877,21.701-3.162c2.784-0.285,5.298-0.9,5.587-1.367
	c0.686-1.11-1.363-2.375-3.872-2.393c-2.791-0.018-18.784-3.948-30.402-7.47c-37.512-11.37-77.206-32.373-108.857-57.598
	c-11.409-9.093-10.972-8.715-18.246-15.738c-3.634-3.509-6.667-5.544-10.01-6.719c-5.098-1.791-21.735-6.147-29.754-7.79
	c-2.649-0.543-6.788-1.389-9.196-1.88c-16.009-3.264-41.041-5.889-67.001-7.025C165.366,425.93,156.566,425.873,133.688,426.353z
	 M763.849,426.647c-32.372,1.962-67.269,7.393-90.648,14.109c-10.809,3.106-12.77,4.222-21.378,12.185
	c-36.846,34.083-87.643,61.426-138.342,74.467c-5.474,1.408-11.871,2.815-14.216,3.126s-4.71,1.103-5.254,1.759
	c-1.123,1.352-0.552,1.657,4.462,2.384c1.686,0.244,9.963,1.614,18.392,3.044c26.261,4.455,40.758,6.474,63.498,8.846
	c31.184,3.252,38.537,3.735,63.936,4.192c21.819,0.392,28.011,0.194,43.93-1.407c56.144-5.647,102.406-18.439,161.983-44.791
	c26.269-11.62,65.367-32.435,93.621-49.838c2.89-1.781,5.982-3.504,6.858-3.83c2.75-1.015,1.104-2.685-4.3-4.345
	c-22.15-6.81-61.536-14.586-87.513-17.279c-5.299-0.549-12.787-1.375-16.641-1.835C832.756,426.302,778.528,425.758,763.849,426.647
	z"/>
</svg>
