<svg width="32" height="32" viewBox="0 0 32 32" fill="none" xmlns="http://www.w3.org/2000/svg">
<g id="CreditCard">
<path id="Vector" opacity="0.2" d="M3 12.1065H29L29.0007 24C29.0007 24.2652 28.8954 24.5195 28.7078 24.7071C28.5203 24.8946 28.2659 25 28.0007 25H4.00073C3.73552 25 3.48116 24.8946 3.29363 24.7071C3.10609 24.5195 3.00073 24.2652 3.00073 24L3 12.1065Z" fill="#A55E3F"/>
<path id="Vector_2" d="M28 7H4C3.44772 7 3 7.44772 3 8V24C3 24.5523 3.44772 25 4 25H28C28.5523 25 29 24.5523 29 24V8C29 7.44772 28.5523 7 28 7Z" stroke="#A55E3F" stroke-width="2" stroke-linecap="round" stroke-linejoin="round"/>
<path id="Vector_3" d="M21 21H25" stroke="#A55E3F" stroke-width="2" stroke-linecap="round" stroke-linejoin="round"/>
<path id="Vector_4" d="M15 21H17" stroke="#A55E3F" stroke-width="2" stroke-linecap="round" stroke-linejoin="round"/>
<path id="Vector_5" d="M3 12.1065H29" stroke="#A55E3F" stroke-width="2" stroke-linecap="round" stroke-linejoin="round"/>
</g>
</svg>
