<svg width="67" height="67" viewBox="0 0 67 67" fill="none" xmlns="http://www.w3.org/2000/svg">
<g id="delivery 1">
<rect id="Rectangle 189" x="42" y="17" width="12" height="31" rx="5" fill="#A55E3F" fill-opacity="0.2"/>
<rect id="Rectangle 190" x="17" y="12" width="9" height="19" rx="3" fill="#A55E3F" fill-opacity="0.2"/>
<path id="Vector" d="M29.9378 58.2638C28.9548 58.2638 27.7132 57.9309 25.2269 56.5616C23.8152 55.7823 22.4517 54.9184 21.1441 53.9748L15.3706 55.7063C15.2132 55.7534 15.0469 55.7627 14.8853 55.7336C14.7236 55.7045 14.571 55.6378 14.4399 55.5388C11.3277 53.1958 8.89964 50.0622 7.40805 46.4635C7.34432 46.3099 7.3181 46.1433 7.33156 45.9775C7.34503 45.8117 7.39779 45.6516 7.48548 45.5103C7.57317 45.369 7.69327 45.2506 7.83582 45.1649C7.97838 45.0793 8.13928 45.0288 8.30522 45.0177C11.3363 44.8284 14.3058 44.0773 17.0623 42.8025C18.0195 42.3563 18.9463 41.8474 19.8365 41.2793C21.069 40.4149 22.3725 39.6563 23.733 39.0118C24.5721 38.646 25.4312 38.3279 26.3062 38.0592C26.3848 38.0382 26.5167 38.0026 26.6873 37.9524L26.8621 37.8979C27.0307 37.8456 27.1867 37.7964 27.5583 37.699C27.9111 37.6079 28.3853 37.4928 28.9716 37.3724C30.2994 37.0541 31.6684 36.9425 33.0303 37.0416C33.6388 37.0863 34.2409 37.1947 34.8268 37.3651C35.6035 37.5975 36.2997 37.8812 36.9728 38.1544C37.696 38.4642 38.4359 38.7333 39.1891 38.9605C39.8384 39.1464 40.5048 39.2667 41.1781 39.3196C41.845 39.3834 42.6752 39.463 43.0353 40.3445C43.1429 40.6425 43.1812 40.9612 43.1473 41.2763C43.1134 41.5914 43.0081 41.8946 42.8395 42.1629C42.3805 43.0563 41.633 43.7684 40.7184 44.1836C39.8038 44.5988 38.7757 44.6928 37.8009 44.4503C37.512 44.4064 37.2492 44.3561 37.0074 44.2996C37.3672 44.558 37.7443 44.7917 38.1359 44.9989C39.6186 45.7802 41.276 46.1704 42.9515 46.1327L46.1131 46.1316C46.3721 46.1318 46.6219 46.228 46.8141 46.4017C47.0063 46.5753 47.1273 46.814 47.1537 47.0717C47.2578 47.9176 47.1103 48.7755 46.7297 49.5381C45.7352 51.4665 43.2436 52.4464 40.4359 52.0485C38.2937 53.7178 36.0939 55.3117 33.8406 56.8275C32.7801 57.6429 31.509 58.139 30.1765 58.2576C30.097 58.2616 30.0174 58.2637 29.9378 58.2638ZM21.342 51.7753C21.5663 51.7755 21.7847 51.8478 21.9648 51.9815C23.3257 52.9912 24.7526 53.9086 26.2361 54.7275C28.958 56.2256 29.7065 56.1847 30.0656 56.1669C31.0197 56.0643 31.9244 55.6901 32.6723 55.0887C35.0111 53.5154 37.2914 51.8567 39.5084 50.116C39.6264 50.0232 39.7631 49.957 39.9091 49.9219C40.0551 49.8869 40.207 49.8838 40.3543 49.9129C42.3684 50.3044 44.2675 49.7433 44.8684 48.5792C44.9265 48.4663 44.9728 48.3477 45.0066 48.2254H42.9767C41.0216 48.2689 39.0861 47.8292 37.3417 46.9453C35.5973 46.0614 34.0981 44.7607 32.9769 43.1585C32.529 43.1282 32.0796 43.1285 31.6317 43.1595C31.4433 43.1731 31.2862 43.1888 31.1815 43.2014C30.9057 43.2333 30.6285 43.1544 30.4108 42.9819C30.1932 42.8094 30.053 42.5576 30.0211 42.2817C29.9891 42.0059 30.0681 41.7286 30.2406 41.511C30.413 41.2934 30.6649 41.1532 30.9408 41.1213C31.0664 41.1066 31.2548 41.0878 31.4872 41.071C32.2179 41.0214 32.9516 41.0379 33.6794 41.1202L33.6993 41.1223C34.4714 41.2207 35.2251 41.4312 35.9364 41.7473C36.6335 42.0522 37.3672 42.2651 38.1192 42.3807C38.493 42.4761 38.8812 42.502 39.2645 42.4571C39.902 42.2935 40.4649 41.9181 40.8609 41.3924C40.0997 41.3251 39.3467 41.1849 38.6122 40.9737C37.7869 40.726 36.9761 40.4324 36.1835 40.0943C35.5271 39.8263 34.9074 39.575 34.2258 39.3709C33.7793 39.2418 33.3203 39.1604 32.8565 39.128C31.6928 39.0486 30.5237 39.1486 29.3903 39.4243C28.848 39.5352 28.4094 39.642 28.0838 39.7258C27.7645 39.8095 27.6316 39.8514 27.4871 39.8954L27.2872 39.9582C27.0883 40.0168 26.9344 40.0587 26.8715 40.0744C26.0977 40.3157 25.3373 40.5981 24.5935 40.9203C23.3425 41.5179 22.1433 42.2182 21.008 43.014C20.026 43.6435 19.003 44.2066 17.9459 44.6995C15.4138 45.8742 12.7114 46.6399 9.93939 46.9681C11.2229 49.5224 13.0469 51.7668 15.2847 53.5456L21.0415 51.8203C21.139 51.7911 21.2402 51.7763 21.342 51.7764V51.7753Z" fill="#A55E3F"/>
<path id="Vector_2" d="M53.3906 48.1562H41.4458C41.1681 48.1562 40.9019 48.046 40.7055 47.8496C40.5092 47.6533 40.3989 47.387 40.3989 47.1094C40.3989 46.8317 40.5092 46.5654 40.7055 46.3691C40.9019 46.1728 41.1681 46.0625 41.4458 46.0625H52.3438V13.6094H17.7969V44.0944C17.7969 44.372 17.6866 44.6383 17.4903 44.8346C17.2939 45.031 17.0276 45.1413 16.75 45.1413C16.4724 45.1413 16.2061 45.031 16.0097 44.8346C15.8134 44.6383 15.7031 44.372 15.7031 44.0944V12.5625C15.7031 12.2849 15.8134 12.0186 16.0097 11.8222C16.2061 11.6259 16.4724 11.5156 16.75 11.5156H53.3906C53.6683 11.5156 53.9346 11.6259 54.1309 11.8222C54.3272 12.0186 54.4375 12.2849 54.4375 12.5625V47.1094C54.4375 47.387 54.3272 47.6533 54.1309 47.8496C53.9346 48.046 53.6683 48.1562 53.3906 48.1562Z" fill="#A55E3F"/>
<path id="Vector_3" d="M39.2578 21.9844H30.8828C30.6052 21.9844 30.3389 21.8741 30.1426 21.6778C29.9462 21.4814 29.8359 21.2151 29.8359 20.9375V12.5625C29.8359 12.2849 29.9462 12.0186 30.1426 11.8222C30.3389 11.6259 30.6052 11.5156 30.8828 11.5156H39.2578C39.5355 11.5156 39.8017 11.6259 39.9981 11.8222C40.1944 12.0186 40.3047 12.2849 40.3047 12.5625V20.9375C40.3047 21.2151 40.1944 21.4814 39.9981 21.6778C39.8017 21.8741 39.5355 21.9844 39.2578 21.9844ZM31.9297 19.8906H38.2109V13.6094H31.9297V19.8906Z" fill="#A55E3F"/>
</g>
</svg>
