<svg width="18" height="18" viewBox="0 0 18 18" fill="none" xmlns="http://www.w3.org/2000/svg">
<path fill-rule="evenodd" clip-rule="evenodd" d="M0.778147 0.778178C1.00733 0.548999 1.31188 0.413973 1.62483 0.402808C1.93777 0.391641 2.23346 0.505247 2.44685 0.718634L14.4504 12.7221L14.8234 2.22109C14.8289 2.06594 14.865 1.91122 14.9295 1.76577C14.9939 1.62031 15.0856 1.48696 15.1992 1.37334C15.3129 1.25972 15.4462 1.16805 15.5917 1.10356C15.7371 1.03907 15.8918 1.00303 16.047 0.997497C16.2021 0.991961 16.3547 1.01704 16.4959 1.0713C16.6371 1.12555 16.7643 1.20793 16.87 1.31372C16.9758 1.41952 17.0582 1.54665 17.1125 1.68787C17.1667 1.82909 17.1918 1.98163 17.1863 2.13678L16.7099 15.4864C16.7046 15.6415 16.6687 15.7964 16.6042 15.9419C16.5398 16.0874 16.4482 16.2209 16.3345 16.3345C16.2208 16.4482 16.0874 16.5399 15.9419 16.6043C15.7963 16.6687 15.6415 16.7046 15.4863 16.7099L2.13675 17.1863C1.9816 17.1918 1.82906 17.1668 1.68784 17.1125C1.54662 17.0582 1.41949 16.9759 1.3137 16.8701C1.2079 16.7643 1.12552 16.6371 1.07127 16.4959C1.01701 16.3547 0.991933 16.2022 0.997469 16.047C1.003 15.8919 1.03904 15.7371 1.10353 15.5917C1.16802 15.4462 1.25969 15.3129 1.37331 15.1993C1.48693 15.0856 1.62028 14.994 1.76574 14.9295C1.91119 14.865 2.06591 14.829 2.22106 14.8234L12.7221 14.4504L0.718604 2.44688C0.505217 2.23349 0.391608 1.9378 0.402776 1.62486C0.413941 1.31192 0.548968 1.00736 0.778147 0.778178Z" fill="white"/>
</svg>
