<svg width="18" height="18" viewBox="0 0 18 18" fill="none" xmlns="http://www.w3.org/2000/svg">
<path fill-rule="evenodd" clip-rule="evenodd" d="M1.29341 0.778224C1.52258 0.549045 1.82714 0.414019 2.14008 0.402853C2.45303 0.391687 2.74872 0.505293 2.9621 0.71868L14.9656 12.7222L15.3387 2.22114C15.3442 2.06599 15.3802 1.91127 15.4447 1.76581C15.5092 1.62035 15.6009 1.48701 15.7145 1.37339C15.8281 1.25977 15.9615 1.16809 16.1069 1.10361C16.2524 1.03912 16.4071 1.00308 16.5622 0.997543C16.7174 0.992007 16.8699 1.01708 17.0112 1.07134C17.1524 1.1256 17.2795 1.20798 17.3853 1.31377C17.4911 1.41956 17.5735 1.5467 17.6277 1.68792C17.682 1.82914 17.7071 1.98168 17.7015 2.13682L17.2252 15.4864C17.2198 15.6416 17.1839 15.7964 17.1195 15.9419C17.0551 16.0875 16.9634 16.2209 16.8498 16.3346C16.7361 16.4482 16.6027 16.5399 16.4571 16.6043C16.3116 16.6687 16.1568 16.7047 16.0016 16.71L2.65201 17.1863C2.49686 17.1919 2.34432 17.1668 2.2031 17.1125C2.06188 17.0583 1.93475 16.9759 1.82895 16.8701C1.72316 16.7643 1.64078 16.6372 1.58652 16.496C1.53227 16.3548 1.50719 16.2022 1.51273 16.0471C1.51826 15.8919 1.5543 15.7372 1.61879 15.5917C1.68328 15.4463 1.77495 15.3129 1.88857 15.1993C2.00219 15.0857 2.13554 14.994 2.281 14.9295C2.42645 14.865 2.58117 14.829 2.73632 14.8235L13.2374 14.4504L1.23386 2.44692C1.02048 2.23353 0.906867 1.93784 0.918034 1.6249C0.9292 1.31196 1.06423 1.0074 1.29341 0.778224Z" fill="white"/>
</svg>
