<svg width="61" height="61" viewBox="0 0 61 61" fill="none" xmlns="http://www.w3.org/2000/svg">
<path fill-rule="evenodd" clip-rule="evenodd" d="M58.8998 2.2092C59.6837 2.99322 60.1248 4.05583 60.1261 5.16327C60.1275 6.27071 59.6889 7.33228 58.9069 8.11442L14.9191 52.1116L52.0728 52.1503C52.6217 52.151 53.1654 52.2597 53.6728 52.4705C54.1802 52.6812 54.6413 52.9897 55.0299 53.3784C55.4186 53.7671 55.727 54.2284 55.9377 54.7359C56.1484 55.2434 56.2571 55.7872 56.2578 56.3362C56.2584 56.8852 56.151 57.4288 55.9415 57.9358C55.7321 58.4428 55.4247 58.9033 55.037 59.2911C54.6494 59.6788 54.1889 59.9862 53.682 60.1957C53.1751 60.4052 52.6317 60.5127 52.0828 60.5121L4.85108 60.4553C4.30196 60.4554 3.75796 60.347 3.25025 60.1366C2.74255 59.9261 2.2811 59.6176 1.89235 59.2288C1.50359 58.8399 1.19517 58.3784 0.984741 57.8706C0.774312 57.3628 0.666011 56.8186 0.666046 56.2694L0.609291 9.02769C0.608632 8.47865 0.716099 7.93512 0.925555 7.42812C1.13501 6.92112 1.44235 6.46059 1.83003 6.07283C2.21771 5.68506 2.67815 5.37765 3.18504 5.16815C3.69193 4.95865 4.23535 4.85116 4.78428 4.85182C5.3332 4.85248 5.87688 4.96128 6.38428 5.172C6.89167 5.38272 7.35284 5.69123 7.74146 6.07992C8.13008 6.46862 8.43853 6.9299 8.6492 7.4374C8.85988 7.9449 8.96865 8.48869 8.96931 9.03774L9.00805 46.1992L52.9959 2.20211C53.7778 1.41997 54.8392 0.981306 55.9464 0.982636C57.0536 0.983967 58.116 1.42518 58.8998 2.2092Z" fill="white"/>
</svg>
