<svg width="25" height="23" viewBox="0 0 25 23" fill="none" xmlns="http://www.w3.org/2000/svg">
<path d="M18.2444 18.2141H18.2566M18.7313 14.432H19.4616C20.596 14.432 21.1632 14.432 21.6106 14.624C22.2071 14.8799 22.681 15.3707 22.9281 15.9885C23.1134 16.4519 23.1134 17.0393 23.1134 18.2141C23.1134 19.3889 23.1134 19.9763 22.9281 20.4396C22.681 21.0575 22.2071 21.5483 21.6106 21.8042C21.1632 21.9961 20.596 21.9961 19.4616 21.9961H4.85444C3.72009 21.9961 3.15291 21.9961 2.70552 21.8042C2.10899 21.5483 1.63505 21.0575 1.38795 20.4396C1.20264 19.9763 1.20264 19.3889 1.20264 18.2141C1.20264 17.0393 1.20264 16.4519 1.38795 15.9885C1.63505 15.3707 2.10899 14.8799 2.70552 14.624C3.15291 14.432 3.72009 14.432 4.85444 14.432H5.5848M12.158 15.6927V1.8252M12.158 15.6927L8.50624 11.9107M12.158 15.6927L15.8098 11.9107" stroke="#ABADBF" stroke-width="2" stroke-linecap="round" stroke-linejoin="round"/>
</svg>
