<svg width="276" height="35" viewBox="0 0 276 35" fill="none" xmlns="http://www.w3.org/2000/svg">
<path fill-rule="evenodd" clip-rule="evenodd" d="M7.3067 15.3669C7.73565 16.1642 8.39189 16.9752 8.39189 16.9752C13.4114 13.6356 16.0114 13.5168 16.7876 13.3624C15.5797 15.1134 12.6103 19.7407 12.5015 19.9248C10.4635 20.3756 9.19019 19.9124 6.18548 21.0741C6.1834 22.091 6.17647 22.158 6.17682 23.2817C8.74115 22.0178 9.28825 21.9708 11.0965 22.0478C10.0734 23.6904 9.85128 24.0358 9.44555 24.6693C8.99235 25.3726 9.00309 25.3847 8.6722 25.795C7.0309 25.9747 5.2278 24.6952 3.73064 24.3601C2.30555 24.0413 1.46602 24.7342 1.18987 25.0634C-0.25982 26.4724 -1.10905 34.9851 3.05915 34.9917C6.88157 34.8045 8.42377 30.1958 10.9805 27.8566C11.407 27.5999 14.4945 27.7661 16.8814 27.7412C16.5426 30.3578 15.7197 32.3323 15.1951 34.9945L18.7715 35C19.293 32.3212 19.7271 28.0655 20.7233 27.1819C21.7194 26.2983 25.6496 25.4852 27.7908 23.928C33.8432 19.5262 33.643 11.9859 25.3959 11.3133C26.2188 8.39171 27.4471 5.83278 27.9475 2.97299C28.0105 2.61133 27.8546 1.96089 27.7209 1.53497C27.4631 0.714584 25.8443 -0.0629735 25.5262 0.00403942C24.7414 1.17504 24.1257 2.06521 23.4785 3.03275C21.7561 5.59755 19.5151 9.16167 17.8963 11.3911C15.5333 11.8246 14.1113 12.2384 12.6103 12.7745C10.4559 13.5445 7.91651 14.9528 7.3067 15.3669ZM24.6229 13.3158C25.6936 13.4225 26.8921 13.5258 27.7985 14.0073C32.5983 16.5562 27.919 22.205 24.8832 23.3028L21.2568 24.614C21.1096 24.2365 21.4055 22.186 22.2966 21.9035C24.8055 21.4565 25.7885 21.5687 27.3965 20.3166C27.3855 19.777 27.3747 19.2371 27.364 18.6975C25.2851 19.9362 24.6857 19.9877 22.5094 19.9065C23.2134 17.7797 23.9192 15.4422 24.6229 13.3158ZM14.315 22.0527C15.8112 22.0402 17.4725 22.033 18.81 22.0423C18.7729 22.2137 18.09 24.2019 17.5543 25.7944C16.0454 25.7785 13.8424 25.8006 12.0466 25.7843C12.8518 24.4835 13.8137 22.9183 14.315 22.0527ZM15.7173 19.8931C17.0769 17.4474 18.5622 15.1141 19.8241 13.1987C19.9111 13.0664 21.3379 13.0906 22.0964 13.1268C21.4259 14.9583 20.3213 17.8374 19.5414 19.8965C18.3121 19.8737 17.0131 19.9193 15.7173 19.8931ZM25.5962 3.88146C24.7563 6.33089 23.5932 9.1368 22.8237 11.2719C22.5375 11.2764 21.4762 11.2778 21.0223 11.2795C21.9741 9.27428 24.2875 5.677 25.5962 3.88146ZM3.89938 30.9803C2.68564 27.4313 4.05252 26.5318 7.14316 27.2258C6.75614 28.8542 5.60339 30.5858 3.89938 30.9803Z" fill="#6150E9"/>
<path fill-rule="evenodd" clip-rule="evenodd" d="M22.4055 27H34L33.5893 28.7609L29.1515 28.7741L27.825 34.9914L25.5552 35L26.968 28.768L22 28.7741L22.4055 27Z" fill="#6150E9"/>
<path fill-rule="evenodd" clip-rule="evenodd" d="M30.3799 30H42L41.6298 31.6793L36.7437 31.683L36.0047 35H33.9932L34.7547 31.68L30 31.6834L30.3799 30Z" fill="#6150E9"/>
<path d="M59 23L64.104 11.72H65.832L71 23H68.904L67.528 19.832L68.36 20.392H61.592L62.456 19.832L61.08 23H59ZM64.952 13.928L62.696 19.272L62.28 18.776H67.656L67.32 19.272L65.016 13.928H64.952ZM72.232 23.272L71.224 21.752C71.672 21.5067 72.0667 21.2187 72.408 20.888C72.7493 20.5573 73.032 20.1467 73.256 19.656C73.48 19.1547 73.6453 18.5413 73.752 17.816C73.8693 17.08 73.928 16.1947 73.928 15.16V11.72H82.12V23H80.072V13.4H75.832V15.672C75.832 16.7493 75.752 17.6987 75.592 18.52C75.432 19.3413 75.1973 20.0613 74.888 20.68C74.5787 21.288 74.2 21.8053 73.752 22.232C73.3147 22.648 72.808 22.9947 72.232 23.272ZM84.6074 23V11.72H86.6554V16.44H89.8554C91.0927 16.44 92.058 16.7173 92.7514 17.272C93.4447 17.816 93.7914 18.6267 93.7914 19.704C93.7914 20.7707 93.4447 21.5867 92.7514 22.152C92.058 22.7173 91.0927 23 89.8554 23H84.6074ZM86.6554 21.416H89.6154C90.3727 21.416 90.9274 21.2773 91.2794 21C91.6314 20.712 91.8074 20.28 91.8074 19.704C91.8074 19.1387 91.6314 18.7173 91.2794 18.44C90.9274 18.1627 90.3727 18.024 89.6154 18.024H86.6554V21.416ZM100.615 23.4V21.736L101.127 22.12H100.679C99.5586 22.12 98.5933 21.928 97.7826 21.544C96.972 21.16 96.348 20.6107 95.9106 19.896C95.484 19.1707 95.2706 18.296 95.2706 17.272C95.2706 15.7147 95.74 14.52 96.6786 13.688C97.628 12.8453 98.9613 12.424 100.679 12.424H101.127L100.615 12.808V11.24H102.663V12.808L102.151 12.424H102.599C104.316 12.424 105.649 12.8453 106.599 13.688C107.548 14.52 108.023 15.7147 108.023 17.272C108.023 18.296 107.804 19.1707 107.367 19.896C106.929 20.6107 106.305 21.16 105.495 21.544C104.695 21.928 103.729 22.12 102.599 22.12H102.151L102.663 21.736V23.4H100.615ZM100.631 20.92V13.624L101.063 13.976H100.471C99.532 13.976 98.7746 14.2533 98.1986 14.808C97.6333 15.352 97.3506 16.1733 97.3506 17.272C97.3506 17.9867 97.484 18.5893 97.7506 19.08C98.0173 19.5707 98.3853 19.944 98.8546 20.2C99.324 20.4453 99.8626 20.568 100.471 20.568H101.063L100.631 20.92ZM102.663 20.92L102.215 20.568H102.823C103.431 20.568 103.969 20.4453 104.439 20.2C104.908 19.944 105.271 19.5707 105.527 19.08C105.793 18.5893 105.927 17.9867 105.927 17.272C105.927 16.1733 105.644 15.352 105.079 14.808C104.513 14.2533 103.761 13.976 102.823 13.976H102.215L102.663 13.624V20.92ZM108.906 23L114.01 11.72H115.738L120.906 23H118.81L117.434 19.832L118.266 20.392H111.498L112.362 19.832L110.986 23H108.906ZM114.858 13.928L112.602 19.272L112.186 18.776H117.562L117.226 19.272L114.922 13.928H114.858ZM121.744 19.384V17.8H126.608V19.384H121.744ZM132.264 23.16C131.485 23.16 130.754 23.0373 130.072 22.792C129.4 22.5467 128.834 22.2107 128.376 21.784L129.048 20.152C129.549 20.568 130.05 20.872 130.552 21.064C131.053 21.256 131.608 21.352 132.216 21.352C133.336 21.352 134.205 21.032 134.824 20.392C135.453 19.7413 135.789 18.8027 135.832 17.576L136.392 18.072H130.456V16.456H136.36L135.816 17C135.762 15.848 135.432 14.9573 134.824 14.328C134.216 13.688 133.368 13.368 132.28 13.368C131.672 13.368 131.112 13.4587 130.6 13.64C130.098 13.8213 129.581 14.1253 129.048 14.552L128.376 12.936C128.866 12.4987 129.453 12.1627 130.136 11.928C130.818 11.6827 131.554 11.56 132.344 11.56C133.517 11.56 134.52 11.8 135.352 12.28C136.194 12.7493 136.84 13.416 137.288 14.28C137.736 15.144 137.96 16.168 137.96 17.352C137.96 18.536 137.736 19.5653 137.288 20.44C136.84 21.304 136.189 21.976 135.336 22.456C134.493 22.9253 133.469 23.16 132.264 23.16ZM140.045 23.272L139.037 21.752C139.485 21.5067 139.879 21.2187 140.221 20.888C140.562 20.5573 140.845 20.1467 141.069 19.656C141.293 19.1547 141.458 18.5413 141.565 17.816C141.682 17.08 141.741 16.1947 141.741 15.16V11.72H149.933V23H147.885V13.4H143.645V15.672C143.645 16.7493 143.565 17.6987 143.405 18.52C143.245 19.3413 143.01 20.0613 142.701 20.68C142.391 21.288 142.013 21.8053 141.565 22.232C141.127 22.648 140.621 22.9947 140.045 23.272ZM152.42 23V11.72H160.02V13.336H154.404V16.456H159.652V18.088H154.404V21.368H160.02V23H152.42ZM161.936 23V11.72H163.968V16.52H165.888L165.472 16.792L168.8 11.72H171.072L167.36 17.176L166.576 16.6C167.301 16.7067 167.904 16.9573 168.384 17.352C168.874 17.736 169.301 18.28 169.664 18.984L171.664 23H169.44L167.888 19.752C167.621 19.1867 167.301 18.7867 166.928 18.552C166.565 18.3173 166.101 18.2 165.536 18.2H163.968V23H161.936ZM175.638 23V13.416H171.91V11.72H181.43V13.416H177.702V23H175.638ZM182.889 23V11.72H187.897C189.134 11.72 190.078 12.0187 190.729 12.616C191.379 13.2133 191.705 14.0347 191.705 15.08C191.705 16.1147 191.379 16.936 190.729 17.544C190.078 18.152 189.134 18.456 187.897 18.456H184.953V23H182.889ZM184.953 16.824H187.657C188.339 16.824 188.851 16.6747 189.193 16.376C189.534 16.0667 189.705 15.6347 189.705 15.08C189.705 14.5253 189.534 14.0987 189.193 13.8C188.851 13.4907 188.339 13.336 187.657 13.336H184.953V16.824ZM193.021 17.352C193.021 16.168 193.234 15.144 193.661 14.28C194.098 13.416 194.722 12.7493 195.533 12.28C196.343 11.8 197.309 11.56 198.429 11.56C199.538 11.56 200.498 11.8 201.309 12.28C202.119 12.7493 202.743 13.416 203.181 14.28C203.629 15.144 203.853 16.1627 203.853 17.336C203.853 18.52 203.629 19.5493 203.181 20.424C202.743 21.288 202.119 21.96 201.309 22.44C200.498 22.92 199.538 23.16 198.429 23.16C197.309 23.16 196.343 22.92 195.533 22.44C194.733 21.96 194.114 21.288 193.677 20.424C193.239 19.5493 193.021 18.5253 193.021 17.352ZM195.181 17.352C195.181 18.6213 195.453 19.6133 195.997 20.328C196.541 21.0427 197.351 21.4 198.429 21.4C199.474 21.4 200.279 21.0427 200.845 20.328C201.41 19.6133 201.693 18.6213 201.693 17.352C201.693 16.072 201.41 15.08 200.845 14.376C200.29 13.672 199.485 13.32 198.429 13.32C197.351 13.32 196.541 13.672 195.997 14.376C195.453 15.08 195.181 16.072 195.181 17.352ZM207.951 23V13.416H204.223V11.72H213.743V13.416H210.015V23H207.951ZM215.201 23V11.72H222.801V13.336H217.185V16.456H222.433V18.088H217.185V21.368H222.801V23H215.201ZM223.216 23L227.856 16.824V17.704L223.376 11.72H225.792L229.04 16.216H228.384L231.616 11.72H234.048L229.552 17.704V16.824L234.208 23H231.776L228.352 18.296H229.056L225.632 23H223.216ZM237.982 23V13.416H234.254V11.72H243.774V13.416H240.046V23H237.982ZM244.255 17.352C244.255 16.168 244.468 15.144 244.895 14.28C245.332 13.416 245.956 12.7493 246.767 12.28C247.578 11.8 248.543 11.56 249.663 11.56C250.772 11.56 251.732 11.8 252.543 12.28C253.354 12.7493 253.978 13.416 254.415 14.28C254.863 15.144 255.087 16.1627 255.087 17.336C255.087 18.52 254.863 19.5493 254.415 20.424C253.978 21.288 253.354 21.96 252.543 22.44C251.732 22.92 250.772 23.16 249.663 23.16C248.543 23.16 247.578 22.92 246.767 22.44C245.967 21.96 245.348 21.288 244.911 20.424C244.474 19.5493 244.255 18.5253 244.255 17.352ZM246.415 17.352C246.415 18.6213 246.687 19.6133 247.231 20.328C247.775 21.0427 248.586 21.4 249.663 21.4C250.708 21.4 251.514 21.0427 252.079 20.328C252.644 19.6133 252.927 18.6213 252.927 17.352C252.927 16.072 252.644 15.08 252.079 14.376C251.524 13.672 250.719 13.32 249.663 13.32C248.586 13.32 247.775 13.672 247.231 14.376C246.687 15.08 246.415 16.072 246.415 17.352ZM257.217 23V11.72H262.225C263.462 11.72 264.406 12.0187 265.057 12.616C265.707 13.2133 266.033 14.0347 266.033 15.08C266.033 16.1147 265.707 16.936 265.057 17.544C264.406 18.152 263.462 18.456 262.225 18.456H259.281V23H257.217ZM259.281 16.824H261.985C262.667 16.824 263.179 16.6747 263.521 16.376C263.862 16.0667 264.033 15.6347 264.033 15.08C264.033 14.5253 263.862 14.0987 263.521 13.8C263.179 13.4907 262.667 13.336 261.985 13.336H259.281V16.824ZM267.873 23V11.72H275.521V13.4H269.921V23H267.873Z" fill="#1F2133"/>
</svg>
