<svg width="276" height="35" viewBox="0 0 276 35" fill="none" xmlns="http://www.w3.org/2000/svg">
<path fill-rule="evenodd" clip-rule="evenodd" d="M7.33962 15.3672C7.7705 16.1645 8.4297 16.9755 8.4297 16.9755C13.4718 13.6359 16.0836 13.517 16.8632 13.3626C15.6499 15.1136 12.6671 19.7411 12.5579 19.9252C10.5107 20.376 9.23159 19.9127 6.21335 21.0744C6.21126 22.0914 6.2043 22.1584 6.20464 23.2821C8.78053 22.0182 9.33009 21.9712 11.1465 22.0482C10.1188 23.6908 9.89566 24.0362 9.4881 24.6697C9.03286 25.373 9.04365 25.3851 8.71127 25.7955C7.06258 25.9751 5.25135 24.6956 3.74745 24.3606C2.31594 24.0417 1.47262 24.7347 1.19523 25.0639C-0.26099 26.4729 -1.11405 34.9857 3.07293 34.9923C6.91257 34.8051 8.46172 30.1963 11.0299 27.857C11.4584 27.6004 14.5598 27.7665 16.9575 27.7417C16.6171 30.3583 15.7905 32.3328 15.2636 34.9951L18.8561 35.0006C19.3799 32.3218 19.816 28.066 20.8166 27.1824C21.8173 26.2988 25.7651 25.4856 27.916 23.9284C33.9957 19.5266 33.7945 11.9861 25.5104 11.3135C26.337 8.39185 27.5708 5.83288 28.0734 2.97304C28.1367 2.61137 27.9801 1.96092 27.8457 1.535C27.5868 0.714596 25.9607 -0.0629746 25.6412 0.00403949C24.8529 1.17506 24.2344 2.06524 23.5843 3.0328C21.8541 5.59764 19.603 9.16183 17.9769 11.3913C15.6033 11.8248 14.1749 12.2386 12.6671 12.7747C10.503 13.5447 7.95218 14.953 7.33962 15.3672ZM24.7339 13.316C25.8093 13.4227 27.0132 13.526 27.9237 14.0076C32.7452 16.5565 28.0448 22.2054 24.9953 23.3032L21.3526 24.6144C21.2047 24.2369 21.5019 22.1864 22.3971 21.9038C24.9173 21.4568 25.9047 21.5691 27.52 20.3169C27.5088 19.7773 27.498 19.2374 27.4873 18.6979C25.399 19.9366 24.7969 19.9881 22.6108 19.9069C23.318 17.78 24.027 15.4425 24.7339 13.316ZM14.3795 22.0531C15.8824 22.0406 17.5513 22.0334 18.8947 22.0427C18.8575 22.214 18.1715 24.2023 17.6334 25.7948C16.1177 25.7789 13.9048 25.801 12.1009 25.7848C12.9097 24.4839 13.8759 22.9187 14.3795 22.0531ZM15.7881 19.8934C17.1538 17.4477 18.6459 15.1143 19.9134 13.1989C20.0008 13.0666 21.4341 13.0908 22.1959 13.1271C21.5225 14.9585 20.4129 17.8377 19.6294 19.8969C18.3946 19.8741 17.0898 19.9197 15.7881 19.8934ZM25.7115 3.88153C24.8679 6.331 23.6995 9.13695 22.9265 11.2721C22.639 11.2766 21.5729 11.2779 21.117 11.2797C22.0731 9.27444 24.397 5.67709 25.7115 3.88153ZM3.91694 30.9808C2.69774 27.4318 4.07078 26.5323 7.17534 27.2263C6.78658 28.8546 5.62863 30.5863 3.91694 30.9808Z" fill="white"/>
<path fill-rule="evenodd" clip-rule="evenodd" d="M22.0284 27.2573H33.8104L33.3931 28.961L28.8835 28.9738L27.5355 34.9892L25.229 34.9975L26.6647 28.9679L21.6163 28.9738L22.0284 27.2573Z" fill="white"/>
<path fill-rule="evenodd" clip-rule="evenodd" d="M30.2785 30.334H42.0006L41.6272 31.8981L36.6982 31.9016L35.9526 34.9911H33.9235L34.6917 31.8988L29.8953 31.9019L30.2785 30.334Z" fill="white"/>
<path d="M59.0006 22.9998L64.1046 11.7198H65.8326L71.0006 22.9998H68.9046L67.5286 19.8318L68.3606 20.3918H61.5926L62.4566 19.8318L61.0806 22.9998H59.0006ZM64.9526 13.9278L62.6966 19.2718L62.2806 18.7758H67.6566L67.3206 19.2718L65.0166 13.9278H64.9526ZM72.2326 23.2718L71.2246 21.7518C71.6726 21.5064 72.0673 21.2184 72.4086 20.8878C72.7499 20.5571 73.0326 20.1464 73.2566 19.6558C73.4806 19.1544 73.6459 18.5411 73.7526 17.8158C73.8699 17.0798 73.9286 16.1944 73.9286 15.1598V11.7198H82.1206V22.9998H80.0726V13.3998H75.8326V15.6718C75.8326 16.7491 75.7526 17.6984 75.5926 18.5198C75.4326 19.3411 75.1979 20.0611 74.8886 20.6798C74.5793 21.2878 74.2006 21.8051 73.7526 22.2318C73.3153 22.6478 72.8086 22.9944 72.2326 23.2718ZM84.608 22.9998V11.7198H86.656V16.4398H89.856C91.0933 16.4398 92.0587 16.7171 92.752 17.2718C93.4453 17.8158 93.792 18.6264 93.792 19.7038C93.792 20.7704 93.4453 21.5864 92.752 22.1518C92.0587 22.7171 91.0933 22.9998 89.856 22.9998H84.608ZM86.656 21.4158H89.616C90.3733 21.4158 90.928 21.2771 91.28 20.9998C91.632 20.7118 91.808 20.2798 91.808 19.7038C91.808 19.1384 91.632 18.7171 91.28 18.4398C90.928 18.1624 90.3733 18.0238 89.616 18.0238H86.656V21.4158ZM100.615 23.3998V21.7358L101.127 22.1198H100.679C99.5592 22.1198 98.5939 21.9278 97.7832 21.5438C96.9726 21.1598 96.3486 20.6104 95.9112 19.8958C95.4846 19.1704 95.2712 18.2958 95.2712 17.2718C95.2712 15.7144 95.7406 14.5198 96.6792 13.6878C97.6286 12.8451 98.9619 12.4238 100.679 12.4238H101.127L100.615 12.8078V11.2398H102.663V12.8078L102.151 12.4238H102.599C104.317 12.4238 105.65 12.8451 106.599 13.6878C107.549 14.5198 108.023 15.7144 108.023 17.2718C108.023 18.2958 107.805 19.1704 107.367 19.8958C106.93 20.6104 106.306 21.1598 105.495 21.5438C104.695 21.9278 103.73 22.1198 102.599 22.1198H102.151L102.663 21.7358V23.3998H100.615ZM100.631 20.9198V13.6238L101.063 13.9758H100.471C99.5326 13.9758 98.7752 14.2531 98.1992 14.8078C97.6339 15.3518 97.3512 16.1731 97.3512 17.2718C97.3512 17.9864 97.4846 18.5891 97.7512 19.0798C98.0179 19.5704 98.3859 19.9438 98.8552 20.1998C99.3246 20.4451 99.8632 20.5678 100.471 20.5678H101.063L100.631 20.9198ZM102.663 20.9198L102.215 20.5678H102.823C103.431 20.5678 103.97 20.4451 104.439 20.1998C104.909 19.9438 105.271 19.5704 105.527 19.0798C105.794 18.5891 105.927 17.9864 105.927 17.2718C105.927 16.1731 105.645 15.3518 105.079 14.8078C104.514 14.2531 103.762 13.9758 102.823 13.9758H102.215L102.663 13.6238V20.9198ZM108.907 22.9998L114.011 11.7198H115.739L120.907 22.9998H118.811L117.435 19.8318L118.267 20.3918H111.499L112.363 19.8318L110.987 22.9998H108.907ZM114.859 13.9278L112.603 19.2718L112.187 18.7758H117.563L117.227 19.2718L114.923 13.9278H114.859ZM121.744 19.3838V17.7998H126.608V19.3838H121.744ZM132.264 23.1598C131.485 23.1598 130.755 23.0371 130.072 22.7918C129.4 22.5464 128.835 22.2104 128.376 21.7838L129.048 20.1518C129.549 20.5678 130.051 20.8718 130.552 21.0638C131.053 21.2558 131.608 21.3518 132.216 21.3518C133.336 21.3518 134.205 21.0318 134.824 20.3918C135.453 19.7411 135.789 18.8024 135.832 17.5758L136.392 18.0718H130.456V16.4558H136.36L135.816 16.9998C135.763 15.8478 135.432 14.9571 134.824 14.3278C134.216 13.6878 133.368 13.3678 132.28 13.3678C131.672 13.3678 131.112 13.4584 130.6 13.6398C130.099 13.8211 129.581 14.1251 129.048 14.5518L128.376 12.9358C128.867 12.4984 129.453 12.1624 130.136 11.9278C130.819 11.6824 131.555 11.5598 132.344 11.5598C133.517 11.5598 134.52 11.7998 135.352 12.2798C136.195 12.7491 136.84 13.4158 137.288 14.2798C137.736 15.1438 137.96 16.1678 137.96 17.3518C137.96 18.5358 137.736 19.5651 137.288 20.4398C136.84 21.3038 136.189 21.9758 135.336 22.4558C134.493 22.9251 133.469 23.1598 132.264 23.1598ZM140.045 23.2718L139.037 21.7518C139.485 21.5064 139.88 21.2184 140.221 20.8878C140.562 20.5571 140.845 20.1464 141.069 19.6558C141.293 19.1544 141.458 18.5411 141.565 17.8158C141.682 17.0798 141.741 16.1944 141.741 15.1598V11.7198H149.933V22.9998H147.885V13.3998H143.645V15.6718C143.645 16.7491 143.565 17.6984 143.405 18.5198C143.245 19.3411 143.01 20.0611 142.701 20.6798C142.392 21.2878 142.013 21.8051 141.565 22.2318C141.128 22.6478 140.621 22.9944 140.045 23.2718ZM152.42 22.9998V11.7198H160.02V13.3358H154.404V16.4558H159.652V18.0878H154.404V21.3678H160.02V22.9998H152.42ZM161.936 22.9998V11.7198H163.968V16.5198H165.888L165.472 16.7918L168.8 11.7198H171.072L167.36 17.1758L166.576 16.5998C167.301 16.7064 167.904 16.9571 168.384 17.3518C168.875 17.7358 169.301 18.2798 169.664 18.9838L171.664 22.9998H169.44L167.888 19.7518C167.621 19.1864 167.301 18.7864 166.928 18.5518C166.565 18.3171 166.101 18.1998 165.536 18.1998H163.968V22.9998H161.936ZM175.639 22.9998V13.4158H171.911V11.7198H181.431V13.4158H177.703V22.9998H175.639ZM182.889 22.9998V11.7198H187.897C189.135 11.7198 190.079 12.0184 190.729 12.6158C191.38 13.2131 191.705 14.0344 191.705 15.0798C191.705 16.1144 191.38 16.9358 190.729 17.5438C190.079 18.1518 189.135 18.4558 187.897 18.4558H184.953V22.9998H182.889ZM184.953 16.8238H187.657C188.34 16.8238 188.852 16.6744 189.193 16.3758C189.535 16.0664 189.705 15.6344 189.705 15.0798C189.705 14.5251 189.535 14.0984 189.193 13.7998C188.852 13.4904 188.34 13.3358 187.657 13.3358H184.953V16.8238ZM193.021 17.3518C193.021 16.1678 193.235 15.1438 193.661 14.2798C194.099 13.4158 194.723 12.7491 195.533 12.2798C196.344 11.7998 197.309 11.5598 198.429 11.5598C199.539 11.5598 200.499 11.7998 201.309 12.2798C202.12 12.7491 202.744 13.4158 203.181 14.2798C203.629 15.1438 203.853 16.1624 203.853 17.3358C203.853 18.5198 203.629 19.5491 203.181 20.4238C202.744 21.2878 202.12 21.9598 201.309 22.4398C200.499 22.9198 199.539 23.1598 198.429 23.1598C197.309 23.1598 196.344 22.9198 195.533 22.4398C194.733 21.9598 194.115 21.2878 193.677 20.4238C193.24 19.5491 193.021 18.5251 193.021 17.3518ZM195.181 17.3518C195.181 18.6211 195.453 19.6131 195.997 20.3278C196.541 21.0424 197.352 21.3998 198.429 21.3998C199.475 21.3998 200.28 21.0424 200.845 20.3278C201.411 19.6131 201.693 18.6211 201.693 17.3518C201.693 16.0718 201.411 15.0798 200.845 14.3758C200.291 13.6718 199.485 13.3198 198.429 13.3198C197.352 13.3198 196.541 13.6718 195.997 14.3758C195.453 15.0798 195.181 16.0718 195.181 17.3518ZM207.951 22.9998V13.4158H204.223V11.7198H213.743V13.4158H210.015V22.9998H207.951ZM215.202 22.9998V11.7198H222.802V13.3358H217.186V16.4558H222.434V18.0878H217.186V21.3678H222.802V22.9998H215.202ZM223.216 22.9998L227.856 16.8238V17.7038L223.376 11.7198H225.792L229.04 16.2158H228.384L231.616 11.7198H234.048L229.552 17.7038V16.8238L234.208 22.9998H231.776L228.352 18.2958H229.056L225.632 22.9998H223.216ZM237.983 22.9998V13.4158H234.255V11.7198H243.775V13.4158H240.047V22.9998H237.983ZM244.256 17.3518C244.256 16.1678 244.469 15.1438 244.896 14.2798C245.333 13.4158 245.957 12.7491 246.768 12.2798C247.578 11.7998 248.544 11.5598 249.664 11.5598C250.773 11.5598 251.733 11.7998 252.544 12.2798C253.354 12.7491 253.978 13.4158 254.416 14.2798C254.864 15.1438 255.088 16.1624 255.088 17.3358C255.088 18.5198 254.864 19.5491 254.416 20.4238C253.978 21.2878 253.354 21.9598 252.544 22.4398C251.733 22.9198 250.773 23.1598 249.664 23.1598C248.544 23.1598 247.578 22.9198 246.768 22.4398C245.968 21.9598 245.349 21.2878 244.912 20.4238C244.474 19.5491 244.256 18.5251 244.256 17.3518ZM246.416 17.3518C246.416 18.6211 246.688 19.6131 247.232 20.3278C247.776 21.0424 248.586 21.3998 249.664 21.3998C250.709 21.3998 251.514 21.0424 252.08 20.3278C252.645 19.6131 252.928 18.6211 252.928 17.3518C252.928 16.0718 252.645 15.0798 252.08 14.3758C251.525 13.6718 250.72 13.3198 249.664 13.3198C248.586 13.3198 247.776 13.6718 247.232 14.3758C246.688 15.0798 246.416 16.0718 246.416 17.3518ZM257.217 22.9998V11.7198H262.225C263.463 11.7198 264.407 12.0184 265.057 12.6158C265.708 13.2131 266.033 14.0344 266.033 15.0798C266.033 16.1144 265.708 16.9358 265.057 17.5438C264.407 18.1518 263.463 18.4558 262.225 18.4558H259.281V22.9998H257.217ZM259.281 16.8238H261.985C262.668 16.8238 263.18 16.6744 263.521 16.3758C263.863 16.0664 264.033 15.6344 264.033 15.0798C264.033 14.5251 263.863 14.0984 263.521 13.7998C263.18 13.4904 262.668 13.3358 261.985 13.3358H259.281V16.8238ZM267.874 22.9998V11.7198H275.522V13.3998H269.922V22.9998H267.874Z" fill="white"/>
</svg>
