<svg width="26" height="21" viewBox="0 0 26 21" fill="none" xmlns="http://www.w3.org/2000/svg">
<circle opacity="0.2" cx="10.5" cy="10.5" r="10" stroke="#1F2133"/>
<path d="M23.9311 4.33639C24.0428 4.22989 24.1761 4.14528 24.3232 4.08751C24.4703 4.02975 24.6282 4 24.7878 4C24.9473 4 25.1053 4.02975 25.2524 4.08751C25.3995 4.14528 25.5328 4.22989 25.6444 4.33639C26.1124 4.77842 26.119 5.49271 25.6608 5.94239L15.9848 16.6337C15.8749 16.7465 15.7416 16.8371 15.593 16.9001C15.4444 16.963 15.2836 16.9969 15.1205 16.9998C14.9573 17.0027 14.7953 16.9744 14.6442 16.9167C14.4932 16.859 14.3563 16.7731 14.242 16.6643L8.35427 11.0877C8.1272 10.8712 8 10.5802 8 10.277C8 9.9739 8.1272 9.68285 8.35427 9.4664C8.46594 9.35989 8.59923 9.27528 8.74633 9.21752C8.89342 9.15976 9.05137 9.13001 9.21092 9.13001C9.37047 9.13001 9.52842 9.15976 9.67551 9.21752C9.82261 9.27528 9.9559 9.35989 10.0676 9.4664L15.0619 14.1972L23.8984 4.37004C23.9086 4.35822 23.9195 4.34699 23.9311 4.33639Z" fill="#1F2133"/>
</svg>
