<svg width="15" height="14" viewBox="0 0 15 14" fill="none" xmlns="http://www.w3.org/2000/svg">
<path fill-rule="evenodd" clip-rule="evenodd" d="M0 7C0 6.79375 0.0817347 6.59595 0.227226 6.45011C0.372718 6.30427 0.570047 6.22233 0.775803 6.22233H12.35L7.46712 1.32924C7.39499 1.25694 7.33778 1.1711 7.29874 1.07663C7.2597 0.982158 7.23961 0.880905 7.23961 0.778651C7.23961 0.676397 7.2597 0.575144 7.29874 0.480674C7.33778 0.386204 7.39499 0.300366 7.46712 0.228061C7.53926 0.155757 7.62489 0.0984022 7.71913 0.0592713C7.81337 0.0201405 7.91439 0 8.01639 0C8.1184 0 8.21941 0.0201405 8.31365 0.0592713C8.4079 0.0984022 8.49353 0.155757 8.56566 0.228061L14.7721 6.44941C14.8443 6.52165 14.9016 6.60747 14.9408 6.70195C14.9799 6.79642 15 6.89771 15 7C15 7.10229 14.9799 7.20358 14.9408 7.29805C14.9016 7.39253 14.8443 7.47835 14.7721 7.55059L8.56566 13.7719C8.49353 13.8442 8.4079 13.9016 8.31365 13.9407C8.21941 13.9799 8.1184 14 8.01639 14C7.91439 14 7.81337 13.9799 7.71913 13.9407C7.62489 13.9016 7.53926 13.8442 7.46712 13.7719C7.39499 13.6996 7.33778 13.6138 7.29874 13.5193C7.2597 13.4249 7.23961 13.3236 7.23961 13.2213C7.23961 13.1191 7.2597 13.0178 7.29874 12.9234C7.33778 12.8289 7.39499 12.7431 7.46712 12.6708L12.35 7.77767H0.775803C0.570047 7.77767 0.372718 7.69574 0.227226 7.5499C0.0817347 7.40405 0 7.20625 0 7Z" fill="white"/>
</svg>
