<svg width="41" height="41" viewBox="0 0 41 41" fill="none" xmlns="http://www.w3.org/2000/svg">
<g clip-path="url(#clip0_2_3243)">
<path d="M39.5969 11.0954L29.1516 0.241676C29.078 0.165266 28.9897 0.104481 28.8921 0.0629564C28.7945 0.0214315 28.6895 1.92407e-05 28.5834 0L13.0154 0C11.2732 0 9.85572 1.4169 9.85572 3.15844V14.1923H3.5466C2.24309 14.1923 1.18262 15.2525 1.18262 16.5557V28.3867C1.18262 29.6898 2.24309 30.75 3.5466 30.75H9.85572V37.8471C9.85572 39.5856 11.2732 41 13.0154 41H36.6575C38.3998 41 39.8173 39.5864 39.8173 37.8488V11.6422C39.8172 11.4383 39.7383 11.2423 39.5969 11.0954ZM28.7788 2.12856L37.3535 11.0384H28.7788V2.12856ZM3.5466 29.1731C3.11258 29.1731 2.7596 28.8204 2.7596 28.3867V16.5557C2.7596 16.122 3.11266 15.7692 3.5466 15.7692H24.8379C25.272 15.7692 25.6249 16.122 25.6249 16.5557V28.3867C25.6249 28.8204 25.2719 29.1731 24.8379 29.1731H3.5466ZM38.2403 37.8488C38.2403 38.7169 37.5302 39.4231 36.6575 39.4231H13.0154C12.1427 39.4231 11.4326 38.7162 11.4326 37.8472V30.75H24.8379C26.1414 30.75 27.2019 29.6898 27.2019 28.3867V16.5557C27.2019 15.2525 26.1414 14.1923 24.8379 14.1923H11.4326V3.15844C11.4326 2.28631 12.1427 1.5769 13.0154 1.5769H27.2018V11.8269C27.2018 12.2624 27.5549 12.6153 27.9903 12.6153H38.2403V37.8488Z" fill="#6150E9"/>
<path d="M10.6087 20.0107C10.3469 19.6703 10.022 19.4493 9.63392 19.3477C9.38135 19.28 8.8393 19.2461 8.00769 19.2461H5.81323V26.0189H7.18073V23.4641H8.0724C8.69148 23.4641 9.16426 23.4317 9.49074 23.367C9.73097 23.3146 9.96736 23.2076 10.1999 23.0459C10.4325 22.8842 10.6242 22.6617 10.7751 22.3784C10.9261 22.095 11.0015 21.7454 11.0015 21.3296C11.0014 20.7906 10.8705 20.351 10.6087 20.0107ZM9.43757 21.8748C9.33443 22.0258 9.19197 22.1366 9.01019 22.2075C8.82841 22.2783 8.46814 22.3137 7.92914 22.3137H7.18073V20.3919H7.84137C8.33417 20.3919 8.66217 20.4072 8.82537 20.4381C9.04711 20.4781 9.23041 20.5782 9.37511 20.7383C9.51989 20.8985 9.59228 21.1018 9.59228 21.3481C9.59236 21.5483 9.54071 21.7239 9.43757 21.8748ZM17.5755 21.0964C17.4277 20.6636 17.212 20.2979 16.9287 19.9991C16.6454 19.7004 16.305 19.4925 15.9077 19.3754C15.6121 19.2892 15.1824 19.2461 14.6188 19.2461H12.1194V26.0189H14.6927C15.1978 26.0189 15.6013 25.9711 15.9031 25.8756C16.3066 25.7463 16.6269 25.5661 16.864 25.3351C17.1782 25.0301 17.4199 24.6313 17.5894 24.1385C17.728 23.735 17.7972 23.2546 17.7972 22.6971C17.7972 22.0627 17.7233 21.5291 17.5755 21.0964ZM16.2449 23.8776C16.1525 24.181 16.0332 24.3989 15.8869 24.5313C15.7406 24.6637 15.5566 24.7576 15.3348 24.813C15.1655 24.8562 14.8898 24.8777 14.5079 24.8777H13.4869V20.3919H14.1013C14.6587 20.3919 15.033 20.4134 15.2239 20.4566C15.4795 20.512 15.6905 20.6182 15.8569 20.7753C16.0232 20.9325 16.1525 21.1511 16.2449 21.4313C16.3373 21.7116 16.3835 22.1135 16.3835 22.6372C16.3835 23.1607 16.3373 23.5742 16.2449 23.8776ZM23.6091 20.3919V19.2461H18.9661V26.0189H20.3336V23.1407H23.161V21.9949H20.3336V20.3919H23.6091Z" fill="#6150E9"/>
</g>
<defs>
<clipPath id="clip0_2_3243">
<rect width="41" height="41" fill="white"/>
</clipPath>
</defs>
</svg>
