<svg width="17" height="17" fill="none" xmlns="http://www.w3.org/2000/svg"><g clip-path="url(#clip0)" stroke="#7E7E7E" stroke-miterlimit="10"><path d="M14.62.347H2.38C1.253.347.34 1.279.34 2.429V14.57c0 1.15.913 2.082 2.04 2.082h12.24c1.127 0 2.04-.932 2.04-2.082V2.43c0-1.15-.913-2.082-2.04-2.082z"/><path d="M8.5 12.837c2.253 0 4.08-1.864 4.08-4.163 0-2.3-1.827-4.164-4.08-4.164S4.42 6.374 4.42 8.674c0 2.299 1.827 4.163 4.08 4.163z" stroke-width="1.5"/><path d="M13.26 4.51a1.03 1.03 0 001.02-1.04 1.03 1.03 0 00-1.02-1.041 1.03 1.03 0 00-1.02 1.04 1.03 1.03 0 001.02 1.041z" stroke-width=".75"/></g><defs><clipPath id="clip0"><path fill="#fff" d="M0 0h17v17H0z"/></clipPath></defs></svg>