<svg width="17" height="17" fill="none" xmlns="http://www.w3.org/2000/svg"><g clip-path="url(#clip0)"><path d="M14.62.347H2.38C1.253.347.34 1.279.34 2.429V14.57c0 1.15.913 2.082 2.04 2.082h12.24c1.127 0 2.04-.932 2.04-2.082V2.43c0-1.15-.913-2.082-2.04-2.082z" stroke="#7E7E7E" stroke-miterlimit="10"/><path d="M9.459 16.965H7.154a.673.673 0 01-.481-.203.701.701 0 01-.2-.49v-5.323h-1.36a.673.673 0 01-.48-.203.701.701 0 01-.2-.49v-2.29c0-.184.072-.36.2-.49a.668.668 0 01.48-.204h1.36V6.113A3.918 3.918 0 017.48 3.338a3.632 3.632 0 011.227-.807 3.566 3.566 0 011.439-.248h1.76c.181 0 .354.073.482.203a.7.7 0 01.199.49v2.082a.7.7 0 01-.2.491.673.673 0 01-.48.203h-1.21c-.361 0-.45.077-.47.097-.02.021-.075.146-.075.438v.895h1.64c.12 0 .24.032.346.09a.705.705 0 01.36.624v2.276a.7.7 0 01-.199.49.673.673 0 01-.48.204h-1.667v5.308a.709.709 0 01-.166.56.68.68 0 01-.527.231zm-2.163-.86h2.04v-5.551c0-.127.05-.249.138-.339a.465.465 0 01.332-.14h1.876V8.111H9.778a.454.454 0 01-.331-.135.472.472 0 01-.138-.336V6.356c-.031-.36.07-.72.286-1.006a1.423 1.423 0 011.101-.389h1.04v-1.81h-1.61a2.617 2.617 0 00-1.132.174c-.36.142-.686.361-.955.644a2.73 2.73 0 00-.603.992 2.772 2.772 0 00-.14 1.159v1.513a.473.473 0 01-.133.335.455.455 0 01-.329.136H5.256v1.978h1.578a.453.453 0 01.33.14.473.473 0 01.132.339v5.544z" fill="#7E7E7E"/></g><defs><clipPath id="clip0"><path fill="#fff" d="M0 0h17v17H0z"/></clipPath></defs></svg>