<svg width="17" height="17" fill="none" xmlns="http://www.w3.org/2000/svg"><g clip-path="url(#clip0)"><path d="M14.62.347H2.38C1.253.347.34 1.279.34 2.429V14.57c0 1.15.913 2.082 2.04 2.082h12.24c1.127 0 2.04-.932 2.04-2.082V2.43c0-1.15-.913-2.082-2.04-2.082z" stroke="#7E7E7E" stroke-miterlimit="10"/><path d="M8.643 12.65c1.754 0 1.129-1.132 1.265-1.458v-.617c.352.159.666.396.918.694.83.86 1.047 1.387 1.72 1.387h1.238a.8.8 0 00.68-.305.8.8 0 00.088-.742c-.272-.889-1.89-2.415-1.986-2.582l.048-.09a14.34 14.34 0 001.734-3.032.778.778 0 00-.082-.694.796.796 0 00-.68-.278H12.37a.905.905 0 00-.543.162.935.935 0 00-.348.456 8.88 8.88 0 01-1.577 2.616V6.502c0-.784.075-1.555-.728-1.555H7.235a.671.671 0 00-.38.13.707.707 0 00-.054 1.085c.455.583.169.909.264 2.525A9.549 9.549 0 015.488 5.69a.927.927 0 00-.322-.552.893.893 0 00-.596-.205H3.332a.667.667 0 00-.59.167.694.694 0 00-.22.583c0 1.055 2.286 6.939 6.12 6.939v.027zm-4.08-6.94c.109 0 .122 0 .204.237.49 1.484 1.598 3.677 2.407 3.677.605 0 .605-.638.605-.874V6.842a1.855 1.855 0 00-.408-1.138H9.14V8.32c0 .693.565 1.138 1.435.229.66-.824 1.2-1.74 1.605-2.72a.173.173 0 01.072-.1.167.167 0 01.118-.025h1.23a15.29 15.29 0 01-1.605 2.775.78.78 0 000 1.006l.211.236c.347.368 1.53 1.61 1.632 2.082h-1.312c-.252 0-.45-.375-1.19-1.145-.742-.77-1.102-.937-1.503-.937-.762 0-.68.639-.68 1.388v.624a1.695 1.695 0 01-.51.049c-3.203.09-5.243-5.086-5.359-6.078l1.279.007z" fill="#7E7E7E"/></g><defs><clipPath id="clip0"><path fill="#fff" d="M0 0h17v17H0z"/></clipPath></defs></svg>