<svg version="1.1" id="Слой_1" xmlns="http://www.w3.org/2000/svg" x="0" y="0" width="743.11" height="378.367" xml:space="preserve"><path d="M118.666 328.046c0 33.27 23.487 50.321 50.96 50.321 27.19 0 50.971-21.857 50.971-50.482 0-33.771-23.487-50.334-50.971-50.334-27.166 0-50.96 21.857-50.96 50.495zm122.66 49.206h18.181v-45.677h8.985c1.324 0 2.6 0 3.863-.146l21.072 45.823h20.436l-25.755-48.889c12.06-4.191 19.784-12.541 19.784-23.144 0-20.754-18.474-26.687-38.725-26.687h-27.84v98.72h-.001zm-71.701-96.636c21.378 0 31.677 23.462 31.677 47.269 0 23.782-9.501 47.419-31.677 47.419-21.392 0-31.678-23.464-31.678-47.258 0-23.808 9.489-47.43 31.678-47.43zm527.344-2.084l-24.762 60.608-15.605 38.112h3.713l14.171-35.047h35.209l14.146 35.047h19.271l-39.706-98.72h-6.437zm-323.006 24.603c0-16.427 13.165-25.585 32.021-25.585 9.463 0 16.526 2.256 24.577 6.914l-1.739 2.563c-8.386-4.486-13.841-5.468-20.902-5.468-10.028 0-15.778 6.767-15.778 16.083 0 23.328 40.688 23.328 40.688 52.431 0 16.537-12.394 28.292-32.828 28.292-10.444 0-18.94-2.415-27.46-8.691l1.754-2.722c6.596 5.135 13.987 7.086 22.346 7.086 10.641 0 18.157-6.766 18.157-18.83 0-22.663-40.836-24.111-40.836-52.073zM0 377.252h18.193v-49.551H48.73v-3.028H18.193V281.56h36.654v-3.028H0v98.72zm650.35-12.566c-6.438 5.321-17.042 9.659-28.123 9.659-24.934 0-35.218-22.506-35.218-45.664 0-24.444 12.049-47.747 35.377-47.747 8.348 0 18.99 2.561 27.815 9.636l1.938-2.575c-8.544-6.276-19.32-10.446-30.72-10.446-30.721 0-53.731 21.857-53.731 51.131 0 32.634 23.514 49.685 50.984 49.685 12.383 0 24.285-3.543 33.27-11.254l-1.592-2.425zM438.432 281.56h28.625v95.692h18.167V281.56h28.623v-3.028h-75.415v3.028zM69.926 377.252v-98.72h18.179v95.656h35.06v3.064H69.926zm458.057 0h18.167v-98.72h-18.167v98.72zm-194.178 0h18.144v-98.72h-18.144v98.72zm-65.938-95.692c13.666 0 21.219 8.851 21.219 23.979 0 13.484-8.693 22.985-22.52 22.985h-7.06V281.56h8.361zm424.284 17.064l16.267 40.516H675.59l16.561-40.516zM456.413 68.779c-1.973-1.993-4.156-3.695-6.413-5.162-3.725 17.481-19.244 30.604-37.828 30.604-7.736 0-14.906-2.293-20.937-6.191 1.482-7.05 4.976-13.773 10.443-19.252 13.118-13.123 33.32-14.841 48.322-5.162.565-2.617.87-5.326.87-8.102 0-21.385-17.344-38.707-38.699-38.707-2.831 0-5.553.313-8.2.882 9.719 14.998 8.029 35.245-5.124 48.39a38.505 38.505 0 01-19.16 10.438c-3.936-6.061-6.24-13.256-6.24-21.004 0-18.572 13.08-34.062 30.524-37.824a37.201 37.201 0 00-5.124-6.35c-15.115-15.115-39.619-15.126-54.732 0a38.59 38.59 0 00-5.161 6.425c17.467 3.721 30.608 19.24 30.608 37.83 0 7.728-2.305 14.9-6.19 20.937-7.062-1.513-13.779-4.964-19.257-10.451-13.106-13.128-14.833-33.329-5.161-48.316a38.425 38.425 0 00-8.115-.872c-21.368 0-38.701 17.322-38.701 38.701 0 2.813.308 5.548.884 8.188 15.016-9.727 35.244-8.03 48.383 5.123 5.468 5.45 8.924 12.156 10.445 19.167-6.056 3.924-13.253 6.227-21.011 6.227-18.56 0-34.055-13.073-37.818-30.517a38.946 38.946 0 00-6.338 5.123c-15.114 15.116-15.114 39.621 0 54.735 1.972 1.981 4.144 3.698 6.399 5.175 3.738-17.494 19.245-30.611 37.854-30.611 7.711 0 14.882 2.286 20.926 6.184a38.348 38.348 0 01-10.458 19.252c-13.115 13.13-33.319 14.834-48.322 5.175a39.082 39.082 0 00-.857 8.096c0 21.379 17.332 38.7 38.711 38.7 2.796 0 5.553-.314 8.177-.882-9.721-14.998-8.016-35.242 5.125-48.383 5.454-5.469 12.134-8.925 19.171-10.433 3.921 6.049 6.238 13.246 6.238 20.999 0 18.566-13.091 34.055-30.534 37.818a37.986 37.986 0 005.125 6.35c15.126 15.121 39.617 15.121 54.731 0a40.147 40.147 0 005.173-6.406c-17.479-3.737-30.598-19.252-30.598-37.847 0-7.718 2.281-14.895 6.179-20.944 7.049 1.514 13.766 4.976 19.245 10.463 13.13 13.115 14.834 33.331 5.173 48.328 2.612.551 5.331.858 8.102.858 21.366 0 38.701-17.321 38.701-38.705 0-2.815-.308-5.542-.87-8.184-15.005 9.709-35.268 8.029-48.398-5.129a38.343 38.343 0 01-10.432-19.16 38.364 38.364 0 0120.999-6.229c18.559 0 34.066 13.068 37.831 30.517a39.054 39.054 0 006.337-5.129c15.117-15.115 15.117-39.618.002-54.733z" fill-rule="evenodd" clip-rule="evenodd" fill="#AC842F"/></svg>