<svg width="93" height="55" fill="none" xmlns="http://www.w3.org/2000/svg"><g clip-path="url(#clip0)"><path d="M43.528 24.823c.856.179 1.711.32 2.546.558 1.574.445 3.025 1.178 4.427 2.019 1.402.84 2.39 2.065 3.313 3.366.322.452.618.923.934 1.38 1.344 1.954 3.332 2.862 5.54 3.402.384.095.772.178 1.15.294a.354.354 0 01.21.256.359.359 0 01-.195.265 1.8 1.8 0 01-.567.148c-2.661.245-5.128-.248-7.294-1.92a23.708 23.708 0 01-3.624-3.428c-2.566-3.026-5.897-4.744-9.671-5.719a2.669 2.669 0 00-1.177-.06c-5.328.979-10.654.635-15.983-.061-1.686-.22-3.372-.452-5.102-.487.015.329.258.274.41.306 3.235.68 6.386 1.595 9.327 3.158.174.094.36.167.552.217 2.126.505 4.159 1.318 6.248 1.943 1.338.372 2.702.645 4.08.818.387.055.677-.015.927-.347.409-.562 1.001-.898 1.643-1.12.947-.332 1.811-.148 2.52.564.596.599.641 1.34.335 2.099-.306.759-1.29 1.388-2.201 1.352-1.005-.037-1.856-.424-2.404-1.305-.218-.35-.403-.625-.884-.653-2.278-.141-4.437-.819-6.583-1.545-.26-.087-.53-.15-.798-.22-.02-.005-.053.03-.098.056.14.31.456.41.713.56a29.7 29.7 0 016.724 5.45c.357.37.771.68 1.227.92 3.958 2.178 7.24 5.087 9.776 8.859 1.106 1.644 2.024 3.416 3.294 4.95.734.885 1.48 1.761 2.227 2.634.163.191.312.385.164.63-.149.243-.4.23-.634.16-1.919-.545-3.731-1.302-5.388-2.447-2.917-2.016-5.23-4.603-7.252-7.472-1.621-2.303-3.231-4.613-4.7-7.02-2.076-3.386-4.88-6.03-8.504-7.723-.722-.337-1.333-.863-2.04-1.204-4.058-1.957-8.316-3.112-12.83-3.24a1.507 1.507 0 00-.823.165c.739.14 1.478.28 2.22.417 1.166.238 2.301.609 3.384 1.105a10.593 10.593 0 015.062 4.51 18.503 18.503 0 002.992 3.835c1.159 1.151 2.192 2.396 2.923 3.878 1.028 2.08.84 4.152.037 6.223-.238.613-.722.703-1.049.161-1.142-1.853-2.91-3.002-4.612-4.234-1.059-.767-2.128-1.524-3.189-2.292-2.087-1.508-3.497-3.544-4.51-5.88a28.229 28.229 0 00-1.026-2.146 7.092 7.092 0 00-4.318-3.51c-3.012-.929-6.055-1.192-9.146-.407-2.46.625-4.89 1.301-7.187 2.422a3.199 3.199 0 01-.325.146c-.105.034-.222.077-.308-.045s.014-.238.098-.288c.464-.303.947-.575 1.447-.814a33.209 33.209 0 014.942-1.677 124.56 124.56 0 002.863-.767c.19-.053.374-.132.543-.235 1.598-.985 3.084-2.083 3.927-3.847.221-.463.491-.903.748-1.35.892-1.536 2.145-2.713 3.616-3.697 1.253-.828 2.58-1.54 3.82-2.404 1.634-1.13 3.01-2.567 4.627-3.708.312-.221.593-.678 1-.447.509.289.174.79.06 1.178a9.198 9.198 0 01-1.27 2.542c-.53.789-.959 1.642-1.273 2.54-.296.82-.67 1.61-1.12 2.358-1.59 2.695-4.039 4.28-6.906 5.32-.155.058-.297.108-.444.166a.8.8 0 00-.129.103c.303.178.582.06.86.026 1.455-.177 2.908-.384 4.375-.416.533-.013 1.002-.2 1.484-.382 2.053-.807 3.82-2.065 5.482-3.485.48-.411.95-.836 1.438-1.238.283-.233.356-.432.17-.803-.55-1.102-.322-2.088.632-2.956a3.91 3.91 0 01.675-.482c1.164-.67 1.078-.476 2.127.168.62.381.794 1.114.506 1.914-.181.48-.418.939-.704 1.365-.397.615-1.009.958-1.731.757-.668-.18-1.032.114-1.436.522a21.94 21.94 0 01-4.44 3.552c-.575.331-1.208.57-1.835.86.188.325.494.203.738.232.51.06 1.038.029 1.539.136 2.55.542 4.458-.662 6.163-2.297.846-.814 1.587-1.765 2.324-2.693 1.054-1.335 2.401-2.259 3.931-2.979 1.966-.926 3.958-1.826 5.587-3.33.49-.456.938-.965 1.408-1.446.194-.196.392-.39.6-.569a.39.39 0 01.438-.082.357.357 0 01.154.416c-.092.383-.205.76-.34 1.13-.59 1.485-1.467 2.81-2.4 4.087-1.782 2.447-3.837 4.638-6.555 6.086a21.768 21.768 0 01-4.985 1.88c-.3.067-.59.168-.868.3 2.554.35 5.13.489 7.705.412 2.027-.053 4-.513 6.004-.678.414-.034.61-.272.817-.584a8.634 8.634 0 001.475-4.335c.098-1.594.514-3.123.995-4.637a20.306 20.306 0 012.14-4.626c.44-.706.872-1.42 1.303-2.127.83-1.36 1.543-2.774 1.803-4.364.027-.204.09-.403.315-.454.224-.052.33.161.43.317 1.24 1.923 1.626 3.933.675 6.095-.543 1.233-1.066 2.482-1.864 3.574-1.05 1.438-1.66 3.053-2.076 4.758-.529 2.19-1.22 4.284-3.061 5.868.702-.119 1.402-.294 2.11-.34 1.786-.12 3.302-.947 4.843-1.73 2.215-1.123 4.111-2.668 5.85-4.415.918-.925 1.76-1.927 2.663-2.876.319-.336.37-.567.104-1.011-.894-1.49-.208-3.056 1.46-3.502.506-.134.95.046 1.352.301.775.495 1.148 1.624.88 2.532-.266.908-.93 1.479-1.948 1.406-.786-.059-1.21.285-1.658.838-1.549 1.905-3.189 3.723-5.167 5.21a24.626 24.626 0 01-2.485 1.621c-.14.082-.453.11-.328.378.089.194.348.154.538.121.78-.137 1.553-.313 2.337-.428a13.197 13.197 0 003.626-1.058c2.73-1.255 4.958-3.103 6.487-5.696.866-1.466 1.762-2.914 2.64-4.37 1.508-2.498 3.607-4.395 6.016-5.973a25.414 25.414 0 013.085-1.78 8.68 8.68 0 01.992-.382c.14-.046.324-.09.406.104.082.194-.05.295-.164.4a8.59 8.59 0 01-.717.62c-1.71 1.248-2.871 2.927-3.764 4.808-.491 1.037-.938 2.097-1.385 3.156-1.075 2.544-3.07 4.125-5.584 4.98-1.378.467-2.61 1.015-3.644 2.037-.781.773-1.735 1.326-2.716 1.9.36.296.672.104.95.053 3.557-.649 6.974-1.76 10.329-3.097 2.857-1.142 5.13-3.086 7.366-5.103.277-.25.288-.479.22-.831-.226-1.253.646-2.354 1.912-2.497.707-.078 1.23.244 1.612.802a1.524 1.524 0 01-.117 1.78c-.552.696-1.284 1.093-2.181.913-.507-.102-.802.02-1.116.406-.574.708-1.298 1.272-2.013 1.834-.277.218-.571.412-.731.707 1.332.222 2.569-.254 3.847-.425 3.42-.465 6.798-.314 10.084.87.56.203 1.113.423 1.66.659 1.352.585 2.71 1.13 4.196 1.274.222.021.519.02.574.308.056.288-.184.394-.421.475-2.028.686-4.07 1.313-6.21 1.545-1.524.163-3.006-.074-4.458-.526a29.555 29.555 0 01-3.88-1.505c-.644-.305-1.318-.56-1.95-.882-1.456-.752-2.944-.804-4.5-.376a25.9 25.9 0 00-3.38 1.11c-1.93.829-3.914 1.503-5.904 2.15-.33.11-.665.21-1.273.4 1.658.43 3.018.813 4.438.933.448.038.862-.093 1.28-.205 3.161-.854 6.201-.502 9.133.934.463.227.925.46 1.378.713 1.743.968 3.55 1.77 5.519 2.16.288.059.74.032.766.424.025.392-.417.414-.702.5-4.19 1.286-8.275.852-12.114-1.146-3.13-1.63-6.489-2.55-9.78-3.698-.798-.279-1.614-.242-2.457-.06-2.167.46-4.352.846-6.53 1.263-.379.074-.758.15-1.159.227.16.383.475.347.717.407a19.88 19.88 0 014.392 1.79c1.087.578 2.207 1.088 3.31 1.631.35.175.63.223.923-.155.337-.436.841-.553 1.393-.48.994.129 1.675.852 1.61 1.73-.06.828-1.008 1.712-1.844 1.727-1.187.019-1.667-.398-1.716-1.602-.015-.38-.1-.576-.457-.698-1.73-.6-3.323-1.503-4.96-2.31-1.504-.742-3.134-1.119-4.734-1.604a1.721 1.721 0 00-.823-.032l-6.773 1.239a.308.308 0 00-.285.21zm-29.71 3.063c.034.097.04.195.093.237 1.502 1.206 2.372 2.86 3.098 4.588a13.598 13.598 0 004.74 5.977c1.392.986 2.781 1.977 4.155 2.987 1.023.752 2 1.56 2.8 2.566.108.139.157.416.418.324.202-.074.225-.305.28-.492a6.577 6.577 0 00-.538-5.177 8.738 8.738 0 00-1.637-2.18c-1.842-1.779-3.355-3.8-4.68-5.971a7.303 7.303 0 00-2.342-2.345c-2.985-1.909-6.248-2.654-9.754-2.423-.232.015-.506-.019-.79.245.814.135 1.52.254 2.216.371 3.75.665 6.592 2.713 8.577 5.87A49.693 49.693 0 0026 39.726c.135.146.352.283.245.552-.303-.014-.465-.2-.628-.365-1.842-1.865-3.602-3.796-4.971-6.051a21.942 21.942 0 00-1.395-2.072c-1.182-1.52-2.553-2.828-4.341-3.621-.334-.155-.668-.41-1.093-.283zm23.185 7.774c.064.196.14.388.227.575 2.36 3.728 4.739 7.422 7.594 10.792 2.342 2.767 5.085 4.994 8.53 6.257.236.084.466.31.803.066a28.182 28.182 0 01-4.137-5.501c-1.978-3.382-4.62-6.13-7.727-8.465-.3-.227-.564-.564-1.078-.547.558.886 1.325 1.526 1.976 2.253.792.885 1.642 1.72 2.457 2.584.117.121.362.274.17.467-.134.142-.291-.052-.398-.147-.507-.443-1.022-.88-1.493-1.359-2.006-2.032-3.996-4.078-5.995-6.117-.225-.236-.484-.457-.929-.858zM20.982 11.472c-.337-.022-.483.175-.655.32-.875.741-1.747 1.487-2.622 2.227-1.671 1.414-3.65 2.368-5.44 3.604-1.161.804-2.163 1.724-2.92 2.909-.791 1.233-1.342 2.596-2.237 3.77 1.296-.863 2.43-1.897 3.599-2.886.876-.739 1.75-1.48 2.636-2.21.128-.104.315-.317.483-.108.119.146-.092.283-.197.38a224.59 224.59 0 01-2.88 2.649c-.905.816-1.824 1.617-2.741 2.416 1.29-.198 2.424-.73 3.583-1.19 3.212-1.277 5.575-3.43 6.807-6.703a16.185 16.185 0 011.717-3.37c.373-.547.74-1.116.867-1.808zm21.293 9.726c.608-.95.915-1.997 1.113-3.092.19-1.175.518-2.324.975-3.423a6.455 6.455 0 011.113-1.812 1.03 1.03 0 01.27-.228c.104-.059.23-.218.377 0-1.302 1.433-1.894 3.186-2.164 5.041a13.99 13.99 0 01-1.816 5.113c-.145.245-.376.48-.303.907 1.092-.867 2.004-1.777 2.434-3.064.301-.9.584-1.81.827-2.727.475-1.781 1.116-3.458 2.193-4.965.716-1 1.23-2.122 1.737-3.24a7.49 7.49 0 00.561-1.933 4.033 4.033 0 00-.48-2.637c-.125-.216-.164-.608-.495-.563-.252.035-.23.38-.286.599a9.627 9.627 0 01-1.023 2.395 112.13 112.13 0 01-1.65 2.747 23.703 23.703 0 00-2.19 4.467 21.814 21.814 0 00-1.193 6.415zm-2.198-8.928c-.038 0-.093-.018-.114 0-.086.081-.165.17-.242.26-1.394 1.616-3.117 2.764-5.058 3.63-.897.401-1.747.921-2.633 1.36-1.806.895-2.799 2.568-4.073 4.056.382.121.545-.084.725-.193 1.21-.745 2.491-1.375 3.619-2.251.1-.078.229-.106.312-.02.101.104.02.232-.071.3-.697.516-1.361 1.075-2.116 1.517-1.753 1.03-3.494 2.088-5.31 3.177 5.28.087 13.56-6.52 14.96-11.836zm52.9 6.447c-1.285-.418-2.502-.992-3.723-1.537-3.097-1.381-6.35-1.55-9.662-1.366a.262.262 0 00-.293.212c.982 0 1.959.001 2.934.021a15.19 15.19 0 013.058.329c.154.035.303.089.453.133.15.043.245.1.177.229a.337.337 0 01-.291.09c-2.316-.426-4.652-.313-6.984-.156-.24.016-.5-.017-.798.214 2.082.872 3.986 1.847 6.037 2.466 1.611.49 3.24.741 4.92.483a17.812 17.812 0 004.172-1.118zm-29.149-2.051c2.756-.862 4.982-2.358 6.117-5.148.372-.917.775-1.82 1.162-2.733a13.295 13.295 0 012.296-3.586c.227-.258.456-.513.763-.86-1.628.658-4.751 2.993-6.143 4.598-1.173 1.353-3.712 5.365-4.167 6.758.956-.95 1.802-1.793 2.65-2.633-.616 1.424-1.851 2.327-2.678 3.604zm14.043 8.432c-3.091-1.1-6.126-2.432-9.499-2.525.055.316.295.292.46.346a23.738 23.738 0 013.799 1.692c2.386 1.294 4.975 1.842 7.656 1.938a8.933 8.933 0 003.657-.653 18.525 18.525 0 01-4.29-1.764 65.173 65.173 0 00-2.006-1.043c-2.186-1.102-4.508-1.465-6.927-1.27-.294.024-.624-.03-.882.227 6.41 1.897 6.97 2.106 8.034 3.05l-.002.002zm-34.804.401c.361.15.732.29 1.086.454 1.012.449 2.022.904 3.029 1.363.177.086.512.236.43.336-.476.6.22.644.411.807a30.596 30.596 0 012.856 2.842c1.246 1.39 2.599 2.648 4.231 3.59a7.807 7.807 0 004.348 1.014 2.927 2.927 0 00-.856-.388 7.855 7.855 0 01-4.26-3.052c-.365-.517-.694-1.06-1.058-1.578-.706-1.004-1.417-2.01-2.441-2.723a16.315 16.315 0 00-5.108-2.456c-.865-.236-1.742-.407-2.668-.209z" fill="#235D37"/></g><defs><clipPath id="clip0"><path fill="#fff" transform="rotate(90 46.5 46.5)" d="M0 0h55v93H0z"/></clipPath></defs></svg>