<svg width="25" height="26" viewBox="0 0 25 26" fill="none" xmlns="http://www.w3.org/2000/svg">
<path d="M21.6667 13.5364C22.1268 13.5364 22.5 13.1633 22.5 12.7031C22.5 12.2429 22.1268 11.8698 21.6667 11.8698V13.5364ZM1.66667 11.8698C1.20643 11.8698 0.833334 12.2429 0.833334 12.7031C0.833334 13.1633 1.20643 13.5364 1.66667 13.5364V11.8698ZM21.6667 11.8698H1.66667V13.5364H21.6667V11.8698Z" fill="white"/>
<path d="M21.6667 12.7032L22.256 13.2924C22.5813 12.967 22.5813 12.4394 22.256 12.1139L21.6667 12.7032ZM16.4226 6.28059C16.0972 5.95514 15.5695 5.95514 15.2441 6.28059C14.9186 6.60602 14.9186 7.13365 15.2441 7.45909L16.4226 6.28059ZM15.2441 17.9472C14.9186 18.2727 14.9186 18.8003 15.2441 19.1258C15.5695 19.4512 16.0972 19.4512 16.4226 19.1258L15.2441 17.9472ZM22.256 12.1139L16.4226 6.28059L15.2441 7.45909L21.0773 13.2924L22.256 12.1139ZM21.0773 12.1139L15.2441 17.9472L16.4226 19.1258L22.256 13.2924L21.0773 12.1139Z" fill="white"/>
</svg>
