<svg width="25" height="26" viewBox="0 0 25 26" fill="none" xmlns="http://www.w3.org/2000/svg">
<path d="M3.33334 11.8698C2.87317 11.8698 2.5 12.2429 2.5 12.7032C2.5 13.1634 2.87317 13.5365 3.33334 13.5365L3.33334 11.8698ZM23.3333 13.5365C23.7936 13.5365 24.1667 13.1634 24.1667 12.7032C24.1667 12.2429 23.7936 11.8698 23.3333 11.8698L23.3333 13.5365ZM3.33334 13.5365L23.3333 13.5365L23.3333 11.8698L3.33334 11.8698L3.33334 13.5365Z" fill="white"/>
<path d="M3.33334 12.7031L2.744 12.1138C2.41867 12.4393 2.41867 12.9669 2.744 13.2923L3.33334 12.7031ZM8.57742 19.1257C8.90285 19.4511 9.43049 19.4511 9.75592 19.1257C10.0814 18.8002 10.0814 18.2726 9.75592 17.9472L8.57742 19.1257ZM9.75592 7.45908C10.0814 7.13358 10.0814 6.60591 9.75592 6.28041C9.43049 5.95508 8.90285 5.95508 8.57742 6.28041L9.75592 7.45908ZM2.744 13.2923L8.57742 19.1257L9.75592 17.9472L3.92267 12.1138L2.744 13.2923ZM3.92267 13.2923L9.75592 7.45908L8.57742 6.28041L2.744 12.1138L3.92267 13.2923Z" fill="white"/>
</svg>
