<svg width="39" height="39" viewBox="0 0 39 39" fill="none" xmlns="http://www.w3.org/2000/svg">
<path fill-rule="evenodd" clip-rule="evenodd" d="M14.5042 26.6336H23.2567C23.9164 26.6336 24.4634 26.0811 24.4634 25.4148C24.4634 24.7486 23.9164 24.2123 23.2567 24.2123H14.5042C13.8446 24.2123 13.2975 24.7486 13.2975 25.4148C13.2975 26.0811 13.8446 26.6336 14.5042 26.6336ZM19.9423 16.0873H14.5042C13.8446 16.0873 13.2975 16.6398 13.2975 17.3061C13.2975 17.9723 13.8446 18.5086 14.5042 18.5086H19.9423C20.602 18.5086 21.149 17.9723 21.149 17.3061C21.149 16.6398 20.602 16.0873 19.9423 16.0873ZM31.4244 14.6666C31.8025 14.6623 32.2143 14.6575 32.5885 14.6575C32.9907 14.6575 33.3125 14.9825 33.3125 15.3888V28.4538C33.3125 32.4838 30.0786 35.75 26.0885 35.75H13.2816C9.09839 35.75 5.6875 32.3212 5.6875 28.0963V10.5788C5.6875 6.54875 8.9375 3.25 12.9437 3.25H21.5353C21.9536 3.25 22.2754 3.59125 22.2754 3.9975V9.23C22.2754 12.2038 24.7048 14.6412 27.6491 14.6575C28.3369 14.6575 28.9432 14.6626 29.4737 14.6671C29.8865 14.6706 30.2535 14.6737 30.5774 14.6737C30.8064 14.6737 31.1033 14.6703 31.4244 14.6666ZM31.8679 12.2948C30.5454 12.2996 28.9864 12.2948 27.865 12.2834C26.0855 12.2834 24.6198 10.803 24.6198 9.00576V4.72226C24.6198 4.02189 25.4612 3.67414 25.9423 4.17951C26.813 5.09386 28.0094 6.35067 29.2004 7.60178C30.3886 8.8499 31.5713 10.0923 32.4198 10.9834C32.8896 11.4758 32.5453 12.2931 31.8679 12.2948Z" fill="url(#paint0_linear_76_49685)"/>
<defs>
<linearGradient id="paint0_linear_76_49685" x1="9.97876" y1="6.19498" x2="32.076" y2="27.8673" gradientUnits="userSpaceOnUse">
<stop stop-color="#0090EA"/>
<stop offset="1" stop-color="#801DE5"/>
</linearGradient>
</defs>
</svg>
