<svg width="19" height="11" viewBox="0 0 19 11" fill="none" xmlns="http://www.w3.org/2000/svg">
<path d="M10.3649 10.8333C4.38578 10.8333 0.975412 6.76677 0.833313 0H3.82832C3.92669 4.96663 6.13469 7.0704 7.88359 7.50417V0H10.7037V4.28345C12.4308 4.0991 14.2452 2.14715 14.8574 0H17.6775C17.4468 1.11357 16.987 2.16795 16.3269 3.09717C15.6667 4.0264 14.8204 4.81049 13.8408 5.4004C14.9342 5.93942 15.9 6.70235 16.6744 7.63885C17.4488 8.57535 18.0142 9.66413 18.3333 10.8333H15.229C14.9425 9.81779 14.3603 8.90872 13.5553 8.22004C12.7503 7.53137 11.7583 7.09372 10.7037 6.96196V10.8333H10.3649Z" fill="#020626"/>
</svg>
