<svg width="16" height="17" viewBox="0 0 16 17" fill="none" xmlns="http://www.w3.org/2000/svg">
<path d="M13.8665 9.03322C14.161 9.03322 14.3999 8.79444 14.3999 8.49989C14.3999 8.20534 14.161 7.96655 13.8665 7.96655V9.03322ZM1.06654 7.96655C0.771985 7.96655 0.533203 8.20534 0.533203 8.49989C0.533203 8.79444 0.771985 9.03322 1.06654 9.03322V7.96655ZM13.8665 7.96655H1.06654V9.03322H13.8665V7.96655Z" fill="#0081E5"/>
<path d="M13.8668 8.50007L14.2439 8.87719C14.4522 8.66891 14.4522 8.33123 14.2439 8.12295L13.8668 8.50007ZM10.5106 4.38961C10.3023 4.18133 9.96459 4.18133 9.75631 4.38961C9.54803 4.59789 9.54803 4.93558 9.75631 5.14385L10.5106 4.38961ZM9.75631 11.8562C9.54803 12.0645 9.54803 12.4023 9.75631 12.6106C9.96459 12.8188 10.3023 12.8188 10.5106 12.6106L9.75631 11.8562ZM14.2439 8.12295L10.5106 4.38961L9.75631 5.14385L13.4896 8.87719L14.2439 8.12295ZM13.4896 8.12295L9.75631 11.8562L10.5106 12.6106L14.2439 8.87719L13.4896 8.12295Z" fill="#0081E5"/>
</svg>
