<svg width="218" height="54" viewBox="0 0 218 54" fill="none" xmlns="http://www.w3.org/2000/svg">
<g clip-path="url(#clip0_76_38840)">
<path d="M20.528 53.0781C19.1606 53.1258 17.8885 52.6011 16.5846 52.2831C11.5759 51.0746 6.58302 49.8184 1.59017 48.6099C0.970039 48.4509 0.39761 48.2442 0.0159912 47.7035C0.0159912 34.6805 0.0159912 21.6415 0.0159912 8.6184C0.413511 8.04596 1.00184 7.74383 1.65377 7.48942C7.52117 5.13604 13.3727 2.78266 19.2242 0.429286C19.6376 0.254373 20.0669 0.0953612 20.528 0.190768C20.528 17.8252 20.528 35.4437 20.528 53.0781ZM14.6765 27.3023C14.6765 21.1644 14.6765 15.0107 14.6924 8.87282C14.6924 8.26857 14.6447 8.01415 13.9292 8.26857C11.0989 9.22265 8.25261 10.129 5.40636 11.0354C4.92934 11.1785 4.77033 11.3693 4.77033 11.8463C4.78623 22.5955 4.78623 33.3447 4.77033 44.094C4.77033 44.5869 4.91344 44.7618 5.42226 44.8572C8.23671 45.3343 11.0511 45.859 13.8497 46.3996C14.5334 46.5268 14.6924 46.336 14.6924 45.6523C14.6606 39.5303 14.6765 33.4243 14.6765 27.3023Z" fill="#3E7CBF"/>
<path d="M20.5278 53.0781C20.5278 35.4437 20.5278 17.8093 20.5278 0.190743C20.9254 0.127138 21.2593 0.302051 21.5932 0.429261C27.5401 2.81444 33.4711 5.18372 39.418 7.5689C40.5946 8.04593 40.7537 8.26855 40.7537 9.50884C40.7537 21.9277 40.7537 34.3465 40.7537 46.7653C40.7537 48.0533 40.6105 48.2441 39.3385 48.5463C33.3757 50.0251 27.4288 51.488 21.466 52.9668C21.1639 53.0463 20.8458 53.1258 20.5278 53.0781ZM26.1249 27.35C26.1249 33.4719 26.1408 39.578 26.109 45.7C26.109 46.4155 26.2998 46.5268 26.9518 46.3996C29.7503 45.859 32.5647 45.3342 35.3792 44.8731C35.9834 44.7777 36.0788 44.5392 36.0788 43.9985C36.0629 33.3288 36.0629 22.6591 36.0788 11.9894C36.0788 11.4011 35.9039 11.1626 35.3474 10.9877C32.5488 10.1131 29.7503 9.19082 26.9677 8.30035C26.1249 8.03003 26.1249 8.03003 26.1249 8.9205C26.1249 15.0584 26.1249 21.2121 26.1249 27.35Z" fill="#2D56A1"/>
<path d="M62.5219 23.8354C64.9389 23.8354 67.3399 23.8354 69.7568 23.8354C71.0607 23.8354 71.5854 24.3761 71.5854 25.6641C71.5854 30.4821 71.5854 35.3002 71.5854 40.1183C71.5854 41.3904 71.013 41.9469 69.7409 41.9469C64.9229 41.9469 60.105 41.9469 55.2871 41.9469C53.9514 41.9469 53.4108 41.4063 53.4108 40.0547C53.4108 35.2684 53.4108 30.4662 53.4108 25.68C53.4108 24.3443 53.9355 23.8354 55.303 23.8354C57.704 23.8354 60.105 23.8354 62.5219 23.8354ZM56.3047 32.9945C56.3047 34.9027 56.3206 36.7949 56.3047 38.7031C56.3047 39.1006 56.3524 39.3391 56.8453 39.3232C58.0538 39.2914 59.2782 39.3073 60.5025 39.3232C60.9159 39.3232 61.0432 39.1801 61.0432 38.7667C61.0273 34.9345 61.0273 31.1023 61.0432 27.2701C61.0432 26.8408 60.8841 26.7295 60.4866 26.7295C59.2941 26.7454 58.1015 26.7613 56.9089 26.7295C56.416 26.7136 56.2888 26.8885 56.2888 27.3655C56.3206 29.2419 56.3047 31.1182 56.3047 32.9945ZM68.6755 32.9786C68.6755 31.1023 68.6596 29.226 68.6755 27.3496C68.6755 26.9362 68.6278 26.7136 68.119 26.7295C66.9105 26.7613 65.6862 26.7613 64.4618 26.7295C64.0484 26.7295 63.9212 26.8567 63.9212 27.2701C63.9371 31.1023 63.9371 34.9345 63.9212 38.7667C63.9212 39.1801 64.0643 39.3073 64.4618 39.3073C65.6544 39.2914 66.8469 39.2755 68.0395 39.3073C68.5165 39.3232 68.6755 39.1642 68.6755 38.6713C68.6596 36.7949 68.6755 34.8868 68.6755 32.9786Z" fill="#C9CBDF"/>
<path d="M144.268 23.8354C146.701 23.8354 149.15 23.8354 151.582 23.8354C152.854 23.8354 153.411 24.392 153.411 25.68C153.411 30.4662 153.411 35.2684 153.411 40.0547C153.411 41.3586 152.839 41.9469 151.519 41.9469C146.701 41.9469 141.883 41.9469 137.049 41.9469C135.745 41.9469 135.173 41.3586 135.173 40.0388C135.173 35.2684 135.173 30.514 135.173 25.7436C135.173 24.3602 135.713 23.8354 137.113 23.8354C139.514 23.8354 141.899 23.8354 144.268 23.8354ZM138.146 32.915C138.146 34.7437 138.162 36.5723 138.13 38.385C138.114 38.9098 138.289 39.0529 138.798 39.0529C142.471 39.037 146.16 39.037 149.833 39.0529C150.31 39.0529 150.469 38.9098 150.469 38.4168C150.453 34.7119 150.453 31.0069 150.469 27.3019C150.469 26.8408 150.326 26.7136 149.881 26.7136C146.176 26.7295 142.471 26.7295 138.766 26.7136C138.273 26.7136 138.13 26.8567 138.13 27.3337C138.162 29.2101 138.146 31.0546 138.146 32.915Z" fill="#C9CBDF"/>
<path d="M74.5587 33.3126C74.5587 30.7684 74.5587 28.2242 74.5587 25.6959C74.5587 24.3443 75.0834 23.8354 76.435 23.8354C81.2529 23.8354 86.0709 23.8354 90.8888 23.8354C92.2086 23.8354 92.7333 24.3602 92.7333 25.6482C92.7333 30.832 92.7333 36.0317 92.7492 41.2155C92.7492 41.8038 92.622 42.0423 92.0019 41.9628C91.3022 41.8833 90.3959 42.249 89.9507 41.8038C89.5372 41.3904 89.8393 40.4999 89.8393 39.8161C89.8234 38.226 89.8075 36.6359 89.8393 35.0458C89.8552 34.5051 89.728 34.3143 89.1556 34.3302C85.4666 34.362 81.7935 34.362 78.1046 34.3302C77.5798 34.3302 77.4367 34.4733 77.4367 34.9981C77.4685 37.0811 77.4367 39.1801 77.4685 41.2791C77.4844 41.8356 77.3254 42.0423 76.753 41.9787C76.0534 41.8992 75.1311 42.2649 74.6859 41.8356C74.2407 41.4063 74.5587 40.484 74.5428 39.7684C74.5428 37.6059 74.5587 35.4592 74.5587 33.3126ZM83.6539 31.3885C85.4984 31.3885 87.3588 31.3726 89.2033 31.4044C89.6803 31.4044 89.8552 31.2931 89.8393 30.7843C89.8075 29.6553 89.8075 28.5104 89.8393 27.3814C89.8552 26.9203 89.7598 26.7295 89.2351 26.7295C85.5143 26.7454 81.7776 26.7454 78.0569 26.7295C77.5321 26.7295 77.4526 26.9203 77.4526 27.3814C77.4844 28.4945 77.5003 29.6076 77.4526 30.7048C77.4367 31.2931 77.6593 31.4044 78.1841 31.3885C79.9968 31.3726 81.8253 31.3885 83.6539 31.3885Z" fill="#C9CBDF"/>
<path d="M208.777 23.8354C211.194 23.8354 213.595 23.8354 216.012 23.8354C217.332 23.8354 217.857 24.3443 217.873 25.6482C217.889 27.1906 217.857 28.7171 217.889 30.2595C217.904 30.7843 217.73 30.9751 217.221 30.9274C216.06 30.9115 215.026 30.9751 214.979 29.5122C214.963 28.7648 214.947 28.0334 214.979 27.286C214.995 26.8726 214.851 26.7454 214.438 26.7454C210.67 26.7613 206.917 26.7613 203.148 26.7454C202.735 26.7454 202.592 26.8726 202.592 27.286C202.608 31.0228 202.608 34.7596 202.592 38.4804C202.592 38.9416 202.767 39.0688 203.196 39.0688C206.933 39.0529 210.67 39.0529 214.406 39.0688C214.867 39.0688 214.995 38.9257 214.979 38.4804C214.947 37.7331 214.963 37.0016 214.979 36.2543C214.995 35.3002 215.456 34.855 216.394 34.8073C217.889 34.7278 217.889 34.7278 217.889 36.2066C217.889 37.5264 217.904 38.8462 217.889 40.1819C217.873 41.3745 217.316 41.9628 216.155 41.9628C211.258 41.9787 206.36 41.9787 201.447 41.9628C200.286 41.9628 199.698 41.3586 199.698 40.1819C199.698 35.3161 199.698 30.4344 199.698 25.5687C199.698 24.4238 200.27 23.8514 201.399 23.8514C203.848 23.8355 206.313 23.8354 208.777 23.8354Z" fill="#C9CBDF"/>
<path d="M156.321 33.4239C156.321 30.8797 156.321 28.3355 156.321 25.7913C156.321 24.3602 156.861 23.8354 158.292 23.8354C163.063 23.8354 167.833 23.8354 172.603 23.8354C173.971 23.8354 174.527 24.392 174.527 25.7595C174.527 27.9539 174.527 30.1482 174.527 32.3585C174.527 33.7578 173.955 34.3302 172.54 34.3302C168.374 34.3302 164.223 34.3461 160.057 34.3143C159.453 34.3143 159.246 34.4415 159.262 35.0935C159.31 37.1606 159.262 39.2278 159.294 41.295C159.294 41.8038 159.167 42.0105 158.626 41.9628C157.895 41.8992 156.941 42.249 156.48 41.8356C155.987 41.3904 156.337 40.4363 156.321 39.7048C156.305 37.6059 156.321 35.5069 156.321 33.4239ZM165.4 31.3885C167.26 31.3885 169.105 31.3726 170.965 31.4044C171.458 31.4044 171.601 31.2613 171.585 30.7843C171.554 29.6394 171.57 28.5104 171.585 27.3655C171.585 26.9521 171.522 26.7454 171.029 26.7454C167.292 26.7613 163.556 26.7613 159.819 26.7454C159.405 26.7454 159.262 26.8885 159.278 27.286C159.294 28.4468 159.31 29.6235 159.278 30.7843C159.262 31.2931 159.453 31.4044 159.914 31.3885C161.743 31.3726 163.571 31.3885 165.4 31.3885Z" fill="#C9CBDF"/>
<path d="M113.5 23.8357C110.701 26.7298 107.966 29.4966 105.136 32.327C104.707 32.7563 104.738 32.963 105.152 33.3765C107.982 36.2387 110.781 39.0055 113.563 41.9313C112.164 41.9313 110.908 41.9313 109.652 41.9313C109.35 41.9313 109.207 41.661 109.032 41.4702C106.853 39.2599 104.675 37.0655 102.512 34.8394C102.147 34.4736 101.797 34.2828 101.272 34.3146C100.588 34.3623 99.8887 34.3623 99.205 34.3146C98.6962 34.2828 98.5849 34.4577 98.5849 34.9507C98.6167 37.0178 98.5848 39.085 98.6008 41.1521C98.6167 41.7405 98.5053 42.0426 97.8375 41.9631C97.1538 41.8836 96.2633 42.2334 95.834 41.8359C95.357 41.3907 95.675 40.4843 95.675 39.7846C95.6591 35.1574 95.6591 30.5143 95.675 25.887C95.675 24.1379 96.5336 23.4859 98.2827 23.8357C98.7121 23.9312 98.5849 24.2174 98.5849 24.44C98.6008 26.5071 98.6167 28.5743 98.569 30.6415C98.5531 31.2934 98.7916 31.357 99.3799 31.4365C101.208 31.675 102.56 31.0867 103.769 29.6397C105.359 27.7633 107.203 26.1096 108.904 24.3287C109.254 23.9789 109.588 23.8357 110.081 23.8357C111.162 23.8516 112.228 23.8357 113.5 23.8357Z" fill="#C9CBDF"/>
<path d="M124.535 23.8357C127.159 23.8357 129.782 23.8516 132.406 23.8198C132.978 23.8198 133.169 23.9788 133.09 24.5354C133.042 24.8534 133.106 25.1714 133.074 25.4894C133.01 26.3322 132.597 26.7297 131.754 26.7456C129.925 26.7615 128.097 26.7774 126.268 26.7297C125.616 26.7138 125.425 26.8888 125.425 27.5566C125.457 32.0884 125.425 36.6203 125.457 41.1362C125.457 41.7882 125.314 42.0426 124.63 41.9631C123.947 41.8836 123.072 42.2334 122.627 41.8359C122.182 41.4224 122.484 40.532 122.484 39.8482C122.468 35.7457 122.468 31.6432 122.484 27.5407C122.484 26.9365 122.357 26.7138 121.705 26.7297C119.669 26.7774 117.618 26.7297 115.583 26.7615C115.01 26.7774 114.804 26.6661 114.804 26.0301C114.836 24.3128 115.265 23.8516 116.966 23.8357C119.494 23.8357 122.007 23.8357 124.535 23.8357Z" fill="#C9CBDF"/>
<path d="M188.806 23.8201C191.43 23.8201 194.053 23.836 196.677 23.8042C197.17 23.8042 197.424 23.8996 197.361 24.4561C197.329 24.7424 197.361 25.0445 197.345 25.3307C197.313 26.3325 196.931 26.73 195.93 26.73C194.133 26.7459 192.32 26.7618 190.523 26.7141C189.871 26.6982 189.681 26.8731 189.681 27.541C189.712 32.0728 189.681 36.5888 189.712 41.1206C189.712 41.7566 189.601 42.0429 188.901 41.9634C188.424 41.8998 187.947 41.9157 187.47 41.9634C186.898 42.027 186.771 41.7884 186.771 41.2478C186.787 36.7001 186.771 32.1364 186.803 27.5887C186.803 26.889 186.628 26.6982 185.928 26.7141C183.909 26.7618 181.905 26.7141 179.886 26.7459C179.313 26.7618 179.107 26.6346 179.122 26.0145C179.154 24.2494 179.536 23.8201 181.333 23.8201C183.829 23.8201 186.325 23.8201 188.806 23.8201Z" fill="#C9CBDF"/>
<path d="M182.048 32.9314C182.048 34.4102 182.048 34.4102 180.585 34.3307C179.584 34.283 179.17 33.8218 179.138 32.7565C179.107 31.373 179.107 31.373 180.49 31.373C182.048 31.3889 182.048 31.3889 182.048 32.9314Z" fill="#C9CBDF"/>
</g>
<defs>
<clipPath id="clip0_76_38840">
<rect width="218" height="53.269" fill="white"/>
</clipPath>
</defs>
</svg>
