<svg width="56" height="56" viewBox="0 0 56 56" fill="none" xmlns="http://www.w3.org/2000/svg">
<g clip-path="url(#clip0_64_6274)">
<path d="M49.9714 0H28.719C28.284 0 27.8666 0.173034 27.559 0.48065L1.76239 26.2764C-0.587462 28.6271 -0.587462 32.4514 1.76239 34.8012L21.1982 54.2366C22.3329 55.3714 23.8467 55.9964 25.4599 55.9968H25.4604C27.0741 55.9968 28.5878 55.3714 29.723 54.2362L55.5188 28.44C55.8264 28.1324 55.9994 27.7149 55.9994 27.28L55.9998 6.02757C55.9994 2.70403 53.2949 0 49.9714 0ZM52.7182 26.6007L27.4026 51.9162C26.8874 52.4319 26.1974 52.7156 25.4604 52.7156C24.7229 52.7156 24.0334 52.4319 23.5181 51.9167L4.08232 32.4813C3.01165 31.4106 3.01165 29.6675 4.08232 28.5964L29.3983 3.28124H49.9714C51.486 3.28124 52.7186 4.51341 52.7186 6.028L52.7182 26.6007Z" fill="#ED2224"/>
<path d="M41.5389 9.30542C40.1619 9.30542 38.8674 9.84204 37.8937 10.8157C36.92 11.789 36.3838 13.0835 36.3838 14.4606C36.3838 15.8376 36.92 17.1321 37.8937 18.1058C38.8674 19.0795 40.1619 19.6157 41.5389 19.6157C42.9155 19.6157 44.2101 19.0795 45.1838 18.1058C46.1574 17.1321 46.6936 15.8376 46.6936 14.4606C46.6936 13.0835 46.1574 11.789 45.1842 10.8157C44.2105 9.84204 42.9159 9.30542 41.5389 9.30542ZM42.8638 15.7854C42.5101 16.1396 42.0392 16.3345 41.5389 16.3345C41.0382 16.3345 40.5678 16.1396 40.214 15.7854C39.8599 15.4317 39.665 14.9609 39.665 14.4606C39.665 13.9603 39.8599 13.4894 40.214 13.1357C40.5678 12.7815 41.0386 12.5867 41.5389 12.5867C42.0392 12.5867 42.5096 12.7815 42.8638 13.1357C43.218 13.4894 43.4128 13.9603 43.4128 14.4606C43.4128 14.9609 43.2176 15.4317 42.8638 15.7854Z" fill="#ED2224"/>
</g>
<defs>
<clipPath id="clip0_64_6274">
<rect width="56" height="56" fill="white"/>
</clipPath>
</defs>
</svg>
