<svg width="56" height="56" viewBox="0 0 56 56" fill="none" xmlns="http://www.w3.org/2000/svg">
<path d="M38.9375 37.1875H34.0156V35.6531C35.3511 34.9227 36.5403 33.9572 37.5273 32.8125H41.125C44.442 32.8125 47.1406 30.1139 47.1406 26.7969V21.3281C47.1406 19.1895 45.7687 17.3672 43.8594 16.6902V15.8594C43.8594 7.11452 36.7449 0 28 0C19.2551 0 12.1406 7.11452 12.1406 15.8594V16.6884C10.231 17.3657 8.85938 19.1893 8.85938 21.3281C8.85938 24.042 11.0673 26.25 13.7812 26.25H15.5288C16.06 30.3095 18.5341 33.7661 21.9844 35.6531V37.1875H17.0625C9.52383 37.1875 3.39062 43.3207 3.39062 50.8594V54.3594C3.39062 55.2654 4.12519 56 5.03125 56H50.9688C51.8748 56 52.6094 55.2654 52.6094 54.3594V50.8594C52.6094 43.3207 46.4762 37.1875 38.9375 37.1875ZM43.8594 26.7969C43.8594 28.3046 42.6327 29.5312 41.125 29.5312H39.5747C40.0147 28.5004 40.3208 27.3994 40.4712 26.25H43.8594V26.7969ZM43.8594 21.3281V22.9688H40.5781V19.6875H42.2188C43.1234 19.6875 43.8594 20.4235 43.8594 21.3281ZM15.4219 22.9688H13.7812C12.8766 22.9688 12.1406 22.2328 12.1406 21.3281C12.1406 20.4235 12.8766 19.6875 13.7812 19.6875H15.4219V22.9688ZM15.4219 16.4062V15.8594C15.4219 8.9238 21.0644 3.28125 28 3.28125C34.9356 3.28125 40.5781 8.9238 40.5781 15.8594V16.4062H39.513L34.4936 12.3908C33.8407 11.8685 32.8998 11.9207 32.3086 12.5117C29.7974 15.0231 26.4583 16.4062 22.9066 16.4062H15.4219ZM18.7031 24.6094V19.6875H22.9066C26.8391 19.6875 30.5628 18.3273 33.5401 15.8298L37.2969 18.8354V24.6094C37.2969 26.416 36.7771 28.1027 35.8818 29.5312H29.0938C28.1877 29.5312 27.4531 30.2658 27.4531 31.1719C27.4531 32.0779 28.1877 32.8125 29.0938 32.8125H32.3693C31.0659 33.5095 29.5786 33.9062 28 33.9062C22.8737 33.9062 18.7031 29.7357 18.7031 24.6094ZM30.7344 36.8873V38.8281C30.7344 40.3359 29.5077 41.5625 28 41.5625C26.4923 41.5625 25.2656 40.3359 25.2656 38.8281V36.8873C26.1463 37.0833 27.0611 37.1875 28 37.1875C28.9389 37.1875 29.8537 37.0833 30.7344 36.8873ZM49.3281 52.7188H6.67188V50.8594C6.67188 45.13 11.3331 40.4688 17.0625 40.4688H22.2136C22.9297 42.9906 25.2517 44.8438 28 44.8438C30.7483 44.8438 33.0702 42.9906 33.7864 40.4688H38.9375C44.6669 40.4688 49.3281 45.13 49.3281 50.8594V52.7188Z" fill="#ED2224"/>
</svg>
