<svg width="57" height="57" viewBox="0 0 57 57" fill="none" xmlns="http://www.w3.org/2000/svg">
<g clip-path="url(#clip0_1_310)">
<path fill-rule="evenodd" clip-rule="evenodd" d="M13.375 0.577148H22.4531C23.6879 0.577148 24.5449 1.92383 23.8396 3.0949L22.1532 6.04589L23.8759 9.0601C24.5061 10.1624 23.6951 11.5146 22.4531 11.5133L15.0157 11.5146V19.9365H54.6093C55.5151 19.9365 56.25 20.6709 56.25 21.5771V54.9356C56.25 55.8418 55.5151 56.5762 54.6093 56.5762H44.1085C43.2023 56.5762 42.4679 55.8418 42.4679 54.9356C42.4679 54.0298 43.2023 53.2949 44.1085 53.2949H52.9687V23.2177C39.772 23.2177 26.5697 23.2177 13.375 23.2177C12.4688 23.2177 11.7344 22.4833 11.7344 21.5771V2.21777C11.7344 1.31158 12.4688 0.577148 13.375 0.577148ZM30.769 46.312C32.8916 46.312 34.7531 47.61 35.5264 49.5164H35.9062V43.7627C35.9062 43.2205 35.4602 42.7745 34.9176 42.7745H25.4695C24.5637 42.7745 23.8289 42.04 23.8289 41.1338V34.1479H3.5313V49.5164H4.23968C5.99437 45.1922 12.06 45.3388 13.7549 49.5164H26.0112C26.785 47.61 28.6461 46.312 30.769 46.312ZM35.7208 52.7976H37.5469C38.4526 52.7976 39.1875 52.0632 39.1875 51.157V43.7627C39.1875 41.5098 37.4281 39.6474 35.1979 39.5022L32.895 35.6382C31.0929 32.6137 28.0193 30.8667 24.5043 30.8667C24.5043 30.8774 3.77825 30.8667 1.89068 30.8667C0.984496 30.8667 0.250061 31.6016 0.250061 32.5073V51.157C0.250061 52.0632 0.984496 52.7976 1.89068 52.7976H4.04528C4.28326 53.6709 4.74639 54.4515 5.36846 55.0736C8.16521 57.8703 12.9213 56.5676 13.9493 52.7976H25.8168C26.0548 53.6709 26.518 54.4515 27.14 55.0736C29.9368 57.8703 34.6929 56.5676 35.7208 52.7976ZM32.0777 50.1355C30.9156 48.9729 28.9178 49.7996 28.9178 51.4445C28.9178 53.0894 30.9156 53.9162 32.0777 52.7536C32.8006 52.0307 32.8006 50.8584 32.0777 50.1355ZM27.1105 34.6598V39.4932H31.3851C30.1577 37.4339 29.3673 35.6181 27.1105 34.6598ZM10.3061 50.1355C11.029 50.8584 11.029 52.0307 10.3061 52.7536C9.14403 53.9162 7.14623 53.0894 7.14623 51.4445C7.14623 49.7996 9.14403 48.9729 10.3061 50.1355ZM19.6278 3.85839H15.0157V8.23338H19.6278C18.2802 5.87456 18.2696 6.23516 19.6278 3.85839Z" fill="#ED2224"/>
</g>
<defs>
<clipPath id="clip0_1_310">
<rect width="56" height="56" fill="white" transform="translate(0.25 0.577148)"/>
</clipPath>
</defs>
</svg>
