<svg width="56" height="56" viewBox="0 0 56 56" fill="none" xmlns="http://www.w3.org/2000/svg">
<g clip-path="url(#clip0_64_6249)">
<path d="M55.8131 36.1778C55.5279 34.5901 54.4817 33.2418 53.0145 32.5712C51.1546 31.721 48.9325 32.1223 47.4854 33.5698L40.3944 40.6613C40.1253 40.9304 39.8231 41.1545 39.497 41.3296C39.5918 40.945 39.6406 40.546 39.6406 40.1393C39.6406 38.8248 39.1287 37.5892 38.1994 36.6599C37.27 35.7303 36.0343 35.2184 34.7197 35.2185L29.7002 35.2188C25.6338 32.8838 20.8045 32.5493 16.5157 34.2194V32.4844C16.5157 31.5783 15.7812 30.8438 14.8751 30.8438H1.75C0.843937 30.8438 0.109375 31.5783 0.109375 32.4844V54.3594C0.109375 55.2654 0.843937 56 1.75 56H14.8752C15.7813 56 16.5158 55.2654 16.5158 54.3594V52.0823C20.4806 53.0397 24.5621 53.5206 28.6443 53.5206C32.4307 53.5205 36.2172 53.108 39.909 52.2819C42.2358 51.7612 44.3579 50.5959 46.0458 48.9118L54.4449 40.5328C55.5868 39.3935 56.0983 37.7653 55.8131 36.1778ZM13.2346 52.7188H3.39062V34.125H13.2345L13.2346 52.7188ZM52.1274 38.2099L43.7283 46.5889C42.4807 47.8336 40.9123 48.6951 39.1925 49.0798C31.8839 50.7151 24.1808 50.6195 16.9156 48.8033L16.5158 48.7034V37.8164C20.2701 35.8692 24.7517 36.0177 28.3899 38.2565C28.6485 38.4157 28.9461 38.5 29.2497 38.5L34.7199 38.4998C35.1578 38.4998 35.5695 38.6703 35.8792 38.9799C36.1888 39.2896 36.3593 39.7014 36.3593 40.1415C36.3593 40.5802 36.1885 40.9925 35.8782 41.3027C35.5882 41.5926 35.2088 41.7607 34.8022 41.7812H27.0622C26.1562 41.7812 25.4217 42.5157 25.4216 43.4217C25.4215 44.3276 26.1557 45.0623 27.0618 45.0625H37.6888C39.5878 45.0625 41.3727 44.3233 42.7147 42.9814L49.8058 35.8898C50.2889 35.4063 51.0302 35.2721 51.6504 35.5555C52.1468 35.7824 52.487 36.2206 52.5833 36.7579C52.68 37.2951 52.5137 37.8244 52.1274 38.2099Z" fill="#ED2224"/>
<path d="M28.0007 20.7812C31.3177 20.7812 34.0164 18.0826 34.0164 14.7656C34.0164 11.4486 31.3177 8.75 28.0007 8.75C24.6837 8.75 21.9851 11.4486 21.9851 14.7656C21.9851 18.0826 24.6837 20.7812 28.0007 20.7812ZM28.0007 12.0312C29.5085 12.0312 30.7351 13.2579 30.7351 14.7656C30.7351 16.2734 29.5085 17.5 28.0007 17.5C26.493 17.5 25.2664 16.2734 25.2664 14.7656C25.2664 13.2579 26.493 12.0312 28.0007 12.0312Z" fill="#ED2224"/>
<path d="M13.5726 19.3069L16.8539 24.9901C17.3069 25.7749 18.3102 26.044 19.0949 25.5906L20.4461 24.8105C21.2652 25.4318 22.1454 25.9435 23.0788 26.3419V27.8906C23.0788 28.7967 23.8134 29.5312 24.7194 29.5312H31.2819C32.188 29.5312 32.9226 28.7967 32.9226 27.8906V26.3419C33.856 25.9435 34.7361 25.4318 35.5553 24.8105L36.9064 25.5906C37.6911 26.0436 38.6945 25.7748 39.1475 24.9901L42.4288 19.3069C42.6463 18.9301 42.7053 18.4822 42.5927 18.062C42.4801 17.6416 42.2051 17.2833 41.8283 17.0658L40.4829 16.289C40.5467 15.778 40.5788 15.2688 40.5788 14.7656C40.5788 14.2625 40.5467 13.7533 40.4829 13.2422L41.8283 12.4655C42.2051 12.2479 42.4801 11.8895 42.5927 11.4693C42.7053 11.0491 42.6463 10.6012 42.4288 10.2244L39.1475 4.54114C38.6944 3.75627 37.6909 3.48775 36.9066 3.94056L35.5553 4.72062C34.7362 4.09948 33.8561 3.58761 32.9227 3.18937V1.64062C32.9227 0.734562 32.1881 0 31.2821 0H24.7196C23.8135 0 23.0789 0.734562 23.0789 1.64062V3.18937C22.1455 3.58761 21.2654 4.09948 20.4462 4.72062L19.0951 3.94056C18.3104 3.48764 17.3069 3.75648 16.854 4.54114L13.5727 10.2244C13.1197 11.009 13.3885 12.0124 14.1732 12.4655L15.5185 13.2422C15.4547 13.7533 15.4226 14.2625 15.4226 14.7656C15.4226 15.2688 15.4547 15.778 15.5185 16.289L14.1732 17.0658C13.3884 17.5188 13.1196 18.5222 13.5726 19.3069ZM18.9304 16.7835C18.7801 16.1043 18.7038 15.4254 18.7038 14.7656C18.7038 14.1059 18.7801 13.427 18.9304 12.7478C19.0853 12.0487 18.7689 11.3302 18.149 10.9723L17.2346 10.4443L18.8752 7.60277L19.7964 8.13444C20.417 8.49253 21.198 8.40689 21.7257 7.92247C22.7508 6.98206 23.9233 6.30022 25.211 5.89575C25.8947 5.68094 26.36 5.04722 26.36 4.33048V3.28125H29.6412V4.33048C29.6412 5.04722 30.1064 5.68094 30.7902 5.89575C32.0778 6.30022 33.2504 6.98217 34.2754 7.92247C34.8034 8.40689 35.5844 8.49242 36.2048 8.13444L37.1262 7.60255L38.7668 10.4442L37.8523 10.9722C37.2323 11.33 36.916 12.0489 37.0708 12.7478C37.2212 13.4269 37.2975 14.1058 37.2975 14.7655C37.2975 15.4253 37.2212 16.1042 37.0708 16.7833C36.916 17.4823 37.2323 18.201 37.8523 18.5589L38.7668 19.0868L37.1262 21.9284L36.2049 21.3966C35.5843 21.0385 34.8033 21.1243 34.2754 21.6086C33.2505 22.549 32.0779 23.2309 30.7902 23.6354C30.1064 23.8502 29.6412 24.4839 29.6412 25.2007V26.25H26.36V25.2008C26.36 24.484 25.8948 23.8503 25.2111 23.6355C23.9234 23.231 22.7507 22.549 21.7259 21.6087C21.1979 21.1244 20.4169 21.0385 19.7964 21.3967L18.8752 21.9285L17.2346 19.0869L18.149 18.559C18.7689 18.2011 19.0852 17.4825 18.9304 16.7835Z" fill="#ED2224"/>
</g>
<defs>
<clipPath id="clip0_64_6249">
<rect width="56" height="56" fill="white"/>
</clipPath>
</defs>
</svg>
