<svg width="56" height="56" viewBox="0 0 56 56" fill="none" xmlns="http://www.w3.org/2000/svg">
<g clip-path="url(#clip0_64_6247)">
<path d="M54.7505 21.4848L49.608 20.2225C49.3651 19.5563 49.0852 18.8893 48.7702 18.2269L51.4486 13.7628C51.8359 13.1172 51.7342 12.2909 51.2018 11.7586L44.2412 4.79795C43.709 4.26562 42.8825 4.16391 42.237 4.5512L37.773 7.22969C37.1105 6.91469 36.4436 6.63469 35.7773 6.39177L34.5151 1.2495C34.3351 0.515922 33.6773 0 32.9219 0H23.0781C22.3227 0 21.6649 0.515922 21.4849 1.2495L20.2227 6.39177C19.5564 6.63469 18.8895 6.91469 18.227 7.22969L13.763 4.5512C13.1176 4.16391 12.2911 4.26562 11.7588 4.79795L4.79817 11.7586C4.26584 12.2909 4.16412 13.1172 4.55142 13.7628L7.2298 18.2269C6.9148 18.8893 6.63491 19.5563 6.39198 20.2225L1.2495 21.4848C0.515922 21.6649 0 22.3227 0 23.0781V32.9219C0 33.6773 0.515922 34.3351 1.2495 34.5153L6.39198 35.7775C6.63491 36.4438 6.9148 37.1107 7.2298 37.7731L4.55142 42.2372C4.16412 42.8828 4.26584 43.7091 4.79817 44.2414L11.7588 51.202C12.2911 51.7344 13.1175 51.8361 13.763 51.4488L18.227 48.7703C18.8895 49.0853 19.5564 49.3653 20.2227 49.6082L21.4849 54.7505C21.6695 55.4999 22.3452 56 23.0781 56H32.9219C33.6724 56 34.3348 55.4827 34.5151 54.7505L35.7773 49.6082C36.4436 49.3653 37.1105 49.0853 37.773 48.7703L42.237 51.4488C42.8824 51.8362 43.7089 51.7345 44.2412 51.202L51.2018 44.2414C51.7342 43.7091 51.8359 42.8828 51.4486 42.2372L48.7702 37.7731C49.0852 37.1107 49.3651 36.4438 49.608 35.7775L54.7505 34.5153C55.4841 34.3351 56 33.6773 56 32.9219V23.0781C56 22.3227 55.4841 21.6649 54.7505 21.4848ZM22.1681 29.3651L27.09 32.6464C27.6411 33.0137 28.359 33.0137 28.9101 32.6464L33.832 29.3651C34.2884 29.0608 34.5626 28.5486 34.5626 28V18.5733C37.6142 20.6903 39.4845 24.1731 39.4845 28C39.4845 34.3325 34.3326 39.4844 28.0001 39.4844C21.6676 39.4844 16.5157 34.3325 16.5157 28C16.5157 24.1732 18.386 20.6903 21.4376 18.5733V28C21.4375 28.5485 21.7117 29.0608 22.1681 29.3651ZM28 42.7656C29.1274 42.7656 30.2256 42.6381 31.2812 42.3976V52.7188H24.7188V42.3976C25.7744 42.6381 26.8726 42.7656 28 42.7656ZM52.7188 31.6353L47.9535 32.805C47.3971 32.9416 46.9523 33.3585 46.78 33.9049C46.4473 34.9601 45.9988 36.0302 45.447 37.0853C45.182 37.5919 45.1999 38.1997 45.494 38.6898L47.9761 42.8269L42.8271 47.9759L38.6901 45.4937C38.1998 45.1995 37.5918 45.1819 37.0856 45.4467C36.249 45.8843 35.4032 46.2557 34.5627 46.557V41.2243C39.4204 38.804 42.7658 33.7856 42.7658 27.9999C42.7658 25.0065 41.8709 22.1216 40.178 19.6573C38.5266 17.2535 36.2309 15.4051 33.5393 14.3124C33.0335 14.1071 32.4587 14.1667 32.0059 14.4716C31.5529 14.7765 31.2815 15.2867 31.2815 15.8326V27.1219L28.0002 29.3094L24.719 27.1219V15.8326C24.719 15.2867 24.4475 14.7766 23.9946 14.4716C23.5419 14.1667 22.9669 14.1071 22.4611 14.3124C19.7695 15.4051 17.4738 17.2535 15.8224 19.6573C14.1293 22.1217 13.2344 25.0066 13.2344 28C13.2344 33.7857 16.5798 38.8041 21.4375 41.2244V46.5571C20.5971 46.2558 19.7513 45.8843 18.9147 45.4468C18.4081 45.182 17.8003 45.1997 17.3101 45.4938L13.1731 47.976L8.02408 42.827L10.5062 38.6899C10.8002 38.1998 10.8182 37.5919 10.5533 37.0855C10.0014 36.0303 9.55292 34.9602 9.2202 33.905C9.04794 33.3586 8.603 32.9416 8.04672 32.8051L3.28125 31.6353V24.3648L8.0465 23.1952C8.60289 23.0585 9.04772 22.6416 9.21998 22.0952C9.5527 21.04 10.0013 19.9699 10.553 18.9148C10.818 18.4082 10.8001 17.8005 10.506 17.3103L8.02386 13.1732L13.1729 8.02419L17.3099 10.5065C17.8002 10.8007 18.4083 10.8182 18.9144 10.5534C19.9696 10.0015 21.0397 9.55303 22.0948 9.22031C22.6413 9.04805 23.0583 8.60311 23.1949 8.04672L24.3648 3.28125H31.6353L32.805 8.0465C32.9416 8.603 33.3586 9.04783 33.905 9.22009C34.9602 9.55281 36.0303 10.0013 37.0855 10.5532C37.5919 10.818 38.1998 10.8003 38.69 10.5062L42.827 8.02397L47.976 13.173L45.4939 17.3101C45.1999 17.8002 45.1819 18.4081 45.4468 18.9145C45.9988 19.9697 46.4472 21.0398 46.7799 22.095C46.9522 22.6414 47.3971 23.0584 47.9534 23.1949L52.7188 24.3647V31.6353Z" fill="#ED2224"/>
</g>
<defs>
<clipPath id="clip0_64_6247">
<rect width="56" height="56" fill="white"/>
</clipPath>
</defs>
</svg>
