<svg width="57" height="57" viewBox="0 0 57 57" fill="none" xmlns="http://www.w3.org/2000/svg">
<g clip-path="url(#clip0_1_304)">
<path fill-rule="evenodd" clip-rule="evenodd" d="M17.5625 41.7021H2.14062C1.23444 41.7021 0.5 40.9677 0.5 40.0615V2.21777C0.5 1.31158 1.23444 0.577148 2.14062 0.577148H39.9844C40.8906 0.577148 41.625 1.31158 41.625 2.21777V23.1084H47.4219V21.5771C47.4219 20.671 48.1563 19.9365 49.0625 19.9365C49.9683 19.9365 50.7031 20.671 50.7031 21.5771V23.1084H54.8594C55.7651 23.1084 56.5 23.8428 56.5 24.749V54.9365C56.5 55.8427 55.7651 56.5771 54.8594 56.5771H19.2031C18.2969 56.5771 17.5625 55.8427 17.5625 54.9365V41.7021ZM23.3594 23.1084V21.5771C23.3594 20.671 24.0938 19.9365 25 19.9365C25.9062 19.9365 26.6406 20.671 26.6406 21.5771V23.1084H38.3438V3.8584H28.9059V13.0527C28.9059 14.2315 27.6489 15.139 26.4202 14.4592L21.0625 11.7466L15.5967 14.5139C14.4957 15.0702 13.2221 14.246 13.223 13.0527H13.2191V3.8584H3.78125V38.4209H17.5625V24.749C17.5625 23.8428 18.2969 23.1084 19.2031 23.1084H23.3594ZM40.3125 48.0459H41.4062C42.3124 48.0459 43.0469 47.3115 43.0469 46.4053C43.0469 45.4991 42.3124 44.7646 41.4062 44.7646H40.3125C39.4063 44.7646 38.6719 45.4991 38.6719 46.4053C38.6719 47.3115 39.4063 48.0459 40.3125 48.0459ZM32.6562 48.0459H33.75C34.6562 48.0459 35.3906 47.3115 35.3906 46.4053C35.3906 45.4991 34.6562 44.7646 33.75 44.7646H32.6562C31.7501 44.7646 31.0156 45.4991 31.0156 46.4053C31.0156 47.3115 31.7501 48.0459 32.6562 48.0459ZM25 48.0459H26.0938C26.9999 48.0459 27.7344 47.3115 27.7344 46.4053C27.7344 45.4991 26.9999 44.7646 26.0938 44.7646H25C24.0938 44.7646 23.3594 45.4991 23.3594 46.4053C23.3594 47.3115 24.0938 48.0459 25 48.0459ZM47.9688 41.4834H49.0625C49.9687 41.4834 50.7031 40.749 50.7031 39.8428C50.7031 38.9366 49.9687 38.2021 49.0625 38.2021H47.9688C47.0626 38.2021 46.3281 38.9366 46.3281 39.8428C46.3281 40.749 47.0626 41.4834 47.9688 41.4834ZM40.3125 41.4834H41.4062C42.3124 41.4834 43.0469 40.749 43.0469 39.8428C43.0469 38.9366 42.3124 38.2021 41.4062 38.2021H40.3125C39.4063 38.2021 38.6719 38.9366 38.6719 39.8428C38.6719 40.749 39.4063 41.4834 40.3125 41.4834ZM32.6562 41.4834H33.75C34.6562 41.4834 35.3906 40.749 35.3906 39.8428C35.3906 38.9366 34.6562 38.2021 33.75 38.2021H32.6562C31.7501 38.2021 31.0156 38.9366 31.0156 39.8428C31.0156 40.749 31.7501 41.4834 32.6562 41.4834ZM20.8438 29.6709H53.2188V26.3896C42.4269 26.3896 31.6356 26.3896 20.8438 26.3896V29.6709ZM53.2188 32.9521H20.8438V53.2959H53.2188V32.9521ZM25.6246 3.8584H16.5004V10.3876L20.3225 8.45258C20.7707 8.22571 21.3167 8.20734 21.7995 8.45087L25.6246 10.3876V3.8584Z" fill="#ED2224"/>
</g>
<defs>
<clipPath id="clip0_1_304">
<rect width="56" height="56" fill="white" transform="translate(0.5 0.577148)"/>
</clipPath>
</defs>
</svg>
