<svg width="57" height="57" viewBox="0 0 57 57" fill="none" xmlns="http://www.w3.org/2000/svg">
<g clip-path="url(#clip0_1_298)">
<path fill-rule="evenodd" clip-rule="evenodd" d="M30.4167 45.623L40.0203 52.8827L49.6158 45.6226C52.5754 43.3829 53.4688 39.7295 53.4688 36.1078V23.3348C44.4987 17.6097 35.6223 18.3382 26.5587 23.3968V36.1035C26.5587 39.6586 27.4422 43.3748 30.4167 45.623ZM33.9338 35.6297C32.4064 34.1023 34.7263 31.7823 36.2537 33.3097L38.8262 35.8822L45.8146 28.8937C47.3416 27.3663 49.6616 29.6863 48.1346 31.2137L39.9861 39.3621C39.3453 40.0026 38.3066 40.0026 37.6662 39.3621L33.9338 35.6297ZM24.0341 41.7021H2.39062C1.48444 41.7021 0.75 40.9677 0.75 40.0615V2.21777C0.75 1.31158 1.48444 0.577148 2.39062 0.577148H40.2344C41.1406 0.577148 41.875 1.31158 41.875 2.21777V16.0798C46.6093 16.3254 51.3274 17.9135 56.0258 21.0935C56.4945 21.4097 56.7479 21.9262 56.7483 22.4521L56.75 36.1078C56.75 40.7532 55.4298 45.3316 51.5897 48.2369L41.0077 56.2439C40.4006 56.7023 39.5777 56.6737 39.0069 56.2238L28.4428 48.2382C26.2049 46.5463 24.8035 44.2699 24.0341 41.7021ZM38.5938 16.1212C33.7766 16.4899 28.988 18.1934 24.2216 20.9662C23.6636 21.2281 23.2774 21.7946 23.2774 22.4521C23.2774 27.4172 23.1492 33.8694 23.3932 38.4209H4.03125V3.8584H13.4691L13.473 13.0527C13.4721 14.2456 14.7457 15.0702 15.8467 14.5139L21.3125 11.7462L26.6702 14.4592C27.8989 15.139 29.1559 14.2315 29.1559 13.0527V3.8584H38.5938V16.1212ZM25.8746 3.8584H16.7504V10.3876L20.5725 8.45258C21.0207 8.22571 21.5667 8.20734 22.0495 8.45087L25.8746 10.3876V3.8584Z" fill="#ED2224"/>
</g>
<defs>
<clipPath id="clip0_1_298">
<rect width="56" height="56" fill="white" transform="translate(0.75 0.577148)"/>
</clipPath>
</defs>
</svg>
