<svg width="56" height="57" viewBox="0 0 56 57" fill="none" xmlns="http://www.w3.org/2000/svg">
<g clip-path="url(#clip0_1_292)">
<path fill-rule="evenodd" clip-rule="evenodd" d="M44.8438 0.577148C45.7499 0.577148 46.4844 1.31158 46.4844 2.21777V23.9864C52.2116 26.8515 56 32.7338 56 39.3779C56 48.8765 48.2993 56.5771 38.8008 56.5771C32.1567 56.5771 26.2744 52.7888 23.4092 47.0615H1.64062C0.734436 47.0615 0 46.3271 0 45.4209V2.21777C0 1.31158 0.734436 0.577148 1.64062 0.577148H44.8438ZM31.0625 3.8584V13.0527C31.0625 14.2324 29.8038 15.1403 28.5746 14.4575L23.2422 11.7479L17.7995 14.5139C16.707 15.0672 15.4249 14.2597 15.4257 13.0527L15.4219 3.8584H3.28125V43.7803H22.1707C20.5826 37.7672 22.3685 31.4871 26.6392 27.2164C30.91 22.9456 37.1901 21.1597 43.2031 22.7478V3.8584H31.0625ZM33.5781 46.624H41.2339C42.9822 46.624 44.5686 45.9118 45.717 44.7629C46.9244 43.556 47.5781 41.9922 47.5781 40.1713C47.5781 36.6747 44.7305 33.8271 41.2339 33.8271H36.6748L37.6378 32.8624C39.155 31.3363 36.835 29.0296 35.3179 30.5553L31.5551 34.3249C30.9181 34.9653 30.9207 36.0014 31.5615 36.6384L35.3315 40.4012C36.8572 41.9183 39.1644 39.5984 37.6387 38.0812L36.6637 37.1084H41.2339C43.0104 37.1084 44.2969 38.5286 44.2969 40.2798C44.2969 41.9649 42.919 43.3428 41.2339 43.3428H33.5781C32.6719 43.3428 31.9375 44.0772 31.9375 44.9834C31.9375 45.8896 32.6719 46.624 33.5781 46.624ZM28.9592 29.5363C23.5242 34.9717 23.5242 43.7845 28.9592 49.2195C34.3946 54.655 43.2074 54.655 48.6424 49.2195C54.0778 43.7845 54.0778 34.9717 48.6424 29.5363C43.2074 24.1013 34.3942 24.1013 28.9592 29.5363ZM27.7812 3.8584H18.7031V10.3833L22.5013 8.453C22.9495 8.22571 23.496 8.20734 23.9792 8.45087L27.7812 10.3833V3.8584Z" fill="#ED2224"/>
</g>
<defs>
<clipPath id="clip0_1_292">
<rect width="56" height="56" fill="white" transform="translate(0 0.577148)"/>
</clipPath>
</defs>
</svg>
