<svg width="56" height="56" viewBox="0 0 56 56" fill="none" xmlns="http://www.w3.org/2000/svg">
<g clip-path="url(#clip0_64_6261)">
<path d="M52.2764 28.7253C52.0511 28.2643 52.0511 27.7355 52.2764 27.2746L54.365 23.0019C55.5279 20.6229 54.6065 17.7874 52.2674 16.5463L48.0664 14.3173C47.6131 14.0769 47.3024 13.649 47.2137 13.1438L46.3921 8.45941C45.9345 5.85127 43.522 4.09866 40.9006 4.46954L36.1917 5.13563C35.6834 5.20738 35.1809 5.04398 34.8122 4.68731L31.3941 1.3807C29.4909 -0.460505 26.5093 -0.460614 24.6062 1.3807L21.188 4.68764C20.8192 5.04442 20.3167 5.20749 19.8085 5.13596L15.0996 4.46987C12.4774 4.09877 10.0657 5.8516 9.60815 8.45974L8.78653 13.1439C8.69783 13.6492 8.38709 14.077 7.93396 14.3175L3.73289 16.5466C1.39381 17.7875 0.472436 20.6233 1.6353 23.0023L3.72381 27.2749C3.94912 27.7359 3.94912 28.2646 3.72381 28.7255L1.63519 32.9981C0.472327 35.3771 1.3937 38.2126 3.73278 39.4537L7.93385 41.6827C8.38709 41.9231 8.69783 42.351 8.78653 42.8562L9.60815 47.5406C10.0246 49.9149 12.0605 51.58 14.4004 51.5798C14.6308 51.5798 14.8647 51.5636 15.0997 51.5304L19.8086 50.8643C20.3164 50.7922 20.8193 50.9559 21.1882 51.3126L24.6062 54.6192C25.558 55.5399 26.7788 56.0002 28.0001 56.0001C29.2211 56 30.4427 55.5397 31.394 54.6192L34.8122 51.3126C35.181 50.9559 35.6837 50.793 36.1917 50.8643L40.9006 51.5304C43.5232 51.9014 45.9345 50.1487 46.3921 47.5405L47.2138 42.8563C47.3025 42.351 47.6132 41.9233 48.0664 41.6827L52.2674 39.4537C54.6065 38.2127 55.5279 35.377 54.365 32.998L52.2764 28.7253ZM50.7536 36.6004L46.5525 38.8295C45.2131 39.5403 44.2945 40.8045 44.0325 42.2981L43.2109 46.9824C43.0561 47.8648 42.2403 48.4575 41.353 48.3323L36.6441 47.6662C35.1424 47.4534 33.6564 47.9368 32.5665 48.991L29.1483 52.2975C28.5045 52.9203 27.4958 52.9203 26.8518 52.2975L23.4337 48.9909C22.5126 48.0998 21.3084 47.617 20.0512 47.617C19.8209 47.617 19.5887 47.6331 19.3561 47.6661L14.6472 48.3322C13.7607 48.4575 12.9442 47.8647 12.7893 46.9823L11.9676 42.2979C11.7055 40.8043 10.787 39.54 9.44748 38.8294L5.24641 36.6003C4.45498 36.1805 4.14326 35.2211 4.53668 34.4162L6.62529 30.1435C7.29116 28.7812 7.29116 27.2186 6.62529 25.8563L4.53668 21.5836C4.14326 20.7787 4.45498 19.8194 5.24641 19.3995L9.44748 17.1704C10.7869 16.4596 11.7055 15.1955 11.9675 13.7018L12.7891 9.01755C12.944 8.13512 13.7597 7.54231 14.647 7.66765L19.3559 8.33374C20.8571 8.54626 22.3436 8.06315 23.4335 7.00889L26.8517 3.70228C27.4954 3.07951 28.5042 3.07951 29.1482 3.70228L32.5663 7.00889C33.6562 8.06326 35.1425 8.54626 36.6438 8.33374L41.3527 7.66765C42.2394 7.5422 43.0559 8.13512 43.2107 9.01755L44.0323 13.7019C44.2944 15.1956 45.2129 16.4598 46.5524 17.1704L50.7535 19.3995C51.5449 19.8194 51.8566 20.7787 51.4632 21.5836L49.3746 25.8562C48.7087 27.2184 48.7087 28.7812 49.3746 30.1434L51.4632 34.416C51.8567 35.2211 51.545 36.1806 50.7536 36.6004Z" fill="#ED2224"/>
<path d="M39.7997 16.2C39.1692 15.5694 38.1466 15.5694 37.5159 16.2L16.2 37.516C15.5694 38.1467 15.5694 39.1692 16.2 39.7999C16.5154 40.1152 16.9287 40.2729 17.3419 40.2729C17.7551 40.2729 18.1686 40.1153 18.4838 39.7999L39.7996 18.484C40.4305 17.8532 40.4305 16.8308 39.7997 16.2Z" fill="#ED2224"/>
<path d="M21.5403 13.4658C18.2753 13.4658 15.6189 16.1222 15.6189 19.3872C15.6189 22.6523 18.2753 25.3087 21.5403 25.3087C24.8054 25.3087 27.4617 22.6523 27.4617 19.3872C27.4617 16.1222 24.8054 13.4658 21.5403 13.4658ZM21.5403 22.0787C20.0562 22.0787 18.8488 20.8713 18.8488 19.3871C18.8488 17.903 20.0562 16.6956 21.5403 16.6956C23.0244 16.6956 24.2319 17.903 24.2319 19.3871C24.2318 20.8713 23.0244 22.0787 21.5403 22.0787Z" fill="#ED2224"/>
<path d="M34.4595 30.6917C31.1945 30.6917 28.5381 33.348 28.5381 36.6131C28.5381 39.8781 31.1945 42.5345 34.4595 42.5345C37.7245 42.5345 40.3809 39.8781 40.3809 36.6131C40.3809 33.348 37.7245 30.6917 34.4595 30.6917ZM34.4595 39.3046C32.9754 39.3046 31.7679 38.0972 31.7679 36.6131C31.7679 35.129 32.9753 33.9216 34.4595 33.9216C35.9436 33.9216 37.151 35.129 37.151 36.6131C37.151 38.0972 35.9436 39.3046 34.4595 39.3046Z" fill="#ED2224"/>
</g>
<defs>
<clipPath id="clip0_64_6261">
<rect width="56" height="56" fill="white"/>
</clipPath>
</defs>
</svg>
