<svg width="56" height="56" viewBox="0 0 56 56" fill="none" xmlns="http://www.w3.org/2000/svg">
<g clip-path="url(#clip0_64_6254)">
<path d="M54.4972 40.0908L41.9733 27.5639C44.3232 22.229 43.3177 15.7603 38.9551 11.3966C33.271 5.71127 24.0705 5.71051 18.3858 11.3966C12.7151 17.0686 12.7151 26.2977 18.3858 31.9697C22.8921 36.4769 29.496 37.3351 34.768 34.8979L47.2279 47.3607C49.2368 49.37 52.4887 49.3703 54.4976 47.3603C56.501 45.356 56.5008 42.095 54.4972 40.0908ZM20.7063 29.6496C16.3146 25.2569 16.3146 18.1095 20.7063 13.7167C25.1078 9.31414 32.2322 9.31337 36.6344 13.7167C41.0262 18.1095 41.0262 25.2569 36.6344 29.6496C32.2329 34.0523 25.1084 34.0529 20.7063 29.6496ZM52.1768 45.0406C51.4505 45.7672 50.2749 45.7675 49.5484 45.0407L37.6441 33.1336C38.6226 32.3633 39.4947 31.4789 40.252 30.4833L52.1766 42.4108C52.9014 43.1358 52.9015 44.3155 52.1768 45.0406Z" fill="#ED2224"/>
<path d="M1.6407 26.7924H8.63686C9.54296 26.7924 10.2776 26.0578 10.2776 25.1517C10.2776 24.2456 9.54296 23.511 8.63686 23.511H1.6407C0.734595 23.511 0 24.2456 0 25.1517C0 26.0578 0.734595 26.7924 1.6407 26.7924Z" fill="#ED2224"/>
<path d="M1.6407 33.7926H11.2604C12.1665 33.7926 12.9011 33.058 12.9011 32.1519C12.9011 31.2458 12.1665 30.5112 11.2604 30.5112H1.6407C0.734595 30.5112 0 31.2458 0 32.1519C0 33.058 0.734595 33.7926 1.6407 33.7926Z" fill="#ED2224"/>
<path d="M1.6407 40.7931H18.2567C19.1628 40.7931 19.8974 40.0585 19.8974 39.1524C19.8974 38.2463 19.1628 37.5117 18.2567 37.5117H1.6407C0.734595 37.5117 0 38.2463 0 39.1524C0 40.0585 0.734595 40.7931 1.6407 40.7931Z" fill="#ED2224"/>
<path d="M37.4964 44.512H1.6407C0.734595 44.512 0 45.2466 0 46.1527C0 47.0588 0.734595 47.7934 1.6407 47.7934H37.4964C38.4025 47.7934 39.1371 47.0588 39.1371 46.1527C39.1371 45.2466 38.4025 44.512 37.4964 44.512Z" fill="#ED2224"/>
</g>
<defs>
<clipPath id="clip0_64_6254">
<rect width="56" height="56" fill="white"/>
</clipPath>
</defs>
</svg>
