<svg width="92" height="85" viewBox="0 0 92 85" fill="none" xmlns="http://www.w3.org/2000/svg">
<path fill-rule="evenodd" clip-rule="evenodd" d="M33.5825 2.52203C51.7954 -4.05797 71.6632 2.66982 82.4735 17.6729L88.402 15.5296L88.6555 23.5461L86.9405 25.5352C87.0522 25.7922 87.1614 26.0517 87.2697 26.3126L90.3347 26.4729L91.5714 36.419L90.1072 36.9473C92.6489 56.3027 81.4987 75.5875 62.4261 82.4781C42.8078 89.5667 21.2668 81.2089 11.1986 63.7065L10.2245 65.8114L0.5 69.3247L7.47059 55.1754C0.734529 33.6269 12.1649 10.2619 33.5825 2.52203ZM64.5416 38.4571L64.0189 30.7152L60.4124 40.0787L64.5416 38.4571ZM9.9971 50.0471L19.559 30.6361L28.6948 27.7513L31.3219 54.0319L35.9822 52.5561L35.0055 34.8236L42.099 32.2611L42.521 39.5917L47.4251 30.3367L52.3161 28.57L53.662 42.8407L61.482 25.2567L70.3911 22.0383L71.9447 39.9775L82.7917 36.0575L82.316 29.5775L80.2958 30.3085L82.614 25.0657C82.3225 24.4864 82.0167 23.9163 81.7012 23.3565L75.0782 25.749L74.8181 20.4389L78.8192 18.9926C68.827 5.9077 51.1126 0.147759 34.8467 6.02477C16.63 12.6067 6.33182 31.5783 9.9971 50.0471ZM86.5152 38.2453L65.1152 45.978L64.7938 43.1846L59.0946 45.2437L57.1679 48.8505L47.184 52.4573L46.7613 46.1663L42.7869 54.0468L22.1475 61.5037L20.8487 42.8492L13.162 59.4643C21.698 77.045 42.3956 85.758 61.1638 78.9759C78.2972 72.785 88.4236 55.6299 86.5152 38.2453Z" fill="white"/>
</svg>
