<svg width="120" height="15" viewBox="0 0 120 15" fill="none" xmlns="http://www.w3.org/2000/svg">
<path d="M59.2597 6.93965C59.4437 7.35079 59.53 7.79426 59.5128 8.23953C59.5344 8.85188 59.3723 9.45766 59.0446 9.98845C58.7249 10.4673 58.292 10.8716 57.7792 11.1702C57.2649 11.48 56.6946 11.7003 56.0962 11.8201C55.5775 11.9348 55.0473 11.9982 54.5144 12.0092H49.807L50.2626 9.98845H54.3879C54.6695 9.99209 54.9504 9.96029 55.223 9.89391C55.499 9.83869 55.7638 9.74298 56.0076 9.61032C56.2319 9.48315 56.4257 9.31418 56.577 9.11398C56.7329 8.92479 56.8135 8.69082 56.8048 8.45223C56.8094 8.32544 56.786 8.19912 56.7359 8.08118C56.6858 7.96325 56.6102 7.85623 56.5138 7.76684C56.2962 7.57302 56.0434 7.41696 55.7672 7.30598C55.4303 7.17248 55.0835 7.0619 54.7295 6.9751L53.5653 6.66787C53.1604 6.56151 52.7681 6.43152 52.3758 6.28971C52.0061 6.1437 51.6609 5.9487 51.3508 5.71069C51.046 5.47271 50.7962 5.17917 50.6169 4.84803C50.4236 4.45561 50.3284 4.02727 50.3385 3.59542C50.3198 3.02229 50.4779 2.45622 50.7941 1.96468C51.0835 1.52137 51.4773 1.14551 51.9456 0.865689C52.447 0.578887 52.9936 0.367537 53.5653 0.239387C54.1139 0.124094 54.6735 0.0607537 55.2357 0.0503189H59.5381L59.0699 2.08284H55.2737C55.011 2.09413 54.7492 2.11779 54.4891 2.15374C54.2315 2.20423 53.9838 2.29194 53.7551 2.41372C53.5453 2.52127 53.3671 2.67552 53.2363 2.86277C53.1059 3.02173 53.0388 3.21808 53.0465 3.41818C53.0439 3.55086 53.0733 3.6824 53.1324 3.80307C53.1916 3.92375 53.279 4.03047 53.3882 4.11538C53.6436 4.31202 53.9295 4.4714 54.236 4.58807C54.5649 4.70738 54.9034 4.8022 55.2483 4.87167L56.0835 5.03711C56.5525 5.14667 57.0132 5.28484 57.4628 5.45071C57.8569 5.59241 58.2243 5.79186 58.5511 6.04156C58.8547 6.289 59.0966 6.59555 59.2597 6.93965ZM75.5837 5.39162C75.5692 5.88128 75.5013 6.36828 75.3812 6.84511L74.5587 10.3193C74.5079 10.5094 74.474 10.7031 74.4575 10.8984C74.4575 11.1347 74.4575 11.3238 74.4575 11.4892C74.4651 11.6613 74.4948 11.8319 74.546 11.9973H72.0152V11.1465C71.6734 11.5105 71.2378 11.787 70.7498 11.9501C70.2527 12.1261 69.7249 12.2142 69.1933 12.2101C68.7642 12.212 68.3374 12.1522 67.9279 12.0328C67.5878 11.9183 67.2711 11.7505 66.9915 11.5365C66.7515 11.3372 66.5614 11.0911 66.4347 10.8156C66.3184 10.541 66.2583 10.2484 66.2575 9.953C66.2408 9.57669 66.3152 9.2017 66.4752 8.85594C66.6351 8.51018 66.8765 8.20254 67.1813 7.95592C67.925 7.39902 68.8363 7.07268 69.7881 7.02238C70.3828 6.95148 70.9016 6.9042 71.3445 6.86875C71.7122 6.84737 72.0768 6.79195 72.4328 6.70331C72.6777 6.65786 72.9049 6.55175 73.0908 6.39608C73.2436 6.21966 73.3204 5.99629 73.3059 5.76978C73.317 5.57658 73.2591 5.38539 73.1414 5.22618C73.0357 5.09561 72.9021 4.98695 72.7491 4.90712C72.5849 4.83305 72.4102 4.78133 72.2303 4.75351C72.1038 4.75351 68.8137 4.75351 68.8137 4.75351L69.1553 3.1582H71.8254C72.2485 3.16469 72.6709 3.19229 73.0908 3.24091C73.5281 3.29095 73.9547 3.40252 74.3562 3.5718C74.7264 3.72115 75.0489 3.95722 75.2926 4.25718C75.5212 4.59491 75.6236 4.99383 75.5837 5.39162ZM72.7112 7.84957C72.3937 8.02602 72.0403 8.13871 71.6735 8.18045L70.5726 8.27498C70.3378 8.29216 70.105 8.32773 69.8766 8.38133C69.6615 8.42189 69.4558 8.49792 69.2692 8.60586C69.0996 8.70896 68.9569 8.84625 68.8516 9.00764C68.7397 9.21235 68.6832 9.43956 68.6871 9.66939C68.6786 9.81683 68.7143 9.96357 68.7903 10.093C68.8664 10.2225 68.9796 10.3295 69.1174 10.4021C69.4127 10.563 69.7499 10.6447 70.0917 10.6384C70.4307 10.6483 70.7679 10.5877 71.0788 10.4611C71.3375 10.3574 71.5702 10.2045 71.7621 10.0121C71.9456 9.82983 72.0914 9.6175 72.1923 9.38579C72.3017 9.15945 72.3947 8.92651 72.4707 8.68857L72.7112 7.84957ZM63.5748 9.23216L64.5745 4.71804H66.3841L66.7763 3.13456H64.9541L65.6501 0.0384994H63.1193L62.4359 3.13456H60.8035L60.4113 4.71804H62.069L61.8412 5.74614L60.9934 9.56304C60.9934 9.71666 60.9174 9.85846 60.8921 10.0003C60.8668 10.1421 60.8921 10.2721 60.8921 10.3784C60.8671 10.6807 60.9328 10.9835 61.0819 11.2529C61.2123 11.4671 61.3998 11.6462 61.6261 11.7728C61.874 11.9037 62.1434 11.9955 62.4233 12.0446C62.7116 12.0918 63.0037 12.1155 63.2964 12.1155H64.1063L64.8909 12.0564L65.3211 10.2366C65.0177 10.2549 64.7134 10.2549 64.41 10.2366H64.119C64.0208 10.2387 63.924 10.2141 63.8406 10.1657C63.7554 10.1217 63.6853 10.0562 63.6381 9.97664C63.5691 9.86587 63.5382 9.73801 63.5495 9.61032C63.5495 9.61032 63.5495 9.52759 63.5495 9.45669C63.5536 9.38148 63.5621 9.30652 63.5748 9.23216V9.23216ZM77.7729 3.32364L75.8621 11.9619H78.3929L79.2534 8.13319C79.3362 7.7719 79.4461 7.4165 79.5824 7.06964C79.72 6.74284 79.9076 6.43636 80.1392 6.15972C80.3739 5.89502 80.6675 5.68129 80.9997 5.53342C81.3946 5.35966 81.829 5.27854 82.2651 5.29708C82.446 5.2801 82.6283 5.2801 82.8092 5.29708L83.3407 5.39162L83.8595 3.0873C83.5938 3.0873 83.3281 3.0873 83.075 3.0873C82.4137 3.08115 81.7627 3.24027 81.1895 3.54816C80.6214 3.86141 80.1774 4.33823 79.9241 4.90712V4.90712L80.3037 3.35909L77.7729 3.32364ZM120 5.35617C119.985 5.84583 119.918 6.33283 119.798 6.80966L118.975 10.2839C118.924 10.4739 118.89 10.6676 118.874 10.8629C118.874 11.0993 118.874 11.2883 118.874 11.4538C118.875 11.6264 118.905 11.7978 118.962 11.9619H116.432V11.1111C116.093 11.4787 115.657 11.756 115.166 11.9146C114.669 12.0906 114.141 12.1788 113.61 12.1746C113.181 12.1766 112.754 12.1168 112.344 11.9973C112.004 11.8829 111.687 11.715 111.408 11.501C111.168 11.3018 110.978 11.0557 110.851 10.7802C110.735 10.5055 110.675 10.2129 110.674 9.91755C110.657 9.54124 110.732 9.16625 110.891 8.82049C111.051 8.47473 111.293 8.16709 111.598 7.92047C112.341 7.36357 113.253 7.03723 114.204 6.98693C114.799 6.91603 115.318 6.86875 115.761 6.8333C116.129 6.81192 116.493 6.7565 116.849 6.66787C117.094 6.62241 117.321 6.5163 117.507 6.36063C117.66 6.18421 117.737 5.96082 117.722 5.73431C117.733 5.54111 117.675 5.34994 117.558 5.19073C117.452 5.06016 117.318 4.9515 117.165 4.87167C116.998 4.79587 116.818 4.74408 116.634 4.71804C116.52 4.71804 113.23 4.71804 113.23 4.71804L113.572 3.12275H116.242C116.665 3.12924 117.087 3.15684 117.507 3.20546C117.944 3.2555 118.371 3.36705 118.773 3.53634C119.143 3.68568 119.465 3.92177 119.709 4.22173C119.928 4.57513 120.013 4.98749 119.949 5.39162L120 5.35617ZM117.128 7.81412C116.81 7.99057 116.457 8.10326 116.09 8.145L114.989 8.23953C114.754 8.25671 114.521 8.29228 114.293 8.34588C114.078 8.38644 113.872 8.46247 113.686 8.57041C113.516 8.67351 113.373 8.8108 113.268 8.97219C113.156 9.1769 113.1 9.40411 113.103 9.63394C113.095 9.78138 113.131 9.92812 113.207 10.0576C113.283 10.1871 113.396 10.2941 113.534 10.3666C113.829 10.5275 114.166 10.6093 114.508 10.6029C114.847 10.6128 115.184 10.5523 115.495 10.4257C115.754 10.322 115.987 10.1691 116.178 9.97664C116.362 9.79438 116.508 9.58205 116.609 9.35034C116.718 9.124 116.811 8.89106 116.887 8.65312L117.128 7.81412ZM92.3885 0.0384994L84.8592 11.9619H87.8077L89.4147 9.30306H94.198L94.603 11.9619H97.3996L95.2737 0.0384994H92.3885ZM90.4271 7.38871L93.1857 2.66189L93.8184 7.38871H90.4271ZM101.904 11.9973L106.966 3.35909H104.347L101.082 9.50395L100.513 3.35909H97.8931L99.1585 11.9973H101.904ZM108.143 3.32364L106.194 11.9619H108.725L110.699 3.32364H108.143ZM110.978 1.98831L111.446 0.0384994H111.041C110.432 0.0377606 109.841 0.23037 109.365 0.584697C108.889 0.939024 108.556 1.434 108.421 1.98831H110.952H110.978ZM39.9873 5.35617C39.9855 5.86479 39.9261 6.37179 39.8102 6.86875L38.9877 10.343C38.9368 10.533 38.903 10.7267 38.8864 10.922C38.8864 11.1583 38.8864 11.3474 38.8864 11.5128C38.8878 11.6855 38.9177 11.8569 38.975 12.021H36.4442V11.1702C36.1058 11.5378 35.6692 11.815 35.1787 11.9737C34.681 12.1476 34.1537 12.2357 33.6223 12.2337C33.1932 12.2364 32.7662 12.1766 32.3569 12.0564C32.0154 11.9446 31.6983 11.7765 31.4204 11.5601C31.1805 11.3609 30.9904 11.1148 30.8637 10.8393C30.7474 10.5646 30.6873 10.272 30.6865 9.97664C30.6698 9.60033 30.7442 9.22534 30.9041 8.87958C31.0641 8.53382 31.3054 8.22618 31.6102 7.97956C32.3331 7.43617 33.2157 7.11061 34.1411 7.046L35.6976 6.89239C36.0696 6.87187 36.4384 6.81644 36.7985 6.72695C37.0424 6.67886 37.269 6.57305 37.4565 6.4197C37.6093 6.24328 37.6861 6.01991 37.6716 5.7934C37.6827 5.6002 37.6248 5.40903 37.5071 5.24982C37.3995 5.11639 37.2611 5.00733 37.1022 4.93076C36.9395 4.85321 36.7642 4.80129 36.5834 4.77713C36.4695 4.77713 33.1794 4.77713 33.1794 4.77713L33.7741 3.18184H36.1911C36.6142 3.18833 37.0366 3.21593 37.4565 3.26455C37.8938 3.31459 38.3204 3.42614 38.7219 3.59542C39.0921 3.74477 39.4146 3.98086 39.6583 4.28082C39.9078 4.60412 40.0408 4.99313 40.038 5.39162L39.9873 5.35617ZM37.1148 7.81412C36.7974 7.99057 36.4439 8.10326 36.0772 8.145L34.9763 8.23953C34.7414 8.25578 34.5085 8.29136 34.2803 8.34588C34.0651 8.38644 33.8595 8.46247 33.6729 8.57041C33.5033 8.67351 33.3606 8.8108 33.2553 8.97219C33.1434 9.1769 33.0869 9.40411 33.0908 9.63394C33.0822 9.78138 33.118 9.92812 33.194 10.0576C33.27 10.1871 33.3833 10.2941 33.521 10.3666C33.8164 10.5275 34.1535 10.6093 34.4954 10.6029C34.8344 10.6128 35.1715 10.5523 35.4824 10.4257C35.7412 10.322 35.9739 10.1691 36.1658 9.97664C36.3492 9.79438 36.4951 9.58205 36.596 9.35034C36.7054 9.124 36.7984 8.89106 36.8744 8.65312L37.1148 7.81412ZM12.3885 8.46406C12.3514 8.97918 12.4352 9.49564 12.6341 9.97735C12.833 10.4591 13.1422 10.8944 13.54 11.2529C14.414 11.9023 15.5124 12.2302 16.6277 12.1746C17.4011 12.185 18.1684 12.0442 18.8801 11.761C19.5306 11.4869 20.1092 11.0836 20.5758 10.5793C21.053 10.0783 21.4148 9.49105 21.6387 8.85401C21.8853 8.16862 22.0093 7.44999 22.0057 6.72695C22.0228 6.17257 21.9151 5.621 21.6893 5.10801C21.5061 4.65038 21.2013 4.24376 20.8035 3.9263C20.4034 3.61243 19.9381 3.37909 19.4369 3.24091C18.8689 3.09034 18.2811 3.01478 17.6906 3.0164C16.928 3.00524 16.1721 3.15045 15.4761 3.44182C14.8358 3.72045 14.2663 4.1233 13.8058 4.62352C13.3428 5.12955 12.9826 5.71021 12.7428 6.33699C12.5087 7.03606 12.4059 7.76771 12.4391 8.49951L12.3885 8.46406ZM14.9193 8.55858C14.9221 8.11702 14.9773 7.67712 15.0838 7.24691C15.1829 6.7997 15.3445 6.3666 15.5647 5.95883C15.7706 5.57999 16.0544 5.24271 16.3999 4.96621C16.7373 4.70402 17.1631 4.56171 17.602 4.56443C17.8752 4.53992 18.1506 4.58012 18.4028 4.68133C18.6549 4.78254 18.8757 4.94147 19.0446 5.14346C19.3459 5.60908 19.4913 6.14816 19.4622 6.6915C19.4577 7.13233 19.4069 7.57167 19.3103 8.0032C19.2035 8.45751 19.0377 8.89798 18.8168 9.31489C18.6058 9.69736 18.3179 10.0384 17.969 10.3193C17.6126 10.5898 17.1623 10.7286 16.7036 10.7093C16.4301 10.714 16.1599 10.653 15.919 10.532C15.693 10.4172 15.4982 10.2555 15.3496 10.0594C15.1926 9.85026 15.0729 9.6188 14.9953 9.37396C14.9515 9.11604 14.943 8.85398 14.97 8.59405L14.9193 8.55858ZM26.1816 13.1672L32.0658 3.32364H29.4337L26.2322 9.50395L25.3844 3.32364H22.7776L24.4226 11.8792C24.3296 11.9851 24.249 12.0999 24.1822 12.2219C24.1042 12.3598 24.0063 12.487 23.8912 12.6C23.7698 12.7269 23.6238 12.8311 23.4609 12.9073C23.2332 12.9972 22.9866 13.0376 22.7396 13.0254C22.5714 13.0423 22.4017 13.0423 22.2335 13.0254C22.0652 13.0085 21.8955 13.0085 21.7273 13.0254L21.2971 14.9989C21.5204 14.9867 21.7444 14.9867 21.9677 14.9989H22.6384C23.062 15.0061 23.4854 14.9784 23.9038 14.9162C24.2298 14.8739 24.5461 14.7821 24.8402 14.6444C25.1291 14.5064 25.3869 14.3178 25.5995 14.089C25.8378 13.8115 26.0496 13.5149 26.2322 13.2027L26.1816 13.1672ZM43.3407 0.0384994L40.6327 11.9619H43.1636L45.8842 0.0384994H43.3407ZM8.28851 6.52607C8.75672 6.52607 9.25023 6.41971 9.55393 6.36063C9.96605 6.30338 10.3643 6.1794 10.7308 5.99428C11.083 5.80831 11.3995 5.56868 11.6672 5.28527C11.9247 4.99086 12.1297 4.65969 12.2746 4.30446C12.4209 3.9256 12.4937 3.52545 12.4897 3.12275C12.5066 2.61774 12.4119 2.11489 12.2113 1.64562C12.0479 1.26897 11.787 0.936041 11.4521 0.676621C11.0806 0.409422 10.6472 0.227286 10.1866 0.144848C9.67662 0.0346186 9.1534 -0.0130455 8.63018 0.00304966H2.67004L0 11.9264H2.78393L3.84689 7.19963L5.02373 1.97649H7.69377C7.95494 1.95849 8.21716 1.95849 8.47833 1.97649C8.70845 2.00745 8.93109 2.07542 9.13635 2.17738C9.33067 2.28377 9.48865 2.43949 9.5919 2.62644C9.71964 2.86434 9.7806 3.12862 9.76906 3.39454C9.7756 3.69728 9.69239 3.99582 9.52863 4.25718C9.36326 4.49651 9.14277 4.69837 8.88326 4.84803C8.59463 5.00053 8.28331 5.11206 7.95951 5.17892C7.60624 5.25116 7.24553 5.28683 6.8839 5.28527H5.02373L10.0221 14.8453H12.7555L8.28851 6.52607Z" fill="#005CB9"/>
</svg>
