<svg width="92" height="41" viewBox="0 0 92 41" fill="none" xmlns="http://www.w3.org/2000/svg">
<g clip-path="url(#clip0_221_1406)">
<path d="M43.8077 35.8297C43.9168 36.0927 43.9681 36.3764 43.9579 36.6612C43.9707 37.0529 43.8745 37.4404 43.6801 37.7799C43.4904 38.0863 43.2336 38.3448 42.9293 38.5358C42.6242 38.7341 42.2859 38.8749 41.9308 38.9516C41.6231 39.0249 41.3085 39.0655 40.9923 39.0725H38.1994L38.4697 37.7799H40.9172C41.0844 37.7823 41.251 37.7619 41.4128 37.7195C41.5765 37.6841 41.7336 37.6229 41.8782 37.538C42.0113 37.4567 42.1263 37.3486 42.2161 37.2206C42.3086 37.0995 42.3564 36.9499 42.3512 36.7973C42.354 36.7161 42.34 36.6353 42.3103 36.5599C42.2806 36.4845 42.2357 36.416 42.1785 36.3588C42.0495 36.2349 41.8995 36.135 41.7356 36.064C41.5357 35.9786 41.33 35.9079 41.12 35.8524L40.4292 35.6559C40.189 35.5878 39.9563 35.5047 39.7235 35.414C39.5042 35.3206 39.2994 35.1958 39.1154 35.0436C38.9345 34.8913 38.7863 34.7036 38.6799 34.4918C38.5652 34.2407 38.5088 33.9667 38.5148 33.6905C38.5036 33.3239 38.5975 32.9618 38.785 32.6474C38.9567 32.3638 39.1904 32.1234 39.4682 31.9444C39.7657 31.7609 40.09 31.6257 40.4292 31.5438C40.7547 31.47 41.0867 31.4295 41.4203 31.4228H43.9729L43.6951 32.723H41.4428C41.287 32.7302 41.1316 32.7453 40.9773 32.7683C40.8244 32.8006 40.6775 32.8567 40.5419 32.9346C40.4173 33.0034 40.3116 33.1021 40.234 33.2219C40.1567 33.3235 40.1169 33.4491 40.1214 33.5771C40.1199 33.662 40.1373 33.7461 40.1724 33.8233C40.2075 33.9005 40.2593 33.9688 40.3241 34.0231C40.4757 34.1489 40.6453 34.2508 40.8272 34.3255C41.0223 34.4018 41.2231 34.4624 41.4278 34.5069L41.9233 34.6127C42.2015 34.6828 42.4749 34.7712 42.7416 34.8773C42.9754 34.9679 43.1934 35.0955 43.3873 35.2552C43.5674 35.4135 43.7109 35.6096 43.8077 35.8297ZM53.4927 34.8395C53.4841 35.1527 53.4439 35.4642 53.3726 35.7692L52.8846 37.9916C52.8545 38.1132 52.8344 38.2371 52.8245 38.362C52.8245 38.5132 52.8245 38.6341 52.8245 38.7399C52.8291 38.85 52.8467 38.9591 52.8771 39.065H51.3755V38.5207C51.1727 38.7535 50.9143 38.9304 50.6248 39.0347C50.3298 39.1473 50.0167 39.2037 49.7013 39.201C49.4468 39.2023 49.1935 39.164 48.9505 39.0876C48.7488 39.0144 48.5609 38.907 48.395 38.7702C48.2526 38.6427 48.1398 38.4853 48.0646 38.3091C47.9956 38.1333 47.96 37.9462 47.9595 37.7573C47.9496 37.5165 47.9938 37.2767 48.0886 37.0555C48.1835 36.8343 48.3267 36.6375 48.5076 36.4798C48.9488 36.1235 49.4895 35.9148 50.0542 35.8826C50.407 35.8373 50.7149 35.807 50.9776 35.7844C51.1958 35.7707 51.4121 35.7352 51.6233 35.6785C51.7686 35.6495 51.9034 35.5816 52.0137 35.482C52.1044 35.3691 52.1499 35.2263 52.1413 35.0814C52.1479 34.9578 52.1136 34.8355 52.0437 34.7337C51.981 34.6501 51.9018 34.5806 51.811 34.5296C51.7136 34.4822 51.6099 34.4491 51.5032 34.4313C51.4281 34.4313 49.4761 34.4313 49.4761 34.4313L49.6788 33.4108H51.2629C51.5139 33.415 51.7646 33.4326 52.0137 33.4637C52.2731 33.4957 52.5263 33.5671 52.7645 33.6754C52.9841 33.7709 53.1754 33.9219 53.32 34.1138C53.4557 34.3298 53.5164 34.585 53.4927 34.8395ZM51.7885 36.4118C51.6001 36.5246 51.3904 36.5967 51.1728 36.6234L50.5197 36.6839C50.3804 36.6949 50.2422 36.7176 50.1067 36.7519C49.9791 36.7778 49.8571 36.8265 49.7464 36.8955C49.6457 36.9615 49.5611 37.0493 49.4986 37.1525C49.4322 37.2835 49.3987 37.4288 49.401 37.5758C49.3959 37.6701 49.4171 37.764 49.4622 37.8468C49.5073 37.9296 49.5745 37.9981 49.6563 38.0445C49.8315 38.1474 50.0315 38.1997 50.2344 38.1957C50.4355 38.202 50.6355 38.1633 50.82 38.0823C50.9735 38.016 51.1116 37.9181 51.2254 37.795C51.3342 37.6785 51.4208 37.5426 51.4806 37.3944C51.5455 37.2496 51.6007 37.1006 51.6458 36.9484L51.7885 36.4118ZM46.3679 37.2962L46.961 34.4086H48.0346L48.2673 33.3957H47.1862L47.5991 31.4153H46.0976L45.6922 33.3957H44.7237L44.4909 34.4086H45.4744L45.3393 35.0663L44.8363 37.5078C44.8363 37.6061 44.7912 37.6968 44.7762 37.7875C44.7612 37.8782 44.7762 37.9613 44.7762 38.0294C44.7614 38.2227 44.8004 38.4165 44.8888 38.5887C44.9662 38.7258 45.0774 38.8403 45.2117 38.9213C45.3588 39.005 45.5186 39.0638 45.6847 39.0952C45.8557 39.1254 46.029 39.1405 46.2027 39.1406H46.6832L47.1487 39.1028L47.4039 37.9387C47.2239 37.9504 47.0434 37.9504 46.8634 37.9387H46.6907C46.6324 37.94 46.5751 37.9242 46.5255 37.8933C46.475 37.8651 46.4334 37.8232 46.4054 37.7724C46.3645 37.7015 46.3462 37.6197 46.3529 37.538C46.3529 37.538 46.3529 37.4851 46.3529 37.4398C46.3553 37.3917 46.3603 37.3437 46.3679 37.2962V37.2962ZM54.7916 33.5167L53.6579 39.0423H55.1595L55.67 36.5932C55.7191 36.3621 55.7843 36.1347 55.8652 35.9129C55.9468 35.7038 56.0581 35.5078 56.1955 35.3308C56.3347 35.1615 56.509 35.0248 56.706 34.9302C56.9404 34.819 57.1981 34.7671 57.4568 34.779C57.5642 34.7681 57.6723 34.7681 57.7797 34.779L58.095 34.8395L58.4028 33.3655C58.2451 33.3655 58.0875 33.3655 57.9373 33.3655C57.545 33.3615 57.1588 33.4633 56.8187 33.6603C56.4816 33.8606 56.2182 34.1657 56.0679 34.5296V34.5296L56.2931 33.5393L54.7916 33.5167ZM79.8449 34.8168C79.8363 35.13 79.7961 35.4415 79.7248 35.7466L79.2368 37.9689C79.2067 38.0905 79.1866 38.2144 79.1767 38.3393C79.1767 38.4905 79.1767 38.6114 79.1767 38.7172C79.1776 38.8277 79.1953 38.9373 79.2293 39.0423H77.7278V38.498C77.527 38.7332 77.268 38.9105 76.977 39.012C76.6821 39.1246 76.3689 39.181 76.0535 39.1783C75.799 39.1796 75.5457 39.1414 75.3028 39.065C75.101 38.9917 74.9131 38.8844 74.7472 38.7475C74.6048 38.62 74.492 38.4626 74.4168 38.2864C74.3479 38.1107 74.3122 37.9235 74.3117 37.7346C74.3018 37.4939 74.346 37.254 74.4408 37.0328C74.5357 36.8116 74.6789 36.6149 74.8598 36.4571C75.301 36.1009 75.8417 35.8921 76.4064 35.8599C76.7592 35.8146 77.0671 35.7844 77.3298 35.7617C77.548 35.748 77.7643 35.7125 77.9755 35.6559C78.1208 35.6268 78.2556 35.5589 78.3659 35.4593C78.4566 35.3465 78.5021 35.2036 78.4935 35.0587C78.5001 34.9351 78.4658 34.8128 78.3959 34.711C78.3332 34.6275 78.254 34.5579 78.1632 34.5069C78.0636 34.4584 77.9573 34.4253 77.8479 34.4086C77.7803 34.4086 75.8283 34.4086 75.8283 34.4086L76.031 33.3882H77.6151C77.8661 33.3923 78.1168 33.41 78.3659 33.4411C78.6253 33.4731 78.8785 33.5444 79.1167 33.6527C79.3363 33.7482 79.5277 33.8993 79.6723 34.0911C79.8024 34.3172 79.8527 34.581 79.8149 34.8395L79.8449 34.8168ZM78.1407 36.3891C77.9523 36.5019 77.7426 36.574 77.525 36.6007L76.8719 36.6612C76.7326 36.6722 76.5944 36.6949 76.4589 36.7292C76.3313 36.7552 76.2093 36.8038 76.0986 36.8729C75.998 36.9388 75.9133 37.0266 75.8508 37.1299C75.7844 37.2608 75.7509 37.4061 75.7532 37.5532C75.7481 37.6475 75.7693 37.7413 75.8144 37.8241C75.8596 37.907 75.9268 37.9754 76.0085 38.0218C76.1837 38.1248 76.3837 38.1771 76.5866 38.173C76.7877 38.1793 76.9877 38.1406 77.1722 38.0596C77.3257 37.9933 77.4638 37.8955 77.5776 37.7724C77.6865 37.6558 77.773 37.52 77.8329 37.3717C77.8977 37.227 77.9529 37.078 77.998 36.9258L78.1407 36.3891ZM63.463 31.4153L58.9959 39.0423H60.7452L61.6987 37.3415H64.5366L64.7769 39.0423H66.4361L65.1748 31.4153H63.463ZM62.2993 36.117L63.936 33.0934L64.3114 36.117H62.2993ZM69.1089 39.065L72.112 33.5393H70.5578L68.6208 37.47L68.283 33.5393H66.7289L67.4797 39.065H69.1089ZM72.8102 33.5167L71.654 39.0423H73.1555L74.3267 33.5167H72.8102ZM74.4919 32.6625L74.7697 31.4153H74.5294C74.1683 31.4148 73.8177 31.538 73.5353 31.7646C73.2529 31.9913 73.0554 32.3079 72.9753 32.6625H74.4769H74.4919ZM32.3734 34.8168C32.3723 35.1421 32.3371 35.4665 32.2683 35.7844L31.7803 38.0067C31.7502 38.1283 31.7301 38.2522 31.7202 38.3771C31.7202 38.5283 31.7202 38.6492 31.7202 38.755C31.7211 38.8655 31.7388 38.9751 31.7728 39.0801H30.2712V38.5358C30.0705 38.771 29.8115 38.9483 29.5205 39.0498C29.2252 39.1611 28.9123 39.2174 28.597 39.2161C28.3424 39.2179 28.0891 39.1796 27.8462 39.1028C27.6437 39.0312 27.4555 38.9237 27.2907 38.7853C27.1483 38.6578 27.0355 38.5004 26.9603 38.3242C26.8914 38.1485 26.8557 37.9613 26.8552 37.7724C26.8453 37.5317 26.8895 37.2918 26.9844 37.0706C27.0792 36.8494 27.2224 36.6527 27.4033 36.4949C27.8322 36.1473 28.3558 35.9391 28.9048 35.8977L29.8283 35.7995C30.049 35.7863 30.2678 35.7509 30.4815 35.6936C30.6262 35.6629 30.7606 35.5952 30.8719 35.4971C30.9625 35.3843 31.0081 35.2414 30.9995 35.0965C31.0061 34.9729 30.9717 34.8506 30.9019 34.7488C30.8381 34.6634 30.756 34.5937 30.6617 34.5447C30.5651 34.4951 30.4611 34.4619 30.3538 34.4464C30.2863 34.4464 28.3343 34.4464 28.3343 34.4464L28.6871 33.4259H30.1211C30.3721 33.4301 30.6227 33.4478 30.8719 33.4789C31.1313 33.5109 31.3844 33.5822 31.6226 33.6905C31.8422 33.786 32.0336 33.9371 32.1782 34.1289C32.3262 34.3357 32.4051 34.5846 32.4035 34.8395L32.3734 34.8168ZM30.6692 36.3891C30.4808 36.5019 30.2711 36.574 30.0535 36.6007L29.4004 36.6612C29.261 36.6716 29.1228 36.6944 28.9874 36.7292C28.8598 36.7552 28.7378 36.8038 28.6271 36.8729C28.5264 36.9388 28.4418 37.0266 28.3793 37.1299C28.3129 37.2608 28.2794 37.4061 28.2817 37.5532C28.2766 37.6475 28.2978 37.7413 28.3429 37.8241C28.388 37.907 28.4552 37.9754 28.537 38.0218C28.7122 38.1248 28.9122 38.1771 29.1151 38.173C29.3162 38.1793 29.5162 38.1406 29.7007 38.0596C29.8542 37.9933 29.9922 37.8955 30.1061 37.7724C30.2149 37.6558 30.3015 37.52 30.3613 37.3717C30.4262 37.227 30.4814 37.078 30.5265 36.9258L30.6692 36.3891ZM15.999 36.8048C15.977 37.1343 16.0267 37.4647 16.1448 37.7728C16.2628 38.081 16.4462 38.3594 16.6822 38.5887C17.2007 39.0041 17.8524 39.2139 18.5141 39.1783C18.973 39.185 19.4282 39.0949 19.8505 38.9138C20.2364 38.7384 20.5797 38.4805 20.8565 38.1579C21.1396 37.8374 21.3543 37.4618 21.4872 37.0543C21.6335 36.6158 21.707 36.1562 21.7049 35.6936C21.7151 35.339 21.6511 34.9862 21.5172 34.6581C21.4085 34.3653 21.2276 34.1052 20.9917 33.9022C20.7542 33.7014 20.4782 33.5521 20.1808 33.4637C19.8438 33.3674 19.4951 33.3191 19.1448 33.3201C18.6923 33.313 18.2438 33.4059 17.8309 33.5922C17.451 33.7705 17.1131 34.0282 16.8399 34.3481C16.5652 34.6718 16.3515 35.0433 16.2092 35.4442C16.0703 35.8914 16.0094 36.3594 16.029 36.8275L15.999 36.8048ZM17.5006 36.8653C17.5022 36.5828 17.535 36.3014 17.5982 36.0262C17.6569 35.7402 17.7528 35.4631 17.8835 35.2023C18.0057 34.96 18.174 34.7442 18.379 34.5674C18.5792 34.3996 18.8318 34.3086 19.0922 34.3104C19.2543 34.2947 19.4177 34.3204 19.5673 34.3851C19.7169 34.4499 19.8479 34.5515 19.9481 34.6807C20.1268 34.9786 20.2131 35.3234 20.1958 35.671C20.1932 35.953 20.163 36.234 20.1058 36.51C20.0423 36.8006 19.944 37.0824 19.813 37.3491C19.6877 37.5937 19.517 37.8119 19.3099 37.9916C19.0985 38.1646 18.8313 38.2534 18.5592 38.241C18.3969 38.2441 18.2366 38.205 18.0937 38.1276C17.9596 38.0542 17.844 37.9507 17.7558 37.8253C17.6627 37.6915 17.5917 37.5435 17.5456 37.3869C17.5196 37.2219 17.5146 37.0542 17.5306 36.888L17.5006 36.8653ZM24.1825 39.8133L27.6736 33.5167H26.112L24.2125 37.47L23.7095 33.5167H22.1629L23.1389 38.9894C23.0837 39.0571 23.0359 39.1306 22.9962 39.2086C22.95 39.2968 22.8919 39.3782 22.8236 39.4505C22.7516 39.5316 22.6649 39.5983 22.5683 39.647C22.4332 39.7045 22.2868 39.7304 22.1404 39.7226C22.0405 39.7334 21.9399 39.7334 21.84 39.7226C21.7402 39.7118 21.6396 39.7118 21.5397 39.7226L21.2845 40.9849C21.417 40.9772 21.5499 40.9772 21.6824 40.9849H22.0803C22.3316 40.9895 22.5828 40.9718 22.8311 40.932C23.0245 40.905 23.2121 40.8463 23.3866 40.7582C23.558 40.6699 23.711 40.5493 23.8371 40.4029C23.9785 40.2254 24.1041 40.0357 24.2125 39.836L24.1825 39.8133ZM34.363 31.4153L32.7563 39.0423H34.2579L35.872 31.4153H34.363ZM13.5665 35.5651C13.8443 35.5651 14.1371 35.4971 14.3173 35.4593C14.5618 35.4227 14.7981 35.3434 15.0155 35.225C15.2245 35.106 15.4123 34.9527 15.5711 34.7714C15.7238 34.5831 15.8455 34.3713 15.9314 34.1441C16.0182 33.9017 16.0614 33.6457 16.0591 33.3882C16.0691 33.0651 16.0129 32.7435 15.8939 32.4433C15.797 32.2023 15.6422 31.9894 15.4434 31.8234C15.223 31.6525 14.9659 31.536 14.6927 31.4833C14.3901 31.4128 14.0796 31.3823 13.7692 31.3926H10.2331L8.64893 39.0196H10.3006L10.9313 35.996L11.6295 32.6549H13.2136C13.3686 32.6434 13.5242 32.6434 13.6791 32.6549C13.8156 32.6747 13.9477 32.7182 14.0695 32.7834C14.1848 32.8515 14.2785 32.9511 14.3398 33.0707C14.4156 33.2229 14.4518 33.3919 14.4449 33.562C14.4488 33.7557 14.3994 33.9466 14.3023 34.1138C14.2041 34.2669 14.0733 34.396 13.9194 34.4918C13.7481 34.5893 13.5634 34.6606 13.3713 34.7034C13.1617 34.7496 12.9477 34.7724 12.7331 34.7714H11.6295L14.5951 40.8867H16.2167L13.5665 35.5651Z" fill="#005CB9"/>
<path d="M92 21.0745L91.6246 22.0647L91.3468 21.9815C78.6662 18.202 62.5621 16.1536 46 16.1536C29.4379 16.1536 13.3338 18.2247 0.653176 21.9815L0.375388 22.0647L0 21.0745L0.255267 20.946C12.2677 15.1255 28.5295 11.9205 46 11.9205C63.4705 11.9205 79.7173 15.1255 91.7447 20.946L92 21.0745ZM12.3427 20.757L11.2842 26.0936H17.6432L18.927 19.6383C16.6747 19.9709 14.4825 20.3488 12.3427 20.757V20.757ZM20.1959 12.8578L21.6298 5.54829H25.3837C27.9439 5.54829 29.1376 6.9467 28.6721 9.32779C28.5086 10.2074 28.0967 11.021 27.4859 11.6711C29.7908 11.3536 32.1482 11.0966 34.5432 10.9152C34.6669 10.5203 34.7697 10.1192 34.851 9.7133C35.9471 4.22547 32.5987 0.400617 26.9153 0.400617H16.4044L13.604 14.483C15.7513 13.8632 17.936 13.3114 20.1959 12.8578V12.8578ZM23.0713 19.0789L25.6915 26.0936H32.3434L29.3403 18.4288C27.2081 18.6102 25.1184 18.8269 23.0713 19.0789V19.0789ZM46 10.3709C46.8334 10.3709 47.6592 10.3709 48.4851 10.3709C45.1366 9.35046 44.2657 8.60969 44.521 7.18104C44.7762 5.9338 46.0225 5.26861 48.1022 5.26861C50.4235 5.24128 52.6876 5.99405 54.5363 7.4078L57.8998 3.06138C55.2165 0.944482 51.8769 -0.150427 48.47 -0.030246C42.9819 -0.030246 39.3256 2.39619 38.4547 6.88623C38.1739 8.09343 38.2206 9.35442 38.5898 10.5372C41.0324 10.4314 43.5024 10.376 46 10.3709V10.3709ZM49.1157 17.7334C49.2814 18.1057 49.3236 18.5219 49.2358 18.9202C48.9806 20.2808 47.5166 21.014 45.0315 21.014C42.3515 21.0412 39.753 20.0876 37.7189 18.3306L34.393 22.866C36.9532 25.1866 40.5719 26.4338 44.7762 26.4338C50.6623 26.4338 54.5363 23.8562 55.4523 19.2603C55.5387 18.829 55.5939 18.392 55.6174 17.9526C53.4627 17.8392 51.293 17.7636 49.1157 17.7334V17.7334ZM69.1089 12.3514L71.9393 7.06009L72.8177 13.1073C74.8298 13.5382 76.7818 14.0144 78.6887 14.5359L76.2187 0.332583H69.6344L63.2303 11.4519C65.2273 11.7013 67.1869 12.0037 69.1089 12.3514ZM59.3488 18.1718L54.7916 26.0936H61.7738L65.7153 18.7161C63.6182 18.5044 61.501 18.3205 59.3638 18.1643L59.3488 18.1718ZM73.7787 19.7516L74.7021 26.1012H80.7083L79.7774 20.8099C77.8329 20.4017 75.8133 20.0616 73.7937 19.7441L73.7787 19.7516Z" fill="#3DAE2B"/>
</g>
<defs>
<clipPath id="clip0_221_1406">
<rect width="92" height="41" fill="white"/>
</clipPath>
</defs>
</svg>
