<svg xmlns="http://www.w3.org/2000/svg" width="85.04" height="85.03"><path d="M77.06 17.73c9.38 13.07 10.88 30.92 2.4 45.81-.34.59-.7 1.21-1.07 1.78-12.08 19.02-37.11 25.4-56.89 14.15C1.68 68.21-5.59 43.44 4.57 23.34c.32-.62.66-1.22 1-1.84C14.04 6.59 30.14-1.23 46.19.15 39.84.98 21.07-1.28 7.86 21.98c-.45.82-.91 1.64-1.3 2.49-9.09 18.94-2.13 41.93 16.41 52.47 18.51 10.55 41.87 4.79 53.46-12.7.51-.76 1.02-1.58 1.48-2.41 13.23-23.27.53-39.65-.85-44.1" fill="#94bc3c" fill-rule="evenodd"/><path d="M50.76 7.78a.43.43 0 00-.41.43v.01c.1 1.19-.09 2.39-.53 3.51-.42 1.13-1.08 2.17-1.84 3.13-1.53 1.92-3.43 3.55-5.36 5.11-1.94 1.56-3.92 3.09-5.86 4.67-1.93 1.6-3.81 3.29-5.48 5.2-.83.95-1.62 1.96-2.32 3.03-.35.54-.67 1.09-.98 1.67-.14.28-.29.54-.43.84-.13.29-.28.58-.41.88-1.02 2.36-1.63 4.94-1.65 7.56 0 1.32.14 2.64.45 3.93.34 1.28.81 2.54 1.47 3.7a14.35 14.35 0 002.4 3.19c.47.48.98.92 1.51 1.33.52.4 1.24.73 1.84.61.45-.09.63-.66.71-.96 5.39-19.42 19.66-21.35 19.75-39.11 0 .51.22 1.19.31 2.07.09.96.14 2.12.07 3.46a27.57 27.57 0 01-.61 4.42c-.35 1.61-.85 3.31-1.49 5.07a60.17 60.17 0 01-2.32 5.43c-1.79 3.7-3.99 7.5-6.21 11.3-2.22 3.81-4.46 7.63-6.28 11.43-.91 1.89-1.72 3.78-2.36 5.64-.64 1.85-1.11 3.68-1.37 5.42-.27 1.74-.33 3.39-.22 4.86.11 1.47.37 2.74.66 3.77.17.51.3.96.46 1.37.08.2.16.39.23.56.03.08.06.17.1.24.03.07.05.13.08.19.22.47.33.72.33.72.02.03.03.06.05.09.47.9 1.59 1.24 2.49.77.9-.48 1.25-1.59.77-2.49l-.37-.71c-.03-.05-.06-.11-.09-.18-.03-.05-.05-.11-.08-.17-.06-.12-.12-.25-.18-.39-.13-.28-.27-.66-.42-1.06-.28-.81-.54-1.83-.7-3.03-.15-1.21-.18-2.61-.02-4.14.14-1.54.48-3.22.99-4.97.49-1.75 1.17-3.59 1.95-5.46.07-.19.16-.37.24-.56l.12.02c.38.06.8.1 1.2.16.8.08 1.59.12 2.39.12 1.59-.01 3.19-.2 4.74-.58 1.55-.38 3.06-.96 4.46-1.71 1.41-.75 2.72-1.67 3.91-2.71 2.38-2.09 4.28-4.65 5.72-7.42 1.44-2.77 2.43-5.75 3.01-8.8.57-3.05.73-6.17.45-9.25-.28-3.08-1-6.13-2.2-8.99-1.2-2.86-2.89-5.52-5.02-7.76-2.12-2.26-4.68-4.08-7.46-5.42a.585.585 0 00-.19-.04" fill="#94bc3c"/></svg>