<svg xmlns="http://www.w3.org/2000/svg" width="85.04" height="85.03"><style>.st1{fill:#94bc3c}</style><path d="M77.06 17.73c9.38 13.07 10.88 30.92 2.4 45.81-.34.59-.7 1.21-1.07 1.78-12.08 19.02-37.11 25.4-56.89 14.15C1.68 68.21-5.59 43.44 4.57 23.34c.32-.62.66-1.22 1-1.84C14.04 6.59 30.14-1.23 46.19.15 39.84.98 21.07-1.28 7.86 21.98c-.45.82-.91 1.64-1.3 2.49-9.09 18.94-2.13 41.93 16.41 52.47 18.51 10.55 41.87 4.79 53.46-12.7.51-.76 1.02-1.58 1.48-2.41 13.23-23.27.53-39.65-.85-44.1" fill="#94bc3c" fill-rule="evenodd"/><path class="st1" d="M62.47 32.43c-.07.49-.09 1.27-.12 2.16-.18 6.38-.56 19.65-18.37 29.99l-.8.46-.8-.46c-17.63-10.25-18.1-23.42-18.32-29.75-.03-.98-.07-1.83-.15-2.38l-.42-2.48c6.97 1.92 14.77 1.5 19.71-3.59 4.91 5.12 12.82 5.51 19.62 3.6zm-19.14-9.02c-7.35 7.63-11.98 7.06-21.74 4.41l.81 4.88c.07.45.1 1.25.14 2.16.21 6.11.71 20.38 19.07 31.04l1.57.91 1.57-.91C63.29 55.13 63.7 40.77 63.87 34.63c.03-.81.05-1.58.11-1.99l.68-4.79c-8.88 2.43-14.09 3.5-21.33-4.44"/><path class="st1" d="M43.18 29.67c-.97.79-3.34 2.36-7.67 3.2-4.36.84-7.66.5-9.22.23.03.48.05 1.02.07 1.65.22 5.87.64 18.05 16.82 27.62 16.35-9.66 16.7-21.93 16.86-27.84.01-.54.03-1.01.05-1.44-1.55.28-4.86.62-9.23-.22-4.34-.84-6.71-2.41-7.68-3.2"/><path d="M36.09 45.37s-.75-3.72-1.01-3.98c-.27-.27-4.04-1.12-4.04-1.12s3.73-.76 3.99-1.02c.27-.27 1.11-4.03 1.11-4.03s.75 3.72 1 3.98c.28.27 4.05 1.12 4.05 1.12s-3.78.81-4.06 1.08c-.26.26-1.04 3.97-1.04 3.97m6.78 4.81s-.5-2.46-.67-2.63c-.18-.19-2.68-.75-2.68-.75s2.47-.5 2.64-.67c.18-.18.74-2.68.74-2.68s.49 2.47.66 2.64c.19.18 2.69.74 2.69.74s-2.51.54-2.69.72c-.17.17-.69 2.63-.69 2.63" fill="#fff"/></svg>