<svg xmlns="http://www.w3.org/2000/svg" width="85.04" height="85.03"><style>.st1{fill:#94bc3c}</style><path d="M77.06 17.73c9.38 13.07 10.88 30.92 2.4 45.81-.34.59-.7 1.21-1.07 1.78-12.08 19.02-37.11 25.4-56.89 14.15C1.68 68.21-5.59 43.44 4.57 23.34c.32-.62.66-1.22 1-1.84C14.04 6.59 30.14-1.23 46.19.15 39.84.97 21.07-1.28 7.86 21.98c-.45.82-.91 1.64-1.3 2.49-9.09 18.94-2.13 41.93 16.41 52.47 18.51 10.55 41.87 4.79 53.46-12.7.51-.76 1.02-1.58 1.48-2.41 13.23-23.27.53-39.65-.85-44.1" fill="#94bc3c" fill-rule="evenodd"/><path class="st1" d="M30.39 47.85l4.03 4.03-5.37 5.37-4.02-4.03z"/><path class="st1" d="M29.05 46.51l2.69 2.68-5.37 5.37-2.69-2.68zm-9.76 23.12l8.42-11.03-2.69-5.37L10.73 70.2a5.71 5.71 0 008.56-.57"/><path class="st1" d="M16.1 67.52c.19-.19.35-.38.5-.58l8.42-11.03v-2.68h-2.68l-11.03 8.42c-.2.15-.39.31-.57.5a5.68 5.68 0 000 8.05c.74.74 3.14-.46 5.36-2.68M49.18 8.97c12.59 0 22.78 10.2 22.78 22.78 0 12.58-10.19 22.78-22.78 22.78-12.58 0-22.78-10.2-22.78-22.78 0-12.58 10.2-22.78 22.78-22.78"/><path class="st1" d="M35.76 50.54l-2.68-2.68-2.69 2.68 2.69 2.69c.74.74 1.94.74 2.68 0 .74-.74.74-1.95 0-2.69"/><path class="st1" d="M33.08 50.54c.74-.74.74-1.94 0-2.68l-2.69-2.69c-.74-.74-1.94-.74-2.68 0-.74.74-.74 1.95 0 2.69l2.68 2.68c.74.74 1.95.74 2.69 0m-2.69 5.37l-2.68-2.68-2.69 2.68 2.69 2.69c.74.74 1.94.74 2.68 0 .74-.74.74-1.95 0-2.69"/><path class="st1" d="M27.71 55.91c.74-.74.74-1.94 0-2.68l-2.69-2.69c-.74-.74-1.94-.74-2.68 0-.74.74-.74 1.95 0 2.69l2.68 2.68c.74.74 1.95.74 2.69 0m32.21-13.42c7.42-7.41 8.62-18.23 2.69-24.16-7.42-7.42-19.44-7.42-26.85 0-7.41 7.41-7.41 19.43 0 26.84 5.93 5.93 16.75 4.73 24.16-2.68"/><path d="M67.71 31.75c0 10.23-8.29 18.53-18.52 18.53-10.24 0-18.53-8.3-18.53-18.53s8.29-18.52 18.53-18.52c10.23 0 18.52 8.29 18.52 18.52" fill="#fff"/><path class="st1" d="M41.62 34.13s-.92-4.57-1.23-4.88c-.34-.35-4.98-1.38-4.98-1.38s4.59-.94 4.91-1.26c.33-.33 1.36-4.95 1.36-4.95s.92 4.57 1.24 4.88c.33.34 4.97 1.38 4.97 1.38s-4.65 1-4.99 1.34c-.31.31-1.28 4.87-1.28 4.87m8.33 5.92s-.61-3.03-.82-3.24c-.22-.23-3.29-.91-3.29-.91s3.04-.62 3.25-.83c.22-.23.9-3.29.9-3.29s.61 3.03.82 3.24c.23.22 3.3.91 3.3.91s-3.08.66-3.31.89c-.21.21-.85 3.23-.85 3.23m5.55-8.62s-.44-2.15-.58-2.3c-.16-.16-2.34-.65-2.34-.65s2.15-.44 2.3-.59c.16-.16.64-2.33.64-2.33s.44 2.15.59 2.3c.16.16 2.34.65 2.34.65s-2.19.47-2.35.62c-.15.15-.6 2.3-.6 2.3"/></svg>