<svg xmlns="http://www.w3.org/2000/svg" width="85.04" height="85.03"><style>.st4{stroke:#94bd3b;fill:none;stroke-width:1}</style><path d="M77.06 17.73c9.38 13.07 10.88 30.92 2.4 45.81-.34.59-.7 1.21-1.07 1.78-12.08 19.02-37.11 25.4-56.89 14.15C1.68 68.21-5.59 43.44 4.57 23.34c.32-.62.66-1.22 1-1.84C14.04 6.59 30.14-1.23 46.19.15 39.84.97 21.07-1.28 7.86 21.98c-.45.82-.91 1.64-1.3 2.49-9.09 18.94-2.13 41.93 16.41 52.47 18.51 10.55 41.87 4.79 53.46-12.7.51-.76 1.02-1.58 1.48-2.41 13.23-23.27.53-39.65-.85-44.1" fill="#94bc3c" fill-rule="evenodd"/><path d="M59.58 36.68c.51 1.96-.49 4.08-.5 6.01-.01 2 .95 4.13.43 6.01-.53 1.91-2.45 3.25-3.45 4.95-.99 1.69-1.21 4.03-2.62 5.42-1.39 1.38-3.72 1.58-5.46 2.57-1.67.95-3.03 2.86-4.99 3.38-1.95.51-4.07-.5-6-.51-2-.01-4.13.95-6.02.44-1.9-.53-3.24-2.46-4.94-3.45-1.7-.99-4.03-1.22-5.43-2.63-1.37-1.38-1.58-3.71-2.56-5.45-.96-1.68-2.87-3.04-3.38-4.99-.51-1.96.49-4.08.5-6.01.01-2-.95-4.13-.43-6.01.53-1.91 2.45-3.25 3.45-4.95.99-1.69 1.22-4.03 2.62-5.42 1.39-1.38 3.72-1.58 5.46-2.57 1.67-.95 3.03-2.86 4.99-3.37 1.95-.52 4.07.49 6 .5 2 .01 4.13-.95 6.02-.44 1.91.53 3.25 2.46 4.94 3.45 1.7.99 4.04 1.22 5.43 2.63 1.37 1.38 1.58 3.71 2.56 5.45.96 1.68 2.87 3.04 3.38 4.99" fill="#94bc3c"/><path d="M56.48 37.49c.44 1.69-.42 3.52-.43 5.18-.01 1.72.82 3.56.37 5.18-.45 1.65-2.11 2.8-2.97 4.27-.85 1.46-1.05 3.47-2.26 4.68-1.2 1.18-3.21 1.36-4.7 2.21-1.45.82-2.62 2.47-4.31 2.91-1.68.44-3.51-.43-5.17-.43-1.73-.01-3.57.82-5.19.37-1.64-.45-2.8-2.12-4.26-2.97-1.46-.86-3.48-1.05-4.68-2.27-1.18-1.19-1.36-3.2-2.21-4.7-.82-1.45-2.47-2.62-2.91-4.3-.44-1.69.42-3.52.43-5.18.01-1.72-.82-3.56-.37-5.18.45-1.65 2.11-2.8 2.97-4.27.86-1.46 1.05-3.47 2.26-4.68 1.2-1.18 3.21-1.35 4.71-2.21 1.44-.82 2.61-2.47 4.3-2.91 1.69-.44 3.51.43 5.18.44 1.72.01 3.56-.82 5.18-.38 1.65.46 2.8 2.12 4.26 2.97 1.47.86 3.48 1.05 4.68 2.27 1.19 1.19 1.36 3.2 2.21 4.7.82 1.45 2.47 2.62 2.91 4.3z" stroke="#fff" fill="none" stroke-width="2" stroke-linecap="round"/><path d="M35.18 26.91a2.08 2.08 0 00-2.54-1.48 2.07 2.07 0 00-1.48 2.53 2.075 2.075 0 002.53 1.49 2.086 2.086 0 001.49-2.54" fill="#fff" stroke-linecap="round"/><path class="st4" d="M34.33 20.73a2.445 2.445 0 00-2.91-1.87 2.431 2.431 0 00-1.86 2.9"/><path class="st4" d="M33.61 25.76c-1.28-5.91-1.15-15.85-2.2-20.69-.59-2.74-1.77-3.8-2.68-4.2-.8-.35-1.72-.15-2.29.5-.67.74-1.3 2.19-.71 4.93 1.05 4.84 5.27 13.83 6.56 19.75"/></svg>