<svg xmlns="http://www.w3.org/2000/svg" width="85.04" height="85.03"><path d="M77.06 17.73c9.38 13.06 10.88 30.92 2.4 45.81-.34.59-.7 1.21-1.07 1.78-12.08 19.02-37.11 25.4-56.89 14.15C1.68 68.21-5.59 43.44 4.57 23.34c.32-.62.66-1.22 1-1.84C14.04 6.59 30.14-1.23 46.19.15 39.84.97 21.07-1.28 7.86 21.98c-.45.82-.91 1.64-1.3 2.49-9.09 18.94-2.13 41.93 16.41 52.47 18.51 10.55 41.87 4.79 53.46-12.7.51-.76 1.02-1.58 1.48-2.41 13.23-23.27.53-39.65-.85-44.1" fill="#94bc3c" fill-rule="evenodd"/><path d="M64.61 17.03C50.51 8.99 37.38 27.15 34.56 32.4c-2.82 5.26-7.5 28.67 2.06 41.52 12.47 15.81 21.35 5.31 17.1 2.45-3 7.34-8.37-2.78-6.18-8.58 1.28-4.42 6.2-9.75 7.62-11.4 1.43-1.65-.72-5.14-3.3-6.14-1.38-.54-8.52 1.23-9.95-.45-1.59-1.75.54-4.09.35-4.19-.4-.22-1.66.1-1.86-.94-.19-1.05.79-1.32.79-1.32s-1.14-.52-1.11-1.21c.02-.7 1.06-1.14 1.06-1.74.04-1.47-1.63-1.28-1.69-2.33-.07-1.06 3.88-4.39 4.32-5.44.43-1.04-.64-4.15.82-4.63 1.46-.49 1.51 1.71 2.23 2.4.71.69 3.19 1.79 3.82 2.14.64.36 1.12 3.36-.93 3.16 1.36 1.24 2-.1 2.38-.26.38-.16 1.81 2.23 1.88 3.36.08 1.13-.71 2.68-2.4 1.25-.74 2.99 4.87 2.55 5.15 2.75.29.2 4.19 9.38 5.71 9.16 11.38-2.17 19.72-25.35 2.18-34.93" fill="#94bc3c"/></svg>