<svg xmlns="http://www.w3.org/2000/svg" width="85.04" height="85.03"><style>.st2{fill:#94bc3c}</style><path d="M77.05 17.73c9.39 13.07 10.89 30.92 2.41 45.81-.34.59-.7 1.21-1.07 1.78-12.08 19.02-37.11 25.4-56.89 14.15C1.68 68.21-5.59 43.44 4.57 23.34c.31-.62.65-1.22.99-1.84C14.04 6.59 30.14-1.23 46.19.15 39.84.98 21.07-1.28 7.86 21.98c-.45.82-.91 1.64-1.3 2.49-9.09 18.94-2.13 41.93 16.41 52.47 18.51 10.55 41.87 4.79 53.46-12.69.51-.77 1.02-1.59 1.48-2.42 13.23-23.27.53-39.65-.86-44.1" fill="#94bc3c" fill-rule="evenodd"/><path d="M18.16 34.12c-1.33-5.05 8.01-4.27 8.01-4.27s-.7-.86-.47-2.3c.52-3.25 7.27-.78 8.35-3.19.54-1.21-.1-5.03-1.6-5.68 2.12-.96 10.77-.22 11.24 7.31.93.05 1.72-.07 2.46.69.58.59 1.27 2.03.75 2.87 3.1-.26 2.88 3.48 2.96 6.21l-31.7-1.64z" stroke="#94bd3b" fill="none"/><path class="st2" d="M40.43 25.99c.93.05 1.72-.07 2.46.69.58.59 1.27 2.03.75 2.87 3.04-.26 2.89 3.33 2.96 6.04l3.26.17c-.08-2.73.14-6.47-2.96-6.21.52-.84-.17-2.28-.75-2.87-.74-.76-1.53-.64-2.46-.69-.44-6.95-7.84-8.11-10.64-7.49 3.2.52 7.07 2.53 7.38 7.49m7.03 39.47c0 1.64-1.45 2.66-3.26 2.66H24.04c-2.06 0-3.26-.91-3.26-2.66v-1.47c0-2.77 2.37-5.03 5.28-5.03h16.12c2.91 0 5.28 2.26 5.28 5.03z"/><path class="st2" d="M18.13 35.51v26.1c0 2.37 1.77 4.3 3.94 4.3h24.11c2.17 0 3.94-1.93 3.94-4.3v-26.1z"/><path d="M20.78 38.36h28.2v19.49h-28.2z" fill="#fff"/><path class="st2" d="M50.99 34.85c0 .61-.37 1.09-.83 1.09H18.2c-.46 0-.83-.48-.83-1.09 0-.6.37-1.08.83-1.08h31.96c.46 0 .83.48.83 1.08"/><path class="st2" d="M71.58 43.13c5.65 12.89-1.89 20.23-5.74 21.92-.79.35-2.62 1.15-4.11 1.81-6.86 3-15.08-2.08-19.02-11.07-3.94-8.99-2.12-18.49 4.74-21.49 1.19-.53 3.29-1.44 4.45-1.94 1.16-.51 13.37-3.61 19.68 10.77"/><path class="st2" d="M71.11 43.33c3.85 8.77 1.41 18.32-5.44 21.32-6.86 3.01-15.53-1.66-19.38-10.43-3.84-8.78-1.41-18.32 5.45-21.33 6.85-3 15.52 1.67 19.37 10.44"/><path d="M69.19 44.17c3.08 7.04 1.01 14.75-4.64 17.23-5.64 2.47-12.72-1.22-15.8-8.26-3.09-7.04-1.02-14.75 4.63-17.23 5.64-2.47 12.72 1.23 15.81 8.26z" stroke="#fff" fill="none"/><path class="st2" d="M35.06 20.31c-.48-.64-1.43-.1-1.08.63.32.69.53 1.39.82 2.08.37.87-.18 1.54-.36 2.32-.04.17.08.39.27.37.95-.11 1.13-1.37 1.16-2.14.05-1.08-.15-2.36-.81-3.26m-4.46 6.08c-.46-.13-1.11-.04-1.58.02-.53.06-1.05.17-1.51.44-.92.55-.98 1.98-.16 2.65.28.23.76.11.75-.31-.01-.35-.32-.86-.03-1.15.23-.23.77-.22 1.07-.24.51-.03 1.08.04 1.57-.1.78-.21.53-1.13-.11-1.31m-3.98 4.18c-1.83-.68-7.08-.8-6.96 2.19.01.19.23.23.33.09 1.51-2.14 4.27-1.45 6.5-1.27.61.05.64-.82.13-1.01m14.18-2.28c-.75-.65-2.01-.7-2.93-.48-.41.1-.8.38-1.03.73-.9-.35-2.03-.35-2.85-.19-1.22.24-2.64 1.71-1.66 2.93.14.18.48.12.57-.07.18-.34.18-.78.42-1.08.28-.34.79-.46 1.21-.5.99-.09 1.67.34 2.54.71.56.24 1.32-.29.92-.92a1.12 1.12 0 00-.17-.2c.13-.12.31-.19.58-.22.65-.08 1.18.13 1.77.37.6.25 1.09-.67.63-1.08"/></svg>