<svg width="28" height="28" viewBox="0 0 28 28" fill="none" xmlns="http://www.w3.org/2000/svg">
<path id="Icon" d="M26.1757 4.91784C26.1757 16.6834 16.6378 26.2212 4.87229 26.2212C4.34147 26.2212 3.81518 26.2018 3.29409 26.1636C2.69608 26.1198 2.39707 26.0979 2.12489 25.9412C1.89946 25.8114 1.68566 25.5814 1.57268 25.3471C1.43627 25.0642 1.43627 24.7343 1.43627 24.0744V20.2022C1.43627 19.6473 1.43627 19.3698 1.5276 19.132C1.60827 18.9219 1.73931 18.7348 1.9092 18.5872C2.10152 18.42 2.36228 18.3252 2.88379 18.1356L2.88381 18.1356L7.29132 16.5328C7.89809 16.3122 8.20148 16.2019 8.48933 16.2206C8.74314 16.2371 8.98739 16.3237 9.1949 16.4708C9.43023 16.6376 9.59632 16.9145 9.9285 17.4681L11.0571 19.3492C14.6991 17.6997 17.6517 14.7433 19.3036 11.1027L17.4225 9.97405C16.8689 9.64187 16.5921 9.47577 16.4253 9.24044C16.2782 9.03294 16.1916 8.78869 16.175 8.53487C16.1563 8.24703 16.2666 7.94364 16.4873 7.33686L18.09 2.92936C18.2797 2.40784 18.3745 2.14707 18.5416 1.95474C18.6892 1.78485 18.8763 1.65382 19.0864 1.57314C19.3243 1.48181 19.6017 1.48181 20.1567 1.48181H24.0288C24.6887 1.48181 25.0187 1.48181 25.3016 1.61823C25.5359 1.73121 25.7659 1.94501 25.8957 2.17044C26.0524 2.44261 26.0743 2.74162 26.1181 3.33964C26.1562 3.86072 26.1757 4.38701 26.1757 4.91784Z" stroke="white" stroke-width="1.90303" stroke-linecap="round" stroke-linejoin="round"/>
</svg>
