<svg width="729" height="528" viewBox="0 0 729 528" fill="none" xmlns="http://www.w3.org/2000/svg">
<g opacity="0.1">
<path d="M503.44 28.4307C502.538 37.3436 501.861 38.2461 501.861 30.8C501.861 25.6102 501.636 25.0461 499.042 24.3692C494.869 23.3538 495.658 21.4359 500.169 21.4359H504.229L503.44 28.4307Z" fill="black"/>
<path d="M497.012 31.5898C497.012 34.9744 496.786 36.4411 496.561 34.6359C496.335 32.9436 496.335 30.2359 496.561 28.4308C496.786 26.7385 497.012 28.2052 497.012 31.5898Z" fill="black"/>
<path d="M500.733 62.0513C500.733 62.6154 501.523 63.1795 502.425 63.1795C503.327 63.1795 504.117 63.6308 504.117 64.1949C504.117 64.759 507.049 69.2718 510.658 74.1231C521.259 88.4513 528.364 98.8308 525.883 96.4616C524.529 95.2206 520.695 90.2564 517.199 85.2923C513.703 80.441 510.883 76.8308 510.883 77.2821C510.883 77.7334 514.154 84.7282 518.214 92.8513C525.996 108.533 526.108 108.759 524.529 107.856C523.514 107.18 508.402 76.9436 506.259 71.3026C504.117 65.6616 502.989 69.0462 502.989 81.6821C502.989 97.5898 503.666 101.538 506.485 101.538C508.289 101.538 508.628 100.636 508.628 95.8975C508.628 89.3539 506.711 88.2257 506.034 94.4308C505.696 98.1539 505.583 97.9282 505.47 93.077C505.244 88 505.47 87.3231 507.5 87.3231C509.53 87.3231 509.756 88.1129 509.756 94.7693V102.215L515.62 103.795C521.146 105.149 521.372 105.374 518.552 106.164C516.861 106.615 513.703 106.503 511.447 106.051C509.304 105.6 507.5 105.262 507.387 105.374C507.274 105.374 507.049 109.21 506.823 113.61C506.598 118.687 506.936 121.846 507.613 121.846C508.289 121.846 508.515 120.831 508.064 119.59C507.5 118.01 507.838 117.333 509.079 117.333C510.207 117.333 510.883 118.349 510.883 120.041C510.883 122.862 512.688 123.99 516.861 124.215C518.214 124.215 521.372 125.005 523.853 125.908C527.913 127.262 528.026 127.374 524.755 126.923C522.725 126.697 520.808 126.923 520.469 127.487C520.131 128.051 519.229 128.277 518.439 128.051C513.026 126.472 509.868 126.585 509.417 128.39C508.966 130.195 508.853 130.195 508.741 128.277C508.741 127.262 508.064 126.359 507.387 126.359C506.598 126.359 506.372 127.938 506.823 130.533C507.162 132.903 507.726 138.882 508.064 143.846C508.402 148.81 508.966 155.241 509.304 158.174C509.981 164.041 509.304 163.59 523.289 167.087C530.619 168.892 526.559 170.585 518.101 169.231C509.868 167.877 509.756 167.877 509.756 169.231C509.756 169.795 510.545 170.359 511.447 170.359C512.801 170.359 513.139 172.841 513.364 182.995L513.703 195.744L534.567 199.015C549.002 201.385 554.528 202.626 552.611 203.19L549.792 203.98L552.611 204.205C554.19 204.318 554.867 204.656 554.19 204.882C553.513 205.221 544.153 204.092 533.439 202.513C522.725 200.933 513.816 199.805 513.59 199.918C513.477 200.144 513.139 204.769 512.913 210.41L512.575 220.451L530.056 223.497C550.13 227.108 567.723 231.056 564.453 231.169C563.212 231.282 552.273 230.041 540.206 228.462C510.319 224.513 512.913 224.626 511.898 227.897C511.447 229.477 510.996 222.821 510.996 213.231C510.883 201.723 510.432 196.308 509.756 197.436C508.628 199.241 508.289 243.805 509.417 246.626C509.868 247.867 510.319 247.98 510.883 247.19C511.447 246.287 516.297 246.513 528.138 248.205C544.153 250.462 563.551 254.636 558.588 254.862C555.543 254.974 514.605 250.687 511.222 249.897L508.741 249.333V273.364V297.282L512.124 298.862C514.605 299.877 515.846 299.99 516.409 299.2C517.424 297.621 555.092 300.78 560.506 302.923L564.453 304.503H559.378C556.558 304.615 548.438 304.051 541.333 303.487C534.228 302.923 524.417 302.359 519.567 302.246C512.913 302.133 510.883 301.682 510.883 300.441C510.883 299.538 510.432 299.087 509.756 299.538C509.079 299.877 508.741 319.056 508.741 349.292C508.741 376.369 508.515 398.708 508.177 399.159C507.838 399.497 507.5 389.569 507.5 377.046C507.5 362.154 507.049 354.256 506.372 354.256C505.583 354.256 505.244 362.267 505.47 378.174C505.583 395.774 505.357 402.205 504.342 402.544C503.553 402.769 502.989 402.318 502.989 401.641C502.989 400.738 501.861 400.4 499.831 400.851C496.448 401.528 492.275 399.723 494.756 398.595C495.658 398.256 496.222 396 496.222 393.179C496.222 390.359 495.658 387.99 494.756 387.651C493.628 387.087 493.628 386.862 494.756 386.297C497.124 385.169 496.561 381.333 493.967 381.333C492.501 381.333 491.711 380.544 491.711 379.077C491.711 377.61 492.501 376.821 493.967 376.821C496.448 376.821 497.012 375.128 494.982 373.887C494.192 373.436 494.192 372.872 494.756 372.421C495.433 372.082 496.222 369.826 496.561 367.569C497.012 364.297 496.786 363.056 495.32 362.267C493.516 361.251 493.516 361.138 495.32 360.462C498.252 359.333 497.914 355.61 494.869 355.159C491.034 354.595 490.696 350.872 494.418 350.872C495.997 350.872 497.35 350.308 497.35 349.744C497.35 349.067 496.561 348.615 495.658 348.615C493.403 348.615 493.516 346.81 495.771 345.908C497.914 345.118 497.463 338.462 495.094 336.544C493.628 335.415 493.628 335.19 495.32 334.513C496.448 334.062 497.35 332.708 497.35 331.579C497.35 329.887 496.561 329.436 493.854 329.436H490.471L490.922 363.282C491.26 382.8 491.034 397.354 490.471 397.805C489.23 398.482 489.343 400.513 489.456 361.251C489.568 339.703 489.23 329.436 488.441 329.436C487.764 329.436 487.2 328.646 487.2 327.744C487.2 326.841 487.651 326.051 488.328 326.051C490.019 326.051 489.794 304.954 488.102 304.39C487.426 304.164 487.087 303.149 487.538 302.133C487.989 300.78 490.358 300.103 495.546 299.538C499.606 299.087 502.989 298.185 502.989 297.621C502.989 296.944 501.41 296.718 499.154 297.169C495.433 297.846 492.726 296.492 495.094 295.026C496.786 294.01 496.561 285.436 494.756 285.436C493.854 285.323 493.967 284.872 495.207 283.969C496.222 283.18 497.237 281.826 497.688 280.923C498.139 279.682 498.365 279.682 498.365 281.374C498.478 283.18 499.042 283.292 502.651 282.615C506.147 281.938 506.598 282.164 505.47 283.518C504.681 284.308 504.342 285.323 504.681 285.662C504.906 285.887 505.244 288.821 505.357 291.979C505.808 302.585 507.5 298.072 507.5 286.451C507.5 276.185 507.274 275.169 505.47 275.733C495.094 278.667 488.892 279.682 487.877 278.667C487.087 277.877 487.2 277.087 488.102 276.185C489.794 274.492 490.019 253.846 488.328 253.846C487.651 253.846 487.2 253.056 487.2 252.154C487.2 251.251 487.651 250.462 488.102 250.462C488.666 250.462 489.568 246.062 490.245 240.533L491.373 230.718L491.486 239.969C491.711 250.462 491.26 250.123 501.297 247.754L506.936 246.513L507.162 235.569C507.274 229.477 506.936 224.287 506.259 223.949C505.696 223.497 505.244 223.723 505.244 224.287C505.244 224.964 504.004 225.754 502.425 226.092C500.621 226.544 499.606 227.559 499.606 229.026C499.606 231.846 502.763 231.959 503.891 229.251C504.681 227.221 506.147 241.887 505.357 244.595C505.132 245.385 504.117 245.723 502.763 245.272C501.636 244.933 499.944 245.272 499.042 245.949C498.027 246.851 496.786 246.851 495.546 246.174C494.305 245.497 494.079 244.933 494.982 244.369C496.561 243.354 496.673 234.667 495.094 234.667C494.418 234.667 494.756 233.426 495.771 231.846C498.139 228.349 497.124 227.108 493.403 228.8C489.004 230.831 485.621 228.8 488.441 225.98C490.358 224.062 490.471 205.333 488.553 205.333C486.749 205.333 486.862 202.287 488.779 201.61C489.907 201.159 490.358 198.79 490.358 193.262C490.358 181.98 490.358 181.867 491.711 183.897C492.388 185.026 492.839 185.138 492.839 184.123C492.839 183.446 493.854 182.769 495.094 182.769C496.673 182.769 497.35 181.98 497.35 180.4C497.35 178.595 496.899 178.256 495.32 178.821C494.305 179.272 491.937 179.949 490.132 180.287C483.591 181.415 487.877 177.692 496.899 174.533C505.357 171.6 511.109 168.103 507.613 168.103C506.823 168.103 505.47 168.892 504.455 169.795C503.553 170.697 502.312 171.149 501.636 170.81C500.846 170.246 501.072 169.569 502.199 168.667C503.327 167.877 504.117 166.41 504.117 165.395C504.117 164.38 505.019 163.59 506.372 163.59C508.741 163.59 509.079 162.687 507.838 159.528C507.162 157.723 507.049 157.723 506.259 159.754C505.696 161.108 505.357 159.867 505.357 155.918C505.244 150.39 505.019 149.938 502.989 150.615C501.41 151.18 500.733 150.841 500.733 149.6C500.733 148.585 501.184 147.795 501.636 147.795C502.199 147.795 503.44 147.118 504.455 146.328C506.147 145.087 506.259 143.846 505.357 135.385C504.681 130.082 503.891 122.523 503.553 118.462C503.102 114.4 502.199 110.79 501.523 110.339C500.621 109.887 500.733 109.097 501.636 107.969C502.763 106.615 502.651 102.328 501.072 87.8872L499.042 69.3846L498.252 77.2821C497.801 81.5692 497.35 103.682 497.124 126.359C496.899 160.092 496.786 163.815 496.222 146.667C495.658 127.262 495.546 126.472 494.756 135.385C493.177 153.549 493.064 154 493.403 141.026C494.192 111.015 496.673 67.1282 497.463 66.7898C498.027 66.5641 498.478 65.0975 498.478 63.6308C498.478 62.1641 498.929 60.9231 499.606 60.9231C500.169 60.9231 500.733 61.3744 500.733 62.0513ZM508.628 184.687C508.628 191.005 509.079 195.18 509.756 195.18C510.432 195.18 510.883 190.441 510.883 182.995C510.883 174.759 510.545 171.487 509.756 172.615C509.192 173.518 508.628 179.046 508.628 184.687ZM501.974 176.113C499.718 176.903 498.478 178.144 498.478 179.497C498.478 182.205 502.763 182.431 503.778 179.836C504.342 178.369 504.568 178.369 505.357 179.61C506.034 180.626 506.372 180.062 506.372 177.918C506.372 174.421 506.598 174.533 501.974 176.113ZM505.244 187.282C505.244 189.764 505.583 191.795 506.147 191.795C506.598 191.795 506.823 189.764 506.598 187.282C506.372 184.8 505.921 182.769 505.696 182.769C505.47 182.769 505.244 184.8 505.244 187.282ZM498.929 189.538C498.816 192.133 499.267 192.923 500.621 192.697C501.861 192.472 502.538 190.892 502.763 188.072C503.102 184.123 502.876 183.785 501.072 184.8C499.944 185.477 499.042 187.395 498.929 189.538ZM495.094 190.103C495.094 192.246 495.546 194.051 495.997 194.051C496.448 194.051 497.012 192.246 497.124 190.103C497.35 187.959 496.899 186.154 496.222 186.154C495.658 186.154 495.094 187.959 495.094 190.103ZM492.049 193.149C492.275 194.615 492.501 193.713 492.501 191.231C492.613 188.749 492.388 187.621 492.049 188.636C491.824 189.764 491.824 191.795 492.049 193.149ZM503.44 194.841C502.989 194.39 501.523 194.728 500.169 195.631C498.816 196.533 496.561 197.436 495.094 197.662C493.628 197.774 492.275 198.564 492.049 199.354C491.711 200.144 493.967 199.918 498.478 198.451C506.823 195.856 507.726 195.405 506.823 193.826C506.372 193.149 505.808 193.262 505.132 194.164C504.681 194.954 503.891 195.292 503.44 194.841ZM491.711 206.8C491.711 208.38 492.275 208.718 493.628 208.154C494.756 207.815 497.124 207.138 499.042 206.8C500.846 206.462 502.989 205.446 503.778 204.544C504.793 203.303 505.132 204.544 505.47 210.41C505.808 218.195 505.244 220.79 503.327 219.662C502.651 219.21 501.297 219.662 500.169 220.451C497.463 222.482 499.38 223.272 503.891 222.031L507.613 221.015L507.5 212.328C507.162 198 507.5 198.451 498.929 201.836C493.516 203.867 491.711 205.221 491.711 206.8ZM498.478 213.456C498.478 217.067 498.816 217.856 500.395 217.518C501.861 217.292 502.538 215.826 502.763 212.441C503.102 208.267 502.876 207.815 500.846 208.38C498.929 208.831 498.478 209.846 498.478 213.456ZM492.726 210.974C492.162 210.974 491.711 214.021 491.711 217.856C491.711 224.174 491.824 224.626 494.192 224.287C497.237 223.836 498.252 221.128 495.433 221.128C493.516 221.015 493.516 221.015 495.32 219.549C498.027 217.518 498.252 209.282 495.546 210.297C494.531 210.636 493.29 210.974 492.726 210.974ZM499.606 238.051C499.606 241.323 500.057 242.564 501.297 242.564C502.538 242.564 502.989 241.323 502.989 238.051C502.989 234.78 502.538 233.538 501.297 233.538C500.057 233.538 499.606 234.78 499.606 238.051ZM495.997 252.831C492.501 253.733 491.711 254.41 491.711 256.667C491.711 259.262 491.937 259.374 494.531 258.133C496.109 257.456 497.35 256.103 497.463 255.087C497.463 253.959 497.688 253.733 498.139 254.636C498.816 256.441 502.087 256.554 503.891 254.749C504.906 253.733 505.244 255.313 505.244 261.969V270.544L499.831 271.333C490.809 272.574 490.583 274.041 499.38 273.815L507.5 273.59V261.856V250.123L503.891 250.913C501.861 251.251 498.365 252.154 495.997 252.831ZM498.929 263.21C499.267 265.015 499.606 267.272 499.606 268.062C499.606 268.964 500.282 269.303 501.297 268.964C502.425 268.513 502.989 266.708 502.989 263.436C502.989 259.036 502.763 258.585 500.621 259.149C498.703 259.713 498.365 260.39 498.929 263.21ZM491.937 266.144C491.598 270.318 491.824 270.995 493.403 270.318C494.418 269.98 495.546 269.641 495.771 269.641C495.997 269.641 496.222 267.61 496.222 265.015C496.222 261.292 495.884 260.503 494.192 260.841C492.839 261.067 492.162 262.533 491.937 266.144ZM499.831 285.323C497.801 286.564 499.267 294.462 501.41 294.462C502.538 294.462 502.989 292.995 502.989 289.385C502.989 284.195 502.538 283.631 499.831 285.323ZM505.244 311.497C505.244 321.2 505.019 322.78 503.553 322.215C501.523 321.538 498.478 322.441 498.478 323.908C498.478 324.472 500.282 324.923 502.425 324.923C505.357 324.923 506.147 325.374 505.696 326.503C505.357 327.405 503.666 328.308 502.087 328.533C498.252 328.985 496.899 333.949 500.508 333.949C501.748 333.949 502.989 333.272 503.327 332.482C504.455 329.436 505.244 332.821 505.357 341.621C505.47 346.697 505.921 350.872 506.485 350.872C507.049 350.872 507.5 339.477 507.5 325.487C507.5 309.354 507.049 300.103 506.372 300.103C505.696 300.103 505.244 304.615 505.244 311.497ZM491.937 304.164C490.358 304.615 489.907 324.359 491.486 325.374C492.839 326.164 497.35 324.81 497.35 323.682C497.35 323.118 496.561 322.667 495.658 322.667C494.756 322.667 493.967 322.103 493.967 321.538C493.967 320.862 494.756 320.41 495.658 320.41C498.139 320.41 497.914 312.626 495.32 310.708C493.516 309.241 493.516 309.241 495.32 309.128C496.448 309.128 497.35 308.451 497.463 307.662C497.463 306.759 497.688 306.759 498.027 307.549C499.042 309.918 502.989 307.887 502.989 305.18C502.989 302.81 502.651 302.585 498.139 303.149C495.546 303.374 492.726 303.826 491.937 304.164ZM498.478 315.333C498.478 319.621 498.816 320.41 500.733 320.41C502.651 320.41 502.989 319.621 502.989 315.333C502.989 311.046 502.651 310.256 500.733 310.256C498.816 310.256 498.478 311.046 498.478 315.333ZM498.478 341.282C498.478 345.569 498.816 346.359 500.733 346.359C502.651 346.359 502.989 345.569 502.989 341.282C502.989 336.995 502.651 336.205 500.733 336.205C498.816 336.205 498.478 336.995 498.478 341.282ZM498.478 349.856C498.478 350.421 499.493 350.872 500.733 350.872C501.974 350.872 502.989 350.195 502.989 349.292C502.989 348.277 502.199 347.938 500.733 348.277C499.493 348.615 498.478 349.292 498.478 349.856ZM500.282 354.933C497.576 355.949 498.027 359.897 500.733 359.897C502.425 359.897 502.989 359.108 502.989 357.077C502.989 354.031 502.876 353.918 500.282 354.933ZM499.154 364.185C499.267 364.862 499.38 367.005 499.38 368.923C499.493 371.067 500.169 372.308 501.297 372.308C502.538 372.308 502.989 370.954 502.989 367.118C502.989 362.831 502.651 362.041 500.959 362.379C499.944 362.605 499.042 363.395 499.154 364.185ZM498.478 375.692C498.478 376.256 499.493 376.821 500.733 376.821C501.974 376.821 502.989 376.256 502.989 375.692C502.989 375.015 501.974 374.564 500.733 374.564C499.493 374.564 498.478 375.015 498.478 375.692ZM498.703 383.251C499.267 386.185 502.989 386.523 502.989 383.703C502.989 382.01 502.312 381.333 500.621 381.333C499.042 381.333 498.478 381.897 498.703 383.251ZM498.703 393.518C498.365 397.692 498.591 398.256 500.621 398.256C502.651 398.256 502.989 397.579 502.989 393.067C502.989 388.779 502.651 387.99 500.959 388.328C499.606 388.554 498.929 390.021 498.703 393.518Z" fill="black"/>
<path d="M537.837 116.882C545.055 122.636 547.311 125.344 544.942 125.231C543.927 125.118 528.139 110.564 529.154 110.564C529.492 110.564 533.439 113.385 537.837 116.882Z" fill="black"/>
<path d="M533.664 120.267C537.273 123.087 540.205 125.795 540.205 126.472C540.205 128.164 539.077 127.713 535.468 124.667C533.664 123.087 531.634 122.072 531.183 122.41C530.055 123.087 514.379 119.026 513.251 117.785C512.575 116.995 518.552 117.672 525.544 119.138L529.491 119.928L527.348 117.559C523.852 113.497 526.785 114.851 533.664 120.267Z" fill="black"/>
<path d="M538.626 138.995C542.235 141.59 545.506 143.846 545.731 144.072C545.957 144.297 545.957 144.636 545.619 144.974C544.829 145.764 535.807 139.785 532.988 136.626C529.83 133.128 531.183 133.692 538.626 138.995Z" fill="black"/>
<path d="M532.311 139.785C534.454 141.59 535.92 143.508 535.469 143.959C535.018 144.41 533.89 144.072 532.988 143.395C532.086 142.605 530.845 142.267 530.281 142.605C529.041 143.282 515.169 139.897 513.703 138.431C512.575 137.415 516.522 137.754 525.545 139.446C529.153 140.236 529.379 140.123 527.913 138.431C525.545 135.385 528.026 136.287 532.311 139.785Z" fill="black"/>
<path d="M520.131 145.426C528.364 147.456 530.958 148.923 526.221 148.923C524.53 148.923 521.259 149.938 518.778 151.179C513.928 153.661 512.011 154 512.011 152.308C512.011 151.744 513.703 150.841 515.62 150.277L519.342 149.261L515.056 148.359C512.011 147.795 510.883 147.005 510.883 145.426C510.883 144.185 511.222 143.395 511.673 143.395C512.237 143.508 515.958 144.41 520.131 145.426Z" fill="black"/>
<path d="M538.176 158.964C540.206 160.769 541.559 162.574 541.221 162.913C540.882 163.251 538.627 161.785 536.146 159.641C533.777 157.497 532.424 155.805 533.101 155.692C533.89 155.692 536.146 157.159 538.176 158.964Z" fill="black"/>
<path d="M522.725 159.528C526.446 160.205 529.378 161.108 529.153 161.559C528.815 162.8 528.476 162.8 520.469 161.333C516.409 160.544 513.138 159.528 513.138 158.964C513.138 157.723 513.928 157.836 522.725 159.528Z" fill="black"/>
<path d="M522.725 172.277C525.77 173.067 529.717 173.744 531.409 173.744C532.988 173.744 537.386 174.421 540.995 175.323C544.604 176.226 549.566 177.241 552.047 177.692C555.769 178.369 556.22 178.708 554.303 179.385C552.273 180.287 552.273 180.4 554.754 180.4C556.22 180.513 557.235 180.738 556.897 181.077C556.107 181.867 518.439 176 517.312 174.872C516.748 174.421 516.522 173.292 516.748 172.39C517.086 171.036 517.875 170.923 522.725 172.277Z" fill="black"/>
<path d="M374.084 183.897C410.737 203.415 418.631 207.703 418.067 208.267C417.278 209.056 356.378 178.256 356.378 177.241C356.378 176.79 354.348 175.436 351.867 174.308C347.13 172.164 344.987 170.246 347.581 170.472C348.371 170.585 360.325 176.564 374.084 183.897Z" fill="black"/>
<path d="M298.297 176C298.635 176.564 298.071 177.467 296.944 177.918C295.816 178.369 287.245 182.769 277.997 187.846C249.013 203.641 243.374 206.574 242.923 206.236C242.585 205.897 255.893 198.113 280.816 184.462C287.358 180.851 293.786 177.128 295.139 176.338C296.718 175.21 297.733 175.097 298.297 176Z" fill="black"/>
<path d="M298.184 180.4C298.861 181.415 244.051 210.974 241.57 210.974C239.765 210.974 239.089 214.021 239.089 221.805C239.089 226.092 238.638 229.026 237.961 229.026C237.171 229.026 236.833 225.641 237.059 219.662C237.284 214.585 237.735 210.523 238.186 210.636C238.638 210.749 245.517 207.251 253.411 202.964C261.419 198.564 274.275 191.456 282.057 187.169C297.056 178.933 297.282 178.821 298.184 180.4Z" fill="black"/>
<path d="M569.866 181.303C570.204 181.867 570.543 185.928 570.543 190.215C570.543 239.067 570.881 280.923 571.445 293.333C571.783 301.682 572.009 310.369 572.009 312.513C572.009 314.656 571.896 324.246 571.896 333.61C571.896 343.877 571.445 350.872 570.768 350.872C568.851 350.872 568.625 347.374 568.851 313.979C568.964 281.826 568.851 281.036 566.708 280.585C564.678 280.133 564.791 280.133 566.934 279.908C568.738 279.795 569.528 279.118 569.528 277.651C569.528 276.41 569.189 275.169 568.625 274.944C568.174 274.605 568.062 269.19 568.4 262.872C568.738 256.554 568.625 250.8 568.174 250.123C567.836 249.559 567.61 239.744 567.723 228.349C567.949 208.379 567.836 207.703 565.58 207.251C563.325 206.8 563.325 206.8 565.58 206.574C567.723 206.462 567.836 205.672 567.723 194.728C567.61 183.559 568.4 178.933 569.866 181.303Z" fill="black"/>
<path d="M536.145 183.446C550.919 186.154 556.445 187.62 549.228 186.831C539.529 185.928 518.101 182.318 517.086 181.415C515.507 180.061 520.018 180.513 536.145 183.446Z" fill="black"/>
<path d="M386.151 195.631C411.639 208.492 420.097 213.231 418.18 213.231C416.037 213.231 357.505 183.897 357.505 182.882C357.505 182.205 357.731 181.641 357.956 181.641C358.295 181.641 370.926 187.959 386.151 195.631Z" fill="black"/>
<path d="M534.567 194.615C541.672 196.082 546.747 197.21 545.844 197.323C542.687 197.549 518.214 193.826 516.522 192.81C513.59 191.231 520.695 191.908 534.567 194.615Z" fill="black"/>
<path d="M297.507 204.205C297.169 205.22 244.389 230.154 238.75 231.959C237.735 232.297 236.833 232.072 236.833 231.395C236.833 230.718 237.284 230.154 237.848 230.154C238.299 230.154 251.268 224.061 266.606 216.615C293.109 203.754 298.41 201.61 297.507 204.205Z" fill="black"/>
<path d="M538.965 208.492C548.438 210.072 555.656 211.651 554.979 211.877C552.949 212.554 517.199 207.477 515.958 206.349C514.267 204.769 520.244 205.333 538.965 208.492Z" fill="black"/>
<path d="M394.948 221.467C412.767 229.59 427.202 236.472 426.977 236.585C426.751 236.81 417.052 232.861 405.324 227.785C393.595 222.708 379.159 216.615 373.295 214.133C367.43 211.651 362.13 209.282 361.679 208.831C358.182 205.333 366.528 208.492 394.948 221.467Z" fill="black"/>
<path d="M297.17 208.831C296.719 209.508 293.335 211.313 289.726 212.892C286.005 214.472 283.185 216.051 283.411 216.277C283.749 216.503 287.809 214.923 292.546 212.779C297.282 210.636 301.117 209.056 301.117 209.395C301.117 209.959 279.125 220.564 257.472 230.492C251.72 233.087 247.096 235.569 246.984 235.908C246.984 236.246 248.901 237.487 251.156 238.503L255.442 240.421L280.817 230.154C310.703 217.969 310.477 218.082 306.417 220.677C304.726 221.805 303.372 223.159 303.372 223.61C303.372 223.949 295.365 227.446 285.554 231.282C275.855 235.231 258.261 242.338 246.532 247.303C234.804 252.154 224.992 255.99 224.766 255.764C224.541 255.426 227.022 254.185 230.292 252.718C233.563 251.364 237.059 249.559 237.961 248.769C238.864 247.979 242.36 246.513 245.517 245.497C248.788 244.369 251.72 243.128 252.059 242.564C252.735 241.436 245.743 236.923 243.149 236.923C242.134 236.923 241.345 236.359 241.345 235.682C241.345 235.005 240.555 234.667 239.653 235.118C238.751 235.456 237.961 235.456 237.961 235.118C237.961 234.779 241.345 232.974 245.517 231.056C249.69 229.138 262.66 223.159 274.276 217.631C295.252 207.703 298.636 206.462 297.17 208.831ZM277.434 218.308C275.855 219.21 275.065 219.887 275.742 219.887C276.306 219.887 278.11 219.21 279.689 218.308C281.268 217.405 281.945 216.728 281.381 216.728C280.704 216.728 279.012 217.405 277.434 218.308ZM267.284 222.82C264.464 224.287 262.66 225.528 263.336 225.528C263.9 225.528 266.72 224.287 269.539 222.82C272.359 221.354 274.05 220.113 273.486 220.113C272.81 220.113 270.103 221.354 267.284 222.82ZM251.72 229.59C247.209 231.395 243.6 233.313 243.6 233.764C243.6 234.554 260.517 227.22 261.645 225.979C262.321 225.19 261.757 225.415 251.72 229.59Z" fill="black"/>
<path d="M384.572 221.579C396.075 226.656 407.691 231.959 410.511 233.2C413.33 234.554 418.292 236.697 421.563 238.051C430.021 241.662 428.104 242 418.18 238.615C407.353 235.005 358.52 214.697 357.054 213.231C356.265 212.441 357.28 212.103 359.761 212.103C362.242 212.215 371.828 215.826 384.572 221.579Z" fill="black"/>
<path d="M530.619 218.42C549.565 221.241 557.122 222.595 556.67 223.046C556.445 223.385 550.693 222.82 543.927 221.805C537.273 220.79 528.025 219.662 523.514 219.323C519.115 218.872 515.394 218.082 515.394 217.631C515.394 216.39 517.762 216.503 530.619 218.42Z" fill="black"/>
<path d="M363.144 220.677C368.444 222.933 381.978 228.574 393.368 233.2C404.646 237.938 413.781 241.887 413.555 242.226C413.217 242.451 405.21 239.518 395.737 235.682C375.888 227.785 364.948 223.497 357.167 220.677C354.234 219.549 351.866 218.195 351.866 217.631C351.866 216.164 352.655 216.39 363.144 220.677Z" fill="black"/>
<path d="M385.475 233.2C396.752 237.939 405.887 241.887 405.662 242.113C404.985 242.79 363.145 226.431 363.145 225.528C363.145 224.062 363.37 224.062 385.475 233.2Z" fill="black"/>
<path d="M303.146 228.123C302.808 228.913 285.891 236.246 265.478 244.369C245.066 252.492 227.36 259.6 226.119 260.164C224.202 261.067 223.863 262.421 223.525 269.867L223.187 278.441L229.164 276.185C232.435 274.944 245.066 270.431 257.133 266.256C269.2 261.969 282.395 257.344 286.455 255.764C295.477 252.38 302.244 251.026 302.244 252.718C302.244 253.282 302.131 253.846 301.906 253.846C301.455 253.846 225.668 279.344 223.074 280.359C221.27 281.036 221.157 280.246 221.608 270.544C221.946 264.79 222.172 259.6 222.172 259.149C222.172 258.697 222.848 258.359 223.525 258.585C224.315 258.697 226.683 257.908 228.713 256.892C230.743 255.764 239.314 252.154 247.885 248.769C256.343 245.497 271.907 239.18 282.282 234.78C292.658 230.38 301.793 226.769 302.357 226.769C303.033 226.769 303.372 227.446 303.146 228.123Z" fill="black"/>
<path d="M367.092 230.492C376.227 233.538 427.428 254.185 426.977 254.749C426.3 255.313 365.4 232.636 363.821 231.169C362.129 229.59 363.483 229.364 367.092 230.492Z" fill="black"/>
<path d="M533.439 232.41C550.694 234.892 555.205 235.795 546.972 235.231C533.664 234.441 515.394 232.072 515.394 231.169C515.394 229.928 515.958 229.928 533.439 232.41Z" fill="black"/>
<path d="M519.906 242.113C520.808 242.226 530.169 243.579 540.77 244.933C551.258 246.287 559.378 247.641 558.589 247.867C557.912 248.092 548.1 247.303 536.822 246.061C525.657 244.708 516.184 243.692 515.959 243.692C515.62 243.692 515.395 243.128 515.395 242.564C515.395 241.436 516.522 241.323 519.906 242.113Z" fill="black"/>
<path d="M511.56 265.692C511.56 273.138 511.447 276.072 511.221 272.123C510.996 268.287 510.996 262.195 511.221 258.585C511.447 255.087 511.56 258.246 511.56 265.692Z" fill="black"/>
<path d="M368.219 254.297C370.023 255.087 384.121 259.938 399.458 265.128C414.796 270.318 427.202 274.831 426.863 275.056C426.525 275.508 408.029 269.979 377.918 260.277C369.572 257.682 362.58 254.862 362.242 254.072C361.678 252.379 363.933 252.379 368.219 254.297Z" fill="black"/>
<path d="M534.002 257.908L543.024 259.374L531.296 258.697C524.867 258.472 518.439 257.682 517.198 257.231C513.589 255.764 523.288 256.103 534.002 257.908Z" fill="black"/>
<path d="M302.245 257.344C302.245 258.021 303.034 258.359 303.936 257.908C304.838 257.569 305.628 257.682 305.628 258.246C305.628 259.713 297.395 261.744 294.35 261.067C292.433 260.615 291.982 260.728 292.997 261.405C294.012 262.195 284.426 265.805 263.223 273.026C241.457 280.359 231.871 283.067 231.307 282.164C230.631 281.262 229.616 281.262 226.796 282.164C224.879 282.841 222.849 283.18 222.511 282.728C222.172 282.39 222.511 281.826 223.413 281.6C224.315 281.374 241.796 275.508 262.321 268.626C282.847 261.744 300.327 256.103 301.004 256.103C301.681 256.103 302.245 256.667 302.245 257.344ZM264.464 269.641C262.998 270.205 262.885 270.656 263.9 270.656C264.802 270.656 266.607 270.205 267.847 269.641C269.313 269.077 269.426 268.626 268.411 268.626C267.509 268.626 265.705 269.077 264.464 269.641Z" fill="black"/>
<path d="M388.97 266.256C401.601 270.431 416.375 275.282 421.901 276.861C427.427 278.554 432.164 280.472 432.615 281.149C433.179 281.938 432.502 282.164 430.698 281.826C427.202 281.036 359.309 259.374 358.746 258.81C358.52 258.585 359.986 258.359 362.129 258.472C364.272 258.472 376.339 261.969 388.97 266.256Z" fill="black"/>
<path d="M164.092 266.256L176.497 266.933L159.919 267.159C149.882 267.272 143.115 266.933 142.664 266.256C141.987 265.128 142.551 265.128 164.092 266.256Z" fill="black"/>
<path d="M196.233 267.385C200.293 268.062 199.052 268.174 190.368 268.287C184.166 268.4 179.203 268.062 178.752 267.385C177.963 266.144 188.113 266.144 196.233 267.385Z" fill="black"/>
<path d="M118.981 267.385C101.726 268.287 84.5833 270.318 83.5683 271.446C83.23 271.897 84.9216 271.897 87.4028 271.559C89.8839 271.22 100.259 270.656 110.522 270.318L129.131 269.867L112.778 271.22L96.425 272.687L128.567 272.236C146.273 272.01 168.603 272.236 178.189 272.913C194.429 273.928 193.414 273.928 165.219 273.477C120.108 272.8 81.5383 275.169 71.2755 279.456C68.005 280.81 67.6667 281.374 67.6667 285.549C67.6667 290.062 67.6667 290.174 71.1628 289.385C73.08 288.933 77.4783 288.144 80.9744 287.579C89.9967 286 171.873 285.097 192.286 286.338C205.256 287.128 197.812 287.241 160.144 287.015L111.086 286.79L155.069 287.805C179.204 288.369 202.887 289.272 207.511 289.836C213.714 290.626 209.767 290.738 192.85 290.174C137.363 288.595 85.5983 290.062 75.7867 293.446C72.6289 294.462 72.4033 294.913 73.4183 296.944C74.5461 298.974 74.3205 299.087 71.9522 298.41C70.5989 297.959 68.6817 297.056 68.005 296.492C65.8622 294.8 65.0728 288.369 66.0878 282.39C66.99 277.764 67.6667 276.749 71.05 275.056C73.1928 274.041 76.3505 273.138 78.0422 273.026C80.185 273.026 80.9744 272.574 80.5233 271.446C79.6211 269.19 93.8311 267.385 116.161 266.82L134.769 266.482L118.981 267.385ZM87.6283 273.815C89.0944 274.041 91.35 274.041 92.7033 273.815C94.1694 273.59 93.0416 273.364 90.2222 273.364C87.4028 273.364 86.275 273.59 87.6283 273.815ZM96.6505 288.482C98.1166 288.708 100.372 288.708 101.726 288.482C103.192 288.256 102.064 288.031 99.2444 288.031C96.425 288.031 95.2972 288.256 96.6505 288.482Z" fill="black"/>
<path d="M536.258 269.19C560.956 271.897 558.701 272.123 526.333 269.979C520.356 269.641 515.394 268.851 515.394 268.4C515.394 267.159 519.116 267.272 536.258 269.19Z" fill="black"/>
<path d="M374.986 272.01C382.994 274.379 397.767 278.779 407.579 281.713C417.504 284.646 425.06 287.128 424.496 287.354C423.932 287.579 415.022 285.323 404.872 282.503C394.61 279.569 380.174 275.62 372.844 273.59C365.4 271.672 359.085 269.415 358.859 268.738C358.295 267.046 357.844 266.933 374.986 272.01Z" fill="black"/>
<path d="M312.394 268.4C311.492 268.851 304.274 271.333 296.38 273.703C288.485 275.959 282.17 278.103 282.395 278.441C282.733 278.667 287.583 277.538 293.222 275.846C302.357 273.138 306.191 272.8 304.274 274.831C303.823 275.169 296.605 277.426 287.921 279.795C279.35 282.164 258.261 287.918 241.006 292.769C223.863 297.508 208.638 301.231 207.172 301.005C205.819 300.779 204.127 301.231 203.563 301.908C202.774 302.697 196.346 302.81 182.136 302.246C158.227 301.231 110.973 301.908 92.4774 303.6C85.3724 304.277 79.3952 304.954 79.1696 305.179C78.9441 305.405 78.493 308.338 78.1546 311.836C77.5907 317.815 77.5907 318.154 79.9591 318.154C81.3124 318.154 82.2146 317.703 81.8763 317.138C80.7485 315.446 86.7257 314.769 118.98 313.528C159.693 311.836 202.097 313.19 202.549 316.123C202.774 317.815 200.18 318.041 172.211 318.041C155.295 318.041 135.446 317.703 128.002 317.251C114.807 316.462 115.033 316.462 139.844 315.897L165.219 315.22L134.431 314.995C109.507 314.769 103.53 315.108 103.079 316.349C102.74 317.364 99.1313 318.041 91.1241 318.605C84.8085 318.944 79.0569 319.846 78.1546 320.523C76.9141 321.538 76.6885 320.297 76.6885 313.19C76.6885 303.6 75.6735 304.503 87.9663 302.359L94.1691 301.344L86.8385 301.795C80.9741 302.133 80.0719 302.02 82.553 301.005C86.8385 299.538 86.5002 297.62 81.9891 298.072C75.2224 298.749 77.7035 296.154 84.8085 295.251C107.251 292.544 208.3 292.882 215.405 295.59C217.322 296.379 210.781 296.492 195.669 296.041C165.106 295.026 166.572 295.026 144.468 295.364C133.641 295.477 125.07 295.815 125.296 296.154C125.634 296.379 143.566 296.944 165.332 297.282C186.985 297.62 206.27 298.297 208.075 298.749C210.443 299.426 213.375 299.087 217.661 297.733C221.044 296.718 222.961 295.815 221.833 295.703C220.706 295.59 220.029 295.138 220.367 294.574C221.27 293.108 233.901 290.964 236.382 291.754C238.186 292.431 238.186 292.318 236.043 290.4C234.69 289.272 232.66 287.692 231.532 287.015C230.405 286.226 229.841 285.323 230.292 284.872C230.743 284.42 232.547 285.097 234.239 286.338L237.51 288.708L272.471 278.779C309.236 268.287 315.213 266.708 312.394 268.4ZM269.2 281.713C263.561 283.405 259.501 284.872 260.065 285.097C260.629 285.21 265.591 283.969 271.23 282.164C284.087 277.99 282.621 277.651 269.2 281.713ZM100.485 297.395C100.259 297.62 104.883 297.846 110.973 297.846C118.304 297.846 121.687 297.508 121.236 296.718C120.559 295.59 101.725 296.267 100.485 297.395ZM142.325 299.764C148.415 299.99 158.34 299.99 164.317 299.764C170.407 299.651 165.445 299.426 153.377 299.426C141.31 299.426 136.348 299.651 142.325 299.764ZM120.334 299.764C121.8 299.99 124.055 299.99 125.409 299.764C126.875 299.538 125.747 299.313 122.927 299.313C120.108 299.313 118.98 299.538 120.334 299.764ZM192.511 300.892C193.977 301.118 196.458 301.118 198.15 300.892C199.955 300.667 198.714 300.441 195.669 300.441C192.511 300.441 191.158 300.667 192.511 300.892ZM97.2141 300.892C99.0185 301.118 101.725 301.118 103.417 300.892C105.221 300.667 103.755 300.441 100.372 300.441C96.9885 300.441 95.5224 300.667 97.2141 300.892Z" fill="black"/>
<path d="M212.586 268.513C216.985 269.303 216.872 269.303 210.669 269.528C207.173 269.528 203.902 269.077 203.564 268.513C202.775 267.272 205.594 267.272 212.586 268.513Z" fill="black"/>
<path d="M168.264 270.431C166.347 270.656 162.964 270.656 160.934 270.431C159.016 270.205 160.595 269.979 164.655 269.979C168.715 269.979 170.294 270.205 168.264 270.431Z" fill="black"/>
<path d="M518.89 272.349C519.116 272.574 526.447 273.364 535.13 274.154C543.814 274.831 552.949 275.846 555.43 276.297C564.002 277.877 544.265 278.892 530.619 277.651C523.74 276.974 517.875 276.41 517.312 276.41C516.86 276.41 516.522 275.395 516.522 274.154C516.522 272.123 517.65 271.22 518.89 272.349Z" fill="black"/>
<path d="M204.917 274.944C203.226 275.169 200.745 275.169 199.278 274.944C197.925 274.718 199.278 274.492 202.436 274.492C205.481 274.492 206.722 274.718 204.917 274.944Z" fill="black"/>
<path d="M398.444 283.744C411.977 287.692 423.48 291.19 423.819 291.641C424.27 292.092 423.593 292.205 422.353 291.867C421.112 291.528 409.158 288.369 395.85 284.872C382.542 281.374 371.152 277.99 370.475 277.426C368.445 275.395 374.197 276.636 398.444 283.744Z" fill="black"/>
<path d="M304.5 278.554C304.5 280.359 303.372 280.697 276.644 287.579C262.547 291.19 241.006 296.831 228.713 300.103C203.902 306.759 205.256 305.856 205.256 317.59V322.328L211.684 321.2C220.142 319.959 236.833 316.349 244.728 314.205C248.111 313.303 252.284 312.513 254.088 312.513C255.78 312.513 264.464 310.708 273.148 308.451C291.531 303.938 303.372 302.133 303.372 303.938C303.372 304.728 283.411 309.128 255.667 314.656C229.503 319.846 207.173 324.472 206.045 324.81C204.917 325.261 199.842 325.149 194.767 324.697C176.723 323.118 104.658 323.682 89.4328 325.6C85.5983 326.051 83.4556 325.938 83.4556 325.149C83.4556 323.908 88.5306 323.118 103.756 322.103C115.033 321.2 192.173 321.313 198.038 322.215C202.549 322.892 202.662 322.779 203.451 319.282C203.789 317.251 204.128 313.303 204.128 310.369V305.067L231.42 297.395C246.532 293.22 268.524 287.015 280.366 283.631C303.259 277.2 304.5 276.974 304.5 278.554Z" fill="black"/>
<path d="M558.476 279.456C557.122 279.682 555.092 279.682 553.964 279.456C552.949 279.118 554.077 278.892 556.558 279.005C559.039 279.005 559.942 279.231 558.476 279.456Z" fill="black"/>
<path d="M369.911 280.585C373.858 281.261 425.623 295.703 426.187 296.267C427.089 297.169 424.834 296.605 395.286 289.272C378.82 285.097 365.4 281.374 365.4 280.81C365.4 280.246 365.738 279.908 366.189 279.908C366.753 280.02 368.332 280.359 369.911 280.585Z" fill="black"/>
<path d="M537.386 283.179C547.875 284.308 557.235 285.323 558.137 285.323C559.04 285.436 559.491 285.661 559.152 286C558.588 286.564 541.897 285.549 522.387 283.631C518.552 283.292 515.395 282.503 515.395 281.938C515.395 281.374 516.071 281.036 516.748 281.036C517.537 281.149 526.785 282.051 537.386 283.179Z" fill="black"/>
<path d="M218.451 288.482C216.759 288.708 214.278 288.708 212.812 288.482C211.458 288.256 212.812 288.031 215.969 288.031C219.014 288.031 220.255 288.256 218.451 288.482Z" fill="black"/>
<path d="M541.333 295.138C549.114 295.928 556.671 296.605 558.137 296.605C559.603 296.718 560.618 297.056 560.279 297.395C559.264 298.297 517.198 295.477 515.958 294.349C514.604 292.995 523.965 293.333 541.333 295.138Z" fill="black"/>
<path d="M433.63 297.846C436.449 299.087 433.517 299.087 429.683 297.846C427.427 297.169 427.314 296.944 429.119 296.944C430.359 296.944 432.389 297.282 433.63 297.846Z" fill="black"/>
<path d="M375.549 305.856C408.932 313.303 417.164 315.221 416.826 315.672C416.488 315.897 407.014 314.318 395.624 312.062C384.233 309.918 372.73 307.662 370.023 307.21C367.204 306.646 364.835 305.631 364.497 304.841C364.046 303.262 363.369 303.149 375.549 305.856Z" fill="black"/>
<path d="M538.852 308.677C560.731 310.369 565.242 311.61 546.972 310.821C525.319 309.805 515.394 308.903 515.394 307.887C515.394 306.759 514.83 306.646 538.852 308.677Z" fill="black"/>
<path d="M303.372 307.887C303.372 308.564 304.274 309.128 305.289 309.241C309.236 309.467 300.214 311.497 272.358 317.026C256.795 320.072 237.397 323.908 229.164 325.6L214.277 328.646L217.774 330.79C221.382 332.933 221.495 332.933 238.976 330.113C297.056 320.636 313.86 318.041 314.424 318.718C315.101 319.395 308.334 320.636 250.366 330.451C239.54 332.256 225.33 334.626 218.789 335.641C212.247 336.656 194.767 339.477 179.88 341.959C157.776 345.569 150.558 346.359 139.844 346.133C132.739 346.02 117.401 346.133 105.785 346.246C86.8385 346.585 84.4702 346.81 82.7785 348.728C81.7635 349.969 80.4102 350.872 79.8463 350.872C78.6058 350.872 80.2974 347.826 83.9063 343.651C85.9363 341.395 86.8385 339.026 86.8385 335.979C86.8385 332.256 86.5002 331.692 84.2447 331.692C78.6058 331.692 78.7186 329.662 84.4702 329.323C87.7408 329.097 90.673 329.21 91.1241 329.662C91.5752 330 96.1991 329.887 101.5 329.436L111.086 328.533L101.838 328.759C85.8235 328.985 93.6052 327.067 112.89 326.051C134.656 324.81 177.963 324.585 192.737 325.713C200.744 326.277 203 326.728 202.549 327.969C202.097 328.985 202.887 329.436 204.691 329.436C207.511 329.436 208.751 327.292 206.045 327.067C205.368 327.067 225.442 322.779 250.93 317.59C276.305 312.4 298.522 307.887 300.214 307.436C302.244 306.872 303.372 307.097 303.372 307.887ZM185.294 327.969C187.549 328.195 191.158 328.195 193.188 327.969C195.105 327.744 193.188 327.518 188.902 327.518C184.504 327.518 182.925 327.744 185.294 327.969ZM118.642 327.969C120.334 328.195 123.379 328.195 125.409 327.969C127.439 327.744 126.085 327.518 122.364 327.518C118.642 327.518 116.95 327.744 118.642 327.969ZM116.725 330.677C101.838 331.241 89.5452 331.918 89.4324 332.144C89.3197 332.256 88.8685 335.303 88.4174 338.8L87.628 345.231L92.0263 345.118L96.4247 344.892L92.4774 344.215C90.3347 343.764 98.6802 343.538 111.086 343.651C123.942 343.764 130.258 343.538 125.747 343.087C119.093 342.523 121.123 342.297 139.167 341.395C154.731 340.718 160.595 340.831 161.159 341.733C161.723 342.636 169.73 341.733 189.692 338.462C205.03 335.979 217.886 333.949 218.337 333.949C218.901 333.949 218.225 333.159 216.871 332.256C215.067 331.015 209.766 330.564 193.301 330.226C181.572 330.113 165.67 329.887 157.889 329.662C150.107 329.549 131.611 330 116.725 330.677ZM148.866 343.99C148.866 344.667 150.784 344.779 153.039 344.441C158.904 343.538 159.129 342.974 153.603 342.974C151.009 342.974 148.866 343.426 148.866 343.99Z" fill="black"/>
<path d="M105.108 342.636C103.755 342.861 101.5 342.861 100.033 342.636C98.6801 342.41 99.8079 342.185 102.627 342.185C105.447 342.185 106.575 342.41 105.108 342.636Z" fill="black"/>
<path d="M376.114 310.933C379.835 311.723 391.226 313.979 401.489 315.897C418.18 319.056 441.75 324.697 431.939 323.231C429.796 322.892 425.961 322.328 423.48 321.99C420.999 321.651 411.639 319.959 402.616 318.154C393.594 316.462 381.301 314.092 375.211 313.077C369.234 311.949 364.272 310.708 364.272 310.144C364.272 308.79 367.881 309.015 376.114 310.933Z" fill="black"/>
<path d="M512.913 355.61C512.8 377.61 512.462 391.262 511.898 388.667C510.658 382.123 510.658 318.154 512.011 318.154C512.575 318.154 513.026 332.595 512.913 355.61Z" fill="black"/>
<path d="M382.317 321.99C417.278 328.195 425.849 329.887 423.932 330.226C422.24 330.677 364.836 322.103 360.551 320.862C358.408 320.185 357.957 318.154 359.987 318.267C360.776 318.267 370.813 320.072 382.317 321.99Z" fill="black"/>
<path d="M543.024 320.523C562.986 322.103 561.52 322.554 538.513 321.877C526.672 321.538 516.634 320.862 515.958 320.297C514.717 319.056 525.431 319.169 543.024 320.523Z" fill="black"/>
<path d="M539.755 325.487C550.356 326.277 559.942 327.405 561.182 328.082C563.776 329.662 555.205 329.774 531.86 328.646C518.665 328.082 516.522 327.744 516.748 326.164C517.199 323.795 517.312 323.795 539.755 325.487Z" fill="black"/>
<path d="M303.372 326.051C303.372 327.518 302.808 327.631 271.231 332.144C256.344 334.4 226.683 338.687 205.368 341.846C184.053 345.005 165.783 347.487 164.768 347.262C162.964 346.81 206.609 339.364 235.706 335.077C244.051 333.949 260.855 331.354 272.922 329.549C304.162 324.697 303.372 324.81 303.372 326.051Z" fill="black"/>
<path d="M385.136 329.436C405.436 332.933 405.436 333.723 385.136 331.128C368.22 328.985 365.4 328.421 365.4 327.067C365.4 326.503 365.739 326.164 366.19 326.164C366.754 326.277 375.212 327.744 385.136 329.436Z" fill="black"/>
<path d="M625.353 328.308C633.134 328.985 633.022 328.985 621.631 329.21C614.075 329.323 610.241 328.985 610.692 328.308C611.368 327.179 612.609 327.179 625.353 328.308Z" fill="black"/>
<path d="M605.503 328.759C604.714 329.549 576.407 329.887 575.504 329.097C575.166 328.646 581.82 328.308 590.391 328.308C598.962 328.308 605.729 328.533 605.503 328.759Z" fill="black"/>
<path d="M303.372 331.58C303.372 332.821 302.695 332.933 258.825 338.462C238.976 340.944 214.052 344.215 203.564 345.795C192.963 347.262 174.242 349.856 161.836 351.436C149.43 353.128 139.28 354.482 139.168 354.595C139.055 354.708 138.717 357.754 138.491 361.364L137.927 367.908L143.115 367.344C145.934 367.005 163.753 365.651 182.7 364.41C201.647 363.169 225.668 361.364 236.269 360.462C255.329 358.769 298.861 355.385 301.117 355.385C301.68 355.385 302.244 355.836 302.244 356.513C302.244 358.092 297.508 358.656 256.569 361.026C235.48 362.267 215.969 363.508 213.15 363.846C206.609 364.636 143.792 368.923 139.619 368.923C136.574 368.923 136.461 368.697 136.461 363.846V358.769H121.236C109.845 358.769 106.011 359.108 106.011 360.123C106.011 361.251 105.785 361.251 104.996 360.123C103.755 358.092 102.628 360.913 102.628 366.328V370.39L118.868 369.713C128.003 369.374 135.333 369.487 135.559 370.051C135.784 370.615 144.581 370.39 155.633 369.487C166.46 368.585 193.075 366.78 214.842 365.538C236.495 364.185 264.915 362.492 277.997 361.59C290.967 360.8 301.906 360.349 302.132 360.574C304.5 362.718 298.748 363.169 175.933 369.826C145.483 371.518 141.536 371.969 141.198 373.662C140.859 375.354 138.829 375.58 120.898 375.354L100.936 375.128V365.877C100.936 360.8 101.274 356.4 101.725 355.949C102.966 354.708 117.063 353.241 127.777 353.128C133.303 353.128 137.476 352.677 137.138 352.113C136.799 351.662 129.13 351.436 120.108 351.774C108.267 352.113 103.755 352 103.755 350.985C103.755 350.082 109.62 349.744 124.281 349.856C135.672 349.969 143.34 350.308 141.536 350.759C139.619 351.097 138.604 351.774 139.28 352.113C139.844 352.564 150.558 351.436 162.964 349.631C175.369 347.826 193.075 345.456 202.436 344.215C211.684 342.974 237.284 339.477 259.163 336.318C301.229 330.226 303.372 330 303.372 331.58ZM110.184 356.174C112.89 356.4 117.176 356.4 119.77 356.174C122.477 355.949 120.334 355.723 115.033 355.723C109.733 355.723 107.59 355.949 110.184 356.174ZM120.898 371.969C122.589 372.195 125.634 372.195 127.664 371.969C129.694 371.744 128.341 371.518 124.619 371.518C120.898 371.518 119.206 371.744 120.898 371.969Z" fill="black"/>
<path d="M638.322 333.046C638.322 333.836 637.758 334.061 634.939 334.4C634.262 334.513 633.924 334.061 634.037 333.385C634.488 332.144 638.322 331.692 638.322 333.046Z" fill="black"/>
<path d="M455.058 333.272C437.352 334.513 430.247 334.287 439.269 332.595C441.75 332.144 450.321 331.918 458.441 331.918L473.103 332.031L455.058 333.272Z" fill="black"/>
<path d="M391.79 335.19C404.646 336.882 415.811 338.574 416.601 338.913C419.307 340.041 411.977 339.477 396.639 337.446C387.842 336.205 377.241 334.964 373.069 334.513C368.896 334.062 365.174 333.272 364.836 332.708C363.934 331.354 364.272 331.354 391.79 335.19Z" fill="black"/>
<path d="M536.258 334.062C558.475 335.415 560.731 335.867 546.408 335.979C531.296 336.205 515.394 335.077 515.394 333.836C515.394 333.272 516.522 332.933 517.875 332.933C519.342 333.046 527.574 333.61 536.258 334.062Z" fill="black"/>
<path d="M409.045 333.61C408.03 333.836 406.225 333.836 405.098 333.61C404.083 333.272 404.985 333.046 407.128 333.046C409.27 333.046 410.173 333.272 409.045 333.61Z" fill="black"/>
<path d="M638.322 337.221C638.322 337.785 637.42 338.574 636.292 338.913C634.601 339.477 634.375 340.944 634.601 350.533C634.939 363.959 633.134 359.897 632.458 345.456L631.894 336.205H635.164C636.856 336.205 638.322 336.656 638.322 337.221Z" fill="black"/>
<path d="M540.205 346.359C550.129 347.036 549.566 347.036 533.1 347.261C521.935 347.374 515.394 347.036 515.394 346.359C515.394 345.118 521.935 345.118 540.205 346.359Z" fill="black"/>
<path d="M160.934 348.277C159.919 348.503 158.114 348.503 156.986 348.277C155.971 347.938 156.874 347.713 159.016 347.713C161.159 347.713 162.061 347.938 160.934 348.277Z" fill="black"/>
<path d="M88.6429 351.662C89.0941 353.128 89.7707 354.256 90.3346 354.256C90.8985 354.256 91.3496 354.708 91.3496 355.272C91.3496 356.287 88.9813 357.415 85.2596 358.205C84.5829 358.318 83.1168 358.769 81.9891 359.333C78.0418 361.026 78.6057 358.656 83.2296 353.918C87.8535 349.405 88.0791 349.292 88.6429 351.662Z" fill="black"/>
<path d="M541.446 351.662C543.701 351.887 550.581 352.79 556.671 353.692L567.836 355.159L547.423 355.272C524.191 355.385 516.522 354.708 516.522 352.451C516.522 351.21 518.778 350.872 526.898 351.097C532.649 351.21 539.19 351.436 541.446 351.662Z" fill="black"/>
<path d="M571.783 364.636C571.783 371.631 571.896 378.174 571.896 379.077C572.009 393.179 571.332 405.138 570.543 402.205C569.979 400.4 569.866 393.631 570.091 387.313C570.43 380.092 570.204 375.579 569.415 375.128C568.851 374.677 568.625 373.323 569.076 371.969C569.528 370.728 569.753 365.651 569.753 360.8C569.64 355.949 570.091 352 570.655 352C571.219 352 571.783 357.415 571.783 364.636Z" fill="black"/>
<path d="M380.061 357.754C415.473 360.574 424.044 361.364 423.593 361.815C423.367 362.041 411.074 361.477 396.188 360.574C381.414 359.559 368.219 358.769 366.753 358.769C365.399 358.769 364.272 358.205 364.272 357.641C364.272 356.964 365.174 356.626 366.189 356.626C367.317 356.738 373.519 357.303 380.061 357.754Z" fill="black"/>
<path d="M88.3051 361.477C87.8539 363.846 81.9895 367.795 78.8317 367.795C76.6889 367.795 79.9595 363.508 84.0195 361.138C88.9817 358.205 88.8689 358.205 88.3051 361.477Z" fill="black"/>
<path d="M553.175 361.026C557.573 361.477 552.949 361.815 539.642 361.928C528.477 361.928 518.327 361.59 517.086 361.026C514.492 359.897 542.912 359.897 553.175 361.026Z" fill="black"/>
<path d="M378.933 362.154C410.398 364.297 429.683 365.877 429.119 366.441C428.555 367.118 369.572 364.636 365.625 363.733C363.031 363.169 363.144 360.913 365.738 361.251C366.527 361.251 372.392 361.703 378.933 362.154Z" fill="black"/>
<path d="M385.7 371.405C400.249 371.856 415.474 372.759 419.534 373.436C424.947 374.226 419.985 374.338 401.038 374C386.828 373.662 370.137 373.436 364.047 373.436C355.025 373.436 352.995 373.097 352.995 371.744C352.995 370.615 354.01 370.164 356.04 370.277C357.844 370.277 371.152 370.841 385.7 371.405Z" fill="black"/>
<path d="M538.514 372.308L552.047 372.985L533.664 373.21C522.048 373.323 515.394 372.985 515.394 372.308C515.394 371.631 517.537 371.292 520.131 371.405C522.837 371.518 531.07 371.969 538.514 372.308Z" fill="black"/>
<path d="M302.244 372.421C296.943 372.872 276.418 373.774 256.456 374.564C236.607 375.241 209.428 376.256 196.12 376.821C165.332 378.174 151.911 378.174 152.701 376.933C153.039 376.369 163.415 375.579 175.595 375.241C187.887 374.79 217.999 373.662 242.472 372.759C266.945 371.969 292.545 371.292 299.425 371.292L311.83 371.518L302.244 372.421Z" fill="black"/>
<path d="M88.3045 375.128C89.3195 375.918 90.2217 376.821 90.2217 377.159C90.2217 378.4 79.9589 379.415 78.7183 378.174C76.4628 375.918 85.3722 372.985 88.3045 375.128Z" fill="black"/>
<path d="M551.709 377.61C557.235 377.836 561.633 378.513 561.633 379.077C561.633 379.641 563.325 380.318 565.242 380.544C567.272 380.769 557.009 381.108 542.235 381.108C516.071 381.333 515.62 381.333 516.184 379.077C516.748 376.933 517.65 376.82 529.379 377.046C536.258 377.159 546.295 377.497 551.709 377.61Z" fill="black"/>
<path d="M137.024 377.949C139.618 378.513 138.49 378.851 132.513 379.19C123.942 379.754 121.461 379.415 122.476 377.836C123.153 376.708 131.498 376.821 137.024 377.949Z" fill="black"/>
<path d="M306.756 380.092C306.756 380.995 298.523 381.333 279.915 381.333C265.141 381.333 226.909 381.559 194.993 381.785C160.934 382.123 142.326 381.897 149.995 381.446C172.663 379.867 306.756 378.739 306.756 380.092Z" fill="black"/>
<path d="M420.661 381.333C424.383 382.574 379.948 382.574 373.294 381.446C370.024 380.769 377.016 380.431 393.03 380.431C406.676 380.431 419.082 380.882 420.661 381.333Z" fill="black"/>
<path d="M134.77 382.462C134.319 383.251 163.19 383.59 220.481 383.59C289.162 383.59 306.869 383.928 306.417 384.944C306.079 386.072 288.486 386.297 221.834 385.959L137.702 385.508L136.912 389.682C136.574 392.051 136.461 396.113 136.8 398.821L137.251 403.897L120.221 403.333C110.861 402.995 94.6208 402.544 84.2452 402.318C73.7569 402.092 64.9602 401.528 64.6219 401.19C63.2686 399.836 65.1858 399.385 73.3058 399.272C80.1852 399.159 81.313 398.821 79.7341 397.692C76.4635 395.323 77.5913 394.759 81.8769 396.564C84.4708 397.692 89.8841 398.256 96.8763 398.369L107.703 398.482L102.064 399.949L96.4252 401.415L103.756 401.528L111.086 401.641L110.748 393.18C110.522 387.651 110.861 384.041 111.65 382.913C113.342 380.995 136.01 380.544 134.77 382.462ZM112.778 392.164V397.128H123.717H134.77L134.431 391.826L133.98 386.41L123.379 386.749L112.778 387.087V392.164Z" fill="black"/>
<path d="M630.653 395.097L630.991 406.718L634.374 408.297L637.758 409.99L633.247 410.779C630.766 411.344 618.811 411.569 606.744 411.569L584.752 411.456L607.195 410.328L629.638 409.2L629.074 397.015C628.736 390.246 628.848 384.379 629.412 384.041C629.863 383.815 630.54 388.667 630.653 395.097Z" fill="black"/>
<path d="M429.683 385.846C425.398 387.2 368.783 387.2 368.783 385.846C368.783 385.169 380.061 384.718 400.587 384.831C418.406 384.944 431.262 385.395 429.683 385.846Z" fill="black"/>
<path d="M554.867 386.974C556.558 387.538 548.89 387.877 536.484 387.99C523.176 388.103 515.395 387.651 515.395 386.974C515.395 385.62 550.581 385.62 554.867 386.974Z" fill="black"/>
<path d="M558.814 398.821C556.107 399.723 515.395 400.174 515.395 399.272C515.395 398.708 525.432 398.256 537.612 398.369C549.905 398.369 559.378 398.595 558.814 398.821Z" fill="black"/>
<path d="M154.506 400.062C158.566 400.626 204.579 403.672 237.397 405.59C286.681 408.41 305.628 409.877 305.628 410.892C305.628 412.359 295.478 412.021 257.359 409.087C237.736 407.508 215.97 406.041 209.203 405.59C183.038 404.01 138.378 400.513 137.815 399.949C137.138 399.385 149.769 399.497 154.506 400.062Z" fill="black"/>
<path d="M481.561 402.769C482.689 403.559 480.997 403.897 475.584 403.897C470.734 403.897 468.141 403.446 468.592 402.769C469.494 401.303 479.306 401.303 481.561 402.769Z" fill="black"/>
<path d="M554.302 403.672C560.392 404.687 543.024 407.056 529.153 407.169C518.664 407.282 516.522 406.944 516.522 405.59C516.522 404.123 519.003 403.897 532.198 403.897C540.882 403.897 548.55 403.672 549.453 403.559C550.242 403.333 552.385 403.333 554.302 403.672Z" fill="black"/>
<path d="M502.086 403.559C503.665 403.785 505.357 404.8 505.695 405.703C506.146 406.944 504.906 407.282 498.929 407.282C492.5 407.282 491.598 407.056 491.936 405.251C492.275 403.221 496.109 402.544 502.086 403.559Z" fill="black"/>
<path d="M173.677 404.574C183.263 405.364 197.248 406.492 204.691 407.169C212.134 407.846 229.84 409.2 244.163 410.103C292.319 413.374 305.063 414.615 304.725 415.744C304.387 417.097 302.244 416.985 254.877 412.923C234.126 411.118 212.473 409.313 206.947 408.974C191.383 407.959 143.002 403.897 140.408 403.446C134.656 402.431 158.114 403.221 173.677 404.574Z" fill="black"/>
<path d="M477.613 406.154C483.252 406.718 482.125 406.944 470.847 407.282C463.403 407.62 456.862 407.508 456.186 406.944C455.509 406.492 455.509 406.154 456.186 406.154C456.862 406.041 460.358 405.928 464.08 405.815C467.802 405.703 473.892 405.815 477.613 406.154Z" fill="black"/>
<path d="M144.468 405.815C143.34 406.267 143.566 406.831 145.596 407.959C147.964 409.2 145.934 409.426 131.16 409.2C120.898 409.087 113.567 409.426 113.003 410.103C112.326 410.667 111.537 413.938 111.086 417.323C110.296 422.851 110.409 423.303 112.214 422.626C113.229 422.287 122.589 421.723 132.965 421.497C146.16 421.159 149.205 421.272 143.228 421.836C138.604 422.4 130.935 422.851 126.311 422.964C116.725 423.19 117.401 424.205 128.566 426.462C140.746 429.056 134.093 429.056 119.883 426.462C112.552 425.221 106.462 423.641 106.236 423.077C106.011 422.513 102.402 422.4 98.0037 422.738C92.5904 423.19 90.222 423.077 90.222 422.062C90.222 421.385 92.0265 420.821 94.3948 420.821H98.6804L95.8609 418.564C94.282 417.436 93.3798 416.082 93.8309 415.631C94.282 415.18 96.312 416.082 98.342 417.662C100.372 419.241 103.417 420.821 104.996 421.159C108.379 422.062 109.394 420.144 109.394 412.585V408.41H97.8909H86.3876L89.6582 411.795L92.9287 415.18H86.8387C80.7487 415.18 80.072 413.6 85.7109 412.585C87.2898 412.359 82.3276 412.359 74.6587 412.697C64.7343 413.149 60.8998 412.923 60.8998 412.021C60.8998 411.118 64.5087 410.667 72.8543 410.667C80.4104 410.667 84.4704 410.215 84.0193 409.538C83.6809 408.862 81.6509 408.41 79.6209 408.41C74.2076 408.41 68.7943 407.169 68.7943 405.928C68.7943 405.364 69.2454 405.138 69.8093 405.477C71.5009 406.605 131.95 407.169 132.626 406.041C132.965 405.477 136.123 405.026 139.619 405.138C143.115 405.138 145.37 405.477 144.468 405.815Z" fill="black"/>
<path d="M440.961 406.605C440.961 407.508 432.954 407.959 432.39 407.056C432.051 406.605 433.856 406.154 436.337 406.154C438.931 406.154 440.961 406.38 440.961 406.605Z" fill="black"/>
<path d="M427.992 407.846C427.315 408.072 415.699 409.087 402.053 410.103C388.407 411.118 376.34 412.133 375.212 412.472C374.197 412.81 373.295 412.585 373.295 411.908C373.295 411.231 373.633 410.667 374.084 410.667C374.648 410.667 385.136 409.877 397.542 408.974C419.195 407.395 430.36 406.944 427.992 407.846Z" fill="black"/>
<path d="M171.422 409.538C181.684 410.667 208.3 413.374 230.63 415.631C272.696 419.918 281.493 420.933 278.561 421.61C277.658 421.836 263.11 420.708 246.419 419.241C229.615 417.661 201.984 415.067 184.955 413.487C151.46 410.441 148.866 410.103 148.866 408.41C148.866 407.056 147.851 407.056 171.422 409.538Z" fill="black"/>
<path d="M56.0506 408.072C53.795 408.297 49.9606 408.297 47.5923 408.072C45.3367 407.846 47.2539 407.62 51.8778 407.62C56.5017 407.62 58.4189 407.846 56.0506 408.072Z" fill="black"/>
<path d="M470.622 409.087C470.96 409.426 487.989 409.764 508.515 409.651C540.882 409.538 545.844 409.764 545.844 411.231C545.844 412.585 547.874 412.923 556.784 413.036C609.226 413.713 628.849 413.713 629.864 412.923C631.33 411.795 638.322 412.81 638.322 414.164C638.322 414.728 635.39 415.292 631.781 415.405L625.353 415.518L630.992 416.195L636.631 416.985L631.556 417.887C620.954 419.692 537.273 419.128 536.146 417.21C535.807 416.759 554.303 416.42 577.309 416.533C600.203 416.646 619.376 416.42 619.827 415.969C620.278 415.518 605.729 415.179 587.459 415.067C569.189 415.067 546.972 414.841 537.95 414.728C528.928 414.503 502.087 414.277 478.178 414.051C437.916 413.713 435.209 413.6 440.397 412.02C443.442 411.118 446.374 409.99 446.713 409.426C447.051 408.861 449.645 408.861 452.916 409.426C456.299 410.103 458.893 410.103 459.457 409.426C460.697 408.297 469.494 407.959 470.622 409.087ZM461.374 411.118C461.599 411.344 467.915 411.795 475.358 412.133C482.802 412.472 487.087 412.359 484.944 411.795C480.997 411.005 460.472 410.328 461.374 411.118ZM510.094 412.585C512.349 412.81 515.958 412.81 517.988 412.585C519.906 412.359 517.988 412.133 513.703 412.133C509.304 412.133 507.726 412.359 510.094 412.585Z" fill="black"/>
<path d="M578.099 410.892C578.437 411.344 572.686 411.795 565.355 411.682C558.025 411.682 552.499 411.456 553.175 411.231C555.882 410.328 577.535 409.99 578.099 410.892Z" fill="black"/>
<path d="M56.953 411.795C57.6296 412.81 56.0507 413.036 50.4118 412.81C46.3518 412.585 42.6302 412.697 42.1791 413.149C41.728 413.6 40.2618 413.713 38.9085 413.374C37.5552 413.036 33.3824 413.487 29.7735 414.503C24.2474 415.856 22.3302 417.097 18.383 421.497C15.7891 424.431 13.308 426.574 12.9696 426.236C12.5185 425.897 14.8868 423.077 18.0446 420.144C24.9241 413.6 29.6607 412.021 45.2241 411.005C53.2313 410.554 56.2763 410.667 56.953 411.795Z" fill="black"/>
<path d="M402.729 414.841C376.565 417.323 371.828 417.436 373.52 415.744C374.196 414.954 418.969 411.795 426.3 411.908C429.119 412.021 418.518 413.262 402.729 414.841Z" fill="black"/>
<path d="M158.453 413.713C177.061 416.082 252.848 424.995 281.38 428.154C322.206 432.667 323.334 432.892 321.755 434.472C320.965 435.262 313.184 434.697 297.62 432.667C244.389 425.897 157.325 415.18 154.731 415.18C154.054 415.18 153.378 414.615 153.378 414.051C153.378 413.374 153.716 413.036 154.167 413.036C154.731 413.149 156.535 413.487 158.453 413.713Z" fill="black"/>
<path d="M31.1261 418C28.645 423.077 26.0511 426.236 26.0511 424.205C26.0511 423.303 27.5172 420.708 29.4345 418.564C32.8178 414.728 32.8178 414.615 31.1261 418Z" fill="black"/>
<path d="M530.394 417.436C526.559 418.338 514.379 418 513.364 416.872C513.026 416.533 517.537 416.308 523.401 416.421C530.958 416.533 532.988 416.759 530.394 417.436Z" fill="black"/>
<path d="M509.191 417.436C507.951 418 504.116 418.451 500.733 418.451C497.35 418.451 493.515 418 492.275 417.436C490.809 416.759 493.741 416.421 500.733 416.421C507.725 416.421 510.658 416.759 509.191 417.436Z" fill="black"/>
<path d="M483.816 417.436C483.816 418.226 479.418 418.564 471.411 418.338C464.644 418.113 459.005 417.662 459.005 417.097C459.005 416.646 464.531 416.308 471.411 416.308C479.193 416.308 483.816 416.759 483.816 417.436Z" fill="black"/>
<path d="M450.208 417.097C448.291 417.323 444.908 417.323 442.878 417.097C440.961 416.872 442.54 416.646 446.6 416.646C450.66 416.646 452.238 416.872 450.208 417.097Z" fill="black"/>
<path d="M427.428 417.323C427.428 418.79 413.894 420.256 360.889 424.769C344.423 426.236 354.009 424.205 374.535 421.949C385.926 420.708 401.714 418.903 409.496 418C426.187 415.969 427.428 415.969 427.428 417.323Z" fill="black"/>
<path d="M158.453 419.467C160.257 421.159 165.445 425.559 169.731 429.282L177.625 436.051L138.942 435.938C117.74 435.826 99.9211 435.487 99.5828 435.036C99.0189 434.472 139.506 433.682 151.122 434.133L155.069 434.246L150.333 432.892C139.732 429.846 144.694 428.718 155.859 431.651C159.581 432.554 164.656 433.231 167.024 433.005L171.422 432.667L161.836 424.882C156.536 420.708 152.25 416.985 152.25 416.759C152.25 415.292 155.521 416.759 158.453 419.467Z" fill="black"/>
<path d="M84.3575 418.677C83.6808 420.595 76.9141 421.497 75.2225 419.805C74.3202 418.903 74.9969 418.564 77.478 418.564C79.3952 418.564 81.8764 418.226 83.0041 417.774C84.3575 417.323 84.6958 417.549 84.3575 418.677Z" fill="black"/>
<path d="M306.191 422.062C320.739 423.19 323.559 423.754 321.867 425.221C320.852 426.236 295.252 423.754 289.274 421.949L285.891 421.046H289.274C291.079 421.159 298.748 421.61 306.191 422.062Z" fill="black"/>
<path d="M421.676 426.913C421.338 427.251 392.016 431.2 358.859 435.374C353.333 436.051 351.867 435.938 351.867 434.697C351.867 433.908 352.544 433.231 353.22 433.231C354.01 433.231 367.881 431.764 384.009 429.846C411.188 426.687 422.804 425.785 421.676 426.913Z" fill="black"/>
<path d="M192.286 437.969C195.331 438.533 215.18 442.256 236.269 446.205C257.359 450.154 288.598 456.021 305.628 459.179C336.529 464.821 341.942 466.174 339.912 467.303C339.348 467.641 324.123 464.933 306.191 461.436C288.147 457.938 255.667 451.621 234.014 447.446C194.654 440 180.106 436.841 184.391 436.841C185.632 436.841 189.128 437.292 192.286 437.969Z" fill="black"/>
<path d="M106.011 441.805C115.034 444.513 134.544 450.379 149.318 454.667C164.092 458.954 176.497 462.79 176.836 463.128C178.753 465.046 173.452 463.692 146.611 455.569C107.59 443.836 85.8241 436.841 87.9669 436.841C88.8691 436.841 96.9891 439.097 106.011 441.805Z" fill="black"/>
<path d="M49.6217 443.949C51.2006 444.851 51.8773 445.528 51.3134 445.528C50.6367 445.528 48.945 444.851 47.3661 443.949C45.7873 443.046 44.9978 442.369 45.6745 442.369C46.2384 442.369 48.0428 443.046 49.6217 443.949Z" fill="black"/>
<path d="M452.464 446.205C465.433 447.446 471.298 449.026 463.403 449.026C458.328 449.026 433.968 445.867 433.292 445.077C432.502 444.287 436.9 444.513 452.464 446.205Z" fill="black"/>
<path d="M479.305 449.815C487.425 451.169 492.5 454.441 489.455 456.359C488.779 456.81 488.328 456.585 488.328 455.908C488.328 454.103 484.268 452.41 476.148 450.718C471.185 449.703 469.945 449.251 472.539 449.251C474.682 449.364 477.727 449.59 479.305 449.815Z" fill="black"/>
<path d="M585.993 455.231C584.752 456.133 583.286 456.923 582.722 456.923C581.82 456.923 568.963 462.338 562.422 465.385C560.731 466.287 559.377 466.513 559.377 465.949C559.377 465.497 561.069 464.482 562.986 463.692C565.016 462.79 570.993 460.195 576.068 457.826C585.767 453.426 589.827 452.41 585.993 455.231Z" fill="black"/>
<path d="M397.655 454.78C398.444 456.133 398.331 456.133 376.678 460.195C350.514 465.046 342.845 466.287 342.281 465.723C342.055 465.497 350.288 463.58 360.664 461.549C371.039 459.518 383.445 456.923 388.294 455.795C393.031 454.78 397.316 454.215 397.655 454.78Z" fill="black"/>
<path d="M456.749 466.626C442.652 471.139 437.69 472.267 439.269 470.687C440.284 469.672 466.223 462.451 467.914 462.677C468.253 462.79 463.29 464.482 456.749 466.626Z" fill="black"/>
<path d="M214.841 474.523C237.059 481.179 238.863 481.518 251.494 482.759L262.208 483.662L253.411 483.887C244.276 484 229.164 482.195 227.247 480.615C226.57 480.164 219.465 477.569 211.458 474.974C197.812 470.574 194.316 469.221 196.91 469.333C197.474 469.446 205.481 471.703 214.841 474.523Z" fill="black"/>
<path d="M680.05 475.2C680.05 475.764 668.208 475.99 653.773 475.877C623.661 475.651 625.465 475.2 657.833 474.749C670.013 474.523 680.05 474.749 680.05 475.2Z" fill="black"/>
<path d="M604.15 474.636C603.135 474.862 601.331 474.862 600.203 474.636C599.188 474.297 600.09 474.072 602.233 474.072C604.376 474.072 605.278 474.297 604.15 474.636Z" fill="black"/>
<path d="M404.534 476.892C403.519 477.118 401.715 477.118 400.587 476.892C399.572 476.554 400.474 476.328 402.617 476.328C404.76 476.328 405.662 476.554 404.534 476.892Z" fill="black"/>
<path d="M355.25 481.744C344.762 483.098 309.688 484.113 315.214 482.985C317.695 482.421 329.311 481.744 341.153 481.405C354.686 481.067 359.874 481.18 355.25 481.744Z" fill="black"/>
</g>
</svg>
