<svg width="108" height="37" viewBox="0 0 108 37" fill="none" xmlns="http://www.w3.org/2000/svg">
<path d="M8.937 14C8.481 13.412 8.052 12.86 7.65 12.344C7.254 11.828 6.864 11.324 6.48 10.832L4.536 8.339H3.69V6.341H4.509L6.228 4.289C6.63 3.803 7.029 3.32 7.425 2.84C7.827 2.36 8.289 1.802 8.811 1.166H11.745C11.157 1.844 10.581 2.51 10.017 3.164C9.459 3.818 8.895 4.475 8.325 5.135L6.183 7.628L6.138 6.521L8.523 9.572C8.889 10.04 9.282 10.544 9.702 11.084C10.128 11.624 10.542 12.149 10.944 12.659C11.346 13.169 11.697 13.616 11.997 14H8.937ZM1.395 14C1.395 13.304 1.395 12.629 1.395 11.975C1.395 11.321 1.395 10.595 1.395 9.797V5.459C1.395 4.637 1.395 3.893 1.395 3.227C1.395 2.561 1.395 1.874 1.395 1.166H3.915C3.915 1.874 3.915 2.561 3.915 3.227C3.915 3.893 3.915 4.637 3.915 5.459V9.797C3.915 10.595 3.915 11.321 3.915 11.975C3.915 12.629 3.915 13.304 3.915 14H1.395ZM19.1226 14.225C17.9886 14.225 17.0016 14.048 16.1616 13.694C15.3276 13.34 14.6376 12.854 14.0916 12.236C13.5516 11.618 13.1466 10.91 12.8766 10.112C12.6126 9.314 12.4806 8.471 12.4806 7.583C12.4806 6.341 12.7296 5.216 13.2276 4.208C13.7256 3.194 14.4606 2.393 15.4326 1.805C16.4106 1.211 17.6166 0.913999 19.0506 0.913999C20.1426 0.913999 21.0996 1.085 21.9216 1.427C22.7436 1.769 23.4306 2.246 23.9826 2.858C24.5346 3.47 24.9486 4.178 25.2246 4.982C25.5006 5.786 25.6386 6.65 25.6386 7.574C25.6386 8.846 25.3866 9.983 24.8826 10.985C24.3786 11.987 23.6406 12.779 22.6686 13.361C21.6966 13.937 20.5146 14.225 19.1226 14.225ZM19.0776 12.128C19.7496 12.128 20.3316 12.008 20.8236 11.768C21.3156 11.522 21.7236 11.186 22.0476 10.76C22.3776 10.328 22.6206 9.839 22.7766 9.293C22.9386 8.747 23.0196 8.174 23.0196 7.574C23.0196 6.932 22.9326 6.335 22.7586 5.783C22.5846 5.231 22.3296 4.748 21.9936 4.334C21.6636 3.914 21.2526 3.59 20.7606 3.362C20.2746 3.128 19.7136 3.011 19.0776 3.011C18.4236 3.011 17.8476 3.131 17.3496 3.371C16.8516 3.611 16.4346 3.944 16.0986 4.37C15.7686 4.796 15.5196 5.285 15.3516 5.837C15.1836 6.383 15.0996 6.962 15.0996 7.574C15.0996 8.186 15.1806 8.765 15.3426 9.311C15.5046 9.857 15.7506 10.343 16.0806 10.769C16.4106 11.195 16.8246 11.528 17.3226 11.768C17.8206 12.008 18.4056 12.128 19.0776 12.128ZM27.1025 14C27.1925 13.322 27.2795 12.647 27.3635 11.975C27.4475 11.297 27.5375 10.565 27.6335 9.779L28.1645 5.495C28.2665 4.715 28.3595 3.983 28.4435 3.299C28.5275 2.609 28.6145 1.898 28.7045 1.166H31.2515C31.5695 1.958 31.8725 2.72 32.1605 3.452C32.4485 4.178 32.7365 4.901 33.0245 5.621L34.7255 9.896H34.8965L36.5525 5.63C36.8405 4.904 37.1225 4.184 37.3985 3.47C37.6805 2.75 37.9745 1.982 38.2805 1.166H40.8005C40.8905 1.892 40.9775 2.6 41.0615 3.29C41.1515 3.974 41.2445 4.712 41.3405 5.504L41.8805 9.806C41.9825 10.586 42.0755 11.309 42.1595 11.975C42.2435 12.635 42.3275 13.31 42.4115 14H40.0175C39.8975 13.022 39.7835 12.092 39.6755 11.21C39.5675 10.328 39.4655 9.503 39.3695 8.735L38.9645 5.423H38.7935L37.5065 8.987C37.1945 9.857 36.8795 10.721 36.5615 11.579C36.2495 12.437 35.9585 13.244 35.6885 14H34.0055C33.8255 13.514 33.6245 12.992 33.4025 12.434C33.1865 11.87 32.9645 11.297 32.7365 10.715C32.5085 10.127 32.2835 9.554 32.0615 8.996L30.6755 5.423H30.5045L30.1085 8.717C30.0125 9.491 29.9105 10.322 29.8025 11.21C29.6945 12.092 29.5835 13.022 29.4695 14H27.1025ZM44.813 14C44.813 13.304 44.813 12.629 44.813 11.975C44.813 11.321 44.813 10.595 44.813 9.797V5.459C44.813 4.637 44.813 3.893 44.813 3.227C44.813 2.561 44.813 1.874 44.813 1.166H55.46C55.46 1.874 55.46 2.561 55.46 3.227C55.46 3.893 55.46 4.637 55.46 5.459V9.797C55.46 10.595 55.46 11.321 55.46 11.975C55.46 12.629 55.46 13.304 55.46 14H52.931C52.931 13.304 52.931 12.629 52.931 11.975C52.931 11.321 52.931 10.595 52.931 9.797V5.846C52.931 5.024 52.931 4.28 52.931 3.614C52.931 2.948 52.931 2.261 52.931 1.553L53.687 3.281H46.586L47.342 1.553C47.342 2.261 47.342 2.948 47.342 3.614C47.342 4.28 47.342 5.024 47.342 5.846V9.797C47.342 10.595 47.342 11.321 47.342 11.975C47.342 12.629 47.342 13.304 47.342 14H44.813ZM57.2797 14C57.5137 13.31 57.7597 12.584 58.0177 11.822C58.2757 11.06 58.5187 10.337 58.7467 9.653L60.2407 5.252C60.5107 4.454 60.7537 3.737 60.9697 3.101C61.1917 2.459 61.4107 1.814 61.6267 1.166H64.8847C65.1067 1.838 65.3257 2.492 65.5417 3.128C65.7577 3.764 65.9977 4.472 66.2617 5.252L67.7377 9.662C67.9777 10.37 68.2237 11.099 68.4757 11.849C68.7277 12.599 68.9677 13.316 69.1957 14H66.5947C66.3787 13.298 66.1567 12.575 65.9287 11.831C65.7007 11.087 65.4847 10.385 65.2807 9.725L63.3277 3.335H63.1297L61.1587 9.653C60.9427 10.343 60.7177 11.066 60.4837 11.822C60.2557 12.572 60.0307 13.298 59.8087 14H57.2797ZM60.1327 11.138L60.3847 9.23H66.3787L66.5857 11.138H60.1327ZM79.1854 14C79.1854 13.304 79.1854 12.629 79.1854 11.975C79.1854 11.321 79.1854 10.595 79.1854 9.797V5.459C79.1854 4.637 79.1854 3.893 79.1854 3.227C79.1854 2.561 79.1854 1.874 79.1854 1.166H81.7144C81.7144 1.874 81.7144 2.561 81.7144 3.227C81.7144 3.893 81.7144 4.637 81.7144 5.459V9.797C81.7144 10.595 81.7144 11.321 81.7144 11.975C81.7144 12.629 81.7144 13.304 81.7144 14H79.1854ZM71.0044 14C71.0044 13.304 71.0044 12.629 71.0044 11.975C71.0044 11.321 71.0044 10.595 71.0044 9.797V5.459C71.0044 4.637 71.0044 3.893 71.0044 3.227C71.0044 2.561 71.0044 1.874 71.0044 1.166H73.5334C73.5334 1.874 73.5334 2.561 73.5334 3.227C73.5334 3.893 73.5334 4.637 73.5334 5.459V9.797C73.5334 10.595 73.5334 11.321 73.5334 11.975C73.5334 12.629 73.5334 13.304 73.5334 14H71.0044ZM72.7954 8.582V6.467H79.9774V8.582H72.7954ZM84.5044 14C84.5044 13.304 84.5044 12.629 84.5044 11.975C84.5044 11.321 84.5044 10.595 84.5044 9.797V5.459C84.5044 4.637 84.5044 3.893 84.5044 3.227C84.5044 2.561 84.5044 1.874 84.5044 1.166H86.9704C86.9704 1.874 86.9704 2.564 86.9704 3.236C86.9704 3.902 86.9704 4.649 86.9704 5.477V9.788H87.1504L89.4634 6.431C90.0454 5.591 90.6334 4.739 91.2274 3.875C91.8274 3.011 92.4514 2.108 93.0994 1.166H95.2414C95.2414 1.874 95.2414 2.561 95.2414 3.227C95.2414 3.893 95.2414 4.637 95.2414 5.459V9.797C95.2414 10.595 95.2414 11.321 95.2414 11.975C95.2414 12.629 95.2414 13.304 95.2414 14H92.7754C92.7754 13.298 92.7754 12.62 92.7754 11.966C92.7754 11.312 92.7754 10.586 92.7754 9.788V5.369H92.6044L90.2734 8.726C89.5654 9.746 88.9144 10.682 88.3204 11.534C87.7324 12.386 87.1684 13.208 86.6284 14H84.5044ZM97.0495 14C97.2835 13.67 97.5505 13.292 97.8505 12.866C98.1565 12.44 98.4685 12.002 98.7865 11.552C99.1105 11.096 99.4105 10.673 99.6865 10.283L101.505 7.718L102.351 8.726C101.559 8.726 100.884 8.627 100.326 8.429C99.7735 8.225 99.3235 7.946 98.9755 7.592C98.6335 7.238 98.3845 6.824 98.2285 6.35C98.0725 5.876 97.9945 5.366 97.9945 4.82C97.9945 3.908 98.1715 3.188 98.5255 2.66C98.8855 2.126 99.4135 1.745 100.11 1.517C100.812 1.283 101.676 1.166 102.702 1.166C103.308 1.166 103.908 1.166 104.502 1.166C105.102 1.166 105.66 1.166 106.176 1.166C106.692 1.166 107.136 1.166 107.508 1.166C107.508 1.874 107.508 2.561 107.508 3.227C107.508 3.893 107.508 4.637 107.508 5.459V9.797C107.508 10.595 107.508 11.321 107.508 11.975C107.508 12.629 107.508 13.304 107.508 14H105.033C105.033 13.304 105.033 12.629 105.033 11.975C105.033 11.321 105.033 10.595 105.033 9.797V5.855C105.033 5.027 105.033 4.28 105.033 3.614C105.033 2.948 105.033 2.261 105.033 1.553L106.32 3.182H102.783C102.531 3.182 102.273 3.203 102.009 3.245C101.751 3.287 101.514 3.374 101.298 3.506C101.088 3.632 100.917 3.824 100.785 4.082C100.659 4.334 100.596 4.67 100.596 5.09C100.596 5.894 100.812 6.458 101.244 6.782C101.682 7.1 102.327 7.259 103.179 7.259H105.483V9.212H102.468L103.998 7.952L101.838 11.129C101.52 11.579 101.199 12.044 100.875 12.524C100.557 12.998 100.221 13.49 99.8665 14H97.0495Z" fill="black"/>
<path d="M8.262 34.036C7.728 33.268 7.191 32.503 6.651 31.741C6.117 30.973 5.58 30.208 5.04 29.446C5.58 28.678 6.117 27.913 6.651 27.151C7.191 26.383 7.728 25.618 8.262 24.856L10.521 24.991C10.005 25.717 9.492 26.446 8.982 27.178C8.472 27.91 7.959 28.642 7.443 29.374V29.572C7.959 30.292 8.472 31.015 8.982 31.741C9.492 32.467 10.005 33.193 10.521 33.919L8.262 34.036ZM3.672 34.036C3.138 33.268 2.601 32.503 2.061 31.741C1.527 30.973 0.99 30.208 0.45 29.446C0.99 28.678 1.527 27.913 2.061 27.151C2.601 26.383 3.138 25.618 3.672 24.856L5.931 24.991C5.415 25.717 4.902 26.446 4.392 27.178C3.882 27.91 3.369 28.642 2.853 29.374V29.572C3.369 30.292 3.882 31.015 4.392 31.741C4.902 32.467 5.415 33.193 5.931 33.919L3.672 34.036ZM12.5395 34C12.5395 33.304 12.5395 32.629 12.5395 31.975C12.5395 31.321 12.5395 30.595 12.5395 29.797V25.459C12.5395 24.637 12.5395 23.893 12.5395 23.227C12.5395 22.561 12.5395 21.874 12.5395 21.166H20.8105V23.371C20.1865 23.371 19.5175 23.371 18.8035 23.371C18.0895 23.371 17.2495 23.371 16.2835 23.371H14.0065L15.0685 21.553C15.0685 22.261 15.0685 22.948 15.0685 23.614C15.0685 24.28 15.0685 25.024 15.0685 25.846V29.797C15.0685 30.595 15.0685 31.321 15.0685 31.975C15.0685 32.629 15.0685 33.304 15.0685 34H12.5395ZM22.8579 34C22.8579 33.304 22.8579 32.629 22.8579 31.975C22.8579 31.321 22.8579 30.595 22.8579 29.797V25.45C22.8579 24.634 22.8579 23.893 22.8579 23.227C22.8579 22.561 22.8579 21.874 22.8579 21.166C23.3679 21.166 24.0429 21.166 24.8829 21.166C25.7289 21.166 26.7009 21.166 27.7989 21.166C28.8189 21.166 29.6679 21.295 30.3459 21.553C31.0239 21.811 31.5339 22.228 31.8759 22.804C32.2179 23.374 32.3889 24.136 32.3889 25.09C32.3889 25.912 32.2389 26.641 31.9389 27.277C31.6389 27.907 31.1529 28.402 30.4809 28.762C29.8089 29.116 28.9059 29.293 27.7719 29.293C27.4839 29.293 27.1689 29.293 26.8269 29.293C26.4909 29.293 26.1609 29.293 25.8369 29.293C25.5189 29.293 25.2459 29.293 25.0179 29.293V27.304H27.2229C27.8229 27.304 28.3149 27.229 28.6989 27.079C29.0829 26.929 29.3649 26.695 29.5449 26.377C29.7309 26.053 29.8239 25.633 29.8239 25.117C29.8239 24.697 29.7579 24.361 29.6259 24.109C29.4939 23.851 29.3199 23.656 29.1039 23.524C28.8879 23.392 28.6509 23.302 28.3929 23.254C28.1349 23.206 27.8799 23.182 27.6279 23.182H24.1269L25.3419 21.553C25.3419 22.261 25.3419 22.951 25.3419 23.623C25.3419 24.289 25.3419 25.03 25.3419 25.846V29.797C25.3419 30.595 25.3419 31.321 25.3419 31.975C25.3419 32.629 25.3419 33.304 25.3419 34H22.8579ZM34.4067 34C34.4067 33.304 34.4067 32.629 34.4067 31.975C34.4067 31.321 34.4067 30.595 34.4067 29.797V25.459C34.4067 24.637 34.4067 23.893 34.4067 23.227C34.4067 22.561 34.4067 21.874 34.4067 21.166H36.8727C36.8727 21.874 36.8727 22.564 36.8727 23.236C36.8727 23.902 36.8727 24.649 36.8727 25.477V29.788H37.0527L39.3657 26.431C39.9477 25.591 40.5357 24.739 41.1297 23.875C41.7297 23.011 42.3537 22.108 43.0017 21.166H45.1437C45.1437 21.874 45.1437 22.561 45.1437 23.227C45.1437 23.893 45.1437 24.637 45.1437 25.459V29.797C45.1437 30.595 45.1437 31.321 45.1437 31.975C45.1437 32.629 45.1437 33.304 45.1437 34H42.6777C42.6777 33.298 42.6777 32.62 42.6777 31.966C42.6777 31.312 42.6777 30.586 42.6777 29.788V25.369H42.5067L40.1757 28.726C39.4677 29.746 38.8167 30.682 38.2227 31.534C37.6347 32.386 37.0707 33.208 36.5307 34H34.4067ZM56.1229 34C56.1229 33.304 56.1229 32.629 56.1229 31.975C56.1229 31.321 56.1229 30.595 56.1229 29.797V25.459C56.1229 24.637 56.1229 23.893 56.1229 23.227C56.1229 22.561 56.1229 21.874 56.1229 21.166H58.6519C58.6519 21.874 58.6519 22.561 58.6519 23.227C58.6519 23.893 58.6519 24.637 58.6519 25.459V29.797C58.6519 30.595 58.6519 31.321 58.6519 31.975C58.6519 32.629 58.6519 33.304 58.6519 34H56.1229ZM47.9419 34C47.9419 33.304 47.9419 32.629 47.9419 31.975C47.9419 31.321 47.9419 30.595 47.9419 29.797V25.459C47.9419 24.637 47.9419 23.893 47.9419 23.227C47.9419 22.561 47.9419 21.874 47.9419 21.166H50.4709C50.4709 21.874 50.4709 22.561 50.4709 23.227C50.4709 23.893 50.4709 24.637 50.4709 25.459V29.797C50.4709 30.595 50.4709 31.321 50.4709 31.975C50.4709 32.629 50.4709 33.304 50.4709 34H47.9419ZM49.7329 28.582V26.467H56.9149V28.582H49.7329ZM65.7799 34C65.1499 34 64.5649 34 64.0249 34C63.4849 34 62.9959 34 62.5579 34C62.1259 34 61.7539 34 61.4419 34C61.4419 33.304 61.4419 32.629 61.4419 31.975C61.4419 31.321 61.4419 30.595 61.4419 29.797V25.45C61.4419 24.634 61.4419 23.893 61.4419 23.227C61.4419 22.561 61.4419 21.874 61.4419 21.166C62.1499 21.166 62.9419 21.166 63.8179 21.166C64.6939 21.166 65.5789 21.166 66.4729 21.166C67.3069 21.166 68.0089 21.238 68.5789 21.382C69.1489 21.52 69.6049 21.721 69.9469 21.985C70.2949 22.243 70.5439 22.555 70.6939 22.921C70.8499 23.281 70.9279 23.689 70.9279 24.145C70.9279 24.691 70.8259 25.168 70.6219 25.576C70.4179 25.978 70.1419 26.311 69.7939 26.575C69.4459 26.833 69.0529 27.022 68.6149 27.142V27.349C69.1009 27.451 69.5419 27.622 69.9379 27.862C70.3339 28.096 70.6459 28.423 70.8739 28.843C71.1079 29.257 71.2249 29.785 71.2249 30.427C71.2249 30.955 71.1379 31.438 70.9639 31.876C70.7959 32.308 70.5079 32.683 70.0999 33.001C69.6919 33.319 69.1369 33.565 68.4349 33.739C67.7329 33.913 66.8479 34 65.7799 34ZM63.9079 32.011H65.9959C66.6139 32.011 67.1149 31.942 67.4989 31.804C67.8889 31.66 68.1739 31.456 68.3539 31.192C68.5339 30.922 68.6239 30.595 68.6239 30.211C68.6239 29.611 68.4109 29.173 67.9849 28.897C67.5649 28.621 66.9619 28.483 66.1759 28.483H63.3229V26.584H66.0859C66.6019 26.584 67.0249 26.506 67.3549 26.35C67.6909 26.188 67.9369 25.972 68.0929 25.702C68.2489 25.432 68.3269 25.126 68.3269 24.784C68.3269 24.238 68.1559 23.83 67.8139 23.56C67.4779 23.284 66.9679 23.146 66.2839 23.146H63.9079C63.9079 23.59 63.9079 24.04 63.9079 24.496C63.9079 24.952 63.9079 25.462 63.9079 26.026V29.257C63.9079 29.791 63.9079 30.277 63.9079 30.715C63.9079 31.147 63.9079 31.579 63.9079 32.011ZM74.8914 34C75.1434 33.454 75.4014 32.896 75.6654 32.326C75.9354 31.756 76.2144 31.156 76.5024 30.526L73.7124 24.856C73.4064 24.238 73.1154 23.65 72.8394 23.092C72.5634 22.528 72.2484 21.886 71.8944 21.166H74.7294C74.9394 21.658 75.1284 22.099 75.2964 22.489C75.4644 22.873 75.6204 23.233 75.7644 23.569C75.9084 23.905 76.0524 24.241 76.1964 24.577C76.3464 24.907 76.5054 25.267 76.6734 25.657L77.7444 28.114H77.9424L78.9594 25.693C79.1274 25.291 79.2804 24.919 79.4184 24.577C79.5624 24.235 79.7034 23.896 79.8414 23.56C79.9854 23.218 80.1384 22.855 80.3004 22.471C80.4624 22.087 80.6454 21.652 80.8494 21.166H83.5674C83.2014 21.946 82.8234 22.756 82.4334 23.596C82.0494 24.43 81.6924 25.198 81.3624 25.9L79.4724 29.95C79.1904 30.574 78.8814 31.246 78.5454 31.966C78.2094 32.68 77.8884 33.358 77.5824 34H74.8914ZM92.0846 33.604C92.0846 32.902 92.0846 32.227 92.0846 31.579C92.0846 30.925 92.0846 30.199 92.0846 29.401V25.846C92.0846 25.024 92.0846 24.28 92.0846 23.614C92.0846 22.948 92.0846 22.261 92.0846 21.553L92.8676 23.281H86.6936L87.9446 21.697C87.8966 22.471 87.8486 23.251 87.8006 24.037C87.7526 24.823 87.7046 25.606 87.6566 26.386C87.5966 27.34 87.5066 28.165 87.3866 28.861C87.2666 29.557 87.0896 30.169 86.8556 30.697C86.6276 31.219 86.3246 31.708 85.9466 32.164L83.5436 31.921C83.8616 31.603 84.1466 31.192 84.3986 30.688C84.6506 30.184 84.8606 29.542 85.0286 28.762C85.2026 27.976 85.3226 27.013 85.3886 25.873C85.4366 25.045 85.4846 24.235 85.5326 23.443C85.5866 22.651 85.6346 21.892 85.6766 21.166H94.6046C94.6046 21.874 94.6046 22.561 94.6046 23.227C94.6046 23.893 94.6046 24.637 94.6046 25.459V29.401C94.6046 30.199 94.6046 30.925 94.6046 31.579C94.6046 32.227 94.6046 32.902 94.6046 33.604H92.0846ZM82.4816 36.745C82.4816 36.349 82.4816 35.953 82.4816 35.557C82.4816 35.161 82.4816 34.765 82.4816 34.369C82.4816 33.961 82.4816 33.547 82.4816 33.127C82.4816 32.707 82.4816 32.293 82.4816 31.885C83.2796 31.885 84.0836 31.885 84.8936 31.885C85.7096 31.885 86.5016 31.885 87.2696 31.885H91.4636C92.2376 31.885 93.0296 31.885 93.8396 31.885C94.6556 31.885 95.4596 31.885 96.2516 31.885C96.2516 32.293 96.2516 32.707 96.2516 33.127C96.2516 33.547 96.2516 33.961 96.2516 34.369C96.2516 34.765 96.2516 35.161 96.2516 35.557C96.2516 35.953 96.2516 36.349 96.2516 36.745H94.1366L93.9926 33.604L94.4696 34H84.2636L84.7406 33.604L84.6056 36.745H82.4816ZM104.124 34.036L101.865 33.901C102.381 33.169 102.894 32.437 103.404 31.705C103.92 30.973 104.436 30.244 104.952 29.518V29.32C104.436 28.594 103.92 27.868 103.404 27.142C102.894 26.416 102.381 25.693 101.865 24.973L104.124 24.856C104.664 25.618 105.201 26.383 105.735 27.151C106.275 27.913 106.815 28.678 107.355 29.446C106.815 30.208 106.275 30.973 105.735 31.741C105.201 32.503 104.664 33.268 104.124 34.036ZM99.5335 34.036L97.2745 33.901C97.7905 33.169 98.3035 32.437 98.8135 31.705C99.3295 30.973 99.8425 30.244 100.353 29.518V29.32C99.8425 28.594 99.3295 27.868 98.8135 27.142C98.3035 26.416 97.7905 25.693 97.2745 24.973L99.5335 24.856C100.074 25.618 100.611 26.383 101.145 27.151C101.685 27.913 102.222 28.678 102.756 29.446C102.222 30.208 101.685 30.973 101.145 31.741C100.611 32.503 100.074 33.268 99.5335 34.036Z" fill="#39B645"/>
</svg>
