<svg width="17" height="12" fill="none" xmlns="http://www.w3.org/2000/svg"><path fill-rule="evenodd" clip-rule="evenodd" d="M10.321 12a.611.611 0 01-.56-.387.593.593 0 01.16-.657l.953-.846 3.934-3.51H.608a.61.61 0 01-.43-.176.596.596 0 010-.848.61.61 0 01.43-.176h14.206l-3.989-3.546-.904-.816A.6.6 0 019.714.6c0-.16.064-.312.178-.424a.61.61 0 01.43-.176c.15 0 .293.058.4.162l.917.81 4.384 3.9.765.69a.601.601 0 01.198.444.594.594 0 01-.198.444l-.857.75-4.25 3.798-.947.828a.57.57 0 01-.413.174z" fill="#fff"/></svg>