<svg width="17" height="12" fill="none" xmlns="http://www.w3.org/2000/svg"><path fill-rule="evenodd" clip-rule="evenodd" d="M6.679 12a.612.612 0 00.56-.387.593.593 0 00-.16-.657l-.953-.846L2.192 6.6h14.2a.61.61 0 00.43-.176.597.597 0 000-.848.61.61 0 00-.43-.176H2.187l3.989-3.546.904-.816A.6.6 0 007.286.6a.596.596 0 00-.178-.424.61.61 0 00-.43-.176.574.574 0 00-.4.162l-.917.81-4.383 3.9-.765.69a.6.6 0 00-.147.687.6.6 0 00.146.201l.857.75 4.25 3.798.947.828a.57.57 0 00.413.174z" fill="#fff"/></svg>