<svg width="58" height="58" fill="none" xmlns="http://www.w3.org/2000/svg"><g clip-path="url(#clip0)"><path fill-rule="evenodd" clip-rule="evenodd" d="M-2.471 30.74c-.553-4.136 4.968-7.79 7.89-11.72 2.476-3.329 3.929-7.107 7.887-9.493 4.087-2.464 9.14-3.65 13.933-3.662 4.698-.012 8.266 2.073 12.236 3.594 4.932 1.89 11.454 2.484 13.737 6.361 2.408 4.09.914 9.415-1.736 14.016-2.639 4.58-6.852 9.322-12.829 11.268-5.683 1.85-10.848-1.294-16.569-1.696-4.732-.333-9.85 1.013-13.996-.451-4.737-1.673-9.999-4.063-10.553-8.217z" fill="#FD0"/><path fill="#2A3CB7" d="M16 43h26v9H16z"/><path d="M37.935 29.51h-17.87a.85.85 0 100 1.699h17.87a.85.85 0 100-1.7zm0 4.742h-17.87a.85.85 0 100 1.699h17.87a.85.85 0 100-1.7zm0 4.742h-17.87a.85.85 0 100 1.7h17.87a.85.85 0 100-1.7zm-11.913 4.742h-5.957a.85.85 0 100 1.7h5.957a.85.85 0 100-1.7z" fill="#000"/><path d="M39.534 17.1H24.62c-1.18 0-2.29.46-3.126 1.294l-5.774 5.774a4.392 4.392 0 00-1.295 3.126v22.333a4.046 4.046 0 004.041 4.042h21.069a4.046 4.046 0 004.041-4.041V21.14a4.046 4.046 0 00-4.04-4.042zM22.29 20v4.433a.533.533 0 01-.532.532h-4.433L22.29 20zm19.586 29.627a2.345 2.345 0 01-2.342 2.343H18.465a2.345 2.345 0 01-2.342-2.343V27.294c0-.215.026-.425.074-.63h5.561a2.234 2.234 0 002.231-2.23v-5.562c.204-.048.415-.073.63-.073h14.915a2.345 2.345 0 012.342 2.342v28.486z" fill="#000"/><path d="M53.297 25.389a.7.7 0 01-.342-.644 7.867 7.867 0 00-3.496-7.117.695.695 0 01-.3-.5C47.58 3.983 30.578-.357 22.869 10.406c-6.41-1.283-12.716 2.913-13.899 9.4-5.26 1.327-9 6.11-8.97 11.592C.033 37.636 4.99 42.82 11.282 43.2a.85.85 0 00.102-1.696C5.982 41.178 1.728 36.735 1.7 31.39c-.027-4.873 3.416-9.098 8.186-10.048a.85.85 0 00.677-.723c.79-6.01 6.665-9.91 12.472-8.433a.85.85 0 00.919-.357c6.584-10.02 22.097-6.333 23.518 5.501a2.391 2.391 0 001.047 1.713 6.167 6.167 0 012.741 5.581 2.411 2.411 0 001.17 2.227 7.83 7.83 0 013.87 6.717c.038 4.378-3.634 7.955-8.012 7.955h-1.59a.85.85 0 100 1.699h1.59c5.352 0 9.757-4.372 9.712-9.668a9.517 9.517 0 00-4.703-8.165z" fill="#000"/></g><defs><clipPath id="clip0"><path fill="#fff" d="M0 0h58v58H0z"/></clipPath></defs></svg>