<svg width="58" height="58" fill="none" xmlns="http://www.w3.org/2000/svg"><path d="M30.28 47.714h-9.062l.69-6.978-7.397.204-2.197 6.774H5.528c-1.427 0-2.583-.838-2.583-1.87V28.83c0-1.642 2.696-2.492 4.339-1.36l24.74 17.004c1.711 1.178.578 3.24-1.744 3.24z" fill="#FD0"/><path d="M2.04 55.96v-1.358h8.303l1.472-5.891H5.438a3.408 3.408 0 01-3.399-3.398V29c0-1.87 1.53-3.398 3.398-3.398h6.118v1.359H5.438c-1.122 0-2.04.918-2.04 2.039v16.313c0 1.121.918 2.039 2.04 2.039h6.717l1.688-6.74a.677.677 0 01.657-.51h7.33a.678.678 0 01.588.759l-.815 6.49h9.21c1.087 0 2.039-.951 2.039-2.038V29c0-1.122-.918-2.04-2.04-2.04H17.445v-1.358h13.367A3.408 3.408 0 0134.211 29v16.313c0 .962-.42 1.891-1.133 2.537a3.458 3.458 0 01-2.266.86h-9.368l-.283 2.267h4.214c.374 0 .68.305.68.68v2.945h2.265v-2.946c0-.374.306-.68.68-.68h10.615c.26 0 .52.046.758.148l6.514 2.605c1.45.578 2.968.873 4.52.873h.011c1.11 0 2.05-.793 2.243-1.88a2.31 2.31 0 00-.373-1.7 2.304 2.304 0 00-1.473-.94l-12.903-2.277H35.57v-1.36h3.399c.034 0 .079 0 .113.012l9.652 1.699.079-.102c1.801-2.175 1.631-5.698-.363-7.703a.678.678 0 01-.204-.476v-1.586h1.36v1.314l.056.068c.77.85 1.315 1.88 1.598 2.98l.045.17h2.379V36.25a3.863 3.863 0 00-3.852-3.852h-2.231l-.374 1.1a6.277 6.277 0 01-2.311 3.137 6.442 6.442 0 01-3.727 1.178 6.4 6.4 0 01-2.515-.51 6.357 6.357 0 01-2.945-2.616l1.2-.646a4.947 4.947 0 002.821 2.209 4.91 4.91 0 001.484.215c1.11 0 2.141-.34 2.889-.951a6.136 6.136 0 001.937-2.855l.08-.26-.272-.035c-1.201-.147-2.141-1.212-2.141-2.458v-2.231h-.454c0-.068.034-.102.046-.114-.181.136-1.53.306-2.923.306-.85 0-1.2-.068-1.257-.102a.156.156 0 01.068.136h-.453v2.005a2.498 2.498 0 01-2.266 2.481v-1.37a1.13 1.13 0 00.906-1.11v-2.72l-.136-.056a8.83 8.83 0 01-4.724-4.94l1.28-.452a7.54 7.54 0 004.475 4.35 7.706 7.706 0 005.811-.351 7.476 7.476 0 004.158-6.707V14.66l-2.187-4.373-.226.215c-1.269 1.235-4.203 3.5-9.618 4.77l-.702.158-.725.136c-.328.056-.634.113-.952.158l-.203-1.348c9.04-1.427 11.973-5.664 11.996-5.709a.674.674 0 01.566-.295.7.7 0 01.612.374l2.526 5.064h.714v-1.133a9.321 9.321 0 00-1.495-5.064l-.023-.033a9.228 9.228 0 00-7.771-4.203 9.228 9.228 0 00-7.024 3.206l-1.053-.861c.17-.204.351-.397.544-.578A10.688 10.688 0 0140.77 2.04c3.444 0 6.683 1.677 8.677 4.475l.057.079.102.011a6.997 6.997 0 016.344 6.99v14.5c0 .374-.306.68-.68.68a7.012 7.012 0 01-6.684-4.86l-.147-.454-.26.397a8.942 8.942 0 01-2.991 2.832l-.113.068v3.15c0 .622.51 1.132 1.132 1.132h3.625c2.866 0 5.211 2.345 5.211 5.211v16.075c0 .68-.192 1.348-.555 1.925l-.215.352h1.688v1.359H2.039zm38.515-1.358h3.681l.08-.442-3.761-1.495v1.937zm-10.875 0h9.515v-2.266H29.68v2.266zm-8.972 0h3.987v-2.266h-3.704l-.283 2.266zm-8.96 0h7.59L20.98 41.46h-5.948L11.747 54.6zm39.75-10.196a7.04 7.04 0 01-1.031 3.682c-.011.011-.023.034-.034.045l-.181.283 1.8.318c.465.079.896.249 1.303.498l.352.215V44.18h-2.198l-.011.226zm-1.88-23.562v.906a5.657 5.657 0 004.723 5.585l.26.045V13.594a5.686 5.686 0 00-3.704-5.313L50.41 8.1l.204.475c.544 1.314.827 2.697.827 4.113v1.529l.113.068c1.054.6 1.7 1.733 1.7 2.945 0 1.87-1.53 3.398-3.399 3.398h-.226l-.012.216zm0-1.586h.226a2.045 2.045 0 002.039-2.04c0-1.12-.918-2.038-2.04-2.038h-.226v4.078zm-13.821-1.36c-.306 0-.59-.124-.804-.34a1.128 1.128 0 01.01-1.597l.522-.51.68.261a1.2 1.2 0 01.407.26 1.13 1.13 0 01-.01 1.598 1.16 1.16 0 01-.805.328z" fill="#282828"/><path d="M43.953 17.898c-.623 0-1.133-.51-1.133-1.132 0-.623.51-1.133 1.133-1.133s1.133.51 1.133 1.133-.51 1.132-1.133 1.132zm-2.719 23.563c-2.197 0-3.58-.77-4.384-1.484l.94-.986c.85.725 2.028 1.1 3.444 1.1 1.983 0 3.116-.726 3.75-1.394l1.042.872c-.816.906-2.277 1.892-4.792 1.892zm-1.359-18.125a2.49 2.49 0 01-2.48-2.266h1.37a1.13 1.13 0 001.11.907 1.13 1.13 0 001.11-.907h1.37a2.49 2.49 0 01-2.48 2.266zM8.836 29.227H5.664v1.359h3.172v-1.36zm5.437 0h-3.171v1.359h3.171v-1.36zm5.437 0h-3.17v1.359h3.17v-1.36zm5.438 0h-3.171v1.359h3.171v-1.36zm5.438 0h-3.172v1.359h3.172v-1.36z" fill="#282828"/><path d="M27.188 3.852H6.343a4.317 4.317 0 00-4.305 4.304v9.063a4.317 4.317 0 004.305 4.304h5.018l2.526 5.064a.685.685 0 00.612.374.667.667 0 00.612-.374l2.526-5.064h9.55a4.317 4.317 0 004.304-4.304V8.156a4.317 4.317 0 00-4.305-4.304zM6.57 8.382h14.047v1.36H6.57v-1.36zm19.485 8.61H6.57v-1.36h19.485v1.36zm0-3.625H6.57v-1.36h19.485v1.36zm.906-3.625h-4.078v-1.36h4.078v1.36z" fill="#2A3CB7"/><path d="M14.5 26.96a.698.698 0 01-.612-.373l-2.526-5.064H6.344a4.317 4.317 0 01-4.305-4.304V8.156a4.317 4.317 0 014.305-4.304h20.843a4.317 4.317 0 014.305 4.304v9.063a4.317 4.317 0 01-4.305 4.304h-9.55l-2.525 5.064a.667.667 0 01-.612.374zM6.344 5.21a2.954 2.954 0 00-2.946 2.946v9.063a2.954 2.954 0 002.946 2.945h5.437c.26 0 .487.147.612.374l2.107 4.225 2.107-4.225a.685.685 0 01.612-.374h9.968a2.954 2.954 0 002.946-2.945V8.156a2.954 2.954 0 00-2.945-2.945H6.343z" fill="#282828"/></svg>