<svg width="58" height="58" fill="none" xmlns="http://www.w3.org/2000/svg"><g clip-path="url(#clip0)"><circle cx="31.5" cy="29.5" r="21.5" fill="#FD0"/><circle cx="23.5" cy="28.5" r="2.5" fill="#2A3CB7"/><circle cx="33.5" cy="28.5" r="2.5" fill="#2A3CB7"/><circle cx="40.5" cy="29.5" r="2.5" fill="#FD0"/><path d="M9.667 29c0 12.384-5.05 19.037-9.286 22.436a.967.967 0 00.927 1.666 51.672 51.672 0 0118.183-2.32c2.647.218 5.265.714 7.808 1.482a24.042 24.042 0 007.627.878c12.164-.665 21.978-10.19 23.006-22.33a23.973 23.973 0 00-6.399-18.259A24.167 24.167 0 009.667 29zM33.833 6.767a22.31 22.31 0 0116.286 7.1 22.069 22.069 0 015.888 16.802C55.063 41.836 46.033 50.6 34.843 51.21a22.195 22.195 0 01-7.02-.803 39.43 39.43 0 00-8.216-1.547 47.222 47.222 0 00-2.907-.088A54.161 54.161 0 004.475 50.21C8.17 46.08 11.6 39.44 11.6 29c.014-12.273 9.96-22.22 22.233-22.233z" fill="#282828"/><path d="M18.96 40.74a.967.967 0 00.782-1.535 17.4 17.4 0 0124.296-24.297.968.968 0 001.135-1.568c-7.693-5.576-18.298-4.735-25.016 1.983-6.72 6.719-7.56 17.324-1.984 25.017.183.252.476.4.787.4zm27.177.564a17.312 17.312 0 01-22.508 1.788.968.968 0 10-1.136 1.568c7.694 5.576 18.299 4.736 25.017-1.983 6.719-6.719 7.56-17.324 1.983-25.017a.967.967 0 00-1.565 1.135 17.31 17.31 0 01-1.79 22.509z" fill="#282828"/><path d="M27.067 29a3.867 3.867 0 10-7.734 0 3.867 3.867 0 007.734 0zm-5.8 0a1.933 1.933 0 113.866 0 1.933 1.933 0 01-3.866 0zM37.7 29a3.867 3.867 0 10-7.733 0 3.867 3.867 0 007.733 0zm-5.8 0a1.933 1.933 0 113.867 0 1.933 1.933 0 01-3.867 0zm8.7 0a3.867 3.867 0 107.733 0 3.867 3.867 0 00-7.733 0zm5.8 0a1.933 1.933 0 11-3.867 0 1.933 1.933 0 013.867 0z" fill="#282828"/></g><defs><clipPath id="clip0"><path fill="#fff" d="M0 0h58v58H0z"/></clipPath></defs></svg>