<svg width="58" height="58" fill="none" xmlns="http://www.w3.org/2000/svg"><g clip-path="url(#clip0)"><path d="M41.586 2.526C37.904.85 33.678 0 29 0c-4.701 0-8.938.85-12.586 2.526a1.205 1.205 0 001.009 2.187C20.753 3.183 24.65 2.402 29 2.402c4.327 0 8.224.77 11.589 2.31.158.068.328.114.498.114.465 0 .895-.26 1.099-.714a1.197 1.197 0 00-.6-1.586z" fill="#FD0"/><path d="M46.785 12.438C41.891 7.465 35.74 4.826 29 4.826c-6.706 0-12.857 2.628-17.774 7.612a1.214 1.214 0 00.861 2.062c.317 0 .623-.125.861-.363C17.4 9.63 22.951 7.25 29 7.25c6.072 0 11.623 2.379 16.063 6.887a1.214 1.214 0 001.71.012 1.224 1.224 0 00.012-1.71z" fill="#282828"/><path d="M29 9.663c-1.722 0-3.432.215-5.086.634-.646.17-1.043.827-.873 1.462.17.645.816 1.042 1.473.872A18.021 18.021 0 0129 12.076c9.991 0 18.125 8.133 18.125 18.125 0 .668.544 1.212 1.212 1.212.668 0 1.212-.544 1.212-1.212C49.538 18.884 40.33 9.663 29 9.663z" fill="#282828"/><path d="M20.334 12.869a1.205 1.205 0 00-1.654-.43 20.307 20.307 0 00-4.248 3.307c-3.761 3.806-5.88 8.927-5.97 14.432a1.204 1.204 0 001.19 1.223h.022c.657 0 1.201-.532 1.212-1.189.08-4.882 1.949-9.414 5.268-12.778a17.944 17.944 0 013.76-2.923c.567-.317.76-1.064.42-1.642z" fill="#2A3CB7"/><path d="M40.838 19.892A15.697 15.697 0 0029 14.5a15.55 15.55 0 00-11.136 4.656c-2.945 2.98-4.576 7.012-4.576 11.419.011 2.594-.804 5.72-2.254 8.71l-.68 1.213a1.2 1.2 0 00.464 1.643c.193.102.397.158.59.158a1.23 1.23 0 001.053-.611l.714-1.27c1.665-3.432 2.548-6.841 2.537-9.9 0-3.693 1.382-7.125 3.874-9.652A13.122 13.122 0 0129 16.936c3.84 0 7.488 1.665 10.014 4.565.442.498 1.2.555 1.71.113a1.23 1.23 0 00.114-1.722z" fill="#FD0"/><path d="M46.955 44.146l-1.36-4.464c-.77-3.489-.826-6.83-.872-8.824l-.01-.646c0-1.79-.307-3.557-.896-5.233a1.213 1.213 0 00-1.54-.737 1.222 1.222 0 00-.737 1.54c.499 1.417.76 2.912.76 4.453l.01.657c.046 2.084.114 5.573.952 9.39l1.382 4.555a1.22 1.22 0 001.156.86c.113 0 .237-.01.35-.045.635-.192.998-.872.805-1.506z" fill="#2A3CB7"/><path d="M43.42 49.72l-1.12-3.592c-1.995-6.219-2.368-13.22-2.436-15.916 0-5.992-4.883-10.875-10.875-10.875-5.993 0-10.875 4.95-10.875 11.09 0 1.27-.227 7.987-5.336 15.35a1.192 1.192 0 00.306 1.676 1.212 1.212 0 001.677-.305c5.38-7.76 5.765-14.772 5.765-16.766 0-4.758 3.795-8.632 8.451-8.632 4.668 0 8.462 3.795 8.462 8.485.091 3.511.533 10.331 2.55 16.607l1.12 3.59a1.21 1.21 0 001.519.794 1.19 1.19 0 00.793-1.507z" fill="#282828"/><path d="M35.038 30.2A6.043 6.043 0 0029 24.164c-3.33 0-6.038 2.707-6.038 6.083.011.397.283 9.89-7.397 19.881a1.21 1.21 0 00.226 1.7 1.21 1.21 0 001.7-.227c8.201-10.672 7.907-21.014 7.895-21.4a3.636 3.636 0 013.625-3.624c1.994 0 3.625 1.631 3.625 3.659.034 1.348.046 13.56-9.39 25.817a1.22 1.22 0 00.215 1.699 1.2 1.2 0 00.736.249c.362 0 .725-.159.963-.476 9.946-12.937 9.912-25.919 9.878-27.323z" fill="#282828"/><path d="M30.2 30.155c-.033-.668-.577-1.132-1.257-1.155-.668.034-1.19.59-1.155 1.257 0 .012.068 1.779-.385 4.588-.102.657.34 1.28.997 1.382.068.012.136.012.192.012.59 0 1.099-.42 1.19-1.02.51-3.059.419-4.984.419-5.064z" fill="#2A3CB7"/><path d="M27.833 38.754a1.229 1.229 0 00-1.506.815c-1.518 5.11-4.022 9.878-7.466 14.183a1.208 1.208 0 101.892 1.507c3.636-4.554 6.299-9.607 7.896-15.01a1.202 1.202 0 00-.816-1.495z" fill="#282828"/><path d="M39.535 53.23l-1.45-4.632a111.614 111.614 0 01-1.121-3.58 1.199 1.199 0 00-1.088-.861c-.532-.057-.985.26-1.178.736-.023.068-2.719 6.39-5.8 11.25a1.197 1.197 0 00.374 1.664 1.199 1.199 0 001.665-.363c1.87-2.944 3.568-6.32 4.667-8.676.068.192.125.385.193.577l1.45 4.61c.192.635.872.998 1.518.794a1.21 1.21 0 00.77-1.518z" fill="#2A3CB7"/></g><defs><clipPath id="clip0"><path fill="#fff" d="M0 0h58v58H0z"/></clipPath></defs></svg>