<svg width="58" height="58" fill="none" xmlns="http://www.w3.org/2000/svg"><path d="M48.946 56.742H6.653a4.395 4.395 0 01-4.397-4.397V12.338c0-3.862 4.629-5.858 7.435-3.197l15.462 14.623-4.904 5.569-2.762 11.889 12.612-3.645 4.527-4.86 17.357 16.417c2.878 2.748.94 7.608-3.037 7.608z" fill="#FD0"/><path d="M50.956 14.117l-6.624-6.625a1.117 1.117 0 010-1.576l2.43-2.43a5.692 5.692 0 018.056 0l.955.954a4.548 4.548 0 010 6.437l-3.24 3.24c-.42.434-1.129.434-1.577 0z" fill="#2A3CB7"/><path d="M7.217 57.35A6.648 6.648 0 01.58 50.71V13.06c0-3.659 2.98-6.638 6.638-6.638h12.83a.87.87 0 01.868.868.87.87 0 01-.868.868H7.217c-2.704 0-4.903 2.213-4.917 4.917v37.65c0 2.704 2.213 4.903 4.917 4.917h40.528c2.705 0 4.903-2.198 4.918-4.917v-12.83a.87.87 0 01.868-.868.87.87 0 01.867.868v12.83c0 3.659-2.979 6.639-6.638 6.639H7.217v-.015z" fill="#282828"/><path d="M17.067 42.017a.81.81 0 01-.607-.26.86.86 0 01-.217-.839l3.384-12.236a.888.888 0 01.217-.376L45.62 2.53A5.896 5.896 0 0149.813.796c1.577 0 3.067.621 4.195 1.735l1.678 1.692a5.945 5.945 0 010 8.375l-25.76 25.775a.761.761 0 01-.376.217l-12.237 3.384a.735.735 0 01-.246.043zm1.244-2.111l9.46-2.618-6.842-6.842-2.618 9.46zm3.457-11.08l7.622 7.623 21.913-21.913-7.622-7.608-21.913 21.898zM49.813 2.531a4.17 4.17 0 00-2.965 1.23L44.91 5.699l7.623 7.622 1.938-1.938a4.199 4.199 0 000-5.93L52.764 3.76a4.112 4.112 0 00-2.95-1.23z" fill="#282828"/><path d="M48.934 10.109l-.972-.972-23.789 23.789.972.972 23.789-23.79z" fill="#282828"/></svg>