<svg width="58" height="58" fill="none" xmlns="http://www.w3.org/2000/svg"><path fill="#2A3CB7" d="M3 39h53v7H3z"/><path fill="#FD0" d="M29 12h22v10H29z"/><path d="M47.125 4.531h1.813v1.813h-1.813V4.53zm3.625 0h1.813v1.813H50.75V4.53zm-1.812 25.375h3.624v1.813h-3.624v-1.813zm-4.532-3.625h8.157v1.813h-8.157V26.28zm.907 7.25h7.25v1.813h-7.25V33.53z" fill="#000"/><path d="M54.148 1.813H29v1.812h25.148a.226.226 0 01.227.227V7.25H24.618a9.116 9.116 0 00-2.874-3.625h5.444V1.812H3.852a2.041 2.041 0 00-2.04 2.04V44.18a2.041 2.041 0 002.04 2.039h7.023v-1.813H3.852a.226.226 0 01-.227-.226v-5.211h50.75v5.21a.227.227 0 01-.227.227h-41.46v1.813h9.968v1.265a3.62 3.62 0 01-2.478 3.44l-.79.262a3.167 3.167 0 00-2.17 3.01v1.085a.906.906 0 00.907.907h21.75a.906.906 0 00.906-.907v-1.085a3.167 3.167 0 00-2.169-3.01l-.79-.263a3.621 3.621 0 01-2.478-3.439v-1.265h18.804a2.042 2.042 0 002.04-2.04V29.907h-1.813v7.25H29.28l2.227-8.165a3.17 3.17 0 002.486-4.781l6.59-8.237-1.416-1.133-6.51 8.138a3.151 3.151 0 00-1.391-.322h-.732a3.157 3.157 0 00-2.945 1.994l-1.235 3.088-.654 1.438c-.1-.284-.208-.572-.325-.863V10.875a9.05 9.05 0 00-.182-1.813h29.182v19.032h1.813V3.852a2.042 2.042 0 00-2.04-2.04zM37.25 52.642l.79.263a1.357 1.357 0 01.93 1.29v.179H19.03v-.18a1.358 1.358 0 01.93-1.29l.79-.262a5.43 5.43 0 003.718-5.159v-1.265h9.062v1.265a5.432 5.432 0 003.718 5.159zM3.852 3.625h7.029A9.116 9.116 0 008.007 7.25H3.625V3.852a.227.227 0 01.227-.227zm23.55 33.531h-3.338L27.77 29h1.855l-2.224 8.156zm1.87-11.833a1.353 1.353 0 011.262-.854h.732a1.36 1.36 0 110 2.718h-2.74l.746-1.864zm-7.2 11.833h-10.29v-4.531H9.968v4.531H7.267c.104-2.766.673-5.639 1.597-8.009a14.913 14.913 0 011.731-3.264l1.221 4.273a.908.908 0 001.415.475l3.082-2.31 3.08 2.31a.906.906 0 001.416-.476l1.222-4.277a13.92 13.92 0 011.532 2.764v.018h.007c.407.978.74 1.985.995 3.013l-2.492 5.483zm-9.008-13.62l2.05 3.417-1.917 1.439-1.171-4.1c.322-.283.67-.536 1.038-.757zm7.534.76l-1.17 4.095-1.918-1.438 2.049-3.415a7.35 7.35 0 011.039.759zm-4.285-3.828a3.15 3.15 0 001.3-.28l.46 2.302-1.76 2.936-1.762-2.936.46-2.302c.41.185.853.28 1.302.28zm.699-2.007a1.357 1.357 0 01-1.399 0l-2.265-1.36a1.365 1.365 0 01-.66-1.165v-4.381a2.487 2.487 0 011.597-2.329 6.36 6.36 0 005.652 3.461v3.249a1.365 1.365 0 01-.66 1.166l-2.265 1.359zm2.729 3.123l-.473-2.363.942-.565a3.188 3.188 0 001.54-2.72v-4.155a.907.907 0 00-.906-.906h-.907A4.542 4.542 0 0115.67 7.87a.906.906 0 00-.95-.596 4.294 4.294 0 00-3.845 4.28v4.382a3.189 3.189 0 001.54 2.72l.942.565-.473 2.363c-1.447.67-2.735 1.796-3.822 3.327V17.22H7.25v11.083l-.074.186c-1.002 2.571-1.617 5.683-1.722 8.668H3.625V9.063h3.807a9.068 9.068 0 00-.182 1.812v4.531h1.813v-4.531a7.25 7.25 0 1114.5 0v14.037c-.974-1.38-2.223-2.59-3.822-3.328z" fill="#282828"/><path d="M26.281 40.781h5.438v1.813H26.28V40.78zM5.438 4.531H7.25v1.813H5.437V4.53zm32.625 25.375h9.062v1.813h-9.063v-1.813zm0-3.625h4.53v1.813h-4.53V26.28zm-4.532 7.25H43.5v1.813h-9.969V33.53zm19.032-21.75a.907.907 0 00-.907-.906H28.094a.907.907 0 00-.907.906v9.063H29v-8.157h21.75v9.063H38.062v1.813h13.594a.907.907 0 00.907-.907V11.781z" fill="#282828"/></svg>