<svg width="58" height="58" fill="none" xmlns="http://www.w3.org/2000/svg"><path d="M55.632 55.644H2.356l-.51-30.756 12.948-10.785L29 2.72l16.63 13.684 10.002 7.873v31.368z" fill="#FD0"/><path d="M2.866 55.644l16.437-16.88L29 47.194l10.003-8.156 16.63 16.607H2.865z" fill="#2A3CB7"/><path d="M49.923 29.181L29 46.48 8.655 29.181V8.971h41.268v20.21z" fill="#fff"/><path d="M50.943 29h-1.564V9.402H8.621V29H7.057V8.62c0-.43.352-.78.782-.78h42.322c.43 0 .782.35.782.78V29z" fill="#282828"/><path d="M36.114 9.221L29 3.376l-7.114 5.856-1.008-1.212 7.612-6.275a.801.801 0 011.008 0l7.613 6.275-.997 1.201zm19.53 47.216H2.356a.783.783 0 01-.781-.782V24.3c0-.238.102-.453.283-.6l5.483-4.52 1.008 1.2-5.2 4.282v30.201h51.724v-30.2l-5.2-4.283 1.009-1.212 5.483 4.52a.786.786 0 01.283.612v31.356a.803.803 0 01-.804.782z" fill="#282828"/><path d="M29 47.816a.794.794 0 01-.51-.193L1.846 24.888l1.02-1.19L29 46.004 55.134 23.71l1.02 1.19L29.51 47.622a.794.794 0 01-.51.193z" fill="#282828"/><path d="M38.164 39.286l1.11-1.11 16.913 16.913-1.11 1.11-16.913-16.913zM1.801 55.089l16.913-16.913 1.11 1.11L2.9 56.199l-1.099-1.11z" fill="#282828"/><path d="M17.638 13.322h10.184c.43 0 .782.351.782.782 0 .43-.352.781-.782.781H17.638a.783.783 0 01-.782-.781c0-.43.351-.782.782-.782z" fill="#2A3CB7"/><path d="M17.638 18.793h22.724c.43 0 .782.352.782.782 0 .43-.352.782-.782.782H17.638a.783.783 0 01-.782-.782c0-.43.351-.782.782-.782z" fill="#282828"/><path d="M17.638 24.276h22.724c.43 0 .782.351.782.782 0 .43-.352.782-.782.782H17.638a.783.783 0 01-.782-.782c0-.43.351-.782.782-.782z" fill="#2A3CB7"/><path d="M17.638 29.748h22.724c.43 0 .782.35.782.781 0 .43-.352.782-.782.782H17.638a.783.783 0 01-.782-.782c0-.43.351-.781.782-.781z" fill="#282828"/></svg>