<svg width="58" height="58" fill="none" xmlns="http://www.w3.org/2000/svg"><g clip-path="url(#clip0)"><path fill-rule="evenodd" clip-rule="evenodd" d="M-2.471 30.74c-.553-4.136 4.968-7.79 7.89-11.72 2.476-3.329 3.929-7.107 7.887-9.493 4.087-2.464 9.14-3.65 13.933-3.662 4.698-.012 8.266 2.073 12.236 3.594 4.931 1.89 11.454 2.484 13.737 6.361 2.408 4.09.914 9.415-1.736 14.016-2.639 4.58-6.852 9.322-12.829 11.268-5.683 1.85-10.848-1.294-16.569-1.696-4.732-.333-9.85 1.013-13.996-.451-4.737-1.673-9.999-4.063-10.553-8.217z" fill="#FD0"/><circle cx="15" cy="51" r="2" fill="#2A3CB7"/><circle cx="5" cy="45" r="2" fill="#2A3CB7"/><path d="M53.469 29a8.165 8.165 0 00-8.157-8.156v1.812A6.351 6.351 0 0151.657 29h1.813z" fill="#282828"/><path d="M52.563 42.594a2.719 2.719 0 00-2.553 1.812h-1.979v-3.954a11.775 11.775 0 00-2.718-23.233c-.644.001-1.287.057-1.922.166a14.484 14.484 0 00-28.782 0 11.489 11.489 0 00-1.921-.166 11.775 11.775 0 00-2.72 23.233v3.954H7.99a2.719 2.719 0 100 1.813h2.885a.906.906 0 00.906-.907v-4.577c.3.024.6.046.906.046h.907v7.417a2.719 2.719 0 101.812 0v-7.417h3.625V38.97h-6.343a9.969 9.969 0 112.517-19.603.905.905 0 001.134-.841 12.67 12.67 0 0125.322 0 .908.908 0 001.134.84 9.963 9.963 0 0112.053 12.557 9.963 9.963 0 01-9.535 7.047H40.78v1.812h1.813v7.417a2.719 2.719 0 101.812 0v-7.417h.907c.306 0 .606-.022.906-.046v4.578a.906.906 0 00.906.906h2.886a2.714 2.714 0 102.551-3.625zM5.438 46.219a.906.906 0 110-1.813.906.906 0 010 1.813zm9.062 5.437a.906.906 0 110-1.813.906.906 0 010 1.813zm29 0a.906.906 0 110-1.813.906.906 0 010 1.813zm9.063-5.437a.906.906 0 110-1.813.906.906 0 010 1.813z" fill="#282828"/><path d="M24.259 30.232a.94.94 0 00-1.393 0l-4.53 5.437a.907.907 0 00.695 1.487h1.813v8.157a.906.906 0 00.906.906h3.625a.906.906 0 00.906-.907v-8.156h1.813a.907.907 0 00.696-1.487l-4.531-5.437zm1.116 5.112a.906.906 0 00-.906.906v8.156h-1.813V36.25a.906.906 0 00-.906-.906h-.784l2.596-3.116 2.597 3.116h-.784zm13.594 3.625h-1.813v-8.157a.906.906 0 00-.906-.906h-3.625a.906.906 0 00-.906.907v8.156h-1.813a.907.907 0 00-.696 1.487l4.532 5.437a.907.907 0 001.392 0l4.53-5.437a.907.907 0 00-.695-1.487zm-4.532 4.928l-2.596-3.116h.784a.906.906 0 00.906-.906v-8.156h1.813v8.156a.906.906 0 00.906.906h.784l-2.596 3.116z" fill="#282828"/></g><defs><clipPath id="clip0"><path fill="#fff" d="M0 0h58v58H0z"/></clipPath></defs></svg>