<svg width="58" height="58" fill="none" xmlns="http://www.w3.org/2000/svg"><g clip-path="url(#clip0)"><path d="M56.3 56.074H1.247V15.18h3.682l-.17 37.88 12.812-1.88L29 53.242l12.053-2.152 12.461 2.333-.453-38.243h3.24v40.894z" fill="#FD0"/><path d="M32.976 27.505c.17.34.51.532.861.532.147 0 .295-.034.442-.102.056-.034 5.743-2.922 8.553-3.806a.968.968 0 00-.578-1.847c-2.957.94-8.61 3.807-8.847 3.931a.943.943 0 00-.43 1.292zm.861-11.068c.147 0 .295-.034.442-.102.056-.034 5.743-2.923 8.553-3.806a.968.968 0 00-.578-1.847c-2.957.94-8.61 3.807-8.847 3.931a.961.961 0 00-.42 1.303.941.941 0 00.85.521z" fill="#282828"/><path d="M57.037 14.5a.962.962 0 00-.963.963v37.7c0 1.597-1.302 2.9-2.9 2.9H29.963v-2.22c1.405-.499 5.086-1.643 8.7-1.643 8.417 0 14.137 1.87 14.194 1.88a.965.965 0 001.269-.917V10.637a.959.959 0 00-.76-.94s-.758-.17-2.05-.408a.957.957 0 00-1.121.77.957.957 0 00.77 1.122c.499.09.906.17 1.224.238v40.464c-2.187-.578-7.058-1.62-13.537-1.62-4.215 0-8.35 1.382-9.63 1.858-1.132-.499-4.576-1.858-8.733-1.858-6.661 0-12.144 1.099-14.5 1.654V11.385c1.925-.476 7.635-1.71 14.5-1.71 3.523 0 6.547 1.098 7.737 1.596v38.04a.967.967 0 001.461.827c.09-.056 9.674-5.777 18.17-8.61a.963.963 0 00.658-.917V.963a.968.968 0 00-.42-.793A.966.966 0 0047 .057c-7.737 2.9-15.564 7.77-15.644 7.816a.971.971 0 00-.306 1.337.971.971 0 001.337.306c.068-.046 6.876-4.282 13.99-7.137v37.53c-6.593 2.288-13.492 6.038-16.437 7.714V10.637a.956.956 0 00-.532-.86c-.17-.08-4.124-2.04-9.13-2.04-8.712 0-15.43 1.892-15.713 1.971a.959.959 0 00-.702.93v42.536c0 .306.147.59.385.77a.983.983 0 00.838.16c.068-.023 6.752-1.893 15.203-1.893 3.534 0 6.559 1.1 7.737 1.598v2.277H4.837a2.906 2.906 0 01-2.9-2.9V15.462a.962.962 0 00-.963-.963.972.972 0 00-.974.963v37.7A4.835 4.835 0 004.837 58h48.337a4.842 4.842 0 004.837-4.837v-37.7a.98.98 0 00-.974-.963z" fill="#282828"/><path d="M32.976 21.705c.17.34.51.532.861.532.147 0 .295-.034.442-.102.056-.034 5.743-2.923 8.553-3.806a.968.968 0 00-.578-1.847c-2.957.94-8.61 3.807-8.847 3.931a.943.943 0 00-.43 1.292zm0 11.6c.17.34.51.532.861.532.147 0 .295-.034.442-.102.056-.034 5.743-2.923 8.553-3.806a.968.968 0 00-.578-1.847c-2.957.94-8.61 3.807-8.847 3.931a.943.943 0 00-.43 1.292zm-9.561-15.361c-5.97-1.405-12.755.385-13.038.464a.964.964 0 00-.68 1.19.966.966 0 001.178.68c.068-.023 6.593-1.734 12.098-.442a.972.972 0 001.167-.726.962.962 0 00-.725-1.166z" fill="#2A3CB7"/><path d="M23.415 23.744c-5.97-1.405-12.755.385-13.038.464a.964.964 0 00-.68 1.19.966.966 0 001.178.68c.068-.023 6.593-1.734 12.098-.442a.972.972 0 001.167-.726.962.962 0 00-.725-1.166zm9.561 15.361c.17.34.51.532.861.532.147 0 .295-.034.442-.102.056-.034 5.743-2.922 8.553-3.806a.968.968 0 00-.578-1.847c-2.957.94-8.61 3.807-8.847 3.931a.943.943 0 00-.43 1.292z" fill="#282828"/><path d="M23.415 29.544c-5.97-1.405-12.755.385-13.038.464a.964.964 0 00-.68 1.19.966.966 0 001.178.68c.068-.023 6.593-1.734 12.098-.442a.972.972 0 001.167-.726.962.962 0 00-.725-1.166zm0 11.6c-5.97-1.405-12.755.385-13.038.464a.964.964 0 00-.68 1.19.966.966 0 001.178.68c.068-.023 6.593-1.734 12.098-.443a.972.972 0 001.167-.724.962.962 0 00-.725-1.167z" fill="#2A3CB7"/><path d="M23.415 35.344c-5.97-1.405-12.755.385-13.038.464a.964.964 0 00-.68 1.19.966.966 0 001.178.68c.068-.023 6.593-1.734 12.098-.442a.972.972 0 001.167-.725.961.961 0 00-.725-1.167z" fill="#282828"/></g><defs><clipPath id="clip0"><path fill="#fff" d="M0 0h58v58H0z"/></clipPath></defs></svg>