<svg width="58" height="58" fill="none" xmlns="http://www.w3.org/2000/svg"><g clip-path="url(#clip0)"><path fill-rule="evenodd" clip-rule="evenodd" d="M57.4 12.118c.553 4.136-4.967 7.79-7.89 11.72-2.475 3.329-3.928 7.107-7.886 9.493-4.088 2.464-9.14 3.65-13.934 3.662-4.698.012-8.266-2.072-12.236-3.594-4.931-1.89-11.453-2.484-13.736-6.36-2.409-4.09-.915-9.416 1.736-14.017C6.092 8.442 10.305 3.7 16.282 1.754c5.684-1.85 10.848 1.295 16.57 1.697 4.732.332 9.849-1.014 13.996.45 4.736 1.673 9.998 4.063 10.553 8.217z" fill="#FD0"/><circle cx="29.5" cy="52.5" r="2.5" fill="#2A3CB7"/><ellipse cx="11" cy="45.5" rx="2" ry="2.5" fill="#2A3CB7"/><ellipse cx="47" cy="45.5" rx="2" ry="2.5" fill="#2A3CB7"/><path d="M40.422 4.748a15.412 15.412 0 00-8.776-2.724 15.442 15.442 0 00-13.804 8.451c-.43.842-1.203.736-1.958.736a10.905 10.905 0 00-10.317 7.37c-.133.39-.46.702-.896.855a6.96 6.96 0 00-4.666 6.871c.146 3.768 3.334 6.715 7.122 6.715H9.68v3.07H7.194a2.657 2.657 0 00-2.513-1.803 2.656 2.656 0 00-2.653 2.654 2.656 2.656 0 002.653 2.653 2.657 2.657 0 002.513-1.804h3.335a.85.85 0 00.85-.85v-3.92h7.68v11.342h-5.095a3.046 3.046 0 00-2.919-2.192 3.045 3.045 0 00-3.041 3.041 3.045 3.045 0 003.041 3.041c1.382 0 2.55-.927 2.92-2.191h5.943a.85.85 0 00.85-.85V33.022h7.668v15.83a3.619 3.619 0 00-2.764 3.511 3.617 3.617 0 003.613 3.613 3.617 3.617 0 003.613-3.613c0-1.7-1.18-3.128-2.763-3.511v-15.83h1.852a.85.85 0 100-1.7H7.127c-2.883 0-5.316-2.279-5.424-5.08a5.27 5.27 0 013.532-5.203c.93-.327 1.637-1.022 1.94-1.907a9.206 9.206 0 018.71-6.222c.582 0 2.508.22 3.47-1.661a13.75 13.75 0 0112.29-7.526c2.807 0 5.509.838 7.813 2.425a.85.85 0 10.964-1.4zM4.681 37.896a.955.955 0 010-1.907.955.955 0 010 1.907zm6.363 8.66a1.343 1.343 0 010-2.684 1.343 1.343 0 010 2.683zm20.144 5.807a1.916 1.916 0 01-1.914 1.914 1.916 1.916 0 01-1.914-1.914c0-1.055.859-1.914 1.914-1.914 1.056 0 1.914.859 1.914 1.914z" fill="#282828"/><path d="M46.693 31.322H35.941a.85.85 0 100 1.7h1.852v12.191c0 .47.38.85.85.85h5.943a3.046 3.046 0 002.92 2.191 3.045 3.045 0 003.04-3.04 3.045 3.045 0 00-3.04-3.042 3.046 3.046 0 00-2.92 2.192h-5.094V33.022h7.201c.179 0 .357-.005.535-.014v3.934c0 .47.38.85.85.85h3.334a2.657 2.657 0 002.512 1.804 2.656 2.656 0 002.654-2.654 2.656 2.656 0 00-2.654-2.653 2.657 2.657 0 00-2.512 1.804h-2.485v-3.298c5.17-1.051 9.176-5.595 9.07-11.094-.118-6.194-5.287-11.106-11.49-10.88a1.387 1.387 0 01-1.252-.719 15.562 15.562 0 00-1.718-2.519.85.85 0 10-1.303 1.09c.582.696 1.097 1.45 1.53 2.244a3.098 3.098 0 002.805 1.602c5.242-.19 9.63 3.96 9.73 9.215.102 5.306-4.367 9.588-9.606 9.588zm.812 12.55a1.343 1.343 0 010 2.683c-.74 0-1.342-.602-1.342-1.342 0-.74.602-1.342 1.342-1.342zm6.42-7.883a.955.955 0 010 1.907.955.955 0 010-1.907z" fill="#282828"/></g><defs><clipPath id="clip0"><path fill="#fff" d="M0 0h58v58H0z"/></clipPath></defs></svg>