<svg width="58" height="58" fill="none" xmlns="http://www.w3.org/2000/svg"><g clip-path="url(#clip0)"><circle cx="31.5" cy="37.5" r="20.5" fill="#FD0"/><circle cx="42.5" cy="9.5" r="9.5" fill="#2A3CB7"/><path d="M17.995 46.045a4.42 4.42 0 012.865 1.297 4.418 4.418 0 011.303 3.14v1.728a10.512 10.512 0 002.223-6.483c0-2.919-1.185-5.565-3.1-7.479a10.539 10.539 0 00-7.478-3.095 10.537 10.537 0 00-7.475 3.095 10.547 10.547 0 00-3.1 7.479c0 2.44.83 4.688 2.22 6.48v-1.724c0-1.224.5-2.335 1.304-3.14a4.434 4.434 0 012.867-1.298 4.453 4.453 0 01-.308-1.631v-3.905c0-.797.324-1.52.848-2.042a2.88 2.88 0 012.042-.848h5.247c.472 0 .85.379.85.85v5.945a4.45 4.45 0 01-.308 1.63zm-6.98-5.209h5.59v-1.519h-4.4a1.195 1.195 0 00-1.19 1.192v.327zm5.59 1.699h-5.59v1.879a2.804 2.804 0 002.793 2.793 2.805 2.805 0 002.797-2.794v-1.878zm30.38-32.487c-.988.109-2.46.032-3.715-1.018a3.717 3.717 0 01-1.875.465v1.468c0 .767.315 1.464.822 1.972a2.782 2.782 0 003.947 0 2.782 2.782 0 00.822-1.972v-.915zM41.395 7.8a2.016 2.016 0 001.42-.498.848.848 0 011.194.087c.947 1.085 2.241 1.076 2.976.957V7.055c0-.324-.134-.623-.35-.838a1.176 1.176 0 00-.84-.35h-3.209c-.328 0-.623.131-.841.35-.215.215-.35.514-.35.838V7.8zM10.79 47.734H9.9a2.74 2.74 0 00-1.94.81 2.728 2.728 0 00-.808 1.939v3.461c.735.594 1.55 1.095 2.43 1.477v-3.365a.85.85 0 111.699 0v3.94c.81.2 1.657.305 2.527.305.874 0 1.721-.106 2.53-.305v-3.94a.85.85 0 111.7 0v3.366c.88-.383 1.698-.883 2.433-1.48v-3.46c0-.75-.311-1.438-.812-1.939a2.74 2.74 0 00-1.94-.809h-.89a4.465 4.465 0 01-6.04 0zm37.894-36.771c0 .572-.109 1.124-.308 1.628a4.45 4.45 0 014.168 4.44v1.729a10.528 10.528 0 002.222-6.487 10.54 10.54 0 00-3.099-7.476A10.54 10.54 0 0044.192 1.7a10.542 10.542 0 00-7.479 3.098 10.54 10.54 0 00-3.099 7.476c0 2.444.829 4.692 2.22 6.48v-1.721c0-1.227.5-2.338 1.306-3.144a4.435 4.435 0 012.865-1.297 4.432 4.432 0 01-.309-1.628V7.055c0-.793.325-1.516.848-2.04a2.881 2.881 0 012.042-.847h3.208a2.88 2.88 0 012.042.848 2.88 2.88 0 01.848 2.039v3.908zm-1.474 3.32a4.476 4.476 0 01-6.04 0h-.89c-.754 0-1.441.309-1.939.806-.5.501-.81 1.188-.81 1.943v3.458a10.568 10.568 0 002.432 1.48v-3.368a.85.85 0 111.698 0v3.944a10.638 10.638 0 005.058 0v-3.944a.85.85 0 111.699 0v3.369a10.545 10.545 0 002.434-1.484v-3.455c0-.755-.312-1.442-.813-1.943a2.738 2.738 0 00-1.94-.806h-.889zm-23.4 24.325a28.532 28.532 0 014.338-.491V29.85h-8.492a37.177 37.177 0 00.494 5.366c.854.514 1.638 1.13 2.338 1.83.482.482.925 1.005 1.323 1.56zm6.041-.495c2.524.077 4.907.501 7.032 1.195.86-2.762 1.387-5.992 1.461-9.457h-8.493v8.262zm8.622 1.786c1.67.7 3.134 1.58 4.328 2.598a19.413 19.413 0 003.06-4.091.848.848 0 011.481.822 21.072 21.072 0 01-7.726 7.893A20.907 20.907 0 0129 50a21.61 21.61 0 01-2.18-.112 22.032 22.032 0 01-1.394-.193 12.226 12.226 0 01-2.938 4.71A12.24 12.24 0 0113.808 58a12.236 12.236 0 01-8.676-3.593 12.24 12.24 0 01-3.597-8.68c0-3.391 1.375-6.458 3.597-8.68a12.242 12.242 0 013.609-2.501 20.52 20.52 0 01-.5-2.36A21.282 21.282 0 017.998 29a20.978 20.978 0 011.195-6.99.847.847 0 011.082-.518.844.844 0 01.517 1.083 19.102 19.102 0 00-.82 3.16 19.179 19.179 0 00-.256 2.417h8.24c.073-3.673.639-7.106 1.57-10.05-1.67-.7-3.134-1.58-4.329-2.595a19.218 19.218 0 00-2.851 3.728.846.846 0 11-1.46-.857 21.1 21.1 0 017.693-7.614 20.896 20.896 0 0112.6-2.65c.47.049.935.113 1.394.19a12.254 12.254 0 012.938-4.708A12.228 12.228 0 0144.192 0c3.388 0 6.457 1.374 8.676 3.596a12.226 12.226 0 013.597 8.677 12.23 12.23 0 01-3.597 8.68 12.314 12.314 0 01-3.609 2.505A21.189 21.189 0 0150.001 29c0 1.12-.09 2.232-.267 3.327a20.81 20.81 0 01-.78 3.23.848.848 0 11-1.612-.523 19.66 19.66 0 00.722-2.974c.113-.716.187-1.454.219-2.209h-8.24c-.074 3.67-.639 7.103-1.57 10.048zm3.083 3.763c-1.012-.832-2.242-1.564-3.642-2.158a24.146 24.146 0 01-.944 2.13c-.803 1.586-1.74 2.928-2.778 3.965a19.254 19.254 0 007.364-3.937zm-5.231-2.752c-1.95-.632-4.143-1.021-6.474-1.098v8.407c2.142-.414 4.104-2.383 5.607-5.35.311-.613.6-1.269.867-1.959zm-8.176-1.095c-.62.023-1.24.068-1.847.132-.523.058-1.043.131-1.55.215a12.223 12.223 0 011.332 5.565c0 .514-.032 1.021-.093 1.519.427.305.864.552 1.314.729.279.109.558.192.844.247v-8.407zM16.445 14.338c1.011.835 2.244 1.564 3.644 2.161a22.78 22.78 0 01.941-2.13c.803-1.585 1.737-2.928 2.778-3.965a19.283 19.283 0 00-7.363 3.934zm5.23 2.752c1.95.636 4.143 1.021 6.474 1.098V9.781c-2.142.414-4.104 2.383-5.607 5.353-.311.61-.6 1.265-.867 1.956zm8.176 1.098a24.4 24.4 0 001.895-.131 24.23 24.23 0 001.506-.21 12.226 12.226 0 01-1.336-5.574c0-.514.032-1.018.093-1.516a5.917 5.917 0 00-1.314-.729 4.779 4.779 0 00-.844-.247v8.407zm4.341 1.207c-.738.148-1.493.264-2.267.347a25.99 25.99 0 01-2.074.145v8.265h8.493a39.615 39.615 0 00-.135-2.51 36.882 36.882 0 00-.36-2.856 12.189 12.189 0 01-2.337-1.833 12.223 12.223 0 01-1.32-1.558zm-6.043.492c-2.524-.077-4.907-.501-7.032-1.195-.861 2.765-1.387 5.992-1.461 9.46h8.493v-8.265zM39.703 23.7c.08.595.147 1.192.199 1.796.073.867.122 1.753.141 2.655h8.24a18.487 18.487 0 00-.203-2.084 18.803 18.803 0 00-.417-2.017 12.267 12.267 0 01-3.471.498c-1.587 0-3.099-.302-4.49-.848zM18.297 34.298a36.85 36.85 0 01-.199-1.791 42.058 42.058 0 01-.141-2.656h-8.24a19.354 19.354 0 00.62 4.1 12.272 12.272 0 013.471-.497c1.587 0 3.099.298 4.49.844z" fill="#282828"/></g><defs><clipPath id="clip0"><path fill="#fff" d="M0 0h58v58H0z"/></clipPath></defs></svg>