<svg width="58" height="58" fill="none" xmlns="http://www.w3.org/2000/svg"><path d="M52.438 13.163l-9.47 7.647-.216 24.842-4.837-.045-.022-20.72-3.399 2.742-.317 18.069-10.207.034-.476-9.221-3.103 2.503-.284 6.559-4.395-.045-.42-2.39L2.55 53.434c-1.507 1.212-.646 3.659 1.291 3.659h50.048a2.062 2.062 0 002.062-2.062V15.078l1.223-.136c0-.68.193-2.073-.25-2.436-.713-.566-1.936-1.325-4.485.657z" fill="#FD0"/><path d="M19.994 16.426H15.6v6.23h4.395v-6.23zm-8.79 16.596H6.808v6.23h4.396v-6.23zm39.988 11.781h-4.395v6.23h4.395v-6.23zM42.526 31.39H38.13v6.23h4.396v-6.23zM19.598 49.493h-4.396v7.465h4.396v-7.465zM33.848 8.95h-4.395v6.23h4.395V8.95zM28.547 38.9h-4.395v6.231h4.395v-6.23z" fill="#2A3CB7"/><path d="M3.115 57.887A1.765 1.765 0 011.36 56.13V40.94c0-.34.284-.623.623-.623.34 0 .623.283.623.623v15.19c0 .284.227.51.51.51h7.987v-4.757H6.854a1.19 1.19 0 01-1.19-1.19v-5.55c0-.657.532-1.19 1.19-1.19h4.248v-3.851H6.854a1.19 1.19 0 01-1.19-1.19v-5.55c0-.658.532-1.19 1.19-1.19h4.248V28.32H6.854a1.19 1.19 0 01-1.19-1.19v-5.55c0-.657.532-1.19 1.19-1.19h4.248v-4.417H2.605v21.025c0 .34-.283.623-.623.623a.629.629 0 01-.623-.623V15.984l-.18-.034a1.189 1.189 0 01-.952-1.167v-2.265c0-.658.532-1.19 1.189-1.19h9.686V5.562l-.182-.034a1.189 1.189 0 01-.951-1.167V1.53c0-.657.532-1.19 1.19-1.19h35.683c.657 0 1.19.533 1.19 1.19v2.832c0 .567-.397 1.054-.952 1.167l-.182.034v5.766h2.957c.34 0 .623.283.623.623s-.283.623-.623.623h-2.957v2.153h9.63v-2.153h-2.73a.629.629 0 01-.624-.623c0-.34.283-.623.623-.623h2.787c.657 0 1.19.533 1.19 1.19v2.265c0 .567-.397 1.054-.952 1.167l-.181.034v40.147c0 .963-.793 1.756-1.756 1.756H3.115zm43.783-1.246h7.987c.283 0 .51-.227.51-.51V15.973h-8.497v4.418h4.248c.657 0 1.19.532 1.19 1.19v5.55a1.19 1.19 0 01-1.19 1.19h-4.248v3.85h4.248c.657 0 1.19.533 1.19 1.19v5.551a1.19 1.19 0 01-1.19 1.19h-4.248v3.851h4.248c.657 0 1.19.532 1.19 1.19v5.55a1.19 1.19 0 01-1.19 1.19h-4.248v4.758zm-4.7-8.077a1.19 1.19 0 011.189 1.19v6.887h2.265V5.55H22.09a.629.629 0 01-.623-.623c0-.34.283-.623.623-.623h24.695v-2.72h-35.57v2.72h6.899c.34 0 .623.283.623.623s-.284.623-.623.623h-5.766v51.09h2.379v-6.888c0-.657.532-1.19 1.189-1.19h3.738c.657 0 1.19.533 1.19 1.19v6.888h2.231v-6.888c0-.657.533-1.19 1.19-1.19h2.322c.34 0 .623.284.623.624s-.283.623-.623.623h-2.265v6.83h9.357v-6.83h-3.127a.629.629 0 01-.623-.623c0-.34.283-.623.623-.623h3.183c.657 0 1.19.532 1.19 1.19v6.887h2.345v-6.888c0-.657.532-1.19 1.189-1.19h3.738zm-3.682 8.077h3.625V49.81h-3.625v6.83zm-22.543 0h3.625V49.81h-3.625v6.83zm30.925-6.004h4.192v-5.438h-4.192v5.438zm-39.988 0h4.192v-5.438H6.91v5.438zm39.988-11.782h4.192v-5.437h-4.192v5.438zm-39.988 0h4.192v-5.437H6.91v5.438zm39.988-11.78h4.192v-5.438h-4.192v5.437zm-39.988 0h4.192v-5.438H6.91v5.437zM1.473 14.726h9.629v-2.153h-9.63v2.153z" fill="#282828"/><path d="M24.265 46.4a1.19 1.19 0 01-1.19-1.19V8.894c0-.657.533-1.19 1.19-1.19h9.47c.657 0 1.19.533 1.19 1.19V45.21a1.19 1.19 0 01-1.19 1.189h-9.47zm5.358-1.246h4.056v-6.276h-4.056v6.276zm-5.302 0h4.056v-6.276h-4.055v6.276zm5.302-7.522h4.056v-6.23h-4.056v6.23zm-5.302 0h4.056v-6.23h-4.055v6.23zm5.302-7.488h4.056v-6.23h-4.056v6.23zm-5.302 0h4.056v-6.23h-4.055v6.23zm5.302-7.476h4.056v-6.23h-4.056v6.23zm-5.302 0h4.056v-6.23h-4.055v6.23zm5.302-7.488h4.056V8.95h-4.056v6.23zm-5.302 0h4.056V8.95h-4.055v6.23zM15.916 46.4a1.19 1.19 0 01-1.19-1.19V8.894c0-.657.533-1.19 1.19-1.19h3.738c.657 0 1.19.533 1.19 1.19V45.21a1.19 1.19 0 01-1.19 1.189h-3.738zm.057-1.246h3.625v-6.276h-3.625v6.276zm0-7.522h3.625v-6.23h-3.625v6.23zm0-7.488h3.625v-6.23h-3.625v6.23zm0-7.476h3.625v-6.23h-3.625v6.23zm0-7.488h3.625V8.95h-3.625v6.23zM38.459 46.4a1.19 1.19 0 01-1.19-1.19V8.894c0-.657.533-1.19 1.19-1.19h3.738c.657 0 1.19.533 1.19 1.19V45.21a1.19 1.19 0 01-1.19 1.189H38.46zm.057-1.246h3.625v-6.276h-3.625v6.276zm0-7.522h3.625v-6.23h-3.625v6.23zm0-7.488h3.625v-6.23h-3.625v6.23zm0-7.476h3.625v-6.23h-3.625v6.23zm0-7.488h3.625V8.95h-3.625v6.23z" fill="#282828"/></svg>