<svg width="58" height="58" fill="none" xmlns="http://www.w3.org/2000/svg"><path d="M19.575 29.011H3.035a1.71 1.71 0 01-1.72-1.699V11.894c0-1.483 1.8-2.254 2.9-1.234l16.527 15.417c1.144 1.065.385 2.934-1.167 2.934zm34.743 27.856H29.94c-1.405 0-2.537-.906-2.537-2.027V36.465c0-1.778 2.662-2.684 4.282-1.472l24.378 18.374c1.676 1.269.555 3.5-1.745 3.5z" fill="#FD0"/><path d="M39.954 15.18H27.788a1.895 1.895 0 01-1.892-1.892c0-1.042.85-1.892 1.892-1.892h12.166c1.042 0 1.892.85 1.892 1.892 0 1.042-.85 1.892-1.892 1.892z" fill="#2A3CB7"/><path d="M30.586 17.219l-3.274-2.334 3.274-.385v2.719zm11.102-4.69h-3.41v12.166h3.41V12.53zm-11.227-2.017H29v1.462h1.461v-1.462z" fill="#2A3CB7"/><path d="M1.813 29.68a.682.682 0 01-.68-.68V1.812c0-.373.306-.68.68-.68h14.5c.18 0 .35.069.475.205l5.438 5.437a.678.678 0 01.204.476V29c0 .374-.306.68-.68.68H1.812zm.68-1.36H21.07V7.93h-4.758a.682.682 0 01-.68-.68V2.492H2.493V28.32zm14.5-21.75h3.114l-3.115-3.115V6.57z" fill="#282828"/><path d="M13.367 4.758h-8.61v1.36h8.61v-1.36zm5.438 5.437H4.758v1.36h14.047v-1.36zm0 3.625H4.758v1.36h14.047v-1.36zm0 3.625H4.758v1.36h14.047v-1.36zm8.383 39.422a.682.682 0 01-.68-.68v-21.75c0-.373.306-.68.68-.68h3.851V29c0-.374.306-.68.68-.68h14.5c.181 0 .35.068.475.204l5.438 5.438a.678.678 0 01.204.475v4.758h3.852c.373 0 .68.306.68.68v16.313c0 .373-.307.68-.68.68h-29zm.68-1.36h27.64v-2.265h-27.64v2.266zm0-3.624h27.64V40.555h-27.64v11.328zm4.53-18.125h5.664c.182 0 .352.068.476.204l5.234 5.233h7.205v-4.078h-4.758a.682.682 0 01-.68-.68V29.68H32.4v4.078zm-4.53 5.437h13.99l-4.079-4.078h-9.912v4.078zm19.03-5.437h3.116l-3.116-3.115v3.115z" fill="#282828"/><path d="M9.969 49.617a.682.682 0 01-.68-.68V38.742H7.25a.673.673 0 01-.612-.396.677.677 0 01.09-.725l4.532-5.438a.66.66 0 01.521-.226.66.66 0 01.521.226l4.532 5.438c.17.204.204.487.09.725a.686.686 0 01-.611.396h-2.04v5.89h9.29c.373 0 .68.307.68.68v3.626c0 .373-.307.68-.68.68H9.969zm12.914-1.36v-2.265z" fill="#2A3CB7"/><path d="M9.969 49.617a.682.682 0 01-.68-.68V38.742H7.25a.673.673 0 01-.612-.396.677.677 0 01.09-.725l4.532-5.438a.66.66 0 01.521-.226.66.66 0 01.521.226l4.532 5.438c.17.204.204.487.09.725a.686.686 0 01-.611.396h-2.04v5.89h9.29c.373 0 .68.307.68.68v3.626c0 .373-.307.68-.68.68H9.969zM8.7 37.383h1.269c.373 0 .68.306.68.68v10.195h12.234v-2.266h-9.29a.682.682 0 01-.679-.68v-7.25c0-.373.306-.68.68-.68h1.269L11.78 33.69 8.7 37.383zm29.363-11.328a.682.682 0 01-.68-.68v-9.29h-5.89v2.04a.69.69 0 01-.397.612.661.661 0 01-.295.068.651.651 0 01-.43-.159l-5.438-4.531a.66.66 0 01-.249-.521.66.66 0 01.25-.521L30.37 8.54a.673.673 0 01.43-.158c.102 0 .193.022.283.068a.686.686 0 01.397.611v2.04h10.195c.374 0 .68.305.68.68v13.593c0 .374-.306.68-.68.68h-3.614zm0-11.328c.373 0 .68.305.68.68v9.288h2.265V12.461H30.812a.682.682 0 01-.68-.68v-1.269l-3.692 3.082 3.693 3.081v-1.269c0-.374.306-.68.68-.68h7.25z" fill="#282828"/></svg>