<svg width="58" height="58" fill="none" xmlns="http://www.w3.org/2000/svg"><g clip-path="url(#clip0)"><path d="M23.596 45.46h16.358a3.36 3.36 0 003.353-3.353V25.375a7.979 7.979 0 00-2.356-5.675l-4.78-4.78a8 8 0 00-5.664-2.357H19.394a3.36 3.36 0 00-3.353 3.353v16.822l.067 9.958c0 .068.012.124.023.192a3.335 3.335 0 003.263 2.572h.385a.848.848 0 100-1.7h-.385a1.655 1.655 0 01-1.586-1.177l-.068-9.845V15.916c0-.906.736-1.654 1.654-1.654H29.43a3.186 3.186 0 013.184 3.183v2.459a3.36 3.36 0 003.353 3.353h2.458a3.186 3.186 0 013.183 3.183v15.655c0 .907-.736 1.654-1.654 1.654H23.596a.848.848 0 00-.85.85c0 .476.375.86.85.86zm14.829-23.902h-2.458a1.656 1.656 0 01-1.654-1.654v-2.459c0-.827-.204-1.597-.567-2.288.442.26.85.59 1.224.952l4.78 4.78c.374.374.691.782.952 1.224a5.12 5.12 0 00-2.277-.555z" fill="#282828"/><path d="M57.864 28.535l-3.897-6.162a.855.855 0 00-.725-.396.855.855 0 00-.725.396l-3.897 6.162a.814.814 0 00-.022.861c.147.272.43.442.747.442h1.586c-.453 11.69-10.093 21.06-21.886 21.06-3.466 0-6.785-.782-9.855-2.334a22.156 22.156 0 01-7.545-6.265 2.56 2.56 0 00-3.58-.476 2.56 2.56 0 00-.475 3.58 27.334 27.334 0 009.3 7.715 26.747 26.747 0 0012.155 2.888c7.216 0 14.002-2.81 19.1-7.907 4.905-4.905 7.691-11.35 7.895-18.25h1.088c.306 0 .6-.17.747-.441a.81.81 0 00-.011-.873z" fill="#2A3CB7"/><path d="M19.79 30.518h19.78a.848.848 0 100-1.7H19.79a.848.848 0 00-.85.85.841.841 0 00.85.85z" fill="#282828"/><path d="M19.79 33.758h19.78a.848.848 0 100-1.7H19.79a.848.848 0 00-.85.85.841.841 0 00.85.85z" fill="#2A3CB7"/><path d="M19.79 37.009h19.78a.848.848 0 100-1.7H19.79a.848.848 0 00-.85.85.841.841 0 00.85.85z" fill="#282828"/><path d="M19.79 40.249h7.262a.849.849 0 100-1.7H19.79a.848.848 0 00-.85.85.834.834 0 00.85.85zm0-18.737h7.262a.848.848 0 100-1.7H19.79a.848.848 0 100 1.7z" fill="#2A3CB7"/><path d="M43.138 6.027a27.586 27.586 0 00-2.04-1.145 26.746 26.746 0 00-12.155-2.888c-7.216 0-14.001 2.81-19.099 7.907-4.905 4.916-7.692 11.362-7.907 18.26H.85c-.306 0-.6.17-.748.442a.865.865 0 00.023.861l3.896 6.163c.16.25.431.396.725.396a.855.855 0 00.725-.396l3.897-6.163a.811.811 0 00.023-.86.845.845 0 00-.748-.442H7.057c.454-11.69 10.094-21.06 21.886-21.06 3.467 0 6.786.782 9.856 2.334a22.156 22.156 0 017.544 6.265 2.559 2.559 0 003.58.476c.544-.42.895-1.02.974-1.688.09-.68-.09-1.348-.51-1.892a27.008 27.008 0 00-4.089-4.27" fill="#FD0"/><path d="M9.391 28.604a.845.845 0 00-.748-.442H7.057c.454-11.69 10.094-21.06 21.886-21.06 3.467 0 6.786.782 9.856 2.334a22.156 22.156 0 017.544 6.265 2.559 2.559 0 003.58.476c.544-.42.895-1.02.974-1.688.09-.68-.09-1.348-.51-1.892a27.008 27.008 0 00-4.089-4.27.847.847 0 00-1.2.101.847.847 0 00.101 1.2 25.568 25.568 0 013.83 4 .888.888 0 01.169.623.858.858 0 01-.328.566.848.848 0 01-1.19-.158 23.793 23.793 0 00-8.133-6.752C36.239 6.23 32.659 5.392 28.92 5.392 15.905 5.392 5.313 15.984 5.313 29c0 .476.385.85.85.85h.906l-2.345 3.715-2.345-3.715h.385a.85.85 0 00.85-.85c0-6.763 2.628-13.118 7.408-17.898 4.78-4.78 11.136-7.409 17.899-7.409 4.01 0 7.839.906 11.396 2.707.645.329 1.291.691 1.903 1.065a.844.844 0 001.167-.272.844.844 0 00-.272-1.166 27.604 27.604 0 00-2.04-1.145 26.746 26.746 0 00-12.154-2.888c-7.216 0-14.002 2.81-19.1 7.907-4.882 4.916-7.669 11.362-7.884 18.26H.85c-.306 0-.6.17-.748.442a.865.865 0 00.023.861l3.896 6.163c.16.25.431.396.725.396a.855.855 0 00.725-.396l3.897-6.163a.863.863 0 00.023-.86zm48.473-.069l-3.897-6.162a.855.855 0 00-.725-.396.855.855 0 00-.725.396l-3.897 6.162a.814.814 0 00-.022.861c.147.272.43.442.747.442h1.586c-.453 11.69-10.093 21.06-21.886 21.06-3.466 0-6.785-.782-9.855-2.334a22.156 22.156 0 01-7.545-6.265 2.56 2.56 0 00-3.58-.476 2.56 2.56 0 00-.475 3.58 27.334 27.334 0 009.3 7.715 26.747 26.747 0 0012.155 2.888c7.216 0 14.002-2.81 19.1-7.907 4.905-4.905 7.691-11.35 7.895-18.25h1.088c.306 0 .6-.17.747-.441a.81.81 0 00-.011-.873zm-2.65-.396a.848.848 0 00-.85.85c0 6.763-2.628 13.118-7.409 17.898-4.78 4.78-11.136 7.409-17.898 7.409-4.01 0-7.84-.907-11.396-2.708a25.336 25.336 0 01-8.712-7.227.848.848 0 111.348-1.03 23.898 23.898 0 008.134 6.75c3.308 1.677 6.887 2.515 10.626 2.515 13.016 0 23.607-10.591 23.607-23.607a.848.848 0 00-.85-.85h-.905l2.345-3.716 2.344 3.716h-.385z" fill="#282828"/></g><defs><clipPath id="clip0"><path fill="#fff" d="M0 0h58v58H0z"/></clipPath></defs></svg>