<svg width="50" height="50" viewBox="0 0 50 50" fill="none" xmlns="http://www.w3.org/2000/svg">
<path d="M4.27711 0.156055C2.50953 0.575976 1.10328 1.98223 0.634533 3.7791C0.50758 4.26738 0.488049 7.04082 0.488049 25.2439C0.488049 48.408 0.439221 46.7283 1.13258 47.8611C1.50367 48.4861 2.18727 49.1307 2.77321 49.4334C3.69117 49.9022 3.66188 49.9022 10.4588 49.9022C16.7576 49.9022 16.865 49.9022 17.0408 49.7068C17.2849 49.4334 17.2654 48.9647 17.0017 48.701L16.7869 48.4861L10.3709 48.4373C4.49196 48.3885 3.92555 48.3787 3.61305 48.2127C3.03688 47.9295 2.59742 47.5096 2.29469 46.9627L2.00172 46.4354V25.2928C2.00172 5.13652 2.01149 4.13066 2.1775 3.69121C2.5486 2.74395 3.37867 1.98223 4.38453 1.65996C4.99 1.46465 5.26344 1.46465 20.283 1.46465H35.5662L35.4099 1.67949C34.7263 2.60723 34.4334 3.84746 34.492 5.56621C34.5213 6.76738 34.6482 7.03106 35.2049 7.03106C35.8396 7.03106 35.8787 6.92363 35.947 5.20488C35.9959 3.95488 36.0349 3.57402 36.2009 3.2127C36.6306 2.23613 37.5584 1.5916 38.6424 1.49395C39.7556 1.39629 40.947 2.10918 41.4158 3.1541C41.6404 3.63262 41.6502 3.78887 41.6795 6.07402L41.7185 8.4959H30.9861C20.8103 8.4959 20.2439 8.50566 19.8728 8.68145C19.0427 9.05254 18.5349 9.81426 18.408 10.8592L18.3396 11.4256H16.3377C14.3552 11.4256 14.3455 11.4256 14.1111 11.6697C13.9744 11.7967 13.867 12.0213 13.867 12.158C13.867 12.2947 13.9744 12.5193 14.1111 12.6463C14.3455 12.8904 14.3552 12.8904 16.3572 12.8904H18.3591V16.4061V19.9217H16.3572C14.3552 19.9217 14.3455 19.9217 14.1111 20.1658C13.7986 20.4686 13.7986 20.8397 14.1111 21.1424C14.3455 21.3865 14.3552 21.3865 16.3572 21.3865H18.3591V25.7811V30.1756H16.5134C15.4295 30.1756 14.5506 30.2146 14.365 30.283C13.8377 30.4686 13.6912 31.0545 14.0916 31.4256C14.3064 31.6307 14.4041 31.6404 16.3377 31.6404H18.3591V36.1814V40.7225H16.3572C14.3552 40.7225 14.3455 40.7225 14.1111 40.9666C13.8181 41.2498 13.7986 41.5916 14.0525 41.9041C14.2381 42.1385 14.2673 42.1385 16.2888 42.1678L18.3396 42.1971L18.3787 45.1463C18.408 47.7147 18.4373 48.1443 18.5838 48.4861C18.8084 48.9744 19.2673 49.4627 19.7752 49.7361L20.1658 49.951L33.7888 49.9803C48.7595 50.0096 47.8904 50.0389 48.6521 49.4139C48.8474 49.2479 49.1209 48.8963 49.2576 48.6131L49.5115 48.1053V34.0818C49.5115 20.0975 49.5115 20.0584 49.3162 19.8436C49.0525 19.5604 48.5349 19.5604 48.281 19.8338C48.1052 20.0291 48.0955 20.449 48.0467 33.9744C48.0076 44.7361 47.9685 47.949 47.8806 48.1053C47.8123 48.2225 47.617 48.3689 47.4509 48.4275C47.2263 48.5057 43.3103 48.535 33.8963 48.535C20.9373 48.535 20.6443 48.535 20.3416 48.3397C20.1267 48.2127 19.9998 48.0369 19.9216 47.7732C19.8533 47.4998 19.8338 41.7186 19.8435 28.9549L19.8728 10.5271L20.1951 10.2439L20.5076 9.96074H33.9939H47.4802L47.7634 10.2439L48.0467 10.5271V13.9549C48.0467 16.2498 48.0857 17.451 48.1541 17.6072C48.2615 17.8514 48.6131 18.0662 48.8865 18.0662C48.9646 18.0662 49.1404 17.9588 49.2674 17.8221L49.5115 17.5877V13.9939C49.5115 10.4295 49.5115 10.4002 49.2771 9.90215C49.0134 9.33574 48.3592 8.73027 47.8611 8.59356C47.6658 8.54473 46.533 8.4959 45.3416 8.4959H43.1834L43.1345 5.97637C43.0857 3.2127 43.0467 2.94902 42.4509 2.03105C41.8357 1.06426 40.908 0.400195 39.8435 0.156055C39.2869 0.0193357 37.1189 -0.000195503 22.0213 0.00957012C7.72438 0.0193357 4.7361 0.038867 4.27711 0.156055Z" fill="#FFCC60"/>
<path d="M8.21289 10.5957L7.16797 11.6211L6.68945 11.1328C6.30859 10.7422 6.14258 10.6445 5.88867 10.6445C5.46875 10.6445 5.17578 10.9375 5.17578 11.3477C5.17578 11.6211 5.3125 11.7969 6.04492 12.5195C6.71875 13.1836 6.97266 13.3789 7.1875 13.3789C7.40234 13.3789 7.73438 13.1055 8.85742 11.9922C10.0879 10.7617 10.2539 10.5664 10.2539 10.2832C10.2539 9.87305 9.96094 9.57031 9.56055 9.57031C9.29688 9.57031 9.08203 9.72656 8.21289 10.5957Z" fill="#FFCC60"/>
<path d="M22.7051 11.0937C22.5977 11.123 22.4121 11.1621 22.2949 11.1816C21.9629 11.2598 21.4746 11.7187 21.2793 12.1582C21.1133 12.5098 21.0938 12.8516 21.0938 15.5762C21.0938 18.9941 21.123 19.1504 21.8359 19.6875L22.1973 19.9707H33.8379H45.4785L45.8398 19.6875C46.5723 19.1406 46.5918 18.9746 46.5625 15.3906L46.5332 12.2266L46.2305 11.8457C46.0645 11.6406 45.7812 11.3867 45.5957 11.2793C45.2734 11.084 45.0781 11.084 34.082 11.0742C27.9297 11.0645 22.8125 11.0742 22.7051 11.0937ZM44.9316 12.5977C45.1074 12.6953 45.1172 12.832 45.1172 15.4785C45.1172 17.002 45.0879 18.3105 45.0586 18.3984C45 18.5352 43.9258 18.5547 33.8379 18.5547C23.75 18.5547 22.6758 18.5352 22.6172 18.3984C22.5879 18.3105 22.5586 17.002 22.5586 15.4785C22.5586 12.9395 22.5684 12.6953 22.7344 12.6074C22.9687 12.4707 44.668 12.4609 44.9316 12.5977Z" fill="#FFCC60"/>
<path d="M5.17563 17.5586C4.95102 17.666 4.75571 17.8809 4.60923 18.1641C4.39438 18.5938 4.38462 18.6719 4.41391 20.8008C4.44321 22.9199 4.45298 23.0078 4.66782 23.3203C5.08774 23.8965 5.22446 23.9258 7.74399 23.9258C9.96079 23.9258 10.0389 23.916 10.3612 23.7012C10.9862 23.291 11.035 23.0664 11.035 20.6543C11.035 18.2422 10.9862 18.0176 10.3612 17.6074C10.0389 17.3926 9.96079 17.3828 7.77329 17.3828C5.82016 17.3828 5.4686 17.4023 5.17563 17.5586ZM9.57016 20.6543V22.4609H7.71469H5.85923V20.6543V18.8477H7.71469H9.57016V20.6543Z" fill="#FFCC60"/>
<path d="M22.1094 21.5914C21.709 21.7086 21.2207 22.2653 21.1426 22.6852C21.1035 22.861 21.0937 23.652 21.1133 24.4332C21.1426 26.0739 21.2109 26.2399 21.9824 26.6403C22.3828 26.8551 22.5 26.8649 23.9453 26.8356C25.6348 26.8063 25.7813 26.7575 26.25 26.0739C26.4551 25.7711 26.4649 25.6442 26.4649 24.1891C26.4649 22.7731 26.4453 22.5973 26.25 22.2555C25.8887 21.611 25.4883 21.484 23.8184 21.4938C23.0469 21.4938 22.2754 21.5426 22.1094 21.5914ZM25 24.1696V25.3903H23.7793H22.5586V24.1696V22.9489H23.7793H25V24.1696Z" fill="#FFCC60"/>
<path d="M28.6226 21.6992C27.8901 22.0898 27.8218 22.334 27.8511 24.2676C27.8804 25.752 27.8999 25.957 28.0757 26.1914C28.4956 26.748 28.7105 26.8066 30.4683 26.8066C32.353 26.8066 32.6069 26.7187 32.9878 25.9766C33.2026 25.5664 33.2124 25.4395 33.1831 24.0234C33.1538 22.6465 33.1343 22.4805 32.939 22.207C32.4897 21.582 32.3335 21.5332 30.6147 21.5039C29.1304 21.4746 29.0327 21.4844 28.6226 21.6992ZM31.7183 24.1406L31.689 25.3418L30.4976 25.3711L29.2964 25.4004V24.1699V22.9492H30.5171H31.7476L31.7183 24.1406Z" fill="#FFCC60"/>
<path d="M35.5664 21.5527C35.2344 21.6211 34.6094 22.2851 34.541 22.6562C34.502 22.832 34.4727 23.5547 34.4727 24.2578C34.4727 25.4004 34.502 25.5957 34.6973 25.9766C35.0684 26.7187 35.3223 26.8066 37.207 26.8066C38.9648 26.8066 39.1797 26.748 39.5996 26.1914C39.7754 25.957 39.7949 25.7519 39.8242 24.2676C39.8535 22.334 39.7851 22.0898 39.0625 21.709C38.6719 21.5039 38.5254 21.4844 37.2168 21.4941C36.4355 21.5039 35.6934 21.5332 35.5664 21.5527ZM38.3789 24.1699V25.4004L37.1875 25.3711L35.9863 25.3418L35.957 24.1406L35.9277 22.9492H37.1582H38.3789V24.1699Z" fill="#FFCC60"/>
<path d="M42.1875 21.5914C42.0508 21.65 41.8359 21.7867 41.7188 21.9039C41.2598 22.3336 41.2109 22.5485 41.2109 24.1989C41.2109 25.6442 41.2207 25.7711 41.4355 26.0739C41.8945 26.7575 42.041 26.8063 43.7305 26.8356C45.1758 26.8649 45.293 26.8551 45.6934 26.6403C46.4941 26.2301 46.5332 26.1032 46.5332 24.1696C46.5332 22.6071 46.5137 22.4508 46.3281 22.2067C45.8594 21.5719 45.7324 21.5328 44.0137 21.5133C43.0859 21.4938 42.334 21.5328 42.1875 21.5914ZM45.1172 24.1696V25.3903H43.8965H42.6758V24.1696V22.9489H43.8965H45.1172V24.1696Z" fill="#FFCC60"/>
<path d="M5.14632 27.8516C4.92171 27.9883 4.70686 28.2227 4.57991 28.4766C4.39436 28.8672 4.3846 29.043 4.41389 31.0937C4.44319 33.5059 4.45296 33.5352 5.11702 34.0234C5.37093 34.2187 5.51741 34.2285 7.71467 34.2285C9.91194 34.2285 10.0584 34.2187 10.3123 34.0234C10.9764 33.5352 10.9862 33.5156 11.0155 31.0254C11.035 28.8281 11.035 28.75 10.8201 28.3789C10.41 27.6855 10.2147 27.6367 7.71467 27.6367C5.6346 27.6367 5.49788 27.6562 5.14632 27.8516ZM9.57014 30.957V32.8125H7.71467H5.85921V30.957V29.1016H7.71467H9.57014V30.957Z" fill="#FFCC60"/>
<path d="M21.7969 28.5156C21.2305 28.8574 21.0938 29.3262 21.0938 30.9473C21.0938 32.6074 21.2207 33.0176 21.8652 33.3789C22.207 33.5742 22.3828 33.5938 23.7793 33.5938C25.4883 33.5938 25.8105 33.5156 26.2012 32.9687C26.3965 32.6855 26.416 32.5391 26.4453 31.0547C26.4746 29.2383 26.3965 28.9453 25.791 28.5449C25.4785 28.3301 25.3613 28.3203 23.7891 28.3203C22.2852 28.3203 22.0898 28.3398 21.7969 28.5156ZM25 30.957V32.1289H23.7793H22.5586V30.957V29.7852H23.7793H25V30.957Z" fill="#FFCC60"/>
<path d="M28.5352 28.5156C27.9102 28.8965 27.832 29.1504 27.832 30.9668C27.832 32.4902 27.8418 32.6074 28.0566 32.9199C28.4473 33.5059 28.75 33.5938 30.5273 33.5938C32.0019 33.5938 32.1191 33.584 32.4219 33.3691C33.1054 32.9102 33.1543 32.7637 33.1836 31.0742C33.2129 29.6191 33.2031 29.5215 32.9883 29.1113C32.6074 28.3984 32.3535 28.3203 30.4687 28.3203C29.0332 28.3203 28.8184 28.3398 28.5352 28.5156ZM31.7383 30.957V32.1289H30.5176H29.2969V30.957V29.7852H30.5176H31.7383V30.957Z" fill="#FFCC60"/>
<path d="M35.2832 28.4764C35.1074 28.5643 34.8633 28.7986 34.7461 28.994C34.5312 29.326 34.5215 29.4529 34.5215 30.9764C34.5215 32.4705 34.541 32.6268 34.7266 32.8709C35.1953 33.5057 35.3125 33.5447 37.0898 33.574C38.9355 33.6033 39.2188 33.535 39.6191 32.9197C39.834 32.6072 39.8438 32.4901 39.8438 30.9666C39.8438 29.1502 39.7656 28.8963 39.1406 28.5154C38.8574 28.3397 38.6426 28.3201 37.207 28.3201C35.9277 28.3201 35.5273 28.3592 35.2832 28.4764ZM38.3789 30.9568V32.1287H37.1582H35.9375V30.9568V29.785H37.1582H38.3789V30.9568Z" fill="#FFCC60"/>
<path d="M41.8846 28.5449C41.2791 28.9453 41.201 29.2383 41.2303 31.0547C41.2596 32.5391 41.2791 32.6855 41.4744 32.9687C41.8651 33.5156 42.1873 33.5938 43.8963 33.5938C45.2928 33.5938 45.4686 33.5742 45.8104 33.3789C46.4549 33.0176 46.5819 32.6172 46.5819 30.918C46.5819 29.668 46.5526 29.4336 46.3866 29.0918C46.0252 28.3887 45.8006 28.3203 43.8866 28.3203C42.3143 28.3203 42.1971 28.3301 41.8846 28.5449ZM45.117 30.957V32.1289H43.8963H42.6756V30.957V29.7852H43.8963H45.117V30.957Z" fill="#FFCC60"/>
<path d="M22.0215 35.1953C21.6211 35.3711 21.2109 35.8691 21.1426 36.2597C21.1035 36.4453 21.0937 37.2168 21.1133 37.998C21.1426 39.2871 21.1621 39.4336 21.3672 39.7266C21.7871 40.3125 22.041 40.3809 23.7793 40.3809C25.166 40.3809 25.3809 40.3613 25.6738 40.1855C26.3672 39.7754 26.416 39.6289 26.4453 37.8125C26.4746 35.9375 26.3965 35.664 25.7227 35.2832C25.3711 35.0781 25.2149 35.0586 23.8281 35.0683C22.793 35.0683 22.2168 35.1074 22.0215 35.1953ZM25 37.6953V38.8672H23.7793H22.5586V37.6953V36.5234H23.7793H25V37.6953Z" fill="#FFCC60"/>
<path d="M28.6131 35.2344C27.9295 35.6055 27.8807 35.752 27.8514 37.627C27.8221 39.248 27.8319 39.3164 28.0467 39.6484C28.4862 40.3027 28.7596 40.3809 30.5174 40.3809C32.3436 40.3809 32.6073 40.293 32.9881 39.5508C33.203 39.1406 33.2127 39.0234 33.1834 37.5781C33.1541 35.9082 33.1151 35.7813 32.4803 35.3125C32.2362 35.127 32.0506 35.1074 30.5858 35.0781C29.1405 35.0586 28.9159 35.0684 28.6131 35.2344ZM31.7381 37.6953V38.8672H30.5174H29.2967V37.6953V36.5234H30.5174H31.7381V37.6953Z" fill="#FFCC60"/>
<path d="M35.4 35.1949C34.9508 35.3902 34.5895 35.8785 34.5211 36.3668C34.482 36.6109 34.4723 37.3629 34.482 38.0562C34.5406 40.0679 34.8043 40.3414 36.8063 40.4097C38.7008 40.4781 39.3258 40.2828 39.7359 39.482C39.8043 39.355 39.8434 38.6617 39.8434 37.6656C39.8434 36.1617 39.8336 36.0445 39.6285 35.7418C39.2184 35.1461 38.9059 35.0582 37.2066 35.0582C36.1715 35.0679 35.5953 35.107 35.4 35.1949ZM38.3785 37.6949V38.8668H37.1578H35.9371V37.6949V36.523H37.1578H38.3785V37.6949Z" fill="#FFCC60"/>
<path d="M41.9727 35.2539C41.748 35.3711 41.5234 35.6054 41.4062 35.8398C41.2207 36.2109 41.2109 36.4062 41.2109 40.9473V45.6738L41.4355 45.9961C41.9043 46.6992 42.0117 46.7285 43.8965 46.7285C45.752 46.7285 45.8496 46.6992 46.3281 46.0547C46.5332 45.791 46.5332 45.6836 46.5332 40.918C46.5332 36.1523 46.5332 36.0449 46.3281 35.7812C45.8594 35.1465 45.7422 35.1074 43.9648 35.0879C42.4902 35.0586 42.2949 35.0781 41.9727 35.2539ZM45.1172 40.918V45.3125H43.8965H42.6758V40.918V36.5234H43.8965H45.1172V40.918Z" fill="#FFCC60"/>
<path d="M5.66391 38.1738C5.17563 38.2715 4.93149 38.4277 4.66782 38.789C4.45298 39.1015 4.44321 39.1894 4.41391 41.3086C4.38462 43.4375 4.39438 43.5156 4.60923 43.9355C4.99985 44.6777 5.16587 44.7266 7.69516 44.7266C10.117 44.7266 10.3612 44.6777 10.7518 44.1309C10.9862 43.7988 10.9862 43.7695 10.9862 41.4355C10.9862 39.1894 10.9764 39.0625 10.7811 38.7988C10.3221 38.1933 10.1073 38.1348 7.95883 38.1152C6.88462 38.1055 5.84946 38.1348 5.66391 38.1738ZM9.57016 41.4551V43.2617H7.71469H5.85923V41.4551V39.6484H7.71469H9.57016V41.4551Z" fill="#FFCC60"/>
<path d="M22.1287 41.5039C21.7576 41.6211 21.3963 41.9629 21.2302 42.3535C21.0349 42.793 21.0447 45.3906 21.2302 45.8398C21.3084 46.0156 21.533 46.2891 21.7381 46.4453L22.0994 46.7285H23.7888C25.6638 46.7285 25.7713 46.6992 26.2498 45.9961C26.4549 45.6934 26.4646 45.5762 26.4646 44.0918C26.4646 42.6074 26.4549 42.4902 26.2498 42.1875C25.781 41.5039 25.6443 41.4551 23.9451 41.4355C23.1052 41.4258 22.2849 41.4551 22.1287 41.5039ZM24.9998 44.0918V45.3125H23.7791H22.5584V44.0918V42.8711H23.7791H24.9998V44.0918Z" fill="#FFCC60"/>
<path d="M28.6226 41.6208C27.8901 42.0114 27.8218 42.2555 27.8511 44.1891C27.8804 45.6735 27.8999 45.8786 28.0757 46.1129C28.4858 46.65 28.73 46.7282 30.312 46.7575C32.0014 46.7965 32.4507 46.6891 32.8901 46.1129C33.1538 45.7711 33.1538 45.7614 33.1538 44.1012C33.1538 42.529 33.144 42.4118 32.9389 42.1286C32.4897 41.5036 32.3335 41.4547 30.6147 41.4254C29.1304 41.3962 29.0327 41.4059 28.6226 41.6208ZM31.7378 44.0915V45.3122H30.5171H29.2964V44.0915V42.8708H30.5171H31.7378V44.0915Z" fill="#FFCC60"/>
<path d="M35.5957 41.4743C35.2344 41.5719 34.8437 41.9235 34.6582 42.3239C34.5117 42.6559 34.4727 42.9684 34.4727 44.0915C34.4727 45.3219 34.4922 45.5075 34.6973 45.8981C34.8535 46.2204 35.0293 46.3961 35.3516 46.5622C35.7617 46.777 35.8887 46.7868 37.3047 46.7575C38.9453 46.7282 39.1894 46.6598 39.5996 46.1129C39.7754 45.8786 39.7949 45.6735 39.8242 44.1891C39.8535 42.2555 39.7851 42.0114 39.0625 41.6305C38.6719 41.4255 38.5254 41.4059 37.2168 41.4157C36.4355 41.4255 35.7031 41.4548 35.5957 41.4743ZM38.3789 44.0915V45.3219L37.1875 45.2926L35.9863 45.2633L35.957 44.0622L35.9277 42.8708H37.1582H38.3789V44.0915Z" fill="#FFCC60"/>
</svg>
