<svg width="50" height="50" viewBox="0 0 50 50" fill="none" xmlns="http://www.w3.org/2000/svg">
<path d="M7.8125 1.68946C7.33398 1.84571 6.51367 2.68555 6.36719 3.1836C6.2793 3.4961 6.25 6.5918 6.25 16.25V28.9063H3.90625H1.5625V29.6875V30.4688H7.88086H14.1895L17.7246 29.2969L21.2598 28.125L23.9062 28.1445L26.543 28.1738L23.877 30.4004C21.4453 32.4219 21.1816 32.6758 20.9277 33.1836C20.6934 33.6621 20.6543 33.8574 20.6543 34.5703C20.6543 35.3125 20.6836 35.459 20.9473 35.9277C21.5234 36.9727 22.5684 37.5586 23.7402 37.4707C24.6484 37.4121 25.0293 37.1973 26.6504 35.8301L28.0664 34.6484L31.6602 38.252C34.9316 41.5332 35.2539 41.875 35.2539 42.1777C35.2539 42.6172 34.8047 43.0664 34.3652 43.0664C34.0723 43.0664 33.7598 42.7832 31.0059 40.0391C29.3359 38.3691 27.9297 37.0117 27.8711 37.0117C27.7539 37.0117 26.8555 37.9102 26.8555 38.0371C26.8555 38.0859 28.0469 39.3164 29.4922 40.7715C31.875 43.1543 32.1289 43.4473 32.1289 43.7402C32.1289 44.1797 31.6797 44.6289 31.2402 44.6289C30.9473 44.6289 30.6836 44.3945 28.6621 42.3828C27.4219 41.1426 26.3672 40.1367 26.3086 40.1367C26.1914 40.1367 25.293 41.0352 25.293 41.1621C25.293 41.2109 26.1328 42.0899 27.1484 43.1152C28.7988 44.7754 29.0039 45.0195 29.0039 45.3027C29.0039 45.7422 28.5547 46.1914 28.1152 46.1914C27.8418 46.1914 27.627 46.0254 26.4648 44.8731C25.2734 43.6914 25.1172 43.4863 24.9609 43.0078C24.7168 42.2461 24.1309 41.6602 23.3691 41.4356L22.793 41.2695L22.627 40.6934C22.3926 39.9121 21.8066 39.3262 21.0254 39.0918L20.4492 38.9258L20.2832 38.3496C19.9512 37.2266 18.877 36.5332 17.6758 36.6504C17.1289 36.709 17.1094 36.709 17.0508 36.4649C16.8848 35.8106 15.7031 35.0586 14.8438 35.0586C14.0527 35.0586 13.584 35.332 12.4316 36.4551C11.3281 37.5293 10.9766 38.0371 10.8691 38.7109L10.8105 39.0625H6.19141H1.5625V39.8438V40.625H3.90625H6.25V43.5156C6.25 45.5078 6.28906 46.543 6.36719 46.8164C6.52344 47.3535 7.33398 48.1641 7.87109 48.3203C8.16406 48.4082 9.43359 48.4375 12.3438 48.4375H16.4062V47.6563V46.875H12.3535H8.29102L8.05664 46.6309L7.8125 46.3965V43.5059V40.625H9.57031H11.3281L11.7578 40.957C12.002 41.1426 12.4023 41.3379 12.666 41.4063C13.1348 41.5332 13.1445 41.5332 13.3105 42.1094C13.5449 42.9004 14.1309 43.4863 14.9121 43.7207L15.4883 43.8867L15.6543 44.4629C15.9863 45.5859 17.0605 46.2793 18.2617 46.1621C18.8086 46.1035 18.8281 46.1035 18.8867 46.3477C18.9844 46.7383 19.7266 47.4121 20.2637 47.5879C20.8203 47.7832 21.2695 47.793 21.7871 47.6465C22.1387 47.5391 22.1777 47.5488 22.5586 47.8809C23.291 48.5059 24.1602 48.6816 25.0391 48.3789C25.4883 48.2227 26.1328 47.7051 26.3379 47.334C26.4258 47.168 26.4551 47.1777 26.9336 47.4219C27.959 47.9492 29.0625 47.8027 29.8438 47.0117C30.0781 46.7871 30.293 46.4844 30.332 46.3477C30.3906 46.1035 30.4102 46.1035 30.957 46.1621C31.7383 46.2402 32.4219 45.9961 32.9688 45.4492C33.2031 45.2246 33.418 44.9219 33.457 44.7852C33.5156 44.541 33.5352 44.541 34.082 44.5996C35.6641 44.7559 36.9727 43.4473 36.7871 41.8945L36.7285 41.4258L37.8711 41.377C39.2285 41.3281 39.541 41.2207 40.7617 40.4297C41.2891 40.0879 41.7773 39.8438 41.9238 39.8438H42.1875V43.1152V46.3965L41.9434 46.6309L41.709 46.875H37.6465H33.5938V47.6563V48.4375H37.6758C42.3926 48.4375 42.3926 48.4375 43.0957 47.6563C43.3301 47.4024 43.5742 47.0117 43.6328 46.7969C43.7109 46.5332 43.75 45.3809 43.75 43.125V39.8438H46.0938H48.4375V39.0625V38.2813H44.9512C42.4023 38.291 41.3574 38.3203 41.1133 38.4082C40.9277 38.4766 40.4297 38.7695 40.0098 39.0527C38.916 39.7852 38.7012 39.8438 36.9727 39.8438H35.498L33.5059 37.8516L31.5137 35.8594L32.1387 35.791C33.3203 35.6543 34.4922 35.1563 35.3613 34.4336L35.6445 34.1992L35.1855 33.6231C34.9316 33.3106 34.7168 33.0371 34.707 33.0176C34.6875 32.9981 34.5117 33.1152 34.3066 33.2715C32.5586 34.6484 30.3516 34.5606 28.7305 33.0566L28.1738 32.5391L26.3184 34.1016C25.293 34.9609 24.3066 35.7227 24.1211 35.8106C23.7305 35.9863 23.1543 35.9375 22.793 35.6934C22.207 35.3125 21.9922 34.4238 22.3535 33.8379C22.5879 33.4375 27.7734 29.1406 28.4863 28.7402C29.5508 28.1445 30.8301 27.9785 31.9531 28.2715C32.2559 28.3496 33.7207 28.8672 35.2246 29.4141L37.9395 30.4199L43.1934 30.4492L48.4375 30.4785V29.6875V28.9063H46.0938H43.75V16.25C43.75 6.74805 43.7207 3.48633 43.6328 3.20313C43.5742 2.98829 43.3301 2.59766 43.0957 2.34376C42.334 1.49415 43.9355 1.56251 24.9609 1.57227C13.0078 1.58204 8.05664 1.61133 7.8125 1.68946ZM41.9434 3.36915L42.1875 3.60352V16.2598V28.9063H40.3027H38.418L35.5957 27.8711C34.0332 27.3047 32.4805 26.7773 32.1289 26.6992C31.6309 26.5918 30.3711 26.5625 26.2305 26.5625H20.9668L17.4316 27.7344L13.9062 28.9063H10.8594H7.8125V16.2598V3.60352L8.05664 3.36915L8.29102 3.12501H25H41.709L41.9434 3.36915ZM15.4395 36.9043C15.6348 37.1094 15.7227 37.2852 15.7227 37.5098C15.7227 37.793 15.5762 37.9785 14.668 38.8867C13.7598 39.7949 13.5742 39.9414 13.291 39.9414C12.8516 39.9414 12.4023 39.4922 12.4023 39.0527C12.4023 38.7695 12.5488 38.584 13.457 37.6758C14.3652 36.7676 14.5508 36.6211 14.834 36.6211C15.0586 36.6211 15.2344 36.709 15.4395 36.9043ZM18.5645 38.4668C18.7598 38.6719 18.8477 38.8477 18.8477 39.0723C18.8477 39.3555 18.6816 39.5703 17.4023 40.8399C16.1328 42.1191 15.918 42.2852 15.6348 42.2852C15.1953 42.2852 14.7461 41.8359 14.7461 41.3965C14.7461 41.1133 14.9121 40.8984 16.1914 39.6289C17.4609 38.3496 17.6758 38.1836 17.959 38.1836C18.1836 38.1836 18.3594 38.2715 18.5645 38.4668ZM20.9082 40.8106C21.1035 41.0156 21.1914 41.1914 21.1914 41.416C21.1914 41.6992 21.0254 41.9141 19.7461 43.1836C18.4766 44.4629 18.2617 44.6289 17.9785 44.6289C17.5391 44.6289 17.0898 44.1797 17.0898 43.7402C17.0898 43.457 17.2559 43.2422 18.5352 41.9727C19.8047 40.6934 20.0195 40.5274 20.3027 40.5274C20.5273 40.5274 20.7031 40.6152 20.9082 40.8106ZM23.252 43.1543C23.4473 43.3594 23.5352 43.5352 23.5352 43.7598C23.5352 44.043 23.3887 44.2285 22.4805 45.1367C21.5723 46.0449 21.3867 46.1914 21.1035 46.1914C20.6641 46.1914 20.2148 45.7422 20.2148 45.3027C20.2148 45.0195 20.3613 44.834 21.2695 43.9258C22.1777 43.0176 22.3633 42.8711 22.6465 42.8711C22.8711 42.8711 23.0469 42.959 23.252 43.1543ZM24.8926 45.5664C25.1855 45.9375 25.1562 46.3477 24.8145 46.6895C24.4531 47.0508 24.043 47.0606 23.6621 46.7383L23.3887 46.4941L23.9746 45.9082C24.2969 45.5762 24.5898 45.3125 24.6191 45.3125C24.6582 45.3125 24.7852 45.4297 24.8926 45.5664Z" fill="#FFCC60"/>
<path d="M19.5312 6.25V7.03125H25H30.4688V6.25V5.46875H25H19.5312V6.25Z" fill="#FFCC60"/>
<path d="M10.1562 10.1562V10.9375H25H39.8438V10.1562V9.375H25H10.1562V10.1562Z" fill="#FFCC60"/>
<path d="M10.1562 13.2812V14.0625H25H39.8438V13.2812V12.5H25H10.1562V13.2812Z" fill="#FFCC60"/>
<path d="M10.1562 16.4062V17.1875H18.3594H26.5625V16.4062V15.625H18.3594H10.1562V16.4062Z" fill="#FFCC60"/>
<path d="M10.1562 21.0938V21.875H14.8438H19.5312V21.0938V20.3125H14.8438H10.1562V21.0938Z" fill="#FFCC60"/>
<path d="M30.4688 21.0938V21.875H35.1562H39.8438V21.0938V20.3125H35.1562H30.4688V21.0938Z" fill="#FFCC60"/>
<path d="M12.5 24.2188V25H14.4531H16.4062V24.2188V23.4375H14.4531H12.5V24.2188Z" fill="#FFCC60"/>
<path d="M32.8125 24.2188V25H34.7656H36.7188V24.2188V23.4375H34.7656H32.8125V24.2188Z" fill="#FFCC60"/>
</svg>
