<svg width="50" height="50" viewBox="0 0 50 50" fill="none" xmlns="http://www.w3.org/2000/svg">
<path d="M3.32053 0.107202C2.58811 0.253686 1.72874 0.732202 1.18186 1.31814C-0.927513 3.55447 -0.0290754 7.10915 2.91038 8.11501C3.20335 8.21267 3.6721 8.30056 3.9553 8.30056H4.46311L6.96311 13.3982L9.45335 18.5056L7.96897 19.9998L6.4846 21.4939L5.92796 21.2498C3.38889 20.117 0.527565 21.6404 0.0783464 24.3552C-0.370872 27.0799 2.00217 29.4724 4.78538 29.0916C6.1135 28.8963 7.23655 28.076 7.86155 26.826C8.0471 26.4549 8.20335 26.0838 8.20335 26.0154C8.20335 25.8982 8.6428 25.8787 10.6252 25.8787H13.0471L14.6682 29.1892L16.2893 32.4998L11.3772 37.4021L6.46507 42.3142L5.84007 42.0408C5.02952 41.6697 3.79905 41.5916 3.0178 41.8455C1.89475 42.2166 0.957253 42.9978 0.468971 43.9549C-0.790794 46.4646 0.752175 49.4627 3.55491 49.9217C5.13694 50.1853 6.7971 49.4236 7.66624 48.0369C8.03733 47.451 8.301 46.6306 8.301 46.0447V45.5369L13.9748 42.7635C17.0901 41.24 19.7073 39.9802 19.7854 39.9607C19.883 39.9412 20.1858 40.4783 20.7522 41.6599L21.592 43.3982L21.299 43.9939C20.0686 46.4939 21.6018 49.4627 24.3557 49.9217C27.0803 50.3709 29.4729 47.9978 29.092 45.2146C28.8967 43.8865 28.0764 42.7635 26.8264 42.1385C26.4553 41.9529 26.0842 41.7967 26.0158 41.7967C25.8987 41.7967 25.8791 41.3572 25.8791 39.3748V36.9529L29.1897 35.3318L32.5002 33.7107L37.4026 38.6228L42.3147 43.5349L42.0412 44.1599C41.8264 44.6385 41.7483 44.9607 41.719 45.615C41.6506 46.9041 42.0412 47.9002 42.969 48.8084C44.5901 50.4002 47.2463 50.3416 48.8186 48.6814C50.9377 46.4451 50.0295 42.9099 47.0803 41.8748C46.6506 41.7283 46.3381 41.6892 45.6252 41.7185L44.717 41.7478L41.7971 36.1814L38.8674 30.615L41.133 29.5115L43.3889 28.408L43.9846 28.701C46.4944 29.9314 49.4631 28.408 49.9221 25.6443C50.2151 23.867 49.258 22.0506 47.6174 21.2791C46.4651 20.742 45.2444 20.7224 44.0725 21.2498L43.5158 21.4939L40.0686 18.0467L36.6213 14.5994L40.0783 11.1424L43.5451 7.68533L44.1604 7.95876C44.6389 8.17361 44.9612 8.25173 45.6155 8.28103C46.9045 8.34939 47.9006 7.95876 48.8088 7.03103C50.4006 5.40994 50.342 2.75369 48.6819 1.18142C46.4162 -0.967017 42.8323 -0.000220299 41.8459 3.01736C41.592 3.79861 41.6701 5.02908 42.0412 5.83962L42.3147 6.45486L38.8576 9.92165L35.4006 13.3787L31.9533 9.93142L28.5061 6.48415L28.7502 5.92751C29.4729 4.30642 29.1408 2.47048 27.9104 1.24001C26.2893 -0.38108 23.7112 -0.38108 22.0901 1.24001C20.8596 2.47048 20.5276 4.30642 21.2502 5.92751L21.4944 6.48415L18.0471 9.93142L14.5998 13.3787L11.1428 9.92165L7.68577 6.46462L7.95921 5.83962C8.3303 5.02908 8.40842 3.79861 8.15452 3.01736C7.45139 0.888452 5.46897 -0.31272 3.32053 0.107202ZM5.24436 1.94314C6.09397 2.37283 6.55296 3.08572 6.62132 4.06228C6.68967 5.0779 6.1721 5.93728 5.22483 6.40603C4.02366 6.9822 2.56858 6.47439 1.94358 5.25369C1.09397 3.59353 2.45139 1.56228 4.30686 1.699C4.59983 1.71853 5.02952 1.82595 5.24436 1.94314ZM25.7424 1.80642C26.7678 2.10915 27.4612 3.07595 27.4612 4.199C27.4612 5.1658 26.924 5.99587 26.0256 6.40603C24.7756 6.99197 23.2229 6.37673 22.6858 5.08767C22.3147 4.21853 22.6369 2.9197 23.3791 2.28494C24.0432 1.70876 24.8733 1.54275 25.7424 1.80642ZM46.719 1.85525C48.0666 2.36306 48.7014 3.98415 48.0569 5.25369C47.6272 6.09353 46.9143 6.55251 45.9377 6.62087C44.9319 6.68923 44.0725 6.18142 43.6135 5.25369C42.9397 3.90603 43.6135 2.324 45.0881 1.79665C45.6155 1.61111 46.1037 1.63064 46.719 1.85525ZM24.0041 8.2029C24.092 8.2029 24.1213 9.73611 24.1213 15.5467V22.9002L19.9514 18.7302L15.7717 14.5506L19.2287 11.0935L22.6858 7.6365L23.2815 7.9197C23.6037 8.07595 23.9358 8.2029 24.0041 8.2029ZM33.008 15.7713C32.344 16.4353 31.7678 16.9529 31.7287 16.9138C31.6897 16.8748 30.6057 14.824 29.3069 12.3533C26.1916 6.39626 26.133 6.45486 30.7619 11.0838L34.2287 14.5506L33.008 15.7713ZM9.94163 11.1619L13.3791 14.5994L12.0412 15.9373L10.6936 17.2752L8.40842 12.5974C7.15842 10.0291 6.16233 7.88064 6.19163 7.82205C6.23069 7.76345 6.31858 7.71462 6.37717 7.71462C6.44553 7.71462 8.0471 9.26736 9.94163 11.1619ZM28.2131 13.8377C29.4533 16.2107 30.469 18.1834 30.469 18.2322C30.469 18.2713 29.4338 19.3455 28.174 20.6052L25.8791 22.9002V16.1717C25.8791 12.4705 25.8987 9.46267 25.9182 9.4822C25.9377 9.50173 26.9729 11.4646 28.2131 13.8377ZM18.7502 19.9705L22.9006 24.1209H18.4865H14.0627L13.2033 22.3826C12.7248 21.4353 12.1487 20.2439 11.9143 19.7459L11.4846 18.8377L12.9885 17.3338C13.8186 16.5037 14.5217 15.8201 14.551 15.8201C14.5803 15.8201 16.4651 17.6853 18.7502 19.9705ZM38.926 19.2478L42.3635 22.6853L42.0803 23.281C41.924 23.6033 41.7971 23.9353 41.7971 23.9939C41.7971 24.0916 41.1037 24.1209 38.633 24.1209H35.4787L34.0334 21.3767L32.5979 18.6228L33.9944 17.2263C34.7658 16.4549 35.4201 15.8201 35.4494 15.8201C35.4787 15.8201 37.0412 17.3631 38.926 19.2478ZM31.9729 21.0252C32.2854 21.6209 32.7834 22.5681 33.0764 23.115L33.6135 24.1209H30.3518H27.0998L29.1994 22.0213C30.3518 20.8689 31.3186 19.9217 31.3479 19.9217C31.3772 19.9217 31.6604 20.4197 31.9729 21.0252ZM11.2307 22.1482L12.1975 24.1209H10.2053C8.6721 24.1209 8.20335 24.0916 8.20335 23.9939C8.20335 23.9353 8.07639 23.6131 7.92014 23.2908L7.63694 22.7049L8.91624 21.4158C9.61936 20.7029 10.2053 20.1365 10.2248 20.156C10.2444 20.1658 10.6936 21.074 11.2307 22.1482ZM5.13694 22.7049C6.36741 23.2029 6.98264 24.7947 6.40647 26.0252C5.801 27.3338 4.34592 27.8318 3.0471 27.1775C0.927956 26.1228 1.39671 22.9978 3.73069 22.5681C4.20921 22.4802 4.69749 22.5291 5.13694 22.7049ZM46.9729 22.8318C49.2776 23.9451 48.4084 27.4607 45.8303 27.4607C43.3108 27.4607 42.4416 24.1795 44.5998 22.8416C45.2737 22.4217 46.1135 22.4217 46.9729 22.8318ZM20.2151 28.5642L17.5295 31.2595L16.2405 28.6033C15.5276 27.1385 14.9416 25.9373 14.9416 25.9177C14.9416 25.8982 16.7287 25.8787 18.9162 25.8787H22.9006L20.2151 28.5642ZM35.5569 27.8611L36.6018 29.8338L34.7561 30.7615L32.9104 31.6892L30.0002 28.7791L27.0998 25.8787H30.8108H34.5217L35.5569 27.8611ZM41.9729 26.4744C42.0998 26.7967 42.178 27.0896 42.1584 27.1189C41.9826 27.2849 38.135 29.0916 38.0764 29.033C38.0373 28.9939 37.6467 28.2615 37.2073 27.4119L36.4065 25.8787H39.0823H41.7483L41.9729 26.4744ZM24.1213 31.5427V35.9373L22.4514 36.7674C21.5334 37.2361 20.7424 37.5974 20.6936 37.5779C20.6545 37.5584 20.0979 36.5037 19.4631 35.2244L18.3205 32.9002L21.1916 30.0291C22.7737 28.447 24.0823 27.1482 24.092 27.1482C24.1115 27.1482 24.1213 29.1209 24.1213 31.5427ZM28.6037 33.7595C27.1389 34.4724 25.9377 35.0584 25.9182 35.0584C25.8987 35.0584 25.8791 33.2713 25.8791 31.0838V27.0994L28.5647 29.7849L31.26 32.4705L28.6037 33.7595ZM39.0237 34.4724C41.6115 39.3943 42.5979 41.3084 42.5588 41.3084C42.5393 41.3084 40.6448 39.4236 38.3401 37.1189L34.1506 32.9295L35.7033 32.1385C36.553 31.7088 37.2951 31.367 37.3342 31.3767C37.383 31.3865 38.135 32.783 39.0237 34.4724ZM18.1155 36.2498C18.6721 37.3924 19.092 38.3592 19.0627 38.3982C18.9651 38.4861 7.9885 43.8474 7.89085 43.8474C7.84202 43.8474 7.78342 43.7791 7.74436 43.6912C7.7053 43.574 8.97483 42.2459 12.3635 38.8572C14.9319 36.2888 17.051 34.1795 17.0705 34.1795C17.0901 34.1795 17.5588 35.117 18.1155 36.2498ZM24.1213 39.7654V41.7478L23.5256 41.9724C23.2033 42.0994 22.9104 42.1775 22.8811 42.1482C22.8518 42.1189 22.5002 41.4353 22.1096 40.6248L21.3967 39.1599L22.7346 38.4763C23.467 38.1052 24.0823 37.8025 24.1018 37.8025C24.1115 37.7927 24.1213 38.6814 24.1213 39.7654ZM5.25413 43.6131C6.18186 44.072 6.68967 44.9314 6.62132 45.9373C6.53342 47.2263 5.65452 48.1638 4.40452 48.3103C2.7053 48.5056 1.23069 46.6892 1.7971 45.0877C2.32444 43.6228 3.91624 42.9392 5.25413 43.6131ZM26.0256 43.5935C27.3342 44.199 27.8323 45.6541 27.1877 46.9529C26.2698 48.7693 23.7307 48.7693 22.8225 46.9529C22.5002 46.3084 22.4416 45.4881 22.6858 44.9119C23.2229 43.6228 24.7756 43.0076 26.0256 43.5935ZM46.9045 43.5935C48.0569 44.1599 48.6037 45.4978 48.1545 46.699C47.6369 48.0662 46.0256 48.7107 44.7463 48.0564C43.9065 47.6267 43.4475 46.9138 43.3791 45.9373C43.3108 44.9314 43.8186 44.0818 44.7561 43.6033C45.1858 43.3885 45.3615 43.3494 45.8987 43.3787C46.2502 43.3982 46.6994 43.4959 46.9045 43.5935Z" fill="#FFCC60"/>
</svg>
