<svg width="50" height="50" viewBox="0 0 50 50" fill="none" xmlns="http://www.w3.org/2000/svg">
<g clip-path="url(#clip0_124_2092)">
<path d="M25.0776 1.58867C25.0459 1.63095 24.4011 3.02628 23.6295 4.68587C22.8684 6.34546 22.2024 7.73021 22.1707 7.7725C22.1073 7.82535 15.934 8.38559 15.3632 8.38559C15.2469 8.38559 15.1412 8.55472 15.0355 8.91413L14.877 9.44266L15.638 10.1615C16.0503 10.5631 17.1708 11.6202 18.1327 12.5187C19.0946 13.4066 19.8874 14.1677 19.9086 14.21C19.9297 14.2523 18.5555 20.3093 18.397 20.859C18.3758 20.9541 18.5344 21.1444 18.8092 21.3558L19.2638 21.6835L21.6316 20.3621C22.9318 19.6433 24.306 18.8822 24.6865 18.6814L25.3736 18.3114L28.3651 20.1084L31.346 21.916L31.7689 21.62C31.9908 21.4615 32.1811 21.2606 32.1917 21.1761C32.1917 21.0915 31.9063 19.5482 31.5574 17.7618C31.2086 15.9647 30.9443 14.4531 30.9761 14.4003C31.0183 14.3474 32.2023 13.3009 33.6082 12.0853L36.1874 9.85491L36.0183 9.33695C35.828 8.72385 36.2508 8.84013 32.086 8.33274C30.3735 8.12133 28.9571 7.90991 28.9359 7.8782C28.9148 7.83592 28.3017 6.39831 27.5617 4.68587L26.2193 1.56753L25.6696 1.53582C25.3736 1.51468 25.1093 1.54639 25.0776 1.58867ZM26.7478 6.96913C27.678 9.18896 27.8049 9.42152 28.0586 9.47437C28.2065 9.50608 29.4433 9.65407 30.7964 9.8232C32.1494 9.98176 33.2382 10.1509 33.2276 10.1932C33.2065 10.2355 32.3925 10.9648 31.3989 11.8211C30.4158 12.6773 29.4962 13.4701 29.3693 13.5969L29.1262 13.8295L29.6547 16.5144C29.9507 17.9943 30.1727 19.2099 30.1621 19.2205C30.141 19.2416 29.0733 18.6074 27.7732 17.8252L25.4159 16.3981L23.0269 17.73C21.7056 18.4594 20.6062 19.0302 20.5851 19.0091C20.5428 18.9774 21.7162 13.8823 21.7902 13.7661C21.8113 13.7238 20.9128 12.8464 19.7817 11.8105C18.6507 10.764 17.7522 9.8972 17.7627 9.88662C17.7839 9.86548 18.8832 9.75978 20.2151 9.6435C21.5365 9.52722 22.7732 9.42152 22.9529 9.3898C23.2595 9.33695 23.3229 9.22067 24.4223 6.85285C25.0565 5.48924 25.6062 4.40046 25.6484 4.44274C25.6907 4.4956 26.177 5.62666 26.7478 6.96913Z" fill="#FFCC60"/>
<path d="M12.1286 7.1912C11.97 7.22291 11.8326 7.3709 11.7269 7.62459C11.6423 7.83601 11.1138 9.00935 10.543 10.2355L9.49647 12.4554L8.08 12.5822C7.29777 12.6457 5.98702 12.7619 5.16251 12.8254L3.65091 12.9628L3.4712 13.5336L3.2915 14.1044L3.65091 14.3898C3.85175 14.5484 4.76082 15.3623 5.65933 16.1974C6.55783 17.0325 7.3612 17.783 7.44576 17.857C7.56204 17.9627 7.48805 18.4384 6.9278 20.8485L6.26185 23.7025L6.51555 23.914C7.12864 24.4213 7.0018 24.4636 9.70788 22.9626C11.8431 21.7893 12.266 21.5884 12.4562 21.673C12.5831 21.7364 13.7247 22.4129 14.9932 23.174L17.2976 24.5693L17.7521 24.2416L18.1961 23.914L17.6359 21.0493L17.0862 18.1741L17.5196 17.8041C17.7627 17.5927 18.027 17.3707 18.1221 17.3073C18.2595 17.2016 18.2172 17.0959 17.7733 16.5885C17.4984 16.2608 17.2342 15.9965 17.1919 15.9965C17.139 15.9965 16.7162 16.3348 16.2405 16.7471C15.6909 17.2227 15.3843 17.561 15.3843 17.709C15.3843 17.8253 15.5534 18.7978 15.7543 19.876C15.9551 20.9542 16.1243 21.8527 16.1243 21.8844C16.1243 21.9478 15.4794 21.5778 13.8727 20.5736C13.1011 20.098 12.4985 19.802 12.3188 19.802C12.1497 19.802 11.304 20.2037 10.247 20.7956C9.26391 21.3453 8.44997 21.7787 8.42883 21.7681C8.41826 21.747 8.59796 20.9119 8.83052 19.9077C9.06307 18.9035 9.25334 17.8993 9.25334 17.6878C9.25334 17.3179 9.15821 17.2122 7.7206 15.8803C6.52612 14.7809 6.23014 14.4532 6.36756 14.4004C6.47327 14.3687 7.34006 14.2735 8.30199 14.2101C9.26391 14.1361 10.1624 14.041 10.3104 13.9987C10.5958 13.9141 10.8178 13.5336 11.8749 11.2503L12.488 9.93957L13.3547 12.0114L14.2321 14.0727L15.3103 14.1995C15.9023 14.263 16.4625 14.3475 16.5682 14.3687C16.7056 14.4109 16.7479 14.3052 16.8113 13.8613C16.8431 13.5547 16.8959 13.1742 16.9276 13.0156C16.9805 12.7408 16.9699 12.7408 16.2617 12.6668C15.8706 12.6245 15.5006 12.5928 15.4583 12.5717C15.4055 12.5611 14.9721 11.6097 14.4752 10.447C13.0693 7.10663 13.0799 7.1172 12.6994 7.12777C12.5197 7.13834 12.266 7.17006 12.1286 7.1912Z" fill="#FFCC60"/>
<path d="M38.2383 7.24405C38.1749 7.32862 37.5935 8.50196 36.9593 9.855C36.325 11.208 35.7648 12.3602 35.7119 12.4025C35.6696 12.4554 35.3948 12.5082 35.0988 12.5294L34.5703 12.5611L34.602 13.301C34.6232 13.7027 34.676 14.0727 34.7077 14.115C34.8346 14.2524 36.6527 14.0093 36.8218 13.8401C36.9064 13.7556 37.3715 12.8465 37.8578 11.8211C38.3335 10.7958 38.7457 9.99242 38.7774 10.0453C39.0311 10.4681 40.2256 13.523 40.2256 13.7556V14.041L42.3714 14.2947C43.5448 14.4321 44.5807 14.5801 44.6864 14.6118C44.8133 14.6541 44.4433 15.0346 43.2277 16.0917C42.3292 16.8633 41.5998 17.5716 41.5998 17.6561C41.5998 17.7513 41.7689 18.6921 41.9803 19.7703C42.1812 20.8379 42.3397 21.7575 42.3186 21.7998C42.2974 21.8527 41.5046 21.4193 40.5533 20.8485C39.5068 20.2248 38.6929 19.802 38.5237 19.802C38.3757 19.802 37.8472 20.0345 37.361 20.3094C35.2045 21.5461 34.602 21.8527 34.6654 21.6413C34.8029 21.1656 35.5745 17.7724 35.5745 17.6033C35.5745 17.4447 34.8451 16.6731 33.7986 15.7323L33.4604 15.4257L32.9319 15.9437C32.6359 16.2291 32.4033 16.5145 32.4033 16.5674C32.4033 16.6202 32.7204 16.969 33.1116 17.3179L33.8304 17.9733L33.1644 20.8168L32.509 23.6603L32.9001 23.9985C33.1221 24.1888 33.3441 24.3474 33.3864 24.3474C33.4392 24.3474 34.5914 23.7237 35.9656 22.9626C38.0586 21.7998 38.492 21.5884 38.6823 21.6836C38.7986 21.7364 39.9402 22.4129 41.2192 23.174L43.5342 24.5693L43.9465 24.2839C44.1684 24.1254 44.3693 23.9668 44.3904 23.9351C44.4116 23.9034 44.179 22.5926 43.883 21.0387L43.3228 18.1952L45.3629 16.4088C46.4834 15.4257 47.4559 14.5272 47.5299 14.4004C47.6145 14.2312 47.6145 14.0621 47.5193 13.7239L47.3925 13.2693L46.5363 13.1636C46.0606 13.1002 44.7604 12.9416 43.6399 12.8148L41.6104 12.5717L40.5427 10.0347C39.9508 8.62881 39.4117 7.42375 39.3377 7.34976C39.1262 7.12777 38.3969 7.06435 38.2383 7.24405Z" fill="#FFCC60"/>
<path d="M-1 27.5712V28.364H3.12255H7.2451V37.0847V45.8055H3.12255H-1V46.5983V47.3911H3.36568C7.51994 47.3911 7.73135 47.3805 8.06961 47.1797C8.25988 47.0634 8.50301 46.8203 8.61929 46.63C8.82013 46.2918 8.8307 46.0804 8.8307 37.0847C8.8307 28.0891 8.82013 27.8777 8.61929 27.5394C8.50301 27.3492 8.25988 27.106 8.06961 26.9898C7.73135 26.7889 7.51994 26.7784 3.36568 26.7784H-1V27.5712Z" fill="#FFCC60"/>
<path d="M10.7019 28.8607C10.6596 28.8924 10.6279 29.2729 10.6279 29.7063V30.478H13.1966C15.0359 30.478 15.9344 30.5203 16.3995 30.6365C16.7483 30.7105 18.1542 31.2919 19.5178 31.9156C20.8815 32.5287 22.3296 33.1841 22.7313 33.3743L23.4713 33.702L27.4881 33.7549C31.3887 33.8077 31.5155 33.8183 31.8749 34.0403C32.3717 34.3468 32.6149 34.7908 32.6149 35.3933C32.6149 35.9959 32.3717 36.4398 31.8749 36.7464C31.5155 36.9789 31.4204 36.9789 26.9913 37.0106L22.4671 37.0424V37.8351V38.6279L27.2027 38.5962L31.9278 38.5645L38.2173 35.869L44.5068 33.1735H45.5639C46.473 33.1735 46.695 33.2158 47.1495 33.4378C47.7309 33.7232 48.7245 34.6428 48.6611 34.8331C48.6083 34.9916 28.7672 45.5306 27.7735 45.9323C26.7376 46.3445 25.5642 46.4925 24.56 46.3445C24.1372 46.2705 22.6256 45.8477 21.1986 45.3932C19.7715 44.928 17.4777 44.1881 16.1035 43.7441L13.5983 42.9408L12.1078 42.8773L10.6279 42.8139V43.6701V44.5369H11.907H13.186L18.1225 46.1225C20.8392 46.9999 23.4184 47.7821 23.8518 47.8773C24.7926 48.0781 26.5262 48.0252 27.4881 47.7715C28.376 47.539 29.3591 47.0316 40.7014 41.0169C49.9402 36.1121 50.7435 35.6682 50.7118 35.4356C50.7012 35.2982 50.5215 34.8331 50.3101 34.3997C49.2425 32.2221 46.7372 31.0277 44.4011 31.5773C44.0523 31.6619 41.6739 32.6133 39.1264 33.6915C36.5789 34.7697 34.4542 35.6576 34.4119 35.6576C34.3696 35.6576 34.3062 35.3933 34.2639 35.0656C34.137 33.9769 33.4077 32.9515 32.414 32.4653C31.9383 32.2327 31.8221 32.2221 27.9109 32.1693L23.8941 32.1164L20.9343 30.7634C17.4883 29.1778 17.0232 29.0087 15.8075 28.8818C14.7611 28.7761 10.8076 28.755 10.7019 28.8607Z" fill="#FFCC60"/>
<path d="M3.34477 42.2539C3.00651 42.4441 2.81623 42.8141 2.80566 43.2792C2.80566 44.0509 3.59846 44.59 4.31727 44.294C4.79295 44.0932 5.0255 43.7443 5.0255 43.2158C5.01493 42.349 4.11642 41.831 3.34477 42.2539Z" fill="#FFCC60"/>
</g>
<defs>
<clipPath id="clip0_124_2092">
<rect width="50" height="50" fill="white"/>
</clipPath>
</defs>
</svg>
