<svg width="50" height="50" viewBox="0 0 50 50" fill="none" xmlns="http://www.w3.org/2000/svg">
<path d="M16.8848 4.67773L16.6504 4.86328L16.6211 12.2949L16.6016 19.7266H13.0469C9.69727 19.7266 9.48242 19.7363 9.26758 19.9121L9.0332 20.0977V23.4277C9.0332 26.7188 9.0332 26.7578 9.24805 26.9629C9.51172 27.2266 9.98047 27.2461 10.2539 27.002C10.4395 26.8359 10.4492 26.709 10.4492 24.0039V21.1914H12.7441H15.0391V22.8906C15.0391 24.6387 15.1172 25.127 15.4297 25.293C15.7324 25.4492 15.9277 25.4102 16.6797 25.0293L17.3926 24.668L18.0957 25.0293C18.8672 25.4297 18.9258 25.4395 19.2676 25.2832C19.668 25.0977 19.7266 24.8145 19.7266 22.9492V21.1914H21.9727H24.2188V28.0762V34.9609H17.334H10.4492V32.1484C10.4492 29.5898 10.4297 29.3164 10.2832 29.1699C9.96094 28.8867 9.61914 28.8672 9.31641 29.1309L9.0332 29.375L9.00391 32.168L8.97461 34.9609H4.72656H0.478516L0.244141 35.2051C0 35.4395 0 35.459 0 37.207C0 38.9551 0 38.9746 0.244141 39.209C0.46875 39.4434 0.527344 39.4531 1.75781 39.4531H3.02734V40.2344V41.0156H1.75781C0.527344 41.0156 0.46875 41.0254 0.244141 41.2598C0 41.4941 0 41.5137 0 43.2422C0 44.8633 0.0195312 45.0098 0.205078 45.2539L0.400391 45.5078H11.9043H23.4082L23.6133 45.2832C23.8965 44.9805 23.8867 44.5801 23.584 44.2871L23.3496 44.043H12.4023H1.46484V43.2617V42.4805H25H48.5352V43.2617V44.043H37.3047H26.0645L25.8301 44.2871C25.5176 44.5898 25.5078 45.0098 25.8105 45.293L26.0352 45.5078H37.8125H49.5996L49.7949 45.2539C49.9805 45.0098 50 44.8633 50 43.2422C50 41.5137 50 41.4941 49.7559 41.2598C49.5312 41.0254 49.4727 41.0156 48.2422 41.0156H46.9727V40.2344V39.4531H48.2422C49.4727 39.4531 49.5312 39.4434 49.7559 39.209C50 38.9746 50 38.9551 50 37.207C50 35.459 50 35.4395 49.7559 35.2051L49.5215 34.9609H45.2734H41.0156L40.9961 27.5293L40.9668 20.0977L40.7324 19.9121C40.5176 19.7363 40.3027 19.7266 36.9531 19.7266H33.4082L33.3789 16.4453L33.3496 13.1641L33.0762 12.9297C32.7441 12.6465 32.5293 12.6367 32.1875 12.9004L31.9336 13.0957V16.416V19.7266H25H18.0664V12.8418V5.95703H20.3613H22.6562V7.77344V9.58984L22.9395 9.87305C23.0957 10.0293 23.291 10.1562 23.3789 10.1562C23.4668 10.1562 23.8574 9.99023 24.2578 9.79492L24.9902 9.43359L25.791 9.81445C26.5332 10.166 26.6113 10.1758 26.8457 10.0488C27.2852 9.79492 27.3438 9.55078 27.3438 7.68555V5.95703H29.6387H31.9336V8.28125C31.9336 10.498 31.9434 10.625 32.1289 10.791C32.4023 11.0352 32.8711 11.0156 33.1348 10.752C33.3496 10.5469 33.3496 10.498 33.3496 7.70508V4.86328L33.1152 4.67773C32.9004 4.50195 32.6172 4.49219 25 4.49219C17.3828 4.49219 17.0996 4.50195 16.8848 4.67773ZM25.8789 7.08008V8.21289L25.5859 8.05664C25.2344 7.87109 24.834 7.87109 24.5117 8.05664C24.375 8.13477 24.2383 8.19336 24.1992 8.20312C24.1504 8.20312 24.1211 7.69531 24.1211 7.08008V5.95703H25H25.8789V7.08008ZM18.2617 22.3047V23.418L17.8223 23.291C17.4121 23.1641 17.1777 23.1836 16.6797 23.3887C16.5137 23.457 16.5039 23.3691 16.5039 22.3242V21.1914H17.3828H18.2617V22.3047ZM30.2734 22.8906C30.2734 24.6387 30.3516 25.127 30.6641 25.293C30.957 25.4492 31.1719 25.4102 31.9336 25.0391L32.666 24.6875L33.418 25.0586C34.0918 25.3906 34.1895 25.4102 34.4531 25.3027C34.9023 25.1172 34.9609 24.8633 34.9609 22.9492V21.1914H37.2559H39.5508V28.0762V34.9609H32.666H25.7812V28.0762V21.1914H28.0273H30.2734V22.8906ZM33.4961 22.3242C33.4961 23.125 33.4668 23.4277 33.3887 23.3789C33.0176 23.1543 32.4805 23.1543 31.9141 23.3887C31.748 23.457 31.7383 23.3691 31.7383 22.3242V21.1914H32.6172H33.4961V22.3242ZM48.5352 37.207V37.9883H25H1.46484V37.207V36.4258H25H48.5352V37.207ZM9.08203 40.2344V41.0156H6.78711H4.49219V40.2344V39.4531H6.78711H9.08203V40.2344ZM39.4531 40.2344V41.0156H25H10.5469V40.2344V39.4531H25H39.4531V40.2344ZM45.5078 40.2344V41.0156H43.2129H40.918V40.2344V39.4531H43.2129H45.5078V40.2344Z" fill="#FFCC60"/>
<path d="M33.75 32.1387C33.3984 32.4121 33.3984 32.9199 33.75 33.1934C33.9941 33.3789 34.1406 33.3984 35.6934 33.3984C37.2461 33.3984 37.3926 33.3789 37.6367 33.1934C37.8223 33.0469 37.8906 32.9004 37.8906 32.666C37.8906 32.4316 37.8223 32.2852 37.6367 32.1387C37.3926 31.9531 37.2461 31.9336 35.6934 31.9336C34.1406 31.9336 33.9941 31.9531 33.75 32.1387Z" fill="#FFCC60"/>
<path d="M26.0938 16.8945C25.7813 17.1875 25.8008 17.6953 26.1328 17.959C26.377 18.1445 26.5234 18.1641 28.0957 18.1641C29.7656 18.1641 29.7949 18.1641 30.0293 17.9199C30.3223 17.627 30.3418 17.2949 30.0684 16.9531L29.873 16.6992H28.0859C26.4258 16.6992 26.2891 16.709 26.0938 16.8945Z" fill="#FFCC60"/>
<path d="M18.4763 32.1582C18.1931 32.4609 18.1931 32.9102 18.4861 33.1836C18.7009 33.3887 18.7986 33.3984 20.449 33.3984C22.158 33.3984 22.1775 33.3984 22.4119 33.1543C22.5486 33.0273 22.656 32.8027 22.656 32.666C22.656 32.5293 22.5486 32.3047 22.4119 32.1777C22.1775 31.9336 22.158 31.9336 20.4295 31.9336C18.7302 31.9336 18.6814 31.9434 18.4763 32.1582Z" fill="#FFCC60"/>
</svg>
