<svg width="170" height="170" viewBox="0 0 170 170" fill="none" xmlns="http://www.w3.org/2000/svg">
<path d="M77.0312 47.8125V106.25C77.0217 114.701 73.6604 122.803 67.6847 128.778C61.7091 134.754 53.6071 138.115 45.1562 138.125C43.7473 138.125 42.396 137.565 41.3997 136.569C40.4035 135.573 39.8438 134.221 39.8438 132.812C39.8438 131.404 40.4035 130.052 41.3997 129.056C42.396 128.06 43.7473 127.5 45.1562 127.5C50.7902 127.494 56.1915 125.253 60.1753 121.269C64.1591 117.285 66.3999 111.884 66.4062 106.25V100.938H26.5625C23.7456 100.934 21.0449 99.8138 19.053 97.822C17.0612 95.8301 15.9407 93.1294 15.9375 90.3125V47.8125C15.9407 44.9956 17.0612 42.2949 19.053 40.303C21.0449 38.3112 23.7456 37.1907 26.5625 37.1875H66.4062C69.2232 37.1907 71.9238 38.3112 73.9157 40.303C75.9076 42.2949 77.028 44.9956 77.0312 47.8125ZM143.438 37.1875H103.594C100.777 37.1907 98.0762 38.3112 96.0843 40.303C94.0924 42.2949 92.972 44.9956 92.9688 47.8125V90.3125C92.972 93.1294 94.0924 95.8301 96.0843 97.822C98.0762 99.8138 100.777 100.934 103.594 100.938H143.438V106.25C143.431 111.884 141.19 117.285 137.207 121.269C133.223 125.253 127.821 127.494 122.188 127.5C120.779 127.5 119.427 128.06 118.431 129.056C117.435 130.052 116.875 131.404 116.875 132.812C116.875 134.221 117.435 135.573 118.431 136.569C119.427 137.565 120.779 138.125 122.188 138.125C130.638 138.115 138.74 134.754 144.716 128.778C150.692 122.803 154.053 114.701 154.062 106.25V47.8125C154.059 44.9956 152.939 42.2949 150.947 40.303C148.955 38.3112 146.254 37.1907 143.438 37.1875Z" fill="#F8F4ED"/>
</svg>
