<svg width="44" height="44" viewBox="0 0 44 44" fill="none" xmlns="http://www.w3.org/2000/svg">
<g clip-path="url(#clip0_263_1651)">
<mask id="path-1-inside-1_263_1651" fill="white">
<path fill-rule="evenodd" clip-rule="evenodd" d="M33.3658 0.430511C32.6811 0.664068 31.8287 1.07796 31.4714 1.35026L30.8221 1.84558L29.6746 1.27692C28.0581 0.475643 26.2696 0.449692 24.6072 1.20321C23.9662 1.49374 23.3035 1.88432 23.1344 2.07105C22.8792 2.35294 22.7307 2.3772 22.2611 2.21359C21.9499 2.10509 21.1563 2.05958 20.4976 2.11242C19.0207 2.23089 17.8305 2.87948 17.0668 3.98182C16.5749 4.69189 16.4453 4.76749 15.663 4.8004C14.6498 4.84309 13.6 5.42905 13.1392 6.20907C12.9568 6.51785 12.5943 6.80162 12.2994 6.86631C11.4859 7.04495 10.8492 7.65574 10.7117 8.38913C10.4813 9.61653 11.453 10.0016 11.985 8.89385C12.1903 8.46623 12.3648 8.36337 12.8944 8.35772C13.7021 8.34907 14.0195 8.16629 14.0195 7.7099C14.0195 7.51696 14.247 7.08877 14.5252 6.75837C15.0209 6.1694 15.0539 6.15981 16.2069 6.2779L17.3831 6.39844L17.7453 5.59509C18.1789 4.6336 18.9575 3.88667 19.83 3.595C20.6853 3.30917 21.1759 3.32553 22.203 3.67417L23.0656 3.96715L23.7486 3.36746C25.5264 1.80666 28.0589 1.61522 29.813 2.90919C30.6167 3.50229 30.9597 3.50211 31.6653 2.90844C31.9744 2.64818 32.7214 2.20588 33.325 1.92513C34.2493 1.49581 34.6758 1.41532 36.0212 1.41664C37.3793 1.41815 37.7974 1.49957 38.801 1.95822C40.3338 2.65852 41.8453 4.25374 42.4149 5.77242C42.9935 7.3148 42.8969 9.6154 42.1898 11.1328C41.5713 12.46 40.3014 13.7218 38.883 14.4184C37.9337 14.8845 37.5984 14.9464 36.0212 14.9464C34.4557 14.9464 34.1054 14.8828 33.1881 14.4325C32.0858 13.8909 31.0445 12.9941 30.0851 11.7595C29.5083 11.0175 29.508 11.0173 28.8628 11.2894C28.5062 11.4397 27.67 11.5555 26.9949 11.548C25.6336 11.5331 24.8182 11.2048 23.8432 10.2794L23.2299 9.69739L22.0563 10.0101C20.5903 10.4009 19.6314 10.2017 18.5599 9.28462C17.6823 8.53355 17.612 8.5234 16.9423 9.05012C16.6603 9.27202 16.1621 9.50821 15.8357 9.57497C15.3304 9.67839 15.2418 9.77938 15.2418 10.2529C15.2418 10.7439 15.3142 10.8163 15.8562 10.8686C16.1941 10.9011 16.7263 10.8001 17.039 10.6442C17.5729 10.3777 17.6479 10.3883 18.2803 10.8174C19.4383 11.6031 20.8077 11.8396 22.0825 11.4741C22.6353 11.3155 22.8147 11.3611 23.5032 11.8348C24.781 12.7139 26.0473 13.0409 27.692 12.9166L29.1142 12.809L30.0464 13.829C30.6917 14.5351 31.4184 15.0664 32.4088 15.5559C33.8139 16.2501 33.8779 16.2627 36.0212 16.2627C38.1646 16.2627 38.2286 16.2501 39.6337 15.5559C45.2043 12.8026 45.8577 5.25698 40.8456 1.56294C38.741 0.0117259 35.8697 -0.422856 33.3658 0.430511ZM9.35042 11.9846C9.25733 12.1657 9.12626 15.3178 9.05913 18.9895C8.992 22.6611 8.88255 27.2941 8.81598 29.2852L8.69507 32.9051H6.04188C2.87852 32.9051 2.24912 33.1204 1.81228 34.3523C1.56669 35.0449 1.5774 35.1675 1.95331 35.9438C2.31606 36.693 2.36044 37.0965 2.36044 39.6403V42.4956H1.68986C1.32109 42.4956 0.855672 42.5832 0.655587 42.6902C0.187721 42.9407 0.187721 43.5549 0.655587 43.8054C0.900239 43.9363 8.00963 44 22.3619 44C41.5134 44 43.7346 43.9697 44 43.7046C44.6798 43.0246 44.0626 42.4956 42.5896 42.4956H41.4747V38.1383C41.4747 34.2523 41.5102 33.7415 41.8038 33.4173C42.014 33.1849 42.1328 32.7498 42.1328 32.2118C42.1328 31.4985 42.039 31.286 41.5187 30.8211C40.9069 30.2747 40.8949 30.2724 38.4629 30.2724C37.12 30.2724 36.018 30.2512 36.0141 30.2254C36.0102 30.1996 35.8511 27.7779 35.6604 24.844C35.3996 20.8303 35.2501 19.469 35.0564 19.3464C34.9148 19.2567 34.0567 19.182 33.1495 19.1803C31.6137 19.1777 31.4881 19.2067 31.3289 19.6006C31.2346 19.8332 31.0643 21.7162 30.9503 23.7847C30.8362 25.8533 30.6917 28.1591 30.6293 28.9091L30.5159 30.2724H29.8948C29.5531 30.2724 29.2361 30.2089 29.19 30.1314C29.1439 30.0539 28.9592 27.6632 28.7797 24.819C28.5999 21.9747 28.3684 19.5419 28.265 19.4126C27.9893 19.0675 24.8564 19.0908 24.5664 19.44C24.4331 19.6008 24.2403 21.5136 24.0694 24.3763C23.702 30.5272 23.7507 30.2724 22.9434 30.2724C22.5861 30.2724 22.288 30.2512 22.2811 30.2254C22.2743 30.1996 22.1129 27.8272 21.9226 24.9536C21.7011 21.6048 21.4946 19.6298 21.3481 19.4532C21.1785 19.2488 20.6866 19.1775 19.4458 19.1775C17.8877 19.1775 17.7604 19.2067 17.5975 19.6006C17.5014 19.8332 17.2859 22.2625 17.1187 24.9986C16.9516 27.7349 16.7731 30.0407 16.7223 30.1229C16.6715 30.2051 16.3067 30.2724 15.9116 30.2724H15.1933L15.0793 27.5927C15.0167 26.1188 14.9123 22.0359 14.8475 18.5193C14.7766 14.6801 14.6536 12.0318 14.5394 11.8906C14.4054 11.7246 13.6398 11.6555 11.9346 11.6555C9.8243 11.6555 9.49822 11.6971 9.35042 11.9846ZM13.329 13.1129C13.3752 13.1904 13.4751 17.083 13.5509 21.7632L13.6889 30.2724L12.7729 30.2765C11.0536 30.2844 10.0926 31.8398 10.9167 33.2812C11.1279 33.6507 11.1869 34.6876 11.1922 38.1235L11.1988 42.4956H10.5282H9.85777L9.96402 40.098C10.0223 38.7794 10.1562 33.0884 10.2615 27.4517C10.3668 21.8149 10.5022 16.2511 10.5624 15.0874L10.6716 12.9719H11.9585C12.6661 12.9719 13.2829 13.0354 13.329 13.1129ZM20.2279 20.5409C20.2296 20.5668 20.3556 22.4496 20.5083 24.725C20.6608 27.0004 20.7864 29.1795 20.7874 29.5672L20.7893 30.2724H19.4552H18.1212L18.2303 29.3792C18.2903 28.8878 18.4307 26.7935 18.5428 24.725C18.6547 22.6564 18.7803 20.8583 18.8217 20.7289C18.8815 20.542 20.2172 20.3633 20.2279 20.5409ZM27.3072 23.7847C27.4272 25.543 27.5743 27.7221 27.6343 28.627L27.7429 30.2724H26.4287H25.1144V29.6518C25.1144 29.3105 25.1949 27.9353 25.293 26.596C25.3914 25.2566 25.5266 23.3311 25.5935 22.317L25.7152 20.4734L26.402 20.5305L27.0889 20.5879L27.3072 23.7847ZM34.0341 21.6692C34.1859 23.2713 34.5169 28.689 34.5169 29.5727V30.2895L33.2475 30.234C32.0263 30.1805 31.9791 30.1605 32.0021 29.7083C32.2249 25.3045 32.4934 20.9128 32.551 20.7289C32.5914 20.5997 32.9167 20.4939 33.2737 20.4939H33.9228L34.0341 21.6692ZM40.6973 31.913C41.0484 32.5405 40.6198 32.9051 39.5312 32.9051C38.4984 32.9051 38.0898 33.1272 38.0898 33.6883C38.0898 34.1208 38.6494 34.4095 39.4877 34.4095H40.1583V38.4525V42.4956H26.4307H12.7031V38.4525V34.4095H24.3203C34.5304 34.4095 35.9881 34.374 36.3554 34.1167C36.8201 33.7914 36.8483 33.6908 36.5893 33.2812C36.435 33.0369 34.7961 32.9865 24.3424 32.9051C13.347 32.8193 12.2563 32.7832 12.0764 32.4978C11.9329 32.2704 11.9466 32.1027 12.1258 31.8866C12.3474 31.6198 13.835 31.5888 26.4445 31.5888C39.5699 31.5888 40.5278 31.6106 40.6973 31.913ZM8.75411 35.0677V35.7258H7.46071C6.03248 35.7258 5.49259 36.0342 5.87 36.6349C6.0163 36.8679 6.39917 36.9621 7.36349 37.0021L8.66009 37.0561L8.60349 39.7759L8.54669 42.4956H6.11183H3.67679V39.846C3.67679 37.3555 3.70123 37.1766 4.08429 36.8665C4.58036 36.4647 4.44816 35.9835 3.77081 35.7258C3.24202 35.5248 3.0141 35.1254 3.18071 34.6916C3.27004 34.4588 3.76592 34.4095 6.02157 34.4095H8.75411V35.0677Z"/>
</mask>
<path fill-rule="evenodd" clip-rule="evenodd" d="M33.3658 0.430511C32.6811 0.664068 31.8287 1.07796 31.4714 1.35026L30.8221 1.84558L29.6746 1.27692C28.0581 0.475643 26.2696 0.449692 24.6072 1.20321C23.9662 1.49374 23.3035 1.88432 23.1344 2.07105C22.8792 2.35294 22.7307 2.3772 22.2611 2.21359C21.9499 2.10509 21.1563 2.05958 20.4976 2.11242C19.0207 2.23089 17.8305 2.87948 17.0668 3.98182C16.5749 4.69189 16.4453 4.76749 15.663 4.8004C14.6498 4.84309 13.6 5.42905 13.1392 6.20907C12.9568 6.51785 12.5943 6.80162 12.2994 6.86631C11.4859 7.04495 10.8492 7.65574 10.7117 8.38913C10.4813 9.61653 11.453 10.0016 11.985 8.89385C12.1903 8.46623 12.3648 8.36337 12.8944 8.35772C13.7021 8.34907 14.0195 8.16629 14.0195 7.7099C14.0195 7.51696 14.247 7.08877 14.5252 6.75837C15.0209 6.1694 15.0539 6.15981 16.2069 6.2779L17.3831 6.39844L17.7453 5.59509C18.1789 4.6336 18.9575 3.88667 19.83 3.595C20.6853 3.30917 21.1759 3.32553 22.203 3.67417L23.0656 3.96715L23.7486 3.36746C25.5264 1.80666 28.0589 1.61522 29.813 2.90919C30.6167 3.50229 30.9597 3.50211 31.6653 2.90844C31.9744 2.64818 32.7214 2.20588 33.325 1.92513C34.2493 1.49581 34.6758 1.41532 36.0212 1.41664C37.3793 1.41815 37.7974 1.49957 38.801 1.95822C40.3338 2.65852 41.8453 4.25374 42.4149 5.77242C42.9935 7.3148 42.8969 9.6154 42.1898 11.1328C41.5713 12.46 40.3014 13.7218 38.883 14.4184C37.9337 14.8845 37.5984 14.9464 36.0212 14.9464C34.4557 14.9464 34.1054 14.8828 33.1881 14.4325C32.0858 13.8909 31.0445 12.9941 30.0851 11.7595C29.5083 11.0175 29.508 11.0173 28.8628 11.2894C28.5062 11.4397 27.67 11.5555 26.9949 11.548C25.6336 11.5331 24.8182 11.2048 23.8432 10.2794L23.2299 9.69739L22.0563 10.0101C20.5903 10.4009 19.6314 10.2017 18.5599 9.28462C17.6823 8.53355 17.612 8.5234 16.9423 9.05012C16.6603 9.27202 16.1621 9.50821 15.8357 9.57497C15.3304 9.67839 15.2418 9.77938 15.2418 10.2529C15.2418 10.7439 15.3142 10.8163 15.8562 10.8686C16.1941 10.9011 16.7263 10.8001 17.039 10.6442C17.5729 10.3777 17.6479 10.3883 18.2803 10.8174C19.4383 11.6031 20.8077 11.8396 22.0825 11.4741C22.6353 11.3155 22.8147 11.3611 23.5032 11.8348C24.781 12.7139 26.0473 13.0409 27.692 12.9166L29.1142 12.809L30.0464 13.829C30.6917 14.5351 31.4184 15.0664 32.4088 15.5559C33.8139 16.2501 33.8779 16.2627 36.0212 16.2627C38.1646 16.2627 38.2286 16.2501 39.6337 15.5559C45.2043 12.8026 45.8577 5.25698 40.8456 1.56294C38.741 0.0117259 35.8697 -0.422856 33.3658 0.430511ZM9.35042 11.9846C9.25733 12.1657 9.12626 15.3178 9.05913 18.9895C8.992 22.6611 8.88255 27.2941 8.81598 29.2852L8.69507 32.9051H6.04188C2.87852 32.9051 2.24912 33.1204 1.81228 34.3523C1.56669 35.0449 1.5774 35.1675 1.95331 35.9438C2.31606 36.693 2.36044 37.0965 2.36044 39.6403V42.4956H1.68986C1.32109 42.4956 0.855672 42.5832 0.655587 42.6902C0.187721 42.9407 0.187721 43.5549 0.655587 43.8054C0.900239 43.9363 8.00963 44 22.3619 44C41.5134 44 43.7346 43.9697 44 43.7046C44.6798 43.0246 44.0626 42.4956 42.5896 42.4956H41.4747V38.1383C41.4747 34.2523 41.5102 33.7415 41.8038 33.4173C42.014 33.1849 42.1328 32.7498 42.1328 32.2118C42.1328 31.4985 42.039 31.286 41.5187 30.8211C40.9069 30.2747 40.8949 30.2724 38.4629 30.2724C37.12 30.2724 36.018 30.2512 36.0141 30.2254C36.0102 30.1996 35.8511 27.7779 35.6604 24.844C35.3996 20.8303 35.2501 19.469 35.0564 19.3464C34.9148 19.2567 34.0567 19.182 33.1495 19.1803C31.6137 19.1777 31.4881 19.2067 31.3289 19.6006C31.2346 19.8332 31.0643 21.7162 30.9503 23.7847C30.8362 25.8533 30.6917 28.1591 30.6293 28.9091L30.5159 30.2724H29.8948C29.5531 30.2724 29.2361 30.2089 29.19 30.1314C29.1439 30.0539 28.9592 27.6632 28.7797 24.819C28.5999 21.9747 28.3684 19.5419 28.265 19.4126C27.9893 19.0675 24.8564 19.0908 24.5664 19.44C24.4331 19.6008 24.2403 21.5136 24.0694 24.3763C23.702 30.5272 23.7507 30.2724 22.9434 30.2724C22.5861 30.2724 22.288 30.2512 22.2811 30.2254C22.2743 30.1996 22.1129 27.8272 21.9226 24.9536C21.7011 21.6048 21.4946 19.6298 21.3481 19.4532C21.1785 19.2488 20.6866 19.1775 19.4458 19.1775C17.8877 19.1775 17.7604 19.2067 17.5975 19.6006C17.5014 19.8332 17.2859 22.2625 17.1187 24.9986C16.9516 27.7349 16.7731 30.0407 16.7223 30.1229C16.6715 30.2051 16.3067 30.2724 15.9116 30.2724H15.1933L15.0793 27.5927C15.0167 26.1188 14.9123 22.0359 14.8475 18.5193C14.7766 14.6801 14.6536 12.0318 14.5394 11.8906C14.4054 11.7246 13.6398 11.6555 11.9346 11.6555C9.8243 11.6555 9.49822 11.6971 9.35042 11.9846ZM13.329 13.1129C13.3752 13.1904 13.4751 17.083 13.5509 21.7632L13.6889 30.2724L12.7729 30.2765C11.0536 30.2844 10.0926 31.8398 10.9167 33.2812C11.1279 33.6507 11.1869 34.6876 11.1922 38.1235L11.1988 42.4956H10.5282H9.85777L9.96402 40.098C10.0223 38.7794 10.1562 33.0884 10.2615 27.4517C10.3668 21.8149 10.5022 16.2511 10.5624 15.0874L10.6716 12.9719H11.9585C12.6661 12.9719 13.2829 13.0354 13.329 13.1129ZM20.2279 20.5409C20.2296 20.5668 20.3556 22.4496 20.5083 24.725C20.6608 27.0004 20.7864 29.1795 20.7874 29.5672L20.7893 30.2724H19.4552H18.1212L18.2303 29.3792C18.2903 28.8878 18.4307 26.7935 18.5428 24.725C18.6547 22.6564 18.7803 20.8583 18.8217 20.7289C18.8815 20.542 20.2172 20.3633 20.2279 20.5409ZM27.3072 23.7847C27.4272 25.543 27.5743 27.7221 27.6343 28.627L27.7429 30.2724H26.4287H25.1144V29.6518C25.1144 29.3105 25.1949 27.9353 25.293 26.596C25.3914 25.2566 25.5266 23.3311 25.5935 22.317L25.7152 20.4734L26.402 20.5305L27.0889 20.5879L27.3072 23.7847ZM34.0341 21.6692C34.1859 23.2713 34.5169 28.689 34.5169 29.5727V30.2895L33.2475 30.234C32.0263 30.1805 31.9791 30.1605 32.0021 29.7083C32.2249 25.3045 32.4934 20.9128 32.551 20.7289C32.5914 20.5997 32.9167 20.4939 33.2737 20.4939H33.9228L34.0341 21.6692ZM40.6973 31.913C41.0484 32.5405 40.6198 32.9051 39.5312 32.9051C38.4984 32.9051 38.0898 33.1272 38.0898 33.6883C38.0898 34.1208 38.6494 34.4095 39.4877 34.4095H40.1583V38.4525V42.4956H26.4307H12.7031V38.4525V34.4095H24.3203C34.5304 34.4095 35.9881 34.374 36.3554 34.1167C36.8201 33.7914 36.8483 33.6908 36.5893 33.2812C36.435 33.0369 34.7961 32.9865 24.3424 32.9051C13.347 32.8193 12.2563 32.7832 12.0764 32.4978C11.9329 32.2704 11.9466 32.1027 12.1258 31.8866C12.3474 31.6198 13.835 31.5888 26.4445 31.5888C39.5699 31.5888 40.5278 31.6106 40.6973 31.913ZM8.75411 35.0677V35.7258H7.46071C6.03248 35.7258 5.49259 36.0342 5.87 36.6349C6.0163 36.8679 6.39917 36.9621 7.36349 37.0021L8.66009 37.0561L8.60349 39.7759L8.54669 42.4956H6.11183H3.67679V39.846C3.67679 37.3555 3.70123 37.1766 4.08429 36.8665C4.58036 36.4647 4.44816 35.9835 3.77081 35.7258C3.24202 35.5248 3.0141 35.1254 3.18071 34.6916C3.27004 34.4588 3.76592 34.4095 6.02157 34.4095H8.75411V35.0677Z" fill="#FF0015" stroke="#FAFAFA" stroke-width="0.377104" mask="url(#path-1-inside-1_263_1651)"/>
</g>
<defs>
<clipPath id="clip0_263_1651">
<rect width="44" height="44" fill="white"/>
</clipPath>
</defs>
</svg>
