<svg width="44" height="44" viewBox="0 0 44 44" fill="none" xmlns="http://www.w3.org/2000/svg">
<mask id="path-1-inside-1_263_1656" fill="white">
<path fill-rule="evenodd" clip-rule="evenodd" d="M6.36645 6.51067C6.25973 6.79159 6.17233 7.185 6.17233 7.38489C6.17233 8.3921 5.05542 11.8965 4.14835 13.7352C3.33884 15.3763 2.84987 16.0779 1.74868 17.1791C0.383503 18.5443 0.369766 18.5685 0.687518 19.0537C1.08829 19.6653 1.32183 19.5582 2.73678 18.1142C4.01177 16.8131 4.64011 15.9049 5.6087 13.9637L6.3539 12.4705L6.36266 18.5926L6.37142 24.7147H3.42485C1.39848 24.7147 0.403611 24.7894 0.23936 24.9537C-0.0797865 25.2728 -0.0797865 28.1385 0.23936 28.4577C0.403611 28.6219 1.39848 28.6966 3.42485 28.6966H6.37142V31.0857V33.4748H5.761C4.64549 33.4748 4.38049 33.7627 4.38049 34.975V36.063H2.48911H0.597727V36.7599V37.4567H22.0002H43.4027V36.7599V36.063H41.5113H39.62V35.0079C39.62 33.7826 39.3922 33.4748 38.4851 33.4748H37.8281V31.0857V28.6966H40.6752C42.6241 28.6966 43.5976 28.6212 43.7611 28.4577C43.908 28.3108 44 27.5908 44 26.5876C44 25.284 43.9367 24.9322 43.685 24.8356C43.5118 24.7691 42.1232 24.7147 40.5991 24.7147H37.8281L37.8373 18.6922L37.8464 12.6696L38.4125 13.8924C39.248 15.697 40.4508 17.3688 41.7415 18.5194C42.3704 19.0798 42.9359 19.5383 42.9982 19.5383C43.0605 19.5383 43.256 19.3 43.4328 19.0085C43.7529 18.4811 43.7493 18.474 42.5934 17.4038C40.2025 15.1903 38.7338 11.8973 37.7041 6.44179C37.6197 5.99502 37.5798 5.98865 35.1983 6.0436L32.7783 6.09955L32.3363 8.28957C31.5435 12.2175 30.2088 15.0398 28.1829 17.072C26.838 18.421 25.861 18.9952 24.1544 19.4398C19.8032 20.573 15.9155 18.4704 13.5505 13.7045C12.6036 11.7962 11.5478 8.39648 11.5478 7.25548C11.5478 6.9885 11.4551 6.59688 11.3418 6.38505C11.1564 6.03862 10.906 6 8.84814 6C6.57589 6 6.55937 6.00338 6.36645 6.51067ZM10.1066 16.0044L10.1584 24.7147H8.86228H7.56598V16.0874C7.56598 11.3423 7.62969 7.39644 7.70734 7.31859C7.78518 7.24075 8.34503 7.20352 8.95167 7.23557L10.0546 7.2941L10.1066 16.0044ZM36.4345 15.9547V24.7147H35.2399H34.0453V15.9547V7.19456H35.2399H36.4345V15.9547ZM12.2202 14.079C12.6144 14.909 13.1171 15.8412 13.3373 16.1506C13.7066 16.6692 13.7379 17.0244 13.7379 20.7138V24.7147H12.5433H11.3488V18.6424C11.3488 15.3026 11.3836 12.5701 11.4262 12.5701C11.4688 12.5701 11.8262 13.2492 12.2202 14.079ZM32.6517 18.6424V24.7147H31.4571H30.2626V20.8215V16.9282L31.0452 15.6307C31.4757 14.9172 31.9907 13.9368 32.19 13.4525C32.3891 12.9679 32.5746 12.5713 32.6019 12.5709C32.6292 12.5705 32.6517 15.3026 32.6517 18.6424ZM17.0474 19.7848C17.5069 19.9942 17.5206 20.0691 17.5206 22.3577V24.7147H16.3261H15.1315V21.5086V18.3026L15.8528 18.9359C16.2496 19.2843 16.7872 19.6661 17.0474 19.7848ZM28.8689 21.6288V24.7147H27.6744H26.4798L26.4886 22.3754L26.4973 20.0361L27.6334 19.306C28.2581 18.9042 28.7919 18.5683 28.8192 18.5594C28.8464 18.5502 28.8689 19.9315 28.8689 21.6288ZM20.955 21.0594C21.2534 21.1438 21.3034 21.4128 21.3034 22.9362V24.7147H20.1088H18.9143V22.7063V20.6978L19.7604 20.8294C20.2259 20.9019 20.7633 21.0054 20.955 21.0594ZM25.0862 22.7238V24.7147H23.8916H22.6971V22.9267C22.6971 21.2334 22.7207 21.1337 23.145 21.0431C25.2572 20.5923 25.0862 20.4444 25.0862 22.7238ZM42.6064 26.7057V27.303H22.0002H1.3941V26.7057V26.1084H22.0002H42.6064V26.7057ZM10.1542 31.0857V33.4748H8.86009H7.56598V31.0857V28.6966H8.86009H10.1542V31.0857ZM32.6517 31.0857V33.4748H31.9947C31.0876 33.4748 30.8599 33.7826 30.8599 35.0079V36.063H22.0998H13.3397V34.975C13.3397 33.7627 13.0747 33.4748 11.9592 33.4748H11.3488V31.0857V28.6966H22.0002H32.6517V31.0857ZM36.4345 31.0857V33.4748H35.2399H34.0453V31.0857V28.6966H35.2399H36.4345V31.0857ZM11.946 35.4658V36.063H8.86009H5.77415V35.4658V34.8685H8.86009H11.946V35.4658ZM38.2263 35.4658V36.063H35.1404H32.0544V35.4658V34.8685H35.1404H38.2263V35.4658Z"/>
</mask>
<path fill-rule="evenodd" clip-rule="evenodd" d="M6.36645 6.51067C6.25973 6.79159 6.17233 7.185 6.17233 7.38489C6.17233 8.3921 5.05542 11.8965 4.14835 13.7352C3.33884 15.3763 2.84987 16.0779 1.74868 17.1791C0.383503 18.5443 0.369766 18.5685 0.687518 19.0537C1.08829 19.6653 1.32183 19.5582 2.73678 18.1142C4.01177 16.8131 4.64011 15.9049 5.6087 13.9637L6.3539 12.4705L6.36266 18.5926L6.37142 24.7147H3.42485C1.39848 24.7147 0.403611 24.7894 0.23936 24.9537C-0.0797865 25.2728 -0.0797865 28.1385 0.23936 28.4577C0.403611 28.6219 1.39848 28.6966 3.42485 28.6966H6.37142V31.0857V33.4748H5.761C4.64549 33.4748 4.38049 33.7627 4.38049 34.975V36.063H2.48911H0.597727V36.7599V37.4567H22.0002H43.4027V36.7599V36.063H41.5113H39.62V35.0079C39.62 33.7826 39.3922 33.4748 38.4851 33.4748H37.8281V31.0857V28.6966H40.6752C42.6241 28.6966 43.5976 28.6212 43.7611 28.4577C43.908 28.3108 44 27.5908 44 26.5876C44 25.284 43.9367 24.9322 43.685 24.8356C43.5118 24.7691 42.1232 24.7147 40.5991 24.7147H37.8281L37.8373 18.6922L37.8464 12.6696L38.4125 13.8924C39.248 15.697 40.4508 17.3688 41.7415 18.5194C42.3704 19.0798 42.9359 19.5383 42.9982 19.5383C43.0605 19.5383 43.256 19.3 43.4328 19.0085C43.7529 18.4811 43.7493 18.474 42.5934 17.4038C40.2025 15.1903 38.7338 11.8973 37.7041 6.44179C37.6197 5.99502 37.5798 5.98865 35.1983 6.0436L32.7783 6.09955L32.3363 8.28957C31.5435 12.2175 30.2088 15.0398 28.1829 17.072C26.838 18.421 25.861 18.9952 24.1544 19.4398C19.8032 20.573 15.9155 18.4704 13.5505 13.7045C12.6036 11.7962 11.5478 8.39648 11.5478 7.25548C11.5478 6.9885 11.4551 6.59688 11.3418 6.38505C11.1564 6.03862 10.906 6 8.84814 6C6.57589 6 6.55937 6.00338 6.36645 6.51067ZM10.1066 16.0044L10.1584 24.7147H8.86228H7.56598V16.0874C7.56598 11.3423 7.62969 7.39644 7.70734 7.31859C7.78518 7.24075 8.34503 7.20352 8.95167 7.23557L10.0546 7.2941L10.1066 16.0044ZM36.4345 15.9547V24.7147H35.2399H34.0453V15.9547V7.19456H35.2399H36.4345V15.9547ZM12.2202 14.079C12.6144 14.909 13.1171 15.8412 13.3373 16.1506C13.7066 16.6692 13.7379 17.0244 13.7379 20.7138V24.7147H12.5433H11.3488V18.6424C11.3488 15.3026 11.3836 12.5701 11.4262 12.5701C11.4688 12.5701 11.8262 13.2492 12.2202 14.079ZM32.6517 18.6424V24.7147H31.4571H30.2626V20.8215V16.9282L31.0452 15.6307C31.4757 14.9172 31.9907 13.9368 32.19 13.4525C32.3891 12.9679 32.5746 12.5713 32.6019 12.5709C32.6292 12.5705 32.6517 15.3026 32.6517 18.6424ZM17.0474 19.7848C17.5069 19.9942 17.5206 20.0691 17.5206 22.3577V24.7147H16.3261H15.1315V21.5086V18.3026L15.8528 18.9359C16.2496 19.2843 16.7872 19.6661 17.0474 19.7848ZM28.8689 21.6288V24.7147H27.6744H26.4798L26.4886 22.3754L26.4973 20.0361L27.6334 19.306C28.2581 18.9042 28.7919 18.5683 28.8192 18.5594C28.8464 18.5502 28.8689 19.9315 28.8689 21.6288ZM20.955 21.0594C21.2534 21.1438 21.3034 21.4128 21.3034 22.9362V24.7147H20.1088H18.9143V22.7063V20.6978L19.7604 20.8294C20.2259 20.9019 20.7633 21.0054 20.955 21.0594ZM25.0862 22.7238V24.7147H23.8916H22.6971V22.9267C22.6971 21.2334 22.7207 21.1337 23.145 21.0431C25.2572 20.5923 25.0862 20.4444 25.0862 22.7238ZM42.6064 26.7057V27.303H22.0002H1.3941V26.7057V26.1084H22.0002H42.6064V26.7057ZM10.1542 31.0857V33.4748H8.86009H7.56598V31.0857V28.6966H8.86009H10.1542V31.0857ZM32.6517 31.0857V33.4748H31.9947C31.0876 33.4748 30.8599 33.7826 30.8599 35.0079V36.063H22.0998H13.3397V34.975C13.3397 33.7627 13.0747 33.4748 11.9592 33.4748H11.3488V31.0857V28.6966H22.0002H32.6517V31.0857ZM36.4345 31.0857V33.4748H35.2399H34.0453V31.0857V28.6966H35.2399H36.4345V31.0857ZM11.946 35.4658V36.063H8.86009H5.77415V35.4658V34.8685H8.86009H11.946V35.4658ZM38.2263 35.4658V36.063H35.1404H32.0544V35.4658V34.8685H35.1404H38.2263V35.4658Z" fill="#FF0015" stroke="#FAFAFA" stroke-width="0.399251" mask="url(#path-1-inside-1_263_1656)"/>
</svg>
