<svg width="44" height="44" viewBox="0 0 44 44" fill="none" xmlns="http://www.w3.org/2000/svg">
<path fill-rule="evenodd" clip-rule="evenodd" d="M13.4042 1.44216C12.9577 1.82616 12.7279 2.48818 11.8268 5.98793C11.2396 8.26765 10.8197 10.2864 10.8797 10.5401C10.9391 10.7908 11.3822 11.874 11.8645 12.9472L12.7414 14.8982L12.3265 15.4809C12.0984 15.8015 11.8483 16.3001 11.7711 16.5892C11.6534 17.0294 10.8066 17.5809 6.56014 19.9824C0.514762 23.4014 0.21875 23.6206 0.21875 24.6784C0.21875 25.652 0.900713 26.4099 1.77682 26.4099C2.10588 26.4099 4.10152 25.9301 6.21154 25.3435C10.3672 24.1884 10.475 24.1297 11.6882 22.3685C12.0829 21.7953 12.4323 21.3528 12.4646 21.3851C12.4968 21.4173 12.3074 25.1345 12.0434 29.6457C11.7795 34.1566 11.5624 38.1763 11.5611 38.5782C11.5589 39.2252 11.4817 39.3409 10.8852 39.5902C10.2507 39.8552 10.2081 39.9322 10.152 40.9125L10.0924 41.9534L6.27977 42.0512C2.63006 42.1449 2.46719 42.1656 2.46719 42.54C2.46719 42.9285 2.5976 42.931 21.9211 42.931H41.3751L41.4368 42.4966C41.4978 42.067 41.4664 42.0616 38.7027 42.0078L35.9068 41.9534L35.7844 41.1999C35.6581 40.4214 35.3678 40.1042 34.7764 40.099C34.4823 40.0964 34.434 39.8966 34.433 38.6785C34.4324 37.8988 34.3754 36.5351 34.3063 35.648L34.1808 34.035H34.8598C35.3254 34.035 35.6789 33.8862 35.9833 33.5623C36.3771 33.1431 36.4463 32.795 36.5954 30.4829C36.6879 29.0493 36.7659 27.1284 36.7687 26.2143L36.774 24.5525L35.43 22.6847L34.086 20.8171L34.4066 19.782C34.7132 18.7931 34.9295 18.5692 39.2742 14.7389C42.2478 12.1176 43.8642 10.5585 43.9459 10.2334C44.1406 9.45698 43.7838 8.75293 42.9781 8.32455L42.2428 7.93352L38.7911 9.69317C36.8926 10.661 35.1017 11.6503 34.8112 11.8916C34.4948 12.1541 33.9478 13.1151 33.4474 14.2866C32.6384 16.1816 32.5926 16.243 31.9883 16.243C31.645 16.243 31.1092 16.3317 30.7974 16.4403C30.3094 16.61 29.4569 16.3791 24.6623 14.7784C21.5997 13.7558 18.95 12.9192 18.7743 12.9192C18.2552 12.9192 17.4639 13.662 17.329 14.2759C17.2514 14.6292 17.3149 15.0556 17.4958 15.3978C17.8731 16.1114 24.2499 20.2053 25.0097 20.2218C25.3004 20.2282 26.33 20.1637 27.2978 20.0788L29.0575 19.9244L29.5001 20.5234L29.943 21.1227L29.6368 28.6825C29.4685 32.8404 29.3764 36.3615 29.4323 36.5073C29.4882 36.653 29.7021 36.7723 29.9078 36.7723C30.3199 36.7723 30.395 35.9916 30.623 29.3426C30.6801 27.6758 30.7821 25.3883 30.8498 24.2592L30.9726 22.2062L32.0943 27.7599C33.0957 32.7176 33.2312 33.6776 33.3573 36.7048L33.4987 40.096H31.9232H30.3479L30.2892 38.9718C30.2384 37.9976 30.1784 37.8476 29.8396 37.8476C29.5668 37.8476 29.4325 37.9956 29.3957 38.3364C29.2368 39.8106 29.1328 40.096 28.7554 40.096C28.1869 40.096 27.5911 40.7964 27.5911 41.4647V42.0512H23.2897H18.9884V41.1714C18.9884 40.262 18.5084 39.5095 17.9287 39.5095C17.5977 39.5095 17.5011 38.6625 17.2268 33.3507C16.8729 26.5014 16.861 26.4099 16.3258 26.4099C15.7598 26.4099 15.7657 25.9942 16.2195 33.8027C16.4027 36.9549 16.5141 39.5724 16.467 39.6194C16.4201 39.6665 15.5045 39.705 14.4324 39.705H12.4833L12.6173 37.2122C12.691 35.8412 12.8759 32.7397 13.0284 30.3202C13.1809 27.9007 13.3657 24.6674 13.439 23.135C13.5121 21.6027 13.6515 20.3488 13.7487 20.3488C13.8457 20.3488 14.261 20.542 14.6712 20.7782L15.4171 21.2074L15.5897 23.0755C15.7449 24.7556 15.8016 24.9435 16.1534 24.9435C16.5018 24.9435 16.555 24.7806 16.6422 23.4484L16.7399 21.9532L20.6503 24.1943C23.9295 26.0738 24.6552 26.4177 25.1472 26.3252C25.9767 26.169 26.6135 25.3754 26.6135 24.4977C26.6135 23.8306 26.4114 23.5839 23.7297 20.9784C20.4647 17.8063 19.9495 17.419 18.9884 17.4141C17.854 17.4085 17.4749 17.2294 17.3578 16.644C17.2981 16.346 17.0248 15.8351 16.7503 15.5088L16.2511 14.9156V8.52574V2.13566L15.6796 1.56416C14.9728 0.85737 14.1362 0.812402 13.4042 1.44216ZM14.9664 2.27741C15.2321 2.54331 15.2735 3.38619 15.2735 8.53395V14.4833L14.4426 14.4814L13.6117 14.4792L12.7807 12.5424C12.3236 11.4773 11.9498 10.3632 11.9498 10.0666C11.9498 9.3907 13.7006 2.54605 13.9583 2.21465C14.2158 1.88364 14.5961 1.9073 14.9664 2.27741ZM42.946 9.61731C43.025 9.8662 42.972 10.128 42.8127 10.277C42.6672 10.4127 40.9645 11.9121 39.0289 13.609C37.0932 15.3059 35.2657 16.9189 34.9678 17.1934L34.4262 17.6925L33.9476 17.2122L33.4691 16.7318L34.3965 14.6788L35.324 12.6259L38.6427 10.9239C40.4681 9.98781 42.1536 9.21806 42.3884 9.21317C42.6557 9.2077 42.8641 9.35864 42.946 9.61731ZM24.3997 15.737L29.5177 17.4392L29.2647 18.0408C29.1257 18.3716 28.888 18.7116 28.7368 18.7962C28.5855 18.8809 27.6279 19.0099 26.6088 19.0829L24.7561 19.2158L22.7032 17.8802C19.3516 15.7 18.3363 14.9846 18.2607 14.7504C18.1666 14.4603 18.7803 13.8512 19.0625 13.9545C19.1831 13.9986 21.5848 14.8007 24.3997 15.737ZM15.8003 15.9327C16.2558 16.3245 16.3489 16.5597 16.3489 17.3183C16.3489 18.0769 16.2558 18.3121 15.8003 18.704C15.1611 19.2536 14.0265 19.337 13.3768 18.8819C12.7772 18.4619 12.4702 17.4221 12.7359 16.7111C13.2108 15.4402 14.7679 15.0447 15.8003 15.9327ZM33.0806 17.7921C33.4707 18.1821 33.6521 18.5595 33.6521 18.9802C33.6521 19.8511 32.735 20.7399 31.8364 20.7399C30.2775 20.7399 29.578 18.9184 30.7043 17.7921C31.4727 17.0237 32.3123 17.0237 33.0806 17.7921ZM12.3635 19.5668C12.3465 19.6205 11.7632 20.4675 11.0674 21.4492L9.8024 23.2337L5.79861 24.3618C2.42946 25.3112 1.74593 25.4495 1.48609 25.2338C0.74078 24.6154 1.1803 24.26 6.46493 21.2077L11.6358 18.2212L12.0151 18.8451C12.2237 19.1882 12.3805 19.513 12.3635 19.5668ZM19.7218 18.6519C19.9638 18.7865 21.3971 20.1224 22.9069 21.6209C25.7304 24.423 26.1167 25.0569 25.091 25.2023C24.7125 25.2561 21.1787 23.3621 16.3334 20.5088L15.7315 20.1541L16.529 19.2891C17.2643 18.4914 17.4027 18.4234 18.3041 18.4158C18.8417 18.4113 19.4797 18.5176 19.7218 18.6519ZM34.6282 23.2816L35.8189 24.9435L35.6867 28.0718C35.4964 32.5767 35.4298 32.946 34.7918 33.0199C34.4178 33.0633 34.2387 32.9745 34.1527 32.7032C33.9677 32.1203 32.0886 22.4444 32.0882 22.0733C32.088 21.7695 32.6313 21.5366 33.2026 21.5955C33.3317 21.6087 33.9732 22.3675 34.6282 23.2816ZM18.0108 41.1714V41.6602H14.5892H11.1677V41.1714V40.6826H14.5892H18.0108V41.1714ZM34.8252 41.5624V42.0512H31.7947H28.7642V41.5624V41.0736H31.7947H34.8252V41.5624Z" fill="#FF0015"/>
</svg>
