<svg width="44" height="44" viewBox="0 0 44 44" fill="none" xmlns="http://www.w3.org/2000/svg">
<mask id="path-1-inside-1_263_1662" fill="white">
<path fill-rule="evenodd" clip-rule="evenodd" d="M15.7203 0.21784C15.5964 0.341719 15.495 0.764034 15.495 1.15632C15.495 1.82057 15.4571 1.86956 14.943 1.86956C14.6393 1.86956 14.3257 1.97523 14.2459 2.10418C14.166 2.23332 13.6308 5.67509 13.0565 9.75278L12.0123 17.1668L10.1406 17.2606C9.11114 17.3122 8.08763 17.4582 7.86615 17.5851C7.35355 17.8789 7.04874 18.7526 7.04874 19.9287C7.04874 21.0113 7.301 21.5776 7.78319 21.5776C8.33614 21.5776 8.52646 21.1761 8.58728 19.8812L8.64415 18.6683H22.1582H35.6723L35.7232 22.3753L35.774 26.0823H31.3593H26.9445V25.0415C26.9445 24.1866 26.8621 23.9182 26.4837 23.54C26.0238 23.0799 26.0167 23.0792 22.0728 23.0792C17.3654 23.0792 17.372 23.0765 17.372 24.9561V26.0823H12.9611H8.5503V24.6879C8.5503 23.3463 8.30724 22.7038 7.79952 22.7038C7.2918 22.7038 7.04874 23.3463 7.04874 24.6879C7.04874 25.9571 7.01514 26.0823 6.67335 26.0823C6.41902 26.0823 6.29795 25.9571 6.29795 25.6945C6.29795 25.0988 5.94884 24.5807 5.54717 24.5807C5.1455 24.5807 4.79639 25.0988 4.79639 25.6945C4.79639 25.9548 4.67514 26.0823 4.42757 26.0823C4.22486 26.0823 3.97147 26.2456 3.86448 26.4453C3.61184 26.9174 3.61184 31.0658 3.86448 31.5378C4.03998 31.8658 4.27628 31.9009 6.30452 31.9009H8.5503V34.5286V37.1563L7.75259 37.1625C6.63337 37.171 5.27745 37.6866 3.8947 38.6296C3.09399 39.1756 2.34677 39.5108 1.58285 39.6666C0.371466 39.9138 0.0202874 40.2156 0.311403 40.7593C0.436221 40.9928 0.70913 41.0976 1.18982 41.0968C2.31768 41.0951 3.16269 40.7755 4.67664 39.7771C7.00632 38.2412 8.82509 38.171 10.8558 39.5389C12.8448 40.8787 13.1945 41.0015 15.0258 41.0015C16.8494 41.0015 17.2567 40.8583 19.3332 39.4883C21.2849 38.2003 23.1025 38.2598 25.2229 39.6807C26.784 40.7269 27.8201 41.0983 29.1735 41.0968C30.6712 41.0955 31.3974 40.8462 33.0187 39.7771C34.5514 38.7666 35.7709 38.4071 37.0134 38.5993C37.7749 38.7172 38.3892 39.014 40.0832 40.0821C41.2807 40.837 42.2651 41.1426 43.2394 41.0615C43.8669 41.0093 43.9309 40.9529 43.9309 40.4506C43.9309 39.9209 43.8817 39.8881 42.788 39.6904C41.9564 39.5399 41.2397 39.2236 40.1558 38.5282C38.5782 37.5161 37.618 37.1591 36.47 37.1575L35.7662 37.1563V34.5286V31.9009H37.8871C39.2866 31.9009 40.0847 31.8243 40.2333 31.6756C40.3869 31.5221 40.4586 30.6234 40.4586 28.8555V26.2606L39.9058 26.15C39.4579 26.0605 39.3421 25.9314 39.2958 25.4698C39.1788 24.3067 38.0185 24.3726 38.0185 25.5421C38.0185 25.9931 37.941 26.0823 37.5493 26.0823H37.08V22.2201V18.3579L36.5314 17.8092L35.9828 17.2606H33.4344H30.8861V16.6037V15.9467H32.6566C34.8971 15.9467 34.9625 15.829 33.8978 13.7115C33.4802 12.8807 33.1384 12.1281 33.1384 12.0385C33.1384 11.8711 40.5259 5.43578 40.7179 5.43578C40.7771 5.43578 40.8484 6.9349 40.8766 8.76737L40.9278 12.099L41.3758 12.1622C41.6223 12.1971 41.8954 12.1127 41.983 11.9745C42.0705 11.8366 42.1433 10.005 42.145 7.90454L42.1478 4.0855L43.0959 3.23298C44.1263 2.30652 44.2902 1.63907 43.5142 1.52871C43.015 1.45776 34.832 4.79574 34.5065 5.20303C34.2134 5.56998 34.5191 6.18656 34.9942 6.18656C35.1819 6.18656 36.2469 5.8046 37.361 5.3378C38.4752 4.871 39.4073 4.51213 39.4322 4.54009C39.4572 4.56825 37.8845 5.96489 35.9373 7.64402L32.3968 10.6969L31.9244 9.7646L31.452 8.83232L30.3091 8.77638L29.1662 8.72045L31.1993 7.87488C32.7777 7.21832 33.2449 6.94185 33.2882 6.63834C33.319 6.42343 33.2111 6.13701 33.0483 6.00187C32.7974 5.79371 32.1898 5.98873 29.0508 7.2857C26.057 8.52262 25.1644 8.81505 24.3837 8.81467C23.6763 8.81449 23.388 8.89369 23.3045 9.11123C23.2418 9.27453 23.1906 11.1749 23.1906 13.3344V17.2606H21.8803C20.6736 17.2606 20.5628 17.2272 20.4791 16.8383C20.429 16.6061 19.9614 13.3331 19.44 9.56508C18.9184 5.79709 18.4105 2.52424 18.3112 2.29188C18.181 1.98687 17.9732 1.86956 17.5636 1.86956C17.0433 1.86956 16.9966 1.81682 16.9966 1.22802C16.9966 0.87515 16.9454 0.452835 16.8827 0.28954C16.7485 -0.0603247 16.042 -0.10387 15.7203 0.21784ZM31.6875 12.2887C32.2792 13.477 32.763 14.4906 32.763 14.5411C32.763 14.5916 30.9048 14.6329 28.6337 14.6329H24.5044V12.3805V10.1282H27.5582H30.612L31.6875 12.2887ZM29.5371 16.6506L29.596 17.2606H27.0501H24.5044V16.5982V15.9358L26.9914 15.9882L29.4784 16.0406L29.5371 16.6506ZM25.4429 25.3315V26.0823H22.0644H18.6859V25.3315V24.5807H22.0644H25.4429V25.3315ZM39.1447 28.9916V30.587H22.1582H5.17178V28.9916V27.3962H22.1582H39.1447V28.9916ZM14.1812 35.7486C14.1812 40.2706 14.3073 40.1005 12.0232 38.6583C11.2062 38.1423 10.3862 37.6721 10.2009 37.6134C9.89683 37.5167 9.86417 37.2344 9.86417 34.7037V31.9009H12.0227H14.1812V35.7486ZM18.6859 32.619C18.6859 33.616 19.2491 34.1117 20.469 34.1883L21.4074 34.2471L21.4619 35.6775L21.5161 37.1081L20.7111 37.3166C20.2681 37.4313 19.4534 37.8013 18.9 38.1385C18.3469 38.4758 17.5867 38.9404 17.2108 39.1711C16.835 39.4015 16.2952 39.5917 16.0112 39.5934L15.495 39.5964V35.7486V31.9009H17.0905H18.6859V32.619ZM24.129 32.3701V32.8393H22.0644H19.9997V32.3701V31.9009H22.0644H24.129V32.3701ZM28.6337 33.2952C28.6337 34.6369 28.8768 35.2794 29.3845 35.2794C29.8922 35.2794 30.1353 34.6369 30.1353 33.2952V31.9009H32.1999H34.2646V34.7163C34.2646 36.2648 34.1918 37.5317 34.103 37.5317C34.014 37.5317 33.3075 37.9495 32.5329 38.4603C31.7583 38.971 30.902 39.4447 30.6301 39.5128L30.1353 39.6371V38.3844C30.1353 37.0019 29.9183 36.4055 29.4155 36.4055C28.8015 36.4055 28.6337 36.8134 28.6337 38.3048V39.7539L27.9635 39.5688C27.5948 39.4669 26.6731 38.9789 25.9151 38.4841C25.1572 37.9893 24.1497 37.4871 23.6761 37.3677L22.8152 37.1509V35.6521V34.1532H23.8338C24.7109 34.1532 24.9067 34.0843 25.2415 33.6586C25.4602 33.3808 25.6306 32.8872 25.6306 32.5325V31.9009H27.1322H28.6337V33.2952Z"/>
</mask>
<path fill-rule="evenodd" clip-rule="evenodd" d="M15.7203 0.21784C15.5964 0.341719 15.495 0.764034 15.495 1.15632C15.495 1.82057 15.4571 1.86956 14.943 1.86956C14.6393 1.86956 14.3257 1.97523 14.2459 2.10418C14.166 2.23332 13.6308 5.67509 13.0565 9.75278L12.0123 17.1668L10.1406 17.2606C9.11114 17.3122 8.08763 17.4582 7.86615 17.5851C7.35355 17.8789 7.04874 18.7526 7.04874 19.9287C7.04874 21.0113 7.301 21.5776 7.78319 21.5776C8.33614 21.5776 8.52646 21.1761 8.58728 19.8812L8.64415 18.6683H22.1582H35.6723L35.7232 22.3753L35.774 26.0823H31.3593H26.9445V25.0415C26.9445 24.1866 26.8621 23.9182 26.4837 23.54C26.0238 23.0799 26.0167 23.0792 22.0728 23.0792C17.3654 23.0792 17.372 23.0765 17.372 24.9561V26.0823H12.9611H8.5503V24.6879C8.5503 23.3463 8.30724 22.7038 7.79952 22.7038C7.2918 22.7038 7.04874 23.3463 7.04874 24.6879C7.04874 25.9571 7.01514 26.0823 6.67335 26.0823C6.41902 26.0823 6.29795 25.9571 6.29795 25.6945C6.29795 25.0988 5.94884 24.5807 5.54717 24.5807C5.1455 24.5807 4.79639 25.0988 4.79639 25.6945C4.79639 25.9548 4.67514 26.0823 4.42757 26.0823C4.22486 26.0823 3.97147 26.2456 3.86448 26.4453C3.61184 26.9174 3.61184 31.0658 3.86448 31.5378C4.03998 31.8658 4.27628 31.9009 6.30452 31.9009H8.5503V34.5286V37.1563L7.75259 37.1625C6.63337 37.171 5.27745 37.6866 3.8947 38.6296C3.09399 39.1756 2.34677 39.5108 1.58285 39.6666C0.371466 39.9138 0.0202874 40.2156 0.311403 40.7593C0.436221 40.9928 0.70913 41.0976 1.18982 41.0968C2.31768 41.0951 3.16269 40.7755 4.67664 39.7771C7.00632 38.2412 8.82509 38.171 10.8558 39.5389C12.8448 40.8787 13.1945 41.0015 15.0258 41.0015C16.8494 41.0015 17.2567 40.8583 19.3332 39.4883C21.2849 38.2003 23.1025 38.2598 25.2229 39.6807C26.784 40.7269 27.8201 41.0983 29.1735 41.0968C30.6712 41.0955 31.3974 40.8462 33.0187 39.7771C34.5514 38.7666 35.7709 38.4071 37.0134 38.5993C37.7749 38.7172 38.3892 39.014 40.0832 40.0821C41.2807 40.837 42.2651 41.1426 43.2394 41.0615C43.8669 41.0093 43.9309 40.9529 43.9309 40.4506C43.9309 39.9209 43.8817 39.8881 42.788 39.6904C41.9564 39.5399 41.2397 39.2236 40.1558 38.5282C38.5782 37.5161 37.618 37.1591 36.47 37.1575L35.7662 37.1563V34.5286V31.9009H37.8871C39.2866 31.9009 40.0847 31.8243 40.2333 31.6756C40.3869 31.5221 40.4586 30.6234 40.4586 28.8555V26.2606L39.9058 26.15C39.4579 26.0605 39.3421 25.9314 39.2958 25.4698C39.1788 24.3067 38.0185 24.3726 38.0185 25.5421C38.0185 25.9931 37.941 26.0823 37.5493 26.0823H37.08V22.2201V18.3579L36.5314 17.8092L35.9828 17.2606H33.4344H30.8861V16.6037V15.9467H32.6566C34.8971 15.9467 34.9625 15.829 33.8978 13.7115C33.4802 12.8807 33.1384 12.1281 33.1384 12.0385C33.1384 11.8711 40.5259 5.43578 40.7179 5.43578C40.7771 5.43578 40.8484 6.9349 40.8766 8.76737L40.9278 12.099L41.3758 12.1622C41.6223 12.1971 41.8954 12.1127 41.983 11.9745C42.0705 11.8366 42.1433 10.005 42.145 7.90454L42.1478 4.0855L43.0959 3.23298C44.1263 2.30652 44.2902 1.63907 43.5142 1.52871C43.015 1.45776 34.832 4.79574 34.5065 5.20303C34.2134 5.56998 34.5191 6.18656 34.9942 6.18656C35.1819 6.18656 36.2469 5.8046 37.361 5.3378C38.4752 4.871 39.4073 4.51213 39.4322 4.54009C39.4572 4.56825 37.8845 5.96489 35.9373 7.64402L32.3968 10.6969L31.9244 9.7646L31.452 8.83232L30.3091 8.77638L29.1662 8.72045L31.1993 7.87488C32.7777 7.21832 33.2449 6.94185 33.2882 6.63834C33.319 6.42343 33.2111 6.13701 33.0483 6.00187C32.7974 5.79371 32.1898 5.98873 29.0508 7.2857C26.057 8.52262 25.1644 8.81505 24.3837 8.81467C23.6763 8.81449 23.388 8.89369 23.3045 9.11123C23.2418 9.27453 23.1906 11.1749 23.1906 13.3344V17.2606H21.8803C20.6736 17.2606 20.5628 17.2272 20.4791 16.8383C20.429 16.6061 19.9614 13.3331 19.44 9.56508C18.9184 5.79709 18.4105 2.52424 18.3112 2.29188C18.181 1.98687 17.9732 1.86956 17.5636 1.86956C17.0433 1.86956 16.9966 1.81682 16.9966 1.22802C16.9966 0.87515 16.9454 0.452835 16.8827 0.28954C16.7485 -0.0603247 16.042 -0.10387 15.7203 0.21784ZM31.6875 12.2887C32.2792 13.477 32.763 14.4906 32.763 14.5411C32.763 14.5916 30.9048 14.6329 28.6337 14.6329H24.5044V12.3805V10.1282H27.5582H30.612L31.6875 12.2887ZM29.5371 16.6506L29.596 17.2606H27.0501H24.5044V16.5982V15.9358L26.9914 15.9882L29.4784 16.0406L29.5371 16.6506ZM25.4429 25.3315V26.0823H22.0644H18.6859V25.3315V24.5807H22.0644H25.4429V25.3315ZM39.1447 28.9916V30.587H22.1582H5.17178V28.9916V27.3962H22.1582H39.1447V28.9916ZM14.1812 35.7486C14.1812 40.2706 14.3073 40.1005 12.0232 38.6583C11.2062 38.1423 10.3862 37.6721 10.2009 37.6134C9.89683 37.5167 9.86417 37.2344 9.86417 34.7037V31.9009H12.0227H14.1812V35.7486ZM18.6859 32.619C18.6859 33.616 19.2491 34.1117 20.469 34.1883L21.4074 34.2471L21.4619 35.6775L21.5161 37.1081L20.7111 37.3166C20.2681 37.4313 19.4534 37.8013 18.9 38.1385C18.3469 38.4758 17.5867 38.9404 17.2108 39.1711C16.835 39.4015 16.2952 39.5917 16.0112 39.5934L15.495 39.5964V35.7486V31.9009H17.0905H18.6859V32.619ZM24.129 32.3701V32.8393H22.0644H19.9997V32.3701V31.9009H22.0644H24.129V32.3701ZM28.6337 33.2952C28.6337 34.6369 28.8768 35.2794 29.3845 35.2794C29.8922 35.2794 30.1353 34.6369 30.1353 33.2952V31.9009H32.1999H34.2646V34.7163C34.2646 36.2648 34.1918 37.5317 34.103 37.5317C34.014 37.5317 33.3075 37.9495 32.5329 38.4603C31.7583 38.971 30.902 39.4447 30.6301 39.5128L30.1353 39.6371V38.3844C30.1353 37.0019 29.9183 36.4055 29.4155 36.4055C28.8015 36.4055 28.6337 36.8134 28.6337 38.3048V39.7539L27.9635 39.5688C27.5948 39.4669 26.6731 38.9789 25.9151 38.4841C25.1572 37.9893 24.1497 37.4871 23.6761 37.3677L22.8152 37.1509V35.6521V34.1532H23.8338C24.7109 34.1532 24.9067 34.0843 25.2415 33.6586C25.4602 33.3808 25.6306 32.8872 25.6306 32.5325V31.9009H27.1322H28.6337V33.2952Z" fill="#FF0015" stroke="#FAFAFA" stroke-width="0.376395" mask="url(#path-1-inside-1_263_1662)"/>
<path d="M19.5 17H13L15 3H17.5L19.5 17Z" fill="#FAFAFA"/>
</svg>
