<svg width="52" height="63" viewBox="0 0 52 63" fill="none" xmlns="http://www.w3.org/2000/svg">
<path d="M35.023 0.683105C35.9678 0.683105 36.8688 0.866212 37.7404 1.23242C38.612 1.59131 39.381 2.11133 40.0476 2.78516C40.7141 3.45898 41.2268 4.24268 41.5857 5.12158C41.9446 6.00049 42.1277 6.91601 42.1277 7.86816C42.1277 8.82764 41.9446 9.74316 41.5857 10.6221C41.2268 11.501 40.7141 12.2773 40.0476 12.9512C39.381 13.625 38.612 14.145 37.7404 14.5112C36.8688 14.8774 35.9678 15.0605 35.023 15.0605C34.0781 15.0605 33.1772 14.8774 32.3056 14.5112C31.434 14.145 30.6649 13.625 29.9984 12.9512C29.3392 12.2773 28.8265 11.501 28.4603 10.6221C28.1014 9.74316 27.9256 8.82764 27.9256 7.86816C27.9256 6.91601 28.1014 6.00049 28.4603 5.12158C28.8265 4.24268 29.3392 3.45898 29.9984 2.78516C30.6649 2.11133 31.434 1.59131 32.3056 1.23242C33.1772 0.866212 34.0781 0.683105 35.023 0.683105ZM25.362 7.36279C25.3401 7.53125 25.3401 7.69971 25.3401 7.86816C25.3401 9.69922 25.8308 11.3984 26.7097 12.8633L26.7024 12.8706L26.7097 12.8779L23.9997 14.9287L28.0574 17.6753H40.216L44.911 14.709L43.1678 13.1636C44.1419 11.6401 44.7059 9.81641 44.7059 7.86816C44.7059 7.76563 44.7059 7.66309 44.6913 7.56055L50.9317 13.0903C51.5396 13.6323 51.8619 14.4453 51.796 15.2656C51.7301 16.0933 51.2906 16.833 50.5948 17.2798L40.6848 23.5493L40.6921 23.6079L32.8037 39.2671C31.1483 42.5044 29.8592 43.8154 25.9846 43.8154C22.11 43.8154 13.2547 37.7876 13.2547 37.7876L5.67389 45.4707C5.04398 46.1152 4.21632 46.4302 3.38866 46.4302C2.56099 46.4302 1.74065 46.1152 1.10342 45.4707C-0.149058 44.189 -0.149058 42.1309 1.10342 40.8491L10.1418 31.7012C11.0354 30.8003 12.3538 30.5073 13.5257 30.9395L20.8209 33.3564L25.9846 22.7876L18.4258 17.4482C17.0488 16.6865 16.1479 14.3354 17.979 12.9658L25.362 7.36279ZM41.2195 28.3174L37.6085 47.8291V60.8076C37.6085 61.5254 37.0299 62.1113 36.3121 62.1113C35.6016 62.1113 35.023 61.5254 35.023 60.8076V49.0449H20.8209V60.8076C20.8209 61.5254 20.2422 62.1113 19.5318 62.1113C18.814 62.1113 18.2353 61.5254 18.2353 60.8076V47.7339C18.2353 47.0088 18.814 46.4302 19.5318 46.4302H35.25L37.0738 36.5352L41.2195 28.3174ZM13.6575 41.0981C14.9833 41.8892 16.7265 42.8853 18.521 43.8154H15.6571V58.8447C15.6571 60.6465 14.2069 62.1113 12.427 62.1113C10.6472 62.1113 9.19695 60.6465 9.19695 58.8447V45.6025L13.6575 41.0981Z" fill="white"/>
</svg>
