<svg width="64" height="69" viewBox="0 0 64 69" fill="none" xmlns="http://www.w3.org/2000/svg">
<path fill-rule="evenodd" clip-rule="evenodd" d="M13.9238 66.5552H1.10599C0.512712 66.5552 0.0292969 67.0459 0.0292969 67.6392C0.0292969 68.2398 0.512712 68.7232 1.10599 68.7232H53.9666C54.5526 68.7232 55.036 68.2398 55.036 67.6392C55.036 67.0459 54.5526 66.5552 53.9666 66.5552H37.8455C44.1299 63.3033 48.4293 56.6968 48.4293 49.0869V33.0176C48.4293 32.4243 47.9459 31.9336 47.3526 31.9336H4.40932C3.81604 31.9336 3.33263 32.4243 3.33263 33.0176V49.0869C3.33263 56.6968 7.63208 63.3033 13.9238 66.5552ZM58.9179 68.7232H62.2213C62.8145 68.7232 63.298 68.2398 63.298 67.6392C63.298 67.0459 62.8145 66.5552 62.2213 66.5552H58.9179C58.3247 66.5552 57.8486 67.0459 57.8486 67.6392C57.8486 68.2398 58.3247 68.7232 58.9179 68.7232ZM28.9389 66.5552H22.823C13.2426 66.5552 5.47869 58.7329 5.47869 49.0869V34.1016H46.2832V49.0869C46.2832 58.7329 38.5193 66.5552 28.9389 66.5552ZM51.2199 37.273C51.674 36.9873 52.9851 36.5699 54.4793 36.4673C55.9222 36.3721 57.5556 36.5625 58.7129 37.6465C59.731 38.5913 60.3242 40.1953 60.2437 42.7295C60.1191 46.2378 59.2768 48.2447 57.9584 49.336C57.0209 50.105 55.871 50.3833 54.699 50.4566C53.3587 50.5445 51.989 50.376 50.7658 50.2515C50.1799 50.1929 49.6525 50.625 49.5939 51.2183C49.528 51.8116 49.9601 52.3462 50.5534 52.4048C53.3513 52.6905 56.8598 53.0347 59.3135 51.0132C60.9688 49.6436 62.2359 47.1973 62.3824 42.8028C62.4996 39.419 61.5328 37.3242 60.1777 36.0572C58.5664 34.5557 56.3324 34.1748 54.3328 34.3067C52.3918 34.4385 50.6926 35.0537 50.0993 35.4273C49.5939 35.7349 49.4328 36.4087 49.7477 36.9141C50.0553 37.4195 50.7145 37.5806 51.2199 37.273ZM40.4969 39.5069V49.4971C40.4969 50.0977 40.9803 50.5811 41.5736 50.5811C42.1669 50.5811 42.6503 50.0977 42.6503 49.4971V39.5069C42.6503 38.9136 42.1669 38.4302 41.5736 38.4302C40.9803 38.4302 40.4969 38.9136 40.4969 39.5069ZM11.7704 10.8545C10.7743 12.649 9.71223 14.7437 9.99056 16.8091C10.181 18.2666 10.972 19.5337 11.807 20.7862C12.4516 21.7603 13.1328 22.7271 13.3012 23.8623C13.3818 24.4263 13.2133 24.9756 12.9643 25.5103C12.6567 26.1914 12.2172 26.836 11.8217 27.4146C11.4847 27.9126 11.6093 28.5865 12.1 28.9234C12.5907 29.253 13.2646 29.1284 13.5942 28.6304C14.5903 27.1582 15.689 25.3418 15.4253 23.5474C15.2129 22.0899 14.4145 20.8301 13.5869 19.585C12.9423 18.6109 12.2685 17.6587 12.1147 16.5161C11.9022 14.9048 12.8691 13.3081 13.6455 11.9092C13.9311 11.3819 13.748 10.7227 13.228 10.437C12.7079 10.1441 12.0561 10.3345 11.7704 10.8545ZM36.2048 10.8545C35.216 12.649 34.1539 14.7437 34.4249 16.8091C34.6227 18.2666 35.4138 19.5337 36.2414 20.7862C36.886 21.7603 37.5745 22.7271 37.7356 23.8623C37.8235 24.4263 37.6477 24.9756 37.406 25.5103C37.0911 26.1914 36.6516 26.836 36.2561 27.4146C35.9265 27.9126 36.051 28.5865 36.5417 28.9234C37.0325 29.253 37.699 29.1284 38.0359 28.6304C39.032 27.1582 40.1234 25.3418 39.8597 23.5474C39.6546 22.0899 38.8562 20.8301 38.0286 19.585C37.384 18.6109 36.7102 17.6587 36.5564 16.5161C36.3366 14.9048 37.3108 13.3081 38.0872 11.9092C38.3728 11.3819 38.1897 10.7227 37.6697 10.437C37.1497 10.1441 36.4978 10.3345 36.2048 10.8545ZM23.2918 0.871608C22.303 2.66604 21.2336 4.76077 21.5119 6.81887C21.7097 8.28372 22.5007 9.55081 23.3284 10.7959C23.9803 11.7774 24.6614 12.7368 24.8226 13.8721C24.9032 14.4361 24.7347 14.9927 24.4857 15.5274C24.178 16.2012 23.7386 16.8457 23.343 17.4317C23.0134 17.9224 23.138 18.5962 23.6287 18.9331C24.1194 19.27 24.786 19.1382 25.1229 18.6475C26.119 17.168 27.2104 15.3589 26.9467 13.5572C26.7416 12.107 25.9432 10.8472 25.1156 9.59475C24.471 8.62796 23.7972 7.66848 23.6433 6.53323C23.4236 4.9219 24.3978 3.32522 25.1742 1.91897C25.4598 1.39895 25.2694 0.739772 24.7567 0.446803C24.2366 0.161158 23.5848 0.344264 23.2918 0.871608Z" fill="white"/>
</svg>
