<svg width="65" height="62" viewBox="0 0 65 62" fill="none" xmlns="http://www.w3.org/2000/svg">
<g clip-path="url(#clip0_27_19340)">
<mask id="mask0_27_19340" style="mask-type:luminance" maskUnits="userSpaceOnUse" x="15" y="0" width="16" height="15">
<path d="M15.1543 0.00683594H30.1548V14.3623H15.1543V0.00683594Z" fill="white"/>
</mask>
<g mask="url(#mask0_27_19340)">
<path d="M22.3469 1.61816C25.2108 1.61816 27.5399 3.93994 27.5399 6.80371C27.5399 9.66016 25.2108 11.9893 22.3469 11.9893C19.483 11.9893 17.1539 9.66016 17.1539 6.80371C17.1539 3.93994 19.483 1.61816 22.3469 1.61816ZM22.3469 13.6006C26.097 13.6006 29.1513 10.5464 29.1513 6.80371C29.1513 3.05371 26.097 0.00683594 22.3469 0.00683594C18.5968 0.00683594 15.5498 3.05371 15.5498 6.80371C15.5498 10.5464 18.5968 13.6006 22.3469 13.6006Z" fill="white"/>
</g>
<mask id="mask1_27_19340" style="mask-type:luminance" maskUnits="userSpaceOnUse" x="0" y="4" width="65" height="58">
<path d="M0.0146484 4.50391H64.675V61.8818H0.0146484V4.50391Z" fill="white"/>
</mask>
<g mask="url(#mask1_27_19340)">
<path d="M62.4483 13.1465C61.5987 15.417 58.1415 22.9097 49.3961 23.8984C49.1617 23.9204 48.9493 24.0522 48.8175 24.25C48.6856 24.4404 48.649 24.6895 48.7149 24.9165C48.7516 25.0483 52.3405 37.8584 52.3259 43.7617L48.0045 44.4429C47.6382 44.5015 47.3599 44.8018 47.3306 45.168C47.1036 47.7974 47.023 50.1631 46.9497 52.2578C46.8692 54.7261 46.8032 56.6743 46.5322 58.0073C46.21 59.5454 45.7705 59.5454 45.5508 59.5454C45.5361 59.5454 45.5141 59.5381 45.4922 59.5381C44.2177 59.4722 43.7636 57.2383 42.848 52.1846C42.5038 50.3096 42.1229 48.1709 41.5809 45.644C41.5003 45.2705 41.1707 45.0068 40.7972 45.0068C40.7825 45.0068 40.7606 45.0068 40.7459 45.0142C40.3504 45.0361 40.0281 45.3438 39.9915 45.7466C39.4348 52.2432 39.01 55.5244 38.5046 57.458C37.9553 59.5381 37.3986 59.5381 36.9958 59.5381C36.8859 59.5381 36.7761 59.5015 36.6662 59.4282C36.82 58.8569 36.9006 58.3223 36.9592 57.9707C37.2741 55.9199 37.3693 53.1807 37.4865 50.0093V49.9727C37.5451 48.3027 37.5451 45.2046 37.5378 42.5093C37.5305 42.231 37.5305 41.96 37.5305 41.6963C37.5305 41.4033 37.5232 41.1177 37.5232 40.8394C37.5158 39.5503 37.5085 38.481 37.5012 37.895C38.0945 37.5435 38.6365 37.1772 39.1345 36.8037C39.4422 36.5693 39.7351 36.3276 40.0062 36.0859C40.3138 35.8149 40.5994 35.5439 40.8704 35.2656C42.5258 33.5518 43.5219 31.6987 44.496 29.8897C45.2212 28.542 45.3457 27.2896 44.8403 26.4473C44.518 25.9126 43.9614 25.5977 43.3241 25.5977C42.4305 25.5977 41.4417 26.1909 40.5262 27.2822C40.4456 27.3774 40.3651 27.4727 40.2845 27.5752C40.1453 27.7583 39.9842 27.9414 39.823 28.1099C39.6033 28.3516 39.3543 28.5859 39.0979 28.813C38.1824 29.5894 37.0397 30.2559 35.714 30.8052C35.5529 30.8711 35.3917 30.937 35.2233 30.9956C35.1281 31.0322 35.0255 31.0762 34.923 31.1128C34.7692 31.1641 34.6154 31.2153 34.4615 31.2666C34.3517 31.3032 34.2345 31.3398 34.1246 31.3691C33.9781 31.4131 33.839 31.457 33.6925 31.501C32.9747 31.6987 32.2203 31.8745 31.4219 32.0137C31.4878 31.8232 31.5464 31.6328 31.605 31.4497C32.2935 31.3398 32.9307 31.0762 33.4801 30.6953C33.6925 30.5415 33.8902 30.3804 34.0733 30.1973C34.1026 30.1753 34.1246 30.1533 34.1466 30.124C34.3736 29.897 34.5714 29.6406 34.7399 29.3696C34.7765 29.3184 34.8131 29.2598 34.8424 29.2085C35.2233 28.542 35.443 27.773 35.443 26.96C35.443 26.0005 35.1427 25.1069 34.63 24.3745C34.3883 24.023 34.1026 23.7153 33.7804 23.4517C33.0699 22.8657 32.191 22.4922 31.2241 22.4263C31.1143 22.4189 30.9971 22.4116 30.8872 22.4116C30.77 22.4116 30.6601 22.4189 30.5503 22.4263C30.4111 22.4336 30.2719 22.4482 30.1328 22.4775C29.8471 22.5215 29.5688 22.5947 29.3051 22.6899C29.0121 22.7998 28.7338 22.939 28.4701 23.1074C27.1884 23.9131 26.3314 25.3413 26.3314 26.96C26.3314 28.1099 26.7635 29.1572 27.474 29.9629C27.0272 30.5928 26.6317 31.2813 26.2581 32.0063C24.8811 31.6694 23.7166 31.0762 22.7864 30.439C22.8816 30.0435 22.9914 29.6553 23.1086 29.2817C24.1048 26.2715 26.0824 23.8398 28.5507 22.0161C29.144 21.584 29.7592 21.1812 30.4038 20.8149C31.6563 20.0972 32.9966 19.5112 34.3736 19.0645C34.6959 18.9619 35.0255 18.8594 35.3551 18.7715C35.6774 18.6836 35.9997 18.5957 36.3293 18.5225C37.9114 18.1636 39.5081 17.9805 41.0462 17.9805C41.7421 17.9805 42.4305 18.0171 43.0897 18.0977C43.9028 18.1929 44.7231 18.2441 45.5215 18.2441C52.7507 18.2441 57.3871 14.2964 59.5039 11.9453C61.5401 9.68945 62.5435 9.57227 62.7193 9.57227C62.8511 9.57227 62.8731 9.61621 62.9024 9.65283C63.1075 9.95313 63.2467 11.0151 62.4483 13.1465ZM27.9428 26.96C27.9428 26.4619 28.0673 25.9932 28.287 25.5757C28.4994 25.1802 28.8071 24.8359 29.166 24.5723C29.4223 24.3892 29.7006 24.25 30.0083 24.1548C30.2866 24.0669 30.5796 24.0156 30.8872 24.0156C32.5059 24.0156 33.8316 25.334 33.8316 26.96C33.8316 27.1138 33.817 27.2676 33.795 27.4141C33.7364 27.7656 33.6192 28.1025 33.4434 28.4102C33.297 28.6665 33.1138 28.9009 32.8941 29.106C32.7037 29.2817 32.4986 29.4355 32.2642 29.5527C31.9712 29.7139 31.6416 29.8237 31.2974 29.8677C31.1582 29.8897 31.0264 29.897 30.8872 29.897C30.7334 29.897 30.5869 29.8897 30.4404 29.8677C30.3891 29.8604 30.3379 29.8457 30.2866 29.8384C30.1181 29.8018 29.9497 29.7505 29.7959 29.6919C29.7446 29.6699 29.6933 29.648 29.642 29.6187C29.5908 29.5967 29.5395 29.5747 29.4956 29.5454C29.3491 29.4722 29.2099 29.377 29.0781 29.2744C29.0048 29.2158 28.9316 29.1572 28.8657 29.0913C28.8144 29.04 28.7631 28.9961 28.7118 28.9448C28.6459 28.8643 28.58 28.7837 28.5141 28.6958C28.3529 28.4761 28.2211 28.2344 28.1259 27.978C28.0087 27.6631 27.9428 27.3188 27.9428 26.96ZM28.6093 31.1494C28.5873 31.523 28.5727 31.9038 28.5507 32.2993C28.3456 32.292 28.1405 32.2847 27.9428 32.27C28.1552 31.8745 28.3749 31.501 28.6093 31.1494ZM36.1608 36.8257C36.0583 36.9063 35.985 37.0161 35.9411 37.1406C35.9045 37.2358 35.8825 37.3311 35.8825 37.4409C35.8825 37.4629 35.8971 38.3638 35.9045 39.6821C35.9118 40.2168 35.9118 40.8174 35.9191 41.4619C35.9338 44.3623 35.9411 48.0684 35.8752 49.9141V49.9507C35.7799 52.6533 35.692 55.0337 35.4796 56.894C35.443 57.187 35.4064 57.4653 35.3698 57.729C35.3112 58.0879 35.2526 58.3955 35.194 58.6592C35.1281 58.9302 35.0695 59.1646 35.0035 59.3477C34.9523 59.5161 34.8937 59.648 34.8424 59.7578C34.608 60.2632 34.4103 60.2705 34.3956 60.2705C34.3297 60.2705 34.2491 60.2705 34.1686 60.2266C34.0367 60.1606 33.8902 59.9849 33.7511 59.5381C33.7144 59.4356 33.6778 59.3184 33.6485 59.1792C33.6046 59.0107 33.568 58.8203 33.5313 58.6226C33.3336 57.502 33.2091 55.876 33.0552 53.7446C32.9674 52.6094 32.8721 51.3203 32.7476 49.8701C32.711 49.4746 32.396 49.167 31.9932 49.1377C31.5977 49.1157 31.2388 49.3867 31.1582 49.7749C30.7334 51.7817 30.4477 53.5835 30.1914 55.1729C30.0009 56.374 29.8325 57.3994 29.6567 58.2344C29.5761 58.6079 29.4956 58.9448 29.4003 59.2378C29.393 59.2744 29.3784 59.311 29.371 59.3403C29.2319 59.7651 29.1 60.0142 29.0048 60.146C28.9316 60.2339 28.873 60.2705 28.8437 60.2778H28.8364C28.829 60.2778 28.6532 60.168 28.4701 59.4502C28.4115 59.2378 28.3603 58.9668 28.309 58.6299C28.3017 58.6079 28.3017 58.5786 28.2943 58.5493C28.1479 57.5313 28.0746 56.2202 28.0087 54.7188C28.0014 54.5796 27.994 54.4404 27.9867 54.2939C27.9208 52.939 27.8476 51.4082 27.7157 49.8701C27.6718 49.3501 27.6205 48.6689 27.5692 47.8926C27.518 47.0137 27.4594 46.0103 27.4081 44.9922C27.4008 44.9556 27.4008 44.9189 27.4008 44.875C27.3861 44.6699 27.3788 44.4648 27.3641 44.2598C27.1957 41.0298 27.0565 37.8364 27.0565 37.7852C27.0419 37.3896 26.7342 37.0674 26.346 37.0234C26.097 36.9941 25.8626 36.9575 25.6356 36.9136C25.3572 36.8623 25.0862 36.8037 24.8226 36.7305C24.5589 36.6572 24.2952 36.5693 24.0462 36.4741C23.4163 36.2397 22.8449 35.9395 22.3249 35.5952C22.0319 35.3975 21.7536 35.1851 21.4899 34.958C21.2043 34.709 20.9406 34.4526 20.6916 34.1816C19.6075 32.9878 18.8897 31.6035 18.421 30.3438C18.0328 29.2964 17.9595 28.6592 17.9742 28.3589C18.2159 28.4761 18.7066 28.7983 19.5123 29.6846C19.8859 30.1094 20.3839 30.6074 21.0065 31.1055C21.2262 31.2886 21.468 31.4717 21.7243 31.6548C21.9514 31.8232 22.2004 31.9844 22.4641 32.1382C23.3357 32.6729 24.3611 33.1563 25.533 33.4785C25.7967 33.5518 26.0604 33.6177 26.3387 33.6689C26.6024 33.7275 26.8807 33.7715 27.1664 33.8081C27.3641 33.8301 27.5692 33.8521 27.7743 33.8667C28.0014 33.8887 28.2358 33.896 28.4701 33.9033C28.5068 33.9033 28.5434 33.9033 28.58 33.9033C28.6313 33.9033 28.6752 33.9106 28.7265 33.9106C28.873 33.9106 29.0121 33.9033 29.1586 33.9033C29.1953 33.896 29.2392 33.896 29.2758 33.896C29.3124 33.896 29.3564 33.8887 29.393 33.8887C29.5981 33.874 29.8105 33.8667 30.0156 33.8447C30.0376 33.8374 30.0595 33.8374 30.0815 33.8374C30.2134 33.8228 30.3452 33.8081 30.4697 33.7935C30.6162 33.7715 30.7554 33.7495 30.8945 33.7275C32.0005 33.5664 33.0406 33.354 34.0147 33.083C34.0733 33.0684 34.1319 33.0537 34.1832 33.0391C34.3883 32.9805 34.5934 32.9219 34.7911 32.856C34.8571 32.834 34.923 32.8193 34.9816 32.7974C35.1793 32.7314 35.3698 32.6655 35.5602 32.5996C35.6335 32.5703 35.7067 32.541 35.7799 32.519C37.091 32.0283 38.2556 31.4277 39.2444 30.7319C39.5154 30.5415 39.7718 30.3438 40.0208 30.1387C40.2918 29.9189 40.5408 29.6846 40.7825 29.4429C41.0609 29.1572 41.3172 28.8643 41.5589 28.5566C42.328 27.5605 42.9945 27.209 43.3241 27.209C43.4193 27.209 43.434 27.2383 43.456 27.2749C43.5732 27.4653 43.6391 28.0879 43.0824 29.1279C42.3573 30.4683 41.6908 31.6475 40.9144 32.7095C40.658 33.061 40.3943 33.398 40.1087 33.7202C39.845 34.0132 39.574 34.2988 39.281 34.5772C38.468 35.3462 37.5085 36.0566 36.3 36.7231C36.2487 36.7524 36.2048 36.7891 36.1608 36.8257ZM31.5391 59.5601C31.3999 59.5601 31.2095 59.5454 31.0044 59.4941C31.2461 58.6372 31.4365 57.5679 31.6416 56.3081C31.7515 57.6411 31.876 58.6958 32.0664 59.4941C31.8907 59.5381 31.7149 59.5601 31.5391 59.5601ZM22.7058 37.668C22.8669 37.7412 23.0281 37.8071 23.1965 37.8804C23.0867 38.0122 22.9988 38.0781 22.9475 38.1147C22.8816 38.0415 22.7937 37.8877 22.7058 37.668ZM25.6282 59.9995C25.6209 59.9995 25.6063 59.9995 25.5916 59.9995C24.3391 59.9263 23.7092 55.9858 22.9841 51.4302C22.5813 48.8887 22.1198 46.0176 21.4387 42.8169C21.3654 42.4434 21.0358 42.1797 20.6549 42.1797C20.6403 42.1797 20.6256 42.1797 20.6037 42.1797C20.2081 42.209 19.8859 42.5166 19.8566 42.9121C19.6515 45.2266 19.4977 47.292 19.3658 49.1084C19.0582 53.1514 18.8458 56.0664 18.399 57.8828C17.9229 59.8311 17.3077 59.9922 16.729 59.9922C15.8501 59.9922 15.1543 58.4468 14.7002 55.5098C14.2167 52.3604 14.0629 48.0244 13.8871 43.0073V42.9561C13.6967 37.7192 13.8652 23.1221 13.8725 22.9756C13.8725 22.6753 13.7114 22.4043 13.455 22.2578C7.62473 19.0278 5.29555 15.2705 2.41704 9.90918C1.48683 8.18799 1.51613 6.97949 1.81643 6.4668C1.9556 6.23975 2.16068 6.12988 2.45366 6.12988C2.77594 6.12988 3.96982 6.29834 5.65445 8.48096C8.92848 12.6997 15.1176 15.6074 23.072 16.6621C23.9949 16.7866 24.9471 16.8745 25.8626 16.9624C28.1698 17.1821 30.3965 17.3945 32.3594 18.0903C31.3926 18.4712 30.4697 18.918 29.5908 19.416C25.6209 21.6792 22.8523 24.9165 21.5851 28.7837C21.5265 28.9595 21.468 29.1499 21.4167 29.333C21.1384 29.0767 20.904 28.835 20.7062 28.6152C19.5343 27.3115 18.5821 26.6816 17.7911 26.6816C17.3296 26.6816 16.9341 26.8867 16.6778 27.2529C16.187 27.9561 16.2676 29.1865 16.9121 30.9077C17.6153 32.79 18.8092 34.936 20.8088 36.4961C20.9479 37.5728 21.2189 38.4663 21.6218 39.023C22.0612 39.6309 22.5666 39.7554 22.9182 39.7554C23.592 39.7554 24.2146 39.3086 24.8079 38.3857C25.0276 38.437 25.2474 38.481 25.4818 38.5249C25.5697 40.6709 25.8773 47.3066 26.1117 50.0093C26.2435 51.5181 26.3167 53.0342 26.3753 54.3672C26.4486 55.9199 26.5145 57.3042 26.6537 58.4395C26.4339 59.2671 26.1043 59.9995 25.6282 59.9995ZM64.2281 8.73731C63.8839 8.23926 63.3492 7.96826 62.7193 7.96826C61.5254 7.96826 60.0459 8.94238 58.31 10.8687C56.369 13.022 52.1281 16.6328 45.5215 16.6328C44.789 16.6328 44.0346 16.5889 43.2729 16.501C42.5624 16.4131 41.808 16.3691 41.0462 16.3691C38.9148 16.3691 36.7028 16.7061 34.5787 17.3213C32.0078 15.9297 28.9755 15.644 26.0164 15.3657C25.1155 15.2778 24.178 15.1899 23.2844 15.0728C15.7476 14.0693 9.93926 11.3813 6.9289 7.49219C5.44204 5.58057 3.85263 4.52588 2.45366 4.52588C1.5967 4.52588 0.864252 4.92871 0.439434 5.64648C-0.278364 6.84033 -0.0806028 8.67139 0.996093 10.6709C3.94785 16.1567 6.34295 20.0386 12.2538 23.4297C12.2245 26.0005 12.1073 38.2759 12.2758 43.0147V43.0659C12.4589 48.1343 12.6127 52.5068 13.1107 55.7588C13.5282 58.4761 14.3193 61.6035 16.729 61.6035C18.8897 61.6035 19.6075 59.6992 19.9591 58.2637C20.4425 56.3228 20.6623 53.3491 20.9699 49.2256C20.9699 49.189 20.9772 49.145 20.9772 49.1084C21.1237 50.002 21.2629 50.8589 21.3947 51.6792C22.3689 57.7803 22.9548 61.4644 25.5037 61.6035C25.5477 61.6035 25.5916 61.6035 25.6282 61.6035C26.346 61.6035 26.8734 61.2959 27.2689 60.8418C27.5765 61.3984 28.0526 61.8818 28.8364 61.8818C28.8657 61.8818 28.895 61.8818 28.9316 61.8818C29.5615 61.8452 30.0229 61.5376 30.3818 60.9883C30.7407 61.1055 31.1289 61.1641 31.5391 61.1641C31.9126 61.1641 32.3008 61.1055 32.6817 60.9956C33.0259 61.479 33.5606 61.8818 34.3956 61.8818C35.1354 61.8818 35.6554 61.479 36.029 60.9224C36.3146 61.0689 36.6369 61.1494 37.0031 61.1494C38.9295 61.1421 39.6326 59.4868 40.0574 57.8682C40.4163 56.5059 40.7313 54.5503 41.0682 51.4155C41.1341 51.7744 41.2 52.1333 41.266 52.4775C41.764 55.2168 42.1229 57.2017 42.6283 58.5859C43.0092 59.6406 43.7197 61.0542 45.4043 61.1494C45.4556 61.1494 45.5068 61.1494 45.5508 61.1494C47.5284 61.1494 47.9605 59.0254 48.107 58.3296C48.4073 56.8647 48.4732 54.8579 48.5611 52.3091C48.627 50.4048 48.693 48.2734 48.8834 45.937L53.2341 45.2485C53.6077 45.1899 53.8933 44.875 53.9153 44.4941C54.201 39.4624 51.3737 28.5713 50.5021 25.3633C59.4819 23.8691 63.0562 16.1201 63.9571 13.7105C64.5504 12.1211 65.0778 9.96777 64.2281 8.73731Z" fill="white"/>
</g>
<path d="M42.3864 3.61768C45.1111 3.61768 47.3231 5.83691 47.3231 8.5542C47.3231 11.2788 45.1111 13.4907 42.3864 13.4907C39.6617 13.4907 37.4424 11.2788 37.4424 8.5542C37.4424 5.83691 39.6617 3.61768 42.3864 3.61768ZM42.3864 15.1021C45.9974 15.1021 48.9345 12.165 48.9345 8.5542C48.9345 4.95068 45.9974 2.01367 42.3864 2.01367C38.7755 2.01367 35.8311 4.95068 35.8311 8.5542C35.8311 12.165 38.7755 15.1021 42.3864 15.1021Z" fill="white"/>
</g>
<defs>
<clipPath id="clip0_27_19340">
<rect width="64.6603" height="61.875" fill="white" transform="translate(0.0146484 0.00683594)"/>
</clipPath>
</defs>
</svg>
