<svg width="64" height="66" viewBox="0 0 64 66" fill="none" xmlns="http://www.w3.org/2000/svg">
<g clip-path="url(#clip0_27_19373)">
<path d="M15.9595 9.15967C15.564 8.61768 15.0733 8.1709 14.5752 7.77539L16.7579 5.61475C17.1534 5.21924 17.7467 5.21924 18.1495 5.61475C18.5451 6.00293 18.5451 6.59619 18.1495 6.9917L15.9595 9.15967Z" fill="white"/>
<path d="M6.24012 18.8057L4.05743 20.9736C3.85967 21.1714 3.61064 21.2666 3.36161 21.2666C3.11257 21.2666 2.86354 21.1714 2.66578 20.9736C2.27026 20.5781 2.27026 19.9922 2.66578 19.5967L4.84847 17.4287C5.25132 17.9194 5.74205 18.4175 6.24012 18.8057Z" fill="white"/>
<mask id="mask0_27_19373" style="mask-type:luminance" maskUnits="userSpaceOnUse" x="0" y="11" width="4" height="5">
<path d="M0 11.8623H3.90394V15.6123H0V11.8623Z" fill="white"/>
</mask>
<g mask="url(#mask0_27_19373)">
<path d="M3.46448 13.2906C3.46448 13.6348 3.50843 13.9351 3.5597 14.2793H0.483431C-0.0585782 14.2793 -0.505371 13.8325 -0.505371 13.2906C-0.505371 12.7486 -0.0585782 12.3091 0.483431 12.3091H3.5597C3.50843 12.6533 3.46448 12.9463 3.46448 13.2906Z" fill="white"/>
</g>
<path d="M20.3326 14.2793H17.2563C17.3003 13.9351 17.3516 13.6348 17.3516 13.2905C17.3516 12.9463 17.3003 12.6533 17.2563 12.3091H20.3326C20.8746 12.3091 21.3214 12.7485 21.3214 13.2905C21.3214 13.8325 20.8746 14.2793 20.3326 14.2793Z" fill="white"/>
<path d="M18.1495 19.5454C18.5451 19.9409 18.5451 20.5342 18.1495 20.9224C17.9444 21.1201 17.7027 21.2227 17.4537 21.2227C17.2047 21.2227 16.9556 21.1201 16.7579 20.9224L14.5752 18.7617C15.1172 18.3662 15.564 17.8755 15.9595 17.3774L18.1495 19.5454Z" fill="white"/>
<path d="M4.84847 9.15967L2.66578 6.9917C2.27026 6.59619 2.27026 6.00293 2.66578 5.61475C3.06863 5.21924 3.66191 5.21924 4.05743 5.61475L6.24012 7.77539C5.74205 8.1709 5.25132 8.66162 4.84847 9.15967Z" fill="white"/>
<mask id="mask1_27_19373" style="mask-type:luminance" maskUnits="userSpaceOnUse" x="7" y="0" width="5" height="9">
<path d="M7.65381 0.98584H11.4039V8.1123H7.65381V0.98584Z" fill="white"/>
</mask>
<g mask="url(#mask1_27_19373)">
<path d="M9.41162 6.50095V3.44675C9.41162 2.90476 9.85841 2.45798 10.4077 2.45798C10.9498 2.45798 11.3965 2.90476 11.3965 3.44675V6.50095C11.0523 6.44968 10.752 6.39841 10.4077 6.39841C10.0635 6.39841 9.7632 6.44968 9.41162 6.50095Z" fill="white"/>
</g>
<path d="M11.3965 20.0874V23.1416C11.3965 23.6836 10.9498 24.123 10.4077 24.123C9.85841 24.123 9.41162 23.6836 9.41162 23.1416V20.0874C9.7632 20.1387 10.0635 20.1899 10.4077 20.1899C10.752 20.1899 11.0523 20.1387 11.3965 20.0874Z" fill="white"/>
<path d="M10.4079 18.2197C7.67585 18.2197 5.44922 16.0005 5.44922 13.2905C5.44922 10.5879 7.67585 8.36865 10.4079 8.36865C13.1326 8.36865 15.3665 10.5879 15.3665 13.2905C15.3665 16.0005 13.1326 18.2197 10.4079 18.2197ZM10.4079 10.3389C8.7672 10.3389 7.43415 11.6719 7.43415 13.2905C7.43415 14.9165 8.7672 16.2495 10.4079 16.2495C12.0412 16.2495 13.3816 14.9165 13.3816 13.2905C13.3816 11.6719 12.0412 10.3389 10.4079 10.3389Z" fill="white"/>
<mask id="mask2_27_19373" style="mask-type:luminance" maskUnits="userSpaceOnUse" x="0" y="28" width="64" height="38">
<path d="M0 28.7373H63.9059V65.6733H0V28.7373Z" fill="white"/>
</mask>
<g mask="url(#mask2_27_19373)">
<path d="M0.483431 51.6988H4.80486C4.20425 50.5635 4.40202 49.1866 5.34687 48.2491L13.9824 39.3867C14.7222 38.647 15.9161 38.6031 16.7071 39.2915L21.717 43.4737C23.4017 41.606 27.6205 37.0284 27.6718 36.9771C28.6167 35.8931 29.9058 35.2559 31.2901 35.0581C31.3926 35.7466 31.5904 36.3838 31.8907 36.9771H31.8394C30.7994 37.0284 29.8545 37.4678 29.1587 38.3028C28.9096 38.5518 23.2039 44.8067 22.5154 45.5464C22.1638 45.9346 21.5705 45.9859 21.1238 45.6416L15.3667 40.815L6.68725 49.6773C6.343 50.0215 6.29173 50.5122 6.54076 50.9077C6.78246 51.252 7.08276 51.3033 7.22926 51.3545C7.52956 51.4058 7.77859 51.3033 7.97635 51.0542L14.2241 44.8506C14.9712 44.1182 16.1651 44.0669 16.9561 44.7554L24.6981 51.6475C25.4891 51.75 28.0673 51.8965 29.3052 50.4683L35.2087 43.8179C36.007 42.8877 36.3513 41.7012 36.1535 40.522C36.7981 40.7637 37.4939 40.8662 38.1897 40.8662C38.285 42.3897 37.7942 43.9204 36.7029 45.1509L30.8946 51.6988H34.7179L51.2859 30.4292C51.6301 29.9825 52.2307 29.9385 52.6775 30.2315C53.117 30.5757 53.1683 31.169 52.8753 31.6084L45.7266 40.7637L52.1282 51.6988H62.0015C62.5436 51.6988 62.9903 52.1382 62.9903 52.6802C62.9903 53.2222 62.5436 53.669 62.0015 53.669H49.8429L55.9003 64.0034C56.1933 64.5015 55.9955 65.0874 55.5487 65.3365C55.4022 65.4317 55.2044 65.4829 55.058 65.4829C54.7064 65.4829 54.3621 65.2852 54.2083 64.9922L47.565 53.669H14.9712L8.3206 64.9922C8.12284 65.2852 7.82986 65.4829 7.47829 65.4829C7.3318 65.4829 7.13404 65.4317 6.98755 65.3365C6.48949 65.0435 6.343 64.4502 6.63597 64.0034L12.686 53.669H0.483431C-0.0585783 53.669 -0.505371 53.2222 -0.505371 52.6802C-0.505371 52.1382 -0.0585783 51.6988 0.483431 51.6988ZM49.8429 51.6988L44.4375 42.4409L37.2449 51.6988H49.8429ZM21.8196 51.6988L15.667 46.2349L10.159 51.6988H21.8196Z" fill="white"/>
</g>
<mask id="mask3_27_19373" style="mask-type:luminance" maskUnits="userSpaceOnUse" x="28" y="0" width="36" height="33">
<path d="M28.2798 0.98584H63.9059V32.4873H28.2798V0.98584Z" fill="white"/>
</mask>
<g mask="url(#mask3_27_19373)">
<path d="M60.1629 30.9711C59.6209 30.9199 59.0716 30.5244 59.1741 29.8872C59.5184 27.9169 58.5296 25.749 56.6399 24.4672C54.6549 23.1416 52.2745 23.1416 50.8389 24.4672C50.0918 25.1557 48.6562 24.2695 48.9565 23.288C49.5498 21.5156 48.854 19.3989 47.2645 17.9707L41.361 27.9169C40.7678 27.624 40.1232 27.375 39.4786 27.2285L45.6312 16.8867C43.7928 16.0517 41.8078 16.2934 40.6213 17.5312C39.8742 18.3149 38.4386 17.4287 38.7828 16.3959C39.4786 14.3745 38.4386 11.8623 36.3511 10.4853C34.52 9.25483 32.286 9.15962 30.7992 10.2875C29.9495 10.976 28.763 9.89936 29.3562 8.96186C31.4877 5.70991 34.9155 3.54194 38.8854 2.75825C47.1693 1.18354 55.7463 5.8564 60.0164 12.7485C63.2905 18.0659 64.184 24.9653 61.0565 30.5244C60.8587 30.8247 60.5145 30.9711 60.1629 30.9711ZM42.2546 4.47944C39.0319 4.47944 35.9043 5.41694 33.3261 7.58491C34.7177 7.58491 36.2046 8.02436 37.4937 8.91059C39.2296 10.0898 40.4235 11.8183 40.819 13.686C44.4373 8.85933 47.7626 6.99165 50.0918 6.35444C47.6601 5.11665 44.9354 4.47944 42.2546 4.47944ZM52.2745 7.92915C50.7876 7.97309 47.1181 8.81538 42.7014 14.477C44.3421 14.2792 46.1219 14.6748 47.7113 15.7587C49.2495 16.7915 50.3408 18.2636 50.8389 19.8896C53.7687 13.2905 52.8751 9.40132 52.2745 7.92915ZM54.7062 9.50386C55.1017 12.06 54.86 16.0517 52.1793 21.6621C53.9664 21.2666 55.9953 21.6621 57.7312 22.8486C59.0203 23.6835 60.0164 24.8627 60.6097 26.1958C61.9501 20.5781 59.6722 13.979 54.7062 9.50386Z" fill="white"/>
</g>
<path d="M37.9406 29.0524C39.281 29.0011 40.5189 29.4405 41.515 30.3268C42.5038 31.213 43.0971 32.3995 43.1483 33.7252C43.1996 35.0582 42.7528 36.2887 41.8592 37.2701C40.9656 38.2589 39.7791 38.8448 38.4387 38.8961C38.3362 38.8961 38.2849 38.8961 38.1897 38.8961C36.9445 38.8961 35.8092 38.4567 34.8644 37.6144C33.8756 36.7281 33.275 35.5489 33.231 34.2159C33.1797 32.8903 33.6265 31.6598 34.5201 30.671C35.4137 29.6896 36.6003 29.1476 37.9406 29.0524ZM35.2086 34.1207C35.2599 34.9117 35.6115 35.6442 36.2047 36.1422C36.798 36.6842 37.5451 36.9259 38.3362 36.8746C39.1272 36.8307 39.8743 36.4864 40.3724 35.8932C40.9144 35.2999 41.1634 34.5602 41.1121 33.7765C41.0682 32.9855 40.7166 32.2457 40.1233 31.755C39.574 31.2643 38.8855 31.0153 38.1384 31.0153C38.0871 31.0153 38.0359 31.0153 37.9919 31.0153C37.1935 31.0665 36.4538 31.4108 35.9557 32.004C35.4577 32.5973 35.1647 33.3297 35.2086 34.1207Z" fill="white"/>
</g>
<defs>
<clipPath id="clip0_27_19373">
<rect width="63.9059" height="64.6875" fill="white" transform="translate(0 0.98584)"/>
</clipPath>
</defs>
</svg>
