<svg width="60" height="60" viewBox="0 0 60 60" fill="none" xmlns="http://www.w3.org/2000/svg">
<path fill-rule="evenodd" clip-rule="evenodd" d="M26.1017 38.0138C25.8556 38.0482 25.6332 38.1789 25.4835 38.3772C25.3337 38.5755 25.2688 38.8252 25.303 39.0713C25.3161 39.165 25.3123 39.2682 25.3123 39.375C25.3123 41.5313 24.6186 43.5732 23.3811 45.3075C22.2156 43.4641 20.4703 42.0605 18.4199 41.3175C19.0471 40.813 19.5537 40.1748 19.9027 39.4495C20.2518 38.7241 20.4344 37.93 20.4373 37.125C20.4373 34.1269 17.9999 31.6875 14.9999 31.6875C11.9999 31.6875 9.56235 34.1269 9.56235 37.125C9.56235 38.8219 10.3592 40.32 11.5799 41.3175C9.52811 42.0611 7.78205 43.4662 6.61673 45.3113C5.36679 43.5839 4.69182 41.5072 4.68735 39.375C4.68735 36.6075 5.75985 34.0219 7.71548 32.0832C9.43512 30.3298 11.7379 29.2678 14.188 29.0982C14.3109 29.0891 14.4308 29.056 14.5409 29.0006C14.6509 28.9452 14.749 28.8686 14.8295 28.7753C14.9099 28.6819 14.9712 28.5736 15.0097 28.4566C15.0483 28.3396 15.0634 28.2161 15.0542 28.0932C15.0467 27.9697 15.0145 27.8491 14.9596 27.7383C14.9047 27.6275 14.8281 27.5288 14.7344 27.4481C14.6408 27.3673 14.5319 27.3062 14.4142 27.2682C14.2965 27.2302 14.1724 27.2162 14.0492 27.2269C11.1537 27.4426 8.43367 28.6971 6.38985 30.7594C5.25036 31.8853 4.347 33.2272 3.7327 34.7066C3.1184 36.1861 2.8055 37.7732 2.81235 39.375C2.81235 42.4838 3.97485 45.4294 6.08048 47.6625C7.21941 48.8906 8.59925 49.8707 10.1339 50.5417C11.6685 51.2128 13.3249 51.5603 14.9999 51.5625C16.6748 51.5693 18.3327 51.2264 19.8676 50.5558C21.4025 49.8853 22.7805 48.9017 23.9136 47.6682C26.0264 45.4249 27.1982 42.4566 27.1873 39.375C27.1873 39.18 27.1836 38.985 27.1592 38.8144C27.1243 38.5684 26.9936 38.3462 26.7955 38.1962C26.5974 38.0462 26.348 37.9806 26.1017 38.0138ZM11.4392 37.125C11.4392 35.1619 13.0349 33.5625 14.9999 33.5625C16.9649 33.5625 18.5623 35.1619 18.5623 37.125C18.5623 39.09 16.9649 40.6875 14.9999 40.6875C13.0349 40.6875 11.4392 39.09 11.4392 37.125ZM7.91985 46.8375C8.59762 45.5468 9.61564 44.4662 10.8636 43.7126C12.1116 42.9591 13.542 42.5614 14.9999 42.5625C18.0036 42.5625 20.7055 44.2294 22.0798 46.8375C20.1795 48.671 17.6404 49.6931 14.9999 49.6875C12.362 49.6793 9.82779 48.6592 7.91985 46.8375ZM53.6174 30.765C51.5715 28.6993 48.8479 27.4428 45.9486 27.2269C45.8243 27.2148 45.6988 27.2277 45.5795 27.2648C45.4603 27.3019 45.3496 27.3625 45.2541 27.443C45.1585 27.5234 45.0801 27.6222 45.0232 27.7334C44.9664 27.8446 44.9323 27.9661 44.9231 28.0906C44.9138 28.2152 44.9296 28.3404 44.9694 28.4588C45.0092 28.5771 45.0722 28.6864 45.1548 28.7801C45.2374 28.8738 45.3379 28.95 45.4504 29.0043C45.5629 29.0586 45.6851 29.0899 45.8099 29.0963C48.2644 29.2665 50.571 30.3321 52.2917 32.0907C53.2547 33.0427 54.0178 34.1774 54.5365 35.4283C55.0552 36.6791 55.319 38.0209 55.3123 39.375C55.3062 41.5061 54.6306 43.5813 53.3811 45.3075C52.2157 43.464 50.4704 42.0604 48.4198 41.3175C49.0471 40.813 49.5537 40.1748 49.9027 39.4495C50.2518 38.7241 50.4344 37.93 50.4373 37.125C50.4373 34.1269 47.9999 31.6875 44.9999 31.6875C41.9999 31.6875 39.5624 34.1269 39.5624 37.125C39.5624 38.8219 40.3592 40.32 41.5798 41.3175C39.5283 42.0605 37.7823 43.4649 36.6167 45.3094C35.3669 43.5827 34.692 41.5066 34.6874 39.375C34.6874 39.2682 34.6836 39.165 34.6967 39.0713C34.7136 38.9493 34.7064 38.8251 34.6753 38.7059C34.6442 38.5867 34.5899 38.4748 34.5156 38.3766C34.4412 38.2784 34.3482 38.1958 34.2419 38.1336C34.1356 38.0713 34.0181 38.0306 33.8961 38.0138C33.6511 37.9865 33.4049 38.0544 33.2085 38.2034C33.012 38.3524 32.8803 38.5711 32.8405 38.8144C32.8161 38.985 32.8124 39.18 32.8124 39.375C32.8124 42.4838 33.9749 45.4294 36.0805 47.6607C37.2188 48.8896 38.5985 49.8704 40.1332 50.5418C41.668 51.2132 43.3247 51.5607 44.9999 51.5625C46.6748 51.5693 48.3327 51.2264 49.8676 50.5558C51.4025 49.8853 52.7805 48.9017 53.9136 47.6682C56.0264 45.4249 57.1982 42.4566 57.1873 39.375C57.1945 37.7746 56.8825 36.1889 56.2695 34.7105C55.6565 33.2321 54.7549 31.8908 53.6174 30.765ZM41.4374 37.125C41.4374 35.1619 43.0349 33.5625 44.9999 33.5625C46.9649 33.5625 48.5623 35.1619 48.5623 37.125C48.5623 39.09 46.9649 40.6875 44.9999 40.6875C43.0349 40.6875 41.4374 39.09 41.4374 37.125ZM37.9199 46.8375C38.5973 45.5466 39.6152 44.4657 40.8633 43.7121C42.1114 42.9585 43.5419 42.5609 44.9999 42.5625C48.0036 42.5625 50.7055 44.2294 52.078 46.8375C50.1785 48.671 47.6399 49.6932 44.9999 49.6875C42.3618 49.6798 39.8275 48.6597 37.9199 46.8375Z" fill="#FF3F40"/>
<path fill-rule="evenodd" clip-rule="evenodd" d="M44.0623 22.5C44.0623 20.1188 43.4886 17.85 42.3561 15.7538C42.2377 15.535 42.0373 15.3722 41.7989 15.3011C41.5605 15.2301 41.3037 15.2567 41.0849 15.375C40.866 15.4934 40.7032 15.6938 40.6322 15.9322C40.5612 16.1706 40.5877 16.4275 40.7061 16.6463C41.6886 18.465 42.1873 20.4338 42.1873 22.5C42.1914 25.0058 41.4169 27.451 39.9711 29.4975C38.2925 27.7851 36.1979 26.5381 33.8924 25.8788C34.7176 25.2732 35.3891 24.4823 35.8529 23.5698C36.3166 22.6573 36.5596 21.6486 36.5623 20.625C36.5623 17.0063 33.6186 14.0625 29.9998 14.0625C26.3811 14.0625 23.4373 17.0063 23.4373 20.625C23.4373 22.7813 24.4967 24.6825 26.1073 25.8788C23.8039 26.5373 21.7107 27.7823 20.0324 29.4919C18.5872 27.4469 17.8116 25.0042 17.8124 22.5C17.8078 20.8988 18.1209 19.3126 18.7333 17.8331C19.3458 16.3536 20.2455 15.0102 21.3805 13.8807C22.5098 12.7455 23.8532 11.8456 25.3327 11.2331C26.8122 10.6206 28.3986 10.3077 29.9998 10.3125C32.0661 10.3125 34.0348 10.8113 35.8555 11.7938C35.9638 11.8523 36.0826 11.8888 36.2051 11.9014C36.3276 11.914 36.4513 11.9023 36.5693 11.867C36.6872 11.8318 36.7971 11.7736 36.8926 11.6959C36.9881 11.6182 37.0673 11.5224 37.1258 11.4141C37.1843 11.3058 37.2208 11.187 37.2334 11.0645C37.246 10.942 37.2343 10.8183 37.199 10.7003C37.1638 10.5824 37.1056 10.4725 37.0279 10.377C36.9502 10.2815 36.8544 10.2023 36.7461 10.1438C34.6761 9.01803 32.3561 8.43126 29.9998 8.43755C28.1522 8.43206 26.3219 8.79316 24.6148 9.49994C22.9078 10.2067 21.3578 11.2451 20.0549 12.555C18.7451 13.8582 17.7068 15.4081 17 17.1151C16.2933 18.8222 15.9321 20.6525 15.9374 22.5C15.9374 30.255 22.2449 36.5625 29.9998 36.5625C33.7555 36.5625 37.288 35.1 39.9449 32.445C41.2544 31.1418 42.2926 29.5918 42.9994 27.8848C43.7061 26.1778 44.0674 24.3476 44.0623 22.5ZM25.3123 20.625C25.3123 18.0413 27.4161 15.9375 29.9998 15.9375C32.5855 15.9375 34.6873 18.0413 34.6873 20.625C34.6873 23.2088 32.5855 25.3125 29.9998 25.3125C28.7571 25.3111 27.5657 24.8167 26.6869 23.938C25.8082 23.0592 25.3138 21.8678 25.3123 20.625ZM29.9998 34.6875C28.3625 34.6873 26.7421 34.356 25.236 33.7135C23.73 33.071 22.3694 32.1306 21.2361 30.9488C22.364 29.7585 23.7231 28.8109 25.23 28.1642C26.7369 27.5174 28.36 27.1851 29.9998 27.1875C33.3523 27.1875 36.4986 28.56 38.7673 30.9544C38.7167 31.0069 38.6717 31.0669 38.6174 31.1194C37.488 32.2542 36.145 33.1538 34.6658 33.7662C33.1867 34.3787 31.6008 34.6918 29.9998 34.6875ZM10.0386 13.7888L10.3124 13.5132V22.5C10.3124 22.7487 10.4111 22.9871 10.5869 23.163C10.7628 23.3388 11.0012 23.4375 11.2499 23.4375C11.4985 23.4375 11.7369 23.3388 11.9128 23.163C12.0886 22.9871 12.1874 22.7487 12.1874 22.5V13.5132L12.4611 13.7888C12.5479 13.8766 12.6513 13.9462 12.7652 13.9938C12.8792 14.0413 13.0014 14.0658 13.1249 14.0658C13.2483 14.0658 13.3705 14.0413 13.4845 13.9938C13.5984 13.9462 13.7018 13.8766 13.7886 13.7888C13.8759 13.7017 13.9452 13.5983 13.9924 13.4844C14.0397 13.3705 14.064 13.2484 14.064 13.125C14.064 13.0017 14.0397 12.8796 13.9924 12.7657C13.9452 12.6518 13.8759 12.5484 13.7886 12.4613L11.9136 10.5863C11.8265 10.499 11.7231 10.4297 11.6092 10.3825C11.4953 10.3352 11.3732 10.3109 11.2499 10.3109C11.1265 10.3109 11.0044 10.3352 10.8905 10.3825C10.7766 10.4297 10.6732 10.499 10.5861 10.5863L8.7111 12.4613C8.62394 12.5485 8.55479 12.6519 8.50762 12.7658C8.46045 12.8797 8.43617 13.0018 8.43617 13.125C8.43617 13.2483 8.46045 13.3704 8.50762 13.4843C8.55479 13.5982 8.62394 13.7016 8.7111 13.7888C8.79826 13.876 8.90174 13.9451 9.01563 13.9923C9.12952 14.0395 9.25158 14.0637 9.37485 14.0637C9.49812 14.0637 9.62018 14.0395 9.73407 13.9923C9.84796 13.9451 9.95144 13.876 10.0386 13.7888ZM47.5386 13.7888L47.8123 13.5132V22.5C47.8123 22.7487 47.9111 22.9871 48.0869 23.163C48.2628 23.3388 48.5012 23.4375 48.7498 23.4375C48.9985 23.4375 49.2369 23.3388 49.4128 23.163C49.5886 22.9871 49.6873 22.7487 49.6873 22.5V13.5132L49.9611 13.7888C50.0479 13.8766 50.1513 13.9462 50.2652 13.9938C50.3792 14.0413 50.5014 14.0658 50.6248 14.0658C50.7483 14.0658 50.8705 14.0413 50.9845 13.9938C51.0984 13.9462 51.2018 13.8766 51.2886 13.7888C51.3759 13.7017 51.4452 13.5983 51.4924 13.4844C51.5397 13.3705 51.564 13.2484 51.564 13.125C51.564 13.0017 51.5397 12.8796 51.4924 12.7657C51.4452 12.6518 51.3759 12.5484 51.2886 12.4613L49.4136 10.5863C49.3265 10.499 49.2231 10.4297 49.1092 10.3825C48.9953 10.3352 48.8732 10.3109 48.7498 10.3109C48.6265 10.3109 48.5044 10.3352 48.3905 10.3825C48.2766 10.4297 48.1732 10.499 48.0861 10.5863L46.2111 12.4613C46.1239 12.5485 46.0548 12.6519 46.0076 12.7658C45.9604 12.8797 45.9362 13.0018 45.9362 13.125C45.9362 13.2483 45.9604 13.3704 46.0076 13.4843C46.0548 13.5982 46.1239 13.7016 46.2111 13.7888C46.2983 13.876 46.4017 13.9451 46.5156 13.9923C46.6295 14.0395 46.7516 14.0637 46.8748 14.0637C46.9981 14.0637 47.1202 14.0395 47.2341 13.9923C47.348 13.9451 47.4514 13.876 47.5386 13.7888Z" fill="#FF3F40"/>
<path fill-rule="evenodd" clip-rule="evenodd" d="M39.943 13.8825C40.0325 13.7961 40.1039 13.6926 40.1531 13.5782C40.2022 13.4639 40.2281 13.3408 40.2291 13.2164C40.2302 13.0919 40.2065 12.9684 40.1594 12.8532C40.1122 12.738 40.0426 12.6333 39.9546 12.5453C39.8666 12.4573 39.7619 12.3877 39.6467 12.3405C39.5315 12.2934 39.408 12.2697 39.2835 12.2707C39.1591 12.2718 39.036 12.2977 38.9217 12.3468C38.8073 12.396 38.7038 12.4674 38.6174 12.5569C38.4466 12.7337 38.3521 12.9706 38.3542 13.2164C38.3564 13.4622 38.455 13.6973 38.6288 13.8711C38.8026 14.0449 39.0377 14.1435 39.2835 14.1457C39.5293 14.1478 39.7662 14.0533 39.943 13.8825Z" fill="#FF3F40"/>
</svg>
