<svg width="52" height="60" viewBox="0 0 52 60" fill="none" xmlns="http://www.w3.org/2000/svg">
<path fill-rule="evenodd" clip-rule="evenodd" d="M22.1048 43.0744C22.9009 42.6003 23.7858 42.2946 24.7048 42.1762C25.8197 42.0311 26.8854 41.6249 27.8145 40.9918C28.7436 40.3587 29.5106 39.5158 30.0535 38.5312C30.9229 36.9594 31.991 35.0256 33.0073 33.1856L34.8416 34.1975L31.8929 39.545C31.3489 40.5309 31.0449 41.6312 31.0054 42.7566C30.9658 43.8819 31.192 45.0008 31.6654 46.0225C32.115 46.9817 32.331 48.0338 32.2957 49.0925C32.2604 50.1513 31.9748 51.1866 31.4623 52.1137C29.9454 54.8631 26.7854 56.1369 23.8779 55.3862C23.6371 55.3241 23.3815 55.3601 23.1673 55.4864C22.9531 55.6127 22.7979 55.8189 22.7357 56.0597C22.6735 56.3004 22.7096 56.556 22.8359 56.7702C22.9622 56.9844 23.1684 57.1397 23.4091 57.2019C27.126 58.1612 31.1654 56.5337 33.1041 53.0194C33.7592 51.8341 34.1244 50.5105 34.1698 49.157C34.2152 47.8035 33.9396 46.4584 33.3654 45.2319C33.0164 44.4775 32.8499 43.6516 32.8794 42.821C32.9088 41.9904 33.1333 41.1784 33.5348 40.4506L36.9366 34.2819C36.9961 34.1741 37.0338 34.0556 37.0475 33.9332C37.0611 33.8109 37.0506 33.687 37.0164 33.5687C36.9822 33.4505 36.9251 33.3401 36.8482 33.2439C36.7714 33.1477 36.6763 33.0676 36.5685 33.0081L33.0923 31.0912C32.9845 31.0318 32.866 30.9941 32.7436 30.9804C32.6213 30.9667 32.4974 30.9773 32.3792 31.0115C32.2609 31.0457 32.1505 31.1028 32.0543 31.1797C31.9581 31.2565 31.878 31.3515 31.8185 31.4594C30.6748 33.5306 29.4129 35.8162 28.4123 37.6244L28.4116 37.6256C28.0109 38.3525 27.4447 38.9748 26.7588 39.4423C26.0729 39.9097 25.2866 40.2091 24.4635 40.3162C23.2948 40.4675 22.1629 40.8575 21.1448 41.4637C20.9407 41.5956 20.7958 41.8014 20.7404 42.038C20.6851 42.2745 20.7237 42.5233 20.8481 42.732C20.9724 42.9407 21.1729 43.093 21.4073 43.1568C21.6417 43.2207 21.8917 43.1911 22.1048 43.0744ZM22.1935 51.0344C22.5964 51.6365 23.1475 52.125 23.7937 52.4527C24.4399 52.7804 25.1595 52.9364 25.8834 52.9058C26.6073 52.8751 27.3112 52.6587 27.9273 52.2774C28.5434 51.8962 29.0511 51.3629 29.4016 50.7287C29.7213 50.1485 29.9 49.5013 29.9233 48.8393C29.9466 48.1773 29.8139 47.5191 29.5359 46.9178C29.2579 46.3166 28.8423 45.7892 28.3228 45.3782C27.8034 44.9672 27.1945 44.6841 26.5454 44.5519C26.3017 44.5024 26.0484 44.5518 25.8411 44.689C25.6338 44.8262 25.4895 45.0401 25.4398 45.2837C25.3906 45.5274 25.4401 45.7806 25.5774 45.9878C25.7147 46.195 25.9287 46.3392 26.1723 46.3887C26.5331 46.4623 26.8717 46.6197 27.1605 46.8482C27.4493 47.0768 27.6803 47.37 27.8348 47.7043C27.9893 48.0386 28.0631 48.4046 28.05 48.7727C28.037 49.1407 27.9376 49.5006 27.7598 49.8231C27.5651 50.1756 27.283 50.4721 26.9407 50.6842C26.5984 50.8962 26.2072 51.0167 25.8049 51.0339C25.4026 51.0512 25.0026 50.9647 24.6433 50.7827C24.2841 50.6008 23.9777 50.3295 23.7535 49.995C23.6132 49.7941 23.3997 49.6562 23.159 49.6107C22.9182 49.5653 22.6691 49.6159 22.4652 49.7518C22.2613 49.8876 22.1187 50.0979 22.0679 50.3377C22.0171 50.5774 22.0622 50.8275 22.1935 51.0344Z" fill="#FF3F40"/>
<path fill-rule="evenodd" clip-rule="evenodd" d="M51.0096 22.8756C51.1881 22.5521 51.301 22.1967 51.3421 21.8297C51.3831 21.4626 51.3515 21.091 51.2489 20.7362C51.1464 20.3813 50.9749 20.0502 50.7444 19.7616C50.5138 19.473 50.2287 19.2327 49.9053 19.0543L37.7778 12.3662C37.1244 12.0068 36.3552 11.9213 35.6389 12.1285C34.9226 12.3356 34.3178 12.8185 33.9571 13.4712L26.7571 26.5268C26.5787 26.8502 26.4658 27.2056 26.4247 27.5727C26.3837 27.9398 26.4153 28.3113 26.5179 28.6662C26.6204 29.021 26.7919 29.3522 27.0224 29.6407C27.253 29.9293 27.5381 30.1697 27.8615 30.348L39.989 37.0362C40.6424 37.3956 41.4116 37.4811 42.1279 37.2739C42.8442 37.0667 43.449 36.5838 43.8096 35.9312L51.0096 22.8756ZM49.3678 21.9699L42.1678 35.0256C42.1087 35.1336 42.0288 35.229 41.9327 35.3061C41.8366 35.3831 41.7262 35.4405 41.6079 35.4747C41.4896 35.509 41.3657 35.5196 41.2432 35.5057C41.1208 35.4919 41.0024 35.4541 40.8946 35.3943L28.7671 28.7062C28.6593 28.6467 28.5643 28.5666 28.4874 28.4704C28.4106 28.3742 28.3535 28.2638 28.3193 28.1455C28.2851 28.0273 28.2745 27.9034 28.2882 27.7811C28.3019 27.6587 28.3396 27.5402 28.399 27.4324L35.599 14.3768C35.6584 14.2689 35.7384 14.1737 35.8346 14.0968C35.9307 14.0198 36.0411 13.9626 36.1594 13.9283C36.2777 13.8941 36.4016 13.8835 36.524 13.8972C36.6464 13.9108 36.7649 13.9485 36.8728 14.008L48.9996 20.6962C49.1075 20.7556 49.2025 20.8358 49.2793 20.9319C49.3562 21.0281 49.4133 21.1385 49.4475 21.2568C49.4817 21.3751 49.4923 21.4989 49.4786 21.6213C49.4649 21.7437 49.4272 21.8621 49.3678 21.9699Z" fill="#FF3F40"/>
<path fill-rule="evenodd" clip-rule="evenodd" d="M41.7153 27.3337L45.7184 29.5412C45.8262 29.6007 45.9447 29.6383 46.067 29.652C46.1894 29.6657 46.3132 29.6551 46.4315 29.6209C46.5498 29.5868 46.6602 29.5296 46.7564 29.4528C46.8526 29.3759 46.9327 29.2809 46.9922 29.1731C47.0516 29.0653 47.0893 28.9468 47.1029 28.8245C47.1166 28.7021 47.1061 28.5782 47.0719 28.46C47.0377 28.3417 46.9806 28.2313 46.9037 28.1351C46.8269 28.0389 46.7318 27.9588 46.624 27.8993L42.6209 25.6918C42.4032 25.5717 42.1467 25.5431 41.9078 25.6121C41.6689 25.6811 41.4672 25.8422 41.3472 26.06C41.2271 26.2777 41.1984 26.5342 41.2674 26.7731C41.3364 27.0119 41.4976 27.2136 41.7153 27.3337ZM33.614 22.8656L35.5547 23.9362C35.772 24.0517 36.0261 24.077 36.2619 24.0068C36.4978 23.9365 36.6966 23.7763 36.8154 23.5608C36.9343 23.3453 36.9635 23.0916 36.897 22.8547C36.8304 22.6177 36.6733 22.4165 36.4597 22.2943L34.519 21.2237C34.4111 21.162 34.2919 21.1224 34.1685 21.1072C34.0451 21.0919 33.9199 21.1014 33.8002 21.1351C33.6805 21.1687 33.5687 21.2258 33.4713 21.3031C33.3739 21.3803 33.2928 21.4762 33.2327 21.5851C33.1727 21.694 33.135 21.8137 33.1217 21.9373C33.1084 22.061 33.1198 22.186 33.1553 22.3052C33.1908 22.4243 33.2496 22.5352 33.3283 22.6315C33.4071 22.7277 33.5042 22.8073 33.614 22.8656Z" fill="#FF3F40"/>
<path fill-rule="evenodd" clip-rule="evenodd" d="M40.9223 21.0043C39.9417 20.464 38.7867 20.3351 37.7112 20.6461C36.6357 20.957 35.7276 21.6823 35.1866 22.6625C34.6463 23.643 34.5174 24.798 34.8284 25.8735C35.1393 26.9491 35.8646 27.8571 36.8448 28.3981C37.8253 28.9384 38.9803 29.0673 40.0558 28.7564C41.1314 28.4455 42.0394 27.7202 42.5804 26.74C43.1207 25.7594 43.2496 24.6044 42.9387 23.5289C42.6278 22.4534 41.9025 21.5453 40.9223 21.0043ZM40.0173 22.6462C40.4239 22.8704 40.7549 23.2102 40.9684 23.6226C41.1819 24.0349 41.2683 24.5013 41.2167 24.9627C41.1651 25.4242 40.9778 25.86 40.6785 26.215C40.3792 26.57 39.9814 26.8283 39.5353 26.9572C39.0892 27.0861 38.6149 27.0797 38.1724 26.939C37.7299 26.7983 37.3391 26.5296 37.0493 26.1667C36.7596 25.8039 36.5839 25.3633 36.5446 24.9006C36.5053 24.4379 36.6041 23.974 36.8285 23.5675C37.1295 23.0228 37.6344 22.6199 38.2323 22.4471C38.8302 22.2744 39.4722 22.346 40.0173 22.6462ZM14.9579 23.3137V33.6869C14.9581 34.9216 15.2509 36.1386 15.8124 37.2383C16.3738 38.338 17.1879 39.2889 18.1879 40.0131C19.4727 40.906 20.5215 42.0975 21.2442 43.4852C21.9668 44.8729 22.3417 46.4154 22.3366 47.98C22.3366 53.4068 17.9304 57.8125 12.5041 57.8125C7.07727 57.8125 2.67165 53.4068 2.67165 47.98C2.67165 44.6781 4.30352 41.7537 6.80415 39.97C7.795 39.2499 8.60152 38.3058 9.15787 37.2146C9.71422 36.1234 10.0046 34.9161 10.0054 33.6912C10.0241 31.2787 10.0298 29.1594 10.0341 26.8044C10.0346 26.5557 9.93619 26.3171 9.76066 26.141C9.58514 25.9649 9.34685 25.8657 9.09821 25.8653C8.84957 25.8649 8.61095 25.9632 8.43484 26.1388C8.25873 26.3143 8.15956 26.5526 8.15915 26.8012C8.15477 29.1525 8.14915 31.2694 8.1304 33.6794V33.6869C8.13048 34.615 7.91126 35.5299 7.4906 36.3573C7.06995 37.1846 6.45976 37.9008 5.70977 38.4475C2.73602 40.5712 0.796647 44.0512 0.796647 47.98C0.796647 54.4418 6.0429 59.6875 12.5041 59.6875C18.9654 59.6875 24.2116 54.4418 24.2116 47.98C24.2116 44.0468 22.2679 40.5644 19.2635 38.4768C18.5103 37.9258 17.8976 37.2049 17.4752 36.3726C17.0529 35.5403 16.8328 34.6202 16.8329 33.6869V23.3137C16.824 23.071 16.7214 22.8412 16.5465 22.6726C16.3717 22.504 16.1383 22.4098 15.8954 22.4098C15.6525 22.4098 15.4191 22.504 15.2443 22.6726C15.0694 22.8412 14.9668 23.071 14.9579 23.3137ZM14.8198 43.3506C13.7061 42.737 12.3943 42.5906 11.1728 42.9438C9.95127 43.2969 8.91991 44.1205 8.3054 45.2337C7.69214 46.3474 7.54601 47.6589 7.8991 48.8803C8.25218 50.1016 9.07562 51.1328 10.1885 51.7475C11.3022 52.3611 12.614 52.5074 13.8355 52.1543C15.057 51.8012 16.0884 50.9775 16.7029 49.8643C17.3162 48.7507 17.4623 47.4391 17.1092 46.2178C16.7561 44.9965 15.9327 43.9652 14.8198 43.3506ZM13.9141 44.9925C14.5918 45.3667 15.0933 45.9946 15.3083 46.7383C15.5233 47.482 15.4344 48.2806 15.061 48.9587C14.2823 50.37 12.5054 50.8837 11.0941 50.1056C9.6829 49.3275 9.16915 47.55 9.94727 46.1394C10.3215 45.4615 10.9495 44.9599 11.6933 44.7449C12.4372 44.5298 13.2359 44.6189 13.9141 44.9925Z" fill="#FF3F40"/>
<path fill-rule="evenodd" clip-rule="evenodd" d="M24.3684 3.12492C24.3684 2.379 24.0721 1.66363 23.5446 1.13619C23.0172 0.60874 22.3018 0.312424 21.5559 0.312424H3.45212C2.7062 0.312424 1.99083 0.60874 1.46338 1.13619C0.935934 1.66363 0.639618 2.379 0.639618 3.12492V21.4387C0.639618 22.1846 0.935934 22.9 1.46338 23.4274C1.99083 23.9549 2.7062 24.2512 3.45212 24.2512H21.5559C22.3018 24.2512 23.0172 23.9549 23.5446 23.4274C24.0721 22.9 24.3684 22.1846 24.3684 21.4387V3.12492ZM22.4934 3.12492V21.4387C22.4934 21.6873 22.3946 21.9258 22.2188 22.1016C22.043 22.2774 21.8045 22.3762 21.5559 22.3762H3.45212C3.20348 22.3762 2.96502 22.2774 2.78921 22.1016C2.61339 21.9258 2.51462 21.6873 2.51462 21.4387V3.12492C2.51462 2.87628 2.61339 2.63783 2.78921 2.46201C2.96502 2.2862 3.20348 2.18742 3.45212 2.18742H21.5559C21.8045 2.18742 22.043 2.2862 22.2188 2.46201C22.3946 2.63783 22.4934 2.87628 22.4934 3.12492Z" fill="#FF3F40"/>
<path fill-rule="evenodd" clip-rule="evenodd" d="M19.7203 13.2193H22.904C23.1527 13.2193 23.3911 13.1206 23.5669 12.9448C23.7427 12.7689 23.8415 12.5305 23.8415 12.2818C23.8415 12.0332 23.7427 11.7947 23.5669 11.6189C23.3911 11.4431 23.1527 11.3443 22.904 11.3443H19.7203C19.4716 11.3443 19.2332 11.4431 19.0574 11.6189C18.8815 11.7947 18.7828 12.0332 18.7828 12.2818C18.7828 12.5305 18.8815 12.7689 19.0574 12.9448C19.2332 13.1206 19.4716 13.2193 19.7203 13.2193ZM2.10402 13.2193H8.47027C8.71891 13.2193 8.95737 13.1206 9.13318 12.9448C9.309 12.7689 9.40777 12.5305 9.40777 12.2818C9.40777 12.0332 9.309 11.7947 9.13318 11.6189C8.95737 11.4431 8.71891 11.3443 8.47027 11.3443H2.10402C1.85538 11.3443 1.61692 11.4431 1.44111 11.6189C1.26529 11.7947 1.16652 12.0332 1.16652 12.2818C1.16652 12.5305 1.26529 12.7689 1.44111 12.9448C1.61692 13.1206 1.85538 13.2193 2.10402 13.2193Z" fill="#FF3F40"/>
<path fill-rule="evenodd" clip-rule="evenodd" d="M14.8198 8.08374C13.7061 7.47012 12.3944 7.32378 11.1728 7.6769C9.95131 8.03001 8.91996 8.85367 8.30545 9.96687C7.69219 11.0805 7.54606 12.3921 7.89915 13.6134C8.25223 14.8347 9.07567 15.866 10.1886 16.4806C11.3023 17.0941 12.614 17.2403 13.8355 16.8872C15.057 16.5341 16.0883 15.7106 16.7029 14.5975C17.3162 13.4838 17.4623 12.1723 17.1092 10.9509C16.7562 9.72962 15.9327 8.69837 14.8198 8.08374ZM13.9142 9.72562C14.5919 10.0998 15.0933 10.7277 15.3084 11.4714C15.5234 12.2151 15.4345 13.0137 15.0611 13.6919C14.2823 15.1031 12.5054 15.6169 11.0942 14.8387C9.68295 14.0606 9.1692 12.2831 9.94732 10.8719C10.3216 10.1941 10.9497 9.6927 11.6935 9.47777C12.4374 9.26284 13.2361 9.35198 13.9142 9.72562Z" fill="#FF3F40"/>
</svg>
