<svg width="60" height="60" viewBox="0 0 60 60" fill="none" xmlns="http://www.w3.org/2000/svg">
<g clip-path="url(#clip0_89_118)">
<path d="M20.5688 51.7L29.6058 55.568C29.7303 55.6214 29.8644 55.6489 29.9998 55.6489C30.1353 55.6489 30.2693 55.6214 30.3938 55.568L39.4308 51.7C41.6483 50.6666 43.4531 48.9164 44.5541 46.7317C45.6552 44.5471 45.9883 42.0552 45.4998 39.658L43.6578 29.616C43.6184 29.4022 43.5104 29.2072 43.3501 29.0603C43.1899 28.9134 42.9862 28.8227 42.7698 28.802C38.4523 28.4817 34.2634 27.1873 30.5178 25.016C30.3614 24.921 30.1818 24.8708 29.9988 24.8708C29.8158 24.8708 29.6363 24.921 29.4798 25.016C25.7347 27.1864 21.5465 28.4801 17.2298 28.8C17.0134 28.8207 16.8097 28.9114 16.6495 29.0583C16.4893 29.2052 16.3812 29.4002 16.3418 29.614L14.4998 39.656C14.0117 42.0534 14.345 44.5454 15.446 46.7303C16.547 48.9152 18.3515 50.6658 20.5688 51.7ZM16.4628 40.018L18.1728 30.718C22.3254 30.3093 26.3503 29.0548 29.9998 27.032C33.6499 29.0536 37.6752 30.3067 41.8278 30.714L43.5378 40.02C43.9456 41.9712 43.6849 44.003 42.7974 45.788C41.91 47.5729 40.4476 49.0073 38.6458 49.86L29.9998 53.561L21.3558 49.861C19.5538 49.0076 18.0913 47.5728 17.2038 45.7873C16.3162 44.0019 16.0552 41.9698 16.4628 40.018Z" fill="#FF3F40"/>
<path d="M0.031812 50.927C0.0923356 51.2607 0.237481 51.5733 0.453362 51.8349C0.669243 52.0965 0.948637 52.2983 1.26481 52.421L5.53581 54.106L6.75581 58.526C6.84556 58.856 7.01844 59.1575 7.25793 59.4017C7.49742 59.6458 7.79551 59.8245 8.12374 59.9206C8.45197 60.0167 8.79935 60.027 9.13271 59.9506C9.46606 59.8741 9.77424 59.7135 10.0278 59.484L16.3158 53.832C17.1487 54.4473 18.0492 54.9654 18.9998 55.376L29.6098 59.919C29.7343 59.9724 29.8684 59.9999 30.0038 59.9999C30.1393 59.9999 30.2733 59.9724 30.3978 59.919L40.9998 55.376C41.949 54.9651 42.8482 54.4471 43.6798 53.832L49.9698 59.486C50.2235 59.715 50.5317 59.8752 50.8649 59.9512C51.1982 60.0272 51.5453 60.0166 51.8732 59.9203C52.2012 59.8241 52.499 59.6453 52.7382 59.4012C52.9775 59.1572 53.1502 58.8558 53.2398 58.526L54.4548 54.1L58.7348 52.42C59.051 52.2944 59.33 52.0902 59.5452 51.8268C59.7605 51.5633 59.905 51.2493 59.9651 50.9144C60.0252 50.5795 59.9988 50.2348 59.8885 49.9129C59.7782 49.5911 59.5877 49.3027 59.3348 49.075L49.6228 40.345C49.5808 39.875 49.5228 39.405 49.4348 38.934L47.0228 25.8C46.9813 25.5729 46.8625 25.3672 46.6867 25.2178C46.5108 25.0683 46.2886 24.9843 46.0578 24.98C39.6068 24.865 34.4148 23.264 30.6248 20.222C30.4474 20.0797 30.2267 20.0022 29.9993 20.0022C29.7719 20.0022 29.5513 20.0797 29.3738 20.222C25.5828 23.265 20.3908 24.866 13.9418 24.981C13.711 24.9853 13.4889 25.0693 13.313 25.2188C13.1371 25.3682 13.0183 25.5739 12.9768 25.801L10.5618 38.934C10.4748 39.405 10.4158 39.876 10.3738 40.346L0.657812 49.08C0.404515 49.3089 0.21401 49.5987 0.104433 49.922C-0.00514349 50.2453 -0.0301438 50.5913 0.031812 50.927ZM53.7068 52.246C53.4236 52.3635 53.1708 52.5442 52.9679 52.7741C52.765 53.0041 52.6172 53.2773 52.5358 53.573L51.3088 58L45.2278 52.533C47.7781 49.9944 49.3384 46.6288 49.6278 43.042L58.0028 50.564L53.7068 52.246ZM12.5288 39.3L14.7998 26.957C20.9908 26.727 26.0998 25.149 29.9998 22.263C33.8998 25.149 39.0098 26.727 45.1998 26.957L47.4708 39.3C48.0385 42.1436 47.6315 45.0956 46.3156 47.6796C44.9997 50.2635 42.8515 52.3287 40.2178 53.542L29.9998 57.912L19.7818 53.538C17.1489 52.3249 15.0013 50.2603 13.6854 47.6772C12.3695 45.0941 11.9621 42.143 12.5288 39.3ZM10.3698 43.039C10.6602 46.6252 12.2203 49.9902 14.7698 52.529L8.68381 57.994L7.46581 53.582C7.38374 53.2817 7.23362 53.0044 7.02708 52.7715C6.82054 52.5386 6.56313 52.3564 6.27481 52.239L1.99981 50.564L10.3698 43.039ZM39.0468 7.855C38.9386 7.52607 38.7463 7.23114 38.489 6.99943C38.2317 6.76772 37.9182 6.60727 37.5798 6.534L33.6908 5.678L31.7498 2.127C31.5781 1.81267 31.325 1.55024 31.0172 1.36712C30.7094 1.184 30.358 1.08691 29.9998 1.086C29.6415 1.0909 29.2908 1.1897 28.9827 1.37255C28.6746 1.5554 28.4198 1.81588 28.2438 2.128L26.2998 5.681L22.4128 6.542C22.075 6.61664 21.7623 6.77764 21.5053 7.00926C21.2483 7.24089 21.0558 7.53522 20.9466 7.86349C20.8374 8.19177 20.8152 8.54276 20.8822 8.88218C20.9492 9.2216 21.1031 9.53784 21.3288 9.8L24.0488 12.957L23.6238 17.141C23.5881 17.4932 23.6466 17.8487 23.7932 18.1709C23.9398 18.4932 24.1694 18.7707 24.4584 18.9753C24.7474 19.1798 25.0855 19.3039 25.4382 19.3349C25.7909 19.366 26.1455 19.3029 26.4658 19.152L29.9998 17.485L33.5378 19.149C33.8575 19.3022 34.2126 19.3665 34.5657 19.3352C34.9189 19.3039 35.257 19.1781 35.5448 18.971C35.834 18.7663 36.0636 18.4884 36.2101 18.1658C36.3567 17.8432 36.4149 17.4875 36.3788 17.135L35.9488 12.951L38.6658 9.792C38.8927 9.53037 39.0472 9.21397 39.114 8.87419C39.1809 8.53441 39.1577 8.18306 39.0468 7.855ZM34.4338 11.647C34.2565 11.8532 34.1232 12.0933 34.0418 12.3528C33.9605 12.6122 33.9329 12.8855 33.9608 13.156L34.3958 17.341H34.3908L30.8528 15.677C30.5862 15.5514 30.2951 15.4862 30.0003 15.4862C29.7056 15.4862 29.4144 15.5514 29.1478 15.677L25.6128 17.345L26.0388 13.161C26.0657 12.8906 26.0375 12.6175 25.9558 12.3583C25.8742 12.0991 25.7408 11.8592 25.5638 11.653L22.8448 8.495L26.7328 7.634C27.0115 7.57231 27.2737 7.45169 27.5019 7.28025C27.7301 7.1088 27.919 6.89049 28.0558 6.64L29.9998 3.086L31.9418 6.637C32.0787 6.8876 32.2678 7.10598 32.4961 7.27743C32.7245 7.44889 32.987 7.56945 33.2658 7.631L37.1548 8.488L34.4338 11.647ZM42.1838 21.45C42.4194 21.7143 42.7209 21.9113 43.0575 22.0209C43.3941 22.1306 43.7538 22.1489 44.0998 22.074L47.2538 21.392L49.7898 23.392C50.0686 23.6114 50.4008 23.7527 50.7523 23.8014C51.1038 23.8501 51.4618 23.8044 51.7898 23.669C52.1184 23.5364 52.4053 23.318 52.6204 23.0365C52.8356 22.755 52.9711 22.4208 53.0128 22.069L53.4478 18.607L56.2478 16.554C56.5269 16.3493 56.7481 16.0757 56.8898 15.76C57.0314 15.4442 57.0888 15.0971 57.0561 14.7526C57.0235 14.408 56.902 14.0778 56.7035 13.7943C56.505 13.5108 56.2364 13.2836 55.9238 13.135L52.9348 11.71L52.0348 8.492C51.938 8.14628 51.7498 7.833 51.4902 7.58505C51.2305 7.3371 50.9089 7.16361 50.5591 7.08281C50.2093 7.002 49.8441 7.01685 49.502 7.1258C49.1599 7.23475 48.8535 7.43378 48.6148 7.702L46.3928 10.202L43.0928 10.171C42.7473 10.171 42.4075 10.259 42.1054 10.4266C41.8033 10.5942 41.5487 10.8359 41.3658 11.129C41.1838 11.4232 41.082 11.7599 41.0704 12.1057C41.0588 12.4515 41.1379 12.7943 41.2998 13.1L42.9148 16.169L41.7878 19.475C41.6732 19.8098 41.6495 20.169 41.719 20.516C41.7886 20.863 41.949 21.1853 42.1838 21.45ZM46.3698 12.2C46.6564 12.211 46.9417 12.1563 47.2039 12.0402C47.4661 11.9241 47.6983 11.7496 47.8828 11.53L50.1048 9.03L51.0048 12.249C51.0819 12.5239 51.2169 12.7791 51.4007 12.9974C51.5846 13.2158 51.8131 13.3923 52.0708 13.515L55.0548 14.934L52.2598 16.984C52.0412 17.146 51.8577 17.3505 51.7202 17.5852C51.5827 17.82 51.4941 18.0801 51.4598 18.35L51.0298 21.816L48.4938 19.816C48.2624 19.6339 47.9936 19.5051 47.7066 19.4389C47.4197 19.3727 47.1216 19.3707 46.8338 19.433L43.6788 20.116L44.7998 16.814C44.887 16.5566 44.9211 16.2843 44.8999 16.0134C44.8788 15.7425 44.8029 15.4787 44.6768 15.238L43.0628 12.169L46.3698 12.2ZM18.6408 11.127C18.4643 10.8341 18.2149 10.5919 17.917 10.424C17.6191 10.2561 17.2828 10.1683 16.9408 10.169H16.9198L13.6198 10.2L11.3888 7.7C11.1502 7.43177 10.8438 7.23271 10.5018 7.12369C10.1597 7.01468 9.79467 6.99974 9.44487 7.08044C9.09506 7.16114 8.77343 7.33451 8.51372 7.58234C8.254 7.83018 8.06579 8.14335 7.96881 8.489L7.06881 11.708L4.08181 13.129C3.76904 13.2775 3.50018 13.5047 3.30156 13.7883C3.10293 14.072 2.98134 14.4023 2.94869 14.747C2.91603 15.0917 2.97343 15.439 3.11526 15.7549C3.25709 16.0707 3.4785 16.3444 3.75781 16.549L6.55781 18.6L6.99281 22.063C7.05323 22.5465 7.28804 22.9912 7.65316 23.3138C8.01828 23.6364 8.4886 23.8146 8.97581 23.815C9.42436 23.8154 9.86003 23.665 10.2128 23.388L12.7488 21.388L15.9028 22.07C16.2489 22.1449 16.6087 22.1265 16.9454 22.0168C17.2821 21.9071 17.5836 21.71 17.8192 21.4455C18.0547 21.1811 18.2158 20.8589 18.286 20.5118C18.3563 20.1647 18.3331 19.8052 18.2188 19.47L17.0918 16.17L18.6998 13.1C18.8633 12.7947 18.9439 12.4518 18.9335 12.1056C18.9232 11.7594 18.8223 11.422 18.6408 11.127ZM15.3188 15.238C15.1927 15.4789 15.1168 15.7428 15.0957 16.0139C15.0745 16.285 15.1086 16.5575 15.1958 16.815L16.3228 20.115L13.1698 19.433C12.8819 19.3704 12.5837 19.3722 12.2966 19.4382C12.0094 19.5042 11.7404 19.6329 11.5088 19.815L8.97381 21.815L8.53881 18.35C8.5042 18.0806 8.4155 17.821 8.27802 17.5868C8.14054 17.3526 7.95713 17.1485 7.73881 16.987L4.93881 14.936L7.92281 13.517C8.18055 13.3943 8.40904 13.2178 8.59291 12.9994C8.77678 12.7811 8.91177 12.5259 8.98881 12.251L9.88881 9.032L12.1108 11.532C12.2996 11.7462 12.5324 11.9171 12.7934 12.033C13.0544 12.1488 13.3373 12.2068 13.6228 12.203L16.9228 12.171L15.3188 15.238Z" fill="#FF3F40"/>
</g>
<defs>
<clipPath id="clip0_89_118">
<rect width="60" height="60" fill="white"/>
</clipPath>
</defs>
</svg>
