<svg width="1959" height="1347" viewBox="0 0 1959 1347" fill="none" xmlns="http://www.w3.org/2000/svg">
<g opacity="0.5" filter="url(#filter0_f_2041_2695)">
<ellipse cx="979.392" cy="673.294" rx="577.195" ry="189.434" transform="rotate(17.1595 979.392 673.294)" fill="#0000FF"/>
<path d="M1530.42 843.438C1522.77 868.216 1500.15 887.176 1465.62 900.189C1431.1 913.199 1384.76 920.227 1329.83 921.196C1219.98 923.133 1075.91 900.831 923.65 853.818C771.394 806.804 639.825 743.993 550.19 680.459C505.371 648.691 471.06 616.759 449.884 586.552C428.704 556.338 420.716 527.928 428.367 503.15C436.018 478.371 458.633 459.411 493.16 446.398C527.68 433.388 574.021 426.36 628.949 425.391C738.8 423.454 882.877 445.756 1035.13 492.769C1187.39 539.783 1318.96 602.594 1408.59 666.128C1453.41 697.896 1487.72 729.828 1508.9 760.036C1530.08 790.249 1538.07 818.659 1530.42 843.438Z" stroke="black"/>
</g>
<defs>
<filter id="filter0_f_2041_2695" x="0.422455" y="0.175354" width="1957.94" height="1346.24" filterUnits="userSpaceOnUse" color-interpolation-filters="sRGB">
<feFlood flood-opacity="0" result="BackgroundImageFix"/>
<feBlend mode="normal" in="SourceGraphic" in2="BackgroundImageFix" result="shape"/>
<feGaussianBlur stdDeviation="212.3" result="effect1_foregroundBlur_2041_2695"/>
</filter>
</defs>
</svg>
