<svg width="59" height="59" viewBox="0 0 59 59" fill="none" xmlns="http://www.w3.org/2000/svg">
<path d="M3.72572 23.8645L14.1466 32.2013C15.535 33.3119 16.2291 33.8672 17.0021 34.2622C17.6879 34.6125 18.4179 34.8686 19.1723 35.0234C20.0226 35.1979 20.9116 35.1979 22.6895 35.1979H35.8875C37.6654 35.1979 38.5544 35.1979 39.4047 35.0234C40.1591 34.8686 40.8891 34.6125 41.5748 34.2622C42.3478 33.8672 43.042 33.3119 44.4303 32.2013L54.8513 23.8645M3.72572 23.8645C3.64746 25.1964 3.64746 26.8337 3.64746 28.9301V41.4657C3.64746 46.2525 3.64746 48.6459 4.57903 50.4742C5.39846 52.0824 6.70599 53.3899 8.31421 54.2094C10.1425 55.1409 12.5359 55.1409 17.3227 55.1409H41.2543C46.0411 55.1409 48.4345 55.1409 50.2628 54.2094C51.871 53.3899 53.1785 52.0824 53.9979 50.4742C54.9295 48.6459 54.9295 46.2525 54.9295 41.4657V28.9301C54.9295 26.8337 54.9295 25.1964 54.8513 23.8645M3.72572 23.8645C3.82614 22.1553 4.05545 20.9492 4.57903 19.9216C5.39846 18.3134 6.70599 17.0059 8.31421 16.1865C10.1425 15.2549 12.5359 15.2549 17.3227 15.2549H17.8925M54.8513 23.8645C54.7508 22.1553 54.5215 20.9492 53.9979 19.9216C53.1785 18.3134 51.871 17.0059 50.2628 16.1865C48.4345 15.2549 46.0411 15.2549 41.2543 15.2549H40.6845M17.8925 15.2549V12.4059C17.8925 7.68551 21.7191 3.85889 26.4395 3.85889H32.1375C36.8579 3.85889 40.6845 7.68551 40.6845 12.4059V15.2549M17.8925 15.2549H40.6845" stroke="#A1AAB7" stroke-width="4.00641" stroke-linecap="round" stroke-linejoin="round"/>
</svg>
