<svg width="63" height="54" viewBox="0 0 63 54" fill="none" xmlns="http://www.w3.org/2000/svg">
<path opacity="0.5" d="M11.5518 45.23C11.5518 48.6043 14.2707 51.3398 17.6246 51.3398C20.9786 51.3398 23.6975 48.6043 23.6975 45.23M11.5518 45.23C11.5518 41.8556 14.2707 39.1202 17.6246 39.1202C20.9786 39.1202 23.6975 41.8556 23.6975 45.23M11.5518 45.23H2.44246M23.6975 45.23H26.734M41.9161 45.23C41.9161 48.6043 44.6351 51.3398 47.989 51.3398C51.343 51.3398 54.0619 48.6043 54.0619 45.23M41.9161 45.23C41.9161 41.8556 44.6351 39.1202 47.989 39.1202C51.343 39.1202 54.0619 41.8556 54.0619 45.23M41.9161 45.23H26.734M54.0619 45.23C57.4158 45.23 60.1348 42.4945 60.1348 39.1202V12.2372C60.1348 8.81539 60.1348 7.1045 59.4729 5.79754C58.8906 4.64792 57.9616 3.71324 56.8189 3.12747C55.5199 2.46155 53.8193 2.46155 50.4182 2.46155H36.4506C33.0494 2.46155 31.3489 2.46155 30.0498 3.12747C28.9071 3.71324 27.9781 4.64792 27.3959 5.79754C26.734 7.1045 26.734 8.81539 26.734 12.2372V45.23M26.734 45.23V14.6811H14.5882L5.4789 26.9007M5.4789 26.9007V45.23M5.4789 26.9007H26.734" stroke="white" stroke-width="4.00641" stroke-linecap="round" stroke-linejoin="round"/>
</svg>
