<svg width="70" height="70" viewBox="0 0 70 70" fill="none" xmlns="http://www.w3.org/2000/svg">
<path d="M52.5 52.5C52.6623 48.3389 51.1757 44.1232 48.0056 40.9531C44.8354 37.7829 40.6193 36.2959 36.4582 36.4582L45.9375 26.9789C50.3663 22.5501 57.5501 22.5501 61.9793 26.9793C66.4081 31.4081 66.4081 38.5919 61.9793 43.0207L52.5 52.5ZM35 70C35.1623 65.8389 33.6757 61.6232 30.5056 58.4531C27.3354 55.2829 23.1193 53.7959 18.9582 53.9582L28.4375 44.4789C32.865 40.0514 40.0488 40.0514 44.478 44.4806C48.9068 48.9094 48.9068 56.0932 44.4793 60.5207L35 70ZM33.5418 33.5418C33.7037 29.3803 32.2175 25.165 29.0474 21.9949C25.8773 18.8247 21.6611 17.3377 17.5 17.5L26.9793 8.02068C31.4081 3.59187 38.5914 3.59143 43.0207 8.02068C47.4499 12.4499 47.4495 19.6332 43.0207 24.0621L33.5418 33.5418ZM16.0418 51.0418C16.2037 46.8803 14.7175 42.665 11.5474 39.4949C8.37725 36.3248 4.16106 34.8377 0 35L9.47931 25.5207C13.9068 21.0932 21.0901 21.0927 25.5194 25.522C29.9486 29.9512 29.9482 37.1346 25.5207 41.5621L16.0418 51.0418Z" fill="#ECEDF1"/>
</svg>
