<svg width="70" height="70" viewBox="0 0 70 70" fill="none" xmlns="http://www.w3.org/2000/svg">
<g clip-path="url(#clip0_4040_2496)">
<g clip-path="url(#clip1_4040_2496)">
<path d="M26.5832 50.3376C26.5832 46.7781 27.3614 43.3384 28.8367 40.2122C30.2599 37.1962 29.9984 33.2908 26.8984 32.0611C24.6203 31.1574 22.1685 30.6846 19.6439 30.6846C14.3945 30.6846 9.45906 32.7288 5.74701 36.4408C-1.91567 44.1037 -1.91567 56.5717 5.74701 64.2345C12.9435 71.431 24.3782 71.8682 32.0905 65.5476C28.5254 61.2856 26.5832 55.9613 26.5832 50.3376Z" fill="#ECEDF1"/>
<path d="M65.5473 37.8906C61.2854 41.4557 55.961 43.3979 50.3374 43.3979C46.7778 43.3979 43.3381 42.6198 40.2119 41.1445C37.196 39.7212 33.2905 39.9828 32.0608 43.0827C31.1571 45.3608 30.6843 47.8127 30.6843 50.3372C30.6843 55.5867 32.7285 60.5221 36.4406 64.2341C44.1033 71.8968 56.5716 71.8968 64.2343 64.2341C71.4308 57.0375 71.8681 45.603 65.5473 37.8906ZM4.43364 32.09C8.69557 28.525 14.0199 26.5827 19.6436 26.5827C23.2032 26.5827 26.6428 27.3609 29.769 28.8362C32.785 30.2594 36.6905 29.9979 37.9202 26.8979C38.8238 24.6198 39.2966 22.168 39.2966 19.6434C39.2966 14.394 37.2524 9.45857 33.5404 5.74652C25.8777 -1.91616 13.4094 -1.91616 5.74669 5.74652C-1.44978 12.9431 -1.88701 24.3777 4.43364 32.09Z" fill="#ECEDF1"/>
<path d="M43.399 19.6436C43.399 23.2032 42.6209 26.6428 41.1456 29.769C39.7223 32.785 39.9839 36.6905 43.0838 37.9202C45.3619 38.8238 47.8138 39.2966 50.3383 39.2966C55.5878 39.2966 60.5232 37.2524 64.2352 33.5404C71.8979 25.8776 71.8979 13.4095 64.2352 5.74669C57.0386 -1.44978 45.6039 -1.887 37.8916 4.43364C41.4567 8.69557 43.399 14.0199 43.399 19.6436Z" fill="#ECEDF1"/>
</g>
</g>
<defs>
<clipPath id="clip0_4040_2496">
<rect width="70" height="69.9999" fill="white"/>
</clipPath>
<clipPath id="clip1_4040_2496">
<rect width="70" height="70" fill="white"/>
</clipPath>
</defs>
</svg>
