<svg width="70" height="70" viewBox="0 0 70 70" fill="none" xmlns="http://www.w3.org/2000/svg">
<g clip-path="url(#clip0_4040_2495)">
<g clip-path="url(#clip1_4040_2495)">
<path d="M23.4277 0C20.114 0 17.4277 2.68629 17.4277 6V46.5726C17.4277 49.8863 20.114 52.5726 23.4277 52.5726H64.0003C67.314 52.5726 70.0003 49.8863 70.0003 46.5726V6C70.0003 2.68629 67.314 0 64.0003 0H23.4277ZM61.2867 37.8589C61.2867 41.1727 58.6004 43.859 55.2867 43.859H32.1414C28.8277 43.859 26.1414 41.1727 26.1414 37.859V14.7136C26.1414 11.3999 28.8277 8.71363 32.1414 8.71363H55.2866C58.6003 8.71363 61.2866 11.3999 61.2866 14.7136L61.2867 37.8589Z" fill="#ECEDF1"/>
<path d="M8.71363 23.4272C8.71363 20.1135 6.02734 17.4272 2.71363 17.4272H0V63.9998C0 67.3136 2.68629 69.9998 6 69.9998H52.5726V67.2862C52.5726 63.9725 49.8863 61.2862 46.5726 61.2862H14.7136C11.3999 61.2862 8.71363 58.5999 8.71363 55.2862V23.4272Z" fill="#ECEDF1"/>
<path d="M43.7136 35C48.526 35 52.4273 31.0988 52.4273 26.2864C52.4273 21.474 48.526 17.5728 43.7136 17.5728C38.9012 17.5728 35 21.474 35 26.2864C35 31.0988 38.9012 35 43.7136 35Z" fill="#ECEDF1"/>
</g>
</g>
<defs>
<clipPath id="clip0_4040_2495">
<rect width="70" height="69.9999" fill="white"/>
</clipPath>
<clipPath id="clip1_4040_2495">
<rect width="70" height="70" fill="white"/>
</clipPath>
</defs>
</svg>
