<svg width="70" height="70" viewBox="0 0 70 70" fill="none" xmlns="http://www.w3.org/2000/svg">
<g clip-path="url(#clip0_4040_2494)">
<g clip-path="url(#clip1_4040_2494)">
<path d="M35 0C19.4798 0 6.32133 10.103 1.73647 24.0903H68.2635C63.6787 10.103 50.5202 0 35 0ZM12.7632 28.1918H0.664044C0.22199 30.4342 -0.000409779 32.7144 5.668e-07 35C5.668e-07 47.1264 6.16766 57.8114 15.5364 64.0918L27.8572 51.7711C30.2003 49.428 30.2003 45.629 27.8572 43.2859L12.7632 28.1918ZM19.1941 66.2345C23.9421 68.642 29.3122 70 35 70C54.33 70 70 54.33 70 35C70 32.6702 69.7702 30.3942 69.336 28.1918H59.722C58.1307 28.1918 56.6046 28.824 55.4794 29.9492L19.1941 66.2345Z" fill="#ECEDF1"/>
</g>
</g>
<defs>
<clipPath id="clip0_4040_2494">
<rect width="70" height="69.9999" fill="white"/>
</clipPath>
<clipPath id="clip1_4040_2494">
<rect width="70" height="70" fill="white"/>
</clipPath>
</defs>
</svg>
