<svg width="70" height="70" viewBox="0 0 70 70" fill="none" xmlns="http://www.w3.org/2000/svg">
<g opacity="0.5" clip-path="url(#clip0_4046_2828)">
<path d="M34.9046 0.465576C32.1638 0.496243 29.5111 1.04824 27.4756 2.02191C23.9489 3.71241 4.35677 13.5219 4.35677 13.5219L30.4694 26.5782C32.8576 27.7704 37.1893 27.7742 39.5774 26.5782L65.9278 13.6446C65.9316 13.6446 48.3174 4.71291 42.8089 2.02191C40.4783 0.88341 37.6416 0.43491 34.9046 0.465576ZM0.523438 19.6322V46.2279C0.523438 50.8662 3.66677 55.8956 7.82977 57.9656L31.1901 69.4656V34.6052C29.7401 34.3529 28.3299 33.9095 26.9964 33.2866L2.67777 21.1886C1.25944 20.4832 0.523438 19.6322 0.523438 19.6322ZM69.5234 19.6322C69.5234 19.6322 68.7874 20.4832 67.3691 21.1886L43.0504 33.2866C41.7169 33.9093 40.3067 34.3527 38.8568 34.6052V69.4656L62.2171 57.9656C66.3801 55.8956 69.5234 50.8624 69.5234 46.2279V19.6322Z" fill="white"/>
</g>
<defs>
<clipPath id="clip0_4046_2828">
<rect width="70" height="69.9999" fill="white"/>
</clipPath>
</defs>
</svg>
