<svg width="70" height="70" viewBox="0 0 70 70" fill="none" xmlns="http://www.w3.org/2000/svg">
<g opacity="0.5" clip-path="url(#clip0_4046_2831)">
<g opacity="0.5" clip-path="url(#clip1_4046_2831)">
<path d="M50.8061 30.4035C57.3825 33.1669 66.8614 32.987 73.8796 25.9688C81.3156 18.5328 80.5609 9.07375 78.7845 4.03497L77.3934 0.0888491L65.5577 11.9246L59.3449 10.682L58.1023 4.46919L69.938 -7.36653L65.9919 -8.75758C60.9735 -10.527 51.5054 -11.3005 44.0577 -3.85305C37.0423 3.16231 36.8547 12.6324 39.6231 19.2204L19.2215 39.6219C12.6451 36.8581 3.16645 37.0384 -3.8519 44.0565C-14.2938 54.4986 -8.3215 67.2249 -7.36555 69.9367L4.47017 58.101L10.683 59.3435L11.9255 65.5564L0.0898285 77.3921C4.47579 78.9381 6.87973 80 11.1367 80C19.5788 80 24.6541 75.1939 25.9698 73.8782C32.9852 66.8629 33.1728 57.3926 30.4044 50.8048L50.8061 30.4035Z" fill="white"/>
</g>
</g>
<defs>
<clipPath id="clip0_4046_2831">
<rect width="70" height="69.9999" fill="white"/>
</clipPath>
<clipPath id="clip1_4046_2831">
<rect width="90" height="90" fill="white" transform="translate(-10 -10)"/>
</clipPath>
</defs>
</svg>
