<svg width="71" height="70" viewBox="0 0 71 70" fill="none" xmlns="http://www.w3.org/2000/svg">
<g clip-path="url(#clip0_4040_2390)">
<g clip-path="url(#clip1_4040_2390)">
<path d="M0.990234 1.62451C0.990234 1.07223 1.43795 0.624512 1.99023 0.624512H12.9301C13.4824 0.624512 13.9301 1.07223 13.9301 1.62451V12.5644C13.9301 13.1167 13.4824 13.5644 12.9301 13.5644H1.99023C1.43795 13.5644 0.990234 13.1167 0.990234 12.5644V1.62451ZM22.5567 1.62451C22.5567 1.07223 23.0044 0.624512 23.5567 0.624512H34.4966C35.0488 0.624512 35.4966 1.07223 35.4966 1.62451V12.5644C35.4966 13.1167 35.0488 13.5644 34.4966 13.5644H23.5567C23.0044 13.5644 22.5567 13.1167 22.5567 12.5644V1.62451ZM44.1231 1.62451C44.1231 1.07223 44.5708 0.624512 45.1231 0.624512H56.063C56.6153 0.624512 57.063 1.07223 57.063 1.62451V12.5644C57.063 13.1167 56.6153 13.5644 56.063 13.5644H45.1231C44.5708 13.5644 44.1231 13.1167 44.1231 12.5644V1.62451ZM0.990234 23.191C0.990234 22.6387 1.43795 22.191 1.99023 22.191H12.9301C13.4824 22.191 13.9301 22.6387 13.9301 23.191V34.1308C13.9301 34.6831 13.4824 35.1308 12.9301 35.1308H1.99023C1.43795 35.1308 0.990234 34.6831 0.990234 34.1308V23.191ZM44.1231 23.191C44.1231 22.6387 44.5708 22.191 45.1231 22.191H56.063C56.6153 22.191 57.063 22.6387 57.063 23.191V25.7498C57.063 26.3021 56.6153 26.7498 56.063 26.7498H45.1231C44.5708 26.7498 44.1231 26.3021 44.1231 25.7498V23.191ZM0.990234 44.7574C0.990234 44.2051 1.43795 43.7574 1.99023 43.7574H12.9301C13.4824 43.7574 13.9301 44.2051 13.9301 44.7574V55.6973C13.9301 56.2496 13.4824 56.6973 12.9301 56.6973H1.99023C1.43795 56.6973 0.990234 56.2496 0.990234 55.6973V44.7574ZM22.5567 44.7574C22.5567 44.2051 23.0044 43.7574 23.5567 43.7574H26.1156C26.6679 43.7574 27.1156 44.2051 27.1156 44.7574V55.6973C27.1156 56.2496 26.6678 56.6973 26.1156 56.6973H23.5567C23.0044 56.6973 22.5567 56.2496 22.5567 55.6973V44.7574ZM37.1832 30.8175C33.8695 30.8175 31.1832 33.5038 31.1832 36.8175V63.9246C31.1832 67.2383 33.8695 69.9246 37.1832 69.9246H64.2903C67.6041 69.9246 70.2903 67.2383 70.2903 63.9246V36.8175C70.2903 33.5038 67.604 30.8175 64.2903 30.8175H37.1832ZM57.063 52.6973C57.063 54.9064 55.2721 56.6973 53.063 56.6973H44.1231V47.7574C44.1231 45.5483 45.914 43.7574 48.1231 43.7574H57.063V52.6973Z" fill="#DEE0ED"/>
</g>
</g>
<defs>
<clipPath id="clip0_4040_2390">
<rect width="70" height="69.9999" fill="white" transform="translate(0.671875)"/>
</clipPath>
<clipPath id="clip1_4040_2390">
<rect width="69.3001" height="69.3001" fill="white" transform="translate(0.990234 0.624512)"/>
</clipPath>
</defs>
</svg>
