<svg width="70" height="70" viewBox="0 0 70 70" fill="none" xmlns="http://www.w3.org/2000/svg">
<g opacity="0.5" clip-path="url(#clip0_4040_2386)">
<g clip-path="url(#clip1_4040_2386)">
<path d="M33.6129 54.1115C22.5157 54.1115 13.5197 45.1154 13.5197 34.0183C13.5197 22.9212 22.5158 13.925 33.6129 13.925C44.71 13.925 53.7061 22.9211 53.7061 34.0182C53.7061 34.3943 53.6957 34.768 53.6751 35.139C53.5616 37.1874 54.1042 39.2769 55.5548 40.7275L63.5811 48.7538C65.7713 44.3094 67.0031 39.308 67.0031 34.0182C67.0033 15.5773 52.0539 0.62793 33.6129 0.62793C15.1719 0.62793 0.222656 15.5773 0.222656 34.0182C0.222656 52.459 15.172 67.4084 33.6129 67.4084C38.9027 67.4084 43.9042 66.1766 48.3485 63.9864L40.3224 55.9603C38.8717 54.5095 36.782 53.967 34.7335 54.0806C34.3605 54.1013 33.9868 54.1116 33.6129 54.1115Z" fill="white"/>
<path d="M38.061 47.878C35.7179 45.5348 35.7179 41.7358 38.061 39.3927L38.9767 38.477C41.3198 36.1339 45.1188 36.1339 47.4619 38.477L66.2638 57.2789C68.607 59.622 68.6069 63.4211 66.2637 65.7642L65.3481 66.6799C63.0049 69.0229 59.206 69.0229 56.8628 66.6798L38.061 47.878Z" fill="white"/>
</g>
</g>
<defs>
<clipPath id="clip0_4040_2386">
<rect width="70" height="69.9999" fill="white"/>
</clipPath>
<clipPath id="clip1_4040_2386">
<rect width="70.2969" height="70.2969" fill="white" transform="translate(0.222656 -0.37207)"/>
</clipPath>
</defs>
</svg>
