<svg width="78" height="78" viewBox="0 0 78 78" fill="none" xmlns="http://www.w3.org/2000/svg">
<g opacity="0.5">
<g clip-path="url(#clip0_4040_2387)">
<path d="M4.24805 6.48713V36.5361H34.2971L4.24805 6.48713ZM4.24805 40.6377H37.1973V73.5869H4.24805V40.6377ZM41.2988 73.5869H71.3478L41.2988 43.5379V73.5869ZM39.248 3.58691H7.14826L39.248 35.6867V3.58691ZM74.248 38.5869H42.1483L74.248 70.6867V38.5869Z" fill="white"/>
<path d="M58.9995 29.7281C65.0151 29.7281 69.8916 24.8515 69.8916 18.836C69.8916 12.8204 65.0151 7.94385 58.9995 7.94385C52.984 7.94385 48.1074 12.8204 48.1074 18.836C48.1074 24.8515 52.984 29.7281 58.9995 29.7281Z" fill="white"/>
</g>
</g>
<defs>
<clipPath id="clip0_4040_2387">
<rect width="70" height="70" fill="white" transform="translate(4.24805 3.58691)"/>
</clipPath>
</defs>
</svg>
