<svg width="78" height="78" viewBox="0 0 78 78" fill="none" xmlns="http://www.w3.org/2000/svg">
<g clip-path="url(#clip0_4040_2392)">
<path d="M49.4894 40.111C48.8928 40.4322 48.2816 40.7254 47.6576 40.9894C44.9919 42.1168 42.1625 42.6885 39.248 42.6885C36.3336 42.6885 33.5042 42.1168 30.8385 40.9893C30.2145 40.7253 29.6032 40.4321 29.0067 40.1108C14.6738 44.4905 4.24805 57.8204 4.24805 73.587H17.3186C17.3186 61.4756 27.1368 51.6576 39.248 51.6576C51.3593 51.6576 61.1775 61.4756 61.1775 73.587H74.248C74.248 57.8204 63.8223 44.4905 49.4894 40.111Z" fill="#ECEDF1"/>
<path d="M39.2477 60.4185C31.975 60.4185 26.0791 66.3142 26.0791 73.5871H52.4162C52.4163 66.3143 46.5205 60.4185 39.2477 60.4185Z" fill="#ECEDF1"/>
<path d="M39.248 38.5869C48.913 38.5869 56.748 30.7519 56.748 21.0869C56.748 11.4219 48.913 3.58691 39.248 3.58691C29.5831 3.58691 21.748 11.4219 21.748 21.0869C21.748 30.7519 29.5831 38.5869 39.248 38.5869Z" fill="#ECEDF1"/>
</g>
<defs>
<clipPath id="clip0_4040_2392">
<rect width="70" height="70" fill="white" transform="translate(4.24805 3.58691)"/>
</clipPath>
</defs>
</svg>
