<svg width="70" height="70" viewBox="0 0 70 70" fill="none" xmlns="http://www.w3.org/2000/svg">
<g clip-path="url(#clip0_4040_2391)">
<g clip-path="url(#clip1_4040_2391)">
<path d="M51.7124 18.2887C57.4339 19.4932 62.6593 22.4599 66.674 26.8339C67.6098 27.8539 68.4697 28.9409 69.2468 30.0863C69.7475 28.133 70.0005 26.1244 70 24.1079V6C70 2.68629 67.3137 7.60178e-07 64 7.60178e-07H45.8921C43.8755 -0.00050623 41.8668 0.252586 39.9133 0.753321C45.8556 4.78789 50.1837 11.0287 51.7124 18.2887ZM18.2886 51.7124C11.0286 50.1837 4.78789 45.8556 0.753321 39.9133C0.252586 41.8668 -0.00050623 43.8755 7.60178e-07 45.8921V64C7.60178e-07 67.3137 2.68629 70 6 70H24.1079C26.1711 70 28.1736 69.7368 30.0863 69.2468C28.9409 68.4697 27.8539 67.6098 26.8339 66.674C22.4599 62.6593 19.4931 57.4339 18.2886 51.7124ZM52.2797 22.6466C52.3046 23.1306 52.3172 23.6178 52.3172 24.1079C52.3172 27.4262 51.7396 30.6119 50.6823 33.5716C55.6131 35.49 59.1078 40.2828 59.1078 45.8921C59.1078 53.191 53.1908 59.1079 45.892 59.1079C40.2827 59.1079 35.4899 55.6132 33.5714 50.6825C30.6117 51.7397 27.4262 52.3173 24.1078 52.3173C23.6178 52.3173 23.1305 52.3046 22.6465 52.2799C25.4532 62.4825 34.81 70 45.8921 70H70V45.8921C70 34.81 62.4825 25.4532 52.2797 22.6466Z" fill="#DEE0ED"/>
<path d="M24.1079 48.2158C37.4011 48.2158 48.2158 37.4011 48.2158 24.1079C48.2158 10.8147 37.4011 0 24.1079 0H0V24.1079C0 37.4011 10.8147 48.2158 24.1079 48.2158ZM10.8921 24.1079C10.8921 16.809 16.809 10.8921 24.1079 10.8921C31.4068 10.8921 37.3237 16.809 37.3237 24.1079C37.3237 31.4068 31.4068 37.3237 24.1079 37.3237C16.809 37.3237 10.8921 31.4068 10.8921 24.1079Z" fill="#DEE0ED"/>
</g>
</g>
<defs>
<clipPath id="clip0_4040_2391">
<rect width="70" height="69.9999" fill="white"/>
</clipPath>
<clipPath id="clip1_4040_2391">
<rect width="70" height="70" fill="white"/>
</clipPath>
</defs>
</svg>
