<svg width="70" height="70" viewBox="0 0 70 70" fill="none" xmlns="http://www.w3.org/2000/svg">
<g clip-path="url(#clip0_4046_2830)">
<path d="M49.9062 74.75C49.9062 66.4687 43.2812 59.8438 35 59.8438C26.7188 59.8438 20.0938 66.4687 20.0938 74.75C20.0938 79.2219 22.0813 83.0312 25.0625 85.8469V76.4062C25.0625 70.9406 29.5344 66.4687 35 66.4687C40.4656 66.4687 44.9375 70.9406 44.9375 76.4062V85.8469C47.9188 83.0312 49.9062 79.2219 49.9062 74.75Z" fill="#DEE0ED"/>
<path d="M49.9062 90.9812C51.3969 90.1531 53.0531 89.6562 54.875 89.6562C58.0219 85.5156 59.8438 80.3812 59.8438 74.75C59.8438 61.0031 48.7469 49.9062 35 49.9062C21.2531 49.9062 10.1562 61.0031 10.1562 74.75C10.1562 84.8531 16.2844 93.6312 25.0625 97.4406V89.9875C20.0938 86.675 16.7812 81.0437 16.7812 74.75C16.7812 64.6469 24.8969 56.5312 35 56.5312C45.1031 56.5312 53.2188 64.6469 53.2188 74.75C53.2188 80.8781 50.0719 86.3437 45.4344 89.6562" fill="#DEE0ED"/>
<path d="M35 39.9688C15.7875 39.9688 0.21875 55.5375 0.21875 74.75C0.21875 86.3438 6.01563 96.6125 14.6281 102.906H18.9344C21.0875 102.906 23.075 103.403 25.0625 104.231V101.084C14.4625 97.1094 6.84375 86.8406 6.84375 74.75C6.84375 59.1813 19.4313 46.5938 35 46.5938C50.5687 46.5938 63.1562 59.1813 63.1562 74.75C63.1562 80.5469 61.3344 85.8469 58.3531 90.3188C58.85 90.4844 59.3469 90.65 59.8438 90.9812C61.3344 90.1531 63.1562 89.6562 64.8125 89.6562C64.9781 89.6562 65.9719 89.6562 66.3031 89.8219C68.4563 85.1844 69.7812 80.2156 69.7812 74.75C69.7812 55.5375 54.2125 39.9688 35 39.9688Z" fill="#DEE0ED"/>
<path d="M49.9062 -4.75C49.9062 3.53125 43.2812 10.1562 35 10.1562C26.7188 10.1562 20.0938 3.53125 20.0938 -4.75C20.0938 -9.22187 22.0813 -13.0312 25.0625 -15.8469V-6.40625C25.0625 -0.940624 29.5344 3.53125 35 3.53125C40.4656 3.53125 44.9375 -0.940624 44.9375 -6.40625V-15.8469C47.9188 -13.0312 49.9062 -9.22187 49.9062 -4.75Z" fill="#DEE0ED"/>
<path d="M49.9062 -20.9812C51.3969 -20.1531 53.0531 -19.6562 54.875 -19.6562C58.0219 -15.5156 59.8438 -10.3812 59.8438 -4.75C59.8438 8.99688 48.7469 20.0938 35 20.0938C21.2531 20.0938 10.1562 8.99688 10.1562 -4.75C10.1562 -14.8531 16.2844 -23.6312 25.0625 -27.4406V-19.9875C20.0938 -16.675 16.7812 -11.0437 16.7812 -4.75C16.7812 5.35313 24.8969 13.4688 35 13.4688C45.1031 13.4688 53.2188 5.35313 53.2188 -4.75C53.2188 -10.8781 50.0719 -16.3437 45.4344 -19.6562" fill="#DEE0ED"/>
<path d="M35 30.0312C15.7875 30.0312 0.21875 14.4625 0.21875 -4.75C0.21875 -16.3438 6.01563 -26.6125 14.6281 -32.9062H18.9344C21.0875 -32.9062 23.075 -33.4031 25.0625 -34.2312V-31.0844C14.4625 -27.1094 6.84375 -16.8406 6.84375 -4.75C6.84375 10.8187 19.4313 23.4062 35 23.4062C50.5687 23.4062 63.1562 10.8187 63.1562 -4.75C63.1562 -10.5469 61.3344 -15.8469 58.3531 -20.3188C58.85 -20.4844 59.3469 -20.65 59.8438 -20.9812C61.3344 -20.1531 63.1562 -19.6562 64.8125 -19.6562C64.9781 -19.6562 65.9719 -19.6562 66.3031 -19.8219C68.4563 -15.1844 69.7812 -10.2156 69.7812 -4.75C69.7812 14.4625 54.2125 30.0312 35 30.0312Z" fill="#DEE0ED"/>
</g>
<defs>
<clipPath id="clip0_4046_2830">
<rect width="70" height="69.9999" fill="white"/>
</clipPath>
</defs>
</svg>
