<svg width="70" height="70" viewBox="0 0 70 70" fill="none" xmlns="http://www.w3.org/2000/svg">
<g opacity="0.5" clip-path="url(#clip0_4040_2389)">
<g clip-path="url(#clip1_4040_2389)">
<path d="M50.3215 44.8392C50.3215 41.8115 47.867 39.3568 44.8391 39.3568H25.1608C17.3205 39.3568 10.9647 33.001 10.9647 25.1608C10.9647 17.3205 17.3205 10.9647 25.1608 10.9647H70V0H25.1608C11.2648 0 0 11.2648 0 25.1608C0 39.0567 11.2648 50.3215 25.1608 50.3215H44.8392C47.867 50.3215 50.3215 47.867 50.3215 44.8392Z" fill="#ECEDF1"/>
<path d="M19.6785 25.161C19.6785 28.1888 22.133 30.6434 25.1609 30.6434H44.8394C52.6796 30.6434 59.0354 36.9992 59.0354 44.8395C59.0354 52.6797 52.6796 59.0355 44.8394 59.0355H0V70.0002H44.8392C58.7352 70.0002 70 58.7354 70 44.8395C70 30.9435 58.7352 19.6787 44.8392 19.6787H25.1608C22.133 19.6787 19.6785 22.1332 19.6785 25.161Z" fill="#ECEDF1"/>
</g>
</g>
<defs>
<clipPath id="clip0_4040_2389">
<rect width="70" height="69.9999" fill="white"/>
</clipPath>
<clipPath id="clip1_4040_2389">
<rect width="70" height="70" fill="white"/>
</clipPath>
</defs>
</svg>
