<svg width="70" height="70" viewBox="0 0 70 70" fill="none" xmlns="http://www.w3.org/2000/svg">
<g clip-path="url(#clip0_4040_2388)">
<g clip-path="url(#clip1_4040_2388)">
<path d="M8.76217 17.5243C13.6014 17.5243 17.5243 13.6014 17.5243 8.76217C17.5243 3.92296 13.6014 0 8.76217 0C3.92296 0 0 3.92296 0 8.76217C0 13.6014 3.92296 17.5243 8.76217 17.5243Z" fill="#DEE0ED"/>
<path d="M23.8779 0C25.3779 2.57756 26.2382 5.57115 26.2382 8.76217C26.2382 11.9532 25.3779 14.9468 23.8779 17.5242H70.0003V0H23.8779Z" fill="#DEE0ED"/>
<path d="M61.2378 69.9999C66.077 69.9999 69.9999 66.077 69.9999 61.2378C69.9999 56.3985 66.077 52.4756 61.2378 52.4756C56.3985 52.4756 52.4756 56.3985 52.4756 61.2378C52.4756 66.077 56.3985 69.9999 61.2378 69.9999Z" fill="#DEE0ED"/>
<path d="M35.0005 43.7621C39.8397 43.7621 43.7626 39.8392 43.7626 35C43.7626 30.1607 39.8397 26.2378 35.0005 26.2378C30.1612 26.2378 26.2383 30.1607 26.2383 35C26.2383 39.8392 30.1612 43.7621 35.0005 43.7621Z" fill="#DEE0ED"/>
<path d="M17.5242 35C17.5242 31.8089 18.3846 28.8154 19.8845 26.2378H0V43.762H19.8845C18.3846 41.1846 17.5242 38.191 17.5242 35ZM50.1155 26.2378C51.6154 28.8154 52.4758 31.8089 52.4758 35C52.4758 38.191 51.6154 41.1846 50.1155 43.7621H70V26.2378H50.1155ZM46.1223 52.4758C44.6224 55.0533 43.762 58.0469 43.762 61.2379C43.762 64.4289 44.6224 67.4225 46.1223 70H0V52.4758H46.1223Z" fill="#DEE0ED"/>
</g>
</g>
<defs>
<clipPath id="clip0_4040_2388">
<rect width="70" height="69.9999" fill="white"/>
</clipPath>
<clipPath id="clip1_4040_2388">
<rect width="70" height="70" fill="white"/>
</clipPath>
</defs>
</svg>
