<svg width="85" height="85" viewBox="0 0 85 85" fill="none" xmlns="http://www.w3.org/2000/svg">
<g clip-path="url(#clip0_4040_2300)">
<path d="M63.7519 63.7441C63.949 58.6919 62.1439 53.5732 58.2949 49.7241C54.4458 45.8751 49.3266 44.0695 44.2743 44.2666L55.7839 32.7571C61.1612 27.3797 69.8835 27.3797 75.2614 32.7576C80.6387 38.1349 80.6387 46.8572 75.2614 52.2346L63.7519 63.7441ZM42.5039 84.9921C42.7009 79.9399 40.8959 74.8212 37.0468 70.9722C33.1978 67.1231 28.0786 65.3175 23.0263 65.5146L34.5358 54.0051C39.9116 48.6293 48.6339 48.6293 54.0118 54.0072C59.3891 59.3846 59.3891 68.1069 54.0134 73.4826L42.5039 84.9921ZM40.7334 40.7256C40.9299 35.6728 39.1254 30.5547 35.2763 26.7056C31.4273 22.8565 26.3081 21.051 21.2558 21.2481L32.7654 9.73855C38.1427 4.36121 46.8645 4.36068 52.2424 9.73855C57.6202 15.1164 57.6197 23.8382 52.2424 29.2155L40.7334 40.7256ZM19.4853 61.9736C19.6819 56.9208 17.8774 51.8027 14.0283 47.9536C10.1792 44.1046 5.06006 42.299 0.0078125 42.4961L11.5173 30.9866C16.8931 25.6108 25.6149 25.6103 30.9927 30.9882C36.3706 36.366 36.3701 45.0878 30.9943 50.4636L19.4853 61.9736Z" fill="#E91A22"/>
</g>
<defs>
<clipPath id="clip0_4040_2300">
<rect width="85" height="84.9999" fill="white"/>
</clipPath>
</defs>
</svg>
