<svg width="85" height="85" viewBox="0 0 85 85" fill="none" xmlns="http://www.w3.org/2000/svg">
<g clip-path="url(#clip0_4040_2299)">
<path d="M74 42C74 59.6731 59.6731 74 42 74H10V42C10 24.3269 24.3269 10 42 10C59.6731 10 74 24.3269 74 42ZM42 65.0498C53.0555 65.0498 65.0498 53.0555 65.0498 42C65.0498 30.9445 53.0555 18.9502 42 18.9502C30.9445 18.9502 18.9502 30.9445 18.9502 42V65.0498H42Z" fill="white"/>
<path d="M42.001 54.083C48.6742 54.083 54.084 48.6732 54.084 42C54.084 35.3267 48.6742 29.917 42.001 29.917C35.3277 29.917 29.918 35.3267 29.918 42C29.918 48.6732 35.3277 54.083 42.001 54.083Z" fill="white"/>
</g>
<defs>
<clipPath id="clip0_4040_2299">
<rect width="64" height="64" fill="white" transform="translate(10 10)"/>
</clipPath>
</defs>
</svg>
