<svg width="85" height="85" viewBox="0 0 85 85" fill="none" xmlns="http://www.w3.org/2000/svg">
<g clip-path="url(#clip0_4040_2298)">
<path d="M42.997 52.3728C42.6969 52.3732 42.3996 52.3142 42.1223 52.1993C41.845 52.0844 41.5932 51.9158 41.3813 51.7032L34.2907 44.6127C33.3981 43.72 33.3981 42.2737 34.2907 41.381L41.3813 34.2905C42.2739 33.3978 43.7203 33.3978 44.6129 34.2905L51.7035 41.381C52.5961 42.2737 52.5961 43.72 51.7035 44.6127L44.6129 51.7032C44.401 51.9158 44.1491 52.0844 43.8718 52.1993C43.5945 52.3142 43.2972 52.3732 42.997 52.3728ZM33.3042 22.9796C30.9201 20.5976 29.538 17.3565 29.3567 14.0049L6.67346 36.6882C3.17316 40.1885 3.02963 45.9714 6.67346 49.6104C10.2816 53.2186 16.0568 53.1494 19.5957 49.6104L39.7653 29.4407L33.3042 22.9796ZM49.6106 66.3983L29.441 46.2286L22.9799 52.6897C20.5979 55.0739 17.3568 56.4559 14.0052 56.6372L36.6884 79.3205C40.1887 82.8208 45.9717 82.9643 49.6106 79.3205C53.2188 75.7123 53.1495 69.9373 49.6106 66.3983ZM79.3207 36.3835C75.8882 32.9487 69.8266 32.9531 66.3985 36.3835L46.2287 56.5531L52.6898 63.0142C55.074 65.3962 56.456 68.6374 56.6373 71.989L79.3206 49.3057C82.8211 45.8054 82.9644 40.0226 79.3207 36.3835ZM63.0143 33.3041C65.3555 30.961 68.6379 29.6035 72.0823 29.4497L49.2438 6.56564C45.8157 3.13984 39.7541 3.13085 36.3215 6.56564C32.7134 10.1738 32.7825 15.949 36.3215 19.4879L56.5532 39.7652L63.0143 33.3041Z" fill="white"/>
</g>
<defs>
<clipPath id="clip0_4040_2298">
<rect width="78.007" height="78.007" fill="white" transform="translate(3.99316 3.99292)"/>
</clipPath>
</defs>
</svg>
