<svg width="1411" height="613" viewBox="0 0 1411 613" fill="none" xmlns="http://www.w3.org/2000/svg">
<path d="M1383.29 2.36521C1378.24 7.80869 1370.08 10.2756 1363.24 12.3654C1352.4 15.5322 1341.36 18.0271 1330.21 19.8356C1309.79 23.4281 1288.94 25.2768 1268.59 29.7144C1254.93 32.6871 1241.53 37.2797 1228.02 40.7356C1215.68 44.016 1203.27 47.0059 1190.73 49.316C1176.54 51.9507 1162.24 53.6765 1147.92 55.371C1139.01 56.367 1130.11 57.2653 1121.15 57.8068C1116.66 57.9805 1112.14 58.4159 1107.64 58.6548C1102.48 58.8901 1097.36 59.6671 1092.36 60.973C1087.92 61.956 1083.43 62.6955 1078.9 63.1881C1074.72 63.8388 1070.5 64.4256 1066.27 64.7195C1057.15 65.365 1047.87 65.0389 1038.76 64.8368C1029.72 64.5886 1020.71 63.7827 1011.78 62.4238C1002.26 60.966 992.841 58.8521 983.266 57.6573C973.69 56.4624 964.328 55.7157 954.889 54.6786C945.131 53.3515 935.292 52.7076 925.444 52.7518C921.273 52.913 917.134 53.0728 912.972 53.4619C907.921 53.657 902.024 53.0698 897.272 55.079C893.946 56.539 890.542 57.8133 887.074 58.896C882.689 60.7638 878.412 62.8773 874.265 65.2263C870.314 66.846 866.254 68.209 862.304 69.8612C857.742 71.7327 853.463 74.1474 849.042 76.3068C840.394 80.5204 831.604 84.446 822.849 88.4354C806.49 95.8157 790.566 105.135 773.16 109.915C768.573 111.136 764.06 112.581 759.511 113.931C754.754 115.04 750.068 116.43 745.476 118.092C737.912 121.938 731.257 127.352 725.954 133.972C719.883 140.727 714.726 148.294 709.13 155.486C703.533 162.679 697.056 168.178 691.276 174.856C685.497 181.534 679.752 187.428 673.757 193.593C670.838 196.575 668.224 199.871 665.269 202.788C662.314 205.706 658.69 208.193 655.57 211.085C650.971 215.37 642.512 225.314 648.917 231.456C652.469 234.011 656.623 235.602 660.974 236.076C665.899 236.912 670.9 237.211 675.89 236.967C685.307 236.603 694.562 236.245 703.219 232.26C711.127 228.429 718.605 223.769 725.526 218.358C734.684 211.288 742.575 202.67 751.358 195.159C752.544 193.802 753.943 192.647 755.501 191.739C756.338 191.446 759.325 192.732 759.387 192.665C759.45 192.597 756.109 192.27 756.568 191.502C757.028 190.735 758.006 190.697 758.485 190.418L763.758 187.541C768.133 185.057 772.544 182.67 776.919 180.186C780.623 178.054 784.148 175.538 787.956 173.598C791.765 171.658 796.408 170.207 800.617 168.48C808.809 165.132 816.905 161.82 824.809 157.765C832.675 153.921 840.928 150.925 849.429 148.827C854.148 147.634 858.845 147.583 863.609 146.714C867.245 145.768 870.932 145.027 874.652 144.495C893.165 143.062 911.311 142.231 929.708 145.399C948.106 148.568 964.737 156.695 981.516 163.577C985.032 165.039 988.583 166.564 992.064 167.962C995.847 169.26 999.447 171.039 1002.78 173.253C1003.37 173.603 1003.88 174.091 1004.24 174.677C1004.61 175.262 1004.83 175.927 1004.89 176.616C1004.94 177.305 1004.83 177.997 1004.56 178.633C1004.29 179.27 1003.87 179.832 1003.34 180.273C997.902 186.449 988.622 188.698 981.305 191.882C975.945 194.208 971.818 195.509 966.26 192.724C959.615 189.165 953.517 184.668 948.154 179.373C940.857 172.94 933.183 166.912 926.197 160.107C919.96 154.089 913.856 148.131 907.086 142.687C903.861 139.857 900.292 137.442 896.463 135.502C881.488 129.902 864.986 129.925 850.027 135.568C833.308 142.082 818.088 153.591 804.019 164.469C796.826 170.028 789.904 175.87 782.913 181.585C779.277 184.401 776.103 187.769 773.508 191.565C771.588 194.88 769.407 198.039 766.987 201.01C760.837 207.907 755.408 215.413 750.785 223.413C746.571 231.234 741.766 238.721 736.41 245.81C731.154 252.533 726.094 259.249 721.402 266.178C717.269 272.402 713.106 279.539 714.228 287.45C714.943 292.443 717.49 295.865 722.792 295.399C727.715 294.724 732.482 293.194 736.878 290.878C746.031 286.399 754.662 280.927 762.617 274.562C789.321 253.676 809.697 226.125 832.332 201.289C838.001 195.137 843.087 189.92 851.064 186.906C858.247 183.949 866.04 182.776 873.776 183.486C890.916 185.366 906.378 194.484 923.283 197.873C932.348 199.604 941.563 200.427 950.791 200.331C955.75 200.503 960.713 200.158 965.6 199.302C969.094 198.515 971.292 195.431 974.854 194.707C975.473 194.683 978.719 195.079 978.563 196.096C977.64 201.771 972.358 204.42 968.009 207.588C962.266 211.819 956.07 215.319 949.945 218.978C937.188 226.643 924.427 234.243 910.98 240.957C891.132 250.917 871.476 260.804 856.736 277.967C852.954 282.405 849.504 287.115 846.413 292.058C843.144 296.493 840.911 301.603 839.876 307.013C839.327 312.075 840.573 317.169 843.396 321.409C846.219 325.648 850.442 328.764 855.328 330.214C861.6 331.418 868.072 331.078 874.185 329.225C878.109 328.409 881.861 326.918 885.274 324.819C888.463 322.903 891.147 320.582 894.136 318.543C898.998 315.335 904.092 312.491 909.374 310.033C934.681 298.347 960.943 288.848 987.873 281.637C1001.3 277.308 1015 273.882 1028.89 271.381C1043.01 269.368 1057.32 269.761 1071.54 268.723C1100 266.207 1127.54 257.345 1152.12 242.789C1173.19 230.468 1191.48 213.983 1212.36 201.342C1221.99 195.344 1232.42 190.717 1243.32 187.595C1255.68 184.767 1268.37 183.695 1281.03 184.41C1310.94 185.015 1340.66 188.952 1370.56 189.101C1377.94 189.142 1385.31 188.955 1392.66 188.443C1393.51 188.41 1397.29 189.927 1395.3 190.068C1364.55 192.235 1333.86 188.628 1303.18 186.847C1288.3 185.987 1272.82 184.76 1257.98 186.898C1245.9 188.731 1234.24 192.691 1223.55 198.595C1201.84 210.192 1183.36 226.815 1162.69 240.066C1138.95 255.277 1112.21 265.205 1084.28 269.176C1069.32 271.221 1054.15 270.633 1039.13 272.029C1024.85 273.882 1010.78 277.023 997.067 281.412C968.48 288.827 940.601 298.74 913.753 311.037C908.449 313.599 903.338 316.542 898.461 319.843C895.28 321.955 892.435 324.347 889.249 326.361C881.099 331.04 871.757 333.237 862.374 332.68C858.057 332.559 853.82 331.496 849.957 329.568C846.094 327.639 842.7 324.891 840.012 321.515C833.747 313.085 835.091 303.09 840.143 294.484C851.494 275.495 867.82 259.963 887.359 249.563C899.118 243.077 911.372 237.584 923.062 231.003C935.837 223.794 949.297 216.558 961.339 208.106C964.263 206.07 967.015 203.812 969.907 201.809C971.113 201.056 972.14 200.05 972.917 198.86C973.694 197.67 974.202 196.326 974.406 194.92L978.146 196.275C974.649 196.997 972.421 200.147 968.924 200.869C964.281 201.57 959.585 201.849 954.891 201.705C946.384 201.878 937.878 201.313 929.469 200.014C920.831 198.69 912.336 196.563 904.095 193.659C895.163 190.549 886.358 186.488 876.908 185.158C867.666 184.11 858.326 185.928 850.153 190.364C842.791 194.104 837.519 201.219 832.045 207.364C820.69 220.093 809.842 233.258 798.318 245.831C780.845 264.892 760.668 284.939 735.874 294.438C729.121 297.046 719.483 299.309 713.523 293.704C711.957 291.88 710.847 289.711 710.286 287.375C709.725 285.038 709.728 282.602 710.295 280.267C711.632 272.619 716.6 266.07 720.928 259.84C725.937 252.637 731.686 246.025 736.764 238.918C741.841 231.811 745.941 223.046 750.938 215.55C753.408 211.901 756.012 208.345 758.784 204.913C761.671 201.704 764.374 198.335 766.879 194.82C768.764 191.466 770.969 188.302 773.465 185.373C776.802 182.125 780.323 179.072 784.011 176.228C798.095 164.218 813.001 153.206 828.622 143.274C843.346 134.131 859.586 127.897 877.062 130.025C885.146 130.587 893.062 132.6 900.43 135.968C907.216 139.859 913.475 144.602 919.055 150.082C925.65 156.086 931.777 162.63 938.526 168.368C945.275 174.105 952.422 180.871 959.63 186.689C962.73 189.209 967.957 193.572 972.297 192.719C975.106 191.786 977.853 190.679 980.523 189.402C984.437 187.934 988.261 186.241 991.978 184.33C994.792 182.82 1000.98 179.875 1000.89 175.967C1000.78 173.2 997.247 172.032 995.251 171.066C990.696 168.895 986.023 167.022 981.346 165.083C963.142 157.637 944.809 148.532 924.976 146.234C915.396 144.992 905.729 144.548 896.076 144.906C891.253 145.092 886.314 145.642 881.628 145.986C876.923 146.454 872.254 147.233 867.652 148.319C863.184 149.241 858.581 149.191 854.118 150.243C848.838 151.497 843.646 153.091 838.573 155.017C830.499 158.067 823.149 162.948 814.934 165.71C810.42 167.123 806.327 169.302 801.892 171.071C797.554 172.478 793.362 174.299 789.374 176.51C781.37 181.351 773.155 185.808 765.079 190.489C762.431 192.058 758.582 195.467 755.372 192.624L758.901 193.596C757.761 193.64 755.548 196.334 754.442 197.289C752.2 199.234 750.027 201.274 747.821 203.283C743.189 207.569 738.591 211.887 733.858 216.08C728.288 220.867 722.292 225.136 715.945 228.834C709.144 233.54 701.388 236.69 693.228 238.057C678.699 239.564 660.959 240.738 647.682 233.297C642.017 230.256 641.217 224.745 644.097 219.059C647.796 211.744 654.913 207.589 660.641 202.12C663.789 199.129 666.526 195.633 669.571 192.516C672.616 189.399 675.856 186.242 678.992 182.959C682.129 179.675 684.867 176.212 687.772 172.84C690.676 169.467 694.559 166.057 697.945 162.471C710.441 149.731 718.313 133.876 732.146 122.779C735.165 120.186 738.545 118.046 742.18 116.426C746.293 114.951 750.482 113.7 754.731 112.681C764.327 110.231 773.778 107.243 783.038 103.731C791.678 100.137 799.96 95.7419 808.456 91.7951C816.952 87.8483 826 83.8475 834.721 79.8267C843.443 75.806 852.352 70.7347 861.548 67.1846C865.762 65.7637 869.882 64.0802 873.885 62.144C877.167 60.0672 880.684 58.3882 884.363 57.1426C886.821 56.5195 889.214 55.6629 891.509 54.5845C892.941 53.7638 894.475 53.1346 896.071 52.713C900.378 52.0522 904.733 51.7531 909.09 51.8188C917.947 51.0635 926.841 50.8287 935.726 51.1158C945.537 51.6495 955.027 53.1737 964.659 54.1381C974.29 55.1026 983.431 56.0209 992.726 57.5526C1002.58 59.1931 1012.16 61.2355 1022.08 62.1887C1032.01 63.1418 1041.7 63.126 1051.49 63.204C1061 63.2279 1070.49 62.4359 1079.86 60.8367C1084.31 60.1696 1088.72 59.2592 1093.07 58.1095C1097.78 57.2095 1102.57 56.7624 1107.37 56.7744C1125.8 55.6061 1144.17 53.9508 1162.64 51.379C1189.22 47.5634 1215.5 41.9188 1241.29 34.4853C1252.17 31.2321 1263.21 28.5423 1274.37 26.4267C1285.03 24.6454 1295.75 23.1883 1306.42 21.5696C1318.49 19.7342 1330.62 17.7659 1342.43 15.2231C1352.43 13.4149 1362.17 10.4341 1371.46 6.34281C1374.43 5.0426 1377.12 3.20284 1379.41 0.917489C1380.07 0.20747 1383.85 1.72407 1383.29 2.36521Z" fill="#E63718"/>
<path d="M17.042 396.897C19.2844 398.343 21.5678 397.472 24.0631 397.017L32.4263 395.553C38.4136 394.539 44.4131 393.558 50.4247 392.608C61.9737 390.825 73.5303 389.238 85.1244 387.779C107.86 384.977 130.604 382.371 152.77 375.81C163.838 372.546 174.633 368.151 185.657 364.596C196.588 361.402 207.336 357.613 217.853 353.246C227.701 348.823 238.246 346.394 248.457 342.936C258.439 339.593 267.992 335.088 276.918 329.513C295.461 317.8 315.017 307.771 335.351 299.546C345.154 295.597 355.165 292.185 365.339 289.324C375.543 286.517 386.548 283.321 397.154 283.303C419.768 283.277 442.398 282.794 464.929 284.824C469.939 285.25 475.046 285.672 479.975 286.558C485.008 288.012 489.868 290.011 494.467 292.518C499.298 294.705 504.276 296.549 509.366 298.038C514.843 299.587 520.553 300.41 526.147 301.596C537.005 303.882 547.885 306.754 558.873 308.188C569.861 309.621 580.701 310.604 591.423 312.766C599.946 314.588 609.351 318.984 614.059 326.789C618.766 334.595 608.711 341.275 603.685 345.479C571.128 372.817 525.441 368.649 487.741 355.794C480.088 353.624 472.973 349.879 466.855 344.799C464.553 342.672 460.542 338.523 459.96 335.286C459.378 332.048 462.783 328.95 464.777 327.341C467.356 325.18 470.615 323.996 473.981 323.997C477.347 323.998 480.605 325.184 483.183 327.347C489.117 332.268 490.871 340.514 491.384 347.862C491.791 351.442 491.656 355.063 490.983 358.602C489.645 362.825 487.59 366.786 484.908 370.312C478.741 379.613 472.573 388.915 466.398 398.02C459.793 406.598 453.677 415.542 448.081 424.808C445.55 429.405 443.253 434.155 440.821 438.781C439.82 440.743 437.937 441.859 436.897 443.659C435.857 445.46 435.796 447.255 434.882 448.92C433.852 450.405 432.919 451.954 432.091 453.56C431.319 455.546 431.373 457.793 430.702 459.84C430.03 461.887 428.211 463.783 427.285 466.003C426.155 468.85 425.458 471.942 424.56 474.878C421.142 485.443 418.742 496.31 417.394 507.331C416.844 512.652 416.8 518.013 417.262 523.343C417.812 529.124 418.647 533.852 423.8 537.141C432.167 542.522 443.098 545.034 452.679 547.207C493.369 556.36 534.195 564.824 574.718 574.701C585.458 577.328 596.18 580.055 606.885 582.879C614.963 585.012 627.457 588.278 634.159 580.978C636.498 578.532 637.847 575.306 637.945 571.925C638.044 568.544 636.885 565.246 634.692 562.669C629.682 558.045 623.55 554.809 616.902 553.283C609.604 551.054 602.049 549.781 594.688 547.621C584.363 544.76 574.298 541.041 564.09 537.817C554.655 534.935 545.052 532.639 535.334 530.941C528.759 529.695 521.066 526.537 517.725 520.309C516.108 517.14 515.723 513.485 516.643 510.049C516.939 508.109 517.562 506.233 518.485 504.501C519.959 502.45 521.574 500.503 523.318 498.674C528.716 491.097 532.535 482.512 534.548 473.432C536.052 469.148 536.913 464.666 537.102 460.13C536.913 455.248 539.281 449.81 540.47 445.102C543.285 433.485 546.095 421.771 548.186 409.987C548.762 404.86 549.655 399.774 550.861 394.757C552.442 390.306 554.463 386.024 556.894 381.973C559.122 377.975 560.889 373.897 562.719 369.719C564.322 366.3 567.065 363.543 570.478 361.921C578.043 358.368 585.77 364.101 592.664 366.834C602.607 370.785 614.077 367.8 624.27 366.395C645.695 363.448 667.328 359.972 688.908 363.572C696.973 364.574 704.799 366.986 712.027 370.698C717.301 373.754 725.13 380.428 723.766 387.36C722.292 394.817 711.82 396.591 705.904 398.058C694.882 400.798 683.74 402.989 672.638 405.342C649.328 410.187 626.831 417.478 603.791 423.389C593.257 426.11 582.68 428.573 572.026 430.712C564.547 432.24 554.837 435.158 548.345 429.313C546.688 427.812 543.261 425.271 543.619 422.714C543.977 420.158 548.758 417.202 551.156 415.903C555.529 414.242 560.113 413.198 564.775 412.802C570.128 411.975 575.484 411.247 581.006 410.577C603.742 407.775 626.501 405.559 648.458 398.647C653.777 396.942 658.872 394.529 664.303 393.178C669.733 391.827 675.285 391.091 680.801 390.258C690.732 389.343 700.746 390.362 710.288 393.259C718.819 395.31 727.293 397.558 735.769 399.838C739.054 400.564 742.069 402.199 744.468 404.555C747.601 407.438 749.718 411.256 750.502 415.439C752.647 430.417 734.438 438.879 723.283 443.255C715.408 446.395 707.182 448.865 699.399 451.839C688.105 455.637 676.583 458.728 664.903 461.093C642.993 466.441 620.726 470.199 598.274 472.339C577.187 474.749 555.889 474.664 534.822 472.085C534.583 472.012 534.361 471.89 534.171 471.727C533.981 471.564 533.828 471.362 533.721 471.136C533.614 470.91 533.555 470.664 533.549 470.414C533.543 470.164 533.589 469.915 533.685 469.684C534.453 467.6 537.28 464.753 539.403 467.311C541.525 469.87 537.563 472.077 535.312 472.098C533.683 472.161 533.224 470.419 533.893 469.154C534.685 467.507 535.727 465.994 536.983 464.666C539.086 463.113 541.469 461.98 544.001 461.331C549.456 458.815 555.061 456.639 560.785 454.814C566.699 453.314 572.904 452.586 578.899 451.474C584.893 450.362 591.658 448.927 598.039 447.67C623.393 442.343 649.161 439.22 675.055 438.337C693.413 437.954 721.076 435.973 728.195 458.061C730.719 465.951 729.053 475.208 721.181 479.229C710.021 484.726 698.417 489.275 686.493 492.827C662.367 500.341 637.737 506.129 612.788 510.149C587.334 514.392 561.648 516.851 536.187 520.932C510.389 525.195 484.843 530.862 459.662 537.907C453.43 539.614 447.197 541.322 440.892 542.837C435.477 544.523 429.865 545.496 424.197 545.732C421.851 545.809 419.508 545.48 417.274 544.76C415.383 543.953 414.267 542.106 412.5 541.131C410.38 540.471 408.158 540.203 405.942 540.341C402.982 539.806 400.105 538.887 397.384 537.607C391.95 535.47 386.574 533.167 380.828 531.433C375.161 529.857 369.39 528.674 363.559 527.895C351.777 526.52 340.135 524.145 328.757 520.796C323.167 518.861 317.816 516.361 312.196 514.492C306.576 512.623 301.23 511.102 295.838 509.224C285.637 505.685 276.263 500.114 268.282 492.847C264.449 489.375 261.159 485.348 258.52 480.901C257.368 478.957 260.632 476.451 261.959 478.682C267.961 487.99 276.327 495.541 286.203 500.566C295.535 505.584 306.066 507.883 315.992 511.379C321.384 513.257 326.57 515.73 332.023 517.475C337.288 519.117 342.658 520.401 348.097 521.32C358.645 523.195 369.511 524.014 379.834 526.81C384.926 528.317 389.93 530.104 394.824 532.164C397.509 533.234 400.194 534.304 402.907 535.275C405.445 536.087 408.091 536.512 410.756 536.536C412.257 536.58 413.722 537.006 415.013 537.774C416.72 538.881 417.8 540.632 419.813 541.207C425.785 542.899 432.391 540.721 438.219 539.518C461.151 534.198 483.431 527.208 506.646 522.432C553.913 512.619 602.381 510.225 649.322 498.729C672.436 493.044 695.347 487.171 717.027 477.303C722.737 474.735 725.915 471.678 725.694 465.134C725.452 460.46 723.57 456.02 720.38 452.593C713.25 444.588 703.7 443.197 693.437 442.811C669.29 442.117 645.133 443.793 621.313 447.814C609.182 449.75 597.236 452.232 585.221 454.62C579.553 455.752 573.88 456.721 568.209 457.755C562.352 458.857 556.63 460.586 551.144 462.913C548.446 464.028 545.749 465.175 542.982 466.195C541.704 466.589 540.52 467.241 539.504 468.11C538.488 468.979 537.661 470.047 537.074 471.248L535.687 468.27C537.078 467.955 537.599 468.783 537.315 470.717L536.145 468.317C557.348 471.443 578.648 470.326 599.981 468.394C622.074 466.182 643.979 462.394 665.531 457.059C676.137 454.53 686.905 451.963 697.248 448.531C701.469 447.129 705.432 444.955 709.767 443.973C713.213 443.027 716.601 441.884 719.915 440.549C731.363 436.162 756.355 425.025 742.991 409.404C740.577 406.503 737.241 404.515 733.538 403.771C730.078 402.894 726.65 402.016 723.246 400.909C713.577 397.891 703.666 395.71 693.623 394.392C671.918 391.775 652.043 402.747 631.396 407.261C610.75 411.775 590.215 413.253 569.735 416.163C564.635 416.678 559.576 417.537 554.594 418.737C552.323 419.45 550.232 420.643 548.463 422.234C548.041 422.549 547.64 422.891 547.262 423.258C547.612 422.169 548.923 424.009 549.398 424.48C556.197 431.519 565.852 428.017 574.238 426.291C595.8 421.839 617.051 416.063 638.116 409.707C659.18 403.351 680.984 400.064 702.357 394.935C707.041 394.118 711.611 392.748 715.971 390.856C717.604 390.043 719.747 388.917 719.995 386.886C719.811 384.478 718.788 382.21 717.104 380.478C712.467 374.495 704.98 371.59 697.858 369.713C677.846 364.456 657.373 365.866 637.114 368.572C626.887 369.945 616.702 371.545 606.458 372.495C602.378 373.093 598.218 372.865 594.227 371.826C590.285 370.462 586.431 368.858 582.685 367.024C578.735 365.318 574.657 363.65 570.57 365.992C566.483 368.334 565.151 373.537 563.033 377.856C561.186 381.579 559.006 385.119 557.125 388.81C554.856 393.712 553.373 398.94 552.731 404.302C550.961 415.096 548.732 425.809 546.206 436.469C545.029 441.47 543.781 446.343 542.507 451.38C541.684 453.714 541.067 456.116 540.663 458.558C540.788 460.575 540.702 462.6 540.407 464.599C538.682 472.908 536.211 481.045 533.025 488.911C531.493 492.534 529.581 495.984 527.32 499.204C526.082 500.948 524.708 502.565 523.305 504.25C521.204 506.546 519.958 509.495 519.777 512.601C518.929 521.077 528.752 525.294 535.567 526.824C539.746 527.738 544.005 528.161 548.154 529.109C553.061 530.256 558.042 531.628 562.733 533.11C572.374 535.997 581.877 539.542 591.551 542.461C598.981 544.717 606.543 546.152 614.059 548.111C623.949 550.696 638.183 555.036 641.161 566.233C641.786 569.311 641.683 572.493 640.86 575.525C640.036 578.556 638.515 581.354 636.418 583.694C631.686 588.767 624.022 589.748 617.446 589.317C612.982 588.817 608.576 587.895 604.286 586.566C599.043 585.171 593.765 583.712 588.529 582.48C578.664 579.992 568.781 577.581 558.878 575.247C540.567 570.934 522.2 566.884 503.831 562.769C493.429 560.455 483.059 558.106 472.719 555.723C463.137 553.518 453.418 551.97 443.92 549.403C439.428 548.225 435.013 546.773 430.698 545.057C426.679 543.743 422.885 541.822 419.448 539.363C412.704 533.755 412.888 523.316 413.034 515.258C413.352 505.639 414.779 496.089 417.286 486.797C418.476 482.122 419.832 477.505 421.219 472.855C422.003 470.347 422.719 467.777 423.569 465.266C424.418 462.756 426.061 461.356 426.986 459.103C427.91 456.851 427.669 454.839 428.342 452.824C428.916 451.415 429.665 450.082 430.571 448.859C431.591 446.881 432.439 444.819 433.107 442.697C434.098 440.475 436.436 439.309 437.554 437.016C441.618 428.201 446.411 419.739 451.883 411.719C458.089 403.427 464.288 394.94 470.087 386.24C472.837 382.221 475.318 378.018 478.066 373.967C481.27 369.773 484.09 365.3 486.491 360.602C487.873 356.588 488.234 352.295 487.542 348.108C487.328 343.977 486.376 339.917 484.729 336.122C481.19 328.989 472.615 324.952 466.125 330.973C464.611 332.335 463.453 333.619 464.536 335.468C465.514 337.16 466.669 338.743 467.982 340.192C471.008 343.298 474.579 345.823 478.517 347.641C487.47 351.714 496.822 354.849 506.422 356.995C526.195 361.969 547.087 363.802 567.105 359.084C576.545 356.964 585.544 353.219 593.699 348.016C597.604 345.484 601.272 342.603 604.658 339.41C606.327 337.846 607.994 336.217 609.526 334.495C611.932 331.729 611.208 329.866 609.023 327.375C602.194 319.554 593.125 317.101 583.266 315.33C572.362 313.535 561.307 312.919 550.457 310.828C540.592 308.894 530.713 306.603 520.649 304.579C511.227 302.84 502.011 300.126 493.151 296.481C488.711 294.177 484.12 292.177 479.409 290.492C473.666 289.286 467.83 288.574 461.966 288.362C451.193 287.442 440.378 287.11 429.572 287.005C418.766 286.901 408.458 287.006 397.919 287.055C386.961 287.564 376.118 289.517 365.672 292.865C345.866 298.624 326.692 306.366 308.442 315.972C299.16 320.678 290.078 325.788 281.197 331.304C272.927 336.624 264.161 341.133 255.023 344.768C245.796 348.385 236.26 350.742 226.882 353.81C222.348 355.452 217.901 357.322 213.555 359.41C208.299 361.585 202.924 363.458 197.454 365.02C177.011 371.417 156.997 379.623 136.193 384.274C115.388 388.925 93.7225 390.707 72.3928 393.585C62.242 394.955 52.0845 396.434 41.9204 398.022C36.8283 398.838 31.7387 399.72 26.6491 400.601C23.9145 401.363 21.1161 401.875 18.2885 402.13C16.757 402.189 16.2355 401.362 14.9646 400.563C12.9566 399.272 15.1318 395.602 17.1072 396.895L17.042 396.897Z" fill="#E63718"/>
<path d="M278.572 500.697C261.785 500.368 257.323 479.481 254.634 466.479C253.307 460.011 252.404 453.525 250.971 446.865C249.653 441.109 247.413 435.603 244.337 430.561C241.23 425.761 238.4 420.787 235.864 415.664C234.386 412.223 233.537 408.546 233.356 404.807C233 400.67 233.812 396.517 235.699 392.817C238.184 388.85 242.065 385.956 246.579 384.703C246.579 384.703 247.191 384.484 247.263 384.677C250.46 395.544 253.065 406.577 255.067 417.725C256.063 423.229 256.896 428.739 257.566 434.255C258.274 439.9 258.203 445.673 258.684 451.359C259.644 462.7 261.259 474.08 262.087 485.393C262.362 486.567 262.409 487.782 262.226 488.973C261.886 489.875 261.425 490.727 260.855 491.504C259.803 492.996 258.521 494.31 257.056 495.4C253.871 497.694 250.319 499.43 246.551 500.533C242.844 501.719 239.056 502.517 235.383 503.735L219.817 508.835C209.57 512.198 199.289 515.562 189.046 519.054C168.88 525.864 148.827 533.061 129.136 541.19C109.525 549.2 90.416 558.387 71.9134 568.698L65.1147 572.645C64.6999 572.889 63.1423 573.96 62.6735 573.652C62.2047 573.344 63.6133 572.638 63.7737 572.566C81.8894 562.002 100.642 552.568 119.923 544.317C139.02 536.016 158.482 528.711 178.221 521.82C197.959 514.928 218.36 508.272 238.536 501.722C244.981 499.615 253.516 499.22 257.451 492.939C258.086 492.095 258.497 491.103 258.645 490.057C258.672 488.655 258.618 487.253 258.483 485.858C258.373 483.026 258.005 480.237 257.702 477.477C257.127 471.892 256.487 466.31 255.881 460.759C255.275 455.207 254.83 449.585 254.579 443.955C254.471 441.155 254.364 438.388 253.994 435.567C253.624 432.745 253.259 430.053 252.826 427.299C251.13 416.406 248.85 405.611 245.996 394.962C245.283 392.273 244.527 389.597 243.728 386.933L244.38 386.907C242.955 387.523 241.685 388.448 240.663 389.615C239.641 390.782 238.893 392.163 238.473 393.656C237.309 397.163 236.95 400.887 237.425 404.552C238.404 413.838 243.946 421.285 248.524 429.127C251.42 433.874 253.537 439.053 254.795 444.468C256.142 450.61 257.066 456.801 258.252 462.982C259.455 470.387 261.52 477.627 264.404 484.553C267.956 492.012 273.528 498.545 282.281 498.728C282.77 498.709 281.279 499.81 281.215 499.845C280.491 500.367 279.655 500.712 278.773 500.852L278.572 500.697Z" fill="#E63718"/>
<path d="M490.301 357.846C481.757 370.695 468.658 378.797 454.44 384.138C447.299 386.827 439.972 388.935 432.643 390.979C424.603 393.213 416.512 395.807 408.524 397.681C398.983 399.908 389.308 401.227 379.684 403C370.061 404.774 360.617 406.997 350.929 407.958C346.019 408.409 341.143 408.076 336.168 408.529C331.192 408.982 326.705 410.263 321.971 411.033C312.693 412.224 303.294 412.093 294.053 410.645C291.954 410.367 289.881 409.926 287.785 409.746C285.69 409.566 284.026 409.598 282.167 409.604C278.156 409.827 274.133 409.488 270.216 408.599C266.604 407.422 263.376 405.295 260.873 402.44C259.553 401.016 258.093 399.729 256.515 398.599C254.863 397.623 253.139 396.774 251.358 396.059C249.5 395.282 247.758 394.253 246.182 392.999C245.406 392.345 246.124 391.502 246.863 391.213C247.344 391.015 247.867 390.943 248.383 391.003C248.899 391.063 249.391 391.253 249.814 391.555C252.817 394.112 256.796 394.904 260.015 397.127C263.234 399.35 265.208 402.305 268.195 404.439C271.282 406.324 274.864 407.242 278.479 407.074C282.348 406.973 286.22 407.084 290.077 407.408C298.794 408.905 307.643 409.492 316.481 409.159C321.166 408.782 325.725 407.693 330.36 406.862C334.938 406.083 339.571 405.675 344.215 405.642C353.74 405.135 363.2 403.777 372.483 401.584C381.842 399.722 391.254 398.381 400.583 396.553C408.972 394.925 417.099 392.427 425.332 390.12C432.5 388.116 439.707 386.305 446.791 383.814C460.548 379.208 473.838 372.663 483.154 361.219C484.374 359.728 485.512 358.171 486.563 356.556C487.459 355.25 491.529 355.843 490.295 357.684L490.301 357.846Z" fill="#E63718"/>
</svg>
