<svg width="60" height="60" viewBox="0 0 60 60" fill="none" xmlns="http://www.w3.org/2000/svg">
<path d="M47.532 36.4604C47.3277 36.4604 47.1318 36.3793 46.9873 36.2348C46.8429 36.0904 46.7617 35.8945 46.7617 35.6902V33.4025C46.7617 33.1982 46.8429 33.0023 46.9873 32.8578C47.1318 32.7134 47.3277 32.6322 47.532 32.6322C47.7363 32.6322 47.9322 32.7134 48.0767 32.8578C48.2211 33.0023 48.3023 33.1982 48.3023 33.4025V35.6902C48.3023 35.8945 48.2211 36.0904 48.0767 36.2348C47.9322 36.3793 47.7363 36.4604 47.532 36.4604Z" fill="#A39382"/>
<path d="M22.9373 58.4594C22.733 58.4594 22.5371 58.3783 22.3926 58.2338C22.2482 58.0893 22.167 57.8934 22.167 57.6891V5.31075C22.1665 5.20278 22.1886 5.0959 22.2321 4.99704C22.2755 4.89819 22.3392 4.80957 22.4191 4.73694C22.499 4.66431 22.5933 4.60928 22.6958 4.57544C22.7984 4.54159 22.9069 4.52968 23.0143 4.54048L47.609 7.02846C47.7997 7.04762 47.9764 7.13715 48.1045 7.27958C48.2327 7.42201 48.3032 7.60711 48.3023 7.79873V20.3772C48.3023 20.5815 48.2211 20.7775 48.0767 20.9219C47.9322 21.0664 47.7363 21.1475 47.532 21.1475C47.3277 21.1475 47.1318 21.0664 46.9873 20.9219C46.8429 20.7775 46.7617 20.5815 46.7617 20.3772V8.49505L23.7075 6.16267V56.8072L46.7617 53.6837V41.0821C46.7617 40.8778 46.8429 40.6819 46.9873 40.5374C47.1318 40.393 47.3277 40.3118 47.532 40.3118C47.7363 40.3118 47.9322 40.393 48.0767 40.5374C48.2211 40.6819 48.3023 40.8778 48.3023 41.0821V54.3539C48.3023 54.5402 48.2348 54.7201 48.1123 54.8605C47.9898 55.0009 47.8206 55.0921 47.636 55.1172L23.0413 58.4525C23.0068 58.4571 22.972 58.4594 22.9373 58.4594Z" fill="#A39382"/>
<path d="M47.5322 28.7809C47.3279 28.7809 47.1319 28.6998 46.9875 28.5553C46.843 28.4108 46.7619 28.2149 46.7619 28.0106V25.7692C46.7619 25.5649 46.843 25.3689 46.9875 25.2245C47.1319 25.08 47.3279 24.9989 47.5322 24.9989C47.7364 24.9989 47.9324 25.08 48.0768 25.2245C48.2213 25.3689 48.3024 25.5649 48.3024 25.7692V28.0106C48.3024 28.2149 48.2213 28.4108 48.0768 28.5553C47.9324 28.6998 47.7364 28.7809 47.5322 28.7809ZM11.5212 55.614C11.317 55.614 11.121 55.5329 10.9766 55.3884C10.8321 55.244 10.751 55.0481 10.751 54.8438V7.77564C10.751 7.57135 10.8321 7.37543 10.9766 7.23098C11.121 7.08652 11.317 7.00537 11.5212 7.00537H22.9367C23.1409 7.00537 23.3369 7.08652 23.4813 7.23098C23.6258 7.37543 23.7069 7.57135 23.7069 7.77564C23.7069 7.97993 23.6258 8.17585 23.4813 8.3203C23.3369 8.46476 23.1409 8.54591 22.9367 8.54591H12.2915V54.8438C12.2915 55.0481 12.2104 55.244 12.0659 55.3884C11.9215 55.5329 11.7255 55.614 11.5212 55.614Z" fill="#A39382"/>
<path d="M15.8718 55.6139C15.6675 55.6139 15.4716 55.5328 15.3272 55.3883C15.1827 55.2439 15.1016 55.0479 15.1016 54.8437V12.2747C15.1016 12.0704 15.1827 11.8745 15.3272 11.73C15.4716 11.5855 15.6675 11.5044 15.8718 11.5044H22.9314C23.1356 11.5044 23.3316 11.5855 23.476 11.73C23.6205 11.8745 23.7016 12.0704 23.7016 12.2747C23.7016 12.479 23.6205 12.6749 23.476 12.8193C23.3316 12.9638 23.1356 13.0449 22.9314 13.0449H16.6421V54.8437C16.6421 55.0479 16.561 55.2439 16.4165 55.3883C16.272 55.5328 16.0761 55.6139 15.8718 55.6139Z" fill="#A39382"/>
<path d="M22.931 55.614H3.3484C3.14411 55.614 2.94819 55.5329 2.80373 55.3884C2.65928 55.244 2.57812 55.048 2.57812 54.8438C2.57812 54.6395 2.65928 54.4435 2.80373 54.2991C2.94819 54.1546 3.14411 54.0735 3.3484 54.0735H22.931C23.1353 54.0735 23.3312 54.1546 23.4756 54.2991C23.6201 54.4435 23.7012 54.6395 23.7012 54.8438C23.7012 55.048 23.6201 55.244 23.4756 55.3884C23.3312 55.5329 23.1353 55.614 22.931 55.614ZM55.6513 55.614H43.86C43.6557 55.614 43.4598 55.5329 43.3153 55.3884C43.1709 55.244 43.0897 55.048 43.0897 54.8438C43.0897 54.6395 43.1709 54.4435 43.3153 54.2991C43.4598 54.1546 43.6557 54.0735 43.86 54.0735H55.6513C55.8556 54.0735 56.0515 54.1546 56.1959 54.2991C56.3404 54.4435 56.4216 54.6395 56.4216 54.8438C56.4216 55.048 56.3404 55.244 56.1959 55.3884C56.0515 55.5329 55.8556 55.614 55.6513 55.614ZM28.2828 34.2837C27.7322 34.2837 27.194 34.1204 26.7362 33.8146C26.2785 33.5087 25.9217 33.0739 25.711 32.5652C25.5003 32.0566 25.4451 31.4969 25.5525 30.9569C25.66 30.4169 25.9251 29.9208 26.3144 29.5315C26.7037 29.1422 27.1997 28.8771 27.7397 28.7697C28.2797 28.6623 28.8394 28.7174 29.3481 28.9281C29.8568 29.1388 30.2915 29.4956 30.5974 29.9534C30.9033 30.4112 31.0666 30.9494 31.0666 31.4999C31.0658 32.238 30.7722 32.9456 30.2503 33.4675C29.7284 33.9893 29.0209 34.2829 28.2828 34.2837ZM28.2828 30.2567C28.0369 30.2567 27.7966 30.3296 27.5921 30.4662C27.3877 30.6029 27.2283 30.797 27.1342 31.0242C27.0401 31.2514 27.0155 31.5013 27.0635 31.7425C27.1115 31.9836 27.2299 32.2052 27.4037 32.379C27.5776 32.5529 27.7991 32.6713 28.0403 32.7193C28.2814 32.7672 28.5314 32.7426 28.7586 32.6485C28.9857 32.5544 29.1799 32.3951 29.3165 32.1906C29.4531 31.9862 29.526 31.7458 29.526 31.4999C29.5256 31.1703 29.3945 30.8544 29.1614 30.6213C28.9284 30.3882 28.6124 30.2571 28.2828 30.2567Z" fill="#A39382"/>
</svg>
