<svg width="60" height="60" viewBox="0 0 60 60" fill="none" xmlns="http://www.w3.org/2000/svg">
<g clip-path="url(#clip0_329_3579)">
<path d="M21.9157 17.5424C15.0998 17.5424 9.55469 23.1702 9.55469 30.0878C9.55469 37.0054 15.0998 42.6333 21.9157 42.6333C28.7315 42.6333 34.2766 37.0054 34.2766 30.0878C34.2766 23.1702 28.7316 17.5424 21.9157 17.5424ZM21.9157 40.8151C16.0876 40.8151 11.3461 36.0028 11.3461 30.0878C11.3461 24.1728 16.0876 19.3605 21.9157 19.3605C27.7437 19.3605 32.4852 24.1728 32.4852 30.0878C32.4852 36.0028 27.7438 40.8151 21.9157 40.8151Z" fill="#A39382"/>
<path d="M58.2219 41.7846C57.9843 41.7846 57.7565 41.8804 57.5885 42.0509C57.4206 42.2214 57.3262 42.4526 57.3262 42.6937V47.6028H43.8306V30.5692C43.8306 27.7022 43.3114 24.9068 42.3216 22.2987L43.1858 21.4216C44.0645 20.5298 44.2572 19.1281 43.6546 18.0129C41.3742 13.7924 37.9709 10.3382 33.8125 8.02389C32.7137 7.41226 31.3326 7.60789 30.4539 8.49965L29.6592 9.3062C27.3205 8.38705 24.8238 7.88729 22.2554 7.84777C16.2715 7.75432 10.6473 10.0683 6.41885 14.3598C2.19044 18.6513 -0.0881557 24.3594 0.00261079 30.4327C0.0906304 36.3228 2.48913 41.8432 6.75611 45.977C10.985 50.0738 16.5372 52.3301 22.3899 52.3301H41.024C42.5716 52.3301 43.8306 51.0523 43.8306 49.4816V49.421H58.2219C58.4595 49.421 58.6873 49.3252 58.8553 49.1547C59.0233 48.9842 59.1176 48.753 59.1176 48.5119V42.6937C59.1176 42.4526 59.0233 42.2214 58.8553 42.0509C58.6873 41.8804 58.4595 41.7846 58.2219 41.7846ZM31.7206 9.78523C32.0398 9.46135 32.5457 9.39238 32.9512 9.61808C36.8099 11.7656 39.9678 14.9707 42.0839 18.887C42.3061 19.2984 42.2384 19.8119 41.9192 20.1359L41.5544 20.5061C40.5419 18.3972 39.2053 16.4395 37.5711 14.702C35.7609 12.7772 33.6803 11.2281 31.4183 10.092L31.7206 9.78523ZM42.0392 49.4816C42.0392 50.0497 41.5838 50.5119 41.024 50.5119H22.3899C11.1989 50.5119 1.95958 41.492 1.79382 30.4052C1.71045 24.828 3.80286 19.5863 7.68564 15.6455C11.494 11.7803 16.5351 9.66329 21.9122 9.66329C22.0173 9.66329 22.123 9.66414 22.2282 9.66571C33.1521 9.83395 42.0392 19.2113 42.0392 30.5692V49.4816Z" fill="#A39382"/>
<path d="M27.3503 14.4839C28.0493 14.735 28.7306 15.0343 29.3893 15.3797C29.4938 15.4345 29.608 15.4679 29.7252 15.478C29.8424 15.4881 29.9604 15.4746 30.0725 15.4384C30.1846 15.4021 30.2885 15.3438 30.3784 15.2668C30.4683 15.1898 30.5424 15.0956 30.5964 14.9895C30.7055 14.7753 30.7262 14.526 30.6541 14.2962C30.582 14.0665 30.423 13.8753 30.212 13.7646C29.4804 13.3809 28.7238 13.0486 27.9476 12.7698C27.7236 12.6894 27.4774 12.7026 27.263 12.8065C27.0486 12.9104 26.8837 13.0965 26.8045 13.3238C26.7253 13.5511 26.7383 13.801 26.8407 14.0186C26.9431 14.2362 27.1264 14.4036 27.3503 14.4839ZM32.9727 15.5512C32.7848 15.4037 32.5468 15.3381 32.3111 15.3687C32.0755 15.3993 31.8615 15.5236 31.7162 15.7144C31.5709 15.9051 31.5062 16.1466 31.5363 16.3858C31.5665 16.625 31.689 16.8422 31.8769 16.9896C33.8244 18.5176 35.431 20.5042 36.523 22.7342C36.5745 22.8425 36.6467 22.9392 36.7354 23.0189C36.8241 23.0986 36.9274 23.1597 37.0395 23.1986C37.1515 23.2375 37.2701 23.2534 37.3883 23.2455C37.5064 23.2376 37.6219 23.206 37.728 23.1525C37.834 23.099 37.9286 23.0247 38.0061 22.9339C38.0837 22.8431 38.1428 22.7375 38.1799 22.6234C38.217 22.5092 38.2315 22.3888 38.2224 22.2689C38.2134 22.1491 38.181 22.0322 38.1272 21.9252C36.9154 19.4504 35.1331 17.2464 32.9727 15.5512ZM28.0891 25.4242C27.9873 25.4839 27.898 25.5635 27.8264 25.6582C27.7549 25.753 27.7024 25.8611 27.672 25.9764C27.6416 26.0918 27.6339 26.212 27.6493 26.3304C27.6648 26.4488 27.703 26.5629 27.7619 26.6662C28.3514 27.7013 28.663 28.8844 28.663 30.0879C28.663 33.8642 25.6359 36.9364 21.9152 36.9364C18.1945 36.9364 15.1674 33.8642 15.1674 30.0879C15.1674 26.3117 18.1945 23.2395 21.9152 23.2395C23.4663 23.2395 24.9245 23.7586 26.1319 24.7409C26.3173 24.8917 26.554 24.9616 26.7902 24.9352C27.0263 24.9088 27.2425 24.7883 27.391 24.6002C27.5396 24.4121 27.6085 24.1717 27.5825 23.9321C27.5565 23.6924 27.4377 23.4731 27.2524 23.3222C25.7455 22.0964 23.8501 21.4213 21.9152 21.4213C17.2067 21.4213 13.376 25.3092 13.376 30.0879C13.376 34.8667 17.2067 38.7546 21.9152 38.7546C26.6237 38.7546 30.4544 34.8667 30.4544 30.0879C30.4544 28.5654 30.0597 27.0677 29.3128 25.7564C29.254 25.653 29.1756 25.5624 29.0823 25.4898C28.989 25.4171 28.8824 25.3638 28.7688 25.333C28.6551 25.3021 28.5366 25.2943 28.42 25.3099C28.3034 25.3256 28.1909 25.3644 28.0891 25.4242Z" fill="#A39382"/>
</g>
<defs>
<clipPath id="clip0_329_3579">
<rect width="59.1176" height="60" fill="white"/>
</clipPath>
</defs>
</svg>
