<svg width="60" height="60" viewBox="0 0 60 60" fill="none" xmlns="http://www.w3.org/2000/svg">
<g clip-path="url(#clip0_329_3648)">
<path d="M29.5 59C21.6202 59 14.2122 55.9315 8.64031 50.3596C3.06853 44.7878 0 37.3798 0 29.5C0 21.6202 3.06853 14.2121 8.64031 8.64031C14.2121 3.06853 21.6203 0 29.5 0C37.3797 0 44.7879 3.06853 50.3597 8.64031C55.9315 14.2121 59 21.6202 59 29.5C59 37.3798 55.9315 44.7878 50.3597 50.3596C44.7878 55.9315 37.3798 59 29.5 59ZM29.5 1.81685C14.2355 1.81685 1.81685 14.2355 1.81685 29.5C1.81685 44.7645 14.2355 57.1832 29.5 57.1832C44.7645 57.1832 57.1832 44.7645 57.1832 29.5C57.1832 14.2355 44.7647 1.81685 29.5 1.81685Z" fill="#A39382"/>
<path d="M31.1475 12.6099H39.2151V46.3765H34.9657V16.4568V15.4568H33.9657H31.1746C28.4641 15.4568 26.2593 16.1399 24.7165 17.458C23.1549 18.7922 22.3868 20.6795 22.3868 22.8286C22.3868 25.154 22.893 26.9427 23.9739 28.5036C25.0285 30.0265 26.5807 31.2561 28.5028 32.5604L28.5028 32.5604L28.5113 32.566L30.8332 34.1074L22.6216 46.363H18.2695L25.3731 35.832L25.9183 35.0238L25.1242 34.4583C22.8275 32.8226 21.1155 31.2551 19.9719 29.4864C18.8425 27.7397 18.2329 25.7427 18.2329 23.1827C18.2329 19.9826 19.3373 17.3821 21.4253 15.5676C23.5299 13.7388 26.7484 12.6099 31.1475 12.6099Z" stroke="#A39382" stroke-width="2"/>
</g>
<defs>
<clipPath id="clip0_329_3648">
<rect width="59" height="59" fill="white"/>
</clipPath>
</defs>
</svg>
