<svg width="60" height="60" viewBox="0 0 60 60" fill="none" xmlns="http://www.w3.org/2000/svg">
<g clip-path="url(#clip0_329_3630)">
<path d="M47.3216 60.0001H16.842C15.3653 60.0001 14.1641 58.8073 14.1641 57.3413V20.6972C14.1641 20.1985 14.5712 19.7943 15.0735 19.7943C15.5758 19.7943 15.9829 20.1985 15.9829 20.6972V57.3411C15.9829 57.8114 16.3683 58.1941 16.842 58.1941H47.3216C47.7953 58.1941 48.1807 57.8114 48.1807 57.3411V11.8356C48.1807 11.3653 47.7953 10.9826 47.3216 10.9826H16.842C16.3683 10.9826 15.9829 11.3653 15.9829 11.8356V15.0789C15.9829 15.5776 15.5758 15.9818 15.0735 15.9818C14.5712 15.9818 14.1641 15.5776 14.1641 15.0789V11.8356C14.1641 10.3696 15.3655 9.17674 16.842 9.17674H47.3216C48.7983 9.17674 49.9995 10.3694 49.9995 11.8356V57.3411C49.9997 58.8073 48.7983 60.0001 47.3216 60.0001Z" fill="#A39382"/>
<path d="M16.451 11.0269C16.0492 11.0269 15.6838 10.7612 15.5741 10.3609C15.4463 9.89456 15.711 9.41107 16.1745 9.26387L43.233 0.669203C43.5842 0.557963 43.9685 0.667602 44.206 0.947868C44.6118 1.42654 44.8352 2.03426 44.8352 2.659V10.0796C44.8352 10.5784 44.4281 10.9826 43.9258 10.9826H16.8419C16.7805 10.9826 16.7181 10.9898 16.6515 11.0047C16.5844 11.0198 16.5171 11.0269 16.451 11.0269ZM22.4182 9.17671H43.0165V2.659C43.0165 2.65065 43.0164 2.6423 43.0162 2.63412L22.4182 9.17671Z" fill="#A39382"/>
<path d="M29.3639 25.3218H20.1451C19.1885 25.3218 18.4102 24.5492 18.4102 23.5992V15.1147C18.4102 14.1649 19.1885 13.3922 20.1451 13.3922H29.3639C30.3206 13.3922 31.0989 14.1649 31.0989 15.1147V23.5992C31.0989 24.5492 30.3206 25.3218 29.3639 25.3218ZM20.229 23.5159H29.28V15.198H20.229V23.5159Z" fill="#A39382"/>
<path d="M29.3639 55.7849H20.1451C19.1885 55.7849 18.4102 55.0122 18.4102 54.0624V45.5778C18.4102 44.628 19.1885 43.8553 20.1451 43.8553H29.3639C30.3206 43.8553 31.0989 44.628 31.0989 45.5778V54.0624C31.0989 55.0122 30.3206 55.7849 29.3639 55.7849ZM20.229 53.9791H29.28V45.661H20.229V53.9791Z" fill="#A39382"/>
<path d="M29.3639 41.0267H20.1451C19.1885 41.0267 18.4102 40.254 18.4102 39.3042V30.8196C18.4102 29.8699 19.1885 29.0971 20.1451 29.0971H29.3639C30.3206 29.0971 31.0989 29.8697 31.0989 30.8196V39.3042C31.0989 40.254 30.3206 41.0267 29.3639 41.0267ZM20.229 39.2209H29.28V30.903H20.229V39.2209Z" fill="#A39382"/>
<path d="M44.8454 18.6003H33.9153C33.413 18.6003 33.0059 18.1962 33.0059 17.6974C33.0059 17.1987 33.413 16.7945 33.9153 16.7945H44.8454C45.3478 16.7945 45.7549 17.1987 45.7549 17.6974C45.7549 18.1962 45.3476 18.6003 44.8454 18.6003Z" fill="#A39382"/>
<path d="M38.0027 21.9194H33.9143C33.412 21.9194 33.0049 21.5152 33.0049 21.0165C33.0049 20.5178 33.412 20.1136 33.9143 20.1136H38.0027C38.505 20.1136 38.9121 20.5178 38.9121 21.0165C38.9121 21.5152 38.505 21.9194 38.0027 21.9194Z" fill="#A39382"/>
<path d="M44.8454 34.3054H33.9153C33.413 34.3054 33.0059 33.9012 33.0059 33.4025C33.0059 32.9038 33.413 32.4996 33.9153 32.4996H44.8454C45.3478 32.4996 45.7549 32.9038 45.7549 33.4025C45.7549 33.9012 45.3476 34.3054 44.8454 34.3054Z" fill="#A39382"/>
<path d="M38.0027 37.6245H33.9143C33.412 37.6245 33.0049 37.2203 33.0049 36.7216C33.0049 36.2229 33.412 35.8187 33.9143 35.8187H38.0027C38.505 35.8187 38.9121 36.2229 38.9121 36.7216C38.9121 37.2203 38.505 37.6245 38.0027 37.6245Z" fill="#A39382"/>
<path d="M44.8454 49.0634H33.9153C33.413 49.0634 33.0059 48.6592 33.0059 48.1604C33.0059 47.6617 33.413 47.2575 33.9153 47.2575H44.8454C45.3478 47.2575 45.7549 47.6617 45.7549 48.1604C45.7549 48.6592 45.3476 49.0634 44.8454 49.0634Z" fill="#A39382"/>
<path d="M38.0027 52.3826H33.9143C33.412 52.3826 33.0049 51.9784 33.0049 51.4796C33.0049 50.9809 33.412 50.5767 33.9143 50.5767H38.0027C38.505 50.5767 38.9121 50.9809 38.9121 51.4796C38.9121 51.9784 38.505 52.3826 38.0027 52.3826Z" fill="#A39382"/>
<path d="M16.637 10.9952C16.1777 10.9952 15.7843 10.6516 15.7339 10.1899C15.6812 9.70788 16.021 9.27191 16.5017 9.19967C16.5098 9.19839 16.5183 9.19726 16.5268 9.19614C16.5394 9.19454 16.5518 9.19309 16.5636 9.19197C17.0635 9.14429 17.5062 9.51269 17.5516 10.0095C17.5542 10.0371 17.5553 10.0646 17.5553 10.0918C17.5555 10.5389 17.2232 10.922 16.774 10.9853C16.7723 10.9854 16.7709 10.9856 16.7694 10.9859C16.7646 10.9866 16.7599 10.9874 16.7557 10.9879C16.7424 10.9896 16.7292 10.9911 16.7169 10.992C16.6899 10.9943 16.6634 10.9952 16.637 10.9952Z" fill="#A39382"/>
<path d="M15.0738 50.8232H11.6781C10.2014 50.8232 9 49.6304 9 48.1644V15.1845C9 14.6857 9.4071 14.2816 9.90942 14.2816C10.4117 14.2816 10.8188 14.6857 10.8188 15.1845V48.1644C10.8188 48.6347 11.2043 49.0174 11.6781 49.0174H14.1644V11.8356C14.1644 10.5989 15.003 9.54304 16.2094 9.25298L39.6549 1.80586H11.6781C11.2044 1.80586 10.8188 2.18854 10.8188 2.65886V9.56615C10.8188 10.0649 10.4117 10.4691 9.90942 10.4691C9.4071 10.4691 9 10.065 9 9.56631V2.65902C9 1.193 10.2014 0.00018692 11.6781 0.00018692H42.1577C42.9491 0.00018692 43.6958 0.345623 44.2064 0.947727C44.4017 1.17807 44.4686 1.48996 44.3846 1.77938C44.3005 2.06863 44.0767 2.29737 43.7878 2.38919L16.7292 10.9839C16.7038 10.9919 16.6781 10.9988 16.6522 11.0047C16.2645 11.0916 15.9832 11.441 15.9832 11.8357V49.9205C15.9832 50.4191 15.576 50.8232 15.0738 50.8232Z" fill="#A39382"/>
</g>
<defs>
<clipPath id="clip0_329_3630">
<rect width="41" height="60" fill="white" transform="translate(9)"/>
</clipPath>
</defs>
</svg>
