<svg width="60" height="60" viewBox="0 0 60 60" fill="none" xmlns="http://www.w3.org/2000/svg">
<g clip-path="url(#clip0_329_3592)">
<path d="M29.4996 38.395H9.42408C8.83011 38.395 8.34863 37.9622 8.34863 37.4284C8.34863 36.8947 8.83011 36.4619 9.42408 36.4619H29.4996C30.0936 36.4619 30.575 36.8947 30.575 37.4284C30.575 37.9622 30.0936 38.395 29.4996 38.395Z" fill="#A39382"/>
<path d="M29.4996 43.119H9.42408C8.83011 43.119 8.34863 42.6862 8.34863 42.1524C8.34863 41.6187 8.83011 41.1859 9.42408 41.1859H29.4996C30.0936 41.1859 30.575 41.6187 30.575 42.1524C30.575 42.6862 30.0936 43.119 29.4996 43.119Z" fill="#A39382"/>
<path d="M29.4996 47.843H9.42408C8.83011 47.843 8.34863 47.4102 8.34863 46.8764C8.34863 46.3427 8.83011 45.9099 9.42408 45.9099H29.4996C30.0936 45.9099 30.575 46.3427 30.575 46.8764C30.575 47.4102 30.0936 47.843 29.4996 47.843Z" fill="#A39382"/>
<path d="M29.4996 52.567H9.42408C8.83011 52.567 8.34863 52.1342 8.34863 51.6004C8.34863 51.0667 8.83011 50.6339 9.42408 50.6339H29.4996C30.0936 50.6339 30.575 51.0667 30.575 51.6004C30.575 52.1342 30.0936 52.567 29.4996 52.567Z" fill="#A39382"/>
<path d="M41.5944 59H6.90242C4.75053 59 3 57.2357 3 55.0673V17.0811C3 16.0307 3.4058 15.0432 4.14298 14.3003L12.2286 6.15194C12.9657 5.40905 13.9457 4.99995 14.988 4.99995H41.5944C43.7463 4.99995 45.497 6.76421 45.497 8.93264V19.454C45.497 19.903 45.1359 20.2669 44.6904 20.2669C44.2449 20.2669 43.8838 19.903 43.8838 19.454V8.93264C43.8838 7.66057 42.8568 6.62563 41.5944 6.62563H14.9882C14.3766 6.62563 13.8017 6.86565 13.3693 7.30148L5.28366 15.4498C4.85134 15.8856 4.61316 16.4649 4.61316 17.081V55.0673C4.61316 56.3394 5.64014 57.3743 6.90242 57.3743H41.5946C42.857 57.3743 43.8839 56.3394 43.8839 55.0673V54.003C43.8839 53.5541 44.245 53.1902 44.6905 53.1902C45.1361 53.1902 45.4971 53.5541 45.4971 54.003V55.0673C45.497 57.2357 43.7464 59 41.5944 59ZM37.0688 16.6016H25.9944C25.5488 16.6016 25.1878 16.2378 25.1878 15.7888C25.1878 15.3398 25.5488 14.976 25.9944 14.976H37.0688C37.161 14.976 37.236 14.9004 37.236 14.8075V12.2431C37.236 12.1502 37.161 12.0746 37.0688 12.0746H20.9686C20.8764 12.0746 20.8014 12.1502 20.8014 12.2431V14.8075C20.8014 14.9004 20.8764 14.976 20.9686 14.976H22.3282C22.7738 14.976 23.1348 15.3398 23.1348 15.7888C23.1348 16.2378 22.7738 16.6016 22.3282 16.6016H20.9686C19.9869 16.6016 19.1882 15.7968 19.1882 14.8075V12.2431C19.1882 11.2538 19.9869 10.4489 20.9686 10.4489H37.0688C38.0505 10.4489 38.8492 11.2538 38.8492 12.2431V14.8075C38.8492 15.7968 38.0505 16.6016 37.0688 16.6016Z" fill="#A39382"/>
<path d="M48.4899 53.1651C48.1827 53.1651 47.876 53.0809 47.6054 52.913L44.7294 51.1288C44.7056 51.1142 44.6756 51.1142 44.6525 51.1286L41.7762 52.9131C41.2562 53.2357 40.602 53.2495 40.0692 52.9495C39.5363 52.6495 39.2051 52.0808 39.2051 51.4656V43.4825C39.2051 43.0335 39.5661 42.6696 40.0117 42.6696C40.4572 42.6696 40.8182 43.0335 40.8182 43.4825V51.4656C40.8182 51.4798 40.8182 51.5093 40.856 51.5304C40.8938 51.5515 40.9186 51.5361 40.9305 51.5288L43.8065 49.7446C44.0722 49.5796 44.3781 49.4923 44.6907 49.4923C45.0036 49.4923 45.3096 49.5795 45.5756 49.7449L48.451 51.5288C48.4629 51.5361 48.4877 51.5515 48.5256 51.5304C48.5633 51.5093 48.5633 51.4798 48.5633 51.4656V43.4825C48.5633 43.0335 48.9243 42.6696 49.3699 42.6696C49.8154 42.6696 50.1764 43.0335 50.1764 43.4825V51.4656C50.1764 52.0809 49.8453 52.6495 49.3124 52.9495C49.0568 53.0933 48.7732 53.1651 48.4899 53.1651Z" fill="#A39382"/>
<path d="M44.6903 45.9714C43.7056 45.9714 42.7952 45.5213 42.1927 44.7365C41.8014 44.2268 41.152 44.014 40.5381 44.1948C40.406 44.2336 40.2702 44.2641 40.1347 44.2854C39.2456 44.4255 38.3337 44.1716 37.6356 43.5875C36.9394 43.0055 36.5244 42.1483 36.4972 41.2359C36.4778 40.5918 36.0764 40.0352 35.4746 39.8177C34.5477 39.4826 33.8417 38.7491 33.5374 37.8053C33.2331 36.8617 33.3767 35.8502 33.931 35.0303C34.2909 34.4978 34.2909 33.8096 33.931 33.2771C33.3767 32.4571 33.2331 31.4455 33.5374 30.5019C33.8417 29.5582 34.5477 28.8247 35.4746 28.4896C36.0766 28.2721 36.4779 27.7153 36.4972 27.0714C36.5271 26.0794 37.001 25.1761 37.7977 24.5927C38.5944 24.0095 39.5936 23.8346 40.5384 24.1125C41.1527 24.293 41.8018 24.0802 42.193 23.5706C42.7957 22.7858 43.7059 22.3357 44.6904 22.3357C45.6751 22.3357 46.5854 22.7858 47.188 23.5706C47.5794 24.0802 48.2288 24.2927 48.8426 24.1124C49.7875 23.8346 50.7866 24.0095 51.5833 24.5927C52.38 25.1759 52.854 26.0794 52.8837 27.0713C52.9031 27.7153 53.3043 28.2719 53.9061 28.4894C54.833 28.8245 55.5392 29.558 55.8435 30.5016C56.1478 31.4453 56.0042 32.4569 55.4499 33.277C55.0898 33.8095 55.0898 34.4976 55.4499 35.03C56.0042 35.8499 56.1478 36.8617 55.8435 37.8053C55.5392 38.7491 54.833 39.4826 53.9061 39.8177C53.3043 40.0352 52.9031 40.592 52.8839 41.2359C52.8565 42.1483 52.4415 43.0055 51.7455 43.5875C51.0473 44.1716 50.1358 44.4255 49.245 44.2854C49.1101 44.2641 48.9744 44.2336 48.8424 44.1948C48.2289 44.0141 47.5794 44.227 47.1882 44.7365C46.5852 45.5213 45.675 45.9714 44.6903 45.9714ZM40.9805 42.5048C41.9395 42.5048 42.8577 42.9464 43.4686 43.7417C43.7634 44.1257 44.2086 44.3459 44.6903 44.3459C45.1718 44.3459 45.6172 44.1258 45.912 43.7417C46.712 42.7 48.0399 42.265 49.2942 42.6344C49.3599 42.6536 49.4268 42.6688 49.4936 42.6793C49.9278 42.7474 50.3728 42.6228 50.7149 42.3367C51.0601 42.0481 51.2575 41.6399 51.2711 41.187C51.3104 39.8705 52.1309 38.7325 53.3612 38.2877C53.8148 38.1237 54.1602 37.765 54.309 37.3033C54.4579 36.8416 54.3876 36.3469 54.1165 35.9457C53.3804 34.8573 53.3804 33.4504 54.1165 32.3619C54.3876 31.9607 54.4579 31.4659 54.309 31.0044C54.1601 30.5427 53.8146 30.1839 53.3612 30.02C52.1309 29.5752 51.3104 28.4373 51.2711 27.1205C51.2565 26.6354 51.0246 26.1935 50.6349 25.9083C50.2452 25.6229 49.7563 25.5373 49.2943 25.6732C48.0392 26.0421 46.7118 25.6073 45.9121 24.5657C45.6172 24.1817 45.172 23.9615 44.6903 23.9615C44.2088 23.9615 43.7634 24.1817 43.4686 24.5657C42.6689 25.6071 41.3414 26.0419 40.0866 25.6732C39.6244 25.5372 39.1354 25.6229 38.7457 25.908C38.3561 26.1934 38.1242 26.6353 38.1095 27.1205C38.07 28.437 37.2495 29.5751 36.0192 30.0197C35.5658 30.1837 35.2204 30.5424 35.0716 31.0041C34.9227 31.4658 34.993 31.9606 35.2641 32.3617C36 33.4503 36 34.8569 35.2641 35.9454C34.993 36.3466 34.9227 36.8413 35.0716 37.3029C35.2205 37.7647 35.566 38.1234 36.0194 38.2874C37.2495 38.732 38.07 39.8702 38.1096 41.1867C38.1231 41.6396 38.3207 42.048 38.6658 42.3366C39.008 42.6227 39.4532 42.7474 39.8867 42.679C39.9539 42.6685 40.0206 42.6535 40.0858 42.6342C40.3827 42.5471 40.6835 42.5048 40.9805 42.5048ZM44.6902 40.7998C41.0537 40.7998 38.0953 37.8183 38.0953 34.1536C38.0953 30.4888 41.0537 27.5074 44.6902 27.5074C48.3266 27.5074 51.2852 30.4888 51.2852 34.1536C51.2852 37.8183 48.3267 40.7998 44.6902 40.7998ZM44.6902 29.1332C41.9432 29.1332 39.7084 31.3853 39.7084 34.1537C39.7084 36.922 41.9432 39.1741 44.6902 39.1741C47.4371 39.1741 49.672 36.922 49.672 34.1537C49.672 31.3853 47.4373 29.1332 44.6902 29.1332Z" fill="#A39382"/>
<path d="M44.6906 40.7998C41.0542 40.7998 38.0957 37.8184 38.0957 34.1536C38.0957 30.4888 41.0542 27.5074 44.6906 27.5074C48.327 27.5074 51.2856 30.4888 51.2856 34.1536C51.2856 37.8184 48.3272 40.7998 44.6906 40.7998ZM44.6906 29.1332C41.9436 29.1332 39.7089 31.3853 39.7089 34.1538C39.7089 36.922 41.9436 39.1741 44.6906 39.1741C47.4376 39.1741 49.6725 36.922 49.6725 34.1538C49.6725 31.3853 47.4377 29.1332 44.6906 29.1332Z" fill="#A39382"/>
<path d="M11.7866 16.6014H4.0849C3.63938 16.6014 3.27832 16.2376 3.27832 15.7886C3.27832 15.3396 3.63938 14.9758 4.0849 14.9758H11.7866C12.4002 14.9758 12.8994 14.4727 12.8994 13.8544V6.09307C12.8994 5.6441 13.2604 5.28023 13.7059 5.28023C14.1515 5.28023 14.5125 5.6441 14.5125 6.09307V13.8544C14.5125 15.3691 13.2897 16.6014 11.7866 16.6014Z" fill="#A39382"/>
</g>
<defs>
<clipPath id="clip0_329_3592">
<rect width="53" height="54" fill="white" transform="translate(3 5)"/>
</clipPath>
</defs>
</svg>
