<svg width="60" height="60" viewBox="0 0 60 60" fill="none" xmlns="http://www.w3.org/2000/svg">
<g clip-path="url(#clip0_329_3614)">
<path d="M28.3267 43.9211C27.8904 43.601 27.2765 43.6944 26.956 44.1309L26.8349 44.2957C26.681 44.5051 26.6166 44.767 26.6557 45.0239C26.6948 45.2808 26.8343 45.5116 27.0435 45.6658C27.2117 45.7901 27.4153 45.8572 27.6244 45.8571C27.778 45.8573 27.9295 45.8214 28.0666 45.7523C28.2037 45.6831 28.3227 45.5826 28.4138 45.459L28.5367 45.2919C28.6906 45.0823 28.7549 44.8201 28.7155 44.563C28.6761 44.306 28.5363 44.0751 28.3267 43.9211Z" fill="#A39382"/>
<path d="M28.5829 53.2501L26.0609 48.6642L28.4156 45.4572C28.4918 45.3535 28.5469 45.2357 28.5776 45.1106C28.6083 44.9855 28.614 44.8556 28.5945 44.7283C28.575 44.601 28.5306 44.4788 28.4639 44.3687C28.3972 44.2585 28.3094 44.1626 28.2055 44.0864C28.1018 44.0102 27.984 43.9551 27.8589 43.9244C27.7338 43.8937 27.6039 43.888 27.4766 43.9075C27.3494 43.927 27.2272 43.9714 27.117 44.0382C27.0069 44.1049 26.911 44.1927 26.8348 44.2966L24.1095 48.0082C23.9989 48.1589 23.9336 48.3381 23.9214 48.5247C23.9092 48.7112 23.9506 48.8974 24.0406 49.0612L26.8645 54.1952V54.1951C26.9899 54.423 27.2006 54.5917 27.4504 54.6642C27.7001 54.7367 27.9685 54.7071 28.1964 54.5817C28.3092 54.5197 28.4087 54.436 28.4892 54.3355C28.5696 54.235 28.6295 54.1196 28.6654 53.996C28.7013 53.8723 28.7125 53.7428 28.6983 53.6148C28.6842 53.4869 28.6449 53.3629 28.5829 53.2501ZM35.8916 48.0083L33.1774 44.3117C33.0225 44.1044 32.792 43.9667 32.536 43.9285C32.2801 43.8904 32.0194 43.955 31.8109 44.1082C31.6023 44.2614 31.4628 44.4908 31.4226 44.7464C31.3825 45.0021 31.445 45.2632 31.5965 45.473L33.9396 48.6644L31.4349 53.2191C31.3094 53.447 31.2797 53.7154 31.3522 53.9652C31.4246 54.215 31.5934 54.4258 31.8213 54.5513C32.0492 54.6767 32.3176 54.7064 32.5674 54.634C32.8172 54.5615 33.028 54.3928 33.1535 54.1649L35.9603 49.0615C36.0505 48.8977 36.0919 48.7115 36.0797 48.5249C36.0675 48.3383 36.0022 48.1591 35.8916 48.0083ZM37.4455 32.5979C37.2872 32.5147 37.1092 32.4764 36.9308 32.4871C36.7523 32.4978 36.5802 32.557 36.4329 32.6585C35.8497 33.0603 35.3084 33.486 34.8242 33.9236C32.1852 36.3093 29.678 35.9865 29.5798 35.9724C29.5207 35.9629 29.4608 35.959 29.401 35.9607C28.358 35.9875 26.4775 35.0344 24.4882 33.4721C24.1871 33.2354 23.8777 33.0097 23.5604 32.7952C23.4129 32.6956 23.2411 32.638 23.0634 32.6286C22.8857 32.6192 22.7087 32.6584 22.5516 32.7419C22.3944 32.8255 22.263 32.9502 22.1713 33.1027C22.0796 33.2553 22.0312 33.4299 22.0313 33.6079V36.9719C22.0313 37.1365 22.0729 37.2985 22.152 37.4429C22.2311 37.5873 22.3453 37.7094 22.484 37.7981L29.4374 42.4444C29.4385 42.4451 29.4395 42.446 29.4407 42.4468L29.459 42.459C29.6196 42.5654 29.808 42.6221 30.0006 42.622C30.1977 42.622 30.3902 42.5627 30.5532 42.4519L30.5632 42.4453C30.567 42.4428 30.5709 42.4402 30.5747 42.4376L37.5116 37.8022C37.652 37.7139 37.7676 37.5915 37.8478 37.4463C37.9279 37.3012 37.97 37.1381 37.97 36.9722V33.4661C37.97 33.2873 37.9211 33.1119 37.8287 32.9589C37.7363 32.8058 37.6037 32.681 37.4455 32.5979ZM36.0086 36.4474L30.0005 40.4621L23.9925 36.4473V35.5554C25.4554 36.6186 27.6074 37.9226 29.3616 37.9224H29.373C29.962 37.9876 32.9654 38.1646 36.0088 35.4948V36.4474H36.0086Z" fill="#A39382"/>
<path d="M30.968 41.4803C30.9363 41.2901 30.8492 41.1134 30.7176 40.9724C30.586 40.8314 30.4158 40.7324 30.2282 40.6876C30.0406 40.6429 29.844 40.6545 29.6629 40.7209C29.4819 40.7874 29.3244 40.9057 29.2103 41.0612L26.9563 44.1312C26.8801 44.235 26.8251 44.3528 26.7944 44.4779C26.7637 44.603 26.7579 44.7329 26.7774 44.8602C26.7969 44.9875 26.8413 45.1097 26.9081 45.2198C26.9749 45.3299 27.0627 45.4258 27.1665 45.502C27.3343 45.6258 27.5375 45.6925 27.746 45.6924C27.9001 45.6925 28.0521 45.6563 28.1896 45.5867C28.3271 45.5171 28.4463 45.4161 28.5374 45.2918L30.7796 42.238C30.8613 42.1313 30.9201 42.0091 30.9526 41.8787C30.985 41.7484 30.9902 41.6128 30.968 41.4803ZM44.9403 9.86675C44.9209 9.71314 44.4615 6.39785 41.3408 5.09001C41.4314 4.50775 41.4219 3.75941 41.0523 3.03135C40.5554 2.05282 39.575 1.41516 38.138 1.13581C38.0764 1.12381 38.0138 1.11778 37.951 1.1178H24.7892C19.4448 1.1178 15.0967 5.46577 15.0967 10.8104V15.975C15.0967 17.3206 15.5554 18.6327 16.388 19.6695C16.8008 20.1835 17.3092 21.0813 17.3859 22.4386C17.3999 22.6936 17.513 22.933 17.7011 23.1058C17.8892 23.2785 18.1373 23.371 18.3926 23.3633C18.6478 23.3561 18.8901 23.2497 19.068 23.0667C19.246 22.8836 19.3455 22.6384 19.3455 22.3831V15.6497C20.0114 12.8959 22.2839 12.36 22.6746 12.2876H26.932C27.4328 12.2876 27.9252 12.2111 28.3959 12.0602C29.2054 11.8006 30.4897 11.3228 31.4247 10.9676C32.0515 10.7298 32.7421 10.7211 33.3746 10.9432L37.9324 12.5431C40.211 13.3837 40.6176 15.384 40.668 15.6983V23.7794C40.668 23.9082 40.6934 24.0358 40.7427 24.1548C40.792 24.2738 40.8643 24.3819 40.9555 24.473C41.0466 24.564 41.1548 24.6362 41.2739 24.6853C41.393 24.7345 41.5206 24.7597 41.6494 24.7595C41.8841 24.7591 42.111 24.6746 42.2888 24.5214C42.4665 24.3681 42.5835 24.1562 42.6185 23.9241C42.6224 23.8988 43.0139 21.3696 44.2765 19.3446C44.7158 18.6396 44.9482 17.8359 44.9482 17.0203V9.99057C44.9482 9.94922 44.9456 9.90787 44.9403 9.86675ZM42.9868 17.0198C42.9868 17.4579 42.8632 17.8924 42.6292 18.2788V15.6312C42.6292 15.5957 42.6273 15.5605 42.6234 15.5253C42.608 15.3829 42.2028 12.0223 38.6021 10.6996L38.5889 10.6948L34.0242 9.09236C33.5129 8.91298 32.9749 8.82141 32.433 8.8215C31.8544 8.8215 31.2761 8.92584 30.7282 9.13427C29.4191 9.63158 28.4053 9.99759 27.7969 10.1927C27.5172 10.2819 27.2254 10.327 26.9319 10.3264H22.5953C22.5533 10.3264 22.5112 10.3292 22.4694 10.3345C22.3034 10.356 18.3922 10.9122 17.4078 15.324C17.3922 15.3941 17.3843 15.4657 17.3843 15.5375V17.5557C17.1687 17.0567 17.0576 16.5188 17.0577 15.9751V10.8106C17.0577 6.54761 20.526 3.07927 24.7889 3.07927H37.852C38.3928 3.19447 39.05 3.43089 39.2994 3.91189C39.6047 4.50061 39.2569 5.31125 39.2566 5.31193C39.1947 5.44365 39.1629 5.58749 39.1636 5.73301C39.1642 5.87853 39.1972 6.02209 39.2602 6.15327C39.3232 6.28445 39.4146 6.39996 39.5278 6.49142C39.641 6.58288 39.7731 6.64801 39.9146 6.68207C42.4111 7.28303 42.9203 9.67746 42.9867 10.0648L42.9868 17.0198Z" fill="#A39382"/>
<path d="M42.623 15.5252C42.6076 15.3828 42.2024 12.0222 38.6017 10.6996L38.5885 10.6948L34.0238 9.09233C32.9545 8.71745 31.7872 8.73222 30.7277 9.13401C29.4186 9.63132 28.4048 9.99733 27.7964 10.1925C27.5167 10.2817 27.2249 10.3268 26.9314 10.3262H22.5948C22.5528 10.3262 22.5107 10.3289 22.4689 10.3342C22.3029 10.3558 18.3917 10.912 17.4074 15.3237C17.3917 15.3938 17.3838 15.4654 17.3838 15.5372V23.9672L17.384 23.989C17.3905 24.2818 17.5977 31.1973 22.3759 34.36L22.4006 34.3774C22.4211 34.3919 22.4416 34.4064 22.463 34.4208C22.7411 34.609 23.0125 34.807 23.2766 35.0145C24.6686 36.1076 27.2918 37.9225 29.3613 37.9225H29.3727C29.4851 37.9348 29.6857 37.9513 29.9578 37.9513C31.1306 37.9513 33.6328 37.644 36.139 35.3784C36.5596 34.9983 37.0326 34.6265 37.5453 34.2733L37.6186 34.222C37.6425 34.2051 37.6664 34.1881 37.6911 34.1716C39.2849 33.1011 42.0454 30.3388 42.6249 23.8666C42.6275 23.8376 42.6289 23.8083 42.6289 23.779V15.6312C42.6287 15.5958 42.6268 15.5604 42.623 15.5252ZM40.6674 23.7347C40.1331 29.5758 37.6444 31.8402 36.5975 32.5433C36.5603 32.5683 36.5236 32.5942 36.4869 32.62L36.4325 32.6583C35.8492 33.0601 35.308 33.4858 34.8238 33.9234C32.1947 36.3003 29.6956 35.9885 29.573 35.9713C29.5159 35.9628 29.4582 35.9592 29.4006 35.9608C28.3576 35.9875 26.4771 35.0345 24.4878 33.4721C24.1835 33.2331 23.8715 33.0054 23.5605 32.7955L23.5363 32.7785C23.5117 32.7608 23.4869 32.7435 23.4617 32.7267C19.6058 30.1746 19.3535 24.2023 19.345 23.953V15.6495C20.0133 12.8857 22.2999 12.3559 22.6726 12.2874H26.9315C27.4323 12.2874 27.9247 12.211 28.3954 12.0601C29.2049 11.8004 30.4893 11.3226 31.4242 10.9675C32.051 10.7297 32.7416 10.721 33.3741 10.943L37.9319 12.543C40.2105 13.3835 40.6171 15.3839 40.6675 15.6981V23.7347H40.6674ZM30.8772 41.2033C30.802 41.053 30.6895 40.9246 30.5505 40.8303C30.4114 40.736 30.2505 40.6789 30.0831 40.6647C29.9157 40.6507 29.7476 40.6798 29.5946 40.7493C29.4417 40.8187 29.3091 40.9262 29.2096 41.0615L26.8606 44.2608C26.7068 44.4703 26.6424 44.7323 26.6817 44.9893C26.7209 45.2462 26.8606 45.4771 27.0699 45.6311C27.2379 45.7552 27.4413 45.8221 27.6501 45.822C27.8039 45.8222 27.9556 45.7862 28.0929 45.7169C28.2301 45.6476 28.3492 45.5469 28.4403 45.4231L30.7894 42.2355C30.9137 42.067 30.9807 41.8515 30.9807 41.6422C30.9807 41.4898 30.9453 41.3396 30.8772 41.2033ZM30.9401 56.9923C30.763 56.807 30.5204 56.6985 30.2642 56.6899C30.0081 56.6813 29.7588 56.7734 29.5697 56.9464L29.3455 57.1514C29.1825 57.3005 29.0746 57.5003 29.0393 57.7184C29.004 57.9365 29.0434 58.1601 29.1511 58.353L29.158 58.3653C29.2319 58.4978 29.3355 58.6112 29.4607 58.6968C29.5858 58.7824 29.7291 58.8378 29.8793 58.8587C30.0295 58.8795 30.1825 58.8653 30.3262 58.817C30.47 58.7688 30.6006 58.6878 30.7077 58.5806L30.9249 58.3632C31.1061 58.182 31.2091 57.9371 31.212 57.6808C31.2148 57.4246 31.1172 57.1774 30.9401 56.9923Z" fill="#A39382"/>
<path d="M30.6551 57.1515L30.4309 56.9465C30.2417 56.7738 29.9925 56.6819 29.7365 56.6906C29.4805 56.6993 29.238 56.8078 29.061 56.993C28.8839 57.1781 28.7864 57.4251 28.7891 57.6813C28.7919 57.9374 28.8947 58.1823 29.0757 58.3636L29.2932 58.581C29.4008 58.6887 29.532 58.7698 29.6765 58.818C29.8209 58.8661 29.9745 58.88 30.1252 58.8585C30.2759 58.837 30.4196 58.7806 30.5447 58.694C30.6699 58.6073 30.7731 58.4927 30.8463 58.3592L30.8532 58.3468C30.9588 58.1542 30.9967 57.9317 30.9607 57.7149C30.9248 57.4982 30.8172 57.2998 30.6551 57.1515Z" fill="#A39382"/>
<path d="M30.6711 57.1667L30.6698 57.1656C30.4884 56.9959 30.2494 56.9014 30.001 56.9011C29.7526 56.9008 29.5134 56.9948 29.3315 57.164L29.3286 57.1667C29.2305 57.2562 29.1515 57.3647 29.0966 57.4856C29.0417 57.6065 29.0119 57.7373 29.009 57.8701C29.0062 58.0028 29.0303 58.1348 29.08 58.258C29.1296 58.3811 29.2038 58.4929 29.298 58.5866L29.3083 58.5969C29.4919 58.7799 29.7406 58.8825 29.9998 58.8821C30.1285 58.8823 30.2561 58.857 30.3751 58.8077C30.494 58.7585 30.6021 58.6862 30.6931 58.5951L30.7034 58.5847C30.7971 58.491 30.8709 58.3792 30.9202 58.2562C30.9695 58.1331 30.9934 58.0013 30.9903 57.8688C30.9874 57.7363 30.9576 57.6057 30.9027 57.485C30.8478 57.3643 30.769 57.256 30.6711 57.1667ZM30.318 40.6925C29.9119 40.5625 29.4662 40.7132 29.2189 41.061C28.9423 41.4505 28.988 41.9812 29.325 42.3198C29.4161 42.4113 29.5244 42.4839 29.6436 42.5334C29.7629 42.5828 29.8908 42.6082 30.0199 42.608C30.2169 42.608 30.415 42.5491 30.5858 42.4288C30.7144 42.3383 30.8194 42.2182 30.8918 42.0786C30.9643 41.9391 31.0021 41.7841 31.0021 41.6269V41.6245C31.0021 41.1977 30.7246 40.8222 30.318 40.6925Z" fill="#A39382"/>
<path d="M30.797 41.053L30.7886 41.0416C30.666 40.8756 30.4941 40.7525 30.2974 40.6899C30.1007 40.6273 29.8892 40.6283 29.6931 40.6929C29.4971 40.7575 29.3264 40.8824 29.2055 41.0497C29.0845 41.217 29.0194 41.4182 29.0195 41.6246V41.6414C29.0195 42.0024 29.2222 42.3315 29.5403 42.5023C29.6824 42.5784 29.8411 42.6181 30.0022 42.6178C30.1938 42.6178 30.3851 42.5623 30.5496 42.4534C30.6606 42.38 30.7555 42.2848 30.8285 42.1735C30.9015 42.0623 30.9511 41.9374 30.9743 41.8063C30.9974 41.6753 30.9936 41.5409 30.9632 41.4114C30.9327 41.2819 30.8762 41.1599 30.797 41.053Z" fill="#A39382"/>
<path d="M41.6658 37.9725C41.6156 37.8398 41.5372 37.7196 41.436 37.6202C41.3348 37.5208 41.2132 37.4445 41.0797 37.3967L37.3197 36.0489C37.1755 35.997 37.021 35.9797 36.8688 35.9984C36.7166 36.0171 36.571 36.0712 36.4435 36.1565L29.4769 40.8117L29.4711 40.8155L30.0182 41.6289L29.4589 40.8238C29.3008 40.9284 29.1765 41.0766 29.1009 41.2504C29.0253 41.4243 29.0017 41.6163 29.033 41.8032C29.0582 41.9549 29.1188 42.0985 29.2098 42.2225L34.3103 49.169C34.4078 49.3019 34.5371 49.408 34.6865 49.4777C34.8358 49.5473 35.0003 49.5782 35.1647 49.5674C35.3291 49.5566 35.4882 49.5046 35.6272 49.4161C35.7662 49.3276 35.8806 49.2055 35.9599 49.0611L41.6078 38.7923C41.6762 38.668 41.7169 38.5303 41.7269 38.3888C41.7369 38.2472 41.716 38.1052 41.6658 37.9725ZM34.9818 46.7698L31.397 41.8874L37.1225 38.0615L39.3352 38.8549L34.9818 46.7698Z" fill="#A39382"/>
<path d="M30.9668 41.4725C30.944 41.3422 30.8951 41.2179 30.823 41.107C30.7509 40.9961 30.6571 40.9009 30.5472 40.8273L23.5574 36.1565C23.4299 36.0714 23.2843 36.0173 23.1321 35.9987C22.9799 35.98 22.8255 35.9972 22.6812 36.0489L18.9213 37.3967C18.7877 37.4446 18.6661 37.5208 18.5648 37.6203C18.4636 37.7197 18.3852 37.8399 18.335 37.9726C18.2847 38.1053 18.2639 38.2473 18.2739 38.3889C18.284 38.5304 18.3246 38.6681 18.393 38.7924L24.0409 49.0611C24.1255 49.215 24.2499 49.3433 24.4011 49.4326C24.5522 49.522 24.7246 49.5692 24.9002 49.5692C25.0541 49.5691 25.2059 49.5329 25.3432 49.4633C25.4805 49.3937 25.5995 49.2928 25.6906 49.1687L28.416 45.4571L28.4224 45.4481L30.7912 42.2217C30.8695 42.1151 30.9254 41.9938 30.9556 41.8651C30.9858 41.7363 30.9896 41.6028 30.9668 41.4725ZM26.8352 44.2959L26.8282 44.3054L25.0188 46.7699L20.6653 38.8548L22.8782 38.0616L28.6035 41.8875L26.8352 44.2959ZM58.9521 54.713L57.6871 47.074C57.2885 44.6667 55.6154 42.6554 53.3208 41.8255L41.0825 37.3978C40.8982 37.3311 40.6982 37.3211 40.5082 37.3692C40.3182 37.4173 40.1469 37.5213 40.0166 37.6676C39.8862 37.814 39.8027 37.9961 39.7769 38.1904C39.751 38.3846 39.7839 38.5822 39.8714 38.7576L42.4266 43.8818L39.9193 43.9204C39.7519 43.9229 39.5879 43.9683 39.443 44.0522C39.2981 44.1361 39.177 44.2557 39.0914 44.3996C39.0059 44.5436 38.9586 44.707 38.9541 44.8744C38.9496 45.0418 38.988 45.2076 39.0658 45.3559L40.0941 47.3194L29.57 56.9469C29.5592 56.9567 29.5487 56.9667 29.5383 56.977L29.3211 57.1943C29.1712 57.3442 29.0739 57.5386 29.0439 57.7484C29.0138 57.9582 29.0525 58.1722 29.1542 58.3581L29.1619 58.3721C29.2464 58.5264 29.3709 58.6552 29.5222 58.7449C29.6736 58.8347 29.8463 58.882 30.0223 58.8821H55.4167C55.9369 58.8825 56.451 58.7695 56.9231 58.5508C57.3951 58.3322 57.8138 58.0132 58.15 57.6161C58.4867 57.2196 58.7329 56.7545 58.8715 56.2531C59.01 55.7517 59.0375 55.2261 58.9521 54.713ZM56.6544 56.3477C56.5022 56.5275 56.3126 56.6719 56.0989 56.7709C55.8851 56.8699 55.6524 56.9211 55.4168 56.9209H32.5038L41.9754 48.2567C42.1352 48.1107 42.2421 47.9159 42.2795 47.7027C42.3169 47.4895 42.2827 47.2699 42.1823 47.0782L41.5424 45.8567L44.0149 45.8187C44.1807 45.8161 44.3431 45.7716 44.487 45.6892C44.6309 45.6068 44.7516 45.4893 44.8377 45.3477C44.9239 45.206 44.9727 45.0449 44.9796 44.8792C44.9866 44.7136 44.9514 44.5489 44.8775 44.4005L42.7209 40.0759L52.6541 43.6695C54.2825 44.2585 55.4698 45.6859 55.7527 47.3943L57.0177 55.0332V55.0333C57.0564 55.2656 57.0439 55.5036 56.9811 55.7306C56.9184 55.9576 56.8069 56.1682 56.6544 56.3477Z" fill="#A39382"/>
<path d="M30.6798 57.1745L30.6684 57.1642C30.4814 56.995 30.2365 56.9044 29.9845 56.911C29.7325 56.9176 29.4927 57.021 29.3149 57.1998L29.3047 57.2101C29.1681 57.3475 29.0753 57.5222 29.038 57.7123C29.0006 57.9023 29.0203 58.0992 29.0947 58.2781C29.1691 58.4569 29.2948 58.6097 29.4559 58.7172C29.6171 58.8247 29.8064 58.8821 30.0001 58.8821H30.0216C30.2197 58.8821 30.4131 58.8221 30.5764 58.71C30.7398 58.598 30.8653 58.439 30.9365 58.2542C31.0078 58.0694 31.0215 57.8673 30.9757 57.6745C30.9298 57.4818 30.8267 57.3075 30.6798 57.1745Z" fill="#A39382"/>
<path d="M30.6493 57.1462C30.5394 57.0473 30.4086 56.9744 30.2665 56.9333C30.1245 56.8921 29.9749 56.8836 29.8292 56.9085C29.6834 56.9332 29.5451 56.9905 29.4246 57.0763C29.3041 57.162 29.2046 57.2739 29.1335 57.4035L29.1267 57.4159C29.026 57.5995 28.9867 57.8105 29.0146 58.0181C29.0425 58.2257 29.1361 58.4189 29.2818 58.5694L29.2853 58.573C29.3766 58.6677 29.4862 58.7429 29.6073 58.7942C29.7284 58.8456 29.8586 58.8719 29.9901 58.8717C30.2263 58.8717 30.4632 58.7868 30.6508 58.6154L30.6611 58.6061C30.7502 58.5248 30.8236 58.4278 30.8775 58.32C31.0749 57.9254 30.9773 57.4412 30.6493 57.1462Z" fill="#A39382"/>
<path d="M30.6915 57.2061L30.6874 57.202L30.6796 57.1941L30.4621 56.9769C30.4519 56.9666 30.4414 56.9566 30.4307 56.9468L19.9065 47.3194L20.935 45.3559C21.0126 45.2076 21.051 45.0418 21.0465 44.8745C21.0419 44.7071 20.9946 44.5437 20.9091 44.3998C20.8235 44.2559 20.7026 44.1363 20.5577 44.0524C20.4128 43.9685 20.2489 43.923 20.0815 43.9204L17.574 43.8817L20.1292 38.7576C20.3082 38.3987 20.2504 37.967 19.9839 37.6676C19.7173 37.3682 19.295 37.2611 18.9181 37.3977L6.67998 41.8255C4.38535 42.6553 2.71218 44.6666 2.31354 47.074L1.04853 54.7129C0.963132 55.2261 0.990683 55.7517 1.12926 56.2531C1.26784 56.7546 1.51411 57.2197 1.8509 57.6162C2.18708 58.0132 2.60579 58.3321 3.07784 58.5507C3.5499 58.7694 4.06394 58.8824 4.58416 58.882H30.0002C30.1944 58.8821 30.3843 58.8245 30.5457 58.7165C30.7071 58.6085 30.8328 58.455 30.9069 58.2755C30.9809 58.096 31 57.8985 30.9616 57.7081C30.9233 57.5177 30.8293 57.343 30.6915 57.2061ZM4.58427 56.9209C4.34873 56.9211 4.11597 56.8699 3.90224 56.7709C3.68851 56.6719 3.49895 56.5275 3.34678 56.3477C3.19434 56.1682 3.08287 55.9575 3.02014 55.7305C2.95742 55.5035 2.94495 55.2655 2.9836 55.0332L4.24862 47.3943C4.3882 46.5543 4.74875 45.7666 5.29328 45.1121C5.83781 44.4575 6.5467 43.9596 7.34721 43.6695L17.2803 40.0758L15.1239 44.4002C15.0498 44.5486 15.0147 44.7133 15.0216 44.879C15.0286 45.0447 15.0774 45.2059 15.1636 45.3475C15.2497 45.4892 15.3704 45.6067 15.5143 45.689C15.6582 45.7714 15.8206 45.8159 15.9864 45.8184L18.4589 45.8566L17.8191 47.0781C17.7186 47.2698 17.6845 47.4894 17.7219 47.7025C17.7593 47.9157 17.8661 48.1105 18.0258 48.2566L27.4974 56.9209H4.58427Z" fill="#A39382"/>
<path d="M33.3381 45.1296C33.373 44.9898 33.3768 44.8439 33.3489 44.7025C33.3211 44.561 33.2624 44.4275 33.1771 44.3113L30.7907 41.0613C30.5399 40.7197 30.0977 40.5839 29.6951 40.716C29.4826 40.786 29.3006 40.9269 29.1794 41.1149L26.8366 44.2937C26.7147 44.4587 26.6476 44.6577 26.6446 44.8628C26.6417 45.0679 26.7031 45.2688 26.8203 45.4372L27.818 46.8699L26.7552 53.569C26.7211 53.7841 26.7596 54.0044 26.8645 54.1952L29.1412 58.3346C29.2258 58.4885 29.3502 58.6168 29.5014 58.7062C29.6525 58.7956 29.8249 58.8427 30.0005 58.8427C30.1761 58.8427 30.3484 58.7956 30.4996 58.7062C30.6507 58.6168 30.7751 58.4885 30.8597 58.3346L33.1534 54.1645C33.233 54.0197 33.2747 53.8572 33.2748 53.692V53.6914C33.2748 53.64 33.2706 53.5886 33.2626 53.5377L32.2047 46.87L33.1916 45.453C33.2595 45.3549 33.3091 45.2454 33.3381 45.1296ZM30.0005 55.8274L28.7447 53.5444L29.8168 46.7873C29.8566 46.537 29.7979 46.2811 29.653 46.0733L28.8313 44.8931L30.0033 43.3028L31.1814 44.9074L30.3695 46.0733C30.2248 46.2812 30.166 46.537 30.2057 46.7873L31.273 53.5136L30.0005 55.8274Z" fill="#A39382"/>
</g>
<defs>
<clipPath id="clip0_329_3614">
<rect width="58" height="58" fill="white" transform="translate(1 1)"/>
</clipPath>
</defs>
</svg>
