<svg width="284" height="88" viewBox="0 0 284 88" fill="none" xmlns="http://www.w3.org/2000/svg">
<rect width="283.975" height="88" rx="5" fill="#F6F6F6"/>
<g clip-path="url(#clip0_407_419)">
<path d="M36 48C45.9415 48 54 39.9415 54 30C54 20.0585 45.9415 12 36 12C26.0585 12 18 20.0585 18 30C18 39.9415 26.0585 48 36 48Z" fill="#FC3F1D"/>
<path d="M41.7462 40.0799H38.1739V22.4094H36.5829C33.6739 22.4094 32.1439 23.8799 32.1439 26.0551C32.1439 28.5294 33.2086 29.669 35.3839 31.1394L37.1839 32.3399L32.0082 40.0799H28.1548L32.8043 33.1707C30.1292 31.2682 28.6352 29.3934 28.6352 26.2656C28.6352 22.3194 31.3643 19.6499 36.5691 19.6499H41.7448L41.7462 40.0799Z" fill="white"/>
</g>
<path d="M63 32.6101L73.2 17.0101H76.56V32.2801H78.9V35.8501H76.56V39.1801H72.57V35.8501H63V32.6101ZM72.57 32.2801V23.7301L67.05 32.2801H72.57Z" fill="black"/>
<path d="M81.7071 39.1801V35.3401H85.6971V39.3901C85.6971 41.1301 85.0671 42.2401 83.7171 42.9601C83.0571 43.2901 82.5771 43.3801 81.7071 43.3801V41.3701C82.9671 41.1301 83.4771 40.6501 83.4771 39.7201C83.4771 39.5701 83.4771 39.3901 83.4471 39.1801H81.7071Z" fill="black"/>
<path d="M95.9946 39.1801H91.2246L96.5646 31.2901C95.8446 31.5601 95.4546 31.6501 94.7646 31.6501C91.2846 31.6501 88.6746 28.5901 88.6746 24.5701C88.6746 19.9201 91.7946 16.6201 96.2046 16.6201C100.675 16.6201 103.975 19.8901 103.975 24.3001C103.975 26.4301 103.375 28.0801 101.785 30.4801L95.9946 39.1801ZM96.1446 20.2801C94.1046 20.2801 92.6646 21.9001 92.6646 24.1801C92.6646 26.4901 94.1946 28.1101 96.3546 28.1101C98.4546 28.1101 99.9846 26.4901 99.9846 24.1801C99.9846 21.8701 98.4246 20.2801 96.1446 20.2801Z" fill="black"/>
<g clip-path="url(#clip1_407_419)">
<path d="M154.19 26.9881C154.115 26.7685 153.975 26.5747 153.785 26.4307C153.596 26.2868 153.366 26.199 153.125 26.1785L146.407 25.5978L143.75 19.6795C143.554 19.2458 143.108 18.9651 142.613 18.9651C142.117 18.9651 141.671 19.2458 141.475 19.6805L138.819 25.5978L132.099 26.1785C131.858 26.1995 131.629 26.2874 131.44 26.4313C131.251 26.5753 131.11 26.7688 131.036 26.9881C130.882 27.4367 131.024 27.9288 131.397 28.239L136.475 32.4779L134.978 38.7563C134.868 39.2179 135.057 39.6951 135.459 39.9719C135.675 40.1207 135.928 40.1964 136.184 40.1964C136.404 40.1964 136.622 40.14 136.818 40.0284L142.613 36.7318L148.405 40.0284C148.829 40.2712 149.364 40.249 149.765 39.9719C149.962 39.8365 150.112 39.6491 150.198 39.4329C150.283 39.2168 150.3 38.9815 150.246 38.7563L148.749 32.4779L153.827 28.2398C154.01 28.088 154.141 27.8884 154.206 27.6658C154.27 27.4433 154.265 27.2076 154.19 26.9881Z" fill="#FFCC00"/>
</g>
<g clip-path="url(#clip2_407_419)">
<path d="M182.121 26.9881C182.046 26.7685 181.906 26.5747 181.716 26.4307C181.527 26.2868 181.297 26.199 181.056 26.1785L174.338 25.5978L171.681 19.6795C171.485 19.2458 171.039 18.9651 170.544 18.9651C170.048 18.9651 169.602 19.2458 169.406 19.6805L166.75 25.5978L160.031 26.1785C159.789 26.1995 159.56 26.2874 159.371 26.4313C159.182 26.5753 159.041 26.7688 158.967 26.9881C158.813 27.4367 158.955 27.9288 159.328 28.239L164.406 32.4779L162.909 38.7563C162.8 39.2179 162.988 39.6951 163.39 39.9719C163.606 40.1207 163.859 40.1964 164.115 40.1964C164.335 40.1964 164.553 40.14 164.749 40.0284L170.544 36.7318L176.337 40.0284C176.761 40.2712 177.295 40.249 177.696 39.9719C177.893 39.8365 178.043 39.6491 178.129 39.4329C178.214 39.2168 178.231 38.9815 178.177 38.7563L176.68 32.4779L181.758 28.2398C181.941 28.088 182.073 27.8884 182.137 27.6658C182.202 27.4433 182.196 27.2076 182.121 26.9881Z" fill="#FFCC00"/>
</g>
<g clip-path="url(#clip3_407_419)">
<path d="M210.052 26.9881C209.977 26.7685 209.837 26.5747 209.647 26.4307C209.458 26.2868 209.228 26.199 208.987 26.1785L202.269 25.5978L199.612 19.6795C199.416 19.2458 198.97 18.9651 198.475 18.9651C197.979 18.9651 197.533 19.2458 197.337 19.6805L194.681 25.5978L187.961 26.1785C187.72 26.1995 187.491 26.2874 187.302 26.4313C187.113 26.5753 186.972 26.7688 186.898 26.9881C186.744 27.4367 186.886 27.9288 187.259 28.239L192.337 32.4779L190.84 38.7563C190.73 39.2179 190.919 39.6951 191.321 39.9719C191.537 40.1207 191.79 40.1964 192.046 40.1964C192.266 40.1964 192.484 40.14 192.68 40.0284L198.475 36.7318L204.268 40.0284C204.691 40.2712 205.226 40.249 205.627 39.9719C205.824 39.8365 205.974 39.6491 206.06 39.4329C206.145 39.2168 206.162 38.9815 206.108 38.7563L204.611 32.4779L209.689 28.2398C209.872 28.088 210.003 27.8884 210.068 27.6658C210.132 27.4433 210.127 27.2076 210.052 26.9881Z" fill="#FFCC00"/>
</g>
<g clip-path="url(#clip4_407_419)">
<path d="M237.983 26.9881C237.909 26.7685 237.768 26.5747 237.579 26.4307C237.389 26.2868 237.159 26.199 236.918 26.1785L230.2 25.5978L227.543 19.6795C227.348 19.2458 226.901 18.9651 226.406 18.9651C225.91 18.9651 225.464 19.2458 225.268 19.6805L222.612 25.5978L215.893 26.1785C215.652 26.1995 215.422 26.2874 215.233 26.4313C215.044 26.5753 214.903 26.7688 214.829 26.9881C214.675 27.4367 214.817 27.9288 215.19 28.239L220.269 32.4779L218.771 38.7563C218.662 39.2179 218.85 39.6951 219.252 39.9719C219.468 40.1207 219.722 40.1964 219.977 40.1964C220.197 40.1964 220.415 40.14 220.611 40.0284L226.406 36.7318L232.199 40.0284C232.623 40.2712 233.157 40.249 233.558 39.9719C233.755 39.8365 233.905 39.6491 233.991 39.4329C234.076 39.2168 234.093 38.9815 234.04 38.7563L232.542 32.4779L237.62 28.2398C237.803 28.088 237.935 27.8884 237.999 27.6658C238.064 27.4433 238.058 27.2076 237.983 26.9881Z" fill="#FFCC00"/>
</g>
<g clip-path="url(#clip5_407_419)">
<g clip-path="url(#clip6_407_419)">
<path d="M265.363 27.1749L265.363 27.1763C265.4 27.2829 265.402 27.3963 265.371 27.5038C265.34 27.6117 265.275 27.7128 265.179 27.7924L265.178 27.7931L260.1 32.0311L259.823 32.2622L259.907 32.6129L261.404 38.8913L261.404 38.8916C261.43 39 261.423 39.1134 261.381 39.2188C261.339 39.3246 261.263 39.4209 261.159 39.4928L261.159 39.493C260.942 39.6426 260.649 39.6551 260.419 39.5235L260.417 39.5227L254.625 36.226L254.337 36.0623L254.049 36.226L248.254 39.5226L248.254 39.5227C248.147 39.5838 248.028 39.6145 247.908 39.6145C247.768 39.6145 247.63 39.573 247.513 39.4925C247.301 39.3471 247.216 39.1104 247.268 38.8906L248.765 32.6129L248.849 32.2622L248.572 32.0312L243.494 27.7922L243.493 27.7913C243.3 27.6313 243.237 27.3903 243.31 27.1762L243.311 27.1756C243.347 27.0689 243.417 26.9702 243.516 26.8944C243.616 26.8184 243.74 26.7699 243.874 26.7582C243.874 26.7582 243.874 26.7582 243.874 26.7582L250.593 26.1776L250.933 26.1481L251.074 25.8362L253.73 19.9196C253.73 19.9194 253.73 19.9193 253.73 19.9192C253.827 19.7036 254.059 19.547 254.337 19.547C254.615 19.547 254.847 19.7037 254.944 19.9186C254.944 19.9187 254.944 19.9189 254.944 19.919L257.6 25.8361L257.74 26.1481L258.081 26.1775L264.799 26.7582L264.8 26.7583C264.933 26.7696 265.057 26.8181 265.157 26.894C265.257 26.9697 265.327 27.0683 265.363 27.1749Z" stroke="#FFCC00" stroke-width="1.16379"/>
</g>
<g clip-path="url(#clip7_407_419)">
<path d="M265.914 26.9881C265.839 26.7685 265.699 26.5747 265.509 26.4307C265.32 26.2868 265.09 26.199 264.849 26.1785L258.131 25.5978L255.474 19.6795C255.278 19.2458 254.832 18.9651 254.337 18.9651C253.841 18.9651 253.395 19.2458 253.199 19.6805L250.543 25.5978L243.824 26.1785C243.582 26.1995 243.353 26.2874 243.164 26.4313C242.975 26.5753 242.834 26.7688 242.76 26.9881C242.606 27.4367 242.748 27.9288 243.121 28.239L248.199 32.4779L246.702 38.7563C246.592 39.2179 246.781 39.6951 247.183 39.9719C247.399 40.1207 247.652 40.1964 247.908 40.1964C248.128 40.1964 248.346 40.14 248.542 40.0284L254.337 36.7318L260.13 40.0284C260.553 40.2712 261.088 40.249 261.489 39.9719C261.686 39.8365 261.836 39.6491 261.922 39.4329C262.007 39.2168 262.024 38.9815 261.97 38.7563L260.473 32.4779L265.551 28.2398C265.734 28.088 265.866 27.8884 265.93 27.6658C265.995 27.4433 265.989 27.2076 265.914 26.9881Z" fill="#FFCC00"/>
</g>
</g>
<path d="M18 71.6992C18 71.6992 18 68.4979 18 62.0952C18 62.0952 18.8823 62.0952 20.647 62.0952C21.269 62.0952 21.7769 62.1333 22.1704 62.2095C22.5682 62.2856 22.9152 62.4147 23.2114 62.5967C23.5754 62.8125 23.8568 63.1299 24.0557 63.5488C24.2546 63.9635 24.354 64.4481 24.354 65.0024C24.354 65.4849 24.2715 65.9165 24.1064 66.2974C23.9414 66.6782 23.7044 66.9829 23.3955 67.2114C23.1035 67.4272 22.7607 67.5817 22.3672 67.6748C21.9736 67.7679 21.4531 67.8145 20.8057 67.8145H18.9585V71.6992H18ZM18.9585 66.9385H20.7422C21.6055 66.9385 22.2212 66.8306 22.5894 66.6147C22.8433 66.4793 23.0379 66.2699 23.1733 65.9863C23.313 65.7028 23.3828 65.3706 23.3828 64.9897C23.3828 64.52 23.2897 64.1286 23.1035 63.8154C22.9173 63.498 22.6507 63.2843 22.3037 63.1743C21.889 63.0347 21.2288 62.9648 20.3232 62.9648H18.9585V66.9385Z" fill="#222222"/>
<path d="M32.4282 68.4619C32.4282 68.4619 30.2848 68.4619 25.998 68.4619C26.0361 69.1644 26.3239 69.7611 26.8613 70.252C27.3988 70.7386 28.0335 70.9819 28.7656 70.9819C29.3073 70.9819 29.8066 70.8338 30.2637 70.5376C30.7207 70.2371 31.0487 69.8436 31.2476 69.3569H32.2505C31.9881 70.106 31.5396 70.7132 30.9048 71.1787C30.27 71.64 29.5654 71.8706 28.791 71.8706C28.2747 71.8706 27.7839 71.7733 27.3184 71.5786C26.8529 71.384 26.453 71.1195 26.1187 70.7852C25.7843 70.4508 25.5199 70.0509 25.3252 69.5854C25.1305 69.12 25.0332 68.6291 25.0332 68.1128C25.0332 67.4357 25.1961 66.8136 25.522 66.2466C25.8478 65.6795 26.2922 65.2331 26.855 64.9072C27.4178 64.5814 28.0378 64.4185 28.7148 64.4185C29.4173 64.4185 30.0627 64.592 30.6509 64.939C31.2433 65.286 31.694 65.7578 32.0029 66.3545C32.1595 66.6549 32.2695 66.9639 32.333 67.2812C32.3965 67.5944 32.4282 67.988 32.4282 68.4619ZM26.0234 67.5923H31.4697C31.3089 66.8856 30.981 66.327 30.4858 65.9165C29.995 65.506 29.4046 65.3008 28.7148 65.3008C28.042 65.3008 27.458 65.5124 26.9629 65.9355C26.4678 66.3545 26.1546 66.9067 26.0234 67.5923Z" fill="#222222"/>
<path d="M34.9102 62C34.9102 62 35.2297 62 35.8687 62C35.8687 62.7279 36.2072 63.0918 36.8843 63.0918C37.5614 63.0918 37.8999 62.7279 37.8999 62H38.8584C38.7611 62.5671 38.541 62.9902 38.1982 63.2695C37.8597 63.5488 37.4217 63.6885 36.8843 63.6885C36.3468 63.6885 35.9067 63.5488 35.564 63.2695C35.2254 62.9902 35.0075 62.5671 34.9102 62ZM39.0552 64.5898C39.0552 64.5898 39.3747 64.5898 40.0137 64.5898C40.0137 64.5898 40.0137 66.9596 40.0137 71.6992C40.0137 71.6992 39.6942 71.6992 39.0552 71.6992C39.0552 71.6992 39.0552 69.7843 39.0552 65.9546C39.0552 65.9546 37.6121 67.8695 34.7261 71.6992C34.7261 71.6992 34.4045 71.6992 33.7612 71.6992C33.7612 71.6992 33.7612 69.3294 33.7612 64.5898C33.7612 64.5898 34.0828 64.5898 34.7261 64.5898C34.7261 64.5898 34.7261 66.5047 34.7261 70.3345C34.7261 70.3345 36.1691 68.4196 39.0552 64.5898Z" fill="#222222"/>
<path d="M45.6758 65.4595C45.6758 65.4595 45.0601 65.4595 43.8286 65.4595C43.8286 65.4595 43.8286 67.5394 43.8286 71.6992C43.8286 71.6992 43.507 71.6992 42.8638 71.6992C42.8638 71.6992 42.8638 69.6193 42.8638 65.4595C42.8638 65.4595 42.2417 65.4595 40.9976 65.4595C40.9976 65.4595 40.9976 65.1696 40.9976 64.5898C40.9976 64.5898 42.557 64.5898 45.6758 64.5898C45.6758 64.5898 45.6758 64.8797 45.6758 65.4595Z" fill="#222222"/>
<path d="M51.9409 64.5898C51.9409 64.5898 52.2604 64.5898 52.8994 64.5898C52.8994 64.5898 52.8994 66.9596 52.8994 71.6992C52.8994 71.6992 52.5799 71.6992 51.9409 71.6992C51.9409 71.6992 51.9409 69.7843 51.9409 65.9546C51.9409 65.9546 50.4979 67.8695 47.6118 71.6992C47.6118 71.6992 47.2902 71.6992 46.647 71.6992C46.647 71.6992 46.647 69.3294 46.647 64.5898C46.647 64.5898 46.9686 64.5898 47.6118 64.5898C47.6118 64.5898 47.6118 66.5047 47.6118 70.3345C47.6118 70.3345 49.0549 68.4196 51.9409 64.5898Z" fill="#222222"/>
<path d="M60.7324 71.6992C60.7324 71.6992 60.4108 71.6992 59.7676 71.6992C59.7676 71.6992 59.7676 70.637 59.7676 68.5127C59.7676 68.5127 58.3478 68.5127 55.5083 68.5127C55.5083 68.5127 55.5083 69.5749 55.5083 71.6992C55.5083 71.6992 55.1867 71.6992 54.5435 71.6992C54.5435 71.6992 54.5435 69.3294 54.5435 64.5898C54.5435 64.5898 54.8651 64.5898 55.5083 64.5898C55.5083 64.5898 55.5083 65.6076 55.5083 67.6431C55.5083 67.6431 56.9281 67.6431 59.7676 67.6431C59.7676 67.6431 59.7676 66.6253 59.7676 64.5898C59.7676 64.5898 60.0892 64.5898 60.7324 64.5898C60.7324 64.5898 60.7324 66.9596 60.7324 71.6992Z" fill="#222222"/>
<path d="M66.001 64.5898C66.001 64.5898 66.001 64.8797 66.001 65.4595C66.001 65.4595 65.1102 65.4595 63.3286 65.4595C63.3286 65.4595 63.3286 67.5394 63.3286 71.6992C63.3286 71.6992 63.007 71.6992 62.3638 71.6992C62.3638 71.6992 62.3638 69.3294 62.3638 64.5898C62.3638 64.5898 63.5762 64.5898 66.001 64.5898Z" fill="#222222"/>
<path d="M74.0879 64.4185C74.7777 64.4185 75.3997 64.5814 75.9541 64.9072C76.5127 65.2288 76.9486 65.6753 77.2617 66.2466C77.5791 66.8179 77.7378 67.4569 77.7378 68.1636C77.7378 69.23 77.395 70.1144 76.7095 70.8169C76.0239 71.5194 75.1585 71.8706 74.1133 71.8706C73.3981 71.8706 72.7507 71.7098 72.1709 71.3882C71.5911 71.0666 71.1362 70.6222 70.8062 70.0552C70.4803 69.4881 70.3174 68.8534 70.3174 68.1509C70.3174 67.0718 70.6729 66.181 71.3838 65.4785C72.0947 64.7718 72.9961 64.4185 74.0879 64.4185ZM74.0117 65.3008C73.2331 65.3008 72.5856 65.5737 72.0693 66.1196C71.5531 66.6613 71.2949 67.3426 71.2949 68.1636C71.2949 68.9761 71.5594 69.6489 72.0884 70.1821C72.6174 70.7153 73.2839 70.9819 74.0879 70.9819C74.8708 70.9819 75.5119 70.7196 76.0112 70.1948C76.5148 69.6659 76.7666 68.993 76.7666 68.1763C76.7666 67.3384 76.5085 66.6507 75.9922 66.1133C75.4759 65.5716 74.8158 65.3008 74.0117 65.3008Z" fill="#222222"/>
<path d="M79.1089 64.5898C79.1089 64.5898 79.4305 64.5898 80.0737 64.5898C80.0737 64.5898 80.0737 64.9961 80.0737 65.8086C80.37 65.3558 80.755 65.0109 81.229 64.7739C81.7072 64.5369 82.2531 64.4185 82.8667 64.4185C83.5649 64.4185 84.1997 64.5814 84.771 64.9072C85.3423 65.2331 85.7909 65.6816 86.1167 66.2529C86.4468 66.82 86.6118 67.4526 86.6118 68.1509C86.6118 68.8407 86.4468 69.4712 86.1167 70.0425C85.7866 70.6095 85.3317 71.056 84.752 71.3818C84.1764 71.7077 83.5396 71.8706 82.8413 71.8706C82.2531 71.8706 81.722 71.7521 81.248 71.5151C80.7783 71.2739 80.3869 70.9269 80.0737 70.4741V74.1938H79.1089V64.5898ZM82.7905 65.3008C82.0076 65.3008 81.3475 65.5758 80.8101 66.126C80.2726 66.6761 80.0039 67.3511 80.0039 68.1509C80.0039 68.9507 80.2747 69.6235 80.8164 70.1694C81.3581 70.7111 82.0288 70.9819 82.8286 70.9819C83.6284 70.9819 84.2949 70.7153 84.8281 70.1821C85.3656 69.6447 85.6343 68.9761 85.6343 68.1763C85.6343 67.3384 85.3656 66.6507 84.8281 66.1133C84.2949 65.5716 83.6157 65.3008 82.7905 65.3008Z" fill="#222222"/>
<path d="M91.6074 64.5898C91.6074 64.5898 91.6074 64.8797 91.6074 65.4595C91.6074 65.4595 90.7166 65.4595 88.9351 65.4595C88.9351 65.4595 88.9351 67.5394 88.9351 71.6992C88.9351 71.6992 88.6134 71.6992 87.9702 71.6992C87.9702 71.6992 87.9702 69.3294 87.9702 64.5898C87.9702 64.5898 89.1826 64.5898 91.6074 64.5898Z" fill="#222222"/>
<path d="M99.3896 64.5898C99.3896 64.5898 99.3896 66.9596 99.3896 71.6992C99.3896 71.6992 99.068 71.6992 98.4248 71.6992C98.4248 71.6992 98.4248 71.2824 98.4248 70.4487C98.0482 70.9565 97.6483 71.3205 97.2251 71.5405C96.8062 71.7606 96.2962 71.8706 95.6953 71.8706C94.9717 71.8706 94.3179 71.7119 93.7339 71.3945C93.1541 71.0729 92.6992 70.6307 92.3691 70.0679C92.0391 69.5008 91.874 68.866 91.874 68.1636C91.874 67.4611 92.0369 66.8242 92.3628 66.2529C92.6886 65.6816 93.1372 65.2331 93.7085 64.9072C94.2798 64.5814 94.9167 64.4185 95.6191 64.4185C96.2412 64.4185 96.7744 64.5327 97.2188 64.7612C97.6673 64.9855 98.0693 65.3473 98.4248 65.8467V64.5898H99.3896ZM95.6064 65.3008C94.8447 65.3008 94.1951 65.5758 93.6577 66.126C93.1203 66.6761 92.8516 67.3426 92.8516 68.1255C92.8516 68.9253 93.1266 69.6024 93.6768 70.1567C94.2269 70.7069 94.8955 70.9819 95.6826 70.9819C96.457 70.9819 97.1066 70.709 97.6313 70.1631C98.1603 69.613 98.4248 68.9338 98.4248 68.1255C98.4248 67.3172 98.1561 66.6444 97.6187 66.1069C97.0812 65.5695 96.4105 65.3008 95.6064 65.3008Z" fill="#222222"/>
<path d="M107.21 71.6992C107.21 71.6992 106.888 71.6992 106.245 71.6992C106.245 71.6992 106.245 70.637 106.245 68.5127C106.245 68.5127 104.825 68.5127 101.986 68.5127C101.986 68.5127 101.986 69.5749 101.986 71.6992C101.986 71.6992 101.664 71.6992 101.021 71.6992C101.021 71.6992 101.021 69.3294 101.021 64.5898C101.021 64.5898 101.343 64.5898 101.986 64.5898C101.986 64.5898 101.986 65.6076 101.986 67.6431C101.986 67.6431 103.406 67.6431 106.245 67.6431C106.245 67.6431 106.245 66.6253 106.245 64.5898C106.245 64.5898 106.567 64.5898 107.21 64.5898C107.21 64.5898 107.21 66.9596 107.21 71.6992Z" fill="#222222"/>
<path d="M114.135 64.5898C114.135 64.5898 114.455 64.5898 115.094 64.5898C115.094 64.5898 115.094 66.9596 115.094 71.6992C115.094 71.6992 114.774 71.6992 114.135 71.6992C114.135 71.6992 114.135 69.7843 114.135 65.9546C114.135 65.9546 112.692 67.8695 109.806 71.6992C109.806 71.6992 109.485 71.6992 108.841 71.6992C108.841 71.6992 108.841 69.3294 108.841 64.5898C108.841 64.5898 109.163 64.5898 109.806 64.5898C109.806 64.5898 109.806 66.5047 109.806 70.3345C109.806 70.3345 111.249 68.4196 114.135 64.5898Z" fill="#222222"/>
<path d="M118.464 68.3477V67.5542C119.091 67.5542 119.558 67.4505 119.867 67.2432C120.18 67.0316 120.337 66.7438 120.337 66.3799C120.337 66.0879 120.208 65.8382 119.95 65.6309C119.692 65.4193 119.378 65.3135 119.01 65.3135C118.651 65.3135 118.35 65.4172 118.109 65.6245C117.872 65.8276 117.741 66.0794 117.715 66.3799H116.738C116.763 65.8255 116.992 65.36 117.423 64.9834C117.855 64.6068 118.388 64.4185 119.023 64.4185C119.662 64.4185 120.204 64.6089 120.648 64.9897C121.092 65.3664 121.314 65.8298 121.314 66.3799C121.314 66.7227 121.209 67.0379 120.997 67.3257C120.79 67.6092 120.515 67.8018 120.172 67.9033C120.616 68.026 120.98 68.2334 121.264 68.5254C121.547 68.8174 121.689 69.1898 121.689 69.6426C121.689 70.2604 121.433 70.7873 120.921 71.2231C120.409 71.6548 119.783 71.8706 119.042 71.8706C118.31 71.8706 117.69 71.6569 117.182 71.2295C116.679 70.7979 116.414 70.2689 116.389 69.6426H117.36C117.385 70.0234 117.552 70.3429 117.861 70.6011C118.17 70.855 118.557 70.9819 119.023 70.9819C119.497 70.9819 119.897 70.8529 120.223 70.5947C120.553 70.3324 120.718 70.015 120.718 69.6426C120.718 69.2617 120.532 68.9507 120.159 68.7095C119.787 68.4683 119.222 68.3477 118.464 68.3477Z" fill="#222222"/>
<path d="M130.227 64.5898C130.227 64.5898 130.227 66.9596 130.227 71.6992C130.227 71.6992 129.905 71.6992 129.262 71.6992C129.262 71.6992 129.262 71.2824 129.262 70.4487C128.885 70.9565 128.485 71.3205 128.062 71.5405C127.643 71.7606 127.133 71.8706 126.532 71.8706C125.809 71.8706 125.155 71.7119 124.571 71.3945C123.991 71.0729 123.536 70.6307 123.206 70.0679C122.876 69.5008 122.711 68.866 122.711 68.1636C122.711 67.4611 122.874 66.8242 123.2 66.2529C123.526 65.6816 123.974 65.2331 124.545 64.9072C125.117 64.5814 125.754 64.4185 126.456 64.4185C127.078 64.4185 127.611 64.5327 128.056 64.7612C128.504 64.9855 128.906 65.3473 129.262 65.8467V64.5898H130.227ZM126.443 65.3008C125.682 65.3008 125.032 65.5758 124.495 66.126C123.957 66.6761 123.688 67.3426 123.688 68.1255C123.688 68.9253 123.964 69.6024 124.514 70.1567C125.064 70.7069 125.732 70.9819 126.52 70.9819C127.294 70.9819 127.944 70.709 128.468 70.1631C128.997 69.613 129.262 68.9338 129.262 68.1255C129.262 67.3172 128.993 66.6444 128.456 66.1069C127.918 65.5695 127.247 65.3008 126.443 65.3008Z" fill="#222222"/>
<path d="M137.85 64.5898C137.85 64.5898 137.85 66.6698 137.85 70.8296C137.85 70.8296 138.235 70.8296 139.005 70.8296C139.005 70.8296 139.005 71.6654 139.005 73.3369C139.005 73.3369 138.785 73.3369 138.345 73.3369C138.345 73.3369 138.229 72.791 137.996 71.6992C137.996 71.6992 135.95 71.6992 131.858 71.6992C131.858 71.6992 131.858 69.3294 131.858 64.5898C131.858 64.5898 132.18 64.5898 132.823 64.5898C132.823 64.5898 132.823 66.6698 132.823 70.8296C132.823 70.8296 134.179 70.8296 136.892 70.8296C136.892 70.8296 136.892 68.7497 136.892 64.5898C136.892 64.5898 137.211 64.5898 137.85 64.5898Z" fill="#222222"/>
<path d="M145.239 64.5898C145.239 64.5898 145.558 64.5898 146.197 64.5898C146.197 64.5898 146.197 66.9596 146.197 71.6992C146.197 71.6992 145.878 71.6992 145.239 71.6992C145.239 71.6992 145.239 69.7843 145.239 65.9546C145.239 65.9546 143.796 67.8695 140.91 71.6992C140.91 71.6992 140.588 71.6992 139.945 71.6992C139.945 71.6992 139.945 69.3294 139.945 64.5898C139.945 64.5898 140.266 64.5898 140.91 64.5898C140.91 64.5898 140.91 66.5047 140.91 70.3345C140.91 70.3345 142.353 68.4196 145.239 64.5898Z" fill="#222222"/>
<path d="M153.135 64.5898C153.135 64.5898 153.455 64.5898 154.094 64.5898C154.094 64.5898 154.094 66.9596 154.094 71.6992C154.094 71.6992 153.774 71.6992 153.135 71.6992C153.135 71.6992 153.135 69.7843 153.135 65.9546C153.135 65.9546 151.692 67.8695 148.806 71.6992C148.806 71.6992 148.485 71.6992 147.841 71.6992C147.841 71.6992 147.841 69.3294 147.841 64.5898C147.841 64.5898 148.163 64.5898 148.806 64.5898C148.806 64.5898 148.806 66.5047 148.806 70.3345C148.806 70.3345 150.249 68.4196 153.135 64.5898Z" fill="#222222"/>
<path d="M160.308 68.3984C160.308 68.3984 160.308 69.2088 160.308 70.8296C160.308 70.8296 160.917 70.8296 162.136 70.8296C162.509 70.8296 162.832 70.7894 163.107 70.709C163.382 70.6286 163.605 70.4932 163.774 70.3027C163.947 70.1123 164.034 69.8711 164.034 69.5791C164.034 68.792 163.402 68.3984 162.136 68.3984H160.308ZM164.65 66.4624C164.65 66.8052 164.546 67.1014 164.339 67.3511C164.136 67.6007 163.918 67.7764 163.685 67.8779C164.569 68.1995 165.012 68.7666 165.012 69.5791C165.012 70.1885 164.766 70.6942 164.275 71.0962C163.789 71.4982 163.158 71.6992 162.384 71.6992H159.343V64.5898H162.193C162.955 64.5898 163.554 64.7549 163.99 65.085C164.43 65.4108 164.65 65.87 164.65 66.4624ZM163.723 66.4624C163.723 65.7938 163.16 65.4595 162.035 65.4595H160.308C160.308 65.4595 160.308 66.1493 160.308 67.5288C160.308 67.5288 160.884 67.5288 162.035 67.5288C162.555 67.5288 162.966 67.4399 163.266 67.2622C163.571 67.0845 163.723 66.8179 163.723 66.4624Z" fill="#222222"/>
<path d="M175.028 66.8115C175.028 66.8115 175.028 65.5293 175.028 62.9648C175.028 62.9648 174.586 62.9648 173.702 62.9648C172.792 62.9648 172.155 63.0283 171.791 63.1553C171.461 63.2611 171.203 63.4705 171.017 63.7837C170.83 64.0926 170.737 64.4735 170.737 64.9263C170.737 65.2944 170.803 65.616 170.934 65.8911C171.069 66.1662 171.26 66.3693 171.505 66.5005C171.865 66.7078 172.464 66.8115 173.302 66.8115H175.028ZM175.987 71.6992H175.028C175.028 71.6992 175.028 70.3599 175.028 67.6812C175.028 67.6812 174.421 67.6812 173.207 67.6812C173.207 67.6812 172.318 69.0205 170.541 71.6992C170.541 71.6992 170.164 71.6992 169.411 71.6992C169.411 71.6992 170.316 70.3387 172.127 67.6177C171.556 67.5457 171.08 67.3722 170.699 67.0972C170.395 66.8771 170.162 66.5809 170.001 66.2085C169.84 65.8319 169.76 65.4087 169.76 64.939C169.76 64.3973 169.857 63.9212 170.052 63.5107C170.246 63.1003 170.524 62.7913 170.883 62.584C171.175 62.4105 171.514 62.2856 171.899 62.2095C172.284 62.1333 172.777 62.0952 173.378 62.0952H175.987V71.6992Z" fill="#222222"/>
<path d="M183.991 71.6992C183.991 71.6992 183.67 71.6992 183.026 71.6992C183.026 71.6992 183.026 70.637 183.026 68.5127C183.026 68.5127 181.607 68.5127 178.767 68.5127C178.767 68.5127 178.767 69.5749 178.767 71.6992C178.767 71.6992 178.445 71.6992 177.802 71.6992C177.802 71.6992 177.802 69.3294 177.802 64.5898C177.802 64.5898 178.124 64.5898 178.767 64.5898C178.767 64.5898 178.767 65.6076 178.767 67.6431C178.767 67.6431 180.187 67.6431 183.026 67.6431C183.026 67.6431 183.026 66.6253 183.026 64.5898C183.026 64.5898 183.348 64.5898 183.991 64.5898C183.991 64.5898 183.991 66.9596 183.991 71.6992Z" fill="#222222"/>
<path d="M192.281 71.6992C192.281 71.6992 190.201 71.6992 186.042 71.6992C186.042 71.6992 185.923 72.2451 185.686 73.3369C185.686 73.3369 185.466 73.3369 185.026 73.3369C185.026 73.3369 185.026 72.5011 185.026 70.8296C185.026 70.8296 185.333 70.8296 185.946 70.8296C185.946 70.8296 186.835 68.7497 188.612 64.5898C188.612 64.5898 188.976 64.5898 189.704 64.5898C189.704 64.5898 190.593 66.6698 192.37 70.8296C192.37 70.8296 192.677 70.8296 193.291 70.8296C193.291 70.8296 193.291 71.6654 193.291 73.3369C193.291 73.3369 193.07 73.3369 192.63 73.3369C192.63 73.3369 192.514 72.791 192.281 71.6992ZM191.354 70.8296C191.354 70.8296 190.622 69.1136 189.158 65.6816C189.158 65.6816 188.426 67.3976 186.962 70.8296C186.962 70.8296 188.426 70.8296 191.354 70.8296Z" fill="#222222"/>
<path d="M200.819 68.4619C200.819 68.4619 198.675 68.4619 194.389 68.4619C194.427 69.1644 194.715 69.7611 195.252 70.252C195.789 70.7386 196.424 70.9819 197.156 70.9819C197.698 70.9819 198.197 70.8338 198.654 70.5376C199.111 70.2371 199.439 69.8436 199.638 69.3569H200.641C200.379 70.106 199.93 70.7132 199.295 71.1787C198.661 71.64 197.956 71.8706 197.182 71.8706C196.665 71.8706 196.174 71.7733 195.709 71.5786C195.243 71.384 194.844 71.1195 194.509 70.7852C194.175 70.4508 193.91 70.0509 193.716 69.5854C193.521 69.12 193.424 68.6291 193.424 68.1128C193.424 67.4357 193.587 66.8136 193.913 66.2466C194.238 65.6795 194.683 65.2331 195.246 64.9072C195.808 64.5814 196.428 64.4185 197.105 64.4185C197.808 64.4185 198.453 64.592 199.042 64.939C199.634 65.286 200.085 65.7578 200.394 66.3545C200.55 66.6549 200.66 66.9639 200.724 67.2812C200.787 67.5944 200.819 67.988 200.819 68.4619ZM194.414 67.5923H199.86C199.7 66.8856 199.372 66.327 198.876 65.9165C198.386 65.506 197.795 65.3008 197.105 65.3008C196.433 65.3008 195.849 65.5124 195.354 65.9355C194.858 66.3545 194.545 66.9067 194.414 67.5923Z" fill="#222222"/>
<path d="M202.152 64.5898C202.152 64.5898 202.473 64.5898 203.117 64.5898C203.117 64.5898 203.117 65.6457 203.117 67.7573C203.117 67.7573 204.2 66.7015 206.367 64.5898C206.367 64.5898 206.781 64.5898 207.611 64.5898C207.611 64.5898 206.428 65.7367 204.062 68.0303C204.062 68.0303 205.245 69.2533 207.611 71.6992C207.611 71.6992 207.192 71.6992 206.354 71.6992C206.354 71.6992 205.275 70.582 203.117 68.3477C203.117 68.3477 203.117 69.4648 203.117 71.6992C203.117 71.6992 202.795 71.6992 202.152 71.6992C202.152 71.6992 202.152 69.3294 202.152 64.5898Z" fill="#222222"/>
<path d="M214.25 69.6045C214.25 69.6045 214.614 69.6045 215.342 69.6045C215.139 69.9896 214.953 70.2922 214.784 70.5122C214.614 70.728 214.411 70.9248 214.174 71.1025C213.523 71.6146 212.75 71.8706 211.857 71.8706C211.138 71.8706 210.482 71.7077 209.89 71.3818C209.297 71.0518 208.832 70.6011 208.493 70.0298C208.155 69.4543 207.985 68.8195 207.985 68.1255C207.985 67.4442 208.153 66.82 208.487 66.2529C208.825 65.6859 209.287 65.2394 209.871 64.9136C210.455 64.5835 211.096 64.4185 211.794 64.4185C212.598 64.4185 213.315 64.6279 213.946 65.0469C214.581 65.4658 215.042 66.0329 215.33 66.748H214.25C213.975 66.2826 213.626 65.925 213.203 65.6753C212.78 65.4256 212.306 65.3008 211.781 65.3008C210.99 65.3008 210.321 65.5758 209.775 66.126C209.234 66.6761 208.963 67.3511 208.963 68.1509C208.963 68.9422 209.238 69.613 209.788 70.1631C210.342 70.709 211.02 70.9819 211.819 70.9819C212.327 70.9819 212.765 70.8761 213.133 70.6646C213.506 70.453 213.878 70.0996 214.25 69.6045Z" fill="#222222"/>
<path d="M223.797 68.4619C223.797 68.4619 221.654 68.4619 217.367 68.4619C217.405 69.1644 217.693 69.7611 218.23 70.252C218.768 70.7386 219.403 70.9819 220.135 70.9819C220.676 70.9819 221.176 70.8338 221.633 70.5376C222.09 70.2371 222.418 69.8436 222.617 69.3569H223.62C223.357 70.106 222.909 70.7132 222.274 71.1787C221.639 71.64 220.935 71.8706 220.16 71.8706C219.644 71.8706 219.153 71.7733 218.688 71.5786C218.222 71.384 217.822 71.1195 217.488 70.7852C217.153 70.4508 216.889 70.0509 216.694 69.5854C216.5 69.12 216.402 68.6291 216.402 68.1128C216.402 67.4357 216.565 66.8136 216.891 66.2466C217.217 65.6795 217.661 65.2331 218.224 64.9072C218.787 64.5814 219.407 64.4185 220.084 64.4185C220.786 64.4185 221.432 64.592 222.02 64.939C222.612 65.286 223.063 65.7578 223.372 66.3545C223.529 66.6549 223.639 66.9639 223.702 67.2812C223.766 67.5944 223.797 67.988 223.797 68.4619ZM217.393 67.5923H222.839C222.678 66.8856 222.35 66.327 221.855 65.9165C221.364 65.506 220.774 65.3008 220.084 65.3008C219.411 65.3008 218.827 65.5124 218.332 65.9355C217.837 66.3545 217.524 66.9067 217.393 67.5923Z" fill="#222222"/>
<defs>
<clipPath id="clip0_407_419">
<rect width="36" height="36" fill="white" transform="translate(18 12)"/>
</clipPath>
<clipPath id="clip1_407_419">
<rect width="23.2759" height="22.1121" fill="white" transform="translate(130.975 18.9438)"/>
</clipPath>
<clipPath id="clip2_407_419">
<rect width="23.2759" height="22.1121" fill="white" transform="translate(158.906 18.9438)"/>
</clipPath>
<clipPath id="clip3_407_419">
<rect width="23.2759" height="22.1121" fill="white" transform="translate(186.837 18.9438)"/>
</clipPath>
<clipPath id="clip4_407_419">
<rect width="23.2759" height="22.1121" fill="white" transform="translate(214.768 18.9438)"/>
</clipPath>
<clipPath id="clip5_407_419">
<rect width="23.2759" height="22.1121" fill="white" transform="translate(242.699 18.9438)"/>
</clipPath>
<clipPath id="clip6_407_419">
<rect width="23.2759" height="22.1121" fill="white" transform="translate(242.699 18.9438)"/>
</clipPath>
<clipPath id="clip7_407_419">
<rect width="19.7845" height="22.1121" fill="white" transform="translate(242.699 18.9438)"/>
</clipPath>
</defs>
</svg>
