<svg width="32" height="32" viewBox="0 0 32 32" fill="none" xmlns="http://www.w3.org/2000/svg">
<path d="M23 3H9.00003C7.93952 3.00114 6.92276 3.42293 6.17286 4.17283C5.42297 4.92273 5.00117 5.93948 5.00003 7V19.91C4.99625 21.025 5.30499 22.1188 5.89126 23.0673C6.47753 24.0158 7.31786 24.781 8.31693 25.2762L15.5527 28.8944C15.6916 28.9638 15.8447 28.9999 16 28.9999C16.1552 28.9999 16.3083 28.9638 16.4472 28.8944L23.6826 25.2762C24.6818 24.7811 25.5223 24.016 26.1087 23.0675C26.695 22.119 27.0038 21.0251 27 19.91V7C26.9989 5.93948 26.5771 4.92273 25.8272 4.17283C25.0773 3.42293 24.0606 3.00114 23 3ZM20.6245 13.7813L15.6245 17.7813C15.4323 17.9349 15.1903 18.0122 14.9446 17.9986C14.699 17.9849 14.467 17.8811 14.293 17.7071L12.293 15.7071C12.1102 15.5186 12.0088 15.2658 12.0108 15.0032C12.0128 14.7407 12.118 14.4894 12.3037 14.3037C12.4893 14.118 12.7406 14.0128 13.0031 14.0108C13.2657 14.0088 13.5186 14.1102 13.707 14.293L15.0742 15.66L19.3755 12.2186C19.5828 12.053 19.8473 11.9764 20.1109 12.0059C20.3746 12.0353 20.6158 12.1682 20.7814 12.3755C20.947 12.5827 21.0235 12.8472 20.9941 13.1109C20.9647 13.3745 20.8318 13.6157 20.6245 13.7813Z" fill="url(#paint0_linear_76_43685)"/>
<defs>
<linearGradient id="paint0_linear_76_43685" x1="9.75282" y1="26.9428" x2="23.5143" y2="7.12178" gradientUnits="userSpaceOnUse">
<stop stop-color="#00AAE3"/>
<stop offset="1" stop-color="#58C3BD"/>
</linearGradient>
</defs>
</svg>
