<svg width="64" height="64" viewBox="0 0 64 64" fill="none" xmlns="http://www.w3.org/2000/svg">
<path fill-rule="evenodd" clip-rule="evenodd" d="M15.3543 0.143986C15.1889 0.224183 14.8031 0.865086 14.3919 1.74309C12.4395 5.91198 9.21862 10.0987 6.11114 12.5072C4.63153 13.654 4.39594 13.8959 4.39594 14.2687C4.39594 14.4439 4.53614 14.7187 4.70728 14.8794C4.98862 15.1432 5.16084 15.1709 6.49002 15.1664C7.29932 15.1638 8.36681 15.0832 8.86234 14.9874C9.92661 14.7817 9.93333 14.7096 8.72672 16.4476C7.00076 18.9338 5.13918 20.9931 3.3676 22.376C1.97612 23.4622 1.83189 23.7733 2.43896 24.3793C2.72582 24.6658 2.89117 24.7091 3.69953 24.7091C4.21121 24.7091 5.1607 24.6166 5.80962 24.5037C6.4584 24.3907 7.01112 24.32 7.03776 24.3465C7.12078 24.4295 5.61856 26.597 4.55215 27.9331C3.9919 28.6349 2.72191 30.0405 1.73017 31.0564C0.0876303 32.7388 -0.0650799 32.9366 0.0175316 33.2729C0.1545 33.8307 0.33533 33.948 1.50454 34.2366C5.12491 35.1302 9.35142 34.8953 12.6946 33.6144C12.8403 33.5585 12.8724 34.6408 12.8724 39.6169V45.6875L10.8878 45.5756C7.02215 45.3574 2.06573 45.5562 0.765071 45.9818C0.188675 46.1702 -0.10652 46.6927 0.082652 47.1893C0.294293 47.7449 0.652994 47.8546 1.67972 47.6776C3.05303 47.4409 9.20584 47.3509 11.4319 47.5351C18.5073 48.1202 24.6752 49.6424 32.718 52.7882C36.7772 54.376 38.5606 54.9967 41.3569 55.7952C47.1335 57.4448 51.3972 58.1283 56.6703 58.25C59.9675 58.3262 62.27 58.1963 63.2798 57.8771C63.8264 57.7043 64.0846 57.1471 63.8532 56.6399C63.6347 56.1613 63.1603 56.0291 62.2575 56.1953C61.1683 56.3957 54.3923 56.3789 52.6981 56.1716C47.9385 55.5891 43.5893 54.5966 38.7725 52.9936C37.1445 52.4518 35.5401 51.8896 35.2071 51.7444L34.6016 51.4803L36.5244 50.8518C41.9068 49.0924 46.7684 48.0666 51.9296 47.6012C54.6867 47.3526 60.6565 47.3978 62.2906 47.6796C63.0806 47.8158 63.2495 47.808 63.5331 47.6227C64.0008 47.3165 64.0973 46.7999 63.7689 46.3586C63.5548 46.0708 63.3208 45.9697 62.5741 45.8418C60.7566 45.5307 56.9311 45.3827 54.3799 45.5249C53.0479 45.5991 51.7614 45.661 51.5208 45.6625L51.0835 45.665V39.6057C51.0835 34.639 51.1156 33.5585 51.2613 33.6144C54.5453 34.8726 58.4652 35.1118 62.3172 34.2892C63.4663 34.0437 64 33.6867 64 33.1633C64 32.9732 63.3858 32.2446 62.2112 31.0415C61.2274 30.0338 59.964 28.6349 59.4038 27.9331C58.3373 26.597 56.8351 24.4295 56.9182 24.3465C56.9448 24.32 57.4975 24.3907 58.1463 24.5037C58.7952 24.6166 59.7447 24.7091 60.2564 24.7091C61.0647 24.7091 61.2301 24.6658 61.517 24.3793C62.1244 23.7728 61.9799 23.4621 60.5843 22.374C59.9795 21.9024 58.9758 20.9807 58.3536 20.3255C57.2304 19.1424 55.0527 16.3286 54.4897 15.333L54.1959 14.8133L55.1625 14.9961C55.7173 15.101 56.7535 15.163 57.5949 15.1416C59.006 15.1056 59.0706 15.091 59.3279 14.7465C59.7557 14.1736 59.5621 13.8042 58.3812 12.9411C56.916 11.8702 54.2844 9.19037 53.0019 7.46312C51.6625 5.65903 50.4646 3.66633 49.5645 1.74416C48.8436 0.204839 48.5546 -0.0876042 47.9135 0.0730581C47.6479 0.139553 47.3915 0.547926 46.5843 2.18934C44.4282 6.57384 41.3822 10.3853 38.011 12.9168C37.4486 13.339 36.9509 13.7823 36.905 13.9016C36.7546 14.2929 36.8172 14.6297 37.0907 14.9028C37.3283 15.14 37.537 15.1712 38.8735 15.1686C39.706 15.1671 40.7807 15.0828 41.2617 14.9813C41.7427 14.8799 42.1506 14.8099 42.1684 14.8259C42.186 14.8419 41.7733 15.4835 41.2514 16.2516C39.4695 18.8743 37.7512 20.8063 35.8595 22.3146C34.391 23.4853 34.2541 23.7697 34.8646 24.3793C35.1515 24.6658 35.3169 24.7091 36.1252 24.7091C36.6369 24.7091 37.5864 24.6166 38.2353 24.5037C38.8841 24.3907 39.4364 24.3196 39.4626 24.3458C39.5325 24.4155 38.0359 26.5764 37.0041 27.8956C36.5132 28.523 35.2725 29.9024 34.2467 30.9607C33.14 32.1022 32.3816 32.9916 32.3816 33.1477C32.3816 33.6708 32.8222 33.9917 33.8889 34.2455C37.2188 35.0377 41.2941 34.9051 44.2264 33.9093C44.7678 33.7255 45.2302 33.575 45.2543 33.575C45.2784 33.575 45.2981 36.5026 45.2981 40.0807V46.5863L44.5244 46.7416C41.3826 47.3719 36.7537 48.6889 33.7607 49.804L31.978 50.4682L30.1952 49.804C27.2022 48.6889 22.5733 47.3719 19.4315 46.7416L18.6579 46.5863V40.0807C18.6579 36.5026 18.6775 33.575 18.7016 33.575C18.7257 33.575 19.1881 33.7255 19.7295 33.9093C22.6618 34.9051 26.7371 35.0377 30.067 34.2455C31.1337 33.9917 31.5743 33.6708 31.5743 33.1477C31.5743 32.9916 30.8159 32.1022 29.7092 30.9607C28.6835 29.9024 27.4427 28.523 26.9518 27.8956C25.9242 26.5817 24.4233 24.4155 24.4926 24.3464C24.5184 24.3206 25.0903 24.3943 25.7631 24.5103C26.436 24.6262 27.4222 24.7033 27.9548 24.6815C28.832 24.6457 28.9488 24.6072 29.1984 24.2728C29.572 23.772 29.3974 23.3103 28.6132 22.7255C27.4482 21.8569 25.9265 20.3925 24.8428 19.0977C23.8793 17.9462 21.7028 14.9024 21.7879 14.8255C21.8054 14.8098 22.2132 14.8799 22.6943 14.9813C23.1753 15.0828 24.25 15.1671 25.0825 15.1686C26.4189 15.1712 26.6276 15.14 26.8652 14.9028C27.1387 14.6297 27.2013 14.2929 27.0509 13.9016C27.005 13.7823 26.5073 13.339 25.9449 12.9168C22.5994 10.4045 19.507 6.53555 17.3717 2.19068C16.2814 -0.027826 16.0961 -0.215758 15.3543 0.143986ZM16.3959 4.45755C17.6579 6.87971 19.6392 9.54649 21.8859 11.8469C22.5894 12.5674 23.1004 13.1568 23.0215 13.1567C22.5876 13.1559 21.3034 12.6649 20.5334 12.2055C19.5391 11.6121 19.1814 11.5591 18.7924 11.9474C18.3853 12.3539 18.4625 12.8206 19.1456 14.082C20.4963 16.576 22.2649 19.0761 24.2117 21.2435C25.5858 22.7733 25.525 22.8138 23.3821 21.7963C21.9403 21.1118 21.5719 21.1097 21.2874 21.7849C21.0759 22.2874 21.0847 22.3169 21.8619 23.7016C23.2968 26.2577 25.3584 29.0688 27.5407 31.4449L28.6181 32.6177L27.9771 32.727C27.6246 32.787 26.3976 32.8318 25.2506 32.8263C21.9946 32.8108 19.7279 32.2074 17.1925 30.6814C16.5225 30.2781 15.8802 29.9481 15.7651 29.9481C15.6501 29.9481 15.0078 30.2781 14.3377 30.6814C11.8524 32.1773 9.55243 32.7986 6.41414 32.8218C5.34113 32.8298 4.1103 32.786 3.67881 32.7244L2.8944 32.6127L3.6811 31.7841C5.01149 30.3826 5.92883 29.2768 7.15307 27.5984C8.30855 26.0144 10.032 23.2385 10.3048 22.5219C10.4873 22.0428 10.2899 21.5286 9.84601 21.3267C9.54772 21.191 9.3416 21.2485 8.19513 21.7864C7.47463 22.1245 6.70745 22.4407 6.49056 22.4892C6.12796 22.5701 6.16899 22.4998 6.99753 21.623C8.83732 19.6757 10.7281 17.0525 12.2123 14.3877C13.0606 12.8648 13.1661 12.375 12.7378 11.9474C12.3518 11.562 12.0265 11.6107 11.0123 12.2056C10.2373 12.6602 8.93782 13.1564 8.52208 13.1564C8.45036 13.1564 8.96191 12.567 9.65899 11.8467C11.8982 9.53239 13.7344 7.07181 15.0224 4.65986C15.4071 3.93957 15.7436 3.35011 15.7704 3.35011C15.797 3.35011 16.0785 3.84849 16.3959 4.45755ZM48.9335 4.65986C50.2215 7.07181 52.0577 9.53239 54.2969 11.8467C54.994 12.567 55.5056 13.1564 55.4338 13.1564C55.0181 13.1564 53.7186 12.6602 52.9437 12.2056C51.9294 11.6107 51.6041 11.562 51.2181 11.9474C50.7898 12.375 50.8953 12.8648 51.7436 14.3877C53.2278 17.0525 55.1186 19.6757 56.9584 21.623C57.7833 22.4959 57.8263 22.5693 57.4654 22.4849C57.2485 22.4343 56.4799 22.1186 55.7577 21.7837C54.615 21.2536 54.4005 21.1945 54.1068 21.3282C53.921 21.4127 53.706 21.6475 53.6289 21.8501C53.5091 22.1644 53.5562 22.3476 53.9506 23.1014C55.4255 25.9203 57.7903 29.167 60.2759 31.7852L61.0634 32.6147L60.4126 32.7255C60.0547 32.7864 58.8233 32.8318 57.6763 32.8263C54.4203 32.8108 52.1536 32.2074 49.6182 30.6814C48.9482 30.2781 48.3058 29.9481 48.1908 29.9481C48.0758 29.9481 47.4431 30.2722 46.7849 30.6685C44.7713 31.8804 42.9464 32.4861 40.4279 32.7787C39.1272 32.9298 37.0517 32.8875 35.8518 32.6854L35.3529 32.6014L36.4227 31.4367C38.5974 29.069 40.6612 26.2543 42.094 23.7016C42.8712 22.3169 42.88 22.2874 42.6685 21.7849C42.3785 21.0966 41.9906 21.0983 40.5578 21.7943C38.4487 22.8189 38.3635 22.7735 39.6728 21.3228C41.622 19.163 43.4666 16.5632 44.8103 14.082C45.4934 12.8206 45.5706 12.3539 45.1635 11.9474C44.7745 11.5591 44.4168 11.6121 43.4225 12.2055C42.6542 12.664 41.3737 13.154 40.9344 13.1576C40.8555 13.1583 41.4078 12.5257 42.1618 11.752C44.3186 9.53897 46.1017 7.1285 47.5218 4.50618C47.8663 3.87038 48.1674 3.35011 48.1911 3.35011C48.2148 3.35011 48.5488 3.93957 48.9335 4.65986ZM16.3211 32.3771L16.7742 32.6566V39.445V46.2332L16.0006 46.1427C15.5751 46.0929 15.121 46.0214 14.9915 45.9838C14.7714 45.92 14.756 45.4845 14.756 39.2884V32.661L15.1933 32.3815C15.7362 32.0344 15.7657 32.0342 16.3211 32.3771ZM48.7467 32.3771L49.1999 32.6566V39.2861C49.1999 45.4843 49.1846 45.92 48.9644 45.9838C48.835 46.0214 48.3809 46.0929 47.9553 46.1427L47.1817 46.2332V39.4471V32.661L47.619 32.3815C48.1619 32.0344 48.1913 32.0342 48.7467 32.3771ZM4.26139 54.6755C1.53791 54.8559 0.510106 55.0596 0.196209 55.4811C-0.118764 55.9042 -0.0174504 56.4693 0.425342 56.7589C0.690667 56.9325 0.928277 56.9326 2.39335 56.7597C5.07069 56.4438 7.1314 56.3805 9.57598 56.5394C17.7724 57.072 24.4474 58.6193 32.6507 61.8882C34.3157 62.5516 36.2643 63.2982 36.9809 63.5473L38.284 64L38.6628 63.7187C39.0895 63.4019 39.2217 62.7958 38.946 62.4197C38.8499 62.2885 38.1963 61.9784 37.4937 61.7306C36.7911 61.4827 35.0355 60.814 33.5925 60.2445C26.9792 57.6344 21.8323 56.168 16.325 55.3249C12.3059 54.7097 7.58415 54.4555 4.26139 54.6755Z" fill="white"/>
</svg>
