<svg width="67" height="67" viewBox="0 0 67 67" fill="none" xmlns="http://www.w3.org/2000/svg">
<path fill-rule="evenodd" clip-rule="evenodd" d="M29.9122 0.305307C28.7807 0.833476 28.1128 1.81326 27.86 3.31598C27.8301 3.49303 27.4835 3.67899 26.5868 3.99896C22.417 5.48702 19.0605 8.05275 16.6596 11.5874C14.5654 14.6707 13.3633 18.6814 13.3633 22.5854V23.4221H12.6337C12.0017 23.4221 11.8529 23.4733 11.5217 23.8046C11.3113 24.0151 11.1393 24.3124 11.1393 24.4655C11.1393 24.8448 11.4753 25.4662 11.7339 25.5656C11.8503 25.6102 12.765 25.6468 13.7665 25.6468H15.5872L15.5876 28.0351C15.5884 32.0744 15.9139 34.4564 16.8527 37.2938C17.379 38.8846 18.572 41.4011 19.4309 42.732L20.0266 43.6553L19.5087 45.611C19.2239 46.6866 18.9903 47.7443 18.9898 47.9616C18.9891 48.1788 19.1351 48.5722 19.3142 48.8359L19.6399 49.3154L18.889 49.4663C14.994 50.2493 11.0722 51.7165 5.71022 54.3963C2.60975 55.9459 1.78283 56.5051 1.12389 57.4978C0.147174 58.9695 0.0972002 59.2232 0.0459183 62.9721L0 66.3381L0.330847 66.669L0.661694 67H33.5097H66.3578L66.6788 66.6787L67 66.3576V63.2901C67 59.7478 66.8777 59.1141 65.9177 57.6856C65.1096 56.4831 64.1985 55.8362 61.2182 54.3497C55.9198 51.7068 51.9998 50.2441 48.1305 49.4663L47.3795 49.3154L47.7053 48.8359C47.8844 48.5722 48.0304 48.1788 48.0297 47.9616C48.0292 47.7443 47.7956 46.6866 47.5108 45.611L46.9928 43.6553L47.5886 42.732C48.4474 41.4011 49.6405 38.8846 50.1668 37.2938C51.101 34.4704 51.4311 32.0716 51.4319 28.1005L51.4323 25.7777L52.9694 25.7769C54.8477 25.7761 55.4173 25.639 55.6837 25.1238C55.9727 24.5647 55.926 24.233 55.4978 23.8046C55.1666 23.4733 55.0178 23.4221 54.3858 23.4221H53.6562V22.5854C53.6562 14.1003 48.524 6.88648 40.4327 3.99896C39.536 3.67899 39.1894 3.49303 39.1595 3.31598C38.9066 1.81326 38.2388 0.833476 37.1073 0.305307C36.4831 0.0138716 36.3193 0 33.5097 0C30.7002 0 30.5364 0.0138716 29.9122 0.305307ZM36.0878 2.35922C36.3042 2.4346 36.5472 2.62606 36.6277 2.78453C36.7209 2.96761 36.7873 4.23438 36.81 6.25768L36.8457 9.44266L37.2128 9.7583C37.7205 10.1949 38.2733 10.1708 38.7527 9.69143C39.1349 9.30892 39.1351 9.30852 39.1351 7.65426V5.99948L39.4294 6.08847C40.243 6.33423 41.6207 6.97573 41.6209 7.10895C41.6211 7.19218 41.2867 8.89499 40.8777 10.8929C40.1583 14.408 40.1411 14.54 40.3459 14.9696C40.7417 15.7997 40.9387 15.7956 45.3342 14.8666L49.2439 14.0403L49.7358 15.1053C50.7282 17.2541 51.1672 19.1234 51.2665 21.6227L51.3381 23.4221H33.5097H15.6814L15.7527 21.6227C15.8503 19.1566 16.2103 17.5775 17.1868 15.3317C17.6496 14.2672 17.7525 14.1199 17.9932 14.1768C18.1449 14.2127 19.93 14.5732 21.9601 14.9778C25.2018 15.6242 25.7161 15.6963 26.1849 15.57C27.1234 15.3172 27.1244 15.2612 26.2594 11.01C25.8397 8.94773 25.4708 7.19388 25.4395 7.11235C25.3899 6.98306 26.7115 6.35386 27.5901 6.08847L27.8844 5.99948V7.65426C27.8844 9.30852 27.8846 9.30892 28.2668 9.69143C28.7462 10.1708 29.299 10.1949 29.8067 9.7583L30.1738 9.44266L30.2095 6.25768C30.2323 4.22051 30.2983 2.96814 30.3928 2.78257C30.474 2.62292 30.6934 2.43617 30.8804 2.3676C31.3478 2.19591 35.6001 2.1891 36.0878 2.35922ZM23.7137 10.5974C24.0805 12.4504 24.1418 12.953 24.001 12.953C23.7077 12.953 19.7292 12.1694 19.4589 12.0584C19.2369 11.9673 19.294 11.8634 19.9822 11.1088C20.936 10.0626 22.9556 8.25271 23.1784 8.24446C23.2163 8.24302 23.4573 9.30185 23.7137 10.5974ZM44.4853 8.725C45.4876 9.52916 46.2257 10.2186 47.0373 11.1088C47.7254 11.8634 47.7826 11.9673 47.5606 12.0584C47.2903 12.1694 43.3118 12.953 43.0185 12.953C42.8777 12.953 42.939 12.4504 43.3058 10.5974C43.5622 9.30185 43.797 8.24185 43.8276 8.24185C43.8581 8.24185 44.154 8.45921 44.4853 8.725ZM49.0751 28.7549C49.0719 32.7005 48.7923 34.6065 47.8191 37.3163C46.3645 41.366 43.2295 45.2107 39.6882 47.2874C36.133 49.3724 32.3776 49.5975 28.6316 47.9503C26.6989 47.1005 24.7684 45.5721 22.7506 43.2946C20.7582 41.0456 19.4219 38.4948 18.5902 35.3533C18.1082 33.5325 17.947 31.8849 17.9444 28.7549L17.942 25.7777H33.5097H49.0775L49.0751 28.7549ZM22.9682 46.945C24.2459 48.1546 25.8721 49.2738 27.3767 49.979C28.4833 50.4979 30.5537 51.1637 31.0715 51.1674C31.8051 51.1726 31.7879 51.2505 30.3093 54.5886C29.5333 56.3406 28.8617 57.812 28.8167 57.8585C28.7717 57.9049 27.6751 56.4672 26.38 54.6638C25.0849 52.8602 23.4293 50.5804 22.701 49.5974L21.377 47.8102L21.5787 46.8706C21.6896 46.3536 21.8066 45.9308 21.8385 45.9308C21.8706 45.9308 22.3788 46.3873 22.9682 46.945ZM45.4408 46.8706L45.6425 47.8102L44.3185 49.5974C43.5902 50.5804 41.9346 52.8602 40.6395 54.6638C39.3444 56.4672 38.2478 57.9049 38.2028 57.8585C38.1578 57.812 37.4862 56.3406 36.7102 54.5886C35.2316 51.2505 35.2143 51.1726 35.948 51.1674C36.4659 51.1637 38.5362 50.4977 39.643 49.9789C41.1887 49.2544 42.7559 48.1757 44.0114 46.9724C44.6033 46.4052 45.1216 45.9388 45.1633 45.9359C45.205 45.9332 45.3298 46.3536 45.4408 46.8706ZM47.9655 51.7108C51.4935 52.471 55.5882 54.0243 60.4445 56.4443C61.7678 57.1036 63.1039 57.8662 63.4135 58.1386C63.7253 58.4129 64.1375 58.9678 64.337 59.3819C64.6803 60.0938 64.7002 60.2411 64.7514 62.4525L64.8052 64.7753H52.4388H40.0725L39.9405 64.1537C39.8679 63.8117 39.6773 62.8549 39.5171 62.0272L39.2255 60.5222L42.0809 56.5963C43.6514 54.437 45.1624 52.3628 45.4386 51.9868C46.0062 51.2143 45.7774 51.2393 47.9655 51.7108ZM24.4854 55.9747L27.7931 60.5222L27.502 62.0272C27.3419 62.8549 27.1516 63.8117 27.079 64.1537L26.947 64.7753H14.5807H2.21428L2.26962 62.4525C2.32012 60.3327 2.3523 60.0728 2.6384 59.4808C3.17137 58.3779 3.71559 57.9676 6.51464 56.5595C10.7298 54.4387 13.9393 53.1289 16.9813 52.288C18.4717 51.876 20.3667 51.4721 20.9662 51.4389C21.0998 51.4314 22.3974 53.104 24.4854 55.9747ZM34.8967 56.171L36.2083 59.0827L34.9315 59.1199C34.2294 59.1404 33.0373 59.1404 32.2826 59.1199L30.9105 59.0827L32.1745 56.171C32.8696 54.5694 33.4714 53.2592 33.5117 53.2592C33.552 53.2592 34.1752 54.5694 34.8967 56.171ZM37.2906 62.9759C37.4429 63.7857 37.567 64.5218 37.5664 64.6117C37.5655 64.7391 36.6527 64.7753 33.4419 64.7753H29.3185L29.3874 64.4809C29.4806 64.0833 29.9776 61.6189 29.9776 61.5547C29.9776 61.5266 31.5606 61.5037 33.4956 61.5037H37.0135L37.2906 62.9759Z" fill="black"/>
</svg>
