<svg width="64" height="63" viewBox="0 0 64 63" fill="none" xmlns="http://www.w3.org/2000/svg">
<path fill-rule="evenodd" clip-rule="evenodd" d="M31.1139 0.380942C30.3088 1.1846 30.8596 2.51136 31.9984 2.51136C32.7292 2.51136 33.2483 1.99326 33.2483 1.26382C33.2483 0.127193 31.919 -0.422596 31.1139 0.380942ZM16.1736 3.63164C15.7426 3.80543 15.3751 4.37318 15.3751 4.86546C15.3751 5.28999 15.6309 5.56982 20.0328 9.96351C24.6409 14.5631 24.6958 14.6125 25.2015 14.6125C26.055 14.6125 26.6461 13.8544 26.442 13.0218C26.349 12.6428 17.813 3.99842 17.225 3.68766C16.8484 3.4888 16.5653 3.47371 16.1736 3.63164ZM46.6843 3.73956C45.9595 4.20763 37.6427 12.6637 37.5548 13.0218C37.3507 13.8544 37.9418 14.6125 38.7953 14.6125C39.301 14.6125 39.3559 14.5631 43.964 9.96351C48.4211 5.51468 48.6216 5.29461 48.6216 4.85061C48.6216 3.86705 47.491 3.21871 46.6843 3.73956ZM31.4359 5.15127C30.7498 5.5279 30.7543 5.49671 30.7513 9.85024L30.7485 13.8831L31.1139 14.2478C31.6283 14.7613 32.3685 14.7613 32.8829 14.2478L33.2483 13.8831L33.2455 9.85024C33.243 6.21754 33.2213 5.79088 33.0268 5.55123C32.6061 5.03288 31.9514 4.86833 31.4359 5.15127ZM12.5278 12.4508C12.3861 12.5076 0.750817 26.8072 0.214749 27.5835C-0.12809 28.0798 -0.058097 28.6486 0.407979 29.1526C0.63133 29.3943 2.13317 30.7267 3.74513 32.1136L6.67607 34.6354L9.08819 37.879C10.4149 39.663 11.644 41.3264 11.8196 41.5756L12.1389 42.0285L11.7528 42.636C10.1143 45.2143 11.3464 48.526 14.2503 49.349L14.9377 49.5437L14.9603 50.3139C15.0252 52.5234 16.5688 54.2014 18.8933 54.5889C19.3394 54.6632 19.352 54.681 19.4815 55.4143C19.841 57.4518 21.4674 58.9031 23.634 59.12L24.5509 59.2118L24.6484 59.6817C24.8853 60.8214 25.7442 61.9064 26.8957 62.5202C27.5757 62.8827 27.835 62.9486 28.7487 62.9913C30.1572 63.0569 30.9702 62.7617 31.9988 61.8113C32.4836 61.3633 32.7959 61.1599 32.9005 61.2239C32.9887 61.2776 33.297 61.5012 33.5856 61.7205C34.3889 62.3308 35.2178 62.5572 36.4188 62.4942C37.2737 62.4495 37.561 62.3741 38.226 62.0203C39.5127 61.3358 40.3932 60.0884 40.5664 58.7048L40.6472 58.059L41.3183 57.9899C42.1756 57.9016 43.3746 57.2709 43.9591 56.6008C44.5391 55.9359 44.9654 55.0163 45.0659 54.2137L45.1467 53.5679L45.8178 53.4988C46.6751 53.4104 47.8741 52.7798 48.4586 52.1096C49.0386 51.4448 49.4649 50.5251 49.5654 49.7226L49.6463 49.0767L50.3173 49.0076C52.8334 48.7485 54.6545 45.9722 53.9396 43.4857C53.8225 43.078 53.654 42.6312 53.5652 42.493C53.4216 42.2694 53.6271 41.7739 55.4265 38.0019L57.4493 33.7621L60.3159 31.2997C61.8926 29.9455 63.3653 28.6411 63.5888 28.4011C64.0173 27.9409 64.1152 27.4204 63.8623 26.9487C63.6287 26.5131 53.2354 13.0665 52.8567 12.71C52.1781 12.0711 52.0238 12.1338 48.0168 14.6748L44.3773 16.9828H39.7413H35.1052L31.6094 17.9936L28.1137 19.0045L24.5253 18.0348L20.9371 17.0651L17.4374 14.8596C15.5126 13.6466 13.8149 12.5894 13.6648 12.5105C13.3871 12.3644 12.8178 12.3345 12.5278 12.4508ZM16.0038 16.9916C17.633 18.0283 18.3496 18.5509 18.2755 18.6489C17.9885 19.0275 7.80957 31.4225 7.61609 31.629C7.39961 31.8599 7.33662 31.8173 5.25297 30.0284C4.07572 29.0175 3.13319 28.1279 3.15869 28.0515C3.27918 27.691 13.3314 15.3807 13.4683 15.426C13.5538 15.4542 14.6948 16.1588 16.0038 16.9916ZM56.538 21.5676L60.9814 27.3376L58.85 29.1776C57.6778 30.1896 56.6825 31.0291 56.6384 31.0432C56.5434 31.0737 46.8093 18.7223 46.8093 18.5714C46.8093 18.5144 47.9061 17.771 49.2466 16.9193C51.5334 15.4664 51.6964 15.3841 51.8893 15.5843C52.0023 15.7016 54.0942 18.3941 56.538 21.5676ZM49.4965 26.2199C52.4181 29.9277 54.8263 33.0125 54.8481 33.075C54.8698 33.1374 54.1387 34.7599 53.2233 36.6804L51.5588 40.1722L44.4346 33.0779C38.2753 26.9443 37.2511 25.974 36.8729 25.9147C36.3597 25.8343 30.9857 25.4669 30.0315 25.447C29.6425 25.4391 29.2643 25.5081 29.0997 25.6171C28.9473 25.7181 27.9483 27.3343 26.8797 29.2087C25.7281 31.2286 24.7988 32.7186 24.598 32.8669C24.3956 33.0165 23.9939 33.1382 23.5982 33.1699C23.055 33.2135 22.8587 33.1704 22.4994 32.9286C22.2588 32.7668 21.9636 32.439 21.8435 32.2002C21.3739 31.2673 21.4238 31.1392 24.084 26.4532L26.5433 22.1206L28.7397 21.4855C29.9476 21.1362 31.9765 20.5461 33.2483 20.1742L35.5605 19.4982L39.8726 19.4882L44.1846 19.4783L49.4965 26.2199ZM22.6726 20.1793C23.5742 20.428 24.3309 20.6484 24.3546 20.6691C24.3781 20.6899 23.2682 22.6961 21.888 25.1272C19.193 29.8746 18.8986 30.5613 19.0549 31.737C19.2807 33.4368 20.3622 34.8835 21.8335 35.454C22.831 35.8409 24.1661 35.8415 25.1612 35.4555C26.3946 34.9771 26.964 34.2807 28.843 30.953L30.4994 28.0191L33.3189 28.2165L36.1383 28.4139L43.6304 35.891C47.751 40.0034 51.2065 43.545 51.3093 43.7612C51.7978 44.7882 51.3783 45.9205 50.3526 46.3449C49.1931 46.8244 49.3326 46.9264 44.304 41.924L39.7988 37.4424H39.2636C38.5101 37.4424 37.9978 37.9522 37.9978 38.7024V39.2331L42.364 43.6085C44.7655 46.015 46.7903 48.1421 46.8636 48.3352C47.2625 49.3868 46.8423 50.4267 45.853 50.836C44.7319 51.2997 44.6898 51.2724 41.1849 47.796C39.1106 45.7386 37.9403 44.6671 37.7033 44.6082C36.8869 44.4056 36.0007 45.3119 36.2008 46.1449C36.2537 46.3647 37.3471 47.56 39.259 49.4878C40.8957 51.1383 42.2939 52.6436 42.366 52.8331C42.8125 54.0051 42.1997 55.2105 41.0287 55.4636C40.1869 55.6456 39.906 55.4705 37.9353 53.5356C35.9035 51.5408 35.5921 51.3555 34.8843 51.7209C34.3896 51.9761 34.075 52.5782 34.1753 53.0781C34.2294 53.3487 34.7578 53.9721 35.9962 55.2266C36.9557 56.1987 37.7985 57.1458 37.8693 57.3313C38.6161 59.2918 36.4623 60.8069 34.827 59.4716L34.4682 59.1788L34.6776 58.5497C34.9036 57.8706 34.9646 56.7316 34.8123 56.0306C34.5046 54.6128 33.1155 53.1775 31.6859 52.8003L31.186 52.6683L31.182 51.6361C31.1787 50.7719 31.1201 50.4772 30.8221 49.8261C30.1933 48.4522 28.8772 47.4823 27.4411 47.3343L26.7772 47.2659L26.7241 46.627C26.612 45.2781 25.6299 43.8839 24.3175 43.2097C23.8103 42.9492 23.46 42.8751 22.5293 42.8313C21.4011 42.7783 21.3698 42.7686 21.2928 42.4487C21.142 41.8227 20.6066 40.9109 20.0825 40.3878C19.442 39.7484 18.6476 39.3491 17.6463 39.1633C16.7136 38.9902 15.5029 39.2472 14.5894 39.8123L13.9912 40.1823L11.6139 36.9934C10.3064 35.2395 9.25392 33.758 9.27504 33.7014C9.38928 33.3938 20.715 19.7392 20.8603 19.7338C20.9556 19.7302 21.7711 19.9307 22.6726 20.1793ZM17.8273 41.8864C18.6439 42.2733 19.0379 43.242 18.7434 44.1397C18.5742 44.656 16.9319 46.4459 16.35 46.7482C15.9003 46.9819 15.0742 46.9704 14.5524 46.7233C13.7143 46.3263 13.3375 45.0859 13.7933 44.2241C14.0455 43.7471 15.8563 41.9769 16.2501 41.8224C16.725 41.6359 17.3522 41.6615 17.8273 41.8864ZM23.2023 45.5588C23.5885 45.7454 23.8048 45.9613 23.9917 46.3468C24.5369 47.4708 24.2675 48.0026 22.0454 50.1874C20.1918 52.0102 19.9184 52.1681 18.9354 51.984C18.3627 51.8768 17.6619 51.1773 17.5545 50.6057C17.3722 49.6354 17.5292 49.3651 19.3536 47.5078C21.54 45.282 22.0719 45.0126 23.2023 45.5588ZM27.3949 49.9214C28.3868 50.1964 28.9641 51.4028 28.5648 52.3657C28.3476 52.8891 25.3101 56.0411 24.7242 56.3511C24.5384 56.4493 24.1447 56.5294 23.8493 56.5291C22.5271 56.528 21.6559 55.2201 22.1307 53.9491C22.3199 53.4424 25.4605 50.3128 26.0615 50.032C26.642 49.7609 26.7756 49.7498 27.3949 49.9214ZM31.5179 55.5007C32.2076 55.9071 32.5412 56.9382 32.2419 57.7379C32.0494 58.2521 30.022 60.2452 29.5248 60.409C28.7091 60.6777 27.693 60.2604 27.2958 59.4935C27.1579 59.2274 27.1137 58.9005 27.1524 58.4344C27.2073 57.7737 27.2321 57.7363 28.3848 56.5797C29.0516 55.9105 29.7235 55.3501 29.9361 55.2857C30.3952 55.1466 31.0736 55.2388 31.5179 55.5007Z" fill="white"/>
</svg>
