<svg width="56" height="67" viewBox="0 0 56 67" fill="none" xmlns="http://www.w3.org/2000/svg">
<path fill-rule="evenodd" clip-rule="evenodd" d="M25.8468 0.183403C25.3239 0.411193 24.784 1.06417 24.6147 1.67327C24.5403 1.94114 24.4792 2.94138 24.4788 3.89603L24.478 5.63163H23.5569C22.0919 5.63163 21.1265 6.1755 20.4776 7.36671C20.1667 7.93704 20.0931 8.25128 20.0474 9.20108C20.0093 9.99448 19.9425 10.3472 19.8302 10.3472C19.5486 10.3472 18.4534 11.405 18.1523 11.9678C17.8798 12.4772 17.8592 12.7149 17.7975 16.0699L17.7321 19.6312L10.0037 25.4188C5.7531 28.602 1.99267 31.4792 1.64712 31.8127C0.888561 32.5446 0.472278 33.2266 0.188949 34.2009C-6.8441e-05 34.8511 -0.0194548 36.0072 0.0125065 44.6784L0.0485287 54.425L0.491272 55.342C0.895766 56.1796 1.36523 56.691 5.92732 61.2629C10.273 65.6179 11.0225 66.3145 11.7066 66.6335L12.4925 67H27.8837H43.2749L44.0608 66.6335C44.7449 66.3145 45.4944 65.6179 49.8401 61.2629C54.4022 56.691 54.8716 56.1796 55.2761 55.342L55.7189 54.425L55.7549 44.6784C55.7869 36.0297 55.7671 34.8491 55.5795 34.1993C55.318 33.2928 54.9835 32.7165 54.2906 31.9784C53.9955 31.664 50.2173 28.7508 45.8947 25.5045L38.0354 19.6023L37.9699 16.0555C37.9082 12.7154 37.8875 12.477 37.6151 11.9678C37.314 11.405 36.2188 10.3472 35.9372 10.3472C35.8249 10.3472 35.7581 9.99448 35.72 9.20108C35.6743 8.25128 35.6007 7.93704 35.2898 7.36671C34.6409 6.1755 33.6755 5.63163 32.2105 5.63163H31.2894L31.2886 3.89603C31.2882 2.94138 31.2271 1.94114 31.1527 1.67327C30.9792 1.04885 30.4368 0.40556 29.8916 0.17777C29.3172 -0.0622015 26.4014 -0.0581408 25.8468 0.183403ZM28.9316 3.92877V5.63163H27.8837H26.8358V3.92877V2.22592H27.8837H28.9316V3.92877ZM33.0793 8.17112C33.3985 8.4458 33.4433 8.57731 33.4468 9.25177L33.4507 10.0198H27.8837H22.3167L22.3206 9.25177C22.3241 8.57731 22.3689 8.4458 22.6882 8.17112L23.0518 7.85844H27.8837H32.7156L33.0793 8.17112ZM35.31 12.628L35.6775 12.944L35.7167 16.3054L35.7557 19.6668L34.3447 21.5565L32.9337 23.4461H27.8837H22.8337L21.4227 21.5565L20.0117 19.6668L20.0507 16.3054L20.0899 12.944L20.4574 12.628L20.825 12.3121H27.8837H34.9424L35.31 12.628ZM26.5074 14.8468C23.8914 16.065 23.8919 19.6902 26.5083 20.9111C28.2107 21.7056 30.4451 20.7837 31.0379 19.0424C31.2653 18.3744 31.2455 17.2109 30.9969 16.6251C30.4795 15.4063 29.1873 14.5415 27.8837 14.5415C27.4039 14.5415 26.9441 14.6435 26.5074 14.8468ZM28.61 17.0873C29.2878 17.7649 28.8197 18.9925 27.8837 18.9925C27.3132 18.9925 26.8358 18.4852 26.8358 17.8791C26.8358 17.273 27.3132 16.7657 27.8837 16.7657C28.1389 16.7657 28.4074 16.8845 28.61 17.0873ZM19.3694 22.5571C19.6936 23.0005 20.1231 23.5842 20.3238 23.8543L20.6889 24.3452L14.0363 29.0884C10.3775 31.6971 7.15953 34.0442 6.88537 34.3041C6.61121 34.5641 6.1986 35.1585 5.96845 35.6251L5.55007 36.4735L5.50946 43.8119C5.46689 51.4906 5.50553 52.183 6.03447 53.2429C6.19506 53.5648 7.93695 55.4084 10.5084 57.9779C14.2476 61.7143 14.7916 62.2096 15.3648 62.3987C15.9185 62.5815 16.7714 62.6119 21.3576 62.6119H26.7048V63.7253V64.8387H20.0202C14.3083 64.8387 13.2647 64.8095 12.8485 64.6375C12.5197 64.5018 10.8145 62.8953 7.59965 59.6926C3.91402 56.021 2.76721 54.801 2.52514 54.2941L2.21247 53.6391V44.3389V35.0387L2.52121 34.3837C2.6911 34.0235 2.9705 33.5998 3.14223 33.442C3.53965 33.0768 18.6266 21.7496 18.7145 21.7504C18.7505 21.7506 19.0452 22.1137 19.3694 22.5571ZM44.6885 27.4255C48.8522 30.5488 52.4114 33.2446 52.5981 33.4164C52.7846 33.5882 53.0763 34.0235 53.2462 34.3837L53.5549 35.0387V44.3389V53.6391L53.2423 54.2941C53.0002 54.801 51.8534 56.021 48.1677 59.6926C44.9529 62.8953 43.2477 64.5018 42.9189 64.6375C42.5027 64.8095 41.4591 64.8387 35.7472 64.8387H29.0626V63.7253V62.6119H34.4098C38.9888 62.6119 39.8498 62.5813 40.4026 62.3994C40.9768 62.2104 41.5197 61.7152 45.3214 57.913C49.2441 53.9896 49.6202 53.5747 49.906 52.8532L50.2173 52.0672V44.2706V36.474L49.799 35.6254C49.5688 35.1587 49.1562 34.5641 48.882 34.3041C48.6079 34.0442 45.3899 31.6971 41.7311 29.0884L35.0785 24.3452L35.4436 23.8543C35.6443 23.5842 36.0738 23.0005 36.398 22.5571C36.7222 22.1137 37.0169 21.75 37.0529 21.7489C37.089 21.7477 40.5251 24.3023 44.6885 27.4255ZM40.2517 30.8143C46.3528 35.1756 47.4856 36.0351 47.7173 36.4795C47.9848 36.9925 47.9905 37.1579 47.9905 44.3389V51.6743L47.6405 52.2637C47.1779 53.0431 39.9698 60.2085 39.5417 60.3146C39.3616 60.3592 38.5659 60.3786 37.7734 60.3577L36.3325 60.3196L37.3068 59.6646C40.8469 57.2851 43.4375 53.3743 44.3353 49.0545C44.6728 47.4306 44.6777 44.1336 44.345 42.5705C43.0645 36.5564 38.9134 31.8352 33.2376 29.9378C31.3998 29.3235 29.8745 29.0787 27.8837 29.0787C23.2544 29.0787 19.1432 30.808 15.8825 34.1266C13.6458 36.4032 12.1258 39.2798 11.4211 42.5705C11.0883 44.1246 11.0933 47.5612 11.4307 49.12C11.9459 51.5006 12.9388 53.7311 14.3648 55.7116C15.2662 56.9636 17.13 58.7721 18.4387 59.6646L19.399 60.3196L17.9761 60.3577C17.1934 60.3786 16.4058 60.3592 16.2257 60.3146C15.7976 60.2085 8.58954 53.0431 8.12688 52.2637L7.77688 51.6743V44.2519V36.8296L8.16985 36.2911C8.44925 35.9083 10.6072 34.2973 15.6362 30.7169L22.7096 25.6813L27.8844 25.6771L33.0591 25.673L40.2517 30.8143ZM30.831 31.6159C33.8541 32.2796 36.2561 33.6332 38.4076 35.8851C43.0232 40.7161 43.7015 48.1199 40.042 53.7205C34.9827 61.4632 24.174 62.6013 17.6508 56.0781C12.7606 51.1879 11.9805 43.6947 15.7541 37.8612C16.5437 36.6407 18.3579 34.7684 19.5418 33.9522C21.2444 32.7786 23.3405 31.8979 25.1984 31.5758C25.6307 31.5008 26.1317 31.4134 26.3118 31.3816C26.9666 31.2655 29.9371 31.4196 30.831 31.6159ZM25.3949 33.7778C17.958 35.4041 13.7798 42.9399 16.3605 50.0719C17.5054 53.2361 20.1843 55.9824 23.3436 57.2311C29.4964 59.6629 36.3076 56.9229 39.0923 50.8957C40.9345 46.9086 40.3594 41.8994 37.658 38.4019C35.296 35.3441 32.0409 33.6947 28.1457 33.5817C26.8957 33.5454 26.245 33.5918 25.3949 33.7778ZM26.0125 38.223C23.4923 40.7561 23.3744 40.9273 23.7134 41.564C23.9433 41.9955 24.2334 42.1688 24.7334 42.1734C25.1493 42.1772 25.4208 41.9432 28.1391 39.2391L31.0929 36.3005L31.8789 36.6345C32.6882 36.9785 34.0402 37.8126 34.0402 37.9681C34.0402 38.0163 33.3562 38.7326 32.5202 39.5599C30.5806 41.4793 30.3822 41.9049 31.0697 42.6688C31.2592 42.8793 31.482 42.9635 31.8487 42.9635C32.3305 42.9635 32.4681 42.8598 34.0615 41.2952L35.7607 39.6268L36.0189 39.9526C36.3916 40.4228 37.3149 42.2618 37.3149 42.534C37.3149 42.662 35.6807 44.4041 33.6566 46.4339C31.6445 48.4516 29.9821 50.2203 29.9624 50.3644C29.8523 51.1658 30.5383 51.8543 31.2708 51.6776C31.4851 51.6259 32.8317 50.3877 34.808 48.425L37.9992 45.2558L37.9171 46.3231C37.5815 50.6851 34.7292 54.3076 30.7201 55.4633C29.8378 55.7176 27.7976 55.9746 27.6052 55.8557C27.5336 55.8114 27.8026 55.4316 28.2033 55.0116C28.6039 54.5917 28.9384 54.1405 28.9467 54.009C29 53.1656 28.6028 52.6567 27.8912 52.6567C27.4691 52.6567 27.2852 52.7924 26.1153 53.9666C25.3977 54.687 24.7108 55.2765 24.5889 55.2765C24.3179 55.2765 22.4368 54.3159 21.9999 53.9545L21.6833 53.6926L25.6886 49.6707C28.3836 46.9644 29.7101 45.5416 29.7436 45.3213C29.8698 44.492 29.1711 43.7614 28.4263 43.944C28.2092 43.9971 26.5759 45.5278 24.0468 48.048L20.0135 52.0672L19.7535 51.7398C19.6104 51.5597 19.2308 50.883 18.9098 50.236L18.3261 49.0596L20.485 46.887C22.3532 45.0072 22.6441 44.6592 22.6441 44.3047C22.6441 43.6908 22.1405 43.1731 21.5432 43.1731C21.105 43.1731 20.9271 43.3088 19.5003 44.732C18.6407 45.5893 17.8953 46.2486 17.8438 46.1971C17.6749 46.0283 18.0268 43.6967 18.382 42.6311C19.3178 39.8234 21.7001 37.3649 24.4138 36.4065C25.4049 36.0563 26.8223 35.7862 27.7481 35.7709L28.4641 35.7591L26.0125 38.223Z" fill="black"/>
</svg>
