<svg width="56" height="57" viewBox="0 0 56 57" fill="none" xmlns="http://www.w3.org/2000/svg">
<g clip-path="url(#clip0_55_6547)">
<path d="M8.28638 16.729H20.8749C21.3279 16.729 21.6952 16.3617 21.6952 15.9087C21.6952 15.4557 21.3279 15.0884 20.8749 15.0884H8.28638C7.83335 15.0884 7.46606 15.4557 7.46606 15.9087C7.46606 16.3617 7.83335 16.729 8.28638 16.729Z" fill="#B38339"/>
<path d="M8.28638 34.7759C7.83335 34.7759 7.46606 35.1432 7.46606 35.5962C7.46606 36.0492 7.83335 36.4165 8.28638 36.4165H21.9686C22.4216 36.4165 22.7889 36.0492 22.7889 35.5962C22.7889 35.1432 22.4216 34.7759 21.9686 34.7759H8.28638Z" fill="#B38339"/>
<path d="M32.8413 23.2915C33.2944 23.2915 33.6616 22.9242 33.6616 22.4712C33.6616 22.0182 33.2944 21.6509 32.8413 21.6509H23.8438C23.3907 21.6509 23.0234 22.0182 23.0234 22.4712C23.0234 22.9242 23.3907 23.2915 23.8438 23.2915H32.8413Z" fill="#B38339"/>
<path d="M8.06519 23.2915H20.0157C20.4687 23.2915 20.836 22.9242 20.836 22.4712C20.836 22.0182 20.4687 21.6509 20.0157 21.6509H8.06519C7.61215 21.6509 7.24487 22.0182 7.24487 22.4712C7.24487 22.9242 7.61215 23.2915 8.06519 23.2915Z" fill="#B38339"/>
<path d="M8.06519 29.854H27.311C27.764 29.854 28.1313 29.4867 28.1313 29.0337C28.1313 28.5807 27.764 28.2134 27.311 28.2134H8.06519C7.61216 28.2134 7.24487 28.5807 7.24487 29.0337C7.24487 29.4867 7.61216 29.854 8.06519 29.854Z" fill="#B38339"/>
<path d="M8.06519 42.979H24.0297C24.4828 42.979 24.8501 42.6117 24.8501 42.1587C24.8501 41.7057 24.4828 41.3384 24.0297 41.3384H8.06519C7.61216 41.3384 7.24487 41.7057 7.24487 42.1587C7.24487 42.6117 7.61216 42.979 8.06519 42.979Z" fill="#B38339"/>
<path d="M55.9915 47.7057C55.9371 46.9477 55.5893 45.8319 54.2419 44.8173L47.1111 39.18L48.7324 37.5596C49.0436 37.7084 49.3928 37.7895 49.7609 37.7896H49.7619C50.5402 37.7896 51.3319 37.4424 51.934 36.8372C51.9358 36.8353 51.9377 36.8333 51.9396 36.8314C53.0621 35.698 53.1931 33.9898 52.2303 33.02L43.8748 24.6202C43.1281 23.8446 41.8498 23.7875 40.906 24.2986V17.1783C40.906 16.0831 40.4753 15.0532 39.6932 14.2786L27.1063 1.81183C26.3247 1.03767 25.2853 0.611328 24.1795 0.611328H5.24464C2.35277 0.611328 0 2.9409 0 5.80423V8.8454C0 9.29843 0.367281 9.66571 0.820312 9.66571C1.27334 9.66571 1.64062 9.29843 1.64062 8.8454V5.80423C1.64062 3.84543 3.25741 2.25184 5.24464 2.25184L24.7365 2.31703V12.8591C24.7365 14.9451 26.4462 16.6422 28.5479 16.6422H39.2043L39.2656 26.2184C39.0512 26.8871 39.0811 27.5863 39.3661 28.1649L31.9588 35.5684C30.9816 35.0955 29.666 35.3489 28.7367 36.2737C27.6877 37.2822 27.3883 39.0493 28.4355 40.0922L36.815 48.47C37.4484 49.1088 38.4186 49.2547 39.2656 48.9943C39.3352 50.0846 39.0259 51.1758 38.2199 51.951C37.5303 52.6357 36.6133 53.013 35.6321 53.0018L33.9523 52.9897C33.5712 52.233 32.8803 51.6582 32.0468 51.4335V50.739C32.0468 49.0805 30.6975 47.7312 29.039 47.7312H18.9386C17.28 47.7312 15.9308 49.0805 15.9308 50.739V51.4335C15.1432 51.6459 14.4829 52.1706 14.091 52.8664H5.24464C3.25741 52.8664 1.64062 51.2728 1.64062 49.314V12.6707C1.64062 12.2176 1.27334 11.8504 0.820312 11.8504C0.367281 11.8504 0 12.2176 0 12.6707V49.314C0 52.1774 2.35277 54.507 5.24464 54.507H13.7053V55.2343C13.7053 55.9883 14.3186 56.6015 15.0725 56.6015H18.8125C19.2655 56.6015 19.6328 56.2342 19.6328 55.7812C19.6328 55.3282 19.2655 54.9609 18.8125 54.9609H15.346V54.3375C15.346 53.5835 15.9592 52.9703 16.7132 52.9703H31.2646C32.0185 52.9703 32.6318 53.5835 32.6318 54.3375V54.9609H22.6406C22.1876 54.9609 21.8203 55.3282 21.8203 55.7812C21.8203 56.2342 22.1876 56.6015 22.6406 56.6015H32.9052C33.6592 56.6015 34.2724 55.9883 34.2724 55.2343V54.6327C34.3206 54.6329 35.6121 54.6426 35.6596 54.6424C37.0645 54.6424 38.3831 54.1009 39.3759 53.1151C40.3628 52.1353 40.9062 50.8337 40.9062 49.4504V47.8561C41.5606 47.0217 41.7973 45.8875 41.3395 44.9487L42.9144 43.3746L48.5404 50.5275C50.5577 52.979 52.611 52.7324 54.6257 50.9121C55.5856 49.95 56.0707 48.8112 55.9915 47.7057V47.7057ZM18.9387 49.3718H29.0391C29.793 49.3718 30.4062 49.9851 30.4062 50.739V51.3297H17.5715V50.739C17.5715 49.9851 18.1848 49.3718 18.9387 49.3718ZM41.2292 26.0723C41.6582 25.6773 42.2286 25.3985 42.7113 25.7766L51.0667 34.1764C51.386 34.498 51.248 35.2004 50.7714 35.6795C50.3302 36.0952 49.6814 36.3849 49.2227 35.9094L46.1278 32.7982C45.8083 32.477 45.2889 32.4756 44.9678 32.7951C44.6465 33.1146 44.6452 33.634 44.9647 33.9551L47.4841 36.4879C45.3125 38.6561 42.4364 41.5326 40.2655 43.7028L33.2044 36.6431L40.4424 29.4089L42.2431 31.2192C42.5626 31.5405 43.082 31.5419 43.4032 31.2223C43.7244 30.9028 43.7257 30.3834 43.4062 30.0623L41.0242 27.6676C40.5886 27.3247 40.7164 26.603 41.2292 26.0723V26.0723ZM26.3771 12.8592V3.39864L38.092 15.0017H28.5479C27.3509 15.0017 26.3771 14.0406 26.3771 12.8592V12.8592ZM37.9745 47.3091L29.595 38.9312C29.2184 38.4477 29.4938 37.875 29.8863 37.4442C30.4072 36.9335 31.1267 36.7991 31.4641 37.2228L39.7635 45.5205C40.1415 46.0054 39.8625 46.5826 39.4674 47.0124C38.9909 47.4887 38.2931 47.6272 37.9745 47.3091ZM53.4641 49.7537C52.222 50.9955 50.8784 50.9617 49.8362 49.5212L44.083 42.2068L45.9429 40.3479L53.2323 46.1106C54.6709 47.1565 54.7039 48.5082 53.4641 49.7537Z" fill="#B38339"/>
</g>
<defs>
<clipPath id="clip0_55_6547">
<rect width="56" height="56" fill="white" transform="translate(0 0.606445)"/>
</clipPath>
</defs>
</svg>
