<svg width="56" height="57" viewBox="0 0 56 57" fill="none" xmlns="http://www.w3.org/2000/svg">
<g clip-path="url(#clip0_55_6570)">
<path d="M13.5328 25.3662H9.7959C9.16262 25.3662 8.64746 25.8814 8.64746 26.5146V30.2516C8.64746 30.8848 9.16262 31.4 9.7959 31.4H13.5328C14.1661 31.4 14.6812 30.8848 14.6812 30.2516V26.5146C14.6812 25.8815 14.1662 25.3662 13.5328 25.3662V25.3662ZM13.0406 29.7594H10.2881V27.0068H13.0406V29.7594Z" fill="#B38339"/>
<path d="M13.5328 33.897H9.7959C9.16262 33.897 8.64746 34.4121 8.64746 35.0454V38.7824C8.64746 39.4157 9.16262 39.9309 9.7959 39.9309H13.5328C14.1661 39.9309 14.6812 39.4157 14.6812 38.7824V35.0454C14.6812 34.4122 14.1662 33.897 13.5328 33.897V33.897ZM13.0406 38.2902H10.2881V35.5376H13.0406V38.2902Z" fill="#B38339"/>
<path d="M13.5328 42.4282H9.7959C9.16262 42.4282 8.64746 42.9434 8.64746 43.5767V47.3136C8.64746 47.9468 9.16262 48.462 9.7959 48.462H13.5328C14.1661 48.462 14.6812 47.9468 14.6812 47.3136V43.5767C14.6812 42.9434 14.1662 42.4282 13.5328 42.4282V42.4282ZM13.0406 46.8214H10.2881V44.0688H13.0406V46.8214Z" fill="#B38339"/>
<path d="M15.5964 16.2089C15.2209 15.9558 14.7108 16.0551 14.4577 16.4307L11.9351 20.1741L10.7881 18.6447C10.5163 18.2823 10.002 18.2088 9.63966 18.4806C9.2773 18.7524 9.2038 19.2667 9.4756 19.6291L11.3146 22.081C11.4698 22.288 11.7131 22.4092 11.9709 22.4092C11.9778 22.4092 11.9847 22.4091 11.9916 22.4089C12.257 22.4023 12.5028 22.2675 12.6511 22.0474L15.8183 17.3476C16.0714 16.9719 15.972 16.4621 15.5964 16.2089V16.2089Z" fill="#B38339"/>
<path d="M26.6859 9.68018C26.6859 9.22714 26.3188 8.85986 25.8656 8.85986H15.4446C14.9914 8.85986 14.6243 9.22714 14.6243 9.68018C14.6243 10.1332 14.9914 10.5005 15.4446 10.5005H25.8656C26.3188 10.5005 26.6859 10.1332 26.6859 9.68018Z" fill="#B38339"/>
<path d="M54.3318 23.3047C54.7849 23.3047 55.1521 22.9374 55.1521 22.4844V17.338C55.1521 16.7047 54.637 16.1895 54.0037 16.1895H40.4625V8.16412C40.4625 7.4102 39.8492 6.79694 39.0953 6.79694H31.3509C31.1367 6.32127 30.6591 5.98877 30.1046 5.98877H27.5548C26.7258 2.95547 23.9478 0.71875 20.6551 0.71875C17.3625 0.71875 14.5844 2.95547 13.7553 5.98877H11.2056C10.6509 5.98877 10.1734 6.32127 9.95925 6.79694H2.21484C1.46092 6.79694 0.847656 7.4102 0.847656 8.16412V55.3516C0.847656 56.1055 1.46092 56.7188 2.21484 56.7188H39.0953C39.8492 56.7188 40.4625 56.1055 40.4625 55.3516V49.3464H49.9194C50.2262 49.3464 50.5145 49.227 50.7315 49.0101L54.8159 44.9257C55.0327 44.7089 55.1521 44.4205 55.1521 44.1137V26.3125C55.1521 25.8595 54.7849 25.4922 54.3318 25.4922C53.8787 25.4922 53.5115 25.8595 53.5115 26.3125V43.4294H50.0552C49.6021 43.4294 49.2349 43.7966 49.2349 44.2497V47.7059H30.9804V17.8301H53.5115V22.4844C53.5115 22.9374 53.8787 23.3047 54.3318 23.3047V23.3047ZM50.8756 45.07H52.3514L50.8756 46.5458V45.07ZM38.8219 16.1895H37.3975V11.0104C37.3975 10.3771 36.8823 9.86195 36.2491 9.86195H31.4718V8.43756H38.8219V16.1895ZM20.6551 2.35938C23.0335 2.35938 25.0633 3.874 25.8347 5.98877H15.4755C16.2469 3.874 18.2767 2.35938 20.6551 2.35938ZM30.4882 16.1895C29.8549 16.1895 29.3397 16.7047 29.3397 17.338V18.0102H17.5548C17.1017 18.0102 16.7345 18.3775 16.7345 18.8305C16.7345 19.2835 17.1017 19.6508 17.5548 19.6508H29.3397V20.7687H17.5548C17.1017 20.7687 16.7345 21.136 16.7345 21.589C16.7345 22.0421 17.1017 22.4093 17.5548 22.4093H29.3397V26.5412H17.5548C17.1017 26.5412 16.7345 26.9085 16.7345 27.3615C16.7345 27.8145 17.1017 28.1818 17.5548 28.1818H29.3397V29.2998H17.5548C17.1017 29.2998 16.7345 29.667 16.7345 30.1201C16.7345 30.5731 17.1017 30.9404 17.5548 30.9404H29.3397V35.0721H17.5548C17.1017 35.0721 16.7345 35.4394 16.7345 35.8924C16.7345 36.3455 17.1017 36.7128 17.5548 36.7128H29.3397V37.8307H17.5548C17.1017 37.8307 16.7345 38.198 16.7345 38.651C16.7345 39.104 17.1017 39.4713 17.5548 39.4713H29.3397V43.6032H17.5548C17.1017 43.6032 16.7345 43.9704 16.7345 44.4235C16.7345 44.8765 17.1017 45.2438 17.5548 45.2438H29.3397V46.3617H17.5548C17.1017 46.3617 16.7345 46.729 16.7345 47.182C16.7345 47.635 17.1017 48.0023 17.5548 48.0023H29.3397V48.1982C29.3397 48.8315 29.8549 49.3467 30.4882 49.3467H35.7569V52.0133H13.8905C13.4374 52.0133 13.0702 52.3806 13.0702 52.8336C13.0702 53.2867 13.4374 53.654 13.8905 53.654H36.2491C36.8823 53.654 37.3975 53.1388 37.3975 52.5055V49.3467H38.8219V55.0781H2.48828V8.43756H9.83828V9.86195H5.061C4.42772 9.86195 3.91256 10.3771 3.91256 11.0104V52.5053C3.91256 53.1386 4.42772 53.6537 5.061 53.6537H10.0624C10.5155 53.6537 10.8827 53.2865 10.8827 52.8334C10.8827 52.3804 10.5155 52.0131 10.0624 52.0131H5.55319V11.5026H9.83828V12.0045C9.83828 12.7584 10.4515 13.3717 11.2055 13.3717H22.0936C22.5468 13.3717 22.9139 13.0044 22.9139 12.5514C22.9139 12.0983 22.5468 11.7311 22.0936 11.7311H11.4789V7.6295H29.8312V11.7311H25.9218C25.4686 11.7311 25.1014 12.0983 25.1014 12.5514C25.1014 13.0044 25.4686 13.3717 25.9218 13.3717H30.1046C30.8585 13.3717 31.4718 12.7584 31.4718 12.0045V11.5026H35.7569V16.1896H30.4882V16.1895Z" fill="#B38339"/>
<path d="M48.7539 33.8999H35.7383C35.2851 33.8999 34.918 34.2672 34.918 34.7202C34.918 35.1732 35.2851 35.5405 35.7383 35.5405H48.7539C49.207 35.5405 49.5742 35.1732 49.5742 34.7202C49.5742 34.2672 49.207 33.8999 48.7539 33.8999Z" fill="#B38339"/>
<path d="M48.7539 36.875H35.7383C35.2851 36.875 34.918 37.2423 34.918 37.6953C34.918 38.1483 35.2851 38.5156 35.7383 38.5156H48.7539C49.207 38.5156 49.5742 38.1483 49.5742 37.6953C49.5742 37.2423 49.207 36.875 48.7539 36.875Z" fill="#B38339"/>
<path d="M49.5742 40.6704C49.5742 40.2174 49.207 39.8501 48.7539 39.8501H35.7383C35.2851 39.8501 34.918 40.2174 34.918 40.6704C34.918 41.1234 35.2851 41.4907 35.7383 41.4907H48.7539C49.207 41.4907 49.5742 41.1236 49.5742 40.6704Z" fill="#B38339"/>
<path d="M35.7383 42.8252C35.2851 42.8252 34.918 43.1925 34.918 43.6455C34.918 44.0985 35.2851 44.4658 35.7383 44.4658H45.7789C46.232 44.4658 46.5992 44.0985 46.5992 43.6455C46.5992 43.1925 46.232 42.8252 45.7789 42.8252H35.7383Z" fill="#B38339"/>
<path d="M49.4897 29.7137L43.2187 19.722C43.0072 19.3851 42.6436 19.1841 42.2459 19.1841C41.8482 19.1841 41.4845 19.3852 41.2731 19.722L35.0021 29.7137C34.7801 30.0675 34.7676 30.5145 34.9698 30.8801C35.1721 31.2456 35.5571 31.4727 35.9748 31.4727H48.5168C48.9345 31.4727 49.3196 31.2456 49.5217 30.8801C49.7239 30.5146 49.7117 30.0675 49.4897 29.7137ZM36.8649 29.8321L42.2459 21.2584L47.6269 29.8321H36.8649Z" fill="#B38339"/>
<path d="M41.4258 24.0903V26.3668C41.4258 26.8198 41.793 27.1871 42.2461 27.1871C42.6992 27.1871 43.0664 26.8198 43.0664 26.3668V24.0903C43.0664 23.6373 42.6992 23.27 42.2461 23.27C41.793 23.27 41.4258 23.6373 41.4258 24.0903Z" fill="#B38339"/>
<path d="M42.2461 29.1899C42.6991 29.1899 43.0664 28.8227 43.0664 28.3696C43.0664 27.9166 42.6991 27.5493 42.2461 27.5493C41.793 27.5493 41.4258 27.9166 41.4258 28.3696C41.4258 28.8227 41.793 29.1899 42.2461 29.1899Z" fill="#B38339"/>
</g>
<defs>
<clipPath id="clip0_55_6570">
<rect width="56" height="56" fill="white" transform="translate(0 0.71875)"/>
</clipPath>
</defs>
</svg>
