<svg width="56" height="56" viewBox="0 0 56 56" fill="none" xmlns="http://www.w3.org/2000/svg">
<path d="M28 10.1841C26.0794 10.1841 24.5168 11.7466 24.5168 13.6672C24.5168 15.5879 26.0794 17.1504 28 17.1504C29.9206 17.1504 31.4831 15.5879 31.4831 13.6672C31.4831 11.7466 29.9207 10.1841 28 10.1841V10.1841ZM28 15.5098C26.984 15.5098 26.1575 14.6832 26.1575 13.6672C26.1575 12.6513 26.984 11.8247 28 11.8247C29.016 11.8247 29.8425 12.6513 29.8425 13.6672C29.8425 14.6832 29.016 15.5098 28 15.5098V15.5098Z" fill="#B38339"/>
<path d="M55.9682 45.2608C55.8532 44.4653 55.4352 43.7622 54.791 43.2809C54.4916 43.0574 54.1599 42.8951 53.811 42.796V35.6351C53.811 35.397 53.7076 35.1707 53.5275 35.0148C53.3475 34.859 53.1087 34.7892 52.8731 34.8232L39.7641 36.7218C39.6158 35.1571 38.2947 33.9288 36.6919 33.9288H31.2823V19.6855C33.1828 18.645 34.5402 16.7315 34.809 14.4877H41.4437L37.8818 22.4038H35.8723C34.4781 22.4038 33.3438 23.538 33.3438 24.9321C33.3438 26.1891 34.266 27.2344 35.4694 27.4279C36.5229 30.4972 39.4191 32.5925 42.7126 32.5925C46.0066 32.5925 48.9031 30.4971 49.9567 27.4277C51.1595 27.2338 52.0812 26.1887 52.0812 24.932C52.0812 23.5379 50.947 22.4036 49.5529 22.4036H47.543L43.9812 14.4876H44.9726C47.0894 14.4876 48.8116 12.7654 48.8116 10.6486C48.8116 9.62405 48.4128 8.66002 47.6871 7.93301C46.9611 7.20861 45.9972 6.80961 44.9726 6.80961H41.7822C41.3292 6.80961 40.9619 7.1769 40.9619 7.62993C40.9619 8.08296 41.3291 8.45024 41.7822 8.45024H44.9726C45.5595 8.45024 46.1121 8.67894 46.527 9.09315C46.9424 9.50932 47.1711 10.0617 47.1711 10.6487C47.1711 11.8609 46.185 12.8471 44.9727 12.8471H34.0376C33.5845 12.8471 33.2173 13.2144 33.2173 13.6674C33.2173 16.5436 30.8769 18.8834 28.0002 18.8834C25.1235 18.8834 22.7829 16.5437 22.7829 13.6675C22.7829 13.2145 22.4157 12.8472 21.9626 12.8472H11.0275C10.4406 12.8472 9.88804 12.6185 9.47307 12.2043C9.05766 11.7881 8.82896 11.2358 8.82896 10.6488C8.82896 9.43658 9.81508 8.45035 11.0274 8.45035H25.5342C25.5354 8.45035 25.5366 8.45057 25.538 8.45057H30.4619C30.4631 8.45057 30.4643 8.45035 30.4656 8.45035H38.5009C38.954 8.45035 39.3212 8.08307 39.3212 7.63004C39.3212 7.17701 38.954 6.80972 38.5009 6.80972H31.2822V3.72229C31.2822 1.91246 29.8098 0.439941 28 0.439941C26.1902 0.439941 24.7178 1.91235 24.7178 3.72229V6.80983H11.0275C8.91066 6.80983 7.18844 8.53205 7.18844 10.6488C7.18844 11.6733 7.58733 12.6373 8.31303 13.3644C9.03896 14.0889 10.003 14.4877 11.0275 14.4877H12.0186L8.45697 22.4034H6.44721C5.05311 22.4034 3.91889 23.5377 3.91889 24.9317C3.91889 26.1888 4.84114 27.2341 6.04449 27.4276C7.09799 30.4969 9.99402 32.5922 13.2875 32.5922C16.5817 32.5922 19.4781 30.4967 20.5316 27.4274C21.7346 27.2334 22.6563 26.1884 22.6563 24.9316C22.6563 23.5375 21.522 22.4033 20.1278 22.4033H18.1182L14.5564 14.4876H21.1911C21.4598 16.7314 22.8171 18.6449 24.7178 19.6854V33.9288H19.3082C17.7053 33.9288 16.3843 35.1571 16.2359 36.7218L3.12702 34.8233C2.89164 34.7893 2.65255 34.8591 2.47263 35.0149C2.2926 35.1708 2.18913 35.3971 2.18913 35.6352V42.7959C1.83989 42.895 1.50805 43.0574 1.20858 43.281C0.564581 43.7622 0.146768 44.4653 0.0319246 45.26C-0.0837942 46.0552 0.117346 46.8479 0.598378 47.492C1.0793 48.1363 1.78247 48.5545 2.57774 48.6693L19.7606 51.1577C19.7659 51.1586 19.7712 51.1592 19.7764 51.16L20.8924 51.3216C22.4249 53.7381 25.1115 55.2226 27.9999 55.2226C30.8883 55.2226 33.5748 53.7381 35.1074 51.3216L38.2823 50.8622V53.2734C38.2823 54.0248 38.7021 54.6958 39.3778 55.0243C39.6514 55.1573 39.9431 55.2227 40.2325 55.2227C40.6583 55.2227 41.0794 55.0813 41.431 54.8052L42.8375 53.7016C42.9493 53.6141 43.1053 53.6141 43.2163 53.701L44.6239 54.8053C45.2153 55.269 46.002 55.3528 46.6776 55.024C47.3529 54.6953 47.7724 54.0245 47.7724 53.2733V49.4872L53.4218 48.6692C54.2174 48.5542 54.9206 48.1361 55.4015 47.4918C55.8826 46.8479 56.0838 46.0552 55.9682 45.2608V45.2608ZM42.7125 30.952C40.3322 30.952 38.2167 29.5595 37.2481 27.4604H48.1778C47.209 29.5595 45.0931 30.952 42.7125 30.952V30.952ZM50.4406 24.9322C50.4406 25.4216 50.0423 25.8199 49.5529 25.8199H35.8721C35.3827 25.8199 34.9843 25.4216 34.9843 24.9322C34.9843 24.4427 35.3827 24.0445 35.8721 24.0445H49.5529C50.0423 24.0444 50.4406 24.4426 50.4406 24.9322ZM39.6808 22.4038L42.7123 15.6663L45.7439 22.4038H39.6808ZM26.3584 3.72229C26.3584 2.8171 27.0948 2.08057 28.0001 2.08057C28.9054 2.08057 29.6418 2.81699 29.6418 3.72229V6.80983H26.3584V3.72229ZM13.2875 30.9516C10.9073 30.9516 8.79188 29.5592 7.82325 27.4601H18.7529C17.7841 29.5592 15.6684 30.9516 13.2875 30.9516ZM21.0157 24.9319C21.0157 25.4213 20.6174 25.8195 20.1279 25.8195H6.44721C5.95764 25.8195 5.55952 25.4213 5.55952 24.9319C5.55952 24.4424 5.95775 24.0442 6.44721 24.0442H20.1279C20.6175 24.0441 21.0157 24.4423 21.0157 24.9319ZM10.256 22.4034L13.2875 15.6659L16.3191 22.4034H10.256ZM28 20.5241C28.5658 20.5241 29.1154 20.4544 29.6417 20.3245V33.9289H26.3584V20.3245C26.8847 20.4543 27.4343 20.5241 28 20.5241ZM52.1703 42.7698L47.7726 43.4067V41.8937C47.7726 41.6556 47.6692 41.4293 47.4891 41.2735C47.3092 41.1176 47.0704 41.0478 46.8347 41.0818L38.9853 42.2188C38.5819 42.2772 38.2826 42.623 38.2826 43.0306V44.7816L32.6956 45.5908C31.6484 45.7417 30.7467 46.4447 30.3414 47.4282L30.225 47.7133C29.9616 48.3548 29.4464 48.8345 28.8204 49.0605V45.6042C28.8204 44.0425 29.3824 42.5312 30.4027 41.3486C31.4228 40.1664 32.8348 39.3893 34.3788 39.1603C34.3892 39.1588 34.3995 39.1571 34.4099 39.1551L52.1704 36.5827V42.7698H52.1703ZM19.3082 35.5696H36.6919C37.4698 35.5696 38.1044 36.1874 38.135 36.958L34.172 37.532C34.1563 37.534 34.137 37.5369 34.1148 37.5412C32.1909 37.8321 30.4323 38.8031 29.1606 40.2771C28.6951 40.8165 28.3069 41.4111 28.0001 42.0429C27.6933 41.4111 27.305 40.8165 26.8396 40.2771C25.5679 38.8031 23.8092 37.8322 21.8854 37.5412C21.8632 37.5369 21.8438 37.534 21.8282 37.532L17.8652 36.958C17.8957 36.1874 18.5303 35.5696 19.3082 35.5696ZM34.4876 49.7539C34.2367 49.7902 34.0167 49.9405 33.8916 50.1608C32.6941 52.2712 30.4366 53.5822 28.0001 53.5822C25.5636 53.5822 23.3061 52.2712 22.1086 50.1608C21.9835 49.9405 21.7635 49.7902 21.5127 49.7539L2.81278 47.0457C2.45119 46.9936 2.13182 46.8035 1.91317 46.5107C1.69453 46.2179 1.6031 45.8576 1.65582 45.4953C1.7081 45.1336 1.89808 44.814 2.19088 44.5953C2.48378 44.3765 2.84472 44.2851 3.20588 44.3371L10.7603 45.4319C11.2074 45.4968 11.6246 45.1861 11.6898 44.7377C11.7547 44.2894 11.4439 43.8732 10.9956 43.8082L3.82986 42.7697V36.5827L21.5904 39.1551C21.6008 39.1571 21.6111 39.1588 21.6215 39.1603C23.1655 39.3893 24.5775 40.1664 25.5976 41.3486C26.6179 42.5312 27.1799 44.0424 27.1799 45.6042V49.0605C26.5541 48.8343 26.0388 48.3546 25.7755 47.7128L25.6578 47.4257C25.2536 46.4448 24.3519 45.7419 23.3054 45.591L14.2361 44.2775C13.7886 44.2126 13.3716 44.5233 13.3067 44.9718C13.2417 45.4201 13.5525 45.8363 14.001 45.9011L23.0708 47.2148C23.5467 47.2834 23.9567 47.6038 24.1404 48.0494L24.2574 48.3352C24.8829 49.8603 26.352 50.8456 28.0001 50.8456C29.6479 50.8456 31.1171 49.8607 31.7433 48.3349L31.8592 48.051C32.0436 47.6038 32.4536 47.2834 32.9302 47.2147L38.2827 46.4395V49.2047L34.4876 49.7539ZM46.132 53.2737C46.132 53.4405 46.0242 53.5179 45.9599 53.5492C45.8957 53.5805 45.7678 53.6176 45.6366 53.5147L44.2286 52.4099C43.8751 52.1332 43.4515 51.9948 43.0278 51.9948C42.6038 51.9948 42.1798 52.1334 41.8258 52.4105L40.4183 53.5148C40.2874 53.6175 40.1601 53.5803 40.0956 53.5491C40.0311 53.5178 39.9232 53.4403 39.9232 53.2736V43.7406L46.1321 42.8413V53.2737H46.132ZM54.087 46.5106C53.8684 46.8035 53.5489 46.9935 53.1871 47.0457L47.7726 47.8297V45.0644L52.7942 44.3372C53.1561 44.2849 53.5162 44.3767 53.8092 44.5954C54.1021 44.8142 54.2922 45.1339 54.3445 45.4961C54.3971 45.8575 54.3057 46.2178 54.087 46.5106V46.5106Z" fill="#B38339"/>
</svg>
