<svg width="56" height="57" viewBox="0 0 56 57" fill="none" xmlns="http://www.w3.org/2000/svg">
<path d="M23.5711 27.4674H21.1202V23.8857C21.1202 22.0719 19.9013 20.4603 18.1561 19.9663L15.3293 19.1663V17.2199C16.1922 16.0819 16.7248 14.529 16.7248 13.0996C16.7248 10.5791 14.9645 8.81885 12.444 8.81885C12.3862 8.81885 12.3285 8.81972 12.2713 8.82158C11.8185 8.83668 11.4637 9.21588 11.4787 9.66869C11.4937 10.1216 11.8716 10.473 12.3258 10.4613C12.365 10.46 12.4044 10.4594 12.444 10.4594C13.7203 10.4594 15.0841 11.1529 15.0841 13.0995C15.0841 15.0787 13.7024 17.2519 12.444 17.2519C11.1857 17.2519 9.80394 15.0787 9.80394 13.0995C9.80394 12.6811 9.87 12.2996 10.0002 11.9655C10.1647 11.5434 9.95586 11.0677 9.53367 10.9032C9.11181 10.7389 8.63603 10.9476 8.47153 11.3697C8.267 11.8946 8.16331 12.4765 8.16331 13.0995C8.16331 14.561 8.72069 16.151 9.618 17.2952V19.1632L6.78125 19.9661C5.03606 20.4601 3.81719 22.0717 3.81719 23.8855V27.4674H1.36642C0.612938 27.4674 0 28.0807 0 28.8346V32.6627C0 33.4166 0.613266 34.0299 1.36719 34.0299H2.14222L3.9457 56.1902C3.98038 56.6161 4.33606 56.944 4.76328 56.944H20.1742C20.6014 56.944 20.9571 56.6161 20.9918 56.1902L22.7953 34.0299H23.5703C24.3242 34.0299 24.9375 33.4166 24.9375 32.6627V28.8346C24.9375 28.0807 24.3246 27.4674 23.5711 27.4674ZM17.3283 27.4674L17.327 26.0121C17.327 25.8633 17.448 25.7421 17.5969 25.7421H19.4795V27.4674H17.3283ZM13.6888 18.6078V19.8443C13.6888 20.5143 13.1438 21.0593 12.4738 21.0593C11.8037 21.0593 11.2587 20.5143 11.2587 19.8443V18.6341C11.6337 18.7993 12.0306 18.8927 12.444 18.8927C12.8793 18.8927 13.2966 18.7899 13.6888 18.6078V18.6078ZM7.22805 21.5451L9.78983 20.82C10.1894 21.9156 11.2416 22.7001 12.4737 22.7001C13.7048 22.7001 14.7564 21.9169 15.1566 20.8226L17.7093 21.5452C18.7516 21.8401 19.4795 22.8026 19.4795 23.8858V24.1017H17.5969C16.5434 24.1017 15.6863 24.9588 15.6863 26.013L15.6877 27.4676H9.24984L9.25116 26.0123C9.25116 24.9588 8.39409 24.1017 7.34059 24.1017H5.45792V23.8858C5.45792 22.8024 6.18581 21.8399 7.22805 21.5451ZM5.45792 25.7422H7.34048C7.48934 25.7422 7.61042 25.8633 7.61042 26.0114L7.60922 27.4674H5.45792V25.7422ZM23.2969 32.3893H17.9128C17.4598 32.3893 17.0925 32.7564 17.0925 33.2096C17.0925 33.6627 17.4598 34.0299 17.9128 34.0299H21.1493L19.4179 55.3033H5.51961L3.7882 34.0299H14.0847C14.5377 34.0299 14.905 33.6627 14.905 33.2096C14.905 32.7564 14.5377 32.3893 14.0847 32.3893H1.64062V29.108H23.2969V32.3893Z" fill="#B38339"/>
<path d="M54.6337 27.4674H52.1828V23.8857C52.1828 22.0719 50.9639 20.4603 49.2188 19.9663L46.392 19.1663V17.2199C47.2548 16.0819 47.7874 14.529 47.7874 13.0996C47.7874 10.5791 46.0271 8.81885 43.5066 8.81885C40.9863 8.81885 39.2259 10.5791 39.2259 13.0996C39.2259 14.5611 39.7833 16.1511 40.6806 17.2953V19.1633L37.8444 19.9661C37.736 19.9966 37.6269 20.0325 37.52 20.0727C37.0958 20.2317 36.8808 20.7045 37.04 21.1288C37.1634 21.4581 37.476 21.6612 37.8081 21.6612C37.9038 21.6612 38.0011 21.6444 38.096 21.6088C38.1602 21.5848 38.2255 21.5633 38.2905 21.545L40.747 20.8497C40.8994 21.9748 41.3155 23.0454 41.9754 23.988L42.7109 25.0389V27.4674H40.3122L40.3135 25.6846C40.3139 25.2314 39.9469 24.8639 39.4939 24.8636C39.4937 24.8636 39.4935 24.8636 39.4932 24.8636C39.0404 24.8636 38.6732 25.2305 38.6729 25.6833L38.6716 27.4674H36.5204V23.8857L36.5206 23.8494C36.5268 23.3963 36.1645 23.0241 35.7115 23.018C35.2617 23.0131 34.8863 23.3743 34.8801 23.8271L34.8798 27.4673H32.4289C31.6754 27.4673 31.0625 28.0806 31.0625 28.8345V32.6626C31.0625 33.4165 31.6758 34.0298 32.4297 34.0298H33.2047L34.0655 44.6062C34.1004 45.0352 34.4593 45.3601 34.8822 45.3601C34.9045 45.3601 34.927 45.3592 34.9497 45.3574C35.4012 45.3207 35.7375 44.9249 35.7008 44.4732L34.8508 34.0299H52.2119L50.4805 55.3033H36.5822L36.0136 48.3172C35.9769 47.8656 35.5807 47.5291 35.1295 47.5662C34.678 47.6029 34.3417 47.9987 34.3784 48.4503L35.0083 56.1903C35.043 56.6162 35.3987 56.9441 35.8259 56.9441H51.2368C51.664 56.9441 52.0197 56.6162 52.0544 56.1903L53.8579 34.0299H54.6329C55.3868 34.0299 56.0001 33.4166 56.0001 32.6627V28.8346C56.0001 28.0807 55.3872 27.4674 54.6337 27.4674V27.4674ZM40.976 14.0966C42.5927 13.4243 44.4208 13.4185 46.0413 14.0785C45.6962 15.7331 44.5586 17.2521 43.5066 17.2521C42.4585 17.2521 41.3256 15.7441 40.976 14.0966V14.0966ZM43.5066 10.4596C44.6006 10.4596 45.7581 10.97 46.0667 12.3416C44.403 11.8088 42.6036 11.8142 40.9429 12.3584C41.2458 10.9742 42.4082 10.4596 43.5066 10.4596V10.4596ZM42.3213 18.6339C42.6963 18.7992 43.0932 18.8926 43.5066 18.8926C43.942 18.8926 44.3592 18.7898 44.7513 18.6077V19.8801C44.7513 21.019 44.4061 22.1141 43.7532 23.0472L43.5364 23.357L43.3196 23.0472C42.6665 22.1143 42.3213 21.019 42.3213 19.8801V18.6339ZM44.3517 25.0535L45.0973 23.9882C45.7565 23.0462 46.1725 21.9768 46.3252 20.8526L48.7721 21.5452C49.8143 21.8401 50.5422 22.8026 50.5422 23.8858V27.4674H48.391L48.3897 25.6833C48.3894 25.2303 48.0222 24.8636 47.5694 24.8636C47.5693 24.8636 47.5689 24.8636 47.5687 24.8636C47.1157 24.8639 46.7487 25.2314 46.7491 25.6846L46.7504 27.4674H44.3517V25.0535ZM54.3595 32.3893H32.7032V29.108H54.3595V32.3893Z" fill="#B38339"/>
<path d="M31.5547 16.9673C31.5547 16.5141 31.1874 16.147 30.7344 16.147H28.8203V6.28671C29.6694 6.01907 30.3408 5.34761 30.6085 4.49854H33.0489L32.0093 6.9936H31.7188C31.2657 6.9936 30.8984 7.36077 30.8984 7.81391V8.03419C30.8984 10.1743 32.6396 11.9155 34.7797 11.9155H34.7828C36.9229 11.9155 38.6641 10.1743 38.6641 8.03419V7.81391C38.6641 7.36077 38.2968 6.9936 37.8438 6.9936H37.5532L36.2334 3.82588C35.9883 3.23788 35.4184 2.85791 34.7812 2.85791H30.6085C30.2592 1.74972 29.222 0.943848 28 0.943848C26.778 0.943848 25.7408 1.74972 25.3915 2.85791H21.2188C20.5816 2.85791 20.0117 3.23788 19.7667 3.82599L18.4469 6.99371H18.1562C17.7032 6.99371 17.3359 7.36088 17.3359 7.81402V8.0343C17.3359 10.1744 19.0771 11.9156 21.2172 11.9156H21.2203C23.3604 11.9156 25.1016 10.1744 25.1016 8.0343V7.81402C25.1016 7.36088 24.7343 6.99371 24.2812 6.99371H23.9907L22.9511 4.49854H25.3915C25.6592 5.34761 26.3306 6.01907 27.1797 6.28671V16.147H25.2656C24.8126 16.147 24.4453 16.5141 24.4453 16.9673C24.4453 17.4204 24.8126 17.7876 25.2656 17.7876H30.7344C31.1874 17.7876 31.5547 17.4204 31.5547 16.9673V16.9673ZM34.7828 10.2748H34.7797C33.752 10.2748 32.8837 9.57933 32.6207 8.63422H36.9418C36.6789 9.57933 35.8106 10.2748 34.7828 10.2748V10.2748ZM33.7866 6.9936L34.7812 4.60649L35.7759 6.9936H33.7866ZM21.2203 10.2748H21.2172C20.1895 10.2748 19.3212 9.57933 19.0582 8.63422H23.3793C23.1164 9.57933 22.2481 10.2748 21.2203 10.2748ZM20.2241 6.9936L21.2188 4.60649L22.2134 6.9936H20.2241ZM28 2.58447C28.6031 2.58447 29.0938 3.07513 29.0938 3.67822C29.0938 4.28132 28.6031 4.77197 28 4.77197C27.3969 4.77197 26.9062 4.28132 26.9062 3.67822C26.9062 3.07513 27.3969 2.58447 28 2.58447Z" fill="#B38339"/>
</svg>
