<svg width="56" height="57" viewBox="0 0 56 57" fill="none" xmlns="http://www.w3.org/2000/svg">
<path d="M28.6715 14.6176C28.6715 13.2666 27.5723 12.1675 26.2213 12.1675C24.8703 12.1675 23.7712 13.2666 23.7712 14.6176C23.7712 15.9686 24.8703 17.0677 26.2213 17.0677C27.5723 17.0677 28.6715 15.9686 28.6715 14.6176ZM25.4118 14.6176C25.4118 14.1712 25.7749 13.8081 26.2212 13.8081C26.6676 13.8081 27.0307 14.1712 27.0307 14.6176C27.0307 15.064 26.6676 15.4271 26.2212 15.4271C25.7749 15.4271 25.4118 15.064 25.4118 14.6176Z" fill="#B38339"/>
<path d="M52.4925 27.0598C51.8359 27.0598 51.2072 27.241 50.6637 27.5794V23.9864C50.6637 22.8977 50.2401 21.8745 49.4708 21.105C48.7015 20.3358 47.6781 19.9122 46.5895 19.9122C45.8854 19.9122 45.2228 20.0923 44.6444 20.4081V3.52894C44.6444 1.91752 43.3334 0.606445 41.7219 0.606445H14.9689C14.5157 0.606445 14.1485 0.973726 14.1485 1.42676C14.1485 1.87979 14.5157 2.24707 14.9689 2.24707H41.7219C42.4287 2.24707 43.0038 2.82216 43.0038 3.52894V17.7858C42.9899 17.7715 42.9767 17.7565 42.9624 17.7423C42.2013 16.9827 41.1906 16.5593 40.1156 16.55C40.1048 16.5499 40.0944 16.5499 40.0837 16.5499C39.0196 16.5499 38.0111 16.9697 37.2407 17.734C37.1596 17.8145 37.0824 17.8983 37.0084 17.9848L35.7705 15.2347C36.9159 14.7716 37.7265 13.6486 37.7265 12.3392C37.7265 10.6175 36.3257 9.21676 34.604 9.21676H28.7757V7.36362C28.7757 6.68112 28.5097 6.03931 28.0268 5.55642C27.5447 5.07419 26.9033 4.80862 26.2206 4.80862C24.8124 4.80862 23.6667 5.95476 23.6667 7.36362V9.21676H17.8381C16.1164 9.21676 14.7158 10.6174 14.7158 12.3392C14.7158 13.6485 15.5262 14.7715 16.6715 15.2347L14.5433 19.9638H14.108C13.6548 19.9638 13.2877 20.3311 13.2877 20.7841C13.2877 23.2933 15.329 25.3347 17.8381 25.3347C20.3472 25.3347 22.3886 23.2933 22.3886 20.7841C22.3886 20.3311 22.0214 19.9638 21.5683 19.9638H21.133L19.1068 15.4616H20.8586C21.1201 17.1789 22.1902 18.6337 23.6668 19.4253V26.1903H20.6043C19.9238 26.1903 19.2843 26.4551 18.8046 26.9348C18.3225 27.4152 18.0569 28.055 18.0569 28.7365C18.0569 30.1406 19.1997 31.2828 20.6043 31.2828H29.4975V36.6622L27.6233 34.7879C25.8943 33.059 23.0803 33.0587 21.3499 34.7879C20.7685 35.3695 20.3686 36.0837 20.1778 36.862H8.79673V2.24707H11.6877C12.1409 2.24707 12.508 1.87979 12.508 1.42676C12.508 0.973726 12.1409 0.606445 11.6877 0.606445H7.97652C7.97652 0.606445 7.97652 0.606445 7.97641 0.606445H7.97631C3.59978 0.606555 0.0393066 4.16714 0.0393066 8.54377V44.7993C0.0393066 49.1287 3.52497 52.6572 7.8374 52.7321V54.4427C7.8374 55.2766 8.30323 56.0213 9.0531 56.386C9.80286 56.7508 10.6762 56.6578 11.3324 56.1431L13.0069 54.8295C13.1961 54.6812 13.4602 54.6811 13.6495 54.8295L15.324 56.143C15.7145 56.4494 16.1819 56.6063 16.6544 56.6063C16.9759 56.6063 17.2997 56.5337 17.6034 56.3859C18.3532 56.0212 18.8191 55.2764 18.8191 54.4426V52.7356H33.0232C33.5604 53.2839 33.8683 54.0353 33.8683 54.8027V55.786C33.8683 56.2391 34.2354 56.6063 34.6886 56.6063C35.1417 56.6063 35.5089 56.2391 35.5089 55.786V54.8027C35.5089 53.5935 35.0183 52.4094 34.1628 51.554L22.5101 39.9023C21.9815 39.3737 21.6905 38.6716 21.6905 37.9251C21.6905 37.1787 21.9815 36.4766 22.5099 35.9483C23.6004 34.8587 25.3739 34.8586 26.4633 35.9481L29.7378 39.2227C29.9726 39.4572 30.3251 39.5275 30.6319 39.4006C30.9384 39.2736 31.1383 38.9745 31.1383 38.6427V23.4701C31.1383 22.8211 31.3918 22.2097 31.8522 21.7485C32.3112 21.2887 32.9223 21.0355 33.5728 21.0355C34.9143 21.0355 36.0058 22.127 36.0064 23.4689C36.0064 23.4695 36.0063 23.4699 36.0063 23.4705V34.9822C36.0063 35.4352 36.3735 35.8025 36.8266 35.8025C37.2798 35.8025 37.6469 35.4352 37.6469 34.9822L37.6471 20.6822C37.6471 20.0211 37.9202 19.371 38.3963 18.8986C38.8571 18.4415 39.4558 18.1905 40.0836 18.1905C40.0897 18.1905 40.096 18.1905 40.1022 18.1906C40.7442 18.1962 41.3486 18.4494 41.8025 18.9025C42.2623 19.3631 42.5155 19.9746 42.5155 20.6243L42.5151 27.586C42.5151 28.0391 42.8823 28.4063 43.3354 28.4063C43.7886 28.4063 44.1557 28.0391 44.1557 27.586V23.9949C44.1557 23.9921 44.1562 23.9894 44.1562 23.9865C44.1562 22.6446 45.2478 21.5529 46.5898 21.5529C47.2402 21.5529 47.8515 21.8059 48.3109 22.2653C48.7703 22.7248 49.0233 23.3361 49.0233 23.9865L49.0238 38.2056C49.0238 38.6586 49.391 39.0259 49.8441 39.0259C50.2972 39.0259 50.6644 38.6586 50.6644 38.2056V30.5289C50.6644 30.5274 50.6642 30.5261 50.6642 30.5248C50.6654 30.0374 50.8553 29.58 51.2002 29.2358C51.5453 28.8908 52.0044 28.7007 52.4926 28.7007C53.5004 28.7007 54.3203 29.521 54.3203 30.5294V44.5042C54.3203 46.7693 53.6689 48.9704 52.4366 50.8696C52.4307 50.8787 52.4251 50.8879 52.4195 50.8972C51.5277 52.2825 51.0565 53.8845 51.0565 55.5325V55.7862C51.0565 56.2393 51.4237 56.6066 51.8768 56.6066C52.33 56.6066 52.6971 56.2393 52.6971 55.7862V55.5325C52.6971 54.1918 53.0829 52.8886 53.8129 51.7638C53.8188 51.7548 53.8243 51.7456 53.8298 51.7364C55.224 49.5767 55.9608 47.0766 55.9608 44.5042V30.5292C55.9608 28.6162 54.4049 27.0598 52.4925 27.0598V27.0598ZM1.67993 8.54377C1.67993 5.34992 4.07064 2.70578 7.1561 2.3023V5.85786C4.93 6.08743 2.97514 7.24178 1.67993 8.92801V8.54377ZM1.67993 13.7362C1.68835 10.5498 4.07589 7.9141 7.1561 7.51128V11.3241C4.93 11.5537 2.97514 12.708 1.67993 14.3942V13.7362ZM1.67993 19.2025C1.68835 16.016 4.07589 13.3803 7.1561 12.9776V24.3205C4.93 24.5501 2.97514 25.7045 1.67993 27.3907V19.2025ZM1.67993 32.1989C1.68835 29.0125 4.07589 26.3768 7.1561 25.9741V29.7868C4.93 30.0163 2.97514 31.1707 1.67993 32.8569V32.1989ZM1.67993 37.665C1.68835 34.4786 4.07589 31.8429 7.1561 31.4401V36.9042C4.93 37.1339 2.97503 38.2884 1.67993 39.9747V37.665ZM1.67993 44.7993C1.67993 41.3273 4.50453 38.5026 7.97652 38.5026H20.088C20.213 39.4685 20.6493 40.3618 21.35 41.0624L21.3539 41.0664H7.97652C5.9182 41.0664 4.24356 42.741 4.24356 44.7993C4.24356 46.8104 5.84328 48.4541 7.83729 48.5277V51.0914C4.42961 51.0168 1.67993 48.2241 1.67993 44.7993V44.7993ZM18.819 42.707H22.9947L27.1786 46.8906H18.8188V42.707H18.819ZM7.8374 46.8836C6.74868 46.8114 5.88429 45.9055 5.88429 44.7994C5.88429 43.6927 6.74868 42.7863 7.8374 42.7141V46.8836ZM16.8854 54.9108C16.7973 54.9537 16.5674 55.0335 16.3364 54.8523L14.6618 53.5388C14.2691 53.2307 13.7985 53.0767 13.328 53.0767C12.8575 53.0767 12.3868 53.2308 11.9942 53.5388L10.3197 54.8524C10.0883 55.0338 9.85875 54.9538 9.7706 54.9109C9.68255 54.868 9.4778 54.7367 9.4778 54.4428V42.707H17.1781V54.4427C17.1783 54.7366 16.9736 54.8679 16.8854 54.9108V54.9108ZM18.819 48.5312H28.8194L31.3834 51.0949H18.819V48.5312ZM25.3074 7.36362C25.3074 6.8594 25.7171 6.44925 26.2207 6.44925C26.4649 6.44925 26.6944 6.54407 26.8666 6.71645C27.0398 6.88948 27.135 7.11938 27.135 7.36362V9.21676H25.3074V7.36362ZM17.8382 23.6939C16.5184 23.6939 15.401 22.8108 15.0461 21.6043H15.0737H20.6029H20.6305C20.2755 22.8108 19.158 23.6939 17.8382 23.6939V23.6939ZM16.3424 19.9637L17.8382 16.64L19.3341 19.9637H16.3424ZM22.4373 14.6413C22.4373 14.1883 22.0701 13.821 21.617 13.821H17.8382C17.0212 13.821 16.3565 13.1563 16.3565 12.3392C16.3565 11.522 17.0212 10.8574 17.8382 10.8574H34.604C35.4212 10.8574 36.0858 11.522 36.0858 12.3392C36.0858 13.1563 35.4212 13.821 34.604 13.821H30.8252C30.3721 13.821 30.0049 14.1883 30.0049 14.6413C30.0049 16.7277 28.3074 18.4251 26.2211 18.4251C24.1347 18.4251 22.4373 16.7277 22.4373 14.6413V14.6413ZM25.3074 19.9875C25.6047 20.0382 25.9097 20.0657 26.2211 20.0657C26.5326 20.0657 26.8377 20.0382 27.1349 19.9875V26.1904H25.3073V19.9875H25.3074ZM20.6043 29.6422C20.1043 29.6422 19.6976 29.2359 19.6976 28.7365C19.6976 28.4945 19.7916 28.2673 19.9638 28.0959C20.1346 27.9251 20.3621 27.8309 20.6043 27.8309H29.4975V29.6422H20.6043ZM30.6909 20.5894C29.9214 21.3605 29.4975 22.3835 29.4975 23.4701V26.1903H28.7757V19.4251C30.2521 18.6336 31.322 17.1788 31.5836 15.4616H33.3355L31.2343 20.133C31.0424 20.2681 30.8601 20.4199 30.6909 20.5894V20.5894ZM33.5727 19.3948C33.5024 19.3948 33.4324 19.3968 33.3627 19.4003L34.6041 16.6406L36.0797 19.9186C36.0604 20.0196 36.0442 20.1212 36.0325 20.2235C35.3487 19.7036 34.4962 19.3948 33.5727 19.3948V19.3948Z" fill="#B38339"/>
<path d="M43.3352 30.0469C42.8821 30.0469 42.5149 30.4142 42.5149 30.8672V35.0836C42.5149 35.5366 42.8821 35.9039 43.3352 35.9039C43.7883 35.9039 44.1555 35.5366 44.1555 35.0836V30.8672C44.1555 30.4142 43.7883 30.0469 43.3352 30.0469Z" fill="#B38339"/>
</svg>
