<svg width="56" height="57" viewBox="0 0 56 57" fill="none" xmlns="http://www.w3.org/2000/svg">
<g clip-path="url(#clip0_55_6595)">
<path d="M55.1798 54.6699H52.1363V39.9047H54.3578C55.2712 39.9047 55.9925 39.1863 56 38.2694C56.0023 37.9956 55.9685 37.5951 55.7951 37.2417L52.0525 29.6086C51.9147 29.3276 51.6289 29.1494 51.316 29.1494H43.0604C42.6074 29.1494 42.2401 29.5166 42.2401 29.9697C42.2401 30.4228 42.6074 30.79 43.0604 30.79H50.8046L54.3215 37.9629C54.3318 37.9858 54.3607 38.0886 54.3594 38.2561C54.3594 38.2585 54.3587 38.2616 54.3578 38.2642H35.3456L25.159 30.79H26.0621C26.0636 30.79 26.0652 30.7903 26.0668 30.7903C26.0687 30.7903 26.0705 30.79 26.0724 30.79H29.9295C29.9313 30.79 29.9332 30.7903 29.9351 30.7903C29.9366 30.7903 29.9381 30.79 29.9398 30.79H39.7794C40.2324 30.79 40.5997 30.4228 40.5997 29.9697C40.5997 29.5166 40.2324 29.1494 39.7794 29.1494H31.1874C31.8084 27.4935 32.1025 25.6265 32.1025 23.3791V11.9821C32.2966 12.0204 32.4848 12.0614 32.6643 12.1059C32.7306 12.1222 32.7969 12.1302 32.8622 12.1302C33.2304 12.1302 33.5652 11.8804 33.6577 11.5069C33.7667 11.0671 33.4985 10.6224 33.0587 10.5135C31.8541 10.2151 30.3594 10.0441 28.8212 9.99911V8.6125C31.5286 8.69814 33.399 9.19983 35.2127 9.68653C36.1495 9.93787 37.0592 10.1811 38.0357 10.3546L34.7971 17.9436C34.3541 18.1116 33.9943 18.4666 33.8168 18.9411C33.5511 19.6515 33.7466 20.4298 34.3147 20.924C35.7214 22.1477 37.4457 22.7595 39.1701 22.7595C40.8944 22.7595 42.6187 22.1477 44.0253 20.9241C44.5936 20.4298 44.789 19.6515 44.5234 18.9411C44.346 18.4666 43.9861 18.1116 43.5432 17.9436L40.4094 10.6003C40.5508 10.6042 40.6941 10.6063 40.8401 10.6063C41.2931 10.6063 41.6604 10.2392 41.6604 9.78606C41.6604 9.33293 41.2931 8.96577 40.8401 8.96577C38.8566 8.96577 37.365 8.56547 35.6379 8.10206C33.8076 7.61099 31.7527 7.05997 28.8212 6.9716V3.21797H29.3415C29.7945 3.21797 30.1618 2.85081 30.1618 2.39768C30.1618 1.94455 29.7945 1.57739 29.3415 1.57739H26.6603C26.2072 1.57739 25.84 1.94455 25.84 2.39768C25.84 2.85081 26.2072 3.21797 26.6603 3.21797H27.1805V6.97149C24.2492 7.05986 22.1943 7.61077 20.3639 8.10195C18.6367 8.56536 17.1452 8.96566 15.1617 8.96566C14.7087 8.96566 14.3414 9.33282 14.3414 9.78595C14.3414 10.2391 14.7087 10.6062 15.1617 10.6062C15.3077 10.6062 15.451 10.6039 15.5924 10.6002L12.4586 17.9435C12.0156 18.1115 11.6558 18.4664 11.4784 18.941C11.2126 19.6514 11.4082 20.4297 11.9765 20.924V20.9239C13.3833 22.1477 15.1072 22.7596 16.8318 22.7594C18.5559 22.7593 20.2806 22.1475 21.687 20.924C22.2553 20.4297 22.4508 19.6514 22.1851 18.941C22.0076 18.4664 21.6479 18.1115 21.2048 17.9435L17.9662 10.3545C18.9427 10.181 19.8524 9.93776 20.7892 9.68642C22.6029 9.19972 24.4733 8.69814 27.1807 8.61239V9.99901C25.6426 10.044 24.1478 10.215 22.9432 10.5134C22.5034 10.6223 22.2352 11.067 22.3441 11.5068C22.4531 11.9466 22.8976 12.2144 23.3376 12.1059C23.5171 12.0614 23.7053 12.0204 23.8994 11.9821V23.379C23.8994 25.6263 24.1935 27.4934 24.8145 29.1493H22.923L18.0788 25.5948C17.4982 25.1687 16.7179 25.1686 16.1375 25.5947L15.1523 26.3176C14.787 26.5855 14.7081 27.0989 14.9762 27.4641C15.2442 27.8294 15.7577 27.9082 16.1227 27.6402L17.1081 26.9174L32.5722 38.264H29.7991L17.5934 29.3081C17.3045 29.0962 16.9116 29.0962 16.6228 29.3081L4.41726 38.264L1.64491 38.2634L13.6322 29.4678C13.9974 29.1998 14.0763 28.6863 13.8083 28.3213C13.5403 27.956 13.027 27.8772 12.6617 28.1452L11.2931 29.1494H4.68576C4.23275 29.1494 3.86548 29.5166 3.86548 29.9697V34.5993L0.673359 36.9414C0.0909549 37.3687 -0.140038 38.0884 0.0848301 38.7748C0.309698 39.4612 0.921632 39.9047 1.64392 39.9047H3.86548V47.0618C3.86548 47.5149 4.23275 47.882 4.68576 47.882C5.13878 47.882 5.50605 47.5149 5.50605 47.0618V39.5L16.2878 31.589V34.1627C16.2878 34.6158 16.6551 34.983 17.1081 34.983C17.5611 34.983 17.9284 34.6158 17.9284 34.1627V31.589L28.7101 39.5V54.67H22.8501V42.3657C22.8501 39.1996 20.2743 36.6237 17.1081 36.6237C13.9419 36.6237 11.3661 39.1996 11.3661 42.3657V54.67H5.50605V50.343C5.50605 49.8899 5.13878 49.5227 4.68576 49.5227C4.23275 49.5227 3.86548 49.8899 3.86548 50.343V54.67H0.822104C0.369087 54.67 0.00181705 55.0371 0.00181705 55.4903C0.00181705 55.9434 0.369087 56.3105 0.822104 56.3105H38.9143C39.3673 56.3105 39.7345 55.9434 39.7345 55.4903C39.7345 55.0371 39.3673 54.67 38.9143 54.67H30.3508V39.9048H50.4957V41.5454H33.9054C33.4523 41.5454 33.0851 41.9125 33.0851 42.3657V51.1154C33.0851 51.5685 33.4523 51.9357 33.9054 51.9357H50.4957V54.67H42.1953C41.7423 54.67 41.375 55.0371 41.375 55.4903C41.375 55.9434 41.7423 56.3105 42.1953 56.3105H55.1797C55.6327 56.3105 56 55.9434 56 55.4903C56 55.0371 55.6328 54.6699 55.1798 54.6699V54.6699ZM39.1701 11.8758L41.7134 17.8355H36.6269L39.1701 11.8758ZM42.9486 19.6862C40.7591 21.5908 37.5809 21.5909 35.3914 19.6862C35.3669 19.6649 35.3392 19.6326 35.3422 19.5704C35.3447 19.5163 35.3695 19.4814 35.3846 19.4763H42.9555C42.9579 19.4763 42.9603 19.4759 42.9628 19.4759C42.9717 19.4833 42.9953 19.5175 42.9979 19.5706C43.0008 19.6326 42.9731 19.6649 42.9486 19.6862V19.6862ZM16.8318 11.8758L19.375 17.8355H14.2885L16.8318 11.8758ZM20.6103 19.6863C18.4208 21.5909 15.2426 21.5909 13.0531 19.6863C13.0531 19.6862 13.0531 19.6862 13.0531 19.6862C13.0286 19.6649 13.001 19.6326 13.0039 19.5704C13.0064 19.5163 13.0313 19.4814 13.0462 19.4763H20.6172C20.6196 19.4763 20.622 19.4759 20.6244 19.4759C20.6333 19.4833 20.657 19.5175 20.6595 19.5706C20.6624 19.6326 20.6349 19.6649 20.6103 19.6863V19.6863ZM25.5401 23.379V11.7456C26.0698 11.693 26.6215 11.6584 27.1807 11.6412V25.4516C27.1807 25.9047 27.5479 26.2719 28.0009 26.2719C28.454 26.2719 28.8212 25.9047 28.8212 25.4516V11.6412C29.3803 11.6584 29.9321 11.6931 30.4618 11.7456V23.379C30.4618 25.6947 30.1269 27.5437 29.4148 29.1493H26.5871C25.875 27.5438 25.5401 25.6947 25.5401 23.379V23.379ZM5.50605 30.7899H9.05713L5.50605 33.3955V30.7899ZM17.1081 38.2641C19.0888 38.2641 20.7459 39.6755 21.1269 41.5453H13.0891C13.4703 39.6755 15.1275 38.2641 17.1081 38.2641ZM13.0066 43.1858H21.2095V54.6699H13.0066V43.1858ZM50.4957 45.9201H43.431V43.1858H50.4957V45.9201ZM41.7904 43.1858V45.9201H34.7257V43.1858H41.7904ZM34.7257 47.5607H41.7904V50.295H34.7257V47.5607ZM43.431 50.295V47.5607H50.4957V50.295H43.431Z" fill="#B38339"/>
<path d="M26.1313 46.7403V42.3655C26.1313 41.9123 25.764 41.5452 25.311 41.5452C24.858 41.5452 24.4907 41.9123 24.4907 42.3655V46.7403C24.4907 47.1934 24.858 47.5606 25.311 47.5606C25.764 47.5606 26.1313 47.1933 26.1313 46.7403Z" fill="#B38339"/>
</g>
<defs>
<clipPath id="clip0_55_6595">
<rect width="56" height="56" fill="white" transform="translate(0 0.943848)"/>
</clipPath>
</defs>
</svg>
