<svg width="56" height="57" viewBox="0 0 56 57" fill="none" xmlns="http://www.w3.org/2000/svg">
<g clip-path="url(#clip0_55_6586)">
<path d="M52.7133 4.68213H21.8523C20.0401 4.68213 18.5657 6.1565 18.5657 7.96885V23.7563C18.5657 24.2093 18.9329 24.5766 19.386 24.5766C19.8392 24.5766 20.2063 24.2093 20.2063 23.7563V7.96885C20.2063 7.06125 20.9447 6.32275 21.8523 6.32275H22.6101V30.4012L15.3467 23.1377C15.7383 22.1028 15.5188 20.8876 14.6871 20.0558C13.5557 18.9245 11.7151 18.9245 10.5837 20.0558L7.04666 23.5929C6.7263 23.9132 6.7263 24.4326 7.04666 24.7529C7.36713 25.0732 7.88644 25.0732 8.2068 24.7529L11.7439 21.2158C12.2354 20.7243 13.0353 20.7243 13.5268 21.2158C14.0184 21.7074 14.0184 22.5073 13.5268 22.9988L6.6341 29.8915C6.14257 30.3831 5.34271 30.3831 4.85118 29.8915C4.35954 29.3999 4.35954 28.6 4.85118 28.1085L5.45558 27.5041C5.77594 27.1837 5.77594 26.6643 5.45558 26.3441C5.13511 26.0237 4.6158 26.0237 4.29544 26.3441L3.69104 26.9485C2.55977 28.0797 2.55977 29.9204 3.69104 31.0517C4.25672 31.6173 4.99971 31.9001 5.74269 31.9001C6.09247 31.9001 6.44193 31.8366 6.77311 31.7113L9.49633 34.4345L0.240365 43.6894C-0.0801035 44.0098 -0.0801035 44.5292 0.240256 44.8496C0.560615 45.1698 1.08004 45.1699 1.40029 44.8496L10.6564 35.5946L12.4396 37.3778L0.240365 49.576C-0.0801035 49.8963 -0.0801035 50.4158 0.240256 50.7361C0.40049 50.8963 0.610381 50.9764 0.820381 50.9764C1.03027 50.9764 1.24027 50.8964 1.4004 50.7362L13.5998 38.5379L16.3222 41.2603C15.9306 42.2952 16.15 43.5105 16.9818 44.3423C17.4284 44.7888 17.9855 45.0582 18.5657 45.1523V46.6354H13.2604C11.6629 46.6354 10.3633 47.935 10.3633 49.5325V52.0475C10.3633 52.5006 10.7305 52.8678 11.1837 52.8678L52.7133 52.8687C54.5256 52.8687 56.0001 51.3943 56.0001 49.582V7.96885C56.0001 6.15661 54.5257 4.68213 52.7133 4.68213V4.68213ZM48.9012 6.32275V10.9901L47.8414 10.124C47.6904 10.0006 47.5064 9.93891 47.3224 9.93891C47.1383 9.93891 46.9543 10.0006 46.8033 10.124L45.7435 10.9901V6.32275H48.9012ZM14.3673 24.4787L23.5548 33.6663L17.3015 39.9195L8.11405 30.732L14.3673 24.4787ZM18.142 41.3993L25.0347 34.5067C25.2805 34.261 25.6032 34.138 25.9261 34.138C26.249 34.138 26.5717 34.261 26.8176 34.5067C27.0557 34.7448 27.1869 35.0614 27.1869 35.3981C27.1869 35.7349 27.0557 36.0515 26.8175 36.2897L19.9249 43.1824C19.4334 43.6739 18.6335 43.6739 18.142 43.1824C17.6503 42.6907 17.6503 41.8909 18.142 41.3993V41.3993ZM20.2063 44.9438C20.5253 44.8033 20.8242 44.6034 21.085 44.3425L22.61 42.8175V46.6355H20.2062V44.9438H20.2063ZM12.004 49.5326C12.004 48.8398 12.5676 48.2762 13.2604 48.2762H38.0486C38.7413 48.2762 39.305 48.8398 39.305 49.5326V51.2273H12.004V49.5326ZM54.3594 49.5821C54.3594 50.4897 53.621 51.2282 52.7133 51.2282H40.9456V49.5326C40.9456 47.9351 39.646 46.6355 38.0486 46.6355H24.2507V41.1769L27.9776 37.4499C28.5257 36.9019 28.8276 36.1733 28.8276 35.3982C28.8276 34.6232 28.5257 33.8946 27.9778 33.3467C27.4297 32.7987 26.7011 32.4969 25.9261 32.4969C25.5678 32.4969 25.2196 32.5622 24.8944 32.6857L24.2507 32.0421V6.32275H44.1028V12.7199C44.1028 13.0367 44.2853 13.3253 44.5716 13.461C44.8578 13.5967 45.1968 13.5555 45.4422 13.355L47.3222 11.8185L49.2023 13.355C49.3517 13.4771 49.5358 13.5401 49.7215 13.5401C49.8408 13.5401 49.9608 13.5141 50.0729 13.4609C50.3591 13.3252 50.5417 13.0366 50.5417 12.7198V6.32275H52.7132C53.6209 6.32275 54.3593 7.06115 54.3593 7.96885V49.5821H54.3594Z" fill="#B38339"/>
<path d="M48.9158 24.8826C48.554 21.4094 45.7275 18.4817 42.1359 18.1067V17.71C42.1359 16.8296 41.4195 16.1133 40.5391 16.1133H38.1686C37.2881 16.1133 36.5717 16.8296 36.5717 17.71V18.1067C33.0815 18.4757 30.1734 21.2901 29.7919 24.8826C28.8882 24.9264 28.166 25.673 28.166 26.5874V28.4233C28.166 29.3656 28.9326 30.1322 29.8749 30.1322H41.8434C42.2965 30.1322 42.6637 29.7649 42.6637 29.3119C42.6637 28.8589 42.2965 28.4916 41.8434 28.4916H29.875C29.8374 28.4916 29.8068 28.461 29.8068 28.4233V26.5874C29.8068 26.5497 29.8374 26.5191 29.875 26.5191H48.8329C48.8705 26.5191 48.9011 26.5497 48.9011 26.5874V28.4233C48.9011 28.461 48.8705 28.4916 48.8329 28.4916H45.6622C45.209 28.4916 44.8419 28.8589 44.8419 29.3119C44.8419 29.7649 45.209 30.1322 45.6622 30.1322H48.8329C49.7751 30.1322 50.5417 29.3656 50.5417 28.4233V26.5874C50.5417 25.673 49.8194 24.9264 48.9158 24.8826V24.8826ZM32.5767 22.1225L33.637 22.8368C33.7775 22.9315 33.9369 22.9769 34.0946 22.9769C34.3583 22.9769 34.6172 22.8499 34.7757 22.6147C35.0288 22.2389 34.9294 21.7293 34.5537 21.476L33.7513 20.9354C34.5561 20.3206 35.5204 19.9036 36.5719 19.7597V24.8783H31.4445C31.5851 23.8552 31.9858 22.9141 32.5767 22.1225ZM38.2124 24.8785V17.7539H40.4953V24.8785H38.2124ZM42.1359 24.8785V19.7592C43.1873 19.9021 44.152 20.3192 44.9575 20.935L44.1541 21.4762C43.7783 21.7292 43.679 22.239 43.9322 22.6149C44.0906 22.85 44.3495 22.977 44.6133 22.977C44.7709 22.977 44.9303 22.9316 45.0709 22.8369L46.1316 22.1223C46.7221 22.914 47.1229 23.8552 47.2635 24.8786H42.1359V24.8785Z" fill="#B38339"/>
<path d="M45.4499 34.3496H33.2581C32.8049 34.3496 32.4377 34.7169 32.4377 35.1699C32.4377 35.623 32.8049 35.9902 33.2581 35.9902H45.4499C45.903 35.9902 46.2702 35.623 46.2702 35.1699C46.2702 34.7169 45.903 34.3496 45.4499 34.3496Z" fill="#B38339"/>
<path d="M43.5681 38.4146H35.1399C34.6868 38.4146 34.3196 38.7818 34.3196 39.2349C34.3196 39.6879 34.6868 40.0552 35.1399 40.0552H43.5681C44.0213 40.0552 44.3884 39.6879 44.3884 39.2349C44.3884 38.7818 44.0213 38.4146 43.5681 38.4146Z" fill="#B38339"/>
</g>
<defs>
<clipPath id="clip0_55_6586">
<rect width="56" height="56" fill="white" transform="translate(0 0.775391)"/>
</clipPath>
</defs>
</svg>
