<svg width="56" height="57" viewBox="0 0 56 57" fill="none" xmlns="http://www.w3.org/2000/svg">
<g clip-path="url(#clip0_55_6560)">
<path d="M27.3438 15.2109C27.7968 15.2109 28.1641 14.8437 28.1641 14.3906C28.1641 13.9376 27.7968 13.5703 27.3438 13.5703H16.5188C16.0658 13.5703 15.6985 13.9376 15.6985 14.3906C15.6985 14.8437 16.0658 15.2109 16.5188 15.2109H27.3438Z" fill="#B38339"/>
<path d="M11.9797 19.9688C11.9797 20.4218 12.347 20.7891 12.8 20.7891H31.0625C31.5157 20.7891 31.8828 20.4218 31.8828 19.9688C31.8828 19.5157 31.5157 19.1484 31.0625 19.1484H12.8C12.347 19.1484 11.9797 19.5157 11.9797 19.9688Z" fill="#B38339"/>
<path d="M12.8 24.6172H31.0625C31.5157 24.6172 31.8828 24.2499 31.8828 23.7969C31.8828 23.3438 31.5157 22.9766 31.0625 22.9766H12.8C12.347 22.9766 11.9797 23.3438 11.9797 23.7969C11.9797 24.2499 12.347 24.6172 12.8 24.6172Z" fill="#B38339"/>
<path d="M12.8 32.2734H19.0313C19.4843 32.2734 19.8516 31.9062 19.8516 31.4531C19.8516 31.0001 19.4843 30.6328 19.0313 30.6328H12.8C12.347 30.6328 11.9797 31.0001 11.9797 31.4531C11.9797 31.9062 12.347 32.2734 12.8 32.2734Z" fill="#B38339"/>
<path d="M49.7095 37.3027C50.1627 37.3027 50.5299 36.9354 50.5299 36.4824V32.796C50.5299 32.2919 50.2739 31.8323 49.8453 31.5668L45.9001 29.1232V1.86719C45.9001 1.23391 45.385 0.71875 44.7517 0.71875H14.126C13.4927 0.71875 12.9776 1.23391 12.9776 1.86719V4.47261H10.3722C9.73888 4.47261 9.22372 4.98777 9.22372 5.62105V8.22647H6.61841C5.98513 8.22647 5.46997 8.74162 5.46997 9.37491V51.262C5.46997 51.8953 5.98513 52.4105 6.61841 52.4105H12.6874C13.1404 52.4105 13.5077 52.0432 13.5077 51.5902C13.5077 51.1371 13.1404 50.7698 12.6874 50.7698H7.1106V9.86709H36.7519V24.9577L31.7655 28.0461C31.8394 27.9229 31.8827 27.7792 31.8827 27.625C31.8827 27.172 31.5156 26.8047 31.0624 26.8047H12.8C12.3469 26.8047 11.9796 27.172 11.9796 27.625C11.9796 28.078 12.3469 28.4453 12.8 28.4453H31.0624C31.084 28.4453 31.105 28.4437 31.1261 28.4421L27.5891 30.6328H21.6562C21.2031 30.6328 20.8358 31.0001 20.8358 31.4531C20.8358 31.9062 21.2031 32.2734 21.6562 32.2734H25.4942C25.431 32.4372 25.3966 32.6135 25.3966 32.7961V34.4609H12.8C12.3469 34.4609 11.9796 34.8282 11.9796 35.2812C11.9796 35.7343 12.3469 36.1016 12.8 36.1016H25.3965V38.2891H12.8C12.3469 38.2891 11.9796 38.6563 11.9796 39.1094C11.9796 39.5624 12.3469 39.9297 12.8 39.9297H25.3965V41.8634C25.3965 41.9482 25.3978 42.0327 25.4 42.1172H12.8C12.3469 42.1172 11.9796 42.4845 11.9796 42.9375C11.9796 43.3905 12.3469 43.7578 12.8 43.7578H25.5777C26.0025 45.957 27.1605 47.9646 28.8961 49.4437L30.4523 50.7698H16.5155C16.0625 50.7698 15.6952 51.1371 15.6952 51.5902C15.6952 52.0432 16.0625 52.4105 16.5155 52.4105H32.3775L37.0254 56.3714C37.297 56.6029 37.6302 56.7186 37.9632 56.7186C38.2963 56.7186 38.6294 56.6028 38.901 56.3714L47.0303 49.4436C49.2543 47.5483 50.5299 44.7854 50.5299 41.8633V40.3105C50.5299 39.8575 50.1627 39.4902 49.7095 39.4902C49.2564 39.4902 48.8892 39.8575 48.8892 40.3105V41.8633C48.8892 44.304 47.8238 46.6118 45.9662 48.1948L37.9631 55.015L29.9601 48.1948C28.1025 46.6118 27.0371 44.304 27.0371 41.8633V32.9044L37.9631 26.1371L48.8892 32.9044V36.4823C48.8892 36.9355 49.2565 37.3027 49.7095 37.3027V37.3027ZM38.3925 24.5275V9.37491C38.3925 8.74162 37.8774 8.22647 37.2441 8.22647H10.8643V6.11323H40.5057V11.875C40.5057 12.328 40.8729 12.6953 41.3261 12.6953C41.7792 12.6953 42.1464 12.328 42.1464 11.875V5.62105C42.1464 4.98777 41.6312 4.47261 40.9979 4.47261H14.6182V2.35938H44.2595V28.1071L42.1464 26.7982V15.7031C42.1464 15.2501 41.7792 14.8828 41.3261 14.8828C40.8729 14.8828 40.5057 15.2501 40.5057 15.7031V25.7821L38.7245 24.6789C38.6187 24.6134 38.5071 24.5635 38.3925 24.5275V24.5275Z" fill="#B38339"/>
<path d="M30.4492 39.08C30.4492 43.2232 33.8199 46.594 37.9632 46.594C42.1065 46.594 45.4772 43.2233 45.4772 39.08C45.4772 34.9366 42.1065 31.5659 37.9632 31.5659C33.8199 31.5659 30.4492 34.9367 30.4492 39.08ZM43.8366 39.08C43.8366 42.3186 41.2018 44.9534 37.9632 44.9534C34.7247 44.9534 32.0898 42.3187 32.0898 39.08C32.0898 35.8413 34.7247 33.2065 37.9632 33.2065C41.2018 33.2065 43.8366 35.8414 43.8366 39.08Z" fill="#B38339"/>
<path d="M36.2785 38.2704C35.9582 37.95 35.4388 37.95 35.1184 38.2704C34.7981 38.5908 34.7981 39.1102 35.1184 39.4304L37.0979 41.4098C37.2581 41.5699 37.4681 41.6501 37.678 41.6501C37.8879 41.6501 38.0979 41.57 38.2582 41.4098L41.3262 38.3417C41.6466 38.0213 41.6466 37.5019 41.3262 37.1817C41.0057 36.8613 40.4864 36.8613 40.1661 37.1817L37.6781 39.6697L36.2785 38.2704Z" fill="#B38339"/>
</g>
<defs>
<clipPath id="clip0_55_6560">
<rect width="56" height="56" fill="white" transform="translate(0 0.71875)"/>
</clipPath>
</defs>
</svg>
