<svg width="56" height="57" viewBox="0 0 56 57" fill="none" xmlns="http://www.w3.org/2000/svg">
<g clip-path="url(#clip0_55_6680)">
<path d="M36.9262 46.0495H36.1056V43.5878C36.1056 41.3254 34.2651 39.4849 32.0027 39.4849H7.38524C5.12284 39.4849 3.28233 41.3254 3.28233 43.5878V46.0495H2.46175C1.10428 46.0495 0 47.1539 0 48.5113V49.7148C0 50.469 0.613467 51.0824 1.36764 51.0824H38.0203C38.7745 51.0824 39.3879 50.469 39.3879 49.7148V48.5113C39.3879 47.1539 38.2836 46.0495 36.9262 46.0495ZM4.92349 44.4084H10.096C10.5492 44.4084 10.9166 44.0411 10.9166 43.5878C10.9166 43.1345 10.5492 42.7672 10.096 42.7672H5.06463C5.40337 41.8121 6.31542 41.126 7.38524 41.126H32.0027C33.0724 41.126 33.9846 41.8121 34.3233 42.7672H13.9278C13.4746 42.7672 13.1072 43.1345 13.1072 43.5878C13.1072 44.0411 13.4746 44.4084 13.9278 44.4084H34.4644V46.0495H4.92349V44.4084ZM37.7468 49.4413H1.64116V48.5113C1.64116 48.0587 2.00922 47.6907 2.46175 47.6907H36.9262C37.3787 47.6907 37.7468 48.0587 37.7468 48.5113V49.4413Z" fill="#B38339"/>
<path d="M55.2137 44.1553L48.4152 37.9611C48.0802 37.6557 47.5612 37.68 47.256 38.015C46.9508 38.3501 46.9749 38.869 47.31 39.1742L49.071 40.7788L46.9181 42.9317L37.3152 32.392L38.5313 31.1759L44.4704 36.587C44.627 36.7582 45.2245 36.9477 45.6296 36.5331C45.9349 36.198 45.9107 35.6791 45.5757 35.3739L39.5778 29.9091C39.9078 29.1319 39.7578 28.1976 39.1249 27.5648L38.6579 27.0978C38.2549 26.6947 37.7191 26.4728 37.1492 26.4728C36.845 26.4728 36.5515 26.5378 36.2818 26.6581L34.9159 25.2922C35.2633 24.5089 35.1185 23.5584 34.4773 22.9171L33.662 22.1019L33.8569 21.907C34.1152 21.6488 34.2576 21.3053 34.2576 20.9399C34.2576 20.5746 34.1153 20.2311 33.857 19.9728L33.6622 19.778L34.8407 18.5994C35.1795 18.8535 35.583 18.9826 35.9875 18.9826C36.4777 18.9826 36.968 18.7959 37.3413 18.4227L37.3442 18.4199V18.4198C38.4044 17.3596 38.5061 15.6985 37.6499 14.5225C38.1059 13.8496 38.3514 13.0565 38.3514 12.2257C38.3514 11.1286 37.9243 10.0973 37.1485 9.32169L35.4906 7.66368C35.1703 7.34343 34.6507 7.34321 34.3302 7.66368C34.0098 7.98425 34.0098 8.50374 34.3302 8.82409L35.9881 10.4821C36.4538 10.9478 36.7103 11.5669 36.7103 12.2257C36.7103 12.6 36.6248 12.9604 36.4678 13.2884L30.0815 6.90207C30.5858 6.6594 31.1636 6.59386 31.7303 6.73106C32.1711 6.83763 32.6143 6.56727 32.7211 6.12689C32.8279 5.68651 32.5573 5.24285 32.1169 5.13607C30.9712 4.85838 29.797 5.07764 28.8488 5.72153C27.673 4.86571 26.0119 4.9679 24.9491 6.03039C24.2679 6.7117 24.2104 7.78152 24.7723 8.53109L23.5937 9.70966L23.399 9.51491C23.1406 9.25659 22.7972 9.11425 22.4319 9.11425C22.0666 9.11425 21.723 9.25659 21.4648 9.5148L15.6542 15.3253C15.3959 15.5836 15.2536 15.927 15.2536 16.2924C15.2536 16.6577 15.3959 17.0012 15.6542 17.2595L15.849 17.4543L14.6704 18.6329C13.9978 18.1086 12.8435 18.1368 12.1671 18.8124C11.1064 19.8731 11.0049 21.5348 11.8619 22.7109C10.7845 24.3074 10.951 26.4992 12.3626 27.9109L15.461 31.0093C16.2617 31.8099 17.3133 32.2103 18.3651 32.2103C19.1677 32.2103 19.97 31.9763 20.6611 31.51C21.1859 31.8924 21.8075 32.0841 22.4297 32.0841C23.2017 32.0841 23.9748 31.7894 24.5646 31.1995L24.5652 31.1988C25.2434 30.5175 25.2999 29.4498 24.7388 28.7015L25.9174 27.523L26.1121 27.7177C26.3705 27.976 26.7139 28.1184 27.0793 28.1184C27.4448 28.1184 27.7882 27.976 28.0464 27.7178L28.2413 27.523L29.0565 28.3381C29.4595 28.7411 29.9952 28.963 30.5652 28.963C30.8693 28.963 31.163 28.898 31.4327 28.7778L32.7986 30.1437C32.4512 30.927 32.5959 31.8775 33.2372 32.5188L33.7043 32.9859C34.1203 33.4018 34.6664 33.6097 35.2129 33.6097C35.4979 33.6097 35.7823 33.5517 36.0487 33.4387L50.2948 49.0747C51.1319 50.0413 52.8529 50.1727 53.8582 49.1574L55.2967 47.7189C56.1973 46.851 56.2988 45.118 55.2137 44.1553ZM50.2855 41.8852L51.5029 42.9944L49.1337 45.3635L48.0245 44.1461L50.2855 41.8852ZM33.8572 28.8812L32.6939 27.7178L33.8571 26.5546L35.0205 27.7179L33.8572 28.8812ZM26.1124 7.18818C26.6457 6.65502 27.5134 6.65502 28.0465 7.18818L36.1837 15.3253C36.6637 15.7857 36.712 16.722 36.1809 17.2623C36.0742 17.3691 35.9006 17.3689 35.794 17.2623L26.1095 7.57779C26.0028 7.47123 26.0028 7.2977 26.1124 7.18818ZM25.9175 9.70693L33.665 17.4543L32.5016 18.6177L24.7542 10.8703L25.9175 9.70693ZM16.6215 29.8487L13.5231 26.7503C13.0573 26.2845 12.8009 25.6654 12.8009 25.0067C12.8009 24.6324 12.8864 24.272 13.0434 23.944L19.427 30.3275C18.5106 30.7644 17.3793 30.6065 16.6215 29.8487ZM23.4017 30.0414L23.3989 30.0442C22.8656 30.5775 21.998 30.5777 21.4647 30.0442C21.1665 29.7461 18.4068 26.9863 15.851 24.4306C14.2795 22.859 13.713 22.2926 13.3276 21.9071C12.7958 21.3754 12.7943 20.5109 13.3232 19.9773C13.3256 19.9749 13.328 19.9725 13.3304 19.9702C13.4371 19.8635 13.6107 19.8635 13.7173 19.9702L23.4018 29.6547C23.5084 29.7613 23.5084 29.9347 23.4017 30.0414ZM24.6354 23.9197C24.315 23.5994 23.7954 23.5994 23.475 23.9197C23.1545 24.2403 23.1545 24.7598 23.475 25.0803L24.7571 26.3623L23.5937 27.5257L15.8462 19.7782L17.0096 18.6149L20.77 22.3754C21.0905 22.6958 21.6101 22.6958 21.9305 22.3754C22.2509 22.0548 22.2509 21.5353 21.9305 21.2149L17.5911 16.8758C17.5907 16.8753 17.5902 16.8748 17.5898 16.8743C17.5894 16.8739 17.5888 16.8735 17.5884 16.873L17.0081 16.2928L22.4318 10.8692L32.5031 20.9405L27.0794 26.3641L24.6354 23.9197ZM30.217 27.1774L29.4018 26.3623L32.5015 23.2625L33.3167 24.0777C33.5086 24.2696 33.5086 24.582 33.3167 24.7739L30.9131 27.1776C30.8201 27.2706 30.6966 27.3216 30.5649 27.3216C30.4337 27.3216 30.31 27.2706 30.217 27.1774ZM34.8647 31.825L34.3976 31.358C34.2056 31.166 34.2056 30.8537 34.3976 30.6617L36.8013 28.2581C36.8943 28.1651 37.0178 28.114 37.1493 28.114C37.2808 28.114 37.4044 28.1652 37.4974 28.2582L37.9645 28.7252C38.1564 28.9172 38.1565 29.2294 37.9645 29.4215L35.561 31.825C35.468 31.9181 35.3443 31.9692 35.2128 31.9692C35.0813 31.9692 34.9577 31.9181 34.8647 31.825ZM54.136 46.5582L52.6975 47.9967C52.446 48.2369 51.9178 48.3734 51.5076 47.9691L50.2402 46.578L52.7174 44.1009L54.1084 45.3683C54.361 45.6087 54.5207 46.1292 54.136 46.5582Z" fill="#B38339"/>
</g>
<defs>
<clipPath id="clip0_55_6680">
<rect width="56" height="56" fill="white" transform="translate(0 0.050293)"/>
</clipPath>
</defs>
</svg>
