<svg width="56" height="57" viewBox="0 0 56 57" fill="none" xmlns="http://www.w3.org/2000/svg">
<g clip-path="url(#clip0_55_6658)">
<path d="M33.4702 35.34C34.1633 35.34 34.8116 35.0668 35.2956 34.5707L39.5952 30.1624C40.5765 29.1562 40.5562 27.5392 39.5498 26.5578C38.5435 25.5766 36.9261 25.5969 35.9448 26.6031L33.4225 29.1889L32.9806 28.7593C31.9729 27.7797 30.3557 27.8021 29.3755 28.8098C28.3958 29.8175 28.4184 31.4345 29.4262 32.4144L31.6931 34.6185C32.1716 35.0838 32.8028 35.34 33.4702 35.34ZM30.5544 29.9558C30.9026 29.5977 31.4772 29.5903 31.8347 29.938L32.8649 30.9398C33.19 31.256 33.7097 31.2489 34.0265 30.9244L37.1218 27.7509C37.4705 27.3934 38.0448 27.3865 38.402 27.7348C38.7595 28.0833 38.7666 28.6576 38.4182 29.0149L34.1186 33.423C33.7863 33.7784 33.181 33.7859 32.8392 33.4401L30.5723 31.236C30.2146 30.8879 30.2064 30.3136 30.5544 29.9558Z" fill="#B38339"/>
<path d="M27.1161 35.8995C26.8426 35.5371 26.3274 35.4649 25.9647 35.7383C25.6022 36.0118 25.5302 36.5272 25.8036 36.8895C26.1029 37.2862 26.4341 37.6666 26.7876 38.0201C28.8087 40.041 31.496 41.1539 34.3543 41.1539C37.2126 41.1539 39.8997 40.041 41.9208 38.0201C43.9421 35.9993 45.0551 33.3124 45.0551 30.4545C45.0551 27.5966 43.942 24.9098 41.9208 22.889C37.7485 18.7173 30.9599 18.7174 26.7876 22.889C23.9431 25.733 22.9365 29.882 24.1607 33.7167C24.2988 34.1491 24.7616 34.3876 25.1938 34.2497C25.6263 34.1117 25.865 33.6492 25.7269 33.2168C24.6906 29.9708 25.5425 26.4587 27.9503 24.0514C31.4813 20.5207 37.2272 20.5207 40.7583 24.0514C42.4689 25.7618 43.4111 28.0358 43.4111 30.4547C43.4111 32.8735 42.4689 35.1475 40.7583 36.8579C39.0478 38.5682 36.7734 39.5102 34.3543 39.5102C31.9352 39.5102 29.6608 38.5683 27.9501 36.8579C27.6502 36.5578 27.3696 36.2355 27.1161 35.8995Z" fill="#B38339"/>
<path d="M54.8692 45.4706L49.6832 40.2852C49.362 39.9643 48.8416 39.9642 48.5205 40.2852L48.4888 40.3169L46.493 38.3215C47.8346 36.2532 48.6339 33.8635 48.7912 31.3694C48.8198 30.9164 48.4756 30.526 48.0225 30.4973C47.5698 30.4698 47.1791 30.813 47.1504 31.2659C46.954 34.3797 45.6294 37.311 43.4205 39.5196C40.9241 42.0157 37.6458 43.2652 34.3665 43.2684C34.3624 43.2683 34.3583 43.2677 34.354 43.2677H34.2887C31.0272 43.2513 27.7706 42.0023 25.2876 39.5196C22.8658 37.0982 21.5321 33.8788 21.5321 30.4544C21.5321 27.0299 22.8658 23.8105 25.2876 21.3891C30.2868 16.3905 38.4213 16.3905 43.4205 21.3891C45.2825 23.2509 46.5112 25.5993 46.9739 28.1807C47.0541 28.6275 47.4816 28.9243 47.9281 28.8447C48.375 28.7646 48.6723 28.3375 48.5923 27.8906C48.0699 24.9772 46.6836 22.327 44.583 20.2267C43.5422 19.186 42.3806 18.338 41.1433 17.6814V11.057C41.1426 10.8407 41.0552 10.6289 40.9025 10.4758L30.7164 0.291027C30.5632 0.138559 30.3516 0.0508398 30.135 0.050293H2.46619C1.10644 0.050293 0.000109375 1.1564 0.000109375 2.51604V9.4245C0.000109375 9.8784 0.368047 10.2464 0.822172 10.2464C1.27619 10.2464 1.64423 9.87851 1.64423 9.4245V2.51604C1.64423 2.06279 2.01294 1.69409 2.4663 1.69409H29.3133V9.41323C29.3133 10.7729 30.4196 11.879 31.7794 11.879H39.4995V16.937C37.8956 16.3293 36.2047 16.0172 34.511 15.9989C34.5029 15.9978 34.495 15.9962 34.4866 15.9962H16.1335C15.6795 15.9962 15.3114 16.3642 15.3114 16.8181C15.3114 17.272 15.6795 17.6401 16.1335 17.6401H27.6426C26.47 18.2532 25.3646 19.0381 24.3636 19.9944H16.1335C15.6795 19.9944 15.3114 20.3624 15.3114 20.8163C15.3114 21.2702 15.6795 21.6383 16.1335 21.6383H22.8841C21.5423 23.3764 20.6253 25.3782 20.1864 27.515H16.1336C15.6796 27.515 15.3115 27.8831 15.3115 28.337C15.3115 28.7909 15.6796 29.1589 16.1336 29.1589H19.9463C19.9084 29.5873 19.8884 30.0194 19.8884 30.4546C19.8884 30.8116 19.9014 31.1666 19.9269 31.5191H16.1337C15.6797 31.5191 15.3116 31.8872 15.3116 32.3411C15.3116 32.795 15.6797 33.163 16.1337 33.163H20.1412C20.5604 35.3878 21.4951 37.4725 22.8866 39.2738H16.1337C15.6797 39.2738 15.3116 39.6417 15.3116 40.0958C15.3116 40.5498 15.6797 40.9177 16.1337 40.9177H24.3669C25.3665 41.8722 26.4701 42.6558 27.6406 43.2682H16.1333C15.6792 43.2682 15.3112 43.6362 15.3112 44.0901C15.3112 44.544 15.6792 44.9121 16.1333 44.9121H34.354C36.0999 44.9119 37.8458 44.5983 39.4993 43.9719V53.585C39.4993 54.0381 39.1306 54.4069 38.6772 54.4069H2.46619C2.01294 54.4069 1.64413 54.0382 1.64413 53.585V12.7126C1.64413 12.2587 1.27608 11.8907 0.822063 11.8907C0.368047 11.8907 0 12.2586 0 12.7126V53.585C0.000109375 54.9442 1.10644 56.0503 2.46619 56.0503H38.6773C40.0371 56.0503 41.1434 54.9442 41.1434 53.5845V43.2271C41.5102 43.0324 41.8703 42.8206 42.2226 42.5922L44.2179 44.5872C43.8726 44.8887 43.8541 45.4631 44.1861 45.7814L49.3722 50.9669C50.8189 52.4746 53.4225 52.4745 54.8691 50.9669C56.3771 49.5203 56.377 46.917 54.8692 45.4706ZM31.7792 10.2352C31.326 10.2352 30.9572 9.86648 30.9572 9.41323V2.85653L38.3368 10.2352H31.7792ZM43.5635 41.6082C43.9143 41.3182 44.2549 41.01 44.583 40.682C44.9092 40.3559 45.2178 40.0154 45.5092 39.6626L47.3261 41.4792L45.3804 43.4247L43.5635 41.6082ZM53.7066 49.8044C52.8719 50.6745 51.3696 50.6743 50.5348 49.8044L45.9298 45.2002L49.1018 42.0286L53.7067 46.6329C54.5767 47.4677 54.5768 48.9697 53.7066 49.8044Z" fill="#B38339"/>
<path d="M7.4598 22.4504H11.056C12.07 22.4504 12.8949 21.6257 12.8949 20.612V17.0162C12.8949 16.0024 12.0701 15.1777 11.056 15.1777H7.4598C6.446 15.1777 5.62109 16.0024 5.62109 17.0162V20.612C5.62109 21.6257 6.446 22.4504 7.4598 22.4504ZM7.26522 17.0162C7.26522 16.9089 7.35261 16.8216 7.4598 16.8216H11.056C11.1635 16.8216 11.2507 16.9089 11.2507 17.0162V20.612C11.2507 20.7193 11.1633 20.8066 11.056 20.8066H7.4598C7.3525 20.8066 7.26522 20.7193 7.26522 20.612V17.0162Z" fill="#B38339"/>
<path d="M5.62109 32.1368C5.62109 33.1505 6.44589 33.9752 7.4598 33.9752H11.056C12.07 33.9752 12.8949 33.1505 12.8949 32.1368V28.541C12.8949 27.5273 12.0701 26.7026 11.056 26.7026H7.4598C6.446 26.7026 5.62109 27.5273 5.62109 28.541V32.1368ZM7.26522 28.541C7.26522 28.4337 7.35261 28.3464 7.4598 28.3464H11.056C11.1635 28.3464 11.2507 28.4337 11.2507 28.541V32.1368C11.2507 32.2441 11.1633 32.3314 11.056 32.3314H7.4598C7.3525 32.3314 7.26522 32.2441 7.26522 32.1368V28.541Z" fill="#B38339"/>
<path d="M5.62109 43.8952C5.62109 44.9089 6.44589 45.7336 7.4598 45.7336H11.056C12.07 45.7336 12.8949 44.9089 12.8949 43.8952V40.2994C12.8949 39.2856 12.0701 38.4609 11.056 38.4609H7.4598C6.446 38.4609 5.62109 39.2856 5.62109 40.2994V43.8952ZM7.26522 40.2994C7.26522 40.1921 7.35261 40.1048 7.4598 40.1048H11.056C11.1635 40.1048 11.2507 40.1921 11.2507 40.2994V43.8952C11.2507 44.0025 11.1633 44.0898 11.056 44.0898H7.4598C7.3525 44.0898 7.26522 44.0025 7.26522 43.8952V40.2994Z" fill="#B38339"/>
</g>
<defs>
<clipPath id="clip0_55_6658">
<rect width="56" height="56" fill="white" transform="translate(0 0.050293)"/>
</clipPath>
</defs>
</svg>
