<svg width="56" height="56" viewBox="0 0 56 56" fill="none" xmlns="http://www.w3.org/2000/svg">
<path d="M54.9383 48.4242L49.3457 45.2135C48.683 44.8326 47.8927 44.8343 47.2317 45.2182C46.5705 45.6022 46.1772 46.2878 46.1798 47.0515L46.1802 47.2478H45.6882V40.2893C45.6882 39.8359 45.3207 39.4683 44.8671 39.4683C44.4136 39.4683 44.0461 39.8359 44.0461 40.2893V47.2478H27.2338V25.9182C27.2338 25.4648 26.8663 25.0972 26.4127 25.0972C25.9592 25.0972 25.5917 25.4648 25.5917 25.9182V47.2478H11.0688V46.1074C11.0688 45.654 10.7013 45.2863 10.2477 45.2863C9.79419 45.2863 9.42668 45.654 9.42668 46.1074V47.2478H3.01056C1.35059 47.2478 0 48.5983 0 50.2584C0 51.9184 1.35059 53.2689 3.01056 53.2689H37.7415C38.1951 53.2689 38.5626 52.9013 38.5626 52.4479C38.5626 51.9944 38.1951 51.6268 37.7415 51.6268H35.1265V48.8899H44.0461V50.2586C44.0461 50.712 44.4136 51.0797 44.8671 51.0797C45.3207 51.0797 45.6882 50.712 45.6882 50.2586V48.8899H46.9613C47.0016 48.8918 47.0423 48.891 47.0831 48.8871L47.0941 48.886C47.5299 48.8432 47.85 48.466 47.8287 48.0287C47.8277 48.0098 47.8263 47.9911 47.824 47.9725L47.8219 47.0469C47.8211 46.8014 47.9855 46.6793 48.0564 46.6381C48.1271 46.5971 48.315 46.5149 48.5277 46.6373L54.1214 49.8485C54.334 49.9703 54.3576 50.1733 54.358 50.255C54.3582 50.3371 54.336 50.5413 54.1237 50.6647L48.5468 53.9032C48.3342 54.0268 48.1463 53.9453 48.0753 53.9045C48.0043 53.8637 47.839 53.7424 47.8384 53.4961L47.8351 52.4451C47.8337 51.9927 47.4665 51.6266 47.0141 51.6266H41.0236C40.57 51.6266 40.2025 51.9942 40.2025 52.4477C40.2025 52.9011 40.57 53.2687 41.0236 53.2687H46.1955L46.1963 53.5005C46.198 54.2648 46.595 54.9484 47.258 55.3288C47.5878 55.5181 47.949 55.6126 48.3101 55.6126C48.675 55.6126 49.0398 55.516 49.3717 55.323L54.949 52.0843C55.6097 51.6997 56.0025 51.0137 56 50.2492C55.9974 49.4859 55.6002 48.8034 54.9383 48.4242ZM1.64213 50.2584C1.64213 49.5038 2.25595 48.8899 3.01056 48.8899H9.42668V50.2712C9.42668 50.7246 9.79419 51.0922 10.2477 51.0922C10.7013 51.0922 11.0688 50.7246 11.0688 50.2712V48.8899H15.9262V51.6268H3.01056C2.25595 51.6268 1.64213 51.013 1.64213 50.2584ZM33.4844 51.6268H17.5684V48.8899H25.5917V50.2712C25.5917 50.7246 25.9592 51.0922 26.4127 51.0922C26.8663 51.0922 27.2338 50.7246 27.2338 50.2712V48.8899H33.4845V51.6268H33.4844Z" fill="#B38339"/>
<path d="M16.4785 15.0501C16.4785 16.6287 17.7633 17.913 19.3426 17.913H19.6347C19.6599 19.6846 20.3626 21.3442 21.623 22.5951C22.8943 23.8571 24.5773 24.5501 26.3672 24.5501C26.3844 24.5501 26.4016 24.5501 26.4189 24.55C30.0473 24.5229 33.0076 21.5614 33.0987 17.9131H33.3927C34.1583 17.9131 34.8776 17.6153 35.4185 17.0746C35.9591 16.5339 36.2568 15.815 36.2568 15.0502C36.2568 14.027 35.717 13.1277 34.9075 12.6212L35.5068 8.47625C35.7973 6.46771 35.2021 4.43585 33.8738 2.90156C32.5454 1.36727 30.6197 0.487305 28.5905 0.487305H24.1453C22.1156 0.487305 20.1896 1.36737 18.8611 2.90178C17.5329 4.43607 16.9378 6.46782 17.2282 8.47625L17.8272 12.619C17.6444 12.7333 17.473 12.8685 17.3169 13.0246C16.7763 13.565 16.4785 14.2844 16.4785 15.0501ZM18.1206 15.0501C18.1206 14.7231 18.2475 14.416 18.4782 14.1856C18.7086 13.9551 19.0156 13.8282 19.3426 13.8282H19.6323V16.2709H19.3426C18.6688 16.2709 18.1206 15.7233 18.1206 15.0501ZM31.4609 17.7405C31.4609 20.569 29.1936 22.8871 26.4067 22.9078C25.0417 22.9228 23.7505 22.3932 22.7799 21.4297C21.8092 20.4662 21.2745 19.1824 21.2745 17.8148V10.399C22.396 10.3436 23.3648 9.69843 23.8768 8.768C24.6036 9.25024 25.4624 9.51298 26.3652 9.51298C27.2679 9.51298 28.1266 9.25035 28.8535 8.76811C29.3662 9.69996 30.3373 10.3455 31.4608 10.3993V17.7405H31.4609ZM34.2574 15.9134C34.0268 16.144 33.7197 16.271 33.3929 16.271H33.1032V13.8283H33.3929C34.0667 13.8283 34.6148 14.3764 34.6148 15.0502C34.6148 15.3762 34.4877 15.6829 34.2574 15.9134ZM20.1028 3.97649C21.1191 2.80259 22.5925 2.12932 24.1454 2.12932H28.5906C30.1431 2.12932 31.6162 2.80248 32.6324 3.97627C33.6486 5.15007 34.1039 6.7045 33.8817 8.24109L33.3113 12.186H33.1031V9.58184C33.1031 9.12839 32.7356 8.76077 32.282 8.76077C32.2803 8.76077 32.2786 8.76077 32.2769 8.76077H31.6132C30.7831 8.76077 30.1077 8.08542 30.1077 7.25527C30.1077 6.90386 29.8841 6.59141 29.5515 6.47811C29.219 6.36491 28.851 6.4757 28.6365 6.75399C28.0893 7.46371 27.2615 7.87074 26.3653 7.87085C25.469 7.87085 24.6413 7.46382 24.094 6.75399C23.8796 6.4757 23.5116 6.36491 23.179 6.47811C22.8465 6.59141 22.6228 6.90386 22.6228 7.25527C22.6228 8.08542 21.9475 8.76077 21.1173 8.76077H20.4537C20.0001 8.76077 19.6326 9.12839 19.6326 9.58184V12.186H19.4243L18.8538 8.24098C18.6313 6.7045 19.0867 5.15018 20.1028 3.97649Z" fill="#B38339"/>
<path d="M27.9884 16.1584C27.5555 16.5913 26.98 16.8296 26.3678 16.8296C25.7556 16.8296 25.1801 16.5913 24.7474 16.1584C24.4267 15.8379 23.9068 15.8378 23.5863 16.1584C23.2655 16.4791 23.2655 16.999 23.5862 17.3196C24.3292 18.0626 25.3171 18.4718 26.3678 18.4718C27.4186 18.4718 28.4065 18.0626 29.1496 17.3196C29.4702 16.999 29.4702 16.4791 29.1496 16.1585C28.8289 15.8379 28.3091 15.8379 27.9884 16.1584Z" fill="#B38339"/>
<path d="M24.824 14.5615C25.2775 14.5615 25.645 14.1939 25.645 13.7405V12.5457C25.645 12.0922 25.2775 11.7246 24.824 11.7246C24.3704 11.7246 24.0029 12.0922 24.0029 12.5457V13.7405C24.0029 14.1939 24.3704 14.5615 24.824 14.5615Z" fill="#B38339"/>
<path d="M27.9109 14.5615C28.3645 14.5615 28.732 14.1939 28.732 13.7405V12.5457C28.732 12.0922 28.3645 11.7246 27.9109 11.7246C27.4574 11.7246 27.0898 12.0922 27.0898 12.5457V13.7405C27.0898 14.1939 27.4575 14.5615 27.9109 14.5615Z" fill="#B38339"/>
<path d="M3.17756 38.1022H3.46964C3.49482 39.8738 4.19754 41.5334 5.45793 42.7843C6.72926 44.0463 8.41222 44.7392 10.2021 44.7392C10.2193 44.7392 10.2366 44.7392 10.2539 44.7391C13.8824 44.712 16.8426 41.7505 16.9336 38.1022H17.2277C17.9933 38.1022 18.7125 37.8044 19.2533 37.2638C19.7941 36.7232 20.0918 36.0042 20.0918 35.2393C20.0918 34.3729 19.7046 33.5958 19.0947 33.0701V28.2629C19.0947 24.0796 15.6913 20.6763 11.508 20.6763H9.10826C8.65471 20.6763 8.2872 21.0439 8.2872 21.4973C8.2872 21.9508 8.65471 22.3184 9.10826 22.3184H11.508C14.7857 22.3184 17.4526 24.9851 17.4526 28.2629V32.385C17.3783 32.3792 17.3035 32.3753 17.2277 32.3753H16.938V29.771C16.938 29.5087 16.8126 29.2622 16.6007 29.1076C16.3887 28.9529 16.1158 28.909 15.8659 28.9893C13.0938 29.8795 10.4177 29.6967 7.91181 28.446C6.01154 27.4976 4.92052 26.2569 4.91099 26.246C4.68788 25.9866 4.32716 25.8929 4.00552 26.0109C3.68421 26.1289 3.46975 26.4339 3.46756 26.7762C3.46745 26.797 3.46734 29.7414 3.46734 29.7709V32.3752H3.17767C3.10246 32.3752 3.02791 32.3789 2.95369 32.3846V28.2629C2.95369 25.9848 4.22239 23.9426 6.26465 22.9329C6.67113 22.732 6.83764 22.2395 6.63676 21.833C6.43587 21.4265 5.94334 21.2598 5.53675 21.4609C2.93048 22.7494 1.31145 25.3558 1.31145 28.2629V33.0667C1.25682 33.1136 1.20329 33.1622 1.15184 33.2137C0.611249 33.7544 0.313477 34.4738 0.313477 35.2393C0.313477 36.8178 1.59838 38.1022 3.17756 38.1022ZM17.2277 34.0173C17.9015 34.0173 18.4497 34.5655 18.4497 35.2393C18.4497 35.5655 18.3228 35.8722 18.0922 36.1026C17.8617 36.3332 17.5546 36.4602 17.2277 36.4602H16.938V34.0175H17.2277V34.0173ZM5.10947 29.7709C5.10947 29.7641 5.10947 29.2351 5.10947 28.6245C5.64108 29.0302 6.31238 29.477 7.11253 29.8821C8.93847 30.8069 11.7793 31.6695 15.2959 30.8498V37.9297C15.2959 40.7582 13.0286 43.0762 10.2418 43.097C8.87081 43.1099 7.58547 42.5822 6.61486 41.6189C5.64415 40.6554 5.10947 39.3716 5.10947 38.0039V29.7709ZM3.46734 34.0173V36.4601H3.17767C2.50385 36.4601 1.95571 35.9125 1.95571 35.2393C1.95571 34.9124 2.0827 34.6053 2.31315 34.3749C2.5437 34.1444 2.85078 34.0175 3.17767 34.0175H3.46734V34.0173Z" fill="#B38339"/>
<path d="M10.2027 38.6594C11.2101 38.6594 12.2175 38.276 12.9843 37.509C13.3051 37.1884 13.3051 36.6686 12.9844 36.348C12.6638 36.0273 12.1439 36.0273 11.8234 36.348C10.9297 37.2414 9.4761 37.2415 8.58223 36.348C8.26169 36.0272 7.74179 36.0273 7.42114 36.348C7.10049 36.6686 7.10049 37.1885 7.42125 37.509C8.18801 38.2759 9.1954 38.6594 10.2027 38.6594Z" fill="#B38339"/>
<path d="M8.65993 34.7505C9.11348 34.7505 9.48099 34.3829 9.48099 33.9294V32.7346C9.48099 32.2812 9.11348 31.9136 8.65993 31.9136C8.20637 31.9136 7.83887 32.2812 7.83887 32.7346V33.9294C7.83887 34.3829 8.20637 34.7505 8.65993 34.7505Z" fill="#B38339"/>
<path d="M11.7459 34.7505C12.1994 34.7505 12.5669 34.3829 12.5669 33.9294V32.7346C12.5669 32.2812 12.1994 31.9136 11.7459 31.9136C11.2923 31.9136 10.9248 32.2812 10.9248 32.7346V33.9294C10.9248 34.3829 11.2923 34.7505 11.7459 34.7505Z" fill="#B38339"/>
<path d="M33.8926 24.1935V25.5477C33.8926 26.8608 34.2444 28.1359 34.9119 29.255C34.9096 29.3026 34.9084 29.3504 34.9084 29.3985C34.9084 30.9801 36.1956 32.2667 37.7778 32.2667H38.0729C38.0976 34.0433 38.802 35.7074 40.0658 36.9619C41.3402 38.2268 43.027 38.9214 44.821 38.9214C44.8382 38.9214 44.8556 38.9214 44.8729 38.9213C48.5105 38.8941 51.478 35.9245 51.5682 32.2668H51.8651C52.6322 32.2668 53.353 31.9685 53.8945 31.4269C54.4362 30.8853 54.7347 30.1649 54.7347 29.3986C54.7347 29.2974 54.7292 29.1975 54.719 29.099C55.328 28.0183 55.6492 26.7976 55.6492 25.5478V24.1936C55.6492 21.1415 53.7523 18.5259 51.0763 17.4585C51.1014 17.2913 51.1144 17.1216 51.1144 16.9496C51.1144 16.041 50.7604 15.1864 50.117 14.543C49.4739 13.901 48.6195 13.5474 47.7113 13.5474H41.8305C39.9544 13.5474 38.4282 15.0736 38.4282 16.9496C38.4282 17.1215 38.4413 17.2912 38.4662 17.4581C35.7898 18.5252 33.8926 21.1411 33.8926 24.1935ZM36.5505 29.3984C36.5505 29.0699 36.6781 28.7615 36.9096 28.5299C37.141 28.2985 37.4494 28.1709 37.7778 28.1709H38.0706V30.6245H37.7778C37.1011 30.6246 36.5505 30.0745 36.5505 29.3984ZM49.9303 32.0958C49.9303 34.933 47.6561 37.2581 44.8607 37.2789C44.8475 37.279 44.8345 37.279 44.8214 37.279C43.4638 37.279 42.187 36.7533 41.2227 35.7962C40.2489 34.8298 39.7127 33.542 39.7127 32.1703V26.8845C41.7923 26.718 43.67 25.6024 44.8215 23.9067C45.973 25.6023 47.8508 26.718 49.9303 26.8845V32.0958ZM52.7333 30.2655C52.5019 30.4971 52.1934 30.6245 51.865 30.6245H51.5724V28.171H51.865C52.5419 28.171 53.0924 28.7216 53.0924 29.3984C53.0925 29.7261 52.965 30.0341 52.7333 30.2655ZM54.007 24.1935V25.5477C54.007 26.1245 53.9183 26.693 53.7473 27.2352C53.2431 26.7959 52.5848 26.5289 51.865 26.5289H51.5724V26.0852C51.5724 25.6318 51.2049 25.2641 50.7513 25.2641H50.4727C48.2919 25.2641 46.3315 23.8853 45.5941 21.833C45.477 21.507 45.1677 21.2895 44.8214 21.2895C44.4749 21.2895 44.1658 21.507 44.0486 21.833C43.3114 23.8853 41.3508 25.2641 39.1702 25.2641H38.8915C38.438 25.2641 38.0705 25.6318 38.0705 26.0852V26.5289H37.7777C37.042 26.5289 36.3492 26.804 35.8158 27.3045C35.6305 26.7421 35.5345 26.1502 35.5345 25.5477V24.1935C35.5345 21.1016 38.05 18.5862 41.1418 18.5862H48.3996C51.4916 18.5863 54.007 21.1017 54.007 24.1935ZM40.0703 16.9495C40.0703 15.9789 40.8599 15.1894 41.8304 15.1894H47.7112C48.1813 15.1894 48.6235 15.3725 48.9561 15.7046C49.2889 16.0374 49.4722 16.4794 49.4722 16.9495C49.4722 16.9745 49.4695 16.9988 49.4685 17.0234C49.1196 16.9716 48.7628 16.944 48.3997 16.944H41.1419C40.7791 16.944 40.4227 16.9716 40.074 17.0233C40.073 16.9987 40.0703 16.9745 40.0703 16.9495Z" fill="#B38339"/>
<path d="M46.4481 31.7263C46.0138 32.1607 45.4363 32.4001 44.8219 32.4001C44.2076 32.4001 43.6299 32.1607 43.1956 31.7263C42.8749 31.4057 42.3551 31.4057 42.0344 31.7263C41.7138 32.047 41.7138 32.5669 42.0344 32.8874C42.7791 33.632 43.7691 34.0421 44.822 34.0421C45.875 34.0421 46.865 33.632 47.6096 32.8874C47.9302 32.5668 47.9302 32.0469 47.6095 31.7262C47.2888 31.4057 46.7689 31.4057 46.4481 31.7263Z" fill="#B38339"/>
<path d="M43.2742 30.1208C43.7278 30.1208 44.0953 29.7531 44.0953 29.2997V28.1018C44.0953 27.6484 43.7278 27.2808 43.2742 27.2808C42.8206 27.2808 42.4531 27.6484 42.4531 28.1018V29.2997C42.4531 29.7532 42.8206 30.1208 43.2742 30.1208Z" fill="#B38339"/>
<path d="M46.3689 30.1208C46.8225 30.1208 47.19 29.7531 47.19 29.2997V28.1018C47.19 27.6484 46.8225 27.2808 46.3689 27.2808C45.9154 27.2808 45.5479 27.6484 45.5479 28.1018V29.2997C45.5479 29.7532 45.9154 30.1208 46.3689 30.1208Z" fill="#B38339"/>
</svg>
