<svg width="56" height="57" viewBox="0 0 56 57" fill="none" xmlns="http://www.w3.org/2000/svg">
<path d="M4.60336 36.1345H26.8191C27.2738 36.1345 27.6422 35.7659 27.6422 35.3114C27.6422 34.8568 27.2738 34.4883 26.8191 34.4883H4.60336C4.14869 34.4883 3.78027 34.8568 3.78027 35.3114C3.78027 35.7659 4.1488 36.1345 4.60336 36.1345Z" fill="#B38339"/>
<path d="M24.6082 43.7017C24.8125 44.4029 25.0236 45.1281 25.7481 45.1281C26.1395 45.1281 26.4061 45.1281 29.5192 41.4937C30.4383 42.529 32.0928 44.1017 33.6636 44.1015C33.7492 44.1015 33.835 44.0968 33.92 44.0871C34.858 43.9799 35.6146 43.3512 36.2823 42.7965C37.5049 41.7807 37.7241 41.792 38.2077 42.2895C40.0145 44.1479 42.2179 43.517 43.1302 42.9237C43.5115 42.6759 43.6223 42.1644 43.3746 41.7832C43.1269 41.402 42.6197 41.2922 42.2386 41.5399C42.0818 41.6382 40.6706 42.4614 39.3879 41.142C38.4803 40.2084 37.5794 40.2317 36.9832 40.4157C36.3285 40.6178 35.7701 41.0817 35.2302 41.5304C34.7156 41.958 34.1833 42.4001 33.7329 42.4516C32.8172 42.5569 31.073 40.8805 30.1829 39.7152C30.0318 39.5169 29.7989 39.3977 29.5496 39.3912C29.301 39.3852 29.0616 39.4915 28.9004 39.6816C27.9329 40.8224 26.8146 42.095 26.0856 42.8749C25.8154 41.8608 25.448 40.2386 25.1561 38.8067C25.0826 38.4462 24.7788 38.1782 24.4119 38.1504C24.0428 38.1219 23.7043 38.3418 23.5772 38.687L21.5577 44.1762C21.4007 44.6029 21.6194 45.0759 22.0459 45.2329C22.1396 45.2673 22.2357 45.2837 22.33 45.2837C22.6652 45.2837 22.9802 45.0775 23.1027 44.7446L24.1485 41.9017C24.3251 42.6545 24.4796 43.2599 24.6082 43.7017Z" fill="#B38339"/>
<path d="M4.60336 32.4318H26.8191C27.2738 32.4318 27.6422 32.0633 27.6422 31.6087C27.6422 31.1542 27.2738 30.7856 26.8191 30.7856H4.60336C4.14869 30.7856 3.78027 31.1542 3.78027 31.6087C3.78027 32.0633 4.1488 32.4318 4.60336 32.4318Z" fill="#B38339"/>
<path d="M5.8549 28.7637H34.2846C35.4286 28.7637 36.3593 27.8331 36.3593 26.6891V24.29C36.3593 23.146 35.4286 22.2153 34.2846 22.2153H5.8549C4.71091 22.2153 3.78027 23.146 3.78027 24.29V26.6891C3.78016 27.833 4.71091 28.7637 5.8549 28.7637ZM5.42634 24.2899C5.42634 24.0536 5.61862 23.8614 5.85479 23.8614H34.2845C34.5208 23.8614 34.713 24.0536 34.713 24.2899V26.689C34.713 26.9253 34.5208 27.1174 34.2845 27.1174H5.8549C5.61873 27.1174 5.42645 26.9253 5.42645 26.689V24.2899H5.42634Z" fill="#B38339"/>
<path d="M50.459 43.2563C50.0043 43.2563 49.6359 43.6249 49.6359 44.0794V46.0296C49.6359 46.5107 49.2445 46.9021 48.7634 46.9021H24.3231C23.8684 46.9021 23.5 47.2706 23.5 47.7252C23.5 48.1798 23.8684 48.5483 24.3231 48.5483H48.7634C50.1522 48.5483 51.282 47.4185 51.282 46.0296V44.0794C51.282 43.6249 50.9136 43.2563 50.459 43.2563Z" fill="#B38339"/>
<path d="M55.422 14.6462C54.9231 13.8493 54.1588 13.2563 53.2518 12.9537L53.5352 11.8879C53.7078 11.2394 53.602 10.5616 53.2375 9.9794C52.8841 9.4152 52.3272 9.00804 51.6691 8.833L50.9582 8.6439C49.5785 8.27703 48.1713 9.05062 47.8209 10.368L45.5002 19.0935H2.51745C1.12939 19.0936 0 20.2235 0 21.6123V46.0296C0 47.4184 1.12939 48.5482 2.51745 48.5482H20.5914C21.0461 48.5482 21.4145 48.1797 21.4145 47.7251C21.4145 47.2706 21.0461 46.902 20.5914 46.902H2.51745C2.03698 46.902 1.64618 46.5107 1.64618 46.0296V21.6123C1.64618 21.1313 2.03709 20.7398 2.51745 20.7398H45.0625L44.4783 22.9366C44.4777 22.9386 44.477 22.9404 44.4764 22.9424C44.4759 22.9444 44.4756 22.9464 44.4751 22.9485L42.7872 29.2947C42.7868 29.2962 42.7861 29.2977 42.7858 29.2992C42.7855 29.3007 42.7852 29.3023 42.7848 29.3038L42.0384 32.11C41.7361 33.2472 42.3187 34.423 43.3705 34.9598L42.7805 37.1778C42.6637 37.6171 42.925 38.068 43.3644 38.1849C43.4353 38.2037 43.5064 38.2127 43.5765 38.2127C43.9404 38.2127 44.2735 37.9694 44.3714 37.601L44.9513 35.4209C45.0721 35.4374 45.1931 35.4459 45.3135 35.4459C45.743 35.4459 46.1654 35.3421 46.5461 35.1382C47.1517 34.814 47.5801 34.2784 47.7525 33.6298L48.4997 30.8205C48.4998 30.8201 48.5 30.8196 48.5002 30.8191C48.5004 30.8183 48.5006 30.8174 48.5008 30.8167L49.6355 26.55V40.3482C49.6355 40.8027 50.004 41.1712 50.4586 41.1712C50.9133 41.1712 51.2817 40.8027 51.2817 40.3482V21.6124C51.2817 21.3432 51.2396 21.081 51.1571 20.8294L52.8272 14.55C53.3291 14.7399 53.7494 15.0771 54.0261 15.5191C54.3378 16.0182 54.4304 16.5902 54.2869 17.1299L52.9308 22.2287C52.814 22.6681 53.0753 23.1189 53.5146 23.2358C53.5855 23.2546 53.6566 23.2636 53.7267 23.2636C54.0907 23.2636 54.4237 23.0203 54.5216 22.6519L55.8778 17.553C56.1395 16.5685 55.9778 15.5366 55.422 14.6462ZM46.1619 33.2066C46.1079 33.4096 45.9685 33.58 45.7694 33.6867C45.5519 33.8033 45.2921 33.8305 45.0387 33.763L44.3278 33.5739C43.8256 33.4403 43.5123 32.9734 43.6294 32.533L44.1654 30.5177L46.6979 31.1913L46.1619 33.2066ZM47.1209 29.6005L44.5885 28.9269L45.856 24.1611L48.3885 24.8346L47.1209 29.6005ZM48.8116 23.2437L46.2791 22.5702L49.4118 10.7913C49.5075 10.4313 49.8616 10.1989 50.262 10.1989C50.3514 10.1989 51.2459 10.424 51.2459 10.424C51.4993 10.4914 51.711 10.6438 51.8422 10.8531C51.9621 11.0446 51.9984 11.2618 51.9444 11.4648L48.8116 23.2437Z" fill="#B38339"/>
</svg>
