<svg width="56" height="57" viewBox="0 0 56 57" fill="none" xmlns="http://www.w3.org/2000/svg">
<g clip-path="url(#clip0_55_6632)">
<path d="M51.6484 39.1831C52.3708 39.1831 52.9585 38.5968 52.9585 37.8761V35.6054H54.6774C55.4066 35.6054 55.9998 35.012 55.9998 34.2828V31.2817C55.9998 30.5525 55.4065 29.9591 54.6774 29.9591H52.3137V20.9425C52.5451 21.0001 52.7823 21.0305 53.0214 21.0305C53.2811 21.0305 53.5427 20.9963 53.8006 20.9269C54.5689 20.7205 55.2089 20.229 55.6011 19.5454C55.9974 18.8607 56.1024 18.0603 55.8968 17.2916C55.691 16.5225 55.1998 15.8809 54.5138 15.4851L29.5934 1.09768C29.1371 0.832223 28.586 0.691895 27.9997 0.691895C27.4135 0.691895 26.8623 0.832223 26.4084 1.09636L1.48469 15.4854C0.065767 16.3067 -0.421608 18.1275 0.39772 19.5444C0.793658 20.2305 1.4346 20.7217 2.20274 20.9275C2.69777 21.06 3.20614 21.0629 3.68892 20.9426V29.959H1.32522C0.595908 29.959 0.0026576 30.5524 0.0026576 31.2816V34.2827C0.0026576 35.0119 0.596017 35.6053 1.32522 35.6053H3.04394V37.876C3.04394 38.5968 3.6303 39.183 4.35097 39.183H5.33819V47.1845H4.35097C3.6303 47.1845 3.04394 47.7721 3.04394 48.4946V50.7622H1.32522C0.595908 50.7622 0.0026576 51.3556 0.0026576 52.0848V55.0859C0.0026576 55.8151 0.596017 56.4085 1.32522 56.4085H26.2884C26.7415 56.4085 27.1087 56.0412 27.1087 55.5882C27.1087 55.1351 26.7416 54.7679 26.2884 54.7679H1.64317V52.4028H54.3593V54.7679H30.0738C29.6208 54.7679 29.2535 55.1351 29.2535 55.5882C29.2535 56.0412 29.6206 56.4085 30.0738 56.4085H54.6774C55.4066 56.4085 55.9998 55.8151 55.9998 55.0859V52.0848C55.9998 51.3556 55.4065 50.7622 54.6774 50.7622H52.9585V48.4946C52.9585 47.7721 52.3708 47.1845 51.6484 47.1845H50.6613V39.183H51.6484V39.1831ZM3.6373 19.2115C3.33039 19.3885 2.97186 19.435 2.62711 19.3427C2.28269 19.2504 1.99547 19.0309 1.81872 18.7244C1.8185 18.7241 1.81839 18.7239 1.81817 18.7236C1.45111 18.0893 1.67019 17.2736 2.30577 16.9057L27.231 2.51583C27.4312 2.39935 27.7114 2.33252 27.9997 2.33252C28.2923 2.33252 28.5653 2.3976 28.7708 2.51714L53.694 16.906C54.0002 17.0827 54.2197 17.3703 54.3122 17.7157C54.4045 18.0606 54.358 18.4186 54.1799 18.7263C54.0048 19.0313 53.719 19.2502 53.375 19.3427C53.0302 19.4354 52.6719 19.3891 52.3656 19.2118L28.4099 5.38102C28.283 5.30774 28.1413 5.2711 27.9997 5.2711C27.8581 5.2711 27.7164 5.30774 27.5895 5.38102L3.6373 19.2115ZM1.64317 31.5997H26.2884C26.7415 31.5997 27.1087 31.2324 27.1087 30.7794C27.1087 30.3264 26.7416 29.9591 26.2884 29.9591H5.32944V20.1288L27.9997 7.0386L50.6731 20.1289V29.9591H29.9374C29.4844 29.9591 29.1171 30.3264 29.1171 30.7794C29.1171 31.2324 29.4843 31.5997 29.9374 31.5997H54.3593V33.9647H1.64317V31.5997ZM22.914 37.5425V35.6054H33.0854V37.5425H22.914ZM30.7881 39.1831V47.1846H25.2113V39.1831H30.7881ZM4.68456 37.5425V35.6054H14.8528V37.5425H4.68456ZM12.5587 39.1831V47.1846H6.97881V39.1831H12.5587ZM14.8528 50.7623H4.68456V48.8252H14.8528V50.7623ZM21.2734 48.4947V50.7623H16.4933V48.4947C16.4933 47.7722 15.9071 47.1846 15.1863 47.1846H14.1992V39.1831H15.1863C15.9071 39.1831 16.4933 38.5968 16.4933 37.8761V35.6054H21.2734V37.8761C21.2734 38.5969 21.8611 39.1831 22.5835 39.1831H23.5707V47.1846H22.5835C21.8611 47.1846 21.2734 47.7722 21.2734 48.4947ZM33.0854 50.7623H22.914V48.8252H33.0854V50.7623ZM39.506 48.4947V50.7623H34.7259V48.4947C34.7259 47.7722 34.1382 47.1846 33.4158 47.1846H32.4287V39.1831H33.4158C34.1382 39.1831 34.7259 38.5968 34.7259 37.8761V35.6054H39.506V37.8761C39.506 38.5969 40.0937 39.1831 40.8162 39.1831H41.8033V47.1846H40.8162C40.0937 47.1846 39.506 47.7722 39.506 48.4947ZM51.318 48.8252V50.7623H41.1466V48.8252H51.318ZM43.4439 47.1846V39.1831H49.0207V47.1846H43.4439ZM41.1466 37.5425V35.6054H51.318V37.5425H41.1466Z" fill="#B38339"/>
<path d="M31.5672 13.5664C31.5672 11.6661 30.0213 10.1201 28.121 10.1201C26.2207 10.1201 24.6748 11.6661 24.6748 13.5664C24.6748 15.4667 26.2207 17.0127 28.121 17.0127C30.0213 17.0127 31.5672 15.4667 31.5672 13.5664ZM26.3154 13.5664C26.3154 12.5708 27.1255 11.7607 28.121 11.7607C29.1165 11.7607 29.9266 12.5708 29.9266 13.5664C29.9266 14.5621 29.1165 15.3721 28.121 15.3721C27.1255 15.3721 26.3154 14.5621 26.3154 13.5664Z" fill="#B38339"/>
<path d="M18.1043 23C18.3294 22.6461 18.4618 22.2275 18.4618 21.7779C18.4618 20.5173 17.4361 19.4917 16.1756 19.4917H14.3252C13.8721 19.4917 13.5049 19.859 13.5049 20.312V23.2453V23.25V26.6823C13.5049 26.9005 13.5918 27.1098 13.7465 27.2637C13.9002 27.4168 14.1083 27.5027 14.3252 27.5027H14.3288C14.3288 27.5027 16.0299 27.4951 16.4988 27.4951C17.8965 27.4951 19.0338 26.3579 19.0338 24.9601C19.0337 24.1712 18.6713 23.4654 18.1043 23ZM16.1756 21.1324C16.5316 21.1324 16.8211 21.4219 16.8211 21.778C16.8211 22.134 16.5316 22.4235 16.1756 22.4235C16.0403 22.4235 15.1455 22.4252 15.1455 22.4252V21.1325H16.1756V21.1324ZM16.4988 25.8546C16.2492 25.8546 15.6516 25.8568 15.1455 25.8587V24.0671C15.2664 24.0666 16.4988 24.0658 16.4988 24.0658C16.992 24.0658 17.3932 24.4669 17.3932 24.9602C17.3931 25.4534 16.9919 25.8546 16.4988 25.8546Z" fill="#B38339"/>
<path d="M24.7266 20.1119C24.7238 20.1045 24.7209 20.0972 24.718 20.0899C24.5687 19.7264 24.2186 19.4917 23.8258 19.4917C23.8255 19.4917 23.8253 19.4917 23.8252 19.4917C23.432 19.4919 23.0818 19.7272 22.9328 20.091C22.9303 20.0972 22.9278 20.1034 22.9255 20.1097L20.5335 26.3903C20.3721 26.8137 20.5848 27.2876 21.0081 27.4488C21.431 27.6102 21.9053 27.3977 22.0667 26.9743L22.4612 25.9384H25.1722L25.5622 26.972C25.6861 27.3004 25.9983 27.5029 26.3298 27.5029C26.426 27.5029 26.5239 27.4858 26.6193 27.4498C27.0431 27.2898 27.2571 26.8165 27.097 26.3927L24.7266 20.1119ZM23.0859 24.2979L23.8228 22.3632L24.5529 24.2979H23.0859Z" fill="#B38339"/>
<path d="M34.0815 19.4917C34.0789 19.4917 34.076 19.4917 34.0734 19.4917C33.6203 19.4961 33.2566 19.8669 33.261 20.3199L33.2978 24.1237L30.3518 19.8578C30.1479 19.5624 29.7758 19.4341 29.4326 19.5408C29.09 19.6477 28.8564 19.965 28.8564 20.3239V26.6824C28.8564 27.1355 29.2236 27.5028 29.6768 27.5028C30.1299 27.5028 30.4971 27.1355 30.4971 26.6824V22.9554L33.3012 27.0159C33.5411 27.3628 33.9422 27.5104 34.3225 27.3915C34.7104 27.2704 34.9611 26.9079 34.9611 26.4599L34.9016 20.3041C34.8972 19.8537 34.5308 19.4917 34.0815 19.4917Z" fill="#B38339"/>
<path d="M42.4322 26.0922L39.5669 23.3278L42.1888 20.9179C42.5224 20.6113 42.5443 20.0923 42.2376 19.7587C41.9312 19.4252 41.4121 19.4033 41.0786 19.7099L38.9844 21.6349V20.2324C38.9844 19.7794 38.6172 19.4121 38.1641 19.4121C37.7109 19.4121 37.3438 19.7794 37.3438 20.2324V26.6825C37.3438 27.1355 37.7109 27.5028 38.1641 27.5028C38.6172 27.5028 38.9844 27.1355 38.9844 26.6825V25.0454L41.2932 27.2729C41.4523 27.4265 41.6576 27.5029 41.8626 27.5029C42.0775 27.5029 42.2921 27.419 42.453 27.2522C42.7677 26.9261 42.7584 26.4067 42.4322 26.0922Z" fill="#B38339"/>
</g>
<defs>
<clipPath id="clip0_55_6632">
<rect width="56" height="56" fill="white" transform="translate(0 0.550293)"/>
</clipPath>
</defs>
</svg>
