<svg width="56" height="57" viewBox="0 0 56 57" fill="none" xmlns="http://www.w3.org/2000/svg">
<g clip-path="url(#clip0_55_6649)">
<path d="M11.3298 50.6209C11.373 50.6209 11.4163 50.6175 11.4598 50.6105C11.7195 50.5689 11.9436 50.4051 12.0622 50.1702L17.7279 38.9456C17.932 38.5411 17.7697 38.0478 17.3653 37.8436C16.961 37.6393 16.4675 37.8018 16.2634 38.2063L11.1084 48.4189L7.09963 44.41C6.77927 44.0896 6.25996 44.0896 5.93949 44.41C5.61913 44.7303 5.61913 45.2497 5.93949 45.57L10.7499 50.3805C10.9048 50.5357 11.1139 50.6209 11.3298 50.6209Z" fill="#B38339"/>
<path d="M48.1605 24.314H26.0469C25.5937 24.314 25.2266 24.6812 25.2266 25.1343C25.2266 25.5873 25.5937 25.9546 26.0469 25.9546H48.1605C48.6137 25.9546 48.9808 25.5873 48.9808 25.1343C48.9808 24.6812 48.6137 24.314 48.1605 24.314Z" fill="#B38339"/>
<path d="M48.1603 29.4375H44.9326C44.4795 29.4375 44.1123 29.8048 44.1123 30.2578C44.1123 30.7108 44.4795 31.0781 44.9326 31.0781H48.1603C48.6134 31.0781 48.9806 30.7108 48.9806 30.2578C48.9806 29.8048 48.6134 29.4375 48.1603 29.4375Z" fill="#B38339"/>
<path d="M41.6511 29.4375H20.335C19.8818 29.4375 19.5146 29.8048 19.5146 30.2578C19.5146 30.7108 19.8818 31.0781 20.335 31.0781H41.6511C42.1042 31.0781 42.4714 30.7108 42.4714 30.2578C42.4714 29.8048 42.1042 29.4375 41.6511 29.4375Z" fill="#B38339"/>
<path d="M22.556 16.0259C22.9786 16.1872 23.4532 15.9747 23.6145 15.5513L24.0652 14.3678H27.139L27.5848 15.5489C27.7087 15.8775 28.0209 16.0798 28.3524 16.0798C28.4486 16.0798 28.5465 16.0627 28.6419 16.0268C29.0657 15.8667 29.2797 15.3935 29.1197 14.9697L26.5255 8.09586C26.5228 8.08832 26.5197 8.08088 26.5167 8.07344C26.3652 7.70507 26.0101 7.46729 25.612 7.46729C25.6118 7.46729 25.6115 7.46729 25.6111 7.46729C25.2125 7.46761 24.8574 7.70627 24.7065 8.07519C24.704 8.08143 24.7015 8.08766 24.6992 8.0939L22.0813 14.9674C21.92 15.3907 22.1326 15.8647 22.556 16.0259ZM25.6092 10.3141L26.5198 12.7271H24.6901L25.6092 10.3141Z" fill="#B38339"/>
<path d="M30.1897 15.9296C30.3333 16.0308 30.4981 16.0794 30.6614 16.0794C30.9192 16.0794 31.1731 15.9582 31.3329 15.7314L33.2919 12.9506L35.2478 15.731C35.4075 15.9581 35.6614 16.0794 35.9195 16.0794C36.0825 16.0794 36.2472 16.0309 36.3908 15.93C36.7614 15.6693 36.8504 15.1576 36.5896 14.787L34.2955 11.5259L36.2442 8.75966C36.5051 8.38932 36.4163 7.87756 36.0459 7.61659C35.6753 7.35562 35.1639 7.44443 34.9028 7.81477L33.2927 10.1004L31.6851 7.81521C31.4246 7.44476 30.9132 7.35551 30.5423 7.61626C30.1717 7.8769 30.0827 8.38866 30.3434 8.75923L32.2891 11.5251L29.9916 14.7866C29.7306 15.157 29.8194 15.6688 30.1897 15.9296Z" fill="#B38339"/>
<path d="M20.7356 15.2593V9.10791H21.8482C22.3013 9.10791 22.6685 8.74063 22.6685 8.2876C22.6685 7.83457 22.3013 7.46729 21.8482 7.46729H17.998C17.5449 7.46729 17.1777 7.83457 17.1777 8.2876C17.1777 8.74063 17.5449 9.10791 17.998 9.10791H19.095V15.2593C19.095 15.7123 19.4621 16.0796 19.9153 16.0796C20.3684 16.0796 20.7356 15.7123 20.7356 15.2593Z" fill="#B38339"/>
<path d="M52.3123 12.5395L44.4766 4.70391C42.0985 2.32588 38.9365 1.01611 35.5731 1.01611H16.0497C14.0896 1.01611 12.495 2.6108 12.495 4.5708V31.4051C9.7745 31.3722 7.11494 32.2346 4.941 33.8685C4.57875 34.1408 4.5058 34.6549 4.77814 35.0171C5.05037 35.3793 5.56466 35.4522 5.92669 35.1801C7.96609 33.6472 10.4993 32.8967 13.0605 33.0678C15.645 33.2401 18.0785 34.3448 19.9125 36.1783C24.0851 40.3522 24.0851 47.1425 19.9126 51.3151C15.7388 55.4878 8.94828 55.4878 4.77573 51.3152C2.94195 49.4814 1.83705 47.0486 1.66456 44.4649C1.49361 41.9048 2.24359 39.3713 3.77637 37.3315C4.0485 36.9692 3.97544 36.455 3.6133 36.1829C3.25127 35.9108 2.73687 35.9838 2.46475 36.346C0.695937 38.7 -0.169547 41.6221 0.027547 44.5743C0.2265 47.5546 1.50083 50.3605 3.61559 52.4753C6.02206 54.8818 9.18234 56.0848 12.3437 56.0846C14.8935 56.0844 17.4438 55.3007 19.598 53.7349H52.4453C54.4054 53.7349 56 52.1402 56 50.1802V21.443C56 18.0796 54.6903 14.9177 52.3123 12.5395ZM51.1521 13.6997C52.3479 14.8955 53.2323 16.3195 53.7664 17.8732C52.4255 16.5592 50.5912 15.7468 48.5698 15.7468H43.1834C42.1281 15.7468 41.2694 14.8881 41.2694 13.8328V8.4465C41.2694 6.42514 40.457 4.59071 39.1429 3.24977C40.6967 3.78374 42.1206 4.66814 43.3164 5.86405L51.1521 13.6997ZM54.3593 50.1802C54.3593 51.2355 53.5006 52.0942 52.4453 52.0942H21.4367C22.946 50.4519 23.929 48.4966 24.3851 46.4462H40.0148C40.468 46.4462 40.8351 46.0789 40.8351 45.6259C40.8351 45.1729 40.468 44.8056 40.0148 44.8056H24.6358C24.7349 43.6436 24.6707 42.4702 24.4428 41.3231H48.16C48.6131 41.3231 48.9803 40.9558 48.9803 40.5028C48.9803 40.0498 48.6131 39.6825 48.16 39.6825H23.9979C23.5704 38.4499 22.9424 37.2722 22.1135 36.2005H48.1602C48.6133 36.2005 48.9805 35.8332 48.9805 35.3802C48.9805 34.9272 48.6133 34.5599 48.1602 34.5599H20.5874C18.7782 32.9366 16.534 31.8856 14.1356 31.5345V4.5708C14.1356 3.51544 14.9943 2.65674 16.0497 2.65674L33.8391 2.65685C37.0315 2.65685 39.6287 5.25407 39.6287 8.4465V13.8328C39.6287 15.7928 41.2233 17.3875 43.1834 17.3875H48.5697C51.7621 17.3875 54.3593 19.9847 54.3593 23.1771V50.1802Z" fill="#B38339"/>
</g>
<defs>
<clipPath id="clip0_55_6649">
<rect width="56" height="56" fill="white" transform="translate(0 0.550293)"/>
</clipPath>
</defs>
</svg>
