<svg width="56" height="56" viewBox="0 0 56 56" fill="none" xmlns="http://www.w3.org/2000/svg">
<g clip-path="url(#clip0_202_4732)">
<path d="M5.4902 10.4314H12.0784V14.8236H5.4902V10.4314Z" fill="#7CCCBF"/>
<path d="M43.9216 10.4314H50.5098V14.8236H43.9216V10.4314Z" fill="#7CCCBF"/>
<path d="M8.78433 14.8235H47.2157V49.9608H8.78433V14.8235Z" fill="#7CCCBF"/>
<path d="M51.6078 13.7255H38.4314V9.33332C38.4314 6.91148 36.461 4.94116 34.0392 4.94116H21.9608C19.5389 4.94116 17.5686 6.91148 17.5686 9.33332V13.7255H4.39216C1.97032 13.7255 0 15.6958 0 18.1176V46.6667C0 49.0885 1.97032 51.0588 4.39216 51.0588H51.6078C54.0297 51.0588 56 49.0885 56 46.6667V18.1176C56 15.6958 54.0297 13.7255 51.6078 13.7255ZM19.7647 9.33332C19.7647 8.1224 20.7499 7.13724 21.9608 7.13724H34.0392C35.2501 7.13724 36.2353 8.1224 36.2353 9.33332V13.7255H34.0392V10.4314C34.0392 9.82502 33.5475 9.33332 32.9412 9.33332H23.0588C22.4524 9.33332 21.9608 9.82502 21.9608 10.4314V13.7255H19.7647V9.33332ZM31.8431 13.7255H24.1569V11.5294H31.8431V13.7255ZM53.8039 46.6667C53.8039 47.8776 52.8187 48.8627 51.6078 48.8627H4.39216C3.18124 48.8627 2.19608 47.8776 2.19608 46.6667V18.1176C2.19608 16.9067 3.18124 15.9216 4.39216 15.9216H51.6078C52.8187 15.9216 53.8039 16.9067 53.8039 18.1176V46.6667Z" fill="white"/>
<path d="M32.0613 32.3777L32.0113 32.0281C31.7282 30.0448 30.0036 28.5491 28 28.5491C25.9964 28.5491 24.2718 30.0448 23.9886 32.0281L23.9387 32.3778C22.0638 32.7865 20.6554 34.4595 20.6554 36.4551C20.6554 38.7558 22.5273 40.6276 24.828 40.6276C24.8693 40.6276 24.9104 40.6252 24.9515 40.6206C25.0346 40.6111 25.1105 40.5948 25.2361 40.5675C27.1369 40.1562 29.0508 40.167 30.9253 40.5995C31.0062 40.6182 31.089 40.6276 31.1721 40.6276C33.4729 40.6276 35.3448 38.7558 35.3448 36.4551C35.3448 34.4592 33.9365 32.7863 32.0613 32.3777V32.3777ZM31.2814 38.4284C29.1335 37.9533 26.9439 37.9508 24.7715 38.4212C24.7582 38.4241 24.7458 38.4268 24.7342 38.4293C23.6878 38.3802 22.8515 37.5135 22.8515 36.4551C22.8515 35.3653 23.7382 34.4786 24.828 34.4786C25.4147 34.4786 25.9195 34.0407 26.0024 33.46L26.1626 32.3388C26.2923 31.4302 27.0822 30.7451 28 30.7451C28.9177 30.7451 29.7077 31.4302 29.8373 32.3388L29.9975 33.4598C30.0805 34.0406 30.5853 34.4785 31.172 34.4785C32.2619 34.4785 33.1486 35.3651 33.1486 36.4549C33.1487 37.5082 32.3207 38.3716 31.2814 38.4284Z" fill="white"/>
<path d="M21.639 28.7761C21.8433 28.572 21.9608 28.2887 21.9608 27.9999C21.9608 27.7111 21.8433 27.4278 21.639 27.2236C21.4348 27.0193 21.1515 26.9019 20.8627 26.9019C20.574 26.9019 20.2907 27.0192 20.0864 27.2236C19.8822 27.4278 19.7647 27.7111 19.7647 27.9999C19.7647 28.2887 19.8821 28.572 20.0864 28.7761C20.2907 28.9803 20.574 29.0979 20.8627 29.0979C21.1515 29.0979 21.4348 28.9804 21.639 28.7761Z" fill="white"/>
<path d="M35.1372 26.9019C34.8484 26.9019 34.5651 27.0192 34.3609 27.2236C34.1567 27.4278 34.0392 27.7111 34.0392 27.9999C34.0392 28.2887 34.1566 28.572 34.3609 28.7761C34.5651 28.9803 34.8484 29.0979 35.1372 29.0979C35.426 29.0979 35.7093 28.9804 35.9134 28.7761C36.1178 28.572 36.2353 28.2887 36.2353 27.9999C36.2353 27.7111 36.1178 27.4278 35.9134 27.2236C35.7093 27.0192 35.426 26.9019 35.1372 26.9019V26.9019Z" fill="white"/>
<path d="M25.2549 26.3528C25.5437 26.3528 25.827 26.2353 26.0311 26.031C26.2355 25.8269 26.3529 25.5436 26.3529 25.2548C26.3529 24.966 26.2355 24.6827 26.0311 24.4785C25.827 24.2742 25.5437 24.1567 25.2549 24.1567C24.9661 24.1567 24.6828 24.2741 24.4786 24.4785C24.2743 24.6827 24.1569 24.966 24.1569 25.2548C24.1569 25.5436 24.2742 25.8269 24.4786 26.031C24.6828 26.2353 24.9661 26.3528 25.2549 26.3528Z" fill="white"/>
<path d="M30.7451 26.3528C31.0339 26.3528 31.3172 26.2353 31.5213 26.031C31.7256 25.8269 31.8431 25.5436 31.8431 25.2548C31.8431 24.966 31.7256 24.6827 31.5213 24.4785C31.3172 24.2742 31.0339 24.1567 30.7451 24.1567C30.4563 24.1567 30.173 24.2741 29.9688 24.4785C29.7645 24.6827 29.647 24.966 29.647 25.2548C29.647 25.5436 29.7644 25.8269 29.9688 26.031C30.173 26.2353 30.4563 26.3528 30.7451 26.3528Z" fill="white"/>
</g>
<defs>
<clipPath id="clip0_202_4732">
<rect width="56" height="56" fill="white"/>
</clipPath>
</defs>
</svg>
