<svg width="14" height="14" viewBox="0 0 14 14" fill="none" xmlns="http://www.w3.org/2000/svg">
<path d="M14 7C14 10.866 10.866 14 7 14C3.13401 14 0 10.866 0 7C0 3.13401 3.13401 0 7 0C10.866 0 14 3.13401 14 7ZM7 3.0625C7 2.82088 6.80412 2.625 6.5625 2.625C6.32088 2.625 6.125 2.82088 6.125 3.0625V7.875C6.125 8.032 6.20913 8.17696 6.34544 8.25486L9.40794 10.0049C9.61773 10.1247 9.88498 10.0519 10.0049 9.84206C10.1247 9.63227 10.0518 9.36502 9.84206 9.24514L7 7.62111V3.0625Z" fill="#CCCDF1"/>
</svg>
