<svg width="9" height="8" viewBox="0 0 9 8" fill="none" xmlns="http://www.w3.org/2000/svg">
<path fill-rule="evenodd" clip-rule="evenodd" d="M0.195191 0.195191C0.32021 0.0702104 0.489748 0 0.666524 0C0.8433 0 1.01284 0.0702104 1.13786 0.195191L4.47119 3.52852C4.59617 3.65354 4.66638 3.82308 4.66638 3.99986C4.66638 4.17663 4.59617 4.34617 4.47119 4.47119L1.13786 7.80452C1.01212 7.92596 0.843721 7.99316 0.668923 7.99164C0.494126 7.99012 0.326917 7.92001 0.203312 7.7964C0.0797065 7.6728 0.00959371 7.50559 0.00807476 7.33079C0.00655581 7.15599 0.0737524 6.98759 0.195191 6.86186L3.05719 3.99986L0.195191 1.13786C0.0702104 1.01284 0 0.8433 0 0.666524C0 0.489748 0.0702104 0.32021 0.195191 0.195191ZM4.19519 0.195191C4.32021 0.0702104 4.48975 0 4.66652 0C4.8433 0 5.01284 0.0702104 5.13786 0.195191L8.47119 3.52852C8.59617 3.65354 8.66638 3.82308 8.66638 3.99986C8.66638 4.17663 8.59617 4.34617 8.47119 4.47119L5.13786 7.80452C5.01212 7.92596 4.84372 7.99316 4.66892 7.99164C4.49413 7.99012 4.32692 7.92001 4.20331 7.7964C4.07971 7.6728 4.00959 7.50559 4.00808 7.33079C4.00656 7.15599 4.07375 6.98759 4.19519 6.86186L7.05719 3.99986L4.19519 1.13786C4.07021 1.01284 4 0.8433 4 0.666524C4 0.489748 4.07021 0.32021 4.19519 0.195191Z" fill="#F600EC"/>
</svg>
