<svg width="18" height="18" viewBox="0 0 18 18" fill="none" xmlns="http://www.w3.org/2000/svg">
<g clip-path="url(#clip0_6026_18140)">
<path fill-rule="evenodd" clip-rule="evenodd" d="M10.7415 4.9354V8.8387C10.7372 8.90315 10.7483 8.96776 10.7739 9.02705C10.7994 9.08634 10.8387 9.13863 10.8885 9.17963C10.9383 9.22065 10.9971 9.24922 11.06 9.26288C11.123 9.27653 11.1882 9.27492 11.2504 9.2582C11.6089 9.23423 12.419 5.90252 12.7787 5.18345C12.9697 4.77378 13.2763 4.42927 13.6604 4.19237C13.7818 4.08289 13.9362 4.01744 14.0989 4.00658H17.5376C17.6305 4.02225 17.7178 4.06138 17.7913 4.12025C17.865 4.17912 17.9224 4.25578 17.9581 4.34306C17.994 4.43034 18.0072 4.52535 17.9963 4.61911C17.9855 4.71288 17.9509 4.80237 17.8961 4.87908C17.6273 5.4783 15.3212 9.20543 15.2017 9.35643C15.058 9.55129 14.961 9.77687 14.9185 10.0156C14.9658 10.2972 15.0956 10.5584 15.2914 10.7658C15.5304 11.0379 17.4612 13.1699 17.6416 13.3485C17.8115 13.5449 17.925 13.7839 17.9702 14.04C17.9272 14.2581 17.8063 14.4529 17.6304 14.5882C17.4545 14.7234 17.2355 14.7896 17.0143 14.7746C16.2664 14.7746 14.4263 14.7746 14.216 14.7746C13.7957 14.6271 13.409 14.3969 13.0786 14.0975C12.8098 13.8578 11.8132 12.7169 11.6639 12.5671C11.6133 12.5061 11.5487 12.4584 11.4756 12.4281C11.4026 12.3978 11.3232 12.3859 11.2445 12.3933C11.0652 12.3933 10.7247 12.4113 10.7402 13.0932C10.7827 13.5669 10.6837 14.0424 10.4559 14.4594C10.3392 14.5716 10.201 14.6588 10.0496 14.7154C9.89814 14.7721 9.73675 14.7971 9.57533 14.789C8.35315 14.8633 7.13773 14.5592 6.0936 13.9178C4.21293 12.7457 2.07179 9.61649 1.0753 7.62108C0.480909 6.62981 0.113648 5.51846 0 4.36734C0.0597414 4.15641 0.0596843 4.00775 0.269974 4.00775C0.480264 4.00775 3.12446 4.00775 3.37657 4.00775C3.55117 4.095 3.69685 4.23115 3.79597 4.39967C3.88559 4.51952 4.56897 6.57123 4.77807 6.93196C4.98716 7.29269 6.01829 9.26895 6.57746 9.26895C6.76313 9.23238 6.92687 9.1237 7.03296 8.96656C7.13905 8.80941 7.17889 8.61652 7.14381 8.43002C7.14381 7.95064 7.14381 6.0583 7.14381 5.81741C6.91652 5.28602 6.49991 4.85871 5.9753 4.61897C6.10595 4.44491 6.27259 4.30129 6.46377 4.19786C6.65495 4.09443 6.86615 4.03364 7.08291 4.01974C7.79981 3.98978 9.59802 3.98984 9.98634 4.04856C10.1936 4.08906 10.3811 4.19876 10.5182 4.35981C10.6553 4.52086 10.734 4.72375 10.7415 4.9354Z" fill="#CCCDF1"/>
</g>
<defs>
<clipPath id="clip0_6026_18140">
<rect width="18" height="18" fill="white"/>
</clipPath>
</defs>
</svg>
