<svg width="23" height="21" viewBox="0 0 23 21" fill="none" xmlns="http://www.w3.org/2000/svg">
<path d="M11.1854 6V12M11.1854 20C6.63819 20 4.36461 20 3.05028 19.0451C1.90387 18.2122 1.16472 16.9319 1.0166 15.5226C0.846783 13.9069 1.98357 11.938 4.25716 8C6.53074 4.06204 7.66753 2.09306 9.15168 1.43227C10.4462 0.855909 11.9245 0.855909 13.219 1.43227C14.7032 2.09306 15.84 4.06204 18.1136 8C20.3871 11.938 21.5239 13.9069 21.3541 15.5226C21.206 16.9319 20.4669 18.2122 19.3204 19.0451C18.0061 20 15.7325 20 11.1854 20Z" stroke="#F15C5C" stroke-width="1.5" stroke-linecap="round"/>
<path d="M11.6855 15C11.6855 15.2761 11.4617 15.5 11.1855 15.5C10.9094 15.5 10.6855 15.2761 10.6855 15C10.6855 14.7239 10.9094 14.5 11.1855 14.5C11.4617 14.5 11.6855 14.7239 11.6855 15Z" fill="#2D264B" stroke="#F15C5C"/>
</svg>
