<svg width="37" height="37" viewBox="0 0 37 37" fill="none" xmlns="http://www.w3.org/2000/svg">
<path d="M34.3569 29.3063C34.3569 26.0761 32.3013 23.1984 29.3061 22.1412L24.0791 20.2618C23.3156 20.0857 22.3759 19.3809 22.0823 18.7349C24.4315 16.6793 26.0172 12.8618 26.1346 9.98407C26.5458 9.51423 26.7219 8.75074 26.7219 7.69359C26.7219 5.34439 26.3696 3.75867 25.6648 2.58407C24.314 0.411054 21.6124 0.234863 18.4997 0.234863C15.387 0.234863 12.7442 0.411054 11.3346 2.52534C10.5711 3.64121 10.2775 5.28566 10.2775 7.69359C10.2775 8.75074 10.4537 9.51423 10.8648 9.98407C10.9823 12.8618 12.568 16.6206 14.9172 18.7349C14.6823 19.3222 13.6838 20.0857 12.9204 20.2618L7.69337 22.1412C4.69813 23.1984 2.64258 26.1349 2.64258 29.3063V36.7063H34.3569V29.3063ZM11.8632 9.33804C11.6283 9.16185 11.5108 8.80947 11.4521 8.16344C16.0331 6.46026 20.9077 6.46026 25.4886 8.16344C25.4299 8.75074 25.3124 9.16185 25.0775 9.33804C24.6664 9.63169 23.668 9.39677 22.6108 9.04439C20.614 8.45709 19.2632 8.39836 19.2632 8.39836H17.6775C17.6775 8.39836 16.2092 8.45709 14.3299 9.04439C13.2727 9.39677 12.2743 9.69042 11.8632 9.33804ZM12.3331 3.2301C13.2727 1.76185 15.1521 1.4682 18.4997 1.4682C21.8473 1.4682 23.7267 1.76185 24.7251 3.2301C25.2537 4.05232 25.4886 5.22693 25.5473 6.9301C20.9077 5.28566 16.0918 5.28566 11.4521 6.9301C11.5108 5.22693 11.8045 3.99359 12.3331 3.2301ZM12.0981 10.6301C12.8616 10.6888 13.8013 10.4539 14.6823 10.219C15.5632 9.98407 16.6204 9.69042 17.6775 9.57296H19.3219C20.3791 9.63169 21.4362 9.92534 22.3172 10.219C23.2569 10.5126 24.1378 10.7476 24.9013 10.6301C24.4902 14.2126 21.7299 19.0872 18.4997 19.0872C15.2696 19.0872 12.568 14.2714 12.0981 10.6301ZM18.4997 20.2618C19.4394 20.2618 20.3204 19.9682 21.1426 19.4396C21.4362 19.9095 21.8473 20.3206 22.3172 20.673L21.1426 22.0238H15.8569L14.6823 20.7317C15.1521 20.3793 15.5632 19.9682 15.8569 19.4984C16.6791 19.9682 17.56 20.2618 18.4997 20.2618ZM15.5632 29.0714C15.5632 28.3079 15.8569 27.6031 16.3854 27.0745L16.8553 29.0714H20.1442L20.614 27.0745C21.1426 27.6031 21.4362 28.3666 21.4362 29.0714C21.4362 30.0698 20.9664 31.0682 19.7918 31.7142L20.2029 35.473H16.7965L17.2077 31.7142C16.0918 31.1269 15.5632 30.0698 15.5632 29.0714ZM33.1823 35.5317H28.4838V30.246H27.3092V35.5317H21.3775L21.0251 32.3015C22.0235 31.538 22.6108 30.3634 22.6108 29.0714C22.6108 27.6031 21.9061 26.0761 19.8505 25.1365L19.2045 27.8968H17.795L17.1489 25.1365C15.1521 26.1349 14.3886 27.6031 14.3886 29.0714C14.3886 30.3634 14.9759 31.538 15.9743 32.3015L15.6219 35.5317H9.6902V30.246H8.51559V35.5317H3.81718V29.3063C3.81718 26.6047 5.52036 24.138 8.10448 23.1984C8.10448 23.1984 13.5077 21.2603 13.6251 21.2603L15.2696 23.1984H21.7299L23.3743 21.2603C23.4918 21.319 28.895 23.1984 28.895 23.1984C31.4791 24.138 33.1823 26.546 33.1823 29.3063V35.5317Z" fill="#004341"/>
<path d="M16.1498 4.99203C16.5022 4.99203 16.7371 4.75711 16.7371 4.40473C16.7371 4.28727 17.3831 3.81743 18.499 3.81743C19.6149 3.81743 20.2609 4.28727 20.2609 4.40473C20.2609 4.75711 20.4958 4.99203 20.8482 4.99203C21.2006 4.99203 21.4355 4.75711 21.4355 4.40473C21.4355 3.40631 20.1435 2.64282 18.499 2.64282C16.8546 2.64282 15.5625 3.40631 15.5625 4.40473C15.5625 4.75711 15.7974 4.99203 16.1498 4.99203Z" fill="#004341"/>
</svg>
