<svg width="37" height="37" viewBox="0 0 37 37" fill="none" xmlns="http://www.w3.org/2000/svg">
<g clip-path="url(#clip0_115_20)">
<path d="M34.4202 11.9528H29.7516C29.6914 11.9528 29.6317 11.9556 29.5725 11.9597L24.2654 8.94554L26.8352 4.42109L27.3378 4.70661C27.4038 4.74413 27.4766 4.76828 27.5519 4.77768C27.6273 4.78707 27.7038 4.78153 27.777 4.76136C27.8502 4.74119 27.9187 4.7068 27.9786 4.66014C28.0385 4.61349 28.0886 4.55549 28.1261 4.48945C28.2018 4.35611 28.2215 4.19816 28.1807 4.05033C28.14 3.90251 28.0422 3.77691 27.9089 3.70118L27.4062 3.41566L27.9772 2.41031C28.053 2.27699 28.0726 2.11905 28.0319 1.97123C27.9912 1.82341 27.8934 1.69781 27.7601 1.62208C27.6268 1.54634 27.4689 1.52667 27.321 1.56739C27.1732 1.60811 27.0476 1.70588 26.9719 1.8392L26.4008 2.84462L25.8982 2.55911C25.765 2.48594 25.6084 2.46813 25.4622 2.50952C25.316 2.55091 25.192 2.64818 25.117 2.78029C25.0419 2.91241 25.0219 3.06875 25.0612 3.2155C25.1006 3.36226 25.1961 3.48764 25.3271 3.56453L25.8297 3.85005L23.26 8.3745L22.7573 8.08898C22.624 8.01327 22.466 7.99362 22.3182 8.03436C22.1704 8.0751 22.0448 8.17289 21.9691 8.30621L20.8274 10.3166L19.6849 12.3277C19.6129 12.4543 19.5914 12.6035 19.6247 12.7453C19.658 12.8871 19.7436 13.0111 19.8643 13.0926L23.2254 15.3588C24.9744 16.5382 26.3363 18.1814 27.172 20.1147V25.5532C26.59 25.4267 25.9771 25.5235 25.4511 25.8392L24.3298 26.512C24.1406 26.6258 23.924 26.6859 23.7033 26.6859C23.4825 26.6859 23.2659 26.6258 23.0767 26.512L22.034 25.8864C21.6652 25.6646 21.243 25.5474 20.8126 25.5474C20.3823 25.5474 19.96 25.6646 19.5912 25.8864L18.5486 26.512C18.3594 26.6258 18.1428 26.6859 17.922 26.6859C17.7013 26.6859 17.4847 26.6258 17.2955 26.512L16.2528 25.8864C15.884 25.6646 15.4617 25.5474 15.0314 25.5474C14.601 25.5474 14.1788 25.6646 13.81 25.8865L12.6072 26.6081C12.446 26.7042 12.2649 26.762 12.0779 26.7769C11.8909 26.7919 11.7029 26.7637 11.5284 26.6945L9.82834 26.0145V20.1148C10.664 18.1815 12.0258 16.5382 13.775 15.3589L17.136 13.0926C17.2568 13.0112 17.3423 12.8872 17.3756 12.7454C17.4089 12.6036 17.3874 12.4544 17.3154 12.3278L16.1729 10.3166L15.0312 8.30628C14.9555 8.17296 14.8299 8.07517 14.6821 8.03443C14.5343 7.99369 14.3763 8.01334 14.243 8.08906L13.7403 8.37458L11.1706 3.85012L11.6732 3.5646C11.7392 3.52711 11.7972 3.47698 11.8438 3.41707C11.8905 3.35717 11.9249 3.28866 11.945 3.21547C11.9652 3.14227 11.9708 3.06582 11.9614 2.99048C11.952 2.91514 11.9279 2.84239 11.8904 2.77637C11.8529 2.71035 11.8028 2.65237 11.7429 2.60572C11.683 2.55908 11.6144 2.52469 11.5413 2.50453C11.3934 2.46379 11.2355 2.48345 11.1022 2.55918L10.5995 2.8447L10.0284 1.83927C9.9527 1.70595 9.82711 1.60818 9.67929 1.56746C9.53147 1.52674 9.37352 1.54642 9.2402 1.62215C9.10689 1.69788 9.00911 1.82348 8.9684 1.9713C8.92768 2.11912 8.94735 2.27707 9.02308 2.41038L9.59412 3.41574L9.09145 3.70126C9.02543 3.73875 8.96744 3.78888 8.9208 3.84879C8.87416 3.90869 8.83977 3.9772 8.8196 4.05039C8.79943 4.12358 8.79388 4.20003 8.80326 4.27538C8.81263 4.35072 8.83676 4.42347 8.87425 4.48949C8.91175 4.55551 8.96188 4.61349 9.02178 4.66014C9.08169 4.70678 9.15019 4.74117 9.22339 4.76133C9.29658 4.7815 9.37303 4.78706 9.44837 4.77768C9.52371 4.7683 9.59647 4.74418 9.66249 4.70668L10.1652 4.42116L12.7349 8.94562L7.42783 11.9598C7.36821 11.9554 7.30846 11.9531 7.24868 11.9529H2.57992C1.15745 11.9529 0.000195176 13.1101 0.000195176 14.5326V26.4059C0.000195176 26.5592 0.0611042 26.7063 0.169523 26.8147C0.277942 26.9231 0.424989 26.984 0.578317 26.984H9.13885L11.099 27.7681C11.3809 27.8808 11.6798 27.9365 11.9783 27.9365C12.4047 27.9365 12.8302 27.8228 13.2021 27.5996L14.4049 26.8779C14.5941 26.7642 14.8107 26.7041 15.0314 26.7041C15.2522 26.7041 15.4688 26.7642 15.658 26.8779L16.7007 27.5035C17.0695 27.7254 17.4917 27.8425 17.9221 27.8425C18.3524 27.8425 18.7747 27.7254 19.1435 27.5035L20.1861 26.8779C20.3753 26.7642 20.5919 26.7041 20.8126 26.7041C21.0334 26.7041 21.25 26.7642 21.4392 26.8779L22.4819 27.5035C22.8507 27.7253 23.2729 27.8425 23.7033 27.8425C24.1336 27.8425 24.5559 27.7253 24.9247 27.5035L26.0461 26.8307C26.2215 26.7248 26.421 26.6651 26.6258 26.6572C26.8306 26.6494 27.034 26.6936 27.2171 26.7857L27.4916 26.923L27.4918 26.9225C27.572 26.9629 27.6604 26.984 27.7502 26.984H36.422C36.4979 26.984 36.5731 26.9691 36.6432 26.94C36.7134 26.911 36.7771 26.8684 36.8308 26.8147C36.8845 26.761 36.9271 26.6973 36.9561 26.6271C36.9852 26.557 37.0001 26.4818 37.0001 26.4059V14.5326C36.9999 13.1101 35.8427 11.9528 34.4202 11.9528ZM15.453 11.3903L16.0455 12.4333L13.1284 14.4002C11.8243 15.2788 10.7034 16.4026 9.82826 17.7091V14.5853L15.453 11.3903ZM14.3111 9.37993L14.8819 10.3849L9.56753 13.4036C9.39331 13.0481 9.1401 12.7371 8.82724 12.4944L14.3111 9.37993ZM8.67195 25.8278H1.15637V14.5326C1.15637 13.7476 1.7949 13.1091 2.57985 13.1091H7.24847C8.03341 13.1091 8.67195 13.7476 8.67195 14.5326V25.8278ZM22.6889 9.37993L28.1728 12.4945C27.8599 12.7371 27.6067 13.0481 27.4325 13.4037L22.1181 10.385L22.6889 9.37993ZM23.8717 14.4002L20.9546 12.4334L21.5471 11.3904L27.1718 14.5854V17.7091C26.2967 16.4027 25.1758 15.2788 23.8717 14.4002ZM35.8437 25.8278H28.3281V14.5326C28.3281 13.7476 28.9666 13.1091 29.7516 13.1091H34.4202C35.2051 13.1091 35.8437 13.7476 35.8437 14.5326V25.8278ZM36.1233 33.6857L36.0149 33.751C35.7886 33.8873 35.5293 33.9594 35.2651 33.9593C35.0009 33.9592 34.7417 33.887 34.5154 33.7506L33.7199 33.2741C33.314 33.0295 32.8492 32.9003 32.3754 32.9002C31.9016 32.9001 31.4367 33.0292 31.0308 33.2736L30.2337 33.7509C30.0074 33.8873 29.7481 33.9593 29.4839 33.9592C29.2197 33.9591 28.9605 33.887 28.7342 33.7505L27.9386 33.274C27.5328 33.0295 27.068 32.9002 26.5942 32.9001C26.1204 32.9 25.6555 33.0292 25.2496 33.2736L24.4525 33.7509C24.2262 33.8872 23.9669 33.9592 23.7027 33.9591C23.4385 33.9591 23.1793 33.8869 22.953 33.7504L22.1574 33.2739C21.7516 33.0294 21.2868 32.9001 20.813 32.9C20.3391 32.9 19.8743 33.0291 19.4684 33.2735L18.6713 33.7508C18.4449 33.8871 18.1857 33.9591 17.9215 33.9591C17.6572 33.959 17.398 33.8868 17.1718 33.7504L16.3762 33.2738C15.9704 33.0293 15.5056 32.9001 15.0317 32.9C14.5579 32.8999 14.0931 33.029 13.6872 33.2734L12.8901 33.7507C12.6637 33.8871 12.4045 33.9591 12.1403 33.959C11.876 33.9589 11.6168 33.8868 11.3906 33.7503L10.595 33.2738C10.1892 33.0292 9.72434 32.9 9.25053 32.8999C8.77672 32.8998 8.31185 33.0289 7.90594 33.2733L7.10885 33.7506C6.88251 33.887 6.62327 33.959 6.35904 33.9589C6.09481 33.9588 5.83561 33.8867 5.60935 33.7502L4.81378 33.2737C4.40789 33.0291 3.94298 32.8999 3.4691 32.8998C2.99522 32.8998 2.53029 33.029 2.12436 33.2735L0.280873 34.3791C0.215588 34.4181 0.158629 34.4696 0.113257 34.5306C0.067885 34.5916 0.0349917 34.6609 0.0164602 34.7347C-0.00207135 34.8084 -0.00587711 34.8851 0.00526078 34.9603C0.0163987 35.0355 0.0422615 35.1077 0.0813684 35.1729C0.120475 35.2381 0.172058 35.295 0.233164 35.3402C0.29427 35.3855 0.363698 35.4182 0.437474 35.4366C0.51125 35.4549 0.587924 35.4586 0.663106 35.4473C0.738289 35.436 0.810504 35.4099 0.875616 35.3707L2.71953 34.2648C2.94586 34.1285 3.20511 34.0564 3.46935 34.0565C3.73358 34.0566 3.99279 34.1288 4.21904 34.2652L5.01461 34.7418C5.42044 34.9863 5.88526 35.1156 6.35908 35.1156C6.83289 35.1157 7.29775 34.9866 7.70367 34.7422L8.50075 34.2649C8.72708 34.1285 8.98633 34.0565 9.25056 34.0566C9.5148 34.0566 9.774 34.1288 10.0003 34.2653L10.7958 34.7418C11.2017 34.9864 11.6665 35.1156 12.1403 35.1157C12.6141 35.1158 13.079 34.9867 13.4849 34.7423L14.282 34.265C14.5083 34.1286 14.7675 34.0566 15.0318 34.0566C15.296 34.0567 15.5552 34.1289 15.7815 34.2654L16.577 34.7419C16.9829 34.9864 17.4477 35.1157 17.9215 35.1158C18.3953 35.1159 18.8602 34.9867 19.2661 34.7423L20.0632 34.265C20.2895 34.1287 20.5488 34.0566 20.813 34.0567C21.0772 34.0568 21.3364 34.129 21.5627 34.2655L22.3583 34.742C22.7641 34.9865 23.2289 35.1158 23.7027 35.1158C24.1765 35.1159 24.6414 34.9868 25.0473 34.7424L25.8444 34.2651C26.0707 34.1287 26.33 34.0567 26.5942 34.0568C26.8584 34.0569 27.1177 34.129 27.3439 34.2655L28.1395 34.7421C28.5453 34.9866 29.0101 35.1158 29.4839 35.1159C29.9578 35.116 30.4226 34.9869 30.8285 34.7425L31.6256 34.2652C31.8519 34.1288 32.1112 34.0568 32.3754 34.0569C32.6397 34.0569 32.8989 34.1291 33.1251 34.2656L33.9207 34.7421C34.3268 34.9867 34.7919 35.116 35.266 35.1159C35.7401 35.1158 36.2052 34.9864 36.6112 34.7417L36.7203 34.6759C36.8516 34.5968 36.9461 34.4687 36.983 34.3198C37.0199 34.171 36.9961 34.0136 36.9169 33.8823C36.8378 33.751 36.7097 33.6565 36.5609 33.6196C36.412 33.5828 36.2546 33.6065 36.1233 33.6857ZM36.1233 30.217L36.0149 30.2823C35.7886 30.4186 35.5293 30.4906 35.2651 30.4905C35.0009 30.4904 34.7417 30.4183 34.5154 30.2818L33.7199 29.8053C33.314 29.5608 32.8492 29.4315 32.3754 29.4315C31.9016 29.4314 31.4367 29.5605 31.0308 29.8049L30.2337 30.2822C30.0074 30.4185 29.7481 30.4905 29.4839 30.4904C29.2197 30.4904 28.9605 30.4182 28.7342 30.2818L27.9386 29.8053C27.5328 29.5607 27.068 29.4315 26.5942 29.4314C26.1204 29.4313 25.6555 29.5604 25.2496 29.8048L24.4525 30.2821C24.2262 30.4185 23.9669 30.4905 23.7027 30.4904C23.4385 30.4903 23.1793 30.4182 22.953 30.2817L22.1574 29.8052C21.7516 29.5607 21.2868 29.4314 20.813 29.4313C20.3391 29.4312 19.8743 29.5603 19.4684 29.8048L18.6713 30.2821C18.4449 30.4184 18.1857 30.4904 17.9215 30.4903C17.6572 30.4902 17.398 30.4181 17.1718 30.2816L16.3762 29.8051C15.9704 29.5606 15.5056 29.4313 15.0317 29.4312C14.5579 29.4312 14.0931 29.5603 13.6872 29.8047L12.8901 30.282C12.6637 30.4183 12.4045 30.4903 12.1403 30.4902C11.876 30.4902 11.6168 30.418 11.3906 30.2816L10.595 29.805C10.1892 29.5605 9.72434 29.4313 9.25053 29.4312C8.77672 29.4311 8.31185 29.5602 7.90594 29.8046L7.10885 30.2819C6.88251 30.4182 6.62326 30.4902 6.35904 30.4902C6.09481 30.4901 5.83561 30.4179 5.60935 30.2815L4.81378 29.805C4.40789 29.5604 3.94298 29.4311 3.4691 29.4311C2.99522 29.4311 2.53029 29.5602 2.12436 29.8048L0.280873 30.9104C0.215588 30.9494 0.158629 31.0008 0.113257 31.0618C0.067885 31.1228 0.0349917 31.1922 0.0164602 31.2659C-0.00207135 31.3397 -0.00587711 31.4163 0.00526078 31.4915C0.0163987 31.5667 0.0422615 31.639 0.0813684 31.7042C0.120475 31.7694 0.172058 31.8263 0.233164 31.8715C0.29427 31.9167 0.363698 31.9495 0.437474 31.9678C0.51125 31.9862 0.587924 31.9898 0.663106 31.9785C0.738289 31.9672 0.810504 31.9412 0.875616 31.902L2.71953 30.7961C2.94586 30.6597 3.20511 30.5877 3.46935 30.5878C3.73358 30.5878 3.99279 30.66 4.21904 30.7965L5.01461 31.273C5.42044 31.5176 5.88526 31.6468 6.35908 31.6469C6.83289 31.647 7.29775 31.5179 7.70367 31.2735L8.50075 30.7962C8.72708 30.6598 8.98633 30.5878 9.25056 30.5878C9.5148 30.5879 9.774 30.6601 10.0003 30.7966L10.7958 31.2731C11.2017 31.5176 11.6665 31.6469 12.1403 31.647C12.6141 31.6471 13.079 31.5179 13.4849 31.2735L14.282 30.7962C14.5083 30.6599 14.7675 30.5878 15.0318 30.5879C15.296 30.588 15.5552 30.6602 15.7815 30.7967L16.577 31.2732C16.9829 31.5177 17.4477 31.647 17.9215 31.647C18.3953 31.6471 18.8602 31.518 19.2661 31.2736L20.0632 30.7963C20.2895 30.6599 20.5488 30.5879 20.813 30.588C21.0772 30.5881 21.3364 30.6602 21.5627 30.7967L22.3583 31.2733C22.7641 31.5178 23.2289 31.647 23.7027 31.6471C24.1765 31.6472 24.6414 31.5181 25.0473 31.2737L25.8444 30.7964C26.0707 30.66 26.33 30.588 26.5942 30.5881C26.8584 30.5881 27.1177 30.6603 27.3439 30.7968L28.1395 31.2733C28.5453 31.5179 29.0101 31.6471 29.4839 31.6472C29.9578 31.6473 30.4226 31.5182 30.8285 31.2738L31.6256 30.7964C31.8519 30.6601 32.1112 30.5881 32.3754 30.5881C32.6397 30.5882 32.8989 30.6604 33.1251 30.7969L33.9207 31.2734C34.3268 31.518 34.7919 31.6473 35.266 31.6472C35.7401 31.6471 36.2052 31.5177 36.6112 31.273L36.7203 31.2072C36.8516 31.128 36.9461 31 36.983 30.8512C37.0198 30.7023 36.9961 30.545 36.9169 30.4137C36.8378 30.2824 36.7097 30.1879 36.5609 30.151C36.412 30.1141 36.2547 30.1378 36.1233 30.217Z" fill="#004340"/>
</g>
<defs>
<clipPath id="clip0_115_20">
<rect width="37" height="37" fill="white"/>
</clipPath>
</defs>
</svg>
