<svg width="45" height="45" viewBox="0 0 45 45" fill="none" xmlns="http://www.w3.org/2000/svg">
<path d="M26.7396 41.4369C26.4902 41.4369 26.2408 41.3656 26.0449 41.2231C25.6529 40.938 25.4748 40.4214 25.5639 39.8513L26.3477 35.0592H3.11732C1.69214 35.0592 0.53418 33.9012 0.53418 32.4761V6.1637C0.53418 4.73852 1.69214 3.58057 3.11732 3.58057H41.8822C43.3073 3.58057 44.4653 4.73852 44.4653 6.1637V32.4761C44.4653 33.9012 43.3073 35.0592 41.8822 35.0592H39.5484L40.3323 39.8513C40.4214 40.4392 40.2432 40.938 39.8513 41.2231C39.6553 41.3656 39.4059 41.4369 39.1565 41.4369C38.9071 41.4369 38.6399 41.3656 38.3905 41.2409L33.5271 38.6578C33.3489 38.5687 33.1173 38.5509 32.957 38.5509C32.7967 38.5509 32.5651 38.5687 32.3869 38.6578L27.5057 41.2231C27.2563 41.3656 26.9891 41.4369 26.7396 41.4369ZM32.957 36.9475C33.438 36.9475 33.919 37.0544 34.2753 37.2504L38.6755 39.5663L37.286 31.0687L36.6268 31.4428C35.5045 32.0663 34.2396 32.387 32.957 32.387C31.6743 32.387 30.4095 32.0663 29.2871 31.4428L28.628 31.0687L27.2385 39.5663L31.6387 37.2504C31.995 37.0544 32.476 36.9475 32.957 36.9475ZM3.11732 5.18389C2.58287 5.18389 2.13751 5.62926 2.13751 6.1637V32.4761C2.13751 33.0105 2.58287 33.4559 3.11732 33.4559H26.1161H26.1339L26.5971 33.4737L27.1672 30.0354L27.2206 29.786L27.0603 29.5723C25.9736 28.2361 25.3679 26.5437 25.3679 24.8157C25.3679 20.6471 28.7705 17.2445 32.9392 17.2445C37.1078 17.2445 40.5104 20.6471 40.5104 24.8157C40.5104 26.5437 39.9047 28.2361 38.818 29.5723L38.6577 29.7682L38.7111 30.0176V30.0354L39.2634 33.4559H41.8465C42.381 33.4559 42.8263 33.0105 42.8263 32.4761V6.1637C42.8263 5.62926 42.381 5.18389 41.8465 5.18389H3.11732ZM32.957 18.83C29.6613 18.83 26.989 21.5022 26.989 24.7979C26.989 28.0936 29.6613 30.7658 32.957 30.7658C36.2527 30.7658 38.9249 28.0936 38.9249 24.7979C38.9249 21.52 36.2527 18.83 32.957 18.83Z" fill="#A9232E"/>
<path d="M6.87686 12.8619C6.43149 12.8619 6.0752 12.5056 6.0752 12.0602C6.0752 11.6148 6.43149 11.2585 6.87686 11.2585H37.1619C37.6073 11.2585 37.9636 11.6148 37.9636 12.0602C37.9636 12.5056 37.6073 12.8619 37.1619 12.8619H6.87686Z" fill="#A9232E"/>
<path d="M6.87686 20.1126C6.43149 20.1126 6.0752 19.7563 6.0752 19.3109C6.0752 18.8656 6.43149 18.5093 6.87686 18.5093H19.7035C20.1488 18.5093 20.5051 18.8656 20.5051 19.3109C20.5051 19.7563 20.1488 20.1126 19.7035 20.1126H6.87686Z" fill="#A9232E"/>
</svg>
