<svg width="45" height="45" viewBox="0 0 45 45" fill="none" xmlns="http://www.w3.org/2000/svg">
<g clip-path="url(#clip0_191_116)">
<path d="M31.3994 8.40385C31.3994 6.05381 29.4874 4.14185 27.1374 4.14185C24.787 4.14185 22.875 6.05381 22.875 8.40385C22.875 10.7542 24.787 12.6662 27.1374 12.6662C29.4874 12.6662 31.3994 10.7542 31.3994 8.40385V8.40385ZM24.1927 8.40385C24.1927 6.78028 25.5138 5.45952 27.1374 5.45952C28.7609 5.45952 30.0817 6.78028 30.0817 8.40385C30.0817 10.0278 28.7609 11.3485 27.1374 11.3485C25.5138 11.3485 24.1927 10.0274 24.1927 8.40385Z" fill="#A9232E"/>
<path d="M19.8772 6.14433C20.2411 6.14433 20.5361 5.84942 20.5361 5.4855C20.5361 5.12157 20.2411 4.82666 19.8772 4.82666H18.1452C17.7812 4.82666 17.4863 5.12157 17.4863 5.4855C17.4863 5.84942 17.7812 6.14433 18.1452 6.14433H19.8772Z" fill="#A9232E"/>
<path d="M5.12173 6.14433H13.8765C14.2404 6.14433 14.5353 5.84942 14.5353 5.4855C14.5353 5.12157 14.2404 4.82666 13.8765 4.82666H5.12173C4.7578 4.82666 4.46289 5.12157 4.46289 5.4855C4.46289 5.84942 4.7578 6.14433 5.12173 6.14433Z" fill="#A9232E"/>
<path d="M5.12173 11.981H7.37942C7.74334 11.981 8.03825 11.6861 8.03825 11.3222C8.03825 10.9582 7.74334 10.6633 7.37942 10.6633H5.12173C4.7578 10.6633 4.46289 10.9582 4.46289 11.3222C4.46289 11.6861 4.7578 11.981 5.12173 11.981Z" fill="#A9232E"/>
<path d="M11.6481 10.6633C11.2842 10.6633 10.9893 10.9582 10.9893 11.3222C10.9893 11.6861 11.2842 11.981 11.6481 11.981H13.0753C13.4392 11.981 13.7341 11.6861 13.7341 11.3222C13.7341 10.9582 13.4392 10.6633 13.0753 10.6633H11.6481Z" fill="#A9232E"/>
<path d="M5.12173 9.06279H19.8767C20.2406 9.06279 20.5355 8.76788 20.5355 8.40395C20.5355 8.04003 20.2406 7.74512 19.8767 7.74512H5.12173C4.7578 7.74512 4.46289 8.04003 4.46289 8.40395C4.46289 8.76788 4.7578 9.06279 5.12173 9.06279Z" fill="#A9232E"/>
<path d="M6.84898 19.9803H29.0129C30.3285 19.9803 31.3986 18.9099 31.3986 17.5942C31.3986 16.2786 30.3285 15.2085 29.0129 15.2085H6.84898C5.53337 15.2085 4.46289 16.2786 4.46289 17.5942C4.46289 18.9099 5.53337 19.9803 6.84898 19.9803V19.9803ZM6.84898 16.5262H29.0129C29.6017 16.5262 30.0809 17.0051 30.0809 17.5942C30.0809 18.1834 29.6017 18.6627 29.0129 18.6627H6.84898C6.25984 18.6627 5.78056 18.1834 5.78056 17.5942C5.78056 17.0051 6.25984 16.5262 6.84898 16.5262V16.5262Z" fill="#A9232E"/>
<path d="M6.84898 26.0238H29.0129C30.3285 26.0238 31.3986 24.9533 31.3986 23.6377C31.3986 22.3221 30.3285 21.252 29.0129 21.252H6.84898C5.53337 21.252 4.46289 22.3221 4.46289 23.6377C4.46289 24.9533 5.53337 26.0238 6.84898 26.0238V26.0238ZM6.84898 22.5696H29.0129C29.6017 22.5696 30.0809 23.0489 30.0809 23.6377C30.0809 24.2268 29.6017 24.7061 29.0129 24.7061H6.84898C6.25984 24.7061 5.78056 24.2268 5.78056 23.6377C5.78056 23.0489 6.25984 22.5696 6.84898 22.5696V22.5696Z" fill="#A9232E"/>
<path d="M6.84898 32.0673H29.0129C30.3285 32.0673 31.3986 30.9971 31.3986 29.6815C31.3986 28.3659 30.3285 27.2954 29.0129 27.2954H6.84898C5.53337 27.2954 4.46289 28.3659 4.46289 29.6815C4.46289 30.9971 5.53337 32.0673 6.84898 32.0673V32.0673ZM6.84898 28.6131H29.0129C29.6017 28.6131 30.0809 29.0924 30.0809 29.6815C30.0809 30.2703 29.6017 30.7496 29.0129 30.7496H6.84898C6.25984 30.7496 5.78056 30.2703 5.78056 29.6815C5.78056 29.0924 6.25984 28.6131 6.84898 28.6131V28.6131Z" fill="#A9232E"/>
<path d="M6.84898 38.111H22.3964C23.712 38.111 24.7824 37.0408 24.7824 35.7252C24.7824 34.4096 23.712 33.3391 22.3964 33.3391H6.84898C5.53337 33.3391 4.46289 34.4096 4.46289 35.7252C4.46289 37.0408 5.53337 38.111 6.84898 38.111V38.111ZM6.84898 34.6568H22.3964C22.9855 34.6568 23.4644 35.1361 23.4644 35.7252C23.4644 36.3143 22.9855 36.7933 22.3964 36.7933H6.84898C6.25984 36.7933 5.78056 36.3143 5.78056 35.7252C5.78056 35.1361 6.25984 34.6568 6.84898 34.6568Z" fill="#A9232E"/>
<path d="M42.938 35.218H40.4482V33.0191C40.4482 32.457 40.109 31.9733 39.6253 31.7598L40.5907 27.3343C40.8678 26.0627 40.5317 24.7103 39.6905 23.7167C38.8889 22.7699 37.7178 22.2267 36.477 22.2267C36.2696 22.2267 36.0643 22.2432 35.8621 22.2727V2.18868C35.8621 0.981903 34.8802 0 33.6734 0H2.18868C0.981903 0 0 0.981903 0 2.18868V9.25701C0 9.62093 0.294914 9.91585 0.658836 9.91585C1.02276 9.91585 1.31767 9.62093 1.31767 9.25701V2.18868C1.31767 1.70837 1.70837 1.31767 2.18868 1.31767H33.6734C34.1537 1.31767 34.5444 1.70837 34.5444 2.18868V22.6967C34.0607 22.9467 33.6243 23.2903 33.2632 23.7167C32.7654 24.3052 32.4385 25.0186 32.3183 25.7798C32.2614 26.1392 32.5068 26.4767 32.8659 26.5334C33.2261 26.5903 33.5629 26.3449 33.6199 25.9854C33.7023 25.4625 33.9268 24.9723 34.2691 24.5682C34.8198 23.9176 35.6245 23.5444 36.477 23.5444C37.3295 23.5444 38.1342 23.9176 38.6849 24.5682C39.2627 25.2507 39.4938 26.1797 39.3032 27.0535L38.3021 31.6427H34.6519L34.037 28.8233C33.9594 28.468 33.6089 28.2428 33.2529 28.32C32.8972 28.3976 32.672 28.7488 32.7496 29.1042L33.3287 31.7598C32.8447 31.9733 32.5055 32.457 32.5055 33.0191V35.218H30.016C28.8789 35.218 27.9537 36.143 27.9537 37.28V38.9589C27.9537 40.096 28.8789 41.0209 30.016 41.0209H30.051L30.451 42.7959C30.5224 43.1124 30.6443 43.4053 30.8074 43.6672H2.18868C1.70837 43.6672 1.31767 43.2765 1.31767 42.7962V12.2803C1.31767 11.9164 1.02276 11.6215 0.658836 11.6215C0.294914 11.6215 0 11.9164 0 12.2803V42.7962C0 44.003 0.981903 44.9852 2.18868 44.9852L39.776 44.9767C41.0923 44.9767 42.2139 44.0799 42.503 42.7959L42.903 41.0209H42.938C44.0747 41.0209 45 40.096 45 38.9589V37.28C45 36.143 44.0747 35.218 42.938 35.218V35.218ZM33.8231 33.0191C33.8231 32.9868 33.8496 32.9604 33.8818 32.9604H39.0722C39.1045 32.9604 39.1306 32.9868 39.1306 33.0191V35.218H33.8231V33.0191ZM41.2176 42.5061C41.0645 43.1852 40.4719 43.659 39.776 43.659H33.178C32.4821 43.659 31.8895 43.1852 31.7364 42.5061L31.402 41.0209H41.552L41.2176 42.5061ZM43.6823 38.9589C43.6823 39.3692 43.3483 39.7032 42.938 39.7032H30.016C29.6058 39.7032 29.2717 39.3692 29.2717 38.9589V37.28C29.2717 36.8694 29.6058 36.5357 30.016 36.5357H42.938C43.3486 36.5357 43.6823 36.8694 43.6823 37.28V38.9589Z" fill="#A9232E"/>
</g>
<defs>
<clipPath id="clip0_191_116">
<rect width="45" height="45" fill="white"/>
</clipPath>
</defs>
</svg>
