<svg width="45" height="45" viewBox="0 0 45 45" fill="none" xmlns="http://www.w3.org/2000/svg">
<g clip-path="url(#clip0_191_128)">
<path d="M43.6546 14.5838V6.59732C44.1408 6.12948 44.4442 5.47294 44.4442 4.74652C44.4442 3.32937 43.2913 2.17651 41.8742 2.17651C41.1478 2.17651 40.4912 2.48 40.0234 2.96612H20.3921C19.4104 2.96612 18.6117 3.76479 18.6117 4.74652C18.6117 5.72826 19.4104 6.52692 20.3921 6.52692H20.4954V12.4438H19.8001C19.1943 12.4438 18.7015 12.9366 18.7015 13.5424V16.1618C18.7015 16.7676 19.1943 17.2604 19.8001 17.2604H25.1999C25.8057 17.2604 26.2985 16.7676 26.2985 16.1618V13.5424C26.2985 12.9366 25.8057 12.4438 25.1999 12.4438H24.5046V6.52692H32.0801C32.4442 6.52692 32.7393 6.23187 32.7393 5.86774C32.7393 5.50361 32.4442 5.20856 32.0801 5.20856H20.3922C20.1375 5.20856 19.9302 5.00132 19.9302 4.74652C19.9302 4.49173 20.1374 4.28448 20.3922 4.28448H39.3466C39.3193 4.43451 39.3042 4.58876 39.3042 4.74652C39.3042 4.90437 39.3194 5.05854 39.3468 5.20856H35.1562C34.7921 5.20856 34.4971 5.50361 34.4971 5.86774C34.4971 6.23187 34.7921 6.52692 35.1562 6.52692H40.0241C40.047 6.55074 40.07 6.57447 40.0938 6.59732V14.5838C39.3365 14.679 38.7483 15.3257 38.7483 16.1084V20.6061H30.9203C30.4114 20.6061 29.9974 21.0201 29.9974 21.529V29.6654H27.8681V21.529C27.8681 21.0201 27.4541 20.6061 26.9452 20.6061H18.0547C17.5458 20.6061 17.1318 21.0201 17.1318 21.529V29.6654H15.0025V26.7187C15.0025 26.3546 14.7074 26.0596 14.3433 26.0596C13.9792 26.0596 13.6841 26.3546 13.6841 26.7187V29.6654H5.58448V21.9245H13.6841V23.6426C13.6841 24.0067 13.9792 24.3017 14.3433 24.3017C14.7074 24.3017 15.0025 24.0067 15.0025 23.6426V21.529C15.0025 21.0201 14.5885 20.6061 14.0796 20.6061H5.18897C4.68009 20.6061 4.26612 21.0201 4.26612 21.529V29.6842C1.87937 29.8911 0 31.8987 0 34.3381V34.9217C0 37.0439 1.42242 38.8389 3.36357 39.4065V41.7248C3.36357 42.3307 3.85638 42.8235 4.46221 42.8235H30.8496C31.2137 42.8235 31.5088 42.5284 31.5088 42.1643C31.5088 41.8002 31.2137 41.5051 30.8496 41.5051H4.68193V39.5945H40.3181V41.5051H33.9258C33.5617 41.5051 33.2666 41.8002 33.2666 42.1643C33.2666 42.5284 33.5617 42.8235 33.9258 42.8235H40.5378C41.1436 42.8235 41.6364 42.3307 41.6364 41.7248V39.4065C43.5776 38.8389 45 37.0439 45 34.9217V16.1084C45 15.3257 44.4118 14.679 43.6546 14.5838V14.5838ZM24.9802 15.942H20.0198V13.7622H24.9802V15.942ZM23.1863 12.4438H21.8138V6.52692H23.1863V12.4438ZM42.3362 14.5703H41.4121V7.27417C41.5622 7.3015 41.7164 7.31653 41.8742 7.31653C42.0319 7.31653 42.1862 7.3015 42.3362 7.27417V14.5703ZM43.1259 4.74652C43.1259 5.43673 42.5644 5.99817 41.8743 5.99817C41.1841 5.99817 40.6226 5.43664 40.6226 4.74652C40.6226 4.05641 41.1841 3.49487 41.8743 3.49487C42.5644 3.49487 43.1259 4.05632 43.1259 4.74652ZM34.5953 21.9245H36.136V24.735H34.5953V21.9245ZM31.3159 21.9245H33.277V25.1306C33.277 25.6394 33.6909 26.0534 34.1998 26.0534H36.5315C37.0404 26.0534 37.4543 25.6394 37.4543 25.1306V21.9245H39.4154V29.6654H31.3158V21.9245H31.3159ZM21.7296 21.9245H23.2703V24.735H21.7296V21.9245ZM18.4502 21.9245H20.4113V25.1306C20.4113 25.6394 20.8252 26.0534 21.3341 26.0534H23.6658C24.1747 26.0534 24.5886 25.6394 24.5886 25.1306V21.9245H26.5497V29.6654H18.4501V21.9245H18.4502ZM43.6816 34.9217C43.6816 36.7713 42.1769 38.2761 40.3273 38.2761H4.67271C2.82313 38.2761 1.31836 36.7713 1.31836 34.9217V34.3381C1.31836 32.4885 2.82313 30.9837 4.67271 30.9837H40.3273C42.1769 30.9837 43.6816 32.4885 43.6816 34.3381V34.9217ZM43.6816 31.0907C42.9202 30.3049 41.8867 29.7841 40.7339 29.6842V21.529C40.7339 21.1089 40.4515 20.7542 40.0668 20.6429V16.1084C40.0668 15.9872 40.1653 15.8887 40.2865 15.8887H43.4619C43.5831 15.8887 43.6816 15.9872 43.6816 16.1084V31.0907Z" fill="#A9232E"/>
<path d="M5.26044 32.0598C3.84329 32.0598 2.69043 33.2127 2.69043 34.6298C2.69043 36.047 3.84329 37.1998 5.26044 37.1998C6.67759 37.1998 7.83045 36.047 7.83045 34.6298C7.83045 33.2127 6.67759 32.0598 5.26044 32.0598ZM5.26044 35.8815C4.57023 35.8815 4.00879 35.3199 4.00879 34.6298C4.00879 33.9397 4.57032 33.3782 5.26044 33.3782C5.95056 33.3782 6.51209 33.9397 6.51209 34.6298C6.51209 35.3199 5.95064 35.8815 5.26044 35.8815Z" fill="#A9232E"/>
<path d="M19.0515 32.0598C17.6343 32.0598 16.4814 33.2127 16.4814 34.6298C16.4814 36.047 17.6343 37.1998 19.0515 37.1998C20.4686 37.1998 21.6215 36.047 21.6215 34.6298C21.6215 33.2127 20.4687 32.0598 19.0515 32.0598V32.0598ZM19.0515 35.8815C18.3612 35.8815 17.7998 35.3199 17.7998 34.6298C17.7998 33.9397 18.3613 33.3782 19.0515 33.3782C19.7416 33.3782 20.3031 33.9397 20.3031 34.6298C20.3031 35.3199 19.7417 35.8815 19.0515 35.8815V35.8815Z" fill="#A9232E"/>
<path d="M25.9479 32.0598C24.5308 32.0598 23.3779 33.2127 23.3779 34.6298C23.3779 36.047 24.5308 37.1998 25.9479 37.1998C27.3651 37.1998 28.5179 36.047 28.5179 34.6298C28.5179 33.2127 27.3651 32.0598 25.9479 32.0598ZM25.9479 35.8815C25.2577 35.8815 24.6963 35.3199 24.6963 34.6298C24.6963 33.9397 25.2578 33.3782 25.9479 33.3782C26.6381 33.3782 27.1996 33.9397 27.1996 34.6298C27.1996 35.3199 26.6381 35.8815 25.9479 35.8815Z" fill="#A9232E"/>
<path d="M32.8434 32.0598C31.4263 32.0598 30.2734 33.2127 30.2734 34.6298C30.2734 36.047 31.4263 37.1998 32.8434 37.1998C34.2606 37.1998 35.4135 36.047 35.4135 34.6298C35.4135 33.2127 34.2606 32.0598 32.8434 32.0598ZM32.8434 35.8815C32.1532 35.8815 31.5918 35.3199 31.5918 34.6298C31.5918 33.9397 32.1533 33.3782 32.8434 33.3782C33.5336 33.3782 34.0951 33.9397 34.0951 34.6298C34.0951 35.3199 33.5336 35.8815 32.8434 35.8815Z" fill="#A9232E"/>
<path d="M12.1559 32.0598C10.7388 32.0598 9.58594 33.2127 9.58594 34.6298C9.58594 36.047 10.7388 37.1998 12.1559 37.1998C13.5731 37.1998 14.726 36.047 14.726 34.6298C14.726 33.2127 13.5731 32.0598 12.1559 32.0598V32.0598ZM12.1559 35.8815C11.4657 35.8815 10.9043 35.3199 10.9043 34.6298C10.9043 33.9397 11.4658 33.3782 12.1559 33.3782C12.8461 33.3782 13.4076 33.9397 13.4076 34.6298C13.4076 35.3199 12.8462 35.8815 12.1559 35.8815V35.8815Z" fill="#A9232E"/>
<path d="M39.739 32.0598C38.3218 32.0598 37.1689 33.2127 37.1689 34.6298C37.1689 36.047 38.3218 37.1998 39.739 37.1998C41.1561 37.1998 42.309 36.047 42.309 34.6298C42.309 33.2127 41.1561 32.0598 39.739 32.0598ZM39.739 35.8815C39.0487 35.8815 38.4873 35.3199 38.4873 34.6298C38.4873 33.9397 39.0488 33.3782 39.739 33.3782C40.4291 33.3782 40.9906 33.9397 40.9906 34.6298C40.9906 35.3199 40.4291 35.8815 39.739 35.8815Z" fill="#A9232E"/>
</g>
<defs>
<clipPath id="clip0_191_128">
<rect width="45" height="45" fill="white"/>
</clipPath>
</defs>
</svg>
