<svg width="45" height="45" viewBox="0 0 45 45" fill="none" xmlns="http://www.w3.org/2000/svg">
<path d="M34.7776 44.4727C34.3382 44.4727 33.9866 44.1211 33.9866 43.6816V41.8359H11.012V43.6816C11.012 44.1211 10.6604 44.4727 10.221 44.4727H1.31765C0.939724 44.4727 0.693631 44.2266 0.596951 43.998C0.500271 43.7695 0.482693 43.4268 0.737576 43.1455L3.87527 39.7266L0.737576 36.3076C0.482693 36.0264 0.500271 35.6836 0.596951 35.4551C0.693631 35.2266 0.939724 34.9805 1.31765 34.9805H9.42996V33.1348C9.42996 32.6953 9.78152 32.3438 10.221 32.3438H16.4173V27.8613C16.4173 27.4219 16.7688 27.0703 17.2083 27.0703H19.5813V18.3516L18.6936 19.2041C18.5442 19.3447 18.3509 19.4238 18.1487 19.4238C17.9378 19.4238 17.7356 19.3447 17.5862 19.1953L13.8596 15.4687C13.7102 15.3193 13.6311 15.1172 13.6311 14.9063C13.6311 14.6953 13.7102 14.4932 13.8596 14.3437L19.8186 8.38477C19.968 8.23535 20.1702 8.15625 20.3811 8.15625H25.6546C26.094 8.15625 26.4456 8.50781 26.4456 8.94727V27.0703H28.8186C29.2581 27.0703 29.6096 27.4219 29.6096 27.8613V32.3438H34.7776C35.2171 32.3438 35.5686 32.6953 35.5686 33.1348V34.9805H43.6809C44.0589 34.9805 44.305 35.2266 44.4016 35.4551C44.4983 35.6836 44.5159 36.0264 44.261 36.3076L41.1233 39.7266L44.261 43.1455C44.5159 43.4268 44.4983 43.7695 44.4016 43.998C44.305 44.2266 44.0589 44.4727 43.6809 44.4727H34.7776V44.4727ZM35.5686 42.8906H41.8792L39.471 40.2627C39.1897 39.9551 39.1897 39.498 39.471 39.1904L41.888 36.5625H35.5774V42.8906H35.5686ZM5.52761 39.1904C5.80886 39.498 5.80886 39.9551 5.52761 40.2627L3.11941 42.8906H9.42996V36.5625H3.11941L5.52761 39.1904ZM11.012 40.2539H33.9866V33.9258H11.012V40.2539ZM17.9993 32.3438H28.0276V28.6523H25.6546C25.2151 28.6523 24.8636 28.3008 24.8636 27.8613V9.73828H20.7063L15.5384 14.9063L18.1487 17.5166L19.8186 15.8467C19.9768 15.6885 20.1614 15.6094 20.3636 15.6094C20.7591 15.6094 21.1634 15.9082 21.1634 16.4004V27.8613C21.1634 28.3008 20.8118 28.6523 20.3723 28.6523H17.9993V32.3438V32.3438Z" fill="#A9232E"/>
<path d="M23.0098 5.00977C22.5703 5.00977 22.2188 4.6582 22.2188 4.21875V1.31836C22.2188 0.878906 22.5703 0.527344 23.0098 0.527344C23.4492 0.527344 23.8008 0.878906 23.8008 1.31836V4.21875C23.8008 4.6582 23.4492 5.00977 23.0098 5.00977Z" fill="#A9232E"/>
<path d="M7.98828 13.0254C7.54883 13.0254 7.19727 12.6738 7.19727 12.2344C7.19727 11.7949 7.54883 11.4434 7.98828 11.4434H10.8887C11.3281 11.4434 11.6797 11.7949 11.6797 12.2344C11.6797 12.6738 11.3281 13.0254 10.8887 13.0254H7.98828Z" fill="#A9232E"/>
<path d="M32.4922 13.0254C32.0527 13.0254 31.7012 12.6738 31.7012 12.2344C31.7012 11.7949 32.0527 11.4434 32.4922 11.4434H35.3926C35.832 11.4434 36.1836 11.7949 36.1836 12.2344C36.1836 12.6738 35.832 13.0254 35.3926 13.0254H32.4922Z" fill="#A9232E"/>
<path d="M30.4619 6.25781C30.251 6.25781 30.0488 6.17871 29.8994 6.0293C29.75 5.87988 29.6709 5.67773 29.6709 5.4668C29.6709 5.25586 29.75 5.05371 29.8994 4.9043L31.7715 3.03223C31.9209 2.88281 32.123 2.80371 32.334 2.80371C32.5449 2.80371 32.7471 2.88281 32.8965 3.03223C33.0459 3.18164 33.125 3.38379 33.125 3.59473C33.125 3.80566 33.0459 4.00781 32.8965 4.15723L31.0244 6.02051C30.875 6.16992 30.6729 6.25781 30.4619 6.25781Z" fill="#A9232E"/>
<path d="M15.5557 6.25781C15.3447 6.25781 15.1426 6.17871 14.9932 6.0293L13.1211 4.15723C12.9717 4.00781 12.8926 3.80566 12.8926 3.59473C12.8926 3.38379 12.9717 3.18164 13.1211 3.03223C13.2705 2.88281 13.4727 2.80371 13.6836 2.80371C13.8945 2.80371 14.0967 2.88281 14.2461 3.03223L16.1182 4.9043C16.4258 5.21191 16.4258 5.71289 16.1182 6.02051C15.9687 6.16992 15.7666 6.25781 15.5557 6.25781Z" fill="#A9232E"/>
</svg>
