<svg width="45" height="45" viewBox="0 0 45 45" fill="none" xmlns="http://www.w3.org/2000/svg">
<g clip-path="url(#clip0_191_147)">
<path d="M6.56251 7.48657C5.00921 7.48657 3.75 8.74579 3.75 10.2991V17.7991H5.62498V10.2991C5.62498 9.78132 6.04475 9.36155 6.56251 9.36155H29.0626V7.48657H6.56251Z" fill="#A9232E"/>
<path d="M6.56251 35.6117C6.04475 35.6117 5.62498 35.1919 5.62498 34.6741V25.2991H3.75V34.6741C3.75 36.2274 5.00921 37.4866 6.56251 37.4866H15.9376V35.6117H6.56251V35.6117Z" fill="#A9232E"/>
<path d="M29.7253 38.0295L6.95701 15.2613C6.59094 14.8953 5.9975 14.8953 5.63135 15.2613L0.274484 20.6183C-0.0914945 20.9843 -0.0914945 21.5778 0.274484 21.9439L23.0427 44.7121C23.2185 44.8879 23.457 44.9867 23.7055 44.9867C23.9542 44.9866 24.1925 44.8879 24.3683 44.7121L29.7252 39.3552C30.0912 38.989 30.0912 38.3956 29.7253 38.0295ZM23.7055 42.7236L2.26293 21.281L6.29422 17.2497L27.7368 38.6924L23.7055 42.7236Z" fill="#A9232E"/>
<path d="M41.2501 35.6116H27.1875V37.4866H37.5V42.174C37.5 42.6918 37.9198 43.1116 38.4375 43.1116H41.2501C43.3211 43.1116 45.0001 41.4327 45.0001 39.3615C45.0001 37.2905 43.3211 35.6116 41.2501 35.6116ZM41.2501 41.2366H39.3751V37.4866H41.2501C42.2856 37.4866 43.125 38.326 43.125 39.3615C43.125 40.3971 42.2856 41.2366 41.2501 41.2366Z" fill="#A9232E"/>
<path d="M41.25 7.48657H36.5625V9.36155H41.25C42.2855 9.36155 43.125 10.201 43.125 11.2365V39.3616H44.9999V11.2365C45 9.16547 43.3211 7.48657 41.25 7.48657Z" fill="#A9232E"/>
<path d="M17.1497 26.511L14.3369 29.3237L15.6627 30.6495L18.4754 27.8368L17.1497 26.511Z" fill="#A9232E"/>
<path d="M13.3997 22.761L10.5869 25.5737L11.9127 26.8995L14.7254 24.0868L13.3997 22.761Z" fill="#A9232E"/>
<path d="M20.8977 30.261L18.085 33.0737L19.4108 34.3995L22.2235 31.5868L20.8977 30.261Z" fill="#A9232E"/>
<path d="M24.6497 34.0129L21.8369 36.8257L23.1627 38.1515L25.9755 35.3387L24.6497 34.0129Z" fill="#A9232E"/>
<path d="M9.6477 19.011L6.83496 21.8237L8.16076 23.1495L10.9735 20.3368L9.6477 19.011Z" fill="#A9232E"/>
<path d="M40.438 2.09392L39.1423 0.798316C38.046 -0.248202 36.3207 -0.248202 35.2245 0.798316L20.9688 15.054C20.6028 15.42 20.6028 16.0135 20.9688 16.3796L24.8567 20.2675C25.032 20.444 25.2707 20.5428 25.5195 20.5421C25.7681 20.5421 26.0065 20.4433 26.1822 20.2675L40.438 6.01174C40.4384 6.01131 40.4389 6.01087 40.4393 6.01043C41.5204 4.92858 41.5198 3.17506 40.438 2.09392ZM39.1133 4.68521L25.5195 18.279L22.9573 15.7168L36.5511 2.12389C36.9051 1.7856 37.4627 1.7856 37.8167 2.12389L39.1133 3.41861C39.1134 3.41879 39.1135 3.41887 39.1137 3.41905C39.4632 3.76877 39.463 4.33566 39.1133 4.68521Z" fill="#A9232E"/>
<path d="M25.2181 18.716L21.1718 20.0669L22.5228 16.0141L20.7415 15.4207L18.7971 21.2528C18.7653 21.3485 18.749 21.4486 18.749 21.5493C18.7491 22.0671 19.169 22.4867 19.6867 22.4866C19.786 22.4869 19.8847 22.4717 19.9792 22.4416L25.8114 20.4972L25.2181 18.716Z" fill="#A9232E"/>
<path d="M33.9576 3.38954L32.6318 4.71533L36.5198 8.60329L37.8456 7.27749L33.9576 3.38954Z" fill="#A9232E"/>
<path d="M33.75 20.6116H19.6875V22.4866H33.75V20.6116Z" fill="#A9232E"/>
<path d="M37.5 20.6116H35.625V22.4866H37.5V20.6116Z" fill="#A9232E"/>
<path d="M41.25 20.6116H39.375V22.4866H41.25V20.6116Z" fill="#A9232E"/>
</g>
<defs>
<clipPath id="clip0_191_147">
<rect width="45" height="45" fill="white"/>
</clipPath>
</defs>
</svg>
