<svg width="49" height="49" viewBox="0 0 49 49" fill="none" xmlns="http://www.w3.org/2000/svg">
<g clip-path="url(#clip0_2245_992)">
<path d="M39.7751 39.8098H32.1455V35.2402H39.7751V39.8098ZM33.6619 38.2953H38.2594V36.7563H33.6619V38.2953Z" fill="#B8D049"/>
<path d="M44.4255 0H36.7646V30.6353H33.6927V19.7805L18.3409 28.1895V19.7805L0 30.6812V49H49V30.6353H44.4263L44.4255 0ZM38.281 1.51527H42.9091V30.6361H38.281V1.51527ZM19.8726 47.4847H12.273V39.7982H19.8726V47.4847ZM47.4836 47.4847H21.3891V38.2836H10.7566V47.4855H1.51641V31.543L16.8245 22.4444V28.1895V30.7478L19.0693 29.518L32.1763 22.3388V30.6353V32.1506H33.6927H47.4836V47.4847Z" fill="#B8D049"/>
</g>
<defs>
<clipPath id="clip0_2245_992">
<rect width="49" height="49" fill="white"/>
</clipPath>
</defs>
</svg>
