<svg width="22" height="23" viewBox="0 0 22 23" fill="none" xmlns="http://www.w3.org/2000/svg">
<path d="M4.5835 8.75H17.4168M13.7502 17V14.25M8.25016 17H8.25933M11.0002 17H11.0093M11.0002 14.25H11.0093M8.25016 14.25H8.25933M13.7502 11.5H13.7593M11.0002 11.5H11.0093M8.25016 11.5H8.25933M7.51683 19.75H14.4835C15.5103 19.75 16.0236 19.75 16.4158 19.5502C16.7608 19.3744 17.0412 19.0939 17.217 18.749C17.4168 18.3568 17.4168 17.8434 17.4168 16.8167V6.18333C17.4168 5.15657 17.4168 4.64319 17.217 4.25102C17.0412 3.90605 16.7608 3.62559 16.4158 3.44982C16.0236 3.25 15.5103 3.25 14.4835 3.25H7.51683C6.49007 3.25 5.97669 3.25 5.58451 3.44982C5.23955 3.62559 4.95909 3.90605 4.78332 4.25102C4.5835 4.64319 4.5835 5.15657 4.5835 6.18333V16.8167C4.5835 17.8434 4.5835 18.3568 4.78332 18.749C4.95909 19.0939 5.23955 19.3744 5.58451 19.5502C5.97669 19.75 6.49007 19.75 7.51683 19.75Z" stroke="white" stroke-width="1.5" stroke-linecap="round" stroke-linejoin="round"/>
</svg>
