<svg width="24" height="25" viewBox="0 0 24 25" fill="none" xmlns="http://www.w3.org/2000/svg">
<path fill-rule="evenodd" clip-rule="evenodd" d="M11 2.5C15.9706 2.5 20 6.52944 20 11.5C20 13.6248 19.2637 15.5776 18.0323 17.1172L21.7071 20.7929C22.0976 21.1834 22.0976 21.8166 21.7071 22.2071C21.3466 22.5676 20.7794 22.5953 20.3871 22.2903L20.2929 22.2071L16.6172 18.5323C15.0776 19.7637 13.1248 20.5 11 20.5C6.02944 20.5 2 16.4706 2 11.5C2 6.52944 6.02944 2.5 11 2.5ZM11 4.5C7.13401 4.5 4 7.63401 4 11.5C4 15.366 7.13401 18.5 11 18.5C14.866 18.5 18 15.366 18 11.5C18 7.63401 14.866 4.5 11 4.5Z" fill="#0082C2"/>
</svg>
