<svg width="24" height="24" viewBox="0 0 24 24" fill="none" xmlns="http://www.w3.org/2000/svg">
<path fill-rule="evenodd" clip-rule="evenodd" d="M10.7903 19.6129L10.7071 19.7071C10.3466 20.0676 9.77939 20.0953 9.3871 19.7903L9.29289 19.7071L2.29289 12.7071L2.2515 12.6631L2.19634 12.5953L2.12467 12.4841L2.07123 12.3713L2.03585 12.266L2.00691 12.1181L2 12L2.00279 11.9248L2.02024 11.7993L2.04974 11.6879L2.09367 11.5768L2.146 11.4793L2.21969 11.3745L2.29289 11.2929L9.29289 4.29289C9.68342 3.90237 10.3166 3.90237 10.7071 4.29289C11.0676 4.65338 11.0953 5.22061 10.7903 5.6129L10.7071 5.70711L5.416 11L21 11C21.5523 11 22 11.4477 22 12C22 12.5523 21.5523 13 21 13L5.414 13L10.7071 18.2929C11.0676 18.6534 11.0953 19.2206 10.7903 19.6129L10.7071 19.7071L10.7903 19.6129Z" fill="white"/>
</svg>
