<svg width="61" height="61" viewBox="0 0 61 61" fill="none" xmlns="http://www.w3.org/2000/svg">
<path d="M52.3213 17.5627C50.0467 13.7284 46.9273 10.544 43.093 8.33445H43.028C39.1938 6.12486 34.8396 4.95508 30.4204 4.95508C26.0012 4.95508 21.647 6.12486 17.8128 8.33445H17.7478C13.9785 10.544 10.7941 13.7284 8.58449 17.5627V17.6277C6.30992 21.397 5.14014 25.7512 5.14014 30.1704C5.14014 34.5895 6.30992 38.9437 8.5195 42.843L8.58449 42.908C10.7941 46.6773 13.9785 49.8617 17.8128 52.0712H17.8777C21.712 54.2808 26.0662 55.4506 30.4204 55.4506H44.6527C44.9777 55.4506 45.1726 55.1907 45.1726 54.9307C45.1726 54.6058 44.9127 54.4108 44.6527 54.4108H36.1393V41.0883H44.6527C44.9777 41.0883 45.1726 40.8284 45.1726 40.5684C45.1726 40.2435 44.9127 40.0485 44.6527 40.0485H30.4204C25.0264 40.0485 20.6072 35.6293 20.6072 30.2353C20.6072 24.8414 25.0264 20.4222 30.4204 20.4222C35.8144 20.3572 40.2336 24.7764 40.2336 30.1704V34.3946C40.2336 34.7195 40.4935 34.9145 40.7535 34.9145H55.1808C55.5057 34.9145 55.7007 34.6545 55.7007 34.3946V30.1704C55.7656 25.7512 54.5959 21.397 52.3213 17.5627ZM31.0053 41.0883H35.0345V54.4108H31.0053V41.0883ZM25.7413 40.0485C26.976 40.6334 28.2758 40.9583 29.6405 41.0883H29.9005V54.4108H29.5756C25.8712 54.2808 22.3619 53.306 19.1125 51.6163L18.7876 51.4214L25.4163 39.9185L25.7413 40.0485ZM21.4521 36.3442C22.2319 37.449 23.2067 38.4238 24.3115 39.2037L24.5715 39.3986L17.8777 50.9015L17.6178 50.7065C14.5634 48.7569 11.8989 46.0924 9.94923 43.0379L9.75427 42.778L21.2571 36.1492L21.4521 36.3442ZM20.7372 35.1744L9.16938 41.8032L9.03941 41.5432C7.28473 38.2938 6.37491 34.7845 6.24493 31.0802V30.7552H19.5674V31.0152C19.6974 32.3799 20.0223 33.6797 20.6072 34.9145L20.7372 35.1744ZM20.6072 25.4912C20.0223 26.726 19.6974 28.0258 19.5674 29.3905V29.6504H6.24493V29.3255C6.37491 25.6212 7.34972 22.1119 9.03941 18.8625L9.16938 18.6025L20.7372 25.2313L20.6072 25.4912ZM24.2466 21.202C23.1418 21.9819 22.1669 22.8917 21.3871 24.0615L21.2571 24.2565L9.75427 17.6277L9.94923 17.3678C11.8989 14.3133 14.5634 11.6488 17.6178 9.69919L17.8777 9.50423L24.5065 21.0071L24.2466 21.202ZM29.9005 19.3174H29.6405C28.2758 19.4474 26.976 19.7723 25.7413 20.3572L25.4813 20.4872L18.7876 8.98432L19.0475 8.85435C22.2969 7.09968 25.8063 6.18985 29.5106 6.05987H29.8355V19.3174H29.9005ZM35.1645 20.3572C33.9297 19.7723 32.63 19.4474 31.2652 19.3174H31.0053V5.99488H31.3302C35.0345 6.12486 38.5439 7.09968 41.7933 8.78936L42.0532 8.91934L35.4245 20.4872L35.1645 20.3572ZM39.4537 24.0615C38.6739 22.9567 37.699 21.9819 36.5942 21.202L36.3343 21.0071L42.963 9.50423L43.223 9.69919C46.2774 11.6488 48.9419 14.3133 50.8916 17.3678L51.0865 17.6277L39.5837 24.2565L39.4537 24.0615ZM54.6608 33.8747H41.3383V30.7552H54.6608V33.8747ZM54.6608 29.6504H41.3383V29.3905C41.2084 28.0258 40.8834 26.726 40.2985 25.4912L40.1686 25.2313L51.6714 18.6025L51.8014 18.8625C53.5561 22.1119 54.4659 25.6212 54.5959 29.3255L54.6608 29.6504Z" fill="white"/>
</svg>
