<svg width="61" height="60" viewBox="0 0 61 60" fill="none" xmlns="http://www.w3.org/2000/svg">
<path d="M51.0354 18.8353C49.2979 14.6525 46.4022 11.1133 42.6699 8.6036H42.6055C39.0019 6.287 34.8192 5 30.5721 5C26.2606 5 22.1422 6.22265 18.4743 8.6036C14.6776 11.1133 11.8462 14.5882 10.1088 18.7709V18.8353C9.07915 21.4736 8.5 24.2407 8.5 27.0721V54.4852C8.5 54.8069 8.7574 55 9.0148 55C9.33655 55 9.5296 54.7426 9.5296 54.4852V52.0399H23.3005V54.4852C23.3005 54.8069 23.5579 55 23.8153 55H37.2001C37.5219 55 37.7149 54.7426 37.7149 54.4852V52.0399H51.4858V54.4852C51.4858 54.8069 51.7432 55 52.0006 55C52.3224 55 52.5154 54.7426 52.5154 54.4852V27.1364C52.6441 24.305 52.065 21.538 51.0354 18.8353C51.0354 18.8353 51.0354 18.8996 51.0354 18.8353ZM31.0225 6.09395H31.3443C34.8835 6.22265 38.2941 7.25225 41.3185 9.05405L41.5759 9.18275L34.047 21.9884L33.7896 21.8597C33.0174 21.4736 32.1808 21.2162 31.3443 21.1519H31.0869V6.09395H31.0225ZM19.6969 9.1184C22.7214 7.3166 26.1319 6.287 29.6712 6.1583H29.9929V21.1519H29.7355C28.899 21.2162 28.0624 21.4736 27.2902 21.8597L27.0328 21.9884L19.4395 9.2471L19.6969 9.1184ZM23.2362 50.9459H9.46525V44.7683H23.2362V50.9459ZM23.2362 43.6744H9.46525V37.4968H23.2362V43.6744ZM23.2362 36.4028H9.46525V30.2252H23.2362V36.4028ZM23.751 25.7851C23.4292 26.6216 23.3005 27.4582 23.3005 28.2947V29.1313H9.46525V27.1364C9.46525 24.7555 9.85135 22.3745 10.6879 20.1223L10.8166 19.8005L23.8153 25.5277L23.751 25.7851ZM11.2027 18.7709L11.3314 18.5135C12.8758 15.1673 15.2568 12.2072 18.2169 10.0837L18.4743 9.89061L26.0676 22.5676L25.8745 22.7606C25.3597 23.2111 24.8449 23.7259 24.4588 24.3694L24.3301 24.4981L11.2027 18.7709ZM36.6853 53.9704H24.3301V28.2947C24.3301 24.8842 27.0972 22.1171 30.5077 22.1171C33.9183 22.1171 36.6853 24.8842 36.6853 28.2947V53.9704ZM36.5566 24.305C36.1705 23.7259 35.7201 23.2111 35.1409 22.6963L34.9479 22.5032L42.5412 9.82625L42.7986 10.0193C45.823 12.2072 48.204 15.103 49.684 18.4492L49.8127 18.7066L36.6853 24.4337L36.5566 24.305ZM51.5502 50.9459H37.7149V44.7683H51.4858V50.9459H51.5502ZM51.5502 43.6744H37.7149V37.4968H51.4858V43.6744H51.5502ZM51.5502 36.4028H37.7149V30.2252H51.4858V36.4028H51.5502ZM51.5502 29.1313H37.7149V28.2947C37.7149 27.4582 37.5862 26.6216 37.2645 25.7851L37.2001 25.5277L50.2632 19.8005L50.3919 20.1223C51.1641 22.3745 51.6145 24.7555 51.6145 27.1364V29.1313H51.5502Z" fill="white"/>
</svg>
