<svg width="147" height="88" viewBox="0 0 147 88" fill="none" xmlns="http://www.w3.org/2000/svg">
<path d="M23.6969 32.8612C23.6969 35.4925 21.5529 37.6256 18.9082 37.6256C16.2634 37.6256 14.1195 35.4931 14.1195 32.8612V4.76439C14.1195 2.13307 16.2634 0 18.9082 0C21.5529 0 23.6969 2.13245 23.6969 4.76439V32.8612Z" fill="white"/>
<path d="M7.4696 11.6544C10.1143 11.6544 12.2583 9.52129 12.2583 6.88998C12.2583 4.25868 10.1143 2.12559 7.4696 2.12559C4.82487 2.12559 2.68089 4.25868 2.68089 6.88998C2.68089 9.52129 4.82487 11.6544 7.4696 11.6544Z" fill="#B5ABCD"/>
<path d="M30.3474 11.6544C32.9921 11.6544 35.1361 9.52129 35.1361 6.88998C35.1361 4.25868 32.9921 2.12559 30.3474 2.12559C27.7027 2.12559 25.5587 4.25868 25.5587 6.88998C25.5587 9.52129 27.7027 11.6544 30.3474 11.6544Z" fill="#A8C8C1"/>
<path d="M7.4696 35.4993C10.1143 35.4993 12.2583 33.3662 12.2583 30.7349C12.2583 28.1036 10.1143 25.9705 7.4696 25.9705C4.82487 25.9705 2.68089 28.1036 2.68089 30.7349C2.68089 33.3662 4.82487 35.4993 7.4696 35.4993Z" fill="#E0A990"/>
<path d="M30.3474 35.4993C32.9921 35.4993 35.1361 33.3662 35.1361 30.7349C35.1361 28.1036 32.9921 25.9705 30.3474 25.9705C27.7027 25.9705 25.5587 28.1036 25.5587 30.7349C25.5587 33.3662 27.7027 35.4993 30.3474 35.4993Z" fill="#8BB6E5"/>
<path d="M33.0283 14.0484H23.6969V4.765C23.6969 2.13367 21.5529 0.00060463 18.9082 0.00060463C16.2634 0.00060463 14.1195 2.13305 14.1195 4.765V14.0484H4.78871C2.14334 14.0484 0 16.1814 0 18.8128C0 21.4441 2.14334 23.5772 4.78871 23.5772H14.1195V32.8618C14.1195 35.4931 16.2634 37.6262 18.9082 37.6262C21.5529 37.6262 23.6969 35.4937 23.6969 32.8618V23.5772H33.0283C35.673 23.5772 37.8164 21.4447 37.8164 18.8128C37.8164 16.1814 35.673 14.0484 33.0283 14.0484Z" fill="white"/>
<path d="M12.3841 61.3589C12.8021 60.2434 13.2711 59.0405 13.79 57.7503C14.3088 56.46 14.8526 55.1363 15.4219 53.7791C15.9906 52.4225 16.5805 51.0443 17.1915 49.6456C17.8019 48.2469 18.4093 46.8816 19.0116 45.5492C19.3124 44.8837 19.6556 44.422 20.0406 44.1636C20.4255 43.9058 20.9101 43.7762 21.4963 43.7762C21.7136 43.7762 21.9267 43.8016 22.1366 43.8512C22.3452 43.9014 22.5296 43.9603 22.6891 44.026C22.8479 44.0929 22.9818 44.1549 23.0908 44.2131C23.1998 44.2726 23.2621 44.3098 23.2789 44.3259C23.5468 44.7926 23.8943 45.4836 24.321 46.3995C24.7477 47.3154 25.208 48.3436 25.7013 49.4838C26.1946 50.6247 26.7011 51.8158 27.2199 53.0559C27.7388 54.2966 28.2196 55.4703 28.6631 56.5778C29.106 57.6852 29.4953 58.6675 29.8304 59.5251C30.1649 60.3828 30.3991 60.9945 30.533 61.3607H27.2193C27.1352 61.1612 27.0268 60.878 26.8929 60.5117C26.759 60.1455 26.6126 59.7501 26.4538 59.3256C26.2943 58.9005 26.1311 58.4722 25.9642 58.0391C25.7966 57.6065 25.6459 57.2235 25.512 56.8901H17.1037C16.7356 57.806 16.4048 58.6507 16.1121 59.4254C15.8187 60.1994 15.5801 60.8451 15.3964 61.3607H12.3841V61.3589ZM24.5091 54.2656C24.2749 53.6496 24.0071 52.971 23.7056 52.2298C23.4041 51.4893 23.107 50.7648 22.8143 50.0571C22.5215 49.3494 22.245 48.7042 21.9858 48.1211C21.7261 47.5392 21.5212 47.0973 21.3704 46.7974C21.153 47.264 20.9101 47.792 20.6429 48.3838C20.3751 48.9751 20.0985 49.5991 19.8145 50.2566C19.5298 50.9148 19.2452 51.5847 18.9611 52.267C18.6758 52.9499 18.4086 53.6161 18.1576 54.2656H24.5091Z" fill="white"/>
<path d="M33.245 45.8486C33.245 45.3162 33.379 44.9289 33.6468 44.6872C33.914 44.4455 34.2242 44.2918 34.5755 44.2255C34.91 44.1592 35.45 44.1004 36.195 44.0502C36.9393 44.0006 38.0151 43.9752 39.4209 43.9752C40.9432 43.9752 42.1983 44.109 43.1862 44.3755C44.1735 44.6426 44.9471 44.9958 45.5083 45.4371C46.0689 45.8783 46.4582 46.3859 46.6756 46.9603C46.893 47.5348 47.002 48.1384 47.002 48.7712C47.002 49.3041 46.931 49.7745 46.789 50.1823C46.6463 50.59 46.4707 50.9439 46.262 51.2438C46.0527 51.5432 45.8142 51.7979 45.5463 52.0055C45.2785 52.2137 45.0194 52.3761 44.7683 52.492C45.6217 52.7758 46.3125 53.2623 46.8394 53.9533C47.3664 54.6442 47.6305 55.5143 47.6305 56.5629C47.6305 57.2626 47.5215 57.9201 47.3041 58.5367C47.0861 59.1527 46.6806 59.6894 46.0864 60.1473C45.4921 60.6053 44.6637 60.9635 43.6011 61.2213C42.5378 61.4791 41.17 61.6086 39.4969 61.6086C38.6934 61.6086 37.9322 61.5956 37.2128 61.5708C36.4934 61.546 35.8574 61.5206 35.3049 61.4958C34.753 61.4711 34.2965 61.4413 33.9371 61.4085C33.577 61.3744 33.3472 61.3583 33.2469 61.3583V45.8486H33.245ZM40.8261 51.343C41.4116 51.343 41.9056 51.2804 42.3073 51.1558C42.7091 51.0307 43.0349 50.864 43.2865 50.6557C43.5375 50.4475 43.7169 50.1984 43.8259 49.9065C43.9349 49.6152 43.9891 49.3029 43.9891 48.9695C43.9891 48.6206 43.9175 48.2915 43.7755 47.9829C43.6328 47.6755 43.3949 47.4127 43.0604 47.1958C42.7253 46.9796 42.2818 46.8091 41.7299 46.684C41.1774 46.5594 40.4997 46.4968 39.6968 46.4968C38.7258 46.4968 37.931 46.5216 37.3118 46.5718C36.6921 46.6214 36.3077 46.6629 36.157 46.6964V51.3418H40.8261V51.343ZM36.157 58.8608C36.3077 58.8949 36.6796 58.9358 37.2738 58.9854C37.8674 59.0356 38.7171 59.0604 39.8214 59.0604C40.7084 59.0604 41.4534 59.0064 42.0557 58.898C42.658 58.7895 43.1476 58.6234 43.5244 58.3985C43.9007 58.1735 44.1685 57.8984 44.328 57.5743C44.4868 57.2495 44.5665 56.8628 44.5665 56.4129C44.5665 56.0634 44.5123 55.738 44.4033 55.4387C44.2943 55.1394 44.11 54.8773 43.8508 54.6517C43.5911 54.4273 43.2485 54.2482 42.8218 54.115C42.3952 53.9818 41.8632 53.9155 41.2279 53.9155H36.157V58.8608V58.8608Z" fill="white"/>
<path d="M58.4487 61.6582V60.0098C57.2434 59.91 56.1552 59.6689 55.1854 59.2859C54.2143 58.9029 53.3859 58.3991 52.7001 57.7751C52.0137 57.1504 51.4867 56.4142 51.1186 55.5651C50.7505 54.7155 50.5667 53.7835 50.5667 52.7671C50.5667 51.752 50.7505 50.8231 51.1186 49.9827C51.4867 49.1424 52.0137 48.4093 52.7001 47.7846C53.3865 47.1599 54.215 46.6573 55.1854 46.2737C56.1559 45.8913 57.244 45.6496 58.4487 45.5493V45.1749C58.4487 44.3098 58.9588 43.876 59.9797 43.876C60.2974 43.876 60.5858 43.9138 60.8455 43.9882C61.1053 44.0632 61.2759 44.1258 61.36 44.1753V45.5251C62.5653 45.6242 63.6529 45.8665 64.6233 46.2489C65.5938 46.6319 66.4222 47.1357 67.1086 47.7598C67.7944 48.3845 68.3263 49.1207 68.7026 49.9697C69.0788 50.8187 69.2675 51.752 69.2675 52.7671C69.2675 53.7835 69.0831 54.7155 68.715 55.5651C68.3469 56.4142 67.815 57.151 67.1211 57.7751C66.4265 58.3997 65.5938 58.9029 64.6233 59.2859C63.6522 59.6689 62.5647 59.91 61.36 60.0098V61.6582H58.4487ZM53.754 52.7665C53.754 54.0326 54.1514 55.0985 54.9468 55.9636C55.741 56.8294 56.9083 57.3375 58.4487 57.4869V48.0461C56.8921 48.2301 55.7205 48.7501 54.9338 49.6078C54.1471 50.4649 53.754 51.5184 53.754 52.7665ZM66.0796 52.7665C66.0796 51.5016 65.6822 50.4401 64.8874 49.5824C64.0926 48.7247 62.9166 48.2128 61.36 48.0461V57.5123C62.9166 57.3456 64.092 56.8294 64.8874 55.9636C65.6822 55.0985 66.0796 54.0326 66.0796 52.7665Z" fill="white"/>
<path d="M71.2009 61.3589C71.6189 60.2434 72.0879 59.0405 72.6068 57.7503C73.1256 56.46 73.6694 55.1363 74.2387 53.7791C74.808 52.4225 75.3979 51.0443 76.0083 49.6456C76.6188 48.2469 77.2261 46.8816 77.8284 45.5492C78.1299 44.8837 78.4718 44.422 78.8574 44.1636C79.2417 43.9058 79.7269 43.7762 80.3137 43.7762C80.5305 43.7762 80.7441 43.8016 80.9534 43.8512C81.1627 43.9014 81.3464 43.9603 81.5059 44.026C81.6654 44.0929 81.798 44.1549 81.9077 44.2131C82.016 44.2726 82.0789 44.3098 82.0964 44.3259C82.3642 44.7926 82.7105 45.4836 83.1378 46.3995C83.5651 47.3154 84.0248 48.3436 84.5188 49.4838C85.0127 50.6247 85.5185 51.8158 86.0374 53.0559C86.5568 54.2966 87.0371 55.4703 87.4812 56.5778C87.9241 57.6852 88.3134 58.6675 88.6479 59.5251C88.9836 60.3828 89.2172 60.9945 89.3511 61.3607H86.0374C85.9533 61.1612 85.8449 60.878 85.7116 60.5117C85.5783 60.1455 85.4319 59.7501 85.2725 59.3256C85.113 58.9005 84.9498 58.4722 84.7835 58.0391C84.6153 57.6065 84.4646 57.2235 84.3307 56.8901H75.9218C75.553 57.806 75.2223 58.6507 74.9301 59.4254C74.6368 60.1994 74.3982 60.8451 74.2144 61.3607H71.2009V61.3589ZM83.326 54.2656C83.0911 53.6496 82.8233 52.971 82.5231 52.2298C82.2216 51.4893 81.9245 50.7648 81.6311 50.0571C81.3377 49.3494 81.0618 48.7042 80.8027 48.1211C80.5435 47.5392 80.338 47.0973 80.1885 46.7974C79.9705 47.264 79.7276 47.792 79.4597 48.3838C79.1919 48.9757 78.916 49.5991 78.6313 50.2566C78.3466 50.9141 78.062 51.5847 77.7786 52.267C77.4939 52.9499 77.2261 53.6161 76.9744 54.2656H83.326Z" fill="white"/>
<path d="M92.0612 45.8486C92.0612 45.3162 92.1952 44.9326 92.463 44.6996C92.7308 44.466 93.0566 44.3086 93.4415 44.2249C93.7094 44.1741 94.1952 44.1208 94.8978 44.0619C95.6011 44.0037 96.6045 43.9739 97.9101 43.9739C100.588 43.9739 102.579 44.4988 103.885 45.5474C105.19 46.5966 105.843 47.9953 105.843 49.7435C105.843 50.559 105.705 51.3213 105.43 52.029C105.154 52.7374 104.714 53.349 104.111 53.8646C103.509 54.3809 102.722 54.7849 101.752 55.0762C100.781 55.3674 99.6012 55.5131 98.2122 55.5131C97.8609 55.5131 97.5046 55.5001 97.1452 55.4753C96.7852 55.4505 96.455 55.4257 96.1536 55.4003C95.8521 55.3755 95.5923 55.3464 95.375 55.3129C95.1569 55.2795 95.0237 55.2627 94.9732 55.2627V61.357H92.0612V45.8486ZM94.9732 52.7417C95.0903 52.7584 95.4167 52.8043 95.9517 52.8793C96.4874 52.9543 97.1732 52.9921 98.0104 52.9921C98.931 52.9921 99.7009 52.9084 100.32 52.7423C100.939 52.5762 101.429 52.3426 101.788 52.0433C102.148 51.7433 102.404 51.3982 102.554 51.0065C102.704 50.6154 102.78 50.1947 102.78 49.7454C102.78 49.3289 102.712 48.9255 102.579 48.5338C102.445 48.1428 102.194 47.7976 101.826 47.4976C101.457 47.1977 100.951 46.9566 100.307 46.7732C99.6623 46.5898 98.8382 46.4987 97.8341 46.4987C97.0306 46.4987 96.3865 46.5154 95.9007 46.5482C95.4154 46.5823 95.1059 46.6152 94.972 46.648V52.7417H94.9732Z" fill="white"/>
<path d="M109.307 61.3589C109.323 60.9263 109.353 60.3016 109.395 59.4861C109.437 58.6705 109.487 57.7589 109.546 56.7513C109.604 55.7442 109.663 54.695 109.721 53.6043C109.78 52.5136 109.838 51.4651 109.897 50.4574C109.955 49.4504 110.01 48.5425 110.06 47.735C110.11 46.9269 110.152 46.3072 110.186 45.874C110.219 45.2741 110.42 44.8502 110.788 44.5998C111.156 44.3507 111.575 44.2255 112.044 44.2255C112.562 44.2255 112.989 44.2999 113.324 44.4492C113.658 44.5992 113.893 44.7411 114.027 44.8744C114.228 45.2741 114.534 45.8864 114.943 46.7106C115.353 47.5342 115.797 48.426 116.275 49.3828C116.752 50.3409 117.228 51.2854 117.705 52.2174C118.182 53.1507 118.579 53.9247 118.897 54.5401C119.182 53.9743 119.538 53.2709 119.964 52.43C120.392 51.5896 120.818 50.74 121.245 49.8829C121.672 49.0252 122.074 48.2178 122.45 47.4605C122.827 46.7032 123.115 46.1157 123.317 45.6992C123.551 45.2165 123.844 44.8502 124.195 44.6005C124.546 44.3513 124.999 44.2261 125.551 44.2261C126.036 44.2261 126.446 44.2881 126.781 44.4133C127.116 44.5379 127.324 44.6426 127.409 44.725C127.442 45.1917 127.484 45.8665 127.534 46.7484C127.584 47.6315 127.638 48.6094 127.698 49.6834C127.756 50.7567 127.818 51.8809 127.886 53.0546C127.952 54.229 128.02 55.3526 128.087 56.4259C128.153 57.4999 128.208 58.4741 128.25 59.3485C128.291 60.2223 128.329 60.8928 128.363 61.3589H125.426C125.409 61.0924 125.384 60.6307 125.351 59.9732C125.317 59.3157 125.276 58.5534 125.225 57.6877C125.175 56.8225 125.125 55.9109 125.075 54.9528C125.025 53.996 124.974 53.0881 124.924 52.2304C124.874 51.3727 124.828 50.6161 124.786 49.9579C124.744 49.2998 124.715 48.8461 124.698 48.5964C124.548 48.8963 124.347 49.2961 124.095 49.7956C123.844 50.2957 123.572 50.841 123.279 51.4316C122.986 52.0228 122.681 52.6432 122.363 53.2926C122.044 53.9421 121.739 54.5624 121.446 55.1536C121.153 55.7448 120.886 56.2939 120.643 56.8015C120.4 57.3096 120.204 57.7137 120.054 58.013H117.593C117.393 57.5631 117.099 56.9428 116.715 56.152C116.33 55.3619 115.916 54.5159 115.472 53.6174C115.029 52.7181 114.585 51.827 114.142 50.9445C113.698 50.062 113.3 49.2961 112.949 48.6466C112.933 49.0463 112.903 49.5793 112.861 50.2448C112.819 50.911 112.777 51.6522 112.736 52.4678C112.694 53.2833 112.647 54.1292 112.598 55.003C112.547 55.8769 112.501 56.7221 112.459 57.5383C112.418 58.3539 112.38 59.0957 112.346 59.7612C112.312 60.4268 112.287 60.9604 112.271 61.3595H109.307V61.3589Z" fill="white"/>
<path d="M17.4718 76.5556H16.4229L15.8872 75.1297H13.7109L13.1814 76.5556H12.1406L14.3693 70.9137H15.2519L17.4718 76.5556ZM15.5733 74.2683L14.8096 72.1346L14.0341 74.2683H15.5733Z" fill="white"/>
<path d="M21.6931 75.1377C21.5511 75.618 21.3057 75.9929 20.9568 76.2613C20.6074 76.5309 20.1813 76.6647 19.6768 76.6647C19.0627 76.6647 18.5563 76.4627 18.157 76.058C17.7577 75.6533 17.5584 75.1452 17.5584 74.5341C17.5584 73.9175 17.7577 73.4087 18.157 73.0059C18.5563 72.6043 19.0651 72.4023 19.6849 72.4023C20.1894 72.4023 20.6155 72.5331 20.9649 72.7946C21.3144 73.0555 21.5542 73.4267 21.6856 73.907H20.7799C20.5644 73.4422 20.1838 73.2098 19.6382 73.2098C19.2757 73.2098 18.9848 73.3374 18.7643 73.5934C18.5438 73.8493 18.4335 74.1629 18.4335 74.5341C18.4335 74.9053 18.5463 75.2158 18.7724 75.4662C19.0085 75.7333 19.3106 75.8665 19.6781 75.8665C19.9353 75.8665 20.1639 75.8021 20.3632 75.6738C20.5626 75.5461 20.7021 75.3676 20.7806 75.1377H21.6931V75.1377Z" fill="white"/>
<path d="M26.237 75.1377C26.095 75.618 25.8496 75.9929 25.5008 76.2613C25.1513 76.5309 24.7253 76.6647 24.2207 76.6647C23.6066 76.6647 23.1002 76.4627 22.7009 76.058C22.3016 75.6533 22.1023 75.1452 22.1023 74.5341C22.1023 73.9175 22.3016 73.4087 22.7009 73.0059C23.1002 72.6043 23.6091 72.4023 24.2288 72.4023C24.7334 72.4023 25.1594 72.5331 25.5088 72.7946C25.8583 73.0555 26.0981 73.4267 26.2295 73.907H25.3239C25.1083 73.4422 24.7278 73.2098 24.1821 73.2098C23.8196 73.2098 23.5287 73.3374 23.3082 73.5934C23.0877 73.8493 22.9775 74.1629 22.9775 74.5341C22.9775 74.9053 23.0902 75.2158 23.3163 75.4662C23.5524 75.7333 23.8545 75.8665 24.222 75.8665C24.4792 75.8665 24.7078 75.8021 24.9071 75.6738C25.1065 75.5461 25.246 75.3676 25.3245 75.1377H26.237V75.1377Z" fill="white"/>
<path d="M30.9385 74.4951C30.9385 75.1012 30.7323 75.6143 30.32 76.0345C29.9076 76.4546 29.3975 76.6653 28.7883 76.6653C28.1848 76.6653 27.6752 76.459 27.2604 76.0462C26.8456 75.6341 26.6381 75.1272 26.6381 74.5267C26.6381 73.9367 26.8468 73.4304 27.2641 73.0108C27.6815 72.5901 28.1841 72.3793 28.7721 72.3793C29.3657 72.3793 29.8746 72.5857 30.3001 72.9985C30.7261 73.4112 30.9385 73.9094 30.9385 74.4951ZM30.0484 74.5341C30.0484 74.1579 29.9307 73.8431 29.6959 73.5903C29.4604 73.3368 29.1552 73.2104 28.7802 73.2104C28.4158 73.2104 28.1156 73.3393 27.8808 73.5983C27.646 73.8568 27.5282 74.1691 27.5282 74.5347C27.5282 74.9059 27.646 75.2152 27.8808 75.4631C28.1156 75.711 28.4183 75.8355 28.7883 75.8355C29.1583 75.8355 29.4604 75.7103 29.6959 75.4593C29.9307 75.2077 30.0484 74.8997 30.0484 74.5341Z" fill="white"/>
<path d="M35.4033 77.4096H34.616V76.5556H31.5763V72.5126H32.4502V75.8039H34.0965V72.5126H34.9704V75.8039H35.4033V77.4096V77.4096Z" fill="white"/>
<path d="M39.4751 76.5556H38.585V73.819L36.6485 76.5556H35.8443V72.5126H36.7182V75.2319L38.6716 72.5126H39.4751V76.5556V76.5556Z" fill="white"/>
<path d="M44.3971 76.5556H43.5388V76.0537C43.1918 76.4509 42.7483 76.6492 42.2077 76.6492C41.6035 76.6492 41.1064 76.4447 40.7153 76.0345C40.3241 75.6248 40.1285 75.1191 40.1285 74.5186C40.1285 73.9336 40.3247 73.4347 40.7178 73.022C41.1108 72.6093 41.5979 72.4029 42.179 72.4029C42.7346 72.4029 43.1769 72.5938 43.507 72.9749V72.5126H44.3971V76.5556V76.5556ZM43.5388 74.5502C43.5388 74.1846 43.4173 73.8698 43.1738 73.6064C42.9302 73.3424 42.6281 73.2104 42.2669 73.2104C41.9162 73.2104 41.6178 73.3412 41.3718 73.6021C41.1257 73.8636 41.003 74.1691 41.003 74.5186C41.003 74.8737 41.1276 75.1861 41.3761 75.455C41.6247 75.7246 41.9268 75.8585 42.2831 75.8585C42.6182 75.8585 42.9109 75.7252 43.1619 75.4581C43.413 75.1923 43.5388 74.8898 43.5388 74.5502Z" fill="white"/>
<path d="M49.0749 77.4096H48.2876V76.5556H45.248V72.5126H46.1219V75.8039H47.7681V72.5126H48.642V75.8039H49.0749V77.4096V77.4096Z" fill="white"/>
<path d="M53.1467 76.5556H52.2566V73.819L50.3201 76.5556H49.5159V72.5126H50.3898V75.2319L52.3432 72.5126H53.1467V76.5556V76.5556Z" fill="white"/>
<path d="M56.9974 76.5556H56.1229V74.6048L54.7762 76.5556H53.7677L54.9487 74.9419C54.2031 74.8322 53.8306 74.4356 53.8306 73.7508C53.8306 73.3226 53.9833 73.0015 54.2872 72.7871C54.5551 72.6043 54.912 72.5126 55.3586 72.5126H56.9968V76.5556H56.9974ZM56.1235 74.3302V73.2414H55.419C54.9543 73.2414 54.722 73.413 54.722 73.7582C54.722 74.1393 54.9886 74.3302 55.5224 74.3302H56.1235Z" fill="white"/>
<path d="M63.4162 75.3881C63.4162 76.1665 62.8967 76.5556 61.8571 76.5556H60.2033V72.5126H61.8023C62.7522 72.5126 63.2274 72.8788 63.2274 73.6101C63.2274 73.9857 63.0624 74.2552 62.7316 74.4176V74.425C62.9309 74.5093 63.0948 74.6382 63.2237 74.813C63.3514 74.9877 63.4162 75.1792 63.4162 75.3881ZM62.384 73.6492C62.384 73.356 62.1741 73.2104 61.7537 73.2104H61.0611V74.1741H61.7145C62.1611 74.1734 62.384 73.9987 62.384 73.6492ZM62.5024 75.3645C62.5024 75.0045 62.2632 74.8241 61.7861 74.8241H61.0617V75.843H61.8098C61.9779 75.843 62.1349 75.8114 62.2819 75.7488C62.4289 75.6862 62.5024 75.5585 62.5024 75.3645Z" fill="white"/>
<path d="M68.0622 74.8396H64.7466C64.8046 75.1507 64.9447 75.4073 65.1677 75.6093C65.3907 75.8114 65.6604 75.9124 65.975 75.9124C66.4471 75.9124 66.7934 75.701 67.0139 75.2784H67.9825C67.6362 76.2024 66.9666 76.6647 65.9743 76.6647C65.3602 76.6647 64.8544 76.4639 64.4582 76.0611C64.0621 75.6595 63.8634 75.1495 63.8634 74.5335C63.8634 73.9429 64.0652 73.4391 64.4701 73.0214C64.8743 72.6037 65.3701 72.3942 65.9588 72.3942C66.4209 72.3942 66.8277 72.5163 67.179 72.7599C67.5309 73.004 67.7801 73.343 67.9271 73.7781C68.0174 74.0458 68.0622 74.399 68.0622 74.8396ZM67.164 74.127C67.0961 73.8394 66.9554 73.6095 66.743 73.4372C66.5306 73.2649 66.2771 73.1788 65.9831 73.1788C65.3371 73.1788 64.9304 73.4948 64.7628 74.127H67.164Z" fill="white"/>
<path d="M71.2358 73.2804H70.2199V76.5556H69.346V73.2804H68.3301V72.5126H71.2364V73.2804H71.2358Z" fill="white"/>
<path d="M75.7006 74.8396H72.3857C72.4436 75.1507 72.5837 75.4073 72.8067 75.6093C73.0297 75.8114 73.2994 75.9124 73.614 75.9124C74.0861 75.9124 74.4325 75.701 74.653 75.2784H75.6228C75.2758 76.2024 74.6062 76.6647 73.614 76.6647C72.9998 76.6647 72.494 76.4639 72.0979 76.0611C71.7017 75.6595 71.503 75.1495 71.503 74.5335C71.503 73.9429 71.7048 73.4391 72.1097 73.0214C72.514 72.6037 73.0098 72.3942 73.5984 72.3942C74.0606 72.3942 74.4673 72.5163 74.8186 72.7599C75.1699 73.004 75.4197 73.343 75.5667 73.7781C75.6564 74.0458 75.7006 74.399 75.7006 74.8396ZM74.8024 74.127C74.7345 73.8394 74.5944 73.6095 74.3814 73.4372C74.1683 73.2649 73.9155 73.1788 73.6215 73.1788C72.9755 73.1788 72.5688 73.4948 72.4012 74.127H74.8024Z" fill="white"/>
<path d="M80.599 74.5577C80.599 75.1377 80.404 75.6335 80.0141 76.0456C79.6235 76.4583 79.1358 76.6647 78.5503 76.6647C78.0178 76.6647 77.5637 76.4769 77.1887 76.1008V78.2946H76.3304V72.512H77.1887V73.0059C77.5456 72.6142 77.9891 72.4184 78.5198 72.4184C79.124 72.4184 79.6217 72.6235 80.0122 73.0332C80.404 73.4434 80.599 73.9516 80.599 74.5577ZM79.7251 74.5502C79.7251 74.1846 79.6024 73.871 79.3563 73.6095C79.1097 73.3486 78.8038 73.2178 78.437 73.2178C78.0969 73.2178 77.8035 73.3486 77.5581 73.6095C77.3114 73.871 77.1887 74.1734 77.1887 74.5186C77.1887 74.8787 77.3089 75.1923 77.55 75.4587C77.791 75.7258 78.0888 75.8591 78.4451 75.8591C78.7957 75.8591 79.0972 75.7283 79.3482 75.4668C79.5999 75.2053 79.7251 74.8997 79.7251 74.5502Z" fill="white"/>
<path d="M84.8919 76.5556H84.0018V73.819L82.0652 76.5556H81.2611V72.5126H82.135V75.2319L84.0883 72.5126H84.8919V76.5556V76.5556Z" fill="white"/>
<path d="M89.191 76.5556H88.3171V74.8706H86.6079V76.5556H85.734V72.5126H86.6079V74.1424H88.3171V72.5126H89.191V76.5556Z" fill="white"/>
<path d="M94.1292 76.5556H93.2702V76.0537C92.9239 76.4509 92.4798 76.6492 91.9392 76.6492C91.3356 76.6492 90.8379 76.4447 90.4467 76.0345C90.0556 75.6248 89.86 75.1191 89.86 74.5186C89.86 73.9336 90.0562 73.4347 90.4492 73.022C90.8423 72.6093 91.3294 72.4029 91.9111 72.4029C92.4661 72.4029 92.909 72.5938 93.2391 72.9749V72.5126H94.1292V76.5556V76.5556ZM93.2702 74.5502C93.2702 74.1846 93.1488 73.8698 92.9052 73.6064C92.6617 73.343 92.3596 73.2104 91.9983 73.2104C91.6477 73.2104 91.3493 73.3412 91.1033 73.6021C90.8572 73.8636 90.7339 74.1691 90.7339 74.5186C90.7339 74.8737 90.8585 75.1861 91.107 75.455C91.3555 75.7246 91.6582 75.8585 92.0139 75.8585C92.349 75.8585 92.6424 75.7252 92.8934 75.4581C93.1451 75.1923 93.2702 74.8898 93.2702 74.5502Z" fill="white"/>
<path d="M99.2318 74.5577C99.2318 75.1377 99.0369 75.6335 98.647 76.0456C98.2564 76.4583 97.7687 76.6647 97.1832 76.6647C96.6506 76.6647 96.1965 76.4769 95.8216 76.1008V78.2946H94.9632V72.512H95.8216V73.0059C96.1785 72.6142 96.622 72.4184 97.1527 72.4184C97.7569 72.4184 98.2545 72.6235 98.6451 73.0332C99.0369 73.4434 99.2318 73.9516 99.2318 74.5577ZM98.3579 74.5502C98.3579 74.1846 98.2352 73.871 97.9892 73.6095C97.7425 73.3486 97.4367 73.2178 97.0698 73.2178C96.7297 73.2178 96.4363 73.3486 96.1909 73.6095C95.9443 73.871 95.8216 74.1734 95.8216 74.5186C95.8216 74.8787 95.9418 75.1923 96.1828 75.4587C96.4239 75.7258 96.7216 75.8591 97.0779 75.8591C97.4286 75.8591 97.7301 75.7283 97.9811 75.4668C98.2327 75.2053 98.3579 74.8997 98.3579 74.5502Z" fill="white"/>
<path d="M103.35 76.5556H102.476V74.8706H100.767V76.5556H99.8933V72.5126H100.767V74.1424H102.476V72.5126H103.35V76.5556V76.5556Z" fill="white"/>
<path d="M107.304 75.3174C107.304 75.7457 107.149 76.0673 106.839 76.2817C106.577 76.4645 106.22 76.5556 105.768 76.5556H104.217V72.5126H105.083V74.0799H105.769C106.221 74.0799 106.58 74.171 106.847 74.3538C107.152 74.5682 107.304 74.8898 107.304 75.3174ZM105.083 74.8086V75.8275H105.729C106.186 75.8275 106.414 75.6583 106.414 75.3181C106.414 74.9784 106.178 74.8093 105.705 74.8093H105.083V74.8086ZM108.564 76.5556H107.691V72.5126H108.564V76.5556Z" fill="white"/>
<path d="M112.762 76.5556H111.783L110.876 75.1018L109.954 76.5556H108.974L110.375 74.4343L109.105 72.512H110.085L110.888 73.8134L111.707 72.512H112.707L111.399 74.4164L112.762 76.5556Z" fill="white"/>
<path d="M19.039 83.9365C19.039 84.532 18.8789 85.0253 18.5588 85.4176C18.2124 85.8452 17.7478 86.0596 17.1647 86.0596C16.7972 86.0596 16.4746 85.976 16.1962 85.8093V87.6976H15.3223V85.8093C15.0544 85.9766 14.7318 86.0596 14.3537 86.0596C13.7707 86.0596 13.306 85.8452 12.9597 85.4176C12.6389 85.0204 12.4794 84.5265 12.4794 83.9365C12.4794 83.3409 12.6345 82.8445 12.9441 82.4479C13.2798 82.0147 13.7395 81.7972 14.3219 81.7972C14.7 81.7972 15.0332 81.8939 15.3223 82.0872V79.925H16.1962V82.0872C16.4951 81.8939 16.829 81.7972 17.1959 81.7972C17.7839 81.7972 18.2461 82.0147 18.5824 82.4479C18.8864 82.8396 19.039 83.3354 19.039 83.9365ZM15.3223 84.8605V83.0119C15.1173 82.7299 14.8208 82.5886 14.4322 82.5886C14.0908 82.5886 13.818 82.7299 13.6131 83.0119C13.4293 83.2678 13.3378 83.5733 13.3378 83.9284C13.3378 84.2835 13.4349 84.589 13.6293 84.845C13.8442 85.127 14.1251 85.2683 14.472 85.2683C14.819 85.2683 15.1018 85.1325 15.3223 84.8605ZM17.0937 82.5886C16.7001 82.5886 16.4005 82.7299 16.1962 83.0119V84.8605C16.3955 85.1319 16.6814 85.2683 17.0545 85.2683C17.4114 85.2683 17.6948 85.1294 17.9053 84.853C18.0941 84.6021 18.1888 84.2941 18.1888 83.9284C18.1888 83.5789 18.0972 83.2752 17.9134 83.0193C17.7029 82.7324 17.4295 82.5886 17.0937 82.5886Z" fill="white"/>
<path d="M23.7561 85.958H22.8977V85.456C22.5508 85.8533 22.1073 86.0516 21.5666 86.0516C20.9624 86.0516 20.4654 85.8471 20.0742 85.4368C19.683 85.0272 19.4875 84.5215 19.4875 83.921C19.4875 83.336 19.6837 82.8371 20.0767 82.4244C20.4697 82.0116 20.9568 81.8053 21.538 81.8053C22.0936 81.8053 22.5358 81.9961 22.866 82.3773V81.915H23.7561V85.958V85.958ZM22.8977 83.9526C22.8977 83.587 22.7763 83.2721 22.5327 83.0088C22.2892 82.7448 21.9871 82.6128 21.6258 82.6128C21.2751 82.6128 20.9768 82.7435 20.7307 83.0044C20.4847 83.2659 20.362 83.5715 20.362 83.921C20.362 84.2761 20.4866 84.5884 20.7351 84.8574C20.9836 85.127 21.2857 85.2608 21.642 85.2608C21.9771 85.2608 22.2699 85.1276 22.5209 84.8605C22.7725 84.5946 22.8977 84.2916 22.8977 83.9526Z" fill="white"/>
<path d="M28.86 83.96C28.86 84.5401 28.665 85.0359 28.2745 85.448C27.8839 85.8607 27.3962 86.0671 26.8107 86.0671C26.2781 86.0671 25.8247 85.8793 25.4497 85.5031V87.6969H24.5914V81.9143H25.4497V82.4083C25.8066 82.0166 26.2501 81.8208 26.7808 81.8208C27.3844 81.8208 27.882 82.0259 28.2732 82.4355C28.6637 82.8458 28.86 83.3539 28.86 83.96ZM27.9854 83.9526C27.9854 83.587 27.8627 83.2734 27.6167 83.0119C27.3707 82.751 27.0648 82.6202 26.6979 82.6202C26.3578 82.6202 26.0645 82.751 25.8184 83.0119C25.5724 83.2734 25.4497 83.5758 25.4497 83.921C25.4497 84.281 25.5699 84.5946 25.811 84.8611C26.052 85.1282 26.3504 85.2614 26.706 85.2614C27.0567 85.2614 27.3576 85.1307 27.6086 84.8692C27.8596 84.6076 27.9854 84.3021 27.9854 83.9526Z" fill="white"/>
<path d="M34.1439 85.958H33.3011V83.2387L32.1637 85.958H31.501L30.3636 83.2387V85.958H29.5208V81.915H30.6551L31.8361 84.9082L33.0096 81.915H34.1439V85.958Z" fill="white"/>
<path d="M39.074 85.958H38.2156V85.456C37.8687 85.8533 37.4252 86.0516 36.8845 86.0516C36.2803 86.0516 35.7833 85.8471 35.3921 85.4368C35.0009 85.0272 34.8054 84.5215 34.8054 83.921C34.8054 83.336 35.0016 82.8371 35.3946 82.4244C35.7876 82.0116 36.2747 81.8053 36.8559 81.8053C37.4115 81.8053 37.8537 81.9961 38.1839 82.3773V81.915H39.074V85.958V85.958ZM38.2156 83.9526C38.2156 83.587 38.0942 83.2721 37.8506 83.0088C37.6071 82.7448 37.305 82.6128 36.9437 82.6128C36.593 82.6128 36.2947 82.7435 36.0486 83.0044C35.8026 83.2659 35.6799 83.5715 35.6799 83.921C35.6799 84.2761 35.8045 84.5884 36.053 84.8574C36.3015 85.127 36.6036 85.2608 36.9599 85.2608C37.295 85.2608 37.5878 85.1276 37.8388 84.8605C38.0898 84.5946 38.2156 84.2916 38.2156 83.9526Z" fill="white"/>
<path d="M43.7512 86.812H42.9639V85.958H39.9242V81.915H40.7981V85.2063H42.4444V81.915H43.3183V85.2063H43.7512V86.812V86.812Z" fill="white"/>
<path d="M48.1774 84.242H44.8618C44.9197 84.5531 45.0599 84.8097 45.2828 85.0117C45.5058 85.2137 45.7755 85.3147 46.0901 85.3147C46.5622 85.3147 46.9086 85.1034 47.1291 84.6808H48.0976C47.7513 85.6048 47.0817 86.0671 46.0895 86.0671C45.4753 86.0671 44.9695 85.8663 44.5734 85.4635C44.1772 85.0619 43.9785 84.5519 43.9785 83.9359C43.9785 83.3453 44.1803 82.8414 44.5852 82.4237C44.9895 82.0061 45.4853 81.7966 46.0739 81.7966C46.5361 81.7966 46.9428 81.9187 47.2941 82.1622C47.6461 82.4064 47.8952 82.7454 48.0422 83.1804C48.1325 83.4481 48.1774 83.8014 48.1774 84.242ZM47.2792 83.5293C47.2113 83.2418 47.0705 83.0119 46.8581 82.8396C46.6457 82.6673 46.3922 82.5812 46.0982 82.5812C45.4523 82.5812 45.0455 82.8972 44.878 83.5293H47.2792Z" fill="white"/>
<path d="M52.028 84.7905C52.028 85.5688 51.5086 85.958 50.469 85.958H48.8152V81.915H50.4142C51.364 81.915 51.8393 82.2812 51.8393 83.0125C51.8393 83.388 51.6742 83.6576 51.3435 83.82V83.8274C51.5428 83.9117 51.7066 84.0406 51.8356 84.2154C51.9639 84.3901 52.028 84.5816 52.028 84.7905ZM50.9965 83.0509C50.9965 82.7578 50.7866 82.6121 50.3662 82.6121H49.6735V83.5758H50.3269C50.7736 83.5758 50.9965 83.401 50.9965 83.0509ZM51.1149 84.7669C51.1149 84.4069 50.8757 84.2265 50.3986 84.2265H49.6742V85.2453H50.4223C50.5904 85.2453 50.7474 85.2137 50.8944 85.1511C51.0408 85.0885 51.1149 84.9603 51.1149 84.7669Z" fill="white"/>
<path d="M55.2259 82.6828H54.21V85.958H53.3361V82.6828H52.3202V81.915H55.2265V82.6828H55.2259Z" fill="white"/>
<path d="M59.3363 85.958H58.4462V83.2213L56.5096 85.958H55.7055V81.915H56.5794V84.6343L58.5328 81.915H59.3363V85.958V85.958Z" fill="white"/>
<path d="M63.2424 85.958H62.3685V84.2581C62.0639 84.3883 61.7145 84.4533 61.3208 84.4533C60.9533 84.4533 60.6537 84.3542 60.4232 84.1559C60.1766 83.947 60.0532 83.665 60.0532 83.3099V81.915H60.9035V83.1668C60.9035 83.5498 61.0872 83.7413 61.4547 83.7413C61.801 83.7413 62.1056 83.6762 62.3685 83.5448V81.9156H63.2424V85.958Z" fill="white"/>
<path d="M68.0697 84.242H64.7541C64.8121 84.5531 64.9522 84.8097 65.1752 85.0117C65.3982 85.2137 65.6679 85.3147 65.9825 85.3147C66.4546 85.3147 66.8009 85.1034 67.0214 84.6808H67.99C67.6437 85.6048 66.9741 86.0671 65.9818 86.0671C65.3677 86.0671 64.8619 85.8663 64.4657 85.4635C64.0696 85.0619 63.8709 84.5519 63.8709 83.9359C63.8709 83.3453 64.0727 82.8414 64.4776 82.4237C64.8818 82.0061 65.3776 81.7966 65.9663 81.7966C66.4284 81.7966 66.8352 81.9187 67.1865 82.1622C67.5384 82.4064 67.7876 82.7454 67.9346 83.1804C68.0255 83.4481 68.0697 83.8014 68.0697 84.242ZM67.1721 83.5293C67.1043 83.2418 66.9635 83.0119 66.7511 82.8396C66.5387 82.6673 66.2852 82.5812 65.9912 82.5812C65.3452 82.5812 64.9385 82.8972 64.7709 83.5293H67.1721Z" fill="white"/>
<path d="M72.6298 84.5401C72.4878 85.0204 72.2424 85.3953 71.8936 85.6636C71.5441 85.9332 71.1181 86.0671 70.6136 86.0671C69.9994 86.0671 69.493 85.865 69.0937 85.4604C68.6945 85.0557 68.4951 84.5475 68.4951 83.9365C68.4951 83.3199 68.6945 82.8111 69.0937 82.4083C69.493 82.0067 70.0019 81.8046 70.6217 81.8046C71.1262 81.8046 71.5522 81.9354 71.9017 82.1969C72.2511 82.4578 72.4909 82.829 72.6224 83.3093H71.7167C71.5012 82.8445 71.1206 82.6121 70.575 82.6121C70.2124 82.6121 69.9215 82.7398 69.701 82.9958C69.4805 83.2517 69.3703 83.5653 69.3703 83.9365C69.3703 84.3077 69.483 84.6182 69.7091 84.8685C69.9452 85.1356 70.2473 85.2689 70.6148 85.2689C70.8721 85.2689 71.1007 85.2044 71.3 85.0761C71.4993 84.9485 71.6388 84.77 71.7173 84.5401H72.6298V84.5401Z" fill="white"/>
<path d="M76.6904 85.958H75.6221L74.1179 83.9365V85.958H73.2596V81.915H74.1179V83.7878L75.677 81.915H76.658L75.0248 83.8528L76.6904 85.958Z" fill="white"/>
<path d="M80.6781 85.958H79.788V83.2213L77.8514 85.958H77.0473V81.915H77.9212V84.6343L79.8746 81.915H80.6781V85.958V85.958Z" fill="white"/>
<path d="M84.8601 85.958H83.8809L82.974 84.5041L82.0521 85.958H81.0724L82.4726 83.8367L81.2032 81.9143H82.183L82.9858 83.2158L83.8049 81.9143H84.8047L83.4972 83.8187L84.8601 85.958Z" fill="white"/>
<path d="M91.0341 85.958H90.1602V82.6667H88.5064V85.958H87.6325V81.915H91.0347V85.958H91.0341Z" fill="white"/>
<path d="M96.1368 83.96C96.1368 84.5401 95.9418 85.0359 95.5519 85.448C95.1613 85.8607 94.6736 86.0671 94.0881 86.0671C93.5555 86.0671 93.1014 85.8793 92.7265 85.5031V87.6969H91.8681V81.9143H92.7265V82.4083C93.0834 82.0166 93.5269 81.8208 94.0576 81.8208C94.6618 81.8208 95.1595 82.0259 95.55 82.4355C95.9418 82.8458 96.1368 83.3539 96.1368 83.96ZM95.2629 83.9526C95.2629 83.587 95.1402 83.2734 94.8941 83.0119C94.6475 82.751 94.3416 82.6202 93.9747 82.6202C93.6346 82.6202 93.3413 82.751 93.0958 83.0119C92.8492 83.2734 92.7265 83.5758 92.7265 83.921C92.7265 84.281 92.8467 84.5946 93.0877 84.8611C93.3288 85.1282 93.6265 85.2614 93.9828 85.2614C94.3335 85.2614 94.635 85.1307 94.886 84.8692C95.1377 84.6076 95.2629 84.3021 95.2629 83.9526Z" fill="white"/>
<path d="M100.878 83.8974C100.878 84.5035 100.672 85.0167 100.26 85.4368C99.8479 85.8576 99.3371 86.0677 98.7279 86.0677C98.1237 86.0677 97.6148 85.8613 97.2 85.4486C96.7852 85.0365 96.5784 84.5296 96.5784 83.929C96.5784 83.3391 96.787 82.8328 97.2044 82.4132C97.6217 81.9924 98.1244 81.7817 98.7124 81.7817C99.3053 81.7817 99.8155 81.9881 100.24 82.4008C100.665 82.8136 100.878 83.3118 100.878 83.8974ZM99.988 83.9365C99.988 83.5603 99.8703 83.2455 99.6355 82.9927C99.4 82.7392 99.0954 82.6128 98.7198 82.6128C98.3555 82.6128 98.0558 82.7417 97.8204 83.0007C97.5856 83.2591 97.4685 83.5715 97.4685 83.9371C97.4685 84.3083 97.5856 84.6176 97.8204 84.8654C98.0558 85.1133 98.3579 85.2379 98.7279 85.2379C99.0979 85.2379 99.4 85.1127 99.6355 84.8617C99.8703 84.6101 99.988 84.3021 99.988 83.9365Z" fill="white"/>
<path d="M105.139 85.958H104.249V83.2213L102.312 85.958H101.508V81.915H102.382V84.6343L104.335 81.915H105.139V85.958V85.958Z" fill="white"/>
<path d="M109.178 84.814C109.178 85.2112 108.984 85.5267 108.595 85.7616C108.259 85.9654 107.879 86.0671 107.453 86.0671C107.007 86.0671 106.624 85.9524 106.303 85.7225C105.952 85.4715 105.771 85.1319 105.76 84.7037H106.65C106.703 85.1053 106.986 85.3067 107.501 85.3067C107.705 85.3067 107.878 85.2701 108.02 85.197C108.209 85.1084 108.303 84.9726 108.303 84.7898C108.303 84.5184 108.16 84.343 107.871 84.2649C107.739 84.2277 107.49 84.2098 107.122 84.2098V83.5591C107.49 83.5591 107.721 83.5461 107.816 83.52C108.067 83.4525 108.193 83.2845 108.193 83.0181C108.193 82.684 107.962 82.5161 107.501 82.5161C107.012 82.5161 106.768 82.6915 106.768 83.0416H105.91C105.91 82.6345 106.078 82.3153 106.414 82.0854C106.708 81.8821 107.07 81.7799 107.501 81.7799C107.92 81.7799 108.272 81.8716 108.556 82.0544C108.886 82.2688 109.052 82.5737 109.052 82.971C109.052 83.3682 108.836 83.6477 108.406 83.8101C108.921 83.9786 109.178 84.3126 109.178 84.814Z" fill="white"/>
<path d="M113.045 84.7905C113.045 85.5688 112.525 85.958 111.486 85.958H109.832V81.915H111.43C112.38 81.915 112.856 82.2812 112.856 83.0125C112.856 83.388 112.69 83.6576 112.36 83.82V83.8274C112.559 83.9117 112.723 84.0406 112.852 84.2154C112.981 84.3901 113.045 84.5816 113.045 84.7905ZM112.013 83.0509C112.013 82.7578 111.803 82.6121 111.384 82.6121H110.69V83.5758H111.344C111.79 83.5758 112.013 83.401 112.013 83.0509ZM112.132 84.7669C112.132 84.4069 111.893 84.2265 111.415 84.2265H110.69V85.2453H111.438C111.607 85.2453 111.764 85.2137 111.911 85.1511C112.058 85.0885 112.132 84.9603 112.132 84.7669Z" fill="white"/>
<path d="M117.786 83.8974C117.786 84.5035 117.58 85.0167 117.168 85.4368C116.756 85.8576 116.245 86.0677 115.636 86.0677C115.032 86.0677 114.523 85.8613 114.108 85.4486C113.693 85.0365 113.487 84.5296 113.487 83.929C113.487 83.3391 113.695 82.8328 114.113 82.4132C114.53 81.9924 115.032 81.7817 115.62 81.7817C116.213 81.7817 116.724 81.9881 117.148 82.4008C117.573 82.8136 117.786 83.3118 117.786 83.8974ZM116.896 83.9365C116.896 83.5603 116.778 83.2455 116.544 82.9927C116.308 82.7392 116.004 82.6128 115.628 82.6128C115.264 82.6128 114.964 82.7417 114.729 83.0007C114.494 83.2591 114.377 83.5715 114.377 83.9371C114.377 84.3083 114.494 84.6176 114.729 84.8654C114.964 85.1133 115.266 85.2379 115.636 85.2379C116.006 85.2379 116.308 85.1127 116.544 84.8617C116.778 84.6101 116.896 84.3021 116.896 83.9365Z" fill="white"/>
<path d="M122.07 86.812H121.282V85.958H118.802V86.812H118.022V85.2057H118.455L119.589 81.9143H120.503L121.636 85.2057H122.069V86.812H122.07ZM120.755 85.2057L120.046 83.0057L119.338 85.2057H120.755Z" fill="white"/>
<path d="M126.15 85.958H125.26V83.2213L123.323 85.958H122.519V81.915H123.393V84.6343L125.346 81.915H126.15V85.958V85.958Z" fill="white"/>
<path d="M129.528 82.6828H128.512V85.958H127.638V82.6828H126.622V81.915H129.528V82.6828Z" fill="white"/>
<path d="M133.993 84.242H130.678C130.735 84.5531 130.875 84.8097 131.099 85.0117C131.323 85.2137 131.591 85.3147 131.906 85.3147C132.379 85.3147 132.725 85.1034 132.946 84.6808H133.915C133.568 85.6048 132.899 86.0671 131.906 86.0671C131.292 86.0671 130.787 85.8663 130.39 85.4635C129.993 85.0619 129.796 84.5519 129.796 83.9359C129.796 83.3453 129.998 82.8414 130.402 82.4237C130.806 82.0061 131.303 81.7966 131.891 81.7966C132.353 81.7966 132.76 81.9187 133.112 82.1622C133.463 82.4064 133.713 82.7454 133.86 83.1804C133.948 83.4481 133.993 83.8014 133.993 84.242ZM133.095 83.5293C133.027 83.2418 132.886 83.0119 132.674 82.8396C132.461 82.6673 132.208 82.5812 131.913 82.5812C131.268 82.5812 130.861 82.8972 130.692 83.5293H133.095Z" fill="white"/>
<path d="M137.939 85.958H137.034L136.063 83.1092L135.111 85.958H134.214L135.679 81.915H136.467L137.939 85.958Z" fill="white"/>
<path d="M142.348 84.242H139.033C139.091 84.5531 139.231 84.8097 139.454 85.0117C139.678 85.2137 139.946 85.3147 140.262 85.3147C140.734 85.3147 141.081 85.1034 141.301 84.6808H142.27C141.924 85.6048 141.255 86.0671 140.262 86.0671C139.648 86.0671 139.142 85.8663 138.746 85.4635C138.349 85.0619 138.151 84.5519 138.151 83.9359C138.151 83.3453 138.353 82.8414 138.757 82.4237C139.162 82.0061 139.658 81.7966 140.246 81.7966C140.708 81.7966 141.116 81.9187 141.467 82.1622C141.818 82.4064 142.068 82.7454 142.215 83.1804C142.304 83.4481 142.348 83.8014 142.348 84.242ZM141.45 83.5293C141.382 83.2418 141.241 83.0119 141.029 82.8396C140.816 82.6673 140.563 82.5812 140.269 82.5812C139.623 82.5812 139.216 82.8972 139.048 83.5293H141.45Z" fill="white"/>
<path d="M146.617 85.958H145.727V83.2077L143.79 85.958H142.986V81.915H143.86V84.6293L145.8 81.915H146.617V85.958ZM145.908 80.5596C145.908 80.8831 145.806 81.1577 145.601 81.382C145.391 81.6225 145.126 81.7427 144.806 81.7427C144.491 81.7427 144.229 81.6237 144.023 81.3863C143.815 81.1484 143.711 80.8732 143.711 80.5596H144.302C144.302 80.7319 144.345 80.8782 144.432 80.9984C144.518 81.118 144.645 81.1787 144.814 81.1787C145.149 81.1787 145.318 80.9724 145.318 80.5596H145.908Z" fill="white"/>
</svg>
