<svg width="40" height="40" viewBox="0 0 40 40" fill="none" xmlns="http://www.w3.org/2000/svg">
<path d="M21.6667 20H26.6667L20 26.6667L13.3333 20H18.3333V13.3333H21.6667V20ZM25 6.66668H8.33333V33.3333H31.6667V13.3333H25V6.66668ZM5 4.98668C5 4.07334 5.745 3.33334 6.665 3.33334H26.6667L35 11.6667V34.9883C35.0015 35.2072 34.96 35.4242 34.8776 35.627C34.7953 35.8298 34.6738 36.0144 34.5201 36.1703C34.3664 36.3261 34.1836 36.4502 33.9819 36.5354C33.7803 36.6205 33.5639 36.6651 33.345 36.6667H6.655C6.2173 36.6636 5.79836 36.4885 5.4887 36.1792C5.17903 35.8698 5.00349 35.451 5 35.0133V4.98668Z" fill="#3893D4"/>
</svg>
