<svg width="32" height="33" viewBox="0 0 32 33" fill="none" xmlns="http://www.w3.org/2000/svg">
<g clip-path="url(#clip0_13_12634)">
<path d="M6.66667 5.83325H12L14.6667 12.4999L11.3333 14.4999C12.7613 17.3953 15.1046 19.7386 18 21.1666L20 17.8333L26.6667 20.4999V25.8333C26.6667 26.5405 26.3857 27.2188 25.8856 27.7189C25.3855 28.219 24.7072 28.4999 24 28.4999C18.799 28.1839 13.8935 25.9752 10.2091 22.2908C6.52467 18.6064 4.31607 13.7009 4 8.49992C4 7.79267 4.28095 7.1144 4.78105 6.6143C5.28115 6.1142 5.95942 5.83325 6.66667 5.83325" stroke="white" stroke-width="1.5" stroke-linecap="round" stroke-linejoin="round"/>
</g>
<defs>
<clipPath id="clip0_13_12634">
<rect width="32" height="32" fill="white" transform="translate(0 0.5)"/>
</clipPath>
</defs>
</svg>
