<svg width="37" height="36" viewBox="0 0 37 36" fill="none" xmlns="http://www.w3.org/2000/svg">
<rect x="0.5" width="36" height="36" rx="18" fill="#F78E16"/>
<path d="M16.305 16.9017C17.0869 18.2754 18.2246 19.4131 19.5983 20.195L20.335 19.1633C20.4535 18.9974 20.6286 18.8807 20.8273 18.8353C21.026 18.7898 21.2345 18.8188 21.4133 18.9167C22.5919 19.5608 23.8935 19.9481 25.2325 20.0533C25.4415 20.0699 25.6365 20.1646 25.7788 20.3186C25.921 20.4726 26 20.6745 26 20.8842V24.6025C26 24.8088 25.9235 25.0078 25.7853 25.161C25.6471 25.3142 25.4569 25.4106 25.2517 25.4317C24.81 25.4775 24.365 25.5 23.9167 25.5C16.7833 25.5 11 19.7167 11 12.5833C11 12.135 11.0225 11.69 11.0683 11.2483C11.0894 11.0431 11.1858 10.8529 11.339 10.7147C11.4922 10.5765 11.6912 10.5 11.8975 10.5H15.6158C15.8255 10.5 16.0274 10.579 16.1814 10.7212C16.3354 10.8635 16.4301 11.0585 16.4467 11.2675C16.5519 12.6065 16.9392 13.9081 17.5833 15.0867C17.6812 15.2655 17.7102 15.474 17.6647 15.6727C17.6193 15.8714 17.5026 16.0465 17.3367 16.165L16.305 16.9017ZM14.2033 16.3542L15.7867 15.2233C15.3373 14.2534 15.0295 13.224 14.8725 12.1667H12.675C12.67 12.305 12.6675 12.4442 12.6675 12.5833C12.6667 18.7967 17.7033 23.8333 23.9167 23.8333C24.0558 23.8333 24.195 23.8308 24.3333 23.825V21.6275C23.276 21.4705 22.2466 21.1627 21.2767 20.7133L20.1458 22.2967C19.6906 22.1198 19.2483 21.9109 18.8225 21.6717L18.7742 21.6442C17.1396 20.7139 15.7861 19.3604 14.8558 17.7258L14.8283 17.6775C14.5891 17.2517 14.3802 16.8094 14.2033 16.3542Z" fill="white"/>
</svg>
