<svg width="36" height="36" viewBox="0 0 36 36" fill="none" xmlns="http://www.w3.org/2000/svg">
<rect width="36" height="36" rx="18" fill="#F78E16"/>
<path d="M10.5013 10.5H25.5013C25.7223 10.5 25.9343 10.5878 26.0906 10.7441C26.2468 10.9004 26.3346 11.1123 26.3346 11.3333V24.6667C26.3346 24.8877 26.2468 25.0996 26.0906 25.2559C25.9343 25.4122 25.7223 25.5 25.5013 25.5H10.5013C10.2803 25.5 10.0683 25.4122 9.91205 25.2559C9.75577 25.0996 9.66797 24.8877 9.66797 24.6667V11.3333C9.66797 11.1123 9.75577 10.9004 9.91205 10.7441C10.0683 10.5878 10.2803 10.5 10.5013 10.5ZM24.668 14.0317L18.0613 19.9483L11.3346 14.0133V23.8333H24.668V14.0317ZM11.7605 12.1667L18.0521 17.7183L24.253 12.1667H11.7605Z" fill="white"/>
</svg>
