<svg width="37" height="36" viewBox="0 0 37 36" fill="none" xmlns="http://www.w3.org/2000/svg">
<rect x="0.5" width="36" height="36" rx="18" fill="#F78E16"/>
<path d="M18.5013 26.3333C13.8988 26.3333 10.168 22.6025 10.168 18C10.168 13.3975 13.8988 9.66663 18.5013 9.66663C23.1038 9.66663 26.8346 13.3975 26.8346 18C26.8346 22.6025 23.1038 26.3333 18.5013 26.3333ZM18.5013 24.6666C20.2694 24.6666 21.9651 23.9642 23.2153 22.714C24.4656 21.4638 25.168 19.7681 25.168 18C25.168 16.2318 24.4656 14.5362 23.2153 13.2859C21.9651 12.0357 20.2694 11.3333 18.5013 11.3333C16.7332 11.3333 15.0375 12.0357 13.7873 13.2859C12.537 14.5362 11.8346 16.2318 11.8346 18C11.8346 19.7681 12.537 21.4638 13.7873 22.714C15.0375 23.9642 16.7332 24.6666 18.5013 24.6666ZM19.3346 18H22.668V19.6666H17.668V13.8333H19.3346V18Z" fill="white"/>
</svg>
