<svg width="36" height="36" viewBox="0 0 36 36" fill="none" xmlns="http://www.w3.org/2000/svg">
<rect width="36" height="36" rx="18" fill="#F78E16"/>
<path d="M18 27.7733L12.6967 22.47C11.6478 21.4211 10.9335 20.0847 10.6441 18.6299C10.3547 17.175 10.5033 15.667 11.0709 14.2966C11.6386 12.9262 12.5999 11.7548 13.8332 10.9307C15.0666 10.1066 16.5166 9.66675 18 9.66675C19.4834 9.66675 20.9334 10.1066 22.1668 10.9307C23.4001 11.7548 24.3614 12.9262 24.9291 14.2966C25.4968 15.667 25.6453 17.175 25.3559 18.6299C25.0665 20.0847 24.3522 21.4211 23.3033 22.47L18 27.7733ZM22.125 21.2917C22.9408 20.4759 23.4963 19.4365 23.7213 18.3049C23.9463 17.1734 23.8308 16.0005 23.3892 14.9346C22.9477 13.8688 22.2 12.9578 21.2408 12.3168C20.2815 11.6759 19.1537 11.3338 18 11.3338C16.8463 11.3338 15.7185 11.6759 14.7592 12.3168C13.8 12.9578 13.0523 13.8688 12.6108 14.9346C12.1692 16.0005 12.0537 17.1734 12.2787 18.3049C12.5037 19.4365 13.0593 20.4759 13.875 21.2917L18 25.4167L22.125 21.2917ZM18 18.8333C17.558 18.8333 17.1341 18.6578 16.8215 18.3452C16.5089 18.0326 16.3333 17.6087 16.3333 17.1667C16.3333 16.7247 16.5089 16.3007 16.8215 15.9882C17.1341 15.6756 17.558 15.5 18 15.5C18.442 15.5 18.866 15.6756 19.1785 15.9882C19.4911 16.3007 19.6667 16.7247 19.6667 17.1667C19.6667 17.6087 19.4911 18.0326 19.1785 18.3452C18.866 18.6578 18.442 18.8333 18 18.8333Z" fill="white"/>
</svg>
