<svg width="256" height="85" viewBox="0 0 256 85" fill="none" xmlns="http://www.w3.org/2000/svg">
<g clip-path="url(#clip0_106_9731)">
<path fill-rule="evenodd" clip-rule="evenodd" d="M21.128 15.3307C20.1973 13.2501 17.6138 13.2501 16.6895 15.3307L4.09086 48.2358C7.80614 46.4352 13.3726 46.5412 13.3726 46.5412H13.749L17.8743 34.7642C18.3371 33.5276 19.3348 33.5276 19.7976 34.7642L25.2287 50.3073H14.6063C14.6063 50.3073 6.63045 49.9775 2.93838 53.7985C1.62924 55.1527 0.607421 56.7649 -0.0640031 58.5355C-1.30157 61.6996 0.775221 65.2668 3.80339 65.2668C5.46121 65.2668 6.96047 64.1283 7.62566 62.3879C8.27023 60.6659 9.79011 58.843 13.2978 58.843H28.2221L29.3694 62.0843C30.0295 64.0066 31.6667 65.2707 33.4547 65.2707C36.6608 65.2707 38.7801 61.5269 37.4987 58.1861L21.128 15.3307Z" fill="#7BBE47"/>
<path fill-rule="evenodd" clip-rule="evenodd" d="M47.9478 44.7965V34.8161C47.9478 33.969 47.6163 33.1565 47.0262 32.5575C46.436 31.9585 45.6356 31.6219 44.8011 31.6219C43.9665 31.6219 43.1661 31.9585 42.576 32.5575C41.9858 33.1565 41.6543 33.969 41.6543 34.8161V61.94C41.6543 62.7872 41.9858 63.5996 42.576 64.1987C43.1661 64.7977 43.9665 65.1342 44.8011 65.1342C45.6356 65.1342 46.436 64.7977 47.0262 64.1987C47.6163 63.5996 47.9478 62.7872 47.9478 61.94V53.5966L59.4572 64.5728C59.7508 64.8706 60.0992 65.1067 60.4826 65.2677C60.8661 65.4287 61.277 65.5115 61.692 65.5113C62.1069 65.5111 62.5178 65.428 62.9011 65.2666C63.2844 65.1053 63.6327 64.8689 63.926 64.5709C64.2193 64.2729 64.4519 63.9192 64.6105 63.53C64.7691 63.1408 64.8507 62.7236 64.8505 62.3024C64.8503 61.8812 64.7684 61.4641 64.6095 61.0751C64.4505 60.686 64.2176 60.3325 63.924 60.0348L47.9478 44.7965Z" fill="#7BBE47"/>
<path fill-rule="evenodd" clip-rule="evenodd" d="M55.7956 44.9065L63.1037 37.4712C63.3995 37.1749 63.6344 36.8219 63.7947 36.4328C63.955 36.0436 64.0376 35.626 64.0376 35.2041C64.0376 34.7823 63.955 34.3647 63.7947 33.9755C63.6344 33.5863 63.3995 33.2333 63.1037 32.937C62.51 32.3379 61.7069 32.0016 60.8697 32.0016C60.0325 32.0016 59.2293 32.3379 58.6356 32.937L51.3249 40.3723C51.0316 40.6703 50.799 41.024 50.6404 41.4132C50.4818 41.8024 50.4002 42.2196 50.4004 42.6408C50.4008 43.4915 50.734 44.3072 51.3269 44.9084C51.9197 45.5097 52.7236 45.8473 53.5617 45.8469C53.9766 45.8467 54.3875 45.7636 54.7708 45.6022C55.1541 45.4409 55.5023 45.2044 55.7956 44.9065V44.9065Z" fill="#AEDBF1"/>
<path fill-rule="evenodd" clip-rule="evenodd" d="M90.9485 46.962C88.8215 44.5347 82.1953 44.6341 82.1953 44.6341H80.1701C79.8007 44.6346 79.435 44.7094 79.0942 44.8541C78.7534 44.9988 78.4442 45.2107 78.1844 45.4774C77.9247 45.744 77.7196 46.0603 77.5809 46.4079C77.4423 46.7555 77.3728 47.1275 77.3766 47.5025V47.5025C77.382 48.2508 77.6788 48.9665 78.2021 49.4936C78.7254 50.0207 79.4329 50.3163 80.1701 50.3159H83.1596C84.6047 50.3159 87.8005 50.3002 87.8005 54.2939C87.8005 58.6959 84.3804 58.832 83.8338 58.832H75.5125C75.35 58.829 75.195 58.7621 75.08 58.6455C74.9651 58.5288 74.8992 58.3715 74.8963 58.2065V50.3159H74.9143V44.6341H74.8963V37.3062C74.8956 37.1386 74.9598 36.9775 75.075 36.8575C75.1903 36.7375 75.3474 36.6684 75.5125 36.665H80.3957C80.8408 36.6685 81.2789 36.7783 81.6745 36.9856C82.4912 37.4288 83.1266 38.1517 83.4677 39.0256C83.6383 39.4782 83.7278 39.9582 83.732 40.4428C83.7285 40.9527 83.6454 41.4589 83.4857 41.9424C83.4496 42.0275 83.4174 42.0929 83.3839 42.1635C87.2062 42.4135 88.8472 43.0193 90.01 43.5598C90.2421 42.8361 90.2936 41.9097 90.2936 40.3054C90.2936 38.4197 89.8115 31.0028 80.3957 31.0028H71.792C71.3707 31.0018 70.9534 31.0853 70.5639 31.2484C70.1745 31.4116 69.8206 31.6513 69.5227 31.9537C69.2248 32.2561 68.9887 32.6153 68.8279 33.0106C68.6672 33.4059 68.5849 33.8295 68.586 34.2572V61.2411C68.5843 61.6697 68.6659 62.0945 68.8262 62.4911C68.9865 62.8877 69.2224 63.2482 69.5202 63.5521C69.818 63.856 70.172 64.0973 70.5618 64.2621C70.9517 64.4269 71.3697 64.512 71.792 64.5125H83.8338C85.1779 64.5204 86.5174 64.351 87.8185 64.0087C89.0151 63.6986 90.1314 63.1289 91.0903 62.339C92.0562 61.5153 92.8138 60.469 93.2999 59.2874C93.8465 58.022 94.1146 56.474 94.1146 54.6498C94.1211 52.2395 93.2741 49.1081 90.9485 46.962Z" fill="#7BBE47" stroke="#7BBE47" stroke-width="0.22" stroke-miterlimit="10"/>
<path fill-rule="evenodd" clip-rule="evenodd" d="M113.724 31.8854C113.567 31.5726 113.329 31.3099 113.034 31.1264C112.74 30.9428 112.401 30.8457 112.056 30.8457C111.71 30.8457 111.371 30.9428 111.077 31.1264C110.782 31.3099 110.544 31.5726 110.387 31.8854L100.917 53.7999C103.71 52.5999 107.894 52.6706 107.894 52.6706H108.177L111.282 44.8297C111.63 44.0066 112.379 44.0066 112.727 44.8297L116.81 55.1817H108.826C108.826 55.1817 102.829 54.9619 100.06 57.5057C99.0948 58.3819 98.3251 59.4577 97.803 60.6607C96.8722 62.7688 98.4333 65.1438 100.709 65.1438C101.32 65.1419 101.917 64.9594 102.427 64.6184C102.937 64.2775 103.339 63.793 103.582 63.2241C104.063 62.0765 105.208 60.8687 107.849 60.8687H119.065L119.927 63.0279C120.171 63.6524 120.595 64.1882 121.142 64.5663C121.689 64.9444 122.336 65.1474 122.998 65.149V65.149C123.55 65.1513 124.093 65.0133 124.579 64.7478C125.065 64.4823 125.478 64.0976 125.78 63.6287C126.082 63.1599 126.264 62.6218 126.309 62.0634C126.354 61.505 126.261 60.9441 126.038 60.4317L113.724 31.8854Z" fill="#7BBE47"/>
<path fill-rule="evenodd" clip-rule="evenodd" d="M153.219 34.6144V45.8235H142.59C142.59 45.8235 136.595 45.5029 133.824 48.1501C131.683 50.2242 130.77 53.09 130.688 55.4349C130.67 55.4349 130.67 55.4506 130.65 55.4506V61.6872C130.651 62.1093 130.733 62.5272 130.893 62.9169C131.053 63.3066 131.287 63.6604 131.582 63.9581C131.877 64.2557 132.227 64.4913 132.611 64.6513C132.996 64.8113 133.408 64.8926 133.824 64.8906V64.8906C134.661 64.8885 135.462 64.5504 136.053 63.9501C136.645 63.3498 136.978 62.5362 136.98 61.6872V55.7882H136.998C136.998 55.6862 136.98 55.6011 136.98 55.5016C136.98 51.504 140.186 51.504 141.632 51.504H153.224V61.6872C153.224 62.108 153.305 62.5248 153.464 62.9137C153.622 63.3026 153.854 63.6559 154.148 63.9535C154.441 64.2511 154.789 64.487 155.172 64.6478C155.555 64.8086 155.966 64.8911 156.38 64.8906V64.8906C156.795 64.8908 157.205 64.808 157.588 64.6471C157.971 64.4861 158.319 64.2502 158.612 63.9526C158.905 63.6551 159.137 63.3019 159.295 62.9132C159.454 62.5245 159.535 62.1079 159.535 61.6872V34.6144C159.535 33.765 159.202 32.9504 158.611 32.3497C158.019 31.749 157.217 31.4114 156.38 31.411V31.411C155.965 31.4102 155.554 31.4924 155.171 31.653C154.787 31.8136 154.439 32.0495 154.145 32.347C153.851 32.6446 153.618 32.998 153.46 33.3871C153.301 33.7762 153.219 34.1932 153.219 34.6144V34.6144Z" fill="#7BBE47"/>
<path fill-rule="evenodd" clip-rule="evenodd" d="M137.722 43.351V33.8561C137.718 33.0083 137.384 32.1964 136.793 31.5974C136.202 30.9984 135.402 30.6607 134.566 30.658V30.658C134.151 30.6561 133.739 30.7375 133.354 30.8976C132.969 31.0577 132.619 31.2933 132.324 31.5909C132.03 31.8885 131.795 32.2422 131.636 32.6318C131.476 33.0215 131.393 33.4393 131.393 33.8614V47.3788C131.861 45.8583 134.399 43.5643 137.722 43.351Z" fill="#7BBE47" stroke="#7BBE47" stroke-width="0.22" stroke-miterlimit="10"/>
<path fill-rule="evenodd" clip-rule="evenodd" d="M173.596 57.6855C172.822 57.06 172.167 56.2003 171.635 55.122C171.102 54.0437 170.82 52.6436 170.82 50.9555V34.2347C170.82 33.814 170.739 33.3974 170.58 33.0087C170.422 32.6199 170.189 32.2667 169.896 31.9692C169.603 31.6717 169.255 31.4358 168.872 31.2749C168.489 31.1139 168.079 31.0312 167.664 31.0314V31.0314C166.828 31.0317 166.025 31.3694 165.434 31.9701C164.842 32.5708 164.51 33.3854 164.51 34.2347V50.9843C164.51 53.1291 164.842 55.067 165.523 56.8022C166.155 58.4732 167.128 59.9896 168.378 61.2513C169.663 62.4922 171.183 63.4556 172.845 64.083C174.591 64.7565 176.534 65.0937 178.675 65.0946C180.837 65.0946 182.8 64.7569 184.539 64.083C184.591 64.0647 184.641 64.032 184.689 64.0137C178.545 62.9446 175.255 59.9611 173.596 57.6855Z" fill="#7BBE47"/>
<path fill-rule="evenodd" clip-rule="evenodd" d="M188.925 30.9058C188.511 30.9056 188.1 30.9883 187.717 31.1493C187.334 31.3102 186.987 31.5462 186.694 31.8437C186.401 32.1412 186.168 32.4944 186.01 32.8831C185.851 33.2719 185.77 33.6885 185.77 34.1091V50.8299C185.77 52.518 185.502 53.9011 184.954 54.9964C184.485 56.01 183.799 56.9042 182.945 57.6135C182.192 58.2323 181.321 58.6871 180.387 58.9496C179.74 59.1169 179.079 59.2237 178.412 59.2688C180.488 60.5303 183.459 61.5418 187.578 61.7473C187.81 61.5418 188.044 61.339 188.258 61.1401C189.509 59.8823 190.477 58.3645 191.095 56.691C191.744 54.9558 192.07 53.0165 192.073 50.8731V34.1235C192.075 33.7022 191.996 33.2845 191.839 32.8944C191.682 32.5044 191.45 32.1497 191.158 31.8507C190.865 31.5517 190.517 31.3143 190.134 31.1522C189.751 30.99 189.34 30.9063 188.925 30.9058V30.9058Z" fill="#7BBE47"/>
<path fill-rule="evenodd" clip-rule="evenodd" d="M206.387 44.1634V34.183C206.37 33.3472 206.031 32.5514 205.443 31.9663C204.855 31.3812 204.064 31.0535 203.241 31.0535C202.417 31.0535 201.626 31.3812 201.038 31.9663C200.45 32.5514 200.111 33.3472 200.094 34.183V61.3069C200.086 61.7317 200.161 62.154 200.315 62.549C200.47 62.944 200.7 63.3037 200.993 63.6072C201.286 63.9107 201.636 64.1518 202.022 64.3164C202.408 64.481 202.822 64.5657 203.241 64.5657C203.659 64.5657 204.074 64.481 204.459 64.3164C204.845 64.1518 205.195 63.9107 205.488 63.6072C205.781 63.3037 206.011 62.944 206.166 62.549C206.32 62.154 206.395 61.7317 206.387 61.3069V52.9635L217.896 63.941C218.489 64.5423 219.293 64.8799 220.131 64.8795C220.969 64.8791 221.772 64.5409 222.365 63.9391C222.957 63.3373 223.29 62.5213 223.289 61.6706C223.289 60.8199 222.956 60.0042 222.363 59.4029L206.387 44.1634Z" fill="#7BBE47"/>
<path fill-rule="evenodd" clip-rule="evenodd" d="M214.112 43.3897L221.42 35.9545C221.716 35.6584 221.951 35.3055 222.112 34.9163C222.272 34.5271 222.355 34.1093 222.355 33.6874C222.355 33.2655 222.272 32.8478 222.112 32.4586C221.951 32.0694 221.716 31.7164 221.42 31.4203C220.827 30.8213 220.024 30.485 219.187 30.485C218.35 30.485 217.547 30.8213 216.953 31.4203L209.643 38.8556C209.344 39.1522 209.106 39.5061 208.942 39.8967C208.779 40.2874 208.694 40.707 208.691 41.1314C208.689 41.5557 208.77 41.9763 208.929 42.3688C209.088 42.7612 209.322 43.1178 209.617 43.4178C209.913 43.7177 210.265 43.9552 210.651 44.1163C211.038 44.2774 211.452 44.359 211.87 44.3564C212.289 44.3538 212.702 44.267 213.087 44.1011C213.471 43.9352 213.82 43.6934 214.112 43.3897V43.3897Z" fill="#AEDBF1"/>
<path fill-rule="evenodd" clip-rule="evenodd" d="M242.271 31.7578C242.115 31.445 241.876 31.1823 241.582 30.9988C241.287 30.8153 240.949 30.7181 240.603 30.7181C240.258 30.7181 239.919 30.8153 239.624 30.9988C239.33 31.1823 239.091 31.445 238.935 31.7578L229.465 53.671C232.257 52.4724 236.442 52.543 236.442 52.543H236.724L239.832 44.7021C240.179 43.879 240.929 43.879 241.277 44.7021L245.36 55.0542H237.375C237.375 55.0542 231.379 54.8343 228.609 57.3782C227.644 58.2544 226.874 59.3301 226.352 60.5331C225.421 62.6412 226.982 65.0162 229.257 65.0162C229.868 65.0142 230.465 64.8316 230.976 64.4907C231.486 64.1497 231.888 63.6653 232.131 63.0966C232.612 61.949 233.757 60.7412 236.398 60.7412H247.613L248.476 62.9003C248.721 63.5249 249.144 64.0608 249.692 64.4389C250.239 64.817 250.886 65.0199 251.548 65.0215V65.0215C252.1 65.0235 252.644 64.8853 253.129 64.6196C253.615 64.3539 254.028 63.9691 254.33 63.5002C254.632 63.0313 254.814 62.4931 254.859 61.9347C254.904 61.3762 254.811 60.8153 254.588 60.3028L242.271 31.7578Z" fill="#7BBE47"/>
<path fill-rule="evenodd" clip-rule="evenodd" d="M192.705 58.9067L190.401 61.0881C189.152 62.9201 186.722 63.0915 185.92 64.3294H192.984C194.774 64.3294 196.207 63.1517 196.207 61.7123C196.208 60.2611 194.493 58.9067 192.705 58.9067Z" fill="#7BBE47"/>
<path d="M120.39 81C120.298 81 120.226 80.9705 120.175 80.9115C120.125 80.8525 120.1 80.7809 120.1 80.6967V72.4555C120.1 72.3628 120.125 72.2911 120.175 72.2406C120.234 72.1816 120.306 72.1521 120.39 72.1521H121.048C121.132 72.1521 121.199 72.1816 121.25 72.2406C121.309 72.2911 121.338 72.3628 121.338 72.4555V78.9903L126.053 72.3291C126.078 72.2954 126.112 72.2574 126.154 72.2153C126.205 72.1732 126.276 72.1521 126.369 72.1521H126.988C127.073 72.1521 127.14 72.1816 127.191 72.2406C127.25 72.2911 127.279 72.3628 127.279 72.4555V80.7093C127.279 80.7936 127.25 80.8652 127.191 80.9242C127.14 80.9747 127.073 81 126.988 81H126.344C126.259 81 126.188 80.9747 126.129 80.9242C126.07 80.8652 126.04 80.7936 126.04 80.7093V74.225L121.338 80.8231C121.321 80.8483 121.288 80.8863 121.237 80.9368C121.187 80.9789 121.115 81 121.022 81H120.39Z" fill="#7BBE47"/>
<path d="M129.607 81C129.523 81 129.451 80.9747 129.392 80.9242C129.342 80.8652 129.316 80.7936 129.316 80.7093V74.718C129.316 74.6337 129.342 74.5663 129.392 74.5158C129.451 74.4568 129.523 74.4273 129.607 74.4273H130.214C130.298 74.4273 130.366 74.4568 130.416 74.5158C130.467 74.5663 130.492 74.6337 130.492 74.718V77.1448H133.943V74.718C133.943 74.6337 133.968 74.5663 134.018 74.5158C134.077 74.4568 134.149 74.4273 134.233 74.4273H134.827C134.912 74.4273 134.979 74.4568 135.03 74.5158C135.089 74.5663 135.118 74.6337 135.118 74.718V80.7093C135.118 80.7936 135.089 80.8652 135.03 80.9242C134.979 80.9747 134.912 81 134.827 81H134.233C134.149 81 134.077 80.9747 134.018 80.9242C133.968 80.8652 133.943 80.7936 133.943 80.7093V78.156H130.492V80.7093C130.492 80.7936 130.467 80.8652 130.416 80.9242C130.366 80.9747 130.298 81 130.214 81H129.607Z" fill="#7BBE47"/>
<path d="M136.627 81C136.551 81 136.488 80.9832 136.437 80.9495C136.395 80.9157 136.374 80.8652 136.374 80.7978C136.374 80.7556 136.395 80.7009 136.437 80.6335L138.599 77.562L136.69 74.7812C136.673 74.7559 136.661 74.7306 136.652 74.7054C136.644 74.6716 136.64 74.6464 136.64 74.6295C136.64 74.5621 136.661 74.5115 136.703 74.4778C136.753 74.4441 136.817 74.4273 136.892 74.4273H137.55C137.634 74.4273 137.701 74.4441 137.752 74.4778C137.803 74.5115 137.849 74.5579 137.891 74.6169L139.597 77.1448H140.558V74.718C140.558 74.6337 140.583 74.5663 140.634 74.5158C140.693 74.4568 140.764 74.4273 140.849 74.4273H141.43C141.523 74.4273 141.595 74.4568 141.645 74.5158C141.696 74.5663 141.721 74.6337 141.721 74.718V77.1448H142.644L144.375 74.6169C144.409 74.5579 144.451 74.5115 144.502 74.4778C144.561 74.4441 144.628 74.4273 144.704 74.4273H145.374C145.45 74.4273 145.509 74.4441 145.551 74.4778C145.601 74.5115 145.627 74.5621 145.627 74.6295C145.627 74.6464 145.618 74.6716 145.601 74.7054C145.593 74.7306 145.58 74.7559 145.563 74.7812L143.667 77.562L145.829 80.6335C145.863 80.684 145.879 80.7388 145.879 80.7978C145.879 80.8652 145.858 80.9157 145.816 80.9495C145.774 80.9832 145.711 81 145.627 81H144.868C144.784 81 144.712 80.9832 144.653 80.9495C144.603 80.9157 144.561 80.8694 144.527 80.8104L142.682 78.156H141.721V80.7093C141.721 80.7936 141.696 80.8652 141.645 80.9242C141.595 80.9747 141.523 81 141.43 81H140.849C140.764 81 140.693 80.9747 140.634 80.9242C140.583 80.8652 140.558 80.7936 140.558 80.7093V78.156H139.597L137.727 80.8104C137.701 80.8694 137.659 80.9157 137.6 80.9495C137.55 80.9832 137.482 81 137.398 81H136.627Z" fill="#7BBE47"/>
<path d="M149.72 81.1264C148.852 81.1264 148.161 80.861 147.647 80.3301C147.133 79.7908 146.851 79.0577 146.8 78.1308C146.792 78.0212 146.788 77.8822 146.788 77.7136C146.788 77.5367 146.792 77.3934 146.8 77.2839C146.834 76.6856 146.973 76.1632 147.217 75.7165C147.462 75.2615 147.795 74.9118 148.216 74.6674C148.646 74.4231 149.147 74.3009 149.72 74.3009C150.36 74.3009 150.896 74.4357 151.325 74.7054C151.764 74.975 152.096 75.3584 152.324 75.8556C152.551 76.3528 152.665 76.9342 152.665 77.5999V77.8148C152.665 77.9075 152.636 77.9791 152.577 78.0296C152.526 78.0802 152.459 78.1055 152.374 78.1055H148.001C148.001 78.1139 148.001 78.1308 148.001 78.156C148.001 78.1813 148.001 78.2024 148.001 78.2192C148.018 78.5647 148.094 78.8892 148.229 79.1925C148.363 79.4874 148.557 79.7276 148.81 79.913C149.063 80.0984 149.366 80.1911 149.72 80.1911C150.023 80.1911 150.276 80.1447 150.478 80.052C150.681 79.9593 150.845 79.8582 150.971 79.7487C151.098 79.6307 151.182 79.5422 151.224 79.4832C151.3 79.3737 151.359 79.3105 151.401 79.2936C151.443 79.2683 151.511 79.2557 151.603 79.2557H152.21C152.294 79.2557 152.362 79.281 152.412 79.3315C152.471 79.3737 152.497 79.4369 152.488 79.5211C152.48 79.6475 152.412 79.8034 152.286 79.9888C152.16 80.1658 151.978 80.3427 151.742 80.5197C151.507 80.6967 151.22 80.8441 150.883 80.9621C150.546 81.0716 150.158 81.1264 149.72 81.1264ZM148.001 77.2333H151.464V77.1954C151.464 76.8162 151.393 76.4791 151.249 76.1842C151.115 75.8893 150.917 75.6576 150.655 75.489C150.394 75.3121 150.082 75.2236 149.72 75.2236C149.358 75.2236 149.046 75.3121 148.785 75.489C148.532 75.6576 148.338 75.8893 148.203 76.1842C148.068 76.4791 148.001 76.8162 148.001 77.1954V77.2333Z" fill="#7BBE47"/>
<path d="M154.467 81C154.383 81 154.311 80.9747 154.252 80.9242C154.202 80.8652 154.177 80.7936 154.177 80.7093V74.718C154.177 74.6337 154.202 74.5663 154.252 74.5158C154.311 74.4568 154.383 74.4273 154.467 74.4273H155.074C155.158 74.4273 155.226 74.4568 155.276 74.5158C155.327 74.5663 155.352 74.6337 155.352 74.718V77.1448H158.803V74.718C158.803 74.6337 158.828 74.5663 158.879 74.5158C158.938 74.4568 159.009 74.4273 159.093 74.4273H159.687C159.772 74.4273 159.839 74.4568 159.89 74.5158C159.949 74.5663 159.978 74.6337 159.978 74.718V80.7093C159.978 80.7936 159.949 80.8652 159.89 80.9242C159.839 80.9747 159.772 81 159.687 81H159.093C159.009 81 158.938 80.9747 158.879 80.9242C158.828 80.8652 158.803 80.7936 158.803 80.7093V78.156H155.352V80.7093C155.352 80.7936 155.327 80.8652 155.276 80.9242C155.226 80.9747 155.158 81 155.074 81H154.467Z" fill="#7BBE47"/>
<path d="M164.495 81.1264C163.627 81.1264 162.936 80.861 162.422 80.3301C161.908 79.7908 161.626 79.0577 161.576 78.1308C161.567 78.0212 161.563 77.8822 161.563 77.7136C161.563 77.5367 161.567 77.3934 161.576 77.2839C161.609 76.6856 161.748 76.1632 161.993 75.7165C162.237 75.2615 162.57 74.9118 162.991 74.6674C163.421 74.4231 163.922 74.3009 164.495 74.3009C165.136 74.3009 165.671 74.4357 166.101 74.7054C166.539 74.975 166.872 75.3584 167.099 75.8556C167.327 76.3528 167.44 76.9342 167.44 77.5999V77.8148C167.44 77.9075 167.411 77.9791 167.352 78.0296C167.301 78.0802 167.234 78.1055 167.15 78.1055H162.776C162.776 78.1139 162.776 78.1308 162.776 78.156C162.776 78.1813 162.776 78.2024 162.776 78.2192C162.793 78.5647 162.869 78.8892 163.004 79.1925C163.139 79.4874 163.333 79.7276 163.585 79.913C163.838 80.0984 164.141 80.1911 164.495 80.1911C164.799 80.1911 165.052 80.1447 165.254 80.052C165.456 79.9593 165.62 79.8582 165.747 79.7487C165.873 79.6307 165.957 79.5422 166 79.4832C166.075 79.3737 166.134 79.3105 166.176 79.2936C166.219 79.2683 166.286 79.2557 166.379 79.2557H166.985C167.07 79.2557 167.137 79.281 167.188 79.3315C167.247 79.3737 167.272 79.4369 167.264 79.5211C167.255 79.6475 167.188 79.8034 167.061 79.9888C166.935 80.1658 166.754 80.3427 166.518 80.5197C166.282 80.6967 165.995 80.8441 165.658 80.9621C165.321 81.0716 164.934 81.1264 164.495 81.1264ZM162.776 77.2333H166.24V77.1954C166.24 76.8162 166.168 76.4791 166.025 76.1842C165.89 75.8893 165.692 75.6576 165.431 75.489C165.17 75.3121 164.858 75.2236 164.495 75.2236C164.133 75.2236 163.821 75.3121 163.56 75.489C163.307 75.6576 163.113 75.8893 162.979 76.1842C162.844 76.4791 162.776 76.8162 162.776 77.1954V77.2333Z" fill="#7BBE47"/>
<path d="M169.255 83.4016C169.171 83.4016 169.099 83.3721 169.04 83.3131C168.99 83.2625 168.964 83.1951 168.964 83.1109V74.718C168.964 74.6337 168.99 74.5663 169.04 74.5158C169.099 74.4568 169.171 74.4273 169.255 74.4273H169.837C169.921 74.4273 169.988 74.4568 170.039 74.5158C170.098 74.5663 170.127 74.6337 170.127 74.718V75.2741C170.33 74.9961 170.599 74.7643 170.936 74.579C171.273 74.3936 171.695 74.3009 172.2 74.3009C172.672 74.3009 173.072 74.3809 173.401 74.541C173.738 74.7011 174.012 74.9202 174.223 75.1983C174.442 75.4764 174.606 75.7924 174.716 76.1463C174.825 76.5002 174.884 76.8794 174.893 77.2839C174.901 77.4187 174.905 77.562 174.905 77.7136C174.905 77.8653 174.901 78.0086 174.893 78.1434C174.884 78.5394 174.825 78.9186 174.716 79.281C174.606 79.6349 174.442 79.9509 174.223 80.229C174.012 80.4986 173.738 80.7177 173.401 80.8863C173.072 81.0464 172.672 81.1264 172.2 81.1264C171.712 81.1264 171.299 81.0379 170.962 80.861C170.633 80.6756 170.363 80.4481 170.153 80.1784V83.1109C170.153 83.1951 170.127 83.2625 170.077 83.3131C170.026 83.3721 169.955 83.4016 169.862 83.4016H169.255ZM171.935 80.1026C172.373 80.1026 172.714 80.0099 172.959 79.8245C173.211 79.6307 173.393 79.3821 173.502 79.0788C173.612 78.767 173.675 78.4341 173.692 78.0802C173.7 77.8358 173.7 77.5915 173.692 77.3471C173.675 76.9932 173.612 76.6645 173.502 76.3612C173.393 76.0494 173.211 75.8008 172.959 75.6154C172.714 75.4216 172.373 75.3247 171.935 75.3247C171.522 75.3247 171.185 75.4216 170.924 75.6154C170.671 75.8092 170.481 76.0578 170.355 76.3612C170.237 76.6561 170.169 76.9595 170.153 77.2712C170.144 77.4061 170.14 77.5662 170.14 77.7516C170.14 77.9369 170.144 78.1013 170.153 78.2445C170.161 78.5394 170.228 78.8302 170.355 79.1167C170.49 79.4032 170.688 79.6391 170.949 79.8245C171.21 80.0099 171.539 80.1026 171.935 80.1026Z" fill="#7BBE47"/>
<path d="M176.772 81C176.688 81 176.616 80.9747 176.557 80.9242C176.507 80.8652 176.481 80.7936 176.481 80.7093V74.718C176.481 74.6337 176.507 74.5663 176.557 74.5158C176.616 74.4568 176.688 74.4273 176.772 74.4273H177.379C177.463 74.4273 177.531 74.4568 177.581 74.5158C177.632 74.5663 177.657 74.6337 177.657 74.718V77.1448H181.108V74.718C181.108 74.6337 181.133 74.5663 181.183 74.5158C181.242 74.4568 181.314 74.4273 181.398 74.4273H181.992C182.077 74.4273 182.144 74.4568 182.195 74.5158C182.254 74.5663 182.283 74.6337 182.283 74.718V80.7093C182.283 80.7936 182.254 80.8652 182.195 80.9242C182.144 80.9747 182.077 81 181.992 81H181.398C181.314 81 181.242 80.9747 181.183 80.9242C181.133 80.8652 181.108 80.7936 181.108 80.7093V78.156H177.657V80.7093C177.657 80.7936 177.632 80.8652 177.581 80.9242C177.531 80.9747 177.463 81 177.379 81H176.772Z" fill="#7BBE47"/>
<path d="M184.475 81C184.39 81 184.319 80.9747 184.26 80.9242C184.209 80.8652 184.184 80.7936 184.184 80.7093V74.718C184.184 74.6337 184.209 74.5663 184.26 74.5158C184.319 74.4568 184.39 74.4273 184.475 74.4273H185.081C185.166 74.4273 185.233 74.4568 185.284 74.5158C185.343 74.5663 185.372 74.6337 185.372 74.718V76.5761H186.687C187.546 76.5761 188.174 76.7783 188.57 77.1828C188.966 77.5872 189.164 78.135 189.164 78.826C189.164 79.5675 188.945 80.1152 188.507 80.4691C188.069 80.8231 187.411 81 186.535 81H184.475ZM185.359 80.052H186.573C187.087 80.052 187.462 79.9635 187.698 79.7866C187.934 79.6012 188.052 79.281 188.052 78.826C188.052 78.3878 187.938 78.0633 187.71 77.8527C187.483 77.6336 187.104 77.524 186.573 77.524H185.359V80.052ZM190.352 81C190.268 81 190.196 80.9747 190.137 80.9242C190.087 80.8652 190.061 80.7936 190.061 80.7093V74.718C190.061 74.6337 190.087 74.5663 190.137 74.5158C190.196 74.4568 190.268 74.4273 190.352 74.4273H190.959C191.043 74.4273 191.111 74.4568 191.161 74.5158C191.22 74.5663 191.25 74.6337 191.25 74.718V80.7093C191.25 80.7936 191.22 80.8652 191.161 80.9242C191.111 80.9747 191.043 81 190.959 81H190.352Z" fill="#7BBE47"/>
<path d="M195.749 81.1264C194.882 81.1264 194.191 80.861 193.677 80.3301C193.162 79.7908 192.88 79.0577 192.83 78.1308C192.821 78.0212 192.817 77.8822 192.817 77.7136C192.817 77.5367 192.821 77.3934 192.83 77.2839C192.863 76.6856 193.002 76.1632 193.247 75.7165C193.491 75.2615 193.824 74.9118 194.245 74.6674C194.675 74.4231 195.176 74.3009 195.749 74.3009C196.39 74.3009 196.925 74.4357 197.355 74.7054C197.793 74.975 198.126 75.3584 198.353 75.8556C198.581 76.3528 198.695 76.9342 198.695 77.5999V77.8148C198.695 77.9075 198.665 77.9791 198.606 78.0296C198.555 78.0802 198.488 78.1055 198.404 78.1055H194.03C194.03 78.1139 194.03 78.1308 194.03 78.156C194.03 78.1813 194.03 78.2024 194.03 78.2192C194.047 78.5647 194.123 78.8892 194.258 79.1925C194.393 79.4874 194.587 79.7276 194.839 79.913C195.092 80.0984 195.396 80.1911 195.749 80.1911C196.053 80.1911 196.306 80.1447 196.508 80.052C196.71 79.9593 196.874 79.8582 197.001 79.7487C197.127 79.6307 197.211 79.5422 197.254 79.4832C197.329 79.3737 197.388 79.3105 197.431 79.2936C197.473 79.2683 197.54 79.2557 197.633 79.2557H198.24C198.324 79.2557 198.391 79.281 198.442 79.3315C198.501 79.3737 198.526 79.4369 198.518 79.5211C198.509 79.6475 198.442 79.8034 198.315 79.9888C198.189 80.1658 198.008 80.3427 197.772 80.5197C197.536 80.6967 197.249 80.8441 196.912 80.9621C196.575 81.0716 196.188 81.1264 195.749 81.1264ZM194.03 77.2333H197.494V77.1954C197.494 76.8162 197.422 76.4791 197.279 76.1842C197.144 75.8893 196.946 75.6576 196.685 75.489C196.424 75.3121 196.112 75.2236 195.749 75.2236C195.387 75.2236 195.075 75.3121 194.814 75.489C194.561 75.6576 194.367 75.8893 194.233 76.1842C194.098 76.4791 194.03 76.8162 194.03 77.1954V77.2333Z" fill="#7BBE47"/>
<path d="M205.959 81.1264C205.36 81.1264 204.842 81.0127 204.404 80.7851C203.974 80.5492 203.641 80.2163 203.405 79.7866C203.169 79.3484 203.043 78.826 203.026 78.2192C203.018 78.0928 203.013 77.9243 203.013 77.7136C203.013 77.503 203.018 77.3344 203.026 77.208C203.043 76.6013 203.169 76.0831 203.405 75.6533C203.641 75.2152 203.974 74.8823 204.404 74.6548C204.842 74.4189 205.36 74.3009 205.959 74.3009C206.447 74.3009 206.864 74.3683 207.21 74.5031C207.564 74.6379 207.854 74.8107 208.082 75.0214C208.31 75.232 208.478 75.4595 208.588 75.7039C208.706 75.9483 208.769 76.18 208.777 76.3991C208.786 76.4834 208.76 76.5508 208.701 76.6013C208.642 76.6519 208.571 76.6772 208.486 76.6772H207.88C207.796 76.6772 207.732 76.6603 207.69 76.6266C207.648 76.5845 207.606 76.5171 207.564 76.4244C207.412 76.0115 207.206 75.7208 206.944 75.5522C206.683 75.3837 206.359 75.2994 205.971 75.2994C205.466 75.2994 205.053 75.4553 204.732 75.7671C204.421 76.0789 204.252 76.5803 204.227 77.2712C204.218 77.5746 204.218 77.8695 204.227 78.156C204.252 78.8554 204.421 79.361 204.732 79.6728C205.053 79.9762 205.466 80.1279 205.971 80.1279C206.359 80.1279 206.683 80.0436 206.944 79.8751C207.206 79.7065 207.412 79.4158 207.564 79.0029C207.606 78.9102 207.648 78.847 207.69 78.8133C207.732 78.7712 207.796 78.7501 207.88 78.7501H208.486C208.571 78.7501 208.642 78.7754 208.701 78.826C208.76 78.8765 208.786 78.9439 208.777 79.0282C208.769 79.2051 208.731 79.3863 208.663 79.5717C208.596 79.7571 208.486 79.9467 208.335 80.1405C208.192 80.3259 208.01 80.4944 207.791 80.6461C207.572 80.7893 207.307 80.9073 206.995 81C206.692 81.0843 206.346 81.1264 205.959 81.1264Z" fill="#7BBE47"/>
<path d="M210.556 81C210.481 81 210.413 80.9747 210.354 80.9242C210.304 80.8652 210.278 80.802 210.278 80.7346V74.718C210.278 74.6337 210.304 74.5663 210.354 74.5158C210.413 74.4568 210.485 74.4273 210.569 74.4273H211.176C211.26 74.4273 211.327 74.4568 211.378 74.5158C211.429 74.5663 211.454 74.6337 211.454 74.718V80.0773L211.125 79.736L214.955 74.6169C214.997 74.5663 215.044 74.5242 215.094 74.4905C215.145 74.4483 215.208 74.4273 215.284 74.4273H215.865C215.933 74.4273 215.992 74.4526 216.042 74.5031C216.101 74.5537 216.131 74.6127 216.131 74.6801V80.7093C216.131 80.7936 216.101 80.8652 216.042 80.9242C215.992 80.9747 215.924 81 215.84 81H215.246C215.153 81 215.081 80.9747 215.031 80.9242C214.98 80.8652 214.955 80.7936 214.955 80.7093V75.666L215.309 75.6533L211.454 80.8104C211.42 80.8525 211.378 80.8947 211.327 80.9368C211.277 80.9789 211.209 81 211.125 81H210.556Z" fill="#7BBE47"/>
<path d="M220.635 81.1264C220.037 81.1264 219.519 81.0127 219.08 80.7851C218.651 80.5492 218.318 80.2163 218.082 79.7866C217.846 79.3484 217.719 78.826 217.703 78.2192C217.694 78.0928 217.69 77.9243 217.69 77.7136C217.69 77.503 217.694 77.3344 217.703 77.208C217.719 76.6013 217.846 76.0831 218.082 75.6533C218.318 75.2152 218.651 74.8823 219.08 74.6548C219.519 74.4189 220.037 74.3009 220.635 74.3009C221.124 74.3009 221.541 74.3683 221.886 74.5031C222.24 74.6379 222.531 74.8107 222.759 75.0214C222.986 75.232 223.155 75.4595 223.264 75.7039C223.382 75.9483 223.445 76.18 223.454 76.3991C223.462 76.4834 223.437 76.5508 223.378 76.6013C223.319 76.6519 223.247 76.6772 223.163 76.6772H222.556C222.472 76.6772 222.409 76.6603 222.367 76.6266C222.325 76.5845 222.282 76.5171 222.24 76.4244C222.089 76.0115 221.882 75.7208 221.621 75.5522C221.36 75.3837 221.035 75.2994 220.648 75.2994C220.142 75.2994 219.729 75.4553 219.409 75.7671C219.097 76.0789 218.929 76.5803 218.903 77.2712C218.895 77.5746 218.895 77.8695 218.903 78.156C218.929 78.8554 219.097 79.361 219.409 79.6728C219.729 79.9762 220.142 80.1279 220.648 80.1279C221.035 80.1279 221.36 80.0436 221.621 79.8751C221.882 79.7065 222.089 79.4158 222.24 79.0029C222.282 78.9102 222.325 78.847 222.367 78.8133C222.409 78.7712 222.472 78.7501 222.556 78.7501H223.163C223.247 78.7501 223.319 78.7754 223.378 78.826C223.437 78.8765 223.462 78.9439 223.454 79.0282C223.445 79.2051 223.407 79.3863 223.34 79.5717C223.273 79.7571 223.163 79.9467 223.011 80.1405C222.868 80.3259 222.687 80.4944 222.468 80.6461C222.249 80.7893 221.983 80.9073 221.672 81C221.368 81.0843 221.023 81.1264 220.635 81.1264Z" fill="#7BBE47"/>
<path d="M226.965 81C226.88 81 226.809 80.9747 226.75 80.9242C226.699 80.8652 226.674 80.7936 226.674 80.7093V75.4385H224.475C224.39 75.4385 224.319 75.4132 224.26 75.3626C224.209 75.3036 224.184 75.232 224.184 75.1477V74.718C224.184 74.6337 224.209 74.5663 224.26 74.5158C224.319 74.4568 224.39 74.4273 224.475 74.4273H230.036C230.12 74.4273 230.188 74.4568 230.238 74.5158C230.297 74.5663 230.327 74.6337 230.327 74.718V75.1477C230.327 75.232 230.297 75.3036 230.238 75.3626C230.188 75.4132 230.12 75.4385 230.036 75.4385H227.837V80.7093C227.837 80.7936 227.811 80.8652 227.761 80.9242C227.71 80.9747 227.639 81 227.546 81H226.965Z" fill="#7BBE47"/>
<path d="M234.039 81.1264C233.171 81.1264 232.48 80.861 231.966 80.3301C231.452 79.7908 231.17 79.0577 231.12 78.1308C231.111 78.0212 231.107 77.8822 231.107 77.7136C231.107 77.5367 231.111 77.3934 231.12 77.2839C231.153 76.6856 231.292 76.1632 231.537 75.7165C231.781 75.2615 232.114 74.9118 232.535 74.6674C232.965 74.4231 233.466 74.3009 234.039 74.3009C234.68 74.3009 235.215 74.4357 235.645 74.7054C236.083 74.975 236.416 75.3584 236.643 75.8556C236.871 76.3528 236.984 76.9342 236.984 77.5999V77.8148C236.984 77.9075 236.955 77.9791 236.896 78.0296C236.845 78.0802 236.778 78.1055 236.694 78.1055H232.32C232.32 78.1139 232.32 78.1308 232.32 78.156C232.32 78.1813 232.32 78.2024 232.32 78.2192C232.337 78.5647 232.413 78.8892 232.548 79.1925C232.683 79.4874 232.876 79.7276 233.129 79.913C233.382 80.0984 233.685 80.1911 234.039 80.1911C234.343 80.1911 234.596 80.1447 234.798 80.052C235 79.9593 235.164 79.8582 235.291 79.7487C235.417 79.6307 235.501 79.5422 235.544 79.4832C235.619 79.3737 235.678 79.3105 235.72 79.2936C235.763 79.2683 235.83 79.2557 235.923 79.2557H236.529C236.614 79.2557 236.681 79.281 236.732 79.3315C236.791 79.3737 236.816 79.4369 236.808 79.5211C236.799 79.6475 236.732 79.8034 236.605 79.9888C236.479 80.1658 236.298 80.3427 236.062 80.5197C235.826 80.6967 235.539 80.8441 235.202 80.9621C234.865 81.0716 234.478 81.1264 234.039 81.1264ZM232.32 77.2333H235.784V77.1954C235.784 76.8162 235.712 76.4791 235.569 76.1842C235.434 75.8893 235.236 75.6576 234.975 75.489C234.713 75.3121 234.402 75.2236 234.039 75.2236C233.677 75.2236 233.365 75.3121 233.104 75.489C232.851 75.6576 232.657 75.8893 232.523 76.1842C232.388 76.4791 232.32 76.8162 232.32 77.1954V77.2333Z" fill="#7BBE47"/>
<path d="M238.774 81C238.69 81 238.622 80.9747 238.572 80.9242C238.521 80.8736 238.496 80.8062 238.496 80.7219V74.6674C238.496 74.6 238.521 74.5452 238.572 74.5031C238.631 74.4526 238.69 74.4273 238.749 74.4273H239.393C239.528 74.4273 239.633 74.4947 239.709 74.6295L241.858 78.649L244.019 74.6295C244.095 74.4947 244.201 74.4273 244.335 74.4273H244.967C245.035 74.4273 245.094 74.4526 245.144 74.5031C245.195 74.5452 245.22 74.6 245.22 74.6674V80.7219C245.22 80.8062 245.195 80.8736 245.144 80.9242C245.094 80.9747 245.031 81 244.955 81H244.335C244.251 81 244.184 80.9747 244.133 80.9242C244.083 80.8736 244.057 80.8062 244.057 80.7219V75.6786L244.5 75.7292L242.439 79.6223C242.397 79.7065 242.347 79.7824 242.288 79.8498C242.229 79.9172 242.14 79.9509 242.022 79.9509H241.694C241.584 79.9509 241.5 79.9172 241.441 79.8498C241.382 79.7824 241.327 79.7065 241.277 79.6223L239.279 75.9188L239.671 75.8809V80.7219C239.671 80.8062 239.646 80.8736 239.595 80.9242C239.545 80.9747 239.478 81 239.393 81H238.774Z" fill="#7BBE47"/>
<path d="M247.402 81C247.318 81 247.246 80.9747 247.188 80.9242C247.137 80.8652 247.112 80.7936 247.112 80.7093V74.718C247.112 74.6337 247.137 74.5663 247.188 74.5158C247.246 74.4568 247.318 74.4273 247.402 74.4273H248.009C248.093 74.4273 248.161 74.4568 248.211 74.5158C248.27 74.5663 248.3 74.6337 248.3 74.718V76.5761H249.614C250.474 76.5761 251.102 76.7783 251.498 77.1828C251.894 77.5872 252.092 78.135 252.092 78.826C252.092 79.5675 251.873 80.1152 251.434 80.4691C250.996 80.8231 250.339 81 249.463 81H247.402ZM248.287 80.052H249.501C250.015 80.052 250.39 79.9635 250.626 79.7866C250.861 79.6012 250.979 79.281 250.979 78.826C250.979 78.3878 250.866 78.0633 250.638 77.8527C250.411 77.6336 250.031 77.524 249.501 77.524H248.287V80.052ZM253.28 81C253.196 81 253.124 80.9747 253.065 80.9242C253.014 80.8652 252.989 80.7936 252.989 80.7093V74.718C252.989 74.6337 253.014 74.5663 253.065 74.5158C253.124 74.4568 253.196 74.4273 253.28 74.4273H253.887C253.971 74.4273 254.038 74.4568 254.089 74.5158C254.148 74.5663 254.177 74.6337 254.177 74.718V80.7093C254.177 80.7936 254.148 80.8652 254.089 80.9242C254.038 80.9747 253.971 81 253.887 81H253.28Z" fill="#7BBE47"/>
</g>
<defs>
<clipPath id="clip0_106_9731">
<rect width="256" height="85" fill="white"/>
</clipPath>
</defs>
</svg>
