<svg width="20" height="20" viewBox="0 0 20 20" fill="none" xmlns="http://www.w3.org/2000/svg">
<path d="M10 15.8334C10.69 15.8334 11.25 16.3934 11.25 17.0834C11.25 17.7734 10.69 18.3334 10 18.3334C9.31 18.3334 8.75 17.7734 8.75 17.0834C8.75 16.3934 9.31 15.8334 10 15.8334ZM10 1.66669C12.7617 1.66669 15 3.90502 15 6.66669C15 8.47085 14.3725 9.40835 12.7717 10.7692C11.1658 12.1334 10.8333 12.7475 10.8333 14.1667H9.16667C9.16667 12.105 9.8225 11.0875 11.6925 9.49919C12.9567 8.42502 13.3333 7.86169 13.3333 6.66669C13.3333 4.82502 11.8417 3.33335 10 3.33335C8.15833 3.33335 6.66667 4.82502 6.66667 6.66669V7.50002H5V6.66669C5 3.90502 7.23833 1.66669 10 1.66669Z" fill="#222222"/>
</svg>
