<svg width="70" height="70" viewBox="0 0 70 70" fill="none" xmlns="http://www.w3.org/2000/svg">
<g clip-path="url(#clip0_10917_181)">
<mask id="mask0_10917_181" style="mask-type:luminance" maskUnits="userSpaceOnUse" x="0" y="0" width="71" height="70">
<path d="M0.000152588 -5.34058e-05H70.0001V69.9999H0.000152588V-5.34058e-05Z" fill="white"/>
</mask>
<g mask="url(#mask0_10917_181)">
<path d="M6.88938 68.9745H54.5103C51.5455 68.9745 49.1422 66.571 49.1422 63.6063V62.1773C49.1422 61.0875 48.2587 60.2042 47.1689 60.2042H3.49424C2.40446 60.2042 1.52112 61.0875 1.52112 62.1773V63.6063C1.52112 66.571 3.9245 68.9745 6.88938 68.9745Z" stroke="black" stroke-width="2.44141" stroke-miterlimit="10" stroke-linecap="round" stroke-linejoin="round"/>
<path d="M59.5817 11.5096V5.23324C59.5817 2.9093 57.6979 1.02532 55.3738 1.02532H10.7988C8.47476 1.02532 6.59091 2.9093 6.59091 5.23324V60.2042" stroke="black" stroke-width="2.44141" stroke-miterlimit="10" stroke-linecap="round" stroke-linejoin="round"/>
<path d="M54.4226 68.9724C57.2798 68.9252 59.5817 66.5959 59.5817 63.7275V59.1814" stroke="black" stroke-width="2.44141" stroke-miterlimit="10" stroke-linecap="round" stroke-linejoin="round"/>
<path d="M13.2194 17.7554H34.4267" stroke="black" stroke-width="2.44141" stroke-miterlimit="10" stroke-linecap="round" stroke-linejoin="round"/>
<path d="M13.2194 25.9479H34.4267" stroke="black" stroke-width="2.44141" stroke-miterlimit="10" stroke-linecap="round" stroke-linejoin="round"/>
<path d="M13.2194 34.1405H34.4267" stroke="black" stroke-width="2.44141" stroke-miterlimit="10" stroke-linecap="round" stroke-linejoin="round"/>
<path d="M13.2194 42.3331H34.4267" stroke="black" stroke-width="2.44141" stroke-miterlimit="10" stroke-linecap="round" stroke-linejoin="round"/>
<path d="M55.535 16.7411C56.2085 17.789 57.5681 18.1534 58.6753 17.5824C60.2391 16.7762 62.1127 17.8579 62.1965 19.6154C62.2555 20.8597 63.251 21.855 64.4953 21.9142C66.2526 21.9979 67.3345 23.8715 66.5281 25.4353C65.9572 26.5424 66.3215 27.9022 67.3696 28.5757C68.8497 29.5267 68.8497 31.6903 67.3696 32.6415C66.3215 33.3149 65.9572 34.6745 66.5281 35.7818C67.3345 37.3455 66.2526 39.2191 64.4953 39.3028C63.251 39.362 62.2555 40.3575 62.1965 41.6016C62.1127 43.3591 60.2391 44.4408 58.6753 43.6346C57.5681 43.0637 56.2085 43.428 55.535 44.476C54.5838 45.9561 52.4204 45.9561 51.4692 44.476C50.7958 43.428 49.4361 43.0637 48.3289 43.6346C46.765 44.4408 44.8914 43.3591 44.8078 41.6016C44.7486 40.3575 43.7532 39.362 42.509 39.3028C40.7516 39.2191 39.6697 37.3455 40.476 35.7818C41.0469 34.6745 40.6825 33.3149 39.6346 32.6415C38.1545 31.6903 38.1545 29.5267 39.6346 28.5757C40.6825 27.9022 41.0469 26.5424 40.476 25.4353C39.6697 23.8715 40.7516 21.9979 42.509 21.9142C43.7532 21.855 44.7486 20.8597 44.8078 19.6154C44.8914 17.8579 46.765 16.7762 48.3289 17.5824C49.4361 18.1534 50.7958 17.789 51.4692 16.7411C52.4204 15.261 54.5838 15.261 55.535 16.7411Z" stroke="black" stroke-width="2.44141" stroke-miterlimit="10" stroke-linecap="round" stroke-linejoin="round"/>
<path d="M62.3364 30.6087C62.3364 35.488 58.381 39.4432 53.5019 39.4432C48.6227 39.4432 44.6674 35.488 44.6674 30.6087C44.6674 25.7295 48.6227 21.7743 53.5019 21.7743C58.381 21.7743 62.3364 25.7295 62.3364 30.6087Z" stroke="black" stroke-width="2.44141" stroke-miterlimit="10" stroke-linecap="round" stroke-linejoin="round"/>
<path d="M47.4254 43.8975V53.7854C47.4254 54.2363 47.9154 54.5163 48.304 54.2874L53.206 51.3991C53.3885 51.2916 53.6149 51.2916 53.7975 51.3991L58.6997 54.2874C59.0882 54.5163 59.5782 54.2363 59.5782 53.7854V43.8975" stroke="black" stroke-width="2.44141" stroke-miterlimit="10" stroke-linecap="round" stroke-linejoin="round"/>
</g>
</g>
<defs>
<clipPath id="clip0_10917_181">
<rect width="70" height="70" fill="white"/>
</clipPath>
</defs>
</svg>
