<svg width="70" height="70" viewBox="0 0 70 70" fill="none" xmlns="http://www.w3.org/2000/svg">
<path d="M28.0691 15.8167H41.4427C42.5753 15.8167 43.4935 14.8985 43.4935 13.7659V7.32293C43.4935 6.19035 42.5753 5.27215 41.4427 5.27215H34.9998C34.9998 2.92674 33.0985 1.02539 30.7531 1.02539C28.4076 1.02539 26.5063 2.92674 26.5063 5.27215H20.0633C18.9307 5.27215 18.0125 6.19035 18.0125 7.32293V13.7658C18.0125 14.8984 18.9307 15.8166 20.0633 15.8166H23.284" stroke="black" stroke-width="2.05078" stroke-miterlimit="10" stroke-linecap="round" stroke-linejoin="round"/>
<path d="M22.2592 11.6424H39.2465" stroke="black" stroke-width="2.05078" stroke-miterlimit="10" stroke-linecap="round" stroke-linejoin="round"/>
<circle cx="30.7529" cy="5.27216" r="1.02539" fill="black"/>
<path d="M11.6422 22.2596V18.6237C11.6422 17.1135 10.418 15.8893 8.90784 15.8893H5.88293C4.37274 15.8893 3.14856 17.1135 3.14856 18.6237V22.2596" stroke="black" stroke-width="2.05078" stroke-miterlimit="10" stroke-linecap="round" stroke-linejoin="round"/>
<path d="M10.4757 59.9197L11.3 57.859C11.5074 57.3405 11.6222 56.7902 11.6397 56.233" stroke="black" stroke-width="2.05078" stroke-miterlimit="10" stroke-linecap="round" stroke-linejoin="round"/>
<path d="M3.15103 56.233C3.16867 56.7902 3.28351 57.3407 3.49078 57.859L4.31505 59.9197" stroke="black" stroke-width="2.05078" stroke-miterlimit="10" stroke-linecap="round" stroke-linejoin="round"/>
<path d="M8.98223 63.6535L10.4757 59.9197C9.56288 59.4144 8.51274 59.1268 7.39547 59.1268C6.27821 59.1268 5.22807 59.4144 4.3152 59.9197L5.80872 63.6535C6.3817 65.0859 8.40924 65.0859 8.98223 63.6535Z" stroke="black" stroke-width="2.05078" stroke-miterlimit="10" stroke-linecap="round" stroke-linejoin="round"/>
<path d="M3.14856 51.4443V56.2313C3.14979 56.2322 3.14979 56.232 3.15102 56.2328L5.8668 54.8749C6.82903 54.3938 7.96161 54.3938 8.92397 54.8749L11.6398 56.2328C11.641 56.232 11.641 56.2322 11.6422 56.2313V22.2595H3.14856V46.6591" stroke="black" stroke-width="2.05078" stroke-miterlimit="10" stroke-linecap="round" stroke-linejoin="round"/>
<path d="M7.39545 22.2596V54.5141" stroke="black" stroke-width="2.05078" stroke-miterlimit="10" stroke-linecap="round" stroke-linejoin="round"/>
<path d="M41.3701 29.0088V23.554C41.3701 21.6663 42.9003 20.136 44.788 20.136H63.433C65.3207 20.136 66.851 21.6663 66.851 23.554V42.199C66.851 44.0867 65.3207 45.617 63.433 45.617H44.788C42.9003 45.617 41.3701 44.0867 41.3701 42.199V33.794" stroke="black" stroke-width="2.05078" stroke-miterlimit="10" stroke-linecap="round" stroke-linejoin="round"/>
<path d="M56.2445 26.6754C58.6785 27.2872 60.4807 29.4903 60.4807 32.114V35" stroke="black" stroke-width="2.05078" stroke-miterlimit="10" stroke-linecap="round" stroke-linejoin="round"/>
<path d="M47.7401 35V32.114C47.7401 29.4863 49.5475 27.2807 51.9868 26.6726" stroke="black" stroke-width="2.05078" stroke-miterlimit="10" stroke-linecap="round" stroke-linejoin="round"/>
<path d="M51.9871 35V26.5063C51.9871 26.1289 52.2932 25.8228 52.6707 25.8228H55.5503C55.9278 25.8228 56.2339 26.1289 56.2339 26.5063V35" stroke="black" stroke-width="2.05078" stroke-miterlimit="10" stroke-linecap="round" stroke-linejoin="round"/>
<path d="M60.9451 35H47.2761C46.5139 35 46.018 35.8021 46.359 36.4839L46.5944 36.9548C47.2967 38.3595 48.7324 39.2468 50.3029 39.2468H57.9184C59.4889 39.2468 60.9246 38.3595 61.6269 36.9548L61.8623 36.4839C62.2032 35.8021 61.7073 35 60.9451 35Z" stroke="black" stroke-width="2.05078" stroke-miterlimit="10" stroke-linecap="round" stroke-linejoin="round"/>
<path d="M25.2495 20.4365L21.4702 24.2158L19.1923 21.9379C18.7919 21.5375 18.1426 21.5375 17.7421 21.9379L16.1893 23.4908C15.7888 23.8912 15.7888 24.5405 16.1893 24.9409L20.745 29.4967C21.1455 29.8971 21.7948 29.8971 22.1952 29.4967L28.2525 23.4394C28.653 23.0389 28.653 22.3896 28.2525 21.9892L26.6997 20.4363C26.2992 20.036 25.65 20.036 25.2495 20.4365Z" stroke="black" stroke-width="2.05078" stroke-miterlimit="10" stroke-linecap="round" stroke-linejoin="round"/>
<path d="M25.2495 35.3004L21.4702 39.0797L19.1923 36.8018C18.7919 36.4013 18.1426 36.4013 17.7421 36.8018L16.1893 38.3546C15.7888 38.7551 15.7888 39.4044 16.1893 39.8048L20.745 44.3606C21.1455 44.761 21.7948 44.761 22.1952 44.3606L28.2525 38.3032C28.653 37.9028 28.653 37.2535 28.2525 36.8531L26.6997 35.3002C26.2992 34.8999 25.65 34.8999 25.2495 35.3004Z" stroke="black" stroke-width="2.05078" stroke-miterlimit="10" stroke-linecap="round" stroke-linejoin="round"/>
<path d="M25.2495 49.2081L21.4702 52.9874L19.1923 50.7095C18.7919 50.3091 18.1426 50.3091 17.7421 50.7095L16.1893 52.2624C15.7888 52.6628 15.7888 53.3121 16.1893 53.7125L20.745 58.2683C21.1455 58.6687 21.7948 58.6687 22.1952 58.2683L28.2525 52.211C28.653 51.8105 28.653 51.1612 28.2525 50.7608L26.6997 49.2079C26.2992 48.8076 25.65 48.8076 25.2495 49.2081Z" stroke="black" stroke-width="2.05078" stroke-miterlimit="10" stroke-linecap="round" stroke-linejoin="round"/>
<path d="M32.8764 22.4707H41.3701" stroke="black" stroke-width="2.05078" stroke-miterlimit="10" stroke-linecap="round" stroke-linejoin="round"/>
<path d="M32.8764 26.7174H41.3701" stroke="black" stroke-width="2.05078" stroke-miterlimit="10" stroke-linecap="round" stroke-linejoin="round"/>
<path d="M32.8764 37.3346H41.3701" stroke="black" stroke-width="2.05078" stroke-miterlimit="10" stroke-linecap="round" stroke-linejoin="round"/>
<path d="M32.8764 41.5814H37.1232" stroke="black" stroke-width="2.05078" stroke-miterlimit="10" stroke-linecap="round" stroke-linejoin="round"/>
<path d="M32.8764 52.1984H43.4934" stroke="black" stroke-width="2.05078" stroke-miterlimit="10" stroke-linecap="round" stroke-linejoin="round"/>
<path d="M32.8764 56.4453H41.3701" stroke="black" stroke-width="2.05078" stroke-miterlimit="10" stroke-linecap="round" stroke-linejoin="round"/>
<path d="M18.0125 11.6424H11.6422V64.7278H49.8637V45.617" stroke="black" stroke-width="2.05078" stroke-miterlimit="10" stroke-linecap="round" stroke-linejoin="round"/>
<path d="M49.8637 20.136V11.6424H43.4935" stroke="black" stroke-width="2.05078" stroke-miterlimit="10" stroke-linecap="round" stroke-linejoin="round"/>
<path d="M7.39545 64.7278V65.5566C7.39545 67.4443 8.92574 68.9746 10.8134 68.9746H50.6926C52.5803 68.9746 54.1106 67.4443 54.1106 65.5566V45.617" stroke="black" stroke-width="2.05078" stroke-miterlimit="10" stroke-linecap="round" stroke-linejoin="round"/>
<path d="M18.0125 7.39569H10.8134C8.92574 7.39569 7.39545 8.92598 7.39545 10.8137V15.8893" stroke="black" stroke-width="2.05078" stroke-miterlimit="10" stroke-linecap="round" stroke-linejoin="round"/>
<path d="M54.1105 20.1361V10.8137C54.1105 8.92598 52.5802 7.39569 50.6925 7.39569H43.4935" stroke="black" stroke-width="2.05078" stroke-miterlimit="10" stroke-linecap="round" stroke-linejoin="round"/>
</svg>
