<svg width="70" height="70" viewBox="0 0 70 70" fill="none" xmlns="http://www.w3.org/2000/svg">
<path d="M48.125 59.0625H45.9375C45.2812 59.0625 44.8438 58.625 44.8438 57.9688C44.8438 57.3125 45.2812 56.875 45.9375 56.875H48.125C48.7812 56.875 49.2188 57.3125 49.2188 57.9688C49.2188 58.625 48.7812 59.0625 48.125 59.0625Z" fill="black"/>
<path d="M48.125 54.6875H45.9375C45.2812 54.6875 44.8438 54.25 44.8438 53.5938C44.8438 52.9375 45.2812 52.5 45.9375 52.5H48.125C48.7812 52.5 49.2188 52.9375 49.2188 53.5938C49.2188 54.25 48.7812 54.6875 48.125 54.6875Z" fill="black"/>
<path d="M48.125 50.3125H45.9375C45.2812 50.3125 44.8438 49.875 44.8438 49.2188C44.8438 48.5625 45.2812 48.125 45.9375 48.125H48.125C48.7812 48.125 49.2188 48.5625 49.2188 49.2188C49.2188 49.875 48.7812 50.3125 48.125 50.3125Z" fill="black"/>
<path d="M48.125 45.9375H45.9375C45.2812 45.9375 44.8438 45.5 44.8438 44.8438C44.8438 44.1875 45.2812 43.75 45.9375 43.75H48.125C48.7812 43.75 49.2188 44.1875 49.2188 44.8438C49.2188 45.5 48.7812 45.9375 48.125 45.9375Z" fill="black"/>
<path d="M48.125 41.5625H45.9375C45.2812 41.5625 44.8438 41.125 44.8438 40.4688C44.8438 39.8125 45.2812 39.375 45.9375 39.375H48.125C48.7812 39.375 49.2188 39.8125 49.2188 40.4688C49.2188 41.125 48.7812 41.5625 48.125 41.5625Z" fill="black"/>
<path d="M48.125 37.1875H45.9375C45.2812 37.1875 44.8438 36.75 44.8438 36.0938C44.8438 35.4375 45.2812 35 45.9375 35H48.125C48.7812 35 49.2188 35.4375 49.2188 36.0938C49.2188 36.75 48.7812 37.1875 48.125 37.1875Z" fill="black"/>
<path d="M64.5312 41.5625H60.1562V40.4688C60.1562 40.0312 59.8281 39.5938 59.3906 39.4844L53.5938 37.5156V31.7188C53.5938 31.0625 53.1562 30.625 52.5 30.625H51.4062V27.3438C51.4062 26.6875 50.9688 26.25 50.3125 26.25H48.125V20.7812C48.125 20.125 47.6875 19.6875 47.0312 19.6875C46.375 19.6875 45.9375 20.125 45.9375 20.7812V26.25H43.75C43.0938 26.25 42.6562 26.6875 42.6562 27.3438V30.625H41.5625C40.9062 30.625 40.4688 31.0625 40.4688 31.7188V41.5625H37.0781C36.2031 41.0156 35.2188 40.5781 34.2344 40.25C33.5781 40.1406 33.0312 40.0312 32.375 39.9219L29.5312 39.8125L26.25 39.5938V37.4062C30.0781 35.875 32.9219 32.5938 33.6875 28.5469L36.0938 27.7812C37.4062 27.3438 38.2812 26.0312 38.2812 24.7188V21.875C38.2812 20.4531 37.4062 19.25 36.0938 18.8125V15.3125C36.0938 14.6562 35.6562 14.2188 35 14.2188H33.9062C33.9062 9.40625 30.7344 5.14062 26.1406 3.71875V3.39062C26.1406 3.0625 26.1406 2.73437 25.9219 2.51562C25.8125 2.29687 25.4844 2.1875 25.1562 2.1875H18.5938C18.2656 2.1875 17.9375 2.29687 17.7188 2.51562C17.6094 2.84375 17.5 3.17187 17.5 3.39062V3.71875C13.0156 5.14062 9.84375 9.40625 9.84375 14.2188H8.75C8.09375 14.2188 7.65625 14.6562 7.65625 15.3125V18.8125C6.34375 19.25 5.46875 20.4531 5.46875 21.875V24.7188C5.46875 26.1406 6.34375 27.3438 7.76562 27.7812L10.1719 28.5469C10.9375 32.5938 13.7812 35.9844 17.6094 37.4062V39.5938L14.3281 39.8125L11.5938 39.9219C6.34375 40.25 2.29688 44.5156 2.29688 49.7656V64.5312C2.29688 66.3906 3.71875 67.8125 5.57812 67.8125H34.0156H38.3906H64.6406C66.5 67.8125 67.9219 66.3906 67.9219 64.5312V44.8438C67.8125 42.9844 66.3906 41.5625 64.5312 41.5625ZM57.9688 41.2344V61.25H53.5938V59.0625H54.6875C55.3438 59.0625 55.7812 58.625 55.7812 57.9688C55.7812 57.3125 55.3438 56.875 54.6875 56.875H53.5938V54.6875H54.6875C55.3438 54.6875 55.7812 54.25 55.7812 53.5938C55.7812 52.9375 55.3438 52.5 54.6875 52.5H53.5938V50.3125H54.6875C55.3438 50.3125 55.7812 49.875 55.7812 49.2188C55.7812 48.5625 55.3438 48.125 54.6875 48.125H53.5938V45.9375H54.6875C55.3438 45.9375 55.7812 45.5 55.7812 44.8438C55.7812 44.1875 55.3438 43.75 54.6875 43.75H53.5938V39.8125L57.9688 41.2344ZM44.8438 28.4375H49.2188V30.625H44.8438V28.4375ZM42.6562 32.8125H43.75H50.3125H51.4062V38.2812V61.25H42.6562V32.8125ZM15.3125 42L17.5 41.8906C17.6094 44.1875 19.5781 46.0469 21.875 46.0469C24.1719 46.0469 26.0312 44.1875 26.25 41.8906L28.4375 42V49.2188H15.3125V42ZM36.0938 24.7188C36.0938 25.1562 35.7656 25.5938 35.3281 25.8125L33.9062 26.1406V20.7812H35C35.6562 20.7812 36.0938 21.2188 36.0938 21.875V24.7188ZM23.8437 4.375L23.0781 9.84375H20.5625L19.7969 4.375H23.8437ZM17.8281 6.01562L18.5938 11.1562C18.7031 11.7031 19.1406 12.1406 19.6875 12.1406H24.0625C24.6094 12.1406 25.0469 11.7031 25.1562 11.1562L25.9219 6.01562C29.3125 7.21875 31.7188 10.5 31.7188 14.2188H12.0312C12.0312 10.5 14.4375 7.21875 17.8281 6.01562ZM9.84375 16.4062H10.9375H32.8125H33.9062V18.5938H32.8125H10.9375H9.84375V16.4062ZM7.65625 24.7188V21.875C7.65625 21.2188 8.09375 20.7812 8.75 20.7812H9.84375V26.1406L8.42188 25.7031C7.98438 25.5938 7.65625 25.1562 7.65625 24.7188ZM12.0312 26.25V20.7812H31.7188V26.25C31.7188 31.7188 27.3438 36.0938 21.875 36.0938C16.4062 36.0938 12.0312 31.7188 12.0312 26.25ZM21.875 38.2812C22.6406 38.2812 23.4062 38.1719 24.0625 38.0625V41.5625C24.0625 42.7656 23.0781 43.75 21.875 43.75C20.6719 43.75 19.6875 42.7656 19.6875 41.5625V38.0625C20.3438 38.1719 21.1094 38.2812 21.875 38.2812ZM11.5938 42.2188L13.125 42.1094V50.3125C13.125 50.9688 13.5625 51.4062 14.2188 51.4062H29.5312C30.1875 51.4062 30.625 50.9688 30.625 50.3125V42.1094L32.1562 42.2188C32.375 42.2188 32.5938 42.2188 32.8125 42.3281V42.6562V65.625H28.4375V54.6875C28.4375 54.0312 28 53.5938 27.3438 53.5938H16.4062C15.75 53.5938 15.3125 54.0312 15.3125 54.6875V65.625H10.9375V42.2188H11.5938ZM26.25 65.625H17.5V55.7812H26.25V65.625ZM4.375 64.5312V49.7656C4.375 46.7031 6.125 44.0781 8.75 42.875V65.625H5.46875C4.8125 65.625 4.375 65.1875 4.375 64.5312ZM65.625 64.5312C65.625 65.1875 65.1875 65.625 64.5312 65.625H38.2812H35V43.75H40.4688V61.25H38.2812C37.625 61.25 37.1875 61.6875 37.1875 62.3438C37.1875 63 37.625 63.4375 38.2812 63.4375H41.5625H52.5H59.0625H62.3438C63 63.4375 63.4375 63 63.4375 62.3438C63.4375 61.6875 63 61.25 62.3438 61.25H60.1562V43.75H64.5312C65.1875 43.75 65.625 44.1875 65.625 44.8438V64.5312Z" fill="black"/>
</svg>
