<svg width="20" height="20" viewBox="0 0 20 20" fill="none" xmlns="http://www.w3.org/2000/svg">
<path d="M6.74195 15.0007C5.7041 15.0007 4.86279 15.842 4.86279 16.8798C4.86279 17.9177 5.70414 18.759 6.74195 18.759C7.7798 18.759 8.6211 17.9176 8.6211 16.8798C8.62114 15.842 7.7798 15.0007 6.74195 15.0007ZM6.74195 17.9238C6.16537 17.9238 5.69798 17.4564 5.69798 16.8799C5.69798 16.3033 6.16537 15.8359 6.74195 15.8359C7.31852 15.8359 7.78591 16.3033 7.78591 16.8799C7.78595 17.4564 7.31852 17.9238 6.74195 17.9238Z" fill="#D09D39" stroke="#D09D39" stroke-width="0.6"/>
<path d="M14.6763 15.0007C13.6384 15.0007 12.7971 15.842 12.7971 16.8798C12.7971 17.9177 13.6384 18.759 14.6763 18.759C15.7141 18.759 16.5554 17.9176 16.5554 16.8798C16.5554 15.842 15.7141 15.0007 14.6763 15.0007ZM14.6763 17.9238C14.0997 17.9238 13.6323 17.4564 13.6323 16.8799C13.6323 16.3033 14.0997 15.8359 14.6763 15.8359C15.2528 15.8359 15.7202 16.3033 15.7202 16.8799C15.7203 17.4564 15.2528 17.9238 14.6763 17.9238Z" fill="#D09D39" stroke="#D09D39" stroke-width="0.6"/>
<path d="M18.9148 4.03888C18.8279 3.94388 18.7089 3.88441 18.5808 3.87183L4.98811 3.68391L4.61228 2.53552C4.34751 1.76783 3.62862 1.24957 2.81661 1.24097H1.41767C1.18703 1.24097 1.00008 1.42793 1.00008 1.65857C1.00008 1.8892 1.18703 2.07616 1.41767 2.07616H2.81661C3.27065 2.08619 3.67046 2.37774 3.81885 2.80696L6.47057 10.8039L6.26179 11.2841C6.02892 11.8846 6.09886 12.5605 6.44971 13.1006C6.79721 13.6311 7.38181 13.9585 8.0157 13.9776H16.1379C16.3686 13.9776 16.5555 13.7906 16.5555 13.56C16.5555 13.3293 16.3686 13.1424 16.1379 13.1424H8.01566C7.65769 13.1334 7.32818 12.9451 7.13871 12.6413C6.95135 12.3411 6.91286 11.9714 7.03432 11.639L7.20137 11.2632L15.9917 10.3445C16.9573 10.2381 17.7515 9.53586 17.9753 8.59057L18.9776 4.39377C19.0227 4.27291 18.9987 4.13699 18.9148 4.03888ZM17.161 8.40269C17.0254 9.0112 16.5088 9.46004 15.8873 9.50932L7.20137 10.4071L5.25955 4.5191L18.0588 4.70701L17.161 8.40269Z" fill="#D09D39" stroke="#D09D39" stroke-width="0.6"/>
</svg>
