<svg width="32" height="32" viewBox="0 0 32 32" fill="none" xmlns="http://www.w3.org/2000/svg">
<g clip-path="url(#clip0_16:6)">
<path d="M6.52061 21.2714C9.67685 25.0443 13.4763 28.0149 17.8128 30.1169C19.4638 30.8993 21.6719 31.8276 24.1319 31.9867C24.2844 31.9934 24.4303 32 24.5828 32C26.2338 32 27.56 31.4298 28.6408 30.2561C28.6474 30.2495 28.6607 30.2362 28.6673 30.223C29.0519 29.7588 29.4895 29.3411 29.9471 28.8968C30.2587 28.5984 30.577 28.2868 30.882 27.9685C32.2944 26.4965 32.2944 24.6266 30.8687 23.201L26.8837 19.2159C26.2073 18.5131 25.3984 18.1417 24.5496 18.1417C23.7009 18.1417 22.8853 18.5131 22.1891 19.2093L19.8153 21.5831C19.5965 21.4571 19.371 21.3444 19.1588 21.2383C18.8936 21.1057 18.6483 20.9797 18.4294 20.8404C16.2678 19.4679 14.3051 17.6776 12.4286 15.3767C11.4804 14.1765 10.8439 13.1687 10.3996 12.1409C11.0229 11.5773 11.6064 10.9872 12.17 10.4103C12.3689 10.2047 12.5745 9.99917 12.78 9.79362C13.4962 9.0775 13.8808 8.24865 13.8808 7.40655C13.8808 6.56444 13.5028 5.7356 12.78 5.01948L10.8041 3.04351C10.572 2.81144 10.3532 2.58599 10.1277 2.35392C9.69011 1.90303 9.23259 1.43887 8.7817 1.02114C8.09873 0.35143 7.29641 0 6.44768 0C5.60557 0 4.79662 0.35143 4.08713 1.02777L1.60723 3.50767C0.705443 4.40945 0.194875 5.50352 0.0887831 6.77C-0.0372012 8.35474 0.254552 10.039 1.01046 12.0746C2.17084 15.2242 3.92136 18.1484 6.52061 21.2714ZM1.70669 6.90924C1.78626 6.02735 2.12442 5.29134 2.76098 4.65479L5.22762 2.18815C5.6122 1.81683 6.03657 1.62453 6.44768 1.62453C6.85215 1.62453 7.26326 1.81683 7.64121 2.20141C8.08547 2.61252 8.50321 3.04351 8.9541 3.50104C9.17955 3.73311 9.41162 3.96519 9.6437 4.2039L11.6197 6.17986C12.0308 6.59097 12.243 7.0087 12.243 7.41981C12.243 7.83092 12.0308 8.24865 11.6197 8.65976C11.4141 8.86531 11.2086 9.0775 11.003 9.28305C10.3863 9.90634 9.80947 10.4965 9.17292 11.0601C9.15965 11.0734 9.15302 11.08 9.13976 11.0932C8.58941 11.6436 8.67561 12.1674 8.80822 12.5653C8.81486 12.5852 8.82149 12.5984 8.82812 12.6183C9.33869 13.845 10.0482 15.012 11.1555 16.4045C13.1447 18.8579 15.2401 20.7609 17.5476 22.2263C17.8327 22.4119 18.1377 22.5578 18.4228 22.7037C18.688 22.8363 18.9334 22.9623 19.1522 23.1015C19.1787 23.1148 19.1986 23.1281 19.2251 23.1413C19.444 23.254 19.6561 23.3071 19.8683 23.3071C20.3988 23.3071 20.7436 22.9689 20.8563 22.8562L23.3362 20.3763C23.7208 19.9917 24.1385 19.7862 24.5496 19.7862C25.0536 19.7862 25.4647 20.0978 25.7233 20.3763L29.7216 24.368C30.5173 25.1637 30.5107 26.0257 29.7017 26.8678C29.4232 27.1662 29.1315 27.4513 28.8198 27.7497C28.3557 28.2006 27.8716 28.6647 27.434 29.1886C26.6715 30.0108 25.7631 30.3954 24.5894 30.3954C24.4767 30.3954 24.3573 30.3887 24.2446 30.3821C22.0697 30.2429 20.0474 29.3941 18.5289 28.6714C14.4046 26.6755 10.7842 23.8442 7.78046 20.2503C5.30719 17.2731 3.64287 14.5014 2.54216 11.5309C1.85919 9.70742 1.6006 8.24202 1.70669 6.90924Z" fill="white"/>
</g>
<defs>
<clipPath id="clip0_16:6">
<rect width="32" height="32" fill="white"/>
</clipPath>
</defs>
</svg>
