<svg width="40" height="40" viewBox="0 0 40 40" fill="none" xmlns="http://www.w3.org/2000/svg">
<rect x="0.5" y="0.5" width="39" height="39" stroke="#DDDDDD"/>
<path d="M28.0312 15.6875C28.125 15.3125 28.0312 15 27.4688 15H25.625C25.1562 15 24.9375 15.25 24.8125 15.5312C24.8125 15.5312 23.875 17.8125 22.5625 19.3125C22.125 19.7188 21.9375 19.875 21.6875 19.875C21.5938 19.875 21.4062 19.7188 21.4062 19.3438V15.6875C21.4062 15.2188 21.2812 15 20.875 15H18C17.6875 15 17.5312 15.2188 17.5312 15.4375C17.5312 15.875 18.1875 15.9688 18.25 17.2188V19.9375C18.25 20.5312 18.1562 20.6562 17.9062 20.6562C17.2812 20.6562 15.7812 18.3438 14.875 15.7188C14.6875 15.2188 14.5 15 14.0312 15H12.1875C11.6875 15 11.5625 15.25 11.5625 15.5312C11.5625 16.0312 12.1875 18.4375 14.4688 21.6562C16 23.8438 18.1562 25 20.0938 25C21.25 25 21.4062 24.75 21.4062 24.3125C21.4062 22.2188 21.3125 22 21.875 22C22.1562 22 22.625 22.1562 23.7188 23.2188C24.9688 24.4688 25.1875 25 25.875 25H27.7188C28.25 25 28.5 24.75 28.3438 24.2188C28 23.1562 25.6562 20.9062 25.5312 20.75C25.25 20.4062 25.3438 20.25 25.5312 19.9375C25.5312 19.9375 27.7812 16.75 28.0312 15.6875Z" fill="#E6E6E6"/>
</svg>
