<svg width="40" height="40" viewBox="0 0 40 40" fill="none" xmlns="http://www.w3.org/2000/svg">
<rect x="0.5" y="0.5" width="39" height="39" stroke="#DDDDDD"/>
<path d="M28.1562 15.9062C27.9688 15.1562 27.375 14.5625 26.6562 14.375C25.3125 14 20 14 20 14C20 14 14.6562 14 13.3125 14.375C12.5938 14.5625 12 15.1562 11.8125 15.9062C11.4375 17.2188 11.4375 20.0312 11.4375 20.0312C11.4375 20.0312 11.4375 22.8125 11.8125 24.1562C12 24.9062 12.5938 25.4688 13.3125 25.6562C14.6562 26 20 26 20 26C20 26 25.3125 26 26.6562 25.6562C27.375 25.4688 27.9688 24.9062 28.1562 24.1562C28.5312 22.8125 28.5312 20.0312 28.5312 20.0312C28.5312 20.0312 28.5312 17.2188 28.1562 15.9062ZM18.25 22.5625V17.5L22.6875 20.0312L18.25 22.5625Z" fill="#E6E6E6"/>
</svg>
