<svg width="52" height="52" viewBox="0 0 52 52" fill="none" xmlns="http://www.w3.org/2000/svg">
<g clip-path="url(#clip0_19_9926)">
<path d="M49.7459 18.8155L29.8335 38.7279C28.5258 40.0355 26.4056 40.0355 25.0979 38.7279L13.012 26.6419C11.7043 25.3343 11.7043 23.214 13.012 21.9063L32.9244 1.99398C34.232 0.686331 36.3523 0.686331 37.66 1.99398L49.7459 14.0798C51.0535 15.3876 51.0535 17.5078 49.7459 18.8155Z" fill="#7BBE47"/>
<path d="M35.4731 13.5315C36.8972 13.5315 38.0516 12.377 38.0516 10.9529C38.0516 9.52885 36.8972 8.37439 35.4731 8.37439C34.049 8.37439 32.8945 9.52885 32.8945 10.9529C32.8945 12.377 34.049 13.5315 35.4731 13.5315Z" fill="white"/>
<path d="M18.5771 50.9847L20.1377 49.424L28.2591 47.1287C30.7246 46.4319 32.708 44.598 33.5955 42.1946L37.8266 30.7364L30.1257 38.4373L27.4769 39.7086L24.6155 38.2438L22.3001 38.4289L28.9086 31.8204C30.0923 30.6367 30.0923 28.7175 28.9086 27.5338C27.725 26.3501 25.8058 26.3501 24.6221 27.5338L20.2164 31.9395L19.138 31.9547C17.1189 31.9831 15.1905 32.7978 13.7626 34.2257C12.3278 35.6606 11.5124 37.6007 11.4912 39.6298L11.4795 40.7657L1.27734 50.9678L18.5771 50.9847Z" fill="white"/>
<path d="M50.4654 13.3619L38.3794 1.27595C36.678 -0.425449 33.9097 -0.425348 32.2079 1.27595L25.4116 8.07221C25.0151 8.4687 25.0151 9.11162 25.4116 9.50821C25.8082 9.9047 26.451 9.9047 26.8476 9.50821L33.6439 2.71194C34.5537 1.8021 36.0341 1.8023 36.9435 2.71194L49.0295 14.7979C49.9392 15.7076 49.9392 17.1878 49.0295 18.0976L29.1171 38.0098C28.6764 38.4506 28.0905 38.6933 27.4673 38.6933C26.844 38.6933 26.2581 38.4505 25.8174 38.0098L24.9862 37.1786L29.6265 32.5383C31.2041 30.9606 31.2041 28.3935 29.6265 26.8157C28.0487 25.238 25.4817 25.2378 23.9039 26.8157L19.7897 30.93L19.1234 30.9394C19.002 30.9412 18.8813 30.9466 18.7606 30.9532L13.7315 25.924C12.8217 25.0142 12.8217 23.5341 13.7315 22.6243L20.386 15.9698C20.7825 15.5733 20.7825 14.9304 20.386 14.5338C19.9896 14.1374 19.3466 14.1374 18.9501 14.5338L12.2956 21.1883C10.5941 22.8898 10.5941 25.6584 12.2956 27.3599L16.3613 31.4255C15.1261 31.8548 13.9935 32.5586 13.0445 33.5075C11.4119 35.14 10.4997 37.3104 10.4758 39.619L10.4683 40.3405L0.559086 50.2498C0.162596 50.6463 0.162596 51.2892 0.559086 51.6858C0.757381 51.884 1.01721 51.9832 1.27703 51.9832C1.53686 51.9832 1.79678 51.884 1.99498 51.6858L12.1972 41.4837C12.385 41.2958 12.4917 41.0418 12.4945 40.7762L12.5063 39.6403C12.5246 37.8661 13.2257 36.1982 14.4803 34.9436C15.7283 33.6957 17.3874 32.9948 19.152 32.9699L20.2304 32.9548C20.4947 32.951 20.7471 32.8444 20.9342 32.6575L25.3399 28.2517C26.1259 27.4659 27.4046 27.4659 28.1906 28.2517C28.9766 29.0376 28.9766 30.3165 28.1906 31.1024L21.5822 37.7109C21.1856 38.1074 21.1856 38.7503 21.5822 39.1469C21.9785 39.5433 22.6216 39.5433 23.018 39.1469L23.5504 38.6146L24.3816 39.4458C25.2325 40.2967 26.3498 40.722 27.4675 40.7219C28.5848 40.7218 29.7026 40.2965 30.5533 39.4458L35.2702 34.7289L32.6432 41.8428C31.8709 43.9344 30.1287 45.5453 27.9831 46.1517L19.8618 48.4469C19.6947 48.4941 19.5426 48.5834 19.4199 48.706L17.8592 50.2667C17.4627 50.6632 17.4627 51.3061 17.8592 51.7027C18.0575 51.9009 18.3173 52.0001 18.5772 52.0001C18.837 52.0001 19.0969 51.9009 19.2951 51.7027L20.6687 50.3291L28.5354 48.106C31.3039 47.3234 33.5516 45.2451 34.5482 42.5464L38.7023 31.297L50.4658 19.5335C52.1668 17.8319 52.1668 15.0634 50.4654 13.3619Z" fill="#222222"/>
<path d="M33.1802 27.525C33.3785 27.7231 33.6383 27.8223 33.8981 27.8223C34.1579 27.8223 34.4178 27.7231 34.6161 27.525L45.154 16.9871C45.5504 16.5906 45.5504 15.9477 45.154 15.5511C44.7574 15.1547 44.1147 15.1547 43.718 15.5511L33.1802 26.089C32.7837 26.4854 32.7837 27.1284 33.1802 27.525Z" fill="#222222"/>
<path d="M22.0737 19.2696L18.6802 22.6631C18.2837 23.0596 18.2837 23.7025 18.6802 24.0991C18.8785 24.2973 19.1383 24.3965 19.3981 24.3965C19.658 24.3965 19.9179 24.2973 20.1161 24.0991L23.5096 20.7056C23.9061 20.3091 23.9061 19.6662 23.5096 19.2696C23.1131 18.8732 22.4702 18.8732 22.0737 19.2696Z" fill="#222222"/>
<path d="M22.8981 13.0361C23.1652 13.0361 23.4271 12.9275 23.616 12.7385C23.8048 12.5498 23.9135 12.2887 23.9135 12.0208C23.9135 11.7537 23.8048 11.4918 23.616 11.3029C23.4271 11.1141 23.1652 11.0054 22.8981 11.0054C22.6311 11.0054 22.3692 11.114 22.1803 11.3029C21.9915 11.4919 21.8828 11.7537 21.8828 12.0208C21.8828 12.2888 21.9915 12.5498 22.1803 12.7385C22.3692 12.9275 22.6312 13.0361 22.8981 13.0361Z" fill="#222222"/>
<path d="M35.4731 14.5588C33.4848 14.5588 31.8672 12.9411 31.8672 10.9529C31.8672 8.96468 33.4848 7.34705 35.4731 7.34705C37.4613 7.34705 39.0788 8.96468 39.0788 10.9529C39.0788 12.9411 37.4613 14.5588 35.4731 14.5588ZM35.4731 9.37772C34.6044 9.37772 33.8979 10.0843 33.8979 10.9529C33.8979 11.8215 34.6044 12.5281 35.4731 12.5281C36.3416 12.5281 37.0482 11.8215 37.0482 10.9529C37.0482 10.0843 36.3416 9.37772 35.4731 9.37772Z" fill="#222222"/>
</g>
<defs>
<clipPath id="clip0_19_9926">
<rect width="52" height="52" fill="white"/>
</clipPath>
</defs>
</svg>
