<svg width="52" height="52" viewBox="0 0 52 52" fill="none" xmlns="http://www.w3.org/2000/svg">
<g clip-path="url(#clip0_19_9884)">
<path d="M50.9267 30.0623L46.9213 21.9376L45.4518 18.9985C45.1075 18.3099 44.4036 17.8752 43.6349 17.8752H34.125V38.1869H48.8498H48.8509H48.9524C50.0747 38.1869 50.9836 37.2779 50.9836 36.1558V30.5416C50.9836 30.3801 50.9643 30.2187 50.9267 30.0623Z" fill="#7BBE47"/>
<path d="M50.9269 30.0624H38.1875V21.9377H46.9215L50.7695 29.6338C50.8375 29.7699 50.8903 29.9142 50.9269 30.0624Z" fill="white"/>
<path d="M48.8501 38.1871C48.9182 38.5151 48.9527 38.8543 48.9527 39.2027C48.9527 42.0067 46.6788 44.2806 43.8748 44.2806C41.0708 44.2806 38.7969 42.0067 38.7969 39.2027C38.7969 38.8543 38.8314 38.5151 38.8995 38.1871C39.3697 35.8695 41.4191 34.1248 43.8748 34.1248C46.3305 34.1248 48.3799 35.8695 48.8501 38.1871Z" fill="white"/>
<path d="M32.0924 7.7196H3.04677C1.92451 7.7196 1.01562 8.62849 1.01562 9.75075V36.1559C1.01562 37.2782 1.92461 38.187 3.04677 38.187H34.1236V9.75075C34.1236 8.62849 33.2147 7.7196 32.0924 7.7196Z" fill="white"/>
<path d="M17.1626 38.1869C17.2307 38.515 17.2652 38.8542 17.2652 39.2026C17.2652 42.0066 14.9913 44.2805 12.1873 44.2805C9.38326 44.2805 7.10938 42.0066 7.10938 39.2026C7.10938 38.8542 7.14391 38.515 7.21195 38.1869C7.68219 35.8694 9.73162 34.1246 12.1873 34.1246C14.643 34.1246 16.6924 35.8694 17.1626 38.1869Z" fill="white"/>
<path d="M5.07792 30.0623H1.01562V34.1246H5.07792V30.0623Z" fill="white"/>
<path d="M11.1719 14.8286C11.7325 14.8286 12.1875 14.3736 12.1875 13.813C12.1875 13.2524 11.7325 12.7974 11.1719 12.7974C10.6113 12.7974 10.1562 13.2524 10.1562 13.813C10.1564 14.3736 10.6114 14.8286 11.1719 14.8286Z" fill="#222222"/>
<path d="M47.8283 21.4836L46.3588 18.5444C45.8392 17.5053 44.7951 16.8598 43.6336 16.8598H35.1392V9.75075C35.1392 8.07081 33.7725 6.70398 32.0924 6.70398H3.04677C1.36673 6.70398 0 8.07071 0 9.75075V36.1559C0 37.8358 1.36673 39.2027 3.04677 39.2027H6.09355C6.09355 40.7621 6.68312 42.1861 7.65009 43.265H1.01562C0.454695 43.265 0 43.7198 0 44.2806C0 44.8414 0.454695 45.2962 1.01562 45.2962H50.9823C51.5433 45.2962 51.998 44.8414 51.998 44.2806C51.998 43.7198 51.5433 43.265 50.9823 43.265H48.4102C49.3773 42.186 49.9667 40.7621 49.9667 39.2027C49.9667 39.1448 49.964 39.0872 49.9624 39.0294C51.1467 38.6114 51.9979 37.4815 51.9979 36.1559V30.5417C51.9979 29.3566 52.2326 30.463 47.8283 21.4836ZM46.2923 22.9533L49.3391 29.0468H39.2015V22.9533H46.2923ZM39.3363 43.265H16.7239C17.691 42.186 18.2804 40.7621 18.2804 39.2027C19.0602 39.2027 37.4476 39.2027 37.7796 39.2027C37.7797 40.7621 38.3692 42.1861 39.3363 43.265ZM2.03115 31.078H4.0623V33.1091H2.03115V31.078ZM3.04677 37.1715C2.48676 37.1715 2.03115 36.7159 2.03115 36.1559V35.1403H5.07792C5.63885 35.1403 6.09355 34.6855 6.09355 34.1246V30.0623C6.09355 29.5015 5.63885 29.0467 5.07792 29.0467H2.03115V9.75075C2.03115 9.19074 2.48676 8.73513 3.04677 8.73513H32.0924C32.6524 8.73513 33.1081 9.19074 33.1081 9.75075C33.1081 10.5063 33.1081 34.7359 33.1081 37.1715H17.9317C17.0835 34.7748 14.788 33.1092 12.187 33.1092C9.58486 33.1092 7.28843 34.7762 6.4418 37.1715H3.04677ZM8.1247 39.2027C8.1247 38.926 8.15212 38.6537 8.20696 38.3889C8.58894 36.5066 10.2628 35.1403 12.187 35.1403C14.1112 35.1403 15.7851 36.5065 16.167 38.3889C16.1673 38.3905 16.1676 38.3918 16.1679 38.3932C16.222 38.6536 16.2493 38.926 16.2493 39.2027C16.2493 41.4426 14.427 43.265 12.187 43.265C9.94703 43.265 8.1247 41.4425 8.1247 39.2027ZM39.8109 39.2027C39.8109 38.926 39.8383 38.6537 39.8931 38.3889C40.2751 36.5066 41.949 35.1403 43.8732 35.1403C45.7974 35.1403 47.4713 36.5065 47.8532 38.3889C47.8535 38.3905 47.8538 38.3918 47.8541 38.3932C47.9081 38.6536 47.9355 38.926 47.9355 39.2027C47.9355 41.4426 46.1131 43.265 43.8732 43.265C41.6332 43.265 39.8109 41.4425 39.8109 39.2027ZM49.5458 36.9774C48.6449 34.6853 46.4034 33.1092 43.8732 33.1092C41.271 33.1092 38.9746 34.7762 38.128 37.1715H35.1391V18.891H43.6335C44.0206 18.891 44.3687 19.1063 44.542 19.4527L45.2767 20.9221H38.186C37.625 20.9221 37.1703 21.3769 37.1703 21.9377V30.0624C37.1703 30.6233 37.625 31.0781 38.186 31.0781H49.9667V36.156C49.9667 36.4937 49.8003 36.7926 49.5458 36.9774Z" fill="#222222"/>
<path d="M15.2344 14.8286H28.0307C28.5917 14.8286 29.0464 14.3738 29.0464 13.813C29.0464 13.2522 28.5917 12.7974 28.0307 12.7974H15.2344C14.6734 12.7974 14.2188 13.2522 14.2188 13.813C14.2188 14.3738 14.6734 14.8286 15.2344 14.8286Z" fill="#222222"/>
<path d="M28.0308 16.8597H19.2969C18.7359 16.8597 18.2812 17.3145 18.2812 17.8754C18.2812 18.4362 18.7359 18.891 19.2969 18.891H28.0308C28.5918 18.891 29.0465 18.4362 29.0465 17.8754C29.0465 17.3145 28.5917 16.8597 28.0308 16.8597Z" fill="#222222"/>
<path d="M43.8749 37.1715C42.7549 37.1715 41.8438 38.0827 41.8438 39.2027C41.8438 40.3226 42.755 41.2338 43.8749 41.2338C44.9949 41.2338 45.906 40.3226 45.906 39.2027C45.906 38.0827 44.9949 37.1715 43.8749 37.1715Z" fill="#222222"/>
<path d="M12.1874 37.1715C11.0674 37.1715 10.1562 38.0827 10.1562 39.2027C10.1562 40.3226 11.0675 41.2338 12.1874 41.2338C13.3073 41.2338 14.2185 40.3226 14.2185 39.2027C14.2185 38.0827 13.3074 37.1715 12.1874 37.1715Z" fill="#222222"/>
</g>
<defs>
<clipPath id="clip0_19_9884">
<rect width="52" height="52" fill="white"/>
</clipPath>
</defs>
</svg>
