<svg width="52" height="52" viewBox="0 0 52 52" fill="none" xmlns="http://www.w3.org/2000/svg">
<g clip-path="url(#clip0_19_9906)">
<path d="M41.8404 16.8424C37.5138 12.7791 32.1842 10.7188 25.9998 10.7188C19.8154 10.7188 14.486 12.7791 10.1592 16.8424C6.88762 19.9151 5.42787 23.5584 5.41355 23.5895L1.01562 21.1014C1.08824 20.9393 2.83947 17.0895 6.79774 13.3012C10.4206 9.83384 16.6928 5.70068 25.9998 5.70068C35.3068 5.70068 41.579 9.83384 45.2019 13.3012C49.1601 17.0896 50.9114 20.9394 50.984 21.1014L46.5031 23.5828C46.5032 23.5827 45.112 19.915 41.8404 16.8424Z" fill="#7BBE47"/>
<path d="M30.4341 11.0971C34.762 11.8621 38.5856 13.7851 41.8408 16.8428C45.1123 19.9145 46.5038 23.5827 46.5038 23.5827V46.2994H5.41406V23.5896C5.42879 23.5583 6.88874 19.9146 10.1603 16.8429C13.4078 13.7924 17.2209 11.871 21.5365 11.1024C21.5365 11.1024 23.4679 10.7189 26.0006 10.7189C28.5334 10.7189 30.4341 11.0971 30.4341 11.0971Z" fill="white"/>
<path d="M14.3164 26.4861H37.6815V31.1518H14.3164V26.4861Z" fill="#7BBE47"/>
<path d="M16.5312 31.1519H35.4723V46.2994H16.5312V31.1519Z" fill="#7BBE47"/>
<path d="M51.911 20.6859C51.835 20.5165 50.0037 16.4908 45.9043 12.5674C42.147 8.97147 35.6438 4.68506 26.0001 4.68506C16.3564 4.68506 9.85308 8.97147 6.0957 12.5674C1.99454 16.4924 0.164905 20.5167 0.0889368 20.6861C-0.125358 21.1644 0.0594839 21.7272 0.515699 21.9853L4.39779 24.1815V46.2993C4.39779 46.8601 4.85259 47.3149 5.41341 47.3149H46.5031C47.064 47.3149 47.5188 46.8601 47.5188 46.2993V24.1811L51.4762 21.9898C51.9379 21.7342 52.1269 21.1675 51.911 20.6859ZM17.545 37.2687H34.4548V40.3388H17.545V37.2687ZM15.3329 30.1361V27.5017H36.6669V30.1361H15.3329ZM34.4548 32.1674V35.2375H17.545V32.1674H34.4548ZM17.545 45.2837V42.37H34.4548V45.2837H17.545ZM46.9783 22.1588C43.8521 15.7837 37.5712 11.3272 30.6102 10.0971C30.0579 9.99988 29.5309 10.3681 29.4333 10.9204C29.3388 11.4551 29.7041 11.9997 30.2566 12.0973C36.7786 13.25 42.8655 17.6066 45.4875 23.7823V45.2837H36.4859V32.1674H37.6823C38.2431 32.1674 38.6979 31.7126 38.6979 31.1517V26.4861C38.6979 25.9253 38.2431 25.4705 37.6823 25.4705H14.3173C13.7565 25.4705 13.3017 25.9253 13.3017 26.4861V31.1517C13.3017 31.7126 13.7565 32.1674 14.3173 32.1674H15.5137V45.2836H6.42913V23.7993C9.15119 17.6497 15.1508 13.2711 21.714 12.1022C22.2663 12.0039 22.6342 11.4765 22.5358 10.9243C22.4498 10.441 22.0327 10.0376 21.5628 10.087C14.5065 10.8304 7.9359 16.1292 4.95791 22.1644L2.35843 20.6939C3.06855 19.3832 4.71172 16.7036 7.5002 14.0348C10.9889 10.6961 17.0303 6.71619 26.0001 6.71619C34.9698 6.71619 41.0113 10.6961 44.4999 14.0348C47.2818 16.6974 48.9245 19.3723 49.6373 20.6862L46.9783 22.1588Z" fill="#222222"/>
<path d="M26.9374 10.3301C26.589 9.49308 25.3503 9.51847 25.0436 10.3769C24.7343 11.243 25.6979 12.0546 26.5001 11.6017C26.9422 11.3521 27.1295 10.7983 26.9374 10.3301Z" fill="#222222"/>
</g>
<defs>
<clipPath id="clip0_19_9906">
<rect width="52" height="52" fill="white"/>
</clipPath>
</defs>
</svg>
