<svg width="206" height="660" viewBox="0 0 206 660" fill="none" xmlns="http://www.w3.org/2000/svg">
<g clip-path="url(#clip0_45_3214)">
<path d="M149.973 516.602C148.961 516.143 126.165 506.583 99.4154 495.552L50.6049 475.421L50.6049 484.429L50.6049 493.438L65.1285 499.229L79.5603 505.112L79.5603 524.783L79.5603 544.546L65.1285 550.062L50.6049 555.669L50.6049 564.953L50.6049 574.237L100.335 553.831C127.727 542.616 150.432 532.78 150.892 532.137C151.351 531.402 151.719 527.909 151.719 524.232C151.719 518.624 151.443 517.429 149.973 516.602ZM112.193 531.677C103.644 534.987 96.382 537.744 96.1062 537.744C95.8305 537.744 95.6466 531.953 95.6466 524.875C95.6466 517.797 95.9224 512.006 96.2901 512.006C97.7608 512.006 127.819 524.324 127.819 524.875C127.819 525.243 120.833 528.276 112.193 531.677Z" fill="#F3F3F5"/>
<path d="M149.421 49.9141C145.468 35.6662 137.379 27.8528 125.521 26.9336C118.443 26.2901 113.112 28.4962 108.056 34.1954C103.46 39.2511 100.794 45.5937 97.3932 59.5659C92.7971 78.9614 89.6717 83.1898 80.1118 83.1898C75.7915 83.1898 74.2288 82.7302 71.5631 80.7079C65.1285 75.8361 62.0032 64.2539 64.3932 54.4183C65.8639 48.2595 71.2873 41.8249 76.0673 40.7219L79.5603 39.8946L79.8361 31.4378L80.1118 22.9809L76.9865 22.9809C72.4823 22.9809 63.1063 27.9447 59.7971 32.1731C53.6383 39.9865 50.6049 49.9141 50.6049 62.4155C50.6968 84.4767 61.6355 100.012 78.5491 101.758C85.9948 102.493 91.2344 100.747 96.9336 95.5074C103.092 89.9001 106.769 82.0868 109.803 67.9308C113.663 49.8222 116.789 45.0422 124.418 45.0422C132.875 45.0422 138.207 52.2121 138.207 63.4266C138.207 71.4238 135.265 77.123 129.75 79.6968L126.165 81.3514L125.797 89.4405C125.613 93.8528 125.613 97.8054 125.797 98.2651C126.165 99.46 133.243 97.6216 136.736 95.5074C141.24 92.7497 145.928 86.6829 148.134 80.9837C150.8 74.2734 151.443 57.084 149.421 49.9141Z" fill="#F3F3F5"/>
<path d="M100.702 117.661L50.6049 117.661L50.6049 125.474L50.6049 133.287L72.2065 133.287L93.8082 133.287L93.8082 155.349L93.8082 177.41L72.2065 177.41L50.6049 177.41L50.6049 184.764L50.6049 192.117L100.702 192.117L150.8 192.117L150.8 184.764L150.8 177.41L129.474 177.226L108.056 176.95L107.872 155.165L107.78 133.287L129.29 133.287L150.8 133.287L150.8 125.474L150.8 117.661L100.702 117.661Z" fill="#F3F3F5"/>
<path d="M146.939 236.332C138.942 232.839 53.73 194.599 52.1674 193.772C50.6966 193.037 50.6047 193.772 50.7885 206.549L51.0643 220.154L76.3429 231.46C90.2231 237.619 111.365 247.087 123.223 252.51C135.081 257.842 146.204 262.805 147.858 263.449L150.8 264.736L150.8 251.407L150.8 237.987L146.939 236.332Z" fill="#F3F3F5"/>
<path d="M100.702 265.655L50.6049 265.655L50.6049 273.652L50.6049 281.558L89.9475 281.006C121.385 280.454 128.922 280.546 127.727 281.558C126.9 282.109 109.251 294.886 88.4767 309.778L50.6049 336.895L50.6049 344.524L50.6049 352.062L100.702 352.062L150.892 352.062L150.616 344.524L150.34 336.895L112.652 337.262C85.9029 337.446 75.24 337.262 75.8834 336.527C76.4349 335.975 93.4405 323.566 113.571 308.95L150.34 282.477L150.616 274.02L150.892 265.655L100.702 265.655Z" fill="#F3F3F5"/>
<path d="M144.365 356.658L137.93 356.658L137.93 382.856L137.93 409.053L144.365 409.053L150.799 409.053L150.799 382.856L150.799 356.658L144.365 356.658Z" fill="#F3F3F5"/>
<path d="M143.998 414.569L137.195 414.569L136.828 429.552C136.552 443.248 136.368 444.811 134.162 449.591C130.761 456.761 127.176 459.151 119.822 459.151C106.493 459.151 100.519 448.856 99.6912 424.221C99.5074 417.694 99.0478 412.363 98.772 412.455C98.5881 412.546 87.6494 421.922 74.5046 433.137L50.6049 453.636L50.6049 464.023C50.6049 473.858 50.6968 474.318 52.2595 473.215C53.1787 472.572 61.4517 465.585 70.7358 457.772C79.928 449.959 87.8333 443.432 88.2929 443.248C88.6606 443.065 89.304 444.719 89.6717 446.925C91.5101 457.68 97.6689 466.964 105.666 471.009C119.087 477.719 132.14 475.881 141.056 465.953C148.318 457.864 150.8 448.028 150.8 427.254L150.8 414.569L143.998 414.569Z" fill="#F3F3F5"/>
<path d="M143.262 564.677C139.034 566.975 125.337 574.237 112.836 580.856L90.0394 592.897L70.2762 592.897L50.6049 592.897L50.6049 600.711L50.6049 608.524L69.8166 608.524L88.9363 608.524L119.454 624.611C136.276 633.435 150.248 640.697 150.432 640.697C150.708 640.697 150.708 636.928 150.616 632.332L150.34 623.967L129.014 613.212C117.248 607.329 107.229 602.09 106.677 601.538C106.034 600.895 112.928 596.942 128.279 589.129L150.8 577.73L150.8 569.182L150.8 560.633L143.262 564.677Z" fill="#F3F3F5"/>
<path d="M101.162 356.658L94.7272 356.658L94.7272 382.856L94.7272 409.145L100.978 408.87L107.137 408.594L107.412 382.672L107.596 356.658L101.162 356.658Z" fill="#F3F3F5"/>
<path d="M57.499 356.658L50.6049 356.658L50.6049 382.856L50.6049 409.145L57.3152 408.87L63.9335 408.594L64.2093 382.672L64.3932 356.658L57.499 356.658Z" fill="#F3F3F5"/>
</g>
<defs>
<clipPath id="clip0_45_3214">
<rect width="660" height="205.905" fill="white" transform="translate(205.951) rotate(90)"/>
</clipPath>
</defs>
</svg>
