<svg width="435" height="655" viewBox="0 0 435 655" fill="none" xmlns="http://www.w3.org/2000/svg">
<g clip-path="url(#clip0_122_9997)">
<path d="M653 2.48106L654 2.48106L654 7.44318L653 7.44318L653 12.4053L654 12.4053L654 17.3674L653 17.3674L653 22.3295L654 22.3295L654 27.2917L653 27.2917L653 32.2538L654 32.2538L654 37.2159L653 37.2159L653 42.178L654 42.178L654 47.1401L653 47.1401L653 52.1023L654 52.1023L654 57.0644L653 57.0644L653 62.0265L654 62.0265L654 66.9886L653 66.9886L653 71.9507L654 71.9507L654 76.9129L653 76.9129L653 81.875L654 81.875L654 86.8371L653 86.8371L653 91.7992L654 91.7992L654 96.7614L653 96.7614L653 101.723L654 101.723L654 106.686L653 106.686L653 111.648L654 111.648L654 116.61L653 116.61L653 121.572L654 121.572L654 126.534L653 126.534L653 131.496L654 131.496L654 136.458L653 136.458L653 141.42L654 141.42L654 146.383L653 146.383L653 151.345L654 151.345L654 156.307L653 156.307L653 161.269L654 161.269L654 166.231L653 166.231L653 171.193L654 171.193L654 176.155L653 176.155L653 181.117L654 181.117L654 186.08L653 186.08L653 191.042L654 191.042L654 196.004L653 196.004L653 200.966L654 200.966L654 205.928L653 205.928L653 210.89L654 210.89L654 215.852L653 215.852L653 220.814L654 220.814L654 225.777L653 225.777L653 230.739L654 230.739L654 235.701L653 235.701L653 240.663L654 240.663L654 245.625L653 245.625L653 250.587L654 250.587L654 255.549L653 255.549L653 260.512L654 260.512L654 265.474L653 265.474L653 270.436L654 270.436L654 275.398L653 275.398L653 280.36L654 280.36L654 285.322L653 285.322L653 290.284L654 290.284L654 295.246L653 295.246L653 300.209L654 300.209L654 305.171L653 305.171L653 310.133L654 310.133L654 315.095L653 315.095L653 320.057L654 320.057L654 325.019L653 325.019L653 329.981L654 329.981L654 334.943L653 334.943L653 339.906L654 339.906L654 344.868L653 344.868L653 349.83L654 349.83L654 354.792L653 354.792L653 359.754L654 359.754L654 364.716L653 364.716L653 369.678L654 369.678L654 374.64L653 374.64L653 379.603L654 379.603L654 384.565L653 384.565L653 389.527L654 389.527L654 394.489L653 394.489L653 399.451L654 399.451L654 404.413L653 404.413L653 409.375L654 409.375L654 414.337L653 414.337L653 419.3L654 419.3L654 424.262L653 424.262L653 429.224L654 429.224L654 434.186L653 434.186L653 439.148L654 439.148L654 444.11L653 444.11L653 449.072L654 449.072L654 454.034L653 454.034L653 458.997L654 458.997L654 463.959L653 463.959L653 468.921L654 468.921L654 473.883L653 473.883L653 478.845L654 478.845L654 483.807L653 483.807L653 488.769L654 488.769L654 493.731L653 493.731L653 498.694L654 498.694L654 503.656L653 503.656L653 508.618L654 508.618L654 513.58L653 513.58L653 518.542L654 518.542L654 523.504L653 523.504L653 528.466L654 528.466L654 533.428L653 533.428L653 538.391L654 538.391L654 543.353L653 543.353L653 548.315L654 548.315L654 553.277L653 553.277L653 558.239L654 558.239L654 563.201L653 563.201L653 568.163L654 568.163L654 573.125L653 573.125L653 578.087L654 578.087L654 583.049L653 583.049L653 588.011L654 588.011L654 592.974L653 592.974L653 597.936L654 597.936L654 602.898L653 602.898L653 607.86L654 607.86L654 612.822L653 612.822L653 617.784L654 617.784L654 622.746L653 622.746L653 627.708L654 627.708L654 632.67L653 632.67L653 637.632L654 637.632L654 642.595L653 642.595L653 647.557L654 647.557L654 652.519L653 652.519L653 654L651.485 654L651.485 655L646.454 655L646.454 654L641.423 654L641.423 655L636.392 655L636.392 654L631.362 654L631.362 655L626.331 655L626.331 654L621.3 654L621.3 655L616.269 655L616.269 654L611.238 654L611.238 655L606.208 655L606.208 654L601.177 654L601.177 655L596.146 655L596.146 654L591.115 654L591.115 655L586.085 655L586.085 654L581.054 654L581.054 655L576.023 655L576.023 654L570.992 654L570.992 655L565.962 655L565.962 654L560.931 654L560.931 655L555.9 655L555.9 654L550.869 654L550.869 655L545.838 655L545.838 654L540.808 654L540.808 655L535.777 655L535.777 654L530.746 654L530.746 655L525.715 655L525.715 654L520.685 654L520.685 655L515.654 655L515.654 654L510.623 654L510.623 655L505.592 655L505.592 654L500.562 654L500.562 655L495.531 655L495.531 654L490.5 654L490.5 655L485.469 655L485.469 654L480.438 654L480.438 655L475.408 655L475.408 654L470.377 654L470.377 655L465.346 655L465.346 654L460.315 654L460.315 655L455.285 655L455.285 654L450.254 654L450.254 655L445.223 655L445.223 654L440.192 654L440.192 655L435.162 655L435.162 654L430.131 654L430.131 655L425.1 655L425.1 654L420.069 654L420.069 655L415.039 655L415.039 654L410.008 654L410.008 655L404.977 655L404.977 654L399.946 654L399.946 655L394.916 655L394.916 654L389.885 654L389.885 655L384.854 655L384.854 654L379.823 654L379.823 655L374.792 655L374.792 654L369.762 654L369.762 655L364.731 655L364.731 654L359.7 654L359.7 655L354.669 655L354.669 654L349.639 654L349.639 655L344.608 655L344.608 654L339.577 654L339.577 655L334.546 655L334.546 654L329.516 654L329.516 655L324.485 655L324.485 654L319.454 654L319.454 655L314.423 655L314.423 654L309.393 654L309.393 655L304.362 655L304.362 654L299.331 654L299.331 655L294.3 655L294.3 654L289.27 654L289.27 655L284.239 655L284.239 654L279.208 654L279.208 655L274.177 655L274.177 654L269.146 654L269.146 655L264.116 655L264.116 654L259.085 654L259.085 655L254.054 655L254.054 654L249.023 654L249.023 655L243.993 655L243.993 654L238.962 654L238.962 655L233.931 655L233.931 654L228.9 654L228.9 655L223.87 655L223.87 654L218.839 654L218.839 655L213.808 655L213.808 654L208.777 654L208.777 655L203.747 655L203.747 654L198.716 654L198.716 655L193.685 655L193.685 654L188.654 654L188.654 655L183.624 655L183.624 654L178.593 654L178.593 655L173.562 655L173.562 654L168.531 654L168.531 655L163.5 655L163.5 654L158.47 654L158.47 655L153.439 655L153.439 654L148.408 654L148.408 655L143.377 655L143.377 654L138.347 654L138.347 655L133.316 655L133.316 654L128.285 654L128.285 655L123.254 655L123.254 654L118.224 654L118.224 655L113.193 655L113.193 654L108.162 654L108.162 655L103.131 655L103.131 654L98.1006 654L98.1006 655L93.0698 655L93.0698 654L88.039 654L88.039 655L83.0083 655L83.0083 654L77.9775 654L77.9775 655L72.9467 655L72.9467 654L67.916 654L67.916 655L62.8852 655L62.8852 654L57.8545 654L57.8545 655L52.8237 655L52.8237 654L47.7929 654L47.7929 655L42.7622 655L42.7622 654L37.7314 654L37.7314 655L32.7007 655L32.7007 654L27.6699 654L27.6699 655L22.6391 655L22.6391 654L17.6084 654L17.6084 655L12.5776 655L12.5776 654L7.54685 654L7.54685 655L2.51608 655L2.51608 654L2.41153 654L2.46567 653.946L1.75803 653.239L5.27414 649.718L5.98178 650.424L9.49796 646.903L8.79032 646.196L12.3064 642.675L13.0141 643.381L16.5302 639.86L15.8225 639.153L19.3387 635.632L20.0464 636.338L23.5625 632.817L22.8548 632.11L26.3709 628.589L27.0786 629.295L30.5947 625.774L29.8871 625.067L33.4032 621.546L34.1109 622.252L37.627 618.731L36.9193 618.024L40.4355 614.503L41.1431 615.209L44.6592 611.688L43.9516 610.981L47.4677 607.46L48.1754 608.166L51.6915 604.645L50.9839 603.938L54.5 600.417L55.2076 601.123L58.7237 597.602L58.0161 596.895L61.5323 593.374L62.2399 594.08L65.756 590.559L65.0484 589.852L68.5645 586.331L69.2721 587.037L72.7883 583.516L72.0807 582.809L75.5968 579.288L76.3044 579.994L79.8205 576.473L79.1129 575.766L82.629 572.245L83.3367 572.951L86.8528 569.43L86.1452 568.723L89.6613 565.202L90.3689 565.908L93.885 562.387L93.1774 561.68L96.6936 558.159L97.4012 558.865L100.917 555.344L100.21 554.637L103.726 551.116L104.433 551.822L107.95 548.301L107.242 547.594L110.758 544.072L111.466 544.779L114.982 541.258L114.274 540.551L117.79 537.03L118.498 537.736L122.014 534.215L121.306 533.508L124.823 529.986L125.53 530.693L129.046 527.172L128.339 526.465L131.855 522.943L132.563 523.65L136.079 520.129L135.371 519.422L138.887 515.9L139.595 516.607L143.111 513.085L142.403 512.379L145.919 508.857L146.627 509.564L150.143 506.042L149.436 505.336L152.952 501.814L153.659 502.521L157.175 498.999L156.468 498.293L159.984 494.771L160.692 495.478L164.208 491.956L163.5 491.25L167.016 487.728L167.724 488.435L171.24 484.913L170.532 484.207L174.048 480.685L174.756 481.392L178.272 477.87L177.565 477.164L181.081 473.642L181.788 474.349L185.304 470.827L184.597 470.121L188.113 466.599L188.821 467.306L192.337 463.784L191.629 463.078L195.145 459.556L195.853 460.263L199.369 456.741L198.661 456.035L202.177 452.513L202.885 453.22L206.401 449.698L205.694 448.992L209.21 445.47L209.917 446.177L213.433 442.655L212.726 441.949L216.242 438.427L216.95 439.134L220.466 435.612L219.758 434.906L223.274 431.384L223.982 432.091L227.498 428.569L226.79 427.863L230.306 424.341L231.014 425.048L234.53 421.526L233.823 420.82L237.339 417.298L238.046 418.005L241.562 414.483L240.855 413.777L244.371 410.255L245.079 410.962L248.595 407.44L247.887 406.734L251.403 403.212L252.111 403.919L255.627 400.398L254.919 399.691L258.435 396.169L259.143 396.876L262.659 393.355L261.951 392.648L265.468 389.126L266.175 389.833L269.691 386.312L268.984 385.605L272.5 382.083L273.208 382.79L276.724 379.269L276.016 378.562L279.532 375.04L280.24 375.747L283.756 372.226L283.048 371.519L286.564 367.997L287.272 368.704L290.788 365.183L290.08 364.476L293.597 360.954L294.304 361.661L297.82 358.14L297.113 357.433L300.629 353.911L301.336 354.618L304.853 351.097L304.145 350.39L307.661 346.868L308.369 347.575L311.885 344.054L311.177 343.347L314.693 339.825L315.401 340.532L318.917 337.011L318.209 336.304L321.726 332.782L322.433 333.489L325.949 329.968L325.242 329.261L328.758 325.739L329.465 326.446L332.982 322.925L332.274 322.218L335.79 318.697L336.498 319.403L340.014 315.882L339.306 315.175L342.822 311.653L343.53 312.36L347.046 308.839L346.338 308.132L349.855 304.61L350.562 305.317L354.078 301.796L353.371 301.089L356.887 297.567L357.594 298.274L361.111 294.753L360.403 294.046L363.919 290.524L364.627 291.231L368.143 287.71L367.435 287.003L370.951 283.481L371.659 284.188L375.175 280.667L374.467 279.96L377.984 276.438L378.691 277.145L382.207 273.623L381.5 272.917L385.016 269.395L385.723 270.102L389.24 266.58L388.532 265.874L392.048 262.352L392.756 263.059L396.272 259.537L395.564 258.831L399.08 255.309L399.788 256.016L403.304 252.494L402.597 251.788L406.113 248.266L406.82 248.973L410.337 245.451L409.629 244.745L413.145 241.223L413.853 241.93L417.369 238.408L416.661 237.702L420.177 234.18L420.885 234.887L424.401 231.365L423.693 230.659L427.21 227.137L427.917 227.844L431.433 224.322L430.726 223.616L434.242 220.094L434.95 220.801L438.466 217.279L437.758 216.573L441.274 213.051L441.982 213.758L445.498 210.236L444.79 209.53L448.306 206.008L449.014 206.715L452.53 203.193L451.823 202.487L455.339 198.965L456.046 199.672L459.563 196.15L458.855 195.443L462.371 191.922L463.079 192.629L466.595 189.107L465.887 188.4L469.403 184.879L470.111 185.585L473.627 182.064L472.919 181.357L476.436 177.836L477.143 178.542L480.659 175.021L479.952 174.314L483.468 170.793L484.176 171.499L487.692 167.978L486.984 167.271L490.5 163.75L491.208 164.456L494.724 160.935L494.016 160.228L497.532 156.707L498.24 157.413L501.756 153.892L501.049 153.185L504.565 149.664L505.272 150.37L508.789 146.849L508.081 146.142L511.597 142.621L512.305 143.327L515.821 139.806L515.113 139.099L518.629 135.578L519.337 136.284L522.853 132.763L522.145 132.056L525.662 128.535L526.369 129.241L529.885 125.72L529.178 125.013L532.694 121.492L533.402 122.198L536.918 118.677L536.21 117.97L539.726 114.449L540.434 115.155L543.95 111.634L543.242 110.927L546.758 107.406L547.466 108.112L550.982 104.591L550.275 103.884L553.791 100.362L554.498 101.069L558.015 97.5475L557.307 96.8409L560.823 93.3194L561.531 94.026L565.047 90.5045L564.339 89.7979L567.855 86.2764L568.563 86.983L572.079 83.4615L571.371 82.7549L574.888 79.2334L575.595 79.9399L579.111 76.4184L578.404 75.7119L581.92 72.1903L582.628 72.8969L586.144 69.3754L585.436 68.6688L588.952 65.1473L589.66 65.8539L593.176 62.3323L592.468 61.6258L595.984 58.1043L596.692 58.8108L600.208 55.2893L599.501 54.5827L603.017 51.0612L603.724 51.7678L607.241 48.2463L606.533 47.5397L610.049 44.0182L610.757 44.7248L614.273 41.2032L613.565 40.4966L617.081 36.9751L617.789 37.6817L621.305 34.1602L620.597 33.4536L624.114 29.9321L624.821 30.6387L628.337 27.1172L627.63 26.4106L631.146 22.8891L631.854 23.5956L635.37 20.0741L634.662 19.3676L638.178 15.846L638.886 16.5526L642.402 13.0311L641.694 12.3245L645.21 8.80301L645.918 9.50958L649.434 5.98804L648.727 5.28147L652.243 1.75997L652.95 2.46654L653 2.41682L653 2.48106Z" stroke="#FDC300" stroke-width="2" stroke-dasharray="5 5"/>
</g>
<defs>
<clipPath id="clip0_122_9997">
<rect width="435" height="655" fill="white"/>
</clipPath>
</defs>
</svg>
