<svg width="1178" height="930" viewBox="0 0 1178 930" fill="none" xmlns="http://www.w3.org/2000/svg">
<g clip-path="url(#clip0_60_236)">
<mask id="mask0_60_236" style="mask-type:alpha" maskUnits="userSpaceOnUse" x="0" y="-177" width="1307" height="1107">
<rect y="-177" width="1307" height="1107" fill="white"/>
</mask>
<g mask="url(#mask0_60_236)">
<path d="M818.031 187.833L891.438 66.0027C892.341 64.364 892.344 62.3898 891.453 60.76C890.562 59.1302 888.9 58.0765 887.04 57.9601" stroke="#FDC300" stroke-width="2" stroke-dasharray="5 5"/>
<path d="M253.208 520.032L712 61" stroke="#FDC300" stroke-width="2" stroke-dasharray="5 5"/>
<path d="M806 167L818.026 187.503" stroke="#FDC300" stroke-width="2" stroke-dasharray="5 5"/>
<path d="M806.215 166.839L867 65" stroke="#FDC300" stroke-width="2" stroke-dasharray="5 5"/>
<path d="M806 4L866.827 64.7953" stroke="#FDC300" stroke-width="2" stroke-dasharray="5 5"/>
<path d="M888.594 24.5923C879.75 24.3699 872.472 31.097 872.004 39.9175C871.588 48.7464 878.152 56.3431 886.96 57.2328" stroke="#FDC300" stroke-width="2" stroke-dasharray="5 5"/>
<path d="M726 24L711.69 60.5961L742.057 60.2739" stroke="#FDC300" stroke-width="2" stroke-dasharray="5 5"/>
<path d="M726.515 23.5104L806.414 4.39764" stroke="#FDC300" stroke-width="2" stroke-dasharray="5 5"/>
<path d="M912.731 25.7246L888.689 24.3167" stroke="#FDC300" stroke-width="2" stroke-dasharray="5 5"/>
<path d="M913.052 24.951C919.707 25.2441 926.05 28.0458 930.805 32.7979L1427.96 529.691" stroke="#FDC300" stroke-width="2" stroke-dasharray="5 5"/>
<path d="M379.414 626.398L257.619 699.871C255.983 700.772 254.009 700.776 252.379 699.886C250.749 698.996 249.694 697.334 249.577 695.475" stroke="#FDC300" stroke-width="2" stroke-dasharray="5 5"/>
<path d="M216.8 696.397C216.573 687.553 223.296 680.272 232.116 679.8C240.944 679.379 248.547 685.936 249.439 694.746" stroke="#FDC300" stroke-width="2" stroke-dasharray="5 5"/>
<path d="M216.551 533.462L253.14 519.134L252.833 549.501" stroke="#FDC300" stroke-width="2" stroke-dasharray="5 5"/>
<path d="M358.759 614.244L379.268 626.259" stroke="#FDC300" stroke-width="2" stroke-dasharray="5 5"/>
<path d="M359.512 614.501L257.704 675.339" stroke="#FDC300" stroke-width="2" stroke-dasharray="5 5"/>
<path d="M197 614L257.827 674.795" stroke="#FDC300" stroke-width="2" stroke-dasharray="5 5"/>
<path d="M216 534L196.929 613.908" stroke="#FDC300" stroke-width="2" stroke-dasharray="5 5"/>
<path d="M218.421 721.041L217 697" stroke="#FDC300" stroke-width="2" stroke-dasharray="5 5"/>
<path d="M218 721C218.297 727.655 221.102 733.997 225.856 738.749L723.009 1235.64" stroke="#FDC300" stroke-width="2" stroke-dasharray="5 5"/>
<path d="M826 195L927.143 296.09" stroke="#FDC300" stroke-width="2" stroke-dasharray="5 5"/>
<path d="M1153.62 737.435L1254 637" stroke="#FDC300" stroke-width="2" stroke-dasharray="5 5"/>
<path d="M710.617 295.435L811 195" stroke="#FDC300" stroke-width="2" stroke-dasharray="5 5"/>
<path d="M349.022 607.985L261.327 555.682" stroke="#FDC300" stroke-width="2" stroke-dasharray="5 5"/>
<path d="M800.349 156.668L748 69" stroke="#FDC300" stroke-width="2" stroke-dasharray="5 5"/>
<path d="M602.617 403.435L703 303" stroke="#FDC300" stroke-width="2" stroke-dasharray="5 5"/>
<path d="M494.617 510.435L595 410" stroke="#FDC300" stroke-width="2" stroke-dasharray="5 5"/>
<path d="M1045.62 845.435L1146 745" stroke="#FDC300" stroke-width="2" stroke-dasharray="5 5"/>
<path d="M937.617 953.435L1038 853" stroke="#FDC300" stroke-width="2" stroke-dasharray="5 5"/>
<path d="M1153 521L1254.14 622.09" stroke="#FDC300" stroke-width="2" stroke-dasharray="5 5"/>
<path d="M1044 412L1145.14 513.09" stroke="#FDC300" stroke-width="2" stroke-dasharray="5 5"/>
<path d="M935 303L1036.14 404.09" stroke="#FDC300" stroke-width="2" stroke-dasharray="5 5"/>
<path d="M487 518L386.617 618.435" stroke="#FDC300" stroke-width="2" stroke-dasharray="5 5"/>
<path d="M387 634L488.143 735.09" stroke="#FDC300" stroke-width="2" stroke-dasharray="5 5"/>
<path d="M496 743L597.143 844.09" stroke="#FDC300" stroke-width="2" stroke-dasharray="5 5"/>
<path d="M605 851L706.143 952.09" stroke="#FDC300" stroke-width="2" stroke-dasharray="5 5"/>
</g>
</g>
<defs>
<clipPath id="clip0_60_236">
<rect width="1178" height="930" fill="white"/>
</clipPath>
</defs>
</svg>
