<svg width="184" height="92" viewBox="0 0 184 92" fill="none" xmlns="http://www.w3.org/2000/svg">
<path d="M26 24L48 45V24H26Z" fill="#FDC300"/>
<path d="M0 24L22 45V24H0Z" fill="#FDC300"/>
<path d="M47 1H25V22L47 1Z" fill="#FDC300"/>
<path d="M72 24H50V45L72 24Z" fill="#FDC300"/>
<path d="M26 48L48 69V48H26Z" fill="#FDC300"/>
<path d="M25 46H47L25 25V46Z" fill="#FDC300"/>
<path d="M25 86H27.4466L28.466 89.7021H28.534L29.5534 86H32L29.6893 92H27.2427L25 86Z" fill="#293C42"/>
<path d="M34.4679 88.1064L33.9541 89.5745H34.9174L34.4679 88.1064ZM33.4404 86H35.6239L38 92H35.8165L35.4954 91.1064H33.5688L33.2477 92H31L33.4404 86Z" fill="#293C42"/>
<path d="M39 86H41.1818L43.0227 89.0638L42.9545 86H45V92H42.8182L41.0455 89.1277H40.9773L41.1136 92H39V86Z" fill="#293C42"/>
<path d="M51.5455 92C51.0682 92 50.5909 91.9394 50.1136 91.8182C49.7045 91.697 49.2955 91.4546 49.0227 91.2121C48.6818 90.9697 48.4773 90.6061 48.2727 90.2424C48.0682 89.8788 48 89.4545 48 89.0303C48 88.5455 48.0682 88.1818 48.2727 87.8182C48.4773 87.4545 48.6818 87.1515 49.0227 86.8485C49.3636 86.6061 49.7045 86.3636 50.1136 86.2424C50.5227 86.1212 51 86 51.4773 86C51.9545 86 52.4318 86.0606 52.9091 86.2424C53.3864 86.3636 53.7273 86.6061 54 86.8485L52.7727 88.1818C52.6364 88.0606 52.5 87.9394 52.2955 87.8182C52.0909 87.7576 51.8864 87.697 51.6136 87.697C51.4091 87.697 51.2727 87.7576 51.0682 87.8182C50.9318 87.8788 50.7273 87.9394 50.6591 88.0606C50.5227 88.1818 50.4545 88.303 50.3182 88.4849C50.25 88.6667 50.1818 88.8485 50.1818 89.0303C50.1818 89.4545 50.3182 89.7576 50.5227 90C50.7273 90.2424 51.1364 90.3636 51.6136 90.3636C51.6818 90.3636 51.8182 90.3636 51.8864 90.3636C51.9545 90.3636 52.0909 90.303 52.0909 90.303V89.8788H51.0682V88.3636H54V91.4545C53.8636 91.5152 53.6591 91.6364 53.4545 91.697C53.25 91.7576 53.0455 91.8182 52.8409 91.8788C52.6364 91.9394 52.3636 91.9394 52.1591 92C52.0227 91.9394 51.75 92 51.5455 92Z" fill="#293C42"/>
<path d="M55 86H58.8806V87.6596H56.791V88.234H58.7612V89.766H56.791V90.3404H59V92H55V86Z" fill="#293C42"/>
<path d="M60 86H62.1818L64.0227 89.0638L63.9545 86H66V92H63.75L61.9773 89.1277L62.0455 92H60V86Z" fill="#293C42"/>
<path d="M67 86H70.8806V87.6596H68.791V88.234H70.7612V89.766H68.791V90.3404H71V92H67V86Z" fill="#293C42"/>
<path d="M72 89.0612C72 88.5714 72.0682 88.2041 72.2727 87.8367C72.4773 87.4694 72.6818 87.1633 73.0227 86.8571C73.3636 86.6123 73.7045 86.3674 74.1136 86.2449C74.5227 86.1225 75 86 75.4773 86C75.9545 86 76.4318 86.0612 76.9091 86.2449C77.3182 86.3674 77.7273 86.6123 78 86.8571L76.7045 88.2653C76.5682 88.1429 76.4318 88.0204 76.2273 87.9592C76.0227 87.898 75.8182 87.8367 75.6136 87.8367C75.4091 87.8367 75.2727 87.8367 75.1364 87.898C75 87.9592 74.8636 88.0204 74.7273 88.1429C74.5909 88.2653 74.5227 88.3878 74.4545 88.5102C74.3864 88.6939 74.3864 88.8163 74.3864 89C74.3864 89.1837 74.4545 89.3674 74.5227 89.4898C74.5909 89.6123 74.6591 89.7959 74.7955 89.8571C74.9318 89.9796 75.0682 90.0408 75.2045 90.102C75.3409 90.1633 75.5454 90.1633 75.6818 90.1633C75.9545 90.1633 76.1591 90.102 76.2955 90.0408C76.5 89.9184 76.6364 89.8571 76.7045 89.7347L78 91.1429C77.7273 91.3878 77.3864 91.6327 76.9091 91.7551C76.5 91.9388 76.0227 92 75.4773 92C75 92 74.5227 91.9388 74.1136 91.7551C73.7045 91.6327 73.2955 91.3878 73.0227 91.1429C72.6818 90.898 72.4773 90.5306 72.2727 90.1633C72.1364 89.9184 72 89.551 72 89.0612Z" fill="#293C42"/>
<path d="M81.8427 89.7021H80.1573V92H78V86H80.0899V88.0425H81.8427V86H84V92H81.8427V89.7021Z" fill="#293C42"/>
<path d="M88.4615 92H86.4744V87.7234H85V86H90V87.7234H88.4615V92Z" fill="#293C42"/>
<path d="M91 86H94.8806V87.6596H92.791V88.234H94.7612V89.766H92.791V90.3404H95V92H91V86Z" fill="#293C42"/>
<path d="M96 86H98.1818L100.023 89.0638L99.9545 86H102V92H99.8182L98.0455 89.1277H97.9773L98.0455 92H96V86Z" fill="#293C42"/>
<path d="M106.987 87.5957V88.5532H107.436C107.564 88.5532 107.756 88.4894 107.885 88.4255C108.013 88.3617 108.077 88.234 108.077 88.0425C108.077 87.9149 108.077 87.8511 108.013 87.7872C107.949 87.7234 107.949 87.6596 107.885 87.6596C107.821 87.6596 107.756 87.5957 107.692 87.5957C107.628 87.5957 107.564 87.5957 107.5 87.5957H106.987ZM106.987 90.0851V92H105V86H107.564C107.885 86 108.141 86.0638 108.462 86.1277C108.782 86.1915 109.038 86.3191 109.231 86.4468C109.487 86.5745 109.679 86.8298 109.808 87.0851C109.936 87.3404 110 87.6596 110 88.0425C110 88.4255 109.936 88.7447 109.808 89C109.679 89.2553 109.487 89.4468 109.231 89.6383C108.974 89.8298 108.718 89.8936 108.462 90.0213C108.141 90.0851 107.885 90.1489 107.564 90.1489H106.987V90.0851Z" fill="#293C42"/>
<path d="M113.402 88.1064L112.879 89.5745H113.86L113.402 88.1064ZM112.355 86H114.579L117 92H114.776L114.449 91.1064H112.486L112.159 92H110L112.355 86Z" fill="#293C42"/>
<path d="M117 89.0612C117 88.5714 117.068 88.2041 117.273 87.8367C117.477 87.4694 117.682 87.1633 118.023 86.8571C118.364 86.6123 118.705 86.3674 119.114 86.2449C119.523 86.1225 120 86 120.477 86C120.955 86 121.432 86.0612 121.909 86.2449C122.318 86.3674 122.727 86.6123 123 86.8571L121.705 88.2653C121.568 88.1429 121.432 88.0204 121.227 87.9592C121.023 87.898 120.818 87.8367 120.614 87.8367C120.409 87.8367 120.273 87.8367 120.136 87.898C120 87.9592 119.864 88.0204 119.727 88.1429C119.591 88.2653 119.523 88.3878 119.455 88.5102C119.386 88.6939 119.386 88.8163 119.386 89C119.386 89.1837 119.455 89.3674 119.523 89.4898C119.591 89.6123 119.659 89.7959 119.795 89.8571C119.932 89.9796 120.068 90.0408 120.205 90.102C120.341 90.1633 120.545 90.1633 120.682 90.1633C120.955 90.1633 121.159 90.102 121.295 90.0408C121.5 89.9184 121.636 89.8571 121.705 89.7347L123 91.1429C122.727 91.3878 122.386 91.6327 121.909 91.7551C121.5 91.9388 121.023 92 120.477 92C120 92 119.523 91.9388 119.114 91.7551C118.705 91.6327 118.295 91.3878 118.023 91.1429C117.682 90.898 117.477 90.5306 117.273 90.1633C117.136 89.9184 117 89.551 117 89.0612Z" fill="#293C42"/>
<path d="M124.958 89.6383V92H123V86H124.958V88.234L126.537 86H128.874L126.663 88.7447L129 92H126.537L124.958 89.6383Z" fill="#293C42"/>
<path d="M132.467 88.1064L131.944 89.5745H132.925L132.467 88.1064ZM131.355 86H133.579L136 92H133.776L133.449 91.1064H131.486L131.159 92H129L131.355 86Z" fill="#293C42"/>
<path d="M139.545 92C139.068 92 138.591 91.9394 138.114 91.8182C137.705 91.697 137.295 91.4546 137.023 91.2121C136.682 90.9697 136.477 90.6061 136.273 90.2424C136.068 89.8788 136 89.4545 136 89.0303C136 88.5455 136.068 88.1818 136.273 87.8182C136.477 87.4545 136.682 87.1515 137.023 86.8485C137.364 86.6061 137.705 86.3636 138.114 86.2424C138.523 86.1212 139 86 139.477 86C139.955 86 140.432 86.0606 140.909 86.2424C141.386 86.3636 141.727 86.6061 142 86.8485L140.773 88.1818C140.636 88.0606 140.5 87.9394 140.295 87.8182C140.091 87.7576 139.886 87.697 139.614 87.697C139.409 87.697 139.273 87.7576 139.068 87.8182C138.932 87.8788 138.727 87.9394 138.659 88.0606C138.523 88.1818 138.455 88.303 138.318 88.4849C138.25 88.6667 138.182 88.8485 138.182 89.0303C138.182 89.4545 138.318 89.7576 138.523 90C138.727 90.2424 139.136 90.3636 139.614 90.3636C139.682 90.3636 139.818 90.3636 139.886 90.3636C139.955 90.3636 140.091 90.303 140.091 90.303V89.8788H139.068V88.3636H142V91.4545C141.864 91.5152 141.659 91.6364 141.455 91.697C141.25 91.7576 141.045 91.8182 140.841 91.8788C140.636 91.9394 140.364 91.9394 140.159 92C140.023 91.9394 139.75 92 139.545 92Z" fill="#293C42"/>
<path d="M145 86H143V92H145V86Z" fill="#293C42"/>
<path d="M147 86H149.138L151 89.0638H151.069L150.931 86H153V92H150.793L149 89.1277H148.931L149.069 92H147V86Z" fill="#293C42"/>
<path d="M156.545 92C156.068 92 155.591 91.9394 155.114 91.8182C154.705 91.697 154.295 91.4546 154.023 91.2121C153.682 90.9697 153.477 90.6061 153.273 90.2424C153.068 89.8788 153 89.4545 153 89.0303C153 88.5455 153.068 88.1818 153.273 87.8182C153.477 87.4545 153.682 87.1515 154.023 86.8485C154.364 86.6061 154.705 86.3636 155.114 86.2424C155.523 86.1212 156 86 156.477 86C156.955 86 157.432 86.0606 157.909 86.2424C158.386 86.3636 158.727 86.6061 159 86.8485L157.773 88.1818C157.636 88.0606 157.5 87.9394 157.295 87.8182C157.091 87.7576 156.886 87.697 156.614 87.697C156.409 87.697 156.273 87.7576 156.068 87.8182C155.932 87.8788 155.727 87.9394 155.659 88.0606C155.523 88.1818 155.455 88.303 155.318 88.4849C155.25 88.6667 155.182 88.8485 155.182 89.0303C155.182 89.4545 155.318 89.7576 155.523 90C155.727 90.2424 156.136 90.3636 156.614 90.3636C156.682 90.3636 156.818 90.3636 156.886 90.3636C156.955 90.3636 157.091 90.303 157.091 90.303V89.8788H156.068V88.3636H159V91.4545C158.864 91.5152 158.659 91.6364 158.455 91.697C158.25 91.7576 158.045 91.8182 157.841 91.8788C157.636 91.9394 157.364 91.9394 157.159 92C157.023 91.9394 156.75 92 156.545 92Z" fill="#293C42"/>
<path d="M181.29 32.0468C180.172 30.0826 178.659 28.4986 176.818 27.2948C174.976 26.0909 172.872 25.2672 170.57 24.7603C168.202 24.2534 165.835 24 163.401 24H144V70H158.929V55.1736H163.467C165.966 55.1736 168.334 54.9201 170.702 54.3499C173.069 53.7796 175.174 52.8926 176.949 51.6253C178.791 50.3581 180.238 48.7741 181.356 46.7466C182.474 44.7824 183 42.3113 183 39.4601C182.934 36.4821 182.408 34.011 181.29 32.0468ZM165.572 42.5647C164.585 43.135 163.467 43.4518 162.218 43.4518H158.863V36.0386H162.218C162.809 36.0386 163.401 36.1019 163.993 36.2286C164.585 36.3554 165.111 36.5455 165.572 36.7989C166.032 37.0523 166.427 37.4325 166.69 37.876C166.953 38.3196 167.084 38.9532 167.084 39.6501C167.084 41.0441 166.624 41.9945 165.572 42.5647Z" fill="#293C42"/>
<path d="M120.336 40.698V52.7451H128.159V56.1961C127.758 56.3843 127.156 56.5726 126.421 56.698C125.685 56.8235 124.949 56.8863 124.281 56.8863C120.403 56.8863 117.594 55.8824 115.789 53.8745C114.051 51.8667 113.181 49.2941 113.181 46.0941C113.181 44.5255 113.449 43.0824 114.051 41.7647C114.652 40.4471 115.388 39.3804 116.391 38.4392C117.327 37.498 118.464 36.8078 119.734 36.3059C121.004 35.8039 122.275 35.5529 123.612 35.5529C125.618 35.5529 127.29 35.8667 128.694 36.5569C130.031 37.2471 131.235 38.1255 132.238 39.2549L141.799 28.5255C139.66 26.5176 136.851 24.949 133.441 23.7569C130.031 22.6275 126.421 22 122.676 22C118.999 22 115.588 22.5647 112.379 23.6941C110.306 24.4471 108.434 25.3882 106.762 26.5177L97 51.8667C97.3343 53.3098 97.8024 54.6902 98.4042 56.0078C99.7415 58.9569 101.681 61.4667 104.088 63.5373C106.495 65.6078 109.303 67.2392 112.579 68.3059C115.856 69.4353 119.4 70 123.211 70C125.016 70 126.889 69.8745 128.694 69.6235C130.499 69.3726 132.238 69.0588 133.909 68.6824C135.581 68.3059 137.186 67.8667 138.657 67.302C139.86 66.8627 140.997 66.3608 142 65.8588V40.698H120.336Z" fill="#293C42"/>
<path d="M87.678 24L80.1102 51.869H79.7782L72.3432 25.8L59 38.3379L70.6172 69H88.6073L106 24H87.678Z" fill="#293C42"/>
<path d="M159 78H25V80H159V78Z" fill="#FDC300"/>
</svg>
