<svg width="184" height="92" viewBox="0 0 184 92" fill="none" xmlns="http://www.w3.org/2000/svg">
<g clip-path="url(#clip0_60_67)">
<path d="M26.01 23.9375L48.3818 45.2497V23.9375H26.01Z" fill="#FDC300"/>
<path d="M0.461182 23.9375L22.8329 45.2497V23.9375H0.461182Z" fill="#FDC300"/>
<path d="M47.0578 0.796753H24.686V22.1089L47.0578 0.796753Z" fill="#FDC300"/>
<path d="M72.6066 23.9375H50.2349V45.2497L72.6066 23.9375Z" fill="#FDC300"/>
<path d="M26.01 48.2762L48.3818 69.5884V48.2762H26.01Z" fill="#FDC300"/>
<path d="M24.686 46.5107H47.0578L24.686 25.1985V46.5107Z" fill="#FDC300"/>
<path d="M24.686 85.8562H27.0688L28.0617 89.5133H28.1278L29.1207 85.8562H31.5035L29.2531 91.7833H26.8703L24.686 85.8562Z" fill="white"/>
<path d="M34.4819 87.937L33.9524 89.3872H34.9452L34.4819 87.937ZM33.4229 85.8562H35.6733L38.1223 91.7833H35.8719L35.5409 90.9005H33.5553L33.2243 91.7833H30.9077L33.4229 85.8562Z" fill="white"/>
<path d="M38.4534 85.8562H40.5714L42.3585 88.8828L42.2923 85.8562H44.278V91.7833H42.1599L40.439 88.9458H40.3728L40.5052 91.7833H38.4534V85.8562Z" fill="white"/>
<path d="M50.8305 91.9724C50.3672 91.9724 49.9038 91.9094 49.4405 91.7833C49.0434 91.6572 48.6463 91.4049 48.3815 91.1527C48.0506 90.9005 47.852 90.5222 47.6534 90.1439C47.4549 89.7655 47.3887 89.3242 47.3887 88.8828C47.3887 88.3784 47.4549 88 47.6534 87.6217C47.852 87.2434 48.0506 86.9281 48.3815 86.6129C48.7124 86.3606 49.0434 86.1084 49.4405 85.9823C49.8377 85.8562 50.301 85.7301 50.7643 85.7301C51.2276 85.7301 51.6909 85.7932 52.1543 85.9823C52.6176 86.1084 52.9485 86.3606 53.2133 86.6129L52.0219 88C51.8895 87.8739 51.7571 87.7478 51.5586 87.6217C51.36 87.5587 51.1614 87.4956 50.8967 87.4956C50.6981 87.4956 50.5657 87.5587 50.3672 87.6217C50.2348 87.6848 50.0362 87.7478 49.97 87.8739C49.8377 88 49.7715 88.1261 49.6391 88.3153C49.5729 88.5045 49.5067 88.6936 49.5067 88.8828C49.5067 89.3242 49.6391 89.6394 49.8376 89.8917C50.0362 90.1439 50.4333 90.27 50.8967 90.27C50.9629 90.27 51.0952 90.27 51.1614 90.27C51.2276 90.27 51.36 90.2069 51.36 90.2069V89.7655H50.3672V88.1892H53.2133V91.4049C53.0809 91.468 52.8823 91.5941 52.6838 91.6572C52.4852 91.7202 52.2866 91.7833 52.0881 91.8463C51.8895 91.9094 51.6247 91.9094 51.4262 91.9724C51.2938 91.9094 51.029 91.9724 50.8305 91.9724Z" fill="white"/>
<path d="M54.3386 85.8562H58.6409V87.4956H56.3243V88.0631H58.5085V89.5764H56.3243V90.1439H58.7733V91.7833H54.3386V85.8562Z" fill="white"/>
<path d="M59.6335 85.8562H61.7516L63.5387 88.8828L63.4725 85.8562H65.4581V91.7833H63.2739L61.553 88.9458L61.6192 91.7833H59.6335V85.8562Z" fill="white"/>
<path d="M66.5835 85.8562H70.8858V87.4956H68.5692V88.0631H70.7534V89.5764H68.5692V90.1439H71.0181V91.7833H66.5835V85.8562Z" fill="white"/>
<path d="M71.6138 88.8197C71.6138 88.3153 71.68 87.937 71.8785 87.5587C72.0771 87.1803 72.2757 86.8651 72.6066 86.5498C72.9375 86.2976 73.2685 86.0454 73.6656 85.9193C74.0628 85.7932 74.5261 85.6671 74.9894 85.6671C75.4527 85.6671 75.916 85.7301 76.3793 85.9193C76.7765 86.0454 77.1736 86.2976 77.4384 86.5498L76.1808 88C76.0484 87.8739 75.916 87.7478 75.7175 87.6848C75.5189 87.6217 75.3203 87.5587 75.1218 87.5587C74.9232 87.5587 74.7908 87.5587 74.6585 87.6217C74.5261 87.6848 74.3937 87.7478 74.2613 87.8739C74.1289 88 74.0628 88.1262 73.9966 88.2523C73.9304 88.4414 73.9304 88.5675 73.9304 88.7567C73.9304 88.9459 73.9966 89.135 74.0627 89.2611C74.1289 89.3872 74.1951 89.5764 74.3275 89.6394C74.4599 89.7655 74.5923 89.8286 74.7246 89.8917C74.857 89.9547 75.0556 89.9547 75.188 89.9547C75.4527 89.9547 75.6513 89.8917 75.7837 89.8286C75.9822 89.7025 76.1146 89.6394 76.1808 89.5133L77.4384 90.9636C77.1736 91.2158 76.8427 91.468 76.3793 91.5941C75.9822 91.7833 75.5189 91.8463 74.9894 91.8463C74.5261 91.8463 74.0628 91.7833 73.6656 91.5941C73.2685 91.468 72.8714 91.2158 72.6066 90.9636C72.2757 90.7114 72.0771 90.333 71.8785 89.9547C71.7461 89.7025 71.6138 89.3242 71.6138 88.8197Z" fill="white"/>
<path d="M81.8069 89.5133H80.1522V91.7833H78.0342V85.8562H80.086V87.8739H81.8069V85.8562H83.925V91.7833H81.8069V89.5133Z" fill="white"/>
<path d="M88.1609 91.7833H86.109V87.5587H84.5867V85.8562H89.7494V87.5587H88.1609V91.7833Z" fill="white"/>
<path d="M90.3452 85.8562H94.6475V87.4956H92.3309V88.0631H94.5151V89.5764H92.3309V90.1439H94.7799V91.7833H90.3452V85.8562Z" fill="white"/>
<path d="M95.6401 85.8562H97.7582L99.5453 88.8828L99.4791 85.8562H101.465V91.7833H99.3467L97.6258 88.9458H97.5596L97.6258 91.7833H95.6401V85.8562Z" fill="white"/>
<path d="M106.892 87.4325V88.3784H107.356C107.488 88.3784 107.687 88.3153 107.819 88.2522C107.951 88.1892 108.018 88.0631 108.018 87.8739C108.018 87.7478 108.018 87.6848 107.951 87.6217C107.885 87.5587 107.885 87.4956 107.819 87.4956C107.753 87.4956 107.687 87.4325 107.62 87.4325C107.554 87.4325 107.488 87.4325 107.422 87.4325H106.892ZM106.892 89.8916V91.7833H104.841V85.8562H107.488C107.819 85.8562 108.084 85.9193 108.415 85.9823C108.746 86.0454 109.01 86.1715 109.209 86.2976C109.474 86.4237 109.672 86.6759 109.805 86.9281C109.937 87.1803 110.003 87.4956 110.003 87.8739C110.003 88.2522 109.937 88.5675 109.805 88.8197C109.672 89.0719 109.474 89.2611 109.209 89.4503C108.944 89.6394 108.68 89.7025 108.415 89.8286C108.084 89.8916 107.819 89.9547 107.488 89.9547H106.892V89.8916Z" fill="white"/>
<path d="M113.114 87.937L112.585 89.3872H113.577L113.114 87.937ZM112.055 85.8562H114.306L116.755 91.7833H114.504L114.173 90.9005H112.188L111.857 91.7833H109.672L112.055 85.8562Z" fill="white"/>
<path d="M116.688 88.8197C116.688 88.3153 116.754 87.937 116.953 87.5587C117.152 87.1803 117.35 86.8651 117.681 86.5498C118.012 86.2976 118.343 86.0454 118.74 85.9193C119.137 85.7932 119.601 85.6671 120.064 85.6671C120.527 85.6671 120.99 85.7301 121.454 85.9193C121.851 86.0454 122.248 86.2976 122.513 86.5498L121.255 88C121.123 87.8739 120.99 87.7478 120.792 87.6848C120.593 87.6217 120.395 87.5587 120.196 87.5587C119.998 87.5587 119.865 87.5587 119.733 87.6217C119.601 87.6848 119.468 87.7478 119.336 87.8739C119.203 88 119.137 88.1262 119.071 88.2523C119.005 88.4414 119.005 88.5675 119.005 88.7567C119.005 88.9459 119.071 89.135 119.137 89.2611C119.203 89.3872 119.27 89.5764 119.402 89.6394C119.534 89.7655 119.667 89.8286 119.799 89.8917C119.931 89.9547 120.13 89.9547 120.262 89.9547C120.527 89.9547 120.726 89.8917 120.858 89.8286C121.057 89.7025 121.189 89.6394 121.255 89.5133L122.513 90.9636C122.248 91.2158 121.917 91.468 121.454 91.5941C121.057 91.7833 120.593 91.8463 120.064 91.8463C119.601 91.8463 119.137 91.7833 118.74 91.5941C118.343 91.468 117.946 91.2158 117.681 90.9636C117.35 90.7114 117.152 90.333 116.953 89.9547C116.821 89.7025 116.688 89.3242 116.688 88.8197Z" fill="white"/>
<path d="M125.16 89.4503V91.7833H123.109V85.8562H125.16V88.0631L126.815 85.8562H129.264L126.948 88.5675L129.397 91.7833H126.815L125.16 89.4503Z" fill="white"/>
<path d="M132.573 87.937L132.044 89.3872H133.037L132.573 87.937ZM131.448 85.8562H133.699L136.148 91.7833H133.897L133.566 90.9005H131.581L131.25 91.7833H129.065L131.448 85.8562Z" fill="white"/>
<path d="M139.59 91.9724C139.126 91.9724 138.663 91.9094 138.2 91.7833C137.802 91.6572 137.405 91.4049 137.141 91.1527C136.81 90.9005 136.611 90.5222 136.412 90.1439C136.214 89.7655 136.148 89.3242 136.148 88.8828C136.148 88.3784 136.214 88 136.412 87.6217C136.611 87.2434 136.81 86.9281 137.141 86.6129C137.471 86.3606 137.802 86.1084 138.2 85.9823C138.597 85.8562 139.06 85.7301 139.523 85.7301C139.987 85.7301 140.45 85.7932 140.913 85.9823C141.377 86.1084 141.708 86.3606 141.972 86.6129L140.781 88C140.649 87.8739 140.516 87.7478 140.318 87.6217C140.119 87.5587 139.92 87.4956 139.656 87.4956C139.457 87.4956 139.325 87.5587 139.126 87.6217C138.994 87.6848 138.795 87.7478 138.729 87.8739C138.597 88 138.53 88.1261 138.398 88.3153C138.332 88.5045 138.266 88.6936 138.266 88.8828C138.266 89.3242 138.398 89.6394 138.597 89.8917C138.795 90.1439 139.192 90.27 139.656 90.27C139.722 90.27 139.854 90.27 139.92 90.27C139.987 90.27 140.119 90.2069 140.119 90.2069V89.7655H139.126V88.1892H141.972V91.4049C141.84 91.468 141.641 91.5941 141.443 91.6572C141.244 91.7202 141.046 91.7833 140.847 91.8463C140.649 91.9094 140.384 91.9094 140.185 91.9724C140.053 91.9094 139.788 91.9724 139.59 91.9724Z" fill="white"/>
<path d="M145.215 85.8562H143.097V91.7833H145.215V85.8562Z" fill="white"/>
<path d="M146.407 85.8562H148.459L150.246 88.8828H150.312L150.18 85.8562H152.165V91.7833H150.047L148.326 88.9458H148.26L148.393 91.7833H146.407V85.8562Z" fill="white"/>
<path d="M156.534 91.9724C156.071 91.9724 155.607 91.9094 155.144 91.7833C154.747 91.6572 154.35 91.4049 154.085 91.1527C153.754 90.9005 153.555 90.5222 153.357 90.1439C153.158 89.7655 153.092 89.3242 153.092 88.8828C153.092 88.3784 153.158 88 153.357 87.6217C153.555 87.2434 153.754 86.9281 154.085 86.6129C154.416 86.3606 154.747 86.1084 155.144 85.9823C155.541 85.8562 156.004 85.7301 156.468 85.7301C156.931 85.7301 157.394 85.7932 157.858 85.9823C158.321 86.1084 158.652 86.3606 158.917 86.6129L157.725 88C157.593 87.8739 157.46 87.7478 157.262 87.6217C157.063 87.5587 156.865 87.4956 156.6 87.4956C156.401 87.4956 156.269 87.5587 156.071 87.6217C155.938 87.6848 155.74 87.7478 155.673 87.8739C155.541 88 155.475 88.1261 155.342 88.3153C155.276 88.5045 155.21 88.6936 155.21 88.8828C155.21 89.3242 155.342 89.6394 155.541 89.8917C155.74 90.1439 156.137 90.27 156.6 90.27C156.666 90.27 156.799 90.27 156.865 90.27C156.931 90.27 157.063 90.2069 157.063 90.2069V89.7655H156.071V88.1892H158.917V91.4049C158.784 91.468 158.586 91.5941 158.387 91.6572C158.189 91.7202 157.99 91.7833 157.791 91.8463C157.593 91.9094 157.328 91.9094 157.13 91.9724C156.997 91.9094 156.732 91.9724 156.534 91.9724Z" fill="white"/>
<path d="M181.553 31.8823C180.428 29.9277 178.906 28.3513 177.053 27.1533C175.199 25.9553 173.081 25.1356 170.765 24.6312C168.382 24.1267 165.999 23.8745 163.55 23.8745H144.024V69.6515H159.049V54.897H163.616C166.131 54.897 168.514 54.6447 170.897 54.0773C173.28 53.5098 175.398 52.627 177.185 51.3659C179.038 50.1049 180.494 48.5285 181.62 46.5108C182.745 44.5561 183.274 42.097 183.274 39.2596C183.208 36.2961 182.679 33.837 181.553 31.8823ZM165.734 42.3493C164.741 42.9167 163.616 43.232 162.359 43.232H158.983V35.8547H162.359C162.954 35.8547 163.55 35.9178 164.146 36.0439C164.741 36.17 165.271 36.3591 165.734 36.6114C166.198 36.8636 166.595 37.2419 166.859 37.6833C167.124 38.1247 167.257 38.7552 167.257 39.4488C167.257 40.836 166.793 41.7818 165.734 42.3493Z" fill="white"/>
<path d="M120.858 40.962V53.0683H128.602V56.5363C128.205 56.7254 127.61 56.9146 126.882 57.0407C126.153 57.1668 125.425 57.2299 124.764 57.2299C120.925 57.2299 118.145 56.221 116.358 54.2033C114.637 52.1856 113.776 49.6004 113.776 46.3846C113.776 44.8083 114.041 43.358 114.637 42.0339C115.232 40.7098 115.96 39.6379 116.953 38.6921C117.88 37.7463 119.005 37.0527 120.263 36.5482C121.52 36.0438 122.778 35.7916 124.102 35.7916C126.087 35.7916 127.742 36.1069 129.132 36.8005C130.456 37.4941 131.647 38.3768 132.64 39.5118L142.105 28.7296C139.987 26.7119 137.207 25.1355 133.831 23.9375C130.456 22.8025 126.882 22.172 123.175 22.172C119.535 22.172 116.159 22.7395 112.982 23.8745C110.93 24.6311 109.077 25.5769 107.422 26.7119L97.7585 52.1856C98.0895 53.6358 98.5528 55.023 99.1485 56.3471C100.472 59.3106 102.392 61.8328 104.775 63.9136C107.157 65.9943 109.937 67.6337 113.18 68.7057C116.424 69.8406 119.932 70.4081 123.704 70.4081C125.492 70.4081 127.345 70.282 129.132 70.0298C130.919 69.7776 132.64 69.4623 134.295 69.084C135.949 68.7057 137.538 68.2643 138.994 67.6968C140.185 67.2554 141.311 66.751 142.303 66.2466V40.962H120.858Z" fill="white"/>
<path d="M88.0354 23.8408L80.4899 52.152H80.1589L72.7458 25.6694L59.4419 38.4062L71.0249 69.5548H88.962L106.303 23.8408H88.0354Z" fill="white"/>
<path d="M158.983 77.6592H24.686V79.4247H158.983V77.6592Z" fill="#FDC300"/>
</g>
<defs>
<clipPath id="clip0_60_67">
<rect width="184" height="92" fill="white"/>
</clipPath>
</defs>
</svg>
