<svg width="30" height="30" viewBox="0 0 30 30" fill="none" xmlns="http://www.w3.org/2000/svg">
<path fill-rule="evenodd" clip-rule="evenodd" d="M0 7.88497V4.0681C0.563125 4.43247 1.39688 4.75122 2.49813 5.02185C4.49188 5.51185 7.12875 5.78185 9.9225 5.78185C12.7169 5.78185 15.3537 5.51185 17.3475 5.02185C18.4487 4.75122 19.2825 4.43247 19.8456 4.0681V7.88497C19.8456 8.13122 19.2812 8.7356 17.1444 9.2606C15.2206 9.73372 12.6562 9.99372 9.9225 9.99372C7.18937 9.99372 4.625 9.7331 2.70125 9.2606C0.564375 8.7356 0 8.13122 0 7.88497ZM2.7075 4.17185C4.63437 4.6456 7.19687 4.90685 9.9225 4.90685C12.6487 4.90685 15.2112 4.64622 17.1381 4.17185C19.28 3.6456 19.8456 3.0431 19.8456 2.79747C19.8456 2.55247 19.28 1.94997 17.1381 1.4231C15.2112 0.949346 12.6487 0.688721 9.9225 0.688721C7.19687 0.688721 4.63437 0.949346 2.7075 1.4231C0.565625 1.94997 0 2.55247 0 2.79747C0 3.0431 0.565625 3.6456 2.7075 4.17185ZM9.9225 10.8687C7.12125 10.8687 4.4825 10.5993 2.4925 10.11C1.39375 9.8406 0.5625 9.52185 0 9.1581V12.9725C0 13.2187 0.564375 13.8231 2.70125 14.3481C4.625 14.8206 7.18937 15.0812 9.9225 15.0812C10.7094 15.0812 11.4894 15.0593 12.2487 15.0156C12.2587 14.9931 12.2713 14.9706 12.2856 14.9493C12.9575 13.9781 13.7912 13.1443 14.7631 12.4718C14.9375 12.3518 15.1719 12.3731 15.3213 12.5225L16.5263 13.7275C17.0475 13.4362 17.5988 13.2075 18.1725 13.045V11.3412C18.1725 11.13 18.3231 10.9487 18.5312 10.9106C18.9638 10.8318 19.4037 10.7825 19.8456 10.7631V9.1581C19.2831 9.52185 18.4519 9.8406 17.3531 10.11C15.3631 10.5993 12.7244 10.8687 9.9225 10.8687ZM9.9225 15.9562C7.12125 15.9562 4.4825 15.6868 2.4925 15.1981C1.39375 14.9281 0.5625 14.6093 0 14.2456V18.06C0 18.3062 0.564375 18.9106 2.70125 19.4356C4.625 19.9087 7.18937 20.1687 9.9225 20.1687C10.1387 20.1687 10.3556 20.1662 10.5712 20.1631C10.5869 19.6781 10.6375 19.1931 10.7238 18.7181C10.7619 18.51 10.9431 18.3587 11.1544 18.3587H12.8588C13.0213 17.7856 13.25 17.2343 13.5413 16.7125L12.6931 15.8643C11.7937 15.925 10.8631 15.9562 9.9225 15.9562ZM9.9225 21.0437C7.12125 21.0437 4.4825 20.7743 2.4925 20.2856C1.39375 20.015 0.5625 19.6968 0 19.3331V23.1475C0 23.3937 0.564375 23.9981 2.70125 24.5231C4.625 24.9962 7.18937 25.2562 9.9225 25.2562C10.8319 25.2562 11.7306 25.2256 12.5994 25.1681L13.5413 24.2262C13.25 23.705 13.0213 23.1537 12.8588 22.58H11.1544C10.9431 22.58 10.7619 22.4287 10.7238 22.2206C10.6531 21.8312 10.6063 21.435 10.5831 21.0375C10.3631 21.0412 10.1431 21.0437 9.9225 21.0437ZM14.4619 16.8731C14.5687 16.7006 14.5431 16.4768 14.3994 16.3337L13.2188 15.1531C13.7175 14.4906 14.3031 13.905 14.9662 13.4056L16.1469 14.5862C16.2906 14.73 16.5138 14.7556 16.6863 14.6487C17.3131 14.2606 17.9944 13.9781 18.71 13.8093C18.9075 13.7631 19.0475 13.5868 19.0475 13.3837V11.7137C19.8638 11.5993 20.7012 11.5993 21.5187 11.7137V13.3837C21.5187 13.5868 21.6588 13.7631 21.8563 13.8093C22.5713 13.9775 23.2525 14.26 23.8794 14.6487C24.0525 14.7556 24.2756 14.73 24.4194 14.5862L25.6 13.4056C26.2625 13.9043 26.8481 14.4906 27.3475 15.1531L26.1669 16.3337C26.0231 16.4775 25.9975 16.7012 26.1044 16.8737C26.4925 17.5006 26.775 18.1812 26.9431 18.8975C26.99 19.095 27.1663 19.2343 27.3694 19.2343H29.0394C29.0963 19.6425 29.125 20.0568 29.125 20.47C29.125 20.8831 29.0963 21.2968 29.0394 21.7056H27.3694C27.1663 21.7056 26.99 21.845 26.9431 22.0431C26.775 22.7587 26.4925 23.4393 26.1044 24.0668C25.9975 24.2393 26.0231 24.4625 26.1669 24.6062L27.3475 25.7868C26.8487 26.4493 26.2631 27.035 25.6 27.5343L24.4194 26.3537C24.2756 26.21 24.0525 26.1843 23.8794 26.2912C23.2531 26.6793 22.5719 26.9618 21.8563 27.1306C21.6588 27.1768 21.5187 27.3531 21.5187 27.5562V29.2262C20.7025 29.34 19.8644 29.34 19.0475 29.2262V27.5562C19.0475 27.3531 18.9075 27.1768 18.71 27.1306C17.9944 26.9625 17.3138 26.68 16.6863 26.2912C16.5138 26.1843 16.2906 26.2106 16.1469 26.3537L14.9662 27.5343C14.3037 27.0356 13.7175 26.45 13.2188 25.7868L14.3994 24.6062C14.5431 24.4625 14.5687 24.2393 14.4619 24.0668C14.0737 23.44 13.7913 22.7593 13.6231 22.0431C13.5763 21.8456 13.4 21.7062 13.1969 21.7062H11.5269C11.47 21.2981 11.4412 20.8837 11.4412 20.4706C11.4412 20.0575 11.47 19.6437 11.5269 19.235H13.1969C13.4 19.235 13.5763 19.0956 13.6231 18.8975C13.7913 18.1812 14.0731 17.5 14.4619 16.8731ZM20.2831 24.18C22.3294 24.18 23.9937 22.5156 23.9937 20.4693C23.9937 18.4231 22.3294 16.7587 20.2831 16.7587C18.2369 16.7587 16.5725 18.4231 16.5725 20.4693C16.5725 22.5156 18.2369 24.18 20.2831 24.18ZM20.2831 23.305C21.8469 23.305 23.1187 22.0331 23.1187 20.4693C23.1187 18.9062 21.8469 17.6337 20.2831 17.6337C18.7194 17.6337 17.4475 18.9056 17.4475 20.4693C17.4475 22.0331 18.7194 23.305 20.2831 23.305Z" fill="url(#paint0_linear_76_43682)"/>
<defs>
<linearGradient id="paint0_linear_76_43682" x1="6.29206" y1="27.047" x2="20.2953" y2="2.79272" gradientUnits="userSpaceOnUse">
<stop stop-color="#00AAE3"/>
<stop offset="1" stop-color="#58C3BD"/>
</linearGradient>
</defs>
</svg>
