<?xml version="1.0" encoding="utf-8"?>
<svg xmlns="http://www.w3.org/2000/svg" xmlns:xlink="http://www.w3.org/1999/xlink">

<symbol fill="none" viewBox="0 0 18 17" id="address_icon" xmlns="http://www.w3.org/2000/svg"><path d="M13.665 11.505L10.4 14.769a1.537 1.537 0 01-2.174 0l-3.265-3.264a6.154 6.154 0 118.703 0v0z" stroke-width="1.416" stroke-linecap="round" stroke-linejoin="round"/><path d="M11.621 7.153a2.308 2.308 0 11-4.616 0 2.308 2.308 0 014.616 0v0z" stroke-width="1.416" stroke-linecap="round" stroke-linejoin="round"/></symbol>

<symbol fill="none" viewBox="0 0 19 19" id="calc_icon" xmlns="http://www.w3.org/2000/svg"><path d="M3.687.053a1.581 1.581 0 00-.782.45c-.241.24-.39.504-.457.826-.059.282-.059 16.06 0 16.34.138.637.65 1.15 1.288 1.287.278.059 11.53.059 11.812 0a1.709 1.709 0 001.288-1.288c.059-.282.059-16.06 0-16.339A1.693 1.693 0 0015.548.042C15.251-.02 3.94-.01 3.688.053zm11.78 1.135a.498.498 0 01.222.223c.07.141.074.215.074 2.374v2.226H3.521V3.774c.003-2.511-.008-2.396.281-2.57l.145-.09h5.688c5.627 0 5.687 0 5.832.074zM9.085 9.536v2.411H3.521V7.124h5.564v2.412zm6.678 0v2.411H10.198V7.124H15.763v2.412zm-6.678 5.936v2.411H3.958l-.148-.081a.599.599 0 01-.219-.223c-.067-.13-.07-.252-.07-2.33V13.06h5.564v2.412zm6.678-.223c0 2.122-.003 2.196-.074 2.338a.497.497 0 01-.222.222c-.141.07-.212.074-2.709.074h-2.56V13.06H15.763v2.19z" fill="#fff"/><path d="M6.036 7.944c-.216.111-.29.293-.29.701v.334h-.334c-.263 0-.367.015-.482.074a.586.586 0 00-.297.483c0 .185.13.397.297.482.115.06.219.074.482.074h.334v.334c0 .263.015.367.074.482a.586.586 0 00.483.297c.185 0 .397-.13.482-.297.06-.115.074-.219.074-.482v-.334h.334c.264 0 .367-.015.482-.074a.586.586 0 00.297-.482.586.586 0 00-.297-.483c-.115-.06-.218-.074-.482-.074H6.86v-.334c0-.415-.074-.59-.297-.705a.524.524 0 00-.526.004zM11.6 9.058c-.159.081-.288.3-.288.478 0 .186.13.397.296.483.138.07.215.074 1.373.074s1.235-.004 1.373-.074a.586.586 0 00.296-.483.586.586 0 00-.296-.482c-.138-.07-.215-.074-1.38-.074-1.158.003-1.243.007-1.373.078zM5.234 14.21c-.23.142-.326.431-.23.687.023.056.141.208.268.338l.226.237-.226.238c-.249.26-.305.363-.305.57 0 .368.405.628.76.49.057-.022.209-.14.338-.267l.238-.226.237.226c.13.127.282.245.338.268a.558.558 0 00.723-.724c-.022-.056-.14-.208-.267-.337l-.226-.238.226-.237c.126-.13.245-.282.267-.338a.558.558 0 00-.723-.723c-.056.022-.208.14-.338.267l-.237.226-.238-.226c-.13-.126-.281-.245-.337-.267a.6.6 0 00-.494.037zM11.6 13.88c-.159.082-.288.3-.288.478 0 .186.13.397.296.483.138.07.215.074 1.373.074s1.235-.004 1.373-.074a.586.586 0 00.296-.482.586.586 0 00-.296-.483c-.138-.07-.215-.074-1.38-.074-1.158.004-1.243.008-1.373.078zM11.6 16.107c-.159.081-.288.3-.288.478 0 .186.13.397.296.482.138.07.215.075 1.373.075s1.235-.004 1.373-.075a.586.586 0 00.296-.482.586.586 0 00-.296-.482c-.138-.07-.215-.074-1.38-.074-1.158.003-1.243.007-1.373.078z" fill="#fff"/></symbol>

<symbol fill="none" viewBox="0 0 18 17" id="clock_icon" xmlns="http://www.w3.org/2000/svg"><path d="M9.313 5.352V8.5l2.361 2.361-2.36-5.509zM16.397 8.5A7.085 7.085 0 014.305 13.51 7.083 7.083 0 1116.397 8.5z" stroke-width="1.111" stroke-linecap="round" stroke-linejoin="round"/></symbol>

<symbol fill="none" viewBox="0 0 24 24" id="facebook_icon" xmlns="http://www.w3.org/2000/svg"><path d="M9.552 7.75c0-.09.012-.281.037-.575.026-.294.137-.602.337-.925.197-.322.517-.611.962-.867C11.332 5.128 11.973 5 12.81 5h2.356v2.568H13.44c-.17 0-.33.064-.474.19-.142.127-.215.247-.215.359v1.597h2.414c-.026.313-.053.617-.085.91l-.096.776c-.038.263-.077.506-.115.73h-2.136v7.118H9.552v-7.12H8V9.715h1.552V7.75z" /></symbol>

<symbol fill="none" viewBox="0 0 24 24" id="inst_icon" xmlns="http://www.w3.org/2000/svg"><path d="M11.958 8.632A3.822 3.822 0 008.13 12.46a3.822 3.822 0 003.828 3.828 3.822 3.822 0 003.828-3.828 3.822 3.822 0 00-3.828-3.828zm0 6.316A2.493 2.493 0 019.47 12.46a2.493 2.493 0 012.488-2.488 2.493 2.493 0 012.488 2.488 2.493 2.493 0 01-2.488 2.488zm3.985-7.365a.893.893 0 100 1.788.892.892 0 00.826-1.236.894.894 0 00-.826-.552zm3.476 4.877c0-1.03.01-2.051-.048-3.08-.058-1.194-.33-2.254-1.204-3.127-.875-.875-1.933-1.146-3.128-1.204-1.03-.058-2.05-.048-3.08-.048-1.03 0-2.05-.01-3.078.048-1.195.058-2.255.33-3.128 1.204-.875.875-1.146 1.933-1.204 3.128-.058 1.03-.048 2.05-.048 3.08 0 1.027-.01 2.05.048 3.078.058 1.195.33 2.255 1.204 3.128.875.876 1.933 1.146 3.128 1.204 1.03.058 2.05.049 3.079.049 1.03 0 2.05.009 3.08-.049 1.194-.058 2.254-.33 3.127-1.204.875-.875 1.146-1.933 1.204-3.128.06-1.028.048-2.049.048-3.079zm-1.642 4.4c-.136.34-.3.594-.564.855a2.388 2.388 0 01-.854.564c-.982.39-3.313.302-4.401.302-1.088 0-3.42.088-4.402-.3-.34-.136-.594-.3-.855-.564a2.388 2.388 0 01-.564-.854c-.388-.984-.3-3.315-.3-4.403 0-1.088-.088-3.42.3-4.402.136-.34.3-.594.564-.855.263-.262.515-.428.855-.564.981-.388 3.314-.3 4.402-.3s3.42-.088 4.402.3c.34.136.594.3.855.564.263.263.428.515.564.855.388.981.3 3.314.3 4.402s.088 3.42-.302 4.4z"/></symbol>

<symbol fill="none" viewBox="0 0 17 18" id="mail_icon" xmlns="http://www.w3.org/2000/svg"><g clip-path="url(#fclip0_124_2138)" stroke-width="1.214"><rect x=".608" y="2.215" width="15.786" height="12.386" rx="1.579"/><path d="M1.7 3.308l6.285 6.285a.729.729 0 001.03 0L15.3 3.308M6.904 8.874l-5.487 5.14M9.917 8.873l5.488 5.14"/></g><defs><clipPath id="fclip0_124_2138"><path transform="translate(0 .003)" d="M0 0h17v17H0z"/></clipPath></defs></symbol>

<symbol fill="none" viewBox="0 0 17 17" id="phone_icon" xmlns="http://www.w3.org/2000/svg"><path d="M2.125 3.542a1.417 1.417 0 011.417-1.417h2.323a.708.708 0 01.671.485l1.062 3.182a.708.708 0 01-.356.857l-1.599.8a7.821 7.821 0 003.907 3.908l.8-1.599a.708.708 0 01.858-.356l3.182 1.062a.708.708 0 01.485.672v2.322a1.417 1.417 0 01-1.417 1.417h-.708c-5.868 0-10.625-4.757-10.625-10.625v-.708z" stroke-width="1.441" stroke-linecap="round" stroke-linejoin="round"/></symbol>

<symbol fill="none" viewBox="0 0 40 40" id="plus_icon" xmlns="http://www.w3.org/2000/svg"><g clip-path="url(#hclip0_124_2519)"><circle cx="20" cy="20" r="20" fill="#FFCC60"/><path fill-rule="evenodd" clip-rule="evenodd" d="M21 14h-2v5h-5v2h5v5h2v-5h5v-2h-5v-5z" fill="#1D1C1B"/></g><defs><clipPath id="hclip0_124_2519"><path fill="#fff" d="M0 0h40v40H0z"/></clipPath></defs></symbol>

<symbol viewBox="0 0 19 19" id="request_icon" xmlns="http://www.w3.org/2000/svg"><path d="M10.094 13.656a.594.594 0 11-1.187 0V9.152l-1.361 1.362a.594.594 0 01-.841-.84L9.08 7.297a.594.594 0 01.84 0l2.376 2.375a.595.595 0 11-.841.841l-1.361-1.362v4.504z"/><path d="M16.625 16.625V5.344L11.281 0H4.75a2.375 2.375 0 00-2.375 2.375v14.25A2.375 2.375 0 004.75 19h9.5a2.375 2.375 0 002.375-2.375zM11.281 3.562a1.782 1.782 0 001.781 1.782h2.376v11.281a1.188 1.188 0 01-1.188 1.188h-9.5a1.187 1.187 0 01-1.188-1.188V2.375A1.188 1.188 0 014.75 1.187h6.531v2.375z"/></symbol>

<symbol fill="none" viewBox="0 0 24 24" id="telegram_icon" xmlns="http://www.w3.org/2000/svg"><path d="M20.292 4.383A1.074 1.074 0 0019.439 4c-.189 0-.389.04-.595.118L4.837 9.465c-.743.284-.843.71-.837.938.007.229.13.648.89.89l.013.003 2.905.832L9.38 16.62c.215.613.696.993 1.255.993.354 0 .701-.148 1.005-.428l1.797-1.654 2.607 2.099.025.02.007.006c.29.224.606.343.915.343.604 0 1.085-.447 1.225-1.138L20.51 5.529c.092-.454.014-.861-.218-1.146zM8.78 11.97l5.606-2.864-3.49 3.709a.485.485 0 00-.118.216l-.673 2.726L8.78 11.97zm2.202 4.503a.92.92 0 01-.07.058l.625-2.529 1.135.915-1.69 1.556zM19.56 5.337l-2.295 11.332c-.022.109-.092.361-.274.361-.09 0-.202-.049-.317-.137l-2.954-2.379h-.001l-1.758-1.416 5.048-5.363a.485.485 0 00-.574-.764l-8.302 4.241-2.945-.842L19.19 5.024a.71.71 0 01.25-.054c.029 0 .082.003.101.027.026.032.059.139.018.34z" /></symbol>

<symbol fill="none" viewBox="0 0 24 24" id="vk_icon" xmlns="http://www.w3.org/2000/svg"><path d="M19.153 13.874c-.332-.42-.237-.606 0-.981.004-.004 2.747-3.794 3.03-5.08h.001c.14-.469 0-.813-.679-.813h-2.247c-.572 0-.835.295-.977.626 0 0-1.144 2.738-2.762 4.513-.523.513-.764.678-1.05.678-.14 0-.358-.165-.358-.633V7.813c0-.562-.16-.813-.634-.813H9.944c-.358 0-.572.262-.572.506 0 .533.81.655.894 2.154v3.25c0 .713-.13.844-.417.844-.763 0-2.617-2.75-3.716-5.896-.222-.61-.438-.857-1.015-.857H2.871c-.642 0-.77.295-.77.626 0 .584.763 3.487 3.551 7.324 1.858 2.618 4.475 4.037 6.855 4.037 1.431 0 1.606-.315 1.606-.857 0-2.502-.13-2.739.587-2.739.333 0 .905.165 2.24 1.428 1.527 1.497 1.778 2.168 2.633 2.168h2.246c.64 0 .965-.315.779-.937-.427-1.307-3.315-3.997-3.445-4.177v0z" stroke-width="1.113"/></symbol>

</svg>