<svg width="64" height="53" viewBox="0 0 64 53" fill="none" xmlns="http://www.w3.org/2000/svg">
<path fill-rule="evenodd" clip-rule="evenodd" d="M40.9666 0.145604C40.4074 0.352248 39.9457 0.749278 39.6533 1.27526C39.4639 1.61582 39.4434 3.11594 39.4125 18.8679L39.3786 36.0883H38.5057C38.0255 36.0883 37.6326 36.0566 37.6326 36.0179C37.6326 35.9793 36.2201 31.0505 34.4936 25.0651C31.2138 13.694 30.9361 12.8772 29.8314 11.3476C29.2013 10.4752 27.7067 9.01032 26.8758 8.45096C25.5744 7.57486 23.7205 6.82461 22.1935 6.55629C21.7185 6.47276 18.0598 6.42585 12.0247 6.42585C1.87684 6.42585 2.2736 6.40127 1.64695 7.06737C1.13324 7.61321 0.98415 8.18958 0.987027 9.61772C0.990029 11.091 1.17152 11.6928 1.78078 12.2496L2.10999 12.5506V20.7202C2.10999 26.5176 2.07059 28.8899 1.97403 28.8899C1.67909 28.8899 0.776643 29.6649 0.421416 30.2233L0.0461773 30.8133L0.00927879 37.8877C-0.0176133 43.0366 0.0124058 45.1061 0.119599 45.4909C0.287581 46.0934 1.07421 47.0441 1.65533 47.3467C1.87096 47.459 2.32713 47.6145 2.6691 47.6924C3.25147 47.8249 3.29687 47.8635 3.38943 48.3058C3.70801 49.8272 5.262 51.6489 6.88553 52.4045C10.391 54.0359 14.653 52.173 15.6978 48.5528L15.9282 47.7547H22.3938H28.8593L29.0657 48.4683C29.6318 50.4263 31.2223 52.0407 33.2533 52.7188C34.3472 53.0841 35.9874 53.0873 37.1511 52.7265C39.1483 52.1072 40.8938 50.3028 41.3904 48.3442L41.5397 47.7547H42.8423C44.2852 47.7547 44.7539 47.6207 45.2857 47.0563C45.8275 46.4815 45.8879 46.1463 45.8879 43.7176V41.4343L53.2989 41.3986L60.7098 41.363L61.4197 41.0328C62.3696 40.5909 63.1939 39.8126 63.6139 38.9608C63.8975 38.3857 63.9565 38.1062 63.9453 37.3918C63.9379 36.9137 63.9326 36.3412 63.9339 36.1193C63.935 35.8974 63.9336 34.4314 63.9308 32.8614C63.9279 31.2914 63.9255 29.8672 63.9255 29.6966C63.9255 29.5259 63.9255 28.1018 63.9255 26.5318C63.9255 24.9618 63.9255 23.5376 63.9255 23.3669C63.9255 23.1963 63.93 21.786 63.9356 20.2331C63.9411 18.6803 63.9389 17.27 63.9306 17.0994C63.9224 16.9287 63.9436 15.6162 63.9778 14.1828C64.0119 12.7493 64.0061 11.3966 63.9647 11.1767C63.8637 10.6408 63.3339 10.0403 62.7162 9.76194C62.2477 9.5507 61.7591 9.53407 56.0193 9.53407C50.2796 9.53407 49.791 9.5507 49.3224 9.76194C48.7048 10.0403 48.175 10.6408 48.074 11.1767C48.0326 11.3966 48.0267 12.7493 48.0609 14.1828C48.095 15.6162 48.1163 16.9287 48.108 17.0994C48.0998 17.27 48.0975 18.6803 48.103 20.2331C48.1087 21.786 48.1132 23.1963 48.1132 23.3669C48.1132 23.5376 48.1132 24.9618 48.1132 26.5318C48.1132 28.1018 48.1144 29.5119 48.1161 29.6655C48.1176 29.8192 48.093 31.0758 48.0615 32.458L48.0042 34.9713H46.9473H45.8905L45.858 18.1756L45.8253 1.38001L45.4749 0.92415C44.9156 0.196614 44.5193 0.0564929 42.886 0.00945498C41.8568 -0.0202074 41.3107 0.0185151 40.9666 0.145604ZM43.7615 23.8634V45.5207H42.6984H41.6352V23.8634V2.20609H42.6984H43.7615V23.8634ZM22.7448 8.88919C25.4816 9.7185 27.6772 11.5385 28.8313 13.9345C29.0971 14.4866 30.3642 18.6713 32.307 25.4128C33.9884 31.2481 35.354 36.0297 35.3414 36.0386C35.3289 36.0476 34.8551 36.085 34.2885 36.1218L33.2583 36.1887L33.0132 35.3627C32.8783 34.9086 31.5225 30.2085 30.0001 24.9183C28.0824 18.2542 27.1102 15.071 26.8351 14.5551C26.2356 13.4306 24.7698 12.0239 23.6237 11.4727C21.8561 10.6228 22.1706 10.6456 12.2152 10.6456H3.23571V9.58545V8.5253L12.5229 8.56564C21.7794 8.60585 21.8132 8.60696 22.7448 8.88919ZM51.4633 12.4087C51.6659 13.2 52.3042 14.5283 52.8327 15.2582L53.2672 15.8582H51.7038H50.1406V13.8036V11.7489L50.7272 11.7868C51.313 11.8247 51.314 11.8254 51.4633 12.4087ZM56.7227 11.9798C56.9122 12.5667 57.6784 13.988 58.034 14.4121C58.2541 14.6749 58.7122 15.1078 59.0518 15.374L59.6692 15.8582H58.1707H56.6723L55.9317 15.3173C54.9326 14.5875 54.1503 13.5103 53.7004 12.2449L53.5289 11.7626H55.0907C56.4681 11.7626 56.6609 11.7883 56.7227 11.9798ZM61.8981 13.1278C61.8981 13.8787 61.8677 14.493 61.8305 14.493C61.6247 14.493 60.6909 13.9232 60.2454 13.5258C59.7637 13.0962 59.0213 12.0873 59.0213 11.8624C59.0213 11.8075 59.6685 11.7626 60.4597 11.7626H61.8981V13.1278ZM6.3627 20.6986V28.6416H5.29952H4.23635V20.6986V12.7555H5.29952H6.3627V20.6986ZM21.1364 12.8802C22.694 13.1688 24.2827 14.3303 24.9329 15.6561C25.2065 16.2138 27.5037 23.8871 27.4997 24.2294C27.4982 24.3505 25.2007 25.6009 24.9796 25.6009C24.873 25.6009 22.8713 23.1904 22.876 23.0677C22.8773 23.0275 23.1923 22.7716 23.5758 22.4989C24.3679 21.9357 24.4993 21.7482 24.4993 21.1801C24.4993 20.6117 24.0795 20.2021 23.4967 20.2021C23.1016 20.2021 22.7161 20.4421 20.7102 21.9368C19.4298 22.891 18.3232 23.7808 18.2512 23.9145C18.0385 24.3088 18.0999 24.757 18.4166 25.1224C18.8739 25.6498 19.4245 25.5919 20.3187 24.9219L21.0428 24.3796L21.4657 24.8651C21.6983 25.132 22.1192 25.647 22.4009 26.0094L22.9131 26.6682L22.4064 27.1894C21.8123 27.8008 21.5536 28.2728 21.3719 29.0774C21.1275 30.1596 21.3444 30.7665 23.123 33.9778C24.0176 35.5927 24.7494 36.9516 24.7494 36.9976C24.7494 37.0435 23.7363 37.0811 22.498 37.0811H20.2465V35.1197C20.2465 33.2582 20.23 33.1255 19.9226 32.5133C19.2734 31.2207 18.3063 30.7515 16.2913 30.7515H15.0072L14.9689 26.1284C14.931 21.5492 14.9278 21.4997 14.6338 20.9124C14.4706 20.5862 14.1123 20.1285 13.8375 19.8952C13.0495 19.2259 12.4532 19.0851 10.4055 19.0851H8.61414V15.9203V12.7555H14.5384C17.9784 12.7555 20.7451 12.8079 21.1364 12.8802ZM51.513 18.899C51.7839 19.8665 52.2856 20.8969 52.8313 21.6061C53.0712 21.9178 53.2676 22.2043 53.2676 22.2425C53.2676 22.2807 52.564 22.312 51.7041 22.312H50.1406V20.1953V18.0786L50.7226 18.1164L51.3046 18.1543L51.513 18.899ZM56.8886 18.787C57.3108 19.9776 58.3845 21.3238 59.5216 22.0887C59.8239 22.292 59.7836 22.2992 58.3158 22.3055L56.7973 22.312L56.0547 21.7695C54.9565 20.9674 54.2558 20.0502 53.7875 18.8021L53.5185 18.0848L55.0914 18.1195L56.6642 18.1543L56.8886 18.787ZM61.8981 19.4575C61.8981 20.2083 61.8681 20.8227 61.8314 20.8227C61.5766 20.8227 60.4811 20.132 60.0373 19.6918C59.5839 19.2419 59.0213 18.3932 59.0213 18.1593C59.0213 18.1224 59.6685 18.0922 60.4597 18.0922H61.8981V19.4575ZM12.4825 21.6461C12.7338 21.963 12.7418 22.1097 12.7418 26.3726C12.7418 28.9981 12.6954 30.7555 12.6267 30.7308C12.5634 30.7081 12.3241 30.4118 12.0951 30.0725C11.4822 29.1648 10.7179 28.7429 9.55086 28.6687L8.61414 28.609V24.964V21.3191H10.4187C12.2193 21.3191 12.2238 21.3199 12.4825 21.6461ZM51.5125 25.2286C51.7888 26.2181 52.1778 27.061 52.6805 27.7587C52.9074 28.0737 53.1355 28.4012 53.1877 28.4865C53.2615 28.6074 52.9352 28.6416 51.7115 28.6416H50.1406V26.5249V24.4082L50.7226 24.4461L51.3046 24.4839L51.5125 25.2286ZM56.8965 25.1387C57.3073 26.2973 58.2332 27.4998 59.3214 28.2882L59.8093 28.6416H58.3109C56.8479 28.6416 56.7991 28.6327 56.2328 28.2606C55.087 27.5075 54.0138 26.0775 53.6502 24.8196L53.5331 24.4146L55.0988 24.4493L56.6642 24.4839L56.8965 25.1387ZM61.8981 25.7871C61.8981 26.848 61.8606 27.1523 61.7299 27.1523C61.4345 27.1523 60.0667 26.2014 59.7406 25.7695C59.4354 25.3651 59.0213 24.6285 59.0213 24.4901C59.0213 24.4525 59.6685 24.4219 60.4597 24.4219H61.8981V25.7871ZM29.6721 31.6473C31.0449 36.4181 31.1294 36.7736 30.9247 36.922C30.7714 37.0334 30.1959 37.0802 29.0095 37.078L27.3136 37.0749L25.4535 33.696C24.4041 31.7896 23.5669 30.1231 23.5324 29.8719C23.4108 28.9875 23.6704 28.745 25.9728 27.592C27.1229 27.0162 28.0947 26.5419 28.1321 26.5383C28.1695 26.5347 28.8624 28.8338 29.6721 31.6473ZM5.23698 33.9163V37.0811H3.67349H2.10999L2.11187 34.3817C2.11387 31.491 2.16665 31.1977 2.73789 30.9109C2.91526 30.8219 3.51664 30.7544 4.14254 30.7534L5.23698 30.7515V33.9163ZM10.0299 30.9807C10.1414 31.0728 11.6795 33.614 13.4477 36.6278C15.6824 40.4368 16.8271 42.2672 17.2017 42.631C18.0857 43.4894 18.4967 43.5557 22.6485 43.5109L26.1878 43.4728L26.8608 43.103C27.3466 42.836 27.7363 42.4692 28.2627 41.7831C29.2564 40.4876 30.1093 39.7746 31.4412 39.1259C33.0182 38.3576 33.9632 38.1981 36.9394 38.1981H39.3837V39.9893V41.7806L38.7601 41.3642C37.8137 40.7322 36.8376 40.413 35.6313 40.3409C33.7274 40.2271 32.1724 40.7688 30.8731 41.9985C29.9535 42.8689 29.4743 43.6019 29.1179 44.6829L28.8419 45.5207H22.3693H15.8967L15.8161 45.095C15.7718 44.8609 15.5317 44.2647 15.2823 43.7701C14.4402 42.0999 12.7927 40.8216 10.9746 40.4278C10.2892 40.2794 8.58787 40.3196 7.83239 40.502L7.48842 40.5852V35.6564V30.7276L8.65779 30.7705C9.39664 30.7977 9.90171 30.8751 10.0299 30.9807ZM51.4768 31.4962C51.7093 32.4014 52.1583 33.356 52.7696 34.2446L53.2695 34.9713H51.7051H50.1406V32.8546V30.7379L50.7211 30.7757L51.3016 30.8136L51.4768 31.4962ZM56.8736 31.4651C57.3473 32.7533 58.4075 34.1071 59.424 34.7222L59.8343 34.9704L58.3266 34.9708C56.8861 34.9713 56.794 34.9556 56.2627 34.6205C55.1532 33.9207 54.0141 32.4081 53.6512 31.153L53.5353 30.7515H55.0732H56.6112L56.8736 31.4651ZM61.8981 32.1167C61.8981 32.979 61.8502 33.4819 61.768 33.4819C61.5313 33.4819 60.6612 32.99 60.2238 32.609C59.7741 32.2173 59.0213 31.1447 59.0213 30.8957C59.0213 30.7946 59.4501 30.7515 60.4597 30.7515H61.8981V32.1167ZM17.773 33.2058C18.0386 33.4693 18.0604 33.6085 18.0982 35.29L18.1388 37.0919L17.1792 37.0555L16.2195 37.0191L15.046 35.0333C14.4006 33.9412 13.8714 33.0004 13.87 32.9428C13.8686 32.8852 14.6821 32.8573 15.6779 32.8808C17.3645 32.9205 17.5077 32.9428 17.773 33.2058ZM61.8233 37.5466C61.6895 38.1206 61.236 38.6858 60.7016 38.9447C60.2124 39.1817 59.9211 39.191 53.0404 39.191H45.8879V38.1981V37.2053H53.8954H61.9028L61.8233 37.5466ZM5.23698 40.6611C5.23698 41.883 5.21222 42.0289 4.96769 42.2435C4.50789 42.6473 3.74716 43.9111 3.52564 44.6392C3.26235 45.5048 3.20531 45.5712 2.80931 45.4725C2.19067 45.3185 2.10999 44.9165 2.10999 41.9897V39.3151H3.67349H5.23698V40.6611ZM26.9798 39.9486C26.6818 40.2971 26.2875 40.7439 26.1037 40.9415L25.7693 41.3009H22.4103C19.6713 41.3009 19.0034 41.2675 18.7912 41.1201C18.5747 40.9697 17.6199 39.5416 17.6199 39.3683C17.6199 39.3391 19.8478 39.3151 22.5708 39.3151H27.5217L26.9798 39.9486ZM11.4462 42.9155C14.0956 44.2037 14.6232 47.6879 12.4713 49.6852C11.5533 50.5372 10.8952 50.7926 9.61477 50.7941C8.72921 50.7951 8.43565 50.7414 7.8579 50.4726C6.8679 50.0117 6.30229 49.4668 5.83374 48.5223C5.46863 47.7866 5.4246 47.584 5.4246 46.6403C5.4246 45.7552 5.47814 45.4714 5.75269 44.9001C6.79198 42.7374 9.28957 41.8669 11.4462 42.9155ZM36.9965 42.8596C39.5297 44.0096 40.1998 47.392 38.3079 49.48C37.4678 50.4071 36.593 50.7822 35.2539 50.7895C34.2956 50.7947 34.1044 50.7543 33.3516 50.3868C32.4416 49.9425 31.8064 49.3078 31.348 48.3846C31.1152 47.916 31.0659 47.6104 31.0659 46.6377C31.0659 45.5299 31.0918 45.4111 31.4955 44.6725C32.3209 43.1619 33.8352 42.3459 35.5581 42.4834C35.9691 42.5162 36.6082 42.6834 36.9965 42.8596Z" fill="black"/>
</svg>
