<svg width="48" height="64" viewBox="0 0 48 64" fill="none" xmlns="http://www.w3.org/2000/svg">
<path fill-rule="evenodd" clip-rule="evenodd" d="M17.6851 0.164614C17.2222 0.51709 17.1919 0.793821 17.1919 4.67293V8.48305L16.2153 9.16362C13.2861 11.2047 11.218 14.5439 10.8302 17.8579L10.7401 18.6281H9.01009C7.31359 18.6281 7.27427 18.6344 6.97459 18.9505L6.66911 19.2728L6.63269 23.2417L6.59627 27.2105L5.92016 27.4885C5.0927 27.8286 4.19076 28.7058 3.74805 29.601C2.73131 31.6571 3.69991 34.3068 5.8414 35.3268L6.60282 35.6894L6.60446 37.3456L6.6061 39.0017H5.54197C4.61483 39.0017 4.43462 39.0386 4.14262 39.2877C3.80829 39.5729 3.80552 39.5898 3.05556 46.1187C2.64196 49.7186 2.33686 52.7951 2.37756 52.9558C2.50547 53.4615 2.95033 53.6117 5.28993 53.9397C6.53364 54.1139 7.689 54.2869 7.85749 54.3242C8.13247 54.3848 7.75756 54.7951 4.17728 58.3521C1.98475 60.5304 0.132861 62.4674 0.0620369 62.6563C-0.0966246 63.0797 0.0547274 63.5245 0.451066 63.7999C0.712687 63.9816 2.84435 64 23.619 64C44.3937 64 46.5254 63.9816 46.787 63.7999C47.1834 63.5245 47.3347 63.0797 47.1761 62.6563C47.1052 62.4674 45.2533 60.5304 43.0608 58.3521C39.4805 54.7951 39.1056 54.3848 39.3806 54.3242C39.5491 54.2869 40.7045 54.1139 41.9482 53.9397C44.2878 53.6117 44.7326 53.4615 44.8605 52.9558C44.9012 52.7951 44.5961 49.7186 44.1825 46.1187C43.4326 39.5898 43.4298 39.5729 43.0955 39.2877C42.8035 39.0386 42.6233 39.0017 41.6961 39.0017H40.632L40.6336 37.3456L40.6353 35.6894L41.3967 35.3268C43.5455 34.3033 44.5103 31.6642 43.49 29.601C43.0473 28.7058 42.1454 27.8286 41.3179 27.4885L40.6418 27.2105L40.6054 23.2417L40.569 19.2728L40.2635 18.9505C39.9639 18.6344 39.9243 18.6281 38.2301 18.6281H36.5023L36.4169 17.9094C36.2185 16.2369 35.3949 14.0732 34.3743 12.542C33.6661 11.4798 32.1408 9.94207 31.0228 9.16337L30.0462 8.48305V4.67293C30.0462 0.793821 30.0159 0.51709 29.553 0.164614C29.2648 -0.0548713 17.9733 -0.0548713 17.6851 0.164614ZM27.9038 4.82992C27.9038 7.20438 27.8805 7.52174 27.7107 7.45712C26.4313 6.97015 24.0503 6.71142 22.4057 6.88053C21.3357 6.99065 20.1059 7.23701 19.5274 7.45712C19.3576 7.52174 19.3343 7.20438 19.3343 4.82992V2.12923H23.619H27.9038V4.82992ZM25.1943 9.05226C29.5561 9.71284 32.9452 12.746 34.101 17.0236C34.4887 18.4585 34.4854 20.8643 34.0939 22.3086C33.0622 26.1127 30.1819 28.9734 26.3285 30.0206C24.9009 30.4087 22.3491 30.4103 20.9096 30.0242C17.0871 28.999 14.1858 26.1193 13.1429 22.3154C12.7538 20.8961 12.7532 18.3636 13.1418 16.9407C14.286 12.7505 17.9121 9.5586 22.1505 9.01076C23.3399 8.8569 23.9604 8.86539 25.1943 9.05226ZM21.9808 14.2387C20.9633 14.5644 20.499 14.8356 19.7391 15.5484C17.381 17.7604 17.321 21.3448 19.6044 23.6101C20.7166 24.7137 22.0302 25.249 23.631 25.2513C27.9064 25.2574 30.6013 20.7841 28.6321 16.9498C28.2966 16.2965 27.219 15.1803 26.5463 14.7894C25.2194 14.018 23.3679 13.7948 21.9808 14.2387ZM25.1902 16.4411C25.83 16.75 26.5222 17.4373 26.8307 18.0698C27.132 18.6878 27.2292 20.0646 27.017 20.7103C26.0978 23.507 22.2826 24.0409 20.6396 21.6027C19.3764 19.728 20.2645 17.0736 22.4218 16.2755C23.0009 16.0613 24.6018 16.157 25.1902 16.4411ZM10.8625 21.6875C11.1788 23.5721 11.9947 25.5274 13.1137 27.0829C13.8057 28.0447 15.2443 29.4716 16.1359 30.0807L16.8139 30.5438V34.7727V39.0017H12.7812H8.74847V37.3373V35.6729L9.44852 35.3852C12.108 34.2919 12.9245 30.7389 11.0126 28.5792C10.5691 28.0782 9.59294 27.4323 9.09503 27.3103L8.74847 27.2254V23.9215V20.6175L9.72186 20.654L10.6953 20.6905L10.8625 21.6875ZM38.4896 23.9267V27.2254L38.1431 27.3103C37.6451 27.4323 36.669 28.0782 36.2255 28.5792C35.0941 29.8572 34.8514 31.7197 35.6069 33.3237C35.9959 34.1494 36.9302 35.0319 37.7896 35.3852L38.4896 35.6729V37.3373V39.0017H34.4569H30.4242V34.7701V30.5385L31.1526 30.0318C33.8103 28.1827 35.8643 24.9115 36.3559 21.745C36.4353 21.2338 36.5259 20.7732 36.5572 20.7217C36.5886 20.6702 37.0361 20.628 37.5519 20.628H38.4896V23.9267ZM8.76498 29.4521C9.89955 30.0212 10.3045 31.6012 9.5845 32.6499C9.13914 33.2986 8.69983 33.5431 7.87287 33.6025C6.88524 33.6733 6.12961 33.2709 5.73604 32.4644C4.76026 30.4652 6.78001 28.4566 8.76498 29.4521ZM40.0649 29.2673C41.5223 29.6676 42.1671 31.102 41.502 32.4644C40.8432 33.8143 38.8098 34.0488 37.8255 32.8885C37.1706 32.1166 37.1007 31.0349 37.6536 30.2296C38.0884 29.5962 38.5523 29.3224 39.4978 29.1409C39.5325 29.1343 39.7876 29.1911 40.0649 29.2673ZM20.2533 32.0038C21.7166 32.4062 23.4465 32.5484 24.874 32.3838C25.9675 32.2578 27.3566 31.9529 28.0613 31.6845C28.2682 31.6056 28.2819 31.828 28.2819 35.3011V39.0017H23.619H18.9562V35.3011C18.9562 31.828 18.9698 31.6056 19.1768 31.6845C19.2981 31.7307 19.7824 31.8744 20.2533 32.0038ZM13.0333 41.5328C13.0335 41.7563 12.917 43.7863 12.7745 46.0441C12.5359 49.8257 12.5315 50.1733 12.718 50.4558C13.1594 51.1239 13.9658 51.1451 14.4297 50.5009C14.6211 50.2352 14.6939 49.543 14.9169 45.8762C15.061 43.5045 15.1782 41.4655 15.1772 41.3453C15.1757 41.1419 15.4359 41.1266 18.8932 41.1266H22.6109V46.4921V51.8577L22.9429 52.1167C23.1255 52.2592 23.4298 52.3758 23.619 52.3758C23.8083 52.3758 24.1125 52.2592 24.2952 52.1167L24.6272 51.8577V46.4921V41.1266H28.3449H32.0625L32.0703 41.7828C32.0746 42.1436 32.1762 44.1887 32.2962 46.3273C32.5323 50.5374 32.584 50.7814 33.2746 50.9533C33.7489 51.0714 34.4298 50.7139 34.5369 50.2906C34.5847 50.1021 34.5285 48.1741 34.4121 46.006C34.2956 43.8379 34.2013 41.8531 34.2026 41.5953L34.2049 41.1266H37.8595C40.6998 41.1266 41.5139 41.1614 41.5131 41.2828C41.5125 41.3688 41.7753 43.7329 42.097 46.5366C42.4187 49.3403 42.6538 51.6621 42.6194 51.6962C42.585 51.7303 38.2958 52.356 33.0879 53.0865L23.619 54.4148L14.1501 53.0865C8.94229 52.356 4.65314 51.7303 4.61873 51.6962C4.58433 51.6621 4.81936 49.3403 5.1411 46.5366C5.46283 43.7329 5.72558 41.3688 5.72495 41.2828C5.7242 41.1614 6.5383 41.1266 9.37858 41.1266H13.0332L13.0333 41.5328ZM17.6025 55.6946L23.6211 56.5439L30.0071 55.6394L36.3932 54.735L37.9765 56.3052L39.5595 57.8754H23.6203H7.68106L9.25445 56.3049C10.6824 54.8796 10.8627 54.7395 11.2059 54.7899C11.4138 54.8203 14.2923 55.2274 17.6025 55.6946ZM42.6483 60.9377L43.5872 61.8751H23.619H3.65089L4.58975 60.9377L5.52861 60.0003H23.619H41.7095L42.6483 60.9377Z" fill="white"/>
</svg>
