<svg width="16" height="20" viewBox="0 0 16 20" fill="none" xmlns="http://www.w3.org/2000/svg">
<path d="M8 0C8.90102 7.75892e-05 9.77566 0.304209 10.4823 0.86317C11.189 1.42213 11.6864 2.20321 11.894 3.08C13.0461 3.28976 14.088 3.89708 14.8383 4.79613C15.5886 5.69519 15.9997 6.82899 16 8V17C16 17.7956 15.6839 18.5587 15.1213 19.1213C14.5587 19.6839 13.7956 20 13 20H3C2.20435 20 1.44129 19.6839 0.87868 19.1213C0.316071 18.5587 3.28384e-08 17.7956 3.28384e-08 17V8C-0.000134128 6.82889 0.41082 5.69488 1.1612 4.79574C1.91157 3.89661 2.95376 3.2894 4.106 3.08C4.31358 2.20321 4.81097 1.42213 5.51765 0.86317C6.22434 0.304209 7.09898 7.75892e-05 8 0ZM11 5H5C4.23479 4.99996 3.49849 5.29233 2.94174 5.81728C2.38499 6.34224 2.04989 7.06011 2.005 7.824L2 8V17C2.00003 17.2449 2.08996 17.4813 2.25272 17.6644C2.41547 17.8474 2.63975 17.9643 2.883 17.993L3 18H4V13C3.99984 12.4954 4.19041 12.0094 4.5335 11.6395C4.87659 11.2695 5.34685 11.0428 5.85 11.005L6 11H10C10.5046 10.9998 10.9906 11.1904 11.3605 11.5335C11.7305 11.8766 11.9572 12.3468 11.995 12.85L12 13V18H13C13.2449 18 13.4813 17.91 13.6644 17.7473C13.8474 17.5845 13.9643 17.3603 13.993 17.117L14 17V8C14 7.23479 13.7077 6.49849 13.1827 5.94174C12.6578 5.38499 11.9399 5.04989 11.176 5.005L11 5ZM10 16H6V18H10V16ZM10 13H6V14H10V13ZM9 7C9.26522 7 9.51957 7.10536 9.70711 7.29289C9.89464 7.48043 10 7.73478 10 8C10 8.26522 9.89464 8.51957 9.70711 8.70711C9.51957 8.89464 9.26522 9 9 9H7C6.73478 9 6.48043 8.89464 6.29289 8.70711C6.10536 8.51957 6 8.26522 6 8C6 7.73478 6.10536 7.48043 6.29289 7.29289C6.48043 7.10536 6.73478 7 7 7H9ZM8 2C7.317 2 6.713 2.343 6.353 2.866L6.268 3H9.732C9.55647 2.69597 9.304 2.4435 8.99997 2.26796C8.69594 2.09243 8.35106 2.00001 8 2Z" fill="black"/>
</svg>
