<svg width="14" height="14" viewBox="0 0 14 14" fill="none" xmlns="http://www.w3.org/2000/svg">
<path d="M2.08333 5.06133V9.46148C2.08333 10.6126 2.08333 11.1881 2.30132 11.6278C2.49307 12.0145 2.79903 12.3289 3.17535 12.526C3.60318 12.75 4.16323 12.75 5.28333 12.75H8.21667C9.33677 12.75 9.89682 12.75 10.3246 12.526C10.701 12.3289 11.0069 12.0145 11.1987 11.6278C11.4167 11.1881 11.4167 10.6126 11.4167 9.46148V1.78825M12.75 6.58402L9.12785 2.44868C8.30407 1.50819 7.89217 1.03794 7.40709 0.864335C6.98103 0.711854 6.51733 0.711889 6.09129 0.864435C5.60623 1.03811 5.19441 1.50842 4.37076 2.44904L0.75 6.58402" stroke="#767676" stroke-width="1.5" stroke-linecap="round" stroke-linejoin="round"/>
</svg>
