<svg width="61" height="60" viewBox="0 0 61 60" fill="none" xmlns="http://www.w3.org/2000/svg">
<path d="M41.7891 23.371H53.0391V12.121" stroke="#D3B298" stroke-linecap="round" stroke-linejoin="round"/>
<path d="M15.916 15.4159C17.8312 13.5007 20.1049 11.9815 22.6072 10.945C25.1096 9.90848 27.7916 9.375 30.5001 9.375C33.2086 9.375 35.8906 9.90848 38.3929 10.945C40.8953 11.9815 43.169 13.5007 45.0842 15.4159L53.0391 23.3709" stroke="#D3B298" stroke-linecap="round" stroke-linejoin="round"/>
<path d="M19.2109 36.629H7.96094V47.879" stroke="#D3B298" stroke-linecap="round" stroke-linejoin="round"/>
<path d="M45.084 44.5841C43.1688 46.4993 40.8952 48.0185 38.3928 49.055C35.8905 50.0915 33.2085 50.625 30.5 50.625C27.7915 50.625 25.1095 50.0915 22.6071 49.055C20.1048 48.0185 17.8311 46.4993 15.9159 44.5841L7.96094 36.6292" stroke="#D3B298" stroke-linecap="round" stroke-linejoin="round"/>
</svg>
