<svg width="40" height="40" viewBox="0 0 40 40" fill="none" xmlns="http://www.w3.org/2000/svg">
<path d="M5.26143 37.0237L5.26149 37.0236L19.5895 26.1113L13.9792 20.3261L2.633 34.3144L5.26143 37.0237ZM5.26143 37.0237C4.63451 37.5019 3.637 37.3573 2.94278 36.643M5.26143 37.0237L2.94278 36.643M2.94278 36.643C2.24887 35.9289 2.13607 34.928 2.63295 34.3144L2.94278 36.643ZM21.1308 4.27005C19.3498 6.0126 18.2436 8.32737 18.0046 10.8037L17.7627 10.5533L17.7625 10.5532C17.6973 10.4859 17.6195 10.4321 17.5335 10.3949C17.4475 10.3578 17.3549 10.3379 17.2612 10.3365L17.2612 10.3364L17.2558 10.3366C17.0725 10.3439 16.8971 10.4135 16.7587 10.5338L16.7586 10.5337L16.7547 10.5375L10.945 16.174C10.945 16.174 10.9449 16.174 10.9449 16.1741C10.8092 16.3056 10.7313 16.4857 10.7284 16.6747C10.7255 16.8637 10.7977 17.0461 10.9293 17.1819L10.9293 17.1819L12.9791 19.2955L1.52664 33.4167C1.52664 33.4168 1.52663 33.4168 1.52663 33.4168C0.561245 34.6065 0.742616 36.4195 1.92009 37.6339C2.23997 37.9718 2.62419 38.2424 3.05015 38.4296C3.47627 38.617 3.93556 38.7172 4.40099 38.7244L4.40164 38.7244C5.02309 38.7301 5.62906 38.5306 6.12568 38.157L6.12615 38.1566L20.5896 27.14L22.6378 29.2539L22.7096 29.1843L22.6378 29.2539C22.703 29.3212 22.7808 29.375 22.8669 29.4122C22.9529 29.4494 23.0454 29.4692 23.1391 29.4706H23.1406H23.1496C23.3348 29.4706 23.5127 29.3985 23.6456 29.2696L23.6457 29.2696L29.4558 23.6323C29.5915 23.5007 29.6694 23.3206 29.6723 23.1316C29.6753 22.9426 29.603 22.7602 29.4715 22.6244L29.4714 22.6244L29.2339 22.3797C31.7294 22.2145 34.088 21.1678 35.8861 19.4226L35.8862 19.4225C36.1156 19.199 36.3349 18.9653 36.5433 18.7221C36.604 18.6888 36.6578 18.6441 36.7018 18.5906C36.7458 18.5371 36.7792 18.4757 36.8001 18.4098C38.47 16.3113 39.2803 13.6563 39.0663 10.9825C38.8518 8.3022 37.6243 5.80426 35.6335 3.99689C33.6426 2.18951 31.038 1.20847 28.3495 1.25334C25.661 1.29821 23.0906 2.36563 21.1612 4.23843L21.1308 4.26789V4.27005ZM14.3886 18.7006L12.4501 16.7022L17.2359 12.0584L18.1732 13.0265L18.1733 13.0266L22.7894 17.7828L22.7894 17.7828L27.9535 23.1073L23.1648 27.75L21.2284 25.753C21.1976 25.7137 21.1627 25.6777 21.1243 25.6458L14.4918 18.8073C14.4613 18.7682 14.4267 18.7324 14.3886 18.7006ZM22.1547 5.26431L22.1557 5.26327C22.1707 5.2483 22.186 5.23467 22.2026 5.22038L35.1296 18.147C35.1138 18.1644 35.0984 18.1816 35.0831 18.1986C35.021 18.2676 34.9615 18.3338 34.894 18.399L34.8938 18.3992C33.9629 19.3041 32.8496 19.9999 31.6284 20.4402C30.419 20.8762 29.1312 21.0518 27.8495 20.9555L19.3841 12.2259C19.3294 10.9423 19.5453 9.66133 20.0181 8.46638C20.4954 7.25972 21.2237 6.16826 22.1547 5.26431ZM34.9635 18.4709C34.0224 19.3857 32.8969 20.0891 31.6623 20.5343C30.4277 20.9794 29.1123 21.156 27.804 21.0523L34.9635 18.4709ZM37.638 11.0719C37.8137 13.188 37.2471 15.298 36.0375 17.0403L23.3186 4.31988C25.0608 3.11067 27.1705 2.54423 29.2864 2.71998C31.4416 2.89899 33.4634 3.83642 34.9926 5.36562C36.5217 6.89482 37.4591 8.91671 37.638 11.0719Z" fill="#FF5E00" stroke="#FF5E00" stroke-width="0.2"/>
<path d="M18.1462 16.8855C18.0306 16.7739 17.8758 16.7122 17.7152 16.7136C17.5545 16.715 17.4008 16.7794 17.2872 16.893C17.1736 17.0066 17.1091 17.1603 17.1078 17.321C17.1064 17.4816 17.1681 17.6364 17.2797 17.752L23.3354 23.808C23.4509 23.9196 23.6057 23.9814 23.7664 23.98C23.9271 23.9786 24.0807 23.9142 24.1944 23.8006C24.308 23.687 24.3724 23.5333 24.3738 23.3726C24.3752 23.2119 24.3134 23.0572 24.2018 22.9416L18.1462 16.8855Z" fill="#FF5E00"/>
</svg>
