<svg width="40" height="40" viewBox="0 0 40 40" fill="none" xmlns="http://www.w3.org/2000/svg">
<g clip-path="url(#clip0_105_1357)">
<path d="M34.0357 5.71429V5.96429H34.2857H37.1429C38.5798 5.96429 39.75 7.13383 39.75 8.57143V15.7143C39.75 19.5144 36.6573 22.6071 32.8571 22.6071H31.4014H31.2768L31.2018 22.7067C28.9021 25.7576 25.4028 27.8513 21.4038 28.2502L21.1786 28.2726V28.4989V31.4286V31.6786H21.4286H25.7143C27.9394 31.6786 29.75 33.4891 29.75 35.7143V38.5714C29.75 39.2224 29.2229 39.75 28.5714 39.75H11.4286C10.7771 39.75 10.25 39.2224 10.25 38.5714V35.7143C10.25 33.4891 12.0606 31.6786 14.2857 31.6786H18.5714H18.8214V31.4286V28.4989V28.2726L18.5962 28.2502C14.5972 27.8513 11.0979 25.7576 8.79821 22.7067L8.7232 22.6071H8.59857H7.14286C3.34271 22.6071 0.25 19.5144 0.25 15.7143V8.57143C0.25 7.13383 1.42017 5.96429 2.85714 5.96429H5.71429H5.96429V5.71429V2.85714C5.96429 1.41954 7.13446 0.25 8.57143 0.25H31.4286C32.8655 0.25 34.0357 1.41954 34.0357 2.85714V5.71429ZM27.1429 37.3929H27.3929V37.1429V35.7143C27.3929 34.7888 26.6407 34.0357 25.7143 34.0357H14.2857C13.3593 34.0357 12.6071 34.7888 12.6071 35.7143V37.1429V37.3929H12.8571H27.1429ZM2.85714 8.32143H2.60714V8.57143V15.7143C2.60714 18.1308 4.50961 20.0912 6.88987 20.2253L7.29601 20.2482L7.13297 19.8755C6.36185 18.1129 5.96394 16.2097 5.96429 14.2858V14.2857V8.57143V8.32143H5.71429H2.85714ZM8.57143 2.60714H8.32143V2.85714V14.2857C8.32143 20.7256 13.5601 25.9643 20 25.9643C26.4399 25.9643 31.6786 20.7256 31.6786 14.2857V2.85714V2.60714H31.4286H8.57143ZM32.8674 19.8755L32.7044 20.2482L33.1105 20.2253C35.4904 20.0912 37.3929 18.1308 37.3929 15.7143V8.57143V8.32143H37.1429H34.2857H34.0357V8.57143V14.2857L34.0357 14.2858C34.036 16.2097 33.6382 18.1128 32.8674 19.8755Z" fill="#FF5E00" stroke="white" stroke-width="0.5"/>
</g>
<defs>
<clipPath id="clip0_105_1357">
<rect width="40" height="40" fill="white"/>
</clipPath>
</defs>
</svg>
