<svg width="40" height="40" viewBox="0 0 40 40" fill="none" xmlns="http://www.w3.org/2000/svg">
<g clip-path="url(#clip0_105_1353)">
<path d="M38.3634 12.237L21.6234 3.737C21.109 3.47732 20.5565 3.34355 19.9984 3.34355C19.4403 3.34355 18.8878 3.47732 18.3734 3.737L1.63339 12.237C1.18093 12.4667 0.794876 12.8512 0.523461 13.3426C0.252047 13.834 0.1073 14.4105 0.1073 15C0.1073 15.5895 0.252047 16.166 0.523461 16.6574C0.794876 17.1488 1.18093 17.5333 1.63339 17.763L7.50006 20.74V30.313C7.49555 31.1726 7.67759 32.0188 8.02826 32.7683C8.37893 33.5179 8.88616 34.145 9.50006 34.588C12.6858 36.8231 16.3097 38.0011 20.0001 38.0011C23.6904 38.0011 27.3143 36.8231 30.5001 34.588C31.114 34.145 31.6212 33.5179 31.9719 32.7683C32.3225 32.0188 32.5046 31.1726 32.5001 30.313V20.74L35.0001 19.47V24.212C34.6653 24.3859 34.3747 24.6627 34.1576 25.0145C33.9405 25.3663 33.8046 25.7806 33.7636 26.2156C33.7226 26.6506 33.7779 27.0908 33.9241 27.4919C34.0702 27.893 34.302 28.2408 34.5959 28.5C34.3344 28.7308 34.1217 29.032 33.9748 29.3793C33.8279 29.7266 33.7509 30.1105 33.7501 30.5V33C33.7501 33.2652 33.8379 33.5196 33.9941 33.7071C34.1504 33.8946 34.3624 34 34.5834 34H37.0834C37.3044 34 37.5164 33.8946 37.6726 33.7071C37.8289 33.5196 37.9167 33.2652 37.9167 33V30.5C37.9159 30.1105 37.8389 29.7266 37.692 29.3793C37.5451 29.032 37.3324 28.7308 37.0709 28.5C37.3648 28.2408 37.5966 27.893 37.7427 27.4919C37.8889 27.0908 37.9442 26.6506 37.9032 26.2156C37.8622 25.7806 37.7263 25.3663 37.5092 25.0145C37.2921 24.6627 37.0015 24.3859 36.6667 24.212V18.624L38.3634 17.763C38.8159 17.5333 39.2019 17.1488 39.4733 16.6574C39.7447 16.166 39.8895 15.5895 39.8895 15C39.8895 14.4105 39.7447 13.834 39.4733 13.3426C39.2019 12.8512 38.8159 12.4667 38.3634 12.237ZM36.2501 26.5C36.2501 26.5989 36.2256 26.6956 36.1798 26.7778C36.1341 26.86 36.069 26.9241 35.9928 26.9619C35.9167 26.9998 35.8329 27.0097 35.7521 26.9904C35.6713 26.9711 35.597 26.9235 35.5388 26.8536C35.4805 26.7836 35.4408 26.6945 35.4247 26.5975C35.4087 26.5006 35.4169 26.4 35.4484 26.3087C35.48 26.2173 35.5334 26.1392 35.6019 26.0843C35.6704 26.0293 35.751 26 35.8334 26C35.9439 26 36.0499 26.0527 36.128 26.1464C36.2062 26.2402 36.2501 26.3674 36.2501 26.5ZM36.2501 32H35.4167V30.5C35.4167 30.3674 35.4606 30.2402 35.5388 30.1464C35.6169 30.0527 35.7229 30 35.8334 30C35.9439 30 36.0499 30.0527 36.128 30.1464C36.2062 30.2402 36.2501 30.3674 36.2501 30.5V32ZM30.8334 30.313C30.8382 30.8244 30.732 31.3286 30.5253 31.7759C30.3186 32.2231 30.0184 32.5981 29.6542 32.864C26.7247 34.9177 23.3929 35.9999 20.0001 35.9999C16.6073 35.9999 13.2754 34.9177 10.3459 32.864C9.98177 32.5981 9.68157 32.2231 9.47482 31.7759C9.26808 31.3286 9.1619 30.8244 9.16673 30.313V21.586L18.3767 26.262C18.8911 26.522 19.4436 26.6559 20.0017 26.6559C20.5599 26.6559 21.1124 26.522 21.6267 26.262L30.8334 21.586V30.313ZM37.7142 15.921L20.9742 24.421C20.6658 24.5764 20.3346 24.6565 20.0001 24.6565C19.6655 24.6565 19.3343 24.5764 19.0259 24.421L2.28589 15.921C2.13507 15.8444 2.00639 15.7163 1.91592 15.5525C1.82544 15.3887 1.7772 15.1965 1.7772 15C1.7772 14.8035 1.82544 14.6113 1.91592 14.4475C2.00639 14.2837 2.13507 14.1556 2.28589 14.079L19.0259 5.579C19.3343 5.42322 19.6655 5.34298 20.0001 5.34298C20.3346 5.34298 20.6659 5.42322 20.9742 5.579L37.7142 14.079C37.865 14.1556 37.9937 14.2837 38.0842 14.4475C38.1747 14.6113 38.2229 14.8035 38.2229 15C38.2229 15.1965 38.1747 15.3887 38.0842 15.5525C37.9937 15.7163 37.865 15.8444 37.7142 15.921Z" fill="#FF5E00"/>
</g>
<defs>
<clipPath id="clip0_105_1353">
<rect width="40" height="40" fill="white"/>
</clipPath>
</defs>
</svg>
