<svg width="30" height="30" viewBox="0 0 30 30" fill="none" xmlns="http://www.w3.org/2000/svg">
<path d="M29.0003 27.092V10C29.0003 5.0295 24.9708 1 20.0003 1C15.0298 1 11.0003 5.0295 11.0003 10V11.092C10.7089 11.195 10.4564 11.3856 10.2774 11.6377C10.0984 11.8897 10.0016 12.1909 10.0003 12.5V17.5C10.0016 17.8091 10.0984 18.1103 10.2774 18.3624C10.4564 18.6144 10.7089 18.805 11.0003 18.908V20C11.0003 20.2652 10.895 20.5196 10.7074 20.7071C10.5199 20.8946 10.2655 21 10.0003 21C9.7351 21 9.48075 20.8946 9.29321 20.7071C9.10567 20.5196 9.00032 20.2652 9.00032 20V2.908C9.33366 2.79059 9.61469 2.559 9.79364 2.25424C9.97258 1.94948 10.0379 1.59122 9.97801 1.24291C9.91812 0.894611 9.7369 0.578742 9.46644 0.351252C9.19598 0.123762 8.85373 -0.000666973 8.50032 2.68898e-06H1.50032C1.1469 -0.000666973 0.804656 0.123762 0.534194 0.351252C0.263732 0.578742 0.0825086 0.894611 0.0226216 1.24291C-0.0372654 1.59122 0.0280488 1.94948 0.206996 2.25424C0.385943 2.559 0.666975 2.79059 1.00032 2.908V20C1.00032 24.9705 5.02982 29 10.0003 29C14.9708 29 19.0003 24.9705 19.0003 20V18.908C19.2918 18.805 19.5443 18.6144 19.7233 18.3624C19.9023 18.1103 19.999 17.8091 20.0003 17.5V12.5C19.999 12.1909 19.9023 11.8897 19.7233 11.6377C19.5443 11.3856 19.2918 11.195 19.0003 11.092V10C19.0003 9.73479 19.1057 9.48043 19.2932 9.2929C19.4807 9.10536 19.7351 9 20.0003 9C20.2655 9 20.5199 9.10536 20.7074 9.2929C20.895 9.48043 21.0003 9.73479 21.0003 10V27.092C20.667 27.2094 20.3859 27.441 20.207 27.7458C20.028 28.0505 19.9627 28.4088 20.0226 28.7571C20.0825 29.1054 20.2637 29.4213 20.5342 29.6488C20.8047 29.8762 21.1469 30.0007 21.5003 30H28.5003C28.8537 30.0007 29.196 29.8762 29.4664 29.6488C29.7369 29.4213 29.9181 29.1054 29.978 28.7571C30.0379 28.4088 29.9726 28.0505 29.7936 27.7458C29.6147 27.441 29.3337 27.2094 29.0003 27.092ZM1.50032 1H8.50032C8.63292 1 8.7601 1.05268 8.85387 1.14645C8.94764 1.24022 9.00032 1.36739 9.00032 1.5C9.00032 1.63261 8.94764 1.75979 8.85387 1.85356C8.7601 1.94732 8.63292 2 8.50032 2H1.50032C1.36771 2 1.24053 1.94732 1.14676 1.85356C1.05299 1.75979 1.00032 1.63261 1.00032 1.5C1.00032 1.36739 1.05299 1.24022 1.14676 1.14645C1.24053 1.05268 1.36771 1 1.50032 1ZM10.0003 28C5.58432 27.995 2.00532 24.416 2.00032 20V3H8.00032V20C8.00032 20.5304 8.21103 21.0391 8.5861 21.4142C8.96117 21.7893 9.46988 22 10.0003 22C10.5307 22 11.0395 21.7893 11.4145 21.4142C11.7896 21.0391 12.0003 20.5304 12.0003 20V19H18.0003V20C17.9953 24.416 14.4163 27.995 10.0003 28ZM19.0003 17.5C19.0003 17.6326 18.9476 17.7598 18.8539 17.8536C18.7601 17.9473 18.6329 18 18.5003 18H11.5003C11.3677 18 11.2405 17.9473 11.1468 17.8536C11.053 17.7598 11.0003 17.6326 11.0003 17.5V12.5C11.0003 12.3674 11.053 12.2402 11.1468 12.1464C11.2405 12.0527 11.3677 12 11.5003 12H18.5003C18.6329 12 18.7601 12.0527 18.8539 12.1464C18.9476 12.2402 19.0003 12.3674 19.0003 12.5V17.5ZM20.0003 8C19.4699 8 18.9612 8.21072 18.5861 8.58579C18.211 8.96086 18.0003 9.46957 18.0003 10V11H12.0003V10C12.0003 5.5815 15.5818 2 20.0003 2C24.4188 2 28.0003 5.5815 28.0003 10V27H22.0003V10C22.0003 9.46957 21.7896 8.96086 21.4145 8.58579C21.0395 8.21072 20.5307 8 20.0003 8ZM28.5003 29H21.5003C21.3677 29 21.2405 28.9473 21.1468 28.8536C21.053 28.7598 21.0003 28.6326 21.0003 28.5C21.0003 28.3674 21.053 28.2402 21.1468 28.1464C21.2405 28.0527 21.3677 28 21.5003 28H28.5003C28.6329 28 28.7601 28.0527 28.8539 28.1464C28.9476 28.2402 29.0003 28.3674 29.0003 28.5C29.0003 28.6326 28.9476 28.7598 28.8539 28.8536C28.7601 28.9473 28.6329 29 28.5003 29Z" fill="#F42408"/>
</svg>
