<svg width="37" height="38" viewBox="0 0 37 38" fill="none" xmlns="http://www.w3.org/2000/svg">
<g clip-path="url(#clip0_85_653)">
<mask id="mask0_85_653" style="mask-type:luminance" maskUnits="userSpaceOnUse" x="0" y="1" width="37" height="37">
<path d="M36.4999 37.5V1.50011H0.5V37.5H36.4999Z" fill="white" stroke="white"/>
</mask>
<g mask="url(#mask0_85_653)">
</g>
<g clip-path="url(#clip1_85_653)">
<path d="M21.4738 9.7378H12.0993C11.7498 9.7378 11.4665 9.45451 11.4665 9.10498C11.4665 8.75546 11.7498 8.47217 12.0993 8.47217H21.4738C21.6417 8.47217 21.8026 8.53884 21.9213 8.65752C22.04 8.77619 22.1066 8.93715 22.1066 9.10498C22.1066 9.27282 22.04 9.43377 21.9213 9.55245C21.8026 9.67113 21.6417 9.7378 21.4738 9.7378ZM4.80371 30.1786V3.41255C4.80371 1.84536 6.07876 0.570312 7.64595 0.570312H27.3487C28.9159 0.570312 30.191 1.84536 30.191 3.41255V9.90978C30.191 9.94367 30.1875 9.97665 30.1824 10.0091L32.3663 12.1973C32.9174 12.7494 33.1968 13.4249 33.1968 14.2051V33.5874C33.1968 35.1547 31.9218 36.4297 30.3546 36.4297H10.6518C9.08462 36.4297 7.80957 35.1546 7.80957 33.5874V33.0208H7.64595C6.07876 33.0208 4.80371 31.7458 4.80371 30.1786ZM31.9311 14.2051C31.9311 14.1017 31.922 14.0027 31.9052 13.9073H26.111C24.5437 13.9073 23.2687 12.6323 23.2687 11.0651V5.2688C23.175 5.25295 23.0801 5.24493 22.9851 5.24483H10.6518C9.78247 5.24483 9.0752 5.9521 9.0752 6.82145V33.5874C9.0752 34.4568 9.78247 35.1641 10.6518 35.1641H30.3546C31.2239 35.1641 31.9312 34.4568 31.9312 33.5874V14.2051H31.9311ZM24.5343 6.1418V11.065C24.5343 11.9344 25.2417 12.6416 26.111 12.6416H31.0217L24.5343 6.1418ZM6.06934 30.1786C6.06934 31.0479 6.77661 31.7552 7.64595 31.7552H7.80957V6.82145C7.80957 5.25425 9.08462 3.9792 10.6518 3.9792H22.9851C23.7673 3.9792 24.4442 4.25996 24.9968 4.8136L28.9253 8.74963V3.41255C28.9253 2.54321 28.218 1.83594 27.3486 1.83594H7.64595C6.77661 1.83594 6.06934 2.54321 6.06934 3.41255V30.1786ZM27.675 24.5638C27.675 28.5184 24.4577 31.7357 20.5032 31.7357C16.5486 31.7357 13.3313 28.5184 13.3313 24.5638C13.3313 20.6092 16.5486 17.3919 20.5032 17.3919C24.4577 17.3919 27.675 20.6092 27.675 24.5638ZM26.4094 24.5638C26.4094 21.3071 23.7599 18.6576 20.5032 18.6576C17.2465 18.6576 14.5969 21.3071 14.5969 24.5638C14.5969 27.8206 17.2465 30.4701 20.5032 30.4701C23.7599 30.4701 26.4094 27.8206 26.4094 24.5638ZM23.6482 22.7264L19.1714 25.5244L18.059 23.3407C17.9003 23.0292 17.519 22.9056 17.208 23.0641C16.8965 23.2227 16.7727 23.6038 16.9313 23.9152L18.3572 26.7143C18.3971 26.7925 18.4527 26.8616 18.5207 26.9171C18.5886 26.9726 18.6674 27.0134 18.752 27.0368C18.8365 27.0603 18.9251 27.0659 19.0119 27.0533C19.0988 27.0407 19.182 27.0102 19.2564 26.9637L24.3189 23.7996C24.3894 23.7556 24.4505 23.6981 24.4988 23.6304C24.547 23.5627 24.5815 23.4862 24.6002 23.4053C24.6189 23.3243 24.6214 23.2404 24.6077 23.1585C24.594 23.0765 24.5642 22.998 24.5202 22.9276C24.335 22.6313 23.9445 22.5411 23.6482 22.7264Z" fill="#F42408"/>
</g>
</g>
<defs>
<clipPath id="clip0_85_653">
<rect width="37" height="37" fill="white" transform="translate(0 0.5)"/>
</clipPath>
<clipPath id="clip1_85_653">
<rect width="36" height="36" fill="white" transform="translate(1 0.5)"/>
</clipPath>
</defs>
</svg>
