<svg width="18" height="18" viewBox="0 0 18 18" fill="none" xmlns="http://www.w3.org/2000/svg">
<path d="M0.000488281 9.09668C3.73713 9.21722 5.56993 9.30892 6.98682 10.4854C7.08125 10.5638 7.17396 10.647 7.26514 10.7354C8.67942 12.1946 8.77524 14.0143 8.90381 18C5.18823 18 2.62357 17.9869 1.29932 16.7012C0.0136353 15.3769 0.000488882 12.6901 0.000488281 9.09668ZM18.0005 9.09668C18.0005 12.6901 17.9873 15.3769 16.7017 16.7012C15.5429 17.8262 13.4344 17.977 10.436 17.9971L9.09717 18C9.20163 14.7616 9.28466 12.9534 10.0708 11.6064C10.2525 11.2957 10.4707 11.0089 10.7358 10.7354C10.827 10.647 10.9197 10.5638 11.0142 10.4854C11.203 10.3284 11.3998 10.1915 11.6069 10.0703C12.9539 9.28417 14.7621 9.20114 18.0005 9.09668ZM8.90381 0C8.79934 3.2384 8.71632 5.0466 7.93018 6.39355C7.74846 6.70429 7.53024 6.99111 7.26514 7.26465C5.80585 8.67893 3.9862 8.77475 0.000488281 8.90332C0.00048888 5.30988 0.0136358 2.62308 1.29932 1.29883C2.62357 0.0131465 5.19466 5.80215e-07 8.90381 0ZM9.09717 0C12.8127 5.81415e-07 15.3774 0.013146 16.7017 1.29883C17.9873 2.62308 18.0005 5.30988 18.0005 8.90332C14.0148 8.77475 12.1951 8.67893 10.7358 7.26465C9.32155 5.80536 9.21931 3.98571 9.09717 0Z" fill="white"/>
</svg>
