<svg width="21" height="18" viewBox="0 0 21 18" fill="none" xmlns="http://www.w3.org/2000/svg">
<path fill-rule="evenodd" clip-rule="evenodd" d="M18.4436 0.429965C18.6908 0.325956 18.9612 0.290084 19.2269 0.326082C19.4926 0.362081 19.7438 0.468633 19.9543 0.63465C20.1649 0.800667 20.3271 1.02008 20.424 1.27005C20.521 1.52002 20.5492 1.79141 20.5056 2.05597L18.2376 15.813C18.0176 17.14 16.5616 17.901 15.3446 17.24C14.3266 16.687 12.8146 15.835 11.4546 14.946C10.7746 14.501 8.69165 13.076 8.94765 12.062C9.16765 11.195 12.6676 7.93696 14.6676 5.99997C15.4526 5.23897 15.0946 4.79997 14.1676 5.49997C11.8656 7.23797 8.16965 9.88097 6.94765 10.625C5.86965 11.281 5.30765 11.393 4.63565 11.281C3.40965 11.077 2.27265 10.761 1.34465 10.376C0.0906457 9.85597 0.151646 8.13197 1.34365 7.62997L18.4436 0.429965Z" fill="white"/>
</svg>
