<svg width="19" height="18" viewBox="0 0 19 18" fill="none" xmlns="http://www.w3.org/2000/svg">
<path fill-rule="evenodd" clip-rule="evenodd" d="M4.6665 0C3.60564 0 2.58822 0.421427 1.83808 1.17157C1.08793 1.92172 0.666504 2.93913 0.666504 4V14C0.666504 15.0609 1.08793 16.0783 1.83808 16.8284C2.58822 17.5786 3.60564 18 4.6665 18H14.6665C15.7274 18 16.7448 17.5786 17.4949 16.8284C18.2451 16.0783 18.6665 15.0609 18.6665 14V4C18.6665 2.93913 18.2451 1.92172 17.4949 1.17157C16.7448 0.421427 15.7274 0 14.6665 0H4.6665ZM14.9985 7.055C15.1457 6.83434 15.1992 6.56424 15.1473 6.30413C15.0953 6.04402 14.9422 5.8152 14.7215 5.668C14.5008 5.5208 14.2307 5.4673 13.9706 5.51924C13.7105 5.57119 13.4817 5.72434 13.3345 5.945C12.9805 6.415 12.6095 6.865 12.1755 7.265C11.6725 7.729 11.1635 8.077 10.6675 8.283L10.6595 6.383C10.6308 6.13975 10.5139 5.91547 10.3309 5.75272C10.1478 5.58996 9.91144 5.50003 9.6665 5.5C9.1245 5.531 8.6665 5.931 8.6665 6.5V10.873C6.7185 10.333 5.6665 8.443 5.6665 6.5C5.6665 6.23478 5.56115 5.98043 5.37361 5.79289C5.18607 5.60536 4.93172 5.5 4.6665 5.5C4.40129 5.5 4.14693 5.60536 3.9594 5.79289C3.77186 5.98043 3.6665 6.23478 3.6665 6.5C3.6665 10.132 6.1765 13 9.6665 13C9.93172 13 10.1861 12.8946 10.3736 12.7071C10.5611 12.5196 10.6665 12.2652 10.6665 12V10.437C11.9985 10.543 13.2905 11.484 13.7725 12.447C13.8287 12.5686 13.9087 12.6776 14.0078 12.7677C14.1069 12.8578 14.2231 12.927 14.3495 12.9713C14.4759 13.0156 14.6098 13.0341 14.7435 13.0256C14.8772 13.0172 15.0078 12.982 15.1275 12.9221C15.2473 12.8622 15.3539 12.7788 15.4408 12.677C15.5278 12.5751 15.5934 12.4569 15.6338 12.3292C15.6742 12.2015 15.6885 12.067 15.6759 11.9337C15.6633 11.8003 15.6241 11.6709 15.5605 11.553C15.0825 10.596 14.1905 9.701 13.0925 9.117C13.2405 8.996 13.3875 8.868 13.5325 8.735C14.0834 8.23255 14.5753 7.66891 14.9985 7.055Z" fill="white"/>
</svg>
