<svg width="21" height="20" viewBox="0 0 21 20" fill="none" xmlns="http://www.w3.org/2000/svg">
<path fill-rule="evenodd" clip-rule="evenodd" d="M10.6665 0C5.1435 0 0.666504 4.477 0.666504 10C0.666504 11.89 1.1915 13.66 2.1045 15.168L1.2125 18.2C1.16129 18.3741 1.15792 18.5587 1.20275 18.7346C1.24758 18.9104 1.33895 19.0709 1.46726 19.1992C1.59557 19.3276 1.75609 19.4189 1.93192 19.4638C2.10776 19.5086 2.29242 19.5052 2.4665 19.454L5.4985 18.562C7.05718 19.5051 8.84472 20.0025 10.6665 20C16.1895 20 20.6665 15.523 20.6665 10C20.6665 4.477 16.1895 0 10.6665 0ZM8.4045 12.263C10.4275 14.285 12.3585 14.552 13.0405 14.577C14.0775 14.615 15.0875 13.823 15.4805 12.904C15.5301 12.7897 15.5481 12.6641 15.5326 12.5405C15.5172 12.4168 15.4688 12.2996 15.3925 12.201C14.8445 11.501 14.1035 10.998 13.3795 10.498C13.2283 10.3935 13.0426 10.3516 12.8612 10.381C12.6798 10.4105 12.5168 10.509 12.4065 10.656L11.8065 11.571C11.775 11.6202 11.7258 11.6555 11.6691 11.6696C11.6124 11.6837 11.5524 11.6756 11.5015 11.647C11.0945 11.414 10.5015 11.018 10.0755 10.592C9.6495 10.166 9.2775 9.6 9.0685 9.219C9.04259 9.17059 9.0351 9.11444 9.04742 9.06093C9.05974 9.00743 9.09103 8.9602 9.1355 8.928L10.0595 8.242C10.1914 8.12734 10.2765 7.9682 10.2986 7.79486C10.3207 7.62153 10.2783 7.44611 10.1795 7.302C9.7315 6.646 9.2095 5.812 8.4525 5.259C8.35481 5.1882 8.24037 5.14406 8.12044 5.13091C8.00051 5.11776 7.87922 5.13606 7.7685 5.184C6.8485 5.578 6.0525 6.588 6.0905 7.627C6.1155 8.309 6.3825 10.24 8.4045 12.263Z" fill="white"/>
</svg>
