<svg width="7" height="5" viewBox="0 0 7 5" fill="none" xmlns="http://www.w3.org/2000/svg">
<path d="M5.54189 0.416518C5.63811 0.321143 5.76799 0.267466 5.90347 0.267092C6.03895 0.266718 6.16913 0.319678 6.26587 0.414521C6.36261 0.509364 6.41813 0.638471 6.42044 0.773928C6.42275 0.909385 6.37166 1.04031 6.2782 1.13839L3.5337 4.56902C3.48654 4.61982 3.42961 4.66059 3.36632 4.6889C3.30303 4.7172 3.23469 4.73244 3.16538 4.73373C3.09606 4.73501 3.0272 4.7223 2.96291 4.69637C2.89862 4.67043 2.84022 4.63179 2.7912 4.58277L0.972767 2.76364C0.922107 2.71644 0.881474 2.65951 0.853292 2.59626C0.82511 2.53301 0.809957 2.46474 0.808735 2.3955C0.807513 2.32627 0.820249 2.2575 0.846183 2.1933C0.872116 2.12909 0.910715 2.07077 0.959678 2.0218C1.00864 1.97284 1.06696 1.93424 1.13117 1.90831C1.19537 1.88238 1.26414 1.86964 1.33338 1.87086C1.40261 1.87208 1.47089 1.88724 1.53414 1.91542C1.59739 1.9436 1.65431 1.98423 1.70152 2.03489L3.14114 3.47383L5.52883 0.431644C5.53309 0.426317 5.53768 0.421265 5.54258 0.416518H5.54189Z" fill="#9e9e9e"/>
</svg>
