<svg width="64" height="97" viewBox="0 0 64 97" fill="none" xmlns="http://www.w3.org/2000/svg">
<g clip-path="url(#clip0_27_19353)">
<mask id="mask0_27_19353" style="mask-type:luminance" maskUnits="userSpaceOnUse" x="15" y="0" width="31" height="29">
<path d="M15.1543 0.84668H45.1553V28.7373H15.1543V0.84668Z" fill="white"/>
</mask>
<g mask="url(#mask0_27_19353)">
<path d="M19.6 8.52249C18.1132 8.41263 16.9119 7.40189 16.5823 6.01761C16.2601 4.64798 16.6336 2.86087 17.9813 2.21634C19.0287 1.71829 20.4277 1.58645 21.5776 1.52054C26.7267 1.23489 31.8758 1.05911 37.0322 0.88333C37.7866 0.854033 38.563 0.985869 39.3101 1.12503C40.8702 1.418 42.0275 2.28958 42.4743 3.84964C42.9211 5.41702 42.3351 6.67679 41.1925 7.81937C37.1421 11.8843 33.1503 16.0078 29.1365 20.1094C28.9973 20.2559 28.9021 20.439 28.5432 20.9444C29.9129 20.9004 31.0335 20.8638 32.1541 20.8272C34.6664 20.7466 37.1714 20.6294 39.6764 20.6221C40.4161 20.6148 41.2145 20.8125 41.881 21.1348C43.1775 21.7647 43.8586 22.9219 43.844 24.3721C43.8293 25.9102 43.0529 27.0967 41.6393 27.6607C40.8263 27.9903 39.8814 28.1001 38.9952 28.1221C33.2089 28.2613 27.4225 28.3418 21.6362 28.481C19.8271 28.5249 18.0912 28.4883 17.1537 26.562C16.2308 24.6651 16.8607 23.0464 18.0399 21.4864C21.1382 17.3921 24.7198 13.7593 28.5139 10.3242C29.3269 9.5845 30.096 8.79349 30.909 8.05374C27.5544 8.1929 20.0175 8.55179 19.6 8.52249Z" fill="white"/>
</g>
<mask id="mask1_27_19353" style="mask-type:luminance" maskUnits="userSpaceOnUse" x="44" y="29" width="20" height="22">
<path d="M44.1953 29.6675H63.2828V50.7979H44.1953V29.6675Z" fill="white"/>
</mask>
<g mask="url(#mask1_27_19353)">
<path d="M52.8091 46.1763C54.4718 46.0884 55.6217 46.0298 56.7716 45.9639C57.885 45.898 58.9983 45.7881 60.1116 45.7515C62.0379 45.7002 63.2172 46.5645 63.2831 48.0293C63.349 49.4868 62.2064 50.4756 60.324 50.5635C59.0715 50.6221 57.819 50.6953 56.5666 50.7173C54.0543 50.7539 51.5493 50.8272 49.037 50.7612C46.598 50.6953 46.034 49.2817 46.0853 47.707C46.1219 46.689 47.6307 44.7481 48.4804 43.708C50.5166 41.2178 55.1529 35.3218 55.629 34.5967C53.0874 34.7798 48.8466 35.0068 47.118 34.9556C45.5652 34.9116 44.4519 34.2232 44.2395 32.9561C44.0491 31.7915 44.7742 30.627 46.1439 30.29C47.1546 30.041 50.3481 30.0996 51.3882 30.0337C54.4425 29.8579 56.3908 29.7554 58.4709 29.6821C61.8475 29.565 62.807 32.0479 61.2396 34.3916C59.0935 37.5923 53.6221 45.1289 52.8091 46.1763Z" fill="white"/>
</g>
<path d="M29.7517 66.6768C31.9564 66.5962 33.619 66.5303 35.2817 66.479C35.831 66.4644 36.4023 66.4351 36.937 66.5376C37.7134 66.6768 38.1895 67.2773 38.1529 68.0171C38.1089 68.7495 37.8599 69.1304 37.4058 69.4526C36.9956 69.7529 36.124 69.8042 35.5747 69.8408C32.6522 70.0093 29.7298 70.1411 26.8073 70.2803C26.463 70.2949 26.1042 70.3096 25.7672 70.2437C24.3829 69.9873 23.7676 68.7788 24.5147 67.5923C25.0641 66.7061 25.8185 65.959 26.4923 65.1533C28.0085 63.3589 29.5247 61.5571 31.2825 59.4697C30.052 59.4697 26.9831 59.5576 26.1115 59.5723C25.3424 59.5869 24.3683 59.2793 24.1851 58.4736C23.9874 57.5947 24.4122 56.7158 25.2618 56.4595C26.3166 56.1299 31.5169 56.042 33.956 56.042C35.4209 56.042 36.2119 56.3862 36.5269 56.9722C37.0103 57.873 36.5269 58.6934 35.9995 59.2939C34.3075 61.2495 32.6156 63.2051 30.931 65.1606C30.6233 65.5122 30.3597 65.8931 29.7517 66.6768Z" fill="white"/>
<path d="M12.4731 72.7046C14.8389 72.7632 16.8239 74.8799 16.7433 77.253C16.6554 79.6553 14.5899 81.5669 12.1728 81.4571C9.84367 81.3545 8.00523 79.4063 8.03453 77.0552C8.06382 74.6309 10.1 72.646 12.4731 72.7046Z" fill="white"/>
<path d="M5.19309 84.3722C6.60671 84.4234 7.80792 85.7564 7.72735 87.1847C7.66143 88.525 6.43824 89.7042 5.11252 89.7042C3.70622 89.7042 2.46107 88.4151 2.47571 86.9869C2.49769 85.5294 3.76482 84.3136 5.19309 84.3722Z" fill="white"/>
<mask id="mask2_27_19353" style="mask-type:luminance" maskUnits="userSpaceOnUse" x="0" y="94" width="3" height="3">
<path d="M0 94.4209H2.10212V96.4497H0V94.4209Z" fill="white"/>
</mask>
<g mask="url(#mask2_27_19353)">
<path d="M2.09487 95.4389C2.08755 96.1054 1.67738 96.3837 1.12804 96.4423C0.505466 96.5156 -0.00724832 96.1274 7.75442e-05 95.4389C7.75442e-05 94.8383 0.542088 94.4355 0.988879 94.4282C1.55286 94.4135 2.1022 94.8237 2.09487 95.4389Z" fill="white"/>
</g>
</g>
<defs>
<clipPath id="clip0_27_19353">
<rect width="63.2831" height="95.603" fill="white" transform="translate(0 0.84668)"/>
</clipPath>
</defs>
</svg>
