<svg width="64" height="71" viewBox="0 0 64 71" fill="none" xmlns="http://www.w3.org/2000/svg">
<path fill-rule="evenodd" clip-rule="evenodd" d="M28.17 3.43506C28.17 1.53809 29.7301 0 31.6491 0C33.5681 0 35.1209 1.53809 35.1209 3.43506V40.2612L43.273 32.2119C46.5617 29.0771 51.3592 33.8306 48.1877 37.0679L34.1028 50.9766C32.7917 52.2803 30.4991 52.3242 29.1881 50.9766L15.1031 37.0679C11.9243 33.8232 16.7438 29.0771 20.0252 32.2119L28.17 40.2612V3.43506ZM0 48.5449C0 46.6479 1.56011 45.1172 3.47912 45.1172C5.39813 45.1172 6.95823 46.6479 6.95823 48.5449V53.6133C6.95823 59.3848 11.7191 64.0796 17.564 64.0796H45.7266C51.5788 64.0796 56.3324 59.3848 56.3324 53.6133V48.5449C56.3324 46.6479 57.8925 45.1172 59.8115 45.1172C61.7305 45.1172 63.2906 46.6479 63.2906 48.5449V53.6133C63.2906 63.1714 55.4095 70.9497 45.7266 70.9497H17.564C7.88112 70.9497 0 63.1714 0 53.6133V48.5449Z" fill="#FF0000"/>
</svg>
