<svg width="86" height="86" viewBox="0 0 86 86" fill="none" xmlns="http://www.w3.org/2000/svg">
<path d="M85.7394 81.4893V8.57666C85.7394 8.00537 85.6296 7.46338 85.4173 6.93604C85.1977 6.40869 84.8902 5.94727 84.4876 5.54443C84.0849 5.1416 83.6237 4.83398 83.0966 4.61426C82.5695 4.39453 82.0205 4.29199 81.4568 4.29199H42.8697C42.306 4.29199 41.757 4.39453 41.2299 4.61426C40.7028 4.83398 40.2416 5.1416 39.8389 5.54443C39.4363 5.94727 39.1288 6.40869 38.9092 6.93604C38.6969 7.46338 38.5871 8.00537 38.5871 8.57666C38.5871 9.14795 38.6969 9.68994 38.9092 10.2173C39.1288 10.7446 39.4363 11.2061 39.8389 11.6089C40.2416 12.0117 40.7028 12.3193 41.2299 12.5391C41.757 12.7588 42.306 12.8687 42.8697 12.8687H77.1669V77.2046H12.8624V42.8906C12.8624 42.3193 12.7526 41.7773 12.5329 41.25C12.3206 40.7227 12.0059 40.2612 11.6105 39.8584C11.2079 39.4556 10.7394 39.1479 10.2196 38.9282C9.69253 38.7085 9.14349 38.5986 8.57247 38.5986C8.00879 38.5986 7.45974 38.7085 6.93265 38.9282C6.41289 39.1479 5.94436 39.4556 5.54173 39.8584C5.13909 40.2612 4.83163 40.7227 4.61201 41.25C4.39971 41.7773 4.2899 42.3193 4.2899 42.8906V81.4893C4.2899 82.0605 4.39971 82.6099 4.61201 83.1299C4.83163 83.6572 5.13909 84.1187 5.54173 84.5215C5.94436 84.9243 6.41289 85.2393 6.93265 85.4517C7.45974 85.6714 8.00879 85.7812 8.57247 85.7812H81.4568C82.0205 85.7812 82.5695 85.6714 83.0966 85.4517C83.6237 85.2393 84.0849 84.9243 84.4876 84.5215C84.8902 84.1187 85.1977 83.6572 85.4173 83.1299C85.6296 82.6099 85.7394 82.0605 85.7394 81.4893ZM6.62518 1.25244C7.02782 0.856933 7.48902 0.541993 8.01611 0.322266C8.54319 0.109864 9.09224 0 9.65593 0C10.2269 0 10.776 0.109864 11.3031 0.322266C11.8228 0.541993 12.2914 0.856933 12.694 1.25244L41.0981 29.6777V41.1108H29.6632L1.25915 12.6929C0.856515 12.29 0.549047 11.8286 0.329429 11.3013C0.109811 10.7739 0 10.2319 0 9.66064C0 9.08936 0.109811 8.54736 0.329429 8.02002C0.549047 7.49268 0.856515 7.03125 1.25915 6.62842L6.62518 1.25244Z" fill="#FF3901"/>
</svg>
