<svg width="138" height="60" viewBox="0 0 138 60" fill="none" xmlns="http://www.w3.org/2000/svg">
<mask id="mask0_1_397" style="mask-type:alpha" maskUnits="userSpaceOnUse" x="0" y="0" width="138" height="60">
<rect x="137.303" y="59.4978" width="137.303" height="59.4979" transform="rotate(-180 137.303 59.4978)" fill="#D9D9D9"/>
</mask>
<g mask="url(#mask0_1_397)">
<path fill-rule="evenodd" clip-rule="evenodd" d="M52.3197 34.3108L53.5246 35.7027L51.8143 36.3432C48.6082 37.5439 43.498 40.3309 38.9359 43.4518C35.2092 46.0013 31.8912 48.7412 30.376 50.9516L28.6395 53.4846L28.0788 50.4642C26.9368 44.3134 25.8212 38.3039 24.8279 32.767C23.8472 27.2999 23.0354 22.5676 22.5344 19.158C22.0106 15.5925 21.8213 13.4155 21.9178 12.0245C22.0491 10.1322 22.6762 9.36453 23.7044 8.88742C24.5935 8.47481 25.7628 8.35388 27.4737 9.1324C28.8769 9.77085 30.7578 11.0843 33.3559 13.5238C38.3554 18.2182 44.4744 25.2698 52.3197 34.3108ZM49.2571 34.6542C42.0117 26.3071 36.2903 19.763 31.6155 15.3735C29.2526 13.1547 27.6034 11.9882 26.4196 11.4495C25.5435 11.0509 25.0687 11.0553 24.7685 11.1946C24.6076 11.2692 24.5021 11.4945 24.4537 12.1936C24.3704 13.3941 24.5536 15.4077 25.0505 18.7901C25.5703 22.3281 26.3706 27.0042 27.3241 32.3195C28.1328 36.8277 29.0895 42.0024 30.0843 47.3637C31.9818 45.4094 34.6395 43.3129 37.5038 41.3535C41.4963 38.6223 45.9348 36.1242 49.2571 34.6542Z" fill="#2B2A28"/>
<path fill-rule="evenodd" clip-rule="evenodd" d="M89.5237 34.7089L89.5312 34.7L89.5312 34.6952C97.0973 25.6615 103.237 18.3306 108.08 13.619C110.587 11.1804 112.407 9.86475 113.769 9.22254C115.447 8.43154 116.598 8.55618 117.474 8.97767C118.473 9.45795 119.084 10.2151 119.211 12.0942C119.304 13.4754 119.121 15.6495 118.614 19.2283C118.117 22.7333 117.316 27.5704 116.361 33.0787C115.495 38.0776 114.336 44.549 113.172 51.0436L112.659 53.9044L110.909 51.5856C108.989 49.0413 105.62 46.1358 101.956 43.5191C97.7709 40.5302 93.2393 37.944 90.0409 36.703L88.3935 36.0639L89.5237 34.7089ZM109.85 15.4388C105.351 19.8163 99.6031 26.6302 92.5733 35.0213C95.7628 36.4729 99.7402 38.8168 103.428 41.4504C106.336 43.5266 109.08 45.7944 111.147 47.9655C112.056 42.8896 112.962 37.8032 113.855 32.6509C114.814 27.1178 115.614 22.2946 116.098 18.8801C116.58 15.4829 116.756 13.4662 116.675 12.2631C116.627 11.5576 116.529 11.3363 116.38 11.2648C116.109 11.1343 115.672 11.1336 114.853 11.5197C113.719 12.0546 112.132 13.219 109.85 15.4388Z" fill="#2B2A28"/>
<path fill-rule="evenodd" clip-rule="evenodd" d="M42.9351 37.1971C41.3005 35.4722 39.8566 34.035 38.5327 32.773C36.9475 31.2616 35.5033 29.9803 34.1045 28.7489C32.8262 27.6236 31.9565 27.0414 31.3498 26.7826C31.1992 26.7184 31.0904 26.6797 31.0114 26.6588C30.9681 27.2493 31.0678 28.2613 31.3359 29.9732C31.6091 31.7162 32.0457 34.1063 32.5791 36.8964C32.9562 38.8692 33.4079 41.1665 33.8907 43.6089C35.0288 42.5499 36.4272 41.4281 37.8633 40.3899C39.6118 39.126 41.4384 37.9723 42.9351 37.1971ZM40.2831 30.9332C41.9184 32.4923 43.7698 34.3541 46.0015 36.7652L47.3139 38.1832L45.4893 38.8238C44.0853 39.3168 41.671 40.7671 39.3451 42.4485C37.1937 44.0037 35.1572 45.7326 34.1197 47.0508L32.4097 49.2233L31.8722 46.5088C31.2399 43.3164 30.6364 40.2689 30.083 37.3739C29.5635 34.6571 29.1276 32.2608 28.8299 30.3611C28.5276 28.4317 28.4188 27.2467 28.4757 26.478C28.5711 25.1895 29.0451 24.6586 29.8242 24.3196C30.4363 24.0532 31.2255 23.9683 32.3443 24.4457C33.1843 24.804 34.2889 25.5223 35.7852 26.8396C37.1609 28.0507 38.5926 29.3216 40.2831 30.9332ZM30.9085 26.6393C30.8789 26.6372 30.8577 26.6394 30.8423 26.6451L30.8705 26.6473L30.9085 26.6393ZM30.8423 26.6451L30.8385 26.6467C30.7862 26.6695 30.8197 26.6588 30.8705 26.6473L30.8423 26.6451Z" fill="#2B2A28"/>
<path fill-rule="evenodd" clip-rule="evenodd" d="M95.4645 37.2675L95.4941 37.2358C99.8975 32.5046 102.555 29.6498 105.399 27.1596C106.905 25.8412 108.014 25.1231 108.857 24.7658C109.976 24.2911 110.764 24.3752 111.376 24.6396C112.16 24.9791 112.637 25.5089 112.732 26.7932L112.732 26.798C112.789 27.5669 112.68 28.7519 112.376 30.681C112.077 32.5815 111.659 34.8752 111.157 37.4878C110.596 40.4115 110.021 43.2973 109.399 46.4216L108.994 48.4548L107.365 47.1675C105.707 45.8569 102.716 43.5557 100.04 41.7255C98.3469 40.5675 96.828 39.6281 95.9766 39.3309L94.1401 38.6898L95.4645 37.2675ZM107.069 29.069C104.592 31.2378 102.191 33.7733 98.495 37.7404C99.3802 38.2391 100.404 38.8967 101.472 39.6273C103.436 40.9706 105.61 42.5987 107.305 43.9055C107.825 41.291 108.296 38.9087 108.661 37.0105C109.177 34.3224 109.595 32.0356 109.87 30.2932C110.139 28.5842 110.24 27.5727 110.197 26.9821C110.197 26.9789 110.196 26.9784 110.197 26.9754C110.114 26.9958 110 27.0354 109.841 27.1027C109.229 27.3625 108.353 27.9448 107.069 29.069ZM110.367 26.9651C110.349 26.9584 110.324 26.9556 110.288 26.9588C110.304 26.9609 110.32 26.9642 110.336 26.9673L110.367 26.9651ZM110.376 26.9689L110.351 26.9705C110.394 26.98 110.418 26.9872 110.376 26.9689Z" fill="#2B2A28"/>
<path fill-rule="evenodd" clip-rule="evenodd" d="M16.4577 117.075L16.4577 87.5359C16.4577 72.3985 22.5596 58.6401 32.3857 48.6782C33.8873 47.1561 35.4756 45.7225 37.1425 44.3863C39.7692 42.2806 42.5905 40.4166 45.5737 38.8278C47.6329 37.7309 49.7692 36.7654 51.9714 35.9421C57.7519 33.7812 63.9878 32.6003 70.4819 32.6003C77.2338 32.6003 83.7066 33.8769 89.6786 36.2042C91.6676 36.9792 93.6011 37.8709 95.4709 38.8709C98.8817 40.695 102.08 42.8791 105.017 45.3731C105.88 46.1059 106.72 46.8652 107.537 47.6502C117.971 57.6824 124.506 71.8708 124.506 87.5359L124.506 117.075C125.077 117.573 125.645 118.075 126.211 118.579L126.215 118.027L126.215 89.58L126.214 87.0175C126.214 84.9595 126.101 82.9266 125.882 80.9246C124.571 69.0063 119.462 58.1874 111.801 49.7143C111.165 49.0119 110.513 48.3255 109.843 47.656C109.212 47.0246 108.565 46.4082 107.905 45.8072C104.464 42.6782 100.633 39.9712 96.4968 37.7704C94.6015 36.7622 92.6421 35.86 90.6267 35.0723C84.3713 32.6275 77.5757 31.2842 70.4816 31.2842C63.6361 31.2842 57.0686 32.5349 50.9962 34.8192C48.7783 35.6536 46.6265 36.6259 44.5514 37.7254C40.3958 39.9271 36.5477 42.6392 33.0919 45.7768C32.4195 46.3872 31.7619 47.0139 31.1198 47.656C30.4908 48.285 29.8766 48.9289 29.2779 49.5872C20.2615 59.4983 14.748 72.6454 14.748 87.0175L14.748 118.027L14.7518 118.579C15.3187 118.075 15.8865 117.573 16.4577 117.075Z" fill="#2B2A28"/>
<path fill-rule="evenodd" clip-rule="evenodd" d="M17.476 87.5361L17.476 117.538L17.126 117.843C16.5682 118.329 16.3337 118.533 16.2756 118.585C16.034 118.798 16.0706 118.768 15.4285 119.339L13.7536 120.826L13.7341 118.031L13.7303 118.028L13.7303 87.0178C13.7303 79.8455 15.082 72.9672 17.5436 66.6257C20.1 60.0403 23.8512 54.0426 28.5265 48.9032C28.8151 48.586 29.1236 48.2552 29.4518 47.9111C29.8143 47.5311 30.1303 47.2063 30.4004 46.9362C30.6778 46.6588 31.0095 46.3362 31.3953 45.9685C31.7462 45.6342 32.0839 45.3196 32.4082 45.0252C34.1723 43.4235 36.0373 41.9304 37.992 40.5571C39.9333 39.1931 41.9658 37.946 44.0785 36.8266C45.142 36.2631 46.2206 35.7344 47.3125 35.2421C48.3967 34.7532 49.506 34.2949 50.6387 33.8687C53.7635 32.6933 57.0235 31.7859 60.39 31.1752C63.6811 30.5781 67.0545 30.2661 70.4822 30.2661C74.0394 30.2661 77.532 30.6005 80.9293 31.2392C84.4076 31.8933 87.7743 32.8662 90.9972 34.1258C92.0009 34.5182 93.0095 34.9475 94.0212 35.4125C95.0556 35.8879 96.0404 36.3747 96.9747 36.8717C99.0679 37.9854 101.09 39.2311 103.03 40.5979C104.977 41.9692 106.833 43.4588 108.589 45.0557C108.908 45.3454 109.24 45.6551 109.586 45.9847C109.967 46.3479 110.293 46.6652 110.564 46.9363C110.857 47.2294 111.193 47.5751 111.571 47.9729C111.869 48.2864 112.197 48.6404 112.553 49.0344C116.513 53.414 119.801 58.4037 122.253 63.8375C124.637 69.1219 126.234 74.8325 126.893 80.8175C127.004 81.8338 127.088 82.8652 127.145 83.9108C127.203 84.971 127.232 86.0071 127.232 87.0178L127.229 87.0178L127.23 89.5803L127.234 89.5803L127.234 118.028L127.23 118.031L127.211 120.826L125.536 119.339C124.905 118.778 124.918 118.787 124.689 118.585C124.625 118.529 124.388 118.322 123.838 117.843L123.488 117.538L123.488 87.5361C123.488 79.9922 121.947 72.8013 119.17 66.2727C116.28 59.4812 112.054 53.4015 106.833 48.3822C106.405 47.971 105.999 47.5912 105.614 47.2434C105.238 46.9038 104.82 46.5388 104.361 46.1489C102.915 44.9211 101.405 43.7697 99.8362 42.7012C98.2684 41.6333 96.6521 40.6527 94.9942 39.766C94.0929 39.284 93.1567 38.8192 92.1867 38.3726C91.2296 37.932 90.2713 37.5244 89.3132 37.151C86.3492 35.9959 83.2577 35.1045 80.0671 34.5055C76.9655 33.9233 73.7621 33.6189 70.4826 33.6189C67.3209 33.6189 64.236 33.9002 61.2502 34.4392C58.1793 34.9936 55.1962 35.8201 52.3261 36.8929C51.2702 37.2876 50.2098 37.7255 49.147 38.2049C48.0766 38.6877 47.0445 39.1942 46.0517 39.7229C44.5893 40.5018 43.1683 41.3466 41.7933 42.2532C40.4205 43.1582 39.0811 44.1346 37.7796 45.178C36.9712 45.8261 36.1724 46.5062 35.3846 47.2169C34.5945 47.9298 33.836 48.6548 33.1104 49.3904C28.193 54.3756 24.2258 60.3284 21.5181 66.9342C18.9154 73.2836 17.4767 80.2438 17.4767 87.5361L17.476 87.5361Z" fill="#2B2A28"/>
</g>
</svg>
