<svg width="62" height="62" viewBox="0 0 62 62" fill="none" xmlns="http://www.w3.org/2000/svg">
<g id="image1" clip-path="url(#clip0_27_19132)">
<g id="g40">
<path id="path42" fill-rule="evenodd" clip-rule="evenodd" d="M32.8191 41.3726C32.6868 41.4109 32.5517 41.4504 32.4148 41.4903L31.8363 41.662L31.2376 41.7783C30.838 41.8597 30.4344 41.9426 30.021 41.9626C28.3746 42.138 26.6481 42.0071 24.9718 41.5464C21.6133 40.642 18.4925 38.3719 16.5647 35.1915C14.6247 32.0339 13.8647 27.9806 14.8684 24.1374C15.8171 20.319 18.5397 16.7579 22.316 15.0764C26.0464 13.3308 30.5138 13.4746 34.0389 15.2447C37.6009 16.9789 40.21 20.1546 41.3735 23.6703C42.569 27.1889 42.291 31.0398 40.8186 34.1897C40.0906 35.7687 39.078 37.1737 37.8864 38.3241C37.5729 38.5962 37.263 38.8649 36.9539 39.132C36.8024 39.2692 36.6252 39.3702 36.4628 39.4917L36.2186 39.6643C36.1619 39.7068 36.1069 39.7489 36.053 39.7892C35.6325 40.1346 35.2399 40.3635 34.9952 40.5818C34.7428 40.7855 34.639 40.9975 34.639 40.9975C34.6389 40.9975 34.4192 40.9722 34.0946 41.0274C33.7663 41.0701 33.3534 41.2652 32.8191 41.3726Z" fill="#FCB900"/>
<path id="path44" fill-rule="evenodd" clip-rule="evenodd" d="M14.0932 23.977C13.0431 28.031 13.8575 32.2902 15.9021 35.5906C17.936 38.9201 21.2209 41.2904 24.756 42.2257C26.521 42.7025 28.3399 42.8319 30.0741 42.639C30.5101 42.6146 30.9345 42.5261 31.3553 42.4385L31.9855 42.3122L32.595 42.1278C32.7376 42.0817 32.8787 42.0364 33.0155 41.9926C33.5604 41.8206 33.9629 41.543 34.2434 41.3651C34.5162 41.1675 34.6391 40.9976 34.6391 40.9976C34.639 40.9977 34.8605 41.0304 35.1769 40.9194C35.4812 40.7943 35.9634 40.6736 36.4289 40.3416C36.4892 40.3035 36.5507 40.2638 36.6136 40.2238L36.8743 40.0443C37.0452 39.9191 37.2331 39.8113 37.3941 39.6686C37.721 39.3882 38.0509 39.1055 38.3829 38.8212C39.65 37.613 40.7252 36.1345 41.4998 34.4742C43.0644 31.1605 43.3668 27.1103 42.1201 23.4138C40.9058 19.7226 38.171 16.3783 34.4159 14.5475C30.7033 12.677 25.9566 12.5145 21.9912 14.3726C17.975 16.1563 15.0836 19.948 14.0932 23.977ZM1.72427 27.7156L1.69645 27.5174L1.69313 27.4918L1.64646 27.2377C1.62799 27.1305 1.61899 27.0219 1.60476 26.9135C1.54256 26.4826 1.51651 26.0458 1.4997 25.6069C1.47227 24.7278 1.55732 23.8379 1.75979 22.9651C2.15315 21.2106 3.10898 19.5768 4.54042 18.313C6.01947 16.9784 7.33614 15.3856 8.28123 13.5704C8.77543 12.673 9.13157 11.7117 9.46396 10.7486C9.7709 9.75546 10.0096 8.83788 10.4928 7.96473C11.4085 6.22321 12.8497 4.66942 14.6837 3.78701C16.5095 2.87978 18.6725 2.80583 20.6975 3.1716C21.7184 3.37887 22.7613 3.70234 23.9112 3.77444C24.4756 3.82261 25.0513 3.73936 25.6205 3.72149L27.2874 3.36115C29.4643 2.68545 31.4421 1.71812 33.6111 1.42338C35.7499 1.06533 37.9986 1.25035 39.8941 2.22004C40.8413 2.69468 41.6922 3.34637 42.414 4.12246C42.7702 4.51159 43.1022 4.93072 43.4197 5.37743C43.7491 5.80917 44.0642 6.25502 44.3709 6.71216C45.6173 8.50173 46.7875 10.4921 48.6522 11.9206L49.3588 12.4312C49.4781 12.5145 49.5936 12.6039 49.7157 12.6818L50.1032 12.8858C50.6146 13.1505 51.159 13.4429 51.6328 13.6694C52.6071 14.1561 53.4942 14.8107 54.2884 15.5617C55.8813 17.068 57.1085 18.9484 58.0227 20.9579C58.4822 21.9634 58.8636 23.0068 59.1586 24.0755L59.3623 24.8805L59.4913 25.6952L59.6221 26.5085L59.6498 27.3381C59.738 29.5519 59.2016 31.7989 59.102 34.132C59.1133 34.7157 59.1078 35.2999 59.1402 35.8829L59.3862 37.6126C59.616 38.7055 59.7662 39.816 59.8514 40.9298C60.0243 43.1548 59.8747 45.4212 59.2544 47.5675C58.9502 48.6425 58.486 49.6669 57.9326 50.638C57.3318 51.5796 56.663 52.4935 55.818 53.2433C55.4244 53.6473 54.9714 53.9839 54.5146 54.319C54.0803 54.675 53.5634 54.9446 53.0881 55.2594C52.1028 55.8371 51.0869 56.3626 50.026 56.7657C47.914 57.612 45.6681 58.017 43.416 58.1771C41.1602 58.3526 38.8858 58.3118 36.6044 58.5136C34.3168 58.7097 32.1024 59.1424 29.8957 59.4868C27.6914 59.8445 25.5032 60.1728 23.3306 60.3662C21.1617 60.5541 18.9956 60.6247 16.9215 60.3352C16.3946 60.2918 15.9034 60.1378 15.397 60.0354C14.8997 59.9119 14.4343 59.7126 13.9635 59.5393C13.0901 59.097 12.2336 58.5213 11.464 57.8669C8.33037 55.3132 6.01988 51.9605 4.72589 48.3688C4.09155 46.5663 3.72287 44.6965 3.64388 42.8338C3.57663 40.9631 3.61832 39.0633 3.55413 37.2238C3.49359 36.2978 3.43359 35.3799 3.37339 34.4696C3.19905 33.5729 3.07569 32.6667 2.85993 31.8008C2.80094 31.6074 2.74437 31.415 2.68756 31.2252L2.65574 31.1277C2.47352 30.6203 2.30736 30.2025 2.14761 29.9241C1.98353 29.6488 1.82678 29.5137 1.82678 29.5137C1.82678 29.5137 1.91096 29.2976 1.87938 28.9863C1.84208 28.6755 1.80715 28.2321 1.72427 27.7156Z" fill="#F9F1DF"/>
<path id="path46" fill-rule="evenodd" clip-rule="evenodd" d="M34.4157 14.548C30.703 12.6774 25.9563 12.5149 21.9909 14.3729C18.6087 15.8755 16.0277 18.8042 14.7046 22.098C16.3742 16.1442 21.8635 13.2815 25.9529 12.0746C30.1788 10.827 36.4306 12.4732 40.5274 19.0467C43.9526 24.5437 42.9172 29.9743 42.4843 31.6114C43.1049 28.9701 43.026 26.1007 42.1199 23.4142C40.9055 19.7229 38.1708 16.3787 34.4157 14.548Z" fill="#DBD0C3"/>
<path id="path48" fill-rule="evenodd" clip-rule="evenodd" d="M27.1335 15.5403C22.171 15.3857 17.758 18.8476 15.7834 21.5996C17.1104 18.8015 19.3956 16.3764 22.316 15.0762C26.0464 13.3306 30.5138 13.4744 34.0389 15.2444C37.6009 16.9787 40.21 20.1543 41.3735 23.6701C42.262 26.2863 42.333 29.0862 41.7077 31.6449C42.3053 20.5348 32.9945 15.7225 27.1335 15.5403Z" fill="#F39000"/>
<path id="path50" fill-rule="evenodd" clip-rule="evenodd" d="M58.9702 26.3456C59.1951 23.1112 56.6149 19.1942 53.0895 17.0299C49.5646 14.8655 49.0065 17.1841 45.663 13.3151C42.3201 9.44624 42.3878 5.42628 37.7353 3.48682C33.0833 1.54762 28.1568 6.20684 24.9457 7.22985C21.7345 8.25323 18.4884 4.12112 14.829 5.14701C11.1695 6.1729 10.7083 9.84563 10.2224 14.392C9.73659 18.9388 6.9321 18.2553 3.84767 21.1569C0.76352 24.058 2.14723 29.9239 2.14723 29.9239C1.98314 29.6486 1.82639 29.5135 1.82639 29.5135C1.82639 29.5135 1.91059 29.2974 1.87901 28.986C1.84171 28.6752 1.80708 28.2318 1.7242 27.7153L1.69639 27.517L1.69307 27.4914L1.64639 27.2373C1.62792 27.1301 1.61893 27.0215 1.60469 26.9132C1.54249 26.4822 1.51644 26.0454 1.49963 25.6065C1.47221 24.7275 1.55726 23.8375 1.75973 22.9647C2.15308 21.2103 3.10891 19.5765 4.54036 18.3126C6.01941 16.978 7.33608 15.3852 8.28117 13.57C8.77537 12.6726 9.13151 11.7113 9.4639 10.7483C9.77084 9.75509 10.0095 8.83751 10.4928 7.96435C11.4084 6.22284 12.8496 4.66905 14.6836 3.78664C16.5094 2.87941 18.6724 2.80546 20.6974 3.17122C21.7183 3.3785 22.7612 3.70197 23.9111 3.77407C24.4755 3.82223 25.0513 3.73899 25.6205 3.72112L27.2873 3.36078C29.4643 2.68508 31.4421 1.71775 33.6111 1.42301C35.7498 1.06496 37.9985 1.24997 39.8941 2.21967C40.8412 2.69431 41.6921 3.346 42.4139 4.12208C42.7702 4.51121 43.1021 4.93034 43.4197 5.37706C43.749 5.80879 44.0642 6.25465 44.3708 6.71179C45.6172 8.50135 46.7875 10.4917 48.6522 11.9202L49.3587 12.4308C49.478 12.5142 49.5935 12.6036 49.7156 12.6814L50.1031 12.8854C50.6145 13.1501 51.1589 13.4426 51.6327 13.669C52.607 14.1558 53.4941 14.8103 54.2883 15.5614C55.8812 17.0676 57.1085 18.948 58.0227 20.9575C58.4822 21.963 58.8636 23.0064 59.1585 24.0751L59.3623 24.8801L59.4913 25.6948L59.6221 26.5081L59.6498 27.3377C59.7379 29.5515 59.2015 31.7985 59.1019 34.1316C59.1132 34.7154 59.1077 35.2995 59.1401 35.8825L59.3861 37.6122C59.616 38.7051 59.7661 39.8156 59.8514 40.9294C60.0243 43.1544 59.8747 45.4208 59.2543 47.5671C59.2531 47.5727 59.2504 47.5778 59.2478 47.5839C60.1284 44.018 58.8389 40.5015 57.3743 36.9273C55.5703 32.5251 58.7451 29.5799 58.9702 26.3456Z" fill="#DBD0C3"/>
<path id="path52" fill-rule="evenodd" clip-rule="evenodd" d="M19.7862 37.8638C17.9124 36.8491 16.7585 33.141 18.9814 33.7834C21.2048 34.4261 22.3029 39.2254 19.7862 37.8638Z" fill="#FDD500"/>
<path id="path54" fill-rule="evenodd" clip-rule="evenodd" d="M22.7483 38.5247C21.8211 36.4384 25.4146 36.9583 26.8318 37.5618C28.2494 38.1652 36.2736 36.5246 38.0194 32.6046C38.7105 31.137 39.9488 33.3361 38.5215 35.4852C37.0942 37.6341 32.6833 40.6959 29.0513 40.7384C25.4194 40.7811 23.3389 39.8537 22.7483 38.5247Z" fill="#FDD500"/>
<path id="path56" fill-rule="evenodd" clip-rule="evenodd" d="M10.6005 55.3704C7.73096 53.3184 5.45299 48.004 4.98502 45.6738C4.51311 43.3177 5.3908 38.6531 5.88727 42.2907C6.38217 45.9292 9.36643 50.3674 11.7566 52.5089C14.1472 54.6501 13.4721 57.4215 10.6005 55.3704Z" fill="white"/>
<path id="path58" fill-rule="evenodd" clip-rule="evenodd" d="M37.7615 56.5247C35.5229 56.3922 27.673 58.2719 23.8594 58.9059C20.0458 59.5391 16.7443 59.3001 15.6935 58.1365C14.8824 57.2381 15.9724 55.6307 16.4731 55.8902C16.9747 56.1499 19.6801 56.6285 23.4566 56.2284C27.2324 55.8291 33.509 54.7141 36.1898 54.9909C38.8722 55.267 39.9986 56.6579 37.7615 56.5247Z" fill="white"/>
<path id="path60" fill-rule="evenodd" clip-rule="evenodd" d="M45.977 54.4682C47.4874 53.8764 49.8585 52.4369 52.8803 50.1762C55.9008 47.9169 55.781 44.7422 55.7328 43.2572C55.6846 41.7721 56.9616 41.0075 57.4936 43.335C58.0264 45.6623 57.876 47.8179 55.933 51.0624C53.9902 54.3062 48.2778 56.2709 46.1665 56.2441C44.5831 56.2236 44.4664 55.0599 45.977 54.4682Z" fill="white"/>
<path id="path62" fill-rule="evenodd" clip-rule="evenodd" d="M55.337 28.5803C56.4169 26.331 56.465 25.6611 56.0655 23.916C55.6662 22.1705 54.8795 20.3981 56.6429 22.4851C58.4075 24.5714 57.6221 25.845 56.8319 28.571C56.4677 29.826 54.2583 30.8293 55.337 28.5803Z" fill="white"/>
<path id="path64" fill-rule="evenodd" clip-rule="evenodd" d="M38.9836 8.51847C34.9891 6.74395 32.2196 4.62454 35.6529 4.75087C39.0858 4.8776 42.9974 10.3008 38.9836 8.51847Z" fill="white"/>
<path id="path66" fill-rule="evenodd" clip-rule="evenodd" d="M4.73187 25.8991C4.70333 29.0738 4.00324 29.4871 3.66051 28.9346C2.39662 26.903 2.2807 23.7873 5.26241 21.9056C8.24231 20.0252 4.76073 22.7237 4.73187 25.8991Z" fill="white"/>
<path id="path68" fill-rule="evenodd" clip-rule="evenodd" d="M13.2342 8.25807C12.2114 6.92116 15.0226 6.23799 15.5482 6.70105C16.074 7.16461 14.6763 10.1428 13.2342 8.25807Z" fill="white"/>
<path id="path70" fill-rule="evenodd" clip-rule="evenodd" d="M50.3021 57.4858C48.0987 58.3672 45.749 58.7863 43.45 58.9478C41.145 59.1235 38.8752 59.0807 36.6466 59.2762C34.4264 59.4628 32.2068 59.8919 29.9972 60.2344C27.7867 60.589 25.5802 60.9188 23.375 61.1113C21.1706 61.2986 18.957 61.3714 16.7849 61.0655C16.2389 61.019 15.7091 60.8575 15.1749 60.7453C14.6453 60.6133 14.135 60.3976 13.6256 60.2061C12.6317 59.7011 11.7701 59.1059 10.9731 58.4313C7.7402 55.7855 5.37208 52.3324 4.04082 48.6178C3.3887 46.7539 3.01007 44.8167 2.93422 42.8843C2.8682 40.9584 2.91601 39.107 2.85647 37.2703C2.79917 36.362 2.74221 35.4613 2.68562 34.5683C2.51603 33.7001 2.40285 32.8281 2.1946 31.9815C2.13874 31.7907 2.08464 31.6004 2.03051 31.413L2.00449 31.3164C1.88334 30.8004 1.79942 30.3636 1.78139 30.0424C1.76952 29.7216 1.82656 29.5136 1.82656 29.5136C1.82656 29.5136 1.98331 29.6487 2.1474 29.924C2.30719 30.2025 2.47311 30.6203 2.6555 31.1275L2.68734 31.2251C2.7442 31.415 2.80068 31.6072 2.85972 31.8008C3.07552 32.6667 3.19889 33.5727 3.37318 34.4695C3.43338 35.3798 3.49338 36.2977 3.55392 37.2237C3.6181 39.0632 3.57642 40.963 3.64367 42.8337C3.72266 44.6964 4.09129 46.5661 4.72568 48.3687C6.01966 51.9604 8.33026 55.3131 11.4638 57.8668C12.2334 58.5212 13.0899 59.0969 13.9633 59.5392C14.434 59.7127 14.8995 59.9118 15.3968 60.0353C15.9032 60.1377 16.3944 60.2917 16.9213 60.3351C18.9954 60.6247 21.1614 60.5539 23.3304 60.3661C25.5029 60.1727 27.6913 59.8443 29.8955 59.4867C32.1022 59.1423 34.3166 58.7096 36.6042 58.5135C38.8856 58.3116 41.16 58.3525 43.4158 58.177C45.6679 58.0168 47.9138 57.6119 50.0258 56.7656C51.0867 56.3625 52.1026 55.837 53.0879 55.2593C53.5632 54.9445 54.0801 54.6749 54.5144 54.3189C54.9712 53.9838 55.4243 53.6471 55.8178 53.2432C56.6628 52.4934 57.3316 51.5795 57.9324 50.6379C58.4858 49.6668 58.95 48.6424 59.2542 47.5674C59.8745 45.4211 60.0241 43.1546 59.8512 40.9297C59.766 39.816 59.6158 38.7053 59.3859 37.6125L59.14 35.8828C59.1076 35.2998 59.113 34.7155 59.1018 34.1319C59.2014 31.7988 59.7378 29.5518 59.6496 27.338L59.6219 26.5084L59.4911 25.6951L59.3621 24.8804L59.1584 24.0754C58.8635 23.0068 58.482 21.9633 58.0225 20.9578C57.1084 18.9484 55.881 17.0679 54.2882 15.5617C53.4939 14.8106 52.6068 14.1559 51.6326 13.6693C51.1588 13.4428 50.6144 13.1504 50.103 12.8857L49.7155 12.6817C49.5934 12.6038 49.4779 12.5144 49.3584 12.4311L48.6521 11.9206C46.7873 10.492 45.6171 8.50162 44.3707 6.71206C44.064 6.25492 43.7488 5.80897 43.4195 5.37733C43.102 4.93072 42.77 4.51149 42.4138 4.12236C41.692 3.34628 40.841 2.69459 39.8939 2.21995C37.9983 1.25025 35.7496 1.06524 33.6109 1.42328C31.4419 1.71818 29.4641 2.68525 27.2871 3.36106L25.6204 3.7215C25.0511 3.73927 24.4753 3.82241 23.9109 3.77435C22.761 3.70225 21.7182 3.37877 20.6973 3.1715C18.6723 2.80584 16.5093 2.87969 14.6835 3.78692C12.8493 4.66918 11.4083 6.22311 10.4926 7.96463C10.0094 8.83788 9.77069 9.75536 9.46375 10.7485C9.13141 11.7117 8.77527 12.6727 8.28102 13.5703C7.33597 15.3856 6.01933 16.9781 4.54022 18.3129C3.10878 19.5767 2.15289 21.2104 1.75958 22.965C1.55711 23.8378 1.47202 24.7276 1.4995 25.6068C1.51631 26.0457 1.54236 26.4825 1.60456 26.9134C1.6188 27.0218 1.62779 27.1304 1.64626 27.2376L1.69292 27.4917L1.69624 27.5173L1.72405 27.7155C1.80698 28.2321 1.84151 28.6754 1.87886 28.9863C1.91044 29.2977 1.82656 29.5136 1.82656 29.5136C1.82656 29.5136 1.64075 29.3887 1.49635 29.1028C1.34751 28.8182 1.16977 28.3954 1.04533 27.8613C1.02886 27.7957 1.01488 27.7268 0.998775 27.6576L0.992439 27.6313L0.943656 27.3647C0.922679 27.2526 0.912728 27.1389 0.897667 27.0248C0.83204 26.5719 0.802428 26.1106 0.782509 25.6474C0.752231 24.7184 0.838381 23.7696 1.05226 22.8334C1.45997 20.9571 2.52552 19.1365 4.04442 17.7975C5.47268 16.5025 6.71876 14.9838 7.6148 13.2559C8.0842 12.4016 8.42252 11.4795 8.74473 10.5466C9.02731 9.62549 9.30125 8.57545 9.81569 7.64749C10.7943 5.77825 12.3436 4.093 14.361 3.11725C15.362 2.63028 16.4627 2.33802 17.5736 2.24988C18.127 2.19956 18.6774 2.23996 19.2303 2.23275C19.7825 2.2452 20.3272 2.36105 20.8748 2.42886C21.9449 2.64723 22.9628 2.95631 23.9859 3.01594C24.499 3.0599 25.0196 2.97838 25.5369 2.96672L27.095 2.62797C29.124 2.00133 31.2218 0.981723 33.5101 0.664867C35.7646 0.285539 38.2043 0.474217 40.2745 1.53125C41.3074 2.04765 42.2333 2.7561 43.0102 3.59141C43.3967 4.01478 43.7478 4.45827 44.0686 4.9085C44.4064 5.35384 44.7286 5.80613 45.0349 6.26666C46.296 8.07949 47.4353 9.99197 49.1672 11.3105C50.0246 12.0002 50.9683 12.4531 52.014 12.9746C53.0688 13.5006 54.0147 14.2002 54.8557 14.9934C56.5386 16.5865 57.8069 18.5413 58.7571 20.6205C59.2313 21.6636 59.6261 22.7425 59.9333 23.8501L60.1438 24.6873L60.2829 25.5508L60.4202 26.4143L60.4501 27.2885C60.5375 29.631 59.9919 31.909 59.9031 34.1342C59.9157 34.6878 59.9093 35.2448 59.9401 35.7956L60.1734 37.4342C60.4107 38.5572 60.5655 39.6982 60.6522 40.8481C60.8304 43.1419 60.6802 45.4973 60.0259 47.7592C59.7044 48.8916 59.2139 49.981 58.6227 51.0144C57.9826 52.0204 57.2649 52.9959 56.365 53.7962C55.9427 54.2268 55.4618 54.5853 54.9777 54.9402C54.5076 55.321 53.984 55.5935 53.489 55.9201C52.4671 56.5195 51.4094 57.0647 50.3021 57.4858ZM21.9913 14.3724C25.9567 12.5143 30.7034 12.6768 34.416 14.5473C38.1712 16.3782 40.9059 19.7223 42.1202 23.4135C43.3669 27.1101 43.0645 31.1602 41.4999 34.474C40.7253 36.1343 39.6501 37.6127 38.383 38.821C38.051 39.1052 37.7211 39.3879 37.3942 39.6684C37.2333 39.8111 37.0453 39.9189 36.8743 40.0439L36.6137 40.2236C36.5506 40.263 36.489 40.3028 36.429 40.3413C35.9635 40.6734 35.4812 40.7937 35.177 40.9191C34.8606 41.0302 34.6392 40.9974 34.6392 40.9974C34.6391 40.9974 34.7429 40.7853 34.9954 40.5817C35.2401 40.3635 35.6327 40.1345 36.0532 39.7891C36.1071 39.7489 36.1621 39.7067 36.2188 39.6642L36.4631 39.4917C36.6254 39.3701 36.8027 39.2691 36.9541 39.1319C37.2633 38.8649 37.5731 38.596 37.8867 38.324C39.0782 37.1736 40.0908 35.7684 40.8188 34.1896C42.2912 31.0397 42.5691 27.1887 41.3737 23.6702C40.2103 20.1546 37.6012 16.9788 34.0391 15.2446C30.5141 13.4746 26.0466 13.3307 22.3162 15.0763C18.54 16.7579 15.8173 20.3189 14.8686 24.1373C13.8649 27.9805 14.6249 32.0338 16.565 35.1914C18.4927 38.3718 21.6134 40.6418 24.972 41.5463C26.6482 42.007 28.3749 42.1378 30.0212 41.9625C30.4346 41.9425 30.8382 41.8596 31.2378 41.7782L31.8365 41.6619L32.4151 41.4903C32.5519 41.4503 32.6869 41.4107 32.8193 41.3725C33.3536 41.2651 33.7665 41.0699 34.0949 41.0273C34.4194 40.9721 34.6392 40.9974 34.6392 40.9974C34.6391 40.9974 34.5163 41.1672 34.2435 41.3648C33.9629 41.5429 33.5605 41.8203 33.0157 41.9924C32.8788 42.0363 32.7377 42.0815 32.5951 42.1274L31.9857 42.3119L31.3555 42.4384C30.9346 42.5258 30.5102 42.6142 30.0742 42.6387C28.34 42.8318 26.5211 42.7022 24.7561 42.2254C21.2209 41.2902 17.9361 38.9198 15.9022 35.5903C13.8576 32.2899 13.0432 28.0307 14.0934 23.9767C15.0837 19.9478 17.9751 16.1561 21.9913 14.3724Z" fill="#292723"/>
</g>
</g>
<defs>
<clipPath id="clip0_27_19132">
<rect width="62" height="62" fill="white"/>
</clipPath>
</defs>
</svg>
