<svg width="18" height="17" viewBox="0 0 18 17" fill="none" xmlns="http://www.w3.org/2000/svg">
<path d="M13.6649 11.505L10.4011 14.7688C10.2584 14.9116 10.0889 15.025 9.90229 15.1023C9.71573 15.1797 9.51575 15.2195 9.3138 15.2195C9.11184 15.2195 8.91186 15.1797 8.7253 15.1023C8.53874 15.025 8.36924 14.9116 8.22651 14.7688L4.96195 11.505C4.10136 10.6444 3.51531 9.54786 3.27789 8.35416C3.04047 7.16046 3.16236 5.92316 3.62813 4.79873C4.0939 3.6743 4.88264 2.71324 5.89461 2.03707C6.90658 1.3609 8.09633 1 9.31341 1C10.5305 1 11.7202 1.3609 12.7322 2.03707C13.7442 2.71324 14.5329 3.6743 14.9987 4.79873C15.4645 5.92316 15.5864 7.16046 15.3489 8.35416C15.1115 9.54786 14.5255 10.6444 13.6649 11.505V11.505Z" stroke="white" stroke-width="1.41646" stroke-linecap="round" stroke-linejoin="round"/>
<path d="M11.6212 7.15336C11.6212 7.76538 11.378 8.35235 10.9453 8.78511C10.5125 9.21788 9.92554 9.46101 9.31351 9.46101C8.70148 9.46101 8.11452 9.21788 7.68176 8.78511C7.24899 8.35235 7.00586 7.76538 7.00586 7.15336C7.00586 6.54133 7.24899 5.95437 7.68176 5.5216C8.11452 5.08883 8.70148 4.8457 9.31351 4.8457C9.92554 4.8457 10.5125 5.08883 10.9453 5.5216C11.378 5.95437 11.6212 6.54133 11.6212 7.15336V7.15336Z" stroke="white" stroke-width="1.41646" stroke-linecap="round" stroke-linejoin="round"/>
</svg>
