<svg width="19" height="19" viewBox="0 0 19 19" fill="none" xmlns="http://www.w3.org/2000/svg">
<path d="M3.68745 0.0532329C3.37582 0.131142 3.14209 0.264701 2.90465 0.502138C2.66351 0.743286 2.51511 1.00669 2.44833 1.32946C2.38897 1.61142 2.38897 17.3899 2.44833 17.6681C2.5856 18.3062 3.09757 18.8182 3.73568 18.9555C4.01393 19.0148 15.2662 19.0148 15.5482 18.9555C16.1789 18.8219 16.702 18.2951 16.8356 17.6681C16.8949 17.3862 16.8949 1.60771 16.8356 1.32946C16.6983 0.691346 16.1826 0.175662 15.5482 0.0421031C15.2514 -0.0209663 3.93973 -0.00983639 3.68745 0.0532329ZM15.4666 1.18848C15.563 1.23671 15.6409 1.31462 15.6892 1.41108C15.7597 1.55206 15.7634 1.62626 15.7634 3.78545V6.01143H9.64194H3.52051V3.77432C3.52422 1.26268 3.51309 1.37769 3.80246 1.20332L3.94715 1.11428H9.63452C15.2625 1.11428 15.3219 1.11428 15.4666 1.18848ZM9.08545 9.53589V11.9474H6.30298H3.52051V9.53589V7.12442H6.30298H9.08545V9.53589ZM15.7634 9.53589V11.9474H12.9809H10.1984V9.53589V7.12442H12.9809H15.7634V9.53589ZM9.08545 15.4718V17.8833H6.52186H3.95828L3.80988 17.8017C3.72084 17.7497 3.63181 17.6607 3.591 17.5791C3.52422 17.4492 3.52051 17.3268 3.52051 15.2492V13.0604H6.30298H9.08545V15.4718ZM15.7634 15.2492C15.7634 17.3713 15.7597 17.4455 15.6892 17.5865C15.6409 17.683 15.563 17.7609 15.4666 17.8091C15.3256 17.8796 15.2551 17.8833 12.7583 17.8833H10.1984V15.4718V13.0604H12.9809H15.7634V15.2492Z" fill="white"/>
<path d="M6.03567 7.94402C5.82049 8.05532 5.74629 8.23711 5.74629 8.64521V8.9791H5.41239C5.14899 8.9791 5.04511 8.99394 4.9301 9.0533C4.76315 9.13863 4.6333 9.3501 4.6333 9.5356C4.6333 9.72109 4.76315 9.93256 4.9301 10.0179C5.04511 10.0773 5.14899 10.0921 5.41239 10.0921H5.74629V10.426C5.74629 10.6894 5.76113 10.7933 5.82049 10.9083C5.90582 11.0752 6.11728 11.2051 6.30278 11.2051C6.48828 11.2051 6.69975 11.0752 6.78508 10.9083C6.84444 10.7933 6.85928 10.6894 6.85928 10.426V10.0921H7.19317C7.45658 10.0921 7.56046 10.0773 7.67547 10.0179C7.84242 9.93256 7.97226 9.72109 7.97226 9.5356C7.97226 9.3501 7.84242 9.13863 7.67547 9.0533C7.56046 8.99394 7.45658 8.9791 7.19317 8.9791H6.85928V8.64521C6.85928 8.22969 6.78508 8.05532 6.56248 7.94031C6.38069 7.84756 6.21374 7.84756 6.03567 7.94402Z" fill="white"/>
<path d="M11.6009 9.05769C11.4414 9.13931 11.3115 9.3582 11.3115 9.53628C11.3115 9.72178 11.4414 9.93325 11.6083 10.0186C11.7456 10.0891 11.8235 10.0928 12.981 10.0928C14.1385 10.0928 14.2164 10.0891 14.3537 10.0186C14.5206 9.93325 14.6505 9.72178 14.6505 9.53628C14.6505 9.35078 14.5206 9.13931 14.3537 9.05398C14.2164 8.9835 14.1385 8.97979 12.9736 8.97979C11.8161 8.9835 11.7307 8.98721 11.6009 9.05769Z" fill="white"/>
<path d="M5.23446 14.2108C5.00444 14.3517 4.90798 14.6411 5.00444 14.8971C5.0267 14.9528 5.14542 15.1049 5.27156 15.2347L5.49787 15.4721L5.27156 15.7096C5.02299 15.9693 4.96734 16.0732 4.96734 16.2809C4.96734 16.6482 5.37173 16.9079 5.72788 16.7706C5.78353 16.7484 5.93564 16.6297 6.06549 16.5035L6.30293 16.2772L6.54037 16.5035C6.67021 16.6297 6.82232 16.7484 6.87797 16.7706C7.3343 16.945 7.77578 16.5035 7.60141 16.0472C7.57915 15.9915 7.46044 15.8394 7.3343 15.7096L7.10799 15.4721L7.3343 15.2347C7.46044 15.1049 7.57915 14.9528 7.60141 14.8971C7.77578 14.4408 7.3343 13.9993 6.87797 14.1737C6.82232 14.1959 6.67021 14.3146 6.54037 14.4408L6.30293 14.6671L6.06549 14.4408C5.93564 14.3146 5.78353 14.1959 5.72788 14.1737C5.57207 14.1143 5.36802 14.1291 5.23446 14.2108Z" fill="white"/>
<path d="M11.6009 13.88C11.4414 13.9616 11.3115 14.1805 11.3115 14.3585C11.3115 14.544 11.4414 14.7555 11.6083 14.8408C11.7456 14.9113 11.8235 14.915 12.981 14.915C14.1385 14.915 14.2164 14.9113 14.3537 14.8408C14.5206 14.7555 14.6505 14.544 14.6505 14.3585C14.6505 14.173 14.5206 13.9616 14.3537 13.8763C14.2164 13.8058 14.1385 13.8021 12.9736 13.8021C11.8161 13.8058 11.7307 13.8095 11.6009 13.88Z" fill="white"/>
<path d="M11.6009 16.1065C11.4414 16.1881 11.3115 16.407 11.3115 16.5851C11.3115 16.7706 11.4414 16.9821 11.6083 17.0674C11.7456 17.1379 11.8235 17.1416 12.981 17.1416C14.1385 17.1416 14.2164 17.1379 14.3537 17.0674C14.5206 16.9821 14.6505 16.7706 14.6505 16.5851C14.6505 16.3996 14.5206 16.1881 14.3537 16.1028C14.2164 16.0323 14.1385 16.0286 12.9736 16.0286C11.8161 16.0323 11.7307 16.036 11.6009 16.1065Z" fill="white"/>
</svg>
