<svg width="18" height="17" viewBox="0 0 18 17" fill="none" xmlns="http://www.w3.org/2000/svg">
<path d="M9.31331 5.35218V8.50033L11.6744 10.8614L9.31331 5.35218ZM16.3966 8.50033C16.3966 9.43052 16.2134 10.3516 15.8575 11.211C15.5015 12.0704 14.9797 12.8513 14.322 13.509C13.6642 14.1667 12.8834 14.6885 12.024 15.0445C11.1646 15.4004 10.2435 15.5837 9.31331 15.5837C8.38312 15.5837 7.46203 15.4004 6.60264 15.0445C5.74325 14.6885 4.96239 14.1667 4.30464 13.509C3.64689 12.8513 3.12514 12.0704 2.76917 11.211C2.4132 10.3516 2.22998 9.43052 2.22998 8.50033C2.22998 6.62171 2.97626 4.82004 4.30464 3.49165C5.63302 2.16327 7.4347 1.41699 9.31331 1.41699C11.1919 1.41699 12.9936 2.16327 14.322 3.49165C15.6504 4.82004 16.3966 6.62171 16.3966 8.50033Z" stroke="white" stroke-width="1.11111" stroke-linecap="round" stroke-linejoin="round"/>
</svg>
