<svg width="24" height="24" viewBox="0 0 24 24" fill="none" xmlns="http://www.w3.org/2000/svg">
<path d="M9.55185 7.74966C9.55185 7.66084 9.56418 7.46902 9.58886 7.17543C9.61538 6.88122 9.7264 6.57344 9.92562 6.25024C10.123 5.92827 10.4431 5.639 10.8884 5.38303C11.3319 5.12829 11.9728 5 12.8091 5H15.1653V7.56771H13.4401C13.2693 7.56771 13.1101 7.63185 12.9664 7.75829C12.8239 7.88474 12.7505 8.00501 12.7505 8.11665V9.71414H15.1647C15.1394 10.0269 15.1116 10.3309 15.0795 10.6245L14.9839 11.4005C14.9457 11.6626 14.9068 11.9056 14.8686 12.1295H12.7333V19.2485H9.55185V12.1289H8V9.71414H9.55185V7.74966Z" fill="white"/>
</svg>
