<svg width="24" height="24" viewBox="0 0 24 24" fill="none" xmlns="http://www.w3.org/2000/svg">
<path d="M11.958 8.63233C9.83987 8.63233 8.13039 10.3418 8.13039 12.4601C8.13039 14.5783 9.83987 16.2878 11.958 16.2878C14.0762 16.2878 15.7857 14.5783 15.7857 12.4601C15.7857 10.3418 14.0762 8.63233 11.958 8.63233ZM11.958 14.9478C10.5882 14.9478 9.47035 13.8299 9.47035 12.4601C9.47035 11.0902 10.5882 9.97231 11.958 9.97231C13.3279 9.97231 14.4457 11.0902 14.4457 12.4601C14.4457 13.8299 13.3279 14.9478 11.958 14.9478ZM15.9425 7.58348C15.4479 7.58348 15.0485 7.98286 15.0485 8.47743C15.0485 8.97199 15.4479 9.37137 15.9425 9.37137C16.437 9.37137 16.8364 8.97385 16.8364 8.47743C16.8365 8.35999 16.8135 8.24368 16.7687 8.13515C16.7238 8.02663 16.6579 7.92802 16.5749 7.84498C16.4919 7.76194 16.3933 7.6961 16.2847 7.65123C16.1762 7.60635 16.0599 7.58333 15.9425 7.58348V7.58348ZM19.4193 12.4601C19.4193 11.4299 19.4286 10.409 19.3708 9.3807C19.3129 8.18629 19.0404 7.12624 18.167 6.25283C17.2918 5.37754 16.2336 5.10693 15.0392 5.04908C14.009 4.99122 12.9882 5.00056 11.9599 5.00056C10.9298 5.00056 9.90892 4.99122 8.88062 5.04908C7.68623 5.10693 6.6262 5.37941 5.7528 6.25283C4.87754 7.12811 4.60693 8.18629 4.54908 9.3807C4.49122 10.4109 4.50056 11.4317 4.50056 12.4601C4.50056 13.4884 4.49122 14.5111 4.54908 15.5394C4.60693 16.7338 4.8794 17.7939 5.7528 18.6673C6.62807 19.5426 7.68623 19.8132 8.88062 19.871C9.91078 19.9289 10.9316 19.9196 11.9599 19.9196C12.9901 19.9196 14.0109 19.9289 15.0392 19.871C16.2336 19.8132 17.2936 19.5407 18.167 18.6673C19.0423 17.792 19.3129 16.7338 19.3708 15.5394C19.4305 14.5111 19.4193 13.4902 19.4193 12.4601V12.4601ZM17.777 16.8607C17.6408 17.2004 17.4765 17.4542 17.2134 17.7155C16.9502 17.9786 16.6983 18.1429 16.3586 18.2791C15.377 18.6692 13.0461 18.5814 11.958 18.5814C10.87 18.5814 8.53723 18.6692 7.55559 18.281C7.21593 18.1447 6.96213 17.9805 6.70085 17.7174C6.43771 17.4542 6.27348 17.2023 6.13725 16.8626C5.74907 15.8791 5.83678 13.5481 5.83678 12.4601C5.83678 11.372 5.74907 9.03917 6.13725 8.05751C6.27348 7.71785 6.43771 7.46404 6.70085 7.20276C6.96399 6.94148 7.21593 6.77538 7.55559 6.63914C8.53723 6.25096 10.87 6.33867 11.958 6.33867C13.0461 6.33867 15.3789 6.25096 16.3605 6.63914C16.7002 6.77538 16.954 6.93961 17.2152 7.20276C17.4784 7.4659 17.6426 7.71785 17.7789 8.05751C18.167 9.03917 18.0793 11.372 18.0793 12.4601C18.0793 13.5481 18.167 15.8791 17.777 16.8607Z" fill="white"/>
</svg>
