<svg width="17" height="17" viewBox="0 0 17 17" fill="none" xmlns="http://www.w3.org/2000/svg">
<path d="M2.125 3.54167C2.125 3.16594 2.27426 2.80561 2.53993 2.53993C2.80561 2.27426 3.16594 2.125 3.54167 2.125H5.865C6.0136 2.12511 6.15841 2.17196 6.27892 2.25891C6.39943 2.34586 6.48954 2.46851 6.5365 2.6095L7.59758 5.79204C7.65135 5.95378 7.64499 6.12948 7.57967 6.28691C7.51436 6.44435 7.39447 6.57295 7.242 6.64912L5.64329 7.44954C6.42693 9.18392 7.81608 10.5731 9.55046 11.3567L10.3509 9.758C10.4271 9.60553 10.5557 9.48564 10.7131 9.42033C10.8705 9.35501 11.0462 9.34865 11.208 9.40242L14.3905 10.4635C14.5316 10.5105 14.6543 10.6007 14.7413 10.7214C14.8283 10.842 14.875 10.987 14.875 11.1357V13.4583C14.875 13.8341 14.7257 14.1944 14.4601 14.4601C14.1944 14.7257 13.8341 14.875 13.4583 14.875H12.75C6.88217 14.875 2.125 10.1178 2.125 4.25V3.54167Z" stroke="white" stroke-width="1.44055" stroke-linecap="round" stroke-linejoin="round"/>
</svg>
