<svg width="19" height="19" viewBox="0 0 19 19" fill="none" xmlns="http://www.w3.org/2000/svg">
<path d="M10.094 13.6563C10.094 13.8138 10.0315 13.9648 9.92011 14.0762C9.80876 14.1875 9.65773 14.2501 9.50026 14.2501C9.34279 14.2501 9.19177 14.1875 9.08042 14.0762C8.96907 13.9648 8.90651 13.8138 8.90651 13.6563V9.15215L7.54564 10.5142C7.43415 10.6257 7.28293 10.6883 7.12526 10.6883C6.96759 10.6883 6.81638 10.6257 6.70489 10.5142C6.5934 10.4027 6.53076 10.2515 6.53076 10.0938C6.53076 9.93616 6.5934 9.78495 6.70489 9.67346L9.07989 7.29846C9.13504 7.24317 9.20056 7.1993 9.2727 7.16936C9.34483 7.13943 9.42216 7.12402 9.50026 7.12402C9.57836 7.12402 9.65569 7.13943 9.72783 7.16936C9.79996 7.1993 9.86548 7.24317 9.92064 7.29846L12.2956 9.67346C12.4071 9.78495 12.4698 9.93616 12.4698 10.0938C12.4698 10.2515 12.4071 10.4027 12.2956 10.5142C12.1841 10.6257 12.0329 10.6883 11.8753 10.6883C11.7176 10.6883 11.5664 10.6257 11.4549 10.5142L10.094 9.15215V13.6563Z" fill="#1D1C1B"/>
<path d="M16.625 16.625V5.34375L11.2812 0H4.75C4.12011 0 3.51602 0.250223 3.07062 0.695621C2.62522 1.14102 2.375 1.74511 2.375 2.375V16.625C2.375 17.2549 2.62522 17.859 3.07062 18.3044C3.51602 18.7498 4.12011 19 4.75 19H14.25C14.8799 19 15.484 18.7498 15.9294 18.3044C16.3748 17.859 16.625 17.2549 16.625 16.625ZM11.2812 3.5625C11.2813 4.03492 11.4689 4.48799 11.803 4.82203C12.137 5.15608 12.5901 5.34375 13.0625 5.34375H15.4375V16.625C15.4375 16.9399 15.3124 17.242 15.0897 17.4647C14.867 17.6874 14.5649 17.8125 14.25 17.8125H4.75C4.43506 17.8125 4.13301 17.6874 3.91031 17.4647C3.68761 17.242 3.5625 16.9399 3.5625 16.625V2.375C3.5625 2.06006 3.68761 1.75801 3.91031 1.53531C4.13301 1.31261 4.43506 1.1875 4.75 1.1875H11.2812V3.5625Z" fill="#1D1C1B"/>
</svg>
