<svg width="71" height="13" viewBox="0 0 71 13" fill="none" xmlns="http://www.w3.org/2000/svg">
<g clip-path="url(#clip0_124_2212)">
<path fill-rule="evenodd" clip-rule="evenodd" d="M69.3435 3.39807C69.3401 3.64079 69.1208 3.83837 68.8546 3.83837H67.341C67.1854 3.87355 67.0263 3.90703 66.8672 3.94051C66.7567 4.02254 66.6847 4.14645 66.6847 4.28543V10.8167C66.6847 11.0629 66.7801 11.2637 66.5106 11.2637H64.5249C64.2554 11.2637 64.0344 11.0629 64.0344 10.8167V4.52985V4.28543C64.0344 4.23853 64.0243 4.19504 64.0093 4.15316C63.9473 3.97234 63.8184 3.83837 63.5991 3.83837H61.8562C61.5866 3.83837 61.3656 3.63749 61.3656 3.39137V2.14569C61.3656 1.90127 61.5866 1.69868 61.8562 1.69868H68.8546C68.9232 1.69868 68.9902 1.71375 69.0504 1.73717C69.2229 1.80578 69.3435 1.96322 69.3435 2.14569V3.39137V3.39807ZM59.5641 11.2604H57.8932C57.6237 11.2604 57.4043 11.0595 57.4043 10.815V9.15589C57.4043 8.90976 57.2787 8.84781 57.1263 9.01856C57.1263 9.01856 57.1263 9.01856 56.9372 9.19772C56.7497 9.37859 56.5421 9.55935 56.3161 9.74016C56.229 9.81053 56.1403 9.88084 56.0482 9.95116H56.0498H56.0482C55.9712 10.0131 55.8941 10.0717 55.8138 10.1336C55.7519 10.1822 55.6882 10.2274 55.6246 10.2726C55.0252 10.6761 53.9889 11.3056 52.3833 11.2604H51.6432C51.3737 11.2604 51.1527 11.0595 51.1527 10.8151V7.08481V5.97476V2.14404C51.1527 1.89791 51.3737 1.69698 51.6432 1.69698H53.3694C53.6373 1.69698 53.8583 1.89791 53.8583 2.14404V5.747V6.63435V8.09427C53.8583 8.34039 54.0123 8.45089 54.2015 8.33874C54.2015 8.33874 54.3137 8.33874 54.4912 8.21818C54.672 8.09933 54.8545 7.96535 55.0437 7.81967C55.345 7.59532 55.6414 7.3492 55.9344 7.078C56.2257 6.80846 56.5002 6.53391 56.7548 6.25931C56.8067 6.20076 56.8569 6.14211 56.9072 6.0852C56.9741 6.00648 57.0377 5.92951 57.0997 5.85415C57.2085 5.72022 57.3106 5.5896 57.4044 5.46069V5.4188V2.14393C57.4044 1.89781 57.6237 1.69688 57.8933 1.69688H59.5642C59.8338 1.69688 60.0531 1.89781 60.0531 2.14393V5.07053V5.26976V10.8149C60.053 11.0595 59.8336 11.2604 59.5641 11.2604ZM57.3106 0.766142C56.8351 1.03569 56.2976 1.16966 55.6966 1.16966C55.1072 1.16966 54.5748 1.03574 54.101 0.766142C53.8884 0.645634 53.7143 0.504955 53.5787 0.345912C53.1417 -0.206588 53.7244 -0.327148 53.7244 -0.327148H57.5233C57.8665 -0.327148 58.044 -0.0894343 57.915 0.201931C57.915 0.201931 57.7843 0.496598 57.3106 0.766142ZM49.3411 11.2637H47.6116C47.0993 11.2637 46.9519 10.9624 46.9101 10.8251C46.905 10.805 46.9017 10.785 46.8967 10.7615C46.8884 10.7163 46.8766 10.661 46.8649 10.6007H44.0638V8.44434H46.3057C46.2169 8.15133 46.1248 7.85831 46.0445 7.60383C46.0143 7.50169 45.9825 7.40125 45.9557 7.31252C45.9557 7.28239 45.9507 7.25391 45.9423 7.22379C45.9423 7.22379 45.9306 7.18525 45.8687 7.0128C45.8603 6.99273 45.8536 6.97096 45.8435 6.94578C45.7582 6.71307 45.6744 6.49037 45.5891 6.27613L45.5823 6.25936C45.4334 5.89603 45.2927 5.58635 45.1588 5.32682C45.0214 5.06563 44.9344 4.89483 44.8959 4.81781C44.6515 5.29664 44.4255 5.79889 44.2161 6.31626C44.1843 6.39328 44.1508 6.46695 44.119 6.54562C43.9566 6.9625 43.8076 7.72599 43.667 8.14452C43.6117 8.14787 43.5581 8.15122 43.5029 8.15623H43.1446H42.9838H40.6985C40.8475 7.6824 41.0082 6.87206 41.1756 6.4117C41.4201 5.73524 41.6846 5.07224 41.9709 4.426C42.3862 3.48505 42.813 2.67807 43.25 2.00501C43.3053 1.92464 43.5012 1.69863 43.9465 1.69863H45.8066C46.0762 1.69863 46.4077 1.87274 46.545 2.08203C46.545 2.08203 47.0339 2.83546 47.3486 3.43315C47.6651 4.02919 47.9497 4.63024 48.2042 5.23128C48.3281 5.52595 48.4436 5.81726 48.5558 6.10692C48.7065 6.50709 48.8488 6.90389 48.9777 7.299C49.1016 7.6791 49.2188 8.05914 49.3209 8.43413L49.3243 8.44424H49.3411V8.50785C49.5621 9.32994 49.7412 10.0883 49.8801 10.7832C49.8986 10.9355 49.8768 11.2637 49.3411 11.2637ZM39.9234 3.65756C39.9233 3.65756 39.9234 3.65756 39.6873 3.62743C39.4495 3.59895 39.1968 3.58895 38.9272 3.59895C37.8925 3.63914 37.1073 3.9271 36.5715 4.46789C36.0475 4.99532 35.7997 5.67003 35.8248 6.48872C35.8265 6.50714 35.8248 6.52385 35.8265 6.54232C35.8617 7.35095 36.0709 7.94869 36.4493 8.33544C36.8277 8.72219 37.2378 8.98838 37.6799 9.13242C37.9143 9.19772 38.1437 9.29316 38.3663 9.31488C38.5472 9.33164 38.7079 9.34 38.8502 9.33835H42.7545V10.8117V11.3291V11.3659H40.0222L29.6451 11.3793H29.4977H29.4961H29.2935C29.1345 11.3759 28.9486 11.3626 28.8347 11.3542C27.5171 11.2537 26.5209 10.9055 25.8445 10.2023C24.994 9.31993 24.4984 8.32714 24.3561 7.22544C24.3427 7.14171 24.331 7.05633 24.3226 6.9676C24.3142 6.87887 24.3075 6.79185 24.3042 6.70807C24.2975 6.55738 24.2975 6.41175 24.3025 6.26607C24.3393 5.0288 24.7847 3.9857 25.6419 3.13689C26.5979 2.18758 27.9792 1.68032 29.7807 1.61166C30.1507 1.59659 30.4956 1.6033 30.8171 1.63007C31.1369 1.6552 31.4433 1.69703 31.7329 1.75233L31.8049 3.35123C31.8166 3.59235 31.6459 3.75305 31.4248 3.70786C31.4248 3.7078 31.4248 3.70785 31.1888 3.67938C30.9511 3.65095 30.6982 3.64089 30.4303 3.65095C29.394 3.69109 28.6087 3.98075 28.0729 4.51984C27.5841 5.01208 27.3379 5.63325 27.3263 6.37827C27.3263 6.45024 27.3246 6.5206 27.3279 6.59427C27.3648 7.4029 27.5724 8.00229 27.9508 8.38904C28.3292 8.77414 28.7394 9.04033 29.1814 9.18266C29.4158 9.25127 29.6451 9.29481 29.8678 9.31658C30.0486 9.33329 30.2094 9.34 30.3517 9.34L33.6835 9.3333C33.2331 8.66529 32.9535 7.94699 32.8547 7.17354C32.8413 7.08982 32.8296 7.00274 32.8213 6.91401C32.8128 6.82693 32.8062 6.7399 32.8028 6.65617C32.7995 6.59757 32.7995 6.54062 32.7978 6.48372C32.776 5.12759 33.2214 3.99406 34.1405 3.08329C35.0966 2.13568 36.4778 1.62667 38.2793 1.55971C38.6493 1.54465 38.9942 1.55135 39.3156 1.57647C39.6354 1.60325 39.9401 1.64508 40.2315 1.70033L40.3034 3.29923C40.3152 3.5387 40.1444 3.70115 39.9234 3.65756ZM21.6505 10.1989C20.5991 11.046 19.3116 11.4696 17.7846 11.4696C16.2393 11.4696 14.9451 11.046 13.9037 10.1989C12.8624 9.35341 12.3417 8.11444 12.3417 6.48036C12.3417 6.18735 12.3601 5.90774 12.3936 5.63985C12.4036 5.55783 12.4187 5.47745 12.4321 5.39543C12.6196 4.28207 13.1068 3.39807 13.9037 2.75014C14.9452 1.90297 16.2393 1.48104 17.7846 1.48104C19.3116 1.48104 20.5991 1.90297 21.6505 2.75014C22.6433 3.55041 23.1657 4.70566 23.221 6.21582C23.2243 6.3029 23.226 6.39163 23.226 6.48036C23.226 6.81522 23.2025 7.12995 23.159 7.42967C22.9882 8.60168 22.486 9.52587 21.6505 10.1989ZM20.1353 6.04507C20.0767 5.46745 19.9026 4.95178 19.6079 4.49637C19.2396 3.9288 18.6319 3.6458 17.7846 3.6458C16.9174 3.6458 16.3046 3.92875 15.9463 4.49637C15.7187 4.85799 15.5662 5.25645 15.4843 5.69345C15.4474 5.88427 15.424 6.08185 15.4156 6.28779C15.4122 6.3514 15.4089 6.415 15.4089 6.48031C15.4089 7.2371 15.5914 7.8984 15.953 8.46601C16.3164 9.03357 16.9275 9.31653 17.7846 9.31653C18.6318 9.31653 19.2396 9.03357 19.6079 8.46601C19.8775 8.04913 20.0482 7.57866 20.1203 7.05964C20.1454 6.87212 20.1587 6.68124 20.1587 6.48031C20.1587 6.33138 20.1504 6.18735 20.1353 6.04507ZM6.85179 9.09728C6.8049 9.09728 6.75801 9.09728 6.71111 9.09558C6.37796 9.08887 6.37126 8.74396 6.37126 8.74396V7.19026C6.37126 6.99773 6.51188 6.94914 6.58385 6.93748L6.59726 6.93578C6.61403 6.93412 6.62574 6.93242 6.62574 6.93242H6.62409C6.97901 6.88553 7.28208 6.76838 7.52986 6.5775C7.85965 6.32472 8.02375 5.93627 8.02375 5.41055C8.02375 5.35194 8.01705 5.2515 8.00363 5.10747C7.99533 5.03045 7.97521 4.95008 7.94338 4.8647C7.91661 4.79609 7.88313 4.72407 7.84124 4.65041C7.81111 4.59851 7.77763 4.54826 7.74245 4.50302C7.73244 4.49131 7.72068 4.4796 7.71067 4.46789C7.68219 4.43441 7.65372 4.40093 7.62194 4.3708L7.60517 4.35409L7.59847 4.35074C7.15482 3.95057 6.45829 3.86349 6.17203 3.84513L6.16697 3.84178C6.15026 3.84178 6.13349 3.84178 6.11673 3.84178C6.07154 3.83842 6.04306 3.83842 6.04306 3.83842L6.04471 3.84012C6.02124 3.83842 5.99952 3.83842 5.9744 3.83842H5.12223C4.85268 3.83842 4.63168 4.03936 4.63168 4.28543V4.33737V10.8167C4.63168 11.0629 4.41238 11.2637 4.14279 11.2637H2.41663C2.14708 11.2637 1.92773 11.0629 1.92773 10.8167V3.73628V2.14574C1.92773 1.9917 2.01311 1.85778 2.14208 1.7757C2.2208 1.72716 2.31619 1.69868 2.41668 1.69868H6.0364C6.30595 1.69868 6.7446 1.72716 7.01084 1.75894C7.01084 1.75894 7.50638 1.82255 8.09907 1.95817H8.10077C8.27994 2.00006 8.4674 2.04695 8.65327 2.10215C9.28279 2.32315 10.2957 2.85388 10.8449 4.08779C10.9554 4.3641 11.0291 4.65206 11.0643 4.94672C11.0726 5.0254 11.0793 5.10412 11.0843 5.18614C11.086 5.21462 11.086 5.24144 11.0877 5.26987C11.0877 5.30505 11.0894 5.34023 11.091 5.37371C11.091 5.38878 11.091 5.40719 11.091 5.42396C11.091 6.45529 10.7294 7.32588 10.0027 8.03412C9.27774 8.74226 8.22628 9.09728 6.85179 9.09728Z" fill="white"/>
</g>
<defs>
<clipPath id="clip0_124_2212">
<rect width="70.5714" height="13" fill="white"/>
</clipPath>
</defs>
</svg>
