<svg width="24" height="24" viewBox="0 0 24 24" fill="none" xmlns="http://www.w3.org/2000/svg">
<path d="M20.2919 4.38328C20.0898 4.13609 19.787 4 19.4394 4C19.2504 4 19.0501 4.03977 18.8444 4.11842L4.83729 9.46535C4.09395 9.74902 3.99384 10.1747 4.00028 10.4032C4.00672 10.6317 4.13082 11.0511 4.88906 11.2924C4.8936 11.2938 4.89814 11.2952 4.90269 11.2964L7.80813 12.1279L9.3794 16.621C9.59364 17.2336 10.0745 17.6141 10.6345 17.6141C10.9877 17.6141 11.335 17.4661 11.639 17.1863L13.4361 15.5316L16.0427 17.6305C16.0429 17.6307 16.0433 17.6309 16.0436 17.6311L16.0683 17.6511C16.0706 17.6528 16.073 17.6547 16.0753 17.6565C16.365 17.8812 16.6813 17.9999 16.9902 18H16.9903C17.5939 18 18.0745 17.5532 18.2145 16.8619L20.5096 5.52948C20.6017 5.07461 20.5245 4.66759 20.2919 4.38328V4.38328ZM8.7801 11.97L14.3856 9.1063L10.8952 12.815C10.8381 12.8758 10.7975 12.9501 10.7776 13.0311L10.1046 15.7572L8.7801 11.97ZM10.9821 16.473C10.9589 16.4944 10.9355 16.5134 10.9122 16.531L11.5366 14.002L12.6724 14.9167L10.9821 16.473ZM19.5593 5.33695L17.2643 16.6695C17.2422 16.7779 17.1716 17.0303 16.9902 17.0303C16.9005 17.0303 16.7879 16.9814 16.6727 16.8927L13.719 14.5145C13.7186 14.5141 13.7181 14.5137 13.7176 14.5134L11.9601 13.0982L17.0076 7.73488C17.1692 7.56319 17.1838 7.30021 17.0423 7.1116C16.9007 6.92299 16.644 6.86365 16.4341 6.97096L8.13233 11.2121L5.18738 10.3695L19.1902 5.02424C19.3084 4.97904 19.391 4.96957 19.4394 4.96957C19.469 4.96957 19.5218 4.97311 19.5414 4.99722C19.5671 5.02866 19.5999 5.13584 19.5593 5.33695V5.33695Z" fill="white"/>
</svg>
