<svg width="24" height="24" viewBox="0 0 24 24" fill="none" xmlns="http://www.w3.org/2000/svg">
<path d="M19.1529 13.8742C18.8207 13.4546 18.9157 13.268 19.1529 12.8929C19.1572 12.8886 21.8999 9.09874 22.1825 7.81347L22.1842 7.81261C22.3246 7.34422 22.1842 7 21.5051 7H19.2583C18.6863 7 18.4225 7.29542 18.2812 7.62594C18.2812 7.62594 17.1372 10.3643 15.5189 12.1394C14.9965 12.6523 14.7551 12.8167 14.4699 12.8167C14.3295 12.8167 14.1111 12.6523 14.1111 12.1839V7.81261C14.1111 7.25089 13.951 7 13.4775 7L9.94449 7C9.5857 7 9.37249 7.26202 9.37249 7.50606C9.37249 8.03867 10.1817 8.16112 10.2656 9.65961V12.9109C10.2656 13.6233 10.1363 13.7543 9.84944 13.7543C9.08564 13.7543 7.23179 11.0048 6.13318 7.85799C5.9114 7.24747 5.69476 7.00086 5.11849 7.00086H2.87075C2.2294 7.00086 2.1001 7.29627 2.1001 7.6268C2.1001 8.21078 2.8639 11.1144 5.65195 14.9506C7.51008 17.5691 10.1269 18.9879 12.5073 18.9879C13.9382 18.9879 14.1129 18.6728 14.1129 18.1308C14.1129 15.6287 13.9836 15.3924 14.7003 15.3924C15.0325 15.3924 15.6045 15.5568 16.9403 16.8198C18.467 18.3175 18.7179 18.9879 19.5725 18.9879H21.8194C22.4599 18.9879 22.7844 18.6728 22.5977 18.0512C22.1705 16.7436 19.2831 14.054 19.1529 13.8742V13.8742Z" stroke="white" stroke-width="1.11317"/>
</svg>
