<svg width="64" height="64" viewBox="0 0 64 64" fill="none" xmlns="http://www.w3.org/2000/svg">
<path d="M10.6666 64H53.3332C55.6897 64 57.5999 62.0898 57.5999 59.7333V9.4176C57.5989 8.9767 57.5062 8.54083 57.3279 8.1376C57.3194 8.1152 57.3055 8.09707 57.2948 8.07467C57.1395 7.7335 56.9254 7.42227 56.6623 7.1552L50.4458 0.937602C50.1777 0.671346 49.8646 0.454667 49.521 0.297602C49.5018 0.289069 49.4858 0.276269 49.4655 0.268802C49.0615 0.0910624 48.6248 -0.000485382 48.1834 1.93533e-06L10.6666 4.66663e-09C8.31015 1.93533e-06 6.3999 1.91025 6.3999 4.26667V59.7333C6.3999 62.0898 8.31015 64 10.6666 64ZM53.9583 7.46667H52.2666C51.0884 7.46667 50.1332 6.51154 50.1332 5.33334V3.6416L53.9583 7.46667ZM8.53324 4.26667C8.53324 3.08846 9.48836 2.13334 10.6666 2.13334H47.9999V5.33334C47.9999 7.68975 49.9102 9.6 52.2666 9.6H55.4666V59.7333C55.4666 60.9115 54.5114 61.8667 53.3332 61.8667H10.6666C9.48836 61.8667 8.53324 60.9115 8.53324 59.7333V4.26667Z" fill="black"/>
<path d="M15.9998 24.5332H22.3998C24.1671 24.5332 25.5998 23.1006 25.5998 21.3332V15.3748L28.4873 12.4874C28.8915 12.0688 28.8857 11.4036 28.4743 10.9921C28.0628 10.5807 27.3975 10.5749 26.979 10.9791L24.9438 13.0132C24.3445 12.21 23.402 11.7358 22.3998 11.7332H15.9998C14.2325 11.7332 12.7998 13.1659 12.7998 14.9332V21.3332C12.7998 23.1006 14.2325 24.5332 15.9998 24.5332ZM14.9331 14.9332C14.9331 14.3441 15.4107 13.8666 15.9998 13.8666H22.3998C22.8445 13.8687 23.2406 14.1481 23.3918 14.5663L20.2665 17.6916L18.8873 16.3124C18.4687 15.9082 17.8034 15.914 17.392 16.3254C16.9805 16.7369 16.9748 17.4022 17.379 17.8207L19.5123 19.954C19.9289 20.3705 20.6041 20.3705 21.0206 19.954L23.4665 17.5082V21.3332C23.4665 21.9224 22.9889 22.3999 22.3998 22.3999H15.9998C15.4107 22.3999 14.9331 21.9224 14.9331 21.3332V14.9332Z" fill="#DA291C"/>
<path d="M15.9998 38.8536H22.3998C24.1671 38.8536 25.5998 37.4209 25.5998 35.6536V29.6952L28.4873 26.8077C28.8915 26.3892 28.8857 25.7239 28.4743 25.3124C28.0628 24.901 27.3975 24.8952 26.979 25.2994L24.9438 27.3336C24.3445 26.5303 23.402 26.0561 22.3998 26.0536H15.9998C14.2325 26.0536 12.7998 27.4862 12.7998 29.2536V35.6536C12.7998 37.4209 14.2325 38.8536 15.9998 38.8536ZM14.9331 29.2536C14.9331 28.6645 15.4107 28.1869 15.9998 28.1869H22.3998C22.8445 28.189 23.2406 28.4684 23.3918 28.8866L20.2665 32.012L18.8873 30.6328C18.4687 30.2285 17.8034 30.2343 17.392 30.6458C16.9805 31.0572 16.9748 31.7225 17.379 32.141L19.5123 34.2744C19.9289 34.6908 20.6041 34.6908 21.0206 34.2744L23.4665 31.8285V35.6536C23.4665 36.2427 22.9889 36.7202 22.3998 36.7202H15.9998C15.4107 36.7202 14.9331 36.2427 14.9331 35.6536V29.2536Z" fill="#DA291C"/>
<path d="M15.9998 52.8536H22.3998C24.1671 52.8536 25.5998 51.4209 25.5998 49.6536V43.6952L28.4873 40.8077C28.8915 40.3892 28.8857 39.7239 28.4743 39.3124C28.0628 38.901 27.3975 38.8952 26.979 39.2994L24.9438 41.3336C24.3445 40.5303 23.402 40.0561 22.3998 40.0536H15.9998C14.2325 40.0536 12.7998 41.4862 12.7998 43.2536V49.6536C12.7998 51.4209 14.2325 52.8536 15.9998 52.8536ZM14.9331 43.2536C14.9331 42.6645 15.4107 42.1869 15.9998 42.1869H22.3998C22.8445 42.189 23.2406 42.4684 23.3918 42.8866L20.2665 46.012L18.8873 44.6328C18.4687 44.2285 17.8034 44.2343 17.392 44.6458C16.9805 45.0572 16.9748 45.7225 17.379 46.141L19.5123 48.2744C19.9289 48.6908 20.6041 48.6908 21.0206 48.2744L23.4665 45.8285V49.6536C23.4665 50.2427 22.9889 50.7202 22.3998 50.7202H15.9998C15.4107 50.7202 14.9331 50.2427 14.9331 49.6536V43.2536Z" fill="#DA291C"/>
<path d="M32 15.9995H50.1334C50.7225 15.9995 51.2 15.522 51.2 14.9329C51.2 14.3438 50.7225 13.8662 50.1334 13.8662H32C31.4109 13.8662 30.9333 14.3438 30.9333 14.9329C30.9333 15.522 31.4109 15.9995 32 15.9995Z" fill="black"/>
<path d="M32 21.3335H42.6667C43.2558 21.3335 43.7334 20.856 43.7334 20.2669C43.7334 19.6778 43.2558 19.2002 42.6667 19.2002H32C31.4109 19.2002 30.9333 19.6778 30.9333 20.2669C30.9333 20.856 31.4109 21.3335 32 21.3335Z" fill="black"/>
<path d="M32 30.9331H50.1334C50.7225 30.9331 51.2 30.4556 51.2 29.8665C51.2 29.2774 50.7225 28.7998 50.1334 28.7998H32C31.4109 28.7998 30.9333 29.2774 30.9333 29.8665C30.9333 30.4556 31.4109 30.9331 32 30.9331Z" fill="black"/>
<path d="M32 36.2671H42.6667C43.2558 36.2671 43.7334 35.7896 43.7334 35.2005C43.7334 34.6114 43.2558 34.1338 42.6667 34.1338H32C31.4109 34.1338 30.9333 34.6114 30.9333 35.2005C30.9333 35.7896 31.4109 36.2671 32 36.2671Z" fill="black"/>
<path d="M32 45.8667H50.1334C50.7225 45.8667 51.2 45.3892 51.2 44.8001C51.2 44.211 50.7225 43.7334 50.1334 43.7334H32C31.4109 43.7334 30.9333 44.211 30.9333 44.8001C30.9333 45.3892 31.4109 45.8667 32 45.8667Z" fill="black"/>
<path d="M32 51.1997H42.6667C43.2558 51.1997 43.7334 50.7222 43.7334 50.1331C43.7334 49.544 43.2558 49.0664 42.6667 49.0664H32C31.4109 49.0664 30.9333 49.544 30.9333 50.1331C30.9333 50.7222 31.4109 51.1997 32 51.1997Z" fill="black"/>
</svg>
