<svg width="64" height="64" viewBox="0 0 64 64" fill="none" xmlns="http://www.w3.org/2000/svg">
<g clip-path="url(#clip0_8901_23052)">
<path d="M10.6666 19.7334H8.53322C7.94412 19.7334 7.46655 20.211 7.46655 20.8001C7.46655 21.3892 7.94412 21.8667 8.53322 21.8667H10.6666C11.2557 21.8667 11.7332 21.3892 11.7332 20.8001C11.7332 20.211 11.2557 19.7334 10.6666 19.7334Z" fill="black"/>
<path d="M45.8667 12.2662C45.8667 15.8008 48.7321 18.6662 52.2667 18.6662C55.8013 18.6662 58.6667 15.8008 58.6667 12.2662C58.6667 8.73159 55.8013 5.86621 52.2667 5.86621C48.7335 5.86974 45.8702 8.73305 45.8667 12.2662ZM52.2667 7.99954C54.6231 7.99954 56.5334 9.9098 56.5334 12.2662C56.5334 14.6226 54.6231 16.5329 52.2667 16.5329C49.9103 16.5329 48 14.6226 48 12.2662C48 9.9098 49.9103 7.99954 52.2667 7.99954Z" fill="#DA291C"/>
<path d="M53.3333 2.56947V1.59987C53.3333 1.01077 52.8557 0.533203 52.2666 0.533203C51.6775 0.533203 51.2 1.01077 51.2 1.59987V2.56947C51.2 3.15857 51.6775 3.63614 52.2666 3.63614C52.8557 3.63614 53.3333 3.15857 53.3333 2.56947Z" fill="#DA291C"/>
<path d="M51.2 21.9632V22.9328C51.2 23.5219 51.6775 23.9994 52.2666 23.9994C52.8557 23.9994 53.3333 23.5219 53.3333 22.9328V21.9632C53.3333 21.374 52.8557 20.8965 52.2666 20.8965C51.6775 20.8965 51.2 21.374 51.2 21.9632Z" fill="#DA291C"/>
<path d="M62.9332 11.2002H61.9636C61.3745 11.2002 60.897 11.6778 60.897 12.2669C60.897 12.856 61.3745 13.3335 61.9636 13.3335H62.9332C63.5223 13.3335 63.9999 12.856 63.9999 12.2669C63.9999 11.6778 63.5223 11.2002 62.9332 11.2002Z" fill="#DA291C"/>
<path d="M42.5697 13.3335C43.1588 13.3335 43.6364 12.856 43.6364 12.2669C43.6364 11.6778 43.1588 11.2002 42.5697 11.2002H41.6001C41.011 11.2002 40.5334 11.6778 40.5334 12.2669C40.5334 12.856 41.011 13.3335 41.6001 13.3335H42.5697Z" fill="#DA291C"/>
<path d="M60.5633 3.96953C60.1467 3.55312 59.4715 3.55312 59.055 3.96953L58.3702 4.65433C58.0652 4.95939 57.974 5.4181 58.1391 5.81663C58.3041 6.21516 58.693 6.47504 59.1243 6.47513C59.6577 6.47513 59.839 6.20207 60.5633 5.4778C60.9797 5.06127 60.9797 4.38607 60.5633 3.96953Z" fill="#DA291C"/>
<path d="M43.97 20.5628C44.3866 20.9792 45.0618 20.9792 45.4783 20.5628L46.1631 19.878C46.5673 19.4595 46.5615 18.7942 46.1501 18.3827C45.7386 17.9713 45.0734 17.9655 44.6548 18.3697L43.97 19.0545C43.5536 19.4711 43.5536 20.1463 43.97 20.5628Z" fill="#DA291C"/>
<path d="M59.8785 18.3697C59.46 17.9655 58.7947 17.9713 58.3832 18.3827C57.9718 18.7942 57.966 19.4595 58.3702 19.878C58.9846 20.4924 59.2406 20.8753 59.8092 20.8753C60.2405 20.8752 60.6294 20.6154 60.7944 20.2168C60.9595 19.8183 60.8683 19.3596 60.5633 19.0545L59.8785 18.3697Z" fill="#DA291C"/>
<path d="M45.4783 3.97032C45.0598 3.56609 44.3945 3.57187 43.9831 3.98332C43.5716 4.39477 43.5658 5.06005 43.9701 5.47859C44.5845 6.09299 44.8405 6.47592 45.409 6.47592C45.8404 6.47583 46.2292 6.21595 46.3943 5.81742C46.5593 5.4189 46.4681 4.96019 46.1631 4.65512L45.4783 3.97032Z" fill="#DA291C"/>
<path d="M62.9333 59.1999C49.7696 59.1999 50.5963 59.2842 50.1995 59.0036L43.84 54.4575C43.2982 54.0717 42.6492 53.8651 41.984 53.8666H39.2672C39.5296 53.1316 39.4635 53.266 39.4635 48.0223L45.2672 37.8666H55.0016L62.0075 50.1332C62.1915 50.4738 62.5456 50.6879 62.9327 50.6927C63.3198 50.6975 63.6791 50.4922 63.8714 50.1562C64.0638 49.8203 64.0592 49.4066 63.8592 49.0751L51.9829 28.2847C51.6018 27.6212 50.8945 27.2126 50.1293 27.2139C49.3642 27.2152 48.6583 27.6263 48.2795 28.2911L39.4667 43.7215V26.0148C40.5119 24.9488 40.8128 23.3585 40.2294 21.9842C39.646 20.61 38.2929 19.7218 36.8 19.7332H28.7573L22.848 13.8239C21.8267 12.8112 20.442 12.2502 19.0037 12.2666C18.9569 12.1371 18.902 12.0106 18.8395 11.8879C21.0144 9.27698 20.9727 5.47347 18.7411 2.91084C16.5094 0.3482 12.7477 -0.215779 9.8627 1.57973C6.97765 3.37523 5.82237 6.99928 7.136 10.1332H3.2C1.43269 10.1332 0 11.5659 0 13.3332V16.5332C0.002288 17.292 0.408799 17.992 1.06667 18.37V31.4666C1.06667 33.2339 2.49936 34.6666 4.26667 34.6666V61.3332H1.06667C0.477563 61.3332 0 61.8108 0 62.3999C0 62.989 0.477563 63.4666 1.06667 63.4666H15.0187C15.9533 63.466 16.841 63.0569 17.4485 62.3466L22.5685 56.3732C22.7738 56.1385 23.0695 56.0026 23.3813 55.9999C43.5787 55.9999 42.1888 55.905 42.6005 56.1962L48.96 60.7423C49.5019 61.1281 50.1508 61.3348 50.816 61.3332H62.9333C63.5224 61.3332 64 60.8557 64 60.2666C64 59.6775 63.5224 59.1999 62.9333 59.1999ZM50.1333 29.3503L53.7824 35.7332H46.4875L50.1333 29.3503ZM35.5029 53.5391C35.3059 53.344 35.1966 53.0772 35.2 52.7999V27.1999C35.9115 27.2457 36.6258 27.2246 37.3333 27.137V52.7999C37.3311 53.2328 37.0675 53.6214 36.6661 53.7835C36.2647 53.9456 35.8051 53.8491 35.5029 53.5391ZM37.9872 22.3924C38.4175 22.8869 38.5067 23.5922 38.2131 24.1783C37.9195 24.7643 37.3011 25.1152 36.6475 25.0666H35.2V21.8666C36.9248 21.8666 37.4059 21.7524 37.9872 22.3924ZM33.0667 21.8666V25.0666H27.8613C26.7776 25.0266 25.7684 24.5048 25.1093 23.6436L27.1275 21.1263L27.2459 21.2447C27.6449 21.6412 28.1841 21.8646 28.7467 21.8666H33.0667ZM25.6096 19.6084L23.5925 22.1268L22.0885 20.6228C21.7837 20.3172 21.3248 20.2255 20.9259 20.3904C20.527 20.5552 20.2668 20.9443 20.2667 21.3759V31.4666H18.1333V18.37C18.7912 17.992 19.1977 17.292 19.2 16.5332V14.4127C20.0012 14.4438 20.762 14.7728 21.3333 15.3354L25.6096 19.6084ZM5.33333 23.9999C4.15513 23.9999 3.2 23.0448 3.2 21.8666V18.6666H16V21.8666C16 23.0448 15.0449 23.9999 13.8667 23.9999H5.33333ZM13.5147 2.66657C15.3456 2.6677 17.0156 3.71306 17.8165 5.35951C18.6175 7.00596 18.4093 8.96507 17.28 10.4063C16.4565 10.0426 16.6261 10.1332 9.53813 10.1332C8.55009 8.66377 8.45283 6.76923 9.2852 5.20631C10.1176 3.64338 11.7439 2.66679 13.5147 2.66657ZM2.13333 13.3332C2.13333 12.7441 2.6109 12.2666 3.2 12.2666H16C16.5891 12.2666 17.0667 12.7441 17.0667 13.3332V16.5332H2.13333V13.3332ZM3.2 31.4666V25.5402C3.8457 25.9241 4.58213 26.1288 5.33333 26.1332V28.2666C5.33333 28.8557 5.8109 29.3332 6.4 29.3332C6.9891 29.3332 7.46667 28.8557 7.46667 28.2666V26.1332H11.7333V28.2666C11.7333 28.8557 12.2109 29.3332 12.8 29.3332C13.3891 29.3332 13.8667 28.8557 13.8667 28.2666V26.1332C14.6179 26.1288 15.3543 25.9241 16 25.5402C16 31.9327 16.0597 31.6522 15.8581 31.9946C15.6688 32.327 15.3159 32.5325 14.9333 32.5332H4.26667C3.67756 32.5332 3.2 32.0557 3.2 31.4666ZM16.4085 34.2932C16.7419 34.1051 17.0477 33.8717 17.3173 33.5999H20.2667C23.2107 33.6034 25.5965 35.9892 25.6 38.9332V48.5332H20.1419L19.2 40.9898C19.1586 39.8417 18.2155 38.9325 17.0667 38.9332H14.9333C13.7789 38.9247 12.8302 39.8421 12.8 40.9962L11.8016 55.9999H6.4V34.6666C15.7707 34.6666 15.4933 34.7732 16.4085 34.2932ZM6.4 61.3332V58.1332H12.8C13.9782 58.1332 14.9333 59.0884 14.9333 60.2666V61.3332H6.4ZM16.9984 59.5956C16.7338 57.9515 15.534 56.6129 13.9285 56.1706L14.9333 41.0666H17.0667C17.0669 41.1108 17.0697 41.155 17.0752 41.1988C18.3467 51.3578 18.1333 48.577 18.1333 53.8666C18.1387 54.975 18.9921 55.8947 20.0971 55.9828L16.9984 59.5956ZM20.2667 53.8666V50.6666H26.6667C27.8449 50.6666 28.8 51.6217 28.8 52.7999V53.8666H20.2667ZM27.7333 48.6847V38.9332C27.724 35.64 25.5565 32.7425 22.4 31.8036V23.9508L24.0885 25.6394C25.0917 26.6359 26.4473 27.1967 27.8613 27.1999H33.0667C33.0667 55.2106 32.9845 53.0847 33.2597 53.8666H30.9333V52.7999C30.9261 50.8603 29.6114 49.1696 27.7333 48.6847Z" fill="black"/>
</g>
<defs>
<clipPath id="clip0_8901_23052">
<rect width="64" height="64" fill="white"/>
</clipPath>
</defs>
</svg>
