<svg width="64" height="64" viewBox="0 0 64 64" fill="none" xmlns="http://www.w3.org/2000/svg">
<path d="M15.1551 37.0576L3.72055 41.221C2.47013 41.6757 1.77173 42.8653 1.77173 44.004C1.77173 45.1427 2.47013 46.3249 3.72055 46.7796L26.597 55.099C30.0859 56.3676 33.9152 56.3676 37.4041 55.099L60.2806 46.7796C61.531 46.3249 62.2294 45.1427 62.2294 44.004C62.2294 42.8653 61.531 41.6757 60.2806 41.221L48.8387 37.0576L48.1595 38.94L59.6015 43.1034C60.0693 43.2735 60.2289 43.6152 60.2289 44.004C60.2289 44.3927 60.0693 44.7271 59.6015 44.8972L36.7176 53.224C33.6698 54.3322 30.3313 54.3322 27.2835 53.224L4.39968 44.8972C3.93186 44.7271 3.77222 44.3927 3.77222 44.004C3.77222 43.6152 3.93186 43.2735 4.39968 43.1034L15.8416 38.94L15.1551 37.0576Z" fill="black"/>
<path d="M32.0013 40.0031C32.5545 40.0031 33.0029 39.5547 33.0029 39.0016C33.0029 38.4484 32.5545 38 32.0013 38C31.4482 38 30.9998 38.4484 30.9998 39.0016C30.9998 39.5547 31.4482 40.0031 32.0013 40.0031Z" fill="black"/>
<path d="M34.9984 36.0002C35.5516 36.0002 36 35.5518 36 34.9986C36 34.4455 35.5516 33.9971 34.9984 33.9971C34.4452 33.9971 33.9968 34.4455 33.9968 34.9986C33.9968 35.5518 34.4452 36.0002 34.9984 36.0002Z" fill="black"/>
<path d="M39.9989 38.0032C40.552 38.0032 41.0005 37.5547 41.0005 37.0016C41.0005 36.4484 40.552 36 39.9989 36C39.4457 36 38.9973 36.4484 38.9973 37.0016C38.9973 37.5547 39.4457 38.0032 39.9989 38.0032Z" fill="black"/>
<path d="M44.9991 34.0012C45.5523 34.0012 46.0007 33.5528 46.0007 32.9996C46.0007 32.4465 45.5523 31.998 44.9991 31.998C44.446 31.998 43.9976 32.4465 43.9976 32.9996C43.9976 33.5528 44.446 34.0012 44.9991 34.0012Z" fill="black"/>
<path d="M40.4335 33.0032C40.9866 33.0032 41.435 32.5547 41.435 32.0016C41.435 31.4484 40.9866 31 40.4335 31C39.8803 31 39.4319 31.4484 39.4319 32.0016C39.4319 32.5547 39.8803 33.0032 40.4335 33.0032Z" fill="black"/>
<path d="M49.0016 36.0002C49.5547 36.0002 50.0031 35.5518 50.0031 34.9986C50.0031 34.4455 49.5547 33.9971 49.0016 33.9971C48.4484 33.9971 48 34.4455 48 34.9986C48 35.5518 48.4484 36.0002 49.0016 36.0002Z" fill="black"/>
<path d="M53.9982 33.0032C54.5513 33.0032 54.9997 32.5547 54.9997 32.0016C54.9997 31.4484 54.5513 31 53.9982 31C53.445 31 52.9966 31.4484 52.9966 32.0016C52.9966 32.5547 53.445 33.0032 53.9982 33.0032Z" fill="black"/>
<path d="M49.0016 31.0041C49.5547 31.0041 50.0031 30.5557 50.0031 30.0026C50.0031 29.4494 49.5547 29.001 49.0016 29.001C48.4484 29.001 48 29.4494 48 30.0026C48 30.5557 48.4484 31.0041 49.0016 31.0041Z" fill="black"/>
<path d="M29.0004 36.0002C28.4472 36.0002 27.9988 35.5518 27.9988 34.9986C27.9988 34.4455 28.4472 33.9971 29.0004 33.9971C29.5535 33.9971 30.002 34.4455 30.002 34.9986C30.002 35.5518 29.5535 36.0002 29.0004 36.0002Z" fill="black"/>
<path d="M24.0001 38.0041C23.447 38.0041 22.9986 37.5557 22.9986 37.0026C22.9986 36.4494 23.447 36.001 24.0001 36.001C24.5533 36.001 25.0017 36.4494 25.0017 37.0026C25.0017 37.5557 24.5533 38.0041 24.0001 38.0041Z" fill="black"/>
<path d="M18.9996 34.0012C18.4465 34.0012 17.9981 33.5528 17.9981 32.9996C17.9981 32.4465 18.4465 31.998 18.9996 31.998C19.5528 31.998 20.0012 32.4465 20.0012 32.9996C20.0012 33.5528 19.5528 34.0012 18.9996 34.0012Z" fill="black"/>
<path d="M23.5653 33.0032C23.0122 33.0032 22.5637 32.5547 22.5637 32.0016C22.5637 31.4484 23.0122 31 23.5653 31C24.1185 31 24.5669 31.4484 24.5669 32.0016C24.5669 32.5547 24.1185 33.0032 23.5653 33.0032Z" fill="black"/>
<path d="M15.0011 36.0002C14.448 36.0002 13.9995 35.5518 13.9995 34.9986C13.9995 34.4455 14.448 33.9971 15.0011 33.9971C15.5543 33.9971 16.0027 34.4455 16.0027 34.9986C16.0027 35.5518 15.5543 36.0002 15.0011 36.0002Z" fill="black"/>
<path d="M10.0006 33.0032C9.44747 33.0032 8.99905 32.5547 8.99905 32.0016C8.99905 31.4484 9.44747 31 10.0006 31C10.5538 31 11.0022 31.4484 11.0022 32.0016C11.0022 32.5547 10.5538 33.0032 10.0006 33.0032Z" fill="black"/>
<path d="M15.0011 31.0041C14.448 31.0041 13.9995 30.5557 13.9995 30.0026C13.9995 29.4494 14.448 29.001 15.0011 29.001C15.5543 29.001 16.0027 29.4494 16.0027 30.0026C16.0027 30.5557 15.5543 31.0041 15.0011 31.0041Z" fill="black"/>
<path d="M48.2186 24.8408L47.5321 26.7232L59.6015 31.1007C60.0691 31.2704 60.2289 31.6123 60.2289 32.0013C60.2289 32.3902 60.0691 32.7318 59.6015 32.9018L36.7176 41.2212C33.6698 42.3295 30.3313 42.3295 27.2835 41.2212L4.39968 32.9018C3.93187 32.7317 3.77222 32.39 3.77222 32.0013C3.77222 31.6125 3.93187 31.2708 4.39968 31.1007L15.8416 26.9373L15.1551 25.0623L3.72055 29.2183C2.47013 29.673 1.77173 30.8626 1.77173 32.0013C1.77173 33.1399 2.47013 34.3221 3.72055 34.7768L26.597 43.1036C30.0859 44.3723 33.9152 44.3723 37.4041 43.1036L60.2806 34.7768C61.5312 34.3221 62.2293 33.1401 62.2294 32.0013C62.2295 30.8624 61.5316 29.6723 60.2806 29.2183L48.2186 24.8408Z" fill="#DA291C"/>
<path d="M32.0006 7.94629C30.1721 7.94629 28.3415 8.26421 26.597 8.89855L3.72055 17.2179C2.47315 17.6715 1.77023 18.8571 1.77173 19.9935C1.77323 21.13 2.46696 22.3082 3.70579 22.7765C3.71314 22.779 3.72052 22.7815 3.72793 22.7839C3.72793 22.7839 15.7477 26.9544 21.7324 28.8518C27.5332 30.6909 36.4668 30.6187 42.2466 28.7485C50.3001 26.1425 60.2584 22.7913 60.2584 22.7913C60.266 22.7864 60.2736 22.7815 60.2807 22.7765C61.5312 22.3218 62.2296 21.1396 62.2296 20.0009C62.2296 18.8622 61.5312 17.6726 60.2807 17.2179L37.4041 8.89855C35.6597 8.26421 33.829 7.94629 32.0006 7.94629ZM27.2835 10.7809C30.3313 9.67265 33.6698 9.67265 36.7176 10.7809L59.6015 19.1003C60.0693 19.2704 60.2289 19.6122 60.2289 20.0009C60.2289 20.3897 60.0693 20.7314 59.6015 20.9015C59.5769 20.9097 49.6517 24.2471 41.6266 26.8439C36.4356 28.5236 27.5211 28.593 22.3303 26.9473C16.4258 25.0753 4.45289 20.9149 4.41445 20.9015C3.94306 20.7233 3.77273 20.3791 3.77222 19.9935C3.77171 19.6079 3.92885 19.2715 4.39968 19.1003L27.2835 10.7809Z" fill="black"/>
<path d="M29.4022 21.2014C25.6034 24.0505 20.4526 25.5805 18.573 25.9036L18.9126 27.8746C21.0622 27.5051 25.9459 26.0389 30.0136 23.2209C34.3635 26.2312 41.0482 27.7616 44.5056 27.9484L44.6089 25.9553C41.5745 25.7913 34.2857 23.967 30.5981 21.2014C30.2434 20.9368 29.757 20.9368 29.4022 21.2014Z" fill="black"/>
</svg>
