<svg width="47" height="37" viewBox="0 0 47 37" fill="none" xmlns="http://www.w3.org/2000/svg">
<g clip-path="url(#clip0_8903_19464)">
<path d="M18.9966 22.178C17.8205 20.2612 17.9364 20.5688 17.3414 19.9757C16.9055 21.5768 17.0016 23.2919 16.8848 24.7197C17.1132 24.8897 17.3668 24.7991 17.5574 24.8437C17.6475 24.8649 17.7133 24.9413 17.7133 25.0334V25.2055H19.0782C19.1103 24.4598 19.0757 22.3069 18.9966 22.178Z" fill="black"/>
<path d="M14.2178 16.45C15.2638 17.3929 14.9805 17.1732 15.3142 17.2519C15.3306 16.9173 15.4729 17.2909 14.7901 15.7892C14.5827 16.0285 14.4261 16.2096 14.2178 16.45Z" fill="black"/>
<path d="M47 37L38.3703 19.9949L30.268 16.2679L18.3226 0L10.0625 13.8886L8.43758 12.8559L4.85216 19.5738L2.90365 18.5026L0 25.2055H15.6818C15.7161 24.4918 15.7437 23.7778 15.7377 23.0644C15.7328 22.4781 15.5313 21.8955 15.4985 21.3068C15.328 18.2458 15.6913 18.0782 15.0422 17.9865C14.1484 17.8603 13.4333 17.3928 12.9253 16.6655C12.7988 16.4843 12.784 16.1175 12.8817 15.9135C13.1221 15.4113 13.818 14.5533 14.1966 14.1261C14.2834 14.0281 14.3789 13.9023 14.4936 13.8699C15.1116 13.6955 15.4254 13.3732 15.6314 12.8177C15.736 12.5355 15.5607 11.9757 15.5958 11.6674C15.646 11.2268 15.8978 10.9718 16.3311 10.9186C16.8043 10.8606 17.1223 11.1163 17.1696 11.5927C17.2344 12.2468 17.1424 12.3037 17.4613 12.6793C17.8216 12.5996 17.9611 12.2831 18.2879 12.062C18.5145 11.9087 18.9853 11.9063 19.0447 11.6258C19.2945 10.4461 19.7102 9.96825 19.5527 9.78121C19.3336 9.52115 19.5348 9.29804 19.6567 9.15313C19.7412 9.05274 20.0195 9.08283 20.203 9.10996C20.2849 9.12209 20.4112 9.27266 20.4077 9.35581C20.3588 10.4925 20.2896 11.6501 19.6957 12.6892C19.0798 13.282 18.5736 13.6504 18.4532 14.1803C18.3164 14.7824 18.7013 14.9769 18.9398 17.6476C18.9665 17.9454 18.9789 18.1748 18.9789 18.1748C18.8046 18.3232 18.8093 18.44 18.9201 18.6451C19.6323 19.9642 19.7225 20.5398 20.1597 22.0387C20.1597 22.0387 20.1624 24.6385 20.1599 24.6723C20.3649 24.8424 20.5925 24.7518 20.7635 24.7964C20.8444 24.8175 20.9035 24.8939 20.9035 24.986V25.2055H33.7156L35.6417 28.041C37.062 27.4979 39.5374 26.5609 40.1094 26.4066L36.3569 29.0941V29.0942L38.7834 30.204L39.7565 32.692L39.368 34.0772C40.7923 34.6759 42.9928 35.6111 43.4835 35.8786L39.2327 35.2734L39.0711 37H47ZM7.00799 23.7052L5.04792 23.0768L4.4164 24.7283H1.46539L3.34792 20.4793L5.1379 21.2381L8.80744 14.4202L7.00799 23.7052ZM19.8588 7.54978L14.1402 8.59208C16.2332 4.97355 15.2878 6.73633 18.378 0.624088L19.0738 5.40206L20.9036 6.50748L21.0984 4.71589L27.1456 13.1794L19.8588 7.54978ZM33.8718 24.379H28.8086C28.8086 24.379 29.2305 23.9744 29.8046 23.4228L33.4159 23.457L38.0231 20.3625C37.896 20.5204 33.8718 24.379 33.8718 24.379Z" fill="black"/>
<path d="M4.6582 26.7039H0.114258V36.9165H2.16871V33.8528H2.95603L5.04813 36.9165H7.51498L5.37055 33.7483C6.59362 33.4177 7.51498 32.3463 7.51498 30.9976C7.51498 29.4854 7.60199 28.9144 7.12875 28.1239C6.63078 27.2928 5.7429 26.7039 4.6582 26.7039ZM5.19806 31.5269C5.02292 31.7058 4.77563 31.7953 4.45569 31.7953H2.16879V28.7464H4.45569C5.09556 28.7464 5.43051 29.0819 5.46052 29.7528C5.46052 30.8313 5.52401 31.1935 5.19806 31.5269Z" fill="black"/>
<path d="M13.6187 26.7039H10.3495C9.21243 26.7039 8.29492 27.6155 8.29492 28.7464V30.9605C8.29492 32.0911 9.21195 33.0029 10.3495 33.0029H13.6187V34.8666C13.6187 34.8769 10.3495 34.8769 10.3495 34.8666V33.6962H8.29492V34.874C8.29492 35.4356 8.49606 35.9164 8.89851 36.3164C9.30088 36.7165 9.78447 36.9165 10.3495 36.9165H13.6186C14.1834 36.9165 14.6671 36.7165 15.0695 36.3164C15.4719 35.9164 15.6731 35.4356 15.6731 34.874V33.0028C15.6731 31.8723 14.7557 30.9604 13.6186 30.9604H10.3495V28.7538C10.3495 28.7435 13.6186 28.7435 13.6186 28.7538V29.9242H15.6731V28.7464C15.6731 28.1849 15.4718 27.704 15.0695 27.3039C14.6672 26.904 14.1835 26.7039 13.6187 26.7039Z" fill="black"/>
<path d="M21.417 26.7039H16.873V36.9165H18.9275V33.8378H21.417C22.9942 33.8378 24.2738 32.5679 24.2738 30.9976C24.2738 29.4854 24.3608 28.9144 23.8875 28.1239C23.3895 27.2928 22.5016 26.7039 21.417 26.7039ZM21.9568 31.5269C21.7817 31.7058 21.5344 31.7953 21.2145 31.7953H18.9276V28.7464H21.2145C21.8593 28.7464 22.1943 29.0819 22.2193 29.7528C22.2193 30.8313 22.2828 31.1935 21.9568 31.5269Z" fill="black"/>
<path d="M27.1356 28.0419C27.1356 27.6361 27.1591 27.4813 27.0318 27.2686C26.8977 27.0447 26.6583 26.8864 26.367 26.8864H25.144V29.6348H25.6969V28.8103H25.9089L26.4718 29.6348H27.1356L26.5585 28.7822C26.8866 28.6935 27.1356 28.4063 27.1356 28.0419ZM26.5122 28.1843C26.4209 28.2779 26.354 28.2565 25.6969 28.2565V27.4361H26.3125C26.4846 27.4361 26.5747 27.5263 26.5827 27.7069C26.5828 27.9996 26.5995 28.0953 26.5122 28.1843Z" fill="black"/>
<path d="M29.1739 27.4362V26.8864H27.4023V29.6348H29.1739V29.0852H27.9552V28.5354H28.96V27.9858H27.9552V27.4362H29.1739Z" fill="black"/>
<path d="M31.3167 29.6348V27.4362C31.3167 27.285 31.2626 27.1556 31.1543 27.048C30.9452 26.8402 30.8029 26.8864 29.9547 26.8864C29.6486 26.8864 29.4019 27.1318 29.4019 27.4362V29.6348H29.9547V28.8103H30.7639V29.6348H31.3167ZM29.9547 28.2606V27.4382C29.9547 27.4354 30.7639 27.4354 30.7639 27.4382V28.2606H29.9547Z" fill="black"/>
<path d="M31.7183 26.8864V29.6348H33.3789V29.0852H32.2712V26.8864H31.7183Z" fill="black"/>
<path d="M25.0874 32.4473C25.0874 32.7786 25.0549 32.9587 25.2499 33.1524C25.3581 33.2601 25.4883 33.3139 25.6403 33.3139C26.5806 33.3139 26.7045 33.3572 26.9106 33.1524C27.1119 32.9521 27.0729 32.7901 27.0729 32.2607C27.0729 31.9563 26.826 31.711 26.52 31.711H25.6402V31.1172C25.6402 31.1145 26.52 31.1145 26.52 31.1172V31.4321H27.0729V31.1152C27.0729 30.8108 26.826 30.5655 26.52 30.5655C25.5758 30.5655 25.4544 30.5235 25.2498 30.727C25.0464 30.929 25.0874 31.0807 25.0874 31.7109C25.0874 32.0152 25.3342 32.2606 25.6402 32.2606H26.52V32.7621C26.52 32.7649 25.6402 32.7649 25.6402 32.7621V32.4471H25.0874V32.4473Z" fill="black"/>
<path d="M29.2617 30.9478C29.1276 30.7241 28.8887 30.5656 28.5968 30.5656H27.374V33.314H27.9269V32.4854H28.5968C29.0221 32.4854 29.3656 32.1428 29.3656 31.7211C29.3656 31.3152 29.389 31.1605 29.2617 30.9478ZM28.7421 31.8635C28.6506 31.9569 28.5843 31.9357 27.9268 31.9357V31.1153H28.5422C28.7156 31.1153 28.8059 31.2055 28.8126 31.3861C28.8127 31.6763 28.8298 31.7738 28.7421 31.8635Z" fill="black"/>
<path d="M30.136 30.5656C29.83 30.5656 29.583 30.8111 29.583 31.1153V32.7643C29.583 32.9155 29.6373 33.0448 29.7455 33.1525C29.9529 33.3587 30.088 33.314 30.9613 33.314C31.2673 33.314 31.5142 33.0686 31.5142 32.7643V31.1153C31.5142 30.9642 31.4601 30.8348 31.3517 30.7271C31.1438 30.5204 31.0075 30.5656 30.136 30.5656ZM30.9613 32.7642H30.136V31.1152H30.9613V32.7642Z" fill="black"/>
<path d="M33.8812 31.7211C33.8812 31.3152 33.9046 31.1605 33.7773 30.9478C33.6432 30.7241 33.4043 30.5656 33.1124 30.5656H31.8896V33.314H32.4425V32.4894H32.6543L33.2174 33.314H33.8812L33.3041 32.4613C33.633 32.3724 33.8812 32.0844 33.8812 31.7211ZM33.2577 31.8635C33.1662 31.9569 33.1 31.9357 32.4424 31.9357V31.1153H33.0578C33.23 31.1153 33.3202 31.2055 33.3282 31.3861C33.3283 31.6763 33.3454 31.7738 33.2577 31.8635Z" fill="black"/>
<path d="M35.1629 33.314V31.1153H35.853V30.5656H33.9219V31.1153H34.612V33.314H35.1629Z" fill="black"/>
<path d="M36.5245 30.5656C36.3725 30.5656 36.2424 30.6195 36.1341 30.7271C35.9307 30.9292 35.9716 31.0809 35.9716 31.7111C35.9716 31.8622 36.0257 31.9917 36.1341 32.0992C36.343 32.3069 36.475 32.2607 37.4044 32.2607V32.7623C37.4044 32.7651 36.5245 32.7651 36.5245 32.7623V32.4473H35.9716C35.9716 32.7786 35.9391 32.9587 36.1341 33.1524C36.343 33.3601 36.475 33.3139 37.4044 33.3139C37.7102 33.3139 37.9572 33.0685 37.9572 32.7643C37.9572 32.2321 37.9952 32.0719 37.7948 31.8725C37.585 31.6641 37.4507 31.711 36.5245 31.711V31.1172C36.5245 31.1145 37.4044 31.1145 37.4044 31.1172V31.4321H37.9572C37.9572 31.0988 37.9896 30.9207 37.7948 30.727C37.585 30.5187 37.4508 30.5656 36.5245 30.5656Z" fill="black"/>
<path d="M26.7655 34.349C26.5401 34.2144 26.4825 34.2447 25.1562 34.2447V36.9931H25.7091V36.1645H26.379C26.6716 36.1645 26.9101 36.0075 27.0439 35.7844C27.1714 35.5716 27.1478 35.4175 27.1478 35.0111C27.1478 34.8706 27.1132 34.7426 27.0439 34.6269C26.9746 34.5112 26.8818 34.4186 26.7655 34.349ZM26.5244 35.5426C26.4329 35.636 26.3666 35.6148 25.7091 35.6148V34.7944H26.3245C26.498 34.7944 26.5883 34.8846 26.5949 35.0652C26.595 35.3554 26.6121 35.4529 26.5244 35.5426Z" fill="black"/>
<path d="M27.3818 36.993H29.1535V36.4433H27.9347V35.8937H28.9395V35.344H27.9347V34.7943H29.1535V34.2447H27.3818V36.993Z" fill="black"/>
<path d="M29.868 34.2447C29.5619 34.2447 29.3149 34.4902 29.3149 34.7944V36.4434C29.3149 36.5946 29.3692 36.7239 29.4774 36.8316C29.6849 37.0378 29.82 36.9931 30.6932 36.9931C30.9992 36.9931 31.2461 36.7477 31.2461 36.4434V34.7944C31.2461 34.6433 31.192 34.5139 31.0837 34.4062C30.8756 34.1996 30.7394 34.2447 29.868 34.2447ZM30.6932 36.4433H29.8679V34.7944H30.6932V36.4433Z" fill="black"/>
<path d="M32.8443 34.2447H31.6216V36.993H32.1744V36.1645H32.8443C33.2697 36.1645 33.6131 35.8219 33.6131 35.4002C33.6131 34.9944 33.6365 34.8397 33.5092 34.6269C33.3751 34.4032 33.1363 34.2447 32.8443 34.2447ZM32.9897 35.5426C32.8982 35.636 32.832 35.6148 32.1744 35.6148V34.7943H32.7898C32.9633 34.7943 33.0536 34.8846 33.0602 35.0652C33.0602 35.3554 33.0773 35.4529 32.9897 35.5426Z" fill="black"/>
<path d="M34.4 34.2447H33.8472V36.993H35.5078V36.4433H34.4V34.2447Z" fill="black"/>
<path d="M35.7075 36.993H37.4792V36.4433H36.2604V35.8937H37.2652V35.344H36.2604V34.7943H37.4792V34.2447H35.7075V36.993Z" fill="black"/>
<path d="M42.3373 25.3137L43.1673 25.3314C43.1741 25.3247 43.3684 25.0458 43.3742 25.0372L42.2241 25.0617C42.3205 25.2763 42.2973 25.2247 42.3373 25.3137Z" fill="black"/>
<path d="M45.7467 19.421L39.7485 19.5488L39.858 19.7926L45.6342 19.9157C45.6391 19.8957 45.7467 19.4414 45.7467 19.421Z" fill="black"/>
<path d="M45.5426 20.275L40.1265 20.3904L40.2746 20.7205L45.3844 20.8293C45.4405 20.646 45.4931 20.4612 45.5426 20.275Z" fill="black"/>
<path d="M45.2542 21.2424L40.5542 21.3424C40.5859 21.413 40.5611 21.3578 40.6838 21.6312L45.0812 21.7249C45.262 21.2265 45.2542 21.2424 45.2542 21.2424Z" fill="black"/>
<path d="M44.4713 23.139L41.3901 23.2046C41.4637 23.3683 41.4284 23.2899 41.5141 23.4807L44.27 23.5394C44.27 23.5394 44.3948 23.2998 44.4713 23.139Z" fill="black"/>
<path d="M23.4719 2.68777L34.4744 2.92205L23.7785 3.14987L24.0868 3.61453L35.5017 3.85759L24.4049 4.09394C24.5451 4.30525 24.5156 4.26088 24.7053 4.54671L36.4916 4.79775L25.0337 5.04169L25.3123 5.46158L36.7675 5.70543L25.6316 5.94259C25.7828 6.17049 25.7312 6.09253 25.8837 6.32242L39.4023 6.61032L26.2603 6.89017L26.5021 7.2546L40.3921 7.55041L26.8892 7.83791L27.1092 8.16947L40.6681 8.45817L27.4871 8.73889L27.6432 8.97413L41.9908 9.27967L28.043 9.57668L28.2617 9.90631L42.9806 10.2198L28.6719 10.5245C28.6748 10.5288 28.866 10.817 28.8688 10.8212L43.2565 11.1276L29.2697 11.4255C29.4469 11.6925 29.4012 11.6236 29.4832 11.7472L44.5119 12.0673L29.902 12.3784L30.1017 12.6794L45.5018 13.0074L30.5309 13.3261L30.7088 13.5943L45.7777 13.9152L31.1287 14.2271L31.5446 14.6149L46.0196 14.834C45.3671 7.21502 39.247 1.0142 31.3983 0.388279C28.3592 0.151842 26.2374 0.828037 25.8341 0.91717L33.2087 1.07421L24.7685 1.25391C24.3549 1.40074 23.89 1.58722 23.4553 1.78551L34.1985 2.01429L23.1807 2.24889L23.4719 2.68777Z" fill="black"/>
<path d="M43.9535 24.1112L41.8179 24.1567L41.9233 24.3914L43.7628 24.4306C43.7902 24.3855 43.9467 24.1228 43.9535 24.1112Z" fill="black"/>
<path d="M44.9086 22.1634L40.9604 22.2475L41.0975 22.5528L44.7095 22.6298C44.8232 22.3749 44.9086 22.1634 44.9086 22.1634Z" fill="black"/>
<path d="M46.0672 16.7412L35.48 16.9667C35.602 17.03 35.4827 16.971 36.1788 17.3099H46.0356C46.0626 16.9243 46.0561 17.0633 46.0672 16.7412Z" fill="black"/>
<path d="M32.8592 15.5536L46.0722 15.754C46.0642 15.4565 46.0473 15.1609 46.0228 14.8673L32.1562 15.1399L32.8592 15.5536Z" fill="black"/>
<path d="M34.4591 16.4346L46.0703 16.656C46.0784 16.3853 46.0796 16.1073 46.0733 15.8274L33.7578 16.1032L34.4591 16.4346Z" fill="black"/>
<path d="M45.9067 18.5039L38.7388 18.6566L39.3801 18.9891L45.8029 19.126C45.8242 19.0409 45.8965 18.5642 45.9067 18.5039Z" fill="black"/>
<path d="M46.0201 17.5403L36.9585 17.7332C37.3207 17.9211 37.1916 17.8541 37.5663 18.0484L45.9479 18.2269C45.9787 17.9881 46.015 17.6017 46.0201 17.5403Z" fill="black"/>
</g>
<defs>
<clipPath id="clip0_8903_19464">
<rect width="47" height="37" fill="white"/>
</clipPath>
</defs>
</svg>
