<svg width="107" height="85" viewBox="0 0 107 85" fill="none" xmlns="http://www.w3.org/2000/svg">
<g clip-path="url(#clip0_8901_22440)">
<path d="M43.2475 50.9495C40.57 46.546 40.8338 47.2527 39.4792 45.8901C38.4868 49.5684 38.7058 53.5084 38.4397 56.7885C38.9597 57.1791 39.537 56.971 39.971 57.0735C40.1762 57.1221 40.326 57.2977 40.326 57.5093V57.9045H43.4332C43.5063 56.1914 43.4275 51.2457 43.2475 50.9495Z" fill="white"/>
<path d="M32.3682 37.7907C34.7495 39.9567 34.1046 39.4521 34.8643 39.6328C34.9017 38.8642 35.2255 39.7225 33.671 36.2725C33.199 36.8224 32.8423 37.2384 32.3682 37.7907Z" fill="white"/>
<path d="M107 85L87.3538 45.9342L68.9079 37.3723L41.7131 0L22.9081 31.9063L19.209 29.5339L11.0464 44.9669L6.61044 42.5059L0 57.9044H35.7011C35.7793 56.2648 35.8421 54.6247 35.8284 52.9857C35.8171 51.6389 35.3585 50.3005 35.2837 48.9481C34.8956 41.916 35.7228 41.531 34.2451 41.3204C32.2102 41.0304 30.5821 39.9565 29.4256 38.2856C29.1376 37.8694 29.104 37.0267 29.3264 36.558C29.8738 35.4044 31.4581 33.4334 32.3198 32.4519C32.5176 32.2268 32.735 31.9377 32.9961 31.8633C34.403 31.4627 35.1174 30.7223 35.5863 29.4461C35.8246 28.7977 35.4255 27.5117 35.5054 26.8036C35.6196 25.7913 36.1928 25.2056 37.1794 25.0833C38.2566 24.9501 38.9805 25.5374 39.0882 26.632C39.2358 28.1346 39.0262 28.2653 39.7524 29.128C40.5725 28.9451 40.8901 28.218 41.6341 27.7101C42.15 27.3579 43.2219 27.3524 43.3571 26.7079C43.9258 23.9979 44.8721 22.9 44.5136 22.4703C44.0148 21.8729 44.4729 21.3604 44.7504 21.0275C44.9427 20.7968 45.5764 20.866 45.9941 20.9283C46.1805 20.9561 46.4681 21.3021 46.46 21.4931C46.3488 24.1044 46.1913 26.7638 44.8391 29.1509C43.437 30.5128 42.2847 31.359 42.0106 32.5764C41.699 33.9597 42.5752 34.4064 43.1183 40.5418C43.1789 41.226 43.2073 41.7528 43.2073 41.7528C42.8104 42.0938 42.8212 42.3621 43.0733 42.8335C44.6949 45.8637 44.9003 47.1859 45.8954 50.6293C45.8954 50.6293 45.9016 56.602 45.896 56.6797C46.3627 57.0703 46.8807 56.8623 47.2701 56.9647C47.4543 57.0131 47.5888 57.1888 47.5888 57.4003V57.9044H76.7569L81.1417 64.4186C84.3753 63.1709 90.0107 61.0182 91.313 60.6639L82.77 66.8378V66.838L88.2941 69.3875L90.5095 75.1031L89.6249 78.2855C92.8675 79.6609 97.8772 81.8094 98.9944 82.4239L89.317 81.0334L88.949 85H107ZM15.9543 54.4579L11.4921 53.0143L10.0544 56.8084H3.3361L7.62186 47.0472L11.6969 48.7903L20.051 33.1276L15.9543 54.4579ZM45.2104 17.3441L32.1916 19.7386C36.9564 11.4257 34.8041 15.4754 41.8392 1.43372L43.4234 12.4101L47.589 14.9496L48.0324 10.8338L61.7995 30.277L45.2104 17.3441ZM77.1125 56.0058H65.5855C65.5855 56.0058 66.5461 55.0762 67.853 53.8091L76.0744 53.8878L86.5633 46.7788C86.2738 47.1414 77.1125 56.0058 77.1125 56.0058Z" fill="white"/>
<path d="M10.6052 61.3469H0.260498V84.8083H4.93766V77.7698H6.73006L11.4929 84.8083H17.1089L12.2269 77.5299C15.0114 76.7704 17.1089 74.309 17.1089 71.2108C17.1089 67.7368 17.307 66.425 16.2296 64.609C15.096 62.6996 13.0746 61.3469 10.6052 61.3469ZM11.8343 72.4267C11.4355 72.8377 10.8726 73.0432 10.1442 73.0432H4.93784V66.0391H10.1442C11.6009 66.0391 12.3634 66.8097 12.4318 68.3511C12.4318 70.8288 12.5763 71.6607 11.8343 72.4267Z" fill="white"/>
<path d="M31.0042 61.3469H23.5616C20.9728 61.3469 18.884 63.4411 18.884 66.0391V71.1254C18.884 73.7228 20.9717 75.8175 23.5616 75.8175H31.0042V80.0989C31.0042 80.1227 23.5616 80.1227 23.5616 80.0989V77.4102H18.884V80.1159C18.884 81.4061 19.342 82.5106 20.2582 83.4295C21.1742 84.3487 22.2751 84.8081 23.5614 84.8081H31.004C32.2897 84.8081 33.391 84.3487 34.307 83.4295C35.223 82.5106 35.6811 81.4061 35.6811 80.1159V75.8173C35.6811 73.2201 33.5925 71.1252 31.004 71.1252H23.5614V66.0561C23.5614 66.0323 31.004 66.0323 31.004 66.0561V68.7448H35.6811V66.0391C35.6811 64.7491 35.2228 63.6444 34.307 62.7253C33.3912 61.8065 32.2898 61.3469 31.0042 61.3469Z" fill="white"/>
<path d="M48.7576 61.3469H38.4128V84.8083H43.09V77.7356H48.7576C52.3482 77.7356 55.2613 74.8181 55.2613 71.2108C55.2613 67.7368 55.4594 66.425 54.382 64.609C53.2482 62.6996 51.2268 61.3469 48.7576 61.3469ZM49.9866 72.4267C49.5879 72.8377 49.0249 73.0432 48.2965 73.0432H43.0902V66.0391H48.2965C49.7646 66.0391 50.5271 66.8097 50.5841 68.3511C50.5841 70.8288 50.7287 71.6607 49.9866 72.4267Z" fill="white"/>
<path d="M61.7768 64.4205C61.7768 63.4882 61.8301 63.1327 61.5403 62.644C61.2351 62.1296 60.6901 61.7661 60.0268 61.7661H57.2427V68.0799H58.5013V66.1857H58.9839L60.2654 68.0799H61.7766L60.4627 66.1212C61.2097 65.9175 61.7768 65.2577 61.7768 64.4205ZM60.3573 64.7478C60.1495 64.9626 59.9973 64.9137 58.5013 64.9137V63.0288H59.9027C60.2946 63.0288 60.4997 63.2361 60.5179 63.651C60.5181 64.3234 60.5561 64.5432 60.3573 64.7478Z" fill="white"/>
<path d="M66.4168 63.029V61.7661H62.3835V68.0799H66.4168V66.8172H63.6422V65.5543H65.9298V64.2917H63.6422V63.029H66.4168Z" fill="white"/>
<path d="M71.2954 68.08V63.0291C71.2954 62.6819 71.1723 62.3845 70.9256 62.1372C70.4496 61.6599 70.1256 61.7662 68.1947 61.7662C67.4977 61.7662 66.936 62.3299 66.936 63.0291V68.08H68.1947V66.1858H70.0368V68.08H71.2954ZM68.1947 64.9231V63.0336C68.1947 63.0274 70.0368 63.0274 70.0368 63.0336V64.9231H68.1947Z" fill="white"/>
<path d="M72.2097 61.7661V68.0799H75.9902V66.8172H73.4685V61.7661H72.2097Z" fill="white"/>
<path d="M57.1143 74.5411C57.1143 75.3022 57.0403 75.716 57.4841 76.1609C57.7305 76.4083 58.0269 76.5319 58.373 76.5319C60.5136 76.5319 60.7958 76.6314 61.2648 76.1609C61.7231 75.7007 61.6343 75.3286 61.6343 74.1123C61.6343 73.4131 61.0724 72.8496 60.3757 72.8496H58.3728V71.4854C58.3728 71.4792 60.3757 71.4792 60.3757 71.4854V72.2089H61.6343V71.4808C61.6343 70.7815 61.0724 70.2179 60.3757 70.2179C58.226 70.2179 57.9497 70.1215 57.484 70.589C57.0209 71.0531 57.1141 71.4016 57.1141 72.8494C57.1141 73.5484 57.676 74.1121 58.3728 74.1121H60.3757V75.2643C60.3757 75.2707 58.3728 75.2707 58.3728 75.2643V74.5407H57.1143V74.5411Z" fill="white"/>
<path d="M66.6168 71.0962C66.3114 70.5823 65.7676 70.2183 65.103 70.2183H62.3193V76.532H63.578V74.6287H65.103C66.0713 74.6287 66.8532 73.8415 66.8532 72.8729C66.8532 71.9403 66.9066 71.5849 66.6168 71.0962ZM65.4338 73.1999C65.2255 73.4146 65.0747 73.3658 63.5778 73.3658V71.4809H64.9788C65.3737 71.4809 65.5792 71.6883 65.5944 72.1031C65.5946 72.7698 65.6335 72.9938 65.4338 73.1999Z" fill="white"/>
<path d="M68.6081 70.2183C67.9114 70.2183 67.3491 70.7822 67.3491 71.4812V75.2694C67.3491 75.6166 67.4726 75.9138 67.719 76.1611C68.1913 76.635 68.4989 76.5321 70.487 76.5321C71.1835 76.5321 71.7456 75.9684 71.7456 75.2694V71.4812C71.7456 71.134 71.6224 70.8367 71.3758 70.5894C70.9023 70.1146 70.5922 70.2183 68.6081 70.2183ZM70.487 75.2692H68.6081V71.481H70.487V75.2692Z" fill="white"/>
<path d="M77.1342 72.8727C77.1342 71.9403 77.1876 71.5849 76.8978 71.0962C76.5924 70.5823 76.0486 70.2183 75.3841 70.2183H72.6003V76.532H73.859V74.6378H74.3412L75.6231 76.532H77.1342L75.8204 74.5733C76.5692 74.3691 77.1342 73.7073 77.1342 72.8727ZM75.7148 73.1999C75.5065 73.4146 75.3557 73.3658 73.8588 73.3658V71.4809H75.2598C75.6518 71.4809 75.8571 71.6883 75.8754 72.1031C75.8756 72.7698 75.9145 72.9938 75.7148 73.1999Z" fill="white"/>
<path d="M80.0514 76.532V71.4811H81.6226V70.2183H77.2261V71.4811H78.7972V76.532H80.0514Z" fill="white"/>
<path d="M83.1518 70.2184C82.8057 70.2184 82.5097 70.3421 82.263 70.5894C81.8 71.0536 81.8932 71.4021 81.8932 72.8499C81.8932 73.1971 82.0163 73.4944 82.263 73.7416C82.7387 74.2187 83.0391 74.1126 85.1549 74.1126V75.2647C85.1549 75.2711 83.1518 75.2711 83.1518 75.2647V74.5412H81.8932C81.8932 75.3023 81.8192 75.7161 82.263 76.161C82.7387 76.6381 83.0391 76.532 85.1549 76.532C85.8511 76.532 86.4136 75.9683 86.4136 75.2693C86.4136 74.0468 86.5 73.6787 86.0437 73.2208C85.5662 72.7419 85.2603 72.8497 83.1518 72.8497V71.4855C83.1518 71.4793 85.1549 71.4793 85.1549 71.4855V72.209H86.4136C86.4136 71.4433 86.4872 71.0342 86.0437 70.5891C85.5662 70.1106 85.2605 70.2184 83.1518 70.2184Z" fill="white"/>
<path d="M60.9341 78.9099C60.421 78.6006 60.2898 78.6703 57.2705 78.6703V84.9841H58.5292V83.0807H60.0542C60.7205 83.0807 61.2633 82.7199 61.568 82.2074C61.8581 81.7185 61.8044 81.3645 61.8044 80.4309C61.8044 80.1082 61.7257 79.8142 61.568 79.5482C61.4101 79.2824 61.1988 79.0697 60.9341 78.9099ZM60.3851 81.6519C60.1768 81.8666 60.0261 81.8178 58.5292 81.8178V79.933H59.9301C60.3252 79.933 60.5306 80.1403 60.5458 80.5552C60.5459 81.2219 60.5849 81.4459 60.3851 81.6519Z" fill="white"/>
<path d="M62.3376 84.9838H66.371V83.7211H63.5963V82.4584H65.8839V81.1955H63.5963V79.9328H66.371V78.6702H62.3376V84.9838Z" fill="white"/>
<path d="M67.9973 78.6702C67.3005 78.6702 66.7383 79.2341 66.7383 79.9331V83.7213C66.7383 84.0685 66.8618 84.3657 67.1081 84.613C67.5805 85.0869 67.888 84.984 69.8761 84.984C70.5727 84.984 71.1348 84.4203 71.1348 83.7213V79.9331C71.1348 79.5859 71.0116 79.2886 70.7649 79.0413C70.2913 78.5665 69.9812 78.6702 67.9973 78.6702ZM69.8759 83.7212H67.9971V79.9329H69.8759V83.7212Z" fill="white"/>
<path d="M74.7727 78.6702H71.989V84.9839H73.2477V83.0806H74.7727C75.741 83.0806 76.5229 82.2934 76.5229 81.3248C76.5229 80.3924 76.5763 80.037 76.2865 79.5483C75.9811 79.0342 75.4373 78.6702 74.7727 78.6702ZM75.1037 81.6518C74.8953 81.8665 74.7446 81.8177 73.2477 81.8177V79.9328H74.6487C75.0435 79.9328 75.2491 80.1402 75.2643 80.555C75.2643 81.2217 75.3032 81.4458 75.1037 81.6518Z" fill="white"/>
<path d="M78.3148 78.6702H77.0562V84.9838H80.8367V83.7211H78.3148V78.6702Z" fill="white"/>
<path d="M81.2915 84.9838H85.3249V83.7211H82.5501V82.4584H84.8377V81.1955H82.5501V79.9328H85.3249V78.6702H81.2915V84.9838Z" fill="white"/>
<path d="M96.3846 58.1533L98.2742 58.1939C98.2897 58.1784 98.732 57.5379 98.7451 57.5181L96.127 57.5743C96.3464 58.0673 96.2936 57.9487 96.3846 58.1533Z" fill="white"/>
<path d="M104.147 44.6157L90.4917 44.9092L90.7409 45.4694L103.891 45.7521C103.902 45.7063 104.147 44.6627 104.147 44.6157Z" fill="white"/>
<path d="M103.683 46.5776L91.3521 46.8427L91.6894 47.6011L103.322 47.8511C103.45 47.4299 103.57 47.0053 103.683 46.5776Z" fill="white"/>
<path d="M103.025 48.7999L92.3252 49.0298C92.3974 49.1919 92.3409 49.065 92.6203 49.6932L102.631 49.9084C103.043 48.7635 103.025 48.7999 103.025 48.7999Z" fill="white"/>
<path d="M101.243 53.1572L94.2288 53.3079C94.3961 53.6839 94.3159 53.5039 94.5109 53.9422L100.785 54.0769C100.785 54.0769 101.069 53.5266 101.243 53.1572Z" fill="white"/>
<path d="M53.4361 6.17453L78.4844 6.71274L54.1342 7.23611L54.836 8.30356L80.8232 8.86194L55.5602 9.40492C55.8794 9.89035 55.8124 9.78842 56.2442 10.4451L83.0768 11.0218L56.9919 11.5822L57.6261 12.5468L83.7048 13.107L58.353 13.6518C58.6973 14.1754 58.5796 13.9963 58.9268 14.5244L89.7033 15.1858L59.7844 15.8287L60.3348 16.6659L91.9568 17.3454L61.2161 18.0059L61.7169 18.7676L92.585 19.4308L62.5772 20.0758L62.9326 20.6162L95.5962 21.3181L63.8428 22.0004L64.3407 22.7577L97.8496 23.4777L65.2745 24.1778C65.2811 24.1877 65.7163 24.8497 65.7227 24.8594L98.4777 25.5633L66.6355 26.2476C67.0389 26.861 66.9348 26.7028 67.1215 26.9868L101.336 27.722L68.075 28.4368L68.5297 29.1283L103.589 29.8817L69.5067 30.614L69.9118 31.2302L104.217 31.9673L70.8677 32.6839L71.8146 33.5748L104.768 34.078C103.283 16.575 89.3497 2.32984 71.4815 0.891909C64.5626 0.348743 59.7321 1.90216 58.8141 2.10693L75.603 2.46769L56.3881 2.88052C55.4465 3.21782 54.3882 3.64623 53.3983 4.10177L77.8564 4.62734L52.7732 5.16629L53.4361 6.17453Z" fill="white"/>
<path d="M100.064 55.3906L95.2019 55.4951L95.4418 56.0343L99.6296 56.1243C99.6921 56.0209 100.048 55.4172 100.064 55.3906Z" fill="white"/>
<path d="M102.239 50.9158L93.2505 51.109L93.5626 51.8105L101.785 51.9873C102.044 51.4017 102.239 50.9158 102.239 50.9158Z" fill="white"/>
<path d="M104.877 38.4595L80.7739 38.9775C81.0517 39.1229 80.7801 38.9874 82.3648 39.766H104.805C104.866 38.88 104.852 39.1993 104.877 38.4595Z" fill="white"/>
<path d="M74.8069 35.7313L104.888 36.1918C104.869 35.5082 104.831 34.8292 104.775 34.1548L73.2065 34.781L74.8069 35.7313Z" fill="white"/>
<path d="M78.4495 37.755L104.884 38.2637C104.902 37.6419 104.905 37.0032 104.89 36.3601L76.853 36.9936L78.4495 37.755Z" fill="white"/>
<path d="M104.511 42.509L88.1926 42.8597L89.6526 43.6238L104.275 43.9382C104.323 43.7427 104.488 42.6476 104.511 42.509Z" fill="white"/>
<path d="M104.769 40.2952L84.1396 40.7384C84.9643 41.17 84.6703 41.0161 85.5235 41.4625L104.605 41.8724C104.675 41.3239 104.758 40.4363 104.769 40.2952Z" fill="white"/>
</g>
<defs>
<clipPath id="clip0_8901_22440">
<rect width="107" height="85" fill="white"/>
</clipPath>
</defs>
</svg>
