<svg width="28" height="20" viewBox="0 0 28 20" fill="none" xmlns="http://www.w3.org/2000/svg">
<path d="M10.3007 19.6944L12.882 17.1243C13.0584 16.9489 13.058 16.669 12.8809 16.494L8.50724 12.1688L27.4222 12.1688C27.6788 12.1688 27.8869 11.9666 27.8869 11.7181L27.8869 8.11264C27.8869 7.86375 27.6788 7.66192 27.4222 7.66192L8.50724 7.66192L12.8809 3.33666C13.0577 3.16167 13.058 2.88211 12.882 2.70677L10.3011 0.136645C10.2136 0.0494988 10.0936 2.12182e-07 9.96816 2.13679e-07C9.84267 2.15175e-07 9.72276 0.0494988 9.63526 0.136645L0.132109 9.6011C0.0442657 9.6886 -3.94297e-06 9.80224 -3.94162e-06 9.91553C-3.94027e-06 10.0288 0.0442657 10.1421 0.132109 10.23L9.63526 19.6944C9.72241 19.7816 9.84267 19.8304 9.96816 19.8304C10.0936 19.8304 10.2136 19.7816 10.3011 19.6944L10.3007 19.6944Z" fill="white"/>
</svg>
