<svg width="24" height="33" viewBox="0 0 24 33" fill="none" xmlns="http://www.w3.org/2000/svg">
<path d="M23.0177 12.5159L20.1444 15.4017C19.9484 15.5988 19.6354 15.5985 19.4398 15.4005L14.6043 10.5108L14.6043 31.6572C14.6043 31.944 14.3783 32.1766 14.1004 32.1766H10.0697C9.79142 32.1766 9.56578 31.944 9.56578 31.6572L9.56578 10.5108L4.73028 15.4005C4.53465 15.5981 4.22211 15.5985 4.02608 15.4017L1.15276 12.5163C1.05534 12.4184 1 12.2844 1 12.1441C1 12.0038 1.05534 11.8697 1.15276 11.7719L11.7337 1.14769C11.8315 1.04948 11.9586 0.999992 12.0852 0.999992C12.2119 0.999992 12.3386 1.04948 12.4368 1.14769L23.0177 11.7719C23.1151 11.8693 23.1697 12.0038 23.1697 12.1441C23.1697 12.2844 23.1151 12.4184 23.0177 12.5163V12.5159Z" stroke="white" stroke-width="1.4"/>
</svg>
