<svg width="118" height="58" viewBox="0 0 118 58" fill="none" xmlns="http://www.w3.org/2000/svg">
<g clip-path="url(#clip0_30_150)">
<path d="M68.9207 31.6472L66.7758 32.9423C67.3901 34.0533 67.6869 34.982 67.6869 36.3895V44.2178H70.9781L71.0021 35.1422H75.0226L75.5031 31.9403C73.8575 32.1243 72.0746 32.3527 69.9949 32.8963L68.9207 31.6472Z" fill="white"/>
<path d="M102.517 31.8313H99.2963V40.9734C97.6061 42.4474 94.5894 42.4951 94.5894 39.2728V31.8313H91.3909V39.5233C91.3909 41.8595 92.3742 43.6061 93.7452 44.1736C96.4632 45.2659 99.3186 43.8345 100.12 43.175L101.261 44.4701L103.454 43.1529C102.723 41.8612 102.517 41.0433 102.517 39.5011V31.8313V31.8313Z" fill="white"/>
<path d="M59.1639 42.3348C62.5923 42.3348 65.6536 40.1349 65.6089 37.0728C65.5832 35.3057 64.8179 33.9612 63.6082 33.0683L65.1045 31.2416L63.6648 29.8562L60.8026 31.93C60.329 31.8499 59.8314 31.8073 59.3252 31.8073C55.8967 31.8073 52.9505 33.6681 52.9505 37.0728C52.9505 39.0563 54.0555 40.6274 55.7286 41.5186C54.6029 42.6432 53.0877 44.1479 53.0877 44.1479L54.7762 46.9169C55.8744 46.7806 63.2324 45.2623 62.3178 48.3006L64.9689 48.8902C65.2417 48.3909 65.4253 47.5764 65.4253 46.8505C65.4253 42.6535 58.9614 43.9451 57.2249 44.1479L57.0413 43.8548C57.0413 43.8548 57.6298 43.0488 58.2115 42.2769C58.5204 42.3144 58.8396 42.3348 59.1639 42.3348ZM59.2582 33.9646C60.969 33.9646 62.3418 35.3227 62.3418 37.0268C62.3418 38.7274 60.969 40.0889 59.2582 40.0889C57.5423 40.0889 56.1713 38.7274 56.1713 37.0268C56.1713 35.3227 57.5423 33.9646 59.2582 33.9646Z" fill="white"/>
<path d="M82.6499 31.5587C78.8783 31.4463 76.1603 33.6922 75.9767 37.4359C75.7948 41.379 78.1473 44.4923 82.6499 44.4923C87.2195 44.4923 89.663 41.3143 89.3421 37.3439C89.0229 33.578 86.3958 31.5587 82.6499 31.5587ZM85.9154 38.1141C85.8467 40.1112 85.0711 42.4015 82.6705 42.3111C80.203 42.2208 79.472 40.1811 79.4034 38.1567C79.3365 35.9807 80.0675 33.7143 82.6499 33.7143C85.2307 33.7143 85.9857 35.9381 85.9154 38.1141Z" fill="white"/>
<path d="M108.267 32.6457L107.124 31.6045L104.976 32.966C105.594 33.9646 105.868 35.0534 105.868 36.2548V49.1645L108.837 49.1219L109.067 44.2194C109.844 44.6062 110.688 44.7425 111.512 44.7613C115.671 44.8312 118 41.5202 118 38.2042C118 32.3066 112.699 30.1714 108.267 32.6457ZM114.618 38.453C114.505 41.6088 111.49 43.2617 108.998 41.4487V34.9393C111.924 32.966 114.755 35.2085 114.618 38.453Z" fill="white"/>
<path d="M35.0429 0L0 34.7997V58H23.3625L58.4071 23.202V0H35.0429Z" fill="white"/>
<path d="M35.0429 0L11.7302 23.1492C12.5212 23.0998 13.8185 23.0759 14.661 23.0759C18.8496 23.0759 20.8384 24.3659 21.9795 25.4718C23.1463 26.6033 23.728 28.0517 23.728 30.0778V37.4886C23.728 38.2776 23.728 38.9899 23.8619 39.3852C24.1536 40.0941 25.6121 42.8069 25.6121 42.8069L22.0601 45.2794L19.2237 42.9125C18.6402 43.2261 17.0496 44.0934 16.2534 44.4138C14.848 44.9659 13.4152 45.0426 12.7288 45.0426C11.5603 45.0426 10.0503 44.8057 8.59171 43.9912C7.10742 43.175 5.41036 41.3585 5.41036 38.2537C5.41036 32.4089 11.3492 31.7 14.5803 31.6711L18.1872 31.6472V30.2363C18.1872 28.8407 17.597 28.2051 16.8557 27.7058C16.1401 27.2031 14.3967 27.0787 13.0446 27.0787H7.77664L0 34.7997V58H23.3625L37.3646 44.0951H31.6265L24.7078 23.3537H31.0945L36.1343 39.8061H36.5049L41.5429 23.3537H47.8524L42.7029 38.8007L58.4089 23.202V0H35.0429ZM10.843 38.0935C10.843 39.1483 11.4539 40.3292 12.408 40.7791C14.5271 41.8305 17.5781 40.2798 18.2919 39.8044V35.2785H14.872C11.2411 35.2785 10.843 37.0166 10.843 38.0935Z" fill="#FF0022"/>
</g>
<defs>
<clipPath id="clip0_30_150">
<rect width="118" height="58" fill="white"/>
</clipPath>
</defs>
</svg>
