<svg width="448" height="374" viewBox="0 0 448 374" fill="none" xmlns="http://www.w3.org/2000/svg">
<path d="M180.121 142.832L180.825 141.816L179.613 142.056C178.782 142.221 177.746 142.383 176.5 142.577C171.589 143.343 163.416 144.619 151.647 148.595C136.957 153.558 116.65 162.729 89.9397 180.38C89.9318 180.37 89.9238 180.36 89.9156 180.35C89.7157 180.099 89.4247 179.729 89.0609 179.26C88.3333 178.32 87.315 176.979 86.1537 175.372C83.9025 172.259 81.121 168.161 78.8758 164.071C85.9858 159.385 112.56 144.793 135.161 136.752C151.203 131.048 166.399 126.645 191.669 122.03L191.866 121.994L191.983 121.832C203.262 106.368 217.368 84.873 230.921 64.219C238.198 53.1294 245.316 42.2823 251.751 32.7416L251.752 32.7409C255.166 27.6598 258.484 22.7994 261.976 17.6845C265.554 12.4435 269.315 6.93516 273.548 0.648294C273.879 0.622544 274.372 0.668366 275.025 0.810609C275.799 0.979114 276.741 1.26986 277.8 1.67074C279.915 2.4721 282.46 3.70048 284.988 5.22415C287.517 6.74815 290.016 8.5593 292.048 10.5215C294.085 12.4893 295.62 14.5775 296.274 16.6505C296.986 18.906 297.755 21.7531 298.262 24.5099C298.772 27.282 299.006 29.9045 298.684 31.7386C296.014 46.9358 291.399 61.3415 286.343 75.8557C285.232 79.0435 284.1 82.2372 282.963 85.4456C278.926 96.8357 274.823 108.412 271.382 120.573L271.216 121.159L271.823 121.208C293.821 122.994 310.406 129.335 321.913 138.533C333.414 147.726 339.869 159.791 341.589 173.088C345.031 199.699 329.507 231.355 297.207 254.741C285.811 262.991 269.628 269.286 254.901 274.707C253.446 275.243 252.005 275.77 250.585 276.29C244.83 278.396 239.411 280.378 234.748 282.304C228.949 284.699 224.247 287.033 221.511 289.449C218.737 291.898 216.414 296.613 214.39 302.641C212.357 308.693 210.597 316.162 208.999 324.211C207.401 332.262 205.962 340.91 204.575 349.322L204.357 350.649C203.073 358.439 201.829 365.986 200.537 372.641L163.272 372.584C165.632 360.8 168.536 350.276 171.383 339.962C171.897 338.098 172.41 336.24 172.917 334.383C176.276 322.085 179.393 309.826 181.211 295.848L181.285 295.277L180.71 295.283C172.548 295.368 163.627 295.245 155.107 295.127C150.295 295.061 145.611 294.996 141.264 294.972C135.248 294.938 129.878 294.981 125.722 295.205C123.645 295.317 121.861 295.474 120.447 295.691C119.055 295.906 117.951 296.187 117.289 296.584L117.246 296.61L117.209 296.643C110.329 302.91 104.141 310.687 98.1021 318.833C96.2482 321.334 94.4093 323.868 92.5683 326.404C88.4018 332.145 84.2247 337.901 79.8393 343.319C67.2003 358.933 52.9663 371.562 32.7361 372.553C21.7964 372.532 14.1509 366.973 9.04511 358.348C3.92272 349.696 1.37008 337.971 0.689784 325.727C0.00993511 313.491 1.20262 300.786 3.5307 290.211C4.69467 284.924 6.1404 280.178 7.77254 276.295C9.40855 272.402 11.2162 269.414 13.0852 267.605L13.1035 267.588L13.1199 267.568C15.9901 264.162 24.8003 256.892 39.8277 260.239C45.7 261.547 52.0043 264.213 58.5519 266.982C60.8804 267.966 63.2398 268.964 65.6214 269.918C74.6511 273.536 83.971 276.512 92.8898 275.54L93.0946 275.518L93.2242 275.358C96.04 271.881 96.5698 271.054 99.0587 267.166C99.7194 266.135 100.518 264.887 101.534 263.318L101.535 263.316L101.904 262.742C106.023 256.34 108.573 252.377 119.212 235.374L119.668 234.646L118.809 234.609C109.13 234.199 102.765 234.114 95.3769 235.837C88.1307 237.528 79.9234 240.951 66.6225 247.456C66.6224 241.286 66.644 238.236 66.667 234.976C66.6853 232.374 66.7046 229.638 66.7147 225.075C82.5792 219.002 93.8973 217.169 103.948 216.264C106.691 216.017 109.349 215.84 111.984 215.663C119.053 215.19 125.96 214.728 133.936 212.972L134.148 212.925L134.259 212.739C135.415 210.79 167.195 161.486 180.121 142.832ZM263.637 141.552L263.24 141.513L263.113 141.892C259.353 153.206 255.587 165.079 251.821 176.95L251.8 177.017C248.027 188.911 244.255 200.802 240.488 212.131L240.278 212.763L240.944 212.788C252.585 213.22 260.077 213.304 267.45 211.608C274.662 209.949 281.728 206.593 292.448 200.271C292.555 205.652 292.663 211.036 292.774 216.417C279.315 226.794 270.009 228.196 253.344 230.707C248.997 231.362 244.15 232.093 238.598 233.078L238.566 233.083L238.535 233.093C235.991 233.896 233.923 235.936 232.278 238.52C230.629 241.109 229.371 244.299 228.47 247.498C227.567 250.7 227.015 253.935 226.788 256.627C226.675 257.974 226.642 259.191 226.689 260.207C226.735 261.21 226.861 262.058 227.089 262.639L227.266 263.092L227.723 262.927L266.543 248.953C274.747 246 284.027 240.001 292.523 232.258C301.022 224.512 308.765 214.995 313.879 204.978C318.99 194.965 321.495 184.408 319.442 174.61C317.384 164.791 310.766 155.824 297.816 148.978C288.393 143.994 276.077 142.779 264.992 141.686C264.539 141.641 264.087 141.597 263.637 141.552ZM153.238 234.66L152.953 234.663L152.81 234.909C147.447 244.126 137.155 260.8 128.534 274.665L128.064 275.421L128.954 275.429C138.569 275.515 149.274 275.5 159.591 275.484L159.913 275.483C170.117 275.467 179.924 275.452 187.913 275.536L188.276 275.54L188.392 275.196C190.131 270.049 192.015 264.515 193.807 259.251C194.97 255.836 196.094 252.534 197.114 249.524C198.412 245.701 199.542 242.349 200.374 239.839C201.199 237.348 201.742 235.646 201.849 235.156L201.98 234.554L201.364 234.55C187.043 234.45 169.255 234.528 153.238 234.66ZM167.816 211.901L167.41 212.628L168.243 212.645C175.187 212.785 182.138 212.733 188.993 212.677L189.578 212.672C196.235 212.618 202.796 212.564 209.181 212.682L209.533 212.688L209.658 212.36C211.853 206.588 214.29 200.212 216.819 193.593C223.905 175.047 231.72 154.595 237.01 140.209L237.246 139.569L236.565 139.537C232.498 139.343 226.64 139.182 221.677 139.245C219.197 139.277 216.93 139.365 215.219 139.535C214.365 139.62 213.634 139.727 213.078 139.862C212.801 139.93 212.551 140.008 212.346 140.102C212.155 140.189 211.936 140.32 211.8 140.526C198.288 160.943 182.38 185.822 167.816 211.901ZM274.48 41.6698L273.603 41.2116C259.586 60.3579 234.8 98.7233 224.592 120.134L224.249 120.852L225.045 120.849C226.375 120.844 228.193 120.839 230.196 120.834C235.504 120.82 242.107 120.802 244.334 120.768L244.679 120.762L244.797 120.438C248.245 110.914 252.443 100.109 256.818 88.8468C262.871 73.2665 269.264 56.8127 274.48 41.6698ZM41.2699 330.465L41.4162 330.891L41.855 330.79C60.3588 326.525 72.7886 307.853 76.9537 290.407L77.0715 289.914L76.5764 289.803C68.281 287.949 61.1088 287.151 55.2182 287.606C49.3271 288.061 44.6701 289.773 41.4713 292.988C38.2675 296.207 36.5969 300.862 36.5345 307.05C36.472 313.232 38.0124 320.983 41.2699 330.465Z" stroke="#DDDDDD"/>
<path d="M293.044 372.521L269.498 372.606L284.651 308.967L284.798 308.351L284.164 308.351L230.999 308.413L235.15 291.122H359.679L355.477 308.279L307.809 308.414L307.41 308.415L307.322 308.805L293.044 372.521Z" stroke="#DDDDDD"/>
<path d="M382.752 372.542H362.161L370.193 340.208L370.347 339.587L369.708 339.587L319.23 339.62L323.069 323.911H446.966L443.224 339.58L391.09 339.616L390.697 339.617L390.605 339.999L382.752 372.542Z" stroke="#DDDDDD"/>
</svg>
