<svg width="274" height="229" viewBox="0 0 274 229" fill="none" xmlns="http://www.w3.org/2000/svg">
<path d="M111.284 87.0263L110.579 88.0417C102.656 99.4447 83.177 129.585 82.471 130.771L82.3602 130.957L82.1486 131.003C77.2437 132.081 72.9891 132.364 68.6509 132.654C67.0382 132.762 65.414 132.87 63.7404 133.02C57.6202 133.569 50.7324 134.68 41.0915 138.348C41.0852 141.06 41.0736 142.705 41.0625 144.269C41.0488 146.206 41.0359 148.02 41.0353 151.587C49.0271 147.697 54.0113 145.631 58.4255 144.604C62.9827 143.544 66.9079 143.597 72.8422 143.848L73.702 143.885L73.2446 144.614C66.7215 155.01 65.1584 157.434 62.6328 161.349L62.4066 161.699L62.4058 161.7C61.7843 162.658 61.2953 163.42 60.8904 164.05C59.3627 166.43 59.0327 166.944 57.2994 169.078L57.1698 169.238L56.9653 169.26C51.4463 169.86 45.6938 168.023 40.1566 165.81C38.6871 165.223 37.2349 164.611 35.804 164.008C31.7958 162.317 27.9553 160.698 24.3739 159.902C15.2492 157.875 9.91645 162.276 8.19045 164.319L8.17403 164.338L8.15572 164.356C7.0375 165.435 5.94175 167.234 4.94301 169.604C3.94812 171.965 3.06503 174.855 2.35333 178.079C0.929808 184.528 0.200303 192.278 0.616042 199.74C1.03223 207.21 2.59346 214.344 5.71114 219.596C8.81225 224.82 13.4401 228.171 20.064 228.186C32.3775 227.582 41.0557 219.918 48.7941 210.384C51.4791 207.075 54.0348 203.563 56.5874 200.055C57.7168 198.503 58.8456 196.952 59.9848 195.42C63.6884 190.438 67.4907 185.67 71.7232 181.825L71.7601 181.792L71.8029 181.766C72.2445 181.502 72.9547 181.326 73.8087 181.195C74.6845 181.061 75.7852 180.964 77.0614 180.896C79.6151 180.759 82.9123 180.732 86.6003 180.753C89.2686 180.768 92.1416 180.808 95.0921 180.848C100.313 180.92 105.777 180.995 110.779 180.944L111.355 180.938L111.28 181.508C110.164 190.068 108.25 197.574 106.19 205.094C105.879 206.23 105.565 207.367 105.249 208.507C103.523 214.745 101.764 221.101 100.328 228.205L122.776 228.239C123.557 224.212 124.31 219.657 125.087 214.955L125.22 214.145C126.071 209.002 126.953 203.712 127.934 198.786C128.914 193.862 129.995 189.286 131.245 185.574C132.486 181.887 133.924 178.959 135.666 177.425C137.37 175.924 140.281 174.486 143.835 173.023C146.697 171.844 150.024 170.63 153.552 169.342C154.423 169.025 155.306 168.703 156.197 168.376C165.228 165.059 175.124 161.219 182.085 156.193C201.849 141.922 211.311 122.631 209.213 106.454C208.165 98.3742 204.234 91.0433 197.223 85.4545C190.206 79.8611 180.079 75.9934 166.621 74.9037L166.014 74.8546L166.18 74.2689C168.291 66.8267 170.809 59.7411 173.285 52.7764C173.981 50.8157 174.675 48.8647 175.355 46.9179C178.454 38.046 181.278 29.2508 182.913 19.9756C183.103 18.8904 182.966 17.3162 182.654 15.6253C182.345 13.9498 181.876 12.2171 181.441 10.8436C181.054 9.62018 180.139 8.37031 178.901 7.17781C177.668 5.99088 176.149 4.89207 174.608 3.96555C173.067 3.03937 171.517 2.29363 170.232 1.80817C169.589 1.56525 169.021 1.39076 168.559 1.29035C168.224 1.21759 167.972 1.19029 167.799 1.19131C165.222 5.008 162.936 8.34818 160.759 11.527C158.621 14.6512 156.589 17.6195 154.492 20.7312L154.492 20.7319C150.55 26.5601 146.188 33.1891 141.728 39.9678C133.417 52.5984 124.765 65.7488 117.848 75.2069L117.73 75.3679L117.534 75.4036C102.053 78.2235 92.747 80.913 82.9225 84.397M111.284 87.0263L82.9225 84.397M111.284 87.0263L110.071 87.2659C109.567 87.3656 108.936 87.4638 108.176 87.582C105.167 88.05 100.136 88.8327 92.9031 91.27C83.9071 94.3012 71.4909 99.8917 55.1772 110.628C55.0642 110.485 54.9201 110.302 54.7498 110.083C54.3048 109.51 53.6819 108.691 52.9714 107.711C51.6227 105.851 49.9654 103.418 48.6103 100.98C53.1686 98.0237 69.2373 89.2529 82.9225 84.397M111.284 87.0263L82.9225 84.397M161.637 86.955L161.24 86.9157L161.114 87.2945C158.807 94.2138 156.498 101.475 154.19 108.733L154.177 108.772C151.864 116.044 149.552 123.313 147.244 130.238L147.032 130.871L147.699 130.895C154.832 131.16 159.451 131.213 163.998 130.169C168.385 129.163 172.676 127.144 179.093 123.383C179.156 126.53 179.22 129.678 179.285 132.825C171.118 139.083 165.469 139.932 155.297 141.462C152.63 141.863 149.651 142.31 146.235 142.915L146.203 142.92L146.172 142.93C144.552 143.44 143.252 144.729 142.231 146.328C141.207 147.933 140.429 149.902 139.873 151.87C139.317 153.839 138.976 155.829 138.836 157.488C138.766 158.317 138.745 159.07 138.775 159.702C138.803 160.321 138.881 160.865 139.033 161.251L139.21 161.703L139.667 161.539L163.465 152.995C168.525 151.178 174.235 147.495 179.456 142.749C184.68 138.001 189.442 132.164 192.59 126.015C195.735 119.87 197.289 113.369 196.018 107.32C194.742 101.249 190.64 95.7234 182.661 91.5162C176.85 88.4511 169.266 87.7053 162.483 87.0383C162.2 87.0105 161.918 86.9828 161.637 86.955ZM93.9383 143.879L93.6539 143.882L93.5106 144.127C90.2248 149.76 83.9169 159.951 78.6316 168.429L78.1599 169.185L79.0514 169.193C84.947 169.246 91.5103 169.237 97.8348 169.227L98.0373 169.227C104.291 169.217 110.3 169.208 115.195 169.259L115.557 169.263L115.674 168.919C116.739 165.774 117.894 162.392 118.992 159.175C119.705 157.086 120.394 155.066 121.021 153.224C121.816 150.886 122.509 148.837 123.019 147.301C123.523 145.785 123.861 144.731 123.929 144.418L124.06 143.816L123.444 143.812C114.663 143.751 103.757 143.798 93.9383 143.879ZM102.708 130.064L102.301 130.791L103.134 130.808C107.395 130.894 111.659 130.862 115.86 130.828L116.216 130.825C120.298 130.791 124.319 130.758 128.231 130.83L128.582 130.837L128.708 130.509C130.054 126.981 131.547 123.082 133.098 119.035C137.442 107.697 142.233 95.1912 145.477 86.3944L145.713 85.7544L145.031 85.722C142.536 85.6035 138.94 85.5047 135.893 85.5437C134.371 85.5632 132.975 85.6171 131.917 85.722C131.391 85.7742 130.932 85.8406 130.578 85.9264C130.402 85.9691 130.236 86.0204 130.095 86.0848C129.968 86.1428 129.793 86.241 129.679 86.4131C121.395 98.8976 111.64 114.113 102.708 130.064ZM168.448 26.1449L167.572 25.6858C158.976 37.396 143.773 60.8634 137.508 73.9691L137.164 74.6878L137.961 74.6848C138.775 74.6817 139.889 74.6788 141.116 74.6756C144.371 74.6671 148.421 74.6565 149.788 74.6352L150.133 74.6298L150.25 74.3059C152.36 68.494 154.932 61.8906 157.614 55.0056C161.327 45.4737 165.251 35.4023 168.448 26.1449ZM25.1169 202.711L25.2634 203.136L25.7017 203.036C37.1463 200.405 44.8012 188.905 47.3633 178.202L47.4815 177.708L46.9858 177.598C41.8911 176.462 37.4735 175.97 33.8358 176.25C30.1976 176.53 27.2917 177.587 25.2866 179.597C23.2763 181.612 22.242 184.512 22.2033 188.33C22.1648 192.141 23.1164 196.904 25.1169 202.711Z" stroke="#6150E9"/>
<path d="M178.947 228.188L165.039 228.238L174.193 189.898L174.34 189.281L173.706 189.282L141.635 189.319L144.064 179.229H219.362L216.904 189.238L188.079 189.32L187.68 189.321L187.593 189.71L178.947 228.188Z" stroke="#6150E9"/>
<path d="M234.138 228.24H221.93L226.786 208.938L226.943 208.315L226.301 208.316L195.639 208.335L197.892 199.233H273.365L271.169 208.311L239.396 208.333L239.003 208.334L238.91 208.715L234.138 228.24Z" stroke="#6150E9"/>
</svg>
