<svg width="32" height="32" viewBox="0 0 32 32" fill="none" xmlns="http://www.w3.org/2000/svg">
<path d="M6.92999 24.68C6.97998 24.69 7.03003 24.69 7.08002 24.69H7.94V20.06C7.94 18.74 8.96997 17.65 10.27 17.57C10.52 14.63 13 12.31 16 12.31C19 12.31 21.48 14.63 21.73 17.57C23.03 17.65 24.06 18.74 24.06 20.06V24.69H24.92C24.97 24.69 25.02 24.69 25.07 24.68C28.45 24.18 31 21.21 31 17.77C31 14.08 28.12 11.05 24.49 10.79C24.28 8.89002 23.43 7.12 22.04 5.72998C20.42 4.10998 18.27 3.22998 16 3.22998C11.62 3.22998 8 6.53998 7.51001 10.79C3.88 11.05 1 14.08 1 17.77C1 21.21 3.54999 24.18 6.92999 24.68Z" fill="url(#paint0_linear_76_43694)"/>
<path d="M15.9999 13.8101C13.6599 13.8101 11.7499 15.72 11.7499 18.0601V19.0601H10.4399C9.88995 19.0601 9.43994 19.5101 9.43994 20.0601V27.77C9.43994 28.33 9.88995 28.77 10.4399 28.77H21.5599C22.1099 28.77 22.5599 28.33 22.5599 27.77V20.0601C22.5599 19.5101 22.1099 19.0601 21.5599 19.0601H20.2499V18.0601C20.2499 15.72 18.34 13.8101 15.9999 13.8101ZM18.2499 19.0601H13.7499V18.0601C13.7499 16.8201 14.76 15.8101 15.9999 15.8101C17.2399 15.8101 18.2499 16.8201 18.2499 18.0601V19.0601Z" fill="url(#paint1_linear_76_43694)"/>
<defs>
<linearGradient id="paint0_linear_76_43694" x1="7.48109" y1="22.9921" x2="16.141" y2="2.3852" gradientUnits="userSpaceOnUse">
<stop stop-color="#00AAE3"/>
<stop offset="1" stop-color="#58C3BD"/>
</linearGradient>
<linearGradient id="paint1_linear_76_43694" x1="12.2743" y1="27.5864" x2="20.0897" y2="15.9194" gradientUnits="userSpaceOnUse">
<stop stop-color="#00AAE3"/>
<stop offset="1" stop-color="#58C3BD"/>
</linearGradient>
</defs>
</svg>
