<svg width="32" height="32" viewBox="0 0 32 32" fill="none" xmlns="http://www.w3.org/2000/svg">
<path d="M20 6.66663L25.3333 12" stroke="#C92628" stroke-linecap="round" stroke-linejoin="round"/>
<path d="M17.3333 9.33331L11.6 3.59998C10.9978 3.00072 10.1828 2.66431 9.33331 2.66431C8.48378 2.66431 7.66881 3.00072 7.06665 3.59998L3.59998 7.06665C3.00072 7.66881 2.66431 8.48378 2.66431 9.33331C2.66431 10.1828 3.00072 10.9978 3.59998 11.6L9.33331 17.3333" stroke="#C92628" stroke-linecap="round" stroke-linejoin="round"/>
<path d="M10.6667 8.00004L13.3334 5.33337" stroke="#C92628" stroke-linecap="round" stroke-linejoin="round"/>
<path d="M2.66675 29.3334L10.0001 27.3334L28.2267 9.10673C28.934 8.39948 29.3313 7.44025 29.3313 6.44006C29.3313 5.43987 28.934 4.48064 28.2267 3.77339C27.5195 3.06615 26.5603 2.66882 25.5601 2.66882C24.5599 2.66882 23.6007 3.06615 22.8934 3.77339L4.66675 22.0001L2.66675 29.3334Z" stroke="#C92628" stroke-linecap="round" stroke-linejoin="round"/>
<path d="M24 21.3333L26.6667 18.6666" stroke="#C92628" stroke-linecap="round" stroke-linejoin="round"/>
<path d="M22.6667 14.6666L28.4001 20.4C29.6534 21.6533 29.6534 23.68 28.4001 24.9333L24.9334 28.4C23.6801 29.6533 21.6534 29.6533 20.4001 28.4L14.6667 22.6666" stroke="#C92628" stroke-linecap="round" stroke-linejoin="round"/>
</svg>
