<svg width="68" height="12" viewBox="0 0 68 12" fill="none" xmlns="http://www.w3.org/2000/svg">
<path d="M67.9991 3.78986C67.995 4.03662 67.7752 4.23741 67.5057 4.23741H65.9794C65.8222 4.27253 65.6625 4.30686 65.5013 4.34138C65.3897 4.4245 65.3167 4.54995 65.3167 4.69232V11.3353C65.3167 11.5855 65.4138 11.7902 65.1421 11.7902H63.1382C62.8663 11.7902 62.6441 11.5855 62.6441 11.3353V4.94075V4.69235C62.6441 4.64474 62.6339 4.60024 62.6192 4.55691C62.5556 4.37285 62.4264 4.23741 62.2059 4.23741H60.4467C60.1749 4.23741 59.9526 4.03294 59.9526 3.7829V2.5154C59.9526 2.266 60.1749 2.06071 60.4467 2.06071H67.5057C67.5758 2.06071 67.6426 2.0752 67.7031 2.09972C67.8775 2.16999 68 2.33013 68 2.5154V3.7829L67.9991 3.78986ZM58.1349 11.788H56.4505C56.1786 11.788 55.9565 11.5835 55.9565 11.3339V9.64617C55.9565 9.39634 55.8304 9.3332 55.6763 9.50623C55.6763 9.50623 55.6763 9.50623 55.4859 9.68946C55.2959 9.87312 55.0868 10.0563 54.8585 10.2408C54.7712 10.3119 54.6815 10.383 54.5897 10.4551H54.59L54.5894 10.4559C54.5118 10.5178 54.433 10.5787 54.3525 10.6406C54.2892 10.6896 54.2254 10.736 54.1617 10.7831C53.5573 11.1921 52.5124 11.8325 50.8919 11.788H50.1457C49.8739 11.788 49.6517 11.5835 49.6517 11.3339V7.5401V6.41069V2.51337C49.6517 2.26354 49.8739 2.05946 50.1457 2.05946H51.8862C52.1578 2.05946 52.3802 2.26354 52.3802 2.51337V6.17842V7.0807V8.5674C52.3802 8.81641 52.5363 8.92898 52.727 8.81538C52.727 8.81538 52.8389 8.81538 53.0193 8.69303C53.2001 8.57108 53.3853 8.43606 53.5757 8.28673C53.8796 8.05939 54.1794 7.80852 54.4736 7.53296C54.7686 7.25779 55.0442 6.9798 55.3009 6.70074C55.3535 6.64007 55.4046 6.58103 55.455 6.522C55.5222 6.44334 55.5874 6.3645 55.6499 6.2877C55.7595 6.15225 55.8615 6.01845 55.9565 5.88733V5.84568V2.51337C55.9565 2.26354 56.1786 2.05946 56.4505 2.05946H58.1349C58.4067 2.05946 58.6291 2.26354 58.6291 2.51337V5.49063V5.69389V11.3338C58.629 11.5835 58.4067 11.788 58.1349 11.788ZM55.8618 1.11246C55.3827 1.38556 54.8402 1.52182 54.2341 1.52182C53.64 1.52182 53.1035 1.38556 52.6245 1.11246C52.41 0.989471 52.2355 0.846711 52.0974 0.683893C51.6574 0.122988 52.2457 0 52.2457 0H56.0769C56.4237 0 56.6016 0.241657 56.4721 0.537457C56.4721 0.537457 56.3405 0.838752 55.8618 1.11246ZM47.8233 11.7902H46.0801C45.5631 11.7902 45.4146 11.4842 45.3714 11.3447C45.3674 11.3239 45.3632 11.3026 45.3587 11.2797C45.3491 11.2338 45.3384 11.1774 45.3269 11.1165H42.5004V8.92323H44.7626C44.672 8.62418 44.5804 8.32717 44.4992 8.06753H44.4995C44.468 7.96417 44.4371 7.86142 44.4101 7.77073C44.4085 7.74132 44.4048 7.7117 44.3954 7.68025C44.3954 7.68025 44.3843 7.64164 44.3215 7.467C44.3139 7.44556 44.3056 7.4235 44.2965 7.39794C44.2107 7.162 44.1255 6.93444 44.0398 6.7163L44.0332 6.69995C43.8832 6.33103 43.7407 6.01481 43.6052 5.75192C43.4672 5.48574 43.379 5.31272 43.3412 5.23409C43.0932 5.72065 42.8666 6.23095 42.6546 6.75756C42.6228 6.83579 42.5882 6.91177 42.5572 6.99083C42.3922 7.4159 42.2432 8.19237 42.1012 8.61705C42.0459 8.62111 41.9906 8.625 41.9353 8.62889H41.5746H41.4124H39.1067C39.2568 8.14844 39.4185 7.32296 39.5873 6.85499C39.8353 6.16742 40.1013 5.49249 40.3899 4.83515C40.8095 3.87812 41.2393 3.05718 41.6801 2.37221C41.7357 2.29112 41.9329 2.06071 42.3834 2.06071H44.2584C44.5305 2.06071 44.866 2.23741 45.0043 2.45148C45.0043 2.45148 45.4964 3.21792 45.8148 3.82523C46.133 4.43192 46.4207 5.04229 46.6773 5.65409C46.8028 5.95335 46.9195 6.24994 47.0312 6.54574C47.1847 6.95246 47.327 7.35608 47.4569 7.75706C47.5828 8.14437 47.7013 8.53064 47.8035 8.91285L47.8065 8.92327H47.8233V8.98762C48.0463 9.82308 48.2274 10.5944 48.3672 11.3016C48.386 11.4567 48.3644 11.7902 47.8233 11.7902ZM38.3253 4.05318C38.3253 4.05318 38.3253 4.05318 38.0861 4.02273C37.8466 3.99372 37.5915 3.98394 37.3208 3.99436C36.2767 4.03419 35.4843 4.32792 34.9437 4.87723C34.4149 5.41386 34.1656 6.10122 34.1914 6.93387C34.1923 6.95185 34.191 6.96963 34.1917 6.98719C34.2286 7.80999 34.4383 8.41872 34.8205 8.81216C35.2025 9.20561 35.6163 9.47543 36.0618 9.62169C36.2984 9.6895 36.5294 9.78632 36.7546 9.80738C36.9361 9.82555 37.0982 9.8329 37.2422 9.83229H41.1798V11.3308V11.8568V11.8942H38.4244L27.9569 11.9083H27.9571H27.8089H27.8076L27.6029 11.9087C27.4429 11.9045 27.2559 11.891 27.1397 11.8828C25.812 11.7809 24.8064 11.4259 24.1251 10.7115C23.2671 9.81309 22.766 8.80274 22.6224 7.68314C22.6092 7.59817 22.5982 7.51033 22.5897 7.42046C22.5806 7.32996 22.5744 7.24234 22.5705 7.15714C22.5635 7.00375 22.5636 6.85442 22.5682 6.70652C22.6061 5.44841 23.0556 4.38638 23.9195 3.52332C24.8848 2.55834 26.2768 2.04154 28.0951 1.97188C28.4679 1.95756 28.8161 1.96392 29.1396 1.99047C29.4631 2.01581 29.771 2.05871 30.063 2.1161L30.1364 3.7411C30.1478 3.98665 29.975 4.15004 29.7535 4.10471C29.7535 4.10471 29.7535 4.10471 29.5141 4.07552C29.2746 4.04693 29.0194 4.03712 28.7492 4.04711C27.7048 4.08694 26.9124 4.38171 26.3721 4.9308C25.8789 5.43107 25.63 6.06267 25.619 6.82034C25.6182 6.89368 25.6163 6.96538 25.6198 7.04054C25.657 7.86334 25.8666 8.47229 26.2486 8.86613C26.6305 9.25875 27.0444 9.52839 27.49 9.67444C27.7266 9.74285 27.9577 9.78782 28.1827 9.80988C28.3645 9.82683 28.5263 9.8344 28.6706 9.83358L32.0309 9.82683C31.5767 9.14826 31.2951 8.41736 31.1942 7.62968C31.1808 7.54509 31.1698 7.45705 31.1613 7.36657C31.1524 7.27688 31.1462 7.18887 31.1423 7.10347C31.1394 7.04401 31.1392 6.98558 31.138 6.92819C31.1153 5.54834 31.5656 4.39541 32.4913 3.46986C33.4566 2.50569 34.8487 1.98744 36.6668 1.91881C37.0396 1.90492 37.3879 1.91085 37.7114 1.93679C38.035 1.96374 38.3423 2.00564 38.6348 2.06281L38.7081 3.68821C38.7192 3.93287 38.5471 4.09711 38.3253 4.05318ZM19.8937 10.7078C18.8334 11.5698 17.5342 12 15.9943 12C14.4354 12 13.1307 11.5698 12.0807 10.7078C11.0302 9.84696 10.5053 8.5866 10.5053 6.92544C10.5053 6.6274 10.5228 6.34266 10.5562 6.06974C10.5668 5.98558 10.583 5.90385 10.5966 5.82112C10.7851 4.68882 11.2765 3.78904 12.0807 3.12963C13.1307 2.26843 14.4354 1.83861 15.9943 1.83861C17.5342 1.83861 18.8334 2.26839 19.8937 3.12963C20.8953 3.94386 21.4231 5.11985 21.4778 6.65641C21.4809 6.74485 21.4833 6.83393 21.4833 6.92544C21.4833 7.26475 21.4601 7.58585 21.4158 7.89104C21.244 9.08298 20.7374 10.0231 19.8937 10.7078ZM18.3656 6.48217C18.3071 5.89489 18.131 5.36929 17.8335 4.90621C17.4629 4.32956 16.8498 4.0409 15.9943 4.0409C15.1197 4.0409 14.5019 4.32953 14.1409 4.90621C13.9111 5.2741 13.7572 5.6804 13.6739 6.12492C13.6377 6.31918 13.6136 6.51979 13.6049 6.72815C13.6021 6.79371 13.5992 6.85867 13.5992 6.92548C13.5992 7.69517 13.7822 8.36786 14.1481 8.9445C14.5136 9.52218 15.1293 9.8102 15.9944 9.8102C16.8498 9.8102 17.463 9.52218 17.8336 8.9445C18.1064 8.51983 18.2782 8.04265 18.3499 7.51337C18.3758 7.32399 18.3895 7.12852 18.3895 6.92548C18.3894 6.77326 18.3802 6.62622 18.3656 6.48217ZM4.96693 9.58735C4.91986 9.58735 4.87315 9.58632 4.82636 9.58468C4.48934 9.57775 4.48208 9.22678 4.48208 9.22678V7.64653C4.48208 7.45105 4.62378 7.40244 4.69692 7.38974L4.71087 7.3877C4.7273 7.38585 4.73927 7.38524 4.73927 7.38524L4.73768 7.38442C5.09556 7.33702 5.40107 7.21775 5.65146 7.02409C5.98392 6.76652 6.15031 6.37082 6.15031 5.83707C6.15031 5.77622 6.14315 5.67386 6.12895 5.52903C6.1213 5.44977 6.10005 5.36807 6.06818 5.28206C6.04176 5.21139 6.0079 5.13844 5.96501 5.06371C5.93522 5.01017 5.90151 4.95974 5.86506 4.91295C5.85592 4.90132 5.84406 4.88965 5.83404 4.87783C5.805 4.84411 5.77549 4.8102 5.74337 4.77936L5.72708 4.76159L5.72003 4.75913C5.27357 4.3514 4.56991 4.26275 4.28169 4.24376L4.27624 4.24112C4.26019 4.2403 4.24287 4.24052 4.22658 4.2403C4.18061 4.23766 4.15246 4.23766 4.15246 4.23766L4.15345 4.23827C4.12986 4.23805 4.10737 4.23745 4.08315 4.23745H3.22284C2.95095 4.23745 2.72871 4.44131 2.72871 4.69235V4.74546V11.3353C2.72871 11.5855 2.50647 11.7902 2.23468 11.7902H0.493885C0.222098 11.7902 0 11.5855 0 11.3353V4.13284V2.5154C0 2.35954 0.0864874 2.22185 0.21767 2.13912C0.296614 2.0903 0.391849 2.06067 0.493885 2.06067H4.14488C4.41652 2.06067 4.85916 2.08908 5.12847 2.12256C5.12847 2.12256 5.62731 2.18609 6.2256 2.32417H6.22486L6.2267 2.32457C6.40708 2.36664 6.59659 2.41525 6.78409 2.47122C7.41992 2.6951 8.44073 3.23602 8.99465 4.49067C9.10646 4.77237 9.18094 5.06428 9.21554 5.36536C9.22482 5.4442 9.23208 5.52468 9.23679 5.60762C9.23853 5.63764 9.23853 5.66501 9.23938 5.69364C9.24037 5.72836 9.24196 5.7643 9.24235 5.79842C9.24271 5.81498 9.24395 5.83315 9.24395 5.85032C9.24395 6.89946 8.87802 7.78458 8.14632 8.50566C7.41429 9.2262 6.35459 9.58735 4.96693 9.58735Z" fill="#0C0C0D"/>
</svg>
