<svg width="40" height="237" viewBox="0 0 40 237" fill="none" xmlns="http://www.w3.org/2000/svg">
<g clip-path="url(#clip0_385_1241)">
<path d="M19.645 226.455C19.715 225.635 19.975 225.005 20.425 224.565C20.865 224.115 21.445 223.89 22.165 223.89C23.065 223.89 23.765 224.205 24.265 224.835C24.755 225.455 25 226.435 25 227.775L25 235.8L14.5 235.8L14.5 227.73C14.5 226.57 14.73 225.705 15.19 225.135C15.65 224.555 16.27 224.265 17.05 224.265C17.69 224.265 18.22 224.46 18.64 224.85C19.05 225.23 19.29 225.765 19.36 226.455L19.645 226.455ZM16.555 233.205L18.76 233.205L18.76 228.315C18.76 227.865 18.66 227.525 18.46 227.295C18.26 227.055 17.995 226.935 17.665 226.935C17.325 226.935 17.055 227.055 16.855 227.295C16.655 227.525 16.555 227.865 16.555 228.315L16.555 233.205ZM22.945 228.06C22.945 227.56 22.845 227.185 22.645 226.935C22.435 226.685 22.145 226.56 21.775 226.56C21.405 226.56 21.115 226.685 20.905 226.935C20.695 227.185 20.59 227.56 20.59 228.06L20.59 233.205L22.945 233.205L22.945 228.06ZM21.22 212.322C21.43 212.322 21.65 212.337 21.88 212.367L21.88 220.497C22.38 220.337 22.775 220.007 23.065 219.507C23.345 219.007 23.485 218.347 23.485 217.527C23.485 216.747 23.395 216.152 23.215 215.742C23.025 215.332 22.795 215.007 22.525 214.767L22.525 212.487C22.945 212.637 23.36 212.907 23.77 213.297C24.17 213.687 24.51 214.242 24.79 214.962C25.06 215.672 25.195 216.542 25.195 217.572C25.195 218.672 25.02 219.617 24.67 220.407C24.31 221.187 23.83 221.777 23.23 222.177C22.62 222.577 21.94 222.777 21.19 222.777C20.44 222.777 19.765 222.577 19.165 222.177C18.555 221.767 18.075 221.172 17.725 220.392C17.365 219.602 17.185 218.652 17.185 217.542C17.185 216.442 17.365 215.497 17.725 214.707C18.075 213.917 18.555 213.322 19.165 212.922C19.775 212.522 20.46 212.322 21.22 212.322ZM18.91 217.542C18.91 218.372 19.055 219.037 19.345 219.537C19.635 220.037 20.035 220.362 20.545 220.512L20.545 214.587C20.035 214.737 19.635 215.062 19.345 215.562C19.055 216.052 18.91 216.712 18.91 217.542ZM27.88 210.712L17.38 210.712L17.38 208.342L19.45 208.702L19.45 208.447C18.73 208.207 18.175 207.767 17.785 207.127C17.385 206.487 17.185 205.647 17.185 204.607C17.185 203.747 17.355 202.997 17.695 202.357C18.035 201.717 18.51 201.222 19.12 200.872C19.72 200.522 20.41 200.347 21.19 200.347C21.98 200.347 22.68 200.522 23.29 200.872C23.89 201.222 24.36 201.717 24.7 202.357C25.03 202.997 25.195 203.747 25.195 204.607C25.195 205.647 25 206.487 24.61 207.127C24.21 207.767 23.655 208.207 22.945 208.447L22.945 208.702C23.465 208.582 23.94 208.492 24.37 208.432C24.79 208.372 25.23 208.342 25.69 208.342L27.88 208.342L27.88 210.712ZM23.335 205.507C23.335 204.617 23.135 203.927 22.735 203.437C22.325 202.947 21.81 202.702 21.19 202.702C20.57 202.702 20.06 202.947 19.66 203.437C19.26 203.927 19.06 204.617 19.06 205.507C19.06 206.407 19.26 207.102 19.66 207.592C20.06 208.072 20.57 208.312 21.19 208.312C21.81 208.312 22.325 208.067 22.735 207.577C23.135 207.087 23.335 206.397 23.335 205.507ZM20.11 191.156L17.38 191.156L17.38 188.801L25 188.801L25 191.156L22.09 191.156L22.09 196.301L25 196.301L25 198.671L17.38 198.671L17.38 196.301L20.11 196.301L20.11 191.156ZM17.38 180.026L17.38 177.281L25.075 181.166C26.195 181.716 26.99 182.331 27.46 183.011C27.94 183.691 28.18 184.526 28.18 185.516C28.18 185.826 28.16 186.101 28.12 186.341C28.08 186.571 28.01 186.816 27.91 187.076L25.96 187.076C26.12 186.666 26.2 186.246 26.2 185.816C26.2 185.306 26.115 184.891 25.945 184.571C25.775 184.251 25.485 183.976 25.075 183.746L17.38 187.676L17.38 184.931L21.775 182.981C22.435 182.731 22.97 182.606 23.38 182.606L23.425 182.606L23.425 182.351L23.38 182.351C22.94 182.351 22.405 182.231 21.775 181.991L17.38 180.026ZM25 171.356L25 173.711L19.375 173.711L19.375 177.056L17.38 177.056L17.38 168.011L19.375 168.011L19.375 171.356L25 171.356ZM19.48 161.348C19.48 160.248 19.725 159.423 20.215 158.873C20.695 158.313 21.37 158.033 22.24 158.033C23.11 158.033 23.79 158.313 24.28 158.873C24.76 159.423 25 160.248 25 161.348L25 166.898L17.38 166.898L17.38 164.528L19.48 164.528L19.48 161.348ZM23.245 161.633C23.245 161.233 23.155 160.928 22.975 160.718C22.785 160.508 22.54 160.403 22.24 160.403C21.93 160.403 21.685 160.508 21.505 160.718C21.315 160.928 21.22 161.233 21.22 161.633L21.22 164.678L23.245 164.678L23.245 161.633ZM25.195 151.889C25.195 152.979 25.02 153.914 24.67 154.694C24.31 155.474 23.83 156.064 23.23 156.464C22.62 156.864 21.94 157.064 21.19 157.064C20.44 157.064 19.765 156.864 19.165 156.464C18.555 156.064 18.075 155.474 17.725 154.694C17.365 153.914 17.185 152.979 17.185 151.889C17.185 150.899 17.335 150.029 17.635 149.279C17.925 148.529 18.33 147.939 18.85 147.509C19.37 147.069 19.96 146.809 20.62 146.729L20.62 149.099C20.18 149.199 19.81 149.489 19.51 149.969C19.21 150.439 19.06 151.079 19.06 151.889C19.06 152.479 19.155 152.989 19.345 153.419C19.535 153.839 19.795 154.159 20.125 154.379C20.445 154.599 20.8 154.709 21.19 154.709C21.58 154.709 21.94 154.599 22.27 154.379C22.59 154.159 22.85 153.839 23.05 153.419C23.24 152.989 23.335 152.479 23.335 151.889C23.335 151.079 23.185 150.439 22.885 149.969C22.585 149.489 22.215 149.199 21.775 149.099L21.775 146.729C22.435 146.809 23.025 147.069 23.545 147.509C24.065 147.939 24.47 148.529 24.76 149.279C25.05 150.029 25.195 150.899 25.195 151.889ZM17.38 136.607L25 136.607L25 138.962L22.6 138.962L22.6 141.257C22.6 141.587 22.66 141.857 22.78 142.067C22.89 142.267 23.075 142.417 23.335 142.517L25 143.132L25 146.027L23.74 145.457C23.24 145.227 22.89 144.982 22.69 144.722C22.48 144.462 22.365 144.097 22.345 143.627L22.12 143.627C22.07 144.257 21.845 144.762 21.445 145.142C21.035 145.512 20.535 145.697 19.945 145.697C19.145 145.697 18.52 145.417 18.07 144.857C17.61 144.297 17.38 143.442 17.38 142.292L17.38 136.607ZM21.19 138.782L19.105 138.782L19.105 142.082C19.105 142.482 19.2 142.792 19.39 143.012C19.58 143.232 19.835 143.342 20.155 143.342C20.465 143.342 20.715 143.232 20.905 143.012C21.095 142.792 21.19 142.482 21.19 142.082L21.19 138.782ZM21.025 125.516L25 121.241L25 124.346L21.235 128.186L25 128.186L25 130.556L17.38 130.556L17.38 128.186L20.86 128.186L17.38 124.436L17.38 121.391L21.025 125.516ZM20.11 108.758L17.38 108.758L17.38 106.403L25 106.403L25 108.758L22.09 108.758L22.09 113.903L25 113.903L25 116.273L17.38 116.273L17.38 113.903L20.11 113.903L20.11 108.758ZM25.195 101.124C25.195 102.334 24.99 103.224 24.58 103.794C24.16 104.354 23.595 104.634 22.885 104.634C22.185 104.634 21.63 104.354 21.22 103.794C20.81 103.224 20.605 102.334 20.605 101.124C20.605 100.254 20.685 99.5338 20.845 98.9638C20.995 98.3938 21.22 97.8288 21.52 97.2688L20.965 97.2688C20.365 97.2688 19.885 97.4938 19.525 97.9438C19.165 98.3938 18.985 99.0588 18.985 99.9388C18.985 100.709 19.105 101.304 19.345 101.724C19.585 102.134 19.885 102.394 20.245 102.504L20.245 104.859C19.345 104.749 18.61 104.289 18.04 103.479C17.47 102.659 17.185 101.469 17.185 99.9088C17.185 98.2788 17.535 97.0488 18.235 96.2188C18.925 95.3788 19.865 94.9588 21.055 94.9588L22.675 94.9588C22.875 94.9588 23.02 94.9138 23.11 94.8238C23.2 94.7338 23.245 94.5988 23.245 94.4188C23.245 94.2688 23.225 94.1288 23.185 93.9988L25.03 93.9988C25.14 94.3588 25.195 94.7088 25.195 95.0488C25.195 95.6488 25.06 96.1088 24.79 96.4288C24.51 96.7488 24.15 96.9088 23.71 96.9088L23.65 96.9088L23.65 97.1638L23.695 97.1638C23.945 97.1638 24.185 97.3088 24.415 97.5988C24.635 97.8888 24.82 98.3338 24.97 98.9338C25.12 99.5238 25.195 100.254 25.195 101.124ZM23.59 100.239C23.59 99.1488 23.385 98.1588 22.975 97.2688L22.555 97.2688C22.365 97.7488 22.22 98.2188 22.12 98.6788C22.02 99.1288 21.97 99.6488 21.97 100.239C21.97 100.999 22.04 101.524 22.18 101.814C22.32 102.094 22.52 102.234 22.78 102.234C23.04 102.234 23.24 102.094 23.38 101.814C23.52 101.534 23.59 101.009 23.59 100.239ZM17.38 86.4545L17.38 84.0995L25 84.0995L25 86.4545L22.48 86.4545C22.73 86.8545 22.915 87.2795 23.035 87.7295C23.145 88.1695 23.2 88.7095 23.2 89.3495C23.2 90.7795 22.875 91.8295 22.225 92.4995C21.575 93.1695 20.58 93.5045 19.24 93.5045L17.38 93.5045L17.38 91.1495L19.105 91.1495C19.835 91.1495 20.37 90.9695 20.71 90.6095C21.05 90.2395 21.22 89.6345 21.22 88.7945C21.22 88.2945 21.165 87.8595 21.055 87.4895C20.935 87.1195 20.75 86.7745 20.5 86.4545L17.38 86.4545ZM25.195 78.8142C25.195 80.0242 24.99 80.9142 24.58 81.4842C24.16 82.0442 23.595 82.3242 22.885 82.3242C22.185 82.3242 21.63 82.0442 21.22 81.4842C20.81 80.9142 20.605 80.0242 20.605 78.8142C20.605 77.9442 20.685 77.2242 20.845 76.6542C20.995 76.0842 21.22 75.5192 21.52 74.9592L20.965 74.9592C20.365 74.9592 19.885 75.1842 19.525 75.6342C19.165 76.0842 18.985 76.7492 18.985 77.6292C18.985 78.3992 19.105 78.9942 19.345 79.4142C19.585 79.8242 19.885 80.0842 20.245 80.1942L20.245 82.5492C19.345 82.4392 18.61 81.9792 18.04 81.1692C17.47 80.3492 17.185 79.1592 17.185 77.5992C17.185 75.9692 17.535 74.7392 18.235 73.9092C18.925 73.0692 19.865 72.6492 21.055 72.6492L22.675 72.6492C22.875 72.6492 23.02 72.6042 23.11 72.5142C23.2 72.4242 23.245 72.2892 23.245 72.1092C23.245 71.9592 23.225 71.8192 23.185 71.6892L25.03 71.6892C25.14 72.0492 25.195 72.3992 25.195 72.7392C25.195 73.3392 25.06 73.7992 24.79 74.1192C24.51 74.4392 24.15 74.5992 23.71 74.5992L23.65 74.5992L23.65 74.8542L23.695 74.8542C23.945 74.8542 24.185 74.9992 24.415 75.2892C24.635 75.5792 24.82 76.0242 24.97 76.6242C25.12 77.2142 25.195 77.9442 25.195 78.8142ZM23.59 77.9292C23.59 76.8392 23.385 75.8492 22.975 74.9592L22.555 74.9592C22.365 75.4392 22.22 75.9092 22.12 76.3692C22.02 76.8192 21.97 77.3392 21.97 77.9292C21.97 78.6892 22.04 79.2142 22.18 79.5042C22.32 79.7842 22.52 79.9242 22.78 79.9242C23.04 79.9242 23.24 79.7842 23.38 79.5042C23.52 79.2242 23.59 78.6992 23.59 77.9292ZM25.195 70.077C25.195 70.597 25.125 71.012 24.985 71.322L22.99 71.322C23.06 71.132 23.095 70.932 23.095 70.722C23.095 70.342 22.995 70.062 22.795 69.882C22.585 69.692 22.28 69.572 21.88 69.522L17.38 68.997L17.38 60.852L25 60.852L25 63.207L19.375 63.207L19.375 66.957L22.45 67.317C23.36 67.417 24.045 67.702 24.505 68.172C24.965 68.632 25.195 69.267 25.195 70.077ZM17.38 52.0868L17.38 49.3418L25.075 53.2268C26.195 53.7768 26.99 54.3918 27.46 55.0718C27.94 55.7518 28.18 56.5868 28.18 57.5768C28.18 57.8868 28.16 58.1618 28.12 58.4018C28.08 58.6318 28.01 58.8768 27.91 59.1368L25.96 59.1368C26.12 58.7268 26.2 58.3068 26.2 57.8768C26.2 57.3668 26.115 56.9518 25.945 56.6318C25.775 56.3118 25.485 56.0368 25.075 55.8068L17.38 59.7368L17.38 56.9918L21.775 55.0418C22.435 54.7918 22.97 54.6668 23.38 54.6668L23.425 54.6668L23.425 54.4118L23.38 54.4118C22.94 54.4118 22.405 54.2918 21.775 54.0518L17.38 52.0868Z" fill="#071F34"/>
<g clip-path="url(#clip1_385_1241)">
<circle cx="20" cy="20" r="20" transform="rotate(180 20 20)" fill="#B8C2D0" fill-opacity="0.2"/>
<path d="M20.0003 24.77L20.0003 15.11M20.0003 15.11L23.7803 18.89M20.0003 15.11L16.2203 18.89" stroke="#004077" stroke-linecap="round" stroke-linejoin="round"/>
</g>
</g>
<defs>
<clipPath id="clip0_385_1241">
<rect width="237" height="40" fill="white" transform="translate(0 237) rotate(-90)"/>
</clipPath>
<clipPath id="clip1_385_1241">
<rect width="40" height="40" fill="white" transform="translate(40 40) rotate(180)"/>
</clipPath>
</defs>
</svg>
