<svg width="24" height="26" viewBox="0 0 24 26" fill="none" xmlns="http://www.w3.org/2000/svg">
<path d="M20.3337 17V25M20.3337 25L17.667 22.3333M20.3337 25L23.0003 22.3333M12.3337 1H5.93366C4.44019 1 3.69345 1 3.12302 1.29065C2.62125 1.54631 2.2133 1.95426 1.95764 2.45603C1.66699 3.02646 1.66699 3.77319 1.66699 5.26667V20.7333C1.66699 22.2268 1.66699 22.9735 1.95764 23.544C2.2133 24.0457 2.62125 24.4537 3.12302 24.7094C3.69345 25 4.44019 25 5.93366 25H13.667M12.3337 1L20.3337 9M12.3337 1V6.86667C12.3337 7.6134 12.3337 7.98677 12.479 8.27199C12.6068 8.52287 12.8108 8.72684 13.0617 8.85468C13.3469 9 13.7203 9 14.467 9H20.3337M20.3337 9V11.6667" stroke="#071F34" stroke-width="2" stroke-linecap="round" stroke-linejoin="round"/>
</svg>
