<svg width="15" height="16" viewBox="0 0 15 16" fill="none" xmlns="http://www.w3.org/2000/svg">
<g clip-path="url(#clip0_458_1941)">
<path d="M1 3.30556C1 9.48808 6.01192 14.5 12.1944 14.5C12.4734 14.5 12.7499 14.4898 13.0238 14.4697C13.338 14.4467 13.4951 14.4352 13.6381 14.3529C13.7566 14.2847 13.8689 14.1638 13.9283 14.0407C14 13.892 14 13.7186 14 13.3719V11.3372C14 11.0456 14 10.8998 13.952 10.7748C13.9096 10.6644 13.8408 10.566 13.7515 10.4885C13.6504 10.4007 13.5134 10.3508 13.2393 10.2512L10.9233 9.40898C10.6045 9.29303 10.445 9.23506 10.2938 9.2449C10.1604 9.25358 10.0321 9.2991 9.92301 9.37639C9.79935 9.46405 9.71207 9.60951 9.53752 9.90043L8.94444 10.8889C7.03065 10.0222 5.47915 8.46863 4.61111 6.55556L5.59957 5.96248C5.89049 5.78793 6.03595 5.70065 6.12361 5.57699C6.2009 5.46795 6.24642 5.3396 6.2551 5.20623C6.26494 5.05497 6.20697 4.89555 6.09103 4.57671L6.09102 4.5767L5.24882 2.26065C5.14917 1.98661 5.09934 1.84958 5.01152 1.74851C4.93395 1.65924 4.83565 1.59039 4.72524 1.54799C4.60025 1.5 4.45444 1.5 4.16284 1.5H2.12812C1.78136 1.5 1.60797 1.5 1.45932 1.57168C1.3362 1.63105 1.21532 1.7434 1.14712 1.86186C1.06477 2.00488 1.05326 2.162 1.03025 2.47625C1.0102 2.75006 1 3.02662 1 3.30556Z" stroke="#38AEE4" stroke-width="1.5" stroke-linecap="round" stroke-linejoin="round"/>
</g>
<defs>
<clipPath id="clip0_458_1941">
<rect width="15" height="15" fill="white" transform="translate(0 0.5)"/>
</clipPath>
</defs>
</svg>
