<svg width="80" height="80" viewBox="0 0 80 80" fill="none" xmlns="http://www.w3.org/2000/svg">
<g id="apple-logo 1">
<g id="Group">
<g id="Group_2">
<path id="Vector" d="M55.3955 0C55.5817 0 55.7679 0 55.9646 0C56.4213 5.64177 54.2679 9.85729 51.6508 12.91C49.0828 15.9417 45.5664 18.882 39.8789 18.4359C39.4995 12.8749 41.6565 8.97203 44.2701 5.92632C46.694 3.08787 51.1379 0.562069 55.3955 0Z" fill="black"/>
<path id="Vector_2" d="M72.6122 58.7222C72.6122 58.7784 72.6122 58.8276 72.6122 58.8802C71.0138 63.7211 68.7339 67.8698 65.9517 71.72C63.4118 75.2154 60.2994 79.9192 54.7419 79.9192C49.9397 79.9192 46.75 76.8313 41.8284 76.747C36.6222 76.6627 33.7592 79.329 28.9992 80C28.4547 80 27.9101 80 27.3762 80C23.8808 79.4941 21.0599 76.7259 19.0049 74.2318C12.9451 66.8616 8.26232 57.3416 7.39111 45.1587C7.39111 43.9643 7.39111 42.7735 7.39111 41.5791C7.75997 32.86 11.9966 25.7709 17.6278 22.3352C20.5997 20.5085 24.6853 18.9523 29.2345 19.6478C31.1842 19.9499 33.176 20.6174 34.922 21.2778C36.5765 21.9137 38.6457 23.0413 40.6059 22.9816C41.9338 22.943 43.2546 22.2509 44.5931 21.7626C48.5135 20.3469 52.3566 18.7239 57.4223 19.4862C63.5102 20.4066 67.8311 23.1116 70.5009 27.2849C65.351 30.5625 61.2795 35.5017 61.975 43.9362C62.5933 51.5979 67.0477 56.0804 72.6122 58.7222Z" fill="black"/>
</g>
</g>
</g>
</svg>
