<?xml version="1.0" encoding="utf-8"?>
<svg xmlns="http://www.w3.org/2000/svg" xmlns:xlink="http://www.w3.org/1999/xlink">

<symbol viewBox="0 0 24 24" id="cart_icon" xmlns="http://www.w3.org/2000/svg"><path d="M4.005 16V4h-2V2h3a1 1 0 0 1 1 1v12h12.438l2-8H8.005V5h13.72a1 1 0 0 1 .97 1.243l-2.5 10a1 1 0 0 1-.97.757H5.004a1 1 0 0 1-1-1Zm2 7a2 2 0 1 1 0-4 2 2 0 0 1 0 4Zm12 0a2 2 0 1 1 0-4 2 2 0 0 1 0 4Z" /></symbol>

<symbol viewBox="0 0 24 24" id="login_icon" xmlns="http://www.w3.org/2000/svg"><path d="M12 17c3.663 0 6.866 1.575 8.608 3.925l-1.842.871C17.348 20.116 14.848 19 12.001 19c-2.848 0-5.347 1.116-6.765 2.796l-1.841-.872C5.137 18.574 8.339 17 12 17Zm0-15a5 5 0 0 1 5 5v3a5 5 0 0 1-4.782 4.995L12 15a5 5 0 0 1-5-5V7a5 5 0 0 1 4.783-4.995L12.001 2Zm0 2a3 3 0 0 0-2.994 2.824L9.001 7v3a3 3 0 0 0 5.995.176L15 10V7a3 3 0 0 0-3-3Z" /></symbol>

</svg>