<svg width="221" height="107" viewBox="0 0 221 107" fill="none" xmlns="http://www.w3.org/2000/svg">
<path d="M11.6471 73.5264L38.0647 67.217C38.2886 67.1602 38.9311 67.0247 39.4887 67.0582C39.9351 67.0829 40.2015 67.1019 40.6142 67.2753C41.1748 67.5041 41.5992 67.9718 41.8407 68.2297L51.4535 78.4268H51.5662L8.78146 78.4545L11.6471 73.525V73.5264ZM54.0528 78.4239L35.3951 58.6271C35.2385 58.461 34.7951 57.97 34.5448 57.4687C34.3443 57.0695 34.2301 56.829 34.1701 56.3861C34.0896 55.7828 34.2813 55.1795 34.3794 54.8415L38.3764 41.3921L38.3208 41.293L59.7388 78.4545L54.0528 78.4253V78.4239Z" fill="white"/>
<path d="M36.989 39.0942L29.2276 65.2047C29.1618 65.4233 28.9612 66.0528 28.6539 66.522C28.408 66.895 28.2558 67.1165 27.9045 67.3905C27.4216 67.7591 26.8069 67.8975 26.4644 67.9777L12.859 71.2329L12.8004 71.3291L34.1716 34.1428L36.9904 39.0942H36.989Z" fill="white"/>
<path d="M68.1646 47.1201H73.9955C78.0584 47.1201 79.9303 49.6323 79.9303 52.6092C79.9303 55.5351 77.953 57.9423 73.6325 57.9423H70.8459V65.8167H68.1675V47.1201H68.1646V47.1201ZM70.8459 55.5381H73.8901C75.8703 55.5381 77.1729 54.3578 77.1729 52.5072C77.1729 51.1229 76.4162 49.5244 73.9969 49.5244H70.8459V55.5381ZM106.307 63.4154H114.715V65.8182H103.627V47.1201H106.305V63.4154H106.307ZM115.748 47.1216L120.771 53.5738L125.818 47.1216H129.048L122.125 55.9475V65.8182H119.442V55.9198L112.518 47.1216H115.748V47.1216ZM133.983 47.1216L140.152 54.8007L146.347 47.1216H148.847V65.8182H146.164V51.273H146.113L140.361 58.5063H139.944L134.188 51.273H134.14V65.8182H131.458V47.1216H133.983V47.1216ZM198.461 65.8182H195.73L193.229 60.3102H185.315L182.947 65.8182H180.216L188.233 47.0181H190.104L198.461 65.8182ZM186.36 57.9059H192.134L189.145 51.1156L186.36 57.9059V57.9059ZM203.411 63.4139H211.819V65.8182H200.732V47.1201H203.411V63.4154V63.4139ZM164.117 47.1522V49.5521H155.523V55.012H163.928V57.4163H155.523V63.4518H164.44V65.8503H152.832V47.1537H164.117V47.1522ZM181.596 47.1522V49.5521H175.307V65.8503H172.632V49.5521H166.344V47.1537H181.596V47.1522ZM91.1266 46.9875C97.0044 46.9875 100.713 51.3867 100.713 56.5974C100.713 61.6464 97.1053 66.2014 91.074 66.2014C85.246 66.2014 81.5592 61.6726 81.5592 56.5989C81.5592 51.4187 85.3484 46.9875 91.1266 46.9875V46.9875ZM91.1266 63.7432C95.1339 63.7432 98.0699 60.6832 98.0699 56.5989C98.0699 52.4897 95.1339 49.453 91.1266 49.453C87.1399 49.453 84.2039 52.4897 84.2039 56.5989C84.2039 60.6818 87.1399 63.7432 91.1266 63.7432V63.7432ZM105.083 70.2042H105.699V78.0218H105.085V70.2042H105.083ZM107.172 70.2129H107.743L113.593 77.0338V70.2144H114.198V78.0203H113.696L107.788 71.1645V78.0203H107.172V70.2129V70.2129ZM114.936 70.2042H121.371V70.7171H118.462V78.0203H117.844V70.7171H114.936V70.2042V70.2042ZM122.19 70.2129H126.444V70.7288H122.809V73.8325H126.353V74.3483H122.809V77.5045H126.538V78.0203H122.193V70.2129H122.19ZM129.671 70.2129C132.054 70.2129 132.339 71.4617 132.339 72.2398C132.339 73.1899 131.735 73.866 130.891 74.1166C131.176 74.2886 131.575 74.7709 131.735 75.0201C131.735 75.0201 133.513 77.7668 133.683 78.0189H132.978L131.517 75.7311C130.855 74.7009 130.501 74.2755 129.611 74.2755H128.392V78.0203H127.775V70.2129H129.673H129.671ZM128.394 73.7625H129.692C131.141 73.7625 131.69 73.0981 131.69 72.2398C131.69 71.2344 131.025 70.7288 129.418 70.7288H128.394V73.7625V73.7625ZM134.311 70.2129H134.882L140.735 77.0338V70.2144H141.338V78.0203H140.834L134.926 71.1645V78.0203H134.311V70.2129ZM145.646 70.1547H146L149.592 78.0203H148.966L147.733 75.3188H143.934L142.702 78.0203H142.075L145.646 70.1561V70.1547ZM145.826 71.1441L144.14 74.8015H147.493L145.826 71.1441ZM149.681 70.2028H156.117V70.7171H153.206V78.0189H152.59V70.7171H149.681V70.2028ZM156.933 70.2028H157.55V78.0189H156.933V70.2013V70.2028ZM167.063 74.0831C167.063 76.3621 165.282 78.1223 162.956 78.1223C160.663 78.1223 158.838 76.3839 158.838 74.1166C158.838 71.8406 160.616 70.1124 162.956 70.1124C165.248 70.1124 167.063 71.8143 167.063 74.0831V74.0831ZM166.412 74.0831C166.413 73.6319 166.324 73.1849 166.151 72.768C165.977 72.3512 165.722 71.9727 165.401 71.6545C165.08 71.3363 164.698 71.0848 164.278 70.9144C163.859 70.7439 163.409 70.6581 162.956 70.6617C160.97 70.6617 159.487 72.2384 159.487 74.1647C159.485 74.6147 159.573 75.0607 159.745 75.4767C159.918 75.8927 160.171 76.2704 160.492 76.5877C160.812 76.905 161.193 77.1557 161.612 77.3251C162.031 77.4945 162.479 77.5793 162.931 77.5744C164.952 77.5744 166.412 76.0065 166.412 74.0831V74.0831ZM168.406 70.2129H168.976L174.826 77.0338V70.2144H175.433V78.0203H174.928L169.021 71.1645V78.0203H168.406V70.2129ZM179.742 70.1547H180.093L183.686 78.0203H183.06L181.827 75.3188H178.028L176.796 78.0203H176.169L179.742 70.1561V70.1547ZM179.923 71.1441L178.236 74.8015H181.587L179.923 71.1441ZM184.506 70.2028H185.123V77.503H188.968V78.0189H184.506V70.2028ZM194.083 70.2129H196.311C197.526 70.2129 198.749 70.7171 198.749 72.2952C198.749 73.8398 197.526 74.3687 196.311 74.3687H194.698V78.0174H194.083V70.2129ZM194.7 70.7273V73.8412H196.15C197.198 73.866 198.101 73.5207 198.101 72.2967C198.101 71.0727 197.198 70.7273 196.15 70.7273H194.7ZM199.9 70.2013H200.516V77.5016H204.359V78.0174H199.9V70.2013ZM209.07 77.5715C210.074 77.5715 210.954 77.2058 211.819 76.7686V77.3996C210.941 77.8455 210.063 78.1209 209.07 78.1209C206.733 78.1209 204.931 76.4495 204.931 74.1501C204.931 71.9061 206.676 70.1095 209.002 70.1095C210.143 70.1095 210.954 70.4067 211.741 70.7623V71.4151C210.919 70.9925 210.2 70.6617 209.094 70.6617C207.008 70.6617 205.58 72.1466 205.58 74.1283C205.578 76.1071 207.054 77.5715 209.07 77.5715V77.5715Z" fill="white"/>
</svg>
