<svg width="220" height="106" viewBox="0 0 220 106" fill="none" xmlns="http://www.w3.org/2000/svg">
<path d="M69.5439 45.4388V66.4499H74.2935V61.7774H81.9302C86.8702 61.7774 90.5934 58.6233 90.5934 53.6841C90.5934 48.745 86.8703 45.439 81.9302 45.439L69.5439 45.4388ZM74.2935 49.7703H81.7399C84.1721 49.7703 85.844 51.2516 85.844 53.6839C85.844 56.1161 84.1721 57.4456 81.7399 57.4456H74.2935V49.7703ZM98.2681 55.9635C98.2681 51.632 101.345 49.0106 105.296 49.0106C109.247 49.0106 112.325 51.6317 112.325 55.9635C112.325 60.2951 109.247 62.9164 105.296 62.9164C101.345 62.9164 98.2681 60.2953 98.2681 55.9635ZM117.074 55.9635C117.074 49.3522 111.679 44.9452 105.296 44.9452C98.9139 44.9452 93.5189 49.3524 93.5189 55.9635C93.5189 62.5746 98.9139 66.9828 105.296 66.9828C111.68 66.9828 117.074 62.5748 117.074 55.9635ZM120.57 45.4387V66.4498H139.796V62.1567H125.318V45.4387H120.57ZM135.501 45.4387L145.342 61.2067V66.4498H150.016V61.2067L159.894 45.4387H154.459L147.964 56.6473H147.66L140.935 45.4387H135.501ZM162.364 45.4387V56.1533C162.364 63.1067 166.543 66.9828 173.115 66.9828C179.688 66.9828 183.867 63.107 183.867 56.1533V45.4387H179.119V56.1907C179.119 60.2947 177.257 62.8031 173.115 62.8031C168.975 62.8031 167.113 60.2945 167.113 56.1907V45.4387H162.364ZM208.184 48.0599C204.917 45.6291 201.498 44.9451 197.584 44.9451C192.227 44.9451 187.82 46.9971 187.82 51.4419C187.82 55.3556 190.441 57.0267 194.735 57.5207L201.802 58.3189C203.588 58.5093 204.195 59.0785 204.195 60.2183C204.195 62.0035 201.762 62.8395 198.42 62.8395C194.963 62.8395 192.151 61.9287 189.264 59.9144L187.023 63.5997C190.366 66.0698 193.594 66.9821 197.89 66.9821C204.196 66.9821 208.793 64.8536 208.793 60.142C208.793 56.2669 206.019 54.3669 201.536 53.836L195.229 53.1135C193.595 52.9238 192.494 52.62 192.494 51.4038C192.494 50.2262 193.482 49.1621 197.584 49.1621C200.928 49.1621 203.436 49.8461 205.905 51.5566L208.184 48.0595" fill="white"/>
<path d="M35.64 36.2971L33.1562 51.218C33.0976 51.5727 32.7151 51.7331 32.3812 51.6028L24.9182 48.7178C23.9935 48.3616 23.6843 47.6675 23.8123 46.9018L25.4033 37.3525C25.5297 36.5867 26.0464 36.03 27.0366 35.9914L35.0326 35.6814C35.3904 35.6676 35.6997 35.942 35.6403 36.2968M14.2132 47.04L27.6515 53.9836C27.9707 54.1471 28.0063 54.5604 27.7803 54.8388L22.7439 61.0559C22.1216 61.8264 21.3658 61.9089 20.6756 61.5518L12.0759 57.1077C11.3865 56.7507 11.0148 56.089 11.2824 55.1343L13.4409 47.4295C13.5373 47.0832 13.8943 46.8742 14.2135 47.0401M17.8087 70.6782L28.58 60.0578C28.836 59.8056 29.2386 59.9005 29.4337 60.2011L33.7815 66.918C34.3198 67.7492 34.1624 68.4927 33.6095 69.0379L26.7169 75.8348C26.1639 76.38 25.4189 76.5266 24.5938 75.9759L17.9404 71.5325C17.642 71.3343 17.5532 70.9303 17.8085 70.6781M41.5278 74.5308L34.6768 61.0441C34.5141 60.7232 34.7262 60.3685 35.0724 60.2736L42.7907 58.1692C43.7477 57.9085 44.4086 58.2841 44.7602 58.9765L49.1442 67.6075C49.4951 68.3 49.4095 69.0542 48.6353 69.6726L42.3818 74.6659C42.1011 74.8895 41.6901 74.851 41.5274 74.531M52.4354 53.3519L37.4771 55.5983C37.1208 55.6523 36.8509 55.3384 36.871 54.9814L37.3098 46.9916C37.363 46.0022 37.9282 45.494 38.6963 45.3776L48.2684 43.9417C49.0365 43.826 49.726 44.146 50.0676 45.076L52.8322 52.5838C52.9563 52.9207 52.7906 53.2994 52.435 53.3518" fill="white"/>
</svg>
