<svg width="220" height="106" viewBox="0 0 220 106" fill="none" xmlns="http://www.w3.org/2000/svg">
<path opacity="0.2" d="M87.9261 27.8V36.9825H74.2433C70.7685 36.9825 67.9422 39.7542 67.9422 43.1623V49.3435C67.9422 52.7517 70.7685 55.5233 74.2433 55.5233H86.486L82.5248 64.7058H69.3824C67.5597 64.7152 65.7531 64.3654 64.0673 63.6767C62.3814 62.9879 60.8496 61.9738 59.5604 60.693C58.2712 59.4122 57.2502 57.8901 56.5564 56.2147C55.8627 54.5393 55.5099 52.7438 55.5185 50.9321L55.3388 44.7523L55.5185 41.5563C55.5185 33.9624 61.6047 27.8 69.3459 27.8H87.9261Z" fill="white"/>
<path d="M161.744 27.7999V36.9824H148.782C146.603 36.9824 144.317 38.148 143.236 39.8078C142.246 41.3091 141.759 43.0749 141.759 44.8569V47.9132C141.759 49.2722 142.029 50.6151 142.624 51.8505C143.703 54.128 146.17 55.5232 148.782 55.5232H162.285V64.7057H134.018C134.018 64.7057 132.721 61.6507 131.532 58.2425C130.354 54.8487 129.669 51.3049 129.499 47.7185C129.391 45.4048 129.696 41.5548 129.696 41.5548C130.128 33.9986 136.43 27.7825 144.155 27.7825H161.744V27.7999Z" fill="white"/>
<path d="M127.356 55.5233L115.653 27.8H101.79L89.9067 55.5233H86.128V64.7058H131.138V55.5233H127.358H127.356ZM101.971 55.5233L108.236 38.7484C108.379 38.3777 108.902 38.3777 109.027 38.7484L115.293 55.5233H101.97H101.971Z" fill="white"/>
<path d="M74.604 70.1805L66.1414 85.3655H60.5604L63.2611 80.9515L56.96 70.1805H62.3613L65.782 76.7135L69.0217 70.1805H74.604ZM94.5879 70.1805V73.8881H86.2698C86.1806 73.8876 86.0921 73.9045 86.0095 73.938C85.9268 73.9714 85.8516 74.0207 85.7881 74.0831C85.7246 74.1454 85.6741 74.2196 85.6395 74.3013C85.6049 74.3831 85.5868 74.4708 85.5862 74.5595V85.3655H80.5443V72.7225C80.5443 71.3098 81.7156 70.1805 83.1382 70.1805H94.5879V70.1805ZM111.854 70.1805H106.309C103.122 70.1805 100.53 72.7225 100.53 75.8473V79.6973C100.53 82.8235 103.122 85.3655 106.309 85.3655H111.854C115.042 85.3655 117.633 82.8235 117.633 79.6986V75.8473C117.633 72.7211 115.041 70.1791 111.854 70.1791V70.1805ZM112.413 78.7976V79.0097C112.322 80.5983 111.278 81.8351 109.657 81.8351H108.523C106.885 81.8351 105.859 80.6158 105.769 79.0097V76.7309C105.769 75.901 106.039 75.2296 106.452 74.718C107.012 74.0465 107.678 73.6934 108.541 73.6934H109.585C111.025 73.6934 112.125 74.7005 112.359 76.0957C112.394 76.2891 112.413 76.5013 112.413 76.7309V78.7976ZM141.759 85.3655H136.358L132.632 74.9301C132.595 74.8241 132.505 74.7703 132.397 74.7703C132.346 74.7712 132.297 74.7868 132.256 74.8152C132.214 74.8437 132.182 74.8836 132.163 74.9301L128.256 85.5427H123.034L128.976 71.9463C130.237 69.1209 135.097 69.4741 135.999 71.9463L141.759 85.3655ZM163.005 78.1261C162.428 76.414 160.789 75.6539 158.936 75.6539H152.562V70.1805H147.701V83.0705C147.701 83.3176 147.755 83.5647 147.826 83.7769C148.168 84.7478 149.123 85.3655 150.168 85.3655H159.673C161.168 85.3655 162.519 84.4483 163.005 83.0705C163.221 82.4354 163.382 81.6229 163.382 80.5983C163.364 79.7685 163.202 78.7089 163.005 78.1261V78.1261ZM158.143 80.5272C158.143 81.3047 157.783 81.6579 157.063 81.6579H153.588C152.922 81.6579 152.562 81.3047 152.562 80.5809V79.0097H157.135C157.783 79.0097 158.143 79.3629 158.143 80.0679V80.5272V80.5272Z" fill="white"/>
<path d="M67.5815 46.694V44.8584C67.5815 43.075 68.0679 41.3092 69.0582 39.8079C70.139 38.1481 72.4248 36.9825 74.604 36.9825H87.5668V27.8H69.9768C62.2519 27.8 55.9333 34.0161 55.5185 41.5737C55.5185 41.5737 55.2848 44.434 55.2848 46.694H67.5815V46.694Z" fill="white"/>
<path d="M67.5815 45.8118V47.6475C67.5815 49.4308 68.0679 51.1966 69.0582 52.6979C70.139 54.3577 72.4248 55.5233 74.604 55.5233H86.6657L82.8856 64.7058H69.9768C62.2519 64.7058 55.9508 58.4897 55.5185 50.9321C55.5185 50.9321 55.2848 48.0718 55.2848 45.8118H67.5815V45.8118Z" fill="white"/>
</svg>
