<?xml version="1.0" encoding="utf-8"?>
<svg xmlns="http://www.w3.org/2000/svg" xmlns:xlink="http://www.w3.org/1999/xlink">

<symbol fill="none" viewBox="0 0 32 32" id="arrow_news" xmlns="http://www.w3.org/2000/svg"><path d="M6.667 16h18.666M20 21.333L25.333 16M20 10.667L25.333 16" stroke="#7CCCBF" stroke-width="1.5" stroke-linecap="round" stroke-linejoin="round"/></symbol>

<symbol fill="none" viewBox="0 0 16 16" id="chevron" xmlns="http://www.w3.org/2000/svg"><path d="M4 6l4 4 4-4" stroke-width="1.5" stroke-linecap="round" stroke-linejoin="round"/></symbol>

<symbol fill="none" viewBox="0 0 41 40" id="facebook_icon" xmlns="http://www.w3.org/2000/svg"><path fill="#4C5C80" d="M.5 0h40v40H.5z"/><path d="M18.155 20.937h-2.187c-.344 0-.467-.125-.467-.47v-2.67c0-.341.13-.471.47-.472h2.184V15.39c0-.875.156-1.711.6-2.478.455-.784 1.117-1.321 1.965-1.632A4.857 4.857 0 0122.403 11c.722 0 1.443 0 2.164.002.31 0 .448.137.448.45.002.836.002 1.673 0 2.51 0 .315-.132.441-.449.445-.591.006-1.183.002-1.773.026-.597 0-.91.291-.91.909-.015.652-.006 1.306-.006 1.983h2.546c.36 0 .484.124.484.486l-.001 2.654c0 .357-.116.471-.479.471H21.87v7.16c0 .382-.12.504-.496.504h-2.755c-.333 0-.463-.13-.463-.462v-7.201z" fill="#fff"/></symbol>

<symbol fill="none" viewBox="0 0 41 40" id="instagram_icon" xmlns="http://www.w3.org/2000/svg"><path fill="#4C5C80" d="M.5 0h40v40H.5z"/><path d="M25.244 10h-8.488a6.263 6.263 0 00-6.256 6.256v8.488A6.263 6.263 0 0016.756 31h8.488a6.263 6.263 0 006.256-6.256v-8.488A6.263 6.263 0 0025.244 10zm4.143 14.744a4.143 4.143 0 01-4.143 4.143h-8.488a4.143 4.143 0 01-4.143-4.143v-8.488a4.143 4.143 0 014.143-4.143h8.488a4.143 4.143 0 014.143 4.143v8.488z" fill="#fff"/><path d="M21 15.069A5.438 5.438 0 0015.57 20.5 5.438 5.438 0 0021 25.931a5.437 5.437 0 005.431-5.43 5.438 5.438 0 00-5.43-5.432zm0 8.75a3.319 3.319 0 110-6.638 3.319 3.319 0 010 6.638zM26.442 16.411a1.301 1.301 0 100-2.603 1.301 1.301 0 000 2.603z" fill="#fff"/></symbol>

<symbol fill="none" viewBox="0 0 56 56" id="play_button" xmlns="http://www.w3.org/2000/svg"><path d="M23 20v16l13-8-13-8z" stroke="#fff" stroke-linecap="round" stroke-linejoin="round"/><rect x=".5" y=".5" width="55" height="55" rx="27.5" stroke="#7CCCBF"/></symbol>

<symbol fill="none" viewBox="0 0 41 40" id="rutube_icon" xmlns="http://www.w3.org/2000/svg"><path fill="#4C5C80" d="M.5 0h40v40H.5z"/><path fill-rule="evenodd" clip-rule="evenodd" d="M22.463 26.791l-2.544-4h-2.572v4H14V13h5.864c3.348 0 5.58 1.874 5.58 4.86 0 1.803-.858 3.268-2.287 4.128l3.17 4.831h-3.864v-.028zm-5.089-7.086h2.477c1.293 0 2.286-.718 2.286-1.873 0-1.127-1.007-1.817-2.286-1.817h-2.477v3.69z" fill="#fff"/></symbol>

<symbol fill="none" viewBox="0 0 24 24" id="search_icon" xmlns="http://www.w3.org/2000/svg"><path d="M10.875 18.75a7.875 7.875 0 100-15.75 7.875 7.875 0 000 15.75zM16.443 16.444L21 21" stroke="#fff" stroke-width="2" stroke-linecap="round" stroke-linejoin="round"/></symbol>

<symbol fill="none" viewBox="0 0 16 17" id="slide_arrow_left" xmlns="http://www.w3.org/2000/svg"><path d="M12.667 8.5H3.333M7.333 12.5l-4-4M7.333 4.5l-4 4" stroke="#807D9D" stroke-width="1.5" stroke-linecap="round" stroke-linejoin="round"/></symbol>

<symbol fill="none" viewBox="0 0 16 17" id="slide_arrow_right" xmlns="http://www.w3.org/2000/svg"><path d="M3.333 8.5h9.334M8.667 12.5l4-4M8.667 4.5l4 4" stroke="#807D9D" stroke-width="1.5" stroke-linecap="round" stroke-linejoin="round"/></symbol>

<symbol fill="none" viewBox="0 0 41 40" id="telegram_icon" xmlns="http://www.w3.org/2000/svg"><path fill="#4C5C80" d="M.5 0h40v40H.5z"/><path d="M18.373 22.936l-.327 4.532c.468 0 .67-.198.914-.436l2.193-2.066 4.544 3.28c.833.459 1.42.218 1.646-.755l2.982-13.777h.001c.264-1.215-.445-1.69-1.257-1.392l-17.534 6.616c-1.196.458-1.178 1.116-.203 1.414l4.482 1.374 10.413-6.422c.49-.32.935-.143.569.177l-8.423 7.455z" fill="#fff"/></symbol>

<symbol fill="none" viewBox="0 0 41 40" id="vk_icon" xmlns="http://www.w3.org/2000/svg"><path fill="#4C5C80" d="M.5 0h40v40H.5z"/><g clip-path="url(#kclip0_202_4890)"><path d="M21.027 27C13.17 27 8.687 21.745 8.5 13h3.936c.13 6.418 3.031 9.137 5.33 9.698V13h3.707v5.535c2.27-.238 4.654-2.76 5.459-5.535h3.706a10.544 10.544 0 01-1.775 4.003 10.845 10.845 0 01-3.267 2.976 11.308 11.308 0 013.724 2.893A10.977 10.977 0 0131.5 27h-4.08a6.905 6.905 0 00-2.2-3.377 7.183 7.183 0 00-3.747-1.626V27h-.446z" fill="#fff"/></g><defs><clipPath id="kclip0_202_4890"><path fill="#fff" transform="translate(8.5 8)" d="M0 0h24v24H0z"/></clipPath></defs></symbol>

<symbol fill="none" viewBox="0 0 41 40" id="youtube_icon" xmlns="http://www.w3.org/2000/svg"><path fill="#4C5C80" d="M.5 0h40v40H.5z"/><g clip-path="url(#lclip0_202_4911)"><path d="M27.515 11.508h-14.03A4.984 4.984 0 008.5 16.493v7.014a4.984 4.984 0 004.985 4.984h14.03a4.984 4.984 0 004.985-4.984v-7.014a4.984 4.984 0 00-4.985-4.985zm-3.37 8.833l-6.563 3.13a.263.263 0 01-.377-.238v-6.455c0-.197.207-.324.382-.235l6.563 3.325a.264.264 0 01-.005.473z" fill="#fff"/></g><defs><clipPath id="lclip0_202_4911"><path fill="#fff" transform="translate(8.5 8)" d="M0 0h24v24H0z"/></clipPath></defs></symbol>

</svg>