<svg width="24" height="25" viewBox="0 0 24 25" fill="none" xmlns="http://www.w3.org/2000/svg">
<path d="M12 8.54773C12 7.75208 12.3161 6.98902 12.8787 6.42641C13.4413 5.8638 14.2044 5.54773 15 5.54773H21C21.1989 5.54773 21.3897 5.62675 21.5303 5.7674C21.671 5.90805 21.75 6.09882 21.75 6.29773V18.2977C21.75 18.4966 21.671 18.6874 21.5303 18.8281C21.3897 18.9687 21.1989 19.0477 21 19.0477H15C14.2044 19.0477 13.4413 19.3638 12.8787 19.9264C12.3161 20.489 12 21.2521 12 22.0477" stroke="white" stroke-width="2" stroke-linecap="round" stroke-linejoin="round"/>
<path d="M2.25 18.2977C2.25 18.4966 2.32902 18.6874 2.46967 18.8281C2.61032 18.9687 2.80109 19.0477 3 19.0477H9C9.79565 19.0477 10.5587 19.3638 11.1213 19.9264C11.6839 20.489 12 21.2521 12 22.0477V8.54773C12 7.75208 11.6839 6.98902 11.1213 6.42641C10.5587 5.8638 9.79565 5.54773 9 5.54773H3C2.80109 5.54773 2.61032 5.62675 2.46967 5.7674C2.32902 5.90805 2.25 6.09882 2.25 6.29773V18.2977Z" stroke="white" stroke-width="2" stroke-linecap="round" stroke-linejoin="round"/>
</svg>
