<svg width="24" height="24" viewBox="0 0 24 24" fill="none" xmlns="http://www.w3.org/2000/svg">
<path d="M6.5 11.5C7.60457 11.5 8.5 10.6046 8.5 9.5C8.5 8.39543 7.60457 7.5 6.5 7.5C5.39543 7.5 4.5 8.39543 4.5 9.5C4.5 10.6046 5.39543 11.5 6.5 11.5Z" fill="white"/>
<path d="M12.875 11.5C13.9796 11.5 14.875 10.6046 14.875 9.5C14.875 8.39543 13.9796 7.5 12.875 7.5C11.7704 7.5 10.875 8.39543 10.875 9.5C10.875 10.6046 11.7704 11.5 12.875 11.5Z" fill="white"/>
<path d="M19.25 11.5C20.3546 11.5 21.25 10.6046 21.25 9.5C21.25 8.39543 20.3546 7.5 19.25 7.5C18.1454 7.5 17.25 8.39543 17.25 9.5C17.25 10.6046 18.1454 11.5 19.25 11.5Z" fill="white"/>
<path d="M6.5 18.25C7.60457 18.25 8.5 17.3546 8.5 16.25C8.5 15.1454 7.60457 14.25 6.5 14.25C5.39543 14.25 4.5 15.1454 4.5 16.25C4.5 17.3546 5.39543 18.25 6.5 18.25Z" fill="white"/>
<path d="M12.875 18.25C13.9796 18.25 14.875 17.3546 14.875 16.25C14.875 15.1454 13.9796 14.25 12.875 14.25C11.7704 14.25 10.875 15.1454 10.875 16.25C10.875 17.3546 11.7704 18.25 12.875 18.25Z" fill="white"/>
<path d="M19.25 18.25C20.3546 18.25 21.25 17.3546 21.25 16.25C21.25 15.1454 20.3546 14.25 19.25 14.25C18.1454 14.25 17.25 15.1454 17.25 16.25C17.25 17.3546 18.1454 18.25 19.25 18.25Z" fill="white"/>
</svg>
