<svg width="198" height="48" viewBox="0 0 198 48" fill="none" xmlns="http://www.w3.org/2000/svg">
<g clip-path="url(#clip0_132_4389)">
<path d="M0 4.56421H5.37268V33.035H20.6641V37.8238H0V4.56421Z" fill="#241E46"/>
<path d="M25.6611 13.0942H31.0338V38.0482H25.6611V13.0942Z" fill="#241E46"/>
<path d="M53.5387 33.297V37.8239C51.8856 38.198 50.3828 38.3851 49.1053 38.3851C46.2124 38.3851 43.9581 37.6743 42.305 36.2152C40.6894 34.7935 39.8628 32.5862 39.8628 29.7054V17.509H35.7676V12.8699H39.8628V6.32275H45.2731V12.8699H52.7122V17.509H45.2731V29.2565C45.2731 30.8652 45.6864 31.9502 46.5129 32.6236C47.3395 33.2596 48.5793 33.5963 50.1949 33.5963C50.9463 33.5589 52.0735 33.4841 53.5387 33.297Z" fill="#241E46"/>
<path d="M72.1374 33.297V37.8239C70.4842 38.198 68.9814 38.3851 67.704 38.3851C64.811 38.3851 62.5567 37.6743 60.9036 36.2152C59.288 34.7935 58.4615 32.5862 58.4615 29.7054V17.509H54.3662V12.8699H58.4615V6.32275H63.8717V12.8699H71.3108V17.509H63.8717V29.2565C63.8717 30.8652 64.285 31.9502 65.1116 32.6236C65.9381 33.2596 67.178 33.5963 68.7935 33.5963C69.5825 33.5589 70.7097 33.4841 72.1374 33.297Z" fill="#241E46"/>
<path d="M77.3594 6.32275H82.7321V37.8239H77.3594V6.32275Z" fill="#241E46"/>
<path d="M111.248 26.5625H92.5753C92.9134 28.5828 93.8151 30.1915 95.318 31.3513C96.7833 32.5111 98.6242 33.1097 100.766 33.1097C103.396 33.1097 105.8 32.137 108.055 30.1541L110.609 33.8205C107.754 36.5142 104.41 37.8236 100.616 37.8236C98.0607 37.8236 95.7688 37.2625 93.74 36.1401C91.7111 35.0177 90.0956 33.4464 88.9309 31.4635C87.7662 29.4807 87.165 27.2734 87.165 24.8416C87.165 22.4472 87.7286 20.2399 88.8557 18.2196C89.9829 16.2367 91.5609 14.6654 93.5521 13.5056C95.5434 12.3459 97.7225 11.7847 100.09 11.7847C102.306 11.7847 104.297 12.271 106.026 13.2812C107.792 14.2913 109.144 15.6381 110.159 17.3591C111.173 19.0801 111.661 21.0255 111.661 23.1954C111.661 24.243 111.511 25.3653 111.248 26.5625ZM99.8641 16.2741C98.0982 16.2741 96.5578 16.8353 95.2428 17.9203C93.9278 19.0052 93.0637 20.5017 92.6504 22.3724H106.289C106.251 20.4643 105.612 18.9678 104.373 17.9203C103.133 16.8353 101.63 16.2741 99.8641 16.2741Z" fill="#241E46"/>
<path d="M153.14 32.2492H137.999L135.594 37.8236H129.846L144.649 3.74097H146.49L161.33 37.8236H155.544L153.14 32.2492ZM145.588 13.7675L139.915 27.6474H151.186L145.588 13.7675Z" fill="#241E46"/>
<path d="M178.464 12.8701V17.5092H176.848C174.744 17.5092 172.978 18.2201 171.588 19.4173C170.198 20.6145 169.484 22.3354 169.484 24.5053V37.8241H164.111V12.8701H169.108V16.125C170.01 15.0026 170.724 14.4414 172.001 13.8054C173.279 13.1694 174.443 12.9075 176.284 12.8701C177.036 12.8701 177.787 12.8701 178.464 12.8701Z" fill="#241E46"/>
<path d="M198.001 33.297V37.8239C196.348 38.198 194.845 38.3851 193.567 38.3851C190.674 38.3851 188.42 37.6743 186.767 36.2152C185.151 34.7935 184.325 32.5862 184.325 29.7054V17.509H180.229V12.8699H184.325V6.32275H189.735V12.8699H197.174V17.509H189.735V29.2565C189.735 30.8652 190.148 31.9502 190.975 32.6236C191.801 33.2596 193.041 33.5963 194.657 33.5963C195.446 33.5589 196.573 33.4841 198.001 33.297Z" fill="#241E46"/>
<path d="M28.3285 7.33281C30.362 7.33281 32.0104 5.69131 32.0104 3.66641C32.0104 1.64151 30.362 0 28.3285 0C26.295 0 24.6465 1.64151 24.6465 3.66641C24.6465 5.69131 26.295 7.33281 28.3285 7.33281Z" fill="#FFD500"/>
<path d="M139.915 27.6101L145.588 13.7676L151.186 27.6101H139.915Z" fill="#E30613"/>
<path d="M31.7484 44.6329V46.8028C31.7484 47.1021 31.7859 47.2892 31.8611 47.364C31.9362 47.4388 32.0865 47.5136 32.3119 47.5511C32.4998 47.5511 32.6125 47.5885 32.6501 47.5885C32.7252 47.6259 32.7252 47.6259 32.7252 47.7007C32.7252 47.7755 32.6501 47.8504 32.4998 47.8504C32.4622 47.8504 32.3119 47.8504 32.0865 47.8129C31.8611 47.8129 31.5981 47.7755 31.3727 47.7755C31.1472 47.7755 30.9218 47.7755 30.6964 47.8129C30.5085 47.8129 30.3958 47.8504 30.3582 47.8504C30.2831 47.8504 30.208 47.8504 30.208 47.8129C30.1704 47.8129 30.1704 47.7381 30.1704 47.7007C30.1704 47.6633 30.1704 47.6259 30.208 47.5885C30.2455 47.5511 30.3207 47.5511 30.3958 47.5511C30.6588 47.5136 30.8091 47.4762 30.8467 47.4014C30.8842 47.3266 30.9218 47.1769 30.9218 46.9151V41.9018C30.9218 41.6773 30.8842 41.5277 30.8467 41.4529C30.8091 41.378 30.6964 41.3032 30.5461 41.3032C30.3207 41.2658 30.1704 41.2284 30.1704 41.2284C30.1328 41.2284 30.1328 41.191 30.1328 41.1161C30.1328 41.0413 30.208 41.0039 30.3582 41.0039C30.471 41.0039 30.6964 41.0039 31.0345 41.0413C31.3727 41.0413 31.6357 41.0787 31.8235 41.0787C32.0865 41.0787 32.4247 41.0787 32.8755 41.0413C33.3264 41.0413 33.6645 41.0039 33.9275 41.0039C34.0778 41.0039 34.1905 41.0413 34.1905 41.0787C34.2281 41.1161 34.2281 41.3032 34.2281 41.5651C34.2281 41.6773 34.2281 41.7896 34.2281 41.9392C34.2281 42.0889 34.2281 42.2011 34.2281 42.2759C34.2281 42.3508 34.2281 42.4256 34.2281 42.463C34.2281 42.5752 34.1905 42.65 34.1905 42.6875C34.1905 42.7249 34.1529 42.7249 34.1154 42.7249C34.0778 42.7249 34.0402 42.6875 34.0026 42.65C33.9651 42.6126 33.9651 42.5004 33.9275 42.3882C33.8899 42.2385 33.8524 42.1263 33.7772 42.014C33.6645 41.7522 33.4766 41.5651 33.2512 41.4529C33.0258 41.3406 32.6877 41.3032 32.2744 41.3032C32.0114 41.3032 31.8235 41.3406 31.7484 41.378C31.6732 41.4154 31.6357 41.4903 31.6357 41.6399V43.9221C31.6357 44.0343 31.6732 44.1091 31.7108 44.1091C31.7484 44.1465 31.8987 44.1465 32.0865 44.1465C32.4622 44.1465 32.7252 44.1091 32.8755 44.0343C33.0258 43.9595 33.1385 43.8472 33.1761 43.6228C33.1761 43.5854 33.2136 43.5479 33.2136 43.5105C33.2136 43.4731 33.2512 43.4357 33.2512 43.4357C33.2512 43.3983 33.2512 43.3983 33.2888 43.3609C33.2888 43.3235 33.2888 43.3235 33.2888 43.2861V43.2486C33.2888 43.2486 33.2888 43.2112 33.3264 43.2112C33.3264 43.2112 33.3264 43.2112 33.3639 43.1738C33.3639 43.1738 33.3639 43.1738 33.4015 43.1738H33.4391C33.4766 43.1738 33.5142 43.1738 33.5142 43.2112C33.5142 43.2486 33.5142 43.2861 33.5142 43.3983C33.5142 43.4731 33.5142 43.5854 33.4766 43.7724C33.4766 43.9595 33.4391 44.1091 33.4391 44.2588C33.4391 44.371 33.4391 44.5207 33.4766 44.7825C33.4766 45.007 33.5142 45.1941 33.5142 45.3063C33.5142 45.4186 33.4766 45.456 33.4015 45.456C33.3639 45.456 33.3264 45.4186 33.3264 45.3811C33.3264 45.3437 33.2888 45.2315 33.2512 45.0818C33.1761 44.82 33.0634 44.6329 32.9506 44.5581C32.8004 44.4833 32.5749 44.4084 32.1992 44.4084C31.9738 44.4084 31.8235 44.4084 31.7484 44.4458C31.7859 44.4458 31.7484 44.5207 31.7484 44.6329Z" fill="#0BBBEF"/>
<path d="M38.1729 44.4457C38.1729 43.7723 38.3231 43.1737 38.5861 42.6499C38.8867 42.0887 39.2624 41.6772 39.7133 41.3779C40.1641 41.0786 40.6901 40.929 41.2161 40.929C41.7421 40.929 42.2681 41.0786 42.719 41.3779C43.1698 41.6772 43.5455 42.0887 43.8461 42.6499C44.1467 43.2111 44.2594 43.8097 44.2594 44.4831C44.2594 45.1565 44.1091 45.7551 43.8461 46.3163C43.5455 46.8775 43.1698 47.289 42.719 47.5883C42.2681 47.8876 41.7421 48.0373 41.2161 48.0373C40.6901 48.0373 40.2017 47.8876 39.7133 47.5883C39.2624 47.289 38.8491 46.8401 38.5861 46.3163C38.3231 45.6803 38.1729 45.0817 38.1729 44.4457ZM43.2825 44.4457C43.2825 43.8471 43.2074 43.3608 43.0947 42.9118C42.982 42.4629 42.7941 42.1261 42.6062 41.9017C42.4184 41.6398 42.193 41.4901 41.9675 41.3405C41.7421 41.2283 41.5167 41.1534 41.2537 41.1534C41.0658 41.1534 40.8404 41.1908 40.6525 41.2657C40.4647 41.3405 40.2768 41.4527 40.089 41.6398C39.9011 41.7894 39.7508 42.0139 39.6381 42.2758C39.4878 42.5377 39.4127 42.837 39.3376 43.2111C39.2624 43.5852 39.2248 43.9968 39.2248 44.4831C39.2248 44.9321 39.2624 45.381 39.3376 45.7551C39.4127 46.1293 39.5254 46.4286 39.6757 46.6905C39.826 46.9523 39.9763 47.1394 40.1266 47.3265C40.3144 47.4761 40.5023 47.6258 40.6901 47.7006C40.878 47.7754 41.0658 47.8128 41.2913 47.8128C41.4791 47.8128 41.667 47.7754 41.8548 47.7006C42.0427 47.6258 42.2305 47.5135 42.3808 47.3639C42.5687 47.2142 42.719 46.9898 42.8692 46.7279C43.0195 46.466 43.1322 46.1667 43.2074 45.7926C43.245 45.3436 43.2825 44.8947 43.2825 44.4457Z" fill="#0BBBEF"/>
<path d="M49.6327 44.82V46.9525C49.6327 47.1395 49.6702 47.2892 49.7078 47.4014C49.7454 47.5136 49.8581 47.5511 50.046 47.5511C50.2714 47.5885 50.4217 47.6259 50.4592 47.6633C50.4968 47.7007 50.4968 47.7007 50.4968 47.7381C50.4968 47.8129 50.4217 47.8504 50.309 47.8504C50.309 47.8504 50.1962 47.8504 49.9708 47.8129C49.783 47.8129 49.5575 47.7755 49.2945 47.7755C49.0315 47.7755 48.8061 47.7755 48.6183 47.8129C48.4304 47.8129 48.3177 47.8504 48.2801 47.8504C48.205 47.8504 48.1298 47.8504 48.0923 47.8129C48.0547 47.8129 48.0547 47.7755 48.0547 47.7381C48.0547 47.7007 48.0923 47.6633 48.1298 47.6259C48.1674 47.6259 48.2425 47.5885 48.3928 47.5885C48.468 47.5885 48.5055 47.5885 48.5431 47.5511C48.6934 47.5136 48.8061 47.4762 48.8437 47.4014C48.8813 47.3266 48.9188 47.1769 48.9188 46.9151V41.9392C48.9188 41.7147 48.8813 41.5277 48.8437 41.4529C48.8061 41.378 48.6934 41.3032 48.5431 41.3032C48.5055 41.3032 48.468 41.3032 48.3928 41.3032C48.3553 41.3032 48.2801 41.3032 48.2801 41.3032C48.2425 41.3032 48.205 41.3032 48.1674 41.2658C48.1298 41.2658 48.0923 41.2284 48.0923 41.2284C48.0923 41.2284 48.0547 41.191 48.0547 41.1536C48.0547 41.0413 48.1298 41.0039 48.2801 41.0039C48.3553 41.0039 48.5055 41.0039 48.6934 41.0413C48.8813 41.0413 49.0315 41.0787 49.1067 41.0787C49.257 41.0787 49.52 41.0787 49.8205 41.0413C50.1211 41.0413 50.3465 41.0039 50.4968 41.0039C51.0979 41.0039 51.6239 41.1536 51.9997 41.4903C52.3754 41.7896 52.5632 42.2011 52.5632 42.6875C52.5632 43.3609 52.2251 43.8472 51.5864 44.1465C51.4737 44.184 51.3609 44.2214 51.2858 44.2588C51.1731 44.2962 51.0979 44.2962 51.0604 44.2962C51.0228 44.2962 50.9852 44.3336 50.9852 44.3336C50.9852 44.3336 51.0228 44.371 51.0604 44.371C51.0979 44.4084 51.1355 44.4458 51.2107 44.4833C51.2482 44.5207 51.2858 44.5955 51.3609 44.6703C51.5112 45.007 51.7367 45.4186 51.9245 45.9049C52.1499 46.3913 52.3002 46.728 52.3754 46.8776C52.4881 47.0647 52.5632 47.2144 52.6384 47.3266C52.7135 47.4388 52.7887 47.4762 52.9014 47.4762C52.9389 47.4762 52.9765 47.4762 53.0141 47.4762C53.0516 47.4762 53.1268 47.4762 53.1268 47.4762C53.1644 47.4762 53.2019 47.4762 53.2395 47.5136C53.2771 47.5511 53.3146 47.5511 53.3146 47.5511C53.3146 47.5511 53.3522 47.5885 53.3522 47.6259C53.3522 47.7007 53.2771 47.7381 53.1644 47.7381C53.1268 47.7381 53.0516 47.7381 52.9389 47.7007C52.8262 47.7007 52.7135 47.6633 52.6384 47.6633C52.5632 47.6633 52.4881 47.6633 52.3378 47.7007C52.1875 47.7007 52.1124 47.7381 52.0748 47.7381C51.9997 47.7381 51.9621 47.7007 51.9245 47.6633C51.8869 47.5885 51.8118 47.4762 51.7367 47.2518C51.6615 47.1021 51.5488 46.7654 51.3234 46.3165C51.1355 45.8301 50.9477 45.4186 50.7974 45.0444C50.6847 44.82 50.572 44.6329 50.4968 44.5581C50.4217 44.4833 50.2338 44.4458 50.0084 44.4458C49.8581 44.4458 49.7454 44.4458 49.7078 44.4833C49.6702 44.6329 49.6327 44.7077 49.6327 44.82ZM49.6327 41.827V44.1465C49.6327 44.2214 49.6702 44.2588 49.7078 44.2962C49.7454 44.3336 49.8581 44.3336 50.046 44.3336C50.2714 44.3336 50.4968 44.2962 50.6847 44.2588C50.8725 44.2214 51.0604 44.1091 51.2482 43.9969C51.4361 43.8847 51.5488 43.735 51.6615 43.5105C51.7742 43.2861 51.8118 43.0616 51.8118 42.7997C51.8118 42.3133 51.6991 41.9392 51.4361 41.6773C51.1731 41.4154 50.835 41.3032 50.3465 41.3032C50.046 41.3032 49.8205 41.3406 49.7454 41.4154C49.6702 41.4529 49.6327 41.6025 49.6327 41.827Z" fill="#0BBBEF"/>
<path d="M63.1576 46.9899V42.0889C63.1576 41.7896 63.12 41.5651 63.0825 41.4903C63.0449 41.4154 62.9322 41.3406 62.7819 41.3406C62.5565 41.3406 62.4062 41.3032 62.3686 41.2658C62.3311 41.2284 62.3311 41.2284 62.3311 41.1536C62.3311 41.0787 62.4062 41.0039 62.5565 41.0039C62.6316 41.0039 62.7443 41.0039 62.9698 41.0413C63.1952 41.0413 63.4206 41.0787 63.6085 41.0787C63.7963 41.0787 64.0218 41.0787 64.2096 41.0413C64.3975 41.0413 64.5102 41.0039 64.5478 41.0039C64.6605 41.0039 64.7356 41.0413 64.7356 41.1161C64.7356 41.1536 64.7356 41.1536 64.7356 41.191C64.7356 41.191 64.698 41.2284 64.6605 41.2284C64.6229 41.2284 64.5853 41.2284 64.5853 41.2658C64.5478 41.2658 64.5102 41.2658 64.4726 41.3032C64.435 41.3406 64.3599 41.3032 64.3223 41.3406C64.1345 41.378 64.0218 41.4154 63.9842 41.4903C63.9466 41.5651 63.909 41.6773 63.909 41.9018V46.7654C63.909 47.0647 63.9466 47.2892 64.0593 47.4388C64.172 47.5885 64.3599 47.6259 64.698 47.6259C65.4495 47.6259 65.9379 47.2518 66.2009 46.4661C66.276 46.2416 66.3136 46.092 66.3136 46.092C66.3512 46.0546 66.3512 46.0546 66.3887 46.0546C66.4263 46.0546 66.4639 46.0546 66.4639 46.092C66.4639 46.1294 66.4639 46.2042 66.4639 46.3539C66.4639 46.4661 66.4639 46.5783 66.4639 46.728C66.4639 46.8402 66.4639 46.9899 66.4639 47.1395C66.4639 47.2892 66.4639 47.4014 66.4639 47.5136C66.4639 47.6633 66.4639 47.7755 66.4263 47.8129C66.3887 47.8504 66.3512 47.8878 66.276 47.8878C66.1633 47.8878 65.9003 47.8878 65.4495 47.8504C64.9986 47.8504 64.4726 47.8129 63.8715 47.8129C63.5709 47.8129 63.2703 47.8129 63.0073 47.8504C62.7443 47.8504 62.5941 47.8878 62.5565 47.8878C62.4062 47.8878 62.3311 47.8504 62.3311 47.7755C62.3311 47.7381 62.3686 47.7007 62.4062 47.6633C62.4438 47.6259 62.5565 47.6259 62.6692 47.5885C62.8571 47.5885 62.9698 47.5511 63.0449 47.4388C63.1201 47.3266 63.1576 47.2143 63.1576 46.9899Z" fill="#0BBBEF"/>
<path d="M71.6112 41.7895V46.9524C71.6112 47.1769 71.6488 47.3265 71.6863 47.4014C71.7239 47.4762 71.8366 47.551 72.0245 47.5884C72.0245 47.5884 72.062 47.5884 72.0996 47.5884C72.1372 47.5884 72.1748 47.5884 72.1748 47.5884C72.1748 47.5884 72.2123 47.5884 72.2499 47.5884C72.2875 47.5884 72.2875 47.5884 72.325 47.6258C72.325 47.6258 72.3626 47.6258 72.3626 47.6632L72.4002 47.7007V47.7381C72.4002 47.8129 72.325 47.8503 72.1748 47.8503C72.1748 47.8503 72.062 47.8503 71.9118 47.8129C71.7239 47.8129 71.4985 47.7755 71.2355 47.7755C70.9725 47.7755 70.7471 47.7755 70.5592 47.8129C70.3713 47.8129 70.2962 47.8503 70.2962 47.8503C70.2211 47.8503 70.1835 47.8503 70.1835 47.8503C70.1459 47.8503 70.1459 47.8503 70.1083 47.8129C70.0708 47.7755 70.0708 47.7755 70.0708 47.7381V47.7007V47.6632C70.0708 47.6632 70.0708 47.6632 70.1083 47.6258C70.1083 47.6258 70.1459 47.6258 70.1459 47.5884H70.1835H70.2211C70.2586 47.5884 70.2586 47.5884 70.2586 47.5884C70.2586 47.5884 70.2962 47.5884 70.3338 47.5884C70.3713 47.5884 70.3713 47.5884 70.4089 47.5884C70.5968 47.551 70.7095 47.5136 70.7846 47.4388C70.8222 47.3639 70.8598 47.2143 70.8598 46.9898V41.7895C70.8598 41.6024 70.8222 41.4902 70.7846 41.4154C70.7471 41.3406 70.6343 41.3406 70.4841 41.3031C70.4465 41.3031 70.4089 41.3031 70.3713 41.3031C70.3338 41.3031 70.2962 41.3031 70.2586 41.3031C70.2211 41.3031 70.2211 41.3031 70.1835 41.3031C70.1459 41.3031 70.1459 41.3031 70.1083 41.3031C70.1083 41.3031 70.0708 41.3031 70.0708 41.2657L70.0332 41.2283V41.1909C70.0332 41.1161 70.1083 41.0413 70.2586 41.0413C70.3713 41.0413 70.5216 41.0413 70.7095 41.0787C70.9349 41.0787 71.0852 41.1161 71.1979 41.1161C71.3106 41.1161 71.4985 41.1161 71.7239 41.0787C71.9493 41.0787 72.0996 41.0413 72.1748 41.0413C72.325 41.0413 72.4002 41.0787 72.4002 41.1909C72.4002 41.2283 72.4002 41.2283 72.4002 41.2283C72.4002 41.2283 72.4002 41.2657 72.3626 41.2657C72.325 41.2657 72.325 41.2657 72.325 41.3031C72.325 41.3031 72.2875 41.3031 72.2499 41.3031C72.2123 41.3031 72.1748 41.3031 72.1748 41.3031C72.1748 41.3031 72.0996 41.3031 72.062 41.3031C72.0245 41.3031 71.9869 41.3031 71.9493 41.3031C71.799 41.3031 71.6863 41.378 71.6488 41.4154C71.6488 41.5276 71.6112 41.6399 71.6112 41.7895Z" fill="#0BBBEF"/>
<path d="M78.1865 46.9524V41.5276C78.1865 41.4528 78.1489 41.378 78.1113 41.378C78.0738 41.3405 77.9235 41.3405 77.6981 41.3405C77.3975 41.3405 77.1721 41.4154 76.9842 41.565C76.7963 41.7147 76.6461 41.9391 76.5333 42.2384C76.4958 42.3133 76.4582 42.3881 76.4206 42.5003C76.3831 42.6126 76.3455 42.6874 76.3079 42.7622C76.2704 42.837 76.2328 42.837 76.1952 42.837C76.1576 42.837 76.1201 42.837 76.0825 42.7996C76.0825 42.7622 76.0449 42.7248 76.0449 42.6126C76.0449 42.6126 76.0449 42.5751 76.0449 42.5003C76.0449 42.4255 76.0449 42.3881 76.0825 42.3507C76.1576 41.8643 76.1952 41.4528 76.2704 41.1161C76.3455 40.8542 76.3831 40.7419 76.4582 40.7419C76.5333 40.7419 76.5709 40.7794 76.6085 40.8916C76.6085 40.8916 76.6085 40.8916 76.6085 40.929V40.9664C76.6085 40.9664 76.6085 40.9664 76.6085 41.0038C76.6085 41.0412 76.6085 41.0412 76.6085 41.0412C76.6085 41.0412 76.6085 41.0412 76.6461 41.0787C76.6836 41.1161 76.6461 41.0787 76.6836 41.1161C76.6836 41.1161 76.6836 41.1161 76.7212 41.1161H76.7588H76.7963H76.8339H80.1778C80.4407 41.1161 80.591 41.0412 80.6286 40.929V40.8916C80.6286 40.8916 80.6286 40.8542 80.6662 40.8542C80.6662 40.8542 80.6662 40.8542 80.7038 40.8168L80.7413 40.7794H80.7789H80.8165C80.854 40.7794 80.8916 40.8168 80.9292 40.8542C80.9667 40.8916 80.9667 40.9664 80.9667 41.0787C80.9667 41.1161 80.9667 41.1909 80.9667 41.2657C80.9667 41.3405 80.9667 41.4154 80.9667 41.4528C80.9667 41.7895 80.9292 42.1636 80.8916 42.5003C80.8916 42.7248 80.8165 42.8744 80.7413 42.8744C80.7037 42.8744 80.7037 42.8744 80.6662 42.837C80.6662 42.837 80.6286 42.7996 80.6286 42.7622C80.6286 42.7248 80.591 42.6874 80.591 42.65C80.591 42.6126 80.5535 42.5751 80.5535 42.5003C80.5535 42.4255 80.5159 42.3881 80.5159 42.3507C80.4783 42.201 80.4408 42.0888 80.4032 41.9765C80.3656 41.9017 80.328 41.7895 80.2529 41.6773C80.1778 41.565 80.1026 41.4902 79.9899 41.4528C79.8772 41.4154 79.7269 41.378 79.5766 41.378H79.1633C79.0506 41.378 78.9755 41.378 78.9379 41.4154C78.9003 41.4528 78.9003 41.4902 78.9003 41.6024V47.0272C78.9003 47.2517 78.9379 47.4013 78.9755 47.4762C79.013 47.551 79.1258 47.6258 79.2385 47.6258C79.276 47.6258 79.3136 47.6258 79.3888 47.6632C79.4639 47.6632 79.5015 47.6632 79.539 47.6632C79.5766 47.6632 79.6142 47.6632 79.6518 47.7006C79.6893 47.738 79.7269 47.738 79.7269 47.738C79.7269 47.738 79.7645 47.7755 79.7645 47.8129C79.7645 47.8877 79.7645 47.8877 79.7269 47.9251C79.6893 47.9251 79.6142 47.9625 79.539 47.9625C79.5015 47.9625 79.3888 47.9625 79.2009 47.9251C79.013 47.9251 78.7876 47.8877 78.5622 47.8877C78.2992 47.8877 78.0738 47.8877 77.8859 47.9251C77.6981 47.9251 77.5853 47.9625 77.5478 47.9625C77.3975 47.9625 77.3223 47.9251 77.3223 47.8503C77.3223 47.8129 77.3599 47.7755 77.3975 47.738C77.4351 47.7006 77.5478 47.7006 77.7356 47.7006C77.9235 47.7006 77.9986 47.6258 78.0738 47.551C78.1865 47.3639 78.1865 47.1769 78.1865 46.9524Z" fill="#0BBBEF"/>
<path d="M86.6025 46.9524V41.5276C86.6025 41.4528 86.5649 41.378 86.5274 41.378C86.4898 41.3405 86.3395 41.3405 86.1141 41.3405C85.8135 41.3405 85.5881 41.4154 85.4002 41.565C85.2124 41.7147 85.0621 41.9391 84.9494 42.2384C84.9118 42.3133 84.8742 42.3881 84.8366 42.5003C84.7991 42.6126 84.7615 42.6874 84.7239 42.7622C84.6864 42.837 84.6488 42.837 84.6112 42.837C84.5736 42.837 84.5361 42.837 84.4985 42.7996C84.4985 42.7622 84.4609 42.7248 84.4609 42.6126C84.4609 42.6126 84.4609 42.5751 84.4609 42.5003C84.4609 42.4255 84.4609 42.3881 84.4985 42.3507C84.5736 41.8643 84.6112 41.4528 84.6864 41.1161C84.7615 40.8542 84.7991 40.7419 84.8742 40.7419C84.9494 40.7419 84.9869 40.7794 85.0245 40.8916C85.0245 40.8916 85.0245 40.8916 85.0245 40.929V40.9664C85.0245 40.9664 85.0245 40.9664 85.0245 41.0038C85.0245 41.0412 85.0245 41.0412 85.0245 41.0412C85.0245 41.0412 85.0245 41.0412 85.0621 41.0787C85.0996 41.1161 85.0621 41.0787 85.0996 41.1161C85.0996 41.1161 85.0996 41.1161 85.1372 41.1161H85.1748H85.2124H85.2499H88.5938C88.8568 41.1161 89.007 41.0412 89.0446 40.929V40.8916C89.0446 40.8916 89.0446 40.8542 89.0822 40.8542C89.0822 40.8542 89.0822 40.8542 89.1198 40.8168L89.1573 40.7794H89.1949H89.2325C89.27 40.7794 89.3076 40.8168 89.3452 40.8542C89.3828 40.8916 89.3828 40.9664 89.3828 41.0787C89.3828 41.1161 89.3828 41.1909 89.3828 41.2657C89.3828 41.3405 89.3828 41.4154 89.3828 41.4528C89.3828 41.7895 89.3452 42.1636 89.3076 42.5003C89.3076 42.7248 89.2325 42.8744 89.1573 42.8744C89.1198 42.8744 89.1198 42.8744 89.0822 42.837C89.0822 42.837 89.0446 42.7996 89.0446 42.7622C89.0446 42.7248 89.007 42.6874 89.007 42.65C89.007 42.6126 88.9695 42.5751 88.9695 42.5003C88.9695 42.4255 88.9319 42.3881 88.9319 42.3507C88.8943 42.201 88.8568 42.0888 88.8192 41.9765C88.7816 41.9017 88.744 41.7895 88.6689 41.6773C88.5938 41.565 88.5186 41.4902 88.4059 41.4528C88.2932 41.4154 88.1429 41.378 87.9926 41.378H87.5793C87.4666 41.378 87.3915 41.378 87.3539 41.4154C87.3163 41.4528 87.3163 41.4902 87.3163 41.6024V47.0272C87.3163 47.2517 87.3539 47.4013 87.3915 47.4762C87.4291 47.551 87.5418 47.6258 87.6545 47.6258C87.6921 47.6258 87.7296 47.6258 87.8048 47.6632C87.8799 47.6632 87.9175 47.6632 87.9551 47.6632C87.9926 47.6632 88.0302 47.6632 88.0678 47.7006C88.1053 47.738 88.1429 47.738 88.1429 47.738C88.1429 47.738 88.1805 47.7755 88.1805 47.8129C88.1805 47.8877 88.1805 47.8877 88.1429 47.9251C88.1053 47.9251 88.0302 47.9625 87.9551 47.9625C87.9175 47.9625 87.8048 47.9625 87.6169 47.9251C87.4291 47.9251 87.2036 47.8877 86.9782 47.8877C86.7152 47.8877 86.4898 47.8877 86.3019 47.9251C86.1141 47.9251 86.0014 47.9625 85.9638 47.9625C85.8135 47.9625 85.7384 47.9251 85.7384 47.8503C85.7384 47.8129 85.7759 47.7755 85.8135 47.738C85.8511 47.7006 85.9638 47.7006 86.1516 47.7006C86.3395 47.7006 86.4146 47.6258 86.4898 47.551C86.6025 47.3639 86.6025 47.1769 86.6025 46.9524Z" fill="#0BBBEF"/>
<path d="M93.8529 46.9899V42.0889C93.8529 41.7896 93.8154 41.5651 93.7778 41.4903C93.7402 41.4154 93.6275 41.3406 93.4772 41.3406C93.2518 41.3406 93.1015 41.3032 93.0639 41.2658C93.0264 41.2284 93.0264 41.2284 93.0264 41.1536C93.0264 41.0787 93.1015 41.0039 93.2518 41.0039C93.3269 41.0039 93.4396 41.0039 93.6651 41.0413C93.8905 41.0413 94.1159 41.0787 94.3038 41.0787C94.4916 41.0787 94.7171 41.0787 94.9049 41.0413C95.0928 41.0413 95.2055 41.0039 95.2431 41.0039C95.3558 41.0039 95.4309 41.0413 95.4309 41.1161C95.4309 41.1536 95.4309 41.1536 95.4309 41.191C95.4309 41.191 95.3934 41.2284 95.3558 41.2284C95.3182 41.2284 95.2806 41.2284 95.2806 41.2658C95.2431 41.2658 95.2055 41.2658 95.1679 41.3032C95.1304 41.3406 95.0552 41.3032 95.0176 41.3406C94.8298 41.378 94.7171 41.4154 94.6795 41.4903C94.6419 41.5651 94.6044 41.6773 94.6044 41.9018V46.7654C94.6044 47.0647 94.6419 47.2892 94.7546 47.4388C94.8674 47.5885 95.0552 47.6259 95.3933 47.6259C96.1448 47.6259 96.6332 47.2518 96.8962 46.4661C96.9713 46.2416 97.0089 46.092 97.0089 46.092C97.0465 46.0546 97.0465 46.0546 97.0841 46.0546C97.1216 46.0546 97.1592 46.0546 97.1592 46.092C97.1592 46.1294 97.1592 46.2042 97.1592 46.3539C97.1592 46.4661 97.1592 46.5783 97.1592 46.728C97.1592 46.8402 97.1592 46.9899 97.1592 47.1395C97.1592 47.2892 97.1592 47.4014 97.1592 47.5136C97.1592 47.6633 97.1592 47.7755 97.1216 47.8129C97.0841 47.8504 97.0465 47.8878 96.9713 47.8878C96.8586 47.8878 96.5956 47.8878 96.1448 47.8504C95.6939 47.8504 95.1679 47.8129 94.5668 47.8129C94.2662 47.8129 93.9656 47.8129 93.7026 47.8504C93.4396 47.8504 93.2894 47.8878 93.2518 47.8878C93.1015 47.8878 93.0264 47.8504 93.0264 47.7755C93.0264 47.7381 93.0639 47.7007 93.1015 47.6633C93.1391 47.6259 93.2518 47.6259 93.3645 47.5885C93.5524 47.5885 93.6651 47.5511 93.7402 47.4388C93.8154 47.3266 93.8529 47.2143 93.8529 46.9899Z" fill="#0BBBEF"/>
<path d="M101.593 46.9149V41.752C101.593 41.5649 101.593 41.4527 101.556 41.4153C101.518 41.3404 101.443 41.303 101.33 41.303C101.293 41.303 101.255 41.303 101.18 41.2656C101.142 41.2656 101.105 41.2656 101.067 41.2656C101.03 41.2656 101.03 41.2656 100.992 41.2282C100.955 41.1908 100.955 41.1908 100.917 41.1908C100.917 41.1908 100.917 41.1534 100.917 41.116C100.917 41.0411 100.992 40.9663 101.18 40.9663C101.255 40.9663 101.481 40.9663 101.856 41.0037C102.232 41.0037 102.608 41.0411 102.908 41.0411C103.322 41.0411 103.735 41.0411 104.148 41.0037C104.561 41.0037 104.824 40.9663 104.9 40.9663C105.012 40.9663 105.087 41.0037 105.087 41.0411C105.125 41.0785 105.125 41.2282 105.125 41.4153C105.125 41.6023 105.125 41.8268 105.125 42.0139C105.125 42.2383 105.125 42.3506 105.125 42.4254C105.125 42.5376 105.125 42.575 105.087 42.6125C105.05 42.6499 105.05 42.6499 104.975 42.6499C104.937 42.6499 104.862 42.575 104.824 42.4628C104.787 42.388 104.749 42.3132 104.712 42.1635C104.561 41.7894 104.374 41.5649 104.148 41.4153C103.923 41.2656 103.547 41.1908 103.096 41.1908C102.796 41.1908 102.608 41.1908 102.495 41.2282C102.382 41.2656 102.345 41.3404 102.345 41.4901V43.6974C102.345 43.8096 102.382 43.8845 102.42 43.9219C102.457 43.9593 102.608 43.9593 102.871 43.9593C103.246 43.9593 103.547 43.9219 103.66 43.8845C103.81 43.8096 103.923 43.6974 103.96 43.4729C103.96 43.4355 103.998 43.3981 103.998 43.3233C103.998 43.2859 104.035 43.2485 104.035 43.211C104.035 43.1736 104.035 43.1736 104.073 43.1362C104.111 43.0988 104.073 43.0988 104.111 43.0614C104.111 43.0614 104.111 43.024 104.148 43.024L104.186 42.9866H104.223C104.298 42.9866 104.336 43.0614 104.336 43.1736C104.336 43.2859 104.336 43.4355 104.298 43.6226C104.298 43.8096 104.261 43.9593 104.261 44.0715C104.261 44.1838 104.261 44.3334 104.298 44.5953C104.298 44.8198 104.336 45.0068 104.336 45.1191C104.336 45.2313 104.298 45.2687 104.223 45.2687C104.186 45.2687 104.148 45.2313 104.148 45.1939C104.148 45.1565 104.111 45.0443 104.073 44.8946C103.998 44.6327 103.885 44.4457 103.772 44.3708C103.622 44.296 103.397 44.2212 103.021 44.2212C102.833 44.2212 102.683 44.2212 102.608 44.2586C102.533 44.2586 102.457 44.296 102.457 44.3334C102.42 44.3708 102.42 44.4082 102.42 44.4831V46.7278C102.42 47.0271 102.495 47.2142 102.645 47.3264C102.796 47.4386 103.059 47.5135 103.434 47.5135C103.772 47.5135 104.035 47.476 104.261 47.4012C104.449 47.3264 104.637 47.1768 104.749 47.0271C104.862 46.84 104.975 46.6156 105.087 46.2789C105.125 46.1292 105.163 46.017 105.2 45.9796C105.238 45.9421 105.275 45.9047 105.313 45.9047C105.35 45.9047 105.35 45.9047 105.388 45.9421C105.388 45.9421 105.426 45.9796 105.426 46.017C105.426 46.0918 105.426 46.3537 105.426 46.8775C105.426 46.9897 105.426 47.1768 105.388 47.5135C105.388 47.5883 105.388 47.6257 105.388 47.6631C105.388 47.7005 105.35 47.7379 105.313 47.7379C105.275 47.7379 105.238 47.7753 105.238 47.7753C105.2 47.7753 105.163 47.7753 105.125 47.7753C104.862 47.7753 104.449 47.7753 103.885 47.7379C103.735 47.7379 103.547 47.7379 103.284 47.7379C103.021 47.7379 102.833 47.7379 102.72 47.7379C102.533 47.7379 102.307 47.7379 102.007 47.7753C101.706 47.7753 101.443 47.8128 101.293 47.8128C101.18 47.8128 101.105 47.8128 101.067 47.7753C101.03 47.7379 100.992 47.7379 100.992 47.6631C100.992 47.6257 101.03 47.5883 101.067 47.5509C101.105 47.5135 101.18 47.5135 101.293 47.4761C101.481 47.4386 101.631 47.4012 101.668 47.3264C101.556 47.3264 101.593 47.1768 101.593 46.9149Z" fill="#0BBBEF"/>
<path d="M117.411 45.4183H116.096C115.983 45.4183 115.946 45.4557 115.908 45.4931C115.871 45.5305 115.795 45.7176 115.758 45.9421C115.72 46.0917 115.683 46.2414 115.645 46.391C115.608 46.5407 115.57 46.6529 115.57 46.7277C115.57 46.8026 115.532 46.8774 115.495 46.9522C115.457 47.027 115.457 47.1019 115.457 47.1393C115.457 47.1767 115.457 47.2141 115.457 47.2515C115.457 47.4386 115.608 47.5134 115.871 47.5508C115.946 47.5508 115.983 47.5508 116.021 47.5508C116.058 47.5508 116.058 47.5508 116.096 47.5882C116.134 47.6256 116.171 47.6256 116.171 47.6256C116.171 47.663 116.209 47.663 116.209 47.7005C116.209 47.7753 116.134 47.8127 116.021 47.8127C115.946 47.8127 115.833 47.8127 115.683 47.7753C115.532 47.7753 115.382 47.7379 115.307 47.7379C115.194 47.7379 115.044 47.7379 114.894 47.7753C114.706 47.7753 114.631 47.8127 114.631 47.8127C114.556 47.8127 114.48 47.7753 114.48 47.7005C114.48 47.6256 114.556 47.5882 114.668 47.5508C114.781 47.5508 114.856 47.5134 114.931 47.476C115.006 47.4386 115.044 47.3263 115.082 47.2141C115.532 45.7924 116.096 43.9218 116.735 41.5274C116.772 41.3778 116.81 41.2655 116.847 41.1533C116.847 41.0785 116.885 41.0411 116.885 41.0037C116.885 40.9662 116.923 40.9288 116.923 40.8914C116.96 40.854 116.998 40.854 117.035 40.854C117.11 40.854 117.148 40.854 117.148 40.8914C117.186 40.9288 117.186 41.0037 117.223 41.0785C118.05 43.8844 118.651 45.8673 118.989 47.027C119.102 47.3637 119.214 47.5134 119.365 47.5508C119.365 47.5508 119.402 47.5508 119.44 47.5508C119.477 47.5508 119.477 47.5508 119.515 47.5508C119.515 47.5508 119.553 47.5508 119.59 47.5508C119.628 47.5508 119.628 47.5508 119.628 47.5882C119.628 47.5882 119.665 47.5882 119.665 47.6256L119.703 47.663V47.7005C119.703 47.7753 119.628 47.7753 119.477 47.7753C119.402 47.7753 119.252 47.7753 119.064 47.7379C118.876 47.7379 118.764 47.7005 118.651 47.7005C118.538 47.7005 118.388 47.7005 118.2 47.7379C118.012 47.7379 117.862 47.7753 117.787 47.7753C117.674 47.7753 117.599 47.7379 117.599 47.663C117.599 47.5508 117.712 47.5134 117.899 47.5134C118.125 47.5134 118.275 47.4386 118.275 47.2515C118.275 47.2141 118.275 47.1393 118.238 47.027C118.2 46.9148 118.162 46.7652 118.087 46.5407C118.012 46.3162 117.937 46.0917 117.899 45.8673C117.824 45.6054 117.749 45.4557 117.712 45.4183C117.674 45.3809 117.524 45.4183 117.411 45.4183ZM116.209 45.119H117.261C117.373 45.119 117.411 45.119 117.449 45.119C117.486 45.119 117.486 45.0816 117.486 45.0442C117.486 45.0068 117.486 44.8945 117.449 44.8197C117.449 44.7823 117.373 44.5204 117.223 44.0715C117.073 43.6225 116.96 43.211 116.847 42.8369C116.81 42.6872 116.772 42.6124 116.697 42.6124C116.66 42.6124 116.622 42.6498 116.622 42.6872C116.622 42.7246 116.584 42.8369 116.547 42.9865C116.472 43.3232 116.359 43.6973 116.246 44.1089C116.134 44.5204 116.058 44.7449 116.058 44.7449C115.983 44.9694 115.983 45.0816 115.983 45.119C115.983 45.1564 115.983 45.1564 116.021 45.1938C116.058 45.119 116.134 45.119 116.209 45.119Z" fill="#0BBBEF"/>
<path d="M124.662 44.82V46.9525C124.662 47.1395 124.7 47.2892 124.737 47.4014C124.775 47.4762 124.887 47.5511 125.075 47.5511C125.301 47.5885 125.451 47.6259 125.489 47.6633C125.526 47.7007 125.526 47.7007 125.526 47.7381C125.526 47.8129 125.451 47.8504 125.338 47.8504C125.338 47.8504 125.226 47.8504 125 47.8129C124.812 47.8129 124.587 47.7755 124.324 47.7755C124.061 47.7755 123.835 47.7755 123.648 47.8129C123.46 47.8129 123.347 47.8504 123.309 47.8504C123.234 47.8504 123.159 47.8504 123.122 47.8129C123.084 47.8129 123.084 47.7755 123.084 47.7381C123.084 47.7007 123.122 47.6633 123.159 47.6259C123.197 47.6259 123.272 47.5885 123.422 47.5885C123.497 47.5885 123.535 47.5885 123.572 47.5511C123.723 47.5136 123.835 47.4762 123.873 47.4014C123.911 47.3266 123.948 47.1769 123.948 46.9151V41.9392C123.948 41.7147 123.911 41.5277 123.873 41.4529C123.835 41.378 123.723 41.3032 123.572 41.3032C123.535 41.3032 123.497 41.3032 123.422 41.3032C123.385 41.3032 123.309 41.3032 123.309 41.3032C123.272 41.3032 123.234 41.3032 123.197 41.2658C123.159 41.2658 123.122 41.2284 123.122 41.2284C123.122 41.2284 123.084 41.191 123.084 41.1536C123.084 41.0413 123.159 41.0039 123.309 41.0039C123.385 41.0039 123.535 41.0039 123.723 41.0413C123.911 41.0413 124.061 41.0787 124.136 41.0787C124.286 41.0787 124.549 41.0787 124.85 41.0413C125.15 41.0413 125.376 41.0039 125.526 41.0039C126.127 41.0039 126.653 41.1536 127.029 41.4903C127.405 41.7896 127.593 42.2011 127.593 42.6875C127.593 43.3609 127.254 43.8472 126.616 44.1465C126.503 44.184 126.39 44.2214 126.315 44.2588C126.202 44.2962 126.127 44.2962 126.09 44.2962C126.052 44.2962 126.015 44.3336 126.015 44.3336C126.015 44.3336 126.052 44.371 126.09 44.371C126.127 44.4084 126.165 44.4458 126.24 44.4833C126.315 44.5207 126.315 44.5955 126.39 44.6703C126.541 45.007 126.766 45.4186 126.954 45.9049C127.179 46.3913 127.33 46.728 127.405 46.8776C127.517 47.0647 127.593 47.2144 127.668 47.3266C127.743 47.4388 127.818 47.4762 127.931 47.4762C127.968 47.4762 128.006 47.4762 128.043 47.4762C128.081 47.4762 128.156 47.4762 128.156 47.4762C128.194 47.4762 128.231 47.4762 128.269 47.5136C128.306 47.5511 128.344 47.5511 128.344 47.5511C128.344 47.5511 128.382 47.5885 128.382 47.6259C128.382 47.7007 128.306 47.7381 128.194 47.7381C128.156 47.7381 128.081 47.7381 127.968 47.7007C127.856 47.7007 127.743 47.6633 127.668 47.6633C127.593 47.6633 127.517 47.6633 127.367 47.7007C127.217 47.7007 127.142 47.7381 127.104 47.7381C127.029 47.7381 126.991 47.7007 126.954 47.6633C126.916 47.5885 126.841 47.4762 126.766 47.2518C126.691 47.1021 126.578 46.7654 126.353 46.3165C126.165 45.8301 125.977 45.4186 125.827 45.0444C125.714 44.82 125.601 44.6329 125.526 44.5581C125.451 44.4833 125.263 44.4458 125.038 44.4458C124.887 44.4458 124.775 44.4458 124.737 44.4833C124.662 44.6329 124.662 44.7077 124.662 44.82ZM124.662 41.827V44.1465C124.662 44.2214 124.7 44.2588 124.737 44.2962C124.775 44.3336 124.887 44.3336 125.075 44.3336C125.301 44.3336 125.526 44.2962 125.714 44.2588C125.902 44.184 126.09 44.1091 126.278 43.9969C126.465 43.8847 126.578 43.735 126.691 43.5105C126.804 43.2861 126.841 43.0616 126.841 42.7997C126.841 42.3133 126.728 41.9392 126.465 41.6773C126.202 41.4154 125.864 41.3032 125.376 41.3032C125.075 41.3032 124.85 41.3406 124.775 41.4154C124.7 41.4529 124.662 41.6025 124.662 41.827Z" fill="#0BBBEF"/>
<path d="M133.603 46.9524V41.5276C133.603 41.4528 133.566 41.378 133.528 41.378C133.491 41.378 133.34 41.3405 133.115 41.3405C132.814 41.3405 132.589 41.4154 132.401 41.565C132.213 41.7147 132.063 41.9391 131.95 42.2384C131.913 42.3133 131.875 42.3881 131.838 42.5003C131.8 42.6126 131.762 42.6874 131.725 42.7622C131.687 42.837 131.65 42.837 131.612 42.837C131.575 42.837 131.537 42.837 131.499 42.7996C131.499 42.7622 131.462 42.7248 131.462 42.6126C131.462 42.6126 131.462 42.5751 131.462 42.5003C131.462 42.4255 131.462 42.3881 131.499 42.3507C131.575 41.8643 131.612 41.4528 131.687 41.1161C131.762 40.8542 131.8 40.7419 131.875 40.7419C131.95 40.7419 131.988 40.7794 132.025 40.8916C132.025 40.8916 132.025 40.8916 132.025 40.929V40.9664C132.025 40.9664 132.025 40.9664 132.025 41.0038C132.025 41.0412 132.025 41.0412 132.025 41.0412C132.025 41.0412 132.025 41.0412 132.063 41.0787C132.101 41.1161 132.063 41.0787 132.101 41.1161C132.101 41.1161 132.101 41.1161 132.138 41.1161H132.176H132.213H132.251H135.595C135.858 41.1161 136.008 41.0412 136.046 40.929V40.8916C136.046 40.8916 136.046 40.8542 136.083 40.8542C136.083 40.8542 136.083 40.8542 136.121 40.8168L136.158 40.7794H136.196H136.233C136.271 40.7794 136.309 40.8168 136.346 40.8542C136.384 40.8916 136.384 40.9664 136.384 41.0787C136.384 41.1161 136.384 41.1909 136.384 41.2657C136.384 41.3405 136.384 41.4154 136.384 41.4528C136.384 41.7895 136.346 42.1636 136.309 42.5003C136.309 42.7248 136.233 42.8744 136.158 42.8744C136.121 42.8744 136.121 42.8744 136.083 42.837C136.083 42.837 136.046 42.7996 136.046 42.7622C136.046 42.7248 136.008 42.6874 136.008 42.65C136.008 42.6126 135.97 42.5751 135.97 42.5003C135.97 42.4255 135.933 42.3881 135.933 42.3507C135.895 42.201 135.858 42.0888 135.82 41.9765C135.783 41.9017 135.745 41.7895 135.67 41.6773C135.595 41.565 135.52 41.4902 135.407 41.4528C135.294 41.4154 135.144 41.378 134.994 41.378H134.58C134.468 41.378 134.392 41.378 134.355 41.4154C134.317 41.4528 134.317 41.4902 134.317 41.6024V47.0272C134.317 47.2517 134.355 47.4013 134.392 47.4762C134.43 47.551 134.543 47.6258 134.655 47.6258C134.693 47.6258 134.731 47.6258 134.806 47.6632C134.881 47.6632 134.918 47.6632 134.956 47.6632C134.994 47.6632 135.031 47.6632 135.069 47.7006C135.106 47.7006 135.144 47.738 135.144 47.738C135.144 47.738 135.181 47.7755 135.181 47.8129C135.181 47.8877 135.181 47.8877 135.144 47.9251C135.106 47.9251 135.031 47.9625 134.956 47.9625C134.918 47.9625 134.806 47.9625 134.618 47.9251C134.43 47.9251 134.205 47.8877 133.979 47.8877C133.716 47.8877 133.491 47.8877 133.303 47.9251C133.115 47.9251 133.002 47.9625 132.965 47.9625C132.814 47.9625 132.739 47.9251 132.739 47.8503C132.739 47.8129 132.777 47.7755 132.814 47.738C132.852 47.7006 132.965 47.7006 133.153 47.7006C133.34 47.7006 133.416 47.6258 133.491 47.551C133.566 47.4762 133.603 47.1769 133.603 46.9524Z" fill="#0BBBEF"/>
<path d="M141.606 41.7895V46.9524C141.606 47.1769 141.644 47.3265 141.681 47.4014C141.719 47.4762 141.832 47.551 142.02 47.5884C142.02 47.5884 142.057 47.5884 142.095 47.5884C142.132 47.5884 142.17 47.5884 142.17 47.5884C142.17 47.5884 142.207 47.5884 142.245 47.5884C142.283 47.5884 142.283 47.5884 142.32 47.6258C142.32 47.6258 142.358 47.6258 142.358 47.6632C142.358 47.7007 142.395 47.7007 142.395 47.7007V47.7381C142.395 47.8129 142.32 47.8503 142.17 47.8503C142.17 47.8503 142.057 47.8503 141.907 47.8129C141.719 47.8129 141.494 47.7755 141.231 47.7755C140.968 47.7755 140.742 47.7755 140.554 47.8129C140.366 47.8129 140.291 47.8503 140.291 47.8503C140.216 47.8503 140.179 47.8503 140.179 47.8503C140.141 47.8503 140.141 47.8503 140.103 47.8129C140.066 47.7755 140.066 47.7755 140.066 47.7381V47.7007V47.6632C140.066 47.6632 140.066 47.6632 140.103 47.6258C140.103 47.6258 140.141 47.6258 140.141 47.5884H140.179H140.216C140.254 47.5884 140.254 47.5884 140.254 47.5884C140.254 47.5884 140.291 47.5884 140.329 47.5884C140.366 47.5884 140.366 47.5884 140.404 47.5884C140.592 47.551 140.705 47.5136 140.78 47.4388C140.817 47.3639 140.855 47.2143 140.855 46.9898V41.7895C140.855 41.6024 140.817 41.4902 140.78 41.4154C140.742 41.3406 140.629 41.3406 140.479 41.3031C140.442 41.3031 140.404 41.3031 140.366 41.3031C140.329 41.3031 140.291 41.3031 140.254 41.3031C140.216 41.3031 140.216 41.3031 140.179 41.3031C140.141 41.3031 140.141 41.3031 140.103 41.3031C140.103 41.3031 140.066 41.3031 140.066 41.2657C140.066 41.2283 140.028 41.2283 140.028 41.2283V41.1909C140.028 41.1161 140.103 41.0413 140.254 41.0413C140.366 41.0413 140.517 41.0413 140.705 41.0787C140.93 41.0787 141.08 41.1161 141.193 41.1161C141.306 41.1161 141.494 41.1161 141.719 41.0787C141.944 41.0787 142.095 41.0413 142.17 41.0413C142.32 41.0413 142.395 41.0787 142.395 41.1909C142.395 41.2283 142.395 41.2283 142.395 41.2283C142.395 41.2283 142.395 41.2657 142.358 41.2657C142.358 41.2657 142.32 41.2657 142.32 41.3031C142.32 41.3031 142.283 41.3031 142.245 41.3031C142.207 41.3031 142.17 41.3031 142.17 41.3031C142.132 41.3031 142.095 41.3031 142.057 41.3031C142.02 41.3031 141.982 41.3031 141.944 41.3031C141.794 41.3031 141.681 41.378 141.644 41.4154C141.644 41.5276 141.606 41.6399 141.606 41.7895Z" fill="#0BBBEF"/>
<path d="M149.985 45.9423C149.985 46.5409 149.797 47.0272 149.384 47.4013C148.971 47.7755 148.482 47.9625 147.806 47.9625C147.242 47.9625 146.792 47.8503 146.453 47.6632C146.378 47.6258 146.341 47.551 146.303 47.4387C146.266 47.3265 146.266 47.1394 146.266 46.8401C146.266 46.3538 146.266 46.0545 146.303 45.8674C146.303 45.83 146.341 45.7926 146.341 45.7552C146.341 45.7552 146.378 45.7178 146.416 45.7178H146.453H146.491C146.491 45.7178 146.491 45.7178 146.529 45.7552V45.7926V45.83V45.8674V45.9048V45.9423C146.754 47.0646 147.242 47.6258 147.956 47.6258C148.332 47.6258 148.633 47.4762 148.858 47.2143C149.083 46.9524 149.234 46.5783 149.234 46.1667C149.234 45.7926 149.121 45.4933 148.933 45.2314C148.745 44.9695 148.445 44.7451 148.069 44.5206C148.031 44.4832 147.956 44.4458 147.844 44.3709C147.731 44.2961 147.656 44.2587 147.581 44.2213C147.43 44.109 147.28 44.0342 147.167 43.9594C147.055 43.8846 146.942 43.7723 146.829 43.6601C146.716 43.5479 146.604 43.4356 146.529 43.3234C146.453 43.2112 146.378 43.0615 146.341 42.9119C146.303 42.7622 146.266 42.5751 146.266 42.3881C146.266 41.9391 146.453 41.5276 146.829 41.2283C147.205 40.8916 147.656 40.7419 148.182 40.7419C148.407 40.7419 148.633 40.7794 148.896 40.8542C149.159 40.929 149.346 41.0038 149.422 41.0787C149.459 41.1161 149.497 41.1161 149.497 41.1535C149.497 41.1909 149.497 41.2657 149.534 41.4154C149.534 41.4528 149.534 41.565 149.534 41.7147C149.534 41.8643 149.534 42.014 149.534 42.1262C149.534 42.3507 149.534 42.5003 149.534 42.5377C149.534 42.5751 149.497 42.6126 149.459 42.6126C149.422 42.6126 149.384 42.6126 149.384 42.5751C149.346 42.5377 149.346 42.5377 149.346 42.5003C149.346 42.4629 149.346 42.4255 149.309 42.3881C149.271 42.3507 149.309 42.2758 149.271 42.2384C149.159 41.7895 148.971 41.4902 148.783 41.2657C148.595 41.0787 148.332 40.9664 148.069 40.9664C147.768 40.9664 147.505 41.0787 147.318 41.2657C147.13 41.4528 146.979 41.7147 146.979 42.014C146.979 42.2384 147.017 42.4255 147.092 42.6126C147.167 42.7996 147.28 42.9493 147.468 43.0989C147.656 43.2486 147.768 43.3608 147.881 43.4356C147.994 43.5105 148.182 43.6227 148.407 43.7349C148.445 43.7723 148.482 43.7723 148.52 43.8098C148.708 43.922 148.82 43.9968 148.933 44.0716C149.046 44.1465 149.159 44.2587 149.309 44.3709C149.459 44.4832 149.572 44.6328 149.647 44.7451C149.722 44.8573 149.797 45.0069 149.835 45.194C149.948 45.5307 149.985 45.7178 149.985 45.9423Z" fill="#0BBBEF"/>
<path d="M155.583 46.9524V41.5276C155.583 41.4528 155.545 41.378 155.508 41.378C155.47 41.378 155.32 41.3405 155.095 41.3405C154.794 41.3405 154.569 41.4154 154.381 41.565C154.193 41.7147 154.043 41.9391 153.93 42.2384C153.892 42.3133 153.855 42.3881 153.817 42.5003C153.78 42.6126 153.742 42.6874 153.704 42.7622C153.667 42.837 153.629 42.837 153.592 42.837C153.554 42.837 153.517 42.837 153.479 42.7996C153.479 42.7622 153.441 42.7248 153.441 42.6126C153.441 42.6126 153.441 42.5751 153.441 42.5003C153.441 42.4255 153.441 42.3881 153.479 42.3507C153.554 41.8643 153.592 41.4528 153.667 41.1161C153.742 40.8542 153.78 40.7419 153.855 40.7419C153.93 40.7419 153.967 40.7794 154.005 40.8916C154.005 40.8916 154.005 40.8916 154.005 40.929V40.9664C154.005 40.9664 154.005 40.9664 154.005 41.0038C154.005 41.0412 154.005 41.0412 154.005 41.0412C154.005 41.0412 154.005 41.0412 154.043 41.0787C154.08 41.1161 154.043 41.0787 154.08 41.1161C154.08 41.1161 154.08 41.1161 154.118 41.1161H154.155H154.193H154.23H157.574C157.837 41.1161 157.988 41.0412 158.025 40.929V40.8916C158.025 40.8916 158.025 40.8542 158.063 40.8542C158.063 40.8542 158.063 40.8542 158.1 40.8168L158.138 40.7794H158.175H158.213C158.251 40.7794 158.288 40.8168 158.326 40.8542C158.363 40.8916 158.363 40.9664 158.363 41.0787C158.363 41.1161 158.363 41.1909 158.363 41.2657C158.363 41.3405 158.363 41.4154 158.363 41.4528C158.363 41.7895 158.326 42.1636 158.288 42.5003C158.288 42.7248 158.213 42.8744 158.138 42.8744C158.1 42.8744 158.1 42.8744 158.063 42.837C158.063 42.837 158.025 42.7996 158.025 42.7622C158.025 42.7248 157.988 42.6874 157.988 42.65C157.988 42.6126 157.95 42.5751 157.95 42.5003C157.95 42.4255 157.912 42.3881 157.912 42.3507C157.875 42.201 157.837 42.0888 157.8 41.9765C157.762 41.9017 157.725 41.7895 157.649 41.6773C157.574 41.565 157.499 41.4902 157.386 41.4528C157.274 41.4154 157.123 41.378 156.973 41.378H156.56C156.447 41.378 156.372 41.378 156.334 41.4154C156.297 41.4528 156.297 41.4902 156.297 41.6024V47.0272C156.297 47.2517 156.334 47.4013 156.372 47.4762C156.41 47.551 156.522 47.6258 156.635 47.6258C156.673 47.6258 156.71 47.6258 156.785 47.6632C156.86 47.6632 156.898 47.6632 156.936 47.6632C156.973 47.6632 157.011 47.6632 157.048 47.7006C157.086 47.7006 157.123 47.738 157.123 47.738C157.123 47.738 157.161 47.7755 157.161 47.8129C157.161 47.8877 157.161 47.8877 157.123 47.9251C157.086 47.9251 157.011 47.9625 156.936 47.9625C156.898 47.9625 156.785 47.9625 156.597 47.9251C156.41 47.9251 156.184 47.8877 155.959 47.8877C155.696 47.8877 155.47 47.8877 155.282 47.9251C155.095 47.9251 154.982 47.9625 154.944 47.9625C154.794 47.9625 154.719 47.9251 154.719 47.8503C154.719 47.8129 154.756 47.7755 154.794 47.738C154.832 47.7006 154.944 47.7006 155.132 47.7006C155.32 47.7006 155.395 47.6258 155.47 47.551C155.545 47.4762 155.583 47.1769 155.583 46.9524Z" fill="#0BBBEF"/>
<path d="M165.727 45.9423C165.727 46.5409 165.539 47.0272 165.126 47.4013C164.713 47.7755 164.224 47.9625 163.548 47.9625C162.985 47.9625 162.534 47.8503 162.196 47.6632C162.121 47.6258 162.083 47.551 162.045 47.4387C162.008 47.3265 162.008 47.1394 162.008 46.8401C162.008 46.3538 162.008 46.0545 162.045 45.8674C162.045 45.83 162.083 45.7926 162.083 45.7552C162.083 45.7552 162.121 45.7178 162.158 45.7178H162.196H162.233C162.233 45.7178 162.233 45.7178 162.271 45.7552V45.7926V45.83V45.8674V45.9048V45.9423C162.496 47.0646 162.985 47.6258 163.699 47.6258C164.074 47.6258 164.375 47.4762 164.6 47.2143C164.826 46.9524 164.976 46.5783 164.976 46.1667C164.976 45.7926 164.863 45.4933 164.675 45.2314C164.487 44.9695 164.187 44.7451 163.811 44.5206C163.774 44.4832 163.699 44.4458 163.586 44.3709C163.473 44.2961 163.398 44.2587 163.323 44.2213C163.173 44.109 163.022 44.0342 162.91 43.9594C162.797 43.8846 162.684 43.7723 162.571 43.6601C162.459 43.5479 162.346 43.4356 162.271 43.3234C162.196 43.2112 162.121 43.0615 162.083 42.9119C162.045 42.7622 162.008 42.5751 162.008 42.3881C162.008 41.9391 162.196 41.5276 162.571 41.2283C162.947 40.8916 163.398 40.7419 163.924 40.7419C164.149 40.7419 164.375 40.7794 164.638 40.8542C164.901 40.929 165.089 41.0038 165.164 41.0787C165.201 41.1161 165.239 41.1161 165.239 41.1535C165.239 41.1909 165.239 41.2657 165.276 41.4154C165.276 41.4528 165.276 41.565 165.276 41.7147C165.276 41.8643 165.276 42.014 165.276 42.1262C165.276 42.3507 165.276 42.5003 165.276 42.5377C165.276 42.5751 165.239 42.6126 165.201 42.6126C165.164 42.6126 165.126 42.6126 165.126 42.5751C165.089 42.5377 165.089 42.5377 165.089 42.5003C165.089 42.4629 165.089 42.4255 165.051 42.3881C165.013 42.3507 165.051 42.2758 165.014 42.2384C164.901 41.7895 164.713 41.4902 164.525 41.2657C164.337 41.0787 164.074 40.9664 163.811 40.9664C163.511 40.9664 163.248 41.0787 163.06 41.2657C162.872 41.4528 162.722 41.7147 162.722 42.014C162.722 42.2384 162.759 42.4255 162.834 42.6126C162.91 42.7996 163.022 42.9493 163.21 43.0989C163.398 43.2486 163.511 43.3608 163.623 43.4356C163.736 43.5105 163.924 43.6227 164.149 43.7349C164.187 43.7723 164.225 43.7723 164.262 43.8098C164.45 43.922 164.563 43.9968 164.675 44.0716C164.788 44.1465 164.901 44.2587 165.051 44.3709C165.201 44.4832 165.314 44.6328 165.389 44.7451C165.464 44.8573 165.539 45.0069 165.577 45.194C165.69 45.5307 165.727 45.7178 165.727 45.9423Z" fill="#0BBBEF"/>
</g>
<defs>
<clipPath id="clip0_132_4389">
<rect width="198" height="48" fill="white"/>
</clipPath>
</defs>
</svg>
