<svg width="200" height="42" viewBox="0 0 200 42" fill="none" xmlns="http://www.w3.org/2000/svg">
<g clip-path="url(#clip0_131_4086)">
<path d="M0 3.99365H4.71766V28.9056H18.1448V33.0958H0V3.99365Z" fill="#241E46"/>
<path d="M22.5322 11.4575H27.2499V33.2923H22.5322V11.4575Z" fill="#241E46"/>
<path d="M47.0118 29.1347V33.0957C45.5602 33.4231 44.2406 33.5868 43.1189 33.5868C40.5786 33.5868 38.5992 32.9648 37.1476 31.6881C35.729 30.4442 35.0032 28.5127 35.0032 25.9921V15.3202H31.4072V11.261H35.0032V5.53223H39.7538V11.261H46.286V15.3202H39.7538V25.5993C39.7538 27.0069 40.1167 27.9562 40.8425 28.5455C41.5683 29.102 42.657 29.3966 44.0756 29.3966C44.7354 29.3639 45.7251 29.2984 47.0118 29.1347Z" fill="#241E46"/>
<path d="M63.3419 29.1347V33.0957C61.8903 33.4231 60.5706 33.5868 59.449 33.5868C56.9087 33.5868 54.9293 32.9648 53.4777 31.6881C52.0591 30.4442 51.3333 28.5127 51.3333 25.9921V15.3202H47.7373V11.261H51.3333V5.53223H56.0839V11.261H62.6161V15.3202H56.0839V25.5993C56.0839 27.0069 56.4468 27.9562 57.1726 28.5455C57.8984 29.102 58.9871 29.3966 60.4057 29.3966C61.0985 29.3639 62.0882 29.2984 63.3419 29.1347Z" fill="#241E46"/>
<path d="M67.9277 5.53223H72.6454V33.0957H67.9277V5.53223Z" fill="#241E46"/>
<path d="M97.6851 23.2424H81.2887C81.5856 25.0101 82.3774 26.4178 83.697 27.4326C84.9837 28.4474 86.6002 28.9712 88.4807 28.9712C90.79 28.9712 92.9014 28.12 94.8809 26.385L97.1242 29.5931C94.6169 31.9501 91.6808 33.0959 88.3487 33.0959C86.1054 33.0959 84.0929 32.6048 82.3114 31.6228C80.5299 30.6407 79.1114 29.2658 78.0886 27.5308C77.0659 25.7958 76.5381 23.8644 76.5381 21.7366C76.5381 19.6415 77.0329 17.7101 78.0227 15.9423C79.0124 14.2073 80.398 12.8324 82.1465 11.8176C83.895 10.8028 85.8084 10.3118 87.8868 10.3118C89.8333 10.3118 91.5818 10.7373 93.0994 11.6212C94.6499 12.5051 95.8376 13.6836 96.7283 15.1894C97.6191 16.6952 98.048 18.3975 98.048 20.2962C98.048 21.2128 97.916 22.1949 97.6851 23.2424ZM87.6889 14.2401C86.1383 14.2401 84.7857 14.7311 83.6311 15.6804C82.4764 16.6298 81.7176 17.9392 81.3547 19.576H93.3303C93.2973 17.9065 92.7365 16.597 91.6478 15.6804C90.5591 14.7311 89.2395 14.2401 87.6889 14.2401Z" fill="#241E46"/>
<path d="M134.47 28.2183H121.175L119.063 33.096H114.016L127.014 3.27368H128.63L141.662 33.096H136.581L134.47 28.2183ZM127.839 12.0469L122.857 24.1918H132.754L127.839 12.0469Z" fill="#241E46"/>
<path d="M156.705 11.261V15.3202H155.286C153.439 15.3202 151.888 15.9422 150.668 16.9897C149.447 18.0373 148.82 19.5431 148.82 21.4418V33.0957H144.103V11.261H148.49V14.109C149.282 13.1269 149.909 12.6359 151.031 12.0794C152.152 11.5229 153.175 11.2937 154.791 11.261C155.451 11.261 156.111 11.261 156.705 11.261Z" fill="#241E46"/>
<path d="M173.86 29.1347V33.0957C172.409 33.4231 171.089 33.5868 169.968 33.5868C167.427 33.5868 165.448 32.9648 163.996 31.6881C162.578 30.4442 161.852 28.5127 161.852 25.9921V15.3202H158.256V11.261H161.852V5.53223H166.602V11.261H173.135V15.3202H166.602V25.5993C166.602 27.0069 166.965 27.9562 167.691 28.5455C168.417 29.102 169.506 29.3966 170.924 29.3966C171.617 29.3639 172.607 29.2984 173.86 29.1347Z" fill="#241E46"/>
<path d="M24.8747 6.41621C26.6603 6.41621 28.1078 4.97989 28.1078 3.20811C28.1078 1.43632 26.6603 0 24.8747 0C23.0891 0 21.6416 1.43632 21.6416 3.20811C21.6416 4.97989 23.0891 6.41621 24.8747 6.41621Z" fill="#FFD500"/>
<path d="M122.857 24.1591L127.839 12.0469L132.755 24.1591H122.857Z" fill="#E30613"/>
<path d="M27.8766 39.0538V40.9525C27.8766 41.2143 27.9096 41.378 27.9756 41.4435C28.0416 41.509 28.1735 41.5744 28.3715 41.6072C28.5364 41.6072 28.6354 41.6399 28.6684 41.6399C28.7344 41.6726 28.7344 41.6726 28.7344 41.7381C28.7344 41.8036 28.6684 41.8691 28.5364 41.8691C28.5034 41.8691 28.3715 41.8691 28.1735 41.8363C27.9756 41.8363 27.7446 41.8036 27.5467 41.8036C27.3488 41.8036 27.1508 41.8036 26.9529 41.8363C26.7879 41.8363 26.6889 41.8691 26.656 41.8691C26.59 41.8691 26.524 41.8691 26.524 41.8363C26.491 41.8363 26.491 41.7709 26.491 41.7381C26.491 41.7054 26.491 41.6726 26.524 41.6399C26.557 41.6072 26.623 41.6072 26.6889 41.6072C26.9199 41.5744 27.0518 41.5417 27.0848 41.4762C27.1178 41.4108 27.1508 41.2798 27.1508 41.0507V36.6641C27.1508 36.4677 27.1178 36.3367 27.0848 36.2712C27.0518 36.2058 26.9529 36.1403 26.8209 36.1403C26.623 36.1076 26.491 36.0748 26.491 36.0748C26.458 36.0748 26.458 36.0421 26.458 35.9766C26.458 35.9112 26.524 35.8784 26.656 35.8784C26.7549 35.8784 26.9529 35.8784 27.2498 35.9112C27.5467 35.9112 27.7776 35.9439 27.9426 35.9439C28.1735 35.9439 28.4704 35.9439 28.8663 35.9112C29.2622 35.9112 29.5591 35.8784 29.7901 35.8784C29.922 35.8784 30.021 35.9112 30.021 35.9439C30.054 35.9766 30.054 36.1403 30.054 36.3695C30.054 36.4677 30.054 36.5659 30.054 36.6968C30.054 36.8278 30.054 36.926 30.054 36.9914C30.054 37.0569 30.054 37.1224 30.054 37.1551C30.054 37.2533 30.021 37.3188 30.021 37.3515C30.021 37.3843 29.988 37.3843 29.955 37.3843C29.922 37.3843 29.889 37.3515 29.856 37.3188C29.823 37.2861 29.8231 37.1879 29.7901 37.0896C29.7571 36.9587 29.7241 36.8605 29.6581 36.7623C29.5591 36.5331 29.3942 36.3695 29.1962 36.2712C28.9983 36.173 28.7014 36.1403 28.3385 36.1403C28.1075 36.1403 27.9426 36.173 27.8766 36.2058C27.8106 36.2385 27.7776 36.304 27.7776 36.4349V38.4318C27.7776 38.53 27.8106 38.5955 27.8436 38.5955C27.8766 38.6282 28.0086 38.6282 28.1735 38.6282C28.5034 38.6282 28.7344 38.5955 28.8663 38.53C28.9983 38.4645 29.0973 38.3663 29.1302 38.1699C29.1302 38.1372 29.1632 38.1045 29.1632 38.0717C29.1632 38.039 29.1962 38.0062 29.1962 38.0062C29.1962 37.9735 29.1962 37.9735 29.2292 37.9408C29.2292 37.908 29.2292 37.908 29.2292 37.8753V37.8426C29.2292 37.8426 29.2292 37.8098 29.2622 37.8098C29.2622 37.8098 29.2622 37.8098 29.2952 37.7771C29.2952 37.7771 29.2952 37.7771 29.3282 37.7771H29.3612C29.3942 37.7771 29.4272 37.7771 29.4272 37.8098C29.4272 37.8426 29.4272 37.8753 29.4272 37.9735C29.4272 38.039 29.4272 38.1372 29.3942 38.3009C29.3942 38.4645 29.3612 38.5955 29.3612 38.7264C29.3612 38.8246 29.3612 38.9556 29.3942 39.1847C29.3942 39.3811 29.4272 39.5448 29.4272 39.643C29.4272 39.7412 29.3942 39.774 29.3282 39.774C29.2952 39.774 29.2622 39.7412 29.2622 39.7085C29.2622 39.6758 29.2292 39.5776 29.1962 39.4466C29.1302 39.2175 29.0313 39.0538 28.9323 38.9883C28.8003 38.9228 28.6024 38.8574 28.2725 38.8574C28.0745 38.8574 27.9426 38.8574 27.8766 38.8901C27.9096 38.8901 27.8766 38.9556 27.8766 39.0538Z" fill="#0BBBEF"/>
<path d="M33.5176 38.8899C33.5176 38.3007 33.6495 37.7769 33.8805 37.3186C34.1444 36.8276 34.4743 36.4675 34.8702 36.2056C35.2661 35.9437 35.7279 35.8127 36.1898 35.8127C36.6517 35.8127 37.1136 35.9437 37.5094 36.2056C37.9053 36.4675 38.2352 36.8276 38.4992 37.3186C38.7631 37.8096 38.8621 38.3334 38.8621 38.9226C38.8621 39.5119 38.7301 40.0357 38.4992 40.5267C38.2352 41.0177 37.9053 41.3778 37.5094 41.6397C37.1136 41.9016 36.6517 42.0325 36.1898 42.0325C35.7279 42.0325 35.2991 41.9016 34.8702 41.6397C34.4743 41.3778 34.1114 40.985 33.8805 40.5267C33.6495 39.9702 33.5176 39.4464 33.5176 38.8899ZM38.0043 38.8899C38.0043 38.3661 37.9383 37.9406 37.8393 37.5477C37.7404 37.1549 37.5754 36.8603 37.4105 36.6639C37.2455 36.4347 37.0476 36.3038 36.8496 36.1728C36.6517 36.0746 36.4537 36.0092 36.2228 36.0092C36.0579 36.0092 35.8599 36.0419 35.695 36.1074C35.53 36.1728 35.3651 36.271 35.2001 36.4347C35.0351 36.5657 34.9032 36.7621 34.8042 36.9912C34.6722 37.2204 34.6063 37.4823 34.5403 37.8096C34.4743 38.137 34.4413 38.4971 34.4413 38.9226C34.4413 39.3155 34.4743 39.7083 34.5403 40.0357C34.6063 40.363 34.7052 40.6249 34.8372 40.8541C34.9692 41.0832 35.1011 41.2469 35.2331 41.4106C35.398 41.5415 35.563 41.6724 35.7279 41.7379C35.8929 41.8034 36.0579 41.8361 36.2558 41.8361C36.4208 41.8361 36.5857 41.8034 36.7507 41.7379C36.9156 41.6724 37.0806 41.5742 37.2125 41.4433C37.3775 41.3124 37.5094 41.1159 37.6414 40.8868C37.7734 40.6576 37.8723 40.3958 37.9383 40.0684C37.9713 39.6756 38.0043 39.2827 38.0043 38.8899Z" fill="#0BBBEF"/>
<path d="M43.5799 39.2175V41.0834C43.5799 41.2471 43.6129 41.378 43.6459 41.4762C43.6789 41.5744 43.7779 41.6072 43.9428 41.6072C44.1408 41.6399 44.2727 41.6726 44.3057 41.7054C44.3387 41.7381 44.3387 41.7381 44.3387 41.7709C44.3387 41.8363 44.2727 41.8691 44.1738 41.8691C44.1738 41.8691 44.0748 41.8691 43.8769 41.8363C43.7119 41.8363 43.514 41.8036 43.283 41.8036C43.0521 41.8036 42.8541 41.8036 42.6892 41.8363C42.5242 41.8363 42.4253 41.8691 42.3923 41.8691C42.3263 41.8691 42.2603 41.8691 42.2273 41.8363C42.1943 41.8363 42.1943 41.8036 42.1943 41.7709C42.1943 41.7381 42.2273 41.7054 42.2603 41.6727C42.2933 41.6727 42.3593 41.6399 42.4913 41.6399C42.5572 41.6399 42.5902 41.6399 42.6232 41.6072C42.7552 41.5744 42.8541 41.5417 42.8871 41.4762C42.9201 41.4108 42.9531 41.2798 42.9531 41.0507V36.6968C42.9531 36.5004 42.9201 36.3367 42.8871 36.2712C42.8541 36.2058 42.7552 36.1403 42.6232 36.1403C42.5902 36.1403 42.5572 36.1403 42.4913 36.1403C42.4583 36.1403 42.3923 36.1403 42.3923 36.1403C42.3593 36.1403 42.3263 36.1403 42.2933 36.1076C42.2603 36.1076 42.2273 36.0748 42.2273 36.0748C42.2273 36.0748 42.1943 36.0421 42.1943 36.0094C42.1943 35.9112 42.2603 35.8784 42.3923 35.8784C42.4583 35.8784 42.5902 35.8784 42.7552 35.9112C42.9201 35.9112 43.0521 35.9439 43.1181 35.9439C43.25 35.9439 43.481 35.9439 43.7449 35.9112C44.0088 35.9112 44.2068 35.8784 44.3387 35.8784C44.8666 35.8784 45.3284 36.0094 45.6583 36.304C45.9883 36.5659 46.1532 36.926 46.1532 37.3515C46.1532 37.9408 45.8563 38.3663 45.2955 38.6282C45.1965 38.661 45.0975 38.6937 45.0315 38.7264C44.9326 38.7592 44.8666 38.7592 44.8336 38.7592C44.8006 38.7592 44.7676 38.7919 44.7676 38.7919C44.7676 38.7919 44.8006 38.8246 44.8336 38.8246C44.8666 38.8574 44.8996 38.8901 44.9655 38.9228C44.9985 38.9556 45.0315 39.0211 45.0975 39.0865C45.2295 39.3811 45.4274 39.7412 45.5924 40.1668C45.7903 40.5924 45.9223 40.887 45.9883 41.0179C46.0872 41.1816 46.1532 41.3126 46.2192 41.4108C46.2852 41.509 46.3512 41.5417 46.4501 41.5417C46.4831 41.5417 46.5161 41.5417 46.5491 41.5417C46.5821 41.5417 46.6481 41.5417 46.6481 41.5417C46.6811 41.5417 46.714 41.5417 46.747 41.5744C46.78 41.6072 46.813 41.6072 46.813 41.6072C46.813 41.6072 46.846 41.6399 46.846 41.6727C46.846 41.7381 46.78 41.7709 46.6811 41.7709C46.6481 41.7709 46.5821 41.7709 46.4831 41.7381C46.3841 41.7381 46.2852 41.7054 46.2192 41.7054C46.1532 41.7054 46.0872 41.7054 45.9553 41.7381C45.8233 41.7381 45.7573 41.7709 45.7243 41.7709C45.6584 41.7709 45.6254 41.7381 45.5924 41.7054C45.5594 41.6399 45.4934 41.5417 45.4274 41.3453C45.3614 41.2143 45.2625 40.9197 45.0645 40.5269C44.8996 40.1013 44.7346 39.7412 44.6026 39.4139C44.5037 39.2175 44.4047 39.0538 44.3387 38.9883C44.2727 38.9228 44.1078 38.8901 43.9098 38.8901C43.7779 38.8901 43.6789 38.8901 43.6459 38.9228C43.6129 39.0538 43.5799 39.1193 43.5799 39.2175ZM43.5799 36.5986V38.6282C43.5799 38.6937 43.6129 38.7264 43.6459 38.7592C43.6789 38.7919 43.7779 38.7919 43.9428 38.7919C44.1408 38.7919 44.3387 38.7592 44.5037 38.7264C44.6686 38.6937 44.8336 38.5955 44.9985 38.4973C45.1635 38.3991 45.2625 38.2681 45.3614 38.0717C45.4604 37.8753 45.4934 37.6789 45.4934 37.4497C45.4934 37.0242 45.3944 36.6968 45.1635 36.4677C44.9326 36.2385 44.6356 36.1403 44.2068 36.1403C43.9428 36.1403 43.7449 36.173 43.6789 36.2385C43.6129 36.2712 43.5799 36.4022 43.5799 36.5986Z" fill="#0BBBEF"/>
<path d="M55.4563 41.1161V36.8278C55.4563 36.5659 55.4233 36.3695 55.3903 36.304C55.3573 36.2385 55.2583 36.173 55.1264 36.173C54.9284 36.173 54.7965 36.1403 54.7635 36.1076C54.7305 36.0748 54.7305 36.0748 54.7305 36.0094C54.7305 35.9439 54.7965 35.8784 54.9284 35.8784C54.9944 35.8784 55.0934 35.8784 55.2913 35.9112C55.4893 35.9112 55.6872 35.9439 55.8522 35.9439C56.0171 35.9439 56.215 35.9439 56.38 35.9112C56.545 35.9112 56.6439 35.8784 56.6769 35.8784C56.7759 35.8784 56.8419 35.9112 56.8419 35.9766C56.8419 36.0094 56.8419 36.0094 56.8419 36.0421C56.8419 36.0421 56.8089 36.0748 56.7759 36.0748C56.7429 36.0748 56.7099 36.0748 56.7099 36.1076C56.6769 36.1076 56.6439 36.1076 56.6109 36.1403C56.5779 36.173 56.512 36.1403 56.479 36.173C56.314 36.2058 56.215 36.2385 56.1821 36.304C56.1491 36.3695 56.1161 36.4677 56.1161 36.6641V40.9197C56.1161 41.1816 56.1491 41.378 56.248 41.509C56.347 41.6399 56.512 41.6726 56.8089 41.6726C57.4687 41.6726 57.8976 41.3453 58.1285 40.6578C58.1945 40.4614 58.2275 40.3305 58.2275 40.3305C58.2605 40.2977 58.2605 40.2977 58.2935 40.2977C58.3264 40.2977 58.3594 40.2977 58.3594 40.3305C58.3594 40.3632 58.3594 40.4287 58.3594 40.5596C58.3594 40.6578 58.3594 40.756 58.3594 40.887C58.3594 40.9852 58.3594 41.1161 58.3594 41.2471C58.3594 41.378 58.3594 41.4762 58.3594 41.5744C58.3594 41.7054 58.3594 41.8036 58.3264 41.8363C58.2935 41.8691 58.2605 41.9018 58.1945 41.9018C58.0955 41.9018 57.8646 41.9018 57.4687 41.8691C57.0728 41.8691 56.6109 41.8363 56.0831 41.8363C55.8192 41.8363 55.5552 41.8363 55.3243 41.8691C55.0934 41.8691 54.9614 41.9018 54.9284 41.9018C54.7965 41.9018 54.7305 41.8691 54.7305 41.8036C54.7305 41.7709 54.7635 41.7381 54.7965 41.7054C54.8294 41.6726 54.9284 41.6726 55.0274 41.6399C55.1923 41.6399 55.2913 41.6072 55.3573 41.509C55.4233 41.4108 55.4563 41.3126 55.4563 41.1161Z" fill="#0BBBEF"/>
<path d="M62.8797 36.5658V41.0834C62.8797 41.2798 62.9127 41.4107 62.9457 41.4762C62.9787 41.5417 63.0777 41.6072 63.2426 41.6399C63.2426 41.6399 63.2756 41.6399 63.3086 41.6399C63.3416 41.6399 63.3746 41.6399 63.3746 41.6399C63.3746 41.6399 63.4076 41.6399 63.4406 41.6399C63.4736 41.6399 63.4736 41.6399 63.5066 41.6726C63.5066 41.6726 63.5396 41.6726 63.5396 41.7054L63.5725 41.7381V41.7708C63.5725 41.8363 63.5066 41.869 63.3746 41.869C63.3746 41.869 63.2756 41.869 63.1437 41.8363C62.9787 41.8363 62.7808 41.8036 62.5498 41.8036C62.3189 41.8036 62.121 41.8036 61.956 41.8363C61.7911 41.8363 61.7251 41.869 61.7251 41.869C61.6591 41.869 61.6261 41.869 61.6261 41.869C61.5931 41.869 61.5931 41.869 61.5601 41.8363C61.5271 41.8036 61.5271 41.8036 61.5271 41.7708V41.7381V41.7054C61.5271 41.7054 61.5271 41.7054 61.5601 41.6726C61.5601 41.6726 61.5931 41.6726 61.5931 41.6399H61.6261H61.6591C61.6921 41.6399 61.6921 41.6399 61.6921 41.6399C61.6921 41.6399 61.7251 41.6399 61.7581 41.6399C61.7911 41.6399 61.7911 41.6399 61.824 41.6399C61.989 41.6072 62.088 41.5744 62.154 41.509C62.1869 41.4435 62.2199 41.3125 62.2199 41.1161V36.5658C62.2199 36.4022 62.1869 36.304 62.154 36.2385C62.121 36.173 62.022 36.173 61.89 36.1403C61.857 36.1403 61.824 36.1403 61.7911 36.1403C61.7581 36.1403 61.7251 36.1403 61.6921 36.1403C61.6591 36.1403 61.6591 36.1403 61.6261 36.1403C61.5931 36.1403 61.5931 36.1403 61.5601 36.1403C61.5601 36.1403 61.5271 36.1403 61.5271 36.1075L61.4941 36.0748V36.0421C61.4941 35.9766 61.5601 35.9111 61.6921 35.9111C61.7911 35.9111 61.923 35.9111 62.088 35.9439C62.2859 35.9439 62.4179 35.9766 62.5169 35.9766C62.6158 35.9766 62.7808 35.9766 62.9787 35.9439C63.1767 35.9439 63.3086 35.9111 63.3746 35.9111C63.5066 35.9111 63.5725 35.9439 63.5725 36.0421C63.5725 36.0748 63.5725 36.0748 63.5725 36.0748C63.5725 36.0748 63.5726 36.1075 63.5396 36.1075C63.5066 36.1075 63.5066 36.1075 63.5066 36.1403C63.5066 36.1403 63.4736 36.1403 63.4406 36.1403C63.4076 36.1403 63.3746 36.1403 63.3746 36.1403C63.3746 36.1403 63.3086 36.1403 63.2756 36.1403C63.2426 36.1403 63.2097 36.1403 63.1767 36.1403C63.0447 36.1403 62.9457 36.2058 62.9127 36.2385C62.9127 36.3367 62.8797 36.4349 62.8797 36.5658Z" fill="#0BBBEF"/>
<path d="M68.6529 41.0833V36.3366C68.6529 36.2711 68.6199 36.2057 68.5869 36.2057C68.554 36.1729 68.422 36.1729 68.2241 36.1729C67.9601 36.1729 67.7622 36.2384 67.5972 36.3694C67.4323 36.5003 67.3003 36.6967 67.2013 36.9586C67.1683 37.0241 67.1354 37.0895 67.1024 37.1878C67.0694 37.286 67.0364 37.3514 67.0034 37.4169C66.9704 37.4824 66.9374 37.4824 66.9044 37.4824C66.8714 37.4824 66.8384 37.4824 66.8055 37.4496C66.8055 37.4169 66.7725 37.3842 66.7725 37.286C66.7725 37.286 66.7725 37.2532 66.7725 37.1878C66.7725 37.1223 66.7725 37.0895 66.8055 37.0568C66.8714 36.6312 66.9044 36.2711 66.9704 35.9765C67.0364 35.7474 67.0694 35.6492 67.1354 35.6492C67.2013 35.6492 67.2343 35.6819 67.2673 35.7801C67.2673 35.7801 67.2673 35.7801 67.2673 35.8128V35.8456C67.2673 35.8456 67.2673 35.8456 67.2673 35.8783C67.2673 35.9111 67.2673 35.9111 67.2673 35.9111C67.2673 35.9111 67.2673 35.9111 67.3003 35.9438C67.3333 35.9765 67.3003 35.9438 67.3333 35.9765C67.3333 35.9765 67.3333 35.9765 67.3663 35.9765H67.3993H67.4323H67.4653H70.4014C70.6324 35.9765 70.7643 35.9111 70.7973 35.8128V35.7801C70.7973 35.7801 70.7973 35.7474 70.8303 35.7474C70.8303 35.7474 70.8303 35.7474 70.8633 35.7146L70.8963 35.6819H70.9293H70.9623C70.9953 35.6819 71.0282 35.7146 71.0612 35.7474C71.0942 35.7801 71.0942 35.8456 71.0942 35.9438C71.0942 35.9765 71.0942 36.042 71.0942 36.1075C71.0942 36.1729 71.0942 36.2384 71.0942 36.2712C71.0942 36.5658 71.0612 36.8931 71.0283 37.1878C71.0283 37.3842 70.9623 37.5151 70.8963 37.5151C70.8633 37.5151 70.8633 37.5151 70.8303 37.4824C70.8303 37.4824 70.7973 37.4496 70.7973 37.4169C70.7973 37.3842 70.7643 37.3514 70.7643 37.3187C70.7643 37.286 70.7313 37.2532 70.7313 37.1878C70.7313 37.1223 70.6983 37.0895 70.6983 37.0568C70.6654 36.9259 70.6324 36.8277 70.5994 36.7294C70.5664 36.664 70.5334 36.5658 70.4674 36.4676C70.4014 36.3694 70.3354 36.3039 70.2365 36.2712C70.1375 36.2384 70.0055 36.2057 69.8736 36.2057H69.5107C69.4117 36.2057 69.3457 36.2057 69.3127 36.2384C69.2798 36.2711 69.2797 36.3039 69.2797 36.4021V41.1488C69.2797 41.3452 69.3127 41.4761 69.3457 41.5416C69.3787 41.6071 69.4777 41.6726 69.5767 41.6726C69.6097 41.6726 69.6426 41.6726 69.7086 41.7053C69.7746 41.7053 69.8076 41.7053 69.8406 41.7053C69.8736 41.7053 69.9066 41.7053 69.9396 41.738C69.9726 41.7708 70.0055 41.7708 70.0055 41.7708C70.0055 41.7708 70.0385 41.8035 70.0385 41.8362C70.0385 41.9017 70.0385 41.9017 70.0055 41.9344C69.9725 41.9344 69.9066 41.9672 69.8406 41.9672C69.8076 41.9672 69.7086 41.9672 69.5437 41.9344C69.3787 41.9344 69.1808 41.9017 68.9828 41.9017C68.7519 41.9017 68.554 41.9017 68.389 41.9344C68.2241 41.9344 68.1251 41.9672 68.0921 41.9672C67.9601 41.9672 67.8941 41.9344 67.8941 41.869C67.8941 41.8362 67.9271 41.8035 67.9601 41.7708C67.9931 41.738 68.0921 41.738 68.257 41.738C68.422 41.738 68.488 41.6726 68.554 41.6071C68.6529 41.4434 68.6529 41.2797 68.6529 41.0833Z" fill="#0BBBEF"/>
<path d="M76.0426 41.0833V36.3366C76.0426 36.2711 76.0096 36.2057 75.9766 36.2057C75.9436 36.1729 75.8116 36.1729 75.6137 36.1729C75.3498 36.1729 75.1518 36.2384 74.9869 36.3694C74.8219 36.5003 74.69 36.6967 74.591 36.9586C74.558 37.0241 74.525 37.0895 74.492 37.1878C74.459 37.286 74.426 37.3514 74.393 37.4169C74.3601 37.4824 74.3271 37.4824 74.2941 37.4824C74.2611 37.4824 74.2281 37.4824 74.1951 37.4496C74.1951 37.4169 74.1621 37.3842 74.1621 37.286C74.1621 37.286 74.1621 37.2532 74.1621 37.1878C74.1621 37.1223 74.1621 37.0895 74.1951 37.0568C74.2611 36.6312 74.2941 36.2711 74.36 35.9765C74.426 35.7474 74.459 35.6492 74.525 35.6492C74.591 35.6492 74.624 35.6819 74.657 35.7801C74.657 35.7801 74.657 35.7801 74.657 35.8128V35.8456C74.657 35.8456 74.657 35.8456 74.657 35.8783C74.657 35.9111 74.657 35.9111 74.657 35.9111C74.657 35.9111 74.657 35.9111 74.69 35.9438C74.7229 35.9765 74.69 35.9438 74.7229 35.9765C74.7229 35.9765 74.723 35.9765 74.7559 35.9765H74.7889H74.8219H74.8549H77.7911C78.022 35.9765 78.154 35.9111 78.187 35.8128V35.7801C78.187 35.7801 78.187 35.7474 78.22 35.7474C78.22 35.7474 78.2199 35.7474 78.2529 35.7146L78.2859 35.6819H78.3189H78.3519C78.3849 35.6819 78.4179 35.7146 78.4509 35.7474C78.4839 35.7801 78.4839 35.8456 78.4839 35.9438C78.4839 35.9765 78.4839 36.042 78.4839 36.1075C78.4839 36.1729 78.4839 36.2384 78.4839 36.2712C78.4839 36.5658 78.4509 36.8931 78.4179 37.1878C78.4179 37.3842 78.3519 37.5151 78.2859 37.5151C78.2529 37.5151 78.2529 37.5151 78.22 37.4824C78.22 37.4824 78.187 37.4496 78.187 37.4169C78.187 37.3842 78.154 37.3514 78.154 37.3187C78.154 37.286 78.121 37.2532 78.121 37.1878C78.121 37.1223 78.088 37.0895 78.088 37.0568C78.055 36.9259 78.022 36.8277 77.989 36.7294C77.956 36.664 77.923 36.5658 77.8571 36.4676C77.7911 36.3694 77.7251 36.3039 77.6261 36.2712C77.5271 36.2384 77.3952 36.2057 77.2632 36.2057H76.9003C76.8014 36.2057 76.7354 36.2057 76.7024 36.2384C76.6694 36.2711 76.6694 36.3039 76.6694 36.4021V41.1488C76.6694 41.3452 76.7024 41.4761 76.7354 41.5416C76.7684 41.6071 76.8673 41.6726 76.9663 41.6726C76.9993 41.6726 77.0323 41.6726 77.0983 41.7053C77.1642 41.7053 77.1972 41.7053 77.2302 41.7053C77.2632 41.7053 77.2962 41.7053 77.3292 41.738C77.3622 41.7708 77.3952 41.7708 77.3952 41.7708C77.3952 41.7708 77.4282 41.8035 77.4282 41.8362C77.4282 41.9017 77.4282 41.9017 77.3952 41.9344C77.3622 41.9344 77.2962 41.9672 77.2302 41.9672C77.1972 41.9672 77.0983 41.9672 76.9333 41.9344C76.7684 41.9344 76.5704 41.9017 76.3725 41.9017C76.1415 41.9017 75.9436 41.9017 75.7786 41.9344C75.6137 41.9344 75.5147 41.9672 75.4817 41.9672C75.3498 41.9672 75.2838 41.9344 75.2838 41.869C75.2838 41.8362 75.3168 41.8035 75.3498 41.7708C75.3828 41.738 75.4817 41.738 75.6467 41.738C75.8116 41.738 75.8776 41.6726 75.9436 41.6071C76.0426 41.4434 76.0426 41.2797 76.0426 41.0833Z" fill="#0BBBEF"/>
<path d="M82.4104 41.1161V36.8278C82.4104 36.5659 82.3774 36.3695 82.3444 36.304C82.3114 36.2385 82.2124 36.173 82.0805 36.173C81.8825 36.173 81.7505 36.1403 81.7176 36.1076C81.6846 36.0748 81.6846 36.0748 81.6846 36.0094C81.6846 35.9439 81.7505 35.8784 81.8825 35.8784C81.9485 35.8784 82.0475 35.8784 82.2454 35.9112C82.4434 35.9112 82.6413 35.9439 82.8062 35.9439C82.9712 35.9439 83.1691 35.9439 83.3341 35.9112C83.4991 35.9112 83.598 35.8784 83.631 35.8784C83.73 35.8784 83.796 35.9112 83.796 35.9766C83.796 36.0094 83.796 36.0094 83.796 36.0421C83.796 36.0421 83.763 36.0748 83.73 36.0748C83.697 36.0748 83.664 36.0748 83.664 36.1076C83.631 36.1076 83.598 36.1076 83.565 36.1403C83.532 36.173 83.4661 36.1403 83.4331 36.173C83.2681 36.2058 83.1691 36.2385 83.1362 36.304C83.1032 36.3695 83.0702 36.4677 83.0702 36.6641V40.9197C83.0702 41.1816 83.1032 41.378 83.2021 41.509C83.3011 41.6399 83.4661 41.6726 83.763 41.6726C84.4228 41.6726 84.8517 41.3453 85.0826 40.6578C85.1486 40.4614 85.1816 40.3305 85.1816 40.3305C85.2146 40.2977 85.2146 40.2977 85.2476 40.2977C85.2805 40.2977 85.3135 40.2977 85.3135 40.3305C85.3135 40.3632 85.3135 40.4287 85.3135 40.5596C85.3135 40.6578 85.3135 40.756 85.3135 40.887C85.3135 40.9852 85.3135 41.1161 85.3135 41.2471C85.3135 41.378 85.3135 41.4762 85.3135 41.5744C85.3135 41.7054 85.3135 41.8036 85.2805 41.8363C85.2476 41.8691 85.2146 41.9018 85.1486 41.9018C85.0496 41.9018 84.8187 41.9018 84.4228 41.8691C84.0269 41.8691 83.565 41.8363 83.0372 41.8363C82.7733 41.8363 82.5093 41.8363 82.2784 41.8691C82.0475 41.8691 81.9155 41.9018 81.8825 41.9018C81.7505 41.9018 81.6846 41.8691 81.6846 41.8036C81.6846 41.7709 81.7176 41.7381 81.7506 41.7054C81.7835 41.6726 81.8825 41.6726 81.9815 41.6399C82.1464 41.6399 82.2454 41.6072 82.3114 41.509C82.3774 41.4108 82.4104 41.3126 82.4104 41.1161Z" fill="#0BBBEF"/>
<path d="M89.2061 41.0507V36.5332C89.2061 36.3695 89.2061 36.2713 89.1731 36.2385C89.1401 36.1731 89.0742 36.1403 88.9752 36.1403C88.9422 36.1403 88.9092 36.1403 88.8432 36.1076C88.8102 36.1076 88.7773 36.1076 88.7443 36.1076C88.7113 36.1076 88.7113 36.1076 88.6783 36.0749C88.6453 36.0421 88.6453 36.0421 88.6123 36.0421C88.6123 36.0421 88.6123 36.0094 88.6123 35.9766C88.6123 35.9112 88.6783 35.8457 88.8432 35.8457C88.9092 35.8457 89.1072 35.8457 89.4371 35.8784C89.767 35.8784 90.0969 35.9112 90.3608 35.9112C90.7237 35.9112 91.0866 35.9112 91.4495 35.8784C91.8124 35.8784 92.0433 35.8457 92.1093 35.8457C92.2083 35.8457 92.2743 35.8784 92.2743 35.9112C92.3073 35.9439 92.3072 36.0749 92.3072 36.2385C92.3072 36.4022 92.3072 36.5986 92.3072 36.7623C92.3072 36.9587 92.3072 37.0569 92.3072 37.1224C92.3072 37.2206 92.3073 37.2533 92.2743 37.2861C92.2413 37.3188 92.2413 37.3188 92.1753 37.3188C92.1423 37.3188 92.0763 37.2533 92.0433 37.1551C92.0103 37.0897 91.9773 37.0242 91.9444 36.8932C91.8124 36.5659 91.6474 36.3695 91.4495 36.2385C91.2516 36.1076 90.9216 36.0421 90.5258 36.0421C90.2618 36.0421 90.0969 36.0421 89.9979 36.0749C89.8989 36.1076 89.8659 36.1731 89.8659 36.304V38.2354C89.8659 38.3336 89.8989 38.3991 89.9319 38.4318C89.9649 38.4646 90.0969 38.4646 90.3278 38.4646C90.6577 38.4646 90.9216 38.4318 91.0206 38.3991C91.1526 38.3336 91.2516 38.2354 91.2845 38.039C91.2845 38.0063 91.3175 37.9735 91.3175 37.9081C91.3175 37.8753 91.3505 37.8426 91.3505 37.8099C91.3505 37.7771 91.3505 37.7771 91.3835 37.7444C91.4165 37.7116 91.3835 37.7116 91.4165 37.6789C91.4165 37.6789 91.4165 37.6462 91.4495 37.6462L91.4825 37.6134H91.5155C91.5815 37.6134 91.6144 37.6789 91.6144 37.7771C91.6144 37.8753 91.6144 38.0063 91.5815 38.1699C91.5815 38.3336 91.5485 38.4646 91.5485 38.5628C91.5485 38.661 91.5485 38.7919 91.5815 39.0211C91.5815 39.2175 91.6144 39.3812 91.6144 39.4794C91.6144 39.5776 91.5815 39.6103 91.5155 39.6103C91.4825 39.6103 91.4495 39.5776 91.4495 39.5448C91.4495 39.5121 91.4165 39.4139 91.3835 39.283C91.3175 39.0538 91.2186 38.8901 91.1196 38.8247C90.9876 38.7592 90.7897 38.6937 90.4598 38.6937C90.2948 38.6937 90.1629 38.6937 90.0969 38.7265C90.0309 38.7265 89.9649 38.7592 89.9649 38.7919C89.9319 38.8247 89.9319 38.8574 89.9319 38.9229V40.887C89.9319 41.1489 89.9979 41.3126 90.1299 41.4108C90.2618 41.509 90.4928 41.5745 90.8227 41.5745C91.1196 41.5745 91.3505 41.5417 91.5485 41.4763C91.7134 41.4108 91.8784 41.2798 91.9773 41.1489C92.0763 40.9852 92.1753 40.7888 92.2743 40.4942C92.3073 40.3632 92.3402 40.265 92.3732 40.2323C92.4062 40.1996 92.4392 40.1668 92.4722 40.1668C92.5052 40.1668 92.5052 40.1668 92.5382 40.1996C92.5382 40.1996 92.5712 40.2323 92.5712 40.265C92.5712 40.3305 92.5712 40.5597 92.5712 41.018C92.5712 41.1162 92.5712 41.2798 92.5382 41.5745C92.5382 41.6399 92.5382 41.6727 92.5382 41.7054C92.5382 41.7381 92.5052 41.7709 92.4722 41.7709C92.4392 41.7709 92.4062 41.8036 92.4062 41.8036C92.3732 41.8036 92.3402 41.8036 92.3072 41.8036C92.0763 41.8036 91.7134 41.8036 91.2186 41.7709C91.0866 41.7709 90.9216 41.7709 90.6907 41.7709C90.4598 41.7709 90.2948 41.7709 90.1958 41.7709C90.0309 41.7709 89.833 41.7709 89.569 41.8036C89.3051 41.8036 89.0742 41.8364 88.9422 41.8364C88.8432 41.8364 88.7773 41.8364 88.7443 41.8036C88.7113 41.7709 88.6783 41.7709 88.6783 41.7054C88.6783 41.6727 88.7113 41.6399 88.7443 41.6072C88.7773 41.5745 88.8432 41.5745 88.9422 41.5417C89.1072 41.509 89.2391 41.4763 89.2721 41.4108C89.1731 41.4108 89.2061 41.2798 89.2061 41.0507Z" fill="#0BBBEF"/>
<path d="M103.095 39.7411H101.94C101.841 39.7411 101.808 39.7738 101.775 39.8066C101.742 39.8393 101.676 40.003 101.643 40.1994C101.61 40.3303 101.577 40.4613 101.544 40.5922C101.511 40.7232 101.478 40.8214 101.478 40.8868C101.478 40.9523 101.445 41.0178 101.412 41.0833C101.379 41.1487 101.379 41.2142 101.379 41.2469C101.379 41.2797 101.379 41.3124 101.379 41.3451C101.379 41.5088 101.511 41.5743 101.742 41.607C101.808 41.607 101.841 41.607 101.874 41.607C101.907 41.607 101.907 41.607 101.94 41.6398C101.973 41.6725 102.006 41.6725 102.006 41.6725C102.006 41.7052 102.039 41.7052 102.039 41.738C102.039 41.8034 101.973 41.8362 101.874 41.8362C101.808 41.8362 101.709 41.8362 101.577 41.8034C101.445 41.8034 101.313 41.7707 101.247 41.7707C101.148 41.7707 101.016 41.7707 100.884 41.8034C100.719 41.8034 100.653 41.8362 100.653 41.8362C100.587 41.8362 100.521 41.8034 100.521 41.738C100.521 41.6725 100.587 41.6398 100.686 41.607C100.785 41.607 100.851 41.5743 100.917 41.5416C100.983 41.5088 101.016 41.4106 101.049 41.3124C101.445 40.0684 101.94 38.4317 102.501 36.3366C102.534 36.2056 102.567 36.1074 102.6 36.0092C102.6 35.9437 102.633 35.911 102.633 35.8783C102.633 35.8455 102.666 35.8128 102.666 35.7801C102.699 35.7473 102.732 35.7473 102.765 35.7473C102.831 35.7473 102.864 35.7473 102.864 35.7801C102.897 35.8128 102.897 35.8783 102.93 35.9437C103.656 38.3989 104.183 40.1339 104.48 41.1487C104.579 41.4433 104.678 41.5743 104.81 41.607C104.81 41.607 104.843 41.607 104.876 41.607C104.909 41.607 104.909 41.607 104.942 41.607C104.942 41.607 104.975 41.607 105.008 41.607C105.041 41.607 105.041 41.607 105.041 41.6398C105.041 41.6398 105.074 41.6398 105.074 41.6725L105.107 41.7052V41.738C105.107 41.8034 105.041 41.8034 104.909 41.8034C104.843 41.8034 104.711 41.8034 104.546 41.7707C104.381 41.7707 104.282 41.738 104.183 41.738C104.084 41.738 103.953 41.738 103.788 41.7707C103.623 41.7707 103.491 41.8034 103.425 41.8034C103.326 41.8034 103.26 41.7707 103.26 41.7052C103.26 41.607 103.359 41.5743 103.524 41.5743C103.722 41.5743 103.854 41.5088 103.854 41.3451C103.854 41.3124 103.854 41.2469 103.821 41.1487C103.788 41.0505 103.755 40.9196 103.689 40.7232C103.623 40.5267 103.557 40.3303 103.524 40.1339C103.458 39.9048 103.392 39.7738 103.359 39.7411C103.326 39.7083 103.194 39.7411 103.095 39.7411ZM102.039 39.4792H102.963C103.062 39.4792 103.095 39.4792 103.128 39.4792C103.161 39.4792 103.161 39.4465 103.161 39.4137C103.161 39.381 103.161 39.2828 103.128 39.2173C103.128 39.1846 103.062 38.9554 102.93 38.5626C102.798 38.1698 102.699 37.8097 102.6 37.4823C102.567 37.3514 102.534 37.2859 102.468 37.2859C102.435 37.2859 102.402 37.3186 102.402 37.3514C102.402 37.3841 102.369 37.4823 102.336 37.6133C102.27 37.9079 102.171 38.2352 102.072 38.5953C101.973 38.9554 101.907 39.1518 101.907 39.1518C101.841 39.3483 101.841 39.4465 101.841 39.4792C101.841 39.5119 101.841 39.5119 101.874 39.5447C101.907 39.4792 101.973 39.4792 102.039 39.4792Z" fill="#0BBBEF"/>
<path d="M109.463 39.2175V41.0834C109.463 41.2471 109.496 41.378 109.529 41.4762C109.562 41.5417 109.661 41.6072 109.826 41.6072C110.024 41.6399 110.156 41.6726 110.189 41.7054C110.222 41.7381 110.222 41.7381 110.222 41.7709C110.222 41.8363 110.156 41.8691 110.057 41.8691C110.057 41.8691 109.958 41.8691 109.76 41.8363C109.595 41.8363 109.397 41.8036 109.166 41.8036C108.935 41.8036 108.737 41.8036 108.572 41.8363C108.407 41.8363 108.308 41.8691 108.275 41.8691C108.209 41.8691 108.143 41.8691 108.11 41.8363C108.077 41.8363 108.077 41.8036 108.077 41.7709C108.077 41.7381 108.11 41.7054 108.143 41.6727C108.176 41.6727 108.242 41.6399 108.374 41.6399C108.44 41.6399 108.473 41.6399 108.506 41.6072C108.638 41.5744 108.737 41.5417 108.77 41.4762C108.803 41.4108 108.836 41.2798 108.836 41.0507V36.6968C108.836 36.5004 108.803 36.3367 108.77 36.2712C108.737 36.2058 108.638 36.1403 108.506 36.1403C108.473 36.1403 108.44 36.1403 108.374 36.1403C108.341 36.1403 108.275 36.1403 108.275 36.1403C108.242 36.1403 108.209 36.1403 108.176 36.1076C108.143 36.1076 108.11 36.0748 108.11 36.0748C108.11 36.0748 108.077 36.0421 108.077 36.0094C108.077 35.9112 108.143 35.8784 108.275 35.8784C108.341 35.8784 108.473 35.8784 108.638 35.9112C108.803 35.9112 108.935 35.9439 109.001 35.9439C109.133 35.9439 109.364 35.9439 109.628 35.9112C109.892 35.9112 110.09 35.8784 110.222 35.8784C110.749 35.8784 111.211 36.0094 111.541 36.304C111.871 36.5659 112.036 36.926 112.036 37.3515C112.036 37.9408 111.739 38.3663 111.178 38.6282C111.079 38.661 110.98 38.6937 110.914 38.7264C110.815 38.7592 110.749 38.7592 110.716 38.7592C110.683 38.7592 110.65 38.7919 110.65 38.7919C110.65 38.7919 110.683 38.8246 110.716 38.8246C110.749 38.8574 110.782 38.8901 110.848 38.9228C110.914 38.9556 110.914 39.0211 110.98 39.0865C111.112 39.3811 111.31 39.7412 111.475 40.1668C111.673 40.5924 111.805 40.887 111.871 41.0179C111.97 41.1816 112.036 41.3126 112.102 41.4108C112.168 41.509 112.234 41.5417 112.333 41.5417C112.366 41.5417 112.399 41.5417 112.432 41.5417C112.465 41.5417 112.531 41.5417 112.531 41.5417C112.564 41.5417 112.597 41.5417 112.63 41.5744C112.663 41.6072 112.696 41.6072 112.696 41.6072C112.696 41.6072 112.729 41.6399 112.729 41.6727C112.729 41.7381 112.663 41.7709 112.564 41.7709C112.531 41.7709 112.465 41.7709 112.366 41.7381C112.267 41.7381 112.168 41.7054 112.102 41.7054C112.036 41.7054 111.97 41.7054 111.838 41.7381C111.706 41.7381 111.64 41.7709 111.607 41.7709C111.541 41.7709 111.508 41.7381 111.475 41.7054C111.442 41.6399 111.376 41.5417 111.31 41.3453C111.244 41.2143 111.145 40.9197 110.947 40.5269C110.782 40.1013 110.617 39.7412 110.485 39.4139C110.386 39.2175 110.288 39.0538 110.222 38.9883C110.156 38.9228 109.991 38.8901 109.793 38.8901C109.661 38.8901 109.562 38.8901 109.529 38.9228C109.463 39.0538 109.463 39.1193 109.463 39.2175ZM109.463 36.5986V38.6282C109.463 38.6937 109.496 38.7264 109.529 38.7592C109.562 38.7919 109.661 38.7919 109.826 38.7919C110.024 38.7919 110.222 38.7592 110.386 38.7264C110.551 38.661 110.716 38.5955 110.881 38.4973C111.046 38.3991 111.145 38.2681 111.244 38.0717C111.343 37.8753 111.376 37.6789 111.376 37.4497C111.376 37.0242 111.277 36.6968 111.046 36.4677C110.815 36.2385 110.518 36.1403 110.09 36.1403C109.826 36.1403 109.628 36.173 109.562 36.2385C109.496 36.2712 109.463 36.4022 109.463 36.5986Z" fill="#0BBBEF"/>
<path d="M117.314 41.0833V36.3366C117.314 36.2711 117.281 36.2057 117.248 36.2057C117.215 36.2057 117.083 36.1729 116.885 36.1729C116.621 36.1729 116.423 36.2384 116.258 36.3694C116.093 36.5003 115.961 36.6967 115.862 36.9586C115.829 37.0241 115.796 37.0895 115.764 37.1878C115.731 37.286 115.698 37.3514 115.665 37.4169C115.632 37.4824 115.599 37.4824 115.566 37.4824C115.533 37.4824 115.5 37.4824 115.467 37.4496C115.467 37.4169 115.434 37.3842 115.434 37.286C115.434 37.286 115.434 37.2532 115.434 37.1878C115.434 37.1223 115.434 37.0895 115.467 37.0568C115.533 36.6312 115.566 36.2711 115.632 35.9765C115.698 35.7474 115.731 35.6492 115.796 35.6492C115.862 35.6492 115.895 35.6819 115.928 35.7801C115.928 35.7801 115.928 35.7801 115.928 35.8128V35.8456C115.928 35.8456 115.928 35.8456 115.928 35.8783C115.928 35.9111 115.928 35.9111 115.928 35.9111C115.928 35.9111 115.928 35.9111 115.961 35.9438C115.994 35.9765 115.961 35.9438 115.994 35.9765C115.994 35.9765 115.994 35.9765 116.027 35.9765H116.06H116.093H116.126H119.063C119.294 35.9765 119.425 35.9111 119.458 35.8128V35.7801C119.458 35.7801 119.458 35.7474 119.491 35.7474C119.491 35.7474 119.491 35.7474 119.524 35.7146L119.557 35.6819H119.59H119.623C119.656 35.6819 119.689 35.7146 119.722 35.7474C119.755 35.7801 119.755 35.8456 119.755 35.9438C119.755 35.9765 119.755 36.042 119.755 36.1075C119.755 36.1729 119.755 36.2384 119.755 36.2712C119.755 36.5658 119.722 36.8931 119.689 37.1878C119.689 37.3842 119.623 37.5151 119.557 37.5151C119.524 37.5151 119.524 37.5151 119.491 37.4824C119.491 37.4824 119.458 37.4496 119.458 37.4169C119.458 37.3842 119.425 37.3514 119.425 37.3187C119.425 37.286 119.392 37.2532 119.392 37.1878C119.392 37.1223 119.359 37.0895 119.359 37.0568C119.326 36.9259 119.294 36.8277 119.261 36.7294C119.228 36.664 119.195 36.5658 119.129 36.4676C119.063 36.3694 118.997 36.3039 118.898 36.2712C118.799 36.2384 118.667 36.2057 118.535 36.2057H118.172C118.073 36.2057 118.007 36.2057 117.974 36.2384C117.941 36.2711 117.941 36.3039 117.941 36.4021V41.1488C117.941 41.3452 117.974 41.4761 118.007 41.5416C118.04 41.6071 118.139 41.6726 118.238 41.6726C118.271 41.6726 118.304 41.6726 118.37 41.7053C118.436 41.7053 118.469 41.7053 118.502 41.7053C118.535 41.7053 118.568 41.7053 118.601 41.738C118.634 41.738 118.667 41.7708 118.667 41.7708C118.667 41.7708 118.7 41.8035 118.7 41.8362C118.7 41.9017 118.7 41.9017 118.667 41.9344C118.634 41.9344 118.568 41.9672 118.502 41.9672C118.469 41.9672 118.37 41.9672 118.205 41.9344C118.04 41.9344 117.842 41.9017 117.644 41.9017C117.413 41.9017 117.215 41.9017 117.05 41.9344C116.885 41.9344 116.786 41.9672 116.753 41.9672C116.621 41.9672 116.555 41.9344 116.555 41.869C116.555 41.8362 116.588 41.8035 116.621 41.7708C116.654 41.738 116.753 41.738 116.918 41.738C117.083 41.738 117.149 41.6726 117.215 41.6071C117.281 41.5416 117.314 41.2797 117.314 41.0833Z" fill="#0BBBEF"/>
<path d="M124.341 36.5658V41.0834C124.341 41.2798 124.374 41.4107 124.407 41.4762C124.44 41.5417 124.539 41.6072 124.704 41.6399C124.704 41.6399 124.737 41.6399 124.77 41.6399C124.803 41.6399 124.836 41.6399 124.836 41.6399C124.836 41.6399 124.869 41.6399 124.902 41.6399C124.935 41.6399 124.935 41.6399 124.968 41.6726C124.968 41.6726 125 41.6726 125 41.7054C125 41.7381 125.033 41.7381 125.033 41.7381V41.7708C125.033 41.8363 124.968 41.869 124.836 41.869C124.836 41.869 124.737 41.869 124.605 41.8363C124.44 41.8363 124.242 41.8036 124.011 41.8036C123.78 41.8036 123.582 41.8036 123.417 41.8363C123.252 41.8363 123.186 41.869 123.186 41.869C123.12 41.869 123.087 41.869 123.087 41.869C123.054 41.869 123.054 41.869 123.021 41.8363C122.988 41.8036 122.988 41.8036 122.988 41.7708V41.7381V41.7054C122.988 41.7054 122.988 41.7054 123.021 41.6726C123.021 41.6726 123.054 41.6726 123.054 41.6399H123.087H123.12C123.153 41.6399 123.153 41.6399 123.153 41.6399C123.153 41.6399 123.186 41.6399 123.219 41.6399C123.252 41.6399 123.252 41.6399 123.285 41.6399C123.45 41.6072 123.549 41.5744 123.615 41.509C123.648 41.4435 123.681 41.3125 123.681 41.1161V36.5658C123.681 36.4022 123.648 36.304 123.615 36.2385C123.582 36.173 123.483 36.173 123.351 36.1403C123.318 36.1403 123.285 36.1403 123.252 36.1403C123.219 36.1403 123.186 36.1403 123.153 36.1403C123.12 36.1403 123.12 36.1403 123.087 36.1403C123.054 36.1403 123.054 36.1403 123.021 36.1403C123.021 36.1403 122.988 36.1403 122.988 36.1075C122.988 36.0748 122.955 36.0748 122.955 36.0748V36.0421C122.955 35.9766 123.021 35.9111 123.153 35.9111C123.252 35.9111 123.384 35.9111 123.549 35.9439C123.747 35.9439 123.879 35.9766 123.978 35.9766C124.077 35.9766 124.242 35.9766 124.44 35.9439C124.638 35.9439 124.77 35.9111 124.836 35.9111C124.968 35.9111 125.033 35.9439 125.033 36.0421C125.033 36.0748 125.033 36.0748 125.033 36.0748C125.033 36.0748 125.033 36.1075 125 36.1075C125 36.1075 124.968 36.1075 124.968 36.1403C124.968 36.1403 124.935 36.1403 124.902 36.1403C124.869 36.1403 124.836 36.1403 124.836 36.1403C124.803 36.1403 124.77 36.1403 124.737 36.1403C124.704 36.1403 124.671 36.1403 124.638 36.1403C124.506 36.1403 124.407 36.2058 124.374 36.2385C124.374 36.3367 124.341 36.4349 124.341 36.5658Z" fill="#0BBBEF"/>
<path d="M131.698 40.1994C131.698 40.7232 131.533 41.1488 131.17 41.4761C130.807 41.8035 130.378 41.9672 129.784 41.9672C129.289 41.9672 128.894 41.869 128.597 41.7053C128.531 41.6726 128.498 41.6071 128.465 41.5089C128.432 41.4107 128.432 41.247 128.432 40.9851C128.432 40.5595 128.432 40.2977 128.465 40.134C128.465 40.1012 128.498 40.0685 128.498 40.0358C128.498 40.0358 128.531 40.003 128.564 40.003H128.597H128.63C128.63 40.003 128.63 40.003 128.663 40.0358V40.0685V40.1012V40.134V40.1667V40.1994C128.861 41.1815 129.289 41.6726 129.916 41.6726C130.246 41.6726 130.51 41.5416 130.708 41.3125C130.906 41.0833 131.038 40.756 131.038 40.3959C131.038 40.0685 130.939 39.8066 130.774 39.5775C130.609 39.3483 130.345 39.1519 130.015 38.9555C129.982 38.9227 129.916 38.89 129.817 38.8245C129.718 38.7591 129.652 38.7263 129.586 38.6936C129.454 38.5954 129.322 38.5299 129.223 38.4644C129.124 38.399 129.025 38.3008 128.927 38.2026C128.828 38.1044 128.729 38.0061 128.663 37.9079C128.597 37.8097 128.531 37.6788 128.498 37.5478C128.465 37.4169 128.432 37.2532 128.432 37.0895C128.432 36.6967 128.597 36.3366 128.927 36.0747C129.256 35.7801 129.652 35.6492 130.114 35.6492C130.312 35.6492 130.51 35.6819 130.741 35.7474C130.972 35.8128 131.137 35.8783 131.203 35.9438C131.236 35.9765 131.269 35.9765 131.269 36.0093C131.269 36.042 131.269 36.1075 131.302 36.2384C131.302 36.2711 131.302 36.3694 131.302 36.5003C131.302 36.6312 131.302 36.7622 131.302 36.8604C131.302 37.0568 131.302 37.1878 131.302 37.2205C131.302 37.2532 131.269 37.286 131.236 37.286C131.203 37.286 131.17 37.286 131.17 37.2532C131.137 37.2205 131.137 37.2205 131.137 37.1878C131.137 37.155 131.137 37.1223 131.104 37.0895C131.071 37.0568 131.104 36.9913 131.071 36.9586C130.972 36.5658 130.807 36.3039 130.642 36.1075C130.477 35.9438 130.246 35.8456 130.015 35.8456C129.751 35.8456 129.52 35.9438 129.355 36.1075C129.19 36.2712 129.058 36.5003 129.058 36.7622C129.058 36.9586 129.091 37.1223 129.157 37.286C129.223 37.4496 129.322 37.5806 129.487 37.7115C129.652 37.8425 129.751 37.9407 129.85 38.0061C129.949 38.0716 130.114 38.1698 130.312 38.268C130.345 38.3008 130.378 38.3008 130.411 38.3335C130.576 38.4317 130.675 38.4972 130.774 38.5627C130.873 38.6281 130.972 38.7263 131.104 38.8245C131.236 38.9227 131.335 39.0537 131.401 39.1519C131.467 39.2501 131.533 39.381 131.566 39.5447C131.665 39.8394 131.698 40.003 131.698 40.1994Z" fill="#0BBBEF"/>
<path d="M136.614 41.0833V36.3366C136.614 36.2711 136.581 36.2057 136.548 36.2057C136.515 36.2057 136.383 36.1729 136.185 36.1729C135.921 36.1729 135.723 36.2384 135.558 36.3694C135.393 36.5003 135.261 36.6967 135.162 36.9586C135.129 37.0241 135.096 37.0895 135.063 37.1878C135.03 37.286 134.997 37.3514 134.964 37.4169C134.931 37.4824 134.898 37.4824 134.865 37.4824C134.832 37.4824 134.799 37.4824 134.766 37.4496C134.766 37.4169 134.733 37.3842 134.733 37.286C134.733 37.286 134.733 37.2532 134.733 37.1878C134.733 37.1223 134.733 37.0895 134.766 37.0568C134.832 36.6312 134.865 36.2711 134.931 35.9765C134.997 35.7474 135.03 35.6492 135.096 35.6492C135.162 35.6492 135.195 35.6819 135.228 35.7801C135.228 35.7801 135.228 35.7801 135.228 35.8128V35.8456C135.228 35.8456 135.228 35.8456 135.228 35.8783C135.228 35.9111 135.228 35.9111 135.228 35.9111C135.228 35.9111 135.228 35.9111 135.261 35.9438C135.294 35.9765 135.261 35.9438 135.294 35.9765C135.294 35.9765 135.294 35.9765 135.327 35.9765H135.36H135.393H135.426H138.362C138.593 35.9765 138.725 35.9111 138.758 35.8128V35.7801C138.758 35.7801 138.758 35.7474 138.791 35.7474C138.791 35.7474 138.791 35.7474 138.824 35.7146L138.857 35.6819H138.89H138.923C138.956 35.6819 138.989 35.7146 139.022 35.7474C139.055 35.7801 139.055 35.8456 139.055 35.9438C139.055 35.9765 139.055 36.042 139.055 36.1075C139.055 36.1729 139.055 36.2384 139.055 36.2712C139.055 36.5658 139.022 36.8931 138.989 37.1878C138.989 37.3842 138.923 37.5151 138.857 37.5151C138.824 37.5151 138.824 37.5151 138.791 37.4824C138.791 37.4824 138.758 37.4496 138.758 37.4169C138.758 37.3842 138.725 37.3514 138.725 37.3187C138.725 37.286 138.692 37.2532 138.692 37.1878C138.692 37.1223 138.659 37.0895 138.659 37.0568C138.626 36.9259 138.593 36.8277 138.56 36.7294C138.527 36.664 138.494 36.5658 138.428 36.4676C138.362 36.3694 138.296 36.3039 138.197 36.2712C138.098 36.2384 137.966 36.2057 137.835 36.2057H137.472C137.373 36.2057 137.307 36.2057 137.274 36.2384C137.241 36.2711 137.241 36.3039 137.241 36.4021V41.1488C137.241 41.3452 137.274 41.4761 137.307 41.5416C137.34 41.6071 137.439 41.6726 137.538 41.6726C137.571 41.6726 137.604 41.6726 137.67 41.7053C137.736 41.7053 137.769 41.7053 137.802 41.7053C137.835 41.7053 137.868 41.7053 137.901 41.738C137.933 41.738 137.966 41.7708 137.966 41.7708C137.966 41.7708 137.999 41.8035 137.999 41.8362C137.999 41.9017 137.999 41.9017 137.966 41.9344C137.933 41.9344 137.868 41.9672 137.802 41.9672C137.769 41.9672 137.67 41.9672 137.505 41.9344C137.34 41.9344 137.142 41.9017 136.944 41.9017C136.713 41.9017 136.515 41.9017 136.35 41.9344C136.185 41.9344 136.086 41.9672 136.053 41.9672C135.921 41.9672 135.855 41.9344 135.855 41.869C135.855 41.8362 135.888 41.8035 135.921 41.7708C135.954 41.738 136.053 41.738 136.218 41.738C136.383 41.738 136.449 41.6726 136.515 41.6071C136.581 41.5416 136.614 41.2797 136.614 41.0833Z" fill="#0BBBEF"/>
<path d="M145.521 40.1994C145.521 40.7232 145.356 41.1488 144.993 41.4761C144.63 41.8035 144.201 41.9672 143.607 41.9672C143.113 41.9672 142.717 41.869 142.42 41.7053C142.354 41.6726 142.321 41.6071 142.288 41.5089C142.255 41.4107 142.255 41.247 142.255 40.9851C142.255 40.5595 142.255 40.2977 142.288 40.134C142.288 40.1012 142.321 40.0685 142.321 40.0358C142.321 40.0358 142.354 40.003 142.387 40.003H142.42H142.453C142.453 40.003 142.453 40.003 142.486 40.0358V40.0685V40.1012V40.134V40.1667V40.1994C142.684 41.1815 143.113 41.6726 143.739 41.6726C144.069 41.6726 144.333 41.5416 144.531 41.3125C144.729 41.0833 144.861 40.756 144.861 40.3959C144.861 40.0685 144.762 39.8066 144.597 39.5775C144.432 39.3483 144.168 39.1519 143.838 38.9555C143.805 38.9227 143.739 38.89 143.64 38.8245C143.542 38.7591 143.476 38.7263 143.41 38.6936C143.278 38.5954 143.146 38.5299 143.047 38.4644C142.948 38.399 142.849 38.3008 142.75 38.2026C142.651 38.1044 142.552 38.0061 142.486 37.9079C142.42 37.8097 142.354 37.6788 142.321 37.5478C142.288 37.4169 142.255 37.2532 142.255 37.0895C142.255 36.6967 142.42 36.3366 142.75 36.0747C143.08 35.7801 143.476 35.6492 143.937 35.6492C144.135 35.6492 144.333 35.6819 144.564 35.7474C144.795 35.8128 144.96 35.8783 145.026 35.9438C145.059 35.9765 145.092 35.9765 145.092 36.0093C145.092 36.042 145.092 36.1075 145.125 36.2384C145.125 36.2711 145.125 36.3694 145.125 36.5003C145.125 36.6312 145.125 36.7622 145.125 36.8604C145.125 37.0568 145.125 37.1878 145.125 37.2205C145.125 37.2532 145.092 37.286 145.059 37.286C145.026 37.286 144.993 37.286 144.993 37.2532C144.96 37.2205 144.96 37.2205 144.96 37.1878C144.96 37.155 144.96 37.1223 144.927 37.0895C144.894 37.0568 144.927 36.9913 144.894 36.9586C144.795 36.5658 144.63 36.3039 144.465 36.1075C144.3 35.9438 144.069 35.8456 143.838 35.8456C143.575 35.8456 143.344 35.9438 143.179 36.1075C143.014 36.2712 142.882 36.5003 142.882 36.7622C142.882 36.9586 142.915 37.1223 142.981 37.286C143.047 37.4496 143.146 37.5806 143.311 37.7115C143.476 37.8425 143.575 37.9407 143.673 38.0061C143.772 38.0716 143.937 38.1698 144.135 38.268C144.168 38.3008 144.201 38.3008 144.234 38.3335C144.399 38.4317 144.498 38.4972 144.597 38.5627C144.696 38.6281 144.795 38.7263 144.927 38.8245C145.059 38.9227 145.158 39.0537 145.224 39.1519C145.29 39.2501 145.356 39.381 145.389 39.5447C145.488 39.8394 145.521 40.003 145.521 40.1994Z" fill="#0BBBEF"/>
</g>
<defs>
<clipPath id="clip0_131_4086">
<rect width="173.86" height="42" fill="white"/>
</clipPath>
</defs>
</svg>
