<svg width="64" height="64" viewBox="0 0 64 64" fill="none" xmlns="http://www.w3.org/2000/svg">
<rect width="64" height="64" rx="16" fill="#0BBBEF"/>
<g clip-path="url(#clip0_131_4194)">
<path d="M29.1765 25.4118V19.2544L19.7647 17.9995V16H16V17.8824H17.8824V29.1765H19.7647V31.0588H21.6471V29.1765H25.4118V31.0588H27.2941V29.1765H29.1765V27.2941H19.7647V25.4118H29.1765Z" fill="white"/>
<path d="M43.1271 34.8235H41.5791L36.7061 41.0889V48H41.4119V43.6078H43.2943V48H48.0002V41.0889L43.1271 34.8235Z" fill="white"/>
<path d="M34.8232 44.2353H22.8586C20.6335 44.2353 18.8232 42.425 18.8232 40.2C18.8232 38.4533 19.938 36.9128 21.5971 36.3668L42.1276 29.6099C43.0128 29.3186 43.6076 28.4967 43.6076 27.5647C43.6076 26.3776 42.6417 25.4118 41.4546 25.4118H31.0585V23.5294H41.4546C43.6796 23.5294 45.4899 25.3397 45.4899 27.5647C45.4899 29.3114 44.3752 30.8519 42.7161 31.3979L22.1856 38.1548C21.3004 38.4461 20.7056 39.268 20.7056 40.2C20.7056 41.3871 21.6714 42.3529 22.8586 42.3529H34.8232V44.2353Z" fill="white"/>
</g>
<defs>
<clipPath id="clip0_131_4194">
<rect width="32" height="32" fill="white" transform="translate(16 16)"/>
</clipPath>
</defs>
</svg>
