<svg width="23" height="22" viewBox="0 0 23 22" fill="none" xmlns="http://www.w3.org/2000/svg">
<path d="M8.62995 1.24623L8.62994 1.24623C5.64436 2.08686 3.33898 3.90781 1.95007 6.52693C0.523942 9.216 0.553047 12.9596 2.02159 15.5931L2.45507 16.3704L1.69952 18.156C1.30748 19.0825 1.07813 19.6807 0.984366 20.0831C0.937389 20.2847 0.922234 20.4458 0.942254 20.5789C0.962912 20.7162 1.02042 20.8195 1.10845 20.9033C1.28939 21.0756 1.53616 21.1079 1.95557 21.0184C2.37513 20.9288 3.00054 20.71 3.97308 20.335L5.84981 19.6113L6.67757 20.0299C9.4465 21.43 13.3726 21.4589 16.1928 20.1006C18.3063 19.0826 19.9854 17.4845 21.0517 15.4737C22.4496 12.8379 22.4495 9.15947 21.0511 6.52688C19.6462 3.88144 17.3439 2.07342 14.3248 1.24024L14.2982 1.33654L14.3248 1.24024C12.6728 0.78436 10.2619 0.786837 8.62995 1.24623ZM4.38644 18.4739L4.38642 18.4739C4.02621 18.6136 3.6942 18.7355 3.44967 18.8195C3.3503 18.8536 3.26611 18.8812 3.20069 18.9011C3.22134 18.8401 3.24942 18.7626 3.28387 18.6716C3.37199 18.4389 3.49998 18.1229 3.64656 17.78L3.64657 17.78C3.79407 17.4347 3.92832 17.0959 4.02587 16.8278C4.0746 16.6938 4.1145 16.5766 4.14237 16.4847C4.15628 16.4388 4.1675 16.3981 4.17534 16.3643C4.18265 16.3327 4.18882 16.2997 4.18882 16.2725C4.18882 16.2226 4.16943 16.1581 4.14609 16.0953C4.12111 16.0281 4.08569 15.9478 4.04298 15.8601C3.95745 15.6845 3.84009 15.4741 3.71126 15.2703L3.71125 15.2703C2.11039 12.7388 2.14005 9.22405 3.78943 6.58107C4.07233 6.12775 4.59686 5.53432 5.17528 4.98352C5.7536 4.43281 6.37701 3.93307 6.85368 3.66333C8.91361 2.49763 11.3589 2.16134 13.7486 2.71722L13.7712 2.61982L13.7486 2.71722C16.5616 3.37153 19.102 5.60458 20.0145 8.21955L20.1089 8.18661L20.0145 8.21956C20.8421 10.5911 20.5415 13.2898 19.2123 15.4196L19.2972 15.4725L19.2123 15.4196C18.9294 15.8729 18.4049 16.4663 17.8265 17.0171C17.2481 17.5678 16.6247 18.0676 16.1481 18.3373C13.3858 19.9005 9.66233 19.933 7.02714 18.4214C6.80884 18.2962 6.58402 18.1822 6.39698 18.0992C6.30355 18.0577 6.21834 18.0234 6.14735 17.9993C6.08048 17.9766 6.01421 17.9585 5.9644 17.9585C5.93753 17.9585 5.90421 17.964 5.87111 17.971C5.83595 17.9784 5.79356 17.989 5.74548 18.0022C5.64921 18.0286 5.52637 18.0666 5.38581 18.1129C5.1045 18.2058 4.74887 18.3335 4.38644 18.4739Z" fill="white" stroke="white" stroke-width="0.2"/>
</svg>
