<svg width="16" height="16" viewBox="0 0 16 16" fill="none" xmlns="http://www.w3.org/2000/svg">
<g clip-path="url(#clip0_7452_8872)">
<g clip-path="url(#clip1_7452_8872)">
<path d="M15.5312 7.53125H14.8027L15.1598 6.91269C15.2893 6.6885 15.2124 6.40178 14.9882 6.27237C14.764 6.14287 14.4773 6.21972 14.3479 6.44394L13.7201 7.53125H9.13166L12.3762 4.28669L13.5889 4.61162C13.6296 4.62253 13.6704 4.62775 13.7106 4.62775C13.9175 4.62775 14.107 4.48962 14.1631 4.28022C14.2301 4.03016 14.0817 3.77309 13.8316 3.70609L13.1417 3.52122L13.6127 3.05022C13.7957 2.86719 13.7957 2.57037 13.6127 2.38731C13.4297 2.20428 13.1328 2.20428 12.9498 2.38731L12.4788 2.85834L12.2939 2.16841C12.2268 1.91834 11.9699 1.77016 11.7198 1.83697C11.4697 1.904 11.3213 2.16103 11.3883 2.41109L11.7133 3.62384L8.46875 6.86834V2.27984L9.55606 1.65209C9.78025 1.52266 9.85709 1.236 9.72762 1.01178C9.59816 0.78753 9.31147 0.710749 9.08731 0.840218L8.46875 1.19734V0.468781C8.46875 0.209906 8.25887 3.05176e-05 8 3.05176e-05C7.74113 3.05176e-05 7.53125 0.209906 7.53125 0.468781V3.33587C5.16581 3.57181 3.3125 5.5735 3.3125 8C3.3125 10.4265 5.16581 12.4282 7.53125 12.6641V15.5312C7.53125 15.7901 7.74113 16 8 16C8.25887 16 8.46875 15.7901 8.46875 15.5312V14.8027L9.08731 15.1598C9.16113 15.2024 9.24172 15.2227 9.32125 15.2227C9.48325 15.2227 9.64081 15.1386 9.72762 14.9882C9.85709 14.764 9.78025 14.4773 9.55606 14.3479L8.46875 13.7202V9.13166L11.7133 12.3762L11.3883 13.589C11.3213 13.839 11.4697 14.0961 11.7198 14.1631C11.7605 14.1739 11.8012 14.1792 11.8414 14.1792C12.0484 14.1792 12.2378 14.041 12.2939 13.8316L12.4788 13.1417L12.9497 13.6127C13.0413 13.7042 13.1612 13.75 13.2812 13.75C13.4011 13.75 13.5211 13.7042 13.6126 13.6127C13.7957 13.4297 13.7957 13.1328 13.6126 12.9498L13.1416 12.4787L13.8316 12.2939C14.0816 12.2268 14.23 11.9698 14.163 11.7197C14.096 11.4697 13.839 11.3213 13.5889 11.3883L12.3761 11.7133L9.13166 8.46875H13.7202L14.3479 9.55606C14.4347 9.70647 14.5923 9.79053 14.7543 9.79053C14.8338 9.79053 14.9144 9.77028 14.9882 9.72762C15.2124 9.59819 15.2893 9.31153 15.1598 9.08731L14.8027 8.46875H15.5312C15.7901 8.46875 16 8.25887 16 8C16 7.74112 15.7901 7.53125 15.5312 7.53125ZM4.25 8C4.25 6.09097 5.68391 4.51062 7.53125 4.27925V11.7207C5.68391 11.4894 4.25 9.90903 4.25 8Z" fill="#1F354F"/>
<path d="M2.43919 8C2.43919 7.74112 2.22931 7.53125 1.97044 7.53125H0.46875C0.209875 7.53125 0 7.74112 0 8C0 8.25888 0.209875 8.46875 0.46875 8.46875H1.97044C2.22931 8.46875 2.43919 8.25888 2.43919 8Z" fill="#1F354F"/>
<path d="M3.40422 4.0679C3.49575 4.15947 3.61572 4.20522 3.73566 4.20522C3.85559 4.20522 3.97559 4.15944 4.06709 4.0679C4.25016 3.88487 4.25016 3.58809 4.06709 3.405L3.00528 2.34312C2.82228 2.16006 2.52547 2.16006 2.34237 2.34312C2.15931 2.52615 2.15931 2.82294 2.34237 3.00603L3.40422 4.0679Z" fill="#1F354F"/>
<path d="M3.40422 11.9321L2.34237 12.9939C2.15931 13.177 2.15931 13.4738 2.34237 13.6568C2.43391 13.7484 2.55387 13.7942 2.67381 13.7942C2.79375 13.7942 2.91375 13.7484 3.00525 13.6568L4.06709 12.595C4.25016 12.412 4.25016 12.1152 4.06709 11.9321C3.88406 11.7491 3.58725 11.7491 3.40422 11.9321Z" fill="#1F354F"/>
<path d="M5.30611 2.58559C5.37982 2.76803 5.55545 2.87878 5.74082 2.87878C5.79932 2.87878 5.85879 2.86774 5.91636 2.84446C6.15636 2.74746 6.27229 2.47421 6.17523 2.23421L5.61242 0.841963C5.51542 0.601963 5.24214 0.485994 5.00217 0.583088C4.76217 0.680088 4.64623 0.953338 4.74329 1.19334L5.30611 2.58559Z" fill="#1F354F"/>
<path d="M2.84448 10.0841C2.74748 9.84406 2.4742 9.72812 2.23423 9.82519L0.842011 10.388C0.602011 10.485 0.486074 10.7582 0.583136 10.9982C0.656886 11.1807 0.83248 11.2914 1.01785 11.2914C1.07635 11.2914 1.13582 11.2804 1.19339 11.2571L2.5856 10.6943C2.8256 10.5973 2.94154 10.3241 2.84448 10.0841Z" fill="#1F354F"/>
<path d="M5.89189 13.1455C5.65227 13.0473 5.37858 13.1619 5.28039 13.4014L4.71092 14.791C4.61273 15.0305 4.72736 15.3043 4.96689 15.4025C5.02508 15.4263 5.08527 15.4376 5.14448 15.4376C5.32905 15.4376 5.50408 15.3278 5.57842 15.1465L6.14789 13.757C6.24605 13.5174 6.13145 13.2437 5.89189 13.1455Z" fill="#1F354F"/>
<path d="M0.853631 5.57784L2.24316 6.14728C2.30132 6.17112 2.36151 6.18241 2.42072 6.18241C2.60532 6.18241 2.78032 6.07266 2.85466 5.89128C2.95285 5.65175 2.83822 5.37797 2.59866 5.27981L1.20913 4.71037C0.969631 4.61222 0.695819 4.72681 0.597662 4.96637C0.499444 5.20591 0.614037 5.47969 0.853631 5.57784Z" fill="#1F354F"/>
</g>
</g>
<defs>
<clipPath id="clip0_7452_8872">
<rect width="16" height="16" fill="white"/>
</clipPath>
<clipPath id="clip1_7452_8872">
<rect width="16" height="16" fill="white"/>
</clipPath>
</defs>
</svg>
