<svg width="16" height="16" viewBox="0 0 16 16" fill="none" xmlns="http://www.w3.org/2000/svg">
<g clip-path="url(#clip0_7452_8854)">
<path d="M14.8141 10.2951C15.0259 10.0549 15.1542 9.74119 15.1542 9.39832C15.1542 8.96188 14.9459 8.57284 14.6226 8.32242C15.4574 7.71671 16 6.74235 16 5.64542C16 3.81268 14.4855 2.32164 12.6239 2.32164L2.22905 2.32236C1.46629 2.32236 0.845751 2.93555 0.845751 3.68923C0.845751 4.0321 0.974138 4.34584 1.18593 4.58604C0.576431 5.02795 0.180006 5.74103 0.180006 6.54401C0.180006 7.44398 0.678884 8.23041 1.41724 8.64892C0.559913 9.25229 0 10.2402 0 11.3545C0 13.1873 1.5145 14.6784 3.37606 14.6784H13.3665C14.7193 14.6784 15.82 13.5904 15.82 12.2531C15.82 11.4501 15.4236 10.737 14.8141 10.2951ZM12.6239 3.26015C13.968 3.26015 15.0615 4.3302 15.0615 5.64542C15.0615 6.96068 13.968 8.03073 12.6239 8.03073H8.87699C9.51023 7.42621 9.9045 6.58036 9.9045 5.64542C9.9045 4.71048 9.51023 3.86464 8.87699 3.26015H12.6239ZM2.63357 8.03076C1.79818 8.03076 1.11851 7.36383 1.11851 6.54404C1.11851 5.7236 1.79818 5.05613 2.63357 5.05613H6.45761C6.70287 5.05613 6.9024 5.24831 6.9024 5.4845C6.9024 5.72069 6.70287 5.91287 6.45761 5.91287H2.73005C2.4709 5.91287 2.2608 6.12297 2.2608 6.38212C2.2608 6.64127 2.4709 6.85137 2.73005 6.85137H6.45761C7.22037 6.85137 7.84091 6.23818 7.84091 5.4845C7.84091 4.73082 7.22037 4.11763 6.45761 4.11763H2.22905C1.98378 4.11763 1.78426 3.92545 1.78426 3.68926C1.78426 3.45307 1.98378 3.2609 2.22905 3.2609L6.52847 3.26018C7.87253 3.26018 8.96602 4.33023 8.96602 5.64545C8.96602 6.96071 7.87253 8.03076 6.52847 8.03076H3.37606H2.63357ZM3.37606 13.7399C2.03199 13.7399 0.938506 12.6698 0.938506 11.3545C0.938506 10.0393 2.03199 8.96924 3.37606 8.96924H6.52844H7.12298C6.48974 9.57376 6.09547 10.4196 6.09547 11.3545C6.09547 12.2895 6.48974 13.1353 7.12298 13.7399H3.37606ZM13.3665 13.7399H9.47156C8.1275 13.7399 7.03401 12.6698 7.03401 11.3545C7.03401 10.0393 8.1275 8.96924 9.47147 8.96924L13.771 8.96996C14.0162 8.96996 14.2158 9.16213 14.2158 9.39832C14.2158 9.63451 14.0162 9.82669 13.771 9.82669H9.54239C8.77963 9.82669 8.15909 10.4398 8.15909 11.1936C8.15909 11.9473 8.77963 12.5604 9.54239 12.5604H13.2699C13.5291 12.5604 13.7392 12.3503 13.7392 12.0912C13.7392 11.832 13.5291 11.6219 13.2699 11.6219H9.54239C9.29712 11.6219 9.0976 11.4297 9.0976 11.1936C9.0976 10.9574 9.29712 10.7652 9.54239 10.7652H13.3664C14.2018 10.7652 14.8815 11.4327 14.8815 12.2531C14.8815 13.0729 14.2019 13.7399 13.3665 13.7399Z" fill="#1F354F"/>
</g>
<defs>
<clipPath id="clip0_7452_8854">
<rect width="16" height="16" fill="white"/>
</clipPath>
</defs>
</svg>
