<svg width="16" height="16" viewBox="0 0 16 16" fill="none" xmlns="http://www.w3.org/2000/svg">
<g clip-path="url(#clip0_7452_8846)">
<path d="M2.60172 8.01032C2.26818 8.34386 2.26818 8.88667 2.60172 9.22348C2.93525 9.55702 3.47807 9.55702 3.81488 9.22348C6.12348 6.91488 9.88069 6.91488 12.1893 9.22348C12.3561 9.39025 12.5751 9.47527 12.7942 9.47527C13.0133 9.47527 13.2324 9.39025 13.3992 9.22348C13.7327 8.88994 13.7327 8.34713 13.3992 8.01032C10.4235 5.03137 5.5774 5.03137 2.60172 8.01032Z" fill="#1F354F"/>
<path d="M4.91617 10.3255C4.58263 10.659 4.58263 11.2018 4.91617 11.5386C5.24971 11.8722 5.79252 11.8722 6.12933 11.5386C7.15937 10.5053 8.84014 10.5053 9.87018 11.5386C10.037 11.7054 10.256 11.7904 10.4751 11.7904C10.6942 11.7904 10.9133 11.7054 11.0801 11.5386C11.4136 11.2051 11.4136 10.6623 11.0801 10.3287C9.38296 8.62508 6.61656 8.62508 4.91617 10.3255Z" fill="#1F354F"/>
<path d="M8.0006 14.547C8.63088 14.547 9.14182 14.0361 9.14182 13.4058C9.14182 12.7755 8.63088 12.2646 8.0006 12.2646C7.37032 12.2646 6.85938 12.7755 6.85938 13.4058C6.85938 14.0361 7.37032 14.547 8.0006 14.547Z" fill="#1F354F"/>
<path d="M15.7498 5.65593C11.476 1.38534 4.52401 1.38534 0.250153 5.65593C-0.0833844 5.98947 -0.0833844 6.53228 0.250153 6.86909C0.583691 7.20263 1.12651 7.20263 1.46331 6.86909C5.06683 3.26231 10.9332 3.26231 14.54 6.86909C14.7067 7.03586 14.9258 7.12088 15.1449 7.12088C15.364 7.12088 15.5831 7.03586 15.7498 6.86909C16.0834 6.53555 16.0834 5.99274 15.7498 5.65593Z" fill="#1F354F"/>
</g>
<defs>
<clipPath id="clip0_7452_8846">
<rect width="16" height="16" fill="white"/>
</clipPath>
</defs>
</svg>
