<svg width="16" height="16" viewBox="0 0 16 16" fill="none" xmlns="http://www.w3.org/2000/svg">
<g clip-path="url(#clip0_7452_8836)">
<path d="M4.375 6.25C5.40887 6.25 6.25 5.40887 6.25 4.375C6.25 3.34113 5.40887 2.5 4.375 2.5C3.34113 2.5 2.5 3.34113 2.5 4.375C2.5 5.40887 3.34113 6.25 4.375 6.25ZM4.375 3.75C4.71962 3.75 5 4.03038 5 4.375C5 4.71962 4.71962 5 4.375 5C4.03038 5 3.75 4.71962 3.75 4.375C3.75 4.03038 4.03038 3.75 4.375 3.75Z" fill="#1F354F"/>
<path d="M15.7254 0.732437C15.5537 0.616188 15.3354 0.592625 15.1429 0.669688L12.2065 1.84422L5.42206 0.12625C5.42041 0.125813 5.41875 0.125406 5.41706 0.125C5.07769 0.0420625 4.72713 0 4.375 0C1.96263 0 0 1.96263 0 4.375C0 5.85853 0.742406 7.17172 1.875 7.96322V11.625C1.875 12.6589 2.71613 13.5 3.75 13.5V14.125C3.75 15.1589 4.59113 16 5.625 16H11.875C12.2202 16 12.5 15.7202 12.5 15.375C12.5 15.0298 12.2202 14.75 11.875 14.75H5.625C5.28038 14.75 5 14.4696 5 14.125V13.5C6.03387 13.5 6.875 12.6589 6.875 11.625V8.25584L12.2065 6.90575L15.1429 8.08028C15.3362 8.15766 15.5544 8.13328 15.7254 8.01753C15.8971 7.90128 16 7.70738 16 7.5V1.25C16 1.04262 15.8971 0.848719 15.7254 0.732437ZM1.25 4.375C1.25 2.65188 2.65184 1.25 4.375 1.25C4.62638 1.25 4.87634 1.27984 5.11791 1.33869L11.625 2.98647V5.76353L5.11791 7.41131C4.87634 7.47016 4.62638 7.5 4.375 7.5C2.65184 7.5 1.25 6.09812 1.25 4.375ZM5.625 9.75H5C4.65481 9.75 4.375 10.0298 4.375 10.375C4.375 10.7202 4.65481 11 5 11H5.625V11.625C5.625 11.9696 5.34462 12.25 5 12.25H3.75C3.40538 12.25 3.125 11.9696 3.125 11.625V8.56775C3.52125 8.68609 3.94078 8.75 4.375 8.75C4.72713 8.75 5.07769 8.70794 5.41706 8.625C5.41875 8.62459 5.42041 8.62419 5.42206 8.62375L5.625 8.57234V9.75ZM14.75 6.57684L12.875 5.82684V2.92316L14.75 2.17316V6.57684Z" fill="#1F354F"/>
</g>
<defs>
<clipPath id="clip0_7452_8836">
<rect width="16" height="16" fill="white"/>
</clipPath>
</defs>
</svg>
