<svg width="13" height="13" viewBox="0 0 13 13" fill="none" xmlns="http://www.w3.org/2000/svg">
<path d="M4.48752 3.5195C4.48286 3.51236 4.48344 3.50465 4.47718 3.49839L2.38251 1.40357L3.52054 1.40531C3.78973 1.40531 4.02354 1.17165 4.02339 0.902608L4.02354 0.519574C4.02354 0.241216 3.79715 0.0148315 3.51894 0.0148315H0.547555C0.410122 0.0148315 0.280406 0.0727743 0.184757 0.170316C0.0898357 0.264801 0.0332032 0.391896 0.0332032 0.529183V3.56317C0.0330576 3.84124 0.259442 4.06762 0.537655 4.06762L0.920834 4.06791C1.19876 4.06791 1.42485 3.84182 1.42499 3.56375L1.42427 2.42382L3.23942 4.23912C3.24044 4.24 3.24131 4.24087 3.24204 4.24174L3.47599 4.47541C3.67268 4.67224 3.98933 4.66772 4.18616 4.47089L4.45694 4.20025C4.64344 4.01347 4.65465 3.71764 4.48752 3.5195Z" fill="#1f354f"/>
<path d="M12.9988 9.49519C12.9988 9.21683 12.7727 8.99015 12.4945 8.99015L12.1116 8.98986C11.8429 8.98957 11.608 9.2244 11.608 9.49344L11.6098 10.6316L9.52325 8.5451C9.5167 8.53855 9.50505 8.53535 9.49792 8.53054C9.29978 8.36312 8.99973 8.37054 8.81323 8.55704L8.5423 8.82797C8.34576 9.02451 8.34882 9.34917 8.54594 9.54629L8.7796 9.77995C8.78047 9.78083 8.78135 9.7817 8.78222 9.78257L10.5895 11.5899L9.44987 11.5893C9.18112 11.5893 8.94571 11.8244 8.94571 12.0934L8.94659 12.4772C8.9463 12.7553 9.17326 12.9822 9.45133 12.9819L12.486 12.9831C12.6203 12.9828 12.748 12.9322 12.8436 12.8364L12.8573 12.8227C12.9494 12.7302 13.0005 12.6026 13.0005 12.4686L12.9988 9.49519Z" fill="#1f354f"/>
<path d="M4.45155 8.83717L4.18047 8.56595C3.99412 8.37975 3.69232 8.37523 3.49433 8.54237C3.48719 8.54717 3.47395 8.55314 3.46754 8.5594L1.3899 10.637L1.39121 9.49828C1.39135 9.36419 1.33953 9.23841 1.24417 9.1429C1.14866 9.04754 1.02201 8.9947 0.887776 8.99499L0.504743 8.9947C0.365564 8.9947 0.239487 9.05133 0.14806 9.1429C0.0564869 9.23418 0 9.36041 0 9.49944V12.4708C0 12.6084 0.0553222 12.7372 0.155485 12.8336C0.248077 12.93 0.376919 12.9852 0.514351 12.9852H3.54834C3.82655 12.9855 4.05294 12.7591 4.05294 12.481V12.0977C4.05294 11.9635 4.00067 11.8372 3.90502 11.7417C3.80966 11.6461 3.68359 11.5941 3.54936 11.5941L2.4103 11.595L4.20871 9.79687C4.20959 9.796 4.21031 9.79541 4.21104 9.79454L4.41428 9.5913L4.44485 9.56059C4.64168 9.36375 4.64809 9.03371 4.45155 8.83717Z" fill="#1f354f"/>
<path d="M12.9703 0.530488C12.9703 0.393202 12.9151 0.264359 12.8151 0.167836C12.7221 0.071459 12.5932 0.0159912 12.4559 0.0159912H9.48456C9.34552 0.0159912 9.2193 0.0726237 9.12802 0.163905C9.03645 0.255478 8.97982 0.381409 8.97982 0.520443V0.903477C8.97982 1.038 9.03223 1.16422 9.12773 1.25972C9.22294 1.35508 9.34916 1.40735 9.48339 1.40735L10.6222 1.40589L8.53302 3.49503C8.52676 3.50158 8.52166 3.51381 8.51686 3.52095C8.34972 3.71909 8.3554 4.01972 8.54161 4.20592L8.81283 4.47715C9.00937 4.67369 9.33737 4.66917 9.5342 4.47234L9.76787 4.23868C9.76903 4.23781 9.76961 4.23693 9.77049 4.23606L11.5804 2.42629L11.5792 3.56535C11.5792 3.69972 11.6308 3.82522 11.7263 3.92043C11.8218 4.01637 11.9486 4.06893 12.0825 4.06864L12.4658 4.06893C12.7442 4.06893 12.9704 3.84254 12.9704 3.56419L12.9703 0.530488Z" fill="#1f354f"/>
<path d="M7.4886 5.52142C6.94251 4.97577 6.05474 4.97577 5.50894 5.52142C4.96314 6.06707 4.96314 6.95514 5.50908 7.50108C6.05474 8.04674 6.9428 8.04674 7.4886 7.50108C8.03425 6.95543 8.03425 6.06707 7.4886 5.52142Z" fill="#1f354f"/>
</svg>
