<svg width="18" height="11" viewBox="0 0 18 11" fill="none" xmlns="http://www.w3.org/2000/svg">
<path fill-rule="evenodd" clip-rule="evenodd" d="M10.7415 0.935403V4.8387C10.7372 4.90315 10.7483 4.96776 10.7739 5.02705C10.7994 5.08634 10.8387 5.13863 10.8885 5.17963C10.9383 5.22065 10.9971 5.24922 11.06 5.26288C11.123 5.27653 11.1882 5.27492 11.2504 5.2582C11.6089 5.23423 12.419 1.90252 12.7787 1.18345C12.9697 0.77378 13.2763 0.429268 13.6604 0.192372C13.7818 0.0828936 13.9362 0.0174366 14.0989 0.00657798H17.5376C17.6305 0.0222514 17.7178 0.0613798 17.7913 0.12025C17.865 0.179118 17.9224 0.255776 17.9581 0.343056C17.994 0.430336 18.0072 0.525346 17.9963 0.619115C17.9855 0.712884 17.9509 0.802373 17.8961 0.87908C17.6273 1.4783 15.3212 5.20543 15.2017 5.35643C15.058 5.55129 14.961 5.77687 14.9185 6.01556C14.9658 6.29721 15.0956 6.55844 15.2914 6.76584C15.5304 7.03788 17.4612 9.16988 17.6416 9.34845C17.8115 9.54492 17.925 9.78392 17.9702 10.04C17.9272 10.2581 17.8063 10.4529 17.6304 10.5882C17.4545 10.7234 17.2355 10.7896 17.0143 10.7746C16.2664 10.7746 14.4263 10.7746 14.216 10.7746C13.7957 10.6271 13.409 10.3969 13.0786 10.0975C12.8098 9.85779 11.8132 8.71689 11.6639 8.56709C11.6133 8.50611 11.5487 8.45839 11.4756 8.42811C11.4026 8.39783 11.3232 8.38587 11.2445 8.39329C11.0652 8.39329 10.7247 8.41133 10.7402 9.09324C10.7827 9.56685 10.6837 10.0424 10.4559 10.4594C10.3392 10.5716 10.201 10.6588 10.0496 10.7154C9.89814 10.7721 9.73675 10.7971 9.57533 10.789C8.35315 10.8633 7.13773 10.5592 6.0936 9.91776C4.21293 8.74567 2.07179 5.61649 1.0753 3.62108C0.480909 2.62981 0.113648 1.51846 0 0.36734C0.0597414 0.156414 0.0596843 0.00774832 0.269974 0.00774832C0.480264 0.00774832 3.12446 0.00774832 3.37657 0.00774832C3.55117 0.0949982 3.69685 0.231146 3.79597 0.399672C3.88559 0.519517 4.56897 2.57123 4.77807 2.93196C4.98716 3.29269 6.01829 5.26895 6.57746 5.26895C6.76313 5.23238 6.92687 5.1237 7.03296 4.96656C7.13905 4.80941 7.17889 4.61652 7.14381 4.43002C7.14381 3.95064 7.14381 2.0583 7.14381 1.81741C6.91652 1.28602 6.49991 0.85871 5.9753 0.618968C6.10595 0.444908 6.27259 0.301288 6.46377 0.197858C6.65495 0.0944298 6.86615 0.0336397 7.08291 0.0197444C7.79981 -0.0102167 9.59802 -0.0101593 9.98634 0.0485646C10.1936 0.0890576 10.3811 0.198758 10.5182 0.359807C10.6553 0.520855 10.734 0.723745 10.7415 0.935403Z" fill="white"/>
</svg>
