<svg width="51" height="51" viewBox="0 0 51 51" fill="none" xmlns="http://www.w3.org/2000/svg">
<path d="M26 49.9941C19.5938 49.9941 13.5684 47.4941 9.02734 42.9629C4.49609 38.4316 1.99609 32.4062 1.99609 25.9902C1.99609 19.584 4.49609 13.5586 9.02734 9.01758C13.5586 4.47656 19.584 1.98633 26 1.98633C32.416 1.98633 38.4316 4.48633 42.9727 9.01758C47.5137 13.5488 50.0039 19.5742 50.0039 25.9902C50.0039 32.3965 47.5039 38.4219 42.9727 42.9629C38.4316 47.5039 32.4062 49.9941 26 49.9941ZM26 3.17773C13.4121 3.17773 3.17773 13.4121 3.17773 26C3.17773 38.5879 13.4121 48.8223 26 48.8223C38.5879 48.8223 48.8223 38.5879 48.8223 26C48.8223 13.4121 38.5879 3.17773 26 3.17773Z" fill="url(#paint0_linear_271_245)"/>
<path d="M37.4941 18.7344C37.3086 18.5 36.9668 18.4707 36.7422 18.6562C36.5078 18.8418 36.4785 19.1836 36.6641 19.4082C38.6367 21.8398 39.7305 24.9062 39.7305 28.0508C39.7305 35.6191 33.5781 41.7715 26.0098 41.7715C18.4414 41.7715 12.2891 35.6191 12.2891 28.0508C12.2891 20.4824 18.4414 14.3301 26.0098 14.3301C28.4707 14.3301 30.8926 14.9941 33.002 16.2441C33.2559 16.3906 33.5879 16.3125 33.7344 16.0586C33.8809 15.8047 33.8027 15.4727 33.5488 15.3262C31.7227 14.2422 29.6816 13.5684 27.582 13.3438V11.5273H27.8555C28.5879 11.5273 29.1934 10.9316 29.1934 10.1895V8.69531C29.1934 7.96289 28.5977 7.35742 27.8555 7.35742H24.1738C23.4414 7.35742 22.8359 7.95313 22.8359 8.69531V10.1895C22.8359 10.9219 23.4316 11.5273 24.1738 11.5273H24.4473V13.3438C17.0254 14.125 11.2148 20.4238 11.2148 28.0605C11.2148 36.2148 17.8555 42.8555 26.0098 42.8555C34.1641 42.8555 40.8047 36.2148 40.8047 28.0605C40.7949 24.6621 39.623 21.3516 37.4941 18.7344ZM24.1641 10.4531C24.0273 10.4531 23.9004 10.3359 23.9004 10.1895V8.69531C23.9004 8.55859 24.0176 8.43164 24.1641 8.43164H27.8457C27.9824 8.43164 28.1094 8.54883 28.1094 8.69531V10.1895C28.1094 10.3262 27.9922 10.4531 27.8457 10.4531H24.1641ZM25.5117 11.5273H26.4883V13.2656C26.3223 13.2559 26.1562 13.2559 26 13.2559C25.834 13.2559 25.668 13.2559 25.5117 13.2656V11.5273Z" fill="url(#paint1_linear_271_245)"/>
<path d="M26 15.4531C25.707 15.4531 25.4629 15.6973 25.4629 15.9902V25.7949C24.4375 26.0391 23.6758 26.957 23.6758 28.0508C23.6758 29.3301 24.7207 30.375 26 30.375C26.791 30.375 27.4941 29.9746 27.9141 29.3691L36.7031 32.7578C36.7715 32.7871 36.8301 32.7969 36.8984 32.7969C37.1133 32.7969 37.3184 32.6699 37.3965 32.4551C37.5039 32.1816 37.3672 31.8691 37.084 31.7617L28.3047 28.373C28.3145 28.2754 28.3242 28.168 28.3242 28.0605C28.3242 26.9668 27.5625 26.0488 26.5371 25.8047V15.9902C26.5371 15.6973 26.293 15.4531 26 15.4531ZM27.25 28.0508C27.25 28.7344 26.6934 29.3008 26 29.3008C25.3066 29.3008 24.75 28.7441 24.75 28.0508C24.75 27.3574 25.3066 26.8008 26 26.8008C26.6934 26.8008 27.25 27.3672 27.25 28.0508Z" fill="url(#paint2_linear_271_245)"/>
<defs>
<linearGradient id="paint0_linear_271_245" x1="50.0039" y1="22.0977" x2="1.99609" y2="22.0977" gradientUnits="userSpaceOnUse">
<stop stop-color="#FF61FF"/>
<stop offset="0.0769231" stop-color="#D189FF"/>
<stop offset="0.153846" stop-color="#99A3FF"/>
<stop offset="0.230769" stop-color="#77BEFF"/>
<stop offset="0.307692" stop-color="#4BD9FF"/>
<stop offset="0.384615" stop-color="#29E8FF"/>
<stop offset="0.461538" stop-color="#1AF1FF"/>
<stop offset="0.538462" stop-color="#1AF1FF"/>
<stop offset="0.615385" stop-color="#29E8FF"/>
<stop offset="0.692308" stop-color="#33D6FF"/>
<stop offset="0.769231" stop-color="#36B5FF"/>
<stop offset="0.846154" stop-color="#3993FF"/>
<stop offset="0.923077" stop-color="#5A65FF"/>
<stop offset="1" stop-color="#6523FF"/>
</linearGradient>
<linearGradient id="paint1_linear_271_245" x1="50.0039" y1="22.0977" x2="1.99609" y2="22.0977" gradientUnits="userSpaceOnUse">
<stop stop-color="#FF61FF"/>
<stop offset="0.0769231" stop-color="#D189FF"/>
<stop offset="0.153846" stop-color="#99A3FF"/>
<stop offset="0.230769" stop-color="#77BEFF"/>
<stop offset="0.307692" stop-color="#4BD9FF"/>
<stop offset="0.384615" stop-color="#29E8FF"/>
<stop offset="0.461538" stop-color="#1AF1FF"/>
<stop offset="0.538462" stop-color="#1AF1FF"/>
<stop offset="0.615385" stop-color="#29E8FF"/>
<stop offset="0.692308" stop-color="#33D6FF"/>
<stop offset="0.769231" stop-color="#36B5FF"/>
<stop offset="0.846154" stop-color="#3993FF"/>
<stop offset="0.923077" stop-color="#5A65FF"/>
<stop offset="1" stop-color="#6523FF"/>
</linearGradient>
<linearGradient id="paint2_linear_271_245" x1="50.0039" y1="22.0977" x2="1.99609" y2="22.0977" gradientUnits="userSpaceOnUse">
<stop stop-color="#FF61FF"/>
<stop offset="0.0769231" stop-color="#D189FF"/>
<stop offset="0.153846" stop-color="#99A3FF"/>
<stop offset="0.230769" stop-color="#77BEFF"/>
<stop offset="0.307692" stop-color="#4BD9FF"/>
<stop offset="0.384615" stop-color="#29E8FF"/>
<stop offset="0.461538" stop-color="#1AF1FF"/>
<stop offset="0.538462" stop-color="#1AF1FF"/>
<stop offset="0.615385" stop-color="#29E8FF"/>
<stop offset="0.692308" stop-color="#33D6FF"/>
<stop offset="0.769231" stop-color="#36B5FF"/>
<stop offset="0.846154" stop-color="#3993FF"/>
<stop offset="0.923077" stop-color="#5A65FF"/>
<stop offset="1" stop-color="#6523FF"/>
</linearGradient>
</defs>
</svg>
