<svg width="51" height="51" viewBox="0 0 51 51" fill="none" xmlns="http://www.w3.org/2000/svg">
<path d="M26.0098 49.9941C19.6035 49.9941 13.5781 47.4941 9.03711 42.9629C4.49609 38.4316 2.00586 32.4062 2.00586 25.9902C2.00586 19.5742 4.50586 13.5586 9.03711 9.01758C13.5684 4.47656 19.5938 1.98633 26.0098 1.98633C32.416 1.98633 38.4414 4.48633 42.9824 9.01758C47.5137 13.5488 50.0137 19.5742 50.0137 25.9902C50.0137 32.3965 47.5137 38.4219 42.9824 42.9629C38.4414 47.5039 32.416 49.9941 26.0098 49.9941ZM26.0098 3.17773C13.4219 3.17773 3.17773 13.4121 3.17773 26C3.17773 38.5879 13.4121 48.8223 26 48.8223C38.5879 48.8223 48.832 38.5879 48.832 26C48.832 13.4121 38.5879 3.17773 26.0098 3.17773Z" fill="url(#paint0_linear_271_257)"/>
<path d="M39.8122 38.3078V36.9999C39.8188 36.7859 39.7822 36.5727 39.7048 36.3731C39.6274 36.1735 39.5106 35.9915 39.3614 35.8378C39.2123 35.6842 39.0338 35.5621 38.8365 35.4789C38.6393 35.3956 38.4273 35.3528 38.2132 35.353C38.0421 35.3562 37.8561 35.3392 37.6734 35.3265L37.6192 29.972C37.6135 29.033 37.2989 28.122 36.724 27.3797C36.1491 26.6373 35.3458 26.1048 34.4381 25.8644C33.417 23.2867 33.7586 20.7877 34.0258 18.8614C34.132 18.2189 34.1965 17.5701 34.2187 16.9192C34.2187 12.6697 30.4967 9.21234 25.9216 9.21234C21.3465 9.21234 17.6235 12.6697 17.6235 16.9197C17.6235 17.9663 17.6947 18.9162 17.7632 19.8342C18.0141 21.8497 17.9147 23.8933 17.4694 25.875C16.5682 26.1201 15.7719 26.6532 15.2019 27.393C14.6319 28.1327 14.3195 29.0386 14.3122 29.9725L14.258 35.3275C14.0986 35.3382 13.935 35.3552 13.7868 35.353C13.5718 35.353 13.359 35.3962 13.1611 35.4802C12.9632 35.5642 12.7842 35.6873 12.6349 35.842C12.4856 35.9967 12.369 36.1799 12.2921 36.3807C12.2152 36.5814 12.1795 36.7957 12.1872 37.0105V38.3084C11.865 38.3745 11.5788 38.5578 11.384 38.8228C11.1892 39.0878 11.0996 39.4157 11.1327 39.7429C11.1658 40.0701 11.3191 40.3735 11.563 40.5942C11.8068 40.8149 12.1239 40.9372 12.4528 40.9375H39.5466C39.8759 40.9379 40.1937 40.8158 40.4381 40.595C40.6825 40.3743 40.8362 40.0706 40.8693 39.7429C40.9024 39.4152 40.8126 39.0869 40.6172 38.8217C40.4219 38.5565 40.135 38.3734 39.8122 38.3078ZM38.2291 36.415C38.298 36.4156 38.3662 36.4297 38.4296 36.4566C38.4931 36.4835 38.5506 36.5226 38.599 36.5717C38.6473 36.6209 38.6855 36.679 38.7114 36.7429C38.7373 36.8068 38.7503 36.8752 38.7497 36.9441V38.2813H26.531V36.3507C26.5301 36.2623 26.5517 36.1751 26.5937 36.0972C26.6357 36.0194 26.6967 35.9534 26.7711 35.9055C28.9827 34.5301 31.7245 35.1745 34.3775 35.7982C35.6337 36.1497 36.9259 36.3566 38.2291 36.415ZM25.9221 10.2748C29.9108 10.2748 33.1567 13.2552 33.1567 16.9192C33.1334 17.521 33.0724 18.1207 32.974 18.7148C32.7259 20.5062 32.3869 22.9749 33.2104 25.577L30.9839 25.0335L29.5984 24.2132C29.3881 24.0883 29.141 24.0405 28.8993 24.0778L28.3043 22.9813C29.0186 22.6724 29.6679 22.2309 30.2178 21.6802C31.1856 20.721 31.7989 19.4616 31.9572 18.1082C32.1156 16.7549 31.8097 15.3878 31.0896 14.2311C31.0292 14.133 30.9383 14.0573 30.8309 14.0156C30.7235 13.9738 30.6054 13.9684 30.4946 14C28.7691 13.9925 25.8759 13.7088 23.9602 15.1831C22.9562 15.9881 21.7838 16.5567 20.53 16.8469C20.2989 16.9048 19.9116 17.0015 19.9116 17.4244C19.913 18.2234 20.0738 19.0141 20.3846 19.7501C20.6954 20.4862 21.1499 21.1528 21.7216 21.7111C22.2838 22.2668 22.9479 22.709 23.6776 23.0132L23.1001 24.0783C22.8587 24.0415 22.6119 24.0892 22.4016 24.2132L21.0166 25.0335L18.6164 25.6078C18.9813 23.6784 19.0512 21.7048 18.8236 19.7545C18.7556 18.8561 18.686 17.9264 18.686 16.9192C18.686 13.2557 21.9325 10.2748 25.9221 10.2748ZM26.0125 27.5989C25.3316 26.6375 24.6476 25.6784 23.9602 24.7217L24.7114 23.3362C25.5585 23.5105 26.4329 23.5029 27.2768 23.3138L28.0402 24.7217C27.3554 25.6744 26.6794 26.6335 26.0125 27.5989ZM30.9361 17.3989V17.4042C30.9311 18.7132 30.414 19.9682 29.4956 20.9008C28.5771 21.8334 27.3302 22.3697 26.0215 22.3948L25.9567 22.3942C25.3086 22.4008 24.6657 22.2768 24.0665 22.0296C23.4674 21.7825 22.9241 21.4172 22.469 20.9556C21.6175 20.1232 21.0923 19.0133 20.9884 17.8271C22.3198 17.4906 23.5625 16.8699 24.6312 16.0076C26.174 14.8229 28.8318 15.0412 30.3448 15.0641C30.73 15.782 30.933 16.5841 30.9361 17.3989ZM22.9429 25.1259C22.9429 25.1259 24.8766 27.8125 25.2783 28.3873L24.0458 29.3435C24.0025 29.382 23.9508 29.4099 23.8949 29.4248C23.8389 29.4398 23.7802 29.4414 23.7235 29.4296C23.6668 29.4178 23.6136 29.3928 23.5683 29.3567C23.523 29.3207 23.4867 29.2745 23.4625 29.2219L21.8979 25.7454L22.9429 25.1259ZM29.0565 25.1265L30.102 25.7454L28.5375 29.2208C28.5119 29.2772 28.4727 29.3263 28.4234 29.3637C28.3741 29.4011 28.3163 29.4257 28.2551 29.4351C28.1939 29.4446 28.1314 29.4386 28.0731 29.4178C28.0148 29.397 27.9626 29.362 27.9212 29.3159L26.7211 28.3873C27.1265 27.8098 29.0565 25.1265 29.0565 25.1265ZM15.3747 29.9832C15.3822 29.2183 15.6607 28.4809 16.1606 27.902C16.6606 27.3231 17.3497 26.9403 18.1053 26.8217L20.9146 26.1507L22.4935 29.6591C22.5862 29.8605 22.7241 30.0377 22.8967 30.177C23.0692 30.3163 23.2715 30.4138 23.4879 30.4619C23.7044 30.51 23.929 30.5075 24.1442 30.4545C24.3595 30.4015 24.5596 30.2995 24.729 30.1563L26.0002 29.1719L27.237 30.1282C27.4048 30.279 27.6056 30.3883 27.8234 30.4471C28.0412 30.506 28.2697 30.5128 28.4906 30.4671C28.7115 30.4213 28.9186 30.3242 29.0951 30.1837C29.2715 30.0432 29.4125 29.8631 29.5065 29.658L31.0843 26.1518L33.8638 26.8275C34.6125 26.9517 35.2933 27.3363 35.786 27.9134C36.2788 28.4906 36.5519 29.2232 36.5572 29.9821L36.6098 35.1942C35.9803 35.0826 35.3109 34.9259 34.6203 34.7639C31.9056 34.1248 28.8297 33.4017 26.2515 34.9774C26.1613 35.036 26.0769 35.1033 25.9997 35.1782C25.9225 35.1033 25.8382 35.036 25.7479 34.9774C23.1708 33.4023 20.0943 34.1248 17.3791 34.7639C16.6646 34.9317 15.9713 35.089 15.3216 35.2006L15.3747 29.9832ZM13.2497 36.9447C13.2484 36.8755 13.2609 36.8068 13.2864 36.7426C13.312 36.6783 13.3502 36.6198 13.3987 36.5705C13.4472 36.5212 13.505 36.4821 13.5689 36.4555C13.6327 36.4289 13.7012 36.4153 13.7703 36.4155C15.0744 36.3646 16.3676 36.1577 17.6224 35.7993C20.2696 35.1767 23.0061 34.5333 25.2151 35.8981C25.2926 35.9456 25.3566 36.0122 25.401 36.0915C25.4454 36.1709 25.4686 36.2603 25.4685 36.3512V38.2813H13.2497V36.9447ZM39.5466 39.875H12.4528C12.3824 39.875 12.3148 39.847 12.265 39.7972C12.2152 39.7474 12.1872 39.6799 12.1872 39.6094C12.1872 39.539 12.2152 39.4714 12.265 39.4216C12.3148 39.3718 12.3824 39.3438 12.4528 39.3438H39.5466C39.617 39.3438 39.6846 39.3718 39.7344 39.4216C39.7842 39.4714 39.8122 39.539 39.8122 39.6094C39.8122 39.6799 39.7842 39.7474 39.7344 39.7972C39.6846 39.847 39.617 39.875 39.5466 39.875Z" fill="url(#paint1_linear_271_257)"/>
<defs>
<linearGradient id="paint0_linear_271_257" x1="50.0137" y1="22.0977" x2="2.00586" y2="22.0977" gradientUnits="userSpaceOnUse">
<stop stop-color="#FF61FF"/>
<stop offset="0.0769231" stop-color="#D189FF"/>
<stop offset="0.153846" stop-color="#99A3FF"/>
<stop offset="0.230769" stop-color="#77BEFF"/>
<stop offset="0.307692" stop-color="#4BD9FF"/>
<stop offset="0.384615" stop-color="#29E8FF"/>
<stop offset="0.461538" stop-color="#1AF1FF"/>
<stop offset="0.538462" stop-color="#1AF1FF"/>
<stop offset="0.615385" stop-color="#29E8FF"/>
<stop offset="0.692308" stop-color="#33D6FF"/>
<stop offset="0.769231" stop-color="#36B5FF"/>
<stop offset="0.846154" stop-color="#3993FF"/>
<stop offset="0.923077" stop-color="#5A65FF"/>
<stop offset="1" stop-color="#6523FF"/>
</linearGradient>
<linearGradient id="paint1_linear_271_257" x1="40.8761" y1="22.5026" x2="11.126" y2="22.5026" gradientUnits="userSpaceOnUse">
<stop stop-color="#FF61FF"/>
<stop offset="0.0769231" stop-color="#D189FF"/>
<stop offset="0.153846" stop-color="#99A3FF"/>
<stop offset="0.230769" stop-color="#77BEFF"/>
<stop offset="0.307692" stop-color="#4BD9FF"/>
<stop offset="0.384615" stop-color="#29E8FF"/>
<stop offset="0.461538" stop-color="#1AF1FF"/>
<stop offset="0.538462" stop-color="#1AF1FF"/>
<stop offset="0.615385" stop-color="#29E8FF"/>
<stop offset="0.692308" stop-color="#33D6FF"/>
<stop offset="0.769231" stop-color="#36B5FF"/>
<stop offset="0.846154" stop-color="#3993FF"/>
<stop offset="0.923077" stop-color="#5A65FF"/>
<stop offset="1" stop-color="#6523FF"/>
</linearGradient>
</defs>
</svg>
