<svg width="51" height="51" viewBox="0 0 51 51" fill="none" xmlns="http://www.w3.org/2000/svg">
<path d="M26.0098 49.9941C19.6035 49.9941 13.5781 47.4941 9.03711 42.9629C4.49609 38.4316 2.00586 32.4062 2.00586 25.9902C2.00586 19.5742 4.50586 13.5586 9.03711 9.01758C13.5684 4.47656 19.5938 1.98633 26.0098 1.98633C32.416 1.98633 38.4414 4.48633 42.9824 9.01758C47.5137 13.5488 50.0137 19.5742 50.0137 25.9902C50.0137 32.3965 47.5137 38.4219 42.9824 42.9629C38.4414 47.5039 32.416 49.9941 26.0098 49.9941ZM26.0098 3.17773C13.4219 3.17773 3.17773 13.4121 3.17773 26C3.17773 38.5879 13.4121 48.8223 26 48.8223C38.5879 48.8223 48.832 38.5879 48.832 26C48.832 13.4121 38.5879 3.17773 26.0098 3.17773Z" fill="url(#paint0_linear_271_253)"/>
<path d="M30.2285 37.3086C26.6348 37.3086 23.7051 34.3789 23.7051 30.7852C23.7051 27.1914 26.6348 24.2617 30.2285 24.2617C33.8223 24.2617 36.752 27.1914 36.752 30.7852C36.752 34.3789 33.832 37.3086 30.2285 37.3086ZM30.2285 25.4336C27.2793 25.4336 24.877 27.8359 24.877 30.7852C24.877 33.7344 27.2793 36.1367 30.2285 36.1367C33.1777 36.1367 35.5801 33.7344 35.5801 30.7852C35.5801 27.8359 33.1777 25.4336 30.2285 25.4336ZM15.7363 20.3848C13.8711 20.3848 12.3574 18.8711 12.3574 17.0059C12.3574 15.1406 13.8711 13.627 15.7363 13.627C17.6016 13.627 19.1152 15.1406 19.1152 17.0059C19.1152 18.8711 17.6016 20.3848 15.7363 20.3848ZM15.7363 14.7988C14.5156 14.7988 13.5293 15.7852 13.5293 17.0059C13.5293 18.2266 14.5156 19.2129 15.7363 19.2129C16.957 19.2129 17.9434 18.2266 17.9434 17.0059C17.9434 15.7852 16.957 14.7988 15.7363 14.7988Z" fill="url(#paint1_linear_271_253)"/>
<path d="M41.6641 28.0996H41.3418C41.0586 26.9375 40.6094 25.8438 39.9844 24.8184L40.209 24.5938C41.0977 23.7051 41.0977 22.2598 40.209 21.3711L39.6328 20.7949C38.7441 19.9062 37.2988 19.9062 36.4102 20.7949L36.1855 21.0195C35.1699 20.3945 34.0664 19.9453 32.9043 19.6621V19.3398C32.9043 18.0801 31.8789 17.0645 30.6289 17.0645H29.8184C28.5586 17.0645 27.543 18.0898 27.543 19.3398V19.75C26.8984 20.043 25.4531 20.668 24.3789 20.9805L22.0352 21.498C21.4883 21.5762 20.9219 21.5176 20.4043 21.3125L20.3359 21.2832C19.3594 20.9023 18.2656 20.8926 17.2695 21.2441C17.0547 21.3223 16.8398 21.3809 16.625 21.4199C16.3516 21.4785 16.1562 21.7129 16.1562 21.9961V22.3672C16.1562 22.4844 16.0586 22.582 15.9414 22.582H15.5508C15.4336 22.582 15.3359 22.4844 15.3359 22.3672V21.9961C15.3359 21.7129 15.1406 21.4785 14.8672 21.4199C14.2715 21.3027 13.7246 21.0781 13.2266 20.7363C12.9922 20.5801 12.6797 20.6094 12.4844 20.8047L12.2207 21.0684C12.1719 21.1172 12.1035 21.127 12.0742 21.127C12.0449 21.127 11.9766 21.1172 11.9277 21.0684L11.6445 20.8242C11.5957 20.7754 11.5859 20.707 11.5859 20.6777C11.5859 20.6484 11.5957 20.5801 11.6445 20.5312L11.9082 20.2676C12.1035 20.0723 12.1328 19.7598 11.9766 19.5254C11.6445 19.0273 11.4102 18.4707 11.293 17.8848C11.2344 17.6113 11 17.416 10.7168 17.416H10.3457C10.2285 17.416 10.1309 17.3184 10.1309 17.2012V16.8203C10.1309 16.7031 10.2285 16.6055 10.3457 16.6055H10.7168C11 16.6055 11.2344 16.4102 11.293 16.1367C11.4102 15.541 11.6348 14.9941 11.9766 14.4961C12.1328 14.2617 12.1035 13.9492 11.9082 13.7539L11.6445 13.4902C11.5957 13.4414 11.5859 13.373 11.5859 13.3438C11.5859 13.3145 11.5957 13.2461 11.6445 13.1973L11.918 12.9238C11.9961 12.8457 12.1328 12.8457 12.2207 12.9238L12.4844 13.1875C12.6797 13.3828 12.9922 13.4121 13.2266 13.2559C13.7246 12.9238 14.2812 12.6895 14.8672 12.5723C15.1406 12.5137 15.3359 12.2793 15.3359 11.9961V11.625C15.3359 11.5078 15.4336 11.4102 15.5508 11.4102H15.9316C16.0488 11.4102 16.1465 11.5078 16.1465 11.625V11.9961C16.1465 12.2793 16.3418 12.5137 16.6152 12.5723C17.2109 12.6895 17.7578 12.9141 18.2559 13.2559C18.4902 13.4121 18.8027 13.3828 18.998 13.1875L19.2617 12.9238C19.3398 12.8457 19.4766 12.8457 19.5645 12.9238L19.8379 13.1973C19.916 13.2754 19.916 13.4121 19.8379 13.5L19.5742 13.7637C19.3789 13.959 19.3496 14.2715 19.5059 14.5059C19.8379 15.0039 20.0723 15.5605 20.1895 16.1465C20.248 16.4199 20.4824 16.6152 20.7656 16.6152H21.1367C21.2539 16.6152 21.3516 16.7129 21.3516 16.8301V17.2109C21.3516 17.3281 21.2539 17.4258 21.1367 17.4258H20.7656C20.4824 17.4258 20.248 17.6211 20.1895 17.8945C20.0723 18.4902 19.8477 19.0371 19.5059 19.5352C19.3301 19.8086 19.3984 20.1699 19.6621 20.3457C19.9355 20.5215 20.2969 20.4531 20.4727 20.1895C20.8047 19.6914 21.0488 19.1543 21.2148 18.5879C21.9375 18.5391 22.5039 17.9434 22.5039 17.2109V16.8301C22.5039 16.0977 21.9277 15.4922 21.2148 15.4531C21.0977 15.043 20.9316 14.6426 20.7266 14.2617C21.2051 13.7148 21.1855 12.8945 20.668 12.377L20.3945 12.1035C19.877 11.5859 19.0469 11.5664 18.5098 12.0449C18.1387 11.8398 17.7383 11.6738 17.3184 11.5566C17.2695 10.834 16.6738 10.2676 15.9414 10.2676H15.5508C14.8184 10.2676 14.2129 10.8438 14.1738 11.5566C13.7637 11.6738 13.3633 11.8398 12.9824 12.0449C12.4355 11.5664 11.6152 11.5859 11.0977 12.1035L10.8242 12.377C10.5605 12.6406 10.4238 12.9824 10.4238 13.3535C10.4238 13.6953 10.541 14.0176 10.7656 14.2617C10.5605 14.6328 10.3945 15.0332 10.2773 15.4531C9.55469 15.502 8.98828 16.0977 8.98828 16.8301V17.2109C8.98828 17.9434 9.56445 18.5488 10.2773 18.5879C10.3945 18.998 10.5605 19.3984 10.7656 19.7793C10.541 20.0332 10.4238 20.3555 10.4238 20.6875C10.4238 21.0586 10.5703 21.4004 10.8242 21.6641L11.0977 21.9375C11.3613 22.2012 11.7031 22.3379 12.0742 22.3379C12.416 22.3379 12.7383 22.2207 12.9824 21.9961C13.3535 22.2012 13.7539 22.3672 14.1738 22.4844C14.2227 23.207 14.8184 23.7734 15.5508 23.7734H15.9316C16.6641 23.7734 17.2695 23.1973 17.3086 22.4844C17.4258 22.4551 17.543 22.416 17.6504 22.377C18.3828 22.1133 19.1836 22.123 19.8965 22.3965L19.9648 22.4258C20.6777 22.6992 21.459 22.7871 22.2207 22.6699C22.2305 22.6699 22.25 22.6699 22.2598 22.6602L24.6523 22.1328H24.6914C26.1953 21.7031 28.2949 20.7266 28.3828 20.6875C28.5879 20.5898 28.7246 20.3848 28.7246 20.1602V19.3691C28.7246 18.7539 29.2227 18.2656 29.8281 18.2656H30.6387C31.2539 18.2656 31.7422 18.7637 31.7422 19.3691V20.1602C31.7422 20.4434 31.9375 20.6777 32.2109 20.7363C33.5586 21 34.8086 21.5176 35.9414 22.2793C36.1758 22.4355 36.4883 22.4062 36.6836 22.2109L37.2402 21.6543C37.6699 21.2246 38.373 21.2246 38.8027 21.6543L39.3789 22.2305C39.8086 22.6602 39.8086 23.3633 39.3789 23.793L38.8223 24.3496C38.6269 24.5449 38.5977 24.8574 38.7539 25.0918C39.5156 26.2246 40.0332 27.4746 40.2969 28.8223C40.3555 29.0957 40.5898 29.291 40.873 29.291H41.6641C42.2793 29.291 42.7676 29.7891 42.7676 30.3945V31.2051C42.7676 31.8203 42.2695 32.3086 41.6641 32.3086H40.873C40.5898 32.3086 40.3555 32.5039 40.2969 32.7773C40.0332 34.125 39.5156 35.375 38.7539 36.5078C38.5977 36.7422 38.6269 37.0547 38.8223 37.25L39.3789 37.8066C39.8086 38.2363 39.8086 38.9395 39.3789 39.3691L38.8027 39.9453C38.373 40.375 37.6699 40.375 37.2402 39.9453L36.6836 39.3887C36.4883 39.1934 36.1758 39.1641 35.9414 39.3203C34.8086 40.082 33.5586 40.5996 32.2109 40.8633C31.9375 40.9219 31.7422 41.1562 31.7422 41.4395V42.2305C31.7422 42.8457 31.2441 43.334 30.6387 43.334H29.8281C29.2129 43.334 28.7246 42.8359 28.7246 42.2305V41.4297C28.7246 41.1465 28.5293 40.9121 28.2559 40.8535C26.9082 40.5898 25.6582 40.0723 24.5254 39.3105C24.291 39.1543 23.9785 39.1836 23.7832 39.3789L23.2266 39.9355C22.7969 40.3652 22.0938 40.3652 21.6641 39.9355L21.0879 39.3594C20.6582 38.9297 20.6582 38.2266 21.0879 37.7969L21.6445 37.2402C21.8398 37.0449 21.8691 36.7324 21.7129 36.498C20.9512 35.3652 20.4336 34.1152 20.1699 32.7676C20.1113 32.4941 19.877 32.2988 19.5937 32.2988H18.8027C18.1875 32.2988 17.6992 31.8008 17.6992 31.1953V30.3848C17.6992 29.7695 18.1973 29.2813 18.8027 29.2813H19.5937C19.877 29.2813 20.1113 29.0859 20.1699 28.8125C20.4336 27.4648 20.9512 26.2148 21.7129 25.082C21.8887 24.8086 21.8203 24.4473 21.5566 24.2715C21.2832 24.0957 20.9219 24.1641 20.7461 24.4277C19.9844 25.5508 19.4473 26.791 19.125 28.1094H18.8027C17.543 28.1094 16.5273 29.1348 16.5273 30.3848V31.1953C16.5273 32.4551 17.5527 33.4707 18.8027 33.4707H19.125C19.4082 34.6328 19.8574 35.7266 20.4824 36.752L20.2578 36.9766C19.3691 37.8652 19.3691 39.3105 20.2578 40.1992L20.834 40.7754C21.7227 41.6641 23.168 41.6641 24.0566 40.7754L24.2812 40.5508C25.2969 41.1758 26.4004 41.625 27.5625 41.9082V42.2305C27.5625 43.4902 28.5879 44.5059 29.8379 44.5059H30.6484C31.9082 44.5059 32.9238 43.4805 32.9238 42.2305V41.9082C34.0859 41.625 35.1797 41.1758 36.2051 40.5508L36.4297 40.7754C37.3184 41.6641 38.7637 41.6641 39.6523 40.7754L40.2285 40.1992C41.1172 39.3105 41.1172 37.8652 40.2285 36.9766L40.0039 36.752C40.6289 35.7363 41.0781 34.6328 41.3613 33.4707H41.6836C42.9434 33.4707 43.959 32.4453 43.959 31.1953V30.3848C43.9492 29.125 42.9238 28.0996 41.6641 28.0996Z" fill="url(#paint2_linear_271_253)"/>
<defs>
<linearGradient id="paint0_linear_271_253" x1="50.0137" y1="22.0977" x2="2.00586" y2="22.0977" gradientUnits="userSpaceOnUse">
<stop stop-color="#FF61FF"/>
<stop offset="0.0769231" stop-color="#D189FF"/>
<stop offset="0.153846" stop-color="#99A3FF"/>
<stop offset="0.230769" stop-color="#77BEFF"/>
<stop offset="0.307692" stop-color="#4BD9FF"/>
<stop offset="0.384615" stop-color="#29E8FF"/>
<stop offset="0.461538" stop-color="#1AF1FF"/>
<stop offset="0.538462" stop-color="#1AF1FF"/>
<stop offset="0.615385" stop-color="#29E8FF"/>
<stop offset="0.692308" stop-color="#33D6FF"/>
<stop offset="0.769231" stop-color="#36B5FF"/>
<stop offset="0.846154" stop-color="#3993FF"/>
<stop offset="0.923077" stop-color="#5A65FF"/>
<stop offset="1" stop-color="#6523FF"/>
</linearGradient>
<linearGradient id="paint1_linear_271_253" x1="50.0137" y1="22.0977" x2="2.00586" y2="22.0977" gradientUnits="userSpaceOnUse">
<stop stop-color="#FF61FF"/>
<stop offset="0.0769231" stop-color="#D189FF"/>
<stop offset="0.153846" stop-color="#99A3FF"/>
<stop offset="0.230769" stop-color="#77BEFF"/>
<stop offset="0.307692" stop-color="#4BD9FF"/>
<stop offset="0.384615" stop-color="#29E8FF"/>
<stop offset="0.461538" stop-color="#1AF1FF"/>
<stop offset="0.538462" stop-color="#1AF1FF"/>
<stop offset="0.615385" stop-color="#29E8FF"/>
<stop offset="0.692308" stop-color="#33D6FF"/>
<stop offset="0.769231" stop-color="#36B5FF"/>
<stop offset="0.846154" stop-color="#3993FF"/>
<stop offset="0.923077" stop-color="#5A65FF"/>
<stop offset="1" stop-color="#6523FF"/>
</linearGradient>
<linearGradient id="paint2_linear_271_253" x1="50.0137" y1="22.0977" x2="2.00586" y2="22.0977" gradientUnits="userSpaceOnUse">
<stop stop-color="#FF61FF"/>
<stop offset="0.0769231" stop-color="#D189FF"/>
<stop offset="0.153846" stop-color="#99A3FF"/>
<stop offset="0.230769" stop-color="#77BEFF"/>
<stop offset="0.307692" stop-color="#4BD9FF"/>
<stop offset="0.384615" stop-color="#29E8FF"/>
<stop offset="0.461538" stop-color="#1AF1FF"/>
<stop offset="0.538462" stop-color="#1AF1FF"/>
<stop offset="0.615385" stop-color="#29E8FF"/>
<stop offset="0.692308" stop-color="#33D6FF"/>
<stop offset="0.769231" stop-color="#36B5FF"/>
<stop offset="0.846154" stop-color="#3993FF"/>
<stop offset="0.923077" stop-color="#5A65FF"/>
<stop offset="1" stop-color="#6523FF"/>
</linearGradient>
</defs>
</svg>
