<svg width="51" height="51" viewBox="0 0 51 51" fill="none" xmlns="http://www.w3.org/2000/svg">
<path d="M25.9902 49.9941C19.584 49.9941 13.5586 47.4941 9.01758 42.9629C4.48633 38.4316 1.98633 32.4062 1.98633 25.9902C1.98633 19.584 4.48633 13.5586 9.01758 9.01758C13.5488 4.47656 19.5742 1.98633 25.9902 1.98633C32.4062 1.98633 38.4219 4.48633 42.9629 9.01758C47.5039 13.5488 49.9941 19.5742 49.9941 25.9902C49.9941 32.3965 47.4941 38.4219 42.9629 42.9629C38.4316 47.5039 32.4062 49.9941 25.9902 49.9941ZM25.9902 3.17773C13.4023 3.17773 3.16797 13.4121 3.16797 26C3.16797 38.5879 13.4023 48.8223 25.9902 48.8223C38.5781 48.8223 48.8125 38.5879 48.8125 26C48.8125 13.4121 38.5781 3.17773 25.9902 3.17773Z" fill="url(#paint0_linear_271_249)"/>
<path d="M11.5177 21.1367C12.1427 21.1367 12.6505 20.6289 12.6505 20.0039C12.6505 19.9258 12.6408 19.8379 12.6212 19.7695L21.0587 13.8809C21.2345 13.9883 21.4298 14.0469 21.6447 14.0469C21.8009 14.0469 21.9474 14.0176 22.0841 13.959L28.5197 20.0039V20.043C28.5197 20.668 29.0275 21.1758 29.6525 21.1758C30.2189 21.1758 30.6974 20.7559 30.7755 20.209L39.3302 14.2422C39.4474 14.2812 39.5841 14.3105 39.7208 14.3105C40.3458 14.3105 40.8537 13.8027 40.8537 13.1777C40.8537 12.5527 40.3458 12.0449 39.7208 12.0449C39.0958 12.0449 38.588 12.5527 38.588 13.1777C38.588 13.2656 38.5978 13.3535 38.6173 13.4316L30.3849 19.1738C30.1896 19.0078 29.9357 18.9102 29.6525 18.9102C29.4474 18.9102 29.2521 18.9688 29.0861 19.0664L22.7677 13.1289C22.7775 13.0605 22.7872 12.9922 22.7872 12.9141C22.7872 12.2891 22.2794 11.7812 21.6544 11.7812C21.0294 11.7812 20.5216 12.2891 20.5216 12.9141V12.9531L11.9279 18.9492C11.8009 18.9004 11.6642 18.8711 11.5177 18.8711C10.8927 18.8711 10.3849 19.3789 10.3849 20.0039C10.3751 20.6289 10.883 21.1367 11.5177 21.1367ZM39.8966 29.1055V39.2129C39.8966 39.5059 39.6525 39.75 39.3595 39.75H35.9611C35.6681 39.75 35.424 39.5059 35.424 39.2129V20.1406C35.424 19.8477 35.6681 19.6035 35.9611 19.6035H39.3595C39.6525 19.6035 39.8966 19.8477 39.8966 20.1406V26.4102C39.8966 26.7031 40.1408 26.9473 40.4337 26.9473C40.7267 26.9473 40.9708 26.7031 40.9708 26.4102V19.6035C40.9708 19.0078 40.4923 18.5293 39.8966 18.5293H35.424C34.8283 18.5293 34.3497 19.0078 34.3497 19.6035V39.75C34.3497 40.3457 34.8283 40.8242 35.424 40.8242H39.8966C40.4923 40.8242 40.9708 40.3457 40.9708 39.75V29.1055C40.9708 28.8125 40.7267 28.5684 40.4337 28.5684C40.131 28.5684 39.8966 28.8125 39.8966 29.1055ZM31.8888 30.7363V39.2129C31.8888 39.5059 31.6447 39.75 31.3517 39.75H27.9533C27.6603 39.75 27.4162 39.5059 27.4162 39.2129V25.2188C27.4162 24.9258 27.6603 24.6816 27.9533 24.6816H31.3517C31.6447 24.6816 31.8888 24.9258 31.8888 25.2188V28.0312C31.8888 28.3242 32.1329 28.5684 32.4259 28.5684C32.7189 28.5684 32.963 28.3242 32.963 28.0312V24.6816C32.963 24.0859 32.4845 23.6074 31.8888 23.6074H27.4162C26.8204 23.6074 26.3419 24.0859 26.3419 24.6816V39.75C26.3419 40.3457 26.8204 40.8242 27.4162 40.8242H31.8888C32.4845 40.8242 32.963 40.3457 32.963 39.75V30.7363C32.963 30.4434 32.7189 30.1992 32.4259 30.1992C32.1329 30.1992 31.8888 30.4434 31.8888 30.7363Z" fill="url(#paint1_linear_271_249)"/>
<path d="M23.8809 32.3672V39.2227C23.8809 39.5156 23.6367 39.7598 23.3438 39.7598H19.9453C19.6523 39.7598 19.4082 39.5156 19.4082 39.2227V20.1406C19.4082 19.8477 19.6523 19.6035 19.9453 19.6035H23.3438C23.6367 19.6035 23.8809 19.8477 23.8809 20.1406V29.6621C23.8809 29.9551 24.125 30.1992 24.418 30.1992C24.7109 30.1992 24.9551 29.9551 24.9551 29.6621V19.6035C24.9551 19.0078 24.4766 18.5293 23.8809 18.5293H19.4082C18.8125 18.5293 18.334 19.0078 18.334 19.6035V39.75C18.334 40.3457 18.8125 40.8242 19.4082 40.8242H23.8809C24.4766 40.8242 24.9551 40.3457 24.9551 39.75V32.3574C24.9551 32.0645 24.7109 31.8203 24.418 31.8203C24.125 31.8301 23.8809 32.0645 23.8809 32.3672ZM15.8828 33.9883V39.2129C15.8828 39.5059 15.6387 39.75 15.3457 39.75H11.9473C11.6543 39.75 11.4102 39.5059 11.4102 39.2129V25.2188C11.4102 24.9258 11.6543 24.6816 11.9473 24.6816H15.3457C15.6387 24.6816 15.8828 24.9258 15.8828 25.2188V31.293C15.8828 31.5859 16.127 31.8301 16.4199 31.8301C16.7129 31.8301 16.957 31.5859 16.957 31.293V24.6816C16.957 24.0859 16.4785 23.6074 15.8828 23.6074H11.4102C10.8145 23.6074 10.3359 24.0859 10.3359 24.6816V39.75C10.3359 40.3457 10.8145 40.8242 11.4102 40.8242H15.8828C16.4785 40.8242 16.957 40.3457 16.957 39.75V33.9883C16.957 33.6953 16.7129 33.4512 16.4199 33.4512C16.1172 33.4512 15.8828 33.6953 15.8828 33.9883Z" fill="url(#paint2_linear_271_249)"/>
<defs>
<linearGradient id="paint0_linear_271_249" x1="49.9941" y1="22.0977" x2="1.98633" y2="22.0977" gradientUnits="userSpaceOnUse">
<stop stop-color="#FF61FF"/>
<stop offset="0.0769231" stop-color="#D189FF"/>
<stop offset="0.153846" stop-color="#99A3FF"/>
<stop offset="0.230769" stop-color="#77BEFF"/>
<stop offset="0.307692" stop-color="#4BD9FF"/>
<stop offset="0.384615" stop-color="#29E8FF"/>
<stop offset="0.461538" stop-color="#1AF1FF"/>
<stop offset="0.538462" stop-color="#1AF1FF"/>
<stop offset="0.615385" stop-color="#29E8FF"/>
<stop offset="0.692308" stop-color="#33D6FF"/>
<stop offset="0.769231" stop-color="#36B5FF"/>
<stop offset="0.846154" stop-color="#3993FF"/>
<stop offset="0.923077" stop-color="#5A65FF"/>
<stop offset="1" stop-color="#6523FF"/>
</linearGradient>
<linearGradient id="paint1_linear_271_249" x1="49.9941" y1="22.0977" x2="1.98633" y2="22.0977" gradientUnits="userSpaceOnUse">
<stop stop-color="#FF61FF"/>
<stop offset="0.0769231" stop-color="#D189FF"/>
<stop offset="0.153846" stop-color="#99A3FF"/>
<stop offset="0.230769" stop-color="#77BEFF"/>
<stop offset="0.307692" stop-color="#4BD9FF"/>
<stop offset="0.384615" stop-color="#29E8FF"/>
<stop offset="0.461538" stop-color="#1AF1FF"/>
<stop offset="0.538462" stop-color="#1AF1FF"/>
<stop offset="0.615385" stop-color="#29E8FF"/>
<stop offset="0.692308" stop-color="#33D6FF"/>
<stop offset="0.769231" stop-color="#36B5FF"/>
<stop offset="0.846154" stop-color="#3993FF"/>
<stop offset="0.923077" stop-color="#5A65FF"/>
<stop offset="1" stop-color="#6523FF"/>
</linearGradient>
<linearGradient id="paint2_linear_271_249" x1="49.9941" y1="22.0977" x2="1.98633" y2="22.0977" gradientUnits="userSpaceOnUse">
<stop stop-color="#FF61FF"/>
<stop offset="0.0769231" stop-color="#D189FF"/>
<stop offset="0.153846" stop-color="#99A3FF"/>
<stop offset="0.230769" stop-color="#77BEFF"/>
<stop offset="0.307692" stop-color="#4BD9FF"/>
<stop offset="0.384615" stop-color="#29E8FF"/>
<stop offset="0.461538" stop-color="#1AF1FF"/>
<stop offset="0.538462" stop-color="#1AF1FF"/>
<stop offset="0.615385" stop-color="#29E8FF"/>
<stop offset="0.692308" stop-color="#33D6FF"/>
<stop offset="0.769231" stop-color="#36B5FF"/>
<stop offset="0.846154" stop-color="#3993FF"/>
<stop offset="0.923077" stop-color="#5A65FF"/>
<stop offset="1" stop-color="#6523FF"/>
</linearGradient>
</defs>
</svg>
