<svg width="51" height="51" viewBox="0 0 51 51" fill="none" xmlns="http://www.w3.org/2000/svg">
<path d="M25.4098 49.974C18.8754 49.974 12.7295 47.424 8.09766 42.8021C3.47578 38.1802 0.925781 32.0343 0.925781 25.49C0.925781 18.9556 3.47578 12.8097 8.09766 8.17786C12.7195 3.54602 18.8654 1.00598 25.4098 1.00598C31.9541 1.00598 38.09 3.55598 42.7219 8.17786C47.3537 12.7997 49.8938 18.9456 49.8938 25.49C49.8938 32.0243 47.3438 38.1702 42.7219 42.8021C38.09 47.4339 31.9441 49.974 25.4098 49.974ZM25.4098 2.22122C12.5701 2.22122 2.12109 12.6603 2.12109 25.4999C2.12109 38.3396 12.5602 48.7786 25.3998 48.7786C38.2395 48.7786 48.6785 38.3396 48.6785 25.4999C48.6785 12.6603 38.2395 2.22122 25.4098 2.22122Z" fill="url(#paint0_linear_271_238)"/>
<path d="M15.8176 32.6121C13.7855 32.6121 12.1221 34.2656 12.1221 36.3076C12.1221 38.3496 13.7756 40.0031 15.8176 40.0031C17.8596 40.0031 19.5131 38.3496 19.5131 36.3076C19.5131 34.2656 17.8596 32.6121 15.8176 32.6121ZM15.8176 38.7978C14.443 38.7978 13.3174 37.6822 13.3174 36.2976C13.3174 34.913 14.433 33.7974 15.8176 33.7974C17.2021 33.7974 18.3178 34.913 18.3178 36.2976C18.3178 37.6822 17.1922 38.7978 15.8176 38.7978Z" fill="url(#paint1_linear_271_238)"/>
<path d="M37.0846 14.4233C35.7896 13.1284 33.6879 13.1284 32.393 14.4233L23.9959 22.8104C23.3783 22.6312 22.7209 22.5315 22.0436 22.5315C18.2684 22.5315 15.1904 25.5995 15.1904 29.3847C15.1904 29.9126 15.2602 30.4505 15.3896 30.9884C15.4395 31.1976 15.5988 31.3669 15.808 31.4267C16.0172 31.4864 16.2363 31.4267 16.3957 31.2772L18.3082 29.3647C18.8262 28.8468 19.5135 28.5679 20.2406 28.5679C20.9678 28.5679 21.665 28.8468 22.173 29.3647C22.691 29.8827 22.9699 30.57 22.9699 31.2972C22.9699 32.0343 22.691 32.7216 22.173 33.2296L20.3303 35.0724C20.1709 35.2317 20.1211 35.4509 20.1809 35.67C20.2406 35.8892 20.4199 36.0386 20.6291 36.0884C21.0973 36.188 21.5654 36.2378 22.0436 36.2378C25.8188 36.2378 28.8967 33.1698 28.8967 29.3847C28.8967 26.745 27.3926 24.454 25.2012 23.3085L33.2397 15.27C34.0664 14.4433 35.4111 14.4433 36.2479 15.27C37.0746 16.0968 37.0746 17.4415 36.2479 18.2782L29.7732 24.9022C29.5441 25.1413 29.5441 25.5198 29.7832 25.7489C29.9027 25.8585 30.0521 25.9183 30.2016 25.9183C30.3609 25.9183 30.5104 25.8585 30.6299 25.739L37.0945 19.1249C38.3795 17.82 38.3795 15.7183 37.0846 14.4233ZM27.7014 29.3847C27.7014 32.4925 25.1813 35.0226 22.0734 35.0425L23.0297 34.0862C24.5637 32.5522 24.5637 30.062 23.0297 28.528C22.2926 27.7909 21.3064 27.3825 20.2506 27.3825C19.1947 27.3825 18.2086 27.7909 17.4715 28.528L16.3957 29.5839V29.3847C16.3957 26.2669 18.9357 23.7269 22.0535 23.7269C22.701 23.7269 23.3285 23.8364 23.9062 24.0456C23.9361 24.0655 23.976 24.0755 24.0158 24.0854C26.1674 24.8823 27.7014 26.9542 27.7014 29.3847Z" fill="url(#paint2_linear_271_238)"/>
<defs>
<linearGradient id="paint0_linear_271_238" x1="49.8938" y1="21.5196" x2="0.925781" y2="21.5196" gradientUnits="userSpaceOnUse">
<stop stop-color="#FF61FF"/>
<stop offset="0.0769231" stop-color="#D189FF"/>
<stop offset="0.153846" stop-color="#99A3FF"/>
<stop offset="0.230769" stop-color="#77BEFF"/>
<stop offset="0.307692" stop-color="#4BD9FF"/>
<stop offset="0.384615" stop-color="#29E8FF"/>
<stop offset="0.461538" stop-color="#1AF1FF"/>
<stop offset="0.538462" stop-color="#1AF1FF"/>
<stop offset="0.615385" stop-color="#29E8FF"/>
<stop offset="0.692308" stop-color="#33D6FF"/>
<stop offset="0.769231" stop-color="#36B5FF"/>
<stop offset="0.846154" stop-color="#3993FF"/>
<stop offset="0.923077" stop-color="#5A65FF"/>
<stop offset="1" stop-color="#6523FF"/>
</linearGradient>
<linearGradient id="paint1_linear_271_238" x1="49.8938" y1="21.5196" x2="0.925781" y2="21.5196" gradientUnits="userSpaceOnUse">
<stop stop-color="#FF61FF"/>
<stop offset="0.0769231" stop-color="#D189FF"/>
<stop offset="0.153846" stop-color="#99A3FF"/>
<stop offset="0.230769" stop-color="#77BEFF"/>
<stop offset="0.307692" stop-color="#4BD9FF"/>
<stop offset="0.384615" stop-color="#29E8FF"/>
<stop offset="0.461538" stop-color="#1AF1FF"/>
<stop offset="0.538462" stop-color="#1AF1FF"/>
<stop offset="0.615385" stop-color="#29E8FF"/>
<stop offset="0.692308" stop-color="#33D6FF"/>
<stop offset="0.769231" stop-color="#36B5FF"/>
<stop offset="0.846154" stop-color="#3993FF"/>
<stop offset="0.923077" stop-color="#5A65FF"/>
<stop offset="1" stop-color="#6523FF"/>
</linearGradient>
<linearGradient id="paint2_linear_271_238" x1="49.8938" y1="21.5196" x2="0.925781" y2="21.5196" gradientUnits="userSpaceOnUse">
<stop stop-color="#FF61FF"/>
<stop offset="0.0769231" stop-color="#D189FF"/>
<stop offset="0.153846" stop-color="#99A3FF"/>
<stop offset="0.230769" stop-color="#77BEFF"/>
<stop offset="0.307692" stop-color="#4BD9FF"/>
<stop offset="0.384615" stop-color="#29E8FF"/>
<stop offset="0.461538" stop-color="#1AF1FF"/>
<stop offset="0.538462" stop-color="#1AF1FF"/>
<stop offset="0.615385" stop-color="#29E8FF"/>
<stop offset="0.692308" stop-color="#33D6FF"/>
<stop offset="0.769231" stop-color="#36B5FF"/>
<stop offset="0.846154" stop-color="#3993FF"/>
<stop offset="0.923077" stop-color="#5A65FF"/>
<stop offset="1" stop-color="#6523FF"/>
</linearGradient>
</defs>
</svg>
