<svg width="51" height="51" viewBox="0 0 51 51" fill="none" xmlns="http://www.w3.org/2000/svg">
<path d="M26 49.9941C19.5938 49.9941 13.5684 47.4941 9.02734 42.9629C4.49609 38.4316 1.99609 32.4062 1.99609 25.9902C1.99609 19.584 4.49609 13.5586 9.02734 9.01758C13.5586 4.47656 19.584 1.98633 26 1.98633C32.416 1.98633 38.4316 4.48633 42.9727 9.01758C47.5137 13.5488 50.0039 19.5742 50.0039 25.9902C50.0039 32.3965 47.5039 38.4219 42.9727 42.9629C38.4316 47.5039 32.4062 49.9941 26 49.9941ZM26 3.17773C13.4121 3.17773 3.17773 13.4121 3.17773 26C3.17773 38.5879 13.4121 48.8223 26 48.8223C38.5879 48.8223 48.8223 38.5879 48.8223 26C48.8223 13.4121 38.5879 3.17773 26 3.17773Z" fill="url(#paint0_linear_271_241)"/>
<path d="M37.2598 9.74023H32.5723C32.2793 9.74023 32.0352 9.98438 32.0352 10.2773C32.0352 10.5703 32.2793 10.8145 32.5723 10.8145H37.2598C37.2695 10.8145 37.2793 10.8242 37.2793 10.834V41.1758C37.2793 41.1855 37.2695 41.1953 37.2598 41.1953H14.7305C14.7207 41.1953 14.7109 41.1855 14.7109 41.1758V10.834C14.7109 10.8242 14.7207 10.8145 14.7305 10.8145H21.7812V12.2012C21.7812 12.8555 22.3184 13.3926 22.9727 13.3926H29.0273C29.6816 13.3926 30.2188 12.8555 30.2188 12.2012V8.35352C30.2188 7.69922 29.6816 7.16211 29.0273 7.16211H22.9727C22.3184 7.16211 21.7812 7.69922 21.7812 8.35352V9.74023H14.7305C14.125 9.74023 13.6367 10.2285 13.6367 10.834V41.1758C13.6367 41.7812 14.125 42.2695 14.7305 42.2695H37.2598C37.8652 42.2695 38.3535 41.7812 38.3535 41.1758V10.834C38.3535 10.2285 37.8652 9.74023 37.2598 9.74023ZM22.8555 8.35352C22.8555 8.29492 22.9043 8.23633 22.9727 8.23633H29.0273C29.0859 8.23633 29.1445 8.28516 29.1445 8.35352V12.1914C29.1445 12.25 29.0957 12.3086 29.0273 12.3086H22.9727C22.9141 12.3086 22.8555 12.2598 22.8555 12.1914V8.35352Z" fill="url(#paint1_linear_271_241)"/>
<path d="M17.3574 26.0977H25.5605C25.8535 26.0977 26.0977 25.8535 26.0977 25.5605V15.5508C26.0977 15.2578 25.8535 15.0137 25.5605 15.0137H17.3574C17.0645 15.0137 16.8203 15.2578 16.8203 15.5508V25.5605C16.8203 25.8535 17.0645 26.0977 17.3574 26.0977ZM17.8945 16.0879H25.0234V25.0234H17.8945V16.0879Z" fill="url(#paint2_linear_271_241)"/>
<path d="M21.498 21.6152C22.6504 21.6152 23.5879 20.6777 23.5879 19.5254C23.5879 18.373 22.6504 17.4355 21.498 17.4355C20.3457 17.4355 19.4082 18.373 19.4082 19.5254C19.4082 20.6777 20.3457 21.6152 21.498 21.6152ZM21.498 18.5098C22.0547 18.5098 22.5137 18.9688 22.5137 19.5254C22.5137 20.082 22.0547 20.541 21.498 20.541C20.9414 20.541 20.4824 20.082 20.4824 19.5254C20.4824 18.9688 20.9414 18.5098 21.498 18.5098ZM21.5078 21.9277C21.498 21.9277 21.498 21.9277 21.5078 21.9277C19.3301 21.9277 18.6074 23.7051 18.5781 23.7832C18.4707 24.0566 18.6074 24.3691 18.8809 24.4766C19.1543 24.584 19.4668 24.457 19.584 24.1836C19.6035 24.1348 20.082 23.0117 21.5176 23.0117C22.9336 23.0117 23.3047 24.0273 23.3438 24.1445C23.4121 24.3789 23.627 24.5254 23.8613 24.5254C23.9102 24.5254 23.9688 24.5156 24.0176 24.5059C24.3008 24.418 24.4668 24.1152 24.3789 23.832C24.1641 23.168 23.3145 21.9277 21.5078 21.9277ZM35.1504 15.1602H28.1875C27.8945 15.1602 27.6504 15.4043 27.6504 15.6973C27.6504 15.9902 27.8945 16.2344 28.1875 16.2344H35.1504C35.4434 16.2344 35.6875 15.9902 35.6875 15.6973C35.6875 15.4043 35.4434 15.1602 35.1504 15.1602ZM35.1504 18.207H28.1875C27.8945 18.207 27.6504 18.4512 27.6504 18.7441C27.6504 19.0371 27.8945 19.2812 28.1875 19.2812H35.1504C35.4434 19.2812 35.6875 19.0371 35.6875 18.7441C35.6875 18.4512 35.4434 18.207 35.1504 18.207ZM32.2109 22.4648C32.5039 22.4648 32.748 22.2207 32.748 21.9277C32.748 21.6348 32.5039 21.3906 32.2109 21.3906H28.1777C27.8848 21.3906 27.6406 21.6348 27.6406 21.9277C27.6406 22.2207 27.8848 22.4648 28.1777 22.4648H32.2109ZM35.1504 28.8125H17.3574C17.0645 28.8125 16.8203 29.0566 16.8203 29.3496C16.8203 29.6426 17.0645 29.8867 17.3574 29.8867H35.1504C35.4434 29.8867 35.6875 29.6426 35.6875 29.3496C35.6875 29.0566 35.4434 28.8125 35.1504 28.8125ZM35.6875 32.543C35.6875 32.25 35.4434 32.0059 35.1504 32.0059H17.3574C17.0645 32.0059 16.8203 32.25 16.8203 32.543C16.8203 32.8359 17.0645 33.0801 17.3574 33.0801H35.1504C35.4434 33.0801 35.6875 32.8359 35.6875 32.543ZM17.3574 35.1992C17.0645 35.1992 16.8203 35.4434 16.8203 35.7363C16.8203 36.0293 17.0645 36.2734 17.3574 36.2734H27.6504C27.9434 36.2734 28.1875 36.0293 28.1875 35.7363C28.1875 35.4434 27.9434 35.1992 27.6504 35.1992H17.3574Z" fill="url(#paint3_linear_271_241)"/>
<defs>
<linearGradient id="paint0_linear_271_241" x1="50.0039" y1="22.0977" x2="1.99609" y2="22.0977" gradientUnits="userSpaceOnUse">
<stop stop-color="#FF61FF"/>
<stop offset="0.0769231" stop-color="#D189FF"/>
<stop offset="0.153846" stop-color="#99A3FF"/>
<stop offset="0.230769" stop-color="#77BEFF"/>
<stop offset="0.307692" stop-color="#4BD9FF"/>
<stop offset="0.384615" stop-color="#29E8FF"/>
<stop offset="0.461538" stop-color="#1AF1FF"/>
<stop offset="0.538462" stop-color="#1AF1FF"/>
<stop offset="0.615385" stop-color="#29E8FF"/>
<stop offset="0.692308" stop-color="#33D6FF"/>
<stop offset="0.769231" stop-color="#36B5FF"/>
<stop offset="0.846154" stop-color="#3993FF"/>
<stop offset="0.923077" stop-color="#5A65FF"/>
<stop offset="1" stop-color="#6523FF"/>
</linearGradient>
<linearGradient id="paint1_linear_271_241" x1="50.0039" y1="22.0977" x2="1.99609" y2="22.0977" gradientUnits="userSpaceOnUse">
<stop stop-color="#FF61FF"/>
<stop offset="0.0769231" stop-color="#D189FF"/>
<stop offset="0.153846" stop-color="#99A3FF"/>
<stop offset="0.230769" stop-color="#77BEFF"/>
<stop offset="0.307692" stop-color="#4BD9FF"/>
<stop offset="0.384615" stop-color="#29E8FF"/>
<stop offset="0.461538" stop-color="#1AF1FF"/>
<stop offset="0.538462" stop-color="#1AF1FF"/>
<stop offset="0.615385" stop-color="#29E8FF"/>
<stop offset="0.692308" stop-color="#33D6FF"/>
<stop offset="0.769231" stop-color="#36B5FF"/>
<stop offset="0.846154" stop-color="#3993FF"/>
<stop offset="0.923077" stop-color="#5A65FF"/>
<stop offset="1" stop-color="#6523FF"/>
</linearGradient>
<linearGradient id="paint2_linear_271_241" x1="50.0039" y1="22.0977" x2="1.99609" y2="22.0977" gradientUnits="userSpaceOnUse">
<stop stop-color="#FF61FF"/>
<stop offset="0.0769231" stop-color="#D189FF"/>
<stop offset="0.153846" stop-color="#99A3FF"/>
<stop offset="0.230769" stop-color="#77BEFF"/>
<stop offset="0.307692" stop-color="#4BD9FF"/>
<stop offset="0.384615" stop-color="#29E8FF"/>
<stop offset="0.461538" stop-color="#1AF1FF"/>
<stop offset="0.538462" stop-color="#1AF1FF"/>
<stop offset="0.615385" stop-color="#29E8FF"/>
<stop offset="0.692308" stop-color="#33D6FF"/>
<stop offset="0.769231" stop-color="#36B5FF"/>
<stop offset="0.846154" stop-color="#3993FF"/>
<stop offset="0.923077" stop-color="#5A65FF"/>
<stop offset="1" stop-color="#6523FF"/>
</linearGradient>
<linearGradient id="paint3_linear_271_241" x1="50.0039" y1="22.0977" x2="1.99609" y2="22.0977" gradientUnits="userSpaceOnUse">
<stop stop-color="#FF61FF"/>
<stop offset="0.0769231" stop-color="#D189FF"/>
<stop offset="0.153846" stop-color="#99A3FF"/>
<stop offset="0.230769" stop-color="#77BEFF"/>
<stop offset="0.307692" stop-color="#4BD9FF"/>
<stop offset="0.384615" stop-color="#29E8FF"/>
<stop offset="0.461538" stop-color="#1AF1FF"/>
<stop offset="0.538462" stop-color="#1AF1FF"/>
<stop offset="0.615385" stop-color="#29E8FF"/>
<stop offset="0.692308" stop-color="#33D6FF"/>
<stop offset="0.769231" stop-color="#36B5FF"/>
<stop offset="0.846154" stop-color="#3993FF"/>
<stop offset="0.923077" stop-color="#5A65FF"/>
<stop offset="1" stop-color="#6523FF"/>
</linearGradient>
</defs>
</svg>
