<svg width="22" height="21" viewBox="0 0 22 21" fill="none" xmlns="http://www.w3.org/2000/svg">
<path d="M13.6 7.36172H20C20.5304 7.36172 21.0391 7.57243 21.4142 7.94751C21.7893 8.32258 22 8.83129 22 9.36172V11.4657C22.0003 11.7271 21.9493 11.986 21.85 12.2277L18.755 19.7427C18.6795 19.9259 18.5513 20.0826 18.3866 20.1928C18.2219 20.303 18.0282 20.3618 17.83 20.3617H1C0.734784 20.3617 0.48043 20.2564 0.292893 20.0688C0.105357 19.8813 0 19.6269 0 19.3617V9.36172C0 9.0965 0.105357 8.84215 0.292893 8.65461C0.48043 8.46708 0.734784 8.36172 1 8.36172H4.482C4.6421 8.36176 4.79986 8.32336 4.94203 8.24975C5.0842 8.17615 5.20662 8.06948 5.299 7.93872L10.752 0.21172C10.8209 0.114033 10.9226 0.0442807 11.0385 0.0151104C11.1545 -0.0140598 11.277 -0.000716843 11.384 0.0527201L13.198 0.95972C13.7085 1.21488 14.1163 1.63703 14.3537 2.15604C14.5911 2.67504 14.6438 3.25964 14.503 3.81272L13.6 7.36172ZM6 9.94972V18.3617H17.16L20 11.4657V9.36172H13.6C13.2954 9.36168 12.9948 9.29206 12.7212 9.15818C12.4476 9.0243 12.2082 8.82969 12.0213 8.58921C11.8343 8.34872 11.7048 8.06871 11.6425 7.77054C11.5803 7.47237 11.5869 7.16392 11.662 6.86872L12.565 3.32072C12.5933 3.21005 12.5828 3.09303 12.5353 2.98915C12.4878 2.88526 12.4062 2.80077 12.304 2.74972L11.643 2.41972L6.933 9.09172C6.683 9.44572 6.363 9.73572 6 9.94972ZM4 10.3617H2V18.3617H4V10.3617Z" fill="#84C134"/>
</svg>
