<svg width="36" height="36" viewBox="0 0 36 36" fill="none" xmlns="http://www.w3.org/2000/svg">
<g clip-path="url(#clip0_205_647)">
<path d="M0.878906 28.1071C1.00495 27.9628 1.12368 27.8112 1.25886 27.6751C3.60158 25.3296 5.94612 22.9851 8.2925 20.6424C8.38018 20.5547 8.49434 20.4935 8.64596 20.383C8.46694 20.2734 8.37744 20.2122 8.28336 20.1619C7.68147 19.8404 7.0741 19.5281 6.47495 19.2002C5.3625 18.5901 4.96519 17.3644 5.50681 16.2163C5.81278 15.5678 6.12696 14.9239 6.4512 14.2846C6.65853 13.8763 6.65944 13.4854 6.4512 13.0772C6.13701 12.4588 5.83561 11.8332 5.53603 11.2075C4.94876 9.98275 5.34149 8.77897 6.53888 8.1305C7.13895 7.80535 7.74175 7.48477 8.34821 7.17149C8.77657 6.95137 9.01495 6.61709 9.08984 6.13759C9.2031 5.40691 9.3264 4.67715 9.48258 3.9547C9.73466 2.78654 10.7887 2.05586 11.9687 2.21113C12.6683 2.30338 13.367 2.40476 14.0639 2.51527C14.537 2.59017 14.9343 2.48057 15.2786 2.13532C15.7691 1.64303 16.2751 1.16718 16.7774 0.685852C17.7237 -0.220182 19.016 -0.230229 19.965 0.665759C20.4783 1.15074 20.9898 1.63847 21.4884 2.13898C21.8227 2.47417 22.21 2.59017 22.6703 2.51893C23.3681 2.41207 24.0659 2.3116 24.7655 2.21387C25.9565 2.04582 27.026 2.77649 27.2799 3.96018C27.437 4.69359 27.5539 5.43614 27.6791 6.17686C27.7521 6.61161 27.9622 6.93219 28.3604 7.13678C28.9678 7.44823 29.5679 7.77338 30.1698 8.09488C31.4356 8.77166 31.8229 9.97453 31.1936 11.2724C30.9059 11.8661 30.6264 12.4643 30.3232 13.0498C30.0994 13.4818 30.1049 13.8882 30.3278 14.3193C30.641 14.9258 30.9342 15.5423 31.2283 16.1579C31.8065 17.3662 31.421 18.5736 30.2483 19.2185C29.5724 19.5902 28.8874 19.9464 28.1303 20.4314C28.2545 20.5118 28.3988 20.572 28.5011 20.6743C30.8575 23.0225 33.2103 25.3744 35.5576 27.7317C35.6891 27.8632 35.8169 28.0322 35.8644 28.2057C35.9476 28.5108 35.7183 28.7519 35.3082 28.8469C33.9117 29.1702 32.517 29.4981 31.1178 29.8077C30.8493 29.8671 30.7342 29.9785 30.6739 30.2571C30.3734 31.6463 30.0547 33.0327 29.7122 34.4128C29.6583 34.6311 29.4546 34.8129 29.3194 35.012C29.2053 35.012 29.0911 35.012 28.9778 35.012C28.8335 34.8859 28.6819 34.7672 28.5458 34.632C25.8798 31.9696 23.2165 29.3045 20.5514 26.6403C20.4664 26.5553 20.3778 26.4759 20.2783 26.3818C19.7494 26.9773 19.1549 27.36 18.3639 27.3572C17.5748 27.3554 16.9957 26.9426 16.4769 26.3873C16.3646 26.4941 16.2742 26.5782 16.1865 26.6658C13.5378 29.3136 10.89 31.9623 8.24044 34.6092C8.09704 34.7526 7.93629 34.8786 7.78377 35.012C7.6696 35.012 7.55543 35.012 7.44218 35.012C7.19283 34.8603 7.08689 34.6311 7.02387 34.3498C6.71333 32.9533 6.3827 31.5614 6.06942 30.1658C6.02376 29.9621 5.93242 29.8653 5.72509 29.8196C4.3286 29.5082 2.93666 29.1775 1.54108 28.867C1.25977 28.8049 1.03143 28.6971 0.87982 28.4487C0.878906 28.3345 0.878906 28.2213 0.878906 28.1071ZM7.77463 13.6854C7.6559 14.0553 7.57096 14.4344 7.4166 14.7824C7.13986 15.4062 6.81928 16.0099 6.52336 16.6246C6.18907 17.3196 6.37448 17.9005 7.04853 18.2649C7.64859 18.5901 8.2514 18.9116 8.85785 19.2249C9.60131 19.6085 10.026 20.2158 10.1676 21.0324C10.2845 21.7046 10.4005 22.3777 10.5183 23.0499C10.6444 23.7678 11.1704 24.1578 11.8901 24.0592C12.4318 23.9852 12.9779 23.9313 13.5104 23.8162C14.622 23.576 15.5499 23.8299 16.3144 24.6994C16.6742 25.1086 17.0944 25.4648 17.4889 25.8438C18.0753 26.4065 18.6717 26.4128 19.2617 25.8539C19.7659 25.3753 20.2618 24.8885 20.7605 24.4044C21.3423 23.8409 22.031 23.6381 22.8292 23.7651C23.5152 23.8738 24.2029 23.9715 24.8906 24.0619C25.5903 24.1542 26.1164 23.7596 26.2397 23.0609C26.3584 22.3887 26.4799 21.7164 26.5885 21.0424C26.721 20.2204 27.1411 19.6148 27.8873 19.2322C28.5047 18.9152 29.1176 18.5892 29.7268 18.2576C30.3798 17.9023 30.568 17.3132 30.2465 16.6383C29.9579 16.0327 29.6711 15.4244 29.3615 14.8299C28.955 14.0499 28.9623 13.289 29.3706 12.5127C29.6775 11.9291 29.9579 11.3308 30.2437 10.7363C30.5762 10.043 30.389 9.46489 29.7122 9.09681C29.0719 8.74974 28.4244 8.41637 27.785 8.06839C27.1713 7.7332 26.7749 7.22629 26.6433 6.53306C26.5036 5.79508 26.3757 5.05528 26.2451 4.31547C26.1173 3.59758 25.5939 3.20668 24.8742 3.3044C24.3326 3.37838 23.7864 3.43318 23.2539 3.54735C22.1433 3.78573 21.2144 3.53548 20.4491 2.66506C20.0737 2.23853 19.6417 1.86132 19.2252 1.47315C18.679 0.963508 18.0662 0.969902 17.5255 1.48503C17.0058 1.98006 16.4952 2.48422 15.9764 2.98017C15.401 3.53 14.7179 3.72271 13.9333 3.5985C13.2474 3.49073 12.5596 3.393 11.8719 3.30257C11.1686 3.20941 10.6453 3.59941 10.522 4.29903C10.4032 4.97125 10.2818 5.64347 10.174 6.31752C10.0425 7.13952 9.62232 7.74689 8.87886 8.13232C8.26236 8.45108 7.6495 8.77623 7.03848 9.10503C6.38544 9.45758 6.19181 10.0494 6.51331 10.7207C6.81745 11.3573 7.14808 11.9811 7.43487 12.625C7.58009 12.952 7.65681 13.3091 7.77463 13.6854ZM34.0834 28.0012C31.9325 25.8502 29.7606 23.6792 27.6188 21.5365C27.5329 22.0261 27.4297 22.5969 27.3347 23.1687C27.1055 24.556 26.0195 25.3406 24.6313 25.125C24.0696 25.0374 23.4941 25.0109 22.9434 24.8794C22.1369 24.6866 21.5743 24.9963 21.1386 25.5991C23.7024 28.1628 26.2689 30.7275 28.839 33.2976C28.8582 33.2383 28.8902 33.1561 28.9093 33.0711C29.1861 31.8746 29.4665 30.68 29.7314 29.4808C29.8062 29.141 29.9761 28.9401 30.3232 28.867C31.0575 28.7117 31.7882 28.54 32.5189 28.372C33.0788 28.2414 33.6377 28.1062 34.0834 28.0012ZM9.12364 21.4534C6.94532 23.6363 4.77979 25.8073 2.61882 27.9738C2.63983 27.9811 2.71016 28.0139 2.78414 28.0313C3.99157 28.3099 5.1981 28.5939 6.40827 28.8597C6.76539 28.9382 6.95902 29.1246 7.03209 29.4835C7.15904 30.1073 7.30883 30.7266 7.45222 31.3467C7.60566 32.0071 7.76185 32.6665 7.91346 33.3086C10.4936 30.7293 13.0601 28.1646 15.6275 25.5982C15.0293 24.8702 14.779 24.7652 13.8575 24.8876C13.2483 24.9689 12.64 25.0547 12.0326 25.1451C10.8279 25.3241 9.7438 24.5971 9.48258 23.4043C9.34193 22.7595 9.24237 22.1064 9.12364 21.4534Z" fill="#202020"/>
<path d="M18.2521 5.46991C20.0121 5.48909 21.4963 5.92841 22.8535 6.79973C23.0964 6.95592 23.2398 7.15228 23.1741 7.45277C23.091 7.83364 22.6818 7.98068 22.3082 7.74413C21.5712 7.2765 20.7848 6.934 19.9326 6.73671C15.85 5.78958 11.7272 8.74424 11.3289 12.9054C10.959 16.7689 13.5146 20.0724 17.357 20.6999C21.2204 21.331 25.0254 18.411 25.4328 14.5184C25.6456 12.488 25.1122 10.6897 23.8271 9.10958C23.5613 8.78351 23.5604 8.44558 23.8198 8.23642C24.081 8.02544 24.4107 8.08937 24.6738 8.42274C26.6393 10.9116 27.1571 13.679 26.0127 16.6355C24.8729 19.5783 22.6425 21.3228 19.5225 21.7922C14.9403 22.4818 10.7453 19.1819 10.2302 14.564C9.73151 10.0914 12.983 6.02157 17.4474 5.53476C17.7625 5.50005 18.0813 5.48361 18.2521 5.46991Z" fill="#202020"/>
<path d="M17.2832 15.598C17.6714 15.1916 18.0477 14.7979 18.4222 14.4034C19.4259 13.3457 20.4288 12.2881 21.4325 11.2295C21.4718 11.1884 21.5092 11.1446 21.5513 11.1071C21.7942 10.8906 22.1047 10.8842 22.3203 11.0888C22.5368 11.2953 22.5568 11.6085 22.3376 11.8551C22.0043 12.2296 21.6536 12.5876 21.3083 12.9502C20.1392 14.1805 18.9702 15.4108 17.8002 16.641C17.3828 17.0794 17.1206 17.0804 16.7279 16.6337C15.9671 15.7706 15.2081 14.9066 14.4546 14.0371C14.1422 13.6763 14.2381 13.2315 14.6455 13.0991C14.9122 13.0123 15.1067 13.132 15.2757 13.3247C15.8611 13.9923 16.4484 14.6591 17.0357 15.3258C17.1079 15.4108 17.1846 15.4911 17.2832 15.598Z" fill="#202020"/>
</g>
<defs>
<clipPath id="clip0_205_647">
<rect width="35.0024" height="35.012" fill="white" transform="translate(0.878906)"/>
</clipPath>
</defs>
</svg>
