<svg width="35" height="37" viewBox="0 0 35 37" fill="none" xmlns="http://www.w3.org/2000/svg">
<g clip-path="url(#clip0_205_638)">
<path d="M12.7186 36.1215C10.5127 36.1215 8.30686 36.0698 6.10097 36.1301C2.76628 36.2335 -0.258234 33.5537 0.0175028 29.6417C0.353557 24.8594 3.43837 20.8095 7.97079 19.2843C9.08235 18.9138 10.237 18.707 11.4175 18.6984C14.5885 18.6898 17.7594 18.6553 20.9304 18.7156C21.9386 18.7329 22.9467 18.9828 23.9463 19.1723C24.4547 19.2671 24.6442 19.6032 24.5322 20.0082C24.4288 20.3873 24.0755 20.5338 23.5844 20.3873C22.559 20.1029 21.5077 19.9651 20.4393 19.9737C17.5182 19.9823 14.6057 19.9737 11.6846 19.9823C6.67827 19.9995 2.53361 23.3687 1.50821 28.263C1.27556 29.3746 1.16355 30.4948 1.49099 31.6149C2.07693 33.5537 3.82613 34.8204 5.92862 34.8204C10.5127 34.829 15.0969 34.8204 19.681 34.8204C19.8188 34.8204 19.9567 34.8031 20.086 34.829C20.4306 34.8893 20.6461 35.1047 20.6461 35.458C20.6461 35.8113 20.4393 36.0267 20.086 36.0956C19.9653 36.1215 19.8447 36.1043 19.7241 36.1043C17.3975 36.1215 15.0624 36.1215 12.7186 36.1215Z" fill="#202020"/>
<path d="M7.76369 8.41857C7.7723 3.71382 11.512 0 16.2426 0C20.8095 0 24.5578 3.80862 24.5405 8.43583C24.5319 13.0286 20.7405 16.7941 16.1478 16.7769C11.5206 16.751 7.75507 12.9941 7.76369 8.41857ZM16.165 15.4757C20.077 15.4757 23.248 12.2875 23.248 8.35825C23.248 4.48932 20.0598 1.29252 16.1995 1.29252C12.2616 1.2839 9.0562 4.45487 9.0562 8.34965C9.0562 12.3047 12.2186 15.4757 16.165 15.4757Z" fill="#202020"/>
<path d="M19.9124 29.0039C19.9469 25.0144 23.1609 21.8434 27.1246 21.8692C31.0797 21.9037 34.2507 25.1522 34.2162 29.1332C34.1817 33.0107 30.8988 36.2334 27.0384 36.1817C23.0575 36.1386 19.8779 32.9332 19.9124 29.0039ZM32.9237 29.0384C32.9409 25.8329 30.3042 23.1704 27.0988 23.1531C23.8589 23.1359 21.2049 25.7554 21.1963 28.9867C21.1877 32.2352 23.7985 34.8805 27.0298 34.8892C30.2697 34.9064 32.9151 32.2783 32.9237 29.0384Z" fill="#202020"/>
<path d="M26.4699 29.6674C25.591 29.6674 24.7724 29.6933 23.9625 29.6502C23.7384 29.6416 23.4455 29.4606 23.3334 29.271C23.2387 29.1159 23.3076 28.7799 23.4282 28.6248C23.5402 28.4783 23.816 28.4007 24.0228 28.3921C24.8241 28.3663 25.6255 28.3835 26.4699 28.3835C26.4699 27.5305 26.4441 26.7205 26.4872 25.9019C26.4958 25.6779 26.6509 25.3763 26.8405 25.247C27.2541 24.9627 27.7538 25.316 27.7625 25.8588C27.7711 26.6774 27.7625 27.496 27.7625 28.3749C28.064 28.3749 28.357 28.3749 28.6414 28.3749C28.9774 28.3749 29.3135 28.3749 29.6495 28.3749C30.6663 28.3749 30.9765 28.5214 30.9851 29.0125C30.9937 29.5123 30.6749 29.6674 29.6237 29.6674C29.0205 29.6674 28.4173 29.6674 27.7625 29.6674C27.7625 30.3568 27.7625 31.0202 27.7625 31.6837C27.7625 31.8733 27.7711 32.0629 27.7625 32.2438C27.7366 32.623 27.4695 32.8815 27.1162 32.8815C26.7629 32.8815 26.4872 32.623 26.4786 32.2352C26.4613 31.4856 26.4699 30.7273 26.4699 29.9776C26.4699 29.9001 26.4699 29.8139 26.4699 29.6674Z" fill="#202020"/>
</g>
<defs>
<clipPath id="clip0_205_638">
<rect width="34.2169" height="36.1823" fill="white"/>
</clipPath>
</defs>
</svg>
