<svg width="36" height="36" viewBox="0 0 36 36" fill="none" xmlns="http://www.w3.org/2000/svg">
<g clip-path="url(#clip0_205_671)">
<path d="M17.3251 35.9981C16.6547 35.908 15.9778 35.8497 15.3141 35.722C9.73466 34.6465 5.58506 31.589 2.87749 26.607C1.3857 23.8614 0.780159 20.8876 0.891879 17.7701C1.15099 10.5506 6.00565 4.11829 12.8685 1.87524C15.9562 0.86643 19.0825 0.708628 22.252 1.40841C22.5815 1.48167 22.9017 1.59533 23.2894 1.70804C23.1711 1.41216 23.065 1.15198 22.9636 0.890853C22.8106 0.496347 22.9233 0.175106 23.2556 0.0426649C23.5682 -0.0813227 23.864 0.0680256 24.0254 0.450321C24.3249 1.16137 24.6197 1.87524 24.907 2.59192C25.0713 3.00052 24.9586 3.27386 24.5559 3.44199C23.8442 3.73975 23.1289 4.02905 22.4107 4.31272C22.0229 4.46583 21.7206 4.35593 21.5845 4.03375C21.4521 3.71908 21.5995 3.41193 21.9704 3.25225C22.2698 3.12263 22.575 3.00428 22.8942 2.79199C22.4247 2.66425 21.9619 2.49518 21.484 2.41534C16.3675 1.56527 11.7597 2.7037 7.77909 6.07109C4.72134 8.65792 2.83337 11.968 2.2466 15.929C1.43452 21.4099 2.98733 26.1975 6.91631 30.1087C10.4397 33.617 14.779 35.241 19.72 34.7639C26.2861 34.1299 30.8976 30.631 33.5301 24.5856C34.4783 22.4093 34.8172 20.0948 34.6989 17.7193C34.6745 17.23 34.912 16.9303 35.297 16.9472C35.6387 16.9623 35.8396 17.2093 35.8584 17.6649C35.9278 19.2889 35.8311 20.9064 35.4124 22.476C33.5489 29.455 29.0998 33.8368 22.0952 35.5933C21.3395 35.783 20.5471 35.8244 19.7726 35.9361C19.658 35.953 19.5454 35.9784 19.4318 36C18.7305 35.9981 18.0273 35.9981 17.3251 35.9981Z" fill="black"/>
<path d="M18.9595 17.9194C19.1596 17.9194 19.2995 17.9194 19.4395 17.9194C22.4152 17.9194 25.3918 17.9194 28.3675 17.9194C28.4727 17.9194 28.5789 17.9156 28.6841 17.9222C29.0307 17.9429 29.2721 18.1843 29.2664 18.499C29.2608 18.8014 29.0279 19.0334 28.701 19.0578C28.6193 19.0635 28.5366 19.0607 28.4549 19.0607C25.1739 19.0607 21.8939 19.0607 18.6129 19.0607C17.9836 19.0607 17.8173 18.8972 17.8173 18.2773C17.8164 14.0241 17.8173 9.77098 17.8173 5.51783C17.8173 5.41263 17.8117 5.30555 17.8286 5.20222C17.8737 4.92701 18.1292 4.71191 18.4016 4.73257C18.6871 4.75418 18.8881 4.90541 18.9435 5.19565C18.9698 5.33185 18.9586 5.47556 18.9586 5.61646C18.9595 9.56527 18.9595 13.5131 18.9595 17.462C18.9595 17.6 18.9595 17.7381 18.9595 17.9194Z" fill="black"/>
<path d="M33.1556 9.4225C33.2307 9.47886 33.4346 9.56245 33.521 9.71368C33.8281 10.25 34.1081 10.8033 34.3711 11.3622C34.5204 11.6796 34.3842 12.0018 34.0949 12.1305C33.8018 12.2611 33.4966 12.1474 33.3313 11.8318C33.0607 11.3152 32.7902 10.7967 32.5347 10.2726C32.3347 9.86209 32.6033 9.41968 33.1556 9.4225Z" fill="black"/>
<path d="M27.5403 3.65521C27.7592 3.75384 27.9076 3.79611 28.0269 3.87971C28.4852 4.20189 28.9408 4.5297 29.3851 4.87161C29.6932 5.10831 29.7439 5.47182 29.5335 5.73013C29.3287 5.98186 28.9934 6.00534 28.69 5.78461C28.2269 5.44834 27.762 5.11488 27.3045 4.7711C27.0894 4.61048 26.9655 4.37753 27.097 4.12956C27.1928 3.94733 27.3863 3.81395 27.5403 3.65521Z" fill="black"/>
<path d="M30.62 6.18475C30.8192 6.30029 30.9967 6.35571 31.1056 6.47406C31.5002 6.90426 31.8806 7.34761 32.2478 7.80223C32.4949 8.10844 32.4535 8.46537 32.1821 8.6692C31.9163 8.86833 31.6063 8.81386 31.3508 8.51704C30.9854 8.09247 30.5984 7.682 30.2706 7.23019C30.1541 7.07051 30.1128 6.78497 30.1673 6.59429C30.2124 6.43461 30.4491 6.33034 30.62 6.18475Z" fill="black"/>
<path d="M35.6471 15.3476C35.6124 15.6529 35.4029 15.9168 35.1164 15.9497C34.8112 15.9845 34.5745 15.8511 34.4946 15.5561C34.3302 14.9484 34.1847 14.3351 34.0541 13.7189C33.9902 13.4183 34.133 13.191 34.4242 13.0848C34.7088 12.9815 35.0291 13.1008 35.1193 13.392C35.3174 14.0354 35.4743 14.6939 35.6471 15.3476Z" fill="black"/>
</g>
<defs>
<clipPath id="clip0_205_671">
<rect width="35" height="36" fill="white" transform="translate(0.878906)"/>
</clipPath>
</defs>
</svg>
