<svg width="35" height="35" viewBox="0 0 35 35" fill="none" xmlns="http://www.w3.org/2000/svg">
<g clip-path="url(#clip0_205_682)">
<path d="M0.218605 21.4581C0.2385 21.2365 0.269246 21.015 0.275576 20.7925C0.355154 17.9413 0.436541 15.0909 0.505267 12.2397C0.52064 11.6112 0.69517 11.0704 1.16631 10.6354C2.21891 9.66243 3.70829 9.89031 4.40731 11.1391C4.85765 11.944 4.93723 12.8311 4.93723 13.7254C4.93814 15.5738 4.91824 17.4231 4.91101 19.2715C4.9101 19.512 4.93723 19.7535 4.95351 20.0239C6.28283 18.8881 7.15909 18.9839 8.37989 20.2174C9.36106 21.2094 10.3929 22.1607 11.4762 23.0388C12.5785 23.9322 13.0569 25.0617 13.0633 26.4272C13.075 28.952 13.0623 31.4777 13.0651 34.0025C13.0651 34.3082 12.9285 34.5134 12.6726 34.6563C10.5963 34.6563 8.52096 34.6563 6.4447 34.6563C6.13724 34.4963 6.04861 34.2349 6.05223 33.9003C6.06308 32.7745 6.05042 31.6477 6.06127 30.521C6.06308 30.2886 5.99345 30.1258 5.82796 29.9612C4.37205 28.5179 2.92788 27.0629 1.47377 25.6179C0.961033 25.1078 0.575803 24.5237 0.367814 23.8283C0.313557 23.6483 0.267438 23.4656 0.216797 23.2839C0.218605 22.6762 0.218605 22.0667 0.218605 21.4581ZM11.9826 33.5558C11.9826 33.4039 11.9826 33.2818 11.9826 33.1597C11.9844 31.3556 11.9917 29.5506 11.9862 27.7466C11.9844 27.1271 11.9718 26.5068 11.9284 25.8891C11.8777 25.1757 11.5938 24.5662 11.0259 24.1023C10.5638 23.7243 10.099 23.3454 9.664 22.9375C8.86731 22.1897 8.08509 21.4264 7.30921 20.6569C6.9086 20.2599 6.3832 20.193 6.01244 20.5276C5.63535 20.8676 5.64982 21.4319 6.0459 21.8506C6.11553 21.9238 6.18878 21.9943 6.26022 22.0667C7.36889 23.1753 8.47756 24.2822 9.58532 25.3927C9.89911 25.7074 9.93348 26.0402 9.6866 26.2771C9.44787 26.5059 9.12775 26.4688 8.82571 26.1668C7.63656 24.9794 6.44198 23.7975 5.26368 22.6002C4.2988 21.62 3.76436 20.476 3.815 19.0518C3.8783 17.2721 3.85569 15.4888 3.85479 13.7074C3.85479 13.0074 3.815 12.3039 3.46503 11.67C3.11145 11.0297 2.4486 10.9321 1.90422 11.4195C1.65463 11.6428 1.59947 11.9277 1.59042 12.2433C1.49819 15.6254 1.41318 19.0065 1.29924 22.3877C1.26488 23.4168 1.6067 24.2424 2.33737 24.9586C3.84393 26.4344 5.32065 27.9392 6.81908 29.424C7.04334 29.6465 7.15457 29.8771 7.14553 30.1972C7.12744 30.8619 7.1401 31.5274 7.1401 32.193C7.1401 32.6415 7.1401 33.0892 7.1401 33.5549C8.76241 33.5558 10.3476 33.5558 11.9826 33.5558Z" fill="#202020"/>
<path d="M22.4206 34.6572C22.1131 34.4972 22.0245 34.2376 22.0254 33.9021C22.0308 31.5338 22.0173 29.1654 22.0272 26.7962C22.029 26.3142 22.076 25.8268 22.1538 25.3502C22.284 24.558 22.6602 23.8888 23.2742 23.3589C24.5981 22.2186 25.941 21.1036 27.1211 19.8023C27.9106 18.9315 29.1494 19.0527 30.1324 20.0474C30.1523 19.7634 30.184 19.5283 30.1831 19.2932C30.1767 17.4439 30.1595 15.5937 30.1559 13.7444C30.1541 12.9405 30.2256 12.1438 30.5556 11.3951C31.2501 9.81978 33.0759 9.55572 34.1484 10.8706C34.464 11.2576 34.5725 11.7034 34.5852 12.1908C34.6566 14.8857 34.7335 17.5796 34.8085 20.2744C34.8293 21.0068 34.8447 21.7402 34.8746 22.4727C34.9252 23.7179 34.492 24.7588 33.6076 25.6332C32.1644 27.0611 30.7374 28.5053 29.295 29.9341C29.1033 30.124 29.0265 30.3139 29.031 30.5852C29.0464 31.6902 29.031 32.7962 29.0418 33.9012C29.0455 34.2358 28.9568 34.4972 28.6494 34.6581C26.5722 34.6572 24.4968 34.6572 22.4206 34.6572ZM27.954 33.5549C27.954 33.4066 27.954 33.2854 27.954 33.1633C27.954 32.1713 27.9621 31.1784 27.9485 30.1864C27.944 29.8798 28.0435 29.6565 28.2605 29.4412C29.7743 27.941 31.27 26.4218 32.7883 24.9261C33.4892 24.2352 33.8319 23.434 33.7939 22.4438C33.7243 20.6298 33.6872 18.8139 33.6357 16.999C33.5905 15.3866 33.547 13.7752 33.4964 12.1637C33.4792 11.6121 33.1763 11.2621 32.6409 11.1428C32.2069 11.0451 31.8334 11.2531 31.5892 11.7423C31.5187 11.8825 31.4455 12.0308 31.4238 12.1827C31.3487 12.7162 31.2474 13.2534 31.2438 13.7887C31.2311 15.638 31.2528 17.4873 31.2682 19.3375C31.2764 20.297 31.0141 21.1642 30.4001 21.9075C30.0782 22.2982 29.7436 22.6807 29.3882 23.0415C28.3437 24.1023 27.2875 25.1512 26.2322 26.2011C25.9528 26.4788 25.6245 26.4986 25.3966 26.269C25.1696 26.0402 25.1977 25.7182 25.4699 25.4325C25.5169 25.3836 25.5648 25.3366 25.6127 25.2887C26.7051 24.1963 27.7975 23.1039 28.8899 22.0115C28.9541 21.9473 29.0201 21.8858 29.0798 21.8189C29.4533 21.3957 29.4488 20.8567 29.0717 20.5221C28.7091 20.2002 28.1773 20.2527 27.8011 20.6451C27.3951 21.0683 27.0099 21.5133 26.5776 21.9075C25.7439 22.6662 24.8911 23.4041 24.032 24.1348C23.5111 24.5779 23.2507 25.1449 23.1693 25.8023C23.1268 26.1478 23.106 26.4987 23.106 26.8477C23.1024 28.9683 23.1078 31.088 23.1114 33.2085C23.1114 33.3189 23.1205 33.4292 23.1259 33.5576C24.732 33.5549 26.3181 33.5549 27.954 33.5549Z" fill="#202020"/>
<path d="M7.70118 9.84421C7.7057 4.40576 12.1331 -0.0117325 17.568 2.34093e-05C22.9901 0.0117793 27.3959 4.42927 27.3932 9.85235C27.3905 15.289 22.9594 19.7101 17.5264 19.6974C12.1042 19.6848 7.69665 15.2646 7.70118 9.84421ZM8.78362 9.83698C8.77006 14.6578 12.7001 18.6041 17.5264 18.615C22.3562 18.6258 26.2755 14.7265 26.3089 9.87767C26.3424 5.0668 22.4096 1.10236 17.5824 1.08428C12.7399 1.06438 8.79718 4.98632 8.78362 9.83698Z" fill="#202020"/>
<path d="M13.2559 15.1624C13.4449 14.2382 13.614 13.4099 13.7841 12.5824C13.8654 12.1854 13.9333 11.7839 14.0364 11.3924C14.0942 11.1717 14.0264 11.0442 13.8682 10.9013C13.0036 10.1255 12.1518 9.33509 11.2882 8.5574C11.0739 8.36388 10.9021 8.16312 10.9979 7.85838C11.0956 7.55001 11.3632 7.48942 11.6436 7.45958C12.7532 7.34021 13.8618 7.2109 14.9723 7.10419C15.2825 7.07435 15.4633 6.97035 15.5936 6.6638C16.0394 5.61752 16.5268 4.58934 16.9916 3.5512C17.1055 3.29619 17.2484 3.09996 17.5586 3.10629C17.8525 3.11171 17.989 3.30071 18.0976 3.54307C18.5823 4.62189 19.0805 5.69439 19.5562 6.77683C19.6475 6.98392 19.766 7.06259 19.9776 7.0843C21.0763 7.19914 22.1741 7.32394 23.2719 7.44602C23.3841 7.45868 23.5134 7.44149 23.6038 7.49304C23.7793 7.59161 23.9873 7.69651 24.0813 7.85838C24.2025 8.06727 24.0958 8.29244 23.9113 8.46064C23.385 8.93811 22.8614 9.41829 22.336 9.89757C21.9526 10.2475 21.5601 10.5875 21.193 10.9538C21.1043 11.0424 21.0429 11.2269 21.0664 11.3481C21.2879 12.5101 21.5258 13.6685 21.7708 14.8251C21.8305 15.1081 21.8531 15.3686 21.59 15.5567C21.3268 15.7439 21.0817 15.6371 20.8349 15.4961C19.8383 14.9246 18.8346 14.3648 17.8416 13.7851C17.6309 13.6622 17.4754 13.6558 17.2602 13.7815C16.2392 14.3784 15.2119 14.9671 14.172 15.5295C14.0011 15.6218 13.7262 15.6326 13.5462 15.5621C13.4006 15.5033 13.3256 15.2664 13.2559 15.1624ZM20.4876 14.0483C20.4578 13.8647 20.4433 13.7544 20.4207 13.6468C20.2507 12.8085 20.0852 11.9684 19.9043 11.1328C19.8419 10.8462 19.9197 10.631 20.1331 10.4401C20.6043 10.0196 21.0691 9.59191 21.5348 9.16599C21.7808 8.94082 22.0249 8.71294 22.298 8.45973C22.213 8.4317 22.1741 8.4109 22.1334 8.40638C21.2599 8.30962 20.3872 8.20201 19.5119 8.12514C19.1194 8.09078 18.8762 7.93162 18.7206 7.56086C18.3978 6.79311 18.0397 6.04074 17.6942 5.28293C17.6554 5.19703 17.6056 5.11564 17.5342 4.98271C17.1164 5.90419 16.7149 6.7696 16.3315 7.64315C16.2031 7.93524 16.0005 8.08174 15.6912 8.11067C15.2092 8.15679 14.7272 8.20924 14.2462 8.2635C13.7768 8.31595 13.3075 8.37473 12.7667 8.43893C13.5146 9.12168 14.1874 9.75378 14.8819 10.3606C15.174 10.6156 15.2653 10.8896 15.1712 11.2576C15.0763 11.6284 15.0067 12.0055 14.9298 12.3799C14.8213 12.9134 14.7173 13.4469 14.5961 14.0555C15.4832 13.5509 16.2998 13.1006 17.1019 12.6249C17.4094 12.4432 17.6707 12.435 17.9809 12.6186C18.7848 13.0934 19.6023 13.5455 20.4876 14.0483Z" fill="#202020"/>
</g>
<defs>
<clipPath id="clip0_205_682">
<rect width="34.6621" height="34.6581" fill="white" transform="translate(0.216797)"/>
</clipPath>
</defs>
</svg>
