<svg width="258" height="65" viewBox="0 0 258 65" fill="none" xmlns="http://www.w3.org/2000/svg">
<path d="M4.90758 57.15C4.19091 57.15 3.58591 56.9917 3.09258 56.675C2.59925 56.355 2.22591 55.9133 1.97258 55.35C1.71925 54.7867 1.59258 54.1367 1.59258 53.4C1.59258 52.6633 1.71925 52.0133 1.97258 51.45C2.22591 50.8867 2.59925 50.4467 3.09258 50.13C3.58591 49.81 4.19091 49.65 4.90758 49.65C5.62758 49.65 6.23258 49.81 6.72258 50.13C7.21591 50.4467 7.58925 50.8867 7.84258 51.45C8.09925 52.0133 8.22758 52.6633 8.22758 53.4C8.22758 54.1367 8.09925 54.7867 7.84258 55.35C7.58925 55.9133 7.21591 56.355 6.72258 56.675C6.23258 56.9917 5.62758 57.15 4.90758 57.15ZM4.90758 56.445C5.47091 56.445 5.94091 56.3167 6.31758 56.06C6.69425 55.8033 6.97591 55.4467 7.16258 54.99C7.35258 54.53 7.44758 54 7.44758 53.4C7.44758 52.8 7.35258 52.2717 7.16258 51.815C6.97591 51.3583 6.69425 51.0017 6.31758 50.745C5.94091 50.4883 5.47091 50.3583 4.90758 50.355C4.34425 50.355 3.87591 50.4833 3.50258 50.74C3.12925 50.9967 2.84758 51.355 2.65758 51.815C2.47091 52.2717 2.37591 52.8 2.37258 53.4C2.36925 54 2.46091 54.5283 2.64758 54.985C2.83758 55.4383 3.12091 55.795 3.49758 56.055C3.87425 56.3117 4.34425 56.4417 4.90758 56.445ZM15.4439 57.15C14.7272 57.15 14.1222 56.9917 13.6289 56.675C13.1356 56.355 12.7622 55.9133 12.5089 55.35C12.2556 54.7867 12.1289 54.1367 12.1289 53.4C12.1289 52.6633 12.2556 52.0133 12.5089 51.45C12.7622 50.8867 13.1356 50.4467 13.6289 50.13C14.1222 49.81 14.7272 49.65 15.4439 49.65C16.2806 49.65 16.9639 49.865 17.4939 50.295C18.0239 50.7217 18.3872 51.295 18.5839 52.015L17.8339 52.21C17.6806 51.64 17.4056 51.1883 17.0089 50.855C16.6122 50.5217 16.0906 50.355 15.4439 50.355C14.8806 50.355 14.4122 50.4833 14.0389 50.74C13.6656 50.9967 13.3839 51.355 13.1939 51.815C13.0072 52.2717 12.9106 52.8 12.9039 53.4C12.9006 54 12.9922 54.5283 13.1789 54.985C13.3689 55.4417 13.6522 55.8 14.0289 56.06C14.4089 56.3167 14.8806 56.445 15.4439 56.445C16.0906 56.445 16.6122 56.2783 17.0089 55.945C17.4056 55.6083 17.6806 55.1567 17.8339 54.59L18.5839 54.785C18.3872 55.505 18.0239 56.08 17.4939 56.51C16.9639 56.9367 16.2806 57.15 15.4439 57.15ZM22.9871 57V49.8H23.7221V53.045H27.7021V49.8H28.4321V57H27.7021V53.75H23.7221V57H22.9871ZM36.0478 57.15C35.3311 57.15 34.7261 56.9917 34.2328 56.675C33.7395 56.355 33.3661 55.9133 33.1128 55.35C32.8595 54.7867 32.7328 54.1367 32.7328 53.4C32.7328 52.6633 32.8595 52.0133 33.1128 51.45C33.3661 50.8867 33.7395 50.4467 34.2328 50.13C34.7261 49.81 35.3311 49.65 36.0478 49.65C36.7678 49.65 37.3728 49.81 37.8628 50.13C38.3561 50.4467 38.7295 50.8867 38.9828 51.45C39.2395 52.0133 39.3678 52.6633 39.3678 53.4C39.3678 54.1367 39.2395 54.7867 38.9828 55.35C38.7295 55.9133 38.3561 56.355 37.8628 56.675C37.3728 56.9917 36.7678 57.15 36.0478 57.15ZM36.0478 56.445C36.6111 56.445 37.0811 56.3167 37.4578 56.06C37.8345 55.8033 38.1161 55.4467 38.3028 54.99C38.4928 54.53 38.5878 54 38.5878 53.4C38.5878 52.8 38.4928 52.2717 38.3028 51.815C38.1161 51.3583 37.8345 51.0017 37.4578 50.745C37.0811 50.4883 36.6111 50.3583 36.0478 50.355C35.4845 50.355 35.0161 50.4833 34.6428 50.74C34.2695 50.9967 33.9878 51.355 33.7978 51.815C33.6111 52.2717 33.5161 52.8 33.5128 53.4C33.5095 54 33.6011 54.5283 33.7878 54.985C33.9778 55.4383 34.2611 55.795 34.6378 56.055C35.0145 56.3117 35.4845 56.4417 36.0478 56.445ZM43.6691 57V49.8H46.4491C46.8525 49.8 47.2041 49.8833 47.5041 50.05C47.8041 50.2167 48.0375 50.4417 48.2041 50.725C48.3708 51.005 48.4541 51.315 48.4541 51.655C48.4541 52.0417 48.3508 52.3867 48.1441 52.69C47.9375 52.99 47.6608 53.1983 47.3141 53.315L47.3041 53.07C47.7708 53.2033 48.1375 53.4367 48.4041 53.77C48.6708 54.1033 48.8041 54.5067 48.8041 54.98C48.8041 55.3967 48.7158 55.7567 48.5391 56.06C48.3625 56.36 48.1141 56.5917 47.7941 56.755C47.4741 56.9183 47.1025 57 46.6791 57H43.6691ZM44.4091 56.295H46.4991C46.7925 56.295 47.0558 56.2433 47.2891 56.14C47.5225 56.0333 47.7058 55.8833 47.8391 55.69C47.9758 55.4967 48.0441 55.2633 48.0441 54.99C48.0441 54.7233 47.9825 54.4833 47.8591 54.27C47.7358 54.0567 47.5675 53.8867 47.3541 53.76C47.1441 53.63 46.9041 53.565 46.6341 53.565H44.4091V56.295ZM44.4091 52.87H46.4441C46.6741 52.87 46.8841 52.8183 47.0741 52.715C47.2641 52.6083 47.4141 52.4633 47.5241 52.28C47.6375 52.0967 47.6941 51.885 47.6941 51.645C47.6941 51.305 47.5758 51.0283 47.3391 50.815C47.1058 50.6017 46.8075 50.495 46.4441 50.495H44.4091V52.87ZM52.602 57L55.082 49.8H56.057L58.537 57H57.772L55.417 50.21H55.707L53.367 57H52.602ZM53.707 55.255V54.565H57.427V55.255H53.707ZM62.7398 57V49.8H63.4748V53.045H67.4548V49.8H68.1848V57H67.4548V53.75H63.4748V57H62.7398ZM75.8005 57.15C75.0839 57.15 74.4789 56.9917 73.9855 56.675C73.4922 56.355 73.1189 55.9133 72.8655 55.35C72.6122 54.7867 72.4855 54.1367 72.4855 53.4C72.4855 52.6633 72.6122 52.0133 72.8655 51.45C73.1189 50.8867 73.4922 50.4467 73.9855 50.13C74.4789 49.81 75.0839 49.65 75.8005 49.65C76.5205 49.65 77.1255 49.81 77.6155 50.13C78.1089 50.4467 78.4822 50.8867 78.7355 51.45C78.9922 52.0133 79.1205 52.6633 79.1205 53.4C79.1205 54.1367 78.9922 54.7867 78.7355 55.35C78.4822 55.9133 78.1089 56.355 77.6155 56.675C77.1255 56.9917 76.5205 57.15 75.8005 57.15ZM75.8005 56.445C76.3639 56.445 76.8339 56.3167 77.2105 56.06C77.5872 55.8033 77.8689 55.4467 78.0555 54.99C78.2455 54.53 78.3405 54 78.3405 53.4C78.3405 52.8 78.2455 52.2717 78.0555 51.815C77.8689 51.3583 77.5872 51.0017 77.2105 50.745C76.8339 50.4883 76.3639 50.3583 75.8005 50.355C75.2372 50.355 74.7689 50.4833 74.3955 50.74C74.0222 50.9967 73.7405 51.355 73.5505 51.815C73.3639 52.2717 73.2689 52.8 73.2655 53.4C73.2622 54 73.3539 54.5283 73.5405 54.985C73.7305 55.4383 74.0139 55.795 74.3905 56.055C74.7672 56.3117 75.2372 56.4417 75.8005 56.445ZM88.7238 57V49.8H91.5038C91.9072 49.8 92.2588 49.8833 92.5588 50.05C92.8588 50.2167 93.0922 50.4417 93.2588 50.725C93.4255 51.005 93.5088 51.315 93.5088 51.655C93.5088 52.0417 93.4055 52.3867 93.1988 52.69C92.9922 52.99 92.7155 53.1983 92.3688 53.315L92.3588 53.07C92.8255 53.2033 93.1922 53.4367 93.4588 53.77C93.7255 54.1033 93.8588 54.5067 93.8588 54.98C93.8588 55.3967 93.7705 55.7567 93.5938 56.06C93.4172 56.36 93.1688 56.5917 92.8488 56.755C92.5288 56.9183 92.1572 57 91.7338 57H88.7238ZM89.4638 56.295H91.5538C91.8472 56.295 92.1105 56.2433 92.3438 56.14C92.5772 56.0333 92.7605 55.8833 92.8938 55.69C93.0305 55.4967 93.0988 55.2633 93.0988 54.99C93.0988 54.7233 93.0372 54.4833 92.9138 54.27C92.7905 54.0567 92.6222 53.8867 92.4088 53.76C92.1988 53.63 91.9588 53.565 91.6888 53.565H89.4638V56.295ZM89.4638 52.87H91.4988C91.7288 52.87 91.9388 52.8183 92.1288 52.715C92.3188 52.6083 92.4688 52.4633 92.5788 52.28C92.6922 52.0967 92.7488 51.885 92.7488 51.645C92.7488 51.305 92.6305 51.0283 92.3938 50.815C92.1605 50.6017 91.8622 50.495 91.4988 50.495H89.4638V52.87ZM103.259 56.995L103.264 56.325L106.519 53.385C106.799 53.1317 106.984 52.8917 107.074 52.665C107.167 52.435 107.214 52.195 107.214 51.945C107.214 51.6483 107.144 51.38 107.004 51.14C106.864 50.9 106.675 50.71 106.439 50.57C106.202 50.4267 105.937 50.355 105.644 50.355C105.337 50.355 105.064 50.4283 104.824 50.575C104.584 50.7217 104.394 50.915 104.254 51.155C104.117 51.395 104.05 51.6567 104.054 51.94H103.304C103.304 51.5033 103.407 51.1117 103.614 50.765C103.82 50.4183 104.1 50.1467 104.454 49.95C104.807 49.75 105.207 49.65 105.654 49.65C106.09 49.65 106.482 49.7533 106.829 49.96C107.179 50.1633 107.454 50.44 107.654 50.79C107.857 51.1367 107.959 51.5233 107.959 51.95C107.959 52.25 107.922 52.515 107.849 52.745C107.779 52.9717 107.667 53.1833 107.514 53.38C107.364 53.5733 107.172 53.7733 106.939 53.98L104.049 56.59L103.934 56.29H107.959V56.995H103.259ZM114.812 57.15C114.368 57.15 113.968 57.0467 113.612 56.84C113.258 56.6333 112.978 56.3533 112.772 56C112.565 55.6433 112.462 55.2433 112.462 54.8V52C112.462 51.5567 112.565 51.1583 112.772 50.805C112.978 50.4483 113.258 50.1667 113.612 49.96C113.968 49.7533 114.368 49.65 114.812 49.65C115.255 49.65 115.653 49.7533 116.007 49.96C116.363 50.1667 116.645 50.4483 116.852 50.805C117.058 51.1583 117.162 51.5567 117.162 52V54.8C117.162 55.2433 117.058 55.6433 116.852 56C116.645 56.3533 116.363 56.6333 116.007 56.84C115.653 57.0467 115.255 57.15 114.812 57.15ZM114.812 56.44C115.108 56.44 115.378 56.3683 115.622 56.225C115.865 56.0783 116.058 55.8833 116.202 55.64C116.345 55.3967 116.417 55.1283 116.417 54.835V51.965C116.417 51.6683 116.345 51.3983 116.202 51.155C116.058 50.9117 115.865 50.7183 115.622 50.575C115.378 50.4283 115.108 50.355 114.812 50.355C114.515 50.355 114.245 50.4283 114.002 50.575C113.758 50.7183 113.565 50.9117 113.422 51.155C113.278 51.3983 113.207 51.6683 113.207 51.965V54.835C113.207 55.1283 113.278 55.3967 113.422 55.64C113.565 55.8833 113.758 56.0783 114.002 56.225C114.245 56.3683 114.515 56.44 114.812 56.44ZM123.12 57V50.62L121.765 51.435V50.61L123.12 49.8H123.865V57H123.12ZM130.317 57V50.62L128.962 51.435V50.61L130.317 49.8H131.062V57H130.317ZM141.56 57V49.8H146.06V50.505H142.295V57H141.56ZM153.078 57.15C152.361 57.15 151.756 56.9917 151.263 56.675C150.77 56.355 150.396 55.9133 150.143 55.35C149.89 54.7867 149.763 54.1367 149.763 53.4C149.763 52.6633 149.89 52.0133 150.143 51.45C150.396 50.8867 150.77 50.4467 151.263 50.13C151.756 49.81 152.361 49.65 153.078 49.65C153.798 49.65 154.403 49.81 154.893 50.13C155.386 50.4467 155.76 50.8867 156.013 51.45C156.27 52.0133 156.398 52.6633 156.398 53.4C156.398 54.1367 156.27 54.7867 156.013 55.35C155.76 55.9133 155.386 56.355 154.893 56.675C154.403 56.9917 153.798 57.15 153.078 57.15ZM153.078 56.445C153.641 56.445 154.111 56.3167 154.488 56.06C154.865 55.8033 155.146 55.4467 155.333 54.99C155.523 54.53 155.618 54 155.618 53.4C155.618 52.8 155.523 52.2717 155.333 51.815C155.146 51.3583 154.865 51.0017 154.488 50.745C154.111 50.4883 153.641 50.3583 153.078 50.355C152.515 50.355 152.046 50.4833 151.673 50.74C151.3 50.9967 151.018 51.355 150.828 51.815C150.641 52.2717 150.546 52.8 150.543 53.4C150.54 54 150.631 54.5283 150.818 54.985C151.008 55.4383 151.291 55.795 151.668 56.055C152.045 56.3117 152.515 56.4417 153.078 56.445ZM160.169 58.2V56.295C160.449 56.295 160.674 56.225 160.844 56.085C161.014 55.9417 161.144 55.7517 161.234 55.515C161.324 55.2783 161.392 55.0133 161.439 54.72C161.486 54.4233 161.526 54.1233 161.559 53.82C161.606 53.3767 161.642 52.9483 161.669 52.535C161.699 52.1217 161.724 51.6933 161.744 51.25C161.767 50.8067 161.794 50.3217 161.824 49.795L166.264 49.8V56.295H166.779V58.2H166.049V57H160.904V58.2H160.169ZM161.574 56.295H165.529V50.505L162.509 50.5C162.489 50.9067 162.469 51.3 162.449 51.68C162.429 52.06 162.406 52.4433 162.379 52.83C162.352 53.2167 162.317 53.62 162.274 54.04C162.237 54.4233 162.194 54.7583 162.144 55.045C162.094 55.3317 162.024 55.5767 161.934 55.78C161.847 55.9833 161.727 56.155 161.574 56.295ZM172.392 57L173.202 55.295L170.642 49.8H171.457L173.587 54.505L175.757 49.8H176.542L173.192 57H172.392Z" fill="white"/>
<path d="M39.2202 32.4177L39.2926 28.7714V19.9216H36.4055V38.3628H38.0439L48.2238 25.8164L48.1556 29.1058V38.3628H51.0426V19.9216H49.3318L39.2202 32.4177Z" fill="white"/>
<path d="M67.4948 24.6996L67.538 24.5583C68.06 22.7408 68.3607 22.3322 70.1146 22.5309L71.0431 22.6344V20.0907L70.3359 19.9802C66.6137 19.3967 65.482 21.4381 64.8152 23.7258L64.747 23.9539C64.4032 25.1096 63.8296 27.0432 63.0362 27.4924C62.4599 27.824 61.2405 27.9219 60.0545 27.9471V19.9452H57.1688V38.3626H60.0545V30.6587C61.189 30.6405 62.2664 30.5734 63.0654 30.3691L68.8033 38.3626H71.4482V37.0795L65.5307 28.9363C66.5524 27.7708 67.0494 26.152 67.4948 24.6996Z" fill="white"/>
<path d="M73.7228 22.7269H79.1934V38.3627H82.0554V22.7269H87.5261V19.9453H73.7228V22.7269Z" fill="white"/>
<path d="M99.0339 19.6824C93.6843 19.6824 89.802 23.6658 89.802 29.1548C89.802 34.6424 93.6843 38.6258 99.0339 38.6258C104.499 38.6258 108.314 34.7305 108.314 29.1548C108.314 23.6658 104.411 19.6824 99.0339 19.6824ZM99.0339 35.8205C95.2977 35.8205 92.6877 33.0795 92.6877 29.1548C92.6877 25.2441 95.3074 22.5129 99.0575 22.5129C102.809 22.5129 105.429 25.2441 105.429 29.1548C105.429 33.0795 102.799 35.8205 99.0339 35.8205Z" fill="white"/>
<path d="M120.663 19.9216C119.257 19.9048 117.777 19.9104 116.323 19.916L113.372 19.9216V38.339H116.234V32.6961H120.653C124.487 32.6961 127.27 30.0195 127.27 26.3326C127.27 22.6178 124.487 19.9216 120.663 19.9216ZM120.653 29.9145H116.234V22.6794H120.653C122.864 22.6794 124.408 24.1723 124.408 26.3088C124.408 28.4314 122.864 29.9145 120.653 29.9145Z" fill="white"/>
<path d="M134.691 32.4177L134.762 28.7714V19.9216H131.876V38.3628H133.513L143.694 25.8164L143.626 29.1058V38.3628H146.512V19.9216H144.801L134.691 32.4177Z" fill="white"/>
<path d="M151.807 25.9745C151.807 28.5406 153.303 30.6043 155.65 31.4452L151.093 37.0294V38.339H153.687L158.777 31.9322H162.603V38.339H165.465V19.9216H158.206C154.499 19.9216 151.807 22.4667 151.807 25.9745ZM162.628 22.7032V29.222H158.232C156.446 29.222 154.645 28.2104 154.645 25.9507C154.645 23.7078 156.448 22.7032 158.232 22.7032H162.628Z" fill="white"/>
<path d="M182.281 22.7269H187.752V38.3627H190.614V22.7269H196.086V19.9453H182.281V22.7269Z" fill="white"/>
<path d="M207.592 19.6824C202.242 19.6824 198.36 23.6658 198.36 29.1548C198.36 34.6424 202.244 38.6258 207.592 38.6258C213.057 38.6258 216.873 34.7305 216.873 29.1548C216.873 23.6658 212.969 19.6824 207.592 19.6824ZM207.592 35.8205C203.856 35.8205 201.246 33.0795 201.246 29.1548C201.246 25.2441 203.866 22.5129 207.616 22.5129C211.367 22.5129 213.987 25.2441 213.987 29.1548C213.986 33.0795 211.356 35.8205 207.592 35.8205Z" fill="white"/>
<path d="M229.221 19.9216C227.815 19.9048 226.336 19.9104 224.881 19.916L221.93 19.9216V38.339H224.792V32.6961H229.212C233.045 32.6961 235.828 30.0195 235.828 26.3326C235.828 22.6178 233.045 19.9216 229.221 19.9216ZM229.212 29.9145H224.792V22.6794H229.212C231.422 22.6794 232.966 24.1723 232.966 26.3088C232.966 28.4314 231.422 29.9145 229.212 29.9145Z" fill="white"/>
<path d="M240.434 19.9453V38.3627H243.32V22.7269H251.597V19.9453H240.434Z" fill="white"/>
<path fill-rule="evenodd" clip-rule="evenodd" d="M29.0292 25.0831C28.368 23.821 27.4144 22.7129 26.273 21.879L26.1894 21.8174L26.1338 21.9055C25.673 22.6401 25.1733 23.3691 24.6485 24.0715L24.59 24.1498L24.668 24.2086C25.4433 24.785 26.0906 25.5448 26.5402 26.4025C27.175 27.617 27.4116 28.977 27.2209 30.3384C27.0316 31.6942 26.433 32.9353 25.4906 33.9259C24.5705 34.8899 23.3984 35.5405 22.1206 35.8022L9.48658 35.7546C9.89165 35.3964 10.3218 35.0172 10.7728 34.6199C15.5767 30.3874 22.8375 23.9917 25.4391 18.3111C26.5012 15.9898 26.781 13.9358 26.2716 12.2078C25.6981 10.263 24.1098 8.67632 21.5512 7.49402C18.9969 6.31311 9.27221 6.45443 4.04656 6.52719C3.17376 6.53978 2.42903 6.55097 1.88614 6.55377L0.636108 6.56077V15.0118L1.9975 15.0314C2.26756 15.037 2.87169 15.0132 3.70551 14.981C7.17165 14.8523 15.07 14.5571 17.6494 15.2539C16.6444 17.7654 10.777 23.3509 0.672301 31.413L0.636108 31.4423V38.5725H3.32549V32.8975C10.3093 27.2672 18.905 19.8194 20.2873 16.2375C20.6116 15.3966 20.677 14.6774 20.4808 14.1009C20.2747 13.4923 19.7764 13.0306 19.001 12.7283C16.3228 11.6832 7.41664 12.0176 3.60529 12.1603L3.38674 12.1645L3.32549 9.36192L4.07858 9.35213C9.07872 9.27937 18.3858 9.14365 20.3722 10.0643C22.0412 10.8367 23.0755 11.8678 23.443 13.1299C23.7715 14.2534 23.5808 15.5995 22.8806 17.1288C20.5253 22.2749 13.5401 28.4257 8.92003 32.4959L8.65415 32.731C8.1224 33.1997 7.62127 33.6404 7.15912 34.0546L6.9698 34.2239H7.18835V38.5711L22.3878 38.6271L22.502 38.6061C24.4299 38.2465 26.1644 37.3063 27.5146 35.8861C28.8719 34.4618 29.7335 32.6778 30.0064 30.7274C30.2792 28.7769 29.9409 26.8264 29.0292 25.0831Z" fill="white"/>
<path fill-rule="evenodd" clip-rule="evenodd" d="M3.35751 25.9548V16.814H0.636108V28.1977L3.35751 25.9548Z" fill="white"/>
<path d="M39.7699 12.7045L37.8531 10.5638V14.1863C37.384 14.1863 36.9149 14.1863 36.4597 14.1863C36.4597 12.1393 36.4597 9.63335 36.4597 7.69409H36.9149L39.8354 10.9528L42.7837 7.69409H43.2389C43.2389 9.63335 43.2389 12.1393 43.2389 14.1863C42.7572 14.1863 42.2881 14.1863 41.8329 14.1863V10.5638L39.9036 12.7045H39.7699Z" fill="white"/>
<path d="M54.968 11.2089H50.1976C50.1976 12.394 51.1219 13.095 52.3009 13.095C53.1041 13.1356 53.8822 13.0279 54.6465 12.6907L54.8344 13.782C54.0841 14.1192 53.2127 14.3333 52.3956 14.3333C50.2644 14.3739 48.697 12.9999 48.7638 10.8046C48.8041 8.63586 50.3576 7.5459 52.113 7.5459C54.3792 7.5459 55.3968 9.05421 54.968 11.2089ZM50.224 10.1722H53.789C53.8293 9.18853 53.0247 8.67783 52.1004 8.67783C51.1358 8.67783 50.4258 9.14795 50.224 10.1722Z" fill="white"/>
<path d="M67.3236 11.0339C67.3236 12.8529 66.1585 14.3206 63.9605 14.3206C61.8432 14.3206 60.8117 13.0012 60.5973 11.3711C60.2493 8.70431 60.9328 6.42785 63.6389 5.47221C64.1623 5.29732 65.1005 4.94612 64.8319 4.28711H66.171C66.5329 5.33789 65.6086 6.13262 64.7108 6.48382C63.1169 7.10225 62.1244 7.43946 61.8557 8.98834C62.2441 8.30135 63.2088 7.77666 64.1609 7.76266C66.1849 7.6941 67.3236 9.26958 67.3236 11.0339ZM63.9466 13.0404C65.1395 13.0404 65.9023 12.1785 65.8898 11.0213C65.8759 9.90341 65.0991 9.02752 63.9201 9.02752C62.7411 9.02752 61.9643 9.92999 61.9768 11.0213C61.9768 12.2876 62.8483 13.0404 63.9466 13.0404Z" fill="white"/>
<path d="M78.6616 11.2089H73.8912C73.8912 12.394 74.8155 13.095 75.9945 13.095C76.7977 13.1356 77.5758 13.0279 78.3401 12.6907L78.528 13.782C77.7777 14.1192 76.9063 14.3333 76.0892 14.3333C73.958 14.3739 72.3906 12.9999 72.4574 10.8046C72.4977 8.63586 74.0512 7.5459 75.8066 7.5459C78.0728 7.5459 79.0904 9.05421 78.6616 11.2089ZM73.9176 10.1722H77.4826C77.5229 9.18853 76.7184 8.67783 75.7941 8.67783C74.8294 8.67783 74.1195 9.14795 73.9176 10.1722Z" fill="white"/>
<path d="M86.6351 8.98693L86.3275 11.8832C86.1396 13.9022 85.5911 14.4829 83.5267 14.1863L83.5532 13.1089C84.6793 13.2698 84.7851 12.7857 84.8937 11.8287L85.3753 7.69409C87.011 7.69409 88.6452 7.69409 90.2933 7.69409V14.1863H88.8596V8.98693H86.6351Z" fill="white"/>
<path d="M96.2178 14.1863C96.2178 12.0175 96.2178 9.86282 96.2178 7.69409H97.6251V9.7145H98.9253C100.399 9.7145 101.766 10.2938 101.766 11.9504C101.766 13.5804 100.373 14.1863 98.9113 14.1863H96.2178ZM97.6251 10.8324V13.0683H98.8974C99.6881 13.0683 100.345 12.7185 100.345 11.9504C100.345 11.1822 99.6881 10.8324 98.8974 10.8324H97.6251Z" fill="white"/>
<path d="M114.9 14.1988H114.498V7.69399H115.918V11.6005L119.964 7.6814C120.124 7.6814 120.272 7.6814 120.419 7.6814C120.419 9.85012 120.419 12.0188 120.419 14.1862C119.95 14.1862 119.481 14.1862 119.014 14.1862V10.2671L114.9 14.1988Z" fill="white"/>
<path d="M141.019 7.69399H142.345C142.412 9.08197 142.104 10.2671 140.764 10.8603L142.748 14.0253V14.1876H141.273L139.558 11.3179C139.344 11.3724 139.103 11.4116 138.634 11.4116V14.1862H137.239V11.4116C136.744 11.4116 136.529 11.371 136.315 11.3179L134.586 14.1876H133.126V14.0253L135.096 10.8603C133.769 10.2671 133.474 9.08197 133.541 7.69399H134.908C134.841 9.17572 135.363 10.2531 137.239 10.2531V7.6814H138.634V10.2531C140.483 10.2531 141.085 9.17572 141.019 7.69399Z" fill="white"/>
<path d="M149.89 14.308C148.711 14.308 147.572 13.5539 147.572 12.2876C147.532 10.7387 148.658 9.99855 150.078 9.99855C150.707 9.99855 151.417 10.1609 151.995 10.4827V9.83625C151.995 8.12506 149.087 8.69032 148.282 9.09469L148.068 8.0453C148.725 7.7081 149.595 7.5332 150.452 7.5332C152.021 7.5332 153.415 8.08588 153.415 9.87682V12.4359C153.415 13.0418 153.388 13.4321 154.084 13.365L154.111 14.2003C153.092 14.3766 152.301 14.3766 152.262 13.0963C151.833 13.9568 150.802 14.308 149.89 14.308ZM151.995 11.4243C151.512 11.1417 150.896 10.9668 150.32 10.9794C149.61 10.9934 149.007 11.4103 149.007 12.2051C149.007 12.8515 149.598 13.1481 150.186 13.1481C150.951 13.1481 151.847 12.7843 151.996 11.963V11.4243H151.995Z" fill="white"/>
<path d="M161.871 8.98693L161.563 11.8832C161.376 13.9022 160.827 14.4829 158.763 14.1863L158.789 13.1089C159.915 13.2698 160.021 12.7857 160.13 11.8287L160.611 7.69409C162.247 7.69409 163.881 7.69409 165.529 7.69409V14.1863H164.096V8.98693H161.871Z" fill="white"/>
<path d="M177.457 14.3332C175.876 14.3332 174.321 13.3902 174.08 11.4649H172.875V14.1863H171.455V7.69411H172.875V10.186H174.121C174.442 8.40909 175.955 7.5332 177.484 7.5332C179.185 7.54719 180.861 8.70571 180.861 10.9416C180.861 13.2167 179.159 14.3332 177.457 14.3332ZM177.457 13.0278C178.422 13.0278 179.387 12.3268 179.387 10.9402C179.387 9.55222 178.422 8.85263 177.457 8.83864C176.479 8.83864 175.488 9.53962 175.488 10.9402C175.486 12.3268 176.479 13.0404 177.457 13.0278Z" fill="white"/>
<path d="M186.128 8.07191C186.719 7.7487 187.629 7.55981 188.5 7.55981C189.774 7.55981 191.087 7.97817 191.087 9.33817C191.087 9.99858 190.739 10.5233 190.069 10.6982C190.9 10.8997 191.463 11.4929 191.463 12.3674C191.463 13.8225 190.055 14.3472 188.635 14.3472C187.616 14.3472 186.559 14.0786 185.915 13.6868L185.996 12.4485C186.437 12.7857 187.565 13.109 188.422 13.1215C189.199 13.1215 189.923 12.9061 189.923 12.2051C189.923 11.3432 189.025 11.3026 188.315 11.3026C187.994 11.3026 187.686 11.3026 187.363 11.3026V10.2924C187.658 10.2924 187.953 10.2924 188.247 10.2924C188.864 10.2924 189.547 10.2378 189.547 9.49768C189.547 8.82327 188.89 8.67636 188.247 8.67636C187.644 8.67636 186.72 8.83866 186.211 9.13389L186.128 8.07191Z" fill="white"/>
<path d="M197.358 14.1988H196.956V7.69399H198.375V11.6005L202.422 7.6814C202.582 7.6814 202.73 7.6814 202.877 7.6814C202.877 9.85012 202.877 12.0188 202.877 14.1862C202.408 14.1862 201.939 14.1862 201.471 14.1862V10.2671L197.358 14.1988Z" fill="white"/>
<path d="M180.107 27.1006H171.83V29.8822H180.107V27.1006Z" fill="white"/>
</svg>
