<svg width="124" height="56" viewBox="0 0 124 56" fill="none" xmlns="http://www.w3.org/2000/svg">
<path d="M35.1815 41.6899H34.2294V48.8428H38.7035V47.9897H35.1815V41.6899Z" fill="#F8A120"/>
<path d="M46.7226 41.6899H45.7616V48.8428H46.7226V41.6899Z" fill="#F8A120"/>
<path d="M57.1065 45.8186H59.306C59.2971 46.6571 59.0877 47.2623 58.6814 47.6378C58.2734 48.0115 57.758 48.1993 57.137 48.1993C56.3244 48.1993 55.7392 47.9331 55.3813 47.399C55.0216 46.8649 54.8426 46.1722 54.8426 45.3228C54.8426 44.3384 55.0592 43.5984 55.4958 43.1007C55.9307 42.6067 56.4658 42.357 57.1029 42.357C57.6398 42.357 58.0837 42.4773 58.4363 42.7143C58.7888 42.9531 59.0215 43.3341 59.1342 43.8554H60.0756C59.9217 42.9221 59.5011 42.2677 58.8139 41.894C58.3396 41.6351 57.7759 41.5039 57.128 41.5039C56.1777 41.5039 55.4064 41.843 54.8086 42.5174C54.1822 43.2265 53.8672 44.178 53.8672 45.3757C53.8672 46.5769 54.1894 47.5212 54.8301 48.2084C55.4207 48.757 56.124 49.0305 56.9419 49.0305C57.5754 49.0305 58.098 48.912 58.5078 48.6714C58.7512 48.5328 59.0322 48.2813 59.349 47.9222L59.578 48.8427H60.1901V45.0147H57.1065V45.8186Z" fill="#F8A120"/>
<path d="M72.2185 44.6448H68.6123V41.6899H67.6512V48.8428H68.6123V45.4979H72.2185V48.8428H73.1795V41.6899H72.2185V44.6448Z" fill="#F8A120"/>
<path d="M79.9802 41.6899V42.543H82.3462V48.8428H83.3072V42.543H85.6731V41.6899H79.9802Z" fill="#F8A120"/>
<path d="M17.9363 28.8186C16.9234 29.3436 15.7619 29.6061 14.4501 29.6061C13.1848 29.6061 12.0466 29.3855 11.0336 28.9425C10.0225 28.4996 9.15449 27.8762 8.42968 27.0705C7.70486 26.2666 7.14649 25.3059 6.75634 24.1849C6.36441 23.0657 6.16933 21.8298 6.16933 20.4772C6.16933 19.1957 6.36978 18.0072 6.77245 16.9099C7.17512 15.8162 7.7496 14.8592 8.49768 14.0425C9.24576 13.2277 10.137 12.5861 11.1732 12.1194C12.2076 11.6528 13.3584 11.4194 14.6237 11.4194C15.6116 11.4194 16.6245 11.6254 17.6589 12.0319C18.6952 12.4402 19.3054 12.854 19.9497 13.7399L23.4914 11.3155C23.0082 10.6611 22.4212 10.1033 21.7322 9.63668C21.0414 9.17003 20.3041 8.77812 19.5238 8.46276C18.7399 8.14923 17.9238 7.91773 17.0737 7.76643C16.2219 7.61331 15.4058 7.53857 14.6237 7.53857C12.7356 7.53857 10.9889 7.84117 9.37819 8.44818C7.7675 9.05337 6.36978 9.91558 5.18502 11.0348C4.00027 12.154 3.06964 13.5121 2.39136 15.1089C1.71129 16.7075 1.37305 18.4958 1.37305 20.4772C1.37305 22.4149 1.69519 24.1794 2.33946 25.7762C2.98195 27.3731 3.88036 28.7493 5.03111 29.9032C6.18007 31.0589 7.55453 31.9557 9.15449 32.5974C10.7527 33.2372 12.5065 33.5598 14.4161 33.5598C16.5082 33.5598 18.3372 33.1807 19.9032 32.4224C21.4673 31.6659 22.7899 30.5977 23.8709 29.2214L20.3864 26.7387C19.7654 27.6009 18.9475 28.2954 17.9363 28.8186Z" fill="white"/>
<path d="M37.347 26.4254C37.1519 27.0762 36.8584 27.6613 36.4665 28.1735C36.0745 28.6858 35.5824 29.1068 34.9846 29.4313C34.3851 29.7594 33.6728 29.9217 32.8442 29.9217C32.0156 29.9217 31.3015 29.7594 30.7055 29.4313C30.106 29.1068 29.6121 28.6858 29.2201 28.1735C28.83 27.6613 28.5365 27.0762 28.3414 26.4254C28.1445 25.7728 28.0479 25.1184 28.0479 24.4658C28.0479 23.8133 28.1445 23.1662 28.3414 22.5245C28.5365 21.8847 28.83 21.305 29.2201 20.7928C29.6121 20.2806 30.106 19.865 30.7055 19.5514C31.3015 19.2379 32.0156 19.0793 32.8442 19.0793C33.6728 19.0793 34.3851 19.2379 34.9846 19.5514C35.5824 19.865 36.0745 20.2806 36.4665 20.7928C36.8584 21.305 37.1519 21.8847 37.347 22.5245C37.542 23.1662 37.6405 23.8133 37.6405 24.4658C37.6405 25.1184 37.542 25.7728 37.347 26.4254ZM39.2279 18.0658C38.4226 17.2947 37.4687 16.7005 36.3645 16.2812C35.2584 15.862 34.0862 15.6523 32.8442 15.6523C31.6022 15.6523 30.4281 15.862 29.3257 16.2812C28.2197 16.7005 27.2658 17.2947 26.4605 18.0658C25.6551 18.835 25.0162 19.7629 24.5455 20.8457C24.0731 21.9303 23.8386 23.137 23.8386 24.4658C23.8386 25.7947 24.0731 27.0069 24.5455 28.1043C25.0162 29.198 25.6551 30.1367 26.4605 30.9188C27.2658 31.6989 28.2197 32.3114 29.3257 32.7562C30.4281 33.1973 31.6022 33.4197 32.8442 33.4197C34.0862 33.4197 35.2584 33.1973 36.3645 32.7562C37.4687 32.3114 38.4226 31.6989 39.2279 30.9188C40.0333 30.1367 40.6704 29.198 41.1428 28.1043C41.6135 27.0069 41.8515 25.7947 41.8515 24.4658C41.8515 23.137 41.6135 21.9303 41.1428 20.8457C40.6704 19.7629 40.0333 18.835 39.2279 18.0658Z" fill="white"/>
<path d="M64.775 20.8639C65.1545 20.3517 65.6323 19.9361 66.2068 19.6207C66.7813 19.3072 67.4488 19.1504 68.2094 19.1504C68.8752 19.1504 69.5302 19.3072 70.1762 19.6207C70.8187 19.9361 71.3037 20.3261 71.6241 20.7928L74.4535 18.2754C73.786 17.4588 72.884 16.8171 71.7458 16.3505C70.6075 15.8857 69.4282 15.6523 68.2094 15.6523C66.9889 15.6523 65.8453 15.862 64.775 16.2812C63.7048 16.7005 62.7688 17.2947 61.9635 18.0658C61.1581 18.835 60.5192 19.7684 60.0485 20.8639C59.5761 21.9594 59.3398 23.1844 59.3398 24.5369C59.3398 25.9332 59.5761 27.1819 60.0485 28.2793C60.5192 29.3748 61.1635 30.3063 61.9796 31.0773C62.7975 31.8466 63.7514 32.4281 64.843 32.8255C65.9383 33.221 67.0926 33.4197 68.3132 33.4197C69.5552 33.4197 70.7113 33.2156 71.7798 32.8072C72.85 32.3989 73.7305 31.8229 74.4195 31.0773L71.8317 28.4178C71.4415 28.9063 70.9243 29.28 70.2782 29.537C69.634 29.7941 68.9915 29.9217 68.3454 29.9217C67.5651 29.9217 66.8797 29.7649 66.2945 29.4495C65.7075 29.1342 65.2171 28.7222 64.8269 28.2082C64.4368 27.6959 64.1433 27.1181 63.9464 26.4765C63.7514 25.8366 63.6529 25.1877 63.6529 24.5369C63.6529 23.8825 63.746 23.2372 63.9285 22.5938C64.1147 21.954 64.3956 21.3761 64.775 20.8639Z" fill="white"/>
<path d="M57.622 19.2995C57.4001 18.7308 57.1084 18.2149 56.7433 17.7501C56.2476 17.1194 55.6158 16.6127 54.8463 16.228C54.1286 15.8708 53.2767 15.6812 52.2924 15.6575C52.2191 15.6557 52.1439 15.652 52.0687 15.652C51.4227 15.652 50.8231 15.7395 50.2683 15.9127C49.8674 16.0093 49.4755 16.1314 49.0943 16.2809C48.2693 16.6035 47.5248 17.0319 46.8572 17.5624L46.7874 15.333L42.9236 16.3246L42.8752 33.279H46.9324L47.0648 23.6963C47.0648 23.1367 47.1454 22.5825 47.3064 22.0356C47.4675 21.487 47.7037 21.0021 48.0134 20.5828C48.3248 20.1636 48.7203 19.8191 49.2035 19.5511C49.6867 19.2831 50.2612 19.1501 50.9287 19.1501C51.1989 19.1501 51.4423 19.1774 51.6696 19.2248C52.0025 19.2923 52.2942 19.4016 52.534 19.5693C52.9367 19.8482 53.2535 20.2055 53.4826 20.6357C53.7116 21.0659 53.862 21.5508 53.9318 22.0867C53.9998 22.6244 54.0356 23.1367 54.0356 23.627V33.279L58.1768 33.4194V22.4367C58.1768 21.5745 58.0605 20.736 57.8314 19.9175C57.7706 19.7042 57.699 19.5001 57.622 19.2995Z" fill="white"/>
<path d="M78.7682 22.8563C78.8595 21.6678 79.3391 20.6944 80.2 19.9361C81.0644 19.1777 82.1167 18.7986 83.3587 18.7986C84.0245 18.7986 84.6061 18.9116 85.1018 19.1322C85.5958 19.3546 86.002 19.6517 86.326 20.0235C86.6481 20.3972 86.8843 20.8293 87.0329 21.3178C87.1832 21.8081 87.2584 22.3203 87.2584 22.8563H78.7682ZM89.1214 17.9437C88.4073 17.1835 87.5626 16.613 86.5855 16.2284C85.6065 15.8437 84.5417 15.6523 83.3909 15.6523C82.1507 15.6523 80.9946 15.8674 79.9243 16.2995C78.8541 16.7315 77.9289 17.3348 77.1468 18.1168C76.3647 18.8988 75.7491 19.8449 75.2999 20.9514C74.8524 22.0579 74.627 23.2883 74.627 24.639C74.627 26.0153 74.8524 27.2457 75.2999 28.3303C75.7491 29.4131 76.3719 30.3318 77.1647 31.0773C77.9575 31.8229 78.8953 32.3989 79.9762 32.8072C81.0572 33.2156 82.242 33.4197 83.5305 33.4197C86.6356 33.4197 89.0051 32.3005 90.639 30.062L87.8776 27.8235C87.4176 28.4998 86.8306 29.0303 86.1184 29.4131C85.4043 29.7995 84.5309 29.9909 83.4965 29.9909C82.897 29.9909 82.3225 29.887 81.7695 29.6774C81.2201 29.4678 80.7225 29.1834 80.2859 28.8188C79.8492 28.4579 79.4984 28.0277 79.2335 27.5246C78.9705 27.0251 78.8148 26.471 78.7682 25.864H91.3638C91.3853 25.678 91.3979 25.4921 91.3979 25.3062V24.7447C91.3979 23.23 91.1974 21.9066 90.7929 20.7746C90.3921 19.6444 89.8337 18.702 89.1214 17.9437Z" fill="white"/>
<path d="M106.268 26.4252C106.071 27.076 105.778 27.6611 105.386 28.1733C104.996 28.6856 104.502 29.1066 103.902 29.4311C103.31 29.7556 102.603 29.9196 101.782 29.9215C101.03 29.9196 100.357 29.7629 99.7628 29.4493C99.165 29.134 98.6532 28.722 98.2272 28.208C97.9158 27.8325 97.6617 27.4223 97.4613 26.9794C97.4523 26.9575 97.4416 26.9374 97.4326 26.9156C97.4273 26.9046 97.4237 26.8937 97.4183 26.8809C97.361 26.7333 97.3091 26.5802 97.2608 26.4252C97.0658 25.7726 96.9673 25.1182 96.9673 24.4657C96.9673 23.9844 97.0228 23.505 97.1284 23.0311C97.1678 22.8798 97.2107 22.7285 97.2608 22.5754C97.481 21.9246 97.8013 21.3413 98.2272 20.8291C98.6532 20.315 99.165 19.8958 99.7628 19.5695C100.357 19.245 101.03 19.0828 101.783 19.0809C102.603 19.0828 103.31 19.2395 103.902 19.5512C104.502 19.8648 104.996 20.2804 105.386 20.7926C105.778 21.3048 106.071 21.8845 106.268 22.5243C106.463 23.166 106.562 23.8131 106.562 24.4657C106.562 25.1182 106.463 25.7726 106.268 26.4252ZM110.758 23.9571C110.712 22.9126 110.522 21.9264 110.184 21.0022C109.792 19.9304 109.241 18.9989 108.527 18.2041C107.814 17.4112 106.963 16.7896 105.975 16.3339C104.985 15.88 103.902 15.6522 102.73 15.6522C102.576 15.6522 102.428 15.6576 102.281 15.6649C102.109 15.6576 101.939 15.6522 101.764 15.6522C100.523 15.6522 99.3476 15.8618 98.2434 16.281C97.7691 16.4633 97.3217 16.6784 96.8993 16.9245L96.8975 14.7134L92.9316 15.9128V49.4716L97.0711 45.6564V32.1891C97.4416 32.4005 97.8335 32.5901 98.2434 32.756C99.3476 33.1971 100.523 33.4195 101.764 33.4195C101.921 33.4195 102.075 33.4159 102.229 33.4086C102.36 33.4159 102.492 33.4195 102.626 33.4195C103.893 33.4195 105.024 33.1807 106.027 32.7013C107.027 32.2237 107.877 31.5821 108.58 30.78C109.28 29.9743 109.822 29.0301 110.202 27.9455C110.581 26.8609 110.771 25.7016 110.771 24.4657C110.771 24.3016 110.766 24.1375 110.758 23.9753V23.9571Z" fill="white"/>
<path d="M120.826 29.3034C119.415 30.3406 117.783 29.6406 117.52 29.1521C117.254 28.6618 117.123 28.0456 117.123 27.2983V19.0316H122.182L119.147 15.9072H117.123V13.8292L113.739 10.3457V15.9072H108.847L111.988 19.0316H113.511V27.3329C113.511 28.1495 113.585 28.9133 113.735 29.6242C113.885 30.3351 114.161 30.9658 114.562 31.5127C114.965 32.0614 115.512 32.4916 116.201 32.8069C116.892 33.1223 117.56 33.279 118.664 33.279C119.124 33.279 119.605 33.2189 120.113 33.1569C121.164 33.0275 122.893 32.0286 123.261 31.89L120.826 29.3034Z" fill="white"/>
</svg>
