<svg width="20" height="20" viewBox="0 0 20 20" fill="none" xmlns="http://www.w3.org/2000/svg">
<g id="whatsapp" clip-path="url(#clip0_24_52)">
<path id="Vector" d="M17.0045 2.90625C15.1339 1.03125 12.6429 0 9.99554 0C4.53125 0 0.0848214 4.44643 0.0848214 9.91072C0.0848214 11.6562 0.540179 13.3616 1.40625 14.8661L0 20L5.25446 18.6205C6.70089 19.4107 8.33036 19.8259 9.99107 19.8259H9.99554C15.4554 19.8259 20 15.3795 20 9.91518C20 7.26786 18.875 4.78125 17.0045 2.90625Z" fill="black"/>
<path id="Vector_2" d="M12.8212 11.1836C13.0488 11.264 14.2676 11.8622 14.5131 11.9872C14.7586 12.1077 14.9238 12.1702 14.9819 12.2818C15.0444 12.3845 15.0444 12.88 14.839 13.4604C14.6336 14.0407 13.647 14.5675 13.1694 14.639C12.3837 14.755 11.7676 14.697 10.1961 14.0184C7.70954 12.9425 6.08901 10.4425 5.96401 10.2773C5.84347 10.1122 4.95508 8.93359 4.95508 7.71484C4.95508 6.49609 5.59347 5.89788 5.82115 5.64788C6.04883 5.40234 6.31669 5.33984 6.48186 5.33984C6.64704 5.33984 6.81222 5.33984 6.95508 5.34877C7.10686 5.3577 7.31222 5.29074 7.51311 5.77288C7.71847 6.26842 8.21401 7.48716 8.27651 7.61216C8.33901 7.73716 8.37918 7.88002 8.29883 8.0452C7.82561 8.99163 7.31669 8.96038 7.57115 9.39788C8.53097 11.0452 9.48633 11.6166 10.9417 12.3443C11.1872 12.4693 11.3345 12.447 11.4774 12.2818C11.6247 12.1122 12.0979 11.5586 12.2631 11.3086C12.4283 11.0586 12.5935 11.0988 12.8212 11.1836Z" fill="white"/>
</g>
<defs>
<clipPath id="clip0_24_52">
<rect width="20" height="20" fill="white"/>
</clipPath>
</defs>
</svg>
