<svg width="20" height="17" viewBox="0 0 20 17" fill="none" xmlns="http://www.w3.org/2000/svg">
<g id="Frame" clip-path="url(#clip0_24_47)">
<path id="Vector" fill-rule="evenodd" clip-rule="evenodd" d="M15.9766 9.73655C15.5231 9.73655 15.1603 9.37375 15.1603 8.92023C15.1603 8.4667 15.5231 8.1039 15.9766 8.1039C16.4302 8.1039 16.793 8.4667 16.793 8.92023C16.793 9.35107 16.4302 9.73655 15.9766 9.73655ZM11.9533 9.73655C11.4998 9.73655 11.137 9.37375 11.137 8.92023C11.137 8.4667 11.4998 8.1039 11.9533 8.1039C12.4068 8.1039 12.7696 8.4667 12.7696 8.92023C12.7696 9.35107 12.4068 9.73655 11.9533 9.73655ZM17.9236 14.3185C19.1962 13.4025 20 12.0398 20 10.5428C20 7.77247 17.3208 5.5383 13.9941 5.5383C10.6675 5.5383 7.98828 7.77247 7.98828 10.5428C7.98828 13.3132 10.6675 15.5473 13.9941 15.5473C14.6862 15.5473 15.3337 15.458 15.9588 15.2792C16.0035 15.2569 16.0705 15.2569 16.1374 15.2569C16.2491 15.2569 16.3608 15.3016 16.45 15.3462L17.7673 16.1059C17.812 16.1282 17.8343 16.1506 17.879 16.1506C17.9054 16.1507 17.9316 16.1455 17.956 16.1355C17.9804 16.1254 18.0026 16.1106 18.0213 16.0919C18.04 16.0732 18.0548 16.051 18.0648 16.0266C18.0749 16.0021 18.08 15.9759 18.0799 15.9495C18.0799 15.9048 18.0576 15.8601 18.0576 15.7931C18.0576 15.7707 17.879 15.1675 17.7896 14.7877C17.7673 14.743 17.7673 14.6984 17.7673 14.6536C17.745 14.4973 17.812 14.3856 17.9236 14.3185Z" fill="black"/>
<path id="Vector_2" fill-rule="evenodd" clip-rule="evenodd" d="M9.56269 5.01458C9.04199 5.01458 8.62975 4.60234 8.62975 4.08164C8.62975 3.56094 9.04199 3.14869 9.56269 3.14869C10.0834 3.14869 10.4956 3.56094 10.4956 4.08164C10.4956 4.58065 10.0834 5.01458 9.56269 5.01458ZM4.78135 5.01458C4.26065 5.01458 3.8484 4.60234 3.8484 4.08164C3.8484 3.56094 4.26065 3.14869 4.78135 3.14869C5.30205 3.14869 5.71429 3.56094 5.71429 4.08164C5.71429 4.58065 5.30205 5.01458 4.78135 5.01458ZM7.22799 0C3.24467 0 0 2.6761 0 5.99884C0 7.80526 0.962217 9.43319 2.5063 10.526C2.6182 10.6152 2.7077 10.7489 2.7077 10.9274C2.7077 10.9719 2.68531 11.0388 2.68531 11.0835C2.57341 11.5295 2.37201 12.2654 2.34962 12.2877C2.32729 12.3546 2.3049 12.3992 2.3049 12.4661C2.3049 12.5999 2.4168 12.7114 2.55102 12.7114C2.5958 12.7114 2.64053 12.6891 2.68531 12.6668L4.27412 11.7525C4.38601 11.6856 4.5203 11.6409 4.65452 11.6409C4.7217 11.6409 4.78881 11.6409 4.85592 11.6633C5.59441 11.864 6.39995 11.9977 7.2056 11.9977H7.6084C7.45173 11.5295 7.36222 11.0388 7.36222 10.5259C7.36222 7.51534 10.316 5.06228 13.9412 5.06228H14.344C13.8293 2.18542 10.8307 0 7.22799 0Z" fill="black"/>
</g>
<defs>
<clipPath id="clip0_24_47">
<rect width="20" height="16.1506" fill="white"/>
</clipPath>
</defs>
</svg>
