<svg width="95" height="54" viewBox="0 0 95 54" fill="none" xmlns="http://www.w3.org/2000/svg">
<g clip-path="url(#clip0_1_2642)">
<path fill-rule="evenodd" clip-rule="evenodd" d="M0 33.8237V47.3532H22.0438C22.2816 47.3532 22.5194 47.3532 22.7572 47.3296C28.9637 46.9525 33.9337 41.8141 33.9337 35.568V23.7827C33.9337 29.3454 29.3917 33.8473 23.7797 33.8473H2.25907H0V33.8237Z" fill="url(#paint0_linear_1_2642)"/>
<path fill-rule="evenodd" clip-rule="evenodd" d="M33.9339 47.3531H47.5834V25.5033C47.5834 25.2676 47.5834 25.0319 47.5597 24.7961C47.1792 18.6442 41.9952 13.718 35.6936 13.718H23.8037C29.4157 13.718 33.9577 18.22 33.9577 23.7826V45.1139V47.3531H33.9339Z" fill="url(#paint1_linear_1_2642)"/>
<path fill-rule="evenodd" clip-rule="evenodd" d="M47.5831 13.6944V0.188477H25.5393C25.3015 0.188477 25.0637 0.188477 24.8259 0.212047C18.6194 0.589175 13.6494 5.72754 13.6494 11.9737V23.759C13.6494 18.1963 18.1913 13.6944 23.8034 13.6944H45.324H47.5831Z" fill="url(#paint2_linear_1_2642)"/>
<path fill-rule="evenodd" clip-rule="evenodd" d="M13.6496 0.188477H0V22.0383C0 22.274 0 22.5097 0.0237797 22.7454C0.404255 28.8973 5.58824 33.8236 11.8899 33.8236H23.7797C18.1677 33.8236 13.6258 29.3216 13.6258 23.759V2.42767V0.188477H13.6496Z" fill="url(#paint3_linear_1_2642)"/>
<path d="M33.9335 13.6943H13.6494V33.8H33.9335V13.6943Z" fill="white"/>
<path d="M67.6056 51.4308L64.5142 51.9022L63.2301 40.8477L55.5017 41.2955L54.0274 53.4579L50.2939 54.0236V53.8821L57.8559 0L61.2564 0.895679L67.6056 51.4308ZM62.8259 36.8878L59.4967 8.74465L55.9773 37.0528L62.8259 36.8878Z" fill="url(#paint4_linear_1_2642)"/>
<path d="M81.0652 9.64022L76.761 8.65026V50.0636L74.1215 50.4643V8.03743L69.1753 6.90604V3.13477L81.0652 6.26964V9.64022Z" fill="url(#paint5_linear_1_2642)"/>
<path d="M94.0961 44.784C94.0961 45.5618 93.9534 46.2453 93.6918 46.7639C93.4065 47.306 93.0498 47.6124 92.6217 47.6831L86.2963 48.626C85.7969 48.6967 85.3689 48.4845 85.036 47.9896C84.7031 47.4946 84.5366 46.7875 84.5366 45.9154V10.0882C84.5366 9.21609 84.7031 8.55612 85.036 8.08471C85.3689 7.6133 85.7732 7.4483 86.2963 7.58973L92.6217 9.26323C93.0498 9.38108 93.4302 9.73464 93.6918 10.3003C93.9772 10.866 94.0961 11.5496 94.0961 12.3274V44.784ZM92.2413 44.7133V12.2095L86.7006 10.9367V45.3732L92.2413 44.7133Z" fill="url(#paint6_linear_1_2642)"/>
<path d="M46.7032 6.95337H34.7896V12.846H46.7032V6.95337Z" fill="white"/>
<path d="M12.7696 1.06079H6.82471V12.8696H12.7696V1.06079Z" fill="white"/>
<path d="M12.7935 40.5884V34.6958H0.879883V40.5884" fill="white"/>
<path d="M40.7584 34.6487H34.8135V46.4575H40.7584V34.6487Z" fill="white"/>
<path d="M68.5094 51.36L65.418 51.8078L64.1339 40.824L56.4055 41.2718L54.9312 53.3871L51.1978 53.9528V53.8113L58.7597 0.188477L62.1602 1.08416L68.5094 51.36ZM63.7297 36.8877L60.4243 8.88599L56.9049 37.0527L63.7297 36.8877Z" fill="white"/>
<path d="M81.969 9.75801L77.6648 8.76805V49.9928L75.0253 50.3935V8.17879L70.0791 7.0474V3.27612L81.969 6.38743V9.75801Z" fill="white"/>
<path d="M94.9999 44.7604C94.9999 45.5382 94.8572 46.1982 94.5956 46.7403C94.3103 47.2824 93.9536 47.5888 93.5255 47.6596L87.2001 48.6024C86.7008 48.6731 86.2727 48.461 85.9398 47.966C85.6069 47.471 85.4404 46.7874 85.4404 45.9153V10.2532C85.4404 9.38108 85.6069 8.72111 85.9398 8.2497C86.2727 7.77829 86.677 7.63686 87.2001 7.75472L93.5255 9.40465C93.9536 9.5225 94.3341 9.85249 94.5956 10.4418C94.881 11.0074 94.9999 11.691 94.9999 12.4688V44.7604ZM93.1451 44.6897V12.3274L87.6044 11.0546V45.3261L93.1451 44.6897Z" fill="white"/>
<path d="M27.0136 29.7223H20.5693C19.0237 29.7223 17.7871 28.4967 17.7871 26.9646V20.5534C17.7871 19.0213 19.0237 17.7957 20.5693 17.7957H27.0374C28.5831 17.7957 29.8197 19.0213 29.8197 20.5534V26.9646C29.7959 28.4731 28.5593 29.7223 27.0136 29.7223Z" fill="white"/>
<path d="M0.808511 52.3738L0.618273 52.7273V53.9294H0V50.0403H0.618273V51.7374L1.42678 50.0403H2.04506L1.18899 51.7609L2.04506 53.9294H1.403L0.808511 52.3738Z" fill="white"/>
<path d="M2.28271 50.9594C2.28271 50.3466 2.61563 49.9695 3.21012 49.9695C3.8284 49.9695 4.13753 50.323 4.13753 50.9594V52.9865C4.13753 53.5993 3.80462 53.9765 3.21012 53.9765C2.59185 53.9765 2.28271 53.6229 2.28271 52.9865V50.9594ZM2.90099 53.0336C2.90099 53.3165 3.01989 53.4108 3.21012 53.4108C3.40036 53.4108 3.51926 53.3165 3.51926 53.0336V50.9359C3.51926 50.653 3.40036 50.5587 3.21012 50.5587C3.01989 50.5587 2.90099 50.653 2.90099 50.9359V53.0336Z" fill="white"/>
<path d="M5.87351 52.798L6.30155 50.0403H7.13384V53.9294H6.53934V51.1481L6.11131 53.953H5.51682L5.065 51.1952V53.953H4.51807V50.0639H5.37414L5.87351 52.798Z" fill="white"/>
<path d="M8.70329 53.5051H8.46549C7.84722 53.5051 7.53809 53.1752 7.53809 52.5388V51.4781C7.53809 50.8652 7.84722 50.5117 8.46549 50.5117H8.70329V50.0403H9.32157V50.5117H9.55936C10.1776 50.5117 10.4868 50.8417 10.4868 51.4781V52.5388C10.4868 53.1516 10.1776 53.5051 9.55936 53.5051H9.32157V53.953H8.70329V53.5051ZM8.70329 51.0538H8.46549C8.27526 51.0538 8.15636 51.1481 8.15636 51.4309V52.5623C8.15636 52.8452 8.27526 52.963 8.46549 52.963H8.70329V51.0538ZM9.29779 51.0538V52.963H9.53558C9.72582 52.963 9.84472 52.8452 9.84472 52.5623V51.4309C9.84472 51.1481 9.72582 51.0538 9.53558 51.0538H9.29779Z" fill="white"/>
<path d="M10.8198 50.9594C10.8198 50.3466 11.1527 49.9695 11.7472 49.9695C12.3655 49.9695 12.6746 50.323 12.6746 50.9594V52.9865C12.6746 53.5993 12.3417 53.9765 11.7472 53.9765C11.129 53.9765 10.8198 53.6229 10.8198 52.9865V50.9594ZM11.4381 53.0336C11.4381 53.3165 11.557 53.4108 11.7472 53.4108C11.9375 53.4108 12.0564 53.3165 12.0564 53.0336V50.9359C12.0564 50.653 11.9375 50.5587 11.7472 50.5587C11.557 50.5587 11.4381 50.653 11.4381 50.9359V53.0336Z" fill="white"/>
<path d="M14.9336 51.0065V51.5251C14.9336 52.1379 14.6244 52.4914 14.0062 52.4914H13.7208V53.9528H13.1025V50.0637H14.0062C14.6244 50.0401 14.9336 50.3701 14.9336 51.0065ZM13.7208 50.5822V51.9022H14.0062C14.1964 51.9022 14.3153 51.8079 14.3153 51.5251V50.9358C14.3153 50.6529 14.2202 50.5587 14.0062 50.5587H13.7208V50.5822Z" fill="white"/>
<path d="M15.0288 50.0403H16.9312V50.606H16.2891V53.953H15.6946V50.606H15.0526V50.0403H15.0288Z" fill="white"/>
<path d="M18.7148 53.9294H18.0728V50.0403H18.6197V52.5152L18.8337 51.6666L19.3331 50.0639H20.0227V53.953H19.4995V51.1952L19.238 52.1616L18.7148 53.9294Z" fill="white"/>
<path d="M21.3779 53.9294V50.0403H23.1138V50.606H21.9962V51.5959H22.3529C22.9712 51.5959 23.2803 51.9259 23.2803 52.5623V52.9866C23.2803 53.5994 22.9712 53.953 22.3529 53.953H21.3779V53.9294ZM22.3529 53.3873C22.5431 53.3873 22.662 53.293 22.662 53.0102V52.5152C22.662 52.2323 22.5431 52.1381 22.3529 52.1381H21.9962V53.3637H22.3529V53.3873Z" fill="white"/>
<path d="M24.3028 51.6666H25.1589V52.2323H24.3028V53.3637H25.3729V53.9294H23.6846V50.0403H25.3729V50.606H24.3028V51.6666Z" fill="white"/>
<path d="M26.966 50.983C26.966 50.6295 26.8471 50.5352 26.6569 50.5352C26.4667 50.5352 26.324 50.6295 26.324 50.9123V51.2187H25.7533V50.9359C25.7533 50.323 26.0624 49.9695 26.6569 49.9695C27.2752 49.9695 27.5843 50.323 27.5843 50.9594V51.0537C27.5843 51.478 27.4416 51.7373 27.1563 51.8551C27.4654 51.9965 27.5843 52.2794 27.5843 52.6801V52.9865C27.5843 53.5993 27.2752 53.9765 26.6569 53.9765C26.0386 53.9765 25.7295 53.6229 25.7295 52.9865V52.5622H26.324V53.0336C26.324 53.3165 26.4429 53.4108 26.6331 53.4108C26.8234 53.4108 26.9423 53.3165 26.9423 52.9629V52.6565C26.9423 52.303 26.8234 52.1615 26.538 52.1615H26.3953V51.6194H26.5856C26.8234 51.6194 26.966 51.5251 26.966 51.2187V50.983Z" fill="white"/>
<path d="M27.9414 50.9594C27.9414 50.3466 28.2743 49.9695 28.8688 49.9695C29.4871 49.9695 29.7962 50.323 29.7962 50.9594V52.9865C29.7962 53.5993 29.4633 53.9765 28.8688 53.9765C28.2505 53.9765 27.9414 53.6229 27.9414 52.9865V50.9594ZM28.5597 53.0336C28.5597 53.3165 28.6786 53.4108 28.8688 53.4108C29.0591 53.4108 29.178 53.3165 29.178 53.0336V50.9359C29.178 50.653 29.0591 50.5587 28.8688 50.5587C28.6786 50.5587 28.5597 50.653 28.5597 50.9359V53.0336Z" fill="white"/>
<path d="M30.8424 53.9294H30.2241V50.0403H32.1741V53.9294H31.5558V50.5824H30.8424V53.9294Z" fill="white"/>
<path d="M34.6231 53.9294H34.0048L33.9097 53.2223H33.1487L33.0536 53.9294H32.4829L33.1012 50.0403H34.0048L34.6231 53.9294ZM33.1963 52.7038H33.7908L33.4817 50.7238L33.1963 52.7038Z" fill="white"/>
<path d="M36.6922 52.468V52.9865C36.6922 53.5993 36.3831 53.9765 35.7648 53.9765C35.1465 53.9765 34.8374 53.6229 34.8374 52.9865V50.9594C34.8374 50.3466 35.1465 49.9695 35.7648 49.9695C36.3831 49.9695 36.6922 50.323 36.6922 50.9594V51.3366H36.0977V50.9123C36.0977 50.6295 35.9788 50.5352 35.7886 50.5352C35.5984 50.5352 35.4795 50.6295 35.4795 50.9123V53.0101C35.4795 53.2929 35.5984 53.3872 35.7886 53.3872C35.9788 53.3872 36.0977 53.2929 36.0977 53.0101V52.4444H36.6922V52.468Z" fill="white"/>
<path d="M37.691 53.9294H37.0728V50.0403H37.691V51.7138H38.4044V50.0403H39.0227V53.9294H38.4044V52.2559H37.691V53.9294Z" fill="white"/>
<path d="M39.4268 50.9594C39.4268 50.3466 39.7597 49.9695 40.3542 49.9695C40.9724 49.9695 41.2816 50.323 41.2816 50.9594V52.9865C41.2816 53.5993 40.9487 53.9765 40.3542 53.9765C39.7359 53.9765 39.4268 53.6229 39.4268 52.9865V50.9594ZM40.045 53.0336C40.045 53.3165 40.1639 53.4108 40.3542 53.4108C40.5444 53.4108 40.6633 53.3165 40.6633 53.0336V50.9359C40.6633 50.653 40.5444 50.5587 40.3542 50.5587C40.1639 50.5587 40.045 50.653 40.045 50.9359V53.0336Z" fill="white"/>
<path d="M43.493 52.468V52.9865C43.493 53.5993 43.1839 53.9765 42.5656 53.9765C41.9473 53.9765 41.6382 53.6229 41.6382 52.9865V50.9594C41.6382 50.3466 41.9473 49.9695 42.5656 49.9695C43.1839 49.9695 43.493 50.323 43.493 50.9594V51.3366H42.8985V50.9123C42.8985 50.6295 42.7796 50.5352 42.5894 50.5352C42.3991 50.5352 42.2802 50.6295 42.2802 50.9123V53.0101C42.2802 53.2929 42.3991 53.3872 42.5894 53.3872C42.7796 53.3872 42.8985 53.2929 42.8985 53.0101V52.4444H43.493V52.468Z" fill="white"/>
<path d="M43.6836 50.0403H45.586V50.606H44.9439V53.953H44.3256V50.606H43.6836V50.0403Z" fill="white"/>
<path d="M45.8711 53.9294V50.0403H46.4894V51.5017H46.7747C47.393 51.5017 47.7021 51.8316 47.7021 52.468V52.9866C47.7021 53.5994 47.393 53.953 46.7747 53.953H45.8711V53.9294ZM46.7747 53.3873C46.965 53.3873 47.0839 53.293 47.0839 53.0102V52.4209C47.0839 52.1381 46.9887 52.0438 46.7747 52.0438H46.4894V53.3637H46.7747V53.3873Z" fill="white"/>
</g>
<defs>
<linearGradient id="paint0_linear_1_2642" x1="0.000474636" y1="35.5513" x2="33.936" y2="35.5513" gradientUnits="userSpaceOnUse">
<stop offset="0.0167598" stop-color="#BB62A6"/>
<stop offset="1"/>
</linearGradient>
<linearGradient id="paint1_linear_1_2642" x1="35.6853" y1="47.3414" x2="35.6853" y2="13.7047" gradientUnits="userSpaceOnUse">
<stop/>
<stop offset="1" stop-color="#72BF44"/>
</linearGradient>
<linearGradient id="paint2_linear_1_2642" x1="13.6447" y1="11.9707" x2="47.5798" y2="11.9707" gradientUnits="userSpaceOnUse">
<stop offset="0.0111732"/>
<stop offset="0.9804" stop-color="#12C3F4"/>
</linearGradient>
<linearGradient id="paint3_linear_1_2642" x1="11.8953" y1="33.8174" x2="11.8953" y2="0.180509" gradientUnits="userSpaceOnUse">
<stop offset="0.0363128"/>
<stop offset="1" stop-color="#F7BC7F"/>
</linearGradient>
<linearGradient id="paint4_linear_1_2642" x1="50.3108" y1="27.004" x2="67.5978" y2="27.004" gradientUnits="userSpaceOnUse">
<stop offset="0.6173" stop-color="#FBBB8A"/>
<stop offset="1" stop-color="#F0835A"/>
</linearGradient>
<linearGradient id="paint5_linear_1_2642" x1="69.1626" y1="26.7807" x2="81.0561" y2="26.7807" gradientUnits="userSpaceOnUse">
<stop offset="0.6173" stop-color="#FBBB8A"/>
<stop offset="1" stop-color="#F0835A"/>
</linearGradient>
<linearGradient id="paint6_linear_1_2642" x1="84.5376" y1="28.1068" x2="94.0984" y2="28.1068" gradientUnits="userSpaceOnUse">
<stop offset="0.6173" stop-color="#FBBB8A"/>
<stop offset="1" stop-color="#F0835A"/>
</linearGradient>
<clipPath id="clip0_1_2642">
<rect width="95" height="54" fill="white"/>
</clipPath>
</defs>
</svg>
