<svg width="629" height="729" viewBox="0 0 629 729" fill="none" xmlns="http://www.w3.org/2000/svg">
<path d="M329.364 442.444C328.619 443.338 327.842 444.205 327.052 445.031C326.827 445.265 326.519 445.401 326.194 445.408C325.869 445.414 325.555 445.292 325.32 445.067C325.085 444.842 324.949 444.533 324.941 444.209C324.934 443.884 325.056 443.57 325.28 443.335C327.097 441.43 328.761 439.386 330.259 437.222C330.351 437.089 330.468 436.976 330.603 436.889C330.739 436.802 330.89 436.742 331.048 436.714C331.207 436.685 331.37 436.688 331.527 436.722C331.685 436.756 331.834 436.821 331.967 436.913C332.099 437.005 332.212 437.122 332.3 437.257C332.387 437.393 332.447 437.544 332.476 437.703C332.505 437.861 332.503 438.024 332.469 438.181C332.435 438.339 332.37 438.488 332.279 438.62C331.355 439.944 330.376 441.231 329.364 442.444ZM162.921 640.972L162.842 641.066C160.81 643.059 158.433 644.667 155.827 645.814C155.679 645.883 155.518 645.923 155.355 645.929C155.191 645.936 155.028 645.909 154.875 645.852C154.721 645.794 154.581 645.706 154.463 645.593C154.344 645.48 154.249 645.345 154.183 645.195C154.118 645.044 154.083 644.883 154.082 644.719C154.08 644.556 154.111 644.393 154.173 644.242C154.235 644.091 154.327 643.954 154.444 643.839C154.56 643.724 154.698 643.633 154.85 643.573C157.194 642.539 159.33 641.088 161.153 639.29C161.373 639.052 161.679 638.911 162.003 638.898C162.327 638.886 162.644 639.002 162.883 639.223C163.121 639.443 163.263 639.749 163.276 640.073C163.289 640.397 163.173 640.713 162.953 640.952L162.921 640.972ZM167.539 634.393C167.35 634.618 167.086 634.767 166.796 634.813C166.506 634.859 166.209 634.799 165.959 634.644C165.709 634.489 165.523 634.249 165.436 633.969C165.348 633.688 165.364 633.386 165.482 633.116C166.523 630.843 166.966 628.341 166.768 625.846C166.737 625.523 166.835 625.202 167.041 624.952C167.247 624.702 167.544 624.544 167.867 624.513C168.19 624.482 168.512 624.581 168.763 624.788C169.013 624.994 169.171 625.291 169.203 625.614C169.441 628.527 168.928 631.45 167.715 634.105C167.671 634.209 167.611 634.306 167.539 634.393ZM321.025 450.275C320.959 450.354 320.883 450.424 320.798 450.483C318.54 452.115 316.113 453.498 313.558 454.609C313.26 454.737 312.923 454.742 312.621 454.622C312.32 454.502 312.078 454.267 311.949 453.969C311.82 453.671 311.815 453.334 311.934 453.033C312.054 452.732 312.288 452.49 312.586 452.362C314.984 451.321 317.262 450.021 319.378 448.487C319.619 448.311 319.917 448.23 320.215 448.259C320.512 448.288 320.789 448.425 320.993 448.644C321.197 448.863 321.313 449.149 321.321 449.448C321.328 449.746 321.225 450.037 321.032 450.265L321.025 450.275ZM336.303 431.748C336.111 431.978 335.842 432.129 335.545 432.173C335.249 432.217 334.946 432.151 334.695 431.987C334.444 431.822 334.262 431.572 334.184 431.282C334.105 430.993 334.136 430.685 334.27 430.417C335.235 428.465 336.087 426.458 336.82 424.408C336.974 423.969 337.125 423.533 337.27 423.098C337.321 422.945 337.401 422.805 337.506 422.684C337.611 422.562 337.739 422.463 337.883 422.391C338.027 422.32 338.183 422.277 338.343 422.266C338.503 422.255 338.664 422.275 338.817 422.326C338.969 422.377 339.11 422.458 339.231 422.563C339.353 422.668 339.452 422.796 339.524 422.94C339.596 423.084 339.639 423.24 339.651 423.4C339.662 423.561 339.642 423.721 339.591 423.874C339.439 424.324 339.283 424.778 339.122 425.232C338.359 427.37 337.472 429.462 336.465 431.496C336.423 431.586 336.37 431.669 336.306 431.745L336.303 431.748ZM201.472 585.35C201.264 585.599 200.966 585.755 200.643 585.784C200.32 585.813 199.999 585.712 199.75 585.504C199.501 585.296 199.344 584.998 199.315 584.675C199.286 584.353 199.386 584.031 199.593 583.783C201.188 581.785 202.412 579.517 203.206 577.086C203.252 576.929 203.33 576.783 203.435 576.656C203.54 576.53 203.669 576.426 203.814 576.351C203.96 576.276 204.119 576.231 204.283 576.218C204.446 576.206 204.611 576.227 204.766 576.279C204.922 576.332 205.065 576.415 205.188 576.524C205.311 576.633 205.41 576.766 205.481 576.914C205.551 577.062 205.591 577.223 205.598 577.387C205.605 577.551 205.579 577.714 205.522 577.868C204.635 580.575 203.271 583.101 201.492 585.325L201.472 585.35ZM341.496 416.467C341.321 416.677 341.081 416.823 340.813 416.88C340.546 416.937 340.266 416.902 340.02 416.782C339.774 416.662 339.576 416.462 339.456 416.216C339.337 415.969 339.303 415.69 339.362 415.423C339.896 412.943 340.346 410.297 340.695 407.556C340.694 407.382 340.73 407.211 340.801 407.053C340.871 406.894 340.975 406.753 341.104 406.638C341.234 406.523 341.387 406.437 341.552 406.385C341.718 406.334 341.893 406.318 342.065 406.339C342.237 406.361 342.403 406.418 342.551 406.508C342.699 406.598 342.827 406.719 342.925 406.862C343.023 407.005 343.09 407.168 343.12 407.339C343.151 407.509 343.145 407.685 343.103 407.853C342.746 410.667 342.285 413.383 341.733 415.928C341.701 416.125 341.619 416.311 341.496 416.467ZM148.402 647.246C148.292 647.373 148.157 647.476 148.005 647.548C147.854 647.621 147.689 647.661 147.52 647.666C144.717 647.818 141.905 647.599 139.156 647.017C138.999 646.984 138.85 646.921 138.717 646.831C138.583 646.741 138.469 646.625 138.381 646.491C138.292 646.357 138.231 646.207 138.201 646.049C138.17 645.891 138.171 645.729 138.203 645.572C138.235 645.415 138.298 645.265 138.388 645.132C138.478 645 138.594 644.886 138.728 644.798C138.862 644.709 139.012 644.648 139.169 644.618C139.327 644.588 139.489 644.589 139.647 644.622C142.183 645.162 144.779 645.367 147.368 645.233C147.606 645.219 147.844 645.274 148.051 645.393C148.258 645.512 148.426 645.689 148.534 645.902C148.642 646.115 148.686 646.355 148.659 646.592C148.632 646.829 148.536 647.053 148.384 647.236L148.402 647.246ZM195.117 590.242C194.994 590.388 194.838 590.503 194.662 590.577C194.155 590.799 193.637 590.995 193.11 591.164C190.886 591.84 188.559 592.119 186.237 591.987C186.074 591.984 185.913 591.948 185.764 591.882C185.615 591.816 185.481 591.721 185.369 591.602C185.257 591.484 185.17 591.344 185.113 591.191C185.055 591.039 185.029 590.876 185.036 590.713C185.043 590.551 185.082 590.391 185.151 590.244C185.22 590.096 185.318 589.964 185.439 589.856C185.56 589.747 185.702 589.663 185.856 589.61C186.01 589.557 186.173 589.535 186.335 589.546C188.378 589.664 190.425 589.422 192.382 588.829C192.831 588.69 193.273 588.528 193.706 588.343C193.959 588.234 194.241 588.213 194.507 588.284C194.774 588.356 195.008 588.515 195.173 588.736C195.338 588.957 195.423 589.227 195.415 589.502C195.408 589.777 195.307 590.042 195.13 590.252L195.117 590.242ZM306.256 456.537C306.069 456.769 305.803 456.924 305.509 456.974C302.751 457.423 299.949 457.547 297.16 457.344C296.847 457.309 296.558 457.154 296.356 456.911C296.154 456.669 296.053 456.358 296.075 456.043C296.097 455.728 296.239 455.435 296.473 455.223C296.707 455.012 297.013 454.899 297.328 454.908C299.926 455.096 302.535 454.98 305.104 454.563C305.352 454.523 305.606 454.559 305.832 454.668C306.058 454.777 306.245 454.952 306.368 455.171C306.491 455.389 306.545 455.64 306.52 455.89C306.496 456.139 306.396 456.375 306.233 456.565L306.256 456.537ZM165.993 619.055C165.919 619.143 165.834 619.22 165.739 619.283C165.606 619.374 165.457 619.437 165.299 619.469C165.142 619.502 164.98 619.503 164.822 619.472C164.665 619.442 164.514 619.381 164.38 619.293C164.246 619.205 164.13 619.091 164.04 618.958C162.502 616.813 160.803 614.787 158.957 612.899C158.847 612.781 158.761 612.642 158.704 612.49C158.647 612.339 158.621 612.178 158.626 612.016C158.631 611.854 158.669 611.696 158.735 611.548C158.802 611.401 158.897 611.269 159.016 611.159C159.134 611.048 159.273 610.962 159.424 610.906C159.575 610.849 159.737 610.823 159.898 610.829C160.06 610.834 160.219 610.872 160.366 610.939C160.514 611.006 160.646 611.102 160.757 611.22C162.688 613.201 164.466 615.326 166.075 617.576C166.229 617.797 166.306 618.064 166.294 618.333C166.281 618.603 166.18 618.86 166.005 619.066L165.993 619.055ZM206.648 570.332C206.486 570.526 206.268 570.665 206.023 570.73C205.778 570.795 205.519 570.782 205.282 570.693C205.045 570.605 204.841 570.445 204.698 570.235C204.555 570.026 204.481 569.777 204.486 569.524C204.508 568.371 204.444 567.218 204.295 566.073C204.109 564.653 203.83 563.246 203.46 561.862C203.412 561.705 203.397 561.54 203.414 561.376C203.432 561.213 203.482 561.055 203.562 560.912C203.642 560.769 203.75 560.643 203.879 560.542C204.009 560.442 204.158 560.368 204.316 560.327C204.475 560.285 204.641 560.276 204.803 560.299C204.966 560.323 205.122 560.379 205.263 560.464C205.403 560.549 205.525 560.662 205.621 560.795C205.717 560.929 205.785 561.08 205.822 561.24C206.221 562.726 206.522 564.236 206.723 565.761C206.882 567.025 206.952 568.298 206.932 569.572C206.929 569.848 206.833 570.116 206.659 570.331L206.648 570.332ZM343.582 400.449C343.417 400.647 343.193 400.787 342.943 400.85C342.694 400.913 342.43 400.895 342.191 400.799C341.952 400.704 341.749 400.535 341.611 400.317C341.473 400.099 341.407 399.844 341.423 399.587C341.576 397.112 341.67 394.492 341.742 391.567C341.74 391.403 341.771 391.241 341.833 391.09C341.895 390.938 341.986 390.801 342.103 390.686C342.219 390.571 342.357 390.48 342.509 390.419C342.661 390.359 342.823 390.329 342.987 390.333C343.151 390.336 343.312 390.372 343.462 390.439C343.611 390.506 343.746 390.602 343.858 390.722C343.969 390.842 344.056 390.983 344.112 391.137C344.168 391.291 344.193 391.454 344.185 391.618C344.134 394.581 344.033 397.242 343.874 399.755C343.852 400.012 343.75 400.255 343.582 400.449ZM179.233 590.299C179.089 590.471 178.899 590.601 178.686 590.672C178.472 590.744 178.243 590.755 178.023 590.705C177.432 590.565 176.848 590.431 176.271 590.303C174.498 589.883 172.662 589.454 170.874 589.134C170.651 589.096 170.413 589.051 170.19 589.024C169.881 588.966 169.605 588.79 169.421 588.534C169.238 588.278 169.16 587.961 169.204 587.649C169.249 587.338 169.412 587.055 169.659 586.861C169.907 586.667 170.22 586.576 170.534 586.608C170.789 586.646 171.042 586.687 171.302 586.718C173.151 587.048 175.016 587.48 176.825 587.908C177.402 588.045 177.981 588.178 178.568 588.302C178.772 588.349 178.961 588.447 179.116 588.588C179.271 588.728 179.388 588.906 179.455 589.104C179.522 589.303 179.536 589.515 179.498 589.721C179.459 589.926 179.368 590.118 179.234 590.278L179.233 590.299ZM75.7749 714.117C75.6162 714.304 75.4049 714.438 75.1685 714.503C74.9322 714.568 74.6816 714.56 74.4495 714.481C74.2173 714.402 74.0143 714.254 73.8667 714.058C73.7192 713.862 73.634 713.626 73.6222 713.381C73.4825 710.751 73.1366 708.135 72.5877 705.558C72.5466 705.398 72.5383 705.231 72.5634 705.068C72.5885 704.905 72.6464 704.749 72.7335 704.609C72.8207 704.469 72.9354 704.348 73.0707 704.254C73.206 704.159 73.359 704.093 73.5206 704.06C73.6822 704.026 73.849 704.026 74.0109 704.058C74.1728 704.091 74.3265 704.156 74.4627 704.249C74.5989 704.343 74.7148 704.463 74.8033 704.603C74.8919 704.742 74.9513 704.898 74.9779 705.061C75.5557 707.764 75.9191 710.508 76.0648 713.267C76.0797 713.577 75.9761 713.881 75.7749 714.117ZM290.25 455.512C290.101 455.691 289.902 455.824 289.679 455.894C289.456 455.965 289.217 455.969 288.991 455.908C286.329 455.163 283.727 454.22 281.207 453.086C280.917 452.95 280.693 452.706 280.581 452.406C280.47 452.107 280.48 451.775 280.609 451.484C280.739 451.192 280.978 450.963 281.275 450.845C281.572 450.728 281.903 450.731 282.198 450.854C284.607 451.936 287.093 452.837 289.635 453.551C289.791 453.592 289.937 453.664 290.066 453.763C290.194 453.861 290.302 453.984 290.382 454.124C290.463 454.265 290.515 454.419 290.535 454.58C290.556 454.74 290.544 454.903 290.501 455.058C290.45 455.225 290.365 455.38 290.25 455.512ZM132.66 644.193C132.492 644.394 132.265 644.536 132.01 644.597C131.756 644.659 131.489 644.638 131.247 644.536C128.707 643.462 126.245 642.21 123.88 640.79C123.616 640.617 123.43 640.349 123.359 640.042C123.289 639.735 123.339 639.413 123.5 639.143C123.661 638.872 123.921 638.675 124.224 638.591C124.527 638.508 124.852 638.545 125.129 638.694C127.392 640.056 129.747 641.26 132.177 642.296C132.354 642.369 132.511 642.483 132.636 642.629C132.76 642.774 132.849 642.947 132.895 643.132C132.941 643.318 132.943 643.512 132.9 643.699C132.857 643.885 132.771 644.059 132.649 644.206L132.66 644.193ZM202.766 554.763C202.635 554.921 202.466 555.043 202.274 555.118C202.083 555.193 201.875 555.218 201.671 555.192C201.467 555.165 201.273 555.088 201.107 554.966C200.941 554.845 200.808 554.684 200.72 554.497C199.573 552.099 198.306 549.76 196.925 547.488C196.759 547.209 196.711 546.875 196.791 546.561C196.871 546.247 197.072 545.978 197.351 545.813C197.63 545.647 197.963 545.6 198.277 545.68C198.592 545.76 198.861 545.962 199.027 546.241C200.453 548.577 201.76 550.982 202.945 553.448C203.045 553.662 203.081 553.901 203.049 554.134C203.017 554.368 202.918 554.588 202.764 554.766L202.766 554.763ZM155.514 606.728C155.447 606.809 155.37 606.88 155.284 606.94C155.02 607.127 154.693 607.202 154.373 607.148C154.054 607.094 153.769 606.916 153.58 606.652C151.51 603.748 150.564 601.146 150.601 598.473C150.606 598.149 150.739 597.84 150.972 597.614C151.205 597.388 151.518 597.264 151.842 597.269C152.167 597.274 152.476 597.408 152.703 597.641C152.929 597.874 153.054 598.188 153.049 598.512C153.015 600.641 153.82 602.776 155.569 605.237C155.726 605.457 155.806 605.724 155.795 605.994C155.785 606.265 155.685 606.524 155.511 606.731L155.514 606.728ZM72.5794 698.299C72.44 698.467 72.258 698.595 72.0525 698.668C71.847 698.742 71.6255 698.759 71.4109 698.718C71.1963 698.677 70.9965 698.579 70.8324 698.435C70.6682 698.29 70.5456 698.105 70.4774 697.897C69.6916 695.529 68.7654 693.082 67.6488 690.416C67.523 690.117 67.521 689.781 67.6434 689.481C67.7657 689.181 68.0024 688.942 68.3013 688.817C68.6002 688.691 68.9368 688.69 69.2372 688.813C69.5375 688.936 69.7769 689.173 69.9028 689.472C71.045 692.195 71.991 694.702 72.7998 697.132C72.8656 697.329 72.8799 697.54 72.8413 697.744C72.8027 697.949 72.7126 698.14 72.5794 698.299ZM163.276 588.789C163.096 589.004 162.848 589.151 162.573 589.205C159.828 589.745 157.513 590.813 155.907 592.267C155.789 592.38 155.65 592.468 155.497 592.526C155.345 592.584 155.182 592.611 155.019 592.605C154.856 592.6 154.695 592.561 154.547 592.492C154.399 592.423 154.266 592.325 154.156 592.204C154.046 592.083 153.961 591.941 153.907 591.787C153.853 591.633 153.83 591.47 153.841 591.307C153.851 591.144 153.893 590.984 153.966 590.838C154.039 590.692 154.14 590.562 154.264 590.456C156.209 588.692 158.906 587.438 162.094 586.801C162.341 586.752 162.598 586.782 162.829 586.885C163.06 586.989 163.253 587.161 163.381 587.378C163.51 587.596 163.569 587.847 163.549 588.099C163.529 588.351 163.431 588.59 163.269 588.784L163.276 588.789ZM275.459 449.059C275.275 449.285 275.017 449.439 274.73 449.491C274.443 449.543 274.146 449.491 273.894 449.343C271.665 448.05 269.407 446.612 266.982 444.949C266.849 444.858 266.735 444.741 266.647 444.606C266.559 444.471 266.498 444.32 266.468 444.161C266.438 444.003 266.44 443.84 266.473 443.682C266.507 443.525 266.57 443.375 266.661 443.242C266.752 443.109 266.869 442.996 267.004 442.908C267.139 442.82 267.29 442.76 267.448 442.73C267.607 442.701 267.77 442.703 267.927 442.736C268.085 442.77 268.235 442.834 268.368 442.925C270.734 444.544 272.952 445.96 275.127 447.223C275.266 447.304 275.388 447.411 275.486 447.538C275.584 447.666 275.656 447.812 275.697 447.967C275.739 448.122 275.75 448.284 275.728 448.444C275.707 448.603 275.655 448.756 275.574 448.895C275.534 448.948 275.49 448.998 275.443 449.046L275.459 449.059ZM118.69 636.094C118.494 636.33 118.216 636.484 117.912 636.525C117.607 636.565 117.298 636.49 117.047 636.313C115.656 635.338 114.259 634.326 112.906 633.351C112.092 632.762 111.274 632.169 110.457 631.583C110.193 631.393 110.014 631.107 109.961 630.786C109.908 630.465 109.985 630.137 110.174 629.873C110.363 629.609 110.649 629.431 110.97 629.379C111.291 629.326 111.62 629.403 111.884 629.593C112.705 630.183 113.526 630.774 114.345 631.366C115.671 632.323 117.079 633.34 118.455 634.307C118.587 634.4 118.699 634.517 118.785 634.653C118.871 634.789 118.93 634.941 118.958 635.099C118.985 635.258 118.981 635.42 118.946 635.577C118.911 635.734 118.845 635.882 118.752 636.013L118.69 636.094ZM194.637 540.791C194.555 540.889 194.458 540.973 194.35 541.04C194.076 541.213 193.745 541.27 193.429 541.199C193.113 541.128 192.838 540.935 192.664 540.661L192.478 540.368C190.987 538.011 189.65 535.846 188.391 533.746C188.225 533.467 188.177 533.134 188.257 532.82C188.337 532.506 188.538 532.236 188.817 532.071C189.096 531.906 189.429 531.858 189.743 531.938C190.058 532.019 190.327 532.221 190.493 532.5C191.731 534.593 193.072 536.729 194.564 539.077L194.75 539.37C194.877 539.589 194.933 539.843 194.91 540.095C194.887 540.347 194.786 540.586 194.621 540.778L194.637 540.791ZM66.4564 683.336C66.3238 683.495 66.153 683.617 65.9599 683.692C65.7668 683.767 65.5578 683.791 65.3525 683.763C65.1472 683.735 64.9524 683.655 64.7863 683.531C64.6201 683.407 64.4882 683.243 64.4029 683.054L64.0093 682.195C63.0389 680.055 62.033 677.843 61.0808 675.649C61.0076 675.5 60.9653 675.338 60.9565 675.173C60.9476 675.008 60.9725 674.842 61.0296 674.687C61.0866 674.532 61.1747 674.39 61.2884 674.27C61.4021 674.149 61.5391 674.054 61.691 673.988C61.843 673.923 62.0067 673.889 62.1723 673.888C62.3379 673.888 62.5019 673.921 62.6543 673.986C62.8068 674.051 62.9445 674.146 63.0592 674.266C63.1738 674.386 63.263 674.527 63.3212 674.682C64.2656 676.854 65.2678 679.058 66.2346 681.19L66.6282 682.048C66.7189 682.257 66.7494 682.487 66.7163 682.713C66.6832 682.938 66.5877 683.149 66.4407 683.323L66.4564 683.336ZM262.058 439.966C261.857 440.207 261.571 440.362 261.258 440.398C260.946 440.433 260.632 440.347 260.381 440.156L258.507 438.742C256.991 437.587 255.462 436.428 253.922 435.282C253.793 435.186 253.685 435.065 253.602 434.927C253.52 434.789 253.465 434.636 253.442 434.477C253.418 434.318 253.427 434.156 253.466 434C253.505 433.844 253.575 433.698 253.671 433.569C253.767 433.44 253.887 433.332 254.025 433.249C254.163 433.167 254.316 433.113 254.475 433.09C254.634 433.067 254.796 433.075 254.952 433.115C255.108 433.154 255.255 433.224 255.384 433.32C256.929 434.472 258.464 435.637 259.987 436.79L261.855 438.206C261.983 438.302 262.092 438.423 262.173 438.562C262.255 438.7 262.309 438.853 262.332 439.013C262.354 439.172 262.345 439.334 262.305 439.489C262.265 439.645 262.194 439.791 262.098 439.919L262.058 439.966ZM105.409 626.82C105.22 627.05 104.954 627.203 104.66 627.251C104.366 627.298 104.065 627.237 103.813 627.078C101.875 625.848 100.077 624.814 98.3177 623.919C97.8445 623.678 97.3629 623.44 96.8766 623.215C96.731 623.147 96.6002 623.051 96.4915 622.933C96.3829 622.814 96.2986 622.676 96.2435 622.525C96.1884 622.374 96.1635 622.214 96.1703 622.053C96.1771 621.893 96.2154 621.736 96.283 621.59C96.3507 621.445 96.4463 621.314 96.5645 621.206C96.6828 621.098 96.8212 621.014 96.972 620.959C97.1228 620.904 97.283 620.879 97.4434 620.886C97.6038 620.893 97.7613 620.932 97.9069 621C98.4203 621.237 98.929 621.487 99.42 621.732C101.246 622.662 103.101 623.743 105.11 625.001C105.246 625.087 105.364 625.199 105.456 625.33C105.549 625.461 105.615 625.609 105.651 625.766C105.686 625.922 105.69 626.085 105.663 626.243C105.636 626.401 105.578 626.552 105.492 626.688L105.409 626.82ZM186.318 526.9C186.222 527.017 186.105 527.113 185.973 527.186C185.69 527.342 185.356 527.379 185.045 527.289C184.733 527.2 184.47 526.99 184.313 526.706C182.949 524.249 181.672 521.82 180.519 519.491C180.446 519.347 180.402 519.19 180.39 519.029C180.377 518.868 180.397 518.706 180.448 518.553C180.499 518.4 180.579 518.258 180.685 518.136C180.791 518.014 180.92 517.915 181.064 517.843C181.209 517.772 181.367 517.73 181.528 517.719C181.689 517.709 181.851 517.731 182.004 517.783C182.156 517.835 182.297 517.918 182.418 518.025C182.539 518.132 182.638 518.262 182.708 518.408C183.846 520.704 185.106 523.101 186.45 525.526C186.563 525.741 186.61 525.983 186.585 526.224C186.56 526.464 186.464 526.692 186.31 526.878L186.318 526.9ZM60.1064 668.422C59.9678 668.587 59.7877 668.713 59.5843 668.786C59.2798 668.896 58.9439 668.881 58.6504 668.743C58.3569 668.606 58.1298 668.357 58.019 668.053C57.0739 665.478 56.2715 662.853 55.6155 660.19C55.573 660.032 55.5624 659.868 55.5843 659.706C55.6063 659.545 55.6604 659.389 55.7434 659.249C55.8264 659.109 55.9367 658.987 56.0677 658.89C56.1988 658.793 56.3479 658.724 56.5064 658.685C56.6649 658.647 56.8295 658.641 56.9905 658.667C57.1515 658.693 57.3057 658.752 57.444 658.838C57.5822 658.925 57.7018 659.039 57.7956 659.172C57.8894 659.306 57.9555 659.457 57.9901 659.616C58.6271 662.193 59.4044 664.733 60.3184 667.226C60.3905 667.426 60.4089 667.642 60.3717 667.852C60.3345 668.062 60.2431 668.258 60.1064 668.422ZM90.7193 620.118C90.572 620.295 90.3776 620.427 90.1583 620.498C89.9391 620.57 89.7041 620.577 89.4804 620.521C86.9586 619.862 84.3685 619.503 81.7637 619.452C81.4395 619.447 81.1303 619.314 80.904 619.081C80.6778 618.849 80.553 618.536 80.5572 618.212C80.5614 617.888 80.6942 617.579 80.9264 617.353C81.1586 617.127 81.4712 617.003 81.7954 617.008C84.5925 617.062 87.3742 617.446 90.0828 618.15C90.2828 618.202 90.4666 618.303 90.6171 618.444C90.7676 618.586 90.8799 618.763 90.9434 618.96C91.007 619.156 91.0197 619.365 90.9805 619.568C90.9414 619.77 90.8515 619.96 90.7193 620.118ZM249.003 430.339C248.809 430.574 248.534 430.727 248.232 430.77C247.931 430.812 247.624 430.74 247.372 430.569C244.96 428.922 242.744 427.523 240.604 426.294C240.339 426.124 240.15 425.858 240.077 425.551C240.003 425.245 240.05 424.923 240.208 424.651C240.367 424.38 240.624 424.18 240.926 424.093C241.228 424.006 241.553 424.04 241.832 424.186C244.029 425.447 246.292 426.879 248.759 428.562C249.027 428.745 249.211 429.027 249.271 429.345C249.331 429.664 249.262 429.993 249.079 430.26L249.003 430.339ZM179.133 512.376C178.999 512.537 178.825 512.66 178.63 512.735C178.434 512.809 178.222 512.832 178.015 512.801C177.808 512.77 177.612 512.687 177.446 512.559C177.28 512.43 177.15 512.262 177.068 512.069C175.97 509.509 174.97 506.946 174.089 504.457C173.981 504.15 173.999 503.814 174.14 503.522C174.28 503.229 174.531 503.005 174.838 502.898C175.144 502.79 175.48 502.809 175.773 502.95C176.066 503.091 176.291 503.342 176.399 503.649C177.257 506.088 178.242 508.6 179.318 511.11C179.407 511.318 179.437 511.546 179.404 511.77C179.372 511.993 179.278 512.203 179.133 512.376ZM56.4117 652.712C56.256 652.898 56.0481 653.034 55.8147 653.101C55.5813 653.169 55.3329 653.165 55.1013 653.091C54.8698 653.017 54.6655 652.875 54.5146 652.684C54.3637 652.493 54.2731 652.262 54.2543 652.02C54.0382 649.246 54.1028 646.459 54.4471 643.699C54.5176 643.409 54.6923 643.154 54.9381 642.984C55.1839 642.814 55.4837 642.74 55.7808 642.776C56.0778 642.812 56.3515 642.956 56.5499 643.18C56.7484 643.405 56.8578 643.694 56.8574 643.993C56.5372 646.594 56.4802 649.221 56.6874 651.834C56.7135 652.152 56.6146 652.467 56.4117 652.712ZM74.7335 620.074C74.5799 620.257 74.3759 620.391 74.1467 620.459C72.8191 620.859 71.5323 621.382 70.3033 622.023C69.2694 622.565 68.2817 623.191 67.35 623.895C67.2231 624 67.076 624.079 66.9178 624.126C66.7596 624.172 66.5934 624.187 66.4294 624.168C66.2653 624.149 66.1068 624.097 65.9633 624.015C65.8198 623.933 65.6944 623.823 65.5945 623.691C65.4947 623.559 65.4226 623.409 65.3825 623.249C65.3424 623.088 65.3352 622.922 65.3612 622.759C65.3873 622.596 65.4462 622.44 65.5342 622.3C65.6223 622.161 65.7377 622.041 65.8736 621.947C66.9107 621.161 68.012 620.463 69.1659 619.86C70.5306 619.146 71.9605 618.564 73.4361 618.122C73.688 618.046 73.9581 618.052 74.2061 618.142C74.4541 618.231 74.6667 618.398 74.8123 618.618C74.9579 618.838 75.0286 619.099 75.0139 619.362C74.9993 619.624 74.9 619.875 74.7309 620.077L74.7335 620.074ZM58.4388 636.783C58.253 636.998 57.9976 637.142 57.7169 637.189C57.4361 637.236 57.1475 637.184 56.901 637.041C56.6544 636.898 56.4653 636.674 56.3664 636.406C56.2675 636.139 56.2648 635.846 56.359 635.578C57.2739 632.931 58.5303 630.415 60.0965 628.094C60.2798 627.826 60.5627 627.641 60.8827 627.581C61.2027 627.521 61.5337 627.59 61.8028 627.774C62.072 627.958 62.2573 628.241 62.3179 628.561C62.3786 628.881 62.3096 629.212 62.1262 629.481C60.6763 631.631 59.512 633.962 58.6625 636.413C58.6106 636.549 58.5348 636.674 58.4388 636.783ZM173.804 497.11C173.659 497.283 173.468 497.413 173.254 497.484C173.04 497.556 172.81 497.566 172.59 497.515C172.37 497.464 172.168 497.352 172.007 497.193C171.846 497.034 171.732 496.834 171.679 496.615C171.464 495.815 171.258 495.012 171.07 494.219C170.62 492.365 170.228 490.474 169.907 488.611C169.872 488.45 169.87 488.284 169.901 488.122C169.932 487.96 169.996 487.807 170.088 487.67C170.18 487.534 170.298 487.417 170.437 487.328C170.575 487.239 170.73 487.178 170.892 487.15C171.054 487.122 171.221 487.127 171.381 487.165C171.542 487.203 171.693 487.273 171.826 487.371C171.958 487.469 172.07 487.592 172.154 487.734C172.238 487.876 172.292 488.033 172.314 488.197C172.63 490.014 172.996 491.835 173.448 493.654C173.634 494.424 173.833 495.21 174.043 495.99C174.094 496.181 174.098 496.383 174.054 496.576C174.01 496.769 173.92 496.949 173.791 497.1L173.804 497.11ZM234.937 422.393C234.769 422.594 234.541 422.736 234.286 422.797C234.031 422.858 233.763 422.836 233.522 422.733C231.107 421.693 228.612 420.852 226.061 420.219C225.746 420.142 225.473 419.944 225.304 419.668C225.134 419.391 225.081 419.059 225.157 418.743C225.233 418.428 225.43 418.156 225.707 417.987C225.983 417.818 226.316 417.766 226.631 417.842C229.317 418.504 231.945 419.385 234.487 420.475C234.786 420.602 235.022 420.842 235.144 421.142C235.265 421.443 235.263 421.779 235.137 422.077C235.083 422.19 235.011 422.293 234.925 422.382L234.937 422.393ZM171.034 481.17C170.878 481.357 170.67 481.492 170.437 481.56C170.203 481.627 169.955 481.624 169.723 481.549C169.492 481.475 169.287 481.333 169.137 481.143C168.986 480.952 168.895 480.72 168.876 480.478C168.666 477.747 168.597 475.007 168.668 472.268C168.677 471.944 168.814 471.637 169.049 471.414C169.284 471.192 169.598 471.072 169.923 471.081C170.247 471.09 170.554 471.227 170.778 471.462C171.001 471.698 171.122 472.012 171.113 472.336C171.043 474.992 171.11 477.649 171.316 480.298C171.339 480.614 171.238 480.927 171.034 481.17ZM219.257 418.692C219.138 418.835 218.987 418.949 218.817 419.025C218.647 419.1 218.462 419.136 218.276 419.13C215.666 419.036 213.054 419.228 210.486 419.701C210.328 419.731 210.165 419.73 210.007 419.697C209.849 419.664 209.699 419.6 209.566 419.508C209.433 419.417 209.319 419.3 209.231 419.165C209.143 419.03 209.082 418.878 209.053 418.72C209.024 418.561 209.027 418.398 209.061 418.241C209.095 418.083 209.16 417.934 209.252 417.801C209.344 417.669 209.461 417.557 209.597 417.47C209.733 417.383 209.885 417.325 210.044 417.297C212.785 416.792 215.573 416.587 218.36 416.687C218.588 416.695 218.81 416.767 219 416.895C219.19 417.023 219.34 417.202 219.434 417.411C219.527 417.62 219.56 417.851 219.529 418.077C219.498 418.304 219.404 418.517 219.257 418.692ZM171.485 465.024C171.315 465.228 171.082 465.37 170.824 465.43C170.565 465.49 170.293 465.464 170.05 465.356C169.807 465.248 169.606 465.064 169.477 464.831C169.348 464.599 169.298 464.331 169.335 464.068C169.713 461.348 170.257 458.654 170.963 456.001C171.004 455.845 171.077 455.7 171.175 455.573C171.273 455.446 171.395 455.339 171.534 455.259C171.674 455.18 171.828 455.128 171.987 455.108C172.146 455.087 172.308 455.098 172.464 455.141C172.619 455.183 172.764 455.255 172.892 455.353C173.019 455.452 173.126 455.574 173.206 455.713C173.286 455.853 173.338 456.007 173.359 456.166C173.379 456.326 173.368 456.487 173.327 456.643C172.645 459.2 172.121 461.796 171.756 464.418C171.725 464.642 171.631 464.852 171.485 465.024ZM203.441 421.519C203.31 421.675 203.142 421.796 202.952 421.87C200.512 422.842 198.163 424.026 195.93 425.409C195.655 425.572 195.327 425.62 195.016 425.543C194.705 425.466 194.437 425.27 194.268 424.998C194.1 424.725 194.045 424.398 194.115 424.086C194.186 423.774 194.376 423.502 194.644 423.329C196.999 421.87 199.477 420.621 202.05 419.596C202.303 419.495 202.583 419.482 202.845 419.558C203.107 419.634 203.336 419.795 203.496 420.017C203.655 420.238 203.737 420.506 203.727 420.778C203.717 421.05 203.616 421.311 203.441 421.519ZM175.682 449.453C175.494 449.675 175.233 449.822 174.946 449.868C174.659 449.914 174.364 449.857 174.115 449.705C173.867 449.554 173.68 449.319 173.589 449.043C173.498 448.766 173.508 448.467 173.618 448.197C174.304 446.554 175.07 444.93 175.894 443.375C176.349 442.519 176.837 441.66 177.342 440.825C177.423 440.684 177.532 440.56 177.661 440.46C177.791 440.361 177.939 440.289 178.097 440.248C178.255 440.208 178.419 440.199 178.581 440.223C178.742 440.247 178.898 440.302 179.037 440.387C179.177 440.472 179.298 440.584 179.394 440.716C179.49 440.848 179.558 440.998 179.595 441.157C179.632 441.316 179.637 441.481 179.609 441.642C179.582 441.802 179.522 441.956 179.434 442.093C178.951 442.888 178.487 443.705 178.056 444.521C177.263 446.012 176.528 447.567 175.874 449.141C175.827 449.255 175.764 449.361 175.685 449.456L175.682 449.453ZM189.719 429.938C189.682 429.992 189.64 430.042 189.594 430.088C187.605 431.815 185.752 433.693 184.052 435.705C183.845 435.954 183.547 436.11 183.224 436.139C182.901 436.168 182.58 436.067 182.331 435.859C182.081 435.651 181.925 435.353 181.896 435.03C181.866 434.708 181.966 434.387 182.174 434.138C183.954 432.03 185.896 430.063 187.98 428.254C188.208 428.022 188.518 427.89 188.844 427.887C189.169 427.884 189.482 428.01 189.715 428.238C189.947 428.466 190.08 428.776 190.083 429.101C190.087 429.427 189.961 429.74 189.734 429.972L189.719 429.938Z" fill="#87A7CF"/>
<path d="M597.364 113.444C596.619 114.338 595.842 115.205 595.052 116.031C594.827 116.265 594.519 116.401 594.194 116.408C593.869 116.414 593.555 116.292 593.32 116.067C593.085 115.842 592.949 115.533 592.941 115.209C592.934 114.884 593.056 114.57 593.28 114.335C595.097 112.43 596.761 110.386 598.259 108.222C598.351 108.089 598.468 107.976 598.603 107.889C598.739 107.802 598.89 107.742 599.048 107.714C599.207 107.685 599.37 107.688 599.527 107.722C599.685 107.756 599.834 107.821 599.967 107.913C600.099 108.005 600.212 108.122 600.3 108.257C600.387 108.393 600.447 108.544 600.476 108.703C600.505 108.861 600.503 109.024 600.469 109.181C600.435 109.339 600.37 109.488 600.279 109.62C599.355 110.944 598.376 112.231 597.364 113.444ZM430.921 311.972L430.842 312.066C428.81 314.059 426.433 315.667 423.827 316.814C423.679 316.883 423.518 316.923 423.355 316.929C423.191 316.936 423.028 316.909 422.875 316.852C422.721 316.794 422.581 316.706 422.463 316.593C422.344 316.48 422.249 316.345 422.183 316.195C422.118 316.044 422.083 315.883 422.082 315.719C422.08 315.556 422.111 315.393 422.173 315.242C422.235 315.091 422.327 314.954 422.444 314.839C422.56 314.724 422.698 314.633 422.85 314.573C425.194 313.539 427.33 312.088 429.153 310.29C429.373 310.052 429.679 309.911 430.003 309.898C430.327 309.886 430.644 310.002 430.883 310.223C431.121 310.443 431.263 310.749 431.276 311.073C431.289 311.397 431.173 311.713 430.953 311.952L430.921 311.972ZM435.539 305.393C435.35 305.618 435.086 305.767 434.796 305.813C434.506 305.859 434.209 305.799 433.959 305.644C433.709 305.489 433.523 305.249 433.436 304.969C433.348 304.688 433.364 304.386 433.482 304.116C434.523 301.843 434.966 299.341 434.768 296.846C434.737 296.523 434.835 296.202 435.041 295.952C435.247 295.702 435.544 295.544 435.867 295.513C436.19 295.482 436.512 295.581 436.763 295.788C437.013 295.994 437.171 296.291 437.203 296.614C437.441 299.527 436.928 302.45 435.715 305.105C435.671 305.209 435.611 305.306 435.539 305.393ZM589.025 121.275C588.959 121.354 588.883 121.424 588.798 121.483C586.54 123.115 584.113 124.498 581.558 125.609C581.26 125.737 580.923 125.742 580.621 125.622C580.32 125.502 580.078 125.267 579.949 124.969C579.82 124.671 579.815 124.334 579.934 124.033C580.054 123.732 580.288 123.49 580.586 123.362C582.984 122.321 585.262 121.021 587.378 119.487C587.619 119.311 587.917 119.23 588.215 119.259C588.512 119.288 588.789 119.425 588.993 119.644C589.197 119.863 589.313 120.149 589.321 120.448C589.328 120.746 589.225 121.037 589.032 121.265L589.025 121.275ZM604.303 102.748C604.111 102.978 603.842 103.129 603.545 103.173C603.249 103.217 602.946 103.151 602.695 102.987C602.444 102.822 602.262 102.572 602.184 102.282C602.105 101.993 602.136 101.685 602.27 101.417C603.235 99.4648 604.087 97.4584 604.82 95.4076C604.973 94.9687 605.125 94.5329 605.27 94.0977C605.321 93.9454 605.401 93.8047 605.506 93.6835C605.611 93.5623 605.739 93.4631 605.883 93.3914C606.027 93.3198 606.183 93.2771 606.343 93.2659C606.503 93.2548 606.664 93.2752 606.817 93.3261C606.969 93.3771 607.11 93.4575 607.231 93.5629C607.353 93.6682 607.452 93.7964 607.524 93.9401C607.596 94.0838 607.639 94.2402 607.651 94.4004C607.662 94.5605 607.642 94.7214 607.591 94.8736C607.439 95.324 607.283 95.7775 607.122 96.2315C606.359 98.3699 605.472 100.462 604.465 102.496C604.423 102.586 604.37 102.669 604.306 102.745L604.303 102.748ZM469.472 256.35C469.264 256.599 468.966 256.755 468.643 256.784C468.32 256.813 467.999 256.712 467.75 256.504C467.501 256.296 467.344 255.998 467.315 255.675C467.286 255.353 467.386 255.031 467.593 254.783C469.188 252.785 470.412 250.517 471.206 248.086C471.252 247.929 471.33 247.783 471.435 247.656C471.54 247.53 471.669 247.426 471.814 247.351C471.96 247.276 472.119 247.231 472.283 247.218C472.446 247.206 472.611 247.227 472.766 247.279C472.922 247.332 473.065 247.415 473.188 247.524C473.311 247.633 473.41 247.766 473.481 247.914C473.551 248.062 473.591 248.223 473.598 248.387C473.605 248.551 473.579 248.714 473.522 248.868C472.635 251.575 471.271 254.101 469.492 256.325L469.472 256.35ZM609.496 87.4673C609.321 87.6774 609.081 87.8225 608.813 87.8796C608.546 87.9366 608.266 87.9022 608.02 87.7819C607.774 87.6615 607.576 87.4622 607.456 87.2158C607.337 86.9695 607.303 86.6903 607.362 86.4231C607.896 83.943 608.346 81.297 608.695 78.5559C608.694 78.3825 608.73 78.2109 608.801 78.0527C608.871 77.8944 608.975 77.753 609.104 77.6379C609.234 77.5228 609.387 77.4367 609.552 77.3852C609.718 77.3337 609.893 77.3181 610.065 77.3393C610.237 77.3605 610.403 77.4181 610.551 77.5083C610.699 77.5985 610.827 77.7192 610.925 77.8623C611.023 78.0055 611.09 78.1678 611.12 78.3386C611.151 78.5094 611.145 78.6846 611.103 78.8527C610.746 81.6668 610.285 84.3832 609.733 86.9284C609.701 87.1253 609.619 87.3107 609.496 87.4673ZM416.402 318.246C416.292 318.373 416.157 318.476 416.005 318.548C415.854 318.621 415.689 318.661 415.52 318.666C412.717 318.818 409.905 318.599 407.156 318.017C406.999 317.984 406.85 317.921 406.717 317.831C406.583 317.741 406.469 317.625 406.381 317.491C406.292 317.357 406.231 317.207 406.201 317.049C406.17 316.891 406.171 316.729 406.203 316.572C406.235 316.415 406.298 316.265 406.388 316.132C406.478 316 406.594 315.886 406.728 315.798C406.862 315.709 407.012 315.648 407.169 315.618C407.327 315.588 407.489 315.589 407.647 315.622C410.183 316.162 412.779 316.367 415.368 316.233C415.606 316.219 415.844 316.274 416.051 316.393C416.258 316.512 416.426 316.689 416.534 316.902C416.642 317.115 416.686 317.355 416.659 317.592C416.632 317.829 416.536 318.053 416.384 318.236L416.402 318.246ZM463.117 261.242C462.994 261.388 462.838 261.503 462.662 261.577C462.155 261.799 461.637 261.995 461.11 262.164C458.886 262.84 456.559 263.119 454.237 262.987C454.074 262.984 453.913 262.948 453.764 262.882C453.615 262.816 453.481 262.721 453.369 262.602C453.257 262.484 453.17 262.344 453.113 262.191C453.055 262.039 453.029 261.876 453.036 261.713C453.043 261.551 453.082 261.391 453.151 261.244C453.22 261.096 453.318 260.964 453.439 260.856C453.56 260.747 453.702 260.663 453.856 260.61C454.01 260.557 454.173 260.535 454.335 260.546C456.378 260.664 458.425 260.422 460.382 259.829C460.831 259.69 461.273 259.528 461.706 259.343C461.959 259.234 462.241 259.213 462.507 259.284C462.774 259.356 463.008 259.515 463.173 259.736C463.338 259.957 463.423 260.227 463.415 260.502C463.408 260.777 463.307 261.042 463.13 261.252L463.117 261.242ZM574.256 127.537C574.069 127.769 573.803 127.924 573.509 127.974C570.751 128.423 567.949 128.548 565.16 128.344C564.847 128.309 564.558 128.154 564.356 127.911C564.154 127.669 564.053 127.358 564.075 127.043C564.097 126.728 564.239 126.435 564.473 126.223C564.707 126.012 565.013 125.899 565.328 125.908C567.926 126.096 570.535 125.98 573.104 125.563C573.352 125.523 573.606 125.559 573.832 125.668C574.058 125.777 574.245 125.952 574.368 126.171C574.491 126.389 574.545 126.64 574.52 126.89C574.496 127.139 574.396 127.375 574.233 127.565L574.256 127.537ZM433.993 290.055C433.919 290.143 433.834 290.22 433.739 290.283C433.606 290.374 433.457 290.437 433.299 290.469C433.142 290.502 432.98 290.503 432.822 290.472C432.665 290.442 432.514 290.381 432.38 290.293C432.246 290.205 432.13 290.091 432.04 289.958C430.502 287.813 428.803 285.787 426.957 283.899C426.847 283.781 426.761 283.642 426.704 283.49C426.647 283.339 426.621 283.178 426.626 283.016C426.631 282.854 426.669 282.696 426.735 282.548C426.802 282.401 426.897 282.269 427.016 282.159C427.134 282.048 427.273 281.962 427.424 281.906C427.575 281.849 427.737 281.823 427.898 281.829C428.06 281.834 428.219 281.872 428.366 281.939C428.514 282.006 428.646 282.102 428.757 282.22C430.688 284.201 432.466 286.326 434.075 288.576C434.229 288.797 434.306 289.064 434.294 289.333C434.281 289.603 434.18 289.86 434.005 290.066L433.993 290.055ZM474.648 241.332C474.486 241.526 474.268 241.665 474.023 241.73C473.778 241.795 473.519 241.782 473.282 241.693C473.045 241.605 472.841 241.445 472.698 241.235C472.555 241.026 472.481 240.777 472.486 240.524C472.508 239.371 472.444 238.218 472.295 237.073C472.109 235.653 471.83 234.246 471.46 232.862C471.412 232.705 471.397 232.54 471.414 232.376C471.432 232.213 471.482 232.055 471.562 231.912C471.642 231.769 471.75 231.643 471.879 231.542C472.009 231.442 472.158 231.368 472.316 231.327C472.475 231.285 472.641 231.276 472.803 231.299C472.966 231.323 473.122 231.379 473.263 231.464C473.403 231.549 473.525 231.662 473.621 231.795C473.717 231.929 473.785 232.08 473.822 232.24C474.221 233.726 474.522 235.236 474.723 236.761C474.882 238.025 474.952 239.298 474.932 240.572C474.929 240.848 474.833 241.116 474.659 241.331L474.648 241.332ZM611.582 71.4494C611.417 71.6468 611.193 71.7869 610.943 71.8498C610.694 71.9126 610.43 71.8949 610.191 71.7992C609.952 71.7035 609.749 71.5348 609.611 71.317C609.473 71.0992 609.407 70.8436 609.423 70.5866C609.576 68.1117 609.67 65.4917 609.742 62.5671C609.74 62.4035 609.771 62.2411 609.833 62.0897C609.895 61.9383 609.986 61.801 610.103 61.6859C610.219 61.5707 610.357 61.4801 610.509 61.4195C610.661 61.3588 610.824 61.3292 610.987 61.3326C611.151 61.336 611.312 61.3723 611.462 61.4392C611.611 61.5062 611.746 61.6024 611.858 61.7223C611.969 61.8421 612.056 61.9832 612.112 62.137C612.168 62.2909 612.193 62.4544 612.185 62.6179C612.134 65.5811 612.033 68.2422 611.874 70.7552C611.852 71.0117 611.75 71.2547 611.582 71.4494ZM447.233 261.299C447.089 261.471 446.899 261.601 446.686 261.672C446.472 261.744 446.243 261.755 446.023 261.705C445.432 261.565 444.848 261.431 444.271 261.303C442.498 260.883 440.662 260.454 438.874 260.134C438.651 260.096 438.413 260.051 438.19 260.024C437.881 259.966 437.605 259.79 437.421 259.534C437.238 259.278 437.16 258.961 437.204 258.649C437.249 258.338 437.412 258.055 437.659 257.861C437.907 257.667 438.22 257.576 438.534 257.608C438.789 257.646 439.042 257.687 439.302 257.718C441.151 258.048 443.016 258.48 444.825 258.908C445.402 259.045 445.981 259.178 446.568 259.302C446.772 259.349 446.961 259.447 447.116 259.588C447.271 259.728 447.388 259.906 447.455 260.104C447.522 260.303 447.536 260.515 447.498 260.721C447.459 260.926 447.368 261.118 447.234 261.278L447.233 261.299ZM343.775 385.117C343.616 385.304 343.405 385.438 343.169 385.503C342.932 385.568 342.682 385.56 342.449 385.481C342.217 385.402 342.014 385.254 341.867 385.058C341.719 384.862 341.634 384.626 341.622 384.381C341.483 381.751 341.137 379.135 340.588 376.558C340.547 376.398 340.538 376.231 340.563 376.068C340.588 375.905 340.646 375.749 340.734 375.609C340.821 375.469 340.935 375.348 341.071 375.254C341.206 375.159 341.359 375.093 341.521 375.06C341.682 375.026 341.849 375.026 342.011 375.058C342.173 375.091 342.327 375.156 342.463 375.249C342.599 375.343 342.715 375.463 342.803 375.603C342.892 375.742 342.951 375.898 342.978 376.061C343.556 378.764 343.919 381.508 344.065 384.267C344.08 384.577 343.976 384.881 343.775 385.117ZM558.25 126.512C558.101 126.691 557.902 126.824 557.679 126.894C557.456 126.965 557.217 126.969 556.991 126.908C554.329 126.163 551.727 125.22 549.207 124.086C548.917 123.95 548.693 123.706 548.581 123.406C548.47 123.107 548.48 122.775 548.609 122.484C548.739 122.192 548.978 121.963 549.275 121.845C549.572 121.728 549.903 121.731 550.198 121.854C552.607 122.936 555.093 123.837 557.635 124.551C557.791 124.592 557.937 124.664 558.066 124.763C558.194 124.861 558.302 124.984 558.382 125.124C558.463 125.264 558.515 125.419 558.535 125.58C558.556 125.74 558.544 125.903 558.501 126.058C558.45 126.225 558.365 126.38 558.25 126.512ZM400.66 315.193C400.492 315.394 400.265 315.536 400.01 315.597C399.756 315.659 399.489 315.638 399.247 315.536C396.707 314.462 394.245 313.21 391.88 311.79C391.616 311.617 391.43 311.349 391.359 311.042C391.289 310.735 391.339 310.413 391.5 310.143C391.661 309.872 391.921 309.675 392.224 309.591C392.527 309.508 392.852 309.545 393.129 309.694C395.392 311.056 397.747 312.26 400.177 313.296C400.354 313.369 400.511 313.483 400.636 313.629C400.76 313.774 400.849 313.947 400.895 314.132C400.941 314.318 400.943 314.512 400.9 314.699C400.857 314.885 400.771 315.059 400.649 315.206L400.66 315.193ZM470.766 225.763C470.635 225.921 470.466 226.043 470.274 226.118C470.083 226.193 469.875 226.218 469.671 226.192C469.467 226.165 469.273 226.088 469.107 225.966C468.941 225.845 468.808 225.684 468.72 225.497C467.573 223.099 466.306 220.76 464.925 218.488C464.759 218.209 464.711 217.875 464.791 217.561C464.871 217.247 465.072 216.978 465.351 216.813C465.63 216.647 465.963 216.6 466.277 216.68C466.592 216.76 466.861 216.962 467.027 217.241C468.453 219.577 469.76 221.982 470.945 224.448C471.045 224.662 471.081 224.901 471.049 225.134C471.017 225.368 470.918 225.588 470.764 225.766L470.766 225.763ZM423.514 277.728C423.447 277.809 423.37 277.88 423.284 277.94C423.02 278.127 422.693 278.202 422.373 278.148C422.054 278.094 421.769 277.916 421.58 277.652C419.51 274.748 418.564 272.146 418.601 269.473C418.606 269.149 418.739 268.84 418.972 268.614C419.205 268.388 419.518 268.264 419.842 268.269C420.167 268.274 420.476 268.408 420.703 268.641C420.929 268.874 421.054 269.188 421.049 269.512C421.015 271.641 421.82 273.776 423.569 276.237C423.726 276.457 423.806 276.724 423.795 276.994C423.785 277.265 423.685 277.524 423.511 277.731L423.514 277.728ZM340.579 369.299C340.44 369.467 340.258 369.595 340.053 369.668C339.847 369.742 339.625 369.759 339.411 369.718C339.196 369.677 338.997 369.579 338.832 369.435C338.668 369.29 338.546 369.105 338.477 368.897C337.692 366.529 336.765 364.081 335.649 361.416C335.523 361.117 335.521 360.781 335.643 360.481C335.766 360.181 336.002 359.942 336.301 359.817C336.6 359.691 336.937 359.69 337.237 359.813C337.538 359.936 337.777 360.173 337.903 360.472C339.045 363.195 339.991 365.702 340.8 368.132C340.866 368.329 340.88 368.54 340.841 368.744C340.803 368.949 340.713 369.14 340.579 369.299ZM431.276 259.789C431.096 260.004 430.848 260.151 430.573 260.205C427.828 260.745 425.513 261.813 423.907 263.267C423.789 263.38 423.65 263.468 423.497 263.526C423.345 263.584 423.182 263.611 423.019 263.605C422.856 263.6 422.695 263.561 422.547 263.492C422.399 263.423 422.266 263.325 422.156 263.204C422.046 263.083 421.961 262.941 421.907 262.787C421.853 262.633 421.83 262.47 421.841 262.307C421.851 262.144 421.893 261.984 421.966 261.838C422.039 261.692 422.14 261.562 422.264 261.456C424.209 259.691 426.906 258.438 430.094 257.801C430.341 257.752 430.598 257.782 430.829 257.885C431.06 257.989 431.253 258.161 431.381 258.378C431.51 258.596 431.569 258.847 431.549 259.099C431.529 259.351 431.431 259.59 431.269 259.784L431.276 259.789ZM543.459 120.059C543.275 120.285 543.017 120.439 542.73 120.491C542.443 120.543 542.146 120.491 541.894 120.343C539.665 119.05 537.407 117.612 534.982 115.949C534.849 115.858 534.735 115.741 534.647 115.606C534.559 115.471 534.498 115.32 534.468 115.161C534.439 115.003 534.44 114.84 534.473 114.682C534.507 114.525 534.57 114.375 534.661 114.242C534.752 114.109 534.869 113.996 535.004 113.908C535.139 113.82 535.29 113.76 535.448 113.73C535.607 113.701 535.77 113.703 535.927 113.736C536.085 113.77 536.235 113.834 536.368 113.925C538.734 115.544 540.952 116.96 543.127 118.223C543.266 118.304 543.388 118.411 543.486 118.538C543.584 118.666 543.656 118.812 543.697 118.967C543.739 119.122 543.75 119.284 543.728 119.444C543.707 119.603 543.655 119.756 543.574 119.895C543.534 119.948 543.49 119.998 543.443 120.046L543.459 120.059ZM386.69 307.094C386.494 307.33 386.216 307.484 385.912 307.525C385.607 307.565 385.298 307.49 385.047 307.313C383.656 306.338 382.259 305.326 380.906 304.351C380.092 303.762 379.274 303.169 378.457 302.583C378.193 302.393 378.014 302.107 377.961 301.786C377.908 301.465 377.985 301.137 378.174 300.873C378.363 300.609 378.649 300.431 378.97 300.379C379.291 300.326 379.62 300.403 379.884 300.593C380.705 301.183 381.526 301.774 382.345 302.366C383.671 303.323 385.079 304.34 386.455 305.307C386.587 305.4 386.699 305.517 386.785 305.653C386.871 305.789 386.93 305.941 386.958 306.099C386.985 306.258 386.981 306.42 386.946 306.577C386.911 306.734 386.845 306.882 386.752 307.013L386.69 307.094ZM462.637 211.791C462.555 211.889 462.458 211.973 462.35 212.04C462.076 212.213 461.745 212.27 461.429 212.199C461.113 212.128 460.838 211.935 460.664 211.661L460.478 211.368C458.987 209.011 457.65 206.846 456.391 204.746C456.225 204.467 456.177 204.134 456.257 203.82C456.337 203.506 456.538 203.236 456.817 203.071C457.096 202.906 457.429 202.858 457.743 202.938C458.058 203.019 458.327 203.221 458.493 203.5C459.731 205.593 461.072 207.729 462.564 210.077L462.75 210.37C462.877 210.589 462.933 210.843 462.91 211.095C462.887 211.347 462.786 211.586 462.621 211.778L462.637 211.791ZM334.456 354.336C334.324 354.495 334.153 354.617 333.96 354.692C333.767 354.767 333.558 354.791 333.353 354.763C333.147 354.735 332.952 354.655 332.786 354.531C332.62 354.407 332.488 354.243 332.403 354.054L332.009 353.195C331.039 351.055 330.033 348.843 329.081 346.649C329.008 346.5 328.965 346.338 328.956 346.173C328.948 346.008 328.973 345.842 329.03 345.687C329.087 345.532 329.175 345.39 329.288 345.27C329.402 345.149 329.539 345.054 329.691 344.988C329.843 344.923 330.007 344.889 330.172 344.888C330.338 344.888 330.502 344.921 330.654 344.986C330.807 345.051 330.945 345.146 331.059 345.266C331.174 345.386 331.263 345.527 331.321 345.682C332.266 347.854 333.268 350.058 334.235 352.19L334.628 353.048C334.719 353.257 334.749 353.487 334.716 353.713C334.683 353.938 334.588 354.149 334.441 354.323L334.456 354.336ZM530.058 110.966C529.857 111.207 529.571 111.362 529.258 111.398C528.946 111.433 528.632 111.347 528.381 111.156L526.507 109.742C524.991 108.587 523.462 107.428 521.922 106.282C521.793 106.186 521.685 106.065 521.602 105.927C521.52 105.789 521.465 105.636 521.442 105.477C521.418 105.318 521.427 105.156 521.466 105C521.505 104.844 521.575 104.698 521.671 104.569C521.767 104.44 521.887 104.332 522.025 104.249C522.163 104.167 522.316 104.113 522.475 104.09C522.634 104.067 522.796 104.075 522.952 104.115C523.108 104.154 523.255 104.224 523.384 104.32C524.929 105.472 526.464 106.637 527.987 107.79L529.855 109.206C529.983 109.302 530.092 109.423 530.173 109.562C530.255 109.7 530.309 109.853 530.332 110.013C530.354 110.172 530.345 110.334 530.305 110.489C530.265 110.645 530.194 110.791 530.098 110.919L530.058 110.966ZM373.409 297.82C373.22 298.05 372.954 298.203 372.66 298.251C372.366 298.298 372.065 298.237 371.813 298.078C369.875 296.848 368.077 295.814 366.318 294.919C365.844 294.678 365.363 294.44 364.877 294.215C364.731 294.147 364.6 294.051 364.492 293.933C364.383 293.814 364.299 293.676 364.244 293.525C364.188 293.374 364.164 293.214 364.17 293.053C364.177 292.893 364.215 292.736 364.283 292.59C364.351 292.445 364.446 292.314 364.565 292.206C364.683 292.098 364.821 292.014 364.972 291.959C365.123 291.904 365.283 291.879 365.443 291.886C365.604 291.893 365.761 291.932 365.907 292C366.42 292.237 366.929 292.487 367.42 292.732C369.246 293.662 371.101 294.743 373.11 296.001C373.246 296.087 373.364 296.199 373.456 296.33C373.549 296.461 373.615 296.609 373.651 296.766C373.686 296.922 373.69 297.085 373.663 297.243C373.636 297.401 373.578 297.552 373.492 297.688L373.409 297.82ZM454.318 197.9C454.222 198.017 454.105 198.113 453.973 198.186C453.69 198.342 453.356 198.379 453.045 198.289C452.733 198.2 452.47 197.99 452.313 197.706C450.949 195.249 449.672 192.82 448.519 190.491C448.446 190.347 448.402 190.19 448.39 190.029C448.377 189.868 448.397 189.706 448.448 189.553C448.499 189.4 448.579 189.258 448.685 189.136C448.791 189.014 448.92 188.915 449.064 188.843C449.209 188.772 449.367 188.73 449.528 188.719C449.689 188.709 449.851 188.73 450.004 188.783C450.156 188.835 450.297 188.918 450.418 189.025C450.539 189.132 450.638 189.262 450.708 189.408C451.846 191.704 453.106 194.101 454.45 196.526C454.563 196.741 454.61 196.983 454.585 197.224C454.56 197.464 454.464 197.692 454.31 197.878L454.318 197.9ZM328.106 339.422C327.968 339.587 327.788 339.713 327.584 339.786C327.28 339.896 326.944 339.881 326.65 339.743C326.357 339.606 326.13 339.357 326.019 339.053C325.074 336.478 324.272 333.853 323.616 331.19C323.573 331.032 323.562 330.868 323.584 330.706C323.606 330.545 323.66 330.389 323.743 330.249C323.826 330.109 323.937 329.987 324.068 329.89C324.199 329.793 324.348 329.724 324.506 329.685C324.665 329.647 324.829 329.641 324.99 329.667C325.152 329.693 325.306 329.752 325.444 329.838C325.582 329.925 325.702 330.039 325.796 330.172C325.889 330.306 325.956 330.457 325.99 330.616C326.627 333.193 327.404 335.733 328.318 338.226C328.391 338.426 328.409 338.642 328.372 338.852C328.335 339.062 328.243 339.258 328.106 339.422ZM358.719 291.118C358.572 291.295 358.378 291.427 358.158 291.498C357.939 291.57 357.704 291.577 357.48 291.521C354.959 290.862 352.368 290.503 349.764 290.452C349.44 290.447 349.13 290.314 348.904 290.081C348.678 289.849 348.553 289.536 348.557 289.212C348.561 288.888 348.694 288.579 348.926 288.353C349.159 288.127 349.471 288.003 349.795 288.008C352.593 288.062 355.374 288.446 358.083 289.15C358.283 289.202 358.467 289.303 358.617 289.444C358.768 289.586 358.88 289.763 358.943 289.96C359.007 290.156 359.02 290.365 358.981 290.568C358.941 290.77 358.851 290.96 358.719 291.118ZM517.003 101.339C516.809 101.574 516.534 101.727 516.232 101.77C515.931 101.812 515.624 101.74 515.372 101.569C512.96 99.9216 510.744 98.5231 508.604 97.2942C508.339 97.1236 508.15 96.8575 508.077 96.5515C508.003 96.2455 508.05 95.9231 508.208 95.6514C508.367 95.3797 508.624 95.1797 508.926 95.093C509.228 95.0064 509.553 95.0396 509.832 95.186C512.029 96.4473 514.292 97.8793 516.759 99.5618C517.027 99.7451 517.211 100.027 517.271 100.345C517.331 100.664 517.262 100.993 517.079 101.26L517.003 101.339ZM447.133 183.376C446.999 183.537 446.825 183.66 446.63 183.735C446.434 183.809 446.222 183.832 446.015 183.801C445.808 183.77 445.612 183.687 445.446 183.559C445.28 183.43 445.15 183.262 445.068 183.069C443.97 180.509 442.97 177.946 442.089 175.457C441.981 175.15 441.999 174.814 442.14 174.522C442.28 174.229 442.531 174.005 442.838 173.898C443.144 173.79 443.48 173.809 443.773 173.95C444.066 174.091 444.291 174.342 444.399 174.649C445.257 177.088 446.242 179.6 447.318 182.11C447.407 182.318 447.437 182.546 447.404 182.77C447.372 182.993 447.278 183.203 447.133 183.376ZM324.412 323.712C324.256 323.898 324.048 324.034 323.815 324.101C323.581 324.169 323.333 324.165 323.101 324.091C322.87 324.017 322.665 323.875 322.515 323.684C322.364 323.493 322.273 323.262 322.254 323.02C322.038 320.246 322.103 317.459 322.447 314.699C322.518 314.409 322.692 314.154 322.938 313.984C323.184 313.814 323.484 313.74 323.781 313.776C324.078 313.812 324.352 313.956 324.55 314.18C324.748 314.405 324.858 314.694 324.857 314.993C324.537 317.594 324.48 320.221 324.687 322.834C324.714 323.152 324.615 323.467 324.412 323.712ZM342.734 291.074C342.58 291.257 342.376 291.391 342.147 291.459C340.819 291.859 339.532 292.382 338.303 293.023C337.269 293.565 336.282 294.191 335.35 294.895C335.223 295 335.076 295.079 334.918 295.126C334.76 295.173 334.593 295.187 334.429 295.168C334.265 295.149 334.107 295.097 333.963 295.015C333.82 294.933 333.694 294.823 333.595 294.691C333.495 294.559 333.423 294.409 333.382 294.249C333.342 294.088 333.335 293.922 333.361 293.759C333.387 293.596 333.446 293.44 333.534 293.3C333.622 293.161 333.738 293.041 333.874 292.947C334.911 292.161 336.012 291.463 337.166 290.86C338.531 290.146 339.96 289.564 341.436 289.122C341.688 289.046 341.958 289.052 342.206 289.142C342.454 289.231 342.667 289.398 342.812 289.618C342.958 289.838 343.029 290.099 343.014 290.362C342.999 290.624 342.9 290.875 342.731 291.077L342.734 291.074ZM326.439 307.783C326.253 307.998 325.998 308.142 325.717 308.189C325.436 308.236 325.148 308.184 324.901 308.041C324.654 307.898 324.465 307.674 324.366 307.406C324.267 307.139 324.265 306.846 324.359 306.578C325.274 303.931 326.53 301.415 328.096 299.094C328.28 298.826 328.563 298.641 328.883 298.581C329.203 298.521 329.534 298.59 329.803 298.774C330.072 298.958 330.257 299.241 330.318 299.561C330.379 299.881 330.31 300.212 330.126 300.481C328.676 302.631 327.512 304.962 326.663 307.413C326.611 307.549 326.535 307.674 326.439 307.783ZM441.804 168.11C441.659 168.283 441.468 168.413 441.254 168.484C441.04 168.556 440.81 168.566 440.59 168.515C440.37 168.464 440.168 168.352 440.007 168.193C439.846 168.034 439.732 167.834 439.679 167.615C439.464 166.815 439.258 166.012 439.07 165.219C438.62 163.365 438.228 161.474 437.907 159.611C437.872 159.45 437.87 159.284 437.901 159.122C437.932 158.96 437.996 158.807 438.088 158.67C438.18 158.534 438.298 158.417 438.437 158.328C438.575 158.239 438.73 158.178 438.892 158.15C439.054 158.122 439.221 158.127 439.381 158.165C439.542 158.203 439.693 158.273 439.826 158.371C439.958 158.469 440.07 158.592 440.154 158.734C440.238 158.876 440.292 159.033 440.314 159.197C440.63 161.014 440.996 162.835 441.448 164.654C441.634 165.424 441.833 166.21 442.043 166.99C442.094 167.181 442.098 167.383 442.054 167.576C442.01 167.769 441.92 167.949 441.791 168.1L441.804 168.11ZM502.937 93.3929C502.769 93.594 502.541 93.7356 502.286 93.7969C502.031 93.8582 501.763 93.836 501.522 93.7334C499.107 92.6932 496.612 91.8521 494.061 91.2186C493.746 91.1425 493.473 90.9443 493.304 90.6676C493.134 90.391 493.081 90.0585 493.157 89.7434C493.233 89.4283 493.43 89.1563 493.707 88.9874C493.983 88.8184 494.316 88.7663 494.631 88.8424C497.317 89.5042 499.945 90.3847 502.487 91.4751C502.786 91.6019 503.022 91.8419 503.144 92.1424C503.265 92.4428 503.263 92.779 503.137 93.0772C503.083 93.1895 503.011 93.2926 502.925 93.3825L502.937 93.3929ZM439.034 152.17C438.878 152.357 438.67 152.492 438.437 152.56C438.203 152.627 437.955 152.624 437.723 152.549C437.492 152.475 437.287 152.333 437.137 152.143C436.986 151.952 436.895 151.72 436.876 151.478C436.666 148.747 436.597 146.007 436.668 143.268C436.677 142.944 436.814 142.637 437.049 142.414C437.284 142.192 437.598 142.072 437.923 142.081C438.247 142.09 438.554 142.227 438.778 142.462C439.001 142.698 439.122 143.012 439.113 143.336C439.043 145.992 439.11 148.649 439.316 151.298C439.339 151.614 439.238 151.927 439.034 152.17ZM487.257 89.6921C487.138 89.835 486.987 89.9488 486.817 90.0246C486.647 90.1004 486.462 90.1364 486.276 90.1297C483.666 90.036 481.054 90.2277 478.486 90.7013C478.328 90.7315 478.165 90.73 478.007 90.6968C477.849 90.6637 477.699 90.5997 477.566 90.5084C477.433 90.4172 477.319 90.3005 477.231 90.1651C477.143 90.0297 477.082 89.8784 477.053 89.7197C477.024 89.561 477.027 89.3982 477.061 89.2406C477.095 89.083 477.16 88.9337 477.252 88.8015C477.344 88.6692 477.461 88.5566 477.597 88.47C477.733 88.3834 477.885 88.3246 478.044 88.297C480.785 87.792 483.573 87.5874 486.36 87.687C486.588 87.6953 486.81 87.7675 487 87.8954C487.19 88.0234 487.34 88.202 487.434 88.4109C487.527 88.6198 487.56 88.8506 487.529 89.0771C487.498 89.3036 487.404 89.5167 487.257 89.6921ZM439.485 136.024C439.315 136.228 439.082 136.37 438.824 136.43C438.565 136.49 438.293 136.464 438.05 136.356C437.807 136.248 437.606 136.064 437.477 135.831C437.348 135.599 437.298 135.331 437.335 135.068C437.713 132.348 438.257 129.654 438.963 127.001C439.004 126.845 439.077 126.7 439.175 126.573C439.273 126.446 439.395 126.339 439.534 126.259C439.674 126.18 439.828 126.128 439.987 126.108C440.146 126.087 440.308 126.098 440.464 126.141C440.619 126.183 440.764 126.255 440.892 126.353C441.019 126.452 441.126 126.574 441.206 126.713C441.286 126.853 441.338 127.007 441.359 127.166C441.379 127.326 441.368 127.487 441.327 127.643C440.645 130.2 440.121 132.796 439.756 135.418C439.725 135.642 439.631 135.852 439.485 136.024ZM471.441 92.5195C471.31 92.6752 471.142 92.7956 470.952 92.8697C468.512 93.8421 466.163 95.0265 463.93 96.4094C463.655 96.5719 463.327 96.6198 463.016 96.5428C462.705 96.4658 462.437 96.2701 462.268 95.9978C462.1 95.7254 462.045 95.3981 462.115 95.0861C462.186 94.7741 462.376 94.5024 462.644 94.3292C464.999 92.8704 467.477 91.6213 470.05 90.5961C470.303 90.4951 470.583 90.4816 470.845 90.5578C471.107 90.634 471.336 90.7954 471.496 91.0165C471.655 91.2376 471.737 91.5056 471.727 91.7779C471.717 92.0503 471.616 92.3113 471.441 92.5195ZM443.682 120.453C443.494 120.675 443.233 120.822 442.946 120.868C442.659 120.914 442.364 120.857 442.115 120.705C441.867 120.554 441.68 120.319 441.589 120.043C441.498 119.766 441.508 119.467 441.618 119.197C442.304 117.554 443.07 115.93 443.894 114.375C444.349 113.519 444.837 112.66 445.342 111.825C445.423 111.684 445.532 111.56 445.661 111.46C445.791 111.361 445.939 111.289 446.097 111.248C446.255 111.208 446.419 111.199 446.581 111.223C446.742 111.247 446.898 111.302 447.037 111.387C447.177 111.472 447.298 111.584 447.394 111.716C447.49 111.848 447.558 111.998 447.595 112.157C447.632 112.316 447.637 112.481 447.609 112.642C447.582 112.802 447.522 112.956 447.434 113.093C446.951 113.888 446.487 114.705 446.056 115.521C445.263 117.012 444.528 118.567 443.874 120.141C443.827 120.255 443.764 120.361 443.685 120.456L443.682 120.453ZM457.719 100.938C457.682 100.992 457.64 101.042 457.594 101.088C455.605 102.815 453.752 104.693 452.052 106.705C451.845 106.954 451.547 107.11 451.224 107.139C450.901 107.168 450.58 107.067 450.331 106.859C450.081 106.651 449.925 106.353 449.896 106.03C449.866 105.708 449.966 105.387 450.174 105.138C451.954 103.03 453.896 101.063 455.98 99.2541C456.208 99.0221 456.518 98.8901 456.844 98.887C457.169 98.884 457.482 99.0103 457.715 99.238C457.947 99.4658 458.08 99.7763 458.083 100.101C458.087 100.427 457.961 100.74 457.734 100.972L457.719 100.938Z" fill="#87A7CF"/>
</svg>
