<svg width="30" height="30" viewBox="0 0 30 30" fill="none" xmlns="http://www.w3.org/2000/svg">
<g clip-path="url(#clip0_93_148)">
<path d="M7.36133 25.2499C4.83824 25.2499 2.15674 26.0847 2.15674 27.6317C2.15674 29.1788 4.8383 30.0137 7.36133 30.0137C9.88436 30.0137 12.5659 29.1788 12.5659 27.6317C12.5659 26.0847 9.88436 25.2499 7.36133 25.2499Z" fill="#00A7DA"/>
<path d="M7.36155 9.0116C3.30185 9.0116 -0.000976562 12.3144 -0.000976562 16.3741C-0.000976562 18.8947 1.19805 21.6048 3.56284 24.4291C5.3039 26.5085 7.0198 27.8447 7.09206 27.9006C7.16918 27.9604 7.26399 27.9928 7.36155 27.9927C7.45911 27.9928 7.55392 27.9604 7.63105 27.9006C7.70324 27.8447 9.41926 26.5085 11.1603 24.4291C13.5251 21.6048 14.7241 18.8946 14.7241 16.3741C14.7241 12.3144 11.4213 9.0116 7.36155 9.0116ZM10.1225 16.3741C10.1225 17.8989 8.88637 19.135 7.36155 19.135C5.83679 19.135 4.6007 17.8989 4.6007 16.3741C4.6007 14.8494 5.83679 13.6132 7.36155 13.6132C8.88637 13.6132 10.1225 14.8494 10.1225 16.3741Z" fill="#FF4A4A"/>
<path d="M26.9947 12.9353C26.2516 12.6325 25.273 12.4657 24.2393 12.4657C23.2057 12.4657 22.2271 12.6325 21.4839 12.9353C20.6155 13.2892 20.1372 13.8088 20.1372 14.3982C20.1372 14.9877 20.6154 15.5074 21.4839 15.8612C22.227 16.164 23.2056 16.3308 24.2393 16.3308C25.273 16.3308 26.2516 16.164 26.9947 15.8612C27.8631 15.5074 28.3413 14.9877 28.3413 14.3982C28.3413 13.8088 27.8631 13.2892 26.9947 12.9353Z" fill="#00A7DA"/>
<path d="M7.36133 28.9138C5.15577 28.9138 2.82921 28.2759 2.27855 27.0818C2.19932 27.2537 2.15674 27.4371 2.15674 27.6318C2.15674 29.1789 4.8383 30.0137 7.36133 30.0137C9.88436 30.0137 12.5659 29.1788 12.5659 27.6318C12.5659 27.4371 12.5233 27.2537 12.4441 27.0818C11.8935 28.2759 9.56695 28.9138 7.36133 28.9138ZM26.9947 14.7613C26.2517 15.0641 25.2731 15.2309 24.2393 15.2309C23.2057 15.2309 22.2271 15.0641 21.4839 14.7613C20.8982 14.5226 20.4908 14.2083 20.2871 13.8483C20.1889 14.022 20.1373 14.2063 20.1373 14.3982C20.1373 14.9877 20.6155 15.5073 21.484 15.8612C22.2271 16.164 23.2057 16.3308 24.2394 16.3308C25.2731 16.3308 26.2517 16.164 26.9948 15.8612C27.8632 15.5073 28.3414 14.9877 28.3414 14.3982C28.3414 14.2064 28.2898 14.022 28.1915 13.8483C27.9879 14.2083 27.5804 14.5226 26.9947 14.7613Z" fill="#0F4E9F"/>
<path d="M24.2395 -0.0146484C21.0631 -0.0146484 18.479 2.56955 18.479 5.74588C18.479 7.70769 19.4086 9.81256 21.2419 12.0022C22.587 13.6087 23.9143 14.6423 23.9701 14.6855C24.0472 14.7452 24.142 14.7776 24.2396 14.7776C24.3371 14.7776 24.432 14.7452 24.5091 14.6855C24.5649 14.6423 25.8923 13.6087 27.2373 12.0022C29.0706 9.81262 30.0001 7.70775 30.0001 5.74588C30 2.56955 27.4159 -0.0146484 24.2395 -0.0146484ZM26.3615 5.74588C26.3615 6.91781 25.4115 7.86787 24.2395 7.86787C23.0676 7.86787 22.1175 6.91781 22.1175 5.74588C22.1175 4.57395 23.0676 3.62395 24.2395 3.62395C25.4115 3.62395 26.3615 4.57395 26.3615 5.74588Z" fill="#FF4A4A"/>
<path d="M7.36159 9.01158C7.08118 9.01158 6.80459 9.02789 6.53229 9.05856C10.203 9.47192 13.0655 12.5948 13.0655 16.3741C13.0655 18.8947 11.8664 21.6047 9.50164 24.4291C8.34026 25.8161 7.19086 26.8717 6.53223 27.438C6.86101 27.7207 7.06805 27.882 7.09209 27.9006C7.17139 27.962 7.26651 27.9926 7.36159 27.9926C7.45666 27.9926 7.55173 27.962 7.63108 27.9006C7.70328 27.8447 9.41929 26.5084 11.1603 24.429C13.5251 21.6047 14.7241 18.8946 14.7241 16.3741C14.7241 12.3144 11.4213 9.01158 7.36159 9.01158ZM24.2396 -0.0146484C23.9621 -0.0146245 23.6849 0.00540722 23.4102 0.0452911C26.195 0.448563 28.3415 2.85113 28.3415 5.74588C28.3415 7.70769 27.4119 9.81256 25.5787 12.0022C24.752 12.9896 23.9325 13.7599 23.4102 14.2176C23.7377 14.5045 23.9486 14.6688 23.9701 14.6854C24.0472 14.7452 24.142 14.7776 24.2396 14.7775C24.3372 14.7776 24.432 14.7452 24.5091 14.6854C24.5649 14.6422 25.8923 13.6086 27.2373 12.0021C29.0706 9.81256 30.0001 7.70769 30.0001 5.74582C30.0001 2.56955 27.4159 -0.0146484 24.2396 -0.0146484Z" fill="#E7343F"/>
<path d="M14.1917 28.0727C14.0753 28.0727 13.9636 28.0265 13.8811 27.9444C13.7986 27.8622 13.752 27.7508 13.7515 27.6343C13.7512 27.5765 13.7623 27.5192 13.7842 27.4657C13.8061 27.4121 13.8383 27.3634 13.879 27.3224C13.9197 27.2813 13.9681 27.2486 14.0214 27.2263C14.0748 27.2039 14.132 27.1922 14.1898 27.192L14.7714 27.1894H14.7734C14.8899 27.1894 15.0016 27.2355 15.0841 27.3176C15.1666 27.3998 15.2132 27.5113 15.2137 27.6277C15.214 27.6855 15.2029 27.7428 15.181 27.7964C15.1591 27.8499 15.1269 27.8986 15.0862 27.9397C15.0455 27.9807 14.9971 28.0134 14.9437 28.0358C14.8904 28.0581 14.8332 28.0698 14.7754 28.07L14.1938 28.0727H14.1917ZM16.5181 28.0621C16.4016 28.0621 16.29 28.016 16.2074 27.9338C16.1249 27.8517 16.0783 27.7402 16.0778 27.6238C16.0775 27.5659 16.0886 27.5086 16.1105 27.4551C16.1324 27.4016 16.1646 27.3529 16.2053 27.3118C16.246 27.2707 16.2944 27.2381 16.3478 27.2157C16.4011 27.1933 16.4583 27.1817 16.5161 27.1814L17.0977 27.1788H17.0998C17.2162 27.1788 17.3279 27.2249 17.4104 27.3071C17.4929 27.3892 17.5395 27.5007 17.54 27.6171C17.5403 27.675 17.5292 27.7323 17.5073 27.7858C17.4854 27.8393 17.4532 27.888 17.4125 27.9291C17.3718 27.9702 17.3234 28.0028 17.2701 28.0252C17.2167 28.0476 17.1595 28.0592 17.1017 28.0595L16.5201 28.0621H16.5181ZM18.8445 28.0515C18.728 28.0515 18.6163 28.0054 18.5338 27.9232C18.4513 27.8411 18.4047 27.7296 18.4042 27.6132C18.4039 27.5553 18.415 27.498 18.4369 27.4445C18.4588 27.391 18.491 27.3423 18.5317 27.3012C18.5724 27.2601 18.6208 27.2275 18.6742 27.2051C18.7275 27.1827 18.7847 27.1711 18.8425 27.1708L19.424 27.1682H19.4261C19.5425 27.1682 19.6542 27.2143 19.7367 27.2965C19.8192 27.3786 19.8658 27.4901 19.8664 27.6065C19.8666 27.6644 19.8555 27.7217 19.8336 27.7752C19.8117 27.8287 19.7795 27.8774 19.7388 27.9185C19.6981 27.9596 19.6497 27.9922 19.5964 28.0146C19.543 28.037 19.4858 28.0486 19.428 28.0489L18.8465 28.0515H18.8445ZM21.1708 28.0409C21.0544 28.0409 20.9427 27.9948 20.8602 27.9127C20.7777 27.8305 20.7311 27.719 20.7306 27.6026C20.7303 27.5448 20.7414 27.4875 20.7633 27.4339C20.7852 27.3804 20.8174 27.3317 20.8581 27.2906C20.8988 27.2496 20.9472 27.2169 21.0005 27.1945C21.0539 27.1722 21.1111 27.1605 21.1689 27.1603L21.7505 27.1576H21.7525C21.8693 27.1574 21.9814 27.2035 22.0642 27.2859C22.1469 27.3683 22.1936 27.4802 22.1938 27.597C22.1941 27.7138 22.1479 27.8259 22.0655 27.9086C21.9831 27.9914 21.8712 28.038 21.7544 28.0383L21.1729 28.0409H21.1708ZM23.4972 28.0304C23.3807 28.0304 23.269 27.9843 23.1865 27.9022C23.104 27.82 23.0574 27.7085 23.0569 27.5921C23.0566 27.5343 23.0677 27.477 23.0896 27.4234C23.1115 27.3699 23.1437 27.3212 23.1844 27.2801C23.2251 27.2391 23.2735 27.2064 23.3268 27.184C23.3802 27.1617 23.4374 27.15 23.4952 27.1498L24.0768 27.1471H24.0788C24.1953 27.1471 24.307 27.1933 24.3895 27.2754C24.472 27.3576 24.5186 27.469 24.5191 27.5855C24.5194 27.6433 24.5083 27.7006 24.4864 27.7541C24.4645 27.8077 24.4323 27.8564 24.3916 27.8974C24.3509 27.9385 24.3025 27.9712 24.2491 27.9935C24.1958 28.0159 24.1386 28.0276 24.0808 28.0278L23.4992 28.0304H23.4972ZM25.8235 28.0199C25.7071 28.0199 25.5955 27.9738 25.5129 27.8916C25.4304 27.8095 25.3838 27.6981 25.3833 27.5817C25.383 27.5238 25.3941 27.4665 25.4159 27.413C25.4378 27.3594 25.47 27.3107 25.5107 27.2697C25.5514 27.2286 25.5998 27.1959 25.6531 27.1735C25.7064 27.1511 25.7637 27.1395 25.8215 27.1392L25.9039 27.1388C26.0508 27.1382 26.1975 27.1278 26.343 27.1078C26.4578 27.0937 26.5736 27.1253 26.6652 27.1958C26.7569 27.2663 26.8171 27.3701 26.833 27.4846C26.8488 27.5992 26.8189 27.7154 26.7498 27.8081C26.6807 27.9008 26.5779 27.9626 26.4636 27.9802C26.2809 28.0054 26.0939 28.0187 25.9079 28.0195L25.8257 28.0199H25.8235ZM28.0141 27.3565C27.9203 27.3565 27.8289 27.3266 27.7533 27.271C27.6776 27.2155 27.6217 27.1372 27.5937 27.0477C27.5656 26.9581 27.5669 26.862 27.5974 26.7732C27.6278 26.6844 27.6858 26.6077 27.7629 26.5542C27.9036 26.4566 28.0365 26.3483 28.1604 26.2303C28.245 26.1497 28.358 26.106 28.4748 26.1088C28.5916 26.1117 28.7024 26.1607 28.783 26.2453C28.8635 26.3298 28.9072 26.4429 28.9044 26.5597C28.9016 26.6764 28.8525 26.7873 28.768 26.8678C28.6111 27.0173 28.4428 27.1544 28.2647 27.2779C28.1912 27.3291 28.1037 27.3565 28.0141 27.3565ZM29.4067 25.5407C29.3362 25.5407 29.2666 25.5238 29.204 25.4913C29.1414 25.4588 29.0875 25.4117 29.0468 25.3541C29.0062 25.2964 28.9799 25.2298 28.9704 25.1599C28.9608 25.09 28.9682 25.0189 28.9919 24.9524C29.0493 24.7914 29.094 24.6261 29.1256 24.4581C29.1472 24.3434 29.2135 24.2419 29.31 24.176C29.4064 24.1102 29.525 24.0853 29.6398 24.1069C29.7545 24.1285 29.856 24.1949 29.9219 24.2913C29.9877 24.3877 30.0126 24.5064 29.991 24.6211C29.9508 24.8342 29.8941 25.0439 29.8213 25.2482C29.7908 25.3338 29.7346 25.4078 29.6604 25.4602C29.5862 25.5126 29.4976 25.5407 29.4067 25.5407ZM29.478 23.2534C29.3824 23.2533 29.2895 23.2222 29.2132 23.1646C29.1369 23.1071 29.0813 23.0263 29.055 22.9344C29.0078 22.7701 28.9477 22.6098 28.8755 22.4548C28.829 22.3494 28.8256 22.23 28.8661 22.1222C28.9066 22.0143 28.9878 21.9266 29.0922 21.8779C29.1966 21.8292 29.3159 21.8233 29.4246 21.8615C29.5333 21.8998 29.6227 21.9791 29.6736 22.0824C29.7653 22.2792 29.8415 22.4828 29.9015 22.6914C29.9203 22.757 29.9237 22.8261 29.9112 22.8932C29.8988 22.9603 29.871 23.0236 29.8299 23.0781C29.7888 23.1326 29.7357 23.1768 29.6746 23.2072C29.6135 23.2376 29.5462 23.2534 29.478 23.2534ZM28.2009 21.3538C28.1019 21.3539 28.0059 21.3205 27.9283 21.2591C27.794 21.1531 27.6517 21.0577 27.5027 20.9737C27.4523 20.9453 27.408 20.9073 27.3723 20.8618C27.3366 20.8163 27.3103 20.7642 27.2947 20.7085C27.2791 20.6529 27.2747 20.5946 27.2817 20.5372C27.2886 20.4798 27.3068 20.4243 27.3352 20.374C27.3635 20.3236 27.4016 20.2793 27.447 20.2436C27.4925 20.2079 27.5446 20.1815 27.6003 20.166C27.656 20.1504 27.7142 20.146 27.7716 20.1529C27.829 20.1598 27.8845 20.178 27.9349 20.2064C28.1237 20.3128 28.3039 20.4336 28.474 20.5678C28.5657 20.6402 28.6248 20.746 28.6385 20.862C28.6521 20.9779 28.6191 21.0946 28.5467 21.1863C28.5056 21.2386 28.453 21.2808 28.3931 21.3099C28.3332 21.3389 28.2675 21.3539 28.2009 21.3538ZM26.0574 20.5557C26.0508 20.5557 26.0442 20.5556 26.0375 20.5552C25.9881 20.5531 25.9386 20.552 25.889 20.552H25.4755C25.4177 20.552 25.3604 20.5406 25.307 20.5185C25.2536 20.4963 25.205 20.4639 25.1641 20.423C25.1232 20.3821 25.0908 20.3336 25.0687 20.2801C25.0465 20.2267 25.0352 20.1695 25.0352 20.1116C25.0352 20.0538 25.0465 19.9965 25.0687 19.9431C25.0908 19.8897 25.1232 19.8411 25.1641 19.8002C25.205 19.7594 25.2536 19.7269 25.307 19.7048C25.3604 19.6827 25.4177 19.6713 25.4755 19.6713H25.889C25.9512 19.6713 26.0142 19.6726 26.0765 19.6755C26.1343 19.678 26.1909 19.6919 26.2433 19.7164C26.2957 19.7408 26.3428 19.7754 26.3818 19.818C26.4209 19.8607 26.4511 19.9106 26.4708 19.965C26.4906 20.0193 26.4994 20.077 26.4968 20.1348C26.4919 20.248 26.4434 20.355 26.3616 20.4334C26.2797 20.5118 26.1707 20.5556 26.0574 20.5557ZM23.7308 20.552H23.1492C23.0324 20.552 22.9204 20.5056 22.8378 20.4231C22.7552 20.3405 22.7088 20.2285 22.7088 20.1117C22.7088 19.9949 22.7552 19.8829 22.8378 19.8003C22.9204 19.7177 23.0324 19.6713 23.1492 19.6713H23.7308C23.8475 19.6713 23.9595 19.7177 24.0421 19.8003C24.1247 19.8829 24.1711 19.9949 24.1711 20.1117C24.1711 20.2285 24.1247 20.3405 24.0421 20.4231C23.9595 20.5056 23.8475 20.552 23.7308 20.552ZM21.4044 20.552H20.8228C20.706 20.552 20.594 20.5056 20.5114 20.4231C20.4289 20.3405 20.3825 20.2285 20.3825 20.1117C20.3825 19.9949 20.4289 19.8829 20.5114 19.8003C20.594 19.7177 20.706 19.6713 20.8228 19.6713H21.4044C21.5212 19.6713 21.6332 19.7177 21.7157 19.8003C21.7983 19.8829 21.8447 19.9949 21.8447 20.1117C21.8447 20.2285 21.7983 20.3405 21.7157 20.4231C21.6332 20.5056 21.5212 20.552 21.4044 20.552ZM19.0779 20.552H18.4964C18.3796 20.552 18.2676 20.5056 18.185 20.4231C18.1024 20.3405 18.056 20.2285 18.056 20.1117C18.056 19.9949 18.1024 19.8829 18.185 19.8003C18.2676 19.7177 18.3796 19.6713 18.4964 19.6713H19.0779C19.1947 19.6713 19.3067 19.7177 19.3893 19.8003C19.4719 19.8829 19.5183 19.9949 19.5183 20.1117C19.5183 20.2285 19.4719 20.3405 19.3893 20.4231C19.3067 20.5056 19.1947 20.552 19.0779 20.552ZM16.8347 20.114C16.7516 20.1141 16.6703 20.0905 16.6002 20.0461C16.4109 19.9266 16.2342 19.7882 16.0729 19.6331C16.0312 19.593 15.9978 19.5451 15.9747 19.4921C15.9515 19.4392 15.939 19.3821 15.9379 19.3243C15.9368 19.2665 15.947 19.2091 15.9681 19.1552C15.9892 19.1014 16.0207 19.0522 16.0608 19.0105C16.1009 18.9689 16.1488 18.9355 16.2017 18.9123C16.2547 18.8892 16.3118 18.8767 16.3696 18.8756C16.4274 18.8744 16.4848 18.8847 16.5387 18.9058C16.5925 18.9269 16.6417 18.9584 16.6833 18.9985C16.8017 19.1122 16.9312 19.2137 17.07 19.3013C17.1508 19.3522 17.2129 19.428 17.2468 19.5173C17.2808 19.6066 17.2847 19.7045 17.2582 19.7962C17.2316 19.888 17.1759 19.9686 17.0995 20.0259C17.0231 20.0832 16.9302 20.1142 16.8347 20.114ZM15.5549 18.2486C15.4528 18.2485 15.3539 18.2129 15.2752 18.148C15.1964 18.083 15.1426 17.9927 15.1231 17.8925C15.0826 17.6841 15.0623 17.4723 15.0623 17.2599L15.0625 17.2252C15.0657 17.1097 15.1142 17.0001 15.1975 16.92C15.2808 16.8399 15.3922 16.7958 15.5078 16.7971C15.6233 16.7985 15.7337 16.8452 15.8152 16.9271C15.8966 17.0091 15.9425 17.1199 15.9431 17.2354L15.943 17.2599C15.943 17.4161 15.958 17.5723 15.9875 17.724C16 17.7878 15.9982 17.8536 15.9822 17.9166C15.9662 17.9796 15.9364 18.0383 15.8951 18.0885C15.8537 18.1386 15.8018 18.179 15.7429 18.2067C15.6841 18.2344 15.6199 18.2487 15.5549 18.2486ZM16.0361 16.0387C15.9551 16.0386 15.8757 16.0162 15.8067 15.9739C15.7376 15.9317 15.6815 15.8712 15.6446 15.7991C15.6076 15.7271 15.5913 15.6462 15.5973 15.5655C15.6034 15.4848 15.6315 15.4072 15.6787 15.3415C15.8093 15.1597 15.958 14.9916 16.1225 14.8399C16.2084 14.7607 16.3222 14.7189 16.4388 14.7236C16.5555 14.7283 16.6656 14.7791 16.7448 14.865C16.8239 14.9508 16.8658 15.0646 16.8611 15.1813C16.8564 15.298 16.8055 15.408 16.7196 15.4872C16.599 15.5986 16.4899 15.7219 16.3941 15.8552C16.3533 15.9121 16.2996 15.9584 16.2373 15.9903C16.175 16.0222 16.1061 16.0388 16.0361 16.0387ZM17.9746 14.8734C17.863 14.873 17.7558 14.8303 17.6745 14.7539C17.5932 14.6775 17.5439 14.5731 17.5366 14.4618C17.5293 14.3505 17.5645 14.2406 17.6351 14.1542C17.7057 14.0678 17.8065 14.0115 17.917 13.9965C18.062 13.9773 18.2082 13.9677 18.3544 13.9677H18.5555C18.7987 13.9677 18.9958 14.1648 18.9958 14.408C18.9958 14.6512 18.7987 14.8483 18.5555 14.8483H18.3544C18.2468 14.8483 18.1387 14.8554 18.0332 14.8694C18.0137 14.8721 17.9942 14.8735 17.9746 14.8734Z" fill="#1EA4E9"/>
</g>
<defs>
<clipPath id="clip0_93_148">
<rect width="30" height="30" fill="white"/>
</clipPath>
</defs>
</svg>
