<svg width="30" height="30" viewBox="0 0 30 30" fill="none" xmlns="http://www.w3.org/2000/svg">
<g clip-path="url(#clip0_93_164)">
<path d="M7.63504 4.43752C5.99476 4.22856 4.69899 2.97206 4.48489 1.38133C4.46969 1.26922 4.41435 1.16642 4.32912 1.09201C4.2439 1.0176 4.13458 0.976628 4.02145 0.976685C3.90831 0.976742 3.79903 1.01783 3.71389 1.09232C3.62874 1.16682 3.5735 1.26967 3.55841 1.3818C3.34432 2.97206 2.04901 4.22856 0.40873 4.43752C0.296494 4.45267 0.193562 4.50801 0.119028 4.59329C0.0444945 4.67856 0.00341797 4.78797 0.00341797 4.90122C0.00341797 5.01448 0.0444945 5.12389 0.119028 5.20916C0.193562 5.29444 0.296494 5.34978 0.40873 5.36494C2.04901 5.57435 3.34432 6.83086 3.55841 8.42112C3.57355 8.53324 3.62885 8.63606 3.71403 8.71052C3.79922 8.78497 3.90851 8.826 4.02165 8.826C4.13479 8.826 4.24408 8.78497 4.32927 8.71052C4.41446 8.63606 4.46975 8.53324 4.48489 8.42112C4.69899 6.83086 5.99429 5.57435 7.63504 5.36494C7.74788 5.35058 7.85162 5.29556 7.92681 5.2102C8.002 5.12483 8.04348 5.01498 8.04348 4.90122C8.04348 4.78747 8.002 4.67762 7.92681 4.59225C7.85162 4.50689 7.74788 4.45188 7.63504 4.43752ZM10.4411 8.49358C10.0779 8.44572 9.74059 8.27938 9.48147 8.02035C9.22236 7.76133 9.05592 7.42407 9.00794 7.06084C8.99358 6.948 8.93856 6.84426 8.8532 6.76907C8.76784 6.69388 8.65798 6.6524 8.54423 6.6524C8.43047 6.6524 8.32062 6.69388 8.23526 6.76907C8.14989 6.84426 8.09488 6.948 8.08052 7.06084C8.03254 7.42407 7.86609 7.76133 7.60698 8.02035C7.34787 8.27938 7.01056 8.44572 6.64732 8.49358C6.53447 8.50794 6.43073 8.56295 6.35555 8.64832C6.28036 8.73368 6.23888 8.84353 6.23888 8.95729C6.23888 9.07104 6.28036 9.18089 6.35555 9.26626C6.43073 9.35162 6.53447 9.40664 6.64732 9.421C7.0106 9.46896 7.34792 9.63538 7.60703 9.89449C7.86613 10.1536 8.03256 10.4909 8.08052 10.8542C8.09488 10.967 8.14989 11.0708 8.23526 11.146C8.32062 11.2212 8.43047 11.2626 8.54423 11.2626C8.65798 11.2626 8.76784 11.2212 8.8532 11.146C8.93856 11.0708 8.99358 10.967 9.00794 10.8542C9.0559 10.4909 9.22232 10.1536 9.48143 9.89449C9.74054 9.63538 10.0779 9.46896 10.4411 9.421C10.554 9.40664 10.6577 9.35162 10.7329 9.26626C10.8081 9.18089 10.8496 9.07104 10.8496 8.95729C10.8496 8.84353 10.8081 8.73368 10.7329 8.64832C10.6577 8.56295 10.554 8.50794 10.4411 8.49358Z" fill="white"/>
<path d="M22.0754 2.85944C19.3385 2.70892 16.7563 3.84763 15.0548 5.92264C13.3537 3.84763 10.7678 2.71079 8.03412 2.85944C7.07024 2.9118 6.12693 3.13851 5.23036 3.53351C5.1577 3.56557 5.0944 3.61562 5.04644 3.67893C4.99849 3.74225 4.96746 3.81674 4.95628 3.89537C4.9451 3.974 4.95414 4.05419 4.98255 4.12836C5.01095 4.20253 5.05779 4.26824 5.11864 4.31929C5.38953 4.54662 5.68565 4.74205 6.00119 4.90173C5.15497 5.32799 4.46278 6.0076 4.02107 6.84586C3.77286 6.37363 3.44287 5.94915 3.04643 5.59215C3.00043 5.55074 2.94665 5.51887 2.88823 5.49841C2.82981 5.47794 2.7679 5.46928 2.7061 5.47294C2.64431 5.47659 2.58385 5.49248 2.52825 5.51969C2.47264 5.54689 2.423 5.58487 2.38219 5.63142C0.920005 7.29928 0.113186 9.48508 0.110849 11.7868C0.0972932 24.1686 14.7668 28.9553 14.915 29.002C15.0069 29.0311 15.1055 29.0311 15.1973 29.002C15.3455 28.9548 30.015 24.1686 30.001 11.7868C29.9949 6.94215 26.5881 3.10439 22.0754 2.85944Z" fill="#FF4A4A"/>
<path d="M26.4696 9.38172C26.3844 9.38182 26.3007 9.35862 26.2277 9.31462C26.1547 9.27063 26.0951 9.20751 26.0554 9.1321C25.1018 7.32213 23.4485 6.22362 21.5184 6.11751C21.4571 6.11411 21.397 6.09866 21.3417 6.07206C21.2864 6.04546 21.2368 6.00822 21.1959 5.96247C21.155 5.91671 21.1235 5.86335 21.1031 5.80542C21.0828 5.74748 21.0741 5.68612 21.0776 5.62482C21.0805 5.56338 21.0957 5.50314 21.1222 5.44761C21.1486 5.39208 21.1858 5.34237 21.2317 5.30135C21.2775 5.26034 21.3311 5.22884 21.3892 5.2087C21.4473 5.18855 21.5089 5.18017 21.5702 5.18402C23.8028 5.30696 25.789 6.62002 26.8828 8.69643C26.9203 8.76765 26.9388 8.84734 26.9365 8.92779C26.9341 9.00824 26.9111 9.08673 26.8695 9.15565C26.828 9.22457 26.7693 9.2816 26.6992 9.3212C26.6292 9.36081 26.5501 9.38165 26.4696 9.38172ZM27.2563 12.1093C27.139 12.1092 27.026 12.065 26.9398 11.9856C26.8536 11.9061 26.8003 11.7971 26.7907 11.6802C26.7626 11.3364 26.7082 10.9952 26.6281 10.6597C26.6011 10.5398 26.6225 10.4142 26.6875 10.3099C26.7525 10.2057 26.8559 10.1312 26.9754 10.1026C27.0949 10.0741 27.2209 10.0937 27.326 10.1573C27.4312 10.2208 27.507 10.3233 27.5372 10.4424C27.6279 10.8229 27.6906 11.2132 27.7224 11.604C27.7276 11.6683 27.7194 11.7331 27.6984 11.7942C27.6773 11.8552 27.6438 11.9113 27.6001 11.9588C27.5563 12.0062 27.5031 12.0441 27.444 12.07C27.3848 12.0959 27.3209 12.1093 27.2563 12.1093ZM13.1043 25.6924C13.0475 25.6925 12.9913 25.682 12.9383 25.6616C12.7149 25.5765 7.44157 23.5272 4.78038 18.9757C4.71988 18.8688 4.70387 18.7424 4.73582 18.6238C4.76776 18.5052 4.84509 18.404 4.95109 18.3419C5.05709 18.2799 5.18324 18.2621 5.30227 18.2923C5.42131 18.3226 5.52366 18.3984 5.5872 18.5035C8.07871 22.7653 13.2197 24.7683 13.2711 24.7879C13.373 24.8272 13.4579 24.9008 13.5112 24.996C13.5645 25.0912 13.5828 25.2021 13.563 25.3094C13.5432 25.4167 13.4865 25.5138 13.4027 25.5837C13.319 25.6536 13.2134 25.6921 13.1043 25.6924Z" fill="#E7343F"/>
<path d="M8.04359 4.90122C8.04359 4.6661 7.8683 4.46743 7.63504 4.43752C5.99476 4.22856 4.69899 2.97206 4.48489 1.38133C4.46969 1.26922 4.41435 1.16642 4.32912 1.09201C4.2439 1.0176 4.13458 0.976628 4.02145 0.976685C3.90831 0.976742 3.79903 1.01783 3.71389 1.09232C3.62874 1.16682 3.5735 1.26967 3.55841 1.3818C3.34432 2.97206 2.04901 4.22856 0.40873 4.43752C0.296494 4.45267 0.193562 4.50801 0.119028 4.59329C0.0444945 4.67856 0.00341797 4.78797 0.00341797 4.90122C0.00341797 5.01448 0.0444945 5.12389 0.119028 5.20916C0.193562 5.29444 0.296494 5.34978 0.40873 5.36494C2.04901 5.57435 3.34432 6.83086 3.55841 8.42112C3.57355 8.53324 3.62885 8.63606 3.71403 8.71052C3.79922 8.78497 3.90851 8.826 4.02165 8.826C4.13479 8.826 4.24408 8.78497 4.32927 8.71052C4.41446 8.63606 4.46975 8.53324 4.48489 8.42112C4.69899 6.83086 5.99429 5.57435 7.63504 5.36494C7.74794 5.3507 7.85176 5.29572 7.92699 5.21033C8.00222 5.12494 8.04369 5.01503 8.04359 4.90122ZM10.4411 8.49358C10.0779 8.44572 9.74059 8.27938 9.48147 8.02035C9.22236 7.76133 9.05592 7.42407 9.00794 7.06084C8.99358 6.948 8.93856 6.84426 8.8532 6.76907C8.76784 6.69388 8.65798 6.6524 8.54423 6.6524C8.43047 6.6524 8.32062 6.69388 8.23526 6.76907C8.14989 6.84426 8.09488 6.948 8.08052 7.06084C8.03254 7.42407 7.86609 7.76133 7.60698 8.02035C7.34787 8.27938 7.01056 8.44572 6.64732 8.49358C6.53447 8.50794 6.43073 8.56295 6.35555 8.64832C6.28036 8.73368 6.23888 8.84353 6.23888 8.95729C6.23888 9.07104 6.28036 9.18089 6.35555 9.26626C6.43073 9.35162 6.53447 9.40664 6.64732 9.421C7.0106 9.46896 7.34792 9.63538 7.60703 9.89449C7.86613 10.1536 8.03256 10.4909 8.08052 10.8542C8.09488 10.967 8.14989 11.0708 8.23526 11.146C8.32062 11.2212 8.43047 11.2626 8.54423 11.2626C8.65798 11.2626 8.76784 11.2212 8.8532 11.146C8.93856 11.0708 8.99358 10.967 9.00794 10.8542C9.0559 10.4909 9.22232 10.1536 9.48143 9.89449C9.74054 9.63538 10.0779 9.46896 10.4411 9.421C10.554 9.40664 10.6577 9.35162 10.7329 9.26626C10.8081 9.18089 10.8496 9.07104 10.8496 8.95729C10.8496 8.84353 10.8081 8.73368 10.7329 8.64832C10.6577 8.56295 10.554 8.50794 10.4411 8.49358Z" fill="#FFD92D"/>
</g>
<defs>
<clipPath id="clip0_93_164">
<rect width="30" height="30" fill="white"/>
</clipPath>
</defs>
</svg>
