<svg width="276" height="276" viewBox="0 0 276 276" fill="none" xmlns="http://www.w3.org/2000/svg">
<g clip-path="url(#clip0_93_483)">
<path d="M258.901 136.963L166.068 112.729L167.133 108.593L273.317 135.919C273.319 135.92 273.321 135.92 273.323 135.921C273.775 136.045 274.174 136.314 274.459 136.687L275.302 136.042L274.459 136.687C274.745 137.061 274.9 137.518 274.9 137.989C274.9 138.46 274.745 138.918 274.459 139.292L275.252 139.899L274.459 139.292C274.174 139.665 273.775 139.934 273.323 140.058C273.321 140.058 273.319 140.059 273.317 140.06L167.216 167.376L166.145 163.238L258.901 139.016L262.833 137.989L258.901 136.963Z" fill="white" fill-opacity="0.2" stroke="#00A7DA" stroke-width="2.12197"/>
<path d="M17.8983 136.953L14.006 137.978L17.8977 139.005L110.069 163.332L108.999 167.44L2.67218 140.049C2.67016 140.048 2.66813 140.048 2.66611 140.047C2.21416 139.923 1.81528 139.654 1.53053 139.282C1.24452 138.908 1.08955 138.45 1.08955 137.979C1.08955 137.508 1.24452 137.05 1.53053 136.676C1.81526 136.304 2.2141 136.035 2.666 135.91C2.66806 135.91 2.67012 135.909 2.67218 135.909L108.952 108.55L110.018 112.699L17.8983 136.953Z" fill="white" fill-opacity="0.2" stroke="#00A7DA" stroke-width="2.12197"/>
<path d="M163.384 166.295L109.771 112.682L112.79 109.663L166.403 163.277L163.384 166.295Z" fill="white" fill-opacity="0.2" stroke="#00A7DA" stroke-width="2.12197"/>
<path d="M112.88 166.212L109.862 163.194L163.301 109.754L166.32 112.773L112.88 166.212Z" fill="white" fill-opacity="0.2" stroke="#00A7DA" stroke-width="2.12197"/>
<path d="M139.02 19.497L137.996 15.6698L136.97 19.4966L112.736 109.923L108.593 108.856L135.921 2.66524C135.921 2.66414 135.922 2.66305 135.922 2.66195C136.044 2.20578 136.312 1.80244 136.686 1.51447C137.061 1.22581 137.521 1.06929 137.995 1.06929C138.468 1.06929 138.928 1.22581 139.303 1.51447C139.677 1.80239 139.946 2.20564 140.068 2.66169C140.068 2.66288 140.068 2.66406 140.068 2.66524L167.386 108.782L163.201 109.858L139.02 19.497Z" fill="white" fill-opacity="0.2" stroke="#00A7DA" stroke-width="2.12197"/>
<path d="M167.534 167.004L140.045 273.33L140.045 273.33C139.927 273.788 139.661 274.193 139.289 274.484C138.918 274.774 138.462 274.934 137.991 274.939C137.518 274.937 137.059 274.779 136.685 274.489C136.309 274.197 136.041 273.79 135.923 273.33C135.923 273.33 135.923 273.33 135.923 273.33L108.561 167.047L112.709 165.982L136.968 258.368L137.993 262.268L139.021 258.369L163.386 165.939L167.534 167.004Z" fill="white" fill-opacity="0.2" stroke="#00A7DA" stroke-width="2.12197"/>
<path d="M137.995 222.742C137.426 222.742 136.88 222.516 136.478 222.114C136.076 221.712 135.85 221.166 135.85 220.597V51.2991C135.85 50.7301 136.076 50.1845 136.478 49.7822C136.88 49.3799 137.426 49.1539 137.995 49.1539C138.564 49.1539 139.109 49.3799 139.512 49.7822C139.914 50.1845 140.14 50.7301 140.14 51.2991V220.606C140.138 221.173 139.911 221.716 139.509 222.116C139.107 222.517 138.562 222.742 137.995 222.742Z" fill="white" fill-opacity="0.2" stroke="#00A7DA" stroke-width="2.12197"/>
<path d="M222.681 138.066H53.319C52.75 138.066 52.2044 137.84 51.8021 137.438C51.3998 137.036 51.1738 136.49 51.1738 135.921C51.1738 135.352 51.3998 134.806 51.8021 134.404C52.2044 134.002 52.75 133.776 53.319 133.776H222.681C223.25 133.776 223.796 134.002 224.198 134.404C224.6 134.806 224.826 135.352 224.826 135.921C224.826 136.49 224.6 137.036 224.198 137.438C223.796 137.84 223.25 138.066 222.681 138.066Z" fill="white" fill-opacity="0.2" stroke="#00A7DA" stroke-width="2.12197"/>
<path d="M207.909 153.695L207.917 153.66L207.922 153.625C207.968 153.335 208.073 153.058 208.231 152.81C208.388 152.563 208.595 152.35 208.838 152.185C209.081 152.021 209.355 151.908 209.643 151.853C209.931 151.799 210.228 151.804 210.514 151.869C210.8 151.933 211.07 152.056 211.307 152.229C211.544 152.403 211.743 152.623 211.891 152.876C212.04 153.129 212.135 153.41 212.171 153.701C212.206 153.992 212.182 154.288 212.098 154.569L212.089 154.601L212.081 154.634C208.89 168.636 201.806 181.451 191.645 191.6C181.486 201.748 168.664 208.818 154.66 211.995C154.51 212.028 154.356 212.044 154.202 212.044C153.687 212.028 153.195 211.828 152.815 211.479C152.433 211.128 152.191 210.65 152.134 210.134C152.078 209.618 152.21 209.099 152.507 208.674C152.801 208.25 153.239 207.948 153.738 207.821C166.949 204.822 179.044 198.151 188.628 188.577C198.215 179 204.899 166.907 207.909 153.695Z" fill="white" fill-opacity="0.2" stroke="#00A7DA" stroke-width="2.12197"/>
<path d="M210.053 123.981L210.051 123.981C209.565 123.98 209.093 123.814 208.714 123.51C208.335 123.206 208.07 122.782 207.963 122.309C204.993 109.03 198.313 96.8686 188.699 87.2397C179.095 77.6202 166.958 70.9239 153.7 67.9286C153.194 67.7683 152.765 67.4259 152.496 66.9669C152.222 66.4984 152.135 65.9434 152.254 65.4138C152.373 64.8842 152.688 64.4192 153.136 64.1128C153.575 63.8127 154.109 63.6864 154.634 63.7574C168.684 66.9343 181.545 74.0327 191.722 84.2281C201.908 94.4324 208.986 107.319 212.133 121.39C212.251 121.941 212.148 122.517 211.844 122.993C211.541 123.469 211.062 123.806 210.511 123.932C210.361 123.965 210.207 123.981 210.053 123.981Z" fill="white" fill-opacity="0.2" stroke="#00A7DA" stroke-width="2.12197"/>
<path d="M65.9243 123.981L65.9203 123.981C65.7691 123.982 65.6184 123.966 65.471 123.933L65.4656 123.931C64.9113 123.808 64.4285 123.47 64.1229 122.992C63.8177 122.514 63.7141 121.935 63.8347 121.381C66.9892 107.313 74.0731 94.4289 84.2624 84.2284C94.4524 74.0272 107.329 66.9289 121.395 63.7593L121.443 63.7485L121.49 63.7334C121.774 63.6411 122.074 63.6092 122.372 63.6397C122.669 63.6703 122.956 63.7625 123.216 63.9107C123.475 64.0588 123.701 64.2595 123.879 64.4999C124.056 64.7404 124.181 65.0152 124.246 65.3068C124.311 65.5985 124.315 65.9005 124.256 66.1935L125.297 66.4011L124.256 66.1935C124.198 66.4865 124.079 66.7641 123.907 67.0084C123.735 67.2528 123.514 67.4585 123.257 67.6124C123.001 67.7663 122.716 67.865 122.419 67.9022L122.368 67.9086L122.318 67.92C109.045 70.9139 96.8938 77.6147 87.2789 87.243C77.6642 96.8711 70.9804 109.031 68.005 122.308C67.8982 122.781 67.6345 123.204 67.2568 123.508C66.8789 123.811 66.4092 123.978 65.9243 123.981Z" fill="white" fill-opacity="0.2" stroke="#00A7DA" stroke-width="2.12197"/>
<path d="M63.9294 154.624L63.9191 154.578L63.9048 154.534C63.8134 154.25 63.7821 153.951 63.813 153.654C63.8438 153.358 63.9361 153.071 64.084 152.812C64.2319 152.553 64.4321 152.328 64.6718 152.151C64.9115 151.974 65.1855 151.848 65.4764 151.783C65.7672 151.718 66.0685 151.714 66.3609 151.771C66.6534 151.829 66.9307 151.947 67.1751 152.117C67.4194 152.288 67.6256 152.508 67.7803 152.763C67.935 153.017 68.0349 153.302 68.0737 153.597L68.0801 153.647L68.0912 153.695C71.105 166.916 77.7968 179.015 87.3939 188.595C96.988 198.172 109.094 204.84 122.316 207.832C122.815 207.959 123.252 208.261 123.547 208.684C123.844 209.11 123.976 209.629 123.919 210.145C123.862 210.661 123.621 211.139 123.238 211.49C122.859 211.839 122.367 212.039 121.853 212.055H121.846C121.683 212.051 121.521 212.034 121.36 212.003C107.355 208.825 94.5332 201.754 84.3725 191.604C74.2082 181.451 67.1213 168.631 63.9294 154.624Z" fill="white" fill-opacity="0.2" stroke="#00A7DA" stroke-width="2.12197"/>
<path d="M109.003 111.873L109.002 111.873L66.4556 69.3371C66.1197 68.9309 65.9448 68.4148 65.9652 67.8872C65.986 67.3473 66.2098 66.8352 66.5919 66.4531C66.9739 66.0711 67.4861 65.8472 68.026 65.8264C68.5536 65.806 69.0698 65.9809 69.476 66.3169L112.02 108.85C112.02 108.851 112.021 108.851 112.021 108.852C112.42 109.253 112.644 109.797 112.644 110.363C112.644 110.929 112.42 111.473 112.021 111.875C111.621 112.274 111.08 112.5 110.516 112.503C109.948 112.501 109.404 112.275 109.003 111.873Z" fill="white" fill-opacity="0.2" stroke="#00A7DA" stroke-width="2.12197"/>
<path d="M206.182 209.053L206.182 209.052L163.642 166.512C163.318 166.106 163.153 165.596 163.177 165.076C163.202 164.541 163.426 164.035 163.805 163.657C164.184 163.279 164.69 163.057 165.225 163.033C165.745 163.01 166.255 163.177 166.661 163.502L209.2 206.03C209.2 206.03 209.201 206.031 209.201 206.031C209.6 206.433 209.824 206.976 209.824 207.542C209.824 208.109 209.6 208.652 209.2 209.054C208.801 209.453 208.26 209.679 207.695 209.682C207.128 209.681 206.584 209.455 206.182 209.053Z" fill="white" fill-opacity="0.2" stroke="#00A7DA" stroke-width="2.12197"/>
<path d="M166.624 111.873L166.623 111.873C166.224 112.273 165.682 112.5 165.117 112.503C164.55 112.501 164.006 112.275 163.605 111.874C163.206 111.472 162.982 110.929 162.982 110.363C162.982 109.796 163.206 109.253 163.605 108.851C163.605 108.851 163.605 108.851 163.606 108.85L206.15 66.3169C206.556 65.9809 207.072 65.806 207.6 65.8264C208.14 65.8472 208.652 66.0711 209.034 66.4531C209.416 66.8351 209.64 67.3473 209.661 67.8872C209.681 68.4148 209.506 68.9309 209.17 69.3371L166.624 111.873Z" fill="white" fill-opacity="0.2" stroke="#00A7DA" stroke-width="2.12197"/>
<path d="M69.4441 209.052L69.4436 209.053C69.044 209.453 68.5027 209.679 67.9373 209.682C67.37 209.681 66.8263 209.455 66.4251 209.054C66.0261 208.652 65.8022 208.109 65.8022 207.542C65.8022 206.976 66.0261 206.433 66.425 206.031C66.4253 206.031 66.4257 206.03 66.426 206.03L108.965 163.502C109.371 163.177 109.881 163.01 110.401 163.033C110.936 163.057 111.442 163.279 111.821 163.657C112.2 164.035 112.424 164.541 112.449 165.076C112.473 165.596 112.308 166.106 111.984 166.512L69.4441 209.052Z" fill="white" fill-opacity="0.2" stroke="#00A7DA" stroke-width="2.12197"/>
</g>
<defs>
<clipPath id="clip0_93_483">
<rect width="276" height="276" fill="white"/>
</clipPath>
</defs>
</svg>
