<svg width="80" height="80" viewBox="0 0 80 80" fill="none" xmlns="http://www.w3.org/2000/svg">
<g clip-path="url(#clip0_93_220)">
<path d="M32.5684 29.7164C27.9143 32.5828 24.811 37.7243 24.811 43.5913V51.2471H41.0952L42.7029 42.7549L41.0952 32.7465C37.0163 32.7465 32.9373 31.7366 32.5684 29.7164Z" fill="#00DDC0"/>
<path d="M57.3794 43.5913C57.3794 37.7243 54.2761 32.5828 49.6221 29.7164C49.2531 31.7366 45.1742 32.7467 41.0952 32.7467V51.2471H57.3794V43.5913Z" fill="#00B5BD"/>
<path d="M32.4243 13.5608V18.6364C32.4243 23.4252 36.3063 27.3071 41.095 27.3071L42.5202 15.7346L41.095 4.89008C36.3063 4.89008 32.4243 8.77203 32.4243 13.5608Z" fill="#FFE0D3"/>
<path d="M49.7659 18.6364V13.5608C49.7659 8.77203 45.884 4.89008 41.0952 4.89008V27.3071C45.884 27.3071 49.7659 23.4252 49.7659 18.6364Z" fill="#FFD1C3"/>
<path d="M32.5684 29.7164C33.3063 33.7567 36.8417 36.8202 41.0952 36.8202L43.0681 31.8008L41.0952 27.3071C37.9687 27.3071 35.0486 28.1889 32.5684 29.7164Z" fill="#FFE0D3"/>
<path d="M41.0952 27.3071V36.82C45.3485 36.82 48.8841 33.7565 49.6221 29.7162C47.1419 28.1889 44.2217 27.3071 41.0952 27.3071Z" fill="#FFD1C3"/>
<path d="M12.6309 54.2537C7.97684 57.12 4.87354 62.2615 4.87354 68.1286V75.7844H21.1576L22.7653 67.2922L21.1576 57.284C17.0788 57.284 12.9998 56.2738 12.6309 54.2537Z" fill="#00A7DA"/>
<path d="M37.4419 68.1286C37.4419 62.2615 34.3386 57.12 29.6846 54.2537C29.3156 56.2738 25.2367 57.284 21.1577 57.284V75.7844H37.4419V68.1286Z" fill="#0F4E9F"/>
<path d="M12.4868 38.098V43.1736C12.4868 47.9624 16.3688 51.8444 21.1575 51.8444L22.5827 40.2721L21.1575 29.4275C16.369 29.4273 12.4868 33.3094 12.4868 38.098Z" fill="#FFE0D3"/>
<path d="M29.8284 43.1736V38.098C29.8284 33.3092 25.9465 29.4272 21.1577 29.4272V51.8443C25.9463 51.8445 29.8284 47.9623 29.8284 43.1736Z" fill="#FFD1C3"/>
<path d="M12.6309 54.2537C13.3688 58.2939 16.9042 61.3574 21.1577 61.3574L23.1304 56.3381L21.1575 51.8445C18.0311 51.8445 15.1109 52.7263 12.6309 54.2537Z" fill="#FFE0D3"/>
<path d="M21.1577 51.8445V61.3574C25.411 61.3574 28.9466 58.2939 29.6846 54.2537C27.2046 52.7263 24.2844 51.8445 21.1577 51.8445Z" fill="#FFD1C3"/>
<path d="M51.1895 54.2537C46.5354 57.12 43.4321 62.2615 43.4321 68.1286V75.7844H59.7162L61.3238 67.2922L59.7162 57.284C55.6372 57.284 51.5584 56.2738 51.1895 54.2537Z" fill="#FF4A4A"/>
<path d="M76 68.1286C76 62.2615 72.8967 57.12 68.2427 54.2537C67.8737 56.2738 63.7948 57.284 59.7158 57.284V75.7844H76V68.1286Z" fill="#E7343F"/>
<path d="M51.0454 38.098V43.1736C51.0454 47.9623 54.9274 51.8443 59.7161 51.8443L61.1413 40.2718L59.7161 29.4272C54.9275 29.4272 51.0454 33.3094 51.0454 38.098Z" fill="#FFE0D3"/>
<path d="M68.387 43.1736V38.098C68.387 33.3092 64.5051 29.4272 59.7163 29.4272V51.8443C64.5049 51.8445 68.387 47.9623 68.387 43.1736Z" fill="#FFD1C3"/>
<path d="M51.1895 54.2537C51.9274 58.2939 55.4628 61.3574 59.7163 61.3574L61.6892 56.3381L59.7163 51.8445C56.5896 51.8445 53.6695 52.7263 51.1895 54.2537Z" fill="#FFE0D3"/>
<path d="M59.7158 51.8445V61.3574C63.9691 61.3574 67.5047 58.2939 68.2427 54.2537C65.7627 52.7263 62.8423 51.8445 59.7158 51.8445Z" fill="#FFD1C3"/>
</g>
<defs>
<clipPath id="clip0_93_220">
<rect width="80" height="80" fill="white"/>
</clipPath>
</defs>
</svg>
