<?xml version="1.0" encoding="utf-8"?>
<svg xmlns="http://www.w3.org/2000/svg" xmlns:xlink="http://www.w3.org/1999/xlink">

<symbol viewBox="0 0 429 232" id="services-path" xmlns="http://www.w3.org/2000/svg">
<path id="path-1" d="M275.187 129.817C274.542 130.089 273.879 130.335 273.213 130.554C272.926 130.648 272.613 130.624 272.344 130.487C272.075 130.35 271.871 130.112 271.778 129.825C271.684 129.538 271.708 129.226 271.845 128.957C271.982 128.688 272.22 128.484 272.507 128.39C274.776 127.657 276.912 126.558 278.828 125.139C279.069 124.958 279.371 124.88 279.669 124.922C279.967 124.965 280.236 125.124 280.417 125.364C280.597 125.605 280.675 125.907 280.633 126.205C280.59 126.503 280.431 126.772 280.191 126.952C278.646 128.108 276.966 129.07 275.187 129.817ZM265.918 131.767C265.786 131.822 265.646 131.852 265.504 131.855C262.875 131.918 260.254 131.568 257.734 130.82C257.585 130.782 257.446 130.714 257.325 130.621C257.204 130.528 257.102 130.411 257.027 130.278C256.952 130.145 256.904 129.998 256.888 129.846C256.871 129.694 256.885 129.54 256.929 129.394C256.973 129.247 257.046 129.111 257.144 128.994C257.242 128.877 257.363 128.78 257.499 128.711C257.635 128.641 257.784 128.6 257.937 128.589C258.089 128.579 258.242 128.599 258.387 128.649C260.68 129.327 263.065 129.643 265.455 129.587C265.719 129.581 265.977 129.668 266.184 129.832C266.391 129.996 266.535 130.227 266.59 130.485C266.644 130.744 266.607 131.013 266.485 131.247C266.362 131.481 266.161 131.665 265.918 131.767ZM285.011 121.584C284.788 121.678 284.542 121.699 284.307 121.643C284.072 121.587 283.861 121.457 283.705 121.273C283.549 121.089 283.455 120.86 283.438 120.619C283.421 120.378 283.482 120.138 283.611 119.934C284.882 117.908 285.83 115.696 286.421 113.378C286.496 113.087 286.684 112.838 286.943 112.685C287.203 112.532 287.512 112.489 287.803 112.564C288.094 112.64 288.344 112.828 288.496 113.087C288.649 113.346 288.692 113.655 288.617 113.947C287.966 116.491 286.925 118.919 285.531 121.144C285.404 121.345 285.217 121.5 284.995 121.587L285.011 121.584ZM251.866 127.375C251.679 127.454 251.474 127.481 251.273 127.454C251.072 127.427 250.882 127.346 250.722 127.221C248.891 125.783 247.348 124.013 246.175 122.002C246.001 121.706 245.833 121.404 245.677 121.1C245.538 120.832 245.511 120.52 245.602 120.233C245.693 119.945 245.895 119.705 246.163 119.567C246.431 119.428 246.743 119.401 247.031 119.492C247.318 119.583 247.558 119.785 247.697 120.053C247.84 120.325 247.985 120.592 248.141 120.855C249.167 122.62 250.517 124.175 252.121 125.438C252.238 125.53 252.336 125.645 252.409 125.775C252.482 125.905 252.528 126.048 252.546 126.197C252.563 126.345 252.551 126.495 252.51 126.638C252.47 126.782 252.401 126.916 252.309 127.033C252.185 127.182 252.026 127.297 251.846 127.367L251.866 127.375ZM288.819 107.266C288.685 107.322 288.543 107.352 288.398 107.357C288.249 107.359 288.101 107.332 287.962 107.277C287.823 107.222 287.697 107.14 287.59 107.037C287.483 106.933 287.397 106.809 287.338 106.672C287.279 106.535 287.248 106.387 287.246 106.238C287.208 103.82 286.883 101.415 286.281 99.0729C286.237 98.9265 286.222 98.7727 286.239 98.6208C286.256 98.4689 286.304 98.322 286.379 98.1888C286.454 98.0557 286.555 97.9392 286.677 97.8462C286.798 97.7532 286.937 97.6856 287.085 97.6476C287.233 97.6097 287.387 97.602 287.538 97.6251C287.689 97.6482 287.834 97.7017 287.964 97.7822C288.094 97.8627 288.206 97.9686 288.294 98.0937C288.382 98.2187 288.444 98.3602 288.476 98.5097C289.125 101.023 289.476 103.604 289.522 106.199C289.525 106.429 289.458 106.654 289.33 106.846C289.201 107.037 289.018 107.184 288.804 107.268L288.819 107.266ZM122.769 167.529C122.493 167.649 122.181 167.654 121.901 167.544C121.621 167.434 121.397 167.217 121.277 166.941C121.157 166.665 121.151 166.353 121.262 166.073C121.372 165.793 121.589 165.568 121.865 165.448C124.02 164.479 126.256 163.37 128.517 162.144C128.783 162 129.095 161.967 129.384 162.053C129.674 162.139 129.918 162.337 130.062 162.603C130.206 162.868 130.238 163.181 130.152 163.47C130.066 163.76 129.868 164.004 129.602 164.148C127.296 165.402 125.006 166.538 122.798 167.529L122.769 167.529ZM115.782 170.281L115.705 170.314C113.296 171.13 110.841 171.805 108.354 172.338C108.206 172.374 108.053 172.379 107.904 172.355C107.754 172.331 107.611 172.276 107.482 172.196C107.354 172.115 107.243 172.009 107.156 171.884C107.069 171.76 107.008 171.619 106.977 171.471C106.945 171.323 106.944 171.169 106.973 171.02C107.002 170.871 107.06 170.73 107.145 170.604C107.229 170.478 107.338 170.37 107.465 170.287C107.592 170.204 107.734 170.147 107.884 170.12C110.29 169.605 112.664 168.949 114.994 168.156C115.275 168.05 115.588 168.059 115.862 168.183C116.136 168.307 116.35 168.534 116.457 168.816C116.564 169.097 116.554 169.41 116.43 169.684C116.307 169.959 116.079 170.173 115.797 170.279L115.782 170.281ZM39.0893 201.541C38.812 201.658 38.4998 201.66 38.2212 201.546C37.9427 201.433 37.7207 201.213 37.604 200.936C37.4873 200.659 37.4855 200.347 37.599 200.068C37.7125 199.789 37.932 199.567 38.2092 199.451C40.5019 198.486 42.8038 197.455 45.0567 196.425C45.3304 196.299 45.6426 196.288 45.9245 196.393C46.2065 196.499 46.4351 196.711 46.5601 196.985C46.6852 197.259 46.6963 197.571 46.5912 197.853C46.486 198.135 46.2732 198.364 45.9994 198.489C43.7292 199.526 41.4074 200.549 39.0823 201.544L39.0893 201.541ZM32.1455 204.407L32.1246 204.416C29.7955 205.343 27.4268 206.254 25.0846 207.121C24.9449 207.173 24.7962 207.197 24.6472 207.191C24.4983 207.185 24.3519 207.15 24.2164 207.088C24.0809 207.026 23.959 206.938 23.8576 206.829C23.7562 206.719 23.6774 206.591 23.6255 206.451C23.5737 206.312 23.5499 206.163 23.5555 206.014C23.5611 205.865 23.596 205.719 23.6582 205.583C23.7203 205.448 23.8086 205.326 23.9179 205.224C24.0272 205.123 24.1554 205.044 24.2952 204.992C26.6199 204.133 28.9712 203.229 31.2814 202.306C31.5596 202.191 31.8718 202.192 32.1495 202.308C32.4271 202.424 32.6473 202.645 32.7617 202.923C32.8761 203.201 32.8753 203.514 32.7594 203.791C32.6436 204.069 32.4223 204.289 32.1441 204.403L32.1455 204.407ZM135.984 160.403C135.851 160.472 135.706 160.513 135.557 160.526C135.408 160.538 135.258 160.522 135.116 160.476C134.974 160.431 134.842 160.358 134.727 160.261C134.613 160.165 134.519 160.047 134.451 159.914C134.382 159.781 134.341 159.637 134.328 159.488C134.316 159.339 134.332 159.189 134.378 159.047C134.423 158.904 134.496 158.772 134.593 158.658C134.689 158.544 134.807 158.45 134.94 158.381C136.04 157.701 137.166 156.977 138.297 156.234C139.262 155.602 140.221 154.957 141.176 154.304C141.299 154.217 141.438 154.156 141.585 154.123C141.732 154.091 141.884 154.088 142.032 154.115C142.18 154.142 142.322 154.198 142.448 154.28C142.574 154.362 142.683 154.468 142.767 154.592C142.852 154.716 142.911 154.856 142.941 155.004C142.971 155.151 142.972 155.303 142.943 155.451C142.913 155.599 142.855 155.739 142.771 155.864C142.687 155.989 142.579 156.096 142.454 156.178C141.482 156.842 140.499 157.498 139.529 158.136C138.381 158.889 137.237 159.621 136.127 160.314C136.074 160.344 136.02 160.372 135.964 160.395L135.984 160.403ZM244.973 114.469C244.811 114.537 244.635 114.566 244.46 114.555C244.285 114.543 244.114 114.491 243.963 114.403C243.811 114.315 243.682 114.192 243.585 114.045C243.489 113.898 243.428 113.731 243.407 113.557C243.115 110.953 243.209 108.32 243.687 105.744C243.701 105.587 243.748 105.435 243.824 105.296C243.9 105.158 244.004 105.037 244.13 104.942C244.255 104.846 244.399 104.778 244.553 104.741C244.706 104.704 244.865 104.7 245.021 104.728C245.176 104.757 245.323 104.817 245.454 104.906C245.584 104.995 245.695 105.109 245.779 105.243C245.862 105.377 245.917 105.527 245.939 105.683C245.962 105.839 245.951 105.998 245.909 106.15C245.466 108.508 245.375 110.918 245.638 113.303C245.663 113.544 245.609 113.786 245.486 113.994C245.363 114.203 245.176 114.366 244.953 114.461L244.973 114.469ZM52.7541 195.301C52.48 195.425 52.1678 195.435 51.8863 195.329C51.6047 195.223 51.3768 195.009 51.2527 194.735C51.1286 194.461 51.1185 194.149 51.2246 193.867C51.3306 193.586 51.5442 193.358 51.8183 193.234C54.0616 192.142 56.3127 191.009 58.5096 189.875C58.7777 189.737 59.0898 189.711 59.3772 189.802C59.6647 189.894 59.9039 190.096 60.0423 190.364C60.1807 190.632 60.207 190.944 60.1153 191.232C60.0236 191.519 59.8215 191.759 59.5534 191.897C57.3405 193.042 55.08 194.19 52.8149 195.279L52.7541 195.301ZM66.0967 188.392C65.8255 188.523 65.5134 188.541 65.229 188.442C64.9445 188.343 64.7112 188.134 64.5801 187.863C64.4491 187.592 64.4312 187.28 64.5303 186.995C64.6294 186.711 64.8375 186.478 65.1087 186.347C66.6111 185.521 68.1222 184.668 69.6089 183.825C70.2696 183.445 70.9387 183.057 71.6164 182.66C71.7459 182.584 71.8893 182.534 72.0381 182.513C72.1869 182.492 72.3383 182.501 72.4837 182.539C72.6291 182.577 72.7657 182.643 72.8856 182.733C73.0054 182.824 73.1063 182.937 73.1824 183.067C73.2585 183.196 73.3083 183.34 73.329 183.489C73.3497 183.637 73.3409 183.789 73.3031 183.934C73.2653 184.08 73.1992 184.216 73.1086 184.336C73.018 184.456 72.9047 184.557 72.7752 184.633C72.097 185.029 71.4189 185.425 70.7433 185.808C69.2456 186.664 67.7226 187.519 66.2111 188.352L66.0967 188.392ZM101.112 173.336C100.994 173.387 100.868 173.418 100.74 173.427C99.4568 173.516 98.1664 173.558 96.8961 173.552C95.6259 173.545 94.3328 173.474 93.0435 173.344C92.7441 173.314 92.469 173.166 92.2786 172.933C92.0883 172.7 91.9983 172.401 92.0284 172.102C92.0585 171.803 92.2062 171.528 92.4392 171.337C92.6721 171.147 92.9711 171.057 93.2704 171.087C94.4873 171.211 95.7174 171.287 96.9088 171.282C98.1002 171.277 99.3558 171.249 100.583 171.163C100.852 171.144 101.119 171.221 101.336 171.382C101.553 171.542 101.706 171.774 101.767 172.037C101.829 172.3 101.794 172.576 101.67 172.815C101.546 173.055 101.341 173.243 101.091 173.344L101.112 173.336ZM148.396 151.938C148.14 152.048 147.852 152.059 147.588 151.971C147.323 151.882 147.101 151.699 146.963 151.457C146.825 151.215 146.781 150.93 146.839 150.657C146.898 150.385 147.055 150.143 147.28 149.979C149.272 148.505 151.265 146.973 153.205 145.434C153.441 145.254 153.737 145.173 154.032 145.209C154.326 145.244 154.594 145.394 154.78 145.625C154.965 145.857 155.053 146.152 155.023 146.447C154.994 146.742 154.85 147.013 154.623 147.204C152.663 148.775 150.65 150.324 148.636 151.816C148.555 151.865 148.467 151.903 148.376 151.929L148.396 151.938ZM79.0207 180.732C78.7542 180.874 78.4421 180.905 78.1531 180.817C77.8642 180.729 77.622 180.53 77.4799 180.263C77.3378 179.997 77.3074 179.684 77.3953 179.396C77.4833 179.107 77.6825 178.864 77.949 178.722C80.1604 177.262 82.1333 175.849 83.9912 174.407C84.108 174.309 84.2433 174.236 84.3889 174.192C84.5346 174.148 84.6876 174.133 84.8389 174.149C84.9903 174.166 85.1368 174.212 85.2698 174.286C85.4028 174.36 85.5195 174.46 85.6131 174.58C85.7066 174.7 85.775 174.838 85.8141 174.985C85.8533 175.132 85.8625 175.286 85.8412 175.436C85.8198 175.587 85.7683 175.732 85.6897 175.862C85.6112 175.993 85.5072 176.106 85.384 176.195C83.4812 177.677 81.457 179.124 79.1962 180.613C79.1395 180.652 79.0789 180.684 79.0154 180.71L79.0207 180.732ZM285.141 92.8382C284.878 92.9499 284.582 92.9582 284.313 92.8615C284.045 92.7648 283.822 92.5702 283.691 92.3166C282.583 90.1667 281.226 88.1553 279.646 86.3243C279.463 86.0955 279.375 85.8043 279.401 85.5121C279.428 85.2198 279.566 84.9492 279.788 84.7571C280.01 84.565 280.298 84.4663 280.591 84.4817C280.884 84.4972 281.159 84.6257 281.36 84.8402C283.058 86.8059 284.518 88.9655 285.709 91.2742C285.846 91.541 285.872 91.8514 285.781 92.1373C285.69 92.4231 285.489 92.6613 285.223 92.7995L285.141 92.8382ZM160.126 142.553C159.877 142.661 159.597 142.675 159.338 142.594C159.079 142.512 158.858 142.341 158.714 142.11C158.571 141.879 158.515 141.605 158.557 141.336C158.599 141.068 158.736 140.824 158.943 140.648C160.83 139.033 162.694 137.342 164.499 135.655C164.72 135.458 165.01 135.355 165.306 135.369C165.602 135.382 165.881 135.511 166.083 135.728C166.285 135.944 166.394 136.232 166.387 136.528C166.381 136.824 166.258 137.106 166.046 137.313C164.22 139.017 162.332 140.718 160.428 142.365C160.33 142.44 160.221 142.498 160.104 142.538L160.126 142.553ZM90.8218 171.457C90.5784 171.558 90.3077 171.57 90.0561 171.493C89.8045 171.415 89.5876 171.253 89.4427 171.033C89.2978 170.813 89.2339 170.55 89.2619 170.288C89.2899 170.027 89.4081 169.783 89.5962 169.599C91.3631 167.899 93.0089 166.079 94.5214 164.149C94.6121 164.03 94.7256 163.93 94.8553 163.855C94.985 163.78 95.1282 163.731 95.2768 163.712C95.4255 163.692 95.5764 163.702 95.7211 163.742C95.8657 163.781 96.0011 163.848 96.1195 163.94C96.2379 164.032 96.3369 164.147 96.4108 164.277C96.4846 164.408 96.5319 164.551 96.5499 164.7C96.5679 164.849 96.5562 165 96.5155 165.144C96.4748 165.288 96.4059 165.423 96.3129 165.541C94.7343 167.554 93.0165 169.455 91.1722 171.228C91.0627 171.323 90.936 171.395 90.799 171.442L90.8218 171.457ZM86.241 171.839C86.0029 171.94 85.7377 171.956 85.4892 171.885C83.0141 171.174 80.6084 170.24 78.3014 169.095C78.1679 169.029 78.0488 168.937 77.9508 168.824C77.8529 168.712 77.778 168.581 77.7305 168.44C77.683 168.299 77.6638 168.149 77.674 168.001C77.6842 167.852 77.7236 167.707 77.79 167.573C77.8563 167.44 77.9483 167.32 78.0607 167.223C78.1731 167.125 78.3036 167.05 78.445 167.002C78.5863 166.955 78.7356 166.936 78.8843 166.946C79.033 166.956 79.1783 166.995 79.3118 167.062C81.4948 168.147 83.7716 169.032 86.1143 169.707C86.339 169.772 86.538 169.905 86.684 170.088C86.83 170.271 86.9159 170.495 86.9297 170.728C86.9436 170.962 86.8849 171.194 86.7616 171.393C86.6383 171.592 86.4564 171.748 86.241 171.839ZM171.105 132.3C170.863 132.403 170.592 132.419 170.339 132.344C170.087 132.269 169.868 132.109 169.72 131.89C169.573 131.672 169.506 131.409 169.532 131.147C169.557 130.884 169.674 130.639 169.86 130.453C170.511 129.798 171.157 129.14 171.799 128.472C172.844 127.388 173.903 126.27 175.031 125.061C175.129 124.943 175.251 124.847 175.388 124.777C175.525 124.708 175.675 124.667 175.828 124.658C175.982 124.648 176.136 124.67 176.28 124.722C176.425 124.773 176.558 124.854 176.67 124.958C176.783 125.062 176.873 125.189 176.936 125.329C176.998 125.47 177.031 125.621 177.033 125.775C177.035 125.928 177.006 126.081 176.948 126.223C176.889 126.365 176.802 126.493 176.692 126.601C175.567 127.825 174.493 128.958 173.434 130.056C172.784 130.729 172.13 131.396 171.472 132.059C171.358 132.159 171.226 132.236 171.082 132.285L171.105 132.3ZM247.491 99.8441C247.345 99.9041 247.188 99.9329 247.03 99.9288C246.873 99.9246 246.717 99.8875 246.575 99.8199C246.302 99.695 246.09 99.4672 245.985 99.1863C245.879 98.9055 245.89 98.5944 246.013 98.3211C246.649 96.9214 247.387 95.5703 248.221 94.2788C248.781 93.4072 249.397 92.5529 250.041 91.6953C250.224 91.4553 250.494 91.2976 250.792 91.2569C251.091 91.2162 251.394 91.2958 251.634 91.4782C251.874 91.6605 252.031 91.9308 252.072 92.2294C252.113 92.528 252.033 92.8306 251.851 93.0705C251.241 93.8643 250.664 94.6857 250.135 95.5033C249.364 96.7038 248.68 97.958 248.089 99.2563C247.964 99.5199 247.741 99.7251 247.469 99.8291L247.491 99.8441ZM374.686 44.6585C374.567 44.7086 374.441 44.7382 374.313 44.7459C371.838 44.9181 369.332 45.1323 366.865 45.383C366.566 45.4133 366.267 45.3234 366.034 45.1331C365.8 44.9428 365.652 44.6677 365.622 44.3683C365.592 44.0688 365.682 43.7696 365.872 43.5365C366.062 43.3033 366.337 43.1552 366.637 43.1249C369.127 42.8724 371.655 42.6529 374.16 42.4844C374.43 42.4653 374.697 42.5428 374.914 42.703C375.131 42.8632 375.284 43.0955 375.345 43.3583C375.406 43.6211 375.372 43.8971 375.248 44.1367C375.124 44.3764 374.918 44.564 374.669 44.6658L374.686 44.6585ZM99.9431 159.607C99.7275 159.698 99.489 159.721 99.2602 159.671C99.0314 159.622 98.8235 159.503 98.6651 159.33C98.5067 159.158 98.4055 158.941 98.3755 158.709C98.3454 158.476 98.3879 158.241 98.4972 158.034C99.2109 156.679 99.8402 155.281 100.382 153.848C100.691 153.017 100.957 152.171 101.181 151.313C101.218 151.169 101.284 151.034 101.373 150.915C101.463 150.796 101.575 150.696 101.703 150.62C101.832 150.545 101.974 150.495 102.121 150.474C102.269 150.454 102.419 150.462 102.563 150.5C102.707 150.537 102.843 150.602 102.962 150.692C103.081 150.782 103.181 150.894 103.256 151.022C103.332 151.151 103.381 151.293 103.402 151.44C103.423 151.588 103.414 151.738 103.377 151.882C103.13 152.819 102.834 153.743 102.491 154.65C101.917 156.173 101.25 157.658 100.491 159.097C100.36 159.319 100.157 159.49 99.9159 159.582L99.9431 159.607ZM181.341 121.305C181.104 121.406 180.839 121.423 180.591 121.354C180.343 121.284 180.125 121.132 179.975 120.923C179.825 120.713 179.75 120.459 179.764 120.201C179.778 119.944 179.879 119.698 180.051 119.506C181.574 117.785 183.091 116.052 184.602 114.309L185.001 113.854C185.2 113.628 185.48 113.49 185.78 113.47C185.929 113.46 186.078 113.48 186.219 113.528C186.36 113.576 186.49 113.652 186.602 113.75C186.714 113.848 186.806 113.968 186.871 114.101C186.937 114.235 186.976 114.38 186.986 114.529C186.995 114.677 186.976 114.827 186.928 114.968C186.88 115.109 186.804 115.239 186.706 115.351L186.307 115.806C184.789 117.539 183.268 119.273 181.745 121.008C181.625 121.131 181.477 121.224 181.314 121.279L181.341 121.305ZM359.726 46.1859C359.634 46.2248 359.538 46.2516 359.44 46.2654C356.982 46.5946 354.495 46.9727 352.047 47.3839C351.901 47.4085 351.75 47.404 351.605 47.3706C351.46 47.3372 351.323 47.2755 351.202 47.1891C351.08 47.1027 350.977 46.9932 350.898 46.8669C350.819 46.7406 350.766 46.6 350.741 46.4531C350.716 46.3063 350.721 46.1559 350.754 46.0108C350.788 45.8656 350.849 45.7284 350.936 45.6071C351.022 45.4858 351.132 45.3827 351.258 45.3037C351.384 45.2247 351.525 45.1713 351.672 45.1466C354.143 44.7336 356.668 44.3478 359.136 44.0143C359.409 43.9758 359.688 44.0385 359.918 44.1905C360.149 44.3425 360.316 44.5735 360.388 44.8399C360.461 45.1064 360.433 45.3902 360.311 45.638C360.19 45.8858 359.981 46.0806 359.726 46.1859ZM275.381 81.6187C275.202 81.6943 275.007 81.7226 274.814 81.7011C274.621 81.6796 274.437 81.609 274.279 81.496C272.693 80.3648 271.016 79.3667 269.266 78.5121L268.662 78.8894C268.445 78.8985 268.228 78.8615 268.026 78.7811C267.825 78.7007 267.642 78.5785 267.491 78.4227C267.34 78.2668 267.223 78.0808 267.149 77.8767C267.074 77.6727 267.044 77.4552 267.059 77.2386C267.075 77.0219 267.136 76.8109 267.238 76.6195C267.341 76.4281 267.483 76.2605 267.655 76.1277C267.827 75.995 268.025 75.9 268.236 75.849C268.447 75.7981 268.666 75.7923 268.88 75.832C268.959 75.8643 269.04 75.9001 269.117 75.9373L269.398 75.7659C270.889 74.8551 272.415 73.9501 273.929 73.0748C274.192 72.9234 274.504 72.8826 274.797 72.9613C275.089 73.04 275.339 73.2317 275.49 73.4944C275.642 73.757 275.682 74.069 275.604 74.3618C275.525 74.6545 275.333 74.904 275.071 75.0553C273.893 75.7358 272.707 76.436 271.539 77.1408C272.939 77.8764 274.29 78.7009 275.585 79.6091C275.749 79.7265 275.878 79.8853 275.96 80.0694C276.042 80.2534 276.074 80.4559 276.052 80.6562C276.029 80.8565 275.954 81.0472 275.834 81.2087C275.713 81.3703 275.552 81.4969 275.367 81.5755L275.381 81.6187ZM256.463 87.9416C256.218 88.0429 255.944 88.0546 255.69 87.9745C255.437 87.8945 255.219 87.7278 255.076 87.5037C254.933 87.2796 254.873 87.0122 254.907 86.7484C254.941 86.4846 255.066 86.2411 255.261 86.0605C257.135 84.3322 259.109 82.7163 261.173 81.2215C261.293 81.1251 261.43 81.0539 261.578 81.0122C261.726 80.9706 261.88 80.9593 262.032 80.9791C262.185 80.9989 262.331 81.0494 262.463 81.1275C262.595 81.2055 262.71 81.3096 262.801 81.4333C262.891 81.557 262.956 81.6979 262.991 81.8473C263.025 81.9967 263.029 82.1517 263.002 82.3027C262.976 82.4537 262.918 82.5977 262.834 82.726C262.75 82.8542 262.641 82.9641 262.513 83.0489C260.521 84.4936 258.615 86.0545 256.806 87.7235C256.694 87.8022 256.569 87.8605 256.436 87.8958L256.463 87.9416ZM72.8915 165.179C72.7064 165.257 72.5036 165.285 72.304 165.26C72.1044 165.234 71.9151 165.156 71.7557 165.033C69.7056 163.449 67.842 161.637 66.2005 159.632C66.0229 159.398 65.9429 159.105 65.9774 158.813C66.0119 158.521 66.1581 158.254 66.3854 158.068C66.6126 157.882 66.9031 157.792 67.1958 157.816C67.4885 157.839 67.7605 157.976 67.9546 158.196C69.4927 160.067 71.2388 161.757 73.1592 163.233C73.3155 163.354 73.4372 163.514 73.5125 163.697C73.5877 163.88 73.6138 164.079 73.5882 164.275C73.5625 164.471 73.4861 164.658 73.3663 164.815C73.2465 164.972 73.0877 165.096 72.9055 165.173L72.8915 165.179ZM344.924 48.6927C344.855 48.7216 344.783 48.7435 344.71 48.7583C342.28 49.252 339.812 49.7905 337.405 50.3568C337.257 50.3985 337.103 50.4099 336.951 50.3903C336.799 50.3707 336.653 50.3205 336.521 50.2427C336.389 50.165 336.274 50.0613 336.183 49.9379C336.092 49.8146 336.027 49.6741 335.992 49.5249C335.957 49.3758 335.953 49.2211 335.979 49.0702C336.006 48.9193 336.062 48.7753 336.146 48.6469C336.229 48.5185 336.338 48.4083 336.465 48.3231C336.593 48.2379 336.736 48.1793 336.886 48.1509C339.326 47.5749 341.805 47.0319 344.258 46.5364C344.534 46.4811 344.82 46.5301 345.061 46.6737C345.303 46.8173 345.482 47.0454 345.565 47.3139C345.648 47.5823 345.628 47.8719 345.51 48.1266C345.392 48.3814 345.183 48.5831 344.924 48.6927ZM330.305 52.1398C330.259 52.1634 330.211 52.1835 330.162 52.1999C327.772 52.8453 325.354 53.543 322.976 54.2653C322.833 54.3092 322.682 54.3244 322.533 54.3101C322.384 54.2958 322.239 54.2523 322.107 54.1821C321.975 54.1119 321.858 54.0163 321.763 53.9009C321.667 53.7854 321.596 53.6523 321.552 53.5091C321.508 53.366 321.493 53.2156 321.507 53.0666C321.521 52.9175 321.565 52.7728 321.635 52.6406C321.705 52.5084 321.801 52.3913 321.916 52.296C322.032 52.2008 322.165 52.1292 322.308 52.0853C324.711 51.3527 327.152 50.6531 329.565 50.0025C329.85 49.9038 330.162 49.9223 330.433 50.0539C330.705 50.1856 330.912 50.4195 331.011 50.7043C331.11 50.9891 331.091 51.3015 330.96 51.5727C330.828 51.8438 330.594 52.0516 330.309 52.1502L330.305 52.1398ZM191.268 110.042C191.031 110.144 190.766 110.161 190.518 110.091C190.269 110.022 190.052 109.87 189.902 109.66C189.751 109.451 189.677 109.196 189.691 108.939C189.704 108.681 189.806 108.436 189.977 108.244C191.842 106.154 193.501 104.328 195.053 102.666C195.259 102.446 195.543 102.317 195.844 102.306C196.145 102.296 196.437 102.406 196.657 102.612C196.877 102.817 197.006 103.102 197.016 103.403C197.026 103.703 196.916 103.996 196.711 104.216C195.173 105.864 193.523 107.674 191.661 109.758C191.54 109.868 191.396 109.949 191.24 109.997L191.268 110.042ZM281.509 71.4671C281.237 71.5967 280.925 71.6131 280.641 71.5126C280.358 71.4121 280.125 71.203 279.996 70.9312C279.866 70.6594 279.85 70.3472 279.95 70.0634C280.051 69.7796 280.26 69.5473 280.532 69.4176C282.738 68.2385 284.998 67.0781 287.249 65.9662C287.519 65.8329 287.832 65.8124 288.117 65.9092C288.402 66.006 288.638 66.2121 288.771 66.4824C288.904 66.7526 288.925 67.0647 288.828 67.3501C288.731 67.6354 288.525 67.8706 288.255 68.004C286.023 69.1035 283.788 70.2537 281.605 71.4225L281.509 71.4671ZM315.893 56.4883L315.819 56.5191C313.466 57.321 311.1 58.1695 308.783 59.0466C308.501 59.1527 308.189 59.1425 307.914 59.0183C307.64 58.8941 307.427 58.6661 307.32 58.3844C307.214 58.1027 307.225 57.7904 307.349 57.5162C307.473 57.242 307.701 57.0284 307.983 56.9223C310.322 56.0399 312.713 55.1812 315.089 54.3739C315.37 54.2669 315.682 54.276 315.957 54.3993C316.231 54.5225 316.446 54.7498 316.553 55.0311C316.66 55.3125 316.651 55.6247 316.527 55.8993C316.404 56.1739 316.177 56.3883 315.896 56.4953L315.893 56.4883ZM294.942 64.7827C294.666 64.9031 294.354 64.9091 294.074 64.7993C293.794 64.6895 293.569 64.4729 293.449 64.1973C293.328 63.9216 293.322 63.6094 293.432 63.3293C293.542 63.0493 293.759 62.8243 294.034 62.7039C296.318 61.6687 298.642 60.6616 300.971 59.6937C301.248 59.577 301.56 59.5752 301.839 59.6887C302.117 59.8022 302.339 60.0217 302.456 60.299C302.573 60.5762 302.574 60.8884 302.461 61.167C302.347 61.4455 302.128 61.6676 301.851 61.7843C299.561 62.7479 297.248 63.7219 294.991 64.7622L294.942 64.7827ZM103.606 145.186C103.467 145.245 103.318 145.275 103.168 145.276C103.018 145.276 102.871 145.247 102.733 145.191C102.595 145.134 102.47 145.05 102.364 144.945C102.258 144.84 102.174 144.715 102.117 144.577C102.06 144.44 102.03 144.292 102.03 144.143C102.024 141.724 101.732 139.315 101.162 136.965C101.093 136.672 101.143 136.364 101.302 136.108C101.46 135.852 101.714 135.669 102.007 135.601C102.3 135.532 102.608 135.582 102.864 135.74C103.12 135.899 103.302 136.152 103.371 136.445C103.986 138.969 104.298 141.557 104.303 144.154C104.299 144.374 104.232 144.589 104.108 144.771C103.985 144.953 103.811 145.096 103.608 145.181L103.606 145.186ZM261.722 75.5104C261.501 75.6036 261.255 75.6237 261.021 75.568C258.642 75.0062 256.22 74.6412 253.781 74.4769C253.481 74.4564 253.201 74.3175 253.004 74.0908C252.806 73.864 252.706 73.568 252.727 73.2678C252.747 72.9676 252.886 72.6879 253.113 72.4902C253.34 72.2924 253.636 72.1928 253.936 72.2133C256.499 72.3886 259.044 72.7729 261.544 73.3624C261.777 73.4177 261.986 73.5451 262.142 73.7264C262.297 73.9077 262.392 74.1336 262.412 74.3718C262.431 74.61 262.375 74.8484 262.252 75.0529C262.128 75.2573 261.943 75.4175 261.722 75.5104ZM201.517 99.0502C201.274 99.1552 201.002 99.1718 200.748 99.097C200.494 99.0223 200.274 98.861 200.126 98.6411C199.978 98.4212 199.912 98.1565 199.939 97.893C199.967 97.6295 200.085 97.3838 200.274 97.1985L200.779 96.7029C202.453 95.0552 204.139 93.4795 205.779 92.0143C206.003 91.8142 206.298 91.7115 206.599 91.7289C206.899 91.7463 207.18 91.8823 207.38 92.107C207.58 92.3317 207.683 92.6267 207.666 92.9271C207.648 93.2275 207.512 93.5087 207.288 93.7088C205.662 95.1563 204.002 96.7082 202.356 98.3238L201.858 98.8166C201.761 98.9125 201.648 98.9895 201.523 99.0437L201.517 99.0502ZM63.5024 153.573C63.23 153.688 62.9235 153.692 62.6483 153.584C62.373 153.476 62.1508 153.265 62.0289 152.996C61.9306 152.763 61.8308 152.526 61.7355 152.299C61.2883 151.236 60.9062 150.146 60.5914 149.036C60.2656 147.865 60.0365 146.669 59.9066 145.46C59.8847 145.168 59.9773 144.878 60.1648 144.652C60.3523 144.426 60.6201 144.281 60.912 144.249C61.2038 144.216 61.4969 144.298 61.7296 144.477C61.9622 144.656 62.1163 144.919 62.1594 145.209C62.2801 146.292 62.4884 147.364 62.7821 148.413C63.0724 149.434 63.4245 150.437 63.8365 151.415C63.9289 151.634 64.0199 151.85 64.1108 152.066C64.2348 152.34 64.2452 152.651 64.1398 152.933C64.0344 153.214 63.8218 153.442 63.5486 153.566L63.5024 153.573ZM212.763 89.0987C212.509 89.2058 212.225 89.2168 211.964 89.1297C211.702 89.0426 211.481 88.8633 211.343 88.6254C211.204 88.3874 211.156 88.1071 211.209 87.8367C211.262 87.5663 211.411 87.3243 211.629 87.156C213.687 85.5639 215.773 84.0787 217.823 82.7437C218.075 82.5951 218.375 82.5494 218.659 82.6163C218.944 82.6831 219.192 82.8573 219.351 83.1024C219.51 83.3476 219.569 83.6448 219.514 83.932C219.46 84.2192 219.296 84.4742 219.058 84.6439C217.059 85.945 215.028 87.3948 213.017 88.951C212.94 89.0085 212.857 89.0571 212.77 89.0958L212.763 89.0987ZM246.793 74.4493C246.682 74.4953 246.566 74.5238 246.447 74.5334C244.005 74.74 241.582 75.1266 239.198 75.69C238.911 75.744 238.614 75.6853 238.369 75.526C238.124 75.3668 237.951 75.1192 237.884 74.835C237.817 74.5507 237.862 74.2516 238.011 73.9999C238.159 73.7483 238.398 73.5636 238.679 73.4841C241.168 72.8929 243.697 72.4878 246.245 72.272C246.515 72.2471 246.785 72.3199 247.006 72.4771C247.227 72.6343 247.385 72.8655 247.45 73.1287C247.515 73.392 247.484 73.67 247.362 73.9121C247.24 74.1543 247.035 74.3447 246.784 74.4487L246.793 74.4493ZM225.365 80.9471C225.092 81.0749 224.78 81.0892 224.497 80.9868C224.214 80.8845 223.983 80.6739 223.855 80.4013C223.728 80.1287 223.713 79.8166 223.816 79.5335C223.918 79.2504 224.129 79.0196 224.401 78.8918C226.05 78.0337 227.724 77.2468 229.376 76.5515C230.027 76.2772 230.689 75.9986 231.351 75.7571C231.49 75.7041 231.638 75.6791 231.787 75.6834C231.936 75.6878 232.083 75.7214 232.219 75.7825C232.355 75.8435 232.477 75.9307 232.58 76.0391C232.682 76.1475 232.762 76.2751 232.815 76.4143C232.868 76.5536 232.893 76.702 232.888 76.8509C232.884 76.9999 232.85 77.1466 232.789 77.2825C232.728 77.4185 232.641 77.5411 232.533 77.6433C232.424 77.7456 232.297 77.8255 232.157 77.8785C231.522 78.1216 230.881 78.383 230.242 78.6479C228.646 79.3197 227.026 80.0797 225.432 80.9108L225.365 80.9471ZM100.044 130.734C99.7835 130.845 99.4907 130.854 99.2234 130.76C98.9561 130.666 98.7337 130.476 98.5999 130.226C97.4836 128.11 96.0458 126.181 94.3379 124.506C94.2307 124.402 94.145 124.279 94.0857 124.142C94.0263 124.005 93.9944 123.858 93.9919 123.709C93.9894 123.56 94.0162 123.412 94.0708 123.274C94.1255 123.135 94.2069 123.008 94.3105 122.901C94.4141 122.794 94.5377 122.708 94.6744 122.649C94.8111 122.59 94.9581 122.558 95.1071 122.555C95.2561 122.553 95.4041 122.579 95.5427 122.634C95.6814 122.689 95.8079 122.77 95.9151 122.874C97.7965 124.709 99.3799 126.827 100.608 129.151C100.751 129.416 100.782 129.726 100.696 130.014C100.609 130.302 100.412 130.544 100.147 130.686L100.044 130.734ZM61.8287 138.909C61.6379 138.989 61.4288 139.015 61.2241 138.985C61.0195 138.954 60.827 138.869 60.6676 138.737C60.5082 138.605 60.3878 138.432 60.3196 138.237C60.2515 138.041 60.238 137.831 60.2807 137.629C60.8186 135.071 61.712 132.602 62.9351 130.293C63.002 130.157 63.0956 130.036 63.2103 129.936C63.325 129.837 63.4584 129.762 63.6027 129.715C63.747 129.668 63.8993 129.651 64.0504 129.664C64.2015 129.677 64.3485 129.72 64.4826 129.791C64.6168 129.862 64.7353 129.959 64.8313 130.076C64.9272 130.194 64.9986 130.329 65.0412 130.475C65.0838 130.621 65.0968 130.773 65.0794 130.924C65.0619 131.075 65.0144 131.22 64.9396 131.352C63.8147 133.476 62.9908 135.746 62.4916 138.097C62.4547 138.275 62.3751 138.443 62.2597 138.584C62.1443 138.725 61.9964 138.837 61.8287 138.909ZM89.3203 120.654C89.0456 120.768 88.737 120.77 88.461 120.659C87.3135 120.211 86.1214 119.888 84.905 119.695C83.8095 119.517 82.6984 119.454 81.5898 119.507C81.2889 119.521 80.9948 119.415 80.7721 119.213C80.5494 119.01 80.4165 118.727 80.4024 118.426C80.3883 118.125 80.4944 117.831 80.6971 117.608C80.8999 117.386 81.1829 117.253 81.4838 117.239C82.7494 117.179 84.0177 117.253 85.2679 117.459C86.6506 117.68 88.0046 118.054 89.3054 118.573C89.5146 118.656 89.6943 118.799 89.8217 118.985C89.9491 119.17 90.0184 119.39 90.0208 119.615C90.0231 119.84 89.9585 120.06 89.8351 120.249C89.7116 120.437 89.535 120.584 89.3276 120.672L89.3203 120.654ZM68.7704 125.798C68.5295 125.899 68.261 125.914 68.0106 125.839C67.7601 125.765 67.5429 125.607 67.3956 125.391C67.2484 125.175 67.1801 124.915 67.2024 124.655C67.2247 124.395 67.3361 124.15 67.5179 123.963C69.3375 122.052 71.4668 120.462 73.8157 119.261C74.0854 119.126 74.3975 119.104 74.6834 119.199C74.9694 119.295 75.2056 119.5 75.3404 119.769C75.4751 120.039 75.4972 120.351 75.4018 120.637C75.3064 120.923 75.1013 121.159 74.8317 121.294C72.71 122.375 70.786 123.806 69.1405 125.527C69.041 125.639 68.9198 125.729 68.7844 125.792L68.7704 125.798Z"/>

<path d="M399.6 62.2674C400.444 62.1899 401.252 61.8914 401.943 61.4022C402.634 60.913 403.184 60.2502 403.538 59.4807L410.9 43.5146C411.151 42.9703 411.54 42.5008 412.028 42.1521C412.516 41.8034 413.086 41.5875 413.682 41.5257L420.354 40.8442C422.015 40.6748 423.616 40.1332 425.039 39.2598L425.963 38.6913C426.129 38.5888 426.263 38.442 426.35 38.2675C426.437 38.093 426.474 37.8978 426.456 37.7037C426.438 37.5095 426.366 37.3243 426.248 37.1688C426.131 37.0133 425.972 36.8937 425.79 36.8234L424.777 36.4346C423.218 35.8364 421.544 35.5972 419.88 35.7348L413.197 36.2918C412.6 36.3414 412 36.2348 411.456 35.9825C410.913 35.7301 410.444 35.3407 410.096 34.8524L399.924 20.5163C399.434 19.8263 398.771 19.2772 398.002 18.9242C397.233 18.5712 396.385 18.4266 395.542 18.505C399.729 24.7614 402.528 32.8069 403.594 36.1737C403.627 36.2813 403.636 36.395 403.62 36.5066C403.604 36.6181 403.562 36.7246 403.5 36.8181C403.437 36.9117 403.354 36.99 403.257 37.0472C403.159 37.1044 403.051 37.1392 402.938 37.1489L402.446 35.7738C402.33 35.4498 402.095 35.1822 401.789 35.0254C401.483 34.8685 401.128 34.8343 400.798 34.9297L398.957 35.4419C398.709 35.5085 398.49 35.6574 398.337 35.8644C398.179 36.0867 397.948 36.247 397.684 36.3174L397.021 36.481L397.784 36.5437C398.023 36.5646 398.251 36.657 398.437 36.8089L398.747 37.0666L399.252 37.4712L397.835 37.6026C396.925 37.6766 396.029 37.8666 395.168 38.1678L390.83 39.6886L388.608 35.0633C388.38 34.5799 387.993 34.1888 387.513 33.955C387.032 33.7212 386.486 33.6586 385.965 33.7777L384.342 34.1401L387.573 40.8307L386.364 41.2528C386.323 41.2688 386.288 41.2978 386.265 41.3354C386.241 41.3729 386.231 41.417 386.235 41.461C386.239 41.505 386.257 41.5465 386.287 41.5791C386.317 41.6118 386.356 41.6338 386.4 41.642L387.666 41.8346L385.721 49.0052L387.394 49.0619C387.925 49.0792 388.446 48.9176 388.874 48.6032C389.301 48.2888 389.611 47.8398 389.753 47.3282L391.13 42.3651L395.62 43.0515C396.523 43.1905 397.439 43.2137 398.347 43.1206L399.763 42.9892L399.342 43.4796L399.084 43.7862C398.932 43.9714 398.726 44.1044 398.495 44.1665L397.752 44.3688L398.435 44.4115C398.707 44.4322 398.964 44.5473 399.16 44.7368C399.349 44.9113 399.591 45.0185 399.848 45.0419L401.751 45.2069C402.093 45.2378 402.435 45.1376 402.707 44.9267C402.978 44.7158 403.16 44.4098 403.215 44.0702L403.447 42.6319C403.559 42.6202 403.672 42.6338 403.778 42.6718C403.884 42.7098 403.98 42.7711 404.059 42.8512C404.138 42.9313 404.198 43.0282 404.235 43.1346C404.271 43.241 404.283 43.3543 404.27 43.4661C403.837 46.917 402.565 55.3438 399.6 62.2674Z"/>
</symbol>

</svg>