<svg width="80" height="80" viewBox="0 0 80 80" fill="none" xmlns="http://www.w3.org/2000/svg">
<path d="M60.4125 13.1026C53.5485 18.3879 44.5343 26.5325 35.0306 36.0356C25.5277 45.5376 17.3829 54.5517 12.0965 61.4171C11.7002 61.9318 11.3085 62.4501 10.9214 62.9718V64.6813H12.2447C12.7367 64.0102 13.2367 63.3451 13.7446 62.6861C18.978 55.8894 27.0599 46.9471 36.5012 37.5065C45.9437 28.0646 54.8862 19.9832 61.6815 14.7506C62.3403 14.2429 63.0051 13.7431 63.6759 13.2512V11.9279H61.9663C61.445 12.3149 60.927 12.7065 60.4125 13.1026Z" fill="#EBB044"/>
<path d="M61.5138 62.5998H13.4088C10.5583 62.5998 8.24756 60.2891 8.24756 57.4386V38.75C8.24756 28.3947 16.6422 20 26.9976 20H66.3522C69.2027 20 71.5135 22.3108 71.5135 25.1613V44.5162L61.5138 62.5998Z" fill="#CCEFFA"/>
<path d="M14.7391 61.2906C11.8885 61.2906 9.5777 58.9798 9.5777 56.1294V53.5784L6.99707 57.4197V58.71C6.99707 61.5605 9.30785 63.8712 12.1585 63.8712H28.9327L33.8554 61.2906H14.7391Z" fill="#A5E3F0"/>
<path d="M52.1589 31.613H40.5459V20H12.1588C11.2522 19.9986 10.3614 20.2371 9.57672 20.6913L8.4375 25.1613V50.0744L9.57813 54.8391L13.3842 51.033C14.2229 50.1942 15.2186 49.5289 16.3145 49.075C17.4103 48.6211 18.5848 48.3875 19.7709 48.3875H21.1909C23.3289 48.3875 25.0619 46.6544 25.0619 44.5166C25.0619 43.0913 26.2173 41.9359 27.6425 41.9359H52.1587C53.5841 41.9359 54.7394 40.7805 54.7394 39.3553V34.1941C54.7395 32.7684 53.5842 31.613 52.1589 31.613Z" fill="#98DB7C"/>
<path d="M65.0618 44.5163C63.6365 44.5163 62.4812 45.6717 62.4812 47.0969V50.3227C62.4812 51.748 61.3257 52.9033 59.9005 52.9033H44.1761C41.4384 52.9033 38.8128 53.9908 36.8769 55.9267L31.5132 61.2905L33.6179 62.7325H66.3521L70.823 61.2903C71.2767 60.506 71.5149 59.6157 71.5135 58.7097V44.5161L65.0618 44.5163Z" fill="#98DB7C"/>
<path d="M9.5777 20.6938C8.04145 21.5878 6.99707 23.2558 6.99707 25.1614V57.4197L9.5777 54.8391V20.6938ZM70.823 61.2906H31.5132L28.9325 63.8713H66.3521C68.2577 63.8713 69.9291 62.8269 70.823 61.2906Z" fill="#77CC7D"/>
<path d="M75.2618 6.7362C74.6421 6.11634 73.748 5.88643 72.6043 6.05214C71.7062 6.18235 70.6464 6.55233 69.3638 7.18286C67.3854 8.15578 64.9012 9.75036 61.9668 11.928C62.5495 12.3523 63.1196 12.7936 63.6764 13.2514C72.3176 6.92105 73.7765 8.19211 73.7909 8.20695C73.8412 8.25715 74.9611 9.52876 69.4621 17.2182C65.8579 22.2581 60.0748 29.0842 52.7376 36.9589C52.5495 37.1607 52.4494 37.4289 52.4591 37.7046C52.4689 37.9803 52.5877 38.2408 52.7896 38.4288C52.9914 38.6168 53.2596 38.717 53.5353 38.7072C53.811 38.6975 54.0715 38.5786 54.2595 38.3768C61.6568 30.4377 67.4988 23.5395 71.1541 18.4283C75.71 12.0573 76.977 8.45129 75.2618 6.7362ZM6.17709 70.3685C5.65999 71.4204 4.08579 74.6221 5.73015 76.2664C6.21689 76.7532 6.85672 77 7.66961 77C9.8111 77 13.1517 75.2862 18.0415 71.7298C23.5046 67.7562 30.7841 61.5037 39.0928 53.6479C39.192 53.5541 39.2718 53.4416 39.3276 53.317C39.3834 53.1923 39.4141 53.0579 39.4179 52.9213C39.4218 52.7848 39.3987 52.6488 39.35 52.5212C39.3013 52.3936 39.2279 52.2769 39.1341 52.1776C39.0402 52.0784 38.9278 51.9985 38.8031 51.9428C38.6784 51.887 38.544 51.8563 38.4075 51.8524C38.2709 51.8486 38.135 51.8717 38.0074 51.9204C37.8798 51.9691 37.763 52.0425 37.6637 52.1363C29.4189 59.932 22.2105 66.1256 16.8182 70.0476C13.9893 72.1051 11.6678 73.5353 9.91844 74.2988C8.15218 75.0697 7.37937 74.9739 7.20118 74.7957C7.18648 74.781 5.91556 73.3219 12.2451 64.6813C11.7873 64.1245 11.346 63.5545 10.9217 62.9718C8.74431 65.9059 7.14987 68.3898 6.17709 70.3685Z" fill="#FFD064"/>
<path d="M39.8409 55.2177C40.5641 55.3076 42.0763 52.6804 42.7583 52.3037C43.4403 51.9269 46.4691 52.0448 46.778 51.3847C46.8094 51.3174 46.7709 50.9996 46.463 50.6396C45.859 49.9425 45.2714 49.3036 45.2276 49.0766L44.8454 44.805C43.6846 45.2101 42.1974 45.9754 41.8672 45.9344C41.3567 45.871 38.6346 43.2602 37.9658 43.6298C37.297 43.9993 38.0585 47.6933 37.8405 48.1592C37.6994 48.4605 36.26 49.3122 35.2993 50.0794L38.7121 52.6764C38.8811 52.8343 39.1092 53.6718 39.3778 54.5541C39.4961 54.936 39.7673 55.2085 39.8409 55.2177Z" fill="#F8E883"/>
<path d="M38.7121 52.6768C38.3363 52.3254 34.5878 51.9082 34.4431 51.1578C34.3919 50.8928 34.7744 50.4989 35.2992 50.0798C36.4623 50.4308 37.9244 50.7156 38.1294 50.9072C38.2862 51.0538 38.7121 52.6768 38.7121 52.6768ZM45.2277 49.0768C45.1302 48.5717 46.7719 45.1761 46.2137 44.6541C46.0166 44.4697 45.4795 44.5838 44.8453 44.8052C44.5233 45.9767 43.9864 47.366 44.0397 47.6415C44.0803 47.8525 45.2277 49.0768 45.2277 49.0768ZM46.4631 50.6397C46.488 50.7263 46.4882 50.8034 46.457 50.8701C46.1506 51.5247 42.6162 51.0404 42.1903 51.2757C41.7645 51.511 40.2935 54.7611 39.5761 54.672C39.503 54.663 39.4377 54.6218 39.3778 54.5546C39.7067 55.6348 40.0965 56.7825 40.5138 56.8343C41.2721 56.9285 42.8274 53.4925 43.2777 53.2436C43.7279 52.9948 47.4647 53.5069 47.7885 52.8148C47.9667 52.4339 47.2026 51.4931 46.4631 50.6397Z" fill="#FFD064"/>
<path d="M24.325 4C16.4245 4 9.99707 10.4276 9.99707 18.328C9.99707 23.2075 12.3092 28.4429 16.869 33.8891C20.2147 37.8849 23.516 40.4557 23.6549 40.5632C23.8467 40.7118 24.0825 40.7924 24.3252 40.7922C24.5678 40.7923 24.8037 40.7118 24.9955 40.5632C25.1344 40.4557 28.4358 37.8849 31.7814 33.8891C36.3412 28.443 38.6532 23.2077 38.6532 18.328C38.6529 10.4276 32.2254 4 24.325 4ZM29.603 18.328C29.603 21.2429 27.24 23.6059 24.325 23.6059C21.4101 23.6059 19.0471 21.2429 19.0471 18.328C19.0471 15.4131 21.4101 13.0502 24.325 13.0502C27.24 13.0502 29.603 15.4131 29.603 18.328Z" fill="#FF4A4A"/>
<path d="M24.325 4C23.6347 4.00006 22.9453 4.04988 22.2622 4.14909C29.1886 5.15213 34.5275 11.128 34.5275 18.328C34.5275 23.2075 32.2153 28.4429 27.6557 33.8891C25.5994 36.345 23.5612 38.2611 22.2622 39.3994C23.0766 40.113 23.6012 40.5218 23.6547 40.563C23.8466 40.7116 24.0824 40.7922 24.325 40.7921C24.5677 40.7922 24.8035 40.7116 24.9953 40.563C25.1342 40.4555 28.4357 37.8848 31.7812 33.8889C36.341 28.4429 38.653 23.2075 38.653 18.3278C38.6529 10.4276 32.2254 4 24.325 4Z" fill="#E7343F"/>
</svg>
