<svg width="16.667969" height="16.666504" viewBox="0 0 16.668 16.6665" fill="none" xmlns="http://www.w3.org/2000/svg" xmlns:xlink="http://www.w3.org/1999/xlink">
	<desc>
			Created with Pixso.
	</desc>
	<defs/>
	<path id="Icon" d="M15.8333 2.5L14.1665 8.33325L4.48047 8.33325M15 11.6665L5 11.6665L3.33325 0.833252L0.833252 0.833252M5 15.8333C4.53979 15.8333 4.1665 15.4602 4.1665 15C4.1665 14.5398 4.53979 14.1665 5 14.1665C5.46021 14.1665 5.83325 14.5398 5.83325 15C5.83325 15.4602 5.46021 15.8333 5 15.8333ZM14.1665 15.8333C13.7063 15.8333 13.3333 15.4602 13.3333 15C13.3333 14.5398 13.7063 14.1665 14.1665 14.1665C14.6267 14.1665 15 14.5398 15 15C15 15.4602 14.6267 15.8333 14.1665 15.8333ZM11.6665 2.9165L9.58325 2.9165L7.5 2.9165M9.58325 5L9.58325 2.9165M9.58325 2.9165L9.58325 0.833252" stroke="#000000" stroke-opacity="1.000000" stroke-width="1.666667" stroke-linejoin="round"/>
</svg>
