<svg width="17" height="17" viewBox="0 0 17 17" fill="none" xmlns="http://www.w3.org/2000/svg">
<path d="M0.894531 2.32635C0.894531 1.82525 0.894531 1.5747 0.992052 1.38331C1.07783 1.21495 1.21471 1.07808 1.38307 0.992296C1.57446 0.894775 1.82501 0.894775 2.32611 0.894775H14.6735C15.1746 0.894775 15.4251 0.894775 15.6165 0.992296C15.7849 1.07808 15.9218 1.21495 16.0075 1.38331C16.1051 1.5747 16.1051 1.82525 16.1051 2.32635V3.68191C16.1051 3.90076 16.1051 4.01018 16.0803 4.11315C16.0584 4.20445 16.0223 4.29172 15.9732 4.37178C15.9179 4.46207 15.8405 4.53945 15.6858 4.69419L10.6092 9.7708C10.4544 9.92554 10.377 10.0029 10.3217 10.0932C10.2726 10.1733 10.2365 10.2605 10.2146 10.3518C10.1899 10.4548 10.1899 10.5642 10.1899 10.7831V12.7252L6.80974 16.1053V10.7831C6.80974 10.5642 6.80974 10.4548 6.78501 10.3518C6.7631 10.2605 6.72694 10.1733 6.67789 10.0932C6.62256 10.0029 6.54518 9.92554 6.39044 9.7708L1.31383 4.69419C1.15908 4.53945 1.08171 4.46207 1.02638 4.37178C0.977322 4.29172 0.941171 4.20445 0.919253 4.11315C0.894531 4.01018 0.894531 3.90076 0.894531 3.68191V2.32635Z" stroke="black" stroke-width="1.78947" stroke-linecap="round" stroke-linejoin="round"/>
</svg>
