<svg width="24.000000" height="24.000000" viewBox="0 0 24 24" fill="none" xmlns="http://www.w3.org/2000/svg" xmlns:xlink="http://www.w3.org/1999/xlink">
	<desc>
			Created with Pixso.
	</desc>
	<defs>
		<clipPath id="clip251_8017">
			<rect width="24.000000" height="24.000000" fill="white" fill-opacity="0"/>
		</clipPath>
	</defs>
	<g clip-path="url(#clip251_8017)">
		<path d="M9 17L15 17M3 12.1301C3 10.9814 3 10.407 3.14795 9.87817C3.2793 9.40942 3.49463 8.96875 3.78394 8.57764C4.1106 8.13599 4.56396 7.78345 5.4707 7.07812L8.0708 5.05591C9.47607 3.96289 10.1787 3.4165 10.9546 3.2063C11.6392 3.021 12.3608 3.021 13.0454 3.2063C13.8213 3.4165 14.5239 3.96289 15.9292 5.05591L18.5293 7.07812C19.436 7.78345 19.8894 8.13599 20.2161 8.57764C20.5054 8.96875 20.7207 9.40942 20.8521 9.87817C21 10.407 21 10.9814 21 12.1301L21 14.5999C21 16.8401 21 17.9602 20.564 18.8159C20.1804 19.5686 19.5686 20.1804 18.8159 20.564C17.9602 21 16.8403 21 14.6001 21L9.3999 21C7.15967 21 6.03979 21 5.18408 20.564C4.4314 20.1804 3.81958 19.5686 3.43604 18.8159C3 17.9602 3 16.8401 3 14.5999L3 12.1301Z" stroke="#000000" stroke-opacity="1.000000" stroke-width="2.000000" stroke-linejoin="round" stroke-linecap="round"/>
	</g>
</svg>
