<svg width="20" height="20" viewBox="0 0 20 20" fill="none" xmlns="http://www.w3.org/2000/svg">
<path d="M12.8472 4.67587L15.1232 6.95187M2.78876 17.1483L2.82694 16.881C2.96206 15.9352 3.02961 15.4623 3.18329 15.0208C3.31965 14.629 3.50593 14.2565 3.73753 13.9123C3.99854 13.5245 4.33632 13.1867 5.0119 12.5111L14.3849 3.13812C15.0134 2.50962 16.0324 2.50962 16.6609 3.13812C17.2894 3.76662 17.2894 4.78562 16.6609 5.41412L7.11592 14.9591C6.50303 15.572 6.19659 15.8784 5.84753 16.1221C5.53771 16.3384 5.20357 16.5176 4.85196 16.656C4.45583 16.812 4.031 16.8977 3.18139 17.0691L2.78876 17.1483Z" stroke="white" stroke-linecap="round" stroke-linejoin="round"/>
</svg>
