<svg width="24" height="24" viewBox="0 0 24 24" fill="none" xmlns="http://www.w3.org/2000/svg">
<path fill-rule="evenodd" clip-rule="evenodd" d="M12 5C7.58172 5 4 8.58172 4 13C4 17.4183 7.58172 21 12 21C16.4183 21 20 17.4183 20 13C20 8.58172 16.4183 5 12 5ZM2 13C2 7.47715 6.47715 3 12 3C17.5228 3 22 7.47715 22 13C22 18.5228 17.5228 23 12 23C6.47715 23 2 18.5228 2 13Z" fill="#C4C4C4"/>
<path fill-rule="evenodd" clip-rule="evenodd" d="M21.2929 6.70718L17.2929 2.70718L18.7071 1.29297L22.7071 5.29297L21.2929 6.70718Z" fill="#C4C4C4"/>
<path fill-rule="evenodd" clip-rule="evenodd" d="M2.70712 6.70718L6.70712 2.70718L5.29291 1.29297L1.29291 5.29297L2.70712 6.70718Z" fill="#C4C4C4"/>
<path fill-rule="evenodd" clip-rule="evenodd" d="M13 12V8H11V13C11 13.5523 11.4477 14 12 14H17V12H13Z" fill="#C4C4C4"/>
</svg>
