<svg width="14" height="15" viewBox="0 0 14 15" fill="none" xmlns="http://www.w3.org/2000/svg">
<path d="M9.625 7.5C9.625 8.10703 9.59219 8.69219 9.53477 9.25H4.46523C4.40508 8.69219 4.375 8.10703 4.375 7.5C4.375 6.89297 4.40781 6.30781 4.46523 5.75H9.53477C9.59492 6.30781 9.625 6.89297 9.625 7.5ZM10.4125 5.75H13.7785C13.9234 6.31055 14 6.8957 14 7.5C14 8.1043 13.9234 8.68945 13.7785 9.25H10.4125C10.4699 8.68672 10.5 8.10156 10.5 7.5C10.5 6.89844 10.4699 6.31328 10.4125 5.75ZM13.4914 4.875H10.3004C10.027 3.12773 9.48555 1.66484 8.78828 0.729687C10.9293 1.2957 12.6711 2.84883 13.4887 4.875H13.4914ZM9.41445 4.875H4.58555C4.75234 3.87969 5.00938 2.99922 5.32383 2.28555C5.61094 1.64023 5.93086 1.17266 6.23984 0.877344C6.54609 0.5875 6.80039 0.5 7 0.5C7.19961 0.5 7.45391 0.5875 7.76016 0.877344C8.06914 1.17266 8.38906 1.64023 8.67617 2.28555C8.99336 2.99648 9.24766 3.87695 9.41445 4.875ZM3.69961 4.875H0.508594C1.32891 2.84883 3.06797 1.2957 5.21172 0.729687C4.51445 1.66484 3.97305 3.12773 3.69961 4.875ZM0.221484 5.75H3.5875C3.53008 6.31328 3.5 6.89844 3.5 7.5C3.5 8.10156 3.53008 8.68672 3.5875 9.25H0.221484C0.0765625 8.68945 0 8.1043 0 7.5C0 6.8957 0.0765625 6.31055 0.221484 5.75ZM5.32383 12.7117C5.00664 12.0008 4.75234 11.1203 4.58555 10.125H9.41445C9.24766 11.1203 8.99062 12.0008 8.67617 12.7117C8.38906 13.357 8.06914 13.8246 7.76016 14.1199C7.45391 14.4125 7.19961 14.5 7 14.5C6.80039 14.5 6.54609 14.4125 6.23984 14.1227C5.93086 13.8273 5.61094 13.3598 5.32383 12.7145V12.7117ZM3.69961 10.125C3.97305 11.8723 4.51445 13.3352 5.21172 14.2703C3.06797 13.7043 1.32891 12.1512 0.508594 10.125H3.69961ZM13.4914 10.125C12.6711 12.1512 10.932 13.7043 8.79102 14.2703C9.48828 13.3352 10.027 11.8723 10.3031 10.125H13.4914Z" fill="#E91A22"/>
</svg>
