<svg width="24" height="24" viewBox="0 0 24 24" fill="none" xmlns="http://www.w3.org/2000/svg">
<path fill-rule="evenodd" clip-rule="evenodd" d="M8.99988 7.99976C8.99988 6.3429 10.343 4.99976 11.9999 4.99976C13.6567 4.99976 14.9999 6.3429 14.9999 7.99976C14.9999 9.65661 13.6567 10.9998 11.9999 10.9998C10.343 10.9998 8.99988 9.65661 8.99988 7.99976ZM11.9999 6.99976C11.4476 6.99976 10.9999 7.44747 10.9999 7.99976C10.9999 8.55204 11.4476 8.99976 11.9999 8.99976C12.5522 8.99976 12.9999 8.55204 12.9999 7.99976C12.9999 7.44747 12.5522 6.99976 11.9999 6.99976Z" fill="#C4C4C4"/>
<path fill-rule="evenodd" clip-rule="evenodd" d="M4.99988 8.37476C4.99988 4.35963 8.07764 0.999756 11.9999 0.999756C15.9221 0.999756 18.9999 4.35963 18.9999 8.37476C18.9999 9.14524 18.7818 9.97514 18.4758 10.7775C18.3216 11.1819 18.1389 11.5949 17.9363 12.0097C18.217 12.0181 18.4759 12.0335 18.7108 12.062C19.2651 12.1293 19.7991 12.2797 20.2728 12.6596C20.7464 13.0396 21.0091 13.5282 21.195 14.0548C21.3673 14.5428 21.5036 15.1562 21.6598 15.8596L21.9105 16.9876C22.1465 18.0491 22.3468 18.9504 22.4021 19.6778C22.4606 20.4486 22.3749 21.2186 21.8468 21.8769C21.3187 22.5353 20.5856 22.786 19.8205 22.896C19.0985 22.9999 18.1752 22.9998 17.0878 22.9998H6.9121C5.82465 22.9998 4.90138 22.9999 4.17933 22.896C3.41425 22.786 2.68115 22.5353 2.15303 21.8769C1.62492 21.2186 1.53926 20.4486 1.5978 19.6778C1.65306 18.9504 1.85338 18.0492 2.08934 16.9876L2.33999 15.8597C2.49626 15.1563 2.63255 14.5428 2.80488 14.0548C2.9908 13.5282 3.25344 13.0396 3.72709 12.6596C4.20074 12.2797 4.73473 12.1293 5.28905 12.062C5.52393 12.0335 5.78277 12.0181 6.06342 12.0097C5.86086 11.5949 5.67816 11.1819 5.52397 10.7775C5.21795 9.97514 4.99988 9.14524 4.99988 8.37476ZM11.9999 2.99976C9.2947 2.99976 6.99988 5.34825 6.99988 8.37476C6.99988 8.79746 7.12636 9.36654 7.39268 10.0649C7.65464 10.7518 8.02887 11.5049 8.46914 12.2782C9.34978 13.825 10.4541 15.382 11.3304 16.5418C11.6768 17.0003 12.3229 17.0003 12.6693 16.5418C13.5456 15.382 14.65 13.825 15.5306 12.2782C15.9709 11.5049 16.3451 10.7518 16.6071 10.0649C16.8734 9.36654 16.9999 8.79746 16.9999 8.37476C16.9999 5.34825 14.7051 2.99976 11.9999 2.99976ZM7.16229 13.9998C6.39493 13.9998 5.90155 14.0024 5.53 14.0475C5.17808 14.0902 5.0533 14.1597 4.97854 14.2197C4.90378 14.2797 4.8088 14.3864 4.69077 14.7207C4.56366 15.0806 4.45228 15.574 4.28005 16.349L4.05783 17.349C3.80138 18.503 3.63511 19.2625 3.59206 19.8293C3.55104 20.3693 3.64077 20.5353 3.71312 20.6255C3.78546 20.7157 3.92807 20.8393 4.46406 20.9164C5.02669 20.9973 5.80423 20.9998 6.98639 20.9998H17.0135C18.1956 20.9998 18.9732 20.9973 19.5358 20.9164C20.0718 20.8393 20.2144 20.7157 20.2867 20.6255C20.3591 20.5353 20.4488 20.3693 20.4078 19.8293C20.3647 19.2625 20.1985 18.503 19.942 17.349L19.7198 16.349C19.5476 15.574 19.4362 15.0806 19.3091 14.7207C19.1911 14.3864 19.0961 14.2797 19.0213 14.2197C18.9466 14.1597 18.8218 14.0902 18.4699 14.0475C18.0983 14.0024 17.6049 13.9998 16.8375 13.9998C15.9887 15.396 15.0317 16.7328 14.265 17.7475C13.1184 19.265 10.8813 19.265 9.73472 17.7475C8.96801 16.7328 8.0111 15.396 7.16229 13.9998Z" fill="#C4C4C4"/>
</svg>
