<svg width="20" height="20" viewBox="0 0 20 20" fill="none" xmlns="http://www.w3.org/2000/svg">
<g clip-path="url(#clip0_6023_412)">
<path d="M6.41934 10.4269C7.16159 12.0219 8.39165 13.309 9.91248 14.0819C10.0238 14.1373 10.1468 14.1613 10.2696 14.1516C10.3924 14.1418 10.5107 14.0986 10.6127 14.0262L12.852 12.4567C12.9511 12.3872 13.065 12.3449 13.1836 12.3334C13.3021 12.322 13.4215 12.3418 13.5309 12.3911L17.7203 14.2783C17.8626 14.3419 17.9814 14.4523 18.0588 14.593C18.1362 14.7337 18.168 14.897 18.1494 15.0584C18.017 16.1475 17.5115 17.1485 16.7275 17.874C15.9434 18.5996 14.9347 18.9998 13.8901 18.9999C10.6639 18.9999 7.5698 17.6527 5.2885 15.2548C3.00721 12.8569 1.72559 9.60461 1.72559 6.21343C1.72564 5.11546 2.10644 4.05516 2.79668 3.23106C3.48692 2.40696 4.43926 1.87557 5.4754 1.73639C5.6289 1.71686 5.78428 1.7503 5.91813 1.83167C6.05198 1.91303 6.15705 2.03792 6.2175 2.18751L8.0145 6.59487C8.06098 6.70887 8.07992 6.83318 8.06963 6.95674C8.05934 7.0803 8.02015 7.19926 7.95553 7.30304L6.46748 9.69295C6.39976 9.80046 6.35972 9.9246 6.35128 10.0532C6.34284 10.1819 6.36629 10.3106 6.41934 10.4269V10.4269Z" stroke="#E91A22" stroke-linecap="round" stroke-linejoin="round"/>
<path d="M12.6084 2.46216C13.8256 2.7919 14.9353 3.43802 15.8266 4.33579C16.7178 5.23356 17.3592 6.35147 17.6866 7.57754" stroke="#E91A22" stroke-linecap="round" stroke-linejoin="round"/>
<path d="M11.8828 5.38623C12.5783 5.62176 13.2125 6.08327 13.7218 6.72454C14.2311 7.3658 14.5976 8.16431 14.7846 9.04008" stroke="#E91A22" stroke-linecap="round" stroke-linejoin="round"/>
</g>
<defs>
<clipPath id="clip0_6023_412">
<rect width="20" height="20" fill="white"/>
</clipPath>
</defs>
</svg>
