<svg width="113" height="77" viewBox="0 0 113 77" fill="none" xmlns="http://www.w3.org/2000/svg">
<g clip-path="url(#clip0)">
<path d="M0.212555 74.2095V67.8513C0.212555 67.1113 0.505289 66.4016 1.02636 65.8783C1.54743 65.355 2.25415 65.061 2.99106 65.061C3.72796 65.061 4.43468 65.355 4.95575 65.8783C5.47682 66.4016 5.76956 67.1113 5.76956 67.8513V68.4117H4.08803V67.8513C4.07158 67.5709 3.94904 67.3073 3.74548 67.1146C3.54192 66.9218 3.27272 66.8145 2.99295 66.8145C2.71318 66.8145 2.44398 66.9218 2.24042 67.1146C2.03686 67.3073 1.91433 67.5709 1.89788 67.8513V74.1981C1.91433 74.4786 2.03686 74.7421 2.24042 74.9349C2.44398 75.1276 2.71318 75.235 2.99295 75.235C3.27272 75.235 3.54192 75.1276 3.74548 74.9349C3.94904 74.7421 4.07158 74.4786 4.08803 74.1981V73.6378H5.76956V74.1981C5.76956 74.9381 5.47682 75.6479 4.95575 76.1712C4.43468 76.6944 3.72796 76.9884 2.99106 76.9884C2.25415 76.9884 1.54743 76.6944 1.02636 76.1712C0.505289 75.6479 0.212555 74.9381 0.212555 74.1981V74.2095Z" fill="white"/>
<path d="M8.40384 74.2095V67.8513C8.40384 67.1113 8.69657 66.4016 9.21764 65.8783C9.73871 65.355 10.4454 65.061 11.1823 65.061C11.9192 65.061 12.626 65.355 13.147 65.8783C13.6681 66.4016 13.9608 67.1113 13.9608 67.8513V74.1981C13.9608 74.9381 13.6681 75.6479 13.147 76.1712C12.626 76.6944 11.9192 76.9884 11.1823 76.9884C10.4454 76.9884 9.73871 76.6944 9.21764 76.1712C8.69657 75.6479 8.40384 74.9381 8.40384 74.1981V74.2095ZM12.2793 74.2095V67.8513C12.2629 67.5709 12.1403 67.3073 11.9368 67.1146C11.7332 66.9218 11.464 66.8145 11.1842 66.8145C10.9045 66.8145 10.6353 66.9218 10.4317 67.1146C10.2281 67.3073 10.1056 67.5709 10.0892 67.8513V74.1981C10.1056 74.4786 10.2281 74.7421 10.4317 74.9349C10.6353 75.1276 10.9045 75.235 11.1842 75.235C11.464 75.235 11.7332 75.1276 11.9368 74.9349C12.1403 74.7421 12.2629 74.4786 12.2793 74.1981V74.2095Z" fill="white"/>
<path d="M23.2491 65.2324V76.8396H21.5638L18.6752 69.6656V76.8396H16.9937V65.2324H18.6752L21.5638 72.4254V65.2324H23.2491Z" fill="white"/>
<path d="M31.3606 66.9211H29.3602V76.832H27.6749V66.9211H25.6746V65.2324H31.3682L31.3606 66.9211Z" fill="white"/>
<path d="M36.7392 74.3847H34.5415L34.067 76.8396H32.3437L34.8034 65.2324H36.4887L38.9332 76.8396H37.2175L36.7392 74.3847ZM36.4394 72.6923L35.6802 68.6441L34.921 72.6923H36.4394Z" fill="white"/>
<path d="M42.9643 65.2324V76.8396H41.279V65.2324H42.9643Z" fill="white"/>
<path d="M52.3133 65.2324V76.8396H50.6317L47.7432 69.6656V76.8396H46.0578V65.2324H47.7432L50.6317 72.4254V65.2324H52.3133Z" fill="white"/>
<path d="M57.0921 66.9211V69.9706H59.9731V71.6631H57.0845V75.1357H60.3527V76.8282H55.4182V65.2324H60.3527V66.9211H57.0921Z" fill="white"/>
<path d="M63.0097 65.2324H65.4694C65.8345 65.2314 66.1963 65.3029 66.5339 65.4428C66.8714 65.5826 67.1781 65.7881 67.4363 66.0474C67.6945 66.3068 67.8991 66.6148 68.0384 66.9537C68.1777 67.2927 68.2489 67.656 68.2479 68.0227V68.8842C68.2464 69.3654 68.1195 69.8378 67.8797 70.2544C67.64 70.6711 67.2958 71.0174 66.8814 71.259L68.8818 76.8396H67.1054L65.2492 71.6631H64.6799V76.8282H63.0097V65.2324ZM65.4694 69.982C65.7593 69.982 66.0374 69.8664 66.2424 69.6605C66.4474 69.4546 66.5626 69.1754 66.5626 68.8842V68.0227C66.5626 67.7312 66.4475 67.4516 66.2426 67.2451C66.0377 67.0386 65.7597 66.9221 65.4694 66.9211H64.7102V69.9706L65.4694 69.982Z" fill="white"/>
<path d="M77.1414 65.2324V74.2247C77.1578 74.5051 77.2804 74.7687 77.4839 74.9614C77.6875 75.1542 77.9567 75.2615 78.2365 75.2615C78.5162 75.2615 78.7854 75.1542 78.989 74.9614C79.1925 74.7687 79.3151 74.5051 79.3315 74.2247V65.2324H81.0131V74.2247C81.0131 74.9647 80.7203 75.6744 80.1993 76.1977C79.6782 76.721 78.9715 77.0149 78.2346 77.0149C77.4977 77.0149 76.7909 76.721 76.2699 76.1977C75.7488 75.6744 75.4561 74.9647 75.4561 74.2247V65.2324H77.1414Z" fill="white"/>
<path d="M90.3658 65.2324V76.8396H88.6805L85.7843 69.6656V76.8396H84.1028V65.2324H85.7843L88.6805 72.4254V65.2324H90.3658Z" fill="white"/>
<path d="M95.1409 65.2324V76.8396H93.4594V65.2324H95.1409Z" fill="white"/>
<path d="M98.1585 74.2095V67.8513C98.1585 67.1113 98.4513 66.4016 98.9723 65.8783C99.4934 65.355 100.2 65.061 100.937 65.061C101.674 65.061 102.381 65.355 102.902 65.8783C103.423 66.4016 103.716 67.1113 103.716 67.8513V74.1981C103.716 74.9381 103.423 75.6479 102.902 76.1712C102.381 76.6944 101.674 76.9884 100.937 76.9884C100.2 76.9884 99.4934 76.6944 98.9723 76.1712C98.4513 75.6479 98.1585 74.9381 98.1585 74.1981V74.2095ZM102.03 74.2095V67.8513C102.014 67.5709 101.891 67.3073 101.688 67.1146C101.484 66.9218 101.215 66.8145 100.935 66.8145C100.655 66.8145 100.386 66.9218 100.183 67.1146C99.9791 67.3073 99.8565 67.5709 99.8401 67.8513V74.1981C99.8565 74.4786 99.9791 74.7421 100.183 74.9349C100.386 75.1276 100.655 75.235 100.935 75.235C101.215 75.235 101.484 75.1276 101.688 74.9349C101.891 74.7421 102.014 74.4786 102.03 74.1981V74.2095Z" fill="white"/>
<path d="M113 65.2324V76.8396H111.318L108.43 69.6656V76.8396H106.745V65.2324H108.43L111.318 72.4254V65.2324H113Z" fill="white"/>
<path d="M76.9326 4.63916L64.3496 6.6099V49.8633L76.9326 51.8874V4.63916Z" fill="url(#paint0_radial)"/>
<path d="M96.1278 11.3099V45.0489L79.4872 46.8252V51.9865L108.715 48.2127V46.5698V43.7071V9.46875L96.1278 11.3099Z" fill="url(#paint1_radial)"/>
<path d="M41.4877 11.4092L42.2507 10.0674L37.525 10.8069V45.556L41.4877 46.1926V11.4092Z" fill="url(#paint2_linear)"/>
<path d="M36.5722 12.0266L37.2403 10.8525L32.6057 11.5768V44.7668L36.5722 45.4034V12.0266Z" fill="url(#paint3_linear)"/>
<path d="M17.8591 13.8869V42.3998L21.8219 43.0364V14.2719L22.452 13.1665L17.8591 13.8869Z" fill="url(#paint4_linear)"/>
<path d="M27.6901 12.3468V43.9778L31.6529 44.6144V12.8119L32.3323 11.6226L27.6901 12.3468Z" fill="url(#paint5_linear)"/>
<path d="M42.4405 10.0407V46.345L46.4033 46.9816V10.6544L47.1776 9.29736L42.4405 10.0407Z" fill="url(#paint6_linear)"/>
<path d="M52.2715 8.50073V47.927L56.2381 48.5636V9.10682L57.0048 7.76123L52.2715 8.50073Z" fill="url(#paint7_linear)"/>
<path d="M12.9398 14.657V41.607L16.9064 42.2474V14.8324L17.4036 13.9595L12.9398 14.657Z" fill="url(#paint8_linear)"/>
<path d="M26.7374 13.6546L27.4624 12.3853L22.7746 13.1171V43.1891L24.9192 43.5321L26.7374 43.8256V13.6546Z" fill="url(#paint9_linear)"/>
<path d="M51.3226 10.0027L52.169 8.51611L47.356 9.27087V47.1343L50.6165 47.6603L51.3226 47.7709V10.0027Z" fill="url(#paint10_linear)"/>
<path d="M11.9908 15.7892L12.602 14.7104L8.02426 15.4271V40.818L10.0436 41.142L11.9908 41.4546V15.7892Z" fill="url(#paint11_linear)"/>
<path d="M7.07152 16.4636L7.62571 15.4878L4.25507 16.0176V40.2155L6.19091 40.5242L7.07152 40.6653V16.4636Z" fill="url(#paint12_linear)"/>
<path d="M78.3636 0L0 12.3619V43.8557L78.5724 56.4806L112.981 51.6929V5.85886L78.3636 0ZM111.269 50.2025L78.5724 54.7501L1.7005 42.3996V13.8104L78.375 1.71916L111.288 7.29213L111.269 50.2025Z" fill="url(#paint13_linear)"/>
<path d="M61.5711 7.04443L57.1908 7.73057V48.7159L61.5711 49.4173V7.04443Z" fill="url(#paint14_linear)"/>
</g>
<defs>
<radialGradient id="paint0_radial" cx="0" cy="0" r="1" gradientUnits="userSpaceOnUse" gradientTransform="translate(70.6392 28.2614) scale(17.2176 17.2907)">
<stop stop-color="#F9CC4E"/>
<stop offset="0.28" stop-color="#F8C447"/>
<stop offset="0.7" stop-color="#F5AE33"/>
<stop offset="1" stop-color="#F29B22"/>
</radialGradient>
<radialGradient id="paint1_radial" cx="0" cy="0" r="1" gradientUnits="userSpaceOnUse" gradientTransform="translate(94.1009 30.7276) scale(18.1893 18.2665)">
<stop offset="0.01" stop-color="#F3A428"/>
<stop offset="1" stop-color="#F29B22"/>
</radialGradient>
<linearGradient id="paint2_linear" x1="37.525" y1="28.1319" x2="42.2507" y2="28.1319" gradientUnits="userSpaceOnUse">
<stop offset="0.3" stop-color="#E87D25"/>
<stop offset="1" stop-color="#F6851F"/>
</linearGradient>
<linearGradient id="paint3_linear" x1="430.72" y1="2560.36" x2="487.309" y2="2560.36" gradientUnits="userSpaceOnUse">
<stop offset="0.3" stop-color="#E87D25"/>
<stop offset="1" stop-color="#F6851F"/>
</linearGradient>
<linearGradient id="paint4_linear" x1="233.954" y1="2215.18" x2="289.528" y2="2215.18" gradientUnits="userSpaceOnUse">
<stop offset="0.3" stop-color="#E87D25"/>
<stop offset="1" stop-color="#F6851F"/>
</linearGradient>
<linearGradient id="paint5_linear" x1="366.34" y1="2445.1" x2="423.115" y2="2445.1" gradientUnits="userSpaceOnUse">
<stop offset="0.3" stop-color="#E87D25"/>
<stop offset="1" stop-color="#F6851F"/>
</linearGradient>
<linearGradient id="paint6_linear" x1="572.097" y1="2791.15" x2="631.216" y2="2791.15" gradientUnits="userSpaceOnUse">
<stop offset="0.3" stop-color="#E87D25"/>
<stop offset="1" stop-color="#F6851F"/>
</linearGradient>
<linearGradient id="paint7_linear" x1="704.096" y1="3022.24" x2="763.121" y2="3022.24" gradientUnits="userSpaceOnUse">
<stop offset="0.3" stop-color="#E87D25"/>
<stop offset="1" stop-color="#F6851F"/>
</linearGradient>
<linearGradient id="paint8_linear" x1="165.111" y1="2099.35" x2="217.606" y2="2099.35" gradientUnits="userSpaceOnUse">
<stop offset="0.3" stop-color="#E87D25"/>
<stop offset="1" stop-color="#F6851F"/>
</linearGradient>
<linearGradient id="paint9_linear" x1="304.041" y1="2330.49" x2="361.935" y2="2330.49" gradientUnits="userSpaceOnUse">
<stop offset="0.3" stop-color="#E87D25"/>
<stop offset="1" stop-color="#F6851F"/>
</linearGradient>
<linearGradient id="paint10_linear" x1="647.829" y1="2906.69" x2="708.858" y2="2906.69" gradientUnits="userSpaceOnUse">
<stop offset="0.3" stop-color="#E87D25"/>
<stop offset="1" stop-color="#F6851F"/>
</linearGradient>
<linearGradient id="paint11_linear" x1="104.797" y1="1984.95" x2="160.004" y2="1984.95" gradientUnits="userSpaceOnUse">
<stop offset="0.3" stop-color="#E87D25"/>
<stop offset="1" stop-color="#F6851F"/>
</linearGradient>
<linearGradient id="paint12_linear" x1="42.04" y1="1870.06" x2="71.9712" y2="1870.06" gradientUnits="userSpaceOnUse">
<stop offset="0.3" stop-color="#E87D25"/>
<stop offset="1" stop-color="#F6851F"/>
</linearGradient>
<linearGradient id="paint13_linear" x1="0" y1="4184.09" x2="33625.4" y2="4184.09" gradientUnits="userSpaceOnUse">
<stop offset="0.3" stop-color="#E87D25"/>
<stop offset="1" stop-color="#F6851F"/>
</linearGradient>
<linearGradient id="paint14_linear" x1="717.173" y1="3145.18" x2="767.722" y2="3145.18" gradientUnits="userSpaceOnUse">
<stop offset="0.3" stop-color="#E87D25"/>
<stop offset="1" stop-color="#F6851F"/>
</linearGradient>
<clipPath id="clip0">
<rect width="113" height="77" fill="white"/>
</clipPath>
</defs>
</svg>
