<svg width="45" height="45" fill="none" xmlns="http://www.w3.org/2000/svg"><g clip-path="url(#clip0)" fill="#FF7029"><path d="M42.855 26.358h-.674v-6.066c0-.96-.478-1.81-1.208-2.327v-.826a2.175 2.175 0 00-2.172-2.173h-.503l1.924-2.823a2.08 2.08 0 00-.547-2.885L26.621.36a2.062 2.062 0 00-1.556-.324 2.063 2.063 0 00-1.33.871L12.467 17.442H9.332l.756-7.658a.227.227 0 01.143-.19 4.875 4.875 0 002.378-1.932.226.226 0 01.213-.1l4.918.485a.641.641 0 00.126-1.276l-4.918-.486a1.5 1.5 0 00-1.42.688 3.584 3.584 0 01-1.75 1.42 1.5 1.5 0 00-.966 1.265l-.769 7.784h-.818L8.422 5.33a.795.795 0 01.868-.712l9.939.982a.642.642 0 00.126-1.276l-9.939-.982a2.08 2.08 0 00-2.27 1.862l-.965 9.762H4.54a2.175 2.175 0 00-2.173 2.173v.563a2.853 2.853 0 00-1.662 2.59V42.15A2.853 2.853 0 003.554 45H39.33a2.853 2.853 0 002.85-2.85v-6.066h.674c.795 0 1.441-.646 1.441-1.441v-6.844c0-.794-.646-1.441-1.441-1.441zM38.8 16.248c.49 0 .89.4.89.891v.327a2.867 2.867 0 00-.36-.024h-2.72l.813-1.193H38.8zM24.795 1.63a.79.79 0 01.658-.347.79.79 0 01.445.138l13.055 8.896a.795.795 0 01.209 1.104l-4.103 6.021h-.985l2.012-2.952a1.499 1.499 0 00.07-1.59 3.584 3.584 0 01-.43-2.212 1.5 1.5 0 00-.648-1.44l-6.768-4.61a1.5 1.5 0 00-1.577-.078c-.67.37-1.457.515-2.215.409a1.518 1.518 0 00-1.455.647l-8.06 11.826h-.984L24.795 1.63zm.282 10.889a5.291 5.291 0 00-5.271 4.923h-3.25l7.567-11.104a.229.229 0 01.217-.099 4.875 4.875 0 003.013-.556.226.226 0 01.235.014l6.767 4.612c.071.048.11.132.1.213a4.874 4.874 0 00.584 3.008.227.227 0 01-.013.238l-2.504 3.674H30.35a5.291 5.291 0 00-5.272-4.923zm3.986 4.923H21.09a4.008 4.008 0 013.986-3.64 4.007 4.007 0 013.986 3.64zM3.649 17.14c0-.49.399-.89.89-.89h1.516l-.118 1.193H3.649v-.303zm-1.663 3.153a1.57 1.57 0 011.568-1.567H39.33a1.57 1.57 0 011.568 1.567v1.78H1.986v-1.78zM40.9 42.15a1.57 1.57 0 01-1.568 1.568H3.554a1.57 1.57 0 01-1.568-1.568v-1.78h3.458a.641.641 0 100-1.281H1.986V23.354H40.9v3.004h-6.097a4.869 4.869 0 00-4.375 2.74l-.008.017c-.007.013-.012.028-.019.042-.094.2-.176.406-.242.62v.001c-.143.456-.22.94-.22 1.443a4.869 4.869 0 004.864 4.863H40.9v3.005H9.549a.641.641 0 100 1.282H40.9v1.78zm2.115-7.507a.16.16 0 01-.16.159h-8.052a3.584 3.584 0 01-3.227-5.132 3.584 3.584 0 013.227-2.03h8.053a.16.16 0 01.159.16v6.843z"/><path d="M34.952 28.62a2.604 2.604 0 00-2.601 2.601 2.604 2.604 0 002.601 2.602 2.604 2.604 0 002.602-2.602 2.604 2.604 0 00-2.602-2.601zm0 3.92a1.32 1.32 0 01-1.319-1.319 1.32 1.32 0 012.638 0 1.32 1.32 0 01-1.319 1.32z"/></g><defs><clipPath id="clip0"><path fill="#fff" d="M0 0h45v45H0z"/></clipPath></defs></svg>