<svg width="45" height="45" fill="none" xmlns="http://www.w3.org/2000/svg"><path d="M7.031 40.781a.703.703 0 100-1.406.703.703 0 000 1.406zM22.5 32.344h1.406v1.406H22.5v-1.406zm2.813 0h1.406v1.406h-1.407v-1.406zm-4.219-5.625H18.28a.703.703 0 00-.703.703v2.812a.703.703 0 00.703.703h2.813a.703.703 0 00.703-.703v-2.812a.703.703 0 00-.703-.703zm-.703 2.812h-1.407v-1.406h1.407v1.406zm15.469 2.813h1.406v1.406h-1.407v-1.406zm2.812 0h1.406v1.406h-1.406v-1.406zm-7.032-1.406h2.813a.703.703 0 00.703-.704v-2.812a.703.703 0 00-.703-.703h-2.812a.703.703 0 00-.703.703v2.812a.703.703 0 00.703.703zm.704-2.813h1.406v1.406h-1.406v-1.406zM22.5 21.094h1.406V22.5H22.5v-1.406zm2.813 0h1.406V22.5h-1.407v-1.406zm-7.032-1.406h2.813a.703.703 0 00.703-.704v-2.812a.703.703 0 00-.703-.703H18.28a.703.703 0 00-.703.703v2.812a.703.703 0 00.703.703zm.703-2.813h1.407v1.406h-1.407v-1.406zm16.876 4.219h1.406V22.5h-1.407v-1.406zm2.812 0h1.406V22.5h-1.406v-1.406zm-7.032-1.406h2.813a.703.703 0 00.703-.704v-2.812a.703.703 0 00-.703-.703h-2.812a.703.703 0 00-.703.703v2.812a.703.703 0 00.703.703zm.704-2.813h1.406v1.406h-1.406v-1.406z" fill="#FF7029"/><path d="M42.188 1.406h-26.72a.703.703 0 00-.702.703v34.453H12.91L8.888 33.21a.703.703 0 00-.45-.163h-.704V21.229l1.356-3.39a.703.703 0 00.05-.26v-2.813a.703.703 0 00-.703-.704H2.814a.703.703 0 00-.704.704v2.812c0 .09.017.178.05.261l1.357 3.39v11.818h-.704a.703.703 0 00-.703.703v5.625a.703.703 0 00.704.703h.703a3.516 3.516 0 007.03 0h4.22v2.813a.703.703 0 00.703.703h4.219a.704.704 0 00.703-.703v-2.813h5.625v2.813a.703.703 0 00.703.703h4.218a.704.704 0 00.704-.703v-2.813h5.625v2.813a.703.703 0 00.703.703h4.218a.704.704 0 00.704-.703V2.109a.703.703 0 00-.703-.703zM16.172 38.672v-2.11h25.312v2.11H16.172zm25.312-14.766H29.531v-9.843h11.953v9.843zm0 11.25H29.531v-9.843h11.953v9.843zm-25.312 0v-9.843h11.953v9.843H16.172zm11.953-11.25H16.172v-9.843h11.953v9.843zm13.36-11.25H29.53V2.812h11.953v9.844zM16.171 2.812h11.953v9.844H16.172V2.812zM3.516 15.47h4.218v1.974L6.555 20.39h-.227v-3.516H4.922v3.516h-.227l-1.18-2.948v-1.974zm1.406 6.328h1.406v11.25H4.922v-11.25zm2.11 20.39a2.11 2.11 0 110-4.218 2.11 2.11 0 010 4.218zm3.22-3.515a3.514 3.514 0 00-6.442 0h-.294v-4.219h4.667l3.77 3.142v1.077h-1.7zm3.107-.703h1.407v.703h-1.407v-.703zm5.625 4.218h-2.812v-2.109h2.812v2.11zm11.25 0h-2.812v-2.109h2.812v2.11zm11.25 0h-2.812v-2.109h2.812v2.11z" fill="#FF7029"/><path d="M22.5 9.844h1.406v1.406H22.5V9.844zm2.813 0h1.406v1.406h-1.407V9.844zm-4.219-5.625H18.28a.703.703 0 00-.703.703v2.812a.703.703 0 00.703.704h2.813a.703.703 0 00.703-.704V4.922a.703.703 0 00-.703-.703zM20.39 7.03h-1.407V5.625h1.407v1.406zm15.47 2.814h1.406v1.406h-1.407V9.844zm2.812 0h1.406v1.406h-1.406V9.844zM31.64 8.438h2.813a.703.703 0 00.703-.704V4.922a.703.703 0 00-.703-.703h-2.812a.703.703 0 00-.703.703v2.812a.703.703 0 00.703.704zm.704-2.813h1.406v1.406h-1.406V5.625z" fill="#FF7029"/></svg>