<svg width="45" height="45" fill="none" xmlns="http://www.w3.org/2000/svg"><g clip-path="url(#clip0)" fill="#FF7029"><path d="M21.211 26.955H10.066a.66.66 0 110-1.318h11.145a.66.66 0 010 1.318zm0-2.809H10.066a.66.66 0 110-1.318h11.145a.66.66 0 110 1.318zM10.15 34.979h-.016a.66.66 0 100 1.318h.016a.66.66 0 000-1.318zm10.993 1.318h.018a.66.66 0 000-1.318h-.018a.66.66 0 000 1.318z"/><path d="M44.34 2.69h-6.195a2.392 2.392 0 00-2.39 2.39v4.01a1.788 1.788 0 00-1.53 1.766v3.955a.66.66 0 101.317 0v-3.955c0-.254.216-.468.47-.468h4.265c.255 0 .47.214.47.468v3.548c0 .187.08.365.218.49.994.895.994 1.134.994 1.71v5.669c0 .257-.21.467-.467.467h-5.48a.47.47 0 01-.47-.467v-4.32a.66.66 0 10-1.318 0v4.32c0 .897.667 1.64 1.532 1.765v7.378H32.51a2.303 2.303 0 00-2.202-1.642h-.983V8.784a2.913 2.913 0 00-2.91-2.91h-3.284l-.909-2.586c-.34-.975-1.249-1.322-1.985-1.322H10.092c-.704 0-1.647.346-1.988 1.32l-.909 2.588H3.911A2.913 2.913 0 001 8.784v30.194a1.28 1.28 0 00-1 1.247v1.531a1.28 1.28 0 001.278 1.278h27.771a1.28 1.28 0 001.278-1.278v-1.531c0-.61-.429-1.12-1-1.247v-1.144h.982a2.302 2.302 0 002.202-1.64h5.634a2.392 2.392 0 002.389-2.39v-9.746h.958c.984 0 1.785-.8 1.785-1.785v-5.669c0-.82-.061-1.396-1.212-2.488v-3.26c0-.898-.667-1.64-1.531-1.765V7.029h3.807a.66.66 0 00.659-.66V3.35a.66.66 0 00-.66-.659zM9.349 3.723c.143-.407.605-.439.743-.439h10.147c.138 0 .598.032.741.44l.755 2.15H8.593l.755-2.151zM2.32 8.783c0-.848.669-1.542 1.506-1.587l1.08 9.515c.23 2.036 1.901 2.758 3.263 2.758h5.376a.66.66 0 100-1.319H8.168c-.533 0-1.791-.154-1.953-1.587l-1.063-9.37h20.023l-1.063 9.37c-.162 1.433-1.418 1.588-1.95 1.588h-5.69a.66.66 0 000 1.318h5.69c1.36 0 3.03-.723 3.26-2.758l1.08-9.515a1.592 1.592 0 011.506 1.588v18.158a4.078 4.078 0 01-4.073 4.074H6.392a4.078 4.078 0 01-4.074-4.074V8.784zm7.747 28.26a1.406 1.406 0 010-2.81.66.66 0 00.66-.66v-1.239h9.826v1.24a.66.66 0 00.66.659 1.406 1.406 0 010 2.81.66.66 0 00-.66.66v1.244h-9.826v-1.244a.66.66 0 00-.66-.66zm11.804 1.238a2.728 2.728 0 002.062-2.643 2.728 2.728 0 00-2.062-2.643v-.66h2.064a5.38 5.38 0 004.074-1.866v8.478H21.87v-.666zM2.32 30.469a5.38 5.38 0 004.073 1.865h3.014v.661a2.729 2.729 0 00-2.064 2.643c0 1.275.88 2.348 2.064 2.643v.666H2.32V30.47zm26.689 11.247H1.319v-1.45h27.69v1.45zm2.28-6.181c0 .54-.44.98-.98.98h-.983v-5.423h.983c.54 0 .98.44.98.983v3.46zm7.927-1.73c0 .59-.48 1.07-1.071 1.07h-5.537v-2.141h3.807a.66.66 0 00.659-.66v-8.016h2.142v9.747zM43.682 5.71h-3.807a.66.66 0 00-.66.66v2.7h-2.141V5.08c0-.591.48-1.072 1.07-1.072h5.538V5.71z"/><path d="M19.258 12.468a4.099 4.099 0 00-4.095-4.095 4.099 4.099 0 00-4.094 4.095 4.099 4.099 0 004.094 4.094 4.099 4.099 0 004.095-4.094zm-4.754 1.92v.776a2.785 2.785 0 01-2.037-2.037h.775a.66.66 0 100-1.319h-.775a2.785 2.785 0 012.037-2.037v.775a.66.66 0 001.319 0v-.775a2.785 2.785 0 012.037 2.037h-.775a.66.66 0 000 1.319h.775a2.785 2.785 0 01-2.037 2.037v-.775a.66.66 0 00-1.319 0z"/></g><defs><clipPath id="clip0"><path fill="#fff" d="M0 0h45v45H0z"/></clipPath></defs></svg>