<svg width="45" height="45" fill="none" xmlns="http://www.w3.org/2000/svg"><path d="M3.516 31.64a.703.703 0 100-1.406.703.703 0 000 1.407zm37.968 0a.703.703 0 100-1.406.703.703 0 000 1.407zM3.516 40.078a.703.703 0 100-1.406.703.703 0 000 1.406zm37.968 0a.703.703 0 100-1.406.703.703 0 000 1.406zM3.516 18.984a.703.703 0 100-1.406.703.703 0 000 1.406zm37.968 0a.703.703 0 100-1.406.703.703 0 000 1.406zM3.516 27.422a.703.703 0 100-1.406.703.703 0 000 1.406zm37.968 0a.703.703 0 100-1.406.703.703 0 000 1.406z" fill="#FF7029"/><path d="M43.594 8.438a.703.703 0 00.703-.704V3.516a.703.703 0 00-.703-.704H1.406a.703.703 0 00-.703.704v4.218a.703.703 0 00.703.704h2.11v2.812h-2.11a.703.703 0 00-.703.703v8.438a.703.703 0 00.703.703h2.11v2.812h-2.11a.703.703 0 00-.703.703v8.438a.703.703 0 00.703.703h2.11v2.813h-2.11a.703.703 0 00-.703.703v4.218a.703.703 0 00.703.703h42.188a.703.703 0 00.703-.703v-4.218a.703.703 0 00-.703-.703h-2.11V33.75h2.11a.703.703 0 00.703-.703v-8.438a.703.703 0 00-.703-.703h-2.11v-2.812h2.11a.703.703 0 00.703-.703v-8.438a.703.703 0 00-.703-.703h-2.11V8.437h2.11zm-.703 29.53v2.813H2.109V37.97h40.782zM4.92 36.563V33.75h2.11v2.813H4.92zm3.516 0V33.75h5.626v2.813H8.436zm7.032 0V33.75h2.11v2.813h-2.11zm3.515 0V33.75h7.032v2.813h-7.032zm8.438 0V33.75h2.11v2.813h-2.11zm3.515 0V33.75h5.625v2.813h-5.624zm7.032 0V33.75h2.11v2.813h-2.11zm4.922-4.218H2.109V29.53h40.782v2.813zm0-7.032v2.813H2.109v-2.813h40.782zM4.92 23.907v-2.812h2.11v2.812H4.92zm3.516 0v-2.812h5.626v2.812H8.436zm7.032 0v-2.812h2.11v2.812h-2.11zm3.515 0v-2.812h7.032v2.812h-7.032zm8.438 0v-2.812h2.11v2.812h-2.11zm3.515 0v-2.812h5.625v2.812h-5.624zm7.032 0v-2.812h2.11v2.812h-2.11zm4.922-4.218H2.109v-2.813h40.782v2.813zm0-7.032v2.813H2.109v-2.813h40.782zM4.92 11.25V8.437h2.11v2.813H4.92zm3.516 0V8.437h5.626v2.813H8.436zm7.032 0V8.437h2.11v2.813h-2.11zm3.515 0V8.437h7.032v2.813h-7.032zm8.438 0V8.437h2.11v2.813h-2.11zm3.515 0V8.437h5.625v2.813h-5.624zm7.032 0V8.437h2.11v2.813h-2.11zM2.109 7.031V4.22h40.782v2.81H2.109z" fill="#FF7029"/><path d="M3.516 6.328a.703.703 0 100-1.406.703.703 0 000 1.406zm37.968 0a.703.703 0 100-1.406.703.703 0 000 1.406zM3.516 14.766a.703.703 0 100-1.407.703.703 0 000 1.407zm37.968 0a.703.703 0 100-1.407.703.703 0 000 1.407z" fill="#FF7029"/></svg>