<svg width="45" height="45" fill="none" xmlns="http://www.w3.org/2000/svg"><path d="M22.5 0C10.093 0 0 10.094 0 22.5S10.093 45 22.5 45 45 34.906 45 22.5 34.907 0 22.5 0zm0 43.548c-11.606 0-21.048-9.442-21.048-21.048 0-11.606 9.442-21.048 21.048-21.048 11.606 0 21.048 9.442 21.048 21.048 0 11.606-9.442 21.048-21.048 21.048z" fill="#FF7029"/><path d="M38.974 19.807l.003-.003-.004-.003C37.678 11.876 30.786 5.806 22.5 5.806S7.322 11.876 6.028 19.801l-.004.004.003.002a16.72 16.72 0 00-.22 2.693c0 9.205 7.488 16.694 16.693 16.694 9.205 0 16.694-7.49 16.694-16.694 0-.917-.078-1.816-.22-2.693zM22.5 7.258c6.904 0 12.742 4.618 14.61 10.924-4.108-3.194-9.503-5.117-14.61-5.117-5.107 0-10.5 1.923-14.61 5.118C9.758 11.876 15.596 7.258 22.5 7.258zM8.193 27.705c1.012-.891 3.706-3.028 6.323-3.028 2.646 0 4.355 1.995 4.355 5.08 0 2.95-1.447 5.584-2.24 6.807a15.31 15.31 0 01-8.438-8.859zm20.174 8.86c-.793-1.22-2.238-3.848-2.238-6.807 0-3.086 1.71-5.08 4.355-5.08 2.61 0 5.308 2.136 6.322 3.029a15.31 15.31 0 01-8.44 8.858zm8.903-10.371c-1.385-1.136-4.044-2.968-6.786-2.968-3.419 0-5.806 2.686-5.806 6.532 0 3.123 1.379 5.854 2.287 7.314a15.199 15.199 0 01-8.93 0c.909-1.46 2.288-4.19 2.288-7.314 0-3.846-2.388-6.532-5.807-6.532-2.742 0-5.401 1.832-6.786 2.968a15.159 15.159 0 01-.472-3.694c0-.679.06-1.342.147-1.997 3.97-3.7 9.703-5.987 15.095-5.987 5.393 0 11.125 2.286 15.096 5.987.086.655.146 1.318.146 1.997 0 1.276-.175 2.508-.472 3.694z" fill="#FF7029"/><path d="M22.5 16.693a3.633 3.633 0 00-3.63 3.63 3.633 3.633 0 003.63 3.629 3.633 3.633 0 003.63-3.63 3.633 3.633 0 00-3.63-3.629zm0 5.807a2.18 2.18 0 01-2.177-2.177c0-1.2.977-2.178 2.177-2.178 1.2 0 2.177.977 2.177 2.178A2.18 2.18 0 0122.5 22.5zm21.1-12.069l1.348-.539c-1.512-3.782-6.03-8.301-9.059-9.816l-.65 1.299c2.74 1.37 6.989 5.624 8.36 9.056zm-26.18 9.166h-1.452v1.451h1.451v-1.451zm11.612 0h-1.451v1.451h1.451v-1.451zm-7.258 21.048h-1.451v1.452h1.451v-1.452zm2.903 0h-1.451v1.452h1.451v-1.452zM1.4 34.569l-1.348.539c1.513 3.782 6.031 8.301 9.059 9.815l.65-1.298C7.02 42.255 2.772 38 1.4 34.569z" fill="#FF7029"/></svg>