<svg width="24" height="16" viewBox="0 0 24 16" fill="none" xmlns="http://www.w3.org/2000/svg">
<path fill-rule="evenodd" clip-rule="evenodd" d="M21.3903 0.489387C22.4182 0.752997 23.2288 1.52465 23.5055 2.5036C24.0197 4.29168 23.9999 8.01883 23.9999 8.01883C23.9999 8.01883 23.9999 11.727 23.5057 13.5152C23.2288 14.494 22.4184 15.2658 21.3903 15.5293C19.5122 16 12 16 12 16C12 16 4.50731 16 2.60961 15.5106C1.58148 15.247 0.771054 14.4752 0.4942 13.4964C0 11.727 0 8 0 8C0 8 0 4.29168 0.4942 2.5036C0.770871 1.52482 1.60125 0.734167 2.60943 0.470732C4.48753 0 11.9998 0 11.9998 0C11.9998 0 19.5122 0 21.3903 0.489387ZM16 8L10 12V4L16 8Z" fill="white"/>
</svg>
