<svg width="24" height="24" viewBox="0 0 24 24" fill="none" xmlns="http://www.w3.org/2000/svg">
<path d="M14.5024 9.71206C16.1842 11.393 18.6956 11.7113 23.1428 11.7713C23.0227 5.86552 18.319 1.09743 12.4414 0.867472C12.4946 5.44165 12.7967 8.00546 14.5024 9.71206ZM9.71286 9.71206C11.4204 8.0046 11.7207 5.43822 11.7747 0.857178C5.7951 0.976441 0.977245 5.79345 0.857117 11.7731C5.43902 11.7199 8.00454 11.4187 9.712 9.71121L9.71286 9.71206ZM14.5024 14.5016C12.8233 16.1817 12.5041 18.6914 12.4431 23.1317C18.2486 22.9026 22.9034 18.2478 23.1325 12.4432C18.6922 12.5033 16.1825 12.8225 14.5024 14.5025V14.5016ZM9.71286 14.5016C8.0054 12.7959 5.44245 12.4938 0.868268 12.4406C1.09822 18.3182 5.86632 23.0228 11.7713 23.1429C11.7113 18.6948 11.3938 16.1834 9.712 14.5025L9.71286 14.5016Z" fill="white"/>
</svg>
