<svg width="12" height="19" viewBox="0 0 12 19" fill="none" xmlns="http://www.w3.org/2000/svg">
<path d="M5.93423 10.2821C8.77353 10.2821 11.0753 7.98035 11.0753 5.14101C11.0753 2.30168 8.77357 0 5.93423 0C3.09489 0 0.793213 2.30171 0.793213 5.14105C0.796698 7.9789 3.09638 10.2786 5.93423 10.2821ZM5.93423 2.37279C7.46309 2.37279 8.7025 3.61216 8.7025 5.14105C8.7025 6.66994 7.46312 7.90931 5.93423 7.90931C4.40534 7.90931 3.16596 6.66994 3.16596 5.14105C3.16596 3.61216 4.40538 2.37279 5.93423 2.37279Z" fill="white"/>
<path d="M10.9679 12.7182C11.5266 12.3502 11.8633 11.7263 11.864 11.0572C11.8718 10.502 11.5585 9.99216 11.0597 9.74824C10.5471 9.49224 9.93363 9.54989 9.4778 9.89695C7.36517 11.4371 4.49977 11.4371 2.38714 9.89695C1.9306 9.55171 1.31816 9.49413 0.805266 9.74824C0.306647 9.99212 -0.0068203 10.5014 0.000112686 11.0564C0.00129908 11.7253 0.337827 12.3491 0.896247 12.7174C1.61268 13.1938 2.39288 13.5666 3.21368 13.8247C3.3529 13.8679 3.49656 13.908 3.64475 13.9449L1.25458 16.2821C0.627567 16.8905 0.612403 17.8919 1.22076 18.519C1.82912 19.146 2.83055 19.1611 3.4576 18.5528C3.47065 18.5401 3.48347 18.5272 3.49608 18.5141L5.93215 15.9926L8.37297 18.5188C8.98081 19.1463 9.98228 19.1623 10.6098 18.5544C11.2373 17.9466 11.2532 16.9451 10.6454 16.3176C10.6326 16.3045 10.6197 16.2916 10.6065 16.2789L8.2203 13.9441C8.36845 13.9061 8.51267 13.8658 8.65292 13.8231C9.47283 13.566 10.2523 13.194 10.9679 12.7182Z" fill="white"/>
</svg>
