<svg width="232" height="79" viewBox="0 0 232 79" fill="none" xmlns="http://www.w3.org/2000/svg">
<path d="M39.1431 7.09924C39.0419 7.2125 38.9609 7.37723 38.9609 7.4596C38.9609 7.55226 39.0419 7.71699 39.1431 7.83025C39.2948 8.02587 39.4972 8.05676 41.2577 8.15972C44.7484 8.35534 47.7332 9.00398 50.9811 10.2807C51.487 10.4866 51.9119 10.6719 51.9119 10.6925C51.9119 10.7234 51.7804 11.0117 51.6084 11.3514C51.1632 12.2472 51.1733 12.2781 51.9929 12.2678C52.3673 12.2678 53.3082 12.206 54.0873 12.1442C55.4026 12.031 55.5038 12.0001 55.4937 11.8147C55.4937 11.5368 53.3487 8.36563 53.1666 8.36563C53.0856 8.36563 52.9035 8.62303 52.7517 8.93191C52.6 9.24078 52.4381 9.49818 52.3976 9.49818C52.3571 9.49818 51.8411 9.31285 51.2543 9.08634C47.9153 7.79936 44.4651 7.06835 41.0857 6.9551C39.4162 6.90362 39.3049 6.90362 39.1431 7.09924Z" fill="white"/>
<path d="M32.4954 7.33574C32.2526 7.38722 29.5511 8.27266 26.4955 9.29195L20.9407 11.1555L18.1886 10.1465L15.4365 9.13751L14.7789 8.51976C14.1313 7.90201 14.1111 7.89172 13.7468 7.99467C13.5343 8.04615 13.3623 8.12852 13.3623 8.18C13.3623 8.23148 13.4736 8.55065 13.6153 8.89041C13.7974 9.33314 14.2527 9.95089 15.1836 11.0628C15.902 11.9277 16.4686 12.6587 16.4382 12.6999C16.418 12.7411 16.2662 12.8028 16.1144 12.8337C15.9627 12.8749 14.3944 13.4103 12.6136 14.0281L9.38598 15.1606L7.23085 13.6677C6.03693 12.844 4.98466 12.1748 4.8936 12.1748C4.79242 12.1748 4.499 12.2778 4.23593 12.4116L3.77051 12.6381L5.48044 16.1387C7.12967 19.4952 7.21062 19.6393 7.47368 19.6187C7.62545 19.6084 9.68952 19.0318 12.0672 18.342C14.445 17.6419 16.418 17.1065 16.4483 17.1374C16.4989 17.1889 16.0638 18.8259 15.2746 21.5646L15.0723 22.2647L14.7991 22.0691C14.6473 21.9662 14.3741 21.8426 14.1819 21.8117C13.8581 21.75 13.848 21.7602 13.9087 22.0073C14.0402 22.5221 14.3843 23.3973 14.4956 23.4591C14.5563 23.5002 14.9104 23.5929 15.2746 23.665L15.9424 23.7988L16.3573 23.3149C16.934 22.6457 19.8682 19.1039 21.7603 16.7873L23.3285 14.8723L25.3521 14.1722C30.8361 12.2983 35.5308 10.2598 36.1885 9.46698C36.9979 8.48888 35.7635 7.37692 33.7501 7.28426C33.3049 7.26367 32.7383 7.28426 32.4954 7.33574ZM34.4178 8.15941C34.519 8.15941 34.9136 8.58154 34.9136 8.6742C34.9136 8.95219 33.1936 9.47728 32.8394 9.31254C32.6573 9.21988 32.3841 8.62272 32.3841 8.28296C32.3841 8.13882 33.4769 7.98438 33.9524 8.07704C34.175 8.11822 34.3875 8.14911 34.4178 8.15941Z" fill="white"/>
<path d="M73.0587 13.2558V18.1463H70.8327C68.8193 18.1463 68.6068 18.1258 68.5258 17.961C68.4752 17.8684 67.9896 16.2107 67.4432 14.2854C66.8968 12.3601 66.3909 10.6613 66.3201 10.5068C66.1279 10.1156 65.8749 10.095 61.7974 10.1362C58.4382 10.1671 58.2662 10.1773 58.1246 10.3627C58.0031 10.5377 57.9829 11.6085 57.9829 17.0344C57.9829 23.4281 57.9829 23.5002 58.1954 23.7164C58.3269 23.8503 58.4989 23.912 58.6709 23.8914C58.9138 23.8606 58.9542 23.8091 59.0048 23.3869C59.0858 22.8516 59.622 21.9043 60.0571 21.5646C60.2089 21.441 60.6439 21.2454 61.0082 21.1219C61.6051 20.9365 61.7468 20.9262 62.3134 21.0395C63.477 21.2557 64.4078 22.172 64.6709 23.3458L64.7923 23.912H65.622H66.4618L66.5225 23.459C66.6135 22.8413 67.1498 21.9764 67.7063 21.5749C68.2729 21.163 69.2139 20.8953 69.7703 20.988C71.025 21.1939 72.0469 22.2235 72.2189 23.4487C72.2796 23.912 72.2796 23.912 72.6641 23.912C73.0081 23.912 73.0587 23.9429 73.0587 24.1591C73.0587 24.293 73.1497 24.5092 73.2509 24.643L73.4432 24.8901H76.9743H80.4954L80.5257 24.3445L80.5561 23.8091H77.3184H74.0705V16.0872V8.36528H73.5646H73.0587V13.2558ZM64.934 11.9894C65.025 12.113 66.6844 17.8787 66.6844 18.064C66.6844 18.3111 66.2898 18.0537 65.5714 17.3433C64.4989 16.3137 64.4685 16.2416 64.8125 15.8813C64.9845 15.6959 65.0655 15.5106 65.0453 15.3562C64.9845 14.862 64.6709 15.0061 63.74 15.9533C63.0115 16.6946 62.8598 16.9108 62.9104 17.0962C62.9913 17.405 63.3151 17.3845 63.6692 17.0447L63.9525 16.7667L64.5596 17.3742C64.8935 17.7139 65.1667 18.0228 65.1667 18.064C65.1667 18.1155 63.9525 18.1361 62.4652 18.1258L59.7536 18.0949L59.7232 15.1091C59.7131 13.472 59.7232 12.0718 59.7536 11.9997C59.8244 11.8041 64.7923 11.8041 64.934 11.9894Z" fill="white"/>
<path d="M60.8064 21.9561C59.4505 22.6871 59.2077 24.4477 60.3207 25.5287C61.201 26.373 62.4556 26.3627 63.3055 25.4978C63.8215 24.983 63.9935 24.4888 63.9328 23.6961C63.8822 22.9651 63.4978 22.337 62.8907 21.987C62.3645 21.6781 61.3426 21.6678 60.8064 21.9561Z" fill="white"/>
<path d="M68.455 21.8835C68.0402 22.0791 67.4432 22.7689 67.2915 23.2425C67.0992 23.85 67.2105 24.6736 67.5545 25.1679C68.3538 26.321 70.2762 26.4136 71.0654 25.3326C71.8445 24.2721 71.6219 22.7895 70.5697 22.0585C70.2661 21.8526 70.0435 21.8011 69.4769 21.7702C69.0317 21.7599 68.6473 21.8011 68.455 21.8835Z" fill="white"/>
<path d="M36.9276 22.1098C35.5313 22.3363 33.5684 22.882 33.3256 23.1291C33.0625 23.3865 31.6359 27.3092 31.7573 27.4328C31.9698 27.6387 37.0288 28.2255 38.6375 28.2358H39.1637V25.0956V21.9554L38.4858 21.9657C38.1013 21.9759 37.4031 22.0377 36.9276 22.1098Z" fill="white"/>
<path d="M39.9722 25.075V28.2358H40.2555C41.3077 28.2358 44.242 27.8652 46.215 27.5048L47.3583 27.2886L47.2976 27.0106C47.2065 26.6194 46.2554 24.0454 46.0025 23.4997C45.8001 23.057 45.7597 23.0364 44.9097 22.7584C43.6753 22.3569 42.1981 22.0686 41.0042 21.9965L39.9722 21.9245V25.075Z" fill="white"/>
<path d="M11.4913 23.6236C11.1878 23.7986 8.55709 25.8372 8.41544 26.0122C8.23332 26.2284 8.32438 26.3314 8.98205 26.5888C9.30582 26.7226 9.57901 26.8359 9.59924 26.8565C9.61948 26.8668 9.42724 27.433 9.18441 28.1126C8.32438 30.4394 7.67683 33.0031 7.34293 35.4947C7.12034 37.07 6.97869 40.0249 7.05963 41.2398C7.13046 42.3517 7.22152 42.5474 7.68695 42.5474C8.19284 42.5474 8.24343 42.3723 8.21308 40.7662C8.15237 36.9773 8.65827 33.5385 9.82184 29.9864C10.4795 27.9684 10.692 27.4124 10.8235 27.4124C10.8741 27.4124 11.1776 27.536 11.5014 27.6801C12.3614 28.0714 12.3716 28.0405 12.0781 25.7445C11.805 23.5618 11.7746 23.4588 11.4913 23.6236Z" fill="white"/>
<path d="M31.0088 24.1495C29.228 25.2203 27.7306 26.3734 27.9532 26.4867C28.2162 26.6411 30.5838 27.2177 30.7862 27.1868C30.9481 27.1662 31.0998 26.8367 31.5855 25.4674C31.9093 24.5408 32.1825 23.7377 32.1825 23.6862C32.1825 23.5112 31.889 23.6244 31.0088 24.1495Z" fill="white"/>
<path d="M46.9546 23.675C46.9546 23.7574 47.8956 26.4446 48.0676 26.8668L48.1586 27.0933L49.5043 26.7226C50.2429 26.527 50.9107 26.3314 50.9816 26.2902C51.194 26.1666 49.0187 24.6017 47.6932 23.9221C47.0153 23.5824 46.9546 23.5618 46.9546 23.675Z" fill="white"/>
<path d="M49.9996 27.3614C49.1497 27.6085 48.4313 27.8247 48.411 27.8453C48.4009 27.8659 48.5831 28.6484 48.8259 29.575C49.0788 30.5016 49.3824 31.8092 49.5038 32.4784L49.7365 33.6934H52.954H56.1715L56.1007 33.4566C55.8984 32.7873 54.9473 30.9341 54.2795 29.9148C53.5409 28.7719 51.9017 26.8878 51.669 26.9084C51.6083 26.9084 50.8596 27.1143 49.9996 27.3614Z" fill="white"/>
<path d="M26.2731 28.0515C25.8279 28.556 25.1702 29.4208 24.8161 29.9665C24.1888 30.9137 22.9746 33.2921 22.9746 33.57C22.9746 33.673 23.6525 33.6936 26.182 33.673L29.3793 33.6421L29.7031 32.0977C29.8852 31.2432 30.1786 29.9974 30.3506 29.3281C30.5327 28.6589 30.6339 28.0721 30.5934 28.0309C30.5125 27.9691 27.2242 27.0939 27.123 27.1145C27.0926 27.1145 26.7081 27.5367 26.2731 28.0515Z" fill="white"/>
<path d="M45.8001 28.3498C43.817 28.7102 41.7934 28.9573 40.7614 28.9573H39.9722V31.3253V33.6934H44.4747H48.9772L48.9266 33.4566C48.9063 33.333 48.7444 32.5814 48.5724 31.7886C48.1475 29.7603 47.6618 28.0306 47.5202 28.0409C47.4595 28.0512 46.6905 28.1851 45.8001 28.3498Z" fill="white"/>
<path d="M31.2819 28.7822C31.0998 29.3897 30.341 32.6535 30.2195 33.3536L30.1689 33.6934H34.6613H39.1638V31.3459V28.9881L37.3729 28.9264C35.7136 28.8646 32.7288 28.5042 31.8182 28.2468L31.4742 28.1542L31.2819 28.7822Z" fill="white"/>
<path d="M69.74 30.2128C69.5781 30.3775 69.5882 30.8614 69.7805 31.4792C70.084 32.4882 70.5292 34.6915 70.681 35.9476C71.2678 40.8278 70.7215 46.0169 69.1532 50.5471L68.9002 51.2781L68.2426 50.9693C67.7872 50.753 67.5444 50.6913 67.4736 50.7633C67.4028 50.8354 67.4432 51.4943 67.5849 52.8328C67.7063 53.9139 67.7974 54.8405 67.7974 54.9023C67.7974 55.1803 68.283 54.9229 69.5781 53.9654C71.3083 52.6887 71.4095 52.596 71.2476 52.4004C71.1869 52.318 70.8833 52.143 70.5798 52.0194C70.2763 51.8959 70.0233 51.7517 70.0233 51.7003C70.0233 51.6488 70.1346 51.309 70.2661 50.9487C70.9339 49.1572 71.622 46.089 71.8951 43.7313C72.0975 41.9913 72.0975 38.2127 71.8951 36.3697C71.7231 34.743 71.4297 33.1265 71.0655 31.6851C70.7113 30.2746 70.6102 30.0892 70.1953 30.0892C70.0132 30.0892 69.8108 30.1407 69.74 30.2128Z" fill="white"/>
<path d="M36.33 35.0002C35.7331 35.3091 35.379 35.7415 35.207 36.3902C35.1462 36.6373 35.1159 38.0684 35.1361 40.2614L35.1665 43.7311L35.4397 44.215C35.8444 44.9049 36.5526 45.2446 37.6049 45.2446C38.6268 45.2343 39.1833 44.9563 39.6184 44.2459L39.9219 43.7517L39.9523 41.7029L39.9928 39.6643H38.7685H37.5442V40.0761V40.4776L38.2828 40.5085L39.0113 40.5394L39.0417 41.569C39.1024 43.5252 38.7685 44.1945 37.6757 44.2768C37.18 44.3077 37.0282 44.2768 36.7348 44.0709C36.0872 43.6179 36.0771 43.5664 36.0771 40.0246C36.0771 36.3593 36.0973 36.246 36.8764 35.8548C37.3924 35.6077 37.6555 35.5974 38.1007 35.8136C38.5661 36.0401 38.7685 36.3902 38.8292 37.1006L38.8899 37.7081H39.4363H39.9826L39.9219 37.0594C39.8815 36.6888 39.7398 36.1843 39.5779 35.8548C39.2137 35.0929 38.7078 34.8046 37.6555 34.7429C36.9675 34.712 36.8258 34.7326 36.33 35.0002Z" fill="white"/>
<path d="M49.039 34.8779C48.4623 35.0839 48.1587 35.3413 47.8653 35.8663L47.6124 36.3194L47.582 39.7994C47.5517 43.6912 47.582 43.9795 48.1992 44.5869C48.6545 45.04 49.1908 45.2356 49.9901 45.2459C51.2042 45.2562 51.8923 44.8958 52.2767 44.0516C52.5196 43.5265 52.5196 43.4956 52.5196 39.9744C52.5196 36.7415 52.4993 36.3811 52.3273 36.0002C52.1047 35.4957 51.5381 35.0015 51.012 34.8368C50.4859 34.6823 49.5247 34.7029 49.039 34.8779ZM50.9209 35.9178C51.0929 36.0105 51.2953 36.2473 51.4167 36.5047C51.5887 36.8959 51.609 37.2151 51.609 40.0259C51.609 42.7646 51.5887 43.1558 51.4268 43.4647C51.1739 43.9795 50.7894 44.2266 50.1722 44.2678C49.5044 44.3193 49.0188 44.0824 48.7253 43.5779C48.5331 43.2485 48.523 43.0117 48.4926 40.3553C48.4522 37.1945 48.523 36.5562 48.9479 36.1237C49.4235 35.6398 50.2329 35.5575 50.9209 35.9178Z" fill="white"/>
<path d="M14.7793 39.9634V45.1216H15.2346H15.6899V42.9595V40.7973H16.6309H17.5617L18.1688 42.9389L18.7759 45.0701L19.3729 45.101C19.8282 45.1216 19.9496 45.101 19.9192 44.998C19.8889 44.926 19.555 43.9067 19.1705 42.7329L18.4724 40.5914L18.867 40.2619C19.5044 39.7265 19.6359 39.3147 19.6359 37.7497C19.6359 36.5348 19.6157 36.3598 19.4032 35.948C19.2413 35.6494 18.9985 35.392 18.6747 35.1861C18.1891 34.8772 18.1688 34.8772 16.4791 34.8463L14.7793 34.8051V39.9634ZM18.2093 36.1024C18.5837 36.4731 18.7658 37.2041 18.7051 38.1307C18.6545 38.8926 18.4825 39.3044 18.0879 39.603C17.845 39.778 17.6224 39.8295 16.7422 39.8501L15.6899 39.8913V37.8115V35.7318L16.7928 35.7729C17.8552 35.8038 17.9159 35.8141 18.2093 36.1024Z" fill="white"/>
<path d="M20.5464 35.289V35.7523H21.5076H22.4688V40.437V45.1216H22.9747H23.4806V40.437V35.7523H24.4418H25.403V35.289V34.8257H22.9747H20.5464V35.289Z" fill="white"/>
<path d="M27.6799 34.9494C27.609 35.1553 25.4033 44.9158 25.4033 45.029C25.4033 45.0908 25.636 45.1217 25.9396 45.1011L26.4657 45.0702L26.7085 43.8553L26.9514 42.6507H28.2971C29.6124 42.6507 29.6529 42.661 29.7035 42.8772C29.7338 43.011 29.8451 43.5464 29.9463 44.0715C30.0475 44.5966 30.1588 45.0496 30.1891 45.0805C30.2094 45.1114 30.4623 45.1217 30.7355 45.1011L31.2313 45.0702L30.0677 39.9429L28.9143 34.8258H28.3173C27.9328 34.8258 27.7102 34.867 27.6799 34.9494ZM28.894 38.8412C29.1571 40.1694 29.3898 41.3637 29.4202 41.4873C29.4707 41.7241 29.4606 41.7241 28.2869 41.7241C27.2144 41.7241 27.1133 41.7035 27.1638 41.5387C27.1841 41.4461 27.4472 40.1591 27.7406 38.6971C28.0947 36.9262 28.2971 36.0922 28.3578 36.2261C28.3982 36.329 28.6411 37.5131 28.894 38.8412Z" fill="white"/>
<path d="M41.2881 39.9634V45.1216H41.794H42.2999V42.9595V40.787L43.2307 40.8179L44.1616 40.8488L44.7687 42.98L45.3758 45.1216H45.9525H46.5191L45.8108 42.8771L45.1026 40.6223L45.568 40.159C46.1447 39.5618 46.2459 39.2118 46.2459 37.7086C46.2459 36.1848 46.0233 35.6185 45.2645 35.1655C44.7889 34.8875 44.7383 34.8772 43.0385 34.8463L41.2881 34.8051V39.9634ZM44.5967 35.9583C45.1329 36.2877 45.2746 36.6893 45.2847 37.8115C45.2847 39.4589 44.88 39.8707 43.2409 39.8707H42.2999V37.8115V35.7523H43.2914C44.0908 35.7523 44.3336 35.7935 44.5967 35.9583Z" fill="white"/>
<path d="M53.6524 39.273C53.6828 43.6076 53.6929 43.7414 53.9054 44.143C54.3506 44.9975 54.816 45.2343 55.9897 45.2446C57.0318 45.2446 57.5681 44.9872 57.9627 44.318L58.2359 43.8341L58.2662 39.3245L58.2966 34.8252H57.7806H57.2747V39.098C57.2747 43.7929 57.2747 43.8238 56.6676 44.143C56.273 44.3489 55.6052 44.3386 55.2409 44.1224C54.6541 43.762 54.644 43.7003 54.644 39.0568V34.8252H54.128H53.6221L53.6524 39.273Z" fill="white"/>
<path d="M59.501 39.9634V45.1216H60.0069H60.5128V43.1139V41.1062H61.7573C63.2851 41.1062 63.7404 40.9312 64.135 40.1693C64.3576 39.7368 64.3677 39.6442 64.3373 37.8424L64.307 35.9789L63.9933 35.5773C63.4773 34.9287 63.3053 34.8772 61.302 34.8463L59.501 34.8154V39.9634ZM63.0625 36.0509L63.3964 36.3495L63.4368 37.6571C63.4773 39.1912 63.4166 39.603 63.0928 39.9325C62.8601 40.1693 62.7792 40.1796 61.6763 40.1796H60.5128V37.966V35.7523H61.6257C62.7084 35.7523 62.7387 35.7626 63.0625 36.0509Z" fill="white"/>
<path d="M5.26838 45.5337C5.14696 45.6057 5.10649 45.9661 5.06602 47.2531L5.01543 48.8798L4.71189 48.9107C4.1554 48.9828 4.1554 48.9725 4.1554 51.5773C4.1554 53.0393 4.11493 54.0689 4.05422 54.1925C3.95304 54.3675 3.83163 54.3881 2.77936 54.3881C1.50449 54.3881 1.22119 54.4705 1.22119 54.8514C1.22119 54.9853 1.4539 56.5914 1.73721 58.4241C2.10145 60.823 2.2937 61.8217 2.42523 62.007L2.60735 62.2644L11.6629 62.2953L20.7286 62.3159L21.0524 61.935C21.6089 61.276 25.7067 54.8926 25.7067 54.6867C25.7067 54.4911 25.6257 54.4911 24.2193 54.5117L22.7421 54.5425L22.6308 54.8823C22.5701 55.0676 22.4487 55.2633 22.3677 55.3147C22.2767 55.3765 19.6359 55.4177 15.8821 55.4177C10.5803 55.4177 9.52804 55.3971 9.35604 55.2735C9.18403 55.1397 9.1638 54.9647 9.13344 53.0599L9.10309 50.9905H7.78775H6.48254V50.5786V50.1668H7.78775C9.24474 50.1668 9.26498 50.1565 9.14356 49.3843C9.09297 49.0857 9.03226 49.0137 8.79955 48.9622C8.50613 48.9107 8.47577 48.8489 8.34424 48.2106C8.2633 47.7782 8.16212 47.6958 7.69669 47.6958C7.19079 47.6958 7.0795 47.809 7.01879 48.3547C6.95808 48.8798 6.87714 48.9725 6.58371 48.8798C6.39147 48.818 6.38136 48.7254 6.38136 47.2325C6.38136 45.7705 6.36112 45.6366 6.18911 45.5337C5.94628 45.3998 5.47074 45.3998 5.26838 45.5337ZM10.722 57.4151C11.2177 57.8063 10.8839 58.6094 10.2161 58.6094C9.72028 58.6094 9.42686 57.7857 9.80123 57.4563C10.1149 57.168 10.3982 57.1577 10.722 57.4151ZM14.7287 57.5078C15.2346 58.2388 14.2127 59.0418 13.6764 58.3417C13.4336 58.0225 13.4133 57.8063 13.6056 57.5592C13.899 57.1577 14.4656 57.1268 14.7287 57.5078ZM6.19923 57.446C6.44206 57.6622 6.43195 58.1461 6.179 58.4035C5.59215 59.0007 4.68154 58.0843 5.23802 57.4563C5.44038 57.2298 5.94628 57.2195 6.19923 57.446ZM18.5432 57.446C18.786 57.6622 18.7759 58.1461 18.5229 58.4035C17.9361 59.0007 17.0255 58.0843 17.5819 57.4563C17.7843 57.2298 18.2902 57.2195 18.5432 57.446Z" fill="white"/>
<path d="M22.9746 46.4496C22.9746 46.5011 23.3186 47.2218 23.7335 48.066C24.553 49.734 25.3624 50.9386 26.4653 52.1638L27.1736 52.9463L27.9324 52.7095C28.3472 52.5756 29.1365 52.3491 29.6828 52.2256C30.4619 52.03 30.6541 51.9476 30.6238 51.824C30.472 51.299 29.5412 47.438 29.4501 46.9438L29.3388 46.3569H26.1517C24.4012 46.3569 22.9746 46.3981 22.9746 46.4496Z" fill="white"/>
<path d="M30.1587 46.5013C30.1587 46.9131 31.2008 51.433 31.3526 51.6801C31.4032 51.7625 31.8383 51.7316 32.84 51.5565C34.7017 51.2374 35.9664 51.1035 37.7269 51.0212L39.1637 50.9594V48.6531V46.3571H34.6612C30.8872 46.3571 30.1587 46.3777 30.1587 46.5013Z" fill="white"/>
<path d="M39.9722 48.663V50.959L41.0649 51.0311C42.4915 51.1134 44.3634 51.3605 46.0126 51.6694C46.7512 51.8032 47.4392 51.9165 47.5404 51.9165C47.6922 51.9165 47.7934 51.6385 48.1475 50.2898C48.5219 48.8174 48.9772 46.748 48.9772 46.47C48.9772 46.3876 47.6618 46.3567 44.4747 46.3567H39.9722V48.663Z" fill="white"/>
<path d="M49.7464 46.5326C49.7161 46.6356 49.6453 47.0165 49.5846 47.3872C49.4125 48.3756 49.0989 49.7655 48.7549 51.0216C48.5829 51.6291 48.4615 52.1439 48.4817 52.1645C48.5019 52.1851 49.0483 52.3395 49.6857 52.5145C50.3232 52.6999 51.0618 52.9058 51.3248 52.9881L51.8004 53.1426L52.6807 52.1439C53.9049 50.7539 54.6435 49.6317 55.4631 47.9638C55.8476 47.171 56.1612 46.4915 56.1612 46.44C56.1612 46.3988 54.7346 46.3576 52.9842 46.3576C50.0399 46.3576 49.797 46.3679 49.7464 46.5326Z" fill="white"/>
<path d="M11.3399 49.2095C11.259 49.2404 11.1578 49.3227 11.1173 49.3845C11.0263 49.5184 11.006 51.4231 11.0971 51.6496C11.1477 51.7937 11.4411 51.8143 13.3129 51.8143C15.8222 51.8143 15.5895 51.9482 15.5895 50.445C15.5895 49.1065 15.6401 49.1374 13.3433 49.1477C12.3214 49.1477 11.4209 49.1786 11.3399 49.2095Z" fill="white"/>
<path d="M16.1652 49.2706C16.0134 49.3839 15.9932 49.5589 16.0134 50.5782L16.0437 51.7622H18.2191H20.3945L20.4248 50.5782C20.4451 49.5589 20.4248 49.3839 20.2731 49.2706C20.1516 49.1779 19.5749 49.1368 18.2191 49.1368C16.8633 49.1368 16.2866 49.1779 16.1652 49.2706Z" fill="white"/>
<path d="M36.1277 51.8855C35.4498 51.937 32.7078 52.3282 32.1614 52.4414C31.8478 52.5135 31.6758 52.6062 31.6758 52.6988C31.6758 52.9151 32.9506 56.4157 33.1227 56.6936C33.4161 57.1467 36.4211 57.8983 38.4346 58.0218L39.1631 58.063V54.9433V51.8134L37.8781 51.834C37.1597 51.8443 36.3806 51.8649 36.1277 51.8855Z" fill="white"/>
<path d="M39.9722 54.9441V58.105L40.559 58.0432C40.8727 58.0123 41.3887 57.9608 41.6922 57.93C42.957 57.8064 45.6382 57.096 45.9114 56.8283C46.0429 56.6944 46.478 55.6134 47.0649 53.9351C47.338 53.1733 47.4291 52.782 47.3583 52.7408C46.994 52.5143 43.0581 51.9377 41.2673 51.8451L39.9722 51.7833V54.9441Z" fill="white"/>
<path d="M11.1368 52.5241C11.0862 52.6373 11.0356 53.1624 11.0356 53.7081C11.0356 54.4597 11.0761 54.7171 11.1975 54.8406C11.3291 54.9745 11.663 55.0054 13.292 55.0054C14.3645 55.0054 15.3054 54.9539 15.3864 54.9024C15.4977 54.8303 15.5483 54.5524 15.5685 53.7802C15.6292 52.2358 15.781 52.3285 13.3122 52.3285C11.3695 52.3285 11.238 52.3387 11.1368 52.5241Z" fill="white"/>
<path d="M16.1151 52.452C16.0341 52.5344 15.9937 52.9462 15.9937 53.6875C15.9937 54.6759 16.0139 54.7995 16.1859 54.9024C16.3073 54.9642 17.1775 55.0054 18.3005 55.0054C19.8182 55.0054 20.2432 54.9745 20.3343 54.8612C20.4152 54.7686 20.4456 54.3258 20.4253 53.5537L20.395 52.3799L18.3208 52.349C16.7829 52.3285 16.2061 52.3593 16.1151 52.452Z" fill="white"/>
<path d="M29.2072 53.1321L27.8008 53.5028L28.246 53.9146C29.0655 54.6662 31.9087 56.4474 32.0503 56.3033C32.0807 56.2827 31.8783 55.6134 31.595 54.831C31.3218 54.0485 31.0486 53.266 30.9981 53.1012C30.9475 52.9262 30.8362 52.7821 30.7552 52.7718C30.6743 52.7615 29.9761 52.9262 29.2072 53.1321Z" fill="white"/>
<path d="M48.0073 53.4815C47.9163 53.7801 47.6431 54.5523 47.4104 55.1803C47.1675 55.8187 47.0158 56.3438 47.0664 56.3438C47.2687 56.3438 48.3918 55.7054 49.3935 55.0156C50.6582 54.1507 51.0731 53.811 50.9921 53.7183C50.9112 53.6462 48.5031 52.9461 48.3109 52.9461C48.24 52.9461 48.1085 53.1932 48.0073 53.4815Z" fill="white"/>
<path d="M58.4886 61.0288V64.8897H59.7129H60.9372L60.6235 65.1883C60.4515 65.353 60.3099 65.5383 60.3099 65.6001C60.3099 65.7648 60.0468 65.734 59.9051 65.5589C59.8141 65.4457 59.551 65.4045 58.8326 65.4045H57.8815V61.6877V57.9709L56.0704 58.0121L54.2492 58.043L53.9153 58.3724C53.7332 58.5577 53.3588 59.052 53.0755 59.4741L52.5696 60.2463L52.0131 60.2566H51.4566L51.1025 61.245C50.9103 61.7804 50.7079 62.2643 50.6472 62.3054C50.5966 62.3569 50.2931 62.4187 49.9895 62.4496C49.686 62.4908 48.9069 62.6967 48.2695 62.9129L47.1059 63.3144L47.0756 64.4058L47.0452 65.5075H46.7518H46.4482V66.2282V66.9489H47.1464H47.8344L47.8951 66.3929C48.0975 64.3749 50.3639 63.4689 51.8512 64.8073C52.4178 65.3118 52.6404 65.8678 52.6202 66.743C52.6101 67.1136 52.6 67.474 52.6101 67.5357C52.6202 67.6387 53.4094 67.6696 56.1918 67.6696C59.207 67.6696 59.7938 67.649 59.976 67.5151C60.1783 67.371 60.1986 67.371 60.2593 67.5769C60.2997 67.6902 60.5426 67.927 60.7955 68.0917C61.6252 68.6271 62.7382 68.4624 63.3048 67.7005L63.5678 67.3401L63.7601 67.6593C64.013 68.0917 64.6404 68.3903 65.2677 68.3903C65.8849 68.3903 66.2592 68.205 66.6639 67.7211L66.9574 67.3504L67.2002 67.7108C67.5037 68.1638 67.9793 68.3903 68.6167 68.3903C69.2541 68.3903 69.7499 68.1535 70.0939 67.7005L70.357 67.3504L70.5391 67.6593C70.7921 68.0917 71.4194 68.3903 72.0568 68.3903C73.6959 68.3903 74.4345 66.5062 73.2811 65.2706L72.9169 64.8897H74.2524H75.588V61.0288V57.1678H67.0383H58.4886V61.0288ZM74.475 60.9773V63.6542H67.0383H59.6016V60.9773V58.3004H67.0383H74.475V60.9773ZM63.9726 65.2398C63.8107 65.4354 63.6488 65.6516 63.6184 65.734C63.578 65.8369 63.5274 65.8163 63.4363 65.6619C63.3655 65.5486 63.1732 65.3324 63.0114 65.1677L62.7179 64.8897H63.497H64.2761L63.9726 65.2398ZM67.3823 65.2706C67.2002 65.4869 67.0282 65.6825 67.008 65.7031C66.9978 65.734 66.7854 65.5589 66.5526 65.3221L66.1277 64.8897H66.9371H67.7364L67.3823 65.2706ZM70.8022 65.2192C70.61 65.4045 70.4278 65.631 70.3975 65.7134C70.3368 65.8472 70.3165 65.8472 70.2558 65.7134C70.2255 65.631 70.0433 65.4045 69.8511 65.2192L69.5071 64.8897H70.3267H71.1462L70.8022 65.2192Z" fill="white"/>
<path d="M49.211 65.0856C48.6545 65.4975 48.442 66.002 48.4926 66.7433C48.5634 67.8038 49.2211 68.3906 50.3239 68.3906C51.8214 68.3906 52.6207 66.5785 51.6494 65.4048C51.2649 64.9518 50.8905 64.7871 50.2126 64.7871C49.7169 64.7871 49.5448 64.8385 49.211 65.0856Z" fill="white"/>
<path d="M20.1818 65.3633C20.0199 65.4354 20.111 65.7751 20.799 67.6593C21.2037 68.7506 21.4769 69.3787 21.5781 69.3993C21.6692 69.4199 21.9424 69.1831 22.2155 68.8639L22.681 68.2976L23.1666 68.5962C24.1885 69.2345 27.4465 70.7686 28.7416 71.2217C33.8714 73.0028 39.0923 73.5279 44.212 72.7557C45.7297 72.5292 48.0771 72.0041 48.3503 71.8291C48.6336 71.6438 48.6437 71.1702 48.3705 70.9128C48.1681 70.7275 48.1378 70.7275 47.1766 70.954C40.3672 72.5704 33.6387 72.0556 27.5477 69.4611C26.6573 69.0801 23.6321 67.546 23.4904 67.4019C23.4702 67.3813 23.6422 67.1342 23.8648 66.8562C24.2998 66.3311 24.3606 66.187 24.1885 66.0737C24.138 66.0428 23.3285 65.8781 22.3977 65.7134C21.4567 65.5383 20.6068 65.3839 20.4955 65.3633C20.3842 65.3427 20.2425 65.3427 20.1818 65.3633Z" fill="white"/>
<path d="M155.674 27.2099C154.1 28.024 153.167 29.1638 152.713 30.8734C152.553 31.5247 152.473 35.2967 152.527 41.0768L152.607 50.2218L153.327 51.4973C154.393 53.3154 156.26 54.2109 159.034 54.2109C161.727 54.1838 163.194 53.4511 164.341 51.5787L165.141 50.2761L165.221 44.8759L165.327 39.5029H162.1H158.874V40.5883V41.6467L160.82 41.7281L162.74 41.8095L162.82 44.5231C162.98 49.6791 162.1 51.443 159.22 51.6601C157.914 51.7415 157.514 51.6601 156.74 51.1174C155.033 49.9233 155.007 49.7877 155.007 40.4526C155.007 30.792 155.06 30.4935 157.114 29.4623C158.474 28.811 159.167 28.7839 160.34 29.3537C161.567 29.9507 162.1 30.8734 162.26 32.7458L162.42 34.3469H163.861H165.301L165.141 32.6373C165.034 31.6604 164.661 30.3307 164.234 29.4623C163.274 27.4542 161.94 26.6943 159.167 26.5315C157.354 26.4501 156.98 26.5044 155.674 27.2099Z" fill="white"/>
<path d="M189.171 26.8862C187.651 27.4289 186.851 28.1073 186.077 29.4913L185.411 30.6853L185.331 39.8575C185.251 50.1152 185.331 50.875 186.957 52.4761C188.157 53.6701 189.571 54.1857 191.678 54.2128C194.878 54.24 196.691 53.2902 197.704 51.065C198.344 49.681 198.344 49.5996 198.344 40.3188C198.344 31.7979 198.291 30.8481 197.838 29.8441C197.251 28.5144 195.758 27.2118 194.371 26.7776C192.984 26.3706 190.451 26.4248 189.171 26.8862ZM194.131 29.627C194.584 29.8712 195.118 30.4953 195.438 31.1738C195.891 32.205 195.944 33.0462 195.944 40.4545C195.944 47.6729 195.891 48.7041 195.464 49.5182C194.798 50.875 193.784 51.5263 192.158 51.6348C190.397 51.7705 189.117 51.1464 188.344 49.8167C187.837 48.9483 187.811 48.3242 187.731 41.3229C187.624 32.9919 187.811 31.3094 188.931 30.1697C190.184 28.8943 192.318 28.6772 194.131 29.627Z" fill="white"/>
<path d="M98.8721 40.2903V53.8857H100.072H101.272V48.187V42.4883H103.752H106.206L107.806 48.1328L109.406 53.7501L110.979 53.8315C112.179 53.8857 112.499 53.8315 112.419 53.5601C112.339 53.3701 111.459 50.6836 110.446 47.59L108.606 41.9456L109.646 41.0772C111.326 39.6661 111.673 38.5806 111.673 34.4559C111.673 31.2537 111.619 30.7924 111.059 29.7069C110.633 28.92 109.993 28.2416 109.139 27.6988C107.859 26.8847 107.806 26.8847 103.352 26.8033L98.8721 26.6948V40.2903ZM107.912 30.114C108.899 31.0909 109.379 33.0176 109.219 35.4599C109.086 37.468 108.632 38.5535 107.592 39.3405C106.952 39.8018 106.366 39.9375 104.046 39.9918L101.272 40.1003V34.6187V29.1371L104.179 29.2456C106.979 29.327 107.139 29.3542 107.912 30.114Z" fill="white"/>
<path d="M114.073 27.9702V29.1914H116.607H119.14V41.5385V53.8857H120.474H121.807V41.5385V29.1914H124.34H126.874V27.9702V26.749H120.474H114.073V27.9702Z" fill="white"/>
<path d="M132.874 27.0753C132.688 27.6181 126.874 53.3437 126.874 53.6422C126.874 53.805 127.487 53.8864 128.287 53.8321L129.674 53.7507L130.314 50.5486L130.954 47.3736H134.501C137.968 47.3736 138.075 47.4007 138.208 47.9706C138.288 48.3234 138.581 49.7345 138.848 51.1184C139.115 52.5024 139.408 53.6964 139.488 53.7778C139.541 53.8593 140.208 53.8864 140.928 53.8321L142.235 53.7507L139.168 40.2366L136.128 26.7497H134.554C133.541 26.7497 132.954 26.8582 132.874 27.0753ZM136.074 37.333C136.768 40.8336 137.381 43.9815 137.461 44.3071C137.594 44.9313 137.568 44.9313 134.474 44.9313C131.648 44.9313 131.381 44.877 131.514 44.4428C131.568 44.1986 132.261 40.8065 133.034 36.9531C133.968 32.2856 134.501 30.0875 134.661 30.4403C134.768 30.7116 135.408 33.8324 136.074 37.333Z" fill="white"/>
<path d="M168.742 40.2903V53.8857H170.076H171.409V48.187V42.4612L173.862 42.5426L176.316 42.624L177.916 48.2413L179.516 53.8857H181.036H182.529L180.663 47.9699L178.796 42.027L180.023 40.8059C181.543 39.2319 181.809 38.3093 181.809 34.3473C181.809 30.3311 181.223 28.8386 179.223 27.6446C177.969 26.9119 177.836 26.8847 173.356 26.8033L168.742 26.6948V40.2903ZM177.463 29.7341C178.876 30.6025 179.249 31.6608 179.276 34.6187C179.276 38.9606 178.209 40.046 173.889 40.046H171.409V34.6187V29.1914H174.022C176.129 29.1914 176.769 29.2999 177.463 29.7341Z" fill="white"/>
<path d="M201.33 38.4717C201.41 49.8962 201.436 50.249 201.996 51.3073C203.17 53.5597 204.396 54.1838 207.49 54.2109C210.237 54.2109 211.65 53.5325 212.69 51.7686L213.41 50.4932L213.49 38.6074L213.57 26.7486H212.21H210.877V38.0103C210.877 50.3847 210.877 50.4661 209.277 51.3073C208.236 51.85 206.476 51.8229 205.516 51.253C203.97 50.3033 203.943 50.1404 203.943 37.9018V26.7486H202.583H201.25L201.33 38.4717Z" fill="white"/>
<path d="M216.745 40.2903V53.8857H218.078H219.411V48.5941V43.3024H222.692C226.718 43.3024 227.918 42.8411 228.958 40.833C229.545 39.6933 229.572 39.449 229.492 34.7001L229.412 29.7884L228.585 28.73C227.225 27.0204 226.772 26.8847 221.491 26.8033L216.745 26.7219V40.2903ZM226.132 29.9783L227.012 30.7653L227.118 34.2116C227.225 38.255 227.065 39.3405 226.212 40.2089C225.598 40.833 225.385 40.8601 222.478 40.8601H219.411V35.0257V29.1914H222.345C225.198 29.1914 225.278 29.2185 226.132 29.9783Z" fill="white"/>
</svg>
