<svg width="144" height="24" viewBox="0 0 144 24" fill="none" xmlns="http://www.w3.org/2000/svg">
<path fill-rule="evenodd" clip-rule="evenodd" d="M114.751 0.691785C114.593 1.0668 113.562 3.61233 112.459 6.34834C111.357 9.08435 109.356 14.0308 108.015 17.3405C106.673 20.6502 105.54 23.4867 105.497 23.6438C105.424 23.9089 105.569 23.9262 107.514 23.8845L109.61 23.8395L110.943 20.4296L112.277 17.0196H116.854H121.431L121.643 17.6213C121.759 17.9524 122.347 19.5049 122.948 21.0714L124.043 23.9198H126.149C127.307 23.9198 128.256 23.8655 128.257 23.7994C128.258 23.7333 126.119 18.3536 123.505 11.8444L118.75 0.00978878H116.894H115.037L114.751 0.691785ZM125.463 0.68681C125.677 1.06472 127.418 4.40923 129.333 8.11912L132.815 14.8646V19.3921V23.9198H134.544H136.274V19.4269V14.9343L139.278 9.11676C140.93 5.91732 142.669 2.55708 143.141 1.64979L144 0L142.01 0.0450923L140.021 0.0900236L137.301 5.52385L134.581 10.9577L133.087 8.01113C132.266 6.39054 131.037 3.94531 130.357 2.5773L129.12 0.0900236L127.098 0.0449319L125.075 0L125.463 0.68681ZM6.30584 0.478842C3.96885 1.12361 2.3672 2.34623 1.49774 4.14894C1.03629 5.1055 0.982048 5.36257 0.983777 6.58567C0.985978 8.21348 1.28408 8.91874 2.49031 10.1499C3.60188 11.2842 5.07634 11.9365 8.41909 12.7724C12.6859 13.8394 13.6212 14.3863 14.0473 16.063C14.5301 17.9627 13.5734 19.6368 11.5587 20.4182C9.72878 21.1278 7.24966 20.937 5.75068 19.9711C5.01769 19.4988 4.2344 18.3073 4.10217 17.4629L4.00752 16.8591H2.05746C0.515876 16.8591 0.0893253 16.9069 0.0214042 17.0875C-0.109721 17.4365 0.385222 19.2159 0.862242 20.1105C1.7078 21.6963 3.94841 23.2023 6.17031 23.6784C7.63187 23.9915 10.5122 23.9849 12.0335 23.6648C14.6389 23.1166 16.986 21.4513 17.8603 19.5308C18.9788 17.0733 18.5614 14.32 16.8177 12.6554C15.3269 11.2321 13.747 10.5366 10.3515 9.80887C6.75424 9.03797 5.46248 8.32773 5.2158 6.98556C4.80528 4.75231 7.01115 2.87112 9.77516 3.09755C11.5784 3.24534 12.9714 4.13306 13.4003 5.40751L13.6088 6.0274L15.6676 6.07217L17.7263 6.11694L17.7226 5.671C17.7177 5.07517 17.0999 3.57205 16.5671 2.85893C15.9797 2.07295 14.6825 1.19117 13.3836 0.695315C12.4285 0.330567 12.0172 0.275687 9.86509 0.225781C7.82919 0.178603 7.24337 0.220165 6.30584 0.478842ZM22.1286 12.045V23.9198H23.9367H25.7448V18.7847V13.6497H30.8546H35.9644V18.7847V23.9198H37.6939H39.4234V12.045V0.170258H37.6939H35.9644V5.22505V10.2798H30.8546H25.7448V5.22505V0.170258H23.9367H22.1286V12.045ZM49.8846 0.691785C49.7669 0.978704 47.4635 6.232 44.766 12.366C42.0687 18.4999 39.8262 23.6089 39.7829 23.7192C39.7214 23.8756 40.3901 23.9188 42.8262 23.9156L45.9482 23.9116L51.0154 12.3217C53.8023 5.94733 56.1271 0.605452 56.1813 0.45108C56.2731 0.189675 56.0656 0.170258 53.1893 0.170258H50.0986L49.8846 0.691785ZM56.5609 12.045V23.9198H58.3933H60.2258L60.113 14.6526C60.0412 8.74014 60.055 5.44361 60.1512 5.54599C60.3012 5.70566 63.3679 10.0427 69.7679 19.1458L73.1242 23.9198H74.9049H76.6856V12.045V0.170258H74.8797H73.0739L73.1704 9.19668C73.2328 15.0469 73.213 18.1666 73.114 18.0626C73.0298 17.9744 70.1393 13.9126 66.6907 9.03621L60.4203 0.170258H58.4906H56.5609V12.045ZM77.7862 1.69472V3.21918H83.8394H89.8925V1.69472V0.170258H83.8394H77.7862V1.69472ZM91.1503 1.75827V3.37965L93.7838 3.38286C97.9083 3.38784 99.242 3.68599 100.555 4.89625C102.706 6.88046 101.572 10.5753 98.5161 11.5328C96.8025 12.0697 95.2419 12.2759 92.8556 12.2809C91.3624 12.2841 90.5849 12.3422 90.6464 12.4462C90.6986 12.5344 92.89 15.152 95.5163 18.2632L100.291 23.9198H102.742C105.06 23.9198 105.179 23.9047 104.957 23.6389C102.231 20.3837 97.7409 14.897 97.7802 14.8685C97.8088 14.8478 98.3936 14.7099 99.0796 14.5625C102.523 13.8222 104.618 11.6998 105.17 8.39449C105.669 5.40462 104.312 2.7137 101.631 1.37795C99.6843 0.407914 99.0208 0.293178 94.8844 0.211018L91.1503 0.136881V1.75827ZM118.421 9.28798C119.247 11.4285 119.922 13.2134 119.922 13.2543C119.922 13.2952 118.543 13.3288 116.857 13.3288C115.17 13.3288 113.791 13.2752 113.791 13.2097C113.791 13.034 116.828 5.30272 116.877 5.35311C116.9 5.3767 117.595 7.14732 118.421 9.28798ZM77.709 10.6409C77.6721 10.7513 77.6565 11.4192 77.6746 12.1252L77.7076 13.409L83.8 13.451L89.8925 13.4929V11.9667V10.4403H83.8345C79.1287 10.4403 77.7614 10.4851 77.709 10.6409ZM77.6774 22.3552L77.7076 24H83.7607H89.8139L89.8587 22.3552L89.9035 20.7104H83.7754H77.6471L77.6774 22.3552Z" fill="#4D4948"/>
<path d="M45.9477 23.9099H39.7373L50.0965 0.1604H56.3245L45.9477 23.9099Z" fill="#A7242C"/>
</svg>
