<svg width="0" height="0" class="hidden">
  <symbol xmlns="http://www.w3.org/2000/svg" viewBox="0 0 28 56" id="up_arrow">
    <g opacity="0.5" clip-path="url(#clip0_191_214)">
      <path d="M12.0798 8.36878L12.0798 55.72L15.9197 55.72L15.9197 8.36878L15.9197 7.69583L16.3971 8.17015L24.8889 16.6087L27.6025 13.9121L13.9998 0.394716L0.396985 13.9121L3.11063 16.6087L11.6025 8.17015L12.0798 7.69583L12.0798 8.36878Z"></path>
    </g>
    <defs>
      <clipPath id="clip0_191_214">
        <rect width="56" height="28" fill="white" transform="matrix(1.19249e-08 -1 -1 -1.19249e-08 28 56)"></rect>
      </clipPath>
    </defs>
  </symbol>
  <symbol xmlns="http://www.w3.org/2000/svg" viewBox="0 0 26 26" id="search_icon">
    <path fill-rule="evenodd" clip-rule="evenodd" d="M20.4726 16.4592C17.3066 19.5411 12.2418 19.473 9.15989 16.307C6.07799 13.1411 6.14611 8.07625 9.31204 4.99435C12.478 1.91246 17.5428 1.98058 20.6247 5.1465C23.7066 8.31243 23.6385 13.3773 20.4726 16.4592ZM9.18036 17.6829C12.6757 20.5603 17.8507 20.4071 21.1701 17.1757C24.7318 13.7086 24.8084 8.01064 21.3413 4.44897C17.8741 0.887302 12.1762 0.810667 8.61451 4.2778C5.295 7.5092 5.00273 12.6784 7.78526 16.2498L1.29712 22.5658C0.901381 22.951 0.892867 23.5841 1.2781 23.9798C1.66334 24.3756 2.29645 24.3841 2.69219 23.9989L9.18036 17.6829Z"></path>
  </symbol>  
  <symbol  xmlns="http://www.w3.org/2000/svg" viewBox="0 0 78 39" id="right_arrow">    
      <path class="up" d="M66.3431 22.1742H0.389648V16.8257H66.3431H67.2804L66.6198 16.1608L54.8661 4.33293L58.6221 0.553223L77.4498 19.4999L58.6221 38.4467L54.8661 34.667L66.6198 22.839L67.2804 22.1742H66.3431Z"></path>
      <path class="down" d="M66.3431 22.1742H0.389648V16.8257H66.3431H67.2804L66.6198 16.1608L54.8661 4.33293L58.6221 0.553223L77.4498 19.4999L58.6221 38.4467L54.8661 34.667L66.6198 22.839L67.2804 22.1742H66.3431Z"></path>
  </symbol>
  <symbol xmlns="http://www.w3.org/2000/svg" viewBox="0 0 78 39" id="left_arrow">
      <path class="up" d="M11.6569 22.1742H77.6104V16.8257H11.6569H10.7196L11.3802 16.1608L23.1339 4.33293L19.3779 0.553223L0.550178 19.4999L19.3779 38.4467L23.1339 34.667L11.3802 22.839L10.7196 22.1742H11.6569Z"></path>
      <path class="down" d="M11.6569 22.1742H77.6104V16.8257H11.6569H10.7196L11.3802 16.1608L23.1339 4.33293L19.3779 0.553223L0.550178 19.4999L19.3779 38.4467L23.1339 34.667L11.3802 22.839L10.7196 22.1742H11.6569Z"></path>    
  </symbol>
  <symbol xmlns="http://www.w3.org/2000/svg" viewBox="0 0 26 26" id="profile_icon">
    <path fill-rule="evenodd" clip-rule="evenodd" d="M18 7.5C18 9.98528 15.9853 12 13.5 12C11.0147 12 9 9.98528 9 7.5C9 5.01472 11.0147 3 13.5 3C15.9853 3 18 5.01472 18 7.5ZM16.3294 13.3535C18.5019 12.3015 20 10.0757 20 7.5C20 3.91015 17.0899 1 13.5 1C9.91015 1 7 3.91015 7 7.5C7 10.0757 8.49813 12.3015 10.6706 13.3535C10.1361 13.4892 9.61088 13.6634 9.09914 13.8754C7.7039 14.4533 6.43615 15.3004 5.36827 16.3683C4.3004 17.4361 3.45331 18.7039 2.87539 20.0991C2.29746 21.4944 2 22.9898 2 24.5L3.85613 24.5C3.85613 23.2335 4.10558 21.9795 4.59023 20.8095C5.07488 19.6394 5.78524 18.5763 6.68075 17.6808C7.57627 16.7852 8.6394 16.0749 9.80945 15.5902C10.9795 15.1056 12.2335 14.8561 13.5 14.8561C14.7665 14.8561 16.0205 15.1056 17.1905 15.5902C18.3606 16.0749 19.4237 16.7852 20.3192 17.6808C21.2148 18.5763 21.9251 19.6394 22.4098 20.8095C22.8944 21.9795 23.1439 23.2335 23.1439 24.5H25C25 22.9898 24.7025 21.4944 24.1246 20.0991C23.5467 18.7039 22.6996 17.4361 21.6317 16.3683C20.5639 15.3004 19.2961 14.4533 17.9009 13.8754C17.3891 13.6634 16.8639 13.4892 16.3294 13.3535Z"></path>
  </symbol> 
  <symbol xmlns="http://www.w3.org/2000/svg" viewBox="0 0 26 26" id="bag_icon">
    <path fill-rule="evenodd" clip-rule="evenodd" d="M9.46447 2.46447C8.52678 3.40215 8 4.67392 8 6L5 6H3V8V21C3 22.6569 4.34315 24 6 24H20C21.6569 24 23 22.6569 23 21V8V6H21L9.99733 6C9.99733 5.20364 10.3137 4.4399 10.8768 3.87679C11.4399 3.31368 12.2036 2.99733 13 2.99733C13.7964 2.99733 14.5601 3.31368 15.1232 3.87679C15.6863 4.4399 16.0027 5.20364 16.0027 6L18 6C18 4.67392 17.4732 3.40215 16.5355 2.46447C15.5979 1.52678 14.3261 1 13 1C11.6739 1 10.4021 1.52678 9.46447 2.46447ZM5 21V8H21V21C21 21.5523 20.5523 22 20 22H6C5.44772 22 5 21.5523 5 21Z"></path>
  </symbol>
  <symbol xmlns="http://www.w3.org/2000/svg" viewBox="0 0 21 21" id="arrow_right">
    <path fill-rule="evenodd" clip-rule="evenodd" d="M1.31231 10.4999C1.31231 10.6739 1.38145 10.8408 1.50452 10.9639C1.62759 11.087 1.79451 11.1561 1.96856 11.1561L17.4469 11.1561L13.3164 15.2852C13.1932 15.4085 13.124 15.5756 13.124 15.7499C13.124 15.9241 13.1932 16.0913 13.3164 16.2145C13.4397 16.3377 13.6068 16.4069 13.7811 16.4069C13.9553 16.4069 14.1225 16.3377 14.2457 16.2145L19.4957 10.9645C19.5568 10.9035 19.6053 10.8311 19.6384 10.7514C19.6714 10.6716 19.6885 10.5862 19.6885 10.4999C19.6885 10.4135 19.6714 10.3281 19.6384 10.2483C19.6053 10.1686 19.5568 10.0962 19.4957 10.0352L14.2457 4.78523C14.1847 4.72421 14.1122 4.67581 14.0325 4.64279C13.9528 4.60977 13.8673 4.59277 13.7811 4.59277C13.6068 4.59277 13.4397 4.662 13.3164 4.78523C13.1932 4.90845 13.124 5.07558 13.124 5.24985C13.124 5.42412 13.1932 5.59125 13.3164 5.71448L17.4469 9.8436L1.96856 9.8436C1.79451 9.8436 1.62759 9.91274 1.50452 10.0358C1.38145 10.1589 1.31231 10.3258 1.31231 10.4999Z"></path>
  </symbol>
  <symbol xmlns="http://www.w3.org/2000/svg" viewBox="0 0 38 38" id="arrow_down">
    <g clip-path="url(#clip0_191_43)">
      <path d="M18.9997 -4.05153e-07C18.3705 -4.32656e-07 17.8557 0.514801 17.8653 1.13447L17.8653 34.0818L11.7067 27.9232C11.2586 27.4752 10.5341 27.4752 10.086 27.9232C9.63798 28.3713 9.63798 29.0958 10.086 29.5439L18.1989 37.6568C18.4182 37.8761 18.7042 38 19.0093 38C19.3143 38 19.6099 37.8761 19.8196 37.6568L27.9325 29.5439C28.3806 29.0958 28.3806 28.3713 27.9325 27.9232C27.4844 27.4752 26.7599 27.4752 26.3118 27.9232L20.1533 34.0818L20.1533 1.13447C20.1437 0.505268 19.6289 -3.77649e-07 18.9997 -4.05153e-07Z"></path>
    </g>
    <defs>
      <clipPath id="clip0_191_43">
        <rect width="38" height="38" fill="white" transform="translate(38) rotate(90)"></rect>
      </clipPath>
    </defs>
  </symbol>
</svg>