<svg width="147" height="48" viewBox="0 0 147 48" fill="none" xmlns="http://www.w3.org/2000/svg">
<g clip-path="url(#clip0_37_526)">
<path d="M80.2251 23.4691C79.5545 24.6846 78.5405 25.6778 77.3087 26.3256C75.9778 27.0373 74.4866 27.3995 72.9759 27.3782C70.2645 27.3782 68.0469 26.525 66.3837 24.8417C65.5576 23.962 64.9139 22.9289 64.4895 21.8014C64.065 20.6739 63.868 19.4741 63.9099 18.2707C63.9099 15.5997 64.7391 13.3738 66.379 11.6627C68.019 9.95152 70.2692 9.12145 72.9759 9.12145C74.4805 9.10167 75.9652 9.46396 77.29 10.1741C78.5258 10.8442 79.544 11.8512 80.2251 13.077L80.3648 13.3228L85.7505 10.2019L85.606 9.96079C84.3375 7.84031 82.517 6.10033 80.3369 4.92475C78.0831 3.68973 75.5486 3.05106 72.9759 3.06986C68.6106 3.06986 64.9302 4.5445 62.037 7.45205C59.1439 10.3596 57.7136 13.9442 57.7136 18.2614C57.7136 22.5787 59.1672 26.1911 62.0324 29.0708C64.8975 31.9505 68.6106 33.453 72.9759 33.453C75.5484 33.4697 78.0823 32.8312 80.3369 31.5981C82.5183 30.4222 84.3391 28.6804 85.606 26.5574L85.7505 26.3163L80.3602 23.2094L80.2251 23.4691Z" fill="#EE713F"/>
<path d="M90.2509 3.65417V32.8873H96.489V9.61302H106.105V32.8873H112.338V3.65417H90.2509Z" fill="#EE713F"/>
<path d="M140.72 3.65417L132.642 16.963L124.521 3.65417H118.246V32.8873H124.479V15.0339L132.157 27.6055H133.126L140.804 14.9968V32.8873H147V3.65417H140.72Z" fill="#EE713F"/>
<path d="M60.7279 44.1C60.3893 44.1145 60.0513 44.0607 59.7342 43.9418C59.4171 43.8228 59.1275 43.6412 58.8828 43.4079C58.6381 43.1746 58.4433 42.8944 58.3103 42.5842C58.1772 42.274 58.1086 41.9402 58.1086 41.6029C58.1086 41.2656 58.1772 40.9318 58.3103 40.6215C58.4433 40.3113 58.6381 40.0311 58.8828 39.7978C59.1275 39.5645 59.4171 39.3829 59.7342 39.264C60.0513 39.145 60.3893 39.0912 60.7279 39.1057C61.1499 39.1024 61.5656 39.2078 61.9345 39.4118C62.2921 39.6051 62.5913 39.8901 62.8011 40.2372L61.9811 40.7009C61.8624 40.4883 61.6844 40.3144 61.4686 40.2001C61.2427 40.0739 60.987 40.0098 60.7279 40.0146C60.5165 40.0091 60.3062 40.0475 60.1105 40.1274C59.9148 40.2072 59.7379 40.3267 59.5911 40.4783C59.4468 40.6304 59.3346 40.8097 59.261 41.0056C59.1873 41.2015 59.1539 41.4101 59.1625 41.6191C59.1547 41.8259 59.1886 42.0322 59.2622 42.2257C59.3358 42.4192 59.4477 42.5961 59.5911 42.7459C59.7392 42.8943 59.9169 43.0101 60.1127 43.086C60.3084 43.1619 60.518 43.1961 60.7279 43.1865C60.9877 43.1899 61.2442 43.1276 61.4733 43.0056C61.6824 42.8862 61.8523 42.709 61.9625 42.4955L62.7824 42.9593C62.5727 43.3064 62.2735 43.5913 61.9159 43.7847C61.5533 43.9888 61.1444 44.0973 60.7279 44.1Z" fill="#3A3A3A"/>
<path d="M63.4532 39.2031H67.0592V44.0027H66.1041V40.1074H64.4037V44.0027H63.4719L63.4532 39.2031Z" fill="#3A3A3A"/>
<path d="M68.974 42.0226V43.0984H71.0052V44.0258H68.0189V39.2031H70.9633V40.1074H68.9693V41.1276H70.8142V42.0226H68.974Z" fill="#3A3A3A"/>
<path d="M75.3426 39.2031V43.0984H75.8597V44.9208H74.928V43.9934H71.746V39.2031H72.6777V43.0984H74.3782V39.2031H75.3426Z" fill="#3A3A3A"/>
<path d="M76.5631 39.2031H80.1644V44.0027H79.2326V40.1074H77.5275V44.0027H76.5957L76.5631 39.2031Z" fill="#3A3A3A"/>
<path d="M85.1913 43.3766C84.7159 43.8293 84.0813 44.0787 83.4235 44.0712C82.7656 44.0638 82.1369 43.8001 81.672 43.3368C81.2071 42.8735 80.943 42.2473 80.9364 41.5925C80.9298 40.9377 81.1811 40.3063 81.6366 39.8338C81.9874 39.4835 82.4349 39.2449 82.9223 39.1484C83.4096 39.0518 83.9148 39.1016 84.3737 39.2914C84.8325 39.4813 85.2243 39.8026 85.4993 40.2146C85.7743 40.6265 85.92 41.1106 85.918 41.6052C85.9245 41.9341 85.8633 42.261 85.7383 42.5656C85.6134 42.8702 85.4272 43.1462 85.1913 43.3766ZM82.3028 42.732C82.6022 43.0145 82.9991 43.1719 83.4116 43.1719C83.8241 43.1719 84.221 43.0145 84.5204 42.732C84.6717 42.5861 84.7911 42.4108 84.8713 42.2169C84.9514 42.023 84.9906 41.8148 84.9863 41.6052C84.9905 41.3942 84.9513 41.1846 84.8712 40.9892C84.7911 40.7939 84.6717 40.6169 84.5204 40.4691C84.2226 40.1834 83.8251 40.0238 83.4116 40.0238C82.998 40.0238 82.6006 40.1834 82.3028 40.4691C82.1515 40.6169 82.0321 40.7939 81.952 40.9892C81.8719 41.1846 81.8327 41.3942 81.8369 41.6052C81.8326 41.8148 81.8718 42.023 81.9519 42.2169C82.0321 42.4108 82.1515 42.5861 82.3028 42.732Z" fill="#3A3A3A"/>
<path d="M90.1483 39.2031V43.0984H90.6655V44.9208H89.7337V43.9934H87.0689V44.9208H86.1371V43.0984H86.603C86.9014 42.6097 87.0413 42.0414 87.0036 41.4707V39.2031H90.1483ZM87.586 43.0984H89.1979V40.0888H87.9168V41.48C87.9485 42.0388 87.8346 42.5963 87.586 43.0984Z" fill="#3A3A3A"/>
<path d="M96.0184 43.0984V39.2031H96.9502V44.0027H91.3596V39.2031H92.2914V43.0984H93.689V39.2031H94.6208V43.0984H96.0184Z" fill="#3A3A3A"/>
<path d="M101.674 44.0027H100.743V41.0766L98.674 44.0027H97.9519V39.2031H98.8837V42.1385L100.952 39.2031H101.674V44.0027Z" fill="#3A3A3A"/>
<path d="M102.639 39.2031H106.221V44.0027H105.29V40.1074H103.589V44.0027H102.657L102.639 39.2031Z" fill="#3A3A3A"/>
<path d="M109.948 41.109V39.2031H110.88V44.0027H109.948V42.0133H108.155V44.0027H107.223V39.2031H108.155V41.109H109.948Z" fill="#3A3A3A"/>
<path d="M115.595 44.0027H114.663V41.0766L112.594 44.0027H111.858V39.2031H112.79V42.1385L114.854 39.2031H115.576L115.595 44.0027Z" fill="#3A3A3A"/>
<path d="M118.479 41.5357L120.342 44.0027H119.247L117.514 41.7351V43.9841H116.559V39.2031H117.514V41.3223L119.163 39.2031H120.263L118.479 41.5357Z" fill="#3A3A3A"/>
<path d="M124.61 39.2031H125.588V44.0027H124.656V40.8911L123.287 43.1262H123.175L121.819 40.905V44.0119H120.887V39.2031H121.866L123.263 41.4707L124.61 39.2031Z" fill="#3A3A3A"/>
<path d="M130.685 44.0027H129.651L129.362 43.1262H127.438L127.149 43.9887H126.124L127.81 39.1892H128.989L130.685 44.0027ZM128.402 40.2929L127.74 42.2544H129.05L128.402 40.2929Z" fill="#3A3A3A"/>
<path d="M131.221 39.2032H133.019C133.236 39.1983 133.451 39.2369 133.653 39.3165C133.855 39.3962 134.038 39.5153 134.193 39.6669C134.497 39.9711 134.668 40.3829 134.668 40.8123C134.668 41.2416 134.497 41.6535 134.193 41.9577C134.038 42.109 133.855 42.228 133.653 42.3077C133.451 42.3873 133.236 42.426 133.019 42.4214H132.171V43.9981H131.239L131.221 39.2032ZM132.152 41.5218H133C133.094 41.5249 133.188 41.5078 133.275 41.4718C133.361 41.4358 133.439 41.3817 133.503 41.3131C133.633 41.1707 133.704 40.9857 133.704 40.7937C133.704 40.6018 133.633 40.4167 133.503 40.2744C133.439 40.2064 133.361 40.1529 133.274 40.1177C133.187 40.0825 133.094 40.0663 133 40.0703H132.171L132.152 41.5218Z" fill="#3A3A3A"/>
<path d="M137.272 41.5357L139.136 44.0027H138.041L136.303 41.7351V43.9841H135.372V39.2031H136.303V41.3223L137.957 39.2031H139.057L137.272 41.5357Z" fill="#3A3A3A"/>
<path d="M140.613 42.0226V43.0984H142.644V44.0258H139.662V39.2031H142.607V40.1074H140.613V41.1276H142.439V42.0226H140.613Z" fill="#3A3A3A"/>
<path d="M143.026 39.2031H146.576V40.1074H145.272V44.0027H144.34V40.1074H143.026V39.2031Z" fill="#3A3A3A"/>
<path d="M24.1141 8.51856C21.0372 8.51764 18.0292 9.42496 15.4705 11.1258C12.9117 12.8266 10.9171 15.2445 9.73905 18.0737C8.56095 20.9029 8.25223 24.0163 8.85193 27.0202C9.45163 30.024 10.9328 32.7834 13.1081 34.9493C15.2835 37.1152 18.0553 38.5903 21.0729 39.1881C24.0906 39.786 27.2186 39.4796 30.0613 38.3078C32.904 37.136 35.3338 35.1514 37.0433 32.6051C38.7528 30.0587 39.6652 27.0649 39.6652 24.0023C39.6652 19.8965 38.027 15.9589 35.1107 13.0553C32.1944 10.1516 28.2389 8.51979 24.1141 8.51856ZM24.1141 36.648C21.6007 36.6508 19.1431 35.9114 17.052 34.5236C14.9609 33.1357 13.3303 31.1617 12.3666 28.8512C11.4029 26.5408 11.1493 23.9977 11.6379 21.5438C12.1265 19.0898 13.3354 16.8353 15.1116 15.0653C16.8879 13.2954 19.1516 12.0896 21.6164 11.6006C24.0812 11.1115 26.6364 11.3611 28.9587 12.3178C31.281 13.2745 33.266 14.8954 34.6626 16.9752C36.0593 19.0551 36.8047 21.5006 36.8047 24.0023C36.801 27.3513 35.4628 30.5621 33.0836 32.9303C30.7045 35.2984 27.4787 36.6304 24.1141 36.6341V36.648Z" fill="#3A3A3A"/>
<path d="M48.2234 24.0022C48.2244 19.2546 46.8108 14.6134 44.1614 10.6655C41.5121 6.71762 37.746 3.64046 33.3396 1.8232C28.9331 0.00595166 24.0842 -0.469765 19.4061 0.456222C14.7279 1.38221 10.4308 3.6683 7.0581 7.02537C3.68541 10.3824 1.38867 14.6597 0.458368 19.3161C-0.471931 23.9725 0.00600155 28.799 1.83172 33.185C3.65743 37.571 6.74892 41.3196 10.7152 43.9567C14.6814 46.5938 19.3443 48.0008 24.114 47.9999C30.5082 47.9999 36.6406 45.4716 41.1619 40.9711C45.6833 36.4707 48.2234 30.3668 48.2234 24.0022ZM24.114 46.4928C19.6438 46.4937 15.2736 45.175 11.5564 42.7036C7.83912 40.2321 4.9417 36.7189 3.23058 32.6083C1.51947 28.4976 1.07152 23.9742 1.94339 19.6101C2.81527 15.246 4.96781 11.2373 8.12875 8.09105C11.2897 4.94476 15.317 2.8022 19.7014 1.93436C24.0858 1.06653 28.6303 1.5124 32.7601 3.21558C36.8899 4.91877 40.4195 7.80276 42.9025 11.5028C45.3854 15.2028 46.7102 19.5527 46.7093 24.0022C46.7081 29.9667 44.3271 35.6866 40.0899 39.9041C35.8528 44.1216 30.1063 46.4916 24.114 46.4928Z" fill="#3A3A3A"/>
<path d="M36.4972 13.2207C37.1507 13.9644 37.7354 14.7653 38.2443 15.6136C38.7374 15.7621 39.2649 15.7527 39.7524 15.5868C40.2399 15.4208 40.6628 15.1067 40.9614 14.6888C41.2599 14.2708 41.4191 13.7701 41.4164 13.2573C41.4137 12.7445 41.2493 12.2454 40.9464 11.8306C40.6435 11.4157 40.2174 11.106 39.7282 10.9451C39.239 10.7843 38.7114 10.7803 38.2198 10.9339C37.7283 11.0875 37.2976 11.3909 36.9885 11.8012C36.6794 12.2115 36.5076 12.708 36.4972 13.2207Z" fill="#EE713F"/>
<path d="M39.7491 16.3138C39.9541 16.7265 40.1451 17.1531 40.3175 17.5844C40.7344 17.2301 41.2343 16.986 41.7711 16.8749C42.0987 16.8068 42.4346 16.7865 42.7681 16.8146C42.5309 16.2014 42.2619 15.6008 41.9621 15.0154C41.762 15.2809 41.5234 15.5154 41.2539 15.711C40.8108 16.0338 40.2934 16.2411 39.7491 16.3138Z" fill="#EE713F"/>
<path d="M41.5428 17.8116C41.1727 17.8904 40.8259 18.0532 40.5294 18.2873C40.2328 18.5213 39.9945 18.8203 39.833 19.161C40.1284 20.1043 40.3343 21.0731 40.448 22.0547C40.7646 22.3281 41.1462 22.5165 41.5566 22.6019C41.9669 22.6873 42.3924 22.6669 42.7926 22.5427C43.1928 22.4184 43.5544 22.1944 43.8432 21.8919C44.132 21.5895 44.3383 21.2185 44.4426 20.8144C44.5469 20.4102 44.5457 19.9862 44.4391 19.5827C44.3325 19.1791 44.124 18.8094 43.8335 18.5085C43.543 18.2077 43.18 17.9858 42.7791 17.8638C42.3782 17.7418 41.9526 17.7238 41.5428 17.8116Z" fill="#EE713F"/>
<path d="M31.0185 9.13533C31.9191 9.54968 32.7799 10.0448 33.5902 10.6146C34.1002 10.5505 34.5771 10.3287 34.9536 9.98048C35.3302 9.63225 35.5875 9.17516 35.6892 8.67364C35.791 8.17212 35.732 7.65147 35.5206 7.18509C35.3092 6.71871 34.9561 6.33013 34.5111 6.07413C34.066 5.81813 33.5515 5.70762 33.04 5.75818C32.5285 5.80874 32.0458 6.01782 31.66 6.35595C31.2743 6.69408 31.0048 7.14419 30.8897 7.64284C30.7746 8.14149 30.8197 8.66352 31.0185 9.13533Z" fill="#EE713F"/>
<path d="M36.2922 11.5931C36.5321 11.101 36.8907 10.6756 37.3358 10.3549C37.6037 10.1564 37.9007 9.99997 38.2163 9.89119C37.7507 9.4269 37.2608 8.98731 36.7488 8.57422C36.6722 8.89889 36.5499 9.21113 36.3854 9.50167C36.1099 9.97639 35.7211 10.3762 35.2533 10.6656C35.612 10.9485 35.9568 11.2592 36.2922 11.5931Z" fill="#EE713F"/>
<path d="M28.8381 7.29427C29.304 7.41947 29.7326 7.56323 30.1659 7.72089C30.1908 7.17578 30.3508 6.64527 30.6318 6.17669C30.798 5.88493 31.0085 5.62056 31.2561 5.393C30.6453 5.16 30.0234 4.95726 29.3925 4.78552C29.4558 5.11399 29.4699 5.44995 29.4345 5.78253C29.3664 6.3283 29.1613 6.84821 28.8381 7.29427Z" fill="#EE713F"/>
<path d="M27.3007 7.93426C27.6292 7.73884 27.9068 7.469 28.1108 7.14669C28.3148 6.82438 28.4395 6.45869 28.4747 6.07937C28.5176 5.66553 28.4536 5.24764 28.2889 4.8653C28.1241 4.48295 27.864 4.14879 27.5333 3.89449C27.2025 3.64018 26.8119 3.47414 26.3986 3.4121C25.9853 3.35005 25.563 3.39406 25.1715 3.53994C24.7801 3.68583 24.4326 3.92876 24.1619 4.24574C23.8911 4.56271 23.7062 4.94323 23.6246 5.35125C23.5429 5.75927 23.5673 6.18128 23.6953 6.57731C23.8234 6.97333 24.0509 7.33026 24.3563 7.61429C25.3454 7.63318 26.3308 7.74026 27.3007 7.93426Z" fill="#EE713F"/>
<path d="M43.1594 24.6376C43.4859 24.7058 43.8001 24.8231 44.0911 24.9854C44.0911 24.6561 44.0911 24.3315 44.0911 24.0023C44.0911 23.673 44.0911 23.3438 44.0911 23.0192C43.8 23.1802 43.4858 23.296 43.1594 23.3623C42.621 23.4793 42.0616 23.4585 41.5334 23.302C41.5334 23.5339 41.5334 23.7658 41.5334 24.0023C41.5334 24.2388 41.5334 24.466 41.5334 24.6978C42.0622 24.5452 42.6206 24.5245 43.1594 24.6376Z" fill="#3A3A3A"/>
<path d="M42.0599 41.7073C42.032 41.7351 42.0087 41.7629 41.9807 41.7861C41.9528 41.8093 42.032 41.7351 42.0599 41.7073Z" fill="#3A3A3A"/>
<path d="M8.35796 33.6617C8.7053 33.507 9.0121 33.2747 9.25451 32.9827C9.49692 32.6908 9.6684 32.3471 9.75561 31.9784C9.27258 31.12 8.86871 30.2198 8.54897 29.2888C8.18287 29.088 7.77132 28.9836 7.35331 28.9854C6.93531 28.9872 6.52469 29.0952 6.16036 29.2992C5.79603 29.5032 5.49005 29.7963 5.27142 30.151C5.05279 30.5056 4.92873 30.9099 4.91102 31.3256C4.8933 31.7413 4.98251 32.1546 5.17019 32.5264C5.35787 32.8982 5.6378 33.2161 5.98347 33.4501C6.32913 33.684 6.72909 33.8263 7.14544 33.8633C7.56179 33.9003 7.98074 33.831 8.36262 33.6617H8.35796Z" fill="#3A3A3A"/>
<path d="M22.9914 41.3177C22.5255 41.2899 22.0596 41.2389 21.5937 41.174C21.6709 41.6067 21.6612 42.0503 21.5653 42.4793C21.4693 42.9083 21.289 43.3141 21.0347 43.6734C21.6889 43.777 22.3483 43.8451 23.01 43.8775C22.8752 43.5713 22.7902 43.2457 22.7584 42.9129C22.7021 42.3702 22.7821 41.822 22.9914 41.3177Z" fill="#3A3A3A"/>
<path d="M17.6383 39.0547C17.1529 39.2219 16.7324 39.5364 16.4361 39.954C16.1397 40.3715 15.9823 40.8711 15.9862 41.3823C15.99 41.8936 16.1548 42.3907 16.4574 42.8038C16.76 43.2169 17.1851 43.5252 17.673 43.6852C18.1608 43.8452 18.6868 43.8489 19.1768 43.6957C19.6668 43.5425 20.0963 43.2403 20.4047 42.8314C20.7131 42.4226 20.8849 41.9278 20.8959 41.4166C20.907 40.9055 20.7567 40.4038 20.4662 39.9821C19.4975 39.758 18.5511 39.4476 17.6383 39.0547Z" fill="#3A3A3A"/>
<path d="M27.3007 40.0657C26.3304 40.255 25.345 40.3574 24.3563 40.3717C23.9803 40.7213 23.724 41.1796 23.6238 41.682C23.5236 42.1843 23.5845 42.7053 23.7978 43.1714C24.0112 43.6374 24.3663 44.0249 24.813 44.2792C25.2596 44.5335 25.7752 44.6417 26.287 44.5885C26.7988 44.5353 27.2808 44.3234 27.665 43.9828C28.0493 43.6421 28.3162 43.1899 28.4283 42.69C28.5403 42.1902 28.4917 41.6679 28.2894 41.197C28.0871 40.7261 27.7412 40.3303 27.3007 40.0657Z" fill="#3A3A3A"/>
<path d="M14.256 37.0978C13.4648 36.5064 12.7289 35.8452 12.057 35.1223C11.5445 35.078 11.0309 35.1951 10.5888 35.4569C10.1467 35.7188 9.79847 36.1123 9.5932 36.5819C9.38793 37.0514 9.33602 37.5733 9.4448 38.0738C9.55359 38.5742 9.81758 39.0281 10.1995 39.3712C10.5814 39.7143 11.0619 39.9293 11.5732 39.9858C12.0845 40.0424 12.6008 39.9377 13.0491 39.6865C13.4973 39.4352 13.855 39.0502 14.0716 38.5857C14.2881 38.1212 14.3526 37.6007 14.256 37.0978Z" fill="#3A3A3A"/>
<path d="M14.8057 38.6746C14.6982 39.101 14.507 39.502 14.2431 39.8545C13.9793 40.2071 13.648 40.5042 13.2683 40.7289C13.8254 41.0931 14.4008 41.4289 14.9921 41.7351C14.9943 41.3979 15.0493 41.0631 15.1551 40.7428C15.3219 40.2266 15.6149 39.7597 16.0077 39.3841C15.5853 39.1584 15.1846 38.9219 14.8057 38.6746Z" fill="#3A3A3A"/>
<path d="M33.5901 37.3854C32.7798 37.9552 31.919 38.4503 31.0184 38.8647C30.8173 39.3382 30.7707 39.8628 30.8852 40.3641C30.9998 40.8655 31.2698 41.3184 31.657 41.6587C32.0442 41.9991 32.5291 42.2098 33.0431 42.2609C33.5571 42.3121 34.0742 42.2012 34.5215 41.944C34.9688 41.6867 35.3235 41.296 35.5356 40.8272C35.7477 40.3583 35.8064 39.835 35.7035 39.3311C35.6005 38.8273 35.3411 38.3683 34.9619 38.0192C34.5827 37.67 34.1028 37.4483 33.5901 37.3854Z" fill="#3A3A3A"/>
<path d="M40.3966 32.7527C40.0907 32.5303 39.7369 32.3818 39.3633 32.3191C38.9897 32.2563 38.6066 32.2809 38.2443 32.391C37.7354 33.2378 37.1506 34.0371 36.4972 34.7792C36.5058 35.195 36.621 35.6017 36.8317 35.9609C37.0424 36.3201 37.3417 36.6198 37.7012 36.8316C38.0608 37.0435 38.4688 37.1605 38.8865 37.1716C39.3042 37.1827 39.7178 37.0874 40.0882 36.895C40.4586 36.7025 40.7735 36.4191 41.0031 36.0716C41.2327 35.7241 41.3695 35.324 41.4004 34.9093C41.4312 34.4945 41.3553 34.0787 41.1796 33.7013C41.004 33.324 40.7345 32.9974 40.3966 32.7527Z" fill="#3A3A3A"/>
<path d="M36.2922 36.4161C35.9568 36.7407 35.612 37.0514 35.2533 37.3436C35.7207 37.6335 36.1094 38.0332 36.3854 38.5075C36.551 38.7975 36.6735 39.1099 36.7488 39.435C37.2562 39.02 37.7413 38.5789 38.2023 38.1134C37.8867 38.0046 37.5897 37.8482 37.3218 37.6496C36.8828 37.3281 36.5293 36.9047 36.2922 36.4161Z" fill="#3A3A3A"/>
<path d="M42.5677 25.4028C42.1945 25.328 41.809 25.3402 41.4412 25.4383C41.0735 25.5365 40.7336 25.7179 40.448 25.9685C40.3311 26.9435 40.1253 27.9058 39.833 28.8436C40.0118 29.2203 40.2842 29.5454 40.6244 29.7881C40.9647 30.0308 41.3615 30.1831 41.7774 30.2305C42.1933 30.2779 42.6144 30.2189 43.001 30.059C43.3875 29.8992 43.7267 29.6438 43.9864 29.317C44.2461 28.9903 44.4178 28.6029 44.4851 28.1917C44.5524 27.7805 44.5132 27.359 44.3711 26.967C44.2291 26.5751 43.9889 26.2257 43.6733 25.952C43.3578 25.6783 42.9772 25.4892 42.5677 25.4028Z" fill="#3A3A3A"/>
<path d="M30.1659 40.2789C29.7342 40.4397 29.2916 40.5834 28.8381 40.7102C29.1475 41.1598 29.3381 41.6797 29.3925 42.2219C29.4278 42.5545 29.4137 42.8905 29.3506 43.2189C29.9935 43.0427 30.6147 42.8387 31.2141 42.6068C30.5626 42.0057 30.1772 41.1718 30.1426 40.2882L30.1659 40.2789Z" fill="#3A3A3A"/>
<path d="M9.61114 33.6384C9.27369 34.0652 8.83725 34.4042 8.33928 34.6262C8.0315 34.7624 7.70479 34.8515 7.37024 34.8905C7.73363 35.4423 8.12497 35.9756 8.53961 36.4903C8.67955 36.185 8.86661 35.9034 9.09401 35.6556C9.46149 35.2596 9.92044 34.9588 10.4311 34.7792C10.1422 34.3943 9.86737 34.0233 9.61114 33.6384Z" fill="#3A3A3A"/>
<path d="M7.2119 28.2871C7.10009 27.8233 7.00691 27.3921 6.92771 26.9376C6.44533 27.1912 5.90788 27.3234 5.36235 27.3225C5.02402 27.3237 4.6876 27.2721 4.36536 27.1695C4.46991 27.8238 4.6083 28.4723 4.77999 29.1125C5.03267 28.889 5.31872 28.7059 5.6279 28.5699C6.12474 28.3482 6.66861 28.2511 7.2119 28.2871Z" fill="#3A3A3A"/>
<path d="M6.35932 18.8086C6.70577 18.9629 7.08357 19.0349 7.46281 19.0188C7.84204 19.0027 8.21231 18.899 8.54431 18.7158C8.86314 17.783 9.26703 16.8812 9.75094 16.0216C9.65679 15.616 9.46012 15.2411 9.17957 14.9324C8.89902 14.6236 8.54389 14.3914 8.14787 14.2576C7.75185 14.1238 7.32805 14.0929 6.91668 14.1679C6.5053 14.2428 6.11998 14.4211 5.79725 14.6859C5.47452 14.9506 5.22508 15.2931 5.07259 15.6807C4.9201 16.0683 4.86961 16.4883 4.92591 16.9007C4.98221 17.3132 5.14344 17.7046 5.39429 18.0376C5.64515 18.3707 5.97732 18.6345 6.35932 18.8039V18.8086Z" fill="#3A3A3A"/>
<path d="M9.61114 14.3753C9.86737 13.9904 10.1422 13.6148 10.4311 13.2531C9.91671 13.0695 9.45694 12.7601 9.09401 12.3535C8.86661 12.1057 8.67955 11.8241 8.53961 11.5188C8.12497 12.0335 7.73363 12.5668 7.37024 13.1186C7.70501 13.1592 8.03171 13.2499 8.33928 13.3876C8.83913 13.6065 9.27627 13.946 9.61114 14.3753Z" fill="#3A3A3A"/>
<path d="M17.6383 8.94978C18.5503 8.55482 19.497 8.24436 20.4662 8.02233C20.7567 7.60068 20.907 7.09897 20.8959 6.58784C20.8849 6.0767 20.7131 5.58188 20.4047 5.17304C20.0963 4.7642 19.6668 4.46192 19.1768 4.30877C18.6868 4.15561 18.1608 4.15929 17.673 4.31928C17.1851 4.47927 16.76 4.78752 16.4574 5.20063C16.1548 5.61374 15.99 6.11091 15.9862 6.62215C15.9823 7.13339 16.1397 7.63295 16.4361 8.0505C16.7324 8.46806 17.1529 8.78257 17.6383 8.94978Z" fill="#3A3A3A"/>
<path d="M12.0571 12.8683C12.729 12.1469 13.465 11.4873 14.256 10.8975C14.3547 10.3935 14.2916 9.87134 14.0758 9.40494C13.86 8.93853 13.5023 8.55147 13.0533 8.29852C12.6044 8.04556 12.0869 7.93951 11.574 7.99536C11.0612 8.05122 10.579 8.26615 10.1956 8.60975C9.81221 8.95336 9.54706 9.40825 9.43766 9.91008C9.32826 10.4119 9.38014 10.9353 9.58596 11.4061C9.79179 11.877 10.1411 12.2715 10.5846 12.5339C11.028 12.7963 11.5432 12.9133 12.0571 12.8683Z" fill="#3A3A3A"/>
<path d="M6.92771 21.0716C7.00691 20.6079 7.10009 20.1441 7.2119 19.7175C6.66898 19.7551 6.12508 19.6596 5.6279 19.4393C5.31946 19.2999 5.03367 19.1155 4.77999 18.8921C4.6083 19.5322 4.46991 20.1808 4.36536 20.8351C4.68812 20.7347 5.02419 20.6831 5.36235 20.6821C5.90825 20.6828 6.44567 20.8166 6.92771 21.0716Z" fill="#3A3A3A"/>
<path d="M14.8057 9.32547C15.1971 9.0797 15.5977 8.86175 16.0077 8.63452C15.6147 8.2572 15.3217 7.78878 15.1551 7.27118C15.0493 6.95083 14.9943 6.61602 14.9921 6.27881C14.4004 6.58487 13.8227 6.91411 13.2683 7.27118C13.5582 7.44291 13.8205 7.65708 14.0463 7.90648C14.4104 8.31181 14.6709 8.79857 14.8057 9.32547Z" fill="#3A3A3A"/>
<path d="M21.603 6.82607C22.0689 6.76115 22.5348 6.71478 23.0007 6.68232C22.7933 6.18236 22.7133 5.63917 22.7677 5.10102C22.8007 4.76844 22.8856 4.44301 23.0193 4.13647C22.3484 4.17357 21.6915 4.24313 21.0439 4.34051C21.5557 5.06702 21.7567 5.966 21.603 6.83998V6.82607Z" fill="#3A3A3A"/>
<path d="M41.7711 31.125C41.2343 31.0139 40.7344 30.7699 40.3175 30.4155C40.1451 30.8514 39.9541 31.2734 39.7491 31.6861C40.2923 31.7631 40.8086 31.97 41.2539 32.289C41.5224 32.4874 41.7609 32.7233 41.9621 32.9892C42.2619 32.4022 42.5309 31.8001 42.7681 31.1853C42.4346 31.2181 42.0981 31.1977 41.7711 31.125Z" fill="#3A3A3A"/>
<path d="M7.73365 25.4723C7.69172 25.0086 7.66843 24.4985 7.66843 24.0023C7.66843 23.5061 7.69172 23.0146 7.73365 22.5277C7.42341 22.1173 6.9914 21.8145 6.49874 21.662C6.00608 21.5095 5.47772 21.515 4.9884 21.6778C4.49908 21.8406 4.07357 22.1524 3.77207 22.5692C3.47057 22.9859 3.30835 23.4864 3.30835 24C3.30835 24.5135 3.47057 25.0141 3.77207 25.4308C4.07357 25.8475 4.49908 26.1593 4.9884 26.3221C5.47772 26.4849 6.00608 26.4905 6.49874 26.338C6.9914 26.1855 7.42341 25.8826 7.73365 25.4723Z" fill="#3A3A3A"/>
</g>
<defs>
<clipPath id="clip0_37_526">
<rect width="147" height="48" fill="white"/>
</clipPath>
</defs>
</svg>
