<svg width="49" height="49" viewBox="0 0 49 49" fill="none" xmlns="http://www.w3.org/2000/svg">
<g clip-path="url(#clip0_2245_17)">
<path d="M16.9634 29.5935V27.8364C16.9634 26.8064 16.6974 25.8282 16.1924 25.0074C15.4883 23.8619 14.0755 22.489 11.3423 22.4554C8.96078 22.4337 7.98233 23.554 7.6419 24.1397C6.36211 24.7009 5.63616 25.9569 5.63616 27.6377V29.8216C5.44528 30.1491 5.33105 30.5479 5.33105 30.9867C5.33105 32.0957 5.87514 32.6255 6.37563 32.855C7.01516 35.1739 9.05697 36.8148 11.3791 36.8148C13.6997 36.8148 15.7408 35.176 16.3818 32.8599C16.998 32.5618 17.4234 31.8438 17.4234 30.9867C17.4234 30.4409 17.2468 29.9552 16.9634 29.5935ZM8.45352 25.3397L8.7977 25.2117L8.91569 24.8968C8.93222 24.8534 9.33051 23.8549 11.2528 23.8549C11.2761 23.8549 11.2994 23.8549 11.3227 23.8549C12.9475 23.8752 14.1468 24.4965 14.8886 25.7029C15.2628 26.3117 15.4605 27.0492 15.4605 27.8364V28.9742C11.9209 28.6187 10.4397 27.1766 10.3946 27.1318L9.6514 26.3425L9.15692 27.2913C8.60231 28.3563 7.60583 28.7678 7.13915 28.9084V27.6377C7.13915 26.7882 7.36686 25.7001 8.45352 25.3397ZM15.7385 31.608L15.1155 31.6115L15.0036 32.1825C14.6376 34.0557 13.1128 35.4153 11.3791 35.4153C9.64539 35.4153 8.12136 34.0564 7.75463 32.1832L7.70277 31.6115H7.07603C6.96405 31.5933 6.83405 31.4191 6.83405 30.9867C6.83405 30.62 6.99336 30.3905 7.0144 30.3646L7.14667 30.3541C7.22783 30.3401 8.87811 30.0483 10.0136 28.6551C10.9139 29.2597 12.6679 30.1372 15.5018 30.3856L15.7182 30.3737C15.7926 30.4416 15.9204 30.6599 15.9204 30.9867C15.9204 31.3533 15.7603 31.5821 15.7385 31.608Z" fill="#B8D049"/>
<path d="M21.88 45.5359L21.756 44.4177C21.499 42.0932 19.7172 40.1255 17.323 39.5209C15.5848 39.0822 13.591 38.8597 11.3989 38.8562C11.3914 38.8562 11.3847 38.8562 11.3779 38.8562C11.3704 38.8562 11.3636 38.8555 11.3561 38.8555C9.16324 38.859 7.17027 39.0822 5.43282 39.5209C3.0378 40.1255 1.25601 42.0932 0.998997 44.4177L0.875 45.5359H2.26301L2.37273 44.5451C2.56511 42.8111 3.8885 41.3445 5.66653 40.8959C7.32659 40.4768 9.24816 40.2641 11.3779 40.2627C13.5069 40.2641 15.4285 40.4768 17.0885 40.8959C18.8665 41.3445 20.1907 42.8111 20.3823 44.5451L20.492 45.5359H21.88Z" fill="#B8D049"/>
<path d="M38.4976 36.6771C35.935 36.6771 33.8496 34.4827 33.8496 31.7845V29.0506H35.3526V31.7845C35.3526 33.7109 36.7632 35.2776 38.4976 35.2776C40.2321 35.2776 41.6426 33.7109 41.6426 31.7845V30.3066C40.9978 30.3843 40.0968 30.399 39.1026 30.1415C37.1276 29.6286 35.8839 27.691 35.8328 27.6091L37.1276 26.8989L36.4798 27.2543L37.1269 26.8975C37.1367 26.9129 38.1211 28.4334 39.5061 28.7931C40.9392 29.1646 42.1281 28.7854 42.1409 28.7826L43.1411 28.4551L43.1456 31.7845C43.1456 34.4827 41.0602 36.6771 38.4976 36.6771Z" fill="#B8D049"/>
<path d="M41.5778 37.395V35.9955C42.5127 35.9955 43.4625 35.8451 44.0404 35.7331V29.6601C44.0404 26.3118 41.5545 23.587 38.4982 23.587C35.4418 23.587 32.9551 26.3118 32.9551 29.6601V35.7513C33.4496 35.8591 34.2282 35.9955 35.0112 35.9955V37.395C33.4834 37.395 32.0376 36.9745 31.9767 36.957L31.4521 36.8016V29.6601C31.4521 25.54 34.6129 22.1875 38.4982 22.1875C42.3826 22.1875 45.5434 25.54 45.5434 29.6601V36.8254L44.9881 36.9647C44.9182 36.9829 43.2574 37.395 41.5778 37.395Z" fill="#B8D049"/>
<path d="M49.0002 45.5359L48.8762 44.4177C48.6192 42.0932 46.8374 40.1255 44.4431 39.5209C42.7049 39.0822 40.7112 38.8597 38.5191 38.8562C38.5115 38.8562 38.5048 38.8562 38.498 38.8562C38.4905 38.8562 38.4837 38.8555 38.4762 38.8555C36.2834 38.859 34.2904 39.0822 32.5529 39.5209C30.1579 40.1255 28.3761 42.0932 28.1191 44.4177L27.9951 45.5359H29.3831L29.4928 44.5451C29.6852 42.8111 31.0086 41.3445 32.7867 40.8959C34.4467 40.4768 36.3683 40.2641 38.498 40.2627C40.627 40.2641 42.5486 40.4768 44.2086 40.8959C45.9867 41.3445 47.3108 42.8111 47.5024 44.5451L47.6121 45.5359H49.0002Z" fill="#B8D049"/>
<path d="M24.938 18.9547C22.3754 18.9547 20.29 16.7603 20.29 14.0628V10.7194L21.2993 11.0616C21.3061 11.0644 22.4957 11.4436 23.9288 11.0707C25.3145 10.711 26.2982 9.19048 26.308 9.17578L27.6028 9.88672C27.551 9.96859 26.308 11.9062 24.3323 12.4191C23.3381 12.6773 22.4378 12.6619 21.793 12.5842V14.0628C21.793 15.9885 23.2036 17.5552 24.938 17.5552C26.6717 17.5552 28.0823 15.9885 28.0823 14.0628V11.3282H29.5853V14.0628C29.5853 16.7603 27.5006 18.9547 24.938 18.9547Z" fill="#B8D049"/>
<path d="M31.9839 20.9697H30.4809V11.9374C30.4809 8.58913 27.9942 5.86433 24.9386 5.86433C21.8823 5.86433 19.3956 8.58913 19.3956 11.9374V20.9697H17.8926V11.9374C17.8926 7.81731 21.0534 4.46484 24.9386 4.46484C28.8231 4.46484 31.9839 7.81731 31.9839 11.9374V20.9697Z" fill="#B8D049"/>
<path d="M30.8544 21.6625C29.1162 21.2238 27.1224 21.0013 24.9303 20.9985V20.9971C24.9236 20.9971 24.9168 20.9978 24.9093 20.9978C24.9018 20.9978 24.895 20.9971 24.8875 20.9971V20.9985C22.6954 21.0013 20.7024 21.2238 18.9642 21.6625C18.2052 21.8543 17.5176 22.195 16.9111 22.6289L17.9279 23.5763C18.3142 23.3384 18.7403 23.153 19.1987 23.0375C20.858 22.6184 22.7796 22.4057 24.9093 22.4043C27.0383 22.4057 28.9606 22.6184 30.6199 23.0375C31.1016 23.1593 31.5457 23.3608 31.947 23.6162L32.9646 22.6688C32.3446 22.2153 31.6374 21.8599 30.8544 21.6625Z" fill="#B8D049"/>
</g>
<defs>
<clipPath id="clip0_2245_17">
<rect width="48.125" height="41.0714" fill="white" transform="translate(0.875 4.46484)"/>
</clipPath>
</defs>
</svg>
