<svg width="49" height="49" viewBox="0 0 49 49" fill="none" xmlns="http://www.w3.org/2000/svg">
<g clip-path="url(#clip0_2245_269)">
<g clip-path="url(#clip1_2245_269)">
<path d="M48.9999 48.9998H35.2441V16.4193L48.9999 10.3379V48.9998ZM36.7743 47.4658H47.4697V12.6918L36.7743 17.4202V47.4658Z" fill="#B8D049"/>
<path d="M31.3786 49H17.6221V24.2074L31.3778 18.126L31.3786 49ZM19.1523 47.466H29.8476V20.4791L19.1523 25.2075V47.466Z" fill="#B8D049"/>
<path d="M13.7569 48.9999H0.00195312V31.9945L13.7569 25.9131V48.9999ZM1.53215 47.466H12.2267V28.2662L1.53215 32.9954V47.466Z" fill="#B8D049"/>
<path d="M42.8861 0L42.3329 1.43042L46.0115 2.86083L0 23.2011V24.8777L46.629 4.2644L45.202 7.95204L46.629 8.50657L49 2.3784L42.8861 0Z" fill="#B8D049"/>
</g>
</g>
<defs>
<clipPath id="clip0_2245_269">
<rect width="49" height="49" fill="white"/>
</clipPath>
<clipPath id="clip1_2245_269">
<rect width="49" height="49" fill="white"/>
</clipPath>
</defs>
</svg>
