<svg width="47" height="47" viewBox="0 0 47 47" fill="none" xmlns="http://www.w3.org/2000/svg">
<g clip-path="url(#clip0_2245_932)">
<path d="M4.29904 46.133C1.87201 46.133 -0.00976562 44.1606 -0.00976562 41.7357V8.06013C-0.00976562 5.63526 1.87201 3.66285 4.29904 3.66285H7.17206V0H8.64381V3.66356H37.4193V0H38.8903V3.66356H41.6706C44.0976 3.66356 46.0729 5.63598 46.0729 8.06085V41.7357C46.0729 44.1606 44.0983 46.133 41.6706 46.133H4.29904ZM1.46127 41.7357C1.46127 43.3506 2.6827 44.6648 4.29904 44.6648H41.6698C43.2862 44.6648 44.6011 43.3506 44.6011 41.7357V13.0171H1.46127V41.7357ZM4.29904 5.131C2.6827 5.131 1.46127 6.44523 1.46127 8.06013V11.5489H44.6011V8.06013C44.6011 6.44523 43.2862 5.131 41.6698 5.131H38.8896V8.79457H37.4186V5.131H8.64309V8.79457H7.17206V5.131H4.29904Z" fill="#B8D049"/>
<path d="M4.25684 18.7477V15.8682H7.1428V18.7477H4.25684Z" fill="#B8D049"/>
<path d="M10.0479 18.7477V15.8682H12.9338V18.7477H10.0479Z" fill="#B8D049"/>
<path d="M15.7588 18.7477V15.8682H18.6448V18.7477H15.7588Z" fill="#B8D049"/>
<path d="M21.5508 18.7477V15.8682H24.4367V18.7477H21.5508Z" fill="#B8D049"/>
<path d="M27.3574 18.7477V15.8682H30.2434V18.7477H27.3574Z" fill="#B8D049"/>
<path d="M33.1484 18.7477V15.8682H36.0344V18.7477H33.1484Z" fill="#B8D049"/>
<path d="M38.9062 18.7477V15.8682H41.7922V18.7477H38.9062Z" fill="#B8D049"/>
<path d="M4.25684 24.5055V21.626H7.1428V24.5055H4.25684Z" fill="#B8D049"/>
<path d="M10.0479 24.5055V21.626H12.9338V24.5055H10.0479Z" fill="#B8D049"/>
<path d="M15.7588 24.5055V21.626H18.6448V24.5055H15.7588Z" fill="#B8D049"/>
<path d="M21.5508 24.5055V21.626H24.4367V24.5055H21.5508Z" fill="#B8D049"/>
<path d="M27.3574 24.5055V21.626H30.2434V24.5055H27.3574Z" fill="#B8D049"/>
<path d="M33.1484 24.5055V21.626H36.0344V24.5055H33.1484Z" fill="#B8D049"/>
<path d="M38.9062 24.5055V21.626H41.7922V24.5055H38.9062Z" fill="#B8D049"/>
<path d="M4.25684 30.2633V27.3838H7.1428V30.2633H4.25684Z" fill="#B8D049"/>
<path d="M10.0479 30.2633V27.3838H12.9338V30.2633H10.0479Z" fill="#B8D049"/>
<path d="M15.7588 30.2633V27.3838H18.6448V30.2633H15.7588Z" fill="#B8D049"/>
<path d="M21.5508 30.2633V27.3838H24.4367V30.2633H21.5508Z" fill="#B8D049"/>
<path d="M27.3574 30.2633V27.3838H30.2434V30.2633H27.3574Z" fill="#B8D049"/>
<path d="M33.1484 30.2633V27.3838H36.0344V30.2633H33.1484Z" fill="#B8D049"/>
<path d="M38.9062 30.2633V27.3838H41.7922V30.2633H38.9062Z" fill="#B8D049"/>
<path d="M4.25684 36.0221V33.1426H7.1428V36.0221H4.25684Z" fill="#B8D049"/>
<path d="M10.0479 36.0221V33.1426H12.9338V36.0221H10.0479Z" fill="#B8D049"/>
<path d="M15.7588 36.0221V33.1426H18.6448V36.0221H15.7588Z" fill="#B8D049"/>
<path d="M21.5508 36.0221V33.1426H24.4367V36.0221H21.5508Z" fill="#B8D049"/>
<path d="M27.3574 36.0221V33.1426H30.2434V36.0221H27.3574Z" fill="#B8D049"/>
<path d="M33.1484 36.0221V33.1426H36.0344V36.0221H33.1484Z" fill="#B8D049"/>
<path d="M38.9062 36.0221V33.1426H41.7922V36.0221H38.9062Z" fill="#B8D049"/>
<path d="M4.25684 41.7809V38.9014H7.1428V41.7809H4.25684Z" fill="#B8D049"/>
<path d="M10.0479 41.7809V38.9014H12.9338V41.7809H10.0479Z" fill="#B8D049"/>
<path d="M15.7588 41.7809V38.9014H18.6448V41.7809H15.7588Z" fill="#B8D049"/>
</g>
<defs>
<clipPath id="clip0_2245_932">
<rect width="46.0819" height="46.133" fill="white" transform="translate(-0.00976562)"/>
</clipPath>
</defs>
</svg>
