<svg width="74" height="74" viewBox="0 0 74 74" fill="none" xmlns="http://www.w3.org/2000/svg">
<rect width="74" height="74" rx="37" fill="white"/>
<g clip-path="url(#clip0_4_490)">
<path d="M21.6603 29.961C22.5772 29.961 23.3204 29.2177 23.3204 28.3009C23.3204 27.384 22.5772 26.6407 21.6603 26.6407C20.7434 26.6407 20.0001 27.384 20.0001 28.3009C20.0001 29.2177 20.7434 29.961 21.6603 29.961Z" fill="#F2A231"/>
<path d="M52.3398 29.961C53.2567 29.961 54 29.2177 54 28.3009C54 27.384 53.2567 26.6407 52.3398 26.6407C51.423 26.6407 50.6797 27.384 50.6797 28.3009C50.6797 29.2177 51.423 29.961 52.3398 29.961Z" fill="#F2A231"/>
<path d="M24.9806 23.3204C25.8975 23.3204 26.6407 22.5772 26.6407 21.6603C26.6407 20.7434 25.8975 20.0001 24.9806 20.0001C24.0637 20.0001 23.3204 20.7434 23.3204 21.6603C23.3204 22.5772 24.0637 23.3204 24.9806 23.3204Z" fill="#F2A231"/>
<path d="M21.9259 37.4649C22.8428 37.4649 23.5861 36.7216 23.5861 35.8047C23.5861 34.8879 22.8428 34.1446 21.9259 34.1446C21.009 34.1446 20.2657 34.8879 20.2657 35.8047C20.2657 36.7216 21.009 37.4649 21.9259 37.4649Z" fill="#F2A231"/>
<path d="M40.7281 49.3493C40.0299 49.1244 39.2817 49.5076 39.0564 50.2056L38.6892 51.3438H35.2446L34.8774 50.2056C34.6521 49.5075 33.9038 49.124 33.2057 49.3493C32.5076 49.5745 32.1243 50.323 32.3494 51.021L33.0134 53.0796C33.1904 53.6283 33.701 54 34.2774 54H39.6563C40.2327 54 40.7433 53.6282 40.9203 53.0796L41.5844 51.021C41.8095 50.323 41.4262 49.5745 40.7281 49.3493V49.3493Z" fill="#F2A231"/>
<path d="M52.1406 37.4649C53.0575 37.4649 53.8008 36.7216 53.8008 35.8047C53.8008 34.8879 53.0575 34.1446 52.1406 34.1446C51.2237 34.1446 50.4805 34.8879 50.4805 35.8047C50.4805 36.7216 51.2237 37.4649 52.1406 37.4649Z" fill="#F2A231"/>
<path d="M49.1523 23.3204C50.0692 23.3204 50.8125 22.5772 50.8125 21.6603C50.8125 20.7434 50.0692 20.0001 49.1523 20.0001C48.2355 20.0001 47.4922 20.7434 47.4922 21.6603C47.4922 22.5772 48.2355 23.3204 49.1523 23.3204Z" fill="#F2A231"/>
<path d="M39.7227 32.0196H36.7917L39.276 28.5416C39.7024 27.9448 39.5641 27.1153 38.9673 26.689C38.3705 26.2625 37.5409 26.4007 37.1146 26.9977L33.1302 32.5758C32.8411 32.9807 32.8023 33.5131 33.03 33.9555C33.2577 34.3979 33.7134 34.6759 34.2109 34.6759H37.1122L34.7312 37.9447C34.2993 38.5377 34.4299 39.3684 35.0227 39.8002C35.2588 39.9721 35.5324 40.0549 35.8036 40.0549C36.2137 40.0549 36.6184 39.8655 36.8783 39.5086L40.7962 34.1297C41.0905 33.7258 41.1331 33.1909 40.9064 32.7455C40.6798 32.3001 40.2224 32.0196 39.7227 32.0196V32.0196Z" fill="#F2A231"/>
<path d="M37.0001 20.0002C37.0097 19.9999 36.9905 19.9999 37.0001 20.0002V20.0002Z" fill="#F2A231"/>
<path d="M45.7058 23.416C43.4349 21.2335 40.3072 20.0222 37.0001 20.0001C33.6929 20.0222 30.5653 21.2335 28.2943 23.416C25.9433 25.6755 24.6486 28.8018 24.6486 32.2189C24.6486 35.7658 26.0949 39.468 28.8315 42.9253C30.8619 45.4905 32.8842 47.0275 32.9694 47.0917C33.1998 47.2655 33.4805 47.3595 33.7691 47.3595H40.1677C40.4545 47.3595 40.7336 47.2666 40.9632 47.0948C41.049 47.0307 43.087 45.4941 45.1337 42.9293C47.893 39.4714 49.3516 35.7677 49.3516 32.2189C49.3516 28.8017 48.0568 25.6755 45.7058 23.416V23.416ZM39.7015 44.7031H34.2385C32.8155 43.5112 27.3048 38.4885 27.3048 32.2188C27.3048 26.7828 31.4783 22.6795 37.0001 22.6564C42.5219 22.6795 46.6953 26.7828 46.6953 32.2188C46.6953 38.4925 41.1281 43.5186 39.7015 44.7031Z" fill="#F2A231"/>
</g>
<defs>
<clipPath id="clip0_4_490">
<rect width="34" height="34" fill="white" transform="translate(20 20)"/>
</clipPath>
</defs>
</svg>
