<svg width="74" height="74" viewBox="0 0 74 74" fill="none" xmlns="http://www.w3.org/2000/svg">
<rect width="74" height="74" rx="37" fill="white"/>
<path d="M52.0755 50.2913C44.0636 55.0099 33.1674 55.4667 23.9272 50.1207C22.5498 49.3737 21.6666 49.5391 21.6666 49.5391L21.6663 49.538C19.9396 49.9273 19.3048 47.4857 20.9827 46.9733L20.9823 46.9721C20.997 46.9682 22.3719 46.2938 25.1942 47.7859C28.2312 49.3916 32.8753 51.3772 37.9362 51.3772C43.6212 51.3772 47.4898 49.7291 50.8236 47.948C51.2984 47.6944 51.4818 47.0986 51.2326 46.6199C50.967 46.0714 50.3274 46.0041 49.858 46.1846C46.3526 47.6841 38.7896 49.8617 33.4732 48.3446C31.7899 47.8365 32.4273 45.3909 34.1485 45.7754C35.2306 46.0598 36.4687 46.2049 37.7293 46.1966C39.1786 46.1465 41.1562 46.0526 41.6976 44.9239C42.0042 44.2047 41.5135 43.3752 40.8356 43.224C40.5846 43.1541 40.2803 43.1405 39.9557 43.1846C39.1266 43.2973 38.3443 43.3481 37.606 43.3481C33.4999 43.3483 30.7376 41.7793 28.6338 40.5846C27.2288 39.7867 26.1191 39.1565 25.0439 39.1565C23.6459 39.1565 21.7213 39.76 21.7213 39.76C20.0316 40.2259 19.2615 37.816 20.9278 37.2246C24.2689 36.2991 26.1346 35.9187 29.9457 38.2745C32.3367 39.6322 35.0469 41.171 39.5977 40.5522C40.2876 40.4584 40.9442 40.4963 41.5493 40.665C43.5289 41.1627 44.7964 43.309 44.3673 45.2501C46.0706 44.7804 47.6356 44.1866 48.9155 43.7008C53.3037 42.1045 56.0537 47.981 52.0755 50.2913ZM51.6772 28.0648V33.511C51.6772 35.7084 49.8895 37.4961 47.6921 37.4961H36.4676C34.2703 37.4961 32.4826 35.7084 32.4826 33.511V28.0648C32.4826 25.8675 34.2703 24.0798 36.4676 24.0798H37.3225C37.0534 23.7565 36.8825 23.5096 36.826 23.4255C36.417 22.8164 36.5793 21.9911 37.1883 21.5822C37.7974 21.1733 38.6227 21.3354 39.0316 21.9446C39.29 22.3245 40.0166 23.1961 40.8512 23.6972V21.3473C40.8512 20.6136 41.4459 20.0189 42.1795 20.0189C42.9132 20.0189 43.5079 20.6136 43.5079 21.3473V23.5342C44.2645 23.0028 44.8891 22.2285 45.0797 21.9446C45.4887 21.3354 46.314 21.1733 46.923 21.5822C47.5321 21.9911 47.6943 22.8164 47.2854 23.4255C47.2289 23.5096 47.058 23.7565 46.7889 24.0798H47.6921C49.8895 24.0798 51.6772 25.8675 51.6772 28.0648ZM36.4676 34.8394H40.8512V26.7365H36.4676C35.7352 26.7365 35.1393 27.3324 35.1393 28.0648V33.511C35.1393 34.2435 35.7352 34.8394 36.4676 34.8394ZM49.0205 28.0648C49.0205 27.3324 48.4246 26.7365 47.6921 26.7365H43.5079V34.8394H47.6921C48.4246 34.8394 49.0205 34.2435 49.0205 33.511V28.0648Z" fill="#F2A231"/>
</svg>
