<svg width="74" height="74" viewBox="0 0 74 74" fill="none" xmlns="http://www.w3.org/2000/svg">
<rect width="74" height="74" rx="37" fill="white"/>
<path d="M32.2855 40.0552C32.2855 39.3217 32.8801 38.7271 33.6136 38.7271H40.3868C42.1489 38.7972 42.1475 41.3137 40.3868 41.3833H33.6136C32.8801 41.3833 32.2855 40.7887 32.2855 40.0552V40.0552ZM53.9449 26.1556L51.3434 34.9354V46.0315C51.3434 50.4253 47.7688 54 43.375 54H30.6254C26.2316 54 22.6569 50.4253 22.6569 46.0315V34.7429C22.6569 34.7366 22.6578 34.7306 22.6579 34.7245L20.0582 26.1643C19.845 25.4625 20.2412 24.7207 20.943 24.5076C21.6451 24.2943 22.3866 24.6906 22.5996 25.3924L25.0361 33.4148H49.0237L51.3981 25.401C51.6065 24.6977 52.346 24.2966 53.0487 24.505C53.7521 24.7133 54.1532 25.4524 53.9449 26.1556V26.1556ZM48.6873 36.0709H25.3131V46.0315C25.3131 48.9607 27.6962 51.3438 30.6254 51.3438H43.375C46.3042 51.3438 48.6873 48.9607 48.6873 46.0315V36.0709ZM36.9338 30.7542C36.1798 30.7543 35.4259 30.5204 34.7967 30.0528C32.3328 28.2213 31.0054 26.0145 30.9577 23.6707C30.9237 20.595 34.5676 18.8916 36.9338 20.8103C39.3013 18.8913 42.9438 20.5958 42.9099 23.6707C42.8621 26.0145 41.5346 28.2213 39.0709 30.0528C38.4417 30.5204 37.6877 30.7542 36.9338 30.7542ZM33.6136 23.632C33.6597 25.5103 35.1431 27.0006 36.3814 27.921C36.7067 28.1629 37.161 28.1628 37.4863 27.921C38.7245 27.0006 40.2079 25.5103 40.254 23.6319C40.2109 22.3631 38.3056 22.3289 38.2619 23.5869C38.2619 24.3204 37.6673 24.915 36.9338 24.915C36.2003 24.915 35.6058 24.3204 35.6058 23.5869C35.6058 23.057 35.1776 22.6573 34.6097 22.6573C34.0643 22.6573 33.62 23.0935 33.6136 23.632V23.632Z" fill="#F2A231"/>
</svg>
