<svg width="74" height="74" viewBox="0 0 74 74" fill="none" xmlns="http://www.w3.org/2000/svg">
<rect width="74" height="74" rx="37" fill="white"/>
<g clip-path="url(#clip0_4_496)">
<path d="M54 27.9688V34.3438C53.9299 36.1059 51.4133 36.1046 51.3438 34.3438V27.9688C51.3438 25.0394 48.9606 22.6562 46.0312 22.6562H27.9688C25.0394 22.6562 22.6562 25.0394 22.6562 27.9688V46.0312C22.6562 48.9606 25.0394 51.3438 27.9688 51.3438H34.6094C36.3715 51.4139 36.3702 53.9305 34.6094 54H27.9688C23.5748 54 20 50.4252 20 46.0312V27.9688C20 23.5748 23.5748 20 27.9688 20H46.0312C50.4252 20 54 23.5748 54 27.9688ZM41.7148 27.3047C41.7148 26.5712 41.1202 25.9766 40.3867 25.9766H33.6133C31.8511 26.0467 31.8525 28.5633 33.6133 28.6328H40.3867C41.1202 28.6328 41.7148 28.0382 41.7148 27.3047ZM52.6719 46.3756C51.9818 46.1269 51.2208 46.4847 50.9721 47.1747C48.4716 53.7563 38.8467 52.0872 38.7266 45.0351C38.6661 40.5298 43.5768 37.3224 47.6677 39.3356C48.3341 39.642 49.1227 39.3502 49.4293 38.6839C49.7357 38.0174 49.444 37.2288 48.7776 36.9223C42.9728 34.0872 35.9797 38.6273 36.0704 45.0352C36.2414 55.0564 49.9188 57.4285 53.4709 48.0753C53.7197 47.3853 53.3619 46.6243 52.6719 46.3756V46.3756ZM48.4324 46.7525L53.6154 41.5207C54.1316 40.9995 54.1277 40.1586 53.6066 39.6424C53.0855 39.1262 52.2446 39.1301 51.7284 39.6512L46.5428 44.8857C46.2753 45.1704 45.7948 45.171 45.5282 44.8898L43.6611 42.9783C43.1486 42.4535 42.3078 42.4437 41.783 42.9562C41.2583 43.4688 41.2484 44.3096 41.7609 44.8343L43.632 46.7499C44.2723 47.3999 45.1253 47.7579 46.0336 47.7579C46.9419 47.7579 47.7946 47.3998 48.4324 46.7525V46.7525Z" fill="#F2A231"/>
</g>
<defs>
<clipPath id="clip0_4_496">
<rect width="34" height="34" fill="white" transform="translate(20 20)"/>
</clipPath>
</defs>
</svg>
