<svg width="74" height="74" viewBox="0 0 74 74" fill="none" xmlns="http://www.w3.org/2000/svg">
<rect width="74" height="74" rx="37" fill="white"/>
<path d="M37 30.625C37.7335 30.625 38.3281 30.0304 38.3281 29.2969C38.3281 28.5634 37.7335 27.9688 37 27.9688C36.2665 27.9688 35.6719 28.5634 35.6719 29.2969C35.6719 30.0304 36.2665 30.625 37 30.625Z" fill="#F2A231"/>
<path d="M31.6875 30.625H29.0312C28.2977 30.625 27.7031 30.0304 27.7031 29.2969C27.7031 28.5634 28.2977 27.9688 29.0312 27.9688H31.6875C32.421 27.9688 33.0156 28.5634 33.0156 29.2969C33.0156 30.0304 32.421 30.625 31.6875 30.625Z" fill="#F2A231"/>
<path d="M44.9688 30.625H42.3125C41.579 30.625 40.9844 30.0304 40.9844 29.2969C40.9844 28.5634 41.579 27.9688 42.3125 27.9688H44.9688C45.7023 27.9688 46.2969 28.5634 46.2969 29.2969C46.2969 30.0304 45.7023 30.625 44.9688 30.625Z" fill="#F2A231"/>
<path d="M51.5003 25.5969L38.4847 20.2844C38.469 20.278 38.4531 20.2719 38.4371 20.2661C38.1037 20.1447 37.5837 20 37 20C36.4163 20 35.8963 20.1447 35.5629 20.2661C35.5467 20.2719 35.5307 20.2782 35.5148 20.2847L22.7453 25.5037C22.6913 25.5229 22.6478 25.5403 22.6139 25.5538C22.6031 25.5581 22.5924 25.5628 22.5807 25.5669C22.5544 25.5757 22.5284 25.5853 22.5027 25.5957C20.9823 26.2119 20 27.6647 20 29.2969C20 30.7771 20.8168 32.128 22.1316 32.8223C22.4454 32.988 22.6562 33.4138 22.6562 33.8818V50.0156C22.6562 52.2126 24.4436 54 26.6406 54H47.3594C49.5564 54 51.3438 52.2126 51.3438 50.0156V33.8818C51.3438 33.4138 51.5546 32.988 51.8683 32.8223C53.1832 32.128 54 30.7771 54 29.2969C54 27.6647 53.0177 26.2119 51.5003 25.5969ZM50.628 30.4735C49.431 31.1055 48.6875 32.4115 48.6875 33.8818V50.0156C48.6875 50.748 48.0917 51.3438 47.3594 51.3438H26.6406C25.9083 51.3438 25.3125 50.748 25.3125 50.0156V33.8818C25.3125 32.4115 24.5689 31.1055 23.372 30.4735C22.9305 30.2403 22.6562 29.7895 22.6562 29.2969C22.6562 28.761 22.9765 28.2817 23.4746 28.0682C23.5264 28.0497 23.5683 28.033 23.601 28.0198C23.6119 28.0155 23.6226 28.0109 23.6341 28.0067C23.662 27.9974 23.6895 27.9873 23.7166 27.9762L36.4927 22.7545C36.6731 22.691 36.8524 22.6562 37 22.6562C37.1476 22.6562 37.3271 22.6911 37.5075 22.7546L50.4995 28.0574C51.0124 28.2653 51.3438 28.7518 51.3438 29.2969C51.3438 29.7895 51.0695 30.2403 50.628 30.4735Z" fill="#F2A231"/>
<path d="M42.3125 33.2812H31.6875C29.4905 33.2812 27.7031 35.0686 27.7031 37.2656V47.3594C27.7031 48.0929 28.2977 48.6875 29.0312 48.6875C29.7648 48.6875 30.3594 48.0929 30.3594 47.3594V46.5625H43.6406V47.3594C43.6406 48.0929 44.2352 48.6875 44.9688 48.6875C45.7023 48.6875 46.2969 48.0929 46.2969 47.3594V37.2656C46.2969 35.0686 44.5095 33.2812 42.3125 33.2812ZM31.6875 35.9375H42.3125C43.0448 35.9375 43.6406 36.5333 43.6406 37.2656V38.5938H30.3594V37.2656C30.3594 36.5333 30.9552 35.9375 31.6875 35.9375ZM30.3594 43.9062V41.25H43.6406V43.9062H30.3594Z" fill="#F2A231"/>
</svg>
