<svg width="74" height="74" viewBox="0 0 74 74" fill="none" xmlns="http://www.w3.org/2000/svg">
<rect width="74" height="74" rx="37" fill="white"/>
<path d="M47.3594 30.3594H43.375V29.0312C43.375 25.3696 40.396 22.3906 36.7344 22.3906H26.6406C22.979 22.3906 20 25.3696 20 29.0312V42.3125C20 45.5881 22.3841 48.317 25.5081 48.8561C26.028 50.4522 27.5295 51.6094 29.2969 51.6094C31.0283 51.6094 32.5045 50.4989 33.0528 48.9531H36.7344C37.4679 48.9531 38.0625 48.3585 38.0625 47.625C38.0625 46.8915 37.4679 46.2969 36.7344 46.2969H33.0528C32.5046 44.7511 31.0283 43.6406 29.2969 43.6406C27.6185 43.6406 26.1801 44.6844 25.5942 46.1564C23.9034 45.6956 22.6562 44.1474 22.6562 42.3125V29.0312C22.6562 26.8343 24.4436 25.0469 26.6406 25.0469H36.7344C38.9314 25.0469 40.7188 26.8343 40.7188 29.0312V40.1114C40.7188 40.8449 41.3134 41.4395 42.0469 41.4395C42.7804 41.4395 43.375 40.8449 43.375 40.1114V33.0156H46.0312V37C46.0312 39.197 47.8186 40.9844 50.0156 40.9844H51.3438V44.9688C51.3438 45.7011 50.748 46.2969 50.0156 46.2969H48.4591C47.9108 44.7511 46.4345 43.6406 44.7031 43.6406C42.5061 43.6406 40.7188 45.428 40.7188 47.625C40.7188 49.822 42.5061 51.6094 44.7031 51.6094C46.4345 51.6094 47.9107 50.4989 48.4591 48.9531H50.0156C52.2126 48.9531 54 47.1657 54 44.9688V37C54 33.3384 51.021 30.3594 47.3594 30.3594V30.3594ZM29.2969 46.2969C30.0292 46.2969 30.625 46.8927 30.625 47.625C30.625 48.3573 30.0292 48.9531 29.2969 48.9531C28.5645 48.9531 27.9688 48.3573 27.9688 47.625C27.9688 46.8927 28.5645 46.2969 29.2969 46.2969ZM44.7031 48.9531C43.9708 48.9531 43.375 48.3573 43.375 47.625C43.375 46.8927 43.9708 46.2969 44.7031 46.2969C45.4355 46.2969 46.0312 46.8927 46.0312 47.625C46.0312 48.3573 45.4355 48.9531 44.7031 48.9531ZM50.0156 38.3281C49.2833 38.3281 48.6875 37.7323 48.6875 37V33.2441C50.2333 33.7923 51.3438 35.2686 51.3438 37V38.3281H50.0156Z" fill="#F2A231"/>
<path d="M34.0781 30.3594H26.6406C25.9071 30.3594 25.3125 29.7648 25.3125 29.0312C25.3125 28.2977 25.9071 27.7031 26.6406 27.7031H34.0781C34.8116 27.7031 35.4062 28.2977 35.4062 29.0312C35.4062 29.7648 34.8116 30.3594 34.0781 30.3594Z" fill="#F2A231"/>
<path d="M34.0781 35.6719H29.2969C28.5634 35.6719 27.9688 35.0773 27.9688 34.3438C27.9688 33.6102 28.5634 33.0156 29.2969 33.0156H34.0781C34.8116 33.0156 35.4062 33.6102 35.4062 34.3438C35.4062 35.0773 34.8116 35.6719 34.0781 35.6719Z" fill="#F2A231"/>
<path d="M34.0781 40.9844H31.9531C31.2196 40.9844 30.625 40.3898 30.625 39.6562C30.625 38.9227 31.2196 38.3281 31.9531 38.3281H34.0781C34.8116 38.3281 35.4062 38.9227 35.4062 39.6562C35.4062 40.3898 34.8116 40.9844 34.0781 40.9844Z" fill="#F2A231"/>
</svg>
