<svg width="52" height="52" viewBox="0 0 52 52" fill="none" xmlns="http://www.w3.org/2000/svg">
<path d="M26 45.5C36.7696 45.5 45.5 36.7696 45.5 26C45.5 15.2304 36.7696 6.5 26 6.5C15.2304 6.5 6.5 15.2304 6.5 26C6.5 36.7696 15.2304 45.5 26 45.5Z" stroke="#FCFBFB" stroke-width="2" stroke-linecap="round" stroke-linejoin="round"/>
<path d="M33.5856 25.2786L23.0144 18.2326C22.884 18.1456 22.7325 18.0956 22.5759 18.088C22.4193 18.0803 22.2636 18.1152 22.1253 18.189C21.987 18.2628 21.8713 18.3728 21.7906 18.5071C21.7098 18.6415 21.667 18.7952 21.6667 18.952V33.0483C21.6673 33.2047 21.7102 33.3581 21.7908 33.4921C21.8715 33.6261 21.9869 33.7358 22.1248 33.8096C22.2627 33.8833 22.4181 33.9184 22.5743 33.911C22.7305 33.9036 22.8819 33.8541 23.0122 33.7676L33.5856 26.7216C33.7045 26.6425 33.8019 26.5353 33.8694 26.4094C33.9368 26.2835 33.9721 26.1429 33.9721 26.0001C33.9721 25.8573 33.9368 25.7168 33.8694 25.5909C33.8019 25.465 33.7045 25.3578 33.5856 25.2786Z" fill="#FCFBFB"/>
</svg>
