<svg width="1935" height="491" viewBox="0 0 1935 491" fill="none" xmlns="http://www.w3.org/2000/svg">
<g opacity="0.3">
<path opacity="0.3" d="M1389 490.989C1338.87 490.989 1298 450.756 1298 401.45C1298 352.143 1338.87 311.911 1389 311.911C1439.13 311.911 1480 352.143 1480 401.45C1480 450.756 1439.29 490.989 1389 490.989ZM1389 317.507C1341.9 317.507 1303.75 355.168 1303.75 401.45C1303.75 447.731 1342.06 485.392 1389 485.392C1436.1 485.392 1474.25 447.731 1474.25 401.45C1474.41 355.168 1436.1 317.507 1389 317.507Z" fill="white"/>
</g>
<g opacity="0.3">
<path opacity="0.3" d="M1745 373.899C1640.33 373.899 1555 290.021 1555 186.95C1555 83.8785 1640.18 0 1745 0C1849.67 0 1935 83.8785 1935 186.95C1934.85 290.021 1849.67 373.899 1745 373.899ZM1745 11.6576C1646.78 11.6576 1567 90.276 1567 186.95C1567 283.623 1646.93 362.241 1745 362.241C1843.22 362.241 1923 283.623 1923 186.95C1923 90.276 1843.07 11.6576 1745 11.6576Z" fill="white"/>
</g>
<path opacity="0.51" d="M1399.3 100.692L1372 84.016L1399.3 67.2952V100.692Z" fill="#832381"/>
<path opacity="0.51" d="M1431.63 100.692L1404.33 84.016L1431.63 67.2952V100.692Z" fill="#832381"/>
<path opacity="0.51" d="M1464 100.692L1436.7 84.016L1464 67.2952V100.692Z" fill="#832381"/>
<path d="M169.489 59.5392L156.832 71.9926" stroke="#781876" stroke-width="4" stroke-linecap="round" stroke-linejoin="round"/>
<path d="M133.82 94.6353L121.163 107.089" stroke="#781876" stroke-width="4" stroke-linecap="round" stroke-linejoin="round"/>
<path d="M169.488 107.088L156.831 94.6349" stroke="#781876" stroke-width="4" stroke-linecap="round" stroke-linejoin="round"/>
<path d="M133.819 71.9919L121.162 59.5386" stroke="#781876" stroke-width="4" stroke-linecap="round" stroke-linejoin="round"/>
<g opacity="0.6">
<g opacity="0.6">
<mask id="mask0_14_1255" style="mask-type:alpha" maskUnits="userSpaceOnUse" x="163" y="417" width="19" height="20">
<g opacity="0.6">
<g opacity="0.6">
<path opacity="0.6" d="M181.604 427.034C181.604 421.948 177.608 417.805 172.666 417.805C167.724 417.805 163.727 421.948 163.727 427.034C163.727 432.121 167.724 436.264 172.666 436.264C177.608 436.264 181.604 432.121 181.604 427.034Z" fill="url(#paint0_linear_14_1255)"/>
</g>
</g>
</mask>
<g mask="url(#mask0_14_1255)">
<path opacity="0.6" d="M181.604 427.034C181.604 421.948 177.608 417.805 172.666 417.805C167.724 417.805 163.727 421.948 163.727 427.034C163.727 432.121 167.724 436.264 172.666 436.264C177.608 436.264 181.604 432.121 181.604 427.034Z" fill="#FFFDFF"/>
</g>
<mask id="mask1_14_1255" style="mask-type:alpha" maskUnits="userSpaceOnUse" x="109" y="417" width="19" height="20">
<g opacity="0.6">
<g opacity="0.6">
<path opacity="0.6" d="M127.029 427.034C127.029 421.948 123.032 417.805 118.09 417.805C113.149 417.805 109.152 421.948 109.152 427.034C109.152 432.121 113.149 436.264 118.09 436.264C123.032 436.264 127.029 432.121 127.029 427.034Z" fill="url(#paint1_linear_14_1255)"/>
</g>
</g>
</mask>
<g mask="url(#mask1_14_1255)">
<path opacity="0.6" d="M127.029 427.034C127.029 421.948 123.032 417.805 118.09 417.805C113.149 417.805 109.152 421.948 109.152 427.034C109.152 432.121 113.149 436.264 118.09 436.264C123.032 436.264 127.029 432.121 127.029 427.034Z" fill="#FFFDFF"/>
</g>
<mask id="mask2_14_1255" style="mask-type:alpha" maskUnits="userSpaceOnUse" x="54" y="417" width="19" height="20">
<g opacity="0.6">
<g opacity="0.6">
<path opacity="0.6" d="M63.5145 417.805C58.5779 417.805 54.576 421.937 54.576 427.034C54.576 432.132 58.5779 436.264 63.5145 436.264C68.4511 436.264 72.453 432.132 72.453 427.034C72.453 421.937 68.4511 417.805 63.5145 417.805Z" fill="url(#paint2_linear_14_1255)"/>
</g>
</g>
</mask>
<g mask="url(#mask2_14_1255)">
<path opacity="0.6" d="M63.5145 417.805C58.5779 417.805 54.576 421.937 54.576 427.034C54.576 432.132 58.5779 436.264 63.5145 436.264C68.4511 436.264 72.453 432.132 72.453 427.034C72.453 421.937 68.4511 417.805 63.5145 417.805Z" fill="#FFFDFF"/>
</g>
<mask id="mask3_14_1255" style="mask-type:alpha" maskUnits="userSpaceOnUse" x="0" y="417" width="18" height="20">
<g opacity="0.6">
<g opacity="0.6">
<path opacity="0.6" d="M8.9387 417.805C4.0021 417.805 0.000197709 421.937 0.000197264 427.034C0.000196818 432.132 4.0021 436.264 8.9387 436.264C13.8753 436.264 17.8772 432.132 17.8772 427.034C17.8772 421.937 13.8753 417.805 8.9387 417.805Z" fill="url(#paint3_linear_14_1255)"/>
</g>
</g>
</mask>
<g mask="url(#mask3_14_1255)">
<path opacity="0.6" d="M8.9387 417.805C4.0021 417.805 0.000197709 421.937 0.000197264 427.034C0.000196818 432.132 4.0021 436.264 8.9387 436.264C13.8753 436.264 17.8772 432.132 17.8772 427.034C17.8772 421.937 13.8753 417.805 8.9387 417.805Z" fill="#FFFDFF"/>
</g>
</g>
</g>
<g opacity="0.6">
<g opacity="0.6">
<mask id="mask4_14_1255" style="mask-type:alpha" maskUnits="userSpaceOnUse" x="163" y="378" width="19" height="20">
<g opacity="0.6">
<g opacity="0.6">
<path opacity="0.6" d="M181.604 387.792C181.604 382.705 177.608 378.563 172.666 378.563C167.724 378.563 163.727 382.705 163.727 387.792C163.727 392.879 167.797 397.021 172.739 397.021C177.608 397.021 181.604 392.879 181.604 387.792Z" fill="url(#paint4_linear_14_1255)"/>
</g>
</g>
</mask>
<g mask="url(#mask4_14_1255)">
<path opacity="0.6" d="M181.604 387.792C181.604 382.705 177.608 378.563 172.666 378.563C167.724 378.563 163.727 382.705 163.727 387.792C163.727 392.879 167.797 397.021 172.739 397.021C177.608 397.021 181.604 392.879 181.604 387.792Z" fill="#FFFDFF"/>
</g>
<mask id="mask5_14_1255" style="mask-type:alpha" maskUnits="userSpaceOnUse" x="109" y="378" width="19" height="20">
<g opacity="0.6">
<g opacity="0.6">
<path opacity="0.6" d="M127.029 387.792C127.029 382.705 123.032 378.563 118.09 378.563C113.149 378.563 109.152 382.705 109.152 387.792C109.152 392.879 113.149 397.021 118.09 397.021C123.032 397.021 127.029 392.879 127.029 387.792Z" fill="url(#paint5_linear_14_1255)"/>
</g>
</g>
</mask>
<g mask="url(#mask5_14_1255)">
<path opacity="0.6" d="M127.029 387.792C127.029 382.705 123.032 378.563 118.09 378.563C113.149 378.563 109.152 382.705 109.152 387.792C109.152 392.879 113.149 397.021 118.09 397.021C123.032 397.021 127.029 392.879 127.029 387.792Z" fill="#FFFDFF"/>
</g>
<mask id="mask6_14_1255" style="mask-type:alpha" maskUnits="userSpaceOnUse" x="54" y="378" width="19" height="20">
<g opacity="0.6">
<g opacity="0.6">
<path opacity="0.6" d="M72.453 387.792C72.453 382.705 68.4561 378.563 63.5145 378.563C58.5728 378.563 54.576 382.705 54.576 387.792C54.576 392.879 58.5728 397.021 63.5145 397.021C68.4561 397.021 72.453 392.879 72.453 387.792Z" fill="url(#paint6_linear_14_1255)"/>
</g>
</g>
</mask>
<g mask="url(#mask6_14_1255)">
<path opacity="0.6" d="M72.453 387.792C72.453 382.705 68.4561 378.563 63.5145 378.563C58.5728 378.563 54.576 382.705 54.576 387.792C54.576 392.879 58.5728 397.021 63.5145 397.021C68.4561 397.021 72.453 392.879 72.453 387.792Z" fill="#FFFDFF"/>
</g>
<mask id="mask7_14_1255" style="mask-type:alpha" maskUnits="userSpaceOnUse" x="0" y="378" width="18" height="20">
<g opacity="0.6">
<g opacity="0.6">
<path opacity="0.6" d="M17.8772 387.792C17.8772 382.705 13.8803 378.563 8.9387 378.563C3.99708 378.563 0.000198117 382.705 0.000197673 387.792C0.000197228 392.879 3.99708 397.021 8.9387 397.021C13.8803 397.021 17.8772 392.879 17.8772 387.792Z" fill="url(#paint7_linear_14_1255)"/>
</g>
</g>
</mask>
<g mask="url(#mask7_14_1255)">
<path opacity="0.6" d="M17.8772 387.792C17.8772 382.705 13.8803 378.563 8.9387 378.563C3.99708 378.563 0.000198117 382.705 0.000197673 387.792C0.000197228 392.879 3.99708 397.021 8.9387 397.021C13.8803 397.021 17.8772 392.879 17.8772 387.792Z" fill="#FFFDFF"/>
</g>
</g>
</g>
<g opacity="0.6">
<g opacity="0.6">
<mask id="mask8_14_1255" style="mask-type:alpha" maskUnits="userSpaceOnUse" x="163" y="339" width="19" height="19">
<g opacity="0.6">
<g opacity="0.6">
<path opacity="0.6" d="M181.604 348.477C181.604 343.39 177.608 339.248 172.666 339.248C167.724 339.248 163.727 343.39 163.727 348.477C163.727 353.564 167.724 357.707 172.666 357.707C177.608 357.779 181.604 353.637 181.604 348.477Z" fill="url(#paint8_linear_14_1255)"/>
</g>
</g>
</mask>
<g mask="url(#mask8_14_1255)">
<path opacity="0.6" d="M181.604 348.477C181.604 343.39 177.608 339.248 172.666 339.248C167.724 339.248 163.727 343.39 163.727 348.477C163.727 353.564 167.724 357.707 172.666 357.707C177.608 357.779 181.604 353.637 181.604 348.477Z" fill="#FFFDFF"/>
</g>
<mask id="mask9_14_1255" style="mask-type:alpha" maskUnits="userSpaceOnUse" x="109" y="339" width="19" height="19">
<g opacity="0.6">
<g opacity="0.6">
<path opacity="0.6" d="M127.029 348.477C127.029 343.391 123.032 339.248 118.09 339.248C113.149 339.248 109.152 343.391 109.152 348.477C109.152 353.564 113.149 357.707 118.09 357.707C123.032 357.707 127.029 353.637 127.029 348.477Z" fill="url(#paint9_linear_14_1255)"/>
</g>
</g>
</mask>
<g mask="url(#mask9_14_1255)">
<path opacity="0.6" d="M127.029 348.477C127.029 343.391 123.032 339.248 118.09 339.248C113.149 339.248 109.152 343.391 109.152 348.477C109.152 353.564 113.149 357.707 118.09 357.707C123.032 357.707 127.029 353.637 127.029 348.477Z" fill="#FFFDFF"/>
</g>
<mask id="mask10_14_1255" style="mask-type:alpha" maskUnits="userSpaceOnUse" x="54" y="339" width="19" height="19">
<g opacity="0.6">
<g opacity="0.6">
<path opacity="0.6" d="M72.453 348.477C72.453 343.39 68.4561 339.248 63.5145 339.248C58.5728 339.248 54.576 343.39 54.576 348.477C54.576 353.564 58.5728 357.707 63.5145 357.707C68.4561 357.779 72.453 353.637 72.453 348.477Z" fill="url(#paint10_linear_14_1255)"/>
</g>
</g>
</mask>
<g mask="url(#mask10_14_1255)">
<path opacity="0.6" d="M72.453 348.477C72.453 343.39 68.4561 339.248 63.5145 339.248C58.5728 339.248 54.576 343.39 54.576 348.477C54.576 353.564 58.5728 357.707 63.5145 357.707C68.4561 357.779 72.453 353.637 72.453 348.477Z" fill="#FFFDFF"/>
</g>
<mask id="mask11_14_1255" style="mask-type:alpha" maskUnits="userSpaceOnUse" x="0" y="339" width="18" height="19">
<g opacity="0.6">
<g opacity="0.6">
<path opacity="0.6" d="M17.8772 348.477C17.8772 343.39 13.8803 339.248 8.9387 339.248C3.99708 339.248 0.000198117 343.39 0.000197673 348.477C0.000197228 353.564 3.99708 357.707 8.9387 357.707C13.8803 357.779 17.8772 353.637 17.8772 348.477Z" fill="url(#paint11_linear_14_1255)"/>
</g>
</g>
</mask>
<g mask="url(#mask11_14_1255)">
<path opacity="0.6" d="M17.8772 348.477C17.8772 343.39 13.8803 339.248 8.9387 339.248C3.99708 339.248 0.000198117 343.39 0.000197673 348.477C0.000197228 353.564 3.99708 357.707 8.9387 357.707C13.8803 357.779 17.8772 353.637 17.8772 348.477Z" fill="#FFFDFF"/>
</g>
</g>
</g>
<g opacity="0.6">
<g opacity="0.6">
<mask id="mask12_14_1255" style="mask-type:alpha" maskUnits="userSpaceOnUse" x="163" y="300" width="19" height="19">
<g opacity="0.6">
<g opacity="0.6">
<path opacity="0.6" d="M181.604 309.235C181.604 304.148 177.608 300.006 172.666 300.006C167.724 300.006 163.727 304.148 163.727 309.235C163.727 314.322 167.724 318.464 172.666 318.464C177.608 318.537 181.604 314.395 181.604 309.235Z" fill="url(#paint12_linear_14_1255)"/>
</g>
</g>
</mask>
<g mask="url(#mask12_14_1255)">
<path opacity="0.6" d="M181.604 309.235C181.604 304.148 177.608 300.006 172.666 300.006C167.724 300.006 163.727 304.148 163.727 309.235C163.727 314.322 167.724 318.464 172.666 318.464C177.608 318.537 181.604 314.395 181.604 309.235Z" fill="#FFFDFF"/>
</g>
<mask id="mask13_14_1255" style="mask-type:alpha" maskUnits="userSpaceOnUse" x="109" y="300" width="19" height="19">
<g opacity="0.6">
<g opacity="0.6">
<path opacity="0.6" d="M118.163 300.006C113.226 300.006 109.224 304.138 109.224 309.235C109.224 314.332 113.226 318.464 118.163 318.464C123.1 318.464 127.101 314.332 127.101 309.235C127.101 304.138 123.1 300.006 118.163 300.006Z" fill="url(#paint13_linear_14_1255)"/>
</g>
</g>
</mask>
<g mask="url(#mask13_14_1255)">
<path opacity="0.6" d="M118.163 300.006C113.226 300.006 109.224 304.138 109.224 309.235C109.224 314.332 113.226 318.464 118.163 318.464C123.1 318.464 127.101 314.332 127.101 309.235C127.101 304.138 123.1 300.006 118.163 300.006Z" fill="#FFFDFF"/>
</g>
<mask id="mask14_14_1255" style="mask-type:alpha" maskUnits="userSpaceOnUse" x="54" y="300" width="19" height="19">
<g opacity="0.6">
<g opacity="0.6">
<path opacity="0.6" d="M63.5145 300.006C58.5779 300.006 54.576 304.138 54.576 309.235C54.576 314.332 58.5779 318.464 63.5145 318.464C68.4511 318.464 72.453 314.332 72.453 309.235C72.453 304.138 68.4511 300.006 63.5145 300.006Z" fill="url(#paint14_linear_14_1255)"/>
</g>
</g>
</mask>
<g mask="url(#mask14_14_1255)">
<path opacity="0.6" d="M63.5145 300.006C58.5779 300.006 54.576 304.138 54.576 309.235C54.576 314.332 58.5779 318.464 63.5145 318.464C68.4511 318.464 72.453 314.332 72.453 309.235C72.453 304.138 68.4511 300.006 63.5145 300.006Z" fill="#FFFDFF"/>
</g>
<mask id="mask15_14_1255" style="mask-type:alpha" maskUnits="userSpaceOnUse" x="0" y="300" width="18" height="19">
<g opacity="0.6">
<g opacity="0.6">
<path opacity="0.6" d="M17.8772 309.235C17.8772 304.148 13.8803 300.006 8.9387 300.006C3.99708 300.006 0.000198117 304.148 0.000197673 309.235C0.000197228 314.322 3.99708 318.464 8.9387 318.464C13.8803 318.537 17.8772 314.395 17.8772 309.235Z" fill="url(#paint15_linear_14_1255)"/>
</g>
</g>
</mask>
<g mask="url(#mask15_14_1255)">
<path opacity="0.6" d="M17.8772 309.235C17.8772 304.148 13.8803 300.006 8.9387 300.006C3.99708 300.006 0.000198117 304.148 0.000197673 309.235C0.000197228 314.322 3.99708 318.464 8.9387 318.464C13.8803 318.537 17.8772 314.395 17.8772 309.235Z" fill="#FFFDFF"/>
</g>
</g>
</g>
<g opacity="0.6">
<g opacity="0.6">
<mask id="mask16_14_1255" style="mask-type:alpha" maskUnits="userSpaceOnUse" x="163" y="260" width="19" height="20">
<g opacity="0.6">
<g opacity="0.6">
<path opacity="0.6" d="M181.604 269.993C181.604 264.906 177.608 260.764 172.666 260.764C167.724 260.764 163.727 264.906 163.727 269.993C163.727 275.08 167.724 279.222 172.666 279.222C177.608 279.295 181.604 275.153 181.604 269.993Z" fill="url(#paint16_linear_14_1255)"/>
</g>
</g>
</mask>
<g mask="url(#mask16_14_1255)">
<path opacity="0.6" d="M181.604 269.993C181.604 264.906 177.608 260.764 172.666 260.764C167.724 260.764 163.727 264.906 163.727 269.993C163.727 275.08 167.724 279.222 172.666 279.222C177.608 279.295 181.604 275.152 181.604 269.993Z" fill="#FFFDFF"/>
</g>
<mask id="mask17_14_1255" style="mask-type:alpha" maskUnits="userSpaceOnUse" x="109" y="260" width="19" height="20">
<g opacity="0.6">
<g opacity="0.6">
<path opacity="0.6" d="M127.029 269.993C127.029 264.906 123.032 260.764 118.09 260.764C113.149 260.764 109.152 264.906 109.152 269.993C109.152 275.08 113.149 279.222 118.09 279.222C123.032 279.295 127.029 275.152 127.029 269.993Z" fill="url(#paint17_linear_14_1255)"/>
</g>
</g>
</mask>
<g mask="url(#mask17_14_1255)">
<path opacity="0.6" d="M127.029 269.993C127.029 264.906 123.032 260.764 118.09 260.764C113.149 260.764 109.152 264.906 109.152 269.993C109.152 275.08 113.149 279.222 118.09 279.222C123.032 279.295 127.029 275.152 127.029 269.993Z" fill="#FFFDFF"/>
</g>
<mask id="mask18_14_1255" style="mask-type:alpha" maskUnits="userSpaceOnUse" x="54" y="260" width="19" height="20">
<g opacity="0.6">
<g opacity="0.6">
<path opacity="0.6" d="M63.5145 260.764C58.5779 260.764 54.576 264.896 54.576 269.993C54.576 275.09 58.5779 279.222 63.5145 279.222C68.4511 279.222 72.453 275.09 72.453 269.993C72.453 264.896 68.4511 260.764 63.5145 260.764Z" fill="url(#paint18_linear_14_1255)"/>
</g>
</g>
</mask>
<g mask="url(#mask18_14_1255)">
<path opacity="0.6" d="M63.5145 260.764C58.5779 260.764 54.576 264.896 54.576 269.993C54.576 275.09 58.5779 279.222 63.5145 279.222C68.4511 279.222 72.453 275.09 72.453 269.993C72.453 264.896 68.4511 260.764 63.5145 260.764Z" fill="#FFFDFF"/>
</g>
<mask id="mask19_14_1255" style="mask-type:alpha" maskUnits="userSpaceOnUse" x="0" y="260" width="18" height="20">
<g opacity="0.6">
<g opacity="0.6">
<path opacity="0.6" d="M17.8772 269.993C17.8772 264.906 13.8803 260.764 8.9387 260.764C3.99708 260.764 0.000198117 264.906 0.000197673 269.993C0.000197228 275.08 3.99708 279.222 8.9387 279.222C13.8803 279.295 17.8772 275.152 17.8772 269.993Z" fill="url(#paint19_linear_14_1255)"/>
</g>
</g>
</mask>
<g mask="url(#mask19_14_1255)">
<path opacity="0.6" d="M17.8772 269.993C17.8772 264.906 13.8803 260.764 8.9387 260.764C3.99708 260.764 0.000198117 264.906 0.000197673 269.993C0.000197228 275.08 3.99708 279.222 8.9387 279.222C13.8803 279.295 17.8772 275.152 17.8772 269.993Z" fill="#FFFDFF"/>
</g>
</g>
</g>
<g opacity="0.6">
<g opacity="0.6">
<mask id="mask20_14_1255" style="mask-type:alpha" maskUnits="userSpaceOnUse" x="441" y="417" width="19" height="20">
<g opacity="0.6">
<g opacity="0.6">
<path opacity="0.6" d="M459.498 427.034C459.498 421.948 455.501 417.805 450.559 417.805C445.617 417.805 441.621 421.948 441.621 427.034C441.621 432.121 445.69 436.264 450.559 436.264C455.501 436.264 459.498 432.121 459.498 427.034Z" fill="url(#paint20_linear_14_1255)"/>
</g>
</g>
</mask>
<g mask="url(#mask20_14_1255)">
<path opacity="0.6" d="M459.498 427.034C459.498 421.948 455.501 417.805 450.559 417.805C445.617 417.805 441.621 421.948 441.621 427.034C441.621 432.121 445.69 436.264 450.559 436.264C455.501 436.264 459.498 432.121 459.498 427.034Z" fill="#FFFDFF"/>
</g>
<mask id="mask21_14_1255" style="mask-type:alpha" maskUnits="userSpaceOnUse" x="387" y="417" width="18" height="20">
<g opacity="0.6">
<g opacity="0.6">
<path opacity="0.6" d="M404.922 427.034C404.922 421.948 400.925 417.805 395.983 417.805C391.042 417.805 387.045 421.948 387.045 427.034C387.045 432.121 391.042 436.264 395.983 436.264C400.925 436.264 404.922 432.121 404.922 427.034Z" fill="url(#paint21_linear_14_1255)"/>
</g>
</g>
</mask>
<g mask="url(#mask21_14_1255)">
<path opacity="0.6" d="M404.922 427.034C404.922 421.948 400.925 417.805 395.983 417.805C391.042 417.805 387.045 421.948 387.045 427.034C387.045 432.121 391.042 436.264 395.983 436.264C400.925 436.264 404.922 432.121 404.922 427.034Z" fill="#FFFDFF"/>
</g>
<mask id="mask22_14_1255" style="mask-type:alpha" maskUnits="userSpaceOnUse" x="332" y="417" width="19" height="20">
<g opacity="0.6">
<g opacity="0.6">
<path opacity="0.6" d="M350.346 427.034C350.346 421.948 346.349 417.805 341.407 417.805C336.466 417.805 332.469 421.948 332.469 427.034C332.469 432.121 336.466 436.264 341.407 436.264C346.349 436.264 350.346 432.121 350.346 427.034Z" fill="url(#paint22_linear_14_1255)"/>
</g>
</g>
</mask>
<g mask="url(#mask22_14_1255)">
<path opacity="0.6" d="M350.346 427.034C350.346 421.948 346.349 417.805 341.407 417.805C336.466 417.805 332.469 421.948 332.469 427.034C332.469 432.121 336.466 436.264 341.407 436.264C346.349 436.264 350.346 432.121 350.346 427.034Z" fill="#FFFDFF"/>
</g>
<mask id="mask23_14_1255" style="mask-type:alpha" maskUnits="userSpaceOnUse" x="277" y="417" width="19" height="20">
<g opacity="0.6">
<g opacity="0.6">
<path opacity="0.6" d="M295.698 427.034C295.698 421.948 291.701 417.805 286.759 417.805C281.817 417.805 277.82 421.948 277.82 427.034C277.82 432.121 281.817 436.264 286.759 436.264C291.773 436.264 295.698 432.121 295.698 427.034Z" fill="url(#paint23_linear_14_1255)"/>
</g>
</g>
</mask>
<g mask="url(#mask23_14_1255)">
<path opacity="0.6" d="M295.698 427.034C295.698 421.948 291.701 417.805 286.759 417.805C281.817 417.805 277.82 421.948 277.82 427.034C277.82 432.121 281.817 436.264 286.759 436.264C291.773 436.264 295.698 432.121 295.698 427.034Z" fill="#FFFDFF"/>
</g>
<mask id="mask24_14_1255" style="mask-type:alpha" maskUnits="userSpaceOnUse" x="223" y="417" width="19" height="20">
<g opacity="0.6">
<g opacity="0.6">
<path opacity="0.6" d="M241.122 427.034C241.122 421.948 237.125 417.805 232.183 417.805C227.242 417.805 223.245 421.948 223.245 427.034C223.245 432.121 227.242 436.264 232.183 436.264C237.125 436.264 241.122 432.121 241.122 427.034Z" fill="url(#paint24_linear_14_1255)"/>
</g>
</g>
</mask>
<g mask="url(#mask24_14_1255)">
<path opacity="0.6" d="M241.122 427.034C241.122 421.948 237.125 417.805 232.183 417.805C227.242 417.805 223.245 421.948 223.245 427.034C223.245 432.121 227.242 436.264 232.183 436.264C237.125 436.264 241.122 432.121 241.122 427.034Z" fill="#FFFDFF"/>
</g>
</g>
</g>
<g opacity="0.6">
<g opacity="0.6">
<mask id="mask25_14_1255" style="mask-type:alpha" maskUnits="userSpaceOnUse" x="441" y="378" width="19" height="20">
<g opacity="0.6">
<g opacity="0.6">
<path opacity="0.6" d="M450.559 378.563C445.622 378.563 441.621 382.695 441.621 387.792C441.621 392.889 445.622 397.021 450.559 397.021C455.496 397.021 459.498 392.889 459.498 387.792C459.498 382.695 455.496 378.563 450.559 378.563Z" fill="url(#paint25_linear_14_1255)"/>
</g>
</g>
</mask>
<g mask="url(#mask25_14_1255)">
<path opacity="0.6" d="M450.559 378.563C445.622 378.563 441.621 382.695 441.621 387.792C441.621 392.889 445.622 397.021 450.559 397.021C455.496 397.021 459.498 392.889 459.498 387.792C459.498 382.695 455.496 378.563 450.559 378.563Z" fill="#FFFDFF"/>
</g>
<mask id="mask26_14_1255" style="mask-type:alpha" maskUnits="userSpaceOnUse" x="387" y="378" width="18" height="20">
<g opacity="0.6">
<g opacity="0.6">
<path opacity="0.6" d="M404.922 387.792C404.922 382.705 400.925 378.563 395.983 378.563C391.042 378.563 387.045 382.705 387.045 387.792C387.045 392.879 391.042 397.021 395.983 397.021C400.925 397.021 404.922 392.879 404.922 387.792Z" fill="url(#paint26_linear_14_1255)"/>
</g>
</g>
</mask>
<g mask="url(#mask26_14_1255)">
<path opacity="0.6" d="M404.922 387.792C404.922 382.705 400.925 378.563 395.983 378.563C391.042 378.563 387.045 382.705 387.045 387.792C387.045 392.879 391.042 397.021 395.983 397.021C400.925 397.021 404.922 392.879 404.922 387.792Z" fill="#FFFDFF"/>
</g>
<mask id="mask27_14_1255" style="mask-type:alpha" maskUnits="userSpaceOnUse" x="332" y="378" width="19" height="20">
<g opacity="0.6">
<g opacity="0.6">
<path opacity="0.6" d="M350.346 387.792C350.346 382.705 346.349 378.563 341.407 378.563C336.466 378.563 332.469 382.705 332.469 387.792C332.469 392.879 336.466 397.021 341.407 397.021C346.349 397.021 350.346 392.879 350.346 387.792Z" fill="url(#paint27_linear_14_1255)"/>
</g>
</g>
</mask>
<g mask="url(#mask27_14_1255)">
<path opacity="0.6" d="M350.346 387.792C350.346 382.705 346.349 378.563 341.407 378.563C336.466 378.563 332.469 382.705 332.469 387.792C332.469 392.879 336.466 397.021 341.407 397.021C346.349 397.021 350.346 392.879 350.346 387.792Z" fill="#FFFDFF"/>
</g>
<mask id="mask28_14_1255" style="mask-type:alpha" maskUnits="userSpaceOnUse" x="277" y="378" width="19" height="20">
<g opacity="0.6">
<g opacity="0.6">
<path opacity="0.6" d="M295.698 387.792C295.698 382.705 291.701 378.563 286.759 378.563C281.817 378.563 277.82 382.705 277.82 387.792C277.82 392.879 281.817 397.021 286.759 397.021C291.773 397.021 295.698 392.879 295.698 387.792Z" fill="url(#paint28_linear_14_1255)"/>
</g>
</g>
</mask>
<g mask="url(#mask28_14_1255)">
<path opacity="0.6" d="M295.698 387.792C295.698 382.705 291.701 378.563 286.759 378.563C281.817 378.563 277.82 382.705 277.82 387.792C277.82 392.879 281.817 397.021 286.759 397.021C291.773 397.021 295.698 392.879 295.698 387.792Z" fill="#FFFDFF"/>
</g>
<mask id="mask29_14_1255" style="mask-type:alpha" maskUnits="userSpaceOnUse" x="223" y="378" width="19" height="20">
<g opacity="0.6">
<g opacity="0.6">
<path opacity="0.6" d="M241.122 387.792C241.122 382.705 237.125 378.563 232.183 378.563C227.242 378.563 223.245 382.705 223.245 387.792C223.245 392.879 227.242 397.021 232.183 397.021C237.125 397.021 241.122 392.879 241.122 387.792Z" fill="url(#paint29_linear_14_1255)"/>
</g>
</g>
</mask>
<g mask="url(#mask29_14_1255)">
<path opacity="0.6" d="M241.122 387.792C241.122 382.705 237.125 378.563 232.183 378.563C227.242 378.563 223.245 382.705 223.245 387.792C223.245 392.879 227.242 397.021 232.183 397.021C237.125 397.021 241.122 392.879 241.122 387.792Z" fill="#FFFDFF"/>
</g>
</g>
</g>
<g opacity="0.6">
<g opacity="0.6">
<mask id="mask30_14_1255" style="mask-type:alpha" maskUnits="userSpaceOnUse" x="441" y="339" width="19" height="19">
<g opacity="0.6">
<g opacity="0.6">
<path opacity="0.6" d="M459.498 348.55C459.498 343.463 455.501 339.321 450.559 339.321C445.617 339.321 441.621 343.463 441.621 348.55C441.621 353.637 445.617 357.779 450.559 357.779C455.501 357.779 459.498 353.637 459.498 348.55Z" fill="url(#paint30_linear_14_1255)"/>
</g>
</g>
</mask>
<g mask="url(#mask30_14_1255)">
<path opacity="0.6" d="M459.498 348.55C459.498 343.463 455.501 339.321 450.559 339.321C445.617 339.321 441.621 343.463 441.621 348.55C441.621 353.637 445.617 357.779 450.559 357.779C455.501 357.779 459.498 353.637 459.498 348.55Z" fill="#FFFDFF"/>
</g>
<mask id="mask31_14_1255" style="mask-type:alpha" maskUnits="userSpaceOnUse" x="387" y="339" width="18" height="19">
<g opacity="0.6">
<g opacity="0.6">
<path opacity="0.6" d="M404.922 348.55C404.922 343.463 400.925 339.321 395.983 339.321C391.042 339.321 387.045 343.463 387.045 348.55C387.045 353.637 391.042 357.779 395.983 357.779C400.925 357.779 404.922 353.637 404.922 348.55Z" fill="url(#paint31_linear_14_1255)"/>
</g>
</g>
</mask>
<g mask="url(#mask31_14_1255)">
<path opacity="0.6" d="M404.922 348.55C404.922 343.463 400.925 339.321 395.983 339.321C391.042 339.321 387.045 343.463 387.045 348.55C387.045 353.637 391.042 357.779 395.983 357.779C400.925 357.779 404.922 353.637 404.922 348.55Z" fill="#FFFDFF"/>
</g>
<mask id="mask32_14_1255" style="mask-type:alpha" maskUnits="userSpaceOnUse" x="332" y="339" width="19" height="19">
<g opacity="0.6">
<g opacity="0.6">
<path opacity="0.6" d="M350.346 348.55C350.346 343.463 346.349 339.321 341.407 339.321C336.466 339.321 332.469 343.463 332.469 348.55C332.469 353.637 336.466 357.779 341.407 357.779C346.349 357.779 350.346 353.637 350.346 348.55Z" fill="url(#paint32_linear_14_1255)"/>
</g>
</g>
</mask>
<g mask="url(#mask32_14_1255)">
<path opacity="0.6" d="M350.346 348.55C350.346 343.463 346.349 339.321 341.407 339.321C336.466 339.321 332.469 343.463 332.469 348.55C332.469 353.637 336.466 357.779 341.407 357.779C346.349 357.779 350.346 353.637 350.346 348.55Z" fill="#FFFDFF"/>
</g>
<mask id="mask33_14_1255" style="mask-type:alpha" maskUnits="userSpaceOnUse" x="277" y="339" width="19" height="19">
<g opacity="0.6">
<g opacity="0.6">
<path opacity="0.6" d="M295.698 348.477C295.698 343.39 291.701 339.248 286.759 339.248C281.817 339.248 277.82 343.39 277.82 348.477C277.82 353.564 281.817 357.706 286.759 357.706C291.773 357.779 295.698 353.637 295.698 348.477Z" fill="url(#paint33_linear_14_1255)"/>
</g>
</g>
</mask>
<g mask="url(#mask33_14_1255)">
<path opacity="0.6" d="M295.698 348.477C295.698 343.39 291.701 339.248 286.759 339.248C281.817 339.248 277.82 343.39 277.82 348.477C277.82 353.564 281.817 357.706 286.759 357.706C291.773 357.779 295.698 353.637 295.698 348.477Z" fill="#FFFDFF"/>
</g>
<mask id="mask34_14_1255" style="mask-type:alpha" maskUnits="userSpaceOnUse" x="223" y="339" width="19" height="19">
<g opacity="0.6">
<g opacity="0.6">
<path opacity="0.6" d="M241.122 348.477C241.122 343.39 237.125 339.248 232.183 339.248C227.242 339.248 223.245 343.39 223.245 348.477C223.245 353.564 227.242 357.706 232.183 357.706C237.125 357.779 241.122 353.637 241.122 348.477Z" fill="url(#paint34_linear_14_1255)"/>
</g>
</g>
</mask>
<g mask="url(#mask34_14_1255)">
<path opacity="0.6" d="M241.122 348.477C241.122 343.39 237.125 339.248 232.183 339.248C227.242 339.248 223.245 343.39 223.245 348.477C223.245 353.564 227.242 357.706 232.183 357.706C237.125 357.779 241.122 353.637 241.122 348.477Z" fill="#FFFDFF"/>
</g>
</g>
</g>
<g opacity="0.6">
<g opacity="0.6">
<mask id="mask35_14_1255" style="mask-type:alpha" maskUnits="userSpaceOnUse" x="441" y="300" width="19" height="19">
<g opacity="0.6">
<g opacity="0.6">
<path opacity="0.6" d="M459.498 309.235C459.498 304.148 455.501 300.006 450.559 300.006C445.617 300.006 441.621 304.148 441.621 309.235C441.621 314.322 445.617 318.464 450.559 318.464C455.501 318.537 459.498 314.395 459.498 309.235Z" fill="url(#paint35_linear_14_1255)"/>
</g>
</g>
</mask>
<g mask="url(#mask35_14_1255)">
<path opacity="0.6" d="M459.498 309.235C459.498 304.148 455.501 300.006 450.559 300.006C445.617 300.006 441.621 304.148 441.621 309.235C441.621 314.322 445.617 318.464 450.559 318.464C455.501 318.537 459.498 314.395 459.498 309.235Z" fill="#FFFDFF"/>
</g>
<mask id="mask36_14_1255" style="mask-type:alpha" maskUnits="userSpaceOnUse" x="387" y="300" width="18" height="19">
<g opacity="0.6">
<g opacity="0.6">
<path opacity="0.6" d="M404.922 309.235C404.922 304.148 400.925 300.006 395.983 300.006C391.042 300.006 387.045 304.148 387.045 309.235C387.045 314.322 391.042 318.464 395.983 318.464C400.925 318.537 404.922 314.395 404.922 309.235Z" fill="url(#paint36_linear_14_1255)"/>
</g>
</g>
</mask>
<g mask="url(#mask36_14_1255)">
<path opacity="0.6" d="M404.922 309.235C404.922 304.148 400.925 300.006 395.983 300.006C391.042 300.006 387.045 304.148 387.045 309.235C387.045 314.322 391.042 318.464 395.983 318.464C400.925 318.537 404.922 314.395 404.922 309.235Z" fill="#FFFDFF"/>
</g>
<mask id="mask37_14_1255" style="mask-type:alpha" maskUnits="userSpaceOnUse" x="332" y="300" width="19" height="19">
<g opacity="0.6">
<g opacity="0.6">
<path opacity="0.6" d="M350.346 309.235C350.346 304.148 346.349 300.006 341.407 300.006C336.466 300.006 332.469 304.148 332.469 309.235C332.469 314.322 336.466 318.464 341.407 318.464C346.349 318.537 350.346 314.395 350.346 309.235Z" fill="url(#paint37_linear_14_1255)"/>
</g>
</g>
</mask>
<g mask="url(#mask37_14_1255)">
<path opacity="0.6" d="M350.346 309.235C350.346 304.148 346.349 300.006 341.407 300.006C336.466 300.006 332.469 304.148 332.469 309.235C332.469 314.322 336.466 318.464 341.407 318.464C346.349 318.537 350.346 314.395 350.346 309.235Z" fill="#FFFDFF"/>
</g>
<mask id="mask38_14_1255" style="mask-type:alpha" maskUnits="userSpaceOnUse" x="277" y="300" width="19" height="19">
<g opacity="0.6">
<g opacity="0.6">
<path opacity="0.6" d="M295.698 309.235C295.698 304.148 291.701 300.006 286.759 300.006C281.817 300.006 277.82 304.148 277.82 309.235C277.82 314.322 281.817 318.464 286.759 318.464C291.773 318.537 295.698 314.395 295.698 309.235Z" fill="url(#paint38_linear_14_1255)"/>
</g>
</g>
</mask>
<g mask="url(#mask38_14_1255)">
<path opacity="0.6" d="M295.698 309.235C295.698 304.148 291.701 300.006 286.759 300.006C281.817 300.006 277.82 304.148 277.82 309.235C277.82 314.322 281.817 318.464 286.759 318.464C291.773 318.537 295.698 314.395 295.698 309.235Z" fill="#FFFDFF"/>
</g>
<mask id="mask39_14_1255" style="mask-type:alpha" maskUnits="userSpaceOnUse" x="223" y="300" width="19" height="19">
<g opacity="0.6">
<g opacity="0.6">
<path opacity="0.6" d="M241.122 309.235C241.122 304.148 237.125 300.006 232.183 300.006C227.242 300.006 223.245 304.148 223.245 309.235C223.245 314.322 227.242 318.464 232.183 318.464C237.125 318.537 241.122 314.395 241.122 309.235Z" fill="url(#paint39_linear_14_1255)"/>
</g>
</g>
</mask>
<g mask="url(#mask39_14_1255)">
<path opacity="0.6" d="M241.122 309.235C241.122 304.148 237.125 300.006 232.183 300.006C227.242 300.006 223.245 304.148 223.245 309.235C223.245 314.322 227.242 318.464 232.183 318.464C237.125 318.537 241.122 314.395 241.122 309.235Z" fill="#FFFDFF"/>
</g>
</g>
</g>
<g opacity="0.6">
<g opacity="0.6">
<mask id="mask40_14_1255" style="mask-type:alpha" maskUnits="userSpaceOnUse" x="441" y="260" width="19" height="20">
<g opacity="0.6">
<g opacity="0.6">
<path opacity="0.6" d="M459.498 269.993C459.498 264.906 455.501 260.764 450.559 260.764C445.617 260.764 441.621 264.906 441.621 269.993C441.621 275.08 445.617 279.222 450.559 279.222C455.501 279.295 459.498 275.153 459.498 269.993Z" fill="url(#paint40_linear_14_1255)"/>
</g>
</g>
</mask>
<g mask="url(#mask40_14_1255)">
<path opacity="0.6" d="M459.498 269.993C459.498 264.906 455.501 260.764 450.559 260.764C445.617 260.764 441.621 264.906 441.621 269.993C441.621 275.08 445.617 279.222 450.559 279.222C455.501 279.295 459.498 275.152 459.498 269.993Z" fill="#FFFDFF"/>
</g>
<mask id="mask41_14_1255" style="mask-type:alpha" maskUnits="userSpaceOnUse" x="387" y="260" width="18" height="20">
<g opacity="0.6">
<g opacity="0.6">
<path opacity="0.6" d="M404.922 269.993C404.922 264.906 400.925 260.764 395.983 260.764C391.042 260.764 387.045 264.906 387.045 269.993C387.045 275.08 391.042 279.222 395.983 279.222C400.925 279.295 404.922 275.152 404.922 269.993Z" fill="url(#paint41_linear_14_1255)"/>
</g>
</g>
</mask>
<g mask="url(#mask41_14_1255)">
<path opacity="0.6" d="M404.922 269.993C404.922 264.906 400.925 260.764 395.983 260.764C391.042 260.764 387.045 264.906 387.045 269.993C387.045 275.08 391.042 279.222 395.983 279.222C400.925 279.295 404.922 275.152 404.922 269.993Z" fill="#FFFDFF"/>
</g>
<mask id="mask42_14_1255" style="mask-type:alpha" maskUnits="userSpaceOnUse" x="332" y="260" width="19" height="20">
<g opacity="0.6">
<g opacity="0.6">
<path opacity="0.6" d="M350.346 269.993C350.346 264.906 346.349 260.764 341.407 260.764C336.466 260.764 332.469 264.906 332.469 269.993C332.469 275.08 336.466 279.222 341.407 279.222C346.349 279.295 350.346 275.152 350.346 269.993Z" fill="url(#paint42_linear_14_1255)"/>
</g>
</g>
</mask>
<g mask="url(#mask42_14_1255)">
<path opacity="0.6" d="M350.346 269.993C350.346 264.906 346.349 260.764 341.407 260.764C336.466 260.764 332.469 264.906 332.469 269.993C332.469 275.08 336.466 279.222 341.407 279.222C346.349 279.295 350.346 275.152 350.346 269.993Z" fill="#FFFDFF"/>
</g>
<mask id="mask43_14_1255" style="mask-type:alpha" maskUnits="userSpaceOnUse" x="277" y="260" width="19" height="20">
<g opacity="0.6">
<g opacity="0.6">
<path opacity="0.6" d="M295.698 269.993C295.698 264.906 291.701 260.764 286.759 260.764C281.817 260.764 277.82 264.906 277.82 269.993C277.82 275.08 281.817 279.222 286.759 279.222C291.773 279.295 295.698 275.152 295.698 269.993Z" fill="url(#paint43_linear_14_1255)"/>
</g>
</g>
</mask>
<g mask="url(#mask43_14_1255)">
<path opacity="0.6" d="M295.698 269.993C295.698 264.906 291.701 260.764 286.759 260.764C281.817 260.764 277.82 264.906 277.82 269.993C277.82 275.08 281.817 279.222 286.759 279.222C291.773 279.295 295.698 275.152 295.698 269.993Z" fill="#FFFDFF"/>
</g>
<mask id="mask44_14_1255" style="mask-type:alpha" maskUnits="userSpaceOnUse" x="223" y="260" width="19" height="20">
<g opacity="0.6">
<g opacity="0.6">
<path opacity="0.6" d="M241.122 269.993C241.122 264.906 237.125 260.764 232.183 260.764C227.242 260.764 223.245 264.906 223.245 269.993C223.245 275.08 227.242 279.222 232.183 279.222C237.125 279.295 241.122 275.152 241.122 269.993Z" fill="url(#paint44_linear_14_1255)"/>
</g>
</g>
</mask>
<g mask="url(#mask44_14_1255)">
<path opacity="0.6" d="M241.122 269.993C241.122 264.906 237.125 260.764 232.183 260.764C227.242 260.764 223.245 264.906 223.245 269.993C223.245 275.08 227.242 279.222 232.183 279.222C237.125 279.295 241.122 275.152 241.122 269.993Z" fill="#FFFDFF"/>
</g>
</g>
</g>
<defs>
<linearGradient id="paint0_linear_14_1255" x1="177.434" y1="429.854" x2="-718.762" y2="-111.246" gradientUnits="userSpaceOnUse">
<stop stop-color="white"/>
<stop offset="0.8649" stop-color="#1A1A1A"/>
</linearGradient>
<linearGradient id="paint1_linear_14_1255" x1="163.266" y1="454.259" x2="-732.927" y2="-86.8399" gradientUnits="userSpaceOnUse">
<stop stop-color="white"/>
<stop offset="0.8649" stop-color="#1A1A1A"/>
</linearGradient>
<linearGradient id="paint2_linear_14_1255" x1="149.1" y1="478.664" x2="-747.099" y2="-62.4389" gradientUnits="userSpaceOnUse">
<stop stop-color="white"/>
<stop offset="0.8649" stop-color="#1A1A1A"/>
</linearGradient>
<linearGradient id="paint3_linear_14_1255" x1="134.932" y1="503.068" x2="-761.261" y2="-38.0293" gradientUnits="userSpaceOnUse">
<stop stop-color="white"/>
<stop offset="0.8649" stop-color="#1A1A1A"/>
</linearGradient>
<linearGradient id="paint4_linear_14_1255" x1="177.435" y1="390.606" x2="-718.761" y2="-150.494" gradientUnits="userSpaceOnUse">
<stop stop-color="white"/>
<stop offset="0.8649" stop-color="#1A1A1A"/>
</linearGradient>
<linearGradient id="paint5_linear_14_1255" x1="163.267" y1="415.011" x2="-732.926" y2="-126.088" gradientUnits="userSpaceOnUse">
<stop stop-color="white"/>
<stop offset="0.8649" stop-color="#1A1A1A"/>
</linearGradient>
<linearGradient id="paint6_linear_14_1255" x1="149.1" y1="439.416" x2="-747.1" y2="-101.688" gradientUnits="userSpaceOnUse">
<stop stop-color="white"/>
<stop offset="0.8649" stop-color="#1A1A1A"/>
</linearGradient>
<linearGradient id="paint7_linear_14_1255" x1="134.932" y1="463.82" x2="-761.263" y2="-77.2788" gradientUnits="userSpaceOnUse">
<stop stop-color="white"/>
<stop offset="0.8649" stop-color="#1A1A1A"/>
</linearGradient>
<linearGradient id="paint8_linear_14_1255" x1="177.434" y1="351.358" x2="-718.762" y2="-189.743" gradientUnits="userSpaceOnUse">
<stop stop-color="white"/>
<stop offset="0.8649" stop-color="#1A1A1A"/>
</linearGradient>
<linearGradient id="paint9_linear_14_1255" x1="163.267" y1="375.763" x2="-732.925" y2="-165.335" gradientUnits="userSpaceOnUse">
<stop stop-color="white"/>
<stop offset="0.8649" stop-color="#1A1A1A"/>
</linearGradient>
<linearGradient id="paint10_linear_14_1255" x1="149.1" y1="400.168" x2="-747.097" y2="-140.934" gradientUnits="userSpaceOnUse">
<stop stop-color="white"/>
<stop offset="0.8649" stop-color="#1A1A1A"/>
</linearGradient>
<linearGradient id="paint11_linear_14_1255" x1="134.932" y1="424.572" x2="-761.259" y2="-116.524" gradientUnits="userSpaceOnUse">
<stop stop-color="white"/>
<stop offset="0.8649" stop-color="#1A1A1A"/>
</linearGradient>
<linearGradient id="paint12_linear_14_1255" x1="177.435" y1="312.11" x2="-718.761" y2="-228.99" gradientUnits="userSpaceOnUse">
<stop stop-color="white"/>
<stop offset="0.8649" stop-color="#1A1A1A"/>
</linearGradient>
<linearGradient id="paint13_linear_14_1255" x1="163.267" y1="336.515" x2="-732.926" y2="-204.584" gradientUnits="userSpaceOnUse">
<stop stop-color="white"/>
<stop offset="0.8649" stop-color="#1A1A1A"/>
</linearGradient>
<linearGradient id="paint14_linear_14_1255" x1="149.1" y1="360.92" x2="-747.1" y2="-180.184" gradientUnits="userSpaceOnUse">
<stop stop-color="white"/>
<stop offset="0.8649" stop-color="#1A1A1A"/>
</linearGradient>
<linearGradient id="paint15_linear_14_1255" x1="134.932" y1="385.324" x2="-761.262" y2="-155.775" gradientUnits="userSpaceOnUse">
<stop stop-color="white"/>
<stop offset="0.8649" stop-color="#1A1A1A"/>
</linearGradient>
<linearGradient id="paint16_linear_14_1255" x1="177.435" y1="272.862" x2="-718.76" y2="-268.238" gradientUnits="userSpaceOnUse">
<stop stop-color="white"/>
<stop offset="0.8649" stop-color="#1A1A1A"/>
</linearGradient>
<linearGradient id="paint17_linear_14_1255" x1="163.267" y1="297.266" x2="-732.926" y2="-243.832" gradientUnits="userSpaceOnUse">
<stop stop-color="white"/>
<stop offset="0.8649" stop-color="#1A1A1A"/>
</linearGradient>
<linearGradient id="paint18_linear_14_1255" x1="149.1" y1="321.671" x2="-747.096" y2="-219.43" gradientUnits="userSpaceOnUse">
<stop stop-color="white"/>
<stop offset="0.8649" stop-color="#1A1A1A"/>
</linearGradient>
<linearGradient id="paint19_linear_14_1255" x1="134.932" y1="346.076" x2="-761.26" y2="-195.022" gradientUnits="userSpaceOnUse">
<stop stop-color="white"/>
<stop offset="0.8649" stop-color="#1A1A1A"/>
</linearGradient>
<linearGradient id="paint20_linear_14_1255" x1="455.299" y1="429.856" x2="-440.9" y2="-111.246" gradientUnits="userSpaceOnUse">
<stop stop-color="white"/>
<stop offset="0.8649" stop-color="#1A1A1A"/>
</linearGradient>
<linearGradient id="paint21_linear_14_1255" x1="441.131" y1="454.261" x2="-455.061" y2="-86.8371" gradientUnits="userSpaceOnUse">
<stop stop-color="white"/>
<stop offset="0.8649" stop-color="#1A1A1A"/>
</linearGradient>
<linearGradient id="paint22_linear_14_1255" x1="426.964" y1="478.665" x2="-469.229" y2="-62.4333" gradientUnits="userSpaceOnUse">
<stop stop-color="white"/>
<stop offset="0.8649" stop-color="#1A1A1A"/>
</linearGradient>
<linearGradient id="paint23_linear_14_1255" x1="412.796" y1="503.07" x2="-483.397" y2="-38.0286" gradientUnits="userSpaceOnUse">
<stop stop-color="white"/>
<stop offset="0.8649" stop-color="#1A1A1A"/>
</linearGradient>
<linearGradient id="paint24_linear_14_1255" x1="398.629" y1="527.475" x2="-497.565" y2="-13.6243" gradientUnits="userSpaceOnUse">
<stop stop-color="white"/>
<stop offset="0.8649" stop-color="#1A1A1A"/>
</linearGradient>
<linearGradient id="paint25_linear_14_1255" x1="455.299" y1="390.608" x2="-440.901" y2="-150.494" gradientUnits="userSpaceOnUse">
<stop stop-color="white"/>
<stop offset="0.8649" stop-color="#1A1A1A"/>
</linearGradient>
<linearGradient id="paint26_linear_14_1255" x1="441.132" y1="415.013" x2="-455.062" y2="-126.086" gradientUnits="userSpaceOnUse">
<stop stop-color="white"/>
<stop offset="0.8649" stop-color="#1A1A1A"/>
</linearGradient>
<linearGradient id="paint27_linear_14_1255" x1="426.964" y1="439.417" x2="-469.228" y2="-101.68" gradientUnits="userSpaceOnUse">
<stop stop-color="white"/>
<stop offset="0.8649" stop-color="#1A1A1A"/>
</linearGradient>
<linearGradient id="paint28_linear_14_1255" x1="412.796" y1="463.822" x2="-483.396" y2="-77.2758" gradientUnits="userSpaceOnUse">
<stop stop-color="white"/>
<stop offset="0.8649" stop-color="#1A1A1A"/>
</linearGradient>
<linearGradient id="paint29_linear_14_1255" x1="398.629" y1="488.227" x2="-497.566" y2="-52.8728" gradientUnits="userSpaceOnUse">
<stop stop-color="white"/>
<stop offset="0.8649" stop-color="#1A1A1A"/>
</linearGradient>
<linearGradient id="paint30_linear_14_1255" x1="455.299" y1="351.36" x2="-440.901" y2="-189.743" gradientUnits="userSpaceOnUse">
<stop stop-color="white"/>
<stop offset="0.8649" stop-color="#1A1A1A"/>
</linearGradient>
<linearGradient id="paint31_linear_14_1255" x1="441.132" y1="375.764" x2="-455.061" y2="-165.334" gradientUnits="userSpaceOnUse">
<stop stop-color="white"/>
<stop offset="0.8649" stop-color="#1A1A1A"/>
</linearGradient>
<linearGradient id="paint32_linear_14_1255" x1="426.964" y1="400.169" x2="-469.229" y2="-140.929" gradientUnits="userSpaceOnUse">
<stop stop-color="white"/>
<stop offset="0.8649" stop-color="#1A1A1A"/>
</linearGradient>
<linearGradient id="paint33_linear_14_1255" x1="412.797" y1="424.574" x2="-483.397" y2="-116.525" gradientUnits="userSpaceOnUse">
<stop stop-color="white"/>
<stop offset="0.8649" stop-color="#1A1A1A"/>
</linearGradient>
<linearGradient id="paint34_linear_14_1255" x1="398.629" y1="448.979" x2="-497.565" y2="-92.1203" gradientUnits="userSpaceOnUse">
<stop stop-color="white"/>
<stop offset="0.8649" stop-color="#1A1A1A"/>
</linearGradient>
<linearGradient id="paint35_linear_14_1255" x1="455.299" y1="312.112" x2="-440.899" y2="-228.989" gradientUnits="userSpaceOnUse">
<stop stop-color="white"/>
<stop offset="0.8649" stop-color="#1A1A1A"/>
</linearGradient>
<linearGradient id="paint36_linear_14_1255" x1="441.132" y1="336.517" x2="-455.064" y2="-204.583" gradientUnits="userSpaceOnUse">
<stop stop-color="white"/>
<stop offset="0.8649" stop-color="#1A1A1A"/>
</linearGradient>
<linearGradient id="paint37_linear_14_1255" x1="426.964" y1="360.921" x2="-469.229" y2="-180.177" gradientUnits="userSpaceOnUse">
<stop stop-color="white"/>
<stop offset="0.8649" stop-color="#1A1A1A"/>
</linearGradient>
<linearGradient id="paint38_linear_14_1255" x1="412.797" y1="385.326" x2="-483.396" y2="-155.772" gradientUnits="userSpaceOnUse">
<stop stop-color="white"/>
<stop offset="0.8649" stop-color="#1A1A1A"/>
</linearGradient>
<linearGradient id="paint39_linear_14_1255" x1="398.63" y1="409.731" x2="-497.564" y2="-131.369" gradientUnits="userSpaceOnUse">
<stop stop-color="white"/>
<stop offset="0.8649" stop-color="#1A1A1A"/>
</linearGradient>
<linearGradient id="paint40_linear_14_1255" x1="455.3" y1="272.864" x2="-440.898" y2="-268.237" gradientUnits="userSpaceOnUse">
<stop stop-color="white"/>
<stop offset="0.8649" stop-color="#1A1A1A"/>
</linearGradient>
<linearGradient id="paint41_linear_14_1255" x1="441.132" y1="297.268" x2="-455.06" y2="-243.83" gradientUnits="userSpaceOnUse">
<stop stop-color="white"/>
<stop offset="0.8649" stop-color="#1A1A1A"/>
</linearGradient>
<linearGradient id="paint42_linear_14_1255" x1="426.964" y1="321.673" x2="-469.227" y2="-219.424" gradientUnits="userSpaceOnUse">
<stop stop-color="white"/>
<stop offset="0.8649" stop-color="#1A1A1A"/>
</linearGradient>
<linearGradient id="paint43_linear_14_1255" x1="412.797" y1="346.078" x2="-483.397" y2="-195.021" gradientUnits="userSpaceOnUse">
<stop stop-color="white"/>
<stop offset="0.8649" stop-color="#1A1A1A"/>
</linearGradient>
<linearGradient id="paint44_linear_14_1255" x1="398.63" y1="370.483" x2="-497.565" y2="-170.617" gradientUnits="userSpaceOnUse">
<stop stop-color="white"/>
<stop offset="0.8649" stop-color="#1A1A1A"/>
</linearGradient>
</defs>
</svg>
