<svg width="1982" height="546" viewBox="0 0 1982 546" fill="none" xmlns="http://www.w3.org/2000/svg">
<g opacity="0.3">
<path opacity="0.3" d="M88.0034 545.964C136.482 545.964 176.007 504.859 176.007 454.482C176.007 404.105 136.482 363 88.0034 363C39.5243 363 2.08649e-05 404.105 2.08649e-05 454.482C2.08649e-05 504.859 39.37 545.964 88.0034 545.964ZM88.0034 368.718C133.549 368.718 170.449 407.196 170.449 454.482C170.449 501.769 133.395 540.247 88.0034 540.247C42.4578 540.247 5.55828 501.769 5.55828 454.482C5.40389 407.196 42.4578 368.718 88.0034 368.718Z" fill="white"/>
</g>
<g opacity="0.3">
<path opacity="0.3" d="M1792 380C1896.67 380 1982 294.753 1982 190C1982 85.2471 1896.82 0 1792 0C1687.33 0 1602 85.2471 1602 190C1602.15 294.753 1687.33 380 1792 380ZM1792 11.8478C1890.22 11.8478 1970 91.749 1970 190C1970 288.251 1890.07 368.152 1792 368.152C1693.78 368.152 1614 288.251 1614 190C1614 91.749 1693.93 11.8478 1792 11.8478Z" fill="white"/>
</g>
</svg>
