<svg width="2307" height="872" viewBox="0 0 2307 872" fill="none" xmlns="http://www.w3.org/2000/svg">
<g clip-path="url(#clip0_14_559)">
<g opacity="0.3">
<path opacity="0.3" d="M1760.5 858C1710.37 858 1669.5 817.111 1669.5 767C1669.5 716.889 1710.37 676 1760.5 676C1810.63 676 1851.5 716.889 1851.5 767C1851.5 817.111 1810.79 858 1760.5 858ZM1760.5 681.688C1713.4 681.688 1675.25 719.963 1675.25 767C1675.25 814.037 1713.56 852.312 1760.5 852.312C1807.6 852.312 1845.75 814.037 1845.75 767C1845.91 719.963 1807.6 681.688 1760.5 681.688Z" fill="white"/>
</g>
<g opacity="0.3">
<path opacity="0.3" d="M2116.5 739C2011.83 739 1926.5 653.753 1926.5 549C1926.5 444.247 2011.68 359 2116.5 359C2221.17 359 2306.5 444.247 2306.5 549C2306.35 653.753 2221.17 739 2116.5 739ZM2116.5 370.848C2018.28 370.848 1938.5 450.749 1938.5 549C1938.5 647.251 2018.43 727.152 2116.5 727.152C2214.72 727.152 2294.5 647.251 2294.5 549C2294.5 450.749 2214.57 370.848 2116.5 370.848Z" fill="white"/>
</g>
<path opacity="0.51" d="M1770.8 461.335L1743.5 444.387L1770.8 427.393V461.335Z" fill="#842382"/>
<path opacity="0.51" d="M1803.13 461.335L1775.83 444.387L1803.13 427.393V461.335Z" fill="#842382"/>
<path opacity="0.51" d="M1835.5 461.335L1808.2 444.387L1835.5 427.393V461.335Z" fill="#842382"/>
<path d="M490.989 507.163L478.332 519.82" stroke="#781876" stroke-width="4" stroke-linecap="round" stroke-linejoin="round"/>
<path d="M455.32 542.832L442.663 555.489" stroke="#781876" stroke-width="4" stroke-linecap="round" stroke-linejoin="round"/>
<path d="M490.988 555.488L478.331 542.832" stroke="#781876" stroke-width="4" stroke-linecap="round" stroke-linejoin="round"/>
<path d="M455.319 519.82L442.662 507.163" stroke="#781876" stroke-width="4" stroke-linecap="round" stroke-linejoin="round"/>
<g opacity="0.6">
<g opacity="0.6">
<mask id="mask0_14_559" style="mask-type:alpha" maskUnits="userSpaceOnUse" x="456" y="818" width="19" height="19">
<g opacity="0.6">
<g opacity="0.6">
<path opacity="0.6" d="M474.604 827.271C474.604 822.184 470.607 818.042 465.666 818.042C460.724 818.042 456.727 822.184 456.727 827.271C456.727 832.358 460.724 836.5 465.666 836.5C470.607 836.5 474.604 832.358 474.604 827.271Z" fill="url(#paint0_linear_14_559)"/>
</g>
</g>
</mask>
<g mask="url(#mask0_14_559)">
<path opacity="0.6" d="M474.604 827.271C474.604 822.184 470.607 818.042 465.666 818.042C460.724 818.042 456.727 822.184 456.727 827.271C456.727 832.358 460.724 836.5 465.666 836.5C470.607 836.5 474.604 832.358 474.604 827.271Z" fill="#FFFDFF"/>
</g>
<mask id="mask1_14_559" style="mask-type:alpha" maskUnits="userSpaceOnUse" x="402" y="818" width="19" height="19">
<g opacity="0.6">
<g opacity="0.6">
<path opacity="0.6" d="M420.029 827.271C420.029 822.184 416.032 818.042 411.09 818.042C406.148 818.042 402.152 822.184 402.152 827.271C402.152 832.358 406.148 836.5 411.09 836.5C416.032 836.5 420.029 832.358 420.029 827.271Z" fill="url(#paint1_linear_14_559)"/>
</g>
</g>
</mask>
<g mask="url(#mask1_14_559)">
<path opacity="0.6" d="M420.029 827.271C420.029 822.184 416.032 818.042 411.09 818.042C406.148 818.042 402.152 822.184 402.152 827.271C402.152 832.358 406.148 836.5 411.09 836.5C416.032 836.5 420.029 832.358 420.029 827.271Z" fill="#FFFDFF"/>
</g>
<mask id="mask2_14_559" style="mask-type:alpha" maskUnits="userSpaceOnUse" x="347" y="818" width="19" height="19">
<g opacity="0.6">
<g opacity="0.6">
<path opacity="0.6" d="M356.514 818.042C351.578 818.042 347.576 822.174 347.576 827.271C347.576 832.368 351.578 836.5 356.514 836.5C361.451 836.5 365.453 832.368 365.453 827.271C365.453 822.174 361.451 818.042 356.514 818.042Z" fill="url(#paint2_linear_14_559)"/>
</g>
</g>
</mask>
<g mask="url(#mask2_14_559)">
<path opacity="0.6" d="M356.514 818.042C351.578 818.042 347.576 822.174 347.576 827.271C347.576 832.368 351.578 836.5 356.514 836.5C361.451 836.5 365.453 832.368 365.453 827.271C365.453 822.174 361.451 818.042 356.514 818.042Z" fill="#FFFDFF"/>
</g>
<mask id="mask3_14_559" style="mask-type:alpha" maskUnits="userSpaceOnUse" x="293" y="818" width="18" height="19">
<g opacity="0.6">
<g opacity="0.6">
<path opacity="0.6" d="M301.939 818.042C297.002 818.042 293 822.174 293 827.271C293 832.368 297.002 836.5 301.939 836.5C306.875 836.5 310.877 832.368 310.877 827.271C310.877 822.174 306.875 818.042 301.939 818.042Z" fill="url(#paint3_linear_14_559)"/>
</g>
</g>
</mask>
<g mask="url(#mask3_14_559)">
<path opacity="0.6" d="M301.939 818.042C297.002 818.042 293 822.174 293 827.271C293 832.368 297.002 836.5 301.939 836.5C306.875 836.5 310.877 832.368 310.877 827.271C310.877 822.174 306.875 818.042 301.939 818.042Z" fill="#FFFDFF"/>
</g>
</g>
</g>
<g opacity="0.6">
<g opacity="0.6">
<mask id="mask4_14_559" style="mask-type:alpha" maskUnits="userSpaceOnUse" x="456" y="778" width="19" height="20">
<g opacity="0.6">
<g opacity="0.6">
<path opacity="0.6" d="M474.604 788.029C474.604 782.942 470.607 778.799 465.666 778.799C460.724 778.799 456.727 782.942 456.727 788.029C456.727 793.116 460.797 797.258 465.739 797.258C470.607 797.258 474.604 793.116 474.604 788.029Z" fill="url(#paint4_linear_14_559)"/>
</g>
</g>
</mask>
<g mask="url(#mask4_14_559)">
<path opacity="0.6" d="M474.604 788.029C474.604 782.942 470.607 778.799 465.666 778.799C460.724 778.799 456.727 782.942 456.727 788.029C456.727 793.116 460.797 797.258 465.739 797.258C470.607 797.258 474.604 793.116 474.604 788.029Z" fill="#FFFDFF"/>
</g>
<mask id="mask5_14_559" style="mask-type:alpha" maskUnits="userSpaceOnUse" x="402" y="778" width="19" height="20">
<g opacity="0.6">
<g opacity="0.6">
<path opacity="0.6" d="M420.029 788.029C420.029 782.942 416.032 778.799 411.09 778.799C406.148 778.799 402.152 782.942 402.152 788.029C402.152 793.116 406.148 797.258 411.09 797.258C416.032 797.258 420.029 793.116 420.029 788.029Z" fill="url(#paint5_linear_14_559)"/>
</g>
</g>
</mask>
<g mask="url(#mask5_14_559)">
<path opacity="0.6" d="M420.029 788.029C420.029 782.942 416.032 778.799 411.09 778.799C406.148 778.799 402.152 782.942 402.152 788.029C402.152 793.116 406.148 797.258 411.09 797.258C416.032 797.258 420.029 793.116 420.029 788.029Z" fill="#FFFDFF"/>
</g>
<mask id="mask6_14_559" style="mask-type:alpha" maskUnits="userSpaceOnUse" x="347" y="778" width="19" height="20">
<g opacity="0.6">
<g opacity="0.6">
<path opacity="0.6" d="M365.453 788.029C365.453 782.942 361.456 778.799 356.514 778.799C351.573 778.799 347.576 782.942 347.576 788.029C347.576 793.116 351.573 797.258 356.514 797.258C361.456 797.258 365.453 793.116 365.453 788.029Z" fill="url(#paint6_linear_14_559)"/>
</g>
</g>
</mask>
<g mask="url(#mask6_14_559)">
<path opacity="0.6" d="M365.453 788.029C365.453 782.942 361.456 778.799 356.514 778.799C351.573 778.799 347.576 782.942 347.576 788.029C347.576 793.116 351.573 797.258 356.514 797.258C361.456 797.258 365.453 793.116 365.453 788.029Z" fill="#FFFDFF"/>
</g>
<mask id="mask7_14_559" style="mask-type:alpha" maskUnits="userSpaceOnUse" x="293" y="778" width="18" height="20">
<g opacity="0.6">
<g opacity="0.6">
<path opacity="0.6" d="M310.877 788.029C310.877 782.942 306.88 778.799 301.939 778.799C296.997 778.799 293 782.942 293 788.029C293 793.116 296.997 797.258 301.939 797.258C306.88 797.258 310.877 793.116 310.877 788.029Z" fill="url(#paint7_linear_14_559)"/>
</g>
</g>
</mask>
<g mask="url(#mask7_14_559)">
<path opacity="0.6" d="M310.877 788.029C310.877 782.942 306.88 778.799 301.939 778.799C296.997 778.799 293 782.942 293 788.029C293 793.116 296.997 797.258 301.939 797.258C306.88 797.258 310.877 793.116 310.877 788.029Z" fill="#FFFDFF"/>
</g>
</g>
</g>
<g opacity="0.6">
<g opacity="0.6">
<mask id="mask8_14_559" style="mask-type:alpha" maskUnits="userSpaceOnUse" x="456" y="739" width="19" height="19">
<g opacity="0.6">
<g opacity="0.6">
<path opacity="0.6" d="M474.604 748.714C474.604 743.627 470.607 739.485 465.666 739.485C460.724 739.485 456.727 743.627 456.727 748.714C456.727 753.801 460.724 757.943 465.666 757.943C470.607 758.016 474.604 753.873 474.604 748.714Z" fill="url(#paint8_linear_14_559)"/>
</g>
</g>
</mask>
<g mask="url(#mask8_14_559)">
<path opacity="0.6" d="M474.604 748.714C474.604 743.627 470.607 739.485 465.666 739.485C460.724 739.485 456.727 743.627 456.727 748.714C456.727 753.801 460.724 757.943 465.666 757.943C470.607 758.016 474.604 753.873 474.604 748.714Z" fill="#FFFDFF"/>
</g>
<mask id="mask9_14_559" style="mask-type:alpha" maskUnits="userSpaceOnUse" x="402" y="739" width="19" height="19">
<g opacity="0.6">
<g opacity="0.6">
<path opacity="0.6" d="M420.029 748.714C420.029 743.627 416.032 739.484 411.09 739.484C406.148 739.484 402.152 743.627 402.152 748.714C402.152 753.801 406.148 757.943 411.09 757.943C416.032 757.943 420.029 753.873 420.029 748.714Z" fill="url(#paint9_linear_14_559)"/>
</g>
</g>
</mask>
<g mask="url(#mask9_14_559)">
<path opacity="0.6" d="M420.029 748.714C420.029 743.627 416.032 739.484 411.09 739.484C406.148 739.484 402.152 743.627 402.152 748.714C402.152 753.801 406.148 757.943 411.09 757.943C416.032 757.943 420.029 753.873 420.029 748.714Z" fill="#FFFDFF"/>
</g>
<mask id="mask10_14_559" style="mask-type:alpha" maskUnits="userSpaceOnUse" x="347" y="739" width="19" height="19">
<g opacity="0.6">
<g opacity="0.6">
<path opacity="0.6" d="M365.453 748.714C365.453 743.627 361.456 739.485 356.514 739.485C351.573 739.485 347.576 743.627 347.576 748.714C347.576 753.801 351.573 757.943 356.514 757.943C361.456 758.016 365.453 753.873 365.453 748.714Z" fill="url(#paint10_linear_14_559)"/>
</g>
</g>
</mask>
<g mask="url(#mask10_14_559)">
<path opacity="0.6" d="M365.453 748.714C365.453 743.627 361.456 739.485 356.514 739.485C351.573 739.485 347.576 743.627 347.576 748.714C347.576 753.801 351.573 757.943 356.514 757.943C361.456 758.016 365.453 753.873 365.453 748.714Z" fill="#FFFDFF"/>
</g>
<mask id="mask11_14_559" style="mask-type:alpha" maskUnits="userSpaceOnUse" x="293" y="739" width="18" height="19">
<g opacity="0.6">
<g opacity="0.6">
<path opacity="0.6" d="M310.877 748.714C310.877 743.627 306.88 739.485 301.939 739.485C296.997 739.485 293 743.627 293 748.714C293 753.801 296.997 757.943 301.939 757.943C306.88 758.016 310.877 753.873 310.877 748.714Z" fill="url(#paint11_linear_14_559)"/>
</g>
</g>
</mask>
<g mask="url(#mask11_14_559)">
<path opacity="0.6" d="M310.877 748.714C310.877 743.627 306.88 739.485 301.939 739.485C296.997 739.485 293 743.627 293 748.714C293 753.801 296.997 757.943 301.939 757.943C306.88 758.016 310.877 753.873 310.877 748.714Z" fill="#FFFDFF"/>
</g>
</g>
</g>
<g opacity="0.6">
<g opacity="0.6">
<mask id="mask12_14_559" style="mask-type:alpha" maskUnits="userSpaceOnUse" x="456" y="700" width="19" height="19">
<g opacity="0.6">
<g opacity="0.6">
<path opacity="0.6" d="M474.604 709.472C474.604 704.385 470.607 700.242 465.666 700.242C460.724 700.242 456.727 704.385 456.727 709.472C456.727 714.558 460.724 718.701 465.666 718.701C470.607 718.773 474.604 714.631 474.604 709.472Z" fill="url(#paint12_linear_14_559)"/>
</g>
</g>
</mask>
<g mask="url(#mask12_14_559)">
<path opacity="0.6" d="M474.604 709.472C474.604 704.385 470.607 700.242 465.666 700.242C460.724 700.242 456.727 704.385 456.727 709.472C456.727 714.558 460.724 718.701 465.666 718.701C470.607 718.773 474.604 714.631 474.604 709.472Z" fill="#FFFDFF"/>
</g>
<mask id="mask13_14_559" style="mask-type:alpha" maskUnits="userSpaceOnUse" x="402" y="700" width="19" height="19">
<g opacity="0.6">
<g opacity="0.6">
<path opacity="0.6" d="M411.163 700.242C406.226 700.242 402.224 704.374 402.224 709.471C402.224 714.569 406.226 718.701 411.163 718.701C416.099 718.701 420.101 714.569 420.101 709.471C420.101 704.374 416.099 700.242 411.163 700.242Z" fill="url(#paint13_linear_14_559)"/>
</g>
</g>
</mask>
<g mask="url(#mask13_14_559)">
<path opacity="0.6" d="M411.163 700.242C406.226 700.242 402.224 704.374 402.224 709.471C402.224 714.569 406.226 718.701 411.163 718.701C416.099 718.701 420.101 714.569 420.101 709.471C420.101 704.374 416.099 700.242 411.163 700.242Z" fill="#FFFDFF"/>
</g>
<mask id="mask14_14_559" style="mask-type:alpha" maskUnits="userSpaceOnUse" x="347" y="700" width="19" height="19">
<g opacity="0.6">
<g opacity="0.6">
<path opacity="0.6" d="M356.514 700.242C351.578 700.242 347.576 704.374 347.576 709.471C347.576 714.569 351.578 718.701 356.514 718.701C361.451 718.701 365.453 714.569 365.453 709.471C365.453 704.374 361.451 700.242 356.514 700.242Z" fill="url(#paint14_linear_14_559)"/>
</g>
</g>
</mask>
<g mask="url(#mask14_14_559)">
<path opacity="0.6" d="M356.514 700.242C351.578 700.242 347.576 704.374 347.576 709.471C347.576 714.569 351.578 718.701 356.514 718.701C361.451 718.701 365.453 714.569 365.453 709.471C365.453 704.374 361.451 700.242 356.514 700.242Z" fill="#FFFDFF"/>
</g>
<mask id="mask15_14_559" style="mask-type:alpha" maskUnits="userSpaceOnUse" x="293" y="700" width="18" height="19">
<g opacity="0.6">
<g opacity="0.6">
<path opacity="0.6" d="M310.877 709.472C310.877 704.385 306.88 700.242 301.939 700.242C296.997 700.242 293 704.385 293 709.472C293 714.558 296.997 718.701 301.939 718.701C306.88 718.773 310.877 714.631 310.877 709.472Z" fill="url(#paint15_linear_14_559)"/>
</g>
</g>
</mask>
<g mask="url(#mask15_14_559)">
<path opacity="0.6" d="M310.877 709.472C310.877 704.385 306.88 700.242 301.939 700.242C296.997 700.242 293 704.385 293 709.472C293 714.558 296.997 718.701 301.939 718.701C306.88 718.773 310.877 714.631 310.877 709.472Z" fill="#FFFDFF"/>
</g>
</g>
</g>
<g opacity="0.6">
<g opacity="0.6">
<mask id="mask16_14_559" style="mask-type:alpha" maskUnits="userSpaceOnUse" x="456" y="661" width="19" height="19">
<g opacity="0.6">
<g opacity="0.6">
<path opacity="0.6" d="M474.604 670.229C474.604 665.142 470.607 661 465.666 661C460.724 661 456.727 665.142 456.727 670.229C456.727 675.316 460.724 679.459 465.666 679.459C470.607 679.531 474.604 675.389 474.604 670.229Z" fill="url(#paint16_linear_14_559)"/>
</g>
</g>
</mask>
<g mask="url(#mask16_14_559)">
<path opacity="0.6" d="M474.604 670.229C474.604 665.142 470.607 661 465.666 661C460.724 661 456.727 665.142 456.727 670.229C456.727 675.316 460.724 679.459 465.666 679.459C470.607 679.531 474.604 675.389 474.604 670.229Z" fill="#FFFDFF"/>
</g>
<mask id="mask17_14_559" style="mask-type:alpha" maskUnits="userSpaceOnUse" x="402" y="661" width="19" height="19">
<g opacity="0.6">
<g opacity="0.6">
<path opacity="0.6" d="M420.029 670.229C420.029 665.142 416.032 661 411.09 661C406.148 661 402.152 665.142 402.152 670.229C402.152 675.316 406.148 679.459 411.09 679.459C416.032 679.531 420.029 675.389 420.029 670.229Z" fill="url(#paint17_linear_14_559)"/>
</g>
</g>
</mask>
<g mask="url(#mask17_14_559)">
<path opacity="0.6" d="M420.029 670.229C420.029 665.142 416.032 661 411.09 661C406.148 661 402.152 665.142 402.152 670.229C402.152 675.316 406.148 679.459 411.09 679.459C416.032 679.531 420.029 675.389 420.029 670.229Z" fill="#FFFDFF"/>
</g>
<mask id="mask18_14_559" style="mask-type:alpha" maskUnits="userSpaceOnUse" x="347" y="661" width="19" height="19">
<g opacity="0.6">
<g opacity="0.6">
<path opacity="0.6" d="M356.514 661C351.578 661 347.576 665.132 347.576 670.229C347.576 675.326 351.578 679.458 356.514 679.458C361.451 679.458 365.453 675.326 365.453 670.229C365.453 665.132 361.451 661 356.514 661Z" fill="url(#paint18_linear_14_559)"/>
</g>
</g>
</mask>
<g mask="url(#mask18_14_559)">
<path opacity="0.6" d="M356.514 661C351.578 661 347.576 665.132 347.576 670.229C347.576 675.326 351.578 679.458 356.514 679.458C361.451 679.458 365.453 675.326 365.453 670.229C365.453 665.132 361.451 661 356.514 661Z" fill="#FFFDFF"/>
</g>
<mask id="mask19_14_559" style="mask-type:alpha" maskUnits="userSpaceOnUse" x="293" y="661" width="18" height="19">
<g opacity="0.6">
<g opacity="0.6">
<path opacity="0.6" d="M310.877 670.229C310.877 665.142 306.88 661 301.939 661C296.997 661 293 665.142 293 670.229C293 675.316 296.997 679.459 301.939 679.459C306.88 679.531 310.877 675.389 310.877 670.229Z" fill="url(#paint19_linear_14_559)"/>
</g>
</g>
</mask>
<g mask="url(#mask19_14_559)">
<path opacity="0.6" d="M310.877 670.229C310.877 665.142 306.88 661 301.939 661C296.997 661 293 665.142 293 670.229C293 675.316 296.997 679.459 301.939 679.459C306.88 679.531 310.877 675.389 310.877 670.229Z" fill="#FFFDFF"/>
</g>
</g>
</g>
<g opacity="0.6">
<g opacity="0.6">
<mask id="mask20_14_559" style="mask-type:alpha" maskUnits="userSpaceOnUse" x="734" y="818" width="19" height="19">
<g opacity="0.6">
<g opacity="0.6">
<path opacity="0.6" d="M752.498 827.271C752.498 822.184 748.501 818.042 743.559 818.042C738.617 818.042 734.621 822.184 734.621 827.271C734.621 832.358 738.69 836.5 743.559 836.5C748.501 836.5 752.498 832.358 752.498 827.271Z" fill="url(#paint20_linear_14_559)"/>
</g>
</g>
</mask>
<g mask="url(#mask20_14_559)">
<path opacity="0.6" d="M752.498 827.271C752.498 822.184 748.501 818.042 743.559 818.042C738.617 818.042 734.621 822.184 734.621 827.271C734.621 832.358 738.69 836.5 743.559 836.5C748.501 836.5 752.498 832.358 752.498 827.271Z" fill="#FFFDFF"/>
</g>
<mask id="mask21_14_559" style="mask-type:alpha" maskUnits="userSpaceOnUse" x="680" y="818" width="18" height="19">
<g opacity="0.6">
<g opacity="0.6">
<path opacity="0.6" d="M697.922 827.271C697.922 822.184 693.925 818.042 688.983 818.042C684.042 818.042 680.045 822.184 680.045 827.271C680.045 832.358 684.042 836.5 688.983 836.5C693.925 836.5 697.922 832.358 697.922 827.271Z" fill="url(#paint21_linear_14_559)"/>
</g>
</g>
</mask>
<g mask="url(#mask21_14_559)">
<path opacity="0.6" d="M697.922 827.271C697.922 822.184 693.925 818.042 688.983 818.042C684.042 818.042 680.045 822.184 680.045 827.271C680.045 832.358 684.042 836.5 688.983 836.5C693.925 836.5 697.922 832.358 697.922 827.271Z" fill="#FFFDFF"/>
</g>
<mask id="mask22_14_559" style="mask-type:alpha" maskUnits="userSpaceOnUse" x="625" y="818" width="19" height="19">
<g opacity="0.6">
<g opacity="0.6">
<path opacity="0.6" d="M643.346 827.271C643.346 822.184 639.349 818.042 634.407 818.042C629.466 818.042 625.469 822.184 625.469 827.271C625.469 832.358 629.466 836.5 634.407 836.5C639.349 836.5 643.346 832.358 643.346 827.271Z" fill="url(#paint22_linear_14_559)"/>
</g>
</g>
</mask>
<g mask="url(#mask22_14_559)">
<path opacity="0.6" d="M643.346 827.271C643.346 822.184 639.349 818.042 634.407 818.042C629.466 818.042 625.469 822.184 625.469 827.271C625.469 832.358 629.466 836.5 634.407 836.5C639.349 836.5 643.346 832.358 643.346 827.271Z" fill="#FFFDFF"/>
</g>
<mask id="mask23_14_559" style="mask-type:alpha" maskUnits="userSpaceOnUse" x="570" y="818" width="19" height="19">
<g opacity="0.6">
<g opacity="0.6">
<path opacity="0.6" d="M588.698 827.271C588.698 822.184 584.701 818.042 579.759 818.042C574.817 818.042 570.82 822.184 570.82 827.271C570.82 832.358 574.817 836.5 579.759 836.5C584.773 836.5 588.698 832.358 588.698 827.271Z" fill="url(#paint23_linear_14_559)"/>
</g>
</g>
</mask>
<g mask="url(#mask23_14_559)">
<path opacity="0.6" d="M588.698 827.271C588.698 822.184 584.701 818.042 579.759 818.042C574.817 818.042 570.82 822.184 570.82 827.271C570.82 832.358 574.817 836.5 579.759 836.5C584.773 836.5 588.698 832.358 588.698 827.271Z" fill="#FFFDFF"/>
</g>
<mask id="mask24_14_559" style="mask-type:alpha" maskUnits="userSpaceOnUse" x="516" y="818" width="19" height="19">
<g opacity="0.6">
<g opacity="0.6">
<path opacity="0.6" d="M534.122 827.271C534.122 822.184 530.125 818.042 525.183 818.042C520.242 818.042 516.245 822.184 516.245 827.271C516.245 832.358 520.242 836.5 525.183 836.5C530.125 836.5 534.122 832.358 534.122 827.271Z" fill="url(#paint24_linear_14_559)"/>
</g>
</g>
</mask>
<g mask="url(#mask24_14_559)">
<path opacity="0.6" d="M534.122 827.271C534.122 822.184 530.125 818.042 525.183 818.042C520.242 818.042 516.245 822.184 516.245 827.271C516.245 832.358 520.242 836.5 525.183 836.5C530.125 836.5 534.122 832.358 534.122 827.271Z" fill="#FFFDFF"/>
</g>
</g>
</g>
<g opacity="0.6">
<g opacity="0.6">
<mask id="mask25_14_559" style="mask-type:alpha" maskUnits="userSpaceOnUse" x="734" y="778" width="19" height="20">
<g opacity="0.6">
<g opacity="0.6">
<path opacity="0.6" d="M743.559 778.799C738.622 778.799 734.621 782.931 734.621 788.029C734.621 793.126 738.622 797.258 743.559 797.258C748.496 797.258 752.498 793.126 752.498 788.029C752.498 782.931 748.496 778.799 743.559 778.799Z" fill="url(#paint25_linear_14_559)"/>
</g>
</g>
</mask>
<g mask="url(#mask25_14_559)">
<path opacity="0.6" d="M743.559 778.799C738.622 778.799 734.621 782.931 734.621 788.029C734.621 793.126 738.622 797.258 743.559 797.258C748.496 797.258 752.498 793.126 752.498 788.029C752.498 782.931 748.496 778.799 743.559 778.799Z" fill="#FFFDFF"/>
</g>
<mask id="mask26_14_559" style="mask-type:alpha" maskUnits="userSpaceOnUse" x="680" y="778" width="18" height="20">
<g opacity="0.6">
<g opacity="0.6">
<path opacity="0.6" d="M697.922 788.029C697.922 782.942 693.925 778.799 688.983 778.799C684.042 778.799 680.045 782.942 680.045 788.029C680.045 793.116 684.042 797.258 688.983 797.258C693.925 797.258 697.922 793.116 697.922 788.029Z" fill="url(#paint26_linear_14_559)"/>
</g>
</g>
</mask>
<g mask="url(#mask26_14_559)">
<path opacity="0.6" d="M697.922 788.029C697.922 782.942 693.925 778.799 688.983 778.799C684.042 778.799 680.045 782.942 680.045 788.029C680.045 793.116 684.042 797.258 688.983 797.258C693.925 797.258 697.922 793.116 697.922 788.029Z" fill="#FFFDFF"/>
</g>
<mask id="mask27_14_559" style="mask-type:alpha" maskUnits="userSpaceOnUse" x="625" y="778" width="19" height="20">
<g opacity="0.6">
<g opacity="0.6">
<path opacity="0.6" d="M643.346 788.029C643.346 782.942 639.349 778.799 634.407 778.799C629.466 778.799 625.469 782.942 625.469 788.029C625.469 793.116 629.466 797.258 634.407 797.258C639.349 797.258 643.346 793.116 643.346 788.029Z" fill="url(#paint27_linear_14_559)"/>
</g>
</g>
</mask>
<g mask="url(#mask27_14_559)">
<path opacity="0.6" d="M643.346 788.029C643.346 782.942 639.349 778.799 634.407 778.799C629.466 778.799 625.469 782.942 625.469 788.029C625.469 793.116 629.466 797.258 634.407 797.258C639.349 797.258 643.346 793.116 643.346 788.029Z" fill="#FFFDFF"/>
</g>
<mask id="mask28_14_559" style="mask-type:alpha" maskUnits="userSpaceOnUse" x="570" y="778" width="19" height="20">
<g opacity="0.6">
<g opacity="0.6">
<path opacity="0.6" d="M588.698 788.029C588.698 782.942 584.701 778.799 579.759 778.799C574.817 778.799 570.82 782.942 570.82 788.029C570.82 793.116 574.817 797.258 579.759 797.258C584.773 797.258 588.698 793.116 588.698 788.029Z" fill="url(#paint28_linear_14_559)"/>
</g>
</g>
</mask>
<g mask="url(#mask28_14_559)">
<path opacity="0.6" d="M588.698 788.029C588.698 782.942 584.701 778.799 579.759 778.799C574.817 778.799 570.82 782.942 570.82 788.029C570.82 793.116 574.817 797.258 579.759 797.258C584.773 797.258 588.698 793.116 588.698 788.029Z" fill="#FFFDFF"/>
</g>
<mask id="mask29_14_559" style="mask-type:alpha" maskUnits="userSpaceOnUse" x="516" y="778" width="19" height="20">
<g opacity="0.6">
<g opacity="0.6">
<path opacity="0.6" d="M534.122 788.029C534.122 782.942 530.125 778.799 525.183 778.799C520.242 778.799 516.245 782.942 516.245 788.029C516.245 793.116 520.242 797.258 525.183 797.258C530.125 797.258 534.122 793.116 534.122 788.029Z" fill="url(#paint29_linear_14_559)"/>
</g>
</g>
</mask>
<g mask="url(#mask29_14_559)">
<path opacity="0.6" d="M534.122 788.029C534.122 782.942 530.125 778.799 525.183 778.799C520.242 778.799 516.245 782.942 516.245 788.029C516.245 793.116 520.242 797.258 525.183 797.258C530.125 797.258 534.122 793.116 534.122 788.029Z" fill="#FFFDFF"/>
</g>
</g>
</g>
<g opacity="0.6">
<g opacity="0.6">
<mask id="mask30_14_559" style="mask-type:alpha" maskUnits="userSpaceOnUse" x="734" y="739" width="19" height="20">
<g opacity="0.6">
<g opacity="0.6">
<path opacity="0.6" d="M752.498 748.786C752.498 743.699 748.501 739.557 743.559 739.557C738.617 739.557 734.621 743.699 734.621 748.786C734.621 753.873 738.617 758.016 743.559 758.016C748.501 758.016 752.498 753.873 752.498 748.786Z" fill="url(#paint30_linear_14_559)"/>
</g>
</g>
</mask>
<g mask="url(#mask30_14_559)">
<path opacity="0.6" d="M752.498 748.786C752.498 743.699 748.501 739.557 743.559 739.557C738.617 739.557 734.621 743.699 734.621 748.786C734.621 753.873 738.617 758.016 743.559 758.016C748.501 758.016 752.498 753.873 752.498 748.786Z" fill="#FFFDFF"/>
</g>
<mask id="mask31_14_559" style="mask-type:alpha" maskUnits="userSpaceOnUse" x="680" y="739" width="18" height="20">
<g opacity="0.6">
<g opacity="0.6">
<path opacity="0.6" d="M697.922 748.786C697.922 743.699 693.925 739.557 688.983 739.557C684.042 739.557 680.045 743.699 680.045 748.786C680.045 753.873 684.042 758.016 688.983 758.016C693.925 758.016 697.922 753.873 697.922 748.786Z" fill="url(#paint31_linear_14_559)"/>
</g>
</g>
</mask>
<g mask="url(#mask31_14_559)">
<path opacity="0.6" d="M697.922 748.786C697.922 743.699 693.925 739.557 688.983 739.557C684.042 739.557 680.045 743.699 680.045 748.786C680.045 753.873 684.042 758.016 688.983 758.016C693.925 758.016 697.922 753.873 697.922 748.786Z" fill="#FFFDFF"/>
</g>
<mask id="mask32_14_559" style="mask-type:alpha" maskUnits="userSpaceOnUse" x="625" y="739" width="19" height="20">
<g opacity="0.6">
<g opacity="0.6">
<path opacity="0.6" d="M643.346 748.786C643.346 743.699 639.349 739.557 634.407 739.557C629.466 739.557 625.469 743.699 625.469 748.786C625.469 753.873 629.466 758.016 634.407 758.016C639.349 758.016 643.346 753.873 643.346 748.786Z" fill="url(#paint32_linear_14_559)"/>
</g>
</g>
</mask>
<g mask="url(#mask32_14_559)">
<path opacity="0.6" d="M643.346 748.786C643.346 743.699 639.349 739.557 634.407 739.557C629.466 739.557 625.469 743.699 625.469 748.786C625.469 753.873 629.466 758.016 634.407 758.016C639.349 758.016 643.346 753.873 643.346 748.786Z" fill="#FFFDFF"/>
</g>
<mask id="mask33_14_559" style="mask-type:alpha" maskUnits="userSpaceOnUse" x="570" y="739" width="19" height="19">
<g opacity="0.6">
<g opacity="0.6">
<path opacity="0.6" d="M588.698 748.714C588.698 743.627 584.701 739.485 579.759 739.485C574.817 739.485 570.82 743.627 570.82 748.714C570.82 753.801 574.817 757.943 579.759 757.943C584.773 758.016 588.698 753.873 588.698 748.714Z" fill="url(#paint33_linear_14_559)"/>
</g>
</g>
</mask>
<g mask="url(#mask33_14_559)">
<path opacity="0.6" d="M588.698 748.714C588.698 743.627 584.701 739.485 579.759 739.485C574.817 739.485 570.82 743.627 570.82 748.714C570.82 753.801 574.817 757.943 579.759 757.943C584.773 758.016 588.698 753.873 588.698 748.714Z" fill="#FFFDFF"/>
</g>
<mask id="mask34_14_559" style="mask-type:alpha" maskUnits="userSpaceOnUse" x="516" y="739" width="19" height="19">
<g opacity="0.6">
<g opacity="0.6">
<path opacity="0.6" d="M534.122 748.714C534.122 743.627 530.125 739.485 525.183 739.485C520.242 739.485 516.245 743.627 516.245 748.714C516.245 753.801 520.242 757.943 525.183 757.943C530.125 758.016 534.122 753.873 534.122 748.714Z" fill="url(#paint34_linear_14_559)"/>
</g>
</g>
</mask>
<g mask="url(#mask34_14_559)">
<path opacity="0.6" d="M534.122 748.714C534.122 743.627 530.125 739.485 525.183 739.485C520.242 739.485 516.245 743.627 516.245 748.714C516.245 753.801 520.242 757.943 525.183 757.943C530.125 758.016 534.122 753.873 534.122 748.714Z" fill="#FFFDFF"/>
</g>
</g>
</g>
<g opacity="0.6">
<g opacity="0.6">
<mask id="mask35_14_559" style="mask-type:alpha" maskUnits="userSpaceOnUse" x="734" y="700" width="19" height="19">
<g opacity="0.6">
<g opacity="0.6">
<path opacity="0.6" d="M752.498 709.472C752.498 704.385 748.501 700.242 743.559 700.242C738.617 700.242 734.621 704.385 734.621 709.472C734.621 714.558 738.617 718.701 743.559 718.701C748.501 718.773 752.498 714.631 752.498 709.472Z" fill="url(#paint35_linear_14_559)"/>
</g>
</g>
</mask>
<g mask="url(#mask35_14_559)">
<path opacity="0.6" d="M752.498 709.472C752.498 704.385 748.501 700.242 743.559 700.242C738.617 700.242 734.621 704.385 734.621 709.472C734.621 714.558 738.617 718.701 743.559 718.701C748.501 718.773 752.498 714.631 752.498 709.472Z" fill="#FFFDFF"/>
</g>
<mask id="mask36_14_559" style="mask-type:alpha" maskUnits="userSpaceOnUse" x="680" y="700" width="18" height="19">
<g opacity="0.6">
<g opacity="0.6">
<path opacity="0.6" d="M697.922 709.472C697.922 704.385 693.925 700.242 688.983 700.242C684.042 700.242 680.045 704.385 680.045 709.472C680.045 714.558 684.042 718.701 688.983 718.701C693.925 718.773 697.922 714.631 697.922 709.472Z" fill="url(#paint36_linear_14_559)"/>
</g>
</g>
</mask>
<g mask="url(#mask36_14_559)">
<path opacity="0.6" d="M697.922 709.472C697.922 704.385 693.925 700.242 688.983 700.242C684.042 700.242 680.045 704.385 680.045 709.472C680.045 714.558 684.042 718.701 688.983 718.701C693.925 718.773 697.922 714.631 697.922 709.472Z" fill="#FFFDFF"/>
</g>
<mask id="mask37_14_559" style="mask-type:alpha" maskUnits="userSpaceOnUse" x="625" y="700" width="19" height="19">
<g opacity="0.6">
<g opacity="0.6">
<path opacity="0.6" d="M643.346 709.472C643.346 704.385 639.349 700.242 634.407 700.242C629.466 700.242 625.469 704.385 625.469 709.472C625.469 714.558 629.466 718.701 634.407 718.701C639.349 718.773 643.346 714.631 643.346 709.472Z" fill="url(#paint37_linear_14_559)"/>
</g>
</g>
</mask>
<g mask="url(#mask37_14_559)">
<path opacity="0.6" d="M643.346 709.472C643.346 704.385 639.349 700.242 634.407 700.242C629.466 700.242 625.469 704.385 625.469 709.472C625.469 714.558 629.466 718.701 634.407 718.701C639.349 718.773 643.346 714.631 643.346 709.472Z" fill="#FFFDFF"/>
</g>
<mask id="mask38_14_559" style="mask-type:alpha" maskUnits="userSpaceOnUse" x="570" y="700" width="19" height="19">
<g opacity="0.6">
<g opacity="0.6">
<path opacity="0.6" d="M588.698 709.472C588.698 704.385 584.701 700.242 579.759 700.242C574.817 700.242 570.82 704.385 570.82 709.472C570.82 714.558 574.817 718.701 579.759 718.701C584.773 718.773 588.698 714.631 588.698 709.472Z" fill="url(#paint38_linear_14_559)"/>
</g>
</g>
</mask>
<g mask="url(#mask38_14_559)">
<path opacity="0.6" d="M588.698 709.472C588.698 704.385 584.701 700.242 579.759 700.242C574.817 700.242 570.82 704.385 570.82 709.472C570.82 714.558 574.817 718.701 579.759 718.701C584.773 718.773 588.698 714.631 588.698 709.472Z" fill="#FFFDFF"/>
</g>
<mask id="mask39_14_559" style="mask-type:alpha" maskUnits="userSpaceOnUse" x="516" y="700" width="19" height="19">
<g opacity="0.6">
<g opacity="0.6">
<path opacity="0.6" d="M534.122 709.472C534.122 704.385 530.125 700.242 525.183 700.242C520.242 700.242 516.245 704.385 516.245 709.472C516.245 714.558 520.242 718.701 525.183 718.701C530.125 718.773 534.122 714.631 534.122 709.472Z" fill="url(#paint39_linear_14_559)"/>
</g>
</g>
</mask>
<g mask="url(#mask39_14_559)">
<path opacity="0.6" d="M534.122 709.472C534.122 704.385 530.125 700.242 525.183 700.242C520.242 700.242 516.245 704.385 516.245 709.472C516.245 714.558 520.242 718.701 525.183 718.701C530.125 718.773 534.122 714.631 534.122 709.472Z" fill="#FFFDFF"/>
</g>
</g>
</g>
<g opacity="0.6">
<g opacity="0.6">
<mask id="mask40_14_559" style="mask-type:alpha" maskUnits="userSpaceOnUse" x="734" y="661" width="19" height="19">
<g opacity="0.6">
<g opacity="0.6">
<path opacity="0.6" d="M752.498 670.229C752.498 665.142 748.501 661 743.559 661C738.617 661 734.621 665.142 734.621 670.229C734.621 675.316 738.617 679.459 743.559 679.459C748.501 679.531 752.498 675.389 752.498 670.229Z" fill="url(#paint40_linear_14_559)"/>
</g>
</g>
</mask>
<g mask="url(#mask40_14_559)">
<path opacity="0.6" d="M752.498 670.229C752.498 665.142 748.501 661 743.559 661C738.617 661 734.621 665.142 734.621 670.229C734.621 675.316 738.617 679.459 743.559 679.459C748.501 679.531 752.498 675.389 752.498 670.229Z" fill="#FFFDFF"/>
</g>
<mask id="mask41_14_559" style="mask-type:alpha" maskUnits="userSpaceOnUse" x="680" y="661" width="18" height="19">
<g opacity="0.6">
<g opacity="0.6">
<path opacity="0.6" d="M697.922 670.229C697.922 665.142 693.925 661 688.983 661C684.042 661 680.045 665.142 680.045 670.229C680.045 675.316 684.042 679.459 688.983 679.459C693.925 679.531 697.922 675.389 697.922 670.229Z" fill="url(#paint41_linear_14_559)"/>
</g>
</g>
</mask>
<g mask="url(#mask41_14_559)">
<path opacity="0.6" d="M697.922 670.229C697.922 665.142 693.925 661 688.983 661C684.042 661 680.045 665.142 680.045 670.229C680.045 675.316 684.042 679.459 688.983 679.459C693.925 679.531 697.922 675.389 697.922 670.229Z" fill="#FFFDFF"/>
</g>
<mask id="mask42_14_559" style="mask-type:alpha" maskUnits="userSpaceOnUse" x="625" y="661" width="19" height="19">
<g opacity="0.6">
<g opacity="0.6">
<path opacity="0.6" d="M643.346 670.229C643.346 665.142 639.349 661 634.407 661C629.466 661 625.469 665.142 625.469 670.229C625.469 675.316 629.466 679.459 634.407 679.459C639.349 679.531 643.346 675.389 643.346 670.229Z" fill="url(#paint42_linear_14_559)"/>
</g>
</g>
</mask>
<g mask="url(#mask42_14_559)">
<path opacity="0.6" d="M643.346 670.229C643.346 665.142 639.349 661 634.407 661C629.466 661 625.469 665.142 625.469 670.229C625.469 675.316 629.466 679.459 634.407 679.459C639.349 679.531 643.346 675.389 643.346 670.229Z" fill="#FFFDFF"/>
</g>
<mask id="mask43_14_559" style="mask-type:alpha" maskUnits="userSpaceOnUse" x="570" y="661" width="19" height="19">
<g opacity="0.6">
<g opacity="0.6">
<path opacity="0.6" d="M588.698 670.229C588.698 665.142 584.701 661 579.759 661C574.817 661 570.82 665.142 570.82 670.229C570.82 675.316 574.817 679.459 579.759 679.459C584.773 679.531 588.698 675.389 588.698 670.229Z" fill="url(#paint43_linear_14_559)"/>
</g>
</g>
</mask>
<g mask="url(#mask43_14_559)">
<path opacity="0.6" d="M588.698 670.229C588.698 665.142 584.701 661 579.759 661C574.817 661 570.82 665.142 570.82 670.229C570.82 675.316 574.817 679.459 579.759 679.459C584.773 679.531 588.698 675.389 588.698 670.229Z" fill="#FFFDFF"/>
</g>
<mask id="mask44_14_559" style="mask-type:alpha" maskUnits="userSpaceOnUse" x="516" y="661" width="19" height="19">
<g opacity="0.6">
<g opacity="0.6">
<path opacity="0.6" d="M534.122 670.229C534.122 665.142 530.125 661 525.183 661C520.242 661 516.245 665.142 516.245 670.229C516.245 675.316 520.242 679.459 525.183 679.459C530.125 679.531 534.122 675.389 534.122 670.229Z" fill="url(#paint44_linear_14_559)"/>
</g>
</g>
</mask>
<g mask="url(#mask44_14_559)">
<path opacity="0.6" d="M534.122 670.229C534.122 665.142 530.125 661 525.183 661C520.242 661 516.245 665.142 516.245 670.229C516.245 675.316 520.242 679.459 525.183 679.459C530.125 679.531 534.122 675.389 534.122 670.229Z" fill="#FFFDFF"/>
</g>
</g>
</g>
</g>
<defs>
<linearGradient id="paint0_linear_14_559" x1="470.434" y1="830.09" x2="-425.762" y2="288.99" gradientUnits="userSpaceOnUse">
<stop stop-color="white"/>
<stop offset="0.8649" stop-color="#1A1A1A"/>
</linearGradient>
<linearGradient id="paint1_linear_14_559" x1="456.266" y1="854.495" x2="-439.927" y2="313.396" gradientUnits="userSpaceOnUse">
<stop stop-color="white"/>
<stop offset="0.8649" stop-color="#1A1A1A"/>
</linearGradient>
<linearGradient id="paint2_linear_14_559" x1="442.1" y1="878.9" x2="-454.099" y2="337.797" gradientUnits="userSpaceOnUse">
<stop stop-color="white"/>
<stop offset="0.8649" stop-color="#1A1A1A"/>
</linearGradient>
<linearGradient id="paint3_linear_14_559" x1="427.931" y1="903.304" x2="-468.261" y2="362.207" gradientUnits="userSpaceOnUse">
<stop stop-color="white"/>
<stop offset="0.8649" stop-color="#1A1A1A"/>
</linearGradient>
<linearGradient id="paint4_linear_14_559" x1="470.434" y1="790.842" x2="-425.761" y2="249.742" gradientUnits="userSpaceOnUse">
<stop stop-color="white"/>
<stop offset="0.8649" stop-color="#1A1A1A"/>
</linearGradient>
<linearGradient id="paint5_linear_14_559" x1="456.267" y1="815.247" x2="-439.926" y2="274.149" gradientUnits="userSpaceOnUse">
<stop stop-color="white"/>
<stop offset="0.8649" stop-color="#1A1A1A"/>
</linearGradient>
<linearGradient id="paint6_linear_14_559" x1="442.1" y1="839.652" x2="-454.1" y2="298.548" gradientUnits="userSpaceOnUse">
<stop stop-color="white"/>
<stop offset="0.8649" stop-color="#1A1A1A"/>
</linearGradient>
<linearGradient id="paint7_linear_14_559" x1="427.932" y1="864.057" x2="-468.263" y2="322.958" gradientUnits="userSpaceOnUse">
<stop stop-color="white"/>
<stop offset="0.8649" stop-color="#1A1A1A"/>
</linearGradient>
<linearGradient id="paint8_linear_14_559" x1="470.434" y1="751.594" x2="-425.762" y2="210.494" gradientUnits="userSpaceOnUse">
<stop stop-color="white"/>
<stop offset="0.8649" stop-color="#1A1A1A"/>
</linearGradient>
<linearGradient id="paint9_linear_14_559" x1="456.267" y1="775.999" x2="-439.925" y2="234.901" gradientUnits="userSpaceOnUse">
<stop stop-color="white"/>
<stop offset="0.8649" stop-color="#1A1A1A"/>
</linearGradient>
<linearGradient id="paint10_linear_14_559" x1="442.1" y1="800.404" x2="-454.097" y2="259.302" gradientUnits="userSpaceOnUse">
<stop stop-color="white"/>
<stop offset="0.8649" stop-color="#1A1A1A"/>
</linearGradient>
<linearGradient id="paint11_linear_14_559" x1="427.931" y1="824.808" x2="-468.259" y2="283.712" gradientUnits="userSpaceOnUse">
<stop stop-color="white"/>
<stop offset="0.8649" stop-color="#1A1A1A"/>
</linearGradient>
<linearGradient id="paint12_linear_14_559" x1="470.435" y1="712.346" x2="-425.761" y2="171.246" gradientUnits="userSpaceOnUse">
<stop stop-color="white"/>
<stop offset="0.8649" stop-color="#1A1A1A"/>
</linearGradient>
<linearGradient id="paint13_linear_14_559" x1="456.267" y1="736.751" x2="-439.926" y2="195.652" gradientUnits="userSpaceOnUse">
<stop stop-color="white"/>
<stop offset="0.8649" stop-color="#1A1A1A"/>
</linearGradient>
<linearGradient id="paint14_linear_14_559" x1="442.1" y1="761.156" x2="-454.1" y2="220.052" gradientUnits="userSpaceOnUse">
<stop stop-color="white"/>
<stop offset="0.8649" stop-color="#1A1A1A"/>
</linearGradient>
<linearGradient id="paint15_linear_14_559" x1="427.932" y1="785.56" x2="-468.262" y2="244.462" gradientUnits="userSpaceOnUse">
<stop stop-color="white"/>
<stop offset="0.8649" stop-color="#1A1A1A"/>
</linearGradient>
<linearGradient id="paint16_linear_14_559" x1="470.435" y1="673.098" x2="-425.76" y2="131.998" gradientUnits="userSpaceOnUse">
<stop stop-color="white"/>
<stop offset="0.8649" stop-color="#1A1A1A"/>
</linearGradient>
<linearGradient id="paint17_linear_14_559" x1="456.267" y1="697.503" x2="-439.926" y2="156.404" gradientUnits="userSpaceOnUse">
<stop stop-color="white"/>
<stop offset="0.8649" stop-color="#1A1A1A"/>
</linearGradient>
<linearGradient id="paint18_linear_14_559" x1="442.1" y1="721.908" x2="-454.096" y2="180.806" gradientUnits="userSpaceOnUse">
<stop stop-color="white"/>
<stop offset="0.8649" stop-color="#1A1A1A"/>
</linearGradient>
<linearGradient id="paint19_linear_14_559" x1="427.932" y1="746.312" x2="-468.26" y2="205.215" gradientUnits="userSpaceOnUse">
<stop stop-color="white"/>
<stop offset="0.8649" stop-color="#1A1A1A"/>
</linearGradient>
<linearGradient id="paint20_linear_14_559" x1="748.299" y1="830.092" x2="-147.9" y2="288.991" gradientUnits="userSpaceOnUse">
<stop stop-color="white"/>
<stop offset="0.8649" stop-color="#1A1A1A"/>
</linearGradient>
<linearGradient id="paint21_linear_14_559" x1="734.131" y1="854.497" x2="-162.061" y2="313.399" gradientUnits="userSpaceOnUse">
<stop stop-color="white"/>
<stop offset="0.8649" stop-color="#1A1A1A"/>
</linearGradient>
<linearGradient id="paint22_linear_14_559" x1="719.964" y1="878.902" x2="-176.229" y2="337.803" gradientUnits="userSpaceOnUse">
<stop stop-color="white"/>
<stop offset="0.8649" stop-color="#1A1A1A"/>
</linearGradient>
<linearGradient id="paint23_linear_14_559" x1="705.796" y1="903.306" x2="-190.397" y2="362.208" gradientUnits="userSpaceOnUse">
<stop stop-color="white"/>
<stop offset="0.8649" stop-color="#1A1A1A"/>
</linearGradient>
<linearGradient id="paint24_linear_14_559" x1="691.629" y1="927.711" x2="-204.565" y2="386.612" gradientUnits="userSpaceOnUse">
<stop stop-color="white"/>
<stop offset="0.8649" stop-color="#1A1A1A"/>
</linearGradient>
<linearGradient id="paint25_linear_14_559" x1="748.299" y1="790.844" x2="-147.901" y2="249.742" gradientUnits="userSpaceOnUse">
<stop stop-color="white"/>
<stop offset="0.8649" stop-color="#1A1A1A"/>
</linearGradient>
<linearGradient id="paint26_linear_14_559" x1="734.131" y1="815.249" x2="-162.062" y2="274.15" gradientUnits="userSpaceOnUse">
<stop stop-color="white"/>
<stop offset="0.8649" stop-color="#1A1A1A"/>
</linearGradient>
<linearGradient id="paint27_linear_14_559" x1="719.964" y1="839.654" x2="-176.228" y2="298.556" gradientUnits="userSpaceOnUse">
<stop stop-color="white"/>
<stop offset="0.8649" stop-color="#1A1A1A"/>
</linearGradient>
<linearGradient id="paint28_linear_14_559" x1="705.796" y1="864.058" x2="-190.396" y2="322.961" gradientUnits="userSpaceOnUse">
<stop stop-color="white"/>
<stop offset="0.8649" stop-color="#1A1A1A"/>
</linearGradient>
<linearGradient id="paint29_linear_14_559" x1="691.629" y1="888.464" x2="-204.566" y2="347.364" gradientUnits="userSpaceOnUse">
<stop stop-color="white"/>
<stop offset="0.8649" stop-color="#1A1A1A"/>
</linearGradient>
<linearGradient id="paint30_linear_14_559" x1="748.299" y1="751.596" x2="-147.901" y2="210.494" gradientUnits="userSpaceOnUse">
<stop stop-color="white"/>
<stop offset="0.8649" stop-color="#1A1A1A"/>
</linearGradient>
<linearGradient id="paint31_linear_14_559" x1="734.131" y1="776.001" x2="-162.061" y2="234.903" gradientUnits="userSpaceOnUse">
<stop stop-color="white"/>
<stop offset="0.8649" stop-color="#1A1A1A"/>
</linearGradient>
<linearGradient id="paint32_linear_14_559" x1="719.964" y1="800.406" x2="-176.229" y2="259.307" gradientUnits="userSpaceOnUse">
<stop stop-color="white"/>
<stop offset="0.8649" stop-color="#1A1A1A"/>
</linearGradient>
<linearGradient id="paint33_linear_14_559" x1="705.797" y1="824.81" x2="-190.397" y2="283.711" gradientUnits="userSpaceOnUse">
<stop stop-color="white"/>
<stop offset="0.8649" stop-color="#1A1A1A"/>
</linearGradient>
<linearGradient id="paint34_linear_14_559" x1="691.629" y1="849.215" x2="-204.565" y2="308.116" gradientUnits="userSpaceOnUse">
<stop stop-color="white"/>
<stop offset="0.8649" stop-color="#1A1A1A"/>
</linearGradient>
<linearGradient id="paint35_linear_14_559" x1="748.299" y1="712.348" x2="-147.899" y2="171.247" gradientUnits="userSpaceOnUse">
<stop stop-color="white"/>
<stop offset="0.8649" stop-color="#1A1A1A"/>
</linearGradient>
<linearGradient id="paint36_linear_14_559" x1="734.132" y1="736.753" x2="-162.064" y2="195.653" gradientUnits="userSpaceOnUse">
<stop stop-color="white"/>
<stop offset="0.8649" stop-color="#1A1A1A"/>
</linearGradient>
<linearGradient id="paint37_linear_14_559" x1="719.964" y1="761.158" x2="-176.229" y2="220.059" gradientUnits="userSpaceOnUse">
<stop stop-color="white"/>
<stop offset="0.8649" stop-color="#1A1A1A"/>
</linearGradient>
<linearGradient id="paint38_linear_14_559" x1="705.797" y1="785.562" x2="-190.396" y2="244.464" gradientUnits="userSpaceOnUse">
<stop stop-color="white"/>
<stop offset="0.8649" stop-color="#1A1A1A"/>
</linearGradient>
<linearGradient id="paint39_linear_14_559" x1="691.63" y1="809.967" x2="-204.564" y2="268.868" gradientUnits="userSpaceOnUse">
<stop stop-color="white"/>
<stop offset="0.8649" stop-color="#1A1A1A"/>
</linearGradient>
<linearGradient id="paint40_linear_14_559" x1="748.3" y1="673.1" x2="-147.898" y2="131.999" gradientUnits="userSpaceOnUse">
<stop stop-color="white"/>
<stop offset="0.8649" stop-color="#1A1A1A"/>
</linearGradient>
<linearGradient id="paint41_linear_14_559" x1="734.132" y1="697.505" x2="-162.06" y2="156.407" gradientUnits="userSpaceOnUse">
<stop stop-color="white"/>
<stop offset="0.8649" stop-color="#1A1A1A"/>
</linearGradient>
<linearGradient id="paint42_linear_14_559" x1="719.964" y1="721.909" x2="-176.227" y2="180.812" gradientUnits="userSpaceOnUse">
<stop stop-color="white"/>
<stop offset="0.8649" stop-color="#1A1A1A"/>
</linearGradient>
<linearGradient id="paint43_linear_14_559" x1="705.797" y1="746.314" x2="-190.397" y2="205.215" gradientUnits="userSpaceOnUse">
<stop stop-color="white"/>
<stop offset="0.8649" stop-color="#1A1A1A"/>
</linearGradient>
<linearGradient id="paint44_linear_14_559" x1="691.63" y1="770.719" x2="-204.565" y2="229.62" gradientUnits="userSpaceOnUse">
<stop stop-color="white"/>
<stop offset="0.8649" stop-color="#1A1A1A"/>
</linearGradient>
<clipPath id="clip0_14_559">
<rect width="2306" height="872" fill="white" transform="translate(0.5)"/>
</clipPath>
</defs>
</svg>
