<svg width="1920" height="540" viewBox="0 0 1920 540" fill="none" xmlns="http://www.w3.org/2000/svg">
<g clip-path="url(#clip0_2_505)">
<g opacity="0.3">
<path opacity="0.3" d="M1529.5 553C1479.37 553 1438.5 512.111 1438.5 462C1438.5 411.889 1479.37 371 1529.5 371C1579.63 371 1620.5 411.889 1620.5 462C1620.5 512.111 1579.79 553 1529.5 553ZM1529.5 376.688C1482.4 376.688 1444.25 414.963 1444.25 462C1444.25 509.037 1482.56 547.312 1529.5 547.312C1576.6 547.312 1614.75 509.037 1614.75 462C1614.91 414.963 1576.6 376.688 1529.5 376.688Z" fill="white"/>
</g>
<g opacity="0.3">
<path opacity="0.3" d="M1885.5 434C1780.83 434 1695.5 348.753 1695.5 244C1695.5 139.247 1780.68 54 1885.5 54C1990.17 54 2075.5 139.247 2075.5 244C2075.35 348.753 1990.17 434 1885.5 434ZM1885.5 65.8478C1787.28 65.8478 1707.5 145.749 1707.5 244C1707.5 342.251 1787.43 422.152 1885.5 422.152C1983.72 422.152 2063.5 342.251 2063.5 244C2063.5 145.749 1983.57 65.8478 1885.5 65.8478Z" fill="white"/>
</g>
<path opacity="0.51" d="M1539.8 156.335L1512.5 139.387L1539.8 122.393V156.335Z" fill="#842382"/>
<path opacity="0.51" d="M1572.13 156.335L1544.83 139.387L1572.13 122.393V156.335Z" fill="#842382"/>
<path opacity="0.51" d="M1604.5 156.335L1577.2 139.387L1604.5 122.393V156.335Z" fill="#842382"/>
<path d="M259.989 202.163L247.332 214.82" stroke="#781876" stroke-width="4" stroke-linecap="round" stroke-linejoin="round"/>
<path d="M224.32 237.832L211.663 250.489" stroke="#781876" stroke-width="4" stroke-linecap="round" stroke-linejoin="round"/>
<path d="M259.988 250.488L247.331 237.832" stroke="#781876" stroke-width="4" stroke-linecap="round" stroke-linejoin="round"/>
<path d="M224.319 214.819L211.662 202.163" stroke="#781876" stroke-width="4" stroke-linecap="round" stroke-linejoin="round"/>
<g opacity="0.6">
<g opacity="0.6">
<mask id="mask0_2_505" style="mask-type:alpha" maskUnits="userSpaceOnUse" x="225" y="513" width="19" height="19">
<g opacity="0.6">
<g opacity="0.6">
<path opacity="0.6" d="M243.604 522.271C243.604 517.184 239.607 513.042 234.666 513.042C229.724 513.042 225.727 517.184 225.727 522.271C225.727 527.358 229.724 531.5 234.666 531.5C239.607 531.5 243.604 527.358 243.604 522.271Z" fill="url(#paint0_linear_2_505)"/>
</g>
</g>
</mask>
<g mask="url(#mask0_2_505)">
<path opacity="0.6" d="M243.604 522.271C243.604 517.184 239.607 513.042 234.666 513.042C229.724 513.042 225.727 517.184 225.727 522.271C225.727 527.358 229.724 531.5 234.666 531.5C239.607 531.5 243.604 527.358 243.604 522.271Z" fill="#FFFDFF"/>
</g>
<mask id="mask1_2_505" style="mask-type:alpha" maskUnits="userSpaceOnUse" x="171" y="513" width="19" height="19">
<g opacity="0.6">
<g opacity="0.6">
<path opacity="0.6" d="M189.029 522.271C189.029 517.184 185.032 513.042 180.09 513.042C175.148 513.042 171.152 517.184 171.152 522.271C171.152 527.358 175.148 531.5 180.09 531.5C185.032 531.5 189.029 527.358 189.029 522.271Z" fill="url(#paint1_linear_2_505)"/>
</g>
</g>
</mask>
<g mask="url(#mask1_2_505)">
<path opacity="0.6" d="M189.029 522.271C189.029 517.184 185.032 513.042 180.09 513.042C175.148 513.042 171.152 517.184 171.152 522.271C171.152 527.358 175.148 531.5 180.09 531.5C185.032 531.5 189.029 527.358 189.029 522.271Z" fill="#FFFDFF"/>
</g>
<mask id="mask2_2_505" style="mask-type:alpha" maskUnits="userSpaceOnUse" x="116" y="513" width="19" height="19">
<g opacity="0.6">
<g opacity="0.6">
<path opacity="0.6" d="M125.514 513.042C120.578 513.042 116.576 517.174 116.576 522.271C116.576 527.368 120.578 531.5 125.514 531.5C130.451 531.5 134.453 527.368 134.453 522.271C134.453 517.174 130.451 513.042 125.514 513.042Z" fill="url(#paint2_linear_2_505)"/>
</g>
</g>
</mask>
<g mask="url(#mask2_2_505)">
<path opacity="0.6" d="M125.514 513.042C120.578 513.042 116.576 517.174 116.576 522.271C116.576 527.368 120.578 531.5 125.514 531.5C130.451 531.5 134.453 527.368 134.453 522.271C134.453 517.174 130.451 513.042 125.514 513.042Z" fill="#FFFDFF"/>
</g>
<mask id="mask3_2_505" style="mask-type:alpha" maskUnits="userSpaceOnUse" x="62" y="513" width="18" height="19">
<g opacity="0.6">
<g opacity="0.6">
<path opacity="0.6" d="M70.9385 513.042C66.0019 513.042 62 517.174 62 522.271C62 527.368 66.0019 531.5 70.9385 531.5C75.8751 531.5 79.877 527.368 79.877 522.271C79.877 517.174 75.8751 513.042 70.9385 513.042Z" fill="url(#paint3_linear_2_505)"/>
</g>
</g>
</mask>
<g mask="url(#mask3_2_505)">
<path opacity="0.6" d="M70.9385 513.042C66.0019 513.042 62 517.174 62 522.271C62 527.368 66.0019 531.5 70.9385 531.5C75.8751 531.5 79.877 527.368 79.877 522.271C79.877 517.174 75.8751 513.042 70.9385 513.042Z" fill="#FFFDFF"/>
</g>
</g>
</g>
<g opacity="0.6">
<g opacity="0.6">
<mask id="mask4_2_505" style="mask-type:alpha" maskUnits="userSpaceOnUse" x="225" y="473" width="19" height="20">
<g opacity="0.6">
<g opacity="0.6">
<path opacity="0.6" d="M243.604 483.029C243.604 477.942 239.607 473.799 234.666 473.799C229.724 473.799 225.727 477.942 225.727 483.029C225.727 488.116 229.797 492.258 234.738 492.258C239.607 492.258 243.604 488.116 243.604 483.029Z" fill="url(#paint4_linear_2_505)"/>
</g>
</g>
</mask>
<g mask="url(#mask4_2_505)">
<path opacity="0.6" d="M243.604 483.029C243.604 477.942 239.607 473.799 234.666 473.799C229.724 473.799 225.727 477.942 225.727 483.029C225.727 488.116 229.797 492.258 234.738 492.258C239.607 492.258 243.604 488.116 243.604 483.029Z" fill="#FFFDFF"/>
</g>
<mask id="mask5_2_505" style="mask-type:alpha" maskUnits="userSpaceOnUse" x="171" y="473" width="19" height="20">
<g opacity="0.6">
<g opacity="0.6">
<path opacity="0.6" d="M189.029 483.029C189.029 477.942 185.032 473.799 180.09 473.799C175.148 473.799 171.152 477.942 171.152 483.029C171.152 488.116 175.148 492.258 180.09 492.258C185.032 492.258 189.029 488.116 189.029 483.029Z" fill="url(#paint5_linear_2_505)"/>
</g>
</g>
</mask>
<g mask="url(#mask5_2_505)">
<path opacity="0.6" d="M189.029 483.029C189.029 477.942 185.032 473.799 180.09 473.799C175.148 473.799 171.152 477.942 171.152 483.029C171.152 488.116 175.148 492.258 180.09 492.258C185.032 492.258 189.029 488.116 189.029 483.029Z" fill="#FFFDFF"/>
</g>
<mask id="mask6_2_505" style="mask-type:alpha" maskUnits="userSpaceOnUse" x="116" y="473" width="19" height="20">
<g opacity="0.6">
<g opacity="0.6">
<path opacity="0.6" d="M134.453 483.029C134.453 477.942 130.456 473.799 125.514 473.799C120.573 473.799 116.576 477.942 116.576 483.029C116.576 488.116 120.573 492.258 125.514 492.258C130.456 492.258 134.453 488.116 134.453 483.029Z" fill="url(#paint6_linear_2_505)"/>
</g>
</g>
</mask>
<g mask="url(#mask6_2_505)">
<path opacity="0.6" d="M134.453 483.029C134.453 477.942 130.456 473.799 125.514 473.799C120.573 473.799 116.576 477.942 116.576 483.029C116.576 488.116 120.573 492.258 125.514 492.258C130.456 492.258 134.453 488.116 134.453 483.029Z" fill="#FFFDFF"/>
</g>
<mask id="mask7_2_505" style="mask-type:alpha" maskUnits="userSpaceOnUse" x="62" y="473" width="18" height="20">
<g opacity="0.6">
<g opacity="0.6">
<path opacity="0.6" d="M79.877 483.029C79.877 477.942 75.8801 473.799 70.9385 473.799C65.9968 473.799 62 477.942 62 483.028C62 488.115 65.9968 492.258 70.9385 492.258C75.8801 492.258 79.877 488.115 79.877 483.029Z" fill="url(#paint7_linear_2_505)"/>
</g>
</g>
</mask>
<g mask="url(#mask7_2_505)">
<path opacity="0.6" d="M79.877 483.029C79.877 477.942 75.8801 473.799 70.9385 473.799C65.9968 473.799 62 477.942 62 483.028C62 488.115 65.9968 492.258 70.9385 492.258C75.8801 492.258 79.877 488.115 79.877 483.029Z" fill="#FFFDFF"/>
</g>
</g>
</g>
<g opacity="0.6">
<g opacity="0.6">
<mask id="mask8_2_505" style="mask-type:alpha" maskUnits="userSpaceOnUse" x="225" y="434" width="19" height="19">
<g opacity="0.6">
<g opacity="0.6">
<path opacity="0.6" d="M243.604 443.714C243.604 438.627 239.607 434.485 234.666 434.485C229.724 434.485 225.727 438.627 225.727 443.714C225.727 448.801 229.724 452.943 234.666 452.943C239.607 453.016 243.604 448.873 243.604 443.714Z" fill="url(#paint8_linear_2_505)"/>
</g>
</g>
</mask>
<g mask="url(#mask8_2_505)">
<path opacity="0.6" d="M243.604 443.714C243.604 438.627 239.607 434.485 234.666 434.485C229.724 434.485 225.727 438.627 225.727 443.714C225.727 448.801 229.724 452.943 234.666 452.943C239.607 453.016 243.604 448.873 243.604 443.714Z" fill="#FFFDFF"/>
</g>
<mask id="mask9_2_505" style="mask-type:alpha" maskUnits="userSpaceOnUse" x="171" y="434" width="19" height="19">
<g opacity="0.6">
<g opacity="0.6">
<path opacity="0.6" d="M189.029 443.714C189.029 438.627 185.032 434.485 180.09 434.485C175.148 434.485 171.152 438.627 171.152 443.714C171.152 448.801 175.148 452.943 180.09 452.943C185.032 452.943 189.029 448.873 189.029 443.714Z" fill="url(#paint9_linear_2_505)"/>
</g>
</g>
</mask>
<g mask="url(#mask9_2_505)">
<path opacity="0.6" d="M189.029 443.714C189.029 438.627 185.032 434.485 180.09 434.485C175.148 434.485 171.152 438.627 171.152 443.714C171.152 448.801 175.148 452.943 180.09 452.943C185.032 452.943 189.029 448.873 189.029 443.714Z" fill="#FFFDFF"/>
</g>
<mask id="mask10_2_505" style="mask-type:alpha" maskUnits="userSpaceOnUse" x="116" y="434" width="19" height="19">
<g opacity="0.6">
<g opacity="0.6">
<path opacity="0.6" d="M134.453 443.714C134.453 438.627 130.456 434.485 125.514 434.485C120.573 434.485 116.576 438.627 116.576 443.714C116.576 448.801 120.573 452.943 125.514 452.943C130.456 453.016 134.453 448.873 134.453 443.714Z" fill="url(#paint10_linear_2_505)"/>
</g>
</g>
</mask>
<g mask="url(#mask10_2_505)">
<path opacity="0.6" d="M134.453 443.714C134.453 438.627 130.456 434.485 125.514 434.485C120.573 434.485 116.576 438.627 116.576 443.714C116.576 448.801 120.573 452.943 125.514 452.943C130.456 453.016 134.453 448.873 134.453 443.714Z" fill="#FFFDFF"/>
</g>
<mask id="mask11_2_505" style="mask-type:alpha" maskUnits="userSpaceOnUse" x="62" y="434" width="18" height="19">
<g opacity="0.6">
<g opacity="0.6">
<path opacity="0.6" d="M79.877 443.714C79.877 438.627 75.8801 434.485 70.9385 434.485C65.9968 434.485 62 438.627 62 443.714C62 448.801 65.9968 452.943 70.9385 452.943C75.8801 453.016 79.877 448.873 79.877 443.714Z" fill="url(#paint11_linear_2_505)"/>
</g>
</g>
</mask>
<g mask="url(#mask11_2_505)">
<path opacity="0.6" d="M79.877 443.714C79.877 438.627 75.8801 434.485 70.9385 434.485C65.9968 434.485 62 438.627 62 443.714C62 448.801 65.9968 452.943 70.9385 452.943C75.8801 453.016 79.877 448.873 79.877 443.714Z" fill="#FFFDFF"/>
</g>
</g>
</g>
<g opacity="0.6">
<g opacity="0.6">
<mask id="mask12_2_505" style="mask-type:alpha" maskUnits="userSpaceOnUse" x="225" y="395" width="19" height="19">
<g opacity="0.6">
<g opacity="0.6">
<path opacity="0.6" d="M243.604 404.472C243.604 399.385 239.607 395.242 234.666 395.242C229.724 395.242 225.727 399.385 225.727 404.472C225.727 409.558 229.724 413.701 234.666 413.701C239.607 413.773 243.604 409.631 243.604 404.472Z" fill="url(#paint12_linear_2_505)"/>
</g>
</g>
</mask>
<g mask="url(#mask12_2_505)">
<path opacity="0.6" d="M243.604 404.472C243.604 399.385 239.607 395.242 234.666 395.242C229.724 395.242 225.727 399.385 225.727 404.472C225.727 409.558 229.724 413.701 234.666 413.701C239.607 413.773 243.604 409.631 243.604 404.472Z" fill="#FFFDFF"/>
</g>
<mask id="mask13_2_505" style="mask-type:alpha" maskUnits="userSpaceOnUse" x="171" y="395" width="19" height="19">
<g opacity="0.6">
<g opacity="0.6">
<path opacity="0.6" d="M180.163 395.242C175.226 395.242 171.224 399.374 171.224 404.471C171.224 409.569 175.226 413.701 180.163 413.701C185.099 413.701 189.101 409.569 189.101 404.471C189.101 399.374 185.099 395.242 180.163 395.242Z" fill="url(#paint13_linear_2_505)"/>
</g>
</g>
</mask>
<g mask="url(#mask13_2_505)">
<path opacity="0.6" d="M180.163 395.242C175.226 395.242 171.224 399.374 171.224 404.471C171.224 409.569 175.226 413.701 180.163 413.701C185.099 413.701 189.101 409.569 189.101 404.471C189.101 399.374 185.099 395.242 180.163 395.242Z" fill="#FFFDFF"/>
</g>
<mask id="mask14_2_505" style="mask-type:alpha" maskUnits="userSpaceOnUse" x="116" y="395" width="19" height="19">
<g opacity="0.6">
<g opacity="0.6">
<path opacity="0.6" d="M125.514 395.242C120.578 395.242 116.576 399.374 116.576 404.471C116.576 409.569 120.578 413.701 125.514 413.701C130.451 413.701 134.453 409.569 134.453 404.471C134.453 399.374 130.451 395.242 125.514 395.242Z" fill="url(#paint14_linear_2_505)"/>
</g>
</g>
</mask>
<g mask="url(#mask14_2_505)">
<path opacity="0.6" d="M125.514 395.242C120.578 395.242 116.576 399.374 116.576 404.471C116.576 409.569 120.578 413.701 125.514 413.701C130.451 413.701 134.453 409.569 134.453 404.471C134.453 399.374 130.451 395.242 125.514 395.242Z" fill="#FFFDFF"/>
</g>
<mask id="mask15_2_505" style="mask-type:alpha" maskUnits="userSpaceOnUse" x="62" y="395" width="18" height="19">
<g opacity="0.6">
<g opacity="0.6">
<path opacity="0.6" d="M79.877 404.472C79.877 399.385 75.8801 395.242 70.9385 395.242C65.9968 395.242 62 399.385 62 404.472C62 409.558 65.9968 413.701 70.9385 413.701C75.8801 413.773 79.877 409.631 79.877 404.472Z" fill="url(#paint15_linear_2_505)"/>
</g>
</g>
</mask>
<g mask="url(#mask15_2_505)">
<path opacity="0.6" d="M79.877 404.472C79.877 399.385 75.8801 395.242 70.9385 395.242C65.9968 395.242 62 399.385 62 404.472C62 409.558 65.9968 413.701 70.9385 413.701C75.8801 413.773 79.877 409.631 79.877 404.472Z" fill="#FFFDFF"/>
</g>
</g>
</g>
<g opacity="0.6">
<g opacity="0.6">
<mask id="mask16_2_505" style="mask-type:alpha" maskUnits="userSpaceOnUse" x="225" y="356" width="19" height="19">
<g opacity="0.6">
<g opacity="0.6">
<path opacity="0.6" d="M243.604 365.229C243.604 360.142 239.607 356 234.666 356C229.724 356 225.727 360.142 225.727 365.229C225.727 370.316 229.724 374.458 234.666 374.458C239.607 374.531 243.604 370.389 243.604 365.229Z" fill="url(#paint16_linear_2_505)"/>
</g>
</g>
</mask>
<g mask="url(#mask16_2_505)">
<path opacity="0.6" d="M243.604 365.229C243.604 360.142 239.607 356 234.666 356C229.724 356 225.727 360.142 225.727 365.229C225.727 370.316 229.724 374.458 234.666 374.458C239.607 374.531 243.604 370.389 243.604 365.229Z" fill="#FFFDFF"/>
</g>
<mask id="mask17_2_505" style="mask-type:alpha" maskUnits="userSpaceOnUse" x="171" y="355" width="19" height="20">
<g opacity="0.6">
<g opacity="0.6">
<path opacity="0.6" d="M189.029 365.229C189.029 360.142 185.032 356 180.09 356C175.148 356 171.152 360.142 171.152 365.229C171.152 370.316 175.148 374.458 180.09 374.458C185.032 374.531 189.029 370.389 189.029 365.229Z" fill="url(#paint17_linear_2_505)"/>
</g>
</g>
</mask>
<g mask="url(#mask17_2_505)">
<path opacity="0.6" d="M189.029 365.229C189.029 360.142 185.032 356 180.09 356C175.148 356 171.152 360.142 171.152 365.229C171.152 370.316 175.148 374.458 180.09 374.458C185.032 374.531 189.029 370.389 189.029 365.229Z" fill="#FFFDFF"/>
</g>
<mask id="mask18_2_505" style="mask-type:alpha" maskUnits="userSpaceOnUse" x="116" y="356" width="19" height="19">
<g opacity="0.6">
<g opacity="0.6">
<path opacity="0.6" d="M125.514 356C120.578 356 116.576 360.132 116.576 365.229C116.576 370.326 120.578 374.458 125.514 374.458C130.451 374.458 134.453 370.326 134.453 365.229C134.453 360.132 130.451 356 125.514 356Z" fill="url(#paint18_linear_2_505)"/>
</g>
</g>
</mask>
<g mask="url(#mask18_2_505)">
<path opacity="0.6" d="M125.514 356C120.578 356 116.576 360.132 116.576 365.229C116.576 370.326 120.578 374.458 125.514 374.458C130.451 374.458 134.453 370.326 134.453 365.229C134.453 360.132 130.451 356 125.514 356Z" fill="#FFFDFF"/>
</g>
<mask id="mask19_2_505" style="mask-type:alpha" maskUnits="userSpaceOnUse" x="62" y="355" width="18" height="20">
<g opacity="0.6">
<g opacity="0.6">
<path opacity="0.6" d="M79.877 365.229C79.877 360.142 75.8801 356 70.9385 356C65.9968 356 62 360.142 62 365.229C62 370.316 65.9968 374.458 70.9385 374.458C75.8801 374.531 79.877 370.389 79.877 365.229Z" fill="url(#paint19_linear_2_505)"/>
</g>
</g>
</mask>
<g mask="url(#mask19_2_505)">
<path opacity="0.6" d="M79.877 365.229C79.877 360.142 75.8801 356 70.9385 356C65.9968 356 62 360.142 62 365.229C62 370.316 65.9968 374.458 70.9385 374.458C75.8801 374.531 79.877 370.389 79.877 365.229Z" fill="#FFFDFF"/>
</g>
</g>
</g>
<g opacity="0.6">
<g opacity="0.6">
<mask id="mask20_2_505" style="mask-type:alpha" maskUnits="userSpaceOnUse" x="503" y="513" width="19" height="19">
<g opacity="0.6">
<g opacity="0.6">
<path opacity="0.6" d="M521.497 522.271C521.497 517.184 517.501 513.042 512.559 513.042C507.617 513.042 503.62 517.184 503.62 522.271C503.62 527.358 507.69 531.5 512.559 531.5C517.501 531.5 521.497 527.358 521.497 522.271Z" fill="url(#paint20_linear_2_505)"/>
</g>
</g>
</mask>
<g mask="url(#mask20_2_505)">
<path opacity="0.6" d="M521.497 522.271C521.497 517.184 517.501 513.042 512.559 513.042C507.617 513.042 503.62 517.184 503.62 522.271C503.62 527.358 507.69 531.5 512.559 531.5C517.501 531.5 521.497 527.358 521.497 522.271Z" fill="#FFFDFF"/>
</g>
<mask id="mask21_2_505" style="mask-type:alpha" maskUnits="userSpaceOnUse" x="449" y="513" width="18" height="19">
<g opacity="0.6">
<g opacity="0.6">
<path opacity="0.6" d="M466.922 522.271C466.922 517.184 462.925 513.042 457.983 513.042C453.042 513.042 449.045 517.184 449.045 522.271C449.045 527.358 453.042 531.5 457.983 531.5C462.925 531.5 466.922 527.358 466.922 522.271Z" fill="url(#paint21_linear_2_505)"/>
</g>
</g>
</mask>
<g mask="url(#mask21_2_505)">
<path opacity="0.6" d="M466.922 522.271C466.922 517.184 462.925 513.042 457.983 513.042C453.042 513.042 449.045 517.184 449.045 522.271C449.045 527.358 453.042 531.5 457.983 531.5C462.925 531.5 466.922 527.358 466.922 522.271Z" fill="#FFFDFF"/>
</g>
<mask id="mask22_2_505" style="mask-type:alpha" maskUnits="userSpaceOnUse" x="394" y="513" width="19" height="19">
<g opacity="0.6">
<g opacity="0.6">
<path opacity="0.6" d="M412.346 522.271C412.346 517.184 408.349 513.042 403.407 513.042C398.466 513.042 394.469 517.184 394.469 522.271C394.469 527.358 398.466 531.5 403.407 531.5C408.349 531.5 412.346 527.358 412.346 522.271Z" fill="url(#paint22_linear_2_505)"/>
</g>
</g>
</mask>
<g mask="url(#mask22_2_505)">
<path opacity="0.6" d="M412.346 522.271C412.346 517.184 408.349 513.042 403.407 513.042C398.466 513.042 394.469 517.184 394.469 522.271C394.469 527.358 398.466 531.5 403.407 531.5C408.349 531.5 412.346 527.358 412.346 522.271Z" fill="#FFFDFF"/>
</g>
<mask id="mask23_2_505" style="mask-type:alpha" maskUnits="userSpaceOnUse" x="339" y="513" width="19" height="19">
<g opacity="0.6">
<g opacity="0.6">
<path opacity="0.6" d="M357.698 522.271C357.698 517.184 353.701 513.042 348.759 513.042C343.817 513.042 339.82 517.184 339.82 522.271C339.82 527.358 343.817 531.5 348.759 531.5C353.773 531.5 357.698 527.358 357.698 522.271Z" fill="url(#paint23_linear_2_505)"/>
</g>
</g>
</mask>
<g mask="url(#mask23_2_505)">
<path opacity="0.6" d="M357.698 522.271C357.698 517.184 353.701 513.042 348.759 513.042C343.817 513.042 339.82 517.184 339.82 522.271C339.82 527.358 343.817 531.5 348.759 531.5C353.773 531.5 357.698 527.358 357.698 522.271Z" fill="#FFFDFF"/>
</g>
<mask id="mask24_2_505" style="mask-type:alpha" maskUnits="userSpaceOnUse" x="285" y="513" width="19" height="19">
<g opacity="0.6">
<g opacity="0.6">
<path opacity="0.6" d="M303.122 522.271C303.122 517.184 299.125 513.042 294.183 513.042C289.242 513.042 285.245 517.184 285.245 522.271C285.245 527.358 289.242 531.5 294.183 531.5C299.125 531.5 303.122 527.358 303.122 522.271Z" fill="url(#paint24_linear_2_505)"/>
</g>
</g>
</mask>
<g mask="url(#mask24_2_505)">
<path opacity="0.6" d="M303.122 522.271C303.122 517.184 299.125 513.042 294.183 513.042C289.242 513.042 285.245 517.184 285.245 522.271C285.245 527.358 289.242 531.5 294.183 531.5C299.125 531.5 303.122 527.358 303.122 522.271Z" fill="#FFFDFF"/>
</g>
</g>
</g>
<g opacity="0.6">
<g opacity="0.6">
<mask id="mask25_2_505" style="mask-type:alpha" maskUnits="userSpaceOnUse" x="503" y="473" width="19" height="20">
<g opacity="0.6">
<g opacity="0.6">
<path opacity="0.6" d="M512.559 473.799C507.622 473.799 503.62 477.931 503.62 483.029C503.62 488.126 507.622 492.258 512.559 492.258C517.496 492.258 521.497 488.126 521.497 483.029C521.497 477.931 517.496 473.799 512.559 473.799Z" fill="url(#paint25_linear_2_505)"/>
</g>
</g>
</mask>
<g mask="url(#mask25_2_505)">
<path opacity="0.6" d="M512.559 473.799C507.622 473.799 503.62 477.931 503.62 483.029C503.62 488.126 507.622 492.258 512.559 492.258C517.496 492.258 521.497 488.126 521.497 483.029C521.497 477.931 517.496 473.799 512.559 473.799Z" fill="#FFFDFF"/>
</g>
<mask id="mask26_2_505" style="mask-type:alpha" maskUnits="userSpaceOnUse" x="449" y="473" width="18" height="20">
<g opacity="0.6">
<g opacity="0.6">
<path opacity="0.6" d="M466.922 483.029C466.922 477.942 462.925 473.799 457.983 473.799C453.042 473.799 449.045 477.942 449.045 483.029C449.045 488.116 453.042 492.258 457.983 492.258C462.925 492.258 466.922 488.116 466.922 483.029Z" fill="url(#paint26_linear_2_505)"/>
</g>
</g>
</mask>
<g mask="url(#mask26_2_505)">
<path opacity="0.6" d="M466.922 483.029C466.922 477.942 462.925 473.799 457.983 473.799C453.042 473.799 449.045 477.942 449.045 483.029C449.045 488.116 453.042 492.258 457.983 492.258C462.925 492.258 466.922 488.116 466.922 483.029Z" fill="#FFFDFF"/>
</g>
<mask id="mask27_2_505" style="mask-type:alpha" maskUnits="userSpaceOnUse" x="394" y="473" width="19" height="20">
<g opacity="0.6">
<g opacity="0.6">
<path opacity="0.6" d="M412.346 483.029C412.346 477.942 408.349 473.799 403.407 473.799C398.466 473.799 394.469 477.942 394.469 483.029C394.469 488.116 398.466 492.258 403.407 492.258C408.349 492.258 412.346 488.116 412.346 483.029Z" fill="url(#paint27_linear_2_505)"/>
</g>
</g>
</mask>
<g mask="url(#mask27_2_505)">
<path opacity="0.6" d="M412.346 483.029C412.346 477.942 408.349 473.799 403.407 473.799C398.466 473.799 394.469 477.942 394.469 483.029C394.469 488.116 398.466 492.258 403.407 492.258C408.349 492.258 412.346 488.116 412.346 483.029Z" fill="#FFFDFF"/>
</g>
<mask id="mask28_2_505" style="mask-type:alpha" maskUnits="userSpaceOnUse" x="339" y="473" width="19" height="20">
<g opacity="0.6">
<g opacity="0.6">
<path opacity="0.6" d="M357.698 483.029C357.698 477.942 353.701 473.799 348.759 473.799C343.817 473.799 339.82 477.942 339.82 483.028C339.82 488.115 343.817 492.258 348.759 492.258C353.773 492.258 357.698 488.115 357.698 483.029Z" fill="url(#paint28_linear_2_505)"/>
</g>
</g>
</mask>
<g mask="url(#mask28_2_505)">
<path opacity="0.6" d="M357.698 483.029C357.698 477.942 353.701 473.799 348.759 473.799C343.817 473.799 339.82 477.942 339.82 483.028C339.82 488.115 343.817 492.258 348.759 492.258C353.773 492.258 357.698 488.115 357.698 483.029Z" fill="#FFFDFF"/>
</g>
<mask id="mask29_2_505" style="mask-type:alpha" maskUnits="userSpaceOnUse" x="285" y="473" width="19" height="20">
<g opacity="0.6">
<g opacity="0.6">
<path opacity="0.6" d="M303.122 483.029C303.122 477.942 299.125 473.799 294.183 473.799C289.242 473.799 285.245 477.942 285.245 483.028C285.245 488.115 289.242 492.258 294.183 492.258C299.125 492.258 303.122 488.115 303.122 483.029Z" fill="url(#paint29_linear_2_505)"/>
</g>
</g>
</mask>
<g mask="url(#mask29_2_505)">
<path opacity="0.6" d="M303.122 483.029C303.122 477.942 299.125 473.799 294.183 473.799C289.242 473.799 285.245 477.942 285.245 483.028C285.245 488.115 289.242 492.258 294.183 492.258C299.125 492.258 303.122 488.115 303.122 483.029Z" fill="#FFFDFF"/>
</g>
</g>
</g>
<g opacity="0.6">
<g opacity="0.6">
<mask id="mask30_2_505" style="mask-type:alpha" maskUnits="userSpaceOnUse" x="503" y="434" width="19" height="20">
<g opacity="0.6">
<g opacity="0.6">
<path opacity="0.6" d="M521.497 443.786C521.497 438.699 517.501 434.557 512.559 434.557C507.617 434.557 503.62 438.699 503.62 443.786C503.62 448.873 507.617 453.016 512.559 453.016C517.501 453.016 521.497 448.873 521.497 443.786Z" fill="url(#paint30_linear_2_505)"/>
</g>
</g>
</mask>
<g mask="url(#mask30_2_505)">
<path opacity="0.6" d="M521.497 443.786C521.497 438.699 517.501 434.557 512.559 434.557C507.617 434.557 503.62 438.699 503.62 443.786C503.62 448.873 507.617 453.015 512.559 453.015C517.501 453.015 521.497 448.873 521.497 443.786Z" fill="#FFFDFF"/>
</g>
<mask id="mask31_2_505" style="mask-type:alpha" maskUnits="userSpaceOnUse" x="449" y="434" width="18" height="20">
<g opacity="0.6">
<g opacity="0.6">
<path opacity="0.6" d="M466.922 443.786C466.922 438.699 462.925 434.557 457.983 434.557C453.042 434.557 449.045 438.699 449.045 443.786C449.045 448.873 453.042 453.015 457.983 453.015C462.925 453.015 466.922 448.873 466.922 443.786Z" fill="url(#paint31_linear_2_505)"/>
</g>
</g>
</mask>
<g mask="url(#mask31_2_505)">
<path opacity="0.6" d="M466.922 443.786C466.922 438.699 462.925 434.557 457.983 434.557C453.042 434.557 449.045 438.699 449.045 443.786C449.045 448.873 453.042 453.015 457.983 453.015C462.925 453.015 466.922 448.873 466.922 443.786Z" fill="#FFFDFF"/>
</g>
<mask id="mask32_2_505" style="mask-type:alpha" maskUnits="userSpaceOnUse" x="394" y="434" width="19" height="20">
<g opacity="0.6">
<g opacity="0.6">
<path opacity="0.6" d="M412.346 443.786C412.346 438.699 408.349 434.557 403.407 434.557C398.466 434.557 394.469 438.699 394.469 443.786C394.469 448.873 398.466 453.015 403.407 453.015C408.349 453.015 412.346 448.873 412.346 443.786Z" fill="url(#paint32_linear_2_505)"/>
</g>
</g>
</mask>
<g mask="url(#mask32_2_505)">
<path opacity="0.6" d="M412.346 443.786C412.346 438.699 408.349 434.557 403.407 434.557C398.466 434.557 394.469 438.699 394.469 443.786C394.469 448.873 398.466 453.015 403.407 453.015C408.349 453.015 412.346 448.873 412.346 443.786Z" fill="#FFFDFF"/>
</g>
<mask id="mask33_2_505" style="mask-type:alpha" maskUnits="userSpaceOnUse" x="339" y="434" width="19" height="19">
<g opacity="0.6">
<g opacity="0.6">
<path opacity="0.6" d="M357.698 443.714C357.698 438.627 353.701 434.484 348.759 434.484C343.817 434.484 339.82 438.627 339.82 443.714C339.82 448.801 343.817 452.943 348.759 452.943C353.773 453.015 357.698 448.873 357.698 443.714Z" fill="url(#paint33_linear_2_505)"/>
</g>
</g>
</mask>
<g mask="url(#mask33_2_505)">
<path opacity="0.6" d="M357.698 443.714C357.698 438.627 353.701 434.484 348.759 434.484C343.817 434.484 339.82 438.627 339.82 443.714C339.82 448.801 343.817 452.943 348.759 452.943C353.773 453.015 357.698 448.873 357.698 443.714Z" fill="#FFFDFF"/>
</g>
<mask id="mask34_2_505" style="mask-type:alpha" maskUnits="userSpaceOnUse" x="285" y="434" width="19" height="19">
<g opacity="0.6">
<g opacity="0.6">
<path opacity="0.6" d="M303.122 443.714C303.122 438.627 299.125 434.484 294.183 434.484C289.242 434.484 285.245 438.627 285.245 443.714C285.245 448.801 289.242 452.943 294.183 452.943C299.125 453.015 303.122 448.873 303.122 443.714Z" fill="url(#paint34_linear_2_505)"/>
</g>
</g>
</mask>
<g mask="url(#mask34_2_505)">
<path opacity="0.6" d="M303.122 443.714C303.122 438.627 299.125 434.484 294.183 434.484C289.242 434.484 285.245 438.627 285.245 443.714C285.245 448.801 289.242 452.943 294.183 452.943C299.125 453.015 303.122 448.873 303.122 443.714Z" fill="#FFFDFF"/>
</g>
</g>
</g>
<g opacity="0.6">
<g opacity="0.6">
<mask id="mask35_2_505" style="mask-type:alpha" maskUnits="userSpaceOnUse" x="503" y="395" width="19" height="19">
<g opacity="0.6">
<g opacity="0.6">
<path opacity="0.6" d="M521.497 404.472C521.497 399.385 517.501 395.242 512.559 395.242C507.617 395.242 503.62 399.385 503.62 404.472C503.62 409.558 507.617 413.701 512.559 413.701C517.501 413.773 521.497 409.631 521.497 404.472Z" fill="url(#paint35_linear_2_505)"/>
</g>
</g>
</mask>
<g mask="url(#mask35_2_505)">
<path opacity="0.6" d="M521.497 404.472C521.497 399.385 517.501 395.242 512.559 395.242C507.617 395.242 503.62 399.385 503.62 404.472C503.62 409.558 507.617 413.701 512.559 413.701C517.501 413.773 521.497 409.631 521.497 404.472Z" fill="#FFFDFF"/>
</g>
<mask id="mask36_2_505" style="mask-type:alpha" maskUnits="userSpaceOnUse" x="449" y="395" width="18" height="19">
<g opacity="0.6">
<g opacity="0.6">
<path opacity="0.6" d="M466.922 404.472C466.922 399.385 462.925 395.242 457.983 395.242C453.042 395.242 449.045 399.385 449.045 404.472C449.045 409.558 453.042 413.701 457.983 413.701C462.925 413.773 466.922 409.631 466.922 404.472Z" fill="url(#paint36_linear_2_505)"/>
</g>
</g>
</mask>
<g mask="url(#mask36_2_505)">
<path opacity="0.6" d="M466.922 404.472C466.922 399.385 462.925 395.242 457.983 395.242C453.042 395.242 449.045 399.385 449.045 404.472C449.045 409.558 453.042 413.701 457.983 413.701C462.925 413.773 466.922 409.631 466.922 404.472Z" fill="#FFFDFF"/>
</g>
<mask id="mask37_2_505" style="mask-type:alpha" maskUnits="userSpaceOnUse" x="394" y="395" width="19" height="19">
<g opacity="0.6">
<g opacity="0.6">
<path opacity="0.6" d="M412.346 404.472C412.346 399.385 408.349 395.242 403.407 395.242C398.466 395.242 394.469 399.385 394.469 404.472C394.469 409.558 398.466 413.701 403.407 413.701C408.349 413.773 412.346 409.631 412.346 404.472Z" fill="url(#paint37_linear_2_505)"/>
</g>
</g>
</mask>
<g mask="url(#mask37_2_505)">
<path opacity="0.6" d="M412.346 404.472C412.346 399.385 408.349 395.242 403.407 395.242C398.466 395.242 394.469 399.385 394.469 404.472C394.469 409.558 398.466 413.701 403.407 413.701C408.349 413.773 412.346 409.631 412.346 404.472Z" fill="#FFFDFF"/>
</g>
<mask id="mask38_2_505" style="mask-type:alpha" maskUnits="userSpaceOnUse" x="339" y="395" width="19" height="19">
<g opacity="0.6">
<g opacity="0.6">
<path opacity="0.6" d="M357.698 404.472C357.698 399.385 353.701 395.242 348.759 395.242C343.817 395.242 339.82 399.385 339.82 404.472C339.82 409.558 343.817 413.701 348.759 413.701C353.773 413.773 357.698 409.631 357.698 404.472Z" fill="url(#paint38_linear_2_505)"/>
</g>
</g>
</mask>
<g mask="url(#mask38_2_505)">
<path opacity="0.6" d="M357.698 404.472C357.698 399.385 353.701 395.242 348.759 395.242C343.817 395.242 339.82 399.385 339.82 404.472C339.82 409.558 343.817 413.701 348.759 413.701C353.773 413.773 357.698 409.631 357.698 404.472Z" fill="#FFFDFF"/>
</g>
<mask id="mask39_2_505" style="mask-type:alpha" maskUnits="userSpaceOnUse" x="285" y="395" width="19" height="19">
<g opacity="0.6">
<g opacity="0.6">
<path opacity="0.6" d="M303.122 404.471C303.122 399.384 299.125 395.242 294.183 395.242C289.242 395.242 285.245 399.384 285.245 404.471C285.245 409.558 289.242 413.701 294.183 413.701C299.125 413.773 303.122 409.631 303.122 404.471Z" fill="url(#paint39_linear_2_505)"/>
</g>
</g>
</mask>
<g mask="url(#mask39_2_505)">
<path opacity="0.6" d="M303.122 404.471C303.122 399.384 299.125 395.242 294.183 395.242C289.242 395.242 285.245 399.384 285.245 404.471C285.245 409.558 289.242 413.701 294.183 413.701C299.125 413.773 303.122 409.631 303.122 404.471Z" fill="#FFFDFF"/>
</g>
</g>
</g>
<g opacity="0.6">
<g opacity="0.6">
<mask id="mask40_2_505" style="mask-type:alpha" maskUnits="userSpaceOnUse" x="503" y="356" width="19" height="19">
<g opacity="0.6">
<g opacity="0.6">
<path opacity="0.6" d="M521.498 365.229C521.498 360.142 517.501 356 512.559 356C507.617 356 503.621 360.142 503.621 365.229C503.621 370.316 507.617 374.458 512.559 374.458C517.501 374.531 521.498 370.389 521.498 365.229Z" fill="url(#paint40_linear_2_505)"/>
</g>
</g>
</mask>
<g mask="url(#mask40_2_505)">
<path opacity="0.6" d="M521.498 365.229C521.498 360.142 517.501 356 512.559 356C507.617 356 503.621 360.142 503.621 365.229C503.621 370.316 507.617 374.458 512.559 374.458C517.501 374.531 521.498 370.389 521.498 365.229Z" fill="#FFFDFF"/>
</g>
<mask id="mask41_2_505" style="mask-type:alpha" maskUnits="userSpaceOnUse" x="449" y="355" width="18" height="20">
<g opacity="0.6">
<g opacity="0.6">
<path opacity="0.6" d="M466.922 365.229C466.922 360.142 462.925 356 457.983 356C453.042 356 449.045 360.142 449.045 365.229C449.045 370.316 453.042 374.458 457.983 374.458C462.925 374.531 466.922 370.389 466.922 365.229Z" fill="url(#paint41_linear_2_505)"/>
</g>
</g>
</mask>
<g mask="url(#mask41_2_505)">
<path opacity="0.6" d="M466.922 365.229C466.922 360.142 462.925 356 457.983 356C453.042 356 449.045 360.142 449.045 365.229C449.045 370.316 453.042 374.458 457.983 374.458C462.925 374.531 466.922 370.389 466.922 365.229Z" fill="#FFFDFF"/>
</g>
<mask id="mask42_2_505" style="mask-type:alpha" maskUnits="userSpaceOnUse" x="394" y="355" width="19" height="20">
<g opacity="0.6">
<g opacity="0.6">
<path opacity="0.6" d="M412.346 365.229C412.346 360.142 408.349 356 403.407 356C398.466 356 394.469 360.142 394.469 365.229C394.469 370.316 398.466 374.458 403.407 374.458C408.349 374.531 412.346 370.389 412.346 365.229Z" fill="url(#paint42_linear_2_505)"/>
</g>
</g>
</mask>
<g mask="url(#mask42_2_505)">
<path opacity="0.6" d="M412.346 365.229C412.346 360.142 408.349 356 403.407 356C398.466 356 394.469 360.142 394.469 365.229C394.469 370.316 398.466 374.458 403.407 374.458C408.349 374.531 412.346 370.389 412.346 365.229Z" fill="#FFFDFF"/>
</g>
<mask id="mask43_2_505" style="mask-type:alpha" maskUnits="userSpaceOnUse" x="339" y="355" width="19" height="20">
<g opacity="0.6">
<g opacity="0.6">
<path opacity="0.6" d="M357.698 365.229C357.698 360.142 353.701 356 348.759 356C343.817 356 339.82 360.142 339.82 365.229C339.82 370.316 343.817 374.458 348.759 374.458C353.773 374.531 357.698 370.389 357.698 365.229Z" fill="url(#paint43_linear_2_505)"/>
</g>
</g>
</mask>
<g mask="url(#mask43_2_505)">
<path opacity="0.6" d="M357.698 365.229C357.698 360.142 353.701 356 348.759 356C343.817 356 339.82 360.142 339.82 365.229C339.82 370.316 343.817 374.458 348.759 374.458C353.773 374.531 357.698 370.389 357.698 365.229Z" fill="#FFFDFF"/>
</g>
<mask id="mask44_2_505" style="mask-type:alpha" maskUnits="userSpaceOnUse" x="285" y="355" width="19" height="20">
<g opacity="0.6">
<g opacity="0.6">
<path opacity="0.6" d="M303.122 365.229C303.122 360.142 299.125 356 294.183 356C289.242 356 285.245 360.142 285.245 365.229C285.245 370.316 289.242 374.458 294.183 374.458C299.125 374.531 303.122 370.389 303.122 365.229Z" fill="url(#paint44_linear_2_505)"/>
</g>
</g>
</mask>
<g mask="url(#mask44_2_505)">
<path opacity="0.6" d="M303.122 365.229C303.122 360.142 299.125 356 294.183 356C289.242 356 285.245 360.142 285.245 365.229C285.245 370.316 289.242 374.458 294.183 374.458C299.125 374.531 303.122 370.389 303.122 365.229Z" fill="#FFFDFF"/>
</g>
</g>
</g>
</g>
<defs>
<linearGradient id="paint0_linear_2_505" x1="239.434" y1="525.09" x2="-656.762" y2="-16.0101" gradientUnits="userSpaceOnUse">
<stop stop-color="white"/>
<stop offset="0.8649" stop-color="#1A1A1A"/>
</linearGradient>
<linearGradient id="paint1_linear_2_505" x1="225.266" y1="549.495" x2="-670.927" y2="8.39641" gradientUnits="userSpaceOnUse">
<stop stop-color="white"/>
<stop offset="0.8649" stop-color="#1A1A1A"/>
</linearGradient>
<linearGradient id="paint2_linear_2_505" x1="211.1" y1="573.9" x2="-685.099" y2="32.7975" gradientUnits="userSpaceOnUse">
<stop stop-color="white"/>
<stop offset="0.8649" stop-color="#1A1A1A"/>
</linearGradient>
<linearGradient id="paint3_linear_2_505" x1="196.931" y1="598.304" x2="-699.261" y2="57.207" gradientUnits="userSpaceOnUse">
<stop stop-color="white"/>
<stop offset="0.8649" stop-color="#1A1A1A"/>
</linearGradient>
<linearGradient id="paint4_linear_2_505" x1="239.434" y1="485.842" x2="-656.761" y2="-55.2576" gradientUnits="userSpaceOnUse">
<stop stop-color="white"/>
<stop offset="0.8649" stop-color="#1A1A1A"/>
</linearGradient>
<linearGradient id="paint5_linear_2_505" x1="225.267" y1="510.247" x2="-670.926" y2="-30.8513" gradientUnits="userSpaceOnUse">
<stop stop-color="white"/>
<stop offset="0.8649" stop-color="#1A1A1A"/>
</linearGradient>
<linearGradient id="paint6_linear_2_505" x1="211.1" y1="534.652" x2="-685.101" y2="-6.45163" gradientUnits="userSpaceOnUse">
<stop stop-color="white"/>
<stop offset="0.8649" stop-color="#1A1A1A"/>
</linearGradient>
<linearGradient id="paint7_linear_2_505" x1="196.932" y1="559.056" x2="-699.263" y2="17.9576" gradientUnits="userSpaceOnUse">
<stop stop-color="white"/>
<stop offset="0.8649" stop-color="#1A1A1A"/>
</linearGradient>
<linearGradient id="paint8_linear_2_505" x1="239.434" y1="446.594" x2="-656.762" y2="-94.5062" gradientUnits="userSpaceOnUse">
<stop stop-color="white"/>
<stop offset="0.8649" stop-color="#1A1A1A"/>
</linearGradient>
<linearGradient id="paint9_linear_2_505" x1="225.267" y1="470.999" x2="-670.925" y2="-70.0986" gradientUnits="userSpaceOnUse">
<stop stop-color="white"/>
<stop offset="0.8649" stop-color="#1A1A1A"/>
</linearGradient>
<linearGradient id="paint10_linear_2_505" x1="211.1" y1="495.404" x2="-685.097" y2="-45.6979" gradientUnits="userSpaceOnUse">
<stop stop-color="white"/>
<stop offset="0.8649" stop-color="#1A1A1A"/>
</linearGradient>
<linearGradient id="paint11_linear_2_505" x1="196.931" y1="519.808" x2="-699.259" y2="-21.2881" gradientUnits="userSpaceOnUse">
<stop stop-color="white"/>
<stop offset="0.8649" stop-color="#1A1A1A"/>
</linearGradient>
<linearGradient id="paint12_linear_2_505" x1="239.435" y1="407.346" x2="-656.761" y2="-133.754" gradientUnits="userSpaceOnUse">
<stop stop-color="white"/>
<stop offset="0.8649" stop-color="#1A1A1A"/>
</linearGradient>
<linearGradient id="paint13_linear_2_505" x1="225.267" y1="431.751" x2="-670.926" y2="-109.348" gradientUnits="userSpaceOnUse">
<stop stop-color="white"/>
<stop offset="0.8649" stop-color="#1A1A1A"/>
</linearGradient>
<linearGradient id="paint14_linear_2_505" x1="211.1" y1="456.156" x2="-685.1" y2="-84.9477" gradientUnits="userSpaceOnUse">
<stop stop-color="white"/>
<stop offset="0.8649" stop-color="#1A1A1A"/>
</linearGradient>
<linearGradient id="paint15_linear_2_505" x1="196.932" y1="480.56" x2="-699.262" y2="-60.5384" gradientUnits="userSpaceOnUse">
<stop stop-color="white"/>
<stop offset="0.8649" stop-color="#1A1A1A"/>
</linearGradient>
<linearGradient id="paint16_linear_2_505" x1="239.435" y1="368.098" x2="-656.76" y2="-173.002" gradientUnits="userSpaceOnUse">
<stop stop-color="white"/>
<stop offset="0.8649" stop-color="#1A1A1A"/>
</linearGradient>
<linearGradient id="paint17_linear_2_505" x1="225.267" y1="392.503" x2="-670.926" y2="-148.596" gradientUnits="userSpaceOnUse">
<stop stop-color="white"/>
<stop offset="0.8649" stop-color="#1A1A1A"/>
</linearGradient>
<linearGradient id="paint18_linear_2_505" x1="211.1" y1="416.908" x2="-685.097" y2="-124.194" gradientUnits="userSpaceOnUse">
<stop stop-color="white"/>
<stop offset="0.8649" stop-color="#1A1A1A"/>
</linearGradient>
<linearGradient id="paint19_linear_2_505" x1="196.932" y1="441.312" x2="-699.26" y2="-99.7856" gradientUnits="userSpaceOnUse">
<stop stop-color="white"/>
<stop offset="0.8649" stop-color="#1A1A1A"/>
</linearGradient>
<linearGradient id="paint20_linear_2_505" x1="517.299" y1="525.092" x2="-378.9" y2="-16.0095" gradientUnits="userSpaceOnUse">
<stop stop-color="white"/>
<stop offset="0.8649" stop-color="#1A1A1A"/>
</linearGradient>
<linearGradient id="paint21_linear_2_505" x1="503.131" y1="549.497" x2="-393.061" y2="8.39924" gradientUnits="userSpaceOnUse">
<stop stop-color="white"/>
<stop offset="0.8649" stop-color="#1A1A1A"/>
</linearGradient>
<linearGradient id="paint22_linear_2_505" x1="488.964" y1="573.902" x2="-407.229" y2="32.8031" gradientUnits="userSpaceOnUse">
<stop stop-color="white"/>
<stop offset="0.8649" stop-color="#1A1A1A"/>
</linearGradient>
<linearGradient id="paint23_linear_2_505" x1="474.796" y1="598.306" x2="-421.397" y2="57.2077" gradientUnits="userSpaceOnUse">
<stop stop-color="white"/>
<stop offset="0.8649" stop-color="#1A1A1A"/>
</linearGradient>
<linearGradient id="paint24_linear_2_505" x1="460.629" y1="622.711" x2="-435.565" y2="81.612" gradientUnits="userSpaceOnUse">
<stop stop-color="white"/>
<stop offset="0.8649" stop-color="#1A1A1A"/>
</linearGradient>
<linearGradient id="paint25_linear_2_505" x1="517.299" y1="485.844" x2="-378.901" y2="-55.2581" gradientUnits="userSpaceOnUse">
<stop stop-color="white"/>
<stop offset="0.8649" stop-color="#1A1A1A"/>
</linearGradient>
<linearGradient id="paint26_linear_2_505" x1="503.131" y1="510.249" x2="-393.062" y2="-30.8498" gradientUnits="userSpaceOnUse">
<stop stop-color="white"/>
<stop offset="0.8649" stop-color="#1A1A1A"/>
</linearGradient>
<linearGradient id="paint27_linear_2_505" x1="488.964" y1="534.654" x2="-407.228" y2="-6.44416" gradientUnits="userSpaceOnUse">
<stop stop-color="white"/>
<stop offset="0.8649" stop-color="#1A1A1A"/>
</linearGradient>
<linearGradient id="paint28_linear_2_505" x1="474.796" y1="559.058" x2="-421.396" y2="17.9605" gradientUnits="userSpaceOnUse">
<stop stop-color="white"/>
<stop offset="0.8649" stop-color="#1A1A1A"/>
</linearGradient>
<linearGradient id="paint29_linear_2_505" x1="460.629" y1="583.463" x2="-435.566" y2="42.3636" gradientUnits="userSpaceOnUse">
<stop stop-color="white"/>
<stop offset="0.8649" stop-color="#1A1A1A"/>
</linearGradient>
<linearGradient id="paint30_linear_2_505" x1="517.299" y1="446.596" x2="-378.901" y2="-94.5066" gradientUnits="userSpaceOnUse">
<stop stop-color="white"/>
<stop offset="0.8649" stop-color="#1A1A1A"/>
</linearGradient>
<linearGradient id="paint31_linear_2_505" x1="503.131" y1="471.001" x2="-393.061" y2="-70.0975" gradientUnits="userSpaceOnUse">
<stop stop-color="white"/>
<stop offset="0.8649" stop-color="#1A1A1A"/>
</linearGradient>
<linearGradient id="paint32_linear_2_505" x1="488.964" y1="495.406" x2="-407.229" y2="-45.693" gradientUnits="userSpaceOnUse">
<stop stop-color="white"/>
<stop offset="0.8649" stop-color="#1A1A1A"/>
</linearGradient>
<linearGradient id="paint33_linear_2_505" x1="474.797" y1="519.81" x2="-421.397" y2="-21.2888" gradientUnits="userSpaceOnUse">
<stop stop-color="white"/>
<stop offset="0.8649" stop-color="#1A1A1A"/>
</linearGradient>
<linearGradient id="paint34_linear_2_505" x1="460.629" y1="544.215" x2="-435.565" y2="3.11603" gradientUnits="userSpaceOnUse">
<stop stop-color="white"/>
<stop offset="0.8649" stop-color="#1A1A1A"/>
</linearGradient>
<linearGradient id="paint35_linear_2_505" x1="517.299" y1="407.348" x2="-378.899" y2="-133.753" gradientUnits="userSpaceOnUse">
<stop stop-color="white"/>
<stop offset="0.8649" stop-color="#1A1A1A"/>
</linearGradient>
<linearGradient id="paint36_linear_2_505" x1="503.132" y1="431.753" x2="-393.064" y2="-109.347" gradientUnits="userSpaceOnUse">
<stop stop-color="white"/>
<stop offset="0.8649" stop-color="#1A1A1A"/>
</linearGradient>
<linearGradient id="paint37_linear_2_505" x1="488.964" y1="456.158" x2="-407.229" y2="-84.9408" gradientUnits="userSpaceOnUse">
<stop stop-color="white"/>
<stop offset="0.8649" stop-color="#1A1A1A"/>
</linearGradient>
<linearGradient id="paint38_linear_2_505" x1="474.797" y1="480.562" x2="-421.396" y2="-60.536" gradientUnits="userSpaceOnUse">
<stop stop-color="white"/>
<stop offset="0.8649" stop-color="#1A1A1A"/>
</linearGradient>
<linearGradient id="paint39_linear_2_505" x1="460.63" y1="504.967" x2="-435.564" y2="-36.1322" gradientUnits="userSpaceOnUse">
<stop stop-color="white"/>
<stop offset="0.8649" stop-color="#1A1A1A"/>
</linearGradient>
<linearGradient id="paint40_linear_2_505" x1="517.3" y1="368.1" x2="-378.898" y2="-173.001" gradientUnits="userSpaceOnUse">
<stop stop-color="white"/>
<stop offset="0.8649" stop-color="#1A1A1A"/>
</linearGradient>
<linearGradient id="paint41_linear_2_505" x1="503.132" y1="392.505" x2="-393.06" y2="-148.593" gradientUnits="userSpaceOnUse">
<stop stop-color="white"/>
<stop offset="0.8649" stop-color="#1A1A1A"/>
</linearGradient>
<linearGradient id="paint42_linear_2_505" x1="488.964" y1="416.909" x2="-407.227" y2="-124.188" gradientUnits="userSpaceOnUse">
<stop stop-color="white"/>
<stop offset="0.8649" stop-color="#1A1A1A"/>
</linearGradient>
<linearGradient id="paint43_linear_2_505" x1="474.797" y1="441.314" x2="-421.397" y2="-99.7852" gradientUnits="userSpaceOnUse">
<stop stop-color="white"/>
<stop offset="0.8649" stop-color="#1A1A1A"/>
</linearGradient>
<linearGradient id="paint44_linear_2_505" x1="460.63" y1="465.719" x2="-435.565" y2="-75.3806" gradientUnits="userSpaceOnUse">
<stop stop-color="white"/>
<stop offset="0.8649" stop-color="#1A1A1A"/>
</linearGradient>
<clipPath id="clip0_2_505">
<rect width="2306" height="872" fill="white" transform="translate(-230.5 -305)"/>
</clipPath>
</defs>
</svg>
