<svg width="1892" height="312" viewBox="0 0 1892 312" fill="none" xmlns="http://www.w3.org/2000/svg">
<g opacity="0.3">
<path opacity="0.3" d="M-1.9966 283.964C46.4824 283.964 86.007 242.859 86.007 192.482C86.007 142.105 46.4824 101 -1.9966 101C-50.4757 101 -90 142.105 -90 192.482C-90 242.859 -50.63 283.964 -1.9966 283.964ZM-1.9966 106.718C43.549 106.718 80.4489 145.196 80.4489 192.482C80.4489 239.769 43.3946 278.247 -1.9966 278.247C-47.5422 278.247 -84.4417 239.769 -84.4417 192.482C-84.5961 145.196 -47.5422 106.718 -1.9966 106.718Z" fill="white"/>
</g>
<g opacity="0.3">
<path opacity="0.3" d="M1702 118C1806.67 118 1892 32.7528 1892 -72C1892 -176.753 1806.82 -262 1702 -262C1597.33 -262 1512 -176.753 1512 -72C1512.15 32.7528 1597.33 118 1702 118ZM1702 -250.152C1800.22 -250.152 1880 -170.251 1880 -72C1880 26.2509 1800.07 106.152 1702 106.152C1603.78 106.152 1524 26.2509 1524 -72C1524 -170.251 1603.93 -250.152 1702 -250.152Z" fill="white"/>
</g>
<path opacity="0.51" d="M301.699 133.942L329 116.994L301.699 100V133.942Z" fill="#7B2179"/>
<path opacity="0.51" d="M269.372 133.942L296.673 116.994L269.372 100V133.942Z" fill="#7B2179"/>
<path opacity="0.51" d="M237 133.942L264.301 116.994L237 100V133.942Z" fill="#7B2179"/>
<g opacity="0.6">
<g opacity="0.6">
<mask id="mask0_2_925" style="mask-type:alpha" maskUnits="userSpaceOnUse" x="1812" y="295" width="17" height="17">
<g opacity="0.6">
<g opacity="0.6">
<path opacity="0.6" d="M1828.17 303.32C1828.17 307.922 1824.63 311.64 1820.21 311.64C1815.79 311.64 1812.25 307.922 1812.25 303.32C1812.25 298.717 1815.79 295 1820.21 295C1824.63 295 1828.17 298.717 1828.17 303.32Z" fill="url(#paint0_linear_2_925)"/>
</g>
</g>
</mask>
<g mask="url(#mask0_2_925)">
<path opacity="0.6" d="M1828.17 303.32C1828.17 307.922 1824.63 311.64 1820.21 311.64C1815.79 311.64 1812.25 307.922 1812.25 303.32C1812.25 298.717 1815.79 295 1820.21 295C1824.63 295 1828.17 298.717 1828.17 303.32Z" fill="url(#paint1_linear_2_925)"/>
</g>
<mask id="mask1_2_925" style="mask-type:alpha" maskUnits="userSpaceOnUse" x="1763" y="295" width="17" height="17">
<g opacity="0.6">
<g opacity="0.6">
<path opacity="0.6" d="M1779.36 303.32C1779.36 307.922 1775.82 311.64 1771.4 311.64C1766.98 311.64 1763.44 307.922 1763.44 303.32C1763.44 298.717 1766.98 295 1771.4 295C1775.82 295 1779.36 298.717 1779.36 303.32Z" fill="url(#paint2_linear_2_925)"/>
</g>
</g>
</mask>
<g mask="url(#mask1_2_925)">
<path opacity="0.6" d="M1779.36 303.32C1779.36 307.922 1775.82 311.64 1771.4 311.64C1766.98 311.64 1763.44 307.922 1763.44 303.32C1763.44 298.717 1766.98 295 1771.4 295C1775.82 295 1779.36 298.717 1779.36 303.32Z" fill="url(#paint3_linear_2_925)"/>
</g>
<mask id="mask2_2_925" style="mask-type:alpha" maskUnits="userSpaceOnUse" x="1714" y="295" width="17" height="17">
<g opacity="0.6">
<g opacity="0.6">
<path opacity="0.6" d="M1730.54 303.32C1730.54 307.922 1727.01 311.64 1722.59 311.64C1718.16 311.64 1714.63 307.922 1714.63 303.32C1714.63 298.717 1718.16 295 1722.59 295C1727.01 295 1730.54 298.717 1730.54 303.32Z" fill="url(#paint4_linear_2_925)"/>
</g>
</g>
</mask>
<g mask="url(#mask2_2_925)">
<path opacity="0.6" d="M1730.54 303.32C1730.54 307.922 1727.01 311.64 1722.59 311.64C1718.16 311.64 1714.63 307.922 1714.63 303.32C1714.63 298.717 1718.16 295 1722.59 295C1727.01 295 1730.54 298.717 1730.54 303.32Z" fill="url(#paint5_linear_2_925)"/>
</g>
<mask id="mask3_2_925" style="mask-type:alpha" maskUnits="userSpaceOnUse" x="1665" y="295" width="17" height="17">
<g opacity="0.6">
<g opacity="0.6">
<path opacity="0.6" d="M1681.73 303.32C1681.73 307.922 1678.19 311.64 1673.77 311.64C1669.35 311.64 1665.81 307.922 1665.81 303.32C1665.81 298.717 1669.35 295 1673.77 295C1678.19 295 1681.73 298.717 1681.73 303.32Z" fill="url(#paint6_linear_2_925)"/>
</g>
</g>
</mask>
<g mask="url(#mask3_2_925)">
<path opacity="0.6" d="M1681.73 303.32C1681.73 307.922 1678.19 311.64 1673.77 311.64C1669.35 311.64 1665.81 307.922 1665.81 303.32C1665.81 298.717 1669.35 295 1673.77 295C1678.19 295 1681.73 298.717 1681.73 303.32Z" fill="url(#paint7_linear_2_925)"/>
</g>
<mask id="mask4_2_925" style="mask-type:alpha" maskUnits="userSpaceOnUse" x="1617" y="295" width="16" height="17">
<g opacity="0.6">
<g opacity="0.6">
<path opacity="0.6" d="M1632.92 303.32C1632.92 307.922 1629.38 311.64 1624.96 311.64C1620.54 311.64 1617 307.922 1617 303.32C1617 298.717 1620.54 295 1624.96 295C1629.38 295 1632.92 298.717 1632.92 303.32Z" fill="url(#paint8_linear_2_925)"/>
</g>
</g>
</mask>
<g mask="url(#mask4_2_925)">
<path opacity="0.6" d="M1632.92 303.32C1632.92 307.922 1629.38 311.64 1624.96 311.64C1620.54 311.64 1617 307.922 1617 303.32C1617 298.717 1620.54 295 1624.96 295C1629.38 295 1632.92 298.717 1632.92 303.32Z" fill="url(#paint9_linear_2_925)"/>
</g>
</g>
</g>
<defs>
<linearGradient id="paint0_linear_2_925" x1="1824.42" y1="300.762" x2="1022.62" y2="784.436" gradientUnits="userSpaceOnUse">
<stop stop-color="white"/>
<stop offset="0.8649" stop-color="#1A1A1A"/>
</linearGradient>
<linearGradient id="paint1_linear_2_925" x1="1824.42" y1="300.762" x2="1022.62" y2="784.436" gradientUnits="userSpaceOnUse">
<stop stop-color="white"/>
<stop offset="0.8649" stop-color="white"/>
</linearGradient>
<linearGradient id="paint2_linear_2_925" x1="1811.75" y1="278.918" x2="1009.95" y2="762.591" gradientUnits="userSpaceOnUse">
<stop stop-color="white"/>
<stop offset="0.8649" stop-color="#1A1A1A"/>
</linearGradient>
<linearGradient id="paint3_linear_2_925" x1="1811.75" y1="278.918" x2="1009.95" y2="762.591" gradientUnits="userSpaceOnUse">
<stop stop-color="white"/>
<stop offset="0.8649" stop-color="white"/>
</linearGradient>
<linearGradient id="paint4_linear_2_925" x1="1799.08" y1="257.075" x2="997.278" y2="740.748" gradientUnits="userSpaceOnUse">
<stop stop-color="white"/>
<stop offset="0.8649" stop-color="#1A1A1A"/>
</linearGradient>
<linearGradient id="paint5_linear_2_925" x1="1799.08" y1="257.075" x2="997.278" y2="740.748" gradientUnits="userSpaceOnUse">
<stop stop-color="white"/>
<stop offset="0.8649" stop-color="white"/>
</linearGradient>
<linearGradient id="paint6_linear_2_925" x1="1786.41" y1="235.231" x2="984.611" y2="718.903" gradientUnits="userSpaceOnUse">
<stop stop-color="white"/>
<stop offset="0.8649" stop-color="#1A1A1A"/>
</linearGradient>
<linearGradient id="paint7_linear_2_925" x1="1786.41" y1="235.231" x2="984.611" y2="718.903" gradientUnits="userSpaceOnUse">
<stop stop-color="white"/>
<stop offset="0.8649" stop-color="white"/>
</linearGradient>
<linearGradient id="paint8_linear_2_925" x1="1773.74" y1="213.387" x2="971.942" y2="697.059" gradientUnits="userSpaceOnUse">
<stop stop-color="white"/>
<stop offset="0.8649" stop-color="#1A1A1A"/>
</linearGradient>
<linearGradient id="paint9_linear_2_925" x1="1773.74" y1="213.387" x2="971.942" y2="697.059" gradientUnits="userSpaceOnUse">
<stop stop-color="white"/>
<stop offset="0.8649" stop-color="white"/>
</linearGradient>
</defs>
</svg>
