<svg width="80" height="80" viewBox="0 0 80 80" fill="none" xmlns="http://www.w3.org/2000/svg">
<rect width="80" height="80" rx="40" fill="#F2A231"/>
<path d="M52.5185 39.1468L34.5215 28.1482C34.3699 28.0556 34.1963 28.005 34.0187 28.0016C33.8411 27.9983 33.6658 28.0424 33.5108 28.1293C33.3559 28.2162 33.2269 28.3428 33.1371 28.4961C33.0473 28.6494 33 28.8238 33 29.0015V50.9986C33 51.1763 33.0473 51.3507 33.1371 51.504C33.2269 51.6573 33.3559 51.7839 33.5108 51.8708C33.6658 51.9577 33.8411 52.0018 34.0187 51.9984C34.1963 51.9951 34.3699 51.9445 34.5215 51.8519L52.5185 40.8533C52.6647 40.764 52.7855 40.6386 52.8693 40.4892C52.9531 40.3398 52.9971 40.1713 52.9971 40C52.9971 39.8287 52.9531 39.6603 52.8693 39.5109C52.7855 39.3615 52.6647 39.2361 52.5185 39.1468Z" fill="white"/>
</svg>
